<?xml version="1.0" encoding="UTF-8"?>
<!DOCTYPE svg PUBLIC "-//W3C//DTD SVG 1.1//EN" "http://www.w3.org/Graphics/SVG/1.1/DTD/svg11.dtd">
<!-- Creator: CorelDRAW X8 -->
<svg xmlns="http://www.w3.org/2000/svg" xml:space="preserve" width="962px" height="2048px" version="1.1" style="shape-rendering:geometricPrecision; text-rendering:geometricPrecision; image-rendering:optimizeQuality; fill-rule:evenodd; clip-rule:evenodd"
viewBox="0 0 962 2048"
 xmlns:xlink="http://www.w3.org/1999/xlink">
 <defs>
  <style type="text/css">
   <![CDATA[
    .fil0 {fill:#009846;fill-rule:nonzero}
   ]]>
  </style>
 </defs>
 <g id="Layer_x0020_1">
  <metadata id="CorelCorpID_0Corel-Layer"/>
  <path class="fil0" d="M962 1359c0,327 -112,539 -255,634 -67,45 -145,67 -226,67 -81,0 -159,-22 -226,-67 -143,-95 -255,-307 -255,-634 0,-326 112,-538 255,-633 67,-45 145,-67 226,-67 81,0 159,22 226,67 143,95 255,307 255,633zm-376 589c126,-84 224,-279 224,-589 0,-309 -98,-504 -224,-588 -37,-24 -73,-36 -105,-36 -32,0 -68,12 -105,36 -126,84 -224,279 -224,588 0,310 98,505 224,589 37,24 73,36 105,36 32,0 68,-12 105,-36z"/>
 </g>
</svg>
