<?xml version="1.0" encoding="UTF-8"?>
<!DOCTYPE svg PUBLIC "-//W3C//DTD SVG 1.1//EN" "http://www.w3.org/Graphics/SVG/1.1/DTD/svg11.dtd">
<!-- Creator: CorelDRAW X8 -->
<svg xmlns="http://www.w3.org/2000/svg" xml:space="preserve" width="918px" height="2048px" version="1.1" style="shape-rendering:geometricPrecision; text-rendering:geometricPrecision; image-rendering:optimizeQuality; fill-rule:evenodd; clip-rule:evenodd"
viewBox="0 0 918 2048"
 xmlns:xlink="http://www.w3.org/1999/xlink">
 <defs>
  <style type="text/css">
   <![CDATA[
    .fil0 {fill:#009846;fill-rule:nonzero}
   ]]>
  </style>
 </defs>
 <g id="Layer_x0020_1">
  <metadata id="CorelCorpID_0Corel-Layer"/>
  <path class="fil0" d="M156 1058c1,21 -33,39 -75,40 -43,0 -78,-16 -80,-38 -6,-111 24,-216 109,-293 86,-78 207,-109 321,-108 214,2 356,100 416,223 21,44 32,92 32,140 1,48 -10,95 -32,139 -34,66 -94,124 -182,162 98,35 166,95 207,168 27,48 42,102 45,157 4,54 -5,109 -25,160 -68,175 -239,252 -418,252 -120,0 -240,-29 -330,-95 -98,-71 -144,-176 -144,-295 0,-21 35,-39 77,-39 43,0 78,18 78,39 0,100 33,191 116,252 59,42 132,61 203,61 126,0 221,-73 266,-189 18,-46 26,-96 23,-144 -3,-48 -16,-96 -40,-138 -45,-80 -130,-141 -256,-144 -20,2 -40,3 -61,3 -43,0 -78,-18 -78,-39 0,-20 31,-36 70,-38 20,-2 39,-3 57,-3 123,-13 203,-73 242,-149 19,-38 28,-79 28,-120 0,-42 -10,-83 -28,-122 -45,-91 -137,-163 -269,-164 -67,-1 -133,23 -182,68 -73,66 -96,160 -90,254z"/>
 </g>
</svg>
