<?xml version="1.0" encoding="UTF-8"?>
<!DOCTYPE svg PUBLIC "-//W3C//DTD SVG 1.1//EN" "http://www.w3.org/Graphics/SVG/1.1/DTD/svg11.dtd">
<!-- Creator: CorelDRAW X8 -->
<svg xmlns="http://www.w3.org/2000/svg" xml:space="preserve" width="1067px" height="2048px" version="1.1" style="shape-rendering:geometricPrecision; text-rendering:geometricPrecision; image-rendering:optimizeQuality; fill-rule:evenodd; clip-rule:evenodd"
viewBox="0 0 1067 2048"
 xmlns:xlink="http://www.w3.org/1999/xlink">
 <defs>
  <style type="text/css">
   <![CDATA[
    .fil0 {fill:#009846;fill-rule:nonzero}
   ]]>
  </style>
 </defs>
 <g id="Layer_x0020_1">
  <metadata id="CorelCorpID_0Corel-Layer"/>
  <path class="fil0" d="M814 2021c0,21 -34,39 -77,39 -43,0 -78,-18 -78,-39l0 -327 -575 0c-10,0 -21,0 -31,-2 -41,-7 -63,-29 -49,-49l658 -955c14,-22 50,-29 75,-29 43,0 77,18 77,39l0 919 175 0c42,0 78,17 78,38 0,22 -36,39 -78,39l-175 0 0 327zm-628 -404l473 0 0 -688 -473 688z"/>
 </g>
</svg>
