<?xml version="1.0" encoding="UTF-8"?>
<!DOCTYPE svg PUBLIC "-//W3C//DTD SVG 1.1//EN" "http://www.w3.org/Graphics/SVG/1.1/DTD/svg11.dtd">
<!-- Creator: CorelDRAW X8 -->
<svg xmlns="http://www.w3.org/2000/svg" xml:space="preserve" width="976px" height="2048px" version="1.1" style="shape-rendering:geometricPrecision; text-rendering:geometricPrecision; image-rendering:optimizeQuality; fill-rule:evenodd; clip-rule:evenodd"
viewBox="0 0 976 2048"
 xmlns:xlink="http://www.w3.org/1999/xlink">
 <defs>
  <style type="text/css">
   <![CDATA[
    .fil0 {fill:#009846;fill-rule:nonzero}
   ]]>
  </style>
 </defs>
 <g id="Layer_x0020_1">
  <metadata id="CorelCorpID_0Corel-Layer"/>
  <path class="fil0" d="M79 748c-43,0 -79,-17 -79,-38 0,-22 36,-39 79,-39l819 0c43,0 78,17 78,39 0,6 -3,11 -8,17 -150,185 -262,368 -340,575 -79,208 -124,440 -138,720 -1,22 -36,38 -79,38 -43,-1 -76,-18 -75,-39 14,-286 60,-521 140,-733 73,-194 175,-367 309,-540l-706 0z"/>
 </g>
</svg>
