<?xml version="1.0" encoding="UTF-8"?>
<!DOCTYPE svg PUBLIC "-//W3C//DTD SVG 1.1//EN" "http://www.w3.org/Graphics/SVG/1.1/DTD/svg11.dtd">
<!-- Creator: CorelDRAW X8 -->
<svg xmlns="http://www.w3.org/2000/svg" xml:space="preserve" width="959px" height="2048px" version="1.1" style="shape-rendering:geometricPrecision; text-rendering:geometricPrecision; image-rendering:optimizeQuality; fill-rule:evenodd; clip-rule:evenodd"
viewBox="0 0 959 2048"
 xmlns:xlink="http://www.w3.org/1999/xlink">
 <defs>
  <style type="text/css">
   <![CDATA[
    .fil0 {fill:#009846;fill-rule:nonzero}
   ]]>
  </style>
 </defs>
 <g id="Layer_x0020_1">
  <metadata id="CorelCorpID_0Corel-Layer"/>
  <path class="fil0" d="M959 1675c0,180 -119,298 -271,351 -65,23 -136,34 -208,34 -73,0 -144,-11 -209,-34 -152,-53 -271,-171 -271,-351 0,-178 116,-295 266,-349 -129,-52 -227,-157 -227,-314 0,-165 108,-272 247,-321 61,-21 127,-32 194,-32 66,0 132,11 193,32 139,49 247,156 247,321 0,157 -98,262 -227,314 150,54 266,171 266,349zm-375 -404c102,-36 181,-121 181,-259 0,-137 -79,-222 -181,-258 -34,-12 -69,-18 -104,-18 -36,0 -71,6 -105,18 -102,36 -181,121 -181,258 0,138 79,223 181,259 34,12 69,18 105,18 35,0 70,-6 104,-18zm15 692c115,-40 205,-136 205,-288 0,-152 -90,-248 -205,-288 -38,-13 -79,-20 -119,-20 -41,0 -82,7 -120,20 -115,40 -205,136 -205,288 0,152 90,248 205,288 38,13 79,20 120,20 40,0 81,-7 119,-20z"/>
 </g>
</svg>
