<?xml version="1.0" encoding="UTF-8"?>
<!DOCTYPE svg PUBLIC "-//W3C//DTD SVG 1.1//EN" "http://www.w3.org/Graphics/SVG/1.1/DTD/svg11.dtd">
<!-- Creator: CorelDRAW X8 -->
<svg xmlns="http://www.w3.org/2000/svg" xml:space="preserve" width="989px" height="1025px" version="1.1" style="shape-rendering:geometricPrecision; text-rendering:geometricPrecision; image-rendering:optimizeQuality; fill-rule:evenodd; clip-rule:evenodd"
viewBox="0 0 989 1025"
 xmlns:xlink="http://www.w3.org/1999/xlink">
 <defs>
  <style type="text/css">
   <![CDATA[
    .fil0 {fill:#1F1B20;fill-rule:nonzero}
   ]]>
  </style>
 </defs>
 <g id="Layer_x0020_1">
  <metadata id="CorelCorpID_0Corel-Layer"/>
  <path class="fil0" d="M198 287c0,23 -38,42 -85,42 -47,0 -84,-19 -84,-42 1,-75 49,-145 123,-196 82,-56 196,-92 317,-91 114,1 228,36 310,93 62,44 120,114 120,194l0 487c2,66 8,143 71,181 29,18 24,45 -12,60 -36,15 -89,12 -119,-6 -53,-32 -80,-76 -94,-119 -31,32 -67,58 -107,78 -74,38 -160,57 -246,57 -72,0 -155,-12 -225,-44 -60,-27 -112,-69 -141,-130 -21,-43 -29,-92 -25,-140 8,-90 59,-162 141,-201 104,-51 224,-46 345,-42 92,3 186,7 242,-31l0 -150c-1,-58 -37,-108 -88,-144 -51,-36 -115,-58 -174,-58 -63,-1 -127,21 -177,56 -55,38 -91,90 -92,146zm531 372l0 -116c-79,16 -167,13 -254,10 -83,-3 -166,-6 -216,18 -54,26 -83,87 -89,144 -7,77 20,137 67,175 40,32 94,49 155,49 82,0 166,-27 230,-76 64,-50 107,-120 107,-204z"/>
 </g>
</svg>
