<?xml version="1.0" encoding="UTF-8"?>
<!DOCTYPE svg PUBLIC "-//W3C//DTD SVG 1.1//EN" "http://www.w3.org/Graphics/SVG/1.1/DTD/svg11.dtd">
<!-- Creator: CorelDRAW X8 -->
<svg xmlns="http://www.w3.org/2000/svg" xml:space="preserve" width="1098px" height="1401px" version="1.1" style="shape-rendering:geometricPrecision; text-rendering:geometricPrecision; image-rendering:optimizeQuality; fill-rule:evenodd; clip-rule:evenodd"
viewBox="0 0 1116 1423"
 xmlns:xlink="http://www.w3.org/1999/xlink">
 <defs>
  <style type="text/css">
   <![CDATA[
    .fil0 {fill:#009846;fill-rule:nonzero}
   ]]>
  </style>
 </defs>
 <g id="Layer_x0020_1">
  <metadata id="CorelCorpID_0Corel-Layer"/>
  <path class="fil0" d="M854 752c0,-21 35,-39 78,-38 43,0 77,17 77,39 -2,130 -38,260 -105,372 118,140 205,242 205,243 17,20 -1,43 -41,51 -39,9 -85,-1 -102,-20 0,-1 -57,-68 -141,-167 -104,116 -265,191 -424,191 -223,2 -429,-152 -398,-394 25,-194 175,-298 330,-392 -51,-65 -97,-123 -132,-170 -46,-60 -81,-133 -82,-206 -1,-177 189,-261 343,-261 171,0 336,89 336,276 0,179 -148,291 -285,375 90,112 195,238 290,353 32,-80 49,-166 51,-252zm-115 377c-105,-125 -229,-275 -339,-409 -120,76 -222,165 -241,314 -20,153 80,308 241,311 137,3 266,-106 339,-216zm-293 -561c102,-66 195,-163 195,-292 0,-105 -67,-198 -179,-198 -100,0 -188,82 -187,183 1,64 33,127 72,179 27,36 61,80 99,128z"/>
 </g>
</svg>
