<?xml version="1.0" encoding="UTF-8"?>
<!DOCTYPE svg PUBLIC "-//W3C//DTD SVG 1.1//EN" "http://www.w3.org/Graphics/SVG/1.1/DTD/svg11.dtd">
<!-- Creator: CorelDRAW X8 -->
<svg xmlns="http://www.w3.org/2000/svg" xml:space="preserve" width="1724px" height="2048px" version="1.1" style="shape-rendering:geometricPrecision; text-rendering:geometricPrecision; image-rendering:optimizeQuality; fill-rule:evenodd; clip-rule:evenodd"
viewBox="0 0 1724 2048"
 xmlns:xlink="http://www.w3.org/1999/xlink">
 <defs>
  <style type="text/css">
   <![CDATA[
    .fil0 {fill:#E31E24;fill-rule:nonzero}
   ]]>
  </style>
 </defs>
 <g id="Layer_x0020_1">
  <metadata id="CorelCorpID_0Corel-Layer"/>
  <path class="fil0" d="M428 1731c-12,-58 -14,-123 -8,-183 7,-61 22,-118 46,-171 68,-149 206,-254 412,-231 129,14 216,77 268,165 9,-55 16,-103 19,-135 2,-19 34,-34 73,-33 38,1 68,17 66,36 -5,58 -20,151 -37,251 -20,117 -42,244 -49,326 -5,60 -1,131 29,183 13,23 34,49 63,49 63,-1 121,-46 168,-112 66,-91 103,-220 106,-330 1,-11 1,-18 1,-29 1,-263 -87,-462 -221,-595 -132,-131 -302,-192 -472,-193 -190,-1 -381,74 -523,222 -132,138 -221,338 -229,599 -4,123 12,233 43,329 52,162 147,284 265,366 110,77 239,118 368,122 79,2 159,-9 237,-34 32,-11 75,-6 96,10 21,17 11,38 -21,49 -103,33 -212,48 -320,44 -171,-5 -337,-55 -474,-150 -129,-90 -233,-222 -289,-396 -32,-99 -48,-213 -45,-341 8,-272 103,-482 243,-628 167,-175 409,-263 649,-262 220,0 438,74 597,232 143,142 236,351 235,626 0,11 0,22 0,33 -4,117 -44,251 -115,350 -66,92 -164,156 -296,158 -94,1 -175,-34 -213,-125 -64,80 -158,124 -283,124 -202,0 -348,-130 -389,-326zm667 -106c3,-51 0,-99 -10,-148 -28,-135 -106,-249 -237,-263 -111,-13 -196,67 -245,178 -23,50 -37,102 -43,159 -6,57 -4,118 7,173 35,166 142,262 253,264 85,1 172,-53 229,-179 30,-65 36,-116 46,-184z"/>
 </g>
</svg>
