<?xml version="1.0" encoding="UTF-8"?>
<!DOCTYPE svg PUBLIC "-//W3C//DTD SVG 1.1//EN" "http://www.w3.org/Graphics/SVG/1.1/DTD/svg11.dtd">
<!-- Creator: CorelDRAW X8 -->
<svg xmlns="http://www.w3.org/2000/svg" xml:space="preserve" width="1043px" height="2048px" version="1.1" style="shape-rendering:geometricPrecision; text-rendering:geometricPrecision; image-rendering:optimizeQuality; fill-rule:evenodd; clip-rule:evenodd"
viewBox="0 0 1043 2048"
 xmlns:xlink="http://www.w3.org/1999/xlink">
 <defs>
  <style type="text/css">
   <![CDATA[
    .fil0 {fill:#009846;fill-rule:nonzero}
   ]]>
  </style>
 </defs>
 <g id="Layer_x0020_1">
  <metadata id="CorelCorpID_0Corel-Layer"/>
  <path class="fil0" d="M-2 694c0,-20 33,-36 73,-36 40,0 72,16 72,36l0 505c83,-104 211,-165 378,-165 259,0 420,137 487,311 24,64 37,133 37,202 0,68 -13,137 -37,201 -67,175 -228,311 -487,311 -167,0 -295,-61 -378,-165l0 127c0,20 -32,36 -72,36 -40,0 -73,-16 -73,-36l0 -1327zm145 852l0 1c0,64 12,129 34,188 55,141 170,251 344,251 175,0 290,-110 345,-251 22,-59 34,-124 34,-188 0,-65 -12,-129 -34,-188 -55,-142 -170,-252 -345,-252 -174,0 -289,110 -344,252 -22,58 -34,123 -34,187z"/>
 </g>
</svg>
