<?xml version="1.0" encoding="UTF-8"?>
<!DOCTYPE svg PUBLIC "-//W3C//DTD SVG 1.1//EN" "http://www.w3.org/Graphics/SVG/1.1/DTD/svg11.dtd">
<!-- Creator: CorelDRAW X8 -->
<svg xmlns="http://www.w3.org/2000/svg" xml:space="preserve" width="1081px" height="2048px" version="1.1" style="shape-rendering:geometricPrecision; text-rendering:geometricPrecision; image-rendering:optimizeQuality; fill-rule:evenodd; clip-rule:evenodd"
viewBox="0 0 1081 2048"
 xmlns:xlink="http://www.w3.org/1999/xlink">
 <defs>
  <style type="text/css">
   <![CDATA[
    .fil0 {fill:#1F1B20;fill-rule:nonzero}
   ]]>
  </style>
 </defs>
 <g id="Layer_x0020_1">
  <metadata id="CorelCorpID_0Corel-Layer"/>
  <path class="fil0" d="M91 669l545 0 0 0c191,0 308,99 355,227 16,45 24,93 24,140 0,48 -8,96 -24,141 -25,66 -68,126 -132,167 99,39 164,112 196,198 17,45 25,93 25,140 0,48 -8,96 -25,141 -48,128 -168,227 -364,227l-600 0c-50,0 -90,-20 -90,-45 0,-430 0,-861 0,-1292 0,-36 72,-44 90,-44zm90 645l462 0c83,-3 141,-69 171,-153 14,-39 21,-81 21,-125 0,-43 -7,-85 -21,-124 -31,-86 -92,-154 -178,-154l0 0 -455 0 0 556zm510 90l-510 0 0 557 510 0c91,0 155,-68 187,-155 15,-38 22,-81 22,-124 0,-42 -7,-85 -22,-123 -32,-87 -96,-155 -187,-155z"/>
 </g>
</svg>
