<?xml version="1.0" encoding="UTF-8"?>
<!DOCTYPE svg PUBLIC "-//W3C//DTD SVG 1.1//EN" "http://www.w3.org/Graphics/SVG/1.1/DTD/svg11.dtd">
<!-- Creator: CorelDRAW X8 -->
<svg xmlns="http://www.w3.org/2000/svg" xml:space="preserve" width="968px" height="1024px" version="1.1" style="shape-rendering:geometricPrecision; text-rendering:geometricPrecision; image-rendering:optimizeQuality; fill-rule:evenodd; clip-rule:evenodd"
viewBox="0 0 968 1024"
 xmlns:xlink="http://www.w3.org/1999/xlink">
 <defs>
  <style type="text/css">
   <![CDATA[
    .fil0 {fill:#1F1B20;fill-rule:nonzero}
   ]]>
  </style>
 </defs>
 <g id="Layer_x0020_1">
  <metadata id="CorelCorpID_0Corel-Layer"/>
  <path class="fil0" d="M966 316c3,23 -32,44 -79,45 -47,2 -87,-16 -90,-39 -10,-77 -51,-136 -106,-177 -54,-40 -120,-61 -180,-60 -95,1 -173,41 -231,105 -74,82 -112,207 -110,332 1,114 34,227 101,307 62,74 147,111 234,110 63,-1 126,-21 182,-63 57,-41 98,-101 111,-175 4,-23 46,-41 92,-39 47,2 82,23 78,46 -16,90 -69,163 -140,216 -86,63 -201,99 -318,100 -144,1 -293,-40 -396,-163 -77,-91 -114,-218 -114,-345 0,-135 42,-269 125,-361 85,-94 214,-153 382,-155 118,-2 237,32 325,97 70,53 122,127 134,219z"/>
 </g>
</svg>
