<?xml version="1.0" encoding="UTF-8"?>
<!DOCTYPE svg PUBLIC "-//W3C//DTD SVG 1.1//EN" "http://www.w3.org/Graphics/SVG/1.1/DTD/svg11.dtd">
<!-- Creator: CorelDRAW X8 -->
<svg xmlns="http://www.w3.org/2000/svg" xml:space="preserve" width="983px" height="1024px" version="1.1" style="shape-rendering:geometricPrecision; text-rendering:geometricPrecision; image-rendering:optimizeQuality; fill-rule:evenodd; clip-rule:evenodd"
viewBox="0 0 983 1024"
 xmlns:xlink="http://www.w3.org/1999/xlink">
 <defs>
  <style type="text/css">
   <![CDATA[
    .fil0 {fill:black;fill-rule:nonzero}
   ]]>
  </style>
 </defs>
 <g id="Layer_x0020_1">
  <metadata id="CorelCorpID_0Corel-Layer"/>
  <path class="fil0" d="M981 317c4,25 -30,47 -75,49 -45,2 -83,-17 -87,-42 -20,-146 -161,-235 -300,-233 -238,3 -357,208 -357,427 1,217 120,415 356,415 136,0 278,-95 303,-234 5,-25 44,-43 89,-41 45,3 77,25 73,50 -38,210 -271,314 -465,316 -310,3 -517,-196 -518,-506 -1,-312 206,-514 515,-518 197,-2 437,100 466,317z"/>
 </g>
</svg>
