<?xml version="1.0" encoding="UTF-8"?>
<!DOCTYPE svg PUBLIC "-//W3C//DTD SVG 1.1//EN" "http://www.w3.org/Graphics/SVG/1.1/DTD/svg11.dtd">
<!-- Creator: CorelDRAW X8 -->
<svg xmlns="http://www.w3.org/2000/svg" xml:space="preserve" width="1006px" height="2048px" version="1.1" style="shape-rendering:geometricPrecision; text-rendering:geometricPrecision; image-rendering:optimizeQuality; fill-rule:evenodd; clip-rule:evenodd"
viewBox="0 0 1006 2048"
 xmlns:xlink="http://www.w3.org/1999/xlink">
 <defs>
  <style type="text/css">
   <![CDATA[
    .fil0 {fill:#009846;fill-rule:nonzero}
   ]]>
  </style>
 </defs>
 <g id="Layer_x0020_1">
  <metadata id="CorelCorpID_0Corel-Layer"/>
  <path class="fil0" d="M1004 1349c3,20 -27,37 -67,38 -40,2 -74,-13 -77,-33 -11,-79 -56,-140 -116,-182 -62,-44 -140,-66 -213,-65 -111,1 -201,43 -267,111 -77,81 -118,204 -120,327 -1,120 35,240 110,325 71,80 172,118 273,117 75,-1 150,-24 213,-68 62,-43 108,-104 122,-180 4,-20 39,-34 78,-33 40,2 69,20 65,40 -16,89 -72,163 -148,215 -98,68 -222,98 -332,98 -181,0 -315,-61 -402,-160 -83,-93 -123,-223 -123,-351 1,-135 46,-269 134,-361 89,-93 222,-150 394,-152 120,-2 242,31 333,94 75,53 130,127 143,220z"/>
 </g>
</svg>
