<?xml version="1.0" encoding="UTF-8"?>
<!DOCTYPE svg PUBLIC "-//W3C//DTD SVG 1.1//EN" "http://www.w3.org/Graphics/SVG/1.1/DTD/svg11.dtd">
<!-- Creator: CorelDRAW X8 -->
<svg xmlns="http://www.w3.org/2000/svg" xml:space="preserve" width="259px" height="390px" version="1.1" style="shape-rendering:geometricPrecision; text-rendering:geometricPrecision; image-rendering:optimizeQuality; fill-rule:evenodd; clip-rule:evenodd"
viewBox="0 0 259 390"
 xmlns:xlink="http://www.w3.org/1999/xlink">
 <defs>
  <style type="text/css">
   <![CDATA[
    .fil0 {fill:#009846}
   ]]>
  </style>
 </defs>
 <g id="Layer_x0020_1">
  <metadata id="CorelCorpID_0Corel-Layer"/>
  <path class="fil0" d="M152 0c53,0 90,44 102,92 9,37 6,81 -7,125 -13,43 -38,86 -74,118 -27,24 -60,42 -101,52 -25,6 -55,1 -67,-11 -12,-13 -2,-28 23,-34 66,-16 112,-86 126,-156 -1,0 -1,0 -2,0 -51,0 -93,-42 -93,-93 0,-51 42,-93 93,-93z"/>
 </g>
</svg>
