<?xml version="1.0" encoding="UTF-8"?>
<!DOCTYPE svg PUBLIC "-//W3C//DTD SVG 1.1//EN" "http://www.w3.org/Graphics/SVG/1.1/DTD/svg11.dtd">
<!-- Creator: CorelDRAW X8 -->
<svg xmlns="http://www.w3.org/2000/svg" xml:space="preserve" width="259px" height="387px" version="1.1" style="shape-rendering:geometricPrecision; text-rendering:geometricPrecision; image-rendering:optimizeQuality; fill-rule:evenodd; clip-rule:evenodd"
viewBox="0 0 259 386"
 xmlns:xlink="http://www.w3.org/1999/xlink">
 <defs>
  <style type="text/css">
   <![CDATA[
    .fil0 {fill:black;fill-rule:nonzero}
   ]]>
  </style>
 </defs>
 <g id="Layer_x0020_1">
  <metadata id="CorelCorpID_0Corel-Layer"/>
  <path class="fil0" d="M72 384c-25,6 -55,1 -67,-12 -12,-12 -2,-27 23,-33 40,-10 78,-42 102,-80 14,-22 25,-50 31,-80 -3,1 -6,1 -9,1 -50,0 -90,-41 -90,-90 0,-50 40,-90 90,-90 27,0 57,11 75,31 33,37 38,93 27,148 -11,54 -37,107 -68,139 -29,32 -67,54 -114,66z"/>
 </g>
</svg>
