<?xml version="1.0" encoding="UTF-8"?>
<!DOCTYPE svg PUBLIC "-//W3C//DTD SVG 1.1//EN" "http://www.w3.org/Graphics/SVG/1.1/DTD/svg11.dtd">
<!-- Creator: CorelDRAW X8 -->
<svg xmlns="http://www.w3.org/2000/svg" xml:space="preserve" width="1108px" height="1024px" version="1.1" style="shape-rendering:geometricPrecision; text-rendering:geometricPrecision; image-rendering:optimizeQuality; fill-rule:evenodd; clip-rule:evenodd"
viewBox="0 0 1108 1024"
 xmlns:xlink="http://www.w3.org/1999/xlink">
 <defs>
  <style type="text/css">
   <![CDATA[
    .fil0 {fill:black;fill-rule:nonzero}
   ]]>
  </style>
 </defs>
 <g id="Layer_x0020_1">
  <metadata id="CorelCorpID_0Corel-Layer"/>
  <path class="fil0" d="M842 372c1,14 -20,26 -47,26 -28,1 -51,-9 -53,-23 -10,-92 -86,-177 -182,-175 -158,2 -219,186 -217,318 1,127 58,307 212,307 96,0 174,-85 188,-176 2,-14 26,-24 54,-23 27,1 48,13 46,27 -21,140 -153,222 -288,222 -212,0 -310,-162 -312,-357 -2,-199 100,-365 314,-368 136,-2 268,79 285,222zm266 140c0,322 -253,512 -554,512 -301,0 -554,-190 -554,-512 0,-321 253,-512 554,-512 301,0 554,191 554,512zm-133 0c0,-251 -171,-438 -421,-438 -250,0 -421,187 -421,438 0,251 171,438 421,438 250,0 421,-187 421,-438z"/>
 </g>
</svg>
