<?xml version="1.0" encoding="UTF-8"?>
<!DOCTYPE svg PUBLIC "-//W3C//DTD SVG 1.1//EN" "http://www.w3.org/Graphics/SVG/1.1/DTD/svg11.dtd">
<!-- Creator: CorelDRAW X8 -->
<svg xmlns="http://www.w3.org/2000/svg" xml:space="preserve" width="1176px" height="2048px" version="1.1" style="shape-rendering:geometricPrecision; text-rendering:geometricPrecision; image-rendering:optimizeQuality; fill-rule:evenodd; clip-rule:evenodd"
viewBox="0 0 1176 2048"
 xmlns:xlink="http://www.w3.org/1999/xlink">
 <defs>
  <style type="text/css">
   <![CDATA[
    .fil0 {fill:#009846;fill-rule:nonzero}
   ]]>
  </style>
 </defs>
 <g id="Layer_x0020_1">
  <metadata id="CorelCorpID_0Corel-Layer"/>
  <path class="fil0" d="M78 667l474 0c307,0 500,184 580,419 29,86 44,179 44,272 0,94 -14,187 -44,272 -79,233 -270,414 -580,414l-474 0c-43,0 -78,-17 -78,-39l0 -1300c0,-21 35,-38 78,-38zm474 77l-397 0 0 1223 397 0c218,0 361,-153 428,-349 28,-82 42,-171 41,-260 0,-88 -14,-177 -42,-260 -67,-198 -211,-354 -427,-354z"/>
 </g>
</svg>
