<?xml version="1.0" encoding="UTF-8"?>
<!DOCTYPE svg PUBLIC "-//W3C//DTD SVG 1.1//EN" "http://www.w3.org/Graphics/SVG/1.1/DTD/svg11.dtd">
<!-- Creator: CorelDRAW X8 -->
<svg xmlns="http://www.w3.org/2000/svg" xml:space="preserve" width="863px" height="606px" version="1.1" style="shape-rendering:geometricPrecision; text-rendering:geometricPrecision; image-rendering:optimizeQuality; fill-rule:evenodd; clip-rule:evenodd"
viewBox="0 0 863 606"
 xmlns:xlink="http://www.w3.org/1999/xlink">
 <defs>
  <style type="text/css">
   <![CDATA[
    .fil0 {fill:black;fill-rule:nonzero}
   ]]>
  </style>
 </defs>
 <g id="Layer_x0020_1">
  <metadata id="CorelCorpID_0Corel-Layer"/>
  <path class="fil0" d="M82 349c-46,0 -82,-21 -82,-46 0,-25 36,-46 82,-46l700 0c45,0 81,21 81,46 0,25 -36,46 -81,46l-700 0zm349 77c50,0 90,40 90,90 0,50 -40,90 -90,90 -49,0 -90,-40 -90,-90 0,-50 41,-90 90,-90zm0 -426c50,0 90,40 90,90 0,50 -40,90 -90,90 -49,0 -90,-40 -90,-90 0,-50 41,-90 90,-90z"/>
 </g>
</svg>
