<?xml version="1.0" encoding="UTF-8"?>
<!DOCTYPE svg PUBLIC "-//W3C//DTD SVG 1.1//EN" "http://www.w3.org/Graphics/SVG/1.1/DTD/svg11.dtd">
<!-- Creator: CorelDRAW X8 -->
<svg xmlns="http://www.w3.org/2000/svg" xml:space="preserve" width="880px" height="2048px" version="1.1" style="shape-rendering:geometricPrecision; text-rendering:geometricPrecision; image-rendering:optimizeQuality; fill-rule:evenodd; clip-rule:evenodd"
viewBox="0 0 880 2048"
 xmlns:xlink="http://www.w3.org/1999/xlink">
 <defs>
  <style type="text/css">
   <![CDATA[
    .fil0 {fill:#009846;fill-rule:nonzero}
   ]]>
  </style>
 </defs>
 <g id="Layer_x0020_1">
  <metadata id="CorelCorpID_0Corel-Layer"/>
  <path class="fil0" d="M90 1405c-50,0 -90,-20 -90,-45 0,-25 40,-45 90,-45l700 0c50,0 90,20 90,45 0,25 -40,45 -90,45l-700 0zm350 75c51,0 93,41 93,93 0,51 -42,93 -93,93 -51,0 -93,-42 -93,-93 0,-52 42,-93 93,-93zm0 -426c51,0 93,41 93,93 0,51 -42,93 -93,93 -51,0 -93,-42 -93,-93 0,-52 42,-93 93,-93z"/>
 </g>
</svg>
