<?xml version="1.0" encoding="UTF-8"?>
<!DOCTYPE svg PUBLIC "-//W3C//DTD SVG 1.1//EN" "http://www.w3.org/Graphics/SVG/1.1/DTD/svg11.dtd">
<!-- Creator: CorelDRAW X8 -->
<svg xmlns="http://www.w3.org/2000/svg" xml:space="preserve" width="934px" height="1680px" version="1.1" style="shape-rendering:geometricPrecision; text-rendering:geometricPrecision; image-rendering:optimizeQuality; fill-rule:evenodd; clip-rule:evenodd"
viewBox="0 0 934 1679"
 xmlns:xlink="http://www.w3.org/1999/xlink">
 <defs>
  <style type="text/css">
   <![CDATA[
    .fil0 {fill:#009846;fill-rule:nonzero}
   ]]>
  </style>
 </defs>
 <g id="Layer_x0020_1">
  <metadata id="CorelCorpID_0Corel-Layer"/>
  <path class="fil0" d="M903 427c4,22 -27,40 -70,42 -42,2 -80,-14 -84,-35 -17,-94 -58,-162 -111,-207 -31,-27 -66,-45 -102,-54l0 533c123,21 212,63 274,118 45,39 75,84 94,132 21,42 30,87 30,132 1,95 -39,191 -109,265 -68,72 -167,124 -289,136l0 166c0,13 -22,24 -50,24 -27,0 -50,-11 -50,-24l0 -164c-99,-6 -195,-38 -274,-101 -75,-61 -135,-153 -162,-282 -4,-21 27,-40 69,-43 43,-2 81,14 85,35 24,117 75,198 140,250 44,35 93,55 142,62l0 -576c-121,-24 -210,-67 -273,-121 -46,-41 -77,-87 -96,-135 -22,-46 -31,-95 -27,-143 6,-97 51,-177 117,-235 73,-64 174,-103 279,-111l0 -66c0,-14 23,-25 50,-25 28,0 50,11 50,25l0 67c88,9 170,40 236,96 63,54 111,133 131,239zm-467 -257c-51,8 -102,33 -144,70 -55,48 -93,116 -98,200 -2,35 2,70 15,103 11,23 27,44 49,64 40,34 98,63 178,82l0 -519zm100 1239c57,-13 108,-46 149,-89 60,-64 95,-148 95,-232 -1,-32 -6,-65 -17,-95 -11,-22 -27,-43 -48,-62 -40,-34 -98,-62 -179,-78l0 556z"/>
 </g>
</svg>
