<?xml version="1.0" encoding="UTF-8"?>
<!DOCTYPE svg PUBLIC "-//W3C//DTD SVG 1.1//EN" "http://www.w3.org/Graphics/SVG/1.1/DTD/svg11.dtd">
<!-- Creator: CorelDRAW X8 -->
<svg xmlns="http://www.w3.org/2000/svg" xml:space="preserve" width="1024px" height="1024px" version="1.1" style="shape-rendering:geometricPrecision; text-rendering:geometricPrecision; image-rendering:optimizeQuality; fill-rule:evenodd; clip-rule:evenodd"
viewBox="0 0 1024 1024"
 xmlns:xlink="http://www.w3.org/1999/xlink">
 <defs>
  <style type="text/css">
   <![CDATA[
    .fil0 {fill:black;fill-rule:nonzero}
   ]]>
  </style>
 </defs>
 <g id="Layer_x0020_1">
  <metadata id="CorelCorpID_0Corel-Layer"/>
  <path class="fil0" d="M443 80c-34,8 -74,0 -89,-18 -15,-18 0,-40 34,-48 41,-9 82,-14 124,-14 42,0 83,5 124,14 34,8 49,30 34,48 -15,18 -55,26 -89,18 -22,-5 -46,-8 -69,-8 -23,0 -47,3 -69,8zm255 53c-23,-16 -18,-39 11,-51 29,-12 72,-10 95,6 29,20 57,44 82,71 25,27 47,56 65,87 11,19 -8,39 -44,45 -35,6 -73,-5 -84,-24 -16,-27 -35,-53 -57,-75 -20,-22 -43,-42 -68,-59zm181 280c-4,-20 23,-38 60,-40 37,-2 70,12 74,32 7,34 11,72 11,107 0,35 -4,73 -11,107 -4,20 -37,34 -74,32 -37,-2 -64,-20 -60,-40 7,-33 10,-65 10,-99 0,-34 -3,-66 -10,-99zm-56 344c11,-19 49,-30 84,-24 36,6 55,26 44,45 -18,31 -40,60 -65,87 -25,27 -53,51 -82,71 -23,16 -66,18 -95,6 -29,-12 -34,-35 -11,-51 25,-17 48,-37 68,-59 22,-22 41,-48 57,-75zm-242 187c34,-8 74,0 89,18 15,18 0,40 -34,48 -41,9 -82,14 -124,14 -41,0 -83,-5 -124,-14 -34,-8 -49,-30 -34,-48 15,-18 55,-26 89,-18 22,5 46,8 69,8 23,0 47,-3 69,-8zm-255 -53c23,16 18,39 -11,51 -29,12 -72,10 -95,-6 -29,-20 -57,-44 -82,-71 -25,-27 -47,-56 -65,-87 -11,-19 8,-39 44,-45 35,-6 73,5 84,24 16,27 35,53 57,75 20,22 43,42 68,59zm-181 -280c4,20 -23,38 -60,40 -37,2 -70,-12 -74,-32 -7,-34 -11,-72 -11,-107 0,-35 4,-73 11,-107 4,-20 37,-34 74,-32 37,2 64,20 60,40 -7,33 -10,65 -10,99 0,34 3,66 10,99zm56 -344c-11,19 -49,30 -84,24 -36,-6 -55,-26 -44,-45 18,-31 40,-60 65,-87 25,-27 53,-51 82,-71 23,-16 66,-18 95,-6 29,12 34,35 11,51 -25,17 -48,37 -68,59 -22,22 -41,48 -57,75z"/>
 </g>
</svg>
