<?xml version="1.0" encoding="UTF-8"?>
<!DOCTYPE svg PUBLIC "-//W3C//DTD SVG 1.1//EN" "http://www.w3.org/Graphics/SVG/1.1/DTD/svg11.dtd">
<!-- Creator: CorelDRAW X8 -->
<svg xmlns="http://www.w3.org/2000/svg" xml:space="preserve" width="1096px" height="2048px" version="1.1" style="shape-rendering:geometricPrecision; text-rendering:geometricPrecision; image-rendering:optimizeQuality; fill-rule:evenodd; clip-rule:evenodd"
viewBox="0 0 1096 2048"
 xmlns:xlink="http://www.w3.org/1999/xlink">
 <defs>
  <style type="text/css">
   <![CDATA[
    .fil0 {fill:#009846;fill-rule:nonzero}
   ]]>
  </style>
 </defs>
 <g id="Layer_x0020_1">
  <metadata id="CorelCorpID_0Corel-Layer"/>
  <path class="fil0" d="M474 1116c-37,8 -79,0 -95,-18 -16,-18 0,-40 37,-48 43,-9 88,-14 132,-14 44,0 89,5 132,14 37,8 53,30 37,48 -16,18 -58,26 -95,18 -24,-5 -49,-8 -74,-8 -25,0 -50,3 -74,8zm273 53c-25,-16 -20,-39 12,-51 31,-12 77,-10 101,6 32,20 62,44 89,71 26,27 49,56 69,87 12,19 -9,39 -47,45 -38,6 -78,-5 -90,-24 -18,-27 -38,-53 -61,-75 -22,-22 -47,-42 -73,-59zm194 280c-4,-20 24,-38 64,-40 39,-2 75,12 79,32 8,34 12,72 12,107 0,35 -4,73 -12,107 -4,20 -40,34 -79,32 -40,-2 -68,-20 -64,-40 7,-33 11,-65 11,-99 0,-34 -4,-66 -11,-99zm-60 344c12,-19 52,-30 90,-24 38,6 59,26 47,45 -20,31 -43,60 -69,87 -27,27 -57,50 -89,71 -24,16 -70,18 -101,6 -32,-12 -37,-35 -12,-51 26,-17 51,-37 73,-59 23,-22 43,-48 61,-75zm-259 187c37,-8 79,0 95,18 16,18 0,40 -37,48 -43,9 -88,14 -132,14 -44,0 -89,-5 -132,-14 -37,-8 -53,-30 -37,-48 16,-18 58,-26 95,-18 24,5 49,8 74,8 25,0 50,-3 74,-8zm-273 -53c25,16 20,39 -12,51 -31,12 -77,10 -101,-6 -32,-20 -62,-44 -89,-71 -26,-27 -49,-56 -69,-87 -12,-19 9,-39 47,-45 38,-6 78,5 90,24 18,27 38,53 61,75 22,22 47,42 73,59zm-194 -280c4,20 -24,38 -64,40 -39,2 -75,-12 -79,-32 -8,-34 -12,-72 -12,-107 0,-35 4,-73 12,-107 4,-20 40,-34 79,-32 40,2 68,20 64,40 -7,33 -11,65 -11,99 0,34 4,66 11,99zm60 -344c-12,19 -52,30 -90,24 -38,-6 -59,-26 -47,-45 20,-31 43,-60 69,-87 27,-27 57,-50 89,-71 24,-16 70,-18 101,-6 32,12 37,35 12,51 -26,17 -51,37 -73,59 -23,22 -43,48 -61,75z"/>
 </g>
</svg>
