<?xml version="1.0" encoding="UTF-8"?>
<!DOCTYPE svg PUBLIC "-//W3C//DTD SVG 1.1//EN" "http://www.w3.org/Graphics/SVG/1.1/DTD/svg11.dtd">
<!-- Creator: CorelDRAW X8 -->
<svg xmlns="http://www.w3.org/2000/svg" xml:space="preserve" width="1040px" height="2048px" version="1.1" style="shape-rendering:geometricPrecision; text-rendering:geometricPrecision; image-rendering:optimizeQuality; fill-rule:evenodd; clip-rule:evenodd"
viewBox="0 0 1040 2048"
 xmlns:xlink="http://www.w3.org/1999/xlink">
 <defs>
  <style type="text/css">
   <![CDATA[
    .fil0 {fill:#009846;fill-rule:nonzero}
   ]]>
  </style>
 </defs>
 <g id="Layer_x0020_1">
  <metadata id="CorelCorpID_0Corel-Layer"/>
  <path class="fil0" d="M863 1741c2,-20 36,-35 75,-34 40,1 71,18 69,37 -9,80 -64,159 -148,216 -103,70 -232,101 -355,100 -176,-2 -304,-66 -387,-164 -75,-88 -114,-206 -117,-325 -3,-138 43,-280 138,-381 105,-113 250,-156 401,-154 178,3 306,62 388,151 80,87 115,201 113,317 0,10 -8,19 -21,26 -15,7 -34,10 -51,10l-824 0c-4,120 31,240 106,328 61,72 147,119 256,120 83,1 167,-23 236,-70 69,-47 114,-111 121,-177zm32 -273c-5,-92 -36,-182 -99,-250 -60,-65 -147,-108 -261,-110 -105,-2 -195,36 -267,112 -62,67 -101,155 -117,248l744 0z"/>
 </g>
</svg>
