<?xml version="1.0" encoding="UTF-8"?>
<!DOCTYPE svg PUBLIC "-//W3C//DTD SVG 1.1//EN" "http://www.w3.org/Graphics/SVG/1.1/DTD/svg11.dtd">
<!-- Creator: CorelDRAW X8 -->
<svg xmlns="http://www.w3.org/2000/svg" xml:space="preserve" width="1061px" height="2048px" version="1.1" style="shape-rendering:geometricPrecision; text-rendering:geometricPrecision; image-rendering:optimizeQuality; fill-rule:evenodd; clip-rule:evenodd"
viewBox="0 0 1061 2048"
 xmlns:xlink="http://www.w3.org/1999/xlink">
 <defs>
  <style type="text/css">
   <![CDATA[
    .fil0 {fill:#2B2A29;fill-rule:nonzero}
   ]]>
  </style>
 </defs>
 <g id="Layer_x0020_1">
  <metadata id="CorelCorpID_0Corel-Layer"/>
  <path class="fil0" d="M90 2051c-50,0 -90,-22 -90,-48l0 -644 0 -643c0,-26 40,-48 90,-48 288,0 564,0 857,0 50,0 90,20 90,45 0,25 -40,45 -90,45l-767 0 0 556 643 0c49,0 90,21 90,45 0,25 -41,45 -90,45l-643 0 0 557 767 0c50,0 90,20 90,45 0,25 -40,45 -90,45 -293,0 -569,0 -857,0z"/>
 </g>
</svg>
