<?xml version="1.0" encoding="UTF-8"?>
<!DOCTYPE svg PUBLIC "-//W3C//DTD SVG 1.1//EN" "http://www.w3.org/Graphics/SVG/1.1/DTD/svg11.dtd">
<!-- Creator: CorelDRAW X8 -->
<svg xmlns="http://www.w3.org/2000/svg" xml:space="preserve" width="968px" height="1406px" version="1.1" style="shape-rendering:geometricPrecision; text-rendering:geometricPrecision; image-rendering:optimizeQuality; fill-rule:evenodd; clip-rule:evenodd"
viewBox="0 0 968 1406"
 xmlns:xlink="http://www.w3.org/1999/xlink">
 <defs>
  <style type="text/css">
   <![CDATA[
    .fil0 {fill:#1F1B20;fill-rule:nonzero}
   ]]>
  </style>
 </defs>
 <g id="Layer_x0020_1">
  <metadata id="CorelCorpID_0Corel-Layer"/>
  <path class="fil0" d="M6 1225c-15,-22 10,-46 54,-53 45,-7 92,5 107,27 27,41 72,72 126,93 55,21 119,31 182,29 83,-3 166,-28 227,-87 57,-56 95,-141 95,-261 0,-27 0,-55 0,-82 -72,81 -175,134 -313,134 -305,0 -484,-225 -484,-513 0,-287 179,-512 484,-512 138,0 242,52 314,132 0,-27 0,-57 0,-89 0,-24 38,-43 85,-43 47,0 85,19 85,43 0,5 0,53 -1,465 0,155 0,310 -1,465 0,135 -45,232 -113,299 -93,90 -228,129 -366,133 -104,4 -209,-12 -296,-46 -81,-31 -148,-76 -185,-134zm478 -285c216,0 314,-242 314,-428 0,-185 -98,-427 -314,-427 -216,0 -314,242 -314,427 0,186 98,428 314,428z"/>
 </g>
</svg>
