<?xml version="1.0" encoding="UTF-8"?>
<!DOCTYPE svg PUBLIC "-//W3C//DTD SVG 1.1//EN" "http://www.w3.org/Graphics/SVG/1.1/DTD/svg11.dtd">
<!-- Creator: CorelDRAW X8 -->
<svg xmlns="http://www.w3.org/2000/svg" xml:space="preserve" width="1044px" height="2048px" version="1.1" style="shape-rendering:geometricPrecision; text-rendering:geometricPrecision; image-rendering:optimizeQuality; fill-rule:evenodd; clip-rule:evenodd"
viewBox="0 0 1044 2048"
 xmlns:xlink="http://www.w3.org/1999/xlink">
 <defs>
  <style type="text/css">
   <![CDATA[
    .fil0 {fill:#009846;fill-rule:nonzero}
   ]]>
  </style>
 </defs>
 <g id="Layer_x0020_1">
  <metadata id="CorelCorpID_0Corel-Layer"/>
  <path class="fil0" d="M29 2261c-13,-19 6,-39 44,-46 37,-7 79,3 92,22 30,41 82,74 144,96 65,23 141,34 217,31 98,-3 196,-30 266,-92 64,-57 106,-142 106,-264 0,-37 0,-73 0,-110 -90,104 -225,165 -389,165 -251,0 -408,-136 -473,-311 -24,-64 -36,-134 -36,-202 0,-69 12,-138 36,-202 65,-175 222,-312 473,-312 164,0 300,62 390,166 0,-39 0,-82 0,-130 0,-20 33,-36 73,-36 40,0 72,16 72,36 0,31 0,112 0,468 -1,156 -1,312 -2,468 0,135 -48,232 -123,299 -98,87 -240,125 -384,130 -108,3 -217,-13 -308,-45 -86,-30 -157,-74 -198,-131zm145 -523c53,142 166,253 335,253 170,0 283,-111 336,-253 22,-59 33,-124 33,-188 0,-65 -11,-130 -33,-189 -53,-142 -166,-253 -336,-253 -169,0 -282,111 -335,253 -22,59 -33,124 -33,189 0,64 11,129 33,188z"/>
 </g>
</svg>
