<?xml version="1.0" encoding="UTF-8"?>
<!DOCTYPE svg PUBLIC "-//W3C//DTD SVG 1.1//EN" "http://www.w3.org/Graphics/SVG/1.1/DTD/svg11.dtd">
<!-- Creator: CorelDRAW X8 -->
<svg xmlns="http://www.w3.org/2000/svg" xml:space="preserve" width="1312px" height="2048px" version="1.1" style="shape-rendering:geometricPrecision; text-rendering:geometricPrecision; image-rendering:optimizeQuality; fill-rule:evenodd; clip-rule:evenodd"
viewBox="0 0 1312 2048"
 xmlns:xlink="http://www.w3.org/1999/xlink">
 <defs>
  <style type="text/css">
   <![CDATA[
    .fil0 {fill:#2B2A29;fill-rule:nonzero}
   ]]>
  </style>
 </defs>
 <g id="Layer_x0020_1">
  <metadata id="CorelCorpID_0Corel-Layer"/>
  <path class="fil0" d="M1310 1086c3,25 -35,46 -84,48 -50,1 -92,-17 -96,-42 -15,-110 -74,-196 -155,-255 -82,-61 -185,-92 -282,-91 -147,2 -268,61 -355,156 -105,116 -158,288 -158,460 -1,166 48,332 145,447 94,110 226,164 359,163 100,-1 201,-32 286,-94 83,-60 144,-146 163,-253l0 -181 -443 0c-50,0 -90,-20 -90,-45 0,-25 40,-45 90,-45l532 0c26,0 90,10 90,45l0 235c0,101 -115,237 -193,294 -122,89 -280,134 -438,134 -198,1 -396,-71 -521,-219 -106,-125 -159,-299 -160,-472 -1,-189 58,-378 175,-506 116,-127 289,-205 514,-208 157,-3 316,43 435,129 97,72 168,173 186,300z"/>
 </g>
</svg>
