<?xml version="1.0" encoding="UTF-8"?>
<!DOCTYPE svg PUBLIC "-//W3C//DTD SVG 1.1//EN" "http://www.w3.org/Graphics/SVG/1.1/DTD/svg11.dtd">
<!-- Creator: CorelDRAW X8 -->
<svg xmlns="http://www.w3.org/2000/svg" xml:space="preserve" width="906px" height="1406px" version="1.1" style="shape-rendering:geometricPrecision; text-rendering:geometricPrecision; image-rendering:optimizeQuality; fill-rule:evenodd; clip-rule:evenodd"
viewBox="0 0 906 1407"
 xmlns:xlink="http://www.w3.org/1999/xlink">
 <defs>
  <style type="text/css">
   <![CDATA[
    .fil0 {fill:#1F1B20;fill-rule:nonzero}
   ]]>
  </style>
 </defs>
 <g id="Layer_x0020_1">
  <metadata id="CorelCorpID_0Corel-Layer"/>
  <path class="fil0" d="M0 43c0,-24 38,-43 85,-43 47,0 85,19 85,43l0 470c70,-81 171,-131 299,-131 115,0 231,37 313,111 88,80 124,193 124,309l0 560c0,23 -38,42 -85,42 -47,0 -85,-19 -85,-42l0 -559c0,-101 -26,-199 -103,-269 -49,-45 -106,-66 -164,-67 -74,-1 -149,32 -205,94 -57,63 -94,153 -94,272l0 531c0,24 -38,43 -85,43 -47,0 -85,-19 -85,-43l0 -1321z"/>
 </g>
</svg>
