<?xml version="1.0" encoding="UTF-8"?>
<!DOCTYPE svg PUBLIC "-//W3C//DTD SVG 1.1//EN" "http://www.w3.org/Graphics/SVG/1.1/DTD/svg11.dtd">
<!-- Creator: CorelDRAW X8 -->
<svg xmlns="http://www.w3.org/2000/svg" xml:space="preserve" width="1142px" height="1401px" version="1.1" style="shape-rendering:geometricPrecision; text-rendering:geometricPrecision; image-rendering:optimizeQuality; fill-rule:evenodd; clip-rule:evenodd"
viewBox="0 0 1142 1402"
 xmlns:xlink="http://www.w3.org/1999/xlink">
 <defs>
  <style type="text/css">
   <![CDATA[
    .fil0 {fill:#009846;fill-rule:nonzero}
   ]]>
  </style>
 </defs>
 <g id="Layer_x0020_1">
  <metadata id="CorelCorpID_0Corel-Layer"/>
  <path class="fil0" d="M148 508c-44,0 -80,-18 -80,-40 0,-22 36,-40 80,-40l195 0 75 -396c3,-19 37,-34 75,-32 38,2 67,19 63,38l-73 390 264 0 75 -396c3,-19 37,-34 75,-32 39,2 67,19 63,38l-73 390 175 0c44,0 80,18 80,40 0,22 -36,40 -80,40l-190 0 -74 396 196 0c44,0 80,18 80,40 0,22 -36,40 -80,40l-211 0 -73 386c-3,19 -37,33 -75,31 -39,-1 -67,-18 -63,-37l71 -380 -265 0 -72 386c-4,19 -37,33 -76,31 -38,-1 -66,-18 -62,-37l71 -380 -159 0c-44,0 -80,-18 -80,-40 0,-22 36,-40 80,-40l174 0 74 -396 -180 0zm245 396l265 0 74 -396 -264 0 -75 396z"/>
 </g>
</svg>
