<?xml version="1.0" encoding="UTF-8"?>
<!DOCTYPE svg PUBLIC "-//W3C//DTD SVG 1.1//EN" "http://www.w3.org/Graphics/SVG/1.1/DTD/svg11.dtd">
<!-- Creator: CorelDRAW X8 -->
<svg xmlns="http://www.w3.org/2000/svg" xml:space="preserve" width="145px" height="2048px" version="1.1" style="shape-rendering:geometricPrecision; text-rendering:geometricPrecision; image-rendering:optimizeQuality; fill-rule:evenodd; clip-rule:evenodd"
viewBox="0 0 145 2048"
 xmlns:xlink="http://www.w3.org/1999/xlink">
 <defs>
  <style type="text/css">
   <![CDATA[
    .fil0 {fill:#009846;fill-rule:nonzero}
   ]]>
  </style>
 </defs>
 <g id="Layer_x0020_1">
  <metadata id="CorelCorpID_0Corel-Layer"/>
  <path class="fil0" d="M0 1072c0,-20 32,-36 73,-36 40,0 72,16 72,36l0 952c0,20 -32,36 -72,36 -41,0 -73,-16 -73,-36l0 -952zm73 -355c20,0 38,8 51,22 13,13 21,31 21,51 0,20 -8,38 -21,51 -13,13 -31,22 -51,22 -21,0 -39,-9 -52,-22 -13,-13 -21,-31 -21,-51 0,-20 8,-38 21,-51 13,-14 31,-22 52,-22z"/>
 </g>
</svg>
