<?xml version="1.0" encoding="UTF-8"?>
<!DOCTYPE svg PUBLIC "-//W3C//DTD SVG 1.1//EN" "http://www.w3.org/Graphics/SVG/1.1/DTD/svg11.dtd">
<!-- Creator: CorelDRAW X8 -->
<svg xmlns="http://www.w3.org/2000/svg" xml:space="preserve" width="505px" height="1698px" version="1.1" style="shape-rendering:geometricPrecision; text-rendering:geometricPrecision; image-rendering:optimizeQuality; fill-rule:evenodd; clip-rule:evenodd"
viewBox="0 0 505 1698"
 xmlns:xlink="http://www.w3.org/1999/xlink">
 <defs>
  <style type="text/css">
   <![CDATA[
    .fil0 {fill:#1F1B20}
   ]]>
  </style>
 </defs>
 <g id="Layer_x0020_1">
  <metadata id="CorelCorpID_0Corel-Layer"/>
  <path class="fil0" d="M332 335c0,-24 38,-43 85,-43 47,0 85,19 85,43l0 1095c0,25 -2,48 -6,69 -14,66 -47,113 -95,144 -57,38 -130,55 -213,55 -43,0 -89,-5 -135,-15 -44,-9 -64,-33 -47,-55 18,-22 67,-32 110,-23 26,5 50,8 72,8 30,0 56,-7 77,-21 30,-20 52,-52 62,-101 4,-18 5,-38 5,-61l0 -1095zm85 -335c25,0 46,10 62,26 16,16 26,37 26,62 0,24 -10,46 -26,62 -16,15 -37,25 -62,25 -24,0 -46,-10 -62,-25 -15,-16 -25,-38 -25,-62 0,-25 10,-46 25,-62 16,-16 38,-26 62,-26z"/>
 </g>
</svg>
