<?xml version="1.0" encoding="UTF-8"?>
<!DOCTYPE svg PUBLIC "-//W3C//DTD SVG 1.1//EN" "http://www.w3.org/Graphics/SVG/1.1/DTD/svg11.dtd">
<!-- Creator: CorelDRAW X8 -->
<svg xmlns="http://www.w3.org/2000/svg" xml:space="preserve" width="800px" height="2048px" version="1.1" style="shape-rendering:geometricPrecision; text-rendering:geometricPrecision; image-rendering:optimizeQuality; fill-rule:evenodd; clip-rule:evenodd"
viewBox="0 0 800 2048"
 xmlns:xlink="http://www.w3.org/1999/xlink">
 <defs>
  <style type="text/css">
   <![CDATA[
    .fil0 {fill:#2B2A29;fill-rule:nonzero}
   ]]>
  </style>
 </defs>
 <g id="Layer_x0020_1">
  <metadata id="CorelCorpID_0Corel-Layer"/>
  <path class="fil0" d="M0 1705c0,-25 40,-45 90,-45 50,0 90,20 90,45 0,134 65,217 149,251 23,10 47,14 70,14 22,0 46,-5 70,-14 85,-35 151,-120 151,-256l0 -1001c0,-25 40,-45 90,-45 50,0 90,20 90,45l0 1001c0,166 -95,275 -217,325 -57,23 -120,35 -184,35 -64,0 -127,-11 -184,-34 -121,-50 -215,-157 -215,-321z"/>
 </g>
</svg>
