<?xml version="1.0" encoding="UTF-8"?>
<!DOCTYPE svg PUBLIC "-//W3C//DTD SVG 1.1//EN" "http://www.w3.org/Graphics/SVG/1.1/DTD/svg11.dtd">
<!-- Creator: CorelDRAW X8 -->
<svg xmlns="http://www.w3.org/2000/svg" xml:space="preserve" width="1009px" height="1780px" version="1.1" style="shape-rendering:geometricPrecision; text-rendering:geometricPrecision; image-rendering:optimizeQuality; fill-rule:evenodd; clip-rule:evenodd"
viewBox="0 0 1009 1779"
 xmlns:xlink="http://www.w3.org/1999/xlink">
 <defs>
  <style type="text/css">
   <![CDATA[
    .fil0 {fill:black;fill-rule:nonzero}
   ]]>
  </style>
 </defs>
 <g id="Layer_x0020_1">
  <metadata id="CorelCorpID_0Corel-Layer"/>
  <path class="fil0" d="M504 1401c-150,0 -264,-52 -341,-141l0 474c0,25 -37,45 -82,45 -45,0 -81,-20 -81,-45l0 -1688c0,-26 36,-46 81,-46 45,0 82,20 82,46l0 474c77,-89 191,-142 341,-142 306,0 505,217 505,512 0,295 -199,511 -505,511zm-341 -511c0,202 115,420 341,420 228,0 342,-219 342,-420 0,-202 -114,-421 -342,-421 -227,0 -341,219 -341,421z"/>
 </g>
</svg>
