<?xml version="1.0" encoding="UTF-8"?>
<!DOCTYPE svg PUBLIC "-//W3C//DTD SVG 1.1//EN" "http://www.w3.org/Graphics/SVG/1.1/DTD/svg11.dtd">
<!-- Creator: CorelDRAW X8 -->
<svg xmlns="http://www.w3.org/2000/svg" xml:space="preserve" width="742px" height="654px" version="1.1" style="shape-rendering:geometricPrecision; text-rendering:geometricPrecision; image-rendering:optimizeQuality; fill-rule:evenodd; clip-rule:evenodd"
viewBox="0 0 742 654"
 xmlns:xlink="http://www.w3.org/1999/xlink">
 <defs>
  <style type="text/css">
   <![CDATA[
    .fil0 {fill:black;fill-rule:nonzero}
   ]]>
  </style>
 </defs>
 <g id="Layer_x0020_1">
  <metadata id="CorelCorpID_0Corel-Layer"/>
  <path class="fil0" d="M734 605c16,15 7,35 -20,44 -27,9 -62,4 -78,-11l-314 -295c-12,-10 -10,-23 0,-33l314 -294c16,-16 51,-21 78,-11 27,9 36,28 20,44l-296 278 296 278zm-314 0c16,15 8,35 -20,44 -27,9 -62,4 -78,-11l-314 -295c-11,-10 -10,-23 1,-33l313 -294c16,-16 51,-21 78,-11 28,9 36,28 20,44l-296 278 296 278z"/>
 </g>
</svg>
