<?xml version="1.0" encoding="UTF-8"?>
<!DOCTYPE svg PUBLIC "-//W3C//DTD SVG 1.1//EN" "http://www.w3.org/Graphics/SVG/1.1/DTD/svg11.dtd">
<!-- Creator: CorelDRAW X8 -->
<svg xmlns="http://www.w3.org/2000/svg" xml:space="preserve" width="747px" height="2048px" version="1.1" style="shape-rendering:geometricPrecision; text-rendering:geometricPrecision; image-rendering:optimizeQuality; fill-rule:evenodd; clip-rule:evenodd"
viewBox="0 0 747 2048"
 xmlns:xlink="http://www.w3.org/1999/xlink">
 <defs>
  <style type="text/css">
   <![CDATA[
    .fil0 {fill:#009846;fill-rule:nonzero}
   ]]>
  </style>
 </defs>
 <g id="Layer_x0020_1">
  <metadata id="CorelCorpID_0Corel-Layer"/>
  <path class="fil0" d="M635 1051c15,-15 51,-20 81,-13 29,8 40,26 24,41l-299 281 299 280c16,15 5,33 -24,41 -30,8 -66,2 -81,-12l-314 -295c-9,-9 -10,-19 0,-28l314 -295zm-314 0c15,-15 52,-20 81,-13 29,8 40,26 24,41l-299 281 299 280c16,15 5,33 -24,41 -29,8 -66,2 -81,-12l-314 -295c-9,-9 -10,-19 0,-28l314 -295z"/>
 </g>
</svg>
