<?xml version="1.0" encoding="UTF-8"?>
<!DOCTYPE svg PUBLIC "-//W3C//DTD SVG 1.1//EN" "http://www.w3.org/Graphics/SVG/1.1/DTD/svg11.dtd">
<!-- Creator: CorelDRAW X8 -->
<svg xmlns="http://www.w3.org/2000/svg" xml:space="preserve" width="1537px" height="2048px" version="1.1" style="shape-rendering:geometricPrecision; text-rendering:geometricPrecision; image-rendering:optimizeQuality; fill-rule:evenodd; clip-rule:evenodd"
viewBox="0 0 1537 2048"
 xmlns:xlink="http://www.w3.org/1999/xlink">
 <defs>
  <style type="text/css">
   <![CDATA[
    .fil0 {fill:#009846;fill-rule:nonzero}
   ]]>
  </style>
 </defs>
 <g id="Layer_x0020_1">
  <metadata id="CorelCorpID_0Corel-Layer"/>
  <path class="fil0" d="M0 1072c0,-20 32,-36 72,-36 40,0 73,16 73,36l0 100c64,-80 159,-133 286,-136 111,0 218,36 294,110 19,18 36,39 51,62 7,-10 14,-19 22,-29 82,-96 205,-143 329,-143 111,0 218,36 294,110 82,80 116,193 116,305l0 572c0,20 -32,36 -72,36 -40,0 -73,-16 -73,-36l0 -572c0,-100 -26,-201 -99,-272 -49,-48 -108,-71 -165,-71 -79,2 -146,40 -197,100 -54,64 -90,156 -90,279l0 536c0,20 -32,36 -73,36 -40,0 -72,-16 -72,-36l0 -536c0,-115 -12,-223 -99,-308 -49,-48 -109,-71 -165,-71 -79,2 -147,40 -197,100 -55,64 -90,156 -90,279l0 537c0,20 -33,36 -73,36 -40,0 -72,-16 -72,-36l0 -952z"/>
 </g>
</svg>
