<?xml version="1.0" encoding="UTF-8"?>
<!DOCTYPE svg PUBLIC "-//W3C//DTD SVG 1.1//EN" "http://www.w3.org/Graphics/SVG/1.1/DTD/svg11.dtd">
<!-- Creator: CorelDRAW X8 -->
<svg xmlns="http://www.w3.org/2000/svg" xml:space="preserve" width="1175px" height="600px" version="1.1" style="shape-rendering:geometricPrecision; text-rendering:geometricPrecision; image-rendering:optimizeQuality; fill-rule:evenodd; clip-rule:evenodd"
viewBox="0 0 1175 600"
 xmlns:xlink="http://www.w3.org/1999/xlink">
 <defs>
  <style type="text/css">
   <![CDATA[
    .fil0 {fill:#E31E24;fill-rule:nonzero}
   ]]>
  </style>
 </defs>
 <g id="Layer_x0020_1">
  <metadata id="CorelCorpID_0Corel-Layer"/>
  <path class="fil0" d="M805 0c115,0 226,32 300,125 50,62 71,137 70,216 -1,52 -11,100 -31,140 -37,73 -105,120 -206,119 -85,-1 -152,-34 -191,-92 -24,-35 -37,-80 -37,-131 0,-57 19,-116 54,-161 47,-61 118,-93 192,-104 -21,-18 -46,-31 -72,-40 -26,-10 -53,-14 -78,-14 -101,2 -157,75 -157,172l0 340c0,24 -45,30 -61,30 -17,0 -62,-6 -62,-30l0 -340c0,-97 -56,-170 -157,-172 -53,-1 -110,20 -150,54 74,11 145,43 192,104 35,45 54,104 54,161 0,47 -12,95 -39,134 -44,63 -114,88 -189,89 -79,1 -150,-29 -193,-97 -30,-48 -43,-106 -44,-162 -1,-79 20,-154 70,-216 74,-93 185,-125 300,-125 84,0 155,16 218,74 62,-58 133,-74 217,-74zm201 167c-51,3 -97,31 -127,70 -31,40 -47,90 -47,140 0,25 4,57 16,86 18,41 49,77 92,78 50,0 80,-45 97,-95 11,-36 16,-75 16,-103 0,-36 -4,-70 -12,-98 -8,-28 -19,-54 -35,-78zm-837 0c-16,24 -27,50 -35,78 -8,27 -12,61 -12,96 0,32 6,79 22,120 17,44 46,80 91,80 45,-1 78,-41 94,-86 11,-26 14,-55 14,-78 0,-50 -16,-100 -47,-140 -30,-39 -76,-67 -127,-70z"/>
 </g>
</svg>
