<?xml version="1.0" encoding="UTF-8"?>
<!DOCTYPE svg PUBLIC "-//W3C//DTD SVG 1.1//EN" "http://www.w3.org/Graphics/SVG/1.1/DTD/svg11.dtd">
<!-- Creator: CorelDRAW X8 -->
<svg xmlns="http://www.w3.org/2000/svg" xml:space="preserve" width="1175px" height="600px" version="1.1" style="shape-rendering:geometricPrecision; text-rendering:geometricPrecision; image-rendering:optimizeQuality; fill-rule:evenodd; clip-rule:evenodd"
viewBox="0 0 1175 600"
 xmlns:xlink="http://www.w3.org/1999/xlink">
 <defs>
  <style type="text/css">
   <![CDATA[
    .fil0 {fill:#669933;fill-rule:nonzero}
   ]]>
  </style>
 </defs>
 <g id="Layer_x0020_1">
  <metadata id="CorelCorpID_0Corel-Layer"/>
  <path class="fil0" d="M588 66c56,-46 146,-66 217,-66 115,0 226,33 300,125 50,62 71,137 70,216 -1,56 -14,114 -44,162 -43,68 -114,98 -194,97 -74,-1 -145,-26 -188,-89 -27,-39 -39,-87 -39,-134 0,-58 19,-116 54,-161 47,-61 118,-93 192,-104 -40,-34 -97,-55 -150,-54 -92,2 -157,64 -157,157l0 355c0,24 -44,30 -62,30 -17,0 -61,-6 -61,-30l0 -355c0,-93 -65,-155 -157,-157 -53,-1 -110,20 -150,54 74,11 145,43 192,104 35,45 54,103 54,161 0,47 -12,95 -39,134 -43,63 -114,88 -188,89 -80,1 -151,-29 -194,-97 -30,-48 -43,-106 -44,-162 -1,-79 20,-154 70,-216 74,-92 185,-125 300,-125 71,0 161,20 218,66zm-274 426c24,-34 28,-76 28,-117 0,-47 -15,-95 -42,-133 -30,-42 -75,-71 -130,-75 -31,46 -47,110 -47,173 0,50 7,102 34,145 22,36 53,56 80,56 25,0 55,-16 77,-49zm547 0c22,32 51,48 76,49 27,0 58,-19 81,-56 27,-43 34,-95 34,-145 0,-63 -16,-127 -47,-173 -55,4 -100,33 -130,75 -27,38 -42,86 -42,133 0,41 5,83 28,117z"/>
 </g>
</svg>
