<?xml version="1.0" encoding="UTF-8"?>
<!DOCTYPE svg PUBLIC "-//W3C//DTD SVG 1.1//EN" "http://www.w3.org/Graphics/SVG/1.1/DTD/svg11.dtd">
<!-- Creator: CorelDRAW X8 -->
<svg xmlns="http://www.w3.org/2000/svg" xml:space="preserve" width="1346px" height="2048px" version="1.1" style="shape-rendering:geometricPrecision; text-rendering:geometricPrecision; image-rendering:optimizeQuality; fill-rule:evenodd; clip-rule:evenodd"
viewBox="0 0 1346 2048"
 xmlns:xlink="http://www.w3.org/1999/xlink">
 <defs>
  <style type="text/css">
   <![CDATA[
    .fil0 {fill:#B0CB1F;fill-rule:nonzero}
   ]]>
  </style>
 </defs>
 <g id="Layer_x0020_1">
  <metadata id="CorelCorpID_0Corel-Layer"/>
  <path class="fil0" d="M1346 2018c0,23 -34,42 -77,42 -43,0 -78,-19 -78,-42l0 -1075 -454 1085c-8,19 -41,29 -76,30 -35,0 -71,-10 -80,-32l-426 -977 0 969c0,23 -35,42 -78,42 -43,0 -77,-19 -77,-42l0 -1317c0,-23 34,-42 77,-42 40,-2 79,12 87,32l525 1206 503 -1203c8,-24 43,-35 78,-34 39,0 76,15 76,41l0 1317z"/>
 </g>
</svg>
