<?xml version="1.0" encoding="UTF-8"?>
<!DOCTYPE svg PUBLIC "-//W3C//DTD SVG 1.1//EN" "http://www.w3.org/Graphics/SVG/1.1/DTD/svg11.dtd">
<!-- Creator: CorelDRAW X8 -->
<svg xmlns="http://www.w3.org/2000/svg" xml:space="preserve" width="1353px" height="2048px" version="1.1" style="shape-rendering:geometricPrecision; text-rendering:geometricPrecision; image-rendering:optimizeQuality; fill-rule:evenodd; clip-rule:evenodd"
viewBox="0 0 1353 2048"
 xmlns:xlink="http://www.w3.org/1999/xlink">
 <defs>
  <style type="text/css">
   <![CDATA[
    .fil0 {fill:#1F1B20;fill-rule:nonzero}
   ]]>
  </style>
 </defs>
 <g id="Layer_x0020_1">
  <metadata id="CorelCorpID_0Corel-Layer"/>
  <path class="fil0" d="M206 692l497 1153 460 -1151c10,-26 49,-39 88,-38 45,0 90,17 90,48l0 1307c0,27 -41,49 -90,49 -50,0 -90,-22 -90,-49l0 -968 -389 974c-7,29 -54,43 -100,43 -41,-1 -82,-14 -92,-39l-443 -1026 0 1031c0,19 -28,34 -62,34 -35,0 -63,-15 -63,-34l0 -1323c0,-32 53,-50 104,-49 40,1 79,13 90,38z"/>
 </g>
</svg>
