<?xml version="1.0" encoding="UTF-8"?>
<!DOCTYPE svg PUBLIC "-//W3C//DTD SVG 1.1//EN" "http://www.w3.org/Graphics/SVG/1.1/DTD/svg11.dtd">
<!-- Creator: CorelDRAW X8 -->
<svg xmlns="http://www.w3.org/2000/svg" xml:space="preserve" width="1046px" height="2048px" version="1.1" style="shape-rendering:geometricPrecision; text-rendering:geometricPrecision; image-rendering:optimizeQuality; fill-rule:evenodd; clip-rule:evenodd"
viewBox="0 0 1046 2048"
 xmlns:xlink="http://www.w3.org/1999/xlink">
 <defs>
  <style type="text/css">
   <![CDATA[
    .fil0 {fill:#009846;fill-rule:nonzero}
   ]]>
  </style>
 </defs>
 <g id="Layer_x0020_1">
  <metadata id="CorelCorpID_0Corel-Layer"/>
  <path class="fil0" d="M523 2060c-258,0 -420,-136 -486,-311 -25,-63 -37,-132 -37,-201 0,-69 12,-138 37,-201 66,-175 228,-311 486,-311 258,0 420,136 486,311 25,63 37,132 37,201 0,69 -12,138 -37,201 -66,175 -228,311 -486,311zm-344 -324c54,141 170,252 344,252 174,0 290,-111 344,-252 23,-59 34,-123 34,-188 0,-65 -11,-129 -34,-188 -54,-141 -170,-252 -344,-252 -174,0 -290,111 -344,252 -23,59 -34,123 -34,188 0,65 11,129 34,188z"/>
 </g>
</svg>
