<?xml version="1.0" encoding="UTF-8"?>
<!DOCTYPE svg PUBLIC "-//W3C//DTD SVG 1.1//EN" "http://www.w3.org/Graphics/SVG/1.1/DTD/svg11.dtd">
<!-- Creator: CorelDRAW X8 -->
<svg xmlns="http://www.w3.org/2000/svg" xml:space="preserve" width="855px" height="2048px" version="1.1" style="shape-rendering:geometricPrecision; text-rendering:geometricPrecision; image-rendering:optimizeQuality; fill-rule:evenodd; clip-rule:evenodd"
viewBox="0 0 855 2048"
 xmlns:xlink="http://www.w3.org/1999/xlink">
 <defs>
  <style type="text/css">
   <![CDATA[
    .fil0 {fill:#009846;fill-rule:nonzero}
   ]]>
  </style>
 </defs>
 <g id="Layer_x0020_1">
  <metadata id="CorelCorpID_0Corel-Layer"/>
  <path class="fil0" d="M731 2036c0,13 -22,25 -50,25 -27,0 -50,-12 -50,-25l0 -1292 -297 0 0 1292c0,13 -22,25 -50,25 -27,0 -50,-12 -50,-25l0 -799c-133,-27 -234,-145 -234,-286 0,-159 127,-288 286,-292l475 0c47,0 94,19 94,43 0,23 -38,42 -85,42l-39 0 0 1292z"/>
 </g>
</svg>
