<?xml version="1.0" encoding="UTF-8"?>
<!DOCTYPE svg PUBLIC "-//W3C//DTD SVG 1.1//EN" "http://www.w3.org/Graphics/SVG/1.1/DTD/svg11.dtd">
<!-- Creator: CorelDRAW X8 -->
<svg xmlns="http://www.w3.org/2000/svg" xml:space="preserve" width="1393px" height="1401px" version="1.1" style="shape-rendering:geometricPrecision; text-rendering:geometricPrecision; image-rendering:optimizeQuality; fill-rule:evenodd; clip-rule:evenodd"
viewBox="0 0 1393 1401"
 xmlns:xlink="http://www.w3.org/1999/xlink">
 <defs>
  <style type="text/css">
   <![CDATA[
    .fil0 {fill:#009846;fill-rule:nonzero}
   ]]>
  </style>
 </defs>
 <g id="Layer_x0020_1">
  <metadata id="CorelCorpID_0Corel-Layer"/>
  <path class="fil0" d="M496 353c0,-183 -87,-276 -175,-279 -90,-2 -181,91 -181,279 0,188 91,281 181,279 88,-3 175,-95 175,-279zm757 695c0,-184 -87,-277 -174,-279 -90,-2 -182,91 -182,279 0,188 92,281 182,278 87,-2 174,-95 174,-278zm-868 332c-8,15 -38,24 -67,20 -29,-4 -46,-19 -39,-34l729 -1346c8,-14 38,-23 67,-19 29,4 46,19 39,33l-729 1346zm1008 -332c0,233 -157,351 -315,353 -159,1 -320,-116 -320,-353 0,-235 158,-353 317,-353 159,0 318,118 318,353zm-758 -695c0,234 -156,351 -314,353 -160,1 -321,-116 -321,-353 0,-235 159,-353 318,-353 159,0 317,118 317,353z"/>
 </g>
</svg>
