<?xml version="1.0" encoding="UTF-8"?>
<!DOCTYPE svg PUBLIC "-//W3C//DTD SVG 1.1//EN" "http://www.w3.org/Graphics/SVG/1.1/DTD/svg11.dtd">
<!-- Creator: CorelDRAW X8 -->
<svg xmlns="http://www.w3.org/2000/svg" xml:space="preserve" width="965px" height="2048px" version="1.1" style="shape-rendering:geometricPrecision; text-rendering:geometricPrecision; image-rendering:optimizeQuality; fill-rule:evenodd; clip-rule:evenodd"
viewBox="0 0 965 2048"
 xmlns:xlink="http://www.w3.org/1999/xlink">
 <defs>
  <style type="text/css">
   <![CDATA[
    .fil0 {fill:#009846;fill-rule:nonzero}
   ]]>
  </style>
 </defs>
 <g id="Layer_x0020_1">
  <metadata id="CorelCorpID_0Corel-Layer"/>
  <path class="fil0" d="M90 1405c-50,0 -90,-20 -90,-45 0,-25 40,-45 90,-45l342 0 0 -405c0,-14 23,-25 51,-25 27,0 50,11 50,25l0 405 342 0c50,0 90,20 90,45 0,25 -40,45 -90,45l-342 0 0 405c0,13 -23,25 -50,25 -28,0 -51,-12 -51,-25l0 -405 -342 0z"/>
 </g>
</svg>
