<?xml version="1.0" encoding="UTF-8"?>
<!DOCTYPE svg PUBLIC "-//W3C//DTD SVG 1.1//EN" "http://www.w3.org/Graphics/SVG/1.1/DTD/svg11.dtd">
<!-- Creator: CorelDRAW X8 -->
<svg xmlns="http://www.w3.org/2000/svg" xml:space="preserve" width="1112px" height="2048px" version="1.1" style="shape-rendering:geometricPrecision; text-rendering:geometricPrecision; image-rendering:optimizeQuality; fill-rule:evenodd; clip-rule:evenodd"
viewBox="0 0 1112 2048"
 xmlns:xlink="http://www.w3.org/1999/xlink">
 <defs>
  <style type="text/css">
   <![CDATA[
    .fil0 {fill:#2B2A29;fill-rule:nonzero}
   ]]>
  </style>
 </defs>
 <g id="Layer_x0020_1">
  <metadata id="CorelCorpID_0Corel-Layer"/>
  <path class="fil0" d="M180 2015c0,25 -40,45 -90,45 -50,0 -90,-20 -90,-45 0,-435 0,-869 0,-1304 0,-25 40,-45 90,-45 197,0 409,0 612,0 125,0 233,46 307,120 64,65 103,153 103,249 0,96 -39,185 -103,249 -74,75 -182,121 -307,121l-522 0 0 610zm0 -1259l0 559 522 0c51,0 103,-27 146,-70 52,-53 84,-127 84,-210 0,-82 -32,-156 -84,-209 -43,-43 -95,-70 -146,-70l-522 0z"/>
 </g>
</svg>
