<?xml version="1.0" encoding="UTF-8"?>
<!DOCTYPE svg PUBLIC "-//W3C//DTD SVG 1.1//EN" "http://www.w3.org/Graphics/SVG/1.1/DTD/svg11.dtd">
<!-- Creator: CorelDRAW X8 -->
<svg xmlns="http://www.w3.org/2000/svg" xml:space="preserve" width="1087px" height="2048px" version="1.1" style="shape-rendering:geometricPrecision; text-rendering:geometricPrecision; image-rendering:optimizeQuality; fill-rule:evenodd; clip-rule:evenodd"
viewBox="0 0 1087 2048"
 xmlns:xlink="http://www.w3.org/1999/xlink">
 <defs>
  <style type="text/css">
   <![CDATA[
    .fil0 {fill:#009846;fill-rule:nonzero}
   ]]>
  </style>
 </defs>
 <g id="Layer_x0020_1">
  <metadata id="CorelCorpID_0Corel-Layer"/>
  <path class="fil0" d="M77 671l612 0c120,0 225,45 296,118 63,65 102,154 102,250 0,96 -39,184 -102,249 -71,73 -176,118 -296,118l-534 0 0 615c0,22 -35,39 -78,39 -42,0 -77,-17 -77,-39l0 -1311c0,-22 35,-39 77,-39zm78 658l534 0c56,0 112,-29 157,-75 53,-55 86,-131 86,-215 0,-85 -33,-161 -86,-215 -45,-46 -101,-75 -157,-75l-534 0 0 580z"/>
 </g>
</svg>
