<?xml version="1.0" encoding="UTF-8"?>
<!DOCTYPE svg PUBLIC "-//W3C//DTD SVG 1.1//EN" "http://www.w3.org/Graphics/SVG/1.1/DTD/svg11.dtd">
<!-- Creator: CorelDRAW X8 -->
<svg xmlns="http://www.w3.org/2000/svg" xml:space="preserve" width="1383px" height="2048px" version="1.1" style="shape-rendering:geometricPrecision; text-rendering:geometricPrecision; image-rendering:optimizeQuality; fill-rule:evenodd; clip-rule:evenodd"
viewBox="0 0 1383 2048"
 xmlns:xlink="http://www.w3.org/1999/xlink">
 <defs>
  <style type="text/css">
   <![CDATA[
    .fil0 {fill:#009846;fill-rule:nonzero}
   ]]>
  </style>
 </defs>
 <g id="Layer_x0020_1">
  <metadata id="CorelCorpID_0Corel-Layer"/>
  <path class="fil0" d="M689 659c338,0 550,185 639,423 33,88 49,183 49,277 0,95 -16,190 -49,278 -31,83 -77,159 -138,223 40,54 89,102 163,130 34,13 40,37 14,54 -26,17 -75,20 -109,7 -72,-28 -124,-65 -165,-107 -105,72 -240,116 -404,116 -339,0 -551,-185 -640,-423 -32,-88 -49,-183 -49,-278 0,-94 17,-189 49,-277 89,-238 301,-423 640,-423zm-17 884c-42,-5 -68,-25 -59,-46 9,-21 51,-34 92,-29 255,28 336,149 412,276 23,-38 43,-78 59,-121 31,-82 46,-173 46,-264 0,-90 -15,-181 -46,-263 -76,-202 -239,-360 -487,-360 -249,0 -412,158 -488,360 -30,82 -46,173 -46,263 0,91 16,182 46,264 76,202 239,360 488,360 138,0 249,-49 335,-127 -17,-24 -31,-49 -46,-74 -65,-111 -130,-220 -306,-239z"/>
 </g>
</svg>
