<?xml version="1.0" encoding="UTF-8"?>
<!DOCTYPE svg PUBLIC "-//W3C//DTD SVG 1.1//EN" "http://www.w3.org/Graphics/SVG/1.1/DTD/svg11.dtd">
<!-- Creator: CorelDRAW X8 -->
<svg xmlns="http://www.w3.org/2000/svg" xml:space="preserve" width="1330px" height="2048px" version="1.1" style="shape-rendering:geometricPrecision; text-rendering:geometricPrecision; image-rendering:optimizeQuality; fill-rule:evenodd; clip-rule:evenodd"
viewBox="0 0 1330 2048"
 xmlns:xlink="http://www.w3.org/1999/xlink">
 <defs>
  <style type="text/css">
   <![CDATA[
    .fil0 {fill:#2B2A29;fill-rule:nonzero}
   ]]>
  </style>
 </defs>
 <g id="Layer_x0020_1">
  <metadata id="CorelCorpID_0Corel-Layer"/>
  <path class="fil0" d="M665 654c329,0 534,187 619,426 31,88 46,182 46,277 0,95 -15,189 -46,277 -31,85 -76,164 -137,230 37,48 82,90 148,116 39,15 47,43 16,63 -30,19 -86,23 -126,8 -63,-25 -111,-57 -150,-93 -98,64 -221,102 -370,102 -329,0 -534,-187 -619,-426 -31,-88 -46,-182 -46,-277 0,-95 15,-189 46,-277 85,-239 290,-426 619,-426zm-52 892c-48,-5 -78,-29 -68,-53 11,-24 59,-40 108,-34 248,28 333,142 406,265 18,-33 34,-69 47,-106 29,-82 44,-171 44,-261 0,-90 -15,-179 -44,-261 -70,-198 -218,-352 -441,-352 -223,0 -371,154 -441,352 -29,82 -44,171 -44,261 0,90 15,179 44,261 70,198 218,352 441,352 117,0 213,-42 288,-111 -95,-143 -137,-290 -340,-313z"/>
 </g>
</svg>
