<?xml version="1.0" encoding="UTF-8"?>
<!DOCTYPE svg PUBLIC "-//W3C//DTD SVG 1.1//EN" "http://www.w3.org/Graphics/SVG/1.1/DTD/svg11.dtd">
<!-- Creator: CorelDRAW X8 -->
<svg xmlns="http://www.w3.org/2000/svg" xml:space="preserve" width="873px" height="1401px" version="1.1" style="shape-rendering:geometricPrecision; text-rendering:geometricPrecision; image-rendering:optimizeQuality; fill-rule:evenodd; clip-rule:evenodd"
viewBox="0 0 873 1401"
 xmlns:xlink="http://www.w3.org/1999/xlink">
 <defs>
  <style type="text/css">
   <![CDATA[
    .fil0 {fill:#009846;fill-rule:nonzero}
   ]]>
  </style>
 </defs>
 <g id="Layer_x0020_1">
  <metadata id="CorelCorpID_0Corel-Layer"/>
  <path class="fil0" d="M139 401c0,19 -31,35 -69,35 -39,0 -70,-16 -70,-35 0,-91 26,-184 83,-255 89,-112 227,-146 363,-146 129,0 261,45 346,146 51,61 81,138 81,226 0,89 -27,164 -78,237 -35,49 -77,92 -121,134 -59,58 -102,99 -130,143 -39,61 -50,127 -43,250 1,19 -30,35 -68,36 -39,1 -71,-15 -72,-34 -7,-134 7,-208 52,-276 31,-47 75,-91 137,-151 41,-40 80,-79 113,-126 46,-64 70,-134 71,-213 0,-78 -27,-147 -71,-199 -54,-64 -133,-103 -217,-103 -91,0 -175,28 -233,101 -52,64 -74,149 -74,230zm291 844c43,0 78,35 78,78 0,43 -35,78 -78,78 -43,0 -78,-35 -78,-78 0,-43 35,-78 78,-78z"/>
 </g>
</svg>
