<?xml version="1.0" encoding="UTF-8"?>
<!DOCTYPE svg PUBLIC "-//W3C//DTD SVG 1.1//EN" "http://www.w3.org/Graphics/SVG/1.1/DTD/svg11.dtd">
<!-- Creator: CorelDRAW X8 -->
<svg xmlns="http://www.w3.org/2000/svg" xml:space="preserve" width="627px" height="1025px" version="1.1" style="shape-rendering:geometricPrecision; text-rendering:geometricPrecision; image-rendering:optimizeQuality; fill-rule:evenodd; clip-rule:evenodd"
viewBox="0 0 627 1024"
 xmlns:xlink="http://www.w3.org/1999/xlink">
 <defs>
  <style type="text/css">
   <![CDATA[
    .fil0 {fill:#1F1B20;fill-rule:nonzero}
   ]]>
  </style>
 </defs>
 <g id="Layer_x0020_1">
  <metadata id="CorelCorpID_0Corel-Layer"/>
  <path class="fil0" d="M170 982c0,23 -38,42 -85,42 -47,0 -85,-19 -85,-42l0 -940c0,-23 38,-42 85,-42 47,0 85,19 85,42l0 95c46,-79 121,-138 252,-137 38,0 74,4 109,16 27,9 52,22 76,38 33,23 21,56 -7,75 -24,17 -59,24 -83,3 -37,-27 -80,-49 -124,-48 -69,3 -137,51 -173,117 -38,70 -47,177 -50,268l0 513z"/>
 </g>
</svg>
