<?xml version="1.0" encoding="UTF-8"?>
<!DOCTYPE svg PUBLIC "-//W3C//DTD SVG 1.1//EN" "http://www.w3.org/Graphics/SVG/1.1/DTD/svg11.dtd">
<!-- Creator: CorelDRAW X8 -->
<svg xmlns="http://www.w3.org/2000/svg" xml:space="preserve" width="1204px" height="2048px" version="1.1" style="shape-rendering:geometricPrecision; text-rendering:geometricPrecision; image-rendering:optimizeQuality; fill-rule:evenodd; clip-rule:evenodd"
viewBox="0 0 1204 2048"
 xmlns:xlink="http://www.w3.org/1999/xlink">
 <defs>
  <style type="text/css">
   <![CDATA[
    .fil0 {fill:#009846;fill-rule:nonzero}
   ]]>
  </style>
 </defs>
 <g id="Layer_x0020_1">
  <metadata id="CorelCorpID_0Corel-Layer"/>
  <path class="fil0" d="M77 671l612 0c120,0 225,45 296,117 63,65 102,152 102,248 0,95 -39,182 -102,247 -53,54 -125,92 -207,109 103,72 150,186 198,301 49,120 100,242 208,302 29,16 26,40 -5,55 -32,14 -81,13 -109,-3 -137,-76 -192,-208 -246,-338 -42,-104 -126,-309 -265,-309l-404 0 0 621c0,22 -35,39 -78,39 -42,0 -77,-17 -77,-39l0 -1311c0,-22 35,-39 77,-39zm78 652l534 0c56,0 112,-28 157,-74 53,-54 86,-130 86,-213 0,-84 -33,-160 -86,-214 -45,-45 -101,-74 -157,-74l-534 0 0 575z"/>
 </g>
</svg>
