<?xml version="1.0" encoding="UTF-8"?>
<!DOCTYPE svg PUBLIC "-//W3C//DTD SVG 1.1//EN" "http://www.w3.org/Graphics/SVG/1.1/DTD/svg11.dtd">
<!-- Creator: CorelDRAW X8 -->
<svg xmlns="http://www.w3.org/2000/svg" xml:space="preserve" width="1268px" height="2048px" version="1.1" style="shape-rendering:geometricPrecision; text-rendering:geometricPrecision; image-rendering:optimizeQuality; fill-rule:evenodd; clip-rule:evenodd"
viewBox="0 0 1268 2048"
 xmlns:xlink="http://www.w3.org/1999/xlink">
 <defs>
  <style type="text/css">
   <![CDATA[
    .fil0 {fill:#2B2A29;fill-rule:nonzero}
   ]]>
  </style>
 </defs>
 <g id="Layer_x0020_1">
  <metadata id="CorelCorpID_0Corel-Layer"/>
  <path class="fil0" d="M180 2015c0,24 -40,45 -90,45 -50,0 -90,-21 -90,-45 0,-436 0,-869 0,-1304 0,-25 40,-45 90,-45 198,0 409,0 612,0 125,0 234,46 307,120 64,65 104,153 104,249 0,96 -40,184 -104,249 -45,46 -103,81 -170,101 92,69 139,179 188,292 53,125 108,250 216,307 34,18 33,47 -3,64 -37,17 -93,16 -127,-2 -143,-76 -204,-213 -262,-350 -61,-143 -119,-282 -240,-292l-431 0 0 611zm0 -1259l0 558 522 0c51,0 103,-26 146,-70 52,-53 85,-127 85,-209 0,-82 -33,-156 -85,-209 -43,-43 -95,-70 -146,-70l-522 0z"/>
 </g>
</svg>
