<?xml version="1.0" encoding="UTF-8"?>
<!DOCTYPE svg PUBLIC "-//W3C//DTD SVG 1.1//EN" "http://www.w3.org/Graphics/SVG/1.1/DTD/svg11.dtd">
<!-- Creator: CorelDRAW X8 -->
<svg xmlns="http://www.w3.org/2000/svg" xml:space="preserve" width="1003px" height="1394px" version="1.1" style="shape-rendering:geometricPrecision; text-rendering:geometricPrecision; image-rendering:optimizeQuality; fill-rule:evenodd; clip-rule:evenodd"
viewBox="0 0 1003 1394"
 xmlns:xlink="http://www.w3.org/1999/xlink">
 <defs>
  <style type="text/css">
   <![CDATA[
    .fil0 {fill:#2B2A29;fill-rule:nonzero}
   ]]>
  </style>
 </defs>
 <g id="Layer_x0020_1">
  <metadata id="CorelCorpID_0Corel-Layer"/>
  <path class="fil0" d="M85 85c-47,0 -85,-19 -85,-42 0,-24 38,-43 85,-43l833 0c47,0 85,19 85,43 0,23 -38,42 -85,42l-341 0c68,35 121,80 158,129 26,35 45,73 55,112l128 0c47,0 85,19 85,42 0,24 -38,43 -85,43l-119 0c-2,50 -18,101 -48,148 -76,118 -237,214 -487,238l495 537c20,21 1,46 -41,56 -43,10 -93,1 -113,-21l-543 -588c-6,-6 -10,-13 -10,-21 0,-23 38,-42 85,-42 236,0 386,-81 452,-185 25,-38 38,-80 41,-122l-545 0c-47,0 -85,-19 -85,-43 0,-23 38,-42 85,-42l534 0c-9,-28 -23,-56 -43,-82 -65,-86 -193,-153 -379,-159l-112 0z"/>
 </g>
</svg>
