<?xml version="1.0" encoding="UTF-8"?>
<!DOCTYPE svg PUBLIC "-//W3C//DTD SVG 1.1//EN" "http://www.w3.org/Graphics/SVG/1.1/DTD/svg11.dtd">
<!-- Creator: CorelDRAW X8 -->
<svg xmlns="http://www.w3.org/2000/svg" xml:space="preserve" width="918px" height="2048px" version="1.1" style="shape-rendering:geometricPrecision; text-rendering:geometricPrecision; image-rendering:optimizeQuality; fill-rule:evenodd; clip-rule:evenodd"
viewBox="0 0 918 2048"
 xmlns:xlink="http://www.w3.org/1999/xlink">
 <defs>
  <style type="text/css">
   <![CDATA[
    .fil0 {fill:#009846;fill-rule:nonzero}
   ]]>
  </style>
 </defs>
 <g id="Layer_x0020_1">
  <metadata id="CorelCorpID_0Corel-Layer"/>
  <path class="fil0" d="M892 1285c6,20 -22,38 -62,41 -39,2 -76,-12 -81,-32 -17,-64 -55,-111 -105,-142 -51,-31 -114,-45 -176,-44 -69,1 -139,20 -192,54 -53,33 -92,86 -93,138 0,35 17,69 60,96 53,33 136,58 259,70 95,10 214,34 300,91 68,45 115,110 116,204 1,71 -36,143 -108,199 -72,54 -173,92 -296,99 -121,6 -246,-14 -346,-72 -78,-45 -140,-113 -167,-209 -6,-20 22,-38 61,-41 40,-3 76,11 82,31 23,81 72,137 134,172 65,37 144,51 220,47 77,-4 142,-30 191,-67 58,-44 91,-101 90,-159 -1,-118 -205,-148 -291,-156 -107,-10 -235,-31 -327,-94 -80,-54 -121,-127 -121,-199 0,-72 40,-143 123,-195 80,-51 189,-79 301,-81 105,-1 210,21 292,71 66,40 116,99 136,178z"/>
 </g>
</svg>
