<?xml version="1.0" encoding="UTF-8"?>
<!DOCTYPE svg PUBLIC "-//W3C//DTD SVG 1.1//EN" "http://www.w3.org/Graphics/SVG/1.1/DTD/svg11.dtd">
<!-- Creator: CorelDRAW X8 -->
<svg xmlns="http://www.w3.org/2000/svg" xml:space="preserve" width="1133px" height="2048px" version="1.1" style="shape-rendering:geometricPrecision; text-rendering:geometricPrecision; image-rendering:optimizeQuality; fill-rule:evenodd; clip-rule:evenodd"
viewBox="0 0 1133 2048"
 xmlns:xlink="http://www.w3.org/1999/xlink">
 <defs>
  <style type="text/css">
   <![CDATA[
    .fil0 {fill:#009846;fill-rule:nonzero}
   ]]>
  </style>
 </defs>
 <g id="Layer_x0020_1">
  <metadata id="CorelCorpID_0Corel-Layer"/>
  <path class="fil0" d="M1096 996c4,21 -26,40 -69,43 -42,2 -80,-13 -85,-34 -22,-93 -73,-161 -138,-205 -67,-45 -149,-65 -230,-64 -89,1 -180,29 -249,77 -68,47 -115,114 -121,196 -6,74 22,120 82,162 68,47 174,83 330,100 166,18 290,53 370,109 94,66 141,157 147,250 6,105 -42,214 -138,294 -87,73 -211,125 -363,134 -149,9 -304,-19 -426,-97 -96,-61 -172,-154 -206,-284 -5,-21 25,-40 67,-43 43,-3 81,12 87,33 30,116 93,196 173,247 85,54 189,74 286,68 100,-6 186,-44 249,-97 75,-63 118,-147 118,-229 0,-28 -5,-52 -14,-72 -13,-31 -35,-55 -69,-79 -62,-43 -157,-76 -296,-91 -182,-20 -311,-66 -397,-125 -98,-68 -150,-159 -154,-251 -5,-98 44,-197 149,-269 98,-69 233,-108 371,-110 130,-2 259,28 359,96 80,54 141,134 167,241z"/>
 </g>
</svg>
