<?xml version="1.0" encoding="UTF-8"?>
<!DOCTYPE svg PUBLIC "-//W3C//DTD SVG 1.1//EN" "http://www.w3.org/Graphics/SVG/1.1/DTD/svg11.dtd">
<!-- Creator: CorelDRAW X8 -->
<svg xmlns="http://www.w3.org/2000/svg" xml:space="preserve" width="710px" height="1406px" version="1.1" style="shape-rendering:geometricPrecision; text-rendering:geometricPrecision; image-rendering:optimizeQuality; fill-rule:evenodd; clip-rule:evenodd"
viewBox="0 0 710 1406"
 xmlns:xlink="http://www.w3.org/1999/xlink">
 <defs>
  <style type="text/css">
   <![CDATA[
    .fil0 {fill:#1F1B20;fill-rule:nonzero}
   ]]>
  </style>
 </defs>
 <g id="Layer_x0020_1">
  <metadata id="CorelCorpID_0Corel-Layer"/>
  <path class="fil0" d="M207 43c0,-24 38,-43 85,-43 47,0 85,19 85,43l0 339 177 0c47,0 86,19 86,43 0,23 -39,42 -86,42l-177 0 0 672c0,23 2,43 6,60 10,49 32,82 62,102 21,14 47,20 77,20 22,0 46,-3 71,-8 44,-9 93,2 111,24 17,21 -3,46 -47,55 -46,9 -92,14 -135,14 -83,0 -157,-16 -213,-54 -48,-32 -82,-79 -95,-144 -4,-22 -7,-45 -7,-69l0 -672 -122 0c-47,0 -85,-19 -85,-42 0,-24 38,-43 85,-43l122 0 0 -339z"/>
 </g>
</svg>
