<?xml version="1.0" encoding="UTF-8"?>
<!DOCTYPE svg PUBLIC "-//W3C//DTD SVG 1.1//EN" "http://www.w3.org/Graphics/SVG/1.1/DTD/svg11.dtd">
<!-- Creator: CorelDRAW X8 -->
<svg xmlns="http://www.w3.org/2000/svg" xml:space="preserve" width="694px" height="2048px" version="1.1" style="shape-rendering:geometricPrecision; text-rendering:geometricPrecision; image-rendering:optimizeQuality; fill-rule:evenodd; clip-rule:evenodd"
viewBox="0 0 694 2048"
 xmlns:xlink="http://www.w3.org/1999/xlink">
 <defs>
  <style type="text/css">
   <![CDATA[
    .fil0 {fill:#009846;fill-rule:nonzero}
   ]]>
  </style>
 </defs>
 <g id="Layer_x0020_1">
  <metadata id="CorelCorpID_0Corel-Layer"/>
  <path class="fil0" d="M211 695c0,-20 32,-36 72,-36 40,0 73,16 73,36l0 353 205 0c41,0 74,16 74,36 0,20 -33,36 -74,36l-205 0 0 677c0,23 2,43 5,61 11,51 34,85 65,106 25,16 56,24 90,24 24,0 50,-3 78,-9 37,-8 80,1 95,20 15,18 -3,39 -40,47 -46,9 -90,14 -133,14 -80,0 -150,-16 -205,-52 -47,-31 -80,-78 -94,-143 -4,-21 -6,-44 -6,-68l0 -677 -137 0c-40,0 -74,-16 -74,-36 0,-20 34,-36 74,-36l137 0 0 -353z"/>
 </g>
</svg>
