<?xml version="1.0" encoding="UTF-8"?>
<!DOCTYPE svg PUBLIC "-//W3C//DTD SVG 1.1//EN" "http://www.w3.org/Graphics/SVG/1.1/DTD/svg11.dtd">
<!-- Creator: CorelDRAW X8 -->
<svg xmlns="http://www.w3.org/2000/svg" xml:space="preserve" width="906px" height="1025px" version="1.1" style="shape-rendering:geometricPrecision; text-rendering:geometricPrecision; image-rendering:optimizeQuality; fill-rule:evenodd; clip-rule:evenodd"
viewBox="0 0 906 1025"
 xmlns:xlink="http://www.w3.org/1999/xlink">
 <defs>
  <style type="text/css">
   <![CDATA[
    .fil0 {fill:#1F1B20;fill-rule:nonzero}
   ]]>
  </style>
 </defs>
 <g id="Layer_x0020_1">
  <metadata id="CorelCorpID_0Corel-Layer"/>
  <path class="fil0" d="M906 983c0,23 -38,42 -85,42 -47,0 -85,-19 -85,-42l0 -90c-71,77 -170,132 -294,132 -120,1 -235,-36 -318,-111 -88,-80 -124,-193 -124,-309l0 -562c0,-24 38,-43 85,-43 47,0 85,19 85,43l0 560c0,93 29,190 87,256 44,50 106,82 184,82 90,-2 159,-43 208,-103 58,-70 87,-168 87,-264l0 -531c0,-24 38,-43 85,-43 47,0 85,19 85,43l0 940z"/>
 </g>
</svg>
