<?xml version="1.0" encoding="UTF-8"?>
<!DOCTYPE svg PUBLIC "-//W3C//DTD SVG 1.1//EN" "http://www.w3.org/Graphics/SVG/1.1/DTD/svg11.dtd">
<!-- Creator: CorelDRAW X8 -->
<svg xmlns="http://www.w3.org/2000/svg" xml:space="preserve" width="1135px" height="2048px" version="1.1" style="shape-rendering:geometricPrecision; text-rendering:geometricPrecision; image-rendering:optimizeQuality; fill-rule:evenodd; clip-rule:evenodd"
viewBox="0 0 1135 2048"
 xmlns:xlink="http://www.w3.org/1999/xlink">
 <defs>
  <style type="text/css">
   <![CDATA[
    .fil0 {fill:#009846;fill-rule:nonzero}
   ]]>
  </style>
 </defs>
 <g id="Layer_x0020_1">
  <metadata id="CorelCorpID_0Corel-Layer"/>
  <path class="fil0" d="M980 697c0,-21 35,-38 78,-38 42,0 77,17 77,38l0 961c0,190 -144,313 -328,368 -75,23 -157,34 -240,34 -82,0 -164,-11 -240,-34 -183,-55 -327,-178 -327,-368l0 -961c0,-21 35,-38 77,-38 43,0 78,17 78,38l0 961c0,159 110,259 252,302 51,15 106,23 160,23 55,0 110,-8 161,-23 142,-43 252,-143 252,-302l0 -961z"/>
 </g>
</svg>
