<?xml version="1.0" encoding="UTF-8"?>
<!DOCTYPE svg PUBLIC "-//W3C//DTD SVG 1.1//EN" "http://www.w3.org/Graphics/SVG/1.1/DTD/svg11.dtd">
<!-- Creator: CorelDRAW X8 -->
<svg xmlns="http://www.w3.org/2000/svg" xml:space="preserve" width="1576px" height="2048px" version="1.1" style="shape-rendering:geometricPrecision; text-rendering:geometricPrecision; image-rendering:optimizeQuality; fill-rule:evenodd; clip-rule:evenodd"
viewBox="0 0 1576 2048"
 xmlns:xlink="http://www.w3.org/1999/xlink">
 <defs>
  <style type="text/css">
   <![CDATA[
    .fil0 {fill:#009846;fill-rule:nonzero}
   ]]>
  </style>
 </defs>
 <g id="Layer_x0020_1">
  <metadata id="CorelCorpID_0Corel-Layer"/>
  <path class="fil0" d="M2 1084c-9,-22 19,-43 62,-47 43,-5 85,9 94,31l329 810 254 -806c8,-24 43,-36 79,-36 36,0 73,12 80,34l246 808 331 -807c6,-14 32,-22 59,-20 27,3 44,16 39,30l-388 944c-9,25 -44,33 -68,35 -43,3 -84,-12 -91,-34l-239 -786 -247 784c-7,24 -42,33 -64,35 -43,4 -85,-10 -94,-31l-382 -944z"/>
 </g>
</svg>
