<?xml version="1.0" encoding="UTF-8"?>
<!DOCTYPE svg PUBLIC "-//W3C//DTD SVG 1.1//EN" "http://www.w3.org/Graphics/SVG/1.1/DTD/svg11.dtd">
<!-- Creator: CorelDRAW X8 -->
<svg xmlns="http://www.w3.org/2000/svg" xml:space="preserve" width="1522px" height="1025px" version="1.1" style="shape-rendering:geometricPrecision; text-rendering:geometricPrecision; image-rendering:optimizeQuality; fill-rule:evenodd; clip-rule:evenodd"
viewBox="0 0 1522 1025"
 xmlns:xlink="http://www.w3.org/1999/xlink">
 <defs>
  <style type="text/css">
   <![CDATA[
    .fil0 {fill:#1F1B20;fill-rule:nonzero}
   ]]>
  </style>
 </defs>
 <g id="Layer_x0020_1">
  <metadata id="CorelCorpID_0Corel-Layer"/>
  <path class="fil0" d="M2 54c-10,-24 23,-48 72,-53 50,-5 98,11 107,36l294 757 227 -755c9,-30 64,-39 92,-39 44,1 82,17 89,39l218 754 297 -768c7,-17 40,-28 74,-24 33,3 55,19 49,36l-367 949c-12,30 -58,39 -88,39 -46,1 -86,-16 -93,-39l-211 -728 -218 728c-8,30 -62,39 -89,39 -44,1 -83,-15 -92,-37l-361 -934z"/>
 </g>
</svg>
