<?xml version="1.0" encoding="UTF-8"?>
<!DOCTYPE svg PUBLIC "-//W3C//DTD SVG 1.1//EN" "http://www.w3.org/Graphics/SVG/1.1/DTD/svg11.dtd">
<!-- Creator: CorelDRAW X8 -->
<svg xmlns="http://www.w3.org/2000/svg" xml:space="preserve" width="1800px" height="2048px" version="1.1" style="shape-rendering:geometricPrecision; text-rendering:geometricPrecision; image-rendering:optimizeQuality; fill-rule:evenodd; clip-rule:evenodd"
viewBox="0 0 1800 2048"
 xmlns:xlink="http://www.w3.org/1999/xlink">
 <defs>
  <style type="text/css">
   <![CDATA[
    .fil0 {fill:#2B2A29;fill-rule:nonzero}
   ]]>
  </style>
 </defs>
 <g id="Layer_x0020_1">
  <metadata id="CorelCorpID_0Corel-Layer"/>
  <path class="fil0" d="M1 711c-8,-26 27,-51 80,-55 53,-5 104,13 112,40l368 1085 272 -1088c6,-25 53,-39 99,-38 43,0 86,13 93,41l275 1085 366 -1099c6,-18 41,-31 78,-28 36,4 61,21 55,39l-441 1324c-10,30 -56,44 -100,43 -44,-1 -86,-15 -93,-42l-266 -1046 -260 1044c-8,30 -54,44 -100,44 -43,0 -85,-14 -94,-40l-444 -1309z"/>
 </g>
</svg>
