<?xml version="1.0" encoding="UTF-8"?>
<!DOCTYPE svg PUBLIC "-//W3C//DTD SVG 1.1//EN" "http://www.w3.org/Graphics/SVG/1.1/DTD/svg11.dtd">
<!-- Creator: CorelDRAW X8 -->
<svg xmlns="http://www.w3.org/2000/svg" xml:space="preserve" width="929px" height="2048px" version="1.1" style="shape-rendering:geometricPrecision; text-rendering:geometricPrecision; image-rendering:optimizeQuality; fill-rule:evenodd; clip-rule:evenodd"
viewBox="0 0 929 2048"
 xmlns:xlink="http://www.w3.org/1999/xlink">
 <defs>
  <style type="text/css">
   <![CDATA[
    .fil0 {fill:#009846;fill-rule:nonzero}
   ]]>
  </style>
 </defs>
 <g id="Layer_x0020_1">
  <metadata id="CorelCorpID_0Corel-Layer"/>
  <path class="fil0" d="M9 1094c-17,-22 4,-46 47,-55 44,-9 93,2 110,24l315 386 321 -395c11,-14 44,-20 72,-15 28,6 41,22 30,36l-364 447 386 480c17,22 -4,46 -47,55 -44,9 -93,-2 -110,-24l-321 -398 -327 404c-11,14 -44,20 -72,15 -28,-6 -41,-22 -30,-36l370 -456 -380 -468z"/>
 </g>
</svg>
