<?xml version="1.0" encoding="UTF-8"?>
<!DOCTYPE svg PUBLIC "-//W3C//DTD SVG 1.1//EN" "http://www.w3.org/Graphics/SVG/1.1/DTD/svg11.dtd">
<!-- Creator: CorelDRAW X8 -->
<svg xmlns="http://www.w3.org/2000/svg" xml:space="preserve" width="941px" height="1025px" version="1.1" style="shape-rendering:geometricPrecision; text-rendering:geometricPrecision; image-rendering:optimizeQuality; fill-rule:evenodd; clip-rule:evenodd"
viewBox="0 0 947 1032"
 xmlns:xlink="http://www.w3.org/1999/xlink">
 <defs>
  <style type="text/css">
   <![CDATA[
    .fil0 {fill:#1F1B20;fill-rule:nonzero}
   ]]>
  </style>
 </defs>
 <g id="Layer_x0020_1">
  <metadata id="CorelCorpID_0Corel-Layer"/>
  <path class="fil0" d="M146 1011c-15,17 -54,25 -89,18 -35,-7 -52,-27 -38,-44l365 -449 -377 -469c-20,-25 4,-53 54,-63 51,-11 108,2 128,27l301 374 311 -384c15,-17 54,-26 89,-18 35,7 52,26 38,44l-365 449 377 468c20,25 -4,54 -54,64 -51,10 -108,-2 -128,-27l-301 -374 -311 384z"/>
 </g>
</svg>
