<?xml version="1.0" encoding="UTF-8"?>
<!DOCTYPE svg PUBLIC "-//W3C//DTD SVG 1.1//EN" "http://www.w3.org/Graphics/SVG/1.1/DTD/svg11.dtd">
<!-- Creator: CorelDRAW X8 -->
<svg xmlns="http://www.w3.org/2000/svg" xml:space="preserve" width="1176px" height="2048px" version="1.1" style="shape-rendering:geometricPrecision; text-rendering:geometricPrecision; image-rendering:optimizeQuality; fill-rule:evenodd; clip-rule:evenodd"
viewBox="0 0 1176 2048"
 xmlns:xlink="http://www.w3.org/1999/xlink">
 <defs>
  <style type="text/css">
   <![CDATA[
    .fil0 {fill:#009846;fill-rule:nonzero}
   ]]>
  </style>
 </defs>
 <g id="Layer_x0020_1">
  <metadata id="CorelCorpID_0Corel-Layer"/>
  <path class="fil0" d="M6 718c-17,-23 5,-48 51,-56 45,-9 95,3 112,25l436 572 438 -582c10,-14 42,-21 70,-16 29,5 43,21 33,35l-483 640 507 665c17,23 -5,48 -51,56 -45,9 -95,-3 -112,-25l-436 -573 -438 581c-10,14 -42,21 -70,16 -29,-5 -43,-21 -33,-35l482 -639 -506 -664z"/>
 </g>
</svg>
