<?xml version="1.0" encoding="UTF-8"?>
<!DOCTYPE svg PUBLIC "-//W3C//DTD SVG 1.1//EN" "http://www.w3.org/Graphics/SVG/1.1/DTD/svg11.dtd">
<!-- Creator: CorelDRAW X8 -->
<svg xmlns="http://www.w3.org/2000/svg" xml:space="preserve" width="971px" height="1406px" version="1.1" style="shape-rendering:geometricPrecision; text-rendering:geometricPrecision; image-rendering:optimizeQuality; fill-rule:evenodd; clip-rule:evenodd"
viewBox="0 0 971 1406"
 xmlns:xlink="http://www.w3.org/1999/xlink">
 <defs>
  <style type="text/css">
   <![CDATA[
    .fil0 {fill:#1F1B20;fill-rule:nonzero}
   ]]>
  </style>
 </defs>
 <g id="Layer_x0020_1">
  <metadata id="CorelCorpID_0Corel-Layer"/>
  <path class="fil0" d="M848 25c7,-17 39,-28 73,-24 34,3 56,20 49,36l-463 1122c-22,55 -46,109 -85,153 -45,51 -108,87 -207,93 -44,3 -87,-2 -125,-15 -32,-12 -59,-29 -77,-53 -12,-16 5,-34 37,-40 33,-6 69,2 80,18 9,12 20,19 32,24 11,4 24,5 38,4 46,-3 80,-24 108,-56 34,-38 56,-89 77,-140l51 -123 -434 -971c-10,-24 20,-47 67,-52 47,-5 94,10 104,33l349 780 326 -789z"/>
 </g>
</svg>
