<?xml version="1.0" encoding="UTF-8"?>
<!DOCTYPE svg PUBLIC "-//W3C//DTD SVG 1.1//EN" "http://www.w3.org/Graphics/SVG/1.1/DTD/svg11.dtd">
<!-- Creator: CorelDRAW X8 -->
<svg xmlns="http://www.w3.org/2000/svg" xml:space="preserve" width="992px" height="1405px" version="1.1" style="shape-rendering:geometricPrecision; text-rendering:geometricPrecision; image-rendering:optimizeQuality; fill-rule:evenodd; clip-rule:evenodd"
viewBox="0 0 992 1405"
 xmlns:xlink="http://www.w3.org/1999/xlink">
 <defs>
  <style type="text/css">
   <![CDATA[
    .fil0 {fill:black;fill-rule:nonzero}
   ]]>
  </style>
 </defs>
 <g id="Layer_x0020_1">
  <metadata id="CorelCorpID_0Corel-Layer"/>
  <path class="fil0" d="M2 56c-11,-25 19,-49 68,-55 48,-5 97,10 108,34l366 781 335 -791c7,-17 38,-28 69,-24 31,4 50,21 43,39l-474 1118c-61,144 -125,236 -296,246 -66,4 -155,-11 -198,-67 -12,-17 2,-35 31,-42 29,-7 63,0 75,17 19,25 51,30 81,28 112,-6 157,-106 195,-196l51 -120 -454 -968z"/>
 </g>
</svg>
