<?xml version="1.0" encoding="UTF-8"?>
<!DOCTYPE svg PUBLIC "-//W3C//DTD SVG 1.1//EN" "http://www.w3.org/Graphics/SVG/1.1/DTD/svg11.dtd">
<!-- Creator: CorelDRAW X8 -->
<svg xmlns="http://www.w3.org/2000/svg" xml:space="preserve" width="1030px" height="2048px" version="1.1" style="shape-rendering:geometricPrecision; text-rendering:geometricPrecision; image-rendering:optimizeQuality; fill-rule:evenodd; clip-rule:evenodd"
viewBox="0 0 1030 2048"
 xmlns:xlink="http://www.w3.org/1999/xlink">
 <defs>
  <style type="text/css">
   <![CDATA[
    .fil0 {fill:#009846;fill-rule:nonzero}
   ]]>
  </style>
 </defs>
 <g id="Layer_x0020_1">
  <metadata id="CorelCorpID_0Corel-Layer"/>
  <path class="fil0" d="M931 1056c6,-14 32,-22 59,-19 27,2 44,16 39,29l-470 1111c-23,55 -57,125 -95,169 -44,49 -105,85 -200,90 -41,3 -82,-2 -117,-14 -31,-11 -56,-28 -73,-51 -10,-13 3,-27 29,-32 26,-4 55,2 64,15 10,13 23,22 38,27 14,5 30,7 47,6 53,-3 91,-27 120,-61 35,-40 67,-107 89,-159l45 -108 -503 -973c-11,-22 15,-43 57,-49 43,-5 87,8 98,29l422 821 351 -831z"/>
 </g>
</svg>
