<?xml version="1.0" encoding="UTF-8"?>
<!DOCTYPE svg PUBLIC "-//W3C//DTD SVG 1.1//EN" "http://www.w3.org/Graphics/SVG/1.1/DTD/svg11.dtd">
<!-- Creator: CorelDRAW X8 -->
<svg xmlns="http://www.w3.org/2000/svg" xml:space="preserve" width="987px" height="1001px" version="1.1" style="shape-rendering:geometricPrecision; text-rendering:geometricPrecision; image-rendering:optimizeQuality; fill-rule:evenodd; clip-rule:evenodd"
viewBox="0 0 987 1001"
 xmlns:xlink="http://www.w3.org/1999/xlink">
 <defs>
  <style type="text/css">
   <![CDATA[
    .fil0 {fill:#1F1B20;fill-rule:nonzero}
   ]]>
  </style>
 </defs>
 <g id="Layer_x0020_1">
  <metadata id="CorelCorpID_0Corel-Layer"/>
  <path class="fil0" d="M116 76c-42,0 -76,-17 -76,-38 0,-21 34,-38 76,-38l733 0c25,0 60,6 82,21 18,13 24,31 10,47l-716 857 686 0c42,0 76,17 76,38 0,21 -34,38 -76,38l-808 0c-28,0 -68,-7 -89,-25 -15,-13 -19,-29 -7,-43l717 -857 -608 0z"/>
 </g>
</svg>
