<?xml version="1.0" encoding="UTF-8"?>
<!DOCTYPE svg PUBLIC "-//W3C//DTD SVG 1.1//EN" "http://www.w3.org/Graphics/SVG/1.1/DTD/svg11.dtd">
<!-- Creator: CorelDRAW X8 -->
<svg xmlns="http://www.w3.org/2000/svg" xml:space="preserve" width="607px" height="2048px" version="1.1" style="shape-rendering:geometricPrecision; text-rendering:geometricPrecision; image-rendering:optimizeQuality; fill-rule:evenodd; clip-rule:evenodd"
viewBox="0 0 607 2048"
 xmlns:xlink="http://www.w3.org/1999/xlink">
 <defs>
  <style type="text/css">
   <![CDATA[
    .fil0 {fill:#009846;fill-rule:nonzero}
   ]]>
  </style>
 </defs>
 <g id="Layer_x0020_1">
  <metadata id="CorelCorpID_0Corel-Layer"/>
  <path class="fil0" d="M304 1523c93,0 173,34 227,88 47,47 76,111 76,181 0,69 -29,133 -76,180 -54,54 -134,88 -227,88 -94,0 -174,-34 -228,-88 -47,-47 -76,-111 -76,-180 0,-70 29,-134 76,-181 54,-54 134,-88 228,-88zm102 119c-30,-30 -67,-49 -102,-49 -36,0 -73,19 -103,49 -38,38 -61,90 -61,150 0,59 23,111 61,149 30,30 67,49 103,49 35,0 72,-19 102,-49 38,-38 61,-90 61,-149 0,-60 -23,-112 -61,-150z"/>
 </g>
</svg>
