<?xml version="1.0" encoding="UTF-8"?>
<!DOCTYPE svg PUBLIC "-//W3C//DTD SVG 1.1//EN" "http://www.w3.org/Graphics/SVG/1.1/DTD/svg11.dtd">
<!-- Creator: CorelDRAW X8 -->
<svg xmlns="http://www.w3.org/2000/svg" xml:space="preserve" width="441px" height="917px" version="1.1" style="shape-rendering:geometricPrecision; text-rendering:geometricPrecision; image-rendering:optimizeQuality; fill-rule:evenodd; clip-rule:evenodd"
viewBox="0 0 441 916"
 xmlns:xlink="http://www.w3.org/1999/xlink">
 <defs>
  <style type="text/css">
   <![CDATA[
    .fil0 {fill:#2B2A29;fill-rule:nonzero}
   ]]>
  </style>
 </defs>
 <g id="Layer_x0020_1">
  <metadata id="CorelCorpID_0Corel-Layer"/>
  <g id="_338999350368">
   <path class="fil0" d="M221 518c152,0 219,98 220,197 1,100 -66,201 -220,201 -152,0 -220,-98 -221,-197 -1,-100 65,-201 221,-201zm-82 199c0,75 41,115 83,115 40,0 81,-41 81,-115 0,-74 -41,-115 -82,-115 -41,0 -82,41 -82,115z"/>
   <path class="fil0" d="M221 0c152,0 219,98 220,197 1,100 -66,201 -220,201 -152,0 -220,-98 -221,-197 -1,-100 65,-201 221,-201zm-82 199c0,75 41,115 83,115 40,0 81,-41 81,-115 0,-74 -41,-115 -82,-115 -41,0 -82,40 -82,115z"/>
  </g>
 </g>
</svg>
