<?xml version="1.0" encoding="UTF-8"?>
<!DOCTYPE svg PUBLIC "-//W3C//DTD SVG 1.1//EN" "http://www.w3.org/Graphics/SVG/1.1/DTD/svg11.dtd">
<!-- Creator: CorelDRAW X8 -->
<svg xmlns="http://www.w3.org/2000/svg" xml:space="preserve" width="2298px" height="2048px" version="1.1" style="shape-rendering:geometricPrecision; text-rendering:geometricPrecision; image-rendering:optimizeQuality; fill-rule:evenodd; clip-rule:evenodd"
viewBox="0 0 2298 2048"
 xmlns:xlink="http://www.w3.org/1999/xlink">
 <defs>
  <style type="text/css">
   <![CDATA[
    .fil0 {fill:black;fill-rule:nonzero}
   ]]>
  </style>
 </defs>
 <g id="Layer_x0020_1">
  <metadata id="CorelCorpID_0Corel-Layer"/>
  <path class="fil0" d="M1420 2015c0,25 -37,45 -82,45 -44,0 -81,-20 -81,-45l0 -519c0,-94 -15,-183 -76,-259 -57,-71 -141,-108 -231,-110 78,50 123,123 123,216 0,91 -46,167 -122,213 80,34 149,99 148,221 -2,183 -138,282 -312,283 -145,2 -262,-61 -335,-186 -59,-102 -80,-230 -73,-342 10,-169 75,-309 222,-402 -91,-4 -173,12 -250,64 -115,79 -181,219 -188,371 -8,150 45,334 176,420 29,20 25,48 -9,65 -35,16 -86,13 -115,-6 -155,-102 -224,-301 -215,-481 16,-323 255,-529 580,-525 55,1 122,5 189,19 195,-51 443,-17 570,155 84,-116 224,-170 364,-175 195,-7 382,72 495,233 73,104 102,224 100,349 -1,98 -24,198 -72,278 -69,114 -183,165 -303,164 -118,-2 -227,-49 -294,-150 -43,-64 -66,-146 -66,-229 0,-99 32,-199 91,-278 78,-104 197,-161 325,-177 -75,-67 -166,-102 -266,-99 -73,3 -148,32 -204,94 -68,76 -89,180 -89,279l0 514zm633 -702c-100,0 -189,46 -249,126 -53,70 -78,156 -78,243 0,73 19,144 55,198 33,50 82,89 144,89 56,1 106,-33 147,-101 43,-71 63,-161 64,-249 1,-109 -22,-215 -83,-306zm-1276 -152c-158,70 -226,209 -236,373 -5,84 8,187 46,273 35,80 102,163 197,162 102,-1 152,-101 153,-192 1,-133 -106,-160 -165,-165 -18,-2 -35,0 -52,0 -39,-1 -73,-17 -78,-39 -6,-25 25,-48 69,-52 15,-1 30,0 45,-2 95,-11 154,-81 154,-176 0,-92 -50,-150 -133,-182z"/>
 </g>
</svg>
