<?xml version="1.0" encoding="UTF-8"?>
<!DOCTYPE svg PUBLIC "-//W3C//DTD SVG 1.1//EN" "http://www.w3.org/Graphics/SVG/1.1/DTD/svg11.dtd">
<!-- Creator: CorelDRAW X8 -->
<svg xmlns="http://www.w3.org/2000/svg" xml:space="preserve" width="2298px" height="2048px" version="1.1" style="shape-rendering:geometricPrecision; text-rendering:geometricPrecision; image-rendering:optimizeQuality; fill-rule:evenodd; clip-rule:evenodd"
viewBox="0 0 2298 2048"
 xmlns:xlink="http://www.w3.org/1999/xlink">
 <defs>
  <style type="text/css">
   <![CDATA[
    .fil0 {fill:#1F1B20;fill-rule:nonzero}
   ]]>
  </style>
 </defs>
 <g id="Layer_x0020_1">
  <metadata id="CorelCorpID_0Corel-Layer"/>
  <path class="fil0" d="M2198 1270c66,94 100,220 100,343 0,102 -24,203 -73,284 -67,111 -175,163 -299,163 -118,0 -229,-46 -298,-149 -60,-90 -76,-204 -58,-310 25,-151 118,-272 258,-334 48,-20 98,-34 150,-40 -75,-67 -167,-102 -266,-99 -157,6 -292,133 -292,292l0 595c0,25 -37,45 -82,45 -44,0 -81,-20 -81,-45l0 -595c-4,-79 -22,-144 -91,-208 -58,-54 -136,-81 -215,-84 77,50 122,123 122,215 0,91 -46,167 -122,213 80,34 149,99 148,221 -2,183 -139,281 -312,283 -298,3 -424,-269 -408,-529 10,-163 76,-308 216,-401 -112,-4 -211,27 -293,105 -91,87 -133,207 -139,330 -8,150 46,334 177,420 28,19 24,48 -10,64 -34,16 -86,14 -115,-5 -155,-103 -223,-301 -214,-481 7,-142 57,-275 161,-374 112,-107 265,-153 418,-151 53,1 116,5 181,18 53,-14 109,-21 168,-20 150,-1 319,48 415,171 82,-111 223,-165 358,-170 194,-6 381,70 496,233zm-1427 -111c-151,69 -220,218 -230,375 -9,152 56,437 243,435 102,-1 152,-101 153,-192 1,-147 -129,-165 -182,-166 -11,0 -22,1 -33,1 -45,0 -81,-21 -81,-46 0,-24 34,-44 78,-45 12,-1 25,-1 37,-2 95,-11 154,-81 154,-176 0,-93 -53,-153 -139,-184zm1282 154c-43,0 -86,9 -125,26 -110,48 -177,155 -196,270 -16,90 -2,194 48,270 41,61 91,90 141,90 55,0 110,-35 150,-101 43,-72 64,-168 64,-259 0,-104 -24,-209 -82,-296z"/>
 </g>
</svg>
