<?xml version="1.0" encoding="UTF-8"?>
<!DOCTYPE svg PUBLIC "-//W3C//DTD SVG 1.1//EN" "http://www.w3.org/Graphics/SVG/1.1/DTD/svg11.dtd">
<!-- Creator: CorelDRAW X8 -->
<svg xmlns="http://www.w3.org/2000/svg" xml:space="preserve" width="2625px" height="1412px" version="1.1" style="shape-rendering:geometricPrecision; text-rendering:geometricPrecision; image-rendering:optimizeQuality; fill-rule:evenodd; clip-rule:evenodd"
viewBox="0 0 2625 1413"
 xmlns:xlink="http://www.w3.org/1999/xlink">
 <defs>
  <style type="text/css">
   <![CDATA[
    .fil0 {fill:black;fill-rule:nonzero}
   ]]>
  </style>
 </defs>
 <g id="Layer_x0020_1">
  <metadata id="CorelCorpID_0Corel-Layer"/>
  <path class="fil0" d="M1420 979c0,25 -36,45 -81,45 -45,0 -81,-20 -81,-45l0 -580c0,-170 -132,-308 -307,-309 77,50 123,124 123,217 0,91 -46,166 -122,213 80,34 149,98 148,221 -2,182 -141,281 -315,283 -145,1 -260,-61 -332,-187 -51,-88 -74,-195 -75,-295 -1,-185 64,-347 224,-449 -15,0 -30,0 -44,0 -74,3 -142,21 -206,65 -127,87 -188,233 -189,384 -2,145 53,325 177,407 29,19 25,48 -10,64 -34,17 -85,14 -114,-5 -150,-99 -219,-292 -216,-466 6,-328 240,-536 558,-542 69,-1 144,7 212,21 54,-14 112,-21 170,-21 153,0 308,51 400,175 84,-116 234,-169 374,-174 180,-6 342,59 457,196 320,64 472,346 452,658 -20,324 -235,548 -560,557 -132,4 -272,-30 -378,-113 -26,-21 -17,-49 20,-64 37,-14 88,-9 113,11 68,54 160,78 245,75 253,-7 383,-234 398,-466 12,-188 -42,-396 -202,-511 29,75 42,156 40,238 -1,99 -24,199 -72,279 -69,114 -183,164 -303,163 -118,-1 -227,-48 -294,-149 -43,-65 -66,-146 -66,-230 0,-98 32,-199 91,-277 78,-104 197,-162 324,-178 -74,-66 -166,-102 -265,-98 -172,6 -294,143 -294,307l0 580zm634 -702c-100,0 -189,46 -249,126 -53,69 -78,156 -78,242 0,74 19,144 55,198 33,50 82,89 144,90 56,1 106,-34 146,-101 44,-72 64,-161 65,-250 1,-108 -22,-215 -83,-305zm-1276 -152c-172,75 -239,238 -237,417 1,74 15,157 46,229 35,79 103,163 198,162 102,-1 151,-101 152,-192 2,-134 -106,-161 -166,-165 -17,-2 -34,0 -51,0 -39,-1 -72,-17 -78,-40 -6,-25 25,-48 70,-51 15,-1 30,-1 45,-2 95,-11 154,-81 154,-176 0,-92 -51,-151 -133,-182z"/>
 </g>
</svg>
