<?xml version="1.0" encoding="UTF-8"?>
<!DOCTYPE svg PUBLIC "-//W3C//DTD SVG 1.1//EN" "http://www.w3.org/Graphics/SVG/1.1/DTD/svg11.dtd">
<!-- Creator: CorelDRAW X8 -->
<svg xmlns="http://www.w3.org/2000/svg" xml:space="preserve" width="2624px" height="2048px" version="1.1" style="shape-rendering:geometricPrecision; text-rendering:geometricPrecision; image-rendering:optimizeQuality; fill-rule:evenodd; clip-rule:evenodd"
viewBox="0 0 2624 2048"
 xmlns:xlink="http://www.w3.org/1999/xlink">
 <defs>
  <style type="text/css">
   <![CDATA[
    .fil0 {fill:#1F1B20;fill-rule:nonzero}
   ]]>
  </style>
 </defs>
 <g id="Layer_x0020_1">
  <metadata id="CorelCorpID_0Corel-Layer"/>
  <path class="fil0" d="M340 1985c29,19 24,48 -10,64 -34,16 -85,14 -114,-5 -156,-103 -224,-301 -215,-481 7,-142 58,-275 161,-374 112,-107 265,-153 418,-151 53,1 117,5 181,18 53,-14 109,-21 168,-20 151,-1 319,48 415,171 83,-111 223,-165 358,-170 178,-6 351,59 467,196 34,7 68,17 101,30 151,59 250,171 304,307 39,95 55,211 48,325 -20,324 -228,544 -551,553 -132,4 -281,-30 -387,-113 -25,-21 -17,-49 20,-64 37,-14 88,-9 113,12 68,53 160,77 245,74 251,-7 383,-232 398,-463 6,-101 -7,-204 -38,-288 -32,-89 -86,-168 -166,-225 29,73 43,154 42,232 0,102 -24,203 -73,284 -67,111 -175,163 -298,163 -119,0 -230,-46 -299,-149 -60,-90 -76,-204 -58,-310 26,-151 118,-272 258,-334 48,-20 99,-34 150,-40 -74,-66 -166,-102 -266,-99 -156,6 -292,133 -292,292l0 595c0,25 -37,45 -81,45 -45,0 -82,-20 -82,-45l0 -595c-4,-79 -22,-144 -90,-208 -59,-54 -137,-81 -215,-84 76,50 121,123 121,215 0,91 -46,167 -122,213 80,34 149,99 148,221 -2,183 -138,281 -312,283 -297,3 -424,-269 -408,-529 10,-163 77,-308 216,-401 -112,-4 -211,27 -293,105 -91,87 -133,207 -139,330 -7,150 46,334 177,420zm1713 -672c-43,0 -86,9 -125,26 -110,48 -177,155 -196,270 -15,90 -2,194 49,270 40,61 90,90 140,90 55,0 110,-35 150,-101 44,-72 64,-168 64,-259 0,-104 -24,-209 -82,-296zm-1282 -154c-151,69 -220,218 -229,375 -10,152 55,437 242,435 102,-1 152,-101 153,-192 1,-147 -129,-165 -182,-166 -10,1 -21,1 -33,1 -45,0 -81,-21 -81,-46 0,-24 34,-44 78,-45 12,-1 25,-1 37,-2 95,-11 154,-81 154,-176 0,-93 -52,-153 -139,-184z"/>
 </g>
</svg>
