<?xml version="1.0" encoding="UTF-8"?>
<!DOCTYPE svg PUBLIC "-//W3C//DTD SVG 1.1//EN" "http://www.w3.org/Graphics/SVG/1.1/DTD/svg11.dtd">
<!-- Creator: CorelDRAW X8 -->
<svg xmlns="http://www.w3.org/2000/svg" xml:space="preserve" width="1648px" height="2048px" version="1.1" style="shape-rendering:geometricPrecision; text-rendering:geometricPrecision; image-rendering:optimizeQuality; fill-rule:evenodd; clip-rule:evenodd"
viewBox="0 0 1648 2048"
 xmlns:xlink="http://www.w3.org/1999/xlink">
 <defs>
  <style type="text/css">
   <![CDATA[
    .fil0 {fill:#1F1B20;fill-rule:nonzero}
   ]]>
  </style>
 </defs>
 <g id="Layer_x0020_1">
  <metadata id="CorelCorpID_0Corel-Layer"/>
  <path class="fil0" d="M546 1773c-59,49 -138,76 -218,76 -143,0 -235,-66 -284,-162 -39,-76 -51,-172 -40,-271 13,-118 61,-206 133,-267 89,-77 214,-113 354,-113 142,0 287,33 376,140 70,-91 183,-141 328,-140 152,1 266,54 342,145 68,80 105,192 110,324 5,120 -15,256 -85,356 -119,171 -348,221 -545,217 -240,0 -479,0 -719,0 -71,0 -133,37 -133,116 0,75 59,116 130,116l1196 0c45,0 82,31 82,69 0,38 -37,69 -82,69l-1196 0c-144,0 -292,-62 -294,-228 -1,-162 155,-233 297,-233l719 0c153,-2 300,-25 394,-160 61,-87 78,-215 74,-320 -5,-120 -37,-219 -95,-288 -48,-58 -115,-91 -197,-92 -67,-1 -123,21 -168,74 -54,64 -73,149 -73,231l0 371c0,25 -37,46 -82,46 -45,0 -81,-21 -81,-46l0 -371c0,-89 -21,-161 -64,-213 -54,-65 -151,-94 -246,-93 -77,0 -152,21 -203,58 -56,41 -102,101 -107,174 44,-39 101,-59 161,-61 84,-3 162,20 218,67 63,52 93,128 93,204 -1,77 -33,153 -95,205zm-368 -200c0,123 77,183 152,180 74,-2 148,-63 148,-180 0,-121 -77,-181 -153,-180 -74,1 -147,61 -147,180z"/>
 </g>
</svg>
