<?xml version="1.0" encoding="UTF-8"?>
<!DOCTYPE svg PUBLIC "-//W3C//DTD SVG 1.1//EN" "http://www.w3.org/Graphics/SVG/1.1/DTD/svg11.dtd">
<!-- Creator: CorelDRAW X8 -->
<svg xmlns="http://www.w3.org/2000/svg" xml:space="preserve" width="1123px" height="2048px" version="1.1" style="shape-rendering:geometricPrecision; text-rendering:geometricPrecision; image-rendering:optimizeQuality; fill-rule:evenodd; clip-rule:evenodd"
viewBox="0 0 1123 2048"
 xmlns:xlink="http://www.w3.org/1999/xlink">
 <defs>
  <style type="text/css">
   <![CDATA[
    .fil0 {fill:#009846;fill-rule:nonzero}
   ]]>
  </style>
 </defs>
 <g id="Layer_x0020_1">
  <metadata id="CorelCorpID_0Corel-Layer"/>
  <path class="fil0" d="M645 1564c0,71 -31,135 -80,183 -56,54 -139,88 -235,88 -96,0 -178,-34 -235,-88 -59,-57 -89,-144 -94,-224 -3,-46 2,-93 14,-137 12,-45 31,-89 56,-128 64,-99 164,-162 276,-194 83,-25 173,-32 258,-26 90,7 170,26 239,56 64,29 118,69 160,118 42,48 73,107 94,173 20,65 28,134 24,203 -4,75 -22,148 -53,214 -74,156 -191,231 -360,259 -136,22 -307,16 -450,15 -25,0 -44,9 -63,27 -27,25 -41,59 -41,93 -1,39 14,77 42,105 32,32 86,30 86,30l755 0c39,0 70,16 70,35 0,19 -31,35 -70,35l-763 0c-77,0 -146,-12 -203,-68 -39,-39 -58,-89 -57,-138 1,-46 20,-91 58,-126 51,-46 119,-62 185,-62 123,0 292,6 408,-13 130,-21 211,-88 267,-207 29,-62 46,-131 49,-201 4,-64 -4,-129 -23,-190 -16,-54 -41,-104 -74,-145 -35,-44 -79,-80 -134,-105 -48,-21 -104,-34 -167,-39 -53,-4 -108,2 -159,15 -58,16 -114,45 -160,84 -41,36 -75,81 -93,134 42,-32 99,-49 158,-51 85,-4 164,21 222,69 57,47 93,117 93,206zm-204 -151c-32,-31 -72,-50 -111,-50 -39,0 -79,19 -111,50 -39,38 -63,91 -63,151 0,60 24,113 63,151 32,31 72,50 111,50 39,0 79,-19 111,-50 39,-38 64,-91 64,-151 0,-60 -25,-113 -64,-151z"/>
 </g>
</svg>
