<?xml version="1.0" encoding="UTF-8"?>
<!DOCTYPE svg PUBLIC "-//W3C//DTD SVG 1.1//EN" "http://www.w3.org/Graphics/SVG/1.1/DTD/svg11.dtd">
<!-- Creator: CorelDRAW X8 -->
<svg xmlns="http://www.w3.org/2000/svg" xml:space="preserve" width="1358px" height="2048px" version="1.1" style="shape-rendering:geometricPrecision; text-rendering:geometricPrecision; image-rendering:optimizeQuality; fill-rule:evenodd; clip-rule:evenodd"
viewBox="0 0 1358 2048"
 xmlns:xlink="http://www.w3.org/1999/xlink">
 <defs>
  <style type="text/css">
   <![CDATA[
    .fil0 {fill:#1F1B20;fill-rule:nonzero}
   ]]>
  </style>
 </defs>
 <g id="Layer_x0020_1">
  <metadata id="CorelCorpID_0Corel-Layer"/>
  <path class="fil0" d="M1199 1311c0,-90 -49,-183 -152,-180 -74,2 -147,63 -147,180 0,122 76,182 152,181 74,-2 147,-62 147,-181zm155 6c7,56 5,109 -6,160 -24,109 -90,202 -195,267 -45,28 -95,49 -149,64 195,58 287,168 286,285 -2,176 -218,355 -613,355 -204,0 -598,-66 -604,-334 -4,-123 94,-243 287,-306 -64,-18 -123,-43 -174,-78 -85,-57 -141,-134 -168,-223 -18,-58 -22,-121 -14,-187 20,-153 116,-284 307,-284 95,0 178,35 234,91 50,49 79,114 79,184 0,91 -36,162 -93,209 -56,47 -133,71 -218,68 -52,-2 -101,-17 -142,-47 81,183 314,216 507,215 191,-1 415,-23 511,-214 -41,29 -90,44 -142,46 -84,3 -162,-21 -218,-68 -57,-47 -92,-118 -92,-209 0,-71 29,-136 78,-184 56,-56 139,-91 234,-91 181,0 284,115 305,281zm-1041 -186c-75,-2 -152,57 -152,180 0,119 73,179 147,181 76,1 153,-59 153,-181 0,-89 -50,-177 -148,-180zm-79 981c5,196 291,245 442,245 291,0 451,-135 452,-265 0,-166 -225,-248 -449,-246 -225,2 -450,90 -445,266z"/>
 </g>
</svg>
