<?xml version="1.0" encoding="UTF-8"?>
<!DOCTYPE svg PUBLIC "-//W3C//DTD SVG 1.1//EN" "http://www.w3.org/Graphics/SVG/1.1/DTD/svg11.dtd">
<!-- Creator: CorelDRAW X8 -->
<svg xmlns="http://www.w3.org/2000/svg" xml:space="preserve" width="1357px" height="1412px" version="1.1" style="shape-rendering:geometricPrecision; text-rendering:geometricPrecision; image-rendering:optimizeQuality; fill-rule:evenodd; clip-rule:evenodd"
viewBox="0 0 1357 1412"
 xmlns:xlink="http://www.w3.org/1999/xlink">
 <defs>
  <style type="text/css">
   <![CDATA[
    .fil0 {fill:black;fill-rule:nonzero}
   ]]>
  </style>
 </defs>
 <g id="Layer_x0020_1">
  <metadata id="CorelCorpID_0Corel-Layer"/>
  <path class="fil0" d="M159 275c0,-90 47,-183 150,-180 74,2 150,63 150,180 0,122 -74,182 -150,180 -74,-1 -150,-61 -150,-180zm10 230c41,30 90,45 141,47 85,3 162,-21 218,-68 57,-47 93,-118 93,-209 0,-71 -30,-136 -78,-184 -57,-56 -139,-91 -235,-91 -181,0 -283,115 -304,281 -7,56 -5,109 6,160 24,109 90,202 194,267 45,28 96,48 150,64 -195,58 -288,167 -286,283 2,176 219,357 614,357 207,0 604,-87 607,-357 2,-116 -91,-225 -286,-283 54,-16 105,-36 150,-64 104,-65 170,-158 194,-267 11,-51 13,-104 6,-160 -21,-166 -123,-281 -304,-281 -86,0 -173,29 -235,91 -48,48 -78,113 -78,184 0,91 36,162 93,209 56,47 133,71 218,68 51,-2 100,-17 141,-47 -96,191 -319,214 -509,215 -189,0 -415,-25 -510,-215zm879 -410c103,-3 150,90 150,180 0,119 -76,179 -150,180 -76,2 -150,-58 -150,-180 0,-91 55,-177 150,-180zm-366 1225c-289,0 -450,-135 -450,-265 -1,-200 299,-247 447,-245 146,2 447,47 446,245 0,130 -155,265 -443,265z"/>
 </g>
</svg>
