<?xml version="1.0" encoding="UTF-8"?>
<!DOCTYPE svg PUBLIC "-//W3C//DTD SVG 1.1//EN" "http://www.w3.org/Graphics/SVG/1.1/DTD/svg11.dtd">
<!-- Creator: CorelDRAW X8 -->
<svg xmlns="http://www.w3.org/2000/svg" xml:space="preserve" width="1956px" height="1400px" version="1.1" style="shape-rendering:geometricPrecision; text-rendering:geometricPrecision; image-rendering:optimizeQuality; fill-rule:evenodd; clip-rule:evenodd"
viewBox="0 0 1956 1399"
 xmlns:xlink="http://www.w3.org/1999/xlink">
 <defs>
  <style type="text/css">
   <![CDATA[
    .fil0 {fill:black;fill-rule:nonzero}
   ]]>
  </style>
 </defs>
 <g id="Layer_x0020_1">
  <metadata id="CorelCorpID_0Corel-Layer"/>
  <path class="fil0" d="M269 930c35,16 41,45 13,64 -33,23 -84,22 -120,5 -104,-49 -162,-148 -162,-263 0,-196 176,-300 352,-299 175,0 350,103 350,298 0,65 -18,124 -52,173l217 0c-6,-68 -8,-137 -5,-208 15,-343 148,-700 549,-700 420,0 536,380 545,733 4,198 -37,500 -187,643 -23,22 -72,29 -111,17 -39,-13 -52,-41 -29,-63 133,-127 168,-422 164,-597 -5,-234 -75,-642 -382,-642 -292,0 -376,381 -386,609 -4,71 -2,141 5,208l300 0 0 -632c0,-26 37,-46 82,-46 45,0 81,20 81,46l0 678c0,89 3,214 -23,299 -28,95 -90,150 -222,146 -236,-6 -331,-197 -368,-400l-374 0c-45,0 -81,-20 -81,-45 0,-15 11,-26 23,-33 65,-38 91,-114 91,-186 0,-134 -93,-207 -187,-207 -94,0 -189,74 -189,208 0,77 33,161 106,194zm1061 69l-286 0c19,102 81,303 204,309 50,3 70,-78 78,-159 6,-63 4,-126 4,-150z"/>
 </g>
</svg>
