<?xml version="1.0" encoding="UTF-8"?>
<!DOCTYPE svg PUBLIC "-//W3C//DTD SVG 1.1//EN" "http://www.w3.org/Graphics/SVG/1.1/DTD/svg11.dtd">
<!-- Creator: CorelDRAW X8 -->
<svg xmlns="http://www.w3.org/2000/svg" xml:space="preserve" width="2004px" height="2048px" version="1.1" style="shape-rendering:geometricPrecision; text-rendering:geometricPrecision; image-rendering:optimizeQuality; fill-rule:evenodd; clip-rule:evenodd"
viewBox="0 0 2004 2048"
 xmlns:xlink="http://www.w3.org/1999/xlink">
 <defs>
  <style type="text/css">
   <![CDATA[
    .fil0 {fill:#1F1B20;fill-rule:nonzero}
   ]]>
  </style>
 </defs>
 <g id="Layer_x0020_1">
  <metadata id="CorelCorpID_0Corel-Layer"/>
  <path class="fil0" d="M1650 1922c-45,0 -81,-21 -80,-46 1,-26 39,-45 83,-45 20,0 37,-2 53,-7 26,-9 46,-24 62,-44 36,-42 54,-104 63,-173 4,-24 5,-47 5,-69 0,-110 -37,-209 -100,-283 -58,-67 -138,-112 -229,-125 -18,-2 -35,-3 -52,-3 -129,0 -224,59 -292,150 -95,127 -135,310 -140,491 -2,64 0,127 6,188l301 0 0 -644c0,-26 37,-46 82,-46 45,0 81,20 81,46l0 690c0,89 3,215 -23,300 -29,98 -96,153 -237,146 -141,-8 -237,-90 -295,-212 -26,-55 -45,-119 -58,-189l-373 0c-45,0 -82,-20 -82,-45 0,-15 11,-26 23,-33 65,-38 91,-114 91,-186 0,-134 -93,-207 -187,-207 -94,0 -189,73 -189,207 0,77 33,162 107,195 35,16 40,45 12,64 -28,20 -79,23 -114,7 -108,-48 -168,-149 -168,-266 0,-196 177,-299 352,-298 175,0 350,103 350,298 0,65 -17,124 -52,173l217 0c-7,-61 -9,-125 -7,-189 6,-192 50,-387 153,-525 93,-125 236,-206 442,-206 32,0 61,2 89,6 142,18 259,82 338,174 74,85 117,198 117,322 0,26 -2,51 -5,76 -13,99 -46,194 -131,253 96,53 142,156 141,263 -1,71 -21,144 -62,202 -39,54 -92,85 -148,101 -84,24 -170,13 -226,-7 -38,-13 -49,-41 -25,-63 24,-21 74,-27 112,-13 17,5 42,9 65,2 24,-7 49,-23 71,-54 33,-47 50,-111 50,-168 1,-58 -15,-120 -53,-165 -28,-33 -51,-42 -78,-43 -17,-1 -36,0 -60,0zm-607 125c12,61 29,117 52,165 40,86 92,142 153,145 30,2 48,-25 62,-70 18,-59 20,-143 20,-240l-287 0z"/>
 </g>
</svg>
