<?xml version="1.0" encoding="UTF-8"?>
<!DOCTYPE svg PUBLIC "-//W3C//DTD SVG 1.1//EN" "http://www.w3.org/Graphics/SVG/1.1/DTD/svg11.dtd">
<!-- Creator: CorelDRAW X8 -->
<svg xmlns="http://www.w3.org/2000/svg" xml:space="preserve" width="1201px" height="2048px" version="1.1" style="shape-rendering:geometricPrecision; text-rendering:geometricPrecision; image-rendering:optimizeQuality; fill-rule:evenodd; clip-rule:evenodd"
viewBox="0 0 1201 2048"
 xmlns:xlink="http://www.w3.org/1999/xlink">
 <defs>
  <style type="text/css">
   <![CDATA[
    .fil0 {fill:#1F1B20;fill-rule:nonzero}
   ]]>
  </style>
 </defs>
 <g id="Layer_x0020_1">
  <metadata id="CorelCorpID_0Corel-Layer"/>
  <path class="fil0" d="M694 1747c-3,89 -37,178 -106,235 -59,50 -138,78 -224,78 -151,0 -255,-76 -311,-190 -25,-49 -39,-102 -47,-155 -7,-53 -7,-106 -5,-159 9,-161 77,-281 176,-365 125,-106 298,-155 465,-155 142,0 278,34 377,97 87,55 154,140 152,247 -1,78 -45,142 -110,182 78,40 132,110 139,198 6,64 -14,133 -64,193 -36,45 -93,80 -163,97 -69,16 -146,14 -224,-13 -38,-14 -49,-42 -26,-63 24,-21 75,-28 113,-14 28,10 53,11 74,6 31,-7 58,-26 79,-51 38,-46 53,-100 49,-150 -4,-46 -25,-89 -61,-119 -23,-19 -53,-31 -88,-33 -17,-1 -34,2 -51,0 -35,-2 -65,-17 -70,-38 -7,-25 24,-48 68,-52 17,-1 36,0 51,-3 32,-5 58,-19 77,-37 29,-27 44,-64 45,-104 1,-79 -47,-145 -112,-186 -68,-43 -160,-66 -255,-66 -115,0 -238,36 -329,114 -75,64 -130,155 -145,276 51,-57 121,-88 198,-90 98,-4 189,34 249,97 53,57 81,135 79,223zm-505 -1c0,147 93,222 183,223 84,0 166,-74 166,-223 1,-149 -87,-223 -174,-223 -87,0 -174,75 -175,223z"/>
 </g>
</svg>
