<?xml version="1.0" encoding="UTF-8"?>
<!DOCTYPE svg PUBLIC "-//W3C//DTD SVG 1.1//EN" "http://www.w3.org/Graphics/SVG/1.1/DTD/svg11.dtd">
<!-- Creator: CorelDRAW X8 -->
<svg xmlns="http://www.w3.org/2000/svg" xml:space="preserve" width="1727px" height="1024px" version="1.1" style="shape-rendering:geometricPrecision; text-rendering:geometricPrecision; image-rendering:optimizeQuality; fill-rule:evenodd; clip-rule:evenodd"
viewBox="0 0 1727 1024"
 xmlns:xlink="http://www.w3.org/1999/xlink">
 <defs>
  <style type="text/css">
   <![CDATA[
    .fil0 {fill:black;fill-rule:nonzero}
   ]]>
  </style>
 </defs>
 <g id="Layer_x0020_1">
  <metadata id="CorelCorpID_0Corel-Layer"/>
  <path class="fil0" d="M864 0c178,0 285,72 345,180 42,76 61,171 66,270l73 0c100,0 200,23 272,77 64,47 107,119 107,219 0,77 -31,140 -80,187 -61,58 -149,90 -237,91 -39,0 -79,-6 -118,-18 -39,-12 -54,-40 -32,-62 21,-22 70,-30 110,-18 14,4 27,6 40,6 49,-1 88,-27 115,-65 25,-34 40,-78 40,-119 1,-46 -13,-94 -43,-132 -36,-44 -93,-76 -174,-76l-72 0c-3,112 -21,223 -70,308 -60,106 -166,176 -342,176 -142,0 -239,-45 -302,-118 -48,75 -132,118 -241,118 -91,1 -181,-31 -243,-91 -53,-53 -79,-122 -78,-190 1,-71 28,-140 80,-192 83,-82 200,-101 289,-101l83 0c5,-98 23,-194 65,-269 61,-109 167,-181 347,-181zm-400 678c-8,-44 -12,-91 -13,-137l-82 0c-37,0 -98,6 -147,55 -37,37 -58,90 -59,145 -2,53 16,107 57,147 30,30 67,45 100,45 36,0 71,-20 95,-46 51,-55 61,-138 49,-209zm650 -137l-500 0c2,104 19,205 62,280 39,67 98,112 188,112 90,0 149,-45 188,-112 43,-76 59,-177 62,-280zm-500 -91l498 0c-4,-90 -21,-176 -58,-243 -39,-69 -99,-116 -190,-116 -92,0 -153,47 -191,116 -37,67 -54,153 -59,243z"/>
 </g>
</svg>
