<?xml version="1.0" encoding="UTF-8"?>
<!DOCTYPE svg PUBLIC "-//W3C//DTD SVG 1.1//EN" "http://www.w3.org/Graphics/SVG/1.1/DTD/svg11.dtd">
<!-- Creator: CorelDRAW X8 -->
<svg xmlns="http://www.w3.org/2000/svg" xml:space="preserve" width="1061px" height="600px" version="1.1" style="shape-rendering:geometricPrecision; text-rendering:geometricPrecision; image-rendering:optimizeQuality; fill-rule:evenodd; clip-rule:evenodd"
viewBox="0 0 1061 600"
 xmlns:xlink="http://www.w3.org/1999/xlink">
 <defs>
  <style type="text/css">
   <![CDATA[
    .fil0 {fill:#E31E24;fill-rule:nonzero}
   ]]>
  </style>
 </defs>
 <g id="Layer_x0020_1">
  <metadata id="CorelCorpID_0Corel-Layer"/>
  <path class="fil0" d="M531 0c89,0 172,25 219,107 27,46 37,101 40,154l31 0c68,0 149,15 198,66 26,27 42,63 42,109 0,42 -16,76 -41,102 -40,41 -103,62 -161,62 -28,0 -55,-4 -81,-11 -12,-4 -32,-14 -28,-30 5,-15 27,-21 40,-23 33,-6 45,5 68,5 24,-1 45,-17 60,-39 13,-20 21,-44 21,-65 0,-23 -6,-45 -17,-64 -22,-35 -60,-53 -101,-53l-31 0c-2,59 -11,124 -42,175 -47,81 -129,105 -217,105 -65,0 -131,-13 -180,-57 -36,43 -92,57 -146,57 -56,0 -116,-16 -158,-55 -30,-29 -47,-69 -47,-111 0,-42 18,-83 48,-112 49,-47 120,-61 186,-61l37 0c3,-52 13,-108 40,-154 47,-82 129,-107 220,-107zm-137 261l273 0c-3,-46 -11,-97 -35,-138 -22,-38 -56,-64 -101,-64 -46,0 -81,26 -103,65 -23,40 -32,91 -34,137zm274 59l-275 0c2,53 10,113 38,159 21,37 55,62 100,62 44,0 78,-25 100,-62 27,-46 35,-106 37,-159zm-390 76c-4,-25 -6,-51 -7,-76l-37 0c-33,0 -61,13 -81,34 -18,20 -30,48 -31,79 0,20 6,45 18,65 14,25 36,44 64,43 31,0 61,-28 73,-76 5,-23 5,-47 1,-69z"/>
 </g>
</svg>
