<?xml version="1.0" encoding="UTF-8"?>
<!DOCTYPE svg PUBLIC "-//W3C//DTD SVG 1.1//EN" "http://www.w3.org/Graphics/SVG/1.1/DTD/svg11.dtd">
<!-- Creator: CorelDRAW X8 -->
<svg xmlns="http://www.w3.org/2000/svg" xml:space="preserve" width="2218px" height="1485px" version="1.1" style="shape-rendering:geometricPrecision; text-rendering:geometricPrecision; image-rendering:optimizeQuality; fill-rule:evenodd; clip-rule:evenodd"
viewBox="0 0 2218 1486"
 xmlns:xlink="http://www.w3.org/1999/xlink">
 <defs>
  <style type="text/css">
   <![CDATA[
    .fil0 {fill:#57A7B3;fill-rule:nonzero}
   ]]>
  </style>
 </defs>
 <g id="Layer_x0020_1">
  <metadata id="CorelCorpID_0Corel-Layer"/>
  <path class="fil0" d="M864 0c148,0 247,50 311,128 20,25 36,53 49,82 24,-38 54,-71 87,-99 84,-71 196,-110 332,-111 181,-1 343,61 449,193 89,110 126,253 126,392 0,173 -58,357 -170,502 -135,174 -343,281 -552,339 -85,23 -172,38 -260,47 -88,9 -177,12 -266,12 -134,1 -297,2 -419,-54 -49,-22 -104,-63 -103,-122 0,-56 50,-98 95,-123 70,-39 177,-68 319,-71 196,-4 322,31 384,92 27,27 40,56 39,86 0,35 -21,64 -46,87 62,-8 125,-19 185,-36 180,-49 359,-143 475,-293 103,-134 157,-304 157,-466 0,-112 -27,-230 -90,-325 -72,-107 -182,-170 -322,-169 -86,1 -174,34 -243,99 -64,60 -110,147 -125,260l83 0c88,0 206,19 289,101 51,52 79,121 79,192 1,68 -24,137 -78,190 -61,60 -151,92 -243,91 -109,0 -193,-42 -241,-118 -63,73 -159,118 -301,118 -142,0 -239,-45 -302,-118 -48,76 -132,118 -241,118 -91,1 -181,-31 -243,-91 -53,-53 -79,-122 -78,-190 1,-71 28,-140 80,-192 83,-82 200,-101 289,-101l83 0c5,-98 23,-193 66,-269 60,-109 167,-181 346,-181zm-2 1398c52,0 271,-10 269,-97 -2,-86 -206,-97 -269,-95 -62,3 -251,23 -252,103 0,81 204,89 252,89zm414 -857c-1,48 -5,97 -13,143 -13,68 1,151 49,203 24,26 59,46 95,46 33,1 70,-15 100,-45 41,-40 59,-94 58,-147 -2,-55 -22,-108 -59,-145 -50,-49 -111,-55 -148,-55l-82 0zm-811 141c-8,-46 -12,-93 -14,-141l-82 0c-36,0 -98,6 -147,55 -37,37 -58,90 -59,145 -2,53 16,107 57,147 30,30 67,46 100,45 36,0 71,-20 95,-46 49,-52 62,-136 50,-205zm649 -141l-500 0c3,104 19,205 62,280 39,68 98,112 188,112 90,0 149,-45 188,-112 43,-76 59,-177 62,-280zm-499 -91l498 0c-5,-90 -22,-176 -59,-243 -39,-69 -99,-116 -190,-116 -92,0 -152,47 -191,116 -37,67 -54,153 -58,243z"/>
 </g>
</svg>
