<?xml version="1.0" encoding="UTF-8"?>
<!DOCTYPE svg PUBLIC "-//W3C//DTD SVG 1.1//EN" "http://www.w3.org/Graphics/SVG/1.1/DTD/svg11.dtd">
<!-- Creator: CorelDRAW X8 -->
<svg xmlns="http://www.w3.org/2000/svg" xml:space="preserve" width="2224px" height="1486px" version="1.1" style="shape-rendering:geometricPrecision; text-rendering:geometricPrecision; image-rendering:optimizeQuality; fill-rule:evenodd; clip-rule:evenodd"
viewBox="0 0 2224 1486"
 xmlns:xlink="http://www.w3.org/1999/xlink">
 <defs>
  <style type="text/css">
   <![CDATA[
    .fil0 {fill:#57A7B3;fill-rule:nonzero}
   ]]>
  </style>
 </defs>
 <g id="Layer_x0020_1">
  <metadata id="CorelCorpID_0Corel-Layer"/>
  <path class="fil0" d="M863 0c163,0 265,59 328,151 14,21 27,44 37,68 18,-28 39,-52 62,-74 100,-96 237,-137 378,-144 114,-6 259,10 363,73 95,59 163,144 161,269 -1,79 -45,143 -110,183 100,52 143,157 142,266 -1,88 -28,179 -80,243 -95,116 -234,145 -376,145l-1472 -1c-89,0 -133,27 -131,86 1,62 45,82 131,82l1818 0c45,0 82,31 82,70 0,38 -37,69 -82,69l-1818 0c-137,0 -300,-35 -296,-204 3,-123 95,-194 296,-193l1472 0c113,0 193,-35 256,-135 28,-44 42,-103 42,-162 -1,-70 -22,-140 -68,-182 -22,-20 -53,-31 -88,-33 -17,-1 -34,1 -51,0 -35,-2 -65,-18 -70,-38 -7,-25 24,-48 68,-52 17,-2 36,-1 51,-3 32,-6 58,-19 77,-38 29,-27 44,-64 45,-103 1,-72 -25,-120 -67,-163 -69,-71 -189,-92 -292,-89 -96,2 -198,33 -276,109 -57,56 -101,137 -120,250l83 0c89,0 206,19 289,102 51,51 79,120 80,191 0,68 -25,137 -79,190 -61,60 -151,92 -242,91 -109,0 -193,-43 -241,-118 -64,73 -160,118 -302,118 -142,0 -238,-45 -301,-118 -48,75 -132,118 -241,118 -92,1 -181,-31 -243,-91 -53,-53 -79,-122 -78,-190 1,-71 28,-140 80,-191 83,-83 200,-102 289,-102l83 0c5,-98 23,-193 65,-269 60,-108 167,-181 346,-181zm413 541c-2,48 -6,97 -14,143 -12,68 2,151 50,203 24,26 58,46 95,46 33,1 69,-15 100,-45 40,-40 58,-94 57,-147 -1,-55 -22,-108 -59,-145 -49,-49 -111,-55 -147,-55l-82 0zm-811 141c-9,-45 -13,-93 -14,-141l-82 0c-37,0 -98,6 -147,55 -37,37 -58,90 -59,145 -2,53 16,107 57,147 30,30 67,46 100,45 36,0 71,-20 95,-46 49,-52 62,-136 50,-205zm648 -141l-500 0c3,104 20,205 63,280 39,67 98,112 187,112 91,0 150,-45 188,-112 43,-76 60,-177 62,-280zm-499 -91l498 0c-4,-90 -21,-176 -59,-243 -38,-69 -98,-115 -190,-115 -92,0 -152,46 -190,116 -37,66 -54,152 -59,242z"/>
 </g>
</svg>
