<?xml version="1.0" encoding="UTF-8"?>
<!DOCTYPE svg PUBLIC "-//W3C//DTD SVG 1.1//EN" "http://www.w3.org/Graphics/SVG/1.1/DTD/svg11.dtd">
<!-- Creator: CorelDRAW X8 -->
<svg xmlns="http://www.w3.org/2000/svg" xml:space="preserve" width="2224px" height="1486px" version="1.1" style="shape-rendering:geometricPrecision; text-rendering:geometricPrecision; image-rendering:optimizeQuality; fill-rule:evenodd; clip-rule:evenodd"
viewBox="0 0 2224 1486"
 xmlns:xlink="http://www.w3.org/1999/xlink">
 <defs>
  <style type="text/css">
   <![CDATA[
    .fil0 {fill:#57A7B3;fill-rule:nonzero}
   ]]>
  </style>
 </defs>
 <g id="Layer_x0020_1">
  <metadata id="CorelCorpID_0Corel-Layer"/>
  <path class="fil0" d="M863 0c163,0 265,59 328,151 14,21 27,44 37,67 18,-27 39,-52 62,-73 100,-96 237,-137 378,-144 114,-6 259,17 363,81 95,58 163,135 161,261 -1,79 -45,142 -110,182 100,52 143,158 142,267 -1,88 -28,179 -80,242 -81,99 -215,146 -339,146l-1509 -1c-89,0 -133,26 -131,86 1,62 45,82 131,82l1791 0c45,0 82,31 82,69 0,39 -37,70 -82,70l-1791 0c-137,0 -300,-35 -296,-205 3,-122 95,-193 296,-193l1509 1c89,0 173,-62 219,-135 28,-44 42,-103 42,-162 -1,-70 -22,-140 -68,-182 -22,-20 -53,-31 -88,-34 -17,-1 -34,2 -51,1 -35,-3 -65,-18 -70,-39 -7,-25 24,-48 68,-51 17,-2 36,-1 51,-4 32,-5 58,-18 77,-37 29,-27 44,-64 45,-104 1,-71 -25,-112 -67,-155 -69,-70 -189,-99 -292,-97 -96,3 -198,33 -276,110 -57,56 -101,137 -120,249l83 0c89,0 206,19 289,102 51,52 79,121 80,191 0,69 -25,138 -79,190 -61,61 -151,92 -242,92 -109,0 -193,-43 -241,-118 -64,73 -160,118 -302,118 -142,0 -238,-45 -301,-118 -48,75 -132,118 -241,118 -92,0 -181,-31 -243,-92 -53,-52 -79,-121 -78,-190 1,-70 28,-139 80,-191 83,-83 200,-102 289,-102l83 0c5,-98 23,-193 65,-268 60,-109 167,-181 346,-181zm413 541c-2,48 -6,96 -14,142 -12,68 2,152 50,204 24,26 58,46 95,46 33,0 69,-16 100,-45 40,-40 58,-94 57,-148 -1,-54 -22,-107 -59,-144 -49,-49 -111,-55 -147,-55l-82 0zm-811 141c-9,-46 -13,-93 -14,-141l-82 0c-37,0 -98,6 -147,55 -37,37 -58,90 -59,144 -2,54 16,108 57,148 30,29 67,45 100,45 36,0 71,-20 95,-46 49,-52 62,-137 50,-205zm648 -141l-500 0c3,103 20,205 63,280 39,67 98,112 187,112 91,0 150,-45 188,-112 43,-76 60,-177 62,-280zm-499 -92l498 0c-4,-89 -21,-175 -59,-242 -38,-70 -98,-116 -190,-116 -92,0 -152,47 -190,116 -37,67 -54,153 -59,242z"/>
 </g>
</svg>
