<?xml version="1.0" encoding="UTF-8"?>
<!DOCTYPE svg PUBLIC "-//W3C//DTD SVG 1.1//EN" "http://www.w3.org/Graphics/SVG/1.1/DTD/svg11.dtd">
<!-- Creator: CorelDRAW X8 -->
<svg xmlns="http://www.w3.org/2000/svg" xml:space="preserve" width="2572px" height="1486px" version="1.1" style="shape-rendering:geometricPrecision; text-rendering:geometricPrecision; image-rendering:optimizeQuality; fill-rule:evenodd; clip-rule:evenodd"
viewBox="0 0 2541 1469"
 xmlns:xlink="http://www.w3.org/1999/xlink">
 <defs>
  <style type="text/css">
   <![CDATA[
    .fil0 {fill:red;fill-rule:nonzero}
   ]]>
  </style>
 </defs>
 <g id="Layer_x0020_1">
  <metadata id="CorelCorpID_0Corel-Layer"/>
  <path class="fil0" d="M2282 248c-80,-107 -194,-159 -325,-158 -86,0 -176,40 -246,115 -55,59 -94,138 -107,239l81 0c87,0 203,19 285,101 51,50 78,119 79,188 0,68 -24,136 -78,188 -60,60 -149,91 -239,91 -108,-1 -191,-43 -238,-117 -63,72 -158,117 -298,117 -141,0 -236,-45 -299,-117 -47,74 -130,116 -238,117 -90,0 -179,-31 -239,-91 -54,-52 -78,-120 -78,-188 1,-69 28,-138 79,-188 82,-82 198,-101 285,-101l83 0c5,-97 23,-190 65,-265 59,-107 165,-179 342,-179 158,0 288,58 356,207 83,-127 224,-206 405,-207 183,-1 360,61 473,213 77,103 111,231 111,358 2,283 -141,519 -376,673 -247,162 -576,225 -869,225 -286,0 -604,-48 -856,-188 -278,-155 -439,-407 -440,-725 -1,-211 83,-419 264,-539 29,-19 80,-22 114,-5 33,16 38,44 9,63 -158,105 -227,299 -226,481 0,286 141,521 393,661 216,121 492,162 742,162 251,0 534,-54 747,-193 213,-140 339,-360 338,-615 -1,-115 -30,-230 -99,-323zm-679 286c-1,48 -5,96 -13,141 -12,67 1,150 49,201 23,26 58,46 93,46 33,0 69,-16 100,-45 40,-39 57,-93 56,-146 -1,-53 -22,-106 -58,-142 -49,-49 -110,-55 -146,-55l-81 0zm-802 140c-8,-45 -12,-92 -13,-140l-81 0c-36,0 -97,6 -146,55 -36,36 -57,89 -58,142 -1,53 16,107 56,146 31,29 67,45 100,45 35,0 70,-20 93,-46 48,-52 61,-135 49,-202zm642 -140l-495 0c3,103 20,203 62,277 38,66 97,110 186,110 89,0 147,-44 185,-110 43,-75 59,-175 62,-277zm-494 -90l493 0c-5,-89 -22,-173 -59,-240 -38,-68 -97,-114 -187,-114 -91,0 -151,46 -189,115 -37,66 -53,151 -58,239z"/>
 </g>
</svg>
