<?xml version="1.0" encoding="UTF-8"?>
<!DOCTYPE svg PUBLIC "-//W3C//DTD SVG 1.1//EN" "http://www.w3.org/Graphics/SVG/1.1/DTD/svg11.dtd">
<!-- Creator: CorelDRAW X8 -->
<svg xmlns="http://www.w3.org/2000/svg" xml:space="preserve" width="2218px" height="1487px" version="1.1" style="shape-rendering:geometricPrecision; text-rendering:geometricPrecision; image-rendering:optimizeQuality; fill-rule:evenodd; clip-rule:evenodd"
viewBox="0 0 2218 1487"
 xmlns:xlink="http://www.w3.org/1999/xlink">
 <defs>
  <style type="text/css">
   <![CDATA[
    .fil0 {fill:#57A7B3;fill-rule:nonzero}
   ]]>
  </style>
 </defs>
 <g id="Layer_x0020_1">
  <metadata id="CorelCorpID_0Corel-Layer"/>
  <path class="fil0" d="M627 1457c-121,-35 -181,-97 -181,-158 0,-61 60,-122 181,-157 63,-18 141,-29 237,-29 92,0 171,10 233,27 124,35 187,96 187,159 0,27 -12,54 -36,80 59,-9 119,-19 176,-35 180,-49 359,-143 475,-293 103,-134 157,-304 157,-466 0,-112 -27,-230 -90,-325 -72,-107 -182,-170 -322,-169 -86,1 -174,34 -243,99 -64,60 -110,147 -125,260l83 0c88,0 206,19 289,101 51,52 79,121 79,192 1,68 -24,137 -78,190 -61,60 -151,92 -243,91 -109,0 -193,-42 -241,-118 -63,73 -159,118 -301,118 -142,0 -239,-45 -302,-118 -48,76 -132,118 -241,118 -91,1 -181,-31 -243,-91 -53,-53 -79,-122 -78,-190 1,-71 28,-140 80,-192 83,-82 200,-101 289,-101l83 0c5,-98 23,-193 66,-269 60,-109 167,-181 346,-181 148,0 247,50 311,128 20,25 36,53 49,82 24,-38 54,-71 87,-99 84,-71 196,-110 332,-111 181,-1 343,61 449,193 89,110 126,253 126,392 0,173 -58,357 -170,502 -135,174 -343,281 -552,339 -85,23 -172,38 -260,47 -122,12 -249,16 -372,13 -83,-1 -164,-9 -237,-29zm237 -62c68,0 124,-7 165,-20 63,-18 95,-47 94,-76 0,-30 -32,-59 -97,-77 -41,-11 -96,-18 -162,-18 -78,0 -137,9 -179,24 -52,19 -78,45 -78,71 -1,27 27,55 84,74 53,17 116,22 173,22zm412 -854c-1,48 -5,97 -13,143 -13,68 1,151 49,203 24,26 59,46 95,46 33,1 70,-15 100,-45 41,-40 59,-94 58,-147 -2,-55 -22,-108 -59,-145 -50,-49 -111,-55 -148,-55l-82 0zm-811 141c-8,-46 -12,-93 -14,-141l-82 0c-36,0 -98,6 -147,55 -37,37 -58,90 -59,145 -2,53 16,107 57,147 30,30 67,46 100,45 36,0 71,-20 95,-46 49,-52 62,-136 50,-205zm649 -141l-500 0c3,104 19,205 62,280 39,68 98,112 188,112 90,0 149,-45 188,-112 43,-76 59,-177 62,-280zm-499 -91l498 0c-5,-90 -22,-176 -59,-243 -39,-69 -99,-116 -190,-116 -92,0 -152,47 -191,116 -37,67 -54,153 -58,243z"/>
 </g>
</svg>
