<?xml version="1.0" encoding="UTF-8"?>
<!DOCTYPE svg PUBLIC "-//W3C//DTD SVG 1.1//EN" "http://www.w3.org/Graphics/SVG/1.1/DTD/svg11.dtd">
<!-- Creator: CorelDRAW X8 -->
<svg xmlns="http://www.w3.org/2000/svg" xml:space="preserve" width="1361px" height="600px" version="1.1" style="shape-rendering:geometricPrecision; text-rendering:geometricPrecision; image-rendering:optimizeQuality; fill-rule:evenodd; clip-rule:evenodd"
viewBox="0 0 1361 600"
 xmlns:xlink="http://www.w3.org/1999/xlink">
 <defs>
  <style type="text/css">
   <![CDATA[
    .fil0 {fill:#666633;fill-rule:nonzero}
   ]]>
  </style>
 </defs>
 <g id="Layer_x0020_1">
  <metadata id="CorelCorpID_0Corel-Layer"/>
  <path class="fil0" d="M1041 0c66,0 144,11 202,45 59,35 99,85 98,157 -1,46 -27,82 -65,106 54,28 85,76 85,126 0,35 -9,70 -35,102 -39,46 -101,65 -161,63 -20,0 -40,-3 -59,-8 -18,-4 -60,-21 -32,-45 14,-12 31,-16 49,-14 20,2 24,9 42,9 24,0 47,-17 60,-39 13,-22 14,-49 13,-69 -1,-20 -9,-40 -19,-56 -14,-20 -35,-35 -63,-37 -19,-1 -35,3 -53,-3 -11,-3 -29,-11 -30,-24 -1,-14 17,-23 30,-27 18,-5 32,-2 48,-5 39,-7 67,-40 68,-79 0,-48 -21,-84 -56,-108 -34,-24 -80,-35 -122,-35 -71,0 -132,20 -177,59 -38,34 -64,81 -73,143l37 0c63,0 136,13 185,61 32,30 48,71 48,111 1,40 -15,81 -47,112 -41,39 -100,55 -158,55 -57,0 -111,-16 -146,-57 -46,42 -110,57 -179,57 -70,0 -133,-15 -180,-57 -35,41 -88,57 -146,57 -57,0 -116,-16 -157,-55 -33,-31 -48,-72 -48,-112 0,-40 17,-81 48,-111 50,-48 122,-61 186,-61l37 0c4,-65 18,-120 45,-162 40,-63 108,-99 215,-99 93,0 172,32 221,116 28,-32 60,-61 94,-78 58,-28 125,-38 195,-38zm-647 261l274 0c-3,-35 -9,-77 -24,-113 -21,-50 -56,-91 -116,-89 -57,2 -91,40 -110,88 -15,37 -22,79 -24,114zm274 59l-275 0c2,37 6,78 18,114 5,16 11,31 20,45 22,37 56,62 100,62 44,0 78,-25 100,-62 8,-14 15,-29 20,-44 11,-37 16,-77 17,-115zm-389 79c-5,-26 -7,-53 -8,-79l-37 0c-44,0 -83,23 -102,67 -6,15 -9,31 -10,47 0,26 6,48 15,65 16,28 40,42 65,42 47,0 94,-49 77,-142zm512 -79c-1,27 -4,54 -8,80 -15,79 31,141 78,141 28,0 50,-21 63,-47 10,-19 15,-41 15,-59 0,-30 -10,-56 -27,-76 -19,-24 -49,-39 -84,-39l-37 0z"/>
 </g>
</svg>
