<?xml version="1.0" encoding="UTF-8"?>
<!DOCTYPE svg PUBLIC "-//W3C//DTD SVG 1.1//EN" "http://www.w3.org/Graphics/SVG/1.1/DTD/svg11.dtd">
<!-- Creator: CorelDRAW X8 -->
<svg xmlns="http://www.w3.org/2000/svg" xml:space="preserve" width="2541px" height="1487px" version="1.1" style="shape-rendering:geometricPrecision; text-rendering:geometricPrecision; image-rendering:optimizeQuality; fill-rule:evenodd; clip-rule:evenodd"
viewBox="0 0 2541 1487"
 xmlns:xlink="http://www.w3.org/1999/xlink">
 <defs>
  <style type="text/css">
   <![CDATA[
    .fil0 {fill:#E31E24;fill-rule:nonzero}
   ]]>
  </style>
 </defs>
 <g id="Layer_x0020_1">
  <metadata id="CorelCorpID_0Corel-Layer"/>
  <path class="fil0" d="M310 16c29,-19 80,-21 114,-5 35,16 39,45 10,64 -109,72 -184,173 -227,287 -33,89 -47,189 -44,285 10,264 144,456 374,587 193,109 443,161 696,162 270,1 576,-57 804,-206 214,-139 343,-353 342,-611 -1,-122 -34,-238 -101,-328 -80,-108 -195,-159 -328,-158 -87,0 -178,39 -249,115 -56,59 -96,140 -109,242l82 0c88,0 206,19 289,102 51,51 79,121 79,191 1,68 -24,137 -78,190 -61,60 -151,92 -242,92 -110,-1 -194,-43 -241,-119 -64,73 -160,119 -302,119 -142,0 -238,-46 -302,-119 -48,76 -131,118 -241,119 -91,0 -181,-32 -242,-92 -54,-53 -79,-122 -79,-190 1,-70 29,-140 80,-191 83,-83 200,-102 289,-102l83 0c5,-98 24,-193 66,-269 60,-108 167,-181 346,-181 161,0 292,59 360,210 85,-129 227,-207 411,-208 185,-1 364,60 479,214 74,101 111,229 112,363 1,285 -144,516 -380,670 -263,172 -617,239 -928,238 -296,-1 -586,-62 -812,-190 -252,-143 -408,-358 -420,-650 -5,-104 11,-207 47,-303 49,-129 135,-244 262,-328zm1281 525c-1,49 -5,97 -13,143 -12,68 1,152 49,203 24,26 59,46 95,47 33,0 70,-16 101,-46 40,-40 58,-94 57,-147 -1,-54 -22,-108 -59,-145 -50,-49 -111,-55 -147,-55l-83 0zm-811 141c-8,-45 -12,-93 -14,-141l-82 0c-36,0 -98,6 -147,55 -37,37 -58,91 -59,145 -1,53 17,107 57,147 31,30 67,46 101,46 36,-1 70,-21 94,-47 49,-52 62,-136 50,-205zm649 -141l-500 0c3,104 19,205 63,281 38,67 97,111 187,111 90,0 150,-45 188,-112 43,-76 59,-176 62,-280zm-499 -91l498 0c-5,-90 -22,-176 -59,-243 -39,-69 -98,-115 -190,-115 -92,0 -152,46 -191,116 -37,67 -54,152 -58,242z"/>
 </g>
</svg>
