<?xml version="1.0" encoding="UTF-8"?>
<!DOCTYPE svg PUBLIC "-//W3C//DTD SVG 1.1//EN" "http://www.w3.org/Graphics/SVG/1.1/DTD/svg11.dtd">
<!-- Creator: CorelDRAW X8 -->
<svg xmlns="http://www.w3.org/2000/svg" xml:space="preserve" width="2218px" height="1486px" version="1.1" style="shape-rendering:geometricPrecision; text-rendering:geometricPrecision; image-rendering:optimizeQuality; fill-rule:evenodd; clip-rule:evenodd"
viewBox="0 0 2218 1486"
 xmlns:xlink="http://www.w3.org/1999/xlink">
 <defs>
  <style type="text/css">
   <![CDATA[
    .fil0 {fill:black;fill-rule:nonzero}
   ]]>
  </style>
 </defs>
 <g id="Layer_x0020_1">
  <metadata id="CorelCorpID_0Corel-Layer"/>
  <path class="fil0" d="M627 1456c-121,-35 -181,-97 -181,-158 0,-61 60,-122 181,-157 63,-18 141,-29 237,-29 92,0 171,11 233,28 124,34 187,96 187,158 0,27 -12,55 -36,80 59,-8 119,-19 176,-34 180,-50 359,-144 475,-294 103,-133 157,-304 157,-465 0,-113 -27,-230 -90,-325 -72,-107 -182,-170 -322,-169 -86,1 -174,34 -243,98 -64,61 -110,148 -125,260l83 0c88,0 206,19 289,102 51,51 79,121 79,191 1,69 -24,137 -78,190 -61,60 -151,92 -243,92 -109,-1 -193,-43 -241,-118 -63,72 -159,118 -301,118 -142,0 -239,-46 -302,-118 -48,75 -132,117 -241,118 -91,0 -181,-32 -243,-92 -53,-53 -79,-121 -78,-190 1,-70 28,-140 80,-191 83,-83 200,-102 289,-102l83 0c5,-98 23,-193 66,-268 60,-109 167,-181 346,-181 148,0 247,50 311,128 20,25 36,53 49,82 24,-38 54,-71 87,-99 84,-71 196,-110 332,-111 181,-1 343,61 449,193 89,110 126,252 126,392 0,173 -58,356 -170,501 -135,174 -343,282 -552,339 -85,24 -172,38 -260,47 -98,10 -199,14 -299,14 -103,0 -210,-2 -310,-30zm237 -62c68,0 124,-7 165,-19 63,-19 95,-48 94,-77 0,-29 -32,-58 -97,-77 -41,-11 -96,-18 -162,-18 -78,0 -137,10 -179,25 -52,18 -78,44 -78,70 -1,27 27,55 84,74 53,17 116,22 173,22zm412 -853c-1,48 -5,96 -13,142 -13,68 1,152 49,204 24,25 59,46 95,46 33,0 70,-16 100,-46 41,-39 59,-93 58,-147 -2,-54 -22,-107 -59,-144 -50,-49 -111,-55 -148,-55l-82 0zm-811 141c-8,-46 -12,-93 -14,-141l-82 0c-36,0 -98,6 -147,55 -37,37 -58,90 -59,144 -2,54 16,108 57,147 30,30 67,46 100,46 36,0 71,-21 95,-46 49,-53 62,-137 50,-205zm649 -141l-500 0c3,103 19,204 62,280 39,67 98,112 188,112 90,0 149,-45 188,-113 43,-75 59,-176 62,-279zm-499 -92l498 0c-5,-89 -22,-175 -59,-242 -39,-70 -99,-116 -190,-116 -92,0 -152,47 -191,116 -37,67 -54,153 -58,242z"/>
 </g>
</svg>
