<?xml version="1.0" encoding="UTF-8"?>
<!DOCTYPE svg PUBLIC "-//W3C//DTD SVG 1.1//EN" "http://www.w3.org/Graphics/SVG/1.1/DTD/svg11.dtd">
<!-- Creator: CorelDRAW X8 -->
<svg xmlns="http://www.w3.org/2000/svg" xml:space="preserve" width="2223px" height="1025px" version="1.1" style="shape-rendering:geometricPrecision; text-rendering:geometricPrecision; image-rendering:optimizeQuality; fill-rule:evenodd; clip-rule:evenodd"
viewBox="0 0 2223 1025"
 xmlns:xlink="http://www.w3.org/1999/xlink">
 <defs>
  <style type="text/css">
   <![CDATA[
    .fil0 {fill:#57A7B3;fill-rule:nonzero}
   ]]>
  </style>
 </defs>
 <g id="Layer_x0020_1">
  <metadata id="CorelCorpID_0Corel-Layer"/>
  <path class="fil0" d="M864 0c163,0 266,60 329,153 14,21 25,43 35,66 16,-23 33,-45 52,-64 101,-103 242,-147 389,-154 114,-6 258,10 363,73 95,59 163,144 161,270 -1,78 -45,142 -110,182 78,40 132,110 139,199 6,63 -15,132 -64,192 -36,45 -93,81 -163,97 -69,16 -146,15 -224,-13 -38,-14 -50,-42 -26,-63 24,-21 74,-28 112,-14 29,10 54,11 75,6 31,-7 58,-26 79,-51 38,-46 53,-100 49,-150 -4,-46 -25,-89 -61,-119 -23,-19 -53,-31 -88,-33 -17,-1 -34,2 -52,0 -35,-2 -64,-18 -69,-38 -7,-25 24,-48 68,-52 16,-1 36,0 51,-3 32,-6 57,-19 77,-37 29,-28 44,-65 45,-104 1,-71 -25,-120 -67,-163 -69,-71 -189,-92 -293,-89 -96,2 -198,33 -276,109 -58,56 -101,137 -119,250l83 0c88,0 206,19 289,102 51,51 79,121 79,191 1,68 -24,137 -78,190 -61,60 -151,92 -243,92 -109,-1 -193,-43 -241,-118 -63,72 -159,118 -301,118 -142,0 -239,-46 -302,-118 -48,75 -132,117 -241,118 -91,0 -181,-32 -243,-92 -53,-53 -79,-122 -78,-190 1,-70 28,-140 80,-191 83,-83 200,-102 289,-102l83 0c5,-98 23,-193 66,-269 60,-108 167,-181 346,-181zm412 541c-1,49 -5,97 -13,143 -13,68 1,152 49,203 24,26 59,47 95,47 33,0 70,-16 100,-46 41,-39 59,-94 58,-147 -1,-54 -22,-108 -59,-145 -50,-49 -111,-55 -148,-55l-82 0zm-811 141c-8,-45 -12,-93 -14,-141l-82 0c-36,0 -98,6 -147,55 -37,37 -58,91 -59,145 -2,53 16,108 57,147 30,30 67,46 100,46 36,0 71,-21 95,-47 49,-52 62,-136 50,-205zm649 -141l-500 0c3,104 19,205 62,281 39,67 98,112 188,112 90,0 149,-45 188,-113 43,-75 59,-176 62,-280zm-499 -91l498 0c-5,-90 -22,-176 -59,-243 -39,-69 -99,-115 -190,-115 -92,0 -152,46 -191,116 -37,67 -54,152 -58,242z"/>
 </g>
</svg>
