<?xml version="1.0" encoding="UTF-8"?>
<!DOCTYPE svg PUBLIC "-//W3C//DTD SVG 1.1//EN" "http://www.w3.org/Graphics/SVG/1.1/DTD/svg11.dtd">
<!-- Creator: CorelDRAW X8 -->
<svg xmlns="http://www.w3.org/2000/svg" xml:space="preserve" width="1729px" height="1486px" version="1.1" style="shape-rendering:geometricPrecision; text-rendering:geometricPrecision; image-rendering:optimizeQuality; fill-rule:evenodd; clip-rule:evenodd"
viewBox="0 0 1729 1486"
 xmlns:xlink="http://www.w3.org/1999/xlink">
 <defs>
  <style type="text/css">
   <![CDATA[
    .fil0 {fill:#57A7B3;fill-rule:nonzero}
   ]]>
  </style>
 </defs>
 <g id="Layer_x0020_1">
  <metadata id="CorelCorpID_0Corel-Layer"/>
  <path class="fil0" d="M864 0c178,0 285,72 345,180 42,76 61,171 66,270l173 0c79,0 152,19 197,66 29,29 46,69 47,121 1,62 -34,116 -88,139 78,23 124,100 125,178 1,110 -88,226 -304,226l-1129 -1c-89,0 -133,27 -131,86 1,62 45,83 131,83l1314 0c45,0 81,31 81,69 0,38 -36,69 -81,69l-1314 0c-137,0 -300,-35 -296,-204 3,-123 95,-193 296,-193l1128 0c100,0 148,-68 150,-135 2,-51 -23,-103 -73,-121 -34,-13 -63,-4 -98,-3 -45,1 -83,-20 -84,-45 0,-25 35,-46 80,-47 30,0 64,8 91,-10 28,-19 46,-58 46,-91 -1,-47 -35,-96 -88,-96l-172 0c-3,111 -21,222 -70,307 -60,106 -166,176 -342,176 -142,0 -239,-45 -302,-118 -48,75 -132,118 -241,118 -91,1 -181,-31 -243,-91 -53,-53 -79,-122 -78,-190 1,-71 28,-140 80,-192 83,-82 200,-102 289,-102l83 0c5,-98 23,-193 65,-268 61,-109 167,-181 347,-181zm-400 678c-8,-44 -12,-91 -13,-137l-82 0c-37,0 -98,6 -147,55 -37,37 -58,90 -59,145 -2,53 16,107 57,147 30,30 67,45 100,45 36,0 71,-20 95,-46 51,-55 61,-138 49,-209zm650 -137l-501 0c3,103 20,205 63,280 39,67 98,112 188,112 90,0 149,-45 188,-112 43,-76 59,-177 62,-280zm-500 -91l498 0c-4,-90 -21,-176 -58,-243 -39,-70 -99,-116 -190,-116 -92,0 -153,47 -191,116 -37,67 -54,153 -59,243z"/>
 </g>
</svg>
