<?xml version="1.0" encoding="UTF-8"?>
<!DOCTYPE svg PUBLIC "-//W3C//DTD SVG 1.1//EN" "http://www.w3.org/Graphics/SVG/1.1/DTD/svg11.dtd">
<!-- Creator: CorelDRAW X8 -->
<svg xmlns="http://www.w3.org/2000/svg" xml:space="preserve" width="1070px" height="600px" version="1.1" style="shape-rendering:geometricPrecision; text-rendering:geometricPrecision; image-rendering:optimizeQuality; fill-rule:evenodd; clip-rule:evenodd"
viewBox="0 0 1070 600"
 xmlns:xlink="http://www.w3.org/1999/xlink">
 <defs>
  <style type="text/css">
   <![CDATA[
    .fil0 {fill:#666633;fill-rule:nonzero}
   ]]>
  </style>
 </defs>
 <g id="Layer_x0020_1">
  <metadata id="CorelCorpID_0Corel-Layer"/>
  <path class="fil0" d="M790 261l88 0c46,0 97,1 137,26 23,15 39,37 39,69 1,30 -17,51 -40,64 31,12 57,36 56,73 -1,38 -24,65 -56,81 -30,17 -69,25 -108,26 -29,1 -58,-2 -83,-9 -16,-5 -58,-23 -52,-43 5,-13 27,-20 39,-22 24,-5 46,-2 63,8 8,5 17,7 25,7 12,0 23,-4 32,-11 13,-8 20,-22 20,-40 0,-16 -9,-30 -24,-36 -10,-4 -34,0 -46,0 -20,1 -36,-2 -48,-8 -22,-11 -23,-31 0,-42 13,-7 33,-10 47,-9 16,1 30,1 40,-6 9,-5 14,-15 14,-32 -1,-17 -7,-26 -17,-31 -12,-6 -27,-6 -42,-6l-84 0c0,58 -12,125 -41,175 -48,81 -130,105 -218,105 -65,0 -131,-13 -180,-57 -36,43 -92,57 -146,57 -56,1 -116,-16 -158,-55 -30,-29 -47,-69 -47,-111 0,-42 18,-83 48,-112 49,-47 120,-61 186,-61l37 0c3,-52 13,-108 40,-154 47,-82 129,-107 220,-107 89,0 172,25 219,107 27,46 37,102 40,154l0 0zm-396 0l273 0c-2,-46 -11,-97 -35,-138 -22,-38 -56,-64 -101,-64 -46,0 -80,26 -103,65 -23,40 -32,91 -34,137zm274 59l-275 0c2,53 10,113 38,159 21,37 55,62 100,62 44,0 78,-25 100,-62 27,-46 35,-106 37,-159zm-390 76c-4,-25 -6,-50 -7,-76l-37 0c-33,0 -61,13 -80,34 -19,20 -31,48 -32,79 0,20 6,45 18,66 14,24 36,43 64,42 31,0 61,-28 73,-76 5,-23 5,-47 1,-69z"/>
 </g>
</svg>
