<?xml version="1.0" encoding="UTF-8"?>
<!DOCTYPE svg PUBLIC "-//W3C//DTD SVG 1.1//EN" "http://www.w3.org/Graphics/SVG/1.1/DTD/svg11.dtd">
<!-- Creator: CorelDRAW X8 -->
<svg xmlns="http://www.w3.org/2000/svg" xml:space="preserve" width="1742px" height="2048px" version="1.1" style="shape-rendering:geometricPrecision; text-rendering:geometricPrecision; image-rendering:optimizeQuality; fill-rule:evenodd; clip-rule:evenodd"
viewBox="0 0 1742 2048"
 xmlns:xlink="http://www.w3.org/1999/xlink">
 <defs>
  <style type="text/css">
   <![CDATA[
    .fil0 {fill:#57A7B3;fill-rule:nonzero}
   ]]>
  </style>
 </defs>
 <g id="Layer_x0020_1">
  <metadata id="CorelCorpID_0Corel-Layer"/>
  <g>
   <path class="fil0" d="M863 1048c179,0 286,72 346,180 42,76 61,171 66,270l39 0c198,0 337,105 396,251 25,61 36,129 31,199 -17,260 -220,433 -453,515 -142,51 -298,71 -436,71 -117,1 -417,-31 -416,-180 1,-55 41,-96 98,-125 100,-51 257,-67 324,-68 196,-5 315,30 377,92 40,40 50,88 26,132 177,-88 308,-235 318,-439 3,-62 -6,-123 -27,-177 -43,-104 -127,-180 -238,-180l-38 0c-3,112 -21,222 -70,307 -60,106 -166,176 -343,176 -142,0 -238,-45 -301,-118 -48,75 -132,118 -241,118 -92,1 -181,-31 -243,-91 -54,-53 -79,-122 -78,-190 0,-71 28,-140 79,-192 83,-82 201,-101 289,-101l84 0c5,-98 23,-193 65,-269 60,-109 167,-181 346,-181zm-11 1395c51,0 270,-10 268,-96 -3,-87 -208,-97 -262,-95 -54,1 -258,19 -259,103 -1,80 204,88 253,88zm-388 -717c-8,-44 -12,-91 -13,-137l-82 0c-37,0 -98,6 -148,55 -36,37 -57,90 -59,145 -1,53 17,107 58,147 30,30 67,46 100,45 36,0 71,-20 95,-46 51,-55 61,-138 49,-209zm649 -137c-140,0 -334,0 -500,0 3,104 20,205 63,280 39,67 98,112 187,112 91,0 150,-45 188,-112 43,-76 60,-177 62,-280l0 0zm-499 -91l498 0c-4,-90 -21,-176 -58,-243 -39,-69 -99,-116 -191,-116 -92,0 -152,47 -190,116 -37,67 -54,153 -59,243z"/>
  </g>
 </g>
</svg>
