<?xml version="1.0" encoding="UTF-8"?>
<!DOCTYPE svg PUBLIC "-//W3C//DTD SVG 1.1//EN" "http://www.w3.org/Graphics/SVG/1.1/DTD/svg11.dtd">
<!-- Creator: CorelDRAW X8 -->
<svg xmlns="http://www.w3.org/2000/svg" xml:space="preserve" width="1520px" height="2048px" version="1.1" style="shape-rendering:geometricPrecision; text-rendering:geometricPrecision; image-rendering:optimizeQuality; fill-rule:evenodd; clip-rule:evenodd"
viewBox="0 0 1520 2048"
 xmlns:xlink="http://www.w3.org/1999/xlink">
 <defs>
  <style type="text/css">
   <![CDATA[
    .fil0 {fill:#2B2A29;fill-rule:nonzero}
   ]]>
  </style>
 </defs>
 <g id="Layer_x0020_1">
  <metadata id="CorelCorpID_0Corel-Layer"/>
  <path class="fil0" d="M799 1970c84,-46 143,-136 171,-241 15,-53 21,-110 19,-167 -5,-132 -56,-264 -160,-346 -59,-47 -131,-75 -204,-85 -140,-19 -279,33 -367,146 -53,68 -85,153 -98,244 52,-59 123,-91 203,-94 97,-4 189,34 249,97 53,57 81,135 78,224 -2,89 -36,177 -105,235 -60,49 -138,77 -225,77 -249,0 -355,-211 -360,-433 -3,-141 31,-287 108,-385 129,-167 352,-227 555,-200 110,15 215,56 299,122 122,96 184,245 190,398 2,61 -5,123 -21,181 -22,81 -62,156 -118,215l344 0 0 -876c0,-25 37,-46 82,-46 45,0 81,21 81,46l0 921c0,37 -61,46 -89,46l-577 0c-44,0 -81,-21 -81,-46 0,-15 13,-26 26,-33zm-613 -224c0,148 92,223 182,223 85,0 167,-74 167,-223 0,-148 -87,-223 -174,-222 -87,0 -175,74 -175,222z"/>
 </g>
</svg>
