<?xml version="1.0" encoding="UTF-8"?>
<!DOCTYPE svg PUBLIC "-//W3C//DTD SVG 1.1//EN" "http://www.w3.org/Graphics/SVG/1.1/DTD/svg11.dtd">
<!-- Creator: CorelDRAW X8 -->
<svg xmlns="http://www.w3.org/2000/svg" xml:space="preserve" width="1520px" height="1013px" version="1.1" style="shape-rendering:geometricPrecision; text-rendering:geometricPrecision; image-rendering:optimizeQuality; fill-rule:evenodd; clip-rule:evenodd"
viewBox="0 0 1520 1013"
 xmlns:xlink="http://www.w3.org/1999/xlink">
 <defs>
  <style type="text/css">
   <![CDATA[
    .fil0 {fill:#57A7B3;fill-rule:nonzero}
   ]]>
  </style>
 </defs>
 <g id="Layer_x0020_1">
  <metadata id="CorelCorpID_0Corel-Layer"/>
  <path class="fil0" d="M799 923c138,-76 196,-259 190,-409 -9,-242 -179,-420 -425,-422 -219,-2 -373,166 -404,382 52,-59 122,-92 201,-94 98,-4 191,33 251,97 53,57 81,133 78,222 -2,89 -36,179 -105,236 -59,49 -140,77 -224,78 -265,3 -365,-232 -361,-464 6,-337 240,-550 564,-549 314,1 575,179 588,514 5,143 -39,292 -139,396l344 0 0 -863c0,-26 37,-46 82,-46 45,0 81,20 81,46l0 909c0,36 -61,45 -89,45l-577 0c-44,0 -81,-20 -81,-45 0,-16 13,-27 26,-33zm-613 -224c0,147 85,222 175,223 84,0 174,-74 174,-223 0,-149 -87,-223 -174,-223 -87,0 -175,75 -175,223z"/>
 </g>
</svg>
