<?xml version="1.0" encoding="UTF-8"?>
<!DOCTYPE svg PUBLIC "-//W3C//DTD SVG 1.1//EN" "http://www.w3.org/Graphics/SVG/1.1/DTD/svg11.dtd">
<!-- Creator: CorelDRAW X8 -->
<svg xmlns="http://www.w3.org/2000/svg" xml:space="preserve" width="1520px" height="1487px" version="1.1" style="shape-rendering:geometricPrecision; text-rendering:geometricPrecision; image-rendering:optimizeQuality; fill-rule:evenodd; clip-rule:evenodd"
viewBox="0 0 1520 1487"
 xmlns:xlink="http://www.w3.org/1999/xlink">
 <defs>
  <style type="text/css">
   <![CDATA[
    .fil0 {fill:#57A7B3}
   ]]>
  </style>
 </defs>
 <g id="Layer_x0020_1">
  <metadata id="CorelCorpID_0Corel-Layer"/>
  <path class="fil0" d="M751 1115c82,0 151,7 209,21 140,33 210,98 210,164 0,14 -3,27 -9,41 162,-48 196,-190 196,-340l-503 0c-44,0 -81,-20 -81,-45 0,-16 13,-27 26,-33 138,-76 196,-259 190,-409 -9,-242 -179,-420 -425,-422 -219,-2 -373,166 -404,382 52,-59 122,-92 201,-94 98,-4 191,33 251,97 53,57 81,133 78,222 -2,89 -36,179 -105,236 -59,49 -140,77 -224,78 -265,3 -365,-232 -361,-464 6,-337 240,-550 564,-549 314,1 575,179 588,514 5,143 -39,292 -139,396l344 0 0 -863c0,-26 37,-46 82,-46 45,0 81,20 81,46l0 954c0,69 -21,210 -104,301 -62,68 -151,112 -247,140 -141,41 -273,45 -418,45 -91,0 -167,-10 -229,-27 -127,-34 -190,-97 -190,-160 1,-64 67,-128 199,-161 60,-16 133,-24 220,-24zm-565 -416c0,147 85,222 175,223 84,0 174,-74 174,-223 0,-149 -87,-223 -174,-223 -87,0 -175,75 -175,223zm565 506c69,0 124,8 166,20 61,18 92,46 92,75 1,42 -61,67 -94,77 -41,12 -96,19 -164,19 -83,0 -146,-11 -189,-28 -47,-18 -69,-43 -69,-68 1,-34 42,-56 69,-67 43,-17 106,-28 189,-28z"/>
 </g>
</svg>
