<?xml version="1.0" encoding="UTF-8"?>
<!DOCTYPE svg PUBLIC "-//W3C//DTD SVG 1.1//EN" "http://www.w3.org/Graphics/SVG/1.1/DTD/svg11.dtd">
<!-- Creator: CorelDRAW X8 -->
<svg xmlns="http://www.w3.org/2000/svg" xml:space="preserve" width="1483px" height="2048px" version="1.1" style="shape-rendering:geometricPrecision; text-rendering:geometricPrecision; image-rendering:optimizeQuality; fill-rule:evenodd; clip-rule:evenodd"
viewBox="0 0 1483 2048"
 xmlns:xlink="http://www.w3.org/1999/xlink">
 <defs>
  <style type="text/css">
   <![CDATA[
    .fil0 {fill:#1F1B20;fill-rule:nonzero}
   ]]>
  </style>
 </defs>
 <g id="Layer_x0020_1">
  <metadata id="CorelCorpID_0Corel-Layer"/>
  <path class="fil0" d="M1142 2051c-37,15 -87,10 -113,-10 -27,-20 -18,-49 18,-63 74,-30 135,-81 180,-144 52,-70 82,-155 91,-243 12,-118 -17,-239 -84,-337 -46,-66 -115,-126 -199,-127 -94,0 -147,55 -177,130 -37,92 -40,210 -38,313 2,100 -4,223 -47,314 -49,105 -146,178 -330,176 -144,-1 -264,-64 -346,-183 -72,-103 -104,-239 -96,-363 6,-101 35,-199 85,-281 50,-80 121,-146 212,-187 35,-16 86,-12 114,7 29,20 23,48 -12,64 -66,30 -120,81 -160,146 -45,74 -71,162 -77,254 -7,110 22,236 85,327 46,66 114,124 198,125 89,1 140,-44 170,-108 39,-83 43,-200 42,-290 -2,-108 1,-233 41,-334 60,-148 186,-203 340,-201 145,2 264,67 346,185 76,110 109,243 95,375 -9,98 -44,193 -102,272 -56,78 -135,143 -236,183z"/>
 </g>
</svg>
