<?xml version="1.0" encoding="UTF-8"?>
<!DOCTYPE svg PUBLIC "-//W3C//DTD SVG 1.1//EN" "http://www.w3.org/Graphics/SVG/1.1/DTD/svg11.dtd">
<!-- Creator: CorelDRAW X8 -->
<svg xmlns="http://www.w3.org/2000/svg" xml:space="preserve" width="1519px" height="1487px" version="1.1" style="shape-rendering:geometricPrecision; text-rendering:geometricPrecision; image-rendering:optimizeQuality; fill-rule:evenodd; clip-rule:evenodd"
viewBox="0 0 1519 1487"
 xmlns:xlink="http://www.w3.org/1999/xlink">
 <defs>
  <style type="text/css">
   <![CDATA[
    .fil0 {fill:#57A7B3}
   ]]>
  </style>
 </defs>
 <g id="Layer_x0020_1">
  <metadata id="CorelCorpID_0Corel-Layer"/>
  <path class="fil0" d="M625 1114c84,0 156,9 214,23 137,33 205,98 205,163 0,6 0,12 -1,19 123,-73 215,-190 272,-361 30,-92 45,-205 43,-318 -2,-115 -22,-230 -60,-322 -56,-133 -145,-226 -262,-227 -94,-1 -147,55 -177,131 -37,91 -40,210 -38,313 2,100 -4,223 -47,314 -49,106 -146,178 -330,177 -145,-2 -265,-65 -347,-184 -71,-103 -104,-239 -96,-363 12,-188 101,-367 272,-456 43,-22 97,-35 140,-6 28,20 23,49 -12,64 -152,69 -227,243 -237,401 -7,110 21,237 84,327 46,66 115,125 199,126 89,0 140,-44 170,-109 38,-82 43,-199 42,-289 -2,-109 1,-235 41,-335 47,-117 144,-200 336,-202 197,-1 347,122 420,297 47,111 67,229 62,347 -4,125 -25,244 -66,351 -76,201 -229,367 -434,439 -97,34 -248,55 -393,53 -107,-1 -211,-16 -288,-47 -87,-36 -131,-88 -130,-140 0,-65 67,-129 202,-163 59,-14 131,-23 216,-23zm0 91c172,0 258,47 259,95 0,26 -25,52 -76,70 -43,16 -104,26 -183,26 -76,0 -136,-9 -179,-24 -53,-19 -79,-46 -79,-72 1,-48 87,-95 258,-95z"/>
 </g>
</svg>
