<?xml version="1.0" encoding="UTF-8"?>
<!DOCTYPE svg PUBLIC "-//W3C//DTD SVG 1.1//EN" "http://www.w3.org/Graphics/SVG/1.1/DTD/svg11.dtd">
<!-- Creator: CorelDRAW X8 -->
<svg xmlns="http://www.w3.org/2000/svg" xml:space="preserve" width="1628px" height="1486px" version="1.1" style="shape-rendering:geometricPrecision; text-rendering:geometricPrecision; image-rendering:optimizeQuality; fill-rule:evenodd; clip-rule:evenodd"
viewBox="0 0 1624 1482"
 xmlns:xlink="http://www.w3.org/1999/xlink">
 <defs>
  <style type="text/css">
   <![CDATA[
    .fil0 {fill:#669933}
   ]]>
  </style>
 </defs>
 <g id="Layer_x0020_1">
  <metadata id="CorelCorpID_0Corel-Layer"/>
  <path class="fil0" d="M979 1222c-76,0 -136,10 -176,25 -43,17 -65,39 -65,62 -1,24 21,47 64,64 40,15 101,25 177,25 63,0 110,-7 148,-18 59,-17 88,-44 87,-71 0,-26 -28,-52 -85,-69 -38,-11 -87,-18 -150,-18zm103 -1131c-98,1 -190,41 -226,131 -37,91 -40,178 -38,281 5,276 -35,523 -373,519 -144,-1 -266,-63 -349,-182 -65,-94 -97,-222 -96,-337 2,-203 104,-403 294,-490 34,-16 85,-17 118,5 28,20 22,48 -13,64 -156,70 -236,258 -237,421 -1,102 28,221 85,304 46,66 114,124 198,125 214,2 214,-276 211,-429 -2,-113 2,-244 63,-342 75,-118 230,-160 363,-161 103,-1 220,20 309,76 79,49 135,127 136,240 1,95 -49,169 -133,210 150,67 230,208 230,377 0,131 -34,240 -92,326 -74,109 -185,182 -315,222 -79,25 -156,30 -238,31 -67,1 -148,-7 -212,-24 -119,-32 -178,-90 -177,-149 0,-59 60,-117 182,-148 55,-15 126,-23 207,-23 74,0 135,7 188,19 69,16 173,56 192,129 33,-28 60,-65 81,-106 40,-81 59,-181 51,-276 -12,-145 -85,-279 -230,-319 -65,-17 -134,-9 -200,-9 -25,0 -82,-11 -82,-45 0,-25 37,-46 81,-46 60,0 138,4 201,-17 70,-24 105,-78 104,-152 -1,-71 -27,-124 -69,-160 -58,-50 -141,-65 -214,-65z"/>
 </g>
</svg>
