<?xml version="1.0" encoding="UTF-8"?>
<!DOCTYPE svg PUBLIC "-//W3C//DTD SVG 1.1//EN" "http://www.w3.org/Graphics/SVG/1.1/DTD/svg11.dtd">
<!-- Creator: CorelDRAW X8 -->
<svg xmlns="http://www.w3.org/2000/svg" xml:space="preserve" width="1519px" height="1486px" version="1.1" style="shape-rendering:geometricPrecision; text-rendering:geometricPrecision; image-rendering:optimizeQuality; fill-rule:evenodd; clip-rule:evenodd"
viewBox="0 0 1519 1486"
 xmlns:xlink="http://www.w3.org/1999/xlink">
 <defs>
  <style type="text/css">
   <![CDATA[
    .fil0 {fill:black;fill-rule:nonzero}
   ]]>
  </style>
 </defs>
 <g id="Layer_x0020_1">
  <metadata id="CorelCorpID_0Corel-Layer"/>
  <path class="fil0" d="M1093 1285c108,-85 179,-198 222,-327 30,-92 45,-205 43,-318 -2,-115 -22,-230 -60,-322 -56,-133 -145,-226 -262,-227 -94,-1 -147,55 -177,131 -37,91 -40,209 -38,312 2,99 -4,222 -47,313 -48,103 -144,175 -320,177 -150,1 -271,-59 -357,-184 -71,-102 -104,-239 -96,-363 12,-188 101,-365 272,-454 43,-22 97,-35 140,-6 28,20 23,49 -12,64 -152,69 -227,241 -237,399 -7,110 21,237 84,328 48,69 118,126 206,125 84,-2 134,-46 163,-108 38,-83 43,-200 42,-290 -2,-108 1,-233 41,-333 47,-117 144,-200 336,-202 197,-1 347,122 420,297 47,111 67,229 62,347 -4,124 -25,243 -66,350 -76,202 -229,365 -434,437 -116,40 -251,53 -374,55 -76,1 -153,-4 -228,-21 -103,-23 -261,-88 -244,-218 7,-48 45,-88 98,-116 57,-31 123,-46 188,-46 62,0 135,13 188,47 47,-32 116,-47 186,-47 71,0 142,15 190,45 50,31 76,76 74,127 0,9 -1,19 -3,28zm-449 110c53,0 158,-2 230,-35 46,-20 79,-52 77,-103 -2,-58 -68,-84 -119,-84 -66,-1 -103,46 -103,112 0,36 -55,47 -82,47 -27,0 -80,-11 -80,-47 0,-73 -50,-111 -109,-112 -51,-1 -128,26 -127,87 1,54 42,86 96,106 72,26 167,29 217,29z"/>
 </g>
</svg>
