<?xml version="1.0" encoding="UTF-8"?>
<!DOCTYPE svg PUBLIC "-//W3C//DTD SVG 1.1//EN" "http://www.w3.org/Graphics/SVG/1.1/DTD/svg11.dtd">
<!-- Creator: CorelDRAW X8 -->
<svg xmlns="http://www.w3.org/2000/svg" xml:space="preserve" width="1562px" height="1486px" version="1.1" style="shape-rendering:geometricPrecision; text-rendering:geometricPrecision; image-rendering:optimizeQuality; fill-rule:evenodd; clip-rule:evenodd"
viewBox="0 0 1556 1480"
 xmlns:xlink="http://www.w3.org/1999/xlink">
 <defs>
  <style type="text/css">
   <![CDATA[
    .fil0 {fill:#57A7B3;fill-rule:nonzero}
   ]]>
  </style>
 </defs>
 <g id="Layer_x0020_1">
  <metadata id="CorelCorpID_0Corel-Layer"/>
  <path class="fil0" d="M1115 745c-25,0 -81,-11 -81,-46 0,-25 36,-45 81,-45 44,0 76,6 113,-3 113,-25 164,-133 166,-242 1,-82 -25,-166 -72,-220 -51,-60 -128,-95 -226,-98 -102,-2 -203,37 -241,131 -37,91 -39,178 -37,280 1,100 -5,253 -47,344 -49,105 -143,177 -326,175 -144,-1 -266,-64 -348,-182 -65,-94 -98,-222 -97,-337 2,-203 105,-402 294,-489 34,-16 85,-17 118,5 28,20 22,48 -13,64 -156,70 -235,258 -237,420 -1,103 28,221 86,304 45,66 113,124 197,125 88,1 139,-44 169,-108 39,-82 44,-231 42,-321 -2,-112 3,-260 72,-355 75,-105 224,-148 368,-147 140,1 266,44 349,128 71,71 108,178 106,281 -2,119 -55,231 -169,284 112,32 174,118 174,215 -1,235 -261,267 -446,267l-815 0c-89,0 -132,26 -131,85 2,62 46,82 131,82l1162 0c45,0 81,31 81,69 0,38 -36,69 -81,69l-1162 0c-136,0 -299,-35 -295,-203 3,-123 94,-193 295,-193l815 1c122,0 281,-25 281,-177 -1,-96 -74,-155 -163,-165 -37,-4 -70,2 -113,2z"/>
 </g>
</svg>
