<?xml version="1.0" encoding="UTF-8"?>
<!DOCTYPE svg PUBLIC "-//W3C//DTD SVG 1.1//EN" "http://www.w3.org/Graphics/SVG/1.1/DTD/svg11.dtd">
<!-- Creator: CorelDRAW X8 -->
<svg xmlns="http://www.w3.org/2000/svg" xml:space="preserve" width="1896px" height="1486px" version="1.1" style="shape-rendering:geometricPrecision; text-rendering:geometricPrecision; image-rendering:optimizeQuality; fill-rule:evenodd; clip-rule:evenodd"
viewBox="0 0 1896 1486"
 xmlns:xlink="http://www.w3.org/1999/xlink">
 <defs>
  <style type="text/css">
   <![CDATA[
    .fil0 {fill:black;fill-rule:nonzero}
   ]]>
  </style>
 </defs>
 <g id="Layer_x0020_1">
  <metadata id="CorelCorpID_0Corel-Layer"/>
  <path class="fil0" d="M285 16c31,-20 82,-21 115,-5 34,16 38,45 9,64 -173,114 -246,318 -246,518 0,244 107,491 304,640 139,106 312,161 487,161 175,1 351,-53 487,-166 181,-151 288,-378 292,-612 3,-159 -43,-330 -157,-445 -46,-46 -101,-79 -163,-80 -94,0 -147,55 -178,131 -36,91 -39,210 -37,313 1,100 -4,221 -47,312 -49,103 -145,175 -321,177 -150,1 -271,-60 -357,-184 -65,-93 -97,-216 -96,-331 1,-203 97,-398 282,-491 40,-20 92,-28 131,-1 28,20 22,49 -13,64 -159,72 -237,262 -238,428 -1,102 28,216 86,299 48,68 117,126 205,125 85,-2 134,-46 163,-108 39,-83 44,-200 42,-290 -1,-109 1,-232 42,-333 58,-146 184,-204 335,-202 94,2 181,27 255,84 164,125 232,331 229,532 -5,255 -123,499 -320,662 -170,141 -397,209 -622,208 -225,-1 -448,-69 -618,-199 -216,-163 -336,-426 -336,-694 0,-228 89,-447 285,-577z"/>
 </g>
</svg>
