<?xml version="1.0" encoding="UTF-8"?>
<!DOCTYPE svg PUBLIC "-//W3C//DTD SVG 1.1//EN" "http://www.w3.org/Graphics/SVG/1.1/DTD/svg11.dtd">
<!-- Creator: CorelDRAW X8 -->
<svg xmlns="http://www.w3.org/2000/svg" xml:space="preserve" width="1519px" height="1487px" version="1.1" style="shape-rendering:geometricPrecision; text-rendering:geometricPrecision; image-rendering:optimizeQuality; fill-rule:evenodd; clip-rule:evenodd"
viewBox="0 0 1519 1486"
 xmlns:xlink="http://www.w3.org/1999/xlink">
 <defs>
  <style type="text/css">
   <![CDATA[
    .fil0 {fill:#57A7B3;fill-rule:nonzero}
   ]]>
  </style>
 </defs>
 <g id="Layer_x0020_1">
  <metadata id="CorelCorpID_0Corel-Layer"/>
  <path class="fil0" d="M1093 1286c108,-86 179,-198 222,-328 30,-92 45,-205 43,-318 -2,-115 -22,-230 -60,-322 -56,-133 -145,-226 -262,-227 -94,-1 -147,55 -177,131 -37,91 -40,210 -38,313 2,100 -4,223 -47,314 -49,106 -146,178 -330,177 -145,-2 -265,-65 -347,-184 -71,-103 -104,-239 -96,-363 12,-188 101,-367 272,-456 43,-22 97,-35 140,-6 28,20 23,49 -12,64 -152,69 -227,243 -237,401 -7,110 21,237 84,327 46,66 115,125 199,126 89,0 140,-44 170,-109 38,-82 43,-199 42,-289 -2,-109 1,-235 41,-335 47,-117 144,-200 336,-202 197,-1 347,122 420,297 47,111 67,229 62,347 -4,125 -25,244 -66,351 -76,201 -229,365 -434,437 -116,40 -251,53 -374,54 -76,1 -153,-4 -228,-21 -103,-23 -261,-87 -244,-218 7,-48 45,-88 98,-116 57,-31 123,-45 188,-46 62,0 135,13 188,48 47,-32 116,-48 186,-48 71,0 142,16 190,45 50,32 76,76 74,128 0,9 -1,18 -3,28zm-449 110c53,0 158,-3 230,-35 46,-20 79,-53 77,-103 -2,-59 -68,-85 -119,-85 -66,0 -103,47 -103,113 0,35 -55,46 -82,46 -27,0 -80,-11 -80,-47 0,-73 -50,-110 -109,-111 -51,-2 -128,25 -127,86 1,54 42,87 96,106 72,27 167,30 217,30z"/>
 </g>
</svg>
