<?xml version="1.0" encoding="UTF-8"?>
<!DOCTYPE svg PUBLIC "-//W3C//DTD SVG 1.1//EN" "http://www.w3.org/Graphics/SVG/1.1/DTD/svg11.dtd">
<!-- Creator: CorelDRAW X8 -->
<svg xmlns="http://www.w3.org/2000/svg" xml:space="preserve" width="2683px" height="1486px" version="1.1" style="shape-rendering:geometricPrecision; text-rendering:geometricPrecision; image-rendering:optimizeQuality; fill-rule:evenodd; clip-rule:evenodd"
viewBox="0 0 2683 1486"
 xmlns:xlink="http://www.w3.org/1999/xlink">
 <defs>
  <style type="text/css">
   <![CDATA[
    .fil0 {fill:#57A7B3}
   ]]>
  </style>
 </defs>
 <g id="Layer_x0020_1">
  <metadata id="CorelCorpID_0Corel-Layer"/>
  <path class="fil0" d="M1849 1112c81,0 151,8 209,22 140,32 210,98 210,164 0,5 -1,12 -2,18 143,-89 212,-243 240,-405 -86,74 -200,113 -320,113 -140,0 -256,-45 -326,-134 -32,29 -70,53 -114,72 -104,45 -231,61 -352,61 -117,0 -290,-14 -398,-63 -35,-16 -40,-45 -12,-65 29,-19 80,-22 115,-6 35,16 81,25 121,25 98,-2 169,-75 163,-172 -5,-66 -48,-129 -121,-153 -73,-23 -157,-14 -198,-14 -26,0 -83,-11 -83,-45 0,-25 37,-46 82,-46 59,0 138,4 201,-17 70,-24 105,-77 104,-151 0,-71 -27,-124 -69,-160 -57,-49 -142,-64 -215,-64 -97,1 -190,41 -226,131 -37,92 -40,177 -38,280 2,100 -4,254 -47,345 -49,105 -143,178 -327,176 -145,-2 -267,-64 -349,-183 -66,-94 -98,-223 -97,-338 2,-204 104,-404 294,-491 35,-16 86,-18 119,5 28,20 22,48 -13,64 -156,70 -236,259 -238,422 -1,103 28,222 86,305 46,66 114,124 198,125 89,1 140,-44 170,-108 39,-83 43,-232 42,-322 -2,-113 1,-243 63,-340 75,-119 231,-161 363,-162 104,-1 221,18 310,74 80,50 136,128 137,241 1,98 -52,171 -140,212 89,42 156,113 156,214 0,69 -33,138 -95,188 70,-4 139,-16 194,-40 104,-45 144,-120 144,-228l0 -616c0,-25 37,-46 82,-46 45,0 81,21 81,46l0 616c0,149 71,271 233,271 131,0 237,-96 283,-214 27,-67 37,-142 36,-215 -3,-158 -67,-356 -223,-422 -36,-16 -43,-44 -16,-64 32,-24 84,-22 119,-7 138,61 222,184 259,322 27,101 40,217 39,334 -2,132 -22,266 -62,378 -47,133 -126,246 -262,326 -138,83 -348,117 -510,114 -83,-1 -165,-10 -229,-27 -127,-34 -190,-97 -190,-160 0,-64 67,-128 199,-162 60,-15 133,-24 220,-24zm0 91c69,0 124,7 166,20 61,18 92,46 92,75 1,42 -61,67 -94,77 -41,12 -96,19 -164,19 -83,0 -146,-11 -189,-28 -47,-18 -70,-43 -69,-68 0,-34 42,-56 69,-67 43,-17 106,-28 189,-28z"/>
 </g>
</svg>
