<?xml version="1.0" encoding="UTF-8"?>
<!DOCTYPE svg PUBLIC "-//W3C//DTD SVG 1.1//EN" "http://www.w3.org/Graphics/SVG/1.1/DTD/svg11.dtd">
<!-- Creator: CorelDRAW X8 -->
<svg xmlns="http://www.w3.org/2000/svg" xml:space="preserve" width="1510px" height="1486px" version="1.1" style="shape-rendering:geometricPrecision; text-rendering:geometricPrecision; image-rendering:optimizeQuality; fill-rule:evenodd; clip-rule:evenodd"
viewBox="0 0 1510 1486"
 xmlns:xlink="http://www.w3.org/1999/xlink">
 <defs>
  <style type="text/css">
   <![CDATA[
    .fil0 {fill:#57A7B3;fill-rule:nonzero}
   ]]>
  </style>
 </defs>
 <g id="Layer_x0020_1">
  <metadata id="CorelCorpID_0Corel-Layer"/>
  <path class="fil0" d="M1348 559c0,-132 -36,-260 -105,-351 -55,-73 -132,-117 -206,-117 -71,0 -139,39 -176,131 -36,90 -39,206 -38,307 2,103 -3,226 -47,320 -49,106 -146,178 -330,177 -151,-2 -270,-72 -347,-182 -71,-104 -104,-240 -96,-365 12,-193 105,-374 282,-461 40,-20 92,-28 130,-1 28,20 23,49 -12,64 -152,69 -228,243 -238,401 -7,112 22,233 85,327 48,70 115,125 199,126 88,1 140,-44 170,-108 40,-86 43,-204 42,-298 -2,-106 2,-229 41,-327 58,-144 184,-204 335,-202 141,2 270,59 356,172 78,103 117,244 117,387 0,159 -39,322 -147,443 -103,116 -258,179 -459,178l-608 0c-89,0 -133,26 -131,86 1,62 45,82 131,82l1092 0c45,0 81,31 81,69 0,38 -36,69 -81,69l-1092 0c-137,0 -300,-34 -296,-204 3,-123 95,-193 296,-193l608 0c148,1 256,-55 329,-146 84,-107 114,-251 115,-384z"/>
 </g>
</svg>
