<?xml version="1.0" encoding="UTF-8"?>
<!DOCTYPE svg PUBLIC "-//W3C//DTD SVG 1.1//EN" "http://www.w3.org/Graphics/SVG/1.1/DTD/svg11.dtd">
<!-- Creator: CorelDRAW X8 -->
<svg xmlns="http://www.w3.org/2000/svg" xml:space="preserve" width="3030px" height="1486px" version="1.1" style="shape-rendering:geometricPrecision; text-rendering:geometricPrecision; image-rendering:optimizeQuality; fill-rule:evenodd; clip-rule:evenodd"
viewBox="0 0 3030 1485"
 xmlns:xlink="http://www.w3.org/1999/xlink">
 <defs>
  <style type="text/css">
   <![CDATA[
    .fil0 {fill:#6666CC;fill-rule:nonzero}
   ]]>
  </style>
 </defs>
 <g id="Layer_x0020_1">
  <metadata id="CorelCorpID_0Corel-Layer"/>
  <path class="fil0" d="M1356 961c-35,-16 -41,-45 -12,-64 28,-20 79,-23 114,-7 36,16 82,25 121,25 99,-2 170,-76 163,-173 -4,-66 -48,-129 -121,-153 -72,-23 -157,-13 -198,-13 -26,0 -82,-11 -82,-46 0,-25 36,-46 81,-46 60,0 139,4 201,-17 70,-24 106,-77 105,-150 -1,-72 -27,-125 -70,-161 -56,-49 -142,-64 -214,-63 -98,0 -191,40 -227,130 -37,92 -39,177 -37,280 1,100 -5,254 -48,345 -48,103 -143,175 -320,176 -149,0 -271,-61 -356,-183 -65,-94 -98,-223 -97,-338 2,-204 105,-404 295,-491 35,-16 86,-18 118,5 28,20 23,48 -12,64 -157,70 -237,259 -238,422 -1,103 28,222 85,305 48,69 117,126 205,125 85,-1 134,-45 163,-108 39,-83 44,-232 42,-322 -2,-113 2,-243 63,-340 75,-119 231,-161 364,-162 103,-1 221,18 309,74 80,50 136,128 137,242 1,97 -52,170 -139,211 89,42 156,113 156,214 0,69 -33,139 -95,189 69,-4 138,-16 194,-40 103,-45 144,-121 144,-228l0 -617c0,-25 36,-46 81,-46 45,0 82,21 82,46l0 616c0,149 71,270 233,270 131,0 237,-95 283,-213 26,-67 37,-142 36,-215 -3,-158 -67,-356 -223,-422 -36,-16 -43,-44 -16,-64 32,-24 83,-22 118,-7 138,61 218,175 257,316 20,72 29,149 29,226 0,93 -10,188 -28,266 -56,234 -193,386 -393,488 -279,143 -712,176 -1018,178 -420,4 -863,-54 -1137,-200 -288,-153 -455,-382 -454,-708 1,-218 77,-435 263,-561 28,-19 79,-22 114,-5 34,16 39,44 10,64 -162,109 -223,313 -224,502 -2,293 142,503 403,642 238,127 639,178 1022,175 268,-2 666,-29 911,-154 129,-66 241,-156 306,-285 -76,45 -166,69 -259,69 -140,0 -256,-45 -326,-134 -32,29 -71,54 -114,73 -104,45 -232,61 -353,61 -116,0 -290,-14 -397,-63z"/>
 </g>
</svg>
