<?xml version="1.0" encoding="UTF-8"?>
<!DOCTYPE svg PUBLIC "-//W3C//DTD SVG 1.1//EN" "http://www.w3.org/Graphics/SVG/1.1/DTD/svg11.dtd">
<!-- Creator: CorelDRAW X8 -->
<svg xmlns="http://www.w3.org/2000/svg" xml:space="preserve" width="3050px" height="1486px" version="1.1" style="shape-rendering:geometricPrecision; text-rendering:geometricPrecision; image-rendering:optimizeQuality; fill-rule:evenodd; clip-rule:evenodd"
viewBox="0 0 3050 1486"
 xmlns:xlink="http://www.w3.org/1999/xlink">
 <defs>
  <style type="text/css">
   <![CDATA[
    .fil0 {fill:#57A7B3;fill-rule:nonzero}
   ]]>
  </style>
 </defs>
 <g id="Layer_x0020_1">
  <metadata id="CorelCorpID_0Corel-Layer"/>
  <path class="fil0" d="M1376 960c-35,-16 -41,-45 -12,-64 28,-20 79,-23 114,-7 36,16 82,25 121,25 99,-2 170,-75 163,-172 -4,-66 -48,-129 -121,-153 -72,-23 -157,-13 -198,-13 -26,0 -82,-11 -82,-46 0,-25 36,-46 81,-46 60,0 139,4 201,-17 70,-24 106,-77 105,-150 -1,-72 -27,-125 -70,-161 -56,-49 -142,-64 -214,-63 -98,0 -191,40 -227,130 -37,92 -39,177 -37,280 1,100 -5,254 -48,345 -49,105 -143,178 -327,176 -144,-2 -266,-64 -349,-183 -65,-94 -98,-223 -97,-338 2,-204 105,-404 295,-491 35,-16 86,-18 118,5 28,20 23,48 -12,64 -157,70 -237,259 -238,422 -1,103 28,222 85,305 46,66 114,124 198,125 89,1 140,-44 170,-108 39,-83 44,-232 42,-322 -2,-113 2,-243 63,-340 75,-119 231,-161 364,-162 103,-1 221,18 309,74 80,50 136,128 137,242 1,97 -52,170 -139,211 89,42 156,113 156,214 0,69 -33,138 -96,188 70,-4 139,-16 195,-40 103,-45 144,-120 144,-227l0 -617c0,-25 36,-46 81,-46 45,0 82,21 82,46l0 616c0,149 71,271 233,271 131,0 237,-96 283,-214 26,-67 37,-142 36,-215 -3,-158 -67,-356 -223,-422 -36,-16 -43,-44 -16,-64 32,-24 83,-22 118,-7 138,61 218,175 257,316 20,72 29,149 29,226 0,93 -10,188 -28,266 -56,234 -193,389 -393,491 -276,141 -662,175 -1116,176 -379,1 -748,-55 -1027,-190 -302,-147 -486,-378 -486,-717 0,-223 87,-435 282,-557 37,-24 86,-30 126,-9 33,17 34,46 4,64 -175,104 -250,306 -249,502 1,305 155,515 429,648 247,120 578,169 921,168 416,-1 767,-30 1006,-152 129,-66 241,-159 306,-288 -76,45 -166,69 -259,69 -140,0 -256,-45 -326,-134 -32,29 -71,53 -114,72 -104,45 -232,61 -353,61 -116,0 -290,-14 -397,-63z"/>
 </g>
</svg>
