<?xml version="1.0" encoding="UTF-8"?>
<!DOCTYPE svg PUBLIC "-//W3C//DTD SVG 1.1//EN" "http://www.w3.org/Graphics/SVG/1.1/DTD/svg11.dtd">
<!-- Creator: CorelDRAW X8 -->
<svg xmlns="http://www.w3.org/2000/svg" xml:space="preserve" width="2588px" height="1412px" version="1.1" style="shape-rendering:geometricPrecision; text-rendering:geometricPrecision; image-rendering:optimizeQuality; fill-rule:evenodd; clip-rule:evenodd"
viewBox="0 0 2588 1412"
 xmlns:xlink="http://www.w3.org/1999/xlink">
 <defs>
  <style type="text/css">
   <![CDATA[
    .fil0 {fill:#57A7B3;fill-rule:nonzero}
   ]]>
  </style>
 </defs>
 <g id="Layer_x0020_1">
  <metadata id="CorelCorpID_0Corel-Layer"/>
  <path class="fil0" d="M1324 138c87,-94 226,-133 353,-138 180,-6 342,60 457,196 321,65 472,346 452,658 -20,325 -227,552 -559,558 -130,2 -276,-32 -378,-114 -26,-21 -17,-49 19,-63 37,-15 88,-10 114,11 68,54 159,77 245,74 252,-7 382,-234 397,-466 12,-188 -42,-396 -202,-510 29,75 42,155 40,238 -1,98 -24,198 -72,279 -69,113 -182,164 -301,163 -118,-1 -229,-49 -296,-149 -43,-65 -66,-147 -66,-230 0,-99 32,-199 91,-278 78,-104 197,-161 325,-177 -75,-67 -166,-102 -266,-99 -171,6 -293,137 -293,299l0 589c0,25 -37,45 -81,45 -45,0 -81,-20 -81,-45l0 -589c0,-140 -33,-295 -205,-299 -90,-2 -160,72 -188,152 -33,92 -32,194 -32,291 -1,259 -48,490 -364,490 -290,0 -429,-229 -433,-490 -3,-219 97,-437 309,-521 37,-15 90,-20 123,8 25,21 15,50 -22,63 -175,65 -250,277 -248,450 2,159 79,399 271,399 196,0 201,-258 201,-399 0,-102 1,-212 35,-309 54,-151 192,-228 348,-225 136,3 246,51 307,138zm693 138c-100,0 -189,47 -249,126 -53,70 -78,156 -78,243 0,74 19,144 55,198 33,50 82,89 144,89 57,1 106,-33 147,-101 43,-71 63,-161 64,-249 1,-108 -22,-215 -83,-306z"/>
 </g>
</svg>
