<?xml version="1.0" encoding="UTF-8"?>
<!DOCTYPE svg PUBLIC "-//W3C//DTD SVG 1.1//EN" "http://www.w3.org/Graphics/SVG/1.1/DTD/svg11.dtd">
<!-- Creator: CorelDRAW X8 -->
<svg xmlns="http://www.w3.org/2000/svg" xml:space="preserve" width="1515px" height="1486px" version="1.1" style="shape-rendering:geometricPrecision; text-rendering:geometricPrecision; image-rendering:optimizeQuality; fill-rule:evenodd; clip-rule:evenodd"
viewBox="0 0 1515 1486"
 xmlns:xlink="http://www.w3.org/1999/xlink">
 <defs>
  <style type="text/css">
   <![CDATA[
    .fil0 {fill:#669933}
   ]]>
  </style>
 </defs>
 <g id="Layer_x0020_1">
  <metadata id="CorelCorpID_0Corel-Layer"/>
  <path class="fil0" d="M658 1408c-61,0 -137,-5 -193,-30 -39,-17 -66,-47 -65,-91 2,-50 58,-70 101,-71 56,0 87,41 87,97 0,31 47,40 71,40 24,0 71,-9 71,-40 0,-56 31,-97 87,-97 43,1 99,21 101,71 2,44 -26,74 -65,91 -57,26 -133,30 -195,30zm386 -94c125,-81 206,-209 256,-353 37,-106 55,-219 54,-321 -2,-115 -18,-230 -56,-322 -56,-133 -145,-226 -262,-227 -215,-2 -217,293 -215,444 5,269 -51,489 -370,489 -148,0 -270,-60 -354,-182 -71,-103 -104,-239 -96,-363 12,-188 101,-367 272,-456 43,-22 97,-35 140,-6 28,20 23,49 -12,64 -152,69 -227,243 -237,401 -7,110 21,237 84,327 47,68 116,126 203,126 201,-2 210,-250 208,-398 -5,-278 35,-534 377,-537 196,-1 347,122 420,297 47,111 62,229 58,347 -4,129 -34,261 -88,380 -83,185 -225,340 -423,409 -89,31 -212,52 -346,53 -78,1 -169,-9 -242,-36 -84,-30 -144,-96 -143,-163 1,-38 21,-77 68,-107 41,-26 101,-39 161,-39 53,0 114,11 158,40 44,-29 105,-40 158,-40 60,0 121,13 161,39 48,31 69,69 69,107 0,9 -1,18 -3,27z"/>
 </g>
</svg>
