<?xml version="1.0" encoding="UTF-8"?>
<!DOCTYPE svg PUBLIC "-//W3C//DTD SVG 1.1//EN" "http://www.w3.org/Graphics/SVG/1.1/DTD/svg11.dtd">
<!-- Creator: CorelDRAW X8 -->
<svg xmlns="http://www.w3.org/2000/svg" xml:space="preserve" width="1157px" height="868px" version="1.1" style="shape-rendering:geometricPrecision; text-rendering:geometricPrecision; image-rendering:optimizeQuality; fill-rule:evenodd; clip-rule:evenodd"
viewBox="0 0 1157 868"
 xmlns:xlink="http://www.w3.org/1999/xlink">
 <defs>
  <style type="text/css">
   <![CDATA[
    .fil0 {fill:#669933;fill-rule:nonzero}
   ]]>
  </style>
 </defs>
 <g id="Layer_x0020_1">
  <metadata id="CorelCorpID_0Corel-Layer"/>
  <path class="fil0" d="M198 0c19,-1 54,3 65,20 7,11 0,21 -9,28 -47,29 -80,72 -101,121 -24,55 -33,118 -31,181 5,121 50,235 136,321 91,91 215,137 343,136 124,0 248,-53 329,-147 71,-83 102,-192 104,-300 1,-54 -8,-117 -33,-172 -24,-55 -82,-128 -147,-129 -114,-1 -117,173 -116,254 3,170 -40,285 -232,287 -94,1 -172,-32 -227,-109 -39,-55 -59,-126 -58,-193 0,-61 16,-120 46,-171 34,-57 107,-126 178,-127 17,0 50,5 58,23 6,14 -8,24 -19,29 -43,19 -77,53 -100,93 -27,47 -41,102 -41,153 0,59 17,125 51,173 25,34 66,71 110,70 107,-2 113,-150 112,-228 -3,-175 32,-316 239,-313 117,2 208,61 260,164 30,60 43,129 42,196 -2,134 -48,261 -146,355 -108,103 -262,151 -409,153 -152,1 -305,-42 -422,-141 -114,-96 -174,-229 -180,-377 -2,-69 9,-139 37,-200 26,-58 92,-147 161,-150z"/>
 </g>
</svg>
