<?xml version="1.0" encoding="UTF-8"?>
<!DOCTYPE svg PUBLIC "-//W3C//DTD SVG 1.1//EN" "http://www.w3.org/Graphics/SVG/1.1/DTD/svg11.dtd">
<!-- Creator: CorelDRAW X8 -->
<svg xmlns="http://www.w3.org/2000/svg" xml:space="preserve" width="2539px" height="1486px" version="1.1" style="shape-rendering:geometricPrecision; text-rendering:geometricPrecision; image-rendering:optimizeQuality; fill-rule:evenodd; clip-rule:evenodd"
viewBox="0 0 2539 1486"
 xmlns:xlink="http://www.w3.org/1999/xlink">
 <defs>
  <style type="text/css">
   <![CDATA[
    .fil0 {fill:black;fill-rule:nonzero}
   ]]>
  </style>
 </defs>
 <g id="Layer_x0020_1">
  <metadata id="CorelCorpID_0Corel-Layer"/>
  <path class="fil0" d="M2376 46c0,-26 36,-46 81,-46 46,0 82,20 82,46l0 955c0,207 -188,334 -368,395 -214,73 -498,93 -788,90 -322,-3 -655,-64 -914,-203 -218,-117 -384,-288 -445,-521 -37,-138 -30,-284 11,-414 42,-134 121,-253 226,-330 27,-20 78,-24 114,-9 36,16 43,44 15,64 -89,65 -157,170 -195,291 -37,121 -44,256 -10,385 56,211 203,364 397,468 227,122 520,176 804,178 263,3 516,-14 700,-77 170,-58 283,-157 289,-318l-1011 0c-26,0 -82,-12 -82,-50l0 -291 -392 0c-45,0 -81,-20 -81,-45 0,-15 11,-26 23,-33 65,-38 90,-114 90,-186 0,-134 -92,-207 -186,-207 -94,0 -189,73 -189,207 0,77 32,162 106,195 35,16 41,45 13,64 -32,22 -84,21 -119,5 -104,-49 -163,-148 -163,-264 0,-196 176,-299 352,-298 175,0 349,103 349,298 0,65 -17,124 -52,173l249 0c0,-74 0,-142 0,-217 0,-234 225,-350 433,-351 212,-1 420,114 420,351l0 263c0,25 -36,45 -81,45l-609 0 0 250 931 0 0 -863zm-404 522l0 -217c0,-154 -106,-260 -257,-260 -149,1 -270,105 -270,260l0 217 527 0z"/>
 </g>
</svg>
