<?xml version="1.0" encoding="UTF-8"?>
<!DOCTYPE svg PUBLIC "-//W3C//DTD SVG 1.1//EN" "http://www.w3.org/Graphics/SVG/1.1/DTD/svg11.dtd">
<!-- Creator: CorelDRAW X8 -->
<svg xmlns="http://www.w3.org/2000/svg" xml:space="preserve" width="2537px" height="1488px" version="1.1" style="shape-rendering:geometricPrecision; text-rendering:geometricPrecision; image-rendering:optimizeQuality; fill-rule:evenodd; clip-rule:evenodd"
viewBox="0 0 2537 1488"
 xmlns:xlink="http://www.w3.org/1999/xlink">
 <defs>
  <style type="text/css">
   <![CDATA[
    .fil0 {fill:#57A7B3;fill-rule:nonzero}
   ]]>
  </style>
 </defs>
 <g id="Layer_x0020_1">
  <metadata id="CorelCorpID_0Corel-Layer"/>
  <path class="fil0" d="M2374 46c0,-25 36,-45 81,-45 46,0 82,20 82,45l0 955c0,235 -157,330 -367,397 -213,68 -493,85 -784,90 -272,4 -574,-22 -830,-128 -254,-106 -459,-289 -534,-599 -34,-139 -27,-286 13,-416 42,-133 120,-251 224,-327 27,-20 78,-24 114,-9 36,16 43,44 15,64 -88,65 -155,168 -192,288 -38,121 -45,258 -13,388 69,282 248,446 470,538 220,92 487,114 728,110 269,-5 525,-19 708,-78 168,-54 278,-150 284,-318l-1011 0c-26,0 -83,-12 -81,-49 4,-100 0,-193 -1,-292l-392 0c-45,0 -81,-21 -81,-46 0,-14 11,-25 23,-32 65,-38 90,-114 90,-186 0,-134 -92,-207 -186,-208 -94,0 -189,73 -189,208 0,77 32,162 106,195 35,16 41,45 13,64 -32,22 -84,21 -119,5 -104,-49 -163,-149 -163,-264 0,-196 176,-299 352,-299 175,1 349,103 349,299 0,64 -17,124 -52,173l249 0c0,-74 0,-143 0,-217 0,-234 225,-350 433,-351 212,-1 420,113 420,351l0 262c0,25 -36,46 -81,46l-609 0 0 250 931 0 0 -864zm-404 523l0 -217c0,-154 -106,-261 -257,-260 -149,1 -270,104 -270,260l0 217 527 0z"/>
 </g>
</svg>
