<?xml version="1.0" encoding="UTF-8"?>
<!DOCTYPE svg PUBLIC "-//W3C//DTD SVG 1.1//EN" "http://www.w3.org/Graphics/SVG/1.1/DTD/svg11.dtd">
<!-- Creator: CorelDRAW X8 -->
<svg xmlns="http://www.w3.org/2000/svg" xml:space="preserve" width="1755px" height="2048px" version="1.1" style="shape-rendering:geometricPrecision; text-rendering:geometricPrecision; image-rendering:optimizeQuality; fill-rule:evenodd; clip-rule:evenodd"
viewBox="0 0 1755 2048"
 xmlns:xlink="http://www.w3.org/1999/xlink">
 <defs>
  <style type="text/css">
   <![CDATA[
    .fil0 {fill:#1F1B20;fill-rule:nonzero}
   ]]>
  </style>
 </defs>
 <g id="Layer_x0020_1">
  <metadata id="CorelCorpID_0Corel-Layer"/>
  <path class="fil0" d="M1174 2016c-36,-15 -43,-43 -17,-63 27,-21 78,-25 114,-10 35,15 74,23 112,26 33,2 66,-2 95,-11 64,-21 102,-71 112,-137 11,-70 -19,-144 -83,-179 -55,-24 -131,-27 -194,-27 -18,0 -35,1 -53,0 -45,0 -80,-21 -79,-46 1,-25 38,-45 82,-45 13,0 27,1 42,1 94,0 189,-11 236,-72 23,-30 34,-71 29,-128 -14,-144 -123,-198 -260,-196 -86,0 -155,26 -205,71 -85,78 -97,179 -103,286l0 512c0,5 0,10 0,16 0,25 -37,45 -82,45 -44,0 -81,-20 -81,-45 0,-11 0,-25 0,-42l0 -486c0,-103 -11,-200 -90,-274 -57,-52 -133,-80 -207,-84 -154,-10 -277,77 -340,214 -28,62 -43,131 -46,206 52,-77 133,-118 223,-121 98,-4 189,34 249,97 53,57 81,135 78,223 -2,90 -36,179 -105,235 -64,53 -143,78 -222,78 -140,0 -236,-65 -296,-161 -47,-74 -72,-167 -80,-262 -10,-118 6,-240 51,-329 97,-199 289,-284 505,-271 122,8 244,49 329,128 12,12 24,24 34,37 13,-18 28,-34 45,-49 79,-73 193,-114 341,-115 192,-2 403,66 424,283 9,100 -45,198 -133,246 105,43 171,149 153,262 -16,107 -92,174 -192,207 -60,20 -127,27 -194,23 -67,-4 -134,-19 -192,-43zm-972 -270c0,147 93,223 183,223 84,0 166,-74 166,-223 1,-148 -87,-223 -174,-222 -87,0 -174,74 -175,222z"/>
 </g>
</svg>
