<?xml version="1.0" encoding="UTF-8"?>
<!DOCTYPE svg PUBLIC "-//W3C//DTD SVG 1.1//EN" "http://www.w3.org/Graphics/SVG/1.1/DTD/svg11.dtd">
<!-- Creator: CorelDRAW X8 -->
<svg xmlns="http://www.w3.org/2000/svg" xml:space="preserve" width="1742px" height="1486px" version="1.1" style="shape-rendering:geometricPrecision; text-rendering:geometricPrecision; image-rendering:optimizeQuality; fill-rule:evenodd; clip-rule:evenodd"
viewBox="0 0 1742 1486"
 xmlns:xlink="http://www.w3.org/1999/xlink">
 <defs>
  <style type="text/css">
   <![CDATA[
    .fil0 {fill:black;fill-rule:nonzero}
   ]]>
  </style>
 </defs>
 <g id="Layer_x0020_1">
  <metadata id="CorelCorpID_0Corel-Layer"/>
  <path class="fil0" d="M155 496c-29,-14 -53,-31 -74,-51 -53,-49 -81,-118 -81,-185 0,-64 26,-125 80,-175 61,-56 150,-85 241,-85 101,0 195,36 253,105 64,-65 157,-105 289,-105 179,0 286,72 346,179 42,77 61,172 66,270l39 0c155,0 293,67 369,198 45,76 64,165 58,253 -5,82 -28,155 -65,220 -74,132 -203,227 -353,285 -124,48 -277,79 -461,81 -77,1 -154,-5 -229,-21 -102,-23 -260,-88 -243,-219 6,-47 44,-87 97,-115 57,-31 123,-46 188,-46 63,0 136,12 189,47 46,-32 115,-47 186,-47 70,0 142,15 189,45 50,31 76,75 75,127 -1,20 -6,43 -15,64 106,-59 180,-133 228,-224 31,-59 47,-127 52,-200 4,-63 -6,-123 -28,-176 -40,-101 -124,-181 -237,-181l-38 0c-3,112 -21,222 -70,308 -60,105 -166,176 -343,176 -142,0 -238,-46 -301,-119 -48,76 -132,118 -241,119 -92,0 -181,-32 -243,-92 -53,-53 -79,-122 -78,-190 1,-70 28,-140 80,-191 23,-23 48,-41 75,-55zm265 -361c-26,-26 -63,-44 -100,-44 -34,0 -71,14 -102,42 -37,34 -55,80 -55,127 -1,51 19,103 57,138 43,39 92,51 149,51l83 0c2,-42 7,-84 15,-124 13,-65 0,-142 -47,-190zm442 1260c52,0 157,-3 230,-35 46,-20 78,-52 77,-103 -3,-58 -69,-84 -119,-84 -67,-1 -104,46 -104,112 0,36 -54,47 -81,47 -27,0 -81,-11 -81,-47 0,-74 -49,-111 -109,-112 -50,-1 -127,26 -126,86 1,55 42,87 95,107 72,26 167,29 218,29zm-398 -718c-8,-44 -12,-90 -13,-137l-82 0c-37,0 -98,6 -147,56 -37,36 -58,90 -59,144 -2,53 16,107 57,147 30,30 67,46 100,46 36,0 71,-21 95,-47 51,-54 61,-138 49,-209zm649 -136l-500 -1c3,104 20,205 63,281 39,67 98,111 187,111 91,0 150,-45 188,-112 43,-75 60,-176 62,-279zm-499 -92l498 0c-4,-90 -21,-175 -59,-242 -38,-70 -98,-116 -190,-116 -92,0 -152,47 -190,116 -37,67 -54,153 -59,242z"/>
 </g>
</svg>
