<?xml version="1.0" encoding="UTF-8"?>
<!DOCTYPE svg PUBLIC "-//W3C//DTD SVG 1.1//EN" "http://www.w3.org/Graphics/SVG/1.1/DTD/svg11.dtd">
<!-- Creator: CorelDRAW X8 -->
<svg xmlns="http://www.w3.org/2000/svg" xml:space="preserve" width="1742px" height="1486px" version="1.1" style="shape-rendering:geometricPrecision; text-rendering:geometricPrecision; image-rendering:optimizeQuality; fill-rule:evenodd; clip-rule:evenodd"
viewBox="0 0 1742 1486"
 xmlns:xlink="http://www.w3.org/1999/xlink">
 <defs>
  <style type="text/css">
   <![CDATA[
    .fil0 {fill:#57A7B3;fill-rule:nonzero}
   ]]>
  </style>
 </defs>
 <g id="Layer_x0020_1">
  <metadata id="CorelCorpID_0Corel-Layer"/>
  <path class="fil0" d="M155 496c-29,-14 -53,-31 -74,-51 -53,-49 -81,-118 -81,-185 0,-64 26,-125 80,-174 61,-57 150,-86 241,-86 101,0 195,36 253,105 63,-65 157,-105 289,-105 179,0 286,72 346,180 42,76 61,171 66,269l39 0c198,0 337,106 396,252 25,61 36,129 31,199 -17,260 -210,433 -443,515 -136,48 -290,71 -435,71 -76,0 -154,-7 -227,-27 -127,-34 -190,-97 -190,-160 0,-61 60,-122 181,-156 63,-19 140,-30 236,-30 88,0 163,10 223,25 132,34 198,97 198,161 0,11 -2,23 -6,34 174,-89 291,-234 301,-435 3,-62 -6,-124 -28,-177 -42,-105 -126,-180 -237,-180l-38 0c-3,111 -21,222 -70,307 -60,106 -166,176 -343,176 -142,0 -238,-45 -301,-118 -48,75 -132,118 -241,118 -92,0 -181,-31 -243,-92 -53,-52 -79,-121 -78,-190 1,-70 28,-139 80,-191 23,-23 48,-41 75,-55zm265 -361c-26,-26 -63,-44 -100,-44 -34,0 -71,14 -102,42 -37,34 -55,81 -55,127 -1,52 19,103 57,138 43,40 92,51 149,51l83 0c2,-42 7,-84 15,-124 13,-65 0,-142 -47,-190zm443 1260c72,0 130,-8 172,-21 59,-19 88,-47 88,-75 0,-26 -25,-52 -76,-70 -43,-15 -105,-25 -184,-25 -74,0 -130,9 -172,23 -56,18 -84,45 -84,72 -1,28 27,55 84,74 53,17 116,22 172,22zm-399 -717c-8,-44 -12,-91 -13,-137l-82 0c-37,0 -98,6 -147,55 -37,37 -58,90 -59,144 -2,54 16,108 57,148 30,29 67,45 100,45 36,0 71,-20 95,-46 51,-55 61,-138 49,-209zm649 -137l-500 0c3,103 20,205 63,280 39,67 98,112 187,112 91,0 150,-45 188,-112 43,-76 60,-177 62,-280zm-499 -92l498 1c-4,-90 -21,-176 -59,-243 -38,-70 -98,-116 -190,-116 -92,0 -152,47 -190,116 -37,67 -54,153 -59,242z"/>
 </g>
</svg>
