<?xml version="1.0" encoding="UTF-8"?>
<!DOCTYPE svg PUBLIC "-//W3C//DTD SVG 1.1//EN" "http://www.w3.org/Graphics/SVG/1.1/DTD/svg11.dtd">
<!-- Creator: CorelDRAW X8 -->
<svg xmlns="http://www.w3.org/2000/svg" xml:space="preserve" width="1742px" height="1486px" version="1.1" style="shape-rendering:geometricPrecision; text-rendering:geometricPrecision; image-rendering:optimizeQuality; fill-rule:evenodd; clip-rule:evenodd"
viewBox="0 0 1742 1486"
 xmlns:xlink="http://www.w3.org/1999/xlink">
 <defs>
  <style type="text/css">
   <![CDATA[
    .fil0 {fill:#669933;fill-rule:nonzero}
   ]]>
  </style>
 </defs>
 <g id="Layer_x0020_1">
  <metadata id="CorelCorpID_0Corel-Layer"/>
  <path class="fil0" d="M862 1408c62,0 138,-4 195,-30 39,-18 67,-47 65,-91 -2,-50 -58,-70 -101,-71 -56,0 -87,41 -87,97 0,31 -47,40 -71,40 -24,0 -71,-9 -71,-40 0,-56 -31,-97 -87,-97 -43,1 -99,21 -101,71 -1,44 26,73 65,91 56,25 132,30 193,30zm-707 -912c-29,-14 -53,-31 -74,-51 -53,-49 -81,-118 -81,-185 0,-64 26,-125 80,-175 61,-56 150,-85 241,-85 101,0 195,36 253,105 64,-65 157,-105 289,-105 179,0 286,72 346,179 42,77 61,172 66,270l39 0c198,0 337,106 396,252 25,60 36,129 31,199 -17,259 -210,433 -443,515 -73,26 -143,44 -214,55 -71,11 -143,16 -221,16 -80,0 -167,-8 -244,-36 -84,-30 -144,-96 -143,-163 1,-38 21,-77 68,-107 41,-26 101,-39 161,-39 53,0 114,11 158,40 44,-29 105,-40 158,-40 60,0 121,13 161,39 48,31 69,69 69,107 0,19 -5,37 -13,55 187,-74 330,-210 341,-445 3,-61 -6,-123 -28,-177 -42,-104 -126,-180 -237,-180l-38 0c-3,112 -21,222 -70,308 -60,105 -166,176 -343,176 -142,0 -238,-46 -301,-119 -48,76 -132,118 -241,119 -92,0 -181,-32 -243,-92 -53,-53 -79,-122 -78,-190 1,-70 28,-140 80,-191 23,-23 48,-41 75,-55zm265 -361c-26,-26 -63,-44 -100,-44 -34,0 -71,14 -102,42 -37,34 -55,80 -55,127 -1,51 19,103 57,138 43,39 92,51 149,51l83 0c2,-42 7,-84 15,-124 13,-65 0,-142 -47,-190zm44 542c-8,-44 -12,-90 -13,-137l-82 0c-37,0 -98,6 -147,56 -37,36 -58,90 -59,144 -2,53 16,107 57,147 30,30 67,46 100,46 36,0 71,-21 95,-47 51,-54 61,-138 49,-209zm649 -136l-500 -1c3,104 20,205 63,281 39,67 98,111 187,111 91,0 150,-45 188,-112 43,-75 60,-176 62,-279zm-499 -92l498 0c-4,-90 -21,-175 -59,-242 -38,-70 -98,-116 -190,-116 -92,0 -152,47 -190,116 -37,67 -54,153 -59,242z"/>
 </g>
</svg>
