<?xml version="1.0" encoding="UTF-8"?>
<!DOCTYPE svg PUBLIC "-//W3C//DTD SVG 1.1//EN" "http://www.w3.org/Graphics/SVG/1.1/DTD/svg11.dtd">
<!-- Creator: CorelDRAW X8 -->
<svg xmlns="http://www.w3.org/2000/svg" xml:space="preserve" width="1429px" height="1000px" version="1.1" style="shape-rendering:geometricPrecision; text-rendering:geometricPrecision; image-rendering:optimizeQuality; fill-rule:evenodd; clip-rule:evenodd"
viewBox="0 0 1429 1000"
 xmlns:xlink="http://www.w3.org/1999/xlink">
 <defs>
  <style type="text/css">
   <![CDATA[
    .fil0 {fill:#E31E24;fill-rule:nonzero}
   ]]>
  </style>
 </defs>
 <g id="Layer_x0020_1">
  <metadata id="CorelCorpID_0Corel-Layer"/>
  <path class="fil0" d="M81 1000c-22,0 -81,-10 -81,-45 0,-26 36,-46 81,-46 135,0 269,0 403,0 15,0 28,-2 42,-4 74,-12 130,-51 170,-101 44,-56 65,-125 65,-191 -2,-111 -71,-207 -190,-207 -75,1 -146,44 -174,114 -13,32 -15,66 -6,100 9,32 28,63 59,89 25,20 15,49 -22,63 -41,15 -89,9 -121,-20 -41,-36 -66,-77 -77,-118 -12,-45 -9,-91 9,-134 51,-128 198,-184 327,-185 186,-2 355,98 357,298 1,78 -25,160 -78,228 -20,25 -43,48 -70,68l491 0 0 -863c0,-26 36,-46 82,-46 45,0 81,20 81,46l0 909c0,25 -37,45 -82,45l-1266 0z"/>
 </g>
</svg>
