<?xml version="1.0" encoding="UTF-8"?>
<!DOCTYPE svg PUBLIC "-//W3C//DTD SVG 1.1//EN" "http://www.w3.org/Graphics/SVG/1.1/DTD/svg11.dtd">
<!-- Creator: CorelDRAW X8 -->
<svg xmlns="http://www.w3.org/2000/svg" xml:space="preserve" width="1429px" height="2048px" version="1.1" style="shape-rendering:geometricPrecision; text-rendering:geometricPrecision; image-rendering:optimizeQuality; fill-rule:evenodd; clip-rule:evenodd"
viewBox="0 0 1429 2048"
 xmlns:xlink="http://www.w3.org/1999/xlink">
 <defs>
  <style type="text/css">
   <![CDATA[
    .fil0 {fill:#1F1B20;fill-rule:nonzero}
   ]]>
  </style>
 </defs>
 <g id="Layer_x0020_1">
  <metadata id="CorelCorpID_0Corel-Layer"/>
  <path class="fil0" d="M81 2048c-22,0 -81,-10 -81,-46 0,-25 36,-45 81,-45 135,0 269,0 403,0 15,-1 28,-2 42,-4 74,-13 130,-51 170,-101 44,-56 65,-125 65,-191 -2,-112 -71,-207 -190,-207 -75,0 -146,44 -174,114 -13,31 -15,66 -6,100 8,32 28,62 59,88 25,21 15,49 -22,63 -38,14 -88,9 -113,-12 -46,-38 -73,-81 -85,-126 -12,-44 -9,-91 8,-133 52,-128 199,-184 328,-185 186,-2 355,98 357,297 1,79 -25,161 -78,229 -20,24 -43,47 -70,68l491 0 0 -876c0,-25 37,-45 82,-45 45,0 81,20 81,45l0 921c0,26 -37,46 -82,46l-1266 0z"/>
 </g>
</svg>
