<?xml version="1.0" encoding="UTF-8"?>
<!DOCTYPE svg PUBLIC "-//W3C//DTD SVG 1.1//EN" "http://www.w3.org/Graphics/SVG/1.1/DTD/svg11.dtd">
<!-- Creator: CorelDRAW X8 -->
<svg xmlns="http://www.w3.org/2000/svg" xml:space="preserve" width="1429px" height="1000px" version="1.1" style="shape-rendering:geometricPrecision; text-rendering:geometricPrecision; image-rendering:optimizeQuality; fill-rule:evenodd; clip-rule:evenodd"
viewBox="0 0 1429 1000"
 xmlns:xlink="http://www.w3.org/1999/xlink">
 <defs>
  <style type="text/css">
   <![CDATA[
    .fil0 {fill:#57A7B3;fill-rule:nonzero}
   ]]>
  </style>
 </defs>
 <g id="Layer_x0020_1">
  <metadata id="CorelCorpID_0Corel-Layer"/>
  <path class="fil0" d="M81 1000c-22,0 -81,-10 -81,-45 0,-26 36,-46 81,-46l403 0c85,0 159,-37 212,-105 39,-50 63,-117 65,-183 1,-57 -15,-113 -54,-156 -32,-36 -78,-59 -136,-59 -75,1 -146,44 -174,114 -13,32 -15,66 -6,100 9,32 28,63 59,89 25,20 15,49 -22,63 -41,15 -89,9 -121,-20 -41,-36 -66,-77 -77,-118 -12,-45 -9,-91 9,-134 51,-128 198,-183 327,-185 105,0 204,30 271,94 59,55 86,131 86,208 0,80 -29,161 -78,224 -20,25 -43,48 -70,68l491 0 0 -863c0,-26 36,-46 82,-46 45,0 81,20 81,46l0 909c0,25 -37,45 -82,45l-1266 0z"/>
 </g>
</svg>
