<?xml version="1.0" encoding="UTF-8"?>
<!DOCTYPE svg PUBLIC "-//W3C//DTD SVG 1.1//EN" "http://www.w3.org/Graphics/SVG/1.1/DTD/svg11.dtd">
<!-- Creator: CorelDRAW X8 -->
<svg xmlns="http://www.w3.org/2000/svg" xml:space="preserve" width="882px" height="586px" version="1.1" style="shape-rendering:geometricPrecision; text-rendering:geometricPrecision; image-rendering:optimizeQuality; fill-rule:evenodd; clip-rule:evenodd"
viewBox="0 0 882 586"
 xmlns:xlink="http://www.w3.org/1999/xlink">
 <defs>
  <style type="text/css">
   <![CDATA[
    .fil0 {fill:#669933;fill-rule:nonzero}
   ]]>
  </style>
 </defs>
 <g id="Layer_x0020_1">
  <metadata id="CorelCorpID_0Corel-Layer"/>
  <path class="fil0" d="M61 586c-17,0 -61,-6 -61,-30 0,-23 44,-29 61,-29l242 0c87,0 154,-83 153,-168 0,-57 -38,-118 -100,-117 -39,0 -78,27 -93,63 -17,40 -2,81 31,108 11,9 11,18 6,25 -15,19 -53,23 -75,19 -71,-13 -109,-99 -82,-164 34,-81 132,-110 212,-110 112,0 225,54 223,181 0,64 -33,124 -83,163l264 0 0 -497c0,-24 45,-30 62,-30 17,0 61,6 61,30l0 526c0,24 -44,30 -61,30l-760 0z"/>
 </g>
</svg>
