<?xml version="1.0" encoding="UTF-8"?>
<!DOCTYPE svg PUBLIC "-//W3C//DTD SVG 1.1//EN" "http://www.w3.org/Graphics/SVG/1.1/DTD/svg11.dtd">
<!-- Creator: CorelDRAW X8 -->
<svg xmlns="http://www.w3.org/2000/svg" xml:space="preserve" width="2232px" height="1024px" version="1.1" style="shape-rendering:geometricPrecision; text-rendering:geometricPrecision; image-rendering:optimizeQuality; fill-rule:evenodd; clip-rule:evenodd"
viewBox="0 0 2232 1024"
 xmlns:xlink="http://www.w3.org/1999/xlink">
 <defs>
  <style type="text/css">
   <![CDATA[
    .fil0 {fill:black;fill-rule:nonzero}
   ]]>
  </style>
 </defs>
 <g id="Layer_x0020_1">
  <metadata id="CorelCorpID_0Corel-Layer"/>
  <path class="fil0" d="M1987 276c-100,0 -190,47 -250,126 -52,70 -77,156 -77,243 0,74 19,144 55,198 33,50 82,89 144,89 56,1 105,-33 146,-101 44,-71 63,-161 64,-249 2,-108 -21,-215 -82,-306zm-802 632c-92,-96 -142,-220 -143,-352 0,-104 29,-206 83,-296 113,-186 305,-259 514,-260 229,-1 430,93 534,301 42,85 60,179 59,281 -1,98 -24,198 -73,279 -69,114 -181,164 -300,163 -119,-1 -230,-49 -297,-149 -43,-65 -65,-147 -65,-230 0,-99 31,-199 91,-278 78,-104 197,-161 324,-177 -79,-71 -167,-100 -271,-99 -156,2 -279,61 -361,198 -48,79 -75,172 -75,265 0,148 67,286 193,371 22,14 26,36 6,53 -17,16 -48,22 -69,22l-1253 0c-23,0 -82,-11 -82,-46 0,-25 36,-46 82,-46l402 0c159,0 274,-134 277,-287 2,-115 -69,-215 -190,-215 -75,1 -146,44 -174,114 -28,70 -4,141 53,189 25,20 15,49 -23,63 -40,15 -88,9 -120,-20 -74,-65 -107,-158 -69,-252 52,-128 199,-183 328,-184 187,-2 357,98 357,301 0,115 -56,222 -148,291l410 0z"/>
 </g>
</svg>
