<?xml version="1.0" encoding="UTF-8"?>
<!DOCTYPE svg PUBLIC "-//W3C//DTD SVG 1.1//EN" "http://www.w3.org/Graphics/SVG/1.1/DTD/svg11.dtd">
<!-- Creator: CorelDRAW X8 -->
<svg xmlns="http://www.w3.org/2000/svg" xml:space="preserve" width="1643px" height="868px" version="1.1" style="shape-rendering:geometricPrecision; text-rendering:geometricPrecision; image-rendering:optimizeQuality; fill-rule:evenodd; clip-rule:evenodd"
viewBox="0 0 1643 868"
 xmlns:xlink="http://www.w3.org/1999/xlink">
 <defs>
  <style type="text/css">
   <![CDATA[
    .fil0 {fill:#669933;fill-rule:nonzero}
   ]]>
  </style>
 </defs>
 <g id="Layer_x0020_1">
  <metadata id="CorelCorpID_0Corel-Layer"/>
  <path class="fil0" d="M1316 167c-46,3 -87,31 -115,70 -25,36 -40,89 -42,140 -1,34 8,80 26,114 16,29 39,50 69,50 35,0 59,-25 75,-60 21,-44 29,-102 29,-140 1,-62 -11,-123 -42,-174zm-1065 -145c6,11 -1,21 -10,27 -52,34 -87,86 -107,145 -14,39 -21,81 -23,123 -6,123 31,239 116,321 154,150 435,173 634,171 164,-1 385,-11 528,-108 61,-42 109,-100 131,-177 10,-35 14,-74 13,-117 -4,-73 -32,-146 -82,-193 12,37 18,80 17,127 -1,56 -12,114 -39,162 -39,68 -103,98 -174,97 -66,-1 -131,-26 -170,-89 -24,-39 -36,-87 -36,-134 0,-58 17,-116 49,-162 43,-60 106,-93 173,-103 -39,-37 -82,-54 -132,-53 -79,1 -142,37 -185,112 -25,46 -40,99 -40,153 0,44 9,86 27,123 18,36 43,67 77,91 5,4 10,10 10,17 2,14 -15,23 -25,26 -9,4 -21,5 -30,5l-687 0c-15,0 -55,-6 -55,-30 0,-23 40,-29 55,-29l217 0c79,0 139,-84 138,-168 0,-57 -34,-118 -90,-117 -35,0 -70,26 -83,63 -16,40 -2,81 28,108 10,9 9,18 4,25 -12,19 -47,23 -66,19 -65,-13 -99,-99 -74,-165 30,-80 118,-109 190,-109 101,0 203,54 201,181 0,64 -30,124 -75,163l202 0c-23,-27 -41,-58 -54,-91 -13,-35 -20,-72 -20,-110 0,-62 16,-121 45,-173 64,-113 173,-152 288,-153 106,-1 198,38 258,110 70,12 132,47 176,101 42,50 68,117 72,195 2,47 -4,90 -15,129 -26,89 -83,155 -153,203 -168,115 -421,129 -613,130 -230,2 -552,-28 -729,-198 -96,-91 -139,-217 -132,-355 2,-53 12,-104 31,-150 24,-60 79,-141 142,-160 22,-7 64,-7 77,17z"/>
 </g>
</svg>
