<?xml version="1.0" encoding="UTF-8"?>
<!DOCTYPE svg PUBLIC "-//W3C//DTD SVG 1.1//EN" "http://www.w3.org/Graphics/SVG/1.1/DTD/svg11.dtd">
<!-- Creator: CorelDRAW X8 -->
<svg xmlns="http://www.w3.org/2000/svg" xml:space="preserve" width="2547px" height="1487px" version="1.1" style="shape-rendering:geometricPrecision; text-rendering:geometricPrecision; image-rendering:optimizeQuality; fill-rule:evenodd; clip-rule:evenodd"
viewBox="0 0 2547 1486"
 xmlns:xlink="http://www.w3.org/1999/xlink">
 <defs>
  <style type="text/css">
   <![CDATA[
    .fil0 {fill:#E31E24;fill-rule:nonzero}
   ]]>
  </style>
 </defs>
 <g id="Layer_x0020_1">
  <metadata id="CorelCorpID_0Corel-Layer"/>
  <path class="fil0" d="M1987 276c-100,0 -190,46 -250,126 -52,70 -77,156 -77,243 0,73 18,144 54,198 33,50 82,88 144,89 57,1 106,-33 147,-101 43,-72 63,-161 64,-249 1,-109 -22,-215 -82,-306zm109 -90c99,14 190,51 262,108 90,73 148,171 174,276 22,91 20,188 -6,277 -27,90 -80,173 -158,232 -100,76 -217,101 -338,101l-1734 0c-89,0 -133,26 -131,86 1,62 45,82 131,82l2117 0c45,0 82,31 82,69 0,38 -37,69 -82,69l-2117 0c-137,0 -300,-34 -296,-204 3,-123 95,-193 296,-193l1734 1c75,0 147,-19 207,-64 62,-48 105,-117 128,-194 24,-80 26,-167 6,-250 -28,-114 -92,-207 -192,-267 38,81 54,171 53,267 -2,98 -24,198 -73,278 -69,114 -182,165 -301,164 -118,-2 -229,-49 -296,-150 -43,-64 -65,-146 -65,-229 0,-99 31,-199 90,-278 79,-104 198,-161 325,-177 -80,-71 -167,-100 -272,-99 -156,2 -278,61 -361,198 -48,79 -74,172 -74,265 0,148 66,286 193,371 21,15 26,37 6,54 -18,16 -48,21 -69,21l-1253 0c-23,0 -82,-10 -82,-45 0,-26 37,-46 82,-46l402 0c158,0 274,-136 277,-288 2,-115 -69,-215 -190,-215 -75,1 -146,44 -174,114 -28,70 -4,141 53,188 25,21 15,50 -22,64 -41,15 -89,9 -121,-20 -74,-66 -107,-158 -68,-252 51,-128 198,-183 327,-185 187,-1 357,99 357,302 0,115 -56,223 -148,292l409 0c-91,-97 -141,-221 -142,-353 -1,-104 29,-206 83,-296 113,-186 304,-259 514,-260 181,-1 345,58 457,186z"/>
 </g>
</svg>
