<?xml version="1.0" encoding="UTF-8"?>
<!DOCTYPE svg PUBLIC "-//W3C//DTD SVG 1.1//EN" "http://www.w3.org/Graphics/SVG/1.1/DTD/svg11.dtd">
<!-- Creator: CorelDRAW X8 -->
<svg xmlns="http://www.w3.org/2000/svg" xml:space="preserve" width="2558px" height="1487px" version="1.1" style="shape-rendering:geometricPrecision; text-rendering:geometricPrecision; image-rendering:optimizeQuality; fill-rule:evenodd; clip-rule:evenodd"
viewBox="0 0 2558 1486"
 xmlns:xlink="http://www.w3.org/1999/xlink">
 <defs>
  <style type="text/css">
   <![CDATA[
    .fil0 {fill:#E31E24}
   ]]>
  </style>
 </defs>
 <g id="Layer_x0020_1">
  <metadata id="CorelCorpID_0Corel-Layer"/>
  <path class="fil0" d="M1987 276c-100,0 -190,47 -250,126 -52,70 -77,156 -77,243 0,74 18,144 54,198 34,50 83,89 144,89 57,1 106,-33 147,-101 43,-71 63,-161 64,-249 2,-108 -22,-215 -82,-306zm-350 838c81,0 150,8 207,21 141,33 212,99 212,165 0,14 -3,28 -10,42 117,-38 214,-138 274,-256 46,-89 72,-196 75,-322 3,-84 -10,-167 -43,-244 -34,-82 -94,-157 -171,-202 36,80 52,169 51,264 -2,98 -24,198 -73,279 -69,113 -181,164 -301,163 -118,-1 -229,-49 -296,-149 -43,-65 -65,-147 -65,-230 0,-99 31,-199 91,-278 78,-104 197,-161 324,-177 -79,-71 -167,-100 -271,-99 -156,2 -279,61 -362,198 -47,79 -74,172 -74,265 0,148 66,287 193,371 22,15 26,37 6,54 -18,16 -48,21 -69,21l-1254 0c-22,0 -81,-10 -81,-45 0,-26 36,-46 81,-46l403 0c158,0 274,-135 277,-288 2,-115 -69,-215 -190,-215 -75,1 -146,44 -174,114 -28,70 -4,141 53,189 25,20 15,49 -22,63 -41,15 -89,9 -121,-20 -74,-65 -107,-158 -68,-252 51,-128 198,-183 327,-185 187,-1 357,99 357,302 0,115 -56,223 -148,292l409 0c-91,-96 -141,-221 -142,-353 0,-104 29,-206 83,-296 113,-186 305,-259 514,-260 182,-1 346,58 458,187 187,27 340,137 414,312 36,84 49,175 47,266 -4,144 -37,269 -98,373 -82,138 -214,238 -398,296 -128,39 -273,55 -425,52 -82,-2 -159,-7 -227,-25 -128,-35 -192,-98 -192,-161 0,-64 66,-127 197,-161 60,-15 134,-25 222,-25zm0 91c69,0 124,8 165,20 62,18 93,46 93,75 0,29 -31,58 -94,77 -41,12 -96,19 -164,19 -83,0 -145,-11 -188,-27 -47,-19 -71,-44 -70,-69 0,-25 24,-49 70,-67 43,-17 106,-28 188,-28z"/>
 </g>
</svg>
