<?xml version="1.0" encoding="UTF-8"?>
<!DOCTYPE svg PUBLIC "-//W3C//DTD SVG 1.1//EN" "http://www.w3.org/Graphics/SVG/1.1/DTD/svg11.dtd">
<!-- Creator: CorelDRAW X8 -->
<svg xmlns="http://www.w3.org/2000/svg" xml:space="preserve" width="1631px" height="868px" version="1.1" style="shape-rendering:geometricPrecision; text-rendering:geometricPrecision; image-rendering:optimizeQuality; fill-rule:evenodd; clip-rule:evenodd"
viewBox="0 0 1631 869"
 xmlns:xlink="http://www.w3.org/1999/xlink">
 <defs>
  <style type="text/css">
   <![CDATA[
    .fil0 {fill:#669933;fill-rule:nonzero}
   ]]>
  </style>
 </defs>
 <g id="Layer_x0020_1">
  <metadata id="CorelCorpID_0Corel-Layer"/>
  <path class="fil0" d="M1206 167c-50,3 -96,31 -127,70 -31,40 -46,90 -46,140 0,40 10,81 33,115 16,23 44,48 74,49 32,0 60,-32 75,-56 27,-42 38,-95 39,-144 1,-62 -13,-123 -48,-174zm82 -64c90,-2 208,16 278,77 43,37 67,96 64,153 -2,50 -25,93 -66,121 38,20 67,56 67,100 0,33 -14,66 -38,88 -22,19 -48,31 -77,39 -30,7 -62,10 -93,10l-1232 0c-22,0 -38,3 -49,10 -12,8 -18,20 -18,36 1,18 7,29 20,37 10,6 26,8 47,8l1365 0c20,0 36,5 46,14 10,8 15,18 15,29 0,12 -5,22 -15,30 -10,8 -26,14 -46,14l-1365 0c-46,0 -95,-6 -132,-25 -35,-17 -60,-47 -59,-97 1,-37 16,-65 47,-85 31,-19 79,-30 144,-30l1232 0c22,0 46,-5 63,-20 17,-15 27,-36 28,-57 1,-33 -14,-64 -49,-67 -17,-1 -32,0 -48,-5 -14,-4 -26,-12 -25,-27 0,-15 12,-22 26,-25 14,-4 29,-2 44,-7 38,-12 48,-58 50,-95 2,-50 -21,-93 -60,-124 -32,-24 -78,-39 -119,-44 29,50 44,110 43,180 -1,56 -14,114 -44,162 -43,69 -113,98 -193,97 -74,-1 -146,-26 -189,-89 -27,-39 -40,-87 -40,-134 0,-58 19,-116 55,-162 47,-60 117,-93 192,-103 -43,-37 -91,-54 -147,-53 -88,1 -158,37 -205,112 -29,46 -45,99 -45,153 0,44 10,86 30,123 20,36 48,67 85,91 6,4 11,10 12,17 2,15 -17,23 -28,27 -11,3 -23,4 -33,4l-765 0c-17,0 -61,-6 -61,-30 0,-23 44,-29 61,-29l242 0c88,0 154,-83 154,-168 -1,-57 -38,-118 -101,-117 -39,0 -78,27 -93,63 -17,40 -2,81 31,108 11,9 11,18 6,25 -14,19 -53,23 -75,19 -71,-13 -109,-99 -82,-165 34,-80 132,-109 212,-109 112,0 225,54 224,181 -1,64 -33,124 -84,163l224 0c-25,-27 -45,-58 -59,-91 -15,-35 -22,-72 -23,-110 0,-61 18,-121 51,-173 70,-113 192,-152 320,-153 114,-1 213,35 280,103z"/>
 </g>
</svg>
