<?xml version="1.0" encoding="UTF-8"?>
<!DOCTYPE svg PUBLIC "-//W3C//DTD SVG 1.1//EN" "http://www.w3.org/Graphics/SVG/1.1/DTD/svg11.dtd">
<!-- Creator: CorelDRAW X8 -->
<svg xmlns="http://www.w3.org/2000/svg" xml:space="preserve" width="2558px" height="1486px" version="1.1" style="shape-rendering:geometricPrecision; text-rendering:geometricPrecision; image-rendering:optimizeQuality; fill-rule:evenodd; clip-rule:evenodd"
viewBox="0 0 2558 1486"
 xmlns:xlink="http://www.w3.org/1999/xlink">
 <defs>
  <style type="text/css">
   <![CDATA[
    .fil0 {fill:black}
   ]]>
  </style>
 </defs>
 <g id="Layer_x0020_1">
  <metadata id="CorelCorpID_0Corel-Layer"/>
  <path class="fil0" d="M1987 276c-100,0 -190,46 -250,126 -52,70 -77,156 -77,243 0,73 18,143 54,197 34,50 83,89 144,90 57,1 106,-34 147,-101 43,-72 63,-161 64,-250 2,-108 -22,-214 -82,-305zm-350 838c81,0 150,8 207,21 141,33 212,98 212,165 0,14 -3,28 -10,42 117,-38 214,-138 274,-256 46,-89 72,-196 75,-322 3,-84 -10,-167 -43,-244 -34,-82 -94,-157 -171,-202 36,80 52,169 51,263 -2,99 -24,199 -73,279 -69,114 -181,164 -301,163 -118,-1 -229,-48 -296,-149 -43,-64 -65,-146 -65,-229 0,-99 31,-199 91,-278 78,-104 197,-161 324,-178 -79,-70 -167,-99 -271,-98 -156,2 -279,61 -362,198 -48,79 -74,172 -74,265 0,148 66,286 193,371 22,15 26,36 6,54 -18,15 -48,21 -69,21l-1254 0c-22,0 -81,-10 -81,-46 0,-25 36,-45 81,-45l403 0c158,0 274,-136 277,-289 2,-115 -69,-214 -190,-214 -75,1 -146,44 -174,114 -28,70 -4,141 53,188 25,21 15,49 -22,63 -41,15 -89,10 -121,-19 -74,-66 -107,-158 -68,-252 51,-128 198,-184 327,-185 187,-1 357,99 357,302 0,115 -56,223 -148,292l409 0c-91,-97 -141,-221 -142,-353 0,-104 29,-206 83,-296 113,-186 304,-259 514,-260 182,-1 346,58 458,187 186,27 340,137 414,312 36,84 49,175 47,266 -4,143 -37,269 -98,373 -82,137 -214,238 -398,295 -128,40 -273,56 -425,53 -82,-2 -159,-8 -227,-26 -128,-34 -192,-97 -192,-160 0,-64 66,-128 197,-161 60,-16 134,-25 222,-25zm0 91c-82,0 -145,10 -188,27 -46,18 -70,43 -70,68 -1,25 23,50 70,68 43,17 105,28 188,28 68,0 123,-8 164,-20 63,-18 94,-47 94,-76 0,-29 -31,-57 -93,-76 -41,-12 -96,-19 -165,-19z"/>
 </g>
</svg>
