<?xml version="1.0" encoding="UTF-8"?>
<!DOCTYPE svg PUBLIC "-//W3C//DTD SVG 1.1//EN" "http://www.w3.org/Graphics/SVG/1.1/DTD/svg11.dtd">
<!-- Creator: CorelDRAW X8 -->
<svg xmlns="http://www.w3.org/2000/svg" xml:space="preserve" width="2647px" height="1486px" version="1.1" style="shape-rendering:geometricPrecision; text-rendering:geometricPrecision; image-rendering:optimizeQuality; fill-rule:evenodd; clip-rule:evenodd"
viewBox="0 0 2645 1485"
 xmlns:xlink="http://www.w3.org/1999/xlink">
 <defs>
  <style type="text/css">
   <![CDATA[
    .fil0 {fill:#669933;fill-rule:nonzero}
   ]]>
  </style>
 </defs>
 <g id="Layer_x0020_1">
  <metadata id="CorelCorpID_0Corel-Layer"/>
  <path class="fil0" d="M1980 269c-95,14 -184,54 -243,133 -53,69 -78,155 -78,242 0,74 19,144 55,198 33,49 82,88 144,89 56,1 105,-33 146,-101 44,-71 63,-161 64,-249 2,-120 -25,-235 -88,-312zm-339 -178c-156,1 -279,61 -361,197 -48,80 -74,172 -75,265 0,148 67,287 193,371 22,15 26,37 6,54 -17,16 -48,21 -69,21l-1252 0c-23,0 -82,-10 -82,-45 0,-26 37,-46 82,-46l402 0c158,0 274,-135 276,-288 2,-115 -68,-215 -190,-214 -74,0 -145,44 -173,113 -28,70 -4,142 53,189 25,20 15,49 -23,63 -40,15 -88,9 -120,-20 -74,-65 -106,-157 -68,-252 51,-127 198,-183 327,-184 187,-2 356,99 356,301 0,115 -55,223 -147,292l409 0c-92,-96 -141,-220 -142,-353 -1,-103 29,-206 83,-295 112,-187 304,-259 513,-260 169,-1 329,47 448,177 149,-6 335,24 451,128 72,66 111,167 106,263 -4,81 -40,159 -113,209 66,34 114,95 114,172 0,50 -19,108 -62,149 -70,66 -170,81 -263,81l-2024 0c-89,0 -133,26 -131,85 1,62 45,83 131,83l2232 0c44,0 81,30 81,69 0,38 -37,69 -81,69l-2232 0c-137,0 -300,-35 -296,-204 3,-123 95,-193 296,-193l2024 0c43,0 91,-8 124,-38 27,-24 40,-63 38,-101 -1,-38 -16,-75 -44,-98 -33,-27 -66,-20 -106,-23 -53,-5 -78,-27 -77,-48 1,-21 27,-42 77,-43 39,-1 70,-13 94,-32 40,-34 56,-88 59,-143 9,-189 -163,-291 -333,-297 58,100 81,200 79,316 -1,98 -24,198 -73,278 -69,114 -181,165 -300,163 -118,-1 -229,-48 -296,-149 -43,-64 -66,-146 -66,-229 0,-99 32,-199 91,-278 78,-104 197,-161 324,-177 -80,-71 -167,-100 -270,-98z"/>
 </g>
</svg>
