<?xml version="1.0" encoding="UTF-8"?>
<!DOCTYPE svg PUBLIC "-//W3C//DTD SVG 1.1//EN" "http://www.w3.org/Graphics/SVG/1.1/DTD/svg11.dtd">
<!-- Creator: CorelDRAW X8 -->
<svg xmlns="http://www.w3.org/2000/svg" xml:space="preserve" width="2547px" height="1486px" version="1.1" style="shape-rendering:geometricPrecision; text-rendering:geometricPrecision; image-rendering:optimizeQuality; fill-rule:evenodd; clip-rule:evenodd"
viewBox="0 0 2547 1486"
 xmlns:xlink="http://www.w3.org/1999/xlink">
 <defs>
  <style type="text/css">
   <![CDATA[
    .fil0 {fill:#669933;fill-rule:nonzero}
   ]]>
  </style>
 </defs>
 <g id="Layer_x0020_1">
  <metadata id="CorelCorpID_0Corel-Layer"/>
  <path class="fil0" d="M1987 276c-100,0 -190,46 -250,126 -52,70 -77,156 -77,242 0,74 18,144 54,198 33,50 82,89 144,90 57,0 106,-34 147,-101 43,-72 63,-161 64,-250 1,-108 -22,-214 -82,-305zm109 -90c99,14 190,51 262,108 90,72 148,171 174,275 22,92 20,189 -6,277 -27,91 -80,173 -158,233 -100,76 -217,101 -338,100l-1734 0c-89,0 -133,27 -131,86 1,62 45,82 131,82l2117 0c45,0 82,31 82,70 0,38 -37,69 -82,69l-2117 0c-137,0 -300,-35 -296,-204 3,-123 95,-193 296,-193l1734 0c75,0 147,-18 207,-64 62,-48 105,-116 128,-193 24,-80 26,-168 6,-250 -28,-114 -92,-207 -192,-267 38,81 54,171 53,266 -2,99 -24,199 -73,279 -69,114 -182,164 -301,163 -118,-1 -229,-48 -296,-149 -43,-65 -65,-146 -65,-230 0,-98 31,-198 90,-277 79,-104 198,-161 325,-178 -80,-70 -167,-99 -272,-98 -156,2 -278,61 -361,198 -48,79 -74,171 -74,264 0,149 66,287 193,372 21,14 26,36 6,54 -18,15 -48,21 -69,21l-1253 0c-23,0 -82,-10 -82,-46 0,-25 37,-45 82,-45l402 0c158,0 274,-136 277,-289 2,-115 -69,-214 -190,-214 -75,0 -146,44 -174,114 -28,70 -4,141 53,188 25,21 15,49 -22,63 -41,15 -89,10 -121,-19 -74,-66 -107,-158 -68,-252 51,-128 198,-184 327,-185 187,-1 357,99 357,301 0,116 -56,224 -148,293l409 0c-91,-97 -141,-221 -142,-353 -1,-104 29,-206 83,-296 113,-186 304,-259 514,-260 181,-1 345,58 457,186z"/>
 </g>
</svg>
