<?xml version="1.0" encoding="UTF-8"?>
<!DOCTYPE svg PUBLIC "-//W3C//DTD SVG 1.1//EN" "http://www.w3.org/Graphics/SVG/1.1/DTD/svg11.dtd">
<!-- Creator: CorelDRAW X8 -->
<svg xmlns="http://www.w3.org/2000/svg" xml:space="preserve" width="1508px" height="1024px" version="1.1" style="shape-rendering:geometricPrecision; text-rendering:geometricPrecision; image-rendering:optimizeQuality; fill-rule:evenodd; clip-rule:evenodd"
viewBox="0 0 1508 1024"
 xmlns:xlink="http://www.w3.org/1999/xlink">
 <defs>
  <style type="text/css">
   <![CDATA[
    .fil0 {fill:#669933;fill-rule:nonzero}
   ]]>
  </style>
 </defs>
 <g id="Layer_x0020_1">
  <metadata id="CorelCorpID_0Corel-Layer"/>
  <path class="fil0" d="M944 811c-74,59 -153,107 -246,146 -97,42 -201,66 -316,67 -67,1 -132,-6 -186,-19 -104,-26 -189,-85 -193,-201 -4,-113 64,-164 165,-190 113,-30 265,-25 437,-19 186,6 397,12 529,-27 63,-18 116,-49 153,-94 37,-45 58,-100 59,-159 0,-59 -20,-123 -66,-165 -44,-40 -102,-57 -161,-58 -153,-3 -227,103 -227,214l0 190c0,25 -37,45 -82,45 -44,0 -80,-21 -80,-46l0 -189c0,-92 -46,-149 -113,-182 -44,-22 -108,-31 -168,-33 -79,-3 -205,6 -260,72 20,-8 43,-13 66,-14 114,-7 244,66 244,196 0,132 -128,196 -242,196 -77,0 -145,-20 -191,-61 -41,-37 -66,-91 -66,-164 0,-104 42,-176 107,-225 90,-67 222,-90 342,-91 121,-1 273,15 362,107 78,-79 201,-107 308,-106 110,0 222,31 299,102 63,57 91,134 90,212 -1,70 -27,140 -74,198 -24,29 -53,54 -86,75 88,34 159,103 160,206 1,148 -144,229 -287,230 -134,2 -265,-66 -277,-213zm147 -17c-1,94 65,141 130,139 62,-2 124,-49 124,-139 1,-89 -61,-137 -124,-137 -65,0 -130,43 -130,137zm-937 -449c0,70 53,105 105,105 51,0 101,-37 101,-105 0,-70 -51,-105 -103,-105 -51,0 -103,35 -103,105zm778 344c-104,3 -223,0 -327,-3 -163,-6 -307,-11 -376,15 -42,15 -68,59 -69,103 -2,67 47,105 108,118 40,8 79,12 116,13 93,1 177,-21 255,-58 91,-44 209,-110 293,-188z"/>
 </g>
</svg>
