<?xml version="1.0" encoding="UTF-8"?>
<!DOCTYPE svg PUBLIC "-//W3C//DTD SVG 1.1//EN" "http://www.w3.org/Graphics/SVG/1.1/DTD/svg11.dtd">
<!-- Creator: CorelDRAW X8 -->
<svg xmlns="http://www.w3.org/2000/svg" xml:space="preserve" width="1778px" height="1486px" version="1.1" style="shape-rendering:geometricPrecision; text-rendering:geometricPrecision; image-rendering:optimizeQuality; fill-rule:evenodd; clip-rule:evenodd"
viewBox="0 0 1778 1486"
 xmlns:xlink="http://www.w3.org/1999/xlink">
 <defs>
  <style type="text/css">
   <![CDATA[
    .fil0 {fill:#E31E24;fill-rule:nonzero}
   ]]>
  </style>
 </defs>
 <g id="Layer_x0020_1">
  <metadata id="CorelCorpID_0Corel-Layer"/>
  <path class="fil0" d="M944 811c-74,58 -153,106 -246,146 -96,42 -200,66 -315,67 -68,1 -133,-6 -186,-19 -105,-26 -189,-85 -194,-201 -4,-113 64,-164 165,-190 114,-30 265,-25 437,-19 186,6 397,12 529,-27 63,-19 116,-49 153,-94 37,-46 58,-101 59,-160 0,-59 -20,-122 -67,-164 -43,-40 -102,-58 -160,-59 -153,-2 -227,103 -227,215 0,27 0,163 0,189 0,26 -37,46 -81,46 -45,0 -81,-21 -81,-46 0,-26 0,-162 0,-189 0,-92 -46,-149 -113,-182 -44,-22 -108,-31 -168,-33 -79,-3 -205,7 -261,72 21,-8 44,-13 67,-14 114,-7 244,66 244,196 0,132 -128,196 -242,196 -77,0 -145,-19 -191,-61 -41,-37 -66,-91 -66,-164 0,-103 42,-175 107,-224 90,-68 222,-91 342,-92 121,-1 273,15 362,107 78,-79 201,-107 308,-107 110,1 222,32 299,102 63,57 91,134 90,212 -2,83 -37,162 -95,221 112,-3 197,21 259,71 70,56 106,144 106,233 0,90 -33,159 -85,211 -93,93 -247,130 -384,130l-1010 0c-89,0 -133,26 -131,85 1,63 45,83 131,83l1350 -1c45,0 81,31 81,69 0,38 -36,69 -81,69l-1350 1c-137,0 -299,-35 -296,-204 3,-123 95,-193 296,-193l1010 0c104,0 199,-28 254,-94 33,-38 52,-90 52,-156 0,-67 -23,-138 -77,-181 -31,-25 -73,-40 -126,-38 56,39 96,96 96,173 1,148 -144,229 -287,231 -133,2 -264,-66 -277,-213zm147 -18c0,95 65,141 130,139 62,-2 124,-48 124,-139 1,-89 -61,-137 -124,-137 -64,0 -130,43 -130,137zm-937 -448c0,70 53,105 105,105 51,0 101,-37 101,-105 0,-70 -51,-105 -103,-105 -52,0 -103,35 -103,105zm778 343c-104,4 -222,1 -326,-3 -163,-5 -308,-10 -377,16 -42,15 -68,59 -69,103 -2,67 47,105 108,118 142,29 262,7 371,-46 92,-43 210,-110 293,-188z"/>
 </g>
</svg>
