<?xml version="1.0" encoding="UTF-8"?>
<!DOCTYPE svg PUBLIC "-//W3C//DTD SVG 1.1//EN" "http://www.w3.org/Graphics/SVG/1.1/DTD/svg11.dtd">
<!-- Creator: CorelDRAW X8 -->
<svg xmlns="http://www.w3.org/2000/svg" xml:space="preserve" width="3484px" height="1487px" version="1.1" style="shape-rendering:geometricPrecision; text-rendering:geometricPrecision; image-rendering:optimizeQuality; fill-rule:evenodd; clip-rule:evenodd"
viewBox="0 0 3484 1487"
 xmlns:xlink="http://www.w3.org/1999/xlink">
 <defs>
  <style type="text/css">
   <![CDATA[
    .fil0 {fill:#E31E24;fill-rule:nonzero}
   ]]>
  </style>
 </defs>
 <g id="Layer_x0020_1">
  <metadata id="CorelCorpID_0Corel-Layer"/>
  <path class="fil0" d="M2543 811c-73,58 -153,106 -245,146 -97,42 -201,66 -316,67 -67,1 -132,-6 -186,-19 -104,-26 -189,-85 -194,-201 -4,-113 65,-164 166,-190 113,-30 264,-25 437,-19 186,6 397,12 528,-27 63,-19 116,-49 153,-94 37,-46 59,-101 59,-160 0,-59 -20,-122 -66,-164 -44,-40 -102,-58 -161,-59 -153,-2 -227,103 -227,215 0,27 0,163 0,189 0,25 -36,46 -81,46 -45,0 -81,-21 -81,-46 0,-26 0,-162 0,-189 0,-92 -46,-149 -113,-182 -44,-22 -108,-31 -168,-33 -79,-3 -205,7 -260,72 20,-8 43,-13 66,-14 115,-7 244,66 244,196 0,132 -128,196 -242,196 -73,0 -138,-18 -184,-55 -70,171 -194,319 -361,407 -133,70 -286,102 -442,118 -82,8 -185,14 -292,13 -127,-1 -258,-10 -351,-33 -128,-33 -233,-92 -222,-210 15,-161 190,-180 321,-188 89,-6 192,-1 299,3 157,5 436,20 576,-56 85,-45 144,-129 146,-227 0,-60 -21,-122 -67,-163 -43,-40 -102,-58 -160,-59 -153,-2 -227,103 -227,215 0,27 0,163 0,189 0,25 -37,46 -81,46 -45,0 -81,-21 -81,-46 0,-26 0,-162 0,-189 0,-92 -46,-149 -113,-182 -44,-22 -108,-31 -168,-33 -79,-3 -205,7 -261,72 21,-8 44,-13 67,-14 114,-7 244,66 244,196 0,132 -128,196 -242,196 -77,0 -145,-19 -191,-61 -9,-8 -17,-16 -24,-26 -27,-35 -42,-80 -42,-138 0,-103 42,-175 107,-224 90,-68 222,-91 342,-92 121,-1 273,15 362,107 78,-79 201,-107 308,-107 110,1 222,32 299,102 60,55 91,131 91,209 -1,129 -85,235 -196,295 -188,102 -490,85 -698,79 -104,-4 -202,-7 -277,-2 -67,5 -163,18 -171,103 -7,70 53,103 126,122 77,19 180,26 284,27 100,0 200,-6 276,-14 144,-15 288,-46 408,-109 182,-97 303,-263 341,-539 10,-76 43,-135 104,-181 90,-68 222,-91 342,-92 121,-1 273,15 362,107 78,-79 201,-107 308,-107 110,1 222,32 299,102 63,57 91,134 90,212 -1,78 -33,154 -85,211 37,-7 78,-12 121,-13 60,-1 121,6 172,21 83,24 150,75 156,172 4,57 -22,109 -67,144 49,31 82,78 80,138 -2,57 -26,100 -63,130 -53,44 -132,63 -215,63l-1309 0c-89,0 -133,26 -131,86 1,62 45,82 131,82l1458 -1c45,0 82,31 82,70 0,38 -37,69 -82,69l-1458 1c-137,0 -300,-35 -296,-204 2,-123 94,-194 296,-194l1308 0c61,0 114,-40 117,-103 1,-26 -8,-52 -27,-69 -16,-14 -35,-18 -56,-17 -45,2 -84,-16 -88,-42 -2,-9 3,-19 11,-27 14,-13 40,-23 71,-23 20,0 36,-8 50,-22 20,-21 28,-49 26,-78 -6,-86 -96,-101 -166,-104 -47,-1 -96,3 -140,11 61,39 104,98 104,178 1,148 -144,229 -286,231 -134,1 -265,-66 -278,-213zm-2389 -466c0,70 53,105 105,105 51,0 101,-37 101,-105 0,-70 -51,-105 -103,-105 -52,0 -103,35 -103,105zm2536 448c0,95 65,141 131,139 62,-2 123,-48 124,-139 0,-89 -62,-137 -125,-137 -64,0 -129,43 -130,137zm-937 -448c0,70 53,105 106,105 50,0 101,-37 100,-105 0,-70 -51,-105 -103,-105 -51,0 -103,35 -103,105zm778 343c-104,4 -222,1 -326,-3 -163,-5 -308,-10 -377,16 -42,15 -68,59 -69,103 -1,67 48,105 108,118 142,29 262,7 371,-46 92,-44 210,-110 293,-188z"/>
 </g>
</svg>
