<?xml version="1.0" encoding="UTF-8"?>
<!DOCTYPE svg PUBLIC "-//W3C//DTD SVG 1.1//EN" "http://www.w3.org/Graphics/SVG/1.1/DTD/svg11.dtd">
<!-- Creator: CorelDRAW X8 -->
<svg xmlns="http://www.w3.org/2000/svg" xml:space="preserve" width="1827px" height="1486px" version="1.1" style="shape-rendering:geometricPrecision; text-rendering:geometricPrecision; image-rendering:optimizeQuality; fill-rule:evenodd; clip-rule:evenodd"
viewBox="0 0 1827 1487"
 xmlns:xlink="http://www.w3.org/1999/xlink">
 <defs>
  <style type="text/css">
   <![CDATA[
    .fil0 {fill:#00A0E3}
   ]]>
  </style>
 </defs>
 <g id="Layer_x0020_1">
  <metadata id="CorelCorpID_0Corel-Layer"/>
  <path class="fil0" d="M812 1200c69,0 124,7 165,19 62,18 93,47 93,75 0,30 -31,59 -94,77 -41,12 -96,20 -164,20 -83,0 -146,-11 -189,-28 -47,-18 -70,-43 -70,-68 1,-25 24,-50 71,-68 43,-16 106,-27 188,-27zm0 -91c80,0 150,8 207,21 141,32 212,98 212,164 0,28 -12,55 -36,81 121,-30 236,-81 327,-162 85,-77 140,-183 142,-293 3,-151 -99,-299 -258,-303 60,38 102,97 103,176 1,148 -144,229 -287,231 -134,2 -265,-66 -278,-213 -73,59 -153,107 -245,146 -97,42 -201,67 -316,68 -67,0 -133,-7 -186,-20 -105,-25 -189,-85 -194,-201 -4,-113 65,-164 166,-190 113,-30 264,-25 437,-19 186,6 397,12 528,-27 63,-19 116,-49 153,-94 37,-46 59,-101 59,-160 1,-59 -20,-122 -66,-164 -44,-40 -102,-58 -161,-59 -153,-2 -226,103 -227,215l0 190c0,25 -36,45 -81,45 -45,0 -81,-21 -81,-46l0 -189c0,-92 -46,-149 -113,-182 -44,-22 -108,-31 -168,-33 -79,-3 -205,7 -260,73 20,-9 43,-14 66,-15 114,-7 244,66 244,196 0,132 -128,196 -242,196 -77,1 -145,-19 -191,-61 -41,-37 -66,-91 -66,-163 0,-104 42,-176 107,-225 90,-68 222,-91 342,-92 121,-1 273,15 362,107 78,-79 201,-107 308,-107 110,1 222,32 299,102 63,58 92,135 90,212 -1,81 -35,159 -91,217 225,8 412,152 410,389 -1,129 -66,251 -167,341 -126,113 -299,174 -477,203 -127,21 -255,25 -372,21 -82,-3 -160,-12 -226,-29 -128,-35 -192,-98 -192,-161 0,-64 66,-128 197,-161 60,-16 134,-25 222,-25zm279 -316c0,95 66,142 131,139 62,-2 123,-48 124,-139 0,-88 -62,-136 -125,-136 -64,0 -129,43 -130,136zm-937 -448c0,70 53,105 105,105 51,0 101,-37 101,-105 0,-70 -51,-105 -103,-105 -51,0 -103,35 -103,105zm778 344c-104,3 -222,0 -326,-3 -163,-6 -308,-11 -377,15 -42,15 -68,59 -69,103 -1,68 47,105 108,118 40,8 78,12 115,13 94,2 178,-21 256,-58 92,-44 210,-110 293,-188z"/>
 </g>
</svg>
