<?xml version="1.0" encoding="UTF-8"?>
<!DOCTYPE svg PUBLIC "-//W3C//DTD SVG 1.1//EN" "http://www.w3.org/Graphics/SVG/1.1/DTD/svg11.dtd">
<!-- Creator: CorelDRAW X8 -->
<svg xmlns="http://www.w3.org/2000/svg" xml:space="preserve" width="1885px" height="1487px" version="1.1" style="shape-rendering:geometricPrecision; text-rendering:geometricPrecision; image-rendering:optimizeQuality; fill-rule:evenodd; clip-rule:evenodd"
viewBox="0 0 1977 1560"
 xmlns:xlink="http://www.w3.org/1999/xlink">
 <defs>
  <style type="text/css">
   <![CDATA[
    .fil0 {fill:#E31E24;fill-rule:nonzero}
   ]]>
  </style>
 </defs>
 <g id="Layer_x0020_1">
  <metadata id="CorelCorpID_0Corel-Layer"/>
  <path class="fil0" d="M991 850c-78,62 -161,112 -258,154 -102,44 -211,70 -331,71 -71,0 -139,-7 -196,-21 -109,-27 -198,-89 -203,-211 -4,-118 68,-171 174,-199 118,-31 277,-26 458,-20 195,6 417,13 554,-28 66,-20 122,-52 161,-99 39,-48 61,-105 62,-167 0,-62 -21,-129 -70,-173 -46,-42 -107,-60 -168,-61 -160,-3 -238,108 -238,225 0,28 0,171 0,199 -1,26 -39,47 -86,47 -47,0 -85,-21 -84,-48 0,-27 0,-170 0,-198 0,-96 -49,-157 -119,-191 -46,-23 -114,-32 -176,-34 -83,-4 -215,6 -273,76 22,-10 45,-15 69,-16 120,-7 256,69 257,206 0,139 -135,206 -254,206 -81,0 -152,-21 -201,-65 -43,-38 -69,-95 -69,-171 0,-109 44,-185 112,-236 94,-71 233,-95 359,-96 127,-1 286,16 380,112 81,-83 211,-112 323,-112 115,1 233,33 314,107 65,60 95,141 94,223 -2,81 -35,161 -90,221 39,-8 83,-13 127,-14 63,-1 127,6 181,22 87,25 157,79 164,180 4,61 -23,115 -71,152 52,32 87,82 84,145 -2,59 -27,104 -66,136 -55,46 -139,66 -226,66l-1373 0c-93,0 -139,28 -138,90 2,65 48,87 139,86l1529 0c48,0 86,32 86,72 0,40 -38,73 -86,73l-1529 1c-144,0 -315,-37 -311,-214 2,-129 99,-203 310,-203l1373 0c64,0 119,-43 122,-109 1,-26 -8,-54 -28,-72 -17,-15 -37,-19 -59,-18 -47,2 -88,-17 -92,-43 -2,-11 3,-20 11,-29 15,-14 43,-24 75,-24 20,0 38,-8 52,-23 21,-23 30,-52 28,-82 -6,-91 -101,-107 -175,-109 -48,-2 -101,3 -146,11 63,41 109,103 109,187 1,155 -151,240 -301,242 -140,2 -277,-69 -290,-224zm153 -18c0,100 69,148 137,146 65,-2 130,-51 130,-146 1,-93 -64,-143 -130,-143 -68,0 -136,45 -137,143zm-983 -470c0,73 56,110 111,110 53,0 106,-39 106,-110 0,-73 -54,-110 -108,-110 -54,0 -109,36 -109,110zm817 360c-109,4 -234,1 -343,-3 -171,-5 -322,-11 -395,16 -44,16 -71,63 -72,108 -2,71 50,110 113,124 149,31 275,7 389,-48 96,-46 220,-115 308,-197z"/>
 </g>
</svg>
