<?xml version="1.0" encoding="UTF-8"?>
<!DOCTYPE svg PUBLIC "-//W3C//DTD SVG 1.1//EN" "http://www.w3.org/Graphics/SVG/1.1/DTD/svg11.dtd">
<!-- Creator: CorelDRAW X8 -->
<svg xmlns="http://www.w3.org/2000/svg" xml:space="preserve" width="1827px" height="1486px" version="1.1" style="shape-rendering:geometricPrecision; text-rendering:geometricPrecision; image-rendering:optimizeQuality; fill-rule:evenodd; clip-rule:evenodd"
viewBox="0 0 1827 1487"
 xmlns:xlink="http://www.w3.org/1999/xlink">
 <defs>
  <style type="text/css">
   <![CDATA[
    .fil0 {fill:#E31E24;fill-rule:nonzero}
   ]]>
  </style>
 </defs>
 <g id="Layer_x0020_1">
  <metadata id="CorelCorpID_0Corel-Layer"/>
  <path class="fil0" d="M932 689c-104,3 -222,0 -326,-3 -163,-6 -308,-11 -377,15 -42,15 -68,59 -69,103 -1,68 47,105 108,118 142,30 262,7 371,-45 92,-44 210,-110 293,-188zm482 -154c226,6 411,148 413,381 1,130 -65,255 -167,347 -127,114 -284,170 -449,197 -106,18 -257,29 -396,26 -83,-2 -162,-9 -225,-23 -103,-23 -261,-88 -244,-219 6,-47 44,-87 97,-116 57,-30 124,-45 188,-46 63,0 136,13 189,48 47,-32 116,-48 186,-48 70,0 142,16 190,45 55,35 78,80 77,126 -1,43 -21,86 -55,122 111,-27 215,-81 304,-160 87,-78 143,-187 142,-299 0,-147 -99,-291 -254,-297 57,38 98,97 99,174 1,148 -144,229 -287,231 -134,2 -265,-66 -278,-213 -73,59 -153,107 -245,146 -97,42 -201,67 -316,68 -67,0 -133,-7 -186,-20 -105,-25 -189,-85 -194,-201 -4,-113 65,-164 166,-190 113,-30 264,-25 437,-19 186,6 397,12 528,-27 63,-19 116,-49 153,-94 37,-46 59,-101 59,-160 1,-59 -20,-122 -66,-164 -44,-40 -102,-58 -161,-59 -153,-2 -227,103 -227,215 0,27 0,164 0,190 0,25 -36,45 -81,45 -45,0 -81,-21 -81,-46 0,-26 0,-162 0,-189 0,-92 -46,-149 -113,-182 -44,-22 -108,-31 -168,-33 -79,-3 -205,7 -260,73 20,-9 43,-14 66,-15 114,-7 244,66 244,196 0,132 -128,196 -242,196 -77,1 -145,-19 -191,-61 -41,-37 -66,-91 -66,-163 0,-104 42,-176 107,-225 90,-68 222,-91 342,-92 121,-1 273,15 362,107 78,-79 201,-107 308,-107 110,1 222,32 299,102 63,58 92,135 90,212 -1,83 -36,162 -94,221zm-596 858c53,0 158,-3 230,-35 46,-20 79,-53 77,-103 -2,-59 -69,-85 -119,-85 -67,0 -104,47 -103,113 0,35 -55,46 -82,46 -27,0 -81,-11 -81,-46 0,-74 -49,-111 -109,-112 -50,-1 -127,26 -126,86 1,54 42,87 95,107 73,26 168,29 218,29zm-664 -1048c0,70 53,105 105,105 51,0 101,-37 101,-105 0,-70 -51,-105 -103,-105 -51,0 -103,35 -103,105zm937 448c0,95 66,142 131,139 62,-2 123,-48 124,-139 0,-88 -62,-136 -125,-136 -64,0 -129,43 -130,136z"/>
 </g>
</svg>
