<?xml version="1.0" encoding="UTF-8"?>
<!DOCTYPE svg PUBLIC "-//W3C//DTD SVG 1.1//EN" "http://www.w3.org/Graphics/SVG/1.1/DTD/svg11.dtd">
<!-- Creator: CorelDRAW X8 -->
<svg xmlns="http://www.w3.org/2000/svg" xml:space="preserve" width="3854px" height="1024px" version="1.1" style="shape-rendering:geometricPrecision; text-rendering:geometricPrecision; image-rendering:optimizeQuality; fill-rule:evenodd; clip-rule:evenodd"
viewBox="0 0 3852 1024"
 xmlns:xlink="http://www.w3.org/1999/xlink">
 <defs>
  <style type="text/css">
   <![CDATA[
    .fil0 {fill:#E31E24;fill-rule:nonzero}
   ]]>
  </style>
 </defs>
 <g id="Layer_x0020_1">
  <metadata id="CorelCorpID_0Corel-Layer"/>
  <path class="fil0" d="M1345 314c1,-61 -21,-122 -66,-164 -44,-40 -102,-57 -160,-58 -153,-3 -227,102 -227,214 0,27 0,163 -1,189 0,25 -36,46 -81,46 -45,0 -81,-21 -81,-46 1,-26 1,-162 1,-189 0,-92 -47,-149 -114,-182 -44,-22 -108,-31 -167,-33 -79,-3 -205,6 -261,72 21,-8 44,-13 67,-14 114,-7 244,66 244,196 0,132 -128,196 -242,196 -77,0 -145,-20 -191,-62 -9,-7 -17,-16 -24,-25 -27,-35 -42,-81 -42,-138 0,-104 42,-176 107,-225 90,-67 222,-90 342,-91 121,-1 273,15 362,107 77,-79 201,-107 308,-106 109,0 221,31 298,102 61,55 91,130 91,208 -1,130 -85,235 -196,295 -134,73 -324,84 -478,84 -79,0 -154,-2 -227,-5 -162,-5 -310,-10 -379,14 -18,7 -31,18 -41,30 -13,17 -20,36 -19,53l0 0c0,41 46,75 120,100 96,32 233,49 383,50 133,2 269,-5 402,-30 178,-34 373,-105 487,-251 -5,-37 -8,-74 -8,-111 0,-102 21,-195 60,-273 83,-166 246,-269 468,-267 141,1 301,48 394,161 86,-105 232,-161 379,-161 85,0 159,14 226,38 66,-24 142,-38 227,-38 197,0 384,98 477,276 45,86 69,192 69,297 0,166 -60,338 -208,427 -41,24 -92,35 -135,9 -31,-18 -29,-47 4,-64 130,-68 176,-235 176,-372 1,-96 -21,-193 -62,-272 -62,-118 -184,-210 -321,-210 -36,0 -69,4 -100,12 159,112 241,302 241,493 0,92 -20,180 -59,251 -65,118 -177,175 -309,175 -131,0 -244,-57 -308,-175 -39,-70 -58,-160 -58,-251 0,-191 81,-381 241,-493 -31,-8 -65,-12 -101,-12 -168,0 -297,130 -297,299l0 588c0,25 -36,45 -81,45 -44,0 -81,-20 -81,-45l0 -588c0,-182 -139,-299 -314,-299 -147,0 -258,90 -317,209 -32,64 -49,137 -50,210 52,-75 130,-116 219,-119 98,-3 191,34 251,97 53,57 81,133 78,222 -3,89 -36,178 -105,236 -58,47 -141,75 -224,77 -84,2 -155,-21 -221,-75 -52,-43 -90,-101 -116,-166 -141,119 -346,183 -514,213 -136,23 -274,29 -413,28 -169,0 -333,-20 -462,-63 -123,-40 -200,-101 -201,-177l0 0c0,-30 11,-62 34,-91 22,-28 55,-52 100,-69l1 0 0 0c113,-41 287,-35 476,-29 73,3 149,5 218,5 111,0 267,-5 366,-59 84,-45 144,-129 145,-226zm1734 -153c-137,96 -204,272 -204,435 0,83 17,163 51,225 32,58 83,111 153,111 70,0 122,-54 154,-112 34,-62 51,-141 51,-224 0,-163 -69,-339 -205,-435zm-1321 549c-1,147 84,222 174,222 84,0 174,-73 174,-222 0,-149 -87,-223 -174,-222 -87,0 -174,74 -174,222zm-1604 -365c0,69 53,105 105,105 51,0 101,-38 101,-105 0,-70 -51,-105 -103,-105 -52,0 -103,35 -103,105z"/>
 </g>
</svg>
