<?xml version="1.0" encoding="UTF-8"?>
<!DOCTYPE svg PUBLIC "-//W3C//DTD SVG 1.1//EN" "http://www.w3.org/Graphics/SVG/1.1/DTD/svg11.dtd">
<!-- Creator: CorelDRAW X8 -->
<svg xmlns="http://www.w3.org/2000/svg" xml:space="preserve" width="2838px" height="2048px" version="1.1" style="shape-rendering:geometricPrecision; text-rendering:geometricPrecision; image-rendering:optimizeQuality; fill-rule:evenodd; clip-rule:evenodd"
viewBox="0 0 2838 2048"
 xmlns:xlink="http://www.w3.org/1999/xlink">
 <defs>
  <style type="text/css">
   <![CDATA[
    .fil0 {fill:black;fill-rule:nonzero}
   ]]>
  </style>
 </defs>
 <g id="Layer_x0020_1">
  <metadata id="CorelCorpID_0Corel-Layer"/>
  <path class="fil0" d="M2041 1944c-62,73 -159,113 -283,116 -156,3 -301,-74 -355,-225 -31,-88 -34,-182 -34,-274 0,-121 1,-256 -84,-353 -53,-60 -137,-81 -220,-81 -49,-1 -98,6 -140,16 132,91 223,233 250,392 19,105 8,215 -37,315 -60,135 -186,209 -333,209 -151,-1 -283,-79 -348,-216 -47,-98 -57,-205 -38,-308 29,-159 126,-302 260,-393 -99,-29 -203,-14 -290,42 -125,81 -188,219 -198,364 -9,148 41,358 185,433 33,18 35,46 4,65 -31,18 -82,19 -115,2 -179,-93 -249,-313 -236,-503 11,-172 90,-325 237,-420 156,-101 364,-114 536,-47 75,-31 146,-38 219,-41 154,-7 317,26 410,131 100,114 100,251 100,393 0,86 3,175 32,256 28,80 98,154 188,152 155,-3 205,-137 205,-270l0 -617c0,-25 36,-46 81,-46 45,0 82,21 82,46l0 616c0,149 70,271 232,271 131,0 238,-96 284,-214 26,-67 36,-142 35,-215 -2,-158 -67,-356 -223,-422 -35,-16 -42,-44 -15,-64 32,-24 83,-22 118,-7 195,86 280,293 283,494 1,91 -14,181 -51,260 -79,169 -248,259 -431,259 -130,0 -239,-39 -310,-116zm-1239 -742c-115,79 -196,206 -221,342 -18,93 -9,189 33,276 34,71 106,148 192,148 80,0 144,-72 174,-140 41,-91 50,-189 34,-284 -24,-135 -100,-262 -212,-342z"/>
 </g>
</svg>
