<?xml version="1.0" encoding="UTF-8"?>
<!DOCTYPE svg PUBLIC "-//W3C//DTD SVG 1.1//EN" "http://www.w3.org/Graphics/SVG/1.1/DTD/svg11.dtd">
<!-- Creator: CorelDRAW X8 -->
<svg xmlns="http://www.w3.org/2000/svg" xml:space="preserve" width="2838px" height="2048px" version="1.1" style="shape-rendering:geometricPrecision; text-rendering:geometricPrecision; image-rendering:optimizeQuality; fill-rule:evenodd; clip-rule:evenodd"
viewBox="0 0 2838 2048"
 xmlns:xlink="http://www.w3.org/1999/xlink">
 <defs>
  <style type="text/css">
   <![CDATA[
    .fil0 {fill:#009846;fill-rule:nonzero}
   ]]>
  </style>
 </defs>
 <g id="Layer_x0020_1">
  <metadata id="CorelCorpID_0Corel-Layer"/>
  <path class="fil0" d="M1369 1573c0,92 3,187 34,274 54,152 199,228 355,225 124,-3 221,-43 283,-116 71,77 180,116 310,116 183,0 352,-90 431,-259 37,-79 52,-168 51,-260 -3,-201 -88,-408 -283,-494 -35,-15 -86,-16 -118,7 -27,20 -20,49 15,64 156,66 221,264 223,422 1,73 -9,148 -35,215 -46,118 -153,214 -284,214 -162,0 -232,-121 -232,-271l0 -616c0,-25 -37,-46 -82,-46 -45,0 -81,21 -81,46l0 617c0,133 -50,267 -205,270 -90,2 -160,-72 -188,-151 -29,-82 -32,-171 -32,-257 0,-118 -1,-222 -46,-310 -81,-163 -243,-214 -416,-215 -86,0 -161,14 -228,38 -66,-24 -141,-38 -226,-38 -198,0 -384,99 -477,276 -45,86 -69,193 -69,298 0,164 59,336 206,425 41,25 93,37 137,10 30,-18 29,-47 -4,-64 -130,-68 -177,-235 -177,-372 0,-96 22,-193 63,-272 61,-118 184,-210 321,-210 36,0 69,4 100,12 -159,112 -241,303 -241,493 0,92 20,180 58,251 65,118 178,175 310,176 131,0 244,-58 308,-176 39,-70 58,-158 58,-249 0,-191 -81,-383 -241,-495 32,-8 65,-12 102,-12 127,0 226,54 271,176 30,80 29,172 29,258zm-528 -364c137,96 205,274 205,437 0,83 -17,161 -51,223 -32,58 -83,111 -153,111 -70,0 -123,-54 -154,-112 -34,-62 -52,-141 -52,-224 1,-163 69,-339 205,-435z"/>
 </g>
</svg>
