<?xml version="1.0" encoding="UTF-8"?>
<!DOCTYPE svg PUBLIC "-//W3C//DTD SVG 1.1//EN" "http://www.w3.org/Graphics/SVG/1.1/DTD/svg11.dtd">
<!-- Creator: CorelDRAW X8 -->
<svg xmlns="http://www.w3.org/2000/svg" xml:space="preserve" width="2838px" height="2048px" version="1.1" style="shape-rendering:geometricPrecision; text-rendering:geometricPrecision; image-rendering:optimizeQuality; fill-rule:evenodd; clip-rule:evenodd"
viewBox="0 0 2838 2048"
 xmlns:xlink="http://www.w3.org/1999/xlink">
 <defs>
  <style type="text/css">
   <![CDATA[
    .fil0 {fill:#1F1B20;fill-rule:nonzero}
   ]]>
  </style>
 </defs>
 <g id="Layer_x0020_1">
  <metadata id="CorelCorpID_0Corel-Layer"/>
  <path class="fil0" d="M1959 1081c0,-25 37,-45 82,-45 45,0 81,20 81,45l0 595c0,88 14,163 78,228 44,43 100,65 155,65 175,0 283,-152 310,-312 31,-185 -22,-458 -214,-539 -35,-16 -42,-44 -15,-64 32,-24 84,-22 119,-6 232,103 312,382 272,617 -42,245 -227,395 -472,395 -116,0 -235,-40 -313,-129 -73,85 -185,128 -296,128 -154,2 -289,-74 -340,-224 -30,-87 -34,-182 -34,-274 0,-121 1,-255 -84,-352 -77,-88 -272,-100 -368,-67 133,92 224,234 252,393 18,105 8,215 -37,315 -61,135 -187,209 -334,209 -150,-1 -283,-79 -348,-216 -47,-98 -57,-205 -38,-308 30,-159 127,-302 261,-393 -100,-29 -204,-14 -290,42 -125,81 -188,219 -198,364 -10,148 41,358 184,433 33,18 35,46 5,65 -31,18 -83,19 -115,2 -179,-93 -249,-313 -236,-503 11,-172 90,-325 237,-420 160,-104 366,-113 542,-45 85,-36 164,-41 233,-43 149,-4 306,30 396,132 99,113 100,250 100,392 0,86 4,175 32,257 33,95 108,150 188,150 170,0 205,-159 205,-296l0 -591zm-1161 121c-115,79 -196,206 -221,342 -17,93 -8,189 33,276 35,71 107,148 192,148 80,0 145,-72 175,-140 40,-90 50,-189 33,-284 -23,-135 -100,-262 -212,-342z"/>
 </g>
</svg>
