<?xml version="1.0" encoding="UTF-8"?>
<!DOCTYPE svg PUBLIC "-//W3C//DTD SVG 1.1//EN" "http://www.w3.org/Graphics/SVG/1.1/DTD/svg11.dtd">
<!-- Creator: CorelDRAW X8 -->
<svg xmlns="http://www.w3.org/2000/svg" xml:space="preserve" width="2765px" height="2048px" version="1.1" style="shape-rendering:geometricPrecision; text-rendering:geometricPrecision; image-rendering:optimizeQuality; fill-rule:evenodd; clip-rule:evenodd"
viewBox="0 0 2765 2048"
 xmlns:xlink="http://www.w3.org/1999/xlink">
 <defs>
  <style type="text/css">
   <![CDATA[
    .fil0 {fill:#009846;fill-rule:nonzero}
   ]]>
  </style>
 </defs>
 <g id="Layer_x0020_1">
  <metadata id="CorelCorpID_0Corel-Layer"/>
  <path class="fil0" d="M1300 1573c0,92 4,187 35,274 54,152 199,228 354,225 124,-3 222,-43 284,-116 70,77 180,116 310,116 183,0 352,-90 431,-259 37,-79 52,-168 51,-260 -3,-201 -89,-408 -283,-494 -35,-15 -87,-16 -119,7 -27,20 -20,49 16,64 156,66 220,264 223,422 1,73 -9,148 -35,215 -47,118 -153,214 -284,214 -162,0 -233,-121 -233,-271l0 -616c0,-25 -36,-46 -81,-46 -45,0 -82,21 -82,46l0 617c0,133 -49,267 -204,270 -90,2 -160,-72 -188,-151 -29,-82 -32,-171 -33,-257 0,-118 -1,-222 -45,-310 -82,-163 -244,-214 -417,-215 -85,0 -161,14 -227,38 -67,-24 -142,-38 -226,-38 -198,0 -385,99 -478,276 -45,86 -69,193 -69,298 0,164 60,336 206,425 42,25 93,37 138,10 30,-18 28,-47 -5,-64 -129,-68 -176,-235 -176,-372 0,-96 22,-193 62,-272 62,-118 185,-210 322,-210 35,0 69,4 100,12 -159,112 -241,303 -241,493 0,92 19,180 58,251 65,118 177,175 310,176 131,0 243,-58 308,-176 38,-70 58,-158 58,-249 0,-191 -82,-383 -241,-495 31,-8 65,-12 101,-12 128,0 226,54 272,176 29,80 28,172 28,258zm-527 -364c137,96 205,274 205,437 0,83 -18,161 -51,223 -32,58 -83,111 -153,111 -71,0 -123,-54 -155,-112 -34,-62 -51,-141 -51,-224 0,-163 68,-339 205,-435z"/>
 </g>
</svg>
