<?xml version="1.0" encoding="UTF-8"?>
<!DOCTYPE svg PUBLIC "-//W3C//DTD SVG 1.1//EN" "http://www.w3.org/Graphics/SVG/1.1/DTD/svg11.dtd">
<!-- Creator: CorelDRAW X8 -->
<svg xmlns="http://www.w3.org/2000/svg" xml:space="preserve" width="2838px" height="2048px" version="1.1" style="shape-rendering:geometricPrecision; text-rendering:geometricPrecision; image-rendering:optimizeQuality; fill-rule:evenodd; clip-rule:evenodd"
viewBox="0 0 2838 2048"
 xmlns:xlink="http://www.w3.org/1999/xlink">
 <defs>
  <style type="text/css">
   <![CDATA[
    .fil0 {fill:#1F1B20;fill-rule:nonzero}
   ]]>
  </style>
 </defs>
 <g id="Layer_x0020_1">
  <metadata id="CorelCorpID_0Corel-Layer"/>
  <path class="fil0" d="M330 1985c30,19 26,48 -8,64 -35,16 -86,14 -115,-5 -38,-25 -70,-55 -96,-90 -84,-110 -119,-264 -109,-402 7,-111 43,-222 112,-310 68,-86 159,-145 259,-177 132,-43 281,-38 415,13 8,-3 16,-5 24,-8 63,-18 137,-30 214,-33 149,-4 306,30 396,132 99,113 100,250 100,392 0,90 0,180 26,255 27,80 92,154 182,153 78,0 151,-58 187,-124 29,-54 32,-101 32,-166 0,-145 0,-595 0,-597 0,-25 37,-45 82,-45 45,0 81,20 81,45l0 595c1,64 9,119 39,168 44,76 128,126 216,124 43,-2 87,-15 127,-39 152,-92 196,-280 178,-446 -16,-141 -84,-305 -222,-366 -35,-16 -41,-44 -13,-64 28,-20 79,-23 114,-7 173,77 263,250 283,432 21,200 -40,404 -221,513 -71,43 -157,66 -243,68 -123,2 -252,-40 -335,-134 -74,89 -189,133 -303,134 -156,1 -292,-76 -344,-227 -28,-82 -28,-177 -28,-272 0,-121 1,-255 -84,-352 -56,-64 -147,-83 -236,-81 -44,1 -87,7 -125,16 51,35 96,77 134,125 85,108 134,244 129,382 -2,64 -16,129 -43,191 -61,138 -189,216 -338,218 -153,2 -288,-77 -355,-217 -30,-61 -44,-127 -46,-194 -3,-88 17,-178 55,-259 45,-99 118,-187 209,-248 -93,-25 -182,-16 -260,23 -52,25 -98,64 -137,114 -62,78 -93,177 -99,276 -9,122 21,266 96,363 21,27 44,49 70,67zm571 -679c-33,-42 -72,-78 -115,-107 -76,50 -138,127 -178,214 -35,76 -54,160 -50,243 3,56 16,112 41,163 48,101 124,151 199,149 69,-2 137,-51 179,-148 26,-57 38,-117 39,-177 3,-121 -40,-243 -115,-337z"/>
 </g>
</svg>
