<?xml version="1.0" encoding="UTF-8"?>
<!DOCTYPE svg PUBLIC "-//W3C//DTD SVG 1.1//EN" "http://www.w3.org/Graphics/SVG/1.1/DTD/svg11.dtd">
<!-- Creator: CorelDRAW X8 -->
<svg xmlns="http://www.w3.org/2000/svg" xml:space="preserve" width="2838px" height="2048px" version="1.1" style="shape-rendering:geometricPrecision; text-rendering:geometricPrecision; image-rendering:optimizeQuality; fill-rule:evenodd; clip-rule:evenodd"
viewBox="0 0 2838 2048"
 xmlns:xlink="http://www.w3.org/1999/xlink">
 <defs>
  <style type="text/css">
   <![CDATA[
    .fil0 {fill:#2B2A29;fill-rule:nonzero}
   ]]>
  </style>
 </defs>
 <g id="Layer_x0020_1">
  <metadata id="CorelCorpID_0Corel-Layer"/>
  <path class="fil0" d="M1026 1037c149,-4 306,30 396,132 99,113 100,250 100,392 0,90 0,180 26,255 27,80 92,154 182,153 78,0 151,-58 187,-124 29,-54 32,-101 32,-166 0,-145 0,-595 0,-597 0,-25 37,-45 82,-45 45,0 81,20 81,45l0 595c1,64 9,119 39,168 44,76 128,126 216,124 43,-2 87,-15 127,-39 152,-92 196,-280 178,-446 -16,-141 -84,-305 -222,-367 -35,-15 -41,-44 -13,-64 32,-22 83,-21 117,-5 171,77 260,250 280,431 21,200 -40,404 -221,513 -71,43 -157,66 -243,68 -123,2 -252,-40 -335,-134 -74,89 -189,133 -303,134 -156,1 -292,-76 -344,-227 -28,-82 -28,-177 -28,-272 0,-121 1,-255 -84,-352 -77,-88 -272,-100 -368,-67 133,92 224,234 252,393 18,105 8,215 -37,315 -61,135 -187,209 -334,209 -150,-1 -283,-79 -348,-216 -47,-98 -57,-205 -38,-308 30,-159 127,-302 261,-393 -100,-29 -204,-14 -290,42 -125,81 -188,219 -198,364 -10,148 41,358 184,433 33,18 35,46 5,65 -31,18 -83,19 -115,2 -179,-93 -249,-313 -236,-503 11,-172 90,-325 237,-420 160,-104 366,-113 542,-45 85,-36 164,-41 233,-43zm-240 165c-115,79 -196,206 -221,342 -17,93 -8,189 33,276 35,71 107,148 192,148 80,0 145,-72 175,-140 40,-90 50,-189 33,-284 -23,-135 -100,-262 -212,-342z"/>
 </g>
</svg>
