<?xml version="1.0" encoding="UTF-8"?>
<!DOCTYPE svg PUBLIC "-//W3C//DTD SVG 1.1//EN" "http://www.w3.org/Graphics/SVG/1.1/DTD/svg11.dtd">
<!-- Creator: CorelDRAW X8 -->
<svg xmlns="http://www.w3.org/2000/svg" xml:space="preserve" width="2765px" height="1024px" version="1.1" style="shape-rendering:geometricPrecision; text-rendering:geometricPrecision; image-rendering:optimizeQuality; fill-rule:evenodd; clip-rule:evenodd"
viewBox="0 0 2765 1024"
 xmlns:xlink="http://www.w3.org/1999/xlink">
 <defs>
  <style type="text/css">
   <![CDATA[
    .fil0 {fill:black;fill-rule:nonzero}
   ]]>
  </style>
 </defs>
 <g id="Layer_x0020_1">
  <metadata id="CorelCorpID_0Corel-Layer"/>
  <path class="fil0" d="M1300 525c0,92 4,187 35,274 52,148 187,225 338,225 108,0 228,-31 300,-116 71,77 180,116 310,116 183,0 352,-90 431,-259 37,-79 52,-170 51,-261 -3,-202 -89,-407 -283,-493 -35,-15 -86,-17 -118,7 -27,20 -20,49 15,64 156,66 221,264 223,422 1,73 -9,148 -35,215 -47,118 -153,214 -284,214 -162,0 -233,-121 -233,-271l0 -616c0,-25 -36,-46 -81,-46 -45,0 -82,21 -82,46l0 617c0,135 -55,276 -214,270 -85,-3 -151,-75 -178,-151 -29,-82 -32,-171 -32,-257 -1,-118 -2,-222 -46,-310 -82,-163 -244,-214 -417,-215 -85,0 -160,14 -226,38 -67,-24 -143,-38 -228,-38 -197,0 -384,98 -477,276 -45,86 -69,192 -69,297 0,165 60,337 206,426 41,25 93,37 137,10 31,-18 29,-47 -4,-64 -130,-68 -176,-235 -176,-372 0,-96 21,-193 62,-272 62,-118 185,-210 321,-210 36,0 70,4 101,12 -160,112 -241,303 -241,493 0,92 19,180 58,251 65,119 177,176 310,176 131,0 243,-58 308,-176 38,-70 58,-159 58,-251 0,-191 -82,-381 -242,-493 32,-8 66,-12 102,-12 128,0 226,54 272,176 29,80 28,172 28,258zm-526 -364c137,96 204,272 204,435 -1,83 -18,163 -51,225 -32,58 -83,111 -153,111 -71,0 -123,-54 -155,-112 -34,-62 -51,-141 -51,-224 0,-163 69,-339 206,-435z"/>
 </g>
</svg>
