<?xml version="1.0" encoding="UTF-8"?>
<!DOCTYPE svg PUBLIC "-//W3C//DTD SVG 1.1//EN" "http://www.w3.org/Graphics/SVG/1.1/DTD/svg11.dtd">
<!-- Creator: CorelDRAW X8 -->
<svg xmlns="http://www.w3.org/2000/svg" xml:space="preserve" width="2780px" height="1486px" version="1.1" style="shape-rendering:geometricPrecision; text-rendering:geometricPrecision; image-rendering:optimizeQuality; fill-rule:evenodd; clip-rule:evenodd"
viewBox="0 0 2780 1486"
 xmlns:xlink="http://www.w3.org/1999/xlink">
 <defs>
  <style type="text/css">
   <![CDATA[
    .fil0 {fill:black}
   ]]>
  </style>
 </defs>
 <g id="Layer_x0020_1">
  <metadata id="CorelCorpID_0Corel-Layer"/>
  <path class="fil0" d="M2417 1292c109,-95 163,-235 187,-381 -87,74 -201,113 -321,113 -130,0 -239,-39 -310,-116 -72,85 -189,115 -296,116 -153,0 -289,-76 -342,-225 -31,-87 -35,-182 -35,-274 0,-86 1,-179 -28,-258 -46,-122 -144,-176 -272,-176 -36,0 -70,4 -101,12 159,112 241,302 241,493 0,91 -20,181 -58,251 -65,118 -177,177 -309,177 -132,0 -244,-59 -309,-177 -39,-71 -58,-159 -58,-251 0,-191 81,-381 241,-493 -31,-8 -65,-12 -101,-12 -136,0 -259,92 -321,210 -41,79 -62,176 -62,272 0,137 46,304 176,372 33,17 35,46 4,64 -44,26 -96,15 -137,-10 -146,-89 -206,-261 -206,-426 0,-105 24,-211 69,-297 93,-178 280,-276 477,-276 85,0 161,14 228,38 66,-24 141,-38 226,-38 173,1 335,52 417,215 45,88 45,192 46,310 0,86 3,175 32,256 27,78 95,150 182,152 158,3 210,-136 210,-270l0 -617c0,-25 37,-46 82,-46 45,0 81,21 81,46l0 616c0,149 71,270 233,270 131,0 238,-95 284,-213 26,-67 36,-142 35,-215 -2,-158 -67,-356 -223,-422 -35,-16 -42,-44 -15,-64 32,-24 83,-22 118,-7 132,58 207,164 248,288 41,121 54,270 49,399 -5,118 -25,245 -61,347 -47,133 -127,246 -262,327 -139,82 -327,114 -487,114 -78,0 -153,-4 -230,-21 -103,-23 -261,-88 -244,-219 7,-47 45,-87 98,-116 57,-30 123,-45 188,-45 62,-1 135,12 189,47 46,-32 115,-47 185,-47 71,0 143,15 190,45 55,34 78,80 77,126 0,12 -2,24 -5,36zm-1643 -1131c137,96 204,272 204,435 -1,83 -18,163 -51,225 -32,58 -83,112 -154,112 -70,0 -122,-55 -154,-113 -34,-62 -51,-141 -51,-224 0,-163 69,-340 206,-435zm1193 1234c53,0 158,-2 231,-35 45,-20 78,-52 76,-103 -2,-58 -68,-84 -119,-85 -66,0 -103,47 -103,113 0,36 -55,47 -81,47 -28,0 -81,-11 -81,-47 0,-74 -49,-111 -109,-112 -51,-1 -128,26 -127,86 1,55 42,87 96,107 72,26 167,29 217,29z"/>
 </g>
</svg>
