<?xml version="1.0" encoding="UTF-8"?>
<!DOCTYPE svg PUBLIC "-//W3C//DTD SVG 1.1//EN" "http://www.w3.org/Graphics/SVG/1.1/DTD/svg11.dtd">
<!-- Creator: CorelDRAW X8 -->
<svg xmlns="http://www.w3.org/2000/svg" xml:space="preserve" width="2298px" height="2048px" version="1.1" style="shape-rendering:geometricPrecision; text-rendering:geometricPrecision; image-rendering:optimizeQuality; fill-rule:evenodd; clip-rule:evenodd"
viewBox="0 0 2298 2048"
 xmlns:xlink="http://www.w3.org/1999/xlink">
 <defs>
  <style type="text/css">
   <![CDATA[
    .fil0 {fill:#009846;fill-rule:nonzero}
   ]]>
  </style>
 </defs>
 <g id="Layer_x0020_1">
  <metadata id="CorelCorpID_0Corel-Layer"/>
  <path class="fil0" d="M-2 1588c0,-102 21,-195 61,-273 88,-175 266,-280 503,-265 141,8 276,61 359,159 86,-105 232,-160 379,-161 85,0 161,14 227,38 66,-24 142,-38 226,-38 198,0 385,99 478,276 45,87 69,193 69,298 0,166 -61,338 -208,427 -41,24 -93,34 -136,9 -30,-19 -28,-48 5,-65 129,-67 176,-235 176,-371 0,-97 -22,-194 -62,-272 -62,-119 -185,-211 -322,-211 -35,0 -69,4 -100,12 159,112 241,303 241,494 0,91 -19,180 -58,250 -65,119 -178,176 -310,176 -131,0 -243,-57 -308,-175 -38,-71 -58,-158 -58,-249 0,-192 81,-384 241,-496 -31,-8 -65,-12 -101,-12 -168,1 -297,131 -297,299l0 588c0,26 -36,46 -81,46 -45,0 -81,-20 -81,-46l0 -588c-3,-173 -127,-288 -296,-298 -156,-10 -274,83 -336,209 -31,64 -49,137 -50,209 53,-75 132,-116 222,-119 97,-3 189,34 248,98 54,56 81,134 79,223 -3,89 -37,177 -105,234 -60,50 -138,78 -225,78 -91,0 -164,-29 -220,-76 -111,-91 -160,-252 -160,-408zm1529 -379c-137,96 -205,274 -205,438 0,82 18,161 51,222 32,58 83,111 153,111 71,0 123,-54 155,-111 34,-63 51,-141 51,-224 0,-163 -68,-340 -205,-436zm-1323 549c0,147 93,222 182,223 85,0 167,-74 167,-223 0,-148 -87,-222 -174,-222 -87,0 -174,74 -175,222z"/>
 </g>
</svg>
