<?xml version="1.0" encoding="UTF-8"?>
<!DOCTYPE svg PUBLIC "-//W3C//DTD SVG 1.1//EN" "http://www.w3.org/Graphics/SVG/1.1/DTD/svg11.dtd">
<!-- Creator: CorelDRAW X8 -->
<svg xmlns="http://www.w3.org/2000/svg" xml:space="preserve" width="2298px" height="2048px" version="1.1" style="shape-rendering:geometricPrecision; text-rendering:geometricPrecision; image-rendering:optimizeQuality; fill-rule:evenodd; clip-rule:evenodd"
viewBox="0 0 2298 2048"
 xmlns:xlink="http://www.w3.org/1999/xlink">
 <defs>
  <style type="text/css">
   <![CDATA[
    .fil0 {fill:black;fill-rule:nonzero}
   ]]>
  </style>
 </defs>
 <g id="Layer_x0020_1">
  <metadata id="CorelCorpID_0Corel-Layer"/>
  <path class="fil0" d="M-1 1576c0,-102 21,-194 60,-273 88,-175 266,-280 503,-266 142,9 277,62 359,160 16,-18 33,-35 52,-50 88,-70 210,-109 345,-111 75,-1 151,9 222,34 69,-23 143,-35 223,-34 226,4 421,116 500,336 52,142 47,313 -9,453 -37,94 -95,171 -183,222 -31,18 -83,18 -115,0 -32,-17 -32,-46 -1,-64 67,-38 112,-107 141,-177 51,-127 55,-288 8,-416 -55,-154 -180,-260 -346,-263 -29,0 -58,2 -86,8 147,101 229,271 240,448 6,110 -14,229 -76,322 -71,105 -181,155 -306,155 -127,0 -243,-46 -316,-154 -62,-92 -80,-210 -72,-318 14,-186 108,-352 264,-453 -28,-6 -56,-8 -85,-8 -82,1 -158,26 -214,72 -74,58 -103,136 -103,228l0 588c0,25 -37,45 -81,45 -45,0 -81,-20 -81,-45l0 -589c-3,-173 -128,-288 -297,-298 -156,-10 -273,83 -335,209 -32,64 -49,137 -50,209 52,-75 132,-115 221,-119 98,-3 189,34 249,98 53,57 81,134 78,223 -2,89 -36,178 -105,235 -60,49 -138,77 -224,77 -91,0 -164,-28 -221,-75 -111,-91 -159,-253 -159,-409zm1540 -388c-141,86 -222,241 -234,403 -7,94 8,204 61,283 39,58 93,95 164,95 67,0 118,-42 153,-96 54,-80 72,-192 66,-287 -9,-153 -79,-313 -210,-398zm-1334 559c-1,147 92,222 182,222 84,0 166,-73 166,-222 1,-149 -87,-223 -174,-223 -87,0 -174,74 -174,223z"/>
 </g>
</svg>
