<?xml version="1.0" encoding="UTF-8"?>
<!DOCTYPE svg PUBLIC "-//W3C//DTD SVG 1.1//EN" "http://www.w3.org/Graphics/SVG/1.1/DTD/svg11.dtd">
<!-- Creator: CorelDRAW X8 -->
<svg xmlns="http://www.w3.org/2000/svg" xml:space="preserve" width="2298px" height="2048px" version="1.1" style="shape-rendering:geometricPrecision; text-rendering:geometricPrecision; image-rendering:optimizeQuality; fill-rule:evenodd; clip-rule:evenodd"
viewBox="0 0 2298 2048"
 xmlns:xlink="http://www.w3.org/1999/xlink">
 <defs>
  <style type="text/css">
   <![CDATA[
    .fil0 {fill:#1F1B20;fill-rule:nonzero}
   ]]>
  </style>
 </defs>
 <g id="Layer_x0020_1">
  <metadata id="CorelCorpID_0Corel-Layer"/>
  <path class="fil0" d="M1002 2015c0,25 -37,45 -82,45 -44,0 -81,-20 -81,-45l0 -595c-4,-79 -22,-144 -91,-208 -56,-52 -132,-79 -206,-84 -154,-10 -277,77 -340,214 -29,62 -43,131 -46,206 52,-77 133,-118 223,-121 98,-4 189,34 249,97 53,57 81,135 78,224 -2,89 -36,177 -105,235 -65,53 -143,78 -224,77 -120,-1 -208,-49 -268,-123 -65,-81 -98,-192 -107,-307 -9,-116 8,-235 52,-322 97,-199 289,-284 505,-271 135,9 281,60 367,170 91,-123 242,-169 389,-171 76,-1 152,9 224,33 68,-22 143,-34 222,-33 305,5 516,204 536,504 9,141 -27,302 -117,413 -30,37 -67,68 -110,93 -32,18 -83,19 -115,1 -33,-18 -33,-47 -1,-65 29,-16 55,-39 77,-67 80,-98 111,-247 103,-372 -14,-213 -145,-412 -378,-416 -29,0 -58,2 -86,8 158,108 241,299 241,487 0,105 -26,206 -77,282 -70,106 -181,156 -306,156 -127,0 -244,-46 -317,-154 -50,-75 -73,-171 -73,-270 0,-202 96,-392 266,-502 -28,-5 -57,-7 -85,-7 -168,3 -317,118 -317,293l0 595zm-800 -269c0,148 93,223 182,223 85,0 167,-74 167,-223 0,-148 -87,-223 -174,-222 -87,0 -174,74 -175,222zm1335 -558c-155,94 -236,269 -236,448 0,89 20,174 63,237 39,59 92,96 164,96 67,0 118,-43 153,-96 44,-66 67,-156 67,-251 0,-165 -69,-342 -211,-434z"/>
 </g>
</svg>
