<?xml version="1.0" encoding="UTF-8"?>
<!DOCTYPE svg PUBLIC "-//W3C//DTD SVG 1.1//EN" "http://www.w3.org/Graphics/SVG/1.1/DTD/svg11.dtd">
<!-- Creator: CorelDRAW X8 -->
<svg xmlns="http://www.w3.org/2000/svg" xml:space="preserve" width="3448px" height="1024px" version="1.1" style="shape-rendering:geometricPrecision; text-rendering:geometricPrecision; image-rendering:optimizeQuality; fill-rule:evenodd; clip-rule:evenodd"
viewBox="0 0 3448 1024"
 xmlns:xlink="http://www.w3.org/1999/xlink">
 <defs>
  <style type="text/css">
   <![CDATA[
    .fil0 {fill:#669933;fill-rule:nonzero}
   ]]>
  </style>
 </defs>
 <g id="Layer_x0020_1">
  <metadata id="CorelCorpID_0Corel-Layer"/>
  <path class="fil0" d="M3203 276c-100,0 -190,47 -250,126 -52,70 -77,156 -77,243 0,74 19,144 54,198 34,50 83,89 145,89 56,1 105,-33 146,-101 43,-71 63,-161 64,-249 2,-108 -21,-215 -82,-306zm-3203 264c0,-102 21,-195 60,-273 88,-175 267,-280 503,-266 140,9 275,54 358,150 68,-99 184,-150 330,-150 68,0 135,11 198,35 59,-22 123,-34 188,-35 106,0 206,30 287,85 92,62 161,157 191,275 22,90 20,185 -6,274 -36,122 -109,213 -203,273l495 0c-92,-96 -142,-220 -143,-352 0,-104 29,-206 83,-296 113,-186 305,-259 514,-260 229,-1 430,93 534,301 42,85 60,179 59,281 -1,98 -24,198 -73,279 -69,113 -181,164 -300,163 -119,-1 -230,-49 -297,-149 -43,-65 -65,-147 -65,-230 0,-99 31,-199 91,-278 78,-104 197,-161 324,-177 -79,-71 -167,-100 -271,-99 -156,2 -279,61 -361,198 -48,79 -75,172 -75,265 0,148 67,286 193,371 22,14 26,36 6,53 -17,16 -48,22 -69,22l-1311 0c-45,0 -82,-21 -82,-46 0,-25 37,-46 82,-46l349 0c178,0 311,-122 359,-288 24,-79 26,-166 6,-247 -19,-74 -57,-145 -111,-197 -57,-55 -131,-85 -206,-84 -24,1 -48,4 -71,11 105,83 173,216 174,351 1,171 -117,292 -293,291 -175,0 -291,-120 -290,-291 1,-135 69,-268 175,-351 -27,-8 -55,-12 -81,-12 -169,4 -246,148 -246,303l0 585c0,25 -36,45 -81,45 -45,0 -81,-20 -81,-45l0 -585c0,-188 -117,-291 -297,-302 -156,-10 -273,83 -335,209 -32,64 -49,137 -50,209 52,-75 132,-116 221,-119 98,-3 189,34 249,98 54,56 81,134 79,223 -3,89 -37,177 -106,234 -59,50 -138,78 -224,78 -91,0 -164,-29 -221,-75 -111,-92 -159,-253 -159,-409zm1449 -371c-80,69 -128,180 -129,285 0,77 35,197 127,198 94,1 130,-120 130,-198 -1,-105 -49,-216 -128,-285zm-1243 541c0,147 92,222 182,223 84,0 166,-74 166,-223 1,-148 -86,-222 -173,-222 -88,0 -175,74 -175,222z"/>
 </g>
</svg>
