<?xml version="1.0" encoding="UTF-8"?>
<!DOCTYPE svg PUBLIC "-//W3C//DTD SVG 1.1//EN" "http://www.w3.org/Graphics/SVG/1.1/DTD/svg11.dtd">
<!-- Creator: CorelDRAW X8 -->
<svg xmlns="http://www.w3.org/2000/svg" xml:space="preserve" width="3016px" height="1486px" version="1.1" style="shape-rendering:geometricPrecision; text-rendering:geometricPrecision; image-rendering:optimizeQuality; fill-rule:evenodd; clip-rule:evenodd"
viewBox="0 0 3016 1486"
 xmlns:xlink="http://www.w3.org/1999/xlink">
 <defs>
  <style type="text/css">
   <![CDATA[
    .fil0 {fill:#669933;fill-rule:nonzero}
   ]]>
  </style>
 </defs>
 <g id="Layer_x0020_1">
  <metadata id="CorelCorpID_0Corel-Layer"/>
  <path class="fil0" d="M2182 811c-74,58 -153,106 -245,146 -97,42 -201,66 -316,67 -67,1 -132,-6 -186,-19 -104,-26 -189,-85 -194,-201 -4,-113 65,-164 166,-190 113,-30 264,-25 437,-19 186,6 396,12 528,-27 63,-19 116,-49 153,-94 37,-46 58,-101 59,-160 0,-59 -20,-122 -66,-164 -44,-40 -103,-58 -161,-59 -153,-2 -227,103 -227,215l0 189c0,25 -37,46 -81,46 -45,0 -81,-21 -81,-46l0 -189c0,-92 -46,-149 -113,-182 -42,-20 -110,-32 -168,-33 -11,0 -25,1 -35,2 70,51 116,130 119,218 7,154 -128,232 -261,232 -134,1 -267,-76 -266,-232 1,-91 48,-165 119,-217 -21,-2 -38,-3 -58,-4 -199,-1 -300,101 -300,303l0 586c0,25 -36,45 -81,45 -45,0 -81,-20 -81,-45l0 -585c0,-187 -122,-291 -297,-302 -156,-10 -273,83 -335,209 -32,64 -49,137 -50,209 52,-74 132,-115 221,-118 98,-4 189,34 249,97 53,57 81,135 78,223 -2,89 -36,178 -105,235 -59,49 -138,77 -224,77 -91,0 -164,-28 -221,-75 -111,-91 -159,-253 -159,-408 0,-103 21,-195 60,-274 88,-175 267,-280 503,-265 142,8 275,51 358,149 97,-117 238,-149 384,-151 72,-1 140,9 205,26 56,-16 119,-26 177,-26 121,-1 273,15 362,107 78,-79 201,-107 308,-107 110,1 222,32 299,102 63,57 91,134 90,212 -2,83 -37,162 -95,221 112,-3 197,21 259,70 70,57 106,145 106,234 0,90 -33,159 -85,211 -93,93 -247,130 -384,130l-1010 0c-89,0 -133,26 -131,85 1,63 45,83 132,82l1349 0c45,0 81,31 81,69 0,38 -36,69 -81,70l-1349 0c-137,0 -300,-35 -297,-204 3,-123 95,-193 296,-193l1010 0c104,0 199,-28 255,-94 32,-38 51,-90 51,-156 0,-67 -23,-138 -77,-181 -31,-25 -73,-40 -126,-38 56,39 96,96 96,173 1,148 -144,229 -287,231 -133,1 -264,-66 -277,-213zm-672 -673c-64,39 -109,98 -109,173 0,95 57,140 109,140 52,0 108,-47 104,-140 -2,-68 -45,-138 -104,-173zm-1304 573c0,147 92,222 182,222 84,0 166,-73 166,-222 1,-149 -86,-223 -174,-223 -87,0 -174,75 -174,223zm2123 82c0,95 65,141 130,139 63,-2 124,-48 124,-139 1,-89 -61,-137 -124,-137 -64,0 -130,43 -130,137zm-159 -105c-104,4 -222,1 -326,-3 -163,-5 -308,-10 -377,16 -42,15 -68,59 -69,103 -1,67 48,105 108,118 40,8 79,12 116,13 93,1 177,-21 255,-59 92,-44 210,-110 293,-188z"/>
 </g>
</svg>
