<?xml version="1.0" encoding="UTF-8"?>
<!DOCTYPE svg PUBLIC "-//W3C//DTD SVG 1.1//EN" "http://www.w3.org/Graphics/SVG/1.1/DTD/svg11.dtd">
<!-- Creator: CorelDRAW X8 -->
<svg xmlns="http://www.w3.org/2000/svg" xml:space="preserve" width="3513px" height="1024px" version="1.1" style="shape-rendering:geometricPrecision; text-rendering:geometricPrecision; image-rendering:optimizeQuality; fill-rule:evenodd; clip-rule:evenodd"
viewBox="0 0 3513 1024"
 xmlns:xlink="http://www.w3.org/1999/xlink">
 <defs>
  <style type="text/css">
   <![CDATA[
    .fil0 {fill:#669933;fill-rule:nonzero}
   ]]>
  </style>
 </defs>
 <g id="Layer_x0020_1">
  <metadata id="CorelCorpID_0Corel-Layer"/>
  <path class="fil0" d="M2054 396l0 582c0,25 36,45 81,45 45,0 81,-20 81,-45l0 -582c0,-193 108,-305 297,-305 36,0 70,4 102,12 -160,112 -242,304 -242,495 0,91 20,179 58,249 65,118 177,176 309,175 132,0 244,-57 309,-175 42,-77 58,-165 58,-251 0,-191 -81,-381 -241,-493 32,-8 65,-12 101,-12 137,0 259,92 321,210 41,79 62,176 62,272 0,137 -46,304 -176,372 -33,17 -35,46 -4,64 44,27 96,15 137,-10 146,-89 206,-261 206,-426 0,-105 -24,-211 -69,-297 -93,-178 -280,-276 -477,-276 -85,0 -160,14 -226,38 -67,-24 -143,-38 -228,-38 -146,0 -293,44 -380,148 -86,-104 -229,-148 -375,-148 -86,0 -161,14 -228,38 -66,-24 -141,-38 -226,-38 -146,0 -294,42 -381,148 -97,-114 -258,-148 -403,-148 -216,0 -377,102 -460,267 -39,78 -60,171 -60,273 0,155 48,317 159,408 57,46 130,75 221,75 86,0 165,-28 224,-77 69,-57 103,-146 106,-235 2,-82 -22,-162 -79,-223 -60,-63 -151,-100 -249,-97 -89,3 -169,44 -221,119 1,-73 18,-146 50,-210 59,-118 166,-207 309,-209 187,-2 323,103 323,302l0 585c0,25 36,45 81,45 45,0 81,-20 81,-45l0 -583c0,-194 103,-305 299,-304 36,0 69,4 100,12 -159,112 -241,302 -241,493 0,92 20,180 58,251 66,118 178,175 310,175 131,1 244,-57 308,-175 39,-70 58,-158 58,-249 0,-191 -81,-383 -241,-495 32,-8 65,-12 102,-12 183,0 296,119 296,305zm840 424c-32,58 -84,112 -154,112 -71,0 -122,-53 -153,-111 -34,-62 -51,-140 -51,-223 0,-163 67,-341 204,-437 137,96 205,272 205,435 0,76 -15,157 -51,224zm-2340 -110c0,149 -82,222 -166,222 -90,0 -182,-75 -182,-222 0,-148 88,-222 175,-222 120,-1 174,117 173,222zm976 -549c137,96 205,274 205,437 0,83 -17,161 -51,223 -32,58 -83,111 -153,111 -70,0 -123,-54 -154,-112 -34,-62 -52,-141 -51,-224 0,-163 68,-339 204,-435z"/>
 </g>
</svg>
