<?xml version="1.0" encoding="UTF-8"?>
<!DOCTYPE svg PUBLIC "-//W3C//DTD SVG 1.1//EN" "http://www.w3.org/Graphics/SVG/1.1/DTD/svg11.dtd">
<!-- Creator: CorelDRAW X8 -->
<svg xmlns="http://www.w3.org/2000/svg" xml:space="preserve" width="3123px" height="1487px" version="1.1" style="shape-rendering:geometricPrecision; text-rendering:geometricPrecision; image-rendering:optimizeQuality; fill-rule:evenodd; clip-rule:evenodd"
viewBox="0 0 3123 1487"
 xmlns:xlink="http://www.w3.org/1999/xlink">
 <defs>
  <style type="text/css">
   <![CDATA[
    .fil0 {fill:#009846;fill-rule:nonzero}
   ]]>
  </style>
 </defs>
 <g id="Layer_x0020_1">
  <metadata id="CorelCorpID_0Corel-Layer"/>
  <path class="fil0" d="M2182 811c-73,58 -153,106 -245,146 -97,42 -201,66 -316,67 -67,1 -132,-6 -186,-19 -104,-26 -189,-85 -193,-201 -5,-113 64,-164 165,-190 113,-30 264,-25 437,-19 186,6 397,12 528,-27 63,-19 116,-49 153,-94 37,-46 59,-101 59,-160 0,-59 -20,-122 -66,-164 -44,-40 -102,-58 -161,-59 -153,-2 -227,103 -227,215 0,27 0,163 0,189 0,25 -36,46 -81,46 -45,0 -81,-21 -81,-46 0,-26 0,-162 0,-189 0,-92 -46,-149 -113,-182 -41,-20 -111,-32 -168,-32 -12,-1 -24,0 -35,1 70,51 116,131 119,218 7,154 -127,232 -261,232 -134,1 -267,-76 -266,-232 1,-90 48,-164 120,-217 -21,-2 -40,-3 -59,-3 -178,0 -300,93 -300,299 0,196 0,393 0,589 0,25 -36,46 -81,46 -45,0 -81,-21 -81,-46 0,-196 0,-392 0,-588 0,-173 -127,-288 -297,-299 -156,-9 -273,83 -335,209 -32,64 -49,137 -50,210 52,-75 132,-116 221,-119 98,-4 189,34 249,97 54,57 81,135 79,223 -3,89 -37,178 -106,235 -59,49 -138,77 -224,77 -91,0 -164,-28 -221,-75 -111,-91 -159,-252 -159,-408 0,-103 21,-195 60,-274 88,-175 267,-280 503,-265 142,8 275,61 358,159 97,-116 238,-159 384,-161 72,0 140,9 205,26 55,-16 120,-26 177,-26 121,-1 273,15 362,107 78,-79 201,-107 308,-107 110,1 222,32 299,102 63,57 91,134 90,212 -1,78 -33,154 -85,211 37,-7 78,-12 121,-13 60,-1 121,6 172,21 83,24 150,75 156,172 4,57 -22,109 -67,144 49,31 82,78 80,138 -2,57 -26,100 -63,130 -53,44 -132,63 -215,63 -437,0 -873,0 -1309,0 -89,0 -133,26 -131,86 1,62 45,82 131,82 486,0 972,0 1458,-1 45,0 82,31 82,70 0,38 -37,69 -82,69 -486,0 -972,0 -1458,1 -137,0 -300,-35 -296,-204 2,-123 94,-194 296,-194 436,0 872,0 1308,0 61,0 114,-40 117,-103 1,-26 -8,-52 -27,-69 -16,-15 -35,-18 -56,-17 -45,2 -84,-16 -88,-42 -2,-9 3,-19 11,-27 14,-13 40,-23 71,-23 20,0 36,-8 50,-22 20,-21 28,-49 26,-78 -6,-86 -96,-101 -166,-104 -47,-1 -96,3 -140,11 61,39 104,98 104,178 1,148 -144,229 -286,231 -134,1 -265,-66 -278,-213zm-672 -673c-64,39 -109,98 -109,174 0,94 57,140 109,139 52,0 109,-47 105,-139 -3,-69 -46,-139 -105,-174zm-1304 573c0,147 92,222 182,222 84,1 166,-73 166,-222 1,-149 -86,-223 -173,-223 -88,1 -175,75 -175,223zm2123 82c0,95 65,141 131,139 62,-2 123,-48 124,-139 0,-89 -62,-137 -125,-137 -64,0 -129,43 -130,137zm-159 -105c-104,4 -222,1 -326,-3 -163,-5 -308,-10 -377,16 -42,15 -68,59 -69,103 -1,67 48,105 108,118 38,7 74,12 109,13 96,2 182,-20 262,-59 92,-44 210,-110 293,-188z"/>
 </g>
</svg>
