<?xml version="1.0" encoding="UTF-8"?>
<!DOCTYPE svg PUBLIC "-//W3C//DTD SVG 1.1//EN" "http://www.w3.org/Graphics/SVG/1.1/DTD/svg11.dtd">
<!-- Creator: CorelDRAW X8 -->
<svg xmlns="http://www.w3.org/2000/svg" xml:space="preserve" width="987px" height="1130px" version="1.1" style="shape-rendering:geometricPrecision; text-rendering:geometricPrecision; image-rendering:optimizeQuality; fill-rule:evenodd; clip-rule:evenodd"
viewBox="0 0 987 1130"
 xmlns:xlink="http://www.w3.org/1999/xlink">
 <defs>
  <style type="text/css">
   <![CDATA[
    .fil0 {fill:black}
   ]]>
  </style>
 </defs>
 <g id="Layer_x0020_1">
  <metadata id="CorelCorpID_0Corel-Layer"/>
  <path class="fil0" d="M406 796c72,0 134,7 186,18 123,29 186,86 189,144 47,-57 66,-146 54,-217 -9,-54 -35,-100 -81,-123 -73,-38 -194,-25 -273,-24 -103,1 -229,4 -326,-34 -86,-33 -150,-98 -155,-224 -4,-112 54,-192 138,-245 99,-63 234,-90 343,-91 169,-1 349,45 471,169 21,22 7,49 -32,61 -40,13 -89,5 -111,-18 -87,-89 -206,-122 -328,-121 -85,1 -190,29 -256,89 -42,38 -68,90 -62,156 5,56 52,81 110,92 71,13 159,4 208,4 70,-1 146,-3 215,7 72,9 140,32 198,83 66,58 89,133 93,213 4,100 -29,187 -87,249 -58,61 -140,103 -232,123 -61,14 -142,22 -225,23 -78,1 -166,-3 -241,-24 -115,-30 -172,-87 -172,-144 0,-57 59,-114 177,-144 54,-14 120,-22 199,-22zm0 81c-74,0 -130,10 -168,25 -42,16 -63,38 -64,60 0,23 21,45 63,62 39,15 95,25 169,25 61,0 110,-7 147,-18 56,-17 85,-43 84,-69 0,-26 -28,-51 -83,-67 -37,-11 -86,-18 -148,-18z"/>
 </g>
</svg>
