<?xml version="1.0" encoding="UTF-8"?>
<!DOCTYPE svg PUBLIC "-//W3C//DTD SVG 1.1//EN" "http://www.w3.org/Graphics/SVG/1.1/DTD/svg11.dtd">
<!-- Creator: CorelDRAW X8 -->
<svg xmlns="http://www.w3.org/2000/svg" xml:space="preserve" width="987px" height="1130px" version="1.1" style="shape-rendering:geometricPrecision; text-rendering:geometricPrecision; image-rendering:optimizeQuality; fill-rule:evenodd; clip-rule:evenodd"
viewBox="0 0 987 1130"
 xmlns:xlink="http://www.w3.org/1999/xlink">
 <defs>
  <style type="text/css">
   <![CDATA[
    .fil0 {fill:black;fill-rule:nonzero}
   ]]>
  </style>
 </defs>
 <g id="Layer_x0020_1">
  <metadata id="CorelCorpID_0Corel-Layer"/>
  <path class="fil0" d="M413 1056c43,0 128,-2 187,-28 37,-16 63,-42 62,-83 -2,-48 -56,-69 -97,-69 -54,0 -83,38 -83,91 0,29 -44,38 -66,38 -22,0 -66,-9 -66,-38 0,-59 -39,-90 -88,-91 -41,-1 -103,21 -102,70 1,44 34,71 77,87 59,21 136,23 176,23zm539 -887c21,22 7,49 -32,61 -40,13 -89,5 -111,-18 -87,-89 -206,-122 -328,-121 -85,1 -190,29 -256,89 -42,38 -68,90 -62,156 5,56 52,81 110,92 71,13 159,4 208,4 70,-1 146,-3 215,7 72,9 140,32 198,83 66,58 89,133 93,213 4,100 -29,187 -87,249 -58,61 -140,103 -232,124 -67,14 -163,23 -255,22 -68,0 -133,-6 -185,-17 -83,-19 -211,-71 -197,-177 5,-39 36,-71 79,-94 46,-25 100,-37 152,-37 51,0 110,10 153,38 38,-26 94,-38 150,-38 58,0 116,12 154,36 45,28 63,65 63,103 0,5 -1,10 -2,15 48,-57 67,-147 55,-218 -9,-54 -35,-100 -81,-123 -73,-38 -194,-25 -273,-24 -103,2 -229,4 -326,-34 -86,-33 -150,-98 -155,-224 -4,-112 54,-192 138,-245 99,-63 234,-90 343,-91 169,-1 349,45 471,169z"/>
 </g>
</svg>
