<?xml version="1.0" encoding="UTF-8"?>
<!DOCTYPE svg PUBLIC "-//W3C//DTD SVG 1.1//EN" "http://www.w3.org/Graphics/SVG/1.1/DTD/svg11.dtd">
<!-- Creator: CorelDRAW X8 -->
<svg xmlns="http://www.w3.org/2000/svg" xml:space="preserve" width="976px" height="1486px" version="1.1" style="shape-rendering:geometricPrecision; text-rendering:geometricPrecision; image-rendering:optimizeQuality; fill-rule:evenodd; clip-rule:evenodd"
viewBox="0 0 976 1486"
 xmlns:xlink="http://www.w3.org/1999/xlink">
 <defs>
  <style type="text/css">
   <![CDATA[
    .fil0 {fill:black;fill-rule:nonzero}
   ]]>
  </style>
 </defs>
 <g id="Layer_x0020_1">
  <metadata id="CorelCorpID_0Corel-Layer"/>
  <path class="fil0" d="M845 947c92,42 138,116 130,227 -7,107 -70,183 -161,235 -94,53 -223,76 -331,77 -91,1 -186,-13 -272,-43 -73,-26 -146,-71 -199,-126 -22,-22 -8,-49 32,-61 39,-12 89,-4 110,18 39,39 91,73 144,92 57,21 122,30 183,29 145,-1 320,-54 332,-224 8,-123 -54,-171 -171,-171 -187,0 -374,0 -561,0 -45,0 -81,-20 -81,-45 0,-26 36,-46 81,-46 187,0 374,0 561,0 96,0 178,-98 173,-193 -4,-57 -45,-105 -132,-120 -69,-12 -152,-4 -201,-3 -102,1 -228,4 -325,-34 -86,-33 -150,-98 -155,-224 -4,-112 54,-191 138,-244 99,-63 234,-90 342,-91 170,-1 350,44 472,168 21,22 7,50 -33,62 -39,12 -88,4 -110,-18 -87,-89 -206,-122 -329,-121 -84,0 -189,28 -255,89 -42,38 -68,89 -62,155 5,56 52,82 109,92 72,14 160,4 208,4 99,-2 217,-3 312,28 124,42 185,149 182,257 -3,94 -52,181 -131,231z"/>
 </g>
</svg>
