<?xml version="1.0" encoding="UTF-8"?>
<!DOCTYPE svg PUBLIC "-//W3C//DTD SVG 1.1//EN" "http://www.w3.org/Graphics/SVG/1.1/DTD/svg11.dtd">
<!-- Creator: CorelDRAW X8 -->
<svg xmlns="http://www.w3.org/2000/svg" xml:space="preserve" width="976px" height="1487px" version="1.1" style="shape-rendering:geometricPrecision; text-rendering:geometricPrecision; image-rendering:optimizeQuality; fill-rule:evenodd; clip-rule:evenodd"
viewBox="0 0 976 1487"
 xmlns:xlink="http://www.w3.org/1999/xlink">
 <defs>
  <style type="text/css">
   <![CDATA[
    .fil0 {fill:#00A0E3;fill-rule:nonzero}
   ]]>
  </style>
 </defs>
 <g id="Layer_x0020_1">
  <metadata id="CorelCorpID_0Corel-Layer"/>
  <path class="fil0" d="M845 947c92,43 138,117 130,228 -7,107 -70,183 -161,235 -94,54 -223,76 -331,77 -91,1 -186,-12 -272,-43 -73,-26 -146,-70 -199,-125 -22,-22 -8,-50 32,-62 39,-12 89,-4 110,18 39,39 91,73 144,92 57,21 122,30 183,29 145,-1 320,-54 332,-224 8,-123 -54,-171 -171,-171 -187,0 -374,0 -561,0 -45,0 -81,-20 -81,-46 0,-25 36,-45 81,-45 187,0 374,0 561,0 96,0 178,-99 173,-193 -4,-58 -45,-106 -132,-121 -69,-12 -152,-4 -201,-3 -102,2 -228,4 -325,-33 -86,-34 -150,-99 -155,-225 -4,-111 54,-191 138,-244 99,-63 234,-90 342,-91 170,-1 350,44 472,168 21,22 7,50 -33,62 -39,12 -88,4 -110,-18 -87,-89 -206,-122 -329,-121 -84,0 -189,29 -255,89 -42,38 -68,89 -62,155 5,57 52,82 109,93 72,13 160,4 208,3 99,-1 217,-3 312,29 124,41 185,148 182,257 -3,93 -52,181 -131,230z"/>
 </g>
</svg>
