<?xml version="1.0" encoding="UTF-8"?>
<!DOCTYPE svg PUBLIC "-//W3C//DTD SVG 1.1//EN" "http://www.w3.org/Graphics/SVG/1.1/DTD/svg11.dtd">
<!-- Creator: CorelDRAW X8 -->
<svg xmlns="http://www.w3.org/2000/svg" xml:space="preserve" width="987px" height="1123px" version="1.1" style="shape-rendering:geometricPrecision; text-rendering:geometricPrecision; image-rendering:optimizeQuality; fill-rule:evenodd; clip-rule:evenodd"
viewBox="0 0 994 1131"
 xmlns:xlink="http://www.w3.org/1999/xlink">
 <defs>
  <style type="text/css">
   <![CDATA[
    .fil0 {fill:#00A0E3}
   ]]>
  </style>
 </defs>
 <g id="Layer_x0020_1">
  <metadata id="CorelCorpID_0Corel-Layer"/>
  <path class="fil0" d="M409 795c73,0 135,7 187,18 124,29 188,87 191,145 47,-58 66,-141 54,-213 -9,-53 -36,-100 -81,-123 -74,-39 -196,-26 -276,-24 -104,1 -230,4 -327,-34 -88,-34 -152,-100 -157,-226 -4,-113 55,-193 139,-247 100,-63 236,-90 345,-91 170,-1 352,45 475,170 21,22 7,50 -33,62 -39,12 -89,4 -111,-18 -88,-90 -208,-123 -331,-122 -85,0 -191,28 -257,89 -43,39 -69,90 -63,157 5,56 52,82 110,93 72,13 162,4 210,3 71,-1 147,-2 217,7 72,10 140,33 199,84 67,59 90,134 94,215 4,100 -29,182 -88,244 -58,62 -140,104 -233,124 -71,16 -170,25 -265,23 -75,-1 -148,-9 -204,-24 -116,-31 -174,-88 -174,-145 1,-58 60,-115 179,-145 54,-14 121,-22 200,-22zm0 81c62,0 112,7 149,18 56,17 84,42 84,68 0,26 -28,53 -85,69 -38,11 -87,18 -148,18 -75,0 -132,-10 -170,-25 -43,-17 -64,-39 -63,-62 0,-22 21,-45 63,-61 39,-15 96,-25 170,-25z"/>
 </g>
</svg>
