<?xml version="1.0" encoding="UTF-8"?>
<!DOCTYPE svg PUBLIC "-//W3C//DTD SVG 1.1//EN" "http://www.w3.org/Graphics/SVG/1.1/DTD/svg11.dtd">
<!-- Creator: CorelDRAW X8 -->
<svg xmlns="http://www.w3.org/2000/svg" xml:space="preserve" width="803px" height="600px" version="1.1" style="shape-rendering:geometricPrecision; text-rendering:geometricPrecision; image-rendering:optimizeQuality; fill-rule:evenodd; clip-rule:evenodd"
viewBox="0 0 803 600"
 xmlns:xlink="http://www.w3.org/1999/xlink">
 <defs>
  <style type="text/css">
   <![CDATA[
    .fil0 {fill:#669933;fill-rule:nonzero}
   ]]>
  </style>
 </defs>
 <g id="Layer_x0020_1">
  <metadata id="CorelCorpID_0Corel-Layer"/>
  <path class="fil0" d="M707 547c-69,37 -163,51 -240,53 -108,3 -220,-18 -307,-69 -94,-55 -159,-144 -160,-276 0,-96 40,-188 120,-243 23,-15 67,-15 91,-5 19,8 30,26 9,40 -67,46 -97,128 -97,207 1,97 38,169 98,217 62,49 148,73 243,70 49,-1 108,-12 151,-34 33,-18 64,-52 64,-90 -1,-37 -25,-54 -56,-62 -41,-10 -94,-4 -123,-4 -66,1 -144,3 -206,-20 -62,-23 -93,-67 -96,-132 -4,-106 91,-160 181,-183 41,-11 83,-16 121,-16 58,0 117,8 171,26 46,17 88,41 123,75 16,16 -1,31 -16,37 -29,11 -76,8 -94,-10 -24,-24 -53,-42 -84,-53 -32,-11 -66,-16 -100,-16 -23,0 -50,5 -76,14 -58,19 -109,60 -103,125 3,33 32,46 61,52 38,7 78,2 116,1 54,-1 123,-2 182,13 68,18 123,63 123,138 0,64 -42,117 -96,145z"/>
 </g>
</svg>
