<?xml version="1.0" encoding="UTF-8" standalone="no"?>
<!-- Creator: CorelDRAW X8 -->

<svg
   xmlns:dc="http://purl.org/dc/elements/1.1/"
   xmlns:cc="http://creativecommons.org/ns#"
   xmlns:rdf="http://www.w3.org/1999/02/22-rdf-syntax-ns#"
   xmlns:svg="http://www.w3.org/2000/svg"
   xmlns="http://www.w3.org/2000/svg"
   xmlns:sodipodi="http://sodipodi.sourceforge.net/DTD/sodipodi-0.dtd"
   xmlns:inkscape="http://www.inkscape.org/namespaces/inkscape"
   xml:space="preserve"
   width="2099px"
   height="1024px"
   version="1.1"
   style="shape-rendering:geometricPrecision; text-rendering:geometricPrecision; image-rendering:optimizeQuality; fill-rule:evenodd; clip-rule:evenodd"
   viewBox="0 0 2099 1024"
   id="svg12"
   sodipodi:docname="ഡ.svg"
   inkscape:version="0.92.3 (2405546, 2018-03-11)"><metadata
   id="metadata16"><rdf:RDF><cc:Work
       rdf:about=""><dc:format>image/svg+xml</dc:format><dc:type
         rdf:resource="http://purl.org/dc/dcmitype/StillImage" /></cc:Work></rdf:RDF></metadata><sodipodi:namedview
   pagecolor="#ffffff"
   bordercolor="#666666"
   borderopacity="1"
   objecttolerance="10"
   gridtolerance="10"
   guidetolerance="10"
   inkscape:pageopacity="0"
   inkscape:pageshadow="2"
   inkscape:window-width="3200"
   inkscape:window-height="1693"
   id="namedview14"
   showgrid="false"
   inkscape:zoom="0.921875"
   inkscape:cx="1435.6911"
   inkscape:cy="437.18221"
   inkscape:window-x="0"
   inkscape:window-y="0"
   inkscape:window-maximized="1"
   inkscape:current-layer="Layer_x0020_1" />
 <defs
   id="defs4">
  <style
   type="text/css"
   id="style2">
   <![CDATA[
    .fil0 {fill:black;fill-rule:nonzero}
    .fil1 {fill:#669933;fill-rule:nonzero}
   ]]>
  </style>
 </defs>
 <g
   id="Layer_x0020_1">
  <metadata
   id="CorelCorpID_0Corel-Layer" />
  
  <path
   class="fil1"
   d="m 1308.661,910.67799 c -72,85.00001 -182,116.00001 -290,116.00001 -151.99998,0 -294.99998,-77.00001 -347.99998,-225.00001 -34,-96 -35,-202 -35,-304 0,-88 -1,-184 -31,-268 -26,-75 -76,-135.999998 -170,-135.999998 -123,0 -199,102.999998 -237,217.999998 -24,69 -34,143 -34,202 1,171 77,365 248,429 37,14 47,42 22,63.00001 -33,28 -86,23 -123,8 -206,-82.00001 -307.0000031,-286.00001 -309.0000031,-500.00001 -1,-84 13.0000001,-166 41.0000001,-239 61.000003,-158 190.000003,-271.9999985 392.000003,-271.9999985 164,0 265,65.0000005 318,181.9999985 43,96 46,205 46,309 0,96 -1,199 32,290 28,80 98,154 187.99998,152 155,-3 205,-137 205,-270 V 48.677992 c 0,-25 36,-46.0000005 81,-46.0000005 45,0 82,21.0000005 82,46.0000005 V 664.67799 c 0,149 70,271 232,271 131,0 238,-96 284,-214 24,-63 35,-132 35,-200 1,-161 -62,-369 -223,-436.999998 -35,-16 -42,-44 -15,-64 32,-24.0000005 83,-22.0000005 118,-7 199,87.999998 284,301.999998 283,507.999998 0,86 -16,171 -51,246 -79,169 -248,259.00001 -431,259.00001 -130,0 -239,-39.00001 -310,-116.00001 z"
   id="path9"
   inkscape:connector-curvature="0"
   style="fill:#669933;fill-rule:nonzero" />
 </g>
</svg>