<?xml version="1.0" encoding="UTF-8"?>
<!DOCTYPE svg PUBLIC "-//W3C//DTD SVG 1.1//EN" "http://www.w3.org/Graphics/SVG/1.1/DTD/svg11.dtd">
<!-- Creator: CorelDRAW X8 -->
<svg xmlns="http://www.w3.org/2000/svg" xml:space="preserve" width="2100px" height="2048px" version="1.1" style="shape-rendering:geometricPrecision; text-rendering:geometricPrecision; image-rendering:optimizeQuality; fill-rule:evenodd; clip-rule:evenodd"
viewBox="0 0 2100 2048"
 xmlns:xlink="http://www.w3.org/1999/xlink">
 <defs>
  <style type="text/css">
   <![CDATA[
    .fil0 {fill:#2B2A29;fill-rule:nonzero}
   ]]>
  </style>
 </defs>
 <g id="Layer_x0020_1">
  <metadata id="CorelCorpID_0Corel-Layer"/>
  <path class="fil0" d="M1223 1082c0,-25 37,-46 81,-46 45,0 82,21 82,46l0 594c0,88 13,164 78,228 43,43 99,65 155,65 175,0 282,-152 310,-312 31,-184 -22,-458 -214,-539 -36,-15 -43,-44 -16,-64 27,-20 78,-24 114,-9 236,101 318,383 277,620 -41,246 -226,395 -471,395 -115,0 -223,-38 -297,-112 -6,-5 -11,-11 -16,-17 -5,6 -10,12 -16,17 -73,74 -177,111 -280,112 -154,1 -289,-75 -340,-224 -34,-99 -35,-204 -35,-308 0,-142 -6,-401 -202,-401 -84,0 -147,50 -191,118 -61,93 -85,221 -79,331 5,94 31,186 82,264 41,63 97,111 165,137 37,14 48,42 23,63 -25,21 -76,26 -113,13 -99,-37 -175,-102 -228,-182 -56,-85 -85,-185 -91,-287 -7,-125 19,-265 88,-370 79,-121 201,-178 344,-178 122,0 237,39 302,148 59,99 62,230 62,343 0,97 1,199 32,292 27,77 91,150 179,150 52,-1 104,-28 140,-65 63,-63 75,-147 75,-232l0 -590z"/>
 </g>
</svg>
