<?xml version="1.0" encoding="UTF-8"?>
<!DOCTYPE svg PUBLIC "-//W3C//DTD SVG 1.1//EN" "http://www.w3.org/Graphics/SVG/1.1/DTD/svg11.dtd">
<!-- Creator: CorelDRAW X8 -->
<svg xmlns="http://www.w3.org/2000/svg" xml:space="preserve" width="2113px" height="1486px" version="1.1" style="shape-rendering:geometricPrecision; text-rendering:geometricPrecision; image-rendering:optimizeQuality; fill-rule:evenodd; clip-rule:evenodd"
viewBox="0 0 2113 1486"
 xmlns:xlink="http://www.w3.org/1999/xlink">
 <defs>
  <style type="text/css">
   <![CDATA[
    .fil0 {fill:black}
   ]]>
  </style>
 </defs>
 <g id="Layer_x0020_1">
  <metadata id="CorelCorpID_0Corel-Layer"/>
  <path class="fil0" d="M1280 1113c81,0 151,7 209,21 140,32 210,98 210,164 0,5 -1,12 -2,18 145,-90 214,-242 241,-406 -87,74 -201,114 -321,114 -130,0 -240,-39 -310,-116 -72,85 -182,116 -290,116 -152,0 -295,-77 -348,-225 -34,-97 -35,-203 -35,-304 0,-88 -1,-184 -31,-268 -26,-75 -76,-136 -170,-136 -123,0 -199,103 -237,218 -24,69 -34,143 -34,202 1,170 77,365 248,428 37,14 47,43 22,63 -33,28 -86,24 -123,9 -206,-82 -307,-286 -309,-500 -1,-84 13,-166 41,-239 61,-158 190,-272 392,-272 163,0 265,65 318,182 43,96 45,204 45,308 0,97 0,199 33,291 28,80 98,154 188,152 155,-4 204,-137 204,-271l0 -616c0,-25 37,-46 82,-46 45,0 81,21 81,46l0 616c0,149 71,270 233,270 131,0 237,-96 283,-213 25,-63 36,-132 36,-201 1,-160 -62,-368 -223,-436 -36,-16 -43,-44 -16,-64 32,-24 84,-22 119,-7 160,71 237,214 271,372 18,81 25,167 26,248 2,125 -9,252 -44,369 -45,150 -129,282 -279,372 -134,80 -330,113 -485,114 -82,0 -175,-7 -254,-28 -127,-34 -190,-97 -190,-160 0,-64 67,-128 199,-162 60,-15 133,-23 220,-23zm0 90c-83,0 -146,11 -189,28 -27,11 -69,33 -69,67 -1,25 22,50 69,68 43,17 106,28 189,28 68,0 123,-7 164,-19 33,-10 95,-35 94,-77 0,-29 -31,-57 -92,-75 -42,-13 -97,-20 -166,-20z"/>
 </g>
</svg>
