<?xml version="1.0" encoding="UTF-8"?>
<!DOCTYPE svg PUBLIC "-//W3C//DTD SVG 1.1//EN" "http://www.w3.org/Graphics/SVG/1.1/DTD/svg11.dtd">
<!-- Creator: CorelDRAW X8 -->
<svg xmlns="http://www.w3.org/2000/svg" xml:space="preserve" width="2460px" height="1486px" version="1.1" style="shape-rendering:geometricPrecision; text-rendering:geometricPrecision; image-rendering:optimizeQuality; fill-rule:evenodd; clip-rule:evenodd"
viewBox="0 0 2460 1486"
 xmlns:xlink="http://www.w3.org/1999/xlink">
 <defs>
  <style type="text/css">
   <![CDATA[
    .fil0 {fill:#669933;fill-rule:nonzero}
   ]]>
  </style>
 </defs>
 <g id="Layer_x0020_1">
  <metadata id="CorelCorpID_0Corel-Layer"/>
  <path class="fil0" d="M539 1196c-208,-131 -355,-334 -374,-632 -14,-200 58,-396 203,-488 30,-19 27,-47 -7,-64 -33,-17 -85,-15 -114,4 -176,111 -261,331 -245,555 25,352 220,583 484,725 227,121 527,191 825,190 336,-2 668,-93 888,-301 158,-149 258,-358 261,-632 1,-120 -19,-244 -74,-346 -45,-84 -113,-153 -210,-196 -35,-15 -86,-17 -118,7 -27,20 -20,49 15,64 161,68 224,276 223,437 0,68 -10,137 -35,200 -46,118 -153,214 -284,214 -162,0 -232,-121 -232,-271l0 -616c0,-25 -37,-46 -82,-46 -45,0 -81,21 -81,46l0 617c0,133 -50,267 -205,270 -90,2 -160,-72 -188,-151 -33,-92 -32,-195 -32,-291 -1,-104 -3,-213 -46,-309 -53,-117 -155,-182 -318,-182 -202,0 -331,114 -392,272 -28,73 -42,155 -41,239 1,214 102,419 309,500 37,15 90,20 123,-8 25,-21 15,-49 -23,-63 -171,-63 -246,-258 -247,-429 0,-59 10,-133 33,-202 39,-115 115,-218 238,-218 94,0 144,61 170,136 30,84 31,180 31,268 0,102 1,208 35,304 53,148 196,225 348,225 108,0 218,-31 290,-116 71,77 180,116 310,116 84,0 165,-19 236,-56 -30,52 -66,99 -106,140 -190,198 -492,286 -798,287 -283,1 -568,-72 -770,-199z"/>
 </g>
</svg>
