<?xml version="1.0" encoding="UTF-8"?>
<!DOCTYPE svg PUBLIC "-//W3C//DTD SVG 1.1//EN" "http://www.w3.org/Graphics/SVG/1.1/DTD/svg11.dtd">
<!-- Creator: CorelDRAW X8 -->
<svg xmlns="http://www.w3.org/2000/svg" xml:space="preserve" width="2476px" height="1486px" version="1.1" style="shape-rendering:geometricPrecision; text-rendering:geometricPrecision; image-rendering:optimizeQuality; fill-rule:evenodd; clip-rule:evenodd"
viewBox="0 0 2476 1487"
 xmlns:xlink="http://www.w3.org/1999/xlink">
 <defs>
  <style type="text/css">
   <![CDATA[
    .fil0 {fill:black;fill-rule:nonzero}
   ]]>
  </style>
 </defs>
 <g id="Layer_x0020_1">
  <metadata id="CorelCorpID_0Corel-Layer"/>
  <path class="fil0" d="M1683 908c-72,85 -182,116 -290,116 -152,0 -295,-77 -348,-225 -34,-96 -35,-202 -35,-304 0,-88 -1,-184 -31,-268 -26,-75 -76,-136 -170,-136 -123,0 -199,103 -238,218 -23,69 -33,143 -33,202 1,171 76,366 247,429 38,14 48,42 23,63 -33,28 -86,23 -123,8 -207,-81 -308,-286 -309,-500 -1,-84 13,-166 41,-239 61,-158 190,-272 392,-272 163,0 265,65 318,182 43,96 46,205 46,309 0,96 -1,199 32,291 28,79 98,153 188,151 155,-3 205,-137 205,-270l0 -617c0,-25 36,-46 81,-46 45,0 82,21 82,46l0 616c0,150 70,271 232,271 131,0 238,-96 284,-214 25,-63 35,-132 35,-200 1,-161 -62,-369 -223,-437 -35,-15 -42,-44 -15,-64 32,-24 83,-22 118,-7 97,43 165,112 210,196 55,102 75,226 74,346 -3,274 -103,483 -261,632 -243,229 -593,302 -917,302 -299,-1 -603,-47 -844,-175 -285,-152 -454,-409 -454,-732 0,-218 84,-437 271,-563 28,-19 80,-22 114,-6 34,16 39,45 11,64 -164,110 -233,316 -233,506 0,290 145,527 403,665 206,109 470,149 732,150 354,0 740,-101 931,-428 -71,37 -152,56 -236,56 -130,0 -239,-39 -310,-116z"/>
 </g>
</svg>
