<?xml version="1.0" encoding="UTF-8" standalone="no"?>
<!-- Creator: CorelDRAW X8 -->

<svg
   xmlns:dc="http://purl.org/dc/elements/1.1/"
   xmlns:cc="http://creativecommons.org/ns#"
   xmlns:rdf="http://www.w3.org/1999/02/22-rdf-syntax-ns#"
   xmlns:svg="http://www.w3.org/2000/svg"
   xmlns="http://www.w3.org/2000/svg"
   xmlns:sodipodi="http://sodipodi.sourceforge.net/DTD/sodipodi-0.dtd"
   xmlns:inkscape="http://www.inkscape.org/namespaces/inkscape"
   xml:space="preserve"
   width="2227px"
   height="1024px"
   version="1.1"
   style="shape-rendering:geometricPrecision; text-rendering:geometricPrecision; image-rendering:optimizeQuality; fill-rule:evenodd; clip-rule:evenodd"
   viewBox="0 0 2227 1024"
   id="svg10"
   sodipodi:docname="ഢ.svg"
   inkscape:version="0.92.3 (2405546, 2018-03-11)"><metadata
   id="metadata14"><rdf:RDF><cc:Work
       rdf:about=""><dc:format>image/svg+xml</dc:format><dc:type
         rdf:resource="http://purl.org/dc/dcmitype/StillImage" /></cc:Work></rdf:RDF></metadata><sodipodi:namedview
   pagecolor="#ffffff"
   bordercolor="#666666"
   borderopacity="1"
   objecttolerance="10"
   gridtolerance="10"
   guidetolerance="10"
   inkscape:pageopacity="0"
   inkscape:pageshadow="2"
   inkscape:window-width="1062"
   inkscape:window-height="497"
   id="namedview12"
   showgrid="false"
   inkscape:zoom="0.21912887"
   inkscape:cx="643.45697"
   inkscape:cy="512"
   inkscape:window-x="0"
   inkscape:window-y="0"
   inkscape:window-maximized="0"
   inkscape:current-layer="Layer_x0020_1" />
 <defs
   id="defs4">
  <style
   type="text/css"
   id="style2">
   <![CDATA[
    .fil0 {fill:#669933;fill-rule:nonzero}
   ]]>
  </style>
 </defs>
 <g
   id="Layer_x0020_1">
  <metadata
   id="CorelCorpID_0Corel-Layer" />
  <path
   class="fil0"
   d="m 1699,933 c 147,1 257,-89 317,-210 32,-64 49,-137 50,-209 -52,75 -130,115 -220,119 -97,3 -190,-34 -250,-98 -54,-57 -81,-133 -79,-222 3,-89 37,-179 106,-236 57,-47 140,-75 223,-77 84,-2 156,21 222,75 111,91 159,253 159,409 0,102 -21,194 -60,273 -84,166 -249,269 -468,267 -132,-2 -283,-31 -379,-132 -72,95 -187,129 -303,132 C 862,1027 723,951 669,799 635,703 635,592 635,491 634,349 629,91 433,91 241,91 164,331 162,491 c -2,172 73,384 248,449 37,14 47,42 23,63 -34,28 -86,23 -124,9 C 97,927 -3,710 0,491 4,229 144,0 433,0 c 317,0 364,231 364,491 0,96 -1,199 32,291 28,79 98,153 188,151 156,-3 205,-142 205,-276 V 46 c 0,-25 36,-46 81,-46 45,0 82,21 82,46 v 587 c 0,191 135,298 314,300 z M 1846,91 c -84,0 -173,73 -174,222 0,149 87,223 174,223 87,0 175,-74 175,-223 0,-147 -85,-222 -175,-222 z"
   id="path7"
   inkscape:connector-curvature="0"
   style="fill:#669933;fill-rule:nonzero"
   sodipodi:nodetypes="cccccccccsccccccscccccssccssssscscsss" />
 </g>
</svg>