<?xml version="1.0" encoding="UTF-8"?>
<!DOCTYPE svg PUBLIC "-//W3C//DTD SVG 1.1//EN" "http://www.w3.org/Graphics/SVG/1.1/DTD/svg11.dtd">
<!-- Creator: CorelDRAW X8 -->
<svg xmlns="http://www.w3.org/2000/svg" xml:space="preserve" width="2225px" height="2048px" version="1.1" style="shape-rendering:geometricPrecision; text-rendering:geometricPrecision; image-rendering:optimizeQuality; fill-rule:evenodd; clip-rule:evenodd"
viewBox="0 0 2225 2048"
 xmlns:xlink="http://www.w3.org/1999/xlink">
 <defs>
  <style type="text/css">
   <![CDATA[
    .fil0 {fill:#2B2A29;fill-rule:nonzero}
   ]]>
  </style>
 </defs>
 <g id="Layer_x0020_1">
  <metadata id="CorelCorpID_0Corel-Layer"/>
  <path class="fil0" d="M1320 1914c-9,12 -19,24 -30,34 -73,74 -177,111 -280,112 -154,1 -289,-75 -340,-224 -34,-99 -35,-204 -35,-308 0,-142 -5,-401 -202,-401 -83,0 -147,50 -191,118 -61,93 -85,221 -79,331 5,94 31,186 82,264 41,63 97,111 165,137 37,14 48,42 23,63 -33,28 -86,23 -124,8 -94,-37 -166,-100 -217,-177 -55,-85 -85,-185 -91,-287 -7,-125 19,-265 88,-370 79,-121 202,-178 344,-178 123,0 237,39 302,148 59,99 62,230 62,343 1,97 1,199 33,292 33,94 100,149 192,149 84,1 137,-42 166,-102 27,-57 35,-129 34,-193l0 -591c0,-25 37,-45 82,-45 45,0 81,20 81,45l0 591c2,94 38,161 91,211 57,52 133,79 207,84 154,10 277,-77 340,-214 28,-62 43,-131 46,-206 -52,77 -133,118 -223,121 -98,4 -189,-34 -249,-97 -53,-57 -81,-135 -78,-224 2,-89 35,-178 105,-235 64,-51 143,-77 221,-77 113,0 226,51 292,150 49,74 78,176 86,280 9,116 -8,235 -52,322 -97,199 -289,284 -505,271 -122,-8 -244,-49 -329,-128 -6,-6 -12,-11 -17,-17zm703 -564c0,-148 -93,-223 -183,-223 -84,0 -166,74 -166,223 -1,148 87,223 174,222 87,0 174,-74 175,-222z"/>
 </g>
</svg>
