<?xml version="1.0" encoding="UTF-8"?>
<!DOCTYPE svg PUBLIC "-//W3C//DTD SVG 1.1//EN" "http://www.w3.org/Graphics/SVG/1.1/DTD/svg11.dtd">
<!-- Creator: CorelDRAW X8 -->
<svg xmlns="http://www.w3.org/2000/svg" xml:space="preserve" width="2227px" height="1024px" version="1.1" style="shape-rendering:geometricPrecision; text-rendering:geometricPrecision; image-rendering:optimizeQuality; fill-rule:evenodd; clip-rule:evenodd"
viewBox="0 0 2227 1024"
 xmlns:xlink="http://www.w3.org/1999/xlink">
 <defs>
  <style type="text/css">
   <![CDATA[
    .fil0 {fill:#57A7B3;fill-rule:nonzero}
   ]]>
  </style>
 </defs>
 <g id="Layer_x0020_1">
  <metadata id="CorelCorpID_0Corel-Layer"/>
  <path class="fil0" d="M2227 484c0,102 -21,195 -60,273 -84,167 -249,270 -468,267 -133,-1 -278,-42 -374,-138 -61,87 -171,135 -308,138 -155,4 -294,-73 -348,-225 -34,-96 -34,-207 -34,-308 -1,-142 -6,-400 -202,-400 -192,0 -269,240 -271,400 -2,172 73,385 248,449 37,14 47,42 23,63 -34,28 -86,24 -124,9 -212,-84 -312,-302 -309,-521 4,-262 144,-491 433,-491 317,0 364,231 364,491 0,96 -1,199 32,291 28,79 98,153 188,151 173,-4 205,-158 205,-299l0 -589c0,-25 36,-45 81,-45 45,0 81,20 81,45l0 589c3,181 139,298 315,299 147,2 257,-88 317,-209 32,-64 49,-137 50,-210 -52,75 -130,116 -220,119 -97,3 -190,-34 -250,-98 -54,-56 -81,-133 -79,-221 3,-89 37,-179 106,-236 57,-48 140,-76 223,-78 84,-1 156,22 222,75 111,92 159,253 159,409zm-206 -170c0,-147 -85,-222 -175,-223 -84,0 -173,74 -174,223 0,148 87,222 174,222 87,0 175,-74 175,-222z"/>
 </g>
</svg>
