<?xml version="1.0" encoding="UTF-8"?>
<!DOCTYPE svg PUBLIC "-//W3C//DTD SVG 1.1//EN" "http://www.w3.org/Graphics/SVG/1.1/DTD/svg11.dtd">
<!-- Creator: CorelDRAW X8 -->
<svg xmlns="http://www.w3.org/2000/svg" xml:space="preserve" width="2225px" height="1024px" version="1.1" style="shape-rendering:geometricPrecision; text-rendering:geometricPrecision; image-rendering:optimizeQuality; fill-rule:evenodd; clip-rule:evenodd"
viewBox="0 0 2225 1024"
 xmlns:xlink="http://www.w3.org/1999/xlink">
 <defs>
  <style type="text/css">
   <![CDATA[
    .fil0 {fill:#1F1B20;fill-rule:nonzero}
   ]]>
  </style>
 </defs>
 <g id="Layer_x0020_1">
  <metadata id="CorelCorpID_0Corel-Layer"/>
  <path class="fil0" d="M1320 878c-9,12 -19,24 -30,34 -73,74 -177,111 -280,112 -154,1 -289,-75 -340,-224 -34,-99 -35,-204 -35,-308 0,-142 -5,-401 -202,-401 -83,0 -147,50 -191,118 -61,93 -85,221 -79,331 5,94 31,186 82,264 41,63 97,111 165,137 37,14 48,42 23,63 -25,21 -75,26 -113,13 -99,-37 -175,-102 -228,-182 -55,-85 -85,-185 -91,-287 -7,-125 20,-265 88,-370 79,-121 202,-178 344,-178 123,0 237,39 302,148 59,99 62,230 62,343 1,97 1,199 33,292 26,77 90,150 178,150 52,-1 104,-28 141,-65 64,-64 73,-144 73,-230l0 -592c0,-25 38,-45 83,-45 44,0 81,20 81,45 -1,195 -3,392 0,587 2,94 37,165 90,215 57,52 133,79 207,84 154,9 277,-77 340,-214 28,-62 43,-131 46,-206 -52,77 -133,118 -223,121 -98,4 -189,-34 -249,-97 -53,-57 -81,-135 -78,-224 2,-89 35,-178 105,-235 64,-51 142,-77 221,-77 113,0 226,51 292,150 49,74 78,176 86,280 9,116 -8,235 -52,322 -97,199 -289,284 -505,271 -122,-8 -244,-49 -329,-128 -6,-6 -12,-11 -17,-17zm703 -564c0,-148 -93,-223 -183,-223 -84,0 -166,74 -166,223 -1,148 87,223 174,222 87,0 174,-74 175,-222z"/>
 </g>
</svg>
