<?xml version="1.0" encoding="UTF-8"?>
<!DOCTYPE svg PUBLIC "-//W3C//DTD SVG 1.1//EN" "http://www.w3.org/Graphics/SVG/1.1/DTD/svg11.dtd">
<!-- Creator: CorelDRAW X8 -->
<svg xmlns="http://www.w3.org/2000/svg" xml:space="preserve" width="2225px" height="2048px" version="1.1" style="shape-rendering:geometricPrecision; text-rendering:geometricPrecision; image-rendering:optimizeQuality; fill-rule:evenodd; clip-rule:evenodd"
viewBox="0 0 2225 2048"
 xmlns:xlink="http://www.w3.org/1999/xlink">
 <defs>
  <style type="text/css">
   <![CDATA[
    .fil0 {fill:black;fill-rule:nonzero}
   ]]>
  </style>
 </defs>
 <g id="Layer_x0020_1">
  <metadata id="CorelCorpID_0Corel-Layer"/>
  <path class="fil0" d="M2226 1520c0,102 -21,195 -61,273 -87,176 -266,280 -503,266 -130,-8 -255,-54 -338,-138 -61,88 -165,136 -301,139 -156,3 -301,-74 -355,-225 -34,-96 -34,-202 -34,-304 0,-88 -2,-184 -31,-268 -27,-75 -77,-136 -171,-136 -192,0 -269,248 -270,408 -3,172 73,376 247,441 37,14 47,42 23,63 -33,28 -86,23 -124,8 -211,-84 -312,-297 -309,-516 4,-261 144,-495 433,-495 164,0 265,65 318,182 44,96 46,205 46,309 0,96 -1,199 32,290 28,80 98,154 188,152 173,-4 205,-159 205,-298l0 -590c0,-25 36,-45 81,-45 45,0 81,20 81,45l0 589c3,173 127,288 297,298 155,10 273,-82 335,-208 31,-65 49,-137 50,-210 -53,75 -132,116 -222,119 -97,3 -189,-34 -248,-98 -54,-56 -81,-134 -79,-223 3,-89 37,-177 106,-234 59,-50 138,-78 224,-78 91,0 164,29 221,75 110,92 159,253 159,409zm-206 -170c0,-147 -92,-222 -182,-223 -85,0 -166,74 -167,223 0,148 87,222 174,222 87,0 175,-74 175,-222z"/>
 </g>
</svg>
