<?xml version="1.0" encoding="UTF-8"?>
<!DOCTYPE svg PUBLIC "-//W3C//DTD SVG 1.1//EN" "http://www.w3.org/Graphics/SVG/1.1/DTD/svg11.dtd">
<!-- Creator: CorelDRAW X8 -->
<svg xmlns="http://www.w3.org/2000/svg" xml:space="preserve" width="2625px" height="1486px" version="1.1" style="shape-rendering:geometricPrecision; text-rendering:geometricPrecision; image-rendering:optimizeQuality; fill-rule:evenodd; clip-rule:evenodd"
viewBox="0 0 2625 1487"
 xmlns:xlink="http://www.w3.org/1999/xlink">
 <defs>
  <style type="text/css">
   <![CDATA[
    .fil0 {fill:blue;fill-rule:nonzero}
   ]]>
  </style>
 </defs>
 <g id="Layer_x0020_1">
  <metadata id="CorelCorpID_0Corel-Layer"/>
  <path class="fil0" d="M1781 657l0 -611c0,-25 -36,-46 -81,-46 -45,0 -82,21 -82,46l0 611c0,134 -49,273 -204,276 -90,2 -160,-72 -188,-151 -33,-92 -33,-195 -33,-291 0,-260 -47,-491 -364,-491 -289,0 -428,229 -432,491 -4,219 97,436 309,521 37,14 90,19 123,-9 25,-21 15,-49 -23,-63 -174,-65 -249,-277 -247,-449 2,-160 79,-400 270,-400 197,0 202,258 202,400 0,101 1,212 35,308 54,152 192,228 348,225 116,-3 231,-37 303,-132 96,101 247,130 379,132 99,1 205,-21 290,-73 -199,339 -634,445 -1001,445 -270,-1 -560,-41 -789,-156 -272,-136 -434,-364 -433,-669 0,-191 73,-389 240,-495 30,-19 27,-47 -7,-64 -33,-17 -85,-15 -114,4 -193,122 -282,334 -282,555 -1,339 187,587 488,737 262,132 592,178 897,179 339,0 719,-69 974,-310 167,-156 269,-379 266,-680 -1,-151 -39,-322 -161,-422 -65,-54 -137,-77 -221,-75 -83,2 -166,30 -224,77 -69,57 -102,147 -105,236 -3,89 25,165 78,222 60,64 153,101 251,98 89,-4 167,-44 219,-119 0,72 -18,145 -49,209 -60,121 -170,211 -317,210 -176,-2 -315,-103 -315,-276zm637 -344c-1,149 -88,223 -175,223 -87,0 -174,-74 -174,-223 0,-149 90,-222 174,-222 90,0 175,75 175,222z"/>
 </g>
</svg>
