<?xml version="1.0" encoding="UTF-8"?>
<!DOCTYPE svg PUBLIC "-//W3C//DTD SVG 1.1//EN" "http://www.w3.org/Graphics/SVG/1.1/DTD/svg11.dtd">
<!-- Creator: CorelDRAW X8 -->
<svg xmlns="http://www.w3.org/2000/svg" xml:space="preserve" width="2625px" height="1486px" version="1.1" style="shape-rendering:geometricPrecision; text-rendering:geometricPrecision; image-rendering:optimizeQuality; fill-rule:evenodd; clip-rule:evenodd"
viewBox="0 0 2625 1486"
 xmlns:xlink="http://www.w3.org/1999/xlink">
 <defs>
  <style type="text/css">
   <![CDATA[
    .fil0 {fill:black;fill-rule:nonzero}
   ]]>
  </style>
 </defs>
 <g id="Layer_x0020_1">
  <metadata id="CorelCorpID_0Corel-Layer"/>
  <path class="fil0" d="M1385 1486c-305,0 -635,-47 -897,-178 -301,-150 -489,-398 -488,-737 0,-222 89,-433 282,-555 29,-19 81,-21 114,-4 34,17 37,45 7,64 -167,106 -240,304 -240,495 -1,305 161,533 433,669 229,114 519,155 789,155 367,0 802,-105 1001,-444 -80,48 -178,75 -290,73 -133,-1 -278,-42 -374,-138 -61,87 -171,135 -308,138 -155,4 -294,-73 -348,-225 -34,-96 -34,-207 -34,-308 -1,-142 -5,-400 -202,-400 -192,0 -269,240 -271,400 -2,172 73,384 248,449 37,14 47,42 23,63 -33,28 -86,24 -124,9 -211,-84 -312,-302 -309,-521 4,-262 144,-491 433,-491 317,0 364,231 364,491 0,96 -1,199 32,291 28,79 98,153 188,151 173,-4 205,-158 205,-299l0 -589c0,-25 36,-45 81,-45 45,0 81,20 81,45l0 589c0,181 139,298 315,299 153,2 267,-85 324,-204 32,-65 42,-139 43,-215 -52,75 -130,116 -220,119 -97,3 -190,-34 -250,-98 -54,-56 -81,-133 -79,-221 3,-89 37,-179 106,-236 57,-48 140,-76 223,-78 85,-1 156,22 222,75 114,94 158,254 160,422 3,301 -99,523 -266,680 -255,241 -635,309 -974,309zm1033 -1172c0,-147 -85,-222 -175,-223 -84,0 -173,74 -173,223 -1,148 86,222 173,222 88,0 175,-74 175,-222z"/>
 </g>
</svg>
