<?xml version="1.0" encoding="UTF-8"?>
<!DOCTYPE svg PUBLIC "-//W3C//DTD SVG 1.1//EN" "http://www.w3.org/Graphics/SVG/1.1/DTD/svg11.dtd">
<!-- Creator: CorelDRAW X8 -->
<svg xmlns="http://www.w3.org/2000/svg" xml:space="preserve" width="2240px" height="1495px" version="1.1" style="shape-rendering:geometricPrecision; text-rendering:geometricPrecision; image-rendering:optimizeQuality; fill-rule:evenodd; clip-rule:evenodd"
viewBox="0 0 2240 1495"
 xmlns:xlink="http://www.w3.org/1999/xlink">
 <defs>
  <style type="text/css">
   <![CDATA[
    .fil0 {fill:#00A0E3}
   ]]>
  </style>
 </defs>
 <g id="Layer_x0020_1">
  <metadata id="CorelCorpID_0Corel-Layer"/>
  <path class="fil0" d="M1316 1122c81,0 151,8 208,21 140,33 211,98 211,164 0,6 -1,12 -2,19 146,-91 262,-254 317,-420 -89,77 -208,120 -351,118 -134,-1 -278,-42 -375,-139 -60,88 -171,136 -307,139 -156,3 -294,-74 -348,-225 -34,-96 -35,-207 -35,-308 0,-142 -5,-400 -201,-400 -192,0 -269,240 -271,400 -2,172 73,384 248,449 37,14 47,42 22,63 -33,28 -86,23 -123,8 -212,-84 -312,-301 -309,-520 4,-262 143,-491 433,-491 316,0 363,231 364,491 0,96 -1,199 32,290 28,80 98,154 188,152 172,-4 204,-159 204,-299 0,-196 0,-392 0,-589 0,-25 37,-45 82,-45 44,0 81,20 81,45 0,197 -2,393 0,589 1,181 139,297 315,299 146,1 257,-89 316,-210 32,-64 49,-136 50,-209 -52,75 -130,116 -219,119 -98,3 -191,-34 -251,-98 -53,-56 -81,-133 -78,-221 2,-89 36,-179 105,-236 58,-48 141,-76 224,-78 84,-1 156,22 221,75 138,114 173,353 173,524 0,143 -21,283 -79,414 -65,145 -173,271 -335,368 -138,82 -349,117 -510,114 -84,-2 -165,-10 -229,-27 -127,-35 -190,-98 -190,-161 0,-64 66,-128 199,-161 60,-15 133,-24 220,-24zm705 -808c0,-147 -85,-222 -175,-223 -84,0 -174,74 -174,223 0,148 87,222 174,222 87,0 174,-74 175,-222zm-705 898c69,0 124,8 165,20 62,18 93,47 93,75 0,42 -61,67 -95,77 -41,12 -95,20 -163,20 -84,0 -147,-12 -190,-29 -46,-18 -69,-43 -68,-68 0,-34 41,-56 69,-67 43,-17 106,-28 189,-28z"/>
 </g>
</svg>
