<?xml version="1.0" encoding="UTF-8"?>
<!DOCTYPE svg PUBLIC "-//W3C//DTD SVG 1.1//EN" "http://www.w3.org/Graphics/SVG/1.1/DTD/svg11.dtd">
<!-- Creator: CorelDRAW X8 -->
<svg xmlns="http://www.w3.org/2000/svg" xml:space="preserve" width="2302px" height="2048px" version="1.1" style="shape-rendering:geometricPrecision; text-rendering:geometricPrecision; image-rendering:optimizeQuality; fill-rule:evenodd; clip-rule:evenodd"
viewBox="0 0 2302 2048"
 xmlns:xlink="http://www.w3.org/1999/xlink">
 <defs>
  <style type="text/css">
   <![CDATA[
    .fil0 {fill:#1F1B20;fill-rule:nonzero}
   ]]>
  </style>
 </defs>
 <g id="Layer_x0020_1">
  <metadata id="CorelCorpID_0Corel-Layer"/>
  <path class="fil0" d="M-2 1576c0,-102 21,-195 60,-273 88,-175 266,-280 503,-266 133,8 260,55 343,143 68,-92 183,-144 315,-144 123,0 225,42 291,119 70,-79 181,-119 313,-119 182,0 351,90 430,259 37,79 53,169 51,260 -3,201 -88,408 -283,494 -35,15 -86,16 -118,-7 -27,-20 -20,-49 16,-64 156,-66 220,-264 223,-422 1,-73 -10,-148 -36,-215 -46,-118 -152,-214 -283,-214 -164,0 -233,124 -233,271l0 616c0,25 -37,46 -82,46 -45,0 -81,-21 -81,-46l0 -589c2,-217 -85,-298 -211,-298 -130,0 -214,92 -213,299l0 589c0,25 -37,45 -81,45 -45,0 -82,-20 -82,-45l0 -589c0,-173 -127,-288 -296,-298 -156,-10 -273,83 -335,209 -32,64 -49,137 -50,209 52,-75 132,-116 221,-119 98,-3 189,34 249,98 53,57 81,134 78,223 -2,89 -36,177 -105,235 -60,49 -138,77 -224,77 -91,0 -164,-29 -221,-75 -111,-92 -159,-253 -159,-409zm206 170c-1,148 92,223 182,223 84,0 166,-74 166,-223 1,-148 -87,-222 -174,-222 -87,0 -174,74 -174,222z"/>
 </g>
</svg>
