<?xml version="1.0" encoding="UTF-8"?>
<!DOCTYPE svg PUBLIC "-//W3C//DTD SVG 1.1//EN" "http://www.w3.org/Graphics/SVG/1.1/DTD/svg11.dtd">
<!-- Creator: CorelDRAW X8 -->
<svg xmlns="http://www.w3.org/2000/svg" xml:space="preserve" width="2307px" height="1024px" version="1.1" style="shape-rendering:geometricPrecision; text-rendering:geometricPrecision; image-rendering:optimizeQuality; fill-rule:evenodd; clip-rule:evenodd"
viewBox="0 0 2307 1024"
 xmlns:xlink="http://www.w3.org/1999/xlink">
 <defs>
  <style type="text/css">
   <![CDATA[
    .fil0 {fill:#57A7B3;fill-rule:nonzero}
   ]]>
  </style>
 </defs>
 <g id="Layer_x0020_1">
  <metadata id="CorelCorpID_0Corel-Layer"/>
  <path class="fil0" d="M0 540c0,-102 21,-194 60,-273 82,-163 249,-266 462,-267 139,-1 286,40 384,143 71,-97 193,-142 310,-143 111,-1 218,37 294,122 70,-81 182,-122 315,-122 183,0 352,90 431,259 37,79 52,170 51,261 -3,201 -88,405 -280,491 -36,17 -88,20 -121,-5 -27,-20 -20,-48 15,-64 156,-66 221,-264 223,-422 1,-73 -9,-148 -35,-215 -47,-118 -153,-214 -284,-214 -162,0 -233,122 -233,270l0 617c0,25 -36,46 -81,46 -45,0 -82,-21 -82,-46l0 -617c0,-64 -12,-126 -44,-175 -42,-63 -106,-94 -169,-94 -69,0 -136,36 -175,107 -30,55 -37,124 -36,191l0 589c0,25 -36,45 -81,45 -45,0 -81,-20 -81,-45l0 -589c-3,-182 -143,-300 -321,-299 -144,1 -252,90 -311,210 -32,64 -49,137 -50,209 52,-75 130,-115 220,-119 97,-3 190,34 250,98 54,57 81,133 79,222 -3,89 -37,179 -106,236 -58,48 -139,76 -223,77 -83,1 -157,-22 -222,-75 -111,-91 -159,-253 -159,-409zm206 171c0,147 85,222 175,222 84,0 173,-73 174,-222 0,-149 -87,-223 -174,-223 -87,0 -175,74 -175,223z"/>
 </g>
</svg>
