<?xml version="1.0" encoding="UTF-8"?>
<!DOCTYPE svg PUBLIC "-//W3C//DTD SVG 1.1//EN" "http://www.w3.org/Graphics/SVG/1.1/DTD/svg11.dtd">
<!-- Creator: CorelDRAW X8 -->
<svg xmlns="http://www.w3.org/2000/svg" xml:space="preserve" width="2302px" height="1024px" version="1.1" style="shape-rendering:geometricPrecision; text-rendering:geometricPrecision; image-rendering:optimizeQuality; fill-rule:evenodd; clip-rule:evenodd"
viewBox="0 0 2302 1024"
 xmlns:xlink="http://www.w3.org/1999/xlink">
 <defs>
  <style type="text/css">
   <![CDATA[
    .fil0 {fill:#1F1B20;fill-rule:nonzero}
   ]]>
  </style>
 </defs>
 <g id="Layer_x0020_1">
  <metadata id="CorelCorpID_0Corel-Layer"/>
  <path class="fil0" d="M54 272c97,-199 289,-284 505,-271 133,9 248,50 345,143 73,-102 192,-144 314,-144 112,0 221,34 293,123 87,-85 196,-123 316,-123 256,0 438,169 470,417 19,151 -15,323 -105,448 -46,62 -106,114 -183,148 -35,16 -86,13 -114,-7 -28,-20 -22,-48 13,-64 53,-23 97,-63 133,-111 82,-113 111,-271 93,-408 -20,-161 -128,-332 -307,-332 -152,0 -236,128 -236,268 0,344 -1,-47 0,618 0,25 -38,46 -83,46 -44,0 -81,-21 -81,-46 0,-98 0,-449 0,-603 2,-134 -60,-283 -209,-283 -170,0 -215,162 -215,301l0 586c0,25 -37,46 -82,46 -45,0 -82,-21 -82,-46 1,-195 3,-392 0,-587 -2,-94 -37,-165 -90,-215 -57,-52 -133,-80 -207,-84 -153,-10 -277,77 -340,214 -28,62 -43,132 -46,206 52,-76 133,-118 223,-121 98,-4 189,34 249,97 54,57 81,135 79,224 -3,89 -37,178 -106,235 -59,49 -138,77 -224,77 -136,0 -229,-60 -289,-150 -49,-74 -78,-176 -86,-280 -9,-116 8,-234 52,-322zm148 438c0,148 93,223 183,223 84,0 166,-73 166,-223 1,-148 -86,-223 -174,-222 -87,0 -174,74 -175,222z"/>
 </g>
</svg>
