<?xml version="1.0" encoding="UTF-8"?>
<!DOCTYPE svg PUBLIC "-//W3C//DTD SVG 1.1//EN" "http://www.w3.org/Graphics/SVG/1.1/DTD/svg11.dtd">
<!-- Creator: CorelDRAW X8 -->
<svg xmlns="http://www.w3.org/2000/svg" xml:space="preserve" width="2306px" height="1024px" version="1.1" style="shape-rendering:geometricPrecision; text-rendering:geometricPrecision; image-rendering:optimizeQuality; fill-rule:evenodd; clip-rule:evenodd"
viewBox="0 0 2306 1024"
 xmlns:xlink="http://www.w3.org/1999/xlink">
 <defs>
  <style type="text/css">
   <![CDATA[
    .fil0 {fill:blue;fill-rule:nonzero}
   ]]>
  </style>
 </defs>
 <g id="Layer_x0020_1">
  <metadata id="CorelCorpID_0Corel-Layer"/>
  <path class="fil0" d="M0 541c0,-103 21,-195 60,-274 82,-163 249,-265 462,-266 139,-1 295,31 394,134 75,-91 185,-136 302,-135 110,1 214,42 291,132 70,-81 182,-131 315,-131 183,0 352,90 431,258 37,79 52,170 51,262 -3,200 -88,404 -280,490 -36,17 -88,20 -121,-5 -27,-20 -20,-49 15,-64 156,-66 221,-264 223,-421 1,-73 -9,-149 -35,-216 -46,-117 -153,-213 -284,-213 -161,0 -232,125 -232,274l0 612c0,25 -37,46 -82,46 -45,0 -81,-21 -81,-46l0 -612c0,-131 -62,-274 -211,-274 -151,0 -216,143 -213,275l0 612c0,25 -37,45 -81,45 -45,0 -81,-20 -81,-45l0 -612c-4,-183 -143,-276 -321,-275 -144,0 -252,90 -311,209 -32,64 -49,137 -50,209 52,-74 130,-115 219,-118 98,-4 191,34 251,97 53,57 81,133 78,222 -2,89 -36,179 -105,236 -59,48 -139,76 -224,77 -82,1 -156,-22 -221,-75 -111,-91 -159,-253 -159,-408zm206 170c0,147 85,222 174,222 85,0 174,-73 174,-222 1,-149 -86,-223 -174,-223 -87,0 -174,75 -174,223z"/>
 </g>
</svg>
