<?xml version="1.0" encoding="UTF-8"?>
<!DOCTYPE svg PUBLIC "-//W3C//DTD SVG 1.1//EN" "http://www.w3.org/Graphics/SVG/1.1/DTD/svg11.dtd">
<!-- Creator: CorelDRAW X8 -->
<svg xmlns="http://www.w3.org/2000/svg" xml:space="preserve" width="3878px" height="1485px" version="1.1" style="shape-rendering:geometricPrecision; text-rendering:geometricPrecision; image-rendering:optimizeQuality; fill-rule:evenodd; clip-rule:evenodd"
viewBox="0 0 3878 1485"
 xmlns:xlink="http://www.w3.org/1999/xlink">
 <defs>
  <style type="text/css">
   <![CDATA[
    .fil0 {fill:#A82682;fill-rule:nonzero}
   ]]>
  </style>
 </defs>
 <g id="Layer_x0020_1">
  <metadata id="CorelCorpID_0Corel-Layer"/>
  <path class="fil0" d="M376 540c0,-102 21,-194 60,-273 82,-163 249,-266 462,-267 139,-1 285,40 384,143 70,-97 192,-142 309,-143 125,-1 243,45 309,135 71,-83 175,-135 311,-135 164,0 266,65 319,182 43,96 45,205 45,309 0,96 0,199 33,291 28,79 98,153 188,151 155,-3 204,-137 204,-270l0 -617c0,-25 37,-46 82,-46 45,0 81,21 81,46l0 616c0,150 70,271 232,271 131,0 238,-96 285,-214 24,-63 35,-138 35,-206 1,-161 -62,-363 -223,-431 -35,-15 -42,-44 -15,-64 32,-24 83,-22 118,-7 197,87 282,298 283,502 1,203 -34,379 -137,523 -137,193 -367,293 -589,350 -265,68 -621,102 -1101,99 -551,-3 -983,-21 -1310,-101 -339,-83 -560,-230 -672,-488 -43,-98 -69,-218 -69,-338 0,-63 7,-127 23,-187 38,-148 128,-282 288,-360 34,-16 86,-14 115,5 29,19 26,47 -8,64 -128,62 -201,175 -234,304 -15,56 -21,115 -21,174 -1,113 23,224 64,316 99,227 289,355 579,426 302,74 716,91 1246,94 476,3 817,-31 1062,-99 193,-54 400,-151 514,-324 -65,35 -149,54 -233,53 -117,0 -236,-36 -309,-116 -72,85 -182,116 -290,116 -152,0 -295,-77 -348,-225 -34,-96 -35,-202 -35,-304 0,-88 -1,-184 -31,-268 -27,-75 -77,-136 -171,-136 -180,0 -243,154 -243,299l0 588c0,25 -36,46 -81,46 -45,0 -82,-21 -82,-46l0 -588c0,-69 -11,-144 -44,-202 -33,-56 -87,-96 -170,-96 -68,0 -135,36 -174,107 -30,55 -36,124 -36,191l0 589c0,25 -36,45 -81,45 -45,0 -81,-20 -81,-45l0 -589c0,-182 -143,-300 -321,-299 -144,1 -252,90 -311,210 -32,64 -49,137 -50,209 52,-75 130,-115 219,-118 98,-4 191,33 251,97 53,57 81,133 78,222 -2,89 -36,179 -105,236 -59,48 -139,76 -224,77 -83,1 -157,-22 -221,-75 -111,-91 -159,-253 -159,-409zm206 171c-1,147 84,222 174,222 85,0 174,-73 174,-222 1,-149 -87,-223 -174,-223 -87,0 -174,74 -174,223z"/>
 </g>
</svg>
