<?xml version="1.0" encoding="UTF-8"?>
<!DOCTYPE svg PUBLIC "-//W3C//DTD SVG 1.1//EN" "http://www.w3.org/Graphics/SVG/1.1/DTD/svg11.dtd">
<!-- Creator: CorelDRAW X8 -->
<svg xmlns="http://www.w3.org/2000/svg" xml:space="preserve" width="2432px" height="1024px" version="1.1" style="shape-rendering:geometricPrecision; text-rendering:geometricPrecision; image-rendering:optimizeQuality; fill-rule:evenodd; clip-rule:evenodd"
viewBox="0 0 2432 1024"
 xmlns:xlink="http://www.w3.org/1999/xlink">
 <defs>
  <style type="text/css">
   <![CDATA[
    .fil0 {fill:#00A0E3;fill-rule:nonzero}
   ]]>
  </style>
 </defs>
 <g id="Layer_x0020_1">
  <metadata id="CorelCorpID_0Corel-Layer"/>
  <path class="fil0" d="M0 540c0,-102 21,-195 60,-273 82,-163 249,-266 462,-267 139,-1 285,40 384,143 70,-97 192,-142 309,-143 125,-1 243,45 309,135 85,-92 229,-134 431,-135 185,-1 470,74 464,308 -4,137 -135,165 -250,148 -72,-10 -110,-35 -162,-32 -55,3 -79,52 -77,100 1,44 25,87 65,92 52,7 125,-22 172,-25 81,-5 172,12 225,79 27,34 40,76 40,118 1,162 -166,223 -303,233 -108,9 -225,-10 -310,-47 -35,-16 -41,-44 -14,-64 28,-20 79,-23 115,-8 52,23 122,34 187,29 91,-7 162,-49 162,-143 0,-82 -42,-124 -124,-99 -80,25 -179,35 -253,6 -71,-27 -108,-105 -109,-181 0,-70 30,-139 91,-168 68,-32 165,-21 252,1 64,16 129,28 137,-39 20,-160 -182,-218 -308,-217 -88,1 -172,17 -237,57 -77,46 -126,124 -126,242l0 588c0,25 -36,46 -81,46 -45,0 -82,-21 -82,-46l0 -588c0,-69 -11,-144 -44,-202 -33,-56 -87,-96 -170,-96 -68,0 -135,36 -174,107 -30,55 -36,123 -36,191l0 589c0,25 -36,45 -81,45 -45,0 -81,-20 -81,-45l0 -589c0,-182 -143,-300 -321,-299 -144,1 -252,90 -311,210 -32,64 -49,137 -50,209 52,-75 130,-116 219,-119 98,-3 191,34 251,98 53,57 81,133 78,221 -2,89 -36,179 -105,236 -58,49 -139,77 -224,78 -82,1 -156,-22 -221,-75 -111,-92 -159,-253 -159,-409zm206 170c0,148 85,223 174,223 85,0 174,-74 174,-223 1,-148 -86,-222 -174,-222 -87,0 -174,74 -174,222z"/>
 </g>
</svg>
