<?xml version="1.0" encoding="UTF-8"?>
<!DOCTYPE svg PUBLIC "-//W3C//DTD SVG 1.1//EN" "http://www.w3.org/Graphics/SVG/1.1/DTD/svg11.dtd">
<!-- Creator: CorelDRAW X8 -->
<svg xmlns="http://www.w3.org/2000/svg" xml:space="preserve" width="3502px" height="1024px" version="1.1" style="shape-rendering:geometricPrecision; text-rendering:geometricPrecision; image-rendering:optimizeQuality; fill-rule:evenodd; clip-rule:evenodd"
viewBox="0 0 3502 1024"
 xmlns:xlink="http://www.w3.org/1999/xlink">
 <defs>
  <style type="text/css">
   <![CDATA[
    .fil0 {fill:#669933;fill-rule:nonzero}
   ]]>
  </style>
 </defs>
 <g id="Layer_x0020_1">
  <metadata id="CorelCorpID_0Corel-Layer"/>
  <path class="fil0" d="M206 711c0,-149 87,-223 174,-223 88,0 175,74 174,223 0,148 -89,222 -174,222 -89,0 -175,-75 -174,-222zm2504 197c71,77 180,116 310,116 183,0 352,-90 431,-259 37,-79 52,-169 51,-260 -3,-201 -89,-408 -283,-494 -35,-15 -86,-17 -118,7 -27,20 -20,48 15,64 156,66 221,265 223,423 1,73 -9,147 -35,214 -46,118 -153,214 -284,214 -162,0 -232,-121 -232,-271l0 -616c0,-25 -37,-46 -82,-46 -45,0 -81,21 -81,46l0 616c0,134 -50,268 -205,271 -90,2 -160,-72 -188,-152 -33,-91 -32,-194 -32,-290 -1,-285 -58,-490 -376,-490 -133,0 -245,50 -315,131 -77,-90 -181,-131 -291,-132 -117,-1 -227,44 -302,135 -99,-103 -255,-135 -394,-134 -213,1 -380,103 -462,266 -39,79 -60,171 -60,274 0,155 48,316 159,408 65,53 139,76 221,75 85,-1 165,-29 224,-78 69,-57 103,-147 105,-235 3,-89 -25,-165 -78,-222 -60,-63 -153,-101 -251,-97 -89,3 -167,44 -219,118 1,-72 18,-145 50,-209 59,-119 167,-209 311,-209 185,-1 320,102 320,299l0 588c0,25 37,45 82,45 44,0 81,-20 81,-45l0 -612c0,-132 61,-275 213,-275 149,0 211,143 211,274l0 612c0,25 36,46 81,46 45,0 81,-21 81,-46l0 -612c0,-149 71,-274 233,-274 208,0 213,239 213,399 0,101 1,212 35,308 54,151 192,228 348,225 124,-3 228,-43 290,-116z"/>
 </g>
</svg>
