<?xml version="1.0" encoding="UTF-8"?>
<!DOCTYPE svg PUBLIC "-//W3C//DTD SVG 1.1//EN" "http://www.w3.org/Graphics/SVG/1.1/DTD/svg11.dtd">
<!-- Creator: CorelDRAW X8 -->
<svg xmlns="http://www.w3.org/2000/svg" xml:space="preserve" width="2825px" height="1486px" version="1.1" style="shape-rendering:geometricPrecision; text-rendering:geometricPrecision; image-rendering:optimizeQuality; fill-rule:evenodd; clip-rule:evenodd"
viewBox="0 0 2825 1485"
 xmlns:xlink="http://www.w3.org/1999/xlink">
 <defs>
  <style type="text/css">
   <![CDATA[
    .fil0 {fill:black;fill-rule:nonzero}
   ]]>
  </style>
 </defs>
 <g id="Layer_x0020_1">
  <metadata id="CorelCorpID_0Corel-Layer"/>
  <path class="fil0" d="M386 540c0,-102 21,-194 61,-273 81,-163 248,-265 461,-267 139,-1 285,41 384,143 70,-97 193,-141 309,-143 118,-1 230,41 298,121 2,2 8,10 14,18 99,-99 262,-138 421,-139 169,-1 481,63 475,286 -4,144 -135,176 -253,158 -51,-7 -122,-28 -174,-16 -48,12 -70,55 -68,96 2,40 25,79 68,92 79,23 164,-15 248,-11 141,7 194,99 195,230 2,288 -353,470 -587,546 -249,80 -540,104 -801,104 -337,1 -659,-57 -915,-178 -302,-144 -522,-374 -522,-719 0,-79 12,-160 38,-235 46,-133 135,-259 273,-339 32,-18 83,-19 115,-1 32,17 33,46 2,64 -115,67 -190,176 -230,293 -24,70 -36,145 -35,218 1,311 190,519 464,649 225,107 511,158 810,158 235,0 496,-22 720,-94 200,-64 512,-220 513,-466 0,-56 -13,-99 -73,-120 -72,-24 -197,50 -328,-18 -64,-33 -98,-103 -101,-172 -2,-80 29,-141 85,-176 96,-60 203,-20 305,-5 52,7 93,-3 101,-58 18,-134 -153,-193 -319,-194 -92,-1 -183,19 -237,48 -74,41 -125,115 -125,251l0 587c0,25 -36,46 -81,46 -45,0 -82,-21 -82,-46l0 -587c0,-70 -11,-145 -44,-202 -33,-57 -87,-97 -170,-97 -68,0 -135,36 -174,107 -30,56 -36,124 -36,192l0 588c0,25 -36,45 -81,45 -45,0 -81,-20 -81,-45l0 -588c0,-183 -143,-301 -321,-300 -144,1 -252,90 -311,210 -32,64 -49,137 -50,209 52,-75 130,-115 220,-118 97,-4 190,33 250,97 54,57 81,133 79,222 -3,89 -37,178 -106,236 -58,48 -139,76 -223,77 -83,1 -157,-22 -222,-75 -111,-92 -159,-253 -159,-409zm206 171c0,147 85,222 175,222 84,0 173,-73 173,-222 1,-149 -86,-223 -173,-223 -87,0 -175,74 -175,223z"/>
 </g>
</svg>
