<?xml version="1.0" encoding="UTF-8"?>
<!DOCTYPE svg PUBLIC "-//W3C//DTD SVG 1.1//EN" "http://www.w3.org/Graphics/SVG/1.1/DTD/svg11.dtd">
<!-- Creator: CorelDRAW X8 -->
<svg xmlns="http://www.w3.org/2000/svg" xml:space="preserve" width="3878px" height="1486px" version="1.1" style="shape-rendering:geometricPrecision; text-rendering:geometricPrecision; image-rendering:optimizeQuality; fill-rule:evenodd; clip-rule:evenodd"
viewBox="0 0 3878 1486"
 xmlns:xlink="http://www.w3.org/1999/xlink">
 <defs>
  <style type="text/css">
   <![CDATA[
    .fil0 {fill:black;fill-rule:nonzero}
   ]]>
  </style>
 </defs>
 <g id="Layer_x0020_1">
  <metadata id="CorelCorpID_0Corel-Layer"/>
  <path class="fil0" d="M376 541c0,-103 21,-195 60,-274 82,-163 249,-266 462,-267 139,-1 285,40 384,143 70,-97 192,-142 309,-143 125,-1 243,45 309,135 71,-83 175,-135 311,-135 164,0 266,65 319,182 43,96 45,205 45,309 0,96 0,199 33,291 28,79 98,153 188,151 155,-3 204,-137 204,-270l0 -617c0,-25 37,-46 82,-46 45,0 81,21 81,46l0 616c0,150 70,271 232,271 131,0 238,-96 285,-214 24,-63 35,-138 35,-206 1,-161 -62,-363 -223,-431 -35,-15 -42,-44 -15,-64 32,-24 83,-22 118,-7 197,87 282,298 283,502 1,203 -34,379 -137,523 -137,193 -367,293 -589,350 -265,68 -621,103 -1101,100 -551,-3 -983,-22 -1310,-102 -202,-50 -376,-131 -505,-250 -148,-137 -236,-326 -236,-576 0,-231 95,-441 311,-547 34,-16 86,-14 115,5 29,19 26,47 -8,64 -184,89 -255,285 -255,478 -1,191 53,343 150,461 113,138 283,230 493,281 302,75 716,92 1246,95 476,3 817,-32 1062,-100 193,-53 400,-151 514,-324 -65,35 -149,54 -233,54 -117,-1 -236,-37 -309,-117 -72,85 -182,116 -290,116 -152,0 -295,-77 -348,-225 -34,-96 -35,-202 -35,-304 0,-88 -1,-184 -31,-268 -27,-75 -77,-136 -171,-136 -180,0 -243,154 -243,300l0 587c0,26 -36,46 -81,46 -45,0 -82,-20 -82,-46l0 -587c0,-70 -11,-145 -44,-203 -33,-56 -87,-96 -170,-96 -68,0 -135,36 -174,107 -30,55 -36,124 -36,192l0 588c0,25 -36,45 -81,45 -45,0 -81,-20 -81,-45l0 -588c0,-183 -143,-301 -321,-300 -144,1 -252,90 -311,210 -32,64 -49,137 -50,209 52,-75 130,-115 219,-118 98,-4 191,33 251,97 53,57 81,133 78,222 -2,89 -36,179 -105,236 -59,48 -139,76 -224,77 -83,1 -157,-22 -221,-75 -111,-91 -159,-253 -159,-408zm206 170c-1,147 84,222 174,222 85,0 174,-73 174,-222 1,-149 -87,-223 -174,-223 -87,0 -174,74 -174,223z"/>
 </g>
</svg>
