<?xml version="1.0" encoding="UTF-8"?>
<!DOCTYPE svg PUBLIC "-//W3C//DTD SVG 1.1//EN" "http://www.w3.org/Graphics/SVG/1.1/DTD/svg11.dtd">
<!-- Creator: CorelDRAW X8 -->
<svg xmlns="http://www.w3.org/2000/svg" xml:space="preserve" width="2797px" height="1412px" version="1.1" style="shape-rendering:geometricPrecision; text-rendering:geometricPrecision; image-rendering:optimizeQuality; fill-rule:evenodd; clip-rule:evenodd"
viewBox="0 0 2797 1412"
 xmlns:xlink="http://www.w3.org/1999/xlink">
 <defs>
  <style type="text/css">
   <![CDATA[
    .fil0 {fill:#00A0E3;fill-rule:nonzero}
   ]]>
  </style>
 </defs>
 <g id="Layer_x0020_1">
  <metadata id="CorelCorpID_0Corel-Layer"/>
  <path class="fil0" d="M2226 276c-100,0 -189,47 -249,126 -53,70 -78,156 -78,243 0,74 19,144 55,198 33,50 82,89 144,89 56,1 106,-33 146,-101 44,-71 64,-161 65,-249 1,-108 -22,-215 -83,-306zm117 -80c321,65 472,346 452,658 -20,325 -227,552 -559,558 -130,2 -276,-32 -379,-114 -26,-20 -17,-49 20,-63 37,-15 88,-10 113,11 68,54 160,77 246,75 252,-8 382,-234 397,-467 12,-188 -42,-395 -202,-510 29,73 42,153 40,238 -1,98 -24,198 -72,279 -69,114 -182,164 -301,163 -118,-1 -229,-48 -296,-149 -43,-65 -66,-146 -66,-230 0,-99 32,-199 91,-278 78,-104 197,-161 325,-177 -75,-66 -167,-102 -266,-99 -164,6 -294,131 -294,299l0 588c0,25 -36,46 -81,46 -45,0 -82,-21 -82,-46l0 -588c0,-69 -10,-144 -42,-201 -39,-67 -107,-99 -173,-97 -68,2 -136,38 -173,107 -30,55 -36,124 -36,191l0 589c0,25 -36,45 -81,45 -45,0 -81,-20 -81,-45l0 -589c0,-182 -143,-300 -321,-299 -144,1 -252,90 -311,210 -32,64 -49,137 -50,209 52,-75 130,-115 220,-119 97,-3 190,34 250,98 54,57 81,133 79,222 -3,89 -37,179 -106,236 -58,48 -139,76 -223,77 -83,1 -157,-22 -222,-75 -111,-91 -159,-253 -159,-409 0,-102 21,-194 60,-273 82,-163 249,-266 462,-267 139,-1 286,40 384,143 71,-97 193,-142 310,-143 128,-1 248,48 313,142 87,-97 228,-137 357,-142 178,-6 342,60 457,196zm-2137 515c0,147 85,222 175,222 84,0 173,-73 174,-222 0,-149 -87,-223 -174,-223 -87,0 -175,74 -175,223z"/>
 </g>
</svg>
