<?xml version="1.0" encoding="UTF-8"?>
<!DOCTYPE svg PUBLIC "-//W3C//DTD SVG 1.1//EN" "http://www.w3.org/Graphics/SVG/1.1/DTD/svg11.dtd">
<!-- Creator: CorelDRAW X8 -->
<svg xmlns="http://www.w3.org/2000/svg" xml:space="preserve" width="2471px" height="1024px" version="1.1" style="shape-rendering:geometricPrecision; text-rendering:geometricPrecision; image-rendering:optimizeQuality; fill-rule:evenodd; clip-rule:evenodd"
viewBox="0 0 2471 1024"
 xmlns:xlink="http://www.w3.org/1999/xlink">
 <defs>
  <style type="text/css">
   <![CDATA[
    .fil0 {fill:black;fill-rule:nonzero}
   ]]>
  </style>
 </defs>
 <g id="Layer_x0020_1">
  <metadata id="CorelCorpID_0Corel-Layer"/>
  <path class="fil0" d="M0 540c0,-102 21,-195 60,-273 82,-163 249,-266 462,-267 139,-1 285,40 384,143 70,-97 192,-142 309,-143 128,-1 249,48 314,142 87,-97 227,-137 356,-142 157,-5 299,44 409,146 126,117 179,265 177,436 -1,98 -24,198 -73,278 -69,114 -181,165 -300,163 -119,-1 -230,-48 -297,-149 -43,-64 -65,-146 -65,-229 0,-99 31,-199 91,-278 78,-104 197,-161 324,-177 -74,-67 -166,-102 -266,-99 -163,6 -293,131 -293,299l0 588c0,25 -36,45 -81,45 -45,0 -82,-20 -82,-45l0 -588c0,-69 -10,-144 -43,-201 -38,-67 -106,-99 -172,-97 -68,1 -136,38 -173,107 -30,55 -36,123 -36,191l0 589c0,25 -36,45 -81,45 -45,0 -81,-20 -81,-45l0 -589c0,-182 -143,-300 -321,-299 -144,1 -252,90 -311,210 -32,64 -49,136 -50,209 52,-75 130,-116 220,-119 97,-3 190,34 250,98 54,56 81,133 79,221 -3,89 -37,179 -106,236 -58,49 -139,77 -223,78 -83,0 -157,-22 -222,-75 -111,-92 -159,-253 -159,-409zm206 170c0,147 85,222 175,223 84,0 173,-74 173,-223 1,-148 -86,-222 -173,-222 -88,0 -175,74 -175,222zm2020 -434c-100,0 -190,46 -250,126 -52,70 -77,156 -77,243 0,73 19,144 55,198 33,49 82,88 144,89 56,1 105,-33 146,-101 44,-72 63,-161 64,-249 2,-109 -21,-215 -82,-306z"/>
 </g>
</svg>
