<?xml version="1.0" encoding="UTF-8"?>
<!DOCTYPE svg PUBLIC "-//W3C//DTD SVG 1.1//EN" "http://www.w3.org/Graphics/SVG/1.1/DTD/svg11.dtd">
<!-- Creator: CorelDRAW X8 -->
<svg xmlns="http://www.w3.org/2000/svg" xml:space="preserve" width="2432px" height="1024px" version="1.1" style="shape-rendering:geometricPrecision; text-rendering:geometricPrecision; image-rendering:optimizeQuality; fill-rule:evenodd; clip-rule:evenodd"
viewBox="0 0 2432 1024"
 xmlns:xlink="http://www.w3.org/1999/xlink">
 <defs>
  <style type="text/css">
   <![CDATA[
    .fil0 {fill:black;fill-rule:nonzero}
   ]]>
  </style>
 </defs>
 <g id="Layer_x0020_1">
  <metadata id="CorelCorpID_0Corel-Layer"/>
  <path class="fil0" d="M0 540c0,-102 21,-195 60,-273 82,-163 249,-266 462,-267 139,-1 285,40 384,143 70,-97 192,-142 309,-143 118,-1 230,40 298,121 2,2 7,10 14,18 99,-100 262,-138 421,-139 169,-1 481,63 475,285 -5,145 -135,176 -254,159 -50,-7 -122,-29 -173,-16 -48,11 -70,54 -68,96 2,40 25,79 68,91 79,24 163,-14 247,-10 110,5 189,83 189,192 1,163 -166,213 -303,224 -108,8 -225,-10 -310,-48 -35,-15 -41,-44 -14,-64 28,-19 79,-23 115,-7 52,23 122,29 187,29 118,0 167,-74 166,-134 0,-40 -23,-69 -62,-82 -72,-24 -197,50 -328,-18 -64,-33 -98,-103 -101,-173 -3,-80 29,-141 84,-175 97,-60 203,-20 305,-5 52,7 94,-4 102,-59 18,-134 -154,-192 -319,-193 -92,-1 -183,18 -237,48 -74,41 -125,115 -125,250l0 588c0,25 -36,45 -81,45 -45,0 -82,-20 -82,-45l0 -588c0,-69 -11,-144 -44,-202 -33,-56 -87,-96 -170,-96 -68,0 -135,36 -174,107 -30,55 -36,123 -36,191l0 588c0,26 -36,46 -81,46 -45,0 -81,-20 -81,-46l0 -588c0,-182 -143,-300 -321,-299 -144,1 -252,90 -311,210 -32,64 -49,136 -50,209 52,-75 130,-116 219,-119 98,-3 191,34 251,98 53,56 81,133 78,221 -2,89 -36,179 -105,236 -58,49 -139,77 -224,78 -82,0 -156,-22 -221,-76 -111,-91 -159,-252 -159,-408zm206 170c0,147 85,222 174,223 85,0 174,-74 174,-223 1,-148 -86,-222 -174,-222 -87,0 -174,74 -174,222z"/>
 </g>
</svg>
