<?xml version="1.0" encoding="UTF-8"?>
<!DOCTYPE svg PUBLIC "-//W3C//DTD SVG 1.1//EN" "http://www.w3.org/Graphics/SVG/1.1/DTD/svg11.dtd">
<!-- Creator: CorelDRAW X8 -->
<svg xmlns="http://www.w3.org/2000/svg" xml:space="preserve" width="3644px" height="1486px" version="1.1" style="shape-rendering:geometricPrecision; text-rendering:geometricPrecision; image-rendering:optimizeQuality; fill-rule:evenodd; clip-rule:evenodd"
viewBox="0 0 3644 1486"
 xmlns:xlink="http://www.w3.org/1999/xlink">
 <defs>
  <style type="text/css">
   <![CDATA[
    .fil0 {fill:black}
   ]]>
  </style>
 </defs>
 <g id="Layer_x0020_1">
  <metadata id="CorelCorpID_0Corel-Layer"/>
  <path class="fil0" d="M2720 1113c81,0 151,8 208,21 140,33 210,98 211,164 0,6 -1,12 -2,19 146,-91 262,-245 317,-411 -89,76 -208,120 -351,118 -134,-1 -278,-42 -375,-139 -67,97 -194,139 -308,139 -152,0 -295,-77 -348,-225 -34,-96 -35,-202 -35,-304 0,-88 -1,-184 -31,-268 -26,-75 -76,-136 -170,-136 -180,0 -244,154 -244,299l0 588c0,25 -36,46 -81,46 -45,0 -82,-21 -82,-46l0 -588c0,-69 -11,-144 -44,-202 -33,-56 -87,-96 -170,-96 -68,0 -135,36 -174,107 -30,55 -36,123 -36,191l0 589c0,25 -36,45 -81,45 -45,0 -81,-20 -81,-45l0 -589c0,-182 -143,-300 -321,-299 -144,1 -252,90 -311,210 -32,64 -49,137 -50,209 52,-75 130,-116 220,-119 97,-3 190,34 250,98 54,57 81,133 79,221 -3,89 -37,179 -106,236 -58,49 -139,77 -223,78 -83,1 -157,-22 -222,-75 -111,-92 -159,-253 -159,-409 0,-102 21,-195 60,-273 82,-163 249,-266 462,-267 139,-1 286,40 384,143 70,-97 193,-142 309,-143 125,-1 243,45 309,135 72,-83 175,-135 312,-135 164,0 265,65 318,182 43,96 45,205 46,308 0,97 -1,199 32,291 28,80 98,154 188,152 167,-4 205,-147 205,-299 0,-196 0,-392 0,-589 0,-25 37,-45 81,-45 45,0 82,20 82,45 0,197 -2,393 0,589 1,180 139,297 315,299 146,1 257,-89 316,-210 32,-64 49,-136 50,-209 -52,75 -130,116 -219,119 -98,3 -191,-34 -251,-98 -53,-56 -81,-133 -78,-221 2,-89 36,-179 105,-236 58,-48 141,-76 224,-78 84,-1 156,22 221,75 138,114 173,353 173,524 0,150 -22,284 -73,401 -65,149 -175,273 -341,372 -130,77 -323,112 -480,114 -84,1 -179,-6 -259,-28 -127,-34 -191,-97 -190,-160 0,-64 66,-128 199,-161 60,-15 133,-24 220,-24zm-2514 -403c0,148 85,223 175,223 84,0 173,-74 173,-223 1,-148 -86,-222 -173,-222 -88,0 -175,74 -175,222zm3219 -396c0,-147 -85,-222 -175,-223 -84,0 -174,74 -174,223 0,148 87,222 174,222 87,0 174,-74 175,-222zm-705 889c-83,0 -146,11 -189,28 -28,11 -69,33 -70,67 0,25 23,50 69,68 43,17 106,29 190,29 68,0 122,-8 163,-20 34,-10 95,-35 95,-77 0,-28 -31,-57 -93,-75 -41,-12 -96,-20 -165,-20z"/>
 </g>
</svg>
