<?xml version="1.0" encoding="UTF-8"?>
<!DOCTYPE svg PUBLIC "-//W3C//DTD SVG 1.1//EN" "http://www.w3.org/Graphics/SVG/1.1/DTD/svg11.dtd">
<!-- Creator: CorelDRAW X8 -->
<svg xmlns="http://www.w3.org/2000/svg" xml:space="preserve" width="3630px" height="1024px" version="1.1" style="shape-rendering:geometricPrecision; text-rendering:geometricPrecision; image-rendering:optimizeQuality; fill-rule:evenodd; clip-rule:evenodd"
viewBox="0 0 3630 1024"
 xmlns:xlink="http://www.w3.org/1999/xlink">
 <defs>
  <style type="text/css">
   <![CDATA[
    .fil0 {fill:#A82682;fill-rule:nonzero}
   ]]>
  </style>
 </defs>
 <g id="Layer_x0020_1">
  <metadata id="CorelCorpID_0Corel-Layer"/>
  <path class="fil0" d="M3630 484c0,102 -21,195 -60,273 -84,167 -249,270 -468,267 -133,-1 -278,-42 -374,-139 -67,97 -194,139 -308,139 -152,0 -295,-77 -348,-225 -35,-96 -35,-202 -35,-304 0,-88 -1,-184 -31,-268 -27,-75 -77,-136 -171,-136 -180,0 -243,154 -243,299l0 588c0,25 -36,46 -81,46 -45,0 -82,-21 -82,-46l0 -588c0,-69 -11,-144 -44,-202 -33,-56 -87,-96 -170,-96 -68,0 -135,36 -174,107 -30,55 -36,123 -36,191l0 589c0,25 -36,45 -81,45 -45,0 -81,-20 -81,-45l0 -589c0,-182 -143,-300 -321,-299 -144,1 -252,90 -311,210 -32,64 -49,137 -50,209 52,-75 130,-116 220,-119 97,-3 190,34 250,98 54,57 81,133 79,221 -3,89 -37,179 -106,237 -58,48 -139,76 -223,77 -83,1 -157,-22 -222,-75 -111,-92 -159,-253 -159,-409 0,-102 21,-195 60,-273 82,-163 249,-266 462,-267 139,-1 285,40 384,143 70,-97 192,-142 309,-143 125,-1 243,45 309,135 72,-83 175,-135 311,-135 164,0 266,65 318,182 44,96 46,205 46,309 0,96 0,198 33,290 28,80 98,154 188,152 168,-4 205,-150 205,-299l0 -589c0,-25 36,-45 81,-45 45,0 81,20 81,45l0 589c0,181 139,297 315,299 147,1 257,-89 317,-210 32,-64 49,-136 50,-209 -52,75 -130,116 -220,119 -97,3 -190,-34 -250,-98 -54,-56 -81,-133 -79,-221 3,-89 37,-179 106,-236 57,-48 141,-76 223,-78 85,-1 156,22 222,75 111,92 159,253 159,409zm-3424 226c0,148 85,223 175,223 84,0 173,-74 173,-223 1,-148 -86,-222 -173,-222 -88,0 -175,74 -175,222zm3218 -396c0,-147 -85,-222 -175,-223 -84,0 -173,74 -173,223 -1,148 86,222 173,222 88,0 175,-74 175,-222z"/>
 </g>
</svg>
