<?xml version="1.0" encoding="UTF-8"?>
<!DOCTYPE svg PUBLIC "-//W3C//DTD SVG 1.1//EN" "http://www.w3.org/Graphics/SVG/1.1/DTD/svg11.dtd">
<!-- Creator: CorelDRAW X8 -->
<svg xmlns="http://www.w3.org/2000/svg" xml:space="preserve" width="3517px" height="1486px" version="1.1" style="shape-rendering:geometricPrecision; text-rendering:geometricPrecision; image-rendering:optimizeQuality; fill-rule:evenodd; clip-rule:evenodd"
viewBox="0 0 3517 1486"
 xmlns:xlink="http://www.w3.org/1999/xlink">
 <defs>
  <style type="text/css">
   <![CDATA[
    .fil0 {fill:black}
   ]]>
  </style>
 </defs>
 <g id="Layer_x0020_1">
  <metadata id="CorelCorpID_0Corel-Layer"/>
  <path class="fil0" d="M2683 1113c82,0 151,8 209,21 140,33 210,98 210,164 0,6 0,12 -2,19 145,-91 214,-242 241,-407 -86,75 -201,114 -321,114 -130,0 -239,-39 -310,-116 -73,85 -182,116 -290,116 -152,0 -295,-77 -348,-225 -34,-96 -35,-202 -35,-304 0,-88 -1,-184 -31,-268 -26,-75 -76,-136 -170,-136 -180,0 -233,155 -244,299l0 588c0,25 -36,46 -81,46 -45,0 -82,-21 -82,-46l0 -588c0,-69 -11,-144 -44,-202 -33,-56 -87,-96 -170,-96 -68,0 -135,36 -174,107 -30,55 -36,123 -36,191l0 589c0,25 -36,45 -81,45 -45,0 -81,-20 -81,-45l0 -589c0,-182 -143,-300 -321,-299 -144,1 -252,90 -311,210 -32,64 -49,137 -50,209 52,-75 130,-115 220,-119 97,-3 190,34 250,98 54,57 81,133 79,222 -3,89 -37,179 -106,236 -58,48 -139,76 -223,77 -83,1 -157,-22 -222,-75 -111,-91 -159,-253 -159,-409 0,-102 21,-195 60,-273 82,-163 249,-266 462,-267 139,-1 285,40 384,143 70,-97 193,-142 309,-143 125,-1 243,45 309,135 72,-83 175,-135 312,-135 163,0 265,65 318,182 43,96 45,205 45,309 0,96 0,199 33,290 28,80 98,154 188,152 151,-3 204,-130 204,-270l0 -617c0,-25 37,-46 82,-46 45,0 81,21 81,46l0 616c0,149 71,271 233,271 131,0 237,-96 284,-214 24,-63 35,-132 35,-200 1,-161 -62,-369 -223,-437 -35,-16 -42,-44 -15,-64 32,-24 83,-22 118,-7 161,71 237,214 271,372 17,74 26,161 27,249 2,139 -15,283 -53,394 -46,139 -130,262 -270,346 -138,83 -349,117 -511,114 -83,-1 -165,-10 -229,-27 -127,-35 -190,-98 -190,-161 0,-64 67,-128 199,-161 60,-15 133,-24 220,-24zm-2477 -402c0,147 85,222 175,222 84,0 173,-73 173,-222 1,-149 -86,-223 -173,-223 -88,0 -175,74 -175,223zm2477 492c-83,0 -146,12 -189,28 -27,11 -68,34 -69,67 -1,25 22,50 69,69 43,17 106,28 189,28 68,0 123,-8 164,-20 33,-9 95,-34 94,-77 0,-28 -31,-57 -92,-75 -42,-12 -97,-20 -166,-20z"/>
 </g>
</svg>
