<?xml version="1.0" encoding="UTF-8"?>
<!DOCTYPE svg PUBLIC "-//W3C//DTD SVG 1.1//EN" "http://www.w3.org/Graphics/SVG/1.1/DTD/svg11.dtd">
<!-- Creator: CorelDRAW X8 -->
<svg xmlns="http://www.w3.org/2000/svg" xml:space="preserve" width="3517px" height="1485px" version="1.1" style="shape-rendering:geometricPrecision; text-rendering:geometricPrecision; image-rendering:optimizeQuality; fill-rule:evenodd; clip-rule:evenodd"
viewBox="0 0 3527 1490"
 xmlns:xlink="http://www.w3.org/1999/xlink">
 <defs>
  <style type="text/css">
   <![CDATA[
    .fil0 {fill:#A82682}
   ]]>
  </style>
 </defs>
 <g id="Layer_x0020_1">
  <metadata id="CorelCorpID_0Corel-Layer"/>
  <path class="fil0" d="M2691 1115c81,0 151,8 209,21 140,33 211,99 211,165 0,6 -1,12 -2,19 146,-91 215,-242 242,-407 -87,75 -202,114 -322,114 -131,0 -240,-39 -311,-116 -73,85 -183,116 -291,116 -152,0 -296,-77 -349,-225 -35,-97 -35,-204 -35,-305 0,-89 -1,-185 -31,-269 -27,-76 -77,-137 -171,-137 -181,0 -233,155 -244,301l0 589c0,25 -37,46 -82,46 -45,0 -82,-21 -82,-46l0 -589c0,-70 -11,-145 -44,-203 -33,-57 -87,-97 -170,-97 -68,0 -136,36 -175,108 -30,55 -36,123 -36,192l0 590c0,25 -36,45 -81,45 -45,0 -82,-20 -82,-45l0 -590c0,-184 -143,-302 -321,-301 -145,1 -253,91 -312,211 -32,64 -49,137 -50,210 52,-75 130,-116 220,-119 98,-4 191,34 251,97 54,57 81,134 79,223 -3,89 -37,179 -106,236 -59,49 -140,77 -224,78 -83,1 -158,-22 -222,-75 -111,-92 -160,-254 -160,-410 0,-103 21,-196 61,-274 82,-164 249,-267 463,-268 139,-1 286,41 385,144 70,-98 193,-143 310,-144 125,-1 243,46 310,136 71,-83 175,-136 312,-136 164,0 266,65 319,182 43,97 46,206 46,310 0,97 -1,200 32,292 29,80 99,154 189,152 151,-4 205,-131 205,-272l0 -618c0,-25 37,-46 82,-46 45,0 81,21 81,46l0 618c0,150 71,271 234,271 131,0 238,-96 284,-214 25,-63 35,-132 36,-201 0,-161 -63,-370 -224,-438 -36,-15 -43,-44 -16,-64 32,-24 84,-22 119,-7 161,71 238,215 272,373 17,75 26,161 27,250 2,139 -15,283 -53,395 -46,139 -130,262 -271,346 -139,83 -350,117 -512,114 -84,-1 -166,-10 -230,-27 -127,-35 -191,-98 -190,-161 0,-64 66,-128 199,-162 60,-15 134,-24 221,-24zm-2485 -402c0,147 86,222 176,223 84,0 174,-74 174,-223 0,-149 -87,-224 -174,-224 -88,1 -175,75 -176,224zm2485 493c69,0 124,7 166,20 62,18 93,46 93,75 0,42 -62,67 -95,77 -41,12 -96,20 -164,20 -84,0 -147,-11 -190,-29 -47,-18 -70,-43 -69,-68 0,-34 42,-56 69,-67 43,-17 107,-28 190,-28z"/>
 </g>
</svg>
