<?xml version="1.0" encoding="UTF-8"?>
<!DOCTYPE svg PUBLIC "-//W3C//DTD SVG 1.1//EN" "http://www.w3.org/Graphics/SVG/1.1/DTD/svg11.dtd">
<!-- Creator: CorelDRAW X8 -->
<svg xmlns="http://www.w3.org/2000/svg" xml:space="preserve" width="1547px" height="2048px" version="1.1" style="shape-rendering:geometricPrecision; text-rendering:geometricPrecision; image-rendering:optimizeQuality; fill-rule:evenodd; clip-rule:evenodd"
viewBox="0 0 1547 2048"
 xmlns:xlink="http://www.w3.org/1999/xlink">
 <defs>
  <style type="text/css">
   <![CDATA[
    .fil0 {fill:#009846;fill-rule:nonzero}
   ]]>
  </style>
 </defs>
 <g id="Layer_x0020_1">
  <metadata id="CorelCorpID_0Corel-Layer"/>
  <path class="fil0" d="M1311 2049c-27,14 -71,15 -99,1 -27,-13 -28,-35 -2,-49 34,-18 62,-42 87,-71 28,-33 51,-73 68,-117 17,-40 28,-84 35,-128 7,-47 9,-94 6,-138 -4,-53 -14,-106 -32,-155 -17,-46 -40,-89 -70,-128 -17,-21 -34,-40 -52,-57 -76,-69 -164,-102 -248,-101 -42,0 -85,8 -128,24 47,30 90,66 126,107 76,85 126,190 145,300 18,105 8,215 -38,316 -27,62 -69,110 -117,144 -61,41 -134,62 -211,62 -78,-1 -154,-22 -217,-65 -51,-34 -95,-84 -126,-148 -47,-98 -57,-206 -38,-309 20,-110 74,-216 151,-300 23,-25 48,-48 75,-69 17,-14 35,-26 54,-38 -4,-1 -8,-3 -12,-4 -42,-14 -83,-20 -125,-19 -68,1 -135,22 -194,60 -40,26 -75,59 -106,97 -30,39 -53,82 -70,128 -18,49 -28,102 -32,155 -3,44 -1,91 6,138 7,44 18,88 35,128 17,44 40,84 68,117 25,29 53,53 87,71 26,14 25,36 -2,49 -28,14 -72,13 -99,-1 -46,-24 -83,-55 -114,-92 -33,-38 -58,-82 -77,-131 -18,-44 -30,-90 -37,-136 -8,-48 -10,-97 -6,-145 3,-56 15,-112 34,-165 18,-51 44,-99 77,-141 35,-45 78,-83 125,-114 88,-57 193,-86 298,-88 71,-2 142,9 208,31 12,3 23,8 34,12 71,-28 147,-43 224,-44 137,-1 269,43 372,138 21,20 41,41 60,65 33,42 59,90 77,141 19,53 31,109 34,165 4,48 2,97 -6,145 -7,46 -19,92 -37,136 -19,49 -44,93 -77,131 -31,37 -68,68 -114,92zm-533 -869c-12,8 -23,16 -34,25 -23,18 -46,39 -66,61 -71,77 -120,175 -139,277 -18,96 -9,196 34,287 27,54 63,95 103,123 36,24 73,36 106,36 31,0 65,-11 97,-33 38,-26 71,-66 94,-118 42,-94 52,-197 35,-295 -18,-103 -65,-200 -133,-277 -29,-33 -62,-62 -97,-86z"/>
 </g>
</svg>
