<?xml version="1.0" encoding="UTF-8"?>
<!DOCTYPE svg PUBLIC "-//W3C//DTD SVG 1.1//EN" "http://www.w3.org/Graphics/SVG/1.1/DTD/svg11.dtd">
<!-- Creator: CorelDRAW X8 -->
<svg xmlns="http://www.w3.org/2000/svg" xml:space="preserve" width="1545px" height="1025px" version="1.1" style="shape-rendering:geometricPrecision; text-rendering:geometricPrecision; image-rendering:optimizeQuality; fill-rule:evenodd; clip-rule:evenodd"
viewBox="0 0 1545 1025"
 xmlns:xlink="http://www.w3.org/1999/xlink">
 <defs>
  <style type="text/css">
   <![CDATA[
    .fil0 {fill:#57A7B3;fill-rule:nonzero}
   ]]>
  </style>
 </defs>
 <g id="Layer_x0020_1">
  <metadata id="CorelCorpID_0Corel-Layer"/>
  <path class="fil0" d="M339 946c33,17 35,46 4,64 -43,26 -95,15 -136,-10 -147,-89 -207,-265 -207,-430 0,-105 24,-207 69,-294 92,-176 280,-277 476,-276 84,0 160,14 227,38 66,-24 142,-38 227,-38 197,0 384,98 477,276 44,85 68,191 69,294 1,166 -58,340 -206,430 -41,25 -93,37 -137,10 -31,-18 -29,-47 4,-64 131,-68 177,-238 176,-376 0,-92 -20,-188 -62,-268 -62,-119 -184,-211 -321,-211 -36,0 -70,4 -101,12 111,78 184,193 219,323 15,56 22,114 22,171 1,92 -19,180 -58,251 -65,118 -177,176 -309,176 -132,0 -244,-58 -309,-176 -38,-70 -58,-160 -58,-251 0,-58 8,-115 23,-171 34,-129 108,-245 218,-322 -31,-8 -65,-13 -101,-13 -135,0 -259,94 -320,211 -41,78 -62,172 -62,268 0,137 46,308 176,376zm433 -785c-94,66 -154,169 -183,278 -14,53 -21,106 -21,158 0,83 17,163 51,225 31,58 83,111 153,111 70,0 122,-54 154,-112 34,-62 51,-141 51,-224 0,-52 -7,-105 -21,-158 -29,-109 -90,-212 -184,-278z"/>
 </g>
</svg>
