<?xml version="1.0" encoding="UTF-8"?>
<!DOCTYPE svg PUBLIC "-//W3C//DTD SVG 1.1//EN" "http://www.w3.org/Graphics/SVG/1.1/DTD/svg11.dtd">
<!-- Creator: CorelDRAW X8 -->
<svg xmlns="http://www.w3.org/2000/svg" xml:space="preserve" width="1539px" height="2048px" version="1.1" style="shape-rendering:geometricPrecision; text-rendering:geometricPrecision; image-rendering:optimizeQuality; fill-rule:evenodd; clip-rule:evenodd"
viewBox="0 0 1539 2048"
 xmlns:xlink="http://www.w3.org/1999/xlink">
 <defs>
  <style type="text/css">
   <![CDATA[
    .fil0 {fill:#1F1B20;fill-rule:nonzero}
   ]]>
  </style>
 </defs>
 <g id="Layer_x0020_1">
  <metadata id="CorelCorpID_0Corel-Layer"/>
  <path class="fil0" d="M1187 2046c-31,-19 -29,-47 4,-65 144,-75 194,-285 184,-433 -10,-151 -80,-299 -214,-376 -77,-44 -169,-59 -265,-30 133,92 224,234 252,393 18,105 7,215 -37,315 -61,135 -187,209 -334,209 -151,-1 -283,-79 -348,-216 -47,-98 -57,-205 -38,-308 30,-159 127,-302 261,-393 -100,-29 -204,-14 -291,42 -125,81 -188,219 -197,364 -10,148 40,358 184,433 33,18 35,46 4,65 -30,18 -82,19 -115,2 -178,-93 -248,-313 -236,-503 12,-172 90,-325 237,-420 148,-95 342,-112 506,-58 10,3 20,7 30,11 154,-60 324,-55 464,11 183,85 287,258 300,456 12,190 -58,410 -236,503 -32,17 -84,17 -115,-2zm-413 -844c-115,79 -196,206 -221,342 -17,93 -9,189 33,276 34,71 106,148 192,148 80,0 144,-72 175,-140 40,-90 49,-189 33,-284 -23,-135 -100,-262 -212,-342z"/>
 </g>
</svg>
