<?xml version="1.0" encoding="UTF-8"?>
<!DOCTYPE svg PUBLIC "-//W3C//DTD SVG 1.1//EN" "http://www.w3.org/Graphics/SVG/1.1/DTD/svg11.dtd">
<!-- Creator: CorelDRAW X8 -->
<svg xmlns="http://www.w3.org/2000/svg" xml:space="preserve" width="2811px" height="1486px" version="1.1" style="shape-rendering:geometricPrecision; text-rendering:geometricPrecision; image-rendering:optimizeQuality; fill-rule:evenodd; clip-rule:evenodd"
viewBox="0 0 2811 1486"
 xmlns:xlink="http://www.w3.org/1999/xlink">
 <defs>
  <style type="text/css">
   <![CDATA[
    .fil0 {fill:black;fill-rule:nonzero}
   ]]>
  </style>
 </defs>
 <g id="Layer_x0020_1">
  <metadata id="CorelCorpID_0Corel-Layer"/>
  <path class="fil0" d="M1978 1395c53,0 158,-2 231,-34 45,-21 78,-53 76,-104 -2,-58 -68,-84 -119,-84 -66,-1 -103,47 -103,112 0,36 -54,47 -81,47 -27,0 -81,-11 -81,-47 0,-73 -49,-110 -109,-112 -50,-1 -127,26 -126,87 0,54 41,87 95,106 72,27 167,29 217,29zm-223 -1395c85,0 160,13 226,38 73,-27 150,-38 227,-38 140,0 276,48 381,137 158,135 221,335 222,538 1,199 -63,366 -160,494 -63,82 -134,147 -214,196 -131,81 -286,119 -462,121 -75,1 -152,-5 -225,-21 -103,-23 -261,-88 -243,-218 6,-48 44,-88 97,-116 57,-31 123,-46 188,-46 62,0 136,13 189,47 46,-32 115,-47 185,-47 71,0 143,15 190,45 54,34 77,79 77,124 50,-45 92,-98 125,-158 68,-121 108,-268 99,-419 -10,-164 -56,-328 -160,-443 -73,-82 -175,-144 -289,-143 -34,0 -66,3 -100,12 159,111 241,302 241,493 0,92 -19,180 -58,250 -65,119 -177,176 -310,176 -131,0 -243,-57 -308,-175 -38,-70 -58,-160 -58,-251 0,-191 82,-381 241,-493 -31,-8 -65,-12 -101,-12 -168,0 -297,130 -297,299l0 588c0,25 -36,45 -81,45 -44,0 -81,-20 -81,-45l0 -588c0,-171 -129,-298 -297,-299 -33,0 -68,4 -101,12 109,74 185,197 219,323 15,55 22,114 22,171 0,91 -19,179 -58,250 -65,119 -178,177 -310,177 -131,0 -243,-58 -308,-176 -38,-71 -58,-160 -58,-251 0,-58 8,-115 23,-171 34,-130 108,-245 218,-323 -32,-8 -65,-12 -101,-12 -135,-1 -259,94 -320,210 -41,78 -63,172 -63,269 0,137 47,307 177,374 33,17 35,46 4,65 -43,26 -95,15 -136,-10 -147,-89 -207,-265 -207,-429 0,-106 24,-207 69,-294 92,-176 280,-277 476,-276 74,0 157,11 227,38 75,-27 147,-38 227,-38 139,0 287,50 378,159 91,-109 239,-159 378,-159zm226 160c-137,97 -204,273 -204,436 0,83 18,163 51,225 32,58 83,111 153,110 71,0 123,-53 155,-111 34,-62 51,-141 51,-224 0,-163 -69,-340 -206,-436zm-1209 1c-94,66 -154,169 -183,278 -14,53 -21,105 -21,158 0,82 17,163 51,224 31,58 82,112 152,112 70,0 123,-55 155,-113 34,-62 51,-141 51,-223 0,-52 -7,-106 -21,-158 -29,-110 -91,-212 -184,-278z"/>
 </g>
</svg>
