<?xml version="1.0" encoding="UTF-8"?>
<!DOCTYPE svg PUBLIC "-//W3C//DTD SVG 1.1//EN" "http://www.w3.org/Graphics/SVG/1.1/DTD/svg11.dtd">
<!-- Creator: CorelDRAW X8 -->
<svg xmlns="http://www.w3.org/2000/svg" xml:space="preserve" width="2173px" height="1024px" version="1.1" style="shape-rendering:geometricPrecision; text-rendering:geometricPrecision; image-rendering:optimizeQuality; fill-rule:evenodd; clip-rule:evenodd"
viewBox="0 0 2173 1024"
 xmlns:xlink="http://www.w3.org/1999/xlink">
 <defs>
  <style type="text/css">
   <![CDATA[
    .fil0 {fill:black;fill-rule:nonzero}
   ]]>
  </style>
 </defs>
 <g id="Layer_x0020_1">
  <metadata id="CorelCorpID_0Corel-Layer"/>
  <path class="fil0" d="M1787 942c-35,16 -42,44 -15,64 32,24 83,22 118,7 194,-86 280,-293 283,-494 1,-91 -14,-181 -51,-260 -79,-169 -248,-259 -431,-259 -143,0 -261,47 -330,140 -92,-95 -231,-140 -362,-140 -80,0 -151,12 -227,38 -70,-26 -153,-38 -227,-38 -196,-1 -384,100 -476,276 -45,87 -69,188 -69,294 0,164 60,340 207,429 41,25 93,36 136,10 31,-19 29,-47 -4,-65 -130,-67 -176,-237 -176,-374 0,-97 21,-190 62,-268 61,-117 185,-212 320,-211 36,0 70,4 101,12 -110,78 -184,193 -218,323 -15,56 -23,113 -23,171 0,91 20,181 58,251 65,118 177,176 308,176 132,0 245,-58 310,-177 39,-70 59,-158 58,-250 0,-57 -7,-115 -22,-171 -33,-126 -110,-249 -219,-323 34,-8 68,-12 101,-12 161,1 297,117 297,276l0 611c0,25 37,45 81,45 45,0 82,-20 82,-45l0 -616c0,-149 70,-271 232,-271 131,0 238,96 284,214 26,67 36,142 35,215 -2,158 -67,356 -223,422zm-1015 -781c94,66 155,169 184,278 14,53 21,106 21,158 0,83 -17,161 -51,224 -32,58 -84,112 -155,112 -70,0 -121,-53 -152,-111 -34,-62 -51,-143 -51,-225 0,-52 7,-105 21,-158 29,-109 89,-212 183,-278z"/>
 </g>
</svg>
