<?xml version="1.0" encoding="UTF-8"?>
<!DOCTYPE svg PUBLIC "-//W3C//DTD SVG 1.1//EN" "http://www.w3.org/Graphics/SVG/1.1/DTD/svg11.dtd">
<!-- Creator: CorelDRAW X8 -->
<svg xmlns="http://www.w3.org/2000/svg" xml:space="preserve" width="1639px" height="1486px" version="1.1" style="shape-rendering:geometricPrecision; text-rendering:geometricPrecision; image-rendering:optimizeQuality; fill-rule:evenodd; clip-rule:evenodd"
viewBox="0 0 1639 1486"
 xmlns:xlink="http://www.w3.org/1999/xlink">
 <defs>
  <style type="text/css">
   <![CDATA[
    .fil0 {fill:black;fill-rule:nonzero}
   ]]>
  </style>
 </defs>
 <g id="Layer_x0020_1">
  <metadata id="CorelCorpID_0Corel-Layer"/>
  <path class="fil0" d="M1149 1180l-829 0c-89,0 -133,26 -131,85 1,63 45,83 131,83l1192 0c45,0 81,31 81,69 0,38 -36,69 -81,69l-1192 0c-137,0 -300,-35 -296,-204 3,-123 95,-193 296,-193l832 0c116,0 217,-40 274,-119 32,-45 50,-101 51,-169 0,-105 -63,-221 -180,-224 -27,0 -89,-9 -87,-46 2,-36 60,-45 87,-45 84,0 130,-83 130,-159 0,-77 -45,-146 -111,-185 -67,-38 -155,-51 -233,-51 -60,0 -121,3 -179,18 107,77 179,190 213,318 15,55 23,114 23,171 0,91 -20,179 -59,250 -65,119 -178,176 -310,177 -131,0 -243,-58 -308,-176 -38,-71 -58,-160 -58,-251 0,-58 8,-115 23,-171 35,-130 108,-245 218,-323 -31,-8 -65,-12 -101,-12 -135,-1 -259,94 -320,210 -41,79 -62,172 -62,269 0,137 46,306 176,374 33,17 35,46 4,64 -43,27 -95,16 -136,-9 -147,-89 -207,-265 -207,-429 0,-106 24,-207 69,-294 92,-176 280,-277 476,-276 76,0 165,12 236,42 96,-34 201,-43 302,-43 115,0 247,19 350,79 92,54 158,145 157,252 -1,83 -42,154 -111,198 103,55 160,158 160,272 0,102 -33,180 -87,239 -92,98 -226,140 -403,140zm-377 -1018c-94,66 -154,169 -183,278 -14,53 -21,105 -21,158 0,82 17,163 51,224 31,58 82,112 152,112 71,0 123,-55 155,-113 34,-62 51,-141 51,-223 0,-52 -7,-106 -21,-158 -29,-110 -90,-212 -184,-278z"/>
 </g>
</svg>
