<?xml version="1.0" encoding="UTF-8"?>
<!DOCTYPE svg PUBLIC "-//W3C//DTD SVG 1.1//EN" "http://www.w3.org/Graphics/SVG/1.1/DTD/svg11.dtd">
<!-- Creator: CorelDRAW X8 -->
<svg xmlns="http://www.w3.org/2000/svg" xml:space="preserve" width="2333px" height="1486px" version="1.1" style="shape-rendering:geometricPrecision; text-rendering:geometricPrecision; image-rendering:optimizeQuality; fill-rule:evenodd; clip-rule:evenodd"
viewBox="0 0 2332 1486"
 xmlns:xlink="http://www.w3.org/1999/xlink">
 <defs>
  <style type="text/css">
   <![CDATA[
    .fil0 {fill:#669933;fill-rule:nonzero}
   ]]>
  </style>
 </defs>
 <g id="Layer_x0020_1">
  <metadata id="CorelCorpID_0Corel-Layer"/>
  <path class="fil0" d="M1296 978l0 -587c0,-182 -119,-299 -297,-300 -33,0 -68,4 -101,12 109,74 185,197 219,323 15,55 22,114 22,171 0,91 -19,180 -58,250 -65,119 -178,177 -310,177 -131,0 -243,-58 -308,-176 -38,-71 -58,-160 -58,-251 0,-58 8,-115 23,-171 34,-130 108,-245 218,-323 -31,-8 -65,-12 -101,-12 -135,-1 -259,94 -320,211 -41,78 -62,171 -62,268 0,137 46,307 176,374 33,17 35,46 4,65 -43,26 -95,15 -136,-10 -147,-89 -207,-265 -207,-429 0,-106 24,-207 69,-294 92,-176 280,-277 476,-276 74,0 157,12 227,38 75,-26 147,-38 227,-38 143,0 284,29 383,140 93,-115 294,-139 432,-140 94,0 225,12 326,61 88,43 152,116 149,224 -4,145 -135,176 -253,159 -51,-7 -122,-29 -174,-16 -48,11 -69,54 -68,96 2,40 25,79 68,91 76,23 149,-10 226,-6 149,7 244,119 244,261 1,152 -102,310 -391,310l-1644 0c-90,0 -133,26 -132,85 2,63 46,83 132,83l1890 0c45,0 81,31 81,69 0,38 -36,69 -81,69l-1890 0c-137,0 -300,-35 -296,-204 2,-123 94,-193 296,-193l1647 0c166,0 234,-115 231,-219 -2,-85 -58,-147 -141,-155 -104,-11 -170,41 -285,-18 -64,-33 -98,-103 -100,-173 -3,-79 28,-141 84,-175 96,-60 203,-20 305,-5 52,7 93,-4 101,-59 8,-60 -22,-110 -73,-142 -70,-44 -165,-51 -246,-51 -206,-2 -361,63 -361,294l0 592c0,25 -36,46 -81,46 -45,0 -82,-21 -82,-46zm-524 -817c-94,66 -154,169 -183,278 -14,53 -21,106 -21,158 0,82 17,163 51,224 31,58 82,112 152,112 70,0 123,-55 155,-112 34,-63 51,-141 51,-224 0,-52 -7,-105 -21,-158 -29,-110 -91,-212 -184,-278z"/>
 </g>
</svg>
