<?xml version="1.0" encoding="UTF-8"?>
<!DOCTYPE svg PUBLIC "-//W3C//DTD SVG 1.1//EN" "http://www.w3.org/Graphics/SVG/1.1/DTD/svg11.dtd">
<!-- Creator: CorelDRAW X8 -->
<svg xmlns="http://www.w3.org/2000/svg" xml:space="preserve" width="2770px" height="1486px" version="1.1" style="shape-rendering:geometricPrecision; text-rendering:geometricPrecision; image-rendering:optimizeQuality; fill-rule:evenodd; clip-rule:evenodd"
viewBox="0 0 2770 1486"
 xmlns:xlink="http://www.w3.org/1999/xlink">
 <defs>
  <style type="text/css">
   <![CDATA[
    .fil0 {fill:blue;fill-rule:nonzero}
   ]]>
  </style>
 </defs>
 <g id="Layer_x0020_1">
  <metadata id="CorelCorpID_0Corel-Layer"/>
  <path class="fil0" d="M1755 0c85,0 160,14 226,38 73,-27 150,-38 227,-38 151,0 296,57 400,166 115,121 169,290 161,459 -6,146 -62,290 -170,397 -128,126 -299,158 -473,158l-1806 0c-89,0 -133,26 -132,85 2,63 46,83 132,83l2329 0c45,0 82,31 82,69 0,38 -37,69 -82,69l-2329 0c-137,0 -300,-35 -296,-204 2,-123 94,-193 296,-193l1846 0c111,0 211,-33 291,-112 95,-94 144,-222 150,-354 6,-130 -30,-268 -109,-374 -69,-91 -172,-158 -290,-158 -33,0 -67,4 -100,12 160,112 241,302 241,493 0,92 -19,180 -58,251 -65,118 -177,175 -310,175 -131,1 -243,-57 -308,-175 -38,-70 -58,-159 -58,-251 0,-191 82,-381 241,-493 -31,-8 -65,-12 -101,-12 -168,0 -297,108 -297,277l0 610c0,25 -36,45 -81,45 -44,0 -81,-20 -81,-45l0 -610c0,-170 -128,-276 -297,-277 -33,0 -67,4 -101,12 109,74 186,197 219,323 15,56 22,114 22,171 1,92 -19,180 -58,250 -65,119 -178,177 -310,177 -131,0 -243,-58 -308,-176 -38,-70 -58,-160 -58,-251 0,-58 8,-115 23,-171 34,-130 108,-245 218,-323 -31,-8 -65,-12 -101,-12 -135,-1 -259,94 -320,211 -41,78 -62,171 -62,268 0,137 46,307 176,374 33,17 35,46 4,65 -43,26 -95,15 -136,-10 -147,-89 -207,-265 -207,-429 0,-106 24,-207 69,-294 92,-176 280,-277 476,-276 74,0 157,12 227,38 76,-26 147,-38 227,-38 139,0 287,28 378,137 91,-108 240,-137 378,-137zm226 161c-137,96 -204,272 -203,435 0,83 17,163 50,225 32,58 83,111 153,111 71,0 123,-54 155,-112 34,-62 51,-141 51,-224 0,-163 -69,-339 -206,-435zm-1209 0c-94,66 -154,169 -183,278 -14,53 -21,106 -21,158 0,82 17,163 51,225 31,57 82,111 152,111 70,0 123,-54 155,-112 34,-63 51,-141 51,-224 0,-52 -7,-105 -21,-158 -29,-109 -90,-212 -184,-278z"/>
 </g>
</svg>
