<?xml version="1.0" encoding="UTF-8"?>
<!DOCTYPE svg PUBLIC "-//W3C//DTD SVG 1.1//EN" "http://www.w3.org/Graphics/SVG/1.1/DTD/svg11.dtd">
<!-- Creator: CorelDRAW X8 -->
<svg xmlns="http://www.w3.org/2000/svg" xml:space="preserve" width="1185px" height="868px" version="1.1" style="shape-rendering:geometricPrecision; text-rendering:geometricPrecision; image-rendering:optimizeQuality; fill-rule:evenodd; clip-rule:evenodd"
viewBox="0 0 1185 868"
 xmlns:xlink="http://www.w3.org/1999/xlink">
 <defs>
  <style type="text/css">
   <![CDATA[
    .fil0 {fill:#669933;fill-rule:nonzero}
   ]]>
  </style>
 </defs>
 <g id="Layer_x0020_1">
  <metadata id="CorelCorpID_0Corel-Layer"/>
  <path class="fil0" d="M689 106c-49,38 -81,93 -98,152 -8,30 -12,60 -12,91 0,44 8,92 30,130 23,41 51,62 79,62 29,0 57,-21 81,-62 22,-39 30,-86 30,-130 0,-30 -4,-61 -12,-91 -17,-59 -49,-114 -98,-152zm-1 -86c41,-13 87,-20 133,-20 135,0 251,59 315,180 33,62 49,133 49,204 0,158 -72,300 -205,387 -107,69 -239,96 -365,97 -193,2 -395,-57 -516,-216 -63,-85 -98,-191 -99,-296 -1,-140 56,-273 180,-346 24,-13 68,-13 92,-1 20,10 23,28 3,40 -108,63 -154,187 -153,307 2,96 33,195 90,272 95,127 247,183 400,181 109,-1 218,-30 303,-99 98,-79 148,-202 147,-326 0,-54 -10,-112 -33,-163 -38,-88 -113,-161 -208,-162 -13,0 -28,2 -42,5 64,45 108,111 129,186 9,32 14,66 14,99 0,50 -11,103 -35,146 -42,75 -116,105 -199,105 -82,0 -155,-30 -197,-104 -24,-44 -35,-97 -35,-147 0,-33 5,-67 14,-99 21,-75 64,-141 129,-186 -16,-3 -32,-5 -48,-4 -75,3 -141,50 -178,119 -25,47 -37,102 -37,155 -1,80 28,177 104,216 20,10 24,28 3,40 -31,17 -75,11 -105,-6 -88,-52 -125,-152 -125,-250 0,-59 13,-119 42,-171 58,-109 177,-163 298,-163 45,0 92,6 135,20z"/>
 </g>
</svg>
