<?xml version="1.0" encoding="UTF-8"?>
<!DOCTYPE svg PUBLIC "-//W3C//DTD SVG 1.1//EN" "http://www.w3.org/Graphics/SVG/1.1/DTD/svg11.dtd">
<!-- Creator: CorelDRAW X8 -->
<svg xmlns="http://www.w3.org/2000/svg" xml:space="preserve" width="2681px" height="1024px" version="1.1" style="shape-rendering:geometricPrecision; text-rendering:geometricPrecision; image-rendering:optimizeQuality; fill-rule:evenodd; clip-rule:evenodd"
viewBox="0 0 2681 1024"
 xmlns:xlink="http://www.w3.org/1999/xlink">
 <defs>
  <style type="text/css">
   <![CDATA[
    .fil0 {fill:#669933;fill-rule:nonzero}
   ]]>
  </style>
 </defs>
 <g id="Layer_x0020_1">
  <metadata id="CorelCorpID_0Corel-Layer"/>
  <path class="fil0" d="M1296 978l0 -587c0,-181 -120,-299 -297,-300 -33,0 -67,4 -101,12 109,74 186,197 219,323 15,56 22,114 23,171 0,92 -20,180 -59,250 -65,119 -178,177 -310,177 -131,0 -243,-58 -308,-176 -38,-70 -58,-160 -58,-251 0,-58 8,-115 23,-171 34,-130 108,-245 218,-323 -31,-8 -65,-12 -101,-12 -135,-1 -259,94 -320,211 -41,78 -62,171 -62,268 0,137 46,307 176,374 33,18 35,46 4,65 -43,26 -95,15 -136,-10 -147,-89 -207,-265 -207,-429 0,-106 24,-207 69,-294 92,-176 280,-277 476,-276 74,0 157,12 227,38 76,-26 147,-38 227,-38 133,0 274,27 368,124 71,-89 187,-121 297,-124 155,-3 294,74 348,225 34,96 35,207 35,308 0,142 5,400 201,400 192,0 269,-240 271,-400 2,-172 -73,-384 -248,-449 -37,-14 -47,-42 -22,-63 33,-28 86,-23 123,-8 212,84 312,301 309,520 -4,262 -143,491 -433,491 -316,0 -364,-231 -364,-491 0,-96 1,-199 -32,-290 -28,-80 -98,-154 -188,-152 -155,3 -205,137 -205,271l0 616c0,25 -36,46 -81,46 -45,0 -82,-21 -82,-46zm-524 -817c-94,66 -154,169 -183,278 -14,53 -21,106 -21,158 0,82 17,163 51,225 31,58 82,111 152,111 71,0 123,-54 155,-112 34,-63 51,-141 51,-224 0,-52 -7,-105 -21,-158 -29,-109 -90,-212 -184,-278z"/>
 </g>
</svg>
