<?xml version="1.0" encoding="UTF-8"?>
<!DOCTYPE svg PUBLIC "-//W3C//DTD SVG 1.1//EN" "http://www.w3.org/Graphics/SVG/1.1/DTD/svg11.dtd">
<!-- Creator: CorelDRAW X8 -->
<svg xmlns="http://www.w3.org/2000/svg" xml:space="preserve" width="1602px" height="1486px" version="1.1" style="shape-rendering:geometricPrecision; text-rendering:geometricPrecision; image-rendering:optimizeQuality; fill-rule:evenodd; clip-rule:evenodd"
viewBox="0 0 1602 1487"
 xmlns:xlink="http://www.w3.org/1999/xlink">
 <defs>
  <style type="text/css">
   <![CDATA[
    .fil0 {fill:black;fill-rule:nonzero}
   ]]>
  </style>
 </defs>
 <g id="Layer_x0020_1">
  <metadata id="CorelCorpID_0Corel-Layer"/>
  <path class="fil0" d="M765 1396c53,0 158,-3 230,-35 46,-20 79,-52 77,-103 -2,-59 -68,-84 -119,-85 -67,0 -103,47 -103,113 0,36 -55,47 -82,47 -27,0 -81,-12 -81,-47 0,-74 -49,-111 -109,-112 -50,-1 -127,26 -126,86 1,55 42,87 95,107 73,26 168,29 218,29zm-426 -451c33,17 35,45 4,64 -43,26 -95,15 -136,-10 -147,-89 -207,-264 -207,-429 0,-105 24,-207 69,-294 92,-176 280,-277 476,-276 85,0 161,14 227,38 66,-24 142,-38 227,-38 139,0 275,48 381,138 158,135 221,334 222,538 1,199 -63,365 -161,494 -60,79 -128,142 -204,190 -133,85 -291,125 -471,127 -77,1 -155,-5 -229,-21 -103,-23 -261,-88 -244,-219 6,-47 44,-87 97,-116 58,-30 124,-45 188,-45 63,-1 136,12 189,47 47,-32 116,-47 186,-47 71,0 142,15 190,45 55,34 78,80 77,126 0,0 0,1 0,1 52,-46 95,-100 129,-161 67,-121 108,-268 99,-419 -10,-165 -57,-329 -160,-444 -73,-82 -175,-143 -289,-143 -36,0 -70,4 -101,12 111,78 185,193 220,323 14,56 22,114 22,171 0,92 -20,180 -58,251 -66,118 -178,176 -310,176 -132,0 -244,-58 -309,-176 -38,-70 -57,-160 -58,-251 0,-58 8,-115 23,-171 35,-129 108,-245 218,-322 -31,-8 -65,-13 -101,-13 -135,0 -259,94 -320,211 -41,78 -62,172 -62,268 0,137 46,307 176,375zm433 -784c-94,66 -154,169 -183,278 -14,53 -21,106 -21,158 0,83 17,163 51,225 32,58 82,111 153,111 70,0 122,-54 154,-112 34,-62 51,-141 51,-224 0,-52 -7,-105 -21,-158 -29,-109 -90,-212 -184,-278z"/>
 </g>
</svg>
