<?xml version="1.0" encoding="UTF-8"?>
<!DOCTYPE svg PUBLIC "-//W3C//DTD SVG 1.1//EN" "http://www.w3.org/Graphics/SVG/1.1/DTD/svg11.dtd">
<!-- Creator: CorelDRAW X8 -->
<svg xmlns="http://www.w3.org/2000/svg" xml:space="preserve" width="1678px" height="600px" version="1.1" style="shape-rendering:geometricPrecision; text-rendering:geometricPrecision; image-rendering:optimizeQuality; fill-rule:evenodd; clip-rule:evenodd"
viewBox="0 0 1678 600"
 xmlns:xlink="http://www.w3.org/1999/xlink">
 <defs>
  <style type="text/css">
   <![CDATA[
    .fil0 {fill:#669933;fill-rule:nonzero}
   ]]>
  </style>
 </defs>
 <g id="Layer_x0020_1">
  <metadata id="CorelCorpID_0Corel-Layer"/>
  <path class="fil0" d="M1065 0c47,0 93,6 136,20 44,-14 91,-20 137,-20 65,0 128,15 181,45 79,44 127,113 148,200 30,122 1,272 -115,339 -29,17 -74,23 -104,6 -21,-12 -17,-30 3,-40 101,-51 118,-199 95,-297 -16,-68 -51,-126 -110,-163 -33,-21 -65,-31 -100,-31 -14,0 -29,1 -44,5 93,64 143,173 143,285 0,50 -11,102 -35,146 -43,74 -116,104 -199,104 -82,0 -155,-30 -197,-104 -25,-43 -35,-96 -35,-146 0,-112 50,-221 143,-285 -16,-4 -32,-5 -47,-5 -94,0 -165,65 -165,171l0 340c0,24 -44,30 -61,30 -17,0 -61,-6 -61,-30l0 -340c0,-107 -72,-171 -166,-171 -15,0 -30,2 -46,5 64,43 109,113 129,186 9,32 14,66 14,99 0,50 -11,102 -35,146 -43,74 -116,105 -199,105 -82,0 -155,-31 -197,-105 -25,-43 -35,-96 -35,-146 0,-33 5,-67 14,-99 21,-75 64,-141 129,-186 -17,-4 -32,-5 -47,-5 -34,1 -65,11 -97,31 -34,22 -63,54 -82,88 -12,23 -22,48 -28,74 -6,26 -10,54 -10,82 0,79 29,177 105,216 20,10 24,27 3,39 -31,18 -75,12 -105,-5 -88,-52 -125,-152 -125,-250 0,-60 13,-119 42,-171 58,-109 177,-163 297,-163 46,0 94,6 137,20 45,-14 89,-20 136,-20 78,0 168,13 227,69 59,-56 149,-69 226,-69zm136 106c-73,56 -110,152 -109,243 0,44 8,91 30,130 15,27 46,61 79,61 34,0 65,-35 81,-62 22,-38 30,-85 30,-129 0,-90 -38,-187 -111,-243zm-725 0c-49,38 -81,93 -98,152 -8,30 -12,60 -12,91 0,44 8,92 30,130 15,27 46,62 79,62 34,0 65,-35 81,-62 22,-39 30,-86 30,-130 0,-30 -4,-61 -12,-91 -17,-59 -49,-114 -98,-152z"/>
 </g>
</svg>
