<?xml version="1.0" encoding="UTF-8"?>
<!DOCTYPE svg PUBLIC "-//W3C//DTD SVG 1.1//EN" "http://www.w3.org/Graphics/SVG/1.1/DTD/svg11.dtd">
<!-- Creator: CorelDRAW X8 -->
<svg xmlns="http://www.w3.org/2000/svg" xml:space="preserve" width="2755px" height="1024px" version="1.1" style="shape-rendering:geometricPrecision; text-rendering:geometricPrecision; image-rendering:optimizeQuality; fill-rule:evenodd; clip-rule:evenodd"
viewBox="0 0 2755 1024"
 xmlns:xlink="http://www.w3.org/1999/xlink">
 <defs>
  <style type="text/css">
   <![CDATA[
    .fil0 {fill:black;fill-rule:nonzero}
   ]]>
  </style>
 </defs>
 <g id="Layer_x0020_1">
  <metadata id="CorelCorpID_0Corel-Layer"/>
  <path class="fil0" d="M1755 0c85,0 160,14 227,38 66,-24 142,-38 227,-38 197,0 384,98 477,276 45,86 69,192 69,297 0,166 -60,338 -208,427 -41,24 -92,35 -135,9 -31,-18 -29,-47 4,-64 130,-68 176,-235 176,-372 0,-96 -21,-193 -62,-272 -62,-118 -185,-210 -321,-210 -36,0 -69,4 -101,12 160,112 241,302 241,493 0,92 -19,180 -58,251 -65,118 -177,175 -309,176 -132,0 -244,-58 -309,-176 -38,-70 -58,-159 -58,-251 0,-191 82,-381 242,-493 -32,-8 -66,-12 -102,-12 -168,0 -296,130 -296,299l0 588c0,25 -37,45 -81,45 -45,0 -82,-20 -82,-45l0 -588c0,-170 -128,-298 -297,-299 -33,0 -67,4 -101,12 109,74 186,197 219,323 15,56 23,114 23,171 0,92 -20,180 -59,250 -65,119 -178,177 -310,177 -131,0 -243,-58 -308,-176 -38,-70 -58,-160 -58,-251 0,-58 8,-115 23,-171 35,-130 108,-245 218,-323 -31,-8 -65,-12 -101,-12 -135,-1 -259,94 -320,211 -41,78 -62,171 -62,268 0,137 46,307 176,374 33,18 35,46 4,65 -43,26 -95,15 -136,-10 -147,-89 -207,-265 -207,-429 0,-106 24,-207 69,-294 92,-176 280,-277 476,-276 74,0 157,12 227,38 76,-26 147,-38 227,-38 139,0 287,50 378,159 91,-108 240,-159 378,-159zm227 161c-137,96 -204,272 -204,435 0,83 17,163 51,225 31,58 82,111 153,111 70,0 122,-54 154,-112 34,-62 51,-141 51,-224 0,-163 -69,-339 -205,-435zm-1210 0c-94,66 -154,169 -183,278 -14,53 -21,106 -21,158 0,82 17,163 51,225 31,58 82,111 152,111 71,0 123,-54 155,-112 34,-63 51,-141 51,-224 0,-52 -7,-105 -21,-158 -29,-109 -90,-212 -184,-278z"/>
 </g>
</svg>
