<?xml version="1.0" encoding="UTF-8"?>
<!DOCTYPE svg PUBLIC "-//W3C//DTD SVG 1.1//EN" "http://www.w3.org/Graphics/SVG/1.1/DTD/svg11.dtd">
<!-- Creator: CorelDRAW X8 -->
<svg xmlns="http://www.w3.org/2000/svg" xml:space="preserve" width="2578px" height="1024px" version="1.1" style="shape-rendering:geometricPrecision; text-rendering:geometricPrecision; image-rendering:optimizeQuality; fill-rule:evenodd; clip-rule:evenodd"
viewBox="0 0 2578 1024"
 xmlns:xlink="http://www.w3.org/1999/xlink">
 <defs>
  <style type="text/css">
   <![CDATA[
    .fil0 {fill:black;fill-rule:nonzero}
   ]]>
  </style>
 </defs>
 <g id="Layer_x0020_1">
  <metadata id="CorelCorpID_0Corel-Layer"/>
  <path class="fil0" d="M339 945c33,17 35,46 4,64 -43,26 -95,15 -136,-10 -147,-89 -207,-264 -207,-429 0,-105 24,-207 69,-294 92,-176 279,-277 476,-276 84,0 160,14 226,38 67,-24 143,-38 228,-38 197,0 384,98 477,276 44,85 68,170 69,273 1,132 -36,265 -125,360l282 0 0 -516c0,-263 212,-393 431,-393 218,0 445,144 445,399l0 555c0,34 -55,46 -81,46l-1238 0c-20,0 -40,-5 -57,-15 -31,-19 -29,-47 4,-64 70,-37 116,-102 143,-176 24,-63 34,-132 33,-196 0,-92 -21,-167 -62,-247 -62,-119 -185,-211 -321,-211 -36,0 -70,4 -102,12 111,78 185,193 220,323 15,56 22,114 22,171 0,92 -19,180 -58,251 -65,119 -178,176 -310,176 -131,0 -243,-58 -308,-176 -38,-70 -58,-160 -58,-251 0,-58 8,-115 23,-171 34,-129 108,-245 218,-322 -32,-8 -65,-13 -101,-13 -135,0 -259,94 -320,211 -41,78 -63,172 -63,268 0,137 47,307 177,375zm1525 -552l0 516 552 0 0 -510c0,-200 -147,-307 -285,-307 -137,0 -267,96 -267,301zm-1093 -232c-93,66 -153,169 -182,278 -14,53 -22,106 -21,158 0,83 17,163 50,225 32,58 83,111 153,111 70,0 123,-54 155,-112 34,-62 51,-141 51,-224 0,-52 -7,-105 -21,-158 -29,-109 -91,-212 -185,-278z"/>
 </g>
</svg>
