<?xml version="1.0" encoding="UTF-8"?>
<!DOCTYPE svg PUBLIC "-//W3C//DTD SVG 1.1//EN" "http://www.w3.org/Graphics/SVG/1.1/DTD/svg11.dtd">
<!-- Creator: CorelDRAW X8 -->
<svg xmlns="http://www.w3.org/2000/svg" xml:space="preserve" width="1328px" height="2048px" version="1.1" style="shape-rendering:geometricPrecision; text-rendering:geometricPrecision; image-rendering:optimizeQuality; fill-rule:evenodd; clip-rule:evenodd"
viewBox="0 0 1328 2048"
 xmlns:xlink="http://www.w3.org/1999/xlink">
 <defs>
  <style type="text/css">
   <![CDATA[
    .fil0 {fill:#2B2A29;fill-rule:nonzero}
   ]]>
  </style>
 </defs>
 <g id="Layer_x0020_1">
  <metadata id="CorelCorpID_0Corel-Layer"/>
  <path class="fil0" d="M452 1440c1,-263 216,-392 431,-392 221,0 446,143 445,399l0 555c0,34 -56,45 -81,46l-1166 0c-45,0 -81,-21 -81,-46l0 -909c0,-25 36,-45 81,-45 45,0 82,20 82,45l0 863 289 0 0 -516zm162 0l0 516 552 0 0 -509c1,-200 -144,-308 -285,-308 -134,0 -266,96 -267,301z"/>
 </g>
</svg>
