<?xml version="1.0" encoding="UTF-8"?>
<!DOCTYPE svg PUBLIC "-//W3C//DTD SVG 1.1//EN" "http://www.w3.org/Graphics/SVG/1.1/DTD/svg11.dtd">
<!-- Creator: CorelDRAW X8 -->
<svg xmlns="http://www.w3.org/2000/svg" xml:space="preserve" width="1328px" height="1000px" version="1.1" style="shape-rendering:geometricPrecision; text-rendering:geometricPrecision; image-rendering:optimizeQuality; fill-rule:evenodd; clip-rule:evenodd"
viewBox="0 0 1328 1000"
 xmlns:xlink="http://www.w3.org/1999/xlink">
 <defs>
  <style type="text/css">
   <![CDATA[
    .fil0 {fill:#E31E24;fill-rule:nonzero}
   ]]>
  </style>
 </defs>
 <g id="Layer_x0020_1">
  <metadata id="CorelCorpID_0Corel-Layer"/>
  <path class="fil0" d="M0 46c0,-26 36,-46 81,-46 46,0 82,20 82,46l0 863 286 0 3 -516c2,-263 216,-393 431,-393 221,0 446,144 445,399l0 555c0,34 -56,46 -81,46l-1166 0c-45,0 -81,-20 -81,-46l0 -908zm611 863l554 0 1 -510c0,-200 -144,-307 -285,-307 -134,0 -265,96 -266,301l-4 516z"/>
 </g>
</svg>
