<?xml version="1.0" encoding="UTF-8"?>
<!DOCTYPE svg PUBLIC "-//W3C//DTD SVG 1.1//EN" "http://www.w3.org/Graphics/SVG/1.1/DTD/svg11.dtd">
<!-- Creator: CorelDRAW X8 -->
<svg xmlns="http://www.w3.org/2000/svg" xml:space="preserve" width="1019px" height="1025px" version="1.1" style="shape-rendering:geometricPrecision; text-rendering:geometricPrecision; image-rendering:optimizeQuality; fill-rule:evenodd; clip-rule:evenodd"
viewBox="0 0 1019 1025"
 xmlns:xlink="http://www.w3.org/1999/xlink">
 <defs>
  <style type="text/css">
   <![CDATA[
    .fil0 {fill:#57A7B3;fill-rule:nonzero}
   ]]>
  </style>
 </defs>
 <g id="Layer_x0020_1">
  <metadata id="CorelCorpID_0Corel-Layer"/>
  <path class="fil0" d="M470 978c-34,-16 -40,-44 -11,-64 28,-19 79,-22 114,-7 36,17 82,26 121,25 29,0 53,-6 77,-19 63,-32 87,-99 86,-167 -1,-33 -12,-64 -32,-92 -69,-97 -226,-76 -287,-76 -26,0 -82,-11 -82,-45 0,-26 36,-46 81,-46 91,0 225,9 280,-75 16,-25 26,-57 26,-95 -2,-168 -161,-227 -306,-226 -241,2 -355,202 -372,416 -13,155 28,333 129,452 19,23 2,50 -39,61 -42,11 -87,4 -116,-31 -106,-132 -150,-315 -137,-482 25,-304 217,-504 535,-507 200,-2 466,77 468,317 1,98 -52,173 -139,214 85,40 151,118 153,215 2,105 -44,186 -138,235 -55,27 -120,41 -187,42 -78,1 -158,-15 -224,-45z"/>
 </g>
</svg>
