<?xml version="1.0" encoding="UTF-8"?>
<!DOCTYPE svg PUBLIC "-//W3C//DTD SVG 1.1//EN" "http://www.w3.org/Graphics/SVG/1.1/DTD/svg11.dtd">
<!-- Creator: CorelDRAW X8 -->
<svg xmlns="http://www.w3.org/2000/svg" xml:space="preserve" width="1019px" height="2048px" version="1.1" style="shape-rendering:geometricPrecision; text-rendering:geometricPrecision; image-rendering:optimizeQuality; fill-rule:evenodd; clip-rule:evenodd"
viewBox="0 0 1019 2048"
 xmlns:xlink="http://www.w3.org/1999/xlink">
 <defs>
  <style type="text/css">
   <![CDATA[
    .fil0 {fill:#1F1B20;fill-rule:nonzero}
   ]]>
  </style>
 </defs>
 <g id="Layer_x0020_1">
  <metadata id="CorelCorpID_0Corel-Layer"/>
  <path class="fil0" d="M470 2014c-34,-16 -40,-45 -11,-64 28,-20 79,-23 114,-7 36,17 77,25 117,25 28,-1 57,-7 81,-19 63,-32 87,-99 85,-166 0,-33 -11,-66 -31,-93 -53,-74 -135,-76 -220,-76 -108,1 35,0 -67,0 -26,0 -82,-11 -82,-46 0,-25 36,-45 81,-45 21,0 42,0 64,0 75,-2 170,-5 216,-75 16,-25 26,-57 26,-94 -2,-168 -158,-228 -303,-227 -241,2 -358,205 -375,420 -12,154 28,328 129,448 19,23 2,50 -39,61 -42,11 -87,4 -115,-31 -107,-132 -151,-315 -137,-482 24,-305 217,-504 534,-507 200,-2 466,77 468,317 1,97 -52,173 -139,214 85,39 151,118 153,215 2,105 -44,186 -138,234 -55,28 -120,42 -187,43 -78,1 -158,-15 -224,-45z"/>
 </g>
</svg>
