<?xml version="1.0" encoding="UTF-8"?>
<!DOCTYPE svg PUBLIC "-//W3C//DTD SVG 1.1//EN" "http://www.w3.org/Graphics/SVG/1.1/DTD/svg11.dtd">
<!-- Creator: CorelDRAW X8 -->
<svg xmlns="http://www.w3.org/2000/svg" xml:space="preserve" width="1019px" height="1025px" version="1.1" style="shape-rendering:geometricPrecision; text-rendering:geometricPrecision; image-rendering:optimizeQuality; fill-rule:evenodd; clip-rule:evenodd"
viewBox="0 0 1019 1025"
 xmlns:xlink="http://www.w3.org/1999/xlink">
 <defs>
  <style type="text/css">
   <![CDATA[
    .fil0 {fill:#57A7B3;fill-rule:nonzero}
   ]]>
  </style>
 </defs>
 <g id="Layer_x0020_1">
  <metadata id="CorelCorpID_0Corel-Layer"/>
  <path class="fil0" d="M470 978c-34,-16 -40,-44 -11,-64 28,-19 79,-22 114,-7 36,17 82,26 121,25 47,-1 94,-19 124,-56 28,-35 39,-82 39,-130 -2,-74 -51,-131 -121,-154 -72,-24 -157,-14 -198,-14 -26,0 -82,-11 -82,-45 0,-26 36,-46 81,-46 60,0 139,4 201,-17 70,-24 106,-79 105,-153 -1,-71 -27,-124 -70,-160 -53,-46 -133,-66 -214,-66 -118,1 -205,39 -269,103 -75,75 -115,185 -125,314 -13,154 28,332 129,451 19,23 2,50 -39,61 -42,11 -87,4 -116,-31 -106,-132 -150,-315 -137,-481 15,-179 83,-313 195,-399 93,-71 215,-108 362,-109 104,-1 221,21 309,76 80,50 136,128 137,241 1,98 -52,173 -139,214 85,40 151,119 153,215 1,91 -32,164 -102,213 -64,45 -146,63 -223,64 -78,1 -158,-15 -224,-45z"/>
 </g>
</svg>
