<?xml version="1.0" encoding="UTF-8"?>
<!DOCTYPE svg PUBLIC "-//W3C//DTD SVG 1.1//EN" "http://www.w3.org/Graphics/SVG/1.1/DTD/svg11.dtd">
<!-- Creator: CorelDRAW X8 -->
<svg xmlns="http://www.w3.org/2000/svg" xml:space="preserve" width="1463px" height="1486px" version="1.1" style="shape-rendering:geometricPrecision; text-rendering:geometricPrecision; image-rendering:optimizeQuality; fill-rule:evenodd; clip-rule:evenodd"
viewBox="0 0 1463 1486"
 xmlns:xlink="http://www.w3.org/1999/xlink">
 <defs>
  <style type="text/css">
   <![CDATA[
    .fil0 {fill:#FF6600;fill-rule:nonzero}
   ]]>
  </style>
 </defs>
 <g id="Layer_x0020_1">
  <metadata id="CorelCorpID_0Corel-Layer"/>
  <path class="fil0" d="M919 578c-25,0 -82,-11 -82,-46 0,-25 37,-46 82,-46 59,0 138,4 200,-17 71,-24 106,-78 105,-152 -1,-71 -27,-124 -70,-161 -52,-45 -133,-65 -214,-65 -118,1 -204,39 -268,103 -75,75 -115,185 -126,313 -12,154 28,332 130,451 19,23 1,50 -39,61 -42,11 -88,4 -116,-31 -192,-237 -198,-684 57,-879 93,-71 216,-108 362,-109 105,-1 222,21 310,76 79,50 135,127 136,241 1,95 -49,169 -133,210 146,66 209,227 210,378 1,154 -58,281 -152,377 -135,137 -333,202 -522,203 -227,2 -408,-74 -540,-203 -164,-162 -247,-401 -249,-629 -2,-252 96,-500 325,-638 31,-19 82,-20 115,-3 33,17 35,46 4,64 -199,121 -281,350 -281,575 0,195 64,404 194,552 112,127 268,194 432,192 157,-2 328,-69 424,-197 59,-79 94,-179 95,-293 1,-142 -56,-277 -199,-316 -65,-18 -123,-11 -190,-11z"/>
 </g>
</svg>
