<?xml version="1.0" encoding="UTF-8"?>
<!DOCTYPE svg PUBLIC "-//W3C//DTD SVG 1.1//EN" "http://www.w3.org/Graphics/SVG/1.1/DTD/svg11.dtd">
<!-- Creator: CorelDRAW X8 -->
<svg xmlns="http://www.w3.org/2000/svg" xml:space="preserve" width="2142px" height="1026px" version="1.1" style="shape-rendering:geometricPrecision; text-rendering:geometricPrecision; image-rendering:optimizeQuality; fill-rule:evenodd; clip-rule:evenodd"
viewBox="0 0 2142 1026"
 xmlns:xlink="http://www.w3.org/1999/xlink">
 <defs>
  <style type="text/css">
   <![CDATA[
    .fil0 {fill:#FF6600;fill-rule:nonzero}
   ]]>
  </style>
 </defs>
 <g id="Layer_x0020_1">
  <metadata id="CorelCorpID_0Corel-Layer"/>
  <path class="fil0" d="M470 962c-35,-16 -40,-45 -12,-64 29,-20 80,-23 115,-7 36,17 82,26 121,25 99,-2 170,-74 163,-171 -5,-67 -48,-129 -121,-153 -72,-24 -157,-14 -198,-14 -26,0 -82,-11 -82,-46 0,-25 36,-46 81,-46 60,0 138,4 201,-17 70,-24 105,-77 105,-150 -1,-63 -21,-120 -70,-163 -53,-45 -133,-65 -215,-65 -117,1 -204,39 -268,103 -75,75 -115,185 -125,313 -13,154 28,332 129,451 19,23 2,50 -39,61 -42,11 -87,4 -116,-31 -106,-131 -150,-314 -137,-481 15,-178 83,-313 195,-398 93,-71 215,-108 361,-109 105,-1 222,21 310,76 91,57 136,140 137,243 1,97 -52,171 -139,211 89,42 156,113 155,215 0,68 -32,137 -95,187 70,-4 139,-16 195,-40 103,-45 144,-120 144,-227l0 -617c0,-25 36,-46 81,-46 45,0 82,21 82,46l0 616c0,150 70,271 232,271 131,0 238,-96 284,-214 26,-67 36,-142 35,-215 -2,-158 -67,-356 -223,-422 -35,-15 -42,-44 -15,-64 32,-23 83,-22 118,-6 194,85 280,292 283,493 1,92 -14,181 -51,260 -79,169 -248,259 -431,259 -140,0 -256,-45 -325,-134 -32,29 -71,53 -114,72 -105,45 -232,61 -353,61 -117,0 -290,-14 -398,-63z"/>
 </g>
</svg>
