<?xml version="1.0" encoding="UTF-8"?>
<!DOCTYPE svg PUBLIC "-//W3C//DTD SVG 1.1//EN" "http://www.w3.org/Graphics/SVG/1.1/DTD/svg11.dtd">
<!-- Creator: CorelDRAW X8 -->
<svg xmlns="http://www.w3.org/2000/svg" xml:space="preserve" width="1423px" height="1486px" version="1.1" style="shape-rendering:geometricPrecision; text-rendering:geometricPrecision; image-rendering:optimizeQuality; fill-rule:evenodd; clip-rule:evenodd"
viewBox="0 0 1423 1486"
 xmlns:xlink="http://www.w3.org/1999/xlink">
 <defs>
  <style type="text/css">
   <![CDATA[
    .fil0 {fill:#6666CC;fill-rule:nonzero}
   ]]>
  </style>
 </defs>
 <g id="Layer_x0020_1">
  <metadata id="CorelCorpID_0Corel-Layer"/>
  <path class="fil0" d="M894 578c-26,0 -83,-11 -83,-46 0,-25 37,-45 82,-45 60,0 138,4 201,-18 70,-24 105,-78 104,-152 0,-71 -27,-124 -69,-161 -53,-45 -134,-65 -215,-65 -117,1 -204,39 -268,103 -75,75 -115,185 -125,313 -13,154 27,332 129,452 19,22 2,49 -39,60 -42,11 -87,4 -116,-31 -101,-125 -151,-308 -137,-483 12,-155 74,-304 195,-396 92,-71 215,-108 361,-109 105,-1 222,21 310,76 80,50 136,127 137,241 1,95 -50,169 -133,210 145,66 194,227 195,378 1,155 -61,283 -146,378 -114,128 -290,199 -491,203 -259,5 -467,-107 -604,-283 -116,-148 -180,-342 -182,-550 -2,-252 70,-500 299,-638 31,-19 82,-20 115,-3 33,17 35,46 4,64 -199,121 -255,350 -255,575 0,165 49,336 139,473 106,161 270,275 484,274 180,-1 308,-77 386,-198 52,-81 89,-182 90,-295 2,-142 -46,-277 -178,-316 -65,-19 -124,-11 -190,-11z"/>
 </g>
</svg>
