<?xml version="1.0" encoding="UTF-8"?>
<!DOCTYPE svg PUBLIC "-//W3C//DTD SVG 1.1//EN" "http://www.w3.org/Graphics/SVG/1.1/DTD/svg11.dtd">
<!-- Creator: CorelDRAW X8 -->
<svg xmlns="http://www.w3.org/2000/svg" xml:space="preserve" width="989px" height="868px" version="1.1" style="shape-rendering:geometricPrecision; text-rendering:geometricPrecision; image-rendering:optimizeQuality; fill-rule:evenodd; clip-rule:evenodd"
viewBox="0 0 989 868"
 xmlns:xlink="http://www.w3.org/1999/xlink">
 <defs>
  <style type="text/css">
   <![CDATA[
    .fil0 {fill:#666633;fill-rule:nonzero}
   ]]>
  </style>
 </defs>
 <g id="Layer_x0020_1">
  <metadata id="CorelCorpID_0Corel-Layer"/>
  <path class="fil0" d="M492 716c-30,0 -67,3 -96,14 -14,5 -36,17 -37,34 0,18 23,30 37,35 29,11 66,14 96,14 27,0 54,-2 80,-10 17,-4 49,-17 49,-39 0,-21 -32,-33 -48,-38 -26,-8 -54,-10 -81,-10zm186 -116c-65,0 -138,-13 -188,-58 -51,45 -123,58 -189,58 -112,0 -220,-49 -270,-153 -23,-47 -32,-100 -31,-152 1,-62 16,-125 47,-178 28,-46 69,-85 124,-109 26,-11 71,-12 94,5 20,14 9,31 -11,39 -41,17 -71,50 -93,89 -26,47 -38,104 -38,154 -1,42 5,86 21,125 25,62 86,121 157,121 88,0 128,-70 128,-151l0 -360c0,-24 44,-30 61,-30 17,0 61,6 61,30l0 360c0,81 39,151 127,151 71,0 133,-59 158,-121 16,-39 22,-83 21,-125 -1,-91 -40,-205 -132,-243 -19,-8 -30,-25 -10,-39 23,-17 68,-16 93,-5 145,61 178,218 181,359 2,106 -15,222 -71,313 -50,80 -120,128 -208,156 -69,21 -147,31 -219,32 -45,0 -93,-4 -136,-15 -40,-11 -110,-38 -110,-89 1,-51 73,-78 113,-88 43,-11 90,-15 134,-15 41,0 82,4 122,13 27,6 64,18 90,37 16,13 28,28 31,47 69,-49 106,-124 120,-206 -52,33 -115,48 -177,48z"/>
 </g>
</svg>
