<?xml version="1.0" encoding="UTF-8"?>
<!DOCTYPE svg PUBLIC "-//W3C//DTD SVG 1.1//EN" "http://www.w3.org/Graphics/SVG/1.1/DTD/svg11.dtd">
<!-- Creator: CorelDRAW X8 -->
<svg xmlns="http://www.w3.org/2000/svg" xml:space="preserve" width="1607px" height="1486px" version="1.1" style="shape-rendering:geometricPrecision; text-rendering:geometricPrecision; image-rendering:optimizeQuality; fill-rule:evenodd; clip-rule:evenodd"
viewBox="0 0 1607 1486"
 xmlns:xlink="http://www.w3.org/1999/xlink">
 <defs>
  <style type="text/css">
   <![CDATA[
    .fil0 {fill:#FF6600;fill-rule:nonzero}
   ]]>
  </style>
 </defs>
 <g id="Layer_x0020_1">
  <metadata id="CorelCorpID_0Corel-Layer"/>
  <path class="fil0" d="M799 1224c-76,0 -136,10 -176,26 -43,16 -65,39 -65,62 -1,24 21,47 64,64 40,15 101,26 177,26 63,0 111,-7 149,-19 58,-17 88,-44 87,-71 0,-26 -29,-52 -86,-69 -38,-12 -86,-19 -150,-19zm311 -200c-132,0 -244,-38 -314,-117 -71,79 -182,117 -314,117 -183,0 -352,-91 -431,-259 -37,-79 -52,-170 -51,-261 3,-202 89,-407 283,-493 35,-15 86,-17 118,7 27,20 20,48 -15,64 -156,66 -221,264 -223,422 -1,73 9,148 35,215 46,118 153,214 284,214 161,0 232,-115 232,-265l0 -622c0,-25 37,-46 82,-46 45,0 81,21 81,46l0 622c0,149 71,265 233,265 130,0 237,-96 283,-214 27,-67 37,-142 36,-215 -3,-158 -67,-356 -223,-422 -36,-16 -43,-44 -16,-64 32,-24 84,-22 119,-7 111,49 187,139 232,244 50,118 67,288 66,412 -1,77 -7,155 -21,230 -36,192 -123,367 -303,475 -84,50 -196,83 -307,100 -62,9 -123,13 -180,14 -67,0 -144,-7 -210,-25 -118,-32 -177,-90 -177,-149 0,-59 61,-118 182,-149 56,-14 127,-22 208,-22 75,0 136,7 189,19 76,18 196,65 196,152 0,6 -1,12 -2,18 154,-89 228,-249 248,-420 -88,77 -204,114 -320,114z"/>
 </g>
</svg>
