<?xml version="1.0" encoding="UTF-8"?>
<!DOCTYPE svg PUBLIC "-//W3C//DTD SVG 1.1//EN" "http://www.w3.org/Graphics/SVG/1.1/DTD/svg11.dtd">
<!-- Creator: CorelDRAW X8 -->
<svg xmlns="http://www.w3.org/2000/svg" xml:space="preserve" width="1585px" height="2048px" version="1.1" style="shape-rendering:geometricPrecision; text-rendering:geometricPrecision; image-rendering:optimizeQuality; fill-rule:evenodd; clip-rule:evenodd"
viewBox="0 0 1585 2048"
 xmlns:xlink="http://www.w3.org/1999/xlink">
 <defs>
  <style type="text/css">
   <![CDATA[
    .fil0 {fill:#00A0E3;fill-rule:nonzero}
    .fil1 {fill:black;fill-rule:nonzero}
   ]]>
  </style>
 </defs>
 <g id="Layer_x0020_1">
  <metadata id="CorelCorpID_0Corel-Layer"/>
  <path class="fil0" d="M1203 1978c-36,16 -43,44 -16,64 32,24 83,22 118,7 195,-86 281,-293 283,-494 2,-91 -14,-181 -51,-260 -79,-169 -248,-259 -430,-259 -133,0 -244,38 -314,117 -71,-79 -182,-117 -315,-117 -182,0 -351,90 -430,259 -37,79 -53,169 -51,260 2,201 88,408 283,494 35,15 86,17 118,-7 27,-20 20,-48 -16,-64 -156,-66 -220,-264 -223,-422 -1,-73 9,-148 36,-215 46,-118 152,-214 283,-214 161,0 233,115 233,264l0 623c0,25 36,46 81,46 46,0 82,-21 82,-46l0 -622c0,-150 71,-265 233,-265 131,0 237,96 283,214 27,67 37,142 36,215 -3,158 -67,356 -223,422z"/>
  <path class="fil1" d="M1203 1978c-36,16 -43,44 -16,64 32,24 83,22 118,7 195,-86 281,-293 283,-494 2,-91 -14,-181 -51,-260 -79,-169 -248,-259 -430,-259 -133,0 -244,38 -314,117 -71,-79 -182,-117 -315,-117 -182,0 -351,90 -430,259 -37,79 -53,169 -51,260 2,201 88,408 283,494 35,15 86,17 118,-7 27,-20 20,-48 -16,-64 -156,-66 -220,-264 -223,-422 -1,-73 9,-148 36,-215 46,-118 152,-214 283,-214 161,0 233,115 233,264l0 623c0,25 36,46 81,46 46,0 82,-21 82,-46l0 -622c0,-150 71,-265 233,-265 131,0 237,96 283,214 27,67 37,142 36,215 -3,158 -67,356 -223,422z"/>
 </g>
</svg>
