<?xml version="1.0" encoding="UTF-8"?>
<!DOCTYPE svg PUBLIC "-//W3C//DTD SVG 1.1//EN" "http://www.w3.org/Graphics/SVG/1.1/DTD/svg11.dtd">
<!-- Creator: CorelDRAW X8 -->
<svg xmlns="http://www.w3.org/2000/svg" xml:space="preserve" width="2267px" height="1486px" version="1.1" style="shape-rendering:geometricPrecision; text-rendering:geometricPrecision; image-rendering:optimizeQuality; fill-rule:evenodd; clip-rule:evenodd"
viewBox="0 0 2267 1486"
 xmlns:xlink="http://www.w3.org/1999/xlink">
 <defs>
  <style type="text/css">
   <![CDATA[
    .fil0 {fill:#FF6600;fill-rule:nonzero}
   ]]>
  </style>
 </defs>
 <g id="Layer_x0020_1">
  <metadata id="CorelCorpID_0Corel-Layer"/>
  <path class="fil0" d="M386 942c-156,-66 -221,-264 -223,-422 -1,-73 9,-148 35,-215 47,-118 153,-214 284,-214 162,0 233,122 233,271l0 616c0,25 36,45 81,45 44,0 81,-20 81,-45l0 -616c0,-171 132,-271 297,-271 36,0 70,4 101,12 -160,112 -241,302 -241,493 0,92 19,181 58,251 65,118 177,176 308,176 132,0 245,-57 310,-176 39,-71 58,-159 58,-251 0,-194 -88,-378 -238,-488 58,-14 122,-17 181,-17 78,0 166,13 233,51 66,39 111,108 111,185 0,76 -46,159 -130,159 -27,1 -85,9 -87,45 -2,37 60,46 87,46 117,3 180,119 180,224 -1,68 -19,124 -51,169 -57,79 -158,120 -274,120l-1460 0c-202,0 -294,69 -296,192 -4,170 159,204 296,204l1820 0c45,0 81,-31 81,-69 0,-38 -36,-69 -81,-69l-1820 0c-86,0 -130,-20 -132,-82 -1,-60 42,-86 132,-86l1457 0c177,0 311,-42 403,-140 54,-59 87,-137 87,-239 0,-114 -57,-217 -160,-272 69,-44 110,-115 111,-198 1,-107 -65,-198 -157,-252 -103,-60 -235,-79 -350,-79 -100,0 -204,9 -300,42 -75,-30 -157,-42 -237,-42 -135,0 -281,22 -371,129 -70,-86 -184,-129 -321,-129 -183,0 -352,90 -431,259 -37,79 -52,169 -51,260 3,201 89,408 283,494 35,15 86,17 118,-7 27,-20 20,-48 -15,-64zm1014 -781c137,96 206,272 206,435 0,83 -17,162 -51,224 -32,58 -84,112 -155,112 -70,0 -121,-53 -153,-111 -34,-62 -51,-142 -51,-225 0,-163 67,-339 204,-435z"/>
 </g>
</svg>
