<?xml version="1.0" encoding="UTF-8"?>
<!DOCTYPE svg PUBLIC "-//W3C//DTD SVG 1.1//EN" "http://www.w3.org/Graphics/SVG/1.1/DTD/svg11.dtd">
<!-- Creator: CorelDRAW X8 -->
<svg xmlns="http://www.w3.org/2000/svg" xml:space="preserve" width="2219px" height="1486px" version="1.1" style="shape-rendering:geometricPrecision; text-rendering:geometricPrecision; image-rendering:optimizeQuality; fill-rule:evenodd; clip-rule:evenodd"
viewBox="0 0 2219 1486"
 xmlns:xlink="http://www.w3.org/1999/xlink">
 <defs>
  <style type="text/css">
   <![CDATA[
    .fil0 {fill:#669933}
   ]]>
  </style>
 </defs>
 <g id="Layer_x0020_1">
  <metadata id="CorelCorpID_0Corel-Layer"/>
  <path class="fil0" d="M1383 1408c62,0 138,-4 195,-30 39,-17 66,-47 65,-90 -2,-51 -58,-71 -101,-71 -56,-1 -88,40 -87,97 0,30 -47,40 -71,40 -24,0 -71,-10 -71,-40 0,-57 -31,-98 -87,-97 -43,0 -99,20 -101,71 -2,43 26,73 65,90 56,26 131,30 193,30zm81 -1041l0 611c0,25 -36,46 -81,46 -45,0 -82,-21 -82,-46l0 -612c0,-133 -63,-273 -213,-273 -149,0 -211,143 -211,274l0 612c0,25 -36,46 -81,46 -45,0 -82,-21 -82,-46l0 -612c0,-149 -71,-274 -232,-274 -131,0 -238,96 -284,213 -26,67 -36,143 -35,216 2,157 67,355 223,421 35,15 42,44 15,64 -33,25 -85,22 -121,5 -192,-86 -277,-290 -280,-490 -1,-92 14,-183 51,-262 79,-168 248,-258 431,-258 133,0 244,50 315,131 77,-90 181,-131 291,-132 112,-1 212,40 287,124 89,-96 198,-125 321,-125 124,0 241,41 328,120 129,116 188,302 194,491 5,137 -15,278 -63,404 -69,181 -195,333 -392,408 -50,19 -110,34 -170,44 -69,12 -140,19 -209,19 -79,1 -170,-8 -244,-35 -84,-30 -144,-96 -143,-163 0,-38 21,-78 68,-108 40,-26 101,-39 161,-39 53,0 114,12 158,40 44,-28 105,-40 158,-40 60,0 120,13 161,39 48,31 69,69 69,108 0,14 -3,29 -8,43 131,-80 211,-209 255,-353 37,-119 48,-249 43,-367 -7,-152 -52,-302 -132,-402 -55,-69 -140,-118 -234,-118 -161,0 -232,111 -232,276z"/>
 </g>
</svg>
