<?xml version="1.0" encoding="UTF-8"?>
<!DOCTYPE svg PUBLIC "-//W3C//DTD SVG 1.1//EN" "http://www.w3.org/Graphics/SVG/1.1/DTD/svg11.dtd">
<!-- Creator: CorelDRAW X8 -->
<svg xmlns="http://www.w3.org/2000/svg" xml:space="preserve" width="1637px" height="1486px" version="1.1" style="shape-rendering:geometricPrecision; text-rendering:geometricPrecision; image-rendering:optimizeQuality; fill-rule:evenodd; clip-rule:evenodd"
viewBox="0 0 1637 1486"
 xmlns:xlink="http://www.w3.org/1999/xlink">
 <defs>
  <style type="text/css">
   <![CDATA[
    .fil0 {fill:#669933}
   ]]>
  </style>
 </defs>
 <g id="Layer_x0020_1">
  <metadata id="CorelCorpID_0Corel-Layer"/>
  <path class="fil0" d="M797 1408c62,0 138,-4 195,-30 39,-17 66,-47 65,-90 -2,-51 -58,-71 -101,-71 -57,0 -88,40 -87,97 0,30 -47,40 -71,40 -24,0 -71,-10 -71,-40 0,-57 -31,-97 -88,-97 -42,0 -98,20 -100,71 -2,43 26,73 65,90 56,26 131,30 193,30zm380 15c196,-75 327,-227 396,-408 48,-126 68,-267 63,-404 -6,-189 -65,-375 -194,-491 -87,-79 -208,-120 -332,-120 -132,0 -243,38 -314,117 -70,-79 -182,-117 -314,-117 -183,0 -352,90 -431,259 -37,79 -52,170 -51,262 3,201 89,407 283,492 35,15 86,17 118,-7 27,-20 20,-48 -15,-63 -156,-67 -221,-265 -223,-422 -1,-74 9,-149 35,-216 47,-118 153,-214 284,-214 161,0 233,115 233,265l0 622c0,26 36,46 81,46 45,0 82,-20 82,-46l0 -622c0,-150 71,-265 232,-265 94,0 179,49 234,118 80,100 125,250 132,402 5,118 -6,248 -43,367 -44,144 -124,273 -255,353 5,-14 8,-29 8,-43 0,-39 -21,-77 -70,-108 -40,-25 -100,-39 -160,-39 -53,0 -114,12 -158,40 -44,-28 -105,-40 -159,-40 -59,0 -120,14 -160,39 -47,30 -68,70 -69,108 -1,67 60,133 144,163 74,27 165,36 244,35 69,0 140,-7 208,-19 61,-10 121,-25 171,-44z"/>
 </g>
</svg>
