<?xml version="1.0" encoding="UTF-8"?>
<!DOCTYPE svg PUBLIC "-//W3C//DTD SVG 1.1//EN" "http://www.w3.org/Graphics/SVG/1.1/DTD/svg11.dtd">
<!-- Creator: CorelDRAW X8 -->
<svg xmlns="http://www.w3.org/2000/svg" xml:space="preserve" width="2039px" height="1486px" version="1.1" style="shape-rendering:geometricPrecision; text-rendering:geometricPrecision; image-rendering:optimizeQuality; fill-rule:evenodd; clip-rule:evenodd"
viewBox="0 0 2039 1486"
 xmlns:xlink="http://www.w3.org/1999/xlink">
 <defs>
  <style type="text/css">
   <![CDATA[
    .fil0 {fill:#6666CC;fill-rule:nonzero}
   ]]>
  </style>
 </defs>
 <g id="Layer_x0020_1">
  <metadata id="CorelCorpID_0Corel-Layer"/>
  <path class="fil0" d="M264 16c29,-19 80,-21 114,-5 34,16 39,45 10,64 -165,109 -225,298 -225,490 -1,318 185,610 479,740 151,66 323,92 493,90 184,-1 401,-51 552,-166 113,-84 189,-205 189,-367 0,-114 -47,-235 -164,-273 -68,-21 -140,-11 -215,-11 -26,0 -82,-11 -82,-46 0,-25 36,-45 81,-45 60,0 139,4 201,-18 72,-24 110,-85 110,-162 -1,-159 -130,-219 -271,-215 -172,4 -298,86 -298,260l0 626c0,26 -36,46 -81,46 -45,0 -82,-20 -82,-46l0 -622c0,-150 -71,-265 -233,-265 -131,0 -237,96 -283,214 -27,67 -37,142 -36,215 3,158 67,356 223,423 36,15 43,43 16,63 -32,24 -83,22 -118,7 -195,-85 -281,-291 -283,-493 -2,-91 14,-182 51,-261 79,-169 248,-259 430,-259 127,0 232,28 316,128 89,-94 249,-126 378,-127 202,-1 428,73 433,306 2,94 -49,174 -131,217 134,63 201,193 201,338 0,214 -119,365 -284,464 -182,111 -421,158 -618,160 -204,2 -412,-29 -595,-110 -329,-145 -542,-454 -542,-811 0,-220 76,-425 264,-549z"/>
 </g>
</svg>
