<?xml version="1.0" encoding="UTF-8"?>
<!DOCTYPE svg PUBLIC "-//W3C//DTD SVG 1.1//EN" "http://www.w3.org/Graphics/SVG/1.1/DTD/svg11.dtd">
<!-- Creator: CorelDRAW X8 -->
<svg xmlns="http://www.w3.org/2000/svg" xml:space="preserve" width="1980px" height="1486px" version="1.1" style="shape-rendering:geometricPrecision; text-rendering:geometricPrecision; image-rendering:optimizeQuality; fill-rule:evenodd; clip-rule:evenodd"
viewBox="0 0 1980 1486"
 xmlns:xlink="http://www.w3.org/1999/xlink">
 <defs>
  <style type="text/css">
   <![CDATA[
    .fil0 {fill:#6666CC;fill-rule:nonzero}
   ]]>
  </style>
 </defs>
 <g id="Layer_x0020_1">
  <metadata id="CorelCorpID_0Corel-Layer"/>
  <path class="fil0" d="M1903 259c-79,-169 -248,-259 -431,-259 -132,0 -243,38 -314,117 -70,-79 -181,-117 -314,-117 -182,0 -351,90 -430,259 -37,79 -53,170 -51,261 3,201 88,407 283,492 34,16 86,17 118,-7 27,-19 20,-48 -16,-63 -156,-66 -220,-264 -223,-422 -1,-73 9,-148 36,-215 46,-118 152,-214 283,-214 161,0 233,115 233,265l0 622c0,25 36,45 81,45 45,0 82,-20 82,-45l0 -622c0,-150 71,-265 232,-265 131,0 243,96 290,214 40,103 58,215 56,325 -4,168 -51,315 -124,434 -130,213 -364,337 -670,331 -274,-6 -514,-118 -666,-305 -111,-137 -195,-335 -195,-527 -1,-192 66,-376 225,-489 28,-20 21,-48 -14,-64 -35,-15 -86,-12 -114,8 -181,128 -260,333 -260,545 0,223 103,455 250,610 185,197 466,307 769,312 339,7 623,-110 790,-335 102,-135 167,-309 171,-519 2,-128 -22,-255 -77,-372z"/>
 </g>
</svg>
