<?xml version="1.0" encoding="UTF-8"?>
<!DOCTYPE svg PUBLIC "-//W3C//DTD SVG 1.1//EN" "http://www.w3.org/Graphics/SVG/1.1/DTD/svg11.dtd">
<!-- Creator: CorelDRAW X8 -->
<svg xmlns="http://www.w3.org/2000/svg" xml:space="preserve" width="2575px" height="1486px" version="1.1" style="shape-rendering:geometricPrecision; text-rendering:geometricPrecision; image-rendering:optimizeQuality; fill-rule:evenodd; clip-rule:evenodd"
viewBox="0 0 2575 1485"
 xmlns:xlink="http://www.w3.org/1999/xlink">
 <defs>
  <style type="text/css">
   <![CDATA[
    .fil0 {fill:#003399;fill-rule:nonzero}
   ]]>
  </style>
 </defs>
 <g id="Layer_x0020_1">
  <metadata id="CorelCorpID_0Corel-Layer"/>
  <path class="fil0" d="M1826 367l0 611c0,25 -36,46 -81,46 -45,0 -81,-21 -81,-46l0 -612c0,-134 -63,-273 -213,-273 -149,0 -211,143 -211,274l0 612c0,25 -36,45 -81,45 -45,0 -82,-20 -82,-45l0 -612c0,-149 -71,-274 -233,-274 -131,0 -237,96 -283,213 -26,67 -36,142 -35,215 2,158 67,356 222,422 36,15 43,44 16,64 -33,24 -85,21 -121,5 -192,-86 -277,-290 -280,-491 -1,-91 14,-182 51,-261 79,-168 248,-258 430,-258 134,0 245,50 316,131 77,-90 181,-131 291,-132 112,-1 212,40 287,124 88,-95 193,-125 321,-125 123,0 241,41 328,120 123,111 185,293 188,480 3,193 -53,361 -155,496 -104,138 -255,242 -438,303 -199,67 -427,87 -662,86 -293,0 -583,-52 -817,-170 -303,-152 -496,-415 -503,-757 -4,-220 81,-427 277,-544 31,-18 82,-19 115,-2 32,18 34,46 3,65 -169,101 -236,292 -232,481 5,308 174,552 448,690 203,101 455,146 709,147 209,0 409,-17 578,-74 168,-56 310,-154 405,-317 71,-122 105,-263 103,-404 -1,-126 -33,-291 -113,-391 -56,-69 -140,-118 -234,-118 -170,0 -233,123 -233,276z"/>
 </g>
</svg>
