<?xml version="1.0" encoding="UTF-8"?>
<!DOCTYPE svg PUBLIC "-//W3C//DTD SVG 1.1//EN" "http://www.w3.org/Graphics/SVG/1.1/DTD/svg11.dtd">
<!-- Creator: CorelDRAW X8 -->
<svg xmlns="http://www.w3.org/2000/svg" xml:space="preserve" width="1630px" height="1024px" version="1.1" style="shape-rendering:geometricPrecision; text-rendering:geometricPrecision; image-rendering:optimizeQuality; fill-rule:evenodd; clip-rule:evenodd"
viewBox="0 0 1630 1024"
 xmlns:xlink="http://www.w3.org/1999/xlink">
 <defs>
  <style type="text/css">
   <![CDATA[
    .fil0 {fill:#669933;fill-rule:nonzero}
   ]]>
  </style>
 </defs>
 <g id="Layer_x0020_1">
  <metadata id="CorelCorpID_0Corel-Layer"/>
  <path class="fil0" d="M797 127c-83,-99 -188,-127 -315,-127 -183,0 -352,90 -431,259 -37,79 -52,170 -51,261 3,202 89,407 283,493 35,15 86,16 118,-7 27,-20 20,-49 -15,-64 -156,-66 -221,-264 -223,-422 -1,-73 9,-148 35,-215 46,-118 153,-214 284,-214 161,0 232,115 232,265l0 622c0,25 37,46 82,46 45,0 81,-21 81,-46l0 -602c0,-192 120,-279 298,-284 141,-4 270,55 271,214 0,63 -30,127 -88,157 -62,31 -146,25 -222,24 -45,0 -82,20 -83,45 -1,25 35,46 79,46 73,1 157,-7 226,21 66,27 108,89 109,157 2,115 -87,177 -194,177 -42,-1 -87,-10 -126,-26 -36,-15 -87,-11 -114,9 -27,20 -19,49 17,64 70,29 148,44 223,44 165,-1 355,-77 357,-268 1,-100 -61,-187 -155,-226 82,-45 135,-129 133,-224 -5,-232 -231,-306 -433,-305 -129,1 -289,33 -378,126z"/>
 </g>
</svg>
