<?xml version="1.0" encoding="UTF-8"?>
<!DOCTYPE svg PUBLIC "-//W3C//DTD SVG 1.1//EN" "http://www.w3.org/Graphics/SVG/1.1/DTD/svg11.dtd">
<!-- Creator: CorelDRAW X8 -->
<svg xmlns="http://www.w3.org/2000/svg" xml:space="preserve" width="1384px" height="1012px" version="1.1" style="shape-rendering:geometricPrecision; text-rendering:geometricPrecision; image-rendering:optimizeQuality; fill-rule:evenodd; clip-rule:evenodd"
viewBox="0 0 1384 1011"
 xmlns:xlink="http://www.w3.org/1999/xlink">
 <defs>
  <style type="text/css">
   <![CDATA[
    .fil0 {fill:#669933;fill-rule:nonzero}
   ]]>
  </style>
 </defs>
 <g id="Layer_x0020_1">
  <metadata id="CorelCorpID_0Corel-Layer"/>
  <path class="fil0" d="M269 930c35,16 41,45 13,64 -33,23 -85,22 -120,5 -104,-49 -162,-149 -162,-263 0,-196 176,-299 352,-299 175,1 350,103 350,299 0,64 -18,124 -52,172l571 0 0 -863c0,-25 37,-45 82,-45 45,0 81,20 81,45l0 909c0,25 -36,45 -81,45l-797 0c-45,0 -81,-20 -81,-45 0,-14 11,-26 23,-32 65,-38 91,-115 91,-186 0,-134 -93,-208 -187,-208 -94,0 -189,73 -189,208 0,77 33,161 106,194z"/>
 </g>
</svg>
