<?xml version="1.0" encoding="UTF-8"?>
<!DOCTYPE svg PUBLIC "-//W3C//DTD SVG 1.1//EN" "http://www.w3.org/Graphics/SVG/1.1/DTD/svg11.dtd">
<!-- Creator: CorelDRAW X8 -->
<svg xmlns="http://www.w3.org/2000/svg" xml:space="preserve" width="1362px" height="2048px" version="1.1" style="shape-rendering:geometricPrecision; text-rendering:geometricPrecision; image-rendering:optimizeQuality; fill-rule:evenodd; clip-rule:evenodd"
viewBox="0 0 1362 2048"
 xmlns:xlink="http://www.w3.org/1999/xlink">
 <defs>
  <style type="text/css">
   <![CDATA[
    .fil0 {fill:#009846;fill-rule:nonzero}
   ]]>
  </style>
 </defs>
 <g id="Layer_x0020_1">
  <metadata id="CorelCorpID_0Corel-Layer"/>
  <path class="fil0" d="M480 2049c-39,0 -70,-16 -70,-35 0,-10 9,-19 22,-26 35,-19 63,-46 84,-79 22,-35 34,-76 34,-119 0,-66 -28,-124 -72,-166 -38,-35 -85,-56 -133,-56 -113,0 -205,99 -205,222 0,47 15,92 41,129 24,35 58,63 97,79 30,12 34,34 10,49 -25,15 -69,17 -98,5 -60,-25 -109,-63 -141,-110 -31,-45 -49,-98 -49,-152 0,-162 154,-292 345,-292 104,0 194,36 256,94 55,51 89,121 89,198 0,50 -15,98 -41,140 -11,17 -24,34 -38,49l611 0 0 -907c0,-19 31,-35 70,-35 39,0 70,16 70,35l0 942c0,19 -31,35 -70,35l-812 0z"/>
 </g>
</svg>
