<?xml version="1.0" encoding="UTF-8"?>
<!DOCTYPE svg PUBLIC "-//W3C//DTD SVG 1.1//EN" "http://www.w3.org/Graphics/SVG/1.1/DTD/svg11.dtd">
<!-- Creator: CorelDRAW X8 -->
<svg xmlns="http://www.w3.org/2000/svg" xml:space="preserve" width="1759px" height="2048px" version="1.1" style="shape-rendering:geometricPrecision; text-rendering:geometricPrecision; image-rendering:optimizeQuality; fill-rule:evenodd; clip-rule:evenodd"
viewBox="0 0 1759 2048"
 xmlns:xlink="http://www.w3.org/1999/xlink">
 <defs>
  <style type="text/css">
   <![CDATA[
    .fil0 {fill:#2B2A29;fill-rule:nonzero}
   ]]>
  </style>
 </defs>
 <g id="Layer_x0020_1">
  <metadata id="CorelCorpID_0Corel-Layer"/>
  <path class="fil0" d="M883 1440c1,-263 216,-392 430,-392 222,0 447,143 446,399l0 555c0,34 -56,45 -82,46l-1170 0c-45,0 -82,-21 -82,-46 0,-14 12,-26 23,-32 65,-38 91,-115 91,-186 0,-135 -93,-208 -187,-208 -94,0 -189,73 -189,208 0,77 33,161 107,195 35,16 40,44 12,64 -32,22 -84,21 -118,5 -105,-49 -164,-149 -164,-264 0,-197 177,-299 352,-299 175,1 350,103 350,299 0,64 -17,124 -52,172l233 0 0 -516zm162 0l0 516 551 0 0 -509c1,-200 -143,-308 -284,-308 -134,0 -266,96 -267,301z"/>
 </g>
</svg>
