<?xml version="1.0" encoding="UTF-8"?>
<!DOCTYPE svg PUBLIC "-//W3C//DTD SVG 1.1//EN" "http://www.w3.org/Graphics/SVG/1.1/DTD/svg11.dtd">
<!-- Creator: CorelDRAW X8 -->
<svg xmlns="http://www.w3.org/2000/svg" xml:space="preserve" width="2125px" height="1024px" version="1.1" style="shape-rendering:geometricPrecision; text-rendering:geometricPrecision; image-rendering:optimizeQuality; fill-rule:evenodd; clip-rule:evenodd"
viewBox="0 0 2125 1024"
 xmlns:xlink="http://www.w3.org/1999/xlink">
 <defs>
  <style type="text/css">
   <![CDATA[
    .fil0 {fill:#E31E24;fill-rule:nonzero}
   ]]>
  </style>
 </defs>
 <g id="Layer_x0020_1">
  <metadata id="CorelCorpID_0Corel-Layer"/>
  <path class="fil0" d="M0 540c0,-102 21,-195 60,-273 88,-175 267,-280 503,-266 136,9 266,58 349,149 70,-96 186,-150 326,-150 286,0 461,232 457,502 -2,153 -52,304 -162,408l429 0 0 -864c0,-25 37,-46 82,-46 45,0 81,21 81,46l0 909c0,26 -36,46 -81,46l-682 0c-24,0 -48,-3 -68,-18 -27,-20 -20,-49 16,-64 155,-66 220,-258 222,-416 3,-173 -92,-409 -292,-412 -165,-2 -235,155 -235,299l0 589c0,25 -36,45 -81,45 -28,0 -53,-8 -68,-20 -9,-8 -14,-16 -14,-26l0 -593c0,-169 -133,-283 -296,-293 -156,-10 -273,83 -335,209 -32,64 -49,137 -50,209 52,-75 132,-116 221,-119 98,-3 189,34 249,98 53,57 81,134 78,223 -2,89 -36,177 -105,234 -59,50 -138,78 -224,78 -91,0 -164,-29 -221,-75 -111,-92 -159,-253 -159,-409zm206 170c0,148 92,223 182,223 84,0 166,-74 166,-223 1,-148 -86,-222 -174,-222 -87,0 -174,74 -174,222z"/>
 </g>
</svg>
