<?xml version="1.0" encoding="UTF-8"?>
<!DOCTYPE svg PUBLIC "-//W3C//DTD SVG 1.1//EN" "http://www.w3.org/Graphics/SVG/1.1/DTD/svg11.dtd">
<!-- Creator: CorelDRAW X8 -->
<svg xmlns="http://www.w3.org/2000/svg" xml:space="preserve" width="2125px" height="1024px" version="1.1" style="shape-rendering:geometricPrecision; text-rendering:geometricPrecision; image-rendering:optimizeQuality; fill-rule:evenodd; clip-rule:evenodd"
viewBox="0 0 2125 1024"
 xmlns:xlink="http://www.w3.org/1999/xlink">
 <defs>
  <style type="text/css">
   <![CDATA[
    .fil0 {fill:#1F1B20;fill-rule:nonzero}
   ]]>
  </style>
 </defs>
 <g id="Layer_x0020_1">
  <metadata id="CorelCorpID_0Corel-Layer"/>
  <path class="fil0" d="M1362 1013c-45,0 -82,-20 -82,-45 0,-16 13,-27 26,-34 186,-99 252,-340 218,-537 -18,-104 -67,-202 -156,-262 -39,-27 -85,-43 -133,-44 -48,-1 -96,15 -137,48 -94,76 -95,181 -95,292l0 547c0,25 -37,46 -82,46 -45,0 -82,-21 -82,-46 1,-181 1,-363 1,-545 -2,-102 -12,-182 -91,-256 -57,-53 -133,-80 -207,-85 -153,-9 -277,77 -340,215 -28,61 -43,131 -46,205 52,-76 133,-118 223,-121 98,-3 189,34 249,98 54,57 81,134 79,223 -3,89 -37,178 -106,235 -59,49 -138,77 -224,77 -136,0 -229,-59 -289,-149 -49,-75 -78,-176 -86,-281 -9,-115 8,-234 52,-322 97,-198 289,-284 505,-270 134,8 251,51 348,145 77,-104 206,-149 333,-147 90,2 178,26 254,77 108,73 169,185 191,311 34,194 -19,401 -159,534l436 0 0 -876c0,-26 36,-46 81,-46 46,0 82,20 82,46l0 922c0,25 -36,45 -82,45l-681 0zm-1160 -302c0,147 93,222 183,222 84,1 166,-73 166,-222 1,-149 -86,-223 -174,-223 -87,0 -174,74 -175,223z"/>
 </g>
</svg>
