<?xml version="1.0" encoding="UTF-8"?>
<!DOCTYPE svg PUBLIC "-//W3C//DTD SVG 1.1//EN" "http://www.w3.org/Graphics/SVG/1.1/DTD/svg11.dtd">
<!-- Creator: CorelDRAW X8 -->
<svg xmlns="http://www.w3.org/2000/svg" xml:space="preserve" width="2125px" height="1024px" version="1.1" style="shape-rendering:geometricPrecision; text-rendering:geometricPrecision; image-rendering:optimizeQuality; fill-rule:evenodd; clip-rule:evenodd"
viewBox="0 0 2125 1024"
 xmlns:xlink="http://www.w3.org/1999/xlink">
 <defs>
  <style type="text/css">
   <![CDATA[
    .fil0 {fill:#57A7B3;fill-rule:nonzero}
   ]]>
  </style>
 </defs>
 <g id="Layer_x0020_1">
  <metadata id="CorelCorpID_0Corel-Layer"/>
  <path class="fil0" d="M0 540c0,-102 21,-195 60,-273 82,-164 249,-266 463,-267 142,-1 291,42 389,150 70,-96 189,-150 328,-150 287,0 459,234 455,503 -2,154 -52,303 -162,407l429 0 0 -864c0,-25 37,-46 82,-46 45,0 81,21 81,46l0 909c0,26 -36,46 -81,46l-682 0c-24,0 -48,-3 -68,-18 -27,-20 -20,-49 16,-64 155,-66 220,-258 222,-416 3,-173 -92,-409 -292,-412 -165,-2 -235,155 -235,294l0 594c0,25 -36,45 -81,45 -28,0 -53,-8 -68,-20 -9,-8 -14,-16 -14,-26l0 -593c0,-178 -148,-294 -319,-294 -144,1 -253,90 -312,210 -32,64 -49,137 -50,209 52,-75 130,-116 219,-119 98,-3 191,34 251,98 53,57 81,133 78,221 -2,89 -36,179 -105,236 -58,49 -139,77 -224,78 -83,1 -156,-22 -221,-75 -111,-92 -159,-253 -159,-409zm206 170c0,148 85,223 174,223 85,0 174,-74 174,-223 1,-148 -86,-222 -174,-222 -87,0 -174,74 -174,222z"/>
 </g>
</svg>
