<?xml version="1.0" encoding="UTF-8"?>
<!DOCTYPE svg PUBLIC "-//W3C//DTD SVG 1.1//EN" "http://www.w3.org/Graphics/SVG/1.1/DTD/svg11.dtd">
<!-- Creator: CorelDRAW X8 -->
<svg xmlns="http://www.w3.org/2000/svg" xml:space="preserve" width="2125px" height="2048px" version="1.1" style="shape-rendering:geometricPrecision; text-rendering:geometricPrecision; image-rendering:optimizeQuality; fill-rule:evenodd; clip-rule:evenodd"
viewBox="0 0 2125 2048"
 xmlns:xlink="http://www.w3.org/1999/xlink">
 <defs>
  <style type="text/css">
   <![CDATA[
    .fil0 {fill:black;fill-rule:nonzero}
   ]]>
  </style>
 </defs>
 <g id="Layer_x0020_1">
  <metadata id="CorelCorpID_0Corel-Layer"/>
  <path class="fil0" d="M0 1576c0,-102 21,-195 60,-273 88,-175 266,-280 503,-266 136,9 266,58 349,149 70,-96 186,-150 326,-150 196,0 339,109 409,263 33,73 49,157 48,245 -2,153 -52,310 -162,414l429 0 0 -876c0,-25 37,-46 82,-46 45,0 81,21 81,46l0 922c0,25 -36,45 -81,45l-682 0c-24,0 -48,-3 -68,-18 -27,-20 -20,-48 16,-64 156,-66 220,-264 222,-422 1,-64 -10,-137 -34,-204 -53,-142 -158,-212 -258,-214 -165,-2 -235,155 -235,299l0 589c0,25 -36,45 -81,45 -29,0 -53,-8 -68,-20 -9,-7 -14,-16 -14,-26l0 -593c0,-169 -133,-283 -296,-293 -156,-10 -273,83 -335,209 -32,64 -49,137 -50,209 52,-75 132,-115 221,-119 98,-3 189,34 249,98 53,57 81,134 78,223 -2,89 -36,178 -105,235 -59,49 -138,77 -224,77 -91,0 -164,-28 -221,-75 -111,-91 -159,-253 -159,-409zm206 171c-1,147 92,222 182,222 84,0 166,-73 166,-222 1,-149 -86,-223 -174,-223 -87,0 -174,74 -174,223z"/>
 </g>
</svg>
