<?xml version="1.0" encoding="UTF-8"?>
<!DOCTYPE svg PUBLIC "-//W3C//DTD SVG 1.1//EN" "http://www.w3.org/Graphics/SVG/1.1/DTD/svg11.dtd">
<!-- Creator: CorelDRAW X8 -->
<svg xmlns="http://www.w3.org/2000/svg" xml:space="preserve" width="1059px" height="1024px" version="1.1" style="shape-rendering:geometricPrecision; text-rendering:geometricPrecision; image-rendering:optimizeQuality; fill-rule:evenodd; clip-rule:evenodd"
viewBox="0 0 1059 1024"
 xmlns:xlink="http://www.w3.org/1999/xlink">
 <defs>
  <style type="text/css">
   <![CDATA[
    .fil0 {fill:#1F1B20;fill-rule:nonzero}
   ]]>
  </style>
 </defs>
 <g id="Layer_x0020_1">
  <metadata id="CorelCorpID_0Corel-Layer"/>
  <path class="fil0" d="M446 974c-35,-16 -41,-44 -14,-64 28,-20 79,-23 115,-8 52,23 122,34 187,29 93,-7 166,-50 162,-149 -3,-82 -48,-116 -124,-93 -80,25 -179,35 -254,6 -70,-27 -107,-105 -108,-181 0,-70 29,-139 91,-168 68,-32 165,-21 252,1 68,17 136,23 138,-57 1,-60 -50,-142 -146,-176 -57,-20 -122,-25 -179,-23 -212,8 -354,165 -393,366 -33,171 11,367 121,503 19,22 1,49 -40,60 -41,10 -89,0 -108,-23 -121,-149 -171,-361 -134,-549 53,-277 267,-437 544,-447 144,-6 340,24 434,147 48,63 71,148 45,214 -40,99 -147,108 -239,94 -72,-10 -110,-35 -162,-32 -55,3 -79,52 -77,100 1,44 25,87 65,92 52,7 125,-22 172,-25 81,-5 172,12 225,79 27,34 40,76 40,118 0,23 -4,46 -12,69 -9,25 -23,48 -43,68 -56,59 -148,89 -248,96 -108,9 -225,-10 -310,-47z"/>
 </g>
</svg>
