<?xml version="1.0" encoding="UTF-8"?>
<!DOCTYPE svg PUBLIC "-//W3C//DTD SVG 1.1//EN" "http://www.w3.org/Graphics/SVG/1.1/DTD/svg11.dtd">
<!-- Creator: CorelDRAW X8 -->
<svg xmlns="http://www.w3.org/2000/svg" xml:space="preserve" width="1429px" height="1486px" version="1.1" style="shape-rendering:geometricPrecision; text-rendering:geometricPrecision; image-rendering:optimizeQuality; fill-rule:evenodd; clip-rule:evenodd"
viewBox="0 0 1429 1487"
 xmlns:xlink="http://www.w3.org/1999/xlink">
 <defs>
  <style type="text/css">
   <![CDATA[
    .fil0 {fill:#669933;fill-rule:nonzero}
   ]]>
  </style>
 </defs>
 <g id="Layer_x0020_1">
  <metadata id="CorelCorpID_0Corel-Layer"/>
  <path class="fil0" d="M916 524c2,40 25,79 67,92 80,23 168,-15 249,-11 109,5 194,84 195,193 0,79 -41,126 -99,156 60,33 101,89 101,167 0,127 -82,227 -190,285 -113,61 -255,75 -362,80 -270,12 -537,-89 -701,-306 -119,-157 -175,-352 -176,-547 -1,-246 92,-489 304,-618 31,-18 82,-19 115,-2 33,17 35,46 5,64 -187,113 -260,332 -260,556 -1,170 42,332 125,462 120,188 321,312 579,306 87,-2 205,-22 293,-79 71,-45 122,-116 120,-201 -2,-67 -52,-122 -145,-122l-254 0c-45,0 -81,-20 -81,-46 0,-25 36,-45 81,-45l201 0c84,0 186,-12 185,-110 0,-41 -29,-69 -68,-82 -90,-31 -188,54 -330,-19 -64,-33 -98,-103 -100,-173 -2,-71 23,-139 87,-178 93,-55 204,-16 302,-2 52,7 94,-3 101,-58 16,-115 -146,-202 -320,-195 -196,8 -413,135 -417,479 -1,141 44,282 132,389 18,23 0,50 -40,61 -41,10 -87,4 -114,-31 -92,-116 -141,-269 -140,-419 0,-345 242,-570 582,-570 185,0 474,52 468,286 -5,144 -135,175 -254,158 -50,-7 -122,-28 -173,-16 -45,11 -70,51 -68,96z"/>
 </g>
</svg>
