<?xml version="1.0" encoding="UTF-8"?>
<!DOCTYPE svg PUBLIC "-//W3C//DTD SVG 1.1//EN" "http://www.w3.org/Graphics/SVG/1.1/DTD/svg11.dtd">
<!-- Creator: CorelDRAW X8 -->
<svg xmlns="http://www.w3.org/2000/svg" xml:space="preserve" width="1115px" height="1486px" version="1.1" style="shape-rendering:geometricPrecision; text-rendering:geometricPrecision; image-rendering:optimizeQuality; fill-rule:evenodd; clip-rule:evenodd"
viewBox="0 0 1115 1486"
 xmlns:xlink="http://www.w3.org/1999/xlink">
 <defs>
  <style type="text/css">
   <![CDATA[
    .fil0 {fill:#669933;fill-rule:nonzero}
   ]]>
  </style>
 </defs>
 <g id="Layer_x0020_1">
  <metadata id="CorelCorpID_0Corel-Layer"/>
  <path class="fil0" d="M452 1408c62,0 138,-4 194,-30 39,-17 67,-47 65,-90 -1,-51 -58,-71 -100,-71 -57,0 -88,40 -88,97 0,30 -46,40 -71,40 -24,0 -70,-10 -70,-40 0,-57 -31,-97 -88,-97 -43,0 -99,20 -101,71 -1,43 27,73 65,90 56,26 133,30 194,30zm386 -96c102,-74 145,-239 139,-360 -3,-75 -24,-144 -66,-188 -29,-29 -63,-49 -103,-51 -108,-6 -175,48 -298,-16 -64,-33 -98,-103 -101,-173 -2,-81 31,-144 88,-178 92,-55 203,-16 302,-2 52,7 91,-2 101,-58 9,-53 -18,-108 -74,-143 -62,-38 -153,-56 -246,-52 -197,8 -413,135 -417,479 -2,141 44,282 131,389 19,23 1,50 -40,61 -41,10 -87,4 -114,-31 -91,-116 -140,-269 -140,-419 1,-345 242,-570 582,-570 121,0 285,22 384,102 53,42 86,102 84,184 -4,144 -135,175 -253,158 -51,-7 -122,-28 -174,-16 -48,12 -70,55 -68,96 2,40 25,79 68,91 62,19 123,0 184,-7 107,-11 204,44 257,135 38,65 53,145 51,223 -8,235 -144,387 -315,461 -102,45 -237,60 -348,59 -78,0 -170,-8 -244,-35 -83,-30 -144,-96 -143,-163 1,-38 21,-78 69,-108 40,-25 101,-39 160,-39 53,0 115,12 158,40 44,-28 105,-40 159,-40 59,0 120,14 160,39 49,31 69,69 69,108 0,8 -1,16 -2,24z"/>
 </g>
</svg>
