<?xml version="1.0" encoding="UTF-8"?>
<!DOCTYPE svg PUBLIC "-//W3C//DTD SVG 1.1//EN" "http://www.w3.org/Graphics/SVG/1.1/DTD/svg11.dtd">
<!-- Creator: CorelDRAW X8 -->
<svg xmlns="http://www.w3.org/2000/svg" xml:space="preserve" width="1052px" height="1012px" version="1.1" style="shape-rendering:geometricPrecision; text-rendering:geometricPrecision; image-rendering:optimizeQuality; fill-rule:evenodd; clip-rule:evenodd"
viewBox="0 0 1052 1012"
 xmlns:xlink="http://www.w3.org/1999/xlink">
 <defs>
  <style type="text/css">
   <![CDATA[
    .fil0 {fill:#1F1B20;fill-rule:nonzero}
   ]]>
  </style>
 </defs>
 <g id="Layer_x0020_1">
  <metadata id="CorelCorpID_0Corel-Layer"/>
  <path class="fil0" d="M0 966l4 -479c2,-307 228,-490 519,-487 283,3 529,185 529,487l0 480c0,36 -61,46 -89,45l-882 0c-25,0 -81,-11 -81,-46zm166 -479l-3 395c89,-46 176,-100 245,-174 78,-84 123,-173 142,-255 20,-92 8,-176 -29,-239 -78,-132 -189,-105 -269,3 -57,77 -85,183 -86,270zm397 -399c128,83 182,226 148,376 -20,92 -71,192 -159,286 -65,70 -144,125 -227,171l564 0 0 -434c0,-206 -126,-358 -326,-399z"/>
 </g>
</svg>
