<?xml version="1.0" encoding="UTF-8"?>
<!DOCTYPE svg PUBLIC "-//W3C//DTD SVG 1.1//EN" "http://www.w3.org/Graphics/SVG/1.1/DTD/svg11.dtd">
<!-- Creator: CorelDRAW X8 -->
<svg xmlns="http://www.w3.org/2000/svg" xml:space="preserve" width="1052px" height="1000px" version="1.1" style="shape-rendering:geometricPrecision; text-rendering:geometricPrecision; image-rendering:optimizeQuality; fill-rule:evenodd; clip-rule:evenodd"
viewBox="0 0 1052 1000"
 xmlns:xlink="http://www.w3.org/1999/xlink">
 <defs>
  <style type="text/css">
   <![CDATA[
    .fil0 {fill:#57A7B3;fill-rule:nonzero}
   ]]>
  </style>
 </defs>
 <g id="Layer_x0020_1">
  <metadata id="CorelCorpID_0Corel-Layer"/>
  <path class="fil0" d="M0 954l4 -467c3,-307 228,-490 519,-487 283,3 529,185 529,487l0 468c0,36 -61,45 -89,45l-882 0c-25,0 -81,-11 -81,-46zm166 -467l-3 383c156,-79 347,-227 387,-406 20,-92 8,-187 -29,-250 -37,-63 -82,-90 -127,-89 -50,1 -100,35 -142,92 -57,77 -85,183 -86,270zm397 -399c128,83 182,226 148,376 -43,195 -217,351 -386,445l564 0 0 -422c0,-206 -126,-358 -326,-399z"/>
 </g>
</svg>
