<?xml version="1.0" encoding="UTF-8"?>
<!DOCTYPE svg PUBLIC "-//W3C//DTD SVG 1.1//EN" "http://www.w3.org/Graphics/SVG/1.1/DTD/svg11.dtd">
<!-- Creator: CorelDRAW X8 -->
<svg xmlns="http://www.w3.org/2000/svg" xml:space="preserve" width="1257px" height="1381px" version="1.1" style="shape-rendering:geometricPrecision; text-rendering:geometricPrecision; image-rendering:optimizeQuality; fill-rule:evenodd; clip-rule:evenodd"
viewBox="0 0 1257 1382"
 xmlns:xlink="http://www.w3.org/1999/xlink">
 <defs>
  <style type="text/css">
   <![CDATA[
    .fil0 {fill:#669933;fill-rule:nonzero}
   ]]>
  </style>
 </defs>
 <g id="Layer_x0020_1">
  <metadata id="CorelCorpID_0Corel-Layer"/>
  <path class="fil0" d="M394 1290l456 0 0 -478c-2,-99 -27,-185 -104,-254 -47,-43 -108,-70 -175,-80 92,56 133,155 134,265 1,66 -13,136 -39,203 -48,127 -139,253 -272,344zm297 -884c-23,-50 -40,-106 -39,-173 1,-56 15,-101 45,-136 58,-69 155,-97 245,-97 124,0 250,57 311,170 13,24 -11,50 -54,57 -43,7 -88,-6 -101,-31 -32,-58 -89,-104 -158,-104 -38,0 -71,15 -96,44 -20,23 -32,54 -34,92 -3,88 41,165 86,238 71,114 117,206 117,344l0 526c0,25 -36,46 -81,46l-850 0c-45,0 -82,-21 -82,-46l0 -526c0,-129 50,-229 128,-300 95,-85 232,-129 379,-129 65,0 127,9 184,25zm-425 153c-63,56 -103,140 -103,251l0 480c150,-64 280,-198 342,-354 25,-61 38,-126 39,-190 1,-101 -42,-241 -165,-237 -39,2 -79,19 -113,50z"/>
 </g>
</svg>
