<?xml version="1.0" encoding="UTF-8"?>
<!DOCTYPE svg PUBLIC "-//W3C//DTD SVG 1.1//EN" "http://www.w3.org/Graphics/SVG/1.1/DTD/svg11.dtd">
<!-- Creator: CorelDRAW X8 -->
<svg xmlns="http://www.w3.org/2000/svg" xml:space="preserve" width="1683px" height="2048px" version="1.1" style="shape-rendering:geometricPrecision; text-rendering:geometricPrecision; image-rendering:optimizeQuality; fill-rule:evenodd; clip-rule:evenodd"
viewBox="0 0 1683 2048"
 xmlns:xlink="http://www.w3.org/1999/xlink">
 <defs>
  <style type="text/css">
   <![CDATA[
    .fil0 {fill:#009846;fill-rule:nonzero}
   ]]>
  </style>
 </defs>
 <g id="Layer_x0020_1">
  <metadata id="CorelCorpID_0Corel-Layer"/>
  <path class="fil0" d="M670 1498c10,165 65,315 206,414 138,-89 210,-253 218,-414 12,-241 -98,-359 -209,-359 -113,0 -230,126 -215,359zm-56 -311c57,-92 159,-139 266,-139 189,0 391,150 377,450 -9,187 -96,365 -253,471 32,7 67,11 103,11 133,0 252,-85 315,-198 47,-82 71,-183 72,-284 1,-135 -45,-301 -171,-372 -31,-18 -31,-47 1,-64 43,-24 93,-15 132,11 143,90 201,261 200,425 0,110 -27,221 -78,311 -96,169 -279,262 -471,262 -87,0 -165,-13 -233,-38 -71,25 -153,39 -246,39 -181,-1 -342,-50 -464,-190 -89,-103 -134,-249 -137,-384 -3,-104 19,-208 68,-293 59,-99 166,-157 276,-157 109,0 196,43 243,139zm17 794c42,-1 80,-5 116,-13 -159,-112 -225,-284 -238,-470 -3,-47 1,-132 -10,-208 -13,-81 -42,-151 -121,-151 -44,0 -91,31 -128,94 -43,75 -63,169 -60,265 2,120 41,252 121,344 87,101 188,139 320,139z"/>
 </g>
</svg>
