<?xml version="1.0" encoding="UTF-8"?>
<!DOCTYPE svg PUBLIC "-//W3C//DTD SVG 1.1//EN" "http://www.w3.org/Graphics/SVG/1.1/DTD/svg11.dtd">
<!-- Creator: CorelDRAW X8 -->
<svg xmlns="http://www.w3.org/2000/svg" xml:space="preserve" width="1693px" height="2048px" version="1.1" style="shape-rendering:geometricPrecision; text-rendering:geometricPrecision; image-rendering:optimizeQuality; fill-rule:evenodd; clip-rule:evenodd"
viewBox="0 0 1693 2048"
 xmlns:xlink="http://www.w3.org/1999/xlink">
 <defs>
  <style type="text/css">
   <![CDATA[
    .fil0 {fill:#009846;fill-rule:nonzero}
   ]]>
  </style>
 </defs>
 <g id="Layer_x0020_1">
  <metadata id="CorelCorpID_0Corel-Layer"/>
  <path class="fil0" d="M527 1388c-1,-58 -10,-107 -25,-147 -16,-42 -37,-74 -62,-97 -20,-18 -40,-29 -60,-35 -15,-4 -31,-4 -46,-1 -25,5 -48,15 -67,29 -26,18 -46,42 -63,70 0,1 -1,1 -1,2 -30,50 -49,110 -58,174 -9,69 -7,142 5,211 9,49 24,94 44,136 19,42 44,80 73,112 33,37 70,67 113,91 39,22 81,38 127,46 57,12 117,14 175,8 35,-3 70,-10 102,-19 -29,-17 -57,-37 -81,-59 -26,-25 -49,-52 -67,-81 -36,-58 -61,-124 -78,-194 -11,-44 -19,-89 -24,-134 -4,-38 -6,-75 -7,-112zm144 83c5,52 13,104 25,154 17,67 40,129 73,182 16,25 35,48 57,68 20,19 42,35 67,49 101,-57 177,-152 219,-262 24,-62 37,-128 38,-194 2,-112 -36,-263 -136,-330 -32,-21 -67,-31 -102,-32 -63,-1 -125,29 -168,82 -63,78 -79,185 -73,283zm-61 -303c1,-2 3,-4 4,-6 67,-82 179,-125 290,-126 80,-1 159,19 222,60 118,79 166,236 164,372 -1,70 -15,141 -41,207 -46,120 -132,227 -249,294 6,2 11,4 17,5 38,10 76,15 110,15 56,0 112,-13 164,-38 64,-31 118,-79 160,-135 28,-38 51,-79 67,-122 18,-50 30,-104 34,-158 3,-45 2,-92 -5,-139 -6,-45 -17,-89 -33,-130 -15,-39 -34,-74 -57,-105 -20,-27 -44,-51 -72,-70 -22,-16 -15,-37 16,-49 31,-11 75,-8 98,8 34,24 64,54 89,87 26,35 47,74 63,116 17,44 29,91 36,138 7,49 8,99 4,147 -4,57 -16,114 -36,167 -18,49 -43,94 -74,135 -50,67 -115,122 -192,160 -79,39 -169,58 -262,58 -58,0 -118,-8 -175,-23 -20,-5 -41,-12 -61,-19 -56,20 -119,33 -183,39 -83,8 -169,5 -252,-12 -66,-12 -127,-35 -180,-64 -52,-30 -98,-66 -136,-109 -33,-37 -61,-79 -83,-125 -21,-44 -36,-93 -46,-145 -13,-74 -15,-150 -5,-222 15,-106 56,-217 146,-281 37,-27 80,-45 126,-54 25,-5 51,-8 77,-8 31,0 62,4 91,12 43,11 83,32 116,63 18,16 34,35 48,57z"/>
 </g>
</svg>
