<?xml version="1.0" encoding="UTF-8"?>
<!DOCTYPE svg PUBLIC "-//W3C//DTD SVG 1.1//EN" "http://www.w3.org/Graphics/SVG/1.1/DTD/svg11.dtd">
<!-- Creator: CorelDRAW X8 -->
<svg xmlns="http://www.w3.org/2000/svg" xml:space="preserve" width="1514px" height="1486px" version="1.1" style="shape-rendering:geometricPrecision; text-rendering:geometricPrecision; image-rendering:optimizeQuality; fill-rule:evenodd; clip-rule:evenodd"
viewBox="0 0 1514 1486"
 xmlns:xlink="http://www.w3.org/1999/xlink">
 <defs>
  <style type="text/css">
   <![CDATA[
    .fil0 {fill:#669933;fill-rule:nonzero}
   ]]>
  </style>
 </defs>
 <g id="Layer_x0020_1">
  <metadata id="CorelCorpID_0Corel-Layer"/>
  <path class="fil0" d="M806 1225c-76,0 -137,10 -177,25 -43,17 -64,40 -65,62 0,24 21,47 65,64 40,16 100,26 177,26 63,0 110,-7 148,-18 59,-18 88,-45 88,-72 0,-26 -29,-52 -86,-69 -38,-11 -86,-18 -150,-18zm136 -949c-100,0 -190,46 -250,126 -52,70 -77,156 -77,243 0,73 19,143 55,197 33,50 82,89 144,90 56,0 105,-34 146,-101 44,-72 63,-161 64,-250 2,-108 -21,-214 -82,-305zm118 -79c319,65 472,353 452,664 -13,210 -110,408 -281,516 -71,45 -158,74 -239,90 -59,12 -121,18 -186,19 -67,1 -148,-7 -213,-25 -118,-31 -178,-90 -177,-149 0,-59 61,-117 182,-149 56,-14 127,-22 208,-22 74,0 136,7 189,19 71,17 178,58 194,135 107,-102 162,-268 167,-434 5,-205 -65,-415 -209,-517 29,73 41,153 40,237 -1,99 -24,199 -73,279 -69,114 -181,164 -300,163 -118,-1 -229,-48 -296,-149 -44,-64 -66,-146 -66,-229 0,-99 31,-199 91,-278 78,-104 197,-161 324,-178 -79,-70 -167,-99 -271,-98 -156,2 -278,62 -360,200 -48,80 -73,174 -74,268 0,155 65,301 196,390 28,19 24,47 -11,63 -45,21 -91,12 -130,-17 -143,-103 -219,-264 -217,-439 1,-103 30,-206 82,-294 111,-186 303,-261 513,-262 186,-1 353,61 465,197z"/>
 </g>
</svg>
