<?xml version="1.0" encoding="UTF-8"?>
<!DOCTYPE svg PUBLIC "-//W3C//DTD SVG 1.1//EN" "http://www.w3.org/Graphics/SVG/1.1/DTD/svg11.dtd">
<!-- Creator: CorelDRAW X8 -->
<svg xmlns="http://www.w3.org/2000/svg" xml:space="preserve" width="1257px" height="1000px" version="1.1" style="shape-rendering:geometricPrecision; text-rendering:geometricPrecision; image-rendering:optimizeQuality; fill-rule:evenodd; clip-rule:evenodd"
viewBox="0 0 1257 1001"
 xmlns:xlink="http://www.w3.org/1999/xlink">
 <defs>
  <style type="text/css">
   <![CDATA[
    .fil0 {fill:#57A7B3;fill-rule:nonzero}
   ]]>
  </style>
 </defs>
 <g id="Layer_x0020_1">
  <metadata id="CorelCorpID_0Corel-Layer"/>
  <path class="fil0" d="M1094 46c0,-26 37,-46 82,-46 45,0 81,20 81,46l0 909c0,25 -36,46 -81,46l-1094 0c-26,0 -83,-12 -82,-50 5,-204 0,-395 0,-600 0,-234 224,-350 431,-351 212,-1 422,114 422,351l0 263c0,25 -36,45 -81,45l-609 0 0 250 931 0 0 -863zm-404 522l0 -217c0,-154 -106,-260 -257,-260 -149,1 -270,105 -270,260l0 217 527 0z"/>
 </g>
</svg>
