<?xml version="1.0" encoding="UTF-8"?>
<!DOCTYPE svg PUBLIC "-//W3C//DTD SVG 1.1//EN" "http://www.w3.org/Graphics/SVG/1.1/DTD/svg11.dtd">
<!-- Creator: CorelDRAW X8 -->
<svg xmlns="http://www.w3.org/2000/svg" xml:space="preserve" width="1257px" height="1000px" version="1.1" style="shape-rendering:geometricPrecision; text-rendering:geometricPrecision; image-rendering:optimizeQuality; fill-rule:evenodd; clip-rule:evenodd"
viewBox="0 0 1257 1001"
 xmlns:xlink="http://www.w3.org/1999/xlink">
 <defs>
  <style type="text/css">
   <![CDATA[
    .fil0 {fill:#E31E24;fill-rule:nonzero}
   ]]>
  </style>
 </defs>
 <g id="Layer_x0020_1">
  <metadata id="CorelCorpID_0Corel-Layer"/>
  <path class="fil0" d="M1094 46c0,-26 36,-46 81,-46 46,0 82,20 82,46l0 909c0,25 -36,46 -82,46l-1093 0c-26,0 -87,-13 -82,-50 1,-204 0,-395 0,-600 0,-161 109,-270 247,-319 58,-21 121,-31 184,-32 65,0 128,10 186,31 133,48 236,154 236,320l0 263c0,25 -36,45 -81,45l-609 0 0 250 931 0 0 -863zm-404 522l0 -217c0,-131 -70,-211 -161,-243 -31,-11 -64,-17 -96,-17 -33,0 -67,6 -99,18 -96,34 -171,115 -171,242l0 217 527 0z"/>
 </g>
</svg>
