<?xml version="1.0" encoding="UTF-8"?>
<!DOCTYPE svg PUBLIC "-//W3C//DTD SVG 1.1//EN" "http://www.w3.org/Graphics/SVG/1.1/DTD/svg11.dtd">
<!-- Creator: CorelDRAW X8 -->
<svg xmlns="http://www.w3.org/2000/svg" xml:space="preserve" width="1167px" height="1412px" version="1.1" style="shape-rendering:geometricPrecision; text-rendering:geometricPrecision; image-rendering:optimizeQuality; fill-rule:evenodd; clip-rule:evenodd"
viewBox="0 0 1167 1412"
 xmlns:xlink="http://www.w3.org/1999/xlink">
 <defs>
  <style type="text/css">
   <![CDATA[
    .fil0 {fill:#2B2A29;fill-rule:nonzero}
   ]]>
  </style>
 </defs>
 <g id="Layer_x0020_1">
  <metadata id="CorelCorpID_0Corel-Layer"/>
  <path class="fil0" d="M65 212c113,-177 340,-211 533,-212 144,-1 298,22 410,88 87,52 142,139 147,226 6,100 -53,177 -139,220 89,45 155,122 151,236 -8,217 -234,272 -412,272l-458 -1c-72,0 -133,38 -133,116 0,76 59,116 130,116l740 0c45,0 82,31 82,70 0,38 -37,69 -82,69l-740 0c-144,0 -293,-62 -294,-229 -1,-161 155,-233 297,-233l458 1c122,0 244,-43 249,-183 3,-67 -28,-122 -77,-155 -40,-26 -79,-33 -126,-33 -45,0 -81,-21 -81,-46 0,-25 36,-46 81,-46 49,0 100,-10 139,-43 36,-31 53,-74 53,-118 0,-68 -39,-139 -103,-177 -75,-44 -186,-60 -290,-59 -97,0 -198,11 -279,52 -67,34 -135,88 -149,173 43,-36 97,-54 154,-56 85,-3 163,21 219,68 58,47 93,118 93,209 0,71 -30,136 -78,184 -57,56 -140,91 -236,91 -94,0 -187,-37 -247,-102 -60,-66 -78,-172 -77,-260 1,-83 20,-168 65,-238zm109 325c0,123 77,182 153,180 74,-2 148,-63 148,-180 0,-122 -77,-182 -153,-181 -75,2 -148,62 -148,181z"/>
 </g>
</svg>
