<?xml version="1.0" encoding="UTF-8"?>
<!DOCTYPE svg PUBLIC "-//W3C//DTD SVG 1.1//EN" "http://www.w3.org/Graphics/SVG/1.1/DTD/svg11.dtd">
<!-- Creator: CorelDRAW X8 -->
<svg xmlns="http://www.w3.org/2000/svg" xml:space="preserve" width="1043px" height="1024px" version="1.1" style="shape-rendering:geometricPrecision; text-rendering:geometricPrecision; image-rendering:optimizeQuality; fill-rule:evenodd; clip-rule:evenodd"
viewBox="0 0 1043 1024"
 xmlns:xlink="http://www.w3.org/1999/xlink">
 <defs>
  <style type="text/css">
   <![CDATA[
    .fil0 {fill:#669933;fill-rule:nonzero}
   ]]>
  </style>
 </defs>
 <g id="Layer_x0020_1">
  <metadata id="CorelCorpID_0Corel-Layer"/>
  <path class="fil0" d="M105 22c25,-21 75,-27 113,-14 37,14 48,42 24,63 -55,48 -79,144 -79,214 0,68 18,136 56,192 73,108 209,153 335,147 -82,-113 -158,-188 -148,-341 11,-171 152,-286 319,-283 194,3 327,139 318,332 -9,179 -123,292 -286,348 14,33 22,69 22,105 0,172 -187,239 -332,239 -134,1 -311,-62 -316,-220 0,-25 35,-45 80,-46 45,0 82,20 83,45 2,85 74,131 153,131 89,-1 169,-53 169,-149 0,-25 -5,-50 -13,-72 -25,2 -51,3 -76,3 -170,-3 -360,-59 -460,-207 -45,-67 -68,-147 -67,-228 1,-92 34,-198 105,-259zm600 567c109,-49 168,-136 175,-256 9,-161 -71,-246 -155,-248 -104,-3 -160,108 -163,200 -4,112 79,218 143,304z"/>
 </g>
</svg>
