<?xml version="1.0" encoding="UTF-8"?>
<!DOCTYPE svg PUBLIC "-//W3C//DTD SVG 1.1//EN" "http://www.w3.org/Graphics/SVG/1.1/DTD/svg11.dtd">
<!-- Creator: CorelDRAW X8 -->
<svg xmlns="http://www.w3.org/2000/svg" xml:space="preserve" width="1064px" height="1024px" version="1.1" style="shape-rendering:geometricPrecision; text-rendering:geometricPrecision; image-rendering:optimizeQuality; fill-rule:evenodd; clip-rule:evenodd"
viewBox="0 0 1064 1024"
 xmlns:xlink="http://www.w3.org/1999/xlink">
 <defs>
  <style type="text/css">
   <![CDATA[
    .fil0 {fill:#57A7B3;fill-rule:nonzero}
   ]]>
  </style>
 </defs>
 <g id="Layer_x0020_1">
  <metadata id="CorelCorpID_0Corel-Layer"/>
  <path class="fil0" d="M72 30c15,-23 62,-36 104,-27 42,8 64,34 49,58 -46,73 -70,172 -60,261 16,137 104,235 233,280 35,12 72,19 107,21 -54,-98 -113,-215 -117,-326 -3,-90 30,-162 99,-221 65,-55 152,-79 236,-76 181,8 342,138 341,329 -2,196 -183,321 -361,363 10,31 17,65 17,97 0,165 -165,235 -310,235 -124,0 -254,-54 -310,-170 -12,-24 14,-49 57,-56 44,-6 88,8 100,33 28,58 87,102 153,102 85,0 147,-57 147,-144 0,-26 -5,-51 -12,-76 -79,3 -158,-8 -232,-34 -164,-57 -290,-179 -310,-357 -12,-101 15,-208 69,-292zm592 572c130,-39 231,-135 237,-273 5,-107 -57,-238 -178,-238 -118,0 -182,98 -179,206 4,108 71,214 120,305z"/>
 </g>
</svg>
