<?xml version="1.0" encoding="UTF-8"?>
<!DOCTYPE svg PUBLIC "-//W3C//DTD SVG 1.1//EN" "http://www.w3.org/Graphics/SVG/1.1/DTD/svg11.dtd">
<!-- Creator: CorelDRAW X8 -->
<svg xmlns="http://www.w3.org/2000/svg" xml:space="preserve" width="1512px" height="1012px" version="1.1" style="shape-rendering:geometricPrecision; text-rendering:geometricPrecision; image-rendering:optimizeQuality; fill-rule:evenodd; clip-rule:evenodd"
viewBox="0 0 1512 1012"
 xmlns:xlink="http://www.w3.org/1999/xlink">
 <defs>
  <style type="text/css">
   <![CDATA[
    .fil0 {fill:#E31E24;fill-rule:nonzero}
   ]]>
  </style>
 </defs>
 <g id="Layer_x0020_1">
  <metadata id="CorelCorpID_0Corel-Layer"/>
  <path class="fil0" d="M917 909l432 0 0 -863c0,-25 36,-46 81,-46 46,0 82,21 82,46l0 908c0,26 -36,46 -82,46l-686 0c-22,1 -43,-4 -62,-15 -30,-19 -27,-48 7,-64 166,-81 242,-247 239,-415 -4,-215 -138,-416 -382,-416 -247,1 -382,213 -382,430 -1,166 76,334 239,413 34,16 37,45 7,64 -35,22 -85,19 -121,0 -180,-90 -291,-274 -289,-473 3,-298 246,-524 546,-524 298,0 540,216 546,511 4,155 -61,298 -175,398z"/>
 </g>
</svg>
