<?xml version="1.0" encoding="UTF-8"?>
<!DOCTYPE svg PUBLIC "-//W3C//DTD SVG 1.1//EN" "http://www.w3.org/Graphics/SVG/1.1/DTD/svg11.dtd">
<!-- Creator: CorelDRAW X8 -->
<svg xmlns="http://www.w3.org/2000/svg" xml:space="preserve" width="1853px" height="1486px" version="1.1" style="shape-rendering:geometricPrecision; text-rendering:geometricPrecision; image-rendering:optimizeQuality; fill-rule:evenodd; clip-rule:evenodd"
viewBox="0 0 1853 1486"
 xmlns:xlink="http://www.w3.org/1999/xlink">
 <defs>
  <style type="text/css">
   <![CDATA[
    .fil0 {fill:#669933;fill-rule:nonzero}
   ]]>
  </style>
 </defs>
 <g id="Layer_x0020_1">
  <metadata id="CorelCorpID_0Corel-Layer"/>
  <path class="fil0" d="M1258 909l432 0 0 -863c0,-25 36,-46 82,-46 45,0 81,21 81,46l0 953c0,375 -514,486 -821,487 -273,0 -522,-71 -709,-211 -193,-144 -324,-361 -323,-665 1,-233 89,-463 267,-592 27,-20 78,-24 114,-8 35,15 42,43 14,63 -158,116 -234,328 -232,542 1,245 96,431 238,561 155,142 372,219 629,219 250,0 666,-93 659,-395l-604 0c-22,0 -43,-4 -62,-16 -30,-18 -26,-47 7,-63 166,-81 243,-242 239,-410 -4,-215 -138,-421 -382,-421 -247,1 -381,203 -382,421 -1,165 76,342 239,422 34,16 37,45 8,63 -36,23 -86,19 -122,1 -180,-91 -290,-287 -289,-486 3,-299 246,-511 546,-511 298,0 540,216 546,511 4,155 -61,298 -175,398z"/>
 </g>
</svg>
