<?xml version="1.0" encoding="UTF-8"?>
<!DOCTYPE svg PUBLIC "-//W3C//DTD SVG 1.1//EN" "http://www.w3.org/Graphics/SVG/1.1/DTD/svg11.dtd">
<!-- Creator: CorelDRAW X8 -->
<svg xmlns="http://www.w3.org/2000/svg" xml:space="preserve" width="1739px" height="1024px" version="1.1" style="shape-rendering:geometricPrecision; text-rendering:geometricPrecision; image-rendering:optimizeQuality; fill-rule:evenodd; clip-rule:evenodd"
viewBox="0 0 1739 1024"
 xmlns:xlink="http://www.w3.org/1999/xlink">
 <defs>
  <style type="text/css">
   <![CDATA[
    .fil0 {fill:black;fill-rule:nonzero}
   ]]>
  </style>
 </defs>
 <g id="Layer_x0020_1">
  <metadata id="CorelCorpID_0Corel-Layer"/>
  <path class="fil0" d="M1492 276c-112,-1 -213,37 -284,126 -54,68 -82,155 -82,241 0,72 20,142 58,197 38,55 93,94 162,94 80,-1 142,-67 177,-133 35,-68 54,-150 54,-235 -1,-102 -28,-205 -85,-290zm-78 -87c-75,-64 -178,-98 -276,-98 -125,0 -227,57 -280,158 -46,88 -46,194 -46,291 2,277 -20,488 -366,484 -274,-2 -437,-225 -446,-479 -7,-226 107,-452 324,-535 36,-14 88,-16 119,11 25,21 14,49 -23,63 -181,65 -266,281 -257,461 8,156 103,387 283,389 221,2 205,-236 204,-394 -1,-121 1,-242 70,-346 87,-133 251,-193 418,-194 135,-1 275,38 380,113 146,106 221,275 221,453 0,93 -20,185 -60,260 -69,130 -188,198 -333,198 -124,1 -241,-46 -314,-151 -45,-65 -68,-147 -68,-230 0,-101 33,-199 96,-278 88,-110 217,-162 354,-176z"/>
 </g>
</svg>
