<?xml version="1.0" encoding="UTF-8"?>
<!DOCTYPE svg PUBLIC "-//W3C//DTD SVG 1.1//EN" "http://www.w3.org/Graphics/SVG/1.1/DTD/svg11.dtd">
<!-- Creator: CorelDRAW X8 -->
<svg xmlns="http://www.w3.org/2000/svg" xml:space="preserve" width="1717px" height="2048px" version="1.1" style="shape-rendering:geometricPrecision; text-rendering:geometricPrecision; image-rendering:optimizeQuality; fill-rule:evenodd; clip-rule:evenodd"
viewBox="0 0 1717 2048"
 xmlns:xlink="http://www.w3.org/1999/xlink">
 <defs>
  <style type="text/css">
   <![CDATA[
    .fil0 {fill:#1F1B20;fill-rule:nonzero}
   ]]>
  </style>
 </defs>
 <g id="Layer_x0020_1">
  <metadata id="CorelCorpID_0Corel-Layer"/>
  <path class="fil0" d="M269 1979c35,16 41,45 13,64 -33,23 -84,22 -119,5 -105,-49 -163,-149 -163,-264 0,-196 176,-299 352,-298 175,0 350,103 350,298 0,64 -18,124 -52,173l458 0c0,-46 0,-132 0,-283 -105,-3 -204,-34 -284,-104 -77,-68 -126,-162 -113,-266 23,-167 190,-243 345,-219 125,20 216,101 216,232 -1,56 -1,156 -1,246 163,-81 263,-302 283,-476l0 -6c0,-25 37,-45 82,-45 45,0 81,20 81,45l0 921c0,26 -36,46 -81,46 -377,0 -753,0 -1130,0 -45,0 -81,-20 -81,-46 0,-14 11,-25 23,-32 65,-38 91,-114 91,-186 0,-134 -93,-207 -187,-207 -94,0 -189,73 -189,207 0,77 32,162 106,195zm1002 -22l283 0 0 -567c-55,99 -139,217 -283,265 0,73 0,198 0,302zm-162 -374c0,-104 0,-203 0,-266 1,-61 -31,-134 -97,-144 -75,-12 -130,72 -138,138 -5,39 1,83 22,127 39,81 123,139 213,145z"/>
 </g>
</svg>
