<?xml version="1.0" encoding="UTF-8"?>
<!DOCTYPE svg PUBLIC "-//W3C//DTD SVG 1.1//EN" "http://www.w3.org/Graphics/SVG/1.1/DTD/svg11.dtd">
<!-- Creator: CorelDRAW X8 -->
<svg xmlns="http://www.w3.org/2000/svg" xml:space="preserve" width="1704px" height="2048px" version="1.1" style="shape-rendering:geometricPrecision; text-rendering:geometricPrecision; image-rendering:optimizeQuality; fill-rule:evenodd; clip-rule:evenodd"
viewBox="0 0 1704 2048"
 xmlns:xlink="http://www.w3.org/1999/xlink">
 <defs>
  <style type="text/css">
   <![CDATA[
    .fil0 {fill:#009846;fill-rule:nonzero}
   ]]>
  </style>
 </defs>
 <g id="Layer_x0020_1">
  <metadata id="CorelCorpID_0Corel-Layer"/>
  <path class="fil0" d="M610 1979l498 0 1 -316c-57,1 -113,-6 -165,-24 -47,-16 -92,-42 -130,-76 -35,-30 -65,-67 -84,-106 -26,-54 -33,-108 -27,-156 7,-55 33,-104 68,-140 29,-28 68,-50 111,-63 50,-15 105,-19 158,-10 72,11 126,41 161,83 32,38 48,88 48,142 0,60 0,150 -1,248 16,-7 32,-14 47,-22 68,-36 134,-87 184,-159 43,-62 74,-138 85,-232l0 -76c0,-19 31,-35 70,-35 39,0 70,16 70,35l0 942 0 0c0,19 -31,35 -70,35l-447 0c-3,0 -6,0 -9,0 -3,0 -5,0 -8,0l-687 0c-18,1 -37,-3 -51,-9 -28,-14 -29,-36 -3,-50 36,-19 65,-47 87,-80 22,-36 34,-77 34,-120 0,-65 -28,-124 -72,-165 -38,-35 -85,-57 -133,-57 -113,0 -205,100 -205,222 0,47 14,92 40,129 24,35 58,63 98,79 29,13 33,35 9,49 -25,15 -69,17 -99,5 -59,-25 -107,-64 -140,-110 -31,-45 -48,-97 -48,-152 0,-161 154,-292 345,-292 104,0 194,36 256,94 55,51 89,122 89,198 0,50 -15,98 -41,140 -11,18 -24,34 -39,49zm638 0l316 0 0 -518c-50,53 -108,95 -168,126 -46,24 -96,44 -148,57 0,78 0,224 0,335zm-225 -398c27,10 56,13 86,12 0,-109 0,-214 1,-280 0,-44 -13,-85 -38,-115 -19,-23 -44,-39 -74,-44 -14,-2 -29,-1 -44,4 -21,6 -41,18 -58,35 -28,27 -47,67 -53,112 -6,42 0,89 23,135 15,33 40,63 69,89 28,24 59,43 88,52z"/>
 </g>
</svg>
