<?xml version="1.0" encoding="UTF-8"?>
<!DOCTYPE svg PUBLIC "-//W3C//DTD SVG 1.1//EN" "http://www.w3.org/Graphics/SVG/1.1/DTD/svg11.dtd">
<!-- Creator: CorelDRAW X8 -->
<svg xmlns="http://www.w3.org/2000/svg" xml:space="preserve" width="1717px" height="1012px" version="1.1" style="shape-rendering:geometricPrecision; text-rendering:geometricPrecision; image-rendering:optimizeQuality; fill-rule:evenodd; clip-rule:evenodd"
viewBox="0 0 1717 1012"
 xmlns:xlink="http://www.w3.org/1999/xlink">
 <defs>
  <style type="text/css">
   <![CDATA[
    .fil0 {fill:black;fill-rule:nonzero}
   ]]>
  </style>
 </defs>
 <g id="Layer_x0020_1">
  <metadata id="CorelCorpID_0Corel-Layer"/>
  <path class="fil0" d="M269 931c35,16 41,44 13,64 -33,22 -84,21 -119,5 -104,-50 -163,-149 -163,-264 0,-196 176,-299 352,-299 175,1 350,103 350,299 0,64 -18,124 -52,172l458 0 0 -270c-105,-4 -204,-35 -284,-105 -77,-67 -126,-161 -112,-265 22,-167 188,-243 344,-219 125,20 216,101 216,232l-1 246c149,-74 284,-307 283,-482 0,-25 37,-45 82,-45 45,0 81,20 81,45l0 909c0,25 -36,45 -81,45l-1130 0c-45,0 -81,-20 -81,-45 0,-14 11,-26 23,-32 65,-38 91,-115 91,-186 0,-134 -93,-208 -187,-208 -94,0 -189,73 -189,208 0,77 33,161 106,195zm1002 -23l283 0 0 -564c-55,111 -140,215 -283,275l0 289zm-162 -361l0 -266c0,-61 -31,-134 -97,-144 -75,-12 -130,72 -138,137 -5,40 1,84 22,127 39,81 123,140 213,146z"/>
 </g>
</svg>
