<?xml version="1.0" encoding="UTF-8"?>
<!DOCTYPE svg PUBLIC "-//W3C//DTD SVG 1.1//EN" "http://www.w3.org/Graphics/SVG/1.1/DTD/svg11.dtd">
<!-- Creator: CorelDRAW X8 -->
<svg xmlns="http://www.w3.org/2000/svg" xml:space="preserve" width="2081px" height="1486px" version="1.1" style="shape-rendering:geometricPrecision; text-rendering:geometricPrecision; image-rendering:optimizeQuality; fill-rule:evenodd; clip-rule:evenodd"
viewBox="0 0 2081 1486"
 xmlns:xlink="http://www.w3.org/1999/xlink">
 <defs>
  <style type="text/css">
   <![CDATA[
    .fil0 {fill:#669933;fill-rule:nonzero}
   ]]>
  </style>
 </defs>
 <g id="Layer_x0020_1">
  <metadata id="CorelCorpID_0Corel-Layer"/>
  <path class="fil0" d="M633 931c35,16 41,44 13,64 -33,23 -85,21 -119,5 -105,-49 -163,-149 -163,-264 0,-196 176,-299 352,-298 175,0 349,102 349,298 0,64 -17,124 -52,173l459 0 0 -271c-105,-3 -204,-35 -285,-105 -77,-67 -125,-161 -112,-265 22,-167 189,-243 345,-219 124,20 216,101 215,232l0 246c149,-74 284,-307 283,-482 0,-25 37,-45 82,-45 45,0 81,20 81,45 0,318 0,637 0,955 0,157 -98,268 -234,343 -207,112 -513,144 -693,143 -363,0 -786,-88 -1010,-403 -93,-130 -143,-297 -144,-467 -2,-233 79,-469 276,-600 29,-19 80,-21 115,-5 34,16 38,45 9,64 -172,114 -239,329 -237,541 1,140 36,279 101,387 184,307 559,394 893,393 172,-1 447,-29 611,-142 85,-59 152,-143 149,-254l-1047 0c-45,0 -81,-21 -81,-46 0,-14 11,-25 23,-32 65,-38 90,-114 90,-186 0,-134 -93,-207 -186,-208 -94,0 -189,73 -189,208 0,77 32,162 106,195zm1002 -22l283 0 0 -565c-55,111 -140,215 -283,275l0 290zm-163 -362l1 -266c0,-61 -31,-134 -97,-144 -76,-12 -130,72 -138,138 -6,39 0,83 22,126 39,81 123,140 212,146z"/>
 </g>
</svg>
