<?xml version="1.0" encoding="UTF-8"?>
<!DOCTYPE svg PUBLIC "-//W3C//DTD SVG 1.1//EN" "http://www.w3.org/Graphics/SVG/1.1/DTD/svg11.dtd">
<!-- Creator: CorelDRAW X8 -->
<svg xmlns="http://www.w3.org/2000/svg" xml:space="preserve" width="2443px" height="1486px" version="1.1" style="shape-rendering:geometricPrecision; text-rendering:geometricPrecision; image-rendering:optimizeQuality; fill-rule:evenodd; clip-rule:evenodd"
viewBox="0 0 2443 1485"
 xmlns:xlink="http://www.w3.org/1999/xlink">
 <defs>
  <style type="text/css">
   <![CDATA[
    .fil0 {fill:#669933;fill-rule:nonzero}
   ]]>
  </style>
 </defs>
 <g id="Layer_x0020_1">
  <metadata id="CorelCorpID_0Corel-Layer"/>
  <path class="fil0" d="M1134 116c-70,-77 -180,-116 -310,-116 -182,0 -351,90 -430,259 -37,79 -53,169 -51,260 3,201 88,408 283,494 35,15 86,16 118,-7 27,-20 20,-49 -16,-64 -156,-66 -220,-265 -223,-423 -1,-73 9,-147 36,-214 46,-118 152,-214 283,-214 162,0 233,121 233,271l0 616c0,25 36,46 81,46 45,0 82,-21 82,-46l0 -616c0,-134 49,-268 204,-271 90,-2 160,72 189,152 32,91 32,194 32,290 0,260 47,491 364,491 64,0 121,-12 171,-32 -27,43 -58,81 -91,116 -190,198 -493,285 -798,286 -283,1 -550,-71 -752,-199 -208,-130 -355,-333 -374,-631 -14,-200 58,-396 203,-488 30,-19 27,-47 -7,-64 -33,-17 -85,-15 -114,4 -176,111 -261,331 -245,554 25,353 220,583 484,725 226,122 509,192 807,190 335,-1 667,-93 888,-300 173,-164 263,-399 262,-635 -1,-225 -87,-449 -310,-537 -38,-15 -91,-20 -124,8 -25,21 -15,49 23,63 179,66 254,290 247,466 -7,159 -85,383 -270,383 -197,0 -202,-258 -202,-400 0,-101 0,-212 -35,-308 -54,-151 -192,-228 -348,-225 -124,3 -227,43 -290,116z"/>
 </g>
</svg>
