<?xml version="1.0" encoding="UTF-8"?>
<!DOCTYPE svg PUBLIC "-//W3C//DTD SVG 1.1//EN" "http://www.w3.org/Graphics/SVG/1.1/DTD/svg11.dtd">
<!-- Creator: CorelDRAW X8 -->
<svg xmlns="http://www.w3.org/2000/svg" xml:space="preserve" width="3132px" height="1024px" version="1.1" style="shape-rendering:geometricPrecision; text-rendering:geometricPrecision; image-rendering:optimizeQuality; fill-rule:evenodd; clip-rule:evenodd"
viewBox="0 0 3132 1024"
 xmlns:xlink="http://www.w3.org/1999/xlink">
 <defs>
  <style type="text/css">
   <![CDATA[
    .fil0 {fill:#669933;fill-rule:nonzero}
   ]]>
  </style>
 </defs>
 <g id="Layer_x0020_1">
  <metadata id="CorelCorpID_0Corel-Layer"/>
  <path class="fil0" d="M792 116c-71,-77 -180,-116 -310,-116 -183,0 -352,90 -431,259 -37,79 -52,169 -51,260 3,201 89,408 283,494 35,15 86,16 118,-7 27,-20 20,-49 -15,-64 -156,-66 -221,-265 -223,-423 -1,-73 9,-147 35,-214 46,-118 153,-214 284,-214 162,0 232,121 232,271l0 616c0,25 37,46 82,46 45,0 81,-21 81,-46l0 -616c0,-134 50,-268 205,-271 90,-2 160,72 188,152 33,91 32,182 32,278 0,260 47,478 364,478l1385 0c25,0 81,-11 81,-45l0 -555c0,-256 -227,-399 -445,-399 -219,0 -431,129 -431,392l0 516 -316 0c104,-87 156,-229 159,-387 3,-219 -98,-424 -309,-508 -38,-15 -91,-20 -124,8 -24,21 -14,49 23,63 174,65 250,265 248,437 -2,160 -79,387 -271,387 -196,0 -201,-245 -201,-387 -1,-101 -1,-200 -35,-296 -54,-151 -193,-228 -348,-225 -124,3 -228,43 -290,116zm1626 276c0,-205 130,-301 267,-301 138,0 285,108 285,308l-1 509 -551 0 0 -516z"/>
 </g>
</svg>
