<?xml version="1.0" encoding="UTF-8"?>
<!DOCTYPE svg PUBLIC "-//W3C//DTD SVG 1.1//EN" "http://www.w3.org/Graphics/SVG/1.1/DTD/svg11.dtd">
<!-- Creator: CorelDRAW X8 -->
<svg xmlns="http://www.w3.org/2000/svg" xml:space="preserve" width="1906px" height="2048px" version="1.1" style="shape-rendering:geometricPrecision; text-rendering:geometricPrecision; image-rendering:optimizeQuality; fill-rule:evenodd; clip-rule:evenodd"
viewBox="0 0 1906 2048"
 xmlns:xlink="http://www.w3.org/1999/xlink">
 <defs>
  <style type="text/css">
   <![CDATA[
    .fil0 {fill:#1F1B20;fill-rule:nonzero}
   ]]>
  </style>
 </defs>
 <g id="Layer_x0020_1">
  <metadata id="CorelCorpID_0Corel-Layer"/>
  <path class="fil0" d="M270 1979c35,16 40,44 12,64 -32,23 -84,21 -119,5 -104,-49 -163,-149 -163,-264 0,-196 177,-299 352,-299 175,1 350,103 350,299 0,64 -17,124 -52,172l344 0c-112,-97 -180,-237 -180,-392 0,-302 248,-528 546,-528 298,0 546,226 546,528 0,213 -128,401 -323,483 -38,16 -91,21 -125,-6 -26,-21 -17,-49 20,-64 166,-65 265,-238 265,-413 0,-211 -158,-437 -383,-437 -225,0 -383,226 -383,437 0,168 91,332 246,403 35,16 40,45 11,64 -16,11 -39,18 -63,17 -221,0 -443,0 -664,0 -45,0 -82,-21 -82,-46 0,-14 11,-25 23,-32 65,-38 91,-114 91,-186 0,-134 -93,-208 -187,-208 -94,0 -189,73 -189,208 0,77 33,162 107,195z"/>
 </g>
</svg>
