<?xml version="1.0" encoding="UTF-8"?>
<!DOCTYPE svg PUBLIC "-//W3C//DTD SVG 1.1//EN" "http://www.w3.org/Graphics/SVG/1.1/DTD/svg11.dtd">
<!-- Creator: CorelDRAW X8 -->
<svg xmlns="http://www.w3.org/2000/svg" xml:space="preserve" width="1905px" height="1012px" version="1.1" style="shape-rendering:geometricPrecision; text-rendering:geometricPrecision; image-rendering:optimizeQuality; fill-rule:evenodd; clip-rule:evenodd"
viewBox="0 0 1904 1012"
 xmlns:xlink="http://www.w3.org/1999/xlink">
 <defs>
  <style type="text/css">
   <![CDATA[
    .fil0 {fill:#E31E24;fill-rule:nonzero}
   ]]>
  </style>
 </defs>
 <g id="Layer_x0020_1">
  <metadata id="CorelCorpID_0Corel-Layer"/>
  <path class="fil0" d="M1501 933c-34,16 -37,44 -7,63 35,22 85,19 121,1 180,-91 291,-274 289,-473 -3,-299 -246,-524 -546,-524 -297,0 -539,216 -545,510 -4,156 61,299 174,398l-338 0c35,-49 52,-108 52,-172 0,-196 -174,-298 -349,-299 -176,0 -352,102 -352,299 0,115 59,214 163,264 35,16 86,17 119,-5 28,-20 22,-49 -13,-64 -73,-34 -106,-118 -106,-195 0,-135 95,-208 189,-208 94,0 186,73 186,208 0,71 -25,148 -90,186 -12,6 -23,17 -23,32 0,25 36,45 81,45l658 0c21,0 41,-4 59,-15 29,-19 26,-47 -8,-63 -165,-81 -242,-248 -239,-416 4,-214 139,-415 382,-415 248,1 382,213 383,430 0,165 -77,333 -240,413z"/>
 </g>
</svg>
