<?xml version="1.0" encoding="UTF-8"?>
<!DOCTYPE svg PUBLIC "-//W3C//DTD SVG 1.1//EN" "http://www.w3.org/Graphics/SVG/1.1/DTD/svg11.dtd">
<!-- Creator: CorelDRAW X8 -->
<svg xmlns="http://www.w3.org/2000/svg" xml:space="preserve" width="2289px" height="1486px" version="1.1" style="shape-rendering:geometricPrecision; text-rendering:geometricPrecision; image-rendering:optimizeQuality; fill-rule:evenodd; clip-rule:evenodd"
viewBox="0 0 2289 1486"
 xmlns:xlink="http://www.w3.org/1999/xlink">
 <defs>
  <style type="text/css">
   <![CDATA[
    .fil0 {fill:#669933;fill-rule:nonzero}
   ]]>
  </style>
 </defs>
 <g id="Layer_x0020_1">
  <metadata id="CorelCorpID_0Corel-Layer"/>
  <path class="fil0" d="M1716 0c-298,0 -539,211 -546,506 -3,155 62,303 175,402l-338 0c35,-48 52,-108 52,-172 0,-196 -174,-298 -350,-299 -175,0 -351,103 -351,299 0,115 58,215 163,264 35,16 86,18 118,-5 29,-20 23,-48 -12,-64 -74,-33 -106,-118 -106,-195 0,-135 94,-208 188,-208 94,1 187,74 187,208 0,72 -26,148 -91,186 -11,7 -22,18 -22,32 0,25 36,46 81,46l658 0c20,0 41,-5 59,-16 29,-18 26,-47 -8,-63 -166,-81 -242,-247 -239,-415 4,-215 138,-416 382,-416 295,1 416,269 408,524 -3,116 -36,224 -89,321 -91,163 -244,292 -421,364 -155,64 -314,95 -495,96 -230,1 -458,-49 -634,-162 -193,-123 -322,-320 -323,-605 0,-218 85,-437 268,-551 30,-19 29,-47 -4,-64 -32,-18 -84,-17 -115,1 -217,135 -315,374 -311,614 6,328 170,551 405,687 205,119 463,172 716,171 206,-1 401,-38 590,-117 194,-80 365,-214 469,-387 69,-114 105,-243 109,-368 9,-317 -188,-614 -573,-614z"/>
 </g>
</svg>
