<?xml version="1.0" encoding="UTF-8"?>
<!DOCTYPE svg PUBLIC "-//W3C//DTD SVG 1.1//EN" "http://www.w3.org/Graphics/SVG/1.1/DTD/svg11.dtd">
<!-- Creator: CorelDRAW X8 -->
<svg xmlns="http://www.w3.org/2000/svg" xml:space="preserve" width="751px" height="2048px" version="1.1" style="shape-rendering:geometricPrecision; text-rendering:geometricPrecision; image-rendering:optimizeQuality; fill-rule:evenodd; clip-rule:evenodd"
viewBox="0 0 751 2048"
 xmlns:xlink="http://www.w3.org/1999/xlink">
 <defs>
  <style type="text/css">
   <![CDATA[
    .fil0 {fill:#009846;fill-rule:nonzero}
   ]]>
  </style>
 </defs>
 <g id="Layer_x0020_1">
  <metadata id="CorelCorpID_0Corel-Layer"/>
  <path class="fil0" d="M141 1354c-2,19 -35,34 -73,33 -39,-1 -69,-17 -67,-37 9,-91 47,-163 100,-215 67,-66 162,-101 258,-99 134,2 234,61 299,156 61,90 93,216 93,356 0,12 0,-9 0,11 -2,132 -31,252 -87,340 -63,99 -164,161 -304,161 -6,0 4,0 -5,0 -94,-1 -186,-37 -252,-102 -52,-51 -91,-124 -103,-212 -2,-19 27,-36 65,-37 39,-1 72,14 74,33 11,78 44,140 89,185 42,40 89,63 130,63 7,0 -6,0 2,0 69,0 127,-43 171,-112 52,-81 79,-194 81,-320 0,-12 -1,9 -1,-10 0,-133 -29,-251 -86,-334 -45,-66 -103,-107 -171,-108 -41,-1 -88,20 -129,61 -44,43 -76,106 -84,187z"/>
 </g>
</svg>
