<?xml version="1.0" encoding="UTF-8"?>
<!DOCTYPE svg PUBLIC "-//W3C//DTD SVG 1.1//EN" "http://www.w3.org/Graphics/SVG/1.1/DTD/svg11.dtd">
<!-- Creator: CorelDRAW X8 -->
<svg xmlns="http://www.w3.org/2000/svg" xml:space="preserve" width="750px" height="1024px" version="1.1" style="shape-rendering:geometricPrecision; text-rendering:geometricPrecision; image-rendering:optimizeQuality; fill-rule:evenodd; clip-rule:evenodd"
viewBox="0 0 750 1024"
 xmlns:xlink="http://www.w3.org/1999/xlink">
 <defs>
  <style type="text/css">
   <![CDATA[
    .fil0 {fill:#009846;fill-rule:nonzero}
   ]]>
  </style>
 </defs>
 <g id="Layer_x0020_1">
  <metadata id="CorelCorpID_0Corel-Layer"/>
  <path class="fil0" d="M163 304c-1,25 -38,45 -83,44 -45,-1 -80,-21 -79,-46 4,-86 39,-155 90,-204 70,-67 162,-99 255,-98 119,1 239,56 310,159 61,90 94,215 94,353 0,107 -21,245 -87,347 -70,108 -196,164 -317,165 -94,0 -182,-33 -252,-100 -52,-50 -88,-118 -94,-201 -2,-25 33,-46 78,-47 45,-1 83,18 84,43 5,68 33,121 73,159 38,37 72,54 111,54 59,1 121,-37 164,-103 61,-96 77,-220 77,-317 0,-128 -29,-241 -83,-320 -42,-62 -96,-99 -158,-100 -36,-1 -78,17 -114,51 -39,37 -66,91 -69,161z"/>
 </g>
</svg>
