<?xml version="1.0" encoding="UTF-8"?>
<!DOCTYPE svg PUBLIC "-//W3C//DTD SVG 1.1//EN" "http://www.w3.org/Graphics/SVG/1.1/DTD/svg11.dtd">
<!-- Creator: CorelDRAW X8 -->
<svg xmlns="http://www.w3.org/2000/svg" xml:space="preserve" width="566px" height="2048px" version="1.1" style="shape-rendering:geometricPrecision; text-rendering:geometricPrecision; image-rendering:optimizeQuality; fill-rule:evenodd; clip-rule:evenodd"
viewBox="0 0 566 2048"
 xmlns:xlink="http://www.w3.org/1999/xlink">
 <defs>
  <style type="text/css">
   <![CDATA[
    .fil0 {fill:#009846;fill-rule:nonzero}
   ]]>
  </style>
 </defs>
 <g id="Layer_x0020_1">
  <metadata id="CorelCorpID_0Corel-Layer"/>
  <path class="fil0" d="M141 906c0,19 -31,35 -70,35 -39,0 -70,-16 -70,-35 0,-64 27,-123 70,-166 50,-50 125,-81 212,-81 87,0 162,31 212,81 43,43 70,102 70,166l0 1119c0,19 -31,35 -70,35 -39,0 -70,-16 -70,-35l0 -1119c0,-53 -21,-101 -55,-135 -26,-26 -57,-42 -87,-42 -30,0 -61,16 -87,42 -34,34 -55,82 -55,135z"/>
 </g>
</svg>
