<?xml version="1.0" encoding="UTF-8"?>
<!DOCTYPE svg PUBLIC "-//W3C//DTD SVG 1.1//EN" "http://www.w3.org/Graphics/SVG/1.1/DTD/svg11.dtd">
<!-- Creator: CorelDRAW X8 -->
<svg xmlns="http://www.w3.org/2000/svg" xml:space="preserve" width="621px" height="1407px" version="1.1" style="shape-rendering:geometricPrecision; text-rendering:geometricPrecision; image-rendering:optimizeQuality; fill-rule:evenodd; clip-rule:evenodd"
viewBox="0 0 621 1408"
 xmlns:xlink="http://www.w3.org/1999/xlink">
 <defs>
  <style type="text/css">
   <![CDATA[
    .fil0 {fill:#1F1B20;fill-rule:nonzero}
   ]]>
  </style>
 </defs>
 <g id="Layer_x0020_1">
  <metadata id="CorelCorpID_0Corel-Layer"/>
  <path class="fil0" d="M254 0c49,0 102,2 149,15 52,14 98,38 134,69 51,46 82,107 82,173l2 1105c0,25 -37,46 -82,46 -45,0 -81,-21 -81,-46l-2 -1105c0,-104 -84,-169 -182,-175 34,19 57,49 57,95 0,85 -82,125 -159,125 -84,0 -172,-38 -172,-134 0,-131 149,-168 254,-168zm-24 169c0,-50 -29,-75 -61,-76 -33,-1 -63,25 -63,76 0,50 29,75 61,75 33,0 63,-25 63,-75z"/>
 </g>
</svg>
