<?xml version="1.0" encoding="UTF-8"?>
<!DOCTYPE svg PUBLIC "-//W3C//DTD SVG 1.1//EN" "http://www.w3.org/Graphics/SVG/1.1/DTD/svg11.dtd">
<!-- Creator: CorelDRAW X8 -->
<svg xmlns="http://www.w3.org/2000/svg" xml:space="preserve" width="619px" height="1405px" version="1.1" style="shape-rendering:geometricPrecision; text-rendering:geometricPrecision; image-rendering:optimizeQuality; fill-rule:evenodd; clip-rule:evenodd"
viewBox="0 0 619 1405"
 xmlns:xlink="http://www.w3.org/1999/xlink">
 <defs>
  <style type="text/css">
   <![CDATA[
    .fil0 {fill:#1F1B20}
   ]]>
  </style>
 </defs>
 <g id="Layer_x0020_1">
  <metadata id="CorelCorpID_0Corel-Layer"/>
  <path class="fil0" d="M277 188c0,64 -39,96 -78,96 -39,0 -78,-32 -78,-96 0,-64 39,-97 78,-97 39,0 78,33 78,97zm125 -174c48,11 92,33 133,69 51,45 82,106 82,173l2 1103c0,26 -36,46 -81,46 -45,0 -82,-20 -82,-46l-2 -1103c0,-77 -45,-132 -107,-159 28,26 46,61 46,105 0,104 -98,155 -196,156 -56,0 -112,-17 -149,-51 -32,-28 -47,-70 -48,-112 -1,-62 22,-105 58,-135 53,-45 137,-60 214,-60 48,0 93,5 130,14z"/>
 </g>
</svg>
