<?xml version="1.0" encoding="UTF-8"?>
<!DOCTYPE svg PUBLIC "-//W3C//DTD SVG 1.1//EN" "http://www.w3.org/Graphics/SVG/1.1/DTD/svg11.dtd">
<!-- Creator: CorelDRAW X8 -->
<svg xmlns="http://www.w3.org/2000/svg" xml:space="preserve" width="603px" height="1405px" version="1.1" style="shape-rendering:geometricPrecision; text-rendering:geometricPrecision; image-rendering:optimizeQuality; fill-rule:evenodd; clip-rule:evenodd"
viewBox="0 0 603 1406"
 xmlns:xlink="http://www.w3.org/1999/xlink">
 <defs>
  <style type="text/css">
   <![CDATA[
    .fil0 {fill:#E31E24}
   ]]>
  </style>
 </defs>
 <g id="Layer_x0020_1">
  <metadata id="CorelCorpID_0Corel-Layer"/>
  <path class="fil0" d="M195 251c49,0 73,-44 73,-84 0,-39 -24,-83 -73,-83 -48,0 -73,44 -73,83 -1,41 23,84 73,84zm-98 -219c42,-21 102,-31 164,-32 77,-1 157,12 209,37 77,37 131,107 131,219l2 1104c0,26 -37,46 -82,46 -45,0 -81,-20 -81,-46l-2 -1104c0,-77 -8,-153 -107,-170 35,17 51,53 53,90 1,43 -13,74 -37,98 -36,36 -94,50 -151,50 -52,0 -105,-13 -143,-41 -35,-28 -52,-72 -53,-109 -2,-57 35,-111 97,-142z"/>
 </g>
</svg>
