<?xml version="1.0" encoding="UTF-8"?>
<!DOCTYPE svg PUBLIC "-//W3C//DTD SVG 1.1//EN" "http://www.w3.org/Graphics/SVG/1.1/DTD/svg11.dtd">
<!-- Creator: CorelDRAW X8 -->
<svg xmlns="http://www.w3.org/2000/svg" xml:space="preserve" width="1118px" height="1423px" version="1.1" style="shape-rendering:geometricPrecision; text-rendering:geometricPrecision; image-rendering:optimizeQuality; fill-rule:evenodd; clip-rule:evenodd"
viewBox="0 0 1118 1423"
 xmlns:xlink="http://www.w3.org/1999/xlink">
 <defs>
  <style type="text/css">
   <![CDATA[
    .fil1 {fill:#57A7B3}
    .fil0 {fill:#57A7B3;fill-rule:nonzero}
   ]]>
  </style>
 </defs>
 <g id="Layer_x0020_1">
  <metadata id="CorelCorpID_0Corel-Layer"/>
  <path class="fil0" d="M188 931c41,-78 84,-194 109,-315 21,-107 30,-218 14,-312 -16,-96 -62,-195 -166,-216 -42,-9 -64,-35 -49,-59 23,-35 84,-32 120,-23 149,35 231,138 257,289 17,102 8,220 -15,331 -23,116 -64,230 -104,311 92,31 166,109 166,235 0,167 -130,251 -260,251 -130,0 -260,-83 -260,-251 0,-135 86,-216 188,-241zm188 241c0,-110 -58,-165 -116,-165 -58,0 -117,55 -117,165 0,111 59,166 117,166 58,0 116,-56 116,-166z"/>
  <path class="fil1" d="M1118 1172c0,-167 -130,-250 -260,-250 -130,0 -260,83 -260,250 0,168 130,251 260,251 130,0 260,-84 260,-251zm-143 0c0,-110 -59,-165 -117,-165 -58,0 -116,55 -116,165 0,111 58,166 116,166 58,0 117,-56 117,-166z"/>
 </g>
</svg>
