<?xml version="1.0" encoding="UTF-8"?>
<!DOCTYPE svg PUBLIC "-//W3C//DTD SVG 1.1//EN" "http://www.w3.org/Graphics/SVG/1.1/DTD/svg11.dtd">
<!-- Creator: CorelDRAW X8 -->
<svg xmlns="http://www.w3.org/2000/svg" xml:space="preserve" width="690px" height="666px" version="1.1" style="shape-rendering:geometricPrecision; text-rendering:geometricPrecision; image-rendering:optimizeQuality; fill-rule:evenodd; clip-rule:evenodd"
viewBox="0 0 690 666"
 xmlns:xlink="http://www.w3.org/1999/xlink">
 <defs>
  <style type="text/css">
   <![CDATA[
    .fil0 {fill:black}
   ]]>
  </style>
 </defs>
 <g id="Layer_x0020_1">
  <metadata id="CorelCorpID_0Corel-Layer"/>
  <path class="fil0" d="M520 256c0,163 -130,241 -260,241 -130,0 -260,-78 -260,-241 0,-101 49,-172 118,-212 56,-33 133,-43 198,-44 104,-1 209,19 286,95 57,56 90,136 88,230 -4,215 -189,341 -398,341 -73,0 -148,-13 -213,-45 -29,-14 -31,-38 -5,-54 26,-15 70,-17 98,-3 38,19 78,26 120,26 156,0 259,-116 266,-265 3,-75 -20,-155 -75,-208 23,36 37,85 37,139zm-143 -2c0,-108 -59,-165 -117,-165 -58,0 -116,57 -116,165 0,108 58,164 116,164 58,-1 117,-56 117,-164z"/>
 </g>
</svg>
