<?xml version="1.0" encoding="UTF-8"?>
<!DOCTYPE svg PUBLIC "-//W3C//DTD SVG 1.1//EN" "http://www.w3.org/Graphics/SVG/1.1/DTD/svg11.dtd">
<!-- Creator: CorelDRAW X8 -->
<svg xmlns="http://www.w3.org/2000/svg" xml:space="preserve" width="1440px" height="1596px" version="1.1" style="shape-rendering:geometricPrecision; text-rendering:geometricPrecision; image-rendering:optimizeQuality; fill-rule:evenodd; clip-rule:evenodd"
viewBox="0 0 1440 1596"
 xmlns:xlink="http://www.w3.org/1999/xlink">
 <defs>
  <style type="text/css">
   <![CDATA[
    .fil0 {fill:#57A7B3}
   ]]>
  </style>
 </defs>
 <g id="Layer_x0020_1">
  <metadata id="CorelCorpID_0Corel-Layer"/>
  <path class="fil0" d="M520 1186c0,163 -130,241 -260,241 -130,0 -260,-77 -260,-241 0,-101 49,-172 118,-212 56,-33 133,-43 198,-44 105,-1 209,19 286,95 57,57 90,136 88,230 -4,215 -189,341 -398,341 -73,0 -148,-13 -213,-45 -29,-14 -31,-38 -5,-54 26,-15 70,-16 98,-2 38,18 78,25 120,25 156,0 259,-116 266,-265 3,-75 -20,-155 -75,-208 23,36 37,85 37,139zm-143 0c0,108 -59,162 -117,162 -58,0 -116,-54 -116,-162 0,-108 58,-162 116,-162 58,0 117,54 117,162z"/>
  <path class="fil0" d="M1270 1182c0,163 -130,245 -260,245 -170,0 -257,-122 -262,-245 -3,-88 35,-173 115,-227 25,-17 55,-29 87,-36 39,-78 78,-187 102,-303 22,-106 31,-217 15,-312 -15,-88 -51,-161 -115,-198 -16,-8 -33,-15 -51,-18 -43,-9 -64,-35 -49,-59 23,-35 84,-32 120,-23 149,36 231,139 256,290 18,101 9,219 -14,330 -21,105 -55,205 -90,283 177,20 320,142 316,346 -4,215 -190,341 -398,341 -73,0 -148,-13 -213,-45 -29,-14 -31,-38 -6,-54 26,-15 71,-16 99,-2 38,18 78,25 120,25 156,0 259,-116 266,-265 3,-75 -20,-155 -75,-208 23,36 37,81 37,135zm-143 0c0,110 -59,166 -117,166 -58,0 -117,-56 -117,-166 0,-110 59,-170 117,-170 58,0 117,60 117,170z"/>
 </g>
</svg>
