<?xml version="1.0" encoding="UTF-8"?>
<!DOCTYPE svg PUBLIC "-//W3C//DTD SVG 1.1//EN" "http://www.w3.org/Graphics/SVG/1.1/DTD/svg11.dtd">
<!-- Creator: CorelDRAW X8 -->
<svg xmlns="http://www.w3.org/2000/svg" xml:space="preserve" width="1163px" height="1024px" version="1.1" style="shape-rendering:geometricPrecision; text-rendering:geometricPrecision; image-rendering:optimizeQuality; fill-rule:evenodd; clip-rule:evenodd"
viewBox="0 0 1167 1028"
 xmlns:xlink="http://www.w3.org/1999/xlink">
 <defs>
  <style type="text/css">
   <![CDATA[
    .fil0 {fill:#E31E24;fill-rule:nonzero}
   ]]>
  </style>
 </defs>
 <g id="Layer_x0020_1">
  <metadata id="CorelCorpID_0Corel-Layer"/>
  <path class="fil0" d="M695 714c-2,89 -36,178 -106,235 -59,50 -138,78 -225,78 -118,0 -206,-46 -267,-119 -67,-82 -97,-202 -97,-326 0,-164 48,-301 134,-400 100,-116 252,-182 445,-182 119,0 236,29 335,87 162,96 249,272 253,453 3,189 -83,373 -251,469 -38,21 -87,27 -126,4 -31,-18 -30,-47 3,-64 149,-80 216,-255 210,-417 -6,-152 -74,-303 -207,-382 -66,-39 -141,-58 -215,-59 -122,0 -241,52 -317,148 -55,70 -89,158 -102,249 52,-61 125,-93 205,-96 98,-4 189,34 249,98 54,57 82,135 79,224zm-506 -2c0,148 93,223 183,224 85,0 167,-74 167,-224 1,-149 -87,-223 -174,-223 -88,0 -175,74 -176,223z"/>
 </g>
</svg>
