<?xml version="1.0" encoding="UTF-8"?>
<!DOCTYPE svg PUBLIC "-//W3C//DTD SVG 1.1//EN" "http://www.w3.org/Graphics/SVG/1.1/DTD/svg11.dtd">
<!-- Creator: CorelDRAW X8 -->
<svg xmlns="http://www.w3.org/2000/svg" xml:space="preserve" width="1163px" height="1024px" version="1.1" style="shape-rendering:geometricPrecision; text-rendering:geometricPrecision; image-rendering:optimizeQuality; fill-rule:evenodd; clip-rule:evenodd"
viewBox="0 0 1167 1028"
 xmlns:xlink="http://www.w3.org/1999/xlink">
 <defs>
  <style type="text/css">
   <![CDATA[
    .fil0 {fill:#57A7B3;fill-rule:nonzero}
   ]]>
  </style>
 </defs>
 <g id="Layer_x0020_1">
  <metadata id="CorelCorpID_0Corel-Layer"/>
  <path class="fil0" d="M695 712c-2,90 -36,180 -106,237 -58,49 -139,77 -224,78 -107,1 -199,-36 -268,-119 -67,-82 -97,-205 -97,-330 1,-401 291,-580 581,-578 292,2 584,181 586,532 0,189 -83,381 -251,477 -38,21 -87,27 -126,4 -31,-18 -30,-47 3,-64 149,-80 216,-255 210,-417 -11,-296 -217,-439 -422,-440 -201,-1 -401,134 -419,396 52,-61 123,-93 203,-96 98,-4 191,34 251,98 54,57 82,133 79,222zm-506 0c0,148 86,223 176,224 84,0 174,-74 174,-224 1,-149 -87,-223 -174,-223 -88,0 -175,74 -176,223z"/>
 </g>
</svg>
