<?xml version="1.0" encoding="UTF-8"?>
<!DOCTYPE svg PUBLIC "-//W3C//DTD SVG 1.1//EN" "http://www.w3.org/Graphics/SVG/1.1/DTD/svg11.dtd">
<!-- Creator: CorelDRAW X8 -->
<svg xmlns="http://www.w3.org/2000/svg" xml:space="preserve" width="1169px" height="2048px" version="1.1" style="shape-rendering:geometricPrecision; text-rendering:geometricPrecision; image-rendering:optimizeQuality; fill-rule:evenodd; clip-rule:evenodd"
viewBox="0 0 1169 2048"
 xmlns:xlink="http://www.w3.org/1999/xlink">
 <defs>
  <style type="text/css">
   <![CDATA[
    .fil0 {fill:black;fill-rule:nonzero}
   ]]>
  </style>
 </defs>
 <g id="Layer_x0020_1">
  <metadata id="CorelCorpID_0Corel-Layer"/>
  <path class="fil0" d="M698 1747c-3,89 -37,178 -106,235 -59,50 -138,78 -224,78 -118,0 -206,-46 -266,-119 -64,-77 -92,-184 -96,-298 -6,-149 33,-304 113,-405 109,-139 290,-202 463,-202 118,0 236,29 334,87 162,96 248,270 252,451 3,189 -82,372 -250,468 -38,21 -87,26 -125,4 -31,-18 -30,-47 2,-64 148,-80 215,-255 209,-416 -5,-151 -73,-302 -206,-381 -65,-38 -140,-58 -214,-58 -122,0 -240,51 -316,147 -55,70 -88,158 -101,248 52,-60 124,-93 203,-95 98,-4 189,33 249,97 54,57 81,135 79,223zm-504 -1c-1,147 92,222 182,223 84,0 166,-74 166,-223 1,-149 -86,-223 -174,-223 -87,0 -174,75 -174,223z"/>
 </g>
</svg>
