<?xml version="1.0" encoding="UTF-8"?>
<!DOCTYPE svg PUBLIC "-//W3C//DTD SVG 1.1//EN" "http://www.w3.org/Graphics/SVG/1.1/DTD/svg11.dtd">
<!-- Creator: CorelDRAW X8 -->
<svg xmlns="http://www.w3.org/2000/svg" xml:space="preserve" width="1169px" height="2048px" version="1.1" style="shape-rendering:geometricPrecision; text-rendering:geometricPrecision; image-rendering:optimizeQuality; fill-rule:evenodd; clip-rule:evenodd"
viewBox="0 0 1169 2048"
 xmlns:xlink="http://www.w3.org/1999/xlink">
 <defs>
  <style type="text/css">
   <![CDATA[
    .fil0 {fill:#393185;fill-rule:nonzero}
   ]]>
  </style>
 </defs>
 <g id="Layer_x0020_1">
  <metadata id="CorelCorpID_0Corel-Layer"/>
  <path class="fil0" d="M698 1759c-3,89 -37,178 -106,235 -59,50 -138,78 -224,78 -118,0 -206,-46 -266,-119 -67,-81 -97,-202 -97,-325 1,-401 290,-582 579,-580 291,2 582,188 584,538 0,189 -82,372 -250,468 -38,21 -87,26 -125,4 -31,-18 -30,-47 2,-64 148,-80 215,-255 209,-416 -10,-295 -216,-438 -420,-439 -200,-1 -400,135 -417,395 52,-60 124,-93 203,-95 98,-4 189,33 249,97 54,57 81,135 79,223zm-504 -1c-1,147 92,222 182,223 84,0 166,-74 166,-223 1,-149 -86,-223 -174,-223 -87,0 -174,75 -174,223z"/>
 </g>
</svg>
