<?xml version="1.0" encoding="UTF-8"?>
<!DOCTYPE svg PUBLIC "-//W3C//DTD SVG 1.1//EN" "http://www.w3.org/Graphics/SVG/1.1/DTD/svg11.dtd">
<!-- Creator: CorelDRAW X8 -->
<svg xmlns="http://www.w3.org/2000/svg" xml:space="preserve" width="841px" height="1024px" version="1.1" style="shape-rendering:geometricPrecision; text-rendering:geometricPrecision; image-rendering:optimizeQuality; fill-rule:evenodd; clip-rule:evenodd"
viewBox="0 0 841 1024"
 xmlns:xlink="http://www.w3.org/1999/xlink">
 <defs>
  <style type="text/css">
   <![CDATA[
    .fil0 {fill:#57A7B3;fill-rule:nonzero}
   ]]>
  </style>
 </defs>
 <g id="Layer_x0020_1">
  <metadata id="CorelCorpID_0Corel-Layer"/>
  <path class="fil0" d="M471 1023c-310,-16 -468,-221 -471,-520 -2,-203 73,-368 274,-461 56,-26 143,-41 229,-42 67,-1 144,5 207,33 82,38 133,115 131,205 -3,138 -122,210 -247,210 -162,0 -239,-106 -237,-213 0,-47 16,-93 44,-130 -172,51 -239,231 -239,395 1,181 68,366 240,418 -32,-41 -47,-93 -45,-144 5,-131 113,-200 237,-200 164,0 247,106 247,213 0,90 -52,157 -122,195 -73,39 -166,45 -248,41zm29 -789c0,80 53,122 96,122 62,0 93,-69 94,-122 0,-80 -48,-123 -96,-123 -47,0 -94,41 -94,123zm0 554c0,79 50,122 93,122 61,1 96,-66 97,-120 1,-83 -47,-125 -95,-125 -48,1 -95,43 -95,123z"/>
 </g>
</svg>
