<?xml version="1.0" encoding="UTF-8"?>
<!DOCTYPE svg PUBLIC "-//W3C//DTD SVG 1.1//EN" "http://www.w3.org/Graphics/SVG/1.1/DTD/svg11.dtd">
<!-- Creator: CorelDRAW X8 -->
<svg xmlns="http://www.w3.org/2000/svg" xml:space="preserve" width="841px" height="1024px" version="1.1" style="shape-rendering:geometricPrecision; text-rendering:geometricPrecision; image-rendering:optimizeQuality; fill-rule:evenodd; clip-rule:evenodd"
viewBox="0 0 841 1024"
 xmlns:xlink="http://www.w3.org/1999/xlink">
 <defs>
  <style type="text/css">
   <![CDATA[
    .fil0 {fill:black;fill-rule:nonzero}
   ]]>
  </style>
 </defs>
 <g id="Layer_x0020_1">
  <metadata id="CorelCorpID_0Corel-Layer"/>
  <path class="fil0" d="M471 1023c-310,-16 -468,-224 -471,-523 -2,-203 73,-365 274,-458 56,-26 143,-41 229,-42 67,-1 144,5 207,33 82,38 133,115 131,205 -3,138 -122,210 -246,210 -162,0 -240,-106 -238,-213 0,-47 16,-93 44,-130 -172,51 -239,231 -239,395 1,181 68,366 240,418 -29,-38 -44,-84 -45,-130 -3,-138 109,-214 238,-214 164,0 246,106 246,213 0,90 -52,157 -122,195 -73,39 -166,45 -248,41zm29 -789c0,80 51,122 95,122 62,0 94,-69 95,-122 0,-80 -47,-123 -95,-123 -47,0 -95,41 -95,123zm0 556c0,80 52,120 95,120 61,1 94,-66 95,-120 1,-83 -47,-125 -95,-125 -48,1 -95,45 -95,125z"/>
 </g>
</svg>
