<?xml version="1.0" encoding="UTF-8"?>
<!DOCTYPE svg PUBLIC "-//W3C//DTD SVG 1.1//EN" "http://www.w3.org/Graphics/SVG/1.1/DTD/svg11.dtd">
<!-- Creator: CorelDRAW X8 -->
<svg xmlns="http://www.w3.org/2000/svg" xml:space="preserve" width="1148px" height="2048px" version="1.1" style="shape-rendering:geometricPrecision; text-rendering:geometricPrecision; image-rendering:optimizeQuality; fill-rule:evenodd; clip-rule:evenodd"
viewBox="0 0 1148 2048"
 xmlns:xlink="http://www.w3.org/1999/xlink">
 <defs>
  <style type="text/css">
   <![CDATA[
    .fil0 {fill:#E31E24;fill-rule:nonzero}
   ]]>
  </style>
 </defs>
 <g id="Layer_x0020_1">
  <metadata id="CorelCorpID_0Corel-Layer"/>
  <path class="fil0" d="M185 2495c-96,-23 -185,-70 -185,-157 1,-149 264,-191 370,-193 110,-3 382,29 386,184 1,36 -22,68 -54,86 98,-20 179,-57 227,-120 36,-46 56,-108 56,-187l0 -109c0,-25 36,-45 81,-45 45,0 82,20 82,45l0 110c0,124 -40,211 -104,271 -68,65 -193,104 -330,123 -73,11 -168,18 -262,18 -97,0 -194,-7 -267,-26zm186 -68c55,0 225,-12 223,-97 -2,-83 -160,-96 -217,-94 -55,1 -214,21 -214,102 -1,79 157,89 208,89z"/>
 </g>
</svg>
