<?xml version="1.0" encoding="UTF-8"?>
<!DOCTYPE svg PUBLIC "-//W3C//DTD SVG 1.1//EN" "http://www.w3.org/Graphics/SVG/1.1/DTD/svg11.dtd">
<!-- Creator: CorelDRAW X8 -->
<svg xmlns="http://www.w3.org/2000/svg" xml:space="preserve" width="690px" height="1516px" version="1.1" style="shape-rendering:geometricPrecision; text-rendering:geometricPrecision; image-rendering:optimizeQuality; fill-rule:evenodd; clip-rule:evenodd"
viewBox="0 0 690 1517"
 xmlns:xlink="http://www.w3.org/1999/xlink">
 <defs>
  <style type="text/css">
   <![CDATA[
    .fil0 {fill:#57A7B3;fill-rule:nonzero}
   ]]>
  </style>
 </defs>
 <g id="Layer_x0020_1">
  <metadata id="CorelCorpID_0Corel-Layer"/>
  <path class="fil0" d="M170 43c3,-25 41,-44 86,-43 45,1 79,23 77,48 -10,106 -15,238 -6,341 19,196 83,310 203,472 81,112 161,209 160,338 -1,216 -158,318 -354,318 -141,0 -329,-78 -336,-235 -2,-46 19,-92 51,-126 49,-50 109,-52 146,-36 32,14 46,42 17,64 -33,24 -54,57 -51,98 5,82 77,143 173,144 132,1 197,-102 191,-227 -6,-109 -75,-203 -148,-303 -126,-173 -194,-297 -214,-507 -10,-105 -5,-237 5,-346z"/>
 </g>
</svg>
