<?xml version="1.0" encoding="UTF-8"?>
<!DOCTYPE svg PUBLIC "-//W3C//DTD SVG 1.1//EN" "http://www.w3.org/Graphics/SVG/1.1/DTD/svg11.dtd">
<!-- Creator: CorelDRAW X8 -->
<svg xmlns="http://www.w3.org/2000/svg" xml:space="preserve" width="1148px" height="567px" version="1.1" style="shape-rendering:geometricPrecision; text-rendering:geometricPrecision; image-rendering:optimizeQuality; fill-rule:evenodd; clip-rule:evenodd"
viewBox="0 0 1148 567"
 xmlns:xlink="http://www.w3.org/1999/xlink">
 <defs>
  <style type="text/css">
   <![CDATA[
    .fil0 {fill:#57A7B3;fill-rule:nonzero}
   ]]>
  </style>
 </defs>
 <g id="Layer_x0020_1">
  <metadata id="CorelCorpID_0Corel-Layer"/>
  <path class="fil0" d="M185 542c-96,-24 -185,-74 -185,-163 1,-122 192,-184 381,-187 114,-1 371,23 372,173 1,36 -14,70 -51,97 98,-21 179,-57 227,-120 36,-47 56,-108 56,-188l0 -108c0,-26 36,-46 81,-46 45,0 82,20 82,46l0 110c0,124 -40,210 -103,271 -69,65 -194,103 -331,123 -73,10 -168,17 -262,17 -97,0 -194,-7 -267,-25zm196 -68c54,0 215,-10 213,-95 -2,-66 -107,-97 -213,-97 -109,1 -218,34 -219,97 0,81 168,95 219,95z"/>
 </g>
</svg>
