<?xml version="1.0" encoding="UTF-8"?>
<!DOCTYPE svg PUBLIC "-//W3C//DTD SVG 1.1//EN" "http://www.w3.org/Graphics/SVG/1.1/DTD/svg11.dtd">
<!-- Creator: CorelDRAW X8 -->
<svg xmlns="http://www.w3.org/2000/svg" xml:space="preserve" width="723px" height="2048px" version="1.1" style="shape-rendering:geometricPrecision; text-rendering:geometricPrecision; image-rendering:optimizeQuality; fill-rule:evenodd; clip-rule:evenodd"
viewBox="0 0 723 2048"
 xmlns:xlink="http://www.w3.org/1999/xlink">
 <defs>
  <style type="text/css">
   <![CDATA[
    .fil0 {fill:#009846;fill-rule:nonzero}
   ]]>
  </style>
 </defs>
 <g id="Layer_x0020_1">
  <metadata id="CorelCorpID_0Corel-Layer"/>
  <path class="fil0" d="M210 1091c3,-25 41,-44 86,-43 45,1 79,23 77,48 -10,106 -15,233 -6,336 19,196 83,314 202,477 82,112 159,217 161,346 3,200 -186,314 -377,314 -143,0 -342,-52 -361,-235 -13,-122 89,-225 213,-225 56,0 111,22 145,59 35,-37 76,-59 132,-59 17,0 33,2 48,6 -28,-58 -69,-114 -111,-171 -126,-173 -194,-297 -214,-508 -10,-105 -5,-236 5,-345zm370 1232c12,-83 -39,-129 -89,-128 -42,1 -80,30 -80,132 0,19 -27,34 -60,34 -32,0 -59,-15 -59,-34 0,-103 -43,-134 -86,-133 -54,2 -93,61 -83,132 10,73 76,151 230,150 103,0 208,-51 227,-153z"/>
 </g>
</svg>
