<?xml version="1.0" encoding="UTF-8"?>
<!DOCTYPE svg PUBLIC "-//W3C//DTD SVG 1.1//EN" "http://www.w3.org/Graphics/SVG/1.1/DTD/svg11.dtd">
<!-- Creator: CorelDRAW X8 -->
<svg xmlns="http://www.w3.org/2000/svg" xml:space="preserve" width="1248px" height="699px" version="1.1" style="shape-rendering:geometricPrecision; text-rendering:geometricPrecision; image-rendering:optimizeQuality; fill-rule:evenodd; clip-rule:evenodd"
viewBox="0 0 1248 699"
 xmlns:xlink="http://www.w3.org/1999/xlink">
 <defs>
  <style type="text/css">
   <![CDATA[
    .fil0 {fill:black}
   ]]>
  </style>
 </defs>
 <g id="Layer_x0020_1">
  <metadata id="CorelCorpID_0Corel-Layer"/>
  <path class="fil0" d="M473 607c53,0 158,-2 231,-35 45,-20 78,-52 76,-103 -2,-59 -68,-84 -119,-85 -66,0 -103,47 -103,113 0,36 -55,47 -82,47 -27,0 -80,-11 -80,-47 0,-74 -50,-111 -109,-112 -51,-1 -128,26 -127,86 1,55 42,87 96,107 72,26 167,29 217,29zm429 -55c156,-54 185,-196 185,-340l0 -164 161 -48 0 212c0,132 -39,231 -104,302 -62,67 -154,109 -249,137 -114,33 -274,50 -423,48 -82,-1 -162,-8 -227,-22 -103,-23 -261,-88 -244,-219 7,-47 45,-87 98,-116 57,-30 123,-45 188,-45 62,-1 135,12 189,47 46,-32 115,-47 185,-47 71,0 142,15 190,45 55,34 78,80 77,126 0,28 -10,57 -26,84z"/>
 </g>
</svg>
