<?xml version="1.0" encoding="UTF-8"?>
<!DOCTYPE svg PUBLIC "-//W3C//DTD SVG 1.1//EN" "http://www.w3.org/Graphics/SVG/1.1/DTD/svg11.dtd">
<!-- Creator: CorelDRAW X8 -->
<svg xmlns="http://www.w3.org/2000/svg" xml:space="preserve" width="739px" height="1521px" version="1.1" style="shape-rendering:geometricPrecision; text-rendering:geometricPrecision; image-rendering:optimizeQuality; fill-rule:evenodd; clip-rule:evenodd"
viewBox="0 0 739 1521"
 xmlns:xlink="http://www.w3.org/1999/xlink">
 <defs>
  <style type="text/css">
   <![CDATA[
    .fil0 {fill:black;fill-rule:nonzero}
   ]]>
  </style>
 </defs>
 <g id="Layer_x0020_1">
  <metadata id="CorelCorpID_0Corel-Layer"/>
  <path class="fil0" d="M220 43c2,-25 40,-44 85,-43 45,1 79,23 77,48 -10,106 -15,238 -6,340 19,197 84,310 203,473 81,112 158,217 160,346 3,200 -186,314 -376,314 -157,0 -363,-65 -363,-254 0,-113 98,-206 215,-206 56,0 110,22 145,58 38,-40 84,-59 140,-57 15,0 26,2 39,5 -28,-58 -68,-114 -111,-171 -126,-173 -194,-297 -214,-508 -10,-105 -5,-236 6,-345zm369 1232c14,-82 -39,-129 -89,-128 -41,0 -80,30 -80,132 0,19 -27,34 -59,34 -33,0 -60,-15 -60,-34 0,-103 -43,-134 -86,-133 -51,2 -89,55 -84,121 8,119 128,162 232,161 102,0 209,-50 226,-153z"/>
 </g>
</svg>
