<?xml version="1.0" encoding="UTF-8"?>
<!DOCTYPE svg PUBLIC "-//W3C//DTD SVG 1.1//EN" "http://www.w3.org/Graphics/SVG/1.1/DTD/svg11.dtd">
<!-- Creator: CorelDRAW X8 -->
<svg xmlns="http://www.w3.org/2000/svg" xml:space="preserve" width="2462px" height="699px" version="1.1" style="shape-rendering:geometricPrecision; text-rendering:geometricPrecision; image-rendering:optimizeQuality; fill-rule:evenodd; clip-rule:evenodd"
viewBox="0 0 2459 698"
 xmlns:xlink="http://www.w3.org/1999/xlink">
 <defs>
  <style type="text/css">
   <![CDATA[
    .fil0 {fill:#57A7B3}
   ]]>
  </style>
 </defs>
 <g id="Layer_x0020_1">
  <metadata id="CorelCorpID_0Corel-Layer"/>
  <path class="fil0" d="M418 326c82,0 151,8 209,22 140,32 210,98 210,164 0,13 -4,31 -10,44 168,-50 198,-196 198,-344l0 -164 161 -48 0 212c0,132 -39,232 -104,302 -61,67 -154,109 -249,137 -109,32 -269,50 -417,47 -83,-2 -163,-9 -226,-26 -127,-35 -190,-98 -190,-160 0,-64 67,-128 199,-162 60,-15 133,-24 219,-24zm0 91c69,0 125,7 166,20 61,18 92,46 92,75 1,42 -61,67 -94,76 -41,12 -96,20 -164,20 -83,0 -146,-11 -189,-28 -46,-19 -69,-44 -68,-68 0,-34 41,-57 69,-67 43,-17 106,-28 188,-28z"/>
  <path class="fil0" d="M1685 606c53,0 158,-2 230,-34 46,-21 78,-53 77,-103 -3,-59 -69,-85 -119,-85 -67,0 -104,47 -103,112 0,36 -55,47 -82,47 -27,0 -81,-11 -81,-47 1,-73 -49,-110 -108,-111 -51,-2 -127,25 -126,86 0,54 41,87 95,106 72,26 167,29 217,29zm428 -55c156,-53 185,-195 185,-339l0 -164 161 -48 0 212c0,131 -39,231 -104,301 -62,67 -154,109 -249,137 -113,33 -273,50 -422,48 -83,-1 -162,-7 -227,-22 -103,-23 -260,-88 -243,-218 6,-48 44,-88 97,-116 57,-31 123,-45 188,-46 62,0 135,13 188,48 47,-32 116,-48 186,-48 70,0 142,16 189,45 55,35 78,80 77,126 0,29 -9,57 -26,84z"/>
 </g>
</svg>
