<?xml version="1.0" encoding="UTF-8"?>
<!DOCTYPE svg PUBLIC "-//W3C//DTD SVG 1.1//EN" "http://www.w3.org/Graphics/SVG/1.1/DTD/svg11.dtd">
<!-- Creator: CorelDRAW X8 -->
<svg xmlns="http://www.w3.org/2000/svg" xml:space="preserve" width="1187px" height="573px" version="1.1" style="shape-rendering:geometricPrecision; text-rendering:geometricPrecision; image-rendering:optimizeQuality; fill-rule:evenodd; clip-rule:evenodd"
viewBox="0 0 1186 572"
 xmlns:xlink="http://www.w3.org/1999/xlink">
 <defs>
  <style type="text/css">
   <![CDATA[
    .fil0 {fill:#57A7B3}
   ]]>
  </style>
 </defs>
 <g id="Layer_x0020_1">
  <metadata id="CorelCorpID_0Corel-Layer"/>
  <path class="fil0" d="M419 199c81,0 150,8 208,21 140,33 210,99 210,164 0,14 -4,32 -10,45 183,-54 197,-223 197,-384 0,-25 37,-45 81,-45 45,0 81,20 81,45l0 40c0,132 -39,231 -103,302 -62,67 -154,109 -250,137 -108,32 -269,51 -416,48 -84,-2 -163,-10 -227,-27 -127,-35 -190,-98 -190,-161 0,-64 67,-127 199,-161 60,-15 133,-24 220,-24zm0 90c69,0 124,8 165,20 62,18 92,47 93,75 0,43 -62,67 -95,77 -41,12 -95,20 -163,20 -84,0 -147,-11 -190,-28 -46,-19 -69,-44 -68,-69 0,-33 41,-56 69,-67 43,-16 106,-28 189,-28z"/>
 </g>
</svg>
