<?xml version="1.0" encoding="UTF-8"?>
<!DOCTYPE svg PUBLIC "-//W3C//DTD SVG 1.1//EN" "http://www.w3.org/Graphics/SVG/1.1/DTD/svg11.dtd">
<!-- Creator: CorelDRAW X8 -->
<svg xmlns="http://www.w3.org/2000/svg" xml:space="preserve" width="690px" height="1486px" version="1.1" style="shape-rendering:geometricPrecision; text-rendering:geometricPrecision; image-rendering:optimizeQuality; fill-rule:evenodd; clip-rule:evenodd"
viewBox="0 0 690 1487"
 xmlns:xlink="http://www.w3.org/1999/xlink">
 <defs>
  <style type="text/css">
   <![CDATA[
    .fil0 {fill:black;fill-rule:nonzero}
   ]]>
  </style>
 </defs>
 <g id="Layer_x0020_1">
  <metadata id="CorelCorpID_0Corel-Layer"/>
  <path class="fil0" d="M244 43c3,-25 41,-44 86,-43 45,1 79,23 77,48 -16,164 -28,325 0,478 18,105 53,205 122,300 82,112 162,212 161,341 -1,216 -158,320 -354,320 -141,0 -329,-78 -336,-235 -2,-46 19,-92 51,-126 49,-50 109,-52 146,-36 32,14 46,42 17,64 -33,24 -54,57 -51,98 5,82 77,143 173,144 132,1 197,-104 191,-229 -6,-109 -75,-206 -148,-306 -75,-103 -113,-210 -133,-321 -29,-159 -18,-325 -2,-497z"/>
 </g>
</svg>
