<?xml version="1.0" encoding="UTF-8"?>
<!DOCTYPE svg PUBLIC "-//W3C//DTD SVG 1.1//EN" "http://www.w3.org/Graphics/SVG/1.1/DTD/svg11.dtd">
<!-- Creator: CorelDRAW X8 -->
<svg xmlns="http://www.w3.org/2000/svg" xml:space="preserve" width="840px" height="626px" version="1.1" style="shape-rendering:geometricPrecision; text-rendering:geometricPrecision; image-rendering:optimizeQuality; fill-rule:evenodd; clip-rule:evenodd"
viewBox="0 0 840 626"
 xmlns:xlink="http://www.w3.org/1999/xlink">
 <defs>
  <style type="text/css">
   <![CDATA[
    .fil0 {fill:black;fill-rule:nonzero}
   ]]>
  </style>
 </defs>
 <g id="Layer_x0020_1">
  <metadata id="CorelCorpID_0Corel-Layer"/>
  <path class="fil0" d="M678 49l162 -49c0,194 0,387 0,580 0,25 -37,46 -82,46l-676 0c-45,0 -82,-21 -82,-46 0,-15 13,-27 33,-37 66,-30 149,-77 216,-137 68,-61 120,-136 120,-226 0,-1 0,-1 0,-1l163 0c0,0 0,0 0,1 -1,110 -63,201 -145,274 -33,30 -70,57 -107,80l398 0c0,-161 0,-323 0,-485z"/>
 </g>
</svg>
