<?xml version="1.0" encoding="UTF-8"?>
<!DOCTYPE svg PUBLIC "-//W3C//DTD SVG 1.1//EN" "http://www.w3.org/Graphics/SVG/1.1/DTD/svg11.dtd">
<!-- Creator: CorelDRAW X8 -->
<svg xmlns="http://www.w3.org/2000/svg" xml:space="preserve" width="1257px" height="467px" version="1.1" style="shape-rendering:geometricPrecision; text-rendering:geometricPrecision; image-rendering:optimizeQuality; fill-rule:evenodd; clip-rule:evenodd"
viewBox="0 0 1257 467"
 xmlns:xlink="http://www.w3.org/1999/xlink">
 <defs>
  <style type="text/css">
   <![CDATA[
    .fil0 {fill:#57A7B3;fill-rule:nonzero}
   ]]>
  </style>
 </defs>
 <g id="Layer_x0020_1">
  <metadata id="CorelCorpID_0Corel-Layer"/>
  <path class="fil0" d="M0 237c2,-125 93,-202 208,-225 93,-18 341,-17 426,8 60,18 113,45 143,102 20,38 22,87 22,125 -1,51 8,85 29,106 22,22 58,31 111,33 50,2 97,-12 133,-47 31,-30 45,-73 43,-115 -3,-42 -20,-79 -48,-104 -25,-23 -58,-38 -95,-40 -39,-3 -67,-22 -63,-44 5,-22 40,-38 79,-36 87,6 154,35 200,77 43,40 70,94 69,154 -1,50 -21,107 -68,151 -52,50 -134,85 -255,85 -86,-1 -162,-13 -212,-55 -39,-33 -63,-83 -64,-159 -2,-65 -11,-101 -34,-129 -39,-45 -96,-52 -191,-50 61,32 90,96 91,163 1,151 -126,230 -264,230 -138,0 -262,-82 -260,-230zm382 1c0,-100 -59,-149 -119,-149 -57,0 -119,48 -119,149 0,97 57,148 119,148 62,0 119,-47 119,-148z"/>
 </g>
</svg>
