<?xml version="1.0" encoding="UTF-8"?>
<!DOCTYPE svg PUBLIC "-//W3C//DTD SVG 1.1//EN" "http://www.w3.org/Graphics/SVG/1.1/DTD/svg11.dtd">
<!-- Creator: CorelDRAW X8 -->
<svg xmlns="http://www.w3.org/2000/svg" xml:space="preserve" width="1043px" height="1405px" version="1.1" style="shape-rendering:geometricPrecision; text-rendering:geometricPrecision; image-rendering:optimizeQuality; fill-rule:evenodd; clip-rule:evenodd"
viewBox="0 0 1043 1405"
 xmlns:xlink="http://www.w3.org/1999/xlink">
 <defs>
  <style type="text/css">
   <![CDATA[
    .fil0 {fill:#669933;fill-rule:nonzero}
   ]]>
  </style>
 </defs>
 <g id="Layer_x0020_1">
  <metadata id="CorelCorpID_0Corel-Layer"/>
  <path class="fil0" d="M227 870c52,-79 115,-169 170,-261 66,-108 138,-245 137,-375 0,-74 -50,-142 -129,-143 -70,-1 -127,48 -159,107 -13,24 -59,37 -102,30 -43,-7 -67,-33 -54,-57 62,-113 189,-171 315,-171 142,0 291,75 292,234 0,47 -14,100 -35,152 20,-3 42,-5 63,-5 194,4 327,139 318,333 -9,178 -123,291 -286,347 14,33 22,69 22,105 0,166 -161,241 -327,239 -112,-1 -228,-37 -291,-104 -56,-59 -81,-143 -44,-243 7,-20 22,-47 38,-75 -34,-26 -64,-56 -88,-93 -45,-67 -68,-147 -67,-227 1,-92 34,-198 105,-260 25,-21 75,-27 113,-13 37,14 48,42 24,63 -55,47 -79,143 -79,214 0,72 21,144 64,203zm199 -62c-30,50 -68,116 -90,153 65,34 145,48 218,45 -52,-72 -101,-128 -128,-198zm-143 245c-59,135 35,265 169,262 87,-2 164,-55 164,-149 0,-24 -5,-49 -13,-72 -19,2 -38,3 -57,3 -89,1 -182,-13 -263,-44zm422 -82c109,-50 168,-137 175,-257 9,-160 -71,-246 -155,-248 -104,-3 -160,108 -163,200 -4,113 79,218 143,305z"/>
 </g>
</svg>
