<?xml version="1.0" encoding="UTF-8"?>
<!DOCTYPE svg PUBLIC "-//W3C//DTD SVG 1.1//EN" "http://www.w3.org/Graphics/SVG/1.1/DTD/svg11.dtd">
<!-- Creator: CorelDRAW X8 -->
<svg xmlns="http://www.w3.org/2000/svg" xml:space="preserve" width="1163px" height="2048px" version="1.1" style="shape-rendering:geometricPrecision; text-rendering:geometricPrecision; image-rendering:optimizeQuality; fill-rule:evenodd; clip-rule:evenodd"
viewBox="0 0 1163 2048"
 xmlns:xlink="http://www.w3.org/1999/xlink">
 <defs>
  <style type="text/css">
   <![CDATA[
    .fil0 {fill:#2B2A29;fill-rule:nonzero}
   ]]>
  </style>
 </defs>
 <g id="Layer_x0020_1">
  <metadata id="CorelCorpID_0Corel-Layer"/>
  <path class="fil0" d="M203 1521c15,24 -6,50 -49,58 -46,10 -89,1 -113,-41 -27,-48 -41,-107 -41,-166 0,-200 141,-324 334,-324 85,0 175,24 229,100 49,-76 133,-100 223,-100 255,0 377,169 377,409 0,178 -61,350 -201,466 -117,98 -277,149 -458,149 -103,0 -214,-26 -306,-73 -32,-17 -53,-46 -11,-70 31,-18 82,-19 115,-1 58,32 135,53 202,53 125,0 238,-37 323,-108 122,-102 174,-261 174,-416 0,-135 -51,-318 -215,-318 -88,0 -140,93 -142,172l0 226c0,25 -36,46 -81,46 -45,0 -82,-21 -82,-46l0 -222c0,-85 -54,-176 -147,-176 -125,0 -172,127 -172,233 0,55 14,108 41,149z"/>
 </g>
</svg>
