<?xml version="1.0" encoding="UTF-8"?>
<!DOCTYPE svg PUBLIC "-//W3C//DTD SVG 1.1//EN" "http://www.w3.org/Graphics/SVG/1.1/DTD/svg11.dtd">
<!-- Creator: CorelDRAW X8 -->
<svg xmlns="http://www.w3.org/2000/svg" xml:space="preserve" width="1163px" height="1024px" version="1.1" style="shape-rendering:geometricPrecision; text-rendering:geometricPrecision; image-rendering:optimizeQuality; fill-rule:evenodd; clip-rule:evenodd"
viewBox="0 0 1163 1024"
 xmlns:xlink="http://www.w3.org/1999/xlink">
 <defs>
  <style type="text/css">
   <![CDATA[
    .fil0 {fill:#57A7B3;fill-rule:nonzero}
   ]]>
  </style>
 </defs>
 <g id="Layer_x0020_1">
  <metadata id="CorelCorpID_0Corel-Layer"/>
  <path class="fil0" d="M203 473c15,23 -6,50 -49,58 -45,10 -89,0 -113,-42 -27,-47 -41,-113 -41,-172 0,-200 141,-317 334,-317 85,0 181,24 235,100 49,-76 133,-100 222,-100 241,0 372,169 372,409 0,178 -62,350 -201,466 -117,98 -277,149 -458,149 -103,0 -214,-26 -306,-74 -32,-17 -53,-45 -11,-69 31,-18 83,-19 115,-1 58,32 135,53 202,53 125,0 238,-37 323,-109 122,-101 174,-261 174,-415 0,-135 -45,-318 -210,-318 -111,0 -141,89 -141,182l0 216c0,25 -36,46 -81,46 -45,0 -82,-21 -82,-46l0 -210c0,-105 -28,-188 -153,-188 -123,0 -175,114 -173,226 0,58 15,115 42,156z"/>
 </g>
</svg>
