<?xml version="1.0" encoding="UTF-8"?>
<!DOCTYPE svg PUBLIC "-//W3C//DTD SVG 1.1//EN" "http://www.w3.org/Graphics/SVG/1.1/DTD/svg11.dtd">
<!-- Creator: CorelDRAW X8 -->
<svg xmlns="http://www.w3.org/2000/svg" xml:space="preserve" width="2209px" height="2048px" version="1.1" style="shape-rendering:geometricPrecision; text-rendering:geometricPrecision; image-rendering:optimizeQuality; fill-rule:evenodd; clip-rule:evenodd"
viewBox="0 0 2209 2048"
 xmlns:xlink="http://www.w3.org/1999/xlink">
 <defs>
  <style type="text/css">
   <![CDATA[
    .fil0 {fill:#2B2A29;fill-rule:nonzero}
   ]]>
  </style>
 </defs>
 <g id="Layer_x0020_1">
  <metadata id="CorelCorpID_0Corel-Layer"/>
  <path class="fil0" d="M0 1588c0,-102 21,-195 60,-273 88,-176 266,-281 503,-266 145,9 284,64 366,168 84,-112 221,-164 359,-169 180,-6 352,60 467,196 321,64 472,349 453,661 -21,324 -227,545 -552,554 -132,4 -281,-30 -386,-113 -26,-21 -17,-49 19,-64 37,-14 88,-9 114,11 68,54 159,78 245,75 252,-7 383,-234 397,-466 12,-188 -42,-396 -202,-511 29,75 42,156 41,238 -2,99 -24,199 -73,279 -69,114 -183,165 -302,163 -118,-1 -228,-48 -295,-149 -43,-64 -65,-146 -65,-229 0,-99 31,-199 90,-278 79,-104 198,-162 325,-178 -74,-66 -166,-101 -266,-98 -164,6 -296,131 -293,298l0 590c0,25 -36,45 -81,45 -45,0 -81,-20 -81,-45l0 -589c-3,-173 -127,-288 -297,-298 -156,-10 -273,82 -335,208 -32,65 -49,137 -50,210 52,-75 132,-116 221,-119 98,-3 189,34 249,98 53,56 81,134 78,223 -2,89 -36,177 -105,234 -59,50 -138,78 -224,78 -91,0 -164,-29 -221,-75 -111,-92 -159,-253 -159,-409zm1639 -264c-100,0 -190,46 -250,126 -52,70 -77,156 -77,243 0,73 18,144 54,198 33,49 82,88 144,89 57,1 106,-33 147,-101 43,-72 63,-161 64,-250 1,-108 -22,-214 -82,-305zm-1433 434c-1,147 92,222 182,223 84,0 166,-74 166,-223 1,-148 -86,-222 -174,-222 -87,0 -174,74 -174,222z"/>
 </g>
</svg>
