<?xml version="1.0" encoding="UTF-8"?>
<!DOCTYPE svg PUBLIC "-//W3C//DTD SVG 1.1//EN" "http://www.w3.org/Graphics/SVG/1.1/DTD/svg11.dtd">
<!-- Creator: CorelDRAW X8 -->
<svg xmlns="http://www.w3.org/2000/svg" xml:space="preserve" width="2209px" height="1412px" version="1.1" style="shape-rendering:geometricPrecision; text-rendering:geometricPrecision; image-rendering:optimizeQuality; fill-rule:evenodd; clip-rule:evenodd"
viewBox="0 0 2209 1412"
 xmlns:xlink="http://www.w3.org/1999/xlink">
 <defs>
  <style type="text/css">
   <![CDATA[
    .fil0 {fill:black;fill-rule:nonzero}
   ]]>
  </style>
 </defs>
 <g id="Layer_x0020_1">
  <metadata id="CorelCorpID_0Corel-Layer"/>
  <path class="fil0" d="M1639 276c-100,0 -190,47 -250,126 -52,70 -77,156 -77,243 0,74 18,144 54,198 33,50 82,89 144,89 57,1 106,-33 147,-101 43,-71 63,-161 64,-249 1,-108 -22,-215 -82,-306zm-1639 264c0,-102 21,-194 60,-273 83,-165 245,-267 461,-267 148,0 312,49 408,169 84,-112 231,-164 369,-168 180,-7 342,59 457,195 321,65 472,346 453,658 -21,325 -228,552 -560,558 -130,2 -275,-32 -378,-114 -26,-20 -17,-49 19,-63 37,-15 88,-10 114,11 68,54 159,77 245,75 252,-8 383,-234 397,-467 12,-188 -42,-396 -202,-510 29,75 42,155 41,238 -2,98 -24,198 -73,279 -69,114 -182,164 -301,163 -118,-1 -229,-49 -296,-149 -43,-65 -65,-146 -65,-230 0,-99 31,-199 90,-278 79,-104 198,-161 325,-177 -74,-66 -166,-102 -266,-99 -164,6 -293,131 -293,299l0 589c0,25 -36,45 -81,45 -45,0 -81,-20 -81,-45l0 -588c0,-184 -145,-301 -322,-300 -144,2 -252,91 -310,210 -32,64 -49,137 -50,209 52,-75 130,-115 219,-118 98,-4 191,33 251,97 53,57 81,133 78,222 -2,89 -36,179 -105,236 -58,48 -141,75 -224,77 -84,2 -156,-21 -221,-75 -111,-91 -159,-253 -159,-409zm554 171c0,-150 -87,-222 -174,-222 -84,0 -174,71 -174,222 0,146 82,221 174,222 91,0 174,-70 174,-222z"/>
 </g>
</svg>
