<?xml version="1.0" encoding="UTF-8"?>
<!DOCTYPE svg PUBLIC "-//W3C//DTD SVG 1.1//EN" "http://www.w3.org/Graphics/SVG/1.1/DTD/svg11.dtd">
<!-- Creator: CorelDRAW X8 -->
<svg xmlns="http://www.w3.org/2000/svg" xml:space="preserve" width="2207px" height="1412px" version="1.1" style="shape-rendering:geometricPrecision; text-rendering:geometricPrecision; image-rendering:optimizeQuality; fill-rule:evenodd; clip-rule:evenodd"
viewBox="0 0 2207 1412"
 xmlns:xlink="http://www.w3.org/1999/xlink">
 <defs>
  <style type="text/css">
   <![CDATA[
    .fil0 {fill:blue;fill-rule:nonzero}
   ]]>
  </style>
 </defs>
 <g id="Layer_x0020_1">
  <metadata id="CorelCorpID_0Corel-Layer"/>
  <path class="fil0" d="M0 540c0,-102 21,-195 60,-273 84,-166 250,-269 469,-267 132,1 304,39 392,147 99,-106 215,-147 365,-146 208,0 364,72 468,197 320,64 471,345 451,657 -20,324 -235,547 -559,557 -132,4 -273,-30 -378,-114 -26,-20 -17,-49 20,-63 36,-14 87,-9 113,11 68,54 159,77 245,75 252,-8 383,-234 397,-466 12,-188 -42,-396 -202,-510 29,74 42,155 41,237 -2,99 -24,199 -73,279 -69,114 -183,164 -302,163 -118,-1 -227,-48 -294,-149 -43,-65 -65,-146 -65,-229 0,-99 31,-199 90,-278 79,-104 197,-161 324,-177 -75,-68 -179,-102 -276,-100 -148,3 -282,90 -282,276l0 611c0,25 -36,46 -81,46 -44,0 -81,-21 -81,-46l0 -610c0,-181 -140,-275 -315,-277 -146,-1 -257,89 -316,210 -32,64 -49,136 -50,209 52,-75 130,-116 219,-119 98,-3 191,34 251,98 53,56 81,133 78,221 -2,89 -36,179 -105,236 -58,48 -140,76 -224,77 -83,1 -156,-21 -221,-75 -111,-91 -159,-252 -159,-408zm1637 -263c-100,0 -189,47 -249,126 -52,70 -77,156 -77,243 0,73 18,143 54,197 33,50 82,89 144,90 56,0 105,-34 146,-101 44,-72 63,-161 64,-250 2,-108 -21,-214 -82,-305zm-1431 433c-1,148 85,222 174,222 85,1 174,-73 174,-222 0,-148 -87,-222 -174,-222 -87,0 -174,75 -174,222z"/>
 </g>
</svg>
