<?xml version="1.0" encoding="UTF-8"?>
<!DOCTYPE svg PUBLIC "-//W3C//DTD SVG 1.1//EN" "http://www.w3.org/Graphics/SVG/1.1/DTD/svg11.dtd">
<!-- Creator: CorelDRAW X8 -->
<svg xmlns="http://www.w3.org/2000/svg" xml:space="preserve" width="1898px" height="2048px" version="1.1" style="shape-rendering:geometricPrecision; text-rendering:geometricPrecision; image-rendering:optimizeQuality; fill-rule:evenodd; clip-rule:evenodd"
viewBox="0 0 1898 2048"
 xmlns:xlink="http://www.w3.org/1999/xlink">
 <defs>
  <style type="text/css">
   <![CDATA[
    .fil0 {fill:#2B2A29;fill-rule:nonzero}
   ]]>
  </style>
 </defs>
 <g id="Layer_x0020_1">
  <metadata id="CorelCorpID_0Corel-Layer"/>
  <path class="fil0" d="M1206 1966c-35,15 -42,44 -15,64 17,13 40,18 62,18 196,0 368,0 563,0 45,0 82,-21 82,-46 0,-25 -37,-46 -82,-46 -136,0 -248,0 -384,0 108,-100 158,-249 160,-401 1,-92 -14,-169 -51,-248 -79,-169 -248,-259 -431,-259 -132,0 -243,38 -314,116 -70,-78 -182,-116 -314,-116 -183,0 -352,90 -431,259 -37,79 -52,168 -51,260 3,201 89,408 283,493 35,16 87,17 118,-6 28,-20 21,-49 -15,-64 -156,-66 -221,-264 -223,-422 -1,-73 9,-148 35,-215 47,-118 153,-214 284,-214 161,0 233,115 233,264l0 623c0,25 36,45 81,45 45,0 82,-20 82,-45l0 -622c0,-150 71,-265 232,-265 131,0 238,96 284,214 26,67 36,130 35,203 -2,158 -67,344 -223,410z"/>
 </g>
</svg>
