<?xml version="1.0" encoding="UTF-8"?>
<!DOCTYPE svg PUBLIC "-//W3C//DTD SVG 1.1//EN" "http://www.w3.org/Graphics/SVG/1.1/DTD/svg11.dtd">
<!-- Creator: CorelDRAW X8 -->
<svg xmlns="http://www.w3.org/2000/svg" xml:space="preserve" width="1182px" height="2048px" version="1.1" style="shape-rendering:geometricPrecision; text-rendering:geometricPrecision; image-rendering:optimizeQuality; fill-rule:evenodd; clip-rule:evenodd"
viewBox="0 0 1182 2048"
 xmlns:xlink="http://www.w3.org/1999/xlink">
 <defs>
  <style type="text/css">
   <![CDATA[
    .fil0 {fill:#2B2A29;fill-rule:nonzero}
   ]]>
  </style>
 </defs>
 <g id="Layer_x0020_1">
  <metadata id="CorelCorpID_0Corel-Layer"/>
  <path class="fil0" d="M359 1998c27,19 21,48 -14,63 -45,20 -91,11 -129,-18 -143,-109 -216,-272 -216,-436 -1,-308 234,-533 532,-560l0 -333c0,-25 37,-45 81,-45 45,0 82,20 82,45l0 335c294,35 479,247 487,536 6,236 -113,485 -378,486 -227,1 -272,-153 -272,-341l0 -590c-226,36 -370,247 -369,470 1,148 66,296 196,388zm336 -854l0 585c0,186 49,253 110,252 135,-2 223,-196 214,-398 -8,-193 -103,-393 -324,-439z"/>
 </g>
</svg>
