<?xml version="1.0" encoding="UTF-8"?>
<!DOCTYPE svg PUBLIC "-//W3C//DTD SVG 1.1//EN" "http://www.w3.org/Graphics/SVG/1.1/DTD/svg11.dtd">
<!-- Creator: CorelDRAW X8 -->
<svg xmlns="http://www.w3.org/2000/svg" xml:space="preserve" width="1753px" height="1679px" version="1.1" style="shape-rendering:geometricPrecision; text-rendering:geometricPrecision; image-rendering:optimizeQuality; fill-rule:evenodd; clip-rule:evenodd"
viewBox="0 0 1753 1680"
 xmlns:xlink="http://www.w3.org/1999/xlink">
 <defs>
  <style type="text/css">
   <![CDATA[
    .fil0 {fill:#669933;fill-rule:nonzero}
   ]]>
  </style>
 </defs>
 <g id="Layer_x0020_1">
  <metadata id="CorelCorpID_0Corel-Layer"/>
  <path class="fil0" d="M680 1235c21,22 6,49 -34,61 -47,14 -89,4 -121,-32 -102,-116 -153,-278 -153,-433 0,-319 199,-549 527,-554 184,-3 428,77 425,298 -1,104 -67,170 -157,210 148,59 212,190 209,343 -6,330 -290,552 -608,552 -479,0 -772,-362 -768,-816 5,-511 367,-864 887,-864 550,0 876,430 866,883 -3,146 -42,299 -118,434 -23,40 -66,48 -109,40 -43,-8 -66,-33 -52,-57 73,-126 111,-272 114,-417 9,-416 -258,-792 -701,-792 -447,0 -721,352 -725,773 -3,359 203,725 600,725 252,0 447,-218 452,-462 3,-130 -49,-252 -188,-281 -45,-10 -94,-11 -136,-11 -45,0 -82,-21 -82,-46 0,-25 37,-45 82,-45 44,0 85,-3 128,-14 80,-20 142,-65 144,-156 0,-64 -26,-120 -79,-157 -52,-36 -122,-50 -184,-49 -249,4 -364,243 -364,463 0,144 47,299 145,404z"/>
 </g>
</svg>
