<?xml version="1.0" encoding="UTF-8"?>
<!DOCTYPE svg PUBLIC "-//W3C//DTD SVG 1.1//EN" "http://www.w3.org/Graphics/SVG/1.1/DTD/svg11.dtd">
<!-- Creator: CorelDRAW X8 -->
<svg xmlns="http://www.w3.org/2000/svg" xml:space="preserve" width="1753px" height="2048px" version="1.1" style="shape-rendering:geometricPrecision; text-rendering:geometricPrecision; image-rendering:optimizeQuality; fill-rule:evenodd; clip-rule:evenodd"
viewBox="0 0 1753 2048"
 xmlns:xlink="http://www.w3.org/1999/xlink">
 <defs>
  <style type="text/css">
   <![CDATA[
    .fil0 {fill:#2B2A29;fill-rule:nonzero}
   ]]>
  </style>
 </defs>
 <g id="Layer_x0020_1">
  <metadata id="CorelCorpID_0Corel-Layer"/>
  <path class="fil0" d="M680 2004c21,22 6,50 -34,61 -46,14 -89,5 -121,-32 -115,-130 -164,-318 -150,-489 23,-294 214,-493 520,-497 107,-2 227,22 314,82 74,51 116,125 115,215 -2,104 -67,170 -157,211 147,59 212,190 209,342 -3,151 -66,285 -167,382 -110,106 -266,170 -441,170 -371,0 -610,-211 -711,-484 -39,-105 -58,-218 -57,-333 5,-510 367,-863 887,-863 550,0 876,435 866,888 -4,146 -42,294 -119,430 -22,39 -66,47 -108,39 -43,-8 -66,-33 -52,-57 73,-126 110,-272 114,-417 9,-416 -258,-791 -701,-791 -447,0 -720,352 -724,772 -1,108 16,215 53,313 86,233 273,412 552,412 113,0 219,-47 300,-125 88,-84 143,-202 146,-337 2,-130 -49,-252 -188,-281 -45,-10 -94,-11 -136,-11 -45,0 -82,-20 -82,-45 0,-26 37,-46 82,-46 44,0 85,-3 128,-14 80,-20 142,-65 143,-155 1,-65 -25,-121 -78,-158 -52,-35 -122,-49 -184,-49 -229,4 -345,206 -362,411 -13,158 33,339 143,456z"/>
 </g>
</svg>
