<?xml version="1.0" encoding="UTF-8"?>
<!DOCTYPE svg PUBLIC "-//W3C//DTD SVG 1.1//EN" "http://www.w3.org/Graphics/SVG/1.1/DTD/svg11.dtd">
<!-- Creator: CorelDRAW X8 -->
<svg xmlns="http://www.w3.org/2000/svg" xml:space="preserve" width="2228px" height="2048px" version="1.1" style="shape-rendering:geometricPrecision; text-rendering:geometricPrecision; image-rendering:optimizeQuality; fill-rule:evenodd; clip-rule:evenodd"
viewBox="0 0 2228 2048"
 xmlns:xlink="http://www.w3.org/1999/xlink">
 <defs>
  <style type="text/css">
   <![CDATA[
    .fil0 {fill:#2B2A29;fill-rule:nonzero}
   ]]>
  </style>
 </defs>
 <g id="Layer_x0020_1">
  <metadata id="CorelCorpID_0Corel-Layer"/>
  <path class="fil0" d="M386 1993c36,15 43,43 15,63 -31,24 -83,22 -118,7 -194,-86 -280,-293 -283,-494 -1,-91 14,-181 51,-260 79,-168 248,-259 431,-259 132,0 244,41 314,121 76,-88 188,-123 301,-123 113,0 224,34 297,124 78,-84 199,-126 326,-124 235,4 407,143 476,365 27,91 37,194 29,297 -8,103 -35,208 -80,305 -133,286 -396,445 -720,445 -70,0 -143,-10 -213,-30 -63,-18 -124,-46 -175,-82 -28,-19 -22,-48 13,-64 35,-15 86,-12 114,7 36,25 79,46 122,58 45,13 93,20 139,20 261,0 457,-151 562,-377 43,-90 68,-189 76,-286 7,-97 -2,-192 -28,-277 -45,-149 -151,-287 -319,-290 -152,-2 -245,121 -245,266l0 623c0,25 -36,45 -81,45 -45,0 -82,-20 -82,-45l0 -623c0,-69 -26,-160 -75,-210 -33,-34 -78,-56 -136,-56 -62,0 -115,25 -155,72 -45,52 -64,133 -64,201l0 616c0,26 -37,46 -82,46 -45,0 -81,-20 -81,-46l0 -616c0,-149 -71,-271 -233,-271 -131,0 -237,96 -284,214 -26,67 -36,142 -35,216 2,157 67,355 223,422z"/>
 </g>
</svg>
