<?xml version="1.0" encoding="UTF-8"?>
<!DOCTYPE svg PUBLIC "-//W3C//DTD SVG 1.1//EN" "http://www.w3.org/Graphics/SVG/1.1/DTD/svg11.dtd">
<!-- Creator: CorelDRAW X8 -->
<svg xmlns="http://www.w3.org/2000/svg" xml:space="preserve" width="1283px" height="1411px" version="1.1" style="shape-rendering:geometricPrecision; text-rendering:geometricPrecision; image-rendering:optimizeQuality; fill-rule:evenodd; clip-rule:evenodd"
viewBox="0 0 1283 1410"
 xmlns:xlink="http://www.w3.org/1999/xlink">
 <defs>
  <style type="text/css">
   <![CDATA[
    .fil0 {fill:#57A7B3;fill-rule:nonzero}
   ]]>
  </style>
 </defs>
 <g id="Layer_x0020_1">
  <metadata id="CorelCorpID_0Corel-Layer"/>
  <path class="fil0" d="M187 1302c-31,-19 -29,-48 4,-65 33,-17 85,-16 115,3 89,54 179,79 263,79 91,1 179,-27 256,-75 78,-49 146,-117 197,-201 68,-112 106,-251 97,-402 -8,-158 -63,-307 -167,-413 -90,-93 -206,-137 -334,-138 -136,-2 -276,45 -364,154 -51,64 -83,146 -90,242 52,-60 122,-93 202,-96 98,-3 191,34 251,98 53,56 81,133 78,221 -2,90 -36,180 -105,237 -58,47 -141,75 -224,77 -108,2 -197,-34 -266,-119 -67,-80 -98,-194 -100,-310 -2,-145 42,-295 122,-393 123,-151 310,-201 496,-201 210,0 367,72 477,184 116,119 177,286 187,457 9,162 -32,310 -106,431 -58,96 -138,175 -230,233 -113,70 -244,105 -377,105 -129,0 -260,-34 -382,-108zm4 -593c0,148 85,223 175,223 84,0 174,-73 174,-223 0,-148 -87,-222 -174,-222 -87,0 -175,74 -175,222z"/>
 </g>
</svg>
