<?xml version="1.0" encoding="UTF-8"?>
<!DOCTYPE svg PUBLIC "-//W3C//DTD SVG 1.1//EN" "http://www.w3.org/Graphics/SVG/1.1/DTD/svg11.dtd">
<!-- Creator: CorelDRAW X8 -->
<svg xmlns="http://www.w3.org/2000/svg" xml:space="preserve" width="1283px" height="1412px" version="1.1" style="shape-rendering:geometricPrecision; text-rendering:geometricPrecision; image-rendering:optimizeQuality; fill-rule:evenodd; clip-rule:evenodd"
viewBox="0 0 1283 1412"
 xmlns:xlink="http://www.w3.org/1999/xlink">
 <defs>
  <style type="text/css">
   <![CDATA[
    .fil0 {fill:black;fill-rule:nonzero}
   ]]>
  </style>
 </defs>
 <g id="Layer_x0020_1">
  <metadata id="CorelCorpID_0Corel-Layer"/>
  <path class="fil0" d="M186 1303c-30,-18 -28,-47 5,-64 33,-17 85,-16 115,2 89,54 179,79 263,80 91,1 179,-28 256,-76 78,-48 146,-117 197,-201 68,-112 106,-251 98,-402 -9,-158 -64,-308 -167,-414 -91,-93 -207,-137 -335,-138 -136,-2 -276,45 -364,155 -51,64 -83,146 -90,241 52,-60 122,-93 202,-95 98,-4 191,34 251,97 53,57 81,134 78,222 -2,90 -36,180 -105,237 -58,48 -141,76 -224,77 -108,3 -197,-34 -267,-119 -66,-80 -98,-194 -99,-310 -2,-145 42,-295 122,-394 123,-151 310,-201 496,-201 210,0 367,72 477,184 116,120 178,286 187,458 9,162 -32,310 -106,431 -58,96 -137,176 -230,233 -113,71 -244,106 -377,106 -129,0 -260,-34 -383,-109zm5 -593c0,148 85,223 175,223 84,0 174,-73 174,-223 0,-148 -87,-223 -174,-223 -87,1 -175,75 -175,223z"/>
 </g>
</svg>
