<?xml version="1.0" encoding="UTF-8"?>
<!DOCTYPE svg PUBLIC "-//W3C//DTD SVG 1.1//EN" "http://www.w3.org/Graphics/SVG/1.1/DTD/svg11.dtd">
<!-- Creator: CorelDRAW X8 -->
<svg xmlns="http://www.w3.org/2000/svg" xml:space="preserve" width="1513px" height="1412px" version="1.1" style="shape-rendering:geometricPrecision; text-rendering:geometricPrecision; image-rendering:optimizeQuality; fill-rule:evenodd; clip-rule:evenodd"
viewBox="0 0 1513 1412"
 xmlns:xlink="http://www.w3.org/1999/xlink">
 <defs>
  <style type="text/css">
   <![CDATA[
    .fil0 {fill:#57A7B3;fill-rule:nonzero}
   ]]>
  </style>
 </defs>
 <g id="Layer_x0020_1">
  <metadata id="CorelCorpID_0Corel-Layer"/>
  <path class="fil0" d="M918 907l432 0 0 -861c0,-25 36,-46 81,-46 45,0 82,21 82,46l0 930c0,78 -16,154 -57,221 -93,152 -280,214 -451,215 -135,0 -268,-38 -382,-108 -30,-18 -28,-47 5,-64 34,-17 85,-16 115,3 78,48 170,77 262,78 118,0 233,-49 297,-153 30,-49 47,-112 48,-169l-606 0c-21,0 -43,-4 -62,-16 -30,-18 -26,-47 8,-63 166,-81 242,-241 239,-409 -4,-215 -138,-421 -382,-421 -248,1 -383,217 -383,434 -1,166 76,330 239,410 34,16 37,45 8,63 -36,22 -86,19 -122,1 -180,-91 -291,-275 -289,-474 3,-298 246,-524 547,-524 298,0 539,216 546,511 3,156 -62,297 -175,396z"/>
 </g>
</svg>
