<?xml version="1.0" encoding="UTF-8"?>
<!DOCTYPE svg PUBLIC "-//W3C//DTD SVG 1.1//EN" "http://www.w3.org/Graphics/SVG/1.1/DTD/svg11.dtd">
<!-- Creator: CorelDRAW X8 -->
<svg xmlns="http://www.w3.org/2000/svg" xml:space="preserve" width="1513px" height="2048px" version="1.1" style="shape-rendering:geometricPrecision; text-rendering:geometricPrecision; image-rendering:optimizeQuality; fill-rule:evenodd; clip-rule:evenodd"
viewBox="0 0 1513 2048"
 xmlns:xlink="http://www.w3.org/1999/xlink">
 <defs>
  <style type="text/css">
   <![CDATA[
    .fil0 {fill:#2B2A29;fill-rule:nonzero}
   ]]>
  </style>
 </defs>
 <g id="Layer_x0020_1">
  <metadata id="CorelCorpID_0Corel-Layer"/>
  <path class="fil0" d="M918 1957l432 0 0 -862c0,-25 36,-46 81,-46 46,0 82,21 82,46l0 930c0,79 -16,154 -57,221 -99,162 -303,223 -484,214 -119,-5 -241,-40 -349,-107 -30,-18 -28,-47 5,-64 34,-17 85,-16 115,3 79,48 163,73 243,77 125,6 248,-43 316,-152 30,-49 47,-112 48,-169l-606 0c-21,0 -43,-4 -62,-16 -30,-18 -26,-47 8,-63 166,-81 242,-246 239,-414 -4,-215 -138,-416 -383,-416 -247,1 -382,213 -382,431 -1,165 76,333 239,413 34,16 37,45 8,63 -36,22 -86,19 -122,1 -180,-91 -291,-274 -289,-474 3,-298 246,-524 546,-524 299,0 541,216 547,511 3,156 -62,297 -175,397z"/>
 </g>
</svg>
