<?xml version="1.0" encoding="UTF-8"?>
<!DOCTYPE svg PUBLIC "-//W3C//DTD SVG 1.1//EN" "http://www.w3.org/Graphics/SVG/1.1/DTD/svg11.dtd">
<!-- Creator: CorelDRAW X8 -->
<svg xmlns="http://www.w3.org/2000/svg" xml:space="preserve" width="1692px" height="2048px" version="1.1" style="shape-rendering:geometricPrecision; text-rendering:geometricPrecision; image-rendering:optimizeQuality; fill-rule:evenodd; clip-rule:evenodd"
viewBox="0 0 1692 2048"
 xmlns:xlink="http://www.w3.org/1999/xlink">
 <defs>
  <style type="text/css">
   <![CDATA[
    .fil0 {fill:#2B2A29;fill-rule:nonzero}
   ]]>
  </style>
 </defs>
 <g id="Layer_x0020_1">
  <metadata id="CorelCorpID_0Corel-Layer"/>
  <path class="fil0" d="M1216 1050c141,17 248,73 324,150 104,106 152,257 152,405 1,212 -130,465 -369,467 -248,2 -269,-135 -269,-346l0 -578c-117,32 -177,147 -177,261l0 617c0,25 -36,46 -81,46 -45,0 -82,-21 -82,-46l0 -616c0,-149 -70,-271 -232,-271 -131,0 -238,96 -284,214 -26,67 -36,142 -35,215 2,158 67,356 223,422 35,16 42,44 15,64 -32,24 -83,22 -118,7 -195,-86 -280,-293 -283,-494 -1,-91 14,-181 51,-260 79,-169 248,-259 431,-259 135,0 249,42 319,126 61,-68 150,-108 248,-121 2,0 3,0 5,0l0 -338c0,-25 36,-45 81,-45 45,0 81,20 81,45l0 335zm181 194c-46,-47 -106,-83 -181,-99l0 580c0,63 -6,179 33,226 19,21 40,29 62,29 154,-1 219,-254 219,-375 -1,-130 -41,-267 -133,-361z"/>
 </g>
</svg>
