<?xml version="1.0" encoding="UTF-8"?>
<!DOCTYPE svg PUBLIC "-//W3C//DTD SVG 1.1//EN" "http://www.w3.org/Graphics/SVG/1.1/DTD/svg11.dtd">
<!-- Creator: CorelDRAW X8 -->
<svg xmlns="http://www.w3.org/2000/svg" xml:space="preserve" width="1719px" height="1405px" version="1.1" style="shape-rendering:geometricPrecision; text-rendering:geometricPrecision; image-rendering:optimizeQuality; fill-rule:evenodd; clip-rule:evenodd"
viewBox="0 0 1719 1404"
 xmlns:xlink="http://www.w3.org/1999/xlink">
 <defs>
  <style type="text/css">
   <![CDATA[
    .fil0 {fill:#1F1B20;fill-rule:nonzero}
   ]]>
  </style>
 </defs>
 <g id="Layer_x0020_1">
  <metadata id="CorelCorpID_0Corel-Layer"/>
  <path class="fil0" d="M1088 198c-13,24 -58,37 -101,30 -43,-7 -67,-33 -54,-57 62,-113 189,-171 315,-171 48,0 95,8 137,25 44,17 81,42 108,76 33,41 45,86 45,133 1,78 -34,159 -72,226 96,58 164,143 205,241 32,76 48,159 48,243 0,105 -24,211 -75,295 -60,98 -156,165 -293,165 -140,0 -227,-71 -272,-172 -26,-59 -37,-129 -36,-201 1,-100 28,-203 70,-286 46,-93 109,-169 164,-255 -37,-13 -77,-19 -116,-19 -150,2 -277,110 -277,266l0 622c0,25 -36,45 -81,45 -45,0 -82,-20 -82,-45l0 -618c0,-145 -95,-272 -248,-269 -209,4 -308,225 -310,408 -2,162 62,368 218,445 34,16 37,45 8,64 -30,19 -81,21 -115,4 -191,-93 -276,-310 -274,-513 3,-278 177,-493 467,-499 139,-3 265,45 341,138 86,-99 226,-138 354,-139 55,0 112,7 166,22 24,-50 48,-111 48,-169 0,-34 -9,-67 -31,-95 -24,-29 -58,-46 -95,-47 -70,-1 -130,48 -162,107zm314 365c-60,86 -110,156 -145,233 -30,67 -49,152 -52,235 -2,55 4,109 19,156 21,67 65,126 127,126 73,0 124,-64 157,-141 33,-78 48,-169 49,-225 0,-69 -12,-139 -36,-205 -25,-68 -64,-131 -119,-179z"/>
 </g>
</svg>
