<?xml version="1.0" encoding="UTF-8"?>
<!DOCTYPE svg PUBLIC "-//W3C//DTD SVG 1.1//EN" "http://www.w3.org/Graphics/SVG/1.1/DTD/svg11.dtd">
<!-- Creator: CorelDRAW X8 -->
<svg xmlns="http://www.w3.org/2000/svg" xml:space="preserve" width="1196px" height="1405px" version="1.1" style="shape-rendering:geometricPrecision; text-rendering:geometricPrecision; image-rendering:optimizeQuality; fill-rule:evenodd; clip-rule:evenodd"
viewBox="0 0 1196 1405"
 xmlns:xlink="http://www.w3.org/1999/xlink">
 <defs>
  <style type="text/css">
   <![CDATA[
    .fil0 {fill:#57A7B3;fill-rule:nonzero}
   ]]>
  </style>
 </defs>
 <g id="Layer_x0020_1">
  <metadata id="CorelCorpID_0Corel-Layer"/>
  <path class="fil0" d="M349 1331c27,20 21,48 -14,64 -35,15 -86,12 -114,-8 -145,-102 -220,-272 -221,-447 -2,-334 257,-552 576,-561 77,-2 152,8 226,31 25,-52 51,-114 51,-172 0,-80 -43,-147 -127,-147 -70,1 -129,48 -162,107 -13,24 -58,38 -101,30 -43,-7 -67,-33 -54,-57 63,-115 190,-170 317,-171 148,-1 291,76 289,238 -1,80 -37,165 -77,233 94,59 163,141 206,237 31,69 48,147 51,227 4,101 -15,201 -64,290 -61,108 -163,180 -303,180 -133,0 -219,-65 -266,-159 -30,-61 -42,-133 -42,-205 0,-103 26,-207 68,-293 42,-85 101,-163 160,-250 -54,-20 -114,-29 -172,-27 -251,8 -410,229 -413,469 -2,153 59,301 186,391zm522 -759c-52,76 -101,147 -135,224 -35,77 -54,161 -53,245 0,38 2,96 19,149 22,66 63,123 126,123 75,0 131,-77 164,-150 32,-73 44,-149 41,-228 -2,-60 -14,-119 -35,-175 -26,-71 -68,-136 -127,-188z"/>
 </g>
</svg>
