<?xml version="1.0" encoding="UTF-8"?>
<!DOCTYPE svg PUBLIC "-//W3C//DTD SVG 1.1//EN" "http://www.w3.org/Graphics/SVG/1.1/DTD/svg11.dtd">
<!-- Creator: CorelDRAW X8 -->
<svg xmlns="http://www.w3.org/2000/svg" xml:space="preserve" width="1186px" height="2048px" version="1.1" style="shape-rendering:geometricPrecision; text-rendering:geometricPrecision; image-rendering:optimizeQuality; fill-rule:evenodd; clip-rule:evenodd"
viewBox="0 0 1186 2048"
 xmlns:xlink="http://www.w3.org/1999/xlink">
 <defs>
  <style type="text/css">
   <![CDATA[
    .fil0 {fill:#E31E24;fill-rule:nonzero}
   ]]>
  </style>
 </defs>
 <g id="Layer_x0020_1">
  <metadata id="CorelCorpID_0Corel-Layer"/>
  <path class="fil0" d="M349 1998c27,19 21,48 -14,63 -40,18 -88,12 -123,-14 -115,-84 -180,-203 -203,-328 -25,-139 3,-286 74,-403 115,-190 308,-269 524,-269 64,1 127,7 185,22 28,-51 51,-125 44,-189 -7,-67 -47,-122 -126,-122 -65,0 -125,52 -155,107 -13,24 -58,37 -101,30 -43,-7 -67,-32 -54,-57 60,-110 181,-170 305,-171 138,-1 272,73 293,217 13,88 -23,169 -68,242 187,108 272,334 253,543 -19,210 -134,403 -366,403 -232,0 -330,-185 -327,-393 3,-237 108,-346 244,-524 -37,-12 -83,-17 -129,-16 -162,1 -283,66 -368,206 -64,105 -89,239 -66,365 20,113 78,217 178,288zm511 -777c-121,152 -206,264 -208,466 0,97 40,294 165,294 130,0 195,-213 204,-315 14,-153 -39,-346 -161,-445z"/>
 </g>
</svg>
