<?xml version="1.0" encoding="UTF-8"?>
<!DOCTYPE svg PUBLIC "-//W3C//DTD SVG 1.1//EN" "http://www.w3.org/Graphics/SVG/1.1/DTD/svg11.dtd">
<!-- Creator: CorelDRAW X8 -->
<svg xmlns="http://www.w3.org/2000/svg" xml:space="preserve" width="1918px" height="2048px" version="1.1" style="shape-rendering:geometricPrecision; text-rendering:geometricPrecision; image-rendering:optimizeQuality; fill-rule:evenodd; clip-rule:evenodd"
viewBox="0 0 1918 2048"
 xmlns:xlink="http://www.w3.org/1999/xlink">
 <defs>
  <style type="text/css">
   <![CDATA[
    .fil0 {fill:#E31E24;fill-rule:nonzero}
   ]]>
  </style>
 </defs>
 <g id="Layer_x0020_1">
  <metadata id="CorelCorpID_0Corel-Layer"/>
  <path class="fil0" d="M1573 1247c-109,139 -182,249 -184,440 -1,97 38,293 163,293 134,0 196,-219 201,-324 6,-157 -54,-311 -180,-409zm-122 -69c-94,-39 -202,-55 -310,-55 -76,0 -168,8 -243,27 160,111 242,302 242,494 0,91 -20,180 -58,250 -65,119 -178,176 -310,176 -131,0 -244,-57 -308,-175 -39,-70 -58,-158 -58,-249 0,-58 7,-117 22,-173 27,-99 77,-192 150,-265 21,-21 44,-40 69,-58 -32,-8 -66,-12 -102,-12 -240,-1 -375,245 -382,460 -4,143 40,323 177,395 33,17 34,45 4,64 -44,27 -96,15 -138,-11 -154,-94 -211,-279 -206,-451 10,-313 232,-549 546,-548 85,0 160,14 226,38 109,-39 256,-53 369,-53 129,0 258,18 373,60 39,-51 65,-137 57,-213 -7,-66 -47,-122 -127,-122 -65,0 -125,53 -154,107 -13,24 -59,38 -102,31 -42,-8 -67,-33 -54,-57 61,-111 181,-170 305,-171 138,-2 272,72 294,217 12,85 -28,189 -85,271 176,107 277,293 269,498 -7,211 -129,418 -365,418 -232,0 -328,-185 -325,-393 3,-227 99,-338 224,-500zm-678 30c-19,13 -37,28 -53,44 -63,63 -107,146 -131,234 -14,53 -21,107 -21,160 0,82 17,161 51,223 32,57 83,110 153,110 70,0 123,-53 154,-111 34,-63 52,-141 52,-224 0,-163 -68,-340 -205,-436z"/>
 </g>
</svg>
