<?xml version="1.0" encoding="UTF-8"?>
<!DOCTYPE svg PUBLIC "-//W3C//DTD SVG 1.1//EN" "http://www.w3.org/Graphics/SVG/1.1/DTD/svg11.dtd">
<!-- Creator: CorelDRAW X8 -->
<svg xmlns="http://www.w3.org/2000/svg" xml:space="preserve" width="1702px" height="2048px" version="1.1" style="shape-rendering:geometricPrecision; text-rendering:geometricPrecision; image-rendering:optimizeQuality; fill-rule:evenodd; clip-rule:evenodd"
viewBox="0 0 1702 2048"
 xmlns:xlink="http://www.w3.org/1999/xlink">
 <defs>
  <style type="text/css">
   <![CDATA[
    .fil0 {fill:#E31E24;fill-rule:nonzero}
   ]]>
  </style>
 </defs>
 <g id="Layer_x0020_1">
  <metadata id="CorelCorpID_0Corel-Layer"/>
  <path class="fil0" d="M1308 1069c29,-51 52,-125 45,-189 -8,-67 -48,-122 -127,-122 -65,0 -125,52 -155,107 -13,24 -58,37 -101,30 -43,-7 -67,-32 -54,-57 60,-110 181,-170 305,-171 138,-1 272,73 293,217 13,88 -22,169 -68,242 187,108 272,334 254,543 -19,210 -134,403 -366,403 -232,0 -330,-185 -328,-393 4,-237 108,-346 245,-524 -34,-11 -73,-16 -113,-16 -153,0 -272,86 -309,233 -17,71 -18,147 -17,220 2,278 -23,483 -368,480 -275,-3 -435,-230 -444,-485 -8,-226 107,-447 323,-529 36,-14 89,-16 120,10 25,21 14,49 -24,63 -180,66 -265,282 -256,461 8,156 102,387 283,389 220,2 205,-236 204,-394 -1,-75 0,-153 18,-227 54,-214 261,-312 466,-312 57,-1 120,6 174,21zm68 152c-121,152 -205,264 -207,466 -1,97 40,294 165,294 129,0 194,-213 203,-315 14,-153 -38,-346 -161,-445z"/>
 </g>
</svg>
