<?xml version="1.0" encoding="UTF-8"?>
<!DOCTYPE svg PUBLIC "-//W3C//DTD SVG 1.1//EN" "http://www.w3.org/Graphics/SVG/1.1/DTD/svg11.dtd">
<!-- Creator: CorelDRAW X8 -->
<svg xmlns="http://www.w3.org/2000/svg" xml:space="preserve" width="1726px" height="2048px" version="1.1" style="shape-rendering:geometricPrecision; text-rendering:geometricPrecision; image-rendering:optimizeQuality; fill-rule:evenodd; clip-rule:evenodd"
viewBox="0 0 1726 2048"
 xmlns:xlink="http://www.w3.org/1999/xlink">
 <defs>
  <style type="text/css">
   <![CDATA[
    .fil0 {fill:#393185;fill-rule:nonzero}
   ]]>
  </style>
 </defs>
 <g id="Layer_x0020_1">
  <metadata id="CorelCorpID_0Corel-Layer"/>
  <path class="fil0" d="M1152 866c-14,24 -59,37 -102,30 -43,-8 -67,-33 -54,-57 20,-36 47,-67 78,-92 62,-50 140,-77 219,-80 140,-5 290,74 304,226 18,228 -244,388 -315,604l76 0c88,0 205,19 288,102 52,51 80,121 80,191 1,69 -24,137 -78,190 -62,60 -151,92 -243,92 -109,0 -193,-43 -241,-118 -63,72 -159,118 -301,118 -142,0 -238,-46 -301,-118 -48,75 -132,117 -241,118 -92,0 -181,-32 -243,-92 -54,-53 -79,-121 -78,-190 0,-70 28,-140 80,-191 83,-83 200,-102 288,-102l83 0c5,-98 24,-193 66,-269 60,-108 167,-180 346,-180 179,0 285,71 345,179 11,18 20,38 27,58 49,-72 117,-149 160,-230 44,-84 75,-243 -38,-289 -67,-27 -159,12 -205,100zm106 913c0,70 21,121 53,156 24,26 59,46 95,46 33,0 70,-16 100,-46 41,-39 59,-93 58,-147 -2,-54 -23,-107 -59,-144 -50,-50 -111,-55 -148,-55l-82 0c-1,44 -4,88 -11,131 -4,21 -6,37 -6,59zm-145 -190c-167,0 -333,0 -500,-1 3,104 19,205 63,281 38,67 97,111 187,111 90,0 150,-44 188,-112 43,-75 59,-176 62,-279zm-662 -1l-82 0c-37,0 -98,6 -148,56 -36,37 -57,90 -59,144 -1,54 17,108 58,147 30,30 67,46 100,46 36,0 71,-21 95,-46 32,-35 53,-86 53,-156 0,-20 -2,-37 -5,-56 -7,-44 -11,-89 -12,-135zm163 -91c166,0 332,0 498,0 -5,-90 -21,-176 -59,-243 -38,-69 -98,-115 -190,-115 -92,0 -152,46 -191,116 -37,67 -54,153 -58,242z"/>
 </g>
</svg>
