<?xml version="1.0" encoding="UTF-8"?>
<!DOCTYPE svg PUBLIC "-//W3C//DTD SVG 1.1//EN" "http://www.w3.org/Graphics/SVG/1.1/DTD/svg11.dtd">
<!-- Creator: CorelDRAW X8 -->
<svg xmlns="http://www.w3.org/2000/svg" xml:space="preserve" width="1726px" height="1405px" version="1.1" style="shape-rendering:geometricPrecision; text-rendering:geometricPrecision; image-rendering:optimizeQuality; fill-rule:evenodd; clip-rule:evenodd"
viewBox="0 0 1726 1404"
 xmlns:xlink="http://www.w3.org/1999/xlink">
 <defs>
  <style type="text/css">
   <![CDATA[
    .fil0 {fill:#57A7B3;fill-rule:nonzero}
   ]]>
  </style>
 </defs>
 <g id="Layer_x0020_1">
  <metadata id="CorelCorpID_0Corel-Layer"/>
  <path class="fil0" d="M1164 1286c48,76 132,118 242,118 91,1 180,-31 242,-91 53,-53 79,-124 78,-192 -1,-70 -28,-138 -80,-189 -83,-83 -200,-102 -289,-102l-81 0c34,-95 89,-167 139,-240 40,-59 79,-118 110,-182 27,-54 49,-114 48,-176 -1,-55 -19,-100 -49,-136 -59,-68 -156,-96 -245,-96 -124,0 -250,57 -311,170 -13,24 11,49 54,57 43,7 88,-7 101,-31 32,-58 89,-104 158,-104 38,0 71,15 96,44 19,23 32,54 33,92 2,54 -18,109 -42,156 -29,61 -67,117 -105,173 -12,17 -22,33 -33,49 -6,-16 -13,-32 -22,-46 -60,-108 -166,-180 -345,-180 -179,0 -286,72 -346,181 -42,76 -61,171 -65,269l-83 0c-89,0 -206,19 -289,102 -52,51 -79,118 -80,189 -1,68 25,139 78,192 62,60 151,92 242,91 110,0 194,-42 242,-118 63,73 159,118 301,118 142,0 238,-45 301,-118zm-551 -365l500 0c-3,103 -19,204 -62,280 -38,67 -98,112 -188,112 -90,0 -149,-45 -187,-112 -44,-75 -60,-176 -63,-280zm-145 191c1,69 -21,120 -53,155 -24,26 -59,46 -95,46 -33,1 -70,-15 -100,-45 -41,-40 -59,-94 -57,-147 1,-55 22,-108 59,-145 49,-49 110,-55 147,-55l82 0c1,48 5,96 13,141 3,16 4,33 4,50zm644 -282l-498 0c5,-90 21,-176 58,-243 39,-69 99,-116 191,-116 92,0 152,47 190,116 38,67 54,153 59,243zm245 91c37,0 98,6 147,55 37,37 58,91 59,145 2,53 -16,107 -57,147 -30,30 -67,46 -100,45 -36,0 -71,-20 -95,-46 -32,-35 -54,-86 -53,-155 0,-17 1,-33 4,-50 8,-45 12,-93 13,-141l82 0z"/>
 </g>
</svg>
