<?xml version="1.0" encoding="UTF-8"?>
<!DOCTYPE svg PUBLIC "-//W3C//DTD SVG 1.1//EN" "http://www.w3.org/Graphics/SVG/1.1/DTD/svg11.dtd">
<!-- Creator: CorelDRAW X8 -->
<svg xmlns="http://www.w3.org/2000/svg" xml:space="preserve" width="1726px" height="2048px" version="1.1" style="shape-rendering:geometricPrecision; text-rendering:geometricPrecision; image-rendering:optimizeQuality; fill-rule:evenodd; clip-rule:evenodd"
viewBox="0 0 1726 2048"
 xmlns:xlink="http://www.w3.org/1999/xlink">
 <defs>
  <style type="text/css">
   <![CDATA[
    .fil0 {fill:#E31E24;fill-rule:nonzero}
   ]]>
  </style>
 </defs>
 <g id="Layer_x0020_1">
  <metadata id="CorelCorpID_0Corel-Layer"/>
  <path class="fil0" d="M369 1588c-37,0 -98,6 -148,56 -36,37 -57,90 -59,144 -1,54 17,108 58,147 30,30 67,46 100,46 36,0 71,-21 95,-46 37,-41 53,-97 53,-153 1,-61 -9,-125 -14,-194l-85 0zm788 -722c-13,24 -59,37 -101,30 -43,-8 -67,-33 -54,-57 20,-36 46,-67 78,-92 49,-40 112,-67 178,-76 74,-10 149,0 213,35 30,17 57,39 80,68 28,35 43,76 47,119 4,47 -4,97 -20,140 -30,81 -84,151 -141,223 -57,74 -117,150 -150,241l71 0c88,0 205,19 288,102 52,51 80,121 80,191 1,69 -24,137 -78,190 -62,60 -151,92 -243,92 -109,0 -193,-43 -241,-118 -63,72 -159,118 -301,118 -142,0 -238,-46 -301,-118 -48,75 -132,117 -241,118 -92,0 -181,-32 -243,-92 -54,-53 -79,-121 -78,-190 0,-70 28,-140 80,-191 83,-83 200,-102 288,-102l83 0c5,-98 24,-193 66,-269 60,-108 167,-180 346,-180 179,0 285,71 345,179 12,20 21,42 30,65 15,-25 32,-49 50,-72 54,-68 105,-134 131,-205 13,-36 20,-78 16,-117 -3,-32 -13,-63 -32,-87 -15,-18 -30,-31 -46,-40 -20,-11 -41,-14 -60,-12 -27,4 -57,18 -84,40 -22,18 -41,40 -56,67zm-543 631c166,0 332,0 498,0 -5,-90 -21,-176 -59,-243 -38,-69 -98,-115 -190,-115 -92,0 -152,46 -191,116 -37,67 -54,153 -58,242zm697 438c24,26 59,46 95,46 33,0 70,-16 100,-46 41,-39 59,-93 58,-147 -2,-54 -23,-107 -59,-144 -50,-49 -111,-55 -148,-55l-87 0c-4,41 -10,118 -12,177 -2,61 12,124 53,169zm-198 -346c-167,0 -333,0 -500,0 3,103 19,204 63,280 38,67 97,111 187,111 90,0 150,-44 188,-112 43,-75 59,-176 62,-279z"/>
 </g>
</svg>
