<?xml version="1.0" encoding="UTF-8"?>
<!DOCTYPE svg PUBLIC "-//W3C//DTD SVG 1.1//EN" "http://www.w3.org/Graphics/SVG/1.1/DTD/svg11.dtd">
<!-- Creator: CorelDRAW X8 -->
<svg xmlns="http://www.w3.org/2000/svg" xml:space="preserve" width="1772px" height="1024px" version="1.1" style="shape-rendering:geometricPrecision; text-rendering:geometricPrecision; image-rendering:optimizeQuality; fill-rule:evenodd; clip-rule:evenodd"
viewBox="0 0 1772 1024"
 xmlns:xlink="http://www.w3.org/1999/xlink">
 <defs>
  <style type="text/css">
   <![CDATA[
    .fil0 {fill:#CC6633;fill-rule:nonzero}
   ]]>
  </style>
 </defs>
 <g id="Layer_x0020_1">
  <metadata id="CorelCorpID_0Corel-Layer"/>
  <path class="fil0" d="M358 947c12,8 18,17 19,27 1,14 -9,27 -30,37 -16,7 -33,11 -49,11 -28,0 -56,-11 -81,-28 -143,-104 -219,-264 -217,-439 2,-131 39,-242 105,-330 115,-156 300,-222 487,-225 194,-3 383,71 497,233 57,80 88,173 98,270 25,4 50,6 75,6 28,0 56,-1 84,-3 -69,-40 -102,-106 -104,-175 -5,-148 129,-224 264,-225 132,0 265,72 266,218 1,118 -81,191 -183,232 -83,33 -179,45 -255,46 -47,1 -95,-1 -143,-6 -7,225 -126,428 -375,428 -193,0 -347,-125 -352,-322 -5,-181 139,-290 319,-296 84,-2 159,21 234,47 -14,-67 -39,-132 -78,-187 -81,-114 -205,-178 -344,-175 -140,3 -271,63 -352,184 -52,79 -80,177 -80,283 -1,154 64,301 195,389zm1149 -749c-71,0 -110,70 -110,133 0,64 39,133 110,133 70,0 109,-70 109,-133 0,-64 -39,-133 -109,-133zm-478 365c-73,-36 -164,-64 -238,-64 -111,0 -164,100 -164,199 0,106 70,235 189,235 160,0 215,-252 213,-370z"/>
 </g>
</svg>
