<?xml version="1.0" encoding="UTF-8"?>
<!DOCTYPE svg PUBLIC "-//W3C//DTD SVG 1.1//EN" "http://www.w3.org/Graphics/SVG/1.1/DTD/svg11.dtd">
<!-- Creator: CorelDRAW X8 -->
<svg xmlns="http://www.w3.org/2000/svg" xml:space="preserve" width="2335px" height="1026px" version="1.1" style="shape-rendering:geometricPrecision; text-rendering:geometricPrecision; image-rendering:optimizeQuality; fill-rule:evenodd; clip-rule:evenodd"
viewBox="0 0 2335 1026"
 xmlns:xlink="http://www.w3.org/1999/xlink">
 <defs>
  <style type="text/css">
   <![CDATA[
    .fil0 {fill:#CC6633;fill-rule:nonzero}
   ]]>
  </style>
 </defs>
 <g id="Layer_x0020_1">
  <metadata id="CorelCorpID_0Corel-Layer"/>
  <path class="fil0" d="M1155 0c194,-3 382,71 497,233 57,81 88,174 98,272 25,3 50,5 75,5 28,0 56,-1 84,-3 -69,-40 -102,-106 -105,-175 -4,-149 130,-225 265,-225 132,-1 265,71 266,218 1,118 -81,191 -183,232 -83,33 -179,45 -255,47 -47,1 -95,-2 -143,-6 -7,225 -126,428 -376,428 -192,0 -346,-125 -351,-322 -5,-182 139,-291 318,-296 85,-3 160,20 234,46 -13,-67 -38,-132 -78,-187 -80,-114 -204,-179 -343,-176 -174,4 -281,122 -281,302l0 587c0,25 -36,46 -81,46 -44,0 -81,-21 -81,-46l0 -611c0,-146 -69,-276 -233,-276 -131,0 -237,96 -284,214 -26,67 -36,142 -35,215 2,158 67,356 223,422 21,9 32,23 32,36 0,10 -5,20 -16,28 -18,13 -40,18 -63,18 -20,0 -40,-4 -56,-11 -194,-86 -280,-292 -283,-493 -1,-91 14,-183 51,-262 79,-168 248,-258 431,-258 124,0 238,31 323,125 91,-88 226,-125 350,-127zm914 198c-70,0 -109,70 -109,134 0,64 39,134 109,134 71,0 110,-71 110,-134 0,-64 -39,-134 -110,-134zm-478 367c-72,-36 -163,-65 -237,-65 -111,1 -164,101 -164,200 0,106 70,235 188,235 161,0 216,-253 213,-370z"/>
 </g>
</svg>
