<?xml version="1.0" encoding="UTF-8"?>
<!DOCTYPE svg PUBLIC "-//W3C//DTD SVG 1.1//EN" "http://www.w3.org/Graphics/SVG/1.1/DTD/svg11.dtd">
<!-- Creator: CorelDRAW X8 -->
<svg xmlns="http://www.w3.org/2000/svg" xml:space="preserve" width="919px" height="1381px" version="1.1" style="shape-rendering:geometricPrecision; text-rendering:geometricPrecision; image-rendering:optimizeQuality; fill-rule:evenodd; clip-rule:evenodd"
viewBox="0 0 919 1381"
 xmlns:xlink="http://www.w3.org/1999/xlink">
 <defs>
  <style type="text/css">
   <![CDATA[
    .fil0 {fill:#2B2A29;fill-rule:nonzero}
   ]]>
  </style>
 </defs>
 <g id="Layer_x0020_1">
  <metadata id="CorelCorpID_0Corel-Layer"/>
  <path class="fil0" d="M831 1381c45,0 81,-20 81,-46 0,-25 -36,-45 -81,-45l-667 0c4,-109 25,-183 57,-237 51,-86 141,-124 226,-166 209,-105 472,-235 472,-488 0,-249 -219,-399 -453,-399 -94,0 -184,17 -262,61 -109,60 -197,193 -197,320 0,14 1,28 3,41 4,24 39,41 81,41 26,0 80,-11 80,-45 0,-10 -2,-20 -2,-31 0,-83 49,-189 113,-238 51,-40 112,-58 184,-58 167,0 289,143 289,305 0,216 -232,331 -416,422 -106,53 -208,99 -272,206 -42,71 -67,168 -67,311 0,26 37,46 82,46l749 0z"/>
 </g>
</svg>
