<?xml version="1.0" encoding="UTF-8"?>
<!DOCTYPE svg PUBLIC "-//W3C//DTD SVG 1.1//EN" "http://www.w3.org/Graphics/SVG/1.1/DTD/svg11.dtd">
<!-- Creator: CorelDRAW X8 -->
<svg xmlns="http://www.w3.org/2000/svg" xml:space="preserve" width="453px" height="653px" version="1.1" style="shape-rendering:geometricPrecision; text-rendering:geometricPrecision; image-rendering:optimizeQuality; fill-rule:evenodd; clip-rule:evenodd"
viewBox="0 0 453 653"
 xmlns:xlink="http://www.w3.org/1999/xlink">
 <defs>
  <style type="text/css">
   <![CDATA[
    .fil0 {fill:#2B2A29;fill-rule:nonzero}
   ]]>
  </style>
 </defs>
 <g id="Layer_x0020_1">
  <metadata id="CorelCorpID_0Corel-Layer"/>
  <path class="fil0" d="M398 653c16,0 52,-8 52,-30 0,-21 -36,-29 -52,-29l-292 0c2,-33 8,-69 25,-98 22,-37 63,-55 100,-73 43,-21 91,-45 132,-76 51,-39 90,-87 90,-154 0,-43 -15,-86 -43,-118 -43,-50 -112,-75 -181,-75 -45,0 -91,8 -131,30 -53,29 -95,93 -95,155 0,6 0,13 1,19 4,20 35,26 53,26 17,0 52,-8 52,-29l0 -9c0,-41 14,-84 48,-110 21,-17 45,-23 72,-23 38,0 71,20 92,50 18,25 26,49 26,80 -1,45 -20,79 -49,107 -37,35 -90,60 -137,83 -51,25 -99,47 -130,98 -25,44 -31,97 -31,146 0,22 36,30 52,30l346 0z"/>
 </g>
</svg>
