<?xml version="1.0" encoding="UTF-8"?>
<!DOCTYPE svg PUBLIC "-//W3C//DTD SVG 1.1//EN" "http://www.w3.org/Graphics/SVG/1.1/DTD/svg11.dtd">
<!-- Creator: CorelDRAW X8 -->
<svg xmlns="http://www.w3.org/2000/svg" xml:space="preserve" width="909px" height="1406px" version="1.1" style="shape-rendering:geometricPrecision; text-rendering:geometricPrecision; image-rendering:optimizeQuality; fill-rule:evenodd; clip-rule:evenodd"
viewBox="0 0 908 1405"
 xmlns:xlink="http://www.w3.org/1999/xlink">
 <defs>
  <style type="text/css">
   <![CDATA[
    .fil0 {fill:#2B2A29;fill-rule:nonzero}
   ]]>
  </style>
 </defs>
 <g id="Layer_x0020_1">
  <metadata id="CorelCorpID_0Corel-Layer"/>
  <path class="fil0" d="M469 1405c157,0 299,-66 377,-180 42,-62 62,-136 62,-211 0,-75 -19,-149 -61,-211 -41,-60 -100,-107 -173,-137 117,-58 197,-164 197,-297 0,-244 -215,-369 -437,-369 -243,0 -433,128 -433,379 0,9 0,18 0,27 1,24 37,44 81,44 26,0 83,-11 82,-46l-1 -23c-6,-157 101,-290 260,-290 162,0 285,112 286,276 0,116 -71,208 -180,244 -25,8 -45,12 -66,14 -20,3 -41,4 -65,5 -43,2 -77,21 -77,45 0,25 36,46 81,46l62 -1c23,0 45,2 66,6 134,27 214,138 217,286 3,157 -105,302 -278,302 -181,0 -306,-117 -306,-303 0,-26 -37,-46 -82,-46 -45,0 -81,20 -81,46 0,268 224,394 469,394z"/>
 </g>
</svg>
