<?xml version="1.0" encoding="UTF-8"?>
<!DOCTYPE svg PUBLIC "-//W3C//DTD SVG 1.1//EN" "http://www.w3.org/Graphics/SVG/1.1/DTD/svg11.dtd">
<!-- Creator: CorelDRAW X8 -->
<svg xmlns="http://www.w3.org/2000/svg" xml:space="preserve" width="457px" height="677px" version="1.1" style="shape-rendering:geometricPrecision; text-rendering:geometricPrecision; image-rendering:optimizeQuality; fill-rule:evenodd; clip-rule:evenodd"
viewBox="0 0 457 677"
 xmlns:xlink="http://www.w3.org/1999/xlink">
 <defs>
  <style type="text/css">
   <![CDATA[
    .fil0 {fill:#2B2A29;fill-rule:nonzero}
   ]]>
  </style>
 </defs>
 <g id="Layer_x0020_1">
  <metadata id="CorelCorpID_0Corel-Layer"/>
  <path class="fil0" d="M235 677c114,0 222,-69 222,-193 0,-72 -38,-131 -103,-163 52,-30 85,-79 85,-140 0,-125 -114,-181 -225,-181 -56,1 -114,17 -157,55 -38,34 -57,80 -57,129 0,5 0,11 1,16 2,25 33,28 54,28 18,0 52,-8 52,-29l0 -11c0,-33 9,-66 29,-91 19,-23 45,-37 75,-37 71,0 122,49 122,121 0,59 -40,102 -97,112 -12,2 -23,2 -35,3 -17,1 -50,9 -50,30 0,22 36,30 53,30l31 -1c71,0 116,61 116,129 0,67 -43,133 -116,133 -80,0 -129,-55 -129,-134 0,-22 -36,-30 -53,-30 -17,0 -53,8 -53,30 0,133 115,194 235,194z"/>
 </g>
</svg>
