<?xml version="1.0" encoding="UTF-8"?>
<!DOCTYPE svg PUBLIC "-//W3C//DTD SVG 1.1//EN" "http://www.w3.org/Graphics/SVG/1.1/DTD/svg11.dtd">
<!-- Creator: CorelDRAW X8 -->
<svg xmlns="http://www.w3.org/2000/svg" xml:space="preserve" width="457px" height="677px" version="1.1" style="shape-rendering:geometricPrecision; text-rendering:geometricPrecision; image-rendering:optimizeQuality; fill-rule:evenodd; clip-rule:evenodd"
viewBox="0 0 457 677"
 xmlns:xlink="http://www.w3.org/1999/xlink">
 <defs>
  <style type="text/css">
   <![CDATA[
    .fil0 {fill:#009846;fill-rule:nonzero}
   ]]>
  </style>
 </defs>
 <g id="Layer_x0020_1">
  <metadata id="CorelCorpID_0Corel-Layer"/>
  <path class="fil0" d="M107 198c1,22 -34,30 -52,30 -17,1 -53,-6 -54,-29 -4,-55 14,-107 56,-144 43,-38 101,-54 157,-55 111,-1 225,57 225,181 0,61 -33,110 -85,140 65,32 103,91 103,163 0,124 -108,193 -222,193 -120,0 -235,-61 -235,-194 0,-22 36,-30 53,-30 17,0 53,8 53,30 0,79 49,134 129,134 73,0 116,-66 116,-133 0,-58 -31,-111 -90,-126 -19,-5 -37,-2 -57,-2 -17,0 -53,-8 -53,-30 0,-21 33,-29 50,-30 19,-1 36,-2 55,-8 47,-16 77,-57 77,-107 0,-69 -49,-121 -119,-121 -31,-1 -58,13 -78,37 -22,28 -31,65 -29,101z"/>
 </g>
</svg>
