<?xml version="1.0" encoding="UTF-8"?>
<!DOCTYPE svg PUBLIC "-//W3C//DTD SVG 1.1//EN" "http://www.w3.org/Graphics/SVG/1.1/DTD/svg11.dtd">
<!-- Creator: CorelDRAW X8 -->
<svg xmlns="http://www.w3.org/2000/svg" xml:space="preserve" width="1056px" height="1405px" version="1.1" style="shape-rendering:geometricPrecision; text-rendering:geometricPrecision; image-rendering:optimizeQuality; fill-rule:evenodd; clip-rule:evenodd"
viewBox="0 0 1056 1405"
 xmlns:xlink="http://www.w3.org/1999/xlink">
 <defs>
  <style type="text/css">
   <![CDATA[
    .fil0 {fill:#CC6633;fill-rule:nonzero}
   ]]>
  </style>
 </defs>
 <g id="Layer_x0020_1">
  <metadata id="CorelCorpID_0Corel-Layer"/>
  <path class="fil0" d="M809 1358c0,26 -37,47 -82,47 -45,0 -81,-21 -81,-47l0 -316 -564 0c-45,0 -82,-21 -82,-46 0,-6 3,-12 7,-18l642 -945c12,-18 41,-33 78,-33 45,0 82,21 82,47l0 903 165 0c45,0 82,21 82,46 0,25 -37,46 -82,46l-165 0 0 316zm-649 -408l486 0 0 -715 -486 715z"/>
 </g>
</svg>
