<?xml version="1.0" encoding="UTF-8"?>
<!DOCTYPE svg PUBLIC "-//W3C//DTD SVG 1.1//EN" "http://www.w3.org/Graphics/SVG/1.1/DTD/svg11.dtd">
<!-- Creator: CorelDRAW X8 -->
<svg xmlns="http://www.w3.org/2000/svg" xml:space="preserve" width="1056px" height="1405px" version="1.1" style="shape-rendering:geometricPrecision; text-rendering:geometricPrecision; image-rendering:optimizeQuality; fill-rule:evenodd; clip-rule:evenodd"
viewBox="0 0 1056 1405"
 xmlns:xlink="http://www.w3.org/1999/xlink">
 <defs>
  <style type="text/css">
   <![CDATA[
    .fil0 {fill:#2B2A29;fill-rule:nonzero}
   ]]>
  </style>
 </defs>
 <g id="Layer_x0020_1">
  <metadata id="CorelCorpID_0Corel-Layer"/>
  <path class="fil0" d="M809 1359l0 -317 165 0c46,0 82,-20 82,-46 0,-25 -36,-45 -82,-45l-165 0 0 -904c0,-26 -37,-47 -82,-47 -37,0 -66,15 -78,33l-642 945c-4,6 -7,12 -7,18 0,26 36,46 82,46l564 0 0 317c0,25 36,46 81,46 45,0 82,-21 82,-46zm-649 -408l486 -716 0 716 -486 0z"/>
 </g>
</svg>
