<?xml version="1.0" encoding="UTF-8"?>
<!DOCTYPE svg PUBLIC "-//W3C//DTD SVG 1.1//EN" "http://www.w3.org/Graphics/SVG/1.1/DTD/svg11.dtd">
<!-- Creator: CorelDRAW X8 -->
<svg xmlns="http://www.w3.org/2000/svg" xml:space="preserve" width="526px" height="677px" version="1.1" style="shape-rendering:geometricPrecision; text-rendering:geometricPrecision; image-rendering:optimizeQuality; fill-rule:evenodd; clip-rule:evenodd"
viewBox="0 0 526 677"
 xmlns:xlink="http://www.w3.org/1999/xlink">
 <defs>
  <style type="text/css">
   <![CDATA[
    .fil0 {fill:#2B2A29;fill-rule:nonzero}
   ]]>
  </style>
 </defs>
 <g id="Layer_x0020_1">
  <metadata id="CorelCorpID_0Corel-Layer"/>
  <path class="fil0" d="M410 647l0 -141 63 0c17,0 53,-7 53,-30 0,-22 -36,-29 -53,-29l-63 0 0 -417c0,-22 -36,-30 -53,-30 -18,0 -41,6 -51,21l-302 444c-2,3 -4,7 -4,11 0,23 36,30 53,30l250 0 0 141c0,22 36,30 54,30 17,0 53,-8 53,-30zm-313 -200l206 -307 0 307 -206 0z"/>
 </g>
</svg>
