<?xml version="1.0" encoding="UTF-8"?>
<!DOCTYPE svg PUBLIC "-//W3C//DTD SVG 1.1//EN" "http://www.w3.org/Graphics/SVG/1.1/DTD/svg11.dtd">
<!-- Creator: CorelDRAW X8 -->
<svg xmlns="http://www.w3.org/2000/svg" xml:space="preserve" width="933px" height="1381px" version="1.1" style="shape-rendering:geometricPrecision; text-rendering:geometricPrecision; image-rendering:optimizeQuality; fill-rule:evenodd; clip-rule:evenodd"
viewBox="0 0 933 1381"
 xmlns:xlink="http://www.w3.org/1999/xlink">
 <defs>
  <style type="text/css">
   <![CDATA[
    .fil0 {fill:#898778;fill-rule:nonzero}
   ]]>
  </style>
 </defs>
 <g id="Layer_x0020_1">
  <metadata id="CorelCorpID_0Corel-Layer"/>
  <path class="fil0" d="M44 717l89 -672c3,-25 37,-45 81,-45l593 0c45,0 81,20 81,46 0,25 -36,45 -81,45l-517 0 -60 456c78,-38 167,-54 257,-50 255,12 446,180 446,442 0,271 -205,439 -467,442 -214,2 -414,-112 -465,-329 -9,-38 54,-51 80,-51 41,0 75,16 81,39 33,143 151,251 301,250 193,-2 307,-169 307,-351 0,-178 -107,-342 -296,-351 -108,-5 -208,49 -267,140 -21,32 -39,43 -77,43 -33,0 -92,-9 -86,-54z"/>
 </g>
</svg>
