<?xml version="1.0" encoding="UTF-8"?>
<!DOCTYPE svg PUBLIC "-//W3C//DTD SVG 1.1//EN" "http://www.w3.org/Graphics/SVG/1.1/DTD/svg11.dtd">
<!-- Creator: CorelDRAW X8 -->
<svg xmlns="http://www.w3.org/2000/svg" xml:space="preserve" width="933px" height="1381px" version="1.1" style="shape-rendering:geometricPrecision; text-rendering:geometricPrecision; image-rendering:optimizeQuality; fill-rule:evenodd; clip-rule:evenodd"
viewBox="0 0 933 1381"
 xmlns:xlink="http://www.w3.org/1999/xlink">
 <defs>
  <style type="text/css">
   <![CDATA[
    .fil0 {fill:#2B2A29;fill-rule:nonzero}
   ]]>
  </style>
 </defs>
 <g id="Layer_x0020_1">
  <metadata id="CorelCorpID_0Corel-Layer"/>
  <path class="fil0" d="M933 939c0,-284 -223,-443 -473,-443 -79,0 -156,16 -231,51l61 -456 517 0c45,0 81,-20 81,-45 0,-26 -36,-46 -81,-46l-593 0c-44,0 -78,20 -81,45l-88 660c-1,7 -1,13 -1,19 0,38 52,47 82,47 41,0 58,-8 81,-43 56,-87 151,-140 253,-140 196,0 310,168 310,351 0,184 -115,351 -311,351 -148,0 -264,-107 -297,-249 -6,-23 -41,-40 -81,-40 -23,0 -81,12 -81,43 0,6 2,12 4,21 56,207 249,316 456,316 264,0 473,-167 473,-442z"/>
 </g>
</svg>
