<?xml version="1.0" encoding="UTF-8"?>
<!DOCTYPE svg PUBLIC "-//W3C//DTD SVG 1.1//EN" "http://www.w3.org/Graphics/SVG/1.1/DTD/svg11.dtd">
<!-- Creator: CorelDRAW X8 -->
<svg xmlns="http://www.w3.org/2000/svg" xml:space="preserve" width="460px" height="653px" version="1.1" style="shape-rendering:geometricPrecision; text-rendering:geometricPrecision; image-rendering:optimizeQuality; fill-rule:evenodd; clip-rule:evenodd"
viewBox="0 0 460 653"
 xmlns:xlink="http://www.w3.org/1999/xlink">
 <defs>
  <style type="text/css">
   <![CDATA[
    .fil0 {fill:#009846;fill-rule:nonzero}
   ]]>
  </style>
 </defs>
 <g id="Layer_x0020_1">
  <metadata id="CorelCorpID_0Corel-Layer"/>
  <path class="fil0" d="M20 338l41 -310c3,-21 35,-28 53,-28l273 0c16,0 52,7 52,30 0,22 -36,29 -52,29l-225 0 -24 184c33,-11 68,-16 102,-14 123,6 220,84 220,212 0,133 -104,211 -230,212 -104,1 -204,-52 -229,-159 -6,-24 33,-33 50,-33 19,0 49,6 53,26 14,58 62,108 124,107 82,0 127,-79 127,-153 0,-73 -43,-150 -123,-153 -44,-2 -84,22 -107,58 -16,25 -38,29 -65,25 -17,-2 -43,-11 -40,-33z"/>
 </g>
</svg>
