<?xml version="1.0" encoding="UTF-8"?>
<!DOCTYPE svg PUBLIC "-//W3C//DTD SVG 1.1//EN" "http://www.w3.org/Graphics/SVG/1.1/DTD/svg11.dtd">
<!-- Creator: CorelDRAW X8 -->
<svg xmlns="http://www.w3.org/2000/svg" xml:space="preserve" width="460px" height="653px" version="1.1" style="shape-rendering:geometricPrecision; text-rendering:geometricPrecision; image-rendering:optimizeQuality; fill-rule:evenodd; clip-rule:evenodd"
viewBox="0 0 460 653"
 xmlns:xlink="http://www.w3.org/1999/xlink">
 <defs>
  <style type="text/css">
   <![CDATA[
    .fil0 {fill:#2B2A29;fill-rule:nonzero}
   ]]>
  </style>
 </defs>
 <g id="Layer_x0020_1">
  <metadata id="CorelCorpID_0Corel-Layer"/>
  <path class="fil0" d="M460 441c0,-136 -105,-212 -233,-212 -29,0 -61,5 -89,14l24 -184 225 0c16,0 52,-7 52,-29 0,-23 -36,-30 -52,-30l-273 0c-18,0 -50,7 -53,28l-40 304c0,3 -1,9 -1,13 0,23 38,27 57,27 19,0 35,-6 48,-26 22,-35 60,-58 102,-58 83,0 128,78 128,153 0,76 -45,153 -128,153 -61,0 -110,-50 -123,-107 -5,-20 -34,-26 -53,-26 -16,0 -51,8 -51,28 0,12 15,46 21,57 40,71 121,107 206,107 127,0 233,-78 233,-212z"/>
 </g>
</svg>
