<?xml version="1.0" encoding="UTF-8"?>
<!DOCTYPE svg PUBLIC "-//W3C//DTD SVG 1.1//EN" "http://www.w3.org/Graphics/SVG/1.1/DTD/svg11.dtd">
<!-- Creator: CorelDRAW X8 -->
<svg xmlns="http://www.w3.org/2000/svg" xml:space="preserve" width="957px" height="1405px" version="1.1" style="shape-rendering:geometricPrecision; text-rendering:geometricPrecision; image-rendering:optimizeQuality; fill-rule:evenodd; clip-rule:evenodd"
viewBox="0 0 956 1403"
 xmlns:xlink="http://www.w3.org/1999/xlink">
 <defs>
  <style type="text/css">
   <![CDATA[
    .fil0 {fill:#898778;fill-rule:nonzero}
   ]]>
  </style>
 </defs>
 <g id="Layer_x0020_1">
  <metadata id="CorelCorpID_0Corel-Layer"/>
  <path class="fil0" d="M34 423c66,-250 227,-424 495,-423 192,1 354,110 399,301 9,37 -53,51 -80,51 -40,0 -75,-17 -81,-40 -26,-113 -115,-221 -239,-221 -187,-1 -291,186 -333,345 -20,75 -32,159 -35,242 72,-103 191,-167 340,-167 125,0 234,40 314,112 88,78 142,193 142,334 0,112 -34,208 -92,282 -82,104 -212,164 -364,164 -159,0 -273,-53 -351,-145 -66,-78 -104,-175 -126,-276 -18,-90 -24,-184 -23,-271 1,-103 12,-206 34,-288zm759 534c0,-175 -102,-355 -293,-355 -191,0 -292,180 -292,355 0,175 101,355 292,355 191,0 293,-180 293,-355z"/>
 </g>
</svg>
