<?xml version="1.0" encoding="UTF-8"?>
<!DOCTYPE svg PUBLIC "-//W3C//DTD SVG 1.1//EN" "http://www.w3.org/Graphics/SVG/1.1/DTD/svg11.dtd">
<!-- Creator: CorelDRAW X8 -->
<svg xmlns="http://www.w3.org/2000/svg" xml:space="preserve" width="957px" height="1405px" version="1.1" style="shape-rendering:geometricPrecision; text-rendering:geometricPrecision; image-rendering:optimizeQuality; fill-rule:evenodd; clip-rule:evenodd"
viewBox="0 0 957 1405"
 xmlns:xlink="http://www.w3.org/1999/xlink">
 <defs>
  <style type="text/css">
   <![CDATA[
    .fil0 {fill:#2B2A29;fill-rule:nonzero}
   ]]>
  </style>
 </defs>
 <g id="Layer_x0020_1">
  <metadata id="CorelCorpID_0Corel-Layer"/>
  <path class="fil0" d="M501 1405c153,0 283,-60 364,-164 59,-74 92,-170 92,-283 0,-141 -53,-256 -141,-335 -81,-71 -190,-111 -315,-111 -150,0 -269,64 -340,167 3,-83 14,-167 34,-242 43,-159 146,-346 333,-346 125,0 214,109 241,222 5,23 40,39 80,39 25,0 82,-12 82,-44 -1,-7 -2,-13 -4,-19 -50,-186 -211,-289 -399,-289 -267,0 -427,175 -494,424 -22,82 -33,185 -34,288 0,87 5,181 24,271 21,102 59,199 125,277 79,92 192,145 352,145zm0 -91c-191,0 -293,-180 -293,-356 0,-175 102,-355 293,-355 192,0 293,180 293,355 0,176 -101,356 -293,356z"/>
 </g>
</svg>
