<?xml version="1.0" encoding="UTF-8"?>
<!DOCTYPE svg PUBLIC "-//W3C//DTD SVG 1.1//EN" "http://www.w3.org/Graphics/SVG/1.1/DTD/svg11.dtd">
<!-- Creator: CorelDRAW X8 -->
<svg xmlns="http://www.w3.org/2000/svg" xml:space="preserve" width="478px" height="677px" version="1.1" style="shape-rendering:geometricPrecision; text-rendering:geometricPrecision; image-rendering:optimizeQuality; fill-rule:evenodd; clip-rule:evenodd"
viewBox="0 0 478 677"
 xmlns:xlink="http://www.w3.org/1999/xlink">
 <defs>
  <style type="text/css">
   <![CDATA[
    .fil0 {fill:#009846;fill-rule:nonzero}
   ]]>
  </style>
 </defs>
 <g id="Layer_x0020_1">
  <metadata id="CorelCorpID_0Corel-Layer"/>
  <path class="fil0" d="M30 165c40,-105 118,-165 232,-165 96,1 180,53 203,149 6,24 -34,33 -51,33 -20,0 -50,-6 -54,-26 -11,-44 -48,-96 -98,-96 -70,-1 -116,61 -137,121 -13,38 -17,77 -19,110 40,-36 91,-50 143,-50 130,0 229,84 229,218 0,132 -98,218 -229,218 -137,0 -211,-77 -237,-206 -8,-38 -12,-84 -12,-130 1,-60 8,-120 30,-176zm341 294c0,-72 -40,-159 -122,-159 -82,0 -123,87 -123,159 0,72 41,158 123,158 82,0 122,-86 122,-158z"/>
 </g>
</svg>
