<?xml version="1.0" encoding="UTF-8"?>
<!DOCTYPE svg PUBLIC "-//W3C//DTD SVG 1.1//EN" "http://www.w3.org/Graphics/SVG/1.1/DTD/svg11.dtd">
<!-- Creator: CorelDRAW X8 -->
<svg xmlns="http://www.w3.org/2000/svg" xml:space="preserve" width="966px" height="1381px" version="1.1" style="shape-rendering:geometricPrecision; text-rendering:geometricPrecision; image-rendering:optimizeQuality; fill-rule:evenodd; clip-rule:evenodd"
viewBox="0 0 966 1381"
 xmlns:xlink="http://www.w3.org/1999/xlink">
 <defs>
  <style type="text/css">
   <![CDATA[
    .fil0 {fill:#2B2A29;fill-rule:nonzero}
   ]]>
  </style>
 </defs>
 <g id="Layer_x0020_1">
  <metadata id="CorelCorpID_0Corel-Layer"/>
  <path class="fil0" d="M412 1381c43,0 78,-20 79,-44 15,-275 57,-503 134,-707 76,-202 185,-382 332,-563 7,-8 9,-15 9,-22 0,-14 -10,-25 -23,-32 -19,-10 -44,-13 -59,-13l-802 0c-45,0 -82,20 -82,46 0,25 37,45 82,45l678 0c-127,167 -223,334 -294,521 -79,209 -125,441 -138,722 -2,37 56,48 84,47z"/>
 </g>
</svg>
