<?xml version="1.0" encoding="UTF-8"?>
<!DOCTYPE svg PUBLIC "-//W3C//DTD SVG 1.1//EN" "http://www.w3.org/Graphics/SVG/1.1/DTD/svg11.dtd">
<!-- Creator: CorelDRAW X8 -->
<svg xmlns="http://www.w3.org/2000/svg" xml:space="preserve" width="966px" height="1381px" version="1.1" style="shape-rendering:geometricPrecision; text-rendering:geometricPrecision; image-rendering:optimizeQuality; fill-rule:evenodd; clip-rule:evenodd"
viewBox="0 0 966 1381"
 xmlns:xlink="http://www.w3.org/1999/xlink">
 <defs>
  <style type="text/css">
   <![CDATA[
    .fil0 {fill:#CC6633;fill-rule:nonzero}
   ]]>
  </style>
 </defs>
 <g id="Layer_x0020_1">
  <metadata id="CorelCorpID_0Corel-Layer"/>
  <path class="fil0" d="M82 91c-45,0 -82,-20 -82,-45 0,-26 37,-46 82,-46l802 0c45,0 82,20 82,46 0,7 -4,14 -9,21 -147,181 -256,361 -332,563 -77,204 -120,432 -134,707 -2,24 -36,43 -79,44 -27,0 -86,-11 -84,-47 15,-281 59,-513 138,-722 70,-187 167,-354 294,-521l-678 0z"/>
 </g>
</svg>
