<?xml version="1.0" encoding="UTF-8"?>
<!DOCTYPE svg PUBLIC "-//W3C//DTD SVG 1.1//EN" "http://www.w3.org/Graphics/SVG/1.1/DTD/svg11.dtd">
<!-- Creator: CorelDRAW X8 -->
<svg xmlns="http://www.w3.org/2000/svg" xml:space="preserve" width="966px" height="1381px" version="1.1" style="shape-rendering:geometricPrecision; text-rendering:geometricPrecision; image-rendering:optimizeQuality; fill-rule:evenodd; clip-rule:evenodd"
viewBox="0 0 966 1381"
 xmlns:xlink="http://www.w3.org/1999/xlink">
 <defs>
  <style type="text/css">
   <![CDATA[
    .fil0 {fill:#898778;fill-rule:nonzero}
   ]]>
  </style>
 </defs>
 <g id="Layer_x0020_1">
  <metadata id="CorelCorpID_0Corel-Layer"/>
  <path class="fil0" d="M82 91c-46,0 -82,-20 -82,-45 0,-26 36,-46 82,-46l802 0c23,0 44,5 59,14 23,13 31,32 14,53 -147,181 -256,361 -332,563 -77,204 -120,432 -134,707 -2,24 -36,44 -79,44 -27,1 -86,-11 -84,-46 15,-282 59,-514 138,-723 70,-187 167,-354 294,-521l-678 0z"/>
 </g>
</svg>
