<?xml version="1.0" encoding="UTF-8"?>
<!DOCTYPE svg PUBLIC "-//W3C//DTD SVG 1.1//EN" "http://www.w3.org/Graphics/SVG/1.1/DTD/svg11.dtd">
<!-- Creator: CorelDRAW X8 -->
<svg xmlns="http://www.w3.org/2000/svg" xml:space="preserve" width="475px" height="653px" version="1.1" style="shape-rendering:geometricPrecision; text-rendering:geometricPrecision; image-rendering:optimizeQuality; fill-rule:evenodd; clip-rule:evenodd"
viewBox="0 0 475 653"
 xmlns:xlink="http://www.w3.org/1999/xlink">
 <defs>
  <style type="text/css">
   <![CDATA[
    .fil0 {fill:#2B2A29;fill-rule:nonzero}
   ]]>
  </style>
 </defs>
 <g id="Layer_x0020_1">
  <metadata id="CorelCorpID_0Corel-Layer"/>
  <path class="fil0" d="M202 653c17,0 53,-7 54,-29 3,-51 8,-101 16,-151 10,-59 24,-117 46,-173 36,-95 87,-178 151,-257 4,-5 6,-10 6,-14 0,-10 -9,-17 -19,-22 -12,-5 -26,-7 -34,-7l-369 0c-17,0 -53,7 -53,30 0,22 36,29 53,29l289 0c-52,71 -96,147 -127,229 -21,58 -36,116 -47,176 -9,52 -17,105 -17,159 0,22 33,30 51,30z"/>
 </g>
</svg>
