<?xml version="1.0" encoding="UTF-8"?>
<!DOCTYPE svg PUBLIC "-//W3C//DTD SVG 1.1//EN" "http://www.w3.org/Graphics/SVG/1.1/DTD/svg11.dtd">
<!-- Creator: CorelDRAW X8 -->
<svg xmlns="http://www.w3.org/2000/svg" xml:space="preserve" width="476px" height="677px" version="1.1" style="shape-rendering:geometricPrecision; text-rendering:geometricPrecision; image-rendering:optimizeQuality; fill-rule:evenodd; clip-rule:evenodd"
viewBox="0 0 476 677"
 xmlns:xlink="http://www.w3.org/1999/xlink">
 <defs>
  <style type="text/css">
   <![CDATA[
    .fil0 {fill:#2B2A29;fill-rule:nonzero}
   ]]>
  </style>
 </defs>
 <g id="Layer_x0020_1">
  <metadata id="CorelCorpID_0Corel-Layer"/>
  <path class="fil0" d="M458 177c0,-120 -113,-177 -220,-177 -107,0 -220,57 -220,177 0,65 34,115 90,145 -66,32 -108,88 -108,164 0,129 123,191 238,191 115,0 238,-62 238,-191 0,-76 -42,-132 -108,-164 56,-30 90,-80 90,-145zm-106 0c0,66 -47,117 -114,117 -67,0 -114,-51 -114,-117 0,-67 47,-117 114,-117 67,0 114,50 114,117zm17 309c0,76 -54,131 -131,131 -77,0 -131,-55 -131,-131 0,-77 54,-132 131,-132 77,0 131,55 131,132z"/>
 </g>
</svg>
