<?xml version="1.0" encoding="UTF-8"?>
<!DOCTYPE svg PUBLIC "-//W3C//DTD SVG 1.1//EN" "http://www.w3.org/Graphics/SVG/1.1/DTD/svg11.dtd">
<!-- Creator: CorelDRAW X8 -->
<svg xmlns="http://www.w3.org/2000/svg" xml:space="preserve" width="957px" height="1405px" version="1.1" style="shape-rendering:geometricPrecision; text-rendering:geometricPrecision; image-rendering:optimizeQuality; fill-rule:evenodd; clip-rule:evenodd"
viewBox="0 0 957 1405"
 xmlns:xlink="http://www.w3.org/1999/xlink">
 <defs>
  <style type="text/css">
   <![CDATA[
    .fil0 {fill:#898778;fill-rule:nonzero}
   ]]>
  </style>
 </defs>
 <g id="Layer_x0020_1">
  <metadata id="CorelCorpID_0Corel-Layer"/>
  <path class="fil0" d="M923 981c-67,250 -228,425 -496,424 -192,-1 -354,-110 -400,-301 -8,-37 54,-51 81,-51 40,0 75,16 80,39 27,113 116,221 240,222 187,1 292,-187 334,-346 20,-75 32,-159 35,-242 -72,103 -191,167 -341,167 -125,0 -234,-40 -315,-111 -88,-79 -141,-194 -141,-335 0,-113 34,-209 92,-283 82,-104 212,-164 364,-164 160,0 273,53 352,145 66,78 104,175 125,277 19,90 25,184 24,271 -1,103 -12,206 -34,288zm-760 -534c0,175 102,355 293,355 191,0 293,-180 293,-355 0,-176 -102,-356 -293,-356 -191,0 -293,180 -293,356z"/>
 </g>
</svg>
