<?xml version="1.0" encoding="UTF-8"?>
<!DOCTYPE svg PUBLIC "-//W3C//DTD SVG 1.1//EN" "http://www.w3.org/Graphics/SVG/1.1/DTD/svg11.dtd">
<!-- Creator: CorelDRAW X8 -->
<svg xmlns="http://www.w3.org/2000/svg" xml:space="preserve" width="478px" height="677px" version="1.1" style="shape-rendering:geometricPrecision; text-rendering:geometricPrecision; image-rendering:optimizeQuality; fill-rule:evenodd; clip-rule:evenodd"
viewBox="0 0 478 677"
 xmlns:xlink="http://www.w3.org/1999/xlink">
 <defs>
  <style type="text/css">
   <![CDATA[
    .fil0 {fill:#2B2A29;fill-rule:nonzero}
   ]]>
  </style>
 </defs>
 <g id="Layer_x0020_1">
  <metadata id="CorelCorpID_0Corel-Layer"/>
  <path class="fil0" d="M229 0c-131,0 -229,86 -229,218 0,134 99,218 229,218 52,0 103,-14 143,-50 -2,33 -6,72 -19,110 -21,60 -68,121 -137,121 -24,0 -42,-10 -59,-26 -19,-19 -33,-45 -39,-70 -4,-20 -34,-26 -54,-26 -17,0 -52,7 -52,28 0,9 8,30 12,38 19,45 54,77 96,96 29,13 62,20 96,20 114,0 192,-60 232,-165 22,-56 29,-116 30,-176 1,-46 -4,-92 -12,-130 -26,-129 -100,-206 -237,-206zm0 60c82,0 123,86 123,158 0,72 -41,159 -123,159 -82,0 -122,-87 -122,-159 0,-72 40,-158 122,-158z"/>
 </g>
</svg>
