<?xml version="1.0" encoding="UTF-8"?>
<!DOCTYPE svg PUBLIC "-//W3C//DTD SVG 1.1//EN" "http://www.w3.org/Graphics/SVG/1.1/DTD/svg11.dtd">
<!-- Creator: CorelDRAW X8 -->
<svg xmlns="http://www.w3.org/2000/svg" xml:space="preserve" width="1006px" height="1024px" version="1.1" style="shape-rendering:geometricPrecision; text-rendering:geometricPrecision; image-rendering:optimizeQuality; fill-rule:evenodd; clip-rule:evenodd"
viewBox="0 0 1006 1024"
 xmlns:xlink="http://www.w3.org/1999/xlink">
 <defs>
  <style type="text/css">
   <![CDATA[
    .fil0 {fill:#2B2A29;fill-rule:nonzero}
   ]]>
  </style>
 </defs>
 <g id="Layer_x0020_1">
  <metadata id="CorelCorpID_0Corel-Layer"/>
  <path class="fil0" d="M925 1024c26,0 81,-11 81,-46 0,-11 -7,-22 -22,-31 -25,-15 -41,-35 -52,-58 -16,-36 -19,-78 -19,-117l0 -439c0,-241 -237,-333 -443,-333 -117,0 -228,31 -310,85 -78,52 -129,127 -130,203 0,25 36,46 81,46 45,0 81,-21 81,-46 1,-54 37,-108 92,-144 52,-34 119,-53 186,-53 150,0 280,79 280,242l0 101c-43,27 -110,33 -178,33 -56,0 -112,-4 -155,-4 -129,0 -276,15 -357,103 -44,48 -60,108 -60,172 0,107 58,180 139,225 76,43 171,61 259,61 126,0 289,-49 372,-143 19,72 75,143 155,143zm-527 -91c-64,0 -124,-16 -166,-49 -47,-35 -70,-92 -71,-149 0,-34 8,-69 25,-99 44,-79 143,-83 223,-83 61,1 122,5 184,5 53,0 106,-3 157,-14l0 114c0,178 -195,275 -352,275z"/>
 </g>
</svg>
