<?xml version="1.0" encoding="UTF-8"?>
<!DOCTYPE svg PUBLIC "-//W3C//DTD SVG 1.1//EN" "http://www.w3.org/Graphics/SVG/1.1/DTD/svg11.dtd">
<!-- Creator: CorelDRAW X8 -->
<svg xmlns="http://www.w3.org/2000/svg" xml:space="preserve" width="1006px" height="1024px" version="1.1" style="shape-rendering:geometricPrecision; text-rendering:geometricPrecision; image-rendering:optimizeQuality; fill-rule:evenodd; clip-rule:evenodd"
viewBox="0 0 1006 1024"
 xmlns:xlink="http://www.w3.org/1999/xlink">
 <defs>
  <style type="text/css">
   <![CDATA[
    .fil0 {fill:#009846;fill-rule:nonzero}
   ]]>
  </style>
 </defs>
 <g id="Layer_x0020_1">
  <metadata id="CorelCorpID_0Corel-Layer"/>
  <path class="fil0" d="M192 288c0,25 -36,46 -81,46 -45,0 -81,-21 -81,-46 1,-76 52,-151 130,-203 83,-55 197,-86 316,-85 205,1 437,96 437,333l0 439c0,65 8,138 71,175 31,19 28,48 -3,64 -32,18 -84,17 -115,-1 -53,-31 -81,-72 -96,-129 -83,94 -246,143 -372,143 -190,0 -418,-87 -397,-315 20,-217 236,-246 416,-246 96,0 255,20 333,-29l0 -101c0,-160 -127,-241 -275,-242 -69,-1 -138,18 -191,53 -55,36 -91,90 -92,144zm558 370l0 -114c-111,24 -228,11 -341,9 -116,-1 -232,15 -245,161 -14,148 99,219 234,219 157,0 352,-97 352,-275z"/>
 </g>
</svg>
