<?xml version="1.0" encoding="UTF-8"?>
<!DOCTYPE svg PUBLIC "-//W3C//DTD SVG 1.1//EN" "http://www.w3.org/Graphics/SVG/1.1/DTD/svg11.dtd">
<!-- Creator: CorelDRAW X8 -->
<svg xmlns="http://www.w3.org/2000/svg" xml:space="preserve" width="1757px" height="1024px" version="1.1" style="shape-rendering:geometricPrecision; text-rendering:geometricPrecision; image-rendering:optimizeQuality; fill-rule:evenodd; clip-rule:evenodd"
viewBox="0 0 1757 1024"
 xmlns:xlink="http://www.w3.org/1999/xlink">
 <defs>
  <style type="text/css">
   <![CDATA[
    .fil0 {fill:#CC6633;fill-rule:nonzero}
   ]]>
  </style>
 </defs>
 <g id="Layer_x0020_1">
  <metadata id="CorelCorpID_0Corel-Layer"/>
  <path class="fil0" d="M1582 700c3,-24 36,-42 77,-43 26,0 79,12 80,45 0,1 -1,2 -1,3 -8,81 -63,160 -147,219 -101,69 -226,101 -346,100 -170,-2 -312,-73 -400,-194 -38,41 -91,82 -120,101 -95,63 -219,93 -327,93 -190,0 -417,-87 -396,-315 23,-249 303,-251 492,-244 98,3 197,7 257,-31l0 -101c0,-160 -128,-241 -276,-242 -69,-1 -138,18 -191,53 -55,36 -91,90 -91,144 -1,25 -37,46 -82,46 -45,0 -81,-21 -81,-46 1,-76 52,-151 130,-203 83,-55 197,-86 316,-85 151,1 315,52 392,173 90,-108 226,-172 387,-173 281,-1 506,161 502,469 -1,25 -35,46 -78,46l-772 0c-3,210 122,416 340,418 78,1 158,-23 224,-68 63,-44 105,-104 111,-165zm-831 -42l0 -114c-83,18 -175,15 -267,12 -134,-5 -304,-20 -320,158 -14,148 99,219 234,219 157,0 353,-97 353,-275zm848 -235c-15,-201 -146,-333 -342,-332 -186,1 -309,153 -341,332l683 0z"/>
 </g>
</svg>
