<?xml version="1.0" encoding="UTF-8"?>
<!DOCTYPE svg PUBLIC "-//W3C//DTD SVG 1.1//EN" "http://www.w3.org/Graphics/SVG/1.1/DTD/svg11.dtd">
<!-- Creator: CorelDRAW X8 -->
<svg xmlns="http://www.w3.org/2000/svg" xml:space="preserve" width="1757px" height="1024px" version="1.1" style="shape-rendering:geometricPrecision; text-rendering:geometricPrecision; image-rendering:optimizeQuality; fill-rule:evenodd; clip-rule:evenodd"
viewBox="0 0 1757 1024"
 xmlns:xlink="http://www.w3.org/1999/xlink">
 <defs>
  <style type="text/css">
   <![CDATA[
    .fil0 {fill:#898778;fill-rule:nonzero}
   ]]>
  </style>
 </defs>
 <g id="Layer_x0020_1">
  <metadata id="CorelCorpID_0Corel-Layer"/>
  <path class="fil0" d="M1582 700c3,-28 40,-42 77,-42 41,0 83,16 80,47 -9,82 -64,161 -148,219 -101,70 -226,101 -346,100 -170,-1 -312,-72 -400,-194 -38,42 -91,82 -120,102 -95,62 -219,92 -327,92 -190,0 -418,-87 -397,-314 23,-250 304,-252 493,-245 98,3 196,7 257,-31l0 -101c0,-160 -128,-241 -276,-242 -69,0 -138,18 -191,53 -55,36 -91,90 -92,144 0,26 -36,46 -81,46 -45,0 -81,-21 -81,-46 1,-76 52,-151 130,-203 83,-55 197,-86 316,-85 150,1 315,52 392,173 90,-108 226,-172 388,-173 280,-1 505,161 501,469 0,26 -35,46 -78,46l-772 0c-3,211 122,416 340,418 78,1 159,-22 224,-67 63,-45 105,-104 111,-166zm-831 -42l0 -114c-83,18 -175,15 -267,12 -134,-5 -304,-20 -320,158 -14,149 99,219 234,219 157,0 353,-97 353,-275zm849 -235c-16,-201 -147,-333 -343,-332 -186,1 -309,153 -341,332l684 0z"/>
 </g>
</svg>
