<?xml version="1.0" encoding="UTF-8"?>
<!DOCTYPE svg PUBLIC "-//W3C//DTD SVG 1.1//EN" "http://www.w3.org/Graphics/SVG/1.1/DTD/svg11.dtd">
<!-- Creator: CorelDRAW X8 -->
<svg xmlns="http://www.w3.org/2000/svg" xml:space="preserve" width="1757px" height="1024px" version="1.1" style="shape-rendering:geometricPrecision; text-rendering:geometricPrecision; image-rendering:optimizeQuality; fill-rule:evenodd; clip-rule:evenodd"
viewBox="0 0 1757 1024"
 xmlns:xlink="http://www.w3.org/1999/xlink">
 <defs>
  <style type="text/css">
   <![CDATA[
    .fil0 {fill:#2B2A29;fill-rule:nonzero}
   ]]>
  </style>
 </defs>
 <g id="Layer_x0020_1">
  <metadata id="CorelCorpID_0Corel-Layer"/>
  <path class="fil0" d="M868 173c-82,-128 -255,-173 -399,-173 -117,0 -228,31 -310,85 -78,52 -129,127 -130,203 0,25 36,46 81,46 45,0 81,-21 82,-46 0,-54 36,-108 91,-144 52,-34 119,-53 186,-53 150,0 281,79 281,242l0 101c-43,27 -105,33 -173,33l-166 -4c-100,0 -210,10 -290,56 -72,40 -121,107 -121,219 0,114 67,190 157,234 72,36 159,52 240,52 108,0 232,-30 328,-93 28,-19 81,-60 119,-101 89,123 234,194 407,194 117,0 241,-32 339,-100 59,-40 103,-90 127,-144 10,-21 22,-55 22,-78 0,-34 -55,-45 -79,-45 -42,0 -75,19 -77,43 -7,61 -49,121 -113,165 -63,45 -142,68 -218,68 -223,0 -346,-205 -346,-418l773 0c34,0 78,-12 78,-54 0,-302 -223,-461 -499,-461 -162,0 -299,64 -390,173zm731 250l-684 0c33,-180 157,-332 343,-332 197,0 327,132 341,332zm-1202 510c-62,0 -121,-15 -165,-47 -47,-34 -71,-95 -71,-155 0,-55 21,-109 65,-140 44,-31 105,-38 169,-38 30,0 60,2 88,3 35,1 70,2 104,2 56,0 111,-3 163,-14l0 114c0,178 -196,275 -353,275z"/>
 </g>
</svg>
