<?xml version="1.0" encoding="UTF-8"?>
<!DOCTYPE svg PUBLIC "-//W3C//DTD SVG 1.1//EN" "http://www.w3.org/Graphics/SVG/1.1/DTD/svg11.dtd">
<!-- Creator: CorelDRAW X8 -->
<svg xmlns="http://www.w3.org/2000/svg" xml:space="preserve" width="1913px" height="1381px" version="1.1" style="shape-rendering:geometricPrecision; text-rendering:geometricPrecision; image-rendering:optimizeQuality; fill-rule:evenodd; clip-rule:evenodd"
viewBox="0 0 1913 1381"
 xmlns:xlink="http://www.w3.org/1999/xlink">
 <defs>
  <style type="text/css">
   <![CDATA[
    .fil0 {fill:#009846;fill-rule:nonzero}
   ]]>
  </style>
 </defs>
 <g id="Layer_x0020_1">
  <metadata id="CorelCorpID_0Corel-Layer"/>
  <path class="fil0" d="M1832 0c45,0 81,20 81,46 0,25 -36,45 -81,45l-824 0 0 542 705 0c45,0 82,20 82,45 0,25 -37,46 -82,46l-705 0 0 542 824 0c45,0 81,20 81,46 0,25 -36,45 -81,45l-906 0c-45,0 -81,-20 -81,-45l0 -396 -540 0 -188 442c-9,20 -50,24 -70,22 -15,-1 -56,-12 -46,-35l568 -1312c14,-32 62,-33 89,-33l1174 0zm-987 825l0 -734 -184 0 -318 734 502 0z"/>
 </g>
</svg>
