<?xml version="1.0" encoding="UTF-8"?>
<!DOCTYPE svg PUBLIC "-//W3C//DTD SVG 1.1//EN" "http://www.w3.org/Graphics/SVG/1.1/DTD/svg11.dtd">
<!-- Creator: CorelDRAW X8 -->
<svg xmlns="http://www.w3.org/2000/svg" xml:space="preserve" width="1116px" height="1405px" version="1.1" style="shape-rendering:geometricPrecision; text-rendering:geometricPrecision; image-rendering:optimizeQuality; fill-rule:evenodd; clip-rule:evenodd"
viewBox="0 0 1116 1405"
 xmlns:xlink="http://www.w3.org/1999/xlink">
 <defs>
  <style type="text/css">
   <![CDATA[
    .fil0 {fill:#2B2A29;fill-rule:nonzero}
   ]]>
  </style>
 </defs>
 <g id="Layer_x0020_1">
  <metadata id="CorelCorpID_0Corel-Layer"/>
  <path class="fil0" d="M1033 1405c27,0 83,-12 83,-45 0,-11 -6,-17 -13,-25l-195 -229c63,-106 102,-240 102,-364 0,-25 -37,-44 -80,-45 -45,0 -82,20 -82,45 -1,82 -17,163 -47,239 -92,-110 -193,-229 -280,-335 135,-82 279,-195 279,-369 0,-188 -168,-277 -337,-277 -153,0 -344,85 -344,262 0,133 127,266 209,366 -168,99 -328,219 -328,432 0,223 203,345 407,345 167,0 311,-72 417,-186l137 160c16,18 45,26 72,26zm-586 -850c-65,-80 -165,-187 -165,-293 0,-99 85,-171 181,-171 107,0 174,82 174,186 0,124 -91,215 -190,278zm-42 759c-144,0 -242,-120 -242,-259 0,-158 113,-259 238,-337 107,129 229,273 331,393 -74,108 -191,203 -327,203z"/>
 </g>
</svg>
