<?xml version="1.0" encoding="UTF-8"?>
<!DOCTYPE svg PUBLIC "-//W3C//DTD SVG 1.1//EN" "http://www.w3.org/Graphics/SVG/1.1/DTD/svg11.dtd">
<!-- Creator: CorelDRAW X8 -->
<svg xmlns="http://www.w3.org/2000/svg" xml:space="preserve" width="2384px" height="1024px" version="1.1" style="shape-rendering:geometricPrecision; text-rendering:geometricPrecision; image-rendering:optimizeQuality; fill-rule:evenodd; clip-rule:evenodd"
viewBox="0 0 2384 1024"
 xmlns:xlink="http://www.w3.org/1999/xlink">
 <defs>
  <style type="text/css">
   <![CDATA[
    .fil0 {fill:#898778;fill-rule:nonzero}
   ]]>
  </style>
 </defs>
 <g id="Layer_x0020_1">
  <metadata id="CorelCorpID_0Corel-Layer"/>
  <path class="fil0" d="M1535 276c-100,0 -189,46 -249,126 -53,70 -78,156 -78,243 0,73 19,144 55,198 33,50 82,88 144,89 56,1 106,-33 147,-101 43,-72 63,-161 64,-249 1,-109 -22,-215 -83,-306zm-584 673c31,21 21,49 -10,64 -45,20 -92,11 -131,-17 -143,-104 -219,-264 -217,-440 2,-131 40,-243 105,-331 105,-143 282,-224 490,-225 228,-1 429,93 533,301 42,85 61,179 59,281 -1,98 -24,198 -72,278 -69,114 -182,165 -301,164 -118,-2 -229,-49 -296,-150 -43,-64 -66,-146 -66,-229 0,-99 32,-199 91,-278 78,-104 197,-161 325,-177 -80,-71 -167,-100 -272,-99 -158,2 -279,74 -352,185 -53,78 -81,177 -81,283 -1,155 64,302 195,390zm-431 -437c0,167 -130,250 -260,250 -130,0 -260,-83 -260,-250 0,-167 130,-250 260,-250 130,0 260,83 260,250zm-143 0c0,-110 -59,-165 -117,-165 -58,0 -116,55 -116,165 0,110 58,165 116,165 58,0 117,-55 117,-165zm2007 0c0,167 -130,250 -260,250 -130,0 -260,-83 -260,-250 0,-167 130,-250 260,-250 130,0 260,83 260,250zm-144 0c0,-110 -58,-165 -116,-165 -58,0 -117,55 -117,165 0,110 59,165 117,165 58,0 116,-55 116,-165z"/>
 </g>
</svg>
