<?xml version="1.0" encoding="UTF-8"?>
<!DOCTYPE svg PUBLIC "-//W3C//DTD SVG 1.1//EN" "http://www.w3.org/Graphics/SVG/1.1/DTD/svg11.dtd">
<!-- Creator: CorelDRAW X8 -->
<svg xmlns="http://www.w3.org/2000/svg" xml:space="preserve" width="1719px" height="1024px" version="1.1" style="shape-rendering:geometricPrecision; text-rendering:geometricPrecision; image-rendering:optimizeQuality; fill-rule:evenodd; clip-rule:evenodd"
viewBox="0 0 1719 1024"
 xmlns:xlink="http://www.w3.org/1999/xlink">
 <defs>
  <style type="text/css">
   <![CDATA[
    .fil0 {fill:#2B2A29;fill-rule:nonzero}
   ]]>
  </style>
 </defs>
 <g id="Layer_x0020_1">
  <metadata id="CorelCorpID_0Corel-Layer"/>
  <path class="fil0" d="M1379 1024c21,0 42,-5 60,-13 194,-87 280,-297 280,-499 0,-89 -15,-176 -51,-253 -79,-168 -248,-259 -430,-259 -125,0 -237,43 -320,137 -102,-104 -251,-137 -393,-137 -198,0 -374,85 -465,267 -39,78 -60,171 -60,273 0,156 48,317 159,408 64,52 136,75 216,75 82,0 165,-25 229,-77 74,-61 105,-155 105,-249 0,-83 -28,-155 -78,-209 -58,-61 -146,-97 -240,-97 -94,0 -176,41 -230,119 1,-73 18,-146 50,-210 61,-124 172,-209 314,-209 176,0 317,97 317,281l0 606c0,25 36,45 81,45 45,0 82,-20 82,-45l0 -612c0,-142 65,-274 233,-274 131,0 237,96 283,213 25,64 35,135 35,205 0,159 -62,364 -222,432 -19,8 -33,22 -33,37 0,9 5,18 17,27 17,13 39,18 61,18zm-999 -92c-121,0 -174,-115 -174,-222 0,-107 55,-222 176,-222 87,0 172,75 172,222 0,149 -89,222 -174,222z"/>
 </g>
</svg>
