<?xml version="1.0" encoding="UTF-8"?>
<!DOCTYPE svg PUBLIC "-//W3C//DTD SVG 1.1//EN" "http://www.w3.org/Graphics/SVG/1.1/DTD/svg11.dtd">
<!-- Creator: CorelDRAW X8 -->
<svg xmlns="http://www.w3.org/2000/svg" xml:space="preserve" width="539px" height="516px" version="1.1" style="shape-rendering:geometricPrecision; text-rendering:geometricPrecision; image-rendering:optimizeQuality; fill-rule:evenodd; clip-rule:evenodd"
viewBox="0 0 539 516"
 xmlns:xlink="http://www.w3.org/1999/xlink">
 <defs>
  <style type="text/css">
   <![CDATA[
    .fil0 {fill:#CC6633;fill-rule:nonzero}
   ]]>
  </style>
 </defs>
 <g id="Layer_x0020_1">
  <metadata id="CorelCorpID_0Corel-Layer"/>
  <path class="fil0" d="M224 218l13 -194c1,-18 16,-24 32,-24 16,0 31,5 32,24l14 193 188 -47c2,0 5,0 7,0 14,-1 22,10 26,23 2,5 3,11 3,15 0,10 -4,19 -16,24l-179 72 102 164c3,5 5,10 5,14 0,10 -7,18 -16,25 -7,5 -14,9 -22,9 -6,0 -13,-3 -19,-10l-124 -148 -125 149c-5,6 -11,9 -17,9 -8,0 -16,-3 -23,-8 -9,-7 -16,-15 -16,-26 0,-4 1,-8 4,-13l103 -164 -180 -73c-12,-5 -16,-13 -16,-23 0,-5 1,-10 3,-15 4,-15 14,-28 33,-23l188 47z"/>
 </g>
</svg>
