<?xml version="1.0" encoding="UTF-8"?>
<!DOCTYPE svg PUBLIC "-//W3C//DTD SVG 1.1//EN" "http://www.w3.org/Graphics/SVG/1.1/DTD/svg11.dtd">
<!-- Creator: CorelDRAW X8 -->
<svg xmlns="http://www.w3.org/2000/svg" xml:space="preserve" width="539px" height="516px" version="1.1" style="shape-rendering:geometricPrecision; text-rendering:geometricPrecision; image-rendering:optimizeQuality; fill-rule:evenodd; clip-rule:evenodd"
viewBox="0 0 539 516"
 xmlns:xlink="http://www.w3.org/1999/xlink">
 <defs>
  <style type="text/css">
   <![CDATA[
    .fil0 {fill:#898778;fill-rule:nonzero}
   ]]>
  </style>
 </defs>
 <g id="Layer_x0020_1">
  <metadata id="CorelCorpID_0Corel-Layer"/>
  <path class="fil0" d="M224 218l13 -194c1,-18 16,-24 32,-24 16,0 31,5 32,24l14 193 188 -46c17,-5 28,6 33,22 5,16 5,32 -13,39l-179 72 102 165c10,15 2,28 -11,38 -14,10 -29,14 -41,0l-124 -149 -125 149c-12,14 -26,10 -40,1 -14,-10 -22,-23 -12,-39l103 -164 -180 -73c-17,-7 -18,-22 -14,-38 5,-15 15,-28 34,-23l188 47z"/>
 </g>
</svg>
