<?xml version="1.0" encoding="UTF-8"?>
<!DOCTYPE svg PUBLIC "-//W3C//DTD SVG 1.1//EN" "http://www.w3.org/Graphics/SVG/1.1/DTD/svg11.dtd">
<!-- Creator: CorelDRAW X8 -->
<svg xmlns="http://www.w3.org/2000/svg" xml:space="preserve" width="1747px" height="1780px" version="1.1" style="shape-rendering:geometricPrecision; text-rendering:geometricPrecision; image-rendering:optimizeQuality; fill-rule:evenodd; clip-rule:evenodd"
viewBox="0 0 1747 1780"
 xmlns:xlink="http://www.w3.org/1999/xlink">
 <defs>
  <style type="text/css">
   <![CDATA[
    .fil0 {fill:#2B2A29;fill-rule:nonzero}
   ]]>
  </style>
 </defs>
 <g id="Layer_x0020_1">
  <metadata id="CorelCorpID_0Corel-Layer"/>
  <path class="fil0" d="M848 1780c100,0 199,-16 294,-46 20,-6 41,-22 41,-40 0,-7 -3,-14 -11,-22 -16,-16 -44,-23 -70,-23 -15,0 -29,2 -41,6 -69,22 -141,34 -212,34 -137,0 -271,-41 -383,-120 -217,-151 -305,-398 -304,-654 0,-225 63,-448 224,-612 141,-143 328,-212 512,-212 174,0 344,61 470,183 131,125 217,314 217,572 0,125 -31,255 -105,357 -33,46 -93,107 -154,107 -73,0 -90,-77 -90,-148 0,-32 4,-63 7,-84l84 -570c4,-30 -56,-41 -80,-41 -44,0 -79,17 -82,41l-15 110c-72,-110 -189,-154 -316,-154 -273,0 -417,234 -417,483 0,247 148,455 424,455 109,0 205,-40 273,-127 30,97 110,126 205,126 130,0 237,-59 312,-164 82,-113 116,-253 116,-391 0,-276 -94,-481 -238,-618 -163,-157 -388,-228 -611,-228 -241,0 -483,84 -654,259 -174,177 -244,414 -244,657 0,284 100,545 339,711 149,103 329,153 509,153zm-11 -470c-183,0 -257,-207 -257,-370 0,-147 81,-386 257,-385 187,0 259,209 259,372 0,149 -82,383 -259,383z"/>
 </g>
</svg>
