<?xml version="1.0" encoding="UTF-8"?>
<!DOCTYPE svg PUBLIC "-//W3C//DTD SVG 1.1//EN" "http://www.w3.org/Graphics/SVG/1.1/DTD/svg11.dtd">
<!-- Creator: CorelDRAW X8 -->
<svg xmlns="http://www.w3.org/2000/svg" xml:space="preserve" width="548px" height="1780px" version="1.1" style="shape-rendering:geometricPrecision; text-rendering:geometricPrecision; image-rendering:optimizeQuality; fill-rule:evenodd; clip-rule:evenodd"
viewBox="0 0 548 1780"
 xmlns:xlink="http://www.w3.org/1999/xlink">
 <defs>
  <style type="text/css">
   <![CDATA[
    .fil0 {fill:#2B2A29;fill-rule:nonzero}
   ]]>
  </style>
 </defs>
 <g id="Layer_x0020_1">
  <metadata id="CorelCorpID_0Corel-Layer"/>
  <path class="fil0" d="M468 1780c44,0 80,-20 80,-45 0,-25 -36,-45 -80,-45l-46 1c-22,0 -43,-3 -61,-19 -20,-19 -32,-45 -32,-75l0 -470c0,-139 -14,-206 -74,-237 60,-31 74,-98 74,-237l0 -470c0,-30 12,-56 32,-75 18,-16 38,-20 59,-20 16,0 32,2 48,2 44,0 80,-20 80,-45 0,-25 -36,-45 -80,-45l-34 0c-77,0 -147,4 -210,63 -34,31 -55,74 -55,120l0 520c0,72 -7,142 -90,142 -26,0 -79,9 -79,45 0,23 26,45 79,45 83,0 90,69 90,142l0 520c0,46 21,89 55,120 63,59 133,63 210,63l34 0z"/>
 </g>
</svg>
