<?xml version="1.0" encoding="UTF-8"?>
<!DOCTYPE svg PUBLIC "-//W3C//DTD SVG 1.1//EN" "http://www.w3.org/Graphics/SVG/1.1/DTD/svg11.dtd">
<!-- Creator: CorelDRAW X8 -->
<svg xmlns="http://www.w3.org/2000/svg" xml:space="preserve" width="548px" height="1780px" version="1.1" style="shape-rendering:geometricPrecision; text-rendering:geometricPrecision; image-rendering:optimizeQuality; fill-rule:evenodd; clip-rule:evenodd"
viewBox="0 0 548 1780"
 xmlns:xlink="http://www.w3.org/1999/xlink">
 <defs>
  <style type="text/css">
   <![CDATA[
    .fil0 {fill:#009846;fill-rule:nonzero}
   ]]>
  </style>
 </defs>
 <g id="Layer_x0020_1">
  <metadata id="CorelCorpID_0Corel-Layer"/>
  <path class="fil0" d="M80 845c102,0 90,-107 90,-192l0 -470c0,-46 21,-89 55,-120 72,-68 154,-63 243,-63 45,0 80,20 80,45 0,25 -35,45 -80,45 -38,0 -76,-10 -106,18 -20,19 -32,45 -32,75l0 470c0,139 -14,206 -74,237 60,31 74,98 74,237l0 470c0,30 12,56 32,75 30,27 68,18 106,18 45,0 80,20 80,45 0,25 -35,45 -80,45 -89,0 -171,5 -243,-63 -34,-31 -55,-74 -55,-120l0 -470c0,-86 12,-192 -90,-192 -53,0 -79,-22 -79,-45 -1,-22 26,-45 79,-45z"/>
 </g>
</svg>
