<?xml version="1.0" encoding="UTF-8"?>
<!DOCTYPE svg PUBLIC "-//W3C//DTD SVG 1.1//EN" "http://www.w3.org/Graphics/SVG/1.1/DTD/svg11.dtd">
<!-- Creator: CorelDRAW X8 -->
<svg xmlns="http://www.w3.org/2000/svg" xml:space="preserve" width="984px" height="1024px" version="1.1" style="shape-rendering:geometricPrecision; text-rendering:geometricPrecision; image-rendering:optimizeQuality; fill-rule:evenodd; clip-rule:evenodd"
viewBox="0 0 984 1025"
 xmlns:xlink="http://www.w3.org/1999/xlink">
 <defs>
  <style type="text/css">
   <![CDATA[
    .fil0 {fill:#CC6633;fill-rule:nonzero}
   ]]>
  </style>
 </defs>
 <g id="Layer_x0020_1">
  <metadata id="CorelCorpID_0Corel-Layer"/>
  <path class="fil0" d="M982 317c5,36 -55,49 -81,49 -42,0 -78,-18 -81,-42 -20,-145 -162,-235 -301,-233 -237,3 -357,208 -356,427 0,217 119,415 355,415 137,0 279,-94 304,-233 4,-24 39,-42 81,-41 26,0 87,13 81,50 -38,210 -271,314 -466,316 -310,2 -517,-196 -518,-507 -1,-312 206,-514 516,-518 197,-3 437,100 466,317z"/>
 </g>
</svg>
