<?xml version="1.0" encoding="UTF-8"?>
<!DOCTYPE svg PUBLIC "-//W3C//DTD SVG 1.1//EN" "http://www.w3.org/Graphics/SVG/1.1/DTD/svg11.dtd">
<!-- Creator: CorelDRAW X8 -->
<svg xmlns="http://www.w3.org/2000/svg" xml:space="preserve" width="984px" height="1024px" version="1.1" style="shape-rendering:geometricPrecision; text-rendering:geometricPrecision; image-rendering:optimizeQuality; fill-rule:evenodd; clip-rule:evenodd"
viewBox="0 0 984 1024"
 xmlns:xlink="http://www.w3.org/1999/xlink">
 <defs>
  <style type="text/css">
   <![CDATA[
    .fil0 {fill:#2B2A29;fill-rule:nonzero}
   ]]>
  </style>
 </defs>
 <g id="Layer_x0020_1">
  <metadata id="CorelCorpID_0Corel-Layer"/>
  <path class="fil0" d="M903 658c-42,0 -77,18 -81,41 -25,139 -167,234 -304,234 -236,0 -355,-198 -355,-415 0,-220 119,-427 361,-427 137,0 276,89 296,233 3,24 39,42 81,42 27,0 81,-12 81,-46 0,-42 -33,-111 -57,-143 -87,-120 -257,-177 -403,-177 -312,0 -523,204 -522,518 0,308 206,506 511,506 152,0 330,-62 420,-189 21,-30 53,-97 53,-134 0,-31 -57,-43 -81,-43z"/>
 </g>
</svg>
