<?xml version="1.0" encoding="UTF-8"?>
<!DOCTYPE svg PUBLIC "-//W3C//DTD SVG 1.1//EN" "http://www.w3.org/Graphics/SVG/1.1/DTD/svg11.dtd">
<!-- Creator: CorelDRAW X8 -->
<svg xmlns="http://www.w3.org/2000/svg" xml:space="preserve" width="1242px" height="1780px" version="1.1" style="shape-rendering:geometricPrecision; text-rendering:geometricPrecision; image-rendering:optimizeQuality; fill-rule:evenodd; clip-rule:evenodd"
viewBox="0 0 1242 1780"
 xmlns:xlink="http://www.w3.org/1999/xlink">
 <defs>
  <style type="text/css">
   <![CDATA[
    .fil0 {fill:#2B2A29;fill-rule:nonzero}
   ]]>
  </style>
 </defs>
 <g id="Layer_x0020_1">
  <metadata id="CorelCorpID_0Corel-Layer"/>
  <path class="fil0" d="M1161 927c-41,0 -77,17 -81,41 -34,205 -229,346 -432,346 -337,0 -486,-312 -486,-609 0,-302 161,-614 500,-614 202,0 388,139 415,345 3,24 39,42 81,42 30,0 82,-11 82,-49 0,-11 -3,-23 -6,-34 -54,-257 -322,-395 -572,-395 -427,0 -662,303 -662,712 0,385 216,665 590,691l-34 97c-2,6 -5,12 -5,18 0,9 8,15 16,18 13,6 30,8 39,8 52,0 123,22 123,86 0,69 -91,95 -148,95 -26,0 -51,-6 -76,-18 -13,-6 -26,-12 -47,-12 -9,0 -19,1 -26,3 -12,3 -29,12 -29,24 0,4 2,9 6,13 31,29 102,45 172,45 89,0 258,-34 258,-150 0,-86 -99,-124 -170,-135l32 -92c229,-17 464,-145 529,-372 4,-14 12,-43 12,-57 0,-36 -52,-47 -81,-47z"/>
 </g>
</svg>
