<?xml version="1.0" encoding="UTF-8"?>
<!DOCTYPE svg PUBLIC "-//W3C//DTD SVG 1.1//EN" "http://www.w3.org/Graphics/SVG/1.1/DTD/svg11.dtd">
<!-- Creator: CorelDRAW X8 -->
<svg xmlns="http://www.w3.org/2000/svg" xml:space="preserve" width="436px" height="454px" version="1.1" style="shape-rendering:geometricPrecision; text-rendering:geometricPrecision; image-rendering:optimizeQuality; fill-rule:evenodd; clip-rule:evenodd"
viewBox="0 0 436 454"
 xmlns:xlink="http://www.w3.org/1999/xlink">
 <defs>
  <style type="text/css">
   <![CDATA[
    .fil0 {fill:#2B2A29;fill-rule:nonzero}
   ]]>
  </style>
 </defs>
 <g id="Layer_x0020_1">
  <metadata id="CorelCorpID_0Corel-Layer"/>
  <path class="fil0" d="M178 454c89,0 258,-34 258,-150 0,-86 -99,-124 -170,-135l45 -129c2,-6 4,-11 4,-16 -1,-20 -41,-24 -55,-24 -20,0 -48,5 -54,22l-53 152c-2,6 -5,12 -5,18 0,9 8,15 16,18 13,6 30,8 39,8 52,0 123,22 123,86 0,69 -91,95 -148,95 -26,0 -51,-6 -76,-18 -13,-6 -26,-12 -47,-12 -9,0 -19,1 -26,3 -12,3 -29,12 -29,24 0,4 2,9 6,13 31,29 102,45 172,45z"/>
 </g>
</svg>
