<?xml version="1.0" encoding="UTF-8"?>
<!DOCTYPE svg PUBLIC "-//W3C//DTD SVG 1.1//EN" "http://www.w3.org/Graphics/SVG/1.1/DTD/svg11.dtd">
<!-- Creator: CorelDRAW 2020 (64-Bit) -->
<svg xmlns="http://www.w3.org/2000/svg" xml:space="preserve" width="260.401mm" height="371.357mm" version="1.1" style="shape-rendering:geometricPrecision; text-rendering:geometricPrecision; image-rendering:optimizeQuality; fill-rule:evenodd; clip-rule:evenodd"
viewBox="0 0 26040.08 37135.7"
 xmlns:xlink="http://www.w3.org/1999/xlink"
 xmlns:xodm="http://www.corel.com/coreldraw/odm/2003">
 <defs>
  <style type="text/css">
   <![CDATA[
    .fil0 {fill:#2B2A29;fill-rule:nonzero}
   ]]>
  </style>
 </defs>
 <g id="Layer_x0020_1">
  <metadata id="CorelCorpID_0Corel-Layer"/>
  <path class="fil0" d="M6008.32 37135.7c582.09,0 1400.43,-134.81 1587.51,-611.48l1916.88 -4884.16c1244.36,313.51 2585.88,477.38 4010.45,477.38 4025.89,0 8736.03,-1635.26 11104.87,-5016.48 556.19,-793.9 1410.34,-2556.35 1412.05,-3525.25 1.45,-823.7 -1510.66,-1142.01 -2139.39,-1142.01 -1111.25,0 -2037.33,476.77 -2146.06,1081.85 -661.49,3681.17 -4421.47,6191.24 -8043.33,6191.24 -1188.96,0 -2265.25,-190.03 -3229.24,-536.62l8007.18 -20402.15c1670.23,1064.31 2929.52,2720.45 3212.47,4822.72 85.31,633.86 1028.94,1111.25 2146.07,1111.25 704.79,0 2139.48,-314.33 2139.25,-1219.51 -0.28,-1113.36 -886.98,-2935.44 -1500.29,-3772.18 -1201.48,-1639.17 -2978.11,-2837.73 -4949.28,-3613.11l1910.08 -4866.83c67.73,-172.57 144.48,-329.67 144.21,-482.88 -1.04,-581.85 -1135.09,-747.49 -1560.51,-747.49 -582.08,0 -1400.43,134.82 -1587.5,611.48l-1829.39 4661.23c-941.75,-170.17 -1886.1,-254.46 -2797.21,-254.46 -8259.02,0 -13829.08,5413.09 -13817.11,13705.39 8.01,5546.33 2534.38,9743.04 6680.31,11860.73l-2169.22 5527.12c-39.27,100.07 -62.58,192.14 -62.75,278.69 -1.18,595.45 1127.95,745.51 1559.96,745.51zm9682.7 -29510.38l-7847.04 19994.12c-2348.92,-2051.53 -3528.32,-5378.76 -3528.32,-8895.79 0,-5823.02 3149.15,-11294.76 9554.38,-11294.76 610.47,0 1222.58,67.03 1820.98,196.43z"/>
 </g>
</svg>
