<?xml version="1.0" encoding="UTF-8"?>
<!DOCTYPE svg PUBLIC "-//W3C//DTD SVG 1.1//EN" "http://www.w3.org/Graphics/SVG/1.1/DTD/svg11.dtd">
<!-- Creator: CorelDRAW 2020 (64-Bit) -->
<svg xmlns="http://www.w3.org/2000/svg" xml:space="preserve" width="461px" height="424px" version="1.1" style="shape-rendering:geometricPrecision; text-rendering:geometricPrecision; image-rendering:optimizeQuality; fill-rule:evenodd; clip-rule:evenodd"
viewBox="0 0 461 423.936"
 xmlns:xlink="http://www.w3.org/1999/xlink"
 xmlns:xodm="http://www.corel.com/coreldraw/odm/2003">
 <defs>
  <style type="text/css">
   <![CDATA[
    .fil0 {fill:#2B2A29;fill-rule:nonzero}
   ]]>
  </style>
 </defs>
 <g id="Layer_x0020_1">
  <metadata id="CorelCorpID_0Corel-Layer"/>
  <path class="fil0" d="M461 401.685c0,-2.524 -0.551,-4.286 -1.623,-6.491l-183.534 -377.345c-6.348,-13.051 -31.551,-17.849 -45.433,-17.849 -21.094,0 -40.321,7.328 -45.433,17.849l-183.354 377.345c-1.072,2.206 -1.623,3.967 -1.623,6.491 0,16.989 32.415,22.25 49.111,22.25 16.696,0 36.743,-5.232 42.657,-17.382l138.642 -284.858 138.823 284.858c5.999,12.309 27.494,17.375 43.062,17.382 15.568,0.008 48.705,-4.387 48.705,-22.25z"/>
 </g>
</svg>
