<?xml version="1.0" encoding="UTF-8"?>
<!DOCTYPE svg PUBLIC "-//W3C//DTD SVG 1.1//EN" "http://www.w3.org/Graphics/SVG/1.1/DTD/svg11.dtd">
<!-- Creator: CorelDRAW X8 -->
<svg xmlns="http://www.w3.org/2000/svg" xml:space="preserve" width="231px" height="371px" version="1.1" style="shape-rendering:geometricPrecision; text-rendering:geometricPrecision; image-rendering:optimizeQuality; fill-rule:evenodd; clip-rule:evenodd"
viewBox="0 0 231 371"
 xmlns:xlink="http://www.w3.org/1999/xlink">
 <defs>
  <style type="text/css">
   <![CDATA[
    .fil0 {fill:#E31E24;fill-rule:nonzero}
   ]]>
  </style>
 </defs>
 <g id="Layer_x0020_1">
  <metadata id="CorelCorpID_0Corel-Layer"/>
  <path class="fil0" d="M189 279c27,-41 42,-93 42,-141 0,-38 -11,-75 -37,-102 -20,-22 -50,-36 -87,-36 -59,0 -107,48 -107,107 0,60 48,107 107,107 6,0 12,0 18,-1 -2,25 -11,50 -24,72 -16,27 -40,50 -70,62 -8,3 -11,7 -11,10 0,11 12,14 26,14 26,0 50,-7 71,-20 30,-17 54,-43 72,-72z"/>
 </g>
</svg>
