<?xml version="1.0" encoding="UTF-8"?>
<!DOCTYPE svg PUBLIC "-//W3C//DTD SVG 1.1//EN" "http://www.w3.org/Graphics/SVG/1.1/DTD/svg11.dtd">
<!-- Creator: CorelDRAW X8 -->
<svg xmlns="http://www.w3.org/2000/svg" xml:space="preserve" width="194px" height="312px" version="1.1" style="shape-rendering:geometricPrecision; text-rendering:geometricPrecision; image-rendering:optimizeQuality; fill-rule:evenodd; clip-rule:evenodd"
viewBox="0 0 194 312"
 xmlns:xlink="http://www.w3.org/1999/xlink">
 <defs>
  <style type="text/css">
   <![CDATA[
    .fil0 {fill:#898778}
   ]]>
  </style>
 </defs>
 <g id="Layer_x0020_1">
  <metadata id="CorelCorpID_0Corel-Layer"/>
  <path class="fil0" d="M90 0c31,0 55,12 73,30 24,25 32,59 31,95 -2,39 -16,79 -35,109 -17,27 -47,57 -80,70 -16,7 -31,9 -47,7 -13,-3 -24,-13 -6,-20 25,-11 46,-29 59,-52 11,-18 18,-39 20,-61 -5,1 -10,2 -15,2 -50,0 -90,-41 -90,-90 0,-50 40,-90 90,-90z"/>
 </g>
</svg>
