<?xml version="1.0" encoding="UTF-8"?>
<!DOCTYPE svg PUBLIC "-//W3C//DTD SVG 1.1//EN" "http://www.w3.org/Graphics/SVG/1.1/DTD/svg11.dtd">
<!-- Creator: CorelDRAW X8 -->
<svg xmlns="http://www.w3.org/2000/svg" xml:space="preserve" width="1108px" height="1024px" version="1.1" style="shape-rendering:geometricPrecision; text-rendering:geometricPrecision; image-rendering:optimizeQuality; fill-rule:evenodd; clip-rule:evenodd"
viewBox="0 0 1108 1024"
 xmlns:xlink="http://www.w3.org/1999/xlink">
 <defs>
  <style type="text/css">
   <![CDATA[
    .fil0 {fill:#009846;fill-rule:nonzero}
   ]]>
  </style>
 </defs>
 <g id="Layer_x0020_1">
  <metadata id="CorelCorpID_0Corel-Layer"/>
  <path class="fil0" d="M1108 512c0,322 -253,512 -554,512 -301,0 -554,-190 -554,-512 0,-322 253,-512 554,-512 301,0 554,190 554,512zm-133 0c0,-251 -171,-438 -421,-438 -250,0 -421,187 -421,438 0,251 171,438 421,438 250,0 421,-187 421,-438zm-103 -134c3,21 -31,29 -47,29 -16,1 -51,-5 -54,-25 -12,-98 -102,-166 -199,-164 -163,2 -238,156 -237,298 2,140 73,292 235,290 96,0 187,-69 203,-164 3,-21 38,-26 55,-25 15,1 49,9 45,30 -24,138 -169,214 -302,215 -213,1 -335,-143 -336,-345 -1,-205 120,-352 334,-355 135,-2 285,72 303,216z"/>
 </g>
</svg>
