<?xml version="1.0" encoding="UTF-8"?>
<!DOCTYPE svg PUBLIC "-//W3C//DTD SVG 1.1//EN" "http://www.w3.org/Graphics/SVG/1.1/DTD/svg11.dtd">
<!-- Creator: CorelDRAW X8 -->
<svg xmlns="http://www.w3.org/2000/svg" xml:space="preserve" width="1108px" height="1024px" version="1.1" style="shape-rendering:geometricPrecision; text-rendering:geometricPrecision; image-rendering:optimizeQuality; fill-rule:evenodd; clip-rule:evenodd"
viewBox="0 0 1108 1024"
 xmlns:xlink="http://www.w3.org/1999/xlink">
 <defs>
  <style type="text/css">
   <![CDATA[
    .fil0 {fill:#2B2A29;fill-rule:nonzero}
   ]]>
  </style>
 </defs>
 <g id="Layer_x0020_1">
  <metadata id="CorelCorpID_0Corel-Layer"/>
  <path class="fil0" d="M554 1024c301,0 554,-190 554,-512 0,-322 -253,-512 -554,-512 -301,0 -554,190 -554,512 0,322 253,512 554,512zm0 -74c-250,0 -421,-187 -421,-438 0,-251 171,-438 421,-438 250,0 421,187 421,438 0,251 -171,438 -421,438zm270 -333c-18,0 -48,6 -51,25 -16,98 -109,164 -206,164 -160,0 -232,-153 -232,-293 0,-146 78,-295 241,-295 96,0 182,67 195,164 3,21 37,25 54,25 15,0 47,-7 47,-26 0,-4 0,-7 -1,-11 -23,-137 -166,-208 -297,-208 -212,0 -339,144 -339,352 0,205 123,348 334,348 129,0 274,-72 303,-207 1,-4 1,-7 1,-11 0,-20 -33,-27 -49,-27z"/>
 </g>
</svg>
