<?xml version="1.0" encoding="UTF-8"?>
<!DOCTYPE svg PUBLIC "-//W3C//DTD SVG 1.1//EN" "http://www.w3.org/Graphics/SVG/1.1/DTD/svg11.dtd">
<!-- Creator: CorelDRAW 2020 (64-Bit) -->
<svg xmlns="http://www.w3.org/2000/svg" xml:space="preserve" width="751px" height="688px" version="1.1" style="shape-rendering:geometricPrecision; text-rendering:geometricPrecision; image-rendering:optimizeQuality; fill-rule:evenodd; clip-rule:evenodd"
viewBox="0 0 751 687.999"
 xmlns:xlink="http://www.w3.org/1999/xlink"
 xmlns:xodm="http://www.corel.com/coreldraw/odm/2003">
 <defs>
  <style type="text/css">
   <![CDATA[
    .fil0 {fill:#2B2A29;fill-rule:nonzero}
   ]]>
  </style>
 </defs>
 <g id="Layer_x0020_1">
  <metadata id="CorelCorpID_0Corel-Layer"/>
  <path class="fil0" d="M375.055 572.037c-127.981,0 -191.971,-113.074 -191.971,-227.038 0,-113.963 63.99,-229.037 191.971,-229.037 128.87,0 192.861,115.074 192.861,229.037 0,113.964 -64.88,227.038 -192.861,227.038zm303.067 115.962c12.886,0 26.098,-1.668 35.994,-4.887 18.107,-5.891 36.884,-19.105 36.884,-35.1 0,-5.998 -1.881,-12.114 -8.888,-19.105l-95.097 -94.858c43.993,-55.094 65.101,-121.072 65.101,-189.05 0,-66.867 -21.996,-137.067 -65.101,-191.049l95.097 -94.858c7.008,-6.99 8.888,-13.107 8.888,-19.105 0,-15.995 -18.844,-29.009 -36.884,-34.878 -9.957,-3.239 -23.108,-5.109 -35.994,-5.109 -23.108,0 -47.105,5.998 -61.103,19.993l-59.102 59.092c-48.881,-27.102 -109.984,-43.097 -182.862,-43.097 -73.1,0 -133.979,15.995 -183.083,43.097l-58.881 -59.092c-14.082,-14.133 -38.216,-19.993 -61.102,-19.993 -13.109,0 -26.069,1.774 -35.994,5.109 -17.185,5.774 -35.995,18.883 -35.995,34.878 0,5.998 1.921,12.074 8.888,19.105l93.986 94.858c-42.883,55.093 -64.88,123.071 -64.88,191.049 0,67.09 21.997,135.068 64.88,189.05l-93.986 94.858c-6.967,7.031 -8.888,13.107 -8.888,19.105 0,15.995 18.739,29.302 35.995,35.1 9.865,3.314 22.885,4.887 35.994,4.887 22.886,0 47.019,-5.86 61.102,-19.993l58.881 -59.092c49.104,27.102 109.983,43.097 183.083,43.097 72.878,0 133.981,-15.995 182.862,-43.097l59.102 59.092c13.998,13.995 37.995,19.993 61.103,19.993z"/>
 </g>
</svg>
