<?xml version="1.0" encoding="UTF-8"?>
<!DOCTYPE svg PUBLIC "-//W3C//DTD SVG 1.1//EN" "http://www.w3.org/Graphics/SVG/1.1/DTD/svg11.dtd">
<!-- Creator: CorelDRAW 2020 (64-Bit) -->
<svg xmlns="http://www.w3.org/2000/svg" xml:space="preserve" width="198.702mm" height="182.033mm" version="1.1" style="shape-rendering:geometricPrecision; text-rendering:geometricPrecision; image-rendering:optimizeQuality; fill-rule:evenodd; clip-rule:evenodd"
viewBox="0 0 19870.2 18203.32"
 xmlns:xlink="http://www.w3.org/1999/xlink"
 xmlns:xodm="http://www.corel.com/coreldraw/odm/2003">
 <defs>
  <style type="text/css">
   <![CDATA[
    .fil0 {fill:#2B2A29;fill-rule:nonzero}
   ]]>
  </style>
 </defs>
 <g id="Layer_x0020_1">
  <metadata id="CorelCorpID_0Corel-Layer"/>
  <path class="fil0" d="M9923.33 15137.1c-3386.66,0 -5080,-2992.73 -5080,-6008.98 0,-3016.25 1693.34,-6061.9 5080,-6061.9 3410.19,0 5103.52,3045.65 5103.52,6061.9 0,3016.25 -1716.85,6008.98 -5103.52,6008.98zm8019.82 3069.17c341.02,0 690.62,-44.15 952.5,-129.36 479.16,-155.91 976.02,-505.64 976.02,-928.98 0,-158.75 -49.76,-320.63 -235.19,-505.64l-2516.48 -2510.61c1164.17,-1458.15 1722.73,-3204.39 1722.73,-5003.56 0,-1769.77 -582.08,-3627.73 -1722.73,-5056.48l2516.48 -2510.61c185.44,-185.01 235.19,-346.89 235.19,-505.64 0,-423.34 -498.65,-767.78 -976.02,-923.11 -263.48,-85.73 -611.48,-135.23 -952.5,-135.23 -611.48,0 -1246.49,158.76 -1616.9,529.17l-1563.98 1563.98c-1293.52,-717.31 -2910.42,-1140.65 -4838.94,-1140.65 -1934.39,0 -3545.41,423.34 -4844.81,1140.65l-1558.1 -1563.98c-372.66,-374.07 -1011.3,-529.17 -1616.9,-529.17 -346.9,0 -689.85,46.97 -952.5,135.23 -454.76,152.82 -952.5,499.77 -952.5,923.11 0,158.75 50.83,319.56 235.18,505.64l2487.09 2510.61c-1134.77,1458.14 -1716.85,3257.31 -1716.85,5056.48 0,1775.65 582.08,3574.81 1716.85,5003.56l-2487.09 2510.61c-184.34,186.08 -235.18,346.89 -235.18,505.64 0,423.34 495.87,775.53 952.5,928.98 261.05,87.73 605.6,129.36 952.5,129.36 605.6,0 1244.23,-155.1 1616.9,-529.17l1558.1 -1563.98c1299.4,717.31 2910.42,1140.65 4844.81,1140.65 1928.52,0 3545.42,-423.34 4838.94,-1140.65l1563.98 1563.98c370.42,370.41 1005.42,529.17 1616.9,529.17z"/>
 </g>
</svg>
