<?xml version="1.0" encoding="UTF-8"?>
<!DOCTYPE svg PUBLIC "-//W3C//DTD SVG 1.1//EN" "http://www.w3.org/Graphics/SVG/1.1/DTD/svg11.dtd">
<!-- Creator: CorelDRAW X8 -->
<svg xmlns="http://www.w3.org/2000/svg" xml:space="preserve" width="942px" height="1700px" version="1.1" style="shape-rendering:geometricPrecision; text-rendering:geometricPrecision; image-rendering:optimizeQuality; fill-rule:evenodd; clip-rule:evenodd"
viewBox="0 0 942 1700"
 xmlns:xlink="http://www.w3.org/1999/xlink">
 <defs>
  <style type="text/css">
   <![CDATA[
    .fil0 {fill:#009846;fill-rule:nonzero}
   ]]>
  </style>
 </defs>
 <g id="Layer_x0020_1">
  <metadata id="CorelCorpID_0Corel-Layer"/>
  <path class="fil0" d="M202 468c-2,53 18,106 66,148 36,31 85,57 153,76l0 -488c-44,11 -88,33 -124,64 -59,51 -93,122 -95,200zm319 243c135,19 233,64 299,124 78,69 121,164 122,268 1,99 -43,196 -112,267 -81,86 -192,131 -309,139l0 166c0,14 -22,25 -50,25 -28,0 -50,-11 -50,-25l0 -167c-92,-10 -181,-41 -255,-100 -78,-62 -138,-154 -166,-285 -7,-34 48,-49 72,-50 28,-2 83,7 90,40 24,114 74,193 137,243 37,30 79,48 122,57l0 -554c-114,-25 -199,-68 -260,-121 -80,-70 -128,-173 -121,-281 6,-94 49,-176 120,-238 70,-60 163,-99 261,-110l0 -84c0,-14 22,-25 50,-25 28,0 50,11 50,25l0 82c94,6 185,38 256,98 65,55 114,134 134,242 7,34 -48,48 -72,50 -28,2 -83,-7 -90,-41 -17,-91 -56,-157 -108,-201 -36,-30 -78,-49 -120,-55l0 511zm0 706c65,-9 122,-43 166,-89 58,-61 93,-142 93,-221 0,-55 -20,-109 -67,-151 -41,-36 -103,-65 -192,-80l0 541z"/>
 </g>
</svg>
