<?xml version="1.0" encoding="UTF-8"?>
<!DOCTYPE svg PUBLIC "-//W3C//DTD SVG 1.1//EN" "http://www.w3.org/Graphics/SVG/1.1/DTD/svg11.dtd">
<!-- Creator: CorelDRAW X8 -->
<svg xmlns="http://www.w3.org/2000/svg" xml:space="preserve" width="942px" height="1700px" version="1.1" style="shape-rendering:geometricPrecision; text-rendering:geometricPrecision; image-rendering:optimizeQuality; fill-rule:evenodd; clip-rule:evenodd"
viewBox="0 0 942 1700"
 xmlns:xlink="http://www.w3.org/1999/xlink">
 <defs>
  <style type="text/css">
   <![CDATA[
    .fil0 {fill:#2B2A29;fill-rule:nonzero}
   ]]>
  </style>
 </defs>
 <g id="Layer_x0020_1">
  <metadata id="CorelCorpID_0Corel-Layer"/>
  <path class="fil0" d="M471 1700c28,0 50,-11 50,-25l0 -166c117,-8 228,-53 309,-139 68,-70 112,-166 112,-264 0,-105 -43,-201 -122,-271 -66,-60 -164,-105 -299,-124l0 -511c42,6 84,25 120,55 52,44 91,110 108,201 6,31 53,41 82,41 23,0 81,-11 81,-44 0,-7 -2,-13 -4,-20 -21,-101 -69,-175 -131,-228 -71,-60 -162,-92 -256,-98l0 -82c0,-14 -22,-25 -50,-25 -28,0 -50,11 -50,25l0 84c-98,11 -191,50 -261,110 -81,71 -116,153 -121,259 0,100 47,195 122,260 61,53 146,96 260,121l0 554c-43,-9 -85,-27 -122,-57 -63,-50 -113,-129 -137,-243 -6,-30 -53,-40 -82,-40 -25,0 -80,11 -80,43 0,8 3,18 6,29 29,119 87,204 160,263 74,59 163,90 255,100l0 167c0,14 22,25 50,25zm-50 -1008c-68,-19 -117,-45 -153,-76 -46,-40 -66,-90 -66,-141 0,-80 34,-154 95,-207 36,-31 80,-53 124,-64l0 488zm100 725l0 -541c192,32 259,129 259,231 0,134 -107,289 -259,310z"/>
 </g>
</svg>
