<?xml version="1.0" encoding="UTF-8"?>
<!DOCTYPE svg PUBLIC "-//W3C//DTD SVG 1.1//EN" "http://www.w3.org/Graphics/SVG/1.1/DTD/svg11.dtd">
<!-- Creator: CorelDRAW X8 -->
<svg xmlns="http://www.w3.org/2000/svg" xml:space="preserve" width="1024px" height="1024px" version="1.1" style="shape-rendering:geometricPrecision; text-rendering:geometricPrecision; image-rendering:optimizeQuality; fill-rule:evenodd; clip-rule:evenodd"
viewBox="0 0 1024 1024"
 xmlns:xlink="http://www.w3.org/1999/xlink">
 <defs>
  <style type="text/css">
   <![CDATA[
    .fil0 {fill:#898778;fill-rule:nonzero}
   ]]>
  </style>
 </defs>
 <g id="Layer_x0020_1">
  <metadata id="CorelCorpID_0Corel-Layer"/>
  <path class="fil0" d="M443 80c-27,7 -71,4 -89,-18 -21,-25 15,-43 34,-48 41,-9 82,-14 124,-14 42,0 83,5 124,14 19,5 55,23 34,48 -18,22 -62,25 -89,18 -22,-5 -46,-8 -69,-8 -23,0 -47,3 -69,8zm265 73c-27,-18 -14,-41 11,-51 27,-11 70,-11 95,6 29,20 57,44 82,71 25,27 47,56 65,87 16,26 -26,42 -44,45 -24,4 -70,0 -84,-24 -16,-27 -35,-53 -57,-75 -20,-22 -43,-42 -68,-59zm171 260c-6,-29 42,-39 60,-40 37,-2 70,12 74,32 7,34 11,72 11,107 0,35 -4,73 -11,107 -4,20 -37,34 -74,32 -18,-1 -66,-11 -60,-40 7,-33 10,-65 10,-99 0,-34 -3,-66 -10,-99zm-46 324c14,-24 60,-28 84,-24 36,6 55,26 44,45 -18,31 -40,60 -65,87 -25,27 -53,51 -82,71 -25,17 -68,17 -95,6 -25,-10 -38,-33 -11,-51 25,-17 48,-37 68,-59 22,-22 41,-48 57,-75zm-252 207c27,-7 71,-4 89,18 21,25 -15,43 -34,48 -41,9 -82,14 -124,14 -41,0 -83,-5 -124,-14 -19,-5 -55,-23 -34,-48 18,-22 62,-25 89,-18 22,5 46,8 69,8 23,0 47,-3 69,-8zm-265 -73c27,18 14,41 -11,51 -27,11 -70,11 -95,-6 -29,-20 -57,-44 -82,-71 -25,-27 -47,-56 -65,-87 -16,-26 26,-42 44,-45 24,-4 70,0 84,24 16,27 35,53 57,75 20,22 43,42 68,59zm-171 -260c6,29 -42,39 -60,40 -37,2 -70,-12 -74,-32 -7,-34 -11,-72 -11,-107 0,-35 4,-73 11,-107 4,-20 37,-34 74,-32 18,1 66,11 60,40 -7,33 -10,65 -10,99 0,34 3,66 10,99zm46 -324c-14,24 -60,28 -84,24 -18,-3 -60,-19 -44,-45 18,-31 40,-60 65,-87 25,-27 53,-51 82,-71 25,-17 68,-17 95,-6 24,10 38,33 11,51 -25,17 -48,37 -68,59 -22,22 -41,48 -57,75z"/>
 </g>
</svg>
