<?xml version="1.0" encoding="UTF-8"?>
<!DOCTYPE svg PUBLIC "-//W3C//DTD SVG 1.1//EN" "http://www.w3.org/Graphics/SVG/1.1/DTD/svg11.dtd">
<!-- Creator: CorelDRAW X8 -->
<svg xmlns="http://www.w3.org/2000/svg" xml:space="preserve" width="1046px" height="1024px" version="1.1" style="shape-rendering:geometricPrecision; text-rendering:geometricPrecision; image-rendering:optimizeQuality; fill-rule:evenodd; clip-rule:evenodd"
viewBox="0 0 1046 1023"
 xmlns:xlink="http://www.w3.org/1999/xlink">
 <defs>
  <style type="text/css">
   <![CDATA[
    .fil0 {fill:#898778;fill-rule:nonzero}
   ]]>
  </style>
 </defs>
 <g id="Layer_x0020_1">
  <metadata id="CorelCorpID_0Corel-Layer"/>
  <path class="fil0" d="M865 700c2,-24 37,-43 80,-43 26,0 86,12 82,48 -9,81 -66,160 -154,218 -104,70 -235,102 -359,100 -292,-2 -507,-194 -514,-489 -7,-313 214,-533 525,-534 291,-1 525,160 521,469 0,25 -36,45 -81,45l-803 0c-2,211 127,417 354,419 81,0 165,-23 232,-68 67,-44 110,-104 117,-165zm17 -277c-16,-201 -152,-333 -356,-332 -193,1 -321,153 -355,332l711 0z"/>
 </g>
</svg>
