<?xml version="1.0" encoding="UTF-8"?>
<!DOCTYPE svg PUBLIC "-//W3C//DTD SVG 1.1//EN" "http://www.w3.org/Graphics/SVG/1.1/DTD/svg11.dtd">
<!-- Creator: CorelDRAW X8 -->
<svg xmlns="http://www.w3.org/2000/svg" xml:space="preserve" width="1046px" height="1024px" version="1.1" style="shape-rendering:geometricPrecision; text-rendering:geometricPrecision; image-rendering:optimizeQuality; fill-rule:evenodd; clip-rule:evenodd"
viewBox="0 0 1046 1024"
 xmlns:xlink="http://www.w3.org/1999/xlink">
 <defs>
  <style type="text/css">
   <![CDATA[
    .fil0 {fill:#2B2A29;fill-rule:nonzero}
   ]]>
  </style>
 </defs>
 <g id="Layer_x0020_1">
  <metadata id="CorelCorpID_0Corel-Layer"/>
  <path class="fil0" d="M520 1024c122,0 251,-32 353,-100 61,-40 106,-90 132,-144 10,-21 22,-55 22,-78 0,-34 -57,-45 -82,-45 -43,0 -78,19 -80,43 -7,61 -50,121 -117,165 -66,45 -148,68 -227,68 -232,0 -359,-205 -359,-418l803 0c36,0 81,-12 81,-54 0,-302 -231,-461 -518,-461 -306,0 -528,211 -528,520 0,305 220,504 520,504zm362 -601l-711 0c34,-180 163,-332 357,-332 204,0 339,132 354,332z"/>
 </g>
</svg>
