<?xml version="1.0" encoding="UTF-8"?>
<!DOCTYPE svg PUBLIC "-//W3C//DTD SVG 1.1//EN" "http://www.w3.org/Graphics/SVG/1.1/DTD/svg11.dtd">
<!-- Creator: CorelDRAW 2020 (64-Bit) -->
<svg xmlns="http://www.w3.org/2000/svg" xml:space="preserve" width="175.948mm" height="179.123mm" version="1.1" style="shape-rendering:geometricPrecision; text-rendering:geometricPrecision; image-rendering:optimizeQuality; fill-rule:evenodd; clip-rule:evenodd"
viewBox="0 0 17594.78 17912.29"
 xmlns:xlink="http://www.w3.org/1999/xlink"
 xmlns:xodm="http://www.corel.com/coreldraw/odm/2003">
 <defs>
  <style type="text/css">
   <![CDATA[
    .fil0 {fill:#2B2A29;fill-rule:nonzero}
   ]]>
  </style>
 </defs>
 <g id="Layer_x0020_1">
  <metadata id="CorelCorpID_0Corel-Layer"/>
  <path class="fil0" d="M16176.48 17912.29c462.51,0 1418.31,-201.19 1418.31,-804.48 0,-194.32 -122.36,-388.05 -384.69,-544.09 -436.15,-259.43 -724.34,-612.08 -910.23,-1019.23 -282.35,-618.45 -333.22,-1355.05 -333.22,-2039.35l0 -7679.47c0,-4213.73 -4150.76,-5825.67 -7748.24,-5825.67 -2047.8,0 -3990.33,534.86 -5420.65,1484.59 -1367.45,907.97 -2261.5,2222.97 -2273.18,3552.15 -3.86,439.13 629.49,804.47 1414.42,804.47 788.82,0 1413.39,-365.35 1418.32,-804.47 10.6,-944.46 645.17,-1888.58 1608.7,-2518.37 909.41,-594.42 2082.78,-924.96 3252.39,-924.96 2621.06,0 4896.08,1379.19 4896.08,4232.26l0 1764.41c-749.95,474.14 -1923.46,579.07 -3112.51,579.07 -979.21,0 -1958.42,-69.96 -2708.38,-69.96 -2254.33,0 -4828.82,258.56 -6239.81,1795.68 -773.04,842.13 -1053.79,1897.85 -1053.79,3015.66 0,1869.61 1017.19,3145.78 2440.59,3940.92 1319.43,737.07 2987.93,1060.84 4518.83,1060.84 2203.24,0 5055.4,-858.89 6504.79,-2502.82 332.56,1257.06 1313.59,2502.82 2712.27,2502.82zm-9217.06 -1593.42c-1121.41,0 -2157.76,-279.97 -2909.42,-853.89 -811.33,-619.49 -1218.85,-1610.21 -1226.6,-2602.62 -4.71,-603.47 138.39,-1207.59 428.38,-1729.22 769.03,-1383.29 2504.26,-1470.99 3901.93,-1459.97 1064.84,8.41 2133.29,89.4 3217.43,89.4 924.81,0 1853.51,-54.42 2743.35,-248.73l0 1997.59c0,3112.98 -3407.82,4807.44 -6155.07,4807.44z"/>
 </g>
</svg>
