<?xml version="1.0" encoding="UTF-8"?>
<!DOCTYPE svg PUBLIC "-//W3C//DTD SVG 1.1//EN" "http://www.w3.org/Graphics/SVG/1.1/DTD/svg11.dtd">
<!-- Creator: CorelDRAW 2020 (64-Bit) -->
<svg xmlns="http://www.w3.org/2000/svg" xml:space="preserve" width="665px" height="677px" version="1.1" style="shape-rendering:geometricPrecision; text-rendering:geometricPrecision; image-rendering:optimizeQuality; fill-rule:evenodd; clip-rule:evenodd"
viewBox="0 0 665 677"
 xmlns:xlink="http://www.w3.org/1999/xlink"
 xmlns:xodm="http://www.corel.com/coreldraw/odm/2003">
 <defs>
  <style type="text/css">
   <![CDATA[
    .fil0 {fill:#2B2A29;fill-rule:nonzero}
   ]]>
  </style>
 </defs>
 <g id="Layer_x0020_1">
  <metadata id="CorelCorpID_0Corel-Layer"/>
  <path class="fil0" d="M611.395 677c17.481,0 53.605,-7.604 53.605,-30.405 0,-7.345 -4.624,-14.667 -14.539,-20.564 -16.485,-9.805 -27.377,-23.134 -34.403,-38.522 -10.671,-23.375 -12.594,-51.215 -12.594,-77.078l0 -290.248c0,-159.259 -156.879,-220.183 -292.847,-220.183 -77.397,0 -150.815,20.215 -204.875,56.111 -51.683,34.317 -85.474,84.017 -85.915,134.254 -0.146,16.597 23.791,30.405 53.458,30.405 29.814,0 53.42,-13.808 53.606,-30.405 0.401,-35.696 24.384,-71.379 60.801,-95.182 34.372,-22.467 78.72,-34.96 122.925,-34.96 99.064,0 185.049,52.127 185.049,159.96l0 66.686c-28.344,17.921 -72.698,21.886 -117.638,21.886 -37.01,0 -74.019,-2.644 -102.364,-2.644 -85.203,0 -182.507,9.773 -235.836,67.869 -29.217,31.828 -39.828,71.729 -39.828,113.977 0,70.663 38.445,118.896 92.243,148.949 49.868,27.857 112.93,40.094 170.79,40.094 83.272,0 191.071,-32.462 245.851,-94.594 12.569,47.511 49.647,94.594 102.511,94.594zm-348.362 -60.223c-42.384,0 -81.553,-10.582 -109.962,-32.273 -30.664,-23.414 -46.067,-60.859 -46.36,-98.367 -0.178,-22.809 5.231,-45.641 16.191,-65.357 29.066,-52.281 94.649,-55.596 147.475,-55.18 40.246,0.318 80.628,3.379 121.603,3.379 34.954,0 70.054,-2.057 103.686,-9.401l0 75.5c0,117.656 -128.799,181.699 -232.633,181.699z"/>
 </g>
</svg>
