<?xml version="1.0" encoding="UTF-8"?>
<!DOCTYPE svg PUBLIC "-//W3C//DTD SVG 1.1//EN" "http://www.w3.org/Graphics/SVG/1.1/DTD/svg11.dtd">
<!-- Creator: CorelDRAW X8 -->
<svg xmlns="http://www.w3.org/2000/svg" xml:space="preserve" width="982px" height="1405px" version="1.1" style="shape-rendering:geometricPrecision; text-rendering:geometricPrecision; image-rendering:optimizeQuality; fill-rule:evenodd; clip-rule:evenodd"
viewBox="0 0 982 1405"
 xmlns:xlink="http://www.w3.org/1999/xlink">
 <defs>
  <style type="text/css">
   <![CDATA[
    .fil0 {fill:#434242;fill-rule:nonzero}
   ]]>
  </style>
 </defs>
 <g id="Layer_x0020_1">
  <metadata id="CorelCorpID_0Corel-Layer"/>
  <path class="fil0" d="M982 971l0 -925c0,-26 -35,-46 -80,-46 -45,0 -81,20 -81,46l-1 106c-62,-83 -183,-152 -328,-152 -305,0 -492,222 -492,512 0,290 187,512 492,512 144,0 265,-63 328,-148l0 95c0,218 -135,343 -350,343 -106,0 -250,-31 -311,-121 -15,-21 -47,-29 -75,-29 -27,0 -83,12 -83,44 0,6 2,11 6,17 90,133 306,180 462,180 275,0 513,-131 513,-434zm-490 -38c-222,0 -329,-227 -329,-421 0,-194 107,-421 329,-421 222,0 329,227 329,421 0,194 -107,421 -329,421z"/>
 </g>
</svg>
