<?xml version="1.0" encoding="UTF-8"?>
<!DOCTYPE svg PUBLIC "-//W3C//DTD SVG 1.1//EN" "http://www.w3.org/Graphics/SVG/1.1/DTD/svg11.dtd">
<!-- Creator: CorelDRAW X8 -->
<svg xmlns="http://www.w3.org/2000/svg" xml:space="preserve" width="920px" height="1405px" version="1.1" style="shape-rendering:geometricPrecision; text-rendering:geometricPrecision; image-rendering:optimizeQuality; fill-rule:evenodd; clip-rule:evenodd"
viewBox="0 0 920 1405"
 xmlns:xlink="http://www.w3.org/1999/xlink">
 <defs>
  <style type="text/css">
   <![CDATA[
    .fil0 {fill:#2B2A29;fill-rule:nonzero}
   ]]>
  </style>
 </defs>
 <g id="Layer_x0020_1">
  <metadata id="CorelCorpID_0Corel-Layer"/>
  <path class="fil0" d="M838 1405c45,0 82,-20 82,-45l0 -531c0,-255 -179,-449 -437,-449 -128,0 -258,49 -320,160l0 -495c0,-25 -36,-45 -81,-45 -45,0 -82,20 -82,45l0 1315c0,25 37,45 82,45 45,0 81,-20 81,-45l0 -501c0,-257 140,-386 308,-386 144,1 286,119 286,356l0 531c0,25 36,45 81,45z"/>
 </g>
</svg>
