<?xml version="1.0" encoding="UTF-8"?>
<!DOCTYPE svg PUBLIC "-//W3C//DTD SVG 1.1//EN" "http://www.w3.org/Graphics/SVG/1.1/DTD/svg11.dtd">
<!-- Creator: CorelDRAW X8 -->
<svg xmlns="http://www.w3.org/2000/svg" xml:space="preserve" width="1149px" height="1405px" version="1.1" style="shape-rendering:geometricPrecision; text-rendering:geometricPrecision; image-rendering:optimizeQuality; fill-rule:evenodd; clip-rule:evenodd"
viewBox="0 0 1149 1404"
 xmlns:xlink="http://www.w3.org/1999/xlink">
 <defs>
  <style type="text/css">
   <![CDATA[
    .fil0 {fill:#898778;fill-rule:nonzero}
   ]]>
  </style>
 </defs>
 <g id="Layer_x0020_1">
  <metadata id="CorelCorpID_0Corel-Layer"/>
  <path class="fil0" d="M150 512c-45,0 -82,-20 -82,-45 0,-25 37,-46 82,-46l196 0 73 -385c6,-29 54,-37 79,-36 39,2 67,22 63,44l-71 377 262 0 73 -385c5,-29 54,-37 78,-36 22,1 69,14 64,44l-72 377 173 0c45,0 81,21 81,46 0,25 -36,45 -81,45l-190 0 -74 391 195 0c45,0 82,20 82,45 0,26 -37,46 -82,46l-212 0 -71 375c-6,29 -55,37 -79,35 -21,-1 -69,-14 -63,-44l69 -366 -262 0 -71 375c-6,29 -54,37 -79,35 -39,-2 -67,-22 -63,-44l70 -366 -157 0c-45,0 -81,-20 -81,-46 0,-25 36,-45 81,-45l174 0 74 -391 -179 0zm248 391l262 0 74 -391 -262 0 -74 391z"/>
 </g>
</svg>
