<?xml version="1.0" encoding="UTF-8"?>
<!DOCTYPE svg PUBLIC "-//W3C//DTD SVG 1.1//EN" "http://www.w3.org/Graphics/SVG/1.1/DTD/svg11.dtd">
<!-- Creator: CorelDRAW X8 -->
<svg xmlns="http://www.w3.org/2000/svg" xml:space="preserve" width="1149px" height="1405px" version="1.1" style="shape-rendering:geometricPrecision; text-rendering:geometricPrecision; image-rendering:optimizeQuality; fill-rule:evenodd; clip-rule:evenodd"
viewBox="0 0 1149 1405"
 xmlns:xlink="http://www.w3.org/1999/xlink">
 <defs>
  <style type="text/css">
   <![CDATA[
    .fil0 {fill:#2B2A29;fill-rule:nonzero}
   ]]>
  </style>
 </defs>
 <g id="Layer_x0020_1">
  <metadata id="CorelCorpID_0Corel-Layer"/>
  <path class="fil0" d="M716 1369l71 -375 212 0c45,0 82,-20 82,-45 0,-25 -37,-46 -82,-46l-195 0 74 -390 190 0c45,0 81,-21 81,-46 0,-25 -36,-46 -81,-46l-173 0 71 -373c1,-4 2,-9 2,-13 0,-21 -35,-35 -70,-35 -34,0 -68,11 -73,36l-73 385 -262 0 69 -373c1,-5 2,-10 2,-14 0,-24 -31,-34 -63,-34 -36,0 -75,12 -79,36l-73 385 -196 0c-45,0 -82,21 -82,46 0,25 37,46 82,46l179 0 -74 390 -174 0c-45,0 -81,21 -81,46 0,25 36,45 81,45l156 0 -67 356c-1,4 -2,14 -3,17 -2,31 38,38 66,38 35,0 72,-12 77,-36l71 -375 262 0 -67 356c-1,5 -3,16 -3,20 0,22 38,35 72,35 33,0 66,-11 71,-36zm-56 -466l-262 0 74 -390 263 0 -75 390z"/>
 </g>
</svg>
