<?xml version="1.0" encoding="UTF-8"?>
<!DOCTYPE svg PUBLIC "-//W3C//DTD SVG 1.1//EN" "http://www.w3.org/Graphics/SVG/1.1/DTD/svg11.dtd">
<!-- Creator: CorelDRAW X8 -->
<svg xmlns="http://www.w3.org/2000/svg" xml:space="preserve" width="1149px" height="1405px" version="1.1" style="shape-rendering:geometricPrecision; text-rendering:geometricPrecision; image-rendering:optimizeQuality; fill-rule:evenodd; clip-rule:evenodd"
viewBox="0 0 1149 1405"
 xmlns:xlink="http://www.w3.org/1999/xlink">
 <defs>
  <style type="text/css">
   <![CDATA[
    .fil0 {fill:#009846;fill-rule:nonzero}
   ]]>
  </style>
 </defs>
 <g id="Layer_x0020_1">
  <metadata id="CorelCorpID_0Corel-Layer"/>
  <path class="fil0" d="M150 513c-45,0 -82,-21 -82,-46 0,-25 37,-46 82,-46l196 0 73 -385c6,-29 54,-37 79,-36 39,3 67,22 63,44l-71 377 262 0 73 -385c5,-29 54,-37 78,-36 22,2 70,14 64,44l-72 377 173 0c45,0 81,21 81,46 0,25 -36,46 -81,46l-190 0 -74 390 195 0c45,0 82,21 82,46 0,25 -37,45 -82,45l-212 0 -71 375c-6,29 -55,37 -79,36 -21,-2 -69,-14 -63,-44l69 -367 -262 0 -71 375c-6,29 -54,37 -79,36 -39,-3 -67,-22 -63,-44l69 -367 -156 0c-45,0 -81,-20 -81,-45 0,-25 36,-46 81,-46l174 0 74 -390 -179 0zm248 390l262 0 75 -390 -263 0 -74 390z"/>
 </g>
</svg>
