<?xml version="1.0" encoding="UTF-8"?>
<!DOCTYPE svg PUBLIC "-//W3C//DTD SVG 1.1//EN" "http://www.w3.org/Graphics/SVG/1.1/DTD/svg11.dtd">
<!-- Creator: CorelDRAW 2020 (64-Bit) -->
<svg xmlns="http://www.w3.org/2000/svg" xml:space="preserve" width="896px" height="1405px" version="1.1" style="shape-rendering:geometricPrecision; text-rendering:geometricPrecision; image-rendering:optimizeQuality; fill-rule:evenodd; clip-rule:evenodd"
viewBox="0 0 896 1405"
 xmlns:xlink="http://www.w3.org/1999/xlink"
 xmlns:xodm="http://www.corel.com/coreldraw/odm/2003">
 <defs>
  <style type="text/css">
   <![CDATA[
    .fil0 {fill:#2B2A29;fill-rule:nonzero}
   ]]>
  </style>
 </defs>
 <g id="Layer_x0020_1">
  <metadata id="CorelCorpID_0Corel-Layer"/>
  <path class="fil0" d="M371.908 331.034l2 47.988c3.745,89.902 -16.363,130.861 -33.992,159.963 -33.243,54.875 -91.825,109.252 -150.852,163.961 -104.929,97.252 -189.064,189.954 -189.064,342.14 0,237.944 219.946,359.914 439.002,359.914 185.065,0 300.858,-61.246 371.019,-145.076 58.696,-70.133 85.979,-160.851 85.979,-250.83 0,-25.105 -35.991,-45.989 -81.091,-45.989 -44.878,0 -80.869,20.884 -80.869,45.989 0,75.982 -22.19,153.802 -71.093,212.839 -56.181,67.822 -137.966,91.978 -223.945,91.978 -155.072,0 -277.64,-113.976 -277.042,-268.825 0.51,-132.192 75.342,-210.794 165.959,-295.04 64.232,-59.717 129.918,-123.118 163.959,-177.958 23.05,-37.132 49.513,-86.298 45.1,-194.176l-1.999 -48.877c-0.985,-24.051 -37.102,-43.99 -81.092,-43.99 -26.013,0 -83.424,11.294 -81.979,45.989zm83.09 -116.085c59.356,0 107.474,-48.118 107.474,-107.474 0,-59.357 -48.118,-107.475 -107.474,-107.475 -59.356,0 -107.473,48.118 -107.473,107.475 0,59.356 48.117,107.474 107.473,107.474z"/>
 </g>
</svg>
