<?xml version="1.0" encoding="UTF-8"?>
<!DOCTYPE svg PUBLIC "-//W3C//DTD SVG 1.1//EN" "http://www.w3.org/Graphics/SVG/1.1/DTD/svg11.dtd">
<!-- Creator: CorelDRAW X8 -->
<svg xmlns="http://www.w3.org/2000/svg" xml:space="preserve" width="515px" height="1698px" version="1.1" style="shape-rendering:geometricPrecision; text-rendering:geometricPrecision; image-rendering:optimizeQuality; fill-rule:evenodd; clip-rule:evenodd"
viewBox="0 0 515 1700"
 xmlns:xlink="http://www.w3.org/1999/xlink">
 <defs>
  <style type="text/css">
   <![CDATA[
    .fil0 {fill:#898778}
   ]]>
  </style>
 </defs>
 <g id="Layer_x0020_1">
  <metadata id="CorelCorpID_0Corel-Layer"/>
  <path class="fil0" d="M425 0c50,0 90,40 90,90 0,50 -40,90 -90,90 -50,0 -90,-40 -90,-90 0,-50 40,-90 90,-90zm-82 339c0,-25 37,-46 82,-46 45,0 82,21 82,46l0 1091c0,193 -142,269 -317,270 -42,0 -82,-4 -120,-11 -27,-5 -89,-23 -65,-61 19,-29 72,-34 104,-28 25,5 53,9 81,9 110,-1 153,-74 153,-179l0 -1091z"/>
 </g>
</svg>
