<?xml version="1.0" encoding="UTF-8"?>
<!DOCTYPE svg PUBLIC "-//W3C//DTD SVG 1.1//EN" "http://www.w3.org/Graphics/SVG/1.1/DTD/svg11.dtd">
<!-- Creator: CorelDRAW X8 -->
<svg xmlns="http://www.w3.org/2000/svg" xml:space="preserve" width="943px" height="1405px" version="1.1" style="shape-rendering:geometricPrecision; text-rendering:geometricPrecision; image-rendering:optimizeQuality; fill-rule:evenodd; clip-rule:evenodd"
viewBox="0 0 943 1405"
 xmlns:xlink="http://www.w3.org/1999/xlink">
 <defs>
  <style type="text/css">
   <![CDATA[
    .fil0 {fill:#009846;fill-rule:nonzero}
   ]]>
  </style>
 </defs>
 <g id="Layer_x0020_1">
  <metadata id="CorelCorpID_0Corel-Layer"/>
  <path class="fil0" d="M0 45c0,-25 37,-45 82,-45 45,0 81,20 81,45l0 859 590 -505c22,-20 67,-21 95,-13 22,6 51,26 26,48l-431 369 491 531c31,34 -21,60 -49,67 -39,9 -105,5 -133,-25l-431 -468 -158 135 0 316c0,26 -36,46 -81,46 -45,0 -82,-20 -82,-46l0 -1314z"/>
 </g>
</svg>
