<?xml version="1.0" encoding="UTF-8"?>
<!DOCTYPE svg PUBLIC "-//W3C//DTD SVG 1.1//EN" "http://www.w3.org/Graphics/SVG/1.1/DTD/svg11.dtd">
<!-- Creator: CorelDRAW X8 -->
<svg xmlns="http://www.w3.org/2000/svg" xml:space="preserve" width="943px" height="1405px" version="1.1" style="shape-rendering:geometricPrecision; text-rendering:geometricPrecision; image-rendering:optimizeQuality; fill-rule:evenodd; clip-rule:evenodd"
viewBox="0 0 943 1405"
 xmlns:xlink="http://www.w3.org/1999/xlink">
 <defs>
  <style type="text/css">
   <![CDATA[
    .fil0 {fill:#2B2A29;fill-rule:nonzero}
   ]]>
  </style>
 </defs>
 <g id="Layer_x0020_1">
  <metadata id="CorelCorpID_0Corel-Layer"/>
  <path class="fil0" d="M844 1405c15,0 42,-3 64,-12 20,-8 36,-20 36,-38 0,-7 -4,-14 -10,-21l-491 -531 431 -369c7,-6 10,-12 10,-17 0,-15 -20,-27 -36,-31 -10,-3 -23,-5 -36,-5 -22,0 -45,5 -59,18l-591 505 0 -859c0,-25 -36,-45 -81,-45 -45,0 -82,20 -82,45l0 1314c0,26 37,46 82,46 45,0 81,-20 81,-46l0 -316 158 -135 432 468c19,21 58,29 92,29z"/>
 </g>
</svg>
