<?xml version="1.0" encoding="UTF-8"?>
<!DOCTYPE svg PUBLIC "-//W3C//DTD SVG 1.1//EN" "http://www.w3.org/Graphics/SVG/1.1/DTD/svg11.dtd">
<!-- Creator: CorelDRAW X8 -->
<svg xmlns="http://www.w3.org/2000/svg" xml:space="preserve" width="1102px" height="1405px" version="1.1" style="shape-rendering:geometricPrecision; text-rendering:geometricPrecision; image-rendering:optimizeQuality; fill-rule:evenodd; clip-rule:evenodd"
viewBox="0 0 1102 1405"
 xmlns:xlink="http://www.w3.org/1999/xlink">
 <defs>
  <style type="text/css">
   <![CDATA[
    .fil0 {fill:#2B2A29;fill-rule:nonzero}
   ]]>
  </style>
 </defs>
 <g id="Layer_x0020_1">
  <metadata id="CorelCorpID_0Corel-Layer"/>
  <path class="fil0" d="M1002 1405c13,0 33,-2 52,-8 26,-7 49,-20 49,-41 0,-6 -2,-12 -7,-18l-564 -765 560 -522c6,-6 9,-11 9,-16 0,-15 -22,-27 -38,-31 -10,-2 -22,-4 -34,-4 -23,0 -46,5 -60,18l-807 751 0 -728c0,-23 -37,-41 -82,-41 -45,0 -81,18 -81,41l0 1323c0,23 36,41 81,41 45,0 82,-18 82,-41l0 -447 242 -226 505 681c17,24 58,33 93,33z"/>
 </g>
</svg>
