<?xml version="1.0" encoding="UTF-8"?>
<!DOCTYPE svg PUBLIC "-//W3C//DTD SVG 1.1//EN" "http://www.w3.org/Graphics/SVG/1.1/DTD/svg11.dtd">
<!-- Creator: CorelDRAW X8 -->
<svg xmlns="http://www.w3.org/2000/svg" xml:space="preserve" width="1390px" height="1357px" version="1.1" style="shape-rendering:geometricPrecision; text-rendering:geometricPrecision; image-rendering:optimizeQuality; fill-rule:evenodd; clip-rule:evenodd"
viewBox="0 0 1390 1357"
 xmlns:xlink="http://www.w3.org/1999/xlink">
 <defs>
  <style type="text/css">
   <![CDATA[
    .fil0 {fill:#CC6633;fill-rule:nonzero}
   ]]>
  </style>
 </defs>
 <g id="Layer_x0020_1">
  <metadata id="CorelCorpID_0Corel-Layer"/>
  <path class="fil0" d="M306 0l466 0c397,0 618,315 618,681 0,369 -221,676 -618,676l-466 0c-45,0 -81,-20 -81,-46l0 -587 -144 0c-45,0 -81,-20 -81,-45 0,-26 36,-46 81,-46l144 0 0 -587c0,-26 36,-46 81,-46zm82 633l143 0c45,0 82,20 82,46 0,25 -37,45 -82,45l-143 0 0 542 384 0c311,0 456,-313 456,-585 -1,-269 -146,-590 -456,-590l-384 0 0 542z"/>
 </g>
</svg>
