<?xml version="1.0" encoding="UTF-8"?>
<!DOCTYPE svg PUBLIC "-//W3C//DTD SVG 1.1//EN" "http://www.w3.org/Graphics/SVG/1.1/DTD/svg11.dtd">
<!-- Creator: CorelDRAW X8 -->
<svg xmlns="http://www.w3.org/2000/svg" xml:space="preserve" width="1039px" height="1405px" version="1.1" style="shape-rendering:geometricPrecision; text-rendering:geometricPrecision; image-rendering:optimizeQuality; fill-rule:evenodd; clip-rule:evenodd"
viewBox="0 0 1039 1405"
 xmlns:xlink="http://www.w3.org/1999/xlink">
 <defs>
  <style type="text/css">
   <![CDATA[
    .fil0 {fill:#434242;fill-rule:nonzero}
   ]]>
  </style>
 </defs>
 <g id="Layer_x0020_1">
  <metadata id="CorelCorpID_0Corel-Layer"/>
  <path class="fil0" d="M82 1405c-45,0 -82,-21 -82,-46l0 -961c0,-267 178,-398 428,-398 171,0 374,80 374,279 0,159 -154,263 -154,376 0,165 391,229 391,485 0,181 -202,264 -357,264 -88,0 -173,-21 -237,-63 -54,-35 -116,-112 -116,-179 0,-33 54,-45 80,-45 41,0 78,17 82,41 9,57 39,98 79,123 32,21 72,32 112,32 97,0 194,-67 194,-171 0,-219 -393,-281 -393,-485 0,-135 154,-235 154,-381 0,-121 -96,-184 -209,-184 -185,0 -264,131 -264,306l0 961c0,25 -36,46 -82,46z"/>
 </g>
</svg>
