<?xml version="1.0" encoding="UTF-8"?>
<!DOCTYPE svg PUBLIC "-//W3C//DTD SVG 1.1//EN" "http://www.w3.org/Graphics/SVG/1.1/DTD/svg11.dtd">
<!-- Creator: CorelDRAW X8 -->
<svg xmlns="http://www.w3.org/2000/svg" xml:space="preserve" width="1050px" height="1405px" version="1.1" style="shape-rendering:geometricPrecision; text-rendering:geometricPrecision; image-rendering:optimizeQuality; fill-rule:evenodd; clip-rule:evenodd"
viewBox="0 0 1050 1405"
 xmlns:xlink="http://www.w3.org/1999/xlink">
 <defs>
  <style type="text/css">
   <![CDATA[
    .fil0 {fill:#2B2A29;fill-rule:nonzero}
   ]]>
  </style>
 </defs>
 <g id="Layer_x0020_1">
  <metadata id="CorelCorpID_0Corel-Layer"/>
  <path class="fil0" d="M525 1405c-306,0 -525,-206 -525,-515 0,-309 219,-515 525,-515 82,0 165,15 240,49 -40,-72 -89,-139 -144,-201l-137 72c-16,8 -36,12 -55,12 -19,0 -41,-4 -59,-14 -11,-6 -22,-17 -22,-31 0,-15 13,-26 25,-33l168 -88c-26,-24 -54,-47 -82,-69 -8,-7 -15,-15 -15,-26 0,-19 20,-31 35,-37 15,-6 31,-9 47,-9 21,0 49,6 66,20 23,19 47,37 69,58l125 -65c17,-9 37,-13 56,-13 20,0 41,4 59,15 11,6 22,17 22,31 0,14 -14,26 -26,32l-153 80c71,77 135,162 184,254 82,152 122,306 122,478 0,309 -219,515 -525,515zm0 -91c233,0 362,-209 362,-424 0,-214 -129,-424 -362,-424 -233,0 -362,210 -362,424 0,215 129,424 362,424z"/>
 </g>
</svg>
