<?xml version="1.0" encoding="UTF-8"?>
<!DOCTYPE svg PUBLIC "-//W3C//DTD SVG 1.1//EN" "http://www.w3.org/Graphics/SVG/1.1/DTD/svg11.dtd">
<!-- Creator: CorelDRAW X8 -->
<svg xmlns="http://www.w3.org/2000/svg" xml:space="preserve" width="1049px" height="1405px" version="1.1" style="shape-rendering:geometricPrecision; text-rendering:geometricPrecision; image-rendering:optimizeQuality; fill-rule:evenodd; clip-rule:evenodd"
viewBox="0 0 1049 1405"
 xmlns:xlink="http://www.w3.org/1999/xlink">
 <defs>
  <style type="text/css">
   <![CDATA[
    .fil0 {fill:#009846;fill-rule:nonzero}
   ]]>
  </style>
 </defs>
 <g id="Layer_x0020_1">
  <metadata id="CorelCorpID_0Corel-Layer"/>
  <path class="fil0" d="M525 472c-234,0 -362,209 -362,421 0,212 128,421 362,421 233,0 361,-209 361,-421 0,-212 -128,-421 -361,-421zm-67 -400c-26,-21 -17,-49 20,-64 36,-14 87,-9 113,11 24,19 47,39 70,59l123 -65c33,-18 84,-17 115,1 31,18 30,47 -3,64l-152 82c72,77 135,163 185,255 82,153 120,306 120,478 0,304 -216,512 -524,512 -309,0 -525,-208 -525,-512 0,-304 216,-512 525,-512 89,0 171,18 243,51 -41,-74 -91,-143 -147,-207l-136 73c-33,18 -84,17 -115,-1 -31,-18 -30,-47 3,-65l167 -89c-26,-25 -54,-49 -82,-71z"/>
 </g>
</svg>
