<?xml version="1.0" encoding="UTF-8"?>
<!DOCTYPE svg PUBLIC "-//W3C//DTD SVG 1.1//EN" "http://www.w3.org/Graphics/SVG/1.1/DTD/svg11.dtd">
<!-- Creator: CorelDRAW X8 -->
<svg xmlns="http://www.w3.org/2000/svg" xml:space="preserve" width="742px" height="654px" version="1.1" style="shape-rendering:geometricPrecision; text-rendering:geometricPrecision; image-rendering:optimizeQuality; fill-rule:evenodd; clip-rule:evenodd"
viewBox="0 0 742 654"
 xmlns:xlink="http://www.w3.org/1999/xlink">
 <defs>
  <style type="text/css">
   <![CDATA[
    .fil0 {fill:#434242;fill-rule:nonzero}
   ]]>
  </style>
 </defs>
 <g id="Layer_x0020_1">
  <metadata id="CorelCorpID_0Corel-Layer"/>
  <path class="fil0" d="M684 654c10,0 21,-2 30,-5 14,-4 28,-15 28,-28 0,-5 -2,-10 -8,-16l-296 -278 296 -278c6,-6 8,-11 8,-16 0,-13 -14,-24 -28,-28 -9,-3 -20,-5 -30,-5 -18,0 -37,5 -48,16l-314 294c-5,5 -8,11 -8,17 0,6 2,11 8,16l314 295c11,11 30,16 48,16zm-314 0c10,0 21,-2 30,-5 14,-4 28,-15 28,-28 0,-5 -2,-10 -8,-16l-296 -278 296 -278c6,-6 8,-11 8,-17 0,-12 -13,-23 -28,-27 -9,-3 -20,-5 -30,-5 -18,0 -37,5 -48,16l-314 294c-5,5 -8,11 -8,17 0,6 2,11 8,16l314 295c11,11 30,16 48,16z"/>
 </g>
</svg>
