<?xml version="1.0" encoding="UTF-8"?>
<!DOCTYPE svg PUBLIC "-//W3C//DTD SVG 1.1//EN" "http://www.w3.org/Graphics/SVG/1.1/DTD/svg11.dtd">
<!-- Creator: CorelDRAW X8 -->
<svg xmlns="http://www.w3.org/2000/svg" xml:space="preserve" width="743px" height="654px" version="1.1" style="shape-rendering:geometricPrecision; text-rendering:geometricPrecision; image-rendering:optimizeQuality; fill-rule:evenodd; clip-rule:evenodd"
viewBox="0 0 743 654"
 xmlns:xlink="http://www.w3.org/1999/xlink">
 <defs>
  <style type="text/css">
   <![CDATA[
    .fil0 {fill:#898778;fill-rule:nonzero}
   ]]>
  </style>
 </defs>
 <g id="Layer_x0020_1">
  <metadata id="CorelCorpID_0Corel-Layer"/>
  <path class="fil0" d="M735 606c20,18 0,37 -20,44 -23,8 -60,6 -79,-11l-314 -295c-5,-5 -8,-11 -8,-17 0,-6 3,-12 9,-17l313 -294c19,-18 56,-19 79,-12 20,7 40,26 20,45l-297 278 297 279zm-314 0c20,18 0,37 -20,44 -23,8 -60,6 -79,-11l-314 -295c-5,-6 -8,-11 -8,-17 0,-6 3,-12 9,-17l313 -294c19,-18 56,-19 79,-12 20,7 40,26 20,45l-297 278 297 279z"/>
 </g>
</svg>
