<?xml version="1.0" encoding="UTF-8"?>
<!DOCTYPE svg PUBLIC "-//W3C//DTD SVG 1.1//EN" "http://www.w3.org/Graphics/SVG/1.1/DTD/svg11.dtd">
<!-- Creator: CorelDRAW X8 -->
<svg xmlns="http://www.w3.org/2000/svg" xml:space="preserve" width="996px" height="945px" version="1.1" style="shape-rendering:geometricPrecision; text-rendering:geometricPrecision; image-rendering:optimizeQuality; fill-rule:evenodd; clip-rule:evenodd"
viewBox="0 0 996 945"
 xmlns:xlink="http://www.w3.org/1999/xlink">
 <defs>
  <style type="text/css">
   <![CDATA[
    .fil0 {fill:#CC6633;fill-rule:nonzero}
   ]]>
  </style>
 </defs>
 <g id="Layer_x0020_1">
  <metadata id="CorelCorpID_0Corel-Layer"/>
  <path class="fil0" d="M860 12c16,-8 35,-12 54,-12 22,0 45,5 61,15 14,9 21,20 21,31 0,12 -9,24 -26,33l-769 393 769 394c17,9 26,21 26,33 0,11 -7,22 -21,31 -16,10 -39,15 -61,15 -19,0 -38,-4 -54,-12l-834 -427c-17,-9 -26,-21 -26,-34 0,-12 9,-24 26,-33l834 -427z"/>
 </g>
</svg>
