<?xml version="1.0" encoding="UTF-8"?>
<!DOCTYPE svg PUBLIC "-//W3C//DTD SVG 1.1//EN" "http://www.w3.org/Graphics/SVG/1.1/DTD/svg11.dtd">
<!-- Creator: CorelDRAW X8 -->
<svg xmlns="http://www.w3.org/2000/svg" xml:space="preserve" width="1525px" height="1024px" version="1.1" style="shape-rendering:geometricPrecision; text-rendering:geometricPrecision; image-rendering:optimizeQuality; fill-rule:evenodd; clip-rule:evenodd"
viewBox="0 0 1525 1024"
 xmlns:xlink="http://www.w3.org/1999/xlink">
 <defs>
  <style type="text/css">
   <![CDATA[
    .fil0 {fill:#434242;fill-rule:nonzero}
   ]]>
  </style>
 </defs>
 <g id="Layer_x0020_1">
  <metadata id="CorelCorpID_0Corel-Layer"/>
  <path class="fil0" d="M1443 1024c45,0 82,-20 82,-45l0 -533c0,-257 -164,-446 -422,-446 -136,0 -253,42 -328,167 -76,-113 -182,-167 -318,-167 -110,0 -230,38 -294,155l0 -110c0,-25 -36,-45 -81,-45 -45,0 -82,20 -82,45l0 933c0,26 37,46 82,46 45,0 81,-20 81,-46l0 -500c0,-175 68,-384 262,-384 196,0 257,183 257,352l0 533c0,25 36,45 81,45 45,0 82,-20 82,-45l0 -533c0,-166 63,-352 257,-352 195,0 260,183 260,352l0 533c0,25 36,45 81,45z"/>
 </g>
</svg>
