<?xml version="1.0" encoding="UTF-8"?>
<!DOCTYPE svg PUBLIC "-//W3C//DTD SVG 1.1//EN" "http://www.w3.org/Graphics/SVG/1.1/DTD/svg11.dtd">
<!-- Creator: CorelDRAW 2020 (64-Bit) -->
<svg xmlns="http://www.w3.org/2000/svg" xml:space="preserve" width="189.177mm" height="278.871mm" version="1.1" style="shape-rendering:geometricPrecision; text-rendering:geometricPrecision; image-rendering:optimizeQuality; fill-rule:evenodd; clip-rule:evenodd"
viewBox="0 0 18917.7 27887.06"
 xmlns:xlink="http://www.w3.org/1999/xlink"
 xmlns:xodm="http://www.corel.com/coreldraw/odm/2003">
 <defs>
  <style type="text/css">
   <![CDATA[
    .fil0 {fill:#2B2A29;fill-rule:nonzero}
   ]]>
  </style>
 </defs>
 <g id="Layer_x0020_1">
  <metadata id="CorelCorpID_0Corel-Layer"/>
  <path class="fil0" d="M4314.69 18020.14c1228.37,1650.24 3029.41,2618.44 5367.45,2627.67 2362.08,9.25 4158.11,-1021.63 5317.94,-2812.5l0 1570.43c0,665.91 767.35,1205.75 1958.82,1205.75 1191.46,0 1958.81,-539.84 1958.81,-1205.75l0 -18199.99c0,-665.91 -965.88,-1205.75 -2157.34,-1205.75 -1191.47,0 -2157.35,539.84 -2157.35,1205.75l0 11011.82c-10.02,2886.75 -1612.32,6039.08 -4904.03,6028.16 -3580.98,-10.58 -5383.87,-3554.1 -5384.3,-6727.72l0 -10312.26c0,-665.91 -965.88,-1205.75 -2157.35,-1205.75 -1191.46,0 -2157.34,539.84 -2157.34,1205.75l0 25475.56c0,665.91 965.88,1205.75 2157.34,1205.75 1191.47,0 2157.35,-539.84 2157.35,-1205.75l0 -8661.17z"/>
 </g>
</svg>
