<?xml version="1.0" encoding="UTF-8"?>
<!DOCTYPE svg PUBLIC "-//W3C//DTD SVG 1.1//EN" "http://www.w3.org/Graphics/SVG/1.1/DTD/svg11.dtd">
<!-- Creator: CorelDRAW 2020 (64-Bit) -->
<svg xmlns="http://www.w3.org/2000/svg" xml:space="preserve" width="715px" height="1054px" version="1.1" style="shape-rendering:geometricPrecision; text-rendering:geometricPrecision; image-rendering:optimizeQuality; fill-rule:evenodd; clip-rule:evenodd"
viewBox="0 0 715 1053.999"
 xmlns:xlink="http://www.w3.org/1999/xlink"
 xmlns:xodm="http://www.corel.com/coreldraw/odm/2003">
 <defs>
  <style type="text/css">
   <![CDATA[
    .fil0 {fill:#2B2A29;fill-rule:nonzero}
   ]]>
  </style>
 </defs>
 <g id="Layer_x0020_1">
  <metadata id="CorelCorpID_0Corel-Layer"/>
  <path class="fil0" d="M163.075 681.076c46.426,62.371 114.497,98.965 202.864,99.314 89.275,0.349 157.157,-38.613 200.993,-106.3l0 59.355c0,25.168 29.002,45.572 74.034,45.572 45.031,0 74.034,-20.404 74.034,-45.572l0 -687.873c0,-25.169 -36.506,-45.572 -81.538,-45.572 -45.031,0 -81.537,20.403 -81.537,45.572l0 416.195c-0.379,109.105 -60.938,228.248 -185.349,227.835 -135.344,-0.4 -203.485,-134.328 -203.501,-254.276l0 -389.754c0,-25.169 -36.506,-45.572 -81.538,-45.572 -45.031,0 -81.537,20.403 -81.537,45.572l0 962.855c0,25.168 36.506,45.572 81.537,45.572 45.032,0 81.538,-20.404 81.538,-45.572l0 -327.351z"/>
 </g>
</svg>
