<?xml version="1.0" encoding="UTF-8"?>
<!DOCTYPE svg PUBLIC "-//W3C//DTD SVG 1.1//EN" "http://www.w3.org/Graphics/SVG/1.1/DTD/svg11.dtd">
<!-- Creator: CorelDRAW 2020 (64-Bit) -->
<svg xmlns="http://www.w3.org/2000/svg" xml:space="preserve" width="845px" height="1405px" version="1.1" style="shape-rendering:geometricPrecision; text-rendering:geometricPrecision; image-rendering:optimizeQuality; fill-rule:evenodd; clip-rule:evenodd"
viewBox="0 0 845 1404.612"
 xmlns:xlink="http://www.w3.org/1999/xlink"
 xmlns:xodm="http://www.corel.com/coreldraw/odm/2003">
 <defs>
  <style type="text/css">
   <![CDATA[
    .fil0 {fill:#434242;fill-rule:nonzero}
   ]]>
  </style>
 </defs>
 <g id="Layer_x0020_1">
  <metadata id="CorelCorpID_0Corel-Layer"/>
  <path class="fil0" d="M163.047 868.768l0 490.973c0,24.879 -35.986,44.871 -81.079,44.871 -44.871,0 -81.968,-19.996 -81.968,-44.871l0 -1313.759c0,-25.986 37.097,-45.982 81.968,-45.982 45.093,0 81.079,19.992 81.079,45.982l0 500.025c0,256.631 129.796,383.801 259.557,383.765 129.692,-0.035 259.349,-127.141 259.349,-383.765l0 -500.025c0,-25.99 35.986,-45.982 81.079,-45.982 44.871,0 81.968,19.992 81.968,45.982l0 932.965c0,24.879 -37.097,44.871 -81.968,44.871 -45.093,0 -81.079,-19.992 -81.079,-44.871l0 -110.179c-55.745,103.038 -158.338,153.952 -260.713,153.947 -101.627,-0.004 -203.039,-51.719 -258.193,-153.947z"/>
 </g>
</svg>
