<?xml version="1.0" encoding="UTF-8"?>
<!DOCTYPE svg PUBLIC "-//W3C//DTD SVG 1.1//EN" "http://www.w3.org/Graphics/SVG/1.1/DTD/svg11.dtd">
<!-- Creator: CorelDRAW X8 -->
<svg xmlns="http://www.w3.org/2000/svg" xml:space="preserve" width="1996px" height="1024px" version="1.1" style="shape-rendering:geometricPrecision; text-rendering:geometricPrecision; image-rendering:optimizeQuality; fill-rule:evenodd; clip-rule:evenodd"
viewBox="0 0 1996 1024"
 xmlns:xlink="http://www.w3.org/1999/xlink">
 <defs>
  <style type="text/css">
   <![CDATA[
    .fil0 {fill:#009846;fill-rule:nonzero}
   ]]>
  </style>
 </defs>
 <g id="Layer_x0020_1">
  <metadata id="CorelCorpID_0Corel-Layer"/>
  <path class="fil0" d="M1169 -1c189,0 372,74 484,233 35,50 61,106 78,165l183 0c45,0 82,21 82,46 0,25 -37,45 -82,45l-165 0c4,28 6,56 6,84 1,231 -117,453 -376,453 -184,0 -351,-119 -351,-314 0,-243 191,-314 402,-314l136 0c-15,-47 -36,-92 -64,-132 -79,-111 -199,-175 -333,-175 -182,-1 -291,123 -291,302l0 587c0,25 -37,46 -82,46 -44,0 -81,-21 -81,-46l0 -611c0,-147 -69,-276 -233,-276 -131,0 -237,96 -284,213 -26,68 -36,143 -35,216 2,158 67,356 223,422 30,13 46,41 16,64 -32,23 -84,22 -119,6 -194,-85 -280,-291 -283,-492 -1,-91 14,-183 51,-262 79,-168 248,-258 431,-258 124,0 238,31 323,125 93,-90 236,-127 364,-127zm417 489l-156 0c-154,0 -239,58 -239,223 0,105 73,223 188,223 153,0 213,-234 213,-360 0,-29 -2,-57 -6,-86z"/>
 </g>
</svg>
