<?xml version="1.0" encoding="UTF-8"?>
<!DOCTYPE svg PUBLIC "-//W3C//DTD SVG 1.1//EN" "http://www.w3.org/Graphics/SVG/1.1/DTD/svg11.dtd">
<!-- Creator: CorelDRAW X8 -->
<svg xmlns="http://www.w3.org/2000/svg" xml:space="preserve" width="2098px" height="1486px" version="1.1" style="shape-rendering:geometricPrecision; text-rendering:geometricPrecision; image-rendering:optimizeQuality; fill-rule:evenodd; clip-rule:evenodd"
viewBox="0 0 2098 1486"
 xmlns:xlink="http://www.w3.org/1999/xlink">
 <defs>
  <style type="text/css">
   <![CDATA[
    .fil0 {fill:#898778;fill-rule:nonzero}
   ]]>
  </style>
 </defs>
 <g id="Layer_x0020_1">
  <metadata id="CorelCorpID_0Corel-Layer"/>
  <path class="fil0" d="M1276 1024c-27,0 -81,-12 -81,-46l0 -606c0,-185 -143,-282 -321,-281 -143,1 -252,90 -311,210 -31,64 -49,136 -50,209 53,-75 130,-116 220,-119 97,-3 191,34 250,98 54,56 81,133 79,221 -3,89 -37,179 -106,236 -58,49 -139,77 -223,77 -83,1 -157,-22 -221,-75 -111,-91 -160,-252 -160,-408 0,-102 22,-195 61,-273 82,-163 248,-266 461,-267 136,-1 303,29 402,126 79,-83 172,-126 314,-126 183,0 352,90 431,259 55,117 79,244 77,372 -4,210 -69,384 -171,520 -168,224 -511,342 -851,335 -266,-5 -570,-89 -752,-238 -200,-164 -325,-407 -324,-715 1,-202 74,-395 243,-515 30,-21 82,-22 115,-8 30,14 44,42 13,64 -146,104 -207,277 -207,459 -1,253 87,465 238,616 152,152 427,241 679,246 307,6 601,-118 731,-331 73,-119 120,-266 123,-434 3,-110 -15,-222 -55,-325 -47,-118 -159,-214 -290,-214 -162,0 -233,115 -233,265l0 622c0,33 -53,46 -81,46zm-718 -314c0,147 85,222 175,222 84,1 173,-73 174,-222 0,-148 -87,-222 -174,-222 -87,0 -174,74 -175,222z"/>
 </g>
</svg>
