<?xml version="1.0" encoding="UTF-8"?>
<!DOCTYPE svg PUBLIC "-//W3C//DTD SVG 1.1//EN" "http://www.w3.org/Graphics/SVG/1.1/DTD/svg11.dtd">
<!-- Creator: CorelDRAW X8 -->
<svg xmlns="http://www.w3.org/2000/svg" xml:space="preserve" width="2877px" height="1024px" version="1.1" style="shape-rendering:geometricPrecision; text-rendering:geometricPrecision; image-rendering:optimizeQuality; fill-rule:evenodd; clip-rule:evenodd"
viewBox="0 0 2877 1024"
 xmlns:xlink="http://www.w3.org/1999/xlink">
 <defs>
  <style type="text/css">
   <![CDATA[
    .fil0 {fill:#434242;fill-rule:nonzero}
   ]]>
  </style>
 </defs>
 <g id="Layer_x0020_1">
  <metadata id="CorelCorpID_0Corel-Layer"/>
  <path class="fil0" d="M220 1018c23,0 45,-5 62,-17 13,-9 18,-19 18,-28 0,-14 -12,-28 -30,-36 -74,-34 -107,-118 -107,-195 0,-135 95,-208 189,-208 94,0 187,73 187,208 0,71 -26,148 -91,186 -11,6 -23,16 -23,32 0,24 37,46 82,46l658 0c26,0 79,-13 79,-46 0,-17 -19,-30 -33,-36 -164,-69 -222,-255 -222,-418 0,-67 11,-139 35,-201 46,-118 152,-208 283,-208 162,0 234,116 234,265l0 469c0,25 36,45 80,45 45,0 82,-20 82,-45l0 -491c0,-163 98,-240 251,-243 115,-3 225,49 296,143 32,41 53,90 66,140 -60,-18 -120,-34 -188,-34 -149,0 -306,78 -306,246 0,182 153,285 324,285 179,0 296,-107 334,-271 7,-28 10,-57 12,-86 18,1 37,2 56,2 107,0 218,-23 308,-80 14,-9 21,-19 21,-30 0,-13 -10,-25 -28,-34 -15,-8 -35,-12 -54,-12 -22,0 -43,6 -60,16 -56,36 -122,50 -188,50 -20,0 -40,-2 -59,-4 -10,-81 -38,-159 -88,-224 -105,-138 -277,-200 -446,-198 -119,1 -246,28 -331,119 -84,-90 -195,-119 -316,-119 -182,0 -351,85 -430,253 -36,77 -51,159 -51,247 0,150 47,305 160,409l-336 0c35,-49 52,-109 52,-173 0,-196 -175,-299 -350,-299 -176,0 -352,102 -352,299 0,115 59,214 164,264 16,8 36,12 56,12zm1926 -233c-99,0 -161,-98 -161,-189 0,-83 47,-158 138,-158 67,0 148,34 207,52 0,35 -4,70 -12,104 -18,80 -74,191 -172,191z"/>
 </g>
</svg>
