<?xml version="1.0" encoding="UTF-8"?>
<!DOCTYPE svg PUBLIC "-//W3C//DTD SVG 1.1//EN" "http://www.w3.org/Graphics/SVG/1.1/DTD/svg11.dtd">
<!-- Creator: CorelDRAW X8 -->
<svg xmlns="http://www.w3.org/2000/svg" xml:space="preserve" width="3949px" height="1024px" version="1.1" style="shape-rendering:geometricPrecision; text-rendering:geometricPrecision; image-rendering:optimizeQuality; fill-rule:evenodd; clip-rule:evenodd"
viewBox="0 0 3949 1024"
 xmlns:xlink="http://www.w3.org/1999/xlink">
 <defs>
  <style type="text/css">
   <![CDATA[
    .fil0 {fill:#CC6633;fill-rule:nonzero}
   ]]>
  </style>
 </defs>
 <g id="Layer_x0020_1">
  <metadata id="CorelCorpID_0Corel-Layer"/>
  <path class="fil0" d="M3070 221c-25,62 -33,124 -33,186l0 141c0,25 -36,46 -81,46 -45,0 -82,-21 -82,-46l0 -138c0,-79 -6,-155 -50,-224 -35,-56 -90,-95 -165,-95 -90,0 -152,58 -185,133 -39,88 -27,204 -27,299 0,151 17,289 -106,403 -68,63 -163,98 -269,98 -109,0 -207,-36 -275,-102 -116,-113 -104,-271 -101,-419 2,-105 10,-226 -48,-317 -35,-56 -90,-95 -165,-95 -90,0 -153,58 -185,133 -39,88 -27,204 -27,299 0,151 17,289 -106,403 -68,63 -163,98 -270,98 -112,0 -223,-39 -296,-127 -68,77 -172,121 -291,121 -112,0 -227,-40 -300,-128 -6,-6 -8,-13 -8,-20 0,-17 18,-33 47,-41 11,-3 23,-4 35,-4 30,0 60,10 73,26 38,45 93,76 152,76 139,0 212,-139 212,-265l0 -616c0,-25 36,-46 81,-46 45,0 82,21 82,46l0 616c0,127 70,271 213,271 71,0 124,-35 160,-86 67,-96 52,-216 53,-327 0,-122 -15,-253 55,-361 65,-101 183,-159 320,-159 116,0 218,41 286,114 103,111 92,249 89,389 -2,112 -13,249 54,344 36,51 89,86 160,86 70,0 123,-35 159,-86 67,-96 53,-216 53,-327 0,-122 -15,-253 55,-361 65,-101 184,-159 320,-159 113,0 224,40 298,128 82,-92 245,-128 408,-128 210,0 361,44 455,129 80,72 129,172 129,299l0 526c0,25 -36,46 -81,46l-738 0c-27,0 -87,-9 -87,-46 0,-3 0,-7 2,-10 4,-11 16,-21 34,-28 161,-60 295,-200 361,-359 25,-62 40,-128 39,-196 -1,-131 -60,-256 -211,-260 -83,-3 -166,41 -198,120zm436 -125c96,56 132,158 134,265 1,65 -12,131 -35,194 -53,143 -152,267 -277,353l458 0 0 -480c0,-109 -39,-193 -104,-251 -47,-43 -108,-70 -176,-81z"/>
 </g>
</svg>
