<?xml version="1.0" encoding="UTF-8"?>
<!DOCTYPE svg PUBLIC "-//W3C//DTD SVG 1.1//EN" "http://www.w3.org/Graphics/SVG/1.1/DTD/svg11.dtd">
<!-- Creator: CorelDRAW X8 -->
<svg xmlns="http://www.w3.org/2000/svg" xml:space="preserve" width="2877px" height="1012px" version="1.1" style="shape-rendering:geometricPrecision; text-rendering:geometricPrecision; image-rendering:optimizeQuality; fill-rule:evenodd; clip-rule:evenodd"
viewBox="0 0 2877 1012"
 xmlns:xlink="http://www.w3.org/1999/xlink">
 <defs>
  <style type="text/css">
   <![CDATA[
    .fil0 {fill:#898778;fill-rule:nonzero}
   ]]>
  </style>
 </defs>
 <g id="Layer_x0020_1">
  <metadata id="CorelCorpID_0Corel-Layer"/>
  <path class="fil0" d="M507 1000c-45,0 -82,-21 -82,-46 0,-15 11,-26 23,-32 65,-38 91,-115 91,-186 0,-135 -93,-208 -187,-208 -94,0 -189,73 -189,208 0,76 33,161 107,195 30,13 43,42 12,64 -32,22 -84,21 -119,5 -104,-50 -163,-149 -163,-264 0,-197 176,-299 352,-299 175,0 350,103 350,299 0,64 -17,124 -52,172l336 0c-109,-99 -158,-247 -160,-400 -2,-91 14,-176 51,-255 79,-169 248,-253 430,-253 121,0 232,29 316,118 69,-73 177,-111 295,-117 181,-10 369,49 482,197 50,65 78,142 88,223 20,3 40,4 60,4 66,0 130,-14 187,-49 31,-20 82,-20 115,-4 31,15 38,44 6,64 -91,57 -202,80 -308,80 -19,0 -38,-1 -56,-2 -2,29 -6,58 -12,85 -39,165 -154,272 -334,272 -153,0 -297,-83 -321,-242 -29,-188 131,-287 297,-290 70,0 132,16 194,35 -12,-51 -34,-99 -66,-140 -76,-100 -192,-149 -316,-142 -144,7 -231,99 -231,242l0 491c0,25 -37,45 -82,45 -44,0 -80,-20 -80,-45l0 -469c0,-150 -72,-265 -234,-265 -131,0 -237,90 -283,208 -26,67 -37,136 -36,209 3,158 67,344 223,410 21,9 32,22 32,35 2,34 -53,47 -78,47l-658 0zm1812 -412c8,-34 11,-69 11,-104 -59,-18 -140,-52 -207,-52 -103,0 -150,96 -136,190 13,80 72,157 159,157 98,0 154,-111 173,-191z"/>
 </g>
</svg>
