<?xml version="1.0" encoding="UTF-8"?>
<!DOCTYPE svg PUBLIC "-//W3C//DTD SVG 1.1//EN" "http://www.w3.org/Graphics/SVG/1.1/DTD/svg11.dtd">
<!-- Creator: CorelDRAW X8 -->
<svg xmlns="http://www.w3.org/2000/svg" xml:space="preserve" width="3692px" height="1024px" version="1.1" style="shape-rendering:geometricPrecision; text-rendering:geometricPrecision; image-rendering:optimizeQuality; fill-rule:evenodd; clip-rule:evenodd"
viewBox="0 0 3692 1024"
 xmlns:xlink="http://www.w3.org/1999/xlink">
 <defs>
  <style type="text/css">
   <![CDATA[
    .fil0 {fill:#CC6633;fill-rule:nonzero}
   ]]>
  </style>
 </defs>
 <g id="Layer_x0020_1">
  <metadata id="CorelCorpID_0Corel-Layer"/>
  <path class="fil0" d="M2231 847c-36,51 -89,86 -160,86 -70,0 -123,-35 -159,-86 -67,-95 -56,-232 -54,-344 2,-140 14,-278 -89,-389 -68,-73 -170,-114 -286,-114 -137,0 -255,58 -320,159 -70,108 -55,239 -55,361 -1,111 13,231 -54,327 -35,51 -88,86 -159,86 -143,0 -213,-144 -213,-271l0 -616c0,-25 -37,-46 -82,-46 -45,0 -81,21 -81,46l0 616c0,126 -73,265 -212,265 -59,0 -114,-31 -152,-76 -13,-16 -43,-26 -73,-26 -12,0 -24,1 -35,4 -29,8 -47,24 -47,41 0,7 2,13 8,20 73,88 188,128 300,128 119,0 223,-44 291,-121 73,88 184,127 296,127 107,0 202,-35 270,-98 123,-114 105,-252 105,-403 0,-95 -11,-211 27,-299 33,-75 96,-133 186,-133 74,0 130,39 165,95 58,91 50,212 48,317 -3,148 -15,306 101,418 68,67 165,103 274,103 107,0 202,-35 270,-98 123,-114 105,-252 105,-403 0,-95 -11,-211 27,-299 33,-75 96,-133 186,-133 75,0 130,39 165,95 58,91 50,212 48,317 -5,271 33,519 365,521 149,1 273,-60 358,-183 66,-94 98,-223 97,-338 -2,-204 -104,-404 -294,-491 -17,-8 -37,-12 -57,-12 -22,0 -44,5 -62,17 -12,8 -17,18 -18,28 0,14 11,27 31,36 156,70 236,259 238,422 1,103 -28,222 -86,305 -48,70 -118,127 -207,125 -206,-6 -206,-280 -203,-430 2,-140 14,-278 -89,-389 -68,-73 -170,-114 -286,-114 -137,0 -255,58 -320,159 -70,108 -55,239 -55,361 -1,111 14,231 -53,327z"/>
 </g>
</svg>
