<?xml version="1.0" encoding="UTF-8"?>
<!DOCTYPE svg PUBLIC "-//W3C//DTD SVG 1.1//EN" "http://www.w3.org/Graphics/SVG/1.1/DTD/svg11.dtd">
<!-- Creator: CorelDRAW X8 -->
<svg xmlns="http://www.w3.org/2000/svg" xml:space="preserve" width="2220px" height="1412px" version="1.1" style="shape-rendering:geometricPrecision; text-rendering:geometricPrecision; image-rendering:optimizeQuality; fill-rule:evenodd; clip-rule:evenodd"
viewBox="0 0 2220 1413"
 xmlns:xlink="http://www.w3.org/1999/xlink">
 <defs>
  <style type="text/css">
   <![CDATA[
    .fil0 {fill:#2B2A29;fill-rule:nonzero}
   ]]>
  </style>
 </defs>
 <g id="Layer_x0020_1">
  <metadata id="CorelCorpID_0Corel-Layer"/>
  <path class="fil0" d="M1417 0c-135,0 -277,34 -387,111 -14,9 -20,19 -20,29 0,14 14,27 32,35 14,7 32,10 50,10 24,0 46,-5 64,-17 76,-53 168,-77 261,-77 261,0 458,151 563,377 52,113 77,234 77,358 -1,216 -110,495 -360,495 -161,0 -232,-125 -232,-274l0 -612c0,-25 -37,-46 -82,-46 -45,0 -81,21 -81,46l0 612c0,133 -64,273 -214,273 -148,0 -210,-143 -210,-274l0 -612c0,-25 -38,-46 -83,-46 -44,0 -81,21 -81,46l0 612c0,149 -71,274 -233,274 -131,0 -237,-96 -283,-213 -25,-64 -35,-136 -35,-206 0,-159 63,-363 222,-431 19,-8 33,-22 33,-37 0,-9 -5,-18 -17,-27 -17,-13 -38,-18 -60,-18 -22,0 -43,5 -61,13 -194,87 -280,297 -280,499 0,89 15,176 51,253 79,168 248,259 430,259 134,0 245,-50 316,-132 76,89 176,133 291,133 114,0 220,-45 294,-133 71,82 182,133 315,133 328,0 523,-259 523,-587 0,-128 -29,-265 -83,-381 -133,-286 -396,-445 -720,-445z"/>
 </g>
</svg>
