<?xml version="1.0" encoding="UTF-8"?>
<!DOCTYPE svg PUBLIC "-//W3C//DTD SVG 1.1//EN" "http://www.w3.org/Graphics/SVG/1.1/DTD/svg11.dtd">
<!-- Creator: CorelDRAW X8 -->
<svg xmlns="http://www.w3.org/2000/svg" xml:space="preserve" width="1716px" height="1412px" version="1.1" style="shape-rendering:geometricPrecision; text-rendering:geometricPrecision; image-rendering:optimizeQuality; fill-rule:evenodd; clip-rule:evenodd"
viewBox="0 0 1716 1412"
 xmlns:xlink="http://www.w3.org/1999/xlink">
 <defs>
  <style type="text/css">
   <![CDATA[
    .fil0 {fill:#009846;fill-rule:nonzero}
   ]]>
  </style>
 </defs>
 <g id="Layer_x0020_1">
  <metadata id="CorelCorpID_0Corel-Layer"/>
  <path class="fil0" d="M1331 81c-31,-12 -47,-40 -16,-63 32,-24 83,-22 118,-7 195,86 280,291 283,492 1,92 -14,183 -51,262 -79,168 -248,259 -430,259 -133,0 -244,-38 -315,-117 -55,62 -136,99 -233,112 14,230 -149,393 -378,393 -116,0 -235,-31 -304,-131 -21,-31 21,-53 47,-59 32,-7 85,-2 105,26 38,56 87,73 152,73 153,0 224,-172 215,-303 -150,-23 -282,-110 -349,-253 -37,-79 -52,-170 -51,-262 3,-201 89,-406 283,-492 35,-15 87,-17 119,7 30,22 14,51 -16,63 -156,67 -220,265 -223,422 -1,74 9,149 36,216 46,118 152,214 283,214 161,0 233,-115 233,-265l0 -622c0,-26 36,-46 81,-46 45,0 82,20 82,46l0 622c0,149 71,265 233,265 131,0 237,-96 283,-214 26,-67 37,-142 35,-216 -2,-157 -67,-355 -222,-422z"/>
 </g>
</svg>
