<?xml version="1.0" encoding="UTF-8"?>
<!DOCTYPE svg PUBLIC "-//W3C//DTD SVG 1.1//EN" "http://www.w3.org/Graphics/SVG/1.1/DTD/svg11.dtd">
<!-- Creator: CorelDRAW X8 -->
<svg xmlns="http://www.w3.org/2000/svg" xml:space="preserve" width="1884px" height="1024px" version="1.1" style="shape-rendering:geometricPrecision; text-rendering:geometricPrecision; image-rendering:optimizeQuality; fill-rule:evenodd; clip-rule:evenodd"
viewBox="0 0 1884 1024"
 xmlns:xlink="http://www.w3.org/1999/xlink">
 <defs>
  <style type="text/css">
   <![CDATA[
    .fil0 {fill:#2B2A29;fill-rule:nonzero}
   ]]>
  </style>
 </defs>
 <g id="Layer_x0020_1">
  <metadata id="CorelCorpID_0Corel-Layer"/>
  <path class="fil0" d="M797 1024c45,0 81,-20 81,-46l0 -587c0,-161 107,-300 276,-300 174,0 260,108 260,276 0,234 -188,470 -402,549 -16,6 -36,19 -36,38 2,37 62,46 88,46l738 0c45,0 82,-21 82,-46l0 -526c0,-127 -49,-227 -129,-299 -123,-111 -334,-129 -494,-129 -149,0 -345,17 -456,125 -85,-94 -199,-125 -323,-125 -182,0 -352,90 -431,258 -36,77 -51,165 -51,254 0,204 87,415 283,502 16,6 36,10 56,10 23,0 46,-6 63,-18 11,-9 16,-18 16,-27 0,-15 -13,-29 -32,-37 -159,-67 -223,-272 -223,-432 0,-70 10,-141 36,-205 46,-118 152,-214 283,-214 164,0 233,130 233,276l0 611c0,26 37,46 82,46zm924 -116l-458 0c170,-117 312,-327 312,-540 0,-108 -36,-215 -134,-272 68,11 129,38 176,81 64,58 104,142 104,251l0 480z"/>
 </g>
</svg>
