<?xml version="1.0" encoding="UTF-8"?>
<!DOCTYPE svg PUBLIC "-//W3C//DTD SVG 1.1//EN" "http://www.w3.org/Graphics/SVG/1.1/DTD/svg11.dtd">
<!-- Creator: CorelDRAW X8 -->
<svg xmlns="http://www.w3.org/2000/svg" xml:space="preserve" width="2376px" height="1024px" version="1.1" style="shape-rendering:geometricPrecision; text-rendering:geometricPrecision; image-rendering:optimizeQuality; fill-rule:evenodd; clip-rule:evenodd"
viewBox="0 0 2376 1024"
 xmlns:xlink="http://www.w3.org/1999/xlink">
 <defs>
  <style type="text/css">
   <![CDATA[
    .fil0 {fill:#434242;fill-rule:nonzero}
   ]]>
  </style>
 </defs>
 <g id="Layer_x0020_1">
  <metadata id="CorelCorpID_0Corel-Layer"/>
  <path class="fil0" d="M816 1024c250,0 368,-203 376,-427 18,3 46,6 70,6 174,-2 326,-131 326,-310 0,-74 -27,-145 -77,-200l244 0c-50,55 -78,126 -78,200 0,198 169,304 350,304 180,0 349,-106 349,-304 0,-128 -76,-237 -195,-284 -13,-5 -29,-8 -45,-8 -22,0 -45,6 -61,18 -10,8 -14,16 -14,24 0,15 15,29 33,36 84,33 129,127 129,214 0,117 -75,219 -196,219 -122,0 -197,-102 -197,-219 0,-85 45,-174 125,-210 18,-9 28,-21 28,-33 0,-34 -55,-43 -80,-43l-543 0c-24,0 -78,11 -78,43 0,12 10,24 29,33 78,36 124,125 124,210 0,107 -66,225 -185,224 -20,0 -42,-5 -62,-14 -10,-97 -42,-190 -98,-270 -113,-159 -296,-233 -486,-233 -191,0 -383,67 -500,225 -73,99 -104,215 -104,337 0,172 76,329 217,432 25,18 52,28 81,28 16,0 34,-3 49,-11 19,-8 29,-22 29,-36 0,-9 -5,-19 -18,-28 -131,-88 -196,-234 -196,-389 1,-106 29,-204 81,-283 82,-122 217,-184 361,-184 136,0 257,64 336,175 39,55 64,120 76,187 -70,-24 -140,-46 -218,-46 -174,0 -334,96 -334,286 0,202 157,331 352,331zm0 -91c-119,0 -189,-129 -189,-235 0,-99 53,-199 164,-199 75,0 175,31 239,64 0,124 -53,370 -214,370z"/>
 </g>
</svg>
