<?xml version="1.0" encoding="UTF-8"?>
<!DOCTYPE svg PUBLIC "-//W3C//DTD SVG 1.1//EN" "http://www.w3.org/Graphics/SVG/1.1/DTD/svg11.dtd">
<!-- Creator: CorelDRAW X8 -->
<svg xmlns="http://www.w3.org/2000/svg" xml:space="preserve" width="2375px" height="1024px" version="1.1" style="shape-rendering:geometricPrecision; text-rendering:geometricPrecision; image-rendering:optimizeQuality; fill-rule:evenodd; clip-rule:evenodd"
viewBox="0 0 2375 1024"
 xmlns:xlink="http://www.w3.org/1999/xlink">
 <defs>
  <style type="text/css">
   <![CDATA[
    .fil0 {fill:#009846;fill-rule:nonzero}
   ]]>
  </style>
 </defs>
 <g id="Layer_x0020_1">
  <metadata id="CorelCorpID_0Corel-Layer"/>
  <path class="fil0" d="M358 947c31,21 20,49 -11,64 -44,20 -91,11 -130,-17 -143,-104 -219,-264 -217,-439 1,-131 39,-242 104,-330 116,-156 301,-222 488,-225 194,-3 383,71 497,233 57,80 88,173 98,270 21,9 42,13 63,14 113,0 184,-123 184,-224 0,-85 -45,-174 -124,-210 -18,-9 -28,-21 -28,-33 0,-32 53,-43 77,-43l543 0c25,0 80,9 80,43 0,12 -10,24 -28,33 -80,36 -125,125 -125,210 0,117 75,219 197,219 121,0 196,-102 196,-219 0,-87 -45,-181 -129,-214 -28,-11 -47,-37 -19,-60 27,-21 75,-22 106,-10 119,47 195,156 195,284 0,198 -169,304 -349,304 -181,0 -350,-106 -350,-304 0,-74 28,-145 78,-200l-244 0c50,55 77,126 77,200 0,179 -152,308 -325,310 -25,0 -53,-3 -71,-6 -7,224 -126,427 -375,427 -193,0 -347,-125 -352,-322 -5,-181 139,-290 319,-295 84,-3 159,20 233,46 -13,-67 -38,-132 -77,-187 -81,-114 -205,-178 -344,-175 -140,3 -271,63 -352,184 -52,79 -80,177 -81,283 0,155 65,301 196,389zm671 -384c-64,-33 -164,-64 -238,-64 -111,0 -164,100 -164,199 0,106 70,235 189,235 160,0 215,-252 213,-370z"/>
 </g>
</svg>
