<?xml version="1.0" encoding="UTF-8"?>
<!DOCTYPE svg PUBLIC "-//W3C//DTD SVG 1.1//EN" "http://www.w3.org/Graphics/SVG/1.1/DTD/svg11.dtd">
<!-- Creator: CorelDRAW X8 -->
<svg xmlns="http://www.w3.org/2000/svg" xml:space="preserve" width="1632px" height="1412px" version="1.1" style="shape-rendering:geometricPrecision; text-rendering:geometricPrecision; image-rendering:optimizeQuality; fill-rule:evenodd; clip-rule:evenodd"
viewBox="0 0 1632 1412"
 xmlns:xlink="http://www.w3.org/1999/xlink">
 <defs>
  <style type="text/css">
   <![CDATA[
    .fil0 {fill:#898778;fill-rule:nonzero}
   ]]>
  </style>
 </defs>
 <g id="Layer_x0020_1">
  <metadata id="CorelCorpID_0Corel-Layer"/>
  <path class="fil0" d="M877 363l0 614c0,25 -37,46 -82,46 -45,0 -81,-21 -81,-46l0 -612c0,-149 -71,-274 -233,-274 -131,0 -237,96 -283,214 -26,67 -36,142 -35,215 2,158 67,355 222,422 31,12 47,40 16,63 -33,25 -85,22 -121,5 -192,-86 -277,-290 -280,-490 -1,-91 14,-182 51,-261 79,-169 248,-259 430,-259 133,0 244,50 314,130 71,-80 182,-130 314,-130 328,0 523,258 523,586 0,128 -29,265 -83,381 -133,286 -396,445 -720,445 -70,0 -143,-10 -213,-30 -63,-18 -124,-46 -174,-81 -32,-22 -18,-51 12,-64 33,-15 85,-14 114,6 36,26 79,46 122,58 46,13 93,20 139,20 261,0 458,-151 563,-377 51,-111 78,-235 77,-358 -1,-216 -110,-495 -360,-495 -162,0 -232,125 -232,272z"/>
 </g>
</svg>
