<?xml version="1.0" encoding="UTF-8"?>
<!DOCTYPE svg PUBLIC "-//W3C//DTD SVG 1.1//EN" "http://www.w3.org/Graphics/SVG/1.1/DTD/svg11.dtd">
<!-- Creator: CorelDRAW X8 -->
<svg xmlns="http://www.w3.org/2000/svg" xml:space="preserve" width="2656px" height="1024px" version="1.1" style="shape-rendering:geometricPrecision; text-rendering:geometricPrecision; image-rendering:optimizeQuality; fill-rule:evenodd; clip-rule:evenodd"
viewBox="0 0 2656 1024"
 xmlns:xlink="http://www.w3.org/1999/xlink">
 <defs>
  <style type="text/css">
   <![CDATA[
    .fil0 {fill:#2B2A29;fill-rule:nonzero}
   ]]>
  </style>
 </defs>
 <g id="Layer_x0020_1">
  <metadata id="CorelCorpID_0Corel-Layer"/>
  <path class="fil0" d="M2200 1024c151,0 275,-61 359,-183 64,-93 97,-219 97,-333 0,-205 -104,-408 -295,-496 -17,-8 -37,-12 -57,-12 -22,0 -44,5 -61,17 -12,9 -18,19 -18,28 0,14 12,28 30,36 158,71 238,262 238,427 0,102 -29,218 -85,300 -48,69 -122,125 -208,125 -204,0 -205,-271 -203,-420 2,-142 16,-286 -89,-399 -68,-73 -169,-114 -285,-114 -138,0 -256,58 -322,159 -66,104 -56,236 -55,354 1,111 13,240 -53,334 -35,51 -89,86 -159,86 -70,0 -124,-35 -159,-85 -66,-94 -56,-224 -55,-335 2,-272 -38,-513 -369,-513 -147,0 -270,61 -354,183 -64,93 -97,219 -97,333 0,205 104,408 295,496 17,8 37,12 57,12 22,0 44,-5 61,-17 12,-9 18,-19 18,-28 0,-14 -12,-28 -30,-36 -159,-71 -238,-261 -238,-427 0,-102 29,-218 85,-300 48,-69 117,-125 203,-125 209,0 210,271 208,422 -3,147 -14,298 101,409 68,66 165,102 274,102 106,0 201,-35 269,-98 125,-114 108,-261 107,-413 -1,-91 -9,-206 27,-289 32,-75 94,-133 186,-133 74,0 129,39 165,95 58,92 49,221 48,327 -2,269 35,511 364,511z"/>
 </g>
</svg>
