<?xml version="1.0" encoding="UTF-8"?>
<!DOCTYPE svg PUBLIC "-//W3C//DTD SVG 1.1//EN" "http://www.w3.org/Graphics/SVG/1.1/DTD/svg11.dtd">
<!-- Creator: CorelDRAW X8 -->
<svg xmlns="http://www.w3.org/2000/svg" xml:space="preserve" width="1717px" height="1412px" version="1.1" style="shape-rendering:geometricPrecision; text-rendering:geometricPrecision; image-rendering:optimizeQuality; fill-rule:evenodd; clip-rule:evenodd"
viewBox="0 0 1717 1412"
 xmlns:xlink="http://www.w3.org/1999/xlink">
 <defs>
  <style type="text/css">
   <![CDATA[
    .fil0 {fill:#898778;fill-rule:nonzero}
   ]]>
  </style>
 </defs>
 <g id="Layer_x0020_1">
  <metadata id="CorelCorpID_0Corel-Layer"/>
  <path class="fil0" d="M1331 82c-30,-13 -46,-41 -16,-64 32,-23 84,-22 119,-7 194,86 280,291 283,493 1,91 -14,182 -51,261 -79,168 -249,259 -431,259 -133,0 -244,-38 -314,-117 -56,62 -137,99 -233,112 0,8 1,17 1,26 0,219 -161,367 -379,367 -116,0 -235,-31 -304,-131 -22,-31 21,-53 46,-59 32,-7 86,-2 105,26 39,56 87,73 153,73 141,0 216,-151 216,-276 0,-9 -1,-18 -1,-27 -150,-23 -282,-110 -349,-253 -37,-79 -52,-170 -51,-261 3,-202 88,-407 283,-493 35,-15 86,-16 118,7 31,23 15,51 -15,64 -156,66 -221,264 -223,422 -1,73 9,148 35,215 46,118 153,214 284,214 161,0 232,-115 232,-265l0 -622c0,-25 37,-46 82,-46 45,0 81,21 81,46l0 622c0,149 71,265 233,265 131,0 237,-96 283,-214 27,-67 37,-142 36,-215 -3,-158 -67,-356 -223,-422z"/>
 </g>
</svg>
