<?xml version="1.0" encoding="UTF-8"?>
<!DOCTYPE svg PUBLIC "-//W3C//DTD SVG 1.1//EN" "http://www.w3.org/Graphics/SVG/1.1/DTD/svg11.dtd">
<!-- Creator: CorelDRAW X8 -->
<svg xmlns="http://www.w3.org/2000/svg" xml:space="preserve" width="1840px" height="1405px" version="1.1" style="shape-rendering:geometricPrecision; text-rendering:geometricPrecision; image-rendering:optimizeQuality; fill-rule:evenodd; clip-rule:evenodd"
viewBox="0 0 1840 1405"
 xmlns:xlink="http://www.w3.org/1999/xlink">
 <defs>
  <style type="text/css">
   <![CDATA[
    .fil0 {fill:#2B2A29;fill-rule:nonzero}
   ]]>
  </style>
 </defs>
 <g id="Layer_x0020_1">
  <metadata id="CorelCorpID_0Corel-Layer"/>
  <path class="fil0" d="M1472 1405c137,0 233,-68 293,-166 51,-84 75,-187 75,-291 0,-85 -16,-171 -48,-247 -41,-97 -109,-182 -205,-240 38,-69 72,-147 72,-227 0,-159 -151,-234 -293,-234 -125,0 -251,58 -312,171 -3,5 -4,10 -4,14 0,35 53,45 81,45 29,0 65,-8 78,-32 32,-58 89,-107 157,-107 81,0 131,66 131,143 0,58 -24,119 -49,168 -53,-15 -105,-21 -160,-21 -145,0 -262,40 -363,142 -113,-107 -246,-142 -400,-142 -196,0 -374,86 -464,267 -40,79 -61,171 -61,273 0,156 48,317 159,409 65,53 139,75 221,75 85,-1 165,-29 224,-78 74,-61 105,-155 105,-249 0,-82 -28,-154 -78,-208 -57,-61 -144,-97 -237,-97 -96,0 -178,38 -233,118 1,-72 18,-145 50,-209 61,-125 172,-210 314,-210 182,0 318,104 318,300l0 587c0,26 36,46 81,46 44,0 81,-20 81,-46l0 -587c0,-180 97,-301 283,-301 36,0 72,6 110,19 -56,86 -118,162 -164,255 -46,91 -70,192 -70,294 0,69 11,136 36,193 45,102 132,173 272,173zm0 -91c-62,0 -106,-59 -127,-126 -13,-42 -19,-101 -19,-149 0,-86 17,-165 52,-243 35,-77 85,-147 145,-233 54,49 94,111 119,179 25,67 35,135 35,206 0,55 -15,147 -48,224 -33,78 -85,142 -157,142zm-1092 0c-89,-1 -174,-76 -174,-223 0,-148 87,-222 174,-222 87,0 174,73 174,219 0,105 -53,226 -174,226z"/>
 </g>
</svg>
