<?xml version="1.0" encoding="UTF-8"?>
<!DOCTYPE svg PUBLIC "-//W3C//DTD SVG 1.1//EN" "http://www.w3.org/Graphics/SVG/1.1/DTD/svg11.dtd">
<!-- Creator: CorelDRAW X8 -->
<svg xmlns="http://www.w3.org/2000/svg" xml:space="preserve" width="2336px" height="1026px" version="1.1" style="shape-rendering:geometricPrecision; text-rendering:geometricPrecision; image-rendering:optimizeQuality; fill-rule:evenodd; clip-rule:evenodd"
viewBox="0 0 2336 1027"
 xmlns:xlink="http://www.w3.org/1999/xlink">
 <defs>
  <style type="text/css">
   <![CDATA[
    .fil0 {fill:#2B2A29;fill-rule:nonzero}
   ]]>
  </style>
 </defs>
 <g id="Layer_x0020_1">
  <metadata id="CorelCorpID_0Corel-Layer"/>
  <path class="fil0" d="M1379 1027c250,0 369,-204 376,-429 40,4 81,6 122,6 94,0 190,-12 276,-47 101,-41 183,-113 183,-231 0,-147 -133,-220 -266,-220 -133,1 -265,75 -265,220 0,75 40,144 105,181 -24,2 -48,3 -73,3 -28,0 -57,-2 -86,-6 -10,-97 -41,-191 -98,-271 -113,-159 -295,-233 -485,-233 -128,0 -269,36 -363,127 -85,-94 -199,-125 -323,-125 -183,0 -352,90 -431,258 -36,77 -51,164 -51,253 0,204 87,415 283,502 16,7 36,12 56,12 23,0 46,-6 63,-18 11,-9 16,-19 16,-27 0,-16 -13,-30 -32,-38 -160,-67 -223,-271 -223,-432 0,-70 10,-142 35,-206 47,-118 153,-214 284,-214 164,0 233,130 233,277l0 611c0,26 37,46 81,46 45,0 82,-20 82,-46l0 -587c0,-179 106,-302 290,-302 136,0 256,64 334,175 40,56 65,121 78,187 -71,-24 -143,-46 -224,-46 -172,0 -328,102 -328,287 0,203 155,333 351,333zm691 -562c-70,0 -109,-69 -109,-133 0,-64 39,-134 109,-134 71,0 110,70 110,133 0,64 -39,134 -110,134zm-691 471c-119,0 -189,-130 -189,-236 0,-100 54,-200 165,-200 74,0 165,28 237,64 0,125 -52,372 -213,372z"/>
 </g>
</svg>
