<?xml version="1.0" encoding="UTF-8"?>
<!DOCTYPE svg PUBLIC "-//W3C//DTD SVG 1.1//EN" "http://www.w3.org/Graphics/SVG/1.1/DTD/svg11.dtd">
<!-- Creator: CorelDRAW X8 -->
<svg xmlns="http://www.w3.org/2000/svg" xml:space="preserve" width="1632px" height="1412px" version="1.1" style="shape-rendering:geometricPrecision; text-rendering:geometricPrecision; image-rendering:optimizeQuality; fill-rule:evenodd; clip-rule:evenodd"
viewBox="0 0 1632 1412"
 xmlns:xlink="http://www.w3.org/1999/xlink">
 <defs>
  <style type="text/css">
   <![CDATA[
    .fil0 {fill:#009846;fill-rule:nonzero}
   ]]>
  </style>
 </defs>
 <g id="Layer_x0020_1">
  <metadata id="CorelCorpID_0Corel-Layer"/>
  <path class="fil0" d="M877 363l0 614c0,25 -37,46 -82,46 -45,0 -81,-21 -81,-46l0 -612c0,-149 -71,-274 -233,-274 -131,0 -237,96 -283,214 -26,67 -36,142 -35,215 2,158 67,355 222,422 31,12 47,40 16,63 -34,25 -85,22 -121,5 -193,-86 -277,-290 -280,-490 -1,-91 14,-182 51,-261 79,-169 248,-259 430,-259 133,0 244,50 314,130 71,-80 182,-130 315,-130 327,0 522,258 522,586 0,128 -29,265 -83,381 -133,286 -396,445 -720,445 -134,0 -276,-34 -387,-111 -32,-22 -19,-51 12,-64 33,-15 85,-14 114,7 77,53 168,77 261,77 261,0 458,-151 563,-377 51,-111 78,-235 78,-358 -2,-216 -111,-495 -360,-495 -163,0 -233,125 -233,272z"/>
 </g>
</svg>
