<?xml version="1.0" encoding="UTF-8"?>
<!DOCTYPE svg PUBLIC "-//W3C//DTD SVG 1.1//EN" "http://www.w3.org/Graphics/SVG/1.1/DTD/svg11.dtd">
<!-- Creator: CorelDRAW X8 -->
<svg xmlns="http://www.w3.org/2000/svg" xml:space="preserve" width="1632px" height="1412px" version="1.1" style="shape-rendering:geometricPrecision; text-rendering:geometricPrecision; image-rendering:optimizeQuality; fill-rule:evenodd; clip-rule:evenodd"
viewBox="0 0 1632 1412"
 xmlns:xlink="http://www.w3.org/1999/xlink">
 <defs>
  <style type="text/css">
   <![CDATA[
    .fil0 {fill:#2B2A29;fill-rule:nonzero}
   ]]>
  </style>
 </defs>
 <g id="Layer_x0020_1">
  <metadata id="CorelCorpID_0Corel-Layer"/>
  <path class="fil0" d="M829 1412c324,0 587,-159 720,-445 54,-116 83,-253 83,-381 0,-328 -195,-586 -522,-586 -133,0 -244,50 -315,130 -70,-80 -181,-130 -314,-130 -182,0 -351,90 -430,259 -36,77 -51,164 -51,253 0,202 86,411 280,498 18,8 39,13 60,13 22,0 44,-5 61,-18 12,-9 17,-18 17,-27 0,-15 -14,-29 -33,-36 -159,-69 -222,-272 -222,-432 0,-70 10,-141 35,-205 46,-118 152,-214 283,-214 162,0 233,125 233,274l0 612c0,25 36,46 81,46 45,0 82,-21 82,-46l0 -614c0,-147 70,-272 233,-272 249,0 358,279 360,495 0,123 -27,247 -78,358 -105,226 -302,377 -563,377 -93,0 -184,-24 -261,-77 -16,-12 -39,-17 -62,-17 -19,0 -37,3 -52,10 -18,8 -31,21 -31,35 0,10 6,20 19,29 111,77 253,111 387,111z"/>
 </g>
</svg>
