<?xml version="1.0" encoding="UTF-8"?>
<!DOCTYPE svg PUBLIC "-//W3C//DTD SVG 1.1//EN" "http://www.w3.org/Graphics/SVG/1.1/DTD/svg11.dtd">
<!-- Creator: CorelDRAW X8 -->
<svg xmlns="http://www.w3.org/2000/svg" xml:space="preserve" width="2655px" height="1024px" version="1.1" style="shape-rendering:geometricPrecision; text-rendering:geometricPrecision; image-rendering:optimizeQuality; fill-rule:evenodd; clip-rule:evenodd"
viewBox="0 0 2655 1024"
 xmlns:xlink="http://www.w3.org/1999/xlink">
 <defs>
  <style type="text/css">
   <![CDATA[
    .fil0 {fill:#898778;fill-rule:nonzero}
   ]]>
  </style>
 </defs>
 <g id="Layer_x0020_1">
  <metadata id="CorelCorpID_0Corel-Layer"/>
  <path class="fil0" d="M1193 847c-35,51 -89,86 -159,86 -70,0 -124,-35 -159,-85 -65,-93 -56,-218 -55,-327 5,-272 -33,-519 -365,-521 -148,-1 -273,60 -358,183 -66,94 -98,223 -97,338 2,204 105,404 294,491 35,16 86,18 119,-5 31,-22 18,-50 -13,-64 -156,-70 -236,-259 -238,-422 -1,-103 28,-222 86,-305 48,-70 118,-127 207,-125 207,5 206,280 203,430 -2,145 -12,291 102,401 68,66 165,102 274,102 106,0 201,-35 269,-98 124,-114 106,-252 106,-403 0,-95 -11,-211 27,-299 33,-75 95,-133 186,-133 74,0 129,39 165,95 58,91 49,212 48,317 -5,272 33,519 365,521 148,1 273,-60 358,-183 66,-94 98,-223 97,-338 -2,-204 -105,-404 -294,-491 -35,-16 -86,-17 -119,5 -31,22 -18,50 13,64 156,70 236,259 238,422 1,103 -28,222 -86,305 -48,70 -118,128 -207,125 -207,-5 -206,-280 -203,-430 2,-140 14,-278 -89,-389 -69,-73 -170,-114 -286,-114 -137,0 -255,58 -321,159 -69,108 -54,239 -55,361 0,111 14,232 -53,327z"/>
 </g>
</svg>
