<?xml version="1.0" encoding="UTF-8"?>
<!DOCTYPE svg PUBLIC "-//W3C//DTD SVG 1.1//EN" "http://www.w3.org/Graphics/SVG/1.1/DTD/svg11.dtd">
<!-- Creator: CorelDRAW X8 -->
<svg xmlns="http://www.w3.org/2000/svg" xml:space="preserve" width="3693px" height="1024px" version="1.1" style="shape-rendering:geometricPrecision; text-rendering:geometricPrecision; image-rendering:optimizeQuality; fill-rule:evenodd; clip-rule:evenodd"
viewBox="0 0 3693 1024"
 xmlns:xlink="http://www.w3.org/1999/xlink">
 <defs>
  <style type="text/css">
   <![CDATA[
    .fil0 {fill:#898778;fill-rule:nonzero}
   ]]>
  </style>
 </defs>
 <g id="Layer_x0020_1">
  <metadata id="CorelCorpID_0Corel-Layer"/>
  <path class="fil0" d="M2231 847c-35,51 -89,86 -159,86 -70,0 -124,-35 -159,-86 -67,-95 -57,-232 -55,-344 3,-140 15,-278 -89,-389 -68,-73 -170,-114 -285,-114 -137,0 -256,58 -321,159 -69,108 -54,239 -55,361 0,111 14,231 -53,327 -36,51 -89,86 -159,86 -143,0 -214,-144 -214,-271l0 -616c0,-25 -36,-46 -81,-46 -45,0 -82,21 -82,46l0 616c0,126 -73,265 -212,265 -59,0 -114,-31 -151,-76 -23,-27 -76,-30 -109,-22 -26,7 -64,31 -39,61 73,88 188,128 300,128 120,0 223,-44 291,-121 73,88 185,127 297,127 106,0 201,-35 269,-98 123,-114 106,-252 106,-403 0,-95 -12,-211 27,-299 33,-75 95,-133 186,-133 74,0 129,39 164,95 59,91 50,212 48,317 -2,148 -15,306 102,418 68,67 165,103 274,103 106,0 201,-35 269,-98 124,-114 106,-252 106,-403 0,-95 -11,-211 27,-299 33,-75 95,-133 186,-133 74,0 129,39 165,95 58,91 49,212 47,317 -4,272 34,519 365,521 149,1 274,-60 359,-183 65,-94 98,-223 97,-338 -2,-204 -105,-404 -295,-491 -35,-16 -86,-17 -118,5 -31,22 -18,50 12,64 157,70 237,259 238,422 1,103 -28,222 -85,305 -49,70 -119,127 -208,125 -206,-5 -205,-280 -202,-430 2,-140 14,-278 -90,-389 -68,-73 -169,-114 -285,-114 -137,0 -255,58 -321,159 -69,108 -54,239 -55,361 0,111 14,231 -53,327z"/>
 </g>
</svg>
