<?xml version="1.0" encoding="UTF-8"?>
<!DOCTYPE svg PUBLIC "-//W3C//DTD SVG 1.1//EN" "http://www.w3.org/Graphics/SVG/1.1/DTD/svg11.dtd">
<!-- Creator: CorelDRAW X8 -->
<svg xmlns="http://www.w3.org/2000/svg" xml:space="preserve" width="2219px" height="1412px" version="1.1" style="shape-rendering:geometricPrecision; text-rendering:geometricPrecision; image-rendering:optimizeQuality; fill-rule:evenodd; clip-rule:evenodd"
viewBox="0 0 2219 1412"
 xmlns:xlink="http://www.w3.org/1999/xlink">
 <defs>
  <style type="text/css">
   <![CDATA[
    .fil0 {fill:#434242;fill-rule:nonzero}
   ]]>
  </style>
 </defs>
 <g id="Layer_x0020_1">
  <metadata id="CorelCorpID_0Corel-Layer"/>
  <path class="fil0" d="M1416 0c-134,0 -276,34 -387,111 -13,9 -19,19 -19,29 0,14 13,27 31,35 15,7 33,10 51,10 23,0 46,-5 63,-17 77,-53 168,-77 261,-77 261,0 459,151 563,377 53,113 77,233 77,358 0,216 -110,495 -360,495 -161,0 -232,-125 -232,-274l0 -612c0,-25 -37,-46 -82,-46 -45,0 -81,21 -81,46l0 612c0,133 -63,273 -213,273 -149,0 -211,-143 -211,-274l0 -612c0,-25 -37,-46 -82,-46 -44,0 -81,21 -81,46l0 612c0,149 -71,274 -233,274 -131,0 -237,-96 -283,-213 -25,-64 -35,-136 -35,-206 0,-159 63,-363 222,-431 19,-8 33,-22 33,-37 0,-9 -5,-18 -17,-27 -17,-13 -38,-18 -60,-18 -22,0 -43,5 -61,13 -195,87 -280,297 -280,499 0,89 15,176 51,253 79,168 248,258 430,258 134,0 245,-50 316,-131 76,89 175,132 291,132 113,0 219,-44 293,-132 71,81 182,132 315,132 328,0 523,-258 523,-586 0,-128 -29,-265 -83,-381 -133,-286 -396,-445 -720,-445z"/>
 </g>
</svg>
