<?xml version="1.0" encoding="UTF-8"?>
<!DOCTYPE svg PUBLIC "-//W3C//DTD SVG 1.1//EN" "http://www.w3.org/Graphics/SVG/1.1/DTD/svg11.dtd">
<!-- Creator: CorelDRAW X8 -->
<svg xmlns="http://www.w3.org/2000/svg" xml:space="preserve" width="1883px" height="1024px" version="1.1" style="shape-rendering:geometricPrecision; text-rendering:geometricPrecision; image-rendering:optimizeQuality; fill-rule:evenodd; clip-rule:evenodd"
viewBox="0 0 1883 1024"
 xmlns:xlink="http://www.w3.org/1999/xlink">
 <defs>
  <style type="text/css">
   <![CDATA[
    .fil0 {fill:#CC6633;fill-rule:nonzero}
   ]]>
  </style>
 </defs>
 <g id="Layer_x0020_1">
  <metadata id="CorelCorpID_0Corel-Layer"/>
  <path class="fil0" d="M1754 129c80,72 129,172 129,299l0 526c0,25 -36,46 -81,46l-738 0c-27,0 -87,-9 -88,-46 0,-19 20,-32 36,-38 162,-60 296,-200 361,-359 26,-62 41,-128 40,-196 -2,-170 -93,-271 -262,-270 -151,1 -273,121 -273,300l0 587c0,26 -37,46 -81,46 -45,0 -82,-20 -82,-46l0 -611c0,-146 -69,-276 -233,-276 -131,0 -237,96 -284,214 -26,67 -36,142 -35,215 2,158 67,356 223,422 21,9 32,23 32,36 0,10 -5,20 -16,28 -18,13 -40,18 -63,18 -20,0 -40,-4 -56,-11 -194,-86 -280,-291 -283,-493 -1,-91 14,-182 51,-261 79,-169 248,-259 431,-259 124,0 238,31 323,125 111,-108 307,-125 455,-125 160,0 371,17 494,129zm-314 -33c96,56 132,158 134,265 1,65 -12,131 -35,194 -53,143 -152,267 -277,353l458 0 0 -480c0,-109 -40,-193 -104,-251 -47,-43 -108,-70 -176,-81z"/>
 </g>
</svg>
