<?xml version="1.0" encoding="UTF-8"?>
<!DOCTYPE svg PUBLIC "-//W3C//DTD SVG 1.1//EN" "http://www.w3.org/Graphics/SVG/1.1/DTD/svg11.dtd">
<!-- Creator: CorelDRAW X8 -->
<svg xmlns="http://www.w3.org/2000/svg" xml:space="preserve" width="1349px" height="1405px" version="1.1" style="shape-rendering:geometricPrecision; text-rendering:geometricPrecision; image-rendering:optimizeQuality; fill-rule:evenodd; clip-rule:evenodd"
viewBox="0 0 1349 1405"
 xmlns:xlink="http://www.w3.org/1999/xlink">
 <defs>
  <style type="text/css">
   <![CDATA[
    .fil0 {fill:#CC6633;fill-rule:nonzero}
   ]]>
  </style>
 </defs>
 <g id="Layer_x0020_1">
  <metadata id="CorelCorpID_0Corel-Layer"/>
  <path class="fil0" d="M184 34l521 1184 477 -1184c7,-19 46,-33 84,-34 42,0 83,15 83,46l0 1315c0,24 -36,44 -81,44 -45,0 -82,-20 -82,-44l0 -1037 -420 1047c-9,24 -50,34 -88,34 -40,0 -80,-12 -90,-34l-470 -1063 0 1069c0,18 -27,28 -59,28 -33,0 -59,-10 -59,-28l0 -1331c0,-26 45,-44 91,-46 40,-2 81,8 93,34z"/>
 </g>
</svg>
