<?xml version="1.0" encoding="UTF-8"?>
<!DOCTYPE svg PUBLIC "-//W3C//DTD SVG 1.1//EN" "http://www.w3.org/Graphics/SVG/1.1/DTD/svg11.dtd">
<!-- Creator: CorelDRAW 2020 (64-Bit) -->
<svg xmlns="http://www.w3.org/2000/svg" xml:space="preserve" width="121.973mm" height="112.183mm" version="1.1" style="shape-rendering:geometricPrecision; text-rendering:geometricPrecision; image-rendering:optimizeQuality; fill-rule:evenodd; clip-rule:evenodd"
viewBox="0 0 12197.28 11218.32"
 xmlns:xlink="http://www.w3.org/1999/xlink"
 xmlns:xodm="http://www.corel.com/coreldraw/odm/2003">
 <defs>
  <style type="text/css">
   <![CDATA[
    .fil0 {fill:#2B2A29;fill-rule:nonzero}
   ]]>
  </style>
 </defs>
 <g id="Layer_x0020_1">
  <metadata id="CorelCorpID_0Corel-Layer"/>
  <path class="fil0" d="M12197.29 10628.76c0,-66.79 -14.57,-113.39 -42.94,-171.73l-4856.01 -9983.94c-167.95,-345.31 -834.78,-472.24 -1202.09,-472.24 -558.11,0 -1066.82,193.87 -1202.08,472.24l-4851.24 9983.94c-28.35,58.35 -42.94,104.94 -42.94,171.73 0,449.5 857.66,588.7 1299.4,588.7 441.74,0 972.16,-138.44 1128.62,-459.91l3668.24 -7536.85 3673.03 7536.85c158.72,325.69 727.46,459.72 1139.36,459.91 411.9,0.2 1288.65,-116.07 1288.65,-588.7z"/>
 </g>
</svg>
