<?xml version="1.0" encoding="UTF-8"?>
<!DOCTYPE svg PUBLIC "-//W3C//DTD SVG 1.1//EN" "http://www.w3.org/Graphics/SVG/1.1/DTD/svg11.dtd">
<!-- Creator: CorelDRAW X8 -->
<svg xmlns="http://www.w3.org/2000/svg" xml:space="preserve" width="720px" height="667px" version="1.1" style="shape-rendering:geometricPrecision; text-rendering:geometricPrecision; image-rendering:optimizeQuality; fill-rule:evenodd; clip-rule:evenodd"
viewBox="0 0 720 667"
 xmlns:xlink="http://www.w3.org/1999/xlink">
 <defs>
  <style type="text/css">
   <![CDATA[
    .fil0 {fill:#2B2A29;fill-rule:nonzero}
   ]]>
  </style>
 </defs>
 <g id="Layer_x0020_1">
  <metadata id="CorelCorpID_0Corel-Layer"/>
  <path class="fil0" d="M660 667c9,0 22,-2 33,-6 14,-5 27,-13 27,-26 0,-4 -3,-9 -7,-13l-284 -288 283 -284c6,-6 8,-11 8,-16 0,-14 -13,-23 -28,-29 -11,-3 -23,-5 -32,-5 -19,0 -40,5 -52,17l-248 248 -248 -248c-12,-12 -33,-17 -52,-17 -8,0 -18,1 -29,4 -16,5 -31,15 -31,30 0,5 2,10 8,16l283 284 -283 283c-6,6 -8,11 -8,16 0,13 11,22 24,27 12,5 26,7 36,7 19,0 40,-5 52,-17l248 -248 248 248c12,12 33,17 52,17z"/>
 </g>
</svg>
