<?xml version="1.0" encoding="UTF-8"?>
<!DOCTYPE svg PUBLIC "-//W3C//DTD SVG 1.1//EN" "http://www.w3.org/Graphics/SVG/1.1/DTD/svg11.dtd">
<!-- Creator: CorelDRAW X8 -->
<svg xmlns="http://www.w3.org/2000/svg" xml:space="preserve" width="720px" height="667px" version="1.1" style="shape-rendering:geometricPrecision; text-rendering:geometricPrecision; image-rendering:optimizeQuality; fill-rule:evenodd; clip-rule:evenodd"
viewBox="0 0 720 667"
 xmlns:xlink="http://www.w3.org/1999/xlink">
 <defs>
  <style type="text/css">
   <![CDATA[
    .fil0 {fill:#CC6633;fill-rule:nonzero}
   ]]>
  </style>
 </defs>
 <g id="Layer_x0020_1">
  <metadata id="CorelCorpID_0Corel-Layer"/>
  <path class="fil0" d="M112 650c-11,11 -31,17 -51,17 -11,0 -21,-1 -30,-4 -20,-6 -31,-18 -31,-30 0,-5 3,-11 8,-16l283 -283 -283 -284c-5,-5 -8,-11 -8,-16 0,-12 11,-24 31,-30 9,-3 19,-4 29,-4 21,0 41,6 52,17l248 248 248 -248c11,-11 31,-17 52,-17 10,0 20,1 29,4 20,6 31,18 31,29 0,6 -3,12 -8,17l-283 284 283 283c5,5 8,11 8,16 0,12 -11,24 -31,30 -9,3 -19,4 -29,4 -21,0 -41,-6 -52,-17l-248 -248 -248 248z"/>
 </g>
</svg>
