<?xml version="1.0" encoding="UTF-8"?>
<!DOCTYPE svg PUBLIC "-//W3C//DTD SVG 1.1//EN" "http://www.w3.org/Graphics/SVG/1.1/DTD/svg11.dtd">
<!-- Creator: CorelDRAW X8 -->
<svg xmlns="http://www.w3.org/2000/svg" xml:space="preserve" width="920px" height="1024px" version="1.1" style="shape-rendering:geometricPrecision; text-rendering:geometricPrecision; image-rendering:optimizeQuality; fill-rule:evenodd; clip-rule:evenodd"
viewBox="0 0 920 1024"
 xmlns:xlink="http://www.w3.org/1999/xlink">
 <defs>
  <style type="text/css">
   <![CDATA[
    .fil0 {fill:#CC6633;fill-rule:nonzero}
   ]]>
  </style>
 </defs>
 <g id="Layer_x0020_1">
  <metadata id="CorelCorpID_0Corel-Layer"/>
  <path class="fil0" d="M0 45c0,-25 37,-45 82,-45 45,0 81,20 81,45l0 65c80,-79 187,-110 297,-110 264,0 460,174 460,448l0 530c0,26 -37,46 -82,46 -45,0 -81,-20 -81,-46l0 -530c0,-178 -102,-357 -297,-357 -187,0 -297,169 -297,345l0 542c0,26 -36,46 -81,46 -45,0 -82,-20 -82,-46l0 -933z"/>
 </g>
</svg>
