<?xml version="1.0" encoding="UTF-8"?>
<!DOCTYPE svg PUBLIC "-//W3C//DTD SVG 1.1//EN" "http://www.w3.org/Graphics/SVG/1.1/DTD/svg11.dtd">
<!-- Creator: CorelDRAW X8 -->
<svg xmlns="http://www.w3.org/2000/svg" xml:space="preserve" width="920px" height="1024px" version="1.1" style="shape-rendering:geometricPrecision; text-rendering:geometricPrecision; image-rendering:optimizeQuality; fill-rule:evenodd; clip-rule:evenodd"
viewBox="0 0 920 1024"
 xmlns:xlink="http://www.w3.org/1999/xlink">
 <defs>
  <style type="text/css">
   <![CDATA[
    .fil0 {fill:#009846;fill-rule:nonzero}
   ]]>
  </style>
 </defs>
 <g id="Layer_x0020_1">
  <metadata id="CorelCorpID_0Corel-Layer"/>
  <path class="fil0" d="M0 46c0,-25 37,-46 82,-46 45,0 81,21 81,46l0 113c62,-111 192,-159 320,-160 213,0 437,152 437,450l0 530c0,25 -37,46 -82,46 -45,0 -81,-21 -81,-46l0 -530c0,-237 -142,-355 -286,-356 -168,-1 -308,128 -308,385l0 501c0,25 -36,46 -81,46 -45,0 -82,-21 -82,-46l0 -933z"/>
 </g>
</svg>
