<?xml version="1.0" encoding="UTF-8"?>
<!DOCTYPE svg PUBLIC "-//W3C//DTD SVG 1.1//EN" "http://www.w3.org/Graphics/SVG/1.1/DTD/svg11.dtd">
<!-- Creator: CorelDRAW X8 -->
<svg xmlns="http://www.w3.org/2000/svg" xml:space="preserve" width="1928px" height="1024px" version="1.1" style="shape-rendering:geometricPrecision; text-rendering:geometricPrecision; image-rendering:optimizeQuality; fill-rule:evenodd; clip-rule:evenodd"
viewBox="0 0 1928 1024"
 xmlns:xlink="http://www.w3.org/1999/xlink">
 <defs>
  <style type="text/css">
   <![CDATA[
    .fil0 {fill:#898778;fill-rule:nonzero}
   ]]>
  </style>
 </defs>
 <g id="Layer_x0020_1">
  <metadata id="CorelCorpID_0Corel-Layer"/>
  <path class="fil0" d="M525 91c-234,0 -362,209 -362,421 0,213 128,421 362,421 233,0 362,-208 362,-421 0,-212 -129,-421 -362,-421zm1221 609c3,-29 42,-42 81,-42 43,0 85,16 82,47 -9,82 -66,160 -154,219 -104,69 -235,101 -360,100 -186,-2 -341,-81 -431,-215 -91,135 -247,215 -439,215 -309,0 -525,-208 -525,-512 0,-304 216,-512 525,-512 194,0 352,83 442,220 92,-136 248,-219 439,-220 292,-1 526,161 522,469 0,25 -36,46 -81,46l-803 0c-3,210 127,416 354,418 81,1 164,-22 232,-68 66,-44 110,-103 116,-165zm18 -277c-16,-201 -152,-333 -356,-332 -194,1 -321,153 -355,332l711 0z"/>
 </g>
</svg>
