<?xml version="1.0" encoding="UTF-8"?>
<!DOCTYPE svg PUBLIC "-//W3C//DTD SVG 1.1//EN" "http://www.w3.org/Graphics/SVG/1.1/DTD/svg11.dtd">
<!-- Creator: CorelDRAW X8 -->
<svg xmlns="http://www.w3.org/2000/svg" xml:space="preserve" width="2085px" height="1405px" version="1.1" style="shape-rendering:geometricPrecision; text-rendering:geometricPrecision; image-rendering:optimizeQuality; fill-rule:evenodd; clip-rule:evenodd"
viewBox="0 0 2085 1405"
 xmlns:xlink="http://www.w3.org/1999/xlink">
 <defs>
  <style type="text/css">
   <![CDATA[
    .fil0 {fill:black;fill-rule:nonzero}
   ]]>
  </style>
 </defs>
 <g id="Layer_x0020_1">
  <metadata id="CorelCorpID_0Corel-Layer"/>
  <path class="fil0" d="M1046 1367c-17,-10 -29,-21 -29,-36l0 -12c-97,55 -213,86 -344,86 -415,0 -673,-307 -673,-703 0,-395 258,-702 673,-702 131,0 247,31 344,86l0 -13c0,-14 12,-26 30,-35 15,-8 36,-14 59,-14l898 0c45,0 81,20 81,46 0,25 -36,45 -81,45l-824 0 0 541 696 0c45,0 81,21 81,46 0,25 -36,45 -81,45l-696 0 0 543 824 0c45,0 81,20 81,45 0,26 -36,46 -81,46l-898 0c-24,0 -44,-6 -60,-14zm-29 -202l0 -926c-84,-90 -199,-148 -344,-148 -337,0 -510,310 -510,611 0,302 173,612 510,612 145,0 260,-58 344,-149z"/>
 </g>
</svg>
