<?xml version="1.0" encoding="UTF-8"?>
<!DOCTYPE svg PUBLIC "-//W3C//DTD SVG 1.1//EN" "http://www.w3.org/Graphics/SVG/1.1/DTD/svg11.dtd">
<!-- Creator: CorelDRAW X8 -->
<svg xmlns="http://www.w3.org/2000/svg" xml:space="preserve" width="1108px" height="1024px" version="1.1" style="shape-rendering:geometricPrecision; text-rendering:geometricPrecision; image-rendering:optimizeQuality; fill-rule:evenodd; clip-rule:evenodd"
viewBox="0 0 1108 1024"
 xmlns:xlink="http://www.w3.org/1999/xlink">
 <defs>
  <style type="text/css">
   <![CDATA[
    .fil0 {fill:#CC6633;fill-rule:nonzero}
   ]]>
  </style>
 </defs>
 <g id="Layer_x0020_1">
  <metadata id="CorelCorpID_0Corel-Layer"/>
  <path class="fil0" d="M1108 512c0,322 -253,512 -554,512 -70,0 -138,-10 -200,-30l-4 8c-8,13 -31,22 -58,22 -5,0 -10,0 -15,-1 -26,-4 -43,-16 -43,-29 0,-2 0,-5 2,-7l19 -35c-153,-83 -255,-235 -255,-440 0,-322 253,-512 554,-512 70,0 138,10 200,30l4 -8c8,-13 32,-22 58,-22 5,0 10,0 15,1 26,4 43,15 43,28 0,3 0,5 -2,8l-19 35c153,83 255,235 255,440zm-808 357l414 -766c-48,-19 -102,-29 -160,-29 -250,0 -421,187 -421,438 0,151 62,279 167,357zm508 -714l-414 766c48,19 102,29 160,29 250,0 421,-187 421,-438 0,-151 -62,-279 -167,-357z"/>
 </g>
</svg>
