<?xml version="1.0" encoding="UTF-8"?>
<!DOCTYPE svg PUBLIC "-//W3C//DTD SVG 1.1//EN" "http://www.w3.org/Graphics/SVG/1.1/DTD/svg11.dtd">
<!-- Creator: CorelDRAW X8 -->
<svg xmlns="http://www.w3.org/2000/svg" xml:space="preserve" width="1108px" height="1024px" version="1.1" style="shape-rendering:geometricPrecision; text-rendering:geometricPrecision; image-rendering:optimizeQuality; fill-rule:evenodd; clip-rule:evenodd"
viewBox="0 0 1108 1024"
 xmlns:xlink="http://www.w3.org/1999/xlink">
 <defs>
  <style type="text/css">
   <![CDATA[
    .fil0 {fill:#434242;fill-rule:nonzero}
   ]]>
  </style>
 </defs>
 <g id="Layer_x0020_1">
  <metadata id="CorelCorpID_0Corel-Layer"/>
  <path class="fil0" d="M554 1024c301,0 554,-190 554,-512 0,-205 -102,-357 -255,-440l19 -35c2,-3 2,-6 2,-8 0,-17 -29,-29 -59,-29 -25,0 -50,8 -61,30 -62,-20 -130,-30 -200,-30 -301,0 -554,190 -554,512 0,205 102,357 255,440l-19 35c-2,3 -2,6 -2,8 0,17 29,29 60,29 24,0 49,-8 60,-30 62,20 130,30 200,30zm-254 -155c-105,-78 -167,-206 -167,-357 0,-251 171,-438 421,-438 58,0 112,10 160,29l-414 766zm254 81c-58,0 -112,-10 -160,-29l414 -766c105,78 167,206 167,357 0,251 -171,438 -421,438z"/>
 </g>
</svg>
