<?xml version="1.0" encoding="UTF-8"?>
<!DOCTYPE svg PUBLIC "-//W3C//DTD SVG 1.1//EN" "http://www.w3.org/Graphics/SVG/1.1/DTD/svg11.dtd">
<!-- Creator: CorelDRAW X8 -->
<svg xmlns="http://www.w3.org/2000/svg" xml:space="preserve" width="851px" height="1405px" version="1.1" style="shape-rendering:geometricPrecision; text-rendering:geometricPrecision; image-rendering:optimizeQuality; fill-rule:evenodd; clip-rule:evenodd"
viewBox="0 0 851 1405"
 xmlns:xlink="http://www.w3.org/1999/xlink">
 <defs>
  <style type="text/css">
   <![CDATA[
    .fil0 {fill:#CC6633;fill-rule:nonzero}
   ]]>
  </style>
 </defs>
 <g id="Layer_x0020_1">
  <metadata id="CorelCorpID_0Corel-Layer"/>
  <path class="fil0" d="M739 1376c0,16 -26,29 -58,29 -32,0 -57,-13 -57,-29l0 -1285 -282 0 0 1285c0,16 -26,29 -58,29 -32,0 -57,-13 -57,-29l0 -800c-130,-30 -227,-146 -227,-285 0,-158 127,-291 285,-291l485 0c45,0 81,20 81,45 0,26 -36,46 -81,46l-31 0 0 1285z"/>
 </g>
</svg>
