<?xml version="1.0" encoding="UTF-8"?>
<!DOCTYPE svg PUBLIC "-//W3C//DTD SVG 1.1//EN" "http://www.w3.org/Graphics/SVG/1.1/DTD/svg11.dtd">
<!-- Creator: CorelDRAW X8 -->
<svg xmlns="http://www.w3.org/2000/svg" xml:space="preserve" width="479px" height="1780px" version="1.1" style="shape-rendering:geometricPrecision; text-rendering:geometricPrecision; image-rendering:optimizeQuality; fill-rule:evenodd; clip-rule:evenodd"
viewBox="0 0 479 1780"
 xmlns:xlink="http://www.w3.org/1999/xlink">
 <defs>
  <style type="text/css">
   <![CDATA[
    .fil0 {fill:#CC6633;fill-rule:nonzero}
   ]]>
  </style>
 </defs>
 <g id="Layer_x0020_1">
  <metadata id="CorelCorpID_0Corel-Layer"/>
  <path class="fil0" d="M469 1713c7,7 10,14 10,21 0,17 -16,32 -43,41 -12,3 -25,5 -38,5 -29,0 -57,-9 -72,-24 -213,-224 -326,-546 -326,-870 0,-311 104,-626 326,-862 14,-15 43,-24 72,-24 13,0 26,2 38,5 27,8 43,24 43,41 0,7 -3,14 -9,21 -209,221 -307,521 -307,819 0,311 107,617 306,827z"/>
 </g>
</svg>
