<?xml version="1.0" encoding="UTF-8"?>
<!DOCTYPE svg PUBLIC "-//W3C//DTD SVG 1.1//EN" "http://www.w3.org/Graphics/SVG/1.1/DTD/svg11.dtd">
<!-- Creator: CorelDRAW X8 -->
<svg xmlns="http://www.w3.org/2000/svg" xml:space="preserve" width="479px" height="1780px" version="1.1" style="shape-rendering:geometricPrecision; text-rendering:geometricPrecision; image-rendering:optimizeQuality; fill-rule:evenodd; clip-rule:evenodd"
viewBox="0 0 479 1780"
 xmlns:xlink="http://www.w3.org/1999/xlink">
 <defs>
  <style type="text/css">
   <![CDATA[
    .fil0 {fill:#2B2A29;fill-rule:nonzero}
   ]]>
  </style>
 </defs>
 <g id="Layer_x0020_1">
  <metadata id="CorelCorpID_0Corel-Layer"/>
  <path class="fil0" d="M397 1780c27,0 82,-12 82,-46 0,-6 -3,-14 -10,-21 -199,-210 -306,-516 -306,-827 0,-298 98,-598 307,-819 7,-7 9,-14 9,-21 0,-34 -54,-46 -82,-46 -27,0 -55,7 -71,24 -222,236 -326,551 -326,862 0,324 113,646 326,870 16,17 45,24 71,24z"/>
 </g>
</svg>
