<?xml version="1.0" encoding="UTF-8"?>
<!DOCTYPE svg PUBLIC "-//W3C//DTD SVG 1.1//EN" "http://www.w3.org/Graphics/SVG/1.1/DTD/svg11.dtd">
<!-- Creator: CorelDRAW X8 -->
<svg xmlns="http://www.w3.org/2000/svg" xml:space="preserve" width="1484px" height="1405px" version="1.1" style="shape-rendering:geometricPrecision; text-rendering:geometricPrecision; image-rendering:optimizeQuality; fill-rule:evenodd; clip-rule:evenodd"
viewBox="0 0 1484 1405"
 xmlns:xlink="http://www.w3.org/1999/xlink">
 <defs>
  <style type="text/css">
   <![CDATA[
    .fil0 {fill:black;fill-rule:nonzero}
   ]]>
  </style>
 </defs>
 <g id="Layer_x0020_1">
  <metadata id="CorelCorpID_0Corel-Layer"/>
  <path class="fil0" d="M328 722c-218,0 -327,-180 -328,-361 -1,-180 109,-361 328,-361 219,0 328,181 328,361 1,181 -109,361 -328,361zm828 683c-218,0 -328,-181 -328,-361 -1,-181 108,-361 328,-361 218,0 328,180 328,361 0,180 -109,361 -328,361zm-723 -24c-10,18 -43,28 -75,22 -31,-5 -49,-24 -39,-42l732 -1337c10,-18 43,-28 75,-23 31,6 49,25 39,42l-732 1338zm723 -609c-111,0 -166,136 -165,272 0,136 55,271 165,271 110,0 165,-135 165,-271 0,-136 -55,-272 -165,-272zm-828 -682c-110,0 -165,135 -165,271 1,136 56,272 165,272 110,0 165,-136 165,-272 0,-136 -55,-271 -165,-271z"/>
 </g>
</svg>
