<?xml version="1.0" encoding="UTF-8"?>
<!DOCTYPE svg PUBLIC "-//W3C//DTD SVG 1.1//EN" "http://www.w3.org/Graphics/SVG/1.1/DTD/svg11.dtd">
<!-- Creator: CorelDRAW 2020 (64-Bit) -->
<svg xmlns="http://www.w3.org/2000/svg" xml:space="preserve" width="850px" height="1024px" version="1.1" style="shape-rendering:geometricPrecision; text-rendering:geometricPrecision; image-rendering:optimizeQuality; fill-rule:evenodd; clip-rule:evenodd"
viewBox="0 0 850 1023.999"
 xmlns:xlink="http://www.w3.org/1999/xlink"
 xmlns:xodm="http://www.corel.com/coreldraw/odm/2003">
 <defs>
  <style type="text/css">
   <![CDATA[
    .fil0 {fill:#2B2A29;fill-rule:nonzero}
   ]]>
  </style>
 </defs>
 <g id="Layer_x0020_1">
  <metadata id="CorelCorpID_0Corel-Layer"/>
  <path class="fil0" d="M81.5 470.779l262 0 0 333.86c0,25.206 36.489,45.64 81.5,45.64 45.011,0 81.5,-20.434 81.5,-45.64l0 -333.86 262 0c45.011,0 81.5,-20.434 81.5,-45.64 0,-25.206 -36.489,-45.64 -81.5,-45.64l-262 0 0 -333.859c0,-25.206 -36.489,-45.64 -81.5,-45.64 -45.011,0 -81.5,20.434 -81.5,45.64l0 333.859 -262 0c-45.011,0 -81.5,20.434 -81.5,45.64 0,25.206 36.49,45.64 81.5,45.64zm0 553.22l687 0c45.009,0 81.5,-20.434 81.5,-45.64 0,-25.206 -36.49,-45.64 -81.5,-45.64l-687 0c-45.01,0 -81.5,20.434 -81.5,45.64 0,25.206 36.493,45.64 81.5,45.64z"/>
 </g>
</svg>
