<?xml version="1.0" encoding="UTF-8"?>
<!DOCTYPE svg PUBLIC "-//W3C//DTD SVG 1.1//EN" "http://www.w3.org/Graphics/SVG/1.1/DTD/svg11.dtd">
<!-- Creator: CorelDRAW X8 -->
<svg xmlns="http://www.w3.org/2000/svg" xml:space="preserve" width="1379px" height="1405px" version="1.1" style="shape-rendering:geometricPrecision; text-rendering:geometricPrecision; image-rendering:optimizeQuality; fill-rule:evenodd; clip-rule:evenodd"
viewBox="0 0 1379 1405"
 xmlns:xlink="http://www.w3.org/1999/xlink">
 <defs>
  <style type="text/css">
   <![CDATA[
    .fil0 {fill:#009846;fill-rule:nonzero}
   ]]>
  </style>
 </defs>
 <g id="Layer_x0020_1">
  <metadata id="CorelCorpID_0Corel-Layer"/>
  <path class="fil0" d="M673 0c415,0 673,307 673,702 0,175 -55,353 -169,487 40,55 90,104 166,133 29,11 52,38 22,63 -28,23 -80,25 -113,12 -78,-29 -133,-69 -177,-114 -103,76 -237,122 -402,122 -415,0 -673,-307 -673,-703 0,-395 258,-702 673,-702zm-16 892c-39,-5 -65,-24 -66,-45 0,-35 56,-46 88,-45 185,3 322,106 415,256 61,-108 89,-232 89,-356 0,-301 -174,-611 -510,-611 -336,0 -510,310 -510,611 0,302 174,612 510,612 135,0 244,-50 326,-130 -94,-147 -141,-270 -342,-292z"/>
 </g>
</svg>
