<?xml version="1.0" encoding="UTF-8"?>
<!DOCTYPE svg PUBLIC "-//W3C//DTD SVG 1.1//EN" "http://www.w3.org/Graphics/SVG/1.1/DTD/svg11.dtd">
<!-- Creator: CorelDRAW X8 -->
<svg xmlns="http://www.w3.org/2000/svg" xml:space="preserve" width="896px" height="1405px" version="1.1" style="shape-rendering:geometricPrecision; text-rendering:geometricPrecision; image-rendering:optimizeQuality; fill-rule:evenodd; clip-rule:evenodd"
viewBox="0 0 896 1405"
 xmlns:xlink="http://www.w3.org/1999/xlink">
 <defs>
  <style type="text/css">
   <![CDATA[
    .fil0 {fill:#009846;fill-rule:nonzero}
   ]]>
  </style>
 </defs>
 <g id="Layer_x0020_1">
  <metadata id="CorelCorpID_0Corel-Layer"/>
  <path class="fil0" d="M162 396c0,25 -36,46 -81,46 -45,0 -81,-21 -81,-46 0,-90 27,-181 86,-251 70,-84 186,-145 371,-145 219,0 439,130 439,368 0,152 -84,253 -189,350 -59,55 -118,109 -151,164 -21,35 -40,86 -32,217 1,25 -34,46 -79,47 -45,1 -82,-19 -84,-44 -9,-151 16,-210 43,-253 34,-55 100,-118 164,-178 91,-84 165,-171 166,-303 0,-155 -122,-277 -277,-277 -86,0 -168,24 -224,92 -49,59 -71,137 -71,213zm279 829c50,0 90,40 90,90 0,50 -40,90 -90,90 -50,0 -90,-40 -90,-90 0,-50 40,-90 90,-90z"/>
 </g>
</svg>
