<?xml version="1.0" encoding="UTF-8"?>
<!DOCTYPE svg PUBLIC "-//W3C//DTD SVG 1.1//EN" "http://www.w3.org/Graphics/SVG/1.1/DTD/svg11.dtd">
<!-- Creator: CorelDRAW X8 -->
<svg xmlns="http://www.w3.org/2000/svg" xml:space="preserve" width="639px" height="1024px" version="1.1" style="shape-rendering:geometricPrecision; text-rendering:geometricPrecision; image-rendering:optimizeQuality; fill-rule:evenodd; clip-rule:evenodd"
viewBox="0 0 639 1024"
 xmlns:xlink="http://www.w3.org/1999/xlink">
 <defs>
  <style type="text/css">
   <![CDATA[
    .fil0 {fill:#009846;fill-rule:nonzero}
   ]]>
  </style>
 </defs>
 <g id="Layer_x0020_1">
  <metadata id="CorelCorpID_0Corel-Layer"/>
  <path class="fil0" d="M0 46c0,-26 37,-46 82,-46 45,0 81,20 81,46l0 111c54,-117 147,-157 262,-157 72,0 133,14 194,54 33,22 21,55 -7,75 -25,18 -61,22 -86,3 -35,-27 -79,-39 -121,-39 -191,0 -242,234 -242,393l0 492c0,26 -36,46 -81,46 -45,0 -82,-20 -82,-46l0 -932z"/>
 </g>
</svg>
