<?xml version="1.0" encoding="UTF-8"?>
<!DOCTYPE svg PUBLIC "-//W3C//DTD SVG 1.1//EN" "http://www.w3.org/Graphics/SVG/1.1/DTD/svg11.dtd">
<!-- Creator: CorelDRAW X8 -->
<svg xmlns="http://www.w3.org/2000/svg" xml:space="preserve" width="639px" height="1024px" version="1.1" style="shape-rendering:geometricPrecision; text-rendering:geometricPrecision; image-rendering:optimizeQuality; fill-rule:evenodd; clip-rule:evenodd"
viewBox="0 0 639 1024"
 xmlns:xlink="http://www.w3.org/1999/xlink">
 <defs>
  <style type="text/css">
   <![CDATA[
    .fil0 {fill:#434242;fill-rule:nonzero}
   ]]>
  </style>
 </defs>
 <g id="Layer_x0020_1">
  <metadata id="CorelCorpID_0Corel-Layer"/>
  <path class="fil0" d="M82 1024c45,0 81,-20 81,-46l0 -492c0,-159 51,-393 242,-393 87,0 113,51 160,51 16,0 33,-5 47,-15 16,-12 27,-27 27,-43 0,-11 -6,-23 -20,-32 -61,-40 -122,-54 -194,-54 -115,0 -208,40 -262,157l0 -111c0,-26 -36,-46 -81,-46 -45,0 -82,20 -82,46l0 932c0,26 37,46 82,46z"/>
 </g>
</svg>
