<?xml version="1.0" encoding="UTF-8"?>
<!DOCTYPE svg PUBLIC "-//W3C//DTD SVG 1.1//EN" "http://www.w3.org/Graphics/SVG/1.1/DTD/svg11.dtd">
<!-- Creator: CorelDRAW X8 -->
<svg xmlns="http://www.w3.org/2000/svg" xml:space="preserve" width="639px" height="1024px" version="1.1" style="shape-rendering:geometricPrecision; text-rendering:geometricPrecision; image-rendering:optimizeQuality; fill-rule:evenodd; clip-rule:evenodd"
viewBox="0 0 639 1024"
 xmlns:xlink="http://www.w3.org/1999/xlink">
 <defs>
  <style type="text/css">
   <![CDATA[
    .fil0 {fill:#CC6633;fill-rule:nonzero}
   ]]>
  </style>
 </defs>
 <g id="Layer_x0020_1">
  <metadata id="CorelCorpID_0Corel-Layer"/>
  <path class="fil0" d="M0 46c0,-26 36,-46 81,-46 45,0 82,20 82,46l0 102c56,-104 147,-148 262,-148 72,0 133,14 194,54 14,10 20,21 20,32 0,16 -11,32 -27,43 -14,9 -31,15 -47,15 -14,0 -28,-3 -39,-12 -35,-27 -79,-43 -121,-43 -90,0 -154,51 -192,129 -41,83 -50,190 -50,268l0 492c0,26 -37,46 -82,46 -45,0 -81,-20 -81,-46l0 -932z"/>
 </g>
</svg>
