<?xml version="1.0" encoding="UTF-8"?>
<!DOCTYPE svg PUBLIC "-//W3C//DTD SVG 1.1//EN" "http://www.w3.org/Graphics/SVG/1.1/DTD/svg11.dtd">
<!-- Creator: CorelDRAW X8 -->
<svg xmlns="http://www.w3.org/2000/svg" xml:space="preserve" width="1108px" height="1024px" version="1.1" style="shape-rendering:geometricPrecision; text-rendering:geometricPrecision; image-rendering:optimizeQuality; fill-rule:evenodd; clip-rule:evenodd"
viewBox="0 0 1108 1024"
 xmlns:xlink="http://www.w3.org/1999/xlink">
 <defs>
  <style type="text/css">
   <![CDATA[
    .fil0 {fill:#009846;fill-rule:nonzero}
   ]]>
  </style>
 </defs>
 <g id="Layer_x0020_1">
  <metadata id="CorelCorpID_0Corel-Layer"/>
  <path class="fil0" d="M371 792c0,19 -30,25 -45,25 -14,0 -44,-6 -44,-25l0 -560c0,-19 30,-25 44,-25l274 0c96,0 195,62 195,164 0,84 -70,144 -149,160 33,30 53,73 71,113 21,46 46,106 95,130 17,8 20,24 3,35 -17,10 -45,10 -63,1 -68,-33 -95,-95 -122,-154 -20,-45 -49,-121 -109,-121l-150 0 0 257zm737 -280c0,322 -253,512 -554,512 -301,0 -554,-190 -554,-512 0,-322 253,-512 554,-512 301,0 554,190 554,512zm-133 0c0,-251 -171,-438 -421,-438 -250,0 -421,187 -421,438 0,251 171,438 421,438 250,0 421,-187 421,-438zm-604 -256l0 230 229 0c59,0 105,-59 105,-115 0,-56 -46,-115 -105,-115l-229 0z"/>
 </g>
</svg>
