<?xml version="1.0" encoding="UTF-8"?>
<!DOCTYPE svg PUBLIC "-//W3C//DTD SVG 1.1//EN" "http://www.w3.org/Graphics/SVG/1.1/DTD/svg11.dtd">
<!-- Creator: CorelDRAW X8 -->
<svg xmlns="http://www.w3.org/2000/svg" xml:space="preserve" width="1108px" height="1024px" version="1.1" style="shape-rendering:geometricPrecision; text-rendering:geometricPrecision; image-rendering:optimizeQuality; fill-rule:evenodd; clip-rule:evenodd"
viewBox="0 0 1108 1024"
 xmlns:xlink="http://www.w3.org/1999/xlink">
 <defs>
  <style type="text/css">
   <![CDATA[
    .fil0 {fill:#2B2A29;fill-rule:nonzero}
   ]]>
  </style>
 </defs>
 <g id="Layer_x0020_1">
  <metadata id="CorelCorpID_0Corel-Layer"/>
  <path class="fil0" d="M554 1024c301,0 554,-190 554,-512 0,-322 -253,-512 -554,-512 -301,0 -554,190 -554,512 0,322 253,512 554,512zm0 -74c-250,0 -421,-187 -421,-438 0,-251 171,-438 421,-438 250,0 421,187 421,438 0,251 -171,438 -421,438zm229 -133c12,0 23,-3 32,-8 8,-5 11,-11 11,-17 0,-7 -5,-14 -14,-18 -49,-24 -74,-84 -95,-130 -18,-40 -38,-83 -71,-113 79,-16 149,-76 149,-160 0,-102 -99,-164 -195,-164l-274 0c-14,0 -44,6 -44,25l0 560c0,19 30,25 44,25 15,0 45,-6 45,-25l0 -257 150 0c60,0 89,76 109,121 27,59 54,121 122,154 9,4 20,7 31,7zm-183 -331l-229 0 0 -230 229 0c59,0 105,59 105,115 0,56 -46,115 -105,115z"/>
 </g>
</svg>
