<?xml version="1.0" encoding="UTF-8"?>
<!DOCTYPE svg PUBLIC "-//W3C//DTD SVG 1.1//EN" "http://www.w3.org/Graphics/SVG/1.1/DTD/svg11.dtd">
<!-- Creator: CorelDRAW X8 -->
<svg xmlns="http://www.w3.org/2000/svg" xml:space="preserve" width="1108px" height="1024px" version="1.1" style="shape-rendering:geometricPrecision; text-rendering:geometricPrecision; image-rendering:optimizeQuality; fill-rule:evenodd; clip-rule:evenodd"
viewBox="0 0 1108 1024"
 xmlns:xlink="http://www.w3.org/1999/xlink">
 <defs>
  <style type="text/css">
   <![CDATA[
    .fil0 {fill:#898778;fill-rule:nonzero}
   ]]>
  </style>
 </defs>
 <g id="Layer_x0020_1">
  <metadata id="CorelCorpID_0Corel-Layer"/>
  <path class="fil0" d="M371 793c0,18 -30,24 -45,24 -14,0 -44,-6 -44,-24l0 -561c0,-19 30,-25 44,-25l274 0c96,0 195,62 195,164 0,84 -70,144 -149,160 33,30 53,73 71,113 21,47 46,106 95,130 17,9 20,24 3,35 -17,10 -45,10 -63,2 -68,-34 -95,-96 -122,-155 -20,-44 -49,-121 -109,-121l-150 0 0 258zm737 -281c0,322 -253,512 -554,512 -301,0 -554,-190 -554,-512 0,-321 253,-512 554,-512 301,0 554,191 554,512zm-133 0c0,-251 -171,-438 -421,-438 -250,0 -421,187 -421,438 0,251 171,438 421,438 250,0 421,-187 421,-438zm-604 -255l0 229 229 0c59,0 105,-59 105,-115 0,-55 -46,-114 -105,-114l-229 0z"/>
 </g>
</svg>
