<?xml version="1.0" encoding="UTF-8"?>
<!DOCTYPE svg PUBLIC "-//W3C//DTD SVG 1.1//EN" "http://www.w3.org/Graphics/SVG/1.1/DTD/svg11.dtd">
<!-- Creator: CorelDRAW X8 -->
<svg xmlns="http://www.w3.org/2000/svg" xml:space="preserve" width="996px" height="1381px" version="1.1" style="shape-rendering:geometricPrecision; text-rendering:geometricPrecision; image-rendering:optimizeQuality; fill-rule:evenodd; clip-rule:evenodd"
viewBox="0 0 996 1381"
 xmlns:xlink="http://www.w3.org/1999/xlink">
 <defs>
  <style type="text/css">
   <![CDATA[
    .fil0 {fill:#434242;fill-rule:nonzero}
   ]]>
  </style>
 </defs>
 <g id="Layer_x0020_1">
  <metadata id="CorelCorpID_0Corel-Layer"/>
  <path class="fil0" d="M678 1381c13,0 31,-2 47,-8 19,-7 35,-18 35,-37 0,-7 -3,-14 -9,-21l-489 -522c246,-25 405,-120 481,-236 30,-46 46,-95 49,-145l122 0c45,0 82,-20 82,-45 0,-25 -37,-46 -82,-46l-132 0c-10,-38 -29,-75 -55,-109 -35,-46 -83,-87 -144,-121l331 0c45,0 82,-20 82,-45 0,-26 -37,-46 -82,-46l-832 0c-45,0 -82,20 -82,46 0,25 37,45 82,45l103 0c195,0 326,70 392,157 18,23 32,48 40,73l-535 0c-45,0 -82,21 -82,46 0,25 37,45 82,45l547 0c-3,39 -16,78 -39,114 -66,102 -217,181 -457,181 -45,0 -81,21 -81,46 0,9 6,17 13,25l542 579c14,15 42,24 71,24z"/>
 </g>
</svg>
