<?xml version="1.0" encoding="UTF-8"?>
<!DOCTYPE svg PUBLIC "-//W3C//DTD SVG 1.1//EN" "http://www.w3.org/Graphics/SVG/1.1/DTD/svg11.dtd">
<!-- Creator: CorelDRAW 2020 (64-Bit) -->
<svg xmlns="http://www.w3.org/2000/svg" xml:space="preserve" width="251.883mm" height="470.958mm" version="1.1" style="shape-rendering:geometricPrecision; text-rendering:geometricPrecision; image-rendering:optimizeQuality; fill-rule:evenodd; clip-rule:evenodd"
viewBox="0 0 25188.32 47095.82"
 xmlns:xlink="http://www.w3.org/1999/xlink"
 xmlns:xodm="http://www.corel.com/coreldraw/odm/2003">
 <defs>
  <style type="text/css">
   <![CDATA[
    .fil0 {fill:#2B2A29;fill-rule:nonzero}
   ]]>
  </style>
 </defs>
 <g id="Layer_x0020_1">
  <metadata id="CorelCorpID_0Corel-Layer"/>
  <path class="fil0" d="M19865.49 29055.49c649.16,-1131.23 1025.88,-2412.39 1025.88,-3727.37 0,-1401.02 -489.83,-2748.07 -1686.56,-3767.79 -1482,-1263.1 -3350.73,-1717.78 -5369.18,-2099.05 -2452.67,-463.29 -5126.98,-817.81 -7596.29,-2383.51 -761.52,1066.65 -1221.57,2340.38 -1221.57,3710.84 0,1333.12 489.84,2638.96 1673.22,3645.33 1903.33,1607.49 4272.14,1981.25 6739.86,2426.74 2151.07,388.33 4374.53,834.6 6434.64,2194.81zm-16150.14 -14197.36c-1288.56,-1597.08 -1935.71,-3487.52 -1935.71,-5377.13 0,-6069.96 6043.35,-9481 11521.6,-9481 5635.56,0 9757.21,2937.7 11060.04,8492.33 29.95,127.67 52.97,245.21 52.97,308.47 0,762.03 -1115.48,1170.03 -2203.68,1170.03 -992.45,0 -1958.77,-340.1 -2094.57,-1060.92 -683.93,-3504.56 -3059.03,-6488.59 -6855.39,-6488.59 -3669.42,0 -7155.44,3041.42 -7155.44,6814.76 0,1333.12 489.84,2638.96 1673.22,3645.33 1903.33,1607.49 4272.14,1981.25 6739.86,2426.74 2523.43,455.55 5146.53,990.52 7488.6,2987.57 2158.73,1840.72 3182.78,4298.26 3182.78,6787.48 0,2717.42 -1066.57,4782.8 -2749.94,6404.07 1122.34,1550.1 1662.54,3340.89 1662.54,5148.46 0,6448.77 -6005.03,10460.1 -12010.85,10460.1 -6126.63,0 -10634.9,-3575.16 -12023,-9536.72 -39.74,-170.7 -69.69,-337.02 -69.69,-460.81 0,-748.11 1101.55,-1156.11 2203.68,-1156.11 979.09,0 1944.84,326.17 2094.57,1047 858.23,3955.93 3388.42,7685.9 7807.78,7685.9 4113.37,0 7699.25,-3736.74 7699.25,-7794.44 0,-1401.02 -489.83,-2748.07 -1686.56,-3767.79 -1482,-1263.1 -3350.73,-1717.78 -5369.18,-2099.05 -2872.9,-542.67 -6049.94,-935.71 -8845.36,-3301.33 -2136.58,-1808.08 -3210.63,-4244.28 -3210.63,-6678.95 0,-2708.57 1203.57,-4710.21 3023.11,-6175.4z"/>
 </g>
</svg>
