<?xml version="1.0" encoding="UTF-8"?>
<!DOCTYPE svg PUBLIC "-//W3C//DTD SVG 1.1//EN" "http://www.w3.org/Graphics/SVG/1.1/DTD/svg11.dtd">
<!-- Creator: CorelDRAW 2020 (64-Bit) -->
<svg xmlns="http://www.w3.org/2000/svg" xml:space="preserve" width="952px" height="1780px" version="1.1" style="shape-rendering:geometricPrecision; text-rendering:geometricPrecision; image-rendering:optimizeQuality; fill-rule:evenodd; clip-rule:evenodd"
viewBox="0 0 952 1779.816"
 xmlns:xlink="http://www.w3.org/1999/xlink"
 xmlns:xodm="http://www.corel.com/coreldraw/odm/2003">
 <defs>
  <style type="text/css">
   <![CDATA[
    .fil0 {fill:#2B2A29;fill-rule:nonzero}
   ]]>
  </style>
 </defs>
 <g id="Layer_x0020_1">
  <metadata id="CorelCorpID_0Corel-Layer"/>
  <path class="fil0" d="M750.793 1098.047c24.533,-42.751 38.77,-91.168 38.77,-140.863 0,-52.946 -18.511,-103.853 -63.738,-142.39 -56.006,-47.734 -126.628,-64.917 -202.908,-79.326 -92.69,-17.508 -193.756,-30.906 -287.074,-90.076 -28.779,40.31 -46.165,88.446 -46.165,140.238 0,50.38 18.512,99.73 63.233,137.762 71.93,60.749 161.45,74.874 254.709,91.71 81.292,14.675 165.319,31.54 243.173,82.945zm-610.335 -536.538c-48.697,-60.356 -73.153,-131.798 -73.153,-203.209 0,-229.392 228.386,-358.3 435.417,-358.3 212.975,0 368.738,111.02 417.974,320.937 1.131,4.825 2.001,9.267 2.001,11.657 0,28.798 -42.155,44.217 -83.28,44.217 -37.506,0 -74.024,-12.853 -79.156,-40.093 -25.847,-132.442 -115.605,-245.213 -259.075,-245.213 -138.672,0 -270.414,114.939 -270.414,257.539 0,50.38 18.512,99.73 63.233,137.762 71.93,60.749 161.45,74.874 254.709,91.71 95.364,17.216 194.494,37.433 283.004,112.904 81.582,69.564 120.282,162.437 120.282,256.508 0,102.695 -40.307,180.749 -103.924,242.019 42.415,58.58 62.83,126.257 62.83,194.567 0,243.708 -226.939,395.302 -453.907,395.302 -231.533,0 -401.907,-135.11 -454.365,-360.406 -1.502,-6.451 -2.634,-12.736 -2.634,-17.415 0,-28.272 41.629,-43.691 83.28,-43.691 37.001,0 73.498,12.327 79.157,39.568 32.433,149.5 128.053,290.461 295.066,290.461 155.45,0 290.966,-141.217 290.966,-294.563 0,-52.946 -18.512,-103.853 -63.738,-142.39 -56.007,-47.734 -126.629,-64.917 -202.908,-79.326 -108.571,-20.508 -228.636,-35.362 -334.279,-124.762 -80.744,-68.329 -121.334,-160.397 -121.334,-252.406 0,-102.361 45.485,-178.005 114.248,-233.377z"/>
 </g>
</svg>
