<?xml version="1.0" encoding="UTF-8"?>
<!DOCTYPE svg PUBLIC "-//W3C//DTD SVG 1.1//EN" "http://www.w3.org/Graphics/SVG/1.1/DTD/svg11.dtd">
<!-- Creator: CorelDRAW X8 -->
<svg xmlns="http://www.w3.org/2000/svg" xml:space="preserve" width="194px" height="838px" version="1.1" style="shape-rendering:geometricPrecision; text-rendering:geometricPrecision; image-rendering:optimizeQuality; fill-rule:evenodd; clip-rule:evenodd"
viewBox="0 0 194 838"
 xmlns:xlink="http://www.w3.org/1999/xlink">
 <defs>
  <style type="text/css">
   <![CDATA[
    .fil0 {fill:#009846}
   ]]>
  </style>
 </defs>
 <g id="Layer_x0020_1">
  <metadata id="CorelCorpID_0Corel-Layer"/>
  <path class="fil0" d="M90 0c50,0 90,40 90,90 0,50 -40,90 -90,90 -50,0 -90,-40 -90,-90 0,-50 40,-90 90,-90zm0 526c31,0 56,11 73,30 24,25 33,60 31,95 -2,39 -16,80 -35,109 -17,27 -47,57 -80,71 -16,6 -31,9 -47,6 -13,-2 -24,-13 -6,-20 25,-10 46,-29 59,-52 11,-18 18,-39 20,-60 -5,0 -10,1 -15,1 -50,0 -90,-40 -90,-90 0,-50 40,-90 90,-90z"/>
 </g>
</svg>
