<?xml version="1.0" encoding="UTF-8"?>
<!DOCTYPE svg PUBLIC "-//W3C//DTD SVG 1.1//EN" "http://www.w3.org/Graphics/SVG/1.1/DTD/svg11.dtd">
<!-- Creator: CorelDRAW X8 -->
<svg xmlns="http://www.w3.org/2000/svg" xml:space="preserve" width="259px" height="913px" version="1.1" style="shape-rendering:geometricPrecision; text-rendering:geometricPrecision; image-rendering:optimizeQuality; fill-rule:evenodd; clip-rule:evenodd"
viewBox="0 0 259 913"
 xmlns:xlink="http://www.w3.org/1999/xlink">
 <defs>
  <style type="text/css">
   <![CDATA[
    .fil0 {fill:#CC6633;fill-rule:nonzero}
   ]]>
  </style>
 </defs>
 <g id="Layer_x0020_1">
  <metadata id="CorelCorpID_0Corel-Layer"/>
  <path class="fil0" d="M72 910c-7,2 -15,3 -22,3 -18,0 -36,-5 -45,-14 -4,-4 -5,-8 -5,-12 0,-9 10,-17 28,-22 39,-9 78,-42 102,-79 14,-22 25,-51 31,-80 -3,0 -6,0 -9,0 -50,0 -90,-40 -90,-90 0,-50 40,-90 90,-90 27,0 57,11 75,31 23,26 32,61 32,98 0,17 -2,34 -5,50 -11,54 -37,107 -68,140 -29,31 -67,54 -114,65zm79 -910c50,0 90,40 90,90 0,50 -40,90 -90,90 -50,0 -90,-40 -90,-90 0,-50 40,-90 90,-90z"/>
 </g>
</svg>
