<?xml version="1.0" encoding="UTF-8"?>
<!DOCTYPE svg PUBLIC "-//W3C//DTD SVG 1.1//EN" "http://www.w3.org/Graphics/SVG/1.1/DTD/svg11.dtd">
<!-- Creator: CorelDRAW 2020 (64-Bit) -->
<svg xmlns="http://www.w3.org/2000/svg" xml:space="preserve" width="309px" height="993px" version="1.1" style="shape-rendering:geometricPrecision; text-rendering:geometricPrecision; image-rendering:optimizeQuality; fill-rule:evenodd; clip-rule:evenodd"
viewBox="0 0 309 993"
 xmlns:xlink="http://www.w3.org/1999/xlink"
 xmlns:xodm="http://www.corel.com/coreldraw/odm/2003">
 <defs>
  <style type="text/css">
   <![CDATA[
    .fil0 {fill:#E31E24}
   ]]>
  </style>
 </defs>
 <g id="Layer_x0020_1">
  <metadata id="CorelCorpID_0Corel-Layer"/>
  <path class="fil0" d="M165.536 755.916c-11.036,3.008 -23.075,5.013 -35.114,5.013 -74.24,0 -130.422,-61.376 -130.422,-134.57 0,-75.2 55.179,-135.359 130.422,-135.359 115.374,0 178.578,87.231 178.578,195.518 0,126.758 -88.845,306.285 -238.325,306.482 -23.605,0.031 -69.949,-3.321 -69.948,-35.367 0,-3.727 3.378,-5.39 13.332,-8.033 89.804,-23.843 136.86,-106.037 151.477,-193.684zm-30.536 -485.916c-75.229,0 -135,-59.771 -135,-135 0,-75.229 59.771,-135 135,-135 75.229,0 135,59.771 135,135 0,75.229 -59.771,135 -135,135z"/>
 </g>
</svg>
