<?xml version="1.0" encoding="UTF-8"?>
<!DOCTYPE svg PUBLIC "-//W3C//DTD SVG 1.1//EN" "http://www.w3.org/Graphics/SVG/1.1/DTD/svg11.dtd">
<!-- Creator: CorelDRAW 2020 (64-Bit) -->
<svg xmlns="http://www.w3.org/2000/svg" xml:space="preserve" width="754px" height="250px" version="1.1" style="shape-rendering:geometricPrecision; text-rendering:geometricPrecision; image-rendering:optimizeQuality; fill-rule:evenodd; clip-rule:evenodd"
viewBox="0 0 754 250"
 xmlns:xlink="http://www.w3.org/1999/xlink"
 xmlns:xodm="http://www.corel.com/coreldraw/odm/2003">
 <defs>
  <style type="text/css">
   <![CDATA[
    .fil0 {fill:#2B2A29;fill-rule:nonzero}
   ]]>
  </style>
 </defs>
 <g id="Layer_x0020_1">
  <metadata id="CorelCorpID_0Corel-Layer"/>
  <path class="fil0" d="M554.71 250c69.495,0 117.076,-26.12 148.806,-68.154 26.545,-35.165 50.484,-106.674 50.484,-150.186 0,-24.551 -39.128,-31.66 -57.496,-31.66 -30.229,0 -54.28,13.452 -56.094,30.256 -3.796,35.137 -27.424,155.801 -86.323,155.801 -48.17,0 -99.286,-49.229 -132.6,-80.006 -57.608,-53.218 -114.993,-105.271 -214.561,-105.271 -58.435,0 -107.162,18.846 -148.026,61.759 -36.266,38.085 -58.356,89.829 -58.899,145.352 -0.236,24.103 39.17,32.284 57.497,32.284 30.228,0 54.019,-12.7 56.094,-30.256 5.359,-45.348 33.502,-145.196 91.153,-145.196 37.864,0 78.485,36.713 119.356,74.391 70.983,65.438 128.503,110.886 230.609,110.886z"/>
 </g>
</svg>
