<?xml version="1.0" encoding="UTF-8"?>
<!DOCTYPE svg PUBLIC "-//W3C//DTD SVG 1.1//EN" "http://www.w3.org/Graphics/SVG/1.1/DTD/svg11.dtd">
<!-- Creator: CorelDRAW 2020 (64-Bit) -->
<svg xmlns="http://www.w3.org/2000/svg" xml:space="preserve" width="199.496mm" height="66.1458mm" version="1.1" style="shape-rendering:geometricPrecision; text-rendering:geometricPrecision; image-rendering:optimizeQuality; fill-rule:evenodd; clip-rule:evenodd"
viewBox="0 0 19949.58 6614.58"
 xmlns:xlink="http://www.w3.org/1999/xlink"
 xmlns:xodm="http://www.corel.com/coreldraw/odm/2003">
 <defs>
  <style type="text/css">
   <![CDATA[
    .fil0 {fill:#2B2A29;fill-rule:nonzero}
   ]]>
  </style>
 </defs>
 <g id="Layer_x0020_1">
  <metadata id="CorelCorpID_0Corel-Layer"/>
  <path class="fil0" d="M14676.71 6614.58c1838.7,0 3097.62,-691.09 3937.14,-1803.23 702.34,-930.42 1335.74,-2822.43 1335.74,-3973.69 0,-649.56 -1035.26,-837.65 -1521.26,-837.65 -799.8,0 -1436.15,355.92 -1484.16,800.51 -100.42,929.68 -725.59,4122.25 -2283.95,4122.25 -1274.5,0 -2626.94,-1302.53 -3508.39,-2116.83 -1524.19,-1408.06 -3042.52,-2785.3 -5676.91,-2785.3 -1546.1,0 -2835.33,498.63 -3916.53,1634.04 -959.54,1007.65 -1543.99,2376.72 -1558.36,3845.78 -6.24,637.72 1036.37,854.16 1521.26,854.16 799.8,0 1429.26,-336.01 1484.16,-800.52 141.79,-1199.82 886.4,-3841.65 2411.76,-3841.65 1001.81,0 2076.58,971.38 3157.95,1968.28 1878.11,1731.38 3399.98,2933.85 6101.55,2933.85z"/>
 </g>
</svg>
