<?xml version="1.0" encoding="UTF-8"?>
<!DOCTYPE svg PUBLIC "-//W3C//DTD SVG 1.1//EN" "http://www.w3.org/Graphics/SVG/1.1/DTD/svg11.dtd">
<!-- Creator: CorelDRAW X8 -->
<svg xmlns="http://www.w3.org/2000/svg" xml:space="preserve" width="1140px" height="1405px" version="1.1" style="shape-rendering:geometricPrecision; text-rendering:geometricPrecision; image-rendering:optimizeQuality; fill-rule:evenodd; clip-rule:evenodd"
viewBox="0 0 1140 1405"
 xmlns:xlink="http://www.w3.org/1999/xlink">
 <defs>
  <style type="text/css">
   <![CDATA[
    .fil0 {fill:#2B2A29;fill-rule:nonzero}
   ]]>
  </style>
 </defs>
 <g id="Layer_x0020_1">
  <metadata id="CorelCorpID_0Corel-Layer"/>
  <path class="fil0" d="M1140 991c0,-138 -59,-225 -146,-282 -104,-67 -249,-90 -381,-104 -67,-7 -178,-25 -268,-64 -82,-36 -147,-90 -147,-170 0,-189 220,-280 381,-280 170,0 320,88 360,261 7,27 42,40 78,40 40,0 85,-15 85,-41 0,-8 -4,-19 -6,-26 -64,-228 -295,-325 -518,-325 -215,0 -543,111 -543,372 0,140 68,238 190,301 111,58 252,81 372,93 67,7 167,24 247,62 73,34 133,86 133,172 0,204 -224,310 -402,314 -200,0 -360,-104 -413,-308 -7,-26 -41,-39 -78,-39 -22,0 -45,5 -61,13 -18,9 -23,19 -23,31 0,8 2,16 4,27 48,261 322,367 564,367 287,0 572,-156 572,-414z"/>
 </g>
</svg>
