<?xml version="1.0" encoding="UTF-8"?>
<!DOCTYPE svg PUBLIC "-//W3C//DTD SVG 1.1//EN" "http://www.w3.org/Graphics/SVG/1.1/DTD/svg11.dtd">
<!-- Creator: CorelDRAW X8 -->
<svg xmlns="http://www.w3.org/2000/svg" xml:space="preserve" width="1140px" height="1405px" version="1.1" style="shape-rendering:geometricPrecision; text-rendering:geometricPrecision; image-rendering:optimizeQuality; fill-rule:evenodd; clip-rule:evenodd"
viewBox="0 0 1140 1405"
 xmlns:xlink="http://www.w3.org/1999/xlink">
 <defs>
  <style type="text/css">
   <![CDATA[
    .fil0 {fill:#CC6633;fill-rule:nonzero}
   ]]>
  </style>
 </defs>
 <g id="Layer_x0020_1">
  <metadata id="CorelCorpID_0Corel-Layer"/>
  <path class="fil0" d="M1100 340c1,2 1,4 1,6 0,23 -30,42 -71,45 -44,4 -85,-14 -91,-39 -42,-176 -195,-264 -369,-261 -160,3 -370,94 -372,278 -1,81 64,136 147,172 90,39 201,57 268,64 132,14 277,37 381,104 88,57 147,145 146,286 -3,257 -287,395 -512,408 -279,17 -550,-94 -627,-384 -1,-2 -1,-4 -1,-7 0,-22 29,-41 70,-44 44,-4 86,13 92,38 57,215 232,320 449,307 167,-10 368,-130 366,-316 0,-80 -58,-134 -133,-169 -80,-38 -180,-55 -247,-62 -120,-12 -261,-35 -372,-93 -108,-56 -187,-146 -190,-294 -6,-260 314,-375 530,-379 232,-4 476,96 535,340z"/>
 </g>
</svg>
