<?xml version="1.0" encoding="UTF-8"?>
<!DOCTYPE svg PUBLIC "-//W3C//DTD SVG 1.1//EN" "http://www.w3.org/Graphics/SVG/1.1/DTD/svg11.dtd">
<!-- Creator: CorelDRAW X8 -->
<svg xmlns="http://www.w3.org/2000/svg" xml:space="preserve" width="719px" height="1405px" version="1.1" style="shape-rendering:geometricPrecision; text-rendering:geometricPrecision; image-rendering:optimizeQuality; fill-rule:evenodd; clip-rule:evenodd"
viewBox="0 0 719 1405"
 xmlns:xlink="http://www.w3.org/1999/xlink">
 <defs>
  <style type="text/css">
   <![CDATA[
    .fil0 {fill:#009846;fill-rule:nonzero}
   ]]>
  </style>
 </defs>
 <g id="Layer_x0020_1">
  <metadata id="CorelCorpID_0Corel-Layer"/>
  <path class="fil0" d="M376 46c0,-26 -36,-46 -81,-46 -45,0 -82,20 -82,46l0 335 -132 0c-45,0 -81,20 -81,46 0,25 36,45 81,45l132 0 0 664c0,193 142,268 316,269 42,0 82,-4 120,-11 27,-5 89,-23 65,-61 -19,-29 -72,-34 -104,-28 -24,5 -53,9 -81,9 -110,-1 -153,-73 -153,-178l0 -664 188 0c45,0 82,-20 82,-45 0,-26 -37,-46 -82,-46l-188 0 0 -335z"/>
 </g>
</svg>
