<?xml version="1.0" encoding="UTF-8"?>
<!DOCTYPE svg PUBLIC "-//W3C//DTD SVG 1.1//EN" "http://www.w3.org/Graphics/SVG/1.1/DTD/svg11.dtd">
<!-- Creator: CorelDRAW X8 -->
<svg xmlns="http://www.w3.org/2000/svg" xml:space="preserve" width="1075px" height="356px" version="1.1" style="shape-rendering:geometricPrecision; text-rendering:geometricPrecision; image-rendering:optimizeQuality; fill-rule:evenodd; clip-rule:evenodd"
viewBox="0 0 1075 356"
 xmlns:xlink="http://www.w3.org/1999/xlink">
 <defs>
  <style type="text/css">
   <![CDATA[
    .fil0 {fill:#009846;fill-rule:nonzero}
   ]]>
  </style>
 </defs>
 <g id="Layer_x0020_1">
  <metadata id="CorelCorpID_0Corel-Layer"/>
  <path class="fil0" d="M162 299c-2,26 -41,45 -86,43 -43,-2 -76,-22 -76,-46 1,-79 32,-153 84,-207 49,-52 116,-85 192,-88 154,-7 239,71 325,150 61,56 124,113 188,114 85,2 118,-172 124,-222 2,-25 41,-45 86,-43 43,1 76,21 76,45 0,62 -34,164 -72,214 -46,62 -117,99 -220,97 -152,-3 -237,-81 -321,-158 -60,-55 -119,-109 -174,-106 -79,3 -118,147 -126,207z"/>
 </g>
</svg>
