<?xml version="1.0" encoding="UTF-8"?>
<!DOCTYPE svg PUBLIC "-//W3C//DTD SVG 1.1//EN" "http://www.w3.org/Graphics/SVG/1.1/DTD/svg11.dtd">
<!-- Creator: CorelDRAW 2020 (64-Bit) -->
<svg xmlns="http://www.w3.org/2000/svg" xml:space="preserve" width="428px" height="655px" version="1.1" style="shape-rendering:geometricPrecision; text-rendering:geometricPrecision; image-rendering:optimizeQuality; fill-rule:evenodd; clip-rule:evenodd"
viewBox="0 0 428 655"
 xmlns:xlink="http://www.w3.org/1999/xlink"
 xmlns:xodm="http://www.corel.com/coreldraw/odm/2003">
 <defs>
  <style type="text/css">
   <![CDATA[
    .fil0 {fill:#2B2A29;fill-rule:nonzero}
   ]]>
  </style>
 </defs>
 <g id="Layer_x0020_1">
  <metadata id="CorelCorpID_0Corel-Layer"/>
  <path class="fil0" d="M57.97 655c-9.995,0 -20.788,-2.282 -29.984,-5.117 -13.909,-4.286 -27.986,-14.906 -27.986,-28.033 0,-4.895 1.813,-10.206 7.996,-16.019l296.068 -278.331 -296.068 -278.553c-6.181,-5.816 -7.996,-10.901 -7.996,-16.909 0,-12.014 13.175,-22.885 27.986,-27.144 9.182,-2.639 19.989,-4.894 29.984,-4.894 18.212,0 36.733,5.268 48.197,16.019l313.837 294.35c5.16,4.839 7.996,11.124 7.996,17.131 0,6.008 -2.255,10.616 -7.996,16.019l-313.837 295.463c-11.33,10.666 -29.985,16.018 -48.197,16.018z"/>
 </g>
</svg>
