<?xml version="1.0" encoding="UTF-8"?>
<!DOCTYPE svg PUBLIC "-//W3C//DTD SVG 1.1//EN" "http://www.w3.org/Graphics/SVG/1.1/DTD/svg11.dtd">
<!-- Creator: CorelDRAW 2020 (64-Bit) -->
<svg xmlns="http://www.w3.org/2000/svg" xml:space="preserve" width="317.5mm" height="371.741mm" version="1.1" style="shape-rendering:geometricPrecision; text-rendering:geometricPrecision; image-rendering:optimizeQuality; fill-rule:evenodd; clip-rule:evenodd"
viewBox="0 0 31749.96 37174.09"
 xmlns:xlink="http://www.w3.org/1999/xlink"
 xmlns:xodm="http://www.corel.com/coreldraw/odm/2003">
 <defs>
  <style type="text/css">
   <![CDATA[
    .fil0 {fill:#2B2A29;fill-rule:nonzero}
   ]]>
  </style>
 </defs>
 <g id="Layer_x0020_1">
  <metadata id="CorelCorpID_0Corel-Layer"/>
  <g id="_1255830954224">
   <path class="fil0" d="M8298.26 36549.85l19251.58 -35191.11c77.46,-141.59 198.25,-325.05 198.25,-487.29 0,-562.14 -781.52,-871.48 -1570.87,-871.44 -636.57,0.03 -1285.52,198.38 -1521.82,630.33l-19265.25 35216.09c-70.47,128.84 -190.45,317.32 -190.45,462.32 0,563.45 810.47,865.05 1613.3,865.2 627.59,0.12 1254.56,-202.39 1485.26,-624.1z"/>
   <path class="fil0" d="M25876.21 37174.09c3016.25,0 5873.75,-1828.57 5873.75,-5109.4 0,-1905 -1005.42,-3463.1 -2728.15,-4309.77 1375.83,-799.63 2251.9,-2093.15 2251.9,-3710.05 0,-3316.29 -3024.34,-4801.64 -5956.07,-4786.02 -1481.82,7.89 -3018.57,444.26 -4151.02,1452.27 -1007.72,896.99 -1511.09,2116.68 -1511.06,3416.07 0,136.92 4.44,286.33 16.6,415.86 61.78,658.2 885.12,748.3 1441.55,748.3 475.95,0 1375.83,-211.66 1375.83,-770.23l0 -288.1c0,-876.06 227.83,-1752.19 764.35,-2410.65 498.35,-611.61 1193.57,-976.02 1987.32,-976.02 1887.05,0 3227.92,1300.98 3227.92,3198.52 0,1553.07 -1072.58,2712.94 -2572.81,2960.55 -303.65,50.12 -602.13,67.71 -919.69,85.1 -452.67,24.79 -1322.92,235.19 -1322.92,793.75 0,582.08 952.68,806.51 1399.35,793.75l823.15 -23.52c1880.19,-53.72 3069.17,1614.61 3069.17,3410.19 0,1775.65 -1140.65,3521.9 -3069.17,3521.9 -2116.67,0 -3416.07,-1458.15 -3416.07,-3545.42 0,-582.08 -952.5,-793.75 -1399.35,-793.75 -452.73,0 -1405.23,211.67 -1405.23,793.75 0,3516.02 3045.65,5132.92 6220.65,5132.92z"/>
   <path class="fil0" d="M10530.42 17597.77c423.33,0 1375.83,-211.67 1375.83,-793.75 0,-558.57 -952.51,-770.24 -1375.83,-770.24l-7725.84 0c52.92,-870.18 208.93,-1824.3 664.4,-2592.91 579.34,-977.64 1667.04,-1445.94 2645.84,-1928.52 1133.76,-558.99 2418.54,-1204.03 3499.67,-2019.32 1347.67,-1016.29 2374.08,-2307 2374.08,-4071.98 0,-1136.54 -403.65,-2262.29 -1149.48,-3122.31 -1134.76,-1308.5 -2957.29,-1981.21 -4777.19,-1981.21 -1193.57,0 -2409.69,213.42 -3468.98,793.75 -1398.4,766.11 -2510.61,2457.69 -2510.61,4098.11 0,158.75 -6.13,347.93 23.52,505.64 99.73,530.35 928.98,687.92 1405.23,687.92 446.86,0 1375.84,-211.67 1375.84,-770.23l0 -235.19c0,-1087.73 379.4,-2210.92 1270,-2910.41 561.85,-441.29 1187.68,-611.48 1905,-611.48 1016.57,0 1879.61,539.66 2439.36,1315.31 482.52,668.62 687.06,1318.1 674.26,2132.34 -18.75,1192.25 -534.42,2091.57 -1295.44,2818.61 -978.3,934.63 -2362.16,1584.62 -3617.35,2206.28 -1359.59,673.37 -2637.89,1231.31 -3439.58,2592.92 -680.08,1155.07 -823.15,2563.52 -823.15,3862.92 0,582.08 952.5,793.75 1375.83,793.75l9154.59 0z"/>
  </g>
 </g>
</svg>
