<?xml version="1.0" encoding="UTF-8"?>
<!DOCTYPE svg PUBLIC "-//W3C//DTD SVG 1.1//EN" "http://www.w3.org/Graphics/SVG/1.1/DTD/svg11.dtd">
<!-- Creator: CorelDRAW 2020 (64-Bit) -->
<svg xmlns="http://www.w3.org/2000/svg" xml:space="preserve" width="1107px" height="1405px" version="1.1" style="shape-rendering:geometricPrecision; text-rendering:geometricPrecision; image-rendering:optimizeQuality; fill-rule:evenodd; clip-rule:evenodd"
viewBox="0 0 1107 1405"
 xmlns:xlink="http://www.w3.org/1999/xlink"
 xmlns:xodm="http://www.corel.com/coreldraw/odm/2003">
 <defs>
  <style type="text/css">
   <![CDATA[
    .fil0 {fill:#2B2A29;fill-rule:nonzero}
   ]]>
  </style>
 </defs>
 <g id="Layer_x0020_1">
  <metadata id="CorelCorpID_0Corel-Layer"/>
  <path class="fil0" d="M194.5 1381.412l727.619 -1330.058c2.928,-5.351 7.493,-12.285 7.493,-18.417 0,-21.247 -29.538,-32.938 -59.372,-32.937 -24.059,0.002 -48.586,7.498 -57.517,23.824l-728.136 1331.002c-2.663,4.87 -7.198,11.993 -7.198,17.474 0,21.295 30.632,32.694 60.975,32.7 23.72,0.005 47.417,-7.649 56.136,-23.588zm-128.26 -1164.523c27.035,-3.526 53.111,-10.001 77.111,-24.889l0 455.112c0,21.999 36,30 52.889,30 17.111,0 53.111,-8 53.111,-30l0 -617.112c0,-22 -36,-30 -53.111,-30 -18.889,0 -50.858,8.005 -54,30 -4.858,34.004 -17.949,66.934 -40.889,92.889 -15.949,18.045 -37.944,33.454 -61.111,37.111 -14.839,2.343 -43.131,12.004 -40,30.889 3.979,24.003 47.018,28.476 66,26zm985.649 1176.111c16,0 52,-8 52,-30 0,-21.111 -36,-29.111 -52,-29.111l-292 0c2,-32.889 7.896,-68.95 25.111,-98 21.896,-36.95 63.006,-54.65 100,-72.889 42.851,-21.127 91.41,-45.507 132.271,-76.321 50.936,-38.411 89.729,-87.193 89.729,-153.901 0,-42.956 -15.256,-85.504 -43.445,-118.009 -42.888,-49.455 -111.771,-74.88 -180.555,-74.88 -45.111,0 -91.075,8.066 -131.111,30 -52.853,28.955 -94.889,92.889 -94.889,154.889 0,6 -0.232,13.15 0.889,19.111 3.769,20.044 35.111,26 53.111,26 16.889,0 52,-8 52,-29.111l0 -8.889c0,-41.111 14.34,-83.563 48,-110 21.235,-16.679 44.889,-23.111 72,-23.111 38.422,0 71.041,20.396 92.196,49.712 18.237,25.271 25.968,49.818 25.484,80.593 -0.708,45.061 -20.198,79.051 -48.961,106.53 -36.975,35.325 -89.279,59.891 -136.719,83.387 -51.386,25.45 -99.7,46.538 -130,98 -25.704,43.656 -31.111,96.889 -31.111,146 0,22 36,30 52,30l346 0z"/>
 </g>
</svg>
