<?xml version="1.0" encoding="UTF-8"?>
<!DOCTYPE svg PUBLIC "-//W3C//DTD SVG 1.1//EN" "http://www.w3.org/Graphics/SVG/1.1/DTD/svg11.dtd">
<!-- Creator: CorelDRAW 2020 (64-Bit) -->
<svg xmlns="http://www.w3.org/2000/svg" xml:space="preserve" width="282.575mm" height="371.741mm" version="1.1" style="shape-rendering:geometricPrecision; text-rendering:geometricPrecision; image-rendering:optimizeQuality; fill-rule:evenodd; clip-rule:evenodd"
viewBox="0 0 28257.5 37174.09"
 xmlns:xlink="http://www.w3.org/1999/xlink"
 xmlns:xodm="http://www.corel.com/coreldraw/odm/2003">
 <defs>
  <style type="text/css">
   <![CDATA[
    .fil0 {fill:#2B2A29;fill-rule:nonzero}
   ]]>
  </style>
 </defs>
 <g id="Layer_x0020_1">
  <metadata id="CorelCorpID_0Corel-Layer"/>
  <g id="_1255415978336">
   <path class="fil0" d="M1752.6 5738.54c715.3,-93.3 1405.23,-264.6 2040.23,-658.52l0 12041.49c0,582.07 952.5,793.75 1399.35,793.75 452.74,0 1405.24,-211.67 1405.24,-793.75l0 -16327.75c0,-582.08 -952.5,-793.75 -1405.24,-793.75 -499.77,0 -1345.62,211.79 -1428.75,793.75 -128.53,899.7 -474.9,1770.97 -1081.85,2457.69 -421.98,477.44 -1003.93,885.12 -1616.9,981.9 -392.6,61.99 -1141.17,317.59 -1058.33,817.27 105.29,635.08 1244.01,753.41 1746.25,687.91z"/>
   <path class="fil0" d="M4807.37 36549.85l19251.58 -35191.11c77.46,-141.59 198.25,-325.05 198.25,-487.29 0,-562.14 -781.52,-871.48 -1570.87,-871.44 -636.57,0.03 -1285.52,198.38 -1521.82,630.33l-19265.25 35216.09c-70.47,128.84 -190.45,317.32 -190.45,462.32 0,563.45 810.47,865.05 1613.3,865.2 627.59,0.12 1254.56,-202.39 1485.26,-624.1z"/>
   <path class="fil0" d="M22383.75 37174.09c3016.25,0 5873.75,-1828.57 5873.75,-5109.4 0,-1905 -1005.42,-3463.1 -2728.15,-4309.77 1375.83,-799.63 2251.9,-2093.15 2251.9,-3710.05 0,-3316.29 -3024.34,-4801.64 -5956.07,-4786.02 -1481.82,7.89 -3018.57,444.26 -4151.02,1452.27 -1007.72,896.99 -1511.09,2116.68 -1511.06,3416.07 0,136.92 4.44,286.33 16.6,415.86 61.78,658.2 885.12,748.3 1441.55,748.3 475.95,0 1375.83,-211.66 1375.83,-770.23l0 -288.1c0,-876.06 227.83,-1752.19 764.35,-2410.65 498.35,-611.61 1193.57,-976.02 1987.32,-976.02 1887.05,0 3227.92,1300.98 3227.92,3198.52 0,1553.07 -1072.58,2712.94 -2572.81,2960.55 -303.65,50.12 -602.13,67.71 -919.69,85.1 -452.67,24.79 -1322.92,235.19 -1322.92,793.75 0,582.08 952.68,806.51 1399.35,793.75l823.15 -23.52c1880.19,-53.72 3069.17,1614.61 3069.17,3410.19 0,1775.65 -1140.65,3521.9 -3069.17,3521.9 -2116.67,0 -3416.07,-1458.15 -3416.07,-3545.42 0,-582.08 -952.5,-793.75 -1399.35,-793.75 -452.73,0 -1405.23,211.67 -1405.23,793.75 0,3516.02 3045.65,5132.92 6220.65,5132.92z"/>
  </g>
 </g>
</svg>
