<?xml version="1.0" encoding="UTF-8"?>
<!DOCTYPE svg PUBLIC "-//W3C//DTD SVG 1.1//EN" "http://www.w3.org/Graphics/SVG/1.1/DTD/svg11.dtd">
<!-- Creator: CorelDRAW 2020 (64-Bit) -->
<svg xmlns="http://www.w3.org/2000/svg" xml:space="preserve" width="283.104mm" height="371.739mm" version="1.1" style="shape-rendering:geometricPrecision; text-rendering:geometricPrecision; image-rendering:optimizeQuality; fill-rule:evenodd; clip-rule:evenodd"
viewBox="0 0 28310.4 37173.94"
 xmlns:xlink="http://www.w3.org/1999/xlink"
 xmlns:xodm="http://www.corel.com/coreldraw/odm/2003">
 <defs>
  <style type="text/css">
   <![CDATA[
    .fil0 {fill:#E31E24;fill-rule:nonzero}
   ]]>
  </style>
 </defs>
 <g id="Layer_x0020_1">
  <metadata id="CorelCorpID_0Corel-Layer"/>
  <path class="fil0" d="M1752.6 5738.51c715.3,-93.3 1405.23,-264.6 2040.23,-658.52l0 12041.49c0,582.07 952.5,793.75 1399.35,793.75 452.74,0 1405.24,-211.67 1405.24,-793.75l0 -16327.74c0,-582.08 -952.5,-793.75 -1405.24,-793.75 -499.77,0 -1345.62,211.79 -1428.75,793.75 -128.53,899.7 -474.9,1770.97 -1081.85,2457.69 -421.98,477.44 -1003.93,885.12 -1616.9,981.9 -392.6,61.99 -1141.17,317.59 -1058.33,817.27 105.29,635.08 1244.01,753.41 1746.25,687.91z"/>
  <path class="fil0" d="M5979.57 36549.83l19251.57 -35191.1c77.46,-141.59 198.25,-325.05 198.25,-487.29 0,-562.14 -781.52,-871.48 -1570.87,-871.44 -636.57,0.03 -1285.52,198.38 -1521.82,630.33l-19265.24 35216.08c-70.47,128.84 -190.45,317.32 -190.45,462.32 0,563.45 810.47,865.05 1613.3,865.2 627.59,0.12 1254.56,-202.39 1485.26,-624.1z"/>
  <path class="fil0" d="M25235.37 36380.19l0 -3733.57 1669.81 0c452.73,0 1405.23,-182.27 1405.23,-793.75 0,-582.08 -952.51,-764.35 -1405.23,-764.35l-1669.81 0 0 -11036.07c0,-582.08 -952.5,-793.75 -1399.35,-793.75 -476.25,0 -1085.53,160.26 -1352.32,552.69l-7990.42 11753.38c-52.25,76.86 -105.83,182.27 -105.83,288.1 0,611.48 952.5,793.75 1405.23,793.75l6614.59 0 0 3733.57c0,582.07 952.5,793.75 1428.75,793.75 446.85,0 1399.35,-211.67 1399.35,-793.75zm-8278.52 -5291.67l5450.42 -8125.65 0 8125.65 -5450.42 0z"/>
 </g>
</svg>
