<?xml version="1.0" encoding="UTF-8"?>
<!DOCTYPE svg PUBLIC "-//W3C//DTD SVG 1.1//EN" "http://www.w3.org/Graphics/SVG/1.1/DTD/svg11.dtd">
<!-- Creator: CorelDRAW 2020 (64-Bit) -->
<svg xmlns="http://www.w3.org/2000/svg" xml:space="preserve" width="288.414mm" height="371.899mm" version="1.1" style="shape-rendering:geometricPrecision; text-rendering:geometricPrecision; image-rendering:optimizeQuality; fill-rule:evenodd; clip-rule:evenodd"
viewBox="0 0 28841.4 37189.86"
 xmlns:xlink="http://www.w3.org/1999/xlink"
 xmlns:xodm="http://www.corel.com/coreldraw/odm/2003">
 <defs>
  <style type="text/css">
   <![CDATA[
    .fil0 {fill:#2B2A29;fill-rule:nonzero}
   ]]>
  </style>
 </defs>
 <g id="Layer_x0020_1">
  <metadata id="CorelCorpID_0Corel-Layer"/>
  <g id="_1255297721904">
   <path class="fil0" d="M28371.78 23931.85c0,-3171.76 -3004.07,-4680.73 -5827.46,-4680.73 -2823.39,0 -5827.46,1508.97 -5827.46,4680.73 0,1726.43 901.79,3054.79 2395.33,3862.52 -1756.17,845.49 -2864.95,2332.64 -2864.95,4325.01 0,3428.87 3241.05,5070.48 6297.08,5070.48 3056.04,0 6297.08,-1641.6 6297.08,-5070.48 0,-1992.38 -1108.78,-3479.51 -2864.95,-4325.01 1493.54,-807.73 2395.33,-2136.09 2395.33,-3862.52zm-2820.08 0c0,1762.48 -1224.58,3099.16 -3007.38,3099.16 -1782.8,0 -3007.38,-1336.67 -3007.38,-3099.16 0,-1762.48 1224.58,-3099.16 3007.38,-3099.16 1782.8,0 3007.38,1336.68 3007.38,3099.16zm469.62 8187.53c0,2033.07 -1448.69,3488.91 -3477,3488.91 -2028.31,0 -3477,-1455.84 -3477,-3488.91 0,-2033.07 1448.69,-3488.89 3477,-3488.89 2028.31,0 3477,1455.82 3477,3488.89z"/>
   <path class="fil0" d="M5344.58 17280.23c452.74,0 1399.52,-188.41 1428.75,-770.24 146.38,-2913.1 598.86,-5837.07 1640.42,-8572.5 957.48,-2514.57 2304.15,-4710.13 3998.15,-6802.73 105.15,-129.89 158.75,-264.58 158.75,-370.41 0,-257.6 -228.07,-444.2 -511.41,-568.5 -305.97,-134.23 -676.46,-195.86 -893.82,-195.86l-9760.19 0c-452.72,0 -1405.23,182.27 -1405.23,793.75 0,582.09 952.5,764.36 1405.23,764.36l7643.52 0c-1375.83,1881.48 -2544.97,3890.45 -3357.27,6061.89 -943.86,2523.11 -1693.33,6164.44 -1693.33,8866.49 0,593.84 881.59,793.75 1346.43,793.75z"/>
   <path class="fil0" d="M4858.73 36549.88l19251.56 -35191.09c77.46,-141.59 198.25,-325.05 198.25,-487.29 0,-562.14 -781.52,-871.48 -1570.87,-871.44 -636.57,0.03 -1285.52,198.38 -1521.82,630.33l-19265.23 35216.07c-70.47,128.84 -190.45,317.32 -190.45,462.32 0,563.45 810.47,865.05 1613.3,865.2 627.59,0.12 1254.56,-202.39 1485.26,-624.1z"/>
  </g>
 </g>
</svg>
