<?xml version="1.0" encoding="UTF-8"?>
<!DOCTYPE svg PUBLIC "-//W3C//DTD SVG 1.1//EN" "http://www.w3.org/Graphics/SVG/1.1/DTD/svg11.dtd">
<!-- Creator: CorelDRAW 2020 (64-Bit) -->
<svg xmlns="http://www.w3.org/2000/svg" xml:space="preserve" width="287.867mm" height="371.74mm" version="1.1" style="shape-rendering:geometricPrecision; text-rendering:geometricPrecision; image-rendering:optimizeQuality; fill-rule:evenodd; clip-rule:evenodd"
viewBox="0 0 28786.66 37173.95"
 xmlns:xlink="http://www.w3.org/1999/xlink"
 xmlns:xodm="http://www.corel.com/coreldraw/odm/2003">
 <defs>
  <style type="text/css">
   <![CDATA[
    .fil0 {fill:#2B2A29;fill-rule:nonzero}
   ]]>
  </style>
 </defs>
 <g id="Layer_x0020_1">
  <metadata id="CorelCorpID_0Corel-Layer"/>
  <g id="_1218366670112">
   <path class="fil0" d="M28317.02 23935.48c0,-3167.08 -3004.06,-4673.83 -5827.45,-4673.83 -2823.39,0 -5827.45,1506.75 -5827.45,4673.83 0,1723.88 901.79,3050.29 2395.32,3856.82 -1756.17,844.25 -2864.95,2329.21 -2864.95,4318.64 0,3423.81 3241.05,5063.01 6297.08,5063.01 3056.04,0 6297.08,-1639.19 6297.08,-5063.01 0,-1989.44 -1108.78,-3474.38 -2864.95,-4318.64 1493.53,-806.53 2395.32,-2132.94 2395.32,-3856.82zm-2820.08 0c0,1759.88 -1224.57,3094.6 -3007.37,3094.6 -1782.8,0 -3007.37,-1334.71 -3007.37,-3094.6 0,-1759.88 1224.57,-3094.58 3007.37,-3094.58 1782.8,0 3007.37,1334.7 3007.37,3094.58zm469.63 8175.46c0,2030.07 -1448.69,3483.76 -3477,3483.76 -2028.31,0 -3477,-1453.69 -3477,-3483.76 0,-2030.07 1448.69,-3483.75 3477,-3483.75 2028.31,0 3477,1453.68 3477,3483.75z"/>
   <path class="fil0" d="M4806.46 36549.84l19251.57 -35191.1c77.46,-141.59 198.25,-325.05 198.25,-487.29 0,-562.14 -781.52,-871.48 -1570.87,-871.44 -636.57,0.03 -1285.52,198.38 -1521.82,630.33l-19265.24 35216.08c-70.47,128.84 -190.45,317.32 -190.45,462.32 0,563.45 810.47,865.05 1613.3,865.2 627.59,0.12 1254.56,-202.39 1485.26,-624.1z"/>
   <path class="fil0" d="M1752.6 5738.52c715.3,-93.3 1405.23,-264.6 2040.23,-658.52l0 12041.49c0,582.07 952.5,793.75 1399.35,793.75 452.74,0 1405.24,-211.67 1405.24,-793.75l0 -16327.74c0,-582.08 -952.5,-793.75 -1405.24,-793.75 -499.77,0 -1345.62,211.79 -1428.75,793.75 -128.53,899.7 -474.9,1770.97 -1081.85,2457.69 -421.98,477.44 -1003.93,885.12 -1616.9,981.9 -392.6,61.99 -1141.17,317.59 -1058.33,817.27 105.29,635.08 1244.01,753.41 1746.25,687.91z"/>
  </g>
 </g>
</svg>
