<?xml version="1.0" encoding="UTF-8"?>
<!DOCTYPE svg PUBLIC "-//W3C//DTD SVG 1.1//EN" "http://www.w3.org/Graphics/SVG/1.1/DTD/svg11.dtd">
<!-- Creator: CorelDRAW 2020 (64-Bit) -->
<svg xmlns="http://www.w3.org/2000/svg" xml:space="preserve" width="1090px" height="1406px" version="1.1" style="shape-rendering:geometricPrecision; text-rendering:geometricPrecision; image-rendering:optimizeQuality; fill-rule:evenodd; clip-rule:evenodd"
viewBox="0 0 1090 1405.512"
 xmlns:xlink="http://www.w3.org/1999/xlink"
 xmlns:xodm="http://www.corel.com/coreldraw/odm/2003">
 <defs>
  <style type="text/css">
   <![CDATA[
    .fil0 {fill:#2B2A29;fill-rule:nonzero}
   ]]>
  </style>
 </defs>
 <g id="Layer_x0020_1">
  <metadata id="CorelCorpID_0Corel-Layer"/>
  <g id="_1263938097664">
   <path class="fil0" d="M1072.251 904.454c0,-119.87 -113.532,-176.899 -220.236,-176.899 -106.704,0 -220.237,57.029 -220.237,176.899 0,65.246 34.082,115.449 90.527,145.975 -66.371,31.954 -108.275,88.158 -108.275,163.455 0,129.587 122.489,191.628 237.985,191.628 115.496,0 237.985,-62.041 237.985,-191.628 0,-75.298 -41.904,-131.501 -108.275,-163.455 56.445,-30.526 90.526,-80.729 90.526,-145.975zm-106.579 0c0,66.609 -46.28,117.126 -113.657,117.126 -67.377,0 -113.658,-50.517 -113.658,-117.126 0,-66.61 46.281,-117.127 113.658,-117.127 67.377,0 113.657,50.517 113.657,117.127zm17.749 309.43c0,76.835 -54.75,131.856 -131.406,131.856 -76.656,0 -131.406,-55.021 -131.406,-131.856 0,-76.836 54.75,-131.855 131.406,-131.855 76.656,0 131.406,55.019 131.406,131.855z"/>
   <path class="fil0" d="M201.987 653.07c17.11,0 52.892,-7.121 53.997,-29.11 5.532,-110.094 22.632,-220.599 61.996,-323.979 36.186,-95.033 87.08,-178.009 151.101,-257.095 3.974,-4.909 6,-9.999 6,-13.999 0,-9.735 -8.619,-16.787 -19.328,-21.485 -11.563,-5.073 -25.565,-7.402 -33.78,-7.402l-368.865 0c-17.11,0 -53.108,6.889 -53.108,29.998 0,21.999 35.998,28.887 53.108,28.887l288.87 0c-51.996,71.107 -96.181,147.032 -126.881,229.097 -35.671,95.355 -63.995,232.972 -63.995,335.09 0,22.443 33.317,29.998 50.885,29.998z"/>
   <path class="fil0" d="M183.625 1381.325l727.572 -1329.972c2.928,-5.352 7.493,-12.285 7.493,-18.417 0,-21.244 -29.536,-32.935 -59.368,-32.934 -24.058,0.001 -48.583,7.498 -57.514,23.822l-728.088 1330.917c-2.664,4.869 -7.198,11.992 -7.198,17.472 0,21.295 30.63,32.693 60.971,32.699 23.719,0.004 47.414,-7.649 56.132,-23.587z"/>
  </g>
 </g>
</svg>
