<?xml version="1.0" encoding="UTF-8"?>
<!DOCTYPE svg PUBLIC "-//W3C//DTD SVG 1.1//EN" "http://www.w3.org/Graphics/SVG/1.1/DTD/svg11.dtd">
<!-- Creator: CorelDRAW 2020 (64-Bit) -->
<svg xmlns="http://www.w3.org/2000/svg" xml:space="preserve" width="315.812mm" height="371.766mm" version="1.1" style="shape-rendering:geometricPrecision; text-rendering:geometricPrecision; image-rendering:optimizeQuality; fill-rule:evenodd; clip-rule:evenodd"
viewBox="0 0 31581.24 37176.61"
 xmlns:xlink="http://www.w3.org/1999/xlink"
 xmlns:xodm="http://www.corel.com/coreldraw/odm/2003">
 <defs>
  <style type="text/css">
   <![CDATA[
    .fil0 {fill:#2B2A29;fill-rule:nonzero}
   ]]>
  </style>
 </defs>
 <g id="Layer_x0020_1">
  <metadata id="CorelCorpID_0Corel-Layer"/>
  <g id="_1255423015904">
   <path class="fil0" d="M31111.61 23938.15c0,-3167.09 -3004.06,-4673.84 -5827.45,-4673.84 -2823.39,0 -5827.45,1506.75 -5827.45,4673.84 0,1723.87 901.79,3050.28 2395.32,3856.81 -1756.17,844.25 -2864.95,2329.21 -2864.95,4318.64 0,3423.81 3241.05,5063.01 6297.08,5063.01 3056.04,0 6297.08,-1639.19 6297.08,-5063.01 0,-1989.44 -1108.78,-3474.38 -2864.95,-4318.64 1493.53,-806.53 2395.32,-2132.94 2395.32,-3856.81zm-2820.08 0c0,1759.87 -1224.57,3094.59 -3007.37,3094.59 -1782.8,0 -3007.37,-1334.71 -3007.37,-3094.59 0,-1759.88 1224.57,-3094.59 3007.37,-3094.59 1782.8,0 3007.37,1334.71 3007.37,3094.59zm469.63 8175.45c0,2030.07 -1448.69,3483.76 -3477,3483.76 -2028.31,0 -3477,-1453.69 -3477,-3483.76 0,-2030.07 1448.69,-3483.75 3477,-3483.75 2028.31,0 3477,1453.68 3477,3483.75z"/>
   <path class="fil0" d="M12176.6 11988.59c0,-3588.69 -2790.5,-5615.05 -6167.73,-5615.05 -770.24,0 -1616.9,135.23 -2357.73,370.42l635 -4868.33 5956.07 0c423.33,0 1375.83,-182.27 1375.83,-764.36 0,-611.48 -952.52,-793.75 -1375.83,-793.75l-7226.07 0c-476.23,0 -1325.97,181.88 -1399.35,740.84l-1054.96 8034.84c-13.36,101.8 -37.69,245.2 -37.81,346.2 -0.77,614.96 1004.36,720.62 1516.1,720.62 499.77,0 929.06,-154.91 1270,-687.91 588.05,-919.29 1587.5,-1534.59 2698.75,-1534.59 2191.34,0 3386.67,2064.51 3386.67,4051.07 0,2010.5 -1178.48,4045.18 -3386.67,4045.18 -1611.02,0 -2903.99,-1318.81 -3257.31,-2828.1 -123,-525.42 -899.59,-687.91 -1399.36,-687.91 -423.33,0 -1352.2,201.71 -1352.2,730.88 0,322.17 399.68,1228.09 559.18,1511.98 1062.07,1890.32 3210.34,2837.14 5449.69,2837.14 3362.29,0 6167.73,-2059 6167.73,-5609.17z"/>
   <path class="fil0" d="M7598.55 36549.85l19251.58 -35191.11c77.46,-141.59 198.25,-325.05 198.25,-487.29 0,-562.14 -781.52,-871.48 -1570.87,-871.44 -636.57,0.03 -1285.52,198.38 -1521.82,630.33l-19265.25 35216.09c-70.47,128.84 -190.45,317.32 -190.45,462.32 0,563.45 810.47,865.05 1613.3,865.2 627.59,0.12 1254.56,-202.39 1485.26,-624.1z"/>
  </g>
 </g>
</svg>
