<?xml version="1.0" encoding="UTF-8"?>
<!DOCTYPE svg PUBLIC "-//W3C//DTD SVG 1.1//EN" "http://www.w3.org/Graphics/SVG/1.1/DTD/svg11.dtd">
<!-- Creator: CorelDRAW 2020 (64-Bit) -->
<svg xmlns="http://www.w3.org/2000/svg" xml:space="preserve" width="1200px" height="1405px" version="1.1" style="shape-rendering:geometricPrecision; text-rendering:geometricPrecision; image-rendering:optimizeQuality; fill-rule:evenodd; clip-rule:evenodd"
viewBox="0 0 1200 1405.007"
 xmlns:xlink="http://www.w3.org/1999/xlink"
 xmlns:xodm="http://www.corel.com/coreldraw/odm/2003">
 <defs>
  <style type="text/css">
   <![CDATA[
    .fil0 {fill:#2B2A29;fill-rule:nonzero}
   ]]>
  </style>
 </defs>
 <g id="Layer_x0020_1">
  <metadata id="CorelCorpID_0Corel-Layer"/>
  <g id="_1264050205440">
   <path class="fil0" d="M313.636 1381.414l727.619 -1330.06c2.928,-5.351 7.493,-12.285 7.493,-18.417 0,-21.247 -29.538,-32.938 -59.371,-32.937 -24.06,0.002 -48.587,7.498 -57.518,23.824l-728.136 1331.004c-2.664,4.869 -7.199,11.993 -7.199,17.473 0,21.296 30.632,32.695 60.976,32.701 23.72,0.004 47.416,-7.649 56.136,-23.588z"/>
   <path class="fil0" d="M978 1405.007c114,0 222,-69.111 222,-193.111 0,-72 -38,-130.889 -103.111,-162.89 52,-30.222 85.111,-79.111 85.111,-140.222 0,-125.341 -114.306,-181.48 -225.111,-180.889 -56.006,0.298 -114.088,16.791 -156.89,54.889 -38.087,33.902 -57.112,80 -57.111,129.111 0,5.175 0.168,10.822 0.628,15.718 2.335,24.877 33.453,28.282 54.484,28.282 17.988,0 52,-8 52,-29.111l0 -10.889c0,-33.111 8.611,-66.225 28.888,-91.111 18.836,-23.116 45.112,-36.889 75.112,-36.889 71.322,0 122,49.171 122,120.889 0,58.699 -40.538,102.536 -97.24,111.895 -11.477,1.894 -22.758,2.559 -34.76,3.216 -17.109,0.937 -50,8.889 -50,30 0,22 36.007,30.483 52.889,30l31.111 -0.889c71.062,-2.03 116,61.025 116,128.89 0,67.111 -43.111,133.111 -116,133.111 -80,0 -129.112,-55.111 -129.112,-134 0,-22 -36,-30 -52.889,-30 -17.111,0 -53.111,8 -53.111,30 0,132.889 115.112,194 235.112,194z"/>
   <path class="fil0" d="M398.001 665.113c16,0 52,-8 52,-30 0,-21.111 -36.001,-29.111 -52,-29.111l-292.001 0c2,-32.889 7.897,-68.95 25.111,-98 21.897,-36.95 63.007,-54.65 100.001,-72.889 42.851,-21.127 91.409,-45.507 132.271,-76.321 50.936,-38.411 89.729,-87.194 89.729,-153.902 0,-42.956 -15.256,-85.504 -43.445,-118.009 -42.888,-49.455 -111.772,-74.88 -180.555,-74.88 -45.112,0 -91.075,8.066 -131.112,30 -52.853,28.955 -94.889,92.889 -94.889,154.889 0,6 -0.232,13.15 0.889,19.111 3.769,20.045 35.111,26 53.111,26 16.889,0 52,-8 52,-29.111l0 -8.889c0,-41.111 14.34,-83.562 48,-110 21.236,-16.679 44.889,-23.111 72.001,-23.111 38.421,0 71.04,20.397 92.196,49.713 18.237,25.27 25.968,49.818 25.484,80.592 -0.709,45.062 -20.199,79.052 -48.962,106.531 -36.975,35.324 -89.278,59.891 -136.719,83.387 -51.386,25.45 -99.7,46.537 -130,98 -25.704,43.656 -31.111,96.889 -31.111,146 0,22 36,30 52,30l346.001 0z"/>
  </g>
 </g>
</svg>
