<?xml version="1.0" encoding="UTF-8"?>
<!DOCTYPE svg PUBLIC "-//W3C//DTD SVG 1.1//EN" "http://www.w3.org/Graphics/SVG/1.1/DTD/svg11.dtd">
<!-- Creator: CorelDRAW 2020 (64-Bit) -->
<svg xmlns="http://www.w3.org/2000/svg" xml:space="preserve" width="1088px" height="1405px" version="1.1" style="shape-rendering:geometricPrecision; text-rendering:geometricPrecision; image-rendering:optimizeQuality; fill-rule:evenodd; clip-rule:evenodd"
viewBox="0 0 1088 1405"
 xmlns:xlink="http://www.w3.org/1999/xlink"
 xmlns:xodm="http://www.corel.com/coreldraw/odm/2003">
 <defs>
  <style type="text/css">
   <![CDATA[
    .fil0 {fill:#2B2A29;fill-rule:nonzero}
   ]]>
  </style>
 </defs>
 <g id="Layer_x0020_1">
  <metadata id="CorelCorpID_0Corel-Layer"/>
  <g id="_1258248947552">
   <path class="fil0" d="M1070.25 904.648c0,-119.7 -113.539,-176.648 -220.25,-176.648 -106.711,0 -220.25,56.948 -220.25,176.648 0,65.155 34.083,115.287 90.531,145.77 -66.375,31.909 -108.281,88.033 -108.281,163.224 0,129.404 122.496,191.358 238,191.358 115.504,0 238,-61.954 238,-191.358 0,-75.191 -41.907,-131.315 -108.282,-163.224 56.448,-30.483 90.532,-80.615 90.532,-145.77zm-106.586 0c0,66.515 -46.283,116.962 -113.664,116.962 -67.382,0 -113.665,-50.446 -113.665,-116.962 0,-66.515 46.283,-116.96 113.665,-116.96 67.381,0 113.664,50.445 113.664,116.96zm17.75 308.994c0,76.727 -54.754,131.67 -131.414,131.67 -76.661,0 -131.415,-54.943 -131.415,-131.67 0,-76.727 54.754,-131.669 131.415,-131.669 76.66,0 131.414,54.942 131.414,131.669z"/>
   <path class="fil0" d="M181.662 1381.412l727.618 -1330.058c2.928,-5.351 7.493,-12.285 7.493,-18.417 0,-21.247 -29.538,-32.938 -59.371,-32.937 -24.06,0.002 -48.587,7.498 -57.518,23.824l-728.135 1331.002c-2.664,4.869 -7.198,11.993 -7.198,17.473 0,21.296 30.632,32.695 60.975,32.701 23.72,0.004 47.416,-7.65 56.136,-23.588z"/>
   <path class="fil0" d="M66.24 216.889c27.035,-3.526 53.111,-10.001 77.111,-24.889l0 455.112c0,21.999 36,30 52.889,30 17.111,0 53.111,-8.001 53.111,-30l0 -617.112c0,-22 -36,-30 -53.111,-30 -18.889,0 -50.858,8.005 -54,30 -4.858,34.004 -17.949,66.934 -40.889,92.889 -15.949,18.045 -37.944,33.453 -61.111,37.111 -14.839,2.343 -43.131,12.004 -40,30.889 3.979,24.003 47.018,28.476 66,26z"/>
  </g>
 </g>
</svg>
