<?xml version="1.0" encoding="UTF-8"?>
<!DOCTYPE svg PUBLIC "-//W3C//DTD SVG 1.1//EN" "http://www.w3.org/Graphics/SVG/1.1/DTD/svg11.dtd">
<!-- Creator: CorelDRAW X8 -->
<svg xmlns="http://www.w3.org/2000/svg" xml:space="preserve" width="1287px" height="1405px" version="1.1" style="shape-rendering:geometricPrecision; text-rendering:geometricPrecision; image-rendering:optimizeQuality; fill-rule:evenodd; clip-rule:evenodd"
viewBox="0 0 1287 1405"
 xmlns:xlink="http://www.w3.org/1999/xlink">
 <defs>
  <style type="text/css">
   <![CDATA[
    .fil0 {fill:#CC6633;fill-rule:nonzero}
   ]]>
  </style>
 </defs>
 <g id="Layer_x0020_1">
  <metadata id="CorelCorpID_0Corel-Layer"/>
  <path class="fil0" d="M2 52c-1,-3 -2,-6 -2,-9 0,-20 28,-38 68,-42 6,-1 12,-1 18,-1 40,0 76,14 84,34l497 1185 503 -1196c6,-14 31,-23 59,-23 3,0 7,0 11,0 28,3 47,16 47,29 0,2 0,4 -1,6l-561 1334c-10,24 -48,36 -86,36 -37,0 -74,-12 -83,-34l-554 -1319z"/>
 </g>
</svg>
