<?xml version="1.0" encoding="UTF-8"?>
<!DOCTYPE svg PUBLIC "-//W3C//DTD SVG 1.1//EN" "http://www.w3.org/Graphics/SVG/1.1/DTD/svg11.dtd">
<!-- Creator: CorelDRAW X8 -->
<svg xmlns="http://www.w3.org/2000/svg" xml:space="preserve" width="1551px" height="1024px" version="1.1" style="shape-rendering:geometricPrecision; text-rendering:geometricPrecision; image-rendering:optimizeQuality; fill-rule:evenodd; clip-rule:evenodd"
viewBox="0 0 1551 1024"
 xmlns:xlink="http://www.w3.org/1999/xlink">
 <defs>
  <style type="text/css">
   <![CDATA[
    .fil0 {fill:#2B2A29;fill-rule:nonzero}
   ]]>
  </style>
 </defs>
 <g id="Layer_x0020_1">
  <metadata id="CorelCorpID_0Corel-Layer"/>
  <path class="fil0" d="M1084 1024c40,0 80,-13 89,-37l374 -945c2,-6 4,-11 4,-15 0,-22 -44,-27 -59,-27 -25,0 -52,8 -58,24l-312 789 -231 -776c-7,-24 -45,-36 -84,-36 -40,0 -81,13 -88,36l-240 777 -309 -779c-10,-24 -46,-35 -83,-35 -43,0 -87,15 -87,42 0,5 1,9 3,13l371 934c9,24 46,35 84,35 40,0 80,-14 88,-38l231 -750 223 751c7,25 45,37 84,37z"/>
 </g>
</svg>
