<?xml version="1.0" encoding="UTF-8"?>
<!DOCTYPE svg PUBLIC "-//W3C//DTD SVG 1.1//EN" "http://www.w3.org/Graphics/SVG/1.1/DTD/svg11.dtd">
<!-- Creator: CorelDRAW X8 -->
<svg xmlns="http://www.w3.org/2000/svg" xml:space="preserve" width="1551px" height="1024px" version="1.1" style="shape-rendering:geometricPrecision; text-rendering:geometricPrecision; image-rendering:optimizeQuality; fill-rule:evenodd; clip-rule:evenodd"
viewBox="0 0 1551 1024"
 xmlns:xlink="http://www.w3.org/1999/xlink">
 <defs>
  <style type="text/css">
   <![CDATA[
    .fil0 {fill:#CC6633;fill-rule:nonzero}
   ]]>
  </style>
 </defs>
 <g id="Layer_x0020_1">
  <metadata id="CorelCorpID_0Corel-Layer"/>
  <path class="fil0" d="M2 52c-2,-3 -2,-6 -2,-9 0,-20 28,-38 69,-42 6,0 11,0 17,0 40,-1 76,14 84,34l309 779 240 -777c7,-23 48,-36 88,-36 39,0 77,12 84,36l231 776 312 -789c6,-14 31,-24 58,-24 4,0 8,0 11,1 29,2 48,15 48,29 0,1 0,3 -1,5l-377 952c-9,24 -49,37 -89,37 -39,0 -77,-12 -84,-37l-223 -751 -231 750c-8,24 -48,38 -88,38 -38,0 -75,-11 -84,-35l-372 -937z"/>
 </g>
</svg>
