<?xml version="1.0" encoding="UTF-8"?>
<!DOCTYPE svg PUBLIC "-//W3C//DTD SVG 1.1//EN" "http://www.w3.org/Graphics/SVG/1.1/DTD/svg11.dtd">
<!-- Creator: CorelDRAW X8 -->
<svg xmlns="http://www.w3.org/2000/svg" xml:space="preserve" width="1827px" height="1405px" version="1.1" style="shape-rendering:geometricPrecision; text-rendering:geometricPrecision; image-rendering:optimizeQuality; fill-rule:evenodd; clip-rule:evenodd"
viewBox="0 0 1827 1405"
 xmlns:xlink="http://www.w3.org/1999/xlink">
 <defs>
  <style type="text/css">
   <![CDATA[
    .fil0 {fill:#898778;fill-rule:nonzero}
   ]]>
  </style>
 </defs>
 <g id="Layer_x0020_1">
  <metadata id="CorelCorpID_0Corel-Layer"/>
  <path class="fil0" d="M2 53c-12,-34 47,-51 70,-53 29,-2 88,7 99,38l392 1134 290 -1136c7,-27 67,-36 88,-36 40,0 79,13 85,39l294 1132 390 -1146c7,-22 48,-26 68,-25 14,2 56,11 48,34l-453 1334c-8,22 -46,35 -85,37 -41,1 -83,-10 -90,-37l-285 -1100 -281 1098c-6,25 -48,38 -89,39 -39,0 -77,-11 -85,-35l-456 -1317z"/>
 </g>
</svg>
