<?xml version="1.0" encoding="UTF-8"?>
<!DOCTYPE svg PUBLIC "-//W3C//DTD SVG 1.1//EN" "http://www.w3.org/Graphics/SVG/1.1/DTD/svg11.dtd">
<!-- Creator: CorelDRAW X8 -->
<svg xmlns="http://www.w3.org/2000/svg" xml:space="preserve" width="1827px" height="1405px" version="1.1" style="shape-rendering:geometricPrecision; text-rendering:geometricPrecision; image-rendering:optimizeQuality; fill-rule:evenodd; clip-rule:evenodd"
viewBox="0 0 1827 1405"
 xmlns:xlink="http://www.w3.org/1999/xlink">
 <defs>
  <style type="text/css">
   <![CDATA[
    .fil0 {fill:#CC6633;fill-rule:nonzero}
   ]]>
  </style>
 </defs>
 <g id="Layer_x0020_1">
  <metadata id="CorelCorpID_0Corel-Layer"/>
  <path class="fil0" d="M1 52c-1,-2 -1,-4 -1,-7 0,-21 30,-41 72,-45 4,0 8,0 12,0 42,0 79,17 87,38l392 1134 290 -1136c7,-27 67,-36 88,-36 40,0 79,13 85,39l294 1133 390 -1148c5,-14 30,-24 58,-24 3,0 6,0 10,0 29,3 49,15 49,29 0,2 0,4 -1,5l-453 1334c-8,23 -46,36 -85,37 -41,2 -83,-10 -90,-37l-285 -1101 -281 1100c-6,24 -48,38 -89,38 -39,1 -77,-10 -85,-35l-457 -1318z"/>
 </g>
</svg>
