<?xml version="1.0" encoding="UTF-8"?>
<!DOCTYPE svg PUBLIC "-//W3C//DTD SVG 1.1//EN" "http://www.w3.org/Graphics/SVG/1.1/DTD/svg11.dtd">
<!-- Creator: CorelDRAW X8 -->
<svg xmlns="http://www.w3.org/2000/svg" xml:space="preserve" width="1827px" height="1405px" version="1.1" style="shape-rendering:geometricPrecision; text-rendering:geometricPrecision; image-rendering:optimizeQuality; fill-rule:evenodd; clip-rule:evenodd"
viewBox="0 0 1827 1405"
 xmlns:xlink="http://www.w3.org/1999/xlink">
 <defs>
  <style type="text/css">
   <![CDATA[
    .fil0 {fill:#2B2A29;fill-rule:nonzero}
   ]]>
  </style>
 </defs>
 <g id="Layer_x0020_1">
  <metadata id="CorelCorpID_0Corel-Layer"/>
  <path class="fil0" d="M1373 1368l451 -1327c2,-5 3,-10 3,-15 0,-22 -44,-26 -59,-26 -26,0 -52,8 -58,24l-390 1148 -294 -1133c-7,-26 -45,-39 -85,-39 -21,0 -81,9 -88,36l-290 1136 -392 -1134c-9,-26 -47,-38 -85,-38 -43,0 -86,16 -86,44 0,7 1,10 3,16l455 1310c10,31 58,35 85,35 41,0 83,-14 89,-38l281 -1100 285 1101c7,25 44,37 82,37 28,0 83,-6 93,-37z"/>
 </g>
</svg>
