<?xml version="1.0" encoding="UTF-8"?>
<!DOCTYPE svg PUBLIC "-//W3C//DTD SVG 1.1//EN" "http://www.w3.org/Graphics/SVG/1.1/DTD/svg11.dtd">
<!-- Creator: CorelDRAW X8 -->
<svg xmlns="http://www.w3.org/2000/svg" xml:space="preserve" width="955px" height="1024px" version="1.1" style="shape-rendering:geometricPrecision; text-rendering:geometricPrecision; image-rendering:optimizeQuality; fill-rule:evenodd; clip-rule:evenodd"
viewBox="0 0 955 1024"
 xmlns:xlink="http://www.w3.org/1999/xlink">
 <defs>
  <style type="text/css">
   <![CDATA[
    .fil0 {fill:#CC6633;fill-rule:nonzero}
   ]]>
  </style>
 </defs>
 <g id="Layer_x0020_1">
  <metadata id="CorelCorpID_0Corel-Layer"/>
  <path class="fil0" d="M7 62c-5,-6 -7,-11 -7,-17 0,-18 21,-34 56,-42 11,-2 23,-3 34,-3 35,0 69,11 84,28l318 384 338 -392c10,-12 34,-19 59,-19 8,0 16,1 24,2 25,5 40,17 40,30 0,4 -2,8 -5,12l-387 450 387 467c5,5 7,11 7,17 0,17 -21,34 -56,41 -11,3 -22,4 -34,4 -35,0 -69,-11 -84,-28l-318 -384 -338 392c-10,12 -34,20 -59,20 -8,0 -16,-1 -24,-2 -25,-6 -40,-17 -40,-30 0,-4 2,-8 5,-12l387 -451 -387 -467z"/>
 </g>
</svg>
