<?xml version="1.0" encoding="UTF-8"?>
<!DOCTYPE svg PUBLIC "-//W3C//DTD SVG 1.1//EN" "http://www.w3.org/Graphics/SVG/1.1/DTD/svg11.dtd">
<!-- Creator: CorelDRAW X8 -->
<svg xmlns="http://www.w3.org/2000/svg" xml:space="preserve" width="956px" height="1024px" version="1.1" style="shape-rendering:geometricPrecision; text-rendering:geometricPrecision; image-rendering:optimizeQuality; fill-rule:evenodd; clip-rule:evenodd"
viewBox="0 0 956 1023"
 xmlns:xlink="http://www.w3.org/1999/xlink">
 <defs>
  <style type="text/css">
   <![CDATA[
    .fil0 {fill:#898778;fill-rule:nonzero}
   ]]>
  </style>
 </defs>
 <g id="Layer_x0020_1">
  <metadata id="CorelCorpID_0Corel-Layer"/>
  <path class="fil0" d="M7 62c-26,-32 24,-54 49,-59 35,-7 95,-3 118,25l319 383 337 -391c17,-20 59,-22 84,-17 17,4 53,20 34,42l-386 450 387 466c26,32 -24,54 -49,59 -35,7 -95,3 -118,-25l-318 -383 -338 392c-17,20 -59,22 -84,17 -17,-4 -53,-19 -34,-41l387 -451 -388 -467z"/>
 </g>
</svg>
