<?xml version="1.0" encoding="UTF-8"?>
<!DOCTYPE svg PUBLIC "-//W3C//DTD SVG 1.1//EN" "http://www.w3.org/Graphics/SVG/1.1/DTD/svg11.dtd">
<!-- Creator: CorelDRAW X8 -->
<svg xmlns="http://www.w3.org/2000/svg" xml:space="preserve" width="1202px" height="1405px" version="1.1" style="shape-rendering:geometricPrecision; text-rendering:geometricPrecision; image-rendering:optimizeQuality; fill-rule:evenodd; clip-rule:evenodd"
viewBox="0 0 1202 1405"
 xmlns:xlink="http://www.w3.org/1999/xlink">
 <defs>
  <style type="text/css">
   <![CDATA[
    .fil0 {fill:#009846;fill-rule:nonzero}
   ]]>
  </style>
 </defs>
 <g id="Layer_x0020_1">
  <metadata id="CorelCorpID_0Corel-Layer"/>
  <path class="fil0" d="M10 61c-25,-32 27,-53 52,-58 34,-7 94,-3 116,26l439 568 462 -577c16,-20 58,-23 83,-18 17,4 53,19 35,42l-512 640 507 656c25,32 -27,54 -52,59 -34,6 -94,2 -116,-26l-438 -566 -463 578c-16,20 -58,23 -83,18 -17,-4 -53,-19 -35,-42l514 -642 -509 -658z"/>
 </g>
</svg>
