<?xml version="1.0" encoding="UTF-8"?>
<!DOCTYPE svg PUBLIC "-//W3C//DTD SVG 1.1//EN" "http://www.w3.org/Graphics/SVG/1.1/DTD/svg11.dtd">
<!-- Creator: CorelDRAW X8 -->
<svg xmlns="http://www.w3.org/2000/svg" xml:space="preserve" width="1202px" height="1405px" version="1.1" style="shape-rendering:geometricPrecision; text-rendering:geometricPrecision; image-rendering:optimizeQuality; fill-rule:evenodd; clip-rule:evenodd"
viewBox="0 0 1202 1405"
 xmlns:xlink="http://www.w3.org/1999/xlink">
 <defs>
  <style type="text/css">
   <![CDATA[
    .fil0 {fill:#2B2A29;fill-rule:nonzero}
   ]]>
  </style>
 </defs>
 <g id="Layer_x0020_1">
  <metadata id="CorelCorpID_0Corel-Layer"/>
  <path class="fil0" d="M123 1385l463 -578 438 566c15,19 50,32 85,32 46,0 90,-19 90,-48 0,-5 -2,-11 -7,-17l-507 -656 512 -640c3,-4 5,-9 5,-12 0,-21 -31,-32 -63,-32 -24,0 -49,7 -60,20l-462 577 -439 -568c-15,-20 -50,-29 -84,-29 -46,0 -91,16 -91,44 0,6 2,11 7,17l509 658 -514 642c-3,4 -5,9 -5,12 0,21 32,32 64,32 24,0 48,-7 59,-20z"/>
 </g>
</svg>
