<?xml version="1.0" encoding="UTF-8"?>
<!DOCTYPE svg PUBLIC "-//W3C//DTD SVG 1.1//EN" "http://www.w3.org/Graphics/SVG/1.1/DTD/svg11.dtd">
<!-- Creator: CorelDRAW X8 -->
<svg xmlns="http://www.w3.org/2000/svg" xml:space="preserve" width="1202px" height="1405px" version="1.1" style="shape-rendering:geometricPrecision; text-rendering:geometricPrecision; image-rendering:optimizeQuality; fill-rule:evenodd; clip-rule:evenodd"
viewBox="0 0 1202 1405"
 xmlns:xlink="http://www.w3.org/1999/xlink">
 <defs>
  <style type="text/css">
   <![CDATA[
    .fil0 {fill:#CC6633;fill-rule:nonzero}
   ]]>
  </style>
 </defs>
 <g id="Layer_x0020_1">
  <metadata id="CorelCorpID_0Corel-Layer"/>
  <path class="fil0" d="M10 61c-4,-5 -6,-10 -6,-16 0,-18 22,-35 58,-42 10,-2 21,-3 32,-3 36,0 71,11 84,29l439 568 462 -577c10,-12 34,-20 59,-20 8,0 16,1 24,2 25,5 40,17 40,30 0,4 -2,8 -5,12l-512 640 507 656c4,6 6,11 6,17 0,18 -22,35 -58,42 -10,2 -20,3 -31,3 -37,0 -71,-11 -85,-29l-438 -566 -463 578c-10,12 -34,20 -59,20 -8,0 -16,-1 -24,-2 -25,-5 -40,-17 -40,-30 0,-4 2,-8 5,-12l514 -642 -509 -658z"/>
 </g>
</svg>
