<?xml version="1.0" encoding="UTF-8"?>
<!DOCTYPE svg PUBLIC "-//W3C//DTD SVG 1.1//EN" "http://www.w3.org/Graphics/SVG/1.1/DTD/svg11.dtd">
<!-- Creator: CorelDRAW X8 -->
<svg xmlns="http://www.w3.org/2000/svg" xml:space="preserve" width="992px" height="1405px" version="1.1" style="shape-rendering:geometricPrecision; text-rendering:geometricPrecision; image-rendering:optimizeQuality; fill-rule:evenodd; clip-rule:evenodd"
viewBox="0 0 992 1405"
 xmlns:xlink="http://www.w3.org/1999/xlink">
 <defs>
  <style type="text/css">
   <![CDATA[
    .fil0 {fill:#CC6633;fill-rule:nonzero}
   ]]>
  </style>
 </defs>
 <g id="Layer_x0020_1">
  <metadata id="CorelCorpID_0Corel-Layer"/>
  <path class="fil0" d="M2 56c-1,-4 -2,-7 -2,-11 0,-20 28,-39 70,-44 7,-1 13,-1 20,-1 41,0 78,14 88,35l366 781 335 -791c6,-15 30,-25 56,-25 4,0 8,0 13,1 26,3 44,17 44,31 0,3 0,5 -1,8l-474 1118c-64,152 -138,247 -315,247 -64,0 -140,-17 -179,-68 -3,-4 -4,-9 -4,-13 0,-12 13,-24 35,-29 7,-2 15,-3 22,-3 22,0 44,7 53,20 17,22 44,29 71,29 118,0 166,-104 205,-197l51 -120 -454 -968z"/>
 </g>
</svg>
