<?xml version="1.0" encoding="UTF-8"?>
<!DOCTYPE svg PUBLIC "-//W3C//DTD SVG 1.1//EN" "http://www.w3.org/Graphics/SVG/1.1/DTD/svg11.dtd">
<!-- Creator: CorelDRAW X8 -->
<svg xmlns="http://www.w3.org/2000/svg" xml:space="preserve" width="920px" height="1405px" version="1.1" style="shape-rendering:geometricPrecision; text-rendering:geometricPrecision; image-rendering:optimizeQuality; fill-rule:evenodd; clip-rule:evenodd"
viewBox="0 0 920 1406"
 xmlns:xlink="http://www.w3.org/1999/xlink">
 <defs>
  <style type="text/css">
   <![CDATA[
    .fil0 {fill:#CC6633;fill-rule:nonzero}
   ]]>
  </style>
 </defs>
 <g id="Layer_x0020_1">
  <metadata id="CorelCorpID_0Corel-Layer"/>
  <path class="fil0" d="M757 894c-66,85 -187,131 -297,131 -265,-1 -460,-175 -460,-449l0 -530c0,-26 37,-46 82,-46 45,0 81,20 81,46l0 530c0,179 101,357 297,358 187,0 297,-183 297,-359l0 -529c0,-26 36,-46 81,-46 45,0 82,20 82,46l0 925c-1,293 -185,425 -456,434 -157,5 -359,-39 -454,-179 -3,-6 -5,-11 -5,-16 0,-19 20,-36 53,-43 9,-2 18,-3 27,-3 34,0 65,11 78,29 64,94 186,125 292,121 210,-7 302,-130 302,-342l0 -78z"/>
 </g>
</svg>
