<?xml version="1.0" encoding="UTF-8"?>
<!DOCTYPE svg PUBLIC "-//W3C//DTD SVG 1.1//EN" "http://www.w3.org/Graphics/SVG/1.1/DTD/svg11.dtd">
<!-- Creator: CorelDRAW X8 -->
<svg xmlns="http://www.w3.org/2000/svg" xml:space="preserve" width="1228px" height="1357px" version="1.1" style="shape-rendering:geometricPrecision; text-rendering:geometricPrecision; image-rendering:optimizeQuality; fill-rule:evenodd; clip-rule:evenodd"
viewBox="0 0 1228 1357"
 xmlns:xlink="http://www.w3.org/1999/xlink">
 <defs>
  <style type="text/css">
   <![CDATA[
    .fil0 {fill:#2B2A29;fill-rule:nonzero}
   ]]>
  </style>
 </defs>
 <g id="Layer_x0020_1">
  <metadata id="CorelCorpID_0Corel-Layer"/>
  <path class="fil0" d="M1138 1357c50,0 90,-20 90,-45 0,-25 -40,-45 -90,-45l-914 0 995 -1205c4,-6 6,-11 6,-17 0,-18 -16,-29 -35,-36 -19,-7 -41,-9 -54,-9l-1023 0c-49,0 -89,20 -89,45 0,25 40,45 89,45l889 0 -995 1205c-5,6 -7,12 -7,17 0,18 19,30 40,37 18,6 38,8 50,8l1048 0z"/>
 </g>
</svg>
