<?xml version="1.0" encoding="UTF-8"?>
<!DOCTYPE svg PUBLIC "-//W3C//DTD SVG 1.1//EN" "http://www.w3.org/Graphics/SVG/1.1/DTD/svg11.dtd">
<!-- Creator: CorelDRAW X8 -->
<svg xmlns="http://www.w3.org/2000/svg" xml:space="preserve" width="984px" height="1405px" version="1.1" style="shape-rendering:geometricPrecision; text-rendering:geometricPrecision; image-rendering:optimizeQuality; fill-rule:evenodd; clip-rule:evenodd"
viewBox="0 0 984 1405"
 xmlns:xlink="http://www.w3.org/1999/xlink">
 <defs>
  <style type="text/css">
   <![CDATA[
    .fil0 {fill:#2B2A29;fill-rule:nonzero}
   ]]>
  </style>
 </defs>
 <g id="Layer_x0020_1">
  <metadata id="CorelCorpID_0Corel-Layer"/>
  <path class="fil0" d="M227 1404c22,0 53,-5 60,-23l72 -184c47,11 98,18 152,18 152,0 330,-62 420,-190 21,-30 53,-97 53,-133 0,-31 -57,-43 -81,-43 -42,0 -77,18 -81,41 -25,139 -167,234 -304,234 -45,0 -85,-8 -122,-21l303 -771c63,40 110,103 121,182 3,24 39,42 81,42 27,0 81,-11 81,-46 0,-42 -33,-111 -57,-142 -45,-62 -112,-108 -187,-137l73 -184c2,-6 5,-12 5,-18 0,-22 -43,-28 -59,-28 -22,0 -53,5 -60,23l-69 176c-36,-6 -71,-10 -106,-10 -312,0 -523,205 -522,518 0,210 96,369 252,449l-82 209c-1,3 -2,7 -2,10 0,23 43,28 59,28zm366 -1115l-297 756c-88,-78 -133,-204 -133,-337 0,-220 119,-427 361,-427 23,0 46,3 69,8z"/>
 </g>
</svg>
