<?xml version="1.0" encoding="UTF-8"?>
<!DOCTYPE svg PUBLIC "-//W3C//DTD SVG 1.1//EN" "http://www.w3.org/Graphics/SVG/1.1/DTD/svg11.dtd">
<!-- Creator: CorelDRAW X8 -->
<svg xmlns="http://www.w3.org/2000/svg" xml:space="preserve" width="984px" height="1405px" version="1.1" style="shape-rendering:geometricPrecision; text-rendering:geometricPrecision; image-rendering:optimizeQuality; fill-rule:evenodd; clip-rule:evenodd"
viewBox="0 0 984 1405"
 xmlns:xlink="http://www.w3.org/1999/xlink">
 <defs>
  <style type="text/css">
   <![CDATA[
    .fil0 {fill:#898778;fill-rule:nonzero}
   ]]>
  </style>
 </defs>
 <g id="Layer_x0020_1">
  <metadata id="CorelCorpID_0Corel-Layer"/>
  <path class="fil0" d="M982 508c5,36 -55,49 -81,49 -42,0 -78,-19 -81,-43 -11,-79 -58,-142 -121,-182l-303 771c37,14 77,21 122,21 137,0 279,-95 304,-234 4,-24 39,-41 81,-41 26,0 87,13 81,50 -38,210 -271,314 -466,316 -56,0 -109,-6 -159,-18l-72 184c-8,22 -50,26 -70,24 -16,-2 -57,-12 -48,-35l84 -213c-158,-80 -252,-239 -253,-449 -1,-311 206,-513 516,-517 36,-1 74,2 112,9l69 -176c8,-21 50,-26 70,-24 16,2 57,12 48,36l-77 195c123,48 225,140 244,277zm-389 -219c-24,-5 -49,-8 -74,-8 -237,4 -357,209 -356,427 0,134 45,259 134,337l296 -756z"/>
 </g>
</svg>
