<?xml version="1.0" encoding="UTF-8"?>
<!DOCTYPE svg PUBLIC "-//W3C//DTD SVG 1.1//EN" "http://www.w3.org/Graphics/SVG/1.1/DTD/svg11.dtd">
<!-- Creator: CorelDRAW X8 -->
<svg xmlns="http://www.w3.org/2000/svg" xml:space="preserve" width="984px" height="1404px" version="1.1" style="shape-rendering:geometricPrecision; text-rendering:geometricPrecision; image-rendering:optimizeQuality; fill-rule:evenodd; clip-rule:evenodd"
viewBox="0 0 984 1403"
 xmlns:xlink="http://www.w3.org/1999/xlink">
 <defs>
  <style type="text/css">
   <![CDATA[
    .fil0 {fill:#2B2A29;fill-rule:nonzero}
   ]]>
  </style>
 </defs>
 <g id="Layer_x0020_1">
  <metadata id="CorelCorpID_0Corel-Layer"/>
  <path class="fil0" d="M227 1403c22,0 53,-5 60,-23l72 -184c47,11 98,18 152,18 152,0 330,-62 420,-190 21,-30 53,-97 53,-133 0,-31 -57,-43 -81,-43 -42,0 -77,18 -81,41 -25,139 -167,234 -304,234 -45,0 -85,-8 -122,-21l303 -771c63,41 110,103 121,183 3,24 39,42 81,42 27,0 81,-12 81,-47 0,-42 -34,-110 -57,-142 -45,-62 -112,-107 -187,-137l72 -184c3,-6 6,-12 6,-18 0,-22 -43,-28 -59,-28 -22,0 -53,5 -60,23l-69 176c-36,-6 -71,-9 -106,-9 -312,0 -522,204 -522,518 1,209 96,368 252,448l-82 209c-1,3 -2,7 -2,10 0,23 43,28 59,28zm366 -1115l-297 756c-88,-78 -133,-204 -133,-336 0,-221 119,-427 361,-427 23,0 46,2 69,7z"/>
 </g>
</svg>
