<?xml version="1.0" encoding="UTF-8"?>
<!DOCTYPE svg PUBLIC "-//W3C//DTD SVG 1.1//EN" "http://www.w3.org/Graphics/SVG/1.1/DTD/svg11.dtd">
<!-- Creator: CorelDRAW X8 -->
<svg xmlns="http://www.w3.org/2000/svg" xml:space="preserve" width="984px" height="1405px" version="1.1" style="shape-rendering:geometricPrecision; text-rendering:geometricPrecision; image-rendering:optimizeQuality; fill-rule:evenodd; clip-rule:evenodd"
viewBox="0 0 984 1405"
 xmlns:xlink="http://www.w3.org/1999/xlink">
 <defs>
  <style type="text/css">
   <![CDATA[
    .fil0 {fill:#009846;fill-rule:nonzero}
   ]]>
  </style>
 </defs>
 <g id="Layer_x0020_1">
  <metadata id="CorelCorpID_0Corel-Layer"/>
  <path class="fil0" d="M982 507c5,37 -55,49 -81,49 -42,0 -78,-18 -81,-42 -11,-79 -58,-142 -122,-182l-302 771c37,13 77,20 122,20 137,0 279,-94 304,-233 4,-24 39,-41 81,-41 26,0 87,13 80,50 -37,210 -271,314 -465,315 -56,1 -109,-5 -159,-18l-72 185c-8,21 -50,25 -70,23 -15,-1 -57,-12 -48,-35l84 -212c-157,-80 -252,-239 -253,-449 -1,-311 206,-513 516,-517 36,-1 74,2 112,9l69 -176c8,-21 50,-25 70,-23 15,1 57,12 48,35l-77 195c123,48 225,140 244,276zm-389 -218c-24,-5 -49,-8 -74,-7 -237,3 -357,208 -356,426 0,133 45,259 134,337l296 -756z"/>
 </g>
</svg>
