<?xml version="1.0" encoding="UTF-8"?>
<!DOCTYPE svg PUBLIC "-//W3C//DTD SVG 1.1//EN" "http://www.w3.org/Graphics/SVG/1.1/DTD/svg11.dtd">
<!-- Creator: CorelDRAW X8 -->
<svg xmlns="http://www.w3.org/2000/svg" xml:space="preserve" width="1135px" height="1405px" version="1.1" style="shape-rendering:geometricPrecision; text-rendering:geometricPrecision; image-rendering:optimizeQuality; fill-rule:evenodd; clip-rule:evenodd"
viewBox="0 0 1135 1405"
 xmlns:xlink="http://www.w3.org/1999/xlink">
 <defs>
  <style type="text/css">
   <![CDATA[
    .fil0 {fill:#2B2A29;fill-rule:nonzero}
   ]]>
  </style>
 </defs>
 <g id="Layer_x0020_1">
  <metadata id="CorelCorpID_0Corel-Layer"/>
  <path class="fil0" d="M101 1405c21,0 42,-4 60,-14 78,-44 163,-78 254,-78 119,0 246,86 402,86 103,0 203,-35 293,-83 16,-8 25,-20 25,-33 0,-11 -7,-22 -22,-31 -17,-9 -39,-14 -60,-14 -20,0 -40,4 -55,12 -60,33 -119,52 -187,52 -133,0 -249,-80 -396,-80 -28,0 -55,2 -82,5 73,-90 121,-189 121,-307 0,-55 -10,-110 -25,-163l291 0c45,0 81,-20 81,-46 0,-25 -36,-45 -81,-45l-319 0c-29,-90 -59,-180 -60,-275 0,-152 119,-300 276,-300 150,0 231,145 257,275 4,23 39,40 79,40 24,0 83,-12 83,-44 0,-10 -5,-30 -11,-50 -59,-194 -195,-312 -405,-312 -226,0 -441,150 -441,391 0,98 28,187 57,275l-155 0c-45,0 -81,20 -81,45 0,26 36,46 81,46l183 0c15,54 27,107 27,163 0,177 -127,309 -256,413 -11,8 -15,17 -15,26 0,16 15,30 34,38 14,6 30,8 47,8z"/>
 </g>
</svg>
