<?xml version="1.0" encoding="UTF-8"?>
<!DOCTYPE svg PUBLIC "-//W3C//DTD SVG 1.1//EN" "http://www.w3.org/Graphics/SVG/1.1/DTD/svg11.dtd">
<!-- Creator: CorelDRAW X8 -->
<svg xmlns="http://www.w3.org/2000/svg" xml:space="preserve" width="1135px" height="1405px" version="1.1" style="shape-rendering:geometricPrecision; text-rendering:geometricPrecision; image-rendering:optimizeQuality; fill-rule:evenodd; clip-rule:evenodd"
viewBox="0 0 1135 1405"
 xmlns:xlink="http://www.w3.org/1999/xlink">
 <defs>
  <style type="text/css">
   <![CDATA[
    .fil0 {fill:#898778;fill-rule:nonzero}
   ]]>
  </style>
 </defs>
 <g id="Layer_x0020_1">
  <metadata id="CorelCorpID_0Corel-Layer"/>
  <path class="fil0" d="M1035 356c8,37 -55,51 -82,50 -40,0 -75,-17 -79,-40 -26,-130 -106,-272 -254,-275 -158,-2 -279,147 -279,300 1,95 31,185 60,275l319 0c45,0 81,20 81,45 0,26 -36,46 -81,46l-291 0c15,53 25,108 25,163 0,118 -48,217 -121,307 27,-3 53,-5 79,-5 152,-1 271,84 408,80 52,-1 110,-15 178,-52 32,-17 83,-16 115,2 31,19 28,48 -3,64 -110,59 -203,81 -285,82 -161,4 -290,-86 -412,-85 -89,0 -176,35 -252,78 -31,17 -74,19 -106,6 -30,-12 -50,-40 -20,-64 131,-104 257,-237 256,-415 0,-55 -11,-109 -27,-161l-183 0c-45,0 -81,-20 -81,-46 0,-25 36,-45 81,-45l155 0c-29,-88 -57,-177 -57,-275 0,-242 216,-392 443,-391 223,1 371,142 413,356z"/>
 </g>
</svg>
