<?xml version="1.0" encoding="UTF-8"?>
<!DOCTYPE svg PUBLIC "-//W3C//DTD SVG 1.1//EN" "http://www.w3.org/Graphics/SVG/1.1/DTD/svg11.dtd">
<!-- Creator: CorelDRAW X8 -->
<svg xmlns="http://www.w3.org/2000/svg" xml:space="preserve" width="751px" height="688px" version="1.1" style="shape-rendering:geometricPrecision; text-rendering:geometricPrecision; image-rendering:optimizeQuality; fill-rule:evenodd; clip-rule:evenodd"
viewBox="0 0 751 688"
 xmlns:xlink="http://www.w3.org/1999/xlink">
 <defs>
  <style type="text/css">
   <![CDATA[
    .fil0 {fill:#2B2A29;fill-rule:nonzero}
   ]]>
  </style>
 </defs>
 <g id="Layer_x0020_1">
  <metadata id="CorelCorpID_0Corel-Layer"/>
  <path class="fil0" d="M375 572c-128,0 -192,-113 -192,-227 0,-114 64,-229 192,-229 129,0 193,115 193,229 0,114 -65,227 -193,227zm303 116c13,0 26,-2 36,-5 18,-6 37,-19 37,-35 0,-6 -2,-12 -9,-19l-95 -95c44,-55 65,-121 65,-189 0,-67 -22,-137 -65,-191l95 -95c7,-7 9,-13 9,-19 0,-16 -19,-29 -37,-35 -10,-3 -23,-5 -36,-5 -23,0 -47,6 -61,20l-59 59c-49,-27 -110,-43 -183,-43 -73,0 -134,16 -183,43l-59 -59c-14,-14 -38,-20 -61,-20 -13,0 -26,2 -36,5 -17,6 -36,19 -36,35 0,6 2,12 9,19l94 95c-43,55 -65,123 -65,191 0,67 22,135 65,189l-94 95c-7,7 -9,13 -9,19 0,16 19,29 36,35 10,4 23,5 36,5 23,0 47,-6 61,-20l59 -59c49,27 110,43 183,43 73,0 134,-16 183,-43l59 59c14,14 38,20 61,20z"/>
 </g>
</svg>
