<?xml version="1.0" encoding="UTF-8"?>
<!DOCTYPE svg PUBLIC "-//W3C//DTD SVG 1.1//EN" "http://www.w3.org/Graphics/SVG/1.1/DTD/svg11.dtd">
<!-- Creator: CorelDRAW X8 -->
<svg xmlns="http://www.w3.org/2000/svg" xml:space="preserve" width="751px" height="688px" version="1.1" style="shape-rendering:geometricPrecision; text-rendering:geometricPrecision; image-rendering:optimizeQuality; fill-rule:evenodd; clip-rule:evenodd"
viewBox="0 0 751 688"
 xmlns:xlink="http://www.w3.org/1999/xlink">
 <defs>
  <style type="text/css">
   <![CDATA[
    .fil0 {fill:#CC6633;fill-rule:nonzero}
   ]]>
  </style>
 </defs>
 <g id="Layer_x0020_1">
  <metadata id="CorelCorpID_0Corel-Layer"/>
  <path class="fil0" d="M376 36c72,0 133,16 183,43l58 -59c13,-13 38,-20 63,-20 11,0 23,2 34,5 24,7 37,21 37,35 0,7 -3,13 -9,20l-95 94c44,54 65,122 65,189 1,68 -21,136 -65,191l95 95c6,6 9,12 9,19 0,14 -13,28 -37,35 -12,4 -25,5 -38,5 -24,-1 -46,-8 -59,-20l-58 -59c-50,27 -111,43 -183,43 -73,0 -134,-16 -184,-43l-58 59c-13,12 -35,19 -59,20 -13,0 -26,-1 -38,-5 -24,-7 -37,-21 -37,-35 0,-7 3,-13 9,-19l95 -95c-44,-54 -65,-121 -65,-189 -1,-68 21,-136 65,-191l-95 -94c-6,-7 -9,-13 -9,-20 0,-14 13,-28 37,-35 11,-3 23,-5 34,-5 25,0 50,7 63,20l58 59c50,-27 111,-43 184,-43zm0 80c-129,0 -193,114 -193,228 0,114 64,228 193,228 128,0 192,-114 192,-228 0,-114 -64,-228 -192,-228z"/>
 </g>
</svg>
