<?xml version="1.0" encoding="UTF-8"?>
<!DOCTYPE svg PUBLIC "-//W3C//DTD SVG 1.1//EN" "http://www.w3.org/Graphics/SVG/1.1/DTD/svg11.dtd">
<!-- Creator: CorelDRAW X8 -->
<svg xmlns="http://www.w3.org/2000/svg" xml:space="preserve" width="751px" height="688px" version="1.1" style="shape-rendering:geometricPrecision; text-rendering:geometricPrecision; image-rendering:optimizeQuality; fill-rule:evenodd; clip-rule:evenodd"
viewBox="0 0 751 688"
 xmlns:xlink="http://www.w3.org/1999/xlink">
 <defs>
  <style type="text/css">
   <![CDATA[
    .fil0 {fill:#009846;fill-rule:nonzero}
   ]]>
  </style>
 </defs>
 <g id="Layer_x0020_1">
  <metadata id="CorelCorpID_0Corel-Layer"/>
  <path class="fil0" d="M375 36c73,0 134,16 184,43l58 -59c22,-22 68,-24 97,-15 25,8 52,30 28,54l-95 95c44,54 65,122 65,189 1,68 -21,136 -65,191l95 95c24,24 -3,46 -28,54 -28,9 -75,7 -97,-15l-58 -59c-50,27 -111,43 -184,43 -72,0 -133,-16 -183,-43l-58 59c-22,22 -69,24 -97,15 -25,-8 -52,-30 -28,-54l95 -95c-44,-54 -65,-122 -65,-189 -1,-68 21,-136 65,-191l-95 -95c-24,-24 3,-46 28,-54 29,-9 75,-7 97,15l58 59c50,-27 111,-43 183,-43zm0 80c-128,0 -192,114 -192,228 0,114 64,228 192,228 129,0 193,-114 193,-228 0,-114 -64,-228 -193,-228z"/>
 </g>
</svg>
