<?xml version="1.0" encoding="UTF-8"?>
<!DOCTYPE svg PUBLIC "-//W3C//DTD SVG 1.1//EN" "http://www.w3.org/Graphics/SVG/1.1/DTD/svg11.dtd">
<!-- Creator: CorelDRAW X8 -->
<svg xmlns="http://www.w3.org/2000/svg" xml:space="preserve" width="751px" height="688px" version="1.1" style="shape-rendering:geometricPrecision; text-rendering:geometricPrecision; image-rendering:optimizeQuality; fill-rule:evenodd; clip-rule:evenodd"
viewBox="0 0 751 687"
 xmlns:xlink="http://www.w3.org/1999/xlink">
 <defs>
  <style type="text/css">
   <![CDATA[
    .fil0 {fill:#898778;fill-rule:nonzero}
   ]]>
  </style>
 </defs>
 <g id="Layer_x0020_1">
  <metadata id="CorelCorpID_0Corel-Layer"/>
  <path class="fil0" d="M376 36c72,0 133,16 182,43l59 -59c22,-22 68,-24 97,-15 25,8 52,30 28,54l-95 95c43,54 65,121 65,189 0,68 -21,136 -65,191l95 94c24,24 -3,47 -28,54 -29,10 -75,7 -97,-15l-59 -59c-49,28 -110,44 -182,44 -73,0 -134,-16 -183,-44l-59 59c-22,22 -68,25 -97,15 -25,-7 -52,-30 -28,-54l95 -94c-43,-55 -65,-122 -65,-189 0,-68 21,-136 65,-191l-95 -95c-24,-24 3,-46 28,-54 29,-9 75,-7 97,15l59 59c49,-27 110,-43 183,-43zm0 80c-129,0 -193,114 -193,228 0,114 64,228 193,228 128,0 192,-114 192,-228 0,-114 -64,-228 -192,-228z"/>
 </g>
</svg>
