<?xml version="1.0" encoding="UTF-8"?>
<!DOCTYPE svg PUBLIC "-//W3C//DTD SVG 1.1//EN" "http://www.w3.org/Graphics/SVG/1.1/DTD/svg11.dtd">
<!-- Creator: CorelDRAW X8 -->
<svg xmlns="http://www.w3.org/2000/svg" xml:space="preserve" width="1026px" height="1405px" version="1.1" style="shape-rendering:geometricPrecision; text-rendering:geometricPrecision; image-rendering:optimizeQuality; fill-rule:evenodd; clip-rule:evenodd"
viewBox="0 0 1026 1405"
 xmlns:xlink="http://www.w3.org/1999/xlink">
 <defs>
  <style type="text/css">
   <![CDATA[
    .fil0 {fill:#CC6633;fill-rule:nonzero}
   ]]>
  </style>
 </defs>
 <g id="Layer_x0020_1">
  <metadata id="CorelCorpID_0Corel-Layer"/>
  <path class="fil0" d="M595 1360c0,25 -37,45 -82,45 -45,0 -81,-20 -81,-45l0 -285 -296 0c-45,0 -82,-21 -82,-46 0,-25 37,-45 82,-45l296 0 0 -229 -296 0c-45,0 -82,-21 -82,-46 0,-25 37,-46 82,-46l250 0 -379 -602c-4,-7 -7,-12 -7,-17 0,-29 63,-44 89,-44 37,0 75,10 87,29l365 598 361 -606c13,-22 58,-23 82,-19 26,5 42,17 42,30 0,4 -2,7 -4,11l-382 620 250 0c45,0 82,21 82,46 0,25 -37,46 -82,46l-295 0 0 229 295 0c45,0 82,20 82,45 0,25 -37,46 -82,46l-295 0 0 285z"/>
 </g>
</svg>
