<?xml version="1.0" encoding="UTF-8"?>
<!DOCTYPE svg PUBLIC "-//W3C//DTD SVG 1.1//EN" "http://www.w3.org/Graphics/SVG/1.1/DTD/svg11.dtd">
<!-- Creator: CorelDRAW X8 -->
<svg xmlns="http://www.w3.org/2000/svg" xml:space="preserve" width="964px" height="1405px" version="1.1" style="shape-rendering:geometricPrecision; text-rendering:geometricPrecision; image-rendering:optimizeQuality; fill-rule:evenodd; clip-rule:evenodd"
viewBox="0 0 964 1405"
 xmlns:xlink="http://www.w3.org/1999/xlink">
 <defs>
  <style type="text/css">
   <![CDATA[
    .fil0 {fill:#898778;fill-rule:nonzero}
   ]]>
  </style>
 </defs>
 <g id="Layer_x0020_1">
  <metadata id="CorelCorpID_0Corel-Layer"/>
  <path class="fil0" d="M119 742c-45,0 -82,-20 -82,-45 0,-25 37,-46 82,-46l231 0 -345 -590c-26,-45 52,-61 82,-61 38,0 76,9 87,29l335 598 331 -606c13,-22 58,-23 82,-19 20,4 53,16 38,41l-347 608 231 0c45,0 82,21 82,46 0,25 -37,45 -82,45l-281 0 0 171 281 0c45,0 82,21 82,46 0,25 -37,46 -82,46l-281 0 0 355c0,25 -36,45 -81,45 -45,0 -82,-20 -82,-45l0 -355 -281 0c-45,0 -82,-21 -82,-46 0,-25 37,-46 82,-46l281 0 0 -171 -281 0z"/>
 </g>
</svg>
