<?xml version="1.0" encoding="UTF-8"?>
<!DOCTYPE svg PUBLIC "-//W3C//DTD SVG 1.1//EN" "http://www.w3.org/Graphics/SVG/1.1/DTD/svg11.dtd">
<!-- Creator: CorelDRAW X8 -->
<svg xmlns="http://www.w3.org/2000/svg" xml:space="preserve" width="964px" height="1405px" version="1.1" style="shape-rendering:geometricPrecision; text-rendering:geometricPrecision; image-rendering:optimizeQuality; fill-rule:evenodd; clip-rule:evenodd"
viewBox="0 0 964 1405"
 xmlns:xlink="http://www.w3.org/1999/xlink">
 <defs>
  <style type="text/css">
   <![CDATA[
    .fil0 {fill:#2B2A29;fill-rule:nonzero}
   ]]>
  </style>
 </defs>
 <g id="Layer_x0020_1">
  <metadata id="CorelCorpID_0Corel-Layer"/>
  <path class="fil0" d="M482 1405c45,0 81,-20 81,-45l0 -355 281 0c46,0 82,-21 82,-46 0,-25 -36,-46 -82,-46l-281 0 0 -171 281 0c46,0 82,-20 82,-45 0,-25 -36,-46 -82,-46l-231 0 345 -603c3,-5 6,-10 6,-16 0,-26 -45,-32 -65,-32 -23,0 -49,5 -58,21l-332 607 -335 -599c-11,-20 -49,-29 -87,-29 -26,0 -87,12 -87,44 0,9 3,14 7,21l343 586 -232 0c-45,0 -81,21 -81,46 0,25 36,45 81,45l282 0 0 171 -282 0c-45,0 -81,21 -81,46 0,25 36,46 81,46l282 0 0 355c0,25 37,45 82,45z"/>
 </g>
</svg>
