<?xml version="1.0" encoding="UTF-8"?>
<!DOCTYPE svg PUBLIC "-//W3C//DTD SVG 1.1//EN" "http://www.w3.org/Graphics/SVG/1.1/DTD/svg11.dtd">
<!-- Creator: CorelDRAW X8 -->
<svg xmlns="http://www.w3.org/2000/svg" xml:space="preserve" width="966px" height="1405px" version="1.1" style="shape-rendering:geometricPrecision; text-rendering:geometricPrecision; image-rendering:optimizeQuality; fill-rule:evenodd; clip-rule:evenodd"
viewBox="0 0 966 1405"
 xmlns:xlink="http://www.w3.org/1999/xlink">
 <defs>
  <style type="text/css">
   <![CDATA[
    .fil0 {fill:#CC6633;fill-rule:nonzero}
   ]]>
  </style>
 </defs>
 <g id="Layer_x0020_1">
  <metadata id="CorelCorpID_0Corel-Layer"/>
  <path class="fil0" d="M120 742c-45,0 -81,-20 -81,-45 0,-25 36,-46 81,-46l232 0 -345 -590c-4,-7 -7,-12 -7,-17 0,-29 63,-44 89,-44 37,0 75,9 87,29l335 598 331 -606c12,-22 58,-23 82,-19 26,5 42,17 42,30 0,4 -2,7 -4,11l-348 608 232 0c45,0 81,21 81,46 0,25 -36,45 -81,45l-281 0 0 171 281 0c45,0 81,21 81,46 0,25 -36,46 -81,46l-281 0 0 355c0,25 -37,45 -82,45 -45,0 -81,-20 -81,-45l0 -355 -282 0c-45,0 -81,-21 -81,-46 0,-25 36,-46 81,-46l282 0 0 -171 -282 0z"/>
 </g>
</svg>
