<?xml version="1.0" encoding="UTF-8"?>
<!DOCTYPE svg PUBLIC "-//W3C//DTD SVG 1.1//EN" "http://www.w3.org/Graphics/SVG/1.1/DTD/svg11.dtd">
<!-- Creator: CorelDRAW X8 -->
<svg xmlns="http://www.w3.org/2000/svg" xml:space="preserve" width="1346px" height="1405px" version="1.1" style="shape-rendering:geometricPrecision; text-rendering:geometricPrecision; image-rendering:optimizeQuality; fill-rule:evenodd; clip-rule:evenodd"
viewBox="0 0 1346 1405"
 xmlns:xlink="http://www.w3.org/1999/xlink">
 <defs>
  <style type="text/css">
   <![CDATA[
    .fil0 {fill:#009846;fill-rule:nonzero}
   ]]>
  </style>
 </defs>
 <g id="Layer_x0020_1">
  <metadata id="CorelCorpID_0Corel-Layer"/>
  <path class="fil0" d="M389 1375c-15,28 -66,33 -95,28 -23,-4 -67,-23 -51,-53l34 -63c-176,-125 -277,-338 -277,-585 0,-395 258,-702 673,-702 101,0 193,18 274,51l11 -21c15,-28 66,-33 95,-28 23,4 67,23 51,53l-35 64c177,124 277,337 277,583 0,396 -258,703 -673,703 -101,0 -192,-18 -273,-51l-11 21zm-51 -200l558 -1030c-64,-34 -138,-54 -223,-54 -336,0 -510,310 -510,611 0,176 59,355 175,473zm671 -945l-558 1030c63,34 138,54 222,54 336,0 510,-310 510,-612 0,-175 -59,-353 -174,-472z"/>
 </g>
</svg>
