<?xml version="1.0" encoding="UTF-8"?>
<!DOCTYPE svg PUBLIC "-//W3C//DTD SVG 1.1//EN" "http://www.w3.org/Graphics/SVG/1.1/DTD/svg11.dtd">
<!-- Creator: CorelDRAW X8 -->
<svg xmlns="http://www.w3.org/2000/svg" xml:space="preserve" width="1346px" height="1405px" version="1.1" style="shape-rendering:geometricPrecision; text-rendering:geometricPrecision; image-rendering:optimizeQuality; fill-rule:evenodd; clip-rule:evenodd"
viewBox="0 0 1346 1405"
 xmlns:xlink="http://www.w3.org/1999/xlink">
 <defs>
  <style type="text/css">
   <![CDATA[
    .fil0 {fill:#2B2A29;fill-rule:nonzero}
   ]]>
  </style>
 </defs>
 <g id="Layer_x0020_1">
  <metadata id="CorelCorpID_0Corel-Layer"/>
  <path class="fil0" d="M673 1405c415,0 673,-307 673,-703 0,-246 -100,-459 -277,-583l35 -64c2,-4 3,-9 3,-13 0,-27 -39,-42 -78,-42 -30,0 -61,9 -71,30l-11 21c-81,-33 -173,-51 -274,-51 -415,0 -673,307 -673,702 0,247 101,460 277,585l-34 63c-2,4 -3,9 -3,13 0,26 44,42 79,42 34,0 59,-9 70,-30l11 -21c81,33 172,51 273,51zm-335 -230c-116,-118 -175,-297 -175,-473 0,-301 174,-611 510,-611 85,0 159,20 223,54l-558 1030zm335 139c-84,0 -159,-20 -222,-54l558 -1030c115,119 174,297 174,472 0,302 -174,612 -510,612z"/>
 </g>
</svg>
