<?xml version="1.0" encoding="UTF-8"?>
<!DOCTYPE svg PUBLIC "-//W3C//DTD SVG 1.1//EN" "http://www.w3.org/Graphics/SVG/1.1/DTD/svg11.dtd">
<!-- Creator: CorelDRAW X8 -->
<svg xmlns="http://www.w3.org/2000/svg" xml:space="preserve" width="1346px" height="1405px" version="1.1" style="shape-rendering:geometricPrecision; text-rendering:geometricPrecision; image-rendering:optimizeQuality; fill-rule:evenodd; clip-rule:evenodd"
viewBox="0 0 1346 1406"
 xmlns:xlink="http://www.w3.org/1999/xlink">
 <defs>
  <style type="text/css">
   <![CDATA[
    .fil0 {fill:#898778;fill-rule:nonzero}
   ]]>
  </style>
 </defs>
 <g id="Layer_x0020_1">
  <metadata id="CorelCorpID_0Corel-Layer"/>
  <path class="fil0" d="M389 1375c-16,28 -66,34 -95,29 -24,-4 -67,-23 -51,-53l34 -64c-176,-124 -277,-337 -277,-584 0,-396 258,-703 673,-703 101,0 193,18 274,52l11 -22c15,-28 66,-33 95,-28 23,4 67,23 51,53l-35 64c177,125 277,337 277,584 0,395 -258,703 -673,703 -101,0 -192,-18 -273,-51l-11 20zm-51 -199l558 -1031c-64,-34 -138,-54 -223,-54 -336,0 -510,310 -510,612 0,176 59,354 175,473zm671 -945l-558 1030c63,34 138,53 222,53 336,0 510,-310 510,-611 0,-176 -59,-354 -174,-472z"/>
 </g>
</svg>
