<?xml version="1.0" encoding="UTF-8"?>
<!DOCTYPE svg PUBLIC "-//W3C//DTD SVG 1.1//EN" "http://www.w3.org/Graphics/SVG/1.1/DTD/svg11.dtd">
<!-- Creator: CorelDRAW X8 -->
<svg xmlns="http://www.w3.org/2000/svg" xml:space="preserve" width="1181px" height="1405px" version="1.1" style="shape-rendering:geometricPrecision; text-rendering:geometricPrecision; image-rendering:optimizeQuality; fill-rule:evenodd; clip-rule:evenodd"
viewBox="0 0 1181 1405"
 xmlns:xlink="http://www.w3.org/1999/xlink">
 <defs>
  <style type="text/css">
   <![CDATA[
    .fil0 {fill:#CC6633;fill-rule:nonzero}
   ]]>
  </style>
 </defs>
 <g id="Layer_x0020_1">
  <metadata id="CorelCorpID_0Corel-Layer"/>
  <path class="fil0" d="M590 0c398,0 591,382 591,733 0,219 -74,442 -247,581l139 0c45,-1 82,20 82,45 0,25 -37,45 -82,45l-320 1c-27,0 -53,-6 -70,-18 -11,-9 -17,-18 -17,-28 1,-14 12,-27 32,-36 226,-96 318,-348 320,-585 2,-250 -131,-647 -427,-647 -295,0 -428,392 -428,641 0,239 92,494 320,591 20,9 31,22 32,35 0,10 -6,20 -17,29 -23,17 -52,18 -79,18l-309 0c-45,0 -81,-21 -81,-46 0,-25 36,-45 81,-45l137 0c-173,-139 -247,-362 -247,-581 0,-351 193,-733 590,-733z"/>
 </g>
</svg>
