<?xml version="1.0" encoding="UTF-8"?>
<!DOCTYPE svg PUBLIC "-//W3C//DTD SVG 1.1//EN" "http://www.w3.org/Graphics/SVG/1.1/DTD/svg11.dtd">
<!-- Creator: CorelDRAW X8 -->
<svg xmlns="http://www.w3.org/2000/svg" xml:space="preserve" width="1181px" height="1405px" version="1.1" style="shape-rendering:geometricPrecision; text-rendering:geometricPrecision; image-rendering:optimizeQuality; fill-rule:evenodd; clip-rule:evenodd"
viewBox="0 0 1181 1405"
 xmlns:xlink="http://www.w3.org/1999/xlink">
 <defs>
  <style type="text/css">
   <![CDATA[
    .fil0 {fill:#009846;fill-rule:nonzero}
   ]]>
  </style>
 </defs>
 <g id="Layer_x0020_1">
  <metadata id="CorelCorpID_0Corel-Layer"/>
  <path class="fil0" d="M590 0c398,0 591,382 591,733 0,219 -73,442 -247,581l140 0c44,0 81,20 81,45 0,25 -37,46 -81,46l-321 0c-27,0 -87,-10 -87,-46 1,-13 12,-27 32,-36 226,-96 318,-348 320,-585 2,-250 -131,-647 -428,-647 -294,0 -427,392 -427,641 0,239 92,494 320,591 20,9 31,22 32,36 1,40 -68,46 -96,46l-309 0c-45,0 -82,-20 -82,-46 0,-25 37,-45 82,-45l137 0c-174,-139 -247,-362 -247,-581 0,-351 193,-733 590,-733z"/>
 </g>
</svg>
