<?xml version="1.0" encoding="UTF-8"?>
<!DOCTYPE svg PUBLIC "-//W3C//DTD SVG 1.1//EN" "http://www.w3.org/Graphics/SVG/1.1/DTD/svg11.dtd">
<!-- Creator: CorelDRAW X8 -->
<svg xmlns="http://www.w3.org/2000/svg" xml:space="preserve" width="2297px" height="1024px" version="1.1" style="shape-rendering:geometricPrecision; text-rendering:geometricPrecision; image-rendering:optimizeQuality; fill-rule:evenodd; clip-rule:evenodd"
viewBox="0 0 2297 1024"
 xmlns:xlink="http://www.w3.org/1999/xlink">
 <defs>
  <style type="text/css">
   <![CDATA[
    .fil0 {fill:#2B2A29;fill-rule:nonzero}
   ]]>
  </style>
 </defs>
 <g id="Layer_x0020_1">
  <metadata id="CorelCorpID_0Corel-Layer"/>
  <path class="fil0" d="M1925 1024c118,0 231,-50 299,-163 53,-87 73,-189 73,-290 0,-131 -35,-256 -116,-360 -104,-133 -256,-211 -472,-211 -132,0 -274,39 -363,125 -95,-98 -238,-125 -370,-125 -69,0 -141,7 -207,25 -65,-13 -137,-25 -205,-25 -150,0 -302,50 -410,158 -106,105 -154,247 -154,394 0,172 69,359 215,456 16,10 39,16 62,16 19,0 38,-4 53,-11 19,-9 28,-22 28,-34 0,-11 -6,-21 -19,-30 -123,-81 -177,-260 -177,-404 0,-152 61,-299 189,-387 85,-57 149,-65 250,-65 -158,100 -223,259 -223,440 0,106 21,212 74,304 71,124 185,187 329,187 176,0 317,-102 317,-288 0,-120 -68,-182 -148,-216 77,-47 122,-122 122,-213 0,-93 -45,-167 -123,-217l35 -2c180,0 272,132 272,303l0 587c0,25 37,46 82,46 45,0 81,-21 81,-46l0 -587c0,-182 103,-301 290,-301 95,0 195,35 269,100 -128,16 -246,74 -325,178 -59,78 -90,179 -90,277 0,84 22,165 65,230 67,102 177,149 297,149zm-1143 -91c-94,0 -161,-83 -195,-162 -32,-73 -47,-158 -47,-238 0,-175 67,-334 237,-408 82,31 132,90 132,182 0,92 -55,160 -143,174 -19,3 -37,3 -55,4 -48,4 -71,24 -71,45 0,22 29,45 79,45l51 0c58,5 166,32 166,162 0,92 -48,196 -154,196zm1142 0c-62,-1 -111,-40 -144,-90 -36,-54 -54,-124 -54,-198 0,-86 25,-173 77,-242 60,-80 149,-126 249,-126 59,86 82,189 82,292 0,91 -16,185 -64,263 -40,67 -90,101 -146,101z"/>
 </g>
</svg>
