<?xml version="1.0" encoding="UTF-8"?>
<!DOCTYPE svg PUBLIC "-//W3C//DTD SVG 1.1//EN" "http://www.w3.org/Graphics/SVG/1.1/DTD/svg11.dtd">
<!-- Creator: CorelDRAW X8 -->
<svg xmlns="http://www.w3.org/2000/svg" xml:space="preserve" width="2622px" height="1412px" version="1.1" style="shape-rendering:geometricPrecision; text-rendering:geometricPrecision; image-rendering:optimizeQuality; fill-rule:evenodd; clip-rule:evenodd"
viewBox="0 0 2622 1412"
 xmlns:xlink="http://www.w3.org/1999/xlink">
 <defs>
  <style type="text/css">
   <![CDATA[
    .fil0 {fill:#2B2A29;fill-rule:nonzero}
   ]]>
  </style>
 </defs>
 <g id="Layer_x0020_1">
  <metadata id="CorelCorpID_0Corel-Layer"/>
  <path class="fil0" d="M1924 1023c118,0 231,-50 299,-163 53,-87 73,-189 73,-289 0,-79 -13,-156 -40,-227 146,106 203,289 203,463 0,246 -130,514 -409,514 -82,0 -170,-23 -235,-75 -17,-13 -42,-19 -66,-19 -17,0 -34,3 -47,8 -20,8 -35,22 -35,38 0,8 5,17 15,25 100,80 231,114 357,114 375,0 583,-254 583,-611 0,-289 -152,-542 -452,-603 -105,-125 -253,-198 -462,-198 -132,0 -274,39 -363,125 -95,-98 -238,-125 -369,-125 -69,0 -141,7 -207,25 -65,-13 -137,-25 -205,-25 -150,0 -302,50 -410,158 -106,105 -154,246 -154,394 0,172 69,359 215,455 16,11 39,16 62,16 19,0 38,-4 53,-11 19,-9 28,-22 28,-34 0,-11 -6,-21 -19,-30 -123,-81 -177,-260 -177,-403 0,-152 61,-300 189,-387 85,-58 149,-65 250,-65 -158,100 -223,259 -223,440 0,105 21,211 74,303 71,124 185,187 329,187 176,0 317,-102 317,-287 0,-120 -68,-182 -148,-216 77,-47 122,-122 122,-213 0,-93 -45,-167 -123,-217l35 -2c180,-10 272,132 272,303l0 586c0,25 36,46 81,46 45,0 81,-21 81,-46l0 -586c0,-183 104,-301 290,-301 95,0 195,35 269,100 -128,16 -246,74 -325,178 -59,78 -90,179 -90,277 0,83 22,165 65,229 67,102 178,149 297,149zm-1142 -91c-94,0 -161,-83 -195,-162 -32,-73 -47,-157 -47,-237 0,-175 67,-334 237,-408 82,31 132,90 132,182 0,92 -55,160 -143,174 -19,3 -37,2 -55,4 -49,4 -71,24 -71,44 0,23 29,46 79,46l51 0c58,0 166,32 166,161 0,93 -49,196 -154,196zm1141 0c-62,0 -111,-40 -144,-90 -36,-54 -54,-124 -54,-197 0,-86 25,-173 77,-242 60,-80 149,-126 249,-126 59,86 82,189 82,292 0,91 -16,184 -64,262 -40,67 -90,102 -146,101z"/>
 </g>
</svg>
