<?xml version="1.0" encoding="UTF-8"?>
<!DOCTYPE svg PUBLIC "-//W3C//DTD SVG 1.1//EN" "http://www.w3.org/Graphics/SVG/1.1/DTD/svg11.dtd">
<!-- Creator: CorelDRAW X8 -->
<svg xmlns="http://www.w3.org/2000/svg" xml:space="preserve" width="1648px" height="1412px" version="1.1" style="shape-rendering:geometricPrecision; text-rendering:geometricPrecision; image-rendering:optimizeQuality; fill-rule:evenodd; clip-rule:evenodd"
viewBox="0 0 1648 1412"
 xmlns:xlink="http://www.w3.org/1999/xlink">
 <defs>
  <style type="text/css">
   <![CDATA[
    .fil0 {fill:#2B2A29;fill-rule:nonzero}
   ]]>
  </style>
 </defs>
 <g id="Layer_x0020_1">
  <metadata id="CorelCorpID_0Corel-Layer"/>
  <path class="fil0" d="M1491 1412c45,0 82,-31 82,-69 0,-38 -37,-69 -82,-69l-1193 0c-71,0 -133,-41 -133,-116 0,-79 62,-116 133,-116l719 0c197,0 426,-47 545,-218 63,-90 86,-208 86,-319 0,-126 -28,-261 -111,-360 -88,-105 -216,-145 -349,-145 -142,0 -252,50 -321,140 -91,-109 -239,-140 -375,-140 -125,0 -258,28 -355,112 -100,86 -137,209 -137,337 0,74 14,144 44,202 49,96 139,161 281,161 81,0 162,-27 221,-75 62,-52 94,-124 95,-200 0,-76 -30,-157 -93,-209 -53,-44 -129,-67 -208,-67l-15 0c-60,2 -112,22 -156,61 5,-73 51,-133 107,-174 59,-43 137,-58 208,-58 93,0 188,29 241,93 43,52 64,124 64,213l0 371c0,25 36,45 81,45 45,0 82,-20 82,-45l0 -371c0,-82 19,-167 73,-231 44,-52 99,-74 163,-74 81,0 149,30 202,92 73,87 96,211 96,322 -1,98 -21,208 -75,286 -94,135 -241,160 -394,160l-719 0c-141,0 -297,71 -297,230 0,169 151,231 297,231l1193 0zm-1163 -695c-100,0 -148,-90 -148,-180 0,-90 50,-180 148,-180 99,0 148,90 148,181 0,90 -50,179 -148,179z"/>
 </g>
</svg>
