<?xml version="1.0" encoding="UTF-8"?>
<!DOCTYPE svg PUBLIC "-//W3C//DTD SVG 1.1//EN" "http://www.w3.org/Graphics/SVG/1.1/DTD/svg11.dtd">
<!-- Creator: CorelDRAW X8 -->
<svg xmlns="http://www.w3.org/2000/svg" xml:space="preserve" width="1118px" height="1412px" version="1.1" style="shape-rendering:geometricPrecision; text-rendering:geometricPrecision; image-rendering:optimizeQuality; fill-rule:evenodd; clip-rule:evenodd"
viewBox="0 0 1118 1412"
 xmlns:xlink="http://www.w3.org/1999/xlink">
 <defs>
  <style type="text/css">
   <![CDATA[
    .fil0 {fill:#2B2A29;fill-rule:nonzero}
   ]]>
  </style>
 </defs>
 <g id="Layer_x0020_1">
  <metadata id="CorelCorpID_0Corel-Layer"/>
  <path class="fil0" d="M988 1412c45,0 82,-31 82,-69 0,-38 -37,-69 -82,-69l-691 0c-71,0 -133,-41 -133,-116 0,-79 62,-117 133,-117l269 0c123,0 245,-24 341,-87 148,-99 211,-265 211,-436 0,-122 -38,-243 -117,-338 -112,-134 -295,-180 -463,-180 -138,0 -272,40 -371,115 -102,77 -167,192 -167,344l1 30c6,98 41,180 101,237 63,61 141,87 227,87 87,0 179,-27 242,-90 51,-51 78,-120 78,-192 0,-76 -30,-151 -92,-202 -53,-44 -129,-67 -208,-67 -71,0 -132,20 -182,73 19,-74 59,-130 113,-170 67,-50 157,-74 252,-74 128,0 258,43 338,148 57,73 85,170 85,279 0,132 -35,266 -142,354 -64,53 -146,78 -247,78l-269 0c-141,0 -297,72 -297,231 0,169 151,231 297,231l691 0zm-651 -694c-102,0 -148,-89 -148,-180 0,-89 49,-180 148,-180 99,0 148,91 148,181 0,90 -50,179 -148,179z"/>
 </g>
</svg>
