<?xml version="1.0" encoding="UTF-8"?>
<!DOCTYPE svg PUBLIC "-//W3C//DTD SVG 1.1//EN" "http://www.w3.org/Graphics/SVG/1.1/DTD/svg11.dtd">
<!-- Creator: CorelDRAW X8 -->
<svg xmlns="http://www.w3.org/2000/svg" xml:space="preserve" width="1118px" height="1412px" version="1.1" style="shape-rendering:geometricPrecision; text-rendering:geometricPrecision; image-rendering:optimizeQuality; fill-rule:evenodd; clip-rule:evenodd"
viewBox="0 0 1118 1412"
 xmlns:xlink="http://www.w3.org/1999/xlink">
 <defs>
  <style type="text/css">
   <![CDATA[
    .fil0 {fill:#009846;fill-rule:nonzero}
   ]]>
  </style>
 </defs>
 <g id="Layer_x0020_1">
  <metadata id="CorelCorpID_0Corel-Layer"/>
  <path class="fil0" d="M543 91c-99,-2 -193,22 -263,74 -54,40 -94,96 -113,170 44,-47 102,-71 167,-73 85,-3 167,20 223,67 64,53 94,131 92,209 -1,67 -28,135 -78,185 -55,55 -143,90 -237,90 -88,1 -168,-25 -232,-87 -60,-57 -95,-139 -101,-237 -9,-167 58,-292 166,-374 100,-76 236,-116 376,-115 165,0 348,49 458,180 86,103 123,237 116,370 -8,157 -76,315 -210,404 -96,63 -218,87 -341,87l-269 0c-71,0 -133,38 -133,117 0,75 62,116 133,116l691 0c45,0 82,31 82,69 0,38 -37,69 -82,69l-691 0c-147,0 -295,-62 -297,-229 -1,-161 156,-233 297,-233l269 0c101,0 183,-25 247,-78 91,-75 135,-198 141,-322 6,-122 -22,-231 -84,-311 -77,-101 -203,-146 -327,-148zm-206 267c-100,0 -149,93 -148,183 0,90 49,177 148,177 98,0 148,-89 148,-179 0,-90 -49,-181 -148,-181z"/>
 </g>
</svg>
