<?xml version="1.0" encoding="UTF-8"?>
<!DOCTYPE svg PUBLIC "-//W3C//DTD SVG 1.1//EN" "http://www.w3.org/Graphics/SVG/1.1/DTD/svg11.dtd">
<!-- Creator: CorelDRAW X8 -->
<svg xmlns="http://www.w3.org/2000/svg" xml:space="preserve" width="1357px" height="1412px" version="1.1" style="shape-rendering:geometricPrecision; text-rendering:geometricPrecision; image-rendering:optimizeQuality; fill-rule:evenodd; clip-rule:evenodd"
viewBox="0 0 1357 1412"
 xmlns:xlink="http://www.w3.org/1999/xlink">
 <defs>
  <style type="text/css">
   <![CDATA[
    .fil0 {fill:#2B2A29;fill-rule:nonzero}
   ]]>
  </style>
 </defs>
 <g id="Layer_x0020_1">
  <metadata id="CorelCorpID_0Corel-Layer"/>
  <path class="fil0" d="M682 1412c212,0 607,-89 607,-361 0,-114 -93,-222 -286,-279 54,-15 105,-36 150,-64 104,-65 170,-158 194,-267 7,-31 10,-63 10,-96 0,-192 -99,-345 -308,-345 -86,0 -172,29 -235,91 -48,48 -78,113 -78,184 0,91 36,162 93,209 53,44 124,68 204,68 56,0 109,-13 155,-46 -95,192 -324,214 -514,214 -188,0 -411,-26 -505,-214 46,33 99,46 155,46 80,0 151,-24 204,-68 57,-47 93,-118 93,-209 0,-71 -30,-136 -78,-184 -57,-56 -139,-91 -235,-91 -208,0 -308,153 -308,345 0,33 3,65 10,96 24,109 90,202 194,267 45,28 96,49 150,64 -193,57 -286,165 -286,279 0,277 403,361 614,361zm-373 -956c-101,0 -150,-90 -150,-181 0,-89 51,-180 150,-180 101,0 150,91 150,181 0,90 -50,180 -150,180zm739 0c-101,0 -150,-90 -150,-181 0,-89 50,-180 150,-180 100,0 150,91 150,181 0,90 -51,180 -150,180zm-366 865c-289,0 -450,-135 -451,-266 0,-199 293,-245 443,-245 149,0 452,48 452,245 -1,131 -156,266 -444,266z"/>
 </g>
</svg>
