<?xml version="1.0" encoding="UTF-8"?>
<!DOCTYPE svg PUBLIC "-//W3C//DTD SVG 1.1//EN" "http://www.w3.org/Graphics/SVG/1.1/DTD/svg11.dtd">
<!-- Creator: CorelDRAW X8 -->
<svg xmlns="http://www.w3.org/2000/svg" xml:space="preserve" width="1357px" height="1412px" version="1.1" style="shape-rendering:geometricPrecision; text-rendering:geometricPrecision; image-rendering:optimizeQuality; fill-rule:evenodd; clip-rule:evenodd"
viewBox="0 0 1357 1412"
 xmlns:xlink="http://www.w3.org/1999/xlink">
 <defs>
  <style type="text/css">
   <![CDATA[
    .fil0 {fill:#CC6633;fill-rule:nonzero}
   ]]>
  </style>
 </defs>
 <g id="Layer_x0020_1">
  <metadata id="CorelCorpID_0Corel-Layer"/>
  <path class="fil0" d="M159 275c0,-90 47,-183 150,-180 74,2 150,63 150,180 0,122 -74,182 -150,181 -74,-2 -150,-62 -150,-181zm10 231c40,29 90,44 141,46 85,3 162,-21 218,-68 57,-47 93,-118 93,-209 0,-71 -30,-136 -78,-184 -57,-56 -139,-91 -235,-91 -181,0 -283,115 -304,281 -7,56 -5,109 6,160 24,109 90,202 194,267 45,28 96,49 150,64 -195,58 -288,167 -286,283 2,177 219,357 614,357 207,0 604,-87 607,-357 2,-116 -91,-225 -286,-283 54,-15 105,-36 150,-64 104,-65 170,-158 194,-267 11,-51 13,-104 6,-160 -21,-166 -123,-281 -304,-281 -86,0 -172,29 -235,91 -48,48 -78,113 -78,184 0,91 36,162 93,209 56,47 133,71 218,68 51,-2 101,-17 141,-46 -95,191 -319,213 -509,214 -189,1 -415,-25 -510,-214zm879 -411c103,-3 150,90 150,180 0,119 -76,179 -150,181 -76,1 -150,-59 -150,-181 0,-91 56,-177 150,-180zm-366 1226c-289,0 -450,-135 -451,-266 0,-200 300,-247 448,-245 146,2 447,47 447,245 -1,131 -156,266 -444,266z"/>
 </g>
</svg>
