<?xml version="1.0" encoding="UTF-8"?>
<!DOCTYPE svg PUBLIC "-//W3C//DTD SVG 1.1//EN" "http://www.w3.org/Graphics/SVG/1.1/DTD/svg11.dtd">
<!-- Creator: CorelDRAW X8 -->
<svg xmlns="http://www.w3.org/2000/svg" xml:space="preserve" width="1882px" height="1024px" version="1.1" style="shape-rendering:geometricPrecision; text-rendering:geometricPrecision; image-rendering:optimizeQuality; fill-rule:evenodd; clip-rule:evenodd"
viewBox="0 0 1882 1024"
 xmlns:xlink="http://www.w3.org/1999/xlink">
 <defs>
  <style type="text/css">
   <![CDATA[
    .fil0 {fill:#434242;fill-rule:nonzero}
   ]]>
  </style>
 </defs>
 <g id="Layer_x0020_1">
  <metadata id="CorelCorpID_0Corel-Layer"/>
  <path class="fil0" d="M1509 1024c118,0 232,-50 300,-163 53,-87 73,-185 73,-286 0,-131 -35,-260 -116,-364 -104,-133 -256,-211 -472,-211 -146,0 -271,37 -373,147 -89,-110 -261,-147 -396,-147 -216,0 -382,103 -465,267 -39,78 -60,171 -60,273 0,156 48,317 159,408 64,52 135,75 216,75 81,0 166,-25 229,-77 74,-61 105,-155 105,-249 0,-82 -28,-155 -78,-209 -58,-61 -146,-97 -240,-97 -95,0 -176,41 -230,119 1,-73 18,-145 50,-210 59,-119 169,-209 314,-209 187,0 317,108 317,301l0 586c0,25 37,46 81,46 45,0 81,-21 81,-46l0 -586c0,-181 105,-302 290,-302 95,0 195,35 269,100 -128,16 -245,74 -324,178 -59,78 -91,179 -91,277 0,84 22,165 65,230 68,102 178,149 296,149zm0 -91c-62,0 -111,-40 -144,-90 -36,-54 -54,-124 -54,-198 0,-86 25,-173 77,-242 60,-80 149,-126 249,-126 60,88 83,193 83,298 0,87 -20,183 -65,257 -40,67 -90,101 -146,101zm-1127 -1c-124,0 -176,-113 -176,-222 0,-148 87,-222 174,-222 87,0 174,74 174,222 0,148 -88,222 -172,222z"/>
 </g>
</svg>
