<?xml version="1.0" encoding="UTF-8"?>
<!DOCTYPE svg PUBLIC "-//W3C//DTD SVG 1.1//EN" "http://www.w3.org/Graphics/SVG/1.1/DTD/svg11.dtd">
<!-- Creator: CorelDRAW X8 -->
<svg xmlns="http://www.w3.org/2000/svg" xml:space="preserve" width="1154px" height="600px" version="1.1" style="shape-rendering:geometricPrecision; text-rendering:geometricPrecision; image-rendering:optimizeQuality; fill-rule:evenodd; clip-rule:evenodd"
viewBox="0 0 1154 600"
 xmlns:xlink="http://www.w3.org/1999/xlink">
 <defs>
  <style type="text/css">
   <![CDATA[
    .fil0 {fill:#009846;fill-rule:nonzero}
   ]]>
  </style>
 </defs>
 <g id="Layer_x0020_1">
  <metadata id="CorelCorpID_0Corel-Layer"/>
  <path class="fil0" d="M567 67c56,-47 146,-67 217,-67 115,0 226,33 300,125 50,62 71,137 70,216 -1,56 -14,114 -44,162 -43,68 -114,98 -194,97 -74,-1 -145,-26 -188,-89 -27,-39 -39,-87 -39,-134 0,-57 19,-116 54,-161 47,-61 118,-93 192,-104 -40,-34 -97,-54 -150,-53 -92,2 -157,63 -157,156l0 355c0,24 -44,30 -61,30 -18,0 -62,-6 -62,-30l0 -349c0,-102 -75,-163 -179,-162 -77,0 -141,52 -175,119 -14,28 -23,59 -27,91 32,-28 72,-41 115,-42 59,-2 122,15 164,59 34,35 49,80 47,129 -1,52 -22,104 -63,138 -41,32 -94,46 -146,47 -53,0 -103,-12 -145,-46 -69,-55 -96,-152 -96,-238 0,-55 11,-109 36,-159 57,-109 171,-156 289,-157 83,-1 176,13 242,67zm-419 348c0,40 11,70 29,91 19,24 41,35 64,35 21,-1 41,-11 59,-30 22,-24 33,-61 33,-97 0,-36 -11,-72 -33,-95 -18,-20 -39,-30 -59,-30 -23,0 -46,12 -64,35 -17,21 -29,51 -29,91zm768 126c36,0 62,-22 80,-54 23,-40 35,-93 35,-146 0,-64 -16,-128 -47,-174 -59,4 -101,33 -130,74 -26,38 -39,85 -41,132 -2,37 4,74 17,103 17,38 46,64 86,65z"/>
 </g>
</svg>
