<?xml version="1.0" encoding="UTF-8"?>
<!DOCTYPE svg PUBLIC "-//W3C//DTD SVG 1.1//EN" "http://www.w3.org/Graphics/SVG/1.1/DTD/svg11.dtd">
<!-- Creator: CorelDRAW X8 -->
<svg xmlns="http://www.w3.org/2000/svg" xml:space="preserve" width="1154px" height="600px" version="1.1" style="shape-rendering:geometricPrecision; text-rendering:geometricPrecision; image-rendering:optimizeQuality; fill-rule:evenodd; clip-rule:evenodd"
viewBox="0 0 1154 600"
 xmlns:xlink="http://www.w3.org/1999/xlink">
 <defs>
  <style type="text/css">
   <![CDATA[
    .fil0 {fill:#434242;fill-rule:nonzero}
   ]]>
  </style>
 </defs>
 <g id="Layer_x0020_1">
  <metadata id="CorelCorpID_0Corel-Layer"/>
  <path class="fil0" d="M916 600c78,0 152,-30 194,-97 31,-49 44,-104 44,-162 0,-77 -21,-155 -70,-216 -74,-92 -180,-125 -295,-125 -71,0 -166,20 -222,67 -64,-52 -157,-67 -238,-67 -121,0 -235,44 -293,157 -26,50 -36,104 -36,159 0,86 27,183 96,238 42,34 92,47 145,46 52,0 105,-14 146,-47 45,-36 63,-91 63,-147 0,-45 -15,-87 -47,-120 -40,-42 -98,-59 -155,-59 -47,0 -88,11 -124,42 4,-32 13,-63 27,-91 35,-69 98,-119 178,-119 102,0 176,61 176,162l0 349c0,24 44,30 62,30 17,0 61,-6 61,-30l0 -355c0,-95 68,-156 161,-156 52,0 107,20 146,53 -74,11 -145,43 -192,104 -35,45 -54,104 -54,161 0,47 12,95 39,134 44,64 117,89 188,89zm0 -59c-40,0 -69,-27 -86,-65 -11,-25 -17,-67 -17,-99 0,-52 11,-93 41,-136 29,-41 71,-70 130,-74 31,46 47,110 47,174 0,53 -12,106 -35,146 -18,32 -44,54 -80,54zm-675 0c-42,1 -93,-44 -93,-126 0,-80 50,-126 93,-126 46,0 92,55 92,125 0,36 -11,73 -33,97 -18,19 -38,30 -59,30z"/>
 </g>
</svg>
