<?xml version="1.0" encoding="UTF-8"?>
<!DOCTYPE svg PUBLIC "-//W3C//DTD SVG 1.1//EN" "http://www.w3.org/Graphics/SVG/1.1/DTD/svg11.dtd">
<!-- Creator: CorelDRAW X8 -->
<svg xmlns="http://www.w3.org/2000/svg" xml:space="preserve" width="1918px" height="1024px" version="1.1" style="shape-rendering:geometricPrecision; text-rendering:geometricPrecision; image-rendering:optimizeQuality; fill-rule:evenodd; clip-rule:evenodd"
viewBox="0 0 1918 1024"
 xmlns:xlink="http://www.w3.org/1999/xlink">
 <defs>
  <style type="text/css">
   <![CDATA[
    .fil0 {fill:#CC6633;fill-rule:nonzero}
   ]]>
  </style>
 </defs>
 <g id="Layer_x0020_1">
  <metadata id="CorelCorpID_0Corel-Layer"/>
  <path class="fil0" d="M1322 0c216,0 376,78 480,211 83,107 118,236 116,371 -2,99 -24,198 -73,279 -69,114 -183,164 -302,163 -118,-1 -227,-48 -294,-149 -43,-65 -65,-146 -65,-230 0,-98 31,-199 90,-278 78,-103 197,-161 324,-177 -75,-67 -179,-102 -276,-100 -189,4 -282,133 -282,302l0 586c0,25 -36,45 -81,45 -45,0 -82,-20 -82,-45l0 -586c0,-169 -92,-298 -281,-302 -97,-2 -201,33 -276,100 127,16 246,74 324,177 59,79 90,180 90,278 0,84 -22,165 -65,230 -67,101 -176,148 -294,149 -119,1 -233,-49 -302,-163 -49,-81 -71,-180 -73,-279 -2,-135 33,-264 116,-371 104,-133 264,-211 480,-211 152,0 263,38 363,144 100,-106 211,-144 363,-144zm-1077 277c-61,90 -84,197 -82,305 1,88 20,178 64,250 41,67 90,101 146,101 62,-1 111,-40 144,-90 36,-54 55,-124 55,-198 0,-86 -25,-173 -78,-242 -60,-80 -149,-126 -249,-126zm1428 0c-100,0 -189,46 -249,126 -53,69 -78,156 -78,242 0,74 19,144 55,198 33,50 82,89 144,90 56,0 105,-34 146,-101 44,-72 63,-162 64,-250 2,-108 -21,-215 -82,-305z"/>
 </g>
</svg>
