<?xml version="1.0" encoding="UTF-8"?>
<!DOCTYPE svg PUBLIC "-//W3C//DTD SVG 1.1//EN" "http://www.w3.org/Graphics/SVG/1.1/DTD/svg11.dtd">
<!-- Creator: CorelDRAW X8 -->
<svg xmlns="http://www.w3.org/2000/svg" xml:space="preserve" width="2004px" height="1400px" version="1.1" style="shape-rendering:geometricPrecision; text-rendering:geometricPrecision; image-rendering:optimizeQuality; fill-rule:evenodd; clip-rule:evenodd"
viewBox="0 0 2004 1400"
 xmlns:xlink="http://www.w3.org/1999/xlink">
 <defs>
  <style type="text/css">
   <![CDATA[
    .fil0 {fill:#CC6633;fill-rule:nonzero}
   ]]>
  </style>
 </defs>
 <g id="Layer_x0020_1">
  <metadata id="CorelCorpID_0Corel-Layer"/>
  <path class="fil0" d="M1650 874c-45,-1 -81,-22 -80,-47 1,-25 39,-45 83,-44 20,0 42,-3 57,-8 96,-32 126,-194 126,-285 0,-215 -160,-399 -381,-399 -322,0 -424,363 -432,627 -2,64 0,130 6,190l301 0 0 -633c0,-26 37,-46 82,-46 45,0 81,20 81,46l0 678c0,89 3,216 -23,301 -28,94 -90,149 -222,146 -234,-6 -331,-199 -368,-400l-373 0c-45,0 -82,-21 -82,-46 0,-14 11,-25 23,-32 65,-38 91,-115 91,-186 0,-135 -93,-208 -187,-208 -94,0 -189,73 -189,208 0,77 32,162 106,195 20,9 31,22 31,35 0,10 -6,20 -18,29 -32,22 -83,21 -117,6 -106,-49 -165,-150 -165,-265 0,-197 177,-299 352,-299 175,0 350,103 350,299 0,64 -17,124 -52,172l217 0c-7,-61 -9,-126 -7,-190 12,-376 172,-718 595,-718 288,0 543,188 544,490 0,119 -33,257 -136,328 96,53 142,156 141,263 -2,188 -118,316 -310,318 -49,0 -92,-9 -126,-21 -24,-9 -38,-23 -38,-38 0,-9 4,-17 13,-25 16,-14 43,-21 70,-21 15,0 29,3 42,7 11,4 24,7 39,6 104,-1 147,-142 147,-226 1,-77 -38,-203 -131,-208 -17,-1 -36,1 -60,1zm-607 126c20,100 84,302 205,309 51,2 71,-83 78,-166 6,-61 4,-121 4,-143l-287 0z"/>
 </g>
</svg>
