<?xml version="1.0" encoding="UTF-8"?>
<!DOCTYPE svg PUBLIC "-//W3C//DTD SVG 1.1//EN" "http://www.w3.org/Graphics/SVG/1.1/DTD/svg11.dtd">
<!-- Creator: CorelDRAW X8 -->
<svg xmlns="http://www.w3.org/2000/svg" xml:space="preserve" width="2004px" height="1400px" version="1.1" style="shape-rendering:geometricPrecision; text-rendering:geometricPrecision; image-rendering:optimizeQuality; fill-rule:evenodd; clip-rule:evenodd"
viewBox="0 0 2004 1400"
 xmlns:xlink="http://www.w3.org/1999/xlink">
 <defs>
  <style type="text/css">
   <![CDATA[
    .fil0 {fill:#2B2A29;fill-rule:nonzero}
   ]]>
  </style>
 </defs>
 <g id="Layer_x0020_1">
  <metadata id="CorelCorpID_0Corel-Layer"/>
  <path class="fil0" d="M1258 1400c125,0 185,-54 212,-146 21,-69 23,-166 23,-247l0 -732c0,-26 -36,-46 -81,-46 -45,0 -82,20 -82,46l0 633 -301 0c-4,-45 -8,-93 -7,-142 5,-272 86,-675 433,-675 229,0 381,173 381,399 0,96 -30,270 -146,290 -13,2 -27,3 -40,3 -43,0 -79,20 -80,44 0,35 54,47 80,47 15,0 30,-1 43,-1 107,0 148,114 148,205 0,91 -41,229 -153,229 -26,0 -46,-13 -77,-13 -13,0 -34,3 -51,11 -16,7 -30,18 -30,34 0,17 18,32 38,39 34,12 77,22 126,21 192,-1 310,-131 310,-321 0,-106 -46,-208 -141,-260 103,-71 137,-209 136,-328 0,-316 -249,-490 -544,-490 -453,0 -589,378 -596,765 -1,48 3,97 8,143l-217 0c35,-48 52,-108 52,-172 0,-196 -175,-299 -350,-299 -175,0 -352,102 -352,299 0,115 59,216 165,265 16,7 35,11 55,11 22,0 45,-5 62,-17 12,-9 18,-19 18,-28 0,-14 -12,-28 -31,-36 -74,-33 -106,-118 -106,-195 0,-135 95,-208 189,-208 94,0 187,73 187,208 0,71 -26,148 -91,186 -12,7 -23,18 -23,32 0,25 37,46 82,46l373 0c38,208 139,400 378,400zm-8 -91c-121,0 -188,-215 -207,-309l287 0 0 42c0,62 -2,267 -80,267z"/>
 </g>
</svg>
