<?xml version="1.0" encoding="UTF-8"?>
<!DOCTYPE svg PUBLIC "-//W3C//DTD SVG 1.1//EN" "http://www.w3.org/Graphics/SVG/1.1/DTD/svg11.dtd">
<!-- Creator: CorelDRAW X8 -->
<svg xmlns="http://www.w3.org/2000/svg" xml:space="preserve" width="1201px" height="1024px" version="1.1" style="shape-rendering:geometricPrecision; text-rendering:geometricPrecision; image-rendering:optimizeQuality; fill-rule:evenodd; clip-rule:evenodd"
viewBox="0 0 1201 1023"
 xmlns:xlink="http://www.w3.org/1999/xlink">
 <defs>
  <style type="text/css">
   <![CDATA[
    .fil0 {fill:#898778;fill-rule:nonzero}
   ]]>
  </style>
 </defs>
 <g id="Layer_x0020_1">
  <metadata id="CorelCorpID_0Corel-Layer"/>
  <path class="fil0" d="M693 709c-2,90 -36,180 -105,237 -58,48 -140,76 -224,77 -140,2 -248,-63 -311,-190 -48,-97 -57,-207 -51,-313 9,-183 95,-315 219,-400 114,-77 261,-116 413,-120 113,-2 241,16 344,64 112,53 190,136 193,264 2,83 -39,154 -110,197 85,45 141,125 140,223 -1,56 -22,115 -65,168 -58,72 -159,105 -249,107 -46,1 -89,-6 -138,-23 -29,-10 -55,-37 -26,-63 27,-24 79,-26 112,-14 19,6 36,9 52,9 40,0 77,-23 102,-53 33,-41 49,-87 49,-131 1,-53 -20,-105 -61,-138 -23,-19 -54,-31 -90,-34 -17,-1 -32,2 -50,1 -35,-3 -64,-18 -69,-39 -7,-24 24,-48 68,-51 17,-2 36,-1 51,-3 32,-6 58,-19 77,-38 32,-30 46,-74 45,-118 -3,-73 -39,-126 -91,-164 -70,-50 -180,-74 -284,-73 -141,3 -258,42 -341,120 -66,64 -110,153 -125,269 51,-56 119,-87 196,-90 98,-3 191,34 251,98 53,56 81,133 78,221zm-504 0c0,148 85,223 175,223 85,0 174,-73 174,-223 1,-148 -86,-222 -174,-222 -87,0 -174,74 -175,222z"/>
 </g>
</svg>
