<?xml version="1.0" encoding="UTF-8"?>
<!DOCTYPE svg PUBLIC "-//W3C//DTD SVG 1.1//EN" "http://www.w3.org/Graphics/SVG/1.1/DTD/svg11.dtd">
<!-- Creator: CorelDRAW X8 -->
<svg xmlns="http://www.w3.org/2000/svg" xml:space="preserve" width="1727px" height="1024px" version="1.1" style="shape-rendering:geometricPrecision; text-rendering:geometricPrecision; image-rendering:optimizeQuality; fill-rule:evenodd; clip-rule:evenodd"
viewBox="0 0 1727 1024"
 xmlns:xlink="http://www.w3.org/1999/xlink">
 <defs>
  <style type="text/css">
   <![CDATA[
    .fil0 {fill:#CC6633;fill-rule:nonzero}
   ]]>
  </style>
 </defs>
 <g id="Layer_x0020_1">
  <metadata id="CorelCorpID_0Corel-Layer"/>
  <path class="fil0" d="M864 0c178,0 285,72 345,179 42,76 61,172 66,270l73 0c100,0 200,24 272,78 64,47 107,119 107,219 0,77 -31,140 -80,187 -61,58 -149,90 -237,91 -34,0 -161,-9 -160,-58 0,-17 15,-28 29,-35 15,-7 34,-11 53,-10 29,0 50,12 78,11 49,-1 88,-27 115,-65 25,-34 40,-78 40,-119 1,-46 -13,-94 -43,-132 -36,-45 -93,-76 -174,-76l-72 0c-3,112 -21,223 -70,308 -60,106 -166,176 -342,176 -142,0 -239,-45 -302,-118 -48,75 -132,118 -241,118 -91,0 -181,-31 -243,-91 -53,-53 -79,-122 -78,-191 1,-70 28,-139 80,-191 83,-83 200,-102 289,-102l83 0c5,-98 23,-193 65,-269 61,-108 167,-180 347,-180zm-400 678c-8,-44 -12,-91 -13,-137l-82 0c-37,0 -98,6 -147,55 -37,37 -58,90 -59,144 -2,54 16,108 57,148 30,29 67,45 100,45 36,0 71,-20 95,-46 51,-55 61,-138 49,-209zm650 -137l-500 0c2,103 19,205 62,280 39,67 98,112 188,112 90,0 149,-45 188,-112 43,-76 59,-177 62,-280zm-500 -92l498 1c-4,-90 -21,-176 -58,-243 -39,-70 -99,-116 -190,-116 -92,0 -153,47 -191,116 -37,67 -54,153 -59,242z"/>
 </g>
</svg>
