<?xml version="1.0" encoding="UTF-8"?>
<!DOCTYPE svg PUBLIC "-//W3C//DTD SVG 1.1//EN" "http://www.w3.org/Graphics/SVG/1.1/DTD/svg11.dtd">
<!-- Creator: CorelDRAW X8 -->
<svg xmlns="http://www.w3.org/2000/svg" xml:space="preserve" width="1061px" height="600px" version="1.1" style="shape-rendering:geometricPrecision; text-rendering:geometricPrecision; image-rendering:optimizeQuality; fill-rule:evenodd; clip-rule:evenodd"
viewBox="0 0 1061 600"
 xmlns:xlink="http://www.w3.org/1999/xlink">
 <defs>
  <style type="text/css">
   <![CDATA[
    .fil0 {fill:#2B2A29;fill-rule:nonzero}
   ]]>
  </style>
 </defs>
 <g id="Layer_x0020_1">
  <metadata id="CorelCorpID_0Corel-Layer"/>
  <path class="fil0" d="M861 600c58,0 119,-21 159,-62 25,-26 41,-58 41,-100 0,-47 -16,-84 -42,-111 -49,-51 -130,-66 -198,-66l-31 0c-3,-53 -14,-109 -40,-154 -48,-82 -130,-107 -219,-107 -91,0 -173,25 -220,107 -27,46 -37,102 -40,154l-37 0c-66,0 -137,14 -186,61 -30,29 -48,69 -48,112 0,42 16,82 47,111 41,40 102,55 157,55 54,0 111,-14 147,-57 49,44 115,57 180,57 88,0 170,-24 218,-105 30,-51 40,-116 41,-175l31 0c46,0 83,21 103,54 13,21 17,39 17,64 0,22 -7,48 -17,63 -15,22 -40,40 -64,40 -19,0 -31,-7 -47,-7 -8,0 -19,2 -29,7 -11,4 -20,12 -20,22 0,13 14,22 32,28 24,7 53,9 65,9zm-194 -339l-273 0c4,-95 41,-202 137,-202 98,0 130,111 136,202zm-136 280c-104,0 -134,-121 -138,-221l275 0c-4,98 -34,221 -137,221zm-327 0c-30,0 -50,-19 -64,-43 -12,-20 -18,-45 -18,-65 0,-32 11,-60 31,-80 19,-20 48,-33 81,-33l37 0c1,25 3,51 7,76 2,10 3,21 3,32 0,24 -5,49 -17,70 -15,27 -37,43 -60,43z"/>
 </g>
</svg>
