<?xml version="1.0" encoding="UTF-8"?>
<!DOCTYPE svg PUBLIC "-//W3C//DTD SVG 1.1//EN" "http://www.w3.org/Graphics/SVG/1.1/DTD/svg11.dtd">
<!-- Creator: CorelDRAW X8 -->
<svg xmlns="http://www.w3.org/2000/svg" xml:space="preserve" width="1071px" height="868px" version="1.1" style="shape-rendering:geometricPrecision; text-rendering:geometricPrecision; image-rendering:optimizeQuality; fill-rule:evenodd; clip-rule:evenodd"
viewBox="0 0 1071 868"
 xmlns:xlink="http://www.w3.org/1999/xlink">
 <defs>
  <style type="text/css">
   <![CDATA[
    .fil0 {fill:#2B2A29;fill-rule:nonzero}
   ]]>
  </style>
 </defs>
 <g id="Layer_x0020_1">
  <metadata id="CorelCorpID_0Corel-Layer"/>
  <path class="fil0" d="M532 868c58,0 113,-5 168,-15 32,-7 64,-15 96,-26 66,-22 129,-56 178,-102 60,-57 97,-135 97,-216 0,-55 -17,-111 -55,-158 -58,-71 -134,-91 -226,-91 -3,-52 -14,-108 -40,-153 -47,-82 -130,-107 -220,-107 -90,0 -172,25 -220,107 -26,46 -36,102 -39,154l-38 0c-65,0 -136,14 -185,61 -30,29 -48,70 -48,112 0,42 17,82 47,111 42,39 102,55 158,55 54,0 110,-14 146,-57 49,44 115,57 179,57 89,0 171,-24 218,-105 30,-50 42,-117 42,-175l14 0c50,0 91,35 115,77 20,34 28,74 28,114 0,59 -16,117 -53,164 -29,39 -70,69 -119,92l0 -3c0,-54 -80,-81 -121,-90 -39,-9 -80,-12 -120,-12 -44,0 -84,3 -127,12 -42,9 -121,36 -121,90 0,51 71,79 112,89 44,12 93,15 134,15zm135 -607l-273 0c4,-93 40,-202 136,-202 99,0 131,110 137,202zm-137 280c-103,0 -133,-122 -137,-221l275 0c-4,100 -34,221 -138,221zm-329 0c-26,0 -47,-19 -61,-43 -12,-20 -18,-45 -18,-65 1,-32 12,-59 31,-79 20,-21 48,-34 81,-34l37 0c0,25 3,51 7,76 2,11 3,21 3,32 0,24 -5,48 -16,69 -13,25 -34,44 -64,44zm331 272c-25,0 -54,-2 -78,-8 -18,-5 -54,-17 -54,-40 0,-24 38,-37 57,-41 25,-6 54,-8 75,-8 29,0 58,3 86,12 17,5 43,15 43,37 0,18 -23,30 -38,35 -28,10 -65,13 -91,13z"/>
 </g>
</svg>
