<?xml version="1.0" encoding="UTF-8"?>
<!DOCTYPE svg PUBLIC "-//W3C//DTD SVG 1.1//EN" "http://www.w3.org/Graphics/SVG/1.1/DTD/svg11.dtd">
<!-- Creator: CorelDRAW X8 -->
<svg xmlns="http://www.w3.org/2000/svg" xml:space="preserve" width="1728px" height="1024px" version="1.1" style="shape-rendering:geometricPrecision; text-rendering:geometricPrecision; image-rendering:optimizeQuality; fill-rule:evenodd; clip-rule:evenodd"
viewBox="0 0 1728 1024"
 xmlns:xlink="http://www.w3.org/1999/xlink">
 <defs>
  <style type="text/css">
   <![CDATA[
    .fil0 {fill:#898778;fill-rule:nonzero}
   ]]>
  </style>
 </defs>
 <g id="Layer_x0020_1">
  <metadata id="CorelCorpID_0Corel-Layer"/>
  <path class="fil0" d="M863 0c179,0 286,72 346,179 42,77 61,172 66,270l189 0c104,0 237,34 238,160 1,58 -37,92 -71,111 45,16 96,55 97,120 1,138 -162,186 -273,184 -34,-1 -70,-5 -102,-14 -40,-11 -145,-56 -67,-96 32,-16 84,-16 115,4 16,10 35,14 54,14 59,3 115,-27 115,-92 0,-33 -20,-55 -42,-65 -27,-13 -68,-4 -100,-3 -44,2 -81,-17 -83,-42 -3,-37 57,-50 81,-49 34,2 69,3 90,-12 15,-12 25,-31 24,-60 -1,-35 -27,-69 -76,-69l-188 0c-3,112 -21,222 -70,308 -60,105 -166,176 -343,176 -142,0 -238,-46 -301,-119 -48,76 -132,118 -242,119 -91,0 -180,-32 -242,-92 -53,-53 -79,-122 -78,-190 1,-70 28,-140 80,-191 83,-83 200,-102 289,-102l83 0c5,-98 23,-193 65,-268 60,-109 167,-181 346,-181zm-399 678c-8,-45 -12,-91 -13,-138l-82 0c-37,0 -98,6 -147,56 -37,36 -58,90 -59,144 -2,54 16,108 57,147 30,30 67,46 100,46 36,0 71,-21 95,-47 51,-54 61,-137 49,-208zm649 -137l-500 0c3,103 20,204 63,280 38,67 97,111 187,111 91,0 150,-44 188,-112 43,-75 60,-176 62,-279zm-499 -92l498 0c-5,-89 -21,-175 -59,-242 -38,-70 -98,-116 -190,-116 -92,0 -152,47 -190,116 -38,67 -54,153 -59,242z"/>
 </g>
</svg>
