<?xml version="1.0" encoding="UTF-8"?>
<!DOCTYPE svg PUBLIC "-//W3C//DTD SVG 1.1//EN" "http://www.w3.org/Graphics/SVG/1.1/DTD/svg11.dtd">
<!-- Creator: CorelDRAW X8 -->
<svg xmlns="http://www.w3.org/2000/svg" xml:space="preserve" width="3078px" height="1486px" version="1.1" style="shape-rendering:geometricPrecision; text-rendering:geometricPrecision; image-rendering:optimizeQuality; fill-rule:evenodd; clip-rule:evenodd"
viewBox="0 0 3078 1486"
 xmlns:xlink="http://www.w3.org/1999/xlink">
 <defs>
  <style type="text/css">
   <![CDATA[
    .fil0 {fill:#E31E24;fill-rule:nonzero}
   ]]>
  </style>
 </defs>
 <g id="Layer_x0020_1">
  <metadata id="CorelCorpID_0Corel-Layer"/>
  <path class="fil0" d="M2252 1486c89,0 173,-12 251,-34 164,-46 305,-140 417,-294 105,-144 158,-330 158,-507 0,-136 -32,-271 -105,-387 -105,-168 -292,-264 -490,-264 -85,0 -160,14 -227,38 -74,-27 -150,-38 -229,-38 -196,0 -381,101 -473,276 -33,63 -55,135 -64,209 -61,-28 -103,-35 -173,-36l-42 0c-5,-99 -23,-194 -66,-270 -60,-107 -166,-179 -345,-179 -179,0 -286,72 -346,180 -42,76 -61,171 -66,269l-83 0c-89,0 -206,19 -289,102 -52,51 -80,121 -80,191 0,69 25,138 79,191 61,60 151,91 242,91 110,0 193,-43 241,-118 64,73 160,118 302,118 176,0 281,-70 342,-176 49,-85 67,-196 70,-308l41 0c94,0 161,72 180,160 25,119 88,234 194,299 25,15 53,24 81,24 19,0 38,-4 56,-15 15,-9 22,-20 22,-30 0,-13 -9,-25 -26,-34 -130,-68 -177,-237 -177,-374 0,-97 22,-190 63,-268 61,-116 184,-211 318,-211 35,0 69,3 103,12 -159,112 -241,303 -241,494 0,91 20,180 58,251 65,118 177,176 308,176 132,0 245,-58 310,-177 39,-71 58,-159 58,-250 0,-192 -82,-382 -242,-494 32,-8 66,-12 101,-12 140,0 261,92 335,205 72,109 99,240 98,373 0,147 -33,298 -104,425 -43,77 -99,146 -171,201 0,-53 -25,-87 -69,-115 -40,-26 -101,-39 -161,-39 -53,0 -114,12 -158,40 -44,-28 -105,-40 -158,-40 -60,0 -120,13 -161,39 -38,24 -68,63 -68,110 0,65 60,131 143,161 77,28 162,36 243,35zm-1139 -1037l-498 0c8,-188 75,-358 249,-358 176,0 239,173 249,358zm1143 484c-70,0 -121,-54 -153,-112 -33,-61 -51,-142 -51,-224 -1,-163 69,-341 204,-436 138,96 206,272 206,436 0,82 -17,161 -51,223 -32,58 -85,113 -155,113zm-1936 0c-33,0 -71,-16 -100,-45 -40,-39 -57,-91 -57,-144 0,-54 20,-109 59,-148 49,-49 111,-55 147,-55l82 0c2,46 5,92 13,137 3,18 5,36 5,54 0,56 -16,114 -54,155 -24,26 -58,46 -95,46zm544 0c-187,0 -244,-193 -250,-392l500 0c-6,200 -64,392 -250,392zm1388 475c-61,0 -137,-5 -193,-30 -38,-17 -65,-46 -65,-88 0,-52 58,-73 101,-73 59,0 87,42 87,97 0,30 47,40 71,40 24,0 71,-10 71,-40 0,-56 30,-97 85,-97 47,0 103,20 103,75 0,41 -27,69 -65,86 -57,25 -133,30 -195,30z"/>
 </g>
</svg>
