<?xml version="1.0" encoding="UTF-8"?>
<!DOCTYPE svg PUBLIC "-//W3C//DTD SVG 1.1//EN" "http://www.w3.org/Graphics/SVG/1.1/DTD/svg11.dtd">
<!-- Creator: CorelDRAW X8 -->
<svg xmlns="http://www.w3.org/2000/svg" xml:space="preserve" width="3030px" height="1024px" version="1.1" style="shape-rendering:geometricPrecision; text-rendering:geometricPrecision; image-rendering:optimizeQuality; fill-rule:evenodd; clip-rule:evenodd"
viewBox="0 0 3030 1024"
 xmlns:xlink="http://www.w3.org/1999/xlink">
 <defs>
  <style type="text/css">
   <![CDATA[
    .fil0 {fill:#CC6633;fill-rule:nonzero}
   ]]>
  </style>
 </defs>
 <g id="Layer_x0020_1">
  <metadata id="CorelCorpID_0Corel-Layer"/>
  <path class="fil0" d="M1824 944c17,9 26,21 26,34 0,11 -7,22 -22,31 -17,10 -36,15 -55,15 -28,0 -57,-10 -82,-25 -106,-65 -169,-179 -194,-299 -19,-88 -86,-160 -180,-160l-41 0c-3,112 -21,223 -70,308 -60,106 -166,176 -342,176 -142,0 -238,-45 -302,-118 -48,75 -131,118 -241,118 -91,0 -181,-31 -242,-91 -54,-53 -79,-122 -79,-191 1,-70 28,-139 80,-191 83,-83 200,-102 289,-102l83 0c5,-98 24,-193 66,-269 60,-108 167,-180 346,-180 179,0 285,72 345,179 43,76 61,172 66,270l42 0c68,0 122,12 173,36 9,-74 31,-146 64,-209 92,-176 279,-277 476,-276 84,0 160,14 226,38 67,-24 142,-38 227,-38 198,0 385,98 478,276 44,85 68,190 69,294 1,166 -58,339 -207,429 -24,15 -53,25 -82,25 -18,0 -37,-5 -55,-15 -14,-9 -21,-20 -21,-31 0,-12 8,-25 26,-34 130,-68 177,-236 176,-374 0,-93 -21,-188 -62,-268 -62,-119 -185,-211 -322,-211 -35,0 -69,4 -101,12 160,112 242,302 242,494 0,92 -19,180 -58,250 -65,119 -178,177 -310,177 -131,0 -243,-58 -308,-176 -38,-70 -58,-160 -58,-251 0,-191 82,-382 241,-494 -32,-8 -65,-12 -101,-12 -135,0 -259,94 -320,211 -41,78 -63,171 -63,268 0,137 47,307 177,374zm-1360 -266c-8,-44 -11,-91 -13,-137l-82 0c-36,0 -98,6 -147,55 -37,37 -58,90 -59,144 -1,54 17,108 57,148 30,29 67,45 100,45 37,0 71,-20 95,-46 51,-55 61,-138 49,-209zm650 -137l-500 0c3,103 19,205 62,280 39,67 98,112 188,112 90,0 149,-45 188,-112 43,-76 59,-177 62,-280zm-499 -92l498 1c-5,-90 -22,-176 -59,-243 -39,-70 -99,-116 -190,-116 -92,0 -152,47 -191,116 -37,67 -54,153 -58,242zm1641 -288c-135,96 -204,274 -204,436 1,83 18,163 51,225 32,58 83,111 153,111 70,0 123,-54 155,-112 34,-62 51,-141 51,-224 0,-164 -68,-340 -206,-436z"/>
 </g>
</svg>
