<?xml version="1.0" encoding="UTF-8"?>
<!DOCTYPE svg PUBLIC "-//W3C//DTD SVG 1.1//EN" "http://www.w3.org/Graphics/SVG/1.1/DTD/svg11.dtd">
<!-- Creator: CorelDRAW X8 -->
<svg xmlns="http://www.w3.org/2000/svg" xml:space="preserve" width="1361px" height="600px" version="1.1" style="shape-rendering:geometricPrecision; text-rendering:geometricPrecision; image-rendering:optimizeQuality; fill-rule:evenodd; clip-rule:evenodd"
viewBox="0 0 1361 600"
 xmlns:xlink="http://www.w3.org/1999/xlink">
 <defs>
  <style type="text/css">
   <![CDATA[
    .fil0 {fill:#E31E24;fill-rule:nonzero}
   ]]>
  </style>
 </defs>
 <g id="Layer_x0020_1">
  <metadata id="CorelCorpID_0Corel-Layer"/>
  <path class="fil0" d="M856 600c58,0 117,-17 158,-55 31,-30 47,-70 47,-108 0,-45 -15,-84 -48,-115 -50,-48 -122,-61 -185,-61l-37 0c9,-62 35,-109 73,-143 45,-39 106,-59 177,-59 41,0 88,11 122,35 38,26 55,62 55,108 0,39 -28,72 -67,79 -7,1 -14,1 -22,2 -8,0 -16,1 -26,3 -14,3 -30,12 -30,26 0,14 19,22 30,25 9,2 18,3 26,3l27 0c27,0 49,16 62,37 13,20 21,45 21,70 0,20 -4,39 -14,55 -13,22 -36,39 -61,39 -16,0 -30,-9 -50,-9 -10,0 -21,2 -30,7 -9,5 -19,13 -19,23 0,15 25,25 41,29 19,5 39,8 59,8 61,0 120,-16 161,-64 26,-31 35,-67 35,-101 0,-50 -31,-98 -85,-126 39,-24 65,-62 65,-109 0,-70 -40,-119 -98,-154 -58,-34 -136,-45 -202,-45 -71,0 -137,10 -195,38 -34,17 -66,46 -94,78 -49,-84 -128,-116 -221,-116 -106,0 -175,36 -215,99 -27,42 -41,97 -44,162l-38 0c-63,0 -136,13 -186,61 -31,30 -48,70 -48,111 0,42 15,81 48,112 41,38 100,55 157,55 58,0 112,-16 147,-57 46,42 109,57 179,57 69,0 133,-15 179,-57 35,41 89,57 146,57zm-188 -339l-274 0c2,-35 9,-78 24,-114 21,-51 56,-88 114,-88 58,0 92,39 112,88 15,37 21,79 24,114zm-137 280c-103,0 -134,-122 -138,-221l275 0c-2,99 -37,221 -137,221zm-329 0c-24,0 -49,-15 -64,-42 -9,-16 -15,-36 -15,-59 0,-30 6,-57 26,-81 21,-26 51,-39 85,-39l37 0c1,26 3,53 8,79 2,13 4,26 4,37 0,26 -6,47 -15,64 -16,27 -41,41 -66,41zm659 0c-24,0 -47,-16 -63,-41 -12,-19 -18,-43 -18,-70 0,-10 1,-20 3,-31 4,-26 7,-53 8,-79l37 0c35,0 65,15 84,39 17,20 27,46 27,75 0,19 -5,41 -15,60 -13,26 -35,47 -63,47z"/>
 </g>
</svg>
