<?xml version="1.0" encoding="UTF-8"?>
<!DOCTYPE svg PUBLIC "-//W3C//DTD SVG 1.1//EN" "http://www.w3.org/Graphics/SVG/1.1/DTD/svg11.dtd">
<!-- Creator: CorelDRAW X8 -->
<svg xmlns="http://www.w3.org/2000/svg" xml:space="preserve" width="2218px" height="1486px" version="1.1" style="shape-rendering:geometricPrecision; text-rendering:geometricPrecision; image-rendering:optimizeQuality; fill-rule:evenodd; clip-rule:evenodd"
viewBox="0 0 2218 1486"
 xmlns:xlink="http://www.w3.org/1999/xlink">
 <defs>
  <style type="text/css">
   <![CDATA[
    .fil0 {fill:#CC6633}
   ]]>
  </style>
 </defs>
 <g id="Layer_x0020_1">
  <metadata id="CorelCorpID_0Corel-Layer"/>
  <path class="fil0" d="M867 1224c-76,0 -137,10 -177,25 -43,17 -65,40 -65,62 0,24 21,47 65,64 39,16 100,26 177,26 63,0 110,-7 148,-18 59,-18 88,-45 88,-72 0,-26 -29,-52 -86,-69 -38,-11 -87,-18 -150,-18zm355 158c87,-14 172,-30 202,-39 179,-51 359,-143 475,-293 103,-134 156,-304 156,-465 0,-113 -26,-230 -89,-325 -72,-107 -182,-170 -322,-169 -87,1 -174,34 -243,98 -64,61 -110,147 -125,260l83 0c88,0 206,19 289,102 51,51 79,121 79,191 1,68 -24,137 -78,190 -62,60 -151,92 -243,92 -109,-1 -193,-43 -241,-118 -63,72 -159,118 -301,118 -142,0 -238,-46 -302,-118 -48,75 -131,117 -241,118 -91,0 -181,-32 -242,-92 -54,-53 -79,-122 -79,-190 1,-70 28,-140 80,-191 83,-83 200,-102 289,-102l83 0c5,-98 24,-193 66,-269 60,-108 167,-180 346,-180 148,0 247,50 311,128 20,25 36,53 49,82 24,-38 54,-71 87,-100 84,-70 196,-109 332,-110 181,-1 343,61 449,193 89,110 126,252 126,392 0,173 -58,356 -170,501 -135,174 -343,277 -552,335 -141,39 -302,56 -458,62 -58,2 -115,4 -171,3 -73,-2 -148,-8 -213,-26 -119,-31 -178,-90 -178,-149 1,-59 61,-117 183,-149 55,-14 127,-22 208,-22 74,0 135,7 189,19 76,18 195,65 195,152 0,28 -11,51 -29,71zm54 -841c-1,48 -5,96 -13,142 -13,68 1,152 49,203 24,26 59,47 95,47 33,0 70,-16 100,-46 41,-39 59,-93 58,-147 -2,-54 -22,-107 -59,-144 -50,-50 -111,-55 -148,-55l-82 0zm-811 141c-8,-46 -12,-94 -14,-141l-82 0c-36,0 -98,5 -147,55 -37,37 -58,90 -59,144 -1,54 17,108 57,147 30,30 67,46 100,46 37,0 71,-21 95,-47 49,-52 62,-136 50,-204zm649 -141l-500 0c3,103 19,204 62,280 39,67 98,111 188,111 90,0 149,-44 188,-112 43,-75 59,-176 62,-279zm-499 -92l498 0c-5,-89 -22,-175 -59,-242 -39,-70 -99,-116 -190,-116 -92,0 -152,47 -191,116 -37,67 -54,153 -58,242z"/>
 </g>
</svg>
