<?xml version="1.0" encoding="UTF-8"?>
<!DOCTYPE svg PUBLIC "-//W3C//DTD SVG 1.1//EN" "http://www.w3.org/Graphics/SVG/1.1/DTD/svg11.dtd">
<!-- Creator: CorelDRAW X8 -->
<svg xmlns="http://www.w3.org/2000/svg" xml:space="preserve" width="2586px" height="1486px" version="1.1" style="shape-rendering:geometricPrecision; text-rendering:geometricPrecision; image-rendering:optimizeQuality; fill-rule:evenodd; clip-rule:evenodd"
viewBox="0 0 2586 1486"
 xmlns:xlink="http://www.w3.org/1999/xlink">
 <defs>
  <style type="text/css">
   <![CDATA[
    .fil0 {fill:#CC6633;fill-rule:nonzero}
   ]]>
  </style>
 </defs>
 <g id="Layer_x0020_1">
  <metadata id="CorelCorpID_0Corel-Layer"/>
  <path class="fil0" d="M2323 251c-80,-109 -196,-161 -329,-160 -86,0 -177,40 -248,117 -56,59 -96,140 -109,242l82 0c88,0 206,18 289,101 51,51 79,121 79,191 1,68 -24,137 -78,190 -61,60 -151,92 -242,92 -110,-1 -194,-43 -241,-118 -64,72 -160,118 -302,118 -142,0 -238,-46 -302,-119 -48,76 -131,118 -241,119 -91,0 -181,-32 -242,-92 -54,-53 -79,-122 -79,-190 1,-70 29,-140 80,-191 83,-83 200,-101 289,-101l83 0c5,-98 24,-194 66,-269 60,-109 167,-181 346,-181 161,0 292,59 360,209 85,-128 227,-208 410,-209 186,-1 365,62 479,216 78,104 112,233 113,361 1,287 -159,526 -397,682 -250,164 -591,227 -888,227 -289,0 -611,-48 -865,-190 -282,-156 -435,-412 -436,-734 -1,-213 84,-424 268,-545 16,-11 39,-17 62,-17 18,0 37,4 52,11 20,10 29,23 29,36 0,10 -6,20 -19,29 -161,106 -230,302 -229,486 0,290 133,528 387,670 219,122 499,163 751,163 255,0 549,-54 765,-195 215,-141 359,-364 357,-623 0,-115 -30,-232 -100,-326zm-687 290c-1,49 -5,96 -13,142 -12,68 1,152 49,203 24,26 59,47 95,47 33,0 70,-16 101,-46 40,-40 58,-94 57,-147 -1,-54 -22,-108 -59,-144 -50,-50 -111,-55 -147,-55l-83 0zm-811 140c-8,-45 -12,-92 -13,-140l-83 0c-36,0 -98,5 -147,55 -37,36 -58,90 -59,144 -1,53 17,107 57,147 31,30 68,46 101,46 36,0 70,-21 95,-47 48,-52 61,-136 49,-205zm649 -139l-500 0c3,103 19,203 63,279 38,67 97,111 187,111 90,0 150,-45 188,-112 43,-75 59,-175 62,-278zm-499 -92l498 0c-5,-90 -22,-176 -59,-243 -38,-69 -98,-116 -190,-116 -92,0 -152,47 -191,116 -37,67 -54,154 -58,243z"/>
 </g>
</svg>
