<?xml version="1.0" encoding="UTF-8"?>
<!DOCTYPE svg PUBLIC "-//W3C//DTD SVG 1.1//EN" "http://www.w3.org/Graphics/SVG/1.1/DTD/svg11.dtd">
<!-- Creator: CorelDRAW X8 -->
<svg xmlns="http://www.w3.org/2000/svg" xml:space="preserve" width="3123px" height="1486px" version="1.1" style="shape-rendering:geometricPrecision; text-rendering:geometricPrecision; image-rendering:optimizeQuality; fill-rule:evenodd; clip-rule:evenodd"
viewBox="0 0 3123 1486"
 xmlns:xlink="http://www.w3.org/1999/xlink">
 <defs>
  <style type="text/css">
   <![CDATA[
    .fil0 {fill:#CC6633;fill-rule:nonzero}
   ]]>
  </style>
 </defs>
 <g id="Layer_x0020_1">
  <metadata id="CorelCorpID_0Corel-Layer"/>
  <path class="fil0" d="M863 0c179,0 286,72 346,180 42,76 61,171 66,270l41 0c69,0 123,11 174,36 9,-75 31,-146 64,-209 92,-176 279,-277 475,-276 76,0 165,12 236,42 97,-34 202,-43 303,-43 114,0 246,19 349,79 93,54 158,145 157,252 -1,83 -42,154 -111,198 103,55 160,158 160,272 0,101 -33,180 -87,239 -92,98 -225,140 -403,140l-828 0c-90,0 -133,26 -132,85 2,62 46,83 132,83l1191 0c45,0 81,31 81,69 0,38 -36,69 -81,69l-1191 0c-137,0 -300,-35 -297,-204 3,-123 95,-193 297,-193l831 0c117,0 217,-41 274,-120 32,-44 51,-100 51,-168 0,-105 -63,-221 -180,-224 -27,0 -89,-9 -87,-46 2,-36 60,-45 87,-45 84,0 130,-83 130,-159 0,-77 -45,-146 -111,-185 -66,-38 -155,-51 -232,-51 -61,0 -121,3 -180,18 156,112 236,300 236,489 0,91 -20,179 -58,250 -65,119 -178,176 -310,176 -132,1 -244,-57 -308,-175 -39,-71 -58,-160 -58,-251 0,-191 82,-382 241,-494 -32,-8 -66,-12 -102,-12 -135,-1 -259,94 -319,210 -41,78 -63,172 -63,269 0,137 47,306 176,374 18,9 26,21 26,33 0,11 -7,23 -21,31 -18,11 -37,15 -55,15 -29,0 -57,-10 -82,-24 -107,-65 -169,-180 -195,-300 -18,-88 -85,-160 -180,-160l-40 0c-3,112 -21,223 -70,308 -60,106 -166,176 -343,176 -142,0 -238,-45 -301,-118 -48,75 -132,118 -241,118 -92,1 -181,-31 -243,-91 -54,-53 -79,-122 -78,-190 0,-71 28,-140 79,-192 83,-82 201,-102 289,-101l84 0c5,-98 23,-194 65,-269 60,-109 167,-181 346,-181zm1393 162c-135,95 -204,273 -204,436 0,82 17,162 51,224 32,58 83,112 153,112 70,0 123,-55 154,-113 34,-62 52,-141 52,-223 -1,-164 -69,-340 -206,-436zm-1792 516c-8,-44 -12,-91 -13,-137l-82 0c-37,0 -98,6 -148,55 -37,37 -57,90 -59,145 -1,53 17,107 58,147 30,30 67,45 100,45 36,0 71,-20 95,-46 51,-55 61,-138 49,-209zm649 -137l-500 0c3,104 20,205 63,280 38,67 97,112 187,112 91,0 150,-45 188,-112 43,-76 60,-177 62,-280zm-499 -91l498 0c-4,-90 -21,-176 -59,-243 -38,-70 -98,-116 -190,-116 -92,0 -152,47 -190,116 -38,67 -54,153 -59,243z"/>
 </g>
</svg>
