<?xml version="1.0" encoding="UTF-8"?>
<!DOCTYPE svg PUBLIC "-//W3C//DTD SVG 1.1//EN" "http://www.w3.org/Graphics/SVG/1.1/DTD/svg11.dtd">
<!-- Creator: CorelDRAW X8 -->
<svg xmlns="http://www.w3.org/2000/svg" xml:space="preserve" width="1355px" height="868px" version="1.1" style="shape-rendering:geometricPrecision; text-rendering:geometricPrecision; image-rendering:optimizeQuality; fill-rule:evenodd; clip-rule:evenodd"
viewBox="0 0 1355 868"
 xmlns:xlink="http://www.w3.org/1999/xlink">
 <defs>
  <style type="text/css">
   <![CDATA[
    .fil0 {fill:#009846;fill-rule:nonzero}
   ]]>
  </style>
 </defs>
 <g id="Layer_x0020_1">
  <metadata id="CorelCorpID_0Corel-Layer"/>
  <path class="fil0" d="M530 0c63,0 123,12 169,48 19,15 41,39 50,68 50,-90 162,-116 249,-116 106,-1 212,30 282,114 53,64 75,146 75,228 0,173 -91,321 -240,408 -121,71 -258,100 -397,111 -61,6 -125,8 -186,7 -46,-1 -93,-4 -137,-16 -40,-10 -110,-38 -110,-88 1,-52 73,-79 114,-89 42,-11 89,-14 133,-14 41,0 82,3 122,12 42,10 121,37 121,91 0,12 -4,24 -12,34 95,-16 174,-36 258,-86 70,-42 122,-91 156,-149 38,-62 56,-135 56,-221 0,-65 -16,-133 -54,-188 -42,-60 -106,-95 -180,-95 -113,1 -193,96 -208,202l36 0c64,0 136,13 186,61 31,30 47,70 48,111 0,40 -15,81 -48,112 -41,38 -100,55 -157,55 -58,0 -111,-16 -146,-57 -47,42 -110,57 -180,57 -69,0 -132,-15 -179,-57 -35,41 -89,57 -146,57 -58,0 -117,-17 -158,-55 -32,-31 -48,-72 -47,-112 0,-41 17,-81 48,-111 50,-48 122,-61 185,-61l38 0c4,-65 18,-120 45,-162 39,-63 108,-99 214,-99zm2 716c-23,0 -49,1 -73,7 -20,4 -59,17 -59,41 -1,21 24,33 52,39 31,8 66,9 80,9 14,0 46,-1 75,-8 29,-7 54,-19 54,-40 0,-22 -31,-34 -48,-39 -26,-7 -54,-9 -81,-9zm-139 -455l274 0c-2,-35 -9,-77 -24,-114 -20,-50 -56,-90 -116,-88 -56,2 -90,40 -110,88 -15,36 -21,78 -24,114zm275 59l-275 0c2,52 10,113 37,159 22,37 56,62 100,62 45,0 79,-25 101,-63 27,-46 35,-106 37,-158zm-389 78c-5,-25 -8,-52 -8,-78l-38 0c-32,0 -61,12 -82,35 -18,22 -28,50 -29,79 0,26 6,48 15,65 15,27 40,42 65,42 47,0 94,-49 77,-143zm511 -78c-1,26 -3,53 -8,79 -15,80 31,142 78,142 28,0 50,-21 63,-47 10,-19 16,-41 15,-60 0,-29 -9,-55 -26,-76 -20,-23 -50,-38 -85,-38l-37 0z"/>
 </g>
</svg>
