<?xml version="1.0" encoding="UTF-8"?>
<!DOCTYPE svg PUBLIC "-//W3C//DTD SVG 1.1//EN" "http://www.w3.org/Graphics/SVG/1.1/DTD/svg11.dtd">
<!-- Creator: CorelDRAW X8 -->
<svg xmlns="http://www.w3.org/2000/svg" xml:space="preserve" width="3078px" height="1486px" version="1.1" style="shape-rendering:geometricPrecision; text-rendering:geometricPrecision; image-rendering:optimizeQuality; fill-rule:evenodd; clip-rule:evenodd"
viewBox="0 0 3078 1486"
 xmlns:xlink="http://www.w3.org/1999/xlink">
 <defs>
  <style type="text/css">
   <![CDATA[
    .fil0 {fill:#009846;fill-rule:nonzero}
   ]]>
  </style>
 </defs>
 <g id="Layer_x0020_1">
  <metadata id="CorelCorpID_0Corel-Layer"/>
  <path class="fil0" d="M2256 1225c-76,0 -136,10 -176,25 -43,17 -65,40 -65,63 -1,23 21,46 64,63 40,16 101,26 177,26 63,0 111,-7 149,-18 59,-17 88,-44 87,-71 0,-27 -28,-53 -85,-70 -39,-11 -87,-18 -151,-18zm-1392 -1225c179,0 285,72 345,179 43,76 61,172 66,270l42 0c68,0 122,12 173,36 9,-75 31,-146 64,-209 92,-176 279,-277 476,-276 84,0 160,14 226,38 67,-24 142,-38 227,-38 198,-1 385,96 490,264 75,120 107,259 105,399 -4,178 -55,353 -158,495 -121,166 -277,269 -478,309 -59,12 -121,18 -186,19 -66,1 -148,-7 -213,-24 -118,-32 -177,-91 -177,-149 0,-59 61,-118 182,-149 56,-15 127,-23 208,-23 75,0 136,7 189,19 72,17 180,59 194,136 73,-55 130,-124 173,-202 71,-127 103,-278 104,-425 0,-133 -27,-265 -98,-373 -75,-113 -195,-206 -335,-205 -35,0 -69,4 -101,12 160,112 242,302 242,494 0,91 -19,179 -58,250 -65,119 -178,176 -310,176 -131,1 -243,-57 -308,-175 -38,-71 -58,-160 -58,-251 0,-191 82,-382 241,-494 -32,-8 -65,-12 -101,-12 -135,-1 -259,94 -320,210 -41,79 -63,172 -63,269 0,137 47,306 177,374 31,16 36,45 4,64 -43,26 -95,15 -137,-9 -106,-65 -169,-180 -194,-299 -19,-88 -86,-160 -180,-160l-41 0c-3,112 -21,222 -70,308 -60,106 -166,176 -342,176 -142,0 -238,-45 -302,-118 -48,75 -131,118 -241,118 -91,0 -181,-31 -242,-92 -54,-52 -79,-121 -79,-190 1,-70 28,-140 80,-191 83,-83 200,-102 289,-102l83 0c5,-98 24,-193 66,-269 60,-108 167,-180 346,-180zm1392 161c-135,95 -204,273 -204,436 1,82 18,162 51,224 32,58 83,112 153,112 70,0 123,-55 155,-113 34,-62 51,-141 51,-223 0,-164 -68,-340 -206,-436zm-1792 517c-8,-45 -11,-91 -13,-137l-82 0c-36,0 -98,6 -147,55 -37,37 -58,90 -59,144 -1,54 17,108 57,147 30,30 67,46 100,46 37,0 71,-20 95,-46 51,-55 61,-138 49,-209zm650 -137l-500 0c3,103 19,204 62,280 39,67 98,112 188,112 90,0 149,-45 188,-113 43,-75 59,-176 62,-279zm-499 -92l498 0c-5,-89 -22,-175 -59,-243 -39,-69 -99,-115 -190,-115 -92,0 -152,47 -191,116 -37,67 -54,153 -58,242z"/>
 </g>
</svg>
