<?xml version="1.0" encoding="UTF-8"?>
<!DOCTYPE svg PUBLIC "-//W3C//DTD SVG 1.1//EN" "http://www.w3.org/Graphics/SVG/1.1/DTD/svg11.dtd">
<!-- Creator: CorelDRAW X8 -->
<svg xmlns="http://www.w3.org/2000/svg" xml:space="preserve" width="1742px" height="1486px" version="1.1" style="shape-rendering:geometricPrecision; text-rendering:geometricPrecision; image-rendering:optimizeQuality; fill-rule:evenodd; clip-rule:evenodd"
viewBox="0 0 1742 1486"
 xmlns:xlink="http://www.w3.org/1999/xlink">
 <defs>
  <style type="text/css">
   <![CDATA[
    .fil0 {fill:#009846;fill-rule:nonzero}
   ]]>
  </style>
 </defs>
 <g id="Layer_x0020_1">
  <metadata id="CorelCorpID_0Corel-Layer"/>
  <path class="fil0" d="M862 1408c62,0 138,-4 195,-30 39,-17 67,-47 65,-90 -2,-51 -58,-71 -101,-71 -56,-1 -87,40 -87,96 0,31 -47,41 -71,41 -24,0 -71,-10 -71,-41 0,-56 -31,-97 -87,-96 -43,0 -99,20 -101,71 -1,43 26,73 65,90 56,25 131,30 193,30zm1 -1408c179,0 286,72 346,179 42,77 61,172 66,270l39 0c198,0 337,106 396,252 25,60 36,129 31,199 -17,259 -210,433 -443,515 -73,26 -143,44 -214,55 -71,11 -143,16 -221,16 -80,0 -167,-8 -244,-35 -84,-31 -144,-97 -143,-163 1,-38 21,-78 68,-108 41,-26 101,-39 161,-39 53,0 114,12 158,40 44,-28 105,-40 158,-40 60,0 121,13 161,39 48,31 69,69 69,108 0,18 -5,36 -13,54 187,-73 330,-210 341,-445 3,-61 -6,-123 -27,-176 -43,-105 -127,-181 -238,-181l-38 0c-3,112 -21,222 -70,308 -60,105 -166,176 -343,176 -142,0 -238,-46 -301,-119 -48,76 -132,118 -241,119 -92,0 -181,-32 -243,-92 -54,-53 -79,-122 -78,-190 0,-70 28,-140 79,-191 83,-83 201,-102 289,-102l84 0c5,-98 23,-193 65,-268 60,-109 167,-181 346,-181zm-399 677c-8,-44 -12,-90 -13,-137l-82 0c-37,0 -98,6 -148,55 -36,37 -57,91 -59,145 -1,53 17,108 58,147 30,30 67,46 100,46 36,0 71,-21 95,-47 51,-54 61,-138 49,-209zm649 -137l-500 0c3,104 20,205 63,281 39,67 98,111 187,111 91,0 150,-44 188,-112 43,-75 60,-176 62,-280zm-499 -91l498 0c-4,-90 -21,-175 -58,-242 -39,-70 -99,-116 -191,-116 -92,0 -152,47 -190,116 -37,67 -54,152 -59,242z"/>
 </g>
</svg>
