<?xml version="1.0" encoding="UTF-8"?>
<!DOCTYPE svg PUBLIC "-//W3C//DTD SVG 1.1//EN" "http://www.w3.org/Graphics/SVG/1.1/DTD/svg11.dtd">
<!-- Creator: CorelDRAW X8 -->
<svg xmlns="http://www.w3.org/2000/svg" xml:space="preserve" width="3030px" height="1024px" version="1.1" style="shape-rendering:geometricPrecision; text-rendering:geometricPrecision; image-rendering:optimizeQuality; fill-rule:evenodd; clip-rule:evenodd"
viewBox="0 0 3030 1024"
 xmlns:xlink="http://www.w3.org/1999/xlink">
 <defs>
  <style type="text/css">
   <![CDATA[
    .fil0 {fill:#2B2A29;fill-rule:nonzero}
   ]]>
  </style>
 </defs>
 <g id="Layer_x0020_1">
  <metadata id="CorelCorpID_0Corel-Layer"/>
  <path class="fil0" d="M2742 1024c28,0 56,-10 81,-25 148,-89 207,-260 207,-425 0,-100 -22,-209 -69,-298 -92,-178 -280,-276 -478,-276 -85,0 -160,14 -227,38 -74,-27 -150,-38 -229,-38 -196,0 -381,101 -473,276 -33,63 -55,135 -64,209 -60,-28 -102,-35 -173,-35l-42 0c-5,-99 -23,-195 -66,-271 -60,-107 -166,-179 -345,-179 -179,0 -286,72 -346,180 -42,76 -61,171 -66,269l-83 0c-89,0 -206,19 -289,102 -52,52 -80,121 -80,191 -1,69 25,138 79,191 61,60 151,91 242,91 110,0 193,-43 241,-118 64,73 160,118 302,118 176,0 281,-70 342,-176 49,-85 67,-196 70,-308l41 0c94,0 161,72 180,160 25,120 88,234 194,299 25,15 54,25 82,25 19,0 37,-4 55,-15 15,-9 22,-20 22,-31 0,-12 -9,-25 -26,-34 -130,-67 -177,-237 -177,-374 0,-97 22,-190 63,-268 61,-117 185,-211 320,-211 36,0 69,4 101,12 -159,112 -241,303 -241,494 0,91 20,181 58,251 65,118 177,176 308,176 132,0 245,-58 310,-177 39,-70 58,-158 58,-250 0,-192 -82,-382 -242,-494 32,-8 66,-12 101,-12 137,0 261,92 322,211 44,84 62,178 62,272 0,137 -47,303 -176,370 -17,9 -26,22 -26,34 0,11 7,23 21,31 18,11 37,15 56,15zm-1629 -574l-498 -1c8,-188 75,-358 249,-358 176,0 239,173 249,359zm1143 483c-70,0 -121,-53 -153,-111 -33,-62 -51,-142 -51,-225 -1,-162 69,-340 204,-436 138,96 206,272 206,436 0,83 -17,162 -51,224 -32,58 -85,112 -155,112zm-1936 0c-33,0 -71,-16 -100,-45 -40,-39 -57,-91 -57,-144 0,-54 20,-109 59,-148 49,-49 111,-55 147,-55l82 0c2,46 5,93 13,137 3,18 5,36 5,54 0,56 -16,114 -54,155 -24,26 -58,46 -95,46zm544 0c-187,0 -244,-193 -250,-392l500 0c-6,200 -64,392 -250,392z"/>
 </g>
</svg>
