<?xml version="1.0" encoding="UTF-8"?>
<!DOCTYPE svg PUBLIC "-//W3C//DTD SVG 1.1//EN" "http://www.w3.org/Graphics/SVG/1.1/DTD/svg11.dtd">
<!-- Creator: CorelDRAW X8 -->
<svg xmlns="http://www.w3.org/2000/svg" xml:space="preserve" width="3404px" height="1486px" version="1.1" style="shape-rendering:geometricPrecision; text-rendering:geometricPrecision; image-rendering:optimizeQuality; fill-rule:evenodd; clip-rule:evenodd"
viewBox="0 0 3404 1487"
 xmlns:xlink="http://www.w3.org/1999/xlink">
 <defs>
  <style type="text/css">
   <![CDATA[
    .fil0 {fill:#2B2A29;fill-rule:nonzero}
   ]]>
  </style>
 </defs>
 <g id="Layer_x0020_1">
  <metadata id="CorelCorpID_0Corel-Layer"/>
  <path class="fil0" d="M2383 1455c272,-32 547,-114 742,-273 193,-155 279,-360 279,-606 0,-102 -23,-205 -72,-300 -93,-177 -278,-276 -475,-276 -80,0 -155,11 -230,38 -74,-27 -151,-38 -230,-38 -195,0 -380,101 -472,276 -33,63 -55,135 -64,209 -71,-33 -118,-36 -216,-36 -4,-98 -22,-194 -66,-270 -60,-107 -166,-179 -345,-179 -179,0 -286,72 -346,180 -43,76 -61,171 -66,269l-83 0c-89,0 -206,19 -289,102 -52,51 -80,122 -80,191 0,69 25,138 79,190 61,61 151,92 242,92 109,0 193,-43 241,-118 63,73 160,118 302,118 177,0 283,-70 343,-176 48,-86 66,-196 70,-308l40 0c95,0 162,72 181,160 25,120 88,234 194,299 25,15 54,25 82,25 19,0 38,-5 55,-15 15,-9 22,-20 22,-31 0,-12 -9,-25 -26,-34 -130,-67 -177,-237 -177,-374 0,-97 22,-190 63,-268 61,-116 184,-211 317,-211 35,0 69,3 104,12 -159,112 -241,303 -241,494 0,91 20,181 58,251 65,118 177,176 308,176 132,0 245,-58 310,-177 39,-70 58,-158 58,-250 0,-192 -82,-382 -242,-494 32,-8 66,-12 101,-12 137,0 260,92 322,211 45,86 66,178 66,274 0,248 -93,424 -239,547 -168,141 -405,213 -654,243 -204,26 -409,29 -614,29 -354,-1 -860,-10 -1175,-185 -254,-141 -397,-358 -398,-647 0,-185 79,-381 239,-487 14,-9 20,-19 20,-29 0,-17 -13,-28 -30,-36 -18,-8 -39,-11 -52,-11 -22,0 -44,6 -62,17 -182,121 -277,331 -277,543 0,327 167,560 446,715 353,198 889,210 1289,212 217,0 433,-5 648,-32zm-900 -1005l-498 -1c8,-188 75,-358 249,-358 177,0 239,173 249,359zm1144 483c-70,0 -121,-53 -153,-111 -33,-62 -51,-142 -51,-225 0,-162 69,-340 204,-436 138,96 206,272 206,436 0,83 -17,161 -51,224 -32,58 -85,112 -155,112zm-1937 0c-33,0 -70,-16 -100,-45 -39,-39 -57,-91 -57,-144 0,-54 21,-109 59,-148 49,-49 111,-55 147,-55l82 0c2,46 5,92 13,137 3,18 5,36 5,54 0,56 -16,114 -54,155 -24,26 -58,46 -95,46zm544 0c-186,0 -244,-192 -250,-392l501 0c-6,200 -64,392 -251,392z"/>
 </g>
</svg>
