<?xml version="1.0" encoding="UTF-8"?>
<!DOCTYPE svg PUBLIC "-//W3C//DTD SVG 1.1//EN" "http://www.w3.org/Graphics/SVG/1.1/DTD/svg11.dtd">
<!-- Creator: CorelDRAW X8 -->
<svg xmlns="http://www.w3.org/2000/svg" xml:space="preserve" width="1070px" height="868px" version="1.1" style="shape-rendering:geometricPrecision; text-rendering:geometricPrecision; image-rendering:optimizeQuality; fill-rule:evenodd; clip-rule:evenodd"
viewBox="0 0 1070 868"
 xmlns:xlink="http://www.w3.org/1999/xlink">
 <defs>
  <style type="text/css">
   <![CDATA[
    .fil0 {fill:#E31E24;fill-rule:nonzero}
   ]]>
  </style>
 </defs>
 <g id="Layer_x0020_1">
  <metadata id="CorelCorpID_0Corel-Layer"/>
  <path class="fil0" d="M200 541c-26,0 -47,-19 -61,-43 -12,-20 -18,-45 -18,-65 1,-32 12,-59 31,-79 20,-21 48,-34 81,-34l37 0c0,25 3,51 7,76 2,11 3,21 3,32 0,24 -5,48 -16,69 -13,25 -34,44 -64,44zm330 0c-104,0 -134,-122 -138,-221l276 0c-4,100 -34,221 -138,221zm136 -280l-273 0c4,-93 40,-202 137,-202 98,0 130,110 136,202zm-134 607c57,0 113,-4 168,-15 32,-7 64,-15 96,-26 65,-22 129,-56 178,-102 60,-57 97,-135 97,-216 -1,-55 -17,-111 -55,-158 -55,-67 -125,-90 -212,-90l-14 0c-4,-53 -15,-109 -40,-154 -48,-82 -130,-107 -220,-107 -91,0 -173,25 -221,107 -26,46 -36,102 -39,154l-38 0c-65,0 -136,14 -185,61 -30,29 -48,70 -48,112 0,42 17,82 47,111 42,39 102,55 158,55 54,0 110,-14 146,-57 49,44 116,57 180,57 88,0 170,-24 218,-105 29,-50 42,-117 42,-175l14 0c50,0 90,35 115,77 20,34 28,74 28,114 0,60 -17,116 -53,164 -30,39 -70,69 -120,92 0,-57 -75,-83 -120,-93 -40,-9 -80,-12 -120,-12 -44,0 -85,3 -128,12 -42,9 -121,36 -121,90 0,52 71,78 112,89 44,11 93,15 135,15zm-1 -55c-90,0 -132,-25 -132,-49 0,-24 47,-47 132,-47 85,0 130,24 130,47 0,23 -40,49 -130,49z"/>
 </g>
</svg>
