<?xml version="1.0" encoding="UTF-8"?>
<!DOCTYPE svg PUBLIC "-//W3C//DTD SVG 1.1//EN" "http://www.w3.org/Graphics/SVG/1.1/DTD/svg11.dtd">
<!-- Creator: CorelDRAW X8 -->
<svg xmlns="http://www.w3.org/2000/svg" xml:space="preserve" width="1078px" height="868px" version="1.1" style="shape-rendering:geometricPrecision; text-rendering:geometricPrecision; image-rendering:optimizeQuality; fill-rule:evenodd; clip-rule:evenodd"
viewBox="0 0 1078 868"
 xmlns:xlink="http://www.w3.org/1999/xlink">
 <defs>
  <style type="text/css">
   <![CDATA[
    .fil0 {fill:#2B2A29;fill-rule:nonzero}
   ]]>
  </style>
 </defs>
 <g id="Layer_x0020_1">
  <metadata id="CorelCorpID_0Corel-Layer"/>
  <path class="fil0" d="M988 868c41,0 61,-22 61,-43 0,-22 -20,-43 -61,-43l-798 0c-35,0 -66,-6 -66,-48 0,-39 38,-44 70,-44l682 0c56,0 116,-7 160,-44 29,-24 42,-57 42,-88 0,-47 -27,-90 -73,-106 32,-14 51,-45 51,-79 -1,-38 -16,-64 -38,-81 -33,-24 -82,-31 -126,-31l-102 0c-3,-53 -14,-109 -40,-154 -47,-82 -130,-107 -220,-107 -90,0 -173,25 -220,107 -26,46 -36,102 -39,154l-38 0c-65,0 -136,14 -185,61 -32,31 -48,71 -48,115 0,41 18,79 47,108 42,39 102,55 158,55 54,0 110,-14 146,-57 49,44 115,57 179,57 89,0 171,-24 218,-105 30,-50 42,-117 42,-175l96 0c32,0 51,22 51,53 0,30 -9,54 -43,54l-16 -1c-21,0 -59,8 -59,31 0,24 39,31 57,31 9,0 17,-2 26,-2 38,0 58,23 58,65 0,51 -33,81 -84,81l-683 0c-81,0 -193,13 -193,118 0,101 110,118 190,118l798 0zm-321 -607l-273 0c4,-93 40,-202 136,-202 99,0 131,110 137,202zm-137 280c-103,0 -133,-122 -137,-221l275 0c-4,100 -34,221 -138,221zm-329 0c-26,0 -47,-19 -61,-43 -12,-20 -18,-45 -18,-65 0,-32 12,-59 31,-79 20,-21 48,-34 81,-34l37 0c0,25 3,51 7,76 2,11 3,21 3,32 0,25 -5,50 -18,71 -13,24 -33,42 -62,42z"/>
 </g>
</svg>
