<?xml version="1.0" encoding="UTF-8"?>
<!DOCTYPE svg PUBLIC "-//W3C//DTD SVG 1.1//EN" "http://www.w3.org/Graphics/SVG/1.1/DTD/svg11.dtd">
<!-- Creator: CorelDRAW X8 -->
<svg xmlns="http://www.w3.org/2000/svg" xml:space="preserve" width="1360px" height="868px" version="1.1" style="shape-rendering:geometricPrecision; text-rendering:geometricPrecision; image-rendering:optimizeQuality; fill-rule:evenodd; clip-rule:evenodd"
viewBox="0 0 1360 868"
 xmlns:xlink="http://www.w3.org/1999/xlink">
 <defs>
  <style type="text/css">
   <![CDATA[
    .fil0 {fill:#CC6633;fill-rule:nonzero}
   ]]>
  </style>
 </defs>
 <g id="Layer_x0020_1">
  <metadata id="CorelCorpID_0Corel-Layer"/>
  <path class="fil0" d="M752 116c29,-33 62,-63 99,-80 56,-26 120,-36 188,-36 66,0 146,11 204,45 59,35 99,85 98,157 -1,46 -27,82 -65,106 58,31 84,91 84,154 -1,50 -16,104 -49,142 -61,73 -151,86 -241,86l-876 0c-32,0 -71,5 -70,47 1,38 31,44 66,44l1091 0c82,0 82,87 0,87l-1091 0c-81,0 -192,-17 -190,-122 3,-102 115,-114 194,-114l876 0c65,0 109,-20 145,-76 16,-24 24,-57 25,-90 0,-47 -17,-105 -62,-121 -25,-9 -49,-1 -75,-8 -12,-3 -29,-11 -30,-24 -1,-14 16,-23 30,-27 28,-8 48,2 77,-16 23,-14 38,-39 38,-68 1,-42 -16,-74 -42,-96 -35,-32 -88,-46 -138,-47 -60,-2 -111,13 -152,41 -52,36 -86,99 -95,161l37 0c63,0 135,13 185,61 31,30 48,70 48,111 1,40 -15,81 -47,112 -41,38 -100,55 -158,55 -57,0 -111,-16 -146,-57 -46,42 -110,57 -179,57 -70,0 -133,-15 -179,-57 -35,41 -89,57 -147,57 -57,0 -116,-17 -157,-55 -33,-31 -48,-72 -48,-112 1,-41 17,-81 48,-111 50,-48 123,-61 186,-61l38 0c3,-65 17,-120 44,-162 40,-63 109,-99 215,-99 91,0 174,32 221,116zm-358 145l274 0c-3,-35 -9,-77 -24,-113 -21,-50 -56,-90 -116,-89 -57,2 -90,40 -110,88 -15,37 -22,79 -24,114zm274 59l-275 0c2,37 6,78 18,114 5,16 12,31 20,45 22,37 56,62 100,62 44,0 78,-25 100,-63 8,-13 15,-28 20,-43 12,-37 16,-77 17,-115zm-389 79c-5,-26 -7,-53 -8,-79l-37 0c-34,0 -64,13 -85,39 -17,21 -26,48 -26,75 -1,26 5,48 15,65 15,27 40,42 64,42 47,0 94,-49 77,-142zm512 -79c-1,26 -4,54 -8,79 -15,80 30,142 78,142 28,0 50,-21 63,-47 10,-19 15,-41 15,-60 0,-29 -10,-55 -27,-75 -19,-24 -49,-39 -84,-39l-37 0z"/>
 </g>
</svg>
