<?xml version="1.0" encoding="UTF-8"?>
<!DOCTYPE svg PUBLIC "-//W3C//DTD SVG 1.1//EN" "http://www.w3.org/Graphics/SVG/1.1/DTD/svg11.dtd">
<!-- Creator: CorelDRAW X8 -->
<svg xmlns="http://www.w3.org/2000/svg" xml:space="preserve" width="1728px" height="1024px" version="1.1" style="shape-rendering:geometricPrecision; text-rendering:geometricPrecision; image-rendering:optimizeQuality; fill-rule:evenodd; clip-rule:evenodd"
viewBox="0 0 1728 1024"
 xmlns:xlink="http://www.w3.org/1999/xlink">
 <defs>
  <style type="text/css">
   <![CDATA[
    .fil0 {fill:#CC6633;fill-rule:nonzero}
   ]]>
  </style>
 </defs>
 <g id="Layer_x0020_1">
  <metadata id="CorelCorpID_0Corel-Layer"/>
  <path class="fil0" d="M863 0c179,0 286,72 346,180 42,76 61,171 66,270l189 0c104,0 237,33 238,159 1,58 -36,92 -71,111 45,16 97,55 97,120 2,138 -161,186 -273,184 -34,-1 -69,-5 -102,-14 -27,-8 -96,-35 -95,-65 0,-10 8,-20 28,-31 15,-7 34,-11 53,-11 23,0 46,5 62,15 16,10 35,14 54,15 59,2 116,-28 115,-93 0,-33 -20,-55 -42,-65 -27,-12 -68,-4 -100,-3 -44,2 -81,-17 -83,-42 -3,-36 57,-50 81,-49 35,2 69,3 90,-12 16,-12 26,-31 24,-60 -1,-35 -27,-69 -75,-69l-189 0c-3,112 -21,222 -70,308 -60,106 -166,176 -343,176 -142,0 -238,-46 -301,-118 -48,75 -133,117 -242,118 -91,0 -180,-32 -242,-92 -54,-53 -79,-121 -78,-190 0,-70 28,-140 79,-191 83,-83 201,-102 289,-102l84 0c5,-98 23,-193 65,-268 60,-109 167,-181 346,-181zm-399 678c-8,-45 -12,-91 -13,-137l-82 0c-37,0 -98,6 -148,55 -37,37 -57,90 -59,144 -1,54 17,108 58,147 30,30 67,46 100,46 36,0 71,-20 95,-46 51,-55 61,-138 49,-209zm649 -137l-500 0c3,103 20,204 63,280 38,67 97,112 187,112 91,0 150,-45 188,-113 43,-75 60,-176 62,-279zm-499 -92l498 1c-4,-90 -21,-176 -59,-243 -38,-70 -98,-116 -190,-116 -92,0 -152,47 -190,116 -38,67 -54,153 -59,242z"/>
 </g>
</svg>
