<?xml version="1.0" encoding="UTF-8"?>
<!DOCTYPE svg PUBLIC "-//W3C//DTD SVG 1.1//EN" "http://www.w3.org/Graphics/SVG/1.1/DTD/svg11.dtd">
<!-- Creator: CorelDRAW X8 -->
<svg xmlns="http://www.w3.org/2000/svg" xml:space="preserve" width="2718px" height="1024px" version="1.1" style="shape-rendering:geometricPrecision; text-rendering:geometricPrecision; image-rendering:optimizeQuality; fill-rule:evenodd; clip-rule:evenodd"
viewBox="0 0 2718 1024"
 xmlns:xlink="http://www.w3.org/1999/xlink">
 <defs>
  <style type="text/css">
   <![CDATA[
    .fil0 {fill:#CC6633;fill-rule:nonzero}
   ]]>
  </style>
 </defs>
 <g id="Layer_x0020_1">
  <metadata id="CorelCorpID_0Corel-Layer"/>
  <path class="fil0" d="M863 0c179,0 286,72 346,180 42,76 61,171 66,269 26,0 46,0 71,0 94,0 196,23 270,75 59,42 101,103 109,187 7,71 -16,145 -64,198l448 0 0 -271c-105,-3 -204,-34 -284,-105 -69,-60 -116,-140 -115,-232 2,-162 138,-257 291,-256 143,0 272,80 272,236l-1 246c149,-74 285,-307 283,-482 0,-25 37,-45 82,-45 45,0 81,20 81,45l0 909c0,26 -36,46 -81,46l-1233 0c-45,0 -81,-22 -80,-47 1,-25 38,-45 83,-44 58,0 102,-20 131,-72 20,-36 29,-78 25,-121 -3,-36 -16,-71 -40,-101 -43,-54 -111,-75 -178,-75 -24,0 -44,0 -69,0 -3,112 -21,222 -70,308 -60,106 -166,176 -343,176 -142,0 -238,-45 -301,-118 -48,75 -132,118 -241,118 -92,0 -181,-31 -243,-92 -54,-52 -79,-121 -78,-190 0,-70 28,-140 79,-191 84,-83 201,-102 289,-102l84 0c5,-98 23,-192 65,-268 60,-109 167,-181 346,-181zm1409 909l283 0 0 -565c-55,111 -140,215 -283,275l0 290zm-162 -362l0 -266c0,-65 -36,-145 -111,-145 -79,-1 -126,96 -126,165 0,55 21,109 56,151 44,54 111,90 181,95zm-1646 131c-8,-45 -12,-91 -13,-137l-82 0c-37,0 -98,6 -148,55 -36,37 -57,90 -59,144 -1,54 17,108 58,148 30,29 67,45 100,45 36,0 71,-20 95,-46 51,-55 61,-138 49,-209zm649 -137l-500 0c3,103 20,204 63,280 39,67 98,112 187,112 91,0 150,-45 188,-113 43,-75 60,-176 62,-279zm-499 -92l498 1c-4,-90 -21,-176 -58,-243 -39,-69 -99,-116 -191,-116 -92,0 -152,47 -190,116 -37,67 -54,153 -59,242z"/>
 </g>
</svg>
