<?xml version="1.0" encoding="UTF-8"?>
<!DOCTYPE svg PUBLIC "-//W3C//DTD SVG 1.1//EN" "http://www.w3.org/Graphics/SVG/1.1/DTD/svg11.dtd">
<!-- Creator: CorelDRAW X8 -->
<svg xmlns="http://www.w3.org/2000/svg" xml:space="preserve" width="3078px" height="1486px" version="1.1" style="shape-rendering:geometricPrecision; text-rendering:geometricPrecision; image-rendering:optimizeQuality; fill-rule:evenodd; clip-rule:evenodd"
viewBox="0 0 3078 1486"
 xmlns:xlink="http://www.w3.org/1999/xlink">
 <defs>
  <style type="text/css">
   <![CDATA[
    .fil0 {fill:#E31E24;fill-rule:nonzero}
   ]]>
  </style>
 </defs>
 <g id="Layer_x0020_1">
  <metadata id="CorelCorpID_0Corel-Layer"/>
  <path class="fil0" d="M864 933c-186,0 -244,-192 -250,-392l500 0c-6,200 -64,392 -250,392zm-544 0c-33,0 -70,-16 -100,-46 -39,-38 -57,-90 -57,-143 0,-54 20,-109 59,-148 49,-49 111,-55 147,-55l82 0c2,46 5,92 13,137 3,18 5,36 5,54 0,56 -16,114 -54,155 -24,26 -58,46 -95,46zm1936 0c-70,0 -121,-54 -153,-112 -33,-62 -51,-142 -51,-224 -1,-163 69,-341 204,-436 138,96 206,272 206,436 0,82 -17,161 -51,223 -32,58 -85,113 -155,113zm-1143 -484l-498 0c8,-188 75,-358 249,-358 178,0 239,176 249,358zm1807 709c105,-144 158,-330 158,-507 0,-136 -32,-271 -105,-387 -104,-167 -290,-264 -487,-264 -79,0 -155,11 -230,38 -74,-27 -150,-38 -229,-38 -196,0 -381,101 -473,276 -33,63 -55,134 -64,209 -61,-29 -104,-36 -173,-36l-42 0c-5,-98 -23,-194 -66,-270 -60,-107 -166,-179 -345,-179 -179,0 -286,72 -346,180 -42,76 -61,171 -66,269l-83 0c-89,0 -206,19 -289,102 -52,51 -80,126 -80,196 0,69 25,132 79,185 61,60 151,92 242,92 110,0 193,-43 241,-118 64,73 160,118 302,118 176,0 282,-70 342,-176 49,-86 67,-196 70,-308l41 0c94,0 161,72 180,160 25,119 88,235 194,299 25,15 54,24 82,24 19,0 38,-4 55,-15 15,-9 22,-20 22,-31 0,-12 -9,-24 -26,-33 -130,-68 -177,-237 -177,-374 0,-97 22,-190 63,-269 61,-115 184,-210 318,-210 35,0 69,3 103,12 -159,112 -241,303 -241,494 0,91 20,180 58,251 64,117 175,175 305,175 135,0 247,-56 313,-176 39,-71 58,-159 58,-250 0,-192 -82,-382 -242,-494 34,-9 68,-12 103,-12 139,0 259,93 333,205 72,108 99,240 98,373 0,147 -33,298 -104,425 -43,78 -100,147 -173,202 -14,-77 -122,-119 -194,-136 -53,-12 -114,-19 -189,-19 -81,0 -152,8 -208,23 -121,31 -182,90 -182,149 0,58 59,117 177,149 61,17 138,24 213,24 79,0 154,-8 223,-25 175,-42 322,-139 441,-303zm-663 244c-165,0 -242,-45 -242,-89 0,-45 86,-88 242,-88 155,0 236,46 236,88 0,42 -73,89 -236,89z"/>
 </g>
</svg>
