<?xml version="1.0" encoding="UTF-8"?>
<!DOCTYPE svg PUBLIC "-//W3C//DTD SVG 1.1//EN" "http://www.w3.org/Graphics/SVG/1.1/DTD/svg11.dtd">
<!-- Creator: CorelDRAW X8 -->
<svg xmlns="http://www.w3.org/2000/svg" xml:space="preserve" width="3124px" height="1486px" version="1.1" style="shape-rendering:geometricPrecision; text-rendering:geometricPrecision; image-rendering:optimizeQuality; fill-rule:evenodd; clip-rule:evenodd"
viewBox="0 0 3124 1487"
 xmlns:xlink="http://www.w3.org/1999/xlink">
 <defs>
  <style type="text/css">
   <![CDATA[
    .fil0 {fill:#2B2A29;fill-rule:nonzero}
   ]]>
  </style>
 </defs>
 <g id="Layer_x0020_1">
  <metadata id="CorelCorpID_0Corel-Layer"/>
  <path class="fil0" d="M2995 1487c45,0 81,-32 81,-70 0,-38 -36,-69 -81,-69l-1189 0c-61,0 -133,-8 -133,-85 0,-58 44,-83 133,-83l828 0c178,0 311,-42 403,-140 54,-59 87,-138 87,-239 0,-114 -57,-217 -160,-272 70,-44 111,-117 111,-200 0,-106 -65,-196 -157,-250 -103,-60 -235,-79 -349,-79 -101,0 -206,9 -303,43 -73,-31 -161,-42 -239,-42 -195,0 -380,101 -472,276 -34,63 -56,134 -64,209 -68,-33 -118,-36 -216,-36 -5,-99 -24,-194 -66,-270 -60,-108 -167,-180 -346,-180 -179,0 -286,72 -346,181 -42,75 -60,171 -65,269l-90 0c-87,0 -202,21 -283,101 -52,54 -79,122 -79,196 0,67 25,134 78,186 61,59 148,91 239,91 99,0 190,-32 245,-118 63,73 159,118 301,118 177,0 283,-70 343,-176 49,-85 67,-196 70,-308l41 0c94,0 162,72 180,160 26,120 88,235 194,300 24,14 54,24 82,24 19,0 38,-4 56,-15 14,-9 21,-20 21,-31 0,-12 -9,-24 -26,-33 -129,-68 -177,-237 -177,-374 0,-97 22,-191 64,-269 60,-115 183,-210 317,-210 35,0 69,3 104,12 -159,112 -241,303 -241,494 0,91 19,180 58,251 64,119 175,175 308,175 132,0 245,-57 310,-176 38,-71 58,-159 58,-250 0,-189 -80,-377 -236,-489 59,-15 119,-18 180,-18 77,0 166,13 232,51 66,39 111,108 111,185 0,76 -46,159 -130,159 -28,0 -87,8 -87,45 0,35 60,46 87,46 117,3 180,119 180,224 0,68 -19,124 -51,168 -57,79 -157,120 -274,120l-831 0c-135,0 -297,31 -297,198 0,165 160,200 297,200l1189 0zm-1883 -1037l-498 0c10,-189 74,-359 249,-359 179,0 241,182 249,359zm1145 484c-70,0 -121,-54 -153,-112 -34,-62 -51,-142 -51,-224 0,-163 69,-341 204,-436 137,96 205,272 206,436 0,82 -18,161 -52,223 -31,58 -84,113 -154,113zm-1937 -1c-33,0 -70,-15 -100,-45 -40,-39 -58,-91 -58,-143 0,-53 21,-111 59,-149 50,-49 111,-55 148,-55l82 0c1,46 5,93 13,137 3,18 5,36 5,54 0,56 -16,114 -54,155 -24,26 -59,46 -95,46zm543 0c-189,0 -244,-201 -250,-392l500 0c-4,184 -56,392 -250,392z"/>
 </g>
</svg>
