<?xml version="1.0" encoding="UTF-8"?>
<!DOCTYPE svg PUBLIC "-//W3C//DTD SVG 1.1//EN" "http://www.w3.org/Graphics/SVG/1.1/DTD/svg11.dtd">
<!-- Creator: CorelDRAW X8 -->
<svg xmlns="http://www.w3.org/2000/svg" xml:space="preserve" width="2718px" height="1024px" version="1.1" style="shape-rendering:geometricPrecision; text-rendering:geometricPrecision; image-rendering:optimizeQuality; fill-rule:evenodd; clip-rule:evenodd"
viewBox="0 0 2718 1024"
 xmlns:xlink="http://www.w3.org/1999/xlink">
 <defs>
  <style type="text/css">
   <![CDATA[
    .fil0 {fill:#898778;fill-rule:nonzero}
   ]]>
  </style>
 </defs>
 <g id="Layer_x0020_1">
  <metadata id="CorelCorpID_0Corel-Layer"/>
  <path class="fil0" d="M864 0c178,0 285,72 345,180 42,76 61,171 66,269 26,0 46,0 71,0 94,0 196,23 270,75 59,42 101,103 109,187 7,71 -16,145 -65,198l449 0 0 -271c-105,-3 -204,-35 -284,-105 -69,-60 -116,-140 -115,-232 2,-162 138,-257 291,-256 143,0 272,80 272,236l-1 246c149,-74 284,-307 283,-482 0,-25 37,-45 82,-45 45,0 81,20 81,45l0 909c0,25 -36,46 -81,46l-1233 0c-45,0 -81,-22 -80,-47 1,-25 38,-45 83,-45 58,1 102,-19 131,-71 20,-36 29,-78 25,-121 -3,-36 -16,-71 -40,-101 -43,-54 -111,-75 -178,-75 -24,0 -44,0 -69,0 -3,112 -21,222 -70,308 -60,106 -166,176 -342,176 -143,0 -239,-46 -302,-118 -48,75 -132,117 -241,118 -92,0 -181,-32 -243,-92 -53,-53 -79,-121 -78,-190 1,-70 28,-140 80,-191 83,-83 200,-102 289,-102l83 0c5,-98 23,-192 65,-268 60,-109 167,-181 347,-181zm1408 909l283 0 0 -565c-55,111 -140,215 -283,275l0 290zm-162 -362l0 -266c0,-65 -36,-145 -111,-145 -79,-1 -126,96 -126,165 0,55 21,109 56,151 44,54 111,90 181,95zm-1646 131c-8,-45 -12,-91 -13,-137l-82 0c-37,0 -98,6 -147,55 -37,37 -58,90 -59,144 -2,54 16,108 57,147 30,30 67,46 100,46 36,0 71,-21 95,-46 51,-55 61,-138 49,-209zm649 -137l-500 0c3,103 20,204 63,280 39,67 98,112 188,112 90,0 149,-45 187,-113 43,-75 60,-176 62,-279zm-499 -92l498 0c-4,-89 -21,-175 -58,-242 -39,-69 -99,-116 -190,-116 -93,0 -153,47 -191,116 -37,67 -54,153 -59,242z"/>
 </g>
</svg>
