<?xml version="1.0" encoding="UTF-8"?>
<!DOCTYPE svg PUBLIC "-//W3C//DTD SVG 1.1//EN" "http://www.w3.org/Graphics/SVG/1.1/DTD/svg11.dtd">
<!-- Creator: CorelDRAW X8 -->
<svg xmlns="http://www.w3.org/2000/svg" xml:space="preserve" width="1576px" height="868px" version="1.1" style="shape-rendering:geometricPrecision; text-rendering:geometricPrecision; image-rendering:optimizeQuality; fill-rule:evenodd; clip-rule:evenodd"
viewBox="0 0 1576 868"
 xmlns:xlink="http://www.w3.org/1999/xlink">
 <defs>
  <style type="text/css">
   <![CDATA[
    .fil0 {fill:#009846;fill-rule:nonzero}
   ]]>
  </style>
 </defs>
 <g id="Layer_x0020_1">
  <metadata id="CorelCorpID_0Corel-Layer"/>
  <path class="fil0" d="M747 0c93,0 175,27 218,116 50,-84 156,-116 244,-116 120,-1 221,39 287,112 50,56 80,133 80,226 1,170 -99,308 -239,396 -154,98 -364,134 -544,134 -176,0 -374,-27 -531,-112 -166,-89 -261,-236 -262,-427 -1,-122 49,-240 151,-311 28,-19 70,-24 101,-10 20,9 28,27 7,40 -94,60 -137,173 -137,281 1,170 82,307 232,387 130,70 293,93 439,93 149,0 320,-31 447,-111 126,-80 215,-208 214,-360 0,-63 -17,-124 -49,-174 -42,-63 -108,-106 -196,-105 -107,0 -187,102 -202,202l36 0c67,0 134,11 186,61 31,30 48,70 48,111 1,40 -15,81 -47,112 -41,38 -101,55 -158,55 -58,0 -111,-16 -146,-57 -47,42 -110,57 -179,57 -70,0 -133,-15 -180,-57 -35,41 -88,57 -146,57 -57,0 -116,-17 -158,-55 -32,-31 -47,-72 -47,-112 0,-41 17,-81 48,-111 50,-48 122,-61 186,-61l37 0c4,-65 18,-120 45,-162 40,-63 108,-99 215,-99zm-137 261l273 0c-2,-35 -9,-77 -24,-114 -20,-50 -56,-90 -115,-88 -57,2 -91,40 -110,88 -15,36 -22,79 -24,114zm274 59l-275 0c2,53 10,113 38,159 21,37 55,62 100,62 44,0 78,-25 100,-63 27,-46 35,-106 37,-158zm-389 79c-5,-26 -7,-53 -8,-79l-37 0c-34,0 -64,13 -85,39 -17,21 -26,48 -27,75 0,26 6,48 15,65 16,27 40,42 65,42 25,0 50,-14 66,-42 13,-23 19,-57 11,-100zm511 -79c0,26 -3,53 -8,79 -7,40 0,75 16,100 15,26 39,42 63,42 26,0 47,-18 61,-41 11,-19 17,-44 17,-66 -1,-29 -10,-55 -27,-75 -20,-24 -49,-39 -85,-39l-37 0z"/>
 </g>
</svg>
