<?xml version="1.0" encoding="UTF-8"?>
<!DOCTYPE svg PUBLIC "-//W3C//DTD SVG 1.1//EN" "http://www.w3.org/Graphics/SVG/1.1/DTD/svg11.dtd">
<!-- Creator: CorelDRAW X8 -->
<svg xmlns="http://www.w3.org/2000/svg" xml:space="preserve" width="1360px" height="868px" version="1.1" style="shape-rendering:geometricPrecision; text-rendering:geometricPrecision; image-rendering:optimizeQuality; fill-rule:evenodd; clip-rule:evenodd"
viewBox="0 0 1360 868"
 xmlns:xlink="http://www.w3.org/1999/xlink">
 <defs>
  <style type="text/css">
   <![CDATA[
    .fil0 {fill:#2B2A29;fill-rule:nonzero}
   ]]>
  </style>
 </defs>
 <g id="Layer_x0020_1">
  <metadata id="CorelCorpID_0Corel-Layer"/>
  <path class="fil0" d="M1269 868c41,0 62,-21 62,-43 1,-21 -20,-44 -62,-44l-1079 0c-33,0 -66,-5 -66,-46 0,-40 38,-45 70,-45l876 0c90,0 180,-13 241,-86 33,-38 48,-92 49,-142 0,-63 -26,-123 -84,-154 39,-25 65,-62 65,-109 0,-70 -40,-119 -98,-154 -58,-34 -138,-45 -204,-45 -68,0 -132,10 -188,36 -37,17 -70,47 -99,80 -47,-84 -130,-116 -221,-116 -106,0 -175,36 -215,99 -27,42 -41,97 -44,162l-38 0c-63,0 -136,13 -186,61 -31,30 -48,66 -48,111 0,40 15,81 48,112 41,38 100,55 157,55 58,0 112,-16 147,-57 46,42 109,57 179,57 69,0 133,-15 179,-57 35,41 89,57 146,57 58,0 117,-17 158,-55 31,-30 47,-70 47,-108 0,-45 -16,-84 -48,-115 -50,-48 -122,-61 -185,-61l-37 0c9,-62 43,-125 95,-161 39,-26 86,-41 141,-41 53,0 109,10 149,47 25,21 42,52 42,92 0,30 -11,56 -38,72 -17,10 -30,11 -44,12 -11,0 -21,0 -33,3 -14,4 -30,12 -30,26 0,14 19,22 30,25 11,3 22,4 33,4 14,0 29,-1 42,5 45,16 62,74 62,121 -1,33 -9,66 -25,90 -36,56 -80,76 -145,76l-876 0c-79,0 -194,13 -194,117 0,102 110,119 190,119l1079 0zm-601 -607l-274 0c2,-35 9,-77 24,-114 20,-49 56,-88 112,-88 59,0 93,40 114,89 15,36 21,78 24,113zm-137 280c-103,0 -134,-122 -138,-221l275 0c-2,99 -37,221 -137,221zm-329 0c-24,0 -49,-15 -64,-42 -9,-16 -15,-36 -15,-59 0,-30 6,-57 26,-81 21,-26 51,-39 85,-39l37 0c1,26 3,53 8,79 2,13 4,26 4,37 0,69 -41,105 -81,105zm659 0c-42,0 -81,-47 -81,-111 0,-10 1,-20 3,-31 4,-25 7,-53 8,-79l37 0c35,0 65,15 84,39 17,20 27,46 27,75 0,19 -5,41 -15,60 -13,26 -35,47 -63,47z"/>
 </g>
</svg>
