<?xml version="1.0" encoding="UTF-8"?>
<!DOCTYPE svg PUBLIC "-//W3C//DTD SVG 1.1//EN" "http://www.w3.org/Graphics/SVG/1.1/DTD/svg11.dtd">
<!-- Creator: CorelDRAW X8 -->
<svg xmlns="http://www.w3.org/2000/svg" xml:space="preserve" width="2223px" height="1024px" version="1.1" style="shape-rendering:geometricPrecision; text-rendering:geometricPrecision; image-rendering:optimizeQuality; fill-rule:evenodd; clip-rule:evenodd"
viewBox="0 0 2223 1024"
 xmlns:xlink="http://www.w3.org/1999/xlink">
 <defs>
  <style type="text/css">
   <![CDATA[
    .fil0 {fill:#009846;fill-rule:nonzero}
   ]]>
  </style>
 </defs>
 <g id="Layer_x0020_1">
  <metadata id="CorelCorpID_0Corel-Layer"/>
  <path class="fil0" d="M864 0c163,0 266,60 329,152 14,21 25,43 35,66 16,-23 33,-44 52,-63 113,-116 276,-155 433,-155 106,0 228,18 318,74 96,58 164,143 162,269 -1,78 -45,142 -110,182 77,41 131,111 139,199 5,64 -15,132 -64,193 -37,45 -94,80 -163,96 -69,17 -146,15 -224,-13 -29,-10 -55,-37 -26,-63 27,-23 79,-26 112,-14 28,10 54,11 75,6 30,-7 58,-25 78,-50 38,-47 54,-101 50,-151 -4,-46 -25,-89 -61,-119 -23,-18 -53,-31 -88,-33 -17,-1 -35,2 -52,1 -35,-3 -64,-18 -70,-39 -6,-25 24,-48 69,-52 16,-1 35,0 51,-3 31,-5 57,-19 77,-37 29,-27 44,-64 45,-104 0,-70 -26,-125 -67,-165 -62,-59 -158,-86 -251,-86 -110,-1 -238,30 -318,108 -58,57 -102,137 -120,250l84 0c88,0 206,19 289,102 51,52 79,121 79,191 1,69 -24,138 -78,191 -62,60 -151,91 -243,91 -109,0 -193,-43 -241,-118 -63,73 -159,118 -301,118 -142,0 -238,-45 -302,-118 -48,75 -131,118 -241,118 -91,0 -181,-31 -242,-91 -54,-53 -79,-122 -79,-191 1,-70 28,-139 80,-191 83,-83 200,-102 289,-102l83 0c5,-98 24,-193 66,-269 60,-108 167,-180 346,-180zm412 541c-1,48 -5,96 -13,142 -13,68 1,152 49,204 24,26 59,46 95,46 33,0 70,-16 100,-45 41,-40 59,-94 58,-148 -2,-54 -22,-107 -59,-144 -50,-49 -111,-55 -148,-55l-82 0zm-811 141c-8,-46 -12,-93 -14,-141l-82 0c-36,0 -98,6 -147,55 -37,37 -58,90 -59,144 -1,54 17,108 57,148 30,29 67,45 100,45 37,0 71,-20 95,-46 49,-52 62,-137 50,-205zm649 -141l-500 0c3,103 19,205 62,280 39,67 98,112 188,112 90,0 149,-45 188,-112 43,-76 59,-177 62,-280zm-499 -92l498 0c-5,-89 -22,-175 -59,-242 -39,-70 -99,-116 -190,-116 -92,0 -152,47 -191,116 -37,67 -54,153 -58,242z"/>
 </g>
</svg>
