<?xml version="1.0" encoding="UTF-8"?>
<!DOCTYPE svg PUBLIC "-//W3C//DTD SVG 1.1//EN" "http://www.w3.org/Graphics/SVG/1.1/DTD/svg11.dtd">
<!-- Creator: CorelDRAW X8 -->
<svg xmlns="http://www.w3.org/2000/svg" xml:space="preserve" width="1742px" height="1486px" version="1.1" style="shape-rendering:geometricPrecision; text-rendering:geometricPrecision; image-rendering:optimizeQuality; fill-rule:evenodd; clip-rule:evenodd"
viewBox="0 0 1742 1486"
 xmlns:xlink="http://www.w3.org/1999/xlink">
 <defs>
  <style type="text/css">
   <![CDATA[
    .fil0 {fill:#2B2A29;fill-rule:nonzero}
   ]]>
  </style>
 </defs>
 <g id="Layer_x0020_1">
  <metadata id="CorelCorpID_0Corel-Layer"/>
  <path class="fil0" d="M863 1486c78,0 150,-5 221,-16 71,-11 141,-29 214,-55 252,-89 444,-270 444,-548 0,-59 -11,-115 -32,-166 -59,-146 -198,-252 -396,-252l-39 0c-5,-98 -24,-193 -66,-270 -60,-107 -167,-179 -346,-179 -179,0 -286,72 -346,181 -42,75 -60,170 -65,268l-84 0c-88,0 -206,19 -289,102 -52,52 -79,121 -79,195 0,67 25,134 78,186 62,60 151,92 243,92 109,-1 193,-43 241,-119 63,73 159,119 301,119 177,0 283,-71 343,-176 49,-86 67,-196 70,-308l38 0c111,0 195,76 238,181 18,46 28,100 28,153 0,237 -122,382 -342,468 8,-18 13,-36 13,-54 0,-39 -21,-77 -69,-108 -40,-26 -101,-39 -161,-39 -53,0 -114,12 -158,40 -44,-28 -105,-40 -158,-40 -60,0 -120,13 -161,39 -38,24 -68,63 -68,110 0,65 60,130 143,161 77,27 164,35 244,35zm249 -1037l-498 0c10,-176 68,-358 249,-358 173,0 241,168 249,358zm-792 484c-33,0 -70,-16 -100,-46 -40,-38 -58,-91 -58,-143 0,-53 22,-111 59,-149 50,-49 111,-55 148,-55l82 0c1,47 5,93 13,137 3,18 5,36 5,54 0,57 -16,114 -54,155 -24,26 -59,47 -95,47zm543 -1c-185,0 -244,-191 -250,-392l500 0c-4,198 -62,392 -250,392zm-1 476c-62,0 -137,-5 -193,-30 -39,-17 -65,-46 -65,-90 2,-52 59,-71 103,-71 55,0 85,41 85,96 0,31 47,41 71,41 24,0 71,-10 71,-41 0,-55 30,-96 85,-96 46,0 103,20 103,75 0,41 -27,70 -65,86 -57,26 -133,30 -195,30z"/>
 </g>
</svg>
