<?xml version="1.0" encoding="UTF-8"?>
<!DOCTYPE svg PUBLIC "-//W3C//DTD SVG 1.1//EN" "http://www.w3.org/Graphics/SVG/1.1/DTD/svg11.dtd">
<!-- Creator: CorelDRAW X8 -->
<svg xmlns="http://www.w3.org/2000/svg" xml:space="preserve" width="1349px" height="600px" version="1.1" style="shape-rendering:geometricPrecision; text-rendering:geometricPrecision; image-rendering:optimizeQuality; fill-rule:evenodd; clip-rule:evenodd"
viewBox="0 0 1349 600"
 xmlns:xlink="http://www.w3.org/1999/xlink">
 <defs>
  <style type="text/css">
   <![CDATA[
    .fil0 {fill:#2B2A29;fill-rule:nonzero}
   ]]>
  </style>
 </defs>
 <g id="Layer_x0020_1">
  <metadata id="CorelCorpID_0Corel-Layer"/>
  <path class="fil0" d="M1125 600c13,0 27,-2 39,-6 49,-17 97,-61 126,-98 42,-55 59,-127 59,-191 0,-78 -30,-147 -89,-206 -66,-66 -157,-99 -253,-99 -97,0 -196,41 -257,116 -46,-80 -128,-116 -219,-116 -107,0 -175,36 -215,99 -27,42 -41,97 -45,162l-37 0c-64,0 -136,13 -186,61 -31,30 -48,70 -48,111 0,41 15,81 48,112 41,38 100,55 157,55 58,0 111,-16 146,-57 47,42 110,57 180,57 69,0 132,-15 179,-57 35,41 88,57 146,57 57,0 117,-17 158,-55 31,-30 47,-70 47,-108 0,-45 -15,-84 -48,-115 -50,-48 -122,-61 -185,-61l-37 0c7,-49 25,-96 58,-132 40,-45 100,-70 158,-70 62,0 125,29 165,78 38,46 54,108 54,168 0,50 -9,103 -34,146 -24,42 -58,76 -105,97 -12,5 -19,14 -19,22 0,6 4,12 12,18 12,8 28,12 45,12zm-458 -339l-273 0c2,-36 9,-78 24,-114 20,-51 56,-88 114,-88 57,0 91,39 111,88 15,37 22,79 24,114zm-136 280c-105,0 -136,-131 -138,-221l275 0c-3,96 -35,221 -137,221zm-329 0c-25,0 -49,-15 -65,-42 -10,-17 -16,-39 -15,-65 0,-27 10,-55 27,-76 21,-25 51,-38 85,-38l37 0c1,26 3,53 8,78 2,14 4,26 4,38 0,26 -6,47 -15,64 -16,27 -41,41 -66,41zm659 0c-24,0 -47,-16 -63,-41 -12,-19 -19,-44 -19,-72 0,-9 1,-19 3,-29 5,-26 8,-53 8,-79l37 0c36,0 65,15 85,38 18,21 27,47 27,76 1,20 -5,45 -17,66 -13,23 -35,41 -61,41z"/>
 </g>
</svg>
