<?xml version="1.0" encoding="UTF-8"?>
<!DOCTYPE svg PUBLIC "-//W3C//DTD SVG 1.1//EN" "http://www.w3.org/Graphics/SVG/1.1/DTD/svg11.dtd">
<!-- Creator: CorelDRAW X8 -->
<svg xmlns="http://www.w3.org/2000/svg" xml:space="preserve" width="1729px" height="1486px" version="1.1" style="shape-rendering:geometricPrecision; text-rendering:geometricPrecision; image-rendering:optimizeQuality; fill-rule:evenodd; clip-rule:evenodd"
viewBox="0 0 1729 1486"
 xmlns:xlink="http://www.w3.org/1999/xlink">
 <defs>
  <style type="text/css">
   <![CDATA[
    .fil0 {fill:#2B2A29;fill-rule:nonzero}
   ]]>
  </style>
 </defs>
 <g id="Layer_x0020_1">
  <metadata id="CorelCorpID_0Corel-Layer"/>
  <path class="fil0" d="M1110 449l-495 0c10,-186 74,-358 248,-358 174,0 241,168 247,358zm338 91c56,0 89,48 89,100 1,50 -19,95 -73,101 -22,3 -45,-2 -66,-2 -44,0 -80,22 -80,46 0,25 36,47 80,47 23,0 46,-5 68,-3 67,7 108,45 108,116 0,69 -49,145 -153,145l-1127 0c-133,0 -294,32 -294,196 0,165 161,200 294,200l1305 0c46,0 80,-32 80,-70 0,-39 -34,-70 -80,-70l-1305 0c-63,0 -130,-7 -130,-84 0,-56 47,-81 130,-81l1131 0c214,0 304,-126 304,-231 0,-81 -50,-151 -127,-175 53,-21 87,-75 87,-135 0,-115 -100,-191 -241,-191l-174 0c-13,-235 -100,-449 -411,-449 -318,0 -398,221 -412,449l-83 0c-90,0 -204,18 -288,101 -53,53 -80,123 -80,197 0,150 140,276 321,276 107,0 194,-42 241,-119 63,74 160,119 301,119 324,0 404,-238 411,-483l174 0zm-1127 392c-80,0 -157,-87 -157,-182 0,-60 16,-113 57,-154 49,-50 110,-56 147,-56l83 0c0,70 17,133 17,192 0,92 -57,200 -147,200zm542 0c-181,0 -244,-185 -251,-392l502 0c-7,203 -67,392 -251,392z"/>
 </g>
</svg>
