<?xml version="1.0" encoding="UTF-8"?>
<!DOCTYPE svg PUBLIC "-//W3C//DTD SVG 1.1//EN" "http://www.w3.org/Graphics/SVG/1.1/DTD/svg11.dtd">
<!-- Creator: CorelDRAW X8 -->
<svg xmlns="http://www.w3.org/2000/svg" xml:space="preserve" width="2224px" height="1486px" version="1.1" style="shape-rendering:geometricPrecision; text-rendering:geometricPrecision; image-rendering:optimizeQuality; fill-rule:evenodd; clip-rule:evenodd"
viewBox="0 0 2224 1486"
 xmlns:xlink="http://www.w3.org/1999/xlink">
 <defs>
  <style type="text/css">
   <![CDATA[
    .fil0 {fill:#2B2A29;fill-rule:nonzero}
   ]]>
  </style>
 </defs>
 <g id="Layer_x0020_1">
  <metadata id="CorelCorpID_0Corel-Layer"/>
  <path class="fil0" d="M2094 1486c45,0 82,-31 82,-69 0,-39 -37,-69 -82,-69l-1798 0c-65,0 -131,-8 -131,-87 0,-56 44,-82 131,-82l1472 0c143,0 281,-28 376,-144 56,-68 80,-160 80,-247 0,-107 -43,-212 -141,-263 68,-42 109,-106 109,-187 0,-122 -67,-206 -161,-264 -91,-56 -215,-74 -321,-74 -151,0 -306,37 -420,145 -22,21 -44,46 -62,74 -10,-24 -22,-47 -37,-68 -63,-92 -165,-151 -328,-151 -179,0 -286,72 -346,181 -42,76 -60,170 -65,268l-84 0c-88,0 -206,19 -289,102 -53,52 -79,121 -79,195 0,67 25,134 78,186 61,60 151,92 243,92 109,0 193,-43 241,-119 63,73 159,119 301,119 142,0 238,-46 302,-119 48,76 132,119 241,119 91,0 181,-32 242,-92 54,-53 79,-122 79,-190 0,-73 -28,-140 -80,-191 -83,-83 -200,-102 -289,-102l-83 0c19,-113 63,-193 120,-249 80,-79 190,-109 299,-109 94,0 201,19 269,89 41,41 67,89 67,159 0,42 -14,78 -45,107 -19,18 -45,32 -77,38 -15,2 -34,1 -51,3 -29,2 -68,11 -68,46 0,30 46,44 70,44 17,0 33,-1 48,0 33,1 62,7 91,33 47,42 68,112 68,182 1,59 -14,118 -42,162 -63,100 -143,135 -256,135l-1472 0c-137,0 -296,31 -296,199 0,164 161,198 296,198l1798 0zm-982 -1037l-498 0c10,-177 68,-358 249,-358 179,0 241,182 249,358zm295 484c-37,0 -71,-21 -95,-47 -37,-40 -54,-99 -54,-156 0,-16 1,-32 4,-47 8,-46 13,-94 14,-143l82 0c36,0 98,6 147,55 39,39 59,95 59,149 0,52 -18,104 -57,143 -30,30 -67,46 -100,46zm-1087 0c-33,0 -70,-16 -100,-46 -40,-39 -58,-91 -58,-143 0,-53 21,-112 59,-149 50,-49 111,-55 148,-55l82 0c1,48 5,96 13,141 3,16 5,33 5,50 0,57 -17,115 -54,155 -24,26 -59,47 -95,47zm543 -1c-186,0 -244,-191 -250,-392l500 0c-4,188 -58,392 -250,392z"/>
 </g>
</svg>
