<?xml version="1.0" encoding="UTF-8"?>
<!DOCTYPE svg PUBLIC "-//W3C//DTD SVG 1.1//EN" "http://www.w3.org/Graphics/SVG/1.1/DTD/svg11.dtd">
<!-- Creator: CorelDRAW X8 -->
<svg xmlns="http://www.w3.org/2000/svg" xml:space="preserve" width="1729px" height="1486px" version="1.1" style="shape-rendering:geometricPrecision; text-rendering:geometricPrecision; image-rendering:optimizeQuality; fill-rule:evenodd; clip-rule:evenodd"
viewBox="0 0 1729 1486"
 xmlns:xlink="http://www.w3.org/1999/xlink">
 <defs>
  <style type="text/css">
   <![CDATA[
    .fil0 {fill:#E31E24;fill-rule:nonzero}
   ]]>
  </style>
 </defs>
 <g id="Layer_x0020_1">
  <metadata id="CorelCorpID_0Corel-Layer"/>
  <path class="fil0" d="M1275 449c-5,-98 -23,-194 -66,-270 -59,-107 -167,-179 -345,-179 -180,0 -286,72 -347,180 -42,76 -60,171 -65,269l-83 0c-89,0 -206,19 -289,102 -52,52 -80,122 -80,195 0,68 26,136 78,187 62,61 152,91 243,91 109,0 193,-43 241,-118 63,73 160,118 302,118 176,0 282,-70 342,-176 49,-85 70,-210 70,-308l172 0c56,0 89,48 89,100 1,50 -19,95 -73,101 -22,3 -45,-2 -66,-2 -44,0 -80,22 -80,46 0,25 36,47 80,47 23,0 46,-5 68,-3 67,7 108,45 108,116 0,69 -49,145 -153,145l-1127 0c-133,0 -294,32 -294,196 0,165 161,200 294,200l1305 0c46,0 80,-32 80,-70 0,-39 -34,-70 -80,-70l-1305 0c-63,0 -130,-7 -130,-84 0,-56 47,-81 130,-81l1131 0c214,0 304,-126 304,-231 0,-81 -50,-151 -127,-175 53,-21 87,-75 87,-135 0,-115 -100,-191 -241,-191l-173 0zm-163 0l-498 0c10,-186 74,-358 250,-358 174,0 240,171 248,358zm-792 484c-33,0 -70,-16 -100,-45 -39,-38 -57,-89 -57,-140 0,-57 18,-111 59,-152 49,-49 110,-55 147,-55l82 0c1,46 5,93 13,137 3,18 5,36 5,54 0,56 -16,114 -54,155 -24,26 -59,46 -95,46zm544 0c-183,0 -246,-188 -250,-392l500 0c-6,200 -64,392 -250,392z"/>
 </g>
</svg>
