<?xml version="1.0" encoding="UTF-8"?>
<!DOCTYPE svg PUBLIC "-//W3C//DTD SVG 1.1//EN" "http://www.w3.org/Graphics/SVG/1.1/DTD/svg11.dtd">
<!-- Creator: CorelDRAW X8 -->
<svg xmlns="http://www.w3.org/2000/svg" xml:space="preserve" width="1729px" height="1486px" version="1.1" style="shape-rendering:geometricPrecision; text-rendering:geometricPrecision; image-rendering:optimizeQuality; fill-rule:evenodd; clip-rule:evenodd"
viewBox="0 0 1729 1486"
 xmlns:xlink="http://www.w3.org/1999/xlink">
 <defs>
  <style type="text/css">
   <![CDATA[
    .fil0 {fill:#2B2A29;fill-rule:nonzero}
   ]]>
  </style>
 </defs>
 <g id="Layer_x0020_1">
  <metadata id="CorelCorpID_0Corel-Layer"/>
  <path class="fil0" d="M1600 1486c45,0 81,-31 81,-69 0,-38 -36,-69 -81,-69l-1304 0c-65,0 -131,-7 -131,-87 0,-56 44,-81 131,-81l1129 0c215,0 304,-115 304,-224 0,-79 -47,-157 -125,-181 53,-23 88,-75 88,-135 0,-47 -14,-91 -47,-125 -45,-46 -118,-66 -197,-66l-173 0c-5,-98 -24,-193 -66,-270 -60,-107 -167,-179 -345,-179 -180,0 -286,72 -347,180 -42,76 -60,171 -65,269l-83 0c-89,0 -206,19 -289,102 -52,51 -80,122 -80,195 0,67 26,134 78,186 62,60 151,92 243,92 109,-1 193,-43 241,-118 63,72 160,118 302,118 176,0 282,-71 342,-176 49,-86 67,-196 70,-308l172 0c53,0 87,50 88,97 0,32 -18,72 -46,91 -14,9 -30,11 -46,11l-45 -1c-45,1 -80,22 -80,47 1,24 37,45 81,45 21,0 42,-4 63,-4 12,0 25,1 38,6 48,18 73,67 73,116 0,87 -65,141 -150,141l-1128 0c-136,0 -296,32 -296,199 0,164 161,198 296,198l1304 0zm-488 -1037l-498 0c10,-186 74,-358 250,-358 172,0 240,168 248,358zm-792 484c-33,0 -70,-16 -100,-46 -39,-37 -57,-88 -57,-139 0,-56 18,-112 59,-152 49,-50 110,-56 147,-56l82 0c1,47 5,93 13,138 3,18 5,36 5,54 0,56 -16,113 -54,154 -24,26 -59,47 -95,47zm544 0c-183,0 -245,-187 -251,-393l501 0c-6,203 -65,393 -250,393z"/>
 </g>
</svg>
