<?xml version="1.0" encoding="UTF-8"?>
<!DOCTYPE svg PUBLIC "-//W3C//DTD SVG 1.1//EN" "http://www.w3.org/Graphics/SVG/1.1/DTD/svg11.dtd">
<!-- Creator: CorelDRAW X8 -->
<svg xmlns="http://www.w3.org/2000/svg" xml:space="preserve" width="2718px" height="1024px" version="1.1" style="shape-rendering:geometricPrecision; text-rendering:geometricPrecision; image-rendering:optimizeQuality; fill-rule:evenodd; clip-rule:evenodd"
viewBox="0 0 2718 1024"
 xmlns:xlink="http://www.w3.org/1999/xlink">
 <defs>
  <style type="text/css">
   <![CDATA[
    .fil0 {fill:#E31E24;fill-rule:nonzero}
   ]]>
  </style>
 </defs>
 <g id="Layer_x0020_1">
  <metadata id="CorelCorpID_0Corel-Layer"/>
  <path class="fil0" d="M863 1024c327,0 406,-237 413,-484l69 0c67,0 135,21 178,75 31,39 40,72 41,121 1,36 -9,71 -26,101 -29,52 -73,72 -131,72 -26,0 -83,9 -83,45 0,25 36,46 80,46l1233 0c45,0 81,-20 81,-46l0 -909c0,-25 -36,-45 -81,-45 -45,0 -82,20 -82,45 0,171 -127,405 -283,482l0 -246c0,-158 -129,-236 -273,-236 -154,0 -288,96 -289,259 0,91 48,169 115,229 81,71 180,102 285,105l0 271 -449 0c42,-47 67,-110 65,-173 -3,-98 -46,-168 -110,-213 -73,-52 -172,-74 -270,-74l-71 0c-12,-234 -102,-449 -412,-449 -310,0 -399,214 -411,449l-84 0c-88,0 -205,19 -289,102 -56,55 -79,123 -79,195 0,68 25,135 78,186 62,61 151,92 243,92 109,0 193,-43 241,-118 63,73 159,118 301,118zm249 -575l-498 0c11,-187 74,-358 249,-358 173,0 241,168 249,358zm998 98c-125,-9 -237,-117 -237,-246 0,-69 47,-165 125,-165 76,0 112,77 112,145l0 266zm445 362l-283 0 0 -290c143,-60 228,-164 283,-275l0 565zm-2235 24c-33,0 -70,-16 -100,-45 -40,-39 -58,-91 -58,-144 0,-56 23,-112 59,-148 49,-49 111,-55 148,-55l82 0c1,46 5,92 13,137 3,18 5,36 5,54 0,56 -16,114 -54,155 -24,26 -59,46 -95,46zm543 0c-183,0 -244,-191 -250,-392l500 0c-4,186 -58,392 -250,392z"/>
 </g>
</svg>
