<?xml version="1.0" encoding="UTF-8"?>
<!DOCTYPE svg PUBLIC "-//W3C//DTD SVG 1.1//EN" "http://www.w3.org/Graphics/SVG/1.1/DTD/svg11.dtd">
<!-- Creator: CorelDRAW X8 -->
<svg xmlns="http://www.w3.org/2000/svg" xml:space="preserve" width="1349px" height="600px" version="1.1" style="shape-rendering:geometricPrecision; text-rendering:geometricPrecision; image-rendering:optimizeQuality; fill-rule:evenodd; clip-rule:evenodd"
viewBox="0 0 1349 600"
 xmlns:xlink="http://www.w3.org/1999/xlink">
 <defs>
  <style type="text/css">
   <![CDATA[
    .fil0 {fill:#898778;fill-rule:nonzero}
   ]]>
  </style>
 </defs>
 <g id="Layer_x0020_1">
  <metadata id="CorelCorpID_0Corel-Layer"/>
  <path class="fil0" d="M531 0c91,0 173,36 219,116 61,-75 160,-116 257,-116 96,0 187,33 253,99 59,59 89,133 89,211 0,64 -17,132 -59,186 -29,37 -77,81 -126,98 -26,8 -61,10 -84,-6 -21,-13 -13,-31 7,-39 47,-22 80,-56 105,-98 24,-42 33,-91 34,-141 2,-61 -16,-125 -54,-173 -40,-49 -103,-78 -165,-78 -58,0 -118,26 -158,70 -33,36 -51,83 -58,132l37 0c63,0 135,13 185,61 31,30 48,70 48,111 1,40 -15,81 -47,112 -41,39 -101,55 -158,55 -58,0 -111,-16 -146,-57 -47,42 -110,57 -179,57 -70,0 -133,-15 -180,-57 -35,41 -88,57 -146,57 -57,0 -116,-16 -158,-55 -32,-31 -47,-72 -47,-112 0,-41 17,-81 48,-111 50,-48 122,-61 186,-61l37 0c4,-65 18,-120 45,-162 40,-63 108,-99 215,-99zm-137 261l273 0c-2,-35 -9,-77 -24,-113 -20,-50 -56,-90 -115,-89 -57,2 -91,40 -110,88 -15,37 -22,79 -24,114zm274 59l-275 0c1,37 6,78 18,114 18,56 55,107 120,107 64,0 101,-51 119,-106 12,-37 17,-77 18,-115zm-389 79c-5,-26 -7,-53 -8,-79l-37 0c-34,0 -64,13 -85,38 -17,21 -26,49 -27,76 0,26 6,48 15,65 16,28 40,42 65,42 25,0 50,-14 66,-41 13,-24 19,-58 11,-101zm511 -79c0,26 -3,54 -8,80 -7,39 1,75 16,100 16,25 39,41 63,41 26,0 48,-18 62,-41 11,-21 16,-45 16,-66 -1,-29 -10,-55 -27,-75 -20,-24 -49,-39 -85,-39l-37 0z"/>
 </g>
</svg>
