<?xml version="1.0" encoding="UTF-8"?>
<!DOCTYPE svg PUBLIC "-//W3C//DTD SVG 1.1//EN" "http://www.w3.org/Graphics/SVG/1.1/DTD/svg11.dtd">
<!-- Creator: CorelDRAW X8 -->
<svg xmlns="http://www.w3.org/2000/svg" xml:space="preserve" width="2586px" height="1486px" version="1.1" style="shape-rendering:geometricPrecision; text-rendering:geometricPrecision; image-rendering:optimizeQuality; fill-rule:evenodd; clip-rule:evenodd"
viewBox="0 0 2586 1486"
 xmlns:xlink="http://www.w3.org/1999/xlink">
 <defs>
  <style type="text/css">
   <![CDATA[
    .fil0 {fill:#898778;fill-rule:nonzero}
   ]]>
  </style>
 </defs>
 <g id="Layer_x0020_1">
  <metadata id="CorelCorpID_0Corel-Layer"/>
  <path class="fil0" d="M2323 251c-80,-109 -196,-161 -328,-160 -87,0 -178,41 -249,117 -56,59 -96,141 -109,242l82 0c88,0 206,18 289,101 51,51 79,121 79,191 1,69 -24,137 -78,190 -61,60 -151,92 -242,92 -110,-1 -194,-43 -241,-118 -64,72 -160,118 -302,118 -142,0 -238,-46 -302,-118 -48,75 -131,117 -241,118 -91,0 -181,-32 -242,-92 -54,-53 -79,-121 -79,-190 1,-70 29,-140 80,-191 83,-83 200,-101 289,-101l83 0c5,-98 24,-193 66,-269 60,-108 167,-181 346,-181 161,0 292,59 360,209 85,-128 227,-208 411,-209 185,-1 364,62 479,216 77,104 111,233 112,362 2,286 -159,526 -397,681 -250,164 -591,228 -888,227 -289,0 -611,-48 -865,-189 -282,-157 -435,-412 -436,-734 -1,-213 84,-425 268,-546 31,-21 80,-22 114,-5 31,14 41,43 10,64 -161,106 -230,302 -229,487 0,289 133,527 387,669 219,122 499,163 751,164 255,0 549,-55 765,-196 215,-141 359,-364 358,-622 -1,-116 -31,-233 -101,-327zm-687 291c-1,48 -5,95 -13,141 -12,68 1,152 49,204 24,25 59,46 95,46 33,0 70,-16 101,-46 40,-39 58,-93 57,-147 -1,-54 -22,-107 -59,-144 -49,-49 -111,-54 -147,-54l-83 0zm-811 140c-8,-46 -12,-92 -13,-140l-83 0c-36,0 -98,5 -147,54 -37,37 -58,90 -59,144 -1,54 17,108 57,147 31,30 68,46 101,46 36,0 70,-21 94,-46 49,-53 62,-137 50,-205zm649 -140l-500 0c3,103 19,203 63,279 38,67 97,112 187,112 90,0 150,-45 188,-113 43,-75 59,-175 62,-278zm-499 -92l498 0c-5,-89 -22,-176 -59,-243 -38,-69 -98,-115 -190,-115 -92,0 -152,46 -191,116 -37,66 -54,153 -58,242z"/>
 </g>
</svg>
