<?xml version="1.0" encoding="UTF-8"?>
<!DOCTYPE svg PUBLIC "-//W3C//DTD SVG 1.1//EN" "http://www.w3.org/Graphics/SVG/1.1/DTD/svg11.dtd">
<!-- Creator: CorelDRAW X8 -->
<svg xmlns="http://www.w3.org/2000/svg" xml:space="preserve" width="2082px" height="1487px" version="1.1" style="shape-rendering:geometricPrecision; text-rendering:geometricPrecision; image-rendering:optimizeQuality; fill-rule:evenodd; clip-rule:evenodd"
viewBox="0 0 2082 1488"
 xmlns:xlink="http://www.w3.org/1999/xlink">
 <defs>
  <style type="text/css">
   <![CDATA[
    .fil0 {fill:#2B2A29;fill-rule:nonzero}
   ]]>
  </style>
 </defs>
 <g id="Layer_x0020_1">
  <metadata id="CorelCorpID_0Corel-Layer"/>
  <path class="fil0" d="M1116 1488c339,-1 966,-119 966,-530 0,-80 -45,-158 -125,-183 53,-23 88,-75 88,-135 0,-46 -14,-91 -47,-125 -45,-46 -118,-66 -197,-66l-173 0c-5,-98 -24,-194 -66,-270 -60,-107 -167,-179 -346,-179 -180,0 -286,72 -346,180 -43,76 -61,171 -66,269l-83 0c-89,0 -206,19 -289,102 -52,51 -80,123 -80,195 0,67 26,134 78,186 62,60 151,92 243,92 109,0 193,-43 241,-119 64,73 160,119 302,119 177,0 283,-71 343,-176 49,-86 67,-196 70,-308l172 0c53,0 87,50 88,97 0,33 -13,64 -36,83 -15,12 -34,20 -56,19l-45 -1c-45,1 -80,22 -80,47 1,24 37,45 81,45 21,0 42,-4 63,-4 23,0 44,7 60,18 32,22 51,71 51,114 0,359 -541,433 -811,438 -260,0 -521,-60 -719,-242 -159,-144 -234,-333 -234,-565 0,-191 80,-405 244,-514 14,-9 20,-19 20,-29 0,-14 -11,-26 -29,-35 -15,-7 -34,-11 -53,-11 -23,0 -45,5 -62,16 -190,125 -283,351 -283,573 0,266 98,481 288,639 235,197 527,260 828,260zm349 -1039l-499 0c12,-189 76,-358 250,-358 175,0 241,170 249,358zm-793 484c-33,0 -70,-16 -100,-46 -39,-38 -57,-89 -57,-139 0,-56 19,-112 59,-153 49,-49 110,-55 147,-55l82 0c1,47 5,93 13,137 3,18 5,36 5,54 0,57 -16,114 -54,155 -24,26 -59,47 -95,47zm544 -1c-186,0 -244,-190 -250,-392l501 0c-6,201 -63,392 -251,392z"/>
 </g>
</svg>
