<?xml version="1.0" encoding="UTF-8"?>
<!DOCTYPE svg PUBLIC "-//W3C//DTD SVG 1.1//EN" "http://www.w3.org/Graphics/SVG/1.1/DTD/svg11.dtd">
<!-- Creator: CorelDRAW X8 -->
<svg xmlns="http://www.w3.org/2000/svg" xml:space="preserve" width="2081px" height="1486px" version="1.1" style="shape-rendering:geometricPrecision; text-rendering:geometricPrecision; image-rendering:optimizeQuality; fill-rule:evenodd; clip-rule:evenodd"
viewBox="0 0 2081 1486"
 xmlns:xlink="http://www.w3.org/1999/xlink">
 <defs>
  <style type="text/css">
   <![CDATA[
    .fil0 {fill:#009846;fill-rule:nonzero}
   ]]>
  </style>
 </defs>
 <g id="Layer_x0020_1">
  <metadata id="CorelCorpID_0Corel-Layer"/>
  <path class="fil0" d="M1179 1486c-316,7 -643,-51 -891,-258 -191,-160 -289,-375 -288,-643 1,-220 94,-444 283,-569 31,-20 82,-21 115,-5 31,15 41,43 9,64 -164,109 -244,319 -244,510 0,232 75,424 234,569 214,196 500,250 782,240 258,-8 736,-113 747,-440 2,-51 -23,-103 -73,-122 -34,-12 -63,-3 -98,-2 -45,1 -83,-20 -84,-45 0,-25 35,-46 80,-47 30,-1 64,8 91,-10 28,-19 46,-59 46,-91 -1,-47 -35,-97 -88,-97l-172 0c-3,112 -21,222 -70,308 -60,105 -166,176 -342,176 -142,0 -239,-46 -302,-119 -48,76 -132,118 -241,119 -92,0 -181,-32 -243,-92 -53,-53 -79,-122 -78,-190 1,-70 28,-140 80,-191 83,-83 200,-102 289,-102l83 0c5,-98 23,-193 65,-269 61,-108 167,-180 347,-180 178,0 285,72 345,179 42,76 61,172 66,270l173 0c79,0 152,20 197,66 29,29 46,70 47,122 1,62 -34,115 -88,138 78,24 124,100 125,179 4,392 -598,524 -902,532zm-363 -809c-8,-44 -12,-90 -13,-137l-82 0c-37,0 -98,6 -147,55 -37,37 -58,91 -59,145 -2,53 16,107 57,147 30,30 67,46 100,46 36,0 71,-21 95,-47 51,-54 61,-138 49,-209zm650 -137l-501 0c3,104 20,205 63,281 39,67 98,111 188,111 90,0 149,-44 188,-112 43,-75 59,-176 62,-280zm-500 -91l498 0c-4,-90 -21,-176 -58,-243 -39,-69 -99,-115 -190,-115 -92,0 -153,47 -191,116 -37,67 -54,152 -59,242z"/>
 </g>
</svg>
