<?xml version="1.0" encoding="UTF-8"?>
<!DOCTYPE svg PUBLIC "-//W3C//DTD SVG 1.1//EN" "http://www.w3.org/Graphics/SVG/1.1/DTD/svg11.dtd">
<!-- Creator: CorelDRAW X8 -->
<svg xmlns="http://www.w3.org/2000/svg" xml:space="preserve" width="1355px" height="868px" version="1.1" style="shape-rendering:geometricPrecision; text-rendering:geometricPrecision; image-rendering:optimizeQuality; fill-rule:evenodd; clip-rule:evenodd"
viewBox="0 0 1355 868"
 xmlns:xlink="http://www.w3.org/1999/xlink">
 <defs>
  <style type="text/css">
   <![CDATA[
    .fil0 {fill:#2B2A29;fill-rule:nonzero}
   ]]>
  </style>
 </defs>
 <g id="Layer_x0020_1">
  <metadata id="CorelCorpID_0Corel-Layer"/>
  <path class="fil0" d="M532 868c90,0 182,-3 273,-16 109,-16 215,-46 310,-102 149,-87 240,-235 240,-408 0,-82 -22,-164 -75,-228 -71,-85 -175,-114 -282,-114 -87,0 -199,26 -249,116 -9,-29 -31,-53 -50,-68 -46,-36 -106,-48 -169,-48 -106,0 -175,36 -214,99 -27,42 -41,97 -45,162l-38 0c-63,0 -135,13 -185,61 -32,31 -48,70 -48,115 0,38 16,78 47,108 41,38 100,55 158,55 57,0 111,-16 146,-57 47,42 110,57 179,57 70,0 133,-15 180,-57 35,41 88,57 146,57 57,0 116,-17 157,-55 33,-31 48,-72 48,-112 -1,-41 -17,-81 -48,-111 -50,-48 -122,-61 -186,-61l-36 0c15,-106 95,-201 208,-202 74,0 138,35 180,95 38,55 54,123 54,188 0,86 -18,159 -56,221 -34,58 -86,107 -156,149 -84,50 -163,70 -258,86 8,-10 12,-22 12,-34 0,-54 -79,-81 -121,-91 -40,-9 -81,-12 -122,-12 -44,0 -91,3 -133,14 -41,10 -113,37 -114,89 0,46 52,73 110,87 51,13 107,17 137,17zm135 -607l-274 0c3,-36 9,-78 24,-114 21,-50 57,-88 114,-88 58,0 92,39 112,88 15,37 22,79 24,114zm-137 280c-103,0 -133,-122 -137,-221l275 0c-4,100 -35,221 -138,221zm-328 0c-25,0 -50,-15 -65,-42 -9,-17 -15,-39 -15,-65 1,-29 11,-57 29,-79 21,-23 50,-35 82,-35l38 0c0,26 3,53 8,78 2,13 4,26 4,38 0,69 -41,105 -81,105zm658 0c-41,0 -81,-47 -81,-111 0,-10 1,-20 3,-31 5,-26 7,-53 8,-79l37 0c35,0 65,15 85,38 17,21 26,47 26,76 0,22 -5,40 -15,60 -13,26 -35,47 -63,47zm-328 271c-14,0 -49,-1 -80,-9 -19,-4 -52,-15 -52,-39 0,-24 39,-37 59,-41 24,-6 50,-7 73,-7 27,0 55,2 81,9 17,5 48,17 48,39 0,21 -25,33 -54,40 -29,7 -61,8 -75,8z"/>
 </g>
</svg>
