<?xml version="1.0" encoding="UTF-8"?>
<!DOCTYPE svg PUBLIC "-//W3C//DTD SVG 1.1//EN" "http://www.w3.org/Graphics/SVG/1.1/DTD/svg11.dtd">
<!-- Creator: CorelDRAW X8 -->
<svg xmlns="http://www.w3.org/2000/svg" xml:space="preserve" width="1070px" height="600px" version="1.1" style="shape-rendering:geometricPrecision; text-rendering:geometricPrecision; image-rendering:optimizeQuality; fill-rule:evenodd; clip-rule:evenodd"
viewBox="0 0 1070 600"
 xmlns:xlink="http://www.w3.org/1999/xlink">
 <defs>
  <style type="text/css">
   <![CDATA[
    .fil0 {fill:#2B2A29;fill-rule:nonzero}
   ]]>
  </style>
 </defs>
 <g id="Layer_x0020_1">
  <metadata id="CorelCorpID_0Corel-Layer"/>
  <path class="fil0" d="M1014 574c33,-17 56,-44 56,-83 0,-36 -26,-59 -56,-71 25,-15 40,-34 40,-64 0,-32 -16,-54 -39,-69 -40,-25 -91,-26 -137,-26l-88 0c0,-47 -16,-114 -40,-154 -47,-82 -130,-107 -219,-107 -91,0 -173,25 -220,107 -27,46 -37,102 -40,154l-37 0c-66,0 -137,14 -186,61 -30,29 -48,69 -48,112 0,42 17,81 47,111 42,39 102,55 158,55 54,0 110,-14 146,-57 49,44 115,57 180,57 88,0 170,-24 218,-105 29,-50 41,-117 41,-175l84 0c15,0 30,0 42,6 10,5 16,14 17,31 0,17 -5,27 -14,32 -11,7 -30,6 -44,6 -18,0 -56,8 -56,30 0,24 38,29 56,29 4,0 14,-1 24,-2 9,0 17,0 25,3 15,4 26,14 26,35 0,18 -7,31 -20,40 -9,7 -20,11 -32,11 -23,0 -35,-17 -67,-17 -8,0 -21,1 -34,5 -14,4 -27,11 -27,22 0,17 30,34 53,40 22,5 48,9 74,9 39,0 82,-6 117,-26zm-347 -313l-273 0c4,-95 41,-202 137,-202 94,0 132,107 136,202zm-136 280c-104,0 -134,-124 -138,-221l275 0c-4,98 -34,221 -137,221zm-329 0c-27,0 -48,-19 -62,-43 -12,-20 -18,-45 -18,-65 1,-32 13,-59 32,-80 19,-20 47,-33 80,-33l37 0c1,25 3,51 7,76 2,10 3,21 3,32 0,24 -5,49 -17,70 -13,24 -34,43 -62,43z"/>
 </g>
</svg>
