<?xml version="1.0" encoding="UTF-8"?>
<!DOCTYPE svg PUBLIC "-//W3C//DTD SVG 1.1//EN" "http://www.w3.org/Graphics/SVG/1.1/DTD/svg11.dtd">
<!-- Creator: CorelDRAW X8 -->
<svg xmlns="http://www.w3.org/2000/svg" xml:space="preserve" width="2223px" height="1024px" version="1.1" style="shape-rendering:geometricPrecision; text-rendering:geometricPrecision; image-rendering:optimizeQuality; fill-rule:evenodd; clip-rule:evenodd"
viewBox="0 0 2223 1024"
 xmlns:xlink="http://www.w3.org/1999/xlink">
 <defs>
  <style type="text/css">
   <![CDATA[
    .fil0 {fill:#E31E24;fill-rule:nonzero}
   ]]>
  </style>
 </defs>
 <g id="Layer_x0020_1">
  <metadata id="CorelCorpID_0Corel-Layer"/>
  <path class="fil0" d="M1905 1024c48,0 98,-9 143,-28 43,-17 82,-44 110,-79 44,-54 65,-114 65,-173 0,-87 -46,-169 -140,-219 68,-42 110,-107 110,-187 0,-123 -67,-206 -162,-264 -90,-55 -212,-74 -318,-74 -157,0 -320,39 -433,155 -19,19 -36,40 -52,63 -10,-23 -21,-45 -35,-66 -63,-92 -166,-152 -329,-152 -179,0 -286,72 -346,180 -42,76 -61,171 -66,269l-83 0c-89,0 -206,19 -289,102 -52,52 -80,118 -80,188 0,72 25,141 79,194 61,60 151,91 242,91 110,0 193,-43 241,-118 64,73 160,118 302,118 142,0 238,-45 301,-118 48,75 132,118 241,118 92,0 181,-31 243,-91 53,-52 78,-119 78,-187 0,-74 -26,-142 -79,-195 -82,-83 -201,-102 -289,-102l-84 0c18,-113 62,-193 120,-250 79,-77 204,-108 313,-108 90,0 189,22 256,86 42,40 68,95 67,165 0,40 -15,77 -45,104 -20,18 -46,32 -77,37 -16,3 -35,1 -51,3 -48,4 -69,25 -69,46 0,23 27,46 70,45l52 -1c35,0 66,15 88,33 43,35 62,82 62,130 0,49 -15,100 -44,138 -26,33 -63,55 -111,55 -34,0 -56,-16 -92,-16 -17,0 -33,3 -48,9 -15,6 -34,18 -34,36 0,17 19,32 39,39 46,16 91,24 134,24zm-792 -575l-498 0c8,-188 75,-358 249,-358 176,0 239,174 249,358zm294 484c-36,0 -71,-20 -95,-46 -37,-40 -54,-98 -54,-154 0,-17 2,-34 5,-50 8,-46 12,-94 13,-142l82 0c37,0 99,6 148,55 38,38 59,95 59,148 0,53 -18,105 -58,144 -30,29 -67,45 -100,45zm-1087 0c-33,0 -70,-16 -100,-45 -39,-39 -57,-91 -57,-144 0,-54 20,-109 59,-148 49,-49 111,-55 147,-55l82 0c2,48 6,95 14,141 3,16 4,32 4,49 0,56 -16,116 -54,156 -24,26 -58,46 -95,46zm544 0c-187,0 -244,-193 -250,-392l500 0c-6,200 -64,392 -250,392z"/>
 </g>
</svg>
