<?xml version="1.0" encoding="UTF-8"?>
<!DOCTYPE svg PUBLIC "-//W3C//DTD SVG 1.1//EN" "http://www.w3.org/Graphics/SVG/1.1/DTD/svg11.dtd">
<!-- Creator: CorelDRAW X8 -->
<svg xmlns="http://www.w3.org/2000/svg" xml:space="preserve" width="2219px" height="1486px" version="1.1" style="shape-rendering:geometricPrecision; text-rendering:geometricPrecision; image-rendering:optimizeQuality; fill-rule:evenodd; clip-rule:evenodd"
viewBox="0 0 2219 1487"
 xmlns:xlink="http://www.w3.org/1999/xlink">
 <defs>
  <style type="text/css">
   <![CDATA[
    .fil0 {fill:#2B2A29;fill-rule:nonzero}
   ]]>
  </style>
 </defs>
 <g id="Layer_x0020_1">
  <metadata id="CorelCorpID_0Corel-Layer"/>
  <path class="fil0" d="M867 1487c143,0 293,-5 438,-26 112,-16 228,-45 338,-88 158,-62 304,-155 406,-287 112,-145 170,-328 170,-501 0,-140 -37,-282 -126,-392 -105,-131 -265,-193 -445,-193 -122,0 -242,31 -336,110 -34,29 -64,62 -88,100 -12,-29 -28,-57 -48,-82 -64,-78 -164,-128 -312,-128 -179,0 -286,72 -346,180 -42,76 -61,171 -66,269l-83 0c-89,0 -206,19 -289,102 -52,51 -80,118 -80,191 0,68 25,137 79,190 61,60 151,92 242,92 110,-1 193,-43 241,-118 64,72 160,118 302,118 142,0 238,-46 302,-118 48,75 132,117 241,118 92,0 181,-32 243,-92 53,-52 78,-119 78,-186 0,-73 -27,-142 -79,-195 -83,-83 -201,-102 -289,-102l-84 0c16,-113 62,-199 126,-260 66,-62 154,-98 246,-98 139,0 248,63 319,169 63,95 89,212 89,325 0,161 -53,331 -156,465 -82,106 -194,182 -316,236 -125,55 -228,75 -362,96 18,-20 30,-42 30,-70 0,-88 -120,-134 -196,-152 -54,-12 -115,-20 -189,-20 -81,0 -153,8 -208,22 -122,32 -182,90 -183,150 0,78 84,123 179,148 78,20 163,27 212,27zm247 -1038l-499 0c8,-188 75,-358 249,-358 176,0 239,174 250,358zm294 484c-36,0 -71,-21 -95,-47 -37,-39 -55,-98 -55,-153 0,-17 2,-34 6,-50 8,-46 12,-94 12,-142l83 0c37,0 98,5 148,55 37,38 59,95 59,148 0,53 -18,105 -58,143 -30,30 -67,46 -100,46zm-1088 0c-33,0 -70,-16 -100,-46 -39,-38 -57,-90 -57,-143 0,-54 20,-109 59,-148 49,-50 111,-55 147,-55l82 0c2,47 6,95 14,141 3,16 4,32 4,49 0,56 -16,115 -54,155 -24,26 -58,47 -95,47zm544 -1c-188,0 -244,-193 -250,-391l500 0c-6,198 -62,391 -250,391zm3 470c-161,0 -242,-44 -242,-90 0,-44 79,-88 242,-88 157,0 236,44 236,88 0,42 -77,90 -236,90z"/>
 </g>
</svg>
