<?xml version="1.0" encoding="UTF-8"?>
<!DOCTYPE svg PUBLIC "-//W3C//DTD SVG 1.1//EN" "http://www.w3.org/Graphics/SVG/1.1/DTD/svg11.dtd">
<!-- Creator: CorelDRAW X8 -->
<svg xmlns="http://www.w3.org/2000/svg" xml:space="preserve" width="1742px" height="1486px" version="1.1" style="shape-rendering:geometricPrecision; text-rendering:geometricPrecision; image-rendering:optimizeQuality; fill-rule:evenodd; clip-rule:evenodd"
viewBox="0 0 1742 1486"
 xmlns:xlink="http://www.w3.org/1999/xlink">
 <defs>
  <style type="text/css">
   <![CDATA[
    .fil0 {fill:#CC6633;fill-rule:nonzero}
   ]]>
  </style>
 </defs>
 <g id="Layer_x0020_1">
  <metadata id="CorelCorpID_0Corel-Layer"/>
  <path class="fil0" d="M866 1225c-76,0 -136,10 -176,25 -43,17 -65,40 -65,63 -1,23 21,46 64,63 40,16 101,26 177,26 63,0 111,-7 149,-18 59,-17 88,-45 87,-71 0,-27 -28,-53 -86,-70 -38,-11 -86,-18 -150,-18zm-3 -1225c179,0 286,72 346,179 42,77 61,172 66,270l39 0c198,0 337,106 396,252 25,60 36,129 31,199 -17,259 -210,433 -443,515 -87,31 -168,50 -253,61 -58,7 -118,10 -182,10 -69,0 -142,-6 -210,-25 -118,-31 -177,-90 -177,-148 0,-59 61,-118 182,-149 56,-15 127,-23 208,-23 75,0 136,7 189,19 77,18 196,65 196,153 0,9 -1,17 -4,25 183,-74 321,-210 332,-441 3,-61 -6,-123 -27,-176 -43,-105 -127,-181 -238,-181l-38 0c-3,112 -21,222 -70,308 -60,105 -166,176 -343,176 -142,0 -238,-46 -301,-119 -48,76 -132,118 -241,119 -92,0 -181,-32 -243,-92 -54,-53 -79,-122 -78,-190 0,-70 28,-140 79,-191 83,-83 201,-102 289,-102l84 0c5,-98 23,-193 65,-268 60,-109 167,-181 346,-181zm-399 677c-8,-44 -12,-90 -13,-137l-82 0c-37,0 -98,6 -148,55 -36,37 -57,91 -59,145 -1,53 17,108 58,147 30,30 67,46 100,46 36,0 71,-21 95,-47 51,-54 61,-138 49,-209zm649 -137l-500 0c3,104 20,205 63,281 39,67 98,111 187,111 91,0 150,-44 188,-112 43,-75 60,-176 62,-280zm-499 -91l498 0c-4,-90 -21,-175 -58,-242 -39,-70 -99,-116 -191,-116 -92,0 -152,47 -190,116 -37,67 -54,152 -59,242z"/>
 </g>
</svg>
