<?xml version="1.0" encoding="UTF-8"?>
<!DOCTYPE svg PUBLIC "-//W3C//DTD SVG 1.1//EN" "http://www.w3.org/Graphics/SVG/1.1/DTD/svg11.dtd">
<!-- Creator: CorelDRAW X8 -->
<svg xmlns="http://www.w3.org/2000/svg" xml:space="preserve" width="2081px" height="1486px" version="1.1" style="shape-rendering:geometricPrecision; text-rendering:geometricPrecision; image-rendering:optimizeQuality; fill-rule:evenodd; clip-rule:evenodd"
viewBox="0 0 2081 1486"
 xmlns:xlink="http://www.w3.org/1999/xlink">
 <defs>
  <style type="text/css">
   <![CDATA[
    .fil0 {fill:#434242;fill-rule:nonzero}
   ]]>
  </style>
 </defs>
 <g id="Layer_x0020_1">
  <metadata id="CorelCorpID_0Corel-Layer"/>
  <path class="fil0" d="M1116 1487c338,0 965,-119 965,-529 0,-81 -45,-159 -125,-184 53,-22 88,-74 88,-134 0,-47 -14,-92 -47,-126 -45,-45 -118,-66 -197,-66l-173 0c-5,-98 -24,-194 -66,-270 -60,-107 -167,-179 -345,-179 -180,0 -286,72 -347,180 -42,76 -60,171 -65,269l-83 0c-89,0 -206,20 -289,102 -52,52 -80,123 -80,196 0,66 25,134 78,186 61,60 151,92 243,92 109,-1 193,-44 241,-120 63,74 160,120 302,120 176,0 282,-71 342,-176 49,-86 67,-196 70,-309l172 0c53,0 88,51 88,97 1,33 -13,64 -36,83 -15,12 -34,21 -56,20 -15,0 -30,-1 -45,-1 -45,-1 -81,22 -80,46 1,24 37,46 81,46 21,0 42,-4 63,-4 24,0 44,6 61,17 32,22 50,71 50,115 0,358 -540,434 -810,437 -261,2 -521,-61 -719,-241 -159,-146 -234,-334 -234,-566 0,-191 80,-405 244,-514 14,-9 20,-19 20,-29 0,-14 -11,-26 -29,-35 -15,-7 -34,-11 -53,-11 -23,0 -45,5 -62,16 -190,126 -283,351 -283,573 0,266 98,481 288,640 235,196 527,259 828,259zm348 -1039l-498 0c11,-189 75,-358 250,-358 174,0 240,170 248,358zm-792 484c-33,0 -70,-16 -100,-46 -39,-38 -57,-88 -57,-138 0,-57 18,-113 59,-154 49,-48 110,-55 147,-55l82 0c1,47 5,93 13,137 3,18 5,36 5,54 0,58 -16,114 -54,156 -24,26 -59,46 -95,46zm544 0c-186,0 -245,-190 -251,-393l501 0c-6,201 -63,393 -250,393z"/>
 </g>
</svg>
