<?xml version="1.0" encoding="UTF-8"?>
<!DOCTYPE svg PUBLIC "-//W3C//DTD SVG 1.1//EN" "http://www.w3.org/Graphics/SVG/1.1/DTD/svg11.dtd">
<!-- Creator: CorelDRAW X8 -->
<svg xmlns="http://www.w3.org/2000/svg" xml:space="preserve" width="1728px" height="1024px" version="1.1" style="shape-rendering:geometricPrecision; text-rendering:geometricPrecision; image-rendering:optimizeQuality; fill-rule:evenodd; clip-rule:evenodd"
viewBox="0 0 1728 1024"
 xmlns:xlink="http://www.w3.org/1999/xlink">
 <defs>
  <style type="text/css">
   <![CDATA[
    .fil0 {fill:#E31E24;fill-rule:nonzero}
   ]]>
  </style>
 </defs>
 <g id="Layer_x0020_1">
  <metadata id="CorelCorpID_0Corel-Layer"/>
  <path class="fil0" d="M1275 449c-5,-98 -23,-194 -66,-270 -59,-107 -167,-179 -345,-179 -180,0 -286,72 -347,180 -42,76 -60,171 -65,269l-83 0c-89,0 -206,19 -289,102 -52,52 -80,122 -80,195 0,68 26,135 78,187 62,60 152,91 243,91 109,0 193,-43 241,-118 63,73 160,118 302,118 176,0 282,-70 342,-176 49,-86 70,-210 70,-308l189 0c46,0 75,31 75,76 0,16 -4,30 -13,42 -9,13 -22,22 -39,25 -20,3 -43,0 -64,0 -30,0 -79,11 -79,44 0,37 55,45 83,45 19,0 40,-4 60,-4 15,0 29,2 40,7 28,12 42,37 42,67 0,62 -53,91 -109,91 -52,0 -69,-30 -121,-30 -13,0 -35,3 -54,11 -16,7 -28,17 -28,31 0,30 66,57 95,65 35,10 73,14 109,14 113,0 266,-47 266,-184 0,-65 -52,-104 -97,-120 35,-19 71,-52 71,-109 0,-128 -134,-162 -238,-162l-189 0zm-163 0l-498 0c10,-186 74,-358 250,-358 174,0 240,171 248,358zm-792 484c-33,0 -70,-16 -100,-45 -39,-38 -57,-89 -57,-140 0,-57 18,-111 59,-152 49,-49 110,-55 147,-55l82 0c1,46 5,93 13,137 3,18 5,36 5,54 0,56 -16,114 -54,155 -24,26 -59,46 -95,46zm544 0c-183,0 -246,-188 -250,-392l500 0c-6,200 -64,392 -250,392z"/>
 </g>
</svg>
