<?xml version="1.0" encoding="UTF-8"?>
<!DOCTYPE svg PUBLIC "-//W3C//DTD SVG 1.1//EN" "http://www.w3.org/Graphics/SVG/1.1/DTD/svg11.dtd">
<!-- Creator: CorelDRAW X8 -->
<svg xmlns="http://www.w3.org/2000/svg" xml:space="preserve" width="1520px" height="1024px" version="1.1" style="shape-rendering:geometricPrecision; text-rendering:geometricPrecision; image-rendering:optimizeQuality; fill-rule:evenodd; clip-rule:evenodd"
viewBox="0 0 1520 1024"
 xmlns:xlink="http://www.w3.org/1999/xlink">
 <defs>
  <style type="text/css">
   <![CDATA[
    .fil0 {fill:#009846;fill-rule:nonzero}
   ]]>
  </style>
 </defs>
 <g id="Layer_x0020_1">
  <metadata id="CorelCorpID_0Corel-Layer"/>
  <path class="fil0" d="M1002 909l355 0 0 -862c0,-26 37,-46 82,-46 45,0 81,20 81,46l0 908c0,36 -61,45 -89,45l-592 0c-26,0 -79,-13 -80,-46 0,-12 8,-24 24,-32 148,-81 220,-243 213,-407 -11,-253 -174,-426 -432,-425 -242,0 -401,185 -403,420 52,-75 130,-116 219,-119 98,-3 191,34 251,98 53,57 81,133 78,221 -2,89 -36,179 -105,236 -58,49 -139,77 -224,78 -83,1 -156,-22 -221,-75 -111,-92 -159,-253 -159,-409 0,-326 244,-533 561,-540 317,-6 588,180 593,515 1,147 -49,292 -152,394zm-796 -199c-1,148 85,223 174,223 85,0 174,-74 174,-223 1,-148 -86,-222 -174,-222 -87,0 -174,74 -174,222z"/>
 </g>
</svg>
