<?xml version="1.0" encoding="UTF-8"?>
<!DOCTYPE svg PUBLIC "-//W3C//DTD SVG 1.1//EN" "http://www.w3.org/Graphics/SVG/1.1/DTD/svg11.dtd">
<!-- Creator: CorelDRAW X8 -->
<svg xmlns="http://www.w3.org/2000/svg" xml:space="preserve" width="1520px" height="1024px" version="1.1" style="shape-rendering:geometricPrecision; text-rendering:geometricPrecision; image-rendering:optimizeQuality; fill-rule:evenodd; clip-rule:evenodd"
viewBox="0 0 1520 1024"
 xmlns:xlink="http://www.w3.org/1999/xlink">
 <defs>
  <style type="text/css">
   <![CDATA[
    .fil0 {fill:#2B2A29;fill-rule:nonzero}
   ]]>
  </style>
 </defs>
 <g id="Layer_x0020_1">
  <metadata id="CorelCorpID_0Corel-Layer"/>
  <path class="fil0" d="M604 946c74,-61 105,-155 105,-249 0,-82 -28,-154 -78,-208 -58,-62 -146,-98 -240,-98 -95,0 -176,41 -230,119 2,-235 161,-420 403,-420 264,0 432,164 432,429 0,156 -72,326 -213,403 -16,8 -24,20 -24,32 1,33 54,46 80,46l592 0c28,0 89,-9 89,-45l0 -908c0,-26 -36,-46 -81,-46 -45,0 -82,20 -82,46l0 862 -355 0c102,-101 152,-244 152,-390 0,-330 -268,-519 -578,-519 -321,0 -576,206 -576,540 0,156 48,317 159,409 64,52 135,75 216,75 82,0 166,-25 229,-78zm-224 -13c-88,0 -174,-74 -174,-220 0,-106 52,-225 174,-225 121,0 174,116 174,222 0,149 -89,223 -174,223z"/>
 </g>
</svg>
