<?xml version="1.0" encoding="UTF-8"?>
<!DOCTYPE svg PUBLIC "-//W3C//DTD SVG 1.1//EN" "http://www.w3.org/Graphics/SVG/1.1/DTD/svg11.dtd">
<!-- Creator: CorelDRAW X8 -->
<svg xmlns="http://www.w3.org/2000/svg" xml:space="preserve" width="937px" height="593px" version="1.1" style="shape-rendering:geometricPrecision; text-rendering:geometricPrecision; image-rendering:optimizeQuality; fill-rule:evenodd; clip-rule:evenodd"
viewBox="0 0 937 593"
 xmlns:xlink="http://www.w3.org/1999/xlink">
 <defs>
  <style type="text/css">
   <![CDATA[
    .fil0 {fill:#CC6633;fill-rule:nonzero}
   ]]>
  </style>
 </defs>
 <g id="Layer_x0020_1">
  <metadata id="CorelCorpID_0Corel-Layer"/>
  <path class="fil0" d="M480 536c82,-43 117,-148 113,-235 -5,-136 -104,-241 -243,-242 -113,0 -198,86 -224,192 30,-21 65,-30 101,-31 59,-2 122,16 165,59 34,35 48,81 47,129 -1,27 -7,54 -18,79 -22,47 -60,76 -109,93 -25,8 -53,13 -83,13 -72,1 -137,-23 -180,-84 -37,-53 -50,-124 -49,-188 4,-204 153,-322 351,-321 188,1 357,97 365,301 3,82 -23,166 -80,226l178 0 0 -497c0,-24 45,-30 62,-30 17,0 61,6 61,30l0 527c0,24 -48,29 -66,29l-346 0c-17,0 -62,-6 -61,-29 0,-8 6,-15 16,-21zm-344 -128c0,40 11,70 29,92 18,23 41,34 64,34 20,0 41,-10 59,-30 24,-26 33,-62 33,-97 0,-42 -13,-74 -32,-95 -18,-20 -39,-30 -60,-30 -23,0 -45,12 -64,35 -17,21 -28,51 -29,91z"/>
 </g>
</svg>
