<?xml version="1.0" encoding="UTF-8"?>
<!DOCTYPE svg PUBLIC "-//W3C//DTD SVG 1.1//EN" "http://www.w3.org/Graphics/SVG/1.1/DTD/svg11.dtd">
<!-- Creator: CorelDRAW X8 -->
<svg xmlns="http://www.w3.org/2000/svg" xml:space="preserve" width="937px" height="600px" version="1.1" style="shape-rendering:geometricPrecision; text-rendering:geometricPrecision; image-rendering:optimizeQuality; fill-rule:evenodd; clip-rule:evenodd"
viewBox="0 0 937 600"
 xmlns:xlink="http://www.w3.org/1999/xlink">
 <defs>
  <style type="text/css">
   <![CDATA[
    .fil0 {fill:#2B2A29;fill-rule:nonzero}
   ]]>
  </style>
 </defs>
 <g id="Layer_x0020_1">
  <metadata id="CorelCorpID_0Corel-Layer"/>
  <path class="fil0" d="M228 600c30,0 58,-5 83,-14 49,-16 88,-46 109,-94 11,-24 18,-52 18,-79 1,-50 -11,-94 -47,-131 -40,-42 -99,-59 -156,-59 -40,0 -76,8 -110,31 26,-107 110,-194 222,-194 148,0 245,107 245,252 0,85 -34,182 -111,223 -11,6 -17,14 -17,21 -1,24 44,30 62,30l346 0c17,0 66,-5 66,-30l-1 -526c0,-24 -44,-29 -61,-29 -17,0 -62,5 -62,29l1 496 -178 0c54,-57 79,-135 79,-214 0,-214 -173,-312 -368,-312 -201,0 -349,124 -349,332 0,63 14,131 49,183 44,63 107,85 180,85zm0 -60c-23,0 -45,-11 -64,-34 -17,-22 -29,-53 -29,-93 1,-40 12,-71 29,-93 18,-22 39,-34 61,-34 27,0 46,11 63,30 19,21 33,53 33,96 0,36 -10,72 -34,98 -18,20 -39,30 -59,30z"/>
 </g>
</svg>
