<?xml version="1.0" encoding="UTF-8"?>
<!DOCTYPE svg PUBLIC "-//W3C//DTD SVG 1.1//EN" "http://www.w3.org/Graphics/SVG/1.1/DTD/svg11.dtd">
<!-- Creator: CorelDRAW X8 -->
<svg xmlns="http://www.w3.org/2000/svg" xml:space="preserve" width="1143px" height="868px" version="1.1" style="shape-rendering:geometricPrecision; text-rendering:geometricPrecision; image-rendering:optimizeQuality; fill-rule:evenodd; clip-rule:evenodd"
viewBox="0 0 1143 868"
 xmlns:xlink="http://www.w3.org/1999/xlink">
 <defs>
  <style type="text/css">
   <![CDATA[
    .fil0 {fill:#898778;fill-rule:nonzero}
   ]]>
  </style>
 </defs>
 <g id="Layer_x0020_1">
  <metadata id="CorelCorpID_0Corel-Layer"/>
  <path class="fil0" d="M686 535c82,-43 116,-148 113,-236 -5,-138 -105,-238 -243,-239 -114,-1 -199,86 -224,194 30,-21 65,-30 101,-31 59,-2 122,15 164,59 34,36 49,82 48,131 -1,27 -7,55 -18,79 -22,48 -61,78 -110,94 -25,9 -53,14 -82,14 -72,1 -138,-23 -180,-85 -38,-54 -51,-125 -49,-190 3,-207 153,-326 350,-325 189,1 358,92 366,299 3,82 -23,167 -80,227l178 0 0 -496c0,-24 44,-29 61,-29 17,0 61,5 61,29l1 553c0,91 -55,156 -132,200 -108,63 -262,85 -373,85 -180,0 -345,-48 -461,-144 -105,-86 -171,-208 -177,-372 -4,-131 48,-263 157,-340 22,-15 67,-15 91,-5 19,8 30,25 10,40 -96,67 -138,184 -137,305 1,122 47,248 126,325 90,90 225,132 390,132 81,0 175,-16 249,-50 74,-33 133,-86 134,-173l-289 0c-17,0 -62,-6 -61,-30 0,-7 6,-15 16,-21zm-344 -122c0,40 11,71 28,93 19,23 41,34 64,34 21,0 41,-10 59,-30 25,-26 33,-62 33,-98 0,-43 -12,-75 -32,-96 -18,-20 -39,-30 -59,-30 -23,-1 -46,11 -64,34 -18,22 -29,53 -29,93z"/>
 </g>
</svg>
