<?xml version="1.0" encoding="UTF-8"?>
<!DOCTYPE svg PUBLIC "-//W3C//DTD SVG 1.1//EN" "http://www.w3.org/Graphics/SVG/1.1/DTD/svg11.dtd">
<!-- Creator: CorelDRAW X8 -->
<svg xmlns="http://www.w3.org/2000/svg" xml:space="preserve" width="1854px" height="1486px" version="1.1" style="shape-rendering:geometricPrecision; text-rendering:geometricPrecision; image-rendering:optimizeQuality; fill-rule:evenodd; clip-rule:evenodd"
viewBox="0 0 1854 1487"
 xmlns:xlink="http://www.w3.org/1999/xlink">
 <defs>
  <style type="text/css">
   <![CDATA[
    .fil0 {fill:#2B2A29;fill-rule:nonzero}
   ]]>
  </style>
 </defs>
 <g id="Layer_x0020_1">
  <metadata id="CorelCorpID_0Corel-Layer"/>
  <path class="fil0" d="M1032 1487c308,-1 822,-112 822,-488l0 -952c0,-26 -36,-46 -81,-46 -46,0 -82,20 -82,46l0 862 -355 0c101,-100 151,-245 151,-390 0,-333 -262,-519 -577,-519 -322,0 -577,206 -577,540 0,156 48,317 159,409 67,54 137,75 221,75 85,0 167,-29 225,-78 74,-61 104,-155 104,-249 0,-82 -28,-155 -78,-208 -58,-62 -146,-98 -240,-98 -94,0 -175,41 -230,119 2,-235 161,-420 404,-420 267,0 432,167 432,429 0,155 -72,327 -214,403 -15,9 -24,20 -24,32 0,33 54,46 81,46l517 0 0 6c0,298 -411,390 -660,390 -257,0 -474,-77 -629,-219 -165,-151 -238,-348 -238,-570 0,-211 76,-419 232,-534 12,-9 17,-18 17,-27 0,-14 -13,-28 -31,-36 -14,-7 -33,-10 -51,-10 -23,0 -47,6 -63,18 -185,135 -267,373 -267,595 0,303 131,519 323,663 187,140 436,211 709,211zm-319 -554c-121,0 -174,-117 -174,-223 0,-148 87,-222 174,-222 87,0 175,73 175,219 0,106 -54,226 -175,226z"/>
 </g>
</svg>
