<?xml version="1.0" encoding="UTF-8"?>
<!DOCTYPE svg PUBLIC "-//W3C//DTD SVG 1.1//EN" "http://www.w3.org/Graphics/SVG/1.1/DTD/svg11.dtd">
<!-- Creator: CorelDRAW X8 -->
<svg xmlns="http://www.w3.org/2000/svg" xml:space="preserve" width="937px" height="868px" version="1.1" style="shape-rendering:geometricPrecision; text-rendering:geometricPrecision; image-rendering:optimizeQuality; fill-rule:evenodd; clip-rule:evenodd"
viewBox="0 0 937 868"
 xmlns:xlink="http://www.w3.org/1999/xlink">
 <defs>
  <style type="text/css">
   <![CDATA[
    .fil0 {fill:#009846;fill-rule:nonzero}
   ]]>
  </style>
 </defs>
 <g id="Layer_x0020_1">
  <metadata id="CorelCorpID_0Corel-Layer"/>
  <path class="fil0" d="M481 535c-11,6 -16,14 -17,21 0,24 45,30 62,30l289 0c0,40 -4,81 -21,117 -14,29 -35,53 -69,68 7,-58 -77,-88 -121,-97 -40,-9 -81,-12 -122,-12 -44,0 -90,3 -133,14 -41,10 -113,37 -113,88 -1,51 70,78 110,89 41,11 89,15 132,15 44,0 90,-3 132,-8 37,-4 75,-10 112,-20 53,-15 113,-40 152,-81 20,-21 36,-47 47,-78 10,-28 16,-61 16,-98l0 -553c0,-24 -44,-29 -61,-29 -17,0 -62,5 -62,29l1 496 -178 0c57,-60 82,-145 79,-227 -8,-207 -177,-298 -365,-299 -198,-1 -347,118 -351,325 -1,65 12,136 49,190 43,62 108,86 180,85 30,0 58,-5 83,-14 49,-16 87,-46 109,-94 11,-24 17,-52 18,-79 1,-49 -13,-95 -47,-131 -43,-44 -106,-61 -165,-59 -36,1 -71,10 -101,31 26,-108 111,-195 224,-194 139,1 238,101 243,239 4,88 -31,193 -112,236zm1 181c27,0 55,3 81,10 17,5 48,17 49,38 0,22 -33,35 -50,39 -26,8 -53,10 -80,10 -30,0 -67,-3 -96,-14 -14,-5 -37,-17 -36,-35 0,-17 23,-29 37,-34 28,-11 65,-14 95,-14zm-346 -303c1,-40 12,-71 29,-93 19,-23 41,-35 64,-34 21,0 42,10 60,30 19,21 32,53 32,96 0,36 -9,72 -33,98 -18,20 -39,30 -59,30 -23,0 -46,-11 -64,-34 -18,-22 -29,-53 -29,-93z"/>
 </g>
</svg>
