<?xml version="1.0" encoding="UTF-8"?>
<!DOCTYPE svg PUBLIC "-//W3C//DTD SVG 1.1//EN" "http://www.w3.org/Graphics/SVG/1.1/DTD/svg11.dtd">
<!-- Creator: CorelDRAW X8 -->
<svg xmlns="http://www.w3.org/2000/svg" xml:space="preserve" width="1853px" height="1486px" version="1.1" style="shape-rendering:geometricPrecision; text-rendering:geometricPrecision; image-rendering:optimizeQuality; fill-rule:evenodd; clip-rule:evenodd"
viewBox="0 0 1853 1486"
 xmlns:xlink="http://www.w3.org/1999/xlink">
 <defs>
  <style type="text/css">
   <![CDATA[
    .fil0 {fill:#CC6633;fill-rule:nonzero}
   ]]>
  </style>
 </defs>
 <g id="Layer_x0020_1">
  <metadata id="CorelCorpID_0Corel-Layer"/>
  <path class="fil0" d="M1131 922c139,-76 197,-258 191,-408 -9,-242 -179,-420 -425,-422 -219,-2 -373,165 -404,382 52,-60 121,-92 201,-95 97,-3 191,34 251,98 53,57 81,133 78,221 -3,90 -36,180 -105,237 -59,48 -140,76 -224,77 -266,3 -365,-232 -361,-463 6,-337 240,-550 564,-549 314,2 575,179 588,514 5,143 -39,291 -139,395l344 0 0 -862c0,-26 36,-46 82,-46 45,0 81,20 81,46l0 952c0,375 -514,486 -821,487 -273,0 -522,-71 -709,-211 -193,-144 -324,-361 -323,-665 1,-233 89,-463 267,-592 15,-12 39,-18 63,-18 18,0 36,3 51,10 20,9 31,22 31,36 0,9 -5,19 -17,27 -158,116 -234,328 -232,542 1,245 96,431 238,561 155,142 372,219 629,219 250,0 665,-93 659,-395l-502 0c-45,0 -81,-20 -81,-45 0,-16 13,-27 25,-33zm-612 -224c0,148 85,223 175,223 84,0 173,-73 174,-223 0,-148 -87,-222 -174,-222 -87,0 -175,74 -175,222z"/>
 </g>
</svg>
