<?xml version="1.0" encoding="UTF-8"?>
<!DOCTYPE svg PUBLIC "-//W3C//DTD SVG 1.1//EN" "http://www.w3.org/Graphics/SVG/1.1/DTD/svg11.dtd">
<!-- Creator: CorelDRAW X8 -->
<svg xmlns="http://www.w3.org/2000/svg" xml:space="preserve" width="1853px" height="1486px" version="1.1" style="shape-rendering:geometricPrecision; text-rendering:geometricPrecision; image-rendering:optimizeQuality; fill-rule:evenodd; clip-rule:evenodd"
viewBox="0 0 1853 1486"
 xmlns:xlink="http://www.w3.org/1999/xlink">
 <defs>
  <style type="text/css">
   <![CDATA[
    .fil0 {fill:#2B2A29;fill-rule:nonzero}
   ]]>
  </style>
 </defs>
 <g id="Layer_x0020_1">
  <metadata id="CorelCorpID_0Corel-Layer"/>
  <path class="fil0" d="M1032 1486c307,0 821,-112 821,-487l0 -952c0,-26 -36,-46 -81,-46 -46,0 -82,20 -82,46l0 862 -355 0c101,-100 151,-245 151,-390 0,-333 -262,-519 -577,-519 -321,0 -576,206 -576,540 0,156 48,317 159,409 66,54 136,75 221,75 85,0 166,-29 224,-78 74,-62 105,-155 105,-249 0,-82 -28,-155 -78,-208 -58,-62 -146,-98 -240,-98 -95,0 -176,41 -230,119 2,-235 161,-420 403,-420 268,0 432,167 432,429 0,155 -72,326 -213,403 -16,9 -24,20 -24,32 0,33 54,46 80,46l517 0c0,311 -418,395 -659,395 -257,0 -474,-77 -629,-219 -165,-151 -238,-348 -238,-569 0,-211 76,-419 232,-534 12,-9 17,-18 17,-27 0,-14 -13,-28 -31,-36 -14,-7 -33,-10 -51,-10 -23,0 -47,6 -63,18 -185,135 -267,373 -267,595 0,303 131,519 323,662 187,140 436,212 709,211zm-319 -553c-121,0 -174,-117 -174,-223 0,-148 87,-222 174,-222 87,0 174,73 174,219 0,106 -53,226 -174,226z"/>
 </g>
</svg>
