<?xml version="1.0" encoding="UTF-8"?>
<!DOCTYPE svg PUBLIC "-//W3C//DTD SVG 1.1//EN" "http://www.w3.org/Graphics/SVG/1.1/DTD/svg11.dtd">
<!-- Creator: CorelDRAW X8 -->
<svg xmlns="http://www.w3.org/2000/svg" xml:space="preserve" width="1483px" height="1024px" version="1.1" style="shape-rendering:geometricPrecision; text-rendering:geometricPrecision; image-rendering:optimizeQuality; fill-rule:evenodd; clip-rule:evenodd"
viewBox="0 0 1483 1024"
 xmlns:xlink="http://www.w3.org/1999/xlink">
 <defs>
  <style type="text/css">
   <![CDATA[
    .fil0 {fill:#898778;fill-rule:nonzero}
   ]]>
  </style>
 </defs>
 <g id="Layer_x0020_1">
  <metadata id="CorelCorpID_0Corel-Layer"/>
  <path class="fil0" d="M1028 1005c-30,-24 -11,-51 19,-64 175,-70 273,-254 274,-438 0,-102 -29,-201 -88,-285 -45,-66 -110,-126 -194,-127 -208,-2 -222,260 -219,412 5,271 -33,519 -365,521 -149,1 -273,-60 -358,-183 -66,-94 -98,-223 -97,-338 2,-204 104,-404 294,-491 35,-16 86,-17 119,5 31,22 18,50 -13,64 -156,70 -236,259 -238,422 -1,102 28,222 86,305 48,70 118,127 207,125 206,-6 205,-280 203,-430 -5,-268 57,-508 381,-503 145,2 263,66 346,185 65,94 98,205 98,318 0,224 -126,421 -333,509 -37,15 -88,19 -122,-7z"/>
 </g>
</svg>
