<?xml version="1.0" encoding="UTF-8"?>
<!DOCTYPE svg PUBLIC "-//W3C//DTD SVG 1.1//EN" "http://www.w3.org/Graphics/SVG/1.1/DTD/svg11.dtd">
<!-- Creator: CorelDRAW X8 -->
<svg xmlns="http://www.w3.org/2000/svg" xml:space="preserve" width="915px" height="600px" version="1.1" style="shape-rendering:geometricPrecision; text-rendering:geometricPrecision; image-rendering:optimizeQuality; fill-rule:evenodd; clip-rule:evenodd"
viewBox="0 0 915 600"
 xmlns:xlink="http://www.w3.org/1999/xlink">
 <defs>
  <style type="text/css">
   <![CDATA[
    .fil0 {fill:#2B2A29;fill-rule:nonzero}
   ]]>
  </style>
 </defs>
 <g id="Layer_x0020_1">
  <metadata id="CorelCorpID_0Corel-Layer"/>
  <path class="fil0" d="M665 600c11,0 24,-2 36,-5 127,-35 214,-172 214,-300 0,-67 -20,-131 -59,-185 -55,-77 -133,-110 -226,-110 -200,0 -235,129 -235,300 0,80 0,239 -112,241 -44,0 -85,-36 -109,-70 -35,-48 -52,-118 -52,-176 1,-96 50,-203 142,-243 12,-5 20,-13 20,-22 0,-6 -4,-12 -12,-18 -13,-8 -29,-12 -45,-12 -22,0 -45,6 -63,15 -106,50 -164,172 -164,285 0,66 20,137 58,191 55,77 133,109 226,109 205,-1 233,-126 233,-300 0,-82 4,-241 118,-241 43,0 83,38 107,71 35,48 51,105 51,165 -1,107 -60,212 -163,253 -14,5 -22,14 -22,23 0,7 6,15 18,21 12,6 25,8 39,8z"/>
 </g>
</svg>
