<?xml version="1.0" encoding="UTF-8"?>
<!DOCTYPE svg PUBLIC "-//W3C//DTD SVG 1.1//EN" "http://www.w3.org/Graphics/SVG/1.1/DTD/svg11.dtd">
<!-- Creator: CorelDRAW X8 -->
<svg xmlns="http://www.w3.org/2000/svg" xml:space="preserve" width="915px" height="601px" version="1.1" style="shape-rendering:geometricPrecision; text-rendering:geometricPrecision; image-rendering:optimizeQuality; fill-rule:evenodd; clip-rule:evenodd"
viewBox="0 0 915 601"
 xmlns:xlink="http://www.w3.org/1999/xlink">
 <defs>
  <style type="text/css">
   <![CDATA[
    .fil0 {fill:#898778;fill-rule:nonzero}
   ]]>
  </style>
 </defs>
 <g id="Layer_x0020_1">
  <metadata id="CorelCorpID_0Corel-Layer"/>
  <path class="fil0" d="M630 548c103,-40 162,-146 163,-253 0,-59 -16,-117 -51,-165 -23,-32 -64,-71 -106,-71 -112,-1 -120,155 -119,236 3,179 -30,304 -233,305 -93,0 -171,-32 -226,-109 -39,-55 -59,-129 -58,-196 1,-111 61,-231 164,-280 32,-15 77,-23 108,-3 21,14 11,32 -8,40 -92,40 -141,147 -142,243 0,59 17,128 52,176 24,34 65,71 109,70 113,-1 113,-165 112,-246 -3,-174 44,-298 242,-295 90,1 166,36 219,110 39,54 59,118 59,185 0,128 -87,265 -214,300 -26,8 -52,8 -75,-3 -27,-13 -22,-34 4,-44z"/>
 </g>
</svg>
