<?xml version="1.0" encoding="UTF-8"?>
<!DOCTYPE svg PUBLIC "-//W3C//DTD SVG 1.1//EN" "http://www.w3.org/Graphics/SVG/1.1/DTD/svg11.dtd">
<!-- Creator: CorelDRAW X8 -->
<svg xmlns="http://www.w3.org/2000/svg" xml:space="preserve" width="1157px" height="868px" version="1.1" style="shape-rendering:geometricPrecision; text-rendering:geometricPrecision; image-rendering:optimizeQuality; fill-rule:evenodd; clip-rule:evenodd"
viewBox="0 0 1157 868"
 xmlns:xlink="http://www.w3.org/1999/xlink">
 <defs>
  <style type="text/css">
   <![CDATA[
    .fil0 {fill:#2B2A29;fill-rule:nonzero}
   ]]>
  </style>
 </defs>
 <g id="Layer_x0020_1">
  <metadata id="CorelCorpID_0Corel-Layer"/>
  <path class="fil0" d="M1011 715c99,-95 146,-226 146,-362 0,-65 -13,-131 -42,-189 -54,-107 -148,-164 -267,-164 -202,0 -231,141 -231,310 0,81 -2,230 -115,230 -44,0 -84,-36 -108,-69 -33,-48 -51,-114 -51,-172 0,-97 48,-207 141,-247 12,-5 20,-14 20,-23 0,-6 -4,-13 -13,-18 -12,-8 -28,-11 -44,-11 -15,0 -31,3 -45,8 -115,41 -181,175 -181,291 0,66 19,138 58,192 54,75 131,108 221,108 202,0 239,-110 239,-289 0,-79 2,-251 114,-251 67,0 124,74 148,130 24,53 34,111 34,164 0,110 -32,223 -105,307 -85,100 -208,147 -337,147 -123,0 -247,-47 -335,-136 -90,-90 -136,-209 -136,-335 0,-110 35,-226 131,-288 9,-6 13,-12 13,-18 0,-10 -9,-18 -21,-23 -11,-5 -24,-7 -36,-7 -23,0 -47,7 -66,19 -100,63 -143,201 -143,317 0,152 63,293 180,391 116,99 266,141 417,141 149,0 305,-49 414,-153z"/>
 </g>
</svg>
