<?xml version="1.0" encoding="UTF-8"?>
<!DOCTYPE svg PUBLIC "-//W3C//DTD SVG 1.1//EN" "http://www.w3.org/Graphics/SVG/1.1/DTD/svg11.dtd">
<!-- Creator: CorelDRAW X8 -->
<svg xmlns="http://www.w3.org/2000/svg" xml:space="preserve" width="1888px" height="1486px" version="1.1" style="shape-rendering:geometricPrecision; text-rendering:geometricPrecision; image-rendering:optimizeQuality; fill-rule:evenodd; clip-rule:evenodd"
viewBox="0 0 1888 1486"
 xmlns:xlink="http://www.w3.org/1999/xlink">
 <defs>
  <style type="text/css">
   <![CDATA[
    .fil0 {fill:#009846;fill-rule:nonzero}
   ]]>
  </style>
 </defs>
 <g id="Layer_x0020_1">
  <metadata id="CorelCorpID_0Corel-Layer"/>
  <path class="fil0" d="M259 16c30,-20 82,-21 114,-5 31,15 41,43 10,64 -166,110 -228,317 -221,524 9,221 91,414 227,554 146,151 353,241 594,240 213,-2 427,-90 567,-259 104,-125 171,-302 175,-518 3,-159 -44,-330 -158,-445 -45,-46 -100,-79 -163,-79 -214,-2 -217,291 -215,443 5,266 -52,486 -367,489 -150,1 -271,-59 -357,-183 -65,-94 -98,-217 -97,-332 2,-202 97,-398 282,-490 40,-21 93,-29 131,-1 32,22 19,50 -12,64 -160,71 -237,261 -238,427 -1,103 28,216 86,299 47,69 117,126 205,125 198,-4 208,-251 205,-398 -5,-271 39,-539 377,-535 94,2 181,27 255,84 164,126 232,331 229,532 -5,260 -99,468 -243,610 -171,169 -418,257 -662,260 -266,2 -507,-84 -684,-239 -176,-154 -289,-377 -298,-648 -8,-229 67,-457 258,-583z"/>
 </g>
</svg>
