<?xml version="1.0" encoding="UTF-8"?>
<!DOCTYPE svg PUBLIC "-//W3C//DTD SVG 1.1//EN" "http://www.w3.org/Graphics/SVG/1.1/DTD/svg11.dtd">
<!-- Creator: CorelDRAW X8 -->
<svg xmlns="http://www.w3.org/2000/svg" xml:space="preserve" width="2262px" height="1024px" version="1.1" style="shape-rendering:geometricPrecision; text-rendering:geometricPrecision; image-rendering:optimizeQuality; fill-rule:evenodd; clip-rule:evenodd"
viewBox="0 0 2262 1024"
 xmlns:xlink="http://www.w3.org/1999/xlink">
 <defs>
  <style type="text/css">
   <![CDATA[
    .fil0 {fill:#009846;fill-rule:nonzero}
   ]]>
  </style>
 </defs>
 <g id="Layer_x0020_1">
  <metadata id="CorelCorpID_0Corel-Layer"/>
  <path class="fil0" d="M1222 367c0,-129 -30,-270 -186,-276 -100,-5 -174,60 -207,151 -33,92 -32,195 -32,291 0,260 -47,491 -364,491 -289,0 -429,-230 -433,-491 -3,-219 98,-437 309,-521 39,-15 90,-20 124,9 29,25 6,52 -23,63 -174,64 -250,277 -247,449 2,160 78,400 270,400 197,0 202,-258 202,-400 0,-101 0,-212 34,-308 54,-152 195,-229 350,-225 128,3 232,45 294,123 89,-84 222,-123 353,-123 216,1 376,78 480,211 83,107 118,236 116,371 -2,99 -24,199 -73,279 -69,114 -183,164 -302,163 -118,-1 -227,-48 -294,-149 -43,-65 -65,-146 -65,-230 0,-98 31,-198 90,-277 78,-104 197,-162 324,-178 -75,-67 -179,-102 -276,-100 -183,4 -282,121 -282,301l0 587c0,25 -36,46 -81,46 -45,0 -81,-21 -81,-46l0 -611zm795 -90c-100,0 -189,46 -249,126 -53,70 -78,156 -78,242 0,74 19,144 55,198 33,50 82,89 144,90 56,0 105,-34 146,-101 44,-72 63,-161 64,-250 2,-108 -21,-214 -82,-305z"/>
 </g>
</svg>
