<?xml version="1.0" encoding="UTF-8"?>
<!DOCTYPE svg PUBLIC "-//W3C//DTD SVG 1.1//EN" "http://www.w3.org/Graphics/SVG/1.1/DTD/svg11.dtd">
<!-- Creator: CorelDRAW X8 -->
<svg xmlns="http://www.w3.org/2000/svg" xml:space="preserve" width="1732px" height="1024px" version="1.1" style="shape-rendering:geometricPrecision; text-rendering:geometricPrecision; image-rendering:optimizeQuality; fill-rule:evenodd; clip-rule:evenodd"
viewBox="0 0 1732 1024"
 xmlns:xlink="http://www.w3.org/1999/xlink">
 <defs>
  <style type="text/css">
   <![CDATA[
    .fil0 {fill:#2B2A29;fill-rule:nonzero}
   ]]>
  </style>
 </defs>
 <g id="Layer_x0020_1">
  <metadata id="CorelCorpID_0Corel-Layer"/>
  <path class="fil0" d="M452 1024c335,0 367,-236 367,-506 0,-102 -1,-201 38,-297 31,-77 107,-120 187,-120 156,0 218,127 218,266 0,233 -187,470 -401,549 -15,6 -36,19 -36,38 1,37 61,46 88,46l737 0c45,0 82,-21 82,-46l0 -526c0,-127 -49,-227 -129,-299 -94,-85 -245,-129 -455,-129 -174,0 -343,41 -419,146 -72,99 -72,252 -72,372 1,150 -1,415 -209,415 -85,0 -154,-58 -200,-125 -57,-82 -86,-198 -86,-300 0,-164 81,-357 238,-427 18,-8 30,-22 30,-36 0,-9 -5,-19 -18,-28 -17,-12 -38,-17 -60,-17 -21,0 -41,4 -58,12 -191,88 -294,291 -294,496 0,114 33,240 97,333 84,122 207,183 355,183zm1117 -116l-458 0c171,-118 312,-327 312,-540 0,-108 -36,-215 -134,-272 68,11 129,38 176,81 64,58 104,142 104,251l0 480z"/>
 </g>
</svg>
