<?xml version="1.0" encoding="UTF-8"?>
<!DOCTYPE svg PUBLIC "-//W3C//DTD SVG 1.1//EN" "http://www.w3.org/Graphics/SVG/1.1/DTD/svg11.dtd">
<!-- Creator: CorelDRAW X8 -->
<svg xmlns="http://www.w3.org/2000/svg" xml:space="preserve" width="962px" height="868px" version="1.1" style="shape-rendering:geometricPrecision; text-rendering:geometricPrecision; image-rendering:optimizeQuality; fill-rule:evenodd; clip-rule:evenodd"
viewBox="0 0 962 868"
 xmlns:xlink="http://www.w3.org/1999/xlink">
 <defs>
  <style type="text/css">
   <![CDATA[
    .fil0 {fill:#669933;fill-rule:nonzero}
   ]]>
  </style>
 </defs>
 <g id="Layer_x0020_1">
  <metadata id="CorelCorpID_0Corel-Layer"/>
  <path class="fil0" d="M637 430c-8,-4 -15,-11 -15,-20 0,-9 9,-16 16,-20 20,-11 44,-10 66,-9 15,0 30,0 42,-2 30,-7 51,-23 67,-45 18,-26 26,-59 27,-93 0,-44 -14,-94 -43,-127 -32,-36 -78,-53 -126,-55 -143,-3 -156,124 -154,236 3,174 -28,304 -233,305 -93,0 -171,-32 -226,-109 -39,-55 -59,-129 -58,-196 1,-61 17,-122 49,-173 35,-56 109,-124 180,-121 16,0 46,6 53,23 6,13 -7,24 -18,28 -44,19 -77,53 -101,93 -26,46 -40,100 -41,150 0,59 17,128 52,176 24,34 65,71 109,70 113,-1 113,-166 112,-246 -4,-201 68,-297 278,-295 79,1 164,21 222,77 43,42 65,104 64,164 0,37 -9,72 -28,102 -16,26 -40,48 -71,63 32,10 56,26 74,47 18,22 28,50 28,78 0,70 -40,109 -95,131 -56,23 -127,28 -186,28l-491 0c-32,0 -67,7 -66,47 1,39 34,44 66,44l700 0c20,0 36,6 47,14 9,8 15,18 15,30 0,11 -6,21 -15,29 -11,9 -27,14 -47,14l-700 0c-45,0 -94,-5 -131,-24 -36,-18 -60,-48 -59,-98 1,-36 16,-65 47,-85 31,-19 78,-30 143,-30l491 0c33,0 71,-3 101,-16 32,-14 56,-40 56,-84 0,-26 -10,-48 -26,-64 -16,-16 -38,-26 -62,-28 -10,-1 -22,-1 -34,0 -25,2 -56,3 -79,-9z"/>
 </g>
</svg>
