<?xml version="1.0" encoding="UTF-8"?>
<!DOCTYPE svg PUBLIC "-//W3C//DTD SVG 1.1//EN" "http://www.w3.org/Graphics/SVG/1.1/DTD/svg11.dtd">
<!-- Creator: CorelDRAW X8 -->
<svg xmlns="http://www.w3.org/2000/svg" xml:space="preserve" width="1564px" height="1486px" version="1.1" style="shape-rendering:geometricPrecision; text-rendering:geometricPrecision; image-rendering:optimizeQuality; fill-rule:evenodd; clip-rule:evenodd"
viewBox="0 0 1564 1486"
 xmlns:xlink="http://www.w3.org/1999/xlink">
 <defs>
  <style type="text/css">
   <![CDATA[
    .fil0 {fill:#2B2A29;fill-rule:nonzero}
   ]]>
  </style>
 </defs>
 <g id="Layer_x0020_1">
  <metadata id="CorelCorpID_0Corel-Layer"/>
  <path class="fil0" d="M1434 1486c45,0 81,-31 81,-69 0,-39 -36,-70 -81,-70l-1138 0c-64,0 -131,-7 -131,-86 0,-56 44,-82 131,-82l812 0c142,0 281,-28 376,-144 55,-67 80,-162 80,-247 0,-107 -43,-212 -142,-263 77,-47 111,-122 111,-199 0,-100 -54,-198 -139,-251 -87,-55 -200,-74 -302,-74 -135,0 -295,40 -371,162 -64,103 -64,232 -63,350 2,151 0,420 -210,420 -85,0 -154,-58 -200,-125 -57,-82 -86,-198 -86,-300 0,-164 81,-357 238,-427 19,-9 31,-22 31,-36 0,-9 -6,-19 -18,-28 -17,-13 -39,-17 -61,-17 -21,0 -41,4 -58,12 -192,88 -294,291 -294,496 0,114 32,240 97,333 85,122 207,183 355,183 333,0 368,-240 368,-511 0,-103 -1,-192 38,-290 39,-97 137,-130 233,-130 71,0 153,16 208,63 43,37 72,105 72,170 0,46 -14,89 -46,120 -19,18 -45,32 -77,38 -15,2 -34,1 -51,3 -46,4 -68,24 -68,45 0,20 23,46 70,45l51 -1c35,-1 66,14 88,34 52,47 67,121 67,188 0,57 -14,113 -41,156 -63,100 -143,135 -256,135l-812 0c-135,0 -296,32 -296,198 0,165 160,199 296,199l1138 0z"/>
 </g>
</svg>
