<?xml version="1.0" encoding="UTF-8"?>
<!DOCTYPE svg PUBLIC "-//W3C//DTD SVG 1.1//EN" "http://www.w3.org/Graphics/SVG/1.1/DTD/svg11.dtd">
<!-- Creator: CorelDRAW X8 -->
<svg xmlns="http://www.w3.org/2000/svg" xml:space="preserve" width="1515px" height="1486px" version="1.1" style="shape-rendering:geometricPrecision; text-rendering:geometricPrecision; image-rendering:optimizeQuality; fill-rule:evenodd; clip-rule:evenodd"
viewBox="0 0 1515 1486"
 xmlns:xlink="http://www.w3.org/1999/xlink">
 <defs>
  <style type="text/css">
   <![CDATA[
    .fil0 {fill:#CC6633}
   ]]>
  </style>
 </defs>
 <g id="Layer_x0020_1">
  <metadata id="CorelCorpID_0Corel-Layer"/>
  <path class="fil0" d="M660 1224c-76,0 -136,10 -176,26 -43,16 -65,39 -65,62 -1,23 21,47 64,64 40,15 101,25 177,25 63,0 111,-7 149,-18 59,-17 88,-44 87,-71 0,-26 -28,-53 -85,-70 -39,-11 -87,-18 -151,-18zm385 88c123,-81 203,-208 253,-351 37,-107 56,-220 54,-321 -2,-115 -18,-230 -56,-323 -56,-132 -145,-225 -262,-226 -215,-2 -217,292 -215,444 5,268 -51,489 -370,489 -148,0 -270,-60 -354,-182 -72,-103 -104,-240 -96,-364 12,-188 101,-366 272,-456 25,-13 54,-22 82,-22 20,0 40,4 58,17 12,8 18,18 18,28 0,14 -10,27 -30,36 -152,68 -227,242 -238,401 -7,109 22,236 85,327 47,68 116,126 203,125 201,-1 210,-249 208,-398 -5,-277 35,-534 377,-536 197,-2 347,121 420,297 47,111 63,229 59,346 -5,129 -34,261 -88,381 -84,185 -226,339 -423,408 -53,19 -109,31 -166,40 -59,8 -119,13 -176,14 -67,1 -148,-8 -213,-25 -118,-32 -177,-90 -177,-149 0,-59 61,-118 182,-149 56,-14 127,-23 208,-23 75,0 136,7 189,20 76,17 195,64 196,152z"/>
 </g>
</svg>
