<?xml version="1.0" encoding="UTF-8"?>
<!DOCTYPE svg PUBLIC "-//W3C//DTD SVG 1.1//EN" "http://www.w3.org/Graphics/SVG/1.1/DTD/svg11.dtd">
<!-- Creator: CorelDRAW X8 -->
<svg xmlns="http://www.w3.org/2000/svg" xml:space="preserve" width="1628px" height="1486px" version="1.1" style="shape-rendering:geometricPrecision; text-rendering:geometricPrecision; image-rendering:optimizeQuality; fill-rule:evenodd; clip-rule:evenodd"
viewBox="0 0 1628 1486"
 xmlns:xlink="http://www.w3.org/1999/xlink">
 <defs>
  <style type="text/css">
   <![CDATA[
    .fil0 {fill:#2B2A29;fill-rule:nonzero}
   ]]>
  </style>
 </defs>
 <g id="Layer_x0020_1">
  <metadata id="CorelCorpID_0Corel-Layer"/>
  <path class="fil0" d="M1535 1232c59,-87 93,-177 93,-309 0,-188 -81,-328 -230,-396 82,-41 133,-114 133,-207 0,-106 -47,-188 -137,-244 -87,-55 -208,-76 -310,-76 -135,0 -287,40 -363,162 -65,104 -62,225 -62,344 0,151 0,428 -211,428 -85,0 -154,-59 -200,-125 -57,-82 -86,-198 -86,-300 0,-164 80,-357 238,-427 19,-9 31,-22 31,-36 0,-9 -6,-20 -18,-28 -18,-13 -39,-18 -61,-18 -20,0 -40,4 -58,13 -192,87 -294,291 -294,496 0,114 32,240 97,333 84,122 208,183 355,183 338,0 368,-247 368,-519 0,-101 -1,-188 38,-284 36,-90 129,-130 226,-130 75,0 156,13 215,64 42,37 70,90 70,161 1,86 -45,132 -107,153 -31,10 -66,15 -102,15l-97 1c-45,0 -81,21 -81,46 0,35 56,46 82,46 33,0 67,-2 100,-2 34,0 68,2 100,11 163,48 232,201 232,336 0,119 -40,285 -133,366 -19,-73 -124,-113 -193,-129 -53,-12 -114,-19 -189,-19 -81,0 -152,8 -208,23 -121,31 -182,90 -182,149 0,58 59,116 177,148 61,17 137,25 213,25 74,0 148,-8 218,-26 133,-34 253,-105 336,-228zm-554 170c-164,0 -242,-45 -242,-89 0,-45 86,-88 242,-88 156,0 237,46 237,88 0,42 -73,89 -237,89z"/>
 </g>
</svg>
