<?xml version="1.0" encoding="UTF-8"?>
<!DOCTYPE svg PUBLIC "-//W3C//DTD SVG 1.1//EN" "http://www.w3.org/Graphics/SVG/1.1/DTD/svg11.dtd">
<!-- Creator: CorelDRAW X8 -->
<svg xmlns="http://www.w3.org/2000/svg" xml:space="preserve" width="2813px" height="1024px" version="1.1" style="shape-rendering:geometricPrecision; text-rendering:geometricPrecision; image-rendering:optimizeQuality; fill-rule:evenodd; clip-rule:evenodd"
viewBox="0 0 2813 1024"
 xmlns:xlink="http://www.w3.org/1999/xlink">
 <defs>
  <style type="text/css">
   <![CDATA[
    .fil0 {fill:#2B2A29;fill-rule:nonzero}
   ]]>
  </style>
 </defs>
 <g id="Layer_x0020_1">
  <metadata id="CorelCorpID_0Corel-Layer"/>
  <path class="fil0" d="M820 540c0,-49 -2,-95 1,-144 5,-111 67,-208 189,-208 94,0 187,73 187,207 0,72 -26,148 -91,186 -11,7 -23,18 -23,32 0,26 37,46 82,46l392 0 0 291c0,37 55,50 81,50l1094 0c45,0 81,-21 81,-46l0 -908c0,-26 -36,-46 -81,-46 -45,0 -82,20 -82,46l0 862 -930 0 0 -249 608 0c45,0 82,-20 82,-46l0 -262c0,-236 -207,-351 -418,-351 -209,0 -435,116 -435,351l0 217 -249 0c35,-49 52,-108 52,-173 0,-196 -175,-298 -353,-298 -184,0 -340,103 -349,298 -2,49 0,100 0,149 0,146 -8,389 -209,389 -86,0 -155,-58 -201,-125 -58,-82 -86,-198 -86,-300 0,-164 81,-357 238,-427 18,-8 31,-22 31,-36 0,-9 -6,-19 -19,-28 -17,-12 -39,-17 -61,-17 -20,0 -40,4 -57,12 -192,88 -294,291 -294,496 0,114 31,240 96,333 84,122 205,183 351,183 323,0 373,-209 373,-484zm1427 28l-527 0 0 -217c0,-155 120,-260 269,-260 151,0 258,106 258,260l0 217z"/>
 </g>
</svg>
