<?xml version="1.0" encoding="UTF-8"?>
<!DOCTYPE svg PUBLIC "-//W3C//DTD SVG 1.1//EN" "http://www.w3.org/Graphics/SVG/1.1/DTD/svg11.dtd">
<!-- Creator: CorelDRAW X8 -->
<svg xmlns="http://www.w3.org/2000/svg" xml:space="preserve" width="1515px" height="1486px" version="1.1" style="shape-rendering:geometricPrecision; text-rendering:geometricPrecision; image-rendering:optimizeQuality; fill-rule:evenodd; clip-rule:evenodd"
viewBox="0 0 1515 1486"
 xmlns:xlink="http://www.w3.org/1999/xlink">
 <defs>
  <style type="text/css">
   <![CDATA[
    .fil0 {fill:#2B2A29;fill-rule:nonzero}
   ]]>
  </style>
 </defs>
 <g id="Layer_x0020_1">
  <metadata id="CorelCorpID_0Corel-Layer"/>
  <path class="fil0" d="M1093 1393c156,-81 270,-218 339,-377 55,-124 83,-262 83,-398 0,-108 -19,-224 -59,-321 -73,-175 -222,-297 -416,-297 -346,0 -382,250 -382,532 0,149 -3,402 -210,402 -86,0 -154,-58 -201,-125 -57,-82 -86,-191 -86,-292 0,-170 74,-362 239,-436 18,-8 30,-22 30,-36 0,-9 -5,-19 -18,-28 -17,-12 -37,-17 -57,-17 -29,0 -58,9 -83,22 -188,98 -273,294 -273,495 0,113 33,232 97,325 85,122 206,182 354,182 326,0 370,-222 370,-492 0,-152 0,-441 213,-441 133,0 218,115 265,226 42,102 55,191 55,301 0,108 -22,235 -65,354 -51,139 -132,268 -242,340 -1,-88 -120,-134 -196,-152 -53,-12 -114,-20 -189,-20 -81,0 -152,9 -208,23 -121,31 -182,90 -182,149 0,59 59,118 177,149 62,17 138,25 213,25 72,0 157,-8 235,-24 69,-15 134,-36 197,-69zm-431 8c-165,0 -242,-45 -242,-89 0,-45 86,-88 242,-88 155,0 236,46 236,88 0,42 -73,89 -236,89z"/>
 </g>
</svg>
