<?xml version="1.0" encoding="UTF-8"?>
<!DOCTYPE svg PUBLIC "-//W3C//DTD SVG 1.1//EN" "http://www.w3.org/Graphics/SVG/1.1/DTD/svg11.dtd">
<!-- Creator: CorelDRAW X8 -->
<svg xmlns="http://www.w3.org/2000/svg" xml:space="preserve" width="965px" height="868px" version="1.1" style="shape-rendering:geometricPrecision; text-rendering:geometricPrecision; image-rendering:optimizeQuality; fill-rule:evenodd; clip-rule:evenodd"
viewBox="0 0 965 868"
 xmlns:xlink="http://www.w3.org/1999/xlink">
 <defs>
  <style type="text/css">
   <![CDATA[
    .fil0 {fill:#009846;fill-rule:nonzero}
   ]]>
  </style>
 </defs>
 <g id="Layer_x0020_1">
  <metadata id="CorelCorpID_0Corel-Layer"/>
  <path class="fil0" d="M189 690c-33,0 -70,8 -69,48 1,41 36,44 69,44l687 0c26,0 60,13 60,43 0,30 -34,43 -60,43l-687 0c-81,0 -191,-17 -189,-120 2,-100 109,-116 189,-116l491 0c64,0 108,-20 144,-75 17,-27 25,-63 25,-95 -1,-37 -12,-79 -41,-104 -12,-11 -28,-16 -45,-17 -10,-1 -20,1 -31,0 -16,-1 -49,-8 -51,-28 -1,-21 33,-29 50,-31 9,0 19,0 28,-1 16,-3 30,-9 42,-20 17,-15 26,-36 26,-59 1,-40 -11,-81 -42,-108 -32,-26 -79,-34 -120,-34 -52,0 -105,22 -126,73 -23,54 -24,105 -23,162 3,175 -29,307 -236,305 -90,0 -168,-35 -221,-108 -40,-55 -60,-130 -59,-197 1,-121 66,-236 179,-287 26,-11 67,-12 90,4 21,14 12,31 -8,40 -92,40 -141,148 -142,243 -1,59 17,128 51,176 10,13 21,26 34,38 22,18 48,32 76,32 118,2 119,-163 117,-246 -1,-66 1,-141 38,-198 48,-72 148,-96 230,-96 65,-1 140,10 196,44 60,36 86,89 85,157 -1,46 -27,82 -65,106 58,31 84,91 84,154 0,50 -16,105 -49,143 -59,71 -148,85 -236,85l-491 0z"/>
 </g>
</svg>
