<?xml version="1.0" encoding="UTF-8"?>
<!DOCTYPE svg PUBLIC "-//W3C//DTD SVG 1.1//EN" "http://www.w3.org/Graphics/SVG/1.1/DTD/svg11.dtd">
<!-- Creator: CorelDRAW X8 -->
<svg xmlns="http://www.w3.org/2000/svg" xml:space="preserve" width="2263px" height="1024px" version="1.1" style="shape-rendering:geometricPrecision; text-rendering:geometricPrecision; image-rendering:optimizeQuality; fill-rule:evenodd; clip-rule:evenodd"
viewBox="0 0 2263 1024"
 xmlns:xlink="http://www.w3.org/1999/xlink">
 <defs>
  <style type="text/css">
   <![CDATA[
    .fil0 {fill:#2B2A29;fill-rule:nonzero}
   ]]>
  </style>
 </defs>
 <g id="Layer_x0020_1">
  <metadata id="CorelCorpID_0Corel-Layer"/>
  <path class="fil0" d="M1890 1024c118,0 232,-50 300,-163 52,-85 73,-191 73,-290 0,-131 -35,-256 -116,-360 -104,-133 -256,-210 -472,-211 -131,0 -272,39 -361,123 -73,-91 -179,-123 -291,-123 -150,0 -301,77 -354,225 -34,96 -34,207 -34,308 0,142 -5,400 -202,400 -197,0 -270,-250 -270,-410 0,-170 76,-376 247,-439 20,-7 36,-22 36,-39 0,-7 -4,-16 -13,-24 -18,-15 -40,-21 -63,-21 -21,0 -42,5 -61,12 -208,83 -309,296 -309,512 0,267 143,500 433,500 317,0 364,-231 364,-491 0,-97 -1,-199 32,-291 32,-88 100,-151 194,-151 165,0 199,141 199,276l0 611c0,25 36,46 82,46 45,0 81,-21 81,-46l0 -587c0,-183 103,-301 290,-301 95,0 195,35 268,100 -127,16 -246,74 -324,178 -59,79 -90,179 -90,277 0,84 22,165 65,230 67,102 177,149 296,149zm0 -91c-62,-1 -111,-40 -144,-90 -36,-54 -55,-124 -55,-198 0,-86 25,-172 78,-242 60,-80 149,-126 249,-126 59,87 82,189 82,292 0,91 -16,185 -64,263 -41,67 -90,101 -146,101z"/>
 </g>
</svg>
