<?xml version="1.0" encoding="UTF-8"?>
<!DOCTYPE svg PUBLIC "-//W3C//DTD SVG 1.1//EN" "http://www.w3.org/Graphics/SVG/1.1/DTD/svg11.dtd">
<!-- Creator: CorelDRAW X8 -->
<svg xmlns="http://www.w3.org/2000/svg" xml:space="preserve" width="1628px" height="1486px" version="1.1" style="shape-rendering:geometricPrecision; text-rendering:geometricPrecision; image-rendering:optimizeQuality; fill-rule:evenodd; clip-rule:evenodd"
viewBox="0 0 1628 1486"
 xmlns:xlink="http://www.w3.org/1999/xlink">
 <defs>
  <style type="text/css">
   <![CDATA[
    .fil0 {fill:#CC6633}
   ]]>
  </style>
 </defs>
 <g id="Layer_x0020_1">
  <metadata id="CorelCorpID_0Corel-Layer"/>
  <path class="fil0" d="M981 1225c-76,0 -136,10 -176,25 -43,17 -65,40 -65,63 -1,23 21,46 64,63 40,16 101,26 177,26 63,0 111,-7 149,-18 59,-17 88,-45 87,-71 0,-27 -28,-53 -86,-70 -38,-11 -86,-18 -150,-18zm103 -1133c-97,0 -190,40 -226,130 -37,92 -40,179 -38,282 5,277 -35,524 -374,521 -145,-1 -267,-64 -349,-183 -66,-94 -98,-223 -97,-338 2,-204 104,-404 294,-491 17,-8 38,-13 58,-13 22,0 44,6 61,18 12,8 17,18 18,28 0,14 -11,27 -31,36 -156,70 -236,259 -238,422 -1,103 28,222 86,305 46,66 114,124 198,125 214,2 215,-276 212,-430 -2,-113 2,-244 63,-342 75,-119 231,-161 363,-162 104,-1 221,20 310,76 80,50 136,127 137,241 1,95 -50,169 -133,210 149,68 230,209 230,378 0,132 -34,240 -93,327 -73,109 -185,183 -315,223 -79,25 -156,30 -239,31 -67,1 -148,-7 -213,-25 -118,-31 -177,-90 -177,-148 0,-59 61,-118 182,-149 56,-15 127,-23 208,-23 75,0 136,7 189,19 69,16 174,56 193,129 32,-28 59,-65 80,-106 41,-81 59,-181 51,-277 -12,-145 -84,-279 -230,-319 -65,-18 -134,-9 -200,-9 -26,0 -82,-11 -82,-46 0,-25 36,-46 81,-46 60,0 138,4 201,-17 70,-24 105,-78 105,-152 -1,-71 -28,-124 -70,-161 -58,-49 -141,-65 -215,-64z"/>
 </g>
</svg>
