<?xml version="1.0" encoding="UTF-8"?>
<!DOCTYPE svg PUBLIC "-//W3C//DTD SVG 1.1//EN" "http://www.w3.org/Graphics/SVG/1.1/DTD/svg11.dtd">
<!-- Creator: CorelDRAW X8 -->
<svg xmlns="http://www.w3.org/2000/svg" xml:space="preserve" width="2668px" height="1024px" version="1.1" style="shape-rendering:geometricPrecision; text-rendering:geometricPrecision; image-rendering:optimizeQuality; fill-rule:evenodd; clip-rule:evenodd"
viewBox="0 0 2668 1024"
 xmlns:xlink="http://www.w3.org/1999/xlink">
 <defs>
  <style type="text/css">
   <![CDATA[
    .fil0 {fill:#2B2A29;fill-rule:nonzero}
   ]]>
  </style>
 </defs>
 <g id="Layer_x0020_1">
  <metadata id="CorelCorpID_0Corel-Layer"/>
  <path class="fil0" d="M2186 1024c183,0 352,-90 431,-259 36,-77 51,-163 51,-252 0,-204 -86,-416 -283,-502 -16,-7 -36,-11 -56,-11 -23,0 -45,5 -62,18 -12,9 -17,18 -17,27 0,15 13,29 32,37 161,68 223,272 223,432 0,70 -10,141 -35,205 -46,118 -153,214 -284,214 -162,0 -232,-122 -232,-271l0 -616c0,-25 -37,-46 -82,-46 -45,0 -81,21 -81,46l0 617c0,107 -41,182 -144,227 -56,24 -125,36 -195,40 59,-47 95,-111 95,-187 0,-100 -67,-173 -155,-215 86,-41 139,-113 139,-208 0,-106 -48,-189 -137,-245 -87,-55 -200,-74 -302,-74 -135,0 -295,40 -371,162 -65,103 -62,226 -62,343 0,151 2,427 -209,427 -86,0 -155,-57 -202,-125 -57,-82 -86,-198 -86,-300 0,-164 80,-357 238,-427 19,-9 31,-22 31,-36 0,-9 -6,-19 -18,-28 -17,-12 -40,-17 -62,-17 -20,0 -40,4 -57,12 -192,88 -294,291 -294,496 0,114 32,240 97,333 84,122 204,183 351,183 339,0 372,-243 372,-518 0,-100 -1,-187 38,-283 39,-96 136,-130 233,-130 71,0 153,16 208,63 50,42 69,100 69,164 0,82 -43,125 -102,146 -36,13 -79,17 -121,18l-82 0c-45,0 -81,21 -81,46 0,35 56,46 82,46 19,0 48,-2 80,-2 37,0 79,3 118,15 73,24 121,77 121,154 0,91 -69,170 -163,171 -81,1 -117,-35 -173,-35 -23,0 -46,5 -63,17 -12,8 -18,18 -18,28 0,14 10,27 30,36 108,49 281,63 398,63 121,0 248,-15 353,-61 43,-19 82,-43 114,-72 69,89 185,134 325,134z"/>
 </g>
</svg>
