<?xml version="1.0" encoding="UTF-8"?>
<!DOCTYPE svg PUBLIC "-//W3C//DTD SVG 1.1//EN" "http://www.w3.org/Graphics/SVG/1.1/DTD/svg11.dtd">
<!-- Creator: CorelDRAW X8 -->
<svg xmlns="http://www.w3.org/2000/svg" xml:space="preserve" width="3034px" height="1486px" version="1.1" style="shape-rendering:geometricPrecision; text-rendering:geometricPrecision; image-rendering:optimizeQuality; fill-rule:evenodd; clip-rule:evenodd"
viewBox="0 0 3034 1487"
 xmlns:xlink="http://www.w3.org/1999/xlink">
 <defs>
  <style type="text/css">
   <![CDATA[
    .fil0 {fill:#2B2A29;fill-rule:nonzero}
   ]]>
  </style>
 </defs>
 <g id="Layer_x0020_1">
  <metadata id="CorelCorpID_0Corel-Layer"/>
  <path class="fil0" d="M2549 1024c94,0 184,-23 260,-69 -65,130 -178,220 -306,285 -255,130 -660,155 -946,155 -248,0 -551,-19 -806,-107 -357,-123 -586,-384 -586,-772 0,-176 63,-343 209,-441 13,-9 19,-19 19,-29 0,-14 -11,-27 -29,-35 -15,-7 -34,-11 -53,-11 -22,0 -45,6 -62,17 -174,117 -249,303 -249,499 0,451 312,740 720,866 270,83 575,105 837,105 323,0 767,-32 1056,-179 200,-102 337,-255 392,-488 19,-79 29,-174 29,-267 -3,-220 -67,-445 -286,-542 -16,-7 -36,-11 -56,-11 -23,0 -45,5 -62,18 -12,9 -17,18 -17,27 0,15 13,29 32,37 160,68 223,272 223,432 0,70 -10,141 -35,205 -46,118 -153,214 -284,214 -162,0 -232,-122 -232,-271l0 -616c0,-25 -37,-46 -82,-46 -45,0 -81,21 -81,46l0 617c0,107 -41,182 -144,227 -56,24 -125,36 -195,40 59,-47 95,-111 95,-187 0,-100 -67,-173 -155,-215 86,-41 139,-113 139,-208 0,-106 -48,-189 -137,-245 -87,-55 -200,-74 -302,-74 -136,0 -295,40 -372,162 -64,103 -62,226 -62,343 0,152 3,427 -208,427 -87,0 -156,-57 -203,-125 -57,-82 -86,-198 -86,-300 0,-164 81,-356 238,-427 19,-8 31,-22 31,-36 0,-9 -6,-19 -18,-28 -17,-12 -40,-17 -62,-17 -20,0 -40,4 -57,12 -191,88 -294,291 -294,496 0,114 32,240 97,333 84,122 204,183 352,183 339,0 372,-243 372,-518 0,-100 -1,-187 38,-283 38,-96 136,-130 233,-130 71,0 153,16 208,63 49,43 69,100 69,164 0,83 -43,125 -102,146 -37,13 -79,18 -121,18l-82 0c-45,0 -81,21 -81,46 0,35 56,46 82,46 19,0 48,-2 80,-2 37,0 79,3 118,15 73,24 121,77 121,154 0,91 -69,169 -163,171 -84,0 -117,-35 -173,-35 -23,0 -46,5 -63,17 -12,8 -18,18 -18,28 0,14 10,27 30,36 108,49 281,63 398,63 121,0 248,-16 353,-61 43,-19 82,-43 114,-72 69,89 185,134 325,134z"/>
 </g>
</svg>
