<?xml version="1.0" encoding="UTF-8"?>
<!DOCTYPE svg PUBLIC "-//W3C//DTD SVG 1.1//EN" "http://www.w3.org/Graphics/SVG/1.1/DTD/svg11.dtd">
<!-- Creator: CorelDRAW X8 -->
<svg xmlns="http://www.w3.org/2000/svg" xml:space="preserve" width="931px" height="868px" version="1.1" style="shape-rendering:geometricPrecision; text-rendering:geometricPrecision; image-rendering:optimizeQuality; fill-rule:evenodd; clip-rule:evenodd"
viewBox="0 0 931 868"
 xmlns:xlink="http://www.w3.org/1999/xlink">
 <defs>
  <style type="text/css">
   <![CDATA[
    .fil0 {fill:#898778;fill-rule:nonzero}
   ]]>
  </style>
 </defs>
 <g id="Layer_x0020_1">
  <metadata id="CorelCorpID_0Corel-Layer"/>
  <path class="fil0" d="M809 327c0,-70 -19,-147 -63,-203 -25,-32 -69,-65 -111,-65 -112,0 -117,170 -116,250 3,178 -40,290 -235,291 -93,0 -171,-32 -226,-109 -39,-55 -59,-129 -58,-196 1,-116 72,-254 188,-289 25,-8 60,-9 83,6 21,13 13,31 -7,40 -92,40 -141,147 -142,243 0,59 17,128 52,176 24,34 65,71 109,70 111,-1 115,-150 114,-232 -3,-174 34,-311 238,-309 88,1 170,32 226,102 49,63 70,147 70,225 0,100 -26,180 -72,238 -65,84 -171,126 -304,126l-365 0c-32,0 -67,7 -66,46 1,40 34,45 66,45l655 0c26,0 62,12 62,43 0,31 -36,43 -62,43l-655 0c-45,0 -94,-5 -131,-24 -36,-17 -60,-47 -59,-97 1,-37 16,-66 47,-85 31,-20 78,-30 143,-30l365 0c97,0 165,-45 206,-112 32,-53 47,-121 48,-193z"/>
 </g>
</svg>
