<?xml version="1.0" encoding="UTF-8"?>
<!DOCTYPE svg PUBLIC "-//W3C//DTD SVG 1.1//EN" "http://www.w3.org/Graphics/SVG/1.1/DTD/svg11.dtd">
<!-- Creator: CorelDRAW X8 -->
<svg xmlns="http://www.w3.org/2000/svg" xml:space="preserve" width="1562px" height="1486px" version="1.1" style="shape-rendering:geometricPrecision; text-rendering:geometricPrecision; image-rendering:optimizeQuality; fill-rule:evenodd; clip-rule:evenodd"
viewBox="0 0 1562 1486"
 xmlns:xlink="http://www.w3.org/1999/xlink">
 <defs>
  <style type="text/css">
   <![CDATA[
    .fil0 {fill:#898778;fill-rule:nonzero}
   ]]>
  </style>
 </defs>
 <g id="Layer_x0020_1">
  <metadata id="CorelCorpID_0Corel-Layer"/>
  <path class="fil0" d="M1120 748c-26,0 -82,-12 -82,-46 0,-25 36,-46 81,-46 44,0 81,4 118,-4 113,-26 161,-132 162,-241 2,-82 -24,-167 -71,-221 -52,-60 -129,-95 -228,-98 -260,-7 -283,206 -280,411 5,274 -34,519 -368,521 -148,0 -270,-60 -355,-183 -66,-94 -98,-223 -97,-338 2,-204 105,-402 295,-490 38,-17 83,-19 118,5 31,22 19,50 -12,64 -157,70 -237,257 -239,421 -1,102 28,222 86,305 47,68 117,126 204,125 210,-3 209,-279 206,-430 -5,-318 92,-506 442,-503 141,1 267,44 351,129 71,71 108,178 106,282 -2,119 -55,232 -169,285 111,32 174,118 174,215 -1,237 -262,269 -447,268l-819 0c-89,0 -133,27 -131,86 1,62 45,83 131,83l1167 0c45,0 81,30 81,69 0,38 -36,69 -81,69l-1167 0c-137,0 -299,-35 -296,-204 3,-123 95,-194 296,-193l819 0c122,0 281,-25 281,-178 0,-95 -69,-156 -159,-165 -37,-4 -74,2 -117,2z"/>
 </g>
</svg>
