<?xml version="1.0" encoding="UTF-8"?>
<!DOCTYPE svg PUBLIC "-//W3C//DTD SVG 1.1//EN" "http://www.w3.org/Graphics/SVG/1.1/DTD/svg11.dtd">
<!-- Creator: CorelDRAW X8 -->
<svg xmlns="http://www.w3.org/2000/svg" xml:space="preserve" width="1157px" height="868px" version="1.1" style="shape-rendering:geometricPrecision; text-rendering:geometricPrecision; image-rendering:optimizeQuality; fill-rule:evenodd; clip-rule:evenodd"
viewBox="0 0 1157 868"
 xmlns:xlink="http://www.w3.org/1999/xlink">
 <defs>
  <style type="text/css">
   <![CDATA[
    .fil0 {fill:#009846}
   ]]>
  </style>
 </defs>
 <g id="Layer_x0020_1">
  <metadata id="CorelCorpID_0Corel-Layer"/>
  <path class="fil0" d="M739 309c3,177 -40,290 -235,290 -92,1 -170,-32 -225,-108 -40,-55 -59,-130 -58,-197 1,-114 68,-246 181,-286 27,-9 64,-12 89,3 22,13 14,32 -7,41 -91,39 -140,147 -141,242 -1,59 17,128 51,177 24,33 65,70 110,69 110,-1 114,-150 113,-232 -3,-182 41,-311 238,-308 117,2 208,61 260,164 30,60 43,129 42,196 -2,134 -48,261 -146,355 -108,103 -262,152 -409,153 -152,1 -305,-41 -422,-141 -114,-96 -175,-229 -180,-376 -4,-118 38,-266 143,-332 30,-18 70,-26 102,-12 20,8 31,26 8,41 -101,65 -135,188 -131,303 5,120 50,234 136,320 90,91 217,138 343,136 123,-1 245,-49 329,-147 72,-83 103,-192 105,-300 1,-54 -9,-116 -34,-171 -24,-56 -81,-129 -147,-130 -112,-1 -116,170 -115,250z"/>
 </g>
</svg>
