<?xml version="1.0" encoding="UTF-8"?>
<!DOCTYPE svg PUBLIC "-//W3C//DTD SVG 1.1//EN" "http://www.w3.org/Graphics/SVG/1.1/DTD/svg11.dtd">
<!-- Creator: CorelDRAW X8 -->
<svg xmlns="http://www.w3.org/2000/svg" xml:space="preserve" width="3033px" height="1486px" version="1.1" style="shape-rendering:geometricPrecision; text-rendering:geometricPrecision; image-rendering:optimizeQuality; fill-rule:evenodd; clip-rule:evenodd"
viewBox="0 0 3033 1486"
 xmlns:xlink="http://www.w3.org/1999/xlink">
 <defs>
  <style type="text/css">
   <![CDATA[
    .fil0 {fill:#2B2A29;fill-rule:nonzero}
   ]]>
  </style>
 </defs>
 <g id="Layer_x0020_1">
  <metadata id="CorelCorpID_0Corel-Layer"/>
  <path class="fil0" d="M2548 1024c94,0 184,-24 260,-69 -65,129 -177,220 -306,285 -255,129 -659,155 -945,155 -248,0 -551,-19 -806,-107 -358,-123 -586,-384 -586,-772 0,-176 63,-343 209,-441 13,-9 19,-19 19,-29 0,-14 -11,-27 -29,-35 -15,-7 -34,-11 -53,-11 -22,0 -46,5 -62,17 -174,116 -249,303 -249,499 0,451 312,740 720,866 270,83 574,104 837,104 322,0 767,-31 1055,-178 200,-102 337,-255 392,-488 19,-79 30,-174 29,-267 -2,-220 -66,-446 -286,-542 -16,-7 -36,-11 -56,-11 -23,0 -44,5 -62,18 -12,9 -16,18 -16,27 0,15 12,29 31,37 161,67 223,272 223,432 0,70 -10,141 -34,205 -46,118 -154,214 -285,214 -162,0 -232,-122 -232,-271l0 -616c0,-25 -37,-46 -82,-46 -45,0 -81,21 -81,46l0 617c0,107 -41,182 -144,227 -56,24 -125,36 -195,40 59,-47 95,-111 95,-187 0,-100 -67,-173 -155,-215 86,-41 139,-113 139,-208 0,-106 -47,-189 -137,-245 -87,-55 -200,-74 -302,-74 -135,0 -294,40 -371,162 -65,102 -62,226 -62,343 0,151 2,427 -209,427 -86,0 -155,-57 -202,-125 -57,-82 -86,-198 -86,-300 0,-164 81,-357 238,-427 19,-9 31,-22 31,-36 0,-9 -6,-19 -18,-28 -17,-13 -40,-17 -62,-17 -20,0 -40,4 -57,12 -192,88 -294,291 -294,496 0,114 32,240 97,333 84,122 204,183 351,183 340,0 372,-243 372,-518 0,-100 -1,-187 38,-283 39,-97 137,-130 233,-130 71,0 153,16 208,63 50,42 69,99 69,164 0,82 -43,125 -102,146 -36,13 -79,17 -120,17l-83 1c-45,0 -81,21 -81,46 0,35 56,46 82,46 19,0 48,-2 80,-2 37,0 79,2 118,15 73,23 121,77 121,154 0,91 -69,170 -163,171 -83,1 -117,-35 -173,-35 -23,0 -46,5 -63,17 -12,8 -18,18 -18,28 0,14 10,27 30,36 108,49 281,63 398,63 121,0 248,-15 353,-61 43,-19 82,-43 114,-72 69,89 185,134 325,134z"/>
 </g>
</svg>
