<?xml version="1.0" encoding="UTF-8"?>
<!DOCTYPE svg PUBLIC "-//W3C//DTD SVG 1.1//EN" "http://www.w3.org/Graphics/SVG/1.1/DTD/svg11.dtd">
<!-- Creator: CorelDRAW X8 -->
<svg xmlns="http://www.w3.org/2000/svg" xml:space="preserve" width="2124px" height="1024px" version="1.1" style="shape-rendering:geometricPrecision; text-rendering:geometricPrecision; image-rendering:optimizeQuality; fill-rule:evenodd; clip-rule:evenodd"
viewBox="0 0 2124 1024"
 xmlns:xlink="http://www.w3.org/1999/xlink">
 <defs>
  <style type="text/css">
   <![CDATA[
    .fil0 {fill:#2B2A29;fill-rule:nonzero}
   ]]>
  </style>
 </defs>
 <g id="Layer_x0020_1">
  <metadata id="CorelCorpID_0Corel-Layer"/>
  <path class="fil0" d="M1785 1024c20,0 40,-4 56,-11 198,-87 283,-300 283,-504 0,-86 -15,-171 -51,-250 -79,-169 -248,-259 -431,-259 -130,0 -239,39 -310,116 -79,-91 -182,-116 -294,-116 -323,0 -380,241 -380,506 0,152 3,427 -208,427 -86,0 -154,-56 -202,-125 -56,-82 -86,-198 -86,-300 0,-164 81,-357 238,-427 18,-8 31,-22 31,-36 0,-9 -6,-19 -19,-28 -17,-12 -38,-17 -60,-17 -21,0 -41,4 -58,12 -191,88 -294,291 -294,496 0,114 33,240 97,333 85,122 207,183 354,183 338,0 369,-245 369,-518 0,-152 7,-415 218,-415 153,0 208,127 208,271l0 616c0,25 36,46 82,46 45,0 82,-21 82,-46l0 -616c0,-149 70,-271 232,-271 131,0 238,96 284,214 25,65 35,134 35,204 0,160 -63,366 -223,433 -21,9 -31,23 -31,37 0,9 5,19 16,27 17,13 39,18 62,18z"/>
 </g>
</svg>
