<?xml version="1.0" encoding="UTF-8"?>
<!DOCTYPE svg PUBLIC "-//W3C//DTD SVG 1.1//EN" "http://www.w3.org/Graphics/SVG/1.1/DTD/svg11.dtd">
<!-- Creator: CorelDRAW X8 -->
<svg xmlns="http://www.w3.org/2000/svg" xml:space="preserve" width="2684px" height="1486px" version="1.1" style="shape-rendering:geometricPrecision; text-rendering:geometricPrecision; image-rendering:optimizeQuality; fill-rule:evenodd; clip-rule:evenodd"
viewBox="0 0 2684 1487"
 xmlns:xlink="http://www.w3.org/1999/xlink">
 <defs>
  <style type="text/css">
   <![CDATA[
    .fil0 {fill:#2B2A29;fill-rule:nonzero}
   ]]>
  </style>
 </defs>
 <g id="Layer_x0020_1">
  <metadata id="CorelCorpID_0Corel-Layer"/>
  <path class="fil0" d="M2187 1024c120,0 234,-39 321,-113 -13,165 -103,336 -249,419 1,-5 2,-11 2,-18 0,-87 -119,-134 -196,-152 -53,-12 -114,-19 -189,-19 -81,0 -153,8 -209,22 -120,32 -182,90 -182,149 0,59 60,118 178,149 66,18 143,26 213,26 73,0 155,-8 236,-25 90,-18 178,-48 249,-90 179,-106 266,-283 302,-475 15,-83 21,-168 21,-253 0,-95 -10,-189 -30,-274 -32,-153 -118,-293 -268,-359 -16,-7 -36,-11 -56,-11 -23,0 -45,5 -62,18 -12,9 -17,18 -17,27 0,15 13,29 32,37 160,68 223,272 223,432 0,70 -10,141 -35,205 -46,118 -153,214 -284,214 -162,0 -232,-122 -232,-271l0 -616c0,-25 -37,-46 -82,-46 -45,0 -81,21 -81,46l0 617c0,107 -41,182 -145,227 -56,24 -124,36 -194,40 59,-47 94,-111 94,-187 0,-100 -66,-173 -154,-215 86,-41 138,-113 138,-208 0,-106 -47,-189 -136,-245 -88,-55 -201,-74 -303,-74 -135,0 -294,40 -371,162 -64,103 -62,226 -62,343 0,152 3,427 -209,427 -86,0 -155,-57 -202,-125 -57,-82 -86,-198 -86,-300 0,-164 81,-356 238,-427 19,-8 31,-22 31,-36 0,-9 -6,-19 -18,-28 -17,-12 -40,-17 -62,-17 -20,0 -40,4 -57,12 -191,88 -294,291 -294,496 0,114 32,240 97,333 84,122 204,183 351,183 340,0 372,-243 372,-518 0,-100 -1,-187 38,-283 39,-96 137,-130 233,-130 71,0 153,16 208,63 50,43 70,100 70,164 0,83 -44,125 -102,146 -37,13 -79,18 -121,18l-83 0c-45,0 -81,21 -81,46 0,35 56,46 82,46 19,0 48,-2 80,-2 37,0 79,3 118,15 74,24 121,77 121,154 0,91 -68,169 -163,171 -77,2 -114,-35 -173,-35 -23,0 -46,5 -63,17 -12,8 -18,18 -18,28 0,14 10,27 30,36 108,49 281,63 399,63 120,0 248,-16 353,-61 43,-19 82,-43 114,-72 69,89 185,134 325,134zm-311 378c-76,0 -137,-10 -177,-26 -42,-17 -64,-39 -64,-62 0,-33 38,-53 64,-64 40,-15 101,-25 177,-25 64,0 112,7 151,18 57,17 85,43 85,69 0,41 -56,63 -87,72 -38,11 -86,18 -149,18z"/>
 </g>
</svg>
