<?xml version="1.0" encoding="UTF-8"?>
<!DOCTYPE svg PUBLIC "-//W3C//DTD SVG 1.1//EN" "http://www.w3.org/Graphics/SVG/1.1/DTD/svg11.dtd">
<!-- Creator: CorelDRAW X8 -->
<svg xmlns="http://www.w3.org/2000/svg" xml:space="preserve" width="1545px" height="1024px" version="1.1" style="shape-rendering:geometricPrecision; text-rendering:geometricPrecision; image-rendering:optimizeQuality; fill-rule:evenodd; clip-rule:evenodd"
viewBox="0 0 1545 1024"
 xmlns:xlink="http://www.w3.org/1999/xlink">
 <defs>
  <style type="text/css">
   <![CDATA[
    .fil0 {fill:#2B2A29;fill-rule:nonzero}
   ]]>
  </style>
 </defs>
 <g id="Layer_x0020_1">
  <metadata id="CorelCorpID_0Corel-Layer"/>
  <path class="fil0" d="M452 1024c337,0 368,-245 368,-517 0,-100 0,-189 38,-284 36,-90 137,-130 235,-130 73,0 149,13 206,63 42,36 70,89 70,161 1,87 -46,131 -108,151 -36,12 -77,15 -118,16l-80 0c-45,0 -81,21 -81,46 0,35 56,46 82,46 19,0 48,-2 80,-2 37,0 79,2 118,15 73,24 120,83 120,161 0,45 -10,89 -38,123 -30,38 -77,57 -124,57 -73,1 -117,-35 -172,-35 -23,0 -46,5 -63,17 -13,9 -19,18 -19,28 0,14 12,28 30,36 64,29 141,45 217,45 78,0 166,-19 230,-64 70,-49 102,-121 102,-209 0,-98 -67,-179 -153,-220 86,-41 139,-113 139,-208 0,-106 -47,-189 -137,-245 -87,-55 -200,-74 -301,-74 -135,0 -295,40 -372,162 -65,103 -62,229 -62,346 0,152 1,424 -211,424 -85,0 -154,-58 -200,-125 -57,-82 -85,-198 -85,-300 0,-165 78,-356 237,-427 19,-9 31,-22 31,-36 0,-9 -6,-19 -18,-28 -17,-12 -39,-17 -62,-17 -19,0 -39,4 -56,12 -191,88 -295,291 -295,496 0,114 33,240 97,333 84,122 208,183 355,183z"/>
 </g>
</svg>
