<?xml version="1.0" encoding="UTF-8"?>
<!DOCTYPE svg PUBLIC "-//W3C//DTD SVG 1.1//EN" "http://www.w3.org/Graphics/SVG/1.1/DTD/svg11.dtd">
<!-- Creator: CorelDRAW X8 -->
<svg xmlns="http://www.w3.org/2000/svg" xml:space="preserve" width="2588px" height="1413px" version="1.1" style="shape-rendering:geometricPrecision; text-rendering:geometricPrecision; image-rendering:optimizeQuality; fill-rule:evenodd; clip-rule:evenodd"
viewBox="0 0 2588 1413"
 xmlns:xlink="http://www.w3.org/1999/xlink">
 <defs>
  <style type="text/css">
   <![CDATA[
    .fil0 {fill:#2B2A29;fill-rule:nonzero}
   ]]>
  </style>
 </defs>
 <g id="Layer_x0020_1">
  <metadata id="CorelCorpID_0Corel-Layer"/>
  <path class="fil0" d="M1314 123c-73,-91 -178,-123 -290,-123 -151,0 -302,77 -355,225 -34,96 -34,207 -34,308 0,142 -5,400 -202,400 -197,0 -270,-250 -270,-410 0,-170 76,-376 247,-439 20,-7 36,-22 36,-39 0,-7 -4,-16 -13,-24 -18,-15 -40,-21 -63,-21 -21,0 -42,5 -61,12 -208,83 -309,296 -309,512 0,267 143,500 433,500 317,0 364,-231 364,-491 0,-97 -1,-199 32,-291 32,-88 100,-151 195,-151 164,0 198,141 198,276l0 611c0,26 36,46 82,46 45,0 81,-20 81,-46l0 -587c0,-185 104,-300 289,-300 95,0 195,35 269,99 -128,16 -246,74 -325,178 -59,78 -90,179 -90,277 0,84 22,165 65,230 67,101 177,149 297,149 118,0 231,-50 299,-163 53,-87 73,-189 73,-290 0,-78 -13,-155 -40,-226 146,105 203,289 203,463 0,246 -130,514 -409,514 -82,0 -170,-23 -235,-75 -17,-13 -42,-19 -66,-19 -17,0 -34,3 -47,8 -20,8 -35,22 -35,38 0,8 5,17 15,25 100,80 231,114 357,114 374,0 583,-254 583,-611 0,-289 -152,-542 -452,-603 -105,-125 -253,-198 -462,-198 -125,0 -268,34 -360,122zm575 810c-62,-1 -111,-40 -144,-90 -36,-54 -54,-124 -54,-198 0,-86 25,-173 77,-242 60,-80 149,-125 249,-125 59,85 82,188 82,291 0,91 -16,184 -64,263 -40,67 -90,101 -146,101z"/>
 </g>
</svg>
