<?xml version="1.0" encoding="UTF-8"?>
<!DOCTYPE svg PUBLIC "-//W3C//DTD SVG 1.1//EN" "http://www.w3.org/Graphics/SVG/1.1/DTD/svg11.dtd">
<!-- Creator: CorelDRAW X8 -->
<svg xmlns="http://www.w3.org/2000/svg" xml:space="preserve" width="2586px" height="1412px" version="1.1" style="shape-rendering:geometricPrecision; text-rendering:geometricPrecision; image-rendering:optimizeQuality; fill-rule:evenodd; clip-rule:evenodd"
viewBox="0 0 2586 1412"
 xmlns:xlink="http://www.w3.org/1999/xlink">
 <defs>
  <style type="text/css">
   <![CDATA[
    .fil0 {fill:#669933;fill-rule:nonzero}
   ]]>
  </style>
 </defs>
 <g id="Layer_x0020_1">
  <metadata id="CorelCorpID_0Corel-Layer"/>
  <path class="fil0" d="M1221 367c0,-128 -30,-270 -185,-276 -101,-4 -175,60 -207,151 -33,92 -33,195 -33,291 0,260 -47,491 -363,491 -290,0 -429,-230 -433,-491 -3,-219 97,-436 309,-520 37,-15 90,-20 123,8 25,21 15,49 -23,63 -174,65 -249,277 -247,449 2,160 79,399 271,399 196,0 201,-257 201,-399 0,-101 1,-212 35,-308 54,-151 194,-228 350,-225 128,3 231,45 293,123 90,-84 222,-123 353,-123 208,1 364,73 468,197 320,65 471,346 451,658 -20,324 -235,547 -559,557 -132,4 -273,-30 -378,-114 -26,-20 -17,-49 20,-63 36,-14 87,-9 113,11 68,54 159,77 245,75 252,-8 383,-234 397,-466 12,-188 -42,-396 -202,-510 29,78 42,154 41,237 -2,99 -24,199 -73,279 -69,114 -183,164 -302,163 -118,-1 -227,-48 -294,-149 -43,-65 -65,-146 -65,-230 0,-98 31,-198 90,-277 78,-104 197,-161 324,-178 -75,-67 -179,-101 -276,-99 -180,3 -282,121 -282,300l0 587c0,25 -36,46 -81,46 -45,0 -81,-21 -81,-46l0 -611zm795 -90c-100,0 -189,46 -249,126 -53,70 -78,156 -78,242 0,74 19,144 55,198 33,50 82,89 144,90 56,0 105,-34 146,-101 43,-72 63,-161 64,-250 2,-108 -21,-214 -82,-305z"/>
 </g>
</svg>
