<?xml version="1.0" encoding="UTF-8"?>
<!DOCTYPE svg PUBLIC "-//W3C//DTD SVG 1.1//EN" "http://www.w3.org/Graphics/SVG/1.1/DTD/svg11.dtd">
<!-- Creator: CorelDRAW X8 -->
<svg xmlns="http://www.w3.org/2000/svg" xml:space="preserve" width="1888px" height="1486px" version="1.1" style="shape-rendering:geometricPrecision; text-rendering:geometricPrecision; image-rendering:optimizeQuality; fill-rule:evenodd; clip-rule:evenodd"
viewBox="0 0 1888 1486"
 xmlns:xlink="http://www.w3.org/1999/xlink">
 <defs>
  <style type="text/css">
   <![CDATA[
    .fil0 {fill:#898778;fill-rule:nonzero}
   ]]>
  </style>
 </defs>
 <g id="Layer_x0020_1">
  <metadata id="CorelCorpID_0Corel-Layer"/>
  <path class="fil0" d="M259 16c30,-20 82,-21 114,-5 31,15 41,43 10,64 -166,110 -228,317 -221,524 8,221 91,414 227,554 146,151 353,242 594,240 213,-2 427,-90 567,-259 104,-125 171,-302 175,-518 3,-159 -43,-330 -158,-445 -45,-46 -100,-79 -162,-80 -215,-1 -218,292 -216,444 5,266 -52,486 -367,489 -150,1 -271,-59 -357,-183 -65,-94 -98,-217 -97,-332 2,-202 97,-398 282,-491 40,-20 93,-28 131,-1 31,22 19,51 -12,65 -160,71 -237,261 -238,427 -1,103 28,216 86,299 47,69 117,126 205,125 198,-3 208,-251 205,-398 -5,-271 39,-539 377,-535 94,2 181,27 255,84 164,126 232,331 229,532 -5,260 -99,468 -243,610 -171,169 -418,258 -662,260 -266,3 -507,-84 -684,-239 -176,-154 -289,-377 -298,-648 -8,-229 67,-457 258,-583z"/>
 </g>
</svg>
