<?xml version="1.0" encoding="UTF-8"?>
<!DOCTYPE svg PUBLIC "-//W3C//DTD SVG 1.1//EN" "http://www.w3.org/Graphics/SVG/1.1/DTD/svg11.dtd">
<!-- Creator: CorelDRAW X8 -->
<svg xmlns="http://www.w3.org/2000/svg" xml:space="preserve" width="1516px" height="1486px" version="1.1" style="shape-rendering:geometricPrecision; text-rendering:geometricPrecision; image-rendering:optimizeQuality; fill-rule:evenodd; clip-rule:evenodd"
viewBox="0 0 1516 1486"
 xmlns:xlink="http://www.w3.org/1999/xlink">
 <defs>
  <style type="text/css">
   <![CDATA[
    .fil0 {fill:#2B2A29;fill-rule:nonzero}
   ]]>
  </style>
 </defs>
 <g id="Layer_x0020_1">
  <metadata id="CorelCorpID_0Corel-Layer"/>
  <path class="fil0" d="M1004 1433c189,-66 325,-208 410,-380 65,-134 99,-287 102,-435 2,-107 -17,-220 -60,-319 -72,-169 -210,-299 -418,-299 -343,0 -379,252 -379,531 0,149 -4,402 -208,404 -87,0 -156,-58 -203,-126 -57,-81 -86,-193 -86,-294 0,-170 73,-359 239,-434 18,-8 30,-21 30,-35 0,-10 -5,-20 -18,-29 -17,-12 -37,-17 -57,-17 -28,0 -58,10 -83,23 -189,98 -273,291 -273,494 0,122 32,232 97,325 84,122 206,182 354,182 326,0 370,-222 370,-493 0,-152 0,-440 213,-440 133,0 218,116 264,227 43,101 56,190 56,300 0,125 -22,263 -70,387 -50,125 -127,237 -240,309 2,-9 3,-18 3,-26 0,-39 -21,-77 -69,-108 -40,-26 -101,-39 -161,-39 -53,0 -114,12 -158,40 -44,-28 -105,-40 -158,-40 -60,0 -120,13 -161,39 -38,25 -68,63 -68,110 0,65 60,130 143,161 70,25 156,35 231,35 117,0 247,-14 358,-53zm-346 -25c-62,0 -137,-5 -193,-30 -38,-17 -65,-46 -65,-88 0,-53 59,-73 103,-73 55,0 85,41 85,96 0,31 47,41 71,41 24,0 71,-10 71,-41 0,-55 30,-96 85,-96 46,0 103,20 103,75 0,41 -27,70 -65,86 -57,26 -133,30 -195,30z"/>
 </g>
</svg>
