<?xml version="1.0" encoding="UTF-8"?>
<!DOCTYPE svg PUBLIC "-//W3C//DTD SVG 1.1//EN" "http://www.w3.org/Graphics/SVG/1.1/DTD/svg11.dtd">
<!-- Creator: CorelDRAW X8 -->
<svg xmlns="http://www.w3.org/2000/svg" xml:space="preserve" width="2262px" height="1024px" version="1.1" style="shape-rendering:geometricPrecision; text-rendering:geometricPrecision; image-rendering:optimizeQuality; fill-rule:evenodd; clip-rule:evenodd"
viewBox="0 0 2262 1024"
 xmlns:xlink="http://www.w3.org/1999/xlink">
 <defs>
  <style type="text/css">
   <![CDATA[
    .fil0 {fill:#2B2A29;fill-rule:nonzero}
   ]]>
  </style>
 </defs>
 <g id="Layer_x0020_1">
  <metadata id="CorelCorpID_0Corel-Layer"/>
  <path class="fil0" d="M1889 1024c118,0 232,-50 300,-163 52,-85 73,-191 73,-290 0,-131 -35,-256 -116,-360 -104,-133 -256,-211 -472,-211 -131,0 -272,39 -361,123 -77,-97 -185,-123 -300,-123 -323,0 -379,241 -379,506 0,152 3,427 -208,427 -86,0 -155,-56 -202,-125 -57,-82 -86,-198 -86,-300 0,-164 81,-357 238,-427 18,-8 31,-22 31,-36 0,-9 -6,-19 -19,-28 -17,-12 -38,-17 -60,-17 -21,0 -41,4 -58,12 -192,88 -294,291 -294,496 0,114 32,240 97,333 84,122 207,183 354,183 337,0 369,-245 369,-518 0,-152 7,-415 217,-415 161,0 209,114 209,276l0 611c0,25 36,46 81,46 45,0 81,-21 81,-46l0 -587c0,-183 103,-301 290,-301 95,0 195,35 268,100 -127,16 -246,74 -324,178 -59,79 -90,179 -90,277 0,84 22,165 65,230 67,102 178,149 296,149zm0 -91c-62,0 -111,-40 -144,-90 -36,-54 -55,-124 -55,-198 0,-86 25,-172 78,-242 60,-80 149,-126 249,-126 59,87 82,189 82,292 0,91 -16,184 -64,263 -41,67 -90,101 -146,101z"/>
 </g>
</svg>
