<?xml version="1.0" encoding="UTF-8"?>
<!DOCTYPE svg PUBLIC "-//W3C//DTD SVG 1.1//EN" "http://www.w3.org/Graphics/SVG/1.1/DTD/svg11.dtd">
<!-- Creator: CorelDRAW X8 -->
<svg xmlns="http://www.w3.org/2000/svg" xml:space="preserve" width="2099px" height="1024px" version="1.1" style="shape-rendering:geometricPrecision; text-rendering:geometricPrecision; image-rendering:optimizeQuality; fill-rule:evenodd; clip-rule:evenodd"
viewBox="0 0 2099 1024"
 xmlns:xlink="http://www.w3.org/1999/xlink">
 <defs>
  <style type="text/css">
   <![CDATA[
    .fil0 {fill:#CC6633;fill-rule:nonzero}
   ]]>
  </style>
 </defs>
 <g id="Layer_x0020_1">
  <metadata id="CorelCorpID_0Corel-Layer"/>
  <path class="fil0" d="M1222 362c0,-127 -34,-265 -186,-271 -101,-4 -175,61 -207,152 -33,91 -32,194 -32,290 -1,260 -48,491 -364,491 -290,0 -429,-229 -433,-491 -3,-219 97,-436 309,-520 18,-7 39,-13 60,-13 23,0 46,6 63,21 10,8 14,17 14,25 0,15 -13,30 -36,38 -175,65 -250,277 -248,449 2,160 79,400 271,400 196,0 201,-258 201,-400 0,-101 1,-212 35,-308 54,-151 194,-228 350,-225 124,3 225,43 288,116 71,-77 180,-116 310,-116 183,0 352,90 431,259 35,75 51,160 51,246 1,206 -84,420 -283,508 -35,15 -86,17 -118,-7 -27,-20 -20,-48 15,-64 161,-68 224,-276 223,-437 0,-68 -11,-137 -35,-200 -46,-118 -153,-214 -284,-214 -162,0 -232,122 -232,271l0 616c0,25 -37,46 -82,46 -45,0 -81,-21 -81,-46l0 -616z"/>
 </g>
</svg>
