<?xml version="1.0" encoding="UTF-8"?>
<!DOCTYPE svg PUBLIC "-//W3C//DTD SVG 1.1//EN" "http://www.w3.org/Graphics/SVG/1.1/DTD/svg11.dtd">
<!-- Creator: CorelDRAW X8 -->
<svg xmlns="http://www.w3.org/2000/svg" xml:space="preserve" width="911px" height="868px" version="1.1" style="shape-rendering:geometricPrecision; text-rendering:geometricPrecision; image-rendering:optimizeQuality; fill-rule:evenodd; clip-rule:evenodd"
viewBox="0 0 911 868"
 xmlns:xlink="http://www.w3.org/1999/xlink">
 <defs>
  <style type="text/css">
   <![CDATA[
    .fil0 {fill:#00A0E3;fill-rule:nonzero}
   ]]>
  </style>
 </defs>
 <g id="Layer_x0020_1">
  <metadata id="CorelCorpID_0Corel-Layer"/>
  <path class="fil0" d="M813 326c0,78 -19,162 -69,225 -44,53 -109,83 -199,83l-366 0c-122,0 -177,42 -179,114 -2,99 96,120 179,120l654 0c27,0 49,-18 49,-40 0,-23 -22,-41 -49,-41l-654 0c-52,0 -79,-13 -80,-49 0,-35 26,-51 80,-51l366 0c121,0 215,-34 277,-102 65,-71 89,-166 89,-259 0,-83 -24,-166 -71,-225 -51,-67 -129,-100 -214,-101 -202,-2 -230,153 -228,310 2,87 -2,235 -124,237 -54,0 -94,-33 -123,-74 -38,-54 -56,-125 -51,-191 6,-92 51,-195 143,-235 19,-8 26,-24 7,-37 -23,-16 -54,-11 -78,0 -107,51 -163,158 -170,270 -5,73 15,153 58,213 50,71 126,107 214,107 194,0 225,-134 222,-290 -1,-87 3,-257 130,-257 45,0 91,26 124,68 42,54 63,128 63,205z"/>
 </g>
</svg>
