<?xml version="1.0" encoding="UTF-8"?>
<!DOCTYPE svg PUBLIC "-//W3C//DTD SVG 1.1//EN" "http://www.w3.org/Graphics/SVG/1.1/DTD/svg11.dtd">
<!-- Creator: CorelDRAW X8 -->
<svg xmlns="http://www.w3.org/2000/svg" xml:space="preserve" width="2612px" height="1412px" version="1.1" style="shape-rendering:geometricPrecision; text-rendering:geometricPrecision; image-rendering:optimizeQuality; fill-rule:evenodd; clip-rule:evenodd"
viewBox="0 0 2612 1412"
 xmlns:xlink="http://www.w3.org/1999/xlink">
 <defs>
  <style type="text/css">
   <![CDATA[
    .fil0 {fill:#2B2A29;fill-rule:nonzero}
   ]]>
  </style>
 </defs>
 <g id="Layer_x0020_1">
  <metadata id="CorelCorpID_0Corel-Layer"/>
  <path class="fil0" d="M1338 123c-77,-97 -185,-123 -300,-123 -323,0 -380,241 -380,506 0,152 3,427 -208,427 -86,0 -154,-56 -202,-125 -56,-82 -86,-198 -86,-300 0,-164 81,-356 238,-427 18,-8 31,-22 31,-36 0,-9 -6,-19 -19,-28 -17,-12 -38,-17 -60,-17 -21,0 -41,4 -58,12 -191,88 -294,291 -294,496 0,114 33,240 97,333 85,122 207,183 354,183 338,0 369,-245 369,-518 0,-152 7,-415 218,-415 160,0 208,122 208,276l0 611c0,25 36,46 82,46 45,0 81,-21 81,-46l0 -587c0,-186 104,-301 289,-301 95,0 195,35 269,100 -128,16 -246,74 -325,178 -59,78 -90,179 -90,277 0,83 22,165 65,229 67,102 177,149 297,149 118,0 231,-50 299,-163 52,-87 73,-189 73,-289 0,-79 -13,-156 -41,-227 147,106 204,289 204,463 0,246 -130,514 -409,514 -82,0 -170,-23 -235,-75 -17,-13 -42,-19 -66,-19 -17,0 -34,3 -47,8 -20,8 -35,22 -35,38 0,8 5,17 15,25 100,80 231,114 357,114 374,0 583,-254 583,-611 0,-289 -152,-542 -453,-603 -104,-125 -252,-198 -461,-198 -125,0 -268,35 -360,123zm575 809c-62,0 -111,-40 -144,-90 -36,-54 -54,-124 -54,-197 0,-86 25,-173 77,-242 60,-80 149,-126 249,-126 59,86 82,189 82,292 0,91 -16,184 -64,262 -41,67 -90,102 -146,101z"/>
 </g>
</svg>
