<?xml version="1.0" encoding="UTF-8"?>
<!DOCTYPE svg PUBLIC "-//W3C//DTD SVG 1.1//EN" "http://www.w3.org/Graphics/SVG/1.1/DTD/svg11.dtd">
<!-- Creator: CorelDRAW X8 -->
<svg xmlns="http://www.w3.org/2000/svg" xml:space="preserve" width="1515px" height="1486px" version="1.1" style="shape-rendering:geometricPrecision; text-rendering:geometricPrecision; image-rendering:optimizeQuality; fill-rule:evenodd; clip-rule:evenodd"
viewBox="0 0 1511 1482"
 xmlns:xlink="http://www.w3.org/1999/xlink">
 <defs>
  <style type="text/css">
   <![CDATA[
    .fil0 {fill:#898778}
   ]]>
  </style>
 </defs>
 <g id="Layer_x0020_1">
  <metadata id="CorelCorpID_0Corel-Layer"/>
  <path class="fil0" d="M661 1221c-76,0 -137,10 -176,25 -43,17 -65,40 -65,63 -1,23 21,46 64,63 40,16 100,26 177,26 62,0 110,-7 148,-18 58,-17 87,-44 87,-71 0,-27 -29,-53 -86,-70 -38,-11 -86,-18 -149,-18zm383 87c123,-80 203,-207 253,-350 37,-106 55,-219 53,-320 -2,-115 -17,-229 -56,-321 -55,-133 -144,-225 -261,-226 -214,-2 -217,291 -214,443 5,267 -51,487 -369,487 -147,0 -269,-60 -353,-181 -72,-103 -104,-239 -96,-363 12,-187 100,-365 271,-455 42,-21 99,-34 140,-5 31,22 18,50 -12,64 -152,68 -227,242 -237,399 -7,110 22,236 85,327 47,68 115,125 202,125 200,-2 210,-249 207,-397 -5,-277 35,-533 376,-535 196,-1 346,121 419,296 47,111 63,228 59,346 -5,129 -34,260 -88,379 -84,185 -225,339 -422,408 -52,18 -109,31 -165,39 -59,9 -118,13 -175,14 -67,1 -148,-8 -213,-25 -118,-32 -177,-90 -177,-148 1,-59 61,-118 182,-149 56,-14 127,-23 208,-23 74,0 135,8 188,20 76,17 194,64 195,151z"/>
 </g>
</svg>
