<?xml version="1.0" encoding="UTF-8"?>
<!DOCTYPE svg PUBLIC "-//W3C//DTD SVG 1.1//EN" "http://www.w3.org/Graphics/SVG/1.1/DTD/svg11.dtd">
<!-- Creator: CorelDRAW X8 -->
<svg xmlns="http://www.w3.org/2000/svg" xml:space="preserve" width="2156px" height="1000px" version="1.1" style="shape-rendering:geometricPrecision; text-rendering:geometricPrecision; image-rendering:optimizeQuality; fill-rule:evenodd; clip-rule:evenodd"
viewBox="0 0 2156 1000"
 xmlns:xlink="http://www.w3.org/1999/xlink">
 <defs>
  <style type="text/css">
   <![CDATA[
    .fil0 {fill:#2B2A29;fill-rule:nonzero}
   ]]>
  </style>
 </defs>
 <g id="Layer_x0020_1">
  <metadata id="CorelCorpID_0Corel-Layer"/>
  <path class="fil0" d="M2075 1000c45,0 81,-20 81,-46l0 -908c0,-26 -36,-46 -81,-46 -45,0 -82,20 -82,46l0 863 -931 0 0 -250 609 0c45,0 81,-20 81,-46l0 -262c0,-236 -206,-351 -417,-351 -209,0 -437,116 -437,351l0 217 -248 0c34,-49 52,-109 52,-173 0,-196 -175,-298 -350,-298 -178,0 -352,102 -352,298 0,115 59,215 164,264 16,8 36,12 56,12 23,0 45,-5 62,-17 12,-9 18,-19 18,-28 0,-14 -12,-28 -30,-36 -74,-33 -107,-118 -107,-195 0,-133 94,-207 187,-207 117,0 189,95 189,207 0,72 -26,148 -91,186 -12,7 -23,18 -23,32 0,26 37,46 82,46l391 0 0 291c0,38 56,50 82,50l1095 0zm-486 -432l-527 0 0 -217c0,-155 121,-260 272,-260 150,0 255,107 255,260l0 217z"/>
 </g>
</svg>
