<?xml version="1.0" encoding="UTF-8"?>
<!DOCTYPE svg PUBLIC "-//W3C//DTD SVG 1.1//EN" "http://www.w3.org/Graphics/SVG/1.1/DTD/svg11.dtd">
<!-- Creator: CorelDRAW X8 -->
<svg xmlns="http://www.w3.org/2000/svg" xml:space="preserve" width="2540px" height="1486px" version="1.1" style="shape-rendering:geometricPrecision; text-rendering:geometricPrecision; image-rendering:optimizeQuality; fill-rule:evenodd; clip-rule:evenodd"
viewBox="0 0 2540 1487"
 xmlns:xlink="http://www.w3.org/1999/xlink">
 <defs>
  <style type="text/css">
   <![CDATA[
    .fil0 {fill:#2B2A29;fill-rule:nonzero}
   ]]>
  </style>
 </defs>
 <g id="Layer_x0020_1">
  <metadata id="CorelCorpID_0Corel-Layer"/>
  <path class="fil0" d="M1429 1487c271,0 541,-22 742,-91 181,-62 369,-188 369,-394l0 -956c0,-26 -37,-46 -82,-46 -45,0 -81,20 -81,46l0 863 -931 0 0 -250 609 0c45,0 81,-20 81,-46l0 -262c0,-236 -206,-351 -417,-351 -209,0 -437,116 -437,351l0 217 -248 0c34,-49 52,-109 52,-173 0,-196 -174,-298 -353,-298 -175,0 -349,103 -349,298 0,115 59,215 164,264 16,8 36,12 56,12 23,0 45,-5 62,-17 12,-9 18,-19 18,-28 0,-14 -12,-28 -31,-36 -74,-33 -106,-118 -106,-195 0,-133 94,-207 187,-207 118,0 188,95 188,207 0,72 -25,148 -90,186 -17,10 -25,21 -25,31 0,25 45,47 83,47l392 0 0 291c0,38 57,50 83,50l1011 0c-6,160 -119,260 -289,318 -174,60 -410,78 -658,78 -371,0 -800,-37 -1069,-326 -123,-133 -197,-303 -197,-493 0,-184 76,-393 227,-504 12,-9 17,-18 17,-27 0,-16 -17,-31 -37,-39 -13,-5 -28,-7 -43,-7 -24,0 -49,6 -66,18 -172,126 -261,350 -261,560 0,218 95,418 250,568 308,297 772,341 1179,341zm544 -919l-527 0 0 -217c0,-155 121,-260 272,-260 150,0 255,107 255,260l0 217z"/>
 </g>
</svg>
