<?xml version="1.0" encoding="UTF-8"?>
<!DOCTYPE svg PUBLIC "-//W3C//DTD SVG 1.1//EN" "http://www.w3.org/Graphics/SVG/1.1/DTD/svg11.dtd">
<!-- Creator: CorelDRAW X8 -->
<svg xmlns="http://www.w3.org/2000/svg" xml:space="preserve" width="1758px" height="1024px" version="1.1" style="shape-rendering:geometricPrecision; text-rendering:geometricPrecision; image-rendering:optimizeQuality; fill-rule:evenodd; clip-rule:evenodd"
viewBox="0 0 1758 1024"
 xmlns:xlink="http://www.w3.org/1999/xlink">
 <defs>
  <style type="text/css">
   <![CDATA[
    .fil0 {fill:#CC6633;fill-rule:nonzero}
   ]]>
  </style>
 </defs>
 <g id="Layer_x0020_1">
  <metadata id="CorelCorpID_0Corel-Layer"/>
  <path class="fil0" d="M0 540c0,-102 21,-195 60,-273 84,-166 250,-269 469,-267 143,1 300,28 392,140 85,-103 232,-136 381,-139 196,-3 429,73 434,306 2,95 -51,178 -133,224 94,39 156,126 155,226 -2,190 -192,267 -357,267 -75,0 -153,-15 -223,-44 -22,-9 -33,-23 -33,-37 0,-9 5,-18 16,-26 16,-12 40,-19 65,-19 17,0 34,3 49,9 39,16 84,26 126,26 108,1 196,-61 194,-176 -1,-68 -43,-130 -109,-157 -69,-29 -153,-20 -226,-21 -44,-1 -80,-22 -79,-47 1,-25 38,-44 83,-44 76,0 160,7 222,-25 58,-29 88,-93 88,-156 -1,-160 -130,-219 -272,-215 -190,6 -297,105 -297,303l0 584c0,25 -36,45 -81,45 -45,0 -81,-20 -81,-45l0 -587c0,-91 -29,-163 -79,-213 -57,-57 -140,-87 -237,-88 -146,-1 -257,89 -316,210 -32,64 -49,136 -50,209 52,-75 130,-116 219,-119 98,-3 191,34 251,98 53,56 81,133 78,221 -2,89 -36,179 -105,236 -58,49 -139,77 -224,78 -83,1 -156,-22 -221,-75 -111,-92 -159,-253 -159,-409zm206 170c-1,148 85,223 174,223 85,0 174,-74 174,-223 1,-148 -86,-222 -174,-222 -87,0 -174,75 -174,222z"/>
 </g>
</svg>
