<?xml version="1.0" encoding="UTF-8"?>
<!DOCTYPE svg PUBLIC "-//W3C//DTD SVG 1.1//EN" "http://www.w3.org/Graphics/SVG/1.1/DTD/svg11.dtd">
<!-- Creator: CorelDRAW X8 -->
<svg xmlns="http://www.w3.org/2000/svg" xml:space="preserve" width="2544px" height="1024px" version="1.1" style="shape-rendering:geometricPrecision; text-rendering:geometricPrecision; image-rendering:optimizeQuality; fill-rule:evenodd; clip-rule:evenodd"
viewBox="0 0 2544 1024"
 xmlns:xlink="http://www.w3.org/1999/xlink">
 <defs>
  <style type="text/css">
   <![CDATA[
    .fil0 {fill:#2B2A29;fill-rule:nonzero}
   ]]>
  </style>
 </defs>
 <g id="Layer_x0020_1">
  <metadata id="CorelCorpID_0Corel-Layer"/>
  <path class="fil0" d="M2187 1024c163,0 357,-78 357,-269 0,-99 -63,-185 -155,-224 81,-45 133,-126 133,-219 0,-228 -226,-311 -420,-311 -141,0 -302,23 -395,141 -96,-118 -253,-139 -395,-139 -71,0 -144,12 -210,33 -110,-26 -228,-36 -341,-36 -108,0 -225,9 -333,39 -118,32 -228,89 -310,184 -76,89 -119,204 -118,346 1,141 46,296 148,380 57,47 130,75 221,75 86,0 166,-28 225,-77 71,-59 105,-154 105,-244 0,-85 -27,-159 -79,-214 -57,-62 -144,-98 -237,-98 -94,0 -178,42 -233,119 1,-86 33,-162 84,-225 61,-76 139,-124 225,-153 95,-33 200,-41 302,-41 64,0 133,4 201,14 -154,101 -213,256 -213,435 0,253 131,484 405,484 177,0 317,-99 317,-287 0,-119 -68,-181 -147,-215 69,-40 120,-107 120,-189 0,-110 -79,-189 -172,-237 13,-1 26,-2 40,-2 185,0 316,99 316,298l0 587c0,25 37,45 82,45 44,0 81,-20 81,-45l0 -584c0,-201 113,-303 311,-303 136,0 257,60 258,215 0,81 -35,128 -88,154 -41,20 -92,27 -145,27l-77 0c-26,0 -83,10 -83,45 0,25 35,46 79,46l81 -1c50,0 100,4 145,22 65,26 109,89 109,159 0,113 -86,174 -191,174 -75,0 -122,-35 -178,-35 -24,0 -48,6 -65,18 -12,9 -16,18 -16,27 0,15 14,29 33,37 70,29 147,44 223,44zm-1033 -91c-176,0 -243,-256 -243,-394 0,-163 55,-314 207,-395 82,32 162,92 162,189 0,45 -19,83 -49,110 -28,25 -65,40 -105,42l-44 2c-47,2 -69,24 -69,45 0,21 25,46 73,45l40 -1c29,-1 80,5 121,33 34,24 62,65 62,131 0,92 -52,193 -155,193zm-777 0c-90,0 -182,-75 -182,-222 0,-149 88,-223 175,-223 87,0 175,74 174,223 0,149 -82,222 -167,222z"/>
 </g>
</svg>
