<?xml version="1.0" encoding="UTF-8"?>
<!DOCTYPE svg PUBLIC "-//W3C//DTD SVG 1.1//EN" "http://www.w3.org/Graphics/SVG/1.1/DTD/svg11.dtd">
<!-- Creator: CorelDRAW X8 -->
<svg xmlns="http://www.w3.org/2000/svg" xml:space="preserve" width="1320px" height="868px" version="1.1" style="shape-rendering:geometricPrecision; text-rendering:geometricPrecision; image-rendering:optimizeQuality; fill-rule:evenodd; clip-rule:evenodd"
viewBox="0 0 1320 868"
 xmlns:xlink="http://www.w3.org/1999/xlink">
 <defs>
  <style type="text/css">
   <![CDATA[
    .fil0 {fill:#CC6633;fill-rule:nonzero}
   ]]>
  </style>
 </defs>
 <g id="Layer_x0020_1">
  <metadata id="CorelCorpID_0Corel-Layer"/>
  <path class="fil0" d="M371 291c-16,-8 -30,-17 -43,-29 -30,-27 -49,-67 -49,-108 1,-41 19,-76 49,-102 42,-37 101,-52 156,-52 54,0 112,14 153,51 48,-39 112,-51 173,-51 90,0 172,25 219,107 27,46 37,101 40,153l17 0c54,0 110,7 155,39 58,42 82,114 79,183 -5,122 -94,221 -192,282 -123,78 -278,105 -422,104 -168,-1 -362,-44 -501,-144 -132,-95 -207,-229 -205,-393 1,-127 48,-250 159,-320 23,-14 67,-14 91,-3 20,9 27,27 6,40 -96,61 -132,174 -133,283 -1,137 56,255 162,342 116,94 275,136 423,137 114,1 240,-26 336,-89 81,-53 149,-139 153,-239 3,-52 -12,-116 -57,-149 -15,-11 -36,-13 -54,-13l-16 0c-2,59 -12,124 -42,175 -48,80 -129,105 -218,105 -64,0 -130,-13 -179,-57 -37,43 -92,57 -147,57 -56,0 -116,-16 -157,-55 -31,-30 -48,-69 -48,-112 1,-42 18,-82 48,-111 13,-13 28,-23 44,-31zm31 -137c-1,30 12,59 34,79 22,20 47,27 77,27l38 0c1,-23 4,-46 8,-69 4,-19 4,-41 -1,-61 -11,-45 -43,-71 -75,-71 -22,0 -45,12 -61,35 -13,18 -20,38 -20,60zm156 242c-5,-25 -7,-51 -8,-76l-37 0c-29,0 -55,9 -76,29 -22,22 -35,53 -35,83 -1,24 5,45 17,65 16,29 39,44 63,44 23,0 46,-15 62,-43 16,-31 20,-68 14,-102zm389 -76l-275 0c2,52 10,113 38,159 22,37 56,62 100,62 44,0 78,-25 100,-63 27,-46 36,-106 37,-158zm-274 -60l273 1c-2,-47 -11,-97 -35,-138 -21,-38 -56,-64 -101,-64 -46,0 -80,26 -102,65 -24,40 -32,90 -35,136z"/>
 </g>
</svg>
