<?xml version="1.0" encoding="UTF-8"?>
<!DOCTYPE svg PUBLIC "-//W3C//DTD SVG 1.1//EN" "http://www.w3.org/Graphics/SVG/1.1/DTD/svg11.dtd">
<!-- Creator: CorelDRAW X8 -->
<svg xmlns="http://www.w3.org/2000/svg" xml:space="preserve" width="1729px" height="1486px" version="1.1" style="shape-rendering:geometricPrecision; text-rendering:geometricPrecision; image-rendering:optimizeQuality; fill-rule:evenodd; clip-rule:evenodd"
viewBox="0 0 1729 1486"
 xmlns:xlink="http://www.w3.org/1999/xlink">
 <defs>
  <style type="text/css">
   <![CDATA[
    .fil0 {fill:#2B2A29;fill-rule:nonzero}
   ]]>
  </style>
 </defs>
 <g id="Layer_x0020_1">
  <metadata id="CorelCorpID_0Corel-Layer"/>
  <path class="fil0" d="M1209 180c-60,-108 -167,-180 -345,-180 -133,0 -226,40 -290,105 -58,-69 -152,-105 -253,-105 -91,0 -180,29 -241,86 -54,49 -80,110 -80,174 0,67 28,136 81,185 21,19 45,37 74,51 -27,14 -52,32 -75,55 -52,51 -80,122 -80,195 0,67 25,134 78,186 61,60 151,92 243,92 109,0 193,-43 241,-119 63,73 160,119 302,119 176,0 282,-71 342,-176 52,-91 67,-205 70,-308l172 0c53,0 88,50 88,97 1,29 -13,62 -36,83 -10,10 -23,17 -37,19 -21,2 -43,-1 -64,-1 -45,0 -80,22 -80,47 1,24 37,45 81,45 21,0 42,-4 63,-4 12,0 25,1 38,6 48,18 73,67 73,116 0,87 -64,141 -150,141l-1128 0c-136,0 -296,31 -296,199 0,164 161,198 296,198l1304 0c45,0 81,-31 81,-69 0,-38 -36,-69 -81,-69l-1304 0c-65,0 -131,-8 -131,-87 0,-56 44,-81 131,-81l1129 0c215,0 304,-123 304,-232 0,-80 -47,-149 -125,-173 53,-23 88,-78 88,-138 0,-47 -14,-88 -47,-122 -45,-46 -118,-66 -197,-66l-173 0c-5,-91 -22,-189 -66,-269zm-757 269l-83 0c-57,0 -106,-12 -149,-51 -37,-34 -57,-84 -57,-134 0,-51 18,-96 56,-131 30,-28 67,-42 101,-42 37,0 74,18 100,44 36,36 52,90 52,141 0,16 -2,33 -5,48 -8,41 -13,82 -15,125zm660 0l-498 0c11,-189 75,-358 250,-358 172,0 240,168 248,358zm-792 484c-33,0 -70,-17 -100,-46 -39,-37 -57,-89 -57,-139 0,-57 18,-112 59,-153 49,-49 110,-55 147,-55l82 0c1,47 5,93 13,137 3,18 5,36 5,54 0,57 -16,114 -54,155 -24,26 -59,47 -95,47zm544 -1c-186,0 -245,-190 -251,-392l501 0c-6,201 -63,392 -250,392z"/>
 </g>
</svg>
