<?xml version="1.0" encoding="UTF-8"?>
<!DOCTYPE svg PUBLIC "-//W3C//DTD SVG 1.1//EN" "http://www.w3.org/Graphics/SVG/1.1/DTD/svg11.dtd">
<!-- Creator: CorelDRAW X8 -->
<svg xmlns="http://www.w3.org/2000/svg" xml:space="preserve" width="2152px" height="1486px" version="1.1" style="shape-rendering:geometricPrecision; text-rendering:geometricPrecision; image-rendering:optimizeQuality; fill-rule:evenodd; clip-rule:evenodd"
viewBox="0 0 2152 1486"
 xmlns:xlink="http://www.w3.org/1999/xlink">
 <defs>
  <style type="text/css">
   <![CDATA[
    .fil0 {fill:#CC6633;fill-rule:nonzero}
   ]]>
  </style>
 </defs>
 <g id="Layer_x0020_1">
  <metadata id="CorelCorpID_0Corel-Layer"/>
  <path class="fil0" d="M614 496c-29,-15 -54,-32 -74,-51 -53,-49 -81,-118 -81,-185 0,-64 26,-125 80,-175 61,-56 150,-85 241,-85 101,0 195,36 253,105 63,-65 157,-105 289,-105 179,0 286,72 346,179 42,76 61,171 66,270l49 0c88,0 170,12 239,63 97,73 134,196 130,314 -8,204 -151,375 -318,484 -188,122 -433,178 -683,176 -302,-3 -607,-90 -817,-245 -203,-151 -337,-375 -334,-675 2,-219 86,-429 270,-550 29,-19 81,-21 115,-5 34,16 38,45 8,64 -157,103 -227,292 -229,491 -3,257 101,452 264,590 188,159 454,238 724,240 193,1 413,-44 580,-157 138,-93 249,-243 257,-413 4,-92 -21,-202 -97,-259 -26,-19 -65,-27 -110,-27l-47 0c-3,112 -21,222 -70,307 -60,106 -166,176 -343,176 -142,0 -238,-45 -301,-118 -48,75 -132,118 -241,118 -92,1 -181,-31 -243,-91 -54,-53 -79,-122 -78,-190 0,-70 28,-140 79,-191 23,-23 49,-41 76,-55zm264 -361c-25,-26 -62,-44 -99,-44 -34,0 -71,14 -102,42 -37,34 -55,80 -56,127 0,51 20,103 58,138 42,39 92,51 148,51l84 0c2,-43 7,-84 15,-124 13,-65 0,-142 -48,-190zm45 542c-8,-44 -12,-90 -13,-137l-82 0c-37,0 -98,6 -148,55 -36,37 -57,91 -59,145 -1,53 17,107 58,147 30,30 67,46 100,45 36,0 71,-20 95,-46 51,-55 61,-138 49,-209zm649 -137l-500 0c3,104 20,205 63,281 38,67 97,111 187,111 91,0 150,-45 188,-112 43,-76 60,-176 62,-280zm-499 -91l498 0c-5,-90 -21,-175 -59,-242 -38,-70 -98,-116 -190,-116 -92,0 -152,47 -190,116 -38,67 -54,152 -59,242z"/>
 </g>
</svg>
