<?xml version="1.0" encoding="UTF-8"?>
<!DOCTYPE svg PUBLIC "-//W3C//DTD SVG 1.1//EN" "http://www.w3.org/Graphics/SVG/1.1/DTD/svg11.dtd">
<!-- Creator: CorelDRAW X8 -->
<svg xmlns="http://www.w3.org/2000/svg" xml:space="preserve" width="1727px" height="1024px" version="1.1" style="shape-rendering:geometricPrecision; text-rendering:geometricPrecision; image-rendering:optimizeQuality; fill-rule:evenodd; clip-rule:evenodd"
viewBox="0 0 1727 1024"
 xmlns:xlink="http://www.w3.org/1999/xlink">
 <defs>
  <style type="text/css">
   <![CDATA[
    .fil0 {fill:#E31E24;fill-rule:nonzero}
   ]]>
  </style>
 </defs>
 <g id="Layer_x0020_1">
  <metadata id="CorelCorpID_0Corel-Layer"/>
  <path class="fil0" d="M1410 1024c88,-1 176,-33 237,-91 49,-47 80,-110 80,-187 0,-100 -43,-172 -107,-219 -72,-54 -172,-78 -272,-78l-73 0c-5,-98 -24,-194 -66,-270 -60,-107 -167,-179 -345,-179 -133,0 -226,40 -290,104 -58,-68 -152,-104 -253,-104 -90,0 -180,29 -241,85 -54,50 -80,111 -80,175 0,67 28,136 81,185 21,20 45,37 74,51 -27,14 -52,32 -75,55 -52,52 -80,122 -80,195 0,68 25,135 78,187 61,60 152,91 243,91 109,0 193,-43 241,-118 63,73 160,118 302,118 176,0 282,-70 342,-176 49,-85 67,-196 70,-308l72 0c81,0 138,31 174,76 31,39 43,84 43,132 0,41 -15,85 -40,119 -27,38 -66,64 -115,65 -28,1 -50,-11 -79,-11 -13,0 -32,3 -49,9 -18,7 -32,19 -32,36 0,19 22,34 42,40 39,12 79,18 118,18zm-958 -575l-83 0c-57,0 -106,-11 -149,-51 -37,-34 -57,-84 -57,-134 0,-51 17,-96 56,-131 30,-28 67,-42 101,-42 37,0 74,18 100,44 36,36 52,90 52,141 0,17 -2,33 -5,49 -8,40 -13,82 -15,124zm660 0l-498 0c10,-186 74,-358 250,-358 174,0 240,171 248,358zm-792 484c-33,0 -70,-16 -100,-45 -39,-38 -57,-89 -57,-140 0,-57 18,-111 59,-152 49,-49 110,-55 147,-55l82 0c1,46 5,93 13,137 3,18 5,36 5,54 0,56 -16,114 -54,155 -24,26 -59,46 -95,46zm544 0c-183,0 -246,-188 -250,-392l500 0c-6,200 -64,392 -250,392z"/>
 </g>
</svg>
