<?xml version="1.0" encoding="UTF-8"?>
<!DOCTYPE svg PUBLIC "-//W3C//DTD SVG 1.1//EN" "http://www.w3.org/Graphics/SVG/1.1/DTD/svg11.dtd">
<!-- Creator: CorelDRAW X8 -->
<svg xmlns="http://www.w3.org/2000/svg" xml:space="preserve" width="1728px" height="1024px" version="1.1" style="shape-rendering:geometricPrecision; text-rendering:geometricPrecision; image-rendering:optimizeQuality; fill-rule:evenodd; clip-rule:evenodd"
viewBox="0 0 1728 1024"
 xmlns:xlink="http://www.w3.org/1999/xlink">
 <defs>
  <style type="text/css">
   <![CDATA[
    .fil0 {fill:#2B2A29;fill-rule:nonzero}
   ]]>
  </style>
 </defs>
 <g id="Layer_x0020_1">
  <metadata id="CorelCorpID_0Corel-Layer"/>
  <path class="fil0" d="M1209 179c-60,-107 -167,-179 -346,-179 -133,0 -226,40 -289,104 -58,-68 -152,-104 -253,-104 -91,0 -180,29 -242,86 -53,49 -79,110 -79,174 0,71 29,137 81,186 20,19 45,36 73,50 -26,14 -52,32 -75,55 -53,53 -79,121 -79,195 0,67 25,134 78,185 62,60 151,93 242,92 109,0 194,-43 242,-118 63,72 159,118 301,118 177,0 283,-70 343,-176 52,-91 67,-204 70,-307l189 0c47,0 75,31 75,76 0,16 -4,30 -12,42 -9,12 -23,22 -40,25 -20,3 -43,0 -64,0 -30,0 -79,11 -79,44 0,37 55,45 83,45 19,0 40,-4 60,-4 15,0 29,2 40,7 28,12 42,37 42,67 0,62 -53,91 -109,91 -52,0 -69,-30 -121,-30 -12,0 -35,3 -54,11 -15,7 -28,17 -28,31 0,30 66,57 95,65 35,9 73,14 109,14 113,0 266,-48 266,-184 0,-65 -52,-104 -97,-120 35,-19 71,-52 71,-109 0,-128 -134,-161 -238,-161l-189 0c-4,-92 -21,-191 -66,-271zm-97 270l-498 0c10,-186 74,-358 249,-358 182,0 241,184 249,358zm-660 0l-84 0c-57,0 -105,-10 -148,-51 -38,-35 -59,-86 -58,-138 0,-46 19,-93 56,-127 30,-28 68,-42 102,-42 37,0 74,18 99,44 37,37 52,88 52,139 0,18 -2,35 -5,51 -8,40 -12,82 -14,124zm411 483c-189,0 -244,-201 -250,-392l500 0c-4,184 -56,392 -250,392zm-543 0c-33,0 -70,-16 -100,-45 -40,-39 -58,-91 -58,-143 0,-53 21,-111 59,-149 50,-49 111,-55 148,-55l82 0c1,47 5,93 13,137 3,18 5,36 5,54 0,56 -16,114 -54,155 -24,26 -59,46 -95,46z"/>
 </g>
</svg>
