<?xml version="1.0" encoding="UTF-8"?>
<!DOCTYPE svg PUBLIC "-//W3C//DTD SVG 1.1//EN" "http://www.w3.org/Graphics/SVG/1.1/DTD/svg11.dtd">
<!-- Creator: CorelDRAW X8 -->
<svg xmlns="http://www.w3.org/2000/svg" xml:space="preserve" width="1742px" height="1486px" version="1.1" style="shape-rendering:geometricPrecision; text-rendering:geometricPrecision; image-rendering:optimizeQuality; fill-rule:evenodd; clip-rule:evenodd"
viewBox="0 0 1742 1486"
 xmlns:xlink="http://www.w3.org/1999/xlink">
 <defs>
  <style type="text/css">
   <![CDATA[
    .fil0 {fill:#2B2A29;fill-rule:nonzero}
   ]]>
  </style>
 </defs>
 <g id="Layer_x0020_1">
  <metadata id="CorelCorpID_0Corel-Layer"/>
  <path class="fil0" d="M863 1486c78,0 150,-5 221,-16 71,-11 141,-29 214,-55 240,-84 444,-273 444,-543 0,-60 -11,-118 -32,-171 -59,-146 -198,-252 -396,-252l-39 0c-5,-98 -24,-193 -66,-270 -60,-107 -167,-179 -346,-179 -132,0 -226,40 -289,105 -58,-69 -152,-105 -253,-105 -91,0 -180,29 -241,85 -54,50 -80,111 -80,175 0,67 28,136 81,185 20,20 45,37 74,51 -27,14 -53,32 -76,55 -52,52 -79,121 -79,195 0,67 25,134 78,186 62,60 151,92 243,92 109,-1 193,-43 241,-118 63,72 159,118 301,118 177,0 283,-71 343,-176 49,-86 67,-196 70,-308l38 0c111,0 195,76 238,181 20,51 27,101 27,155 0,231 -133,385 -341,466 8,-18 13,-36 13,-54 0,-39 -21,-77 -69,-108 -40,-26 -101,-39 -161,-39 -53,0 -114,12 -158,40 -44,-28 -105,-40 -158,-40 -60,0 -120,13 -161,39 -38,24 -68,63 -68,110 0,65 60,130 143,161 77,27 164,35 244,35zm-411 -1037l-84 0c-56,0 -106,-11 -148,-51 -38,-35 -58,-86 -58,-138 1,-46 19,-93 56,-127 31,-28 68,-42 102,-42 37,0 74,18 99,44 36,36 53,90 53,142 0,16 -2,32 -5,48 -8,40 -13,82 -15,124zm660 0l-498 0c11,-187 74,-358 249,-358 176,0 241,172 249,358zm-792 484c-33,0 -70,-16 -100,-46 -40,-38 -58,-90 -58,-143 0,-52 22,-111 59,-148 50,-50 111,-56 148,-56l82 0c1,47 5,93 13,138 3,18 5,36 5,54 0,56 -16,113 -54,154 -24,26 -59,47 -95,47zm543 -1c-185,0 -244,-191 -250,-392l500 1c-4,195 -62,391 -250,391zm-1 476c-62,0 -137,-5 -193,-30 -38,-17 -65,-46 -65,-88 0,-52 57,-73 101,-73 58,0 87,41 87,96 0,31 47,41 71,41 24,0 71,-10 71,-41 0,-55 30,-96 85,-96 46,0 103,20 103,75 0,41 -27,70 -65,86 -57,26 -133,30 -195,30z"/>
 </g>
</svg>
