<?xml version="1.0" encoding="UTF-8"?>
<!DOCTYPE svg PUBLIC "-//W3C//DTD SVG 1.1//EN" "http://www.w3.org/Graphics/SVG/1.1/DTD/svg11.dtd">
<!-- Creator: CorelDRAW X8 -->
<svg xmlns="http://www.w3.org/2000/svg" xml:space="preserve" width="1742px" height="1486px" version="1.1" style="shape-rendering:geometricPrecision; text-rendering:geometricPrecision; image-rendering:optimizeQuality; fill-rule:evenodd; clip-rule:evenodd"
viewBox="0 0 1742 1486"
 xmlns:xlink="http://www.w3.org/1999/xlink">
 <defs>
  <style type="text/css">
   <![CDATA[
    .fil0 {fill:#2B2A29;fill-rule:nonzero}
   ]]>
  </style>
 </defs>
 <g id="Layer_x0020_1">
  <metadata id="CorelCorpID_0Corel-Layer"/>
  <path class="fil0" d="M863 932c-185,0 -244,-191 -250,-392l500 0c-4,198 -62,392 -250,392zm-543 1c-33,0 -70,-17 -100,-46 -40,-39 -58,-91 -58,-143 0,-53 21,-112 59,-149 49,-50 111,-55 148,-55l82 0c1,47 5,93 13,137 3,18 5,36 5,54 0,57 -16,114 -54,155 -24,26 -59,47 -95,47zm792 -484l-498 0c10,-176 68,-358 249,-358 173,0 241,168 249,358zm-660 0l-84 0c-56,0 -106,-12 -148,-51 -38,-35 -59,-86 -58,-138 0,-47 19,-93 56,-127 31,-28 68,-42 102,-42 37,0 74,18 99,44 36,36 53,90 53,142 0,16 -2,32 -5,48 -8,40 -13,81 -15,124zm414 1037c95,0 182,-7 269,-25 54,-11 108,-26 163,-46 245,-86 444,-274 444,-548 0,-58 -11,-115 -32,-166 -58,-146 -198,-252 -396,-252l-39 0c-5,-98 -23,-193 -66,-270 -59,-107 -167,-179 -346,-179 -132,0 -226,40 -289,104 -58,-68 -152,-104 -253,-104 -91,0 -180,28 -241,85 -54,50 -80,111 -80,175 0,67 28,136 81,185 20,19 45,37 74,51 -27,14 -53,32 -76,55 -52,52 -79,121 -79,195 0,67 25,134 78,186 62,60 151,92 243,92 109,0 193,-43 241,-119 63,73 159,119 301,119 177,0 283,-71 343,-176 49,-86 67,-196 70,-308l38 0c111,0 196,76 238,181 20,49 27,102 27,155 0,225 -128,379 -332,462 3,-8 4,-16 4,-25 0,-88 -119,-135 -196,-153 -53,-12 -114,-19 -189,-19 -81,0 -152,8 -208,23 -121,31 -182,90 -182,149 0,58 59,116 177,148 68,19 141,25 213,25zm0 -84c-165,0 -242,-45 -242,-89 0,-45 86,-88 242,-88 155,0 237,46 237,88 0,42 -74,89 -237,89z"/>
 </g>
</svg>
