<?xml version="1.0" encoding="UTF-8"?>
<!DOCTYPE svg PUBLIC "-//W3C//DTD SVG 1.1//EN" "http://www.w3.org/Graphics/SVG/1.1/DTD/svg11.dtd">
<!-- Creator: CorelDRAW X8 -->
<svg xmlns="http://www.w3.org/2000/svg" xml:space="preserve" width="1742px" height="1486px" version="1.1" style="shape-rendering:geometricPrecision; text-rendering:geometricPrecision; image-rendering:optimizeQuality; fill-rule:evenodd; clip-rule:evenodd"
viewBox="0 0 1742 1486"
 xmlns:xlink="http://www.w3.org/1999/xlink">
 <defs>
  <style type="text/css">
   <![CDATA[
    .fil0 {fill:#2B2A29;fill-rule:nonzero}
   ]]>
  </style>
 </defs>
 <g id="Layer_x0020_1">
  <metadata id="CorelCorpID_0Corel-Layer"/>
  <path class="fil0" d="M866 1486c95,0 182,-7 269,-25 54,-11 108,-26 163,-46 245,-86 444,-274 444,-548 0,-58 -12,-115 -32,-166 -59,-146 -198,-252 -396,-252l-39 0c-5,-98 -24,-193 -66,-270 -60,-107 -167,-179 -346,-179 -132,0 -226,40 -289,104 -58,-68 -152,-104 -253,-104 -91,0 -180,29 -241,85 -54,50 -80,111 -80,175 0,67 28,136 81,185 20,19 45,37 74,51 -27,14 -53,32 -76,55 -52,52 -79,121 -79,195 0,67 25,134 78,186 62,60 151,92 243,92 109,-1 193,-43 241,-119 63,73 159,119 301,119 177,0 283,-71 343,-176 49,-86 67,-196 70,-308l38 0c111,0 195,76 238,181 19,49 27,102 27,155 0,225 -128,379 -332,462 3,-8 4,-16 4,-25 0,-88 -119,-135 -196,-153 -53,-12 -114,-19 -189,-19 -81,0 -152,8 -208,23 -121,31 -182,90 -182,149 0,58 59,117 177,148 68,19 141,25 213,25zm-414 -1037l-84 0c-56,0 -106,-12 -148,-51 -38,-35 -58,-86 -58,-138 1,-47 19,-93 56,-127 31,-28 68,-42 102,-42 37,0 74,18 99,44 36,36 53,90 53,142 0,16 -2,32 -5,48 -8,40 -13,81 -15,124zm660 0l-498 0c10,-176 68,-358 249,-358 173,0 241,168 249,358zm-792 484c-33,0 -70,-16 -100,-46 -40,-38 -58,-91 -58,-143 0,-53 22,-111 59,-149 50,-49 111,-55 148,-55l82 0c1,47 5,93 13,137 3,18 5,36 5,54 0,57 -16,114 -54,155 -24,26 -59,47 -95,47zm543 -1c-185,0 -244,-191 -250,-392l500 0c-4,198 -62,392 -250,392zm3 470c-76,0 -137,-10 -177,-26 -42,-17 -64,-39 -64,-61 0,-34 38,-54 65,-65 40,-15 100,-25 176,-25 64,0 112,7 150,18 58,17 86,43 86,70 0,39 -56,62 -87,71 -38,11 -86,18 -149,18z"/>
 </g>
</svg>
