<?xml version="1.0" encoding="UTF-8"?>
<!DOCTYPE svg PUBLIC "-//W3C//DTD SVG 1.1//EN" "http://www.w3.org/Graphics/SVG/1.1/DTD/svg11.dtd">
<!-- Creator: CorelDRAW X8 -->
<svg xmlns="http://www.w3.org/2000/svg" xml:space="preserve" width="911px" height="586px" version="1.1" style="shape-rendering:geometricPrecision; text-rendering:geometricPrecision; image-rendering:optimizeQuality; fill-rule:evenodd; clip-rule:evenodd"
viewBox="0 0 911 586"
 xmlns:xlink="http://www.w3.org/1999/xlink">
 <defs>
  <style type="text/css">
   <![CDATA[
    .fil0 {fill:#2B2A29;fill-rule:nonzero}
   ]]>
  </style>
 </defs>
 <g id="Layer_x0020_1">
  <metadata id="CorelCorpID_0Corel-Layer"/>
  <path class="fil0" d="M850 586c17,0 61,-6 61,-29l0 -528c0,-23 -44,-29 -61,-29 -17,0 -62,6 -62,29l0 498 -293 0c52,-40 83,-100 83,-166 0,-125 -112,-178 -223,-178 -92,0 -221,45 -221,155 0,61 44,120 108,120 13,0 27,-2 38,-6 12,-5 23,-14 23,-24 0,-5 -3,-10 -9,-15 -24,-19 -38,-46 -38,-75 0,-51 49,-96 100,-96 63,0 100,59 100,117 0,84 -65,168 -153,168l-242 0c-17,0 -61,6 -61,30 0,23 44,29 61,29l789 0z"/>
 </g>
</svg>
