<?xml version="1.0" encoding="UTF-8"?>
<!DOCTYPE svg PUBLIC "-//W3C//DTD SVG 1.1//EN" "http://www.w3.org/Graphics/SVG/1.1/DTD/svg11.dtd">
<!-- Creator: CorelDRAW X8 -->
<svg xmlns="http://www.w3.org/2000/svg" xml:space="preserve" width="1648px" height="1000px" version="1.1" style="shape-rendering:geometricPrecision; text-rendering:geometricPrecision; image-rendering:optimizeQuality; fill-rule:evenodd; clip-rule:evenodd"
viewBox="0 0 1648 1000"
 xmlns:xlink="http://www.w3.org/1999/xlink">
 <defs>
  <style type="text/css">
   <![CDATA[
    .fil0 {fill:#898778;fill-rule:nonzero}
   ]]>
  </style>
 </defs>
 <g id="Layer_x0020_1">
  <metadata id="CorelCorpID_0Corel-Layer"/>
  <path class="fil0" d="M88 1000c-23,0 -81,-10 -81,-45 0,-26 36,-46 81,-46l463 0c297,0 543,-115 543,-454 0,-82 -22,-188 -82,-267 -41,-54 -103,-96 -173,-97 -100,0 -152,94 -152,183l0 435c0,36 -54,47 -81,47 -27,0 -82,-11 -82,-47l0 -434c0,-89 -52,-185 -152,-184 -69,2 -132,51 -167,108 -39,65 -48,154 -40,229 11,96 58,206 153,247 31,14 45,42 14,64 -29,21 -81,22 -114,8 -131,-58 -200,-176 -215,-314 -9,-87 3,-187 48,-263 66,-110 191,-167 317,-169 93,-2 178,26 238,80 58,-54 143,-81 234,-80 125,0 245,50 322,151 69,92 95,212 95,303 0,227 -107,372 -265,454l493 0 0 -863c0,-26 36,-46 81,-46 46,0 82,20 82,46l0 909c0,25 -37,45 -82,45l-1478 0z"/>
 </g>
</svg>
