<?xml version="1.0" encoding="UTF-8"?>
<!DOCTYPE svg PUBLIC "-//W3C//DTD SVG 1.1//EN" "http://www.w3.org/Graphics/SVG/1.1/DTD/svg11.dtd">
<!-- Creator: CorelDRAW X8 -->
<svg xmlns="http://www.w3.org/2000/svg" xml:space="preserve" width="1648px" height="1000px" version="1.1" style="shape-rendering:geometricPrecision; text-rendering:geometricPrecision; image-rendering:optimizeQuality; fill-rule:evenodd; clip-rule:evenodd"
viewBox="0 0 1648 1000"
 xmlns:xlink="http://www.w3.org/1999/xlink">
 <defs>
  <style type="text/css">
   <![CDATA[
    .fil0 {fill:#2B2A29;fill-rule:nonzero}
   ]]>
  </style>
 </defs>
 <g id="Layer_x0020_1">
  <metadata id="CorelCorpID_0Corel-Layer"/>
  <path class="fil0" d="M1566 1000c45,0 82,-20 82,-46l0 -908c0,-26 -37,-46 -82,-46 -45,0 -81,20 -81,46l0 863 -493 0c158,-83 265,-227 265,-454 0,-91 -26,-211 -95,-303 -77,-101 -198,-151 -323,-151 -84,0 -170,21 -233,80 -57,-52 -141,-80 -231,-80 -129,0 -256,55 -324,169 -36,61 -51,136 -51,209 0,157 70,302 219,368 14,6 32,9 50,9 23,0 47,-5 63,-17 12,-9 17,-18 17,-28 0,-14 -12,-28 -31,-36 -111,-49 -155,-186 -155,-299 0,-62 13,-127 42,-177 35,-57 101,-108 170,-108 98,0 149,95 149,183l0 435c0,36 55,47 82,47 27,0 81,-11 81,-47l0 -435c0,-89 52,-183 152,-183 69,1 132,43 173,97 60,79 82,185 82,267 0,339 -246,454 -543,454l-463 0c-45,0 -81,20 -81,45 0,36 58,46 81,46l1478 0z"/>
 </g>
</svg>
