<?xml version="1.0" encoding="UTF-8"?>
<!DOCTYPE svg PUBLIC "-//W3C//DTD SVG 1.1//EN" "http://www.w3.org/Graphics/SVG/1.1/DTD/svg11.dtd">
<!-- Creator: CorelDRAW X8 -->
<svg xmlns="http://www.w3.org/2000/svg" xml:space="preserve" width="1477px" height="1420px" version="1.1" style="shape-rendering:geometricPrecision; text-rendering:geometricPrecision; image-rendering:optimizeQuality; fill-rule:evenodd; clip-rule:evenodd"
viewBox="0 0 1477 1420"
 xmlns:xlink="http://www.w3.org/1999/xlink">
 <defs>
  <style type="text/css">
   <![CDATA[
    .fil0 {fill:#898778;fill-rule:nonzero}
   ]]>
  </style>
 </defs>
 <g id="Layer_x0020_1">
  <metadata id="CorelCorpID_0Corel-Layer"/>
  <path class="fil0" d="M81 1000c-22,0 -81,-10 -81,-46 0,-25 36,-45 81,-45l403 0c158,0 274,-136 277,-289 2,-115 -69,-214 -190,-214 -95,1 -185,74 -186,171 0,50 24,97 65,131 29,25 7,52 -22,63 -40,15 -89,10 -121,-19 -53,-47 -85,-109 -84,-175 2,-174 191,-260 343,-262 187,-1 357,99 357,302 0,115 -56,223 -148,292l539 0 0 -863c0,-26 36,-46 82,-46 45,0 81,20 81,46l0 1328c0,25 -37,46 -82,46l-981 0c-23,0 -82,-10 -82,-46 0,-25 36,-45 82,-45l94 0c170,0 299,-168 275,-329l-702 0zm1233 0l-369 0c14,125 -45,253 -146,329l515 0 0 -329z"/>
 </g>
</svg>
