<?xml version="1.0" encoding="UTF-8"?>
<!DOCTYPE svg PUBLIC "-//W3C//DTD SVG 1.1//EN" "http://www.w3.org/Graphics/SVG/1.1/DTD/svg11.dtd">
<!-- Creator: CorelDRAW X8 -->
<svg xmlns="http://www.w3.org/2000/svg" xml:space="preserve" width="2232px" height="1024px" version="1.1" style="shape-rendering:geometricPrecision; text-rendering:geometricPrecision; image-rendering:optimizeQuality; fill-rule:evenodd; clip-rule:evenodd"
viewBox="0 0 2232 1024"
 xmlns:xlink="http://www.w3.org/1999/xlink">
 <defs>
  <style type="text/css">
   <![CDATA[
    .fil0 {fill:#2B2A29;fill-rule:nonzero}
   ]]>
  </style>
 </defs>
 <g id="Layer_x0020_1">
  <metadata id="CorelCorpID_0Corel-Layer"/>
  <path class="fil0" d="M1862 1024c118,0 229,-50 297,-163 51,-84 73,-195 73,-292 0,-99 -17,-185 -59,-268 -103,-207 -300,-301 -527,-301 -211,0 -408,73 -521,260 -54,90 -83,193 -83,296 1,133 51,256 142,352l-409 0c92,-69 148,-175 148,-291 0,-201 -167,-301 -352,-301 -154,0 -350,86 -349,264 0,83 67,200 161,200 15,0 30,-3 44,-8 20,-7 37,-22 37,-39 0,-8 -4,-16 -14,-24 -41,-34 -65,-79 -65,-129 0,-100 91,-173 188,-173 118,0 188,97 188,209 0,155 -117,292 -277,292l-402 0c-45,0 -82,21 -82,46 0,35 59,46 82,46l1253 0c26,0 81,-12 82,-46 0,-11 -7,-21 -19,-29 -127,-85 -193,-223 -193,-371 0,-93 26,-185 74,-265 83,-137 209,-198 367,-198 102,0 188,29 266,99 -127,16 -245,73 -324,177 -59,79 -91,179 -91,278 0,84 22,165 65,230 68,102 180,149 300,149zm-4 -92c-61,0 -110,-39 -144,-89 -36,-54 -54,-124 -54,-198 0,-87 25,-173 77,-243 60,-79 150,-126 250,-126 59,87 82,190 82,293 0,90 -17,184 -64,262 -33,55 -79,101 -147,101z"/>
 </g>
</svg>
