<?xml version="1.0" encoding="UTF-8"?>
<!DOCTYPE svg PUBLIC "-//W3C//DTD SVG 1.1//EN" "http://www.w3.org/Graphics/SVG/1.1/DTD/svg11.dtd">
<!-- Creator: CorelDRAW X8 -->
<svg xmlns="http://www.w3.org/2000/svg" xml:space="preserve" width="2232px" height="1024px" version="1.1" style="shape-rendering:geometricPrecision; text-rendering:geometricPrecision; image-rendering:optimizeQuality; fill-rule:evenodd; clip-rule:evenodd"
viewBox="0 0 2232 1024"
 xmlns:xlink="http://www.w3.org/1999/xlink">
 <defs>
  <style type="text/css">
   <![CDATA[
    .fil0 {fill:#009846;fill-rule:nonzero}
   ]]>
  </style>
 </defs>
 <g id="Layer_x0020_1">
  <metadata id="CorelCorpID_0Corel-Layer"/>
  <path class="fil0" d="M1987 276c-100,0 -190,47 -250,126 -52,70 -77,156 -77,243 0,74 18,144 54,198 34,50 83,89 144,89 57,1 106,-33 147,-101 43,-71 63,-161 64,-249 2,-108 -21,-215 -82,-306zm-803 632c-91,-96 -141,-219 -142,-352 0,-103 29,-206 83,-296 113,-186 305,-259 514,-260 229,-1 429,93 534,301 42,85 60,179 59,281 -2,98 -24,198 -73,279 -69,114 -181,164 -301,163 -118,-1 -229,-48 -296,-149 -43,-65 -65,-146 -65,-230 0,-99 31,-199 91,-278 78,-104 197,-161 324,-177 -79,-71 -167,-100 -271,-99 -156,2 -279,61 -362,198 -48,80 -74,172 -74,265 0,148 66,286 193,371 12,8 19,18 19,29 -1,34 -56,46 -82,46l-1253 0c-23,0 -82,-11 -82,-46 0,-25 37,-46 82,-46l402 0c159,0 274,-134 277,-287 2,-115 -69,-215 -190,-214 -96,0 -185,75 -186,173 0,50 24,95 65,129 29,24 7,52 -23,63 -40,15 -88,9 -120,-20 -53,-46 -84,-107 -85,-172 0,-175 191,-263 344,-264 187,-2 357,98 357,301 0,116 -56,222 -148,291l409 0z"/>
 </g>
</svg>
