<?xml version="1.0" encoding="UTF-8"?>
<!DOCTYPE svg PUBLIC "-//W3C//DTD SVG 1.1//EN" "http://www.w3.org/Graphics/SVG/1.1/DTD/svg11.dtd">
<!-- Creator: CorelDRAW X8 -->
<svg xmlns="http://www.w3.org/2000/svg" xml:space="preserve" width="2981px" height="1486px" version="1.1" style="shape-rendering:geometricPrecision; text-rendering:geometricPrecision; image-rendering:optimizeQuality; fill-rule:evenodd; clip-rule:evenodd"
viewBox="0 0 2981 1487"
 xmlns:xlink="http://www.w3.org/1999/xlink">
 <defs>
  <style type="text/css">
   <![CDATA[
    .fil0 {fill:#898778;fill-rule:nonzero}
   ]]>
  </style>
 </defs>
 <g id="Layer_x0020_1">
  <metadata id="CorelCorpID_0Corel-Layer"/>
  <path class="fil0" d="M2412 276c-100,0 -190,47 -250,126 -52,70 -77,156 -77,243 0,74 18,144 54,198 34,50 83,89 145,89 56,1 105,-33 146,-101 43,-71 63,-161 64,-249 2,-108 -21,-215 -82,-306zm-2126 -260c33,-20 81,-20 115,-3 32,16 37,45 5,65 -173,105 -244,308 -243,503 0,217 75,382 206,505 94,89 218,156 363,204 269,90 589,107 834,106 243,-2 541,-17 771,-93 148,-49 279,-124 366,-233 78,-97 122,-220 115,-374 -7,-148 -80,-300 -212,-377 36,80 52,168 51,263 -1,98 -24,198 -73,279 -69,114 -181,164 -300,163 -119,-1 -230,-49 -297,-149 -43,-65 -65,-147 -65,-230 0,-99 31,-199 91,-278 78,-104 197,-161 324,-177 -79,-71 -167,-100 -271,-99 -164,2 -291,80 -364,199 -47,75 -72,165 -72,264 0,148 66,287 193,371 22,15 26,37 6,54 -18,16 -48,21 -69,21l-1254 0c-23,0 -81,-10 -81,-45 0,-25 36,-46 81,-46l403 0c158,0 274,-135 277,-288 2,-115 -69,-215 -190,-215 -96,1 -183,73 -186,171 -1,51 23,97 65,132 29,24 7,52 -23,63 -40,15 -88,9 -120,-20 -54,-47 -86,-109 -85,-175 3,-174 192,-260 344,-261 187,-2 357,98 357,301 0,115 -56,223 -148,292l409 0c-91,-96 -141,-221 -142,-353 -1,-130 37,-242 103,-330 108,-143 288,-225 494,-226 182,-1 346,58 458,187 98,14 188,52 258,108 124,99 193,241 200,399 8,168 -41,305 -129,414 -102,126 -256,216 -432,274 -258,85 -581,103 -853,105 -267,1 -615,-18 -918,-119 -142,-47 -267,-110 -369,-192 -173,-138 -278,-331 -279,-595 -1,-226 88,-444 286,-565z"/>
 </g>
</svg>
