<?xml version="1.0" encoding="UTF-8"?>
<!DOCTYPE svg PUBLIC "-//W3C//DTD SVG 1.1//EN" "http://www.w3.org/Graphics/SVG/1.1/DTD/svg11.dtd">
<!-- Creator: CorelDRAW X8 -->
<svg xmlns="http://www.w3.org/2000/svg" xml:space="preserve" width="1565px" height="868px" version="1.1" style="shape-rendering:geometricPrecision; text-rendering:geometricPrecision; image-rendering:optimizeQuality; fill-rule:evenodd; clip-rule:evenodd"
viewBox="0 0 1565 868"
 xmlns:xlink="http://www.w3.org/1999/xlink">
 <defs>
  <style type="text/css">
   <![CDATA[
    .fil0 {fill:#009846;fill-rule:nonzero}
   ]]>
  </style>
 </defs>
 <g id="Layer_x0020_1">
  <metadata id="CorelCorpID_0Corel-Layer"/>
  <path class="fil0" d="M1206 167c-62,4 -106,36 -134,79 -24,37 -36,82 -38,126 -2,40 5,80 20,110 18,35 46,59 84,59 39,0 67,-28 85,-64 21,-43 30,-100 30,-137 1,-61 -13,-122 -47,-173zm87 -58c91,14 172,56 224,135 33,51 49,110 48,171 -1,55 -18,110 -50,155 -63,91 -167,120 -273,120l-1052 0c-32,0 -67,7 -66,47 1,40 34,45 66,45l1284 0c26,0 62,12 62,43 0,31 -36,43 -62,43l-1284 0c-45,0 -94,-5 -131,-24 -36,-18 -60,-48 -59,-97 1,-37 16,-66 47,-85 31,-20 78,-30 143,-30l1052 0c66,0 121,-29 159,-83 27,-40 41,-88 42,-135 1,-76 -29,-152 -87,-202 13,38 20,81 20,128 -1,56 -14,115 -44,163 -43,68 -114,98 -193,97 -74,-1 -146,-26 -190,-89 -27,-39 -39,-87 -39,-134 0,-58 19,-116 54,-162 47,-60 118,-93 193,-104 -44,-36 -92,-53 -148,-52 -83,1 -150,38 -194,94 -35,47 -55,107 -55,171 0,44 10,86 30,123 19,36 48,67 85,91 7,5 12,12 12,18 0,23 -45,30 -62,30l-764 0c-17,0 -61,-6 -61,-30 0,-24 44,-29 61,-29l242 0c87,0 154,-84 153,-168 0,-57 -38,-118 -100,-117 -51,0 -100,44 -100,96 0,28 14,55 38,75 19,15 5,31 -13,38 -16,7 -38,9 -56,6 -55,-10 -91,-65 -91,-119 0,-110 129,-155 221,-155 112,0 225,54 223,180 0,65 -33,125 -83,164l224 0c-26,-28 -46,-58 -60,-91 -14,-35 -22,-72 -22,-110 0,-82 32,-163 88,-222 72,-76 174,-103 282,-104 118,-1 220,38 286,109z"/>
 </g>
</svg>
