<?xml version="1.0" encoding="UTF-8"?>
<!DOCTYPE svg PUBLIC "-//W3C//DTD SVG 1.1//EN" "http://www.w3.org/Graphics/SVG/1.1/DTD/svg11.dtd">
<!-- Creator: CorelDRAW X8 -->
<svg xmlns="http://www.w3.org/2000/svg" xml:space="preserve" width="2665px" height="1486px" version="1.1" style="shape-rendering:geometricPrecision; text-rendering:geometricPrecision; image-rendering:optimizeQuality; fill-rule:evenodd; clip-rule:evenodd"
viewBox="0 0 2665 1486"
 xmlns:xlink="http://www.w3.org/1999/xlink">
 <defs>
  <style type="text/css">
   <![CDATA[
    .fil0 {fill:#009846;fill-rule:nonzero}
   ]]>
  </style>
 </defs>
 <g id="Layer_x0020_1">
  <metadata id="CorelCorpID_0Corel-Layer"/>
  <path class="fil0" d="M1185 909c-91,-97 -141,-221 -142,-353 0,-104 29,-206 83,-296 113,-186 304,-259 514,-260 166,-1 320,46 440,170 87,-6 171,2 256,23 150,36 286,141 278,307 -3,66 -31,128 -82,170 86,43 134,127 133,222 -2,110 -60,188 -143,235 -69,39 -144,52 -224,52l-2002 0c-89,0 -133,27 -131,86 1,62 45,82 131,82l2239 0c45,0 82,31 82,70 0,38 -37,69 -82,69l-2239 0c-137,0 -300,-35 -296,-204 3,-123 95,-193 296,-193l2002 0c61,0 115,-18 156,-67 30,-35 48,-80 49,-131 0,-50 -19,-107 -58,-139 -17,-14 -39,-24 -64,-24 -43,2 -83,-14 -89,-38 -8,-31 35,-47 64,-51 35,-5 56,-24 74,-54 15,-25 20,-55 21,-87 6,-113 -72,-196 -179,-222 -41,-9 -81,-15 -122,-17 62,100 84,214 84,314 0,100 -24,206 -73,288 -68,111 -180,163 -304,163 -120,0 -225,-46 -293,-149 -43,-64 -66,-146 -66,-229 0,-99 32,-199 91,-278 78,-103 197,-160 322,-180 -79,-70 -168,-98 -269,-97 -157,2 -279,61 -362,198 -48,79 -74,172 -74,264 0,149 66,287 193,371 21,14 27,38 6,55 -18,15 -49,21 -69,21l-1253 0c-23,0 -82,-10 -82,-46 0,-25 37,-45 82,-45l402 0c158,0 274,-136 277,-289 2,-115 -69,-214 -190,-214 -95,1 -184,73 -186,170 -1,50 23,98 65,132 29,25 7,52 -22,63 -40,15 -89,10 -121,-19 -53,-47 -84,-107 -84,-172 -1,-175 190,-263 343,-265 187,-1 357,99 357,301 0,116 -56,224 -148,293l409 0zm800 -637c-98,8 -187,52 -246,131 -53,70 -78,156 -78,243 0,73 19,144 55,198 40,60 91,89 141,89 55,0 109,-34 149,-101 44,-72 65,-168 65,-259 0,-97 -20,-205 -86,-301z"/>
 </g>
</svg>
