<?xml version="1.0" encoding="UTF-8"?>
<!DOCTYPE svg PUBLIC "-//W3C//DTD SVG 1.1//EN" "http://www.w3.org/Graphics/SVG/1.1/DTD/svg11.dtd">
<!-- Creator: CorelDRAW X8 -->
<svg xmlns="http://www.w3.org/2000/svg" xml:space="preserve" width="1572px" height="868px" version="1.1" style="shape-rendering:geometricPrecision; text-rendering:geometricPrecision; image-rendering:optimizeQuality; fill-rule:evenodd; clip-rule:evenodd"
viewBox="0 0 1572 868"
 xmlns:xlink="http://www.w3.org/1999/xlink">
 <defs>
  <style type="text/css">
   <![CDATA[
    .fil0 {fill:#898778;fill-rule:nonzero}
   ]]>
  </style>
 </defs>
 <g id="Layer_x0020_1">
  <metadata id="CorelCorpID_0Corel-Layer"/>
  <path class="fil0" d="M1206 167c-56,4 -98,30 -126,67 -29,39 -44,89 -46,138 -2,37 4,73 17,103 17,39 47,66 87,66 42,0 70,-31 88,-70 19,-43 27,-96 27,-131 1,-61 -12,-122 -47,-173zm-71 550c-31,0 -67,2 -96,13 -14,5 -37,17 -37,34 0,18 23,30 37,36 28,10 65,13 96,13 26,0 54,-2 79,-9 17,-5 50,-18 50,-40 0,-21 -32,-33 -49,-38 -26,-7 -53,-9 -80,-9zm164 -601c92,19 161,67 206,131 50,71 72,161 66,256 -4,62 -21,123 -51,175 -29,51 -68,94 -119,125 -44,27 -97,44 -147,53 -39,8 -79,12 -119,12 -44,1 -94,-4 -137,-15 -40,-10 -110,-38 -110,-89 0,-51 72,-78 113,-88 43,-11 90,-14 134,-14 40,0 81,3 121,12 37,8 93,27 113,62 23,-26 41,-56 54,-90 18,-44 28,-94 29,-143 2,-62 -9,-125 -31,-179 -15,-35 -34,-66 -59,-91 10,33 14,69 14,107 -1,57 -14,115 -44,163 -43,68 -114,98 -193,97 -74,-1 -146,-26 -190,-89 -26,-39 -39,-87 -39,-134 0,-58 19,-116 55,-162 47,-60 117,-93 192,-104 -44,-36 -92,-53 -148,-52 -75,1 -137,31 -181,80 -43,48 -68,113 -68,185 0,44 10,86 30,123 19,36 48,67 85,91 5,4 11,9 12,17 1,14 -17,23 -28,26 -11,3 -23,5 -34,5l-764 0c-17,0 -61,-6 -61,-30 0,-24 44,-29 61,-29l242 0c87,0 154,-84 153,-168 0,-57 -38,-118 -100,-117 -51,0 -100,44 -100,96 0,28 15,55 38,75 18,14 6,30 -11,38 -17,7 -40,9 -58,6 -55,-10 -91,-65 -91,-119 0,-110 129,-155 221,-155 112,0 225,54 223,180 0,65 -33,125 -83,164l224 0c-26,-28 -46,-58 -59,-91 -15,-35 -23,-72 -23,-110 0,-87 38,-175 101,-234 71,-67 168,-91 270,-92 121,-1 225,40 291,116z"/>
 </g>
</svg>
