<?xml version="1.0" encoding="UTF-8"?>
<!DOCTYPE svg PUBLIC "-//W3C//DTD SVG 1.1//EN" "http://www.w3.org/Graphics/SVG/1.1/DTD/svg11.dtd">
<!-- Creator: CorelDRAW X8 -->
<svg xmlns="http://www.w3.org/2000/svg" xml:space="preserve" width="2647px" height="1486px" version="1.1" style="shape-rendering:geometricPrecision; text-rendering:geometricPrecision; image-rendering:optimizeQuality; fill-rule:evenodd; clip-rule:evenodd"
viewBox="0 0 2647 1486"
 xmlns:xlink="http://www.w3.org/1999/xlink">
 <defs>
  <style type="text/css">
   <![CDATA[
    .fil0 {fill:#CC6633;fill-rule:nonzero}
   ]]>
  </style>
 </defs>
 <g id="Layer_x0020_1">
  <metadata id="CorelCorpID_0Corel-Layer"/>
  <path class="fil0" d="M1981 269c-95,14 -184,55 -243,133 -52,69 -77,156 -77,242 0,74 18,144 54,198 33,50 82,89 144,90 57,0 106,-34 147,-101 43,-72 63,-161 64,-250 2,-119 -26,-235 -89,-312zm-339 -178c-161,2 -286,77 -360,193 -49,75 -76,169 -76,270 0,148 67,286 193,371 22,15 26,36 6,54 -17,15 -48,21 -69,21l-1253 0c-23,0 -82,-10 -82,-46 0,-25 37,-45 82,-45l402 0c159,0 274,-136 277,-289 2,-115 -69,-214 -190,-214 -95,1 -184,73 -186,170 0,50 24,98 65,132 9,8 14,17 14,26 0,14 -13,29 -36,37 -14,6 -30,8 -45,8 -27,1 -55,-8 -76,-27 -53,-47 -84,-107 -84,-172 -1,-175 191,-263 344,-265 186,-1 356,99 356,302 0,115 -56,223 -148,292l410 0c-92,-97 -142,-221 -143,-353 0,-125 34,-232 95,-318 106,-151 291,-237 503,-238 169,-1 328,47 448,178 149,-7 335,23 451,127 73,66 111,168 106,264 -4,81 -40,159 -113,208 66,35 114,96 114,173 0,178 -177,230 -325,230l-2026 0c-89,0 -133,26 -131,85 1,62 45,83 131,83l2234 0c45,0 81,31 81,69 0,38 -36,69 -81,69l-2234 0c-137,0 -300,-35 -296,-204 3,-123 95,-193 296,-193l2026 0c90,0 165,-39 162,-139 -1,-38 -16,-76 -44,-99 -33,-26 -66,-20 -106,-23 -54,-4 -74,-26 -74,-47 1,-22 24,-42 74,-43 39,-1 70,-13 94,-33 40,-33 56,-87 59,-143 9,-189 -163,-291 -333,-297 58,100 80,200 79,316 -2,99 -24,199 -73,279 -69,114 -181,164 -301,163 -118,-1 -229,-48 -296,-149 -43,-65 -65,-146 -65,-230 0,-98 31,-199 90,-277 79,-104 198,-162 325,-178 -80,-71 -168,-99 -271,-98z"/>
 </g>
</svg>
