<?xml version="1.0" encoding="UTF-8"?>
<!DOCTYPE svg PUBLIC "-//W3C//DTD SVG 1.1//EN" "http://www.w3.org/Graphics/SVG/1.1/DTD/svg11.dtd">
<!-- Creator: CorelDRAW X8 -->
<svg xmlns="http://www.w3.org/2000/svg" xml:space="preserve" width="2559px" height="1486px" version="1.1" style="shape-rendering:geometricPrecision; text-rendering:geometricPrecision; image-rendering:optimizeQuality; fill-rule:evenodd; clip-rule:evenodd"
viewBox="0 0 2559 1486"
 xmlns:xlink="http://www.w3.org/1999/xlink">
 <defs>
  <style type="text/css">
   <![CDATA[
    .fil0 {fill:#669933;fill-rule:nonzero}
   ]]>
  </style>
 </defs>
 <g id="Layer_x0020_1">
  <metadata id="CorelCorpID_0Corel-Layer"/>
  <path class="fil0" d="M1851 1225c-76,0 -137,10 -177,25 -43,17 -65,40 -65,63 -1,23 21,46 65,63 39,16 100,26 177,26 63,0 110,-7 148,-18 59,-17 88,-44 88,-71 -1,-27 -29,-53 -86,-70 -38,-11 -87,-18 -150,-18zm-572 -936c-47,79 -74,172 -74,265 0,148 66,286 193,371 22,15 26,37 6,54 -18,16 -48,21 -69,21l-1254 0c-22,0 -81,-10 -81,-45 0,-26 36,-46 81,-46l403 0c158,0 274,-136 277,-288 2,-115 -69,-215 -190,-215 -75,1 -146,44 -174,114 -28,70 -4,141 53,188 25,21 15,50 -22,64 -41,15 -89,9 -121,-20 -74,-66 -107,-158 -68,-252 51,-128 198,-183 327,-185 187,-1 357,99 357,302 0,115 -56,223 -148,292l409 0c-91,-97 -141,-221 -142,-353 0,-104 29,-206 83,-296 113,-188 308,-259 514,-260 186,-1 354,61 466,197 319,65 472,353 452,664 -13,210 -110,408 -281,516 -71,45 -158,74 -240,90 -59,12 -121,18 -185,19 -67,1 -149,-7 -213,-24 -119,-32 -178,-91 -178,-149 0,-59 61,-118 183,-149 55,-14 126,-23 208,-23 74,0 135,7 189,20 70,16 178,58 193,134 108,-102 163,-268 168,-434 5,-205 -65,-415 -209,-517 28,73 41,153 40,238 -2,98 -24,198 -73,278 -69,114 -181,165 -301,164 -118,-2 -229,-49 -296,-150 -43,-64 -65,-146 -65,-229 0,-99 31,-199 91,-278 78,-104 197,-161 324,-177 -79,-71 -167,-100 -271,-99 -155,2 -279,61 -362,198zm708 -13c-100,0 -190,47 -250,126 -52,70 -77,156 -77,243 0,73 18,144 54,198 34,50 83,88 144,89 57,1 106,-33 147,-101 43,-71 63,-161 64,-249 2,-109 -21,-215 -82,-306z"/>
 </g>
</svg>
