<?xml version="1.0" encoding="UTF-8"?>
<!DOCTYPE svg PUBLIC "-//W3C//DTD SVG 1.1//EN" "http://www.w3.org/Graphics/SVG/1.1/DTD/svg11.dtd">
<!-- Creator: CorelDRAW X8 -->
<svg xmlns="http://www.w3.org/2000/svg" xml:space="preserve" width="2547px" height="1486px" version="1.1" style="shape-rendering:geometricPrecision; text-rendering:geometricPrecision; image-rendering:optimizeQuality; fill-rule:evenodd; clip-rule:evenodd"
viewBox="0 0 2547 1486"
 xmlns:xlink="http://www.w3.org/1999/xlink">
 <defs>
  <style type="text/css">
   <![CDATA[
    .fil0 {fill:#898778;fill-rule:nonzero}
   ]]>
  </style>
 </defs>
 <g id="Layer_x0020_1">
  <metadata id="CorelCorpID_0Corel-Layer"/>
  <path class="fil0" d="M1987 276c-100,0 -190,46 -250,126 -52,70 -77,156 -77,242 0,74 18,144 54,198 33,50 82,89 144,90 57,0 106,-34 147,-101 43,-72 63,-161 64,-250 1,-108 -22,-214 -82,-305zm109 -90c133,18 253,79 338,184 79,98 117,223 113,348 -5,124 -52,242 -141,328 -102,99 -256,134 -396,133l-1714 0c-89,0 -133,27 -131,86 1,62 45,82 131,82l2117 0c45,0 82,31 82,70 0,38 -37,69 -82,69l-2117 0c-137,0 -300,-35 -296,-204 3,-123 95,-193 296,-193l1714 0c106,0 216,-36 283,-118 58,-71 88,-164 91,-256 4,-98 -23,-200 -79,-281 -32,-48 -74,-88 -126,-119 38,81 54,171 53,266 -2,99 -24,199 -73,279 -69,114 -182,164 -301,163 -118,-1 -229,-48 -296,-149 -43,-65 -65,-146 -65,-230 0,-98 31,-198 90,-277 79,-104 198,-161 325,-178 -80,-70 -167,-99 -272,-98 -167,2 -296,83 -369,207 -43,73 -66,161 -66,255 0,149 66,287 193,372 21,14 26,36 6,54 -18,15 -48,21 -69,21l-1253 0c-23,0 -82,-10 -82,-46 0,-25 37,-45 82,-45l402 0c158,0 274,-136 277,-289 2,-115 -69,-214 -190,-214 -96,1 -185,74 -186,173 0,49 24,95 65,129 29,25 7,52 -22,63 -41,15 -89,10 -121,-19 -53,-47 -85,-108 -84,-173 0,-175 191,-262 343,-264 187,-1 357,99 357,301 0,116 -56,224 -148,293l409 0c-91,-97 -141,-221 -142,-353 -1,-119 31,-222 87,-306 104,-158 293,-249 510,-250 181,-1 345,58 457,186z"/>
 </g>
</svg>
