<?xml version="1.0" encoding="UTF-8"?>
<!DOCTYPE svg PUBLIC "-//W3C//DTD SVG 1.1//EN" "http://www.w3.org/Graphics/SVG/1.1/DTD/svg11.dtd">
<!-- Creator: CorelDRAW X8 -->
<svg xmlns="http://www.w3.org/2000/svg" xml:space="preserve" width="1631px" height="868px" version="1.1" style="shape-rendering:geometricPrecision; text-rendering:geometricPrecision; image-rendering:optimizeQuality; fill-rule:evenodd; clip-rule:evenodd"
viewBox="0 0 1631 868"
 xmlns:xlink="http://www.w3.org/1999/xlink">
 <defs>
  <style type="text/css">
   <![CDATA[
    .fil0 {fill:#CC6633;fill-rule:nonzero}
   ]]>
  </style>
 </defs>
 <g id="Layer_x0020_1">
  <metadata id="CorelCorpID_0Corel-Layer"/>
  <path class="fil0" d="M1206 167c-55,3 -97,29 -125,66 -31,41 -46,94 -47,144 -1,38 6,75 20,104 18,35 46,59 84,60 41,0 68,-29 86,-66 21,-44 29,-99 30,-135 1,-61 -13,-122 -48,-173zm82 -64c90,-2 208,15 278,76 43,38 67,97 64,154 -3,49 -25,93 -66,121 38,20 67,55 67,100 0,42 -18,72 -44,93 -43,33 -109,43 -164,43l-1232 0c-32,0 -68,7 -67,47 1,40 34,45 67,45l1365 0c26,0 61,12 61,43 0,31 -35,43 -61,43l-1365 0c-82,0 -193,-17 -190,-121 2,-101 111,-115 190,-115l1232 0c28,0 55,-10 72,-29 11,-12 18,-28 19,-48 0,-33 -14,-65 -49,-67 -17,-2 -32,0 -49,-5 -13,-4 -25,-12 -24,-27 0,-15 12,-22 25,-25 15,-4 29,-2 44,-7 39,-13 49,-58 51,-95 2,-50 -21,-93 -61,-124 -31,-25 -78,-39 -118,-44 28,50 44,110 43,179 -1,56 -14,115 -44,163 -43,68 -113,97 -193,97 -74,-1 -146,-26 -189,-89 -27,-39 -40,-87 -40,-134 0,-58 19,-116 55,-162 47,-60 117,-93 192,-104 -43,-36 -91,-53 -147,-52 -88,1 -158,42 -202,105 -31,45 -48,100 -48,160 0,44 10,86 30,123 20,36 48,67 85,91 26,17 7,37 -16,43 -11,3 -23,5 -33,5l-764 0c-18,0 -62,-6 -62,-30 0,-24 45,-29 62,-29l241 0c88,0 154,-84 154,-168 -1,-57 -38,-118 -101,-118 -51,1 -100,45 -100,98 0,28 15,54 38,74 7,5 10,10 10,15 0,12 -17,22 -30,26 -10,3 -21,4 -31,4 -6,0 -12,0 -17,-1 -57,-10 -92,-65 -92,-120 1,-110 130,-155 221,-155 112,0 225,54 224,181 -1,65 -33,124 -84,164l224 0c-25,-28 -45,-58 -59,-91 -15,-35 -22,-72 -23,-111 0,-61 18,-120 51,-172 70,-113 192,-153 320,-153 114,-1 213,35 280,103z"/>
 </g>
</svg>
