<?xml version="1.0" encoding="UTF-8"?>
<!DOCTYPE svg PUBLIC "-//W3C//DTD SVG 1.1//EN" "http://www.w3.org/Graphics/SVG/1.1/DTD/svg11.dtd">
<!-- Creator: CorelDRAW X8 -->
<svg xmlns="http://www.w3.org/2000/svg" xml:space="preserve" width="2666px" height="1486px" version="1.1" style="shape-rendering:geometricPrecision; text-rendering:geometricPrecision; image-rendering:optimizeQuality; fill-rule:evenodd; clip-rule:evenodd"
viewBox="0 0 2666 1487"
 xmlns:xlink="http://www.w3.org/1999/xlink">
 <defs>
  <style type="text/css">
   <![CDATA[
    .fil0 {fill:#2B2A29;fill-rule:nonzero}
   ]]>
  </style>
 </defs>
 <g id="Layer_x0020_1">
  <metadata id="CorelCorpID_0Corel-Layer"/>
  <path class="fil0" d="M2536 1487c45,0 82,-31 82,-69 0,-40 -37,-70 -82,-70l-2240 0c-64,0 -131,-8 -131,-86 0,-56 44,-82 131,-82l2003 0c80,0 155,-14 224,-52 89,-51 143,-135 143,-239 0,-94 -48,-176 -133,-219 56,-46 82,-112 82,-184 0,-158 -132,-258 -278,-293 -67,-16 -133,-25 -200,-25 -19,0 -37,1 -56,2 -119,-123 -269,-170 -433,-170 -212,0 -407,72 -522,260 -54,90 -82,192 -82,296 0,132 50,256 142,353l-410 0c92,-69 148,-177 148,-293 0,-201 -168,-301 -354,-301 -152,0 -346,89 -346,264 0,84 65,200 159,200 16,0 32,-3 46,-8 19,-7 36,-22 36,-38 0,-8 -4,-17 -14,-25 -41,-33 -65,-80 -65,-129 0,-99 91,-172 186,-173 119,0 190,96 190,209 0,155 -117,294 -277,294l-402 0c-45,0 -82,20 -82,45 0,36 59,46 82,46l1253 0c25,0 83,-12 83,-45 0,-12 -7,-23 -19,-31 -128,-84 -194,-222 -194,-371 0,-92 26,-185 74,-264 84,-137 209,-198 368,-198 99,0 186,28 264,97 -125,20 -244,77 -322,180 -59,79 -91,179 -91,278 0,83 23,165 66,229 68,103 173,149 293,149 124,0 236,-52 304,-163 49,-82 73,-188 73,-288 0,-100 -22,-214 -84,-314 41,2 81,8 122,17 103,25 179,103 179,210 0,34 -3,69 -21,99 -15,26 -33,44 -60,51 -26,7 -79,11 -79,47 0,23 31,45 83,45 28,0 49,6 71,24 39,32 58,89 58,139 -1,51 -19,96 -49,131 -41,50 -95,68 -156,68l-2003 0c-136,0 -296,31 -296,198 0,164 161,199 296,199l2240 0zm-678 -554c-50,0 -101,-29 -141,-89 -36,-54 -55,-125 -55,-198 0,-87 25,-173 78,-243 59,-79 148,-123 246,-131 66,96 86,204 86,301 0,91 -21,187 -65,259 -40,67 -94,101 -149,101z"/>
 </g>
</svg>
