<?xml version="1.0" encoding="UTF-8"?>
<!DOCTYPE svg PUBLIC "-//W3C//DTD SVG 1.1//EN" "http://www.w3.org/Graphics/SVG/1.1/DTD/svg11.dtd">
<!-- Creator: CorelDRAW X8 -->
<svg xmlns="http://www.w3.org/2000/svg" xml:space="preserve" width="1565px" height="868px" version="1.1" style="shape-rendering:geometricPrecision; text-rendering:geometricPrecision; image-rendering:optimizeQuality; fill-rule:evenodd; clip-rule:evenodd"
viewBox="0 0 1565 868"
 xmlns:xlink="http://www.w3.org/1999/xlink">
 <defs>
  <style type="text/css">
   <![CDATA[
    .fil0 {fill:#CC6633;fill-rule:nonzero}
   ]]>
  </style>
 </defs>
 <g id="Layer_x0020_1">
  <metadata id="CorelCorpID_0Corel-Layer"/>
  <path class="fil0" d="M1206 167c-62,4 -106,36 -134,79 -24,37 -36,82 -38,126 -2,40 5,80 20,110 18,35 46,59 84,59 40,0 67,-28 85,-64 21,-43 30,-100 30,-137 1,-61 -12,-122 -47,-173zm87 -58c92,13 173,56 224,135 33,51 49,110 48,171 -1,55 -17,110 -50,155 -63,91 -166,120 -272,120l-1053 0c-32,0 -67,7 -66,47 1,40 34,45 66,45l1283 0c25,0 61,12 61,43 0,31 -36,43 -61,43l-1283 0c-45,0 -94,-5 -132,-24 -35,-18 -59,-48 -58,-97 1,-37 16,-66 47,-85 31,-20 78,-30 143,-30l1053 0c65,0 121,-29 158,-83 27,-40 41,-88 42,-135 1,-77 -28,-153 -87,-202 13,38 20,81 20,128 -1,56 -14,115 -44,163 -43,68 -114,98 -193,97 -74,-1 -146,-26 -190,-89 -27,-39 -39,-87 -39,-134 0,-58 19,-116 54,-162 48,-60 118,-93 193,-104 -44,-36 -92,-53 -148,-52 -83,1 -150,37 -194,94 -35,47 -55,106 -55,171 0,44 10,86 30,123 19,36 48,67 85,91 5,4 11,9 12,17 1,14 -17,23 -28,26 -11,3 -24,5 -34,5l-764 0c-17,0 -61,-6 -61,-30 0,-24 44,-29 61,-29l242 0c87,0 154,-84 153,-168 0,-57 -38,-118 -100,-118 -51,1 -100,45 -100,97 0,28 14,55 38,75 6,5 9,10 9,15 0,3 -1,7 -4,10 -10,15 -36,20 -57,20 -6,0 -12,0 -17,-1 -56,-10 -91,-65 -91,-119 0,-110 129,-156 221,-156 112,0 225,54 223,181 0,65 -33,125 -83,164l224 0c-26,-28 -46,-58 -60,-91 -14,-35 -22,-72 -22,-111 0,-81 32,-162 88,-221 72,-76 174,-104 283,-104 117,-1 219,38 285,109z"/>
 </g>
</svg>
