<?xml version="1.0" encoding="UTF-8"?>
<!DOCTYPE svg PUBLIC "-//W3C//DTD SVG 1.1//EN" "http://www.w3.org/Graphics/SVG/1.1/DTD/svg11.dtd">
<!-- Creator: CorelDRAW X8 -->
<svg xmlns="http://www.w3.org/2000/svg" xml:space="preserve" width="1572px" height="868px" version="1.1" style="shape-rendering:geometricPrecision; text-rendering:geometricPrecision; image-rendering:optimizeQuality; fill-rule:evenodd; clip-rule:evenodd"
viewBox="0 0 1572 868"
 xmlns:xlink="http://www.w3.org/1999/xlink">
 <defs>
  <style type="text/css">
   <![CDATA[
    .fil0 {fill:#2B2A29;fill-rule:nonzero}
   ]]>
  </style>
 </defs>
 <g id="Layer_x0020_1">
  <metadata id="CorelCorpID_0Corel-Layer"/>
  <path class="fil0" d="M1401 803c51,-31 91,-74 119,-125 38,-66 49,-129 52,-204 0,-84 -22,-165 -66,-227 -46,-64 -115,-112 -207,-132 -65,-74 -166,-115 -285,-115 -100,0 -201,22 -276,92 -63,59 -101,147 -101,233 0,39 8,76 22,111 14,33 34,63 60,91l-224 0c50,-39 83,-99 83,-164 0,-128 -109,-181 -223,-181 -92,0 -221,46 -221,156 0,61 44,120 108,120 14,0 29,-2 41,-7 11,-5 20,-14 20,-23 0,-5 -3,-10 -9,-15 -24,-20 -38,-47 -38,-75 0,-53 49,-96 100,-97 64,0 100,62 100,120 0,83 -67,166 -153,166l-242 0c-17,0 -61,5 -61,29 0,24 44,30 61,30l764 0c17,0 62,-6 62,-30 0,-6 -4,-13 -12,-18 -37,-24 -66,-55 -85,-91 -20,-37 -30,-79 -30,-123 0,-72 25,-138 68,-186 49,-54 114,-79 186,-79 55,0 100,17 143,52 -75,11 -145,44 -192,104 -36,46 -55,105 -55,163 0,47 13,94 39,133 45,64 119,89 194,89 77,0 147,-30 189,-97 30,-48 43,-107 44,-163 0,-38 -4,-74 -13,-107 24,25 44,56 58,91 20,50 31,93 31,150 0,55 -8,121 -28,172 -13,34 -32,64 -54,90 -21,-35 -77,-54 -114,-62 -40,-9 -81,-12 -121,-12 -44,0 -91,3 -134,14 -40,10 -113,37 -113,88 0,51 70,79 110,89 39,10 85,15 137,15 43,0 91,-5 138,-16 46,-10 91,-26 128,-49zm-263 -262c-40,-1 -70,-27 -87,-66 -11,-26 -17,-65 -17,-97 0,-54 13,-100 46,-144 28,-37 70,-64 126,-67 34,49 47,108 47,167 0,46 -8,95 -27,137 -18,39 -46,70 -88,70zm-3 272c-31,0 -68,-3 -96,-13 -14,-6 -37,-18 -37,-36 0,-17 23,-29 37,-34 29,-11 65,-13 96,-13 27,0 54,2 80,9 17,5 49,17 49,38 0,22 -32,35 -49,40 -26,7 -54,9 -80,9z"/>
 </g>
</svg>
