<?xml version="1.0" encoding="UTF-8"?>
<!DOCTYPE svg PUBLIC "-//W3C//DTD SVG 1.1//EN" "http://www.w3.org/Graphics/SVG/1.1/DTD/svg11.dtd">
<!-- Creator: CorelDRAW X8 -->
<svg xmlns="http://www.w3.org/2000/svg" xml:space="preserve" width="2981px" height="1486px" version="1.1" style="shape-rendering:geometricPrecision; text-rendering:geometricPrecision; image-rendering:optimizeQuality; fill-rule:evenodd; clip-rule:evenodd"
viewBox="0 0 2981 1486"
 xmlns:xlink="http://www.w3.org/1999/xlink">
 <defs>
  <style type="text/css">
   <![CDATA[
    .fil0 {fill:#2B2A29;fill-rule:nonzero}
   ]]>
  </style>
 </defs>
 <g id="Layer_x0020_1">
  <metadata id="CorelCorpID_0Corel-Layer"/>
  <path class="fil0" d="M2419 1382c176,-58 330,-148 432,-275 82,-100 130,-226 130,-378 0,-176 -59,-320 -201,-434 -70,-57 -160,-94 -258,-108 -111,-128 -266,-187 -446,-187 -191,0 -389,69 -506,226 -65,87 -103,196 -103,325 0,134 50,260 142,358l-409 0c92,-69 148,-177 148,-292 0,-202 -168,-302 -354,-302 -153,0 -347,89 -347,265 0,83 67,199 160,199 15,0 31,-3 45,-8 20,-7 37,-22 37,-38 0,-8 -4,-17 -14,-25 -41,-33 -65,-79 -65,-128 0,-100 90,-174 186,-174 119,-1 190,96 190,209 0,154 -117,294 -277,294l-403 0c-45,0 -81,20 -81,45 0,36 59,46 81,46l1254 0c26,0 81,-12 82,-46 0,-10 -7,-21 -19,-29 -127,-85 -193,-223 -193,-371 0,-99 25,-190 71,-264 84,-136 218,-199 375,-199 99,0 184,30 261,98 -127,16 -246,74 -324,178 -60,79 -91,179 -91,278 0,83 22,165 65,229 69,104 182,149 303,149 117,0 226,-51 294,-163 51,-83 73,-190 73,-287 0,-91 -16,-176 -51,-255 149,87 213,245 213,410 0,139 -43,252 -116,342 -88,108 -218,184 -366,233 -247,82 -547,92 -807,92 -239,0 -541,-19 -798,-105 -145,-49 -269,-116 -363,-205 -146,-138 -206,-311 -206,-509 0,-193 71,-394 243,-499 15,-9 22,-20 22,-30 0,-13 -10,-25 -27,-34 -16,-9 -36,-13 -55,-13 -21,0 -42,5 -60,16 -197,120 -286,337 -286,560 0,243 88,447 279,600 102,82 227,144 369,192 289,97 620,118 882,118 288,0 615,-13 889,-104zm-134 -450c-62,0 -112,-40 -146,-89 -36,-54 -54,-125 -54,-198 0,-87 25,-173 77,-243 60,-80 150,-126 250,-126 58,88 82,189 82,293 0,91 -17,183 -64,262 -40,67 -89,101 -145,101z"/>
 </g>
</svg>
