<?xml version="1.0" encoding="UTF-8"?>
<!DOCTYPE svg PUBLIC "-//W3C//DTD SVG 1.1//EN" "http://www.w3.org/Graphics/SVG/1.1/DTD/svg11.dtd">
<!-- Creator: CorelDRAW X8 -->
<svg xmlns="http://www.w3.org/2000/svg" xml:space="preserve" width="1631px" height="868px" version="1.1" style="shape-rendering:geometricPrecision; text-rendering:geometricPrecision; image-rendering:optimizeQuality; fill-rule:evenodd; clip-rule:evenodd"
viewBox="0 0 1631 868"
 xmlns:xlink="http://www.w3.org/1999/xlink">
 <defs>
  <style type="text/css">
   <![CDATA[
    .fil0 {fill:#2B2A29;fill-rule:nonzero}
   ]]>
  </style>
 </defs>
 <g id="Layer_x0020_1">
  <metadata id="CorelCorpID_0Corel-Layer"/>
  <path class="fil0" d="M1541 868c26,0 61,-13 61,-44 0,-30 -35,-43 -61,-43l-1351 0c-33,0 -68,-4 -68,-46 0,-39 36,-45 68,-45l1208 0c51,0 101,-7 145,-32 55,-30 88,-77 88,-141 0,-55 -30,-100 -79,-125 32,-27 48,-66 48,-107 0,-95 -85,-153 -172,-173 -43,-9 -87,-14 -131,-14l-22 0c-74,-71 -173,-98 -273,-98 -129,0 -250,39 -322,153 -33,52 -51,111 -51,172 1,76 30,146 82,202l-214 0c50,-40 83,-100 83,-165 0,-126 -112,-179 -223,-179 -92,0 -222,47 -222,157 0,58 46,119 108,119 13,0 25,-2 36,-6 13,-5 24,-14 24,-24 0,-5 -2,-11 -9,-16 -22,-18 -38,-44 -38,-73 0,-53 48,-98 100,-98 65,0 103,58 104,118 0,85 -68,167 -156,167l-243 0c-17,0 -60,6 -60,29 0,24 43,30 60,30l757 0c16,0 60,-6 60,-29 0,-9 -5,-14 -12,-19 -74,-48 -115,-126 -115,-214 0,-54 16,-107 44,-153 48,-76 118,-111 207,-112 56,0 105,16 149,52 -74,13 -145,45 -192,105 -36,45 -55,104 -55,162 0,47 13,94 40,133 44,64 113,89 188,89 79,0 151,-29 194,-97 31,-49 45,-111 45,-168 0,-62 -15,-124 -48,-177 18,1 35,4 52,8 59,13 104,57 104,118 0,21 -3,42 -14,60 -8,15 -19,26 -35,28 -25,4 -36,14 -36,27 0,13 14,26 37,28 25,2 44,11 57,25 15,15 22,37 22,65 0,30 -8,56 -29,78 -22,25 -50,36 -83,36l-1208 0c-79,0 -190,16 -190,118 0,101 110,119 190,119l1351 0zm-409 -327c-30,0 -58,-26 -74,-49 -23,-33 -33,-75 -33,-114 0,-107 69,-199 176,-212 34,50 48,109 48,169 0,51 -11,107 -38,150 -16,26 -46,56 -79,56z"/>
 </g>
</svg>
