<?xml version="1.0" encoding="UTF-8"?>
<!DOCTYPE svg PUBLIC "-//W3C//DTD SVG 1.1//EN" "http://www.w3.org/Graphics/SVG/1.1/DTD/svg11.dtd">
<!-- Creator: CorelDRAW X8 -->
<svg xmlns="http://www.w3.org/2000/svg" xml:space="preserve" width="2665px" height="1486px" version="1.1" style="shape-rendering:geometricPrecision; text-rendering:geometricPrecision; image-rendering:optimizeQuality; fill-rule:evenodd; clip-rule:evenodd"
viewBox="0 0 2665 1486"
 xmlns:xlink="http://www.w3.org/1999/xlink">
 <defs>
  <style type="text/css">
   <![CDATA[
    .fil0 {fill:#2B2A29;fill-rule:nonzero}
   ]]>
  </style>
 </defs>
 <g id="Layer_x0020_1">
  <metadata id="CorelCorpID_0Corel-Layer"/>
  <path class="fil0" d="M2535 1486c45,0 82,-31 82,-69 0,-39 -37,-70 -82,-70l-2239 0c-64,0 -131,-7 -131,-86 0,-56 44,-82 131,-82l2002 0c80,0 155,-13 224,-52 90,-50 143,-134 143,-238 0,-94 -48,-176 -133,-219 56,-46 82,-113 82,-184 0,-158 -132,-258 -278,-293 -67,-16 -133,-25 -200,-25 -19,0 -37,1 -56,2 -119,-123 -269,-170 -433,-170 -212,0 -407,72 -521,260 -54,90 -83,192 -83,296 1,132 51,256 142,353l-409 0c92,-69 148,-177 148,-293 0,-201 -168,-301 -354,-301 -152,0 -346,89 -346,264 0,83 64,200 159,200 16,0 32,-3 46,-8 19,-7 36,-22 36,-38 0,-8 -4,-17 -14,-25 -41,-33 -65,-80 -65,-129 0,-99 91,-173 186,-173 119,-1 190,96 190,209 0,154 -118,294 -277,294l-402 0c-45,0 -82,20 -82,45 0,36 59,46 82,46l1253 0c25,0 82,-12 82,-45 0,-12 -7,-23 -19,-31 -127,-84 -193,-222 -193,-371 0,-92 26,-185 74,-264 83,-138 208,-198 367,-198 99,0 186,28 264,97 -125,20 -244,77 -322,180 -59,79 -91,179 -91,278 0,83 23,165 66,229 69,103 173,149 293,149 124,0 237,-52 304,-163 50,-82 73,-188 73,-288 0,-100 -22,-214 -84,-314 41,2 81,7 122,17 103,24 179,103 179,210 0,34 -3,69 -21,99 -15,26 -33,43 -60,51 -25,7 -79,13 -79,49 0,22 31,43 83,43 28,0 49,6 71,24 39,32 59,89 58,139 0,51 -19,96 -49,131 -41,49 -95,67 -156,67l-2002 0c-136,0 -296,32 -296,199 0,164 161,198 296,198l2239 0zm-678 -553c-50,0 -101,-29 -141,-89 -36,-54 -55,-125 -55,-198 0,-87 25,-173 78,-243 59,-79 148,-123 246,-131 66,96 86,204 86,301 0,91 -21,187 -65,259 -40,67 -94,101 -149,101z"/>
 </g>
</svg>
