<?xml version="1.0" encoding="UTF-8"?>
<!DOCTYPE svg PUBLIC "-//W3C//DTD SVG 1.1//EN" "http://www.w3.org/Graphics/SVG/1.1/DTD/svg11.dtd">
<!-- Creator: CorelDRAW X8 -->
<svg xmlns="http://www.w3.org/2000/svg" xml:space="preserve" width="2981px" height="1486px" version="1.1" style="shape-rendering:geometricPrecision; text-rendering:geometricPrecision; image-rendering:optimizeQuality; fill-rule:evenodd; clip-rule:evenodd"
viewBox="0 0 2981 1486"
 xmlns:xlink="http://www.w3.org/1999/xlink">
 <defs>
  <style type="text/css">
   <![CDATA[
    .fil0 {fill:#009846;fill-rule:nonzero}
   ]]>
  </style>
 </defs>
 <g id="Layer_x0020_1">
  <metadata id="CorelCorpID_0Corel-Layer"/>
  <path class="fil0" d="M2412 276c-100,0 -190,46 -250,126 -52,70 -77,156 -77,243 0,73 18,144 54,198 34,49 83,88 144,89 57,1 106,-33 147,-101 43,-72 63,-161 64,-250 2,-108 -22,-214 -82,-305zm-2126 -260c34,-21 81,-21 115,-3 32,16 37,45 5,64 -173,106 -244,309 -243,503 0,217 76,382 206,505 94,89 218,156 363,205 270,90 589,107 834,105 243,-1 540,-16 771,-92 148,-49 278,-125 366,-233 78,-97 122,-220 115,-374 -7,-149 -80,-301 -212,-378 36,81 52,169 51,263 -2,99 -24,199 -73,279 -69,114 -181,165 -301,163 -118,-1 -229,-48 -296,-149 -43,-64 -65,-146 -65,-229 0,-99 31,-199 91,-278 78,-104 197,-162 324,-178 -79,-70 -167,-100 -271,-98 -164,1 -291,79 -365,199 -46,74 -71,165 -71,264 0,148 66,286 193,371 12,8 19,19 19,29 -1,34 -56,46 -82,46l-1254 0c-22,0 -81,-10 -81,-46 0,-25 36,-45 81,-45l403 0c158,0 274,-136 277,-289 2,-115 -69,-214 -190,-214 -96,1 -183,73 -186,171 -1,50 23,97 65,131 29,25 7,52 -23,63 -40,15 -88,10 -120,-19 -54,-48 -86,-109 -85,-175 3,-174 192,-260 344,-262 187,-1 357,99 357,302 0,115 -56,223 -148,292l409 0c-91,-97 -141,-221 -142,-353 -1,-131 37,-242 103,-330 107,-144 288,-225 494,-226 182,-1 346,58 458,187 98,14 188,51 258,108 124,99 193,241 200,399 8,168 -41,305 -129,413 -102,127 -256,216 -432,275 -258,85 -581,103 -853,104 -267,2 -615,-17 -918,-118 -142,-48 -267,-110 -369,-192 -173,-139 -278,-332 -279,-596 -1,-225 88,-443 286,-564z"/>
 </g>
</svg>
