<?xml version="1.0" encoding="UTF-8"?>
<!DOCTYPE svg PUBLIC "-//W3C//DTD SVG 1.1//EN" "http://www.w3.org/Graphics/SVG/1.1/DTD/svg11.dtd">
<!-- Creator: CorelDRAW X8 -->
<svg xmlns="http://www.w3.org/2000/svg" xml:space="preserve" width="1631px" height="868px" version="1.1" style="shape-rendering:geometricPrecision; text-rendering:geometricPrecision; image-rendering:optimizeQuality; fill-rule:evenodd; clip-rule:evenodd"
viewBox="0 0 1631 868"
 xmlns:xlink="http://www.w3.org/1999/xlink">
 <defs>
  <style type="text/css">
   <![CDATA[
    .fil0 {fill:#009846;fill-rule:nonzero}
   ]]>
  </style>
 </defs>
 <g id="Layer_x0020_1">
  <metadata id="CorelCorpID_0Corel-Layer"/>
  <path class="fil0" d="M711 527c-52,-56 -81,-126 -82,-202 0,-61 18,-120 51,-172 71,-112 193,-152 321,-153 102,-1 199,26 274,98 51,-2 103,3 153,14 89,21 177,81 172,181 -2,38 -18,74 -48,99 50,25 80,72 79,128 -1,62 -34,109 -88,138 -44,25 -94,32 -145,32l-1208 0c-32,0 -69,6 -68,47 1,40 36,44 68,44l1351 0c26,0 61,13 61,43 0,31 -35,44 -61,44l-1351 0c-81,0 -192,-18 -190,-122 2,-100 112,-115 190,-115l1208 0c33,0 61,-11 83,-36 19,-21 29,-47 29,-75 1,-28 -11,-61 -34,-79 -18,-15 -25,-12 -45,-14 -20,-2 -35,-8 -36,-26 -2,-17 10,-24 23,-27 13,-2 23,-1 37,-16 16,-16 23,-43 24,-66 4,-65 -43,-112 -104,-126 -17,-4 -34,-7 -52,-8 33,53 48,115 48,177 0,57 -14,119 -45,168 -43,68 -115,97 -194,97 -75,0 -144,-25 -188,-89 -27,-39 -40,-86 -40,-133 0,-58 19,-117 55,-162 47,-60 118,-92 192,-105 -44,-36 -93,-52 -149,-52 -89,1 -159,36 -207,112 -28,46 -44,99 -44,153 0,88 41,166 115,214 6,4 12,10 12,17 3,25 -44,31 -60,31l-757 0c-17,0 -60,-6 -60,-30 0,-23 43,-29 60,-29l243 0c88,0 156,-82 156,-167 -1,-60 -39,-118 -104,-118 -50,0 -99,43 -100,95 -1,30 15,57 38,76 20,16 4,33 -15,40 -29,10 -69,8 -93,-13 -30,-25 -51,-60 -51,-100 0,-109 127,-156 219,-157 109,-1 225,50 226,176 1,66 -32,127 -83,168l214 0zm490 -361c-51,6 -98,31 -129,72 -32,40 -47,89 -47,140 0,39 10,81 33,114 16,23 44,49 74,49 33,0 63,-30 79,-56 27,-43 38,-99 38,-150 0,-60 -14,-119 -48,-169z"/>
 </g>
</svg>
