<?xml version="1.0" encoding="UTF-8"?>
<!DOCTYPE svg PUBLIC "-//W3C//DTD SVG 1.1//EN" "http://www.w3.org/Graphics/SVG/1.1/DTD/svg11.dtd">
<!-- Creator: CorelDRAW X8 -->
<svg xmlns="http://www.w3.org/2000/svg" xml:space="preserve" width="1643px" height="868px" version="1.1" style="shape-rendering:geometricPrecision; text-rendering:geometricPrecision; image-rendering:optimizeQuality; fill-rule:evenodd; clip-rule:evenodd"
viewBox="0 0 1643 868"
 xmlns:xlink="http://www.w3.org/1999/xlink">
 <defs>
  <style type="text/css">
   <![CDATA[
    .fil0 {fill:#898778;fill-rule:nonzero}
   ]]>
  </style>
 </defs>
 <g id="Layer_x0020_1">
  <metadata id="CorelCorpID_0Corel-Layer"/>
  <path class="fil0" d="M1313 167c-46,3 -87,31 -115,70 -28,40 -42,90 -42,140 0,33 6,77 23,111 15,31 38,53 72,53 33,-1 56,-24 73,-55 23,-45 31,-106 32,-146 1,-61 -12,-122 -43,-173zm-1156 -156c21,-14 60,-14 83,-2 18,10 21,28 2,40 -92,60 -131,177 -131,291 0,114 34,214 112,292 55,55 124,92 195,117 139,50 299,61 444,60 132,0 285,-7 411,-52 73,-26 146,-68 196,-134 47,-62 66,-136 63,-216 -3,-73 -32,-146 -83,-194 13,41 18,84 18,127 -1,57 -13,115 -40,163 -39,68 -103,98 -175,97 -67,-1 -132,-26 -172,-89 -24,-39 -35,-87 -35,-134 0,-58 17,-116 49,-162 43,-60 107,-93 174,-103 -39,-37 -82,-54 -133,-53 -77,1 -146,41 -188,113 -26,45 -38,99 -38,152 0,88 37,167 104,215 12,8 16,21 3,33 -11,11 -33,14 -48,14l-681 0c-16,0 -56,-6 -56,-29 0,-24 40,-30 56,-30l218 0c80,0 140,-83 140,-167 -1,-58 -34,-117 -91,-118 -46,-1 -90,44 -91,96 -1,30 14,56 35,75 17,16 3,33 -14,39 -26,11 -64,9 -86,-12 -27,-26 -47,-61 -46,-102 2,-109 117,-155 201,-155 102,0 200,52 200,180 0,65 -28,125 -74,164l193 0c-47,-55 -74,-125 -74,-201 -1,-70 17,-137 56,-192 66,-95 174,-133 279,-134 97,-1 193,29 259,110 51,8 101,28 141,63 67,57 105,140 110,233 3,89 -18,171 -71,240 -60,80 -149,130 -237,160 -146,52 -319,61 -472,62 -167,1 -349,-13 -508,-70 -72,-25 -143,-61 -203,-112 -102,-87 -152,-204 -152,-346 0,-134 50,-259 157,-329z"/>
 </g>
</svg>
