<?xml version="1.0" encoding="UTF-8"?>
<!DOCTYPE svg PUBLIC "-//W3C//DTD SVG 1.1//EN" "http://www.w3.org/Graphics/SVG/1.1/DTD/svg11.dtd">
<!-- Creator: CorelDRAW X8 -->
<svg xmlns="http://www.w3.org/2000/svg" xml:space="preserve" width="1565px" height="868px" version="1.1" style="shape-rendering:geometricPrecision; text-rendering:geometricPrecision; image-rendering:optimizeQuality; fill-rule:evenodd; clip-rule:evenodd"
viewBox="0 0 1565 868"
 xmlns:xlink="http://www.w3.org/1999/xlink">
 <defs>
  <style type="text/css">
   <![CDATA[
    .fil0 {fill:#2B2A29;fill-rule:nonzero}
   ]]>
  </style>
 </defs>
 <g id="Layer_x0020_1">
  <metadata id="CorelCorpID_0Corel-Layer"/>
  <path class="fil0" d="M1474 868c26,0 62,-12 62,-43 0,-31 -36,-43 -62,-43l-1284 0c-34,0 -66,-6 -66,-47 0,-38 34,-45 66,-45l1052 0c106,0 210,-29 273,-120 33,-47 50,-103 50,-160 0,-59 -16,-117 -48,-166 -52,-79 -133,-121 -224,-135 -65,-70 -162,-109 -279,-109 -105,0 -215,25 -289,104 -56,59 -88,140 -88,222 0,38 8,75 22,110 14,33 34,63 60,91l-224 0c52,-41 83,-100 83,-167 0,-124 -112,-177 -223,-177 -92,0 -221,45 -221,155 0,60 44,120 108,120 14,0 28,-2 39,-7 12,-5 22,-13 22,-23 0,-5 -3,-10 -9,-15 -24,-20 -38,-47 -38,-75 0,-52 49,-96 100,-96 63,0 100,59 100,117 0,84 -65,168 -153,168l-242 0c-17,0 -61,5 -61,29 0,24 44,30 61,30l764 0c17,0 62,-7 62,-30 0,-6 -5,-13 -12,-18 -37,-24 -66,-55 -85,-91 -20,-37 -30,-79 -30,-123 0,-64 19,-125 55,-171 49,-63 120,-94 199,-94 54,0 100,17 143,52 -75,11 -146,44 -193,104 -35,46 -54,104 -54,162 0,47 12,95 39,134 45,64 119,89 194,89 77,0 147,-30 189,-97 30,-48 44,-107 44,-163 1,-47 -7,-90 -20,-128 57,49 87,124 87,198 0,49 -14,99 -42,139 -37,54 -93,83 -159,83l-1052 0c-65,0 -112,11 -143,30 -32,20 -47,51 -47,88 0,47 24,76 59,94 37,19 86,24 131,24l1284 0zm-336 -327c-38,0 -66,-24 -84,-59 -13,-27 -20,-69 -20,-105 0,-49 11,-90 38,-131 28,-43 72,-75 134,-79 35,52 47,111 47,173 0,37 -9,94 -30,137 -18,36 -46,64 -85,64z"/>
 </g>
</svg>
