<?xml version="1.0" encoding="UTF-8"?>
<!DOCTYPE svg PUBLIC "-//W3C//DTD SVG 1.1//EN" "http://www.w3.org/Graphics/SVG/1.1/DTD/svg11.dtd">
<!-- Creator: CorelDRAW X8 -->
<svg xmlns="http://www.w3.org/2000/svg" xml:space="preserve" width="1508px" height="1024px" version="1.1" style="shape-rendering:geometricPrecision; text-rendering:geometricPrecision; image-rendering:optimizeQuality; fill-rule:evenodd; clip-rule:evenodd"
viewBox="0 0 1508 1024"
 xmlns:xlink="http://www.w3.org/1999/xlink">
 <defs>
  <style type="text/css">
   <![CDATA[
    .fil0 {fill:#CC6633;fill-rule:nonzero}
   ]]>
  </style>
 </defs>
 <g id="Layer_x0020_1">
  <metadata id="CorelCorpID_0Corel-Layer"/>
  <path class="fil0" d="M944 811c-74,59 -153,106 -246,146 -97,42 -201,66 -316,67 -67,1 -132,-6 -186,-19 -104,-26 -189,-85 -193,-202 -4,-112 64,-163 165,-190 113,-29 265,-24 437,-18 186,6 397,12 529,-27 63,-19 116,-49 153,-94 37,-45 58,-100 59,-159 0,-60 -20,-123 -66,-165 -44,-40 -102,-58 -161,-58 -153,-3 -227,102 -227,214l0 189c0,26 -37,46 -82,46 -44,0 -80,-21 -80,-46l0 -189c0,-92 -46,-150 -113,-182 -44,-22 -108,-31 -168,-33 -79,-3 -205,6 -260,72 20,-8 43,-13 66,-15 114,-6 244,66 244,197 0,132 -128,196 -242,196 -77,0 -145,-20 -191,-62 -41,-36 -66,-90 -66,-163 0,-104 42,-176 107,-225 90,-68 222,-91 342,-91 121,-1 273,15 362,107 78,-79 201,-107 308,-106 110,0 222,31 299,102 63,57 91,134 90,212 -1,70 -27,140 -74,197 -24,29 -53,54 -86,75 88,34 159,103 160,206 1,149 -144,230 -287,231 -134,2 -265,-66 -277,-213zm147 -18c-1,95 65,142 130,139 62,-2 124,-48 124,-139 1,-88 -61,-136 -124,-136 -65,0 -130,43 -130,136zm-937 -448c0,69 53,105 105,105 51,0 101,-38 101,-105 0,-70 -51,-105 -103,-105 -51,0 -103,35 -103,105zm778 344c-104,3 -223,0 -327,-4 -163,-5 -307,-10 -376,15 -42,16 -68,60 -69,103 -2,68 47,106 108,118 40,9 79,13 116,14 93,1 177,-21 255,-59 91,-43 209,-110 293,-187z"/>
 </g>
</svg>
