<?xml version="1.0" encoding="UTF-8"?>
<!DOCTYPE svg PUBLIC "-//W3C//DTD SVG 1.1//EN" "http://www.w3.org/Graphics/SVG/1.1/DTD/svg11.dtd">
<!-- Creator: CorelDRAW X8 -->
<svg xmlns="http://www.w3.org/2000/svg" xml:space="preserve" width="1508px" height="1024px" version="1.1" style="shape-rendering:geometricPrecision; text-rendering:geometricPrecision; image-rendering:optimizeQuality; fill-rule:evenodd; clip-rule:evenodd"
viewBox="0 0 1508 1024"
 xmlns:xlink="http://www.w3.org/1999/xlink">
 <defs>
  <style type="text/css">
   <![CDATA[
    .fil0 {fill:#2B2A29;fill-rule:nonzero}
   ]]>
  </style>
 </defs>
 <g id="Layer_x0020_1">
  <metadata id="CorelCorpID_0Corel-Layer"/>
  <path class="fil0" d="M1508 795c0,-102 -69,-173 -160,-208 33,-21 62,-46 86,-75 46,-56 74,-128 74,-201 0,-77 -28,-152 -90,-208 -82,-76 -196,-102 -305,-102 -105,0 -225,28 -302,106 -90,-93 -240,-107 -362,-107 -120,0 -252,23 -342,91 -65,49 -107,121 -107,225 0,73 25,127 66,163 46,42 114,62 191,62 114,0 242,-64 242,-196 0,-126 -120,-197 -231,-197 -27,0 -54,5 -79,15 49,-59 155,-72 234,-72 62,0 139,5 194,33 67,32 113,90 113,182l0 189c0,25 36,46 80,46 45,0 82,-20 82,-46l0 -189c0,-110 72,-214 221,-214 62,0 120,15 167,58 46,42 66,105 66,165 -1,59 -22,114 -59,159 -37,45 -90,75 -153,94 -84,25 -199,31 -320,31 -70,0 -141,-2 -209,-4 -68,-2 -133,-5 -194,-5 -93,0 -175,6 -243,23 -98,26 -165,75 -165,181 0,121 84,184 193,211 51,12 111,19 173,19 117,0 222,-21 329,-67 93,-40 172,-87 246,-146 12,145 139,213 271,213 137,0 293,-72 293,-229zm-1249 -345c-52,0 -105,-36 -105,-105 0,-70 52,-105 103,-105 52,0 103,35 103,105 0,67 -50,105 -101,105zm956 482c-79,0 -124,-64 -124,-139 0,-93 65,-136 130,-136 62,0 124,47 124,134 0,79 -48,141 -130,141zm-825 3c-40,0 -83,-5 -122,-14 -60,-12 -108,-49 -108,-114 0,-45 26,-91 69,-107 41,-15 108,-19 190,-19 56,0 119,2 186,4 75,3 157,5 236,5 31,0 62,0 91,-1 -84,77 -202,144 -293,187 -76,37 -158,59 -249,59z"/>
 </g>
</svg>
