<?xml version="1.0" encoding="UTF-8"?>
<!DOCTYPE svg PUBLIC "-//W3C//DTD SVG 1.1//EN" "http://www.w3.org/Graphics/SVG/1.1/DTD/svg11.dtd">
<!-- Creator: CorelDRAW X8 -->
<svg xmlns="http://www.w3.org/2000/svg" xml:space="preserve" width="930px" height="600px" version="1.1" style="shape-rendering:geometricPrecision; text-rendering:geometricPrecision; image-rendering:optimizeQuality; fill-rule:evenodd; clip-rule:evenodd"
viewBox="0 0 930 600"
 xmlns:xlink="http://www.w3.org/1999/xlink">
 <defs>
  <style type="text/css">
   <![CDATA[
    .fil0 {fill:#009846;fill-rule:nonzero}
   ]]>
  </style>
 </defs>
 <g id="Layer_x0020_1">
  <metadata id="CorelCorpID_0Corel-Layer"/>
  <path class="fil0" d="M569 490c-45,32 -92,57 -141,75 -68,26 -140,38 -216,35 -47,-2 -102,-10 -144,-32 -40,-20 -64,-53 -66,-99 -3,-63 43,-96 104,-113 88,-24 210,-13 269,-11 56,1 114,3 170,2 55,-1 122,-5 174,-30 52,-25 88,-73 89,-132 0,-35 -13,-71 -40,-94 -23,-21 -55,-32 -87,-32 -37,0 -67,14 -87,35 -23,23 -34,55 -34,86l0 110c0,24 -45,30 -62,30 -17,0 -60,-6 -60,-30l0 -110c0,-31 -10,-60 -33,-82 -32,-30 -81,-37 -125,-39 -24,-1 -57,0 -86,8 -16,4 -32,11 -44,20 8,-1 16,-1 24,-1 38,0 76,10 104,30 29,21 47,51 47,87 0,35 -17,62 -41,81 -30,24 -75,36 -117,36 -49,0 -95,-11 -126,-37 -25,-22 -41,-53 -41,-97 0,-54 21,-99 65,-131 59,-43 146,-55 217,-55 71,0 160,8 217,53 50,-40 123,-53 185,-53 67,0 141,17 192,62 36,32 55,76 54,123 -1,43 -17,84 -45,116 -14,17 -31,31 -50,42 28,11 52,27 69,49 16,19 26,43 26,71 0,41 -19,73 -48,95 -35,27 -85,42 -136,42 -49,1 -96,-11 -129,-36 -24,-17 -41,-42 -48,-74zm110 -27c0,38 25,80 66,78 39,-2 63,-43 62,-79 0,-36 -24,-74 -62,-75 -41,-1 -65,39 -66,76zm-511 -202c29,0 48,-31 48,-58 0,-28 -19,-58 -49,-58 -30,0 -50,31 -50,59 1,27 21,57 51,57zm387 145c-27,1 -54,1 -82,0 -34,0 -67,-1 -99,-2 -37,-2 -109,-6 -164,-2 -43,4 -88,13 -89,67 -1,52 51,70 95,73 58,4 113,-9 165,-31 36,-15 71,-34 104,-54 25,-16 49,-33 70,-51z"/>
 </g>
</svg>
