<?xml version="1.0" encoding="UTF-8"?>
<!DOCTYPE svg PUBLIC "-//W3C//DTD SVG 1.1//EN" "http://www.w3.org/Graphics/SVG/1.1/DTD/svg11.dtd">
<!-- Creator: CorelDRAW X8 -->
<svg xmlns="http://www.w3.org/2000/svg" xml:space="preserve" width="2225px" height="1486px" version="1.1" style="shape-rendering:geometricPrecision; text-rendering:geometricPrecision; image-rendering:optimizeQuality; fill-rule:evenodd; clip-rule:evenodd"
viewBox="0 0 2225 1486"
 xmlns:xlink="http://www.w3.org/1999/xlink">
 <defs>
  <style type="text/css">
   <![CDATA[
    .fil0 {fill:#898778;fill-rule:nonzero}
   ]]>
  </style>
 </defs>
 <g id="Layer_x0020_1">
  <metadata id="CorelCorpID_0Corel-Layer"/>
  <path class="fil0" d="M1391 811c-74,59 -154,106 -246,146 -97,42 -201,66 -316,67 -67,1 -132,-6 -186,-19 -104,-26 -189,-85 -193,-202 -4,-112 64,-163 165,-189 113,-30 265,-25 437,-19 186,6 397,12 528,-27 63,-18 116,-49 153,-94 38,-45 59,-100 60,-159 0,-60 -20,-123 -67,-165 -43,-40 -102,-57 -160,-58 -153,-3 -227,103 -227,214l0 190c0,25 -37,45 -82,45 -44,0 -81,-21 -80,-46l0 -189c0,-92 -46,-149 -113,-182 -44,-22 -108,-31 -168,-33 -79,-3 -205,6 -261,72 21,-8 44,-13 67,-14 114,-7 244,66 244,196 0,132 -128,196 -242,196 -77,0 -145,-20 -191,-61 -41,-37 -66,-91 -66,-164 0,-104 42,-176 107,-225 90,-67 222,-90 342,-91 121,-1 273,15 362,107 78,-79 201,-107 308,-106 110,0 222,31 299,102 63,57 91,134 90,212 -2,83 -37,163 -96,222 148,3 255,60 315,151 35,54 53,124 51,193 -2,69 -24,142 -66,212 -168,277 -572,394 -963,393 -267,-1 -535,-45 -750,-160 -262,-141 -444,-386 -446,-764 -1,-213 94,-424 277,-546 30,-20 83,-21 115,-5 31,14 41,43 10,64 -161,106 -240,302 -239,487 0,320 136,536 342,667 188,119 435,165 691,167 329,1 666,-96 808,-332 38,-62 57,-125 58,-184 2,-58 -12,-117 -41,-161 -33,-50 -86,-85 -157,-94 53,39 90,95 91,168 1,149 -144,230 -287,231 -134,2 -265,-66 -277,-213zm147 -18c-1,95 65,142 130,139 62,-2 124,-48 124,-139 0,-88 -62,-136 -124,-136 -65,0 -130,43 -130,136zm-937 -448c0,70 53,105 105,105 51,0 101,-37 101,-105 0,-70 -51,-105 -103,-105 -52,0 -103,35 -103,105zm778 344c-104,3 -223,0 -327,-4 -163,-5 -307,-10 -377,15 -41,16 -67,60 -68,103 -2,68 47,106 108,118 39,9 77,13 113,14 94,1 179,-21 258,-59 91,-43 209,-109 293,-187z"/>
 </g>
</svg>
