<?xml version="1.0" encoding="UTF-8"?>
<!DOCTYPE svg PUBLIC "-//W3C//DTD SVG 1.1//EN" "http://www.w3.org/Graphics/SVG/1.1/DTD/svg11.dtd">
<!-- Creator: CorelDRAW X8 -->
<svg xmlns="http://www.w3.org/2000/svg" xml:space="preserve" width="3486px" height="1486px" version="1.1" style="shape-rendering:geometricPrecision; text-rendering:geometricPrecision; image-rendering:optimizeQuality; fill-rule:evenodd; clip-rule:evenodd"
viewBox="0 0 3486 1486"
 xmlns:xlink="http://www.w3.org/1999/xlink">
 <defs>
  <style type="text/css">
   <![CDATA[
    .fil0 {fill:#2B2A29;fill-rule:nonzero}
   ]]>
  </style>
 </defs>
 <g id="Layer_x0020_1">
  <metadata id="CorelCorpID_0Corel-Layer"/>
  <path class="fil0" d="M3357 1486c45,0 82,-31 82,-69 0,-38 -37,-69 -82,-69l-1459 0c-60,0 -132,-7 -132,-84 0,-58 44,-84 132,-84l1309 0c83,0 163,-19 216,-63 42,-33 63,-81 63,-135 0,-58 -32,-103 -80,-133 42,-32 67,-80 67,-133 0,-100 -66,-157 -156,-183 -48,-14 -104,-21 -161,-21 -45,0 -90,5 -133,14 53,-58 86,-135 86,-215 0,-77 -28,-152 -90,-208 -82,-76 -196,-102 -305,-102 -105,0 -225,28 -302,106 -90,-92 -238,-107 -362,-107 -120,0 -252,23 -342,91 -58,43 -97,104 -106,188 -23,224 -139,426 -341,533 -119,63 -263,93 -407,109 -77,8 -177,14 -276,14 -104,-1 -208,-7 -285,-27 -69,-17 -127,-45 -127,-112 0,-58 39,-87 89,-102 56,-16 119,-14 176,-14 56,0 119,2 184,5 66,2 141,5 218,5 169,0 351,-14 480,-84 111,-60 195,-166 196,-296 0,-77 -30,-153 -91,-208 -77,-70 -189,-102 -299,-102 -107,0 -230,28 -308,106 -87,-88 -238,-106 -357,-106 -118,0 -250,17 -347,91 -64,49 -107,121 -107,225 0,63 19,121 66,164 46,41 114,61 191,61 114,0 242,-64 242,-196 0,-126 -119,-197 -231,-197 -27,0 -54,5 -79,15 49,-59 155,-72 234,-72 62,0 139,5 194,33 67,32 113,90 113,182l0 189c0,25 36,45 81,46 45,0 81,-21 81,-46l0 -189c0,-111 73,-215 223,-215 60,0 120,18 165,59 44,40 66,100 66,159 0,99 -54,184 -140,231 -93,51 -250,61 -388,61 -72,0 -140,-3 -194,-5 -75,-3 -148,-6 -216,-6 -69,0 -145,4 -213,16 -103,19 -191,64 -191,192 0,107 100,162 222,193 116,29 256,33 375,33 98,0 192,-6 269,-13 156,-16 308,-48 441,-118 168,-88 293,-237 362,-408 46,38 111,56 185,56 114,0 242,-64 242,-196 0,-126 -120,-197 -232,-197 -27,0 -53,5 -78,15 48,-59 154,-72 234,-72 60,0 137,5 194,33 67,32 113,90 113,182l0 189c0,25 36,46 80,46 45,0 82,-20 82,-46l0 -189c0,-110 72,-214 221,-214 62,0 120,15 167,58 46,42 66,105 66,165 -1,59 -22,114 -59,159 -37,45 -90,75 -153,94 -84,25 -199,31 -320,31 -70,0 -141,-2 -209,-4 -68,-2 -133,-5 -194,-5 -94,0 -176,6 -244,23 -98,26 -164,75 -164,181 0,122 83,184 192,211 52,12 112,19 174,19 116,0 221,-21 329,-67 93,-40 172,-87 246,-146 12,145 139,213 271,213 137,0 293,-72 293,-229 0,-80 -43,-141 -104,-180 46,-8 93,-11 140,-11 72,3 166,20 166,111 0,44 -27,93 -76,93 -55,0 -82,25 -82,48 0,23 27,44 81,44 53,0 89,22 89,80 0,67 -52,109 -116,109l-1309 0c-137,0 -296,32 -296,200 0,164 162,197 296,197l1459 0zm-3097 -1036c-53,0 -106,-35 -106,-105 0,-70 52,-105 103,-105 52,0 103,35 103,105 0,67 -50,105 -100,105zm1600 0c-52,0 -106,-36 -106,-105 0,-70 52,-105 104,-105 52,0 102,35 102,105 0,67 -50,105 -100,105zm956 482c-80,0 -124,-64 -124,-139 0,-93 65,-136 130,-136 62,0 124,47 124,134 0,79 -48,141 -130,141zm-825 3c-41,0 -83,-5 -123,-14 -60,-12 -108,-49 -108,-114 0,-45 26,-90 70,-107 40,-15 108,-19 190,-19 56,0 119,2 186,4 75,3 157,5 236,5 31,0 62,0 91,-1 -84,77 -202,144 -293,187 -76,37 -158,59 -249,59z"/>
 </g>
</svg>
