<?xml version="1.0" encoding="UTF-8"?>
<!DOCTYPE svg PUBLIC "-//W3C//DTD SVG 1.1//EN" "http://www.w3.org/Graphics/SVG/1.1/DTD/svg11.dtd">
<!-- Creator: CorelDRAW X8 -->
<svg xmlns="http://www.w3.org/2000/svg" xml:space="preserve" width="3427px" height="1486px" version="1.1" style="shape-rendering:geometricPrecision; text-rendering:geometricPrecision; image-rendering:optimizeQuality; fill-rule:evenodd; clip-rule:evenodd"
viewBox="0 0 3427 1486"
 xmlns:xlink="http://www.w3.org/1999/xlink">
 <defs>
  <style type="text/css">
   <![CDATA[
    .fil0 {fill:#2B2A29;fill-rule:nonzero}
   ]]>
  </style>
 </defs>
 <g id="Layer_x0020_1">
  <metadata id="CorelCorpID_0Corel-Layer"/>
  <path class="fil0" d="M1991 935c-86,0 -231,-15 -231,-128 0,-45 26,-91 70,-107 40,-15 108,-19 190,-19 56,0 119,1 186,4 75,3 157,5 236,5 31,0 62,0 91,-1 -84,77 -203,143 -293,187 -77,36 -158,59 -249,59zm825 -3c-80,0 -124,-64 -124,-139 0,-93 65,-136 130,-136 62,0 124,47 124,134 0,79 -48,141 -130,141zm-956 -482c-52,0 -106,-36 -106,-105 0,-70 52,-105 104,-105 52,0 102,35 102,105 0,67 -50,105 -100,105zm-1600 0c-53,0 -106,-35 -106,-105 0,-70 52,-105 103,-105 52,0 103,35 103,105 0,67 -50,105 -100,105zm2849 345c0,-79 -42,-139 -103,-179 156,6 258,149 258,297 0,115 -57,223 -142,299 -98,87 -223,138 -350,167 17,-19 27,-42 27,-68 0,-87 -119,-134 -196,-152 -53,-12 -114,-19 -189,-19 -81,0 -152,7 -208,22 -122,31 -182,90 -182,149 0,79 85,124 180,149 77,20 161,26 210,26 129,0 254,-4 382,-26 173,-29 340,-89 464,-200 97,-87 167,-214 167,-347 0,-235 -186,-373 -409,-382 56,-59 91,-138 91,-220 0,-77 -28,-152 -90,-208 -82,-75 -196,-102 -305,-102 -105,0 -225,28 -302,106 -91,-93 -239,-107 -362,-107 -120,0 -252,23 -342,91 -58,43 -97,104 -106,188 -23,224 -139,426 -341,533 -119,63 -263,93 -407,109 -77,8 -177,14 -276,14 -104,-1 -208,-8 -285,-27 -69,-17 -127,-45 -127,-112 0,-58 39,-88 89,-102 56,-16 119,-14 176,-14 56,0 119,2 184,5 66,2 141,5 218,5 169,0 351,-14 480,-84 111,-60 196,-166 196,-296 1,-77 -30,-153 -91,-208 -77,-70 -189,-102 -299,-102 -107,0 -230,28 -308,106 -87,-88 -238,-106 -357,-106 -118,0 -250,17 -347,91 -64,49 -107,121 -107,225 0,63 19,121 66,164 46,41 114,61 191,61 114,0 242,-64 242,-196 0,-126 -119,-197 -231,-197 -27,0 -54,5 -79,15 49,-59 155,-72 234,-72 62,0 138,6 194,33 67,32 113,90 113,182l0 189c0,25 36,45 81,46 45,0 81,-21 81,-46l0 -189c0,-111 73,-215 223,-215 60,0 120,18 165,59 44,40 66,100 66,159 0,99 -54,184 -140,231 -93,50 -250,61 -388,61 -72,0 -140,-3 -194,-5 -75,-3 -148,-6 -216,-6 -69,0 -145,4 -213,16 -103,19 -191,64 -191,192 0,107 100,162 222,193 116,29 256,33 375,33 98,0 192,-5 269,-13 156,-15 308,-48 441,-118 168,-89 293,-237 362,-408 46,38 111,56 185,56 114,0 242,-64 242,-196 0,-126 -120,-197 -232,-197 -27,0 -53,5 -78,15 48,-59 154,-72 234,-72 61,0 137,5 194,33 66,32 113,90 113,182l0 189c0,25 36,46 80,46 45,0 82,-20 82,-46l0 -189c0,-110 72,-214 221,-214 62,0 120,15 167,58 46,42 66,105 66,165 -1,59 -22,114 -59,159 -37,45 -90,75 -153,94 -84,25 -199,31 -320,31 -70,0 -141,-2 -209,-4 -68,-2 -133,-5 -194,-5 -94,0 -176,5 -244,23 -98,25 -164,75 -164,181 0,195 213,230 366,230 116,0 221,-21 329,-67 93,-40 172,-87 246,-146 12,145 139,213 271,213 137,0 293,-72 293,-229zm-695 606c-165,0 -242,-45 -242,-90 0,-45 86,-87 242,-87 155,0 236,45 236,87 0,43 -73,90 -236,90z"/>
 </g>
</svg>
