<?xml version="1.0" encoding="UTF-8"?>
<!DOCTYPE svg PUBLIC "-//W3C//DTD SVG 1.1//EN" "http://www.w3.org/Graphics/SVG/1.1/DTD/svg11.dtd">
<!-- Creator: CorelDRAW X8 -->
<svg xmlns="http://www.w3.org/2000/svg" xml:space="preserve" width="3379px" height="1486px" version="1.1" style="shape-rendering:geometricPrecision; text-rendering:geometricPrecision; image-rendering:optimizeQuality; fill-rule:evenodd; clip-rule:evenodd"
viewBox="0 0 3379 1486"
 xmlns:xlink="http://www.w3.org/1999/xlink">
 <defs>
  <style type="text/css">
   <![CDATA[
    .fil0 {fill:#2B2A29;fill-rule:nonzero}
   ]]>
  </style>
 </defs>
 <g id="Layer_x0020_1">
  <metadata id="CorelCorpID_0Corel-Layer"/>
  <path class="fil0" d="M3250 1486c45,0 81,-32 81,-70 0,-38 -36,-69 -81,-69l-1350 0c-65,0 -131,-6 -131,-86 0,-56 44,-81 131,-81l1010 0c137,0 291,-37 384,-130 52,-52 85,-121 85,-211 0,-89 -35,-177 -106,-234 -75,-60 -166,-70 -259,-70 7,-7 14,-15 21,-23 46,-56 74,-128 74,-201 0,-77 -28,-152 -90,-208 -82,-76 -196,-102 -305,-102 -105,0 -225,28 -302,106 -90,-92 -239,-107 -362,-107 -120,0 -252,23 -342,91 -58,43 -97,104 -106,188 -23,224 -139,426 -341,533 -119,63 -263,93 -407,109 -77,8 -177,14 -276,14 -104,-1 -208,-7 -285,-27 -69,-17 -127,-45 -127,-112 0,-58 39,-87 89,-102 56,-16 119,-14 176,-14 56,0 119,2 184,5 66,2 141,5 218,5 169,0 351,-14 480,-84 111,-60 195,-166 196,-296 0,-77 -30,-153 -91,-208 -77,-70 -189,-102 -299,-102 -107,0 -230,28 -308,106 -87,-88 -238,-106 -357,-106 -118,0 -250,17 -347,91 -64,49 -107,121 -107,225 0,63 19,121 66,164 46,41 114,61 191,61 114,0 242,-64 242,-196 0,-126 -119,-197 -231,-197 -27,0 -54,5 -79,15 49,-59 155,-72 234,-72 62,0 139,5 194,33 67,32 113,90 113,182l0 189c0,25 36,45 81,46 45,0 81,-21 81,-46l0 -189c0,-111 73,-215 223,-215 60,0 120,18 165,59 44,40 66,100 66,159 0,99 -54,185 -140,231 -93,51 -250,61 -388,61 -72,0 -140,-3 -194,-5 -75,-3 -148,-6 -216,-6 -69,0 -145,4 -213,16 -103,19 -191,65 -191,192 0,107 100,162 222,193 116,29 256,33 375,33 98,0 192,-6 269,-13 156,-16 308,-48 441,-118 168,-88 293,-237 362,-408 46,38 111,56 185,56 114,0 242,-64 242,-196 0,-126 -120,-197 -231,-197 -28,0 -54,5 -79,15 49,-59 155,-72 234,-72 61,0 138,5 194,33 67,32 113,90 113,182l0 189c0,25 36,46 80,46 45,0 82,-20 82,-46l0 -189c0,-110 72,-214 221,-214 62,0 120,15 167,58 46,42 66,105 66,165 -1,59 -22,114 -59,159 -37,45 -90,75 -153,94 -84,25 -199,31 -320,31 -70,0 -141,-2 -209,-4 -68,-2 -133,-5 -194,-5 -93,0 -175,6 -243,23 -99,26 -165,75 -165,181 0,122 83,184 193,211 51,12 111,19 173,19 116,0 222,-20 329,-67 93,-40 172,-87 246,-146 12,145 139,213 271,213 137,0 293,-72 293,-229 0,-76 -39,-135 -97,-175 48,0 89,8 127,38 54,43 77,114 77,181 0,66 -19,118 -51,156 -56,66 -151,94 -255,94l-1010 0c-135,0 -296,32 -296,198 0,165 160,199 296,199l1350 0zm-2990 -1036c-53,0 -106,-35 -106,-105 0,-70 52,-105 103,-105 52,0 103,35 103,105 0,67 -50,105 -100,105zm1600 0c-52,0 -105,-36 -105,-105 0,-70 52,-105 103,-105 52,0 103,35 103,105 0,67 -50,105 -101,105zm956 482c-80,0 -124,-64 -124,-139 0,-93 65,-136 130,-136 62,0 124,47 124,134 0,79 -48,141 -130,141zm-825 3c-40,0 -83,-5 -122,-14 -60,-12 -108,-49 -108,-114 0,-45 25,-90 69,-107 41,-15 108,-19 190,-19 56,0 119,2 186,4 75,3 157,5 236,5 31,0 62,0 91,-1 -84,77 -202,144 -293,187 -76,37 -158,59 -249,59z"/>
 </g>
</svg>
