<?xml version="1.0" encoding="UTF-8"?>
<!DOCTYPE svg PUBLIC "-//W3C//DTD SVG 1.1//EN" "http://www.w3.org/Graphics/SVG/1.1/DTD/svg11.dtd">
<!-- Creator: CorelDRAW X8 -->
<svg xmlns="http://www.w3.org/2000/svg" xml:space="preserve" width="3854px" height="1024px" version="1.1" style="shape-rendering:geometricPrecision; text-rendering:geometricPrecision; image-rendering:optimizeQuality; fill-rule:evenodd; clip-rule:evenodd"
viewBox="0 0 3854 1024"
 xmlns:xlink="http://www.w3.org/1999/xlink">
 <defs>
  <style type="text/css">
   <![CDATA[
    .fil0 {fill:#898778;fill-rule:nonzero}
   ]]>
  </style>
 </defs>
 <g id="Layer_x0020_1">
  <metadata id="CorelCorpID_0Corel-Layer"/>
  <path class="fil0" d="M1346 314c0,-61 -21,-122 -66,-164 -44,-40 -103,-57 -161,-58 -153,-3 -227,103 -227,214l0 190c0,25 -37,45 -82,45 -44,0 -80,-21 -80,-46l0 -189c0,-92 -46,-149 -113,-182 -44,-22 -108,-31 -168,-33 -79,-3 -205,6 -260,72 20,-8 43,-13 66,-14 114,-7 244,66 244,196 0,132 -128,196 -242,196 -77,0 -145,-20 -191,-61 -47,-43 -66,-101 -66,-164 0,-104 42,-176 107,-225 90,-67 222,-90 342,-91 121,-1 273,15 362,107 78,-79 201,-106 308,-106 110,0 222,31 299,102 61,55 91,131 91,208 -1,130 -85,235 -196,295 -135,73 -324,84 -479,84 -78,0 -154,-2 -227,-5 -142,-4 -274,-9 -351,7 -42,9 -88,41 -89,90 -1,64 62,102 143,124 86,23 209,31 336,30 136,-2 280,-6 420,-30 186,-32 363,-98 498,-236 -22,-140 -15,-276 49,-403 83,-166 246,-269 468,-267 141,1 299,36 392,149 87,-105 234,-149 381,-149 85,0 160,14 227,38 66,-24 142,-38 227,-38 197,0 384,98 477,276 45,87 69,193 69,298 0,166 -60,338 -208,426 -40,25 -93,35 -135,9 -32,-19 -28,-47 4,-64 130,-68 176,-235 176,-371 1,-97 -21,-194 -62,-272 -62,-119 -184,-211 -321,-211 -36,0 -69,4 -101,12 160,112 241,303 241,494 1,91 -19,179 -58,250 -65,119 -177,176 -309,176 -132,0 -244,-57 -309,-175 -38,-71 -58,-160 -58,-251 0,-192 82,-382 242,-494 -32,-8 -66,-12 -102,-12 -195,0 -296,110 -296,303l0 584c0,25 -37,46 -81,46 -45,0 -82,-21 -82,-46l0 -584c0,-196 -126,-303 -314,-303 -147,0 -258,90 -317,210 -32,64 -49,136 -50,209 52,-75 130,-116 219,-119 98,-3 191,34 251,98 53,56 81,133 78,221 -2,89 -36,179 -105,236 -58,48 -141,75 -224,77 -84,2 -155,-21 -221,-75 -52,-42 -90,-100 -116,-166 -141,120 -322,180 -510,210 -148,24 -300,30 -440,31 -141,1 -286,-5 -399,-28 -109,-22 -246,-64 -242,-210 3,-129 128,-170 231,-185 106,-15 239,-10 380,-6 73,3 149,6 218,5 112,0 267,-5 366,-58 85,-46 144,-130 146,-227zm1735 -153c-137,96 -204,272 -204,436 0,82 17,162 51,224 31,58 83,111 153,111 70,0 122,-54 154,-112 34,-62 51,-141 51,-223 0,-163 -69,-340 -205,-436zm-1148 771c85,1 174,-73 174,-222 0,-148 -87,-222 -174,-222 -106,0 -188,98 -207,183 0,107 85,261 207,261zm-1779 -587c0,70 53,105 105,105 51,0 101,-37 101,-105 0,-70 -51,-105 -103,-105 -51,0 -103,35 -103,105z"/>
 </g>
</svg>
