<?xml version="1.0" encoding="UTF-8"?>
<!DOCTYPE svg PUBLIC "-//W3C//DTD SVG 1.1//EN" "http://www.w3.org/Graphics/SVG/1.1/DTD/svg11.dtd">
<!-- Creator: CorelDRAW X8 -->
<svg xmlns="http://www.w3.org/2000/svg" xml:space="preserve" width="1123px" height="868px" version="1.1" style="shape-rendering:geometricPrecision; text-rendering:geometricPrecision; image-rendering:optimizeQuality; fill-rule:evenodd; clip-rule:evenodd"
viewBox="0 0 1123 868"
 xmlns:xlink="http://www.w3.org/1999/xlink">
 <defs>
  <style type="text/css">
   <![CDATA[
    .fil0 {fill:#009846}
   ]]>
  </style>
 </defs>
 <g id="Layer_x0020_1">
  <metadata id="CorelCorpID_0Corel-Layer"/>
  <path class="fil0" d="M501 716c-30,0 -67,2 -96,13 -14,5 -36,17 -37,35 0,18 23,29 37,35 29,11 66,13 96,13 27,0 54,-2 80,-9 17,-5 49,-18 49,-39 0,-22 -32,-34 -48,-39 -26,-7 -54,-9 -81,-9zm68 -226c-45,32 -92,57 -141,76 -68,25 -140,37 -216,34 -47,-2 -102,-10 -144,-31 -40,-21 -64,-54 -66,-100 -3,-63 42,-96 103,-113 89,-24 211,-13 270,-11 56,2 113,4 170,2 54,-1 122,-5 174,-30 52,-25 88,-73 89,-131 0,-36 -13,-71 -40,-95 -23,-21 -55,-32 -87,-32 -37,0 -67,14 -87,35 -23,23 -34,55 -34,87l0 110c0,23 -45,29 -62,29 -17,0 -60,-6 -60,-30l0 -109c0,-32 -10,-61 -33,-83 -32,-30 -81,-37 -125,-39 -24,-1 -57,0 -86,8 -16,5 -32,11 -44,20 8,-1 16,-1 24,-1 38,0 76,10 104,30 28,21 46,51 46,87 0,35 -16,63 -40,82 -31,23 -75,35 -117,35 -49,0 -95,-11 -126,-37 -25,-21 -41,-53 -41,-97 0,-54 21,-99 65,-131 59,-43 146,-55 217,-55 71,0 160,8 217,53 50,-39 123,-53 185,-53 67,1 140,17 191,62 36,32 56,76 55,124 -1,45 -20,89 -52,122 71,8 135,27 179,65 42,35 67,88 66,163 -1,78 -45,149 -103,199 -79,69 -187,102 -290,119 -76,12 -153,15 -230,14 -45,-1 -92,-4 -136,-16 -40,-10 -110,-38 -110,-88 1,-52 73,-79 113,-89 43,-11 90,-14 134,-14 41,0 82,3 122,12 42,10 121,37 121,91 0,11 -3,21 -9,30 65,-17 128,-45 179,-89 48,-42 85,-103 86,-169 1,-50 -13,-94 -41,-126 -20,-22 -47,-37 -81,-43 32,23 51,56 52,96 0,41 -19,73 -48,95 -35,27 -85,42 -136,42 -49,1 -96,-11 -129,-36 -24,-17 -41,-42 -48,-74zm110 -27c0,38 25,80 66,78 39,-2 63,-43 62,-79 0,-35 -24,-74 -62,-75 -41,0 -65,39 -66,76zm-511 -202c29,0 48,-31 48,-58 0,-28 -19,-58 -49,-58 -30,0 -50,31 -50,59 1,28 21,57 51,57zm387 145c-27,1 -54,1 -82,0 -34,0 -68,-1 -99,-2 -37,-1 -109,-6 -164,-2 -43,4 -88,13 -89,67 -1,53 51,70 95,73 57,4 113,-9 165,-31 36,-15 71,-34 104,-54 25,-16 49,-33 70,-51z"/>
 </g>
</svg>
