<?xml version="1.0" encoding="UTF-8"?>
<!DOCTYPE svg PUBLIC "-//W3C//DTD SVG 1.1//EN" "http://www.w3.org/Graphics/SVG/1.1/DTD/svg11.dtd">
<!-- Creator: CorelDRAW X8 -->
<svg xmlns="http://www.w3.org/2000/svg" xml:space="preserve" width="1155px" height="868px" version="1.1" style="shape-rendering:geometricPrecision; text-rendering:geometricPrecision; image-rendering:optimizeQuality; fill-rule:evenodd; clip-rule:evenodd"
viewBox="0 0 1155 868"
 xmlns:xlink="http://www.w3.org/1999/xlink">
 <defs>
  <style type="text/css">
   <![CDATA[
    .fil0 {fill:#2B2A29;fill-rule:nonzero}
   ]]>
  </style>
 </defs>
 <g id="Layer_x0020_1">
  <metadata id="CorelCorpID_0Corel-Layer"/>
  <path class="fil0" d="M882 558c29,-22 48,-54 48,-95 0,-27 -9,-50 -26,-71 -10,-12 -21,-22 -34,-31 22,-3 43,-4 66,-4 75,2 111,31 113,58l0 6c0,25 -17,47 -37,48 -39,2 -56,16 -56,30 0,14 20,29 52,29 30,0 48,18 48,48 0,27 -28,56 -81,56l-785 0c-80,0 -190,14 -190,118 0,102 110,118 190,118l875 0c26,0 62,-12 62,-43 0,-31 -36,-43 -62,-43l-875 0c-34,0 -66,-6 -66,-47 0,-37 34,-44 66,-44l785 0c47,0 104,-9 142,-39 25,-20 38,-47 38,-79 0,-33 -20,-60 -47,-78 24,-18 39,-45 39,-75 0,-40 -17,-70 -52,-91 -42,-25 -101,-32 -148,-32 -21,0 -41,2 -62,4 29,-33 45,-76 45,-120 0,-45 -19,-88 -54,-119 -51,-45 -125,-62 -192,-62 -62,0 -135,13 -185,53 -57,-45 -146,-53 -217,-53 -71,0 -158,12 -217,55 -44,32 -65,77 -65,131 0,44 16,75 41,97 31,26 77,37 126,37 42,0 87,-12 117,-36 24,-19 41,-46 41,-81 0,-36 -18,-66 -47,-87 -28,-20 -66,-30 -104,-30 -8,0 -16,0 -24,1 12,-9 28,-16 44,-20 23,-6 49,-8 71,-8 47,0 104,6 140,39 23,22 33,51 33,82l0 110c0,24 43,30 60,30 17,0 62,-6 62,-30l0 -110c0,-31 11,-63 34,-86 20,-21 50,-35 87,-35 32,0 64,11 87,32 27,23 40,59 40,94 -1,59 -37,107 -89,132 -61,29 -139,30 -206,30 -46,0 -93,-1 -138,-2 -29,-1 -75,-4 -124,-4 -48,0 -101,3 -145,15 -59,16 -104,48 -104,107 0,48 23,84 66,105 50,26 111,32 167,32 67,0 132,-12 193,-35 49,-18 96,-43 141,-75 7,32 24,57 48,74 32,24 76,36 123,36 50,0 101,-11 142,-42zm-714 -297c-30,0 -50,-30 -51,-57 0,-28 20,-59 50,-59 30,0 49,30 49,58 0,27 -19,58 -48,58zm574 280c-39,0 -63,-41 -63,-78 1,-37 24,-76 64,-76 40,0 64,39 64,75 0,37 -24,79 -65,79zm-526 1c-44,0 -95,-21 -95,-72 0,-36 20,-53 46,-61 31,-9 66,-8 98,-9 41,0 83,3 109,4 32,1 65,2 99,2l82 0c-21,18 -45,35 -70,51 -33,20 -68,39 -104,54 -57,24 -93,31 -165,31z"/>
 </g>
</svg>
