<?xml version="1.0" encoding="UTF-8"?>
<!DOCTYPE svg PUBLIC "-//W3C//DTD SVG 1.1//EN" "http://www.w3.org/Graphics/SVG/1.1/DTD/svg11.dtd">
<!-- Creator: CorelDRAW X8 -->
<svg xmlns="http://www.w3.org/2000/svg" xml:space="preserve" width="3854px" height="1024px" version="1.1" style="shape-rendering:geometricPrecision; text-rendering:geometricPrecision; image-rendering:optimizeQuality; fill-rule:evenodd; clip-rule:evenodd"
viewBox="0 0 3854 1024"
 xmlns:xlink="http://www.w3.org/1999/xlink">
 <defs>
  <style type="text/css">
   <![CDATA[
    .fil0 {fill:#009846;fill-rule:nonzero}
   ]]>
  </style>
 </defs>
 <g id="Layer_x0020_1">
  <metadata id="CorelCorpID_0Corel-Layer"/>
  <path class="fil0" d="M1346 314c0,-61 -21,-123 -66,-164 -44,-40 -103,-58 -161,-58 -153,-3 -227,102 -227,214l0 189c0,26 -37,46 -82,46 -44,0 -80,-21 -80,-46l0 -189c0,-92 -46,-150 -113,-182 -44,-22 -108,-31 -168,-33 -79,-3 -205,6 -260,72 20,-8 43,-13 66,-15 114,-6 244,66 244,197 0,132 -128,196 -242,196 -77,0 -145,-20 -191,-62 -47,-42 -66,-101 -66,-163 0,-104 42,-176 107,-225 90,-68 222,-91 342,-91 121,-1 273,15 362,107 78,-79 201,-107 308,-106 110,0 222,31 299,102 61,55 91,130 91,208 -1,130 -85,235 -196,295 -135,73 -324,84 -479,84 -78,0 -154,-2 -227,-5 -142,-5 -274,-9 -351,7 -43,9 -88,41 -89,89 -1,65 62,103 143,125 86,23 209,31 336,29 136,-1 280,-6 419,-29 187,-32 364,-98 499,-237 -22,-139 -15,-275 49,-402 83,-166 246,-269 468,-267 141,1 299,36 392,149 87,-105 234,-149 381,-149 85,0 160,13 227,38 66,-25 142,-38 227,-38 197,-1 384,98 477,276 45,86 69,192 69,297 0,166 -60,338 -208,427 -40,24 -93,35 -135,9 -32,-19 -28,-48 4,-64 130,-68 176,-235 176,-372 1,-96 -21,-193 -62,-272 -62,-118 -184,-211 -321,-210 -36,0 -69,4 -101,12 160,111 241,302 242,493 0,92 -20,180 -59,251 -65,119 -177,176 -309,176 -132,0 -244,-57 -309,-176 -38,-70 -58,-159 -58,-251 0,-191 82,-381 242,-493 -32,-8 -66,-12 -102,-12 -195,0 -296,109 -296,303l0 584c0,25 -37,45 -81,45 -45,0 -82,-20 -82,-45l0 -584c0,-196 -126,-303 -314,-303 -147,0 -258,89 -317,209 -32,64 -49,137 -50,210 52,-75 130,-116 219,-119 98,-3 191,34 251,97 53,57 81,133 78,222 -2,89 -36,179 -105,236 -58,47 -141,75 -224,77 -84,2 -155,-21 -221,-75 -52,-43 -90,-101 -116,-166 -141,119 -322,180 -510,210 -148,24 -300,30 -440,31 -141,1 -286,-5 -399,-28 -109,-22 -246,-64 -242,-210 3,-129 128,-170 231,-185 106,-15 239,-11 380,-6 73,3 149,5 218,5 112,0 267,-5 366,-59 85,-45 144,-129 146,-226zm1735 -154c-137,97 -204,273 -204,436 0,83 17,163 51,225 31,58 83,111 153,111 70,0 122,-54 154,-112 34,-62 51,-141 51,-224 0,-163 -69,-340 -205,-436zm-1148 772c85,0 174,-73 174,-222 0,-148 -87,-223 -174,-222 -106,0 -188,97 -207,183 0,107 85,261 207,261zm-1779 -587c0,69 53,105 105,105 51,0 101,-38 101,-105 0,-70 -51,-105 -103,-105 -52,0 -103,35 -103,105z"/>
 </g>
</svg>
