<?xml version="1.0" encoding="UTF-8"?>
<!DOCTYPE svg PUBLIC "-//W3C//DTD SVG 1.1//EN" "http://www.w3.org/Graphics/SVG/1.1/DTD/svg11.dtd">
<!-- Creator: CorelDRAW X8 -->
<svg xmlns="http://www.w3.org/2000/svg" xml:space="preserve" width="3426px" height="1486px" version="1.1" style="shape-rendering:geometricPrecision; text-rendering:geometricPrecision; image-rendering:optimizeQuality; fill-rule:evenodd; clip-rule:evenodd"
viewBox="0 0 3426 1486"
 xmlns:xlink="http://www.w3.org/1999/xlink">
 <defs>
  <style type="text/css">
   <![CDATA[
    .fil0 {fill:#009846;fill-rule:nonzero}
   ]]>
  </style>
 </defs>
 <g id="Layer_x0020_1">
  <metadata id="CorelCorpID_0Corel-Layer"/>
  <path class="fil0" d="M2414 1223c-77,0 -137,11 -177,26 -43,17 -65,39 -65,62 -1,24 21,47 64,64 40,15 101,26 178,26 62,0 110,-7 148,-18 59,-18 88,-45 88,-72 -1,-26 -29,-52 -86,-69 -39,-11 -87,-19 -150,-19zm-366 -1132c-79,-3 -205,6 -260,72 21,-9 43,-14 66,-15 115,-7 244,66 244,196 1,132 -128,196 -242,196 -73,0 -138,-18 -184,-55 -69,171 -194,318 -361,406 -133,71 -286,103 -442,119 -82,8 -185,13 -292,13 -126,-1 -258,-10 -351,-34 -128,-32 -233,-91 -222,-209 15,-162 190,-180 321,-189 89,-5 192,0 299,4 157,5 436,20 576,-56 85,-46 145,-129 146,-227 0,-60 -21,-122 -66,-163 -44,-40 -103,-57 -161,-58 -153,-2 -227,102 -227,214l0 189c0,25 -37,46 -81,46 -45,-1 -81,-21 -81,-46l0 -189c0,-92 -46,-149 -113,-182 -44,-22 -108,-30 -167,-32 -80,-3 -206,6 -262,72 21,-9 44,-14 67,-15 114,-7 244,66 244,196 0,132 -128,196 -242,196 -77,0 -145,-20 -191,-61 -47,-43 -66,-101 -66,-164 0,-103 42,-175 107,-224 90,-68 223,-90 343,-91 120,-1 272,14 361,106 78,-79 201,-106 308,-106 110,0 222,31 299,101 61,55 91,131 91,209 -1,129 -85,235 -196,295 -188,102 -490,85 -698,79 -104,-4 -202,-7 -277,-2 -67,5 -163,18 -171,102 -7,70 53,104 126,122 77,20 180,27 284,27 100,1 200,-5 276,-13 145,-16 289,-46 408,-109 182,-97 303,-263 341,-539 10,-76 44,-135 104,-181 90,-68 223,-90 342,-91 124,-1 274,16 363,107 77,-79 201,-107 307,-107 110,1 222,32 300,102 62,57 91,134 89,212 -1,81 -35,159 -90,217 224,8 411,152 409,389 -1,128 -66,250 -167,340 -171,154 -425,208 -663,222 -62,4 -124,5 -182,4 -74,-2 -148,-8 -213,-26 -119,-32 -178,-90 -178,-149 0,-59 61,-117 183,-149 55,-14 126,-22 208,-22 74,0 135,7 188,19 77,18 196,65 196,152 0,26 -10,49 -27,68 128,-29 253,-80 350,-167 85,-76 140,-182 142,-292 3,-151 -100,-298 -258,-304 60,39 102,98 103,177 1,148 -144,229 -287,231 -134,2 -265,-66 -277,-213 -74,58 -154,106 -246,146 -97,42 -201,66 -316,67 -67,1 -132,-6 -186,-19 -104,-26 -189,-85 -193,-201 -5,-113 64,-164 165,-190 113,-30 264,-25 437,-19 186,6 397,12 528,-27 63,-19 116,-49 153,-94 38,-46 59,-101 59,-160 1,-59 -20,-122 -66,-164 -44,-40 -102,-58 -161,-59 -152,-2 -226,103 -226,215l-1 189c0,26 -36,46 -81,46 -45,0 -81,-21 -81,-46l0 -189c1,-92 -46,-149 -113,-182 -47,-23 -116,-31 -168,-33zm484 597c-104,4 -223,1 -327,-3 -163,-5 -307,-10 -377,16 -41,15 -67,59 -68,103 -2,67 47,105 108,118 38,8 75,12 111,13 95,2 180,-21 259,-59 92,-43 210,-110 294,-188zm158 105c0,95 66,141 131,139 62,-2 124,-48 124,-139 0,-89 -62,-137 -124,-137 -65,0 -130,43 -131,137zm-2536 -449c0,70 53,105 105,105 51,0 101,-37 101,-105 0,-70 -51,-105 -103,-105 -51,0 -103,35 -103,105zm1599 0c0,70 53,105 106,105 50,0 101,-37 101,-105 0,-70 -52,-105 -103,-105 -52,0 -104,35 -104,105z"/>
 </g>
</svg>
