<?xml version="1.0" encoding="UTF-8"?>
<!DOCTYPE svg PUBLIC "-//W3C//DTD SVG 1.1//EN" "http://www.w3.org/Graphics/SVG/1.1/DTD/svg11.dtd">
<!-- Creator: CorelDRAW X8 -->
<svg xmlns="http://www.w3.org/2000/svg" xml:space="preserve" width="1885px" height="1486px" version="1.1" style="shape-rendering:geometricPrecision; text-rendering:geometricPrecision; image-rendering:optimizeQuality; fill-rule:evenodd; clip-rule:evenodd"
viewBox="0 0 1885 1486"
 xmlns:xlink="http://www.w3.org/1999/xlink">
 <defs>
  <style type="text/css">
   <![CDATA[
    .fil0 {fill:#009846;fill-rule:nonzero}
   ]]>
  </style>
 </defs>
 <g id="Layer_x0020_1">
  <metadata id="CorelCorpID_0Corel-Layer"/>
  <path class="fil0" d="M1091 793c0,95 65,141 130,139 63,-2 124,-48 125,-139 0,-89 -62,-137 -125,-137 -64,0 -130,44 -130,137zm-937 -448c0,70 53,105 105,105 51,0 101,-37 101,-105 0,-70 -51,-105 -103,-105 -51,0 -103,35 -103,105zm778 343c-104,4 -222,1 -326,-2 -163,-6 -308,-11 -377,15 -42,15 -68,59 -69,103 -1,67 47,105 108,118 40,8 78,12 114,13 94,1 179,-21 257,-59 92,-43 210,-109 293,-188zm12 123c-74,59 -153,106 -245,146 -97,42 -201,66 -316,67 -67,1 -133,-6 -186,-19 -105,-26 -189,-85 -194,-201 -4,-113 65,-164 166,-190 113,-30 264,-25 437,-19 186,6 396,12 528,-27 63,-19 116,-49 153,-94 37,-46 58,-101 59,-160 0,-59 -20,-122 -66,-164 -44,-40 -103,-58 -161,-59 -153,-2 -227,103 -227,215l0 189c0,26 -37,46 -81,46 -45,0 -81,-21 -81,-46l0 -189c0,-92 -46,-149 -113,-182 -44,-22 -108,-31 -168,-33 -79,-3 -205,7 -260,73 20,-9 43,-14 66,-15 114,-7 244,66 244,196 0,132 -128,196 -242,196 -77,0 -145,-19 -191,-61 -41,-37 -66,-91 -66,-164 0,-103 42,-175 107,-224 90,-68 222,-91 342,-92 121,-1 273,15 362,107 78,-79 201,-107 308,-107 110,1 222,32 299,102 63,57 91,134 90,212 -1,78 -33,154 -85,212 36,-8 78,-13 121,-14 60,-1 121,6 172,21 83,24 150,75 156,172 4,57 -22,110 -67,144 49,31 82,78 80,138 -2,57 -26,100 -63,130 -53,44 -133,63 -216,63 -436,0 -872,0 -1308,0 -90,0 -133,27 -132,86 2,62 46,82 132,82l1458 0c45,0 82,31 82,69 0,38 -37,69 -82,69l-1458 0c-137,0 -300,-34 -296,-203 2,-123 94,-194 296,-194 436,0 872,0 1308,0 61,0 114,-40 116,-103 3,-52 -30,-88 -82,-86 -45,2 -84,-16 -88,-41 -6,-37 56,-51 82,-51 51,0 79,-54 76,-100 -6,-86 -96,-101 -166,-104 -47,-1 -97,3 -140,11 61,39 104,98 104,178 1,148 -144,229 -287,231 -133,2 -264,-66 -277,-213z"/>
 </g>
</svg>
