<?xml version="1.0" encoding="UTF-8"?>
<!DOCTYPE svg PUBLIC "-//W3C//DTD SVG 1.1//EN" "http://www.w3.org/Graphics/SVG/1.1/DTD/svg11.dtd">
<!-- Creator: CorelDRAW X8 -->
<svg xmlns="http://www.w3.org/2000/svg" xml:space="preserve" width="3108px" height="1024px" version="1.1" style="shape-rendering:geometricPrecision; text-rendering:geometricPrecision; image-rendering:optimizeQuality; fill-rule:evenodd; clip-rule:evenodd"
viewBox="0 0 3108 1024"
 xmlns:xlink="http://www.w3.org/1999/xlink">
 <defs>
  <style type="text/css">
   <![CDATA[
    .fil0 {fill:#2B2A29;fill-rule:nonzero}
   ]]>
  </style>
 </defs>
 <g id="Layer_x0020_1">
  <metadata id="CorelCorpID_0Corel-Layer"/>
  <path class="fil0" d="M3108 795c0,-102 -69,-173 -160,-208 33,-21 62,-46 86,-75 47,-56 74,-128 74,-201 0,-77 -28,-152 -90,-208 -82,-75 -196,-102 -305,-102 -105,0 -225,28 -302,106 -90,-93 -239,-107 -362,-107 -120,0 -252,23 -342,91 -57,43 -96,104 -105,188 -23,224 -139,426 -341,533 -119,63 -263,93 -407,109 -77,8 -177,14 -276,14 -104,0 -209,-7 -285,-27 -70,-17 -127,-45 -127,-112 0,-58 38,-87 89,-102 55,-16 118,-14 176,-14 56,0 119,3 184,5 66,2 141,5 218,5 169,0 351,-14 480,-84 111,-60 195,-166 196,-296 0,-77 -30,-153 -91,-208 -77,-70 -189,-102 -299,-102 -107,0 -230,28 -308,106 -87,-88 -238,-106 -357,-106 -119,0 -250,17 -347,91 -64,49 -107,121 -107,225 0,63 18,121 66,164 45,41 114,61 191,61 114,0 242,-64 242,-196 0,-126 -119,-197 -231,-197 -28,0 -54,5 -79,15 49,-59 155,-72 234,-72 61,0 138,6 194,33 67,32 113,90 113,182l0 189c0,25 36,45 81,46 45,1 81,-21 81,-46l0 -189c0,-111 73,-215 223,-215 60,0 120,18 165,59 44,40 66,100 66,159 0,99 -55,184 -140,231 -93,50 -250,61 -388,61 -72,0 -140,-3 -194,-5 -75,-3 -148,-6 -216,-6 -69,0 -145,4 -213,16 -103,19 -191,64 -191,192 0,107 99,162 222,193 115,29 255,33 375,33 98,0 192,-5 269,-13 156,-15 308,-48 441,-118 167,-89 293,-237 362,-408 46,38 111,56 184,56 114,0 242,-64 242,-196 0,-126 -120,-197 -231,-197 -27,0 -54,5 -79,15 49,-59 155,-72 234,-72 62,0 138,6 194,33 67,32 113,90 113,182l0 189c0,25 36,46 80,46 45,0 82,-20 82,-46l0 -189c0,-110 72,-214 221,-214 63,0 120,15 167,58 46,42 67,105 66,165 0,59 -22,114 -59,159 -37,45 -90,75 -153,94 -84,25 -199,31 -320,31 -70,0 -141,-2 -209,-4 -68,-2 -133,-5 -194,-5 -93,0 -175,5 -243,23 -98,25 -165,75 -165,181 0,195 213,230 366,230 117,0 222,-21 329,-67 93,-40 172,-87 246,-146 12,145 139,213 271,213 137,0 293,-72 293,-229zm-2848 -345c-53,0 -106,-35 -106,-105 0,-70 52,-105 103,-105 52,0 103,35 103,105 0,67 -50,105 -100,105zm1599 0c-52,0 -105,-36 -105,-105 0,-70 52,-105 103,-105 52,0 103,35 103,105 0,67 -50,105 -101,105zm956 482c-79,0 -124,-64 -124,-139 0,-93 65,-136 130,-136 62,0 124,47 124,134 0,79 -47,141 -130,141zm-825 3c-86,0 -230,-15 -230,-128 0,-45 26,-91 69,-107 41,-15 108,-19 190,-19 56,0 119,2 186,4 75,3 157,5 236,5 31,0 62,0 91,-1 -84,77 -202,144 -293,187 -76,37 -158,59 -249,59z"/>
 </g>
</svg>
