<?xml version="1.0" encoding="UTF-8"?>
<!DOCTYPE svg PUBLIC "-//W3C//DTD SVG 1.1//EN" "http://www.w3.org/Graphics/SVG/1.1/DTD/svg11.dtd">
<!-- Creator: CorelDRAW X8 -->
<svg xmlns="http://www.w3.org/2000/svg" xml:space="preserve" width="1155px" height="868px" version="1.1" style="shape-rendering:geometricPrecision; text-rendering:geometricPrecision; image-rendering:optimizeQuality; fill-rule:evenodd; clip-rule:evenodd"
viewBox="0 0 1155 868"
 xmlns:xlink="http://www.w3.org/1999/xlink">
 <defs>
  <style type="text/css">
   <![CDATA[
    .fil0 {fill:#CC6633;fill-rule:nonzero}
   ]]>
  </style>
 </defs>
 <g id="Layer_x0020_1">
  <metadata id="CorelCorpID_0Corel-Layer"/>
  <path class="fil0" d="M569 490c-45,32 -92,57 -141,76 -68,25 -140,37 -216,34 -47,-2 -103,-10 -144,-31 -40,-21 -64,-54 -66,-100 -3,-63 42,-96 103,-113 89,-24 211,-13 270,-11 56,2 113,4 170,2 54,-1 121,-5 174,-30 52,-25 88,-73 89,-131 0,-36 -13,-71 -40,-95 -23,-21 -55,-32 -87,-32 -37,0 -67,14 -87,35 -23,23 -34,55 -34,87l0 110c0,23 -45,29 -62,29 -17,0 -60,-6 -60,-30l0 -109c0,-32 -10,-61 -33,-83 -33,-30 -81,-37 -125,-39 -24,-1 -57,0 -86,8 -16,5 -32,11 -44,20 8,-1 16,-1 24,-1 38,0 76,10 103,30 29,21 47,51 47,87 0,35 -16,63 -40,82 -31,23 -75,35 -117,35 -49,0 -95,-11 -126,-37 -25,-21 -41,-53 -41,-97 0,-54 21,-99 65,-131 59,-43 146,-55 217,-55 71,0 160,8 217,53 50,-39 123,-53 185,-53 67,1 140,17 191,62 36,32 56,76 55,124 -1,42 -18,83 -45,115 0,0 43,-4 52,-4 49,-1 113,5 158,32 29,17 50,44 52,83 3,33 -13,63 -39,83 28,18 48,46 47,81 -1,31 -14,57 -38,76 -38,30 -95,39 -142,39l-785 0c-32,0 -67,7 -66,46 1,40 33,45 66,45l875 0c26,0 62,12 62,43 0,31 -36,43 -62,43l-875 0c-81,0 -192,-16 -190,-121 2,-101 111,-115 190,-115l785 0c56,0 84,-32 81,-60 -3,-24 -18,-45 -41,-44 -21,1 -60,-2 -58,-31 1,-26 35,-27 55,-28 22,-1 40,-27 37,-54 -2,-27 -38,-56 -113,-58 -21,-1 -45,1 -66,4 13,9 25,19 34,31 16,19 26,43 26,71 0,41 -19,73 -48,95 -35,27 -85,42 -136,42 -49,1 -96,-11 -129,-36 -24,-17 -41,-42 -48,-74zm110 -27c0,23 7,45 24,61 13,12 28,17 42,17 15,-1 30,-8 42,-22 14,-15 21,-36 20,-57 0,-21 -8,-43 -23,-57 -12,-12 -26,-17 -39,-18 -16,0 -31,7 -45,20 -12,13 -20,32 -21,56zm-511 -202c14,0 28,-10 37,-21 7,-10 11,-22 11,-37 0,-16 -5,-29 -12,-38 -9,-11 -23,-20 -37,-20 -14,0 -28,8 -36,19 -10,11 -14,25 -14,40 0,13 4,25 11,35 9,12 25,22 40,22zm387 145c-27,1 -54,1 -82,0 -34,0 -68,-1 -99,-2 -37,-1 -109,-6 -164,-2 -43,4 -88,13 -89,67 -1,53 51,70 95,73 57,4 113,-9 165,-31 36,-15 71,-34 104,-54 25,-16 49,-33 70,-51z"/>
 </g>
</svg>
