<?xml version="1.0" encoding="UTF-8"?>
<!DOCTYPE svg PUBLIC "-//W3C//DTD SVG 1.1//EN" "http://www.w3.org/Graphics/SVG/1.1/DTD/svg11.dtd">
<!-- Creator: CorelDRAW X8 -->
<svg xmlns="http://www.w3.org/2000/svg" xml:space="preserve" width="1123px" height="868px" version="1.1" style="shape-rendering:geometricPrecision; text-rendering:geometricPrecision; image-rendering:optimizeQuality; fill-rule:evenodd; clip-rule:evenodd"
viewBox="0 0 1123 868"
 xmlns:xlink="http://www.w3.org/1999/xlink">
 <defs>
  <style type="text/css">
   <![CDATA[
    .fil0 {fill:#2B2A29;fill-rule:nonzero}
   ]]>
  </style>
 </defs>
 <g id="Layer_x0020_1">
  <metadata id="CorelCorpID_0Corel-Layer"/>
  <path class="fil0" d="M216 542c-44,0 -95,-21 -95,-72 0,-36 20,-53 46,-61 31,-9 66,-9 98,-9 41,-1 83,3 109,4 32,1 65,2 99,2l82 0c-21,18 -45,35 -70,51 -37,23 -70,41 -104,55 -50,20 -101,30 -165,30zm526 -1c-39,0 -64,-41 -63,-78 0,-37 24,-76 64,-76 40,0 64,39 64,75 0,37 -23,79 -65,79zm-574 -280c-30,0 -51,-30 -51,-57 -1,-28 20,-59 50,-59 30,0 49,30 49,58 0,27 -19,58 -48,58zm333 607c68,0 162,-3 229,-14 103,-17 211,-50 290,-119 59,-51 103,-124 103,-204 0,-73 -25,-124 -66,-158 -44,-37 -108,-57 -178,-65 33,-36 51,-78 51,-127 0,-45 -19,-88 -54,-119 -51,-45 -125,-62 -192,-62 -62,0 -135,13 -185,53 -57,-45 -146,-53 -217,-53 -71,0 -158,12 -217,55 -44,32 -65,77 -65,131 0,44 16,75 41,97 31,26 77,37 126,37 42,0 87,-12 117,-36 24,-19 41,-46 41,-81 0,-36 -18,-66 -47,-87 -28,-20 -66,-30 -104,-30 -8,0 -16,0 -24,1 12,-9 28,-16 44,-20 23,-6 49,-8 71,-8 47,0 105,5 140,39 23,22 33,51 33,82l0 110c0,24 43,30 60,30 17,0 62,-6 62,-30l0 -110c0,-31 11,-63 34,-86 20,-21 50,-35 87,-35 32,0 64,11 87,32 27,23 40,59 40,94 -1,59 -37,107 -89,132 -61,29 -139,30 -206,30 -46,0 -93,-1 -138,-2 -29,-1 -75,-4 -124,-4 -48,0 -101,3 -145,15 -59,16 -104,48 -104,107 0,118 142,137 233,137 67,0 132,-12 193,-35 49,-18 96,-43 141,-75 7,32 24,57 48,74 32,24 76,36 123,36 50,0 101,-11 142,-42 29,-22 48,-54 48,-95 0,-27 -9,-50 -26,-71 -7,-9 -16,-17 -25,-24 33,6 61,20 80,42 27,31 41,73 41,121 0,69 -35,130 -86,174 -51,44 -114,72 -179,89 6,-9 9,-19 9,-30 0,-54 -79,-81 -121,-91 -40,-9 -81,-12 -122,-12 -44,0 -91,3 -134,14 -40,10 -113,37 -113,89 -1,49 53,75 111,89 56,13 116,15 136,15zm0 -56c-91,0 -133,-24 -133,-48 0,-25 47,-48 133,-48 85,0 129,25 129,48 0,23 -40,48 -129,48z"/>
 </g>
</svg>
