<?xml version="1.0" encoding="UTF-8"?>
<!DOCTYPE svg PUBLIC "-//W3C//DTD SVG 1.1//EN" "http://www.w3.org/Graphics/SVG/1.1/DTD/svg11.dtd">
<!-- Creator: CorelDRAW X8 -->
<svg xmlns="http://www.w3.org/2000/svg" xml:space="preserve" width="3377px" height="1486px" version="1.1" style="shape-rendering:geometricPrecision; text-rendering:geometricPrecision; image-rendering:optimizeQuality; fill-rule:evenodd; clip-rule:evenodd"
viewBox="0 0 3377 1486"
 xmlns:xlink="http://www.w3.org/1999/xlink">
 <defs>
  <style type="text/css">
   <![CDATA[
    .fil0 {fill:#009846;fill-rule:nonzero}
   ]]>
  </style>
 </defs>
 <g id="Layer_x0020_1">
  <metadata id="CorelCorpID_0Corel-Layer"/>
  <path class="fil0" d="M2543 811c-74,58 -153,106 -245,146 -97,42 -201,66 -316,67 -67,1 -132,-6 -186,-19 -104,-26 -189,-85 -194,-201 -4,-113 65,-164 166,-190 113,-30 264,-25 437,-19 186,5 397,12 528,-27 63,-19 116,-49 153,-94 37,-46 59,-101 59,-160 0,-59 -20,-122 -66,-164 -44,-40 -102,-58 -161,-59 -153,-2 -227,103 -227,215l0 189c0,25 -37,46 -81,46 -45,0 -81,-21 -81,-46l0 -189c0,-92 -46,-150 -113,-182 -44,-22 -108,-31 -168,-33 -79,-3 -205,6 -260,72 20,-8 43,-13 66,-14 115,-7 244,66 244,196 0,132 -128,196 -242,196 -73,0 -138,-18 -184,-55 -70,171 -194,318 -361,407 -133,70 -286,102 -442,118 -82,8 -185,14 -292,13 -127,-1 -258,-10 -351,-33 -129,-33 -233,-92 -222,-210 15,-162 190,-180 321,-188 89,-6 192,-1 299,3 157,5 436,20 576,-56 85,-46 144,-129 145,-227 1,-60 -20,-122 -66,-163 -43,-40 -102,-58 -160,-59 -153,-2 -227,103 -227,215l0 189c0,25 -37,46 -82,46 -44,0 -80,-21 -80,-46l0 -189c0,-92 -47,-150 -114,-182 -44,-22 -108,-31 -167,-33 -80,-3 -206,6 -261,72 21,-8 44,-13 67,-14 114,-7 244,66 244,196 0,132 -128,196 -242,196 -77,0 -145,-20 -191,-61 -48,-43 -66,-101 -66,-164 0,-103 42,-176 107,-224 90,-68 222,-92 342,-92 121,-1 273,15 362,106 77,-78 201,-106 308,-106 110,1 222,32 299,102 60,55 91,131 90,208 0,130 -84,236 -195,296 -189,102 -490,85 -698,79 -104,-4 -202,-7 -278,-2 -67,5 -163,18 -170,103 -7,69 52,103 126,122 76,19 180,26 284,27 100,0 200,-6 276,-14 144,-15 288,-46 408,-109 182,-97 303,-263 341,-539 10,-76 43,-135 104,-181 90,-68 222,-92 342,-92 121,-1 273,15 362,106 78,-78 201,-106 308,-106 110,1 222,32 299,102 63,57 91,134 90,212 -1,83 -36,162 -94,221 111,-3 197,21 258,70 70,57 106,145 106,234 0,90 -32,159 -84,211 -93,93 -248,130 -385,130l-1010 0c-89,0 -133,26 -131,85 1,63 45,82 132,82l1349 0c45,0 81,31 81,69 0,38 -36,70 -81,70l-1349 0c-137,0 -300,-35 -297,-204 3,-123 95,-193 296,-193l1010 0c104,0 199,-28 255,-94 32,-38 51,-90 51,-156 0,-67 -23,-138 -77,-181 -31,-25 -73,-40 -126,-38 56,39 96,96 96,173 1,148 -144,229 -286,231 -134,1 -265,-66 -278,-213zm-2390 -466c0,70 54,105 106,105 51,0 101,-38 101,-105 0,-70 -51,-105 -103,-105 -52,0 -104,35 -104,105zm2537 448c0,95 65,141 131,139 62,-2 123,-48 124,-139 0,-89 -62,-137 -125,-137 -64,0 -129,43 -130,137zm-937 -448c0,70 53,105 105,105 51,0 101,-38 101,-105 0,-70 -51,-105 -103,-105 -51,0 -103,35 -103,105zm778 343c-104,4 -222,1 -326,-3 -163,-5 -308,-10 -377,15 -42,16 -68,60 -69,104 -1,67 48,105 108,118 40,8 77,12 113,13 95,1 179,-21 258,-59 92,-44 210,-110 293,-188z"/>
 </g>
</svg>
