<?xml version="1.0" encoding="UTF-8"?>
<!DOCTYPE svg PUBLIC "-//W3C//DTD SVG 1.1//EN" "http://www.w3.org/Graphics/SVG/1.1/DTD/svg11.dtd">
<!-- Creator: CorelDRAW X8 -->
<svg xmlns="http://www.w3.org/2000/svg" xml:space="preserve" width="1827px" height="1486px" version="1.1" style="shape-rendering:geometricPrecision; text-rendering:geometricPrecision; image-rendering:optimizeQuality; fill-rule:evenodd; clip-rule:evenodd"
viewBox="0 0 1827 1486"
 xmlns:xlink="http://www.w3.org/1999/xlink">
 <defs>
  <style type="text/css">
   <![CDATA[
    .fil0 {fill:#CC6633}
   ]]>
  </style>
 </defs>
 <g id="Layer_x0020_1">
  <metadata id="CorelCorpID_0Corel-Layer"/>
  <path class="fil0" d="M814 1223c-76,0 -136,11 -176,26 -43,17 -65,39 -65,62 -1,24 21,47 64,64 40,15 101,26 177,26 63,0 111,-7 149,-18 59,-18 88,-45 87,-72 0,-26 -28,-52 -85,-69 -39,-11 -87,-19 -151,-19zm708 -11c85,-76 140,-182 142,-292 3,-152 -99,-299 -258,-304 60,39 102,98 102,177 2,148 -143,229 -286,231 -134,1 -265,-66 -278,-213 -73,58 -153,106 -245,146 -97,42 -201,66 -316,67 -67,1 -132,-6 -186,-19 -104,-26 -189,-85 -194,-201 -4,-113 65,-164 166,-190 113,-30 264,-25 437,-19 186,5 397,12 528,-27 63,-19 116,-49 153,-94 37,-46 59,-101 59,-160 0,-59 -20,-122 -66,-164 -44,-40 -102,-58 -161,-59 -153,-2 -226,103 -227,215l0 189c0,25 -36,46 -81,46 -45,0 -81,-21 -81,-46l0 -189c0,-92 -46,-149 -113,-182 -44,-22 -108,-31 -168,-33 -79,-3 -205,6 -260,72 20,-8 43,-13 66,-14 115,-7 244,66 244,196 0,132 -128,196 -242,196 -77,0 -145,-20 -191,-61 -41,-37 -66,-91 -66,-164 0,-103 43,-175 107,-224 90,-68 222,-91 342,-92 121,-1 273,15 362,107 78,-79 201,-107 308,-107 110,1 222,32 299,102 63,57 92,134 90,212 -1,81 -35,159 -91,217 225,8 412,152 410,389 -2,128 -67,250 -167,340 -171,154 -425,208 -663,222 -63,4 -124,5 -182,4 -74,-2 -148,-8 -214,-26 -118,-32 -177,-90 -177,-149 0,-59 61,-117 182,-149 56,-14 127,-22 208,-22 75,0 136,7 189,19 77,18 196,65 196,152 0,26 -10,49 -27,68 127,-29 252,-80 350,-167zm-431 -419c0,95 66,141 131,139 62,-2 123,-49 124,-139 0,-89 -62,-137 -125,-137 -64,0 -129,43 -130,137zm-937 -448c0,70 53,105 106,105 50,0 101,-37 100,-105 0,-70 -51,-105 -103,-105 -51,0 -103,35 -103,105zm778 343c-104,4 -222,1 -326,-3 -163,-5 -308,-10 -377,15 -42,16 -68,60 -69,104 -1,67 48,105 108,117 40,9 78,13 115,14 94,1 178,-21 256,-59 92,-44 210,-110 293,-188z"/>
 </g>
</svg>
