<?xml version="1.0" encoding="UTF-8"?>
<!DOCTYPE svg PUBLIC "-//W3C//DTD SVG 1.1//EN" "http://www.w3.org/Graphics/SVG/1.1/DTD/svg11.dtd">
<!-- Creator: CorelDRAW X8 -->
<svg xmlns="http://www.w3.org/2000/svg" xml:space="preserve" width="1828px" height="1486px" version="1.1" style="shape-rendering:geometricPrecision; text-rendering:geometricPrecision; image-rendering:optimizeQuality; fill-rule:evenodd; clip-rule:evenodd"
viewBox="0 0 1828 1486"
 xmlns:xlink="http://www.w3.org/1999/xlink">
 <defs>
  <style type="text/css">
   <![CDATA[
    .fil0 {fill:#2B2A29;fill-rule:nonzero}
   ]]>
  </style>
 </defs>
 <g id="Layer_x0020_1">
  <metadata id="CorelCorpID_0Corel-Layer"/>
  <path class="fil0" d="M1509 795c0,-79 -42,-139 -103,-179 156,5 259,149 259,297 0,115 -58,222 -142,298 -102,91 -232,143 -365,171 26,-29 42,-62 42,-95 0,-39 -21,-77 -70,-108 -39,-25 -100,-39 -160,-39 -54,0 -114,12 -159,40 -44,-28 -105,-40 -158,-40 -60,0 -120,14 -161,39 -47,30 -67,70 -68,108 0,85 66,134 148,162 81,28 177,36 238,36 150,1 295,-5 439,-36 149,-31 297,-87 412,-190 97,-87 167,-213 167,-346 0,-233 -187,-374 -410,-382 56,-59 91,-138 91,-220 0,-77 -29,-152 -90,-208 -83,-75 -197,-102 -305,-102 -106,0 -226,28 -303,106 -90,-93 -239,-107 -362,-107 -120,0 -252,23 -342,91 -65,49 -107,121 -107,225 0,73 26,126 66,163 47,41 114,62 191,62 114,0 242,-64 242,-196 0,-126 -120,-197 -231,-197 -27,0 -53,5 -79,15 49,-59 155,-72 234,-72 62,0 139,6 194,33 67,32 113,90 113,182l0 189c0,25 36,46 80,46 46,0 82,-20 82,-46l0 -189c0,-110 72,-214 222,-214 62,0 119,15 166,58 47,42 67,105 67,165 -1,59 -22,114 -59,159 -38,45 -90,75 -154,94 -83,25 -198,31 -320,31 -70,0 -141,-2 -209,-4 -68,-2 -133,-5 -194,-5 -93,0 -175,5 -243,23 -98,25 -165,75 -165,181 0,195 214,230 366,230 117,0 222,-21 329,-67 93,-40 172,-87 246,-146 12,145 140,213 272,213 137,0 293,-72 293,-229zm-699 612c-61,0 -137,-5 -193,-30 -38,-17 -65,-46 -65,-88 0,-52 58,-73 101,-73 59,0 87,42 87,97 0,30 47,40 71,40 25,0 71,-10 71,-40 0,-56 30,-97 86,-97 46,0 102,20 102,75 0,41 -27,69 -64,86 -58,25 -134,30 -196,30zm-551 -957c-52,0 -105,-36 -105,-105 0,-70 52,-105 103,-105 52,0 103,35 103,105 0,67 -50,105 -101,105zm957 482c-80,0 -124,-64 -124,-139 0,-93 64,-136 130,-136 62,0 124,47 124,134 0,79 -48,141 -130,141zm-826 3c-85,0 -230,-15 -230,-128 0,-45 26,-91 69,-107 41,-15 108,-19 190,-19 56,0 119,1 186,4 75,3 157,5 237,5 30,0 62,0 90,-1 -84,77 -202,143 -293,187 -76,36 -158,59 -249,59z"/>
 </g>
</svg>
