<?xml version="1.0" encoding="UTF-8"?>
<!DOCTYPE svg PUBLIC "-//W3C//DTD SVG 1.1//EN" "http://www.w3.org/Graphics/SVG/1.1/DTD/svg11.dtd">
<!-- Creator: CorelDRAW X8 -->
<svg xmlns="http://www.w3.org/2000/svg" xml:space="preserve" width="1092px" height="868px" version="1.1" style="shape-rendering:geometricPrecision; text-rendering:geometricPrecision; image-rendering:optimizeQuality; fill-rule:evenodd; clip-rule:evenodd"
viewBox="0 0 1092 868"
 xmlns:xlink="http://www.w3.org/1999/xlink">
 <defs>
  <style type="text/css">
   <![CDATA[
    .fil0 {fill:#009846;fill-rule:nonzero}
   ]]>
  </style>
 </defs>
 <g id="Layer_x0020_1">
  <metadata id="CorelCorpID_0Corel-Layer"/>
  <path class="fil0" d="M569 490c-45,32 -92,57 -141,75 -68,26 -140,38 -216,35 -47,-2 -102,-10 -144,-32 -40,-20 -64,-53 -66,-99 -3,-63 42,-96 103,-113 89,-24 211,-13 270,-11 56,2 113,3 170,2 54,-1 122,-5 174,-30 52,-25 88,-73 89,-131 0,-36 -13,-71 -40,-95 -23,-21 -55,-32 -87,-32 -37,0 -67,14 -87,35 -23,23 -34,55 -34,86l0 110c0,24 -45,30 -62,30 -17,0 -60,-6 -60,-30l0 -110c0,-31 -10,-60 -33,-82 -32,-30 -81,-37 -125,-39 -24,-1 -57,0 -86,8 -16,4 -32,11 -44,20 8,-1 16,-1 24,-1 38,0 76,10 104,30 29,21 46,51 46,87 0,35 -16,62 -40,82 -30,23 -75,35 -117,35 -49,0 -95,-11 -126,-37 -25,-22 -41,-53 -41,-97 0,-54 21,-99 65,-131 59,-43 146,-55 217,-55 71,0 160,8 217,53 50,-40 123,-53 185,-53 67,0 141,17 192,62 35,32 55,76 54,124 -1,46 -21,91 -53,124 52,1 109,11 151,43 42,33 64,84 64,137 0,48 -17,89 -51,123 -61,58 -162,77 -243,77l-606 0c-32,0 -67,7 -66,47 1,39 34,44 66,44l810 0c26,0 61,12 61,43 0,32 -35,44 -61,44l-810 0c-81,0 -192,-17 -190,-121 2,-101 111,-116 190,-116l606 0c91,0 185,-41 185,-141 0,-54 -45,-119 -105,-123 10,7 19,15 26,25 16,19 26,43 26,71 0,41 -19,73 -48,95 -35,27 -85,42 -136,42 -49,1 -96,-11 -129,-36 -24,-17 -41,-42 -48,-74zm110 -27c0,38 25,80 66,78 39,-2 63,-43 62,-79 0,-35 -24,-74 -62,-75 -41,-1 -65,39 -66,76zm-511 -202c29,0 48,-31 48,-58 0,-28 -19,-58 -49,-58 -30,0 -50,31 -50,59 1,28 21,57 51,57zm387 145c-27,1 -54,1 -82,0 -34,0 -68,-1 -99,-2 -37,-1 -109,-6 -164,-2 -43,4 -88,13 -89,67 -1,53 51,70 95,73 58,4 113,-9 165,-31 36,-15 71,-34 104,-54 25,-16 49,-33 70,-51z"/>
 </g>
</svg>
