<?xml version="1.0" encoding="UTF-8"?>
<!DOCTYPE svg PUBLIC "-//W3C//DTD SVG 1.1//EN" "http://www.w3.org/Graphics/SVG/1.1/DTD/svg11.dtd">
<!-- Creator: CorelDRAW X8 -->
<svg xmlns="http://www.w3.org/2000/svg" xml:space="preserve" width="2765px" height="1024px" version="1.1" style="shape-rendering:geometricPrecision; text-rendering:geometricPrecision; image-rendering:optimizeQuality; fill-rule:evenodd; clip-rule:evenodd"
viewBox="0 0 2765 1024"
 xmlns:xlink="http://www.w3.org/1999/xlink">
 <defs>
  <style type="text/css">
   <![CDATA[
    .fil0 {fill:#898778;fill-rule:nonzero}
   ]]>
  </style>
 </defs>
 <g id="Layer_x0020_1">
  <metadata id="CorelCorpID_0Corel-Layer"/>
  <path class="fil0" d="M1300 525c0,-86 1,-178 -28,-258 -46,-122 -144,-176 -272,-176 -36,0 -70,4 -102,12 160,112 242,302 242,493 0,92 -20,181 -58,251 -65,118 -177,176 -308,176 -133,0 -245,-57 -310,-176 -39,-71 -58,-159 -58,-251 0,-190 81,-381 241,-493 -31,-8 -65,-12 -101,-12 -136,0 -259,92 -321,210 -41,79 -62,176 -62,272 0,137 46,304 176,372 32,16 36,45 4,64 -43,26 -95,15 -137,-10 -146,-89 -206,-261 -206,-426 0,-105 24,-211 69,-297 93,-178 280,-276 477,-276 85,0 161,14 228,38 66,-24 141,-38 226,-38 173,1 335,52 417,215 44,88 45,192 46,310 0,86 3,175 32,257 27,76 93,148 178,151 159,6 214,-135 214,-270l0 -617c0,-25 37,-46 82,-46 45,0 81,21 81,46l0 616c0,150 71,271 233,271 131,0 237,-96 284,-214 26,-67 36,-142 35,-215 -2,-158 -67,-356 -223,-422 -30,-13 -46,-41 -15,-64 31,-23 83,-22 118,-7 194,86 280,291 283,493 1,91 -14,182 -51,261 -79,169 -248,259 -431,259 -130,0 -239,-39 -310,-116 -72,85 -192,116 -300,116 -151,0 -286,-77 -338,-225 -31,-87 -35,-182 -35,-274zm-526 -364c-137,96 -206,272 -206,435 0,83 17,162 51,224 32,58 84,112 155,112 70,0 121,-53 153,-111 33,-62 50,-142 51,-225 0,-163 -67,-339 -204,-435z"/>
 </g>
</svg>
