<?xml version="1.0" encoding="UTF-8"?>
<!DOCTYPE svg PUBLIC "-//W3C//DTD SVG 1.1//EN" "http://www.w3.org/Graphics/SVG/1.1/DTD/svg11.dtd">
<!-- Creator: CorelDRAW X8 -->
<svg xmlns="http://www.w3.org/2000/svg" xml:space="preserve" width="2765px" height="1024px" version="1.1" style="shape-rendering:geometricPrecision; text-rendering:geometricPrecision; image-rendering:optimizeQuality; fill-rule:evenodd; clip-rule:evenodd"
viewBox="0 0 2765 1024"
 xmlns:xlink="http://www.w3.org/1999/xlink">
 <defs>
  <style type="text/css">
   <![CDATA[
    .fil0 {fill:#2B2A29;fill-rule:nonzero}
   ]]>
  </style>
 </defs>
 <g id="Layer_x0020_1">
  <metadata id="CorelCorpID_0Corel-Layer"/>
  <path class="fil0" d="M2283 1024c183,0 352,-90 431,-259 36,-77 51,-164 51,-253 0,-204 -87,-414 -283,-501 -16,-7 -36,-11 -56,-11 -23,0 -46,5 -63,18 -11,8 -16,18 -16,27 0,15 13,29 32,37 159,67 223,273 223,432 0,70 -10,141 -35,205 -47,118 -153,214 -284,214 -162,0 -233,-122 -233,-271l0 -616c0,-25 -36,-46 -81,-46 -45,0 -82,21 -82,46l0 617c0,132 -45,270 -206,270 -99,0 -156,-70 -186,-152 -29,-81 -33,-187 -33,-273 0,-118 -1,-205 -45,-293 -82,-163 -244,-215 -417,-215 -85,0 -160,14 -226,38 -67,-24 -143,-38 -227,-38 -198,0 -385,98 -478,276 -45,86 -69,192 -69,297 0,165 60,337 206,426 25,15 54,25 82,25 19,0 38,-4 56,-15 14,-8 21,-20 21,-31 0,-12 -9,-24 -26,-33 -129,-68 -176,-235 -176,-372 0,-96 21,-193 62,-272 61,-118 185,-210 322,-210 35,0 69,4 100,12 -159,112 -241,302 -241,493 0,92 19,180 58,251 65,118 177,175 310,175 131,0 243,-57 308,-175 38,-70 58,-160 58,-251 0,-191 -82,-381 -241,-493 31,-8 65,-12 101,-12 128,0 226,54 272,176 27,74 28,160 28,241 0,98 2,197 35,291 52,148 195,225 346,225 108,0 219,-31 292,-116 70,77 180,116 310,116zm-1509 -92c-71,0 -123,-54 -155,-112 -34,-62 -51,-141 -51,-224 0,-163 69,-340 206,-435 137,96 204,272 204,435 0,83 -18,163 -51,225 -32,58 -83,111 -153,111z"/>
 </g>
</svg>
