<?xml version="1.0" encoding="UTF-8" standalone="no"?>
<!-- Creator: CorelDRAW X8 -->

<svg
   xmlns:dc="http://purl.org/dc/elements/1.1/"
   xmlns:cc="http://creativecommons.org/ns#"
   xmlns:rdf="http://www.w3.org/1999/02/22-rdf-syntax-ns#"
   xmlns:svg="http://www.w3.org/2000/svg"
   xmlns="http://www.w3.org/2000/svg"
   xmlns:sodipodi="http://sodipodi.sourceforge.net/DTD/sodipodi-0.dtd"
   xmlns:inkscape="http://www.inkscape.org/namespaces/inkscape"
   xml:space="preserve"
   width="2765px"
   height="1024px"
   version="1.1"
   style="shape-rendering:geometricPrecision; text-rendering:geometricPrecision; image-rendering:optimizeQuality; fill-rule:evenodd; clip-rule:evenodd"
   viewBox="0 0 2765 1024"
   id="svg10"
   sodipodi:docname="à´.svg"
   inkscape:version="0.92.3 (2405546, 2018-03-11)"><metadata
   id="metadata14"><rdf:RDF><cc:Work
       rdf:about=""><dc:format>image/svg+xml</dc:format><dc:type
         rdf:resource="http://purl.org/dc/dcmitype/StillImage" /></cc:Work></rdf:RDF></metadata><sodipodi:namedview
   pagecolor="#ffffff"
   bordercolor="#666666"
   borderopacity="1"
   objecttolerance="10"
   gridtolerance="10"
   guidetolerance="10"
   inkscape:pageopacity="0"
   inkscape:pageshadow="2"
   inkscape:window-width="3200"
   inkscape:window-height="1693"
   id="namedview12"
   showgrid="false"
   inkscape:zoom="0.17649186"
   inkscape:cx="798.90369"
   inkscape:cy="512"
   inkscape:window-x="0"
   inkscape:window-y="0"
   inkscape:window-maximized="1"
   inkscape:current-layer="Layer_x0020_1" />
 <defs
   id="defs4">
  <style
   type="text/css"
   id="style2">
   <![CDATA[
    .fil0 {fill:#669933;fill-rule:nonzero}
   ]]>
  </style>
 </defs>
 <g
   id="Layer_x0020_1">
  <metadata
   id="CorelCorpID_0Corel-Layer" />
  <path
   class="fil0"
   d="M 1272,267 C 1226,145 1128,91 1000,91 c -36,0 -70,4 -102,12 160,112 242,302 242,493 0,92 -20,181 -58,251 -65,118 -177,176 -308,176 C 641,1023 529,966 464,847 425,776 406,688 406,596 406,406 487,215 647,103 616,95 582,91 546,91 410,91 287,183 225,301 c -41,79 -62,176 -62,272 0,137 46,304 176,372 33,17 35,46 4,64 -44,27 -96,15 -137,-10 C 60,910 0,738 0,573 0,468 24,362 69,276 162,98 349,0 546,0 631,0 707,14 774,38 840,14 915,0 1000,0 c 173,1 335,52 417,215 44,88 45,192 46,310 0,86 3,175 32,257 27,76 93,148 178,151 159,6 214,-135 214,-270 V 46 c 0,-25 37,-46 82,-46 45,0 81,21 81,46 v 616 c 0,150 71,271 233,271 131,0 237,-96 284,-214 26,-67 36,-142 35,-215 -2,-158 -67,-356 -223,-422 -35,-15 -42,-44 -15,-64 32,-24 83,-22 118,-7 194,86 280,291 283,493 1,91 -14,182 -51,261 -79,169 -248,259 -431,259 -130,0 -239,-39 -310,-116 -72,85 -192,116 -300,116 -151,0 -286,-77 -338,-225 -31,-87 -35,-182 -35,-274 0,-86 1,-178 -28,-258 z M 568,596 c 0,83 17,162 51,224 32,58 84,112 155,112 70,0 121,-53 153,-111 33,-62 50,-142 51,-225 C 978,433 911,257 774,161 637,257 568,433 568,596 Z"
   id="path7"
   inkscape:connector-curvature="0"
   style="fill:#669933;fill-rule:nonzero"
   sodipodi:nodetypes="cscscscscscscccscsccccccsssssscccccccscscscscscccs" />
 </g>
</svg>