<?xml version="1.0" encoding="UTF-8"?>
<!DOCTYPE svg PUBLIC "-//W3C//DTD SVG 1.1//EN" "http://www.w3.org/Graphics/SVG/1.1/DTD/svg11.dtd">
<!-- Creator: CorelDRAW X8 -->
<svg xmlns="http://www.w3.org/2000/svg" xml:space="preserve" width="2765px" height="1024px" version="1.1" style="shape-rendering:geometricPrecision; text-rendering:geometricPrecision; image-rendering:optimizeQuality; fill-rule:evenodd; clip-rule:evenodd"
viewBox="0 0 2765 1024"
 xmlns:xlink="http://www.w3.org/1999/xlink">
 <defs>
  <style type="text/css">
   <![CDATA[
    .fil0 {fill:#009846;fill-rule:nonzero}
   ]]>
  </style>
 </defs>
 <g id="Layer_x0020_1">
  <metadata id="CorelCorpID_0Corel-Layer"/>
  <path class="fil0" d="M1300 525c0,-86 1,-179 -28,-258 -46,-122 -144,-176 -272,-176 -36,0 -70,4 -101,12 159,112 241,302 241,493 0,91 -20,181 -58,251 -65,118 -177,175 -308,175 -133,0 -245,-57 -310,-175 -39,-71 -58,-159 -58,-251 0,-191 82,-381 241,-493 -31,-8 -65,-12 -100,-12 -137,0 -260,92 -322,210 -40,79 -62,176 -62,272 0,137 47,304 176,372 32,16 36,45 5,64 -44,26 -96,15 -138,-10 -146,-89 -206,-261 -206,-426 0,-105 24,-211 69,-297 93,-178 280,-276 478,-276 84,0 160,14 227,38 66,-24 141,-38 226,-38 173,1 335,52 417,215 44,88 45,192 45,310 1,86 3,175 33,256 27,77 93,149 178,152 159,6 214,-135 214,-270l0 -617c0,-25 37,-46 82,-46 45,0 81,21 81,46l0 616c0,149 71,271 233,271 131,0 237,-96 284,-214 26,-67 36,-142 35,-215 -3,-158 -67,-356 -223,-422 -30,-13 -46,-41 -16,-64 32,-23 84,-22 119,-7 194,86 280,291 283,493 1,91 -14,182 -51,261 -79,169 -248,259 -431,259 -130,0 -240,-39 -310,-116 -73,85 -192,116 -300,116 -151,0 -286,-77 -338,-225 -31,-87 -35,-182 -35,-274zm-526 -364c-137,95 -206,272 -206,435 0,83 17,162 51,224 32,58 84,112 155,112 70,0 121,-53 153,-111 33,-62 51,-142 51,-225 0,-163 -67,-339 -204,-435z"/>
 </g>
</svg>
