<?xml version="1.0" encoding="UTF-8"?>
<!DOCTYPE svg PUBLIC "-//W3C//DTD SVG 1.1//EN" "http://www.w3.org/Graphics/SVG/1.1/DTD/svg11.dtd">
<!-- Creator: CorelDRAW X8 -->
<svg xmlns="http://www.w3.org/2000/svg" xml:space="preserve" width="3118px" height="1486px" version="1.1" style="shape-rendering:geometricPrecision; text-rendering:geometricPrecision; image-rendering:optimizeQuality; fill-rule:evenodd; clip-rule:evenodd"
viewBox="0 0 3118 1487"
 xmlns:xlink="http://www.w3.org/1999/xlink">
 <defs>
  <style type="text/css">
   <![CDATA[
    .fil0 {fill:#2B2A29;fill-rule:nonzero}
   ]]>
  </style>
 </defs>
 <g id="Layer_x0020_1">
  <metadata id="CorelCorpID_0Corel-Layer"/>
  <path class="fil0" d="M1562 1487c187,0 399,-6 605,-34 234,-32 457,-94 624,-213 139,-100 232,-223 282,-368 31,-91 45,-192 45,-289 0,-119 -21,-243 -72,-348 -46,-96 -118,-176 -223,-222 -18,-8 -38,-13 -57,-13 -22,0 -43,6 -61,19 -12,9 -17,18 -17,27 0,15 14,29 33,37 159,67 223,273 223,432 0,70 -10,141 -36,205 -46,118 -154,214 -284,214 -162,0 -233,-122 -233,-271l0 -616c0,-25 -36,-46 -81,-46 -45,0 -82,21 -82,46l0 617c0,132 -45,270 -207,270 -98,0 -156,-70 -186,-152 -29,-81 -32,-187 -32,-273 0,-118 -2,-205 -46,-293 -82,-163 -244,-214 -417,-215 -85,0 -160,14 -226,38 -67,-24 -143,-38 -227,-38 -198,0 -385,98 -478,276 -45,86 -69,192 -69,297 0,165 60,337 206,426 25,15 54,25 82,25 19,0 38,-5 56,-15 14,-9 21,-20 21,-31 0,-12 -9,-24 -26,-33 -129,-68 -176,-235 -176,-372 0,-96 22,-193 62,-272 62,-118 185,-210 322,-210 35,0 69,4 100,12 -159,112 -241,302 -241,493 0,92 19,180 58,251 65,118 177,175 310,175 131,0 243,-57 308,-175 38,-70 58,-160 58,-251 0,-191 -82,-381 -241,-493 31,-8 65,-12 101,-12 128,0 226,54 272,176 27,74 29,160 29,241 0,98 1,197 34,291 53,148 196,225 346,225 109,0 220,-31 293,-116 70,77 180,116 310,116 93,0 191,-24 270,-75 -56,98 -136,173 -231,234 -159,102 -356,156 -534,181 -190,26 -391,30 -567,30 -321,0 -682,-30 -974,-172 -261,-127 -426,-337 -426,-635 0,-200 69,-404 249,-511 15,-9 22,-20 22,-31 0,-12 -9,-25 -26,-33 -16,-9 -36,-13 -56,-13 -21,0 -43,5 -59,14 -201,121 -292,337 -292,563 0,343 181,569 481,714 326,159 722,196 1081,196zm-448 -554c-71,0 -123,-54 -155,-112 -34,-62 -51,-141 -51,-224 0,-163 69,-340 206,-435 137,96 204,272 204,435 0,83 -18,163 -51,225 -32,58 -83,111 -153,111z"/>
 </g>
</svg>
