<?xml version="1.0" encoding="UTF-8"?>
<!DOCTYPE svg PUBLIC "-//W3C//DTD SVG 1.1//EN" "http://www.w3.org/Graphics/SVG/1.1/DTD/svg11.dtd">
<!-- Creator: CorelDRAW X8 -->
<svg xmlns="http://www.w3.org/2000/svg" xml:space="preserve" width="2781px" height="1486px" version="1.1" style="shape-rendering:geometricPrecision; text-rendering:geometricPrecision; image-rendering:optimizeQuality; fill-rule:evenodd; clip-rule:evenodd"
viewBox="0 0 2781 1487"
 xmlns:xlink="http://www.w3.org/1999/xlink">
 <defs>
  <style type="text/css">
   <![CDATA[
    .fil0 {fill:#2B2A29;fill-rule:nonzero}
   ]]>
  </style>
 </defs>
 <g id="Layer_x0020_1">
  <metadata id="CorelCorpID_0Corel-Layer"/>
  <path class="fil0" d="M2284 1024c117,0 229,-36 320,-113 -20,170 -94,330 -248,419 1,-6 2,-11 2,-18 -1,-87 -120,-134 -196,-152 -53,-12 -114,-19 -189,-19 -81,0 -152,8 -208,22 -121,32 -182,90 -182,149 0,85 109,131 177,150 66,18 142,25 210,25 57,-1 118,-5 180,-14 111,-17 223,-51 307,-101 180,-108 267,-283 302,-475 15,-80 22,-163 22,-245 0,-101 -10,-220 -40,-323 -41,-140 -122,-258 -258,-318 -17,-7 -36,-11 -56,-11 -23,0 -46,6 -63,18 -11,9 -16,18 -16,27 0,15 13,29 32,37 159,67 223,273 223,432 0,70 -10,141 -36,205 -46,118 -152,214 -283,214 -162,0 -233,-122 -233,-271l0 -616c0,-25 -36,-46 -81,-46 -45,0 -82,21 -82,46l0 617c0,132 -45,270 -206,270 -99,0 -157,-70 -186,-152 -30,-81 -32,-187 -33,-273 0,-118 -1,-205 -45,-293 -83,-163 -245,-214 -418,-215 -85,0 -160,14 -226,38 -67,-24 -143,-38 -227,-38 -198,0 -385,98 -478,276 -45,86 -69,192 -69,297 0,165 60,337 206,426 25,15 54,25 82,25 19,0 38,-5 56,-15 14,-9 21,-20 21,-31 0,-12 -9,-24 -26,-33 -129,-68 -176,-235 -176,-372 0,-96 22,-193 62,-272 62,-118 185,-210 322,-210 35,0 69,4 100,12 -159,112 -241,302 -241,493 0,92 19,180 58,251 65,118 177,175 310,175 131,0 243,-57 308,-175 38,-70 58,-160 58,-251 0,-191 -82,-381 -241,-493 31,-8 65,-12 101,-12 128,0 226,54 272,176 27,74 29,160 29,241 0,98 1,198 34,291 53,148 196,225 347,225 108,0 219,-31 292,-116 70,77 180,116 310,116zm-311 378c-165,0 -242,-45 -242,-90 2,-45 86,-88 242,-88 155,0 236,46 236,88 0,43 -73,90 -236,90zm-1199 -470c-71,0 -123,-54 -155,-112 -34,-62 -51,-141 -51,-224 0,-163 69,-340 206,-435 137,96 204,272 204,435 0,83 -18,163 -51,225 -32,58 -83,111 -153,111z"/>
 </g>
</svg>
