<?xml version="1.0" encoding="UTF-8"?>
<!DOCTYPE svg PUBLIC "-//W3C//DTD SVG 1.1//EN" "http://www.w3.org/Graphics/SVG/1.1/DTD/svg11.dtd">
<!-- Creator: CorelDRAW X8 -->
<svg xmlns="http://www.w3.org/2000/svg" xml:space="preserve" width="3118px" height="1486px" version="1.1" style="shape-rendering:geometricPrecision; text-rendering:geometricPrecision; image-rendering:optimizeQuality; fill-rule:evenodd; clip-rule:evenodd"
viewBox="0 0 3118 1486"
 xmlns:xlink="http://www.w3.org/1999/xlink">
 <defs>
  <style type="text/css">
   <![CDATA[
    .fil0 {fill:#CC6633;fill-rule:nonzero}
   ]]>
  </style>
 </defs>
 <g id="Layer_x0020_1">
  <metadata id="CorelCorpID_0Corel-Layer"/>
  <path class="fil0" d="M1642 527c0,-86 1,-179 -29,-259 -45,-122 -144,-175 -271,-176 -36,0 -70,5 -102,13 160,112 242,301 242,493 0,91 -20,180 -58,251 -65,118 -177,175 -309,175 -132,0 -244,-57 -309,-176 -39,-71 -59,-159 -59,-250 1,-191 82,-382 242,-493 -32,-8 -65,-13 -101,-13 -137,0 -259,93 -321,211 -41,78 -63,175 -63,272 1,136 47,304 177,371 17,9 26,21 26,33 0,11 -7,23 -22,31 -17,11 -36,16 -55,16 -29,0 -57,-11 -82,-26 -147,-89 -206,-261 -206,-425 0,-105 24,-211 69,-297 93,-178 280,-277 477,-277 85,1 161,14 227,38 67,-24 142,-38 227,-37 173,0 335,52 417,214 44,89 45,192 45,311 0,85 3,175 32,256 28,78 95,148 182,150 158,3 211,-134 211,-269l0 -617c0,-25 37,-45 82,-45 45,0 81,20 81,45l0 616c0,150 71,270 233,270 131,0 237,-95 283,-212 27,-68 37,-143 36,-216 -3,-158 -67,-356 -223,-422 -21,-9 -32,-23 -32,-37 0,-9 5,-18 16,-27 17,-12 40,-19 62,-19 20,0 40,6 57,13 105,46 176,126 222,222 51,105 72,229 72,348 0,97 -13,198 -45,289 -50,145 -143,268 -282,368 -166,119 -390,181 -624,213 -206,29 -418,33 -604,33 -359,0 -756,-36 -1081,-195 -292,-142 -471,-358 -482,-686 -7,-236 83,-465 293,-591 16,-9 38,-14 60,-14 20,0 40,4 55,13 17,8 26,20 26,32 0,12 -7,23 -22,32 -185,110 -253,323 -249,528 6,289 170,493 426,618 292,142 653,172 974,172 176,0 376,-4 566,-30 178,-24 375,-79 534,-181 95,-61 176,-136 231,-234 -78,50 -172,74 -269,74 -130,0 -240,-37 -310,-114 -72,84 -191,114 -297,114 -153,1 -288,-75 -341,-223 -32,-88 -35,-182 -35,-274zm-527 -365c-136,96 -205,273 -205,436 0,83 17,161 51,223 32,58 84,112 154,112 70,0 122,-53 153,-111 34,-61 51,-142 51,-224 0,-164 -67,-340 -204,-436z"/>
 </g>
</svg>
