<?xml version="1.0" encoding="UTF-8"?>
<!DOCTYPE svg PUBLIC "-//W3C//DTD SVG 1.1//EN" "http://www.w3.org/Graphics/SVG/1.1/DTD/svg11.dtd">
<!-- Creator: CorelDRAW X8 -->
<svg xmlns="http://www.w3.org/2000/svg" xml:space="preserve" width="3118px" height="1486px" version="1.1" style="shape-rendering:geometricPrecision; text-rendering:geometricPrecision; image-rendering:optimizeQuality; fill-rule:evenodd; clip-rule:evenodd"
viewBox="0 0 3118 1486"
 xmlns:xlink="http://www.w3.org/1999/xlink">
 <defs>
  <style type="text/css">
   <![CDATA[
    .fil0 {fill:#009846;fill-rule:nonzero}
   ]]>
  </style>
 </defs>
 <g id="Layer_x0020_1">
  <metadata id="CorelCorpID_0Corel-Layer"/>
  <path class="fil0" d="M1642 526c0,-86 1,-178 -29,-258 -45,-122 -144,-175 -271,-176 -36,0 -70,5 -102,13 160,111 242,301 242,493 0,91 -20,180 -58,251 -65,118 -177,175 -309,175 -132,0 -244,-57 -309,-176 -39,-71 -59,-159 -59,-250 1,-191 82,-382 242,-494 -32,-7 -65,-12 -101,-12 -137,0 -259,93 -321,211 -41,78 -63,175 -62,272 0,136 46,303 176,371 32,16 36,45 4,64 -43,27 -96,15 -137,-10 -147,-89 -206,-261 -206,-425 0,-105 24,-211 69,-297 93,-178 280,-277 477,-277 85,1 161,14 227,38 67,-24 142,-38 227,-37 173,0 335,52 417,214 44,89 45,192 45,310 0,86 3,175 32,257 28,78 95,148 182,150 158,3 211,-134 211,-269l0 -617c0,-25 36,-45 82,-45 45,0 81,20 81,45l0 616c0,150 71,270 233,270 131,0 237,-95 283,-213 27,-67 37,-142 36,-215 -3,-158 -67,-356 -223,-422 -31,-13 -47,-41 -16,-64 35,-25 80,-23 118,-6 105,46 177,126 223,222 51,105 72,229 72,348 0,97 -14,198 -45,289 -50,145 -143,268 -282,368 -167,119 -390,181 -624,213 -206,28 -418,33 -604,33 -359,0 -755,-36 -1081,-195 -292,-142 -470,-358 -481,-686 -8,-236 83,-465 292,-591 32,-18 83,-19 115,-1 32,16 36,45 4,64 -185,110 -253,323 -249,528 6,288 170,493 426,618 292,142 653,172 974,172 176,0 376,-4 566,-30 178,-25 375,-79 534,-181 95,-61 175,-136 231,-234 -78,50 -172,74 -269,74 -130,0 -240,-37 -310,-115 -72,85 -191,114 -297,115 -153,1 -288,-75 -341,-223 -32,-88 -35,-182 -35,-275zm-527 -364c-136,96 -205,273 -205,436 0,83 17,161 51,223 32,58 84,112 154,112 70,0 122,-53 153,-111 34,-62 51,-142 51,-224 0,-164 -67,-340 -204,-436z"/>
 </g>
</svg>
