<?xml version="1.0" encoding="UTF-8"?>
<!DOCTYPE svg PUBLIC "-//W3C//DTD SVG 1.1//EN" "http://www.w3.org/Graphics/SVG/1.1/DTD/svg11.dtd">
<!-- Creator: CorelDRAW X8 -->
<svg xmlns="http://www.w3.org/2000/svg" xml:space="preserve" width="3118px" height="1486px" version="1.1" style="shape-rendering:geometricPrecision; text-rendering:geometricPrecision; image-rendering:optimizeQuality; fill-rule:evenodd; clip-rule:evenodd"
viewBox="0 0 3118 1486"
 xmlns:xlink="http://www.w3.org/1999/xlink">
 <defs>
  <style type="text/css">
   <![CDATA[
    .fil0 {fill:#CC6633;fill-rule:nonzero}
   ]]>
  </style>
 </defs>
 <g id="Layer_x0020_1">
  <metadata id="CorelCorpID_0Corel-Layer"/>
  <path class="fil0" d="M1642 526c0,93 3,187 35,275 53,148 188,224 341,223 106,-1 225,-30 297,-115 70,78 180,115 310,115 97,0 191,-24 269,-74 -56,98 -136,173 -231,234 -159,102 -356,156 -534,181 -190,26 -390,30 -566,30 -321,0 -682,-30 -974,-172 -256,-125 -420,-330 -426,-618 -4,-205 64,-418 249,-528 15,-9 22,-20 22,-32 0,-12 -9,-24 -26,-32 -15,-9 -35,-13 -55,-13 -22,0 -44,5 -60,14 -209,126 -300,355 -292,591 11,328 189,544 481,686 326,159 722,195 1081,195 186,0 398,-5 604,-33 234,-32 457,-94 624,-213 139,-100 232,-223 282,-368 31,-91 45,-192 45,-289 0,-119 -21,-243 -72,-348 -46,-96 -118,-176 -223,-222 -16,-7 -36,-13 -56,-13 -22,0 -45,7 -62,19 -11,9 -16,18 -16,27 -1,14 11,28 32,37 156,66 220,264 223,422 1,73 -9,148 -36,215 -46,118 -152,213 -283,213 -162,0 -233,-120 -233,-270l0 -616c0,-25 -36,-45 -81,-45 -46,0 -82,20 -82,45l0 617c0,135 -53,272 -211,269 -87,-2 -154,-72 -182,-150 -29,-82 -32,-171 -32,-257 0,-118 -1,-221 -45,-310 -82,-162 -244,-214 -417,-214 -85,-1 -160,13 -227,37 -66,-24 -142,-37 -227,-38 -197,0 -384,99 -477,277 -45,86 -69,192 -69,297 0,164 59,336 206,425 25,15 53,25 82,25 19,0 38,-4 55,-15 15,-9 22,-20 22,-31 0,-12 -9,-24 -26,-33 -130,-68 -176,-235 -176,-371 -1,-97 21,-194 62,-272 62,-118 184,-211 321,-211 36,0 69,5 101,12 -160,112 -241,303 -242,494 0,91 20,179 59,250 65,119 177,176 309,176 132,0 244,-57 309,-175 38,-71 58,-160 58,-251 0,-192 -82,-382 -242,-493 32,-8 66,-13 102,-13 127,1 226,54 271,176 30,80 29,172 29,258zm-527 -364c137,96 204,272 204,436 0,82 -17,162 -51,224 -31,58 -83,111 -153,111 -70,0 -122,-54 -154,-112 -34,-62 -51,-140 -51,-223 0,-163 69,-340 205,-436z"/>
 </g>
</svg>
