<?xml version="1.0" encoding="UTF-8"?>
<!DOCTYPE svg PUBLIC "-//W3C//DTD SVG 1.1//EN" "http://www.w3.org/Graphics/SVG/1.1/DTD/svg11.dtd">
<!-- Creator: CorelDRAW X8 -->
<svg xmlns="http://www.w3.org/2000/svg" xml:space="preserve" width="2780px" height="1486px" version="1.1" style="shape-rendering:geometricPrecision; text-rendering:geometricPrecision; image-rendering:optimizeQuality; fill-rule:evenodd; clip-rule:evenodd"
viewBox="0 0 2780 1486"
 xmlns:xlink="http://www.w3.org/1999/xlink">
 <defs>
  <style type="text/css">
   <![CDATA[
    .fil0 {fill:#898778}
   ]]>
  </style>
 </defs>
 <g id="Layer_x0020_1">
  <metadata id="CorelCorpID_0Corel-Layer"/>
  <path class="fil0" d="M773 161c-136,96 -205,272 -205,435 0,83 17,162 51,224 32,58 84,113 154,113 71,0 122,-54 153,-112 34,-62 51,-142 51,-225 1,-163 -66,-339 -204,-435zm1199 1064c-76,0 -137,10 -176,25 -44,17 -65,40 -66,63 0,23 21,46 65,63 40,16 101,26 177,26 63,0 111,-7 149,-18 58,-17 87,-45 87,-71 0,-27 -29,-53 -86,-70 -38,-11 -86,-18 -150,-18zm383 105c154,-89 228,-249 248,-419 -90,76 -202,113 -320,113 -130,0 -240,-39 -310,-116 -72,85 -193,116 -300,116 -152,1 -285,-76 -338,-225 -31,-87 -35,-182 -35,-274 0,-86 1,-178 -29,-258 -45,-122 -144,-176 -271,-176 -36,0 -70,4 -102,12 160,112 242,302 242,493 0,92 -20,181 -58,251 -65,118 -177,177 -309,177 -132,0 -244,-58 -309,-177 -39,-71 -58,-159 -58,-251 0,-190 81,-381 241,-493 -32,-8 -65,-12 -101,-12 -136,0 -259,92 -321,210 -41,79 -62,176 -62,272 0,137 46,304 176,372 32,16 36,45 4,64 -43,26 -95,15 -137,-10 -146,-89 -206,-261 -206,-426 0,-105 24,-211 69,-297 93,-178 280,-276 477,-276 85,0 161,14 227,38 67,-24 142,-38 227,-38 173,1 335,52 417,215 44,88 45,192 45,310 0,86 3,175 32,257 28,77 94,148 179,151 159,6 214,-135 214,-270l0 -617c0,-25 37,-46 82,-46 45,0 81,21 81,46l0 616c0,150 71,271 233,271 131,0 237,-96 284,-214 26,-67 36,-142 35,-215 -2,-158 -67,-356 -223,-422 -30,-13 -46,-41 -16,-64 32,-23 84,-22 119,-7 137,60 217,178 258,318 32,108 41,234 40,338 -1,77 -7,155 -21,230 -36,192 -123,368 -303,475 -84,50 -196,83 -307,100 -62,9 -123,14 -180,14 -68,1 -144,-7 -210,-24 -118,-32 -178,-91 -177,-149 0,-60 61,-118 182,-149 56,-15 127,-23 208,-23 75,0 136,7 189,19 76,18 195,65 196,153 0,6 -1,12 -2,17z"/>
 </g>
</svg>
