<?xml version="1.0" encoding="UTF-8"?>
<!DOCTYPE svg PUBLIC "-//W3C//DTD SVG 1.1//EN" "http://www.w3.org/Graphics/SVG/1.1/DTD/svg11.dtd">
<!-- Creator: CorelDRAW X8 -->
<svg xmlns="http://www.w3.org/2000/svg" xml:space="preserve" width="2302px" height="1024px" version="1.1" style="shape-rendering:geometricPrecision; text-rendering:geometricPrecision; image-rendering:optimizeQuality; fill-rule:evenodd; clip-rule:evenodd"
viewBox="0 0 2302 1024"
 xmlns:xlink="http://www.w3.org/1999/xlink">
 <defs>
  <style type="text/css">
   <![CDATA[
    .fil0 {fill:#2B2A29;fill-rule:nonzero}
   ]]>
  </style>
 </defs>
 <g id="Layer_x0020_1">
  <metadata id="CorelCorpID_0Corel-Layer"/>
  <path class="fil0" d="M2014 1024c28,0 56,-10 80,-24 148,-89 208,-261 208,-427 0,-105 -24,-211 -69,-297 -93,-178 -280,-276 -477,-276 -85,0 -161,14 -227,38 -67,-24 -142,-38 -227,-38 -148,0 -294,44 -380,149 -95,-116 -252,-149 -394,-149 -195,0 -376,84 -468,267 -39,78 -60,171 -60,273 0,156 48,317 159,409 57,46 130,75 221,75 86,0 165,-28 224,-78 74,-61 105,-153 105,-247 0,-84 -28,-157 -78,-210 -58,-62 -144,-98 -238,-98 -94,0 -178,41 -232,119 1,-72 18,-145 50,-209 62,-126 174,-210 317,-210 189,0 315,107 315,303l0 584c0,26 37,46 81,46 46,0 82,-20 82,-46l0 -584c0,-192 104,-303 296,-303 36,0 70,4 102,12 -161,112 -242,301 -242,493 0,92 20,181 58,251 64,118 177,177 309,177 132,-2 244,-59 309,-177 39,-71 59,-159 59,-251 0,-191 -82,-381 -241,-493 31,-8 64,-12 100,-12 137,0 259,92 321,210 41,79 63,176 63,272 -1,137 -47,304 -177,372 -17,9 -26,21 -26,33 0,11 7,22 22,32 17,10 36,14 55,14zm-485 -92c-70,0 -122,-53 -153,-111 -34,-62 -51,-142 -51,-225 0,-163 67,-339 204,-435 136,96 205,272 205,435 0,83 -17,162 -51,224 -32,58 -84,112 -154,112zm-1141 1c-122,-1 -182,-113 -182,-223 0,-148 87,-222 174,-222 87,0 174,73 174,219 0,102 -46,226 -166,226z"/>
 </g>
</svg>
