<?xml version="1.0" encoding="UTF-8"?>
<!DOCTYPE svg PUBLIC "-//W3C//DTD SVG 1.1//EN" "http://www.w3.org/Graphics/SVG/1.1/DTD/svg11.dtd">
<!-- Creator: CorelDRAW X8 -->
<svg xmlns="http://www.w3.org/2000/svg" xml:space="preserve" width="2562px" height="1024px" version="1.1" style="shape-rendering:geometricPrecision; text-rendering:geometricPrecision; image-rendering:optimizeQuality; fill-rule:evenodd; clip-rule:evenodd"
viewBox="0 0 2562 1024"
 xmlns:xlink="http://www.w3.org/1999/xlink">
 <defs>
  <style type="text/css">
   <![CDATA[
    .fil0 {fill:#2B2A29;fill-rule:nonzero}
   ]]>
  </style>
 </defs>
 <g id="Layer_x0020_1">
  <metadata id="CorelCorpID_0Corel-Layer"/>
  <path class="fil0" d="M924 1024c45,0 81,-20 81,-45l0 -585c0,-155 78,-300 246,-303 26,-1 54,4 81,12 -106,83 -175,217 -175,353 0,170 116,289 290,289 174,0 294,-117 293,-291 0,-135 -69,-268 -174,-351 23,-7 50,-11 74,-11 73,0 147,30 202,84 82,79 125,196 125,310 0,218 -146,422 -378,422l-349 0c-45,0 -82,21 -82,46 0,25 37,45 82,45l1241 0c45,0 81,-21 81,-46l0 -907c0,-25 -36,-46 -81,-46 -46,0 -82,21 -82,46l0 862 -493 0c146,-92 224,-251 224,-422 0,-159 -72,-309 -206,-400 -81,-55 -177,-86 -284,-85 -64,0 -132,13 -191,35 -63,-24 -130,-35 -198,-35 -147,0 -262,51 -330,150 -99,-114 -237,-150 -392,-151 -215,-2 -386,102 -469,267 -39,78 -60,171 -60,273 0,156 47,317 159,409 56,46 130,75 221,75 86,0 165,-28 224,-78 71,-59 106,-152 106,-243 0,-85 -28,-160 -79,-214 -59,-62 -144,-98 -238,-98 -95,0 -178,41 -232,119 1,-72 18,-145 50,-209 59,-120 167,-210 318,-210 183,0 314,101 314,303l0 585c0,25 36,45 81,45zm524 -372c-94,0 -128,-123 -128,-198 1,-105 49,-216 129,-285 79,69 127,180 128,285 0,78 -36,198 -129,198zm-1060 281c-90,0 -182,-76 -182,-223 0,-148 87,-222 174,-222 87,0 174,73 174,219 0,102 -46,227 -166,226z"/>
 </g>
</svg>
