<?xml version="1.0" encoding="UTF-8"?>
<!DOCTYPE svg PUBLIC "-//W3C//DTD SVG 1.1//EN" "http://www.w3.org/Graphics/SVG/1.1/DTD/svg11.dtd">
<!-- Creator: CorelDRAW X8 -->
<svg xmlns="http://www.w3.org/2000/svg" xml:space="preserve" width="3513px" height="1024px" version="1.1" style="shape-rendering:geometricPrecision; text-rendering:geometricPrecision; image-rendering:optimizeQuality; fill-rule:evenodd; clip-rule:evenodd"
viewBox="0 0 3513 1024"
 xmlns:xlink="http://www.w3.org/1999/xlink">
 <defs>
  <style type="text/css">
   <![CDATA[
    .fil0 {fill:#898778;fill-rule:nonzero}
   ]]>
  </style>
 </defs>
 <g id="Layer_x0020_1">
  <metadata id="CorelCorpID_0Corel-Layer"/>
  <path class="fil0" d="M2054 396c0,-186 -113,-305 -296,-305 -37,0 -70,4 -102,12 160,112 241,304 241,495 0,91 -19,179 -58,249 -64,118 -177,176 -308,175 -132,0 -244,-57 -310,-175 -38,-71 -58,-159 -58,-251 0,-191 82,-381 241,-493 -31,-8 -64,-12 -100,-12 -196,-1 -299,110 -299,304l0 583c0,25 -36,45 -81,45 -45,0 -81,-20 -81,-45l0 -585c0,-199 -136,-304 -323,-302 -143,2 -250,91 -309,209 -32,64 -49,137 -50,210 52,-75 132,-116 221,-119 98,-3 189,34 249,97 57,61 81,141 79,223 -3,89 -37,178 -106,235 -59,49 -138,77 -224,77 -91,0 -164,-29 -221,-75 -111,-91 -159,-253 -159,-408 0,-102 21,-195 60,-273 83,-165 244,-267 460,-267 145,0 306,34 403,148 87,-106 235,-148 381,-148 85,0 160,14 226,38 67,-24 142,-38 228,-38 146,0 289,44 375,148 87,-104 234,-148 380,-148 85,0 161,14 228,38 66,-24 141,-38 226,-38 197,0 384,98 477,276 45,86 69,192 69,297 0,165 -60,337 -206,426 -42,25 -94,36 -137,10 -32,-19 -28,-48 4,-64 130,-68 176,-235 176,-372 0,-96 -21,-193 -62,-272 -62,-118 -184,-210 -321,-210 -36,0 -69,4 -101,12 160,112 241,302 241,493 0,86 -16,174 -58,251 -65,118 -177,175 -309,175 -132,1 -244,-57 -309,-175 -38,-70 -58,-158 -58,-249 0,-191 82,-383 242,-495 -32,-8 -66,-12 -102,-12 -189,0 -297,112 -297,305l0 582c0,25 -36,45 -81,45 -45,0 -81,-20 -81,-45l0 -582zm840 424c36,-67 51,-148 51,-224 0,-163 -68,-339 -205,-435 -137,96 -204,274 -204,437 0,83 17,161 51,223 31,58 82,111 153,111 70,0 122,-54 154,-112zm-2340 -110c1,-105 -53,-223 -173,-222 -87,0 -175,74 -175,222 0,147 92,222 182,222 84,0 166,-73 166,-222zm976 -549c-136,96 -204,272 -204,435 -1,83 17,162 51,224 31,58 84,112 154,112 70,0 121,-53 153,-111 34,-62 51,-140 51,-223 0,-163 -68,-341 -205,-437z"/>
 </g>
</svg>
