<?xml version="1.0" encoding="UTF-8"?>
<!DOCTYPE svg PUBLIC "-//W3C//DTD SVG 1.1//EN" "http://www.w3.org/Graphics/SVG/1.1/DTD/svg11.dtd">
<!-- Creator: CorelDRAW X8 -->
<svg xmlns="http://www.w3.org/2000/svg" xml:space="preserve" width="3514px" height="1024px" version="1.1" style="shape-rendering:geometricPrecision; text-rendering:geometricPrecision; image-rendering:optimizeQuality; fill-rule:evenodd; clip-rule:evenodd"
viewBox="0 0 3514 1024"
 xmlns:xlink="http://www.w3.org/1999/xlink">
 <defs>
  <style type="text/css">
   <![CDATA[
    .fil0 {fill:#2B2A29;fill-rule:nonzero}
   ]]>
  </style>
 </defs>
 <g id="Layer_x0020_1">
  <metadata id="CorelCorpID_0Corel-Layer"/>
  <path class="fil0" d="M3226 1024c28,0 57,-10 82,-25 146,-89 206,-261 206,-426 0,-105 -24,-211 -69,-297 -93,-178 -280,-276 -477,-276 -85,0 -160,14 -227,38 -66,-24 -142,-38 -227,-38 -146,0 -293,44 -380,148 -86,-104 -229,-148 -375,-148 -86,0 -162,14 -228,38 -66,-24 -145,-38 -230,-38 -146,0 -291,42 -378,148 -97,-114 -253,-148 -398,-148 -216,0 -382,102 -464,267 -40,78 -61,171 -61,273 0,155 48,317 159,408 57,46 130,75 221,75 86,0 165,-28 224,-78 71,-58 106,-152 106,-243 0,-79 -24,-155 -79,-214 -58,-61 -144,-97 -237,-97 -95,0 -178,41 -233,119 1,-73 19,-146 50,-210 62,-124 172,-209 314,-209 186,0 318,105 318,302l0 585c0,25 36,45 81,45 45,0 81,-20 81,-45l0 -583c0,-193 102,-304 296,-304 36,0 69,3 104,12 -160,112 -242,302 -242,493 0,92 20,180 58,251 66,118 178,175 310,175 132,0 245,-57 309,-175 39,-70 58,-158 58,-249 0,-191 -81,-383 -241,-495 32,-8 64,-12 102,-12 183,0 296,119 296,305l0 582c0,25 36,45 81,45 45,0 81,-20 81,-45l0 -582c0,-193 108,-305 297,-305 36,0 70,4 102,12 -160,112 -242,304 -242,495 0,91 20,179 58,249 65,118 177,175 309,175 132,0 244,-57 309,-175 42,-77 58,-165 58,-251 0,-191 -81,-381 -241,-493 31,-8 65,-12 101,-12 136,0 259,92 321,210 41,79 62,176 62,272 0,137 -46,304 -176,372 -17,8 -26,21 -26,33 0,11 7,22 22,31 17,10 36,15 55,15zm-485 -92c-71,0 -122,-53 -153,-111 -38,-69 -51,-149 -51,-227 0,-162 68,-338 204,-433 137,95 205,272 205,435 0,76 -15,157 -51,224 -32,58 -84,112 -154,112zm-1210 0c-70,0 -122,-54 -154,-112 -34,-62 -50,-141 -50,-224 0,-163 68,-340 204,-435 136,96 204,274 204,437 0,83 -16,161 -50,223 -32,58 -84,111 -154,111zm-1143 0c-90,0 -182,-75 -182,-222 0,-148 88,-222 175,-222 121,0 174,117 174,222 -1,149 -82,222 -167,222z"/>
 </g>
</svg>
