<?xml version="1.0" encoding="UTF-8"?>
<!DOCTYPE svg PUBLIC "-//W3C//DTD SVG 1.1//EN" "http://www.w3.org/Graphics/SVG/1.1/DTD/svg11.dtd">
<!-- Creator: CorelDRAW X8 -->
<svg xmlns="http://www.w3.org/2000/svg" xml:space="preserve" width="3775px" height="1486px" version="1.1" style="shape-rendering:geometricPrecision; text-rendering:geometricPrecision; image-rendering:optimizeQuality; fill-rule:evenodd; clip-rule:evenodd"
viewBox="0 0 3775 1486"
 xmlns:xlink="http://www.w3.org/1999/xlink">
 <defs>
  <style type="text/css">
   <![CDATA[
    .fil0 {fill:#009846;fill-rule:nonzero}
   ]]>
  </style>
 </defs>
 <g id="Layer_x0020_1">
  <metadata id="CorelCorpID_0Corel-Layer"/>
  <path class="fil0" d="M3067 1225c-76,0 -137,10 -176,25 -43,17 -65,40 -66,63 0,23 22,46 65,63 40,16 101,26 177,26 63,0 111,-7 149,-18 58,-17 87,-44 87,-71 0,-27 -29,-53 -86,-70 -38,-11 -86,-18 -150,-18zm-3067 -685c1,-102 22,-195 61,-273 88,-175 266,-280 503,-266 139,9 274,54 357,150 69,-99 184,-150 330,-150 68,0 135,11 199,35 58,-22 122,-34 187,-35 107,0 206,30 288,85 134,91 206,244 206,404 -1,169 -81,327 -225,418l495 0c-91,-96 -141,-220 -142,-352 -1,-136 41,-252 112,-342 108,-136 285,-213 485,-214 186,-1 353,61 466,197 319,65 471,353 452,664 -13,210 -111,408 -282,516 -70,45 -158,74 -239,90 -59,12 -121,18 -186,19 -67,1 -148,-7 -213,-24 -118,-32 -177,-91 -177,-149 0,-59 61,-118 182,-149 56,-14 127,-23 208,-23 75,0 136,7 189,20 71,16 179,58 194,134 107,-102 163,-268 167,-434 5,-205 -64,-415 -209,-517 29,73 42,153 40,238 -1,98 -24,198 -72,278 -69,114 -182,165 -301,164 -118,-2 -229,-49 -296,-150 -43,-64 -66,-146 -66,-229 0,-99 32,-199 91,-278 78,-104 197,-161 325,-177 -80,-71 -167,-100 -272,-99 -160,2 -284,76 -359,191 -49,76 -76,170 -76,272 -1,148 66,286 192,370 13,9 19,19 19,30 0,34 -55,46 -81,46l-1312 0c-45,0 -81,-21 -81,-46 0,-25 36,-46 81,-46l350 0c229,0 376,-203 378,-418 1,-114 -42,-234 -125,-314 -57,-55 -130,-85 -206,-84 -23,1 -47,4 -71,11 106,83 173,216 174,351 1,171 -116,292 -292,291 -176,0 -291,-120 -290,-291 0,-135 69,-268 175,-351 -28,-8 -55,-12 -82,-12 -166,4 -245,149 -245,303l0 585c0,25 -37,45 -82,45 -44,0 -81,-20 -81,-45l0 -585c0,-186 -120,-291 -296,-302 -156,-10 -273,83 -336,209 -31,64 -49,137 -49,209 52,-75 132,-116 221,-119 98,-3 189,34 249,98 53,56 81,134 78,223 -3,89 -36,177 -105,234 -60,50 -138,78 -224,78 -92,0 -165,-29 -221,-75 -111,-92 -160,-253 -160,-409zm1449 -371c-79,69 -128,180 -128,285 -1,77 34,197 127,198 93,1 129,-120 129,-198 0,-105 -49,-216 -128,-285zm-1243 541c0,147 93,222 182,223 85,0 167,-74 167,-223 0,-148 -87,-222 -174,-222 -87,0 -174,74 -175,222zm2997 -434c-100,0 -189,46 -249,126 -53,70 -78,156 -78,243 0,73 19,144 55,198 33,50 82,88 144,89 56,1 106,-33 146,-101 44,-71 64,-161 65,-249 1,-109 -22,-215 -83,-306z"/>
 </g>
</svg>
