<?xml version="1.0" encoding="UTF-8"?>
<!DOCTYPE svg PUBLIC "-//W3C//DTD SVG 1.1//EN" "http://www.w3.org/Graphics/SVG/1.1/DTD/svg11.dtd">
<!-- Creator: CorelDRAW X8 -->
<svg xmlns="http://www.w3.org/2000/svg" xml:space="preserve" width="3123px" height="1486px" version="1.1" style="shape-rendering:geometricPrecision; text-rendering:geometricPrecision; image-rendering:optimizeQuality; fill-rule:evenodd; clip-rule:evenodd"
viewBox="0 0 3123 1486"
 xmlns:xlink="http://www.w3.org/1999/xlink">
 <defs>
  <style type="text/css">
   <![CDATA[
    .fil0 {fill:#2B2A29;fill-rule:nonzero}
   ]]>
  </style>
 </defs>
 <g id="Layer_x0020_1">
  <metadata id="CorelCorpID_0Corel-Layer"/>
  <path class="fil0" d="M1688 0c-59,0 -121,9 -178,26 -61,-17 -125,-26 -194,-26 -144,0 -297,31 -395,149 -94,-116 -251,-149 -393,-149 -195,0 -376,84 -468,267 -39,78 -60,171 -60,273 0,156 48,317 159,409 57,46 130,75 221,75 86,0 165,-28 224,-78 74,-61 105,-153 105,-247 0,-84 -28,-157 -78,-210 -58,-62 -144,-98 -238,-98 -94,0 -178,41 -232,119 1,-72 18,-145 50,-209 62,-126 174,-210 317,-210 189,0 315,107 315,303l0 584c0,25 36,45 81,45 45,0 81,-20 81,-45l0 -584c0,-204 114,-304 300,-304 21,0 37,2 59,4 -74,53 -119,133 -119,226 0,154 132,223 265,223 131,-1 262,-76 262,-223 0,-90 -47,-174 -120,-227 11,-1 23,-2 36,-2 52,1 118,9 167,33 67,32 113,90 113,182l0 189c0,25 36,46 80,46 45,0 82,-20 82,-46l0 -189c0,-110 72,-214 221,-214 62,0 120,15 167,58 46,42 66,105 66,165 -1,59 -22,114 -59,159 -37,45 -90,75 -153,94 -84,25 -199,31 -320,31 -70,0 -141,-2 -209,-4 -68,-2 -133,-5 -194,-5 -93,0 -175,6 -243,23 -98,26 -165,75 -165,181 0,122 83,184 193,211 51,12 111,19 173,19 116,0 222,-21 329,-67 93,-40 172,-87 246,-146 12,145 139,213 271,213 137,0 293,-72 293,-229 0,-80 -43,-141 -104,-180 46,-8 93,-11 140,-11 72,3 166,20 166,111 0,44 -27,93 -76,93 -55,0 -82,25 -82,48 0,23 27,44 81,44 53,0 89,22 89,80 0,67 -52,109 -116,109l-1308 0c-138,0 -296,32 -296,200 0,164 161,197 296,197l1458 0c45,0 82,-31 82,-69 0,-38 -37,-69 -82,-69l-1458 0c-61,0 -132,-7 -132,-84 0,-58 43,-84 132,-84l1308 0c83,0 163,-19 216,-63 42,-33 63,-81 63,-135 0,-58 -32,-103 -80,-133 42,-32 67,-80 67,-133 0,-100 -66,-157 -156,-183 -48,-14 -104,-21 -161,-21 -45,0 -90,5 -133,14 53,-58 86,-135 86,-215 0,-77 -28,-152 -90,-208 -82,-76 -196,-102 -305,-102 -105,0 -225,28 -302,106 -90,-92 -238,-107 -361,-107zm765 932c-80,0 -124,-64 -124,-139 0,-93 65,-136 130,-136 62,0 124,47 124,134 0,79 -48,141 -130,141zm-825 3c-40,0 -83,-5 -122,-14 -60,-12 -108,-49 -108,-114 0,-45 25,-90 69,-107 41,-15 108,-19 190,-19 56,0 119,2 186,4 75,3 157,5 236,5 31,0 62,0 91,-1 -84,77 -202,144 -293,187 -76,37 -158,59 -249,59zm-1240 -2c-122,-1 -182,-113 -182,-223 0,-148 87,-222 174,-222 87,0 174,73 174,219 0,102 -46,226 -166,226zm1122 -482c-52,0 -108,-38 -108,-131 0,-78 44,-144 108,-183 63,38 105,110 105,183 0,86 -55,131 -105,131z"/>
 </g>
</svg>
