<?xml version="1.0" encoding="UTF-8"?>
<!DOCTYPE svg PUBLIC "-//W3C//DTD SVG 1.1//EN" "http://www.w3.org/Graphics/SVG/1.1/DTD/svg11.dtd">
<!-- Creator: CorelDRAW X8 -->
<svg xmlns="http://www.w3.org/2000/svg" xml:space="preserve" width="2747px" height="1024px" version="1.1" style="shape-rendering:geometricPrecision; text-rendering:geometricPrecision; image-rendering:optimizeQuality; fill-rule:evenodd; clip-rule:evenodd"
viewBox="0 0 2747 1024"
 xmlns:xlink="http://www.w3.org/1999/xlink">
 <defs>
  <style type="text/css">
   <![CDATA[
    .fil0 {fill:#898778;fill-rule:nonzero}
   ]]>
  </style>
 </defs>
 <g id="Layer_x0020_1">
  <metadata id="CorelCorpID_0Corel-Layer"/>
  <path class="fil0" d="M2183 811c-74,58 -154,106 -246,146 -97,42 -201,66 -316,67 -67,1 -132,-6 -186,-19 -104,-26 -189,-86 -193,-202 -5,-112 64,-163 165,-190 113,-29 265,-24 437,-18 186,6 397,12 529,-27 63,-18 116,-49 153,-94 37,-45 58,-100 59,-159 0,-60 -20,-123 -66,-165 -44,-40 -103,-57 -161,-58 -153,-3 -227,103 -227,214l0 190c0,25 -37,45 -82,45 -44,0 -80,-21 -80,-46l0 -189c0,-92 -46,-149 -113,-182 -42,-20 -112,-32 -168,-33 -12,0 -25,1 -36,2 70,51 116,130 120,217 6,154 -128,233 -262,233 -134,0 -267,-77 -265,-233 0,-90 47,-164 119,-216 -22,-2 -38,-4 -59,-4 -194,0 -300,102 -300,303l0 586c0,25 -36,45 -81,45 -45,0 -81,-20 -81,-45l0 -585c0,-187 -119,-291 -297,-302 -156,-10 -273,83 -335,209 -32,64 -49,137 -50,209 52,-75 132,-116 221,-119 98,-3 189,34 249,98 54,56 81,134 79,223 -3,89 -37,177 -106,234 -59,50 -138,78 -224,78 -91,0 -164,-29 -221,-75 -111,-92 -159,-253 -159,-409 0,-102 21,-195 60,-273 88,-175 267,-280 503,-266 142,9 276,50 358,148 97,-117 238,-147 384,-149 73,-1 141,8 205,26 57,-17 119,-26 178,-26 121,0 273,15 362,107 78,-79 201,-106 308,-106 110,0 222,31 299,102 63,57 91,134 90,212 -1,70 -27,140 -74,197 -24,30 -53,54 -86,76 88,34 159,102 160,205 1,149 -144,229 -287,231 -134,2 -265,-66 -277,-213zm-673 -674c-64,39 -108,99 -108,174 -1,94 56,140 108,140 52,0 109,-48 105,-140 -3,-68 -45,-138 -105,-174zm-1304 573c0,147 92,222 182,223 84,0 166,-74 167,-223 0,-148 -87,-222 -174,-222 -87,0 -175,74 -175,222zm2124 83c-1,95 65,141 130,139 62,-2 124,-48 124,-139 1,-88 -61,-136 -124,-136 -65,0 -130,43 -130,136zm-159 -104c-104,3 -223,0 -327,-4 -163,-5 -307,-10 -377,15 -41,16 -67,60 -68,103 -2,68 47,106 108,118 39,9 76,13 112,14 95,1 180,-21 259,-59 91,-43 209,-110 293,-187z"/>
 </g>
</svg>
