<?xml version="1.0" encoding="UTF-8"?>
<!DOCTYPE svg PUBLIC "-//W3C//DTD SVG 1.1//EN" "http://www.w3.org/Graphics/SVG/1.1/DTD/svg11.dtd">
<!-- Creator: CorelDRAW X8 -->
<svg xmlns="http://www.w3.org/2000/svg" xml:space="preserve" width="3123px" height="1486px" version="1.1" style="shape-rendering:geometricPrecision; text-rendering:geometricPrecision; image-rendering:optimizeQuality; fill-rule:evenodd; clip-rule:evenodd"
viewBox="0 0 3123 1486"
 xmlns:xlink="http://www.w3.org/1999/xlink">
 <defs>
  <style type="text/css">
   <![CDATA[
    .fil0 {fill:#CC6633;fill-rule:nonzero}
   ]]>
  </style>
 </defs>
 <g id="Layer_x0020_1">
  <metadata id="CorelCorpID_0Corel-Layer"/>
  <path class="fil0" d="M2182 810c-73,59 -153,107 -245,147 -97,41 -201,66 -316,67 -67,0 -132,-7 -186,-20 -104,-25 -189,-85 -194,-201 -4,-112 65,-163 166,-190 113,-30 264,-25 437,-19 186,6 397,12 528,-27 63,-18 116,-49 153,-94 37,-45 59,-101 59,-160 1,-59 -20,-122 -66,-164 -44,-40 -102,-57 -161,-58 -153,-2 -226,103 -227,214l0 190c0,25 -36,45 -81,45 -45,0 -81,-20 -81,-46l0 -189c0,-91 -46,-149 -113,-182 -41,-20 -110,-31 -167,-31 -13,-1 -25,-1 -36,0 70,52 116,131 119,218 7,154 -127,232 -261,233 -134,0 -267,-77 -266,-233 1,-90 48,-164 120,-216 -23,-3 -37,-4 -59,-4 -198,0 -300,101 -300,301l0 588c0,25 -36,45 -81,45 -45,0 -81,-20 -81,-45l0 -587c0,-198 -137,-302 -323,-301 -144,1 -250,90 -309,209 -32,65 -49,137 -50,210 52,-75 132,-116 221,-119 98,-3 189,34 249,98 53,56 81,134 78,223 -2,89 -36,177 -105,234 -59,50 -138,78 -224,78 -91,0 -164,-29 -221,-75 -111,-92 -159,-253 -159,-409 0,-102 21,-195 60,-273 83,-166 243,-268 460,-267 145,1 305,37 401,151 97,-117 238,-149 384,-151 73,-1 140,8 205,26 55,-17 120,-26 178,-26 121,-1 272,15 362,106 77,-79 200,-106 307,-106 110,0 222,31 299,102 63,57 92,134 90,211 -1,79 -33,154 -85,212 37,-8 78,-13 121,-13 60,-1 121,5 172,20 83,24 150,75 157,172 3,58 -23,110 -68,144 49,31 82,79 80,139 -2,56 -26,99 -63,130 -52,43 -132,63 -215,63l-1309 0c-89,0 -133,26 -131,85 1,62 45,83 131,82l1458 0c45,0 82,31 82,69 0,38 -36,69 -81,70l-1459 0c-137,0 -300,-35 -296,-204 2,-123 94,-193 296,-193l1309 0c60,0 113,-41 116,-104 2,-51 -30,-88 -83,-86 -45,3 -82,-16 -86,-41 -6,-37 54,-50 80,-50 51,0 79,-54 76,-101 -5,-86 -96,-101 -166,-103 -46,-2 -96,3 -140,11 61,38 104,97 104,177 2,148 -143,229 -286,231 -134,2 -265,-66 -278,-213zm-672 -673c-64,39 -109,98 -109,174 0,94 57,140 109,140 52,-1 109,-48 105,-140 -3,-69 -46,-138 -105,-174zm-1304 573c-1,147 92,222 182,223 84,0 166,-74 166,-223 1,-148 -86,-222 -174,-222 -87,0 -174,74 -174,222zm2123 82c0,95 66,142 131,139 62,-2 123,-48 124,-139 0,-88 -62,-136 -125,-136 -64,0 -129,43 -130,136zm-158 -104c-104,4 -223,0 -327,-3 -163,-5 -308,-11 -377,15 -42,15 -68,60 -69,103 -1,68 48,105 108,118 38,8 74,12 109,13 96,3 182,-20 262,-58 92,-44 210,-110 294,-188z"/>
 </g>
</svg>
