<?xml version="1.0" encoding="UTF-8"?>
<!DOCTYPE svg PUBLIC "-//W3C//DTD SVG 1.1//EN" "http://www.w3.org/Graphics/SVG/1.1/DTD/svg11.dtd">
<!-- Creator: CorelDRAW X8 -->
<svg xmlns="http://www.w3.org/2000/svg" xml:space="preserve" width="3449px" height="1024px" version="1.1" style="shape-rendering:geometricPrecision; text-rendering:geometricPrecision; image-rendering:optimizeQuality; fill-rule:evenodd; clip-rule:evenodd"
viewBox="0 0 3449 1024"
 xmlns:xlink="http://www.w3.org/1999/xlink">
 <defs>
  <style type="text/css">
   <![CDATA[
    .fil0 {fill:#2B2A29;fill-rule:nonzero}
   ]]>
  </style>
 </defs>
 <g id="Layer_x0020_1">
  <metadata id="CorelCorpID_0Corel-Layer"/>
  <path class="fil0" d="M924 1024c45,0 81,-20 81,-45l0 -585c0,-155 78,-299 246,-303 26,0 54,4 81,12 -106,83 -175,218 -175,353 0,170 116,289 290,289 174,0 294,-117 294,-291 -2,-135 -70,-268 -175,-351 23,-7 51,-11 74,-11 74,0 148,30 203,84 82,79 125,196 125,310 0,218 -147,422 -379,422l-349 0c-45,0 -82,21 -82,46 0,25 37,46 82,46l1312 0c26,0 81,-12 82,-46 0,-11 -7,-21 -19,-29 -127,-85 -193,-223 -193,-371 0,-93 26,-185 74,-265 83,-137 209,-198 367,-198 102,0 188,29 266,99 -127,16 -246,73 -324,177 -60,79 -91,179 -91,278 0,84 22,165 65,230 68,102 180,149 300,149 118,0 229,-50 297,-163 51,-83 73,-195 73,-292 0,-99 -18,-185 -59,-268 -104,-207 -300,-301 -527,-301 -211,0 -408,73 -521,260 -54,90 -83,193 -83,296 1,133 51,256 142,352l-494 0c145,-92 224,-251 224,-422 0,-159 -73,-309 -206,-400 -81,-55 -177,-86 -285,-85 -64,0 -132,13 -191,35 -63,-24 -130,-35 -198,-35 -147,0 -262,51 -330,150 -98,-114 -237,-150 -392,-151 -215,-2 -386,102 -469,267 -39,78 -60,171 -60,273 0,156 48,317 159,409 57,46 130,75 221,75 86,0 165,-28 224,-78 71,-58 106,-152 106,-243 0,-85 -27,-160 -79,-214 -58,-62 -144,-98 -238,-98 -94,0 -178,41 -232,119 1,-72 18,-145 50,-209 59,-120 167,-210 318,-210 183,0 314,101 314,303l0 585c0,25 36,45 81,45zm2151 -92c-61,0 -110,-39 -144,-89 -36,-54 -54,-124 -54,-198 0,-87 25,-173 77,-243 60,-79 150,-126 250,-126 59,87 82,190 82,293 0,91 -17,184 -64,262 -33,55 -79,101 -147,101zm-1627 -280c-93,0 -128,-123 -128,-198 1,-105 49,-216 129,-285 79,69 127,180 128,285 0,78 -36,198 -129,198zm-1060 281c-90,-1 -182,-76 -182,-223 0,-148 87,-222 174,-222 87,0 174,73 174,219 0,102 -46,226 -166,226z"/>
 </g>
</svg>
