<?xml version="1.0" encoding="UTF-8"?>
<!DOCTYPE svg PUBLIC "-//W3C//DTD SVG 1.1//EN" "http://www.w3.org/Graphics/SVG/1.1/DTD/svg11.dtd">
<!-- Creator: CorelDRAW X8 -->
<svg xmlns="http://www.w3.org/2000/svg" xml:space="preserve" width="620px" height="600px" version="1.1" style="shape-rendering:geometricPrecision; text-rendering:geometricPrecision; image-rendering:optimizeQuality; fill-rule:evenodd; clip-rule:evenodd"
viewBox="0 0 620 600"
 xmlns:xlink="http://www.w3.org/1999/xlink">
 <defs>
  <style type="text/css">
   <![CDATA[
    .fil0 {fill:#2B2A29;fill-rule:nonzero}
   ]]>
  </style>
 </defs>
 <g id="Layer_x0020_1">
  <metadata id="CorelCorpID_0Corel-Layer"/>
  <path class="fil0" d="M318 600c72,0 156,-13 219,-50 54,-32 83,-85 83,-139 0,-61 -33,-120 -105,-143 -48,-16 -103,-18 -155,-18 -54,0 -60,2 -112,2 -53,0 -108,-6 -108,-65 -2,-86 103,-128 178,-128 64,0 132,15 185,68 12,12 34,16 54,16 12,0 26,-2 37,-6 15,-4 26,-13 26,-24 0,-4 -2,-8 -7,-13 -80,-77 -191,-100 -295,-100 -66,0 -141,14 -200,45 -67,35 -103,95 -102,154 0,63 42,109 97,130 45,17 101,23 155,22 54,-1 46,-3 114,-3 65,0 113,9 114,70 1,85 -94,122 -179,123 -65,1 -153,-22 -201,-70 -12,-11 -33,-16 -53,-16 -13,0 -27,2 -39,6 -14,5 -24,13 -24,23 0,4 2,8 7,13 76,75 212,103 311,103z"/>
 </g>
</svg>
