<?xml version="1.0" encoding="UTF-8"?>
<!DOCTYPE svg PUBLIC "-//W3C//DTD SVG 1.1//EN" "http://www.w3.org/Graphics/SVG/1.1/DTD/svg11.dtd">
<!-- Creator: CorelDRAW X8 -->
<svg xmlns="http://www.w3.org/2000/svg" xml:space="preserve" width="987px" height="1130px" version="1.1" style="shape-rendering:geometricPrecision; text-rendering:geometricPrecision; image-rendering:optimizeQuality; fill-rule:evenodd; clip-rule:evenodd"
viewBox="0 0 987 1130"
 xmlns:xlink="http://www.w3.org/1999/xlink">
 <defs>
  <style type="text/css">
   <![CDATA[
    .fil0 {fill:#2B2A29;fill-rule:nonzero}
   ]]>
  </style>
 </defs>
 <g id="Layer_x0020_1">
  <metadata id="CorelCorpID_0Corel-Layer"/>
  <path class="fil0" d="M388 1131c100,0 219,-6 325,-39 72,-22 139,-55 189,-108 58,-63 86,-145 86,-230 0,-91 -21,-170 -92,-233 -59,-51 -128,-73 -198,-82 -48,-7 -100,-10 -150,-10 -61,1 -122,6 -181,6 -91,0 -204,-7 -204,-118 0,-57 26,-103 64,-137 66,-60 173,-89 261,-89 120,0 237,33 323,121 16,17 44,24 71,24 14,0 28,-3 40,-6 20,-6 42,-21 42,-40 0,-7 -3,-14 -10,-21 -121,-123 -298,-169 -466,-169 -115,0 -251,29 -349,91 -91,58 -140,155 -140,247 0,103 64,185 158,222 77,29 172,34 260,34 60,0 121,-4 181,-4 137,0 242,33 242,194 0,67 -20,136 -69,186 4,-14 6,-26 6,-38 0,-40 -21,-77 -69,-108 -40,-26 -101,-40 -160,-40 -54,0 -115,12 -159,40 -44,-28 -106,-40 -158,-40 -60,0 -120,14 -161,40 -38,24 -69,62 -69,110 0,80 65,130 145,158 82,30 180,39 242,39zm0 -79c-61,0 -138,-5 -193,-30 -38,-17 -66,-46 -66,-88 0,-54 59,-74 104,-74 56,0 86,42 86,96 0,32 45,40 70,40 24,0 71,-8 71,-40 0,-54 30,-96 86,-96 46,0 102,21 102,76 0,40 -28,69 -65,86 -58,25 -133,30 -195,30z"/>
 </g>
</svg>
