<?xml version="1.0" encoding="UTF-8"?>
<!DOCTYPE svg PUBLIC "-//W3C//DTD SVG 1.1//EN" "http://www.w3.org/Graphics/SVG/1.1/DTD/svg11.dtd">
<!-- Creator: CorelDRAW X8 -->
<svg xmlns="http://www.w3.org/2000/svg" xml:space="preserve" width="989px" height="1131px" version="1.1" style="shape-rendering:geometricPrecision; text-rendering:geometricPrecision; image-rendering:optimizeQuality; fill-rule:evenodd; clip-rule:evenodd"
viewBox="0 0 987 1129"
 xmlns:xlink="http://www.w3.org/1999/xlink">
 <defs>
  <style type="text/css">
   <![CDATA[
    .fil0 {fill:#898778}
   ]]>
  </style>
 </defs>
 <g id="Layer_x0020_1">
  <metadata id="CorelCorpID_0Corel-Layer"/>
  <path class="fil0" d="M398 867c-76,0 -137,10 -177,26 -43,16 -64,39 -65,62 0,23 21,47 65,64 40,15 100,25 177,25 62,0 110,-7 148,-18 59,-17 88,-44 87,-71 0,-26 -28,-53 -85,-69 -39,-12 -87,-19 -150,-19zm384 90c36,-45 56,-109 57,-170 1,-66 -22,-138 -84,-170 -73,-38 -194,-25 -273,-24 -103,1 -228,4 -325,-34 -105,-40 -155,-127 -157,-218 -2,-93 47,-191 140,-250 99,-63 233,-90 342,-91 169,-1 349,44 470,168 27,28 -4,54 -32,62 -33,10 -85,7 -110,-18 -87,-89 -206,-122 -328,-121 -84,0 -190,28 -256,89 -41,38 -67,89 -61,155 5,56 51,82 109,92 71,14 160,5 208,4 70,-1 146,-3 215,7 71,10 139,32 197,83 66,58 89,132 93,213 4,100 -29,187 -87,248 -57,61 -139,101 -231,122 -77,17 -175,26 -270,25 -77,-1 -152,-9 -214,-25 -118,-32 -177,-91 -177,-149 0,-59 61,-118 182,-149 56,-14 127,-22 208,-22 74,0 135,7 188,19 75,17 195,62 196,154z"/>
 </g>
</svg>
