<?xml version="1.0" encoding="UTF-8"?>
<!DOCTYPE svg PUBLIC "-//W3C//DTD SVG 1.1//EN" "http://www.w3.org/Graphics/SVG/1.1/DTD/svg11.dtd">
<!-- Creator: CorelDRAW X8 -->
<svg xmlns="http://www.w3.org/2000/svg" xml:space="preserve" width="988px" height="1130px" version="1.1" style="shape-rendering:geometricPrecision; text-rendering:geometricPrecision; image-rendering:optimizeQuality; fill-rule:evenodd; clip-rule:evenodd"
viewBox="0 0 988 1130"
 xmlns:xlink="http://www.w3.org/1999/xlink">
 <defs>
  <style type="text/css">
   <![CDATA[
    .fil0 {fill:#2B2A29;fill-rule:nonzero}
   ]]>
  </style>
 </defs>
 <g id="Layer_x0020_1">
  <metadata id="CorelCorpID_0Corel-Layer"/>
  <path class="fil0" d="M413 1130c91,0 184,-10 257,-26 92,-21 174,-60 232,-122 54,-57 86,-137 86,-228 0,-91 -21,-170 -92,-233 -59,-51 -127,-74 -198,-83 -48,-7 -100,-9 -150,-9 -60,1 -121,6 -181,6 -91,0 -203,-7 -203,-118 0,-57 25,-103 63,-137 66,-60 173,-89 261,-89 120,0 237,33 323,121 16,17 44,24 71,24 14,0 28,-2 40,-6 20,-6 42,-21 42,-40 0,-7 -3,-14 -10,-21 -121,-123 -298,-169 -466,-169 -115,0 -250,29 -348,91 -92,58 -140,155 -140,247 0,102 63,185 158,221 76,30 171,34 259,34 61,0 121,-3 181,-3 138,0 242,33 242,194 0,59 -19,127 -57,173 -1,-92 -121,-137 -196,-154 -53,-12 -114,-19 -189,-19 -81,0 -152,8 -207,22 -122,32 -183,90 -183,149 0,59 59,118 178,149 71,19 153,26 227,26zm-15 -85c-76,0 -137,-10 -177,-26 -42,-17 -64,-39 -64,-62 0,-33 38,-54 65,-64 40,-15 100,-25 176,-25 64,0 112,7 151,18 57,17 85,43 86,69 0,27 -29,54 -88,72 -38,11 -86,18 -149,18z"/>
 </g>
</svg>
