<?xml version="1.0" encoding="UTF-8"?>
<!DOCTYPE svg PUBLIC "-//W3C//DTD SVG 1.1//EN" "http://www.w3.org/Graphics/SVG/1.1/DTD/svg11.dtd">
<!-- Creator: CorelDRAW X8 -->
<svg xmlns="http://www.w3.org/2000/svg" xml:space="preserve" width="988px" height="1130px" version="1.1" style="shape-rendering:geometricPrecision; text-rendering:geometricPrecision; image-rendering:optimizeQuality; fill-rule:evenodd; clip-rule:evenodd"
viewBox="0 0 988 1130"
 xmlns:xlink="http://www.w3.org/1999/xlink">
 <defs>
  <style type="text/css">
   <![CDATA[
    .fil0 {fill:#2B2A29;fill-rule:nonzero}
   ]]>
  </style>
 </defs>
 <g id="Layer_x0020_1">
  <metadata id="CorelCorpID_0Corel-Layer"/>
  <path class="fil0" d="M398 1130c91,0 199,-10 272,-26 92,-21 174,-60 232,-122 54,-57 86,-137 86,-228 0,-91 -20,-170 -92,-233 -58,-51 -127,-73 -198,-82 -48,-7 -100,-10 -150,-10 -60,1 -121,6 -181,6 -91,0 -203,-7 -203,-118 0,-57 25,-103 63,-137 66,-60 173,-89 261,-89 120,0 237,33 323,121 16,17 44,24 71,24 14,0 28,-3 40,-6 20,-6 42,-21 42,-40 0,-7 -3,-14 -10,-21 -121,-123 -298,-169 -466,-169 -115,0 -250,29 -348,91 -92,58 -140,155 -140,247 0,103 63,185 158,222 76,29 171,34 259,34 61,0 121,-4 181,-4 138,0 242,33 242,194 0,59 -19,127 -57,173 -1,-92 -121,-137 -196,-154 -53,-12 -114,-19 -189,-19 -81,0 -152,8 -207,22 -122,32 -183,90 -183,149 0,80 86,125 182,149 77,20 160,26 208,26zm1 -85c-165,0 -242,-45 -242,-89 0,-45 86,-88 242,-88 155,0 236,46 236,88 0,42 -73,89 -236,89z"/>
 </g>
</svg>
