<?xml version="1.0" encoding="UTF-8"?>
<!DOCTYPE svg PUBLIC "-//W3C//DTD SVG 1.1//EN" "http://www.w3.org/Graphics/SVG/1.1/DTD/svg11.dtd">
<!-- Creator: CorelDRAW X8 -->
<svg xmlns="http://www.w3.org/2000/svg" xml:space="preserve" width="1296px" height="1024px" version="1.1" style="shape-rendering:geometricPrecision; text-rendering:geometricPrecision; image-rendering:optimizeQuality; fill-rule:evenodd; clip-rule:evenodd"
viewBox="0 0 1296 1024"
 xmlns:xlink="http://www.w3.org/1999/xlink">
 <defs>
  <style type="text/css">
   <![CDATA[
    .fil0 {fill:#898778;fill-rule:nonzero}
   ]]>
  </style>
 </defs>
 <g id="Layer_x0020_1">
  <metadata id="CorelCorpID_0Corel-Layer"/>
  <path class="fil0" d="M1137 936c-98,54 -242,83 -383,87 -182,6 -363,-29 -509,-124 -158,-104 -244,-285 -245,-466 -1,-161 65,-321 199,-416 30,-21 81,-22 114,-7 31,14 44,42 13,64 -113,80 -163,224 -162,358 1,161 67,317 205,407 109,72 250,97 385,93 74,-2 187,-17 269,-62 67,-37 108,-101 107,-158 0,-53 -36,-100 -119,-114 -69,-12 -152,-4 -200,-3 -103,1 -228,4 -325,-34 -107,-41 -158,-131 -158,-225 1,-91 49,-186 141,-244 99,-63 235,-91 343,-92 169,-1 348,46 470,170 27,28 -4,53 -32,62 -33,10 -86,7 -111,-18 -87,-89 -205,-124 -327,-123 -84,0 -191,30 -257,90 -42,39 -68,90 -62,156 5,56 52,81 110,92 71,13 160,4 208,4 98,-2 217,-3 311,28 117,39 174,131 174,226 0,94 -54,191 -159,249z"/>
 </g>
</svg>
