<?xml version="1.0" encoding="UTF-8"?>
<!DOCTYPE svg PUBLIC "-//W3C//DTD SVG 1.1//EN" "http://www.w3.org/Graphics/SVG/1.1/DTD/svg11.dtd">
<!-- Creator: CorelDRAW X8 -->
<svg xmlns="http://www.w3.org/2000/svg" xml:space="preserve" width="987px" height="1130px" version="1.1" style="shape-rendering:geometricPrecision; text-rendering:geometricPrecision; image-rendering:optimizeQuality; fill-rule:evenodd; clip-rule:evenodd"
viewBox="0 0 987 1130"
 xmlns:xlink="http://www.w3.org/1999/xlink">
 <defs>
  <style type="text/css">
   <![CDATA[
    .fil0 {fill:#009846;fill-rule:nonzero}
   ]]>
  </style>
 </defs>
 <g id="Layer_x0020_1">
  <metadata id="CorelCorpID_0Corel-Layer"/>
  <path class="fil0" d="M386 1052c62,0 138,-4 195,-30 39,-17 67,-47 65,-90 -2,-51 -58,-71 -100,-71 -57,-1 -88,40 -88,96 0,31 -47,40 -71,40 -24,0 -71,-9 -70,-40 0,-56 -31,-97 -88,-96 -43,0 -99,20 -101,71 -1,43 27,73 65,90 56,25 132,30 193,30zm566 -883c27,27 -5,53 -32,61 -33,11 -86,8 -111,-18 -87,-89 -206,-122 -328,-121 -84,1 -190,29 -256,89 -42,38 -68,90 -62,155 5,57 52,82 110,93 71,13 159,4 208,3 70,-1 146,-2 215,8 71,9 139,32 198,83 66,58 89,132 92,213 5,100 -28,187 -86,249 -59,62 -141,99 -229,120 -95,23 -196,28 -283,27 -90,-2 -179,-13 -245,-36 -83,-31 -144,-97 -143,-163 1,-38 21,-78 69,-108 40,-26 100,-39 160,-39 53,0 114,12 158,40 44,-28 105,-40 159,-40 59,0 120,13 160,39 48,31 69,69 69,108 0,12 -2,25 -6,38 57,-56 79,-153 66,-230 -9,-53 -36,-99 -81,-122 -73,-38 -194,-25 -273,-24 -103,1 -229,4 -325,-34 -107,-41 -157,-130 -158,-223 0,-92 48,-188 140,-246 99,-63 234,-90 343,-91 169,-1 349,45 471,169z"/>
 </g>
</svg>
