<?xml version="1.0" encoding="UTF-8"?>
<!DOCTYPE svg PUBLIC "-//W3C//DTD SVG 1.1//EN" "http://www.w3.org/Graphics/SVG/1.1/DTD/svg11.dtd">
<!-- Creator: CorelDRAW X8 -->
<svg xmlns="http://www.w3.org/2000/svg" xml:space="preserve" width="807px" height="600px" version="1.1" style="shape-rendering:geometricPrecision; text-rendering:geometricPrecision; image-rendering:optimizeQuality; fill-rule:evenodd; clip-rule:evenodd"
viewBox="0 0 807 600"
 xmlns:xlink="http://www.w3.org/1999/xlink">
 <defs>
  <style type="text/css">
   <![CDATA[
    .fil0 {fill:#434242;fill-rule:nonzero}
   ]]>
  </style>
 </defs>
 <g id="Layer_x0020_1">
  <metadata id="CorelCorpID_0Corel-Layer"/>
  <path class="fil0" d="M546 250c-54,0 -60,2 -112,2 -53,0 -107,-6 -108,-65 -1,-86 103,-128 178,-128 64,0 132,15 185,68 12,12 34,16 54,16 14,0 29,-2 40,-7 14,-5 23,-12 23,-23 0,-4 -1,-8 -7,-13 -80,-77 -191,-100 -295,-100 -66,0 -141,14 -200,45 -67,35 -102,95 -102,154 1,63 42,109 97,130 45,17 101,23 155,22 54,-1 46,-3 114,-3 49,0 114,6 114,70 0,38 -31,71 -63,88 -48,26 -114,35 -168,35 -89,0 -167,-24 -226,-70 -60,-48 -101,-121 -102,-217 0,-79 26,-161 93,-207 8,-5 12,-11 12,-17 0,-9 -9,-18 -21,-23 -11,-4 -26,-7 -41,-7 -19,0 -38,4 -50,12 -80,55 -117,147 -116,242 1,132 70,222 164,277 82,48 185,69 287,69 84,0 185,-13 259,-53 55,-29 97,-82 97,-145 0,-75 -55,-120 -123,-138 -47,-12 -90,-14 -138,-14z"/>
 </g>
</svg>
