<?xml version="1.0" encoding="UTF-8"?>
<!DOCTYPE svg PUBLIC "-//W3C//DTD SVG 1.1//EN" "http://www.w3.org/Graphics/SVG/1.1/DTD/svg11.dtd">
<!-- Creator: CorelDRAW X8 -->
<svg xmlns="http://www.w3.org/2000/svg" xml:space="preserve" width="1296px" height="1024px" version="1.1" style="shape-rendering:geometricPrecision; text-rendering:geometricPrecision; image-rendering:optimizeQuality; fill-rule:evenodd; clip-rule:evenodd"
viewBox="0 0 1296 1024"
 xmlns:xlink="http://www.w3.org/1999/xlink">
 <defs>
  <style type="text/css">
   <![CDATA[
    .fil0 {fill:#2B2A29;fill-rule:nonzero}
   ]]>
  </style>
 </defs>
 <g id="Layer_x0020_1">
  <metadata id="CorelCorpID_0Corel-Layer"/>
  <path class="fil0" d="M727 1024c143,0 285,-19 410,-88 105,-58 159,-155 159,-248 0,-96 -57,-188 -173,-227 -82,-27 -164,-30 -250,-30 -59,0 -118,4 -177,4 -91,0 -203,-7 -203,-118 0,-57 25,-103 63,-137 66,-60 177,-89 261,-89 123,0 235,30 323,121 17,17 44,24 71,24 14,0 28,-2 40,-6 20,-6 42,-21 42,-40 0,-7 -2,-14 -10,-22 -120,-124 -298,-168 -466,-168 -115,0 -249,29 -347,91 -93,59 -141,155 -141,247 0,103 63,185 158,222 75,29 167,35 252,34 62,0 125,-4 187,-4 84,0 204,14 204,124 0,57 -40,119 -107,156 -84,47 -200,63 -296,63 -126,0 -256,-27 -358,-94 -139,-91 -205,-249 -205,-411 0,-133 50,-275 162,-354 12,-9 18,-19 18,-28 0,-14 -12,-28 -31,-36 -15,-7 -33,-10 -51,-10 -23,0 -46,5 -63,17 -133,94 -199,253 -199,412 0,186 88,367 245,470 135,88 313,125 482,125z"/>
 </g>
</svg>
