<?xml version="1.0" encoding="UTF-8"?>
<!DOCTYPE svg PUBLIC "-//W3C//DTD SVG 1.1//EN" "http://www.w3.org/Graphics/SVG/1.1/DTD/svg11.dtd">
<!-- Creator: CorelDRAW X8 -->
<svg xmlns="http://www.w3.org/2000/svg" xml:space="preserve" width="1296px" height="1024px" version="1.1" style="shape-rendering:geometricPrecision; text-rendering:geometricPrecision; image-rendering:optimizeQuality; fill-rule:evenodd; clip-rule:evenodd"
viewBox="0 0 1296 1024"
 xmlns:xlink="http://www.w3.org/1999/xlink">
 <defs>
  <style type="text/css">
   <![CDATA[
    .fil0 {fill:#CC6633;fill-rule:nonzero}
   ]]>
  </style>
 </defs>
 <g id="Layer_x0020_1">
  <metadata id="CorelCorpID_0Corel-Layer"/>
  <path class="fil0" d="M1137 936c-98,54 -242,83 -383,87 -182,6 -363,-29 -509,-124 -158,-104 -244,-285 -245,-466 -1,-161 65,-321 199,-416 17,-11 40,-17 63,-17 19,0 37,3 51,10 20,9 31,22 31,35 0,10 -6,20 -18,29 -113,80 -163,224 -162,358 1,161 67,317 205,407 109,72 250,98 385,94 74,-3 187,-18 269,-63 68,-37 108,-101 107,-158 0,-53 -36,-100 -119,-114 -69,-12 -152,-4 -200,-3 -103,1 -228,4 -325,-34 -108,-41 -158,-131 -158,-225 1,-91 49,-186 141,-244 99,-63 235,-91 343,-92 169,-1 348,46 470,170 7,7 10,15 10,22 -1,16 -16,32 -42,40 -13,4 -26,5 -39,5 -29,0 -57,-8 -72,-23 -87,-89 -205,-124 -327,-123 -84,0 -191,30 -257,90 -42,39 -68,90 -62,156 5,56 52,81 110,92 71,14 160,4 208,4 98,-2 217,-3 312,28 116,39 173,131 173,227 0,93 -54,190 -159,248z"/>
 </g>
</svg>
