<?xml version="1.0" encoding="UTF-8"?>
<!DOCTYPE svg PUBLIC "-//W3C//DTD SVG 1.1//EN" "http://www.w3.org/Graphics/SVG/1.1/DTD/svg11.dtd">
<!-- Creator: CorelDRAW X8 -->
<svg xmlns="http://www.w3.org/2000/svg" xml:space="preserve" width="987px" height="1130px" version="1.1" style="shape-rendering:geometricPrecision; text-rendering:geometricPrecision; image-rendering:optimizeQuality; fill-rule:evenodd; clip-rule:evenodd"
viewBox="0 0 987 1130"
 xmlns:xlink="http://www.w3.org/1999/xlink">
 <defs>
  <style type="text/css">
   <![CDATA[
    .fil0 {fill:#009846}
   ]]>
  </style>
 </defs>
 <g id="Layer_x0020_1">
  <metadata id="CorelCorpID_0Corel-Layer"/>
  <path class="fil0" d="M396 869c-76,0 -136,10 -176,25 -43,17 -65,40 -65,62 -1,24 21,47 64,64 40,16 101,26 177,26 63,0 111,-7 149,-18 59,-18 88,-45 88,-72 -1,-26 -29,-52 -86,-69 -39,-11 -87,-18 -151,-18zm385 89c36,-44 56,-109 57,-169 1,-67 -21,-139 -84,-171 -73,-38 -194,-25 -273,-24 -103,1 -229,4 -325,-34 -105,-40 -156,-127 -158,-219 -1,-93 47,-191 140,-250 99,-63 234,-90 343,-91 169,-1 349,45 471,169 27,27 -5,53 -32,61 -33,11 -86,8 -111,-18 -87,-89 -206,-122 -328,-121 -84,1 -190,29 -256,89 -42,38 -68,90 -62,155 5,57 52,82 110,93 71,13 159,4 208,3 70,-1 146,-2 215,8 71,9 139,32 198,83 66,58 89,132 92,213 5,100 -28,187 -86,248 -58,62 -140,101 -232,122 -77,17 -175,27 -270,26 -77,-1 -153,-9 -214,-26 -119,-31 -178,-90 -178,-149 0,-59 61,-117 183,-149 55,-14 126,-22 207,-22 75,0 136,7 189,19 75,17 195,62 196,154z"/>
 </g>
</svg>
