<?xml version="1.0" encoding="UTF-8"?>
<!DOCTYPE svg PUBLIC "-//W3C//DTD SVG 1.1//EN" "http://www.w3.org/Graphics/SVG/1.1/DTD/svg11.dtd">
<!-- Creator: CorelDRAW X8 -->
<svg xmlns="http://www.w3.org/2000/svg" xml:space="preserve" width="2099px" height="1024px" version="1.1" style="shape-rendering:geometricPrecision; text-rendering:geometricPrecision; image-rendering:optimizeQuality; fill-rule:evenodd; clip-rule:evenodd"
viewBox="0 0 2099 1024"
 xmlns:xlink="http://www.w3.org/1999/xlink">
 <defs>
  <style type="text/css">
   <![CDATA[
    .fil0 {fill:#434242;fill-rule:nonzero}
   ]]>
  </style>
 </defs>
 <g id="Layer_x0020_1">
  <metadata id="CorelCorpID_0Corel-Layer"/>
  <path class="fil0" d="M1760 0c-23,0 -45,5 -62,18 -11,8 -16,18 -16,27 0,14 10,28 31,37 160,67 223,273 223,433 0,70 -9,139 -35,204 -45,118 -153,214 -284,214 -162,0 -232,-122 -232,-271l0 -616c0,-25 -37,-46 -82,-46 -45,0 -81,21 -81,46l0 616c0,131 -47,271 -205,271 -96,0 -157,-64 -188,-152 -31,-86 -32,-182 -32,-273 0,-265 -39,-508 -364,-508 -292,0 -433,233 -433,501 0,215 100,427 309,510 19,8 40,13 61,13 23,0 44,-6 62,-21 10,-8 14,-17 14,-25 0,-16 -17,-31 -36,-38 -173,-64 -248,-272 -248,-442 0,-159 75,-407 271,-407 196,0 201,275 201,417 0,101 1,195 35,291 53,148 196,225 348,225 108,0 217,-31 290,-116 71,77 180,116 310,116 183,0 352,-90 431,-259 37,-79 51,-164 51,-250 0,-204 -85,-417 -283,-504 -16,-7 -36,-11 -56,-11z"/>
 </g>
</svg>
