<?xml version="1.0" encoding="UTF-8"?>
<!DOCTYPE svg PUBLIC "-//W3C//DTD SVG 1.1//EN" "http://www.w3.org/Graphics/SVG/1.1/DTD/svg11.dtd">
<!-- Creator: CorelDRAW X8 -->
<svg xmlns="http://www.w3.org/2000/svg" xml:space="preserve" width="2100px" height="1024px" version="1.1" style="shape-rendering:geometricPrecision; text-rendering:geometricPrecision; image-rendering:optimizeQuality; fill-rule:evenodd; clip-rule:evenodd"
viewBox="0 0 2100 1024"
 xmlns:xlink="http://www.w3.org/1999/xlink">
 <defs>
  <style type="text/css">
   <![CDATA[
    .fil0 {fill:#2B2A29;fill-rule:nonzero}
   ]]>
  </style>
 </defs>
 <g id="Layer_x0020_1">
  <metadata id="CorelCorpID_0Corel-Layer"/>
  <path class="fil0" d="M1761 0c20,0 40,4 56,11 198,87 283,300 283,504 0,87 -14,172 -51,250 -79,169 -248,259 -431,259 -130,0 -239,-38 -310,-116 -73,85 -182,116 -290,116 -152,0 -296,-76 -349,-225 -34,-96 -35,-190 -35,-291 0,-142 -5,-417 -201,-417 -195,0 -271,248 -271,407 0,170 75,378 248,442 19,8 36,22 36,38 0,8 -4,18 -14,26 -18,14 -39,20 -62,20 -21,0 -42,-4 -61,-12 -209,-84 -309,-296 -309,-511 0,-268 142,-501 433,-501 325,0 364,243 364,508 0,91 2,187 32,273 32,88 93,152 189,152 158,0 204,-140 204,-271l0 -616c0,-25 36,-46 82,-46 45,0 82,21 82,46l0 616c0,149 70,271 232,271 131,0 238,-96 284,-214 25,-65 35,-134 35,-204 0,-160 -63,-366 -223,-433 -21,-9 -31,-23 -31,-37 0,-9 5,-19 16,-27 17,-13 39,-18 62,-18z"/>
 </g>
</svg>
