<?xml version="1.0" encoding="UTF-8"?>
<!DOCTYPE svg PUBLIC "-//W3C//DTD SVG 1.1//EN" "http://www.w3.org/Graphics/SVG/1.1/DTD/svg11.dtd">
<!-- Creator: CorelDRAW X8 -->
<svg xmlns="http://www.w3.org/2000/svg" xml:space="preserve" width="2099px" height="1024px" version="1.1" style="shape-rendering:geometricPrecision; text-rendering:geometricPrecision; image-rendering:optimizeQuality; fill-rule:evenodd; clip-rule:evenodd"
viewBox="0 0 2099 1024"
 xmlns:xlink="http://www.w3.org/1999/xlink">
 <defs>
  <style type="text/css">
   <![CDATA[
    .fil0 {fill:#898778;fill-rule:nonzero}
   ]]>
  </style>
 </defs>
 <g id="Layer_x0020_1">
  <metadata id="CorelCorpID_0Corel-Layer"/>
  <path class="fil0" d="M1307 908c-72,85 -182,116 -290,116 -152,0 -295,-77 -348,-225 -34,-96 -35,-202 -35,-304 0,-88 -1,-184 -31,-268 -26,-75 -76,-136 -170,-136 -123,0 -198,103 -237,218 -24,69 -34,143 -34,202 1,171 77,365 248,429 29,11 52,38 22,63 -34,29 -84,24 -123,8 -206,-82 -307,-286 -309,-500 -1,-84 13,-166 41,-239 61,-158 190,-272 392,-272 164,0 265,65 318,182 43,96 46,205 46,309 0,96 -1,199 32,290 28,80 98,154 188,152 155,-3 205,-137 205,-270l0 -617c0,-25 36,-46 81,-46 45,0 82,21 82,46l0 616c0,149 70,271 232,271 131,0 238,-96 284,-214 24,-63 35,-132 35,-200 1,-161 -62,-369 -223,-437 -30,-13 -46,-41 -15,-64 32,-23 83,-22 118,-7 199,88 284,302 283,508 0,86 -16,171 -51,246 -79,169 -248,259 -431,259 -130,0 -239,-39 -310,-116z"/>
 </g>
</svg>
