<?xml version="1.0" encoding="UTF-8"?>
<!DOCTYPE svg PUBLIC "-//W3C//DTD SVG 1.1//EN" "http://www.w3.org/Graphics/SVG/1.1/DTD/svg11.dtd">
<!-- Creator: CorelDRAW X8 -->
<svg xmlns="http://www.w3.org/2000/svg" xml:space="preserve" width="2113px" height="1486px" version="1.1" style="shape-rendering:geometricPrecision; text-rendering:geometricPrecision; image-rendering:optimizeQuality; fill-rule:evenodd; clip-rule:evenodd"
viewBox="0 0 2113 1486"
 xmlns:xlink="http://www.w3.org/1999/xlink">
 <defs>
  <style type="text/css">
   <![CDATA[
    .fil0 {fill:#898778}
   ]]>
  </style>
 </defs>
 <g id="Layer_x0020_1">
  <metadata id="CorelCorpID_0Corel-Layer"/>
  <path class="fil0" d="M1305 1224c-76,0 -136,10 -176,26 -43,16 -65,39 -65,62 -1,23 21,47 64,64 40,15 101,25 177,25 63,0 111,-6 149,-18 58,-17 88,-44 87,-71 0,-26 -29,-53 -86,-69 -38,-12 -86,-19 -150,-19zm631 -313c-86,74 -200,113 -319,113 -130,0 -240,-39 -310,-116 -72,85 -182,116 -290,116 -152,0 -295,-77 -348,-225 -34,-97 -35,-203 -35,-304 0,-88 -1,-184 -31,-268 -26,-75 -76,-136 -170,-136 -123,0 -199,103 -237,218 -24,69 -34,143 -34,202 1,170 77,365 248,428 29,11 52,39 22,63 -33,28 -85,24 -123,9 -207,-80 -307,-286 -309,-500 -1,-84 13,-166 41,-239 61,-158 190,-272 392,-272 163,0 265,65 318,182 43,96 45,204 45,308 0,97 0,199 33,291 28,80 98,154 188,152 155,-4 204,-137 204,-271l0 -616c0,-25 37,-46 82,-46 45,0 81,21 81,46l0 616c0,149 71,270 233,270 131,0 237,-96 283,-213 25,-63 36,-132 36,-201 1,-160 -62,-368 -223,-436 -30,-13 -46,-41 -16,-64 32,-23 84,-22 119,-7 160,71 237,214 271,372 20,91 27,190 26,284 -1,77 -7,154 -21,230 -36,191 -123,367 -303,475 -84,50 -196,82 -307,99 -62,10 -123,14 -180,15 -67,0 -144,-7 -210,-25 -118,-32 -177,-90 -177,-149 0,-59 61,-118 182,-149 56,-14 127,-23 208,-23 75,0 136,8 189,20 76,18 196,65 196,152 0,6 -1,12 -2,18 154,-89 228,-249 248,-419z"/>
 </g>
</svg>
