<?xml version="1.0" encoding="UTF-8"?>
<!DOCTYPE svg PUBLIC "-//W3C//DTD SVG 1.1//EN" "http://www.w3.org/Graphics/SVG/1.1/DTD/svg11.dtd">
<!-- Creator: CorelDRAW X8 -->
<svg xmlns="http://www.w3.org/2000/svg" xml:space="preserve" width="2113px" height="1486px" version="1.1" style="shape-rendering:geometricPrecision; text-rendering:geometricPrecision; image-rendering:optimizeQuality; fill-rule:evenodd; clip-rule:evenodd"
viewBox="0 0 2113 1486"
 xmlns:xlink="http://www.w3.org/1999/xlink">
 <defs>
  <style type="text/css">
   <![CDATA[
    .fil0 {fill:#434242;fill-rule:nonzero}
   ]]>
  </style>
 </defs>
 <g id="Layer_x0020_1">
  <metadata id="CorelCorpID_0Corel-Layer"/>
  <path class="fil0" d="M1760 0c-23,0 -45,5 -62,18 -11,8 -16,18 -16,27 0,14 10,28 31,37 160,67 223,273 223,433 0,70 -9,138 -35,204 -45,118 -153,214 -284,214 -162,0 -232,-122 -232,-271l0 -616c0,-25 -37,-46 -82,-46 -45,0 -81,21 -81,46l0 616c0,131 -47,271 -205,271 -96,0 -157,-64 -188,-152 -31,-86 -32,-182 -32,-273 0,-265 -39,-508 -364,-508 -292,0 -433,233 -433,501 0,215 100,427 309,510 19,8 40,13 61,13 23,0 44,-6 62,-21 10,-8 14,-17 14,-25 0,-16 -17,-31 -36,-38 -173,-64 -248,-272 -248,-442 0,-159 75,-407 271,-407 196,0 201,275 201,417 0,101 1,195 35,291 53,148 196,225 348,225 108,0 217,-32 290,-116 71,77 180,116 310,116 120,0 234,-39 320,-112 -21,169 -95,329 -249,418 1,-5 2,-11 2,-18 0,-87 -119,-134 -196,-152 -53,-12 -114,-19 -189,-19 -81,0 -152,8 -208,22 -121,32 -182,90 -182,149 0,59 59,118 177,149 66,18 143,25 213,25 76,0 161,-8 243,-25 88,-19 173,-48 242,-89 179,-107 266,-283 302,-475 15,-81 21,-165 21,-247 0,-242 -49,-531 -297,-639 -16,-7 -36,-11 -56,-11zm-455 1402c-164,0 -242,-45 -242,-89 0,-45 86,-88 242,-88 155,0 237,46 237,88 0,42 -73,89 -237,89z"/>
 </g>
</svg>
