<?xml version="1.0" encoding="UTF-8"?>
<!DOCTYPE svg PUBLIC "-//W3C//DTD SVG 1.1//EN" "http://www.w3.org/Graphics/SVG/1.1/DTD/svg11.dtd">
<!-- Creator: CorelDRAW X8 -->
<svg xmlns="http://www.w3.org/2000/svg" xml:space="preserve" width="2460px" height="1486px" version="1.1" style="shape-rendering:geometricPrecision; text-rendering:geometricPrecision; image-rendering:optimizeQuality; fill-rule:evenodd; clip-rule:evenodd"
viewBox="0 0 2460 1486"
 xmlns:xlink="http://www.w3.org/1999/xlink">
 <defs>
  <style type="text/css">
   <![CDATA[
    .fil0 {fill:#898778;fill-rule:nonzero}
   ]]>
  </style>
 </defs>
 <g id="Layer_x0020_1">
  <metadata id="CorelCorpID_0Corel-Layer"/>
  <path class="fil0" d="M539 1196c202,127 487,200 770,199 306,-1 608,-89 798,-287 40,-41 76,-87 106,-140 -71,37 -152,56 -236,56 -130,0 -239,-38 -310,-116 -72,86 -182,116 -290,116 -152,0 -295,-76 -348,-224 -34,-97 -35,-203 -35,-304 0,-89 -1,-185 -31,-269 -26,-75 -76,-136 -170,-136 -123,0 -199,103 -238,218 -23,69 -33,143 -33,203 1,170 76,365 247,428 30,11 53,38 23,63 -33,28 -85,24 -123,9 -207,-82 -308,-287 -309,-500 -1,-85 13,-167 41,-240 61,-158 190,-272 392,-272 163,0 265,65 318,182 43,97 45,205 46,309 0,96 -1,199 32,291 28,80 98,153 188,151 155,-3 205,-137 205,-270l0 -617c0,-25 36,-46 81,-46 45,0 82,21 82,46l0 616c0,150 70,271 232,271 131,0 238,-96 284,-214 25,-63 35,-132 35,-200 1,-161 -62,-369 -223,-437 -30,-13 -46,-41 -15,-64 32,-24 83,-22 118,-6 97,42 165,112 210,195 55,102 75,226 74,347 -3,273 -103,482 -261,631 -220,208 -552,299 -888,301 -298,1 -598,-68 -825,-190 -264,-142 -459,-373 -484,-725 -16,-224 69,-443 245,-555 32,-21 80,-21 114,-4 32,16 39,45 7,65 -145,92 -217,287 -203,487 19,298 166,501 374,632z"/>
 </g>
</svg>
