<?xml version="1.0" encoding="UTF-8"?>
<!DOCTYPE svg PUBLIC "-//W3C//DTD SVG 1.1//EN" "http://www.w3.org/Graphics/SVG/1.1/DTD/svg11.dtd">
<!-- Creator: CorelDRAW X8 -->
<svg xmlns="http://www.w3.org/2000/svg" xml:space="preserve" width="2461px" height="1486px" version="1.1" style="shape-rendering:geometricPrecision; text-rendering:geometricPrecision; image-rendering:optimizeQuality; fill-rule:evenodd; clip-rule:evenodd"
viewBox="0 0 2461 1487"
 xmlns:xlink="http://www.w3.org/1999/xlink">
 <defs>
  <style type="text/css">
   <![CDATA[
    .fil0 {fill:#2B2A29;fill-rule:nonzero}
   ]]>
  </style>
 </defs>
 <g id="Layer_x0020_1">
  <metadata id="CorelCorpID_0Corel-Layer"/>
  <path class="fil0" d="M2121 0c-23,0 -45,5 -62,18 -11,8 -16,18 -16,27 0,14 10,28 31,37 160,67 223,273 223,433 0,70 -10,139 -35,204 -46,118 -153,214 -284,214 -162,0 -232,-122 -232,-271l0 -616c0,-25 -37,-46 -82,-46 -46,0 -82,21 -82,46l0 616c0,131 -46,271 -204,271 -96,0 -157,-64 -189,-152 -30,-86 -32,-182 -32,-273 0,-265 -39,-508 -364,-508 -291,0 -433,233 -433,501 0,215 100,427 309,510 19,8 40,13 61,13 23,0 44,-6 62,-21 10,-8 14,-17 14,-25 0,-16 -17,-31 -36,-38 -173,-64 -248,-272 -248,-442 0,-159 76,-407 271,-407 196,0 201,275 201,417 0,101 1,195 35,291 53,149 197,225 349,225 108,0 217,-31 290,-116 71,77 180,116 310,116 84,0 165,-19 236,-56 -31,52 -67,99 -106,140 -203,211 -521,288 -804,288 -282,0 -564,-73 -765,-200 -255,-160 -376,-391 -376,-679 0,-183 71,-355 205,-440 14,-9 21,-20 21,-30 0,-13 -10,-26 -28,-35 -16,-8 -35,-12 -54,-12 -21,0 -43,5 -60,16 -162,103 -247,297 -247,502 0,345 187,618 486,778 225,122 523,191 820,191 312,0 661,-82 894,-302 179,-168 261,-396 261,-640 0,-216 -70,-440 -284,-534 -16,-7 -36,-11 -56,-11z"/>
 </g>
</svg>
