<?xml version="1.0" encoding="UTF-8"?>
<!DOCTYPE svg PUBLIC "-//W3C//DTD SVG 1.1//EN" "http://www.w3.org/Graphics/SVG/1.1/DTD/svg11.dtd">
<!-- Creator: CorelDRAW X8 -->
<svg xmlns="http://www.w3.org/2000/svg" xml:space="preserve" width="2227px" height="1024px" version="1.1" style="shape-rendering:geometricPrecision; text-rendering:geometricPrecision; image-rendering:optimizeQuality; fill-rule:evenodd; clip-rule:evenodd"
viewBox="0 0 2227 1024"
 xmlns:xlink="http://www.w3.org/1999/xlink"
 xmlns:dc="http://purl.org/dc/elements/1.1/"
 xmlns:cc="http://creativecommons.org/ns#"
 xmlns:rdf="http://www.w3.org/1999/02/22-rdf-syntax-ns#"
 xmlns:svg="http://www.w3.org/2000/svg"
 xmlns:sodipodi="http://sodipodi.sourceforge.net/DTD/sodipodi-0.dtd"
 xmlns:inkscape="http://www.inkscape.org/namespaces/inkscape"
 sodipodi:docname="ഡ്ര.svg"
 inkscape:version="0.92.3 (2405546, 2018-03-11)">
 <defs>
  <style type="text/css">
   <![CDATA[
    .fil0 {fill:#009846;fill-rule:nonzero}
   ]]>
  </style>
 </defs>
 <g id="Layer_x0020_1">
  <metadata id="CorelCorpID_0Corel-Layer"/>
  <sodipodi:namedview pagecolor="#ffffff" bordercolor="#666666" borderopacity="1" objecttolerance="10" gridtolerance="10" guidetolerance="10" inkscape:pageopacity="0" inkscape:pageshadow="2" inkscape:window-width="1062" inkscape:window-height="497" id="namedview12" showgrid="false" inkscape:zoom="0.21912887" inkscape:cx="643.45697" inkscape:cy="512" inkscape:window-x="0" inkscape:window-y="0" inkscape:window-maximized="0" inkscape:current-layer="Layer_x0020_1"/>
  <sodipodi:namedview pagecolor="#ffffff" bordercolor="#666666" borderopacity="1" objecttolerance="10" gridtolerance="10" guidetolerance="10" inkscape:pageopacity="0" inkscape:pageshadow="2" inkscape:window-width="3200" inkscape:window-height="1693" id="namedview14" showgrid="false" inkscape:zoom="0.921875" inkscape:cx="1435.6911" inkscape:cy="437.18221" inkscape:window-x="0" inkscape:window-y="0" inkscape:window-maximized="1" inkscape:current-layer="Layer_x0020_1"/>
  <sodipodi:namedview pagecolor="#ffffff" bordercolor="#666666" borderopacity="1" objecttolerance="10" gridtolerance="10" guidetolerance="10" inkscape:pageopacity="0" inkscape:pageshadow="2" inkscape:window-width="1062" inkscape:window-height="497" id="namedview12" showgrid="false" inkscape:zoom="0.15881561" inkscape:cx="581.44915" inkscape:cy="743" inkscape:window-x="0" inkscape:window-y="0" inkscape:window-maximized="0" inkscape:current-layer="Layer_x0020_1"/>
 </g>
 <g id="Layer_x0020_1_0">
  <metadata id="CorelCorpID_1Corel-Layer"/>
 </g>
 <g id="Layer_x0020_1_1">
  <metadata id="CorelCorpID_2Corel-Layer"/>
 </g>
 <g id="Layer_x0020_1_2">
  <metadata id="CorelCorpID_3Corel-Layer"/>
  <path class="fil0" d="M1385 633c0,191 134,298 314,300 147,1 257,-89 317,-210 31,-64 49,-137 50,-209 -53,75 -130,115 -220,118 -97,4 -191,-33 -250,-97 -54,-57 -81,-133 -79,-222 3,-89 37,-179 106,-236 57,-47 140,-75 223,-77 84,-2 156,21 222,75 110,91 159,253 159,408 0,103 -21,195 -61,274 -83,166 -248,269 -467,267 -132,-2 -283,-32 -379,-132 -72,95 -187,129 -303,132 -155,3 -294,-74 -348,-225 -34,-96 -34,-207 -34,-308 -1,-142 -5,-400 -202,-400 -192,0 -269,240 -270,400 -3,172 73,384 247,449 29,11 52,38 23,63 -35,29 -85,24 -124,8 -211,-84 -312,-301 -309,-520 4,-262 144,-491 433,-491 317,0 364,231 364,491 0,96 -1,199 32,290 28,80 98,154 188,152 156,-3 205,-142 205,-276l0 -611c0,-25 36,-46 81,-46 45,0 82,21 82,46l0 587zm636 -320c0,-147 -85,-222 -175,-222 -84,0 -173,73 -174,222 0,149 87,223 174,223 87,0 175,-74 175,-223z"/>
 </g>
</svg>
