<?xml version="1.0" encoding="UTF-8"?>
<!DOCTYPE svg PUBLIC "-//W3C//DTD SVG 1.1//EN" "http://www.w3.org/Graphics/SVG/1.1/DTD/svg11.dtd">
<!-- Creator: CorelDRAW X8 -->
<svg xmlns="http://www.w3.org/2000/svg" xml:space="preserve" width="1361px" height="600px" version="1.1" style="shape-rendering:geometricPrecision; text-rendering:geometricPrecision; image-rendering:optimizeQuality; fill-rule:evenodd; clip-rule:evenodd"
viewBox="0 0 1361 600"
 xmlns:xlink="http://www.w3.org/1999/xlink">
 <defs>
  <style type="text/css">
   <![CDATA[
    .fil0 {fill:#434242;fill-rule:nonzero}
   ]]>
  </style>
 </defs>
 <g id="Layer_x0020_1">
  <metadata id="CorelCorpID_0Corel-Layer"/>
  <path class="fil0" d="M1034 600c121,0 233,-46 291,-158 25,-49 36,-103 36,-159 0,-85 -27,-182 -96,-237 -41,-34 -87,-46 -140,-46 -52,0 -109,14 -151,47 -43,34 -64,89 -64,143 0,46 14,90 48,124 40,41 99,59 155,59 46,0 89,-11 124,-42 -4,31 -12,63 -27,91 -34,66 -99,119 -176,119 -103,0 -178,-66 -178,-171l0 -340c0,-24 -45,-30 -62,-30 -17,0 -61,6 -61,30l0 354c0,70 -30,157 -114,157 -46,0 -83,-46 -97,-85 -20,-53 -19,-112 -19,-168 0,-76 -7,-147 -38,-200 -32,-54 -90,-88 -193,-88 -88,0 -154,30 -198,79 -53,58 -74,138 -74,215 0,128 63,250 187,297 14,5 31,9 48,9 19,0 37,-4 49,-14 6,-5 9,-10 9,-15 0,-11 -12,-20 -25,-25 -100,-36 -146,-155 -146,-255 0,-57 17,-126 50,-172 25,-35 58,-60 100,-60 50,0 77,36 92,82 16,48 17,106 17,147 0,59 0,123 21,179 34,93 123,133 217,133 68,0 138,-15 187,-66 60,50 152,66 228,66zm85 -289c-20,0 -40,-10 -58,-30 -23,-26 -33,-62 -33,-96 0,-80 50,-126 93,-126 44,0 93,45 92,126 -1,81 -49,127 -94,126z"/>
 </g>
</svg>
