<?xml version="1.0" encoding="UTF-8" standalone="no"?>
<!-- Creator: CorelDRAW X8 -->

<svg
   xmlns:dc="http://purl.org/dc/elements/1.1/"
   xmlns:cc="http://creativecommons.org/ns#"
   xmlns:rdf="http://www.w3.org/1999/02/22-rdf-syntax-ns#"
   xmlns:svg="http://www.w3.org/2000/svg"
   xmlns="http://www.w3.org/2000/svg"
   xmlns:sodipodi="http://sodipodi.sourceforge.net/DTD/sodipodi-0.dtd"
   xmlns:inkscape="http://www.inkscape.org/namespaces/inkscape"
   xml:space="preserve"
   width="2588px"
   height="1486px"
   version="1.1"
   style="shape-rendering:geometricPrecision; text-rendering:geometricPrecision; image-rendering:optimizeQuality; fill-rule:evenodd; clip-rule:evenodd"
   viewBox="0 0 2588 1486"
   id="svg10"
   sodipodi:docname="ഢ്ര.svg"
   inkscape:version="0.92.3 (2405546, 2018-03-11)"><metadata
   id="metadata14"><rdf:RDF><cc:Work
       rdf:about=""><dc:format>image/svg+xml</dc:format><dc:type
         rdf:resource="http://purl.org/dc/dcmitype/StillImage" /></cc:Work></rdf:RDF></metadata><sodipodi:namedview
   pagecolor="#ffffff"
   bordercolor="#666666"
   borderopacity="1"
   objecttolerance="10"
   gridtolerance="10"
   guidetolerance="10"
   inkscape:pageopacity="0"
   inkscape:pageshadow="2"
   inkscape:window-width="1062"
   inkscape:window-height="497"
   id="namedview12"
   showgrid="false"
   inkscape:zoom="0.15881561"
   inkscape:cx="645.44915"
   inkscape:cy="743"
   inkscape:window-x="0"
   inkscape:window-y="0"
   inkscape:window-maximized="0"
   inkscape:current-layer="Layer_x0020_1" />
 <defs
   id="defs4">
  <style
   type="text/css"
   id="style2">
   <![CDATA[
    .fil0 {fill:#669933;fill-rule:nonzero}
   ]]>
  </style>
 </defs>
 <g
   id="Layer_x0020_1">
  <metadata
   id="CorelCorpID_0Corel-Layer" />
  <path
   class="fil0"
   d="m 2059,933 c 147,1 257,-89 317,-210 31,-64 49,-137 49,-209 -52,75 -130,115 -219,118 -98,4 -191,-33 -251,-97 -53,-57 -81,-133 -78,-222 3,-89 36,-179 105,-236 58,-47 141,-75 224,-77 84,-2 156,21 221,75 122,100 160,271 161,422 3,301 -99,524 -266,680 -255,241 -635,310 -974,309 C 757,1486 51,1262 2,571 -14,347 71,127 247,16 c 29,-19 81,-21 114,-4 34,17 37,45 7,64 -145,92 -217,288 -203,488 41,625 643,831 1183,832 367,0 802,-106 1001,-445 -85,52 -190,74 -290,73 -132,-2 -283,-31 -379,-132 -72,95 -187,129 -303,132 -156,3 -294,-74 -348,-225 C 995,703 994,592 994,491 994,349 989,91 793,91 601,91 524,331 522,491 c -2,172 73,384 247,449 38,14 48,42 23,63 -33,28 -86,23 -123,8 C 457,927 356,710 360,491 364,229 503,0 793,0 c 316,0 363,231 363,491 0,96 0,199 33,291 28,79 98,153 188,151 155,-3 204,-142 204,-276 V 46 c 0,-25 37,-46 82,-46 45,0 81,21 81,46 v 587 c 0,190 134,298 315,300 z M 2206,91 c -84,0 -174,73 -174,222 0,149 87,223 174,223 87,0 174,-74 175,-223 0,-147 -85,-222 -175,-222 z"
   id="path7"
   inkscape:connector-curvature="0"
   style="fill:#669933;fill-rule:nonzero"
   sodipodi:nodetypes="cccccscccccccccccccccccsscccccssccssssscssscs" />
 </g>
</svg>