<?xml version="1.0" encoding="UTF-8"?>
<!DOCTYPE svg PUBLIC "-//W3C//DTD SVG 1.1//EN" "http://www.w3.org/Graphics/SVG/1.1/DTD/svg11.dtd">
<!-- Creator: CorelDRAW X8 -->
<svg xmlns="http://www.w3.org/2000/svg" xml:space="preserve" width="2240px" height="1486px" version="1.1" style="shape-rendering:geometricPrecision; text-rendering:geometricPrecision; image-rendering:optimizeQuality; fill-rule:evenodd; clip-rule:evenodd"
viewBox="0 0 2240 1486"
 xmlns:xlink="http://www.w3.org/1999/xlink">
 <defs>
  <style type="text/css">
   <![CDATA[
    .fil0 {fill:#898778;fill-rule:nonzero}
   ]]>
  </style>
 </defs>
 <g id="Layer_x0020_1">
  <metadata id="CorelCorpID_0Corel-Layer"/>
  <path class="fil0" d="M1384 633l0 -587c0,-25 -36,-46 -81,-46 -45,0 -82,21 -82,46l0 611c0,134 -49,273 -204,276 -90,2 -160,-72 -188,-152 -33,-92 -32,-194 -32,-291 -1,-259 -48,-490 -364,-490 -290,0 -429,229 -433,490 -3,220 97,437 309,521 38,15 90,20 123,-8 30,-25 7,-52 -22,-63 -175,-65 -250,-277 -248,-450 2,-159 79,-399 271,-399 196,0 201,258 201,399 0,102 1,213 35,309 54,151 192,228 348,225 116,-3 231,-37 303,-132 96,100 247,130 379,132 128,1 252,-33 351,-118 -55,166 -171,320 -317,410 -18,11 -34,19 -48,25 3,-9 5,-19 5,-29 0,-87 -119,-134 -196,-152 -53,-12 -114,-19 -189,-19 -81,0 -152,8 -207,22 -122,31 -183,90 -183,149 0,59 59,117 178,149 66,18 140,25 214,25 58,0 119,-3 180,-10 120,-14 240,-45 339,-104 166,-99 276,-223 340,-371 52,-118 74,-252 74,-402 0,-171 -35,-410 -173,-524 -65,-53 -137,-76 -221,-75 -83,2 -166,30 -224,78 -69,57 -103,147 -105,236 -3,88 25,164 78,221 60,64 153,101 251,98 89,-4 167,-44 219,-119 -1,72 -18,145 -50,209 -62,127 -175,211 -316,210 -179,-2 -315,-110 -315,-300zm637 -319c-1,148 -88,222 -175,222 -87,0 -174,-74 -174,-222 0,-149 90,-223 174,-223 90,1 175,76 175,223zm-716 910c64,0 112,7 151,19 57,16 85,43 86,69 0,27 -29,54 -88,71 -38,12 -86,19 -149,19 -76,0 -137,-11 -177,-26 -43,-17 -65,-41 -64,-64 0,-23 22,-46 65,-62 40,-16 100,-26 176,-26z"/>
 </g>
</svg>
