<?xml version="1.0" encoding="UTF-8"?>
<!DOCTYPE svg PUBLIC "-//W3C//DTD SVG 1.1//EN" "http://www.w3.org/Graphics/SVG/1.1/DTD/svg11.dtd">
<!-- Creator: CorelDRAW X8 -->
<svg xmlns="http://www.w3.org/2000/svg" xml:space="preserve" width="2241px" height="1486px" version="1.1" style="shape-rendering:geometricPrecision; text-rendering:geometricPrecision; image-rendering:optimizeQuality; fill-rule:evenodd; clip-rule:evenodd"
viewBox="0 0 2241 1487"
 xmlns:xlink="http://www.w3.org/1999/xlink">
 <defs>
  <style type="text/css">
   <![CDATA[
    .fil0 {fill:#2B2A29;fill-rule:nonzero}
   ]]>
  </style>
 </defs>
 <g id="Layer_x0020_1">
  <metadata id="CorelCorpID_0Corel-Layer"/>
  <path class="fil0" d="M1702 1024c140,0 259,-43 348,-118 -65,193 -198,356 -363,436 3,-10 4,-18 4,-30 0,-86 -119,-134 -196,-152 -53,-12 -114,-18 -189,-18 -255,0 -391,80 -391,170 0,60 59,118 178,150 67,18 141,25 213,25 88,0 183,-7 275,-25 88,-18 173,-46 246,-90 301,-180 414,-437 414,-773 0,-170 -26,-403 -172,-524 -63,-52 -132,-75 -212,-75 -82,0 -170,25 -233,77 -71,59 -106,155 -106,245 0,85 27,158 79,213 56,61 144,97 236,97 97,0 177,-38 234,-118 -1,72 -19,145 -50,209 -60,120 -169,210 -315,210 -183,0 -316,-111 -316,-300l0 -587c0,-25 -37,-46 -82,-46 -46,0 -82,21 -82,46l0 611c0,142 -49,276 -205,276 -96,0 -156,-64 -188,-152 -30,-86 -32,-182 -32,-273 0,-265 -39,-508 -364,-508 -292,0 -433,233 -433,501 0,215 100,427 309,510 19,8 40,13 61,13 23,0 44,-6 62,-21 10,-8 14,-17 14,-25 0,-16 -17,-31 -36,-38 -173,-64 -248,-272 -248,-442 0,-159 75,-407 271,-407 196,0 201,275 201,417 0,101 1,195 35,291 53,149 196,225 348,225 117,0 230,-35 304,-132 96,100 247,132 381,132zm-396 378c-158,0 -242,-42 -242,-88 1,-48 82,-90 242,-90 155,0 237,46 237,88 0,42 -75,90 -237,90zm541 -866c-87,0 -174,-74 -174,-223 1,-149 90,-222 174,-222 90,0 175,75 175,222 0,149 -88,223 -175,223z"/>
 </g>
</svg>
