<?xml version="1.0" encoding="UTF-8"?>
<!DOCTYPE svg PUBLIC "-//W3C//DTD SVG 1.1//EN" "http://www.w3.org/Graphics/SVG/1.1/DTD/svg11.dtd">
<!-- Creator: CorelDRAW X8 -->
<svg xmlns="http://www.w3.org/2000/svg" xml:space="preserve" width="2240px" height="1486px" version="1.1" style="shape-rendering:geometricPrecision; text-rendering:geometricPrecision; image-rendering:optimizeQuality; fill-rule:evenodd; clip-rule:evenodd"
viewBox="0 0 2240 1486"
 xmlns:xlink="http://www.w3.org/1999/xlink">
 <defs>
  <style type="text/css">
   <![CDATA[
    .fil0 {fill:#CC6633;fill-rule:nonzero}
   ]]>
  </style>
 </defs>
 <g id="Layer_x0020_1">
  <metadata id="CorelCorpID_0Corel-Layer"/>
  <path class="fil0" d="M1384 633l0 -587c0,-25 -36,-46 -81,-46 -45,0 -82,21 -82,46l0 611c0,134 -49,273 -204,276 -90,2 -160,-72 -188,-152 -33,-91 -32,-194 -33,-290 0,-260 -47,-491 -363,-491 -290,0 -429,229 -433,491 -4,219 97,436 309,520 18,8 39,12 60,12 23,0 46,-6 63,-20 10,-8 14,-17 14,-26 0,-14 -13,-29 -37,-37 -174,-65 -249,-277 -247,-449 2,-160 79,-400 271,-400 196,0 201,258 201,400 0,101 1,212 35,308 54,151 192,228 348,225 116,-3 231,-37 303,-132 96,100 247,130 379,132 128,1 252,-33 351,-118 -55,166 -170,320 -317,410 -18,11 -34,19 -47,25 3,-9 4,-18 4,-29 0,-87 -119,-134 -196,-152 -53,-12 -114,-19 -189,-19 -81,0 -152,8 -207,22 -122,31 -183,90 -183,149 0,59 59,117 178,149 66,18 140,25 214,25 58,0 119,-3 180,-10 120,-14 240,-45 339,-104 166,-99 276,-222 340,-371 52,-118 74,-252 74,-402 0,-171 -35,-410 -173,-524 -65,-53 -137,-76 -221,-75 -83,2 -166,30 -224,78 -69,57 -102,147 -105,236 -3,88 25,165 78,221 60,64 153,101 251,98 89,-3 167,-44 219,-119 0,72 -18,145 -49,209 -63,128 -176,211 -317,210 -179,-2 -315,-110 -315,-300zm637 -319c-1,148 -88,222 -175,222 -87,0 -174,-74 -174,-222 0,-149 90,-223 174,-223 90,1 175,76 175,223zm-716 910c64,0 112,7 151,19 57,17 85,43 86,69 0,27 -29,54 -88,72 -38,11 -86,18 -149,18 -76,0 -137,-11 -177,-26 -43,-17 -65,-40 -64,-64 0,-23 22,-45 65,-62 40,-15 100,-26 176,-26z"/>
 </g>
</svg>
