<?xml version="1.0" encoding="UTF-8"?>
<!DOCTYPE svg PUBLIC "-//W3C//DTD SVG 1.1//EN" "http://www.w3.org/Graphics/SVG/1.1/DTD/svg11.dtd">
<!-- Creator: CorelDRAW X8 -->
<svg xmlns="http://www.w3.org/2000/svg" xml:space="preserve" width="2307px" height="1024px" version="1.1" style="shape-rendering:geometricPrecision; text-rendering:geometricPrecision; image-rendering:optimizeQuality; fill-rule:evenodd; clip-rule:evenodd"
viewBox="0 0 2307 1024"
 xmlns:xlink="http://www.w3.org/1999/xlink">
 <defs>
  <style type="text/css">
   <![CDATA[
    .fil0 {fill:#434242;fill-rule:nonzero}
   ]]>
  </style>
 </defs>
 <g id="Layer_x0020_1">
  <metadata id="CorelCorpID_0Corel-Layer"/>
  <path class="fil0" d="M1968 1024c20,0 41,-5 59,-13 193,-87 280,-297 280,-499 0,-89 -15,-176 -51,-253 -79,-168 -248,-259 -431,-259 -133,0 -245,51 -315,132 -76,-90 -176,-132 -292,-132 -114,0 -226,45 -302,134 -98,-101 -250,-134 -388,-134 -195,0 -377,87 -467,267 -39,78 -61,171 -61,273 0,156 49,317 159,408 64,52 136,75 217,75 83,0 164,-23 228,-77 74,-62 105,-155 105,-249 0,-82 -28,-155 -78,-208 -58,-62 -146,-98 -239,-98 -95,0 -175,41 -231,119 1,-72 19,-145 50,-209 61,-125 172,-210 314,-210 182,0 319,104 319,299l0 588c0,25 36,46 80,46 44,0 82,-21 82,-46l0 -612c0,-136 64,-274 212,-274 150,0 212,143 212,273l0 613c0,25 36,45 81,45 45,0 82,-20 82,-45l0 -613c0,-148 70,-274 232,-274 131,0 237,96 284,214 25,64 35,135 35,205 0,160 -63,364 -223,432 -19,8 -32,22 -32,36 0,9 5,19 17,27 18,13 39,19 62,19zm-1587 -92c-90,0 -175,-75 -175,-222 0,-148 88,-222 175,-222 87,0 173,73 173,219 0,105 -51,225 -173,225z"/>
 </g>
</svg>
