<?xml version="1.0" encoding="UTF-8"?>
<!DOCTYPE svg PUBLIC "-//W3C//DTD SVG 1.1//EN" "http://www.w3.org/Graphics/SVG/1.1/DTD/svg11.dtd">
<!-- Creator: CorelDRAW X8 -->
<svg xmlns="http://www.w3.org/2000/svg" xml:space="preserve" width="1408px" height="600px" version="1.1" style="shape-rendering:geometricPrecision; text-rendering:geometricPrecision; image-rendering:optimizeQuality; fill-rule:evenodd; clip-rule:evenodd"
viewBox="0 0 1408 600"
 xmlns:xlink="http://www.w3.org/1999/xlink">
 <defs>
  <style type="text/css">
   <![CDATA[
    .fil0 {fill:#898778;fill-rule:nonzero}
   ]]>
  </style>
 </defs>
 <g id="Layer_x0020_1">
  <metadata id="CorelCorpID_0Corel-Layer"/>
  <path class="fil0" d="M743 0c66,1 127,20 175,67 51,-48 121,-67 189,-67 112,0 220,49 270,153 23,47 32,100 31,152 -2,120 -55,236 -169,286 -27,11 -72,14 -96,-4 -20,-14 -9,-31 11,-39 91,-38 130,-151 131,-243 1,-42 -5,-85 -21,-125 -25,-62 -86,-121 -157,-121 -88,0 -127,77 -127,156l0 355c0,24 -45,30 -62,30 -17,0 -61,-6 -61,-30l0 -355c0,-68 -35,-156 -115,-155 -80,0 -114,88 -114,156l0 355c0,23 -45,29 -62,29 -16,0 -61,-6 -61,-29 0,-114 0,-341 0,-341 -1,-108 -73,-171 -179,-171 -77,1 -141,53 -175,119 -14,28 -24,60 -27,91 32,-28 72,-40 115,-42 59,-2 122,16 164,59 34,35 49,81 47,129 -1,52 -22,105 -63,138 -41,32 -95,46 -146,47 -53,0 -103,-12 -145,-46 -70,-55 -96,-152 -96,-237 0,-55 11,-110 36,-159 57,-110 171,-157 289,-158 80,0 173,15 236,68 49,-48 115,-69 182,-68zm-595 415c0,40 11,70 29,92 18,23 41,34 64,34 21,-1 41,-11 58,-30 23,-24 34,-60 34,-97 0,-36 -11,-71 -33,-95 -18,-20 -39,-30 -60,-30 -22,0 -45,12 -63,35 -17,21 -29,51 -29,91z"/>
 </g>
</svg>
