<?xml version="1.0" encoding="UTF-8"?>
<!DOCTYPE svg PUBLIC "-//W3C//DTD SVG 1.1//EN" "http://www.w3.org/Graphics/SVG/1.1/DTD/svg11.dtd">
<!-- Creator: CorelDRAW X8 -->
<svg xmlns="http://www.w3.org/2000/svg" xml:space="preserve" width="2819px" height="1486px" version="1.1" style="shape-rendering:geometricPrecision; text-rendering:geometricPrecision; image-rendering:optimizeQuality; fill-rule:evenodd; clip-rule:evenodd"
viewBox="0 0 2819 1486"
 xmlns:xlink="http://www.w3.org/1999/xlink">
 <defs>
  <style type="text/css">
   <![CDATA[
    .fil0 {fill:#434242;fill-rule:nonzero}
   ]]>
  </style>
 </defs>
 <g id="Layer_x0020_1">
  <metadata id="CorelCorpID_0Corel-Layer"/>
  <path class="fil0" d="M1276 1024c45,0 81,-20 81,-45l0 -612c0,-132 58,-275 210,-275 149,0 214,143 214,274l0 612c0,25 37,45 82,45 45,0 81,-20 81,-45l0 -587c0,-237 167,-300 364,-300 159,0 319,77 319,179 0,52 -22,76 -76,76 -67,0 -138,-29 -212,-29 -41,0 -80,6 -117,29 -62,38 -87,101 -87,172 0,75 35,142 101,179 41,22 82,29 128,29 52,0 96,-16 137,-16 103,0 154,101 154,193 0,227 -208,340 -399,398 -294,90 -672,94 -852,94 -264,0 -626,-50 -844,-172 -255,-142 -397,-371 -397,-664 0,-184 79,-379 239,-484 13,-9 19,-19 19,-29 0,-13 -11,-27 -29,-35 -15,-8 -34,-11 -53,-11 -22,0 -44,5 -61,16 -183,121 -278,331 -278,543 0,326 165,573 446,729 261,145 642,198 958,198 209,0 574,-4 882,-85 292,-76 533,-221 533,-495 0,-160 -82,-301 -257,-301 -56,0 -100,18 -155,18 -65,0 -126,-27 -126,-102 0,-63 43,-97 104,-97 64,0 127,24 194,24 111,0 197,-57 197,-178 0,-227 -285,-270 -468,-270 -145,0 -328,32 -433,135 -70,-99 -192,-135 -308,-135 -115,0 -224,45 -298,135 -98,-101 -253,-134 -391,-134 -197,0 -375,85 -465,266 -40,79 -60,171 -60,274 0,155 48,316 159,408 64,53 138,75 221,75 85,0 165,-29 224,-78 74,-61 105,-155 105,-249 0,-82 -28,-154 -78,-208 -57,-61 -144,-97 -237,-97 -96,0 -178,38 -233,118 1,-72 18,-145 50,-209 62,-125 171,-209 314,-209 182,0 317,104 317,299l0 588c0,25 37,45 81,45zm-543 -91c-122,-1 -174,-115 -174,-223 0,-148 87,-222 174,-222 87,0 174,74 174,222 0,149 -90,223 -174,223z"/>
 </g>
</svg>
