<?xml version="1.0" encoding="UTF-8"?>
<!DOCTYPE svg PUBLIC "-//W3C//DTD SVG 1.1//EN" "http://www.w3.org/Graphics/SVG/1.1/DTD/svg11.dtd">
<!-- Creator: CorelDRAW X8 -->
<svg xmlns="http://www.w3.org/2000/svg" xml:space="preserve" width="1701px" height="825px" version="1.1" style="shape-rendering:geometricPrecision; text-rendering:geometricPrecision; image-rendering:optimizeQuality; fill-rule:evenodd; clip-rule:evenodd"
viewBox="0 0 1701 825"
 xmlns:xlink="http://www.w3.org/1999/xlink">
 <defs>
  <style type="text/css">
   <![CDATA[
    .fil0 {fill:#434242;fill-rule:nonzero}
   ]]>
  </style>
 </defs>
 <g id="Layer_x0020_1">
  <metadata id="CorelCorpID_0Corel-Layer"/>
  <path class="fil0" d="M1701 468c0,-173 -95,-316 -274,-353 -74,-85 -175,-115 -286,-115 -72,0 -167,20 -223,67 -49,-49 -109,-67 -176,-67 -65,0 -133,21 -181,68 -63,-53 -156,-68 -236,-68 -119,0 -232,48 -289,158 -25,49 -36,103 -36,159 0,85 26,182 96,237 42,34 91,46 145,46 51,0 105,-15 146,-47 45,-36 63,-90 63,-146 0,-45 -15,-88 -47,-121 -40,-41 -99,-59 -155,-59 -46,0 -90,12 -125,42 4,-31 14,-63 28,-91 34,-66 98,-119 175,-119 106,-1 179,63 179,171l0 341c0,23 45,29 61,29 17,0 61,-6 61,-29l0 -355c0,-69 35,-156 115,-156 80,0 115,86 115,155l0 355c0,24 44,30 61,30 17,0 62,-6 62,-30l0 -355c0,-96 67,-156 161,-156 52,0 106,20 146,53 -75,11 -145,43 -192,104 -35,45 -55,104 -55,161 0,47 13,95 40,134 44,64 117,89 188,89 77,0 152,-30 194,-97 30,-48 44,-106 44,-162 1,-38 -4,-74 -14,-108 61,61 86,150 86,235 0,139 -70,298 -231,298 -44,0 -94,-14 -130,-41 -13,-10 -33,-14 -52,-14 -15,0 -28,2 -39,6 -12,5 -23,15 -23,25 0,5 3,10 10,15 64,49 153,68 234,68 216,0 354,-142 354,-357zm-433 73c-38,0 -67,-25 -84,-61 -14,-28 -20,-63 -20,-100 0,-50 15,-101 44,-142 28,-39 70,-67 128,-71 31,46 47,111 47,173 1,40 -9,101 -34,145 -18,32 -44,56 -81,56zm-1027 0c-43,1 -93,-41 -93,-126 0,-80 51,-126 92,-126 48,0 92,56 93,125 1,36 -11,73 -34,97 -17,19 -38,30 -58,30z"/>
 </g>
</svg>
