<?xml version="1.0" encoding="UTF-8"?>
<!DOCTYPE svg PUBLIC "-//W3C//DTD SVG 1.1//EN" "http://www.w3.org/Graphics/SVG/1.1/DTD/svg11.dtd">
<!-- Creator: CorelDRAW X8 -->
<svg xmlns="http://www.w3.org/2000/svg" xml:space="preserve" width="2433px" height="1024px" version="1.1" style="shape-rendering:geometricPrecision; text-rendering:geometricPrecision; image-rendering:optimizeQuality; fill-rule:evenodd; clip-rule:evenodd"
viewBox="0 0 2433 1024"
 xmlns:xlink="http://www.w3.org/1999/xlink">
 <defs>
  <style type="text/css">
   <![CDATA[
    .fil0 {fill:#2B2A29;fill-rule:nonzero}
   ]]>
  </style>
 </defs>
 <g id="Layer_x0020_1">
  <metadata id="CorelCorpID_0Corel-Layer"/>
  <path class="fil0" d="M923 1024c45,0 81,-20 81,-45l0 -612c0,-132 58,-275 210,-275 150,0 215,143 215,274l0 612c0,25 37,45 82,45 45,0 81,-20 81,-45l0 -587c0,-233 158,-299 361,-299 106,0 322,28 322,174 0,51 -22,80 -75,80 -68,0 -139,-29 -213,-29 -41,0 -81,8 -120,32 -53,34 -84,92 -84,168 0,72 35,147 101,180 44,23 87,30 127,30 63,0 120,-17 165,-17 52,0 97,31 99,87 0,103 -99,133 -185,133l-12 0c-56,-1 -113,-9 -157,-28 -14,-7 -33,-10 -51,-10 -23,0 -47,6 -63,18 -13,9 -18,18 -18,27 0,15 13,28 31,36 72,32 166,50 259,50 144,0 354,-43 354,-226 0,-117 -88,-192 -202,-192 -59,0 -118,18 -176,18 -68,0 -126,-28 -126,-104 0,-64 46,-95 105,-95 63,0 126,24 194,24 109,0 196,-49 196,-169 0,-216 -303,-279 -471,-279 -142,0 -325,33 -430,135 -71,-99 -192,-135 -309,-135 -115,0 -224,45 -298,135 -98,-101 -253,-134 -391,-134 -197,0 -374,85 -465,266 -39,79 -60,171 -60,274 0,155 48,316 159,408 64,53 138,75 221,75 85,-1 165,-29 224,-78 74,-61 105,-155 105,-249 0,-82 -28,-154 -78,-208 -57,-61 -144,-97 -237,-97 -96,0 -177,38 -233,118 1,-72 18,-145 50,-209 62,-125 171,-209 314,-209 182,0 317,104 317,299l0 588c0,25 37,45 81,45zm-543 -91c-122,-1 -174,-115 -174,-223 0,-148 87,-222 174,-222 87,0 174,74 174,222 0,149 -90,223 -174,223z"/>
 </g>
</svg>
