<?xml version="1.0" encoding="UTF-8"?>
<!DOCTYPE svg PUBLIC "-//W3C//DTD SVG 1.1//EN" "http://www.w3.org/Graphics/SVG/1.1/DTD/svg11.dtd">
<!-- Creator: CorelDRAW X8 -->
<svg xmlns="http://www.w3.org/2000/svg" xml:space="preserve" width="3644px" height="1486px" version="1.1" style="shape-rendering:geometricPrecision; text-rendering:geometricPrecision; image-rendering:optimizeQuality; fill-rule:evenodd; clip-rule:evenodd"
viewBox="0 0 3644 1486"
 xmlns:xlink="http://www.w3.org/1999/xlink">
 <defs>
  <style type="text/css">
   <![CDATA[
    .fil0 {fill:#2B2A29;fill-rule:nonzero}
   ]]>
  </style>
 </defs>
 <g id="Layer_x0020_1">
  <metadata id="CorelCorpID_0Corel-Layer"/>
  <path class="fil0" d="M2709 1486c89,0 185,-6 277,-25 87,-17 171,-46 244,-89 166,-99 276,-223 340,-371 52,-118 74,-252 74,-402 0,-171 -35,-410 -173,-524 -64,-53 -134,-75 -216,-75 -79,0 -168,27 -229,78 -74,61 -105,155 -105,249 0,82 28,154 78,208 58,62 146,98 240,98 93,0 176,-42 230,-119 -1,72 -18,145 -50,209 -62,126 -171,210 -311,210 -183,0 -320,-111 -320,-300l0 -587c0,-25 -36,-46 -81,-46 -45,0 -82,21 -82,46l0 611c0,135 -55,276 -213,276 -88,0 -151,-72 -179,-151 -33,-92 -33,-195 -33,-291 0,-284 -58,-490 -376,-490 -133,0 -245,50 -315,131 -75,-89 -175,-132 -291,-132 -115,0 -228,46 -302,135 -98,-101 -253,-134 -391,-134 -197,0 -374,85 -465,266 -39,79 -60,171 -60,274 0,155 48,316 159,408 64,52 136,75 216,75 82,0 165,-25 229,-77 74,-62 105,-155 105,-249 0,-83 -28,-155 -78,-209 -57,-60 -144,-97 -237,-97 -96,0 -177,39 -233,118 1,-72 18,-145 50,-209 61,-124 172,-209 314,-209 185,0 317,102 317,299l0 588c0,25 37,45 81,45 45,0 82,-20 82,-45l0 -612c0,-132 61,-275 213,-275 149,0 211,143 211,274l0 612c0,25 36,46 81,46 45,0 81,-21 81,-46l0 -612c0,-149 71,-274 233,-274 208,0 214,240 214,399 0,101 0,212 34,308 54,150 190,225 340,225 116,0 239,-35 311,-132 96,99 251,132 385,132 127,0 248,-34 346,-118 -52,156 -157,301 -291,393 -24,17 -47,29 -74,42 3,-9 5,-19 5,-29 0,-87 -119,-134 -196,-152 -53,-12 -114,-19 -189,-19 -81,0 -152,8 -208,22 -121,31 -182,90 -182,149 0,59 59,117 177,149 67,18 141,25 213,25zm541 -950c-87,0 -174,-74 -174,-222 0,-149 90,-223 174,-223 90,0 175,75 175,223 -1,148 -88,222 -175,222zm-2870 397c-121,0 -174,-115 -174,-222 0,-148 87,-223 174,-223 87,0 174,73 174,220 0,106 -53,225 -174,225zm2329 469c-76,0 -137,-11 -177,-26 -27,-11 -64,-30 -64,-64 0,-23 22,-46 65,-62 40,-16 100,-26 176,-26 64,0 112,7 150,19 58,16 86,43 86,69 0,41 -56,62 -87,71 -38,12 -86,19 -149,19z"/>
 </g>
</svg>
