<?xml version="1.0" encoding="UTF-8"?>
<!DOCTYPE svg PUBLIC "-//W3C//DTD SVG 1.1//EN" "http://www.w3.org/Graphics/SVG/1.1/DTD/svg11.dtd">
<!-- Creator: CorelDRAW X8 -->
<svg xmlns="http://www.w3.org/2000/svg" xml:space="preserve" width="3517px" height="1486px" version="1.1" style="shape-rendering:geometricPrecision; text-rendering:geometricPrecision; image-rendering:optimizeQuality; fill-rule:evenodd; clip-rule:evenodd"
viewBox="0 0 3517 1486"
 xmlns:xlink="http://www.w3.org/1999/xlink">
 <defs>
  <style type="text/css">
   <![CDATA[
    .fil0 {fill:#898778;fill-rule:nonzero}
   ]]>
  </style>
 </defs>
 <g id="Layer_x0020_1">
  <metadata id="CorelCorpID_0Corel-Layer"/>
  <path class="fil0" d="M206 710c-1,148 85,223 174,223 85,0 174,-74 174,-223 0,-148 -86,-222 -174,-222 -87,0 -174,74 -174,222zm2503 515c-76,0 -137,10 -176,25 -43,17 -65,40 -66,63 0,23 22,46 65,63 40,16 101,26 177,26 63,0 111,-7 149,-18 58,-17 87,-44 87,-71 0,-27 -29,-53 -86,-70 -38,-11 -86,-18 -150,-18zm631 -314c-88,76 -204,113 -320,113 -130,0 -239,-39 -310,-116 -62,73 -166,113 -290,116 -156,3 -294,-74 -348,-225 -34,-96 -35,-207 -35,-308 0,-160 -5,-399 -213,-399 -162,0 -233,125 -233,274l0 612c0,25 -36,46 -81,46 -45,0 -81,-21 -81,-46l0 -612c0,-131 -62,-274 -211,-274 -152,0 -213,143 -213,275l0 612c0,25 -37,45 -82,45 -44,0 -81,-20 -81,-45l0 -588c0,-198 -133,-300 -320,-299 -144,0 -252,90 -311,209 -32,64 -49,137 -50,209 52,-75 130,-115 219,-118 98,-4 191,34 251,97 53,57 81,133 78,221 -2,89 -36,179 -105,236 -59,49 -139,77 -224,78 -82,0 -156,-22 -221,-75 -111,-92 -159,-253 -159,-408 0,-103 21,-195 60,-274 82,-163 249,-265 462,-266 139,-1 295,31 394,134 75,-91 185,-136 302,-135 110,1 214,42 291,132 70,-81 182,-131 315,-131 318,0 375,205 375,490 0,96 0,199 33,290 28,80 98,154 188,152 155,-3 204,-137 204,-271l0 -616c0,-25 37,-46 82,-46 45,0 81,21 81,46l0 616c0,149 71,271 233,271 130,0 238,-97 284,-214 24,-63 35,-132 35,-200 1,-161 -62,-369 -223,-437 -30,-13 -46,-41 -15,-64 31,-23 83,-22 118,-7 161,71 237,214 271,372 20,92 28,190 27,284 -1,77 -7,155 -21,230 -36,192 -123,368 -303,475 -84,50 -196,83 -307,100 -62,9 -123,14 -180,14 -68,1 -144,-7 -210,-24 -118,-32 -177,-91 -177,-149 0,-59 61,-118 182,-149 56,-15 127,-23 208,-23 75,0 136,7 189,19 76,18 195,65 196,153 0,6 -1,12 -2,17 154,-89 228,-249 248,-419z"/>
 </g>
</svg>
