<?xml version="1.0" encoding="UTF-8"?>
<!DOCTYPE svg PUBLIC "-//W3C//DTD SVG 1.1//EN" "http://www.w3.org/Graphics/SVG/1.1/DTD/svg11.dtd">
<!-- Creator: CorelDRAW X8 -->
<svg xmlns="http://www.w3.org/2000/svg" xml:space="preserve" width="1506px" height="600px" version="1.1" style="shape-rendering:geometricPrecision; text-rendering:geometricPrecision; image-rendering:optimizeQuality; fill-rule:evenodd; clip-rule:evenodd"
viewBox="0 0 1506 600"
 xmlns:xlink="http://www.w3.org/1999/xlink">
 <defs>
  <style type="text/css">
   <![CDATA[
    .fil0 {fill:#2B2A29;fill-rule:nonzero}
   ]]>
  </style>
 </defs>
 <g id="Layer_x0020_1">
  <metadata id="CorelCorpID_0Corel-Layer"/>
  <path class="fil0" d="M1268 600c77,0 152,-30 194,-97 31,-49 44,-110 44,-167 0,-77 -21,-150 -70,-211 -75,-92 -180,-125 -295,-125 -71,0 -166,20 -223,67 -48,-48 -107,-67 -174,-67 -66,0 -135,21 -183,68 -63,-53 -156,-68 -236,-68 -118,1 -232,48 -289,158 -25,49 -36,103 -36,159 0,85 27,182 96,237 42,34 92,46 145,46 52,-1 105,-15 146,-47 44,-36 63,-91 63,-146 0,-45 -15,-88 -47,-121 -40,-41 -99,-59 -155,-59 -45,0 -90,12 -124,42 4,-31 13,-63 27,-91 34,-66 98,-118 175,-119 107,0 178,63 180,171l0 341c0,23 44,29 61,29 16,0 61,-6 61,-29l0 -355c0,-70 34,-156 116,-156 78,0 113,87 113,155l0 355c0,24 45,30 61,30 17,0 62,-6 62,-30l0 -355c0,-95 68,-156 161,-156 52,0 107,20 146,53 -74,11 -145,43 -192,104 -35,45 -54,104 -54,161 0,47 12,95 39,134 44,64 117,89 188,89zm0 -59c-41,0 -71,-29 -88,-70 -10,-24 -15,-52 -15,-83 0,-54 11,-105 43,-149 28,-39 70,-68 128,-72 31,46 47,111 47,173 0,40 -9,101 -34,145 -18,33 -44,56 -81,56zm-1027 0c-44,0 -93,-45 -93,-126 2,-83 50,-126 93,-126 46,0 92,56 92,125 0,70 -43,125 -92,127z"/>
 </g>
</svg>
