<?xml version="1.0" encoding="UTF-8" standalone="no"?>
<!-- Creator: CorelDRAW X8 -->

<svg
   xmlns:dc="http://purl.org/dc/elements/1.1/"
   xmlns:cc="http://creativecommons.org/ns#"
   xmlns:rdf="http://www.w3.org/1999/02/22-rdf-syntax-ns#"
   xmlns:svg="http://www.w3.org/2000/svg"
   xmlns="http://www.w3.org/2000/svg"
   xmlns:sodipodi="http://sodipodi.sourceforge.net/DTD/sodipodi-0.dtd"
   xmlns:inkscape="http://www.inkscape.org/namespaces/inkscape"
   xml:space="preserve"
   width="3502px"
   height="1024px"
   version="1.1"
   style="shape-rendering:geometricPrecision; text-rendering:geometricPrecision; image-rendering:optimizeQuality; fill-rule:evenodd; clip-rule:evenodd"
   viewBox="0 0 3502 1024"
   id="svg10"
   sodipodi:docname="ണ്ഡ.svg"
   inkscape:version="0.92.3 (2405546, 2018-03-11)"><metadata
   id="metadata14"><rdf:RDF><cc:Work
       rdf:about=""><dc:format>image/svg+xml</dc:format><dc:type
         rdf:resource="http://purl.org/dc/dcmitype/StillImage" /></cc:Work></rdf:RDF></metadata><sodipodi:namedview
   pagecolor="#ffffff"
   bordercolor="#666666"
   borderopacity="1"
   objecttolerance="10"
   gridtolerance="10"
   guidetolerance="10"
   inkscape:pageopacity="0"
   inkscape:pageshadow="2"
   inkscape:window-width="1062"
   inkscape:window-height="497"
   id="namedview12"
   showgrid="false"
   inkscape:zoom="0.13934894"
   inkscape:cx="1011.8484"
   inkscape:cy="512"
   inkscape:window-x="0"
   inkscape:window-y="0"
   inkscape:window-maximized="0"
   inkscape:current-layer="Layer_x0020_1" />
 <defs
   id="defs4">
  <style
   type="text/css"
   id="style2">
   <![CDATA[
    .fil0 {fill:#669933;fill-rule:nonzero}
   ]]>
  </style>
 </defs>
 <g
   id="Layer_x0020_1">
  <metadata
   id="CorelCorpID_0Corel-Layer" />
  <path
   class="fil0"
   d="m 380,933 c 85,0 174,-74 174,-222 1,-149 -86,-223 -174,-223 -87,0 -174,74 -174,223 -1,147 85,222 174,222 z m 2040,91 c -156,3 -294,-74 -348,-225 -34,-96 -35,-207 -35,-308 0,-160 -5,-399 -213,-399 -162,0 -233,125 -233,274 v 612 c 0,25 -36,46 -81,46 -45,0 -81,-21 -81,-46 V 366 c 0,-131 -62,-274 -211,-274 -152,0 -213,143 -213,275 v 612 c 0,25 -37,45 -81,45 -45,0 -82,-20 -82,-45 V 391 C 842,194 707,91 522,92 378,92 270,182 211,301 c -32,64 -49,137 -50,209 52,-74 130,-115 219,-118 98,-4 191,34 251,97 53,57 81,133 78,222 -2,88 -36,178 -105,235 -59,49 -139,77 -224,78 -82,1 -156,-22 -221,-75 C 48,857 0,696 0,541 0,438 21,346 60,267 142,104 309,2 522,1 661,0 817,32 916,135 991,44 1101,-1 1218,0 c 110,1 214,42 291,132 70,-81 182,-131 315,-131 318,0 375,205 376,490 0,96 -1,199 32,290 28,80 98,154 188,152 155,-3 205,-137 205,-271 V 46 c 0,-25 36,-46 81,-46 45,0 82,21 82,46 v 616 c 0,150 70,271 232,271 131,0 238,-96 284,-214 26,-67 36,-141 35,-214 -2,-158 -67,-357 -223,-423 -35,-16 -42,-44 -15,-64 32,-24 83,-22 118,-7 194,86 280,293 283,494 1,91 -14,181 -51,260 -79,169 -248,259 -431,259 -130,0 -239,-39 -310,-116 -62,73 -166,113 -290,116 z"
   id="path7"
   inkscape:connector-curvature="0"
   style="fill:#669933;fill-rule:nonzero"
   sodipodi:nodetypes="scscsccssssssssssssscccccccccscccccscccsssssscccccccscc" />
 </g>
</svg>