<?xml version="1.0" encoding="UTF-8"?>
<!DOCTYPE svg PUBLIC "-//W3C//DTD SVG 1.1//EN" "http://www.w3.org/Graphics/SVG/1.1/DTD/svg11.dtd">
<!-- Creator: CorelDRAW X8 -->
<svg xmlns="http://www.w3.org/2000/svg" xml:space="preserve" width="2442px" height="1024px" version="1.1" style="shape-rendering:geometricPrecision; text-rendering:geometricPrecision; image-rendering:optimizeQuality; fill-rule:evenodd; clip-rule:evenodd"
viewBox="0 0 2442 1024"
 xmlns:xlink="http://www.w3.org/1999/xlink">
 <defs>
  <style type="text/css">
   <![CDATA[
    .fil0 {fill:#434242;fill-rule:nonzero}
   ]]>
  </style>
 </defs>
 <g id="Layer_x0020_1">
  <metadata id="CorelCorpID_0Corel-Layer"/>
  <path class="fil0" d="M923 1024c45,0 81,-20 81,-45l0 -612c0,-132 58,-275 210,-275 149,0 214,143 214,274l0 588c0,26 38,46 83,46l850 0c45,0 81,-20 81,-46l0 -526c0,-126 -49,-228 -129,-299 -93,-84 -227,-129 -377,-129 -146,0 -301,44 -403,153 -76,-110 -189,-153 -319,-153 -115,0 -224,45 -298,135 -98,-101 -253,-134 -391,-134 -197,0 -375,85 -465,266 -40,79 -60,171 -60,274 0,155 48,316 159,408 64,53 139,76 221,75 85,0 165,-29 224,-78 74,-61 105,-155 105,-249 0,-82 -28,-154 -78,-208 -57,-60 -144,-97 -237,-97 -96,0 -178,39 -233,118 1,-72 18,-145 50,-209 62,-125 171,-209 314,-209 185,0 317,102 317,299l0 588c0,25 37,45 81,45zm1356 -115l-456 0c202,-138 312,-360 311,-547 0,-111 -42,-209 -134,-266 157,26 279,141 279,332l0 481zm-687 -1l0 -480c0,-110 40,-194 103,-251 33,-29 74,-49 118,-49 118,0 160,134 160,234 0,230 -174,459 -381,546zm-1212 25c-122,0 -174,-116 -174,-223 0,-148 87,-222 174,-222 87,0 174,74 174,222 0,149 -89,223 -174,223z"/>
 </g>
</svg>
