<?xml version="1.0" encoding="UTF-8"?>
<!DOCTYPE svg PUBLIC "-//W3C//DTD SVG 1.1//EN" "http://www.w3.org/Graphics/SVG/1.1/DTD/svg11.dtd">
<!-- Creator: CorelDRAW X8 -->
<svg xmlns="http://www.w3.org/2000/svg" xml:space="preserve" width="3629px" height="1024px" version="1.1" style="shape-rendering:geometricPrecision; text-rendering:geometricPrecision; image-rendering:optimizeQuality; fill-rule:evenodd; clip-rule:evenodd"
viewBox="0 0 3629 1024"
 xmlns:xlink="http://www.w3.org/1999/xlink">
 <defs>
  <style type="text/css">
   <![CDATA[
    .fil0 {fill:#CC6633;fill-rule:nonzero}
   ]]>
  </style>
 </defs>
 <g id="Layer_x0020_1">
  <metadata id="CorelCorpID_0Corel-Layer"/>
  <path class="fil0" d="M206 711c0,-148 87,-223 174,-223 87,0 174,74 174,223 0,148 -90,222 -174,222 -90,0 -175,-75 -174,-222zm2581 -78l0 -587c0,-25 -36,-46 -81,-46 -45,0 -82,21 -82,46l0 611c0,134 -49,272 -204,276 -90,2 -160,-72 -189,-151 -32,-92 -32,-195 -32,-291 0,-284 -57,-490 -375,-490 -133,0 -245,50 -315,131 -77,-90 -181,-131 -292,-132 -116,-1 -226,45 -301,135 -99,-103 -255,-135 -394,-134 -213,1 -380,103 -462,266 -39,79 -60,171 -60,274 0,155 48,316 159,408 64,53 138,76 221,75 85,-1 165,-29 224,-78 69,-57 102,-146 105,-235 3,-89 -25,-165 -78,-222 -60,-63 -153,-101 -251,-97 -89,3 -167,44 -219,118 1,-72 18,-145 50,-209 59,-119 167,-208 311,-209 186,-1 320,101 320,299l0 588c0,25 37,45 81,45 45,0 81,-20 81,-45l0 -612c0,-132 62,-275 214,-275 149,0 210,143 210,274l0 612c0,25 37,46 82,46 45,0 81,-21 81,-46l0 -612c0,-149 71,-274 233,-274 208,0 213,240 213,399 0,101 0,212 35,308 55,154 195,228 348,225 115,-3 230,-37 302,-132 97,100 247,130 380,132 219,2 383,-101 467,-267 39,-79 60,-171 60,-274 0,-155 -48,-317 -159,-408 -65,-54 -137,-77 -221,-75 -83,2 -166,29 -224,77 -69,57 -103,147 -105,236 -3,89 25,165 78,222 60,63 153,101 251,97 89,-3 167,-44 219,-118 -1,72 -18,145 -50,209 -59,121 -170,211 -316,210 -182,-2 -315,-110 -315,-300zm636 -320c0,148 -87,223 -174,223 -88,0 -175,-74 -174,-223 0,-149 89,-222 174,-222 89,0 175,75 174,222z"/>
 </g>
</svg>
