<?xml version="1.0" encoding="UTF-8"?>
<!DOCTYPE svg PUBLIC "-//W3C//DTD SVG 1.1//EN" "http://www.w3.org/Graphics/SVG/1.1/DTD/svg11.dtd">
<!-- Creator: CorelDRAW X8 -->
<svg xmlns="http://www.w3.org/2000/svg" xml:space="preserve" width="3630px" height="1024px" version="1.1" style="shape-rendering:geometricPrecision; text-rendering:geometricPrecision; image-rendering:optimizeQuality; fill-rule:evenodd; clip-rule:evenodd"
viewBox="0 0 3630 1024"
 xmlns:xlink="http://www.w3.org/1999/xlink">
 <defs>
  <style type="text/css">
   <![CDATA[
    .fil0 {fill:#2B2A29;fill-rule:nonzero}
   ]]>
  </style>
 </defs>
 <g id="Layer_x0020_1">
  <metadata id="CorelCorpID_0Corel-Layer"/>
  <path class="fil0" d="M3105 1024c216,0 382,-103 465,-267 39,-79 60,-171 60,-274 0,-155 -48,-317 -159,-408 -62,-52 -131,-75 -211,-75 -82,0 -170,24 -234,77 -74,61 -105,155 -105,249 0,83 28,155 78,209 57,60 144,97 237,97 96,0 177,-39 233,-118 -1,72 -18,145 -50,209 -59,120 -169,210 -314,210 -184,0 -317,-111 -317,-300l0 -587c0,-25 -36,-46 -81,-46 -45,0 -82,21 -82,46l0 611c0,134 -56,276 -213,276 -88,0 -151,-73 -180,-151 -32,-92 -32,-195 -32,-291 0,-284 -58,-490 -376,-490 -133,0 -245,50 -315,131 -76,-89 -175,-132 -291,-132 -114,0 -228,46 -302,135 -98,-101 -253,-134 -391,-134 -197,0 -374,85 -465,266 -39,79 -60,171 -60,274 0,155 48,316 159,408 63,52 135,75 216,75 82,0 165,-25 229,-78 73,-60 105,-155 105,-248 0,-83 -28,-155 -78,-209 -57,-60 -144,-97 -237,-97 -96,0 -177,39 -233,118 1,-72 18,-145 50,-209 61,-124 172,-209 314,-209 184,0 317,102 317,299l0 588c0,25 37,45 81,45 45,0 81,-20 81,-45l0 -612c0,-132 62,-275 214,-275 149,0 210,143 210,274l0 612c0,25 37,46 82,46 45,0 81,-21 81,-46l0 -612c0,-149 71,-274 233,-274 208,0 214,240 214,399 0,101 0,212 34,308 54,151 191,225 340,225 116,0 238,-35 311,-132 97,100 247,132 382,132zm145 -488c-87,0 -174,-73 -174,-220 0,-105 53,-225 174,-225 121,0 174,116 174,222 0,148 -87,223 -174,223zm-2870 397c-121,0 -174,-115 -174,-222 0,-148 87,-223 174,-223 87,0 174,74 174,223 0,148 -90,222 -174,222z"/>
 </g>
</svg>
