<?xml version="1.0" encoding="UTF-8"?>
<!DOCTYPE svg PUBLIC "-//W3C//DTD SVG 1.1//EN" "http://www.w3.org/Graphics/SVG/1.1/DTD/svg11.dtd">
<!-- Creator: CorelDRAW X8 -->
<svg xmlns="http://www.w3.org/2000/svg" xml:space="preserve" width="3856px" height="1487px" version="1.1" style="shape-rendering:geometricPrecision; text-rendering:geometricPrecision; image-rendering:optimizeQuality; fill-rule:evenodd; clip-rule:evenodd"
viewBox="0 0 3856 1487"
 xmlns:xlink="http://www.w3.org/1999/xlink">
 <defs>
  <style type="text/css">
   <![CDATA[
    .fil0 {fill:#2B2A29;fill-rule:nonzero}
   ]]>
  </style>
 </defs>
 <g id="Layer_x0020_1">
  <metadata id="CorelCorpID_0Corel-Layer"/>
  <path class="fil0" d="M2086 1486c460,0 786,-34 1044,-100 222,-57 452,-157 589,-350 111,-154 137,-337 137,-523 -1,-204 -86,-415 -283,-502 -16,-7 -36,-11 -55,-11 -23,0 -46,6 -63,18 -12,9 -17,18 -17,27 0,15 13,29 32,37 160,67 223,267 223,427 0,70 -10,144 -35,210 -46,117 -154,214 -283,214 -162,0 -233,-122 -233,-271l0 -616c0,-25 -36,-46 -81,-46 -45,0 -82,21 -82,46l0 616c0,135 -51,271 -208,271 -88,0 -156,-73 -185,-152 -32,-91 -32,-194 -32,-290 0,-285 -57,-490 -376,-490 -132,0 -244,50 -314,131 -77,-89 -175,-132 -292,-132 -114,0 -228,45 -302,135 -98,-101 -253,-134 -391,-134 -197,0 -374,85 -465,266 -39,79 -60,171 -60,274 0,155 48,316 159,408 64,53 138,75 221,75 85,-1 165,-29 224,-78 73,-60 105,-156 105,-249 0,-82 -28,-154 -78,-208 -57,-60 -144,-97 -237,-97 -96,0 -177,39 -233,118 1,-72 18,-145 50,-209 61,-125 172,-209 314,-209 184,0 317,102 317,299l0 588c0,25 36,45 81,45 45,0 81,-20 81,-45l0 -612c0,-132 62,-275 214,-275 149,0 210,143 210,274l0 612c0,25 38,46 82,46 46,0 82,-21 82,-46l0 -612c0,-149 70,-274 232,-274 209,0 214,239 214,399 0,101 0,212 35,308 53,148 187,225 339,225 107,0 227,-31 299,-116 70,77 180,116 310,116 79,0 160,-15 231,-53 -114,173 -321,270 -514,324 -235,65 -559,100 -1006,100 -428,0 -1155,22 -1526,-184 -254,-141 -397,-358 -397,-647 0,-187 78,-382 239,-487 13,-9 19,-19 19,-29 0,-13 -11,-26 -29,-35 -17,-8 -36,-13 -54,-13 -21,0 -41,6 -60,18 -183,121 -278,331 -278,543 0,327 166,560 446,715 423,236 1160,210 1640,210zm-1352 -553c-122,0 -174,-116 -174,-223 0,-148 87,-222 174,-222 87,0 174,74 174,222 0,149 -90,223 -174,223z"/>
 </g>
</svg>
