<?xml version="1.0" encoding="UTF-8"?>
<!DOCTYPE svg PUBLIC "-//W3C//DTD SVG 1.1//EN" "http://www.w3.org/Graphics/SVG/1.1/DTD/svg11.dtd">
<!-- Creator: CorelDRAW X8 -->
<svg xmlns="http://www.w3.org/2000/svg" xml:space="preserve" width="3502px" height="1024px" version="1.1" style="shape-rendering:geometricPrecision; text-rendering:geometricPrecision; image-rendering:optimizeQuality; fill-rule:evenodd; clip-rule:evenodd"
viewBox="0 0 3502 1024"
 xmlns:xlink="http://www.w3.org/1999/xlink">
 <defs>
  <style type="text/css">
   <![CDATA[
    .fil0 {fill:#009846;fill-rule:nonzero}
   ]]>
  </style>
 </defs>
 <g id="Layer_x0020_1">
  <metadata id="CorelCorpID_0Corel-Layer"/>
  <path class="fil0" d="M206 710c0,148 85,223 174,223 85,0 174,-74 174,-223 1,-148 -86,-222 -174,-222 -87,0 -174,74 -174,222zm2504 198c-62,73 -166,113 -290,116 -156,3 -294,-74 -348,-225 -34,-96 -35,-207 -35,-308 0,-160 -5,-399 -213,-399 -162,0 -232,125 -232,274l0 612c0,25 -37,46 -82,46 -45,0 -81,-21 -81,-46l0 -612c0,-131 -62,-274 -211,-274 -152,0 -213,143 -213,275l0 612c0,25 -37,45 -81,45 -45,0 -82,-20 -82,-45l0 -588c0,-197 -135,-300 -320,-299 -144,0 -252,90 -311,209 -32,64 -49,137 -50,209 52,-75 130,-115 219,-118 98,-4 191,34 251,97 53,57 81,133 78,221 -2,89 -36,179 -105,236 -59,49 -139,77 -224,78 -82,0 -156,-22 -221,-75 -111,-92 -159,-253 -159,-408 0,-103 21,-195 60,-274 82,-163 249,-265 462,-266 139,-1 295,31 394,134 75,-91 185,-136 302,-135 110,1 214,42 291,132 70,-81 182,-131 315,-131 318,0 375,205 375,490 1,96 0,199 33,290 28,80 98,154 188,152 155,-3 204,-137 204,-271l0 -616c0,-25 37,-46 82,-46 45,0 81,21 81,46l0 616c0,149 71,271 233,271 131,0 237,-96 284,-214 26,-67 36,-141 35,-214 -2,-158 -67,-357 -223,-423 -30,-13 -46,-41 -15,-64 31,-23 83,-22 118,-7 194,86 280,293 283,494 1,91 -14,181 -51,260 -79,169 -248,259 -431,259 -130,0 -239,-39 -310,-116z"/>
 </g>
</svg>
