<?xml version="1.0" encoding="UTF-8"?>
<!DOCTYPE svg PUBLIC "-//W3C//DTD SVG 1.1//EN" "http://www.w3.org/Graphics/SVG/1.1/DTD/svg11.dtd">
<!-- Creator: CorelDRAW X8 -->
<svg xmlns="http://www.w3.org/2000/svg" xml:space="preserve" width="2442px" height="1024px" version="1.1" style="shape-rendering:geometricPrecision; text-rendering:geometricPrecision; image-rendering:optimizeQuality; fill-rule:evenodd; clip-rule:evenodd"
viewBox="0 0 2442 1024"
 xmlns:xlink="http://www.w3.org/1999/xlink">
 <defs>
  <style type="text/css">
   <![CDATA[
    .fil0 {fill:#898778;fill-rule:nonzero}
   ]]>
  </style>
 </defs>
 <g id="Layer_x0020_1">
  <metadata id="CorelCorpID_0Corel-Layer"/>
  <path class="fil0" d="M1823 909l456 0 0 -481c0,-109 -40,-193 -104,-251 -47,-43 -108,-70 -175,-81 92,57 133,155 134,266 0,65 -13,135 -39,203 -48,127 -139,253 -272,344zm-1823 -369c0,-102 21,-194 60,-273 82,-163 249,-265 462,-266 139,-1 295,31 394,134 75,-91 185,-136 302,-135 134,1 242,48 315,153 102,-109 257,-153 403,-153 150,0 284,45 377,129 80,71 129,173 129,299l0 526c0,26 -36,46 -81,46l-850 0c-45,0 -83,-20 -83,-46l0 -588c0,-131 -61,-274 -210,-274 -152,0 -214,143 -214,275l0 612c0,25 -36,45 -81,45 -44,0 -81,-20 -81,-45l0 -588c0,-198 -133,-300 -320,-299 -144,0 -252,90 -311,209 -32,64 -49,137 -50,209 52,-75 130,-115 219,-118 98,-4 191,33 251,97 53,57 81,133 78,221 -2,89 -36,179 -105,236 -59,49 -139,77 -224,78 -82,0 -156,-22 -221,-75 -111,-92 -159,-253 -159,-409zm206 170c-1,147 85,222 174,223 85,0 174,-74 174,-223 0,-148 -86,-222 -174,-222 -87,0 -174,74 -174,222zm1489 -533c-63,57 -103,141 -103,251l0 480c150,-63 280,-198 342,-354 25,-61 38,-125 39,-190 1,-100 -42,-240 -165,-236 -39,1 -79,19 -113,49z"/>
 </g>
</svg>
