<?xml version="1.0" encoding="UTF-8"?>
<!DOCTYPE svg PUBLIC "-//W3C//DTD SVG 1.1//EN" "http://www.w3.org/Graphics/SVG/1.1/DTD/svg11.dtd">
<!-- Creator: CorelDRAW X8 -->
<svg xmlns="http://www.w3.org/2000/svg" xml:space="preserve" width="3517px" height="1486px" version="1.1" style="shape-rendering:geometricPrecision; text-rendering:geometricPrecision; image-rendering:optimizeQuality; fill-rule:evenodd; clip-rule:evenodd"
viewBox="0 0 3517 1486"
 xmlns:xlink="http://www.w3.org/1999/xlink">
 <defs>
  <style type="text/css">
   <![CDATA[
    .fil0 {fill:#434242;fill-rule:nonzero}
   ]]>
  </style>
 </defs>
 <g id="Layer_x0020_1">
  <metadata id="CorelCorpID_0Corel-Layer"/>
  <path class="fil0" d="M380 933c-121,-1 -174,-116 -174,-223 0,-148 87,-222 174,-222 88,0 174,74 174,222 0,149 -89,223 -174,223zm2813 439c180,-107 268,-283 304,-475 15,-81 20,-164 20,-246 0,-89 -8,-182 -26,-268 -35,-158 -110,-301 -272,-372 -16,-7 -36,-11 -54,-11 -24,0 -47,6 -64,18 -12,8 -17,18 -17,27 0,15 13,29 33,37 160,67 222,273 222,433 0,70 -9,139 -34,204 -46,117 -154,214 -285,214 -162,0 -233,-122 -233,-271l0 -616c0,-25 -36,-46 -81,-46 -45,0 -82,21 -82,46l0 616c0,135 -55,271 -213,271 -88,0 -150,-73 -179,-152 -33,-92 -33,-194 -33,-291 0,-284 -57,-490 -375,-490 -133,0 -245,51 -315,132 -76,-90 -175,-132 -291,-132 -115,0 -228,45 -302,134 -99,-102 -255,-135 -394,-134 -213,1 -381,104 -462,267 -40,79 -60,171 -60,273 0,156 47,317 159,409 64,53 139,75 221,75 85,0 165,-29 224,-78 74,-61 105,-155 105,-249 0,-82 -28,-154 -78,-208 -57,-61 -144,-97 -237,-97 -96,0 -178,38 -233,118 1,-72 18,-145 50,-209 59,-119 167,-209 311,-209 190,0 320,101 320,299l0 588c0,25 37,45 81,45 45,0 82,-20 82,-45l0 -612c0,-132 61,-275 213,-275 149,0 211,143 211,274l0 612c0,25 36,45 81,45 45,0 81,-20 81,-45l0 -612c0,-149 71,-274 233,-274 208,0 213,239 213,398 0,102 1,213 35,309 53,148 187,225 339,225 107,0 227,-32 299,-116 71,77 180,116 310,116 117,0 233,-37 321,-113 -20,170 -94,330 -249,419 1,-5 2,-11 2,-17 0,-88 -120,-135 -196,-153 -53,-12 -114,-19 -189,-19 -81,0 -152,8 -208,23 -121,31 -181,90 -181,150 0,58 58,116 176,147 62,17 134,25 213,25 78,0 161,-7 241,-24 86,-18 171,-47 243,-90zm-484 30c-165,0 -242,-45 -242,-89 0,-45 86,-88 242,-88 155,0 236,46 236,88 0,42 -73,89 -236,89z"/>
 </g>
</svg>
