<?xml version="1.0" encoding="UTF-8"?>
<!DOCTYPE svg PUBLIC "-//W3C//DTD SVG 1.1//EN" "http://www.w3.org/Graphics/SVG/1.1/DTD/svg11.dtd">
<!-- Creator: CorelDRAW X8 -->
<svg xmlns="http://www.w3.org/2000/svg" xml:space="preserve" width="1506px" height="600px" version="1.1" style="shape-rendering:geometricPrecision; text-rendering:geometricPrecision; image-rendering:optimizeQuality; fill-rule:evenodd; clip-rule:evenodd"
viewBox="0 0 1506 600"
 xmlns:xlink="http://www.w3.org/1999/xlink">
 <defs>
  <style type="text/css">
   <![CDATA[
    .fil0 {fill:#CC6633;fill-rule:nonzero}
   ]]>
  </style>
 </defs>
 <g id="Layer_x0020_1">
  <metadata id="CorelCorpID_0Corel-Layer"/>
  <path class="fil0" d="M744 0c65,1 127,20 174,67 57,-47 147,-67 218,-67 115,0 225,33 300,125 50,62 71,137 70,216 -1,56 -14,114 -44,162 -43,68 -115,98 -194,97 -74,-1 -145,-26 -188,-89 -27,-39 -39,-87 -39,-134 0,-57 19,-116 54,-161 47,-61 118,-93 192,-104 -40,-34 -97,-54 -150,-53 -92,2 -157,63 -157,156l0 355c0,24 -45,30 -62,30 -16,0 -61,-6 -61,-30l0 -355c0,-68 -35,-156 -114,-155 -81,0 -115,88 -115,156l0 355c0,23 -45,29 -61,29 -17,0 -61,-6 -61,-29 0,-114 0,-341 0,-341 -2,-108 -73,-171 -180,-171 -77,1 -141,53 -175,119 -14,28 -23,60 -27,91 32,-28 72,-40 115,-42 59,-2 122,16 164,59 34,35 49,81 47,129 -1,52 -22,105 -63,138 -41,32 -94,46 -146,47 -53,0 -103,-12 -145,-46 -69,-55 -96,-152 -96,-237 0,-56 11,-110 36,-159 57,-110 171,-157 289,-158 80,0 173,15 236,68 49,-48 115,-69 183,-68zm524 541c37,0 63,-23 81,-56 25,-44 34,-105 34,-145 0,-62 -16,-127 -47,-173 -58,4 -100,33 -128,72 -28,39 -42,89 -43,136 -2,35 4,69 15,96 17,41 47,70 88,70zm-1120 -126c0,40 11,70 29,92 19,23 41,34 64,34 21,-1 41,-11 59,-30 22,-24 33,-60 33,-97 0,-36 -11,-71 -33,-95 -18,-20 -39,-30 -59,-30 -23,0 -46,12 -64,35 -17,21 -28,51 -29,91z"/>
 </g>
</svg>
