<?xml version="1.0" encoding="UTF-8"?>
<!DOCTYPE svg PUBLIC "-//W3C//DTD SVG 1.1//EN" "http://www.w3.org/Graphics/SVG/1.1/DTD/svg11.dtd">
<!-- Creator: CorelDRAW X8 -->
<svg xmlns="http://www.w3.org/2000/svg" xml:space="preserve" width="2794px" height="1412px" version="1.1" style="shape-rendering:geometricPrecision; text-rendering:geometricPrecision; image-rendering:optimizeQuality; fill-rule:evenodd; clip-rule:evenodd"
viewBox="0 0 2794 1412"
 xmlns:xlink="http://www.w3.org/1999/xlink">
 <defs>
  <style type="text/css">
   <![CDATA[
    .fil0 {fill:#434242;fill-rule:nonzero}
   ]]>
  </style>
 </defs>
 <g id="Layer_x0020_1">
  <metadata id="CorelCorpID_0Corel-Layer"/>
  <path class="fil0" d="M1508 132c-76,-89 -174,-132 -290,-132 -115,0 -228,45 -302,135 -98,-101 -256,-134 -394,-134 -197,0 -372,85 -462,266 -40,79 -60,171 -60,274 0,155 47,316 159,408 64,53 139,76 221,75 85,0 165,-29 224,-78 74,-61 105,-155 105,-249 0,-82 -28,-154 -78,-208 -57,-60 -144,-97 -237,-97 -96,0 -178,39 -233,118 1,-72 18,-145 50,-209 59,-119 167,-209 311,-209 187,0 320,104 320,299l0 588c0,25 37,45 81,45 45,0 82,-20 82,-45l0 -612c0,-132 61,-275 213,-275 149,0 211,145 211,275l0 611c0,25 36,46 81,46 45,0 81,-21 81,-46l0 -611c0,-173 122,-277 290,-277 95,0 195,35 269,100 -128,16 -246,74 -325,178 -59,77 -90,178 -90,276 0,84 22,165 65,230 67,102 177,149 297,149 118,0 231,-50 299,-163 52,-87 73,-189 73,-290 0,-78 -13,-155 -41,-226 147,105 204,289 204,463 0,246 -130,514 -409,514 -82,0 -170,-23 -235,-75 -17,-13 -42,-19 -66,-19 -17,0 -34,3 -47,8 -20,8 -35,22 -35,38 0,8 5,17 15,25 100,80 231,114 357,114 374,0 583,-254 583,-611 0,-289 -152,-542 -453,-603 -104,-125 -252,-198 -461,-198 -123,0 -285,39 -373,132zm588 800c-62,0 -111,-40 -144,-90 -36,-54 -54,-124 -54,-198 0,-86 25,-172 77,-241 60,-80 149,-126 249,-126 59,86 82,188 82,291 0,91 -16,184 -64,263 -41,67 -90,102 -146,101zm-1716 1c-122,0 -174,-116 -174,-223 0,-148 87,-222 174,-222 88,0 174,74 174,222 0,149 -89,223 -174,223z"/>
 </g>
</svg>
