<?xml version="1.0" encoding="UTF-8"?>
<!DOCTYPE svg PUBLIC "-//W3C//DTD SVG 1.1//EN" "http://www.w3.org/Graphics/SVG/1.1/DTD/svg11.dtd">
<!-- Creator: CorelDRAW X8 -->
<svg xmlns="http://www.w3.org/2000/svg" xml:space="preserve" width="3503px" height="1024px" version="1.1" style="shape-rendering:geometricPrecision; text-rendering:geometricPrecision; image-rendering:optimizeQuality; fill-rule:evenodd; clip-rule:evenodd"
viewBox="0 0 3503 1024"
 xmlns:xlink="http://www.w3.org/1999/xlink">
 <defs>
  <style type="text/css">
   <![CDATA[
    .fil0 {fill:#2B2A29;fill-rule:nonzero}
   ]]>
  </style>
 </defs>
 <g id="Layer_x0020_1">
  <metadata id="CorelCorpID_0Corel-Layer"/>
  <path class="fil0" d="M3021 1024c183,0 352,-90 431,-259 36,-77 51,-163 51,-252 0,-203 -88,-415 -283,-502 -16,-7 -36,-11 -55,-11 -23,0 -46,6 -63,18 -12,9 -17,18 -17,27 0,15 13,29 32,37 160,68 223,273 223,433 0,70 -10,140 -35,204 -47,118 -153,214 -284,214 -162,0 -233,-122 -233,-271l0 -616c0,-25 -36,-46 -81,-46 -45,0 -82,21 -82,46l0 616c0,135 -55,271 -212,271 -88,0 -152,-73 -180,-152 -33,-91 -32,-194 -33,-290 0,-285 -57,-490 -375,-490 -134,0 -246,50 -316,131 -75,-89 -175,-132 -291,-132 -115,0 -228,45 -302,135 -98,-101 -253,-134 -391,-134 -197,0 -374,85 -465,266 -39,79 -60,171 -60,274 0,155 48,316 159,408 65,53 139,75 221,75 85,-1 165,-29 224,-78 74,-61 105,-155 105,-249 0,-82 -28,-154 -78,-208 -57,-60 -144,-97 -237,-97 -96,0 -177,38 -233,118 1,-72 18,-145 50,-209 62,-125 171,-209 314,-209 183,0 317,103 317,299l0 588c0,25 37,45 82,45 44,0 81,-20 81,-45l0 -612c0,-132 61,-275 213,-275 149,0 211,143 211,274l0 612c0,25 36,46 81,46 45,0 82,-21 82,-46l0 -612c0,-149 70,-274 233,-274 208,0 213,239 213,399 0,101 0,212 35,308 52,148 188,225 340,225 107,0 226,-31 298,-116 71,77 180,116 310,116zm-2641 -91c-89,0 -174,-75 -174,-223 0,-148 87,-222 174,-222 87,0 174,73 174,219 0,106 -53,226 -174,226z"/>
 </g>
</svg>
