<?xml version="1.0" encoding="UTF-8"?>
<!DOCTYPE svg PUBLIC "-//W3C//DTD SVG 1.1//EN" "http://www.w3.org/Graphics/SVG/1.1/DTD/svg11.dtd">
<!-- Creator: CorelDRAW X8 -->
<svg xmlns="http://www.w3.org/2000/svg" xml:space="preserve" width="3855px" height="1486px" version="1.1" style="shape-rendering:geometricPrecision; text-rendering:geometricPrecision; image-rendering:optimizeQuality; fill-rule:evenodd; clip-rule:evenodd"
viewBox="0 0 3855 1486"
 xmlns:xlink="http://www.w3.org/1999/xlink">
 <defs>
  <style type="text/css">
   <![CDATA[
    .fil0 {fill:#434242;fill-rule:nonzero}
   ]]>
  </style>
 </defs>
 <g id="Layer_x0020_1">
  <metadata id="CorelCorpID_0Corel-Layer"/>
  <path class="fil0" d="M2085 1486c290,0 706,-3 1061,-101 237,-65 447,-173 572,-349 111,-155 138,-337 138,-523 -1,-204 -86,-415 -284,-502 -16,-7 -36,-11 -55,-11 -23,0 -46,6 -63,18 -12,9 -17,18 -17,27 0,15 13,29 32,37 160,67 223,267 223,427 0,70 -9,144 -34,210 -46,117 -155,214 -284,214 -162,0 -233,-122 -233,-271l0 -616c0,-25 -36,-46 -81,-46 -45,0 -82,21 -82,46l0 616c0,135 -50,271 -208,271 -88,0 -156,-73 -185,-152 -33,-91 -32,-194 -32,-290 0,-285 -57,-490 -375,-490 -133,0 -245,50 -315,131 -76,-89 -175,-132 -291,-132 -114,0 -228,45 -302,135 -98,-101 -253,-134 -391,-134 -197,0 -375,85 -465,266 -40,79 -60,171 -60,274 0,155 48,316 159,408 64,53 138,75 221,75 85,0 165,-29 224,-78 73,-60 105,-157 105,-249 0,-82 -28,-154 -78,-208 -57,-60 -144,-97 -237,-97 -96,0 -178,39 -233,118 1,-72 18,-145 50,-209 61,-125 171,-209 314,-209 184,0 317,102 317,299l0 588c0,25 36,45 81,45 45,0 81,-20 81,-45l0 -612c0,-132 62,-275 214,-275 149,0 210,143 210,274l0 612c0,25 37,46 82,46 45,0 81,-21 81,-46l0 -612c0,-149 71,-274 233,-274 208,0 213,239 213,399 0,101 0,212 35,308 53,148 187,225 339,225 107,0 227,-32 299,-116 70,77 180,116 310,116 79,0 160,-15 232,-53 -107,161 -290,261 -501,323 -338,99 -747,101 -1020,101 -427,0 -1155,22 -1525,-184 -255,-141 -397,-358 -397,-647 0,-187 78,-382 239,-487 13,-9 19,-19 19,-29 0,-13 -11,-26 -29,-35 -17,-9 -37,-13 -55,-13 -20,0 -41,5 -60,18 -183,120 -278,331 -278,543 0,327 167,559 447,715 423,235 1159,210 1639,210zm-1351 -553c-122,0 -174,-116 -174,-223 0,-148 87,-222 174,-222 87,0 174,74 174,222 0,149 -90,223 -174,223z"/>
 </g>
</svg>
