<?xml version="1.0" encoding="UTF-8"?>
<!DOCTYPE svg PUBLIC "-//W3C//DTD SVG 1.1//EN" "http://www.w3.org/Graphics/SVG/1.1/DTD/svg11.dtd">
<!-- Creator: CorelDRAW X8 -->
<svg xmlns="http://www.w3.org/2000/svg" xml:space="preserve" width="1701px" height="825px" version="1.1" style="shape-rendering:geometricPrecision; text-rendering:geometricPrecision; image-rendering:optimizeQuality; fill-rule:evenodd; clip-rule:evenodd"
viewBox="0 0 1701 825"
 xmlns:xlink="http://www.w3.org/1999/xlink">
 <defs>
  <style type="text/css">
   <![CDATA[
    .fil0 {fill:#669933;fill-rule:nonzero}
   ]]>
  </style>
 </defs>
 <g id="Layer_x0020_1">
  <metadata id="CorelCorpID_0Corel-Layer"/>
  <path class="fil0" d="M743 0c66,1 128,20 175,67 56,-47 146,-67 218,-67 111,0 217,30 291,115 189,39 285,198 273,384 -13,200 -148,323 -347,326 -82,1 -174,-18 -240,-68 -20,-15 -5,-32 13,-40 25,-9 69,-9 91,8 37,28 87,42 133,41 143,-4 219,-138 228,-267 6,-94 -18,-198 -86,-266 10,34 14,71 14,108 -1,56 -14,114 -44,162 -43,68 -115,98 -194,97 -74,-1 -145,-26 -188,-89 -27,-39 -40,-87 -40,-134 0,-57 20,-116 55,-161 47,-61 117,-93 192,-104 -41,-34 -97,-54 -150,-53 -93,2 -157,63 -157,156l0 355c0,24 -45,30 -62,30 -17,0 -61,-6 -61,-30l0 -355c0,-68 -35,-156 -115,-155 -80,0 -114,88 -114,156l0 355c0,23 -45,29 -62,29 -16,0 -61,-6 -61,-29 0,-114 0,-341 0,-341 -1,-108 -73,-171 -179,-171 -77,1 -141,53 -175,119 -14,28 -24,60 -27,91 32,-28 72,-40 115,-42 59,-2 122,16 164,59 34,35 49,81 47,129 -1,52 -22,105 -63,138 -41,32 -95,46 -146,47 -53,0 -103,-12 -145,-46 -70,-55 -96,-152 -96,-237 0,-55 11,-110 36,-159 57,-110 171,-157 289,-158 80,0 173,15 236,68 49,-48 115,-69 182,-68zm525 541c37,0 63,-24 81,-56 25,-44 34,-105 34,-145 -1,-62 -16,-127 -47,-173 -58,4 -100,32 -128,71 -28,39 -42,87 -44,134 -1,40 5,78 20,108 17,36 46,61 84,61zm-1120 -126c0,40 11,70 29,92 18,23 41,34 64,34 21,-1 41,-11 58,-30 23,-24 34,-61 34,-97 0,-36 -11,-71 -33,-95 -18,-20 -39,-30 -60,-30 -22,0 -45,12 -63,35 -17,21 -29,51 -29,91z"/>
 </g>
</svg>
