<?xml version="1.0" encoding="UTF-8"?>
<!DOCTYPE svg PUBLIC "-//W3C//DTD SVG 1.1//EN" "http://www.w3.org/Graphics/SVG/1.1/DTD/svg11.dtd">
<!-- Creator: CorelDRAW X8 -->
<svg xmlns="http://www.w3.org/2000/svg" xml:space="preserve" width="3643px" height="1486px" version="1.1" style="shape-rendering:geometricPrecision; text-rendering:geometricPrecision; image-rendering:optimizeQuality; fill-rule:evenodd; clip-rule:evenodd"
viewBox="0 0 3643 1486"
 xmlns:xlink="http://www.w3.org/1999/xlink">
 <defs>
  <style type="text/css">
   <![CDATA[
    .fil0 {fill:#009846;fill-rule:nonzero}
   ]]>
  </style>
 </defs>
 <g id="Layer_x0020_1">
  <metadata id="CorelCorpID_0Corel-Layer"/>
  <path class="fil0" d="M206 711c0,-148 87,-223 174,-223 88,0 175,74 174,223 0,149 -89,222 -174,222 -89,0 -175,-75 -174,-222zm2581 -78l0 -587c0,-25 -36,-46 -81,-46 -45,0 -82,21 -82,46l0 611c0,134 -49,273 -204,276 -89,2 -160,-71 -188,-151 -33,-92 -33,-195 -33,-291 0,-284 -57,-490 -375,-490 -133,0 -245,50 -315,131 -77,-90 -181,-131 -291,-132 -117,-1 -227,45 -302,135 -99,-103 -255,-135 -394,-134 -213,1 -380,103 -462,266 -39,79 -60,171 -60,274 0,155 48,316 159,408 65,53 139,76 221,75 85,-1 165,-29 224,-77 69,-58 103,-147 105,-236 3,-89 -25,-165 -78,-222 -60,-63 -153,-101 -251,-97 -89,3 -167,44 -219,118 1,-72 18,-145 50,-209 59,-119 167,-208 311,-209 187,-1 320,101 320,299l0 588c0,25 37,45 81,45 45,0 82,-20 82,-45l0 -612c0,-132 61,-275 213,-275 149,0 211,143 211,274l0 612c0,25 36,46 81,46 45,0 81,-21 81,-46l0 -612c0,-149 71,-274 233,-274 208,0 213,240 213,399 0,101 1,212 35,308 54,153 194,228 348,225 115,-3 231,-37 302,-132 97,100 248,130 380,132 128,1 252,-33 351,-118 -52,156 -157,301 -291,393 -24,17 -47,29 -74,42 3,-9 5,-19 5,-29 0,-87 -119,-134 -196,-152 -53,-12 -114,-19 -189,-19 -81,0 -152,8 -208,22 -121,31 -182,90 -182,149 0,59 59,117 177,149 67,18 141,25 215,25 58,0 119,-3 180,-10 120,-14 240,-45 339,-104 166,-99 276,-223 340,-371 52,-118 74,-252 74,-402 0,-171 -35,-410 -173,-524 -65,-54 -137,-76 -221,-75 -83,2 -166,30 -224,78 -69,57 -103,147 -105,236 -3,88 25,164 78,221 60,64 153,101 251,98 89,-4 167,-44 219,-119 -1,72 -18,145 -50,209 -62,127 -175,211 -316,210 -180,-2 -315,-109 -315,-300zm637 -319c-1,148 -88,222 -175,222 -87,0 -174,-74 -174,-222 0,-149 90,-223 174,-223 90,0 175,75 175,223zm-716 910c64,0 112,7 150,19 58,16 86,43 86,69 1,27 -28,54 -87,71 -38,12 -86,19 -149,19 -76,0 -137,-11 -177,-26 -43,-17 -65,-40 -64,-64 0,-23 22,-46 65,-62 40,-16 100,-26 176,-26z"/>
 </g>
</svg>
