<?xml version="1.0" encoding="UTF-8"?>
<!DOCTYPE svg PUBLIC "-//W3C//DTD SVG 1.1//EN" "http://www.w3.org/Graphics/SVG/1.1/DTD/svg11.dtd">
<!-- Creator: CorelDRAW X8 -->
<svg xmlns="http://www.w3.org/2000/svg" xml:space="preserve" width="1545px" height="1024px" version="1.1" style="shape-rendering:geometricPrecision; text-rendering:geometricPrecision; image-rendering:optimizeQuality; fill-rule:evenodd; clip-rule:evenodd"
viewBox="0 0 1545 1024"
 xmlns:xlink="http://www.w3.org/1999/xlink">
 <defs>
  <style type="text/css">
   <![CDATA[
    .fil0 {fill:#2B2A29;fill-rule:nonzero}
   ]]>
  </style>
 </defs>
 <g id="Layer_x0020_1">
  <metadata id="CorelCorpID_0Corel-Layer"/>
  <path class="fil0" d="M1257 1024c28,0 57,-10 82,-25 147,-89 206,-260 206,-425 0,-100 -23,-209 -69,-298 -93,-178 -280,-276 -477,-276 -85,0 -161,14 -227,38 -74,-27 -148,-38 -227,-38 -195,0 -384,101 -476,276 -45,87 -69,189 -69,294 0,165 60,340 207,429 25,15 53,25 81,25 19,0 38,-5 55,-15 15,-9 22,-20 22,-31 0,-12 -9,-25 -26,-33 -130,-68 -176,-238 -176,-375 0,-96 21,-190 62,-268 61,-117 185,-211 320,-211 36,0 70,5 101,13 -158,111 -241,303 -241,493 0,91 20,181 58,251 65,118 177,176 308,176 132,0 245,-57 310,-176 43,-77 58,-164 58,-251 0,-191 -81,-382 -241,-494 31,-8 65,-12 101,-12 137,0 259,92 321,211 44,83 62,178 62,272 0,137 -47,303 -176,371 -17,8 -26,21 -26,33 0,11 7,22 22,31 17,10 36,15 55,15zm-486 -91c-70,0 -121,-53 -152,-111 -34,-62 -51,-142 -51,-225 0,-162 68,-340 204,-436 137,96 205,272 205,436 0,83 -17,162 -51,224 -32,58 -84,112 -155,112z"/>
 </g>
</svg>
