<?xml version="1.0" encoding="UTF-8"?>
<!DOCTYPE svg PUBLIC "-//W3C//DTD SVG 1.1//EN" "http://www.w3.org/Graphics/SVG/1.1/DTD/svg11.dtd">
<!-- Creator: CorelDRAW X8 -->
<svg xmlns="http://www.w3.org/2000/svg" xml:space="preserve" width="952px" height="600px" version="1.1" style="shape-rendering:geometricPrecision; text-rendering:geometricPrecision; image-rendering:optimizeQuality; fill-rule:evenodd; clip-rule:evenodd"
viewBox="0 0 952 600"
 xmlns:xlink="http://www.w3.org/1999/xlink">
 <defs>
  <style type="text/css">
   <![CDATA[
    .fil0 {fill:#009846;fill-rule:nonzero}
   ]]>
  </style>
 </defs>
 <g id="Layer_x0020_1">
  <metadata id="CorelCorpID_0Corel-Layer"/>
  <path class="fil0" d="M227 549c20,11 23,28 3,40 -31,18 -76,12 -105,-5 -88,-52 -125,-153 -125,-250 0,-60 13,-119 42,-171 58,-109 177,-163 298,-163 45,0 92,6 135,20 44,-14 91,-20 137,-20 65,0 128,15 181,45 49,27 90,67 117,118 28,51 42,113 42,171 1,99 -36,197 -125,249 -29,18 -74,24 -105,6 -21,-12 -17,-29 3,-40 77,-38 105,-135 105,-215 -1,-53 -13,-109 -38,-156 -19,-35 -48,-66 -82,-88 -33,-21 -66,-31 -101,-31 -14,0 -28,2 -43,5 93,64 143,173 143,285 0,50 -11,102 -35,146 -43,74 -116,105 -199,105 -82,0 -155,-31 -197,-105 -24,-43 -35,-96 -35,-146 0,-111 50,-221 143,-285 -17,-4 -32,-5 -48,-4 -75,2 -141,50 -178,118 -25,47 -37,102 -38,156 0,79 29,177 105,215zm249 -443c-73,56 -110,153 -110,243 0,44 8,92 30,130 23,41 51,62 79,62 29,0 57,-21 81,-62 22,-39 30,-86 30,-130 0,-91 -37,-187 -110,-243z"/>
 </g>
</svg>
