<?xml version="1.0" encoding="UTF-8"?>
<!DOCTYPE svg PUBLIC "-//W3C//DTD SVG 1.1//EN" "http://www.w3.org/Graphics/SVG/1.1/DTD/svg11.dtd">
<!-- Creator: CorelDRAW X8 -->
<svg xmlns="http://www.w3.org/2000/svg" xml:space="preserve" width="2694px" height="1486px" version="1.1" style="shape-rendering:geometricPrecision; text-rendering:geometricPrecision; image-rendering:optimizeQuality; fill-rule:evenodd; clip-rule:evenodd"
viewBox="0 0 2694 1486"
 xmlns:xlink="http://www.w3.org/1999/xlink">
 <defs>
  <style type="text/css">
   <![CDATA[
    .fil0 {fill:#009846}
   ]]>
  </style>
 </defs>
 <g id="Layer_x0020_1">
  <metadata id="CorelCorpID_0Corel-Layer"/>
  <path class="fil0" d="M1882 1408c62,0 138,-4 195,-30 39,-17 66,-47 65,-90 -2,-51 -58,-71 -101,-71 -56,-1 -87,40 -87,96 0,31 -47,41 -71,41 -24,0 -71,-10 -71,-41 0,-56 -31,-97 -87,-96 -43,0 -99,20 -101,71 -2,43 26,73 65,90 56,25 131,30 193,30zm-586 -430l0 -587c0,-183 -116,-299 -297,-300 -33,0 -67,4 -101,12 159,107 241,306 242,494 0,91 -20,180 -59,250 -65,119 -178,177 -310,177 -131,0 -243,-58 -308,-176 -38,-70 -58,-160 -58,-251 0,-191 83,-382 241,-494 -31,-8 -65,-12 -101,-12 -135,-1 -259,94 -320,210 -41,79 -62,172 -62,269 0,137 46,307 176,374 32,17 36,46 4,65 -43,26 -95,15 -136,-10 -147,-89 -207,-265 -207,-429 0,-106 24,-207 69,-294 92,-176 280,-277 476,-276 74,0 157,12 227,38 76,-26 147,-38 227,-38 133,0 274,27 368,124 71,-89 187,-122 297,-124 155,-3 294,74 348,225 34,96 35,207 35,308 0,142 5,400 201,400 192,0 269,-240 271,-400 2,-172 -73,-384 -248,-449 -29,-11 -52,-38 -22,-63 34,-29 84,-24 123,-8 127,50 213,149 262,266 48,114 61,267 60,388 -1,77 -7,155 -21,230 -36,192 -123,368 -303,475 -84,50 -196,83 -307,100 -62,9 -123,14 -180,14 -79,1 -170,-8 -244,-35 -84,-31 -144,-97 -143,-163 0,-38 21,-78 68,-108 40,-26 101,-39 161,-39 53,0 114,12 158,40 44,-28 105,-40 158,-40 60,0 120,13 161,39 48,31 69,69 69,108 0,16 -4,32 -10,47 150,-84 227,-227 253,-400 -67,56 -156,89 -266,89 -316,0 -364,-231 -364,-491 0,-96 1,-199 -32,-291 -28,-79 -98,-153 -188,-151 -155,3 -205,137 -205,271l0 616c0,25 -36,46 -81,46 -45,0 -82,-21 -82,-46zm-524 -817c-136,95 -204,273 -204,436 0,82 17,163 51,225 31,57 82,111 152,111 71,0 123,-54 155,-112 34,-63 51,-141 51,-224 0,-164 -68,-340 -205,-436z"/>
 </g>
</svg>
