<?xml version="1.0" encoding="UTF-8"?>
<!DOCTYPE svg PUBLIC "-//W3C//DTD SVG 1.1//EN" "http://www.w3.org/Graphics/SVG/1.1/DTD/svg11.dtd">
<!-- Creator: CorelDRAW X8 -->
<svg xmlns="http://www.w3.org/2000/svg" xml:space="preserve" width="2694px" height="1486px" version="1.1" style="shape-rendering:geometricPrecision; text-rendering:geometricPrecision; image-rendering:optimizeQuality; fill-rule:evenodd; clip-rule:evenodd"
viewBox="0 0 2694 1486"
 xmlns:xlink="http://www.w3.org/1999/xlink">
 <defs>
  <style type="text/css">
   <![CDATA[
    .fil0 {fill:#898778;fill-rule:nonzero}
   ]]>
  </style>
 </defs>
 <g id="Layer_x0020_1">
  <metadata id="CorelCorpID_0Corel-Layer"/>
  <path class="fil0" d="M1886 1225c-76,0 -137,10 -176,25 -43,17 -65,40 -66,63 0,23 21,46 65,63 40,16 101,26 177,26 63,0 111,-7 149,-18 58,-17 87,-44 87,-71 0,-27 -29,-53 -86,-70 -38,-11 -86,-18 -150,-18zm-590 -247l0 -587c0,-182 -118,-299 -297,-300 -33,0 -67,4 -101,12 159,107 241,306 242,494 0,92 -20,180 -59,250 -65,119 -178,177 -310,177 -131,0 -243,-58 -308,-176 -38,-70 -58,-160 -58,-251 0,-191 83,-382 241,-494 -31,-8 -65,-12 -101,-12 -135,-1 -259,94 -320,211 -41,78 -62,171 -62,268 0,137 46,307 176,374 32,17 36,46 4,65 -43,26 -95,15 -136,-10 -147,-89 -207,-265 -207,-429 0,-106 24,-207 69,-294 92,-176 280,-277 476,-276 74,0 157,12 227,38 76,-26 147,-38 227,-38 133,0 274,27 368,124 71,-89 187,-121 297,-124 156,-3 294,74 348,225 34,96 35,207 35,308 0,142 5,400 201,400 192,0 269,-240 271,-400 2,-172 -73,-384 -248,-449 -29,-11 -52,-38 -22,-63 34,-29 84,-24 123,-8 143,57 234,175 280,313 32,101 43,236 42,341 -1,77 -7,155 -21,230 -36,192 -123,368 -303,475 -84,51 -196,83 -307,100 -62,10 -123,14 -180,14 -68,1 -144,-7 -210,-24 -118,-32 -178,-91 -177,-149 0,-59 61,-118 182,-149 56,-14 127,-23 208,-23 75,0 136,7 189,20 76,17 195,64 196,152 0,6 -1,12 -2,18 147,-85 220,-235 245,-396 -67,56 -156,89 -266,89 -316,0 -363,-231 -364,-491 0,-96 1,-199 -32,-290 -28,-80 -98,-154 -188,-152 -155,3 -205,137 -205,271l0 616c0,25 -36,46 -81,46 -45,0 -82,-21 -82,-46zm-524 -817c-136,95 -204,274 -204,436 0,82 17,163 51,225 31,58 82,111 152,111 71,0 123,-54 155,-112 34,-63 51,-141 51,-224 0,-164 -68,-340 -205,-436z"/>
 </g>
</svg>
