<?xml version="1.0" encoding="UTF-8"?>
<!DOCTYPE svg PUBLIC "-//W3C//DTD SVG 1.1//EN" "http://www.w3.org/Graphics/SVG/1.1/DTD/svg11.dtd">
<!-- Creator: CorelDRAW X8 -->
<svg xmlns="http://www.w3.org/2000/svg" xml:space="preserve" width="1593px" height="1486px" version="1.1" style="shape-rendering:geometricPrecision; text-rendering:geometricPrecision; image-rendering:optimizeQuality; fill-rule:evenodd; clip-rule:evenodd"
viewBox="0 0 1593 1486"
 xmlns:xlink="http://www.w3.org/1999/xlink">
 <defs>
  <style type="text/css">
   <![CDATA[
    .fil0 {fill:#2B2A29;fill-rule:nonzero}
   ]]>
  </style>
 </defs>
 <g id="Layer_x0020_1">
  <metadata id="CorelCorpID_0Corel-Layer"/>
  <path class="fil0" d="M1002 1457c172,-45 319,-142 433,-299 106,-146 158,-317 158,-496 0,-136 -32,-282 -105,-398 -104,-168 -291,-264 -489,-264 -85,0 -161,14 -227,38 -74,-27 -150,-38 -229,-38 -195,0 -382,101 -474,276 -45,87 -69,188 -69,294 0,164 60,340 207,429 24,15 52,24 80,24 19,0 38,-4 56,-15 15,-9 22,-20 22,-31 0,-12 -9,-24 -26,-33 -130,-68 -176,-237 -176,-374 0,-97 21,-190 62,-268 61,-116 184,-211 318,-211 35,0 69,3 103,12 -158,112 -241,303 -241,494 0,91 20,180 58,251 65,118 177,176 308,176 132,-1 245,-58 310,-177 42,-77 58,-163 58,-250 0,-192 -81,-382 -241,-494 31,-8 65,-12 101,-12 139,0 260,92 334,205 70,107 98,236 98,366 0,148 -31,302 -104,432 -43,77 -99,146 -171,201l0 -7c0,-47 -30,-83 -69,-108 -40,-26 -101,-39 -160,-39 -54,0 -115,12 -159,40 -43,-28 -105,-40 -158,-40 -59,0 -120,13 -160,39 -39,24 -69,63 -69,110 0,65 61,130 143,161 76,27 167,35 231,35 83,0 167,-8 247,-29zm-231 -524c-70,0 -121,-54 -152,-112 -34,-61 -51,-142 -51,-224 0,-163 68,-341 204,-436 137,96 205,272 205,436 0,82 -17,161 -51,223 -32,58 -85,113 -155,113zm-4 475c-61,0 -137,-5 -193,-30 -37,-17 -65,-46 -65,-88 0,-52 58,-73 101,-73 59,0 88,41 88,97 0,30 46,40 70,40 24,0 71,-10 71,-40 0,-56 30,-97 86,-97 46,0 102,21 102,75 0,41 -27,70 -65,86 -57,26 -133,30 -195,30z"/>
 </g>
</svg>
