<?xml version="1.0" encoding="UTF-8"?>
<!DOCTYPE svg PUBLIC "-//W3C//DTD SVG 1.1//EN" "http://www.w3.org/Graphics/SVG/1.1/DTD/svg11.dtd">
<!-- Creator: CorelDRAW X8 -->
<svg xmlns="http://www.w3.org/2000/svg" xml:space="preserve" width="1734px" height="868px" version="1.1" style="shape-rendering:geometricPrecision; text-rendering:geometricPrecision; image-rendering:optimizeQuality; fill-rule:evenodd; clip-rule:evenodd"
viewBox="0 0 1734 868"
 xmlns:xlink="http://www.w3.org/1999/xlink">
 <defs>
  <style type="text/css">
   <![CDATA[
    .fil0 {fill:#CC6633;fill-rule:nonzero}
   ]]>
  </style>
 </defs>
 <g id="Layer_x0020_1">
  <metadata id="CorelCorpID_0Corel-Layer"/>
  <path class="fil0" d="M476 106c-73,56 -110,153 -110,243 0,44 8,92 30,130 15,27 46,62 79,62 34,0 65,-35 81,-62 22,-39 30,-86 30,-130 0,-90 -37,-187 -110,-243zm732 -84c58,-17 120,-22 180,-22 73,0 157,11 221,48 55,30 96,83 96,147 -1,24 -7,46 -18,66 -11,19 -27,36 -48,49 30,16 54,38 70,64 16,28 25,60 25,93 0,53 -16,101 -53,140 -66,68 -163,83 -254,83l-1237 0c-32,0 -67,7 -66,47 1,40 34,45 66,45l1455 0c26,0 62,12 62,43 0,31 -36,43 -62,43l-1455 0c-81,0 -192,-17 -190,-121 2,-101 111,-115 190,-115l1240 0c62,0 116,-23 149,-64 23,-27 36,-65 38,-103 2,-32 -5,-64 -23,-89 -15,-22 -38,-36 -69,-35 -20,0 -54,-9 -53,-30 0,-21 34,-29 54,-29 28,1 47,-17 58,-39 7,-16 10,-34 8,-52 -6,-46 -35,-80 -75,-102 -40,-21 -89,-29 -130,-30 -33,-1 -65,2 -91,8 62,44 105,109 125,183 9,32 14,66 14,99 0,50 -11,102 -36,146 -42,74 -115,105 -198,105 -83,0 -155,-31 -197,-105 -25,-43 -35,-96 -35,-146 0,-33 5,-67 14,-99 20,-75 64,-141 129,-186 -15,-3 -32,-5 -47,-5 -94,0 -165,66 -165,172l0 339c0,24 -44,30 -61,30 -17,0 -61,-6 -61,-30l0 -339c0,-108 -72,-171 -166,-172 -15,0 -30,2 -46,5 93,62 143,176 143,285 0,50 -11,102 -35,146 -43,75 -116,105 -199,105 -82,0 -155,-31 -197,-105 -24,-43 -35,-96 -35,-146 0,-111 50,-220 143,-285 -17,-3 -32,-5 -47,-5 -75,1 -145,56 -179,120 -25,47 -37,101 -38,155 0,79 29,177 105,216 11,5 17,13 17,20 0,7 -5,14 -14,20 -13,7 -28,10 -44,10 -22,0 -44,-6 -61,-16 -88,-52 -125,-152 -125,-250 0,-59 13,-119 42,-171 58,-109 177,-163 298,-163 45,0 93,6 136,20 45,-14 89,-20 136,-20 78,0 168,13 227,69 59,-56 149,-69 226,-69 48,0 98,6 143,22zm-7 84c-48,38 -80,93 -97,152 -8,30 -13,60 -13,91 0,44 9,92 31,130 23,41 51,62 79,62 29,0 57,-21 81,-62 21,-39 30,-86 30,-130 0,-31 -4,-61 -12,-91 -17,-59 -50,-114 -99,-152z"/>
 </g>
</svg>
