<?xml version="1.0" encoding="UTF-8"?>
<!DOCTYPE svg PUBLIC "-//W3C//DTD SVG 1.1//EN" "http://www.w3.org/Graphics/SVG/1.1/DTD/svg11.dtd">
<!-- Creator: CorelDRAW X8 -->
<svg xmlns="http://www.w3.org/2000/svg" xml:space="preserve" width="1560px" height="1485px" version="1.1" style="shape-rendering:geometricPrecision; text-rendering:geometricPrecision; image-rendering:optimizeQuality; fill-rule:evenodd; clip-rule:evenodd"
viewBox="0 0 1560 1485"
 xmlns:xlink="http://www.w3.org/1999/xlink">
 <defs>
  <style type="text/css">
   <![CDATA[
    .fil0 {fill:#2B2A29;fill-rule:nonzero}
   ]]>
  </style>
 </defs>
 <g id="Layer_x0020_1">
  <metadata id="CorelCorpID_0Corel-Layer"/>
  <path class="fil0" d="M1430 1485c45,0 81,-31 81,-70 0,-38 -36,-69 -81,-69l-1134 0c-64,0 -131,-7 -131,-86 0,-56 44,-81 131,-81l660 0c173,0 324,-56 431,-157 127,-118 173,-263 173,-431 0,-158 -54,-313 -162,-425 -104,-109 -248,-166 -399,-166 -85,0 -161,14 -227,38 -66,-24 -142,-38 -227,-38 -197,0 -382,100 -475,276 -45,87 -69,188 -69,293 0,165 60,340 207,429 24,15 53,24 81,24 19,0 38,-4 55,-14 15,-9 22,-20 22,-31 0,-13 -9,-25 -26,-34 -130,-67 -176,-237 -176,-374 0,-96 21,-190 62,-268 61,-116 185,-210 319,-210 36,0 70,4 102,12 -159,112 -241,303 -241,493 0,91 20,181 58,251 65,118 176,176 308,176 132,0 244,-58 309,-177 39,-70 59,-158 59,-250 -1,-191 -82,-381 -242,-493 31,-8 65,-12 101,-12 117,0 221,67 289,158 73,98 110,223 110,345 0,149 -43,276 -151,382 -80,79 -180,112 -291,112l-660 0c-136,0 -296,32 -296,199 0,164 161,198 296,198l1134 0zm-658 -553c-70,0 -121,-54 -153,-111 -34,-62 -51,-142 -51,-225 0,-162 69,-340 204,-435 137,96 205,272 205,435 0,83 -17,162 -51,224 -32,58 -84,112 -154,112z"/>
 </g>
</svg>
