<?xml version="1.0" encoding="UTF-8"?>
<!DOCTYPE svg PUBLIC "-//W3C//DTD SVG 1.1//EN" "http://www.w3.org/Graphics/SVG/1.1/DTD/svg11.dtd">
<!-- Creator: CorelDRAW X8 -->
<svg xmlns="http://www.w3.org/2000/svg" xml:space="preserve" width="1933px" height="1486px" version="1.1" style="shape-rendering:geometricPrecision; text-rendering:geometricPrecision; image-rendering:optimizeQuality; fill-rule:evenodd; clip-rule:evenodd"
viewBox="0 0 1933 1486"
 xmlns:xlink="http://www.w3.org/1999/xlink">
 <defs>
  <style type="text/css">
   <![CDATA[
    .fil0 {fill:#009846;fill-rule:nonzero}
   ]]>
  </style>
 </defs>
 <g id="Layer_x0020_1">
  <metadata id="CorelCorpID_0Corel-Layer"/>
  <path class="fil0" d="M693 945c32,16 36,45 4,64 -43,26 -95,15 -136,-10 -147,-89 -207,-264 -207,-429 0,-105 24,-207 69,-294 92,-176 280,-277 476,-276 84,0 160,14 227,38 66,-24 142,-38 227,-38 99,0 195,25 279,72 206,117 301,352 301,584 0,267 -116,514 -340,665 -162,109 -368,163 -590,165 -235,2 -456,-54 -631,-171 -237,-159 -368,-422 -372,-704 -3,-237 89,-469 299,-596 31,-19 82,-20 114,-3 32,16 36,45 5,64 -182,110 -257,325 -256,529 2,257 118,506 334,651 143,95 319,141 504,139 207,-2 389,-62 524,-174 165,-139 247,-352 247,-565 -1,-176 -64,-373 -206,-486 -60,-49 -134,-79 -212,-79 -36,0 -70,4 -101,12 160,112 241,303 241,494 1,92 -19,180 -58,251 -65,118 -178,176 -310,176 -131,0 -243,-58 -308,-176 -38,-70 -58,-160 -58,-251 0,-190 83,-382 241,-493 -31,-8 -65,-13 -101,-13 -135,0 -259,94 -320,211 -41,78 -62,172 -62,268 0,137 46,307 176,375zm433 -784c-136,96 -204,274 -204,436 0,83 17,163 51,225 31,58 82,111 152,111 71,0 123,-54 155,-112 34,-62 51,-141 51,-224 0,-164 -68,-340 -205,-436z"/>
 </g>
</svg>
