<?xml version="1.0" encoding="UTF-8"?>
<!DOCTYPE svg PUBLIC "-//W3C//DTD SVG 1.1//EN" "http://www.w3.org/Graphics/SVG/1.1/DTD/svg11.dtd">
<!-- Creator: CorelDRAW X8 -->
<svg xmlns="http://www.w3.org/2000/svg" xml:space="preserve" width="981px" height="868px" version="1.1" style="shape-rendering:geometricPrecision; text-rendering:geometricPrecision; image-rendering:optimizeQuality; fill-rule:evenodd; clip-rule:evenodd"
viewBox="0 0 981 868"
 xmlns:xlink="http://www.w3.org/1999/xlink">
 <defs>
  <style type="text/css">
   <![CDATA[
    .fil0 {fill:#434242;fill-rule:nonzero}
   ]]>
  </style>
 </defs>
 <g id="Layer_x0020_1">
  <metadata id="CorelCorpID_0Corel-Layer"/>
  <path class="fil0" d="M473 868c50,0 101,-5 150,-18 43,-11 84,-27 122,-49 55,-32 102,-74 141,-125 63,-83 95,-181 95,-285 0,-80 -20,-168 -63,-235 -67,-104 -187,-156 -308,-156 -46,0 -91,6 -134,20 -44,-14 -82,-20 -127,-20 -121,0 -249,54 -307,163 -28,52 -42,111 -42,171 0,97 37,198 125,250 17,10 39,16 61,16 15,0 31,-4 44,-11 10,-5 14,-12 14,-19 0,-7 -6,-15 -17,-21 -76,-38 -104,-136 -104,-215 0,-54 12,-109 37,-156 39,-73 106,-118 189,-118 13,0 25,1 37,4 -65,45 -108,111 -129,186 -9,32 -14,66 -14,99 0,50 11,103 35,146 42,74 115,105 197,105 83,0 158,-31 199,-105 25,-44 35,-96 35,-146 0,-33 -5,-67 -14,-99 -21,-78 -64,-139 -129,-186 15,-4 30,-5 44,-5 78,1 145,50 190,116 43,64 59,141 59,216 -1,85 -20,172 -63,246 -21,37 -47,70 -79,98 -6,-21 -22,-37 -41,-49 -29,-18 -73,-24 -107,-24 -32,0 -67,5 -95,19 -29,-14 -64,-19 -95,-19 -35,0 -78,6 -108,24 -24,14 -42,36 -42,65 0,47 48,81 88,95 51,18 104,22 156,22zm2 -327c-28,0 -56,-21 -79,-62 -22,-38 -30,-86 -30,-130 0,-93 37,-187 110,-243 73,56 110,150 110,243 0,44 -8,91 -30,130 -24,41 -52,62 -81,62zm-2 276c-34,0 -74,-2 -105,-16 -21,-10 -37,-25 -37,-49 0,-24 24,-40 46,-40 28,0 42,26 42,52 0,23 38,27 55,27 16,0 55,-4 55,-27 0,-26 14,-52 43,-52 20,0 45,16 45,38 0,25 -16,41 -38,51 -31,14 -72,16 -106,16z"/>
 </g>
</svg>
