<?xml version="1.0" encoding="UTF-8"?>
<!DOCTYPE svg PUBLIC "-//W3C//DTD SVG 1.1//EN" "http://www.w3.org/Graphics/SVG/1.1/DTD/svg11.dtd">
<!-- Creator: CorelDRAW X8 -->
<svg xmlns="http://www.w3.org/2000/svg" xml:space="preserve" width="2803px" height="1486px" version="1.1" style="shape-rendering:geometricPrecision; text-rendering:geometricPrecision; image-rendering:optimizeQuality; fill-rule:evenodd; clip-rule:evenodd"
viewBox="0 0 2803 1486"
 xmlns:xlink="http://www.w3.org/1999/xlink">
 <defs>
  <style type="text/css">
   <![CDATA[
    .fil0 {fill:#CC6633;fill-rule:nonzero}
   ]]>
  </style>
 </defs>
 <g id="Layer_x0020_1">
  <metadata id="CorelCorpID_0Corel-Layer"/>
  <path class="fil0" d="M1977 1408c62,0 138,-4 195,-30 39,-17 67,-47 65,-91 -2,-50 -58,-70 -100,-71 -57,0 -88,41 -88,97 0,31 -47,40 -71,40 -24,0 -71,-9 -70,-40 0,-56 -31,-97 -88,-97 -43,1 -99,21 -101,71 -1,44 27,74 65,91 56,25 132,30 193,30zm-222 -1408c85,0 160,14 227,38 72,-27 150,-38 227,-38 196,0 384,94 489,264 75,120 107,259 105,399 -3,178 -55,353 -158,495 -114,156 -261,254 -433,299 -74,19 -153,28 -235,29 -64,1 -162,-6 -243,-36 -83,-30 -144,-96 -143,-163 1,-38 21,-77 69,-107 40,-26 100,-39 160,-39 53,0 114,11 158,40 44,-29 105,-40 159,-40 59,0 120,13 160,39 48,31 69,69 69,107 0,3 0,5 0,8 72,-55 128,-124 171,-201 71,-128 103,-278 104,-425 1,-133 -27,-265 -98,-373 -75,-113 -193,-205 -334,-205 -35,0 -67,4 -101,12 160,112 241,302 241,493 0,92 -19,180 -58,251 -65,118 -177,175 -309,176 -132,0 -244,-58 -309,-176 -38,-70 -58,-159 -58,-251 0,-191 82,-381 242,-493 -32,-8 -66,-12 -102,-12 -177,0 -296,120 -296,301l0 586c0,25 -37,45 -82,45 -44,0 -81,-20 -81,-45l0 -586c0,-182 -119,-300 -297,-301 -33,0 -67,4 -101,12 159,107 241,306 242,494 0,92 -20,180 -59,250 -65,119 -178,177 -310,177 -131,0 -243,-58 -308,-176 -38,-70 -58,-160 -58,-251 0,-191 83,-382 241,-494 -31,-8 -65,-12 -101,-12 -135,-1 -259,94 -320,211 -41,78 -62,171 -62,268 0,137 46,307 176,374 33,18 35,46 4,65 -43,26 -95,15 -136,-10 -147,-89 -207,-265 -207,-429 0,-106 24,-207 69,-294 92,-176 280,-277 476,-276 74,0 157,12 227,38 76,-26 147,-38 227,-38 139,0 287,28 378,137 91,-108 240,-137 378,-137zm227 161c-137,96 -204,272 -204,435 0,83 17,163 51,225 31,58 82,111 153,111 70,0 122,-54 154,-112 34,-62 51,-141 51,-224 0,-163 -69,-339 -205,-435zm-1210 0c-136,95 -204,274 -204,436 0,82 17,163 51,225 31,58 82,111 152,111 71,0 123,-54 155,-112 34,-63 51,-141 51,-224 0,-164 -68,-340 -205,-436z"/>
 </g>
</svg>
