<?xml version="1.0" encoding="UTF-8"?>
<!DOCTYPE svg PUBLIC "-//W3C//DTD SVG 1.1//EN" "http://www.w3.org/Graphics/SVG/1.1/DTD/svg11.dtd">
<!-- Creator: CorelDRAW X8 -->
<svg xmlns="http://www.w3.org/2000/svg" xml:space="preserve" width="2694px" height="1486px" version="1.1" style="shape-rendering:geometricPrecision; text-rendering:geometricPrecision; image-rendering:optimizeQuality; fill-rule:evenodd; clip-rule:evenodd"
viewBox="0 0 2694 1486"
 xmlns:xlink="http://www.w3.org/1999/xlink">
 <defs>
  <style type="text/css">
   <![CDATA[
    .fil0 {fill:#434242;fill-rule:nonzero}
   ]]>
  </style>
 </defs>
 <g id="Layer_x0020_1">
  <metadata id="CorelCorpID_0Corel-Layer"/>
  <path class="fil0" d="M771 933c-70,0 -121,-54 -152,-112 -34,-61 -51,-142 -51,-224 0,-163 68,-341 204,-436 137,96 205,272 205,436 0,83 -17,161 -51,223 -32,58 -84,113 -155,113zm1115 553c74,0 156,-7 236,-24 90,-18 178,-48 248,-90 180,-107 267,-283 303,-475 15,-80 21,-162 21,-243 0,-103 -11,-231 -43,-328 -45,-138 -136,-258 -279,-314 -19,-8 -40,-12 -60,-12 -23,0 -45,6 -63,21 -10,8 -14,17 -14,25 0,16 17,31 36,38 173,64 248,272 248,442 0,159 -75,407 -271,407 -196,0 -201,-258 -201,-400 0,-101 -1,-212 -35,-308 -53,-149 -193,-225 -344,-225 -112,0 -228,33 -301,124 -94,-97 -235,-124 -368,-124 -80,0 -151,11 -227,38 -72,-28 -152,-38 -229,-38 -195,0 -383,101 -474,276 -46,87 -69,188 -69,294 0,164 60,340 207,429 25,15 53,25 81,25 19,0 38,-5 55,-15 15,-9 22,-20 22,-31 0,-13 -9,-25 -26,-34 -130,-67 -176,-237 -176,-374 0,-97 21,-191 62,-269 61,-115 184,-210 318,-210 35,0 69,3 103,12 -158,112 -241,303 -241,494 0,91 19,180 58,251 64,118 177,176 308,176 132,0 245,-58 310,-177 39,-70 59,-159 59,-250 -1,-188 -83,-387 -242,-494 34,-8 68,-12 101,-12 179,1 297,118 297,300l0 587c0,25 37,46 82,46 45,0 81,-21 81,-46l0 -616c0,-136 52,-271 209,-271 88,0 156,73 184,151 33,92 32,194 32,291 0,260 48,491 364,491 110,0 199,-33 266,-89 -25,161 -98,311 -245,395 1,-6 1,-11 1,-16 0,-97 -111,-134 -195,-154 -53,-12 -114,-19 -189,-19 -81,0 -152,8 -208,23 -121,31 -182,90 -182,149 0,84 110,131 177,149 69,19 139,24 213,24zm0 -84c-165,0 -242,-45 -242,-89 0,-45 86,-88 242,-88 155,0 236,46 236,88 0,42 -73,89 -236,89z"/>
 </g>
</svg>
