<?xml version="1.0" encoding="UTF-8"?>
<!DOCTYPE svg PUBLIC "-//W3C//DTD SVG 1.1//EN" "http://www.w3.org/Graphics/SVG/1.1/DTD/svg11.dtd">
<!-- Creator: CorelDRAW X8 -->
<svg xmlns="http://www.w3.org/2000/svg" xml:space="preserve" width="1561px" height="1486px" version="1.1" style="shape-rendering:geometricPrecision; text-rendering:geometricPrecision; image-rendering:optimizeQuality; fill-rule:evenodd; clip-rule:evenodd"
viewBox="0 0 1561 1486"
 xmlns:xlink="http://www.w3.org/1999/xlink">
 <defs>
  <style type="text/css">
   <![CDATA[
    .fil0 {fill:#434242;fill-rule:nonzero}
   ]]>
  </style>
 </defs>
 <g id="Layer_x0020_1">
  <metadata id="CorelCorpID_0Corel-Layer"/>
  <path class="fil0" d="M1431 1486c45,0 81,-31 81,-70 0,-38 -36,-69 -81,-69l-1135 0c-64,0 -131,-8 -131,-86 0,-56 44,-81 131,-81l660 0c174,0 324,-57 432,-157 126,-119 173,-264 173,-432 0,-158 -55,-312 -162,-425 -105,-108 -248,-166 -399,-166 -86,0 -162,14 -228,38 -66,-24 -142,-38 -227,-38 -196,0 -382,100 -475,276 -45,87 -69,188 -69,293 0,166 61,340 207,430 24,14 53,24 81,24 19,0 38,-4 55,-14 15,-9 22,-20 22,-32 0,-12 -8,-25 -26,-34 -130,-67 -176,-236 -176,-374 0,-96 21,-190 62,-268 61,-116 185,-210 319,-210 36,0 70,4 102,12 -159,112 -241,303 -241,494 0,90 20,181 58,250 65,119 176,177 308,177 132,0 244,-59 310,-177 38,-71 59,-158 59,-250 -1,-192 -83,-382 -243,-494 32,-8 66,-12 102,-12 117,0 221,67 289,158 73,98 110,223 110,346 0,148 -44,275 -151,382 -80,79 -180,112 -292,112l-660 0c-136,0 -296,31 -296,199 0,164 161,198 296,198l1135 0zm-659 -553c-70,0 -121,-54 -153,-112 -34,-61 -51,-142 -51,-224 0,-163 69,-341 204,-436 138,96 206,272 206,436 0,82 -17,162 -52,224 -31,58 -84,112 -154,112z"/>
 </g>
</svg>
