<?xml version="1.0" encoding="UTF-8"?>
<!DOCTYPE svg PUBLIC "-//W3C//DTD SVG 1.1//EN" "http://www.w3.org/Graphics/SVG/1.1/DTD/svg11.dtd">
<!-- Creator: CorelDRAW X8 -->
<svg xmlns="http://www.w3.org/2000/svg" xml:space="preserve" width="1734px" height="868px" version="1.1" style="shape-rendering:geometricPrecision; text-rendering:geometricPrecision; image-rendering:optimizeQuality; fill-rule:evenodd; clip-rule:evenodd"
viewBox="0 0 1734 868"
 xmlns:xlink="http://www.w3.org/1999/xlink">
 <defs>
  <style type="text/css">
   <![CDATA[
    .fil0 {fill:#2B2A29;fill-rule:nonzero}
   ]]>
  </style>
 </defs>
 <g id="Layer_x0020_1">
  <metadata id="CorelCorpID_0Corel-Layer"/>
  <path class="fil0" d="M1643 868c26,0 62,-12 62,-43 0,-31 -36,-44 -62,-44l-1453 0c-33,0 -66,-5 -66,-46 0,-38 34,-45 66,-45l1237 0c91,0 188,-15 254,-83 37,-39 53,-89 53,-142 0,-33 -9,-63 -26,-91 -16,-26 -39,-48 -69,-64 40,-26 65,-60 66,-108 0,-64 -41,-124 -96,-154 -64,-37 -148,-48 -221,-48 -60,0 -122,5 -180,22 -45,-16 -95,-22 -143,-22 -77,0 -167,13 -226,69 -59,-56 -149,-69 -227,-69 -47,0 -91,6 -136,20 -43,-14 -91,-20 -136,-20 -121,0 -240,54 -298,163 -28,52 -42,112 -42,171 0,98 37,198 125,250 18,10 40,16 62,16 15,0 30,-3 43,-10 10,-5 14,-12 14,-19 0,-8 -6,-16 -17,-21 -76,-39 -104,-137 -104,-216 0,-54 12,-108 37,-155 34,-64 104,-118 179,-120 15,0 30,2 47,5 -93,65 -143,174 -143,285 0,50 11,103 35,146 42,74 115,105 197,105 83,0 157,-30 199,-105 24,-44 35,-96 35,-146 0,-109 -50,-223 -143,-285 16,-3 31,-5 46,-5 94,1 166,64 166,172l0 339c0,24 44,30 61,30 17,0 61,-6 61,-30l0 -339c0,-106 71,-172 165,-172 15,0 32,2 46,5 -64,45 -108,111 -128,186 -9,32 -14,66 -14,99 0,50 10,103 35,146 42,74 114,105 197,105 83,0 156,-31 198,-105 25,-44 35,-96 35,-146 0,-33 -4,-67 -13,-99 -20,-74 -63,-139 -125,-183 23,-5 50,-8 78,-8l13 0c41,1 90,9 130,30 45,26 76,61 76,113 0,38 -24,80 -66,80 -18,0 -55,6 -55,29 0,24 38,30 56,30 33,0 56,16 72,44 15,25 17,51 17,80 0,38 -15,76 -38,103 -33,41 -87,64 -149,64l-1240 0c-80,0 -190,14 -190,118 0,101 110,118 190,118l1453 0zm-1168 -327c-33,0 -64,-35 -79,-62 -22,-38 -30,-86 -30,-130 0,-90 37,-187 110,-243 73,56 110,153 110,243 0,44 -8,91 -30,130 -15,27 -47,62 -81,62zm726 0c-28,0 -56,-21 -79,-62 -22,-38 -31,-86 -31,-130 0,-90 39,-187 110,-243 74,58 111,151 111,243 0,44 -9,91 -30,130 -24,41 -52,62 -81,62z"/>
 </g>
</svg>
