<?xml version="1.0" encoding="UTF-8"?>
<!DOCTYPE svg PUBLIC "-//W3C//DTD SVG 1.1//EN" "http://www.w3.org/Graphics/SVG/1.1/DTD/svg11.dtd">
<!-- Creator: CorelDRAW X8 -->
<svg xmlns="http://www.w3.org/2000/svg" xml:space="preserve" width="2659px" height="1486px" version="1.1" style="shape-rendering:geometricPrecision; text-rendering:geometricPrecision; image-rendering:optimizeQuality; fill-rule:evenodd; clip-rule:evenodd"
viewBox="0 0 2659 1487"
 xmlns:xlink="http://www.w3.org/1999/xlink">
 <defs>
  <style type="text/css">
   <![CDATA[
    .fil0 {fill:#2B2A29;fill-rule:nonzero}
   ]]>
  </style>
 </defs>
 <g id="Layer_x0020_1">
  <metadata id="CorelCorpID_0Corel-Layer"/>
  <path class="fil0" d="M2369 1398c167,-54 290,-139 290,-279 0,-70 -40,-131 -101,-166 58,-29 99,-77 99,-156 0,-116 -95,-192 -207,-192 -58,0 -119,18 -177,18 -65,0 -127,-25 -127,-102 0,-64 44,-97 104,-97 64,0 126,24 194,24 112,0 196,-49 196,-171 0,-226 -287,-277 -470,-277 -144,0 -350,27 -440,140 -99,-111 -240,-140 -383,-140 -81,0 -153,11 -229,38 -70,-27 -152,-38 -227,-38 -197,0 -383,99 -476,276 -45,87 -69,188 -69,294 0,164 60,340 207,429 25,15 53,25 81,25 19,0 38,-5 55,-15 15,-9 22,-20 22,-31 0,-13 -9,-25 -26,-34 -129,-67 -176,-237 -176,-374 0,-97 22,-191 62,-269 62,-117 185,-210 320,-210 36,0 70,4 101,12 -158,112 -240,303 -240,494 0,91 19,180 58,251 64,118 176,176 308,176 132,0 245,-58 311,-177 38,-71 58,-159 58,-250 0,-188 -83,-387 -243,-494 34,-8 69,-12 103,-12 178,1 297,118 297,300l0 587c0,25 36,46 81,46 45,0 82,-21 82,-46l0 -592c0,-236 173,-295 363,-295 158,0 321,76 321,178 0,49 -20,76 -74,76 -69,0 -140,-28 -214,-28 -40,0 -79,7 -116,29 -63,39 -87,102 -87,174 0,71 35,144 100,177 42,21 79,30 126,30 60,0 111,-19 159,-19 52,0 113,30 113,89 0,81 -68,103 -136,108 -17,2 -57,2 -73,2l-177 0c-45,0 -81,21 -81,46 0,25 36,46 81,46l180 0 74 0c74,0 130,45 130,120 0,83 -67,141 -165,181 -210,86 -583,96 -809,96 -326,0 -660,-30 -834,-90 -333,-115 -525,-385 -525,-734 0,-197 70,-390 247,-495 15,-9 22,-20 22,-31 0,-13 -9,-25 -25,-34 -16,-8 -36,-12 -56,-12 -22,0 -43,5 -59,14 -200,120 -291,332 -292,558 0,402 229,683 602,812 208,72 566,103 920,103 253,0 605,-12 847,-89zm-1251 -465c-71,0 -121,-54 -153,-112 -34,-61 -51,-142 -51,-224 0,-163 68,-341 204,-436 137,96 205,272 205,436 0,82 -16,161 -51,223 -32,58 -84,113 -154,113z"/>
 </g>
</svg>
