<?xml version="1.0" encoding="UTF-8"?>
<!DOCTYPE svg PUBLIC "-//W3C//DTD SVG 1.1//EN" "http://www.w3.org/Graphics/SVG/1.1/DTD/svg11.dtd">
<!-- Creator: CorelDRAW X8 -->
<svg xmlns="http://www.w3.org/2000/svg" xml:space="preserve" width="3124px" height="1486px" version="1.1" style="shape-rendering:geometricPrecision; text-rendering:geometricPrecision; image-rendering:optimizeQuality; fill-rule:evenodd; clip-rule:evenodd"
viewBox="0 0 3124 1487"
 xmlns:xlink="http://www.w3.org/1999/xlink">
 <defs>
  <style type="text/css">
   <![CDATA[
    .fil0 {fill:#2B2A29;fill-rule:nonzero}
   ]]>
  </style>
 </defs>
 <g id="Layer_x0020_1">
  <metadata id="CorelCorpID_0Corel-Layer"/>
  <path class="fil0" d="M2750 1264c221,-136 374,-348 374,-668 0,-136 -36,-278 -122,-387 -110,-140 -277,-209 -451,-209 -73,0 -152,13 -220,38 -75,-27 -147,-37 -226,-37 -139,0 -287,28 -378,136 -92,-108 -240,-136 -378,-136 -82,0 -151,10 -228,38 -70,-27 -153,-38 -228,-39 -196,0 -383,100 -475,277 -48,91 -69,191 -69,293 0,165 59,340 206,429 25,15 53,25 82,25 19,0 38,-5 55,-15 15,-9 21,-20 21,-31 0,-12 -9,-24 -25,-33 -130,-68 -177,-237 -177,-375 0,-96 22,-190 63,-268 60,-116 184,-211 319,-211 36,0 70,5 102,13 -159,111 -241,303 -241,493 0,91 19,181 58,251 64,119 176,176 308,176 132,0 245,-57 311,-176 38,-71 58,-159 58,-251 0,-187 -84,-387 -243,-493 34,-8 69,-13 103,-13 176,2 296,120 296,301l0 586c0,25 36,46 82,46 45,0 81,-21 81,-46l0 -586c0,-181 116,-300 297,-301 36,0 70,5 101,12 -160,112 -241,302 -241,494 0,91 19,180 58,251 64,118 177,175 308,175 132,0 245,-57 310,-176 38,-71 58,-159 58,-250 0,-191 -82,-382 -241,-494 30,-8 61,-12 93,-12 131,0 243,70 318,178 64,93 92,210 92,327 -1,279 -118,464 -298,586 -288,195 -725,213 -1064,213 -344,0 -770,-27 -1062,-192 -239,-135 -374,-341 -374,-624 0,-196 74,-398 249,-502 15,-9 22,-20 22,-31 0,-12 -9,-25 -26,-33 -15,-9 -35,-13 -55,-13 -22,0 -43,5 -60,15 -200,119 -292,334 -293,561 0,339 180,576 482,723 320,156 754,188 1117,188 372,0 826,-25 1151,-223zm-419 -332c-70,0 -121,-53 -153,-111 -34,-62 -51,-142 -51,-224 0,-164 67,-340 204,-436 137,96 206,273 206,436 0,82 -18,161 -52,223 -31,58 -84,112 -154,112zm-1211 1c-70,0 -121,-53 -153,-111 -34,-62 -51,-142 -51,-225 0,-162 69,-340 204,-436 137,96 207,272 207,436 0,83 -18,162 -53,224 -31,58 -84,112 -154,112z"/>
 </g>
</svg>
