<?xml version="1.0" encoding="UTF-8"?>
<!DOCTYPE svg PUBLIC "-//W3C//DTD SVG 1.1//EN" "http://www.w3.org/Graphics/SVG/1.1/DTD/svg11.dtd">
<!-- Creator: CorelDRAW X8 -->
<svg xmlns="http://www.w3.org/2000/svg" xml:space="preserve" width="981px" height="868px" version="1.1" style="shape-rendering:geometricPrecision; text-rendering:geometricPrecision; image-rendering:optimizeQuality; fill-rule:evenodd; clip-rule:evenodd"
viewBox="0 0 981 868"
 xmlns:xlink="http://www.w3.org/1999/xlink">
 <defs>
  <style type="text/css">
   <![CDATA[
    .fil0 {fill:#009846;fill-rule:nonzero}
   ]]>
  </style>
 </defs>
 <g id="Layer_x0020_1">
  <metadata id="CorelCorpID_0Corel-Layer"/>
  <path class="fil0" d="M473 817c34,0 75,-2 106,-16 22,-10 38,-26 38,-51 -1,-23 -26,-39 -47,-38 -28,1 -41,27 -41,52 -1,23 -39,27 -55,27 -17,0 -55,-4 -55,-27 0,-26 -15,-53 -44,-52 -20,1 -43,16 -44,38 -1,25 15,41 37,51 31,14 71,16 105,16zm3 -711c-49,38 -81,93 -98,152 -8,30 -12,60 -12,91 0,44 8,92 30,130 23,41 51,62 79,62 29,0 57,-21 81,-62 22,-39 30,-86 30,-130 0,-31 -4,-61 -12,-91 -17,-59 -49,-114 -98,-152zm-249 443c20,11 24,28 3,40 -31,18 -75,12 -105,-5 -88,-52 -125,-153 -125,-250 0,-60 14,-119 42,-171 58,-109 177,-163 298,-163 45,0 92,6 136,20 43,-14 90,-20 136,-20 121,0 239,52 306,156 44,69 64,150 63,232 -2,103 -33,205 -95,288 -39,51 -86,93 -141,125 -38,22 -79,38 -122,49 -49,13 -99,18 -149,18 -51,1 -109,-5 -157,-22 -40,-14 -89,-49 -88,-96 0,-28 19,-50 42,-64 30,-18 73,-24 108,-24 31,0 66,5 95,19 28,-14 63,-19 95,-19 34,0 78,6 107,24 19,12 35,28 41,49 32,-28 58,-61 79,-98 43,-74 62,-161 63,-246 0,-75 -16,-152 -59,-216 -45,-66 -112,-115 -190,-116 -14,0 -29,1 -44,5 65,47 108,108 129,186 9,32 14,66 14,99 0,50 -11,102 -35,146 -42,74 -116,105 -199,105 -82,0 -155,-31 -197,-105 -24,-43 -35,-96 -35,-146 0,-33 5,-67 14,-99 21,-75 64,-141 129,-186 -16,-4 -32,-5 -48,-4 -75,2 -141,50 -178,118 -25,47 -37,102 -37,156 0,79 28,177 104,215z"/>
 </g>
</svg>
