<?xml version="1.0" encoding="UTF-8"?>
<!DOCTYPE svg PUBLIC "-//W3C//DTD SVG 1.1//EN" "http://www.w3.org/Graphics/SVG/1.1/DTD/svg11.dtd">
<!-- Creator: CorelDRAW X8 -->
<svg xmlns="http://www.w3.org/2000/svg" xml:space="preserve" width="1593px" height="1486px" version="1.1" style="shape-rendering:geometricPrecision; text-rendering:geometricPrecision; image-rendering:optimizeQuality; fill-rule:evenodd; clip-rule:evenodd"
viewBox="0 0 1593 1486"
 xmlns:xlink="http://www.w3.org/1999/xlink">
 <defs>
  <style type="text/css">
   <![CDATA[
    .fil0 {fill:#898778;fill-rule:nonzero}
   ]]>
  </style>
 </defs>
 <g id="Layer_x0020_1">
  <metadata id="CorelCorpID_0Corel-Layer"/>
  <path class="fil0" d="M772 1225c-76,0 -137,10 -177,25 -43,17 -65,40 -65,63 -1,23 21,46 65,63 39,16 100,26 177,26 62,0 110,-7 148,-18 59,-17 88,-44 88,-71 -1,-27 -29,-53 -86,-70 -38,-11 -87,-18 -150,-18zm-433 -281c31,17 36,45 4,65 -43,26 -95,15 -136,-10 -147,-89 -207,-265 -207,-429 0,-106 24,-207 69,-294 92,-176 280,-277 476,-276 84,0 160,14 227,38 66,-24 142,-38 227,-38 198,0 385,96 489,265 75,119 107,259 105,398 -3,178 -55,353 -158,496 -127,174 -287,270 -478,308 -59,12 -121,18 -185,19 -67,1 -149,-7 -213,-24 -119,-32 -178,-91 -178,-149 0,-59 61,-118 183,-149 55,-14 126,-23 208,-23 74,0 135,7 188,20 72,16 180,58 195,135 72,-55 129,-124 172,-202 71,-127 103,-278 104,-425 1,-133 -27,-264 -98,-372 -75,-113 -195,-206 -334,-206 -36,0 -70,4 -101,12 160,112 241,302 241,494 1,91 -19,180 -58,250 -65,119 -178,177 -310,177 -131,0 -243,-58 -308,-176 -38,-71 -58,-160 -58,-251 0,-191 83,-382 241,-493 -31,-8 -65,-13 -101,-13 -135,0 -259,94 -320,211 -41,78 -62,171 -62,268 0,137 46,307 176,374zm433 -783c-136,96 -204,274 -204,436 0,82 17,163 51,224 31,58 82,112 152,112 70,0 123,-55 155,-112 34,-63 51,-141 51,-224 0,-164 -68,-340 -205,-436z"/>
 </g>
</svg>
