<?xml version="1.0" encoding="UTF-8"?>
<!DOCTYPE svg PUBLIC "-//W3C//DTD SVG 1.1//EN" "http://www.w3.org/Graphics/SVG/1.1/DTD/svg11.dtd">
<!-- Creator: CorelDRAW X8 -->
<svg xmlns="http://www.w3.org/2000/svg" xml:space="preserve" width="2756px" height="1024px" version="1.1" style="shape-rendering:geometricPrecision; text-rendering:geometricPrecision; image-rendering:optimizeQuality; fill-rule:evenodd; clip-rule:evenodd"
viewBox="0 0 2756 1024"
 xmlns:xlink="http://www.w3.org/1999/xlink">
 <defs>
  <style type="text/css">
   <![CDATA[
    .fil0 {fill:#2B2A29;fill-rule:nonzero}
   ]]>
  </style>
 </defs>
 <g id="Layer_x0020_1">
  <metadata id="CorelCorpID_0Corel-Layer"/>
  <path class="fil0" d="M2467 1024c28,0 57,-10 81,-24 148,-89 208,-261 208,-427 0,-105 -24,-211 -69,-297 -93,-178 -280,-276 -477,-276 -85,0 -161,14 -227,38 -67,-24 -142,-38 -227,-38 -139,0 -287,29 -379,137 -90,-109 -239,-137 -378,-137 -80,0 -151,12 -227,38 -72,-27 -150,-38 -227,-38 -195,0 -384,101 -476,276 -45,87 -69,188 -69,294 0,164 60,340 207,429 25,15 53,25 81,25 19,0 38,-5 55,-15 15,-9 22,-20 22,-31 0,-13 -9,-25 -26,-34 -130,-67 -176,-237 -176,-374 0,-97 21,-190 62,-268 62,-117 184,-211 320,-211 36,0 70,4 101,12 -158,112 -241,303 -241,494 0,91 20,181 58,251 65,118 177,176 308,176 132,0 245,-58 310,-177 39,-70 59,-158 59,-250 -1,-188 -83,-387 -242,-494 34,-8 68,-12 101,-12 181,1 298,118 298,301l0 586c0,25 36,45 82,45 44,0 80,-20 80,-45l0 -586c0,-182 116,-301 297,-301 36,0 70,4 102,12 -161,112 -243,302 -243,493 0,92 20,181 58,251 66,118 178,176 310,176 132,-1 244,-58 309,-176 39,-71 58,-159 58,-251 0,-191 -81,-381 -241,-493 32,-8 65,-12 101,-12 136,0 259,92 321,210 41,79 62,176 62,272 0,137 -46,304 -176,372 -17,8 -26,21 -26,33 0,11 7,22 22,31 17,11 36,15 54,15zm-484 -92c-71,0 -122,-53 -153,-111 -34,-62 -51,-142 -51,-225 0,-163 67,-339 204,-435 136,96 205,272 205,435 0,83 -17,162 -51,224 -32,58 -84,112 -154,112zm-1212 1c-70,0 -121,-53 -152,-111 -34,-62 -51,-143 -51,-225 0,-162 68,-341 204,-436 137,96 205,272 205,436 0,83 -17,161 -51,224 -32,58 -84,112 -155,112z"/>
 </g>
</svg>
