<?xml version="1.0" encoding="UTF-8"?>
<!DOCTYPE svg PUBLIC "-//W3C//DTD SVG 1.1//EN" "http://www.w3.org/Graphics/SVG/1.1/DTD/svg11.dtd">
<!-- Creator: CorelDRAW X8 -->
<svg xmlns="http://www.w3.org/2000/svg" xml:space="preserve" width="1008px" height="868px" version="1.1" style="shape-rendering:geometricPrecision; text-rendering:geometricPrecision; image-rendering:optimizeQuality; fill-rule:evenodd; clip-rule:evenodd"
viewBox="0 0 1008 868"
 xmlns:xlink="http://www.w3.org/1999/xlink">
 <defs>
  <style type="text/css">
   <![CDATA[
    .fil0 {fill:#2B2A29;fill-rule:nonzero}
   ]]>
  </style>
 </defs>
 <g id="Layer_x0020_1">
  <metadata id="CorelCorpID_0Corel-Layer"/>
  <path class="fil0" d="M917 868c26,0 62,-12 62,-43 0,-32 -36,-44 -62,-44l-727 0c-33,0 -66,-5 -66,-46 0,-38 34,-45 66,-45l511 0c91,0 188,-15 254,-83 37,-39 53,-87 53,-140 0,-33 -9,-65 -26,-93 -16,-26 -39,-48 -69,-64 40,-26 65,-67 66,-115 0,-64 -41,-117 -96,-147 -64,-37 -162,-48 -235,-48 -60,0 -108,5 -166,22 -43,-15 -87,-22 -133,-22 -120,0 -249,54 -307,163 -29,52 -42,111 -42,171 0,97 37,198 125,250 17,10 39,16 61,16 15,0 31,-3 44,-11 9,-6 14,-12 14,-19 0,-7 -6,-15 -17,-21 -76,-38 -105,-136 -105,-215 0,-54 12,-109 38,-156 39,-72 106,-118 189,-118 12,0 24,1 37,4 -93,64 -143,174 -143,285 0,50 10,103 35,146 42,74 114,105 197,105 83,0 156,-31 198,-105 25,-44 35,-96 35,-146 0,-110 -47,-217 -138,-282 23,-5 50,-8 78,-8 49,0 99,7 143,30 45,26 76,61 76,113 0,38 -24,80 -66,80 -18,0 -55,6 -55,29 0,24 38,30 56,30 31,0 54,19 68,45 14,24 21,55 21,81 0,44 -13,80 -35,106 -33,39 -87,59 -152,59l-514 0c-79,0 -190,14 -190,117 0,102 110,119 190,119l727 0zm-442 -327c-28,0 -56,-21 -79,-62 -22,-38 -31,-86 -31,-130 0,-90 38,-187 110,-243 74,56 111,152 111,243 0,44 -9,91 -30,130 -24,41 -52,62 -81,62z"/>
 </g>
</svg>
