<?xml version="1.0" encoding="UTF-8"?>
<!DOCTYPE svg PUBLIC "-//W3C//DTD SVG 1.1//EN" "http://www.w3.org/Graphics/SVG/1.1/DTD/svg11.dtd">
<!-- Creator: CorelDRAW X8 -->
<svg xmlns="http://www.w3.org/2000/svg" xml:space="preserve" width="2173px" height="1024px" version="1.1" style="shape-rendering:geometricPrecision; text-rendering:geometricPrecision; image-rendering:optimizeQuality; fill-rule:evenodd; clip-rule:evenodd"
viewBox="0 0 2173 1024"
 xmlns:xlink="http://www.w3.org/1999/xlink">
 <defs>
  <style type="text/css">
   <![CDATA[
    .fil0 {fill:#434242;fill-rule:nonzero}
   ]]>
  </style>
 </defs>
 <g id="Layer_x0020_1">
  <metadata id="CorelCorpID_0Corel-Layer"/>
  <path class="fil0" d="M1835 1024c19,0 39,-4 55,-11 196,-86 283,-299 283,-502 0,-89 -15,-175 -51,-252 -79,-169 -248,-259 -431,-259 -137,0 -251,43 -321,129 -91,-102 -236,-129 -371,-129 -80,0 -151,12 -227,38 -72,-27 -153,-38 -229,-38 -195,0 -383,101 -474,276 -46,87 -69,188 -69,294 0,164 60,340 207,429 25,15 53,25 81,25 19,0 37,-4 55,-15 15,-9 22,-20 22,-31 0,-13 -9,-25 -26,-34 -130,-67 -176,-237 -176,-374 0,-97 21,-190 62,-268 61,-116 184,-211 318,-211 35,0 69,3 103,12 -158,112 -241,303 -241,494 0,91 20,181 58,251 65,118 177,176 308,176 132,0 245,-58 310,-177 42,-77 58,-163 58,-250 0,-188 -82,-387 -241,-494 34,-8 68,-12 101,-12 178,1 297,119 297,300l0 587c0,25 37,45 81,45 45,0 82,-20 82,-45l0 -616c0,-149 70,-271 232,-271 131,0 238,96 284,214 25,64 35,135 35,205 0,160 -62,364 -223,432 -19,8 -32,22 -32,37 0,9 5,18 17,27 17,12 40,18 63,18zm-1064 -91c-70,0 -121,-54 -152,-111 -34,-62 -51,-143 -51,-225 0,-162 68,-341 204,-436 137,96 205,272 205,436 0,83 -17,161 -51,224 -32,58 -84,112 -155,112z"/>
 </g>
</svg>
