<?xml version="1.0" encoding="UTF-8"?>
<!DOCTYPE svg PUBLIC "-//W3C//DTD SVG 1.1//EN" "http://www.w3.org/Graphics/SVG/1.1/DTD/svg11.dtd">
<!-- Creator: CorelDRAW X8 -->
<svg xmlns="http://www.w3.org/2000/svg" xml:space="preserve" width="1189px" height="868px" version="1.1" style="shape-rendering:geometricPrecision; text-rendering:geometricPrecision; image-rendering:optimizeQuality; fill-rule:evenodd; clip-rule:evenodd"
viewBox="0 0 1189 868"
 xmlns:xlink="http://www.w3.org/1999/xlink">
 <defs>
  <style type="text/css">
   <![CDATA[
    .fil0 {fill:#434242;fill-rule:nonzero}
   ]]>
  </style>
 </defs>
 <g id="Layer_x0020_1">
  <metadata id="CorelCorpID_0Corel-Layer"/>
  <path class="fil0" d="M984 770c133,-86 205,-225 205,-382 0,-71 -16,-146 -49,-208 -64,-121 -180,-180 -315,-180 -46,0 -92,7 -133,20 -43,-14 -83,-20 -128,-20 -121,0 -246,54 -305,163 -28,52 -42,112 -42,171 0,98 37,198 125,250 17,10 39,16 61,16 15,0 31,-3 44,-11 9,-5 14,-12 14,-18 0,-8 -6,-15 -17,-21 -78,-38 -104,-136 -104,-216 0,-54 11,-108 37,-156 38,-71 105,-118 187,-118 13,0 26,2 39,4 -93,64 -143,174 -143,285 0,50 11,103 35,146 42,74 115,105 197,105 83,0 157,-31 199,-105 25,-44 35,-96 35,-146 0,-112 -50,-221 -143,-285 14,-3 29,-5 42,-5 95,1 170,74 208,162 23,53 33,110 33,167 0,122 -50,244 -147,322 -86,70 -200,99 -309,99 -152,0 -300,-55 -394,-181 -60,-80 -93,-180 -93,-280 0,-118 42,-236 148,-299 9,-5 14,-13 14,-20 0,-7 -6,-15 -17,-20 -12,-6 -29,-9 -45,-9 -18,0 -35,3 -47,10 -123,72 -176,204 -176,342 0,107 39,215 103,300 118,157 316,216 507,216 130,0 264,-26 374,-98zm-292 -229c-28,0 -56,-21 -79,-62 -22,-38 -30,-86 -30,-130 0,-90 37,-187 110,-243 73,56 110,152 110,243 0,44 -8,91 -30,130 -24,41 -52,62 -81,62z"/>
 </g>
</svg>
