<?xml version="1.0" encoding="UTF-8"?>
<!DOCTYPE svg PUBLIC "-//W3C//DTD SVG 1.1//EN" "http://www.w3.org/Graphics/SVG/1.1/DTD/svg11.dtd">
<!-- Creator: CorelDRAW X8 -->
<svg xmlns="http://www.w3.org/2000/svg" xml:space="preserve" width="2309px" height="1024px" version="1.1" style="shape-rendering:geometricPrecision; text-rendering:geometricPrecision; image-rendering:optimizeQuality; fill-rule:evenodd; clip-rule:evenodd"
viewBox="0 0 2309 1024"
 xmlns:xlink="http://www.w3.org/1999/xlink">
 <defs>
  <style type="text/css">
   <![CDATA[
    .fil0 {fill:#669933;fill-rule:nonzero}
   ]]>
  </style>
 </defs>
 <g id="Layer_x0020_1">
  <metadata id="CorelCorpID_0Corel-Layer"/>
  <path class="fil0" d="M1690 909l456 0 0 -481c0,-109 -40,-193 -104,-251 -47,-43 -108,-70 -175,-81 92,57 133,155 134,266 0,65 -13,135 -39,203 -48,127 -139,253 -272,344zm-394 -518c0,-181 -120,-299 -297,-300 -33,0 -68,4 -101,12 109,74 185,197 219,323 15,55 22,114 22,171 0,91 -19,180 -58,250 -65,119 -178,177 -310,177 -131,0 -243,-58 -308,-176 -38,-71 -58,-160 -58,-251 0,-58 8,-115 23,-171 34,-130 108,-245 218,-323 -31,-8 -65,-12 -101,-12 -135,-1 -259,94 -320,211 -41,78 -62,171 -62,268 0,137 46,307 176,374 33,17 35,46 4,65 -43,26 -95,15 -136,-10 -147,-89 -207,-265 -207,-429 0,-106 24,-207 69,-294 92,-176 280,-277 476,-276 74,0 157,12 227,38 75,-26 147,-38 227,-38 147,0 305,33 396,158 102,-112 260,-158 408,-158 150,0 284,45 377,129 80,71 129,173 129,299l0 526c0,25 -36,46 -81,46l-850 0c-45,0 -82,-21 -82,-46l0 -563zm266 -214c-63,57 -103,141 -103,251l0 480c150,-63 280,-198 342,-354 25,-61 38,-125 39,-190 1,-100 -42,-240 -165,-236 -39,1 -79,19 -113,49zm-790 -16c-94,66 -154,169 -183,278 -14,53 -21,106 -21,158 0,82 17,163 51,224 31,58 82,112 152,112 70,0 123,-55 155,-112 34,-63 51,-141 51,-224 0,-52 -7,-105 -21,-158 -29,-110 -91,-212 -184,-278z"/>
 </g>
</svg>
