<?xml version="1.0" encoding="UTF-8"?>
<!DOCTYPE svg PUBLIC "-//W3C//DTD SVG 1.1//EN" "http://www.w3.org/Graphics/SVG/1.1/DTD/svg11.dtd">
<!-- Creator: CorelDRAW X8 -->
<svg xmlns="http://www.w3.org/2000/svg" xml:space="preserve" width="2770px" height="1486px" version="1.1" style="shape-rendering:geometricPrecision; text-rendering:geometricPrecision; image-rendering:optimizeQuality; fill-rule:evenodd; clip-rule:evenodd"
viewBox="0 0 2770 1486"
 xmlns:xlink="http://www.w3.org/1999/xlink">
 <defs>
  <style type="text/css">
   <![CDATA[
    .fil0 {fill:#434242;fill-rule:nonzero}
   ]]>
  </style>
 </defs>
 <g id="Layer_x0020_1">
  <metadata id="CorelCorpID_0Corel-Layer"/>
  <path class="fil0" d="M2641 1486c45,0 81,-31 81,-69 0,-39 -36,-70 -81,-70l-2345 0c-64,0 -131,-7 -131,-86 0,-56 44,-81 131,-81l1830 0c174,0 344,-32 472,-158 120,-118 172,-265 172,-430 0,-158 -54,-314 -162,-426 -104,-109 -249,-166 -400,-166 -77,0 -154,11 -227,38 -66,-24 -141,-38 -226,-38 -139,0 -287,29 -378,137 -91,-109 -239,-137 -378,-137 -80,0 -151,12 -227,38 -72,-27 -152,-38 -229,-38 -195,0 -383,101 -474,276 -46,87 -70,188 -69,294 0,164 60,340 207,429 24,15 52,24 80,24 19,0 38,-4 56,-15 15,-9 22,-20 22,-31 0,-12 -9,-24 -26,-33 -129,-68 -176,-237 -176,-374 0,-97 21,-191 62,-269 60,-116 184,-210 318,-210 35,0 69,3 103,12 -159,112 -240,302 -240,494 0,91 19,180 58,251 64,118 176,176 307,176 132,0 245,-58 310,-177 39,-71 59,-159 59,-250 -1,-188 -83,-387 -242,-494 34,-8 68,-12 101,-12 179,1 297,118 297,301l0 586c0,25 37,45 81,45 45,0 81,-20 81,-45l0 -586c0,-182 115,-301 297,-301 36,0 70,4 101,12 -159,112 -241,302 -241,493 0,91 20,181 58,251 65,118 177,175 308,175 132,0 245,-57 310,-176 39,-70 58,-158 58,-250 0,-191 -82,-381 -241,-493 33,-8 66,-12 100,-12 118,0 221,67 290,158 74,98 109,227 109,349 0,141 -48,279 -150,379 -80,79 -181,112 -292,112l-1869 0c-136,0 -296,32 -296,199 0,164 161,198 296,198l2345 0zm-660 -555c-70,0 -122,-53 -153,-110 -33,-62 -51,-142 -51,-225 0,-163 67,-339 204,-435 137,95 206,272 206,435 0,83 -17,162 -51,224 -32,58 -84,111 -155,111zm-1210 2c-70,0 -121,-54 -152,-112 -34,-62 -51,-142 -51,-224 0,-163 68,-341 204,-436 137,96 205,272 205,436 0,82 -17,161 -51,223 -32,58 -84,113 -155,113z"/>
 </g>
</svg>
