<?xml version="1.0" encoding="UTF-8"?>
<!DOCTYPE svg PUBLIC "-//W3C//DTD SVG 1.1//EN" "http://www.w3.org/Graphics/SVG/1.1/DTD/svg11.dtd">
<!-- Creator: CorelDRAW X8 -->
<svg xmlns="http://www.w3.org/2000/svg" xml:space="preserve" width="1687px" height="868px" version="1.1" style="shape-rendering:geometricPrecision; text-rendering:geometricPrecision; image-rendering:optimizeQuality; fill-rule:evenodd; clip-rule:evenodd"
viewBox="0 0 1687 868"
 xmlns:xlink="http://www.w3.org/1999/xlink">
 <defs>
  <style type="text/css">
   <![CDATA[
    .fil0 {fill:#009846;fill-rule:nonzero}
   ]]>
  </style>
 </defs>
 <g id="Layer_x0020_1">
  <metadata id="CorelCorpID_0Corel-Layer"/>
  <path class="fil0" d="M1201 20c44,-14 91,-20 137,-20 124,0 238,54 301,163 35,61 51,132 48,202 -4,88 -39,171 -103,232 -80,76 -187,94 -294,94l-1100 0c-32,0 -67,6 -66,46 1,40 34,45 66,45l1412 0c26,0 62,12 62,43 0,31 -36,43 -62,43l-1412 0c-81,0 -192,-17 -190,-121 2,-101 111,-115 190,-115l1101 0c73,0 129,-10 184,-63 56,-54 86,-128 89,-205 3,-62 -11,-128 -42,-183 -39,-67 -105,-121 -186,-122 -14,0 -29,2 -44,5 93,64 142,173 142,285 0,50 -10,102 -35,145 -42,75 -115,105 -198,105 -82,0 -155,-30 -197,-104 -25,-44 -35,-97 -35,-146 0,-112 49,-221 143,-285 -16,-4 -32,-5 -47,-5 -94,0 -165,65 -165,171l0 340c0,24 -44,30 -61,30 -17,0 -61,-6 -61,-30l0 -340c0,-107 -72,-171 -166,-171 -15,0 -31,2 -46,5 93,62 142,175 143,285 0,50 -11,102 -36,146 -42,74 -115,105 -198,105 -83,0 -155,-31 -197,-105 -25,-43 -35,-96 -35,-146 0,-111 50,-221 143,-285 -17,-4 -33,-5 -48,-5 -74,1 -144,56 -178,119 -26,47 -38,102 -38,156 0,79 29,177 105,215 20,11 23,28 3,40 -31,18 -75,12 -105,-5 -88,-52 -125,-153 -125,-250 0,-60 13,-119 42,-171 58,-109 177,-164 297,-163 46,0 94,6 137,20 45,-14 89,-20 136,-20 78,0 168,13 227,69 59,-56 148,-69 226,-69 47,0 92,6 136,20zm0 86c-73,56 -110,152 -110,243 0,44 9,91 31,130 15,26 46,61 79,61 34,0 65,-35 80,-62 22,-38 31,-85 31,-129 0,-91 -38,-187 -111,-243zm-726 0c-72,56 -110,153 -110,243 0,44 9,92 31,130 15,27 46,62 79,62 34,0 65,-36 81,-62 21,-39 30,-86 30,-130 0,-91 -37,-187 -111,-243z"/>
 </g>
</svg>
