<?xml version="1.0" encoding="UTF-8"?>
<!DOCTYPE svg PUBLIC "-//W3C//DTD SVG 1.1//EN" "http://www.w3.org/Graphics/SVG/1.1/DTD/svg11.dtd">
<!-- Creator: CorelDRAW X8 -->
<svg xmlns="http://www.w3.org/2000/svg" xml:space="preserve" width="1561px" height="1486px" version="1.1" style="shape-rendering:geometricPrecision; text-rendering:geometricPrecision; image-rendering:optimizeQuality; fill-rule:evenodd; clip-rule:evenodd"
viewBox="0 0 1561 1486"
 xmlns:xlink="http://www.w3.org/1999/xlink">
 <defs>
  <style type="text/css">
   <![CDATA[
    .fil0 {fill:#CC6633;fill-rule:nonzero}
   ]]>
  </style>
 </defs>
 <g id="Layer_x0020_1">
  <metadata id="CorelCorpID_0Corel-Layer"/>
  <path class="fil0" d="M339 944c18,9 26,21 26,33 0,12 -7,23 -21,31 -18,11 -37,16 -56,15 -28,0 -56,-9 -81,-24 -147,-89 -206,-265 -207,-429 0,-106 24,-207 70,-294 92,-176 279,-277 475,-276 85,0 161,14 227,38 66,-24 142,-38 227,-38 151,0 296,57 400,166 114,120 169,290 161,459 -8,167 -71,303 -172,398 -108,101 -258,157 -432,157l-660 0c-90,0 -134,26 -132,85 1,63 45,83 132,83l1144 0c45,0 81,31 81,69 0,38 -36,69 -81,69l-1144 0c-138,0 -300,-35 -297,-204 3,-123 95,-193 297,-193l660 0c111,0 211,-33 292,-112 95,-94 144,-222 150,-354 5,-130 -30,-269 -109,-374 -69,-91 -172,-158 -290,-158 -36,0 -69,4 -101,12 160,112 242,302 242,494 0,91 -20,180 -58,250 -65,119 -178,177 -310,177 -132,0 -244,-58 -308,-176 -39,-71 -58,-160 -58,-251 0,-191 82,-382 241,-494 -32,-8 -66,-12 -102,-12 -135,0 -259,94 -319,211 -41,78 -63,171 -63,268 0,137 47,306 176,374zm433 -783c-135,95 -204,273 -204,436 0,82 17,163 51,224 32,58 83,112 153,112 70,0 123,-55 154,-113 34,-62 52,-140 52,-223 -1,-164 -69,-340 -206,-436z"/>
 </g>
</svg>
