<?xml version="1.0" encoding="UTF-8"?>
<!DOCTYPE svg PUBLIC "-//W3C//DTD SVG 1.1//EN" "http://www.w3.org/Graphics/SVG/1.1/DTD/svg11.dtd">
<!-- Creator: CorelDRAW X8 -->
<svg xmlns="http://www.w3.org/2000/svg" xml:space="preserve" width="2803px" height="1486px" version="1.1" style="shape-rendering:geometricPrecision; text-rendering:geometricPrecision; image-rendering:optimizeQuality; fill-rule:evenodd; clip-rule:evenodd"
viewBox="0 0 2803 1486"
 xmlns:xlink="http://www.w3.org/1999/xlink">
 <defs>
  <style type="text/css">
   <![CDATA[
    .fil0 {fill:#434242;fill-rule:nonzero}
   ]]>
  </style>
 </defs>
 <g id="Layer_x0020_1">
  <metadata id="CorelCorpID_0Corel-Layer"/>
  <path class="fil0" d="M2645 1158c106,-145 158,-317 158,-496 0,-136 -32,-282 -105,-398 -105,-169 -293,-264 -490,-264 -76,0 -154,12 -226,38 -67,-24 -142,-38 -227,-38 -138,0 -287,29 -378,137 -91,-108 -239,-137 -378,-137 -80,-1 -151,12 -227,38 -72,-27 -151,-38 -227,-38 -195,0 -385,101 -476,276 -46,87 -69,188 -69,294 0,164 60,340 207,429 25,15 53,25 81,25 19,0 38,-5 55,-15 15,-9 22,-20 22,-31 0,-13 -9,-25 -26,-34 -130,-67 -176,-237 -176,-374 0,-97 21,-190 62,-268 61,-117 185,-211 320,-211 36,0 70,4 101,12 -158,112 -241,303 -241,494 0,91 19,181 58,251 65,118 177,176 308,176 132,0 245,-58 310,-177 39,-70 59,-158 59,-250 -1,-188 -83,-387 -242,-494 34,-8 68,-12 101,-12 178,1 297,119 297,301l0 586c0,25 37,45 81,45 45,0 82,-20 82,-45l0 -586c0,-181 119,-301 296,-301 36,0 70,4 102,12 -160,112 -242,302 -242,493 0,92 20,181 58,251 65,118 177,176 309,176 132,0 244,-57 309,-176 39,-71 58,-159 58,-251 0,-190 -81,-381 -241,-493 34,-8 66,-12 100,-12 142,0 260,92 335,205 70,106 98,235 98,366 0,149 -31,301 -104,432 -43,77 -99,146 -171,201 0,-53 -25,-87 -69,-115 -40,-26 -101,-39 -160,-39 -54,0 -115,11 -159,40 -44,-29 -105,-40 -158,-40 -60,0 -120,13 -160,39 -38,24 -69,62 -69,109 0,66 61,131 143,161 76,28 167,36 243,36 95,0 183,-11 264,-35 159,-46 293,-140 404,-293zm-663 -226c-71,0 -122,-53 -153,-111 -33,-62 -51,-142 -51,-225 0,-163 67,-339 204,-435 136,96 205,272 205,435 0,83 -17,162 -51,224 -32,58 -84,112 -154,112zm-1211 1c-70,0 -121,-53 -152,-111 -34,-62 -51,-142 -51,-225 0,-162 68,-340 204,-436 137,96 205,272 205,436 0,83 -17,162 -51,224 -32,58 -84,112 -155,112zm1206 475c-61,0 -137,-5 -193,-30 -37,-17 -65,-46 -65,-89 0,-51 58,-73 101,-73 57,-1 88,41 88,97 0,32 46,40 70,40 24,0 71,-9 71,-40 0,-56 31,-98 88,-97 45,1 100,22 100,75 0,42 -27,70 -65,87 -57,25 -133,30 -195,30z"/>
 </g>
</svg>
