<?xml version="1.0" encoding="UTF-8"?>
<!DOCTYPE svg PUBLIC "-//W3C//DTD SVG 1.1//EN" "http://www.w3.org/Graphics/SVG/1.1/DTD/svg11.dtd">
<!-- Creator: CorelDRAW X8 -->
<svg xmlns="http://www.w3.org/2000/svg" xml:space="preserve" width="2356px" height="1486px" version="1.1" style="shape-rendering:geometricPrecision; text-rendering:geometricPrecision; image-rendering:optimizeQuality; fill-rule:evenodd; clip-rule:evenodd"
viewBox="0 0 2356 1487"
 xmlns:xlink="http://www.w3.org/1999/xlink">
 <defs>
  <style type="text/css">
   <![CDATA[
    .fil0 {fill:#2B2A29;fill-rule:nonzero}
   ]]>
  </style>
 </defs>
 <g id="Layer_x0020_1">
  <metadata id="CorelCorpID_0Corel-Layer"/>
  <path class="fil0" d="M1823 91c159,0 319,77 319,179 0,52 -23,76 -76,76 -68,0 -138,-29 -212,-29 -41,0 -80,7 -117,29 -62,38 -87,102 -87,172 0,75 34,143 101,179 40,23 82,29 128,29 53,0 99,-14 151,-14 53,3 88,13 126,52 50,52 67,125 67,195 0,125 -53,291 -142,351 -2,-86 -120,-132 -195,-150 -53,-12 -115,-18 -189,-18 -81,0 -153,8 -208,22 -122,32 -183,90 -183,150 0,58 59,116 178,147 69,19 147,26 213,26 80,0 164,-9 239,-26 247,-56 420,-239 420,-502 0,-110 -36,-232 -121,-297 -45,-35 -100,-55 -161,-55 -52,0 -100,16 -152,16 -65,0 -126,-27 -126,-101 0,-64 42,-98 104,-98 64,0 126,24 194,24 110,0 197,-57 197,-178 0,-227 -285,-270 -468,-270 -146,0 -347,25 -440,140 -99,-111 -241,-140 -383,-140 -80,0 -152,11 -228,38 -71,-28 -152,-38 -229,-38 -195,0 -382,101 -474,276 -45,87 -69,188 -69,294 0,164 60,340 207,429 25,15 53,25 81,25 19,0 38,-4 55,-14 15,-10 22,-21 22,-32 0,-13 -9,-25 -26,-34 -132,-67 -176,-237 -176,-374 0,-97 21,-191 62,-269 61,-115 184,-210 318,-210 35,0 69,3 103,12 -158,112 -241,303 -241,494 0,91 20,180 58,251 65,118 177,176 308,176 133,0 245,-58 311,-177 42,-76 58,-164 58,-250 0,-188 -82,-387 -242,-494 34,-8 68,-12 102,-12 178,1 297,118 297,300l0 587c0,26 37,46 82,46 45,0 81,-20 81,-46l0 -592c0,-236 172,-295 363,-295zm-1052 842c-70,0 -121,-54 -152,-112 -34,-61 -51,-142 -51,-224 0,-163 68,-341 204,-436 138,96 206,272 206,436 0,82 -18,161 -52,223 -32,58 -85,113 -155,113zm926 469c-168,0 -242,-46 -242,-88 0,-46 83,-88 242,-88 157,0 236,44 236,88 0,44 -81,88 -236,88z"/>
 </g>
</svg>
