<?xml version="1.0" encoding="UTF-8"?>
<!DOCTYPE svg PUBLIC "-//W3C//DTD SVG 1.1//EN" "http://www.w3.org/Graphics/SVG/1.1/DTD/svg11.dtd">
<!-- Creator: CorelDRAW X8 -->
<svg xmlns="http://www.w3.org/2000/svg" xml:space="preserve" width="3035px" height="1486px" version="1.1" style="shape-rendering:geometricPrecision; text-rendering:geometricPrecision; image-rendering:optimizeQuality; fill-rule:evenodd; clip-rule:evenodd"
viewBox="0 0 3035 1486"
 xmlns:xlink="http://www.w3.org/1999/xlink">
 <defs>
  <style type="text/css">
   <![CDATA[
    .fil0 {fill:#CC6633;fill-rule:nonzero}
   ]]>
  </style>
 </defs>
 <g id="Layer_x0020_1">
  <metadata id="CorelCorpID_0Corel-Layer"/>
  <path class="fil0" d="M2769 990c-44,73 -102,140 -177,195 -135,100 -324,152 -522,180 -207,28 -425,31 -608,30 -331,-1 -650,-51 -888,-171 -267,-134 -412,-348 -411,-646 0,-193 69,-396 241,-501 14,-9 21,-20 21,-31 0,-12 -9,-25 -27,-34 -15,-8 -35,-12 -54,-12 -23,0 -45,6 -61,15 -196,122 -283,340 -283,563 0,333 169,565 466,714 269,136 627,193 996,194 192,1 423,-2 646,-33 232,-32 453,-94 614,-213 133,-99 219,-225 268,-366 31,-88 46,-191 45,-295 -1,-116 -23,-232 -68,-327 -51,-108 -138,-195 -251,-239 -17,-8 -39,-13 -60,-13 -23,0 -46,7 -63,21 -9,8 -14,17 -14,25 0,15 13,30 37,38 174,65 249,277 247,449 -2,160 -78,400 -270,400 -197,0 -202,-258 -202,-400 0,-101 0,-212 -35,-308 -54,-151 -192,-228 -348,-225 -110,3 -226,35 -297,124 -93,-97 -234,-124 -367,-124 -80,0 -152,12 -228,38 -70,-26 -152,-38 -227,-38 -196,-1 -383,100 -475,276 -46,87 -70,188 -70,294 1,164 60,340 207,429 25,15 53,25 81,25 19,0 38,-5 56,-15 14,-9 22,-21 21,-32 0,-12 -9,-24 -26,-33 -129,-67 -176,-237 -176,-374 0,-97 22,-190 63,-268 60,-117 184,-212 319,-211 36,0 70,4 102,12 -159,112 -241,303 -241,494 0,91 19,181 58,251 64,118 176,176 308,176 132,0 245,-58 310,-177 38,-70 58,-158 58,-250 0,-188 -83,-387 -242,-494 34,-8 68,-12 102,-12 179,1 297,118 297,300l0 587c0,25 36,46 81,46 45,0 82,-21 82,-46l0 -616c0,-134 49,-268 204,-271 90,-2 160,72 188,152 33,91 33,194 33,290 0,260 47,491 364,491 66,0 125,-12 176,-34zm-1653 -829c137,96 205,272 205,436 1,83 -17,161 -51,224 -31,58 -84,112 -154,112 -70,0 -121,-54 -153,-111 -34,-62 -51,-143 -51,-225 0,-162 69,-341 204,-436z"/>
 </g>
</svg>
