<?xml version="1.0" encoding="UTF-8"?>
<!DOCTYPE svg PUBLIC "-//W3C//DTD SVG 1.1//EN" "http://www.w3.org/Graphics/SVG/1.1/DTD/svg11.dtd">
<!-- Creator: CorelDRAW X8 -->
<svg xmlns="http://www.w3.org/2000/svg" xml:space="preserve" width="2333px" height="1485px" version="1.1" style="shape-rendering:geometricPrecision; text-rendering:geometricPrecision; image-rendering:optimizeQuality; fill-rule:evenodd; clip-rule:evenodd"
viewBox="0 0 2333 1486"
 xmlns:xlink="http://www.w3.org/1999/xlink">
 <defs>
  <style type="text/css">
   <![CDATA[
    .fil0 {fill:#2B2A29;fill-rule:nonzero}
   ]]>
  </style>
 </defs>
 <g id="Layer_x0020_1">
  <metadata id="CorelCorpID_0Corel-Layer"/>
  <path class="fil0" d="M2204 1486c45,0 81,-32 81,-70 0,-38 -36,-68 -81,-68l-1908 0c-65,0 -131,-8 -131,-88 0,-56 44,-80 131,-80l1646 0c289,0 391,-151 391,-304 0,-147 -105,-268 -254,-268 -54,0 -105,15 -157,15 -65,0 -126,-26 -126,-101 0,-67 42,-98 104,-98 63,0 126,24 194,24 111,0 196,-50 196,-171 0,-226 -287,-277 -470,-277 -144,0 -346,27 -437,140 -99,-111 -241,-140 -384,-140 -80,0 -152,12 -227,38 -72,-27 -152,-38 -229,-38 -195,0 -382,101 -474,276 -45,87 -69,188 -69,294 0,164 60,340 207,429 25,15 53,25 81,25 19,0 38,-5 55,-15 15,-9 22,-20 22,-31 0,-13 -9,-25 -26,-34 -130,-67 -176,-237 -176,-374 0,-97 21,-190 62,-268 61,-116 184,-211 318,-211 35,0 69,3 103,12 -158,112 -241,303 -241,494 0,91 20,180 58,251 65,118 177,176 308,176 132,0 245,-58 310,-177 39,-70 58,-159 58,-250 0,-188 -83,-387 -241,-494 33,-8 68,-12 101,-12 179,1 298,118 298,300l0 587c0,25 37,46 82,46 45,0 81,-21 81,-46l0 -592c0,-238 170,-295 360,-295 157,0 321,76 321,179 0,48 -22,75 -74,75 -69,0 -141,-28 -215,-28 -40,0 -79,7 -115,29 -63,38 -87,101 -87,172 0,72 34,144 100,178 38,20 72,29 115,29 47,0 90,-12 140,-12 101,0 171,59 171,163 0,102 -68,213 -231,213l-1649 0c-135,0 -296,31 -296,199 0,164 161,198 296,198l1908 0zm-1433 -553c-70,0 -121,-54 -152,-112 -34,-61 -51,-142 -51,-224 0,-163 68,-341 204,-436 137,96 205,272 205,436 0,83 -17,161 -51,224 -32,57 -85,112 -155,112z"/>
 </g>
</svg>
