<?xml version="1.0" encoding="UTF-8"?>
<!DOCTYPE svg PUBLIC "-//W3C//DTD SVG 1.1//EN" "http://www.w3.org/Graphics/SVG/1.1/DTD/svg11.dtd">
<!-- Creator: CorelDRAW X8 -->
<svg xmlns="http://www.w3.org/2000/svg" xml:space="preserve" width="2356px" height="1486px" version="1.1" style="shape-rendering:geometricPrecision; text-rendering:geometricPrecision; image-rendering:optimizeQuality; fill-rule:evenodd; clip-rule:evenodd"
viewBox="0 0 2356 1487"
 xmlns:xlink="http://www.w3.org/1999/xlink">
 <defs>
  <style type="text/css">
   <![CDATA[
    .fil0 {fill:#2B2A29;fill-rule:nonzero}
   ]]>
  </style>
 </defs>
 <g id="Layer_x0020_1">
  <metadata id="CorelCorpID_0Corel-Layer"/>
  <path class="fil0" d="M1697 1487c80,0 164,-9 239,-26 247,-56 420,-239 420,-502 0,-110 -36,-232 -121,-297 -45,-35 -100,-55 -161,-55 -51,0 -101,16 -153,16 -65,0 -125,-26 -125,-101 0,-66 41,-98 104,-98 64,0 126,24 194,24 111,0 196,-49 196,-170 0,-105 -63,-175 -149,-218 -97,-48 -221,-60 -328,-60 -139,1 -337,25 -430,140 -99,-111 -241,-140 -383,-140 -80,0 -152,11 -228,38 -71,-28 -152,-38 -229,-38 -195,0 -382,101 -474,276 -45,87 -69,188 -69,294 0,164 60,340 207,429 25,15 53,25 81,25 19,0 38,-4 55,-14 15,-10 22,-21 22,-32 0,-13 -9,-25 -26,-34 -132,-67 -176,-237 -176,-374 0,-97 21,-191 62,-269 61,-115 184,-210 318,-210 35,0 69,3 103,12 -158,112 -241,303 -241,494 0,91 20,180 58,251 65,118 177,176 308,176 133,0 245,-58 311,-177 42,-76 58,-164 58,-250 0,-188 -82,-387 -242,-494 34,-8 68,-12 102,-12 178,1 297,118 297,300l0 587c0,26 37,46 82,46 45,0 81,-20 81,-46l0 -592c0,-228 156,-294 353,-294 83,0 182,5 254,51 45,29 74,71 74,123 0,50 -20,79 -74,79 -69,0 -140,-28 -213,-28 -41,0 -81,8 -120,32 -62,37 -84,100 -84,169 0,72 34,145 100,179 45,23 83,30 120,30 53,0 101,-15 160,-15 53,3 88,13 126,52 50,52 67,125 67,195 0,125 -53,291 -142,351 -2,-86 -120,-132 -195,-150 -53,-12 -115,-18 -189,-18 -81,0 -153,8 -208,22 -122,32 -183,90 -183,150 0,58 59,116 178,147 69,19 147,26 213,26zm-926 -554c-70,0 -121,-54 -152,-112 -34,-61 -51,-142 -51,-224 0,-163 68,-341 204,-436 138,96 206,272 206,436 0,82 -18,161 -52,223 -32,58 -85,113 -155,113zm926 469c-168,0 -242,-46 -242,-88 0,-46 83,-88 242,-88 157,0 236,44 236,88 0,44 -81,88 -236,88z"/>
 </g>
</svg>
