<?xml version="1.0" encoding="UTF-8"?>
<!DOCTYPE svg PUBLIC "-//W3C//DTD SVG 1.1//EN" "http://www.w3.org/Graphics/SVG/1.1/DTD/svg11.dtd">
<!-- Creator: CorelDRAW X8 -->
<svg xmlns="http://www.w3.org/2000/svg" xml:space="preserve" width="3123px" height="1486px" version="1.1" style="shape-rendering:geometricPrecision; text-rendering:geometricPrecision; image-rendering:optimizeQuality; fill-rule:evenodd; clip-rule:evenodd"
viewBox="0 0 3123 1486"
 xmlns:xlink="http://www.w3.org/1999/xlink">
 <defs>
  <style type="text/css">
   <![CDATA[
    .fil0 {fill:#CC6633;fill-rule:nonzero}
   ]]>
  </style>
 </defs>
 <g id="Layer_x0020_1">
  <metadata id="CorelCorpID_0Corel-Layer"/>
  <path class="fil0" d="M2104 1c85,-1 160,13 226,37 68,-25 145,-37 217,-38 176,-1 343,68 454,209 84,107 121,248 122,387 1,322 -152,532 -374,668 -310,189 -739,219 -1097,222 -372,3 -834,-23 -1170,-187 -302,-147 -482,-384 -482,-723 1,-227 93,-442 293,-561 16,-10 38,-15 59,-15 20,0 41,4 56,13 17,9 26,21 26,33 0,11 -7,22 -22,31 -174,104 -248,304 -249,499 -1,284 134,492 374,627 309,174 762,195 1115,192 323,-3 736,-28 1010,-213 180,-122 297,-307 298,-586 0,-117 -28,-234 -92,-327 -76,-109 -189,-179 -321,-178 -29,0 -62,5 -90,12 159,112 241,303 241,494 0,91 -20,179 -58,250 -65,119 -178,176 -310,176 -131,0 -244,-57 -308,-175 -39,-71 -58,-160 -58,-251 0,-192 81,-382 241,-494 -31,-7 -65,-12 -101,-12 -181,1 -297,120 -297,301l0 586c0,25 -36,46 -81,46 -45,0 -81,-21 -81,-46l0 -586c0,-181 -120,-299 -297,-301 -34,0 -68,5 -102,13 159,106 242,306 242,493 0,92 -19,180 -58,251 -65,119 -178,176 -310,176 -132,0 -244,-57 -308,-176 -39,-70 -58,-160 -58,-251 0,-190 82,-382 241,-493 -32,-8 -66,-13 -102,-13 -135,0 -259,95 -319,211 -41,78 -63,172 -63,268 0,138 47,307 177,375 17,9 26,21 26,33 0,11 -8,22 -22,31 -18,11 -36,15 -55,15 -29,0 -57,-10 -82,-25 -147,-89 -206,-264 -206,-429 -1,-105 24,-207 69,-293 92,-177 279,-277 475,-277 75,1 158,12 228,39 75,-27 147,-39 227,-38 138,0 287,28 378,136 91,-108 239,-136 378,-136zm226 160c-137,96 -204,272 -204,436 0,82 17,162 51,224 32,58 83,111 153,111 70,0 123,-54 154,-112 34,-62 52,-141 52,-223 0,-163 -69,-340 -206,-436zm-1210 0c-135,96 -204,274 -204,436 0,83 17,163 51,225 32,58 83,111 153,111 70,0 123,-54 154,-112 35,-62 52,-141 52,-224 0,-164 -69,-340 -206,-436z"/>
 </g>
</svg>
