<?xml version="1.0" encoding="UTF-8"?>
<!DOCTYPE svg PUBLIC "-//W3C//DTD SVG 1.1//EN" "http://www.w3.org/Graphics/SVG/1.1/DTD/svg11.dtd">
<!-- Creator: CorelDRAW X8 -->
<svg xmlns="http://www.w3.org/2000/svg" xml:space="preserve" width="2658px" height="1486px" version="1.1" style="shape-rendering:geometricPrecision; text-rendering:geometricPrecision; image-rendering:optimizeQuality; fill-rule:evenodd; clip-rule:evenodd"
viewBox="0 0 2658 1486"
 xmlns:xlink="http://www.w3.org/1999/xlink">
 <defs>
  <style type="text/css">
   <![CDATA[
    .fil0 {fill:#009846;fill-rule:nonzero}
   ]]>
  </style>
 </defs>
 <g id="Layer_x0020_1">
  <metadata id="CorelCorpID_0Corel-Layer"/>
  <path class="fil0" d="M1643 978l0 -587c0,-182 -119,-299 -297,-300 -34,0 -68,4 -102,12 159,107 242,306 242,494 0,91 -20,179 -58,250 -66,119 -178,177 -310,177 -132,0 -244,-58 -308,-176 -39,-71 -58,-160 -58,-251 0,-191 82,-382 240,-494 -31,-8 -65,-12 -101,-12 -135,-1 -259,94 -320,210 -40,78 -62,172 -62,269 0,137 47,307 176,374 32,17 36,46 4,65 -43,26 -95,15 -136,-10 -147,-89 -207,-265 -207,-429 0,-106 24,-207 69,-294 92,-176 280,-277 476,-276 75,0 157,11 227,38 76,-27 148,-38 228,-38 143,0 284,29 383,140 92,-115 293,-140 432,-140 94,-1 225,11 325,60 89,44 153,116 149,225 -4,145 -134,176 -253,159 -50,-7 -122,-29 -173,-16 -48,11 -70,54 -68,96 2,39 25,79 67,91 80,24 168,-14 249,-10 109,5 194,83 195,192 0,79 -41,127 -99,156 60,34 105,88 105,166 0,140 -123,225 -290,278 -191,61 -507,88 -830,89 -359,1 -725,-30 -936,-103 -374,-129 -604,-412 -602,-811 1,-226 92,-438 292,-558 31,-18 83,-18 115,-2 31,17 35,46 3,65 -173,103 -246,301 -247,495 -3,353 189,618 525,734 177,61 519,90 850,89 319,-1 627,-28 792,-95 98,-40 165,-98 165,-181 0,-78 -61,-120 -134,-120l-254 0c-45,0 -81,-21 -81,-46 0,-25 36,-46 81,-46l201 0c84,0 186,-12 185,-110 0,-40 -29,-69 -68,-82 -90,-30 -188,55 -330,-18 -64,-33 -98,-103 -100,-173 -3,-80 29,-141 84,-175 96,-60 203,-20 305,-6 52,8 94,-3 101,-58 9,-60 -22,-110 -73,-142 -69,-44 -165,-51 -245,-51 -204,-2 -361,63 -361,294l0 592c0,25 -37,46 -82,46 -45,0 -81,-21 -81,-46zm-525 -817c-136,95 -204,273 -204,436 0,82 17,163 51,224 32,58 82,112 153,112 70,0 122,-55 154,-113 34,-62 51,-141 51,-223 0,-164 -68,-340 -205,-436z"/>
 </g>
</svg>
