<?xml version="1.0" encoding="UTF-8"?>
<!DOCTYPE svg PUBLIC "-//W3C//DTD SVG 1.1//EN" "http://www.w3.org/Graphics/SVG/1.1/DTD/svg11.dtd">
<!-- Creator: CorelDRAW X8 -->
<svg xmlns="http://www.w3.org/2000/svg" xml:space="preserve" width="981px" height="868px" version="1.1" style="shape-rendering:geometricPrecision; text-rendering:geometricPrecision; image-rendering:optimizeQuality; fill-rule:evenodd; clip-rule:evenodd"
viewBox="0 0 981 868"
 xmlns:xlink="http://www.w3.org/1999/xlink">
 <defs>
  <style type="text/css">
   <![CDATA[
    .fil0 {fill:#2B2A29;fill-rule:nonzero}
   ]]>
  </style>
 </defs>
 <g id="Layer_x0020_1">
  <metadata id="CorelCorpID_0Corel-Layer"/>
  <path class="fil0" d="M756 795c48,-29 92,-69 130,-119 62,-84 95,-181 95,-285 0,-80 -20,-168 -63,-235 -67,-104 -186,-156 -307,-156 -46,0 -92,6 -135,20 -44,-14 -82,-20 -127,-20 -121,0 -249,54 -307,163 -28,52 -42,111 -42,171 0,97 37,198 125,250 17,10 39,16 61,16 15,0 31,-3 44,-11 10,-5 14,-12 14,-19 0,-7 -6,-15 -17,-21 -76,-38 -104,-136 -104,-215 0,-54 12,-109 37,-156 39,-72 106,-118 189,-118 13,0 25,1 37,4 -93,64 -143,174 -143,285 0,50 11,103 35,146 42,74 115,105 197,105 83,0 157,-31 199,-105 24,-44 35,-96 35,-146 0,-112 -50,-220 -143,-285 15,-4 31,-5 45,-5 78,2 144,50 189,116 43,64 59,141 59,216 -1,85 -20,172 -63,246 -22,39 -50,73 -84,102 -19,-37 -77,-57 -115,-65 -40,-9 -81,-12 -121,-12 -44,0 -91,3 -134,14 -41,10 -113,37 -113,88 0,51 70,79 110,89 39,10 96,15 137,15 45,0 87,-4 127,-12 53,-11 103,-31 153,-61zm-281 -254c-28,0 -56,-21 -79,-62 -22,-38 -30,-86 -30,-130 0,-90 37,-187 110,-243 73,56 110,152 110,243 0,44 -8,91 -30,130 -24,41 -52,62 -81,62zm1 272c-31,0 -68,-3 -96,-13 -15,-6 -37,-18 -37,-36 0,-17 23,-29 37,-34 29,-11 65,-13 96,-13 27,0 54,2 80,9 17,5 49,17 49,38 0,22 -33,35 -50,40 -25,7 -53,9 -79,9z"/>
 </g>
</svg>
