<?xml version="1.0" encoding="UTF-8"?>
<!DOCTYPE svg PUBLIC "-//W3C//DTD SVG 1.1//EN" "http://www.w3.org/Graphics/SVG/1.1/DTD/svg11.dtd">
<!-- Creator: CorelDRAW X8 -->
<svg xmlns="http://www.w3.org/2000/svg" xml:space="preserve" width="981px" height="868px" version="1.1" style="shape-rendering:geometricPrecision; text-rendering:geometricPrecision; image-rendering:optimizeQuality; fill-rule:evenodd; clip-rule:evenodd"
viewBox="0 0 981 869"
 xmlns:xlink="http://www.w3.org/1999/xlink">
 <defs>
  <style type="text/css">
   <![CDATA[
    .fil0 {fill:#669933;fill-rule:nonzero}
   ]]>
  </style>
 </defs>
 <g id="Layer_x0020_1">
  <metadata id="CorelCorpID_0Corel-Layer"/>
  <path class="fil0" d="M476 106c-49,38 -81,93 -98,152 -8,30 -12,60 -12,91 0,44 8,92 30,130 23,41 51,62 79,62 29,1 57,-21 81,-62 22,-39 30,-86 30,-130 0,-30 -4,-61 -12,-91 -17,-59 -49,-114 -98,-152zm0 -86c43,-14 90,-20 136,-20 121,0 239,52 306,156 45,69 64,150 63,232 -2,103 -33,205 -95,288 -38,51 -82,90 -130,120 -48,30 -102,49 -161,61 -39,7 -79,11 -119,12 -44,0 -94,-4 -137,-16 -40,-10 -110,-38 -110,-88 0,-51 72,-79 113,-89 43,-10 90,-14 134,-14 40,0 81,3 121,12 38,9 96,29 115,65 34,-28 62,-63 85,-101 42,-74 61,-162 62,-247 0,-75 -16,-152 -59,-215 -45,-66 -111,-115 -189,-117 -14,0 -30,2 -45,5 65,45 108,110 129,186 9,32 14,66 14,99 0,50 -10,103 -35,146 -42,75 -116,105 -199,105 -82,0 -155,-30 -197,-104 -24,-44 -35,-97 -35,-147 0,-33 5,-67 14,-99 21,-75 64,-141 129,-186 -16,-3 -32,-5 -48,-4 -75,3 -141,50 -178,119 -25,47 -37,102 -38,155 0,80 29,177 105,216 20,10 24,28 3,40 -31,18 -75,11 -105,-6 -88,-51 -125,-152 -125,-250 0,-59 13,-119 42,-171 58,-109 177,-163 298,-163 45,0 92,6 136,20zm0 697c-31,0 -67,3 -96,13 -14,6 -37,17 -37,35 0,18 22,30 37,35 28,11 65,13 96,13 26,0 54,-2 79,-9 17,-5 50,-17 50,-39 0,-21 -32,-34 -49,-39 -26,-7 -53,-9 -80,-9z"/>
 </g>
</svg>
