<?xml version="1.0" encoding="UTF-8"?>
<!DOCTYPE svg PUBLIC "-//W3C//DTD SVG 1.1//EN" "http://www.w3.org/Graphics/SVG/1.1/DTD/svg11.dtd">
<!-- Creator: CorelDRAW X8 -->
<svg xmlns="http://www.w3.org/2000/svg" xml:space="preserve" width="3714px" height="1024px" version="1.1" style="shape-rendering:geometricPrecision; text-rendering:geometricPrecision; image-rendering:optimizeQuality; fill-rule:evenodd; clip-rule:evenodd"
viewBox="0 0 3714 1024"
 xmlns:xlink="http://www.w3.org/1999/xlink">
 <defs>
  <style type="text/css">
   <![CDATA[
    .fil0 {fill:#009846;fill-rule:nonzero}
   ]]>
  </style>
 </defs>
 <g id="Layer_x0020_1">
  <metadata id="CorelCorpID_0Corel-Layer"/>
  <path class="fil0" d="M1296 978l0 -587c0,-183 -115,-299 -297,-300 -33,0 -68,4 -102,12 159,107 242,306 242,494 0,92 -19,180 -58,250 -65,119 -178,177 -310,177 -131,0 -243,-58 -308,-176 -38,-70 -58,-160 -58,-251 0,-191 83,-382 241,-494 -32,-8 -65,-12 -101,-12 -135,0 -259,94 -320,211 -41,78 -63,171 -63,268 0,137 47,307 177,374 31,17 36,46 4,65 -43,26 -95,15 -136,-10 -147,-89 -207,-265 -207,-429 0,-105 24,-207 69,-294 92,-176 279,-277 476,-276 74,0 157,12 227,38 75,-26 147,-38 227,-38 133,1 274,27 368,124 70,-89 187,-121 297,-124 155,-3 294,74 348,225 34,96 34,195 34,297 0,141 5,387 202,387 192,0 268,-228 270,-387 2,-173 -73,-373 -247,-438 -29,-10 -52,-38 -23,-63 35,-29 84,-24 124,-8 211,84 312,289 309,509 -3,157 -55,299 -159,387l316 0 0 -516c0,-263 212,-392 431,-392 218,0 445,143 445,398l0 555c0,35 -55,46 -81,46l-1385 0c-313,0 -364,-214 -364,-478 0,-97 1,-187 -32,-279 -29,-80 -98,-154 -188,-152 -156,3 -205,137 -205,271l0 616c0,25 -36,46 -81,46 -45,0 -82,-21 -82,-46zm1704 -585l0 516 552 0 0 -510c0,-200 -147,-307 -285,-307 -137,0 -267,96 -267,301zm-2229 -232c-135,96 -204,274 -203,436 0,83 17,163 50,225 32,58 83,111 153,111 70,0 123,-54 155,-112 34,-62 51,-141 51,-224 0,-164 -68,-340 -206,-436z"/>
 </g>
</svg>
