<?xml version="1.0" encoding="UTF-8"?>
<!DOCTYPE svg PUBLIC "-//W3C//DTD SVG 1.1//EN" "http://www.w3.org/Graphics/SVG/1.1/DTD/svg11.dtd">
<!-- Creator: CorelDRAW X8 -->
<svg xmlns="http://www.w3.org/2000/svg" xml:space="preserve" width="2849px" height="1486px" version="1.1" style="shape-rendering:geometricPrecision; text-rendering:geometricPrecision; image-rendering:optimizeQuality; fill-rule:evenodd; clip-rule:evenodd"
viewBox="0 0 2849 1487"
 xmlns:xlink="http://www.w3.org/1999/xlink">
 <defs>
  <style type="text/css">
   <![CDATA[
    .fil0 {fill:#2B2A29;fill-rule:nonzero}
   ]]>
  </style>
 </defs>
 <g id="Layer_x0020_1">
  <metadata id="CorelCorpID_0Corel-Layer"/>
  <path class="fil0" d="M2720 1487c45,0 82,-31 82,-71 0,-38 -37,-69 -82,-69l-2424 0c-64,0 -131,-7 -131,-86 0,-56 44,-82 131,-82l2063 0c178,0 311,-41 403,-140 54,-58 87,-137 87,-238 0,-115 -57,-217 -160,-272 70,-44 111,-119 111,-202 0,-106 -65,-194 -157,-248 -103,-60 -235,-79 -349,-79 -100,0 -205,9 -301,42 -75,-30 -156,-42 -237,-42 -138,0 -286,29 -377,137 -92,-109 -241,-137 -379,-137 -80,0 -152,12 -227,38 -72,-27 -153,-38 -230,-38 -195,0 -381,101 -473,276 -45,87 -69,188 -69,294 0,164 60,340 206,429 25,15 53,25 82,25 19,0 38,-5 55,-15 15,-9 22,-20 22,-31 0,-13 -9,-25 -26,-34 -130,-67 -177,-237 -177,-374 0,-97 22,-190 63,-269 61,-115 183,-210 317,-210 36,0 70,4 104,12 -159,112 -241,303 -241,494 0,91 19,180 58,251 65,118 176,176 308,176 132,0 245,-58 310,-177 38,-70 58,-159 58,-250 0,-188 -83,-387 -242,-494 34,-8 68,-12 102,-12 179,1 297,118 297,301l0 586c0,25 36,45 82,45 45,0 81,-20 81,-45l0 -586c0,-182 114,-301 296,-301 36,0 70,4 102,12 -160,112 -241,302 -241,493 0,91 19,181 58,251 64,118 177,175 308,175 132,0 244,-57 309,-176 39,-70 59,-158 59,-250 0,-194 -88,-378 -238,-488 57,-14 121,-17 181,-17 77,0 166,13 232,51 66,39 111,108 111,185 0,76 -45,159 -130,159 -27,0 -87,10 -87,46 0,37 60,45 87,45 58,1 102,30 132,72 32,43 48,99 48,152 0,68 -19,124 -51,168 -57,79 -157,120 -273,120l-2067 0c-136,0 -296,32 -296,199 0,164 161,199 296,199l2424 0zm-737 -556c-72,0 -121,-52 -153,-110 -34,-62 -51,-142 -51,-225 0,-163 67,-339 204,-435 136,95 205,272 205,435 0,83 -17,162 -51,224 -32,58 -84,111 -154,111zm-1211 2c-70,0 -121,-54 -153,-112 -34,-61 -51,-142 -51,-224 0,-163 69,-341 204,-436 137,96 206,272 206,436 0,83 -17,161 -52,223 -31,58 -84,113 -154,113z"/>
 </g>
</svg>
