<?xml version="1.0" encoding="UTF-8"?>
<!DOCTYPE svg PUBLIC "-//W3C//DTD SVG 1.1//EN" "http://www.w3.org/Graphics/SVG/1.1/DTD/svg11.dtd">
<!-- Creator: CorelDRAW X8 -->
<svg xmlns="http://www.w3.org/2000/svg" xml:space="preserve" width="2309px" height="1024px" version="1.1" style="shape-rendering:geometricPrecision; text-rendering:geometricPrecision; image-rendering:optimizeQuality; fill-rule:evenodd; clip-rule:evenodd"
viewBox="0 0 2309 1024"
 xmlns:xlink="http://www.w3.org/1999/xlink">
 <defs>
  <style type="text/css">
   <![CDATA[
    .fil0 {fill:#009846;fill-rule:nonzero}
   ]]>
  </style>
 </defs>
 <g id="Layer_x0020_1">
  <metadata id="CorelCorpID_0Corel-Layer"/>
  <path class="fil0" d="M1690 909l456 0 0 -481c0,-109 -39,-193 -104,-251 -47,-43 -108,-70 -175,-81 92,57 133,155 134,266 1,66 -13,135 -39,203 -48,127 -139,253 -272,344zm-394 -518c0,-181 -120,-299 -297,-300 -33,0 -68,4 -102,12 159,107 242,306 242,494 0,92 -19,180 -58,250 -65,119 -178,177 -310,177 -131,0 -243,-58 -308,-176 -38,-70 -58,-160 -58,-251 0,-191 83,-382 241,-494 -32,-8 -65,-12 -101,-12 -135,0 -259,94 -320,211 -41,78 -63,171 -63,268 0,137 47,307 177,374 31,17 36,46 4,65 -43,26 -95,15 -136,-10 -147,-89 -207,-265 -207,-429 0,-106 24,-207 69,-294 92,-176 279,-277 476,-276 74,0 157,12 227,38 75,-26 147,-38 227,-38 147,1 305,33 396,158 102,-112 260,-158 408,-158 150,0 284,45 377,129 80,71 129,173 129,299l0 526c0,26 -36,46 -81,46l-850 0c-45,0 -82,-20 -82,-46l0 -563zm266 -214c-63,57 -103,141 -103,251l0 480c150,-63 280,-198 342,-354 25,-61 38,-125 39,-189 1,-101 -42,-241 -165,-237 -39,1 -79,19 -113,49zm-791 -16c-135,96 -204,274 -203,436 0,83 17,163 50,225 32,58 83,111 153,111 70,0 123,-54 155,-112 34,-63 51,-141 51,-224 0,-164 -68,-340 -206,-436z"/>
 </g>
</svg>
