<?xml version="1.0" encoding="UTF-8"?>
<!DOCTYPE svg PUBLIC "-//W3C//DTD SVG 1.1//EN" "http://www.w3.org/Graphics/SVG/1.1/DTD/svg11.dtd">
<!-- Creator: CorelDRAW X8 -->
<svg xmlns="http://www.w3.org/2000/svg" xml:space="preserve" width="3035px" height="1486px" version="1.1" style="shape-rendering:geometricPrecision; text-rendering:geometricPrecision; image-rendering:optimizeQuality; fill-rule:evenodd; clip-rule:evenodd"
viewBox="0 0 3035 1486"
 xmlns:xlink="http://www.w3.org/1999/xlink">
 <defs>
  <style type="text/css">
   <![CDATA[
    .fil0 {fill:#434242;fill-rule:nonzero}
   ]]>
  </style>
 </defs>
 <g id="Layer_x0020_1">
  <metadata id="CorelCorpID_0Corel-Layer"/>
  <path class="fil0" d="M2108 1453c232,-32 453,-94 614,-213 134,-99 219,-225 268,-366 33,-95 46,-195 45,-295 0,-116 -23,-232 -68,-327 -51,-108 -138,-195 -251,-239 -19,-8 -40,-13 -61,-13 -23,0 -44,6 -62,21 -10,8 -14,17 -14,25 0,16 17,30 37,38 172,64 247,272 247,442 0,159 -74,407 -270,407 -197,0 -202,-258 -202,-400 0,-101 0,-212 -35,-308 -53,-148 -192,-225 -344,-225 -112,0 -229,33 -301,124 -93,-97 -234,-124 -367,-124 -80,0 -152,12 -228,38 -70,-26 -154,-38 -229,-38 -197,0 -380,99 -473,276 -46,87 -71,188 -70,294 0,164 60,340 207,429 25,15 53,25 81,25 19,0 38,-4 56,-15 14,-8 21,-20 21,-31 0,-12 -9,-25 -26,-34 -129,-67 -176,-237 -176,-374 0,-97 22,-190 63,-268 60,-116 183,-211 317,-211 35,0 70,3 104,12 -159,112 -241,303 -241,494 0,91 19,181 58,251 64,118 176,176 308,176 132,0 245,-58 310,-177 38,-70 58,-158 58,-250 0,-188 -83,-387 -242,-494 34,-8 68,-12 102,-12 179,1 297,118 297,300l0 587c0,25 36,46 81,46 45,0 82,-21 82,-46l0 -616c0,-135 51,-271 208,-271 88,0 156,73 184,152 33,91 33,194 33,290 0,260 47,491 364,491 66,0 125,-12 176,-34 -44,73 -102,140 -177,195 -135,100 -324,153 -522,180 -202,28 -404,31 -608,30 -331,-1 -650,-51 -888,-171 -266,-134 -411,-345 -411,-646 0,-193 69,-396 241,-501 14,-9 21,-20 21,-31 0,-13 -10,-26 -27,-34 -16,-8 -35,-12 -54,-12 -22,0 -45,4 -61,15 -196,122 -283,340 -283,563 0,333 169,565 466,714 269,135 627,194 996,194 217,1 431,-3 646,-33zm-992 -520c-70,0 -121,-54 -153,-111 -34,-62 -51,-143 -51,-225 0,-162 69,-341 204,-436 137,96 205,272 205,436 0,78 -14,155 -51,224 -31,58 -84,112 -154,112z"/>
 </g>
</svg>
