<?xml version="1.0" encoding="UTF-8"?>
<!DOCTYPE svg PUBLIC "-//W3C//DTD SVG 1.1//EN" "http://www.w3.org/Graphics/SVG/1.1/DTD/svg11.dtd">
<!-- Creator: CorelDRAW X8 -->
<svg xmlns="http://www.w3.org/2000/svg" xml:space="preserve" width="2803px" height="1486px" version="1.1" style="shape-rendering:geometricPrecision; text-rendering:geometricPrecision; image-rendering:optimizeQuality; fill-rule:evenodd; clip-rule:evenodd"
viewBox="0 0 2803 1486"
 xmlns:xlink="http://www.w3.org/1999/xlink">
 <defs>
  <style type="text/css">
   <![CDATA[
    .fil0 {fill:#CC6633;fill-rule:nonzero}
   ]]>
  </style>
 </defs>
 <g id="Layer_x0020_1">
  <metadata id="CorelCorpID_0Corel-Layer"/>
  <path class="fil0" d="M1982 1225c-77,0 -137,10 -177,25 -43,17 -65,40 -65,63 -1,23 21,47 64,64 40,15 101,25 178,25 62,0 110,-7 148,-18 59,-17 88,-44 88,-71 -1,-27 -29,-53 -86,-70 -39,-11 -87,-18 -150,-18zm-227 -1225c85,0 160,14 227,38 72,-27 150,-38 227,-38 196,0 384,95 489,265 75,119 107,259 105,398 -3,178 -55,353 -158,496 -127,174 -287,270 -478,308 -59,12 -121,18 -185,19 -67,1 -149,-7 -213,-24 -119,-32 -178,-91 -178,-149 0,-59 61,-118 183,-149 55,-14 126,-23 208,-23 74,0 135,7 188,20 72,16 180,58 195,135 72,-55 129,-124 172,-201 71,-128 103,-279 104,-426 1,-133 -27,-264 -98,-372 -75,-114 -193,-206 -334,-206 -35,0 -67,4 -101,12 160,112 241,302 241,493 0,92 -19,180 -58,251 -65,118 -177,175 -309,176 -132,0 -244,-58 -309,-176 -38,-70 -58,-159 -58,-251 0,-191 82,-381 242,-493 -32,-8 -66,-12 -102,-12 -179,0 -296,120 -296,301l0 586c0,25 -37,45 -82,45 -44,0 -81,-20 -81,-45l0 -586c0,-182 -119,-300 -297,-301 -33,0 -67,4 -101,12 159,107 241,306 242,494 0,92 -20,180 -59,250 -65,119 -178,177 -310,177 -131,0 -243,-58 -308,-176 -38,-70 -58,-160 -58,-251 0,-191 83,-382 241,-494 -31,-8 -65,-12 -101,-12 -135,-1 -259,94 -320,211 -41,78 -62,171 -62,268 0,137 46,307 176,374 33,18 35,46 4,65 -43,26 -95,15 -136,-10 -147,-89 -207,-265 -207,-429 0,-106 24,-207 69,-294 92,-176 280,-277 476,-276 74,0 157,12 227,38 76,-26 147,-38 227,-38 139,0 287,28 378,137 91,-108 240,-137 378,-137zm227 161c-137,96 -204,272 -204,435 0,83 17,163 51,225 31,58 82,111 153,111 70,0 122,-54 154,-112 34,-62 51,-141 51,-224 0,-163 -69,-339 -205,-435zm-1210 0c-136,95 -204,274 -204,436 0,82 17,163 51,225 31,58 82,111 152,111 71,0 123,-54 155,-112 34,-63 51,-141 51,-224 0,-164 -68,-340 -205,-436z"/>
 </g>
</svg>
