<?xml version="1.0" encoding="UTF-8"?>
<!DOCTYPE svg PUBLIC "-//W3C//DTD SVG 1.1//EN" "http://www.w3.org/Graphics/SVG/1.1/DTD/svg11.dtd">
<!-- Creator: CorelDRAW X8 -->
<svg xmlns="http://www.w3.org/2000/svg" xml:space="preserve" width="2770px" height="1486px" version="1.1" style="shape-rendering:geometricPrecision; text-rendering:geometricPrecision; image-rendering:optimizeQuality; fill-rule:evenodd; clip-rule:evenodd"
viewBox="0 0 2770 1486"
 xmlns:xlink="http://www.w3.org/1999/xlink">
 <defs>
  <style type="text/css">
   <![CDATA[
    .fil0 {fill:#CC6633;fill-rule:nonzero}
   ]]>
  </style>
 </defs>
 <g id="Layer_x0020_1">
  <metadata id="CorelCorpID_0Corel-Layer"/>
  <path class="fil0" d="M1755 0c85,0 160,13 226,38 73,-27 151,-38 228,-38 150,0 295,57 399,166 115,120 169,290 161,459 -6,146 -62,290 -170,397 -128,126 -299,158 -473,158l-1830 0c-90,0 -133,26 -132,85 2,63 46,83 132,83l2353 0c45,0 82,31 82,69 0,38 -37,69 -82,69l-2353 0c-137,0 -300,-35 -296,-204 2,-123 94,-193 296,-193l1870 0c111,0 211,-33 291,-112 95,-94 144,-222 150,-354 6,-130 -30,-269 -109,-374 -68,-91 -172,-158 -289,-158 -34,0 -68,4 -101,12 160,112 241,302 241,493 0,92 -19,180 -58,251 -65,118 -177,175 -310,175 -131,0 -243,-57 -308,-175 -38,-70 -58,-160 -58,-251 0,-191 82,-381 242,-493 -32,-8 -66,-12 -102,-12 -182,0 -297,119 -297,301l0 586c0,25 -36,45 -81,45 -44,0 -81,-20 -81,-45l0 -586c0,-183 -118,-300 -297,-301 -33,0 -67,4 -101,12 158,107 241,306 241,494 0,91 -19,180 -58,250 -65,119 -178,177 -310,177 -131,0 -243,-58 -308,-176 -38,-71 -58,-160 -58,-251 0,-191 83,-382 241,-494 -31,-8 -65,-12 -101,-12 -135,-1 -259,94 -320,210 -41,79 -62,172 -62,269 -1,137 46,307 176,374 17,9 26,21 26,33 0,12 -7,23 -22,32 -17,10 -36,15 -55,15 -28,0 -57,-10 -81,-25 -147,-89 -207,-265 -207,-429 0,-106 24,-207 69,-294 92,-176 280,-277 476,-276 74,0 157,11 227,38 75,-27 147,-38 227,-38 139,0 287,28 378,137 91,-109 240,-137 378,-137zm226 161c-137,96 -204,272 -203,435 0,83 17,163 50,225 32,58 83,111 153,111 71,0 123,-54 155,-112 34,-62 51,-141 51,-224 0,-163 -69,-340 -206,-435zm-1209 0c-136,95 -204,273 -204,436 0,82 17,163 51,224 31,58 82,112 152,112 70,0 123,-55 155,-112 34,-63 51,-141 51,-224 0,-164 -68,-340 -205,-436z"/>
 </g>
</svg>
