<?xml version="1.0" encoding="UTF-8"?>
<!DOCTYPE svg PUBLIC "-//W3C//DTD SVG 1.1//EN" "http://www.w3.org/Graphics/SVG/1.1/DTD/svg11.dtd">
<!-- Creator: CorelDRAW X8 -->
<svg xmlns="http://www.w3.org/2000/svg" xml:space="preserve" width="2804px" height="1486px" version="1.1" style="shape-rendering:geometricPrecision; text-rendering:geometricPrecision; image-rendering:optimizeQuality; fill-rule:evenodd; clip-rule:evenodd"
viewBox="0 0 2804 1487"
 xmlns:xlink="http://www.w3.org/1999/xlink">
 <defs>
  <style type="text/css">
   <![CDATA[
    .fil0 {fill:#2B2A29;fill-rule:nonzero}
   ]]>
  </style>
 </defs>
 <g id="Layer_x0020_1">
  <metadata id="CorelCorpID_0Corel-Layer"/>
  <path class="fil0" d="M2646 1158c106,-145 158,-317 158,-496 0,-136 -32,-282 -105,-398 -104,-168 -292,-264 -488,-264 -78,0 -155,10 -228,38 -67,-25 -142,-38 -227,-38 -139,0 -287,28 -379,137 -90,-109 -239,-137 -378,-137 -80,0 -151,11 -227,38 -71,-28 -152,-38 -229,-38 -195,0 -382,101 -474,276 -45,87 -69,188 -69,294 0,164 60,340 207,429 25,15 53,25 81,25 19,0 38,-5 55,-15 15,-9 22,-21 22,-31 0,-13 -9,-25 -26,-34 -130,-67 -176,-237 -176,-374 0,-97 21,-191 62,-269 61,-115 184,-210 318,-210 35,0 69,3 103,12 -158,112 -241,303 -241,494 0,91 20,180 58,251 65,118 177,176 308,176 132,0 245,-58 310,-177 39,-71 59,-159 59,-250 -1,-188 -83,-387 -242,-494 34,-8 68,-12 101,-12 178,1 298,119 298,301l0 586c0,25 36,45 80,45 46,0 82,-20 82,-45l0 -586c0,-181 118,-301 297,-301 36,0 70,4 102,12 -161,112 -243,302 -243,493 0,91 20,181 58,251 66,118 178,175 310,175 132,0 244,-57 309,-176 39,-70 58,-158 58,-250 0,-191 -81,-382 -241,-493 34,-9 67,-12 102,-12 141,0 258,93 333,205 70,106 98,235 98,366 0,149 -31,302 -104,432 -43,78 -100,147 -172,202 -15,-77 -123,-119 -195,-136 -53,-12 -114,-19 -188,-19 -82,0 -153,8 -208,23 -122,31 -184,90 -184,149 0,58 60,117 179,150 60,16 137,24 213,24 78,0 151,-8 220,-25 176,-42 323,-140 443,-304zm-663 -227c-72,0 -121,-51 -153,-110 -34,-62 -51,-142 -51,-225 0,-163 67,-339 204,-436 136,96 205,273 205,436 0,83 -17,162 -51,224 -32,58 -84,111 -154,111zm-1212 2c-70,0 -121,-54 -152,-112 -34,-61 -51,-142 -51,-224 0,-163 68,-341 204,-436 137,96 205,272 205,436 0,82 -17,161 -51,223 -32,58 -84,113 -155,113zm1212 469c-77,0 -138,-10 -178,-26 -27,-10 -64,-30 -64,-63 0,-23 22,-46 65,-63 40,-15 100,-25 177,-25 63,0 111,7 150,18 57,17 85,43 86,70 0,27 -29,54 -88,71 -38,11 -86,18 -148,18z"/>
 </g>
</svg>
