<?xml version="1.0" encoding="UTF-8"?>
<!DOCTYPE svg PUBLIC "-//W3C//DTD SVG 1.1//EN" "http://www.w3.org/Graphics/SVG/1.1/DTD/svg11.dtd">
<!-- Creator: CorelDRAW X8 -->
<svg xmlns="http://www.w3.org/2000/svg" xml:space="preserve" width="1008px" height="868px" version="1.1" style="shape-rendering:geometricPrecision; text-rendering:geometricPrecision; image-rendering:optimizeQuality; fill-rule:evenodd; clip-rule:evenodd"
viewBox="0 0 1008 868"
 xmlns:xlink="http://www.w3.org/1999/xlink">
 <defs>
  <style type="text/css">
   <![CDATA[
    .fil0 {fill:#009846;fill-rule:nonzero}
   ]]>
  </style>
 </defs>
 <g id="Layer_x0020_1">
  <metadata id="CorelCorpID_0Corel-Layer"/>
  <path class="fil0" d="M227 549c20,11 23,28 3,40 -31,18 -76,12 -105,-5 -88,-52 -125,-153 -125,-250 0,-60 13,-119 41,-171 59,-109 178,-163 298,-163 46,0 100,7 143,22 58,-17 120,-22 180,-22 73,0 157,11 221,48 55,30 96,83 96,147 -1,48 -25,89 -66,115 30,16 54,38 70,64 16,28 25,60 25,93 0,53 -16,101 -53,140 -66,68 -163,83 -254,83l-511 0c-32,0 -67,7 -66,47 1,40 34,45 66,45l729 0c26,0 62,12 62,43 0,31 -36,43 -62,43l-729 0c-81,0 -192,-17 -190,-121 2,-101 111,-115 190,-115l514 0c62,0 116,-23 149,-64 23,-27 36,-65 38,-103 2,-32 -5,-64 -23,-89 -15,-22 -38,-36 -69,-35 -20,0 -54,-9 -53,-30 0,-21 34,-29 54,-29 47,1 71,-50 66,-91 -6,-46 -36,-80 -75,-102 -40,-21 -89,-29 -130,-30 -33,-1 -65,2 -91,8 91,65 138,172 138,282 1,50 -10,102 -35,146 -42,74 -115,105 -198,105 -83,0 -155,-31 -197,-105 -25,-43 -35,-96 -35,-146 0,-111 50,-221 142,-285 -16,-4 -32,-5 -47,-4 -75,2 -141,50 -178,118 -26,47 -38,102 -38,156 0,79 29,177 105,215zm248 -443c-72,56 -110,153 -110,243 0,44 9,92 31,130 23,41 51,62 79,62 29,0 57,-21 81,-62 21,-39 30,-86 30,-130 0,-91 -37,-187 -111,-243z"/>
 </g>
</svg>
