<?xml version="1.0" encoding="UTF-8"?>
<!DOCTYPE svg PUBLIC "-//W3C//DTD SVG 1.1//EN" "http://www.w3.org/Graphics/SVG/1.1/DTD/svg11.dtd">
<!-- Creator: CorelDRAW X8 -->
<svg xmlns="http://www.w3.org/2000/svg" xml:space="preserve" width="1593px" height="1486px" version="1.1" style="shape-rendering:geometricPrecision; text-rendering:geometricPrecision; image-rendering:optimizeQuality; fill-rule:evenodd; clip-rule:evenodd"
viewBox="0 0 1593 1486"
 xmlns:xlink="http://www.w3.org/1999/xlink">
 <defs>
  <style type="text/css">
   <![CDATA[
    .fil0 {fill:#2B2A29;fill-rule:nonzero}
   ]]>
  </style>
 </defs>
 <g id="Layer_x0020_1">
  <metadata id="CorelCorpID_0Corel-Layer"/>
  <path class="fil0" d="M1435 1158c106,-146 158,-317 158,-496 0,-136 -32,-282 -105,-398 -105,-170 -289,-264 -487,-264 -85,0 -163,14 -229,38 -74,-27 -150,-38 -229,-38 -195,0 -382,101 -474,276 -45,87 -69,188 -69,294 0,164 60,340 207,429 24,14 53,24 81,24 19,0 38,-4 55,-15 15,-9 22,-20 22,-31 0,-12 -9,-24 -26,-33 -130,-68 -176,-237 -176,-374 0,-97 21,-190 62,-269 61,-115 184,-210 318,-210 35,0 69,3 103,12 -158,112 -241,303 -241,494 0,91 20,180 58,251 65,118 175,175 308,175 132,0 245,-57 310,-176 42,-77 58,-163 58,-250 0,-192 -81,-382 -241,-494 34,-9 68,-12 103,-12 138,0 258,93 332,205 70,106 98,235 98,366 0,148 -31,302 -104,432 -43,78 -100,147 -172,202 -15,-77 -123,-119 -195,-136 -53,-12 -114,-19 -188,-19 -82,0 -153,8 -208,23 -122,31 -183,90 -183,149 0,58 59,117 178,149 60,16 137,24 213,24 104,0 200,-14 289,-44 146,-49 271,-142 374,-284zm-664 -225c-70,0 -121,-54 -152,-112 -34,-62 -51,-142 -51,-224 0,-163 68,-341 204,-436 137,96 205,272 205,436 0,82 -17,161 -51,223 -32,58 -85,113 -155,113zm1 469c-77,0 -138,-10 -177,-26 -43,-17 -65,-39 -65,-61 0,-34 38,-54 65,-65 40,-15 101,-25 177,-25 63,0 112,7 150,18 57,17 85,43 86,70 0,27 -29,54 -88,71 -38,11 -86,18 -148,18z"/>
 </g>
</svg>
