<?xml version="1.0" encoding="UTF-8"?>
<!DOCTYPE svg PUBLIC "-//W3C//DTD SVG 1.1//EN" "http://www.w3.org/Graphics/SVG/1.1/DTD/svg11.dtd">
<!-- Creator: CorelDRAW X8 -->
<svg xmlns="http://www.w3.org/2000/svg" xml:space="preserve" width="2579px" height="1024px" version="1.1" style="shape-rendering:geometricPrecision; text-rendering:geometricPrecision; image-rendering:optimizeQuality; fill-rule:evenodd; clip-rule:evenodd"
viewBox="0 0 2579 1024"
 xmlns:xlink="http://www.w3.org/1999/xlink">
 <defs>
  <style type="text/css">
   <![CDATA[
    .fil0 {fill:#2B2A29;fill-rule:nonzero}
   ]]>
  </style>
 </defs>
 <g id="Layer_x0020_1">
  <metadata id="CorelCorpID_0Corel-Layer"/>
  <path class="fil0" d="M771 1024c132,0 245,-57 310,-176 39,-71 58,-159 58,-251 0,-191 -82,-382 -242,-494 32,-8 66,-12 102,-12 136,0 259,92 322,211 42,83 62,158 62,251 0,137 -47,300 -177,368 -13,6 -26,18 -26,34 0,32 54,45 79,45l1239 0c26,0 81,-12 81,-46l0 -555c0,-255 -227,-399 -445,-399 -219,0 -431,130 -431,393l0 516 -282 0c88,-94 125,-225 125,-355 0,-101 -23,-188 -69,-278 -93,-178 -281,-276 -478,-276 -85,0 -161,14 -228,38 -66,-24 -142,-38 -226,-38 -197,0 -383,99 -476,276 -45,87 -69,189 -69,294 0,165 60,340 207,429 25,15 53,25 81,25 19,0 38,-5 55,-15 15,-9 22,-20 22,-31 0,-12 -9,-24 -26,-33 -130,-68 -177,-238 -177,-375 0,-96 22,-190 63,-268 61,-117 185,-211 320,-211 36,0 69,5 101,13 -158,111 -241,303 -241,493 0,91 20,181 58,251 65,118 177,176 308,176zm1646 -115l-552 0 0 -516c0,-205 130,-301 267,-301 138,0 285,107 285,307l0 510zm-1646 24c-70,0 -121,-53 -153,-111 -33,-62 -50,-142 -50,-225 0,-163 67,-339 203,-436 138,96 206,272 206,436 0,83 -17,162 -51,224 -32,58 -85,112 -155,112z"/>
 </g>
</svg>
