<?xml version="1.0" encoding="UTF-8"?>
<!DOCTYPE svg PUBLIC "-//W3C//DTD SVG 1.1//EN" "http://www.w3.org/Graphics/SVG/1.1/DTD/svg11.dtd">
<!-- Creator: CorelDRAW X8 -->
<svg xmlns="http://www.w3.org/2000/svg" xml:space="preserve" width="2300px" height="1024px" version="1.1" style="shape-rendering:geometricPrecision; text-rendering:geometricPrecision; image-rendering:optimizeQuality; fill-rule:evenodd; clip-rule:evenodd"
viewBox="0 0 2300 1024"
 xmlns:xlink="http://www.w3.org/1999/xlink">
 <defs>
  <style type="text/css">
   <![CDATA[
    .fil0 {fill:#2B2A29;fill-rule:nonzero}
   ]]>
  </style>
 </defs>
 <g id="Layer_x0020_1">
  <metadata id="CorelCorpID_0Corel-Layer"/>
  <path class="fil0" d="M1823 91c159,0 319,77 319,179 0,52 -23,76 -76,76 -68,0 -138,-29 -212,-29 -41,0 -80,7 -117,29 -62,38 -87,102 -87,172 0,75 34,143 101,179 40,23 82,29 128,29 62,0 119,-16 163,-16 52,0 99,29 99,87 0,91 -114,134 -195,134 -65,0 -106,-6 -158,-29 -14,-7 -33,-10 -51,-10 -23,0 -47,6 -64,18 -12,9 -17,18 -17,27 0,15 12,28 31,36 72,33 166,51 259,51 145,0 354,-45 354,-227 0,-117 -88,-192 -202,-192 -59,0 -118,18 -176,18 -65,0 -126,-27 -126,-101 0,-64 42,-98 104,-98 64,0 126,24 194,24 110,0 197,-57 197,-178 0,-227 -285,-270 -468,-270 -144,0 -349,27 -440,140 -99,-111 -241,-139 -383,-140 -80,0 -152,12 -228,38 -70,-26 -152,-38 -227,-38 -197,0 -383,99 -476,276 -45,87 -69,189 -69,294 0,164 60,340 207,429 25,15 53,25 81,25 19,0 38,-4 55,-14 15,-10 22,-21 22,-32 0,-13 -9,-25 -26,-34 -130,-67 -176,-237 -176,-374 0,-97 22,-190 62,-268 61,-117 185,-211 320,-211 36,0 70,4 101,12 -159,112 -240,303 -240,494 0,91 19,181 57,251 65,118 177,176 308,176 133,0 245,-58 311,-177 38,-70 58,-158 58,-250 0,-188 -82,-387 -242,-494 34,-8 68,-12 102,-12 180,1 298,117 298,300l0 587c0,26 36,46 81,46 45,0 82,-20 82,-46l0 -592c0,-238 171,-295 362,-295zm-1052 842c-70,0 -121,-53 -152,-111 -34,-62 -51,-142 -51,-225 0,-162 68,-340 204,-436 138,96 206,272 206,436 0,83 -18,162 -52,224 -32,58 -84,112 -155,112z"/>
 </g>
</svg>
