<?xml version="1.0" encoding="UTF-8"?>
<!DOCTYPE svg PUBLIC "-//W3C//DTD SVG 1.1//EN" "http://www.w3.org/Graphics/SVG/1.1/DTD/svg11.dtd">
<!-- Creator: CorelDRAW X8 -->
<svg xmlns="http://www.w3.org/2000/svg" xml:space="preserve" width="2333px" height="1486px" version="1.1" style="shape-rendering:geometricPrecision; text-rendering:geometricPrecision; image-rendering:optimizeQuality; fill-rule:evenodd; clip-rule:evenodd"
viewBox="0 0 2333 1487"
 xmlns:xlink="http://www.w3.org/1999/xlink">
 <defs>
  <style type="text/css">
   <![CDATA[
    .fil0 {fill:#2B2A29;fill-rule:nonzero}
   ]]>
  </style>
 </defs>
 <g id="Layer_x0020_1">
  <metadata id="CorelCorpID_0Corel-Layer"/>
  <path class="fil0" d="M2204 1487c45,0 81,-31 81,-69 0,-38 -36,-70 -81,-70l-1907 0c-61,0 -132,-7 -132,-84 0,-58 43,-84 132,-84l1645 0c288,0 391,-151 391,-303 0,-151 -103,-268 -257,-268 -52,0 -103,14 -154,14 -65,0 -127,-26 -127,-102 0,-66 44,-97 105,-97 63,0 126,24 194,24 111,0 196,-49 196,-170 0,-104 -63,-175 -149,-217 -101,-49 -235,-61 -329,-61 -138,1 -336,25 -429,140 -99,-111 -241,-140 -384,-140 -80,0 -152,12 -227,38 -72,-27 -152,-38 -229,-38 -195,0 -382,101 -474,276 -45,87 -69,188 -69,294 0,164 60,340 207,429 25,15 53,25 81,25 19,0 38,-5 55,-15 15,-9 22,-20 22,-31 0,-13 -9,-25 -26,-34 -130,-67 -176,-237 -176,-374 0,-97 21,-190 62,-268 61,-116 184,-211 318,-211 35,0 69,3 103,12 -158,112 -241,303 -241,494 0,91 20,180 58,251 65,118 177,176 308,176 132,0 245,-58 310,-177 39,-70 58,-159 58,-250 0,-188 -83,-387 -241,-494 33,-8 68,-12 101,-12 179,1 298,118 298,300l0 587c0,25 37,46 82,46 45,0 81,-21 81,-46l0 -592c0,-228 150,-294 352,-294 84,0 181,5 255,51 45,29 74,71 74,123 0,50 -23,80 -76,80 -67,0 -138,-29 -212,-29 -40,0 -81,8 -119,32 -62,37 -84,101 -84,170 0,71 34,145 100,178 43,22 80,29 114,29 47,0 90,-13 140,-13 102,7 172,51 172,164 0,102 -68,212 -231,212l-1648 0c-137,0 -296,31 -296,199 0,164 161,199 296,199l1907 0zm-1433 -554c-70,0 -121,-54 -152,-112 -34,-61 -51,-142 -51,-224 0,-163 68,-341 204,-436 137,96 205,272 205,436 0,83 -17,161 -51,224 -32,57 -85,112 -155,112z"/>
 </g>
</svg>
