<?xml version="1.0" encoding="UTF-8"?>
<!DOCTYPE svg PUBLIC "-//W3C//DTD SVG 1.1//EN" "http://www.w3.org/Graphics/SVG/1.1/DTD/svg11.dtd">
<!-- Creator: CorelDRAW X8 -->
<svg xmlns="http://www.w3.org/2000/svg" xml:space="preserve" width="3036px" height="1486px" version="1.1" style="shape-rendering:geometricPrecision; text-rendering:geometricPrecision; image-rendering:optimizeQuality; fill-rule:evenodd; clip-rule:evenodd"
viewBox="0 0 3036 1487"
 xmlns:xlink="http://www.w3.org/1999/xlink">
 <defs>
  <style type="text/css">
   <![CDATA[
    .fil0 {fill:#2B2A29;fill-rule:nonzero}
   ]]>
  </style>
 </defs>
 <g id="Layer_x0020_1">
  <metadata id="CorelCorpID_0Corel-Layer"/>
  <path class="fil0" d="M2109 1453c232,-32 453,-94 614,-213 133,-99 219,-225 268,-366 33,-95 45,-195 45,-295 -1,-116 -23,-232 -68,-327 -51,-108 -138,-195 -251,-239 -19,-8 -40,-13 -61,-13 -23,0 -44,6 -62,21 -10,8 -14,17 -14,25 0,16 17,31 37,38 172,64 247,272 247,442 0,159 -74,407 -270,407 -197,0 -202,-258 -202,-400 0,-101 0,-212 -35,-308 -53,-148 -192,-225 -344,-225 -112,0 -229,34 -302,124 -92,-97 -234,-124 -366,-124 -81,0 -153,12 -229,38 -70,-26 -154,-38 -229,-38 -197,0 -380,99 -473,276 -46,87 -70,188 -70,294 1,164 60,340 207,429 25,15 53,25 81,25 19,0 38,-5 56,-15 14,-9 21,-20 21,-31 0,-12 -9,-25 -26,-34 -129,-67 -176,-237 -176,-374 0,-97 22,-190 63,-268 60,-116 183,-211 317,-211 36,0 70,4 104,12 -159,112 -241,303 -241,494 0,91 19,181 58,251 64,118 176,176 308,176 132,0 245,-58 311,-177 38,-70 58,-158 58,-250 0,-188 -84,-387 -243,-494 34,-8 69,-12 103,-12 178,1 296,118 296,300l0 587c0,25 36,46 82,46 45,0 82,-21 82,-46l0 -616c0,-135 50,-271 208,-271 88,0 156,73 184,152 33,91 33,194 33,290 0,260 47,491 364,491 66,0 125,-12 176,-34 -44,73 -102,140 -177,195 -135,100 -324,152 -522,180 -203,27 -405,30 -608,30 -332,-1 -651,-51 -889,-171 -265,-133 -411,-345 -411,-646 0,-193 69,-396 241,-501 14,-9 21,-20 21,-31 0,-13 -10,-25 -27,-34 -16,-8 -35,-12 -54,-12 -22,0 -44,5 -61,15 -196,122 -283,340 -283,563 0,333 169,565 466,714 269,136 627,193 997,195 216,0 431,-4 646,-34zm-993 -520c-70,0 -121,-54 -153,-111 -34,-62 -51,-143 -51,-225 0,-162 69,-341 204,-436 137,96 205,272 205,436 0,78 -13,155 -51,224 -31,58 -84,112 -154,112z"/>
 </g>
</svg>
