<?xml version="1.0" encoding="UTF-8"?>
<!DOCTYPE svg PUBLIC "-//W3C//DTD SVG 1.1//EN" "http://www.w3.org/Graphics/SVG/1.1/DTD/svg11.dtd">
<!-- Creator: CorelDRAW X8 -->
<svg xmlns="http://www.w3.org/2000/svg" xml:space="preserve" width="1687px" height="868px" version="1.1" style="shape-rendering:geometricPrecision; text-rendering:geometricPrecision; image-rendering:optimizeQuality; fill-rule:evenodd; clip-rule:evenodd"
viewBox="0 0 1687 868"
 xmlns:xlink="http://www.w3.org/1999/xlink">
 <defs>
  <style type="text/css">
   <![CDATA[
    .fil0 {fill:#434242;fill-rule:nonzero}
   ]]>
  </style>
 </defs>
 <g id="Layer_x0020_1">
  <metadata id="CorelCorpID_0Corel-Layer"/>
  <path class="fil0" d="M1596 868c26,0 61,-12 61,-43 0,-31 -35,-43 -61,-43l-1406 0c-34,0 -66,-6 -66,-47 0,-38 34,-44 66,-44l1100 0c107,0 214,-18 294,-94 69,-65 103,-156 103,-249 0,-64 -15,-129 -48,-185 -63,-108 -177,-163 -301,-163 -46,0 -93,6 -137,20 -44,-14 -89,-20 -136,-20 -78,0 -167,13 -226,69 -59,-56 -149,-69 -227,-69 -47,0 -91,6 -136,20 -43,-14 -91,-20 -137,-20 -120,0 -239,54 -297,163 -28,52 -42,111 -42,171 0,97 37,198 125,250 17,10 39,16 61,16 15,0 31,-3 44,-11 9,-6 14,-12 14,-19 0,-7 -6,-15 -17,-21 -76,-38 -105,-136 -105,-215 0,-54 12,-109 38,-156 34,-63 104,-118 178,-119 16,0 31,1 48,5 -93,64 -143,174 -143,285 0,50 10,103 35,146 42,74 114,105 197,105 83,0 157,-31 199,-105 25,-44 35,-96 35,-146 -1,-110 -50,-223 -143,-285 15,-3 31,-5 46,-5 94,0 166,64 166,171l0 340c0,24 44,30 61,30 17,0 61,-6 61,-30l0 -340c0,-106 71,-171 165,-171 15,0 31,1 47,5 -94,64 -143,173 -143,285 0,50 10,102 35,146 42,74 115,104 197,104 83,0 156,-30 198,-104 25,-44 35,-96 35,-146 0,-112 -49,-221 -142,-285 15,-3 30,-5 44,-5 81,1 147,55 186,123 28,49 42,108 42,166 0,84 -27,162 -89,221 -56,53 -111,63 -184,63l-1101 0c-80,0 -190,14 -190,118 0,101 110,118 190,118l1406 0zm-395 -328c-33,0 -64,-34 -79,-61 -22,-39 -31,-86 -31,-130 0,-91 37,-187 110,-243 73,56 111,153 111,243 0,44 -9,91 -31,129 -15,27 -46,62 -80,62zm-726 1c-33,0 -64,-35 -79,-62 -22,-38 -31,-86 -31,-130 -1,-90 38,-187 110,-243 74,56 111,152 111,243 0,44 -8,92 -30,130 -15,27 -47,62 -81,62z"/>
 </g>
</svg>
