<?xml version="1.0" encoding="UTF-8"?>
<!DOCTYPE svg PUBLIC "-//W3C//DTD SVG 1.1//EN" "http://www.w3.org/Graphics/SVG/1.1/DTD/svg11.dtd">
<!-- Creator: CorelDRAW X8 -->
<svg xmlns="http://www.w3.org/2000/svg" xml:space="preserve" width="1854px" height="1486px" version="1.1" style="shape-rendering:geometricPrecision; text-rendering:geometricPrecision; image-rendering:optimizeQuality; fill-rule:evenodd; clip-rule:evenodd"
viewBox="0 0 1854 1487"
 xmlns:xlink="http://www.w3.org/1999/xlink">
 <defs>
  <style type="text/css">
   <![CDATA[
    .fil0 {fill:#2B2A29;fill-rule:nonzero}
   ]]>
  </style>
 </defs>
 <g id="Layer_x0020_1">
  <metadata id="CorelCorpID_0Corel-Layer"/>
  <path class="fil0" d="M1032 1487c308,-1 822,-112 822,-488l0 -600c0,-255 -227,-398 -445,-398 -219,0 -431,129 -431,392l0 516 -290 0 0 -863c0,-26 -37,-46 -82,-46 -45,0 -81,20 -81,46l0 908c0,26 36,46 81,46l1084 0c0,311 -418,396 -660,396 -257,0 -474,-77 -629,-219 -165,-151 -238,-342 -238,-564 0,-211 76,-425 232,-540 12,-9 17,-18 17,-27 0,-14 -13,-28 -31,-36 -14,-7 -33,-10 -51,-10 -23,0 -47,6 -63,18 -185,135 -267,373 -267,595 0,303 131,519 323,663 187,140 436,211 709,211zm659 -578l-551 0 0 -516c0,-205 130,-301 267,-301 138,0 285,107 285,307l-1 510z"/>
 </g>
</svg>
