<?xml version="1.0" encoding="UTF-8"?>
<!DOCTYPE svg PUBLIC "-//W3C//DTD SVG 1.1//EN" "http://www.w3.org/Graphics/SVG/1.1/DTD/svg11.dtd">
<!-- Creator: CorelDRAW X8 -->
<svg xmlns="http://www.w3.org/2000/svg" xml:space="preserve" width="1853px" height="1486px" version="1.1" style="shape-rendering:geometricPrecision; text-rendering:geometricPrecision; image-rendering:optimizeQuality; fill-rule:evenodd; clip-rule:evenodd"
viewBox="0 0 1853 1486"
 xmlns:xlink="http://www.w3.org/1999/xlink">
 <defs>
  <style type="text/css">
   <![CDATA[
    .fil0 {fill:#009846;fill-rule:nonzero}
   ]]>
  </style>
 </defs>
 <g id="Layer_x0020_1">
  <metadata id="CorelCorpID_0Corel-Layer"/>
  <path class="fil0" d="M1853 999c0,375 -514,486 -821,487 -273,0 -522,-71 -709,-211 -193,-144 -324,-361 -323,-665 1,-233 89,-463 267,-592 29,-22 81,-23 114,-8 30,13 45,41 14,63 -158,116 -234,328 -232,542 1,245 96,431 238,561 155,142 372,219 629,219 250,0 665,-93 659,-395l-1083 0c-45,0 -81,-20 -81,-46l0 -908c0,-26 36,-46 81,-46 45,0 82,20 82,46l0 863 289 0 0 -516c0,-263 212,-392 431,-392 218,0 445,143 445,398l0 600zm-714 -606l0 516 551 0 1 -510c0,-200 -147,-307 -285,-307 -137,0 -267,96 -267,301z"/>
 </g>
</svg>
