<?xml version="1.0" encoding="UTF-8"?>
<!DOCTYPE svg PUBLIC "-//W3C//DTD SVG 1.1//EN" "http://www.w3.org/Graphics/SVG/1.1/DTD/svg11.dtd">
<!-- Creator: CorelDRAW X8 -->
<svg xmlns="http://www.w3.org/2000/svg" xml:space="preserve" width="1019px" height="1024px" version="1.1" style="shape-rendering:geometricPrecision; text-rendering:geometricPrecision; image-rendering:optimizeQuality; fill-rule:evenodd; clip-rule:evenodd"
viewBox="0 0 1019 1024"
 xmlns:xlink="http://www.w3.org/1999/xlink">
 <defs>
  <style type="text/css">
   <![CDATA[
    .fil0 {fill:#898778;fill-rule:nonzero}
   ]]>
  </style>
 </defs>
 <g id="Layer_x0020_1">
  <metadata id="CorelCorpID_0Corel-Layer"/>
  <path class="fil0" d="M470 978c-30,-15 -43,-43 -11,-64 30,-21 81,-22 114,-7 36,16 82,25 121,25 48,-1 94,-20 124,-57 28,-35 39,-82 39,-129 -2,-75 -51,-132 -121,-154 -72,-24 -157,-14 -198,-14 -26,0 -82,-11 -82,-46 0,-25 36,-45 81,-45 60,0 139,4 201,-18 70,-24 106,-78 105,-152 -1,-71 -27,-124 -70,-161 -53,-45 -133,-65 -214,-65 -118,1 -205,39 -269,103 -75,75 -115,185 -125,313 -13,154 28,332 129,452 25,29 -12,53 -39,60 -41,11 -87,5 -116,-30 -106,-132 -150,-315 -137,-482 15,-178 83,-312 195,-398 93,-71 215,-108 362,-109 104,-1 221,21 309,76 80,50 136,127 137,241 1,97 -52,173 -139,213 85,40 151,119 153,216 1,91 -32,163 -102,212 -64,45 -146,63 -223,65 -78,1 -158,-16 -224,-45z"/>
 </g>
</svg>
