<?xml version="1.0" encoding="UTF-8"?>
<!DOCTYPE svg PUBLIC "-//W3C//DTD SVG 1.1//EN" "http://www.w3.org/Graphics/SVG/1.1/DTD/svg11.dtd">
<!-- Creator: CorelDRAW X8 -->
<svg xmlns="http://www.w3.org/2000/svg" xml:space="preserve" width="1019px" height="1024px" version="1.1" style="shape-rendering:geometricPrecision; text-rendering:geometricPrecision; image-rendering:optimizeQuality; fill-rule:evenodd; clip-rule:evenodd"
viewBox="0 0 1019 1024"
 xmlns:xlink="http://www.w3.org/1999/xlink">
 <defs>
  <style type="text/css">
   <![CDATA[
    .fil0 {fill:#009846;fill-rule:nonzero}
   ]]>
  </style>
 </defs>
 <g id="Layer_x0020_1">
  <metadata id="CorelCorpID_0Corel-Layer"/>
  <path class="fil0" d="M470 977c-30,-14 -42,-42 -11,-64 30,-20 81,-21 114,-6 36,16 82,25 121,24 47,0 93,-19 124,-56 28,-35 39,-82 38,-129 -1,-75 -51,-132 -120,-154 -72,-24 -157,-14 -198,-14 -26,0 -82,-11 -82,-46 0,-25 36,-45 81,-45 60,0 139,4 201,-18 70,-24 105,-78 105,-152 -1,-71 -28,-124 -70,-161 -53,-45 -133,-65 -214,-65 -118,1 -204,39 -269,103 -74,75 -115,185 -125,313 -12,154 28,332 129,452 25,29 -12,53 -39,60 -41,11 -87,4 -115,-31 -107,-131 -151,-314 -137,-481 14,-178 82,-313 194,-398 93,-71 215,-108 362,-109 104,-1 221,21 309,76 80,50 136,127 137,241 1,97 -52,173 -139,213 85,40 151,119 153,216 1,90 -32,163 -102,212 -64,45 -146,63 -223,64 -78,2 -158,-15 -224,-45z"/>
 </g>
</svg>
