<?xml version="1.0" encoding="UTF-8"?>
<!DOCTYPE svg PUBLIC "-//W3C//DTD SVG 1.1//EN" "http://www.w3.org/Graphics/SVG/1.1/DTD/svg11.dtd">
<!-- Creator: CorelDRAW X8 -->
<svg xmlns="http://www.w3.org/2000/svg" xml:space="preserve" width="636px" height="600px" version="1.1" style="shape-rendering:geometricPrecision; text-rendering:geometricPrecision; image-rendering:optimizeQuality; fill-rule:evenodd; clip-rule:evenodd"
viewBox="0 0 636 600"
 xmlns:xlink="http://www.w3.org/1999/xlink">
 <defs>
  <style type="text/css">
   <![CDATA[
    .fil0 {fill:#434242;fill-rule:nonzero}
   ]]>
  </style>
 </defs>
 <g id="Layer_x0020_1">
  <metadata id="CorelCorpID_0Corel-Layer"/>
  <path class="fil0" d="M143 600c11,0 21,-1 31,-4 13,-3 32,-13 32,-26 0,-4 -1,-8 -5,-12 -53,-61 -78,-147 -78,-228 0,-77 18,-159 75,-214 41,-40 92,-57 149,-57 40,0 85,10 117,36 28,24 41,56 42,92 1,21 -6,40 -16,55 -11,17 -28,26 -46,32 -23,7 -46,8 -59,8l-50 0c-17,0 -62,6 -62,30 0,23 45,29 62,29l50 -1c19,-1 39,1 59,8 20,6 38,18 50,33 12,15 20,34 20,55 1,26 -6,53 -23,74 -15,18 -44,30 -68,30 -20,0 -38,-5 -56,-13 -11,-5 -26,-7 -41,-7 -19,0 -38,4 -50,12 -8,5 -12,11 -12,17 0,9 8,17 20,22 43,19 92,28 139,28 51,0 108,-9 151,-39 44,-30 62,-72 62,-124 0,-28 -10,-52 -25,-73 -16,-22 -39,-40 -65,-52 26,-13 46,-30 60,-50 14,-21 22,-46 22,-74 -1,-62 -30,-109 -83,-141 -59,-36 -130,-46 -198,-46 -80,0 -163,17 -228,65 -85,63 -119,164 -119,266 0,88 27,179 84,246 14,17 37,23 59,23z"/>
 </g>
</svg>
