<?xml version="1.0" encoding="UTF-8"?>
<!DOCTYPE svg PUBLIC "-//W3C//DTD SVG 1.1//EN" "http://www.w3.org/Graphics/SVG/1.1/DTD/svg11.dtd">
<!-- Creator: CorelDRAW X8 -->
<svg xmlns="http://www.w3.org/2000/svg" xml:space="preserve" width="1430px" height="1486px" version="1.1" style="shape-rendering:geometricPrecision; text-rendering:geometricPrecision; image-rendering:optimizeQuality; fill-rule:evenodd; clip-rule:evenodd"
viewBox="0 0 1430 1486"
 xmlns:xlink="http://www.w3.org/1999/xlink">
 <defs>
  <style type="text/css">
   <![CDATA[
    .fil0 {fill:#2B2A29;fill-rule:nonzero}
   ]]>
  </style>
 </defs>
 <g id="Layer_x0020_1">
  <metadata id="CorelCorpID_0Corel-Layer"/>
  <path class="fil0" d="M1273 1293c106,-106 157,-243 157,-392 -1,-151 -52,-308 -197,-374 82,-41 133,-114 133,-207 0,-106 -48,-188 -137,-244 -86,-54 -207,-76 -310,-76 -130,0 -256,28 -361,109 -140,106 -197,284 -197,454 0,157 49,314 139,425 21,26 49,36 79,36 12,0 25,-2 37,-5 21,-5 47,-21 47,-41 0,-6 -2,-12 -8,-19 -90,-105 -131,-256 -131,-395 0,-131 31,-274 127,-370 64,-64 151,-102 268,-103 82,0 162,20 215,65 42,37 70,90 70,161 0,92 -48,138 -115,157 -31,9 -65,13 -103,13l-88 0c-45,0 -81,20 -81,45 0,35 56,46 82,46 30,0 59,-2 87,-2 34,0 68,3 103,13 132,39 181,171 181,312 0,110 -34,222 -100,311 -87,115 -237,186 -404,186 -208,0 -363,-105 -471,-280 -92,-149 -131,-317 -131,-490 0,-219 77,-441 259,-552 15,-9 22,-20 22,-31 0,-12 -9,-24 -26,-33 -15,-8 -35,-12 -54,-12 -22,0 -45,5 -61,15 -211,127 -304,368 -304,613 0,199 52,397 170,560 131,180 335,298 596,298 184,0 375,-61 507,-193z"/>
 </g>
</svg>
