<?xml version="1.0" encoding="UTF-8"?>
<!DOCTYPE svg PUBLIC "-//W3C//DTD SVG 1.1//EN" "http://www.w3.org/Graphics/SVG/1.1/DTD/svg11.dtd">
<!-- Creator: CorelDRAW X8 -->
<svg xmlns="http://www.w3.org/2000/svg" xml:space="preserve" width="1102px" height="1486px" version="1.1" style="shape-rendering:geometricPrecision; text-rendering:geometricPrecision; image-rendering:optimizeQuality; fill-rule:evenodd; clip-rule:evenodd"
viewBox="0 0 1102 1486"
 xmlns:xlink="http://www.w3.org/1999/xlink">
 <defs>
  <style type="text/css">
   <![CDATA[
    .fil0 {fill:#009846;fill-rule:nonzero}
   ]]>
  </style>
 </defs>
 <g id="Layer_x0020_1">
  <metadata id="CorelCorpID_0Corel-Layer"/>
  <path class="fil0" d="M446 1408c62,0 138,-4 195,-30 39,-17 67,-47 65,-90 -2,-51 -58,-71 -101,-71 -56,-1 -87,40 -87,96 0,31 -47,40 -71,40 -24,0 -71,-9 -71,-40 0,-56 -31,-97 -87,-96 -43,0 -99,20 -101,71 -1,43 26,73 65,90 56,25 131,30 193,30zm92 -830c-26,0 -82,-11 -82,-46 0,-25 36,-46 81,-46 60,0 138,4 201,-17 70,-24 105,-79 105,-152 -1,-71 -28,-124 -70,-161 -53,-45 -133,-65 -215,-65 -117,1 -204,39 -268,103 -75,75 -115,185 -125,313 -13,154 27,332 129,451 25,30 -12,54 -39,61 -42,11 -87,4 -116,-31 -106,-132 -150,-314 -137,-481 15,-179 83,-313 195,-398 93,-71 215,-108 361,-109 105,-1 222,21 310,76 80,50 136,127 137,241 1,95 -50,169 -133,210 149,67 230,207 230,376 0,132 -34,242 -93,329 -73,109 -185,183 -315,223 -76,24 -168,31 -248,31 -64,0 -162,-6 -243,-35 -84,-31 -144,-97 -143,-163 1,-38 21,-78 68,-108 41,-26 101,-39 161,-39 53,0 114,12 158,40 44,-28 105,-40 158,-40 60,0 121,13 161,39 39,25 70,62 69,111 93,-87 136,-243 121,-388 -15,-145 -88,-278 -228,-316 -65,-18 -124,-9 -190,-9z"/>
 </g>
</svg>
