<?xml version="1.0" encoding="UTF-8"?>
<!DOCTYPE svg PUBLIC "-//W3C//DTD SVG 1.1//EN" "http://www.w3.org/Graphics/SVG/1.1/DTD/svg11.dtd">
<!-- Creator: CorelDRAW X8 -->
<svg xmlns="http://www.w3.org/2000/svg" xml:space="preserve" width="1102px" height="1486px" version="1.1" style="shape-rendering:geometricPrecision; text-rendering:geometricPrecision; image-rendering:optimizeQuality; fill-rule:evenodd; clip-rule:evenodd"
viewBox="0 0 1102 1486"
 xmlns:xlink="http://www.w3.org/1999/xlink">
 <defs>
  <style type="text/css">
   <![CDATA[
    .fil0 {fill:#2B2A29;fill-rule:nonzero}
   ]]>
  </style>
 </defs>
 <g id="Layer_x0020_1">
  <metadata id="CorelCorpID_0Corel-Layer"/>
  <path class="fil0" d="M1009 1232c59,-87 93,-173 93,-304 0,-177 -81,-333 -230,-401 82,-41 133,-117 133,-210 0,-106 -48,-185 -137,-241 -86,-54 -207,-76 -310,-76 -131,0 -255,28 -361,109 -141,107 -197,284 -197,455 0,151 45,308 139,424 21,25 50,36 80,36 12,0 24,-2 36,-5 21,-5 47,-21 47,-41 0,-6 -2,-13 -8,-20 -90,-105 -131,-255 -131,-394 0,-131 32,-274 127,-370 64,-64 151,-102 268,-103 82,0 162,20 215,65 42,37 70,90 70,161 1,84 -43,130 -104,152 -34,12 -73,17 -112,17l-90 0c-45,0 -81,21 -81,46 0,35 56,46 82,46 33,0 58,-2 89,-2 32,0 69,2 101,11 165,45 230,185 230,341 0,127 -43,288 -121,361 -19,-73 -124,-113 -193,-129 -53,-12 -114,-19 -189,-19 -81,0 -152,8 -208,23 -121,31 -182,90 -182,149 0,58 59,117 177,148 61,17 137,25 213,25 78,0 154,-8 225,-26 130,-34 245,-104 329,-228zm-554 170c-76,0 -137,-10 -177,-26 -26,-11 -64,-30 -64,-63 0,-23 22,-46 65,-63 40,-15 100,-25 176,-25 64,0 112,7 151,18 57,17 85,43 85,70 0,39 -56,62 -87,71 -38,11 -86,18 -149,18z"/>
 </g>
</svg>
