<?xml version="1.0" encoding="UTF-8"?>
<!DOCTYPE svg PUBLIC "-//W3C//DTD SVG 1.1//EN" "http://www.w3.org/Graphics/SVG/1.1/DTD/svg11.dtd">
<!-- Creator: CorelDRAW X8 -->
<svg xmlns="http://www.w3.org/2000/svg" xml:space="preserve" width="1020px" height="1486px" version="1.1" style="shape-rendering:geometricPrecision; text-rendering:geometricPrecision; image-rendering:optimizeQuality; fill-rule:evenodd; clip-rule:evenodd"
viewBox="0 0 1019 1484"
 xmlns:xlink="http://www.w3.org/1999/xlink">
 <defs>
  <style type="text/css">
   <![CDATA[
    .fil0 {fill:#898778;fill-rule:nonzero}
   ]]>
  </style>
 </defs>
 <g id="Layer_x0020_1">
  <metadata id="CorelCorpID_0Corel-Layer"/>
  <path class="fil0" d="M746 894c68,-20 120,-93 115,-164 -4,-60 -49,-114 -126,-139 -72,-24 -157,-14 -198,-14 -26,0 -82,-11 -82,-46 0,-25 36,-45 81,-45 60,0 138,4 201,-17 70,-24 105,-79 104,-152 0,-72 -27,-124 -69,-161 -53,-45 -133,-65 -214,-65 -118,1 -204,39 -268,103 -75,74 -115,184 -126,312 -12,154 28,332 130,451 25,30 -13,54 -39,61 -42,11 -87,4 -116,-31 -106,-132 -150,-314 -137,-481 15,-178 83,-312 194,-397 93,-71 216,-108 362,-109 104,-1 221,21 309,76 80,50 136,127 137,241 1,97 -52,172 -139,213 96,32 150,112 153,197 4,98 -50,182 -126,225 96,46 133,135 126,225 -15,223 -228,308 -424,307 -155,0 -318,-55 -425,-163 -27,-28 5,-54 32,-62 33,-10 86,-7 111,18 75,77 183,120 282,121 160,2 255,-112 262,-218 5,-69 -32,-138 -113,-167 -72,-26 -133,-8 -206,-10 -26,-1 -82,-11 -82,-45 0,-26 36,-46 81,-46 68,0 144,2 210,-18z"/>
 </g>
</svg>
