<?xml version="1.0" encoding="UTF-8"?>
<!DOCTYPE svg PUBLIC "-//W3C//DTD SVG 1.1//EN" "http://www.w3.org/Graphics/SVG/1.1/DTD/svg11.dtd">
<!-- Creator: CorelDRAW X8 -->
<svg xmlns="http://www.w3.org/2000/svg" xml:space="preserve" width="1020px" height="1486px" version="1.1" style="shape-rendering:geometricPrecision; text-rendering:geometricPrecision; image-rendering:optimizeQuality; fill-rule:evenodd; clip-rule:evenodd"
viewBox="0 0 1020 1486"
 xmlns:xlink="http://www.w3.org/1999/xlink">
 <defs>
  <style type="text/css">
   <![CDATA[
    .fil0 {fill:#CC6633;fill-rule:nonzero}
   ]]>
  </style>
 </defs>
 <g id="Layer_x0020_1">
  <metadata id="CorelCorpID_0Corel-Layer"/>
  <path class="fil0" d="M747 895c67,-20 119,-93 114,-164 -4,-60 -49,-114 -126,-140 -72,-23 -157,-13 -198,-13 -26,0 -82,-11 -82,-46 0,-25 36,-46 81,-46 60,0 139,4 201,-17 70,-24 106,-78 105,-152 -1,-71 -27,-124 -70,-161 -53,-45 -133,-65 -214,-65 -118,1 -204,39 -269,103 -74,75 -115,185 -125,313 -12,154 28,332 129,451 6,7 8,13 8,20 0,17 -17,33 -46,41 -12,3 -25,5 -37,5 -30,0 -59,-11 -79,-36 -107,-132 -151,-314 -137,-481 14,-178 83,-313 194,-398 93,-71 216,-108 362,-109 104,-1 221,21 309,76 80,50 136,127 137,241 1,97 -52,173 -139,213 97,33 150,113 154,198 3,98 -51,182 -127,225 96,47 133,135 127,225 -16,224 -229,308 -425,308 -155,0 -319,-55 -425,-164 -7,-7 -10,-14 -10,-21 0,-17 15,-32 42,-41 13,-3 26,-5 40,-5 28,0 56,8 70,23 76,78 184,121 283,122 160,2 256,-112 263,-219 4,-69 -33,-138 -114,-167 -72,-26 -133,-7 -206,-10 -26,0 -82,-11 -82,-45 0,-25 36,-46 81,-46 69,0 145,2 211,-18z"/>
 </g>
</svg>
