<?xml version="1.0" encoding="UTF-8"?>
<!DOCTYPE svg PUBLIC "-//W3C//DTD SVG 1.1//EN" "http://www.w3.org/Graphics/SVG/1.1/DTD/svg11.dtd">
<!-- Creator: CorelDRAW X8 -->
<svg xmlns="http://www.w3.org/2000/svg" xml:space="preserve" width="686px" height="868px" version="1.1" style="shape-rendering:geometricPrecision; text-rendering:geometricPrecision; image-rendering:optimizeQuality; fill-rule:evenodd; clip-rule:evenodd"
viewBox="0 0 686 868"
 xmlns:xlink="http://www.w3.org/1999/xlink">
 <defs>
  <style type="text/css">
   <![CDATA[
    .fil0 {fill:#2B2A29;fill-rule:nonzero}
   ]]>
  </style>
 </defs>
 <g id="Layer_x0020_1">
  <metadata id="CorelCorpID_0Corel-Layer"/>
  <path class="fil0" d="M550 797c92,-63 136,-144 136,-255 0,-51 -12,-111 -36,-148 -23,-36 -56,-65 -100,-85 24,-13 44,-29 57,-50 14,-20 21,-45 21,-72 -1,-62 -30,-109 -83,-141 -57,-34 -132,-46 -198,-46 -80,0 -163,17 -228,65 -85,63 -119,164 -119,266 0,88 27,179 84,246 14,17 36,23 58,23 11,0 22,-1 32,-4 13,-3 32,-13 32,-26 0,-4 -1,-8 -5,-12 -53,-60 -78,-147 -78,-228 0,-77 19,-159 75,-214 42,-39 93,-57 150,-57 40,0 85,10 116,36 28,23 41,56 41,92 0,51 -32,76 -66,87 -17,6 -34,8 -48,8l-56 0c-17,0 -62,6 -62,30 0,23 45,29 62,29l56 -1c16,0 33,1 49,5 39,11 70,35 92,65 28,37 43,84 43,132 0,58 -13,148 -56,191 -22,-33 -75,-51 -112,-59 -40,-9 -81,-12 -121,-12 -44,0 -91,3 -134,14 -41,10 -113,37 -113,88 0,51 70,78 110,89 39,10 85,15 137,15 52,0 98,-4 143,-15 41,-11 80,-28 121,-56zm-264 16c-31,0 -68,-3 -96,-13 -14,-6 -37,-18 -37,-36 0,-17 23,-29 37,-34 29,-11 65,-14 96,-14 27,0 54,3 80,10 17,5 49,17 49,38 0,22 -33,35 -50,40 -25,7 -53,9 -79,9z"/>
 </g>
</svg>
