<?xml version="1.0" encoding="UTF-8"?>
<!DOCTYPE svg PUBLIC "-//W3C//DTD SVG 1.1//EN" "http://www.w3.org/Graphics/SVG/1.1/DTD/svg11.dtd">
<!-- Creator: CorelDRAW X8 -->
<svg xmlns="http://www.w3.org/2000/svg" xml:space="preserve" width="1021px" height="1486px" version="1.1" style="shape-rendering:geometricPrecision; text-rendering:geometricPrecision; image-rendering:optimizeQuality; fill-rule:evenodd; clip-rule:evenodd"
viewBox="0 0 1021 1486"
 xmlns:xlink="http://www.w3.org/1999/xlink">
 <defs>
  <style type="text/css">
   <![CDATA[
    .fil0 {fill:#898778;fill-rule:nonzero}
   ]]>
  </style>
 </defs>
 <g id="Layer_x0020_1">
  <metadata id="CorelCorpID_0Corel-Layer"/>
  <path class="fil0" d="M429 1408c62,0 137,-4 194,-30 39,-18 67,-47 65,-91 -1,-50 -58,-70 -100,-71 -57,0 -88,41 -88,97 0,31 -46,40 -71,40 -24,0 -70,-9 -70,-40 0,-56 -31,-97 -88,-97 -42,1 -99,21 -100,71 -2,44 26,73 64,91 56,25 132,30 194,30zm318 -513c68,-21 119,-93 115,-164 -5,-60 -49,-114 -126,-140 -73,-23 -157,-13 -198,-13 -26,0 -83,-11 -83,-46 0,-25 37,-46 82,-46 59,0 138,4 201,-17 70,-24 105,-79 104,-152 0,-71 -27,-124 -69,-161 -53,-45 -134,-65 -215,-65 -117,1 -204,39 -268,103 -75,75 -115,185 -125,313 -13,154 27,332 129,451 25,30 -12,54 -39,61 -42,11 -87,4 -116,-31 -106,-132 -150,-314 -137,-481 15,-179 83,-313 195,-398 92,-71 215,-108 361,-109 105,-1 222,21 310,76 80,50 136,127 137,241 0,97 -53,173 -140,213 97,33 151,113 154,198 4,96 -49,179 -123,223 72,39 123,120 125,206 3,106 -58,181 -139,233 -50,33 -108,59 -172,73 -94,21 -186,22 -281,23 -65,0 -163,-6 -244,-36 -83,-30 -144,-96 -143,-163 1,-38 21,-77 69,-107 40,-26 101,-39 160,-39 53,0 115,11 158,40 44,-29 105,-40 159,-40 59,0 120,13 160,39 49,30 69,69 69,107 0,11 -1,23 -5,34 41,-38 69,-112 66,-164 -4,-54 -34,-101 -92,-131 -80,-41 -165,-19 -248,-22 -26,-1 -83,-11 -83,-45 0,-26 37,-46 82,-46 68,0 144,2 210,-18z"/>
 </g>
</svg>
