<?xml version="1.0" encoding="UTF-8"?>
<!DOCTYPE svg PUBLIC "-//W3C//DTD SVG 1.1//EN" "http://www.w3.org/Graphics/SVG/1.1/DTD/svg11.dtd">
<!-- Creator: CorelDRAW X8 -->
<svg xmlns="http://www.w3.org/2000/svg" xml:space="preserve" width="1102px" height="1486px" version="1.1" style="shape-rendering:geometricPrecision; text-rendering:geometricPrecision; image-rendering:optimizeQuality; fill-rule:evenodd; clip-rule:evenodd"
viewBox="0 0 1102 1486"
 xmlns:xlink="http://www.w3.org/1999/xlink">
 <defs>
  <style type="text/css">
   <![CDATA[
    .fil0 {fill:#2B2A29;fill-rule:nonzero}
   ]]>
  </style>
 </defs>
 <g id="Layer_x0020_1">
  <metadata id="CorelCorpID_0Corel-Layer"/>
  <path class="fil0" d="M1102 934c0,-177 -81,-339 -230,-407 82,-41 133,-117 133,-210 0,-106 -48,-185 -137,-241 -86,-54 -207,-76 -310,-76 -131,0 -255,28 -361,109 -141,107 -197,284 -197,455 0,151 45,308 139,424 21,25 50,36 80,36 12,0 24,-2 36,-5 21,-5 47,-21 47,-41 0,-6 -2,-13 -8,-20 -90,-105 -131,-255 -131,-394 0,-131 32,-274 127,-370 64,-64 151,-102 268,-103 82,0 162,20 215,65 42,37 70,90 70,161 1,84 -43,130 -104,152 -34,12 -73,17 -112,17l-90 0c-45,0 -81,21 -81,46 0,35 56,46 82,46 33,0 58,-2 89,-2 32,0 69,2 101,11 157,43 233,192 234,347 0,137 -43,278 -127,357 0,-50 -29,-85 -69,-111 -40,-26 -101,-39 -161,-39 -53,0 -114,12 -158,40 -44,-28 -105,-40 -158,-40 -60,0 -120,13 -161,39 -38,24 -68,63 -68,110 0,65 60,130 143,161 81,29 179,35 243,35 88,0 174,-10 254,-34 119,-35 225,-102 305,-214 61,-85 97,-188 97,-304zm-656 474c-62,0 -137,-5 -193,-30 -38,-17 -65,-46 -65,-88 0,-52 57,-73 101,-73 58,0 87,41 87,96 0,31 47,40 71,40 24,0 71,-9 71,-40 0,-55 30,-96 85,-96 46,0 103,20 103,75 0,41 -27,70 -65,86 -57,26 -133,30 -195,30z"/>
 </g>
</svg>
