<?xml version="1.0" encoding="UTF-8"?>
<!DOCTYPE svg PUBLIC "-//W3C//DTD SVG 1.1//EN" "http://www.w3.org/Graphics/SVG/1.1/DTD/svg11.dtd">
<!-- Creator: CorelDRAW X8 -->
<svg xmlns="http://www.w3.org/2000/svg" xml:space="preserve" width="1102px" height="1486px" version="1.1" style="shape-rendering:geometricPrecision; text-rendering:geometricPrecision; image-rendering:optimizeQuality; fill-rule:evenodd; clip-rule:evenodd"
viewBox="0 0 1102 1486"
 xmlns:xlink="http://www.w3.org/1999/xlink">
 <defs>
  <style type="text/css">
   <![CDATA[
    .fil0 {fill:#CC6633;fill-rule:nonzero}
   ]]>
  </style>
 </defs>
 <g id="Layer_x0020_1">
  <metadata id="CorelCorpID_0Corel-Layer"/>
  <path class="fil0" d="M455 1225c-76,0 -136,10 -176,25 -43,17 -65,40 -65,63 -1,23 21,46 64,63 40,16 101,26 177,26 63,0 111,-7 149,-18 59,-17 88,-45 87,-71 0,-27 -28,-53 -85,-70 -39,-11 -87,-18 -151,-18zm83 -647c-26,0 -82,-11 -82,-46 0,-25 36,-46 81,-46 60,0 138,4 201,-17 70,-24 105,-78 105,-152 -1,-71 -28,-124 -70,-161 -53,-45 -133,-65 -215,-65 -117,1 -204,39 -268,103 -75,75 -115,185 -125,313 -13,154 27,332 129,451 5,7 8,13 8,20 0,17 -17,33 -47,41 -12,3 -24,5 -36,5 -30,0 -59,-11 -80,-36 -106,-131 -150,-314 -137,-481 15,-179 83,-313 195,-398 93,-71 215,-108 361,-109 105,-1 222,21 310,76 80,50 136,127 137,241 1,95 -50,169 -133,210 149,68 230,202 230,379 0,131 -34,239 -93,326 -73,109 -185,183 -315,223 -79,25 -156,30 -239,31 -67,1 -148,-7 -213,-25 -118,-31 -177,-90 -177,-148 0,-59 61,-118 182,-149 56,-15 127,-23 208,-23 75,0 136,7 189,19 69,16 174,56 193,129 89,-84 133,-239 118,-383 -13,-139 -83,-280 -227,-319 -65,-18 -124,-9 -190,-9z"/>
 </g>
</svg>
