<?xml version="1.0" encoding="UTF-8"?>
<!DOCTYPE svg PUBLIC "-//W3C//DTD SVG 1.1//EN" "http://www.w3.org/Graphics/SVG/1.1/DTD/svg11.dtd">
<!-- Creator: CorelDRAW X8 -->
<svg xmlns="http://www.w3.org/2000/svg" xml:space="preserve" width="1430px" height="1486px" version="1.1" style="shape-rendering:geometricPrecision; text-rendering:geometricPrecision; image-rendering:optimizeQuality; fill-rule:evenodd; clip-rule:evenodd"
viewBox="0 0 1430 1486"
 xmlns:xlink="http://www.w3.org/1999/xlink">
 <defs>
  <style type="text/css">
   <![CDATA[
    .fil0 {fill:#009846;fill-rule:nonzero}
   ]]>
  </style>
 </defs>
 <g id="Layer_x0020_1">
  <metadata id="CorelCorpID_0Corel-Layer"/>
  <path class="fil0" d="M899 578c-26,0 -82,-11 -82,-46 0,-25 36,-45 81,-45 60,0 138,4 201,-18 70,-24 105,-78 105,-152 -1,-71 -28,-124 -70,-161 -53,-45 -133,-65 -215,-65 -117,1 -204,39 -268,103 -75,75 -115,185 -125,313 -13,154 27,332 129,452 25,29 -12,53 -39,60 -42,11 -87,5 -116,-31 -101,-125 -151,-308 -137,-483 12,-155 74,-304 195,-396 92,-71 215,-108 361,-109 105,-1 222,21 310,76 80,50 136,127 137,241 1,95 -50,169 -133,210 145,66 196,227 197,378 1,160 -60,291 -157,388 -124,124 -308,192 -500,193 -265,2 -471,-116 -603,-298 -110,-152 -170,-347 -170,-556 -1,-246 92,-489 304,-617 31,-19 83,-20 115,-3 31,16 36,45 4,64 -186,113 -262,332 -259,556 1,169 44,345 131,486 100,162 258,278 478,280 169,1 309,-70 397,-186 62,-83 98,-188 100,-307 1,-142 -48,-277 -181,-316 -65,-19 -124,-11 -190,-11z"/>
 </g>
</svg>
