<?xml version="1.0" encoding="UTF-8"?>
<!DOCTYPE svg PUBLIC "-//W3C//DTD SVG 1.1//EN" "http://www.w3.org/Graphics/SVG/1.1/DTD/svg11.dtd">
<!-- Creator: CorelDRAW X8 -->
<svg xmlns="http://www.w3.org/2000/svg" xml:space="preserve" width="1021px" height="1486px" version="1.1" style="shape-rendering:geometricPrecision; text-rendering:geometricPrecision; image-rendering:optimizeQuality; fill-rule:evenodd; clip-rule:evenodd"
viewBox="0 0 1021 1486"
 xmlns:xlink="http://www.w3.org/1999/xlink">
 <defs>
  <style type="text/css">
   <![CDATA[
    .fil0 {fill:#009846;fill-rule:nonzero}
   ]]>
  </style>
 </defs>
 <g id="Layer_x0020_1">
  <metadata id="CorelCorpID_0Corel-Layer"/>
  <path class="fil0" d="M429 1225c-76,0 -137,10 -177,25 -43,17 -65,40 -65,62 -1,24 21,47 65,64 39,16 100,26 177,26 63,0 110,-7 148,-18 59,-18 88,-45 88,-72 -1,-26 -29,-52 -86,-69 -38,-11 -87,-18 -150,-18zm318 -330c68,-20 119,-93 114,-164 -4,-60 -48,-114 -126,-140 -72,-23 -156,-13 -197,-13 -26,0 -83,-11 -83,-46 0,-25 37,-46 82,-46 59,0 138,4 200,-17 71,-24 106,-78 105,-152 0,-71 -27,-124 -69,-161 -53,-45 -134,-65 -215,-65 -118,1 -204,39 -268,103 -75,75 -115,185 -126,313 -12,154 28,332 130,451 25,30 -13,54 -39,61 -42,11 -87,4 -116,-31 -107,-132 -150,-314 -137,-481 14,-178 83,-313 194,-398 93,-71 216,-108 362,-109 105,-1 222,21 310,76 80,50 136,127 137,241 0,97 -53,173 -140,213 97,33 151,113 154,198 4,97 -49,180 -123,223 72,39 123,120 125,206 3,125 -82,209 -185,259 -55,27 -111,43 -167,53 -78,14 -158,16 -240,17 -67,1 -149,-7 -213,-25 -119,-31 -178,-90 -178,-149 0,-59 61,-117 183,-149 55,-14 126,-22 208,-22 74,0 135,7 188,19 75,17 195,62 196,154 43,-36 68,-102 64,-157 -3,-54 -33,-101 -91,-130 -80,-42 -165,-20 -248,-23 -26,0 -83,-11 -83,-45 0,-25 37,-46 82,-46 68,0 144,2 210,-18z"/>
 </g>
</svg>
