<?xml version="1.0" encoding="UTF-8"?>
<!DOCTYPE svg PUBLIC "-//W3C//DTD SVG 1.1//EN" "http://www.w3.org/Graphics/SVG/1.1/DTD/svg11.dtd">
<!-- Creator: CorelDRAW X8 -->
<svg xmlns="http://www.w3.org/2000/svg" xml:space="preserve" width="2158px" height="1486px" version="1.1" style="shape-rendering:geometricPrecision; text-rendering:geometricPrecision; image-rendering:optimizeQuality; fill-rule:evenodd; clip-rule:evenodd"
viewBox="0 0 2158 1486"
 xmlns:xlink="http://www.w3.org/1999/xlink">
 <defs>
  <style type="text/css">
   <![CDATA[
    .fil0 {fill:#009846;fill-rule:nonzero}
   ]]>
  </style>
 </defs>
 <g id="Layer_x0020_1">
  <metadata id="CorelCorpID_0Corel-Layer"/>
  <path class="fil0" d="M1350 1225c-76,0 -137,10 -177,25 -43,17 -64,40 -65,63 0,23 21,46 65,63 40,16 100,26 177,26 63,0 111,-7 149,-18 58,-17 87,-44 87,-71 0,-27 -29,-53 -86,-70 -38,-11 -86,-18 -150,-18zm-879 -265c-31,-14 -44,-42 -12,-63 30,-21 81,-22 114,-7 36,16 82,25 121,25 99,-2 170,-75 163,-171 -4,-67 -48,-129 -121,-153 -72,-24 -157,-14 -198,-14 -26,0 -82,-11 -82,-46 0,-25 36,-45 81,-45 60,0 139,4 201,-18 70,-24 106,-76 105,-150 -1,-62 -21,-119 -70,-162 -53,-45 -133,-65 -214,-65 -118,1 -204,39 -269,103 -74,74 -115,184 -125,312 -12,154 28,333 129,452 25,29 -12,53 -39,60 -40,10 -87,4 -115,-30 -107,-132 -151,-315 -137,-482 14,-178 82,-312 194,-397 93,-71 216,-108 362,-109 104,-1 221,21 309,76 92,57 136,139 137,242 1,97 -52,171 -139,212 89,41 156,112 156,214 0,68 -33,137 -95,187 69,-4 138,-16 194,-40 103,-45 144,-120 144,-227l0 -616c0,-25 36,-46 81,-46 45,0 82,21 82,46l0 615c0,150 71,271 233,271 131,0 237,-96 283,-214 27,-67 37,-142 36,-215 -3,-158 -67,-355 -223,-421 -31,-13 -47,-41 -16,-64 32,-23 83,-22 118,-6 112,49 188,138 233,243 50,118 67,288 66,411 -1,77 -8,155 -22,230 -36,191 -122,367 -302,474 -84,50 -196,83 -307,100 -62,9 -123,14 -180,14 -68,0 -144,-7 -210,-25 -119,-31 -178,-90 -177,-148 0,-59 61,-118 182,-149 56,-14 127,-23 208,-23 75,0 136,7 189,20 75,17 213,70 194,170 154,-89 228,-249 248,-420 -86,75 -200,114 -320,114 -140,0 -256,-45 -326,-134 -32,29 -71,53 -114,72 -104,45 -232,61 -353,61 -116,0 -290,-14 -397,-64z"/>
 </g>
</svg>
