<?xml version="1.0" encoding="UTF-8"?>
<!DOCTYPE svg PUBLIC "-//W3C//DTD SVG 1.1//EN" "http://www.w3.org/Graphics/SVG/1.1/DTD/svg11.dtd">
<!-- Creator: CorelDRAW X8 -->
<svg xmlns="http://www.w3.org/2000/svg" xml:space="preserve" width="1020px" height="1486px" version="1.1" style="shape-rendering:geometricPrecision; text-rendering:geometricPrecision; image-rendering:optimizeQuality; fill-rule:evenodd; clip-rule:evenodd"
viewBox="0 0 1020 1486"
 xmlns:xlink="http://www.w3.org/1999/xlink">
 <defs>
  <style type="text/css">
   <![CDATA[
    .fil0 {fill:#434242;fill-rule:nonzero}
   ]]>
  </style>
 </defs>
 <g id="Layer_x0020_1">
  <metadata id="CorelCorpID_0Corel-Layer"/>
  <path class="fil0" d="M599 1486c211,0 421,-87 422,-327 0,-83 -39,-162 -128,-206 74,-42 127,-118 127,-212 0,-97 -64,-180 -154,-211 86,-40 139,-115 139,-210 0,-106 -48,-188 -137,-244 -87,-54 -207,-76 -309,-76 -131,0 -257,28 -363,109 -141,108 -197,287 -197,459 0,149 47,304 140,420 21,25 49,36 80,36 12,0 24,-2 36,-5 20,-5 46,-21 46,-41 0,-6 -2,-13 -8,-20 -89,-105 -131,-257 -131,-397 0,-129 34,-273 127,-367 65,-65 152,-103 270,-103 80,0 161,20 214,65 49,42 70,100 70,164 0,88 -47,132 -111,152 -35,10 -74,14 -115,14l-80 0c-46,0 -82,21 -82,46 0,35 56,46 82,46 20,0 48,-2 80,-2 38,0 80,2 118,15 69,22 127,74 127,150 0,83 -53,131 -120,154 -33,12 -80,18 -125,18 -29,0 -57,0 -80,0 -46,0 -82,21 -82,46 0,34 56,43 82,43 25,0 52,0 80,0 45,0 92,-1 129,14 64,24 112,76 112,155 0,138 -130,229 -259,229 -106,0 -214,-46 -288,-122 -15,-16 -44,-23 -71,-23 -14,0 -28,2 -39,5 -20,7 -42,22 -42,41 0,6 4,14 10,21 107,109 274,164 430,164z"/>
 </g>
</svg>
