<?xml version="1.0" encoding="UTF-8"?>
<!DOCTYPE svg PUBLIC "-//W3C//DTD SVG 1.1//EN" "http://www.w3.org/Graphics/SVG/1.1/DTD/svg11.dtd">
<!-- Creator: CorelDRAW X8 -->
<svg xmlns="http://www.w3.org/2000/svg" xml:space="preserve" width="2142px" height="1024px" version="1.1" style="shape-rendering:geometricPrecision; text-rendering:geometricPrecision; image-rendering:optimizeQuality; fill-rule:evenodd; clip-rule:evenodd"
viewBox="0 0 2142 1024"
 xmlns:xlink="http://www.w3.org/1999/xlink">
 <defs>
  <style type="text/css">
   <![CDATA[
    .fil0 {fill:#009846;fill-rule:nonzero}
   ]]>
  </style>
 </defs>
 <g id="Layer_x0020_1">
  <metadata id="CorelCorpID_0Corel-Layer"/>
  <path class="fil0" d="M470 960c-31,-14 -43,-43 -12,-64 30,-21 82,-22 115,-7 36,17 82,26 121,25 99,-2 170,-74 163,-171 -5,-67 -48,-129 -121,-153 -72,-23 -157,-13 -198,-13 -26,0 -82,-11 -82,-46 0,-25 36,-46 81,-46 60,0 138,4 201,-17 70,-24 105,-76 105,-150 -1,-62 -21,-120 -70,-162 -53,-45 -133,-65 -215,-65 -117,1 -204,39 -268,103 -75,74 -115,184 -125,312 -13,154 27,333 129,452 25,30 -12,54 -39,61 -42,11 -87,4 -116,-31 -106,-131 -150,-316 -137,-482 15,-178 83,-312 195,-397 92,-71 215,-108 361,-109 105,-1 222,21 310,76 91,57 136,139 137,242 1,97 -52,171 -139,211 89,42 156,113 155,214 0,69 -32,137 -95,187 70,-4 139,-16 195,-40 103,-45 144,-120 144,-227l0 -615c0,-25 36,-46 81,-46 45,0 82,21 82,46l0 615c0,149 70,270 232,270 131,0 238,-96 284,-213 26,-67 36,-142 35,-215 -2,-158 -67,-355 -223,-421 -30,-13 -46,-41 -15,-64 32,-23 83,-22 118,-6 195,85 280,291 283,492 1,91 -14,181 -51,260 -79,168 -248,258 -431,258 -140,0 -256,-45 -325,-134 -32,29 -71,53 -114,72 -105,45 -232,61 -353,61 -117,0 -290,-14 -398,-63z"/>
 </g>
</svg>
