<?xml version="1.0" encoding="UTF-8"?>
<!DOCTYPE svg PUBLIC "-//W3C//DTD SVG 1.1//EN" "http://www.w3.org/Graphics/SVG/1.1/DTD/svg11.dtd">
<!-- Creator: CorelDRAW X8 -->
<svg xmlns="http://www.w3.org/2000/svg" xml:space="preserve" width="2476px" height="1486px" version="1.1" style="shape-rendering:geometricPrecision; text-rendering:geometricPrecision; image-rendering:optimizeQuality; fill-rule:evenodd; clip-rule:evenodd"
viewBox="0 0 2476 1486"
 xmlns:xlink="http://www.w3.org/1999/xlink">
 <defs>
  <style type="text/css">
   <![CDATA[
    .fil0 {fill:#669933;fill-rule:nonzero}
   ]]>
  </style>
 </defs>
 <g id="Layer_x0020_1">
  <metadata id="CorelCorpID_0Corel-Layer"/>
  <path class="fil0" d="M804 962c-35,-16 -40,-45 -12,-64 28,-20 80,-22 114,-7 36,17 82,26 122,25 98,-2 169,-74 163,-171 -5,-67 -48,-129 -122,-153 -72,-24 -156,-14 -197,-14 -26,0 -83,-11 -83,-46 0,-25 37,-45 82,-45 59,0 138,4 200,-18 71,-24 106,-77 105,-150 0,-63 -20,-120 -69,-163 -53,-45 -134,-65 -215,-65 -118,1 -204,39 -268,103 -75,75 -115,185 -126,313 -12,154 28,332 130,452 19,22 1,49 -39,60 -43,11 -88,4 -116,-31 -107,-131 -150,-314 -137,-481 14,-178 83,-313 194,-398 93,-71 216,-108 362,-109 105,-1 222,21 310,76 91,57 136,140 137,243 1,97 -53,171 -140,211 89,42 156,113 156,215 0,69 -33,137 -95,187 70,-4 139,-16 194,-40 104,-45 144,-120 144,-227l0 -617c0,-25 37,-46 82,-46 45,0 81,21 81,46l0 616c0,150 71,271 233,271 131,0 237,-96 284,-214 26,-67 36,-142 35,-215 -2,-158 -67,-356 -223,-422 -35,-15 -42,-44 -15,-64 32,-23 83,-22 118,-6 194,85 280,292 283,493 1,85 -6,167 -22,245 -37,174 -121,330 -266,457 -211,186 -514,272 -843,277 -314,5 -637,-39 -891,-174 -288,-153 -455,-409 -454,-735 1,-218 85,-435 271,-561 28,-19 80,-22 114,-5 34,16 39,44 10,64 -162,109 -231,313 -232,502 -2,293 143,530 403,669 218,116 500,153 776,149 275,-4 530,-77 709,-234 58,-51 108,-109 148,-176 -63,27 -133,41 -205,41 -140,0 -256,-45 -326,-134 -31,30 -70,53 -114,72 -104,45 -231,61 -352,61 -117,0 -290,-14 -398,-63z"/>
 </g>
</svg>
