<?xml version="1.0" encoding="UTF-8"?>
<!DOCTYPE svg PUBLIC "-//W3C//DTD SVG 1.1//EN" "http://www.w3.org/Graphics/SVG/1.1/DTD/svg11.dtd">
<!-- Creator: CorelDRAW X8 -->
<svg xmlns="http://www.w3.org/2000/svg" xml:space="preserve" width="2158px" height="1486px" version="1.1" style="shape-rendering:geometricPrecision; text-rendering:geometricPrecision; image-rendering:optimizeQuality; fill-rule:evenodd; clip-rule:evenodd"
viewBox="0 0 2158 1486"
 xmlns:xlink="http://www.w3.org/1999/xlink">
 <defs>
  <style type="text/css">
   <![CDATA[
    .fil0 {fill:#434242;fill-rule:nonzero}
   ]]>
  </style>
 </defs>
 <g id="Layer_x0020_1">
  <metadata id="CorelCorpID_0Corel-Layer"/>
  <path class="fil0" d="M1350 1486c73,0 154,-7 234,-23 90,-19 179,-49 250,-91 180,-107 266,-283 302,-474 15,-78 22,-160 22,-240 0,-122 -17,-286 -66,-401 -45,-105 -121,-194 -233,-243 -16,-7 -36,-12 -56,-12 -23,0 -45,6 -62,18 -12,9 -17,18 -17,27 0,15 14,29 33,37 160,67 223,271 223,431 0,70 -10,141 -36,205 -46,118 -152,214 -283,214 -162,0 -233,-121 -233,-271l0 -615c0,-25 -37,-46 -82,-46 -45,0 -81,21 -81,46l0 616c0,107 -41,182 -144,227 -56,24 -125,36 -194,40 62,-50 95,-119 95,-187 0,-102 -67,-173 -156,-214 86,-41 139,-114 139,-209 0,-107 -47,-189 -137,-245 -86,-54 -207,-76 -309,-76 -131,0 -256,28 -362,109 -141,107 -197,286 -197,458 0,149 46,305 140,421 20,24 50,34 80,34 12,0 24,-1 35,-4 21,-5 47,-21 47,-41 0,-6 -2,-12 -8,-19 -89,-105 -131,-258 -131,-398 0,-129 33,-273 127,-366 65,-65 151,-103 269,-103 81,0 161,19 214,65 49,42 70,101 70,165 0,84 -47,128 -109,148 -36,12 -78,17 -118,17l-79 0c-45,0 -81,20 -81,45 0,35 56,46 82,46 19,0 46,-2 78,-2 38,0 81,3 120,16 74,24 121,75 121,153 0,90 -69,169 -163,171 -39,0 -85,-9 -121,-25 -15,-7 -33,-10 -51,-10 -23,0 -46,5 -63,17 -13,8 -19,18 -19,28 0,13 13,27 31,35 107,50 281,64 397,64 121,0 249,-16 353,-61 43,-19 82,-43 114,-72 70,89 186,134 326,134 120,0 234,-39 320,-114 -20,171 -94,331 -248,420 0,-94 -80,-142 -173,-166 -73,-20 -154,-24 -210,-24 -81,0 -152,9 -208,23 -121,31 -182,90 -182,149 0,85 110,130 177,148 66,18 142,25 213,25zm0 -84c-165,0 -242,-45 -242,-89 0,-45 86,-88 242,-88 155,0 236,46 236,88 0,42 -73,89 -236,89z"/>
 </g>
</svg>
