<?xml version="1.0" encoding="UTF-8"?>
<!DOCTYPE svg PUBLIC "-//W3C//DTD SVG 1.1//EN" "http://www.w3.org/Graphics/SVG/1.1/DTD/svg11.dtd">
<!-- Creator: CorelDRAW X8 -->
<svg xmlns="http://www.w3.org/2000/svg" xml:space="preserve" width="2158px" height="1486px" version="1.1" style="shape-rendering:geometricPrecision; text-rendering:geometricPrecision; image-rendering:optimizeQuality; fill-rule:evenodd; clip-rule:evenodd"
viewBox="0 0 2158 1486"
 xmlns:xlink="http://www.w3.org/1999/xlink">
 <defs>
  <style type="text/css">
   <![CDATA[
    .fil0 {fill:#CC6633;fill-rule:nonzero}
   ]]>
  </style>
 </defs>
 <g id="Layer_x0020_1">
  <metadata id="CorelCorpID_0Corel-Layer"/>
  <path class="fil0" d="M1346 1408c62,0 138,-4 195,-30 38,-17 66,-47 65,-90 -2,-50 -58,-71 -101,-71 -57,0 -88,40 -88,97 1,30 -46,40 -70,40 -24,0 -71,-10 -71,-40 0,-57 -31,-97 -88,-97 -42,0 -98,21 -100,71 -2,43 26,73 65,90 56,25 131,30 193,30zm-875 -447c-20,-10 -31,-23 -30,-36 0,-10 6,-20 18,-28 16,-11 39,-17 62,-17 19,0 37,3 52,10 36,16 82,25 121,25 99,-2 170,-75 163,-171 -4,-67 -48,-129 -121,-153 -72,-24 -157,-14 -198,-14 -26,0 -82,-11 -82,-46 0,-25 36,-45 81,-45 60,0 139,4 201,-18 70,-24 106,-76 105,-150 -1,-62 -21,-119 -70,-162 -53,-45 -133,-65 -214,-65 -118,1 -204,39 -269,103 -74,74 -115,184 -125,312 -12,154 28,332 129,451 6,6 8,13 8,20 0,17 -17,33 -47,41 -11,3 -23,4 -35,4 -31,1 -60,-10 -80,-35 -107,-132 -151,-314 -137,-481 14,-178 82,-312 194,-397 93,-71 216,-108 362,-109 104,-1 221,21 309,76 92,57 136,139 137,242 1,97 -52,171 -139,212 89,41 156,112 156,214 0,68 -33,137 -95,187 69,-4 138,-16 194,-40 103,-45 144,-120 144,-227l0 -616c0,-25 36,-46 81,-46 45,0 82,21 82,46l0 615c0,150 71,271 233,271 131,0 237,-96 283,-214 27,-67 37,-142 36,-215 -3,-158 -67,-355 -223,-421 -21,-9 -32,-22 -32,-36 -1,-10 5,-19 16,-28 17,-12 40,-18 63,-18 19,0 39,4 55,12 142,62 226,188 262,330 26,99 38,211 37,324 -1,77 -8,155 -22,230 -36,191 -122,367 -302,474 -84,50 -196,83 -307,100 -62,9 -123,14 -180,14 -79,1 -170,-8 -244,-35 -84,-31 -144,-96 -143,-163 0,-38 21,-78 68,-108 40,-25 101,-38 160,-38 54,0 115,11 159,40 44,-29 105,-40 158,-40 60,0 120,13 160,38 49,31 69,69 70,108 0,16 -4,32 -11,48 158,-89 235,-241 257,-425 -86,75 -200,114 -320,114 -140,0 -256,-45 -326,-134 -32,29 -71,53 -114,72 -104,45 -232,61 -353,61 -116,0 -290,-14 -397,-63z"/>
 </g>
</svg>
