<?xml version="1.0" encoding="UTF-8"?>
<!DOCTYPE svg PUBLIC "-//W3C//DTD SVG 1.1//EN" "http://www.w3.org/Graphics/SVG/1.1/DTD/svg11.dtd">
<!-- Creator: CorelDRAW X8 -->
<svg xmlns="http://www.w3.org/2000/svg" xml:space="preserve" width="1592px" height="1024px" version="1.1" style="shape-rendering:geometricPrecision; text-rendering:geometricPrecision; image-rendering:optimizeQuality; fill-rule:evenodd; clip-rule:evenodd"
viewBox="0 0 1592 1024"
 xmlns:xlink="http://www.w3.org/1999/xlink">
 <defs>
  <style type="text/css">
   <![CDATA[
    .fil0 {fill:#434242;fill-rule:nonzero}
   ]]>
  </style>
 </defs>
 <g id="Layer_x0020_1">
  <metadata id="CorelCorpID_0Corel-Layer"/>
  <path class="fil0" d="M1110 1024c183,0 352,-90 431,-259 36,-77 51,-164 51,-253 0,-204 -87,-414 -283,-501 -16,-7 -36,-11 -55,-11 -23,0 -46,6 -63,18 -12,9 -17,18 -17,27 0,15 13,29 32,37 160,68 223,270 223,430 0,70 -10,143 -35,207 -47,118 -153,214 -284,214 -162,0 -233,-115 -233,-265l0 -622c0,-25 -36,-46 -81,-46 -45,0 -81,21 -81,46l0 622c0,150 -72,265 -233,265 -131,0 -237,-96 -284,-214 -25,-64 -35,-137 -35,-207 0,-160 63,-362 223,-430 19,-8 32,-22 32,-37 0,-9 -5,-18 -17,-27 -17,-12 -40,-18 -63,-18 -19,0 -39,4 -55,11 -196,87 -283,297 -283,501 0,89 15,176 51,253 79,169 248,259 431,259 132,0 244,-38 314,-117 70,79 182,117 314,117z"/>
 </g>
</svg>
