<?xml version="1.0" encoding="UTF-8"?>
<!DOCTYPE svg PUBLIC "-//W3C//DTD SVG 1.1//EN" "http://www.w3.org/Graphics/SVG/1.1/DTD/svg11.dtd">
<!-- Creator: CorelDRAW X8 -->
<svg xmlns="http://www.w3.org/2000/svg" xml:space="preserve" width="1592px" height="1024px" version="1.1" style="shape-rendering:geometricPrecision; text-rendering:geometricPrecision; image-rendering:optimizeQuality; fill-rule:evenodd; clip-rule:evenodd"
viewBox="0 0 1592 1024"
 xmlns:xlink="http://www.w3.org/1999/xlink">
 <defs>
  <style type="text/css">
   <![CDATA[
    .fil0 {fill:#CC6633;fill-rule:nonzero}
   ]]>
  </style>
 </defs>
 <g id="Layer_x0020_1">
  <metadata id="CorelCorpID_0Corel-Layer"/>
  <path class="fil0" d="M1206 82c-21,-9 -32,-23 -32,-36 0,-10 5,-20 17,-28 17,-13 40,-18 63,-18 19,0 39,4 55,11 194,86 280,291 283,493 1,91 -14,182 -51,261 -79,169 -248,259 -431,259 -132,0 -244,-38 -314,-117 -70,79 -182,117 -314,117 -183,0 -352,-90 -431,-259 -37,-79 -52,-170 -51,-261 3,-202 89,-407 283,-493 16,-7 36,-11 56,-11 22,0 45,5 62,18 11,8 17,18 17,27 0,14 -11,28 -32,37 -156,66 -221,264 -223,422 -1,73 9,148 35,215 47,118 153,214 284,214 161,0 233,-115 233,-265l0 -622c0,-25 36,-46 81,-46 45,0 81,21 81,46l0 622c0,150 71,265 233,265 131,0 237,-96 284,-214 26,-67 36,-142 35,-215 -2,-158 -67,-356 -223,-422z"/>
 </g>
</svg>
