<?xml version="1.0" encoding="UTF-8"?>
<!DOCTYPE svg PUBLIC "-//W3C//DTD SVG 1.1//EN" "http://www.w3.org/Graphics/SVG/1.1/DTD/svg11.dtd">
<!-- Creator: CorelDRAW X8 -->
<svg xmlns="http://www.w3.org/2000/svg" xml:space="preserve" width="989px" height="868px" version="1.1" style="shape-rendering:geometricPrecision; text-rendering:geometricPrecision; image-rendering:optimizeQuality; fill-rule:evenodd; clip-rule:evenodd"
viewBox="0 0 989 868"
 xmlns:xlink="http://www.w3.org/1999/xlink">
 <defs>
  <style type="text/css">
   <![CDATA[
    .fil0 {fill:#434242;fill-rule:nonzero}
   ]]>
  </style>
 </defs>
 <g id="Layer_x0020_1">
  <metadata id="CorelCorpID_0Corel-Layer"/>
  <path class="fil0" d="M492 868c50,0 102,-5 152,-15 115,-24 209,-69 274,-173 53,-86 71,-195 71,-296 0,-146 -31,-313 -181,-376 -12,-5 -27,-8 -44,-8 -18,0 -37,4 -49,13 -7,5 -11,11 -11,16 0,9 9,18 21,23 96,39 132,156 132,251 0,39 -6,81 -21,117 -25,62 -87,121 -158,121 -88,0 -127,-70 -127,-151l0 -360c0,-24 -44,-30 -61,-30 -17,0 -62,6 -62,30l0 360c0,81 -39,151 -127,151 -71,0 -132,-59 -157,-121 -16,-39 -22,-75 -22,-117 0,-103 41,-214 132,-251 13,-5 22,-14 22,-23 0,-5 -4,-11 -11,-16 -12,-9 -31,-13 -50,-13 -16,0 -32,3 -44,8 -119,50 -171,172 -171,295 0,49 9,99 31,144 50,104 158,153 270,153 66,0 138,-13 189,-58 50,45 123,58 188,58 62,0 125,-14 177,-48 -14,82 -51,157 -120,206 -6,-50 -80,-75 -121,-84 -40,-9 -81,-12 -122,-12 -44,0 -91,3 -134,14 -40,10 -113,37 -113,88 0,51 70,78 110,89 43,11 91,15 137,15zm0 -55c-91,0 -133,-25 -133,-49 0,-24 47,-47 133,-47 85,0 129,24 129,47 0,23 -40,49 -129,49z"/>
 </g>
</svg>
