<?xml version="1.0" encoding="UTF-8"?>
<!DOCTYPE svg PUBLIC "-//W3C//DTD SVG 1.1//EN" "http://www.w3.org/Graphics/SVG/1.1/DTD/svg11.dtd">
<!-- Creator: CorelDRAW X8 -->
<svg xmlns="http://www.w3.org/2000/svg" xml:space="preserve" width="1974px" height="1486px" version="1.1" style="shape-rendering:geometricPrecision; text-rendering:geometricPrecision; image-rendering:optimizeQuality; fill-rule:evenodd; clip-rule:evenodd"
viewBox="0 0 1974 1486"
 xmlns:xlink="http://www.w3.org/1999/xlink">
 <defs>
  <style type="text/css">
   <![CDATA[
    .fil0 {fill:#009846;fill-rule:nonzero}
   ]]>
  </style>
 </defs>
 <g id="Layer_x0020_1">
  <metadata id="CorelCorpID_0Corel-Layer"/>
  <path class="fil0" d="M1571 81c-30,-12 -46,-41 -15,-63 31,-23 84,-22 118,-7 124,54 201,159 246,279 42,112 56,239 54,353 -7,341 -183,581 -428,715 -150,82 -326,125 -505,128 -254,4 -512,-75 -714,-237 -198,-159 -327,-392 -327,-683 0,-214 72,-422 251,-549 29,-21 81,-22 114,-7 31,13 45,41 14,64 -159,112 -217,302 -217,490 0,234 89,433 235,578 171,169 411,257 644,254 156,-2 308,-44 437,-126 115,-75 211,-183 271,-325 -79,52 -174,79 -274,79 -132,0 -243,-39 -314,-117 -70,78 -181,117 -314,117 -182,0 -352,-91 -430,-259 -37,-79 -53,-171 -51,-262 2,-201 88,-407 282,-492 36,-15 87,-17 119,7 30,22 14,51 -16,63 -156,67 -220,264 -223,422 -1,73 9,149 36,216 46,117 152,213 283,213 161,0 233,-114 233,-265l0 -621c0,-26 36,-46 81,-46 45,0 82,20 82,46l0 621c0,150 71,265 232,265 131,0 238,-96 284,-213 26,-67 36,-143 35,-216 -2,-158 -67,-355 -223,-422z"/>
 </g>
</svg>
