<?xml version="1.0" encoding="UTF-8"?>
<!DOCTYPE svg PUBLIC "-//W3C//DTD SVG 1.1//EN" "http://www.w3.org/Graphics/SVG/1.1/DTD/svg11.dtd">
<!-- Creator: CorelDRAW X8 -->
<svg xmlns="http://www.w3.org/2000/svg" xml:space="preserve" width="1607px" height="1486px" version="1.1" style="shape-rendering:geometricPrecision; text-rendering:geometricPrecision; image-rendering:optimizeQuality; fill-rule:evenodd; clip-rule:evenodd"
viewBox="0 0 1607 1486"
 xmlns:xlink="http://www.w3.org/1999/xlink">
 <defs>
  <style type="text/css">
   <![CDATA[
    .fil0 {fill:#434242;fill-rule:nonzero}
   ]]>
  </style>
 </defs>
 <g id="Layer_x0020_1">
  <metadata id="CorelCorpID_0Corel-Layer"/>
  <path class="fil0" d="M799 1486c75,0 154,-8 227,-23 94,-18 186,-49 257,-91 180,-107 267,-283 303,-475 16,-82 21,-166 21,-249 0,-121 -18,-281 -66,-393 -45,-105 -120,-195 -232,-244 -16,-7 -36,-11 -56,-11 -23,0 -46,5 -63,18 -11,8 -16,18 -16,27 0,15 13,29 32,37 160,68 223,272 223,432 0,70 -9,141 -35,205 -46,118 -153,214 -284,214 -162,0 -233,-115 -233,-265l0 -622c0,-25 -36,-46 -81,-46 -45,0 -82,21 -82,46l0 622c0,150 -71,265 -232,265 -131,0 -238,-96 -284,-214 -25,-64 -35,-135 -35,-205 0,-160 63,-364 223,-432 19,-8 32,-22 32,-37 0,-9 -5,-18 -17,-27 -17,-12 -40,-18 -63,-18 -19,0 -39,4 -55,11 -197,86 -283,297 -283,501 0,89 15,176 51,253 79,169 248,259 431,259 132,0 243,-38 314,-117 70,79 182,117 314,117 116,0 232,-37 321,-113 -21,170 -95,330 -249,419 2,-8 2,-16 2,-24 0,-90 -123,-129 -196,-146 -53,-12 -114,-19 -189,-19 -81,0 -152,8 -208,22 -121,32 -182,90 -182,149 0,59 59,118 177,149 66,18 143,25 213,25zm0 -84c-164,0 -242,-45 -242,-89 0,-45 86,-88 242,-88 156,0 237,46 237,88 0,42 -73,89 -237,89z"/>
 </g>
</svg>
