<?xml version="1.0" encoding="UTF-8"?>
<!DOCTYPE svg PUBLIC "-//W3C//DTD SVG 1.1//EN" "http://www.w3.org/Graphics/SVG/1.1/DTD/svg11.dtd">
<!-- Creator: CorelDRAW X8 -->
<svg xmlns="http://www.w3.org/2000/svg" xml:space="preserve" width="1607px" height="1486px" version="1.1" style="shape-rendering:geometricPrecision; text-rendering:geometricPrecision; image-rendering:optimizeQuality; fill-rule:evenodd; clip-rule:evenodd"
viewBox="0 0 1607 1486"
 xmlns:xlink="http://www.w3.org/1999/xlink">
 <defs>
  <style type="text/css">
   <![CDATA[
    .fil0 {fill:#434242;fill-rule:nonzero}
   ]]>
  </style>
 </defs>
 <g id="Layer_x0020_1">
  <metadata id="CorelCorpID_0Corel-Layer"/>
  <path class="fil0" d="M795 1486c93,0 192,-12 283,-34 75,-19 147,-45 205,-80 180,-107 267,-283 303,-475 15,-80 21,-162 21,-243 0,-109 -12,-217 -36,-311 -37,-143 -121,-269 -262,-332 -16,-7 -36,-11 -55,-11 -23,0 -46,6 -63,18 -12,9 -17,18 -17,27 0,15 13,29 32,37 160,68 223,272 223,432 0,70 -9,141 -35,205 -46,118 -153,214 -284,214 -162,0 -233,-115 -233,-265l0 -622c0,-25 -36,-46 -81,-46 -45,0 -82,21 -82,46l0 622c0,150 -71,265 -232,265 -131,0 -238,-96 -284,-214 -25,-64 -35,-135 -35,-205 0,-160 63,-364 223,-432 19,-8 32,-22 32,-37 0,-9 -5,-18 -17,-27 -17,-12 -40,-18 -63,-18 -19,0 -39,4 -55,11 -197,86 -283,297 -283,501 0,89 15,176 51,253 79,169 248,259 431,259 132,0 243,-38 314,-117 70,79 182,117 314,117 116,0 232,-37 321,-113 -23,183 -100,336 -257,424 6,-15 10,-31 10,-47 0,-39 -21,-77 -69,-108 -40,-26 -101,-39 -161,-39 -53,0 -114,12 -158,40 -44,-28 -105,-40 -158,-40 -60,0 -121,13 -161,39 -39,25 -68,62 -68,110 0,65 60,130 143,161 78,29 162,35 243,35zm0 -78c-62,0 -137,-5 -193,-30 -38,-17 -65,-46 -65,-88 0,-52 57,-73 101,-73 58,0 87,41 87,96 0,31 47,40 71,40 24,0 71,-9 71,-40 0,-55 29,-96 87,-96 44,0 101,21 101,73 0,42 -27,71 -65,88 -57,26 -133,30 -195,30z"/>
 </g>
</svg>
