<?xml version="1.0" encoding="UTF-8"?>
<!DOCTYPE svg PUBLIC "-//W3C//DTD SVG 1.1//EN" "http://www.w3.org/Graphics/SVG/1.1/DTD/svg11.dtd">
<!-- Creator: CorelDRAW X8 -->
<svg xmlns="http://www.w3.org/2000/svg" xml:space="preserve" width="989px" height="868px" version="1.1" style="shape-rendering:geometricPrecision; text-rendering:geometricPrecision; image-rendering:optimizeQuality; fill-rule:evenodd; clip-rule:evenodd"
viewBox="0 0 989 868"
 xmlns:xlink="http://www.w3.org/1999/xlink">
 <defs>
  <style type="text/css">
   <![CDATA[
    .fil0 {fill:#009846;fill-rule:nonzero}
   ]]>
  </style>
 </defs>
 <g id="Layer_x0020_1">
  <metadata id="CorelCorpID_0Corel-Layer"/>
  <path class="fil0" d="M490 817c34,0 74,-2 106,-16 21,-10 38,-26 37,-51 -1,-23 -26,-39 -48,-38 -27,1 -40,28 -40,52 0,23 -38,27 -55,27 -16,0 -55,-4 -55,-27 0,-25 -14,-52 -42,-52 -21,0 -45,15 -46,38 -1,25 16,41 37,51 32,13 72,16 106,16zm188 -217c-65,0 -138,-13 -188,-58 -51,45 -123,58 -189,58 -112,0 -220,-49 -270,-153 -23,-47 -32,-100 -31,-152 2,-121 56,-238 171,-287 26,-11 71,-12 94,5 20,14 9,31 -11,39 -91,38 -130,152 -132,243 0,42 6,86 22,125 25,62 86,121 157,121 88,0 127,-65 127,-151l0 -360c0,-24 45,-30 62,-30 17,0 61,6 61,30l0 360c0,81 39,151 127,151 71,0 133,-59 158,-121 16,-39 22,-83 21,-125 -1,-91 -40,-205 -132,-243 -19,-8 -30,-25 -10,-39 23,-17 68,-16 93,-5 151,64 183,235 181,382 -1,45 -4,90 -13,133 -22,117 -77,216 -182,277 -56,32 -126,50 -190,59 -37,6 -75,9 -113,9 -52,0 -109,-5 -158,-22 -40,-14 -88,-49 -88,-96 1,-28 19,-50 42,-64 30,-18 74,-24 108,-24 31,0 67,5 95,19 28,-14 64,-19 95,-19 30,0 66,4 96,18 31,14 58,41 54,78 70,-49 106,-123 120,-206 -52,34 -115,48 -177,48z"/>
 </g>
</svg>
