<?xml version="1.0" encoding="UTF-8"?>
<!DOCTYPE svg PUBLIC "-//W3C//DTD SVG 1.1//EN" "http://www.w3.org/Graphics/SVG/1.1/DTD/svg11.dtd">
<!-- Creator: CorelDRAW X8 -->
<svg xmlns="http://www.w3.org/2000/svg" xml:space="preserve" width="1974px" height="1486px" version="1.1" style="shape-rendering:geometricPrecision; text-rendering:geometricPrecision; image-rendering:optimizeQuality; fill-rule:evenodd; clip-rule:evenodd"
viewBox="0 0 1974 1486"
 xmlns:xlink="http://www.w3.org/1999/xlink">
 <defs>
  <style type="text/css">
   <![CDATA[
    .fil0 {fill:#CC6633;fill-rule:nonzero}
   ]]>
  </style>
 </defs>
 <g id="Layer_x0020_1">
  <metadata id="CorelCorpID_0Corel-Layer"/>
  <path class="fil0" d="M1571 82c-35,-16 -42,-44 -15,-64 32,-24 83,-22 118,-7 124,55 201,159 246,280 42,112 56,238 54,352 -7,341 -183,581 -428,715 -150,83 -326,126 -505,128 -254,4 -512,-75 -714,-237 -198,-159 -327,-391 -327,-683 0,-213 72,-422 251,-549 27,-19 79,-23 114,-7 35,15 41,44 14,64 -159,112 -217,302 -217,490 0,234 89,433 235,578 171,170 411,257 644,254 156,-2 308,-43 437,-126 115,-74 211,-182 271,-325 -79,52 -174,79 -274,79 -132,0 -243,-39 -314,-117 -70,78 -181,117 -314,117 -182,0 -352,-91 -430,-259 -37,-79 -53,-170 -51,-261 2,-202 88,-407 282,-493 35,-15 87,-17 119,7 27,20 20,48 -16,64 -156,66 -220,264 -223,422 -1,73 9,148 36,215 46,118 152,214 283,214 161,0 233,-115 233,-265l0 -622c0,-25 36,-46 81,-46 45,0 82,21 82,46l0 622c0,149 71,265 232,265 131,0 238,-96 284,-214 26,-67 36,-142 35,-215 -2,-158 -67,-356 -223,-422z"/>
 </g>
</svg>
