<?xml version="1.0" encoding="UTF-8"?>
<!DOCTYPE svg PUBLIC "-//W3C//DTD SVG 1.1//EN" "http://www.w3.org/Graphics/SVG/1.1/DTD/svg11.dtd">
<!-- Creator: CorelDRAW X8 -->
<svg xmlns="http://www.w3.org/2000/svg" xml:space="preserve" width="1978px" height="1486px" version="1.1" style="shape-rendering:geometricPrecision; text-rendering:geometricPrecision; image-rendering:optimizeQuality; fill-rule:evenodd; clip-rule:evenodd"
viewBox="0 0 1978 1486"
 xmlns:xlink="http://www.w3.org/1999/xlink">
 <defs>
  <style type="text/css">
   <![CDATA[
    .fil0 {fill:#434242;fill-rule:nonzero}
   ]]>
  </style>
 </defs>
 <g id="Layer_x0020_1">
  <metadata id="CorelCorpID_0Corel-Layer"/>
  <path class="fil0" d="M1042 1486c329,0 602,-116 765,-335 116,-155 171,-352 171,-545 0,-123 -24,-234 -77,-347 -79,-169 -248,-259 -431,-259 -132,0 -244,38 -314,117 -70,-79 -182,-117 -314,-117 -183,0 -352,90 -431,259 -36,77 -51,164 -51,253 0,203 87,414 283,500 16,7 36,12 56,12 23,0 45,-6 62,-18 12,-9 17,-18 17,-27 0,-15 -13,-29 -32,-37 -160,-68 -223,-272 -223,-432 0,-70 10,-141 35,-205 47,-118 153,-214 284,-214 161,0 232,115 232,265l0 622c0,25 37,45 82,45 45,0 81,-20 81,-45l0 -622c0,-150 71,-265 233,-265 131,0 244,96 290,214 38,96 55,199 55,301 0,164 -37,318 -123,458 -127,208 -353,331 -650,331 -237,0 -469,-75 -639,-246 -150,-150 -239,-361 -239,-612 0,-179 56,-356 207,-463 13,-9 18,-18 18,-28 0,-14 -13,-28 -31,-36 -14,-6 -32,-9 -50,-9 -24,0 -48,5 -65,17 -170,120 -243,316 -243,519 0,305 125,548 324,711 201,164 461,238 718,238z"/>
 </g>
</svg>
