<?xml version="1.0" encoding="UTF-8"?>
<!DOCTYPE svg PUBLIC "-//W3C//DTD SVG 1.1//EN" "http://www.w3.org/Graphics/SVG/1.1/DTD/svg11.dtd">
<!-- Creator: CorelDRAW X8 -->
<svg xmlns="http://www.w3.org/2000/svg" xml:space="preserve" width="2086px" height="1486px" version="1.1" style="shape-rendering:geometricPrecision; text-rendering:geometricPrecision; image-rendering:optimizeQuality; fill-rule:evenodd; clip-rule:evenodd"
viewBox="0 0 2086 1486"
 xmlns:xlink="http://www.w3.org/1999/xlink">
 <defs>
  <style type="text/css">
   <![CDATA[
    .fil0 {fill:#2B2A29;fill-rule:nonzero}
   ]]>
  </style>
 </defs>
 <g id="Layer_x0020_1">
  <metadata id="CorelCorpID_0Corel-Layer"/>
  <path class="fil0" d="M1923 909l0 -481c0,-191 -122,-306 -279,-332 91,57 133,155 134,266 0,190 -112,409 -311,547l456 0zm-753 577c-262,0 -534,-56 -720,-160 -288,-162 -450,-447 -450,-778 0,-207 64,-411 243,-530 17,-11 39,-16 62,-16 19,0 38,4 53,11 18,9 29,22 29,35 0,10 -6,20 -19,29 -157,104 -205,291 -205,471 0,296 141,567 403,714 167,93 414,134 607,134 172,-1 436,-29 600,-143 86,-59 145,-141 149,-253l-768 0c-45,0 -81,-20 -81,-46l0 -587c0,-146 -69,-276 -233,-276 -131,0 -237,96 -284,214 -25,64 -35,135 -35,205 0,160 63,364 223,432 19,8 32,22 32,37 0,9 -5,18 -17,27 -17,13 -39,18 -62,18 -20,0 -40,-4 -56,-11 -196,-86 -283,-297 -283,-501 0,-89 15,-177 51,-254 79,-168 248,-258 431,-258 129,0 264,38 341,149 102,-106 255,-149 398,-149 151,0 285,45 378,129 80,71 129,173 129,299l0 573c0,158 -98,267 -234,341 -207,113 -503,144 -682,144zm66 -578c207,-87 381,-316 381,-546 0,-100 -42,-234 -160,-234 -45,0 -84,19 -118,49 -63,57 -103,141 -103,251l0 480z"/>
 </g>
</svg>
