<?xml version="1.0" encoding="UTF-8"?>
<!DOCTYPE svg PUBLIC "-//W3C//DTD SVG 1.1//EN" "http://www.w3.org/Graphics/SVG/1.1/DTD/svg11.dtd">
<!-- Creator: CorelDRAW X8 -->
<svg xmlns="http://www.w3.org/2000/svg" xml:space="preserve" width="2340px" height="1024px" version="1.1" style="shape-rendering:geometricPrecision; text-rendering:geometricPrecision; image-rendering:optimizeQuality; fill-rule:evenodd; clip-rule:evenodd"
viewBox="0 0 2340 1024"
 xmlns:xlink="http://www.w3.org/1999/xlink">
 <defs>
  <style type="text/css">
   <![CDATA[
    .fil0 {fill:#009846;fill-rule:nonzero}
   ]]>
  </style>
 </defs>
 <g id="Layer_x0020_1">
  <metadata id="CorelCorpID_0Corel-Layer"/>
  <path class="fil0" d="M1381 132c78,-84 219,-132 365,-132 184,0 361,61 478,211 83,107 118,236 116,371 -2,98 -24,198 -73,278 -69,114 -182,164 -301,163 -118,-1 -228,-48 -295,-149 -43,-64 -65,-146 -65,-229 0,-99 31,-199 91,-278 78,-103 197,-161 324,-177 -76,-67 -179,-102 -277,-100 -182,4 -281,119 -281,301l0 586c0,26 -36,46 -81,46 -45,0 -82,-20 -82,-46l0 -611c0,-134 -62,-273 -213,-273 -149,0 -210,143 -210,273l0 612c0,25 -37,46 -82,46 -45,0 -81,-21 -81,-46l0 -612c0,-148 -71,-273 -233,-273 -131,0 -237,95 -283,213 -26,67 -36,142 -35,215 2,158 67,355 222,421 31,13 47,41 16,64 -33,25 -85,22 -121,5 -192,-86 -277,-290 -280,-490 -1,-91 14,-182 51,-261 79,-168 248,-259 430,-259 133,0 245,51 315,132 77,-91 181,-131 291,-132 115,-1 218,42 294,131zm714 144c-100,1 -189,47 -249,127 -52,69 -77,155 -77,242 0,74 18,144 54,198 33,49 82,88 144,89 56,1 106,-33 146,-101 44,-71 63,-161 64,-249 2,-108 -21,-215 -82,-306z"/>
 </g>
</svg>
