<?xml version="1.0" encoding="UTF-8"?>
<!DOCTYPE svg PUBLIC "-//W3C//DTD SVG 1.1//EN" "http://www.w3.org/Graphics/SVG/1.1/DTD/svg11.dtd">
<!-- Creator: CorelDRAW X8 -->
<svg xmlns="http://www.w3.org/2000/svg" xml:space="preserve" width="2219px" height="1486px" version="1.1" style="shape-rendering:geometricPrecision; text-rendering:geometricPrecision; image-rendering:optimizeQuality; fill-rule:evenodd; clip-rule:evenodd"
viewBox="0 0 2219 1486"
 xmlns:xlink="http://www.w3.org/1999/xlink">
 <defs>
  <style type="text/css">
   <![CDATA[
    .fil0 {fill:#434242;fill-rule:nonzero}
   ]]>
  </style>
 </defs>
 <g id="Layer_x0020_1">
  <metadata id="CorelCorpID_0Corel-Layer"/>
  <path class="fil0" d="M2157 1015c43,-113 64,-226 64,-350 0,-194 -44,-409 -195,-545 -87,-79 -208,-120 -332,-120 -123,0 -233,30 -321,125 -74,-83 -177,-124 -287,-124 -115,0 -216,44 -291,132 -70,-81 -182,-131 -315,-131 -183,0 -352,90 -431,258 -36,77 -51,164 -51,253 0,202 86,412 280,499 18,8 39,13 60,13 22,0 44,-6 61,-18 12,-9 17,-18 17,-27 0,-15 -13,-29 -32,-37 -160,-68 -223,-272 -223,-432 0,-70 10,-141 35,-205 46,-117 153,-213 284,-213 161,0 232,125 232,274l0 612c0,25 37,45 82,45 45,0 81,-20 81,-45l0 -612c0,-131 62,-274 211,-274 150,0 213,139 213,273l0 612c0,25 37,46 82,46 45,0 81,-21 81,-46l0 -611c0,-164 72,-276 232,-276 94,0 179,49 234,118 103,128 133,297 133,456 0,102 -13,211 -44,313 -44,144 -124,273 -256,352 6,-15 9,-29 9,-43 -1,-44 -28,-81 -70,-107 -40,-26 -100,-39 -160,-39 -53,0 -114,12 -158,40 -44,-28 -105,-40 -158,-40 -60,0 -121,13 -161,39 -39,25 -68,62 -68,110 0,65 60,130 143,161 70,26 156,35 243,35 93,0 195,-11 290,-35 119,-30 221,-84 304,-160 79,-72 140,-165 182,-276zm-776 393c-62,0 -137,-5 -193,-30 -38,-17 -65,-45 -65,-86 0,-54 55,-75 101,-75 58,0 87,41 87,96 0,31 47,40 71,40 27,0 71,-9 71,-43 0,-55 30,-93 87,-93 44,0 101,21 101,73 0,42 -28,71 -65,88 -57,26 -133,30 -195,30z"/>
 </g>
</svg>
