<?xml version="1.0" encoding="UTF-8"?>
<!DOCTYPE svg PUBLIC "-//W3C//DTD SVG 1.1//EN" "http://www.w3.org/Graphics/SVG/1.1/DTD/svg11.dtd">
<!-- Creator: CorelDRAW X8 -->
<svg xmlns="http://www.w3.org/2000/svg" xml:space="preserve" width="1755px" height="1024px" version="1.1" style="shape-rendering:geometricPrecision; text-rendering:geometricPrecision; image-rendering:optimizeQuality; fill-rule:evenodd; clip-rule:evenodd"
viewBox="0 0 1755 1024"
 xmlns:xlink="http://www.w3.org/1999/xlink">
 <defs>
  <style type="text/css">
   <![CDATA[
    .fil0 {fill:#434242;fill-rule:nonzero}
   ]]>
  </style>
 </defs>
 <g id="Layer_x0020_1">
  <metadata id="CorelCorpID_0Corel-Layer"/>
  <path class="fil0" d="M1382 1024c118,0 232,-50 300,-163 53,-87 73,-190 73,-290 0,-131 -35,-256 -116,-360 -104,-133 -256,-211 -472,-211 -132,0 -273,39 -362,125 -85,-94 -199,-125 -323,-125 -183,0 -352,90 -431,258 -36,77 -51,165 -51,254 0,204 86,415 283,501 16,7 36,11 55,11 23,0 46,-6 63,-18 12,-9 17,-18 17,-27 0,-15 -13,-29 -32,-37 -160,-68 -223,-272 -223,-432 0,-70 9,-141 35,-205 46,-118 153,-214 284,-214 164,0 233,130 233,276l0 611c0,25 37,46 81,46 45,0 81,-21 81,-46l0 -587c0,-180 106,-301 290,-301 95,0 195,35 269,100 -127,16 -246,74 -324,178 -60,78 -91,179 -91,277 0,84 22,165 65,230 67,102 179,149 296,149zm0 -91c-62,0 -111,-40 -144,-90 -36,-54 -54,-124 -54,-198 0,-86 25,-173 77,-242 60,-80 149,-126 249,-126 60,89 83,193 83,298 0,86 -20,183 -65,257 -40,67 -90,101 -146,101z"/>
 </g>
</svg>
