<?xml version="1.0" encoding="UTF-8"?>
<!DOCTYPE svg PUBLIC "-//W3C//DTD SVG 1.1//EN" "http://www.w3.org/Graphics/SVG/1.1/DTD/svg11.dtd">
<!-- Creator: CorelDRAW X8 -->
<svg xmlns="http://www.w3.org/2000/svg" xml:space="preserve" width="1728px" height="1024px" version="1.1" style="shape-rendering:geometricPrecision; text-rendering:geometricPrecision; image-rendering:optimizeQuality; fill-rule:evenodd; clip-rule:evenodd"
viewBox="0 0 1728 1024"
 xmlns:xlink="http://www.w3.org/1999/xlink">
 <defs>
  <style type="text/css">
   <![CDATA[
    .fil0 {fill:#CC6633;fill-rule:nonzero}
   ]]>
  </style>
 </defs>
 <g id="Layer_x0020_1">
  <metadata id="CorelCorpID_0Corel-Layer"/>
  <path class="fil0" d="M1109 909l456 0 0 -481c0,-109 -40,-193 -104,-251 -47,-43 -108,-70 -175,-81 91,57 133,155 134,266 0,66 -13,135 -39,203 -48,127 -140,253 -272,344zm-394 -542c0,-146 -69,-276 -233,-276 -131,0 -237,96 -284,214 -26,67 -36,142 -35,215 2,158 67,356 223,422 20,9 31,22 32,35 1,10 -5,20 -16,29 -18,13 -40,18 -63,18 -20,0 -40,-4 -56,-11 -194,-86 -280,-291 -283,-493 -1,-91 14,-183 51,-262 79,-168 248,-258 431,-258 129,0 264,38 341,149 102,-106 255,-149 398,-149 150,0 285,45 378,129 80,71 129,173 129,299l0 526c0,26 -37,46 -82,46l-850 0c-45,0 -81,-20 -81,-46l0 -587zm266 -190c-63,57 -103,141 -103,251l0 480c150,-63 280,-198 342,-354 24,-61 38,-125 39,-189 1,-101 -42,-241 -165,-237 -40,1 -79,19 -113,49z"/>
 </g>
</svg>
