<?xml version="1.0" encoding="UTF-8"?>
<!DOCTYPE svg PUBLIC "-//W3C//DTD SVG 1.1//EN" "http://www.w3.org/Graphics/SVG/1.1/DTD/svg11.dtd">
<!-- Creator: CorelDRAW X8 -->
<svg xmlns="http://www.w3.org/2000/svg" xml:space="preserve" width="2570px" height="1488px" version="1.1" style="shape-rendering:geometricPrecision; text-rendering:geometricPrecision; image-rendering:optimizeQuality; fill-rule:evenodd; clip-rule:evenodd"
viewBox="0 0 2570 1488"
 xmlns:xlink="http://www.w3.org/1999/xlink">
 <defs>
  <style type="text/css">
   <![CDATA[
    .fil0 {fill:#898778;fill-rule:nonzero}
   ]]>
  </style>
 </defs>
 <g id="Layer_x0020_1">
  <metadata id="CorelCorpID_0Corel-Layer"/>
  <path class="fil0" d="M1827 367l0 611c0,26 -36,46 -81,46 -45,0 -82,-20 -82,-46l0 -612c0,-133 -62,-273 -213,-273 -149,0 -211,143 -211,274l0 612c0,25 -36,46 -81,46 -45,0 -82,-21 -82,-46l0 -612c0,-149 -70,-274 -232,-274 -131,0 -238,96 -284,213 -26,67 -36,143 -35,216 2,157 67,355 223,421 30,13 46,41 15,64 -33,25 -85,22 -121,5 -192,-86 -277,-290 -280,-490 -1,-92 14,-183 51,-262 79,-168 248,-258 431,-258 133,0 245,50 315,131 77,-90 181,-131 291,-132 112,-1 212,40 287,124 88,-95 193,-125 322,-125 123,0 240,41 327,120 127,114 184,283 183,459 -1,272 -115,475 -288,618 -249,207 -621,293 -957,291 -316,-2 -696,-68 -961,-255 -222,-157 -358,-389 -364,-675 -4,-220 81,-427 277,-544 31,-18 83,-19 115,-2 31,17 35,46 3,65 -169,101 -236,292 -232,481 4,240 107,441 282,583 234,190 588,255 880,257 330,2 657,-75 863,-274 132,-128 215,-306 217,-545 2,-137 -36,-269 -112,-364 -55,-69 -140,-124 -233,-124 -171,0 -233,123 -233,276z"/>
 </g>
</svg>
