<?xml version="1.0" encoding="UTF-8"?>
<!DOCTYPE svg PUBLIC "-//W3C//DTD SVG 1.1//EN" "http://www.w3.org/Graphics/SVG/1.1/DTD/svg11.dtd">
<!-- Creator: CorelDRAW X8 -->
<svg xmlns="http://www.w3.org/2000/svg" xml:space="preserve" width="1978px" height="1486px" version="1.1" style="shape-rendering:geometricPrecision; text-rendering:geometricPrecision; image-rendering:optimizeQuality; fill-rule:evenodd; clip-rule:evenodd"
viewBox="0 0 1978 1486"
 xmlns:xlink="http://www.w3.org/1999/xlink">
 <defs>
  <style type="text/css">
   <![CDATA[
    .fil0 {fill:#CC6633;fill-rule:nonzero}
   ]]>
  </style>
 </defs>
 <g id="Layer_x0020_1">
  <metadata id="CorelCorpID_0Corel-Layer"/>
  <path class="fil0" d="M1901 259c-79,-169 -248,-259 -431,-259 -132,0 -244,38 -314,117 -70,-79 -182,-117 -314,-117 -183,0 -352,90 -431,259 -37,79 -52,170 -51,261 3,202 89,407 283,492 35,16 87,17 118,-6 12,-9 17,-19 17,-29 -1,-13 -12,-26 -32,-35 -156,-66 -221,-264 -223,-422 -1,-73 9,-148 35,-215 47,-118 153,-214 284,-214 161,0 232,115 232,265l0 622c0,25 37,45 82,45 45,0 81,-20 81,-45l0 -622c0,-150 71,-265 233,-265 131,0 243,96 290,214 40,103 58,215 55,325 -3,168 -50,315 -123,434 -130,213 -364,337 -671,331 -252,-5 -467,-94 -618,-246 -151,-151 -240,-363 -239,-616 0,-182 61,-355 207,-459 12,-8 18,-18 18,-28 0,-14 -11,-27 -31,-36 -15,-7 -33,-10 -51,-10 -24,1 -48,7 -64,18 -169,120 -242,313 -243,515 -1,307 124,551 324,715 182,149 426,233 692,238 340,6 623,-111 791,-335 101,-136 167,-310 171,-520 2,-128 -22,-255 -77,-372z"/>
 </g>
</svg>
