<?xml version="1.0" encoding="UTF-8"?>
<!DOCTYPE svg PUBLIC "-//W3C//DTD SVG 1.1//EN" "http://www.w3.org/Graphics/SVG/1.1/DTD/svg11.dtd">
<!-- Creator: CorelDRAW X8 -->
<svg xmlns="http://www.w3.org/2000/svg" xml:space="preserve" width="2178px" height="1024px" version="1.1" style="shape-rendering:geometricPrecision; text-rendering:geometricPrecision; image-rendering:optimizeQuality; fill-rule:evenodd; clip-rule:evenodd"
viewBox="0 0 2178 1024"
 xmlns:xlink="http://www.w3.org/1999/xlink">
 <defs>
  <style type="text/css">
   <![CDATA[
    .fil0 {fill:#2B2A29;fill-rule:nonzero}
   ]]>
  </style>
 </defs>
 <g id="Layer_x0020_1">
  <metadata id="CorelCorpID_0Corel-Layer"/>
  <path class="fil0" d="M796 1024c45,0 81,-21 81,-46l0 -612c0,-130 62,-273 211,-274 150,-1 213,140 213,273l0 612c0,26 36,46 81,46 45,0 82,-20 82,-46l0 -612c0,-149 71,-274 233,-274 131,0 237,96 283,214 25,64 35,135 35,205 0,160 -63,363 -222,432 -19,7 -33,21 -33,36 0,9 5,19 17,27 17,13 39,18 61,18 21,0 43,-5 60,-12 194,-88 280,-297 280,-499 0,-89 -15,-176 -51,-253 -79,-169 -248,-259 -430,-259 -134,0 -245,51 -316,132 -74,-88 -180,-132 -293,-132 -116,0 -215,44 -291,132 -71,-81 -182,-131 -316,-131 -182,0 -351,90 -430,258 -36,77 -51,165 -51,254 0,202 86,411 280,498 18,8 39,13 60,13 22,0 44,-5 61,-18 12,-9 17,-18 17,-27 0,-15 -14,-29 -33,-37 -159,-68 -222,-272 -222,-431 0,-70 10,-141 35,-205 46,-118 152,-214 283,-214 162,0 233,125 233,274l0 612c0,25 37,46 82,46z"/>
 </g>
</svg>
