<?xml version="1.0" encoding="UTF-8"?>
<!DOCTYPE svg PUBLIC "-//W3C//DTD SVG 1.1//EN" "http://www.w3.org/Graphics/SVG/1.1/DTD/svg11.dtd">
<!-- Creator: CorelDRAW X8 -->
<svg xmlns="http://www.w3.org/2000/svg" xml:space="preserve" width="1007px" height="868px" version="1.1" style="shape-rendering:geometricPrecision; text-rendering:geometricPrecision; image-rendering:optimizeQuality; fill-rule:evenodd; clip-rule:evenodd"
viewBox="0 0 1007 868"
 xmlns:xlink="http://www.w3.org/1999/xlink">
 <defs>
  <style type="text/css">
   <![CDATA[
    .fil0 {fill:#009846;fill-rule:nonzero}
   ]]>
  </style>
 </defs>
 <g id="Layer_x0020_1">
  <metadata id="CorelCorpID_0Corel-Layer"/>
  <path class="fil0" d="M489 716c-30,0 -66,3 -95,14 -14,5 -37,17 -37,34 0,18 22,30 37,35 28,11 65,14 95,14 27,0 54,-2 80,-9 17,-5 50,-18 50,-40 -1,-21 -32,-33 -49,-38 -26,-7 -54,-10 -81,-10zm401 -644c80,70 113,182 117,285 2,81 -10,164 -40,239 -44,110 -126,193 -238,234 -41,15 -84,23 -127,29 -38,6 -76,9 -114,9 -44,0 -92,-4 -135,-15 -40,-11 -110,-38 -110,-89 0,-50 61,-77 125,-90 45,-10 93,-12 121,-12 41,0 82,3 122,12 41,9 115,34 121,84 63,-46 103,-112 127,-184 22,-69 29,-145 26,-217 -4,-79 -27,-170 -78,-232 -31,-37 -80,-66 -128,-66 -88,0 -128,70 -128,151l0 360c0,24 -44,30 -61,30 -17,0 -61,-6 -61,-30l0 -360c0,-81 -39,-151 -127,-151 -71,0 -133,59 -158,121 -16,39 -22,83 -21,125 1,92 40,205 132,243 19,8 30,25 10,40 -23,16 -68,15 -93,4 -116,-49 -170,-166 -172,-287 -1,-52 8,-105 31,-152 50,-104 159,-153 271,-153 65,0 138,13 188,58 51,-45 123,-58 189,-58 75,0 153,22 211,72z"/>
 </g>
</svg>
