<?xml version="1.0" encoding="UTF-8"?>
<!DOCTYPE svg PUBLIC "-//W3C//DTD SVG 1.1//EN" "http://www.w3.org/Graphics/SVG/1.1/DTD/svg11.dtd">
<!-- Creator: CorelDRAW X8 -->
<svg xmlns="http://www.w3.org/2000/svg" xml:space="preserve" width="3137px" height="1486px" version="1.1" style="shape-rendering:geometricPrecision; text-rendering:geometricPrecision; image-rendering:optimizeQuality; fill-rule:evenodd; clip-rule:evenodd"
viewBox="0 0 3137 1486"
 xmlns:xlink="http://www.w3.org/1999/xlink">
 <defs>
  <style type="text/css">
   <![CDATA[
    .fil0 {fill:#2B2A29;fill-rule:nonzero}
   ]]>
  </style>
 </defs>
 <g id="Layer_x0020_1">
  <metadata id="CorelCorpID_0Corel-Layer"/>
  <path class="fil0" d="M2553 1370c201,-69 378,-184 486,-385 65,-119 98,-257 98,-399 0,-222 -69,-477 -290,-574 -17,-7 -36,-12 -56,-12 -23,0 -46,6 -63,19 -11,8 -16,17 -16,26 0,15 13,29 32,37 159,67 223,275 223,434 0,70 -10,139 -36,203 -46,118 -152,214 -283,214 -162,0 -233,-121 -233,-271l0 -616c0,-25 -36,-45 -81,-45 -45,0 -82,20 -82,45l0 616c0,135 -55,272 -212,272 -88,0 -153,-73 -181,-152 -32,-89 -32,-183 -32,-278 -1,-94 -2,-188 -35,-279 -53,-147 -193,-224 -345,-224 -110,0 -219,29 -294,116 -70,-78 -180,-116 -310,-116 -182,0 -352,90 -430,258 -35,75 -51,159 -51,245 0,207 81,421 282,509 17,7 37,12 57,12 23,0 45,-6 62,-18 12,-9 16,-18 16,-27 0,-15 -13,-29 -32,-37 -159,-67 -223,-275 -223,-434 0,-70 10,-139 36,-203 46,-118 152,-214 283,-214 162,0 233,121 233,271l0 616c0,25 36,45 81,45 45,0 82,-20 82,-45l0 -616c0,-134 52,-272 208,-272 88,0 156,73 186,152 28,84 32,172 32,261 0,100 0,200 34,296 54,147 190,224 341,224 109,0 223,-28 298,-115 70,77 180,116 310,116 82,0 162,-19 232,-55 -95,155 -221,248 -367,306 -286,115 -669,119 -976,119 -291,0 -617,-30 -887,-146 -296,-127 -488,-378 -488,-708 0,-188 62,-363 232,-464 15,-9 22,-20 22,-31 0,-12 -9,-25 -26,-33 -16,-9 -36,-13 -56,-13 -22,0 -43,5 -59,14 -192,115 -275,311 -275,527 0,374 219,637 552,781 300,129 661,164 985,164 331,0 700,-7 1016,-116z"/>
 </g>
</svg>
