<?xml version="1.0" encoding="UTF-8"?>
<!DOCTYPE svg PUBLIC "-//W3C//DTD SVG 1.1//EN" "http://www.w3.org/Graphics/SVG/1.1/DTD/svg11.dtd">
<!-- Creator: CorelDRAW X8 -->
<svg xmlns="http://www.w3.org/2000/svg" xml:space="preserve" width="2224px" height="1486px" version="1.1" style="shape-rendering:geometricPrecision; text-rendering:geometricPrecision; image-rendering:optimizeQuality; fill-rule:evenodd; clip-rule:evenodd"
viewBox="0 0 2224 1487"
 xmlns:xlink="http://www.w3.org/1999/xlink">
 <defs>
  <style type="text/css">
   <![CDATA[
    .fil0 {fill:#2B2A29;fill-rule:nonzero}
   ]]>
  </style>
 </defs>
 <g id="Layer_x0020_1">
  <metadata id="CorelCorpID_0Corel-Layer"/>
  <path class="fil0" d="M2160 1016c43,-114 64,-227 64,-351 0,-193 -44,-409 -195,-545 -87,-79 -208,-120 -332,-120 -123,0 -233,30 -321,125 -74,-83 -178,-124 -288,-124 -115,0 -215,44 -291,132 -70,-81 -182,-131 -315,-131 -183,0 -352,90 -431,258 -36,77 -51,164 -51,253 0,203 86,412 280,499 18,8 39,14 60,14 22,0 44,-6 61,-18 12,-10 17,-19 17,-28 0,-15 -13,-29 -32,-37 -160,-67 -223,-272 -223,-432 0,-70 10,-141 35,-205 46,-117 153,-213 284,-213 161,0 232,125 232,274l0 612c0,25 37,45 82,45 46,0 82,-20 82,-45l0 -612c0,-131 62,-274 210,-274 150,0 214,139 214,273l0 612c0,26 37,46 82,46 45,0 81,-20 81,-46l0 -611c0,-164 71,-276 232,-276 94,0 179,49 234,118 102,128 133,297 133,456 0,102 -13,211 -44,313 -44,144 -124,274 -256,352 6,-14 9,-28 9,-42 -1,-44 -28,-82 -70,-108 -40,-26 -100,-38 -160,-38 -53,0 -114,12 -158,40 -44,-28 -105,-40 -158,-40 -60,0 -121,12 -161,38 -40,26 -68,62 -68,110 0,66 60,131 143,162 70,26 156,35 243,35 93,0 195,-11 289,-35 120,-30 222,-85 304,-160 79,-73 141,-166 183,-276zm-776 393c-62,0 -137,-5 -193,-31 -38,-16 -65,-44 -65,-86 0,-53 55,-74 101,-74 58,0 87,41 87,96 0,30 47,40 71,40 27,0 71,-9 71,-44 0,-54 30,-92 87,-92 43,0 101,21 101,72 0,42 -28,72 -65,88 -57,27 -133,31 -195,31z"/>
 </g>
</svg>
