<?xml version="1.0" encoding="UTF-8"?>
<!DOCTYPE svg PUBLIC "-//W3C//DTD SVG 1.1//EN" "http://www.w3.org/Graphics/SVG/1.1/DTD/svg11.dtd">
<!-- Creator: CorelDRAW X8 -->
<svg xmlns="http://www.w3.org/2000/svg" xml:space="preserve" width="1625px" height="825px" version="1.1" style="shape-rendering:geometricPrecision; text-rendering:geometricPrecision; image-rendering:optimizeQuality; fill-rule:evenodd; clip-rule:evenodd"
viewBox="0 0 1625 825"
 xmlns:xlink="http://www.w3.org/1999/xlink">
 <defs>
  <style type="text/css">
   <![CDATA[
    .fil0 {fill:#434242;fill-rule:nonzero}
   ]]>
  </style>
 </defs>
 <g id="Layer_x0020_1">
  <metadata id="CorelCorpID_0Corel-Layer"/>
  <path class="fil0" d="M842 67c-49,-48 -108,-67 -176,-67 -64,0 -128,20 -176,67 -50,-48 -120,-67 -189,-67 -112,0 -220,49 -270,153 -22,45 -31,95 -31,144 0,123 52,242 170,294 13,6 30,9 46,9 19,0 37,-4 49,-13 7,-5 11,-11 11,-16 0,-9 -9,-18 -22,-23 -96,-40 -131,-157 -131,-252 0,-39 6,-79 21,-115 25,-63 86,-122 157,-122 89,0 127,77 127,156l0 355c0,24 45,30 62,30 17,0 61,-6 61,-30l0 -355c0,-67 35,-155 115,-155 80,0 115,86 115,155l0 355c0,24 44,30 61,30 17,0 61,-6 61,-30l0 -355c0,-95 69,-156 162,-156 52,0 106,20 146,53 -75,11 -145,43 -192,104 -35,45 -55,104 -55,161 0,47 13,95 40,134 44,64 117,89 188,89 77,0 152,-30 194,-97 30,-48 44,-106 44,-162 1,-38 -4,-74 -14,-108 61,61 86,150 86,235 0,139 -70,298 -231,298 -44,0 -94,-14 -130,-41 -13,-10 -33,-14 -52,-14 -15,0 -28,2 -39,6 -12,5 -23,15 -23,25 0,5 3,10 10,15 64,49 153,68 234,68 216,0 354,-142 354,-357 0,-173 -95,-316 -274,-353 -74,-85 -175,-115 -286,-115 -72,0 -166,19 -223,67zm350 474c-38,0 -67,-25 -84,-61 -14,-28 -20,-63 -20,-100 0,-50 15,-101 44,-142 28,-39 70,-67 128,-71 31,46 47,111 47,173 1,40 -9,101 -34,145 -18,32 -44,56 -81,56z"/>
 </g>
</svg>
