<?xml version="1.0" encoding="UTF-8"?>
<!DOCTYPE svg PUBLIC "-//W3C//DTD SVG 1.1//EN" "http://www.w3.org/Graphics/SVG/1.1/DTD/svg11.dtd">
<!-- Creator: CorelDRAW X8 -->
<svg xmlns="http://www.w3.org/2000/svg" xml:space="preserve" width="3136px" height="1486px" version="1.1" style="shape-rendering:geometricPrecision; text-rendering:geometricPrecision; image-rendering:optimizeQuality; fill-rule:evenodd; clip-rule:evenodd"
viewBox="0 0 3136 1486"
 xmlns:xlink="http://www.w3.org/1999/xlink">
 <defs>
  <style type="text/css">
   <![CDATA[
    .fil0 {fill:#009846;fill-rule:nonzero}
   ]]>
  </style>
 </defs>
 <g id="Layer_x0020_1">
  <metadata id="CorelCorpID_0Corel-Layer"/>
  <path class="fil0" d="M1153 117c63,-74 166,-114 290,-116 156,-4 294,73 348,224 33,91 34,185 35,279 0,95 1,189 32,278 29,80 99,154 189,152 155,-4 204,-138 204,-272l0 -616c0,-25 37,-45 82,-45 45,0 81,20 81,45l0 616c0,150 71,271 233,271 131,0 237,-96 283,-214 27,-67 37,-140 36,-213 -3,-158 -67,-358 -223,-424 -30,-13 -46,-41 -16,-63 32,-24 83,-23 119,-7 219,96 289,347 290,568 1,144 -32,284 -98,405 -108,201 -285,316 -486,385 -317,109 -706,117 -1038,116 -326,-1 -679,-42 -962,-164 -331,-143 -547,-402 -552,-769 -3,-221 80,-422 275,-539 31,-18 83,-19 115,-1 32,16 35,45 4,64 -171,102 -233,286 -232,476 3,328 191,568 488,696 252,108 569,145 865,146 305,1 710,-4 997,-119 146,-58 272,-151 367,-306 -70,36 -150,55 -232,55 -130,0 -240,-39 -310,-116 -63,73 -166,113 -290,115 -156,4 -294,-73 -348,-224 -35,-96 -34,-196 -35,-296 0,-89 -3,-177 -32,-261 -29,-80 -99,-154 -189,-152 -155,4 -204,138 -204,272l0 616c0,25 -37,45 -82,45 -45,0 -81,-20 -81,-45l0 -616c0,-150 -71,-271 -233,-271 -131,0 -237,96 -283,214 -27,67 -37,140 -36,213 3,158 67,358 223,424 30,13 47,41 16,64 -32,23 -83,22 -119,6 -194,-85 -280,-292 -282,-494 -2,-91 14,-181 51,-260 78,-168 248,-258 430,-258 130,0 240,38 310,116z"/>
 </g>
</svg>
