<?xml version="1.0" encoding="UTF-8"?>
<!DOCTYPE svg PUBLIC "-//W3C//DTD SVG 1.1//EN" "http://www.w3.org/Graphics/SVG/1.1/DTD/svg11.dtd">
<!-- Creator: CorelDRAW X8 -->
<svg xmlns="http://www.w3.org/2000/svg" xml:space="preserve" width="2081px" height="1412px" version="1.1" style="shape-rendering:geometricPrecision; text-rendering:geometricPrecision; image-rendering:optimizeQuality; fill-rule:evenodd; clip-rule:evenodd"
viewBox="0 0 2081 1412"
 xmlns:xlink="http://www.w3.org/1999/xlink">
 <defs>
  <style type="text/css">
   <![CDATA[
    .fil0 {fill:#CC6633;fill-rule:nonzero}
   ]]>
  </style>
 </defs>
 <g id="Layer_x0020_1">
  <metadata id="CorelCorpID_0Corel-Layer"/>
  <path class="fil0" d="M878 978c0,25 -37,46 -81,46 -45,0 -82,-21 -82,-46l0 -611c0,-147 -69,-276 -233,-276 -131,0 -237,96 -284,213 -26,68 -36,143 -35,216 3,158 67,356 223,422 21,9 32,22 32,36 0,10 -5,19 -16,28 -17,12 -39,18 -61,18 -21,0 -41,-4 -58,-12 -194,-85 -280,-291 -283,-492 -1,-91 14,-183 51,-262 79,-168 249,-258 431,-258 124,0 238,31 323,125 89,-86 222,-125 354,-125 209,0 365,72 469,197 320,65 471,346 451,658 -20,324 -235,547 -560,557 -132,4 -272,-30 -378,-114 -10,-8 -15,-17 -14,-26 0,-14 12,-28 34,-37 15,-6 33,-9 50,-8 24,0 48,7 63,19 68,54 160,78 245,75 253,-8 383,-234 398,-466 12,-188 -42,-396 -202,-511 29,78 41,155 40,238 -1,99 -24,198 -72,279 -69,114 -183,164 -302,163 -118,-1 -227,-48 -294,-149 -44,-65 -66,-146 -66,-230 0,-98 32,-199 91,-278 78,-103 197,-161 324,-177 -76,-67 -179,-102 -277,-100 -181,4 -281,121 -281,301l0 587zm632 -701c-99,0 -189,46 -249,126 -52,69 -77,156 -77,242 0,74 19,144 54,198 34,50 83,89 144,89 57,1 106,-33 147,-100 43,-72 63,-162 64,-250 1,-108 -22,-215 -83,-305z"/>
 </g>
</svg>
