<?xml version="1.0" encoding="UTF-8"?>
<!DOCTYPE svg PUBLIC "-//W3C//DTD SVG 1.1//EN" "http://www.w3.org/Graphics/SVG/1.1/DTD/svg11.dtd">
<!-- Creator: CorelDRAW X8 -->
<svg xmlns="http://www.w3.org/2000/svg" xml:space="preserve" width="2226px" height="1486px" version="1.1" style="shape-rendering:geometricPrecision; text-rendering:geometricPrecision; image-rendering:optimizeQuality; fill-rule:evenodd; clip-rule:evenodd"
viewBox="0 0 2226 1486"
 xmlns:xlink="http://www.w3.org/1999/xlink">
 <defs>
  <style type="text/css">
   <![CDATA[
    .fil0 {fill:#434242;fill-rule:nonzero}
   ]]>
  </style>
 </defs>
 <g id="Layer_x0020_1">
  <metadata id="CorelCorpID_0Corel-Layer"/>
  <path class="fil0" d="M1401 931c-70,0 -122,-53 -153,-110 -34,-62 -51,-142 -51,-225 0,-163 67,-339 204,-435 136,95 205,272 205,435 0,83 -17,162 -51,224 -32,58 -84,111 -154,111zm667 227c105,-144 158,-312 158,-489 0,-136 -32,-288 -105,-404 -105,-170 -297,-265 -493,-265 -77,0 -155,11 -227,38 -67,-24 -142,-38 -227,-38 -131,0 -279,26 -371,129 -70,-86 -184,-129 -321,-129 -183,0 -352,90 -431,259 -36,77 -51,162 -51,251 0,203 87,416 283,502 16,7 36,12 56,12 23,0 45,-6 62,-18 12,-9 17,-18 17,-27 0,-15 -13,-29 -32,-37 -161,-68 -223,-272 -223,-432 0,-70 9,-141 35,-205 46,-118 153,-214 284,-214 162,0 232,121 232,271l0 616c0,25 37,45 82,45 44,0 81,-20 81,-45l0 -587c0,-181 119,-300 297,-300 36,0 70,4 102,12 -160,112 -242,302 -242,493 0,91 20,181 58,251 65,118 177,175 309,175 132,0 244,-57 309,-176 39,-70 58,-158 58,-250 0,-191 -81,-381 -241,-493 34,-8 66,-12 101,-12 141,0 260,92 334,205 72,109 99,240 98,373 0,147 -33,297 -104,425 -43,77 -100,146 -172,202 -15,-77 -123,-119 -195,-136 -53,-12 -114,-19 -188,-19 -81,0 -153,9 -208,23 -122,32 -183,89 -183,149 -1,58 59,116 178,148 60,16 137,25 213,25 78,0 152,-8 222,-25 176,-42 326,-140 445,-303zm-667 244c-165,0 -242,-45 -242,-89 0,-45 86,-88 242,-88 155,0 236,46 236,88 0,42 -73,89 -236,89z"/>
 </g>
</svg>
