<?xml version="1.0" encoding="UTF-8"?>
<!DOCTYPE svg PUBLIC "-//W3C//DTD SVG 1.1//EN" "http://www.w3.org/Graphics/SVG/1.1/DTD/svg11.dtd">
<!-- Creator: CorelDRAW X8 -->
<svg xmlns="http://www.w3.org/2000/svg" xml:space="preserve" width="2556px" height="1486px" version="1.1" style="shape-rendering:geometricPrecision; text-rendering:geometricPrecision; image-rendering:optimizeQuality; fill-rule:evenodd; clip-rule:evenodd"
viewBox="0 0 2556 1486"
 xmlns:xlink="http://www.w3.org/1999/xlink">
 <defs>
  <style type="text/css">
   <![CDATA[
    .fil0 {fill:#898778;fill-rule:nonzero}
   ]]>
  </style>
 </defs>
 <g id="Layer_x0020_1">
  <metadata id="CorelCorpID_0Corel-Layer"/>
  <path class="fil0" d="M734 942c31,13 47,41 16,64 -32,23 -83,22 -118,7 -195,-86 -280,-293 -283,-494 -2,-91 14,-181 51,-260 79,-169 248,-259 430,-259 137,0 251,43 321,129 93,-103 240,-129 372,-129 85,0 160,14 226,38 73,-27 150,-38 227,-38 176,0 351,81 461,220 80,101 117,231 119,363 5,278 -132,539 -365,692 -230,149 -542,211 -888,211 -289,0 -607,-47 -859,-188 -286,-161 -444,-425 -444,-751 0,-207 74,-411 253,-530 31,-20 82,-20 115,-5 31,15 41,43 9,64 -156,104 -213,291 -214,471 -2,293 138,541 397,686 216,122 492,162 743,162 300,0 569,-52 764,-180 214,-139 328,-380 327,-632 -1,-122 -33,-234 -106,-327 -71,-89 -194,-165 -312,-165 -34,0 -66,4 -100,12 159,112 241,302 241,493 0,92 -19,180 -58,251 -65,118 -178,175 -310,175 -131,0 -243,-57 -308,-175 -38,-70 -58,-160 -58,-251 0,-191 82,-381 241,-493 -31,-8 -65,-12 -101,-12 -179,0 -298,119 -298,300l0 587c0,25 -36,45 -81,45 -45,0 -81,-20 -81,-45l0 -616c0,-150 -71,-271 -233,-271 -131,0 -237,96 -283,214 -27,67 -37,142 -36,215 3,158 67,356 223,422zm1015 -781c-137,96 -204,272 -204,435 0,83 18,163 51,225 32,58 83,111 153,111 71,0 123,-54 155,-112 34,-62 51,-141 51,-224 0,-163 -69,-340 -206,-435z"/>
 </g>
</svg>
