<?xml version="1.0" encoding="UTF-8"?>
<!DOCTYPE svg PUBLIC "-//W3C//DTD SVG 1.1//EN" "http://www.w3.org/Graphics/SVG/1.1/DTD/svg11.dtd">
<!-- Creator: CorelDRAW X8 -->
<svg xmlns="http://www.w3.org/2000/svg" xml:space="preserve" width="1429px" height="600px" version="1.1" style="shape-rendering:geometricPrecision; text-rendering:geometricPrecision; image-rendering:optimizeQuality; fill-rule:evenodd; clip-rule:evenodd"
viewBox="0 0 1429 600"
 xmlns:xlink="http://www.w3.org/1999/xlink">
 <defs>
  <style type="text/css">
   <![CDATA[
    .fil0 {fill:#898778;fill-rule:nonzero}
   ]]>
  </style>
 </defs>
 <g id="Layer_x0020_1">
  <metadata id="CorelCorpID_0Corel-Layer"/>
  <path class="fil0" d="M551 215l0 356c0,23 -44,29 -61,29 -17,0 -62,-6 -62,-29l0 -356c0,-79 -38,-155 -127,-155 -71,0 -132,58 -157,121 -16,39 -22,82 -21,124 1,92 40,206 131,243 20,8 31,25 11,40 -24,17 -69,15 -95,3 -115,-49 -168,-166 -170,-286 -1,-52 8,-105 31,-152 50,-104 158,-153 270,-153 69,0 139,19 189,67 48,-47 111,-68 177,-67 65,1 127,20 174,67 56,-47 147,-67 218,-67 115,0 225,33 300,125 50,62 71,137 70,216 -1,56 -14,114 -44,162 -43,69 -114,98 -194,97 -74,0 -145,-26 -188,-89 -27,-39 -39,-87 -39,-134 0,-57 19,-116 54,-161 47,-61 118,-93 192,-104 -40,-34 -97,-54 -150,-53 -93,2 -157,63 -157,156l0 355c0,24 -45,30 -62,30 -17,0 -61,-6 -61,-30l0 -355c0,-68 -35,-156 -115,-155 -79,0 -114,87 -114,155zm640 326c37,0 63,-23 81,-56 25,-44 34,-105 34,-144 0,-63 -16,-128 -47,-174 -58,4 -100,33 -128,72 -28,39 -42,89 -43,136 -2,35 4,69 15,97 17,40 47,69 88,69z"/>
 </g>
</svg>
