<?xml version="1.0" encoding="UTF-8"?>
<!DOCTYPE svg PUBLIC "-//W3C//DTD SVG 1.1//EN" "http://www.w3.org/Graphics/SVG/1.1/DTD/svg11.dtd">
<!-- Creator: CorelDRAW X8 -->
<svg xmlns="http://www.w3.org/2000/svg" xml:space="preserve" width="2625px" height="1024px" version="1.1" style="shape-rendering:geometricPrecision; text-rendering:geometricPrecision; image-rendering:optimizeQuality; fill-rule:evenodd; clip-rule:evenodd"
viewBox="0 0 2625 1024"
 xmlns:xlink="http://www.w3.org/1999/xlink">
 <defs>
  <style type="text/css">
   <![CDATA[
    .fil0 {fill:#434242;fill-rule:nonzero}
   ]]>
  </style>
 </defs>
 <g id="Layer_x0020_1">
  <metadata id="CorelCorpID_0Corel-Layer"/>
  <path class="fil0" d="M796 1024c45,0 81,-21 81,-46l0 -622c0,-150 71,-265 233,-265 131,0 237,90 284,208 25,64 35,130 35,199 0,161 -63,353 -223,420 -14,6 -32,18 -32,36 0,33 53,46 79,46l1291 0c25,0 81,-12 81,-46l0 -555c0,-256 -227,-399 -445,-399 -219,0 -431,129 -431,392l0 516 -317 0c113,-104 160,-258 160,-408 0,-88 -15,-170 -51,-247 -79,-169 -248,-253 -431,-253 -132,0 -244,38 -314,117 -71,-79 -182,-117 -314,-117 -183,0 -352,90 -431,259 -36,77 -51,164 -51,253 0,204 86,415 283,501 16,7 36,11 55,11 23,0 46,-6 63,-18 12,-9 17,-18 17,-27 0,-15 -13,-29 -32,-37 -160,-68 -223,-272 -223,-432 0,-70 10,-141 35,-205 46,-118 153,-214 284,-214 161,0 232,115 232,265l0 622c0,25 37,46 82,46zm1667 -116l-552 0 0 -516c0,-205 130,-301 267,-301 138,0 285,108 285,308l0 509z"/>
 </g>
</svg>
