<?xml version="1.0" encoding="UTF-8"?>
<!DOCTYPE svg PUBLIC "-//W3C//DTD SVG 1.1//EN" "http://www.w3.org/Graphics/SVG/1.1/DTD/svg11.dtd">
<!-- Creator: CorelDRAW X8 -->
<svg xmlns="http://www.w3.org/2000/svg" xml:space="preserve" width="1078px" height="600px" version="1.1" style="shape-rendering:geometricPrecision; text-rendering:geometricPrecision; image-rendering:optimizeQuality; fill-rule:evenodd; clip-rule:evenodd"
viewBox="0 0 1078 600"
 xmlns:xlink="http://www.w3.org/1999/xlink">
 <defs>
  <style type="text/css">
   <![CDATA[
    .fil0 {fill:#009846;fill-rule:nonzero}
   ]]>
  </style>
 </defs>
 <g id="Layer_x0020_1">
  <metadata id="CorelCorpID_0Corel-Layer"/>
  <path class="fil0" d="M255 548c19,8 30,25 10,40 -23,16 -68,15 -93,4 -116,-49 -170,-166 -172,-287 -1,-52 8,-105 31,-152 50,-104 158,-153 270,-153 76,0 136,14 194,63 56,-44 144,-63 213,-63 115,0 226,33 300,125 50,62 71,137 70,216 -1,56 -14,114 -44,162 -43,68 -114,98 -193,97 -75,-1 -146,-26 -189,-89 -27,-39 -39,-87 -39,-134 0,-57 19,-116 54,-161 47,-61 118,-93 192,-104 -40,-34 -97,-54 -150,-53 -91,1 -158,60 -158,151l0 360c0,24 -44,30 -61,30 -17,0 -61,-6 -61,-30l0 -360c0,-81 -39,-151 -128,-151 -70,0 -132,59 -157,121 -16,39 -22,83 -21,125 1,92 40,205 132,243zm585 -7c37,0 63,-23 81,-56 25,-44 34,-105 34,-145 0,-62 -16,-127 -47,-173 -58,4 -100,33 -128,72 -28,39 -42,89 -43,136 -1,35 4,69 15,96 17,41 47,70 88,70z"/>
 </g>
</svg>
