<?xml version="1.0" encoding="UTF-8"?>
<!DOCTYPE svg PUBLIC "-//W3C//DTD SVG 1.1//EN" "http://www.w3.org/Graphics/SVG/1.1/DTD/svg11.dtd">
<!-- Creator: CorelDRAW X8 -->
<svg xmlns="http://www.w3.org/2000/svg" xml:space="preserve" width="1630px" height="1024px" version="1.1" style="shape-rendering:geometricPrecision; text-rendering:geometricPrecision; image-rendering:optimizeQuality; fill-rule:evenodd; clip-rule:evenodd"
viewBox="0 0 1630 1024"
 xmlns:xlink="http://www.w3.org/1999/xlink">
 <defs>
  <style type="text/css">
   <![CDATA[
    .fil0 {fill:#CC6633;fill-rule:nonzero}
   ]]>
  </style>
 </defs>
 <g id="Layer_x0020_1">
  <metadata id="CorelCorpID_0Corel-Layer"/>
  <path class="fil0" d="M797 128c89,-94 249,-126 378,-127 202,-1 428,73 433,305 2,95 -51,179 -133,224 94,39 156,126 155,226 -2,191 -192,267 -357,268 -75,0 -153,-15 -223,-44 -23,-10 -34,-25 -33,-39 1,-9 6,-17 16,-25 16,-12 41,-18 67,-18 16,0 32,3 47,9 39,16 84,26 126,26 108,1 196,-61 194,-177 -1,-68 -43,-130 -109,-157 -69,-28 -153,-20 -226,-21 -44,0 -80,-21 -79,-46 1,-25 38,-45 83,-44 76,0 160,6 222,-25 58,-30 88,-94 88,-157 -1,-158 -130,-218 -271,-214 -178,5 -298,92 -298,284l0 602c0,25 -36,46 -81,46 -45,0 -82,-21 -82,-46l0 -622c0,-150 -71,-265 -232,-265 -131,0 -238,96 -284,214 -26,67 -36,142 -35,215 2,158 67,356 223,422 20,9 31,22 32,35 0,10 -5,20 -17,29 -17,13 -39,18 -62,18 -20,0 -40,-4 -56,-11 -195,-86 -280,-291 -283,-493 -1,-91 14,-182 51,-261 79,-169 248,-259 431,-259 127,0 232,28 315,128z"/>
 </g>
</svg>
