<?xml version="1.0" encoding="UTF-8"?>
<!DOCTYPE svg PUBLIC "-//W3C//DTD SVG 1.1//EN" "http://www.w3.org/Graphics/SVG/1.1/DTD/svg11.dtd">
<!-- Creator: CorelDRAW X8 -->
<svg xmlns="http://www.w3.org/2000/svg" xml:space="preserve" width="1625px" height="825px" version="1.1" style="shape-rendering:geometricPrecision; text-rendering:geometricPrecision; image-rendering:optimizeQuality; fill-rule:evenodd; clip-rule:evenodd"
viewBox="0 0 1625 825"
 xmlns:xlink="http://www.w3.org/1999/xlink">
 <defs>
  <style type="text/css">
   <![CDATA[
    .fil0 {fill:#898778;fill-rule:nonzero}
   ]]>
  </style>
 </defs>
 <g id="Layer_x0020_1">
  <metadata id="CorelCorpID_0Corel-Layer"/>
  <path class="fil0" d="M667 0c66,1 127,20 175,67 56,-47 146,-67 218,-67 111,0 217,30 291,115 189,39 285,198 273,384 -13,200 -148,323 -348,326 -81,1 -174,-18 -239,-68 -20,-15 -5,-32 13,-39 25,-10 69,-10 91,7 37,28 87,42 133,41 143,-4 219,-138 228,-267 6,-94 -18,-198 -86,-266 10,34 14,71 14,108 -1,56 -14,114 -44,162 -43,69 -115,98 -194,97 -74,-1 -145,-26 -188,-89 -27,-39 -40,-87 -40,-134 0,-57 19,-116 55,-161 47,-61 117,-93 192,-104 -41,-34 -98,-54 -150,-53 -93,2 -158,63 -158,156l0 355c0,24 -44,30 -61,30 -17,0 -61,-6 -61,-30l0 -355c0,-68 -35,-156 -115,-155 -80,0 -115,88 -115,155l0 355c0,24 -44,30 -61,30 -17,0 -62,-6 -62,-30l0 -355c0,-79 -38,-155 -127,-155 -71,0 -132,58 -157,121 -16,39 -22,82 -21,124 1,92 40,206 131,243 20,8 31,25 11,40 -24,17 -69,15 -95,3 -115,-49 -168,-166 -170,-286 -1,-52 8,-105 31,-152 50,-104 158,-153 270,-153 69,0 139,19 189,67 49,-48 111,-68 177,-67zm525 541c37,0 63,-24 81,-56 25,-44 34,-105 34,-145 -1,-62 -16,-127 -47,-173 -58,4 -100,32 -128,72 -28,38 -42,86 -44,134 -1,39 5,77 20,107 17,36 46,61 84,61z"/>
 </g>
</svg>
