<?xml version="1.0" encoding="UTF-8"?>
<!DOCTYPE svg PUBLIC "-//W3C//DTD SVG 1.1//EN" "http://www.w3.org/Graphics/SVG/1.1/DTD/svg11.dtd">
<!-- Creator: CorelDRAW X8 -->
<svg xmlns="http://www.w3.org/2000/svg" xml:space="preserve" width="2571px" height="1488px" version="1.1" style="shape-rendering:geometricPrecision; text-rendering:geometricPrecision; image-rendering:optimizeQuality; fill-rule:evenodd; clip-rule:evenodd"
viewBox="0 0 2571 1489"
 xmlns:xlink="http://www.w3.org/1999/xlink">
 <defs>
  <style type="text/css">
   <![CDATA[
    .fil0 {fill:#2B2A29;fill-rule:nonzero}
   ]]>
  </style>
 </defs>
 <g id="Layer_x0020_1">
  <metadata id="CorelCorpID_0Corel-Layer"/>
  <path class="fil0" d="M1338 1489c332,0 699,-86 945,-292 173,-142 287,-351 288,-623 0,-176 -56,-340 -183,-454 -87,-79 -204,-120 -327,-120 -129,0 -234,30 -322,125 -74,-83 -177,-124 -287,-124 -116,0 -216,44 -292,132 -70,-81 -182,-131 -315,-131 -183,0 -352,90 -431,258 -36,77 -51,164 -51,253 0,203 86,412 280,500 18,8 39,12 60,12 22,0 44,-4 61,-18 12,-9 17,-18 17,-27 0,-15 -13,-29 -32,-37 -160,-67 -223,-271 -223,-431 0,-70 10,-142 35,-206 47,-117 153,-213 284,-213 162,0 232,125 232,274l0 612c0,26 37,46 82,46 45,0 81,-20 81,-46l0 -612c0,-131 63,-274 212,-274 151,0 213,140 213,273l0 612c0,25 37,47 82,47 45,0 81,-22 81,-47l0 -611c0,-153 62,-276 233,-276 93,0 178,55 233,124 75,94 112,224 112,359 0,210 -65,403 -217,551 -204,196 -526,274 -851,274 -297,0 -657,-66 -892,-258 -187,-150 -283,-358 -283,-598 0,-184 68,-368 233,-466 15,-9 21,-20 21,-31 0,-13 -9,-25 -25,-34 -16,-8 -36,-12 -56,-12 -22,0 -43,5 -59,14 -192,114 -277,315 -277,529 0,285 133,527 364,690 267,188 653,256 974,256z"/>
 </g>
</svg>
