<?xml version="1.0" encoding="UTF-8"?>
<!DOCTYPE svg PUBLIC "-//W3C//DTD SVG 1.1//EN" "http://www.w3.org/Graphics/SVG/1.1/DTD/svg11.dtd">
<!-- Creator: CorelDRAW X8 -->
<svg xmlns="http://www.w3.org/2000/svg" xml:space="preserve" width="1332px" height="600px" version="1.1" style="shape-rendering:geometricPrecision; text-rendering:geometricPrecision; image-rendering:optimizeQuality; fill-rule:evenodd; clip-rule:evenodd"
viewBox="0 0 1332 600"
 xmlns:xlink="http://www.w3.org/1999/xlink">
 <defs>
  <style type="text/css">
   <![CDATA[
    .fil0 {fill:#434242;fill-rule:nonzero}
   ]]>
  </style>
 </defs>
 <g id="Layer_x0020_1">
  <metadata id="CorelCorpID_0Corel-Layer"/>
  <path class="fil0" d="M1116 600c17,0 33,-4 46,-9 118,-51 170,-171 170,-294 0,-49 -9,-99 -31,-144 -50,-104 -159,-153 -270,-153 -69,0 -139,19 -189,66 -48,-46 -110,-66 -175,-66 -68,0 -128,19 -177,67 -50,-48 -120,-67 -189,-67 -111,0 -220,49 -270,153 -22,45 -31,95 -31,144 0,123 52,242 170,294 13,6 30,9 46,9 19,0 37,-4 49,-13 7,-5 11,-11 11,-16 0,-9 -9,-18 -21,-23 -96,-40 -132,-156 -132,-252 0,-39 6,-79 21,-115 25,-63 87,-122 157,-122 89,0 128,77 128,156l0 355c0,24 44,30 61,30 17,0 61,-6 61,-30l0 -355c0,-68 36,-155 116,-155 79,0 114,86 114,155l0 355c0,24 44,29 61,29 17,0 61,-5 61,-29l0 -355c0,-79 39,-156 128,-156 70,0 132,59 157,121 15,36 21,77 21,116 0,95 -36,213 -132,252 -12,5 -21,13 -21,22 0,6 4,12 11,17 12,9 30,13 49,13z"/>
 </g>
</svg>
