<?xml version="1.0" encoding="UTF-8"?>
<!DOCTYPE svg PUBLIC "-//W3C//DTD SVG 1.1//EN" "http://www.w3.org/Graphics/SVG/1.1/DTD/svg11.dtd">
<!-- Creator: CorelDRAW X8 -->
<svg xmlns="http://www.w3.org/2000/svg" xml:space="preserve" width="2174px" height="1024px" version="1.1" style="shape-rendering:geometricPrecision; text-rendering:geometricPrecision; image-rendering:optimizeQuality; fill-rule:evenodd; clip-rule:evenodd"
viewBox="0 0 2174 1024"
 xmlns:xlink="http://www.w3.org/1999/xlink">
 <defs>
  <style type="text/css">
   <![CDATA[
    .fil0 {fill:#2B2A29;fill-rule:nonzero}
   ]]>
  </style>
 </defs>
 <g id="Layer_x0020_1">
  <metadata id="CorelCorpID_0Corel-Layer"/>
  <path class="fil0" d="M1886 1024c28,0 56,-10 81,-25 147,-89 207,-265 207,-429 0,-106 -24,-207 -69,-294 -92,-175 -279,-276 -474,-276 -77,0 -157,11 -229,38 -76,-26 -148,-38 -228,-38 -134,0 -280,27 -371,129 -70,-86 -184,-129 -321,-129 -183,0 -352,90 -431,259 -36,77 -51,162 -51,251 0,204 88,417 283,504 16,6 36,10 55,10 23,0 46,-6 63,-18 12,-9 17,-18 17,-27 0,-15 -13,-29 -32,-37 -160,-67 -223,-272 -223,-432 0,-70 10,-141 35,-205 46,-118 153,-214 284,-214 162,0 232,122 232,271l0 616c0,26 37,46 82,46 44,0 82,-20 82,-46l0 -587c0,-182 116,-299 296,-300 34,0 68,4 102,12 -160,107 -242,306 -242,494 0,87 16,174 58,250 66,119 178,177 311,177 131,0 243,-58 308,-176 38,-70 58,-160 58,-251 0,-191 -83,-382 -241,-494 34,-9 68,-12 103,-12 134,0 257,95 318,211 41,78 62,171 62,268 0,137 -46,307 -176,374 -17,9 -26,21 -26,34 0,11 7,22 22,32 17,10 36,14 55,14zm-483 -91c-71,0 -123,-54 -155,-112 -34,-63 -52,-141 -52,-224 0,-164 68,-340 206,-436 136,95 204,274 204,436 0,82 -17,163 -51,225 -31,58 -82,111 -152,111z"/>
 </g>
</svg>
