<?xml version="1.0" encoding="UTF-8"?>
<!DOCTYPE svg PUBLIC "-//W3C//DTD SVG 1.1//EN" "http://www.w3.org/Graphics/SVG/1.1/DTD/svg11.dtd">
<!-- Creator: CorelDRAW X8 -->
<svg xmlns="http://www.w3.org/2000/svg" xml:space="preserve" width="1637px" height="1486px" version="1.1" style="shape-rendering:geometricPrecision; text-rendering:geometricPrecision; image-rendering:optimizeQuality; fill-rule:evenodd; clip-rule:evenodd"
viewBox="0 0 1637 1486"
 xmlns:xlink="http://www.w3.org/1999/xlink">
 <defs>
  <style type="text/css">
   <![CDATA[
    .fil0 {fill:#CC6633}
   ]]>
  </style>
 </defs>
 <g id="Layer_x0020_1">
  <metadata id="CorelCorpID_0Corel-Layer"/>
  <path class="fil0" d="M797 1408c-62,0 -137,-5 -193,-30 -39,-17 -67,-47 -65,-90 2,-51 58,-71 101,-71 56,-1 87,40 87,96 0,31 47,40 71,40 24,0 71,-9 71,-40 -1,-56 30,-97 87,-96 43,0 99,20 101,71 1,43 -27,73 -65,90 -57,26 -133,30 -195,30zm380 15c196,-75 327,-227 396,-408 48,-126 68,-267 63,-404 -6,-189 -65,-375 -194,-491 -87,-79 -208,-120 -332,-120 -132,0 -243,38 -314,117 -70,-79 -182,-117 -314,-117 -183,0 -352,90 -431,259 -37,79 -52,170 -51,261 3,202 89,407 283,493 16,7 36,11 55,11 23,0 46,-5 63,-18 12,-9 17,-19 17,-29 -1,-13 -12,-26 -32,-35 -156,-66 -221,-264 -223,-422 -1,-73 9,-148 35,-215 47,-118 153,-214 284,-214 161,0 233,115 233,265l0 622c0,25 36,46 81,46 45,0 82,-21 82,-46l0 -622c0,-150 71,-265 232,-265 94,0 179,49 234,118 80,100 125,250 132,402 5,118 -6,247 -43,367 -44,144 -124,273 -256,352 6,-14 9,-28 9,-42 0,-39 -21,-77 -70,-108 -40,-26 -100,-39 -160,-39 -53,0 -114,12 -158,40 -44,-28 -105,-40 -158,-40 -60,0 -121,13 -161,39 -47,30 -68,70 -68,108 -1,66 59,132 143,163 74,27 165,36 244,35 69,-1 140,-7 208,-19 61,-10 121,-25 171,-44z"/>
 </g>
</svg>
