<?xml version="1.0" encoding="UTF-8"?>
<!DOCTYPE svg PUBLIC "-//W3C//DTD SVG 1.1//EN" "http://www.w3.org/Graphics/SVG/1.1/DTD/svg11.dtd">
<!-- Creator: CorelDRAW X8 -->
<svg xmlns="http://www.w3.org/2000/svg" xml:space="preserve" width="1700px" height="1486px" version="1.1" style="shape-rendering:geometricPrecision; text-rendering:geometricPrecision; image-rendering:optimizeQuality; fill-rule:evenodd; clip-rule:evenodd"
viewBox="0 0 1700 1486"
 xmlns:xlink="http://www.w3.org/1999/xlink">
 <defs>
  <style type="text/css">
   <![CDATA[
    .fil0 {fill:#2B2A29;fill-rule:nonzero}
   ]]>
  </style>
 </defs>
 <g id="Layer_x0020_1">
  <metadata id="CorelCorpID_0Corel-Layer"/>
  <path class="fil0" d="M1607 1232c59,-87 93,-173 93,-304 0,-177 -81,-333 -230,-401 84,-42 138,-128 138,-221 0,-236 -223,-305 -420,-305 -126,0 -300,31 -391,126 -83,-99 -188,-127 -316,-127 -182,0 -351,90 -430,259 -36,77 -51,162 -51,251 0,204 87,416 283,503 16,7 36,11 55,11 23,0 46,-6 63,-18 12,-9 17,-18 17,-27 0,-15 -14,-29 -33,-37 -163,-69 -222,-270 -222,-432 0,-67 11,-143 35,-205 46,-118 152,-214 283,-214 162,0 233,115 233,265l0 622c0,25 37,46 82,46 45,0 81,-21 81,-46l0 -602c0,-196 125,-284 311,-284 136,0 257,60 258,214 0,75 -35,139 -109,165 -34,12 -72,17 -112,17l-90 0c-45,0 -81,21 -81,46 0,35 56,46 82,46 33,0 58,-2 89,-2 32,0 69,2 101,11 165,45 230,183 230,339 0,127 -43,288 -121,361 -19,-73 -124,-113 -193,-129 -53,-12 -114,-19 -189,-19 -81,0 -152,8 -208,23 -121,31 -182,90 -182,149 0,58 59,117 177,148 61,17 137,25 213,25 78,0 154,-8 225,-26 130,-34 245,-104 329,-228zm-554 170c-76,0 -137,-10 -177,-26 -26,-11 -64,-30 -64,-63 0,-23 22,-46 65,-63 40,-15 100,-25 176,-25 64,0 112,7 151,18 57,17 85,43 85,70 0,39 -56,62 -87,71 -38,11 -86,18 -149,18z"/>
 </g>
</svg>
