<?xml version="1.0" encoding="UTF-8"?>
<!DOCTYPE svg PUBLIC "-//W3C//DTD SVG 1.1//EN" "http://www.w3.org/Graphics/SVG/1.1/DTD/svg11.dtd">
<!-- Creator: CorelDRAW X8 -->
<svg xmlns="http://www.w3.org/2000/svg" xml:space="preserve" width="2223px" height="1486px" version="1.1" style="shape-rendering:geometricPrecision; text-rendering:geometricPrecision; image-rendering:optimizeQuality; fill-rule:evenodd; clip-rule:evenodd"
viewBox="0 0 2223 1486"
 xmlns:xlink="http://www.w3.org/1999/xlink">
 <defs>
  <style type="text/css">
   <![CDATA[
    .fil0 {fill:#009846;fill-rule:nonzero}
   ]]>
  </style>
 </defs>
 <g id="Layer_x0020_1">
  <metadata id="CorelCorpID_0Corel-Layer"/>
  <path class="fil0" d="M1381 1225c-76,0 -137,10 -176,25 -43,17 -65,40 -66,62 0,24 22,47 65,64 40,16 101,26 177,26 63,0 111,-7 149,-18 58,-18 87,-45 87,-72 0,-26 -29,-52 -86,-69 -38,-11 -86,-18 -150,-18zm83 -858l0 611c0,25 -36,46 -81,46 -45,0 -82,-21 -82,-46l0 -612c0,-134 -63,-273 -213,-273 -149,0 -211,143 -211,274l0 612c0,25 -36,45 -81,45 -45,0 -82,-20 -82,-45l0 -612c0,-149 -71,-274 -232,-274 -131,0 -238,96 -284,213 -26,67 -36,142 -35,215 2,158 67,356 223,422 30,13 46,41 15,64 -33,24 -85,21 -121,5 -192,-86 -277,-290 -280,-491 -1,-91 14,-182 51,-261 79,-168 248,-258 431,-258 133,0 245,50 315,131 77,-90 181,-131 291,-132 112,-1 212,40 287,124 88,-95 193,-125 321,-125 124,0 241,41 328,120 129,116 192,302 198,491 5,140 -15,282 -65,411 -70,177 -200,327 -394,401 -62,23 -130,37 -205,49 -62,9 -123,14 -180,14 -68,0 -144,-7 -210,-25 -118,-31 -177,-90 -177,-149 0,-59 61,-117 182,-149 56,-14 127,-22 208,-22 75,0 136,7 189,19 71,17 196,64 196,152 0,6 -1,12 -2,18 130,-78 209,-204 253,-346 38,-121 49,-253 44,-373 -7,-152 -51,-302 -131,-402 -55,-69 -140,-118 -234,-118 -170,0 -232,123 -232,276z"/>
 </g>
</svg>
