<?xml version="1.0" encoding="UTF-8"?>
<!DOCTYPE svg PUBLIC "-//W3C//DTD SVG 1.1//EN" "http://www.w3.org/Graphics/SVG/1.1/DTD/svg11.dtd">
<!-- Creator: CorelDRAW X8 -->
<svg xmlns="http://www.w3.org/2000/svg" xml:space="preserve" width="3136px" height="1486px" version="1.1" style="shape-rendering:geometricPrecision; text-rendering:geometricPrecision; image-rendering:optimizeQuality; fill-rule:evenodd; clip-rule:evenodd"
viewBox="0 0 3136 1486"
 xmlns:xlink="http://www.w3.org/1999/xlink">
 <defs>
  <style type="text/css">
   <![CDATA[
    .fil0 {fill:#898778;fill-rule:nonzero}
   ]]>
  </style>
 </defs>
 <g id="Layer_x0020_1">
  <metadata id="CorelCorpID_0Corel-Layer"/>
  <path class="fil0" d="M1153 116c63,-73 166,-113 290,-116 156,-3 294,74 348,225 33,91 34,185 35,279 0,95 1,189 32,278 29,80 99,153 189,151 155,-3 204,-137 204,-271l0 -616c0,-25 37,-45 82,-45 45,0 81,20 81,45l0 616c0,150 71,271 233,271 131,0 237,-96 283,-214 27,-67 37,-140 36,-213 -3,-158 -67,-358 -223,-424 -31,-13 -46,-41 -16,-64 32,-23 83,-22 118,-6 220,96 290,347 291,568 0,144 -32,283 -98,405 -108,200 -285,315 -486,384 -317,110 -706,118 -1038,117 -326,-2 -679,-42 -962,-164 -331,-143 -547,-402 -552,-769 -3,-221 80,-422 275,-539 31,-18 83,-19 115,-2 32,17 35,46 4,65 -171,101 -233,286 -232,476 3,328 191,568 489,696 251,108 568,145 864,146 305,1 710,-4 997,-119 146,-58 272,-151 367,-306 -70,36 -150,54 -232,54 -130,0 -240,-38 -310,-116 -63,74 -166,113 -290,116 -156,4 -294,-73 -348,-224 -35,-96 -34,-197 -35,-296 0,-89 -3,-177 -32,-261 -29,-80 -99,-154 -189,-152 -155,4 -204,137 -204,272l0 615c0,26 -37,46 -82,46 -45,0 -81,-20 -81,-46l0 -615c0,-150 -71,-271 -233,-271 -131,0 -237,96 -283,213 -27,67 -37,141 -36,214 3,158 67,357 223,424 31,13 47,41 16,63 -32,24 -83,22 -118,7 -195,-85 -281,-292 -283,-494 -2,-91 14,-181 51,-260 78,-168 248,-259 430,-259 130,0 240,39 310,116z"/>
 </g>
</svg>
