<?xml version="1.0" encoding="UTF-8"?>
<!DOCTYPE svg PUBLIC "-//W3C//DTD SVG 1.1//EN" "http://www.w3.org/Graphics/SVG/1.1/DTD/svg11.dtd">
<!-- Creator: CorelDRAW X8 -->
<svg xmlns="http://www.w3.org/2000/svg" xml:space="preserve" width="2226px" height="1486px" version="1.1" style="shape-rendering:geometricPrecision; text-rendering:geometricPrecision; image-rendering:optimizeQuality; fill-rule:evenodd; clip-rule:evenodd"
viewBox="0 0 2226 1486"
 xmlns:xlink="http://www.w3.org/1999/xlink">
 <defs>
  <style type="text/css">
   <![CDATA[
    .fil0 {fill:#434242;fill-rule:nonzero}
   ]]>
  </style>
 </defs>
 <g id="Layer_x0020_1">
  <metadata id="CorelCorpID_0Corel-Layer"/>
  <path class="fil0" d="M2068 1158c106,-145 158,-310 158,-489 0,-136 -32,-289 -105,-405 -105,-169 -297,-264 -494,-264 -76,0 -154,12 -226,38 -67,-24 -142,-38 -227,-38 -131,0 -279,26 -371,129 -70,-86 -185,-129 -321,-129 -183,0 -352,90 -431,259 -36,77 -51,162 -51,251 0,203 87,416 283,503 16,7 36,11 55,11 23,0 46,-6 63,-18 12,-9 17,-18 17,-27 0,-15 -13,-29 -32,-37 -161,-68 -223,-272 -223,-432 0,-70 10,-141 35,-205 46,-118 153,-214 284,-214 162,0 232,122 232,271l0 616c0,25 37,45 81,45 45,0 81,-20 81,-45l0 -587c0,-181 118,-300 298,-300 36,0 70,4 102,12 -160,112 -242,302 -242,493 0,92 20,181 58,251 65,118 177,176 309,176 132,0 244,-57 309,-176 39,-71 58,-159 58,-251 0,-190 -81,-381 -241,-493 34,-8 66,-12 100,-12 142,0 260,92 335,205 71,108 99,240 98,373 0,147 -33,297 -104,425 -43,77 -99,146 -171,201 0,-54 -29,-92 -70,-116 -46,-27 -108,-38 -159,-38 -54,0 -115,11 -159,40 -44,-29 -105,-40 -158,-40 -60,0 -120,13 -160,39 -38,24 -69,62 -69,109 0,66 61,131 143,161 76,28 167,36 243,36 91,0 178,-12 260,-36 162,-48 304,-144 412,-292zm-667 -226c-71,0 -122,-53 -153,-111 -34,-62 -51,-142 -51,-225 0,-163 67,-339 204,-435 136,96 205,272 205,435 0,83 -17,162 -51,224 -32,58 -84,112 -154,112zm-5 476c-61,0 -137,-5 -193,-30 -37,-17 -65,-46 -65,-89 0,-51 58,-73 101,-73 57,-1 88,41 88,97 0,32 46,40 70,40 24,0 71,-9 71,-40 0,-56 31,-98 88,-97 45,1 100,22 100,75 0,42 -27,70 -65,87 -57,25 -133,30 -195,30z"/>
 </g>
</svg>
