<?xml version="1.0" encoding="UTF-8"?>
<!DOCTYPE svg PUBLIC "-//W3C//DTD SVG 1.1//EN" "http://www.w3.org/Graphics/SVG/1.1/DTD/svg11.dtd">
<!-- Creator: CorelDRAW X8 -->
<svg xmlns="http://www.w3.org/2000/svg" xml:space="preserve" width="2267px" height="1486px" version="1.1" style="shape-rendering:geometricPrecision; text-rendering:geometricPrecision; image-rendering:optimizeQuality; fill-rule:evenodd; clip-rule:evenodd"
viewBox="0 0 2267 1486"
 xmlns:xlink="http://www.w3.org/1999/xlink">
 <defs>
  <style type="text/css">
   <![CDATA[
    .fil0 {fill:#434242;fill-rule:nonzero}
   ]]>
  </style>
 </defs>
 <g id="Layer_x0020_1">
  <metadata id="CorelCorpID_0Corel-Layer"/>
  <path class="fil0" d="M2138 1486c45,0 81,-31 81,-69 0,-39 -36,-69 -81,-69l-1842 0c-65,0 -131,-7 -131,-87 0,-56 44,-82 131,-82l1481 0c177,0 311,-41 403,-140 54,-58 87,-137 87,-238 0,-114 -57,-217 -160,-272 70,-44 111,-117 111,-200 0,-106 -66,-197 -157,-250 -103,-61 -235,-79 -350,-79 -100,0 -204,9 -300,42 -75,-30 -157,-42 -237,-42 -135,0 -281,22 -371,129 -70,-86 -184,-129 -321,-129 -182,0 -352,90 -430,259 -35,75 -51,165 -51,251 0,208 81,414 283,503 16,7 36,11 55,11 23,0 46,-6 63,-18 12,-9 17,-18 17,-27 0,-15 -14,-29 -33,-37 -160,-67 -223,-273 -223,-432 0,-70 10,-141 36,-205 46,-118 152,-214 283,-214 162,0 233,121 233,271l0 616c0,25 36,45 81,45 45,0 81,-20 81,-45l0 -592c0,-182 119,-295 297,-295 36,0 70,4 102,12 -160,112 -242,302 -242,493 0,91 20,181 58,251 65,118 177,175 309,175 132,0 244,-57 309,-175 39,-71 58,-159 58,-251 0,-194 -87,-378 -238,-488 58,-14 122,-17 181,-17 78,0 167,12 233,51 67,38 111,108 111,185 0,76 -46,159 -130,159 -26,0 -87,9 -87,45 0,37 59,45 87,46 117,2 180,119 180,224 0,68 -19,124 -51,168 -57,79 -158,120 -274,120l-1484 0c-136,0 -296,32 -296,199 0,164 161,198 296,198l1842 0zm-737 -554c-71,0 -122,-53 -153,-111 -34,-62 -51,-142 -51,-225 0,-165 65,-339 204,-435 136,95 205,272 205,435 0,83 -17,162 -51,224 -32,58 -84,112 -154,112z"/>
 </g>
</svg>
