<?xml version="1.0" encoding="UTF-8"?>
<!DOCTYPE svg PUBLIC "-//W3C//DTD SVG 1.1//EN" "http://www.w3.org/Graphics/SVG/1.1/DTD/svg11.dtd">
<!-- Creator: CorelDRAW X8 -->
<svg xmlns="http://www.w3.org/2000/svg" xml:space="preserve" width="1212px" height="868px" version="1.1" style="shape-rendering:geometricPrecision; text-rendering:geometricPrecision; image-rendering:optimizeQuality; fill-rule:evenodd; clip-rule:evenodd"
viewBox="0 0 1212 868"
 xmlns:xlink="http://www.w3.org/1999/xlink">
 <defs>
  <style type="text/css">
   <![CDATA[
    .fil0 {fill:#CC6633;fill-rule:nonzero}
   ]]>
  </style>
 </defs>
 <g id="Layer_x0020_1">
  <metadata id="CorelCorpID_0Corel-Layer"/>
  <path class="fil0" d="M1165 153c33,67 48,141 47,216 -3,110 -35,214 -103,302 -115,149 -306,200 -488,197 -151,-3 -306,-45 -426,-140 -130,-104 -195,-250 -195,-416 1,-120 46,-230 147,-300 12,-8 30,-12 47,-12 16,0 32,2 44,7 12,5 20,14 20,23 0,6 -3,12 -11,17 -88,61 -124,162 -124,265 0,135 45,262 143,357 97,93 227,137 360,140 156,3 304,-54 390,-189 47,-76 72,-162 73,-251 2,-64 -9,-129 -33,-189 -26,-63 -90,-121 -161,-121 -88,0 -127,70 -127,151l0 360c0,24 -45,30 -62,30 -17,0 -61,-6 -61,-30l0 -360c0,-81 -39,-151 -127,-151 -71,0 -133,59 -158,121 -16,39 -22,83 -21,125 1,91 40,205 132,243 12,5 21,13 21,23 0,5 -3,11 -11,16 -12,9 -31,13 -49,13 -16,0 -32,-3 -44,-8 -116,-49 -170,-166 -172,-287 0,-52 8,-105 31,-152 50,-104 159,-153 271,-153 65,0 138,13 188,58 51,-45 123,-58 189,-58 112,0 220,49 270,153z"/>
 </g>
</svg>
