<?xml version="1.0" encoding="UTF-8"?>
<!DOCTYPE svg PUBLIC "-//W3C//DTD SVG 1.1//EN" "http://www.w3.org/Graphics/SVG/1.1/DTD/svg11.dtd">
<!-- Creator: CorelDRAW X8 -->
<svg xmlns="http://www.w3.org/2000/svg" xml:space="preserve" width="1700px" height="1486px" version="1.1" style="shape-rendering:geometricPrecision; text-rendering:geometricPrecision; image-rendering:optimizeQuality; fill-rule:evenodd; clip-rule:evenodd"
viewBox="0 0 1700 1486"
 xmlns:xlink="http://www.w3.org/1999/xlink">
 <defs>
  <style type="text/css">
   <![CDATA[
    .fil0 {fill:#CC6633;fill-rule:nonzero}
   ]]>
  </style>
 </defs>
 <g id="Layer_x0020_1">
  <metadata id="CorelCorpID_0Corel-Layer"/>
  <path class="fil0" d="M1054 1225c63,0 111,7 150,18 57,17 85,43 86,70 0,26 -29,54 -88,71 -38,11 -86,18 -148,18 -77,0 -138,-10 -178,-26 -43,-17 -65,-40 -64,-63 0,-23 22,-46 65,-63 40,-15 100,-25 177,-25zm-257 -1098c-83,-99 -188,-127 -316,-127 -182,0 -351,90 -430,259 -37,79 -52,170 -51,261 3,202 88,407 283,493 16,7 36,11 56,11 23,0 45,-6 62,-18 12,-9 17,-19 17,-28 -1,-14 -12,-27 -33,-36 -155,-66 -220,-264 -222,-422 -2,-73 9,-148 35,-215 46,-118 152,-214 283,-214 162,0 233,115 233,265l0 622c0,25 37,46 82,46 45,0 81,-21 81,-46l0 -602c0,-192 120,-280 298,-284 141,-4 270,55 271,214 0,78 -38,139 -110,163 -63,21 -141,17 -201,17 -45,0 -81,21 -81,46 0,35 56,46 82,46 66,0 125,-9 190,9 144,39 214,180 228,319 14,144 -30,299 -119,383 -19,-73 -123,-113 -193,-129 -53,-12 -114,-19 -188,-19 -82,0 -153,8 -208,23 -122,31 -183,90 -183,149 0,58 59,117 178,148 64,18 146,26 213,25 82,-1 159,-6 238,-31 130,-40 242,-114 316,-223 58,-87 92,-195 92,-326 0,-177 -80,-311 -230,-379 86,-42 140,-124 138,-221 -5,-232 -231,-306 -433,-305 -129,1 -289,33 -378,126z"/>
 </g>
</svg>
