<?xml version="1.0" encoding="UTF-8"?>
<!DOCTYPE svg PUBLIC "-//W3C//DTD SVG 1.1//EN" "http://www.w3.org/Graphics/SVG/1.1/DTD/svg11.dtd">
<!-- Creator: CorelDRAW X8 -->
<svg xmlns="http://www.w3.org/2000/svg" xml:space="preserve" width="2190px" height="1486px" version="1.1" style="shape-rendering:geometricPrecision; text-rendering:geometricPrecision; image-rendering:optimizeQuality; fill-rule:evenodd; clip-rule:evenodd"
viewBox="0 0 2190 1486"
 xmlns:xlink="http://www.w3.org/1999/xlink">
 <defs>
  <style type="text/css">
   <![CDATA[
    .fil0 {fill:#434242;fill-rule:nonzero}
   ]]>
  </style>
 </defs>
 <g id="Layer_x0020_1">
  <metadata id="CorelCorpID_0Corel-Layer"/>
  <path class="fil0" d="M2061 1486c45,0 81,-31 81,-70 0,-38 -36,-69 -81,-69l-1765 0c-64,0 -131,-7 -131,-86 0,-56 44,-81 131,-81l1250 0c174,0 344,-33 472,-159 119,-116 172,-264 172,-427 0,-159 -54,-315 -162,-428 -104,-110 -249,-166 -400,-166 -77,0 -154,11 -227,38 -66,-24 -141,-38 -226,-38 -132,0 -280,26 -372,129 -70,-86 -184,-129 -321,-129 -182,0 -352,90 -430,259 -35,75 -51,162 -51,249 0,207 81,416 282,504 16,7 36,12 56,12 23,0 46,-6 63,-18 12,-9 16,-18 16,-27 0,-15 -13,-29 -32,-37 -160,-67 -223,-275 -223,-434 0,-70 10,-139 36,-203 46,-118 152,-214 283,-214 162,0 233,121 233,271l0 615c0,25 36,46 81,46 45,0 81,-21 81,-46l0 -586c0,-182 120,-300 298,-300 36,0 70,4 101,12 -160,112 -241,302 -241,493 0,91 20,181 58,251 65,118 177,175 308,175 132,0 245,-57 310,-176 38,-70 58,-158 58,-250 0,-191 -82,-381 -241,-493 33,-8 66,-12 100,-12 118,0 221,67 290,158 73,97 109,224 109,345 0,148 -41,276 -150,383 -80,79 -181,112 -292,112l-1289 0c-136,0 -296,32 -296,199 0,164 161,198 296,198l1765 0zm-660 -555c-70,0 -121,-53 -153,-110 -34,-62 -51,-142 -51,-225 0,-163 67,-339 204,-435 137,95 206,272 206,435 0,83 -18,161 -52,224 -31,57 -84,111 -154,111z"/>
 </g>
</svg>
