<?xml version="1.0" encoding="UTF-8"?>
<!DOCTYPE svg PUBLIC "-//W3C//DTD SVG 1.1//EN" "http://www.w3.org/Graphics/SVG/1.1/DTD/svg11.dtd">
<!-- Creator: CorelDRAW X8 -->
<svg xmlns="http://www.w3.org/2000/svg" xml:space="preserve" width="1630px" height="1024px" version="1.1" style="shape-rendering:geometricPrecision; text-rendering:geometricPrecision; image-rendering:optimizeQuality; fill-rule:evenodd; clip-rule:evenodd"
viewBox="0 0 1630 1024"
 xmlns:xlink="http://www.w3.org/1999/xlink">
 <defs>
  <style type="text/css">
   <![CDATA[
    .fil0 {fill:#434242;fill-rule:nonzero}
   ]]>
  </style>
 </defs>
 <g id="Layer_x0020_1">
  <metadata id="CorelCorpID_0Corel-Layer"/>
  <path class="fil0" d="M1273 1024c165,0 357,-76 357,-268 0,-99 -62,-187 -155,-226 81,-44 133,-131 133,-224 0,-236 -223,-305 -420,-305 -127,0 -300,31 -391,127 -83,-100 -188,-128 -315,-128 -183,0 -352,90 -431,259 -36,77 -51,164 -51,253 0,204 86,415 283,501 16,7 36,11 55,11 23,0 46,-6 63,-18 12,-9 17,-18 17,-27 0,-15 -13,-29 -32,-37 -160,-68 -223,-272 -223,-432 0,-70 10,-141 35,-205 46,-118 153,-214 284,-214 161,0 232,115 232,265l0 622c0,25 37,46 82,46 45,0 81,-21 81,-46l0 -602c0,-196 126,-284 311,-284 136,0 257,61 258,214 1,63 -29,128 -88,157 -45,23 -101,25 -150,25l-75 0c-25,0 -80,11 -80,44 0,35 53,46 79,46l76 0c51,0 104,2 150,21 67,27 109,85 109,157 0,114 -86,177 -194,177 -42,0 -87,-10 -126,-26 -14,-6 -32,-9 -50,-9 -23,0 -47,5 -64,18 -11,9 -16,18 -16,27 0,15 14,29 33,37 70,29 148,44 223,44z"/>
 </g>
</svg>
