<?xml version="1.0" encoding="UTF-8"?>
<!DOCTYPE svg PUBLIC "-//W3C//DTD SVG 1.1//EN" "http://www.w3.org/Graphics/SVG/1.1/DTD/svg11.dtd">
<!-- Creator: CorelDRAW X8 -->
<svg xmlns="http://www.w3.org/2000/svg" xml:space="preserve" width="2268px" height="1486px" version="1.1" style="shape-rendering:geometricPrecision; text-rendering:geometricPrecision; image-rendering:optimizeQuality; fill-rule:evenodd; clip-rule:evenodd"
viewBox="0 0 2268 1487"
 xmlns:xlink="http://www.w3.org/1999/xlink">
 <defs>
  <style type="text/css">
   <![CDATA[
    .fil0 {fill:#2B2A29;fill-rule:nonzero}
   ]]>
  </style>
 </defs>
 <g id="Layer_x0020_1">
  <metadata id="CorelCorpID_0Corel-Layer"/>
  <path class="fil0" d="M2139 1487c45,0 81,-31 81,-69 0,-40 -36,-70 -81,-70l-1843 0c-65,0 -131,-7 -131,-86 0,-56 44,-82 131,-82l1482 0c177,0 311,-42 403,-140 54,-59 87,-138 87,-239 0,-114 -57,-217 -160,-272 69,-44 111,-117 111,-200 0,-106 -66,-196 -157,-250 -103,-60 -235,-79 -350,-79 -100,0 -204,9 -300,42 -75,-30 -158,-42 -238,-42 -134,0 -280,22 -371,129 -70,-86 -184,-129 -321,-129 -182,0 -352,90 -430,259 -35,75 -51,165 -51,251 0,208 82,414 283,504 16,6 36,10 55,10 23,0 46,-6 63,-18 12,-9 17,-18 17,-27 0,-15 -14,-29 -33,-37 -159,-67 -223,-272 -223,-432 0,-70 10,-141 36,-205 46,-118 152,-214 283,-214 162,0 233,121 233,271l0 616c0,26 36,46 81,46 45,0 82,-20 82,-46l0 -592c0,-182 118,-295 296,-295 36,0 70,4 102,12 -160,112 -242,302 -242,493 0,91 20,181 58,251 66,118 178,175 310,175 132,0 244,-57 309,-175 39,-71 58,-159 58,-251 0,-194 -87,-378 -238,-488 58,-14 122,-17 181,-17 78,0 166,13 233,51 66,39 111,108 111,185 0,76 -46,159 -130,159 -26,0 -87,10 -87,45 0,38 59,46 87,46 117,3 180,119 180,224 0,68 -19,124 -51,168 -57,79 -158,121 -274,121l-1485 0c-136,0 -296,31 -296,198 0,165 161,199 296,199l1843 0zm-737 -555c-71,0 -122,-53 -154,-111 -34,-62 -50,-142 -50,-225 0,-164 64,-338 204,-435 136,95 205,272 205,435 0,83 -17,162 -51,224 -32,58 -84,112 -154,112z"/>
 </g>
</svg>
