<?xml version="1.0" encoding="UTF-8"?>
<!DOCTYPE svg PUBLIC "-//W3C//DTD SVG 1.1//EN" "http://www.w3.org/Graphics/SVG/1.1/DTD/svg11.dtd">
<!-- Creator: CorelDRAW X8 -->
<svg xmlns="http://www.w3.org/2000/svg" xml:space="preserve" width="1637px" height="1486px" version="1.1" style="shape-rendering:geometricPrecision; text-rendering:geometricPrecision; image-rendering:optimizeQuality; fill-rule:evenodd; clip-rule:evenodd"
viewBox="0 0 1637 1486"
 xmlns:xlink="http://www.w3.org/1999/xlink">
 <defs>
  <style type="text/css">
   <![CDATA[
    .fil0 {fill:#2B2A29;fill-rule:nonzero}
   ]]>
  </style>
 </defs>
 <g id="Layer_x0020_1">
  <metadata id="CorelCorpID_0Corel-Layer"/>
  <path class="fil0" d="M795 1486c75,0 161,-8 242,-24 50,-10 98,-23 140,-39 194,-74 324,-224 394,-401 45,-116 66,-243 66,-369 0,-194 -44,-397 -195,-533 -87,-79 -208,-120 -332,-120 -132,0 -243,38 -314,117 -70,-79 -182,-117 -314,-117 -183,0 -352,90 -431,259 -36,77 -51,164 -51,253 0,204 87,414 283,501 16,7 36,11 55,11 23,0 46,-6 63,-18 12,-9 17,-18 17,-27 0,-15 -13,-29 -32,-37 -160,-68 -223,-272 -223,-432 0,-70 10,-141 35,-205 47,-118 153,-214 284,-214 161,0 233,115 233,265l0 622c0,25 36,46 81,46 45,0 82,-21 82,-46l0 -622c0,-150 71,-265 232,-265 94,0 179,49 234,118 103,128 132,285 132,444 0,105 -13,228 -45,331 -44,142 -123,268 -253,346l2 -19c0,-87 -125,-134 -196,-151 -53,-12 -114,-19 -189,-19 -81,0 -152,8 -208,22 -121,32 -182,90 -182,149 0,85 109,131 177,149 66,18 142,25 213,25zm0 -84c-165,0 -242,-45 -242,-90 0,-44 81,-87 242,-87 158,0 236,45 236,87 0,43 -73,90 -236,90z"/>
 </g>
</svg>
