<?xml version="1.0" encoding="UTF-8"?>
<!DOCTYPE svg PUBLIC "-//W3C//DTD SVG 1.1//EN" "http://www.w3.org/Graphics/SVG/1.1/DTD/svg11.dtd">
<!-- Creator: CorelDRAW X8 -->
<svg xmlns="http://www.w3.org/2000/svg" xml:space="preserve" width="2081px" height="1412px" version="1.1" style="shape-rendering:geometricPrecision; text-rendering:geometricPrecision; image-rendering:optimizeQuality; fill-rule:evenodd; clip-rule:evenodd"
viewBox="0 0 2081 1413"
 xmlns:xlink="http://www.w3.org/1999/xlink">
 <defs>
  <style type="text/css">
   <![CDATA[
    .fil0 {fill:#898778;fill-rule:nonzero}
   ]]>
  </style>
 </defs>
 <g id="Layer_x0020_1">
  <metadata id="CorelCorpID_0Corel-Layer"/>
  <path class="fil0" d="M878 978c0,25 -37,46 -82,46 -44,0 -81,-21 -81,-46l0 -611c0,-146 -69,-276 -233,-276 -131,0 -237,96 -284,214 -26,67 -36,142 -35,215 2,158 67,356 223,422 30,13 46,41 16,64 -32,24 -84,22 -119,7 -194,-86 -280,-291 -283,-493 -1,-91 14,-183 51,-262 79,-168 248,-258 431,-258 124,0 238,31 323,125 89,-86 222,-125 354,-125 209,1 365,73 469,197 320,65 471,346 451,658 -20,324 -235,548 -559,557 -133,4 -273,-30 -379,-113 -30,-24 -10,-52 20,-64 33,-13 85,-11 113,11 68,54 160,78 246,75 252,-7 382,-234 397,-466 12,-188 -42,-396 -202,-511 29,78 42,155 40,238 -1,99 -24,199 -72,279 -69,114 -183,164 -302,163 -118,-1 -227,-48 -294,-149 -43,-65 -66,-146 -66,-230 0,-98 32,-199 91,-277 78,-104 197,-162 324,-178 -76,-67 -179,-102 -277,-100 -181,4 -281,121 -281,301l0 587zm633 -701c-100,0 -190,46 -250,126 -52,70 -77,156 -77,242 0,74 19,144 55,198 33,50 82,89 143,90 57,0 106,-34 147,-101 43,-72 63,-161 64,-250 1,-108 -22,-214 -82,-305z"/>
 </g>
</svg>
