<?xml version="1.0" encoding="UTF-8"?>
<!DOCTYPE svg PUBLIC "-//W3C//DTD SVG 1.1//EN" "http://www.w3.org/Graphics/SVG/1.1/DTD/svg11.dtd">
<!-- Creator: CorelDRAW X8 -->
<svg xmlns="http://www.w3.org/2000/svg" xml:space="preserve" width="1728px" height="1024px" version="1.1" style="shape-rendering:geometricPrecision; text-rendering:geometricPrecision; image-rendering:optimizeQuality; fill-rule:evenodd; clip-rule:evenodd"
viewBox="0 0 1728 1024"
 xmlns:xlink="http://www.w3.org/1999/xlink">
 <defs>
  <style type="text/css">
   <![CDATA[
    .fil0 {fill:#2B2A29;fill-rule:nonzero}
   ]]>
  </style>
 </defs>
 <g id="Layer_x0020_1">
  <metadata id="CorelCorpID_0Corel-Layer"/>
  <path class="fil0" d="M339 1024c23,0 46,-6 63,-18 11,-9 16,-18 16,-27 0,-15 -13,-29 -32,-37 -160,-68 -223,-272 -223,-432 0,-70 10,-141 35,-205 47,-118 153,-214 284,-214 164,0 233,130 233,276l0 587c0,26 36,46 81,46l850 0c45,0 82,-20 82,-46l0 -526c0,-126 -49,-228 -129,-299 -93,-84 -228,-129 -378,-129 -143,0 -296,43 -398,149 -77,-111 -212,-149 -341,-149 -183,0 -352,90 -431,258 -36,77 -51,165 -51,254 0,204 87,414 283,501 16,7 36,11 56,11zm1226 -115l-456 0c199,-137 311,-356 311,-547 -1,-111 -43,-209 -134,-266 157,26 279,141 279,332l0 481zm-687 -1l0 -480c0,-110 40,-194 103,-251 33,-29 73,-49 118,-49 118,0 160,134 160,234 0,229 -174,459 -381,546z"/>
 </g>
</svg>
