<?xml version="1.0" encoding="UTF-8"?>
<!DOCTYPE svg PUBLIC "-//W3C//DTD SVG 1.1//EN" "http://www.w3.org/Graphics/SVG/1.1/DTD/svg11.dtd">
<!-- Creator: CorelDRAW X8 -->
<svg xmlns="http://www.w3.org/2000/svg" xml:space="preserve" width="2267px" height="1486px" version="1.1" style="shape-rendering:geometricPrecision; text-rendering:geometricPrecision; image-rendering:optimizeQuality; fill-rule:evenodd; clip-rule:evenodd"
viewBox="0 0 2267 1486"
 xmlns:xlink="http://www.w3.org/1999/xlink">
 <defs>
  <style type="text/css">
   <![CDATA[
    .fil0 {fill:#CC6633;fill-rule:nonzero}
   ]]>
  </style>
 </defs>
 <g id="Layer_x0020_1">
  <metadata id="CorelCorpID_0Corel-Layer"/>
  <path class="fil0" d="M386 942c-156,-66 -220,-264 -223,-422 -1,-73 9,-148 36,-215 46,-118 152,-214 283,-214 162,0 233,122 233,271l0 616c0,25 36,45 81,45 45,0 81,-20 81,-45l0 -592c0,-182 119,-295 297,-295 36,0 70,4 102,12 -160,112 -242,302 -242,493 0,92 20,181 58,251 65,118 177,176 309,176 132,-1 244,-58 309,-176 39,-71 58,-159 58,-251 0,-194 -87,-378 -237,-488 57,-14 121,-17 180,-17 78,0 167,13 233,51 66,39 111,108 111,185 0,76 -46,159 -130,159 -27,0 -85,9 -87,45 -2,37 60,46 87,46 117,3 180,119 180,224 0,68 -19,124 -51,168 -57,79 -158,120 -274,120l-1484 0c-201,0 -293,70 -296,193 -4,169 159,204 296,204l1844 0c45,0 81,-31 81,-69 0,-38 -36,-69 -81,-69l-1844 0c-86,0 -130,-20 -131,-83 -2,-59 42,-85 131,-85l1481 0c178,0 311,-42 403,-140 54,-59 87,-138 87,-239 0,-114 -57,-217 -160,-272 69,-44 110,-115 111,-198 1,-107 -64,-198 -157,-252 -103,-60 -235,-79 -350,-79 -100,0 -204,9 -300,42 -75,-30 -157,-42 -237,-42 -135,0 -281,22 -371,129 -70,-86 -184,-129 -321,-129 -182,0 -352,90 -431,259 -36,79 -52,169 -51,260 3,201 89,408 283,494 17,7 36,11 56,11 23,0 46,-5 63,-18 11,-8 17,-18 16,-28 0,-14 -11,-27 -32,-36zm1015 -781c136,96 205,272 205,435 0,83 -17,162 -51,224 -32,58 -84,112 -154,112 -71,0 -122,-53 -153,-111 -34,-62 -51,-142 -51,-225 -1,-163 66,-339 204,-435z"/>
 </g>
</svg>
