<?xml version="1.0" encoding="UTF-8"?>
<!DOCTYPE svg PUBLIC "-//W3C//DTD SVG 1.1//EN" "http://www.w3.org/Graphics/SVG/1.1/DTD/svg11.dtd">
<!-- Creator: CorelDRAW X8 -->
<svg xmlns="http://www.w3.org/2000/svg" xml:space="preserve" width="2226px" height="1486px" version="1.1" style="shape-rendering:geometricPrecision; text-rendering:geometricPrecision; image-rendering:optimizeQuality; fill-rule:evenodd; clip-rule:evenodd"
viewBox="0 0 2226 1486"
 xmlns:xlink="http://www.w3.org/1999/xlink">
 <defs>
  <style type="text/css">
   <![CDATA[
    .fil0 {fill:#898778;fill-rule:nonzero}
   ]]>
  </style>
 </defs>
 <g id="Layer_x0020_1">
  <metadata id="CorelCorpID_0Corel-Layer"/>
  <path class="fil0" d="M1401 1225c63,0 112,7 150,18 57,17 86,43 86,70 0,27 -29,54 -88,71 -38,11 -85,18 -148,18 -77,0 -138,-10 -177,-26 -44,-17 -65,-40 -65,-63 0,-23 22,-46 65,-63 40,-15 101,-25 177,-25zm-1015 -283c-156,-66 -221,-264 -223,-422 -1,-73 9,-148 35,-215 46,-118 153,-214 284,-214 162,0 232,121 232,271l0 616c0,25 37,45 81,45 45,0 82,-20 82,-45l0 -587c0,-181 119,-300 297,-300 36,0 70,4 102,12 -160,112 -242,302 -242,493 0,91 20,181 58,251 65,118 177,175 309,175 132,0 244,-57 309,-175 39,-71 59,-159 59,-251 -1,-191 -82,-381 -242,-493 34,-8 66,-12 101,-12 141,0 259,92 334,205 71,109 99,240 98,373 -1,147 -33,298 -104,425 -43,78 -100,147 -172,202 -15,-77 -123,-119 -194,-136 -54,-12 -115,-19 -189,-19 -81,0 -153,8 -208,23 -122,31 -182,90 -183,149 0,58 59,117 178,149 64,17 146,25 213,24 64,-1 126,-7 186,-19 190,-38 355,-135 481,-309 103,-142 155,-317 158,-495 2,-139 -30,-279 -105,-398 -105,-170 -297,-265 -493,-265 -77,0 -155,11 -227,38 -67,-24 -142,-38 -227,-38 -131,0 -279,26 -371,129 -70,-86 -184,-129 -321,-129 -183,0 -352,90 -431,259 -37,79 -52,169 -51,260 3,201 89,408 283,494 35,15 86,16 118,-7 31,-23 15,-51 -15,-64zm1015 -781c136,95 205,272 205,435 0,83 -17,162 -51,224 -32,58 -84,112 -154,112 -70,0 -122,-53 -153,-111 -34,-62 -51,-142 -51,-225 0,-163 67,-339 204,-435z"/>
 </g>
</svg>
