<?xml version="1.0" encoding="UTF-8"?>
<!DOCTYPE svg PUBLIC "-//W3C//DTD SVG 1.1//EN" "http://www.w3.org/Graphics/SVG/1.1/DTD/svg11.dtd">
<!-- Creator: CorelDRAW X8 -->
<svg xmlns="http://www.w3.org/2000/svg" xml:space="preserve" width="2038px" height="1486px" version="1.1" style="shape-rendering:geometricPrecision; text-rendering:geometricPrecision; image-rendering:optimizeQuality; fill-rule:evenodd; clip-rule:evenodd"
viewBox="0 0 2038 1486"
 xmlns:xlink="http://www.w3.org/1999/xlink">
 <defs>
  <style type="text/css">
   <![CDATA[
    .fil0 {fill:#CC6633;fill-rule:nonzero}
   ]]>
  </style>
 </defs>
 <g id="Layer_x0020_1">
  <metadata id="CorelCorpID_0Corel-Layer"/>
  <path class="fil0" d="M1137 1395c183,-2 398,-51 549,-166 113,-85 189,-205 189,-367 0,-115 -47,-235 -164,-273 -68,-22 -140,-11 -215,-11 -25,0 -82,-11 -82,-46 0,-25 36,-45 82,-45 59,0 138,4 200,-18 72,-24 110,-85 110,-163 0,-159 -130,-218 -271,-214 -177,5 -298,92 -298,284l0 602c0,25 -36,46 -81,46 -45,0 -82,-21 -82,-46l0 -622c0,-150 -71,-265 -232,-265 -131,0 -238,96 -284,214 -26,67 -36,142 -35,215 2,158 67,356 223,422 21,9 32,23 32,36 0,10 -6,20 -17,28 -16,12 -38,18 -61,18 -20,0 -40,-4 -57,-11 -195,-86 -280,-291 -283,-493 -1,-91 14,-182 51,-261 79,-169 248,-259 431,-259 127,0 232,28 315,128 89,-94 250,-126 378,-127 202,-1 429,73 433,305 2,94 -49,175 -131,218 135,63 201,193 201,338 0,214 -119,365 -283,464 -183,111 -422,158 -618,160 -306,2 -586,-43 -836,-261 -185,-161 -302,-434 -301,-692 0,-202 74,-395 243,-515 16,-11 39,-17 63,-18 18,0 36,3 51,10 20,9 31,22 31,35 1,10 -5,20 -17,29 -146,104 -207,277 -208,459 0,219 87,450 222,593 212,225 468,271 752,269z"/>
 </g>
</svg>
