<?xml version="1.0" encoding="UTF-8"?>
<!DOCTYPE svg PUBLIC "-//W3C//DTD SVG 1.1//EN" "http://www.w3.org/Graphics/SVG/1.1/DTD/svg11.dtd">
<!-- Creator: CorelDRAW X8 -->
<svg xmlns="http://www.w3.org/2000/svg" xml:space="preserve" width="2667px" height="1412px" version="1.1" style="shape-rendering:geometricPrecision; text-rendering:geometricPrecision; image-rendering:optimizeQuality; fill-rule:evenodd; clip-rule:evenodd"
viewBox="0 0 2667 1412"
 xmlns:xlink="http://www.w3.org/1999/xlink">
 <defs>
  <style type="text/css">
   <![CDATA[
    .fil0 {fill:#898778;fill-rule:nonzero}
   ]]>
  </style>
 </defs>
 <g id="Layer_x0020_1">
  <metadata id="CorelCorpID_0Corel-Layer"/>
  <path class="fil0" d="M1381 132c98,-94 213,-132 366,-132 178,0 349,57 467,197 320,65 471,346 451,658 -20,324 -235,547 -559,557 -133,4 -273,-30 -379,-113 -30,-24 -10,-52 20,-64 33,-13 85,-11 113,11 68,54 160,78 246,75 252,-7 382,-234 397,-466 12,-188 -42,-396 -202,-511 29,78 42,155 40,238 -1,99 -24,198 -72,279 -69,114 -183,164 -302,163 -118,-1 -227,-48 -294,-149 -43,-65 -66,-146 -66,-230 0,-98 32,-199 91,-277 78,-104 197,-162 324,-178 -76,-67 -179,-102 -277,-100 -181,4 -281,119 -281,301l0 587c0,25 -36,46 -81,46 -45,0 -82,-21 -82,-46l0 -612c0,-134 -63,-273 -213,-273 -149,0 -211,143 -211,274l0 612c0,25 -36,45 -81,45 -45,0 -82,-20 -82,-45l0 -612c0,-149 -71,-274 -232,-274 -131,0 -238,96 -284,213 -26,67 -36,142 -35,215 2,158 67,356 223,422 30,13 46,41 15,64 -33,24 -85,21 -121,5 -192,-86 -277,-290 -280,-491 -1,-91 14,-182 51,-261 79,-168 248,-259 431,-259 133,0 244,51 315,132 77,-91 181,-131 291,-132 115,-1 218,42 293,131zm716 145c-100,0 -190,46 -250,126 -52,69 -77,156 -77,242 0,74 19,144 55,198 33,50 82,89 143,90 57,0 106,-34 147,-101 43,-72 63,-161 64,-250 1,-108 -22,-215 -82,-305z"/>
 </g>
</svg>
