<?xml version="1.0" encoding="UTF-8"?>
<!DOCTYPE svg PUBLIC "-//W3C//DTD SVG 1.1//EN" "http://www.w3.org/Graphics/SVG/1.1/DTD/svg11.dtd">
<!-- Creator: CorelDRAW X8 -->
<svg xmlns="http://www.w3.org/2000/svg" xml:space="preserve" width="1700px" height="1486px" version="1.1" style="shape-rendering:geometricPrecision; text-rendering:geometricPrecision; image-rendering:optimizeQuality; fill-rule:evenodd; clip-rule:evenodd"
viewBox="0 0 1700 1486"
 xmlns:xlink="http://www.w3.org/1999/xlink">
 <defs>
  <style type="text/css">
   <![CDATA[
    .fil0 {fill:#434242;fill-rule:nonzero}
   ]]>
  </style>
 </defs>
 <g id="Layer_x0020_1">
  <metadata id="CorelCorpID_0Corel-Layer"/>
  <path class="fil0" d="M1700 938c0,-177 -81,-343 -230,-411 84,-42 138,-128 138,-221 0,-236 -223,-305 -420,-305 -126,0 -300,31 -391,126 -83,-99 -188,-127 -316,-127 -182,0 -351,90 -430,259 -36,77 -51,162 -51,251 0,204 86,416 283,503 16,7 36,11 55,11 23,0 46,-6 63,-18 12,-9 17,-18 17,-27 0,-15 -14,-29 -33,-37 -164,-69 -222,-270 -222,-432 0,-67 11,-143 35,-205 46,-118 152,-214 283,-214 162,0 233,115 233,265l0 622c0,25 37,46 82,46 45,0 81,-21 81,-46l0 -602c0,-197 125,-284 311,-284 136,0 258,60 258,214 1,74 -35,138 -109,165 -33,12 -72,17 -112,17l-90 0c-45,0 -81,21 -81,46 0,35 56,46 82,46 33,0 58,-2 89,-2 32,0 69,2 101,11 165,45 238,193 238,349 0,120 -45,273 -131,353 0,-50 -27,-85 -69,-111 -40,-26 -101,-39 -161,-39 -53,0 -114,12 -158,40 -44,-28 -105,-40 -158,-40 -60,0 -120,13 -160,39 -39,25 -69,62 -69,110 0,65 61,131 143,161 81,30 179,35 243,35 89,0 176,-10 258,-35 233,-70 398,-266 398,-513zm-656 470c-61,0 -137,-5 -193,-30 -37,-17 -65,-46 -65,-88 0,-53 59,-73 103,-73 55,0 85,39 85,94 0,34 44,43 71,43 24,0 71,-10 71,-40 0,-56 30,-97 85,-97 46,0 103,20 103,75 0,41 -27,69 -65,86 -57,25 -133,30 -195,30z"/>
 </g>
</svg>
