<?xml version="1.0" encoding="UTF-8"?>
<!DOCTYPE svg PUBLIC "-//W3C//DTD SVG 1.1//EN" "http://www.w3.org/Graphics/SVG/1.1/DTD/svg11.dtd">
<!-- Creator: CorelDRAW X8 -->
<svg xmlns="http://www.w3.org/2000/svg" xml:space="preserve" width="2190px" height="1486px" version="1.1" style="shape-rendering:geometricPrecision; text-rendering:geometricPrecision; image-rendering:optimizeQuality; fill-rule:evenodd; clip-rule:evenodd"
viewBox="0 0 2190 1486"
 xmlns:xlink="http://www.w3.org/1999/xlink">
 <defs>
  <style type="text/css">
   <![CDATA[
    .fil0 {fill:#009846;fill-rule:nonzero}
   ]]>
  </style>
 </defs>
 <g id="Layer_x0020_1">
  <metadata id="CorelCorpID_0Corel-Layer"/>
  <path class="fil0" d="M386 942c-156,-66 -221,-264 -223,-422 -1,-73 9,-148 35,-215 47,-118 153,-214 284,-214 162,0 233,121 233,271l0 616c0,25 36,45 81,45 44,0 81,-20 81,-45l0 -587c0,-182 120,-300 298,-300 36,0 70,4 101,12 -159,112 -241,302 -241,493 0,91 20,181 58,251 65,118 177,175 308,175 132,0 245,-57 310,-175 39,-71 58,-159 58,-251 0,-191 -82,-381 -241,-493 33,-8 67,-12 100,-12 118,0 221,67 290,158 79,105 115,244 109,374 -6,132 -55,260 -150,354 -80,79 -181,112 -291,112l-1290 0c-202,0 -294,70 -296,193 -4,169 159,204 296,204l1773 0c45,0 82,-31 82,-69 0,-38 -37,-69 -82,-69l-1773 0c-86,0 -130,-20 -132,-83 -1,-59 42,-85 132,-85l1250 0c174,0 344,-32 473,-158 108,-107 164,-251 170,-397 8,-169 -46,-339 -161,-459 -104,-109 -249,-166 -400,-166 -77,0 -154,11 -227,38 -66,-25 -141,-38 -226,-38 -132,0 -280,26 -372,128 -70,-85 -184,-128 -321,-128 -183,0 -352,90 -431,259 -37,79 -52,169 -51,260 3,201 89,408 283,494 35,15 87,16 118,-7 31,-23 15,-51 -15,-64zm1015 -781c137,95 206,272 206,435 0,83 -17,162 -51,224 -32,58 -84,112 -155,112 -70,0 -121,-53 -153,-111 -33,-62 -51,-142 -51,-225 0,-163 67,-339 204,-435z"/>
 </g>
</svg>
