<?xml version="1.0" encoding="UTF-8"?>
<!DOCTYPE svg PUBLIC "-//W3C//DTD SVG 1.1//EN" "http://www.w3.org/Graphics/SVG/1.1/DTD/svg11.dtd">
<!-- Creator: CorelDRAW X8 -->
<svg xmlns="http://www.w3.org/2000/svg" xml:space="preserve" width="2625px" height="1024px" version="1.1" style="shape-rendering:geometricPrecision; text-rendering:geometricPrecision; image-rendering:optimizeQuality; fill-rule:evenodd; clip-rule:evenodd"
viewBox="0 0 2625 1024"
 xmlns:xlink="http://www.w3.org/1999/xlink">
 <defs>
  <style type="text/css">
   <![CDATA[
    .fil0 {fill:#009846;fill-rule:nonzero}
   ]]>
  </style>
 </defs>
 <g id="Layer_x0020_1">
  <metadata id="CorelCorpID_0Corel-Layer"/>
  <path class="fil0" d="M1206 918c156,-66 221,-252 223,-410 1,-73 -9,-142 -35,-209 -47,-118 -153,-208 -284,-208 -162,0 -233,115 -233,265l0 622c0,25 -36,46 -81,46 -45,0 -82,-21 -82,-46l0 -622c0,-150 -71,-265 -232,-265 -131,0 -238,96 -284,214 -26,67 -36,142 -35,215 2,158 67,356 223,422 30,13 46,41 15,64 -32,23 -83,22 -118,7 -195,-86 -280,-291 -283,-493 -1,-91 14,-182 51,-261 79,-169 248,-259 431,-259 132,0 243,38 314,117 70,-79 182,-117 314,-117 183,0 352,84 431,253 37,79 52,164 51,255 -2,153 -52,301 -160,400l317 0 0 -516c0,-263 212,-392 431,-392 218,0 445,143 445,399l0 555c0,34 -56,46 -81,46l-1291 0c-26,0 -82,-14 -79,-48 1,-13 12,-26 32,-34zm705 -526l0 516 552 0 0 -509c0,-200 -147,-308 -285,-308 -137,0 -267,96 -267,301z"/>
 </g>
</svg>
