<?xml version="1.0" encoding="UTF-8"?>
<!DOCTYPE svg PUBLIC "-//W3C//DTD SVG 1.1//EN" "http://www.w3.org/Graphics/SVG/1.1/DTD/svg11.dtd">
<!-- Creator: CorelDRAW X8 -->
<svg xmlns="http://www.w3.org/2000/svg" xml:space="preserve" width="1637px" height="1486px" version="1.1" style="shape-rendering:geometricPrecision; text-rendering:geometricPrecision; image-rendering:optimizeQuality; fill-rule:evenodd; clip-rule:evenodd"
viewBox="0 0 1637 1486"
 xmlns:xlink="http://www.w3.org/1999/xlink">
 <defs>
  <style type="text/css">
   <![CDATA[
    .fil0 {fill:#009846;fill-rule:nonzero}
   ]]>
  </style>
 </defs>
 <g id="Layer_x0020_1">
  <metadata id="CorelCorpID_0Corel-Layer"/>
  <path class="fil0" d="M795 1225c64,0 112,7 150,18 57,17 86,43 86,69 0,27 -29,54 -87,72 -38,11 -86,18 -149,18 -76,0 -137,-10 -177,-26 -44,-17 -65,-40 -65,-64 1,-22 23,-45 66,-62 39,-15 100,-25 176,-25zm647 -1105c-87,-79 -208,-120 -332,-120 -132,0 -243,38 -314,117 -70,-79 -182,-117 -314,-117 -183,0 -352,90 -431,259 -37,79 -52,170 -51,261 3,202 89,407 283,493 35,15 87,16 118,-7 31,-23 15,-51 -15,-64 -156,-66 -221,-264 -223,-422 -1,-73 9,-148 35,-215 47,-118 153,-214 284,-214 161,0 233,115 233,265l0 622c0,25 36,46 81,46 45,0 82,-21 82,-46l0 -622c0,-150 71,-265 232,-265 94,0 179,49 234,118 80,100 124,250 131,402 5,120 -6,252 -44,373 -44,142 -123,268 -253,346 19,-100 -118,-152 -194,-170 -53,-12 -114,-19 -189,-19 -81,0 -152,8 -208,22 -121,32 -182,90 -182,149 -1,59 59,118 177,149 66,18 142,25 210,25 57,0 118,-5 180,-14 75,-12 143,-26 205,-49 194,-74 324,-224 394,-401 50,-129 70,-271 65,-411 -6,-189 -65,-375 -194,-491z"/>
 </g>
</svg>
