<?xml version="1.0" encoding="UTF-8"?>
<!DOCTYPE svg PUBLIC "-//W3C//DTD SVG 1.1//EN" "http://www.w3.org/Graphics/SVG/1.1/DTD/svg11.dtd">
<!-- Creator: CorelDRAW X8 -->
<svg xmlns="http://www.w3.org/2000/svg" xml:space="preserve" width="1332px" height="600px" version="1.1" style="shape-rendering:geometricPrecision; text-rendering:geometricPrecision; image-rendering:optimizeQuality; fill-rule:evenodd; clip-rule:evenodd"
viewBox="0 0 1332 600"
 xmlns:xlink="http://www.w3.org/1999/xlink">
 <defs>
  <style type="text/css">
   <![CDATA[
    .fil0 {fill:#CC6633;fill-rule:nonzero}
   ]]>
  </style>
 </defs>
 <g id="Layer_x0020_1">
  <metadata id="CorelCorpID_0Corel-Layer"/>
  <path class="fil0" d="M842 66c50,-47 120,-66 189,-66 111,0 220,49 270,153 23,47 32,100 31,152 -2,120 -55,236 -170,286 -13,5 -30,9 -48,9 -17,0 -35,-4 -47,-13 -8,-6 -11,-12 -11,-18 1,-8 10,-17 21,-21 92,-38 131,-152 132,-243 1,-42 -5,-86 -21,-125 -25,-62 -87,-121 -157,-121 -89,0 -128,77 -128,156l0 355c0,24 -44,29 -61,29 -17,0 -61,-5 -61,-29l0 -355c0,-69 -36,-156 -116,-155 -80,1 -114,88 -114,155l0 355c0,24 -44,30 -61,30 -17,0 -61,-6 -61,-30l0 -355c0,-79 -39,-156 -128,-156 -70,0 -132,59 -157,122 -16,39 -22,82 -21,124 1,92 40,205 132,243 12,5 21,13 21,23 0,5 -3,11 -11,16 -13,9 -31,13 -49,13 -17,0 -34,-3 -46,-9 -115,-50 -168,-166 -170,-286 -1,-52 8,-105 31,-152 50,-104 159,-153 270,-153 69,0 139,19 189,67 48,-47 109,-66 175,-67 67,-1 128,19 177,66z"/>
 </g>
</svg>
