<?xml version="1.0" encoding="UTF-8" standalone="no"?>
<!-- Creator: CorelDRAW X8 -->

<svg
   xmlns:dc="http://purl.org/dc/elements/1.1/"
   xmlns:cc="http://creativecommons.org/ns#"
   xmlns:rdf="http://www.w3.org/1999/02/22-rdf-syntax-ns#"
   xmlns:svg="http://www.w3.org/2000/svg"
   xmlns="http://www.w3.org/2000/svg"
   xmlns:sodipodi="http://sodipodi.sourceforge.net/DTD/sodipodi-0.dtd"
   xmlns:inkscape="http://www.inkscape.org/namespaces/inkscape"
   xml:space="preserve"
   width="1978px"
   height="1486px"
   version="1.1"
   style="shape-rendering:geometricPrecision; text-rendering:geometricPrecision; image-rendering:optimizeQuality; fill-rule:evenodd; clip-rule:evenodd"
   viewBox="0 0 1978 1486"
   id="svg10"
   sodipodi:docname="ന്ര.svg"
   inkscape:version="0.92.3 (2405546, 2018-03-11)"><metadata
   id="metadata14"><rdf:RDF><cc:Work
       rdf:about=""><dc:format>image/svg+xml</dc:format><dc:type
         rdf:resource="http://purl.org/dc/dcmitype/StillImage" /></cc:Work></rdf:RDF></metadata><sodipodi:namedview
   pagecolor="#ffffff"
   bordercolor="#666666"
   borderopacity="1"
   objecttolerance="10"
   gridtolerance="10"
   guidetolerance="10"
   inkscape:pageopacity="0"
   inkscape:pageshadow="2"
   inkscape:window-width="3200"
   inkscape:window-height="1693"
   id="namedview12"
   showgrid="false"
   inkscape:zoom="0.15881561"
   inkscape:cx="340.44915"
   inkscape:cy="743"
   inkscape:window-x="0"
   inkscape:window-y="0"
   inkscape:window-maximized="1"
   inkscape:current-layer="Layer_x0020_1" />
 <defs
   id="defs4">
  <style
   type="text/css"
   id="style2">
   <![CDATA[
    .fil0 {fill:#669933;fill-rule:nonzero}
   ]]>
  </style>
 </defs>
 <g
   id="Layer_x0020_1">
  <metadata
   id="CorelCorpID_0Corel-Layer" />
  <path
   class="fil0"
   d="m 1978,631 c -4,210 -69,384 -171,520 -168,224 -451,342 -791,335 C 750,1481 506,1397 324,1248 124,1084 -1,840 0,533 1,331 74,138 243,18 c 28,-20 79,-23 115,-8 35,16 41,44 13,64 -146,104 -207,277 -207,459 -1,253 87,465 238,616 152,152 367,241 619,246 307,6 541,-118 671,-331 73,-119 120,-266 123,-434 3,-110 -15,-222 -55,-325 C 1713,187 1601,91 1470,91 1308,91 1237,206 1237,356 v 622 c 0,25 -36,46 -81,46 -45,0 -81,-21 -81,-46 V 356 C 1075,206 1003,91 842,91 711,91 605,187 558,305 c -26,67 -36,142 -35,215 2,158 67,356 223,422 35,15 42,44 15,64 -31,23 -83,22 -118,7 C 449,927 363,722 360,520 359,429 374,338 411,259 490,90 659,0 842,0 974,0 1086,38 1156,117 1226,38 1338,0 1470,0 c 183,0 352,90 431,259 55,117 79,244 77,372 z"
   id="path7"
   inkscape:connector-curvature="0"
   style="fill:#669933;fill-rule:nonzero"
   sodipodi:nodetypes="cscccccccsccccssssssscccccccscscc" />
 </g>
</svg>