<?xml version="1.0" encoding="UTF-8"?>
<!DOCTYPE svg PUBLIC "-//W3C//DTD SVG 1.1//EN" "http://www.w3.org/Graphics/SVG/1.1/DTD/svg11.dtd">
<!-- Creator: CorelDRAW X8 -->
<svg xmlns="http://www.w3.org/2000/svg" xml:space="preserve" width="2173px" height="1024px" version="1.1" style="shape-rendering:geometricPrecision; text-rendering:geometricPrecision; image-rendering:optimizeQuality; fill-rule:evenodd; clip-rule:evenodd"
viewBox="0 0 2173 1024"
 xmlns:xlink="http://www.w3.org/1999/xlink">
 <defs>
  <style type="text/css">
   <![CDATA[
    .fil0 {fill:#434242;fill-rule:nonzero}
   ]]>
  </style>
 </defs>
 <g id="Layer_x0020_1">
  <metadata id="CorelCorpID_0Corel-Layer"/>
  <path class="fil0" d="M1885 1024c28,0 56,-10 81,-25 147,-89 207,-265 207,-429 0,-106 -23,-207 -69,-294 -91,-175 -279,-276 -474,-276 -76,0 -157,11 -229,38 -76,-26 -147,-38 -227,-38 -135,0 -280,27 -371,129 -70,-86 -184,-129 -321,-129 -183,0 -352,90 -431,259 -36,77 -51,162 -51,251 0,203 87,417 283,503 16,7 36,11 55,11 23,0 46,-6 63,-18 12,-9 17,-18 17,-27 0,-15 -13,-29 -32,-37 -160,-68 -223,-272 -223,-432 0,-70 10,-141 35,-205 46,-118 153,-214 284,-214 162,0 232,122 232,271l0 616c0,25 37,45 82,45 44,0 81,-20 81,-45l0 -587c0,-182 117,-299 297,-300 33,0 67,4 101,12 -159,107 -241,306 -241,494 0,87 16,173 58,250 65,119 178,177 310,177 131,0 243,-58 308,-176 38,-70 58,-160 58,-251 0,-191 -83,-382 -241,-494 34,-9 68,-12 103,-12 134,0 257,95 318,211 41,78 62,171 62,268 0,137 -46,307 -176,374 -17,9 -26,21 -26,34 0,11 7,22 22,31 17,10 36,15 55,15zm-483 -91c-71,0 -123,-54 -155,-112 -34,-63 -51,-141 -51,-224 0,-164 68,-340 205,-436 136,95 204,274 204,436 0,82 -17,163 -51,225 -31,58 -82,111 -152,111z"/>
 </g>
</svg>
