<?xml version="1.0" encoding="UTF-8"?>
<!DOCTYPE svg PUBLIC "-//W3C//DTD SVG 1.1//EN" "http://www.w3.org/Graphics/SVG/1.1/DTD/svg11.dtd">
<!-- Creator: CorelDRAW X8 -->
<svg xmlns="http://www.w3.org/2000/svg" xml:space="preserve" width="2767px" height="1024px" version="1.1" style="shape-rendering:geometricPrecision; text-rendering:geometricPrecision; image-rendering:optimizeQuality; fill-rule:evenodd; clip-rule:evenodd"
viewBox="0 0 2767 1024"
 xmlns:xlink="http://www.w3.org/1999/xlink">
 <defs>
  <style type="text/css">
   <![CDATA[
    .fil0 {fill:#434242;fill-rule:nonzero}
   ]]>
  </style>
 </defs>
 <g id="Layer_x0020_1">
  <metadata id="CorelCorpID_0Corel-Layer"/>
  <path class="fil0" d="M2285 1024c183,0 352,-90 431,-259 36,-77 51,-163 51,-252 0,-204 -87,-416 -283,-502 -16,-7 -36,-11 -55,-11 -23,0 -46,6 -63,18 -12,9 -17,18 -17,27 0,15 13,29 32,37 160,68 223,273 223,433 0,70 -10,140 -35,204 -46,118 -153,214 -284,214 -162,0 -232,-122 -232,-271l0 -616c0,-25 -37,-46 -82,-46 -45,0 -81,21 -81,46l0 616c0,136 -57,271 -214,271 -88,0 -151,-73 -179,-152 -32,-88 -32,-183 -33,-278 -1,-93 -2,-188 -34,-278 -53,-148 -193,-225 -344,-225 -107,0 -222,31 -294,116 -71,-77 -180,-116 -310,-116 -183,0 -352,90 -431,259 -36,77 -51,163 -51,252 0,204 87,416 283,502 16,7 36,11 55,11 23,0 46,-6 63,-18 12,-9 17,-18 17,-27 0,-15 -13,-29 -32,-37 -161,-68 -223,-273 -223,-433 0,-70 10,-140 35,-204 46,-118 153,-214 284,-214 162,0 232,122 232,271l0 616c0,25 37,46 82,46 45,0 81,-21 81,-46l0 -616c0,-135 52,-271 209,-271 88,0 155,73 184,152 30,83 32,172 33,261 1,99 0,199 34,295 54,152 190,225 339,225 107,0 227,-31 299,-116 71,77 180,116 310,116z"/>
 </g>
</svg>
