<?xml version="1.0" encoding="UTF-8"?>
<!DOCTYPE svg PUBLIC "-//W3C//DTD SVG 1.1//EN" "http://www.w3.org/Graphics/SVG/1.1/DTD/svg11.dtd">
<!-- Creator: CorelDRAW X8 -->
<svg xmlns="http://www.w3.org/2000/svg" xml:space="preserve" width="1429px" height="600px" version="1.1" style="shape-rendering:geometricPrecision; text-rendering:geometricPrecision; image-rendering:optimizeQuality; fill-rule:evenodd; clip-rule:evenodd"
viewBox="0 0 1429 600"
 xmlns:xlink="http://www.w3.org/1999/xlink">
 <defs>
  <style type="text/css">
   <![CDATA[
    .fil0 {fill:#434242;fill-rule:nonzero}
   ]]>
  </style>
 </defs>
 <g id="Layer_x0020_1">
  <metadata id="CorelCorpID_0Corel-Layer"/>
  <path class="fil0" d="M1191 600c77,0 152,-30 194,-97 31,-49 44,-105 44,-163 0,-77 -21,-154 -70,-215 -75,-92 -180,-125 -295,-125 -71,0 -167,20 -223,67 -48,-48 -110,-67 -176,-67 -65,0 -128,21 -175,67 -50,-48 -120,-67 -189,-67 -111,0 -220,49 -270,153 -22,45 -31,95 -31,144 0,123 52,242 170,294 13,6 30,9 46,9 19,0 37,-4 49,-13 7,-5 11,-11 11,-16 0,-9 -9,-18 -21,-23 -96,-40 -132,-156 -132,-252 0,-39 6,-79 21,-115 25,-63 87,-122 157,-122 89,0 128,77 128,156l0 355c0,24 44,30 61,30 17,0 61,-6 61,-30l0 -355c0,-68 35,-155 114,-155 80,0 115,87 115,155l0 355c0,24 44,30 61,30 17,0 62,-6 62,-30l0 -355c0,-95 67,-156 161,-156 52,0 106,20 146,53 -74,11 -145,43 -192,104 -35,45 -54,106 -54,163 0,47 12,93 39,132 44,64 117,89 188,89zm0 -59c-41,0 -71,-29 -88,-70 -10,-25 -16,-60 -16,-92 0,-50 15,-99 44,-140 28,-39 70,-68 128,-72 31,46 47,111 47,173 0,40 -9,101 -34,145 -18,32 -44,56 -81,56z"/>
 </g>
</svg>
