<?xml version="1.0" encoding="UTF-8"?>
<!DOCTYPE svg PUBLIC "-//W3C//DTD SVG 1.1//EN" "http://www.w3.org/Graphics/SVG/1.1/DTD/svg11.dtd">
<!-- Creator: CorelDRAW X8 -->
<svg xmlns="http://www.w3.org/2000/svg" xml:space="preserve" width="2570px" height="1486px" version="1.1" style="shape-rendering:geometricPrecision; text-rendering:geometricPrecision; image-rendering:optimizeQuality; fill-rule:evenodd; clip-rule:evenodd"
viewBox="0 0 2570 1486"
 xmlns:xlink="http://www.w3.org/1999/xlink">
 <defs>
  <style type="text/css">
   <![CDATA[
    .fil0 {fill:#434242;fill-rule:nonzero}
   ]]>
  </style>
 </defs>
 <g id="Layer_x0020_1">
  <metadata id="CorelCorpID_0Corel-Layer"/>
  <path class="fil0" d="M1337 1487c333,0 699,-86 945,-291 173,-143 288,-351 288,-623 1,-176 -56,-340 -183,-454 -87,-79 -204,-120 -327,-120 -129,0 -234,30 -322,125 -74,-83 -177,-124 -287,-124 -116,0 -215,43 -291,132 -70,-81 -182,-131 -315,-131 -183,0 -352,90 -431,258 -36,77 -51,164 -51,253 0,203 85,412 280,499 18,8 39,13 60,13 22,0 44,-5 61,-18 12,-9 17,-18 17,-27 0,-15 -13,-29 -32,-37 -160,-67 -223,-271 -223,-431 0,-70 9,-142 35,-206 46,-117 153,-213 284,-213 162,0 232,125 232,274l0 612c0,25 37,46 82,46 45,0 81,-21 81,-46l0 -612c0,-131 62,-274 211,-274 151,0 213,140 213,273l0 612c0,25 37,46 82,46 45,0 81,-21 81,-46l0 -611c0,-153 62,-276 233,-276 93,0 178,55 233,124 75,94 112,224 112,359 0,209 -64,403 -217,550 -203,197 -526,274 -851,274 -296,0 -656,-66 -891,-257 -187,-151 -283,-359 -283,-598 0,-184 68,-368 233,-466 15,-9 21,-20 21,-31 0,-13 -9,-26 -25,-34 -16,-9 -36,-12 -56,-12 -22,0 -43,4 -59,14 -192,114 -277,315 -277,529 0,284 132,527 364,690 266,188 652,255 973,255z"/>
 </g>
</svg>
