<?xml version="1.0" encoding="UTF-8"?>
<!DOCTYPE svg PUBLIC "-//W3C//DTD SVG 1.1//EN" "http://www.w3.org/Graphics/SVG/1.1/DTD/svg11.dtd">
<!-- Creator: CorelDRAW X8 -->
<svg xmlns="http://www.w3.org/2000/svg" xml:space="preserve" width="2556px" height="1486px" version="1.1" style="shape-rendering:geometricPrecision; text-rendering:geometricPrecision; image-rendering:optimizeQuality; fill-rule:evenodd; clip-rule:evenodd"
viewBox="0 0 2556 1486"
 xmlns:xlink="http://www.w3.org/1999/xlink">
 <defs>
  <style type="text/css">
   <![CDATA[
    .fil0 {fill:#434242;fill-rule:nonzero}
   ]]>
  </style>
 </defs>
 <g id="Layer_x0020_1">
  <metadata id="CorelCorpID_0Corel-Layer"/>
  <path class="fil0" d="M1303 1486c346,0 658,-61 888,-211 229,-149 365,-417 365,-689 0,-136 -34,-258 -119,-366 -110,-139 -285,-220 -461,-220 -77,0 -154,11 -227,38 -66,-24 -141,-38 -226,-38 -132,0 -279,26 -372,129 -70,-86 -184,-129 -321,-129 -182,0 -352,90 -430,259 -35,75 -51,165 -51,251 0,208 81,414 283,503 16,7 36,11 55,11 23,0 46,-6 63,-18 12,-9 17,-18 17,-27 0,-15 -14,-29 -33,-37 -159,-67 -223,-273 -223,-432 0,-70 11,-141 36,-205 47,-118 152,-214 283,-214 162,0 233,122 233,271l0 616c0,25 36,45 81,45 45,0 81,-20 81,-45l0 -587c0,-181 119,-300 298,-300 36,0 70,4 101,12 -159,112 -241,302 -241,493 0,92 20,181 58,251 65,118 175,175 308,175 132,0 245,-57 310,-175 39,-71 58,-159 58,-251 0,-191 -82,-381 -241,-493 34,-8 66,-12 100,-12 118,0 241,76 312,165 75,94 106,211 106,330 0,251 -114,491 -327,629 -195,128 -464,180 -764,180 -251,0 -527,-40 -743,-161 -258,-144 -398,-392 -398,-684 0,-179 60,-371 215,-474 14,-9 20,-19 20,-29 0,-14 -11,-26 -29,-35 -15,-7 -35,-11 -54,-11 -22,0 -44,5 -61,16 -180,119 -253,324 -253,533 0,325 159,588 444,748 252,141 570,188 859,188zm446 -554c-70,0 -121,-53 -153,-111 -33,-62 -51,-142 -51,-225 0,-163 67,-339 204,-435 137,96 206,272 206,435 0,83 -17,162 -51,224 -32,58 -84,112 -155,112z"/>
 </g>
</svg>
