<?xml version="1.0" encoding="UTF-8"?>
<!DOCTYPE svg PUBLIC "-//W3C//DTD SVG 1.1//EN" "http://www.w3.org/Graphics/SVG/1.1/DTD/svg11.dtd">
<!-- Creator: CorelDRAW X8 -->
<svg xmlns="http://www.w3.org/2000/svg" xml:space="preserve" width="1273px" height="825px" version="1.1" style="shape-rendering:geometricPrecision; text-rendering:geometricPrecision; image-rendering:optimizeQuality; fill-rule:evenodd; clip-rule:evenodd"
viewBox="0 0 1273 825"
 xmlns:xlink="http://www.w3.org/1999/xlink">
 <defs>
  <style type="text/css">
   <![CDATA[
    .fil0 {fill:#2B2A29;fill-rule:nonzero}
   ]]>
  </style>
 </defs>
 <g id="Layer_x0020_1">
  <metadata id="CorelCorpID_0Corel-Layer"/>
  <path class="fil0" d="M496 62c-59,-48 -119,-62 -195,-62 -112,0 -220,49 -270,153 -22,45 -31,99 -31,148 0,123 52,240 171,291 12,5 29,8 45,8 19,0 37,-4 49,-12 7,-6 11,-11 11,-17 0,-9 -9,-18 -22,-23 -91,-38 -132,-155 -132,-247 0,-42 6,-82 22,-121 25,-62 86,-121 157,-121 88,0 127,70 127,151l0 360c0,24 45,30 62,30 17,0 61,-6 61,-30l0 -355c0,-95 69,-156 162,-156 52,0 106,20 146,53 -75,11 -145,43 -192,104 -35,45 -55,104 -55,161 0,47 13,95 40,134 44,64 117,89 188,89 77,0 152,-30 194,-97 30,-48 43,-106 44,-162 0,-38 -4,-74 -14,-108 61,61 86,150 86,235 0,139 -71,298 -231,298 -44,0 -94,-14 -130,-41 -13,-10 -33,-14 -52,-14 -15,0 -28,2 -39,6 -12,5 -23,15 -23,25 0,5 3,10 10,15 64,49 153,68 234,68 216,0 354,-142 354,-357 0,-173 -95,-316 -274,-353 -74,-85 -175,-115 -286,-115 -69,0 -161,19 -217,62zm344 479c-38,0 -67,-25 -84,-61 -14,-28 -20,-63 -20,-100 0,-50 15,-101 44,-142 28,-39 70,-67 128,-71 31,46 46,111 47,173 0,40 -9,101 -34,145 -18,32 -44,56 -81,56z"/>
 </g>
</svg>
