<?xml version="1.0" encoding="UTF-8"?>
<!DOCTYPE svg PUBLIC "-//W3C//DTD SVG 1.1//EN" "http://www.w3.org/Graphics/SVG/1.1/DTD/svg11.dtd">
<!-- Creator: CorelDRAW X8 -->
<svg xmlns="http://www.w3.org/2000/svg" xml:space="preserve" width="1384px" height="1012px" version="1.1" style="shape-rendering:geometricPrecision; text-rendering:geometricPrecision; image-rendering:optimizeQuality; fill-rule:evenodd; clip-rule:evenodd"
viewBox="0 0 1384 1012"
 xmlns:xlink="http://www.w3.org/1999/xlink">
 <defs>
  <style type="text/css">
   <![CDATA[
    .fil0 {fill:#2B2A29;fill-rule:nonzero}
   ]]>
  </style>
 </defs>
 <g id="Layer_x0020_1">
  <metadata id="CorelCorpID_0Corel-Layer"/>
  <path class="fil0" d="M221 1012c22,0 44,-5 61,-17 12,-9 18,-19 18,-28 0,-14 -12,-28 -31,-36 -74,-34 -106,-118 -106,-195 0,-111 73,-207 189,-207 94,0 187,73 187,207 0,72 -26,148 -91,186 -12,7 -23,18 -23,32 0,25 36,46 81,46l797 0c45,0 81,-21 81,-46l0 -908c0,-26 -36,-46 -81,-46 -45,0 -82,20 -82,46l0 863 -571 0c34,-49 52,-109 52,-173 0,-195 -175,-298 -350,-298 -178,0 -352,102 -352,298 0,115 58,214 162,263 17,8 38,13 59,13z"/>
 </g>
</svg>
