<?xml version="1.0" encoding="UTF-8"?>
<!DOCTYPE svg PUBLIC "-//W3C//DTD SVG 1.1//EN" "http://www.w3.org/Graphics/SVG/1.1/DTD/svg11.dtd">
<!-- Creator: CorelDRAW X8 -->
<svg xmlns="http://www.w3.org/2000/svg" xml:space="preserve" width="856px" height="593px" version="1.1" style="shape-rendering:geometricPrecision; text-rendering:geometricPrecision; image-rendering:optimizeQuality; fill-rule:evenodd; clip-rule:evenodd"
viewBox="0 0 856 593"
 xmlns:xlink="http://www.w3.org/1999/xlink">
 <defs>
  <style type="text/css">
   <![CDATA[
    .fil0 {fill:#2B2A29;fill-rule:nonzero}
   ]]>
  </style>
 </defs>
 <g id="Layer_x0020_1">
  <metadata id="CorelCorpID_0Corel-Layer"/>
  <path class="fil0" d="M145 593c19,0 37,-4 49,-12 8,-5 11,-11 11,-17 0,-9 -8,-18 -20,-23 -43,-18 -62,-67 -62,-111 0,-77 51,-117 101,-117 50,0 99,40 99,117 0,42 -15,85 -53,107 -7,4 -15,11 -15,19 0,24 45,30 62,30l477 0c17,0 62,-6 62,-30l0 -527c0,-23 -45,-29 -62,-29 -16,0 -61,6 -61,29l0 498 -316 0c20,-29 29,-62 29,-97 0,-121 -115,-176 -223,-176 -107,0 -223,54 -223,176 0,68 37,125 99,154 13,6 29,9 46,9z"/>
 </g>
</svg>
