<?xml version="1.0" encoding="UTF-8"?>
<!DOCTYPE svg PUBLIC "-//W3C//DTD SVG 1.1//EN" "http://www.w3.org/Graphics/SVG/1.1/DTD/svg11.dtd">
<!-- Creator: CorelDRAW X8 -->
<svg xmlns="http://www.w3.org/2000/svg" xml:space="preserve" width="856px" height="593px" version="1.1" style="shape-rendering:geometricPrecision; text-rendering:geometricPrecision; image-rendering:optimizeQuality; fill-rule:evenodd; clip-rule:evenodd"
viewBox="0 0 856 593"
 xmlns:xlink="http://www.w3.org/1999/xlink">
 <defs>
  <style type="text/css">
   <![CDATA[
    .fil0 {fill:#CC6633;fill-rule:nonzero}
   ]]>
  </style>
 </defs>
 <g id="Layer_x0020_1">
  <metadata id="CorelCorpID_0Corel-Layer"/>
  <path class="fil0" d="M185 541c12,5 20,14 20,22 0,6 -3,12 -11,18 -13,9 -31,12 -50,12 -16,0 -33,-3 -45,-9 -62,-29 -99,-86 -99,-154 0,-122 116,-176 223,-176 108,0 223,55 223,176 0,35 -9,68 -29,97l316 0 0 -498c0,-23 45,-29 61,-29 17,0 62,6 62,29l0 527c0,24 -45,30 -62,30l-477 0c-17,0 -63,-6 -62,-30 0,-7 6,-14 15,-19 38,-22 53,-65 53,-107 0,-77 -49,-117 -99,-117 -50,0 -101,40 -101,117 0,44 19,93 62,111z"/>
 </g>
</svg>
