<?xml version="1.0" encoding="UTF-8"?>
<!DOCTYPE svg PUBLIC "-//W3C//DTD SVG 1.1//EN" "http://www.w3.org/Graphics/SVG/1.1/DTD/svg11.dtd">
<!-- Creator: CorelDRAW X8 -->
<svg xmlns="http://www.w3.org/2000/svg" xml:space="preserve" width="856px" height="780px" version="1.1" style="shape-rendering:geometricPrecision; text-rendering:geometricPrecision; image-rendering:optimizeQuality; fill-rule:evenodd; clip-rule:evenodd"
viewBox="0 0 856 781"
 xmlns:xlink="http://www.w3.org/1999/xlink">
 <defs>
  <style type="text/css">
   <![CDATA[
    .fil0 {fill:#898778;fill-rule:nonzero}
   ]]>
  </style>
 </defs>
 <g id="Layer_x0020_1">
  <metadata id="CorelCorpID_0Corel-Layer"/>
  <path class="fil0" d="M185 729c20,8 29,26 8,40 -24,16 -68,14 -94,3 -63,-29 -99,-86 -99,-155 0,-121 116,-176 223,-176 107,0 223,55 223,176 0,35 -9,69 -29,97l277 0 0 -612 162 -102 0 744c0,24 -44,30 -61,30l-478 0c-17,0 -62,-6 -62,-30 0,-8 5,-15 15,-20 38,-21 53,-65 53,-107 0,-77 -49,-117 -99,-117 -50,0 -101,40 -101,117 0,45 19,93 62,112z"/>
 </g>
</svg>
