<?xml version="1.0" encoding="UTF-8"?>
<!DOCTYPE svg PUBLIC "-//W3C//DTD SVG 1.1//EN" "http://www.w3.org/Graphics/SVG/1.1/DTD/svg11.dtd">
<!-- Creator: CorelDRAW X8 -->
<svg xmlns="http://www.w3.org/2000/svg" xml:space="preserve" width="1075px" height="868px" version="1.1" style="shape-rendering:geometricPrecision; text-rendering:geometricPrecision; image-rendering:optimizeQuality; fill-rule:evenodd; clip-rule:evenodd"
viewBox="0 0 1075 868"
 xmlns:xlink="http://www.w3.org/1999/xlink">
 <defs>
  <style type="text/css">
   <![CDATA[
    .fil0 {fill:#CC6633;fill-rule:nonzero}
   ]]>
  </style>
 </defs>
 <g id="Layer_x0020_1">
  <metadata id="CorelCorpID_0Corel-Layer"/>
  <path class="fil0" d="M404 541c12,5 20,13 20,22 1,6 -3,12 -11,18 -13,8 -31,12 -49,12 -17,0 -33,-3 -46,-9 -62,-29 -99,-86 -99,-154 1,-122 117,-176 223,-176 108,0 223,55 223,176 0,35 -9,68 -28,97l315 0 0 -498c0,-23 45,-29 62,-29 16,0 61,6 61,29l0 553c0,80 -36,142 -99,188 -103,75 -266,99 -390,98 -156,-1 -327,-38 -445,-147 -96,-89 -140,-206 -141,-336 -1,-148 61,-297 193,-374 23,-14 68,-14 91,-2 21,10 24,28 3,40 -116,68 -165,207 -165,336 1,96 26,188 85,264 90,118 238,159 381,160 100,0 231,-21 305,-94 37,-35 55,-78 58,-129l-415 0c-17,0 -62,-6 -62,-30 1,-7 6,-14 15,-20 38,-21 54,-64 54,-106 0,-77 -50,-117 -100,-117 -50,0 -101,40 -101,117 0,44 20,93 62,111z"/>
 </g>
</svg>
