<?xml version="1.0" encoding="UTF-8"?>
<!DOCTYPE svg PUBLIC "-//W3C//DTD SVG 1.1//EN" "http://www.w3.org/Graphics/SVG/1.1/DTD/svg11.dtd">
<!-- Creator: CorelDRAW X8 -->
<svg xmlns="http://www.w3.org/2000/svg" xml:space="preserve" width="1750px" height="1486px" version="1.1" style="shape-rendering:geometricPrecision; text-rendering:geometricPrecision; image-rendering:optimizeQuality; fill-rule:evenodd; clip-rule:evenodd"
viewBox="0 0 1750 1486"
 xmlns:xlink="http://www.w3.org/1999/xlink">
 <defs>
  <style type="text/css">
   <![CDATA[
    .fil0 {fill:#CC6633;fill-rule:nonzero}
   ]]>
  </style>
 </defs>
 <g id="Layer_x0020_1">
  <metadata id="CorelCorpID_0Corel-Layer"/>
  <path class="fil0" d="M0 659c-3,-257 102,-512 319,-644 17,-10 40,-15 62,-14 19,0 38,4 53,12 17,8 25,20 26,32 1,11 -7,23 -22,32 -190,115 -277,348 -276,582 1,178 51,355 169,492 138,159 356,242 627,243 178,1 403,-37 530,-165 56,-57 93,-132 98,-229l-714 0c-45,0 -81,-21 -81,-46 0,-14 11,-26 23,-32 65,-38 90,-114 90,-186 0,-134 -93,-208 -186,-208 -94,0 -189,73 -189,208 0,77 32,161 106,194 18,9 29,20 30,32 2,12 -4,23 -17,32 -17,12 -38,17 -60,17 -21,1 -43,-4 -60,-12 -104,-49 -162,-148 -162,-263 0,-196 176,-299 352,-299 175,1 349,103 349,299 0,64 -17,124 -52,172l572 0 0 -863c0,-25 36,-45 81,-45 45,0 81,20 81,45l0 954c0,144 -65,248 -164,322 -169,127 -433,166 -629,165 -290,-1 -547,-83 -721,-249 -142,-136 -233,-327 -235,-578z"/>
 </g>
</svg>
