<?xml version="1.0" encoding="UTF-8"?>
<!DOCTYPE svg PUBLIC "-//W3C//DTD SVG 1.1//EN" "http://www.w3.org/Graphics/SVG/1.1/DTD/svg11.dtd">
<!-- Creator: CorelDRAW X8 -->
<svg xmlns="http://www.w3.org/2000/svg" xml:space="preserve" width="1384px" height="1012px" version="1.1" style="shape-rendering:geometricPrecision; text-rendering:geometricPrecision; image-rendering:optimizeQuality; fill-rule:evenodd; clip-rule:evenodd"
viewBox="0 0 1384 1012"
 xmlns:xlink="http://www.w3.org/1999/xlink">
 <defs>
  <style type="text/css">
   <![CDATA[
    .fil0 {fill:#434242;fill-rule:nonzero}
   ]]>
  </style>
 </defs>
 <g id="Layer_x0020_1">
  <metadata id="CorelCorpID_0Corel-Layer"/>
  <path class="fil0" d="M221 1012c22,0 44,-5 61,-17 12,-9 18,-19 18,-28 0,-14 -12,-28 -31,-36 -74,-34 -106,-118 -106,-195 0,-111 73,-207 189,-207 94,0 187,73 187,207 0,72 -26,148 -91,186 -12,7 -23,18 -23,32 0,25 36,46 81,46l797 0c45,0 81,-21 81,-46l0 -908c0,-26 -36,-46 -81,-46 -45,0 -82,20 -82,46l0 359 -260 0c20,-29 29,-62 29,-97 0,-121 -115,-176 -223,-176 -107,0 -223,55 -223,176 0,68 37,126 99,154 13,6 29,9 46,9 19,0 37,-4 49,-12 8,-5 11,-11 11,-17 0,-9 -8,-18 -20,-23 -43,-18 -62,-67 -62,-111 0,-77 51,-117 101,-117 50,0 99,40 99,117 0,42 -15,86 -53,107 -10,5 -15,12 -15,20 0,23 45,29 62,29l360 0 0 445 -571 0c34,-49 52,-109 52,-173 0,-195 -175,-298 -350,-298 -179,0 -352,102 -352,298 0,115 58,214 162,263 17,8 38,13 59,13z"/>
 </g>
</svg>
