<?xml version="1.0" encoding="UTF-8"?>
<!DOCTYPE svg PUBLIC "-//W3C//DTD SVG 1.1//EN" "http://www.w3.org/Graphics/SVG/1.1/DTD/svg11.dtd">
<!-- Creator: CorelDRAW X8 -->
<svg xmlns="http://www.w3.org/2000/svg" xml:space="preserve" width="1750px" height="1486px" version="1.1" style="shape-rendering:geometricPrecision; text-rendering:geometricPrecision; image-rendering:optimizeQuality; fill-rule:evenodd; clip-rule:evenodd"
viewBox="0 0 1749 1485"
 xmlns:xlink="http://www.w3.org/1999/xlink">
 <defs>
  <style type="text/css">
   <![CDATA[
    .fil0 {fill:#898778;fill-rule:nonzero}
   ]]>
  </style>
 </defs>
 <g id="Layer_x0020_1">
  <metadata id="CorelCorpID_0Corel-Layer"/>
  <path class="fil0" d="M0 659c-2,-257 102,-512 320,-644 31,-19 82,-19 114,-2 31,16 36,45 5,64 -190,115 -278,347 -277,582 1,178 51,355 169,491 138,160 356,242 627,244 178,0 403,-38 530,-165 56,-58 93,-133 97,-230l-713 0c-45,0 -81,-20 -81,-46 0,-14 11,-25 23,-32 64,-38 90,-114 90,-185 0,-135 -93,-208 -186,-208 -94,0 -189,73 -189,208 0,76 32,161 106,194 31,14 44,42 13,64 -33,23 -85,21 -120,4 -104,-49 -162,-148 -162,-262 0,-197 176,-299 352,-299 175,1 349,103 349,299 0,64 -17,123 -52,172l571 0 0 -863c0,-25 37,-45 82,-45 45,0 81,20 81,45l0 954c0,143 -66,247 -164,321 -169,127 -433,166 -629,165 -290,-1 -547,-82 -721,-249 -142,-135 -233,-327 -235,-577z"/>
 </g>
</svg>
