<?xml version="1.0" encoding="UTF-8"?>
<!DOCTYPE svg PUBLIC "-//W3C//DTD SVG 1.1//EN" "http://www.w3.org/Graphics/SVG/1.1/DTD/svg11.dtd">
<!-- Creator: CorelDRAW X8 -->
<svg xmlns="http://www.w3.org/2000/svg" xml:space="preserve" width="1075px" height="868px" version="1.1" style="shape-rendering:geometricPrecision; text-rendering:geometricPrecision; image-rendering:optimizeQuality; fill-rule:evenodd; clip-rule:evenodd"
viewBox="0 0 1075 868"
 xmlns:xlink="http://www.w3.org/1999/xlink">
 <defs>
  <style type="text/css">
   <![CDATA[
    .fil0 {fill:#434242;fill-rule:nonzero}
   ]]>
  </style>
 </defs>
 <g id="Layer_x0020_1">
  <metadata id="CorelCorpID_0Corel-Layer"/>
  <path class="fil0" d="M588 868c123,0 287,-24 388,-98 63,-46 99,-108 99,-188l0 -553c0,-23 -45,-29 -61,-29 -17,0 -62,6 -62,29l0 498 -315 0c19,-29 28,-62 28,-97 0,-121 -115,-176 -223,-176 -106,0 -222,54 -223,176 0,68 37,125 99,154 13,6 29,9 46,9 19,0 37,-4 49,-12 8,-5 11,-11 11,-17 0,-9 -8,-18 -20,-23 -42,-18 -62,-67 -62,-111 0,-77 51,-117 101,-117 50,0 100,40 100,117 0,42 -16,84 -54,106 -9,5 -15,13 -15,20 -1,24 45,30 62,30l415 0c-3,51 -22,93 -58,129 -75,73 -205,94 -305,94 -143,-1 -291,-42 -381,-160 -59,-76 -85,-172 -85,-268 -1,-129 49,-264 165,-332 10,-6 14,-12 14,-19 0,-8 -6,-16 -17,-21 -11,-6 -27,-9 -44,-9 -17,0 -35,4 -47,11 -131,76 -193,224 -193,370 0,131 44,250 141,340 120,111 289,147 447,147z"/>
 </g>
</svg>
