<?xml version="1.0" encoding="UTF-8"?>
<!DOCTYPE svg PUBLIC "-//W3C//DTD SVG 1.1//EN" "http://www.w3.org/Graphics/SVG/1.1/DTD/svg11.dtd">
<!-- Creator: CorelDRAW X8 -->
<svg xmlns="http://www.w3.org/2000/svg" xml:space="preserve" width="1750px" height="1486px" version="1.1" style="shape-rendering:geometricPrecision; text-rendering:geometricPrecision; image-rendering:optimizeQuality; fill-rule:evenodd; clip-rule:evenodd"
viewBox="0 0 1750 1487"
 xmlns:xlink="http://www.w3.org/1999/xlink">
 <defs>
  <style type="text/css">
   <![CDATA[
    .fil0 {fill:#2B2A29;fill-rule:nonzero}
   ]]>
  </style>
 </defs>
 <g id="Layer_x0020_1">
  <metadata id="CorelCorpID_0Corel-Layer"/>
  <path class="fil0" d="M966 1487c196,0 453,-40 620,-165 99,-74 164,-178 164,-323l0 -954c0,-25 -36,-45 -81,-45 -45,0 -81,20 -81,45l0 863 -572 0c34,-48 52,-108 52,-172 0,-196 -174,-298 -350,-299 -176,0 -352,103 -352,299 0,115 58,214 162,263 17,9 37,13 58,13 22,0 45,-6 62,-18 12,-8 18,-18 18,-28 0,-14 -12,-28 -31,-36 -74,-33 -106,-117 -106,-194 0,-135 95,-208 189,-208 93,0 186,74 186,208 0,72 -24,148 -90,186 -12,6 -23,18 -23,32 0,25 36,46 81,46l715 0c-5,98 -42,173 -98,230 -125,126 -346,165 -523,165 -234,0 -476,-61 -635,-243 -118,-138 -169,-325 -169,-504 0,-233 87,-457 276,-571 15,-9 22,-20 22,-31 0,-12 -9,-24 -26,-33 -16,-8 -36,-13 -56,-13 -22,0 -43,5 -59,15 -214,130 -319,380 -319,633 0,226 70,431 235,590 193,184 471,249 731,249z"/>
 </g>
</svg>
