<?xml version="1.0" encoding="UTF-8"?>
<!DOCTYPE svg PUBLIC "-//W3C//DTD SVG 1.1//EN" "http://www.w3.org/Graphics/SVG/1.1/DTD/svg11.dtd">
<!-- Creator: CorelDRAW X8 -->
<svg xmlns="http://www.w3.org/2000/svg" xml:space="preserve" width="1072px" height="593px" version="1.1" style="shape-rendering:geometricPrecision; text-rendering:geometricPrecision; image-rendering:optimizeQuality; fill-rule:evenodd; clip-rule:evenodd"
viewBox="0 0 1072 593"
 xmlns:xlink="http://www.w3.org/1999/xlink">
 <defs>
  <style type="text/css">
   <![CDATA[
    .fil0 {fill:#2B2A29;fill-rule:nonzero}
   ]]>
  </style>
 </defs>
 <g id="Layer_x0020_1">
  <metadata id="CorelCorpID_0Corel-Layer"/>
  <path class="fil0" d="M145 593c18,0 36,-4 48,-12 8,-6 12,-11 12,-17 0,-9 -8,-18 -20,-23 -43,-18 -62,-67 -62,-111 0,-77 50,-117 101,-117 50,0 99,40 99,117 0,42 -15,85 -53,107 -10,5 -15,12 -15,19 0,24 44,30 61,30l695 0c17,0 61,-6 61,-30l0 -322c0,-154 -138,-234 -277,-234 -141,0 -266,79 -266,231l0 296 -112 0c20,-29 29,-62 29,-97 0,-121 -116,-176 -223,-176 -107,0 -223,54 -223,176 0,68 36,125 99,154 13,6 29,9 46,9zm805 -66l-298 0 0 -296c0,-88 48,-172 143,-172 96,0 155,84 155,175l0 293z"/>
 </g>
</svg>
