<?xml version="1.0" encoding="UTF-8"?>
<!DOCTYPE svg PUBLIC "-//W3C//DTD SVG 1.1//EN" "http://www.w3.org/Graphics/SVG/1.1/DTD/svg11.dtd">
<!-- Creator: CorelDRAW X8 -->
<svg xmlns="http://www.w3.org/2000/svg" xml:space="preserve" width="2122px" height="1486px" version="1.1" style="shape-rendering:geometricPrecision; text-rendering:geometricPrecision; image-rendering:optimizeQuality; fill-rule:evenodd; clip-rule:evenodd"
viewBox="0 0 2122 1486"
 xmlns:xlink="http://www.w3.org/1999/xlink">
 <defs>
  <style type="text/css">
   <![CDATA[
    .fil0 {fill:#2B2A29;fill-rule:nonzero}
   ]]>
  </style>
 </defs>
 <g id="Layer_x0020_1">
  <metadata id="CorelCorpID_0Corel-Layer"/>
  <path class="fil0" d="M1177 1486c180,0 504,-31 711,-144 136,-74 234,-185 234,-343l0 -600c0,-256 -224,-399 -445,-399 -215,0 -431,129 -431,392l0 517 -233 0c35,-49 52,-109 52,-173 0,-196 -174,-298 -349,-299 -176,0 -353,102 -353,299 0,115 59,215 164,264 17,8 37,12 57,12 22,0 44,-5 61,-17 13,-9 19,-19 19,-29 0,-14 -13,-27 -31,-35 -74,-34 -107,-118 -107,-195 0,-135 95,-208 190,-208 93,0 186,74 186,208 0,72 -26,148 -91,186 -11,7 -23,18 -23,32 0,25 37,46 82,46l1088 0c0,113 -58,191 -148,253 -165,114 -461,142 -633,143 -334,0 -729,-87 -913,-393 -68,-113 -102,-263 -102,-395 0,-210 67,-420 238,-533 13,-9 19,-19 19,-29 0,-14 -11,-27 -29,-35 -15,-7 -34,-11 -53,-11 -22,0 -45,5 -61,16 -195,129 -276,360 -276,592 0,168 47,338 144,475 224,314 669,403 1033,403zm782 -577l-551 0 0 -517c0,-205 133,-301 267,-301 141,0 285,108 285,308l-1 510z"/>
 </g>
</svg>
