<?xml version="1.0" encoding="UTF-8"?>
<!DOCTYPE svg PUBLIC "-//W3C//DTD SVG 1.1//EN" "http://www.w3.org/Graphics/SVG/1.1/DTD/svg11.dtd">
<!-- Creator: CorelDRAW X8 -->
<svg xmlns="http://www.w3.org/2000/svg" xml:space="preserve" width="2122px" height="1486px" version="1.1" style="shape-rendering:geometricPrecision; text-rendering:geometricPrecision; image-rendering:optimizeQuality; fill-rule:evenodd; clip-rule:evenodd"
viewBox="0 0 2122 1486"
 xmlns:xlink="http://www.w3.org/1999/xlink">
 <defs>
  <style type="text/css">
   <![CDATA[
    .fil0 {fill:#898778;fill-rule:nonzero}
   ]]>
  </style>
 </defs>
 <g id="Layer_x0020_1">
  <metadata id="CorelCorpID_0Corel-Layer"/>
  <path class="fil0" d="M1246 392c0,-263 216,-392 430,-392 222,0 446,143 446,399l0 600c0,157 -98,269 -234,343 -207,113 -534,144 -714,144 -364,-1 -806,-89 -1030,-403 -93,-131 -143,-298 -144,-467 -2,-234 79,-470 276,-600 30,-20 82,-21 115,-5 30,14 41,43 9,64 -172,114 -239,329 -237,541 1,140 36,279 101,387 184,306 579,393 913,392 172,0 468,-29 632,-142 86,-59 152,-142 149,-254l-1088 0c-45,0 -82,-20 -82,-45 0,-14 12,-26 23,-32 65,-38 91,-115 91,-186 0,-135 -93,-208 -186,-208 -94,0 -190,73 -190,208 0,77 33,161 107,194 31,14 44,43 12,64 -32,23 -83,22 -118,5 -105,-49 -164,-148 -164,-263 0,-197 177,-299 353,-299 175,0 349,103 349,299 0,64 -17,123 -52,172l233 0 0 -516zm162 0l0 516 551 0 0 -509c1,-200 -143,-308 -284,-308 -134,0 -267,96 -267,301z"/>
 </g>
</svg>
