<?xml version="1.0" encoding="UTF-8"?>
<!DOCTYPE svg PUBLIC "-//W3C//DTD SVG 1.1//EN" "http://www.w3.org/Graphics/SVG/1.1/DTD/svg11.dtd">
<!-- Creator: CorelDRAW X8 -->
<svg xmlns="http://www.w3.org/2000/svg" xml:space="preserve" width="2122px" height="1486px" version="1.1" style="shape-rendering:geometricPrecision; text-rendering:geometricPrecision; image-rendering:optimizeQuality; fill-rule:evenodd; clip-rule:evenodd"
viewBox="0 0 2122 1486"
 xmlns:xlink="http://www.w3.org/1999/xlink">
 <defs>
  <style type="text/css">
   <![CDATA[
    .fil0 {fill:#CC6633;fill-rule:nonzero}
   ]]>
  </style>
 </defs>
 <g id="Layer_x0020_1">
  <metadata id="CorelCorpID_0Corel-Layer"/>
  <path class="fil0" d="M1246 392c0,-263 216,-392 431,-392 221,0 445,143 445,399l0 600c0,158 -98,269 -234,343 -207,113 -534,144 -714,144 -364,0 -806,-89 -1030,-403 -93,-131 -143,-298 -144,-467 -2,-234 79,-469 276,-600 16,-10 39,-16 61,-16 19,0 38,4 53,11 18,8 27,19 29,31 2,12 -5,23 -19,33 -172,114 -239,329 -238,541 2,140 37,279 102,387 184,306 579,393 913,393 172,-1 468,-29 633,-143 85,-59 151,-142 148,-253l-1088 0c-45,0 -82,-21 -82,-46 0,-14 12,-25 23,-32 65,-38 91,-114 91,-186 0,-134 -93,-208 -186,-208 -95,0 -190,73 -190,208 0,77 33,161 107,195 18,8 29,20 30,32 1,11 -4,22 -18,32 -16,11 -38,17 -61,17 -20,0 -41,-4 -57,-12 -105,-49 -164,-149 -164,-264 0,-197 177,-299 353,-299 175,1 349,103 349,299 0,64 -17,124 -52,173l233 0 0 -517zm162 0l0 517 551 0 1 -510c0,-200 -144,-308 -285,-308 -134,0 -267,96 -267,301z"/>
 </g>
</svg>
