<?xml version="1.0" encoding="UTF-8"?>
<!DOCTYPE svg PUBLIC "-//W3C//DTD SVG 1.1//EN" "http://www.w3.org/Graphics/SVG/1.1/DTD/svg11.dtd">
<!-- Creator: CorelDRAW X8 -->
<svg xmlns="http://www.w3.org/2000/svg" xml:space="preserve" width="2126px" height="1024px" version="1.1" style="shape-rendering:geometricPrecision; text-rendering:geometricPrecision; image-rendering:optimizeQuality; fill-rule:evenodd; clip-rule:evenodd"
viewBox="0 0 2126 1024"
 xmlns:xlink="http://www.w3.org/1999/xlink">
 <defs>
  <style type="text/css">
   <![CDATA[
    .fil0 {fill:#2B2A29;fill-rule:nonzero}
   ]]>
  </style>
 </defs>
 <g id="Layer_x0020_1">
  <metadata id="CorelCorpID_0Corel-Layer"/>
  <path class="fil0" d="M924 1024c46,0 82,-20 82,-45l0 -616c0,-138 62,-272 224,-272 203,0 303,231 303,403 0,160 -63,358 -222,425 -14,7 -33,19 -33,36 0,36 57,47 85,47l682 0c45,0 81,-22 81,-47l0 -909c0,-25 -36,-45 -81,-45 -45,0 -82,20 -82,45l0 864 -429 0c114,-107 162,-262 162,-416 0,-277 -178,-494 -466,-494 -118,0 -242,37 -314,135 -96,-105 -250,-134 -390,-134 -198,0 -375,84 -466,266 -39,78 -60,171 -60,273 0,156 48,317 159,409 64,53 135,75 216,75 82,0 166,-24 229,-78 74,-61 105,-155 105,-249 0,-82 -28,-155 -78,-208 -58,-62 -146,-98 -240,-98 -94,0 -176,41 -230,119 1,-73 18,-146 50,-210 62,-125 173,-209 315,-209 181,0 316,103 316,296l0 591c0,34 56,46 82,46zm-544 -91c-121,-1 -174,-116 -174,-223 0,-148 87,-222 174,-222 87,0 174,73 174,219 0,106 -53,226 -174,226z"/>
 </g>
</svg>
