<?xml version="1.0" encoding="UTF-8"?>
<!DOCTYPE svg PUBLIC "-//W3C//DTD SVG 1.1//EN" "http://www.w3.org/Graphics/SVG/1.1/DTD/svg11.dtd">
<!-- Creator: CorelDRAW X8 -->
<svg xmlns="http://www.w3.org/2000/svg" xml:space="preserve" width="2125px" height="1024px" version="1.1" style="shape-rendering:geometricPrecision; text-rendering:geometricPrecision; image-rendering:optimizeQuality; fill-rule:evenodd; clip-rule:evenodd"
viewBox="0 0 2125 1024"
 xmlns:xlink="http://www.w3.org/1999/xlink">
 <defs>
  <style type="text/css">
   <![CDATA[
    .fil0 {fill:#009846;fill-rule:nonzero}
   ]]>
  </style>
 </defs>
 <g id="Layer_x0020_1">
  <metadata id="CorelCorpID_0Corel-Layer"/>
  <path class="fil0" d="M0 540c0,-102 21,-195 60,-273 82,-164 249,-265 463,-266 142,-1 295,27 393,134 72,-99 198,-136 319,-135 287,1 464,225 460,503 -2,154 -52,303 -162,407l429 0 0 -864c0,-25 37,-45 82,-45 45,0 81,20 81,45l0 909c0,25 -36,46 -81,46l-682 0c-26,0 -87,-11 -84,-48 1,-13 12,-25 32,-34 156,-66 220,-258 222,-416 3,-173 -91,-409 -292,-412 -165,-3 -235,132 -235,272l0 616c0,25 -36,45 -81,45 -26,0 -82,-12 -82,-46l0 -591c0,-194 -136,-297 -319,-296 -144,0 -253,90 -312,209 -32,64 -49,137 -50,210 52,-75 130,-116 219,-119 98,-3 191,34 251,98 53,56 81,133 78,221 -2,89 -36,179 -105,236 -58,49 -139,77 -224,78 -83,1 -156,-22 -221,-75 -111,-92 -159,-253 -159,-409zm206 170c-1,147 85,222 174,223 85,0 174,-74 174,-223 1,-148 -86,-222 -174,-222 -87,0 -174,74 -174,222z"/>
 </g>
</svg>
