<?xml version="1.0" encoding="UTF-8"?>
<!DOCTYPE svg PUBLIC "-//W3C//DTD SVG 1.1//EN" "http://www.w3.org/Graphics/SVG/1.1/DTD/svg11.dtd">
<!-- Creator: CorelDRAW X8 -->
<svg xmlns="http://www.w3.org/2000/svg" xml:space="preserve" width="1300px" height="600px" version="1.1" style="shape-rendering:geometricPrecision; text-rendering:geometricPrecision; image-rendering:optimizeQuality; fill-rule:evenodd; clip-rule:evenodd"
viewBox="0 0 1300 600"
 xmlns:xlink="http://www.w3.org/1999/xlink">
 <defs>
  <style type="text/css">
   <![CDATA[
    .fil0 {fill:#2B2A29;fill-rule:nonzero}
   ]]>
  </style>
 </defs>
 <g id="Layer_x0020_1">
  <metadata id="CorelCorpID_0Corel-Layer"/>
  <path class="fil0" d="M567 600c16,0 61,-6 61,-29l0 -357c0,-77 41,-155 126,-155 113,0 165,134 165,229 0,93 -39,208 -131,246 -9,4 -22,13 -22,24 0,23 47,29 64,29l409 0c17,0 61,-6 61,-30l0 -527c0,-24 -44,-30 -61,-30 -17,0 -62,6 -62,30l0 497 -229 0c66,-62 94,-150 94,-239 0,-170 -116,-287 -288,-288 -69,0 -145,16 -193,68 -63,-55 -155,-68 -235,-68 -119,1 -233,47 -290,157 -25,49 -36,104 -36,159 0,86 26,183 96,238 41,33 88,46 139,46 53,0 109,-14 152,-47 42,-34 64,-90 64,-143 0,-47 -15,-90 -48,-124 -40,-42 -98,-59 -155,-59l-9 0c-43,1 -83,14 -115,42 3,-32 13,-63 27,-91 34,-67 98,-119 175,-119 104,0 179,62 179,169l0 342c0,24 45,30 62,30zm-328 -59c-45,-2 -91,-47 -91,-126 0,-81 51,-126 93,-126 48,0 92,56 92,125 0,37 -11,73 -33,97 -19,20 -40,30 -61,30z"/>
 </g>
</svg>
