<?xml version="1.0" encoding="UTF-8"?>
<!DOCTYPE svg PUBLIC "-//W3C//DTD SVG 1.1//EN" "http://www.w3.org/Graphics/SVG/1.1/DTD/svg11.dtd">
<!-- Creator: CorelDRAW X8 -->
<svg xmlns="http://www.w3.org/2000/svg" xml:space="preserve" width="2479px" height="1486px" version="1.1" style="shape-rendering:geometricPrecision; text-rendering:geometricPrecision; image-rendering:optimizeQuality; fill-rule:evenodd; clip-rule:evenodd"
viewBox="0 0 2479 1487"
 xmlns:xlink="http://www.w3.org/1999/xlink">
 <defs>
  <style type="text/css">
   <![CDATA[
    .fil0 {fill:#2B2A29;fill-rule:nonzero}
   ]]>
  </style>
 </defs>
 <g id="Layer_x0020_1">
  <metadata id="CorelCorpID_0Corel-Layer"/>
  <path class="fil0" d="M1301 1487c197,0 607,-7 887,-127 169,-72 291,-185 291,-362l0 -952c0,-25 -37,-46 -82,-46 -45,0 -81,21 -81,46l0 863 -429 0c113,-108 162,-261 162,-415 0,-265 -176,-494 -459,-494 -140,0 -250,40 -320,136 -97,-106 -253,-136 -395,-136 -197,0 -371,84 -462,266 -39,79 -60,171 -61,273 0,156 49,318 160,409 63,52 135,75 216,75 81,0 166,-25 229,-77 75,-61 105,-155 105,-249 0,-83 -28,-155 -78,-209 -58,-62 -146,-98 -240,-98 -93,0 -176,42 -230,119 1,-72 18,-145 49,-209 59,-120 168,-209 312,-210 180,0 320,104 320,296l0 591c0,35 57,46 81,46 46,0 83,-20 83,-45l0 -616c0,-138 69,-272 231,-272 200,0 296,233 296,404 0,160 -64,357 -223,424 -14,6 -32,19 -32,36 0,37 57,46 85,46l599 0c-3,119 -76,202 -185,260 -238,130 -645,136 -829,136 -293,0 -594,-46 -813,-189 -195,-126 -325,-329 -325,-646 0,-187 78,-381 239,-486 13,-9 19,-19 19,-29 0,-13 -11,-26 -29,-35 -15,-7 -34,-11 -53,-11 -22,0 -45,5 -61,16 -183,121 -278,329 -278,545 2,376 177,608 429,747 248,134 569,179 872,179zm-568 -555c-90,0 -175,-75 -175,-222 1,-149 88,-223 175,-223 87,0 174,74 174,223 0,149 -90,222 -174,222z"/>
 </g>
</svg>
