<?xml version="1.0" encoding="UTF-8"?>
<!DOCTYPE svg PUBLIC "-//W3C//DTD SVG 1.1//EN" "http://www.w3.org/Graphics/SVG/1.1/DTD/svg11.dtd">
<!-- Creator: CorelDRAW X8 -->
<svg xmlns="http://www.w3.org/2000/svg" xml:space="preserve" width="2478px" height="1486px" version="1.1" style="shape-rendering:geometricPrecision; text-rendering:geometricPrecision; image-rendering:optimizeQuality; fill-rule:evenodd; clip-rule:evenodd"
viewBox="0 0 2478 1486"
 xmlns:xlink="http://www.w3.org/1999/xlink">
 <defs>
  <style type="text/css">
   <![CDATA[
    .fil0 {fill:#CC6633;fill-rule:nonzero}
   ]]>
  </style>
 </defs>
 <g id="Layer_x0020_1">
  <metadata id="CorelCorpID_0Corel-Layer"/>
  <path class="fil0" d="M352 539c1,-102 22,-194 61,-273 82,-164 249,-265 462,-266 143,-1 296,28 394,136 70,-96 184,-136 324,-136 286,0 459,233 455,502 -2,154 -53,303 -162,407l429 0 0 -863c0,-25 36,-46 81,-46 45,0 82,21 82,46l0 952c0,177 -122,289 -291,361 -280,120 -690,127 -887,127 -302,0 -623,-44 -871,-179 -252,-138 -427,-370 -429,-746 -1,-213 94,-423 278,-545 16,-11 39,-16 63,-16 18,0 36,4 51,11 19,9 28,21 29,33 0,11 -6,22 -19,31 -161,106 -240,301 -239,486 0,317 130,520 325,646 219,143 520,188 812,188 184,0 591,-6 829,-135 109,-58 182,-141 185,-260l-599 0c-27,0 -87,-10 -85,-47 1,-13 12,-26 32,-35 156,-66 221,-258 223,-416 3,-172 -92,-409 -292,-412 -165,-2 -235,133 -235,272l0 616c0,25 -37,45 -82,45 -25,0 -81,-11 -81,-46l0 -591c0,-192 -140,-296 -320,-296 -144,1 -253,90 -312,210 -31,64 -48,137 -49,209 52,-75 130,-115 219,-119 98,-3 191,34 251,98 53,57 81,133 78,222 -2,89 -36,179 -105,236 -59,48 -140,76 -224,77 -83,1 -157,-22 -221,-75 -111,-91 -160,-253 -160,-409zm206 171c0,147 85,222 175,222 84,0 174,-73 174,-222 0,-149 -87,-223 -174,-223 -87,0 -174,74 -175,223z"/>
 </g>
</svg>
