<?xml version="1.0" encoding="UTF-8"?>
<!DOCTYPE svg PUBLIC "-//W3C//DTD SVG 1.1//EN" "http://www.w3.org/Graphics/SVG/1.1/DTD/svg11.dtd">
<!-- Creator: CorelDRAW X8 -->
<svg xmlns="http://www.w3.org/2000/svg" xml:space="preserve" width="1059px" height="1024px" version="1.1" style="shape-rendering:geometricPrecision; text-rendering:geometricPrecision; image-rendering:optimizeQuality; fill-rule:evenodd; clip-rule:evenodd"
viewBox="0 0 1059 1024"
 xmlns:xlink="http://www.w3.org/1999/xlink">
 <defs>
  <style type="text/css">
   <![CDATA[
    .fil0 {fill:#009846;fill-rule:nonzero}
   ]]>
  </style>
 </defs>
 <g id="Layer_x0020_1">
  <metadata id="CorelCorpID_0Corel-Layer"/>
  <path class="fil0" d="M446 973c-31,-13 -45,-41 -14,-63 30,-22 82,-23 115,-8 52,23 122,29 187,29 118,0 167,-74 166,-134 0,-40 -23,-69 -62,-82 -50,-17 -124,13 -208,11 -45,0 -86,-10 -120,-29 -59,-32 -98,-91 -101,-173 -3,-81 31,-144 87,-178 37,-22 76,-29 117,-29 61,0 126,18 185,27 52,7 94,-3 102,-59 15,-114 -147,-201 -321,-194 -196,8 -413,135 -416,479 -2,141 43,282 131,389 24,30 -14,54 -40,60 -41,11 -87,5 -114,-30 -92,-116 -140,-269 -140,-419 1,-345 242,-570 582,-570 185,0 474,52 468,285 -5,145 -135,176 -254,159 -50,-7 -122,-29 -173,-16 -48,12 -70,54 -68,96 2,40 25,79 67,91 80,24 164,-14 248,-10 110,5 189,83 189,192 1,163 -166,213 -303,224 -108,8 -225,-10 -310,-48z"/>
 </g>
</svg>
