<?xml version="1.0" encoding="UTF-8"?>
<!DOCTYPE svg PUBLIC "-//W3C//DTD SVG 1.1//EN" "http://www.w3.org/Graphics/SVG/1.1/DTD/svg11.dtd">
<!-- Creator: CorelDRAW X8 -->
<svg xmlns="http://www.w3.org/2000/svg" xml:space="preserve" width="660px" height="600px" version="1.1" style="shape-rendering:geometricPrecision; text-rendering:geometricPrecision; image-rendering:optimizeQuality; fill-rule:evenodd; clip-rule:evenodd"
viewBox="0 0 660 600"
 xmlns:xlink="http://www.w3.org/1999/xlink">
 <defs>
  <style type="text/css">
   <![CDATA[
    .fil0 {fill:#2B2A29;fill-rule:nonzero}
   ]]>
  </style>
 </defs>
 <g id="Layer_x0020_1">
  <metadata id="CorelCorpID_0Corel-Layer"/>
  <path class="fil0" d="M142 600c11,0 21,-1 31,-4 13,-3 33,-12 33,-26 0,-3 -2,-7 -5,-11 -52,-62 -79,-145 -79,-225 0,-150 80,-275 240,-275 68,0 179,29 179,100 0,27 -9,41 -38,41 -13,0 -28,-4 -41,-6 -27,-5 -56,-11 -83,-11 -28,0 -55,5 -80,20 -39,21 -54,59 -54,102 0,42 24,85 62,104 29,14 57,19 84,19 34,0 65,-9 96,-9 28,0 53,9 53,46 0,47 -49,75 -92,75 -32,0 -49,-3 -79,-16 -11,-4 -26,-7 -41,-7 -18,0 -36,4 -48,12 -8,5 -11,12 -11,17 0,10 8,18 20,23 49,21 108,30 159,30 87,0 212,-23 212,-134 0,-84 -66,-115 -137,-115 -20,0 -38,4 -57,6 -16,3 -32,5 -46,5 -34,0 -62,-19 -62,-56 0,-31 17,-50 47,-53 16,0 35,4 53,7 23,4 49,8 75,7 65,-2 122,-33 122,-107 0,-140 -188,-159 -293,-159 -204,0 -362,122 -362,334 0,87 29,175 84,243 13,17 36,23 58,23z"/>
 </g>
</svg>
