<?xml version="1.0" encoding="UTF-8"?>
<!DOCTYPE svg PUBLIC "-//W3C//DTD SVG 1.1//EN" "http://www.w3.org/Graphics/SVG/1.1/DTD/svg11.dtd">
<!-- Creator: CorelDRAW X8 -->
<svg xmlns="http://www.w3.org/2000/svg" xml:space="preserve" width="660px" height="600px" version="1.1" style="shape-rendering:geometricPrecision; text-rendering:geometricPrecision; image-rendering:optimizeQuality; fill-rule:evenodd; clip-rule:evenodd"
viewBox="0 0 660 600"
 xmlns:xlink="http://www.w3.org/1999/xlink">
 <defs>
  <style type="text/css">
   <![CDATA[
    .fil0 {fill:#009846;fill-rule:nonzero}
   ]]>
  </style>
 </defs>
 <g id="Layer_x0020_1">
  <metadata id="CorelCorpID_0Corel-Layer"/>
  <path class="fil0" d="M289 569c-20,-8 -29,-26 -9,-40 22,-15 64,-15 89,-5 30,13 51,16 83,16 43,0 88,-27 88,-74 0,-50 -46,-50 -82,-44 -21,3 -43,6 -67,6 -27,0 -55,-5 -84,-19 -39,-20 -60,-60 -62,-102 -1,-43 15,-82 54,-104 25,-15 52,-20 80,-20 27,0 56,6 83,11 31,5 71,18 78,-26 11,-81 -119,-111 -178,-109 -157,6 -238,127 -240,275 -1,81 26,162 79,225 16,19 -11,33 -28,37 -29,8 -69,6 -89,-19 -55,-68 -84,-156 -84,-243 0,-212 158,-334 362,-334 106,0 297,26 293,169 -3,73 -61,95 -122,97 -26,0 -52,-3 -75,-7 -23,-4 -48,-9 -64,-6 -24,6 -37,30 -36,54 1,23 15,44 37,51 21,6 46,2 71,-2 23,-3 45,-7 71,-5 67,3 123,43 123,114 1,100 -111,127 -191,133 -64,5 -120,-4 -180,-29z"/>
 </g>
</svg>
