<?xml version="1.0" encoding="UTF-8"?>
<!DOCTYPE svg PUBLIC "-//W3C//DTD SVG 1.1//EN" "http://www.w3.org/Graphics/SVG/1.1/DTD/svg11.dtd">
<!-- Creator: CorelDRAW X8 -->
<svg xmlns="http://www.w3.org/2000/svg" xml:space="preserve" width="1429px" height="1486px" version="1.1" style="shape-rendering:geometricPrecision; text-rendering:geometricPrecision; image-rendering:optimizeQuality; fill-rule:evenodd; clip-rule:evenodd"
viewBox="0 0 1429 1486"
 xmlns:xlink="http://www.w3.org/1999/xlink">
 <defs>
  <style type="text/css">
   <![CDATA[
    .fil0 {fill:#CC6633;fill-rule:nonzero}
   ]]>
  </style>
 </defs>
 <g id="Layer_x0020_1">
  <metadata id="CorelCorpID_0Corel-Layer"/>
  <path class="fil0" d="M916 524c1,39 25,79 67,91 80,24 168,-14 249,-10 109,5 194,83 195,192 0,79 -41,127 -99,156 60,34 101,90 101,168 0,127 -82,227 -190,285 -113,60 -255,74 -362,79 -270,12 -536,-88 -701,-306 -119,-156 -175,-352 -176,-547 -1,-246 92,-488 305,-617 16,-10 39,-15 61,-15 19,1 38,5 53,13 17,8 26,20 26,32 1,11 -7,23 -21,32 -187,112 -259,332 -260,555 -1,170 42,332 125,463 120,188 321,312 579,306 87,-2 205,-23 293,-79 71,-46 122,-116 119,-202 -1,-66 -51,-121 -144,-121l-254 0c-45,0 -81,-21 -81,-46 0,-25 36,-46 81,-46l201 0c83,0 186,-12 185,-110 0,-40 -29,-69 -68,-82 -63,-21 -129,14 -211,12 -36,0 -75,-8 -119,-30 -64,-33 -98,-103 -100,-173 -2,-71 23,-139 87,-178 37,-22 76,-29 116,-29 62,0 126,18 186,26 52,8 94,-3 101,-58 16,-114 -146,-201 -320,-194 -196,7 -413,135 -417,479 -1,141 44,282 132,389 5,6 7,12 7,18 0,18 -17,35 -47,42 -11,3 -23,5 -34,5 -31,0 -61,-10 -80,-35 -92,-117 -140,-269 -140,-419 0,-345 242,-570 582,-570 185,0 474,52 467,285 -4,145 -134,176 -253,159 -50,-7 -122,-29 -173,-16 -45,11 -70,51 -68,96z"/>
 </g>
</svg>
