<?xml version="1.0" encoding="UTF-8"?>
<!DOCTYPE svg PUBLIC "-//W3C//DTD SVG 1.1//EN" "http://www.w3.org/Graphics/SVG/1.1/DTD/svg11.dtd">
<!-- Creator: CorelDRAW X8 -->
<svg xmlns="http://www.w3.org/2000/svg" xml:space="preserve" width="1115px" height="1486px" version="1.1" style="shape-rendering:geometricPrecision; text-rendering:geometricPrecision; image-rendering:optimizeQuality; fill-rule:evenodd; clip-rule:evenodd"
viewBox="0 0 1115 1486"
 xmlns:xlink="http://www.w3.org/1999/xlink">
 <defs>
  <style type="text/css">
   <![CDATA[
    .fil0 {fill:#2B2A29;fill-rule:nonzero}
   ]]>
  </style>
 </defs>
 <g id="Layer_x0020_1">
  <metadata id="CorelCorpID_0Corel-Layer"/>
  <path class="fil0" d="M217 1024c13,0 25,-2 37,-5 20,-5 48,-20 48,-41 0,-6 -3,-12 -8,-19 -86,-105 -131,-251 -131,-389 0,-273 131,-479 419,-479 159,0 319,77 319,179 0,52 -22,76 -76,76 -67,0 -138,-29 -212,-29 -41,0 -80,7 -117,29 -62,38 -87,101 -87,172 0,75 34,143 101,179 41,23 82,29 128,29 53,0 99,-14 151,-14 53,2 88,13 126,52 54,56 63,120 63,197 0,118 -44,282 -140,351 1,-9 2,-17 2,-25 0,-45 -29,-82 -69,-107 -40,-26 -101,-39 -160,-39 -54,0 -115,12 -159,40 -43,-28 -105,-40 -158,-40 -59,0 -120,13 -160,39 -39,24 -69,62 -69,110 0,65 61,130 143,161 74,26 166,35 244,35 88,0 191,-9 281,-35 229,-66 382,-249 382,-490 0,-108 -31,-230 -121,-299 -45,-35 -100,-55 -161,-55 -52,0 -100,16 -152,16 -65,0 -126,-27 -126,-102 0,-63 42,-97 104,-97 64,0 126,24 194,24 110,0 197,-57 197,-178 0,-227 -285,-270 -468,-270 -340,0 -581,225 -582,570 0,150 48,303 140,419 19,25 48,35 77,35zm235 384c-61,0 -138,-5 -194,-30 -37,-16 -64,-45 -64,-86 0,-55 55,-75 102,-75 56,0 86,41 86,96 0,31 46,40 70,40 25,0 71,-9 71,-40 0,-55 30,-96 86,-96 46,0 102,20 102,75 0,41 -27,70 -65,86 -56,26 -132,30 -194,30z"/>
 </g>
</svg>
