<?xml version="1.0" encoding="UTF-8"?>
<!DOCTYPE svg PUBLIC "-//W3C//DTD SVG 1.1//EN" "http://www.w3.org/Graphics/SVG/1.1/DTD/svg11.dtd">
<!-- Creator: CorelDRAW X8 -->
<svg xmlns="http://www.w3.org/2000/svg" xml:space="preserve" width="1093px" height="1485px" version="1.1" style="shape-rendering:geometricPrecision; text-rendering:geometricPrecision; image-rendering:optimizeQuality; fill-rule:evenodd; clip-rule:evenodd"
viewBox="0 0 1093 1485"
 xmlns:xlink="http://www.w3.org/1999/xlink">
 <defs>
  <style type="text/css">
   <![CDATA[
    .fil0 {fill:#2B2A29;fill-rule:nonzero}
   ]]>
  </style>
 </defs>
 <g id="Layer_x0020_1">
  <metadata id="CorelCorpID_0Corel-Layer"/>
  <path class="fil0" d="M964 1485c45,0 81,-31 81,-69 0,-38 -36,-69 -81,-69l-668 0c-65,0 -131,-8 -131,-87 0,-56 44,-81 131,-81l406 0c289,0 391,-151 391,-303 0,-147 -105,-268 -254,-268 -54,0 -105,15 -157,15 -64,0 -126,-26 -126,-101 0,-67 42,-98 104,-98 64,0 126,24 194,24 111,0 196,-50 196,-171 0,-226 -287,-277 -470,-277 -340,0 -578,225 -579,570 0,149 48,302 140,418 19,25 49,35 79,35 12,0 23,-1 35,-4 20,-5 48,-21 48,-42 0,-6 -3,-12 -8,-19 -90,-111 -131,-246 -131,-388 0,-272 132,-479 416,-479 157,0 321,76 321,179 0,48 -22,75 -74,75 -69,0 -141,-28 -215,-28 -40,0 -79,7 -115,29 -63,38 -87,101 -87,172 0,72 34,144 100,178 38,20 72,29 115,29 47,0 90,-12 140,-12 101,0 171,59 171,163 0,102 -68,213 -231,213l-409 0c-136,0 -296,31 -296,198 0,164 161,198 296,198l668 0z"/>
 </g>
</svg>
