<?xml version="1.0" encoding="UTF-8"?>
<!DOCTYPE svg PUBLIC "-//W3C//DTD SVG 1.1//EN" "http://www.w3.org/Graphics/SVG/1.1/DTD/svg11.dtd">
<!-- Creator: CorelDRAW X8 -->
<svg xmlns="http://www.w3.org/2000/svg" xml:space="preserve" width="1094px" height="1486px" version="1.1" style="shape-rendering:geometricPrecision; text-rendering:geometricPrecision; image-rendering:optimizeQuality; fill-rule:evenodd; clip-rule:evenodd"
viewBox="0 0 1094 1486"
 xmlns:xlink="http://www.w3.org/1999/xlink">
 <defs>
  <style type="text/css">
   <![CDATA[
    .fil0 {fill:#009846;fill-rule:nonzero}
   ]]>
  </style>
 </defs>
 <g id="Layer_x0020_1">
  <metadata id="CorelCorpID_0Corel-Layer"/>
  <path class="fil0" d="M556 524c1,39 24,79 67,91 76,23 149,-10 227,-6 148,7 243,118 243,261 1,152 -102,310 -391,310l-406 0c-90,0 -133,26 -132,85 2,63 46,83 132,83l664 0c45,0 82,31 82,69 0,38 -37,69 -82,69l-664 0c-137,0 -300,-35 -296,-204 2,-123 94,-193 296,-193l410 0c166,0 234,-115 231,-219 -3,-85 -58,-147 -142,-155 -68,-7 -119,12 -179,11 -32,-1 -66,-8 -106,-29 -64,-33 -98,-103 -100,-173 -3,-71 23,-139 87,-178 36,-22 75,-29 115,-29 62,0 127,18 187,26 52,8 94,-3 101,-58 16,-114 -146,-201 -320,-194 -197,7 -413,135 -417,479 -1,141 44,282 131,389 25,30 -13,54 -40,60 -40,11 -87,4 -114,-30 -91,-117 -140,-269 -139,-419 0,-345 242,-570 582,-570 185,0 474,52 467,285 -4,145 -135,176 -253,159 -51,-7 -122,-29 -174,-16 -44,11 -69,51 -67,96z"/>
 </g>
</svg>
