<?xml version="1.0" encoding="UTF-8"?>
<!DOCTYPE svg PUBLIC "-//W3C//DTD SVG 1.1//EN" "http://www.w3.org/Graphics/SVG/1.1/DTD/svg11.dtd">
<!-- Creator: CorelDRAW X8 -->
<svg xmlns="http://www.w3.org/2000/svg" xml:space="preserve" width="1462px" height="1486px" version="1.1" style="shape-rendering:geometricPrecision; text-rendering:geometricPrecision; image-rendering:optimizeQuality; fill-rule:evenodd; clip-rule:evenodd"
viewBox="0 0 1462 1486"
 xmlns:xlink="http://www.w3.org/1999/xlink">
 <defs>
  <style type="text/css">
   <![CDATA[
    .fil0 {fill:#CC6633;fill-rule:nonzero}
   ]]>
  </style>
 </defs>
 <g id="Layer_x0020_1">
  <metadata id="CorelCorpID_0Corel-Layer"/>
  <path class="fil0" d="M1106 712c-35,5 -74,15 -118,15 -36,-1 -75,-8 -118,-30 -64,-33 -98,-103 -100,-173 -3,-81 30,-143 87,-178 35,-20 72,-28 110,-29 64,-1 130,18 192,27 52,7 94,-3 101,-58 16,-115 -146,-201 -320,-195 -197,8 -413,135 -417,479 -1,141 44,282 132,389 4,6 7,12 7,18 1,18 -17,35 -48,43 -11,2 -22,4 -33,4 -31,0 -61,-10 -81,-35 -91,-116 -140,-269 -139,-419 0,-344 242,-570 582,-570 185,0 474,52 467,286 -4,144 -135,176 -253,158 -51,-7 -122,-28 -174,-16 -47,12 -69,55 -67,96 1,40 24,79 67,92 80,23 136,-15 220,-11 153,7 251,141 258,286 8,169 -42,302 -131,399 -124,134 -302,195 -488,196 -284,2 -517,-115 -665,-306 -113,-146 -177,-335 -177,-547 -1,-246 92,-489 304,-618 31,-18 82,-19 115,-2 33,17 35,46 4,64 -186,113 -262,332 -259,556 1,164 38,327 123,458 113,174 308,311 555,307 145,-2 285,-57 381,-181 63,-81 97,-188 90,-314 -4,-62 -35,-126 -81,-161 -34,-26 -79,-36 -126,-30z"/>
 </g>
</svg>
