<?xml version="1.0" encoding="UTF-8"?>
<!DOCTYPE svg PUBLIC "-//W3C//DTD SVG 1.1//EN" "http://www.w3.org/Graphics/SVG/1.1/DTD/svg11.dtd">
<!-- Creator: CorelDRAW X8 -->
<svg xmlns="http://www.w3.org/2000/svg" xml:space="preserve" width="1115px" height="1486px" version="1.1" style="shape-rendering:geometricPrecision; text-rendering:geometricPrecision; image-rendering:optimizeQuality; fill-rule:evenodd; clip-rule:evenodd"
viewBox="0 0 1115 1486"
 xmlns:xlink="http://www.w3.org/1999/xlink">
 <defs>
  <style type="text/css">
   <![CDATA[
    .fil0 {fill:#CC6633}
   ]]>
  </style>
 </defs>
 <g id="Layer_x0020_1">
  <metadata id="CorelCorpID_0Corel-Layer"/>
  <path class="fil0" d="M456 1224c-76,0 -137,11 -177,26 -43,17 -65,39 -65,62 -1,24 21,47 64,64 40,15 101,26 178,26 62,0 110,-7 148,-18 59,-18 88,-45 88,-72 -1,-26 -29,-52 -86,-69 -39,-11 -87,-19 -150,-19zm384 86c93,-64 143,-230 137,-358 -3,-75 -24,-145 -67,-188 -28,-29 -62,-49 -102,-51 -69,-4 -121,16 -181,15 -35,0 -72,-8 -117,-31 -64,-33 -98,-103 -101,-173 -2,-81 31,-144 88,-178 34,-20 71,-28 109,-29 64,-1 131,18 193,27 52,7 91,-2 101,-59 9,-52 -18,-107 -74,-142 -62,-38 -153,-56 -246,-52 -197,8 -413,135 -417,479 -2,141 44,282 131,389 5,6 7,12 7,18 1,18 -17,35 -47,42 -11,3 -23,5 -35,5 -30,0 -60,-10 -79,-35 -91,-117 -140,-269 -140,-419 1,-345 243,-570 582,-570 121,0 285,22 384,102 52,42 86,102 84,183 -4,145 -135,176 -253,159 -51,-7 -122,-29 -174,-16 -48,11 -70,54 -68,96 2,40 25,79 68,91 62,18 123,0 184,-7 107,-11 204,44 257,135 38,65 53,145 51,222 -8,236 -145,388 -315,462 -93,40 -223,60 -347,59 -76,-1 -149,-9 -210,-26 -119,-31 -178,-89 -178,-148 0,-59 61,-117 183,-149 55,-14 126,-22 208,-22 74,0 135,7 188,19 76,18 194,64 196,150z"/>
 </g>
</svg>
