<?xml version="1.0" encoding="UTF-8"?>
<!DOCTYPE svg PUBLIC "-//W3C//DTD SVG 1.1//EN" "http://www.w3.org/Graphics/SVG/1.1/DTD/svg11.dtd">
<!-- Creator: CorelDRAW X8 -->
<svg xmlns="http://www.w3.org/2000/svg" xml:space="preserve" width="1115px" height="1486px" version="1.1" style="shape-rendering:geometricPrecision; text-rendering:geometricPrecision; image-rendering:optimizeQuality; fill-rule:evenodd; clip-rule:evenodd"
viewBox="0 0 1115 1486"
 xmlns:xlink="http://www.w3.org/1999/xlink">
 <defs>
  <style type="text/css">
   <![CDATA[
    .fil0 {fill:#CC6633;fill-rule:nonzero}
   ]]>
  </style>
 </defs>
 <g id="Layer_x0020_1">
  <metadata id="CorelCorpID_0Corel-Layer"/>
  <path class="fil0" d="M452 1408c62,0 138,-4 194,-30 39,-17 67,-47 65,-90 -1,-51 -58,-71 -100,-71 -57,-1 -88,40 -88,96 0,31 -46,40 -71,40 -24,0 -70,-9 -70,-40 0,-56 -31,-97 -88,-96 -42,0 -99,20 -100,71 -2,43 26,73 64,90 56,25 133,30 194,30zm386 -96c102,-74 145,-239 139,-360 -3,-75 -24,-145 -67,-188 -28,-29 -62,-49 -102,-51 -67,-4 -118,15 -177,15 -36,0 -75,-7 -121,-31 -64,-33 -98,-103 -101,-173 -2,-81 31,-144 88,-178 34,-21 72,-28 110,-29 64,-1 130,18 192,27 52,7 91,-2 101,-59 9,-52 -18,-107 -74,-142 -62,-38 -153,-56 -246,-52 -197,7 -413,135 -417,479 -2,141 44,282 131,389 5,6 7,12 7,18 1,18 -17,35 -47,42 -12,3 -24,5 -37,5 -29,0 -58,-11 -77,-35 -91,-117 -140,-269 -140,-419 1,-345 243,-570 582,-570 121,0 285,22 384,102 52,42 86,102 84,183 -4,145 -135,176 -253,159 -51,-7 -122,-29 -174,-16 -48,11 -70,54 -68,96 2,40 25,79 68,91 62,18 123,0 184,-7 107,-11 204,44 257,135 38,65 53,145 51,222 -8,236 -145,388 -315,462 -102,44 -237,59 -348,59 -78,0 -170,-9 -244,-35 -83,-31 -144,-97 -143,-163 1,-38 21,-78 69,-108 40,-26 101,-39 160,-39 53,0 115,12 158,40 44,-28 105,-40 159,-40 59,0 120,13 160,39 49,31 69,69 69,108 0,8 -1,16 -2,24z"/>
 </g>
</svg>
