<?xml version="1.0" encoding="UTF-8"?>
<!DOCTYPE svg PUBLIC "-//W3C//DTD SVG 1.1//EN" "http://www.w3.org/Graphics/SVG/1.1/DTD/svg11.dtd">
<!-- Creator: CorelDRAW X8 -->
<svg xmlns="http://www.w3.org/2000/svg" xml:space="preserve" width="1094px" height="1486px" version="1.1" style="shape-rendering:geometricPrecision; text-rendering:geometricPrecision; image-rendering:optimizeQuality; fill-rule:evenodd; clip-rule:evenodd"
viewBox="0 0 1093 1485"
 xmlns:xlink="http://www.w3.org/1999/xlink">
 <defs>
  <style type="text/css">
   <![CDATA[
    .fil0 {fill:#898778;fill-rule:nonzero}
   ]]>
  </style>
 </defs>
 <g id="Layer_x0020_1">
  <metadata id="CorelCorpID_0Corel-Layer"/>
  <path class="fil0" d="M556 524c1,39 24,78 67,91 76,22 149,-10 226,-7 149,8 244,119 244,261 0,152 -102,310 -391,310l-406 0c-89,0 -133,26 -131,85 1,63 45,83 131,83l664 0c45,0 81,31 81,69 0,38 -36,69 -81,69l-664 0c-137,0 -300,-35 -296,-204 3,-123 95,-192 296,-192l409 0c166,0 234,-116 231,-220 -2,-84 -58,-146 -141,-155 -68,-7 -119,13 -179,11 -32,-1 -66,-8 -106,-29 -64,-33 -98,-102 -100,-172 -3,-71 23,-139 87,-178 36,-22 75,-29 115,-29 62,0 127,18 187,26 52,8 93,-3 101,-58 16,-114 -147,-201 -320,-194 -197,7 -413,135 -416,479 -2,140 43,281 131,388 24,30 -14,54 -40,61 -41,10 -87,4 -114,-31 -92,-116 -140,-269 -140,-418 1,-345 242,-570 582,-570 185,0 474,52 467,285 -5,145 -135,176 -253,159 -51,-7 -122,-29 -174,-16 -44,10 -69,50 -67,96z"/>
 </g>
</svg>
