<?xml version="1.0" encoding="UTF-8"?>
<!DOCTYPE svg PUBLIC "-//W3C//DTD SVG 1.1//EN" "http://www.w3.org/Graphics/SVG/1.1/DTD/svg11.dtd">
<!-- Creator: CorelDRAW X8 -->
<svg xmlns="http://www.w3.org/2000/svg" xml:space="preserve" width="1462px" height="1486px" version="1.1" style="shape-rendering:geometricPrecision; text-rendering:geometricPrecision; image-rendering:optimizeQuality; fill-rule:evenodd; clip-rule:evenodd"
viewBox="0 0 1462 1486"
 xmlns:xlink="http://www.w3.org/1999/xlink">
 <defs>
  <style type="text/css">
   <![CDATA[
    .fil0 {fill:#2B2A29;fill-rule:nonzero}
   ]]>
  </style>
 </defs>
 <g id="Layer_x0020_1">
  <metadata id="CorelCorpID_0Corel-Layer"/>
  <path class="fil0" d="M1330 1290c83,-90 132,-203 132,-355 0,-164 -87,-330 -272,-330 -58,0 -103,18 -154,18 -64,0 -120,-29 -120,-102 0,-64 43,-97 103,-97 64,0 129,25 196,25 111,0 195,-51 195,-171 0,-227 -290,-278 -473,-278 -338,0 -576,228 -576,575 0,148 49,299 139,414 20,25 50,35 79,35 12,0 24,-1 35,-4 21,-5 49,-21 49,-42 0,-6 -3,-12 -8,-19 -87,-106 -132,-245 -132,-384 0,-268 129,-484 414,-484 160,0 324,76 324,179 0,51 -21,76 -75,76 -68,0 -139,-29 -214,-29 -40,0 -80,9 -115,29 -63,39 -87,101 -87,173 0,71 35,145 100,178 43,22 82,29 118,30 48,0 95,-13 144,-17 37,0 72,11 100,32 63,48 82,116 82,193 0,112 -33,208 -91,282 -96,124 -233,181 -388,181 -242,0 -437,-135 -548,-307 -90,-139 -123,-294 -123,-458 0,-219 77,-445 259,-556 15,-9 22,-20 22,-31 0,-12 -9,-24 -26,-33 -16,-8 -36,-12 -56,-12 -21,0 -43,5 -59,14 -216,131 -304,375 -304,618 0,212 64,401 177,547 147,189 377,306 658,306 185,0 367,-58 495,-196z"/>
 </g>
</svg>
