<?xml version="1.0" encoding="UTF-8"?>
<!DOCTYPE svg PUBLIC "-//W3C//DTD SVG 1.1//EN" "http://www.w3.org/Graphics/SVG/1.1/DTD/svg11.dtd">
<!-- Creator: CorelDRAW X8 -->
<svg xmlns="http://www.w3.org/2000/svg" xml:space="preserve" width="633px" height="586px" version="1.1" style="shape-rendering:geometricPrecision; text-rendering:geometricPrecision; image-rendering:optimizeQuality; fill-rule:evenodd; clip-rule:evenodd"
viewBox="0 0 633 586"
 xmlns:xlink="http://www.w3.org/1999/xlink">
 <defs>
  <style type="text/css">
   <![CDATA[
    .fil0 {fill:#2B2A29;fill-rule:nonzero}
   ]]>
  </style>
 </defs>
 <g id="Layer_x0020_1">
  <metadata id="CorelCorpID_0Corel-Layer"/>
  <path class="fil0" d="M571 586c17,0 62,-6 62,-29l0 -306c0,-68 -26,-129 -78,-174 -64,-57 -155,-77 -239,-77 -83,0 -174,21 -239,77 -51,45 -77,106 -77,174l0 306c0,23 45,29 61,29l510 0zm-61 -59l-243 0c103,-71 181,-190 181,-314 -1,-55 -19,-108 -63,-143 82,16 125,98 125,181l0 276zm-387 1l0 -277c0,-41 3,-82 26,-117 21,-31 54,-53 91,-53 73,0 94,66 94,128 0,121 -108,267 -211,319z"/>
 </g>
</svg>
