<?xml version="1.0" encoding="UTF-8"?>
<!DOCTYPE svg PUBLIC "-//W3C//DTD SVG 1.1//EN" "http://www.w3.org/Graphics/SVG/1.1/DTD/svg11.dtd">
<!-- Creator: CorelDRAW X8 -->
<svg xmlns="http://www.w3.org/2000/svg" xml:space="preserve" width="633px" height="586px" version="1.1" style="shape-rendering:geometricPrecision; text-rendering:geometricPrecision; image-rendering:optimizeQuality; fill-rule:evenodd; clip-rule:evenodd"
viewBox="0 0 633 586"
 xmlns:xlink="http://www.w3.org/1999/xlink">
 <defs>
  <style type="text/css">
   <![CDATA[
    .fil0 {fill:#CC6633;fill-rule:nonzero}
   ]]>
  </style>
 </defs>
 <g id="Layer_x0020_1">
  <metadata id="CorelCorpID_0Corel-Layer"/>
  <path class="fil0" d="M267 527l243 0 0 -276c0,-83 -43,-165 -125,-181 44,35 62,88 63,143 0,39 -8,78 -22,116 -31,80 -91,151 -159,198zm-144 -276l0 277c79,-40 155,-131 190,-219 12,-31 20,-64 21,-95 1,-58 -17,-130 -87,-133 -40,-3 -76,20 -98,53 -23,35 -26,76 -26,117zm448 335l-510 0c-16,0 -61,-6 -61,-29l0 -306c0,-68 26,-129 77,-174 65,-56 156,-77 239,-77 84,0 175,20 239,77 52,45 78,106 78,174l0 306c0,23 -45,29 -62,29z"/>
 </g>
</svg>
