<?xml version="1.0" encoding="UTF-8"?>
<!DOCTYPE svg PUBLIC "-//W3C//DTD SVG 1.1//EN" "http://www.w3.org/Graphics/SVG/1.1/DTD/svg11.dtd">
<!-- Creator: CorelDRAW X8 -->
<svg xmlns="http://www.w3.org/2000/svg" xml:space="preserve" width="1013px" height="1486px" version="1.1" style="shape-rendering:geometricPrecision; text-rendering:geometricPrecision; image-rendering:optimizeQuality; fill-rule:evenodd; clip-rule:evenodd"
viewBox="0 0 1013 1486"
 xmlns:xlink="http://www.w3.org/1999/xlink">
 <defs>
  <style type="text/css">
   <![CDATA[
    .fil0 {fill:#434242;fill-rule:nonzero}
   ]]>
  </style>
 </defs>
 <g id="Layer_x0020_1">
  <metadata id="CorelCorpID_0Corel-Layer"/>
  <path class="fil0" d="M378 1486c131,0 249,-5 347,-32 177,-49 288,-168 288,-454l0 -572c0,-126 -49,-228 -129,-299 -93,-84 -227,-129 -377,-129 -147,0 -284,43 -379,129 -78,71 -128,171 -128,299l0 526c0,34 55,46 81,46l771 0c0,112 8,291 -108,348 10,-20 15,-40 15,-60 0,-39 -20,-77 -68,-108 -39,-26 -98,-39 -157,-39 -52,0 -112,12 -155,40 -43,-28 -103,-40 -155,-40 -58,0 -118,13 -157,39 -38,25 -67,63 -67,110 0,65 59,131 140,161 79,30 175,35 238,35zm472 -577l-456 0c197,-135 312,-354 311,-547 0,-111 -43,-209 -134,-266 157,26 279,141 279,332l0 481zm-687 -1l0 -480c0,-110 40,-194 103,-251 33,-29 73,-49 118,-49 118,0 160,134 160,234 0,229 -174,459 -381,546zm215 500c-60,0 -134,-5 -189,-30 -37,-16 -63,-45 -63,-86 0,-53 52,-75 98,-75 58,0 86,41 86,96 0,31 46,40 69,40 24,0 70,-9 70,-40 0,-54 27,-96 85,-96 44,0 99,22 99,73 0,42 -27,71 -64,88 -55,26 -130,30 -191,30z"/>
 </g>
</svg>
