<?xml version="1.0" encoding="UTF-8"?>
<!DOCTYPE svg PUBLIC "-//W3C//DTD SVG 1.1//EN" "http://www.w3.org/Graphics/SVG/1.1/DTD/svg11.dtd">
<!-- Creator: CorelDRAW X8 -->
<svg xmlns="http://www.w3.org/2000/svg" xml:space="preserve" width="1431px" height="1486px" version="1.1" style="shape-rendering:geometricPrecision; text-rendering:geometricPrecision; image-rendering:optimizeQuality; fill-rule:evenodd; clip-rule:evenodd"
viewBox="0 0 1431 1486"
 xmlns:xlink="http://www.w3.org/1999/xlink">
 <defs>
  <style type="text/css">
   <![CDATA[
    .fil0 {fill:#434242;fill-rule:nonzero}
   ]]>
  </style>
 </defs>
 <g id="Layer_x0020_1">
  <metadata id="CorelCorpID_0Corel-Layer"/>
  <path class="fil0" d="M1292 1320c84,-81 139,-182 139,-324l0 -568c0,-126 -49,-228 -129,-299 -93,-84 -228,-129 -378,-129 -146,0 -283,43 -378,129 -78,71 -128,171 -128,299l0 526c0,35 56,46 81,46l769 0c0,110 -29,186 -86,252 -91,106 -230,147 -365,147 -257,0 -446,-113 -547,-288 -80,-138 -107,-302 -107,-460 0,-231 79,-460 267,-574 14,-9 21,-20 21,-31 0,-12 -9,-24 -26,-33 -16,-9 -36,-13 -56,-13 -21,0 -42,5 -58,15 -215,131 -311,382 -311,636 0,187 46,379 157,532 139,191 365,303 660,303 165,0 354,-48 475,-166zm-24 -411l-456 0c199,-137 312,-356 311,-547 0,-111 -43,-209 -134,-266 157,26 279,141 279,332l0 481zm-687 -1l0 -480c0,-110 40,-194 103,-251 33,-30 73,-49 118,-49 118,0 160,134 160,234 0,230 -174,459 -381,546z"/>
 </g>
</svg>
