<?xml version="1.0" encoding="UTF-8"?>
<!DOCTYPE svg PUBLIC "-//W3C//DTD SVG 1.1//EN" "http://www.w3.org/Graphics/SVG/1.1/DTD/svg11.dtd">
<!-- Creator: CorelDRAW X8 -->
<svg xmlns="http://www.w3.org/2000/svg" xml:space="preserve" width="2362px" height="1486px" version="1.1" style="shape-rendering:geometricPrecision; text-rendering:geometricPrecision; image-rendering:optimizeQuality; fill-rule:evenodd; clip-rule:evenodd"
viewBox="0 0 2362 1486"
 xmlns:xlink="http://www.w3.org/1999/xlink">
 <defs>
  <style type="text/css">
   <![CDATA[
    .fil0 {fill:#009846;fill-rule:nonzero}
   ]]>
  </style>
 </defs>
 <g id="Layer_x0020_1">
  <metadata id="CorelCorpID_0Corel-Layer"/>
  <path class="fil0" d="M1932 503c-2,153 -52,302 -162,406l429 0 0 -864c0,-25 36,-45 81,-45 46,0 82,20 82,45l0 953c0,168 -127,288 -318,367 -195,80 -457,118 -719,121 -246,3 -507,-24 -732,-105 -336,-121 -591,-366 -593,-820 -1,-213 94,-423 278,-545 30,-20 81,-21 114,-5 31,15 41,43 10,64 -161,106 -240,301 -239,486 0,392 201,611 477,725 204,84 449,111 685,108 244,-3 492,-43 661,-124 133,-64 216,-157 212,-270l-599 0c-26,0 -85,-9 -85,-45 0,-14 12,-28 32,-36 156,-67 221,-258 223,-416 3,-171 -92,-412 -292,-412 -162,0 -233,116 -233,265l0 622c0,25 -37,46 -82,46 -45,0 -81,-21 -81,-46l0 -622c0,-150 -72,-265 -233,-265 -131,0 -237,96 -283,214 -27,67 -37,142 -36,216 3,157 67,355 223,421 31,13 46,41 16,64 -32,24 -84,22 -119,7 -194,-86 -280,-291 -283,-492 -1,-92 15,-183 51,-262 79,-168 249,-259 431,-259 133,0 244,38 314,117 71,-79 182,-117 315,-117 284,0 459,229 455,503z"/>
 </g>
</svg>
