<?xml version="1.0" encoding="UTF-8"?>
<!DOCTYPE svg PUBLIC "-//W3C//DTD SVG 1.1//EN" "http://www.w3.org/Graphics/SVG/1.1/DTD/svg11.dtd">
<!-- Creator: CorelDRAW X8 -->
<svg xmlns="http://www.w3.org/2000/svg" xml:space="preserve" width="1996px" height="1024px" version="1.1" style="shape-rendering:geometricPrecision; text-rendering:geometricPrecision; image-rendering:optimizeQuality; fill-rule:evenodd; clip-rule:evenodd"
viewBox="0 0 1996 1024"
 xmlns:xlink="http://www.w3.org/1999/xlink">
 <defs>
  <style type="text/css">
   <![CDATA[
    .fil0 {fill:#669933;fill-rule:nonzero}
   ]]>
  </style>
 </defs>
 <g id="Layer_x0020_1">
  <metadata id="CorelCorpID_0Corel-Layer"/>
  <path class="fil0" d="M1566 503c-2,153 -53,302 -162,406 143,0 286,0 429,0l0 -863c0,-26 36,-46 81,-46 46,0 82,20 82,46l0 909c0,25 -36,45 -82,45 -227,0 -454,0 -681,0 -24,0 -48,-3 -68,-18 -27,-20 -20,-48 15,-63 156,-67 221,-258 223,-416 3,-171 -92,-412 -293,-412 -161,0 -232,115 -232,265l0 622c0,26 -37,46 -82,46 -45,0 -81,-20 -81,-46l0 -622c0,-150 -72,-265 -233,-265 -131,0 -237,96 -284,214 -26,67 -36,142 -35,215 2,158 67,356 223,423 35,15 42,43 15,63 -32,24 -83,22 -118,7 -194,-85 -280,-291 -283,-493 -1,-91 14,-182 51,-261 79,-169 248,-259 431,-259 132,0 244,38 314,117 71,-79 182,-117 314,-117 285,0 460,229 456,503z"/>
 </g>
</svg>
