<?xml version="1.0" encoding="UTF-8"?>
<!DOCTYPE svg PUBLIC "-//W3C//DTD SVG 1.1//EN" "http://www.w3.org/Graphics/SVG/1.1/DTD/svg11.dtd">
<!-- Creator: CorelDRAW X8 -->
<svg xmlns="http://www.w3.org/2000/svg" xml:space="preserve" width="1013px" height="1486px" version="1.1" style="shape-rendering:geometricPrecision; text-rendering:geometricPrecision; image-rendering:optimizeQuality; fill-rule:evenodd; clip-rule:evenodd"
viewBox="0 0 1013 1486"
 xmlns:xlink="http://www.w3.org/1999/xlink">
 <defs>
  <style type="text/css">
   <![CDATA[
    .fil0 {fill:#2B2A29;fill-rule:nonzero}
   ]]>
  </style>
 </defs>
 <g id="Layer_x0020_1">
  <metadata id="CorelCorpID_0Corel-Layer"/>
  <path class="fil0" d="M381 1486c118,0 225,-4 316,-24 194,-43 316,-159 316,-462l0 -572c0,-126 -49,-228 -129,-299 -93,-84 -227,-129 -377,-129 -147,0 -284,43 -379,129 -78,71 -128,171 -128,299l0 526c0,34 55,46 81,46l771 0c0,101 5,293 -100,343 4,-11 6,-22 6,-32 0,-85 -122,-134 -192,-151 -52,-12 -112,-19 -185,-19 -79,0 -148,8 -203,22 -118,32 -178,90 -178,149 0,59 58,118 173,149 61,17 137,25 208,25zm469 -577l-456 0c202,-138 311,-360 311,-547 -1,-111 -43,-209 -134,-266 157,26 279,141 279,332l0 481zm-687 -1l0 -480c0,-110 40,-194 103,-251 33,-29 73,-49 118,-49 118,0 160,134 160,234 0,229 -174,459 -381,546zm218 494c-159,0 -236,-44 -236,-90 2,-42 75,-87 236,-87 156,0 231,45 231,87 0,43 -71,90 -231,90z"/>
 </g>
</svg>
