<?xml version="1.0" encoding="UTF-8"?>
<!DOCTYPE svg PUBLIC "-//W3C//DTD SVG 1.1//EN" "http://www.w3.org/Graphics/SVG/1.1/DTD/svg11.dtd">
<!-- Creator: CorelDRAW X8 -->
<svg xmlns="http://www.w3.org/2000/svg" xml:space="preserve" width="1996px" height="1024px" version="1.1" style="shape-rendering:geometricPrecision; text-rendering:geometricPrecision; image-rendering:optimizeQuality; fill-rule:evenodd; clip-rule:evenodd"
viewBox="0 0 1996 1024"
 xmlns:xlink="http://www.w3.org/1999/xlink">
 <defs>
  <style type="text/css">
   <![CDATA[
    .fil0 {fill:#434242;fill-rule:nonzero}
   ]]>
  </style>
 </defs>
 <g id="Layer_x0020_1">
  <metadata id="CorelCorpID_0Corel-Layer"/>
  <path class="fil0" d="M796 1024c45,0 82,-21 82,-46l0 -622c0,-150 71,-265 232,-265 198,0 293,234 293,404 0,160 -64,356 -223,423 -14,6 -32,19 -32,36 0,37 57,46 85,46l681 0c27,0 82,-11 82,-45l0 -909c0,-26 -37,-46 -82,-46 -45,0 -81,20 -81,46l0 863 -430 0c114,-108 163,-261 163,-415 0,-270 -174,-494 -456,-494 -132,0 -243,38 -314,117 -70,-79 -182,-117 -314,-117 -183,0 -352,90 -431,259 -36,77 -51,164 -51,253 0,204 87,414 283,501 16,7 36,11 56,11 23,0 46,-5 63,-18 11,-8 16,-18 16,-27 0,-15 -13,-29 -32,-37 -160,-68 -223,-272 -223,-432 0,-70 10,-141 35,-205 47,-118 153,-214 284,-214 161,0 233,115 233,265l0 622c0,25 36,46 81,46z"/>
 </g>
</svg>
