<?xml version="1.0" encoding="UTF-8"?>
<!DOCTYPE svg PUBLIC "-//W3C//DTD SVG 1.1//EN" "http://www.w3.org/Graphics/SVG/1.1/DTD/svg11.dtd">
<!-- Creator: CorelDRAW X8 -->
<svg xmlns="http://www.w3.org/2000/svg" xml:space="preserve" width="1013px" height="1486px" version="1.1" style="shape-rendering:geometricPrecision; text-rendering:geometricPrecision; image-rendering:optimizeQuality; fill-rule:evenodd; clip-rule:evenodd"
viewBox="0 0 1013 1486"
 xmlns:xlink="http://www.w3.org/1999/xlink">
 <defs>
  <style type="text/css">
   <![CDATA[
    .fil0 {fill:#009846;fill-rule:nonzero}
   ]]>
  </style>
 </defs>
 <g id="Layer_x0020_1">
  <metadata id="CorelCorpID_0Corel-Layer"/>
  <path class="fil0" d="M378 1408c61,0 136,-4 191,-30 38,-17 65,-47 64,-90 -2,-51 -57,-71 -99,-71 -55,-1 -85,40 -85,96 0,31 -46,40 -70,40 -23,0 -69,-9 -69,-40 0,-56 -30,-97 -86,-96 -42,0 -97,20 -98,71 -2,43 25,73 63,90 55,25 129,30 189,30zm16 -499l456 0 0 -481c0,-109 -40,-193 -104,-251 -47,-43 -108,-70 -175,-81 91,57 133,155 134,266 0,66 -13,135 -39,203 -48,127 -139,253 -272,344zm-128 -732c-63,57 -103,141 -103,251l0 480c150,-63 280,-198 342,-354 24,-61 38,-125 39,-189 1,-101 -42,-241 -165,-237 -39,1 -79,19 -113,49zm586 823l-771 0c-26,0 -81,-12 -81,-46l0 -526c0,-128 50,-228 128,-299 95,-86 232,-129 379,-129 150,0 284,45 377,129 80,71 129,173 129,299l0 572c0,301 -103,411 -307,454 -101,22 -211,32 -328,32 -63,0 -159,-6 -238,-35 -82,-31 -141,-97 -140,-163 1,-38 21,-78 67,-108 39,-26 99,-39 157,-39 52,0 112,12 155,40 43,-28 103,-40 155,-40 59,0 118,13 157,39 48,31 68,69 68,108 0,20 -5,40 -15,60 115,-57 109,-233 108,-348z"/>
 </g>
</svg>
