<?xml version="1.0" encoding="UTF-8"?>
<!DOCTYPE svg PUBLIC "-//W3C//DTD SVG 1.1//EN" "http://www.w3.org/Graphics/SVG/1.1/DTD/svg11.dtd">
<!-- Creator: CorelDRAW X8 -->
<svg xmlns="http://www.w3.org/2000/svg" xml:space="preserve" width="2362px" height="1486px" version="1.1" style="shape-rendering:geometricPrecision; text-rendering:geometricPrecision; image-rendering:optimizeQuality; fill-rule:evenodd; clip-rule:evenodd"
viewBox="0 0 2362 1486"
 xmlns:xlink="http://www.w3.org/1999/xlink">
 <defs>
  <style type="text/css">
   <![CDATA[
    .fil0 {fill:#434242;fill-rule:nonzero}
   ]]>
  </style>
 </defs>
 <g id="Layer_x0020_1">
  <metadata id="CorelCorpID_0Corel-Layer"/>
  <path class="fil0" d="M2044 1365c191,-79 318,-199 318,-367l0 -953c0,-25 -36,-45 -82,-45 -45,0 -81,20 -81,45l0 864 -429 0c114,-108 162,-262 162,-415 0,-270 -174,-494 -455,-494 -133,0 -244,38 -315,117 -70,-79 -181,-117 -314,-117 -182,0 -353,91 -431,259 -36,76 -51,165 -51,254 0,203 87,414 283,500 16,7 36,11 56,11 23,0 46,-5 63,-18 11,-9 16,-18 16,-27 0,-15 -13,-29 -32,-37 -159,-67 -223,-272 -223,-431 0,-71 10,-142 36,-206 46,-118 152,-214 283,-214 161,0 233,115 233,265l0 622c0,25 36,46 81,46 45,0 82,-21 82,-46l0 -622c0,-149 71,-265 233,-265 197,0 292,234 292,404 0,160 -64,356 -223,424 -20,8 -32,22 -32,36 0,36 59,45 85,45l599 0c0,133 -100,216 -212,270 -200,97 -476,124 -697,124 -225,0 -455,-28 -649,-108 -322,-133 -477,-380 -477,-728 0,-184 79,-378 239,-483 13,-9 19,-19 19,-29 0,-13 -11,-27 -29,-35 -15,-8 -34,-11 -53,-11 -22,0 -45,5 -61,16 -183,121 -278,330 -278,542 0,412 211,686 593,823 214,77 460,105 696,105 244,0 529,-28 755,-121z"/>
 </g>
</svg>
