<?xml version="1.0" encoding="UTF-8"?>
<!DOCTYPE svg PUBLIC "-//W3C//DTD SVG 1.1//EN" "http://www.w3.org/Graphics/SVG/1.1/DTD/svg11.dtd">
<!-- Creator: CorelDRAW X8 -->
<svg xmlns="http://www.w3.org/2000/svg" xml:space="preserve" width="1630px" height="1024px" version="1.1" style="shape-rendering:geometricPrecision; text-rendering:geometricPrecision; image-rendering:optimizeQuality; fill-rule:evenodd; clip-rule:evenodd"
viewBox="0 0 1630 1024"
 xmlns:xlink="http://www.w3.org/1999/xlink">
 <defs>
  <style type="text/css">
   <![CDATA[
    .fil0 {fill:#009846;fill-rule:nonzero}
   ]]>
  </style>
 </defs>
 <g id="Layer_x0020_1">
  <metadata id="CorelCorpID_0Corel-Layer"/>
  <path class="fil0" d="M643 450c11,164 64,315 204,414 137,-89 208,-254 217,-414 12,-242 -105,-359 -217,-359 -113,0 -219,126 -204,359zm-56 -311c58,-92 154,-139 260,-139 190,0 394,150 379,450 -9,186 -93,365 -249,471 33,7 67,11 104,11 133,0 251,-85 315,-198 46,-82 71,-184 71,-284 1,-136 -44,-301 -170,-372 -32,-18 -32,-46 0,-64 43,-24 93,-15 133,11 142,90 201,261 200,425 -1,109 -28,221 -79,311 -95,169 -278,262 -470,262 -87,0 -165,-13 -234,-38 -71,25 -152,39 -242,39 -182,-1 -345,-50 -467,-190 -90,-103 -134,-249 -138,-384 -2,-105 20,-209 69,-293 58,-99 173,-157 283,-157 109,0 188,43 235,139zm18 794c41,-1 80,-5 115,-13 -158,-112 -224,-284 -237,-470 -3,-48 1,-132 -11,-208 -12,-81 -42,-151 -120,-151 -44,0 -91,31 -128,94 -44,75 -63,169 -61,265 3,120 41,252 121,344 88,101 188,139 321,139z"/>
 </g>
</svg>
