<?xml version="1.0" encoding="UTF-8"?>
<!DOCTYPE svg PUBLIC "-//W3C//DTD SVG 1.1//EN" "http://www.w3.org/Graphics/SVG/1.1/DTD/svg11.dtd">
<!-- Creator: CorelDRAW X8 -->
<svg xmlns="http://www.w3.org/2000/svg" xml:space="preserve" width="1630px" height="1024px" version="1.1" style="shape-rendering:geometricPrecision; text-rendering:geometricPrecision; image-rendering:optimizeQuality; fill-rule:evenodd; clip-rule:evenodd"
viewBox="0 0 1630 1024"
 xmlns:xlink="http://www.w3.org/1999/xlink">
 <defs>
  <style type="text/css">
   <![CDATA[
    .fil0 {fill:#898778;fill-rule:nonzero}
   ]]>
  </style>
 </defs>
 <g id="Layer_x0020_1">
  <metadata id="CorelCorpID_0Corel-Layer"/>
  <path class="fil0" d="M643 450c11,165 64,315 204,415 137,-90 209,-255 217,-415 12,-242 -105,-359 -217,-359 -113,0 -219,126 -204,359zm-56 -311c58,-92 154,-139 260,-139 190,0 394,150 379,450 -9,186 -93,366 -249,471 33,8 67,12 104,12 133,-1 251,-86 315,-199 46,-82 71,-184 71,-284 1,-135 -44,-301 -170,-372 -31,-18 -32,-46 0,-64 43,-24 93,-15 133,11 143,90 201,261 200,425 -1,109 -28,221 -79,312 -95,169 -278,261 -470,261 -87,1 -165,-13 -234,-37 -71,25 -153,39 -242,38 -182,0 -345,-49 -468,-190 -89,-103 -134,-249 -137,-384 -2,-105 20,-209 69,-293 58,-99 173,-157 283,-157 109,0 188,43 235,139zm18 794c41,0 80,-4 115,-13 -158,-112 -224,-284 -237,-470 -4,-47 1,-132 -11,-208 -12,-81 -42,-151 -120,-151 -44,0 -91,31 -128,94 -44,75 -64,169 -61,265 3,120 41,253 121,344 88,101 188,139 321,139z"/>
 </g>
</svg>
