<?xml version="1.0" encoding="UTF-8"?>
<!DOCTYPE svg PUBLIC "-//W3C//DTD SVG 1.1//EN" "http://www.w3.org/Graphics/SVG/1.1/DTD/svg11.dtd">
<!-- Creator: CorelDRAW X8 -->
<svg xmlns="http://www.w3.org/2000/svg" xml:space="preserve" width="1630px" height="1024px" version="1.1" style="shape-rendering:geometricPrecision; text-rendering:geometricPrecision; image-rendering:optimizeQuality; fill-rule:evenodd; clip-rule:evenodd"
viewBox="0 0 1630 1024"
 xmlns:xlink="http://www.w3.org/1999/xlink">
 <defs>
  <style type="text/css">
   <![CDATA[
    .fil0 {fill:#434242;fill-rule:nonzero}
   ]]>
  </style>
 </defs>
 <g id="Layer_x0020_1">
  <metadata id="CorelCorpID_0Corel-Layer"/>
  <path class="fil0" d="M605 1024c90,0 171,-14 242,-39 69,25 147,38 234,38 192,0 375,-93 470,-262 53,-93 79,-205 79,-311 0,-163 -59,-336 -200,-425 -24,-16 -51,-25 -79,-25 -18,0 -37,4 -54,14 -16,9 -24,20 -24,32 0,11 8,23 24,32 128,72 170,235 170,372 0,100 -25,202 -71,284 -64,113 -182,198 -315,198 -37,0 -71,-4 -104,-11 76,-52 135,-117 175,-192 51,-92 75,-198 75,-310 0,-279 -189,-419 -380,-419 -106,0 -202,47 -260,139 -47,-96 -126,-139 -235,-139 -110,0 -225,58 -283,157 -47,81 -69,179 -69,280 0,138 46,292 138,397 122,140 285,190 467,190zm242 -160c-67,-47 -115,-108 -147,-177 -41,-85 -58,-182 -58,-280 0,-206 99,-316 205,-316 107,0 218,105 218,325 0,93 -19,186 -59,268 -36,71 -88,134 -159,180zm-242 69c-133,1 -233,-38 -321,-139 -83,-95 -121,-233 -121,-358 0,-91 19,-180 61,-251 37,-63 84,-94 128,-94 78,0 108,70 120,151 9,56 10,117 10,164 0,114 22,226 73,324 38,73 92,138 165,190 -35,8 -74,13 -115,13z"/>
 </g>
</svg>
