<?xml version="1.0" encoding="UTF-8"?>
<!DOCTYPE svg PUBLIC "-//W3C//DTD SVG 1.1//EN" "http://www.w3.org/Graphics/SVG/1.1/DTD/svg11.dtd">
<!-- Creator: CorelDRAW X8 -->
<svg xmlns="http://www.w3.org/2000/svg" xml:space="preserve" width="1648px" height="1486px" version="1.1" style="shape-rendering:geometricPrecision; text-rendering:geometricPrecision; image-rendering:optimizeQuality; fill-rule:evenodd; clip-rule:evenodd"
viewBox="0 0 1648 1486"
 xmlns:xlink="http://www.w3.org/1999/xlink">
 <defs>
  <style type="text/css">
   <![CDATA[
    .fil0 {fill:#898778;fill-rule:nonzero}
   ]]>
  </style>
 </defs>
 <g id="Layer_x0020_1">
  <metadata id="CorelCorpID_0Corel-Layer"/>
  <path class="fil0" d="M643 450c11,164 63,315 204,414 137,-89 208,-254 216,-414 13,-242 -105,-359 -216,-359 -113,0 -219,126 -204,359zm183 775c-76,0 -136,10 -176,25 -43,17 -65,40 -65,63 -1,23 21,46 64,63 40,16 101,26 177,26 63,0 111,-7 149,-18 58,-17 88,-44 87,-71 0,-27 -28,-53 -86,-70 -38,-11 -86,-18 -150,-18zm663 -66c-126,173 -286,270 -477,308 -59,12 -121,18 -186,19 -67,1 -148,-7 -213,-24 -118,-32 -177,-91 -177,-149 0,-59 61,-118 182,-149 56,-14 127,-23 208,-23 75,0 136,7 189,20 71,16 180,58 194,135 73,-55 130,-124 173,-202 38,-68 64,-143 81,-220 -100,97 -239,149 -382,149 -87,0 -165,-13 -234,-38 -71,25 -153,39 -242,39 -182,-1 -345,-50 -468,-190 -89,-103 -134,-250 -137,-384 -2,-105 20,-209 69,-293 58,-99 173,-157 283,-157 108,0 188,43 235,139 57,-92 154,-139 260,-139 189,0 394,150 379,450 -9,186 -93,365 -249,471 32,7 67,11 104,11 132,0 251,-85 314,-198 47,-82 71,-184 72,-284 1,-136 -44,-301 -170,-372 -32,-18 -32,-46 0,-64 43,-24 93,-15 133,11 120,76 176,211 200,353 14,80 18,162 18,238 0,198 -40,379 -159,543zm-884 -227c41,0 79,-4 115,-12 -159,-113 -224,-284 -237,-470 -4,-48 1,-132 -11,-208 -12,-81 -42,-151 -120,-151 -44,0 -91,31 -129,94 -43,75 -63,169 -60,265 3,120 41,252 121,344 88,101 188,139 321,138z"/>
 </g>
</svg>
