<?xml version="1.0" encoding="UTF-8"?>
<!DOCTYPE svg PUBLIC "-//W3C//DTD SVG 1.1//EN" "http://www.w3.org/Graphics/SVG/1.1/DTD/svg11.dtd">
<!-- Creator: CorelDRAW X8 -->
<svg xmlns="http://www.w3.org/2000/svg" xml:space="preserve" width="1648px" height="1486px" version="1.1" style="shape-rendering:geometricPrecision; text-rendering:geometricPrecision; image-rendering:optimizeQuality; fill-rule:evenodd; clip-rule:evenodd"
viewBox="0 0 1648 1486"
 xmlns:xlink="http://www.w3.org/1999/xlink">
 <defs>
  <style type="text/css">
   <![CDATA[
    .fil0 {fill:#2B2A29;fill-rule:nonzero}
   ]]>
  </style>
 </defs>
 <g id="Layer_x0020_1">
  <metadata id="CorelCorpID_0Corel-Layer"/>
  <path class="fil0" d="M605 1024c90,0 171,-14 242,-39 69,25 147,38 234,38 141,0 280,-50 382,-149 -17,77 -43,152 -81,220 -43,78 -100,147 -173,202 -14,-77 -123,-119 -194,-136 -53,-12 -114,-19 -189,-19 -81,0 -152,8 -208,23 -121,31 -182,90 -182,149 0,58 59,117 177,149 61,16 137,24 213,24 76,0 148,-7 216,-23 178,-41 326,-139 447,-305 119,-163 159,-344 159,-542 0,-76 -4,-158 -18,-239 -24,-141 -80,-276 -200,-353 -24,-15 -51,-24 -78,-24 -19,0 -38,4 -55,14 -16,8 -24,20 -24,32 0,11 8,23 24,32 125,70 170,232 170,367 0,98 -23,203 -72,289 -63,113 -182,198 -314,198 -37,0 -71,-4 -104,-11 172,-117 243,-301 250,-502 0,-279 -189,-419 -380,-419 -106,0 -202,47 -260,139 -47,-96 -126,-139 -235,-139 -110,0 -225,58 -283,157 -47,81 -69,179 -69,280 0,138 47,292 138,397 122,140 285,189 467,190zm221 378c-76,0 -137,-10 -177,-26 -42,-17 -64,-39 -64,-61 0,-34 38,-54 65,-65 40,-15 100,-25 176,-25 64,0 112,7 150,18 58,17 86,43 86,70 0,40 -56,62 -87,71 -38,11 -86,18 -149,18zm21 -538c-150,-106 -205,-280 -205,-457 0,-206 99,-316 205,-316 107,0 218,106 218,325 -6,174 -65,349 -218,448zm-242 69c-133,0 -233,-38 -321,-139 -83,-96 -121,-233 -121,-358 0,-91 19,-180 61,-251 37,-63 84,-94 128,-94 78,0 108,70 120,151 9,56 10,117 10,164 0,201 68,394 238,514 -35,8 -74,12 -115,13z"/>
 </g>
</svg>
