<?xml version="1.0" encoding="UTF-8"?>
<!DOCTYPE svg PUBLIC "-//W3C//DTD SVG 1.1//EN" "http://www.w3.org/Graphics/SVG/1.1/DTD/svg11.dtd">
<!-- Creator: CorelDRAW X8 -->
<svg xmlns="http://www.w3.org/2000/svg" xml:space="preserve" width="1648px" height="1486px" version="1.1" style="shape-rendering:geometricPrecision; text-rendering:geometricPrecision; image-rendering:optimizeQuality; fill-rule:evenodd; clip-rule:evenodd"
viewBox="0 0 1648 1486"
 xmlns:xlink="http://www.w3.org/1999/xlink">
 <defs>
  <style type="text/css">
   <![CDATA[
    .fil0 {fill:#009846;fill-rule:nonzero}
   ]]>
  </style>
 </defs>
 <g id="Layer_x0020_1">
  <metadata id="CorelCorpID_0Corel-Layer"/>
  <path class="fil0" d="M643 449c11,165 63,316 204,415 137,-90 208,-254 216,-415 13,-241 -105,-358 -216,-358 -113,0 -219,126 -204,358zm183 776c-76,0 -136,10 -176,25 -43,17 -65,40 -65,63 -1,23 21,46 64,63 40,16 101,26 177,26 63,0 111,-7 149,-18 59,-17 88,-44 87,-71 0,-27 -28,-53 -86,-70 -38,-11 -86,-18 -150,-18zm663 -67c-126,174 -286,271 -477,309 -59,12 -121,18 -186,19 -67,1 -148,-7 -213,-24 -118,-32 -177,-91 -177,-149 0,-59 61,-118 182,-149 56,-15 127,-23 208,-23 75,0 136,7 189,19 71,17 180,59 194,136 73,-55 130,-124 173,-202 38,-68 64,-143 81,-220 -100,97 -239,149 -382,149 -87,0 -165,-13 -234,-38 -71,25 -153,39 -242,39 -182,-1 -345,-50 -468,-190 -89,-103 -134,-250 -137,-385 -2,-104 19,-208 69,-292 58,-99 173,-157 283,-157 108,0 188,43 235,139 57,-92 154,-139 260,-139 189,0 394,149 379,449 -9,187 -93,366 -249,472 32,7 67,11 104,11 132,0 251,-85 314,-198 47,-82 71,-184 72,-285 1,-135 -44,-300 -170,-371 -32,-18 -32,-47 0,-64 43,-24 93,-15 133,10 120,77 176,212 200,353 14,81 18,163 18,239 0,198 -40,379 -159,542zm-884 -226c41,0 79,-4 115,-12 -159,-113 -224,-284 -237,-471 -4,-47 1,-132 -11,-207 -12,-81 -42,-151 -120,-151 -44,0 -91,30 -129,94 -43,75 -63,169 -60,264 3,121 41,253 121,345 88,101 188,138 321,138z"/>
 </g>
</svg>
