<?xml version="1.0" encoding="UTF-8"?>
<!DOCTYPE svg PUBLIC "-//W3C//DTD SVG 1.1//EN" "http://www.w3.org/Graphics/SVG/1.1/DTD/svg11.dtd">
<!-- Creator: CorelDRAW X8 -->
<svg xmlns="http://www.w3.org/2000/svg" xml:space="preserve" width="1187px" height="1024px" version="1.1" style="shape-rendering:geometricPrecision; text-rendering:geometricPrecision; image-rendering:optimizeQuality; fill-rule:evenodd; clip-rule:evenodd"
viewBox="0 0 1187 1024"
 xmlns:xlink="http://www.w3.org/1999/xlink">
 <defs>
  <style type="text/css">
   <![CDATA[
    .fil0 {fill:#2B2A29;fill-rule:nonzero}
   ]]>
  </style>
 </defs>
 <g id="Layer_x0020_1">
  <metadata id="CorelCorpID_0Corel-Layer"/>
  <path class="fil0" d="M816 1024c118,0 230,-51 298,-164 54,-87 73,-191 73,-292 0,-97 -19,-186 -59,-267 -103,-207 -301,-301 -527,-301 -191,0 -381,68 -497,225 -73,99 -104,212 -104,334 0,173 76,334 217,437 25,18 52,28 81,28 16,0 33,-4 49,-11 18,-9 29,-22 29,-36 0,-9 -5,-19 -18,-28 -131,-88 -196,-235 -196,-390 1,-106 29,-205 81,-283 82,-123 212,-185 358,-185 103,0 188,29 266,99 -127,16 -246,73 -324,177 -60,79 -91,179 -91,278 0,83 22,165 65,229 67,100 182,150 299,150zm0 -92c-64,0 -112,-38 -146,-89 -36,-54 -55,-124 -55,-198 0,-87 25,-173 77,-243 60,-79 150,-126 250,-126 59,87 82,190 82,293 0,90 -16,184 -64,262 -40,67 -89,101 -144,101z"/>
 </g>
</svg>
