<?xml version="1.0" encoding="UTF-8"?>
<!DOCTYPE svg PUBLIC "-//W3C//DTD SVG 1.1//EN" "http://www.w3.org/Graphics/SVG/1.1/DTD/svg11.dtd">
<!-- Creator: CorelDRAW X8 -->
<svg xmlns="http://www.w3.org/2000/svg" xml:space="preserve" width="1514px" height="1486px" version="1.1" style="shape-rendering:geometricPrecision; text-rendering:geometricPrecision; image-rendering:optimizeQuality; fill-rule:evenodd; clip-rule:evenodd"
viewBox="0 0 1514 1486"
 xmlns:xlink="http://www.w3.org/1999/xlink">
 <defs>
  <style type="text/css">
   <![CDATA[
    .fil0 {fill:#009846;fill-rule:nonzero}
   ]]>
  </style>
 </defs>
 <g id="Layer_x0020_1">
  <metadata id="CorelCorpID_0Corel-Layer"/>
  <path class="fil0" d="M806 1225c-76,0 -137,10 -177,25 -43,17 -64,40 -65,63 0,23 21,46 65,63 40,16 100,26 177,26 63,0 110,-7 149,-18 58,-17 87,-44 87,-71 0,-27 -29,-53 -86,-70 -38,-11 -86,-18 -150,-18zm136 -949c-100,0 -190,46 -250,126 -52,70 -77,156 -77,243 0,73 19,144 55,198 33,49 82,88 144,89 56,1 105,-33 146,-101 44,-72 63,-161 64,-250 2,-108 -21,-214 -82,-305zm118 -80c319,66 472,354 453,665 -13,210 -111,408 -282,516 -70,45 -158,74 -239,90 -59,12 -121,18 -186,19 -67,1 -149,-7 -213,-24 -119,-32 -178,-91 -178,-149 1,-59 62,-118 183,-149 56,-15 127,-23 208,-23 75,0 136,7 189,19 71,17 179,59 194,135 107,-102 163,-268 167,-434 5,-205 -64,-415 -209,-517 29,73 41,153 40,237 -1,99 -24,199 -73,279 -69,114 -181,165 -300,163 -118,-1 -229,-48 -297,-149 -43,-64 -65,-146 -65,-229 0,-99 31,-199 91,-278 78,-104 197,-162 324,-178 -79,-70 -167,-100 -271,-98 -158,1 -279,74 -353,185 -52,78 -80,177 -81,283 0,155 65,301 196,390 31,21 20,49 -11,64 -44,20 -91,11 -130,-18 -143,-103 -219,-264 -217,-439 1,-140 45,-259 119,-350 106,-131 276,-205 476,-206 186,-1 353,61 465,196z"/>
 </g>
</svg>
