<?xml version="1.0" encoding="UTF-8"?>
<!DOCTYPE svg PUBLIC "-//W3C//DTD SVG 1.1//EN" "http://www.w3.org/Graphics/SVG/1.1/DTD/svg11.dtd">
<!-- Creator: CorelDRAW X8 -->
<svg xmlns="http://www.w3.org/2000/svg" xml:space="preserve" width="2008px" height="1486px" version="1.1" style="shape-rendering:geometricPrecision; text-rendering:geometricPrecision; image-rendering:optimizeQuality; fill-rule:evenodd; clip-rule:evenodd"
viewBox="0 0 2008 1487"
 xmlns:xlink="http://www.w3.org/1999/xlink">
 <defs>
  <style type="text/css">
   <![CDATA[
    .fil0 {fill:#2B2A29;fill-rule:nonzero}
   ]]>
  </style>
 </defs>
 <g id="Layer_x0020_1">
  <metadata id="CorelCorpID_0Corel-Layer"/>
  <path class="fil0" d="M1653 1356c192,-104 355,-308 355,-535 0,-126 -56,-234 -171,-294 68,-45 108,-120 108,-202 0,-108 -66,-194 -157,-247 -103,-60 -235,-78 -349,-78 -102,0 -207,9 -303,42 -72,-29 -160,-41 -236,-42 -197,0 -384,100 -476,277 -46,86 -70,188 -70,293 1,165 60,340 207,429 25,15 53,25 81,25 19,0 38,-4 56,-14 14,-10 21,-21 21,-32 0,-12 -9,-24 -26,-33 -129,-68 -176,-238 -176,-375 0,-96 22,-190 63,-268 60,-117 184,-211 320,-211 36,0 70,5 102,13 -160,111 -242,303 -242,493 0,91 19,181 58,251 64,118 176,176 308,176 133,0 246,-57 311,-176 38,-71 58,-159 58,-251 0,-189 -80,-377 -236,-489 59,-15 119,-16 180,-16 77,0 166,10 232,49 66,39 111,108 111,184 0,39 -10,78 -33,109 -27,35 -58,52 -103,52 -44,0 -82,19 -83,44l0 1c0,25 35,45 79,46 47,0 84,10 121,41 57,49 79,131 79,203 0,189 -104,347 -259,446 -152,95 -347,138 -525,138 -285,0 -581,-93 -751,-335 -95,-135 -144,-309 -144,-472 0,-204 73,-411 255,-522 15,-9 22,-20 22,-31 0,-12 -9,-24 -26,-33 -15,-8 -35,-12 -55,-12 -22,0 -44,5 -60,15 -207,125 -299,350 -299,583 0,192 62,389 182,540 208,264 553,349 876,349 201,0 417,-33 595,-131zm-527 -423c-70,0 -120,-53 -152,-111 -34,-62 -52,-142 -52,-225 0,-162 70,-340 204,-436 138,96 206,272 207,436 0,83 -18,162 -52,224 -31,58 -85,112 -155,112z"/>
 </g>
</svg>
