<?xml version="1.0" encoding="UTF-8"?>
<!DOCTYPE svg PUBLIC "-//W3C//DTD SVG 1.1//EN" "http://www.w3.org/Graphics/SVG/1.1/DTD/svg11.dtd">
<!-- Creator: CorelDRAW X8 -->
<svg xmlns="http://www.w3.org/2000/svg" xml:space="preserve" width="1620px" height="1024px" version="1.1" style="shape-rendering:geometricPrecision; text-rendering:geometricPrecision; image-rendering:optimizeQuality; fill-rule:evenodd; clip-rule:evenodd"
viewBox="0 0 1620 1024"
 xmlns:xlink="http://www.w3.org/1999/xlink">
 <defs>
  <style type="text/css">
   <![CDATA[
    .fil0 {fill:#009846;fill-rule:nonzero}
   ]]>
  </style>
 </defs>
 <g id="Layer_x0020_1">
  <metadata id="CorelCorpID_0Corel-Layer"/>
  <path class="fil0" d="M1176 949c15,-18 48,-28 80,-26 24,1 45,10 68,10 91,0 135,-101 134,-180 -2,-65 -23,-109 -55,-138 -34,-30 -73,-38 -116,-39 -45,0 -80,-21 -79,-46 1,-25 38,-45 83,-44 45,0 76,-17 103,-52 21,-28 32,-66 33,-102 2,-79 -43,-151 -111,-191 -57,-34 -148,-49 -236,-51 -65,-1 -129,6 -176,18 156,112 235,300 236,489 0,92 -20,180 -59,250 -65,119 -178,177 -310,177 -131,0 -243,-58 -308,-176 -38,-70 -58,-160 -58,-251 0,-191 83,-382 241,-494 -31,-8 -65,-12 -101,-12 -135,0 -259,94 -320,211 -40,78 -62,171 -62,268 0,137 46,307 176,374 32,17 36,46 4,65 -43,26 -95,15 -136,-10 -147,-89 -207,-265 -207,-429 0,-106 24,-207 69,-294 92,-176 280,-277 476,-276 76,0 165,12 236,42 96,-33 201,-42 302,-42 115,0 247,17 350,77 92,54 157,145 157,252 0,82 -40,153 -108,197 90,46 136,124 138,227 3,172 -134,270 -296,271 -29,0 -58,-3 -86,-9 -28,-6 -94,-28 -62,-66zm-404 -788c-136,96 -204,274 -204,436 0,83 17,163 51,225 31,58 82,111 152,111 71,0 123,-54 155,-112 34,-62 51,-141 51,-224 0,-164 -68,-340 -205,-436z"/>
 </g>
</svg>
