<?xml version="1.0" encoding="UTF-8"?>
<!DOCTYPE svg PUBLIC "-//W3C//DTD SVG 1.1//EN" "http://www.w3.org/Graphics/SVG/1.1/DTD/svg11.dtd">
<!-- Creator: CorelDRAW X8 -->
<svg xmlns="http://www.w3.org/2000/svg" xml:space="preserve" width="1620px" height="1024px" version="1.1" style="shape-rendering:geometricPrecision; text-rendering:geometricPrecision; image-rendering:optimizeQuality; fill-rule:evenodd; clip-rule:evenodd"
viewBox="0 0 1620 1024"
 xmlns:xlink="http://www.w3.org/1999/xlink">
 <defs>
  <style type="text/css">
   <![CDATA[
    .fil0 {fill:#434242;fill-rule:nonzero}
   ]]>
  </style>
 </defs>
 <g id="Layer_x0020_1">
  <metadata id="CorelCorpID_0Corel-Layer"/>
  <path class="fil0" d="M1324 1024c160,-1 296,-100 296,-268 0,-104 -45,-182 -138,-230 68,-44 108,-117 108,-199 0,-107 -65,-196 -157,-250 -103,-60 -238,-77 -353,-77 -101,0 -203,9 -299,42 -73,-31 -158,-42 -236,-42 -195,0 -384,101 -476,276 -46,87 -69,188 -69,294 0,164 60,340 207,429 25,15 53,25 81,25 19,0 38,-5 55,-15 15,-9 22,-20 22,-31 0,-13 -9,-25 -26,-34 -130,-67 -176,-237 -176,-374 0,-97 22,-190 62,-268 60,-117 185,-211 320,-211 36,0 70,4 101,12 -158,112 -241,303 -241,494 0,91 20,181 58,251 65,118 177,176 308,176 132,0 245,-58 310,-177 39,-70 59,-158 59,-250 -1,-189 -80,-377 -236,-489 57,-14 117,-19 176,-18 88,1 179,17 236,51 67,39 111,109 111,186 0,37 -10,77 -33,107 -27,35 -58,52 -103,52 -26,0 -83,10 -83,44 0,35 53,46 79,46 43,1 82,9 116,39 39,35 55,90 55,141 0,78 -44,177 -134,177 -25,0 -49,-10 -76,-10 -29,0 -58,10 -72,26 -6,7 -9,14 -9,20 0,26 48,41 71,46 28,6 57,9 86,9zm-553 -91c-70,0 -121,-53 -152,-111 -34,-62 -51,-142 -51,-225 0,-162 68,-340 204,-436 137,96 205,272 205,436 0,83 -17,162 -51,224 -32,58 -84,112 -155,112z"/>
 </g>
</svg>
