<?xml version="1.0" encoding="UTF-8"?>
<!DOCTYPE svg PUBLIC "-//W3C//DTD SVG 1.1//EN" "http://www.w3.org/Graphics/SVG/1.1/DTD/svg11.dtd">
<!-- Creator: CorelDRAW X8 -->
<svg xmlns="http://www.w3.org/2000/svg" xml:space="preserve" width="1514px" height="1486px" version="1.1" style="shape-rendering:geometricPrecision; text-rendering:geometricPrecision; image-rendering:optimizeQuality; fill-rule:evenodd; clip-rule:evenodd"
viewBox="0 0 1514 1486"
 xmlns:xlink="http://www.w3.org/1999/xlink">
 <defs>
  <style type="text/css">
   <![CDATA[
    .fil0 {fill:#434242;fill-rule:nonzero}
   ]]>
  </style>
 </defs>
 <g id="Layer_x0020_1">
  <metadata id="CorelCorpID_0Corel-Layer"/>
  <path class="fil0" d="M816 932c-63,0 -113,-39 -146,-89 -36,-54 -56,-125 -56,-198 0,-87 25,-173 78,-243 59,-80 150,-126 250,-126 59,87 82,189 82,292 0,91 -16,184 -64,263 -41,67 -89,101 -144,101zm415 445c200,-127 284,-337 284,-563 0,-291 -154,-556 -455,-618 -111,-134 -269,-196 -454,-196 -182,0 -370,61 -488,206 -82,102 -119,222 -119,353 0,172 76,334 217,436 25,18 53,29 81,29 16,0 34,-3 49,-11 19,-8 30,-22 30,-36 0,-9 -5,-19 -19,-28 -130,-89 -196,-235 -196,-390 1,-106 29,-205 81,-283 85,-127 213,-185 364,-185 98,0 184,30 261,98 -127,16 -246,74 -325,178 -59,79 -90,179 -90,278 0,83 21,165 64,229 70,103 183,149 300,149 116,0 229,-51 298,-163 52,-86 73,-189 73,-289 0,-80 -12,-157 -40,-227 140,99 208,272 208,470 0,161 -47,367 -166,481 -15,-76 -123,-118 -194,-135 -53,-12 -114,-19 -189,-19 -82,0 -152,8 -208,23 -121,31 -184,90 -184,149 0,58 60,117 178,149 60,16 138,24 214,24 69,0 143,-7 214,-24 75,-17 148,-45 211,-85zm-426 25c-165,0 -242,-45 -242,-89 0,-45 86,-88 242,-88 155,0 237,46 237,88 0,42 -74,89 -237,89z"/>
 </g>
</svg>
