<?xml version="1.0" encoding="UTF-8"?>
<!DOCTYPE svg PUBLIC "-//W3C//DTD SVG 1.1//EN" "http://www.w3.org/Graphics/SVG/1.1/DTD/svg11.dtd">
<!-- Creator: CorelDRAW X8 -->
<svg xmlns="http://www.w3.org/2000/svg" xml:space="preserve" width="1092px" height="1024px" version="1.1" style="shape-rendering:geometricPrecision; text-rendering:geometricPrecision; image-rendering:optimizeQuality; fill-rule:evenodd; clip-rule:evenodd"
viewBox="0 0 1092 1024"
 xmlns:xlink="http://www.w3.org/1999/xlink">
 <defs>
  <style type="text/css">
   <![CDATA[
    .fil0 {fill:#434242;fill-rule:nonzero}
   ]]>
  </style>
 </defs>
 <g id="Layer_x0020_1">
  <metadata id="CorelCorpID_0Corel-Layer"/>
  <path class="fil0" d="M739 1024c23,0 47,-6 67,-16 178,-92 286,-273 286,-472 0,-304 -245,-536 -546,-536 -300,0 -546,231 -546,536 0,200 111,383 289,473 19,10 41,15 63,15 21,0 41,-5 58,-16 14,-9 20,-19 20,-30 0,-13 -10,-26 -27,-34 -163,-81 -240,-240 -240,-408 1,-219 136,-445 383,-445 245,0 382,220 382,445 0,166 -76,328 -239,408 -17,8 -27,21 -27,34 0,11 6,21 20,30 17,11 37,16 57,16z"/>
 </g>
</svg>
