<?xml version="1.0" encoding="UTF-8"?>
<!DOCTYPE svg PUBLIC "-//W3C//DTD SVG 1.1//EN" "http://www.w3.org/Graphics/SVG/1.1/DTD/svg11.dtd">
<!-- Creator: CorelDRAW X8 -->
<svg xmlns="http://www.w3.org/2000/svg" xml:space="preserve" width="680px" height="600px" version="1.1" style="shape-rendering:geometricPrecision; text-rendering:geometricPrecision; image-rendering:optimizeQuality; fill-rule:evenodd; clip-rule:evenodd"
viewBox="0 0 680 600"
 xmlns:xlink="http://www.w3.org/1999/xlink">
 <defs>
  <style type="text/css">
   <![CDATA[
    .fil0 {fill:#434242;fill-rule:nonzero}
   ]]>
  </style>
 </defs>
 <g id="Layer_x0020_1">
  <metadata id="CorelCorpID_0Corel-Layer"/>
  <path class="fil0" d="M455 600c19,0 38,-4 52,-11 105,-53 173,-158 173,-275 0,-189 -159,-314 -340,-314 -180,0 -340,125 -340,314 0,119 69,223 175,276 13,7 31,10 49,10 17,0 34,-3 46,-11 9,-6 13,-12 13,-18 0,-8 -7,-17 -18,-22 -93,-45 -142,-134 -142,-235 0,-126 81,-255 217,-255 136,0 217,130 217,255 0,101 -50,191 -142,235 -11,6 -18,14 -18,22 0,6 4,12 13,18 12,8 29,11 45,11z"/>
 </g>
</svg>
