<?xml version="1.0" encoding="UTF-8"?>
<!DOCTYPE svg PUBLIC "-//W3C//DTD SVG 1.1//EN" "http://www.w3.org/Graphics/SVG/1.1/DTD/svg11.dtd">
<!-- Creator: CorelDRAW X8 -->
<svg xmlns="http://www.w3.org/2000/svg" xml:space="preserve" width="680px" height="600px" version="1.1" style="shape-rendering:geometricPrecision; text-rendering:geometricPrecision; image-rendering:optimizeQuality; fill-rule:evenodd; clip-rule:evenodd"
viewBox="0 0 680 600"
 xmlns:xlink="http://www.w3.org/1999/xlink">
 <defs>
  <style type="text/css">
   <![CDATA[
    .fil0 {fill:#009846;fill-rule:nonzero}
   ]]>
  </style>
 </defs>
 <g id="Layer_x0020_1">
  <metadata id="CorelCorpID_0Corel-Layer"/>
  <path class="fil0" d="M265 549c20,10 26,27 5,40 -25,16 -69,14 -95,1 -107,-53 -176,-162 -175,-282 2,-187 161,-308 340,-308 178,0 336,123 340,308 3,121 -66,227 -173,281 -27,13 -71,16 -97,0 -21,-13 -15,-30 5,-40 94,-45 144,-138 142,-241 -3,-123 -83,-249 -217,-249 -136,0 -217,123 -217,249 0,101 49,197 142,241z"/>
 </g>
</svg>
