<?xml version="1.0" encoding="UTF-8"?>
<!DOCTYPE svg PUBLIC "-//W3C//DTD SVG 1.1//EN" "http://www.w3.org/Graphics/SVG/1.1/DTD/svg11.dtd">
<!-- Creator: CorelDRAW X8 -->
<svg xmlns="http://www.w3.org/2000/svg" xml:space="preserve" width="2684px" height="1486px" version="1.1" style="shape-rendering:geometricPrecision; text-rendering:geometricPrecision; image-rendering:optimizeQuality; fill-rule:evenodd; clip-rule:evenodd"
viewBox="0 0 2684 1486"
 xmlns:xlink="http://www.w3.org/1999/xlink">
 <defs>
  <style type="text/css">
   <![CDATA[
    .fil0 {fill:#009846;fill-rule:nonzero}
   ]]>
  </style>
 </defs>
 <g id="Layer_x0020_1">
  <metadata id="CorelCorpID_0Corel-Layer"/>
  <path class="fil0" d="M764 944c32,15 39,44 8,64 -36,22 -86,19 -122,1 -180,-92 -290,-281 -289,-483 3,-302 246,-526 546,-526 298,0 540,228 546,526 5,203 -105,388 -286,481 -37,20 -87,25 -124,1 -32,-20 -24,-49 7,-64 166,-82 243,-248 239,-418 -4,-217 -138,-435 -382,-435 -247,1 -382,215 -382,435 -1,167 76,337 239,418zm803 -418c2,-306 250,-526 545,-526 356,0 581,268 572,614 -7,216 -91,382 -221,510 -296,287 -801,372 -1195,361 -314,-8 -678,-84 -932,-268 -198,-144 -333,-353 -336,-648 -2,-217 93,-426 302,-555 31,-19 83,-18 115,-2 32,17 35,45 3,65 -176,109 -257,296 -256,492 2,254 105,438 261,566 218,179 546,253 843,261 383,11 849,-66 1096,-358 92,-109 150,-248 155,-424 8,-262 -118,-523 -407,-523 -247,1 -381,215 -382,435 -1,167 76,337 240,418 31,15 39,44 7,64 -35,22 -86,19 -122,1 -180,-92 -290,-281 -288,-483z"/>
 </g>
</svg>
