<?xml version="1.0" encoding="UTF-8" standalone="no"?>
<!-- Creator: CorelDRAW X8 -->

<svg
   xmlns:dc="http://purl.org/dc/elements/1.1/"
   xmlns:cc="http://creativecommons.org/ns#"
   xmlns:rdf="http://www.w3.org/1999/02/22-rdf-syntax-ns#"
   xmlns:svg="http://www.w3.org/2000/svg"
   xmlns="http://www.w3.org/2000/svg"
   xmlns:sodipodi="http://sodipodi.sourceforge.net/DTD/sodipodi-0.dtd"
   xmlns:inkscape="http://www.inkscape.org/namespaces/inkscape"
   xml:space="preserve"
   width="1635px"
   height="868px"
   version="1.1"
   style="shape-rendering:geometricPrecision; text-rendering:geometricPrecision; image-rendering:optimizeQuality; fill-rule:evenodd; clip-rule:evenodd"
   viewBox="0 0 1635 868"
   id="svg10"
   sodipodi:docname="റ്റ്ര_small.svg"
   inkscape:version="0.92.3 (2405546, 2018-03-11)"><metadata
   id="metadata14"><rdf:RDF><cc:Work
       rdf:about=""><dc:format>image/svg+xml</dc:format><dc:type
         rdf:resource="http://purl.org/dc/dcmitype/StillImage" /></cc:Work></rdf:RDF></metadata><sodipodi:namedview
   pagecolor="#ffffff"
   bordercolor="#666666"
   borderopacity="1"
   objecttolerance="10"
   gridtolerance="10"
   guidetolerance="10"
   inkscape:pageopacity="0"
   inkscape:pageshadow="2"
   inkscape:window-width="3200"
   inkscape:window-height="1685"
   id="namedview12"
   showgrid="false"
   inkscape:zoom="0.2718894"
   inkscape:cx="368.78814"
   inkscape:cy="434"
   inkscape:window-x="0"
   inkscape:window-y="0"
   inkscape:window-maximized="1"
   inkscape:current-layer="Layer_x0020_1" />
 <defs
   id="defs4">
  <style
   type="text/css"
   id="style2">
   <![CDATA[
    .fil0 {fill:#898778;fill-rule:nonzero}
   ]]>
  </style>
 </defs>
 <g
   id="Layer_x0020_1">
  <metadata
   id="CorelCorpID_0Corel-Layer" />
  <path
   class="fil0"
   d="m 1283,0 c 212,1 358,146 352,359 -4,117 -48,216 -133,297 C 1331,816 1046,868 814,868 612,868 369,827 202,710 72,619 1,493 0,333 -1,196 65,80 182,10 c 23,-13 68,-13 92,-1 20,10 22,28 2,40 -102,61 -153,167 -153,284 1,133 52,245 156,328 143,113 356,149 535,149 208,0 464,-45 604,-206 61,-69 90,-153 93,-245 5,-142 -65,-298 -228,-300 -137,-2 -220,122 -220,249 -1,101 49,197 142,241 20,10 26,27 5,40 -26,16 -69,14 -96,1 C 1007,537 939,428 940,308 941,119 1103,-1 1283,0 Z M 487,589 c -26,16 -70,14 -96,1 C 284,537 216,428 217,308 218,121 377,0 557,0 c 178,0 336,123 340,308 2,121 -66,227 -173,281 -27,13 -71,16 -98,0 -20,-13 -15,-30 5,-40 C 726,504 775,411 773,308 771,185 691,59 557,59 421,59 340,182 340,308 c -1,101 49,197 142,241 20,10 26,27 5,40 z"
   id="path7"
   inkscape:connector-curvature="0"
   style="fill:#898778;fill-rule:nonzero"
   sodipodi:nodetypes="cccscccscccsccccccccccccscccccsccc" />
 </g>
</svg>