<?xml version="1.0" encoding="UTF-8"?>
<!DOCTYPE svg PUBLIC "-//W3C//DTD SVG 1.1//EN" "http://www.w3.org/Graphics/SVG/1.1/DTD/svg11.dtd">
<!-- Creator: CorelDRAW X8 -->
<svg xmlns="http://www.w3.org/2000/svg" xml:space="preserve" width="2684px" height="1486px" version="1.1" style="shape-rendering:geometricPrecision; text-rendering:geometricPrecision; image-rendering:optimizeQuality; fill-rule:evenodd; clip-rule:evenodd"
viewBox="0 0 2684 1486"
 xmlns:xlink="http://www.w3.org/1999/xlink">
 <defs>
  <style type="text/css">
   <![CDATA[
    .fil0 {fill:#CC6633;fill-rule:nonzero}
   ]]>
  </style>
 </defs>
 <g id="Layer_x0020_1">
  <metadata id="CorelCorpID_0Corel-Layer"/>
  <path class="fil0" d="M764 944c18,9 28,21 28,33 0,11 -6,22 -20,31 -18,11 -40,16 -61,16 -22,-1 -43,-6 -61,-15 -180,-92 -290,-281 -289,-483 3,-302 246,-526 546,-526 298,0 540,228 546,526 5,203 -105,388 -286,481 -19,10 -42,17 -64,17 -21,0 -42,-5 -60,-16 -14,-9 -21,-20 -20,-31 0,-12 10,-24 27,-33 166,-82 243,-248 239,-418 -4,-217 -138,-435 -382,-435 -247,1 -382,215 -382,435 -1,167 76,337 239,418zm803 -418c-2,202 108,391 288,483 21,10 46,16 70,15 18,-1 37,-6 52,-16 14,-9 21,-21 20,-32 -1,-12 -10,-24 -27,-32 -164,-81 -241,-251 -240,-418 1,-220 135,-434 382,-435 289,0 415,261 407,523 -5,176 -63,315 -155,424 -247,292 -713,369 -1096,358 -297,-8 -625,-82 -843,-261 -156,-128 -259,-312 -261,-566 -1,-196 80,-383 256,-492 15,-10 23,-21 22,-33 0,-11 -9,-23 -25,-32 -18,-9 -41,-13 -63,-12 -19,1 -38,6 -52,14 -209,129 -304,338 -302,555 3,295 138,504 336,648 254,184 618,260 932,268 394,11 899,-74 1195,-361 130,-128 214,-294 221,-510 9,-346 -216,-614 -572,-614 -295,0 -543,220 -545,526z"/>
 </g>
</svg>
