<?xml version="1.0" encoding="UTF-8"?>
<!DOCTYPE svg PUBLIC "-//W3C//DTD SVG 1.1//EN" "http://www.w3.org/Graphics/SVG/1.1/DTD/svg11.dtd">
<!-- Creator: CorelDRAW X8 -->
<svg xmlns="http://www.w3.org/2000/svg" xml:space="preserve" width="2684px" height="1486px" version="1.1" style="shape-rendering:geometricPrecision; text-rendering:geometricPrecision; image-rendering:optimizeQuality; fill-rule:evenodd; clip-rule:evenodd"
viewBox="0 0 2684 1486"
 xmlns:xlink="http://www.w3.org/1999/xlink">
 <defs>
  <style type="text/css">
   <![CDATA[
    .fil0 {fill:#CC6633;fill-rule:nonzero}
   ]]>
  </style>
 </defs>
 <g id="Layer_x0020_1">
  <metadata id="CorelCorpID_0Corel-Layer"/>
  <path class="fil0" d="M764 944c18,9 27,21 28,33 0,11 -6,22 -20,31 -18,12 -40,16 -61,16 -22,0 -43,-6 -61,-15 -180,-92 -291,-281 -289,-483 3,-301 246,-526 546,-526 298,0 540,228 546,526 5,203 -105,388 -286,482 -19,10 -42,16 -64,16 -21,0 -42,-4 -60,-16 -14,-9 -21,-20 -20,-31 0,-12 9,-24 27,-33 166,-82 243,-248 239,-418 -4,-217 -138,-435 -382,-435 -247,1 -382,216 -382,435 -1,168 76,338 239,418zm803 -418c-2,202 108,391 288,483 21,10 46,16 70,15 18,-1 37,-6 52,-16 15,-9 21,-21 20,-32 -1,-12 -10,-23 -27,-32 -164,-80 -240,-250 -240,-418 1,-219 135,-434 382,-435 289,0 415,261 407,523 -5,176 -63,315 -155,424 -247,292 -713,369 -1096,358 -297,-8 -625,-81 -843,-260 -157,-129 -260,-313 -261,-567 -1,-195 80,-383 256,-492 15,-9 23,-21 22,-32 0,-12 -9,-24 -25,-32 -18,-10 -41,-14 -63,-13 -19,1 -38,6 -52,15 -209,128 -304,337 -302,554 3,295 138,504 336,648 254,184 618,260 932,269 394,10 900,-74 1195,-362 130,-127 215,-294 221,-510 9,-346 -216,-614 -572,-614 -295,0 -543,220 -545,526z"/>
 </g>
</svg>
