<?xml version="1.0" encoding="UTF-8"?>
<!DOCTYPE svg PUBLIC "-//W3C//DTD SVG 1.1//EN" "http://www.w3.org/Graphics/SVG/1.1/DTD/svg11.dtd">
<!-- Creator: CorelDRAW X8 -->
<svg xmlns="http://www.w3.org/2000/svg" xml:space="preserve" width="1257px" height="1000px" version="1.1" style="shape-rendering:geometricPrecision; text-rendering:geometricPrecision; image-rendering:optimizeQuality; fill-rule:evenodd; clip-rule:evenodd"
viewBox="0 0 1257 1000"
 xmlns:xlink="http://www.w3.org/1999/xlink">
 <defs>
  <style type="text/css">
   <![CDATA[
    .fil0 {fill:#669933;fill-rule:nonzero}
   ]]>
  </style>
 </defs>
 <g id="Layer_x0020_1">
  <metadata id="CorelCorpID_0Corel-Layer"/>
  <path class="fil0" d="M1094 46c0,-26 36,-46 81,-46 45,0 82,20 82,46l0 909c0,25 -37,45 -82,45l-1093 0c-26,0 -82,-12 -82,-49l0 -600c0,-234 224,-350 431,-351 212,-1 422,114 422,351l0 262c0,26 -36,46 -81,46l-609 0 0 250 931 0 0 -863zm-404 522l0 -217c0,-154 -106,-260 -257,-260 -149,1 -270,105 -270,260l0 217 527 0z"/>
 </g>
</svg>
