<?xml version="1.0" encoding="UTF-8"?>
<!DOCTYPE svg PUBLIC "-//W3C//DTD SVG 1.1//EN" "http://www.w3.org/Graphics/SVG/1.1/DTD/svg11.dtd">
<!-- Creator: CorelDRAW X8 -->
<svg xmlns="http://www.w3.org/2000/svg" xml:space="preserve" width="1167px" height="1412px" version="1.1" style="shape-rendering:geometricPrecision; text-rendering:geometricPrecision; image-rendering:optimizeQuality; fill-rule:evenodd; clip-rule:evenodd"
viewBox="0 0 1167 1412"
 xmlns:xlink="http://www.w3.org/1999/xlink">
 <defs>
  <style type="text/css">
   <![CDATA[
    .fil0 {fill:#CC6633;fill-rule:nonzero}
   ]]>
  </style>
 </defs>
 <g id="Layer_x0020_1">
  <metadata id="CorelCorpID_0Corel-Layer"/>
  <path class="fil0" d="M65 212c113,-177 341,-211 535,-212 143,-1 296,22 408,88 84,49 147,139 147,239 1,94 -57,166 -139,207 89,45 155,120 151,234 -8,217 -234,274 -412,274l-458 -1c-72,0 -133,38 -133,116 0,76 62,117 133,117l737 0c45,0 82,31 82,69 0,38 -37,69 -82,69l-737 0c-147,0 -296,-62 -297,-229 -1,-161 155,-232 297,-232l458 0c122,0 244,-43 249,-183 3,-67 -28,-122 -77,-155 -40,-26 -79,-33 -126,-33 -45,0 -81,-21 -81,-46 0,-25 36,-46 81,-46 49,0 100,-10 139,-43 36,-31 53,-74 53,-118 0,-68 -39,-139 -103,-177 -75,-44 -186,-60 -290,-59 -97,0 -198,11 -279,52 -67,34 -135,88 -149,173 44,-37 98,-54 155,-56 77,-3 158,18 218,68 58,47 93,118 93,209 0,71 -30,136 -78,184 -56,56 -139,90 -233,91 -99,1 -190,-29 -253,-108 -51,-64 -75,-153 -74,-254 1,-83 20,-168 65,-238zm109 325c0,123 77,182 153,180 74,-2 148,-63 148,-180 0,-122 -74,-182 -148,-181 -76,2 -153,62 -153,181z"/>
 </g>
</svg>
