<?xml version="1.0" encoding="UTF-8"?>
<!DOCTYPE svg PUBLIC "-//W3C//DTD SVG 1.1//EN" "http://www.w3.org/Graphics/SVG/1.1/DTD/svg11.dtd">
<!-- Creator: CorelDRAW X8 -->
<svg xmlns="http://www.w3.org/2000/svg" xml:space="preserve" width="2234px" height="1412px" version="1.1" style="shape-rendering:geometricPrecision; text-rendering:geometricPrecision; image-rendering:optimizeQuality; fill-rule:evenodd; clip-rule:evenodd"
viewBox="0 0 2234 1412"
 xmlns:xlink="http://www.w3.org/1999/xlink">
 <defs>
  <style type="text/css">
   <![CDATA[
    .fil0 {fill:#434242;fill-rule:nonzero}
   ]]>
  </style>
 </defs>
 <g id="Layer_x0020_1">
  <metadata id="CorelCorpID_0Corel-Layer"/>
  <path class="fil0" d="M2104 1412c45,0 82,-31 82,-69 0,-38 -37,-69 -82,-69l-1806 0c-71,0 -133,-41 -133,-116 0,-79 62,-116 133,-116l1305 0c197,0 426,-47 545,-218 63,-90 86,-208 86,-319 0,-126 -28,-262 -111,-360 -87,-104 -215,-145 -348,-145 -119,0 -240,41 -320,132 -76,-89 -176,-132 -291,-132 -114,0 -227,45 -302,134 -91,-104 -241,-134 -375,-134 -126,0 -253,28 -350,112 -100,86 -137,209 -137,337 0,74 14,144 44,202 49,96 139,161 281,161 81,0 162,-27 221,-75 62,-52 94,-124 95,-200 0,-76 -30,-157 -93,-209 -53,-44 -129,-67 -208,-67 -66,0 -121,16 -171,61 5,-73 50,-133 107,-174 60,-44 138,-58 211,-58 196,0 302,111 302,306l0 372c0,25 36,45 81,45 45,0 81,-20 81,-45l0 -401c0,-136 65,-275 213,-275 149,0 211,143 211,274l0 401c0,25 36,45 81,45 45,0 82,-20 82,-45l0 -401c0,-158 78,-275 237,-275 81,0 149,30 201,92 73,87 97,211 96,322 0,98 -21,208 -75,286 -94,135 -241,160 -394,160l-1305 0c-141,0 -297,71 -297,230 0,169 151,231 297,231l1806 0zm-1784 -695c-74,0 -142,-60 -142,-180 0,-92 50,-180 151,-180 74,0 149,61 149,180 0,94 -59,180 -158,180z"/>
 </g>
</svg>
