<?xml version="1.0" encoding="UTF-8"?>
<!DOCTYPE svg PUBLIC "-//W3C//DTD SVG 1.1//EN" "http://www.w3.org/Graphics/SVG/1.1/DTD/svg11.dtd">
<!-- Creator: CorelDRAW X8 -->
<svg xmlns="http://www.w3.org/2000/svg" xml:space="preserve" width="2234px" height="1412px" version="1.1" style="shape-rendering:geometricPrecision; text-rendering:geometricPrecision; image-rendering:optimizeQuality; fill-rule:evenodd; clip-rule:evenodd"
viewBox="0 0 2234 1412"
 xmlns:xlink="http://www.w3.org/1999/xlink">
 <defs>
  <style type="text/css">
   <![CDATA[
    .fil0 {fill:#009846;fill-rule:nonzero}
   ]]>
  </style>
 </defs>
 <g id="Layer_x0020_1">
  <metadata id="CorelCorpID_0Corel-Layer"/>
  <path class="fil0" d="M546 737c-59,48 -140,75 -221,75 -142,0 -232,-65 -281,-161 -39,-76 -51,-172 -40,-271 13,-118 61,-206 133,-268 86,-74 207,-110 342,-112 137,-2 289,26 383,134 76,-90 186,-135 302,-134 110,1 214,42 291,132 81,-92 204,-133 324,-132 151,1 268,54 344,145 83,99 111,234 111,360 0,111 -23,229 -86,319 -119,171 -348,218 -545,218l-1305 0c-71,0 -133,37 -133,116 0,75 62,116 133,116l1779 0c45,0 82,31 82,69 0,38 -37,69 -82,69l-1779 0c-147,0 -295,-62 -297,-229 -1,-161 156,-232 297,-232l1305 0c153,0 300,-25 394,-160 54,-78 74,-188 75,-286 0,-111 -23,-235 -96,-322 -49,-58 -115,-91 -197,-92 -162,-2 -241,116 -241,275l0 401c0,25 -37,45 -82,45 -45,0 -81,-20 -81,-45l0 -401c0,-131 -62,-274 -211,-274 -148,0 -213,139 -213,275l0 401c0,25 -36,45 -81,45 -45,0 -81,-20 -81,-45l0 -372c0,-198 -109,-309 -310,-306 -77,0 -152,21 -203,58 -56,41 -102,101 -107,174 44,-39 96,-59 156,-61 85,-3 167,20 223,67 63,52 93,133 93,209 -1,76 -33,148 -95,200zm-368 -200c0,123 71,183 147,180 74,-2 153,-63 153,-180 0,-121 -77,-182 -153,-180 -74,1 -147,61 -147,180z"/>
 </g>
</svg>
