<?xml version="1.0" encoding="UTF-8"?>
<!DOCTYPE svg PUBLIC "-//W3C//DTD SVG 1.1//EN" "http://www.w3.org/Graphics/SVG/1.1/DTD/svg11.dtd">
<!-- Creator: CorelDRAW X8 -->
<svg xmlns="http://www.w3.org/2000/svg" xml:space="preserve" width="1042px" height="1024px" version="1.1" style="shape-rendering:geometricPrecision; text-rendering:geometricPrecision; image-rendering:optimizeQuality; fill-rule:evenodd; clip-rule:evenodd"
viewBox="0 0 1042 1024"
 xmlns:xlink="http://www.w3.org/1999/xlink">
 <defs>
  <style type="text/css">
   <![CDATA[
    .fil0 {fill:#434242;fill-rule:nonzero}
   ]]>
  </style>
 </defs>
 <g id="Layer_x0020_1">
  <metadata id="CorelCorpID_0Corel-Layer"/>
  <path class="fil0" d="M748 946c51,-45 75,-104 75,-165 0,-40 -10,-81 -29,-120 161,-67 248,-182 248,-351 0,-78 -20,-153 -72,-212 -58,-66 -143,-98 -230,-98 -85,0 -173,31 -227,96 -47,55 -66,127 -66,198 0,147 58,214 145,323 -22,3 -43,5 -66,5 -204,0 -364,-123 -364,-337 0,-78 25,-156 74,-220 5,-7 8,-13 8,-19 0,-28 -39,-46 -80,-46 -31,0 -62,9 -77,29 -58,76 -87,167 -87,256 0,295 264,428 526,428 40,0 79,-4 119,-10 10,25 15,52 15,77 0,90 -58,153 -149,153 -67,0 -122,-42 -127,-112 -1,-24 -37,-44 -81,-44 -26,0 -82,11 -82,46 0,143 174,201 292,201 83,0 172,-22 235,-78zm-15 -375c-75,-91 -124,-154 -124,-277 0,-46 15,-115 49,-159 20,-26 46,-43 80,-43 37,0 66,17 87,43 39,47 54,122 54,175 0,111 -43,203 -146,261z"/>
 </g>
</svg>
