<?xml version="1.0" encoding="UTF-8"?>
<!DOCTYPE svg PUBLIC "-//W3C//DTD SVG 1.1//EN" "http://www.w3.org/Graphics/SVG/1.1/DTD/svg11.dtd">
<!-- Creator: CorelDRAW X8 -->
<svg xmlns="http://www.w3.org/2000/svg" xml:space="preserve" width="1042px" height="1024px" version="1.1" style="shape-rendering:geometricPrecision; text-rendering:geometricPrecision; image-rendering:optimizeQuality; fill-rule:evenodd; clip-rule:evenodd"
viewBox="0 0 1042 1024"
 xmlns:xlink="http://www.w3.org/1999/xlink">
 <defs>
  <style type="text/css">
   <![CDATA[
    .fil0 {fill:#898778;fill-rule:nonzero}
   ]]>
  </style>
 </defs>
 <g id="Layer_x0020_1">
  <metadata id="CorelCorpID_0Corel-Layer"/>
  <path class="fil0" d="M88 29c14,-18 47,-29 80,-28 29,2 99,24 69,64 -51,65 -75,146 -75,225 2,212 163,333 367,332 22,0 41,-2 63,-5 -83,-103 -140,-168 -145,-306 -3,-77 17,-156 66,-215 55,-65 145,-97 231,-96 87,1 170,34 226,98 40,46 68,110 72,192 7,179 -82,301 -248,371 48,98 39,210 -46,285 -59,51 -146,78 -232,78 -129,0 -286,-56 -295,-200 -1,-25 34,-46 79,-47 45,-1 82,19 84,44 4,72 63,114 132,112 126,-2 170,-126 129,-230 -38,6 -77,10 -116,10 -263,1 -526,-131 -529,-423 -1,-91 28,-184 88,-261zm645 542c109,-61 151,-160 146,-280 -2,-67 -24,-118 -55,-153 -25,-28 -52,-44 -80,-46 -29,-2 -58,11 -84,43 -39,46 -53,111 -51,170 3,117 52,178 124,266z"/>
 </g>
</svg>
