<?xml version="1.0" encoding="UTF-8"?>
<!DOCTYPE svg PUBLIC "-//W3C//DTD SVG 1.1//EN" "http://www.w3.org/Graphics/SVG/1.1/DTD/svg11.dtd">
<!-- Creator: CorelDRAW X8 -->
<svg xmlns="http://www.w3.org/2000/svg" xml:space="preserve" width="1512px" height="1012px" version="1.1" style="shape-rendering:geometricPrecision; text-rendering:geometricPrecision; image-rendering:optimizeQuality; fill-rule:evenodd; clip-rule:evenodd"
viewBox="0 0 1512 1012"
 xmlns:xlink="http://www.w3.org/1999/xlink">
 <defs>
  <style type="text/css">
   <![CDATA[
    .fil0 {fill:#2B2A29;fill-rule:nonzero}
   ]]>
  </style>
 </defs>
 <g id="Layer_x0020_1">
  <metadata id="CorelCorpID_0Corel-Layer"/>
  <path class="fil0" d="M352 1012c21,0 42,-5 59,-16 14,-8 20,-18 20,-29 0,-13 -11,-26 -28,-34 -162,-79 -239,-253 -239,-417 0,-228 140,-425 382,-426 242,0 382,200 382,426 0,164 -76,326 -239,405 -12,6 -28,18 -28,33 0,35 56,46 83,46l686 0c26,0 82,-12 82,-46l0 -908c0,-25 -37,-46 -82,-46 -45,0 -81,21 -81,46l0 863 -432 0c111,-98 175,-242 175,-393 0,-304 -250,-516 -546,-516 -296,0 -546,210 -546,516 0,197 111,391 289,481 19,9 41,15 63,15z"/>
 </g>
</svg>
