<?xml version="1.0" encoding="UTF-8"?>
<!DOCTYPE svg PUBLIC "-//W3C//DTD SVG 1.1//EN" "http://www.w3.org/Graphics/SVG/1.1/DTD/svg11.dtd">
<!-- Creator: CorelDRAW X8 -->
<svg xmlns="http://www.w3.org/2000/svg" xml:space="preserve" width="932px" height="593px" version="1.1" style="shape-rendering:geometricPrecision; text-rendering:geometricPrecision; image-rendering:optimizeQuality; fill-rule:evenodd; clip-rule:evenodd"
viewBox="0 0 932 593"
 xmlns:xlink="http://www.w3.org/1999/xlink">
 <defs>
  <style type="text/css">
   <![CDATA[
    .fil0 {fill:#2B2A29;fill-rule:nonzero}
   ]]>
  </style>
 </defs>
 <g id="Layer_x0020_1">
  <metadata id="CorelCorpID_0Corel-Layer"/>
  <path class="fil0" d="M224 593c17,0 34,-3 46,-11 9,-5 13,-12 13,-18 0,-8 -7,-16 -18,-21 -93,-44 -142,-141 -142,-241 0,-127 83,-243 217,-244 135,0 217,118 217,244 0,100 -51,191 -142,234 -8,4 -18,10 -18,20 0,24 45,30 62,30l412 0c17,0 61,-6 61,-29l0 -527c0,-24 -44,-30 -61,-30 -17,0 -62,6 -62,30l0 497 -230 0c64,-57 101,-140 101,-225 0,-189 -162,-302 -340,-302 -177,0 -340,113 -340,302 0,118 69,229 175,281 13,7 31,10 49,10z"/>
 </g>
</svg>
