<?xml version="1.0" encoding="UTF-8"?>
<!DOCTYPE svg PUBLIC "-//W3C//DTD SVG 1.1//EN" "http://www.w3.org/Graphics/SVG/1.1/DTD/svg11.dtd">
<!-- Creator: CorelDRAW X8 -->
<svg xmlns="http://www.w3.org/2000/svg" xml:space="preserve" width="932px" height="593px" version="1.1" style="shape-rendering:geometricPrecision; text-rendering:geometricPrecision; image-rendering:optimizeQuality; fill-rule:evenodd; clip-rule:evenodd"
viewBox="0 0 932 593"
 xmlns:xlink="http://www.w3.org/1999/xlink">
 <defs>
  <style type="text/css">
   <![CDATA[
    .fil0 {fill:#898778;fill-rule:nonzero}
   ]]>
  </style>
 </defs>
 <g id="Layer_x0020_1">
  <metadata id="CorelCorpID_0Corel-Layer"/>
  <path class="fil0" d="M579 527l230 0 0 -497c0,-24 45,-30 62,-30 17,0 61,6 61,30l0 527c0,23 -44,29 -61,29l-412 0c-17,0 -64,-6 -62,-30 0,-8 7,-15 18,-20 93,-44 144,-134 142,-237 -3,-124 -84,-241 -217,-240 -134,0 -217,114 -217,240 0,101 49,200 142,244 20,9 26,27 5,39 -25,16 -69,14 -95,1 -107,-52 -176,-165 -175,-284 2,-187 164,-299 340,-299 175,0 336,114 340,299 2,88 -35,170 -101,228z"/>
 </g>
</svg>
