<?xml version="1.0" encoding="UTF-8"?>
<!DOCTYPE svg PUBLIC "-//W3C//DTD SVG 1.1//EN" "http://www.w3.org/Graphics/SVG/1.1/DTD/svg11.dtd">
<!-- Creator: CorelDRAW X8 -->
<svg xmlns="http://www.w3.org/2000/svg" xml:space="preserve" width="1854px" height="1486px" version="1.1" style="shape-rendering:geometricPrecision; text-rendering:geometricPrecision; image-rendering:optimizeQuality; fill-rule:evenodd; clip-rule:evenodd"
viewBox="0 0 1854 1487"
 xmlns:xlink="http://www.w3.org/1999/xlink">
 <defs>
  <style type="text/css">
   <![CDATA[
    .fil0 {fill:#2B2A29;fill-rule:nonzero}
   ]]>
  </style>
 </defs>
 <g id="Layer_x0020_1">
  <metadata id="CorelCorpID_0Corel-Layer"/>
  <path class="fil0" d="M1032 1487c308,-1 822,-112 822,-488l0 -953c0,-25 -36,-45 -81,-45 -46,0 -82,20 -82,45l0 863 -432 0c111,-97 175,-237 175,-386 0,-306 -246,-523 -546,-523 -295,0 -547,218 -547,523 0,199 110,383 289,474 19,9 42,15 65,15 20,0 40,-4 57,-15 14,-9 20,-19 20,-30 0,-13 -10,-26 -28,-34 -159,-77 -239,-238 -239,-410 1,-217 135,-432 383,-433 243,0 382,206 382,433 0,164 -77,319 -240,398 -13,7 -26,18 -26,34 0,36 54,45 82,45l604 0c0,312 -417,396 -660,396 -257,0 -474,-77 -629,-219 -165,-151 -238,-342 -238,-564 0,-211 76,-425 232,-540 12,-9 17,-18 17,-27 0,-14 -13,-28 -31,-36 -14,-7 -33,-10 -51,-10 -23,0 -47,6 -63,18 -185,135 -267,373 -267,595 0,303 131,519 323,663 187,140 436,211 709,211z"/>
 </g>
</svg>
