<?xml version="1.0" encoding="UTF-8"?>
<!DOCTYPE svg PUBLIC "-//W3C//DTD SVG 1.1//EN" "http://www.w3.org/Graphics/SVG/1.1/DTD/svg11.dtd">
<!-- Creator: CorelDRAW X8 -->
<svg xmlns="http://www.w3.org/2000/svg" xml:space="preserve" width="1056px" height="600px" version="1.1" style="shape-rendering:geometricPrecision; text-rendering:geometricPrecision; image-rendering:optimizeQuality; fill-rule:evenodd; clip-rule:evenodd"
viewBox="0 0 1056 600"
 xmlns:xlink="http://www.w3.org/1999/xlink">
 <defs>
  <style type="text/css">
   <![CDATA[
    .fil0 {fill:#009846;fill-rule:nonzero}
   ]]>
  </style>
 </defs>
 <g id="Layer_x0020_1">
  <metadata id="CorelCorpID_0Corel-Layer"/>
  <path class="fil0" d="M818 540c37,0 63,-23 81,-56 25,-44 34,-105 34,-144 -1,-63 -16,-128 -47,-174 -58,4 -100,33 -129,72 -27,39 -41,89 -43,136 -1,35 5,69 16,97 17,41 47,69 88,69zm-123 -481c-65,0 -124,31 -155,89 -28,51 -28,112 -28,168 2,181 -22,286 -232,284 -165,-1 -274,-119 -280,-281 -4,-135 67,-264 197,-312 26,-10 71,-12 94,7 19,16 2,33 -16,39 -106,37 -157,161 -152,266 5,91 45,221 158,222 120,1 110,-140 109,-225 0,-70 1,-141 42,-201 58,-84 166,-115 263,-115 109,-1 220,36 291,124 50,62 71,137 70,216 -1,56 -14,114 -44,162 -43,69 -115,98 -194,97 -74,0 -145,-26 -188,-89 -27,-39 -40,-87 -40,-133 0,-58 20,-116 55,-162 47,-60 117,-93 192,-104 -39,-32 -91,-52 -142,-52z"/>
 </g>
</svg>
