<?xml version="1.0" encoding="UTF-8"?>
<!DOCTYPE svg PUBLIC "-//W3C//DTD SVG 1.1//EN" "http://www.w3.org/Graphics/SVG/1.1/DTD/svg11.dtd">
<!-- Creator: CorelDRAW X8 -->
<svg xmlns="http://www.w3.org/2000/svg" xml:space="preserve" width="2033px" height="1486px" version="1.1" style="shape-rendering:geometricPrecision; text-rendering:geometricPrecision; image-rendering:optimizeQuality; fill-rule:evenodd; clip-rule:evenodd"
viewBox="0 0 2033 1486"
 xmlns:xlink="http://www.w3.org/1999/xlink">
 <defs>
  <style type="text/css">
   <![CDATA[
    .fil0 {fill:black;fill-rule:nonzero}
   ]]>
  </style>
 </defs>
 <g id="Layer_x0020_1">
  <metadata id="CorelCorpID_0Corel-Layer"/>
  <path class="fil0" d="M449 1024c341,0 363,-200 363,-479 0,-98 -1,-207 46,-296 53,-101 158,-158 283,-158 100,0 181,30 257,98 -127,16 -246,74 -324,178 -60,78 -91,179 -91,277 0,84 22,165 65,230 68,101 181,149 297,149 118,0 232,-50 300,-163 52,-85 73,-193 73,-292 0,-92 -16,-175 -52,-252 135,82 204,228 204,382 0,83 -20,166 -65,237 -66,104 -166,154 -289,154l-1220 0c-136,0 -296,32 -296,199 0,164 161,198 296,198l1607 0c45,0 82,-31 82,-69 0,-38 -37,-69 -82,-69l-1607 0c-64,0 -131,-8 -131,-87 0,-56 44,-81 131,-81l1220 0c162,0 313,-47 416,-178 68,-86 101,-196 101,-305 0,-156 -67,-305 -189,-403 -72,-57 -162,-95 -262,-108 -109,-124 -269,-186 -441,-186 -159,0 -330,55 -421,194 -70,106 -70,229 -70,351 0,155 14,388 -201,388 -198,0 -287,-250 -287,-415 0,-173 86,-372 257,-435 20,-7 38,-21 38,-38 0,-8 -4,-17 -14,-25 -17,-14 -41,-20 -64,-20 -19,0 -39,4 -55,10 -210,80 -324,293 -324,512 0,269 163,502 449,502zm896 -92c-62,-1 -111,-40 -144,-90 -36,-54 -55,-124 -55,-198 0,-86 25,-173 77,-242 60,-80 150,-126 250,-126 59,86 82,189 82,292 0,92 -16,184 -64,263 -41,67 -90,101 -146,101z"/>
 </g>
</svg>
