<?xml version="1.0" encoding="UTF-8"?>
<!DOCTYPE svg PUBLIC "-//W3C//DTD SVG 1.1//EN" "http://www.w3.org/Graphics/SVG/1.1/DTD/svg11.dtd">
<!-- Creator: CorelDRAW X8 -->
<svg xmlns="http://www.w3.org/2000/svg" xml:space="preserve" width="2389px" height="1486px" version="1.1" style="shape-rendering:geometricPrecision; text-rendering:geometricPrecision; image-rendering:optimizeQuality; fill-rule:evenodd; clip-rule:evenodd"
viewBox="0 0 2389 1486"
 xmlns:xlink="http://www.w3.org/1999/xlink">
 <defs>
  <style type="text/css">
   <![CDATA[
    .fil0 {fill:#009846;fill-rule:nonzero}
   ]]>
  </style>
 </defs>
 <g id="Layer_x0020_1">
  <metadata id="CorelCorpID_0Corel-Layer"/>
  <path class="fil0" d="M1511 91c-125,0 -227,57 -280,158 -46,88 -47,194 -46,291 2,277 -20,488 -366,484 -274,-2 -437,-225 -446,-479 -7,-226 107,-452 324,-535 36,-14 89,-16 119,11 30,25 6,52 -24,63 -180,65 -265,281 -256,461 8,156 103,387 283,389 220,2 205,-236 204,-394 -1,-121 1,-242 70,-346 87,-133 251,-193 418,-194 170,-1 342,62 453,197 292,59 425,268 425,502 0,205 -80,365 -206,485 -219,211 -612,300 -915,302 -316,1 -640,-60 -881,-217 -222,-144 -374,-370 -387,-703 -8,-218 66,-431 256,-551 30,-19 82,-20 114,-3 32,15 39,44 7,64 -160,101 -221,293 -213,490 11,292 131,493 313,624 206,148 492,206 789,205 292,-1 651,-83 829,-295 84,-100 135,-228 135,-392 0,-144 -53,-276 -179,-364 29,73 41,153 40,237 -1,99 -24,199 -73,279 -69,114 -181,165 -300,163 -118,-1 -229,-48 -297,-149 -43,-64 -65,-146 -65,-229 0,-99 31,-199 91,-278 78,-104 197,-162 324,-178 -76,-68 -160,-98 -260,-98zm335 185c-100,0 -190,46 -250,126 -52,70 -77,156 -77,243 0,73 19,144 55,198 33,49 82,88 144,89 56,1 105,-33 146,-101 44,-72 63,-161 64,-250 2,-108 -21,-214 -82,-305z"/>
 </g>
</svg>
