<?xml version="1.0" encoding="UTF-8"?>
<!DOCTYPE svg PUBLIC "-//W3C//DTD SVG 1.1//EN" "http://www.w3.org/Graphics/SVG/1.1/DTD/svg11.dtd">
<!-- Creator: CorelDRAW X8 -->
<svg xmlns="http://www.w3.org/2000/svg" xml:space="preserve" width="3656px" height="1486px" version="1.1" style="shape-rendering:geometricPrecision; text-rendering:geometricPrecision; image-rendering:optimizeQuality; fill-rule:evenodd; clip-rule:evenodd"
viewBox="0 0 3656 1486"
 xmlns:xlink="http://www.w3.org/1999/xlink">
 <defs>
  <style type="text/css">
   <![CDATA[
    .fil0 {fill:#CC6633;fill-rule:nonzero}
   ]]>
  </style>
 </defs>
 <g id="Layer_x0020_1">
  <metadata id="CorelCorpID_0Corel-Layer"/>
  <path class="fil0" d="M2948 1225c-76,0 -137,10 -177,25 -43,17 -64,40 -65,63 0,23 21,46 65,63 40,16 100,26 177,26 63,0 110,-7 149,-18 58,-17 87,-44 87,-71 0,-27 -29,-53 -86,-70 -38,-11 -86,-18 -150,-18zm-1618 -1189c59,-23 123,-34 188,-35 106,-1 206,29 287,85 92,62 161,157 191,275 23,89 20,185 -6,274 -36,122 -108,213 -203,273l495 0c-92,-96 -142,-220 -143,-352 0,-104 29,-206 84,-296 113,-188 307,-259 514,-260 186,-1 353,61 465,196 319,66 472,354 453,665 -13,210 -111,408 -282,516 -70,45 -158,74 -239,90 -59,12 -121,18 -186,19 -67,1 -149,-7 -213,-24 -119,-32 -178,-91 -178,-149 1,-59 62,-118 183,-149 56,-15 127,-23 208,-23 75,0 136,7 189,19 71,17 179,59 194,135 107,-102 163,-268 167,-434 5,-205 -64,-415 -209,-517 29,73 41,153 40,237 -1,99 -24,199 -73,279 -69,114 -181,165 -300,163 -118,-1 -229,-48 -297,-149 -43,-64 -65,-146 -65,-229 0,-99 31,-199 91,-278 78,-104 197,-162 324,-178 -79,-70 -167,-100 -271,-98 -154,1 -279,60 -361,198 -48,79 -75,172 -75,265 0,148 67,286 193,370 12,8 19,19 19,29 1,34 -56,46 -82,46l-1311 0c-45,0 -82,-20 -82,-45 0,-25 37,-46 82,-46l349 0c178,0 311,-122 359,-288 24,-80 26,-166 6,-247 -19,-74 -57,-145 -111,-197 -57,-55 -130,-85 -206,-84 -24,1 -48,4 -71,11 106,83 173,216 174,351 1,171 -117,291 -292,291 -176,0 -291,-120 -290,-291 0,-135 68,-268 174,-351 -29,-9 -56,-13 -86,-12 -114,4 -214,53 -269,158 -46,88 -47,194 -46,291 2,278 -20,488 -366,485 -274,-3 -437,-225 -446,-480 -8,-226 107,-452 323,-535 16,-6 36,-10 55,-10 24,0 48,6 65,21 9,8 13,16 13,25 0,15 -13,29 -37,38 -180,66 -265,281 -256,461 8,156 102,387 283,389 220,2 205,-236 204,-394 -1,-121 1,-242 70,-346 85,-130 244,-190 407,-194 68,-1 140,11 203,36zm1754 240c-100,0 -190,46 -250,126 -52,70 -77,156 -77,243 0,73 19,144 55,198 33,49 82,88 144,89 56,1 105,-33 146,-101 44,-72 63,-161 64,-250 2,-108 -21,-214 -82,-305zm-1754 -107c-80,69 -128,180 -129,285 0,77 35,197 128,198 93,1 129,-120 129,-198 -1,-106 -49,-216 -128,-285z"/>
 </g>
</svg>
