<?xml version="1.0" encoding="UTF-8"?>
<!DOCTYPE svg PUBLIC "-//W3C//DTD SVG 1.1//EN" "http://www.w3.org/Graphics/SVG/1.1/DTD/svg11.dtd">
<!-- Creator: CorelDRAW X8 -->
<svg xmlns="http://www.w3.org/2000/svg" xml:space="preserve" width="2045px" height="1486px" version="1.1" style="shape-rendering:geometricPrecision; text-rendering:geometricPrecision; image-rendering:optimizeQuality; fill-rule:evenodd; clip-rule:evenodd"
viewBox="0 0 2045 1486"
 xmlns:xlink="http://www.w3.org/1999/xlink">
 <defs>
  <style type="text/css">
   <![CDATA[
    .fil0 {fill:#2B2A29;fill-rule:nonzero}
   ]]>
  </style>
 </defs>
 <g id="Layer_x0020_1">
  <metadata id="CorelCorpID_0Corel-Layer"/>
  <path class="fil0" d="M449 1024c341,0 363,-200 363,-479 0,-98 -1,-207 46,-296 53,-101 158,-158 283,-158 98,0 182,32 257,98 -127,16 -246,74 -324,178 -60,79 -91,179 -91,278 0,83 22,165 65,229 69,104 182,149 304,149 116,0 225,-51 293,-163 51,-84 73,-191 73,-288 0,-81 -13,-158 -40,-228 139,99 209,266 209,464 0,160 -48,374 -168,487 -15,-76 -123,-118 -193,-135 -54,-12 -115,-19 -189,-19 -81,0 -153,8 -208,23 -122,31 -183,90 -183,149 0,58 59,117 178,149 60,16 137,24 213,24 70,0 143,-7 214,-24 75,-17 148,-45 211,-85 202,-127 275,-342 283,-569 0,-290 -153,-550 -454,-612 -110,-133 -281,-196 -450,-196 -159,0 -330,55 -421,194 -70,106 -70,229 -70,351 0,155 14,388 -201,388 -198,0 -287,-250 -287,-415 0,-173 86,-372 257,-435 20,-7 38,-21 38,-38 0,-8 -4,-17 -14,-25 -17,-14 -41,-20 -64,-20 -19,0 -39,4 -55,10 -210,80 -324,293 -324,512 0,269 163,502 449,502zm898 -92c-63,0 -113,-40 -147,-89 -36,-54 -54,-125 -54,-198 0,-87 25,-173 77,-243 60,-80 150,-126 250,-126 59,87 82,189 82,292 0,91 -17,184 -64,263 -40,67 -89,101 -144,101zm-10 470c-77,0 -138,-10 -177,-26 -43,-17 -65,-39 -65,-61 0,-34 38,-54 65,-65 40,-15 101,-25 177,-25 63,0 112,7 150,18 57,17 86,43 86,70 0,27 -29,54 -88,71 -38,11 -85,18 -148,18z"/>
 </g>
</svg>
