<?xml version="1.0" encoding="UTF-8"?>
<!DOCTYPE svg PUBLIC "-//W3C//DTD SVG 1.1//EN" "http://www.w3.org/Graphics/SVG/1.1/DTD/svg11.dtd">
<!-- Creator: CorelDRAW X8 -->
<svg xmlns="http://www.w3.org/2000/svg" xml:space="preserve" width="2389px" height="1486px" version="1.1" style="shape-rendering:geometricPrecision; text-rendering:geometricPrecision; image-rendering:optimizeQuality; fill-rule:evenodd; clip-rule:evenodd"
viewBox="0 0 2389 1486"
 xmlns:xlink="http://www.w3.org/1999/xlink">
 <defs>
  <style type="text/css">
   <![CDATA[
    .fil0 {fill:#898778;fill-rule:nonzero}
   ]]>
  </style>
 </defs>
 <g id="Layer_x0020_1">
  <metadata id="CorelCorpID_0Corel-Layer"/>
  <path class="fil0" d="M1511 91c-125,0 -227,57 -280,158 -46,88 -47,194 -46,291 2,277 -20,488 -366,484 -274,-2 -437,-225 -446,-479 -7,-226 107,-452 324,-535 36,-14 89,-16 119,11 30,25 6,52 -24,63 -180,65 -265,281 -256,461 8,156 103,387 283,388 220,2 205,-235 204,-393 -1,-121 1,-242 70,-346 87,-133 251,-193 418,-194 170,-1 342,61 453,196 291,60 425,269 425,502 0,206 -81,366 -206,486 -220,211 -612,300 -915,302 -316,1 -640,-60 -881,-217 -222,-145 -374,-370 -386,-703 -9,-218 65,-431 255,-551 30,-19 82,-20 114,-4 32,16 39,45 7,65 -160,101 -221,293 -213,490 11,292 131,493 313,623 206,149 492,207 789,206 292,-1 651,-83 829,-295 84,-100 135,-229 135,-392 -1,-144 -53,-276 -179,-364 29,73 41,153 40,237 -1,99 -24,199 -73,279 -69,114 -181,164 -300,163 -118,-1 -229,-48 -297,-149 -43,-65 -65,-146 -65,-230 0,-98 31,-199 91,-277 78,-104 197,-162 324,-178 -76,-68 -160,-98 -260,-98zm335 185c-100,0 -190,46 -250,126 -52,70 -77,156 -77,242 0,74 19,144 55,198 33,50 82,89 144,90 56,0 105,-34 146,-101 44,-72 63,-161 64,-250 2,-108 -21,-214 -82,-305z"/>
 </g>
</svg>
