<?xml version="1.0" encoding="UTF-8"?>
<!DOCTYPE svg PUBLIC "-//W3C//DTD SVG 1.1//EN" "http://www.w3.org/Graphics/SVG/1.1/DTD/svg11.dtd">
<!-- Creator: CorelDRAW X8 -->
<svg xmlns="http://www.w3.org/2000/svg" xml:space="preserve" width="2389px" height="1486px" version="1.1" style="shape-rendering:geometricPrecision; text-rendering:geometricPrecision; image-rendering:optimizeQuality; fill-rule:evenodd; clip-rule:evenodd"
viewBox="0 0 2389 1486"
 xmlns:xlink="http://www.w3.org/1999/xlink">
 <defs>
  <style type="text/css">
   <![CDATA[
    .fil0 {fill:#434242;fill-rule:nonzero}
   ]]>
  </style>
 </defs>
 <g id="Layer_x0020_1">
  <metadata id="CorelCorpID_0Corel-Layer"/>
  <path class="fil0" d="M822 1024c342,0 363,-200 363,-479 0,-98 0,-208 47,-296 53,-101 158,-158 283,-158 100,0 181,30 257,98 -127,16 -246,74 -324,178 -60,78 -91,179 -91,277 0,84 21,165 65,230 67,101 180,149 297,149 118,0 231,-50 300,-163 51,-85 73,-193 73,-292 0,-81 -12,-154 -40,-223 125,88 179,210 179,354 0,164 -51,301 -135,401 -187,222 -560,295 -836,295 -294,0 -579,-58 -783,-205 -225,-162 -310,-386 -314,-656 -3,-185 63,-363 214,-458 14,-9 21,-20 21,-30 0,-13 -10,-26 -28,-34 -15,-8 -35,-12 -54,-12 -22,0 -44,5 -60,15 -181,114 -260,313 -257,519 5,313 121,561 388,735 240,156 560,217 873,217 301,0 701,-88 924,-302 125,-120 206,-280 206,-485 0,-234 -134,-442 -424,-502 -110,-132 -274,-197 -451,-197 -159,0 -330,55 -421,194 -70,106 -70,229 -70,351 0,155 14,388 -202,388 -198,0 -287,-250 -287,-415 0,-173 86,-373 257,-435 20,-8 38,-21 38,-38 0,-8 -4,-17 -14,-25 -17,-14 -41,-20 -64,-20 -19,0 -39,4 -55,10 -210,80 -324,293 -324,512 0,269 164,502 449,502zm897 -92c-62,-1 -111,-40 -144,-90 -36,-54 -55,-124 -55,-198 0,-86 25,-173 77,-242 60,-80 150,-126 250,-126 59,86 82,189 82,292 0,91 -16,184 -64,263 -41,67 -90,102 -146,101z"/>
 </g>
</svg>
