<?xml version="1.0" encoding="UTF-8"?>
<!DOCTYPE svg PUBLIC "-//W3C//DTD SVG 1.1//EN" "http://www.w3.org/Graphics/SVG/1.1/DTD/svg11.dtd">
<!-- Creator: CorelDRAW X8 -->
<svg xmlns="http://www.w3.org/2000/svg" xml:space="preserve" width="3329px" height="1024px" version="1.1" style="shape-rendering:geometricPrecision; text-rendering:geometricPrecision; image-rendering:optimizeQuality; fill-rule:evenodd; clip-rule:evenodd"
viewBox="0 0 3329 1024"
 xmlns:xlink="http://www.w3.org/1999/xlink">
 <defs>
  <style type="text/css">
   <![CDATA[
    .fil0 {fill:#434242;fill-rule:nonzero}
   ]]>
  </style>
 </defs>
 <g id="Layer_x0020_1">
  <metadata id="CorelCorpID_0Corel-Layer"/>
  <path class="fil0" d="M449 1024c341,0 363,-201 363,-479 0,-98 -1,-208 46,-296 55,-104 162,-158 276,-158 27,0 53,4 79,11 -107,83 -175,218 -175,354 0,169 115,288 290,289 175,0 292,-119 292,-289 0,-136 -67,-270 -174,-353 27,-8 48,-11 76,-11 73,0 146,30 201,83 82,78 125,197 125,311 0,216 -147,422 -378,422l-350 0c-45,0 -81,20 -81,45 0,26 36,46 81,46l1312 0c26,0 81,-12 82,-46 0,-11 -7,-21 -19,-29 -127,-85 -193,-222 -193,-370 0,-93 26,-185 74,-265 83,-137 209,-198 367,-198 102,0 188,29 266,99 -127,16 -245,73 -324,177 -59,79 -91,179 -91,278 0,84 22,165 65,230 68,102 180,149 300,149 118,0 229,-50 297,-163 51,-84 73,-195 73,-292 0,-99 -17,-185 -59,-268 -103,-207 -300,-301 -527,-301 -211,0 -408,73 -521,260 -54,90 -84,193 -83,296 1,133 51,256 142,352l-495 0c145,-92 225,-253 225,-422 0,-159 -72,-310 -206,-402 -80,-54 -178,-84 -283,-84 -67,0 -130,11 -192,36 -61,-24 -130,-36 -196,-36 -156,0 -325,59 -414,194 -70,106 -70,229 -70,351 0,155 14,388 -201,388 -199,0 -287,-251 -287,-415 0,-173 86,-373 257,-436 20,-7 38,-20 38,-38 0,-8 -4,-16 -14,-24 -17,-14 -41,-20 -64,-20 -19,0 -39,3 -55,10 -210,79 -324,293 -324,512 0,269 163,502 449,502zm2506 -92c-61,0 -110,-39 -144,-89 -36,-54 -54,-124 -54,-198 0,-87 25,-173 77,-243 60,-79 150,-126 250,-126 59,87 82,190 82,293 0,90 -17,184 -64,262 -33,55 -79,101 -147,101zm-1627 -281c-92,0 -127,-117 -127,-194 0,-108 47,-218 128,-289 82,71 128,181 128,289 0,76 -36,194 -129,194z"/>
 </g>
</svg>
