<?xml version="1.0" encoding="UTF-8"?>
<!DOCTYPE svg PUBLIC "-//W3C//DTD SVG 1.1//EN" "http://www.w3.org/Graphics/SVG/1.1/DTD/svg11.dtd">
<!-- Creator: CorelDRAW X8 -->
<svg xmlns="http://www.w3.org/2000/svg" xml:space="preserve" width="3656px" height="1486px" version="1.1" style="shape-rendering:geometricPrecision; text-rendering:geometricPrecision; image-rendering:optimizeQuality; fill-rule:evenodd; clip-rule:evenodd"
viewBox="0 0 3656 1486"
 xmlns:xlink="http://www.w3.org/1999/xlink">
 <defs>
  <style type="text/css">
   <![CDATA[
    .fil0 {fill:#434242;fill-rule:nonzero}
   ]]>
  </style>
 </defs>
 <g id="Layer_x0020_1">
  <metadata id="CorelCorpID_0Corel-Layer"/>
  <path class="fil0" d="M1328 651c-92,0 -127,-117 -127,-194 0,-108 47,-217 128,-289 82,71 128,181 128,289 0,76 -36,194 -129,194zm1630 281c-62,0 -113,-39 -147,-89 -36,-54 -54,-125 -54,-198 0,-87 25,-173 77,-243 60,-80 150,-126 250,-126 59,87 82,189 82,292 0,91 -17,184 -64,263 -40,67 -89,101 -144,101zm-1172 -24c145,-92 225,-253 225,-422 0,-159 -72,-310 -206,-401 -80,-55 -178,-84 -283,-84 -67,0 -130,10 -192,35 -61,-24 -130,-36 -196,-36 -156,0 -326,59 -414,194 -70,106 -70,229 -70,351 0,155 14,388 -201,388 -199,0 -287,-251 -287,-415 0,-173 86,-373 257,-435 20,-8 38,-21 38,-38 0,-8 -4,-17 -14,-25 -17,-14 -41,-20 -64,-20 -19,0 -39,4 -55,10 -210,80 -324,293 -324,512 0,269 163,502 449,502 341,0 363,-200 363,-479 0,-98 -1,-208 46,-296 55,-104 162,-158 276,-158 27,0 53,4 79,11 -107,83 -175,218 -175,354 0,169 115,288 290,289 175,0 292,-119 292,-289 0,-136 -67,-270 -174,-353 27,-8 48,-11 76,-11 73,0 146,30 201,83 82,78 125,197 125,311 0,216 -147,422 -378,422l-350 0c-45,0 -81,20 -81,45 0,26 36,46 81,46l1312 0c26,0 81,-11 82,-45 0,-10 -7,-21 -19,-29 -127,-85 -193,-223 -193,-371 0,-101 26,-193 74,-269 84,-132 218,-194 372,-194 99,0 184,30 261,98 -127,16 -246,74 -324,178 -60,79 -91,179 -91,278 0,83 22,165 65,229 69,104 183,149 304,149 116,0 225,-51 293,-163 51,-84 73,-191 73,-288 0,-81 -13,-158 -40,-228 139,99 209,266 209,464 0,160 -48,374 -168,487 -15,-76 -123,-118 -193,-135 -54,-13 -115,-19 -189,-19 -81,0 -153,9 -208,23 -122,32 -183,90 -183,149 0,58 59,117 178,149 60,16 137,24 202,24 65,0 132,-6 196,-19 82,-16 169,-45 240,-90 202,-127 280,-342 283,-569 5,-290 -153,-550 -454,-612 -111,-134 -277,-196 -462,-196 -192,0 -387,72 -502,232 -70,96 -100,204 -99,322 0,132 51,257 142,354l-495 0zm1162 494c-165,0 -242,-44 -242,-89 0,-45 86,-88 242,-88 155,0 236,46 236,88 0,43 -73,89 -236,89z"/>
 </g>
</svg>
