<?xml version="1.0" encoding="UTF-8"?>
<!DOCTYPE svg PUBLIC "-//W3C//DTD SVG 1.1//EN" "http://www.w3.org/Graphics/SVG/1.1/DTD/svg11.dtd">
<!-- Creator: CorelDRAW X8 -->
<svg xmlns="http://www.w3.org/2000/svg" xml:space="preserve" width="2034px" height="1486px" version="1.1" style="shape-rendering:geometricPrecision; text-rendering:geometricPrecision; image-rendering:optimizeQuality; fill-rule:evenodd; clip-rule:evenodd"
viewBox="0 0 2034 1486"
 xmlns:xlink="http://www.w3.org/1999/xlink">
 <defs>
  <style type="text/css">
   <![CDATA[
    .fil0 {fill:#009846;fill-rule:nonzero}
   ]]>
  </style>
 </defs>
 <g id="Layer_x0020_1">
  <metadata id="CorelCorpID_0Corel-Layer"/>
  <path class="fil0" d="M1473 276c-100,0 -189,46 -249,126 -53,70 -78,156 -78,242 0,74 19,144 55,198 33,50 82,89 144,90 56,0 106,-34 147,-101 43,-72 63,-161 64,-250 1,-108 -22,-214 -83,-305zm-335 -185c-125,0 -227,57 -280,158 -46,88 -46,194 -46,291 2,277 -20,488 -365,485 -275,-3 -438,-226 -446,-480 -8,-226 106,-452 323,-535 36,-14 89,-16 120,11 29,25 5,52 -24,63 -181,65 -265,281 -257,461 8,156 103,387 284,389 220,2 204,-236 203,-394 -1,-121 1,-242 70,-346 87,-133 252,-193 418,-194 165,-1 333,58 444,186 100,13 191,51 262,108 123,98 189,247 190,403 0,109 -33,219 -102,305 -102,130 -253,178 -415,178l-1220 0c-89,0 -133,26 -131,85 1,62 45,83 131,83l1603 0c45,0 82,31 82,69 0,38 -37,69 -82,69l-1603 0c-137,0 -299,-35 -296,-204 3,-123 95,-193 296,-193l1220 0c123,0 223,-50 289,-154 43,-68 64,-149 65,-230 2,-157 -68,-307 -205,-390 37,81 54,171 52,266 -1,99 -24,199 -72,279 -69,114 -182,164 -301,163 -118,-1 -229,-48 -296,-149 -43,-65 -66,-146 -66,-230 0,-98 32,-198 91,-277 78,-104 197,-161 325,-178 -77,-68 -161,-98 -261,-98z"/>
 </g>
</svg>
