<?xml version="1.0" encoding="UTF-8"?>
<!DOCTYPE svg PUBLIC "-//W3C//DTD SVG 1.1//EN" "http://www.w3.org/Graphics/SVG/1.1/DTD/svg11.dtd">
<!-- Creator: CorelDRAW X8 -->
<svg xmlns="http://www.w3.org/2000/svg" xml:space="preserve" width="1249px" height="868px" version="1.1" style="shape-rendering:geometricPrecision; text-rendering:geometricPrecision; image-rendering:optimizeQuality; fill-rule:evenodd; clip-rule:evenodd"
viewBox="0 0 1249 868"
 xmlns:xlink="http://www.w3.org/1999/xlink">
 <defs>
  <style type="text/css">
   <![CDATA[
    .fil0 {fill:#434242;fill-rule:nonzero}
   ]]>
  </style>
 </defs>
 <g id="Layer_x0020_1">
  <metadata id="CorelCorpID_0Corel-Layer"/>
  <path class="fil0" d="M282 600c200,0 230,-98 230,-275 0,-60 -1,-123 28,-177 31,-58 90,-89 155,-89 51,0 103,20 142,52 -75,11 -145,44 -192,104 -35,46 -55,103 -55,161 0,46 13,95 40,134 43,63 114,89 188,89 80,0 151,-27 194,-97 31,-49 44,-105 44,-162 0,-44 -7,-88 -21,-129 57,51 92,121 92,200 0,47 -15,97 -42,136 -38,56 -95,85 -163,85l-731 0c-81,0 -190,14 -190,118 0,101 109,118 190,118l967 0c26,0 62,-12 62,-43 0,-31 -36,-44 -62,-44l-967 0c-33,0 -67,-5 -67,-46 0,-38 35,-45 67,-45l731 0c95,0 188,-22 254,-94 47,-51 73,-115 73,-185 0,-80 -33,-158 -87,-211 -54,-53 -115,-78 -188,-91 -72,-78 -175,-109 -279,-109 -97,0 -205,31 -263,115 -42,60 -42,139 -42,210 0,85 7,216 -108,216 -117,0 -159,-141 -159,-236 0,-102 51,-217 152,-252 12,-4 24,-13 24,-24 0,-5 -2,-10 -8,-15 -13,-10 -32,-14 -50,-14 -16,0 -32,2 -44,7 -127,47 -197,170 -197,301 0,170 110,292 282,292zm536 -60c-41,0 -71,-28 -88,-69 -10,-26 -16,-63 -16,-95 0,-49 14,-98 43,-138 28,-40 71,-68 129,-72 31,46 46,111 47,174 1,39 -9,100 -34,144 -18,33 -44,56 -81,56z"/>
 </g>
</svg>
