<?xml version="1.0" encoding="UTF-8"?>
<!DOCTYPE svg PUBLIC "-//W3C//DTD SVG 1.1//EN" "http://www.w3.org/Graphics/SVG/1.1/DTD/svg11.dtd">
<!-- Creator: CorelDRAW X8 -->
<svg xmlns="http://www.w3.org/2000/svg" xml:space="preserve" width="1313px" height="868px" version="1.1" style="shape-rendering:geometricPrecision; text-rendering:geometricPrecision; image-rendering:optimizeQuality; fill-rule:evenodd; clip-rule:evenodd"
viewBox="0 0 1313 868"
 xmlns:xlink="http://www.w3.org/1999/xlink">
 <defs>
  <style type="text/css">
   <![CDATA[
    .fil0 {fill:#434242;fill-rule:nonzero}
   ]]>
  </style>
 </defs>
 <g id="Layer_x0020_1">
  <metadata id="CorelCorpID_0Corel-Layer"/>
  <path class="fil0" d="M282 600c200,0 230,-98 230,-275 0,-60 -1,-123 28,-177 31,-58 90,-89 155,-89 51,0 103,20 142,52 -75,11 -145,44 -192,104 -35,46 -55,103 -55,161 0,46 13,95 40,134 43,63 114,89 188,89 80,0 151,-27 194,-97 31,-49 44,-105 44,-162 0,-64 -14,-127 -46,-182 17,1 34,4 50,8 59,14 106,59 106,120 0,21 -5,44 -17,62 -8,12 -20,20 -35,22 -16,2 -32,10 -32,29 0,23 25,30 44,30 12,0 23,4 32,10 26,17 36,50 36,79 0,29 -9,56 -28,78 -22,25 -50,35 -83,35l-894 0c-79,0 -188,16 -188,118 0,101 107,119 188,119l1036 0c26,0 60,-13 60,-43 0,-31 -34,-44 -60,-44l-1036 0c-34,0 -68,-4 -68,-46 0,-38 36,-45 68,-45l894 0c50,0 99,-7 143,-31 54,-30 87,-78 87,-141 0,-55 -29,-101 -78,-126 33,-28 47,-65 47,-107 0,-95 -83,-154 -170,-173 -42,-9 -85,-14 -129,-14l-20 0c-71,-70 -169,-98 -268,-98 -97,0 -205,31 -263,115 -42,60 -42,139 -42,210 0,85 7,216 -108,216 -117,0 -159,-141 -159,-236 0,-102 51,-217 152,-252 12,-4 24,-13 24,-24 0,-5 -2,-10 -8,-15 -13,-10 -32,-14 -50,-14 -16,0 -32,2 -44,7 -127,47 -197,170 -197,301 0,170 110,292 282,292zm536 -60c-41,0 -71,-28 -88,-69 -10,-26 -16,-63 -16,-95 0,-49 14,-98 43,-138 28,-40 71,-68 129,-72 31,46 46,111 47,174 1,39 -9,100 -34,144 -18,33 -44,56 -81,56z"/>
 </g>
</svg>
