<?xml version="1.0" encoding="UTF-8"?>
<!DOCTYPE svg PUBLIC "-//W3C//DTD SVG 1.1//EN" "http://www.w3.org/Graphics/SVG/1.1/DTD/svg11.dtd">
<!-- Creator: CorelDRAW X8 -->
<svg xmlns="http://www.w3.org/2000/svg" xml:space="preserve" width="1249px" height="868px" version="1.1" style="shape-rendering:geometricPrecision; text-rendering:geometricPrecision; image-rendering:optimizeQuality; fill-rule:evenodd; clip-rule:evenodd"
viewBox="0 0 1249 868"
 xmlns:xlink="http://www.w3.org/1999/xlink">
 <defs>
  <style type="text/css">
   <![CDATA[
    .fil0 {fill:#009846;fill-rule:nonzero}
   ]]>
  </style>
 </defs>
 <g id="Layer_x0020_1">
  <metadata id="CorelCorpID_0Corel-Layer"/>
  <path class="fil0" d="M817 540c37,0 64,-23 82,-56 25,-44 34,-105 33,-144 0,-63 -15,-128 -46,-173 -58,4 -101,32 -129,72 -28,38 -41,88 -43,136 -1,34 4,68 16,96 17,41 46,69 87,69zm155 -431c74,12 136,37 190,91 56,55 89,131 87,214 -1,68 -27,133 -73,182 -66,72 -159,94 -254,94l-731 0c-32,0 -68,7 -67,47 1,40 34,45 67,45l961 0c26,0 62,12 62,43 0,31 -36,43 -62,43l-961 0c-82,0 -193,-17 -190,-121 2,-101 111,-115 190,-115l731 0c69,0 124,-30 163,-85 26,-39 41,-86 42,-133 1,-80 -33,-151 -92,-203 15,41 21,84 20,129 0,56 -13,114 -43,162 -43,69 -115,98 -194,97 -74,0 -145,-26 -188,-89 -27,-38 -40,-86 -40,-133 0,-58 19,-116 55,-162 47,-60 117,-93 192,-104 -40,-32 -91,-52 -142,-52 -65,0 -124,31 -156,89 -27,51 -27,112 -27,168 1,181 -22,286 -232,284 -165,-1 -274,-119 -280,-281 -5,-134 67,-264 196,-312 27,-9 72,-11 94,7 20,16 3,33 -16,39 -105,38 -152,153 -151,263 2,116 58,225 158,225 119,2 109,-140 109,-225 -1,-70 1,-140 42,-201 57,-84 166,-115 263,-115 102,0 206,32 277,109z"/>
 </g>
</svg>
