<?xml version="1.0" encoding="UTF-8"?>
<!DOCTYPE svg PUBLIC "-//W3C//DTD SVG 1.1//EN" "http://www.w3.org/Graphics/SVG/1.1/DTD/svg11.dtd">
<!-- Creator: CorelDRAW X8 -->
<svg xmlns="http://www.w3.org/2000/svg" xml:space="preserve" width="2150px" height="1486px" version="1.1" style="shape-rendering:geometricPrecision; text-rendering:geometricPrecision; image-rendering:optimizeQuality; fill-rule:evenodd; clip-rule:evenodd"
viewBox="0 0 2150 1486"
 xmlns:xlink="http://www.w3.org/1999/xlink">
 <defs>
  <style type="text/css">
   <![CDATA[
    .fil0 {fill:#434242;fill-rule:nonzero}
   ]]>
  </style>
 </defs>
 <g id="Layer_x0020_1">
  <metadata id="CorelCorpID_0Corel-Layer"/>
  <path class="fil0" d="M1396 188c-125,20 -244,77 -322,180 -59,79 -91,179 -91,278 0,83 23,165 66,229 68,103 173,149 293,149 124,0 237,-52 304,-163 50,-82 73,-188 73,-288 0,-100 -22,-214 -84,-314 41,2 81,7 122,17 103,24 179,103 179,210 0,34 -3,69 -21,99 -15,26 -33,43 -60,51 -25,7 -79,11 -79,47 0,22 31,45 83,45 28,0 49,6 71,24 39,32 59,89 58,139 0,51 -19,96 -49,131 -41,49 -95,67 -156,67l-1487 0c-135,0 -296,32 -296,199 0,164 161,198 296,198l1725 0c45,0 81,-31 81,-69 0,-38 -36,-69 -81,-69l-1725 0c-65,0 -131,-7 -131,-87 0,-56 44,-82 131,-82l1487 0c80,0 155,-13 224,-52 90,-50 143,-134 143,-238 0,-94 -48,-176 -133,-219 56,-46 82,-113 82,-184 0,-158 -132,-258 -278,-293 -67,-16 -133,-25 -200,-25 -19,0 -37,1 -56,2 -114,-118 -265,-170 -424,-170 -159,0 -330,55 -421,194 -70,106 -70,229 -70,351 0,155 14,388 -201,388 -199,0 -287,-250 -287,-415 0,-173 86,-373 257,-435 20,-8 38,-21 38,-38 0,-8 -4,-17 -14,-25 -17,-14 -41,-20 -64,-20 -19,0 -39,4 -55,10 -210,80 -324,293 -324,512 0,269 163,502 449,502 341,0 363,-200 363,-479 0,-98 -1,-208 46,-296 53,-101 158,-158 283,-158 96,0 182,32 255,97zm-54 745c-50,0 -101,-29 -141,-89 -36,-54 -55,-125 -55,-198 0,-87 25,-173 78,-243 59,-79 148,-123 246,-131 66,96 86,204 86,301 0,91 -21,187 -65,259 -40,67 -94,101 -149,101z"/>
 </g>
</svg>
