<?xml version="1.0" encoding="UTF-8"?>
<!DOCTYPE svg PUBLIC "-//W3C//DTD SVG 1.1//EN" "http://www.w3.org/Graphics/SVG/1.1/DTD/svg11.dtd">
<!-- Creator: CorelDRAW X8 -->
<svg xmlns="http://www.w3.org/2000/svg" xml:space="preserve" width="1252px" height="868px" version="1.1" style="shape-rendering:geometricPrecision; text-rendering:geometricPrecision; image-rendering:optimizeQuality; fill-rule:evenodd; clip-rule:evenodd"
viewBox="0 0 1252 868"
 xmlns:xlink="http://www.w3.org/1999/xlink">
 <defs>
  <style type="text/css">
   <![CDATA[
    .fil0 {fill:#CC6633;fill-rule:nonzero}
   ]]>
  </style>
 </defs>
 <g id="Layer_x0020_1">
  <metadata id="CorelCorpID_0Corel-Layer"/>
  <path class="fil0" d="M817 540c37,0 64,-23 82,-56 25,-44 34,-105 33,-144 0,-63 -15,-128 -46,-174 -58,4 -101,33 -129,72 -28,39 -41,89 -43,137 -1,34 4,68 16,96 17,41 46,69 87,69zm-2 176c-31,0 -67,3 -96,14 -14,5 -37,17 -37,34 0,18 22,30 37,36 28,10 65,13 96,13 26,0 54,-2 79,-9 17,-5 50,-18 50,-40 0,-21 -32,-33 -49,-38 -26,-7 -54,-10 -80,-10zm163 -601c189,43 285,197 273,387 -8,121 -65,237 -170,301 -44,27 -97,44 -147,53 -39,8 -79,11 -119,12 -44,1 -94,-4 -137,-15 -40,-11 -110,-38 -110,-89 0,-51 72,-78 113,-88 43,-11 90,-14 134,-14 40,0 81,3 121,12 37,8 93,27 113,62 56,-62 82,-152 84,-234 3,-100 -18,-207 -92,-272 10,35 15,72 14,110 0,56 -13,114 -43,162 -43,69 -115,98 -194,97 -74,0 -145,-26 -188,-89 -27,-39 -40,-86 -40,-133 0,-58 19,-116 55,-162 47,-60 117,-93 192,-104 -40,-32 -91,-52 -142,-52 -65,0 -124,31 -156,89 -27,51 -27,112 -27,168 1,181 -22,286 -232,284 -165,-1 -274,-119 -280,-281 -5,-135 67,-264 196,-312 12,-4 28,-7 45,-7 18,0 37,4 49,14 6,5 9,10 9,15 0,11 -12,20 -25,24 -105,37 -157,161 -151,266 4,91 45,221 158,222 119,1 109,-140 109,-225 -1,-70 1,-141 42,-201 57,-84 166,-115 263,-115 105,-1 212,34 283,115z"/>
 </g>
</svg>
