<?xml version="1.0" encoding="UTF-8"?>
<!DOCTYPE svg PUBLIC "-//W3C//DTD SVG 1.1//EN" "http://www.w3.org/Graphics/SVG/1.1/DTD/svg11.dtd">
<!-- Creator: CorelDRAW X8 -->
<svg xmlns="http://www.w3.org/2000/svg" xml:space="preserve" width="2133px" height="1486px" version="1.1" style="shape-rendering:geometricPrecision; text-rendering:geometricPrecision; image-rendering:optimizeQuality; fill-rule:evenodd; clip-rule:evenodd"
viewBox="0 0 2133 1486"
 xmlns:xlink="http://www.w3.org/1999/xlink">
 <defs>
  <style type="text/css">
   <![CDATA[
    .fil0 {fill:#009846;fill-rule:nonzero}
   ]]>
  </style>
 </defs>
 <g id="Layer_x0020_1">
  <metadata id="CorelCorpID_0Corel-Layer"/>
  <path class="fil0" d="M1467 269c-95,14 -184,55 -243,133 -53,70 -78,156 -78,242 0,74 19,144 55,198 33,50 82,89 144,90 56,1 106,-34 147,-101 43,-72 63,-161 64,-250 1,-119 -26,-235 -89,-312zm108 -91c148,-7 335,23 450,127 73,66 112,168 107,264 -5,81 -40,159 -113,208 66,35 114,96 114,173 0,50 -20,108 -63,149 -69,66 -169,81 -263,81l-1510 0c-90,0 -134,26 -132,85 1,63 45,83 132,83l1721 0c45,0 81,31 81,69 0,38 -36,69 -81,69l-1721 0c-137,0 -300,-35 -297,-204 3,-123 95,-193 297,-193l1510 0c43,0 92,-8 124,-38 28,-25 40,-63 39,-101 -1,-38 -16,-76 -45,-99 -32,-26 -65,-20 -105,-23 -54,-4 -79,-26 -78,-47 1,-21 28,-42 78,-43 39,-1 70,-13 93,-32 41,-34 57,-88 59,-144 10,-189 -163,-291 -333,-297 58,100 81,200 79,316 -1,99 -24,199 -72,279 -69,114 -182,164 -301,163 -118,-1 -229,-48 -296,-149 -43,-65 -66,-146 -66,-230 0,-98 32,-199 91,-277 78,-104 197,-162 325,-178 -77,-68 -161,-98 -261,-98 -125,0 -227,57 -280,158 -46,88 -46,194 -46,291 2,277 -20,488 -365,484 -275,-2 -438,-225 -446,-479 -8,-226 106,-452 323,-535 36,-14 89,-16 120,11 29,25 5,52 -24,63 -181,65 -265,281 -257,461 8,156 103,387 284,388 220,2 204,-235 203,-393 -1,-121 1,-242 70,-346 87,-133 252,-193 418,-194 170,-1 327,58 437,178z"/>
 </g>
</svg>
