<?xml version="1.0" encoding="UTF-8"?>
<!DOCTYPE svg PUBLIC "-//W3C//DTD SVG 1.1//EN" "http://www.w3.org/Graphics/SVG/1.1/DTD/svg11.dtd">
<!-- Creator: CorelDRAW X8 -->
<svg xmlns="http://www.w3.org/2000/svg" xml:space="preserve" width="2444px" height="1024px" version="1.1" style="shape-rendering:geometricPrecision; text-rendering:geometricPrecision; image-rendering:optimizeQuality; fill-rule:evenodd; clip-rule:evenodd"
viewBox="0 0 2444 1024"
 xmlns:xlink="http://www.w3.org/1999/xlink">
 <defs>
  <style type="text/css">
   <![CDATA[
    .fil0 {fill:#2B2A29;fill-rule:nonzero}
   ]]>
  </style>
 </defs>
 <g id="Layer_x0020_1">
  <metadata id="CorelCorpID_0Corel-Layer"/>
  <path class="fil0" d="M449 1024c341,0 363,-200 363,-479 0,-97 0,-207 46,-296 55,-104 163,-158 276,-158 28,0 53,4 79,11 -106,84 -175,218 -175,354 0,169 115,288 290,289 176,0 293,-119 293,-289 0,-136 -68,-269 -175,-353 27,-8 49,-11 76,-11 74,0 147,31 202,83 82,79 125,197 125,311 0,217 -148,422 -379,422l-350 0c-45,0 -81,20 -81,45 0,26 36,46 81,46l1242 0c26,0 82,-12 82,-46l0 -908c0,-25 -37,-45 -82,-45 -45,0 -81,20 -81,45l0 863 -494 0c145,-91 225,-252 225,-422 0,-159 -73,-309 -206,-401 -81,-54 -178,-84 -284,-84 -66,0 -129,10 -192,35 -61,-24 -130,-36 -196,-36 -155,0 -326,59 -414,194 -70,106 -69,229 -69,351 0,155 13,388 -202,388 -198,0 -287,-250 -287,-415 0,-173 86,-372 257,-435 20,-7 38,-21 38,-38 0,-8 -4,-17 -14,-25 -17,-14 -41,-20 -64,-20 -19,0 -39,4 -55,10 -210,80 -324,293 -324,512 0,270 163,502 449,502zm879 -373c-92,0 -127,-117 -127,-194 0,-108 47,-217 129,-289 81,72 128,181 128,289 0,76 -36,194 -130,194z"/>
 </g>
</svg>
