<?xml version="1.0" encoding="UTF-8"?>
<!DOCTYPE svg PUBLIC "-//W3C//DTD SVG 1.1//EN" "http://www.w3.org/Graphics/SVG/1.1/DTD/svg11.dtd">
<!-- Creator: CorelDRAW X8 -->
<svg xmlns="http://www.w3.org/2000/svg" xml:space="preserve" width="1462px" height="868px" version="1.1" style="shape-rendering:geometricPrecision; text-rendering:geometricPrecision; image-rendering:optimizeQuality; fill-rule:evenodd; clip-rule:evenodd"
viewBox="0 0 1462 868"
 xmlns:xlink="http://www.w3.org/1999/xlink">
 <defs>
  <style type="text/css">
   <![CDATA[
    .fil0 {fill:#2B2A29;fill-rule:nonzero}
   ]]>
  </style>
 </defs>
 <g id="Layer_x0020_1">
  <metadata id="CorelCorpID_0Corel-Layer"/>
  <path class="fil0" d="M507 600c200,0 230,-98 230,-275 0,-59 -1,-123 28,-177 31,-58 90,-89 155,-89 51,0 103,20 142,52 -75,11 -145,44 -192,104 -35,46 -55,103 -55,161 0,46 13,95 40,134 43,63 114,89 188,89 79,0 151,-27 194,-97 31,-49 44,-105 44,-162 0,-38 -5,-76 -16,-112 55,39 82,102 82,180 0,85 -26,168 -82,233 -112,128 -336,168 -498,168 -154,0 -327,-28 -455,-117 -130,-89 -190,-226 -190,-381 0,-103 33,-206 126,-263 9,-5 13,-12 13,-18 0,-8 -7,-16 -18,-22 -11,-5 -27,-8 -43,-8 -18,0 -36,4 -48,11 -108,65 -152,179 -152,300 0,184 78,331 234,429 153,96 354,128 533,128 184,0 432,-49 571,-177 82,-76 124,-171 124,-283 0,-164 -107,-258 -257,-292 -72,-83 -178,-116 -285,-116 -97,0 -205,31 -263,115 -41,60 -42,139 -42,210 0,85 7,216 -108,216 -117,0 -159,-141 -159,-236 0,-102 51,-217 152,-252 12,-4 24,-13 24,-24 0,-5 -2,-10 -8,-15 -13,-10 -32,-14 -50,-14 -16,0 -32,2 -44,7 -127,47 -197,170 -197,301 0,170 110,292 282,292zm536 -60c-41,0 -72,-28 -88,-69 -10,-26 -16,-63 -16,-95 0,-49 14,-98 43,-138 28,-40 71,-68 129,-72 31,46 46,111 47,174 0,39 -9,100 -34,144 -18,33 -44,56 -81,56z"/>
 </g>
</svg>
