<?xml version="1.0" encoding="UTF-8"?>
<!DOCTYPE svg PUBLIC "-//W3C//DTD SVG 1.1//EN" "http://www.w3.org/Graphics/SVG/1.1/DTD/svg11.dtd">
<!-- Creator: CorelDRAW X8 -->
<svg xmlns="http://www.w3.org/2000/svg" xml:space="preserve" width="1305px" height="868px" version="1.1" style="shape-rendering:geometricPrecision; text-rendering:geometricPrecision; image-rendering:optimizeQuality; fill-rule:evenodd; clip-rule:evenodd"
viewBox="0 0 1305 868"
 xmlns:xlink="http://www.w3.org/1999/xlink">
 <defs>
  <style type="text/css">
   <![CDATA[
    .fil0 {fill:#009846;fill-rule:nonzero}
   ]]>
  </style>
 </defs>
 <g id="Layer_x0020_1">
  <metadata id="CorelCorpID_0Corel-Layer"/>
  <path class="fil0" d="M818 540c37,0 63,-23 81,-56 25,-44 34,-105 34,-144 -1,-63 -16,-128 -47,-174 -58,4 -101,33 -129,72 -27,39 -41,89 -43,137 -1,34 5,68 16,96 17,41 47,69 88,69zm146 -440c79,-1 170,10 239,48 60,33 102,87 102,174 0,51 -21,100 -67,132 38,20 67,55 67,100 0,109 -120,136 -208,136l-907 0c-32,0 -67,7 -66,47 1,40 34,45 66,45l1033 0c26,0 62,12 62,43 0,31 -36,43 -62,43l-1033 0c-81,0 -192,-17 -190,-121 2,-101 112,-115 190,-115l907 0c50,0 96,-27 97,-80 1,-36 -16,-62 -61,-66 -16,-1 -49,-7 -48,-30 1,-23 34,-28 50,-28 47,-1 62,-62 61,-100 -2,-52 -22,-91 -53,-118 -33,-29 -79,-44 -130,-46 30,53 44,113 43,176 -1,56 -14,114 -44,162 -43,69 -115,98 -194,97 -74,0 -145,-26 -188,-89 -27,-39 -40,-86 -40,-133 0,-58 20,-116 55,-162 47,-60 117,-93 192,-104 -39,-32 -91,-52 -142,-52 -65,0 -124,31 -155,89 -28,51 -28,112 -28,168 2,181 -22,286 -232,284 -165,-1 -274,-119 -280,-281 -4,-135 67,-264 196,-312 27,-10 72,-12 95,7 19,16 2,33 -16,39 -106,37 -157,161 -152,266 5,91 45,221 158,222 120,1 110,-140 109,-225 0,-70 1,-141 42,-201 58,-84 166,-115 263,-115 98,-1 198,30 269,100z"/>
 </g>
</svg>
