<?xml version="1.0" encoding="UTF-8"?>
<!DOCTYPE svg PUBLIC "-//W3C//DTD SVG 1.1//EN" "http://www.w3.org/Graphics/SVG/1.1/DTD/svg11.dtd">
<!-- Creator: CorelDRAW X8 -->
<svg xmlns="http://www.w3.org/2000/svg" xml:space="preserve" width="3646px" height="1486px" version="1.1" style="shape-rendering:geometricPrecision; text-rendering:geometricPrecision; image-rendering:optimizeQuality; fill-rule:evenodd; clip-rule:evenodd"
viewBox="0 0 3646 1486"
 xmlns:xlink="http://www.w3.org/1999/xlink">
 <defs>
  <style type="text/css">
   <![CDATA[
    .fil0 {fill:#434242;fill-rule:nonzero}
   ]]>
  </style>
 </defs>
 <g id="Layer_x0020_1">
  <metadata id="CorelCorpID_0Corel-Layer"/>
  <path class="fil0" d="M449 1024c341,0 363,-200 363,-479 0,-98 0,-208 46,-296 55,-104 163,-158 276,-158 27,0 53,4 79,11 -107,83 -175,218 -175,354 0,169 115,288 290,289 175,0 292,-119 292,-289 0,-136 -67,-270 -174,-353 27,-8 48,-11 76,-11 73,0 147,31 201,83 83,78 125,197 125,311 0,217 -147,422 -378,422l-350 0c-45,0 -81,20 -81,45 0,26 36,46 81,46l1314 0c26,0 81,-11 82,-45 0,-11 -7,-21 -19,-29 -127,-85 -193,-223 -193,-372 0,-94 23,-182 66,-255 80,-136 218,-207 374,-207 103,0 188,29 267,98 -127,17 -247,74 -325,178 -60,78 -90,179 -90,277 0,84 22,165 65,230 67,101 180,149 299,149 118,0 230,-50 298,-163 51,-83 73,-190 73,-287 0,-92 -16,-179 -53,-258 52,31 94,71 126,119 52,76 79,170 79,262 0,99 -28,197 -91,275 -67,82 -177,118 -283,118l-1773 0c-135,0 -296,32 -296,199 0,164 162,198 296,198l2180 0c45,0 82,-31 82,-69 0,-39 -37,-70 -82,-70l-2180 0c-64,0 -130,-7 -130,-86 0,-56 44,-82 130,-82l1773 0c140,0 294,-34 396,-133 94,-91 141,-217 141,-346 0,-119 -38,-237 -113,-330 -85,-105 -205,-166 -338,-184 -111,-127 -272,-186 -451,-186 -201,0 -402,77 -516,250 -55,83 -87,184 -87,301 0,134 50,260 142,357l-497 0c145,-92 225,-252 225,-422 0,-159 -72,-310 -206,-401 -80,-55 -178,-84 -283,-84 -66,0 -130,10 -192,35 -61,-24 -130,-36 -196,-36 -156,0 -325,59 -414,194 -70,106 -70,229 -69,351 0,155 13,388 -202,388 -198,0 -287,-250 -287,-415 0,-173 86,-373 257,-435 20,-8 38,-21 38,-38 0,-8 -4,-17 -14,-25 -17,-14 -41,-20 -64,-20 -19,0 -39,4 -55,10 -210,80 -324,293 -324,512 0,269 163,502 449,502zm2508 -92c-62,-1 -111,-40 -144,-90 -36,-54 -54,-124 -54,-198 0,-86 25,-172 77,-242 60,-80 150,-126 250,-126 59,89 82,193 82,298 0,88 -18,181 -64,257 -41,67 -90,102 -147,101zm-1629 -281c-92,0 -127,-117 -127,-194 0,-108 47,-217 128,-289 82,71 128,181 128,289 0,76 -36,194 -129,194z"/>
 </g>
</svg>
