<?xml version="1.0" encoding="UTF-8"?>
<!DOCTYPE svg PUBLIC "-//W3C//DTD SVG 1.1//EN" "http://www.w3.org/Graphics/SVG/1.1/DTD/svg11.dtd">
<!-- Creator: CorelDRAW X8 -->
<svg xmlns="http://www.w3.org/2000/svg" xml:space="preserve" width="3329px" height="1024px" version="1.1" style="shape-rendering:geometricPrecision; text-rendering:geometricPrecision; image-rendering:optimizeQuality; fill-rule:evenodd; clip-rule:evenodd"
viewBox="0 0 3329 1024"
 xmlns:xlink="http://www.w3.org/1999/xlink">
 <defs>
  <style type="text/css">
   <![CDATA[
    .fil0 {fill:#CC6633;fill-rule:nonzero}
   ]]>
  </style>
 </defs>
 <g id="Layer_x0020_1">
  <metadata id="CorelCorpID_0Corel-Layer"/>
  <path class="fil0" d="M3084 276c-100,0 -190,46 -250,126 -52,69 -77,156 -77,242 0,74 19,144 55,198 33,50 82,89 144,90 56,0 105,-34 146,-101 44,-72 63,-161 64,-250 2,-108 -21,-215 -82,-305zm-1754 -240c59,-23 123,-34 188,-35 106,-1 206,29 287,84 92,63 161,157 191,276 23,89 20,185 -6,274 -36,122 -108,212 -203,273l495 0c-92,-97 -142,-220 -143,-352 0,-104 29,-207 84,-297 112,-186 304,-258 514,-259 228,-2 429,92 533,301 42,84 61,179 59,280 -1,99 -24,199 -73,279 -69,114 -181,164 -300,163 -118,-1 -229,-48 -297,-149 -43,-65 -65,-146 -65,-230 0,-98 31,-199 91,-277 78,-104 197,-162 324,-178 -79,-70 -166,-100 -271,-99 -156,2 -279,62 -361,198 -48,80 -75,172 -75,265 0,149 67,286 193,371 11,8 18,17 19,27 4,35 -55,48 -82,48l-1311 0c-45,0 -81,-20 -81,-45 0,-26 36,-46 81,-46l349 0c178,0 311,-122 359,-288 24,-80 26,-166 6,-247 -19,-75 -57,-146 -111,-198 -57,-54 -130,-85 -206,-83 -24,0 -48,4 -71,11 106,83 173,216 174,351 1,171 -117,291 -292,291 -176,-1 -291,-120 -290,-291 0,-135 68,-269 174,-352 -28,-8 -56,-12 -86,-11 -114,4 -214,53 -269,158 -46,88 -47,194 -46,291 2,277 -20,488 -366,484 -274,-2 -437,-225 -446,-479 -8,-226 107,-452 323,-535 16,-6 36,-10 55,-10 24,0 48,6 65,21 9,7 13,16 13,24 0,15 -13,30 -37,39 -180,65 -265,281 -256,461 8,156 102,387 283,388 220,3 205,-235 204,-393 -1,-121 1,-242 70,-346 85,-130 244,-191 407,-194 68,-1 140,11 203,36zm0 133c-80,69 -128,179 -129,285 0,77 35,197 128,198 93,0 129,-121 129,-198 0,-106 -49,-216 -128,-285z"/>
 </g>
</svg>
