<?xml version="1.0" encoding="UTF-8"?>
<!DOCTYPE svg PUBLIC "-//W3C//DTD SVG 1.1//EN" "http://www.w3.org/Graphics/SVG/1.1/DTD/svg11.dtd">
<!-- Creator: CorelDRAW X8 -->
<svg xmlns="http://www.w3.org/2000/svg" xml:space="preserve" width="3744px" height="1486px" version="1.1" style="shape-rendering:geometricPrecision; text-rendering:geometricPrecision; image-rendering:optimizeQuality; fill-rule:evenodd; clip-rule:evenodd"
viewBox="0 0 3744 1486"
 xmlns:xlink="http://www.w3.org/1999/xlink">
 <defs>
  <style type="text/css">
   <![CDATA[
    .fil0 {fill:#CC6633;fill-rule:nonzero}
   ]]>
  </style>
 </defs>
 <g id="Layer_x0020_1">
  <metadata id="CorelCorpID_0Corel-Layer"/>
  <path class="fil0" d="M3078 269c-95,14 -184,55 -243,133 -53,69 -78,156 -78,242 0,74 19,144 55,198 33,50 82,89 144,90 57,0 106,-34 147,-101 43,-72 63,-161 64,-250 1,-119 -26,-235 -89,-312zm-1747 -233c58,-23 122,-34 187,-35 107,-1 206,29 288,84 92,63 160,157 190,276 23,89 20,185 -6,274 -36,122 -108,213 -203,274l495 0c-91,-97 -141,-221 -142,-353 0,-104 29,-206 83,-296 112,-185 310,-259 514,-260 169,-1 329,47 449,178 152,-7 337,25 450,127 73,66 112,168 107,264 -5,81 -40,159 -113,208 66,35 114,96 114,173 0,172 -172,230 -325,230l-2081 0c-89,0 -133,26 -132,85 2,62 46,83 132,83l2288 0c45,0 82,31 82,69 0,38 -37,69 -82,69l-2288 0c-137,0 -300,-35 -296,-204 2,-123 94,-193 296,-193l2081 0c91,0 165,-41 162,-139 -1,-38 -16,-76 -45,-99 -32,-26 -65,-20 -105,-23 -54,-4 -75,-26 -74,-47 1,-22 24,-42 74,-43 39,-1 70,-13 93,-33 41,-33 57,-87 59,-143 10,-190 -166,-291 -333,-297 59,100 81,200 79,316 -1,99 -24,199 -72,279 -69,114 -182,164 -301,163 -118,-1 -229,-48 -296,-149 -43,-65 -66,-146 -66,-230 0,-98 32,-199 91,-277 78,-104 197,-162 325,-178 -81,-71 -168,-99 -271,-98 -153,2 -281,64 -362,198 -48,79 -74,172 -74,265 0,148 66,286 193,371 12,8 19,19 19,30 -1,33 -56,45 -82,45l-1312 0c-45,0 -81,-20 -81,-46 0,-25 36,-45 81,-45l350 0c177,0 310,-123 359,-289 23,-80 26,-166 5,-247 -19,-75 -57,-146 -111,-198 -57,-54 -130,-85 -206,-83 -23,0 -47,4 -71,11 106,83 173,216 174,351 1,171 -116,291 -292,291 -176,-1 -291,-120 -290,-291 1,-135 69,-269 175,-352 -29,-8 -57,-12 -87,-11 -114,4 -214,53 -269,158 -46,88 -46,194 -46,291 2,277 -20,488 -365,484 -275,-2 -438,-225 -446,-479 -8,-226 106,-452 323,-535 16,-6 35,-10 54,-10 24,0 48,6 66,21 9,8 13,16 13,25 -1,15 -14,29 -37,38 -181,65 -265,281 -257,461 8,156 103,387 284,388 220,3 204,-235 203,-393 -1,-121 1,-242 70,-346 86,-130 245,-191 407,-194 68,-1 141,11 204,36zm-1 133c-79,69 -128,179 -128,285 -1,77 34,197 127,198 93,0 130,-121 129,-198 0,-106 -48,-216 -128,-285z"/>
 </g>
</svg>
