<?xml version="1.0" encoding="UTF-8"?>
<!DOCTYPE svg PUBLIC "-//W3C//DTD SVG 1.1//EN" "http://www.w3.org/Graphics/SVG/1.1/DTD/svg11.dtd">
<!-- Creator: CorelDRAW X8 -->
<svg xmlns="http://www.w3.org/2000/svg" xml:space="preserve" width="1463px" height="868px" version="1.1" style="shape-rendering:geometricPrecision; text-rendering:geometricPrecision; image-rendering:optimizeQuality; fill-rule:evenodd; clip-rule:evenodd"
viewBox="0 0 1463 868"
 xmlns:xlink="http://www.w3.org/1999/xlink">
 <defs>
  <style type="text/css">
   <![CDATA[
    .fil0 {fill:#CC6633;fill-rule:nonzero}
   ]]>
  </style>
 </defs>
 <g id="Layer_x0020_1">
  <metadata id="CorelCorpID_0Corel-Layer"/>
  <path class="fil0" d="M1043 540c38,0 64,-23 82,-56 25,-44 34,-105 34,-144 -1,-63 -16,-128 -47,-174 -58,5 -101,33 -129,73 -27,38 -41,88 -43,136 -1,34 5,68 16,96 17,41 47,69 87,69zm161 -424c151,33 259,127 259,292 0,112 -42,207 -124,283 -137,126 -382,176 -563,177 -181,1 -386,-30 -541,-128 -149,-94 -228,-233 -234,-409 -5,-128 38,-251 152,-320 12,-8 31,-11 49,-11 16,0 31,3 42,8 11,6 18,14 18,22 0,6 -4,13 -13,18 -98,60 -130,174 -126,283 6,149 65,275 190,361 130,91 305,118 461,117 159,0 383,-43 492,-168 56,-65 82,-142 82,-227 0,-78 -26,-147 -81,-186 10,36 15,74 15,112 -1,56 -14,114 -44,162 -43,69 -115,98 -194,97 -74,0 -145,-26 -188,-89 -27,-39 -40,-86 -40,-133 0,-58 19,-116 55,-162 47,-60 117,-93 192,-104 -40,-32 -91,-52 -142,-52 -65,0 -124,31 -155,89 -28,51 -28,112 -28,168 2,181 -22,286 -232,284 -165,-1 -274,-119 -280,-281 -4,-134 67,-264 196,-312 13,-4 29,-7 46,-7 18,0 37,4 49,14 6,5 8,11 8,16 0,10 -12,19 -25,23 -105,37 -156,161 -151,266 5,91 45,221 158,222 120,1 110,-140 109,-225 -1,-70 1,-140 42,-201 58,-84 166,-115 263,-115 105,-1 212,34 283,116z"/>
 </g>
</svg>
