<?xml version="1.0" encoding="UTF-8"?>
<!DOCTYPE svg PUBLIC "-//W3C//DTD SVG 1.1//EN" "http://www.w3.org/Graphics/SVG/1.1/DTD/svg11.dtd">
<!-- Creator: CorelDRAW X8 -->
<svg xmlns="http://www.w3.org/2000/svg" xml:space="preserve" width="1717px" height="1012px" version="1.1" style="shape-rendering:geometricPrecision; text-rendering:geometricPrecision; image-rendering:optimizeQuality; fill-rule:evenodd; clip-rule:evenodd"
viewBox="0 0 1717 1012"
 xmlns:xlink="http://www.w3.org/1999/xlink">
 <defs>
  <style type="text/css">
   <![CDATA[
    .fil0 {fill:#2B2A29;fill-rule:nonzero}
   ]]>
  </style>
 </defs>
 <g id="Layer_x0020_1">
  <metadata id="CorelCorpID_0Corel-Layer"/>
  <path class="fil0" d="M220 1012c22,0 45,-5 62,-17 12,-9 18,-19 18,-28 0,-14 -12,-28 -31,-36 -74,-33 -106,-118 -106,-195 0,-135 95,-208 189,-208 94,1 187,74 187,208 0,72 -26,148 -91,186 -12,7 -23,18 -23,32 0,25 36,46 81,46l1130 0c26,0 81,-12 81,-46l0 -909c0,-25 -36,-45 -81,-45 -45,0 -82,20 -82,45 0,171 -127,405 -283,482l1 -246c0,-158 -131,-236 -276,-236 -148,0 -286,93 -287,257 0,91 46,171 115,231 80,70 179,101 284,105l0 270 -458 0c34,-48 52,-108 52,-172 0,-196 -175,-298 -350,-298 -178,0 -352,102 -352,298 0,115 58,215 163,264 17,8 37,12 57,12zm889 -465c-68,-5 -132,-39 -176,-89 -37,-43 -61,-99 -61,-156 0,-69 47,-166 124,-166 76,0 113,78 113,145l0 266zm445 361l-283 0 0 -289c144,-60 228,-164 283,-275l0 564z"/>
 </g>
</svg>
