<?xml version="1.0" encoding="UTF-8"?>
<!DOCTYPE svg PUBLIC "-//W3C//DTD SVG 1.1//EN" "http://www.w3.org/Graphics/SVG/1.1/DTD/svg11.dtd">
<!-- Creator: CorelDRAW X8 -->
<svg xmlns="http://www.w3.org/2000/svg" xml:space="preserve" width="2082px" height="1486px" version="1.1" style="shape-rendering:geometricPrecision; text-rendering:geometricPrecision; image-rendering:optimizeQuality; fill-rule:evenodd; clip-rule:evenodd"
viewBox="0 0 2082 1487"
 xmlns:xlink="http://www.w3.org/1999/xlink">
 <defs>
  <style type="text/css">
   <![CDATA[
    .fil0 {fill:#2B2A29;fill-rule:nonzero}
   ]]>
  </style>
 </defs>
 <g id="Layer_x0020_1">
  <metadata id="CorelCorpID_0Corel-Layer"/>
  <path class="fil0" d="M1152 1487c180,0 489,-31 696,-143 136,-76 234,-186 234,-345l0 -954c0,-25 -37,-45 -82,-45 -45,0 -81,20 -81,45 0,170 -128,405 -283,481l0 -247c0,-157 -132,-234 -275,-234 -154,0 -287,94 -287,257 0,90 46,172 114,231 80,70 180,101 285,105l0 270 -459 0c34,-48 52,-108 52,-172 0,-196 -174,-298 -350,-299 -176,0 -352,103 -352,299 0,115 58,215 163,264 17,8 37,12 57,12 22,0 45,-4 62,-17 12,-9 18,-19 18,-28 0,-14 -12,-28 -31,-36 -74,-33 -106,-118 -106,-195 0,-135 95,-208 189,-208 93,0 186,74 186,208 0,72 -24,148 -90,186 -12,7 -23,18 -23,32 0,25 36,46 81,46l1048 0c0,112 -60,192 -149,254 -159,110 -427,143 -617,143 -333,0 -705,-89 -888,-393 -71,-118 -101,-259 -101,-396 0,-209 67,-421 237,-533 14,-9 20,-19 20,-29 0,-14 -11,-26 -29,-35 -15,-7 -35,-11 -54,-11 -23,0 -45,5 -61,16 -195,129 -276,361 -276,592 0,168 46,338 144,476 224,315 644,403 1008,403zm321 -940c-67,-5 -131,-39 -175,-89 -38,-43 -62,-99 -62,-156 0,-69 48,-166 125,-166 76,0 113,79 113,145l-1 266zm446 361l-283 0 0 -289c143,-60 228,-164 283,-275l0 564z"/>
 </g>
</svg>
