<?xml version="1.0" encoding="UTF-8"?>
<!DOCTYPE svg PUBLIC "-//W3C//DTD SVG 1.1//EN" "http://www.w3.org/Graphics/SVG/1.1/DTD/svg11.dtd">
<!-- Creator: CorelDRAW X8 -->
<svg xmlns="http://www.w3.org/2000/svg" xml:space="preserve" width="2081px" height="1486px" version="1.1" style="shape-rendering:geometricPrecision; text-rendering:geometricPrecision; image-rendering:optimizeQuality; fill-rule:evenodd; clip-rule:evenodd"
viewBox="0 0 2081 1486"
 xmlns:xlink="http://www.w3.org/1999/xlink">
 <defs>
  <style type="text/css">
   <![CDATA[
    .fil0 {fill:#009846;fill-rule:nonzero}
   ]]>
  </style>
 </defs>
 <g id="Layer_x0020_1">
  <metadata id="CorelCorpID_0Corel-Layer"/>
  <path class="fil0" d="M2081 999c0,158 -98,269 -234,344 -207,112 -513,143 -693,143 -363,0 -786,-88 -1010,-403 -93,-131 -143,-297 -144,-467 -2,-233 79,-469 276,-600 30,-20 82,-20 115,-5 31,15 41,43 9,64 -172,114 -239,329 -237,541 1,140 36,279 101,387 184,306 559,394 893,393 172,-1 447,-29 611,-143 85,-58 152,-143 149,-253l-1047 0c-45,0 -81,-21 -81,-46 0,-14 11,-25 23,-32 65,-38 90,-114 90,-186 0,-134 -93,-208 -186,-208 -94,0 -189,73 -189,208 0,77 32,162 106,195 31,14 44,42 13,64 -33,22 -84,21 -119,5 -105,-49 -163,-149 -163,-264 0,-196 176,-299 352,-299 175,1 349,103 349,299 0,64 -17,124 -52,172l459 0 0 -270c-105,-4 -204,-35 -285,-105 -68,-60 -115,-141 -114,-232 1,-168 145,-260 298,-256 140,3 265,82 264,236l0 245c149,-73 284,-306 283,-481 0,-25 36,-45 81,-45 45,0 82,20 82,45l0 954zm-163 -91l0 -564c-55,111 -140,215 -283,275l0 289 283 0zm-446 -361l1 -266c0,-64 -35,-142 -108,-145 -80,-4 -129,96 -129,166 0,57 23,113 61,156 44,50 108,84 175,89z"/>
 </g>
</svg>
