<?xml version="1.0" encoding="UTF-8"?>
<!DOCTYPE svg PUBLIC "-//W3C//DTD SVG 1.1//EN" "http://www.w3.org/Graphics/SVG/1.1/DTD/svg11.dtd">
<!-- Creator: CorelDRAW X8 -->
<svg xmlns="http://www.w3.org/2000/svg" xml:space="preserve" width="1284px" height="600px" version="1.1" style="shape-rendering:geometricPrecision; text-rendering:geometricPrecision; image-rendering:optimizeQuality; fill-rule:evenodd; clip-rule:evenodd"
viewBox="0 0 1284 600"
 xmlns:xlink="http://www.w3.org/1999/xlink">
 <defs>
  <style type="text/css">
   <![CDATA[
    .fil0 {fill:#CC6633;fill-rule:nonzero}
   ]]>
  </style>
 </defs>
 <g id="Layer_x0020_1">
  <metadata id="CorelCorpID_0Corel-Layer"/>
  <path class="fil0" d="M487 58c-50,-44 -121,-58 -186,-58 -112,0 -220,49 -270,153 -22,44 -31,94 -31,143 0,123 53,246 171,296 13,5 30,8 47,8 17,0 35,-4 47,-13 8,-6 11,-12 10,-18 -1,-9 -9,-16 -21,-21 -94,-39 -132,-158 -131,-252 0,-39 6,-79 21,-116 25,-62 86,-121 157,-121 89,0 128,74 128,154l0 357c0,24 44,30 61,30 17,0 61,-6 61,-30l0 -357c0,-72 28,-152 111,-154 46,-1 86,46 100,85 20,53 19,112 19,168 0,61 2,124 28,180 39,83 116,108 203,108 115,0 204,-52 247,-161 18,-44 25,-91 25,-139 -1,-127 -65,-244 -187,-291 -12,-5 -27,-8 -43,-8 -20,-1 -40,3 -54,14 -6,5 -9,10 -9,14 0,11 12,20 25,25 99,35 145,147 146,246 0,39 -7,81 -20,117 -20,57 -63,124 -130,124 -46,0 -75,-36 -90,-76 -18,-49 -19,-104 -19,-155 0,-59 0,-121 -20,-177 -35,-92 -128,-133 -222,-133 -62,0 -127,14 -174,58z"/>
 </g>
</svg>
