<?xml version="1.0" encoding="UTF-8"?>
<!DOCTYPE svg PUBLIC "-//W3C//DTD SVG 1.1//EN" "http://www.w3.org/Graphics/SVG/1.1/DTD/svg11.dtd">
<!-- Creator: CorelDRAW X8 -->
<svg xmlns="http://www.w3.org/2000/svg" xml:space="preserve" width="2099px" height="1024px" version="1.1" style="shape-rendering:geometricPrecision; text-rendering:geometricPrecision; image-rendering:optimizeQuality; fill-rule:evenodd; clip-rule:evenodd"
viewBox="0 0 2099 1024"
 xmlns:xlink="http://www.w3.org/1999/xlink">
 <defs>
  <style type="text/css">
   <![CDATA[
    .fil0 {fill:#009846;fill-rule:nonzero}
   ]]>
  </style>
 </defs>
 <g id="Layer_x0020_1">
  <metadata id="CorelCorpID_0Corel-Layer"/>
  <path class="fil0" d="M792 116c62,-73 166,-113 290,-116 156,-3 294,74 348,225 34,96 35,207 35,308 0,142 5,400 201,400 192,0 269,-240 271,-400 2,-172 -73,-384 -248,-449 -29,-11 -52,-38 -22,-63 33,-28 85,-23 123,-8 212,84 312,301 309,520 -4,262 -143,491 -433,491 -316,0 -363,-231 -364,-491 0,-96 1,-199 -32,-290 -28,-80 -98,-154 -188,-152 -155,3 -205,137 -205,271l0 616c0,25 -36,46 -81,46 -45,0 -82,-21 -82,-46l0 -616c0,-149 -70,-271 -232,-271 -131,0 -238,96 -284,214 -26,67 -36,141 -35,214 2,158 67,357 223,423 30,13 46,41 15,64 -32,23 -83,22 -118,7 -194,-86 -280,-293 -283,-494 -1,-91 14,-181 51,-260 79,-169 248,-259 431,-259 130,0 239,39 310,116z"/>
 </g>
</svg>
