<?xml version="1.0" encoding="UTF-8"?>
<!DOCTYPE svg PUBLIC "-//W3C//DTD SVG 1.1//EN" "http://www.w3.org/Graphics/SVG/1.1/DTD/svg11.dtd">
<!-- Creator: CorelDRAW X8 -->
<svg xmlns="http://www.w3.org/2000/svg" xml:space="preserve" width="1284px" height="600px" version="1.1" style="shape-rendering:geometricPrecision; text-rendering:geometricPrecision; image-rendering:optimizeQuality; fill-rule:evenodd; clip-rule:evenodd"
viewBox="0 0 1284 600"
 xmlns:xlink="http://www.w3.org/1999/xlink">
 <defs>
  <style type="text/css">
   <![CDATA[
    .fil0 {fill:#CC6633;fill-rule:nonzero}
   ]]>
  </style>
 </defs>
 <g id="Layer_x0020_1">
  <metadata id="CorelCorpID_0Corel-Layer"/>
  <path class="fil0" d="M487 58c47,-44 112,-58 174,-58 94,0 187,41 222,133 20,56 20,118 21,177 0,51 0,106 18,155 15,40 44,76 90,76 67,0 110,-67 130,-124 13,-36 20,-78 20,-117 -1,-99 -47,-211 -146,-246 -13,-5 -25,-14 -25,-25 1,-4 3,-10 9,-15 14,-11 34,-14 54,-14 16,1 31,4 43,9 123,47 186,163 187,291 1,48 -7,95 -24,139 -44,109 -133,161 -248,161 -87,0 -164,-25 -203,-108 -26,-56 -28,-119 -28,-180 0,-56 1,-115 -19,-168 -14,-39 -54,-86 -100,-85 -83,2 -111,82 -111,154l0 357c0,24 -44,30 -61,30 -17,0 -62,-6 -62,-30l0 -357c0,-80 -38,-154 -127,-154 -71,0 -132,59 -157,121 -15,37 -21,77 -22,116 0,94 38,213 132,252 12,5 20,12 21,21 1,6 -2,12 -10,19 -12,8 -30,12 -47,12 -17,0 -34,-3 -47,-8 -118,-50 -172,-173 -171,-296 0,-49 9,-99 31,-143 50,-104 158,-153 270,-153 65,0 136,14 186,58z"/>
 </g>
</svg>
