<?xml version="1.0" encoding="UTF-8"?>
<!DOCTYPE svg PUBLIC "-//W3C//DTD SVG 1.1//EN" "http://www.w3.org/Graphics/SVG/1.1/DTD/svg11.dtd">
<!-- Creator: CorelDRAW X8 -->
<svg xmlns="http://www.w3.org/2000/svg" xml:space="preserve" width="1284px" height="600px" version="1.1" style="shape-rendering:geometricPrecision; text-rendering:geometricPrecision; image-rendering:optimizeQuality; fill-rule:evenodd; clip-rule:evenodd"
viewBox="0 0 1284 600"
 xmlns:xlink="http://www.w3.org/1999/xlink">
 <defs>
  <style type="text/css">
   <![CDATA[
    .fil0 {fill:#2B2A29;fill-rule:nonzero}
   ]]>
  </style>
 </defs>
 <g id="Layer_x0020_1">
  <metadata id="CorelCorpID_0Corel-Layer"/>
  <path class="fil0" d="M301 0c-112,0 -220,49 -270,153 -23,46 -31,95 -31,146 0,122 54,243 171,293 12,5 29,8 45,8 18,0 36,-4 49,-12 7,-6 11,-11 11,-17 0,-9 -9,-18 -22,-23 -94,-39 -132,-158 -132,-252 1,-39 7,-79 22,-116 25,-62 86,-121 157,-121 89,0 127,74 127,154l0 357c0,24 45,30 62,30 17,0 61,-6 61,-30l0 -357c0,-70 28,-154 112,-154 46,0 85,46 99,85 19,51 19,112 19,166 0,64 1,123 28,182 39,83 116,108 203,108 115,0 204,-52 248,-161 16,-42 24,-94 24,-139 0,-131 -59,-242 -187,-291 -13,-5 -31,-9 -48,-9 -18,0 -37,4 -49,14 -6,5 -9,10 -9,15 0,11 12,20 25,25 99,35 145,147 146,246 0,39 -7,81 -20,117 -20,57 -63,124 -130,124 -46,0 -75,-36 -90,-76 -18,-49 -18,-104 -18,-155 -1,-59 0,-121 -21,-177 -34,-92 -126,-133 -220,-133 -62,0 -129,14 -176,58 -50,-44 -121,-58 -186,-58z"/>
 </g>
</svg>
