<?xml version="1.0" encoding="UTF-8"?>
<!DOCTYPE svg PUBLIC "-//W3C//DTD SVG 1.1//EN" "http://www.w3.org/Graphics/SVG/1.1/DTD/svg11.dtd">
<!-- Creator: CorelDRAW X8 -->
<svg xmlns="http://www.w3.org/2000/svg" xml:space="preserve" width="2443px" height="1486px" version="1.1" style="shape-rendering:geometricPrecision; text-rendering:geometricPrecision; image-rendering:optimizeQuality; fill-rule:evenodd; clip-rule:evenodd"
viewBox="0 0 2443 1486"
 xmlns:xlink="http://www.w3.org/1999/xlink">
 <defs>
  <style type="text/css">
   <![CDATA[
    .fil0 {fill:#434242;fill-rule:nonzero}
   ]]>
  </style>
 </defs>
 <g id="Layer_x0020_1">
  <metadata id="CorelCorpID_0Corel-Layer"/>
  <path class="fil0" d="M681 1024c23,0 45,-5 62,-18 11,-8 16,-18 16,-27 0,-14 -10,-28 -31,-37 -160,-67 -223,-273 -223,-433 0,-70 10,-138 35,-204 46,-118 153,-214 284,-214 162,0 232,122 232,271l0 616c0,26 37,46 82,46 46,0 82,-20 82,-46l0 -616c0,-131 46,-271 204,-271 96,0 157,64 189,152 30,86 32,182 32,273 0,266 39,508 364,508 64,0 122,-11 172,-32 -27,42 -59,82 -92,116 -202,211 -519,287 -802,287 -281,0 -547,-72 -749,-199 -241,-152 -375,-393 -375,-678 0,-183 71,-356 205,-441 14,-9 20,-19 20,-30 0,-13 -10,-27 -27,-35 -15,-8 -34,-11 -53,-11 -23,0 -46,4 -62,15 -162,102 -246,297 -246,502 0,345 187,617 486,778 224,121 505,190 801,190 312,0 662,-81 894,-301 172,-163 262,-395 262,-631 0,-119 -19,-233 -79,-337 -51,-89 -128,-162 -231,-204 -19,-7 -40,-13 -61,-13 -23,0 -44,6 -62,21 -10,8 -14,17 -14,25 0,16 17,31 36,38 173,64 248,272 248,442 0,159 -76,407 -271,407 -196,0 -201,-275 -201,-417 0,-101 -1,-195 -35,-291 -53,-148 -197,-225 -349,-225 -108,0 -217,32 -290,116 -71,-77 -180,-116 -310,-116 -183,0 -352,90 -431,259 -36,79 -51,164 -51,250 0,204 85,418 283,505 16,7 36,10 56,10z"/>
 </g>
</svg>
