<?xml version="1.0" encoding="UTF-8"?>
<!DOCTYPE svg PUBLIC "-//W3C//DTD SVG 1.1//EN" "http://www.w3.org/Graphics/SVG/1.1/DTD/svg11.dtd">
<!-- Creator: CorelDRAW X8 -->
<svg xmlns="http://www.w3.org/2000/svg" xml:space="preserve" width="3133px" height="1024px" version="1.1" style="shape-rendering:geometricPrecision; text-rendering:geometricPrecision; image-rendering:optimizeQuality; fill-rule:evenodd; clip-rule:evenodd"
viewBox="0 0 3133 1024"
 xmlns:xlink="http://www.w3.org/1999/xlink">
 <defs>
  <style type="text/css">
   <![CDATA[
    .fil0 {fill:#2B2A29;fill-rule:nonzero}
   ]]>
  </style>
 </defs>
 <g id="Layer_x0020_1">
  <metadata id="CorelCorpID_0Corel-Layer"/>
  <path class="fil0" d="M339 1024c23,0 45,-5 62,-18 11,-8 16,-18 16,-27 0,-14 -10,-28 -31,-37 -160,-67 -223,-273 -223,-433 0,-70 10,-138 35,-204 46,-118 153,-214 284,-214 162,0 232,122 232,271l0 616c0,25 37,46 82,46 45,0 81,-21 81,-46l0 -616c0,-131 47,-271 205,-271 96,0 157,64 188,152 31,86 32,170 32,261 0,265 40,496 365,496l1385 0c26,0 81,-12 81,-46l0 -555c0,-256 -227,-399 -445,-399 -219,0 -431,129 -431,392l0 516 -316 0c107,-89 159,-234 159,-397 0,-215 -100,-415 -309,-498 -19,-8 -40,-13 -61,-13 -23,0 -45,6 -63,21 -10,8 -14,17 -14,25 0,16 18,31 36,38 174,64 249,260 249,430 0,159 -76,395 -271,395 -197,0 -202,-263 -202,-405 0,-101 0,-183 -35,-279 -52,-148 -196,-225 -348,-225 -108,0 -217,32 -290,116 -71,-77 -180,-116 -310,-116 -183,0 -352,90 -431,259 -37,79 -51,164 -51,250 0,204 85,417 283,504 16,7 36,11 56,11zm2632 -116l-552 0 0 -516c0,-205 130,-301 267,-301 138,0 285,108 285,308l0 509z"/>
 </g>
</svg>
