<?xml version="1.0" encoding="UTF-8"?>
<!DOCTYPE svg PUBLIC "-//W3C//DTD SVG 1.1//EN" "http://www.w3.org/Graphics/SVG/1.1/DTD/svg11.dtd">
<!-- Creator: CorelDRAW X8 -->
<svg xmlns="http://www.w3.org/2000/svg" xml:space="preserve" width="1499px" height="868px" version="1.1" style="shape-rendering:geometricPrecision; text-rendering:geometricPrecision; image-rendering:optimizeQuality; fill-rule:evenodd; clip-rule:evenodd"
viewBox="0 0 1499 868"
 xmlns:xlink="http://www.w3.org/1999/xlink">
 <defs>
  <style type="text/css">
   <![CDATA[
    .fil0 {fill:#CC6633;fill-rule:nonzero}
   ]]>
  </style>
 </defs>
 <g id="Layer_x0020_1">
  <metadata id="CorelCorpID_0Corel-Layer"/>
  <path class="fil0" d="M1499 322c0,96 -26,191 -77,272 -130,206 -396,273 -625,274 -169,1 -346,-34 -496,-112 -162,-84 -286,-236 -300,-422 -9,-124 30,-255 140,-323 12,-7 29,-10 46,-11 17,0 34,3 45,9 12,5 18,13 18,21 0,6 -4,13 -13,19 -93,57 -120,177 -113,281 10,151 104,288 231,365 129,79 290,114 440,114 191,-1 397,-57 513,-219 -25,7 -53,10 -82,10 -87,0 -164,-25 -203,-108 -26,-56 -28,-119 -28,-179 0,-56 1,-116 -19,-169 -14,-39 -54,-86 -100,-85 -83,2 -111,82 -111,154l0 358c0,23 -44,29 -61,29 -17,0 -62,-6 -62,-29l0 -358c0,-80 -38,-154 -127,-154 -71,0 -132,59 -157,121 -15,37 -22,77 -22,116 0,94 38,213 132,252 12,5 21,13 21,22 1,6 -2,12 -10,18 -12,8 -30,12 -47,12 -17,1 -34,-3 -47,-8 -118,-50 -172,-173 -171,-296 0,-49 9,-99 30,-143 51,-104 159,-153 271,-153 65,0 136,14 186,58 46,-44 112,-58 174,-58 94,0 187,41 222,133 20,56 20,118 20,177 0,51 1,106 19,155 15,40 44,76 90,76 67,0 110,-67 130,-123 13,-37 20,-79 20,-117 -1,-100 -47,-212 -146,-247 -13,-5 -25,-14 -25,-24 0,-5 3,-10 9,-15 13,-11 33,-15 52,-14 16,0 33,3 45,8 140,54 188,180 188,313z"/>
 </g>
</svg>
