<?xml version="1.0" encoding="UTF-8"?>
<!DOCTYPE svg PUBLIC "-//W3C//DTD SVG 1.1//EN" "http://www.w3.org/Graphics/SVG/1.1/DTD/svg11.dtd">
<!-- Creator: CorelDRAW X8 -->
<svg xmlns="http://www.w3.org/2000/svg" xml:space="preserve" width="2109px" height="1486px" version="1.1" style="shape-rendering:geometricPrecision; text-rendering:geometricPrecision; image-rendering:optimizeQuality; fill-rule:evenodd; clip-rule:evenodd"
viewBox="0 0 2109 1486"
 xmlns:xlink="http://www.w3.org/1999/xlink">
 <defs>
  <style type="text/css">
   <![CDATA[
    .fil0 {fill:#898778}
   ]]>
  </style>
 </defs>
 <g id="Layer_x0020_1">
  <metadata id="CorelCorpID_0Corel-Layer"/>
  <path class="fil0" d="M1297 1408c62,0 138,-4 195,-30 39,-18 66,-47 65,-91 -2,-50 -58,-70 -101,-71 -56,0 -87,41 -87,97 0,31 -47,40 -71,40 -24,0 -71,-9 -71,-40 0,-56 -31,-97 -87,-97 -43,1 -99,21 -101,71 -2,44 26,73 65,91 56,25 131,30 193,30zm-505 -1292c62,-73 166,-113 290,-116 155,-3 294,74 348,225 34,96 34,207 35,308 0,142 5,400 201,400 192,0 269,-240 271,-400 2,-172 -73,-384 -248,-449 -29,-11 -52,-38 -23,-63 33,-28 86,-23 124,-8 172,68 254,211 292,372 18,79 27,168 27,256 0,94 -8,187 -26,271 -39,186 -125,357 -298,460 -84,50 -196,83 -307,100 -62,9 -123,13 -180,14 -79,0 -170,-9 -244,-36 -84,-30 -144,-96 -143,-163 0,-38 21,-77 68,-107 40,-26 101,-39 161,-39 53,0 114,11 158,40 44,-29 105,-40 158,-40 60,0 120,13 161,39 48,30 69,69 69,107 0,16 -4,33 -10,48 149,-84 226,-226 252,-397 -67,54 -154,86 -262,86 -317,0 -364,-231 -364,-491 0,-96 1,-199 -32,-290 -28,-80 -98,-154 -188,-152 -155,3 -205,137 -205,271l0 616c0,25 -36,46 -81,46 -45,0 -82,-21 -82,-46l0 -616c0,-150 -70,-271 -232,-271 -131,0 -238,96 -284,214 -26,67 -36,141 -35,214 2,158 67,357 223,423 30,13 46,41 15,64 -32,23 -83,22 -118,7 -194,-86 -280,-293 -283,-494 -1,-91 14,-181 51,-260 79,-169 248,-259 431,-259 130,0 239,39 310,116z"/>
 </g>
</svg>
