<?xml version="1.0" encoding="UTF-8"?>
<!DOCTYPE svg PUBLIC "-//W3C//DTD SVG 1.1//EN" "http://www.w3.org/Graphics/SVG/1.1/DTD/svg11.dtd">
<!-- Creator: CorelDRAW X8 -->
<svg xmlns="http://www.w3.org/2000/svg" xml:space="preserve" width="2443px" height="1486px" version="1.1" style="shape-rendering:geometricPrecision; text-rendering:geometricPrecision; image-rendering:optimizeQuality; fill-rule:evenodd; clip-rule:evenodd"
viewBox="0 0 2443 1485"
 xmlns:xlink="http://www.w3.org/1999/xlink">
 <defs>
  <style type="text/css">
   <![CDATA[
    .fil0 {fill:#CC6633;fill-rule:nonzero}
   ]]>
  </style>
 </defs>
 <g id="Layer_x0020_1">
  <metadata id="CorelCorpID_0Corel-Layer"/>
  <path class="fil0" d="M1134 116c63,-73 166,-113 290,-116 156,-3 294,74 348,225 35,96 35,207 35,308 0,142 5,400 202,400 185,0 263,-224 270,-383 7,-176 -68,-400 -247,-466 -24,-9 -37,-23 -36,-38 0,-9 4,-17 13,-25 18,-15 41,-20 65,-20 21,0 41,5 59,12 223,88 309,312 310,537 1,236 -89,471 -262,635 -221,207 -553,299 -888,300 -298,2 -581,-68 -807,-190 -264,-142 -459,-372 -484,-725 -16,-223 69,-443 245,-554 16,-10 38,-15 60,-15 19,0 39,3 54,11 18,9 28,22 28,34 0,11 -7,22 -21,30 -145,92 -217,288 -203,488 19,298 166,501 374,631 202,128 469,200 752,199 305,-1 608,-88 798,-286 33,-35 64,-73 91,-116 -50,20 -107,32 -171,32 -317,0 -364,-231 -364,-491 0,-96 0,-199 -32,-290 -29,-80 -99,-154 -189,-152 -155,3 -204,137 -204,271l0 616c0,25 -37,46 -82,46 -45,0 -81,-21 -81,-46l0 -616c0,-150 -71,-271 -233,-271 -131,0 -237,96 -283,214 -27,67 -37,141 -36,214 3,158 67,357 223,423 22,9 33,23 32,37 0,10 -5,19 -16,27 -32,23 -83,22 -118,7 -195,-86 -280,-293 -283,-494 -2,-91 14,-181 51,-260 79,-169 248,-259 430,-259 130,0 240,39 310,116z"/>
 </g>
</svg>
