<?xml version="1.0" encoding="UTF-8"?>
<!DOCTYPE svg PUBLIC "-//W3C//DTD SVG 1.1//EN" "http://www.w3.org/Graphics/SVG/1.1/DTD/svg11.dtd">
<!-- Creator: CorelDRAW X8 -->
<svg xmlns="http://www.w3.org/2000/svg" xml:space="preserve" width="3132px" height="1024px" version="1.1" style="shape-rendering:geometricPrecision; text-rendering:geometricPrecision; image-rendering:optimizeQuality; fill-rule:evenodd; clip-rule:evenodd"
viewBox="0 0 3132 1024"
 xmlns:xlink="http://www.w3.org/1999/xlink">
 <defs>
  <style type="text/css">
   <![CDATA[
    .fil0 {fill:#CC6633;fill-rule:nonzero}
   ]]>
  </style>
 </defs>
 <g id="Layer_x0020_1">
  <metadata id="CorelCorpID_0Corel-Layer"/>
  <path class="fil0" d="M792 116c62,-73 166,-113 290,-116 155,-3 294,74 348,225 34,96 34,195 35,296 0,142 5,387 201,387 192,0 269,-227 271,-387 2,-172 -74,-372 -248,-437 -24,-9 -36,-23 -36,-38 0,-9 4,-17 13,-25 18,-15 41,-20 64,-20 21,0 42,5 60,12 211,84 312,289 309,508 -3,158 -55,300 -159,387l316 0 0 -516c0,-263 212,-392 431,-392 218,0 445,143 445,399l0 555c0,34 -55,45 -81,45l-1385 0c-317,0 -364,-218 -364,-478 0,-96 1,-187 -32,-278 -28,-80 -98,-154 -188,-152 -155,3 -205,137 -205,271l0 616c0,25 -36,46 -81,46 -45,0 -82,-21 -82,-46l0 -616c0,-150 -70,-271 -232,-271 -131,0 -238,96 -284,214 -26,67 -36,141 -35,214 2,158 67,357 223,423 20,9 32,22 32,36 0,10 -5,20 -17,28 -17,12 -39,18 -62,18 -20,0 -40,-4 -56,-11 -194,-86 -280,-293 -283,-494 -1,-91 14,-181 51,-260 79,-169 248,-259 431,-259 130,0 239,39 310,116zm1626 276l0 516 551 0 1 -509c0,-200 -147,-308 -285,-308 -137,0 -267,96 -267,301z"/>
 </g>
</svg>
