<?xml version="1.0" encoding="UTF-8"?>
<!DOCTYPE svg PUBLIC "-//W3C//DTD SVG 1.1//EN" "http://www.w3.org/Graphics/SVG/1.1/DTD/svg11.dtd">
<!-- Creator: CorelDRAW X8 -->
<svg xmlns="http://www.w3.org/2000/svg" xml:space="preserve" width="2443px" height="1486px" version="1.1" style="shape-rendering:geometricPrecision; text-rendering:geometricPrecision; image-rendering:optimizeQuality; fill-rule:evenodd; clip-rule:evenodd"
viewBox="0 0 2443 1486"
 xmlns:xlink="http://www.w3.org/1999/xlink">
 <defs>
  <style type="text/css">
   <![CDATA[
    .fil0 {fill:#CC6633;fill-rule:nonzero}
   ]]>
  </style>
 </defs>
 <g id="Layer_x0020_1">
  <metadata id="CorelCorpID_0Corel-Layer"/>
  <path class="fil0" d="M1134 116c-70,-77 -180,-116 -310,-116 -182,0 -352,91 -430,259 -37,79 -53,169 -51,260 2,201 88,409 283,494 34,15 86,17 118,-7 11,-8 16,-17 16,-26 1,-14 -10,-28 -32,-37 -156,-67 -220,-266 -223,-424 -1,-73 9,-147 36,-214 46,-118 152,-213 283,-213 162,0 233,121 233,270l0 616c0,26 36,46 81,46 45,0 82,-20 82,-46l0 -616c0,-134 49,-267 204,-271 90,-2 160,72 189,152 32,92 32,194 32,291 0,259 47,490 364,490 64,0 121,-11 171,-32 -27,43 -58,81 -91,116 -190,198 -493,286 -798,287 -283,1 -550,-72 -753,-199 -207,-131 -354,-334 -374,-632 -13,-200 59,-395 204,-487 14,-9 20,-20 20,-30 1,-13 -9,-26 -27,-35 -15,-7 -35,-11 -54,-11 -22,0 -45,5 -61,15 -175,112 -260,331 -244,555 25,352 220,583 484,725 226,122 509,191 807,190 335,-2 668,-93 888,-301 173,-164 263,-398 262,-635 0,-224 -87,-448 -310,-537 -18,-7 -38,-12 -59,-12 -24,0 -47,5 -65,20 -9,8 -13,17 -13,25 -1,15 12,30 36,38 179,67 254,290 247,466 -7,159 -85,383 -270,383 -197,0 -202,-258 -202,-399 0,-102 0,-212 -35,-309 -53,-151 -192,-228 -348,-225 -124,3 -227,43 -290,116z"/>
 </g>
</svg>
