<?xml version="1.0" encoding="UTF-8"?>
<!DOCTYPE svg PUBLIC "-//W3C//DTD SVG 1.1//EN" "http://www.w3.org/Graphics/SVG/1.1/DTD/svg11.dtd">
<!-- Creator: CorelDRAW X8 -->
<svg xmlns="http://www.w3.org/2000/svg" xml:space="preserve" width="1291px" height="868px" version="1.1" style="shape-rendering:geometricPrecision; text-rendering:geometricPrecision; image-rendering:optimizeQuality; fill-rule:evenodd; clip-rule:evenodd"
viewBox="0 0 1291 868"
 xmlns:xlink="http://www.w3.org/1999/xlink">
 <defs>
  <style type="text/css">
   <![CDATA[
    .fil0 {fill:#898778;fill-rule:nonzero}
   ]]>
  </style>
 </defs>
 <g id="Layer_x0020_1">
  <metadata id="CorelCorpID_0Corel-Layer"/>
  <path class="fil0" d="M873 803c17,-4 49,-17 49,-39 0,-21 -32,-33 -48,-38 -26,-8 -54,-10 -81,-10 -30,0 -67,3 -96,14 -14,5 -36,17 -37,34 0,18 23,30 37,35 25,10 61,14 96,14 29,0 58,-3 80,-10zm-386 -745c47,-44 112,-58 174,-58 94,0 187,41 222,133 20,56 20,118 20,177 0,51 1,106 19,155 15,40 44,76 90,76 67,0 110,-67 130,-124 13,-36 20,-78 20,-117 -1,-99 -47,-211 -146,-246 -19,-7 -35,-24 -16,-39 24,-20 69,-17 97,-6 137,52 179,168 191,298 6,71 3,146 -11,215 -12,60 -32,117 -65,167 -29,44 -67,82 -117,111 -25,14 -53,26 -84,35 -33,11 -70,19 -106,24 -36,5 -73,9 -112,9 -46,0 -94,-4 -137,-15 -40,-11 -110,-38 -110,-89 1,-51 73,-78 113,-88 44,-11 90,-15 134,-15 41,0 82,4 122,13 41,9 115,34 121,84 29,-21 52,-46 71,-75 22,-35 38,-76 46,-117 -40,23 -88,34 -141,34 -87,0 -164,-25 -203,-108 -26,-56 -28,-119 -28,-180 0,-56 1,-115 -19,-168 -14,-39 -54,-86 -100,-85 -83,2 -111,82 -111,154l0 357c0,24 -44,30 -61,30 -17,0 -61,-6 -61,-30l0 -357c0,-80 -39,-154 -128,-154 -71,0 -132,59 -157,121 -15,37 -21,77 -21,116 -1,94 37,213 131,252 20,8 31,25 11,39 -23,17 -68,16 -94,5 -118,-50 -171,-173 -171,-296 0,-49 9,-99 31,-143 50,-104 158,-153 270,-153 65,0 136,14 186,58z"/>
 </g>
</svg>
