<?xml version="1.0" encoding="UTF-8"?>
<!DOCTYPE svg PUBLIC "-//W3C//DTD SVG 1.1//EN" "http://www.w3.org/Graphics/SVG/1.1/DTD/svg11.dtd">
<!-- Creator: CorelDRAW X8 -->
<svg xmlns="http://www.w3.org/2000/svg" xml:space="preserve" width="1905px" height="1024px" version="1.1" style="shape-rendering:geometricPrecision; text-rendering:geometricPrecision; image-rendering:optimizeQuality; fill-rule:evenodd; clip-rule:evenodd"
viewBox="0 0 1905 1024"
 xmlns:xlink="http://www.w3.org/1999/xlink">
 <defs>
  <style type="text/css">
   <![CDATA[
    .fil0 {fill:#434242;fill-rule:nonzero}
   ]]>
  </style>
 </defs>
 <g id="Layer_x0020_1">
  <metadata id="CorelCorpID_0Corel-Layer"/>
  <path class="fil0" d="M1554 1018c21,0 44,-6 62,-15 178,-90 289,-280 289,-477 0,-304 -248,-520 -546,-520 -295,0 -546,215 -546,520 0,152 64,291 175,388l-338 0c34,-48 52,-108 52,-172 0,-196 -175,-299 -350,-299 -176,0 -352,102 -352,299 0,115 59,215 163,264 17,8 37,12 57,12 23,0 45,-5 62,-17 12,-9 18,-19 18,-28 0,-14 -12,-28 -30,-36 -74,-33 -107,-118 -107,-195 0,-135 95,-208 189,-208 94,0 187,74 187,208 0,72 -26,148 -91,186 -12,7 -23,18 -23,32 0,25 37,46 82,46l657 0c26,0 81,-13 80,-46 0,-12 -10,-24 -28,-33 -163,-79 -239,-237 -239,-401 0,-227 141,-431 382,-430 247,0 382,213 382,430 0,172 -80,336 -239,413 -17,8 -27,21 -27,34 0,10 6,20 20,29 17,11 38,16 59,16z"/>
 </g>
</svg>
