<?xml version="1.0" encoding="UTF-8"?>
<!DOCTYPE svg PUBLIC "-//W3C//DTD SVG 1.1//EN" "http://www.w3.org/Graphics/SVG/1.1/DTD/svg11.dtd">
<!-- Creator: CorelDRAW X8 -->
<svg xmlns="http://www.w3.org/2000/svg" xml:space="preserve" width="1184px" height="593px" version="1.1" style="shape-rendering:geometricPrecision; text-rendering:geometricPrecision; image-rendering:optimizeQuality; fill-rule:evenodd; clip-rule:evenodd"
viewBox="0 0 1184 593"
 xmlns:xlink="http://www.w3.org/1999/xlink">
 <defs>
  <style type="text/css">
   <![CDATA[
    .fil0 {fill:#434242;fill-rule:nonzero}
   ]]>
  </style>
 </defs>
 <g id="Layer_x0020_1">
  <metadata id="CorelCorpID_0Corel-Layer"/>
  <path class="fil0" d="M960 593c18,0 36,-3 49,-10 106,-52 175,-160 175,-278 0,-189 -162,-305 -340,-305 -177,0 -340,116 -340,305 0,85 37,165 101,222l-188 0c20,-29 29,-62 29,-97 0,-121 -116,-176 -223,-176 -107,0 -223,55 -223,176 0,68 37,126 99,154 13,6 29,9 46,9 18,0 36,-4 48,-12 8,-6 12,-12 12,-18 0,-8 -8,-17 -20,-22 -43,-18 -62,-67 -62,-111 0,-77 51,-117 101,-117 50,0 99,40 99,117 0,42 -15,86 -53,107 -10,5 -15,12 -15,20 0,23 44,29 61,29l411 0c18,0 60,-6 60,-30 0,-9 -10,-16 -18,-20 -92,-44 -142,-130 -142,-231 0,-126 83,-248 217,-247 134,0 217,121 217,247 1,100 -50,194 -142,238 -11,5 -18,13 -18,21 0,6 4,12 13,18 12,8 29,11 46,11z"/>
 </g>
</svg>
