<?xml version="1.0" encoding="UTF-8"?>
<!DOCTYPE svg PUBLIC "-//W3C//DTD SVG 1.1//EN" "http://www.w3.org/Graphics/SVG/1.1/DTD/svg11.dtd">
<!-- Creator: CorelDRAW X8 -->
<svg xmlns="http://www.w3.org/2000/svg" xml:space="preserve" width="1184px" height="593px" version="1.1" style="shape-rendering:geometricPrecision; text-rendering:geometricPrecision; image-rendering:optimizeQuality; fill-rule:evenodd; clip-rule:evenodd"
viewBox="0 0 1184 593"
 xmlns:xlink="http://www.w3.org/1999/xlink">
 <defs>
  <style type="text/css">
   <![CDATA[
    .fil0 {fill:#CC6633;fill-rule:nonzero}
   ]]>
  </style>
 </defs>
 <g id="Layer_x0020_1">
  <metadata id="CorelCorpID_0Corel-Layer"/>
  <path class="fil0" d="M605 527c-63,0 -125,0 -188,0 20,-29 29,-62 29,-97 0,-121 -116,-176 -223,-176 -107,0 -223,55 -223,176 0,68 37,126 99,154 12,6 29,9 46,9 18,0 36,-3 48,-12 9,-6 13,-12 12,-19 -1,-8 -9,-16 -20,-21 -43,-18 -62,-67 -62,-111 0,-77 51,-117 101,-117 50,0 99,40 99,117 0,42 -15,85 -53,107 -10,5 -15,12 -15,20 0,23 44,29 61,29l411 0c17,0 61,-6 60,-30 0,-7 -7,-15 -18,-20 -94,-45 -144,-137 -142,-240 3,-124 85,-238 217,-238 134,1 216,121 217,247 0,100 -50,194 -142,238 -11,5 -18,12 -18,20 -1,6 3,13 13,19 12,8 29,11 46,11 18,0 36,-4 49,-10 107,-52 176,-159 175,-278 -2,-187 -163,-305 -340,-305 -175,0 -336,111 -340,296 -2,88 35,173 101,231z"/>
 </g>
</svg>
