<?xml version="1.0" encoding="UTF-8"?>
<!DOCTYPE svg PUBLIC "-//W3C//DTD SVG 1.1//EN" "http://www.w3.org/Graphics/SVG/1.1/DTD/svg11.dtd">
<!-- Creator: CorelDRAW X8 -->
<svg xmlns="http://www.w3.org/2000/svg" xml:space="preserve" width="1184px" height="593px" version="1.1" style="shape-rendering:geometricPrecision; text-rendering:geometricPrecision; image-rendering:optimizeQuality; fill-rule:evenodd; clip-rule:evenodd"
viewBox="0 0 1184 593"
 xmlns:xlink="http://www.w3.org/1999/xlink">
 <defs>
  <style type="text/css">
   <![CDATA[
    .fil0 {fill:#898778;fill-rule:nonzero}
   ]]>
  </style>
 </defs>
 <g id="Layer_x0020_1">
  <metadata id="CorelCorpID_0Corel-Layer"/>
  <path class="fil0" d="M605 527c-63,0 -125,0 -188,0 20,-28 29,-62 29,-97 0,-121 -116,-176 -223,-176 -107,0 -223,55 -223,176 0,69 36,126 99,154 26,12 70,13 94,-3 21,-13 12,-31 -8,-39 -43,-19 -62,-68 -62,-112 0,-77 50,-117 101,-117 50,0 99,40 99,117 0,42 -15,85 -53,107 -10,5 -15,13 -15,20 0,24 44,29 61,29l411 0c17,0 61,-6 60,-29 0,-8 -7,-16 -18,-21 -94,-44 -144,-137 -142,-240 3,-124 85,-238 217,-237 134,0 217,120 217,246 0,100 -50,194 -142,238 -20,9 -26,27 -5,39 25,16 69,14 95,1 107,-52 176,-159 175,-278 -2,-187 -163,-305 -340,-305 -175,0 -336,111 -340,296 -2,88 35,173 101,231z"/>
 </g>
</svg>
