<?xml version="1.0" encoding="UTF-8"?>
<!DOCTYPE svg PUBLIC "-//W3C//DTD SVG 1.1//EN" "http://www.w3.org/Graphics/SVG/1.1/DTD/svg11.dtd">
<!-- Creator: CorelDRAW X8 -->
<svg xmlns="http://www.w3.org/2000/svg" xml:space="preserve" width="2580px" height="1024px" version="1.1" style="shape-rendering:geometricPrecision; text-rendering:geometricPrecision; image-rendering:optimizeQuality; fill-rule:evenodd; clip-rule:evenodd"
viewBox="0 0 2580 1024"
 xmlns:xlink="http://www.w3.org/1999/xlink">
 <defs>
  <style type="text/css">
   <![CDATA[
    .fil0 {fill:#009846;fill-rule:nonzero}
   ]]>
  </style>
 </defs>
 <g id="Layer_x0020_1">
  <metadata id="CorelCorpID_0Corel-Layer"/>
  <path class="fil0" d="M1702 978c0,25 -36,46 -81,46 -44,0 -81,-21 -81,-46l0 -611c0,-146 -69,-276 -233,-276 -128,0 -237,90 -283,208 -27,67 -37,136 -36,209 3,158 67,344 223,410 20,8 31,21 32,34 3,35 -53,47 -79,47l-658 0c-45,0 -81,-20 -81,-46 0,-14 11,-25 23,-32 65,-38 91,-114 91,-186 0,-134 -93,-207 -187,-207 -94,0 -189,73 -189,207 0,77 32,162 106,195 31,14 44,43 13,64 -33,23 -84,22 -119,5 -104,-49 -163,-149 -163,-264 0,-196 176,-299 352,-298 175,0 350,103 350,298 0,65 -18,125 -52,173l336 0c-109,-100 -158,-247 -161,-400 -1,-91 14,-176 51,-255 77,-165 252,-253 431,-253 124,0 238,31 323,125 89,-86 222,-125 354,-125 216,1 376,78 480,211 83,107 118,236 116,371 -1,99 -24,198 -73,279 -69,114 -182,164 -301,163 -118,-1 -228,-48 -295,-149 -43,-65 -65,-146 -65,-230 0,-98 31,-199 91,-277 78,-104 197,-162 324,-178 -76,-67 -179,-102 -277,-100 -180,4 -282,122 -282,301l0 587zm633 -701c-100,0 -189,46 -249,126 -52,69 -77,156 -77,242 0,74 18,144 54,198 33,50 82,89 144,90 57,0 106,-34 146,-101 44,-72 63,-161 65,-250 1,-108 -22,-215 -83,-305z"/>
 </g>
</svg>
