<?xml version="1.0" encoding="UTF-8"?>
<!DOCTYPE svg PUBLIC "-//W3C//DTD SVG 1.1//EN" "http://www.w3.org/Graphics/SVG/1.1/DTD/svg11.dtd">
<!-- Creator: CorelDRAW X8 -->
<svg xmlns="http://www.w3.org/2000/svg" xml:space="preserve" width="2580px" height="1024px" version="1.1" style="shape-rendering:geometricPrecision; text-rendering:geometricPrecision; image-rendering:optimizeQuality; fill-rule:evenodd; clip-rule:evenodd"
viewBox="0 0 2580 1024"
 xmlns:xlink="http://www.w3.org/1999/xlink">
 <defs>
  <style type="text/css">
   <![CDATA[
    .fil0 {fill:#434242;fill-rule:nonzero}
   ]]>
  </style>
 </defs>
 <g id="Layer_x0020_1">
  <metadata id="CorelCorpID_0Corel-Layer"/>
  <path class="fil0" d="M2207 1024c118,0 232,-50 300,-163 53,-87 73,-190 73,-290 0,-131 -35,-256 -116,-360 -104,-133 -256,-211 -472,-211 -132,0 -273,39 -362,125 -85,-94 -199,-125 -323,-125 -175,0 -356,91 -431,253 -36,77 -51,159 -51,247 0,149 49,305 161,408l-336 0c34,-48 52,-108 52,-173 0,-195 -175,-298 -350,-298 -179,0 -352,102 -352,298 0,115 59,215 163,264 17,8 37,13 57,13 22,0 45,-6 62,-18 12,-8 18,-18 18,-28 0,-14 -12,-28 -31,-36 -74,-33 -106,-118 -106,-195 0,-134 95,-207 189,-207 94,0 187,73 187,207 0,72 -26,148 -91,186 -12,7 -23,18 -23,32 0,26 36,46 81,46l658 0c27,0 79,-11 79,-46 0,-18 -17,-29 -32,-35 -159,-67 -223,-260 -223,-420 0,-69 10,-135 36,-199 45,-115 156,-208 283,-208 164,0 233,130 233,276l0 611c0,25 37,46 81,46 45,0 81,-21 81,-46l0 -587c0,-180 106,-301 290,-301 95,0 195,35 269,100 -127,16 -245,74 -324,178 -59,78 -91,179 -91,277 0,84 22,165 65,230 67,102 179,149 296,149zm0 -91c-62,0 -111,-40 -144,-90 -36,-54 -54,-124 -54,-198 0,-86 25,-173 77,-242 60,-80 149,-126 249,-126 60,89 83,193 83,298 0,86 -20,183 -65,257 -40,67 -90,101 -146,101z"/>
 </g>
</svg>
