<?xml version="1.0" encoding="UTF-8"?>
<!DOCTYPE svg PUBLIC "-//W3C//DTD SVG 1.1//EN" "http://www.w3.org/Graphics/SVG/1.1/DTD/svg11.dtd">
<!-- Creator: CorelDRAW X8 -->
<svg xmlns="http://www.w3.org/2000/svg" xml:space="preserve" width="1965px" height="1486px" version="1.1" style="shape-rendering:geometricPrecision; text-rendering:geometricPrecision; image-rendering:optimizeQuality; fill-rule:evenodd; clip-rule:evenodd"
viewBox="0 0 1964 1486"
 xmlns:xlink="http://www.w3.org/1999/xlink">
 <defs>
  <style type="text/css">
   <![CDATA[
    .fil0 {fill:#898778;fill-rule:nonzero}
   ]]>
  </style>
 </defs>
 <g id="Layer_x0020_1">
  <metadata id="CorelCorpID_0Corel-Layer"/>
  <path class="fil0" d="M296 1179c-89,0 -133,27 -131,86 1,62 45,82 131,82l1536 0c45,0 82,31 82,70 0,38 -37,69 -82,69l-1536 0c-137,0 -300,-35 -296,-204 3,-123 95,-193 296,-193l1174 0c116,0 216,-41 273,-120 32,-44 59,-100 59,-168 0,-92 -39,-195 -127,-219 -48,-13 -94,-2 -143,-2 -26,0 -83,-12 -83,-47 0,-25 37,-45 82,-45 47,0 94,5 140,-11 63,-24 92,-78 92,-150 -1,-176 -199,-236 -344,-236 -272,0 -436,139 -442,414 -3,168 74,335 239,415 19,9 28,22 28,34 0,33 -54,45 -79,45l-658 0c-45,0 -81,-20 -81,-45 0,-15 11,-26 23,-32 65,-38 90,-115 90,-186 0,-135 -93,-208 -186,-208 -94,0 -189,73 -189,208 0,76 32,161 106,195 31,13 44,42 13,64 -33,22 -84,21 -119,5 -105,-50 -163,-149 -163,-264 0,-197 176,-299 352,-299 175,0 349,103 349,299 0,64 -17,123 -52,172l338 0c-113,-99 -178,-247 -175,-403 8,-343 289,-505 606,-505 202,0 509,82 506,331 -1,83 -42,154 -110,198 102,55 149,158 149,272 0,101 -41,180 -95,238 -92,99 -225,140 -403,140l-1170 0z"/>
 </g>
</svg>
