<?xml version="1.0" encoding="UTF-8"?>
<!DOCTYPE svg PUBLIC "-//W3C//DTD SVG 1.1//EN" "http://www.w3.org/Graphics/SVG/1.1/DTD/svg11.dtd">
<!-- Creator: CorelDRAW X8 -->
<svg xmlns="http://www.w3.org/2000/svg" xml:space="preserve" width="1965px" height="1486px" version="1.1" style="shape-rendering:geometricPrecision; text-rendering:geometricPrecision; image-rendering:optimizeQuality; fill-rule:evenodd; clip-rule:evenodd"
viewBox="0 0 1965 1486"
 xmlns:xlink="http://www.w3.org/1999/xlink">
 <defs>
  <style type="text/css">
   <![CDATA[
    .fil0 {fill:#434242;fill-rule:nonzero}
   ]]>
  </style>
 </defs>
 <g id="Layer_x0020_1">
  <metadata id="CorelCorpID_0Corel-Layer"/>
  <path class="fil0" d="M1836 1486c45,0 81,-31 81,-69 0,-38 -36,-69 -81,-69l-1539 0c-65,0 -132,-8 -132,-87 0,-56 44,-82 132,-82l1192 0c131,0 253,-31 341,-98 93,-71 135,-175 135,-291 0,-109 -50,-214 -150,-265 77,-47 111,-122 111,-199 0,-160 -130,-250 -269,-293 -80,-25 -166,-33 -237,-33 -317,0 -606,166 -606,515 0,153 65,296 175,393l-338 0c35,-49 52,-108 52,-172 0,-196 -175,-299 -350,-299 -176,0 -352,102 -352,299 0,115 58,215 163,264 17,8 37,12 57,12 22,0 45,-5 62,-17 12,-9 18,-19 18,-28 0,-15 -12,-28 -31,-36 -75,-34 -106,-118 -106,-195 0,-135 95,-208 189,-208 94,0 187,73 187,208 0,71 -26,149 -91,186 -12,7 -23,18 -23,32 0,25 37,45 82,45l658 0c25,0 79,-12 79,-45 0,-12 -9,-24 -28,-33 -163,-78 -239,-242 -239,-406 0,-282 168,-424 442,-424 66,0 140,9 202,37 80,35 141,100 141,198 0,45 -11,87 -45,120 -26,25 -50,33 -78,37 -16,2 -32,2 -50,4 -45,4 -68,23 -68,45 0,21 23,46 69,45 17,0 35,-1 51,0 32,2 62,9 89,33 50,46 75,117 75,184 0,69 -19,132 -64,186 -57,69 -149,109 -253,109l-1192 0c-136,0 -297,31 -297,199 0,164 161,198 297,198l1539 0z"/>
 </g>
</svg>
