<?xml version="1.0" encoding="UTF-8"?>
<!DOCTYPE svg PUBLIC "-//W3C//DTD SVG 1.1//EN" "http://www.w3.org/Graphics/SVG/1.1/DTD/svg11.dtd">
<!-- Creator: CorelDRAW X8 -->
<svg xmlns="http://www.w3.org/2000/svg" xml:space="preserve" width="1920px" height="1486px" version="1.1" style="shape-rendering:geometricPrecision; text-rendering:geometricPrecision; image-rendering:optimizeQuality; fill-rule:evenodd; clip-rule:evenodd"
viewBox="0 0 1920 1486"
 xmlns:xlink="http://www.w3.org/1999/xlink">
 <defs>
  <style type="text/css">
   <![CDATA[
    .fil0 {fill:#009846;fill-rule:nonzero}
   ]]>
  </style>
 </defs>
 <g id="Layer_x0020_1">
  <metadata id="CorelCorpID_0Corel-Layer"/>
  <path class="fil0" d="M1768 166c108,113 155,258 152,403 -10,392 -297,611 -674,611l-950 0c-89,0 -133,26 -131,85 1,63 45,83 131,83l1469 0c45,0 81,31 81,69 0,38 -36,69 -81,69l-1469 0c-137,0 -300,-35 -296,-204 3,-123 95,-193 296,-193l949 0c320,0 511,-217 514,-528 0,-105 -28,-217 -91,-306 -73,-103 -183,-165 -308,-165 -244,0 -379,201 -383,416 -3,167 74,334 240,415 17,8 27,21 27,33 1,33 -54,46 -79,46l-658 0c-45,0 -81,-21 -81,-46 0,-14 11,-25 23,-32 65,-38 90,-115 90,-186 0,-135 -93,-208 -186,-208 -94,0 -189,73 -189,208 0,77 32,161 106,195 31,14 44,42 13,64 -33,22 -84,21 -119,5 -105,-49 -163,-149 -163,-264 0,-197 176,-299 352,-299 175,1 349,103 349,299 0,64 -17,124 -52,172l338 0c-113,-99 -178,-247 -174,-402 6,-295 248,-506 545,-506 156,0 299,51 409,166z"/>
 </g>
</svg>
