<?xml version="1.0" encoding="UTF-8"?>
<!DOCTYPE svg PUBLIC "-//W3C//DTD SVG 1.1//EN" "http://www.w3.org/Graphics/SVG/1.1/DTD/svg11.dtd">
<!-- Creator: CorelDRAW X8 -->
<svg xmlns="http://www.w3.org/2000/svg" xml:space="preserve" width="1952px" height="1486px" version="1.1" style="shape-rendering:geometricPrecision; text-rendering:geometricPrecision; image-rendering:optimizeQuality; fill-rule:evenodd; clip-rule:evenodd"
viewBox="0 0 1952 1487"
 xmlns:xlink="http://www.w3.org/1999/xlink">
 <defs>
  <style type="text/css">
   <![CDATA[
    .fil0 {fill:#2B2A29;fill-rule:nonzero}
   ]]>
  </style>
 </defs>
 <g id="Layer_x0020_1">
  <metadata id="CorelCorpID_0Corel-Layer"/>
  <path class="fil0" d="M1480 1404c141,-67 260,-182 340,-318 86,-145 132,-313 132,-474 0,-364 -219,-612 -592,-612 -300,0 -547,211 -547,518 0,150 65,294 175,390l-338 0c34,-48 52,-108 52,-172 0,-196 -175,-298 -350,-299 -176,0 -352,102 -352,299 0,115 59,215 163,264 17,8 37,12 57,12 22,0 45,-4 62,-17 12,-9 18,-19 18,-28 0,-14 -12,-28 -31,-36 -74,-34 -106,-118 -106,-195 0,-135 95,-208 189,-208 94,0 187,74 187,208 0,71 -26,148 -91,186 -12,7 -23,18 -23,32 0,25 36,46 81,46l658 0c27,0 80,-11 80,-45 0,-16 -15,-28 -28,-34 -162,-79 -238,-240 -238,-403 0,-227 139,-428 382,-428 303,1 428,255 428,522 0,135 -28,290 -91,418 -57,114 -141,215 -244,283 -1,-87 -120,-135 -196,-153 -53,-12 -115,-18 -189,-18 -82,0 -152,8 -208,22 -122,32 -183,91 -183,150 0,58 59,117 177,148 62,17 138,25 214,25 81,0 162,-8 240,-25 59,-14 116,-32 172,-58zm-412 -1c-76,0 -138,-10 -178,-26 -42,-17 -64,-39 -64,-61 0,-35 38,-55 66,-65 38,-15 100,-25 176,-25 64,0 112,7 150,18 31,9 86,31 86,71 0,26 -30,53 -88,70 -38,11 -86,18 -148,18z"/>
 </g>
</svg>
