<?xml version="1.0" encoding="UTF-8"?>
<!DOCTYPE svg PUBLIC "-//W3C//DTD SVG 1.1//EN" "http://www.w3.org/Graphics/SVG/1.1/DTD/svg11.dtd">
<!-- Creator: CorelDRAW X8 -->
<svg xmlns="http://www.w3.org/2000/svg" xml:space="preserve" width="2906px" height="1412px" version="1.1" style="shape-rendering:geometricPrecision; text-rendering:geometricPrecision; image-rendering:optimizeQuality; fill-rule:evenodd; clip-rule:evenodd"
viewBox="0 0 2906 1412"
 xmlns:xlink="http://www.w3.org/1999/xlink">
 <defs>
  <style type="text/css">
   <![CDATA[
    .fil0 {fill:#434242;fill-rule:nonzero}
   ]]>
  </style>
 </defs>
 <g id="Layer_x0020_1">
  <metadata id="CorelCorpID_0Corel-Layer"/>
  <path class="fil0" d="M1630 125c-85,-94 -199,-125 -323,-125 -179,0 -354,89 -431,253 -36,77 -51,159 -51,247 0,149 48,306 160,408l-336 0c35,-48 53,-108 53,-172 0,-196 -175,-299 -350,-299 -176,0 -352,102 -352,299 0,115 59,214 163,263 17,8 37,13 57,13 22,0 45,-6 62,-18 12,-8 18,-18 18,-28 0,-14 -12,-27 -31,-36 -74,-33 -106,-118 -106,-194 0,-135 95,-208 189,-208 94,0 187,73 187,208 0,71 -26,148 -91,185 -12,7 -23,17 -23,33 0,24 36,46 81,46l658 0c26,0 79,-13 79,-46 0,-18 -18,-30 -32,-36 -159,-67 -223,-260 -223,-420 0,-69 10,-135 36,-199 46,-117 154,-208 283,-208 164,0 233,129 233,276l0 611c0,25 37,46 82,46 44,0 81,-21 81,-46l0 -587c0,-185 105,-301 289,-301 95,0 195,35 269,100 -128,16 -246,74 -325,178 -59,78 -90,179 -90,277 0,83 22,165 65,229 67,102 178,149 297,149 118,0 231,-50 299,-163 53,-87 73,-189 73,-289 0,-79 -12,-156 -40,-227 146,106 203,289 203,463 0,246 -129,514 -409,514 -82,0 -169,-23 -235,-75 -16,-13 -42,-19 -66,-19 -17,0 -34,3 -47,8 -20,8 -35,22 -35,38 0,8 5,17 15,25 100,80 231,114 357,114 375,0 583,-254 583,-611 0,-289 -151,-542 -452,-603 -104,-125 -253,-198 -462,-198 -125,0 -269,35 -362,125zm577 807c-62,0 -111,-40 -144,-90 -35,-54 -54,-124 -54,-197 0,-86 25,-173 77,-242 60,-80 149,-126 249,-126 59,86 82,189 82,292 0,91 -16,184 -64,262 -40,67 -90,102 -146,101z"/>
 </g>
</svg>
