<?xml version="1.0" encoding="UTF-8"?>
<!DOCTYPE svg PUBLIC "-//W3C//DTD SVG 1.1//EN" "http://www.w3.org/Graphics/SVG/1.1/DTD/svg11.dtd">
<!-- Creator: CorelDRAW X8 -->
<svg xmlns="http://www.w3.org/2000/svg" xml:space="preserve" width="1965px" height="1486px" version="1.1" style="shape-rendering:geometricPrecision; text-rendering:geometricPrecision; image-rendering:optimizeQuality; fill-rule:evenodd; clip-rule:evenodd"
viewBox="0 0 1965 1486"
 xmlns:xlink="http://www.w3.org/1999/xlink">
 <defs>
  <style type="text/css">
   <![CDATA[
    .fil0 {fill:#2B2A29;fill-rule:nonzero}
   ]]>
  </style>
 </defs>
 <g id="Layer_x0020_1">
  <metadata id="CorelCorpID_0Corel-Layer"/>
  <path class="fil0" d="M1836 1487c45,0 82,-31 82,-70 0,-37 -37,-67 -82,-67l-1539 0c-65,0 -131,-9 -131,-89 0,-55 43,-82 131,-82l1193 0c131,0 254,-30 342,-98 92,-70 133,-174 133,-291 0,-108 -49,-213 -150,-264 78,-47 111,-123 111,-199 0,-162 -129,-250 -268,-293 -80,-27 -166,-35 -238,-35 -316,0 -607,166 -607,517 0,153 66,295 177,393l-338 0c34,-49 51,-109 51,-172 0,-197 -174,-299 -351,-299 -176,0 -352,102 -352,299 0,115 59,215 164,264 16,8 37,12 57,12 23,0 45,-6 62,-18 12,-8 18,-18 18,-27 0,-16 -12,-28 -31,-36 -75,-35 -106,-119 -106,-195 0,-135 94,-209 188,-209 95,0 189,74 189,209 0,70 -27,149 -92,186 -13,6 -23,17 -23,31 0,25 37,45 82,45l658 0c27,0 80,-12 80,-45 0,-12 -8,-22 -29,-33 -162,-78 -238,-242 -238,-405 0,-283 168,-425 441,-425 68,0 141,9 203,37 80,35 141,101 141,199 0,41 -17,89 -47,122 -20,21 -45,36 -76,36 -13,0 -33,0 -53,2 -33,4 -66,15 -66,45 0,31 34,41 67,44 20,2 41,1 54,1 34,0 62,12 85,31 53,42 79,121 79,186 0,70 -18,133 -63,187 -58,69 -150,108 -254,108l-1193 0c-135,0 -297,31 -297,199 0,164 162,199 297,199l1539 0z"/>
 </g>
</svg>
