<?xml version="1.0" encoding="UTF-8"?>
<!DOCTYPE svg PUBLIC "-//W3C//DTD SVG 1.1//EN" "http://www.w3.org/Graphics/SVG/1.1/DTD/svg11.dtd">
<!-- Creator: CorelDRAW X8 -->
<svg xmlns="http://www.w3.org/2000/svg" xml:space="preserve" width="2290px" height="1486px" version="1.1" style="shape-rendering:geometricPrecision; text-rendering:geometricPrecision; image-rendering:optimizeQuality; fill-rule:evenodd; clip-rule:evenodd"
viewBox="0 0 2290 1486"
 xmlns:xlink="http://www.w3.org/1999/xlink">
 <defs>
  <style type="text/css">
   <![CDATA[
    .fil0 {fill:#434242;fill-rule:nonzero}
   ]]>
  </style>
 </defs>
 <g id="Layer_x0020_1">
  <metadata id="CorelCorpID_0Corel-Layer"/>
  <path class="fil0" d="M1712 1370c194,-81 364,-215 469,-388 67,-111 109,-251 109,-381 0,-345 -216,-601 -573,-601 -295,0 -547,212 -547,516 0,152 66,295 176,393l-338 0c34,-49 52,-109 52,-173 0,-196 -174,-299 -351,-299 -175,-1 -352,103 -352,299 0,115 59,215 164,264 17,8 37,12 58,12 22,0 43,-5 60,-17 13,-9 19,-19 19,-28 0,-14 -13,-28 -31,-36 -74,-33 -107,-118 -107,-195 0,-135 95,-209 189,-208 94,0 187,74 187,208 0,72 -26,148 -91,186 -11,7 -23,18 -23,32 0,25 37,46 82,46l659 0c25,0 79,-13 79,-46 0,-15 -16,-27 -28,-33 -163,-79 -239,-241 -239,-405 0,-227 140,-427 382,-426 290,0 408,255 408,511 0,117 -32,232 -89,334 -91,163 -244,292 -421,364 -163,67 -326,96 -501,96 -226,0 -454,-50 -629,-162 -193,-123 -322,-334 -323,-619 0,-218 85,-423 268,-537 15,-9 22,-20 22,-31 0,-13 -9,-25 -26,-34 -15,-8 -35,-12 -55,-12 -22,0 -44,4 -60,14 -214,131 -311,365 -311,600 0,306 142,549 405,702 203,118 459,170 709,170 207,0 407,-37 598,-116z"/>
 </g>
</svg>
