<?xml version="1.0" encoding="UTF-8"?>
<!DOCTYPE svg PUBLIC "-//W3C//DTD SVG 1.1//EN" "http://www.w3.org/Graphics/SVG/1.1/DTD/svg11.dtd">
<!-- Creator: CorelDRAW X8 -->
<svg xmlns="http://www.w3.org/2000/svg" xml:space="preserve" width="1872px" height="1012px" version="1.1" style="shape-rendering:geometricPrecision; text-rendering:geometricPrecision; image-rendering:optimizeQuality; fill-rule:evenodd; clip-rule:evenodd"
viewBox="0 0 1872 1012"
 xmlns:xlink="http://www.w3.org/1999/xlink">
 <defs>
  <style type="text/css">
   <![CDATA[
    .fil0 {fill:#2B2A29;fill-rule:nonzero}
   ]]>
  </style>
 </defs>
 <g id="Layer_x0020_1">
  <metadata id="CorelCorpID_0Corel-Layer"/>
  <path class="fil0" d="M220 1012c23,0 45,-5 62,-17 12,-9 18,-19 18,-28 0,-14 -12,-28 -30,-36 -74,-33 -107,-118 -107,-195 0,-135 95,-208 189,-208 94,0 187,74 187,208 0,72 -26,148 -91,186 -12,7 -23,18 -23,32 0,25 37,46 82,46l1283 0c27,0 82,-12 82,-46l0 -526c0,-126 -49,-228 -129,-299 -93,-84 -228,-129 -378,-129 -146,0 -283,43 -378,129 -78,71 -128,171 -128,299l0 480 -209 0c34,-48 52,-108 52,-172 0,-196 -175,-298 -350,-299 -176,0 -352,102 -352,299 0,115 59,215 163,264 17,8 37,12 57,12zm1489 -104l-456 0c204,-139 311,-360 311,-546 -1,-111 -43,-209 -134,-266 157,26 279,141 279,332l0 480zm-687 0l0 -480c0,-110 40,-194 103,-251 33,-29 73,-49 118,-49 118,0 160,134 160,234 0,230 -174,459 -381,546z"/>
 </g>
</svg>
