<?xml version="1.0" encoding="UTF-8"?>
<!DOCTYPE svg PUBLIC "-//W3C//DTD SVG 1.1//EN" "http://www.w3.org/Graphics/SVG/1.1/DTD/svg11.dtd">
<!-- Creator: CorelDRAW X8 -->
<svg xmlns="http://www.w3.org/2000/svg" xml:space="preserve" width="2417px" height="1024px" version="1.1" style="shape-rendering:geometricPrecision; text-rendering:geometricPrecision; image-rendering:optimizeQuality; fill-rule:evenodd; clip-rule:evenodd"
viewBox="0 0 2417 1024"
 xmlns:xlink="http://www.w3.org/1999/xlink">
 <defs>
  <style type="text/css">
   <![CDATA[
    .fil0 {fill:#898778;fill-rule:nonzero}
   ]]>
  </style>
 </defs>
 <g id="Layer_x0020_1">
  <metadata id="CorelCorpID_0Corel-Layer"/>
  <path class="fil0" d="M506 999c-45,0 -81,-20 -81,-46 0,-14 11,-25 23,-32 65,-38 91,-114 91,-186 0,-134 -93,-207 -187,-207 -94,0 -189,73 -189,207 0,77 33,162 106,195 31,14 44,42 13,64 -32,23 -84,22 -119,5 -104,-49 -163,-149 -163,-264 0,-196 176,-299 352,-298 175,0 350,103 350,298 0,65 -18,124 -52,173l336 0c-109,-100 -158,-247 -161,-400 -1,-91 14,-176 51,-255 79,-169 249,-253 431,-253 132,0 244,38 314,117 71,-79 182,-117 314,-117 183,0 352,90 431,259 37,79 52,170 51,261 -3,202 -89,407 -283,493 -35,15 -86,16 -118,-7 -31,-23 -15,-51 15,-64 156,-66 221,-264 223,-422 1,-73 -9,-148 -35,-215 -46,-118 -153,-214 -284,-214 -161,0 -232,115 -232,265l0 622c0,25 -37,46 -82,46 -45,0 -81,-21 -81,-46l0 -622c0,-150 -71,-265 -233,-265 -131,0 -237,90 -283,208 -27,67 -37,136 -36,209 3,158 67,343 223,410 21,8 32,22 32,35 1,34 -53,46 -79,46l-658 0z"/>
 </g>
</svg>
