<?xml version="1.0" encoding="UTF-8"?>
<!DOCTYPE svg PUBLIC "-//W3C//DTD SVG 1.1//EN" "http://www.w3.org/Graphics/SVG/1.1/DTD/svg11.dtd">
<!-- Creator: CorelDRAW X8 -->
<svg xmlns="http://www.w3.org/2000/svg" xml:space="preserve" width="1951px" height="1486px" version="1.1" style="shape-rendering:geometricPrecision; text-rendering:geometricPrecision; image-rendering:optimizeQuality; fill-rule:evenodd; clip-rule:evenodd"
viewBox="0 0 1951 1486"
 xmlns:xlink="http://www.w3.org/1999/xlink">
 <defs>
  <style type="text/css">
   <![CDATA[
    .fil0 {fill:#898778;fill-rule:nonzero}
   ]]>
  </style>
 </defs>
 <g id="Layer_x0020_1">
  <metadata id="CorelCorpID_0Corel-Layer"/>
  <path class="fil0" d="M1067 1225c64,0 112,7 150,18 57,17 86,43 86,69 1,27 -29,54 -87,72 -38,11 -86,18 -149,18 -76,0 -137,-10 -177,-26 -43,-17 -65,-40 -64,-64 0,-22 22,-45 65,-62 39,-15 100,-25 176,-25zm292 -1225c-298,0 -540,211 -546,506 -4,155 61,303 175,402l-338 0c34,-48 52,-108 52,-172 0,-196 -175,-298 -350,-299 -176,0 -352,102 -352,299 0,115 59,215 163,264 35,16 87,17 119,-5 31,-22 18,-50 -12,-64 -74,-34 -107,-118 -107,-195 0,-135 95,-208 189,-208 94,0 187,74 187,208 0,71 -26,148 -91,186 -12,6 -23,18 -23,32 0,25 36,46 81,46l658 0c26,0 82,-13 79,-47 -1,-12 -10,-24 -27,-32 -166,-81 -243,-248 -239,-415 4,-215 138,-416 382,-416 296,1 421,253 427,514 4,140 -24,292 -90,425 -56,115 -141,215 -244,283 -1,-87 -120,-134 -196,-152 -53,-12 -114,-19 -189,-19 -81,0 -152,8 -208,22 -121,32 -182,90 -182,149 0,59 59,118 177,149 65,18 146,26 213,25 57,-1 117,-5 176,-14 86,-13 165,-36 236,-70 141,-66 260,-180 340,-316 88,-149 134,-322 132,-486 -3,-317 -185,-600 -592,-600z"/>
 </g>
</svg>
