<?xml version="1.0" encoding="UTF-8"?>
<!DOCTYPE svg PUBLIC "-//W3C//DTD SVG 1.1//EN" "http://www.w3.org/Graphics/SVG/1.1/DTD/svg11.dtd">
<!-- Creator: CorelDRAW X8 -->
<svg xmlns="http://www.w3.org/2000/svg" xml:space="preserve" width="2417px" height="1024px" version="1.1" style="shape-rendering:geometricPrecision; text-rendering:geometricPrecision; image-rendering:optimizeQuality; fill-rule:evenodd; clip-rule:evenodd"
viewBox="0 0 2417 1024"
 xmlns:xlink="http://www.w3.org/1999/xlink">
 <defs>
  <style type="text/css">
   <![CDATA[
    .fil0 {fill:#009846;fill-rule:nonzero}
   ]]>
  </style>
 </defs>
 <g id="Layer_x0020_1">
  <metadata id="CorelCorpID_0Corel-Layer"/>
  <path class="fil0" d="M506 1000c-45,0 -81,-21 -81,-46 0,-15 11,-26 23,-33 65,-37 91,-114 91,-185 0,-135 -93,-208 -187,-208 -94,0 -189,73 -189,208 0,76 32,161 106,194 31,14 44,43 13,64 -33,23 -84,22 -119,5 -104,-49 -163,-148 -163,-263 0,-197 176,-299 352,-299 175,0 350,103 350,299 0,64 -18,124 -53,172l336 0c-108,-99 -157,-247 -160,-400 -1,-91 14,-176 51,-255 79,-169 249,-253 431,-253 133,0 244,38 314,117 71,-79 182,-117 314,-117 183,0 352,90 431,259 37,79 52,170 51,261 -3,202 -88,407 -283,493 -35,15 -86,16 -118,-7 -31,-23 -15,-51 15,-64 156,-66 221,-264 223,-422 1,-73 -9,-148 -35,-215 -46,-118 -152,-214 -284,-214 -161,0 -232,115 -232,265l0 622c0,25 -37,46 -82,46 -45,0 -81,-21 -81,-46l0 -622c0,-150 -71,-265 -233,-265 -131,0 -237,90 -283,208 -27,67 -37,136 -36,209 3,158 67,344 223,410 21,9 32,22 32,35 1,34 -53,47 -79,47l-658 0z"/>
 </g>
</svg>
