<?xml version="1.0" encoding="UTF-8"?>
<!DOCTYPE svg PUBLIC "-//W3C//DTD SVG 1.1//EN" "http://www.w3.org/Graphics/SVG/1.1/DTD/svg11.dtd">
<!-- Creator: CorelDRAW X8 -->
<svg xmlns="http://www.w3.org/2000/svg" xml:space="preserve" width="750px" height="1024px" version="1.1" style="shape-rendering:geometricPrecision; text-rendering:geometricPrecision; image-rendering:optimizeQuality; fill-rule:evenodd; clip-rule:evenodd"
viewBox="0 0 750 1024"
 xmlns:xlink="http://www.w3.org/1999/xlink">
 <defs>
  <style type="text/css">
   <![CDATA[
    .fil0 {fill:#434242;fill-rule:nonzero}
   ]]>
  </style>
 </defs>
 <g id="Layer_x0020_1">
  <metadata id="CorelCorpID_0Corel-Layer"/>
  <path class="fil0" d="M346 1024c121,0 247,-56 317,-164 66,-103 87,-241 87,-348 0,-138 -32,-263 -94,-353 -71,-103 -187,-159 -310,-159 -92,0 -186,32 -255,98 -55,52 -90,129 -90,205 0,35 53,45 78,45 26,0 83,-10 84,-44 3,-69 30,-123 69,-161 35,-33 79,-51 114,-51 69,0 121,45 158,100 54,79 83,192 83,320 0,97 -15,221 -77,317 -43,66 -105,105 -164,104 -39,0 -73,-18 -111,-55 -40,-37 -69,-91 -73,-158 -2,-33 -57,-44 -83,-44 -25,0 -79,12 -79,45 0,72 43,154 94,203 70,68 158,100 252,100z"/>
 </g>
</svg>
