<?xml version="1.0" encoding="UTF-8"?>
<!DOCTYPE svg PUBLIC "-//W3C//DTD SVG 1.1//EN" "http://www.w3.org/Graphics/SVG/1.1/DTD/svg11.dtd">
<!-- Creator: CorelDRAW X8 -->
<svg xmlns="http://www.w3.org/2000/svg" xml:space="preserve" width="750px" height="1024px" version="1.1" style="shape-rendering:geometricPrecision; text-rendering:geometricPrecision; image-rendering:optimizeQuality; fill-rule:evenodd; clip-rule:evenodd"
viewBox="0 0 750 1024"
 xmlns:xlink="http://www.w3.org/1999/xlink">
 <defs>
  <style type="text/css">
   <![CDATA[
    .fil0 {fill:#2B2A29;fill-rule:nonzero}
   ]]>
  </style>
 </defs>
 <g id="Layer_x0020_1">
  <metadata id="CorelCorpID_0Corel-Layer"/>
  <path class="fil0" d="M346 1024c121,-1 247,-56 317,-164 66,-103 87,-241 87,-348 0,-138 -32,-263 -94,-353 -71,-103 -191,-159 -314,-159 -92,0 -182,32 -251,98 -54,52 -90,129 -90,205 0,35 53,45 79,45 25,0 82,-10 83,-44 3,-69 30,-123 69,-161 35,-33 76,-51 111,-51 70,0 123,45 161,100 54,79 83,192 83,320 0,97 -15,221 -77,317 -43,66 -105,104 -164,104 -39,-1 -73,-18 -111,-55 -40,-37 -68,-91 -73,-158 -1,-34 -57,-44 -82,-44 -26,0 -80,12 -80,45 0,72 42,154 94,203 70,68 158,100 252,100z"/>
 </g>
</svg>
