<?xml version="1.0" encoding="UTF-8"?>
<!DOCTYPE svg PUBLIC "-//W3C//DTD SVG 1.1//EN" "http://www.w3.org/Graphics/SVG/1.1/DTD/svg11.dtd">
<!-- Creator: CorelDRAW X8 -->
<svg xmlns="http://www.w3.org/2000/svg" xml:space="preserve" width="643px" height="1405px" version="1.1" style="shape-rendering:geometricPrecision; text-rendering:geometricPrecision; image-rendering:optimizeQuality; fill-rule:evenodd; clip-rule:evenodd"
viewBox="0 0 643 1406"
 xmlns:xlink="http://www.w3.org/1999/xlink">
 <defs>
  <style type="text/css">
   <![CDATA[
    .fil0 {fill:#898778}
   ]]>
  </style>
 </defs>
 <g id="Layer_x0020_1">
  <metadata id="CorelCorpID_0Corel-Layer"/>
  <path class="fil0" d="M195 247c49,0 73,-42 73,-82 0,-39 -24,-81 -73,-81 -48,0 -73,42 -73,81 -1,41 23,82 73,82zm167 -161c20,25 33,56 31,86 -1,51 -24,86 -58,110 -38,27 -89,38 -139,38 -50,0 -101,-12 -139,-39 -33,-24 -56,-58 -57,-109 -2,-57 34,-109 96,-140 56,-28 130,-33 192,-32 172,2 353,43 355,256l0 1104c0,26 -37,46 -82,46 -45,0 -81,-20 -83,-46l0 -1104c0,-47 -7,-90 -29,-121 -17,-24 -48,-44 -87,-49z"/>
 </g>
</svg>
