<?xml version="1.0" encoding="UTF-8"?>
<!DOCTYPE svg PUBLIC "-//W3C//DTD SVG 1.1//EN" "http://www.w3.org/Graphics/SVG/1.1/DTD/svg11.dtd">
<!-- Creator: CorelDRAW X8 -->
<svg xmlns="http://www.w3.org/2000/svg" xml:space="preserve" width="671px" height="1405px" version="1.1" style="shape-rendering:geometricPrecision; text-rendering:geometricPrecision; image-rendering:optimizeQuality; fill-rule:evenodd; clip-rule:evenodd"
viewBox="0 0 671 1405"
 xmlns:xlink="http://www.w3.org/1999/xlink">
 <defs>
  <style type="text/css">
   <![CDATA[
    .fil0 {fill:red;fill-rule:nonzero}
   ]]>
  </style>
 </defs>
 <g id="Layer_x0020_1">
  <metadata id="CorelCorpID_0Corel-Layer"/>
  <path class="fil0" d="M209 247c-57,0 -87,-37 -87,-82 0,-45 33,-81 87,-81 55,0 87,36 87,81 0,45 -32,82 -87,82zm380 1158c45,0 82,-20 82,-46l0 -1103c0,-219 -192,-256 -369,-256 -59,0 -154,6 -206,32 -54,27 -96,74 -96,137 0,48 19,84 58,112 37,27 102,39 152,39 50,0 115,-12 153,-38 39,-27 58,-66 58,-113 0,-29 -12,-59 -31,-83 92,11 116,88 116,170l0 1103c0,26 38,46 83,46z"/>
 </g>
</svg>
