<?xml version="1.0" encoding="UTF-8"?>
<!DOCTYPE svg PUBLIC "-//W3C//DTD SVG 1.1//EN" "http://www.w3.org/Graphics/SVG/1.1/DTD/svg11.dtd">
<!-- Creator: CorelDRAW X8 -->
<svg xmlns="http://www.w3.org/2000/svg" xml:space="preserve" width="520px" height="1423px" version="1.1" style="shape-rendering:geometricPrecision; text-rendering:geometricPrecision; image-rendering:optimizeQuality; fill-rule:evenodd; clip-rule:evenodd"
viewBox="0 0 520 1422"
 xmlns:xlink="http://www.w3.org/1999/xlink">
 <defs>
  <style type="text/css">
   <![CDATA[
    .fil0 {fill:#898778;fill-rule:nonzero}
   ]]>
  </style>
 </defs>
 <g id="Layer_x0020_1">
  <metadata id="CorelCorpID_0Corel-Layer"/>
  <path class="fil0" d="M188 930c73,-137 123,-326 130,-482 4,-81 -4,-186 -46,-263 -26,-49 -67,-86 -127,-98 -32,-7 -52,-23 -53,-41 -4,-39 52,-46 80,-46 92,0 190,60 241,135 57,86 73,201 68,317 -8,159 -57,343 -127,484 92,31 166,110 166,236 0,167 -130,250 -260,250 -130,0 -260,-83 -260,-250 0,-136 86,-217 188,-242zm189 242c0,-111 -59,-166 -117,-166 -58,0 -117,55 -117,166 0,110 59,165 117,165 58,0 117,-55 117,-165z"/>
 </g>
</svg>
