<?xml version="1.0" encoding="UTF-8"?>
<!DOCTYPE svg PUBLIC "-//W3C//DTD SVG 1.1//EN" "http://www.w3.org/Graphics/SVG/1.1/DTD/svg11.dtd">
<!-- Creator: CorelDRAW X8 -->
<svg xmlns="http://www.w3.org/2000/svg" xml:space="preserve" width="702px" height="1596px" version="1.1" style="shape-rendering:geometricPrecision; text-rendering:geometricPrecision; image-rendering:optimizeQuality; fill-rule:evenodd; clip-rule:evenodd"
viewBox="0 0 702 1596"
 xmlns:xlink="http://www.w3.org/1999/xlink">
 <defs>
  <style type="text/css">
   <![CDATA[
    .fil0 {fill:#009846}
   ]]>
  </style>
 </defs>
 <g id="Layer_x0020_1">
  <metadata id="CorelCorpID_0Corel-Layer"/>
  <path class="fil0" d="M522 1182c0,163 -130,245 -260,245 -170,0 -257,-122 -262,-245 -5,-130 78,-234 202,-264 70,-138 119,-323 125,-479 2,-77 -5,-174 -44,-248 -28,-52 -71,-91 -130,-103 -33,-7 -54,-25 -54,-43 1,-35 52,-45 78,-45 96,0 199,65 249,145 51,81 67,187 63,296 -5,155 -50,327 -113,468 178,20 330,141 326,346 -4,215 -199,341 -408,341 -73,0 -148,-13 -213,-45 -27,-13 -33,-37 -5,-54 26,-16 70,-16 98,-3 38,19 78,26 120,26 156,0 269,-116 276,-265 3,-75 -17,-162 -85,-208 23,36 37,81 37,135zm-143 0c0,-110 -59,-170 -117,-170 -58,0 -117,60 -117,170 0,110 59,165 117,165 58,0 117,-56 117,-165z"/>
 </g>
</svg>
