<?xml version="1.0" encoding="UTF-8"?>
<!DOCTYPE svg PUBLIC "-//W3C//DTD SVG 1.1//EN" "http://www.w3.org/Graphics/SVG/1.1/DTD/svg11.dtd">
<!-- Creator: CorelDRAW X8 -->
<svg xmlns="http://www.w3.org/2000/svg" xml:space="preserve" width="524px" height="506px" version="1.1" style="shape-rendering:geometricPrecision; text-rendering:geometricPrecision; image-rendering:optimizeQuality; fill-rule:evenodd; clip-rule:evenodd"
viewBox="0 0 524 506"
 xmlns:xlink="http://www.w3.org/1999/xlink">
 <defs>
  <style type="text/css">
   <![CDATA[
    .fil0 {fill:#434242;fill-rule:nonzero}
   ]]>
  </style>
 </defs>
 <g id="Layer_x0020_1">
  <metadata id="CorelCorpID_0Corel-Layer"/>
  <path class="fil0" d="M219 506c158,0 305,-114 305,-284 0,-76 -38,-137 -93,-174 -56,-37 -129,-48 -196,-48 -55,0 -109,11 -151,36 -50,30 -84,79 -84,154 0,126 97,186 195,186 97,0 195,-60 195,-186 0,-42 -11,-80 -29,-107 47,31 64,84 64,139 0,119 -83,226 -206,226 -32,0 -62,-6 -90,-20 -10,-5 -22,-8 -35,-8 -14,0 -28,4 -39,10 -9,6 -13,13 -13,19 0,9 6,17 17,22 49,25 105,35 160,35zm-24 -192c-44,0 -88,-43 -88,-126 0,-83 44,-127 88,-127 43,0 87,44 87,127 0,83 -44,126 -87,126z"/>
 </g>
</svg>
