<?xml version="1.0" encoding="UTF-8"?>
<!DOCTYPE svg PUBLIC "-//W3C//DTD SVG 1.1//EN" "http://www.w3.org/Graphics/SVG/1.1/DTD/svg11.dtd">
<!-- Creator: CorelDRAW X8 -->
<svg xmlns="http://www.w3.org/2000/svg" xml:space="preserve" width="700px" height="684px" version="1.1" style="shape-rendering:geometricPrecision; text-rendering:geometricPrecision; image-rendering:optimizeQuality; fill-rule:evenodd; clip-rule:evenodd"
viewBox="0 0 700 684"
 xmlns:xlink="http://www.w3.org/1999/xlink">
 <defs>
  <style type="text/css">
   <![CDATA[
    .fil0 {fill:#898778}
   ]]>
  </style>
 </defs>
 <g id="Layer_x0020_1">
  <metadata id="CorelCorpID_0Corel-Layer"/>
  <path class="fil0" d="M520 262c0,168 -130,248 -260,249 -130,0 -260,-81 -260,-249 0,-104 49,-177 118,-218 56,-34 132,-43 198,-44 104,-1 213,18 290,96 57,58 96,140 94,237 -4,222 -199,351 -408,351 -73,0 -148,-13 -213,-46 -27,-14 -32,-38 -5,-55 26,-17 71,-17 98,-3 38,19 78,26 120,26 156,0 269,-119 276,-273 3,-77 -18,-169 -85,-214 23,37 37,87 37,143zm-143 -2c0,-111 -59,-170 -117,-170 -58,0 -116,59 -116,170 0,111 58,169 116,168 58,0 117,-57 117,-168z"/>
 </g>
</svg>
