<?xml version="1.0" encoding="UTF-8"?>
<!DOCTYPE svg PUBLIC "-//W3C//DTD SVG 1.1//EN" "http://www.w3.org/Graphics/SVG/1.1/DTD/svg11.dtd">
<!-- Creator: CorelDRAW X8 -->
<svg xmlns="http://www.w3.org/2000/svg" xml:space="preserve" width="700px" height="666px" version="1.1" style="shape-rendering:geometricPrecision; text-rendering:geometricPrecision; image-rendering:optimizeQuality; fill-rule:evenodd; clip-rule:evenodd"
viewBox="0 0 700 666"
 xmlns:xlink="http://www.w3.org/1999/xlink">
 <defs>
  <style type="text/css">
   <![CDATA[
    .fil0 {fill:#CC6633}
   ]]>
  </style>
 </defs>
 <g id="Layer_x0020_1">
  <metadata id="CorelCorpID_0Corel-Layer"/>
  <path class="fil0" d="M520 256c0,163 -130,241 -260,241 -130,0 -260,-78 -260,-241 0,-101 49,-172 118,-212 56,-33 133,-43 198,-44 104,-1 213,19 290,95 57,56 96,136 94,230 -4,215 -199,341 -408,341 -73,0 -148,-13 -213,-45 -16,-8 -24,-19 -23,-30 0,-8 6,-17 18,-24 13,-8 31,-12 49,-12 18,-1 35,3 49,9 38,19 78,26 120,26 156,0 269,-116 276,-265 3,-75 -18,-164 -85,-208 23,36 37,85 37,139zm-143 -2c0,-108 -59,-165 -117,-165 -58,0 -116,57 -116,165 0,108 58,164 116,163 58,0 117,-55 117,-163z"/>
 </g>
</svg>
