<?xml version="1.0" encoding="UTF-8"?>
<!DOCTYPE svg PUBLIC "-//W3C//DTD SVG 1.1//EN" "http://www.w3.org/Graphics/SVG/1.1/DTD/svg11.dtd">
<!-- Creator: CorelDRAW X8 -->
<svg xmlns="http://www.w3.org/2000/svg" xml:space="preserve" width="524px" height="506px" version="1.1" style="shape-rendering:geometricPrecision; text-rendering:geometricPrecision; image-rendering:optimizeQuality; fill-rule:evenodd; clip-rule:evenodd"
viewBox="0 0 524 506"
 xmlns:xlink="http://www.w3.org/1999/xlink">
 <defs>
  <style type="text/css">
   <![CDATA[
    .fil0 {fill:#898778}
   ]]>
  </style>
 </defs>
 <g id="Layer_x0020_1">
  <metadata id="CorelCorpID_0Corel-Layer"/>
  <path class="fil0" d="M389 190c0,126 -97,186 -194,186 -98,0 -195,-60 -195,-186 0,-75 34,-124 84,-154 42,-24 96,-36 151,-36 73,0 148,21 199,58 55,40 91,101 90,185 -3,166 -149,263 -305,263 -55,0 -111,-10 -160,-35 -20,-10 -24,-29 -4,-41 20,-13 53,-13 74,-2 28,14 58,19 90,19 116,0 201,-89 206,-204 2,-58 -13,-126 -64,-160 18,28 28,65 28,107zm-107 -2c0,-83 -44,-127 -87,-127 -44,0 -88,44 -88,127 0,83 44,126 88,126 43,0 87,-43 87,-126z"/>
 </g>
</svg>
