<?xml version="1.0" encoding="UTF-8"?>
<!DOCTYPE svg PUBLIC "-//W3C//DTD SVG 1.1//EN" "http://www.w3.org/Graphics/SVG/1.1/DTD/svg11.dtd">
<!-- Creator: CorelDRAW X8 -->
<svg xmlns="http://www.w3.org/2000/svg" xml:space="preserve" width="419px" height="389px" version="1.1" style="shape-rendering:geometricPrecision; text-rendering:geometricPrecision; image-rendering:optimizeQuality; fill-rule:evenodd; clip-rule:evenodd"
viewBox="0 0 419 389"
 xmlns:xlink="http://www.w3.org/1999/xlink">
 <defs>
  <style type="text/css">
   <![CDATA[
    .fil0 {fill:#CC6633}
   ]]>
  </style>
 </defs>
 <g id="Layer_x0020_1">
  <metadata id="CorelCorpID_0Corel-Layer"/>
  <path class="fil0" d="M315 150c0,44 -16,78 -42,101 -29,27 -71,40 -114,40 -39,0 -80,-11 -110,-35 -33,-26 -49,-64 -49,-106 0,-53 25,-97 71,-123 32,-18 75,-27 119,-27 67,0 137,19 176,57 37,35 54,83 53,133 -1,60 -27,108 -68,142 -45,37 -107,57 -173,57 -44,0 -90,-8 -130,-27 -10,-4 -15,-11 -15,-17 1,-5 4,-10 11,-14 10,-6 23,-8 36,-8 10,0 20,2 28,6 22,10 45,14 70,14 45,0 84,-16 113,-43 29,-27 48,-66 50,-110 1,-23 -4,-48 -13,-70 -7,-16 -16,-31 -29,-42 12,22 16,48 16,72zm-89 -1c0,-29 -8,-52 -19,-68 -13,-18 -31,-27 -48,-27 -19,0 -35,10 -46,24 -16,20 -22,46 -22,71 0,25 6,51 22,71 13,15 29,23 46,23 19,0 36,-11 48,-26 11,-16 19,-39 19,-68z"/>
 </g>
</svg>
