<?xml version="1.0" encoding="UTF-8"?>
<!DOCTYPE svg PUBLIC "-//W3C//DTD SVG 1.1//EN" "http://www.w3.org/Graphics/SVG/1.1/DTD/svg11.dtd">
<!-- Creator: CorelDRAW X8 -->
<svg xmlns="http://www.w3.org/2000/svg" xml:space="preserve" width="740px" height="1486px" version="1.1" style="shape-rendering:geometricPrecision; text-rendering:geometricPrecision; image-rendering:optimizeQuality; fill-rule:evenodd; clip-rule:evenodd"
viewBox="0 0 740 1486"
 xmlns:xlink="http://www.w3.org/1999/xlink">
 <defs>
  <style type="text/css">
   <![CDATA[
    .fil0 {fill:#CC6633;fill-rule:nonzero}
   ]]>
  </style>
 </defs>
 <g id="Layer_x0020_1">
  <metadata id="CorelCorpID_0Corel-Layer"/>
  <path class="fil0" d="M277 43c2,-25 40,-44 85,-43 45,1 79,23 77,48 -16,164 -28,325 0,478 18,104 53,205 122,300 82,112 179,211 179,341 -1,121 -53,207 -133,259 -73,47 -162,62 -248,60 -70,-2 -155,-13 -224,-50 -72,-38 -135,-98 -135,-184 0,-165 226,-230 359,-228 73,1 147,18 200,55 -26,-76 -95,-146 -148,-218 -75,-103 -113,-210 -133,-321 -29,-159 -18,-326 -1,-497zm-118 1210c0,92 101,138 200,137 96,-1 199,-48 199,-137 0,-91 -102,-137 -199,-137 -98,0 -200,46 -200,137z"/>
 </g>
</svg>
