<?xml version="1.0" encoding="UTF-8"?>
<!DOCTYPE svg PUBLIC "-//W3C//DTD SVG 1.1//EN" "http://www.w3.org/Graphics/SVG/1.1/DTD/svg11.dtd">
<!-- Creator: CorelDRAW X8 -->
<svg xmlns="http://www.w3.org/2000/svg" xml:space="preserve" width="740px" height="1486px" version="1.1" style="shape-rendering:geometricPrecision; text-rendering:geometricPrecision; image-rendering:optimizeQuality; fill-rule:evenodd; clip-rule:evenodd"
viewBox="0 0 740 1486"
 xmlns:xlink="http://www.w3.org/1999/xlink">
 <defs>
  <style type="text/css">
   <![CDATA[
    .fil0 {fill:#434242;fill-rule:nonzero}
   ]]>
  </style>
 </defs>
 <g id="Layer_x0020_1">
  <metadata id="CorelCorpID_0Corel-Layer"/>
  <path class="fil0" d="M359 1486c84,0 163,-15 227,-49 92,-48 153,-135 154,-270 1,-130 -97,-229 -179,-341 -69,-95 -104,-196 -122,-300 -12,-67 -17,-135 -17,-204 0,-87 8,-175 16,-266 1,-3 1,-6 1,-10 0,-31 -40,-46 -81,-46 -39,0 -78,14 -81,43 -9,94 -17,188 -17,279 0,74 5,147 18,218 20,111 58,218 133,321 53,72 122,142 148,218 -59,-40 -130,-53 -200,-53 -168,0 -359,77 -359,226 0,86 63,146 135,184 70,37 145,50 224,50zm0 -96c-98,0 -200,-46 -200,-137 0,-91 102,-137 200,-137 97,0 199,46 199,137 0,99 -118,137 -199,137z"/>
 </g>
</svg>
