<?xml version="1.0" encoding="UTF-8"?>
<!DOCTYPE svg PUBLIC "-//W3C//DTD SVG 1.1//EN" "http://www.w3.org/Graphics/SVG/1.1/DTD/svg11.dtd">
<!-- Creator: CorelDRAW X8 -->
<svg xmlns="http://www.w3.org/2000/svg" xml:space="preserve" width="741px" height="418px" version="1.1" style="shape-rendering:geometricPrecision; text-rendering:geometricPrecision; image-rendering:optimizeQuality; fill-rule:evenodd; clip-rule:evenodd"
viewBox="0 0 741 418"
 xmlns:xlink="http://www.w3.org/1999/xlink">
 <defs>
  <style type="text/css">
   <![CDATA[
    .fil0 {fill:#CC6633}
   ]]>
  </style>
 </defs>
 <g id="Layer_x0020_1">
  <metadata id="CorelCorpID_0Corel-Layer"/>
  <path class="fil0" d="M246 265c-30,0 -66,3 -95,14 -14,5 -37,17 -37,34 0,18 22,30 37,35 28,11 65,14 95,14 27,0 54,-2 80,-10 17,-4 50,-17 50,-39 -1,-21 -32,-33 -49,-38 -26,-8 -54,-10 -81,-10zm243 55c76,-35 90,-112 90,-188l0 -97 162 -35 0 132c0,65 -25,134 -70,182 -44,46 -123,72 -206,87 -57,10 -131,17 -203,17 -55,0 -109,-5 -152,-16 -40,-11 -110,-38 -110,-89 0,-51 72,-78 113,-88 43,-11 89,-15 133,-15 41,0 82,4 122,13 44,9 128,39 121,97z"/>
 </g>
</svg>
