<?xml version="1.0" encoding="UTF-8"?>
<!DOCTYPE svg PUBLIC "-//W3C//DTD SVG 1.1//EN" "http://www.w3.org/Graphics/SVG/1.1/DTD/svg11.dtd">
<!-- Creator: CorelDRAW X8 -->
<svg xmlns="http://www.w3.org/2000/svg" xml:space="preserve" width="1127px" height="699px" version="1.1" style="shape-rendering:geometricPrecision; text-rendering:geometricPrecision; image-rendering:optimizeQuality; fill-rule:evenodd; clip-rule:evenodd"
viewBox="0 0 1127 699"
 xmlns:xlink="http://www.w3.org/1999/xlink">
 <defs>
  <style type="text/css">
   <![CDATA[
    .fil0 {fill:#CC6633}
   ]]>
  </style>
 </defs>
 <g id="Layer_x0020_1">
  <metadata id="CorelCorpID_0Corel-Layer"/>
  <path class="fil0" d="M390 438c64,0 112,7 150,18 57,17 86,43 86,69 1,27 -29,54 -87,72 -38,11 -86,18 -149,18 -76,0 -137,-10 -177,-26 -43,-17 -65,-40 -65,-64 1,-22 23,-45 66,-62 39,-15 100,-25 176,-25zm380 118c3,-9 5,-20 5,-31 -1,-87 -120,-134 -196,-152 -53,-12 -114,-19 -189,-19 -81,0 -152,8 -208,22 -121,32 -182,90 -182,149 0,59 59,118 177,149 62,17 140,25 206,25 140,0 288,-17 391,-47 95,-28 188,-70 249,-138 65,-70 104,-169 104,-301l0 -213 -161 48 -1 165c0,147 -29,293 -195,343z"/>
 </g>
</svg>
