<?xml version="1.0" encoding="UTF-8"?>
<!DOCTYPE svg PUBLIC "-//W3C//DTD SVG 1.1//EN" "http://www.w3.org/Graphics/SVG/1.1/DTD/svg11.dtd">
<!-- Creator: CorelDRAW X8 -->
<svg xmlns="http://www.w3.org/2000/svg" xml:space="preserve" width="741px" height="418px" version="1.1" style="shape-rendering:geometricPrecision; text-rendering:geometricPrecision; image-rendering:optimizeQuality; fill-rule:evenodd; clip-rule:evenodd"
viewBox="0 0 741 417"
 xmlns:xlink="http://www.w3.org/1999/xlink">
 <defs>
  <style type="text/css">
   <![CDATA[
    .fil0 {fill:#CC6633}
   ]]>
  </style>
 </defs>
 <g id="Layer_x0020_1">
  <metadata id="CorelCorpID_0Corel-Layer"/>
  <path class="fil0" d="M247 265c-31,0 -67,3 -96,13 -14,6 -37,17 -37,35 0,18 22,30 37,35 28,11 65,13 96,13 26,0 54,-2 79,-9 17,-5 50,-17 50,-39 -1,-21 -32,-34 -49,-39 -26,-7 -54,-9 -80,-9zm242 55c76,-35 90,-113 90,-189l0 -96 162 -35 0 132c0,64 -25,133 -71,181 -43,46 -123,72 -205,87 -57,10 -131,18 -203,17 -55,0 -109,-4 -152,-16 -40,-10 -110,-38 -110,-88 0,-51 72,-79 113,-89 43,-10 90,-14 134,-14 40,0 81,3 121,12 44,10 128,40 121,98z"/>
 </g>
</svg>
