<?xml version="1.0" encoding="UTF-8"?>
<!DOCTYPE svg PUBLIC "-//W3C//DTD SVG 1.1//EN" "http://www.w3.org/Graphics/SVG/1.1/DTD/svg11.dtd">
<!-- Creator: CorelDRAW X8 -->
<svg xmlns="http://www.w3.org/2000/svg" xml:space="preserve" width="740px" height="1486px" version="1.1" style="shape-rendering:geometricPrecision; text-rendering:geometricPrecision; image-rendering:optimizeQuality; fill-rule:evenodd; clip-rule:evenodd"
viewBox="0 0 740 1486"
 xmlns:xlink="http://www.w3.org/1999/xlink">
 <defs>
  <style type="text/css">
   <![CDATA[
    .fil0 {fill:#2B2A29;fill-rule:nonzero}
   ]]>
  </style>
 </defs>
 <g id="Layer_x0020_1">
  <metadata id="CorelCorpID_0Corel-Layer"/>
  <path class="fil0" d="M740 1167c0,-125 -98,-240 -178,-341 -73,-93 -104,-196 -123,-300 -12,-66 -16,-134 -16,-203 0,-87 7,-176 15,-266 1,-4 1,-8 1,-12 0,-33 -54,-45 -79,-45 -25,0 -80,10 -83,43 -9,94 -16,186 -16,277 0,75 5,148 18,220 20,111 58,218 133,321 39,53 99,117 128,177 -17,-4 -30,-5 -47,-5 -52,0 -96,20 -132,58 -35,-37 -89,-58 -145,-58 -62,0 -119,26 -159,67 -35,37 -57,85 -57,138 0,92 52,156 129,196 66,35 151,52 235,52 86,0 166,-16 230,-53 88,-49 146,-135 146,-266zm-376 227c-104,0 -225,-37 -233,-156l0 -11c0,-50 30,-110 87,-110 42,0 84,33 84,133 0,19 27,34 60,34 32,0 59,-15 59,-34 0,-55 12,-132 82,-132 42,0 87,35 89,97l0 7c0,120 -124,171 -228,172z"/>
 </g>
</svg>
