<?xml version="1.0" encoding="UTF-8"?>
<!DOCTYPE svg PUBLIC "-//W3C//DTD SVG 1.1//EN" "http://www.w3.org/Graphics/SVG/1.1/DTD/svg11.dtd">
<!-- Creator: CorelDRAW X8 -->
<svg xmlns="http://www.w3.org/2000/svg" xml:space="preserve" width="1127px" height="699px" version="1.1" style="shape-rendering:geometricPrecision; text-rendering:geometricPrecision; image-rendering:optimizeQuality; fill-rule:evenodd; clip-rule:evenodd"
viewBox="0 0 1127 699"
 xmlns:xlink="http://www.w3.org/1999/xlink">
 <defs>
  <style type="text/css">
   <![CDATA[
    .fil0 {fill:#CC6633}
   ]]>
  </style>
 </defs>
 <g id="Layer_x0020_1">
  <metadata id="CorelCorpID_0Corel-Layer"/>
  <path class="fil0" d="M386 621c-62,0 -137,-5 -193,-30 -39,-17 -67,-47 -65,-90 2,-51 58,-71 101,-71 56,-1 87,40 87,96 0,31 47,40 71,40 24,0 71,-9 71,-40 0,-56 31,-97 87,-96 43,0 99,20 101,71 1,43 -26,73 -65,90 -57,26 -133,30 -195,30zm579 -408c0,156 -36,304 -205,346 9,-19 15,-39 15,-58 0,-39 -21,-77 -69,-108 -40,-26 -101,-39 -161,-39 -53,0 -114,12 -158,40 -44,-28 -105,-40 -158,-40 -60,0 -121,13 -161,39 -47,30 -68,70 -68,108 -1,66 59,132 143,163 79,28 174,35 238,35 141,0 290,-17 393,-47 95,-28 188,-70 249,-138 65,-70 104,-169 104,-301l0 -213 -161 48 -1 165z"/>
 </g>
</svg>
