<?xml version="1.0" encoding="UTF-8"?>
<!DOCTYPE svg PUBLIC "-//W3C//DTD SVG 1.1//EN" "http://www.w3.org/Graphics/SVG/1.1/DTD/svg11.dtd">
<!-- Creator: CorelDRAW X8 -->
<svg xmlns="http://www.w3.org/2000/svg" xml:space="preserve" width="1127px" height="699px" version="1.1" style="shape-rendering:geometricPrecision; text-rendering:geometricPrecision; image-rendering:optimizeQuality; fill-rule:evenodd; clip-rule:evenodd"
viewBox="0 0 1127 699"
 xmlns:xlink="http://www.w3.org/1999/xlink">
 <defs>
  <style type="text/css">
   <![CDATA[
    .fil0 {fill:#898778}
   ]]>
  </style>
 </defs>
 <g id="Layer_x0020_1">
  <metadata id="CorelCorpID_0Corel-Layer"/>
  <path class="fil0" d="M386 621c62,0 138,-4 195,-30 39,-18 66,-47 65,-91 -2,-50 -58,-70 -101,-71 -56,0 -87,41 -87,97 0,31 -47,40 -71,40 -24,0 -71,-9 -71,-40 0,-56 -31,-97 -87,-97 -43,1 -99,21 -101,71 -1,44 26,73 65,91 56,25 131,30 193,30zm579 -408l0 -165 162 -48 0 213c0,131 -39,231 -104,301 -61,68 -154,110 -249,138 -103,30 -252,47 -393,47 -64,0 -159,-7 -238,-36 -84,-30 -144,-96 -143,-163 1,-38 21,-77 68,-107 41,-26 101,-39 161,-39 53,0 114,11 158,40 44,-29 105,-40 158,-40 60,0 120,13 161,39 48,30 69,69 69,107 0,20 -6,40 -15,59 168,-43 205,-190 205,-346z"/>
 </g>
</svg>
