<?xml version="1.0" encoding="UTF-8"?>
<!DOCTYPE svg PUBLIC "-//W3C//DTD SVG 1.1//EN" "http://www.w3.org/Graphics/SVG/1.1/DTD/svg11.dtd">
<!-- Creator: CorelDRAW X8 -->
<svg xmlns="http://www.w3.org/2000/svg" xml:space="preserve" width="1154px" height="1024px" version="1.1" style="shape-rendering:geometricPrecision; text-rendering:geometricPrecision; image-rendering:optimizeQuality; fill-rule:evenodd; clip-rule:evenodd"
viewBox="0 0 1154 1024"
 xmlns:xlink="http://www.w3.org/1999/xlink">
 <defs>
  <style type="text/css">
   <![CDATA[
    .fil0 {fill:#434242;fill-rule:nonzero}
   ]]>
  </style>
 </defs>
 <g id="Layer_x0020_1">
  <metadata id="CorelCorpID_0Corel-Layer"/>
  <path class="fil0" d="M838 1024c24,0 48,-7 69,-19 165,-95 247,-286 247,-470 0,-355 -263,-535 -588,-535 -321,0 -566,207 -566,540 0,156 49,317 159,409 64,53 136,75 217,75 81,0 165,-25 228,-78 71,-59 106,-155 106,-245 0,-84 -27,-158 -79,-212 -58,-62 -146,-98 -239,-98 -95,0 -176,41 -231,119 2,-235 163,-420 405,-420 259,0 430,186 430,445 0,157 -71,334 -213,410 -16,9 -24,21 -24,32 0,12 8,24 24,33 17,10 36,14 55,14zm-457 -91c-90,0 -175,-76 -175,-223 0,-148 88,-222 175,-222 87,0 174,74 174,222 0,149 -90,223 -174,223z"/>
 </g>
</svg>
