<?xml version="1.0" encoding="UTF-8"?>
<!DOCTYPE svg PUBLIC "-//W3C//DTD SVG 1.1//EN" "http://www.w3.org/Graphics/SVG/1.1/DTD/svg11.dtd">
<!-- Creator: CorelDRAW X8 -->
<svg xmlns="http://www.w3.org/2000/svg" xml:space="preserve" width="1154px" height="1024px" version="1.1" style="shape-rendering:geometricPrecision; text-rendering:geometricPrecision; image-rendering:optimizeQuality; fill-rule:evenodd; clip-rule:evenodd"
viewBox="0 0 1154 1024"
 xmlns:xlink="http://www.w3.org/1999/xlink">
 <defs>
  <style type="text/css">
   <![CDATA[
    .fil0 {fill:#898778;fill-rule:nonzero}
   ]]>
  </style>
 </defs>
 <g id="Layer_x0020_1">
  <metadata id="CorelCorpID_0Corel-Layer"/>
  <path class="fil0" d="M0 540c0,-326 244,-533 561,-540 318,-6 589,192 593,527 2,187 -80,383 -247,479 -37,21 -86,26 -124,4 -32,-18 -32,-47 0,-64 149,-81 220,-255 213,-419 -11,-253 -174,-438 -432,-437 -242,0 -401,185 -403,420 52,-75 130,-116 220,-119 97,-3 190,34 250,98 54,57 81,133 79,221 -3,89 -37,179 -106,237 -58,48 -139,76 -223,77 -83,1 -157,-22 -222,-75 -111,-92 -159,-253 -159,-409zm206 170c0,148 85,223 175,223 84,0 173,-74 174,-223 0,-148 -87,-222 -174,-222 -87,0 -175,74 -175,222z"/>
 </g>
</svg>
