<?xml version="1.0" encoding="UTF-8"?>
<!DOCTYPE svg PUBLIC "-//W3C//DTD SVG 1.1//EN" "http://www.w3.org/Graphics/SVG/1.1/DTD/svg11.dtd">
<!-- Creator: CorelDRAW X8 -->
<svg xmlns="http://www.w3.org/2000/svg" xml:space="preserve" width="841px" height="1024px" version="1.1" style="shape-rendering:geometricPrecision; text-rendering:geometricPrecision; image-rendering:optimizeQuality; fill-rule:evenodd; clip-rule:evenodd"
viewBox="0 0 841 1024"
 xmlns:xlink="http://www.w3.org/1999/xlink">
 <defs>
  <style type="text/css">
   <![CDATA[
    .fil0 {fill:#009846;fill-rule:nonzero}
   ]]>
  </style>
 </defs>
 <g id="Layer_x0020_1">
  <metadata id="CorelCorpID_0Corel-Layer"/>
  <path class="fil0" d="M0 512c0,320 184,507 503,512 67,1 144,-5 207,-33 82,-38 133,-115 131,-205 -3,-138 -122,-209 -246,-209 -162,0 -240,105 -238,212 0,47 16,93 44,130 -181,-54 -239,-237 -239,-407 0,-170 58,-353 239,-407 -28,37 -44,83 -44,130 -2,107 76,212 238,212 124,0 243,-71 246,-209 2,-90 -49,-167 -131,-205 -63,-28 -140,-34 -207,-33 -319,5 -503,192 -503,512zm500 278c0,-80 51,-122 95,-122 61,0 94,69 95,122 0,80 -47,123 -95,123 -47,0 -95,-41 -95,-123zm0 -556c0,-82 48,-123 95,-123 48,0 95,43 95,123 -1,53 -34,122 -95,122 -44,0 -95,-42 -95,-122z"/>
 </g>
</svg>
