<?xml version="1.0" encoding="UTF-8"?>
<!DOCTYPE svg PUBLIC "-//W3C//DTD SVG 1.1//EN" "http://www.w3.org/Graphics/SVG/1.1/DTD/svg11.dtd">
<!-- Creator: CorelDRAW X8 -->
<svg xmlns="http://www.w3.org/2000/svg" xml:space="preserve" width="659px" height="1486px" version="1.1" style="shape-rendering:geometricPrecision; text-rendering:geometricPrecision; image-rendering:optimizeQuality; fill-rule:evenodd; clip-rule:evenodd"
viewBox="0 0 659 1486"
 xmlns:xlink="http://www.w3.org/1999/xlink">
 <defs>
  <style type="text/css">
   <![CDATA[
    .fil0 {fill:#009846;fill-rule:nonzero}
   ]]>
  </style>
 </defs>
 <g id="Layer_x0020_1">
  <metadata id="CorelCorpID_0Corel-Layer"/>
  <path class="fil0" d="M194 43c3,-25 41,-44 86,-43 45,1 79,23 77,48 -16,164 -28,325 -1,478 19,104 54,205 123,300 86,116 177,214 180,339 4,199 -146,321 -339,321 -141,0 -313,-77 -320,-235 -2,-45 19,-92 51,-125 22,-22 47,-37 75,-42 23,-5 48,-2 73,9 30,13 48,35 14,60 -32,25 -53,57 -50,98 5,83 61,143 157,144 127,1 182,-119 174,-231 -8,-115 -91,-202 -165,-303 -75,-103 -113,-210 -133,-321 -29,-159 -18,-326 -2,-497z"/>
 </g>
</svg>
