<?xml version="1.0" encoding="UTF-8"?>
<!DOCTYPE svg PUBLIC "-//W3C//DTD SVG 1.1//EN" "http://www.w3.org/Graphics/SVG/1.1/DTD/svg11.dtd">
<!-- Creator: CorelDRAW X8 -->
<svg xmlns="http://www.w3.org/2000/svg" xml:space="preserve" width="659px" height="1486px" version="1.1" style="shape-rendering:geometricPrecision; text-rendering:geometricPrecision; image-rendering:optimizeQuality; fill-rule:evenodd; clip-rule:evenodd"
viewBox="0 0 659 1486"
 xmlns:xlink="http://www.w3.org/1999/xlink">
 <defs>
  <style type="text/css">
   <![CDATA[
    .fil0 {fill:#2B2A29;fill-rule:nonzero}
   ]]>
  </style>
 </defs>
 <g id="Layer_x0020_1">
  <metadata id="CorelCorpID_0Corel-Layer"/>
  <path class="fil0" d="M322 1486c190,0 337,-119 337,-313 0,-134 -104,-245 -180,-347 -69,-95 -104,-196 -123,-300 -12,-66 -16,-133 -16,-201 0,-86 7,-173 16,-262 0,-6 1,-11 1,-17 0,-33 -53,-46 -78,-46 -27,0 -81,10 -85,43 -9,94 -16,186 -16,277 0,75 5,148 18,220 20,111 58,218 133,321 79,108 166,183 166,324 0,105 -56,210 -173,210 -92,0 -159,-56 -159,-150 0,-37 20,-69 50,-92 13,-10 18,-19 18,-27 0,-14 -14,-25 -32,-33 -17,-8 -34,-11 -51,-11 -39,0 -70,17 -97,44 -31,32 -51,76 -51,119 0,162 183,241 322,241z"/>
 </g>
</svg>
