<?xml version="1.0" encoding="UTF-8"?>
<!DOCTYPE svg PUBLIC "-//W3C//DTD SVG 1.1//EN" "http://www.w3.org/Graphics/SVG/1.1/DTD/svg11.dtd">
<!-- Creator: CorelDRAW X8 -->
<svg xmlns="http://www.w3.org/2000/svg" xml:space="preserve" width="698px" height="1297px" version="1.1" style="shape-rendering:geometricPrecision; text-rendering:geometricPrecision; image-rendering:optimizeQuality; fill-rule:evenodd; clip-rule:evenodd"
viewBox="0 0 698 1297"
 xmlns:xlink="http://www.w3.org/1999/xlink">
 <defs>
  <style type="text/css">
   <![CDATA[
    .fil0 {fill:#898778;fill-rule:nonzero}
   ]]>
  </style>
 </defs>
 <g id="Layer_x0020_1">
  <metadata id="CorelCorpID_0Corel-Layer"/>
  <path class="fil0" d="M150 28c12,-17 43,-28 74,-28 34,0 99,18 76,63 -46,86 -79,200 -101,319 -29,155 -40,321 -36,448 2,58 7,122 21,183 14,58 36,111 73,147 31,29 77,43 125,45 65,4 134,-11 180,-35 33,-16 84,-15 115,4 32,19 26,48 -6,64 -74,37 -183,61 -289,58 -92,-2 -197,-25 -265,-90 -50,-48 -78,-113 -94,-181 -15,-65 -20,-134 -22,-195 -5,-146 11,-307 37,-448 29,-164 73,-301 112,-354z"/>
 </g>
</svg>
