<?xml version="1.0" encoding="UTF-8"?>
<!DOCTYPE svg PUBLIC "-//W3C//DTD SVG 1.1//EN" "http://www.w3.org/Graphics/SVG/1.1/DTD/svg11.dtd">
<!-- Creator: CorelDRAW X8 -->
<svg xmlns="http://www.w3.org/2000/svg" xml:space="preserve" width="698px" height="1297px" version="1.1" style="shape-rendering:geometricPrecision; text-rendering:geometricPrecision; image-rendering:optimizeQuality; fill-rule:evenodd; clip-rule:evenodd"
viewBox="0 0 698 1297"
 xmlns:xlink="http://www.w3.org/1999/xlink">
 <defs>
  <style type="text/css">
   <![CDATA[
    .fil0 {fill:#434242;fill-rule:nonzero}
   ]]>
  </style>
 </defs>
 <g id="Layer_x0020_1">
  <metadata id="CorelCorpID_0Corel-Layer"/>
  <path class="fil0" d="M400 1297c100,0 201,-23 271,-58 17,-9 27,-21 27,-34 0,-11 -6,-22 -21,-31 -16,-10 -38,-15 -59,-15 -20,0 -40,4 -56,12 -42,21 -103,35 -163,35 -50,0 -105,-10 -142,-46 -89,-85 -94,-266 -95,-385 -1,-118 12,-259 37,-393 23,-119 55,-233 101,-319 3,-7 5,-12 5,-18 0,-32 -52,-45 -81,-45 -32,0 -62,11 -75,28 -38,53 -82,190 -112,354 -22,124 -39,263 -37,394 1,143 7,325 117,430 73,70 186,91 283,91z"/>
 </g>
</svg>
