<?xml version="1.0" encoding="UTF-8"?>
<!DOCTYPE svg PUBLIC "-//W3C//DTD SVG 1.1//EN" "http://www.w3.org/Graphics/SVG/1.1/DTD/svg11.dtd">
<!-- Creator: CorelDRAW X8 -->
<svg xmlns="http://www.w3.org/2000/svg" xml:space="preserve" width="1260px" height="472px" version="1.1" style="shape-rendering:geometricPrecision; text-rendering:geometricPrecision; image-rendering:optimizeQuality; fill-rule:evenodd; clip-rule:evenodd"
viewBox="0 0 1260 472"
 xmlns:xlink="http://www.w3.org/1999/xlink">
 <defs>
  <style type="text/css">
   <![CDATA[
    .fil0 {fill:#009846;fill-rule:nonzero}
   ]]>
  </style>
 </defs>
 <g id="Layer_x0020_1">
  <metadata id="CorelCorpID_0Corel-Layer"/>
  <path class="fil0" d="M347 0c110,-2 224,19 296,59 66,37 112,93 153,184 33,75 56,147 154,144 46,-1 83,-17 110,-43 34,-33 52,-81 47,-136 -4,-55 -35,-108 -88,-128 -28,-11 -50,-37 -21,-60 27,-22 75,-23 106,-11 87,33 147,101 155,195 7,87 -34,169 -107,215 -50,32 -123,51 -195,53 -173,5 -242,-57 -309,-208 -21,-47 -45,-83 -73,-111 -40,-40 -90,-61 -155,-69 57,31 96,84 96,166 0,148 -120,220 -254,220 -41,0 -81,-8 -118,-22 -81,-31 -144,-97 -144,-198 0,-116 82,-178 129,-205 63,-34 148,-44 218,-45zm34 250c0,-71 -43,-140 -119,-140 -76,0 -119,69 -119,140 0,70 43,139 119,139 76,0 119,-69 119,-139z"/>
 </g>
</svg>
