<?xml version="1.0" encoding="UTF-8"?>
<!DOCTYPE svg PUBLIC "-//W3C//DTD SVG 1.1//EN" "http://www.w3.org/Graphics/SVG/1.1/DTD/svg11.dtd">
<!-- Creator: CorelDRAW X8 -->
<svg xmlns="http://www.w3.org/2000/svg" xml:space="preserve" width="1260px" height="472px" version="1.1" style="shape-rendering:geometricPrecision; text-rendering:geometricPrecision; image-rendering:optimizeQuality; fill-rule:evenodd; clip-rule:evenodd"
viewBox="0 0 1260 472"
 xmlns:xlink="http://www.w3.org/1999/xlink">
 <defs>
  <style type="text/css">
   <![CDATA[
    .fil0 {fill:#2B2A29;fill-rule:nonzero}
   ]]>
  </style>
 </defs>
 <g id="Layer_x0020_1">
  <metadata id="CorelCorpID_0Corel-Layer"/>
  <path class="fil0" d="M1152 419c68,-43 108,-116 108,-196 0,-109 -89,-222 -200,-222 -23,0 -46,6 -62,19 -10,8 -14,16 -14,23 0,16 16,30 35,37 64,24 89,83 89,146 0,47 -18,89 -48,118 -32,31 -78,43 -122,43 -93,0 -110,-71 -142,-144 -41,-91 -87,-147 -153,-184 -69,-38 -176,-59 -282,-59 -75,0 -165,9 -232,45 -47,27 -129,89 -129,205 0,145 132,220 262,220 134,0 254,-72 254,-220 0,-82 -39,-135 -96,-166 65,8 115,29 155,69 28,28 52,64 73,111 65,145 131,208 290,208 73,0 152,-13 214,-53zm-890 -30c-76,0 -119,-69 -119,-139 0,-71 43,-140 119,-140 76,0 119,69 119,140 0,70 -43,139 -119,139z"/>
 </g>
</svg>
