<?xml version="1.0" encoding="UTF-8"?>
<!DOCTYPE svg PUBLIC "-//W3C//DTD SVG 1.1//EN" "http://www.w3.org/Graphics/SVG/1.1/DTD/svg11.dtd">
<!-- Creator: CorelDRAW X8 -->
<svg xmlns="http://www.w3.org/2000/svg" xml:space="preserve" width="1013px" height="1381px" version="1.1" style="shape-rendering:geometricPrecision; text-rendering:geometricPrecision; image-rendering:optimizeQuality; fill-rule:evenodd; clip-rule:evenodd"
viewBox="0 0 1013 1381"
 xmlns:xlink="http://www.w3.org/1999/xlink">
 <defs>
  <style type="text/css">
   <![CDATA[
    .fil0 {fill:#434242;fill-rule:nonzero}
   ]]>
  </style>
 </defs>
 <g id="Layer_x0020_1">
  <metadata id="CorelCorpID_0Corel-Layer"/>
  <path class="fil0" d="M932 1381c45,0 81,-21 81,-46l0 -526c0,-127 -49,-228 -129,-300 -78,-70 -186,-110 -307,-125 -97,-12 -196,-26 -196,-147 0,-80 53,-146 133,-146 67,0 127,47 158,104 14,24 50,33 80,33 27,0 80,-11 80,-45 0,-4 -1,-9 -4,-14 -62,-113 -189,-169 -314,-169 -147,0 -295,69 -296,237 -1,83 40,136 97,171 -71,21 -135,55 -187,102 -78,70 -128,170 -128,299l0 526c0,25 36,46 81,46l851 0zm-82 -92l-456 0c200,-137 312,-356 311,-547 0,-110 -43,-209 -134,-265 161,24 279,146 279,332l0 480zm-687 0l0 -480c0,-111 40,-194 103,-251 33,-30 73,-49 119,-49 117,0 159,134 159,233 0,230 -173,460 -381,547z"/>
 </g>
</svg>
