<?xml version="1.0" encoding="UTF-8"?>
<!DOCTYPE svg PUBLIC "-//W3C//DTD SVG 1.1//EN" "http://www.w3.org/Graphics/SVG/1.1/DTD/svg11.dtd">
<!-- Creator: CorelDRAW X8 -->
<svg xmlns="http://www.w3.org/2000/svg" xml:space="preserve" width="1013px" height="1381px" version="1.1" style="shape-rendering:geometricPrecision; text-rendering:geometricPrecision; image-rendering:optimizeQuality; fill-rule:evenodd; clip-rule:evenodd"
viewBox="0 0 1013 1381"
 xmlns:xlink="http://www.w3.org/1999/xlink">
 <defs>
  <style type="text/css">
   <![CDATA[
    .fil0 {fill:#CC6633;fill-rule:nonzero}
   ]]>
  </style>
 </defs>
 <g id="Layer_x0020_1">
  <metadata id="CorelCorpID_0Corel-Layer"/>
  <path class="fil0" d="M394 1290l456 0 0 -480c0,-109 -40,-194 -104,-252 -47,-42 -108,-70 -175,-80 91,56 133,155 134,265 0,66 -13,136 -39,204 -48,126 -139,252 -272,343zm434 -1120c2,4 3,8 3,12 1,20 -21,39 -57,45 -9,1 -18,2 -27,2 -33,-1 -64,-13 -75,-33 -30,-55 -85,-100 -150,-104 -84,-4 -141,64 -141,146 0,121 99,135 196,147 121,15 229,55 307,125 80,72 129,173 129,300l0 526c0,25 -36,46 -81,46l-851 0c-45,0 -81,-21 -81,-46l0 -526c0,-129 50,-229 128,-299 52,-47 116,-81 187,-102 -57,-35 -97,-88 -97,-171 1,-170 153,-239 302,-237 123,2 247,57 308,169zm-562 389c-63,57 -103,140 -103,251l0 480c150,-63 280,-198 342,-354 24,-61 38,-125 39,-190 1,-101 -42,-241 -165,-236 -39,1 -79,19 -113,49z"/>
 </g>
</svg>
