<?xml version="1.0" encoding="UTF-8"?>
<!DOCTYPE svg PUBLIC "-//W3C//DTD SVG 1.1//EN" "http://www.w3.org/Graphics/SVG/1.1/DTD/svg11.dtd">
<!-- Creator: CorelDRAW X8 -->
<svg xmlns="http://www.w3.org/2000/svg" xml:space="preserve" width="1874px" height="1405px" version="1.1" style="shape-rendering:geometricPrecision; text-rendering:geometricPrecision; image-rendering:optimizeQuality; fill-rule:evenodd; clip-rule:evenodd"
viewBox="0 0 1874 1405"
 xmlns:xlink="http://www.w3.org/1999/xlink">
 <defs>
  <style type="text/css">
   <![CDATA[
    .fil0 {fill:#898778;fill-rule:nonzero}
   ]]>
  </style>
 </defs>
 <g id="Layer_x0020_1">
  <metadata id="CorelCorpID_0Corel-Layer"/>
  <path class="fil0" d="M643 830c11,165 64,316 204,415 137,-89 209,-254 217,-415 12,-241 -105,-358 -217,-358 -113,0 -219,126 -204,358zm987 0c-1,110 -28,222 -79,312 -95,169 -278,262 -470,262 -87,0 -165,-13 -234,-38 -71,25 -153,39 -242,39 -182,-1 -345,-50 -468,-190 -89,-103 -134,-250 -137,-385 -2,-104 20,-208 69,-292 58,-99 173,-157 283,-157 109,0 188,43 235,139 58,-92 154,-139 260,-139 190,0 394,149 379,449 -9,187 -93,366 -249,472 33,7 67,11 104,11 133,0 251,-85 315,-198 46,-82 71,-184 71,-285 1,-145 -49,-235 -100,-320 -50,-83 -99,-160 -98,-277 1,-56 15,-101 45,-136 58,-69 155,-97 245,-97 124,0 250,57 311,170 18,33 -29,53 -54,57 -31,5 -85,-1 -101,-31 -32,-58 -89,-104 -158,-104 -38,0 -71,15 -96,44 -20,23 -32,54 -34,92 -3,88 41,164 86,237 78,126 118,204 117,365zm-1025 484c41,-1 80,-5 115,-13 -158,-113 -224,-284 -237,-471 -4,-47 1,-132 -11,-207 -12,-81 -42,-151 -120,-151 -44,0 -91,30 -128,94 -44,75 -64,169 -61,264 3,121 41,253 121,345 88,101 188,139 321,139z"/>
 </g>
</svg>
