<?xml version="1.0" encoding="UTF-8"?>
<!DOCTYPE svg PUBLIC "-//W3C//DTD SVG 1.1//EN" "http://www.w3.org/Graphics/SVG/1.1/DTD/svg11.dtd">
<!-- Creator: CorelDRAW X8 -->
<svg xmlns="http://www.w3.org/2000/svg" xml:space="preserve" width="1163px" height="1024px" version="1.1" style="shape-rendering:geometricPrecision; text-rendering:geometricPrecision; image-rendering:optimizeQuality; fill-rule:evenodd; clip-rule:evenodd"
viewBox="0 0 1163 1024"
 xmlns:xlink="http://www.w3.org/1999/xlink">
 <defs>
  <style type="text/css">
   <![CDATA[
    .fil0 {fill:#CC6633;fill-rule:nonzero}
   ]]>
  </style>
 </defs>
 <g id="Layer_x0020_1">
  <metadata id="CorelCorpID_0Corel-Layer"/>
  <path class="fil0" d="M203 473c3,5 5,10 5,15 0,19 -21,37 -54,43 -10,3 -20,4 -30,4 -34,0 -65,-13 -83,-45 -27,-48 -41,-114 -41,-173 0,-200 141,-317 334,-317 85,0 181,24 235,100 49,-76 133,-100 223,-100 240,0 371,169 371,409 0,178 -61,350 -201,466 -117,99 -277,149 -458,149 -103,0 -214,-26 -306,-73 -20,-11 -36,-26 -35,-42 1,-10 8,-19 24,-28 16,-10 38,-14 59,-14 20,0 40,5 56,13 58,32 135,53 202,53 125,0 238,-37 323,-108 122,-102 174,-261 174,-416 0,-135 -45,-318 -209,-318 -112,0 -142,89 -142,183l0 215c0,25 -36,46 -81,46 -45,0 -82,-21 -82,-46l0 -210c0,-105 -28,-188 -153,-188 -123,0 -175,114 -174,226 1,58 16,115 43,156z"/>
 </g>
</svg>
