<?xml version="1.0" encoding="UTF-8"?>
<!DOCTYPE svg PUBLIC "-//W3C//DTD SVG 1.1//EN" "http://www.w3.org/Graphics/SVG/1.1/DTD/svg11.dtd">
<!-- Creator: CorelDRAW X8 -->
<svg xmlns="http://www.w3.org/2000/svg" xml:space="preserve" width="1163px" height="1024px" version="1.1" style="shape-rendering:geometricPrecision; text-rendering:geometricPrecision; image-rendering:optimizeQuality; fill-rule:evenodd; clip-rule:evenodd"
viewBox="0 0 1163 1024"
 xmlns:xlink="http://www.w3.org/1999/xlink">
 <defs>
  <style type="text/css">
   <![CDATA[
    .fil0 {fill:#2B2A29;fill-rule:nonzero}
   ]]>
  </style>
 </defs>
 <g id="Layer_x0020_1">
  <metadata id="CorelCorpID_0Corel-Layer"/>
  <path class="fil0" d="M504 1024c181,0 341,-50 458,-149 140,-116 201,-288 201,-466 0,-240 -131,-409 -371,-409 -90,0 -174,24 -223,100 -54,-76 -150,-100 -235,-100 -193,0 -334,117 -334,317 0,59 14,125 41,173 18,32 48,45 81,45 13,0 32,-3 50,-10 19,-7 36,-19 36,-36 0,-12 -10,-24 -16,-35 -22,-42 -32,-94 -32,-140 0,-111 52,-223 174,-223 125,0 153,83 153,188l0 210c0,25 37,46 82,46 45,0 81,-21 81,-46l0 -215c0,-94 30,-183 142,-183 164,0 209,183 209,318 0,155 -52,314 -174,416 -85,71 -198,108 -323,108 -67,0 -144,-21 -202,-53 -16,-8 -36,-13 -57,-13 -14,0 -38,4 -57,13 -14,7 -25,17 -25,31 0,15 14,29 35,40 92,47 203,73 306,73z"/>
 </g>
</svg>
