<?xml version="1.0" encoding="UTF-8"?>
<!DOCTYPE svg PUBLIC "-//W3C//DTD SVG 1.1//EN" "http://www.w3.org/Graphics/SVG/1.1/DTD/svg11.dtd">
<!-- Creator: CorelDRAW X8 -->
<svg xmlns="http://www.w3.org/2000/svg" xml:space="preserve" width="2208px" height="1412px" version="1.1" style="shape-rendering:geometricPrecision; text-rendering:geometricPrecision; image-rendering:optimizeQuality; fill-rule:evenodd; clip-rule:evenodd"
viewBox="0 0 2208 1412"
 xmlns:xlink="http://www.w3.org/1999/xlink">
 <defs>
  <style type="text/css">
   <![CDATA[
    .fil0 {fill:#434242;fill-rule:nonzero}
   ]]>
  </style>
 </defs>
 <g id="Layer_x0020_1">
  <metadata id="CorelCorpID_0Corel-Layer"/>
  <path class="fil0" d="M922 147c-89,-109 -262,-147 -397,-147 -216,0 -381,103 -464,267 -39,78 -61,171 -61,273 0,156 48,317 159,408 65,53 135,75 216,75 81,0 167,-25 229,-77 75,-61 105,-155 105,-249 0,-82 -28,-155 -78,-208 -58,-62 -146,-98 -240,-98 -94,0 -175,41 -230,119 1,-73 19,-145 50,-209 60,-120 169,-210 314,-210 187,0 317,109 317,301l0 586c0,25 38,46 82,46 44,0 80,-21 80,-46l0 -586c0,-185 108,-302 290,-302 95,0 195,35 269,100 -128,16 -246,74 -325,178 -59,78 -90,179 -90,277 0,83 22,165 65,229 67,102 177,149 297,149 118,0 231,-50 299,-163 52,-87 73,-189 73,-289 0,-79 -13,-156 -41,-227 147,106 204,289 204,463 0,246 -130,514 -409,514 -82,0 -170,-23 -235,-75 -17,-13 -42,-19 -66,-19 -17,0 -34,3 -47,8 -20,8 -35,22 -35,38 0,8 5,17 15,25 100,80 231,114 357,114 374,0 583,-254 583,-611 0,-289 -152,-542 -453,-603 -104,-125 -252,-198 -461,-198 -145,0 -271,39 -372,147zm587 785c-62,0 -111,-40 -144,-90 -36,-54 -54,-124 -54,-197 0,-86 25,-173 77,-242 60,-80 149,-126 249,-126 59,86 82,189 82,292 0,91 -16,184 -64,262 -41,67 -90,102 -146,101zm-1129 0c-89,0 -174,-74 -174,-222 0,-148 87,-222 174,-222 88,0 174,74 174,222 0,106 -54,222 -174,222z"/>
 </g>
</svg>
