<?xml version="1.0" encoding="UTF-8"?>
<!DOCTYPE svg PUBLIC "-//W3C//DTD SVG 1.1//EN" "http://www.w3.org/Graphics/SVG/1.1/DTD/svg11.dtd">
<!-- Creator: CorelDRAW X8 -->
<svg xmlns="http://www.w3.org/2000/svg" xml:space="preserve" width="1288px" height="1412px" version="1.1" style="shape-rendering:geometricPrecision; text-rendering:geometricPrecision; image-rendering:optimizeQuality; fill-rule:evenodd; clip-rule:evenodd"
viewBox="0 0 1288 1412"
 xmlns:xlink="http://www.w3.org/1999/xlink">
 <defs>
  <style type="text/css">
   <![CDATA[
    .fil0 {fill:#2B2A29;fill-rule:nonzero}
   ]]>
  </style>
 </defs>
 <g id="Layer_x0020_1">
  <metadata id="CorelCorpID_0Corel-Layer"/>
  <path class="fil0" d="M569 1412c45,0 81,-31 81,-69 0,-39 -36,-70 -81,-70l-275 0c-71,0 -130,-61 -130,-137 0,-80 61,-137 138,-137l905 0c26,0 81,-12 81,-46l0 -554c0,-256 -223,-399 -445,-399 -215,0 -431,129 -431,392l0 516 -115 0c-142,0 -297,92 -297,252 0,164 144,252 294,252l275 0zm557 -504l-552 0 0 -516c0,-205 133,-300 267,-301 141,0 285,108 285,308l0 509z"/>
 </g>
</svg>
