<?xml version="1.0" encoding="UTF-8"?>
<!DOCTYPE svg PUBLIC "-//W3C//DTD SVG 1.1//EN" "http://www.w3.org/Graphics/SVG/1.1/DTD/svg11.dtd">
<!-- Creator: CorelDRAW X8 -->
<svg xmlns="http://www.w3.org/2000/svg" xml:space="preserve" width="1288px" height="1412px" version="1.1" style="shape-rendering:geometricPrecision; text-rendering:geometricPrecision; image-rendering:optimizeQuality; fill-rule:evenodd; clip-rule:evenodd"
viewBox="0 0 1288 1411"
 xmlns:xlink="http://www.w3.org/1999/xlink">
 <defs>
  <style type="text/css">
   <![CDATA[
    .fil0 {fill:#669933;fill-rule:nonzero}
   ]]>
  </style>
 </defs>
 <g id="Layer_x0020_1">
  <metadata id="CorelCorpID_0Corel-Layer"/>
  <path class="fil0" d="M412 392c0,-263 216,-392 431,-392 221,0 445,143 445,399l0 554c0,34 -56,45 -81,45l-905 0c-77,0 -138,57 -138,138 0,75 59,137 130,137l275 0c45,0 81,31 81,69 0,38 -36,69 -81,69l-275 0c-144,0 -293,-83 -294,-250 -1,-161 155,-254 297,-254l115 0 0 -515zm162 0l0 515 552 0 0 -508c0,-200 -144,-308 -285,-308 -134,0 -267,96 -267,301z"/>
 </g>
</svg>
