<?xml version="1.0" encoding="UTF-8"?>
<!DOCTYPE svg PUBLIC "-//W3C//DTD SVG 1.1//EN" "http://www.w3.org/Graphics/SVG/1.1/DTD/svg11.dtd">
<!-- Creator: CorelDRAW X8 -->
<svg xmlns="http://www.w3.org/2000/svg" xml:space="preserve" width="1383px" height="1012px" version="1.1" style="shape-rendering:geometricPrecision; text-rendering:geometricPrecision; image-rendering:optimizeQuality; fill-rule:evenodd; clip-rule:evenodd"
viewBox="0 0 1383 1012"
 xmlns:xlink="http://www.w3.org/1999/xlink">
 <defs>
  <style type="text/css">
   <![CDATA[
    .fil0 {fill:#434242;fill-rule:nonzero}
   ]]>
  </style>
 </defs>
 <g id="Layer_x0020_1">
  <metadata id="CorelCorpID_0Corel-Layer"/>
  <path class="fil0" d="M352 1012c21,0 42,-5 59,-16 14,-9 20,-19 20,-29 0,-13 -11,-26 -28,-34 -160,-77 -239,-245 -239,-417 0,-218 135,-426 382,-426 242,-1 382,200 382,426 0,164 -76,326 -239,405 -19,9 -29,22 -28,35 1,33 57,44 83,44l557 0c45,0 82,-21 82,-46 0,-25 -37,-45 -82,-45l-384 0c111,-98 175,-242 175,-393 0,-304 -249,-516 -546,-516 -296,0 -546,210 -546,516 0,197 111,391 289,481 19,9 41,15 63,15z"/>
 </g>
</svg>
