<?xml version="1.0" encoding="UTF-8"?>
<!DOCTYPE svg PUBLIC "-//W3C//DTD SVG 1.1//EN" "http://www.w3.org/Graphics/SVG/1.1/DTD/svg11.dtd">
<!-- Creator: CorelDRAW X8 -->
<svg xmlns="http://www.w3.org/2000/svg" xml:space="preserve" width="1383px" height="1012px" version="1.1" style="shape-rendering:geometricPrecision; text-rendering:geometricPrecision; image-rendering:optimizeQuality; fill-rule:evenodd; clip-rule:evenodd"
viewBox="0 0 1383 1012"
 xmlns:xlink="http://www.w3.org/1999/xlink">
 <defs>
  <style type="text/css">
   <![CDATA[
    .fil0 {fill:#009846;fill-rule:nonzero}
   ]]>
  </style>
 </defs>
 <g id="Layer_x0020_1">
  <metadata id="CorelCorpID_0Corel-Layer"/>
  <path class="fil0" d="M1301 909c45,0 82,20 82,45 0,25 -37,46 -82,46l-557 0c-26,0 -81,-11 -83,-44 0,-13 9,-26 28,-35 166,-81 242,-242 239,-410 -4,-215 -138,-421 -382,-421 -247,1 -382,203 -382,421 -1,165 76,342 239,422 31,15 39,43 8,63 -36,23 -86,19 -122,1 -180,-91 -291,-287 -289,-486 3,-299 246,-511 546,-511 298,0 540,216 546,511 3,155 -61,298 -175,398l384 0z"/>
 </g>
</svg>
