<?xml version="1.0" encoding="UTF-8"?>
<!DOCTYPE svg PUBLIC "-//W3C//DTD SVG 1.1//EN" "http://www.w3.org/Graphics/SVG/1.1/DTD/svg11.dtd">
<!-- Creator: CorelDRAW X8 -->
<svg xmlns="http://www.w3.org/2000/svg" xml:space="preserve" width="1872px" height="1024px" version="1.1" style="shape-rendering:geometricPrecision; text-rendering:geometricPrecision; image-rendering:optimizeQuality; fill-rule:evenodd; clip-rule:evenodd"
viewBox="0 0 1872 1024"
 xmlns:xlink="http://www.w3.org/1999/xlink">
 <defs>
  <style type="text/css">
   <![CDATA[
    .fil0 {fill:#CC6633;fill-rule:nonzero}
   ]]>
  </style>
 </defs>
 <g id="Layer_x0020_1">
  <metadata id="CorelCorpID_0Corel-Layer"/>
  <path class="fil0" d="M1566 503c-2,153 -53,302 -163,406l387 0c45,0 82,20 82,45 0,26 -37,46 -82,46l-557 0c-27,0 -86,-10 -85,-46 1,-14 12,-27 32,-36 156,-66 221,-258 223,-415 3,-171 -92,-412 -293,-412 -161,0 -232,115 -232,265l0 622c0,25 -37,46 -82,46 -45,0 -81,-21 -81,-46l0 -622c0,-150 -72,-265 -233,-265 -131,0 -237,96 -284,214 -26,67 -36,142 -35,215 2,158 67,356 223,422 20,9 31,22 32,35 0,10 -5,20 -17,29 -31,24 -83,22 -118,7 -194,-86 -280,-291 -283,-493 -1,-91 14,-182 51,-261 79,-169 248,-259 431,-259 132,0 244,38 314,117 71,-79 182,-117 314,-117 284,0 460,229 456,503z"/>
 </g>
</svg>
