<?xml version="1.0" encoding="UTF-8"?>
<!DOCTYPE svg PUBLIC "-//W3C//DTD SVG 1.1//EN" "http://www.w3.org/Graphics/SVG/1.1/DTD/svg11.dtd">
<!-- Creator: CorelDRAW X8 -->
<svg xmlns="http://www.w3.org/2000/svg" xml:space="preserve" width="1182px" height="1405px" version="1.1" style="shape-rendering:geometricPrecision; text-rendering:geometricPrecision; image-rendering:optimizeQuality; fill-rule:evenodd; clip-rule:evenodd"
viewBox="0 0 1182 1405"
 xmlns:xlink="http://www.w3.org/1999/xlink">
 <defs>
  <style type="text/css">
   <![CDATA[
    .fil0 {fill:#009846;fill-rule:nonzero}
   ]]>
  </style>
 </defs>
 <g id="Layer_x0020_1">
  <metadata id="CorelCorpID_0Corel-Layer"/>
  <path class="fil0" d="M359 1331c30,21 17,50 -14,64 -44,19 -90,10 -129,-19 -143,-109 -216,-292 -216,-460 -1,-304 234,-513 532,-536l0 -335c0,-25 37,-45 81,-45 45,0 82,20 82,45l0 337c294,35 479,246 487,534 6,237 -113,487 -378,488 -227,1 -272,-153 -272,-341l0 -590c-226,33 -370,224 -369,443 1,152 66,323 196,415zm336 -854l0 586c0,185 49,252 110,251 135,-2 223,-196 214,-398 -8,-193 -103,-393 -324,-439z"/>
 </g>
</svg>
