<?xml version="1.0" encoding="UTF-8"?>
<!DOCTYPE svg PUBLIC "-//W3C//DTD SVG 1.1//EN" "http://www.w3.org/Graphics/SVG/1.1/DTD/svg11.dtd">
<!-- Creator: CorelDRAW X8 -->
<svg xmlns="http://www.w3.org/2000/svg" xml:space="preserve" width="1754px" height="1679px" version="1.1" style="shape-rendering:geometricPrecision; text-rendering:geometricPrecision; image-rendering:optimizeQuality; fill-rule:evenodd; clip-rule:evenodd"
viewBox="0 0 1754 1680"
 xmlns:xlink="http://www.w3.org/1999/xlink">
 <defs>
  <style type="text/css">
   <![CDATA[
    .fil0 {fill:#2B2A29;fill-rule:nonzero}
   ]]>
  </style>
 </defs>
 <g id="Layer_x0020_1">
  <metadata id="CorelCorpID_0Corel-Layer"/>
  <path class="fil0" d="M768 1680c322,0 609,-226 609,-562 0,-148 -65,-274 -209,-333 91,-40 157,-109 157,-215 0,-213 -237,-293 -419,-293 -332,0 -534,229 -534,555 0,154 51,317 153,433 23,26 51,38 82,38 13,0 26,-2 39,-6 21,-6 44,-22 44,-41 0,-6 -3,-14 -10,-21 -98,-104 -145,-259 -145,-403 0,-224 117,-464 371,-464 60,0 128,14 178,49 52,36 78,90 78,153 0,93 -60,141 -144,162 -42,11 -84,11 -128,11 -44,0 -82,21 -82,46 0,25 38,45 82,45 42,0 92,0 136,10 136,28 189,146 189,273 0,249 -197,472 -453,472 -393,0 -599,-358 -599,-715 0,-429 277,-783 725,-783 436,0 701,363 701,771 0,152 -38,307 -114,438 -3,5 -4,10 -4,14 0,20 22,37 56,43 10,2 19,3 29,3 32,0 62,-11 79,-42 77,-138 119,-298 119,-456 0,-446 -324,-862 -866,-862 -517,0 -888,351 -888,872 0,451 292,808 768,808z"/>
 </g>
</svg>
