<?xml version="1.0" encoding="UTF-8"?>
<!DOCTYPE svg PUBLIC "-//W3C//DTD SVG 1.1//EN" "http://www.w3.org/Graphics/SVG/1.1/DTD/svg11.dtd">
<!-- Creator: CorelDRAW X8 -->
<svg xmlns="http://www.w3.org/2000/svg" xml:space="preserve" width="1753px" height="1679px" version="1.1" style="shape-rendering:geometricPrecision; text-rendering:geometricPrecision; image-rendering:optimizeQuality; fill-rule:evenodd; clip-rule:evenodd"
viewBox="0 0 1753 1679"
 xmlns:xlink="http://www.w3.org/1999/xlink">
 <defs>
  <style type="text/css">
   <![CDATA[
    .fil0 {fill:#CC6633;fill-rule:nonzero}
   ]]>
  </style>
 </defs>
 <g id="Layer_x0020_1">
  <metadata id="CorelCorpID_0Corel-Layer"/>
  <path class="fil0" d="M680 1234c6,7 9,14 10,20 0,17 -16,33 -44,42 -12,3 -24,5 -36,6 -32,1 -62,-12 -85,-38 -102,-116 -153,-279 -153,-433 0,-320 199,-549 527,-554 184,-3 428,77 425,297 -2,104 -67,171 -157,211 147,59 212,190 209,342 -6,331 -290,552 -608,552 -479,0 -772,-362 -768,-816 5,-511 367,-863 887,-863 550,0 876,429 866,882 -4,146 -42,299 -119,435 -16,28 -43,40 -73,42 -11,1 -23,0 -35,-3 -43,-7 -66,-33 -52,-57 73,-125 110,-272 114,-417 9,-416 -258,-791 -701,-791 -447,0 -720,352 -724,772 -4,360 202,725 599,725 252,0 447,-218 452,-461 3,-130 -49,-252 -188,-282 -45,-9 -94,-11 -136,-11 -45,0 -82,-20 -82,-45 0,-25 37,-46 82,-46 44,0 85,-3 128,-13 80,-21 142,-65 143,-156 1,-65 -25,-120 -78,-157 -52,-36 -122,-50 -184,-49 -249,3 -364,242 -364,463 0,144 47,299 145,403z"/>
 </g>
</svg>
