<?xml version="1.0" encoding="UTF-8"?>
<!DOCTYPE svg PUBLIC "-//W3C//DTD SVG 1.1//EN" "http://www.w3.org/Graphics/SVG/1.1/DTD/svg11.dtd">
<!-- Creator: CorelDRAW X8 -->
<svg xmlns="http://www.w3.org/2000/svg" xml:space="preserve" width="2219px" height="1412px" version="1.1" style="shape-rendering:geometricPrecision; text-rendering:geometricPrecision; image-rendering:optimizeQuality; fill-rule:evenodd; clip-rule:evenodd"
viewBox="0 0 2219 1412"
 xmlns:xlink="http://www.w3.org/1999/xlink">
 <defs>
  <style type="text/css">
   <![CDATA[
    .fil0 {fill:#434242;fill-rule:nonzero}
   ]]>
  </style>
 </defs>
 <g id="Layer_x0020_1">
  <metadata id="CorelCorpID_0Corel-Layer"/>
  <path class="fil0" d="M1416 1412c324,0 587,-159 720,-445 54,-116 83,-253 83,-381 0,-328 -195,-586 -523,-586 -133,0 -244,51 -315,132 -74,-88 -180,-132 -293,-132 -116,0 -215,43 -291,132 -71,-81 -182,-131 -316,-131 -182,0 -351,90 -430,258 -36,77 -51,164 -51,253 0,202 85,412 280,499 18,8 39,13 61,13 22,0 43,-5 60,-18 12,-9 17,-18 17,-27 0,-15 -14,-29 -33,-37 -159,-68 -222,-272 -222,-431 0,-70 10,-142 35,-206 46,-117 152,-213 283,-213 162,0 233,125 233,274l0 612c0,25 37,46 81,46 45,0 82,-21 82,-46l0 -612c0,-131 62,-274 211,-274 150,0 213,140 213,273l0 612c0,25 36,46 81,46 45,0 82,-21 82,-46l0 -612c0,-149 71,-274 232,-274 250,0 360,279 360,495 0,125 -24,245 -77,358 -104,226 -302,377 -563,377 -93,0 -184,-24 -261,-77 -17,-12 -40,-17 -63,-17 -18,0 -36,3 -51,10 -18,8 -31,21 -31,35 0,10 6,20 19,29 111,77 253,111 387,111z"/>
 </g>
</svg>
