<?xml version="1.0" encoding="UTF-8"?>
<!DOCTYPE svg PUBLIC "-//W3C//DTD SVG 1.1//EN" "http://www.w3.org/Graphics/SVG/1.1/DTD/svg11.dtd">
<!-- Creator: CorelDRAW X8 -->
<svg xmlns="http://www.w3.org/2000/svg" xml:space="preserve" width="2219px" height="1412px" version="1.1" style="shape-rendering:geometricPrecision; text-rendering:geometricPrecision; image-rendering:optimizeQuality; fill-rule:evenodd; clip-rule:evenodd"
viewBox="0 0 2219 1412"
 xmlns:xlink="http://www.w3.org/1999/xlink">
 <defs>
  <style type="text/css">
   <![CDATA[
    .fil0 {fill:#CC6633;fill-rule:nonzero}
   ]]>
  </style>
 </defs>
 <g id="Layer_x0020_1">
  <metadata id="CorelCorpID_0Corel-Layer"/>
  <path class="fil0" d="M1381 132c71,-81 182,-132 315,-132 328,0 523,258 523,586 0,128 -29,265 -83,381 -133,286 -396,445 -720,445 -70,0 -143,-10 -213,-30 -63,-18 -124,-46 -174,-81 -14,-10 -20,-21 -18,-32 2,-13 12,-24 30,-32 16,-8 35,-11 54,-10 23,0 45,6 60,17 36,25 79,45 122,58 46,13 93,19 139,19 261,0 458,-151 563,-377 51,-111 78,-235 77,-358 -1,-216 -110,-495 -360,-495 -161,0 -232,125 -232,274l0 612c0,25 -37,46 -82,46 -45,0 -81,-21 -81,-46l0 -612c0,-133 -63,-273 -213,-273 -149,0 -211,143 -211,274l0 612c0,25 -37,46 -82,46 -44,0 -81,-21 -81,-46l0 -612c0,-149 -71,-274 -233,-274 -131,0 -237,96 -283,213 -26,67 -36,143 -35,216 2,157 67,355 222,421 20,9 31,21 32,34 2,10 -4,21 -16,30 -33,25 -85,21 -121,5 -192,-86 -277,-290 -280,-490 -1,-92 14,-183 51,-262 79,-168 248,-258 430,-258 134,0 245,50 316,131 77,-90 181,-131 291,-132 115,-1 218,43 293,132z"/>
 </g>
</svg>
