<?xml version="1.0" encoding="UTF-8"?>
<!DOCTYPE svg PUBLIC "-//W3C//DTD SVG 1.1//EN" "http://www.w3.org/Graphics/SVG/1.1/DTD/svg11.dtd">
<!-- Creator: CorelDRAW X8 -->
<svg xmlns="http://www.w3.org/2000/svg" xml:space="preserve" width="1260px" height="1412px" version="1.1" style="shape-rendering:geometricPrecision; text-rendering:geometricPrecision; image-rendering:optimizeQuality; fill-rule:evenodd; clip-rule:evenodd"
viewBox="0 0 1260 1412"
 xmlns:xlink="http://www.w3.org/1999/xlink">
 <defs>
  <style type="text/css">
   <![CDATA[
    .fil0 {fill:#2B2A29;fill-rule:nonzero}
   ]]>
  </style>
 </defs>
 <g id="Layer_x0020_1">
  <metadata id="CorelCorpID_0Corel-Layer"/>
  <path class="fil0" d="M543 1412c132,0 267,-35 380,-106 92,-57 172,-137 230,-233 67,-110 107,-242 107,-387 0,-185 -56,-365 -188,-502 -127,-130 -323,-184 -500,-184 -322,0 -572,202 -572,540 0,156 48,317 159,409 64,52 135,75 217,75 81,0 165,-25 228,-78 71,-59 106,-155 106,-245 0,-84 -27,-158 -79,-212 -58,-62 -146,-98 -239,-98 -95,0 -176,40 -231,119 2,-235 169,-420 411,-420 135,0 261,40 357,138 119,121 168,292 168,458 0,134 -37,258 -98,358 -51,84 -119,153 -197,201 -76,47 -170,76 -259,76 -95,0 -179,-31 -260,-80 -16,-10 -37,-15 -59,-15 -20,0 -40,5 -56,13 -17,9 -26,21 -26,34 0,10 7,21 21,30 123,75 251,109 380,109zm-162 -479c-90,-1 -175,-76 -175,-223 0,-148 87,-222 175,-222 87,0 173,73 173,219 0,105 -53,226 -173,226z"/>
 </g>
</svg>
