<?xml version="1.0" encoding="UTF-8"?>
<!DOCTYPE svg PUBLIC "-//W3C//DTD SVG 1.1//EN" "http://www.w3.org/Graphics/SVG/1.1/DTD/svg11.dtd">
<!-- Creator: CorelDRAW X8 -->
<svg xmlns="http://www.w3.org/2000/svg" xml:space="preserve" width="1692px" height="1405px" version="1.1" style="shape-rendering:geometricPrecision; text-rendering:geometricPrecision; image-rendering:optimizeQuality; fill-rule:evenodd; clip-rule:evenodd"
viewBox="0 0 1692 1405"
 xmlns:xlink="http://www.w3.org/1999/xlink">
 <defs>
  <style type="text/css">
   <![CDATA[
    .fil0 {fill:#434242;fill-rule:nonzero}
   ]]>
  </style>
 </defs>
 <g id="Layer_x0020_1">
  <metadata id="CorelCorpID_0Corel-Layer"/>
  <path class="fil0" d="M1692 938c0,-297 -175,-519 -476,-555l0 -338c0,-25 -36,-45 -81,-45 -45,0 -81,20 -81,45l0 341c-96,11 -188,49 -253,121 -70,-84 -184,-126 -319,-126 -183,0 -352,90 -431,259 -36,77 -51,163 -51,252 0,204 87,416 283,502 16,7 36,11 56,11 23,0 45,-5 62,-18 12,-9 17,-18 17,-27 0,-15 -13,-29 -32,-37 -160,-68 -223,-273 -223,-433 0,-70 10,-140 35,-204 46,-118 153,-214 284,-214 162,0 232,122 232,271l0 616c0,25 37,46 82,46 45,0 81,-21 81,-46l0 -616c0,-115 60,-230 177,-262l0 577c0,210 8,347 256,347 240,0 382,-251 382,-467zm-382 375c-85,0 -95,-108 -95,-190 0,-608 1,-206 1,-645 214,46 314,255 314,460 1,121 -65,375 -220,375z"/>
 </g>
</svg>
