<?xml version="1.0" encoding="UTF-8"?>
<!DOCTYPE svg PUBLIC "-//W3C//DTD SVG 1.1//EN" "http://www.w3.org/Graphics/SVG/1.1/DTD/svg11.dtd">
<!-- Creator: CorelDRAW X8 -->
<svg xmlns="http://www.w3.org/2000/svg" xml:space="preserve" width="2427px" height="1405px" version="1.1" style="shape-rendering:geometricPrecision; text-rendering:geometricPrecision; image-rendering:optimizeQuality; fill-rule:evenodd; clip-rule:evenodd"
viewBox="0 0 2427 1405"
 xmlns:xlink="http://www.w3.org/1999/xlink">
 <defs>
  <style type="text/css">
   <![CDATA[
    .fil0 {fill:#009846;fill-rule:nonzero}
   ]]>
  </style>
 </defs>
 <g id="Layer_x0020_1">
  <metadata id="CorelCorpID_0Corel-Layer"/>
  <path class="fil0" d="M1218 381c110,1 235,43 301,134 87,-96 224,-134 350,-134 55,0 113,6 166,21 25,-49 49,-110 49,-168 0,-74 -50,-142 -129,-143 -69,-1 -127,48 -159,107 -16,30 -70,35 -101,30 -25,-4 -72,-24 -54,-57 61,-113 189,-171 314,-171 142,0 291,75 291,234 0,78 -35,160 -72,227 96,58 164,143 205,240 32,76 48,162 48,247 0,104 -24,207 -76,291 -59,98 -155,166 -292,166 -140,0 -227,-71 -272,-173 -26,-59 -37,-129 -37,-201 2,-101 28,-202 71,-286 46,-93 108,-169 164,-255 -37,-12 -77,-19 -116,-18 -169,1 -277,103 -277,294l0 593c0,25 -36,46 -81,46 -46,0 -82,-21 -82,-46l0 -617c0,-130 -63,-269 -211,-269 -149,0 -213,139 -213,275l0 611c0,26 -37,46 -81,46 -45,0 -81,-20 -81,-46l0 -587c0,-197 -137,-301 -321,-300 -144,1 -252,90 -311,210 -32,64 -49,137 -50,209 52,-75 130,-115 220,-118 97,-4 190,33 250,97 53,57 81,133 78,221 -2,89 -36,179 -105,236 -58,49 -139,77 -223,78 -83,0 -157,-22 -222,-75 -110,-92 -159,-253 -159,-409 0,-102 21,-194 61,-273 81,-163 248,-265 461,-267 139,-1 295,32 394,134 76,-90 186,-135 302,-134zm891 182c-60,86 -110,156 -144,233 -30,67 -49,152 -52,235 -2,55 4,109 19,157 21,67 65,126 127,126 72,0 124,-64 157,-142 33,-77 48,-169 48,-224 1,-69 -11,-140 -35,-206 -25,-68 -65,-130 -120,-179zm-1903 528c0,147 85,222 175,223 84,0 173,-74 173,-223 1,-148 -86,-222 -173,-222 -87,0 -175,74 -175,222z"/>
 </g>
</svg>
