<?xml version="1.0" encoding="UTF-8"?>
<!DOCTYPE svg PUBLIC "-//W3C//DTD SVG 1.1//EN" "http://www.w3.org/Graphics/SVG/1.1/DTD/svg11.dtd">
<!-- Creator: CorelDRAW X8 -->
<svg xmlns="http://www.w3.org/2000/svg" xml:space="preserve" width="2427px" height="1405px" version="1.1" style="shape-rendering:geometricPrecision; text-rendering:geometricPrecision; image-rendering:optimizeQuality; fill-rule:evenodd; clip-rule:evenodd"
viewBox="0 0 2427 1405"
 xmlns:xlink="http://www.w3.org/1999/xlink">
 <defs>
  <style type="text/css">
   <![CDATA[
    .fil0 {fill:#CC6633;fill-rule:nonzero}
   ]]>
  </style>
 </defs>
 <g id="Layer_x0020_1">
  <metadata id="CorelCorpID_0Corel-Layer"/>
  <path class="fil0" d="M1218 381c110,1 235,43 301,134 87,-96 224,-134 350,-134 55,-1 113,6 167,21 24,-49 48,-110 48,-168 0,-74 -50,-142 -129,-143 -69,-1 -127,48 -159,107 -16,30 -70,35 -101,30 -25,-4 -72,-24 -54,-57 61,-113 189,-171 314,-171 142,0 291,75 291,234 1,78 -34,159 -72,227 96,58 164,142 205,240 32,76 48,162 48,247 0,104 -24,208 -75,292 -60,97 -156,165 -293,165 -140,0 -227,-71 -272,-173 -26,-59 -37,-129 -36,-201 1,-101 27,-202 70,-286 46,-93 108,-169 164,-255 -37,-12 -77,-19 -116,-18 -169,1 -277,103 -277,294l0 593c0,26 -36,46 -81,46 -45,0 -82,-20 -82,-46l0 -617c0,-130 -63,-269 -211,-269 -149,0 -213,138 -213,275l0 612c0,25 -37,45 -81,45 -45,0 -81,-20 -81,-45l0 -588c0,-197 -137,-301 -321,-300 -144,1 -252,90 -311,210 -32,64 -49,137 -50,209 52,-75 130,-115 219,-118 98,-4 191,33 251,97 53,57 81,133 78,221 -2,89 -36,179 -105,236 -59,49 -139,77 -224,78 -82,0 -156,-22 -221,-75 -111,-92 -159,-253 -159,-409 0,-102 21,-194 60,-273 82,-163 249,-265 462,-267 139,-1 295,32 394,134 76,-90 186,-135 302,-134zm892 182c-60,86 -110,156 -145,233 -30,67 -49,152 -52,235 -2,55 4,109 19,157 21,67 65,126 127,126 73,0 124,-64 157,-142 33,-77 48,-169 49,-224 0,-69 -12,-140 -36,-206 -25,-68 -64,-130 -119,-179zm-1904 528c-1,147 85,222 174,223 85,0 174,-74 174,-223 1,-148 -86,-222 -174,-222 -87,0 -174,74 -174,222z"/>
 </g>
</svg>
