<?xml version="1.0" encoding="UTF-8"?>
<!DOCTYPE svg PUBLIC "-//W3C//DTD SVG 1.1//EN" "http://www.w3.org/Graphics/SVG/1.1/DTD/svg11.dtd">
<!-- Creator: CorelDRAW X8 -->
<svg xmlns="http://www.w3.org/2000/svg" xml:space="preserve" width="1712px" height="1405px" version="1.1" style="shape-rendering:geometricPrecision; text-rendering:geometricPrecision; image-rendering:optimizeQuality; fill-rule:evenodd; clip-rule:evenodd"
viewBox="0 0 1712 1405"
 xmlns:xlink="http://www.w3.org/1999/xlink">
 <defs>
  <style type="text/css">
   <![CDATA[
    .fil0 {fill:#2B2A29;fill-rule:nonzero}
   ]]>
  </style>
 </defs>
 <g id="Layer_x0020_1">
  <metadata id="CorelCorpID_0Corel-Layer"/>
  <path class="fil0" d="M1344 1405c137,0 233,-68 293,-166 51,-84 75,-187 75,-291 0,-85 -16,-171 -47,-247 -42,-98 -110,-182 -206,-241 38,-67 73,-148 73,-226 -1,-159 -152,-234 -293,-234 -126,0 -251,58 -313,171 -3,5 -4,10 -4,14 0,35 54,45 81,45 29,0 65,-8 78,-32 32,-58 89,-107 158,-107 81,0 130,66 130,143 0,58 -24,119 -48,168 -54,-15 -113,-22 -169,-22 -125,1 -260,39 -346,134 -70,-89 -183,-133 -322,-133 -183,0 -354,90 -433,259 -36,77 -51,164 -51,253 0,204 87,414 283,501 16,7 36,11 55,11 23,0 46,-6 63,-18 12,-9 17,-18 17,-27 0,-15 -13,-29 -32,-37 -160,-68 -223,-272 -223,-432 0,-70 10,-141 35,-205 46,-119 154,-214 286,-214 160,0 230,118 230,265l0 622c0,25 37,46 82,46 45,0 81,-21 81,-46l0 -586c0,-180 88,-302 275,-302 36,0 81,6 118,19 -55,86 -118,162 -164,255 -46,91 -70,197 -70,299 0,69 11,131 36,188 45,102 132,173 272,173zm0 -92c-62,0 -106,-59 -127,-125 -14,-44 -19,-93 -19,-144 0,-80 19,-175 52,-248 35,-77 85,-147 145,-233 55,49 94,111 119,179 25,66 36,136 36,206 -1,55 -16,146 -49,224 -33,78 -84,141 -157,141z"/>
 </g>
</svg>
