<?xml version="1.0" encoding="UTF-8"?>
<!DOCTYPE svg PUBLIC "-//W3C//DTD SVG 1.1//EN" "http://www.w3.org/Graphics/SVG/1.1/DTD/svg11.dtd">
<!-- Creator: CorelDRAW X8 -->
<svg xmlns="http://www.w3.org/2000/svg" xml:space="preserve" width="1712px" height="1405px" version="1.1" style="shape-rendering:geometricPrecision; text-rendering:geometricPrecision; image-rendering:optimizeQuality; fill-rule:evenodd; clip-rule:evenodd"
viewBox="0 0 1712 1405"
 xmlns:xlink="http://www.w3.org/1999/xlink">
 <defs>
  <style type="text/css">
   <![CDATA[
    .fil0 {fill:#009846;fill-rule:nonzero}
   ]]>
  </style>
 </defs>
 <g id="Layer_x0020_1">
  <metadata id="CorelCorpID_0Corel-Layer"/>
  <path class="fil0" d="M1395 563c-60,86 -110,156 -145,233 -30,67 -49,152 -52,235 -1,55 4,109 19,157 21,66 65,125 127,125 73,0 124,-63 157,-141 33,-78 48,-169 49,-224 0,-70 -11,-140 -36,-206 -25,-68 -64,-130 -119,-179zm-518 210l0 586c0,25 -36,46 -81,46 -45,0 -82,-21 -82,-46l0 -622c0,-148 -71,-266 -232,-265 -131,1 -238,96 -284,214 -26,67 -36,142 -35,215 2,158 67,356 223,422 30,13 46,41 15,64 -32,23 -83,22 -118,7 -195,-86 -280,-291 -283,-493 -1,-91 14,-182 51,-261 79,-169 248,-259 431,-259 139,0 254,44 324,133 86,-95 223,-133 348,-134 56,0 113,7 167,22 24,-49 48,-110 48,-168 0,-76 -48,-142 -128,-143 -70,-1 -128,48 -160,107 -16,30 -70,35 -101,30 -25,-4 -72,-24 -54,-57 62,-113 189,-171 315,-171 141,0 290,75 291,234 0,78 -35,159 -73,226 96,59 164,143 206,241 31,76 47,162 47,247 0,104 -24,207 -75,291 -60,98 -156,166 -293,166 -140,0 -227,-71 -272,-173 -26,-59 -37,-129 -36,-201 1,-101 28,-202 70,-286 46,-93 109,-169 164,-255 -40,-14 -80,-20 -118,-19 -175,3 -275,118 -275,302z"/>
 </g>
</svg>
