<?xml version="1.0" encoding="UTF-8"?>
<!DOCTYPE svg PUBLIC "-//W3C//DTD SVG 1.1//EN" "http://www.w3.org/Graphics/SVG/1.1/DTD/svg11.dtd">
<!-- Creator: CorelDRAW X8 -->
<svg xmlns="http://www.w3.org/2000/svg" xml:space="preserve" width="1196px" height="1405px" version="1.1" style="shape-rendering:geometricPrecision; text-rendering:geometricPrecision; image-rendering:optimizeQuality; fill-rule:evenodd; clip-rule:evenodd"
viewBox="0 0 1196 1405"
 xmlns:xlink="http://www.w3.org/1999/xlink">
 <defs>
  <style type="text/css">
   <![CDATA[
    .fil0 {fill:#CC6633;fill-rule:nonzero}
   ]]>
  </style>
 </defs>
 <g id="Layer_x0020_1">
  <metadata id="CorelCorpID_0Corel-Layer"/>
  <path class="fil0" d="M349 1331c31,22 17,51 -14,64 -32,15 -84,14 -114,-7 -145,-103 -220,-272 -221,-447 -2,-335 257,-553 576,-562 77,-2 152,8 226,31 25,-52 51,-114 51,-172 0,-80 -43,-147 -126,-147 -71,1 -130,48 -163,107 -16,30 -70,36 -101,30 -25,-4 -72,-24 -54,-57 63,-115 190,-170 318,-171 147,-1 290,76 288,238 -1,80 -37,165 -77,233 94,59 163,141 206,237 31,69 49,148 52,227 3,101 -15,201 -65,290 -61,109 -162,180 -303,180 -133,0 -219,-64 -265,-159 -31,-62 -43,-133 -43,-202 -1,-100 24,-206 68,-296 42,-85 101,-163 160,-250 -54,-20 -114,-29 -172,-27 -251,8 -410,229 -413,470 -2,152 59,301 186,390zm522 -759c-52,76 -100,147 -135,225 -35,78 -54,162 -53,248 0,38 3,94 19,145 22,66 63,124 126,124 75,0 131,-78 164,-151 32,-72 44,-148 41,-228 -2,-60 -13,-119 -34,-175 -27,-71 -69,-136 -128,-188z"/>
 </g>
</svg>
