<?xml version="1.0" encoding="UTF-8"?>
<!DOCTYPE svg PUBLIC "-//W3C//DTD SVG 1.1//EN" "http://www.w3.org/Graphics/SVG/1.1/DTD/svg11.dtd">
<!-- Creator: CorelDRAW X8 -->
<svg xmlns="http://www.w3.org/2000/svg" xml:space="preserve" width="1903px" height="1405px" version="1.1" style="shape-rendering:geometricPrecision; text-rendering:geometricPrecision; image-rendering:optimizeQuality; fill-rule:evenodd; clip-rule:evenodd"
viewBox="0 0 1903 1405"
 xmlns:xlink="http://www.w3.org/1999/xlink">
 <defs>
  <style type="text/css">
   <![CDATA[
    .fil0 {fill:#434242;fill-rule:nonzero}
   ]]>
  </style>
 </defs>
 <g id="Layer_x0020_1">
  <metadata id="CorelCorpID_0Corel-Layer"/>
  <path class="fil0" d="M288 1405c19,0 38,-4 56,-15 14,-8 21,-20 21,-31 0,-12 -9,-24 -26,-33 -129,-68 -176,-230 -176,-367 0,-97 21,-198 62,-277 60,-117 185,-211 320,-211 36,0 70,5 101,13 -159,111 -240,303 -240,493 0,91 19,181 58,251 64,118 176,176 308,176 132,0 244,-57 309,-176 39,-71 59,-159 59,-251 0,-190 -83,-381 -241,-493 68,-19 148,-27 227,-27 110,0 223,7 325,52 -56,78 -109,150 -149,226 -49,96 -76,189 -76,295 0,88 17,185 68,258 51,72 128,117 241,116 117,0 209,-53 271,-134 66,-86 98,-198 97,-306 0,-73 -16,-150 -44,-217 -43,-104 -119,-196 -221,-262 42,-72 84,-168 84,-255 0,-162 -146,-230 -289,-230 -126,0 -253,55 -315,169 -3,5 -4,10 -4,14 0,35 52,45 81,45 29,0 65,-8 78,-32 31,-56 95,-105 160,-105 79,0 127,65 127,139 1,65 -28,137 -56,189 -123,-44 -252,-53 -381,-53 -123,0 -250,16 -351,54 -73,-28 -148,-40 -226,-40 -196,0 -386,100 -477,276 -45,87 -69,198 -69,303 0,164 61,333 207,421 25,15 53,25 81,25zm484 -92c-70,0 -121,-53 -153,-111 -34,-62 -51,-142 -51,-225 0,-160 66,-339 204,-436 141,99 205,279 205,436 0,83 -17,162 -51,224 -32,58 -84,112 -154,112zm763 0c-58,0 -95,-46 -117,-102 -22,-56 -30,-121 -30,-181 0,-92 24,-174 62,-252 32,-64 74,-125 122,-191 56,50 100,112 129,181 26,62 39,128 39,196 0,87 -22,172 -67,246 -34,56 -81,104 -138,103z"/>
 </g>
</svg>
