<?xml version="1.0" encoding="UTF-8"?>
<!DOCTYPE svg PUBLIC "-//W3C//DTD SVG 1.1//EN" "http://www.w3.org/Graphics/SVG/1.1/DTD/svg11.dtd">
<!-- Creator: CorelDRAW X8 -->
<svg xmlns="http://www.w3.org/2000/svg" xml:space="preserve" width="1903px" height="1405px" version="1.1" style="shape-rendering:geometricPrecision; text-rendering:geometricPrecision; image-rendering:optimizeQuality; fill-rule:evenodd; clip-rule:evenodd"
viewBox="0 0 1903 1405"
 xmlns:xlink="http://www.w3.org/1999/xlink">
 <defs>
  <style type="text/css">
   <![CDATA[
    .fil0 {fill:#CC6633;fill-rule:nonzero}
   ]]>
  </style>
 </defs>
 <g id="Layer_x0020_1">
  <metadata id="CorelCorpID_0Corel-Layer"/>
  <path class="fil0" d="M339 1326c17,8 26,20 26,32 1,11 -6,23 -21,32 -18,11 -37,15 -56,15 -28,0 -56,-10 -81,-25 -141,-85 -202,-245 -207,-403 -3,-110 22,-229 69,-321 92,-176 281,-276 477,-276 78,0 153,12 226,40 113,-42 257,-57 394,-53 117,2 240,17 338,52 28,-52 56,-124 56,-189 -1,-74 -47,-137 -125,-139 -66,-1 -131,48 -162,105 -10,19 -41,31 -74,32 -9,0 -18,0 -27,-2 -35,-6 -57,-23 -58,-42 0,-5 1,-10 4,-15 62,-114 191,-169 317,-169 142,-1 285,71 287,230 1,88 -41,182 -84,255 102,66 178,158 221,262 28,67 43,144 44,217 0,108 -31,220 -97,306 -62,81 -154,133 -271,134 -113,0 -190,-44 -241,-116 -44,-62 -66,-155 -68,-246 -3,-114 24,-206 76,-307 40,-76 93,-148 149,-226 -79,-35 -182,-49 -285,-51 -91,-3 -188,4 -267,26 110,78 184,193 218,322 15,56 23,114 23,171 0,92 -20,180 -59,251 -65,119 -177,176 -309,176 -132,0 -244,-58 -308,-176 -39,-70 -58,-160 -58,-251 0,-58 7,-115 22,-171 35,-129 108,-245 218,-322 -31,-8 -65,-13 -101,-13 -135,0 -259,94 -320,211 -42,82 -64,194 -62,295 3,133 51,283 176,349zm1233 -739c-48,66 -90,127 -122,191 -38,78 -62,172 -62,264 -1,58 9,116 30,169 22,56 59,101 117,102 57,0 104,-47 138,-103 45,-74 67,-159 67,-246 0,-68 -13,-134 -39,-196 -29,-69 -73,-131 -129,-181zm-800 -46c-94,66 -154,169 -183,278 -14,53 -21,106 -21,158 0,83 17,163 51,225 32,58 83,111 153,111 70,0 122,-54 154,-112 34,-62 51,-141 51,-224 0,-52 -7,-105 -21,-158 -29,-109 -90,-212 -184,-278z"/>
 </g>
</svg>
