<?xml version="1.0" encoding="UTF-8"?>
<!DOCTYPE svg PUBLIC "-//W3C//DTD SVG 1.1//EN" "http://www.w3.org/Graphics/SVG/1.1/DTD/svg11.dtd">
<!-- Creator: CorelDRAW X8 -->
<svg xmlns="http://www.w3.org/2000/svg" xml:space="preserve" width="1904px" height="1405px" version="1.1" style="shape-rendering:geometricPrecision; text-rendering:geometricPrecision; image-rendering:optimizeQuality; fill-rule:evenodd; clip-rule:evenodd"
viewBox="0 0 1904 1406"
 xmlns:xlink="http://www.w3.org/1999/xlink">
 <defs>
  <style type="text/css">
   <![CDATA[
    .fil0 {fill:#2B2A29;fill-rule:nonzero}
   ]]>
  </style>
 </defs>
 <g id="Layer_x0020_1">
  <metadata id="CorelCorpID_0Corel-Layer"/>
  <path class="fil0" d="M288 1406c19,0 38,-5 56,-15 14,-9 21,-20 21,-31 0,-12 -9,-24 -26,-33 -129,-69 -176,-231 -176,-367 0,-98 22,-199 62,-278 61,-117 185,-211 320,-211 36,0 70,5 101,13 -110,77 -183,193 -218,322 -15,56 -22,113 -22,172 0,90 19,180 58,251 64,118 176,176 308,176 132,0 244,-57 310,-176 38,-71 58,-159 58,-251 0,-58 -8,-116 -22,-172 -34,-129 -108,-244 -218,-322 68,-19 148,-27 226,-27 110,0 224,7 326,52 -56,78 -110,150 -149,226 -50,96 -76,189 -76,295 0,88 16,186 68,259 51,71 128,116 241,116 117,-1 209,-53 271,-134 66,-87 97,-199 97,-307 -1,-73 -16,-150 -44,-217 -43,-104 -119,-196 -221,-262 42,-72 84,-168 84,-255 0,-162 -146,-230 -289,-230 -126,0 -254,55 -316,169 -2,5 -4,10 -4,14 0,35 53,45 82,45 29,0 65,-8 78,-32 31,-56 95,-105 160,-105 78,0 126,65 127,139 0,65 -28,137 -56,189 -123,-44 -252,-53 -381,-53 -124,0 -250,16 -352,54 -73,-28 -148,-40 -226,-40 -196,0 -385,100 -477,276 -44,87 -69,198 -69,304 0,163 61,333 207,421 25,15 53,25 81,25zm484 -92c-70,0 -121,-53 -153,-111 -34,-63 -51,-143 -51,-225 0,-161 66,-340 204,-437 142,99 206,279 206,437 0,82 -18,162 -52,224 -32,58 -84,112 -154,112zm764 0c-58,-1 -95,-46 -117,-102 -22,-56 -30,-122 -30,-182 0,-92 23,-174 62,-252 31,-64 74,-125 122,-191 56,50 100,112 129,181 26,62 39,128 39,196 0,88 -22,172 -67,247 -34,56 -81,103 -138,103z"/>
 </g>
</svg>
