<?xml version="1.0" encoding="UTF-8"?>
<!DOCTYPE svg PUBLIC "-//W3C//DTD SVG 1.1//EN" "http://www.w3.org/Graphics/SVG/1.1/DTD/svg11.dtd">
<!-- Creator: CorelDRAW X8 -->
<svg xmlns="http://www.w3.org/2000/svg" xml:space="preserve" width="1903px" height="1405px" version="1.1" style="shape-rendering:geometricPrecision; text-rendering:geometricPrecision; image-rendering:optimizeQuality; fill-rule:evenodd; clip-rule:evenodd"
viewBox="0 0 1903 1406"
 xmlns:xlink="http://www.w3.org/1999/xlink">
 <defs>
  <style type="text/css">
   <![CDATA[
    .fil0 {fill:#CC6633;fill-rule:nonzero}
   ]]>
  </style>
 </defs>
 <g id="Layer_x0020_1">
  <metadata id="CorelCorpID_0Corel-Layer"/>
  <path class="fil0" d="M339 1326c32,17 36,46 4,65 -43,26 -95,15 -136,-10 -141,-85 -202,-245 -207,-403 -3,-111 21,-229 69,-321 92,-177 280,-277 477,-276 78,0 153,12 226,39 113,-41 257,-56 394,-53 117,3 240,18 338,52 28,-52 57,-124 56,-189 -1,-73 -47,-137 -125,-139 -66,-1 -131,48 -162,105 -16,30 -70,36 -101,30 -25,-4 -72,-24 -54,-56 62,-114 191,-170 317,-170 142,0 285,71 287,230 1,89 -41,183 -83,255 101,67 177,159 220,263 28,66 43,143 44,217 1,108 -31,219 -97,306 -61,81 -154,133 -271,133 -113,1 -190,-44 -241,-115 -44,-63 -66,-156 -68,-247 -3,-114 24,-206 76,-306 41,-77 93,-149 149,-227 -79,-34 -182,-49 -285,-51 -91,-2 -188,4 -267,27 110,77 184,192 218,321 15,56 23,114 23,172 0,91 -20,179 -58,250 -66,119 -178,176 -310,176 -132,0 -244,-57 -309,-175 -38,-71 -58,-160 -58,-251 0,-58 8,-115 23,-172 35,-129 108,-245 218,-322 -31,-8 -65,-12 -101,-13 -135,0 -259,95 -320,211 -43,82 -65,194 -62,296 3,133 51,283 176,348zm1233 -739c-48,67 -90,127 -122,192 -38,78 -62,171 -62,263 -1,59 9,117 30,169 22,56 59,102 117,102 57,1 104,-47 138,-102 45,-74 67,-159 67,-246 0,-68 -13,-135 -39,-197 -29,-69 -73,-131 -129,-181zm-800 -45c-94,66 -154,168 -183,278 -14,53 -21,105 -21,158 0,82 17,162 51,224 31,58 83,111 153,111 70,0 122,-54 154,-112 34,-62 51,-141 51,-223 0,-52 -7,-106 -21,-158 -29,-110 -90,-213 -184,-278z"/>
 </g>
</svg>
