<?xml version="1.0" encoding="UTF-8"?>
<!DOCTYPE svg PUBLIC "-//W3C//DTD SVG 1.1//EN" "http://www.w3.org/Graphics/SVG/1.1/DTD/svg11.dtd">
<!-- Creator: CorelDRAW X8 -->
<svg xmlns="http://www.w3.org/2000/svg" xml:space="preserve" width="1705px" height="1405px" version="1.1" style="shape-rendering:geometricPrecision; text-rendering:geometricPrecision; image-rendering:optimizeQuality; fill-rule:evenodd; clip-rule:evenodd"
viewBox="0 0 1705 1405"
 xmlns:xlink="http://www.w3.org/1999/xlink">
 <defs>
  <style type="text/css">
   <![CDATA[
    .fil0 {fill:#2B2A29;fill-rule:nonzero}
   ]]>
  </style>
 </defs>
 <g id="Layer_x0020_1">
  <metadata id="CorelCorpID_0Corel-Layer"/>
  <path class="fil0" d="M1344 1405c105,0 207,-51 270,-140 64,-91 91,-218 91,-327 0,-88 -15,-167 -50,-248 -42,-97 -112,-174 -206,-230 37,-66 76,-149 76,-226 0,-154 -154,-234 -294,-234 -126,0 -251,58 -312,171 -3,5 -4,9 -4,13 0,34 53,46 80,46 30,0 66,-9 80,-33 30,-56 91,-105 156,-105 79,0 131,66 131,142 0,57 -24,120 -50,169 -55,-15 -112,-22 -171,-22 -159,0 -330,55 -421,194 -70,106 -70,229 -70,351 0,155 14,388 -201,388 -198,0 -287,-250 -287,-415 0,-173 86,-372 257,-435 20,-7 38,-21 38,-38 0,-8 -4,-17 -14,-25 -17,-14 -41,-20 -64,-20 -19,0 -39,4 -55,10 -210,80 -324,293 -324,512 0,269 163,502 449,502 341,0 363,-200 363,-479 0,-98 -1,-207 46,-296 53,-101 158,-158 283,-158 43,0 82,6 118,17 -53,83 -111,160 -155,248 -46,95 -75,205 -75,311 0,75 14,145 49,209 48,89 135,148 266,148zm0 -91c-72,0 -111,-56 -130,-119 -16,-47 -22,-96 -22,-147 0,-84 17,-168 50,-246 36,-86 88,-159 147,-246 51,46 88,106 114,171 26,66 40,142 40,211 1,98 -18,192 -69,277 -31,53 -77,99 -130,99z"/>
 </g>
</svg>
