<?xml version="1.0" encoding="UTF-8"?>
<!DOCTYPE svg PUBLIC "-//W3C//DTD SVG 1.1//EN" "http://www.w3.org/Graphics/SVG/1.1/DTD/svg11.dtd">
<!-- Creator: CorelDRAW X8 -->
<svg xmlns="http://www.w3.org/2000/svg" xml:space="preserve" width="1727px" height="1405px" version="1.1" style="shape-rendering:geometricPrecision; text-rendering:geometricPrecision; image-rendering:optimizeQuality; fill-rule:evenodd; clip-rule:evenodd"
viewBox="0 0 1727 1405"
 xmlns:xlink="http://www.w3.org/1999/xlink">
 <defs>
  <style type="text/css">
   <![CDATA[
    .fil0 {fill:#2B2A29;fill-rule:nonzero}
   ]]>
  </style>
 </defs>
 <g id="Layer_x0020_1">
  <metadata id="CorelCorpID_0Corel-Layer"/>
  <path class="fil0" d="M1406 1405c91,0 181,-32 243,-92 52,-52 78,-119 78,-186 0,-73 -28,-144 -80,-195 -83,-83 -200,-102 -289,-102l-75 0c47,-194 290,-378 290,-595 0,-163 -146,-235 -291,-235 -125,1 -253,57 -314,170 -3,5 -4,10 -4,14 0,35 53,45 81,45 29,0 65,-8 78,-32 32,-59 90,-105 159,-105 80,0 129,67 129,143 0,72 -47,168 -96,251 -29,49 -59,95 -81,129 -7,-19 -15,-38 -25,-55 -60,-107 -167,-179 -345,-179 -180,0 -286,72 -347,180 -42,76 -60,171 -65,269l-83 0c-89,0 -206,19 -289,102 -52,51 -80,123 -80,195 0,67 26,134 78,186 62,60 152,92 243,92 109,-1 193,-43 241,-118 63,72 160,118 302,118 141,0 238,-46 301,-118 48,75 132,117 241,118zm-294 -575l-498 0c10,-184 72,-358 250,-358 174,0 240,170 248,358zm295 484c-36,0 -71,-21 -95,-47 -37,-40 -54,-99 -54,-156 0,-16 1,-32 4,-47 9,-46 13,-94 14,-143l82 0c37,0 98,6 147,56 39,38 59,94 59,148 0,54 -16,105 -57,143 -30,30 -67,46 -100,46zm-1087 0c-33,0 -70,-16 -100,-46 -39,-37 -57,-88 -57,-139 0,-56 18,-112 59,-152 49,-50 110,-56 147,-56l82 1c1,47 6,95 14,140 3,16 4,32 4,49 0,57 -16,116 -54,156 -24,26 -59,47 -95,47zm544 0c-183,0 -246,-188 -250,-392l500 0c-6,200 -64,392 -250,392z"/>
 </g>
</svg>
