<?xml version="1.0" encoding="UTF-8"?>
<!DOCTYPE svg PUBLIC "-//W3C//DTD SVG 1.1//EN" "http://www.w3.org/Graphics/SVG/1.1/DTD/svg11.dtd">
<!-- Creator: CorelDRAW X8 -->
<svg xmlns="http://www.w3.org/2000/svg" xml:space="preserve" width="1727px" height="1405px" version="1.1" style="shape-rendering:geometricPrecision; text-rendering:geometricPrecision; image-rendering:optimizeQuality; fill-rule:evenodd; clip-rule:evenodd"
viewBox="0 0 1727 1405"
 xmlns:xlink="http://www.w3.org/1999/xlink">
 <defs>
  <style type="text/css">
   <![CDATA[
    .fil0 {fill:#CC6633;fill-rule:nonzero}
   ]]>
  </style>
 </defs>
 <g id="Layer_x0020_1">
  <metadata id="CorelCorpID_0Corel-Layer"/>
  <path class="fil0" d="M864 381c178,0 285,72 345,179 10,17 18,36 25,55 22,-34 52,-80 81,-129 51,-86 99,-185 96,-258 -3,-73 -52,-136 -129,-136 -69,0 -127,46 -159,105 -10,18 -40,31 -73,32 -9,0 -19,0 -28,-2 -36,-6 -58,-25 -57,-45 0,-4 1,-8 3,-12 61,-113 187,-169 312,-170 143,0 292,74 293,233 3,219 -243,402 -290,597l75 0c89,0 206,19 289,102 52,51 79,121 80,191 1,68 -25,137 -78,190 -62,60 -152,92 -243,92 -109,-1 -193,-43 -241,-118 -63,72 -160,118 -301,118 -142,0 -239,-46 -302,-118 -48,75 -132,117 -241,118 -91,0 -181,-32 -243,-92 -53,-53 -79,-122 -78,-190 1,-70 28,-140 80,-191 83,-83 200,-102 289,-102l83 0c5,-98 23,-193 65,-269 61,-108 167,-180 347,-180zm412 540c-1,49 -5,97 -14,143 -12,68 2,152 50,203 24,26 59,47 95,47 33,0 70,-16 100,-46 41,-39 59,-93 57,-147 -1,-54 -22,-108 -59,-144 -49,-50 -110,-56 -147,-56l-82 0zm-811 141c-8,-45 -13,-93 -14,-140l-82 -1c-37,0 -98,6 -147,56 -37,36 -58,90 -59,144 -2,54 16,108 57,147 30,30 67,46 100,46 36,0 71,-21 95,-47 49,-52 62,-136 50,-205zm649 -140l-500 0c2,103 19,204 62,280 39,67 98,112 188,112 90,0 149,-45 188,-113 43,-75 59,-176 62,-279zm-500 -92l498 0c-4,-90 -21,-176 -58,-243 -39,-69 -99,-115 -190,-115 -92,0 -153,46 -191,116 -37,67 -54,153 -59,242z"/>
 </g>
</svg>
