<?xml version="1.0" encoding="UTF-8"?>
<!DOCTYPE svg PUBLIC "-//W3C//DTD SVG 1.1//EN" "http://www.w3.org/Graphics/SVG/1.1/DTD/svg11.dtd">
<!-- Creator: CorelDRAW X8 -->
<svg xmlns="http://www.w3.org/2000/svg" xml:space="preserve" width="1236px" height="1405px" version="1.1" style="shape-rendering:geometricPrecision; text-rendering:geometricPrecision; image-rendering:optimizeQuality; fill-rule:evenodd; clip-rule:evenodd"
viewBox="0 0 1236 1405"
 xmlns:xlink="http://www.w3.org/1999/xlink">
 <defs>
  <style type="text/css">
   <![CDATA[
    .fil0 {fill:#CC6633;fill-rule:nonzero}
   ]]>
  </style>
 </defs>
 <g id="Layer_x0020_1">
  <metadata id="CorelCorpID_0Corel-Layer"/>
  <path class="fil0" d="M81 614c-45,0 -81,-20 -81,-46 0,-25 36,-45 81,-45l139 0c68,-317 299,-523 631,-523 130,0 258,32 367,106 12,9 18,19 18,29 0,13 -10,26 -30,35 -15,7 -33,10 -51,10 -24,0 -47,-5 -63,-16 -73,-50 -153,-73 -241,-73 -257,0 -414,200 -467,432l676 0c45,0 82,20 82,45 0,26 -37,46 -82,46l-691 0c-3,29 -5,59 -5,89 0,27 2,55 4,82l638 0c45,0 81,21 81,46 0,25 -36,45 -81,45l-623 0c51,234 209,438 468,438 83,0 160,-21 230,-66 16,-10 38,-15 61,-15 19,0 38,4 54,11 18,9 28,22 28,34 0,11 -7,22 -21,30 -105,68 -228,97 -352,97 -335,0 -566,-209 -632,-529l-138 0c-45,0 -81,-20 -81,-45 0,-25 36,-46 81,-46l124 0c-2,-27 -4,-55 -4,-82 0,-30 2,-60 5,-89l-125 0z"/>
 </g>
</svg>
