<?xml version="1.0" encoding="UTF-8"?>
<!DOCTYPE svg PUBLIC "-//W3C//DTD SVG 1.1//EN" "http://www.w3.org/Graphics/SVG/1.1/DTD/svg11.dtd">
<!-- Creator: CorelDRAW X8 -->
<svg xmlns="http://www.w3.org/2000/svg" xml:space="preserve" width="3653px" height="1024px" version="1.1" style="shape-rendering:geometricPrecision; text-rendering:geometricPrecision; image-rendering:optimizeQuality; fill-rule:evenodd; clip-rule:evenodd"
viewBox="0 0 3653 1024"
 xmlns:xlink="http://www.w3.org/1999/xlink">
 <defs>
  <style type="text/css">
   <![CDATA[
    .fil0 {fill:#CC9933;fill-rule:nonzero}
   ]]>
  </style>
 </defs>
 <g id="Layer_x0020_1">
  <metadata id="CorelCorpID_0Corel-Layer"/>
  <path class="fil0" d="M2230 859c-42,62 -104,95 -178,95 -74,0 -136,-33 -178,-95 -69,-99 -57,-240 -56,-356 3,-140 15,-281 -87,-392 -69,-76 -167,-111 -268,-111 -119,0 -235,50 -301,155 -69,108 -54,243 -54,365 0,115 14,239 -55,339 -42,62 -104,95 -177,95 -154,0 -234,-146 -234,-288l0 -630c0,-27 -42,-36 -61,-36 -20,0 -62,9 -62,36l0 630c0,140 -81,281 -232,282 -66,0 -128,-33 -170,-84 -12,-15 -37,-21 -55,-21 -9,0 -18,2 -26,4 -15,4 -36,14 -36,32 0,5 2,10 6,15 69,84 176,124 282,124 125,0 209,-43 291,-138 81,98 168,144 297,144 92,0 183,-29 252,-94 120,-115 103,-255 103,-406 0,-100 -12,-217 27,-309 38,-88 109,-144 205,-144 79,0 142,37 184,104 60,95 51,219 49,328 -2,148 -15,309 99,422 69,68 162,99 257,99 92,0 184,-29 252,-94 121,-115 103,-255 103,-406 0,-100 -12,-217 28,-309 38,-88 109,-144 205,-144 78,0 142,37 184,104 59,95 50,219 49,328 -5,264 27,519 345,521 142,1 259,-60 340,-180 64,-95 96,-225 95,-341 -2,-203 -101,-406 -287,-493 -13,-7 -29,-10 -44,-10 -16,0 -33,4 -46,13 -7,5 -14,13 -14,22 0,13 12,23 23,27 161,74 244,268 246,441 0,105 -28,229 -88,316 -53,79 -129,138 -226,135 -224,-6 -225,-283 -222,-451 2,-140 14,-281 -87,-392 -69,-76 -168,-111 -268,-111 -120,0 -236,50 -302,155 -68,108 -53,243 -54,365 0,115 14,239 -54,339z"/>
 </g>
</svg>
