<?xml version="1.0" encoding="UTF-8"?>
<!DOCTYPE svg PUBLIC "-//W3C//DTD SVG 1.1//EN" "http://www.w3.org/Graphics/SVG/1.1/DTD/svg11.dtd">
<!-- Creator: CorelDRAW X8 -->
<svg xmlns="http://www.w3.org/2000/svg" xml:space="preserve" width="2615px" height="1024px" version="1.1" style="shape-rendering:geometricPrecision; text-rendering:geometricPrecision; image-rendering:optimizeQuality; fill-rule:evenodd; clip-rule:evenodd"
viewBox="0 0 2615 1024"
 xmlns:xlink="http://www.w3.org/1999/xlink">
 <defs>
  <style type="text/css">
   <![CDATA[
    .fil0 {fill:#CC9933;fill-rule:nonzero}
   ]]>
  </style>
 </defs>
 <g id="Layer_x0020_1">
  <metadata id="CorelCorpID_0Corel-Layer"/>
  <path class="fil0" d="M1192 859c-42,62 -104,95 -178,95 -74,0 -136,-33 -178,-95 -66,-96 -57,-226 -56,-338 5,-264 -27,-519 -345,-521 -142,-1 -259,60 -340,180 -64,96 -96,226 -95,341 2,203 101,406 287,493 13,7 29,10 44,10 16,0 33,-3 46,-13 7,-5 14,-13 14,-22 0,-13 -12,-22 -23,-27 -161,-74 -244,-268 -246,-441 0,-105 28,-229 88,-316 53,-79 129,-137 226,-135 224,6 225,284 222,451 -2,145 -12,294 99,404 69,68 162,99 257,99 92,0 184,-29 252,-94 121,-115 103,-255 103,-406 0,-100 -12,-217 28,-309 37,-88 109,-144 205,-144 78,0 142,37 184,104 59,95 50,219 49,328 -5,264 27,519 345,521 142,1 259,-60 340,-180 64,-95 96,-225 95,-341 -2,-203 -101,-406 -287,-493 -13,-7 -29,-10 -44,-10 -16,0 -33,4 -46,13 -7,5 -14,13 -14,22 0,13 12,23 23,27 161,74 244,268 246,441 0,105 -28,229 -88,316 -53,79 -129,138 -226,135 -224,-6 -225,-283 -222,-451 2,-140 14,-281 -87,-392 -69,-76 -168,-111 -268,-111 -120,0 -236,50 -302,155 -68,108 -53,243 -54,365 0,116 14,239 -54,339z"/>
 </g>
</svg>
