<?xml version="1.0" encoding="UTF-8"?>
<!DOCTYPE svg PUBLIC "-//W3C//DTD SVG 1.1//EN" "http://www.w3.org/Graphics/SVG/1.1/DTD/svg11.dtd">
<!-- Creator: CorelDRAW X8 -->
<svg xmlns="http://www.w3.org/2000/svg" xml:space="preserve" width="1679px" height="1024px" version="1.1" style="shape-rendering:geometricPrecision; text-rendering:geometricPrecision; image-rendering:optimizeQuality; fill-rule:evenodd; clip-rule:evenodd"
viewBox="0 0 1679 1024"
 xmlns:xlink="http://www.w3.org/1999/xlink">
 <defs>
  <style type="text/css">
   <![CDATA[
    .fil0 {fill:#CC9933;fill-rule:nonzero}
   ]]>
  </style>
 </defs>
 <g id="Layer_x0020_1">
  <metadata id="CorelCorpID_0Corel-Layer"/>
  <path class="fil0" d="M842 371l0 617c0,20 28,36 61,36 34,0 62,-16 62,-36l0 -633c0,-152 75,-285 253,-285 114,0 220,71 276,170 44,78 61,175 62,265 1,178 -65,384 -230,456 -16,7 -25,18 -24,28 0,8 4,15 12,21 12,9 30,14 49,14 13,0 26,-2 37,-7 197,-86 281,-307 279,-513 -1,-99 -22,-206 -72,-292 -80,-136 -233,-212 -389,-212 -133,0 -241,44 -323,149 -110,-116 -236,-150 -393,-149 -187,2 -357,90 -442,265 -42,85 -60,181 -60,276 0,145 42,315 156,411 59,50 127,72 204,71 74,0 150,-25 207,-74 68,-57 100,-147 102,-235 3,-81 -20,-160 -76,-220 -59,-64 -146,-97 -231,-94 -105,4 -213,68 -242,172 -7,-85 11,-194 52,-279 64,-134 181,-222 330,-222 196,-2 340,108 340,300zm-676 344c0,-121 64,-239 195,-239 130,0 193,118 193,239 0,119 -64,238 -194,238 -131,0 -194,-117 -194,-238z"/>
 </g>
</svg>
