<?xml version="1.0" encoding="UTF-8"?>
<!DOCTYPE svg PUBLIC "-//W3C//DTD SVG 1.1//EN" "http://www.w3.org/Graphics/SVG/1.1/DTD/svg11.dtd">
<!-- Creator: CorelDRAW X8 -->
<svg xmlns="http://www.w3.org/2000/svg" xml:space="preserve" width="1016px" height="1405px" version="1.1" style="shape-rendering:geometricPrecision; text-rendering:geometricPrecision; image-rendering:optimizeQuality; fill-rule:evenodd; clip-rule:evenodd"
viewBox="0 0 1016 1405"
 xmlns:xlink="http://www.w3.org/1999/xlink">
 <defs>
  <style type="text/css">
   <![CDATA[
    .fil0 {fill:#CC9933;fill-rule:nonzero}
   ]]>
  </style>
 </defs>
 <g id="Layer_x0020_1">
  <metadata id="CorelCorpID_0Corel-Layer"/>
  <path class="fil0" d="M769 1370c0,20 -28,35 -62,35 -34,0 -61,-15 -61,-35l0 -333 -584 0c-34,0 -62,-16 -62,-36 0,-5 2,-9 5,-14l645 -964c9,-15 33,-23 58,-23 7,0 14,1 21,2 24,6 39,19 40,33 0,4 -1,8 -4,13l-614 918 803 0c34,0 62,16 62,35 0,20 -28,36 -62,36l-185 0 0 333z"/>
 </g>
</svg>
