<?xml version="1.0" encoding="UTF-8"?>
<!DOCTYPE svg PUBLIC "-//W3C//DTD SVG 1.1//EN" "http://www.w3.org/Graphics/SVG/1.1/DTD/svg11.dtd">
<!-- Creator: CorelDRAW X8 -->
<svg xmlns="http://www.w3.org/2000/svg" xml:space="preserve" width="1677px" height="1412px" version="1.1" style="shape-rendering:geometricPrecision; text-rendering:geometricPrecision; image-rendering:optimizeQuality; fill-rule:evenodd; clip-rule:evenodd"
viewBox="0 0 1677 1413"
 xmlns:xlink="http://www.w3.org/1999/xlink">
 <defs>
  <style type="text/css">
   <![CDATA[
    .fil0 {fill:#CC9933;fill-rule:nonzero}
   ]]>
  </style>
 </defs>
 <g id="Layer_x0020_1">
  <metadata id="CorelCorpID_0Corel-Layer"/>
  <path class="fil0" d="M1323 63c162,70 228,274 231,440 1,75 -9,153 -36,223 -49,129 -163,228 -303,228 -171,0 -253,-117 -253,-283l0 -636c0,-26 -42,-35 -61,-35 -20,0 -62,9 -62,35l0 636c0,166 -82,283 -253,283 -139,0 -253,-99 -303,-228 -26,-70 -37,-148 -35,-223 2,-166 69,-370 230,-440 15,-6 25,-17 25,-29 0,-7 -4,-14 -13,-20 -13,-10 -31,-14 -48,-14 -15,0 -30,4 -42,9 -190,85 -273,294 -275,495 -2,89 13,182 50,264 66,145 199,233 349,252 1,12 1,25 1,36 0,138 -83,288 -235,288 -72,0 -129,-19 -171,-80 -10,-14 -33,-22 -58,-22 -7,0 -14,1 -22,2 -24,5 -39,18 -39,32 0,4 1,8 4,12 66,95 176,125 286,125 209,0 359,-148 359,-357 0,-11 -1,-23 -2,-34 101,-10 179,-46 254,-131 89,101 182,133 314,133 176,0 336,-91 412,-256 37,-82 51,-175 50,-264 -3,-201 -86,-410 -275,-495 -13,-6 -28,-9 -44,-9 -17,0 -34,4 -47,14 -8,7 -12,14 -12,21 0,11 10,22 24,28z"/>
 </g>
</svg>
