<?xml version="1.0" encoding="UTF-8"?>
<!DOCTYPE svg PUBLIC "-//W3C//DTD SVG 1.1//EN" "http://www.w3.org/Graphics/SVG/1.1/DTD/svg11.dtd">
<!-- Creator: CorelDRAW X8 -->
<svg xmlns="http://www.w3.org/2000/svg" xml:space="preserve" width="460px" height="677px" version="1.1" style="shape-rendering:geometricPrecision; text-rendering:geometricPrecision; image-rendering:optimizeQuality; fill-rule:evenodd; clip-rule:evenodd"
viewBox="0 0 460 677"
 xmlns:xlink="http://www.w3.org/1999/xlink">
 <defs>
  <style type="text/css">
   <![CDATA[
    .fil0 {fill:#00A0E3;fill-rule:nonzero}
   ]]>
  </style>
 </defs>
 <g id="Layer_x0020_1">
  <metadata id="CorelCorpID_0Corel-Layer"/>
  <path class="fil0" d="M230 677c70,0 125,-35 165,-93 46,-69 65,-162 65,-245 0,-79 -16,-165 -57,-233 -39,-65 -97,-106 -173,-106 -76,0 -134,42 -173,106 -41,68 -57,154 -57,233 0,83 19,176 65,245 40,58 95,93 165,93zm-109 -540c21,-46 55,-90 109,-90 54,0 88,44 109,90 27,61 36,135 36,202 0,69 -10,150 -42,212 -21,42 -53,80 -103,80 -50,0 -82,-38 -103,-80 -32,-62 -42,-143 -42,-212 0,-66 9,-141 36,-202z"/>
 </g>
</svg>
