<?xml version="1.0" encoding="UTF-8"?>
<!DOCTYPE svg PUBLIC "-//W3C//DTD SVG 1.1//EN" "http://www.w3.org/Graphics/SVG/1.1/DTD/svg11.dtd">
<!-- Creator: CorelDRAW X8 -->
<svg xmlns="http://www.w3.org/2000/svg" xml:space="preserve" width="460px" height="677px" version="1.1" style="shape-rendering:geometricPrecision; text-rendering:geometricPrecision; image-rendering:optimizeQuality; fill-rule:evenodd; clip-rule:evenodd"
viewBox="0 0 460 677"
 xmlns:xlink="http://www.w3.org/1999/xlink">
 <defs>
  <style type="text/css">
   <![CDATA[
    .fil0 {fill:#2B2A29;fill-rule:nonzero}
   ]]>
  </style>
 </defs>
 <g id="Layer_x0020_1">
  <metadata id="CorelCorpID_0Corel-Layer"/>
  <path class="fil0" d="M230 677c159,0 230,-178 230,-338 0,-161 -70,-339 -230,-339 -162,0 -230,183 -230,339 0,160 71,338 230,338zm0 -46c-50,0 -82,-38 -103,-80 -32,-62 -42,-143 -42,-212 0,-66 9,-141 36,-202 21,-46 55,-90 109,-90 54,0 88,44 109,90 27,61 36,135 36,202 0,69 -10,150 -42,212 -21,42 -53,80 -103,80z"/>
 </g>
</svg>
