<?xml version="1.0" encoding="UTF-8"?>
<!DOCTYPE svg PUBLIC "-//W3C//DTD SVG 1.1//EN" "http://www.w3.org/Graphics/SVG/1.1/DTD/svg11.dtd">
<!-- Creator: CorelDRAW X8 -->
<svg xmlns="http://www.w3.org/2000/svg" xml:space="preserve" width="879px" height="1381px" version="1.1" style="shape-rendering:geometricPrecision; text-rendering:geometricPrecision; image-rendering:optimizeQuality; fill-rule:evenodd; clip-rule:evenodd"
viewBox="0 0 879 1381"
 xmlns:xlink="http://www.w3.org/1999/xlink">
 <defs>
  <style type="text/css">
   <![CDATA[
    .fil0 {fill:#CC9933;fill-rule:nonzero}
   ]]>
  </style>
 </defs>
 <g id="Layer_x0020_1">
  <metadata id="CorelCorpID_0Corel-Layer"/>
  <path class="fil0" d="M129 380c0,-88 53,-196 116,-246 59,-46 127,-64 201,-64 174,0 308,143 310,318 2,229 -245,351 -424,441 -103,52 -205,99 -266,204 -54,92 -66,209 -66,313 0,27 42,35 62,35l749 0c20,0 61,-8 61,-35 0,-26 -41,-35 -61,-35l-687 0c3,-87 13,-180 58,-256 52,-89 144,-130 232,-174 199,-100 463,-231 465,-484 2,-245 -205,-397 -433,-397 -87,0 -172,16 -249,58 -107,60 -194,198 -190,327 0,10 1,21 2,31 4,24 41,32 62,32 19,0 60,-9 61,-33 0,-10 -3,-23 -3,-35z"/>
 </g>
</svg>
