<?xml version="1.0" encoding="UTF-8"?>
<!DOCTYPE svg PUBLIC "-//W3C//DTD SVG 1.1//EN" "http://www.w3.org/Graphics/SVG/1.1/DTD/svg11.dtd">
<!-- Creator: CorelDRAW X8 -->
<svg xmlns="http://www.w3.org/2000/svg" xml:space="preserve" width="428px" height="653px" version="1.1" style="shape-rendering:geometricPrecision; text-rendering:geometricPrecision; image-rendering:optimizeQuality; fill-rule:evenodd; clip-rule:evenodd"
viewBox="0 0 428 653"
 xmlns:xlink="http://www.w3.org/1999/xlink">
 <defs>
  <style type="text/css">
   <![CDATA[
    .fil0 {fill:#CC9933;fill-rule:nonzero}
   ]]>
  </style>
 </defs>
 <g id="Layer_x0020_1">
  <metadata id="CorelCorpID_0Corel-Layer"/>
  <path class="fil0" d="M84 199c0,-49 10,-95 50,-126 25,-20 52,-27 83,-27 67,0 120,54 129,120 17,117 -104,177 -189,220 -49,25 -97,46 -126,97 -26,43 -31,98 -31,147 0,17 27,23 40,23l345 0c13,0 40,-6 40,-23 0,-17 -27,-23 -40,-23l-305 0c3,-37 7,-77 26,-110 24,-39 65,-58 104,-77 101,-51 236,-119 216,-257 -15,-106 -111,-163 -209,-163 -43,0 -85,8 -123,29 -51,28 -91,92 -91,152 0,7 0,13 1,19 3,16 28,21 41,21 12,0 39,-6 39,-22z"/>
 </g>
</svg>
