<?xml version="1.0" encoding="UTF-8"?>
<!DOCTYPE svg PUBLIC "-//W3C//DTD SVG 1.1//EN" "http://www.w3.org/Graphics/SVG/1.1/DTD/svg11.dtd">
<!-- Creator: CorelDRAW X8 -->
<svg xmlns="http://www.w3.org/2000/svg" xml:space="preserve" width="869px" height="1404px" version="1.1" style="shape-rendering:geometricPrecision; text-rendering:geometricPrecision; image-rendering:optimizeQuality; fill-rule:evenodd; clip-rule:evenodd"
viewBox="0 0 869 1404"
 xmlns:xlink="http://www.w3.org/1999/xlink">
 <defs>
  <style type="text/css">
   <![CDATA[
    .fil0 {fill:#00A0E3;fill-rule:nonzero}
   ]]>
  </style>
 </defs>
 <g id="Layer_x0020_1">
  <metadata id="CorelCorpID_0Corel-Layer"/>
  <path class="fil0" d="M124 398c-10,-175 99,-330 281,-328 169,1 303,115 304,292 0,124 -76,219 -190,257 -49,16 -89,18 -139,21 -19,1 -59,9 -59,35 0,26 42,35 61,35 51,0 92,-5 143,8 140,35 222,154 222,298 0,176 -120,318 -298,318 -192,0 -326,-121 -326,-319 0,-26 -42,-35 -62,-35 -19,0 -61,9 -61,35 0,263 211,389 449,389 223,0 420,-146 420,-386 0,-174 -93,-288 -247,-352 123,-62 210,-157 209,-304 -1,-239 -205,-363 -419,-362 -234,1 -425,149 -411,401 2,26 44,34 63,33 20,0 61,-9 60,-36z"/>
 </g>
</svg>
