<?xml version="1.0" encoding="UTF-8"?>
<!DOCTYPE svg PUBLIC "-//W3C//DTD SVG 1.1//EN" "http://www.w3.org/Graphics/SVG/1.1/DTD/svg11.dtd">
<!-- Creator: CorelDRAW X8 -->
<svg xmlns="http://www.w3.org/2000/svg" xml:space="preserve" width="869px" height="1404px" version="1.1" style="shape-rendering:geometricPrecision; text-rendering:geometricPrecision; image-rendering:optimizeQuality; fill-rule:evenodd; clip-rule:evenodd"
viewBox="0 0 869 1404"
 xmlns:xlink="http://www.w3.org/1999/xlink">
 <defs>
  <style type="text/css">
   <![CDATA[
    .fil0 {fill:#2B2A29;fill-rule:nonzero}
   ]]>
  </style>
 </defs>
 <g id="Layer_x0020_1">
  <metadata id="CorelCorpID_0Corel-Layer"/>
  <path class="fil0" d="M449 1404c223,0 420,-146 420,-386 0,-174 -93,-288 -247,-352 122,-62 209,-156 209,-304 0,-236 -206,-362 -422,-362 -237,0 -408,137 -408,375 0,8 0,17 0,26 1,25 40,33 60,33 21,0 64,-8 63,-35l-1 -23c-6,-166 111,-306 286,-306 169,1 299,115 300,292 0,124 -76,219 -190,257 -26,9 -49,13 -73,16 -21,2 -42,4 -66,5 -19,1 -59,9 -59,35 0,26 42,35 61,35l62 -1c27,0 52,2 81,9 140,35 222,154 222,298 0,176 -120,318 -298,318 -192,0 -326,-121 -326,-319 0,-26 -42,-35 -62,-35 -19,0 -61,9 -61,35 0,263 211,389 449,389z"/>
 </g>
</svg>
