<?xml version="1.0" encoding="UTF-8"?>
<!DOCTYPE svg PUBLIC "-//W3C//DTD SVG 1.1//EN" "http://www.w3.org/Graphics/SVG/1.1/DTD/svg11.dtd">
<!-- Creator: CorelDRAW X8 -->
<svg xmlns="http://www.w3.org/2000/svg" xml:space="preserve" width="432px" height="677px" version="1.1" style="shape-rendering:geometricPrecision; text-rendering:geometricPrecision; image-rendering:optimizeQuality; fill-rule:evenodd; clip-rule:evenodd"
viewBox="0 0 432 677"
 xmlns:xlink="http://www.w3.org/1999/xlink">
 <defs>
  <style type="text/css">
   <![CDATA[
    .fil0 {fill:#00A0E3;fill-rule:nonzero}
   ]]>
  </style>
 </defs>
 <g id="Layer_x0020_1">
  <metadata id="CorelCorpID_0Corel-Layer"/>
  <path class="fil0" d="M82 195c-2,-38 7,-76 31,-106 22,-28 53,-43 89,-43 75,1 131,55 131,132 0,55 -33,98 -83,115 -21,7 -40,8 -61,9 -12,1 -38,7 -38,23 0,18 27,24 41,24 21,0 40,-2 62,3 62,16 97,71 97,134 0,77 -50,144 -128,144 -85,0 -141,-57 -141,-144 0,-17 -28,-23 -41,-23 -13,0 -41,6 -41,23 0,130 107,191 223,191 109,0 209,-70 209,-190 0,-80 -41,-132 -108,-166 54,-32 90,-76 90,-143 0,-119 -104,-178 -209,-178 -53,0 -109,16 -150,53 -41,37 -57,88 -54,143 1,18 28,23 42,23 13,-1 40,-6 39,-24z"/>
 </g>
</svg>
