<?xml version="1.0" encoding="UTF-8"?>
<!DOCTYPE svg PUBLIC "-//W3C//DTD SVG 1.1//EN" "http://www.w3.org/Graphics/SVG/1.1/DTD/svg11.dtd">
<!-- Creator: CorelDRAW X8 -->
<svg xmlns="http://www.w3.org/2000/svg" xml:space="preserve" width="501px" height="677px" version="1.1" style="shape-rendering:geometricPrecision; text-rendering:geometricPrecision; image-rendering:optimizeQuality; fill-rule:evenodd; clip-rule:evenodd"
viewBox="0 0 501 677"
 xmlns:xlink="http://www.w3.org/1999/xlink">
 <defs>
  <style type="text/css">
   <![CDATA[
    .fil0 {fill:#00A0E3;fill-rule:nonzero}
   ]]>
  </style>
 </defs>
 <g id="Layer_x0020_1">
  <metadata id="CorelCorpID_0Corel-Layer"/>
  <path class="fil0" d="M385 653l0 -150 75 0c13,0 41,-6 41,-24 0,-17 -28,-23 -41,-23l-75 0 0 -432c0,-18 -28,-24 -41,-24 -13,0 -31,5 -39,17l-302 453c-1,3 -3,6 -3,9 0,18 28,24 41,24l262 0 0 150c0,18 28,24 41,24 13,0 41,-6 41,-24zm-319 -197c79,-120 158,-239 237,-359l0 359 -237 0z"/>
 </g>
</svg>
