<?xml version="1.0" encoding="UTF-8"?>
<!DOCTYPE svg PUBLIC "-//W3C//DTD SVG 1.1//EN" "http://www.w3.org/Graphics/SVG/1.1/DTD/svg11.dtd">
<!-- Creator: CorelDRAW X8 -->
<svg xmlns="http://www.w3.org/2000/svg" xml:space="preserve" width="893px" height="1380px" version="1.1" style="shape-rendering:geometricPrecision; text-rendering:geometricPrecision; image-rendering:optimizeQuality; fill-rule:evenodd; clip-rule:evenodd"
viewBox="0 0 893 1380"
 xmlns:xlink="http://www.w3.org/1999/xlink">
 <defs>
  <style type="text/css">
   <![CDATA[
    .fil0 {fill:#00A0E3;fill-rule:nonzero}
   ]]>
  </style>
 </defs>
 <g id="Layer_x0020_1">
  <metadata id="CorelCorpID_0Corel-Layer"/>
  <path class="fil0" d="M133 35l-89 683c-5,36 38,43 64,43 32,0 44,-10 61,-37 62,-98 172,-155 287,-149 198,9 314,175 314,367 0,197 -123,367 -326,369 -159,1 -286,-109 -322,-264 -5,-23 -41,-30 -61,-30 -20,0 -67,10 -60,39 49,212 238,326 444,324 255,-2 448,-172 448,-438 0,-256 -181,-425 -428,-437 -107,-5 -182,19 -279,65l65 -500 536 0c19,0 61,-9 61,-35 0,-26 -42,-35 -61,-35l-593 0c-21,0 -58,9 -61,35z"/>
 </g>
</svg>
