<?xml version="1.0" encoding="UTF-8"?>
<!DOCTYPE svg PUBLIC "-//W3C//DTD SVG 1.1//EN" "http://www.w3.org/Graphics/SVG/1.1/DTD/svg11.dtd">
<!-- Creator: CorelDRAW X8 -->
<svg xmlns="http://www.w3.org/2000/svg" xml:space="preserve" width="435px" height="653px" version="1.1" style="shape-rendering:geometricPrecision; text-rendering:geometricPrecision; image-rendering:optimizeQuality; fill-rule:evenodd; clip-rule:evenodd"
viewBox="0 0 435 653"
 xmlns:xlink="http://www.w3.org/1999/xlink">
 <defs>
  <style type="text/css">
   <![CDATA[
    .fil0 {fill:#2B2A29;fill-rule:nonzero}
   ]]>
  </style>
 </defs>
 <g id="Layer_x0020_1">
  <metadata id="CorelCorpID_0Corel-Layer"/>
  <path class="fil0" d="M435 444c0,-129 -94,-210 -219,-210 -37,0 -69,5 -105,21l27 -209 236 0c13,0 40,-6 40,-23 0,-17 -27,-23 -40,-23l-273 0c-13,0 -38,6 -40,22l-40 314c-1,3 -1,6 -1,8 0,19 27,23 42,23 16,0 27,-6 38,-22 26,-40 69,-65 116,-65 90,0 139,82 139,164 0,84 -53,163 -141,164 -68,0 -119,-51 -134,-117 -4,-16 -29,-20 -41,-20 -12,0 -39,7 -39,23 0,10 9,34 14,43 36,77 116,116 200,116 125,0 221,-80 221,-209z"/>
 </g>
</svg>
