<?xml version="1.0" encoding="UTF-8"?>
<!DOCTYPE svg PUBLIC "-//W3C//DTD SVG 1.1//EN" "http://www.w3.org/Graphics/SVG/1.1/DTD/svg11.dtd">
<!-- Creator: CorelDRAW X8 -->
<svg xmlns="http://www.w3.org/2000/svg" xml:space="preserve" width="926px" height="1381px" version="1.1" style="shape-rendering:geometricPrecision; text-rendering:geometricPrecision; image-rendering:optimizeQuality; fill-rule:evenodd; clip-rule:evenodd"
viewBox="0 0 926 1381"
 xmlns:xlink="http://www.w3.org/1999/xlink">
 <defs>
  <style type="text/css">
   <![CDATA[
    .fil0 {fill:#2B2A29;fill-rule:nonzero}
   ]]>
  </style>
 </defs>
 <g id="Layer_x0020_1">
  <metadata id="CorelCorpID_0Corel-Layer"/>
  <path class="fil0" d="M451 1347c13,-246 50,-489 135,-720 78,-212 193,-399 332,-575 5,-6 8,-13 8,-18 0,-9 -6,-16 -16,-23 -14,-8 -34,-11 -46,-11l-802 0c-20,0 -62,9 -62,35 0,26 42,35 62,35l708 0c-127,170 -229,342 -304,543 -77,209 -138,511 -138,734 0,25 39,34 59,34 21,0 63,-7 64,-34z"/>
 </g>
</svg>
