<?xml version="1.0" encoding="UTF-8"?>
<!DOCTYPE svg PUBLIC "-//W3C//DTD SVG 1.1//EN" "http://www.w3.org/Graphics/SVG/1.1/DTD/svg11.dtd">
<!-- Creator: CorelDRAW X8 -->
<svg xmlns="http://www.w3.org/2000/svg" xml:space="preserve" width="450px" height="653px" version="1.1" style="shape-rendering:geometricPrecision; text-rendering:geometricPrecision; image-rendering:optimizeQuality; fill-rule:evenodd; clip-rule:evenodd"
viewBox="0 0 450 653"
 xmlns:xlink="http://www.w3.org/1999/xlink">
 <defs>
  <style type="text/css">
   <![CDATA[
    .fil0 {fill:#00A0E3;fill-rule:nonzero}
   ]]>
  </style>
 </defs>
 <g id="Layer_x0020_1">
  <metadata id="CorelCorpID_0Corel-Layer"/>
  <path class="fil0" d="M40 46l309 0c-56,77 -101,154 -134,243 -40,109 -59,225 -64,341 -1,18 26,23 39,23 13,1 40,-5 41,-22 6,-113 23,-226 62,-332 36,-98 89,-185 152,-266 10,-11 4,-20 -6,-26 -9,-5 -21,-7 -29,-7l-370 0c-13,0 -40,6 -40,23 0,17 27,23 40,23z"/>
 </g>
</svg>
