<?xml version="1.0" encoding="UTF-8"?>
<!DOCTYPE svg PUBLIC "-//W3C//DTD SVG 1.1//EN" "http://www.w3.org/Graphics/SVG/1.1/DTD/svg11.dtd">
<!-- Creator: CorelDRAW X8 -->
<svg xmlns="http://www.w3.org/2000/svg" xml:space="preserve" width="909px" height="1405px" version="1.1" style="shape-rendering:geometricPrecision; text-rendering:geometricPrecision; image-rendering:optimizeQuality; fill-rule:evenodd; clip-rule:evenodd"
viewBox="0 0 909 1405"
 xmlns:xlink="http://www.w3.org/1999/xlink">
 <defs>
  <style type="text/css">
   <![CDATA[
    .fil0 {fill:#CC9933;fill-rule:nonzero}
   ]]>
  </style>
 </defs>
 <g id="Layer_x0020_1">
  <metadata id="CorelCorpID_0Corel-Layer"/>
  <path class="fil0" d="M871 352c0,-234 -207,-352 -417,-352 -209,0 -416,118 -416,352 0,160 86,254 223,317 -157,65 -261,171 -261,352 0,255 227,384 454,384 228,0 455,-129 455,-384 0,-181 -104,-287 -261,-352 137,-63 223,-157 223,-317zm-85 669c0,194 -147,314 -332,314 -184,0 -331,-120 -331,-314 0,-194 147,-315 332,-315 184,0 331,121 331,315zm-38 -669c0,173 -129,283 -293,283 -165,0 -294,-110 -294,-283 0,-172 129,-282 293,-282 165,0 294,110 294,282z"/>
 </g>
</svg>
