<?xml version="1.0" encoding="UTF-8"?>
<!DOCTYPE svg PUBLIC "-//W3C//DTD SVG 1.1//EN" "http://www.w3.org/Graphics/SVG/1.1/DTD/svg11.dtd">
<!-- Creator: CorelDRAW X8 -->
<svg xmlns="http://www.w3.org/2000/svg" xml:space="preserve" width="909px" height="1405px" version="1.1" style="shape-rendering:geometricPrecision; text-rendering:geometricPrecision; image-rendering:optimizeQuality; fill-rule:evenodd; clip-rule:evenodd"
viewBox="0 0 909 1404"
 xmlns:xlink="http://www.w3.org/1999/xlink">
 <defs>
  <style type="text/css">
   <![CDATA[
    .fil0 {fill:#00A0E3;fill-rule:nonzero}
   ]]>
  </style>
 </defs>
 <g id="Layer_x0020_1">
  <metadata id="CorelCorpID_0Corel-Layer"/>
  <path class="fil0" d="M871 352c0,-234 -207,-352 -417,-352 -209,0 -416,118 -416,352 0,159 86,254 223,317 -157,65 -261,171 -261,351 0,255 227,384 454,384 228,0 455,-129 455,-384 0,-180 -104,-286 -261,-351 137,-63 223,-158 223,-317zm-85 668c0,194 -148,315 -332,315 -183,0 -331,-121 -331,-315 0,-193 148,-314 332,-314 183,0 331,121 331,314zm-38 -668c0,172 -129,283 -293,283 -165,0 -294,-111 -294,-283 0,-172 129,-282 293,-282 165,0 294,110 294,282z"/>
 </g>
</svg>
