<?xml version="1.0" encoding="UTF-8"?>
<!DOCTYPE svg PUBLIC "-//W3C//DTD SVG 1.1//EN" "http://www.w3.org/Graphics/SVG/1.1/DTD/svg11.dtd">
<!-- Creator: CorelDRAW X8 -->
<svg xmlns="http://www.w3.org/2000/svg" xml:space="preserve" width="451px" height="677px" version="1.1" style="shape-rendering:geometricPrecision; text-rendering:geometricPrecision; image-rendering:optimizeQuality; fill-rule:evenodd; clip-rule:evenodd"
viewBox="0 0 451 677"
 xmlns:xlink="http://www.w3.org/1999/xlink">
 <defs>
  <style type="text/css">
   <![CDATA[
    .fil0 {fill:#00A0E3;fill-rule:nonzero}
   ]]>
  </style>
 </defs>
 <g id="Layer_x0020_1">
  <metadata id="CorelCorpID_0Corel-Layer"/>
  <path class="fil0" d="M433 173c0,-116 -105,-173 -207,-173 -103,0 -208,57 -208,173 0,73 36,116 96,149 -69,35 -114,84 -114,167 0,126 114,188 226,188 111,0 225,-62 225,-188 0,-83 -45,-132 -114,-167 60,-33 96,-76 96,-149zm-81 0c0,75 -54,127 -126,127 -73,0 -127,-52 -127,-127 0,-75 54,-126 127,-126 72,0 126,51 126,126zm17 316c0,85 -62,142 -143,142 -82,0 -144,-57 -144,-142 0,-85 62,-142 144,-142 81,0 143,57 143,142z"/>
 </g>
</svg>
