<?xml version="1.0" encoding="UTF-8"?>
<!DOCTYPE svg PUBLIC "-//W3C//DTD SVG 1.1//EN" "http://www.w3.org/Graphics/SVG/1.1/DTD/svg11.dtd">
<!-- Creator: CorelDRAW X8 -->
<svg xmlns="http://www.w3.org/2000/svg" xml:space="preserve" width="917px" height="1403px" version="1.1" style="shape-rendering:geometricPrecision; text-rendering:geometricPrecision; image-rendering:optimizeQuality; fill-rule:evenodd; clip-rule:evenodd"
viewBox="0 0 917 1403"
 xmlns:xlink="http://www.w3.org/1999/xlink">
 <defs>
  <style type="text/css">
   <![CDATA[
    .fil0 {fill:#2B2A29;fill-rule:nonzero}
   ]]>
  </style>
 </defs>
 <g id="Layer_x0020_1">
  <metadata id="CorelCorpID_0Corel-Layer"/>
  <path class="fil0" d="M436 0c-134,0 -262,52 -346,160 -62,81 -90,180 -90,282 0,127 43,249 138,334 83,75 189,108 298,108 181,0 300,-96 363,-221 -4,108 -9,204 -37,310 -45,173 -153,360 -353,360 -135,0 -231,-110 -260,-234 -5,-23 -41,-31 -61,-31 -25,0 -60,9 -60,37 0,3 1,6 1,9 45,180 196,289 380,289 260,0 410,-180 474,-420 26,-99 34,-207 34,-310 0,-85 -6,-171 -23,-255 -21,-100 -58,-198 -124,-277 -86,-103 -203,-141 -334,-141zm0 70c203,0 313,183 313,372 0,189 -110,372 -313,372 -203,0 -313,-183 -313,-372 0,-189 110,-372 313,-372z"/>
 </g>
</svg>
