<?xml version="1.0" encoding="UTF-8"?>
<!DOCTYPE svg PUBLIC "-//W3C//DTD SVG 1.1//EN" "http://www.w3.org/Graphics/SVG/1.1/DTD/svg11.dtd">
<!-- Creator: CorelDRAW X8 -->
<svg xmlns="http://www.w3.org/2000/svg" xml:space="preserve" width="453px" height="677px" version="1.1" style="shape-rendering:geometricPrecision; text-rendering:geometricPrecision; image-rendering:optimizeQuality; fill-rule:evenodd; clip-rule:evenodd"
viewBox="0 0 453 677"
 xmlns:xlink="http://www.w3.org/1999/xlink">
 <defs>
  <style type="text/css">
   <![CDATA[
    .fil0 {fill:#00A0E3;fill-rule:nonzero}
   ]]>
  </style>
 </defs>
 <g id="Layer_x0020_1">
  <metadata id="CorelCorpID_0Corel-Layer"/>
  <path class="fil0" d="M423 515c22,-57 29,-119 30,-179 0,-44 -3,-90 -11,-132 -26,-126 -95,-204 -225,-204 -125,0 -217,86 -217,216 0,129 92,216 217,216 72,0 123,-27 156,-71 -1,46 -4,92 -20,140 -23,68 -73,130 -149,130 -57,-1 -98,-53 -110,-105 -4,-16 -29,-21 -42,-21 -13,0 -43,8 -39,27 21,92 99,145 190,145 109,1 182,-61 220,-162zm-341 -299c0,-82 46,-169 135,-169 89,0 135,87 135,169 0,81 -46,169 -135,169 -89,0 -135,-88 -135,-169z"/>
 </g>
</svg>
