<?xml version="1.0" encoding="UTF-8"?>
<!DOCTYPE svg PUBLIC "-//W3C//DTD SVG 1.1//EN" "http://www.w3.org/Graphics/SVG/1.1/DTD/svg11.dtd">
<!-- Creator: CorelDRAW X8 -->
<svg xmlns="http://www.w3.org/2000/svg" xml:space="preserve" width="966px" height="1024px" version="1.1" style="shape-rendering:geometricPrecision; text-rendering:geometricPrecision; image-rendering:optimizeQuality; fill-rule:evenodd; clip-rule:evenodd"
viewBox="0 0 966 1024"
 xmlns:xlink="http://www.w3.org/1999/xlink">
 <defs>
  <style type="text/css">
   <![CDATA[
    .fil0 {fill:#00A0E3;fill-rule:nonzero}
   ]]>
  </style>
 </defs>
 <g id="Layer_x0020_1">
  <metadata id="CorelCorpID_0Corel-Layer"/>
  <path class="fil0" d="M152 283c1,-64 46,-120 97,-155 59,-40 135,-58 206,-58 155,1 295,86 295,258l0 108c-94,61 -246,38 -353,37 -184,0 -397,34 -397,270 0,205 209,281 378,281 150,0 291,-51 382,-158 11,63 41,112 100,147 24,14 63,14 87,1 24,-13 26,-35 2,-49 -67,-40 -76,-115 -76,-187l0 -450c0,-232 -219,-327 -417,-328 -103,-1 -215,24 -301,83 -65,44 -124,117 -125,200 0,26 40,35 60,35 20,0 62,-8 62,-35zm598 366c0,191 -208,304 -372,304 -129,0 -255,-61 -255,-210 0,-171 126,-202 266,-200 132,1 229,14 361,-15l0 121z"/>
 </g>
</svg>
