<?xml version="1.0" encoding="UTF-8"?>
<!DOCTYPE svg PUBLIC "-//W3C//DTD SVG 1.1//EN" "http://www.w3.org/Graphics/SVG/1.1/DTD/svg11.dtd">
<!-- Creator: CorelDRAW X8 -->
<svg xmlns="http://www.w3.org/2000/svg" xml:space="preserve" width="1283px" height="1405px" version="1.1" style="shape-rendering:geometricPrecision; text-rendering:geometricPrecision; image-rendering:optimizeQuality; fill-rule:evenodd; clip-rule:evenodd"
viewBox="0 0 1283 1405"
 xmlns:xlink="http://www.w3.org/1999/xlink">
 <defs>
  <style type="text/css">
   <![CDATA[
    .fil0 {fill:#2B2A29;fill-rule:nonzero}
   ]]>
  </style>
 </defs>
 <g id="Layer_x0020_1">
  <metadata id="CorelCorpID_0Corel-Layer"/>
  <path class="fil0" d="M1214 1405c20,0 69,-8 69,-33 0,-3 -2,-8 -4,-12l-569 -1333c-10,-24 -50,-27 -71,-27 -18,0 -62,6 -70,25l-567 1355c-1,3 -2,5 -2,7 0,13 25,18 36,18 15,0 36,-3 41,-15l192 -457 685 0 190 445c9,20 45,27 70,27zm-290 -542l-626 0 310 -741 316 741z"/>
 </g>
</svg>
