<?xml version="1.0" encoding="UTF-8"?>
<!DOCTYPE svg PUBLIC "-//W3C//DTD SVG 1.1//EN" "http://www.w3.org/Graphics/SVG/1.1/DTD/svg11.dtd">
<!-- Creator: CorelDRAW X8 -->
<svg xmlns="http://www.w3.org/2000/svg" xml:space="preserve" width="1717px" height="1024px" version="1.1" style="shape-rendering:geometricPrecision; text-rendering:geometricPrecision; image-rendering:optimizeQuality; fill-rule:evenodd; clip-rule:evenodd"
viewBox="0 0 1717 1024"
 xmlns:xlink="http://www.w3.org/1999/xlink">
 <defs>
  <style type="text/css">
   <![CDATA[
    .fil0 {fill:#B2B09C;fill-rule:nonzero}
   ]]>
  </style>
 </defs>
 <g id="Layer_x0020_1">
  <metadata id="CorelCorpID_0Corel-Layer"/>
  <path class="fil0" d="M1581 705c-8,74 -60,136 -116,176 -70,49 -155,74 -239,73 -237,-2 -361,-218 -359,-451l791 0c19,0 59,-8 59,-35 4,-306 -210,-469 -482,-468 -167,1 -304,75 -390,197 -65,-137 -234,-196 -389,-197 -103,-1 -215,24 -301,83 -65,44 -124,117 -125,200 0,26 40,35 60,35 20,0 62,-8 62,-35 1,-64 46,-120 97,-155 59,-40 135,-58 206,-58 156,1 296,86 296,259l0 108c-95,60 -247,37 -354,37 -184,-1 -397,33 -397,269 0,206 209,281 378,281 179,0 343,-75 449,-214 82,133 224,213 398,214 114,1 234,-30 330,-98 69,-49 134,-126 144,-217 2,-24 -29,-37 -60,-37 -28,0 -56,11 -58,33zm-830 -177l0 133c0,192 -209,293 -373,293 -129,0 -255,-62 -255,-211 0,-171 126,-202 266,-200 132,2 230,14 362,-15zm848 -95l-725 0c36,-201 158,-362 362,-363 214,-1 346,139 363,363z"/>
 </g>
</svg>
