<?xml version="1.0" encoding="UTF-8"?>
<!DOCTYPE svg PUBLIC "-//W3C//DTD SVG 1.1//EN" "http://www.w3.org/Graphics/SVG/1.1/DTD/svg11.dtd">
<!-- Creator: CorelDRAW X8 -->
<svg xmlns="http://www.w3.org/2000/svg" xml:space="preserve" width="1717px" height="1024px" version="1.1" style="shape-rendering:geometricPrecision; text-rendering:geometricPrecision; image-rendering:optimizeQuality; fill-rule:evenodd; clip-rule:evenodd"
viewBox="0 0 1717 1024"
 xmlns:xlink="http://www.w3.org/1999/xlink">
 <defs>
  <style type="text/css">
   <![CDATA[
    .fil0 {fill:#2B2A29;fill-rule:nonzero}
   ]]>
  </style>
 </defs>
 <g id="Layer_x0020_1">
  <metadata id="CorelCorpID_0Corel-Layer"/>
  <path class="fil0" d="M1231 1024c113,0 230,-31 325,-98 48,-34 95,-82 121,-139 12,-25 22,-53 22,-81 0,-26 -42,-34 -60,-34 -19,0 -56,8 -58,33 -8,74 -60,136 -117,176 -68,48 -151,73 -233,73 -241,0 -363,-223 -363,-451l790 0c20,0 59,-8 59,-35 0,-301 -200,-468 -479,-468 -170,0 -307,75 -392,197 -66,-139 -236,-197 -395,-197 -101,0 -212,25 -296,83 -65,44 -124,117 -125,200 0,26 40,35 60,35 20,0 62,-8 62,-35 1,-64 46,-120 97,-155 59,-40 131,-58 202,-58 155,1 299,86 299,258l0 108c-53,34 -124,42 -196,42 -55,0 -110,-5 -157,-5 -184,0 -397,34 -397,270 0,205 209,281 378,281 139,0 244,-42 326,-97 54,-37 80,-63 123,-117 82,133 226,214 404,214zm-853 -71c-129,0 -255,-61 -255,-210 0,-166 119,-200 266,-200 59,0 117,4 175,4 59,0 118,-4 186,-19l0 121c0,191 -208,304 -372,304zm1221 -520l-724 0c36,-201 157,-363 363,-363 216,0 345,143 361,363z"/>
 </g>
</svg>
