<?xml version="1.0" encoding="UTF-8"?>
<!DOCTYPE svg PUBLIC "-//W3C//DTD SVG 1.1//EN" "http://www.w3.org/Graphics/SVG/1.1/DTD/svg11.dtd">
<!-- Creator: CorelDRAW X8 -->
<svg xmlns="http://www.w3.org/2000/svg" xml:space="preserve" width="1873px" height="1381px" version="1.1" style="shape-rendering:geometricPrecision; text-rendering:geometricPrecision; image-rendering:optimizeQuality; fill-rule:evenodd; clip-rule:evenodd"
viewBox="0 0 1873 1381"
 xmlns:xlink="http://www.w3.org/1999/xlink">
 <defs>
  <style type="text/css">
   <![CDATA[
    .fil0 {fill:#CC9933;fill-rule:nonzero}
   ]]>
  </style>
 </defs>
 <g id="Layer_x0020_1">
  <metadata id="CorelCorpID_0Corel-Layer"/>
  <path class="fil0" d="M1812 0l-1174 0c-23,0 -59,0 -70,25l-567 1334c-1,1 -1,3 -1,3 0,12 22,18 30,19 3,0 6,0 9,0 11,0 33,-3 38,-15l192 -458 576 0 0 414c0,27 43,35 61,35l906 0c18,0 61,-8 61,-35 0,-26 -43,-35 -61,-35l-844 0 0 -574 725 0c18,0 62,-8 62,-35 0,-27 -44,-35 -62,-35l-725 0 0 -573 844 0c18,0 61,-8 61,-35 0,-27 -43,-35 -61,-35zm-967 838l-547 0c109,-256 218,-512 327,-768l220 0 0 768z"/>
 </g>
</svg>
