<?xml version="1.0" encoding="UTF-8"?>
<!DOCTYPE svg PUBLIC "-//W3C//DTD SVG 1.1//EN" "http://www.w3.org/Graphics/SVG/1.1/DTD/svg11.dtd">
<!-- Creator: CorelDRAW X8 -->
<svg xmlns="http://www.w3.org/2000/svg" xml:space="preserve" width="1873px" height="1381px" version="1.1" style="shape-rendering:geometricPrecision; text-rendering:geometricPrecision; image-rendering:optimizeQuality; fill-rule:evenodd; clip-rule:evenodd"
viewBox="0 0 1873 1381"
 xmlns:xlink="http://www.w3.org/1999/xlink">
 <defs>
  <style type="text/css">
   <![CDATA[
    .fil0 {fill:#2B2A29;fill-rule:nonzero}
   ]]>
  </style>
 </defs>
 <g id="Layer_x0020_1">
  <metadata id="CorelCorpID_0Corel-Layer"/>
  <path class="fil0" d="M269 908l576 0 0 414c0,27 43,35 61,35l905 0c19,0 62,-8 62,-35 0,-27 -43,-35 -62,-35l-843 0 0 -574 725 0c18,0 61,-8 61,-35 0,-27 -43,-35 -61,-35l-725 0 0 -573 843 0c19,0 62,-8 62,-35 0,-27 -43,-35 -62,-35l-1173 0c-23,0 -58,0 -69,25l-567 1331c-1,3 -2,5 -2,7 0,13 25,18 36,18 15,0 36,-3 41,-15l192 -458zm576 -70l-547 0 327 -768 220 0 0 768z"/>
 </g>
</svg>
