<?xml version="1.0" encoding="UTF-8"?>
<!DOCTYPE svg PUBLIC "-//W3C//DTD SVG 1.1//EN" "http://www.w3.org/Graphics/SVG/1.1/DTD/svg11.dtd">
<!-- Creator: CorelDRAW X8 -->
<svg xmlns="http://www.w3.org/2000/svg" xml:space="preserve" width="2344px" height="1024px" version="1.1" style="shape-rendering:geometricPrecision; text-rendering:geometricPrecision; image-rendering:optimizeQuality; fill-rule:evenodd; clip-rule:evenodd"
viewBox="0 0 2344 1024"
 xmlns:xlink="http://www.w3.org/1999/xlink">
 <defs>
  <style type="text/css">
   <![CDATA[
    .fil0 {fill:#00A0E3;fill-rule:nonzero}
   ]]>
  </style>
 </defs>
 <g id="Layer_x0020_1">
  <metadata id="CorelCorpID_0Corel-Layer"/>
  <path class="fil0" d="M1529 259c65,100 90,205 89,324 -1,89 -20,183 -66,259 -37,63 -89,112 -165,111 -70,-1 -125,-41 -163,-99 -39,-60 -56,-135 -56,-206 0,-91 26,-180 79,-253 71,-95 167,-135 282,-136zm575 3c-139,0 -240,103 -240,250 0,147 101,250 240,250 140,0 240,-103 240,-250 0,-147 -100,-250 -240,-250zm137 250c0,88 -40,184 -137,184 -97,0 -136,-96 -136,-184 0,-88 39,-184 136,-184 97,0 137,96 137,184zm-2001 -250c-139,0 -240,103 -240,250 0,147 101,250 240,250 140,0 240,-103 240,-250 0,-147 -100,-250 -240,-250zm137 250c0,88 -40,184 -137,184 -97,0 -136,-96 -136,-184 0,-88 39,-184 136,-184 97,0 137,96 137,184zm539 454c-134,-92 -201,-243 -200,-406 0,-103 26,-207 82,-294 84,-130 220,-194 371,-196 126,-2 210,35 303,120 -137,18 -252,62 -338,178 -58,80 -89,181 -89,280 0,80 20,163 64,231 63,96 166,144 278,145 119,1 220,-55 282,-159 49,-83 70,-185 71,-282 2,-98 -15,-195 -58,-283 -101,-207 -293,-301 -514,-300 -182,1 -361,69 -472,223 -70,97 -102,214 -103,334 -2,177 73,338 213,443 31,23 66,32 102,15 23,-11 31,-33 8,-49z"/>
 </g>
</svg>
