<?xml version="1.0" encoding="UTF-8"?>
<!DOCTYPE svg PUBLIC "-//W3C//DTD SVG 1.1//EN" "http://www.w3.org/Graphics/SVG/1.1/DTD/svg11.dtd">
<!-- Creator: CorelDRAW X8 -->
<svg xmlns="http://www.w3.org/2000/svg" xml:space="preserve" width="1679px" height="1024px" version="1.1" style="shape-rendering:geometricPrecision; text-rendering:geometricPrecision; image-rendering:optimizeQuality; fill-rule:evenodd; clip-rule:evenodd"
viewBox="0 0 1679 1024"
 xmlns:xlink="http://www.w3.org/1999/xlink">
 <defs>
  <style type="text/css">
   <![CDATA[
    .fil0 {fill:#B2B09C;fill-rule:nonzero}
   ]]>
  </style>
 </defs>
 <g id="Layer_x0020_1">
  <metadata id="CorelCorpID_0Corel-Layer"/>
  <path class="fil0" d="M842 371l0 617c0,20 28,36 61,36 34,0 62,-16 62,-36l0 -633c0,-152 75,-285 253,-285 114,0 220,71 276,170 44,78 61,175 62,265 1,178 -65,384 -230,456 -23,10 -35,32 -12,49 22,17 61,18 86,7 197,-86 281,-307 279,-513 -1,-99 -22,-206 -72,-292 -80,-136 -233,-212 -389,-212 -133,0 -241,44 -323,149 -110,-116 -236,-150 -393,-149 -193,2 -359,94 -442,265 -37,74 -57,167 -60,262 -4,162 44,331 156,425 60,51 127,73 204,72 74,-1 150,-26 208,-74 67,-57 99,-148 102,-235 2,-82 -21,-161 -76,-221 -59,-64 -147,-97 -232,-94 -106,4 -209,63 -241,171 -6,-97 12,-196 52,-280 62,-129 178,-220 329,-220 196,-2 340,108 340,300zm-676 344c0,-120 64,-239 195,-239 131,0 194,119 193,239 0,119 -64,239 -193,239 -132,-1 -195,-117 -195,-239z"/>
 </g>
</svg>
