<?xml version="1.0" encoding="UTF-8"?>
<!DOCTYPE svg PUBLIC "-//W3C//DTD SVG 1.1//EN" "http://www.w3.org/Graphics/SVG/1.1/DTD/svg11.dtd">
<!-- Creator: CorelDRAW X8 -->
<svg xmlns="http://www.w3.org/2000/svg" xml:space="preserve" width="540px" height="516px" version="1.1" style="shape-rendering:geometricPrecision; text-rendering:geometricPrecision; image-rendering:optimizeQuality; fill-rule:evenodd; clip-rule:evenodd"
viewBox="0 0 540 516"
 xmlns:xlink="http://www.w3.org/1999/xlink">
 <defs>
  <style type="text/css">
   <![CDATA[
    .fil0 {fill:#00A0E3;fill-rule:nonzero}
   ]]>
  </style>
 </defs>
 <g id="Layer_x0020_1">
  <metadata id="CorelCorpID_0Corel-Layer"/>
  <path class="fil0" d="M249 13l-15 219 -213 -53c-11,-3 -16,6 -19,16 -3,9 -4,19 7,24l203 82 -116 185c-6,11 0,18 9,24 8,5 17,10 24,1l141 -168 141 167c8,10 17,5 25,-1 8,-6 15,-13 9,-23l-117 -186 203 -82c12,-4 10,-14 7,-24 -4,-10 -8,-18 -20,-15l-212 53 -16 -219c0,-12 -10,-13 -20,-13 -11,0 -20,2 -21,13z"/>
 </g>
</svg>
