<?xml version="1.0" encoding="UTF-8"?>
<!DOCTYPE svg PUBLIC "-//W3C//DTD SVG 1.1//EN" "http://www.w3.org/Graphics/SVG/1.1/DTD/svg11.dtd">
<!-- Creator: CorelDRAW X8 -->
<svg xmlns="http://www.w3.org/2000/svg" xml:space="preserve" width="1707px" height="1780px" version="1.1" style="shape-rendering:geometricPrecision; text-rendering:geometricPrecision; image-rendering:optimizeQuality; fill-rule:evenodd; clip-rule:evenodd"
viewBox="0 0 1707 1779"
 xmlns:xlink="http://www.w3.org/1999/xlink">
 <defs>
  <style type="text/css">
   <![CDATA[
    .fil0 {fill:#00A0E3;fill-rule:nonzero}
   ]]>
  </style>
 </defs>
 <g id="Layer_x0020_1">
  <metadata id="CorelCorpID_0Corel-Layer"/>
  <path class="fil0" d="M815 464c-264,0 -399,245 -398,487 1,246 148,451 403,451 135,-1 202,-53 282,-156 37,115 78,156 203,154 120,-2 218,-60 288,-158 79,-112 113,-257 114,-393 1,-234 -66,-459 -235,-624 -158,-153 -374,-224 -590,-225 -237,-1 -473,83 -641,256 -171,177 -241,416 -241,660 0,283 100,547 335,712 144,103 320,152 495,151 96,0 191,-15 282,-44 21,-7 44,-27 23,-48 -19,-19 -59,-21 -84,-13 -72,24 -147,36 -222,36 -142,0 -282,-43 -399,-125 -218,-155 -308,-407 -307,-669 0,-231 63,-459 226,-626 140,-145 334,-221 533,-221 178,1 354,65 483,191 160,155 220,370 220,589 -1,127 -32,263 -106,367 -40,55 -103,115 -174,115 -125,-1 -113,-171 -101,-255l84 -575c4,-26 -39,-36 -58,-37 -20,0 -61,8 -64,33l-23 163c-86,-132 -161,-196 -328,-196zm2 867c-197,1 -274,-212 -277,-382 -2,-164 86,-417 281,-415 218,2 291,264 272,446 -16,149 -102,351 -276,351z"/>
 </g>
</svg>
