<?xml version="1.0" encoding="UTF-8"?>
<!DOCTYPE svg PUBLIC "-//W3C//DTD SVG 1.1//EN" "http://www.w3.org/Graphics/SVG/1.1/DTD/svg11.dtd">
<!-- Creator: CorelDRAW X8 -->
<svg xmlns="http://www.w3.org/2000/svg" xml:space="preserve" width="1707px" height="1780px" version="1.1" style="shape-rendering:geometricPrecision; text-rendering:geometricPrecision; image-rendering:optimizeQuality; fill-rule:evenodd; clip-rule:evenodd"
viewBox="0 0 1707 1780"
 xmlns:xlink="http://www.w3.org/1999/xlink">
 <defs>
  <style type="text/css">
   <![CDATA[
    .fil0 {fill:#2B2A29;fill-rule:nonzero}
   ]]>
  </style>
 </defs>
 <g id="Layer_x0020_1">
  <metadata id="CorelCorpID_0Corel-Layer"/>
  <path class="fil0" d="M829 1780c101,0 192,-15 283,-44 15,-5 31,-17 31,-31 0,-5 -2,-11 -8,-17 -12,-12 -33,-17 -53,-17 -11,0 -22,1 -31,4 -72,24 -147,36 -222,36 -142,0 -282,-43 -399,-125 -217,-154 -307,-404 -307,-670 0,-229 63,-458 226,-626 140,-144 334,-221 533,-221 178,1 354,65 483,191 160,155 221,365 220,584 0,128 -32,269 -106,372 -40,56 -105,112 -176,116 -81,4 -106,-86 -106,-164 0,-34 3,-66 7,-92l84 -578c4,-23 -40,-33 -58,-34 -20,-1 -61,8 -64,33l-23 163c-44,-108 -157,-196 -324,-196 -263,0 -402,239 -402,480 0,241 141,459 399,459 135,-1 206,-53 286,-157 36,111 114,156 200,156 106,0 224,-64 291,-160 80,-113 114,-260 114,-398 0,-232 -67,-455 -235,-619 -158,-154 -376,-225 -594,-225 -236,0 -470,84 -637,256 -171,177 -241,416 -241,660 0,284 100,547 335,713 143,101 320,151 494,151zm-13 -448c-199,0 -276,-221 -276,-388 0,-164 87,-410 279,-410 202,0 277,222 277,389 0,163 -86,409 -280,409z"/>
 </g>
</svg>
