<?xml version="1.0" encoding="UTF-8"?>
<!DOCTYPE svg PUBLIC "-//W3C//DTD SVG 1.1//EN" "http://www.w3.org/Graphics/SVG/1.1/DTD/svg11.dtd">
<!-- Creator: CorelDRAW X8 -->
<svg xmlns="http://www.w3.org/2000/svg" xml:space="preserve" width="944px" height="1405px" version="1.1" style="shape-rendering:geometricPrecision; text-rendering:geometricPrecision; image-rendering:optimizeQuality; fill-rule:evenodd; clip-rule:evenodd"
viewBox="0 0 944 1406"
 xmlns:xlink="http://www.w3.org/1999/xlink">
 <defs>
  <style type="text/css">
   <![CDATA[
    .fil0 {fill:#00A0E3;fill-rule:nonzero}
   ]]>
  </style>
 </defs>
 <g id="Layer_x0020_1">
  <metadata id="CorelCorpID_0Corel-Layer"/>
  <path class="fil0" d="M472 380c-163,0 -288,78 -349,174l0 -519c0,-26 -42,-35 -61,-35 -20,0 -62,9 -62,35l0 1336c0,26 42,35 62,35 19,0 61,-9 61,-35l0 -140c55,95 186,174 349,174 292,0 472,-225 472,-512 0,-288 -180,-513 -472,-513zm0 70c233,0 349,231 349,443 0,211 -116,442 -349,442 -233,0 -349,-231 -349,-442 0,-212 116,-443 349,-443z"/>
 </g>
</svg>
