<?xml version="1.0" encoding="UTF-8"?>
<!DOCTYPE svg PUBLIC "-//W3C//DTD SVG 1.1//EN" "http://www.w3.org/Graphics/SVG/1.1/DTD/svg11.dtd">
<!-- Creator: CorelDRAW X8 -->
<svg xmlns="http://www.w3.org/2000/svg" xml:space="preserve" width="1050px" height="1357px" version="1.1" style="shape-rendering:geometricPrecision; text-rendering:geometricPrecision; image-rendering:optimizeQuality; fill-rule:evenodd; clip-rule:evenodd"
viewBox="0 0 1050 1357"
 xmlns:xlink="http://www.w3.org/1999/xlink">
 <defs>
  <style type="text/css">
   <![CDATA[
    .fil0 {fill:#00A0E3;fill-rule:nonzero}
   ]]>
  </style>
 </defs>
 <g id="Layer_x0020_1">
  <metadata id="CorelCorpID_0Corel-Layer"/>
  <path class="fil0" d="M622 0l-560 0c-20,0 -62,9 -62,35l0 1287c0,27 43,35 62,35l617 0c198,0 371,-149 371,-357 0,-162 -98,-277 -241,-335 109,-71 176,-173 176,-308 0,-205 -166,-357 -363,-357zm-499 714l556 0c145,0 248,148 248,286 0,139 -103,287 -248,287l-556 0 0 -573zm499 -70l-499 0 0 -574 499 0c143,0 240,153 240,287 0,134 -97,287 -240,287z"/>
 </g>
</svg>
