<?xml version="1.0" encoding="UTF-8"?>
<!DOCTYPE svg PUBLIC "-//W3C//DTD SVG 1.1//EN" "http://www.w3.org/Graphics/SVG/1.1/DTD/svg11.dtd">
<!-- Creator: CorelDRAW X8 -->
<svg xmlns="http://www.w3.org/2000/svg" xml:space="preserve" width="508px" height="1780px" version="1.1" style="shape-rendering:geometricPrecision; text-rendering:geometricPrecision; image-rendering:optimizeQuality; fill-rule:evenodd; clip-rule:evenodd"
viewBox="0 0 508 1780"
 xmlns:xlink="http://www.w3.org/1999/xlink">
 <defs>
  <style type="text/css">
   <![CDATA[
    .fil0 {fill:#2B2A29;fill-rule:nonzero}
   ]]>
  </style>
 </defs>
 <g id="Layer_x0020_1">
  <metadata id="CorelCorpID_0Corel-Layer"/>
  <path class="fil0" d="M448 1780c19,0 60,-8 60,-34 0,-26 -41,-35 -60,-34l-48 1c-27,0 -52,-4 -76,-26 -22,-21 -34,-50 -34,-81l0 -518c0,-80 -6,-157 -84,-198 78,-41 84,-118 84,-198l0 -518c0,-31 12,-60 34,-81 24,-22 49,-27 76,-26l48 1c19,1 60,-8 60,-34 0,-25 -41,-34 -60,-34l-34 0c-71,0 -135,4 -192,58 -32,30 -52,71 -52,116l0 527c0,78 -9,155 -111,155 -39,0 -59,17 -59,34 0,17 20,34 59,34 102,0 111,77 111,155l0 527c0,45 20,86 52,116 57,54 121,58 192,58l34 0z"/>
 </g>
</svg>
