<?xml version="1.0" encoding="UTF-8"?>
<!DOCTYPE svg PUBLIC "-//W3C//DTD SVG 1.1//EN" "http://www.w3.org/Graphics/SVG/1.1/DTD/svg11.dtd">
<!-- Creator: CorelDRAW X8 -->
<svg xmlns="http://www.w3.org/2000/svg" xml:space="preserve" width="508px" height="1780px" version="1.1" style="shape-rendering:geometricPrecision; text-rendering:geometricPrecision; image-rendering:optimizeQuality; fill-rule:evenodd; clip-rule:evenodd"
viewBox="0 0 508 1780"
 xmlns:xlink="http://www.w3.org/1999/xlink">
 <defs>
  <style type="text/css">
   <![CDATA[
    .fil0 {fill:#CC9933;fill-rule:nonzero}
   ]]>
  </style>
 </defs>
 <g id="Layer_x0020_1">
  <metadata id="CorelCorpID_0Corel-Layer"/>
  <path class="fil0" d="M59 856c-39,0 -59,17 -59,34 0,17 20,34 59,34 125,0 111,116 111,206l0 476c0,45 20,86 52,116 66,63 142,58 226,58 19,0 60,-9 60,-34 0,-26 -41,-34 -60,-34 -45,0 -87,10 -124,-25 -22,-21 -34,-50 -34,-81l0 -476c0,-94 8,-192 -84,-240 92,-48 84,-146 84,-240l0 -476c0,-31 12,-60 34,-81 37,-35 79,-25 124,-25 19,0 60,-8 60,-34 0,-25 -41,-34 -60,-34 -84,0 -160,-5 -226,58 -32,30 -52,71 -52,116l0 476c0,90 14,206 -111,206z"/>
 </g>
</svg>
