<?xml version="1.0" encoding="UTF-8"?>
<!DOCTYPE svg PUBLIC "-//W3C//DTD SVG 1.1//EN" "http://www.w3.org/Graphics/SVG/1.1/DTD/svg11.dtd">
<!-- Creator: CorelDRAW X8 -->
<svg xmlns="http://www.w3.org/2000/svg" xml:space="preserve" width="944px" height="1024px" version="1.1" style="shape-rendering:geometricPrecision; text-rendering:geometricPrecision; image-rendering:optimizeQuality; fill-rule:evenodd; clip-rule:evenodd"
viewBox="0 0 944 1024"
 xmlns:xlink="http://www.w3.org/1999/xlink">
 <defs>
  <style type="text/css">
   <![CDATA[
    .fil0 {fill:#B2B09C;fill-rule:nonzero}
   ]]>
  </style>
 </defs>
 <g id="Layer_x0020_1">
  <metadata id="CorelCorpID_0Corel-Layer"/>
  <path class="fil0" d="M942 314c-28,-214 -256,-316 -446,-314 -304,4 -498,216 -496,522 2,306 197,503 494,502 189,0 413,-104 450,-312 5,-29 -41,-39 -61,-39 -20,0 -57,8 -61,32 -27,151 -180,249 -324,249 -246,0 -375,-201 -375,-436 -1,-235 128,-445 376,-448 147,-2 299,91 321,249 3,24 41,32 61,32 20,0 65,-9 61,-37z"/>
 </g>
</svg>
