<?xml version="1.0" encoding="UTF-8"?>
<!DOCTYPE svg PUBLIC "-//W3C//DTD SVG 1.1//EN" "http://www.w3.org/Graphics/SVG/1.1/DTD/svg11.dtd">
<!-- Creator: CorelDRAW X8 -->
<svg xmlns="http://www.w3.org/2000/svg" xml:space="preserve" width="944px" height="1024px" version="1.1" style="shape-rendering:geometricPrecision; text-rendering:geometricPrecision; image-rendering:optimizeQuality; fill-rule:evenodd; clip-rule:evenodd"
viewBox="0 0 944 1024"
 xmlns:xlink="http://www.w3.org/1999/xlink">
 <defs>
  <style type="text/css">
   <![CDATA[
    .fil0 {fill:#2B2A29;fill-rule:nonzero}
   ]]>
  </style>
 </defs>
 <g id="Layer_x0020_1">
  <metadata id="CorelCorpID_0Corel-Layer"/>
  <path class="fil0" d="M944 708c0,-26 -42,-35 -61,-35 -20,0 -57,8 -61,32 -27,151 -186,249 -330,249 -252,0 -369,-208 -369,-439 0,-232 125,-445 378,-445 145,0 297,93 319,249 3,24 41,32 61,32 19,0 61,-8 61,-34 0,-40 -28,-104 -51,-137 -83,-121 -247,-180 -390,-180 -306,0 -501,216 -501,517 0,300 187,507 492,507 135,0 284,-51 374,-153 38,-43 78,-105 78,-163z"/>
 </g>
</svg>
