<?xml version="1.0" encoding="UTF-8"?>
<!DOCTYPE svg PUBLIC "-//W3C//DTD SVG 1.1//EN" "http://www.w3.org/Graphics/SVG/1.1/DTD/svg11.dtd">
<!-- Creator: CorelDRAW X8 -->
<svg xmlns="http://www.w3.org/2000/svg" xml:space="preserve" width="1202px" height="1780px" version="1.1" style="shape-rendering:geometricPrecision; text-rendering:geometricPrecision; image-rendering:optimizeQuality; fill-rule:evenodd; clip-rule:evenodd"
viewBox="0 0 1202 1780"
 xmlns:xlink="http://www.w3.org/1999/xlink">
 <defs>
  <style type="text/css">
   <![CDATA[
    .fil0 {fill:#2B2A29;fill-rule:nonzero}
   ]]>
  </style>
 </defs>
 <g id="Layer_x0020_1">
  <metadata id="CorelCorpID_0Corel-Layer"/>
  <path class="fil0" d="M1202 977c0,-23 -31,-34 -62,-34 -28,0 -56,10 -60,30 -36,215 -240,362 -453,362 -353,0 -504,-325 -504,-636 0,-316 168,-629 520,-629 208,0 405,142 434,361 3,21 32,32 60,32 31,0 63,-12 63,-34 0,-8 -2,-18 -3,-26 -47,-260 -308,-403 -554,-403 -412,0 -643,307 -643,699 0,376 196,684 584,705l-36 98c-1,4 -5,12 -5,16 0,6 6,10 12,13 9,4 22,6 32,7 56,1 134,25 134,95 0,81 -100,105 -160,105 -67,0 -82,-31 -124,-31 -5,0 -13,1 -21,3 -11,3 -21,9 -21,18 0,3 2,6 6,9 34,35 114,43 160,43 84,0 246,-33 246,-147 0,-90 -102,-122 -172,-133l35 -96c238,-16 476,-159 528,-403 2,-9 4,-14 4,-24z"/>
 </g>
</svg>
