<?xml version="1.0" encoding="UTF-8"?>
<!DOCTYPE svg PUBLIC "-//W3C//DTD SVG 1.1//EN" "http://www.w3.org/Graphics/SVG/1.1/DTD/svg11.dtd">
<!-- Creator: CorelDRAW X8 -->
<svg xmlns="http://www.w3.org/2000/svg" xml:space="preserve" width="1202px" height="1780px" version="1.1" style="shape-rendering:geometricPrecision; text-rendering:geometricPrecision; image-rendering:optimizeQuality; fill-rule:evenodd; clip-rule:evenodd"
viewBox="0 0 1202 1780"
 xmlns:xlink="http://www.w3.org/1999/xlink">
 <defs>
  <style type="text/css">
   <![CDATA[
    .fil0 {fill:#B2B09C;fill-rule:nonzero}
   ]]>
  </style>
 </defs>
 <g id="Layer_x0020_1">
  <metadata id="CorelCorpID_0Corel-Layer"/>
  <path class="fil0" d="M1200 426c-35,-279 -311,-430 -567,-426 -408,6 -638,314 -633,712 4,378 206,670 581,691l-37 109c-3,9 3,15 11,19 9,4 22,6 32,7 55,1 134,24 134,94 0,81 -105,105 -167,105 -22,0 -61,-3 -78,-19 -13,-13 -41,-14 -58,-9 -13,3 -32,14 -18,28 35,34 108,43 154,43 84,0 252,-34 252,-148 0,-90 -101,-122 -171,-133l32 -96c243,-14 492,-163 535,-423 4,-26 -36,-37 -56,-38 -20,-1 -62,6 -66,31 -36,215 -238,360 -447,362 -347,3 -508,-307 -510,-624 -3,-321 165,-636 513,-641 211,-3 413,140 441,361 4,25 46,33 66,32 19,-1 60,-11 57,-37z"/>
 </g>
</svg>
