<?xml version="1.0" encoding="UTF-8"?>
<!DOCTYPE svg PUBLIC "-//W3C//DTD SVG 1.1//EN" "http://www.w3.org/Graphics/SVG/1.1/DTD/svg11.dtd">
<!-- Creator: CorelDRAW X8 -->
<svg xmlns="http://www.w3.org/2000/svg" xml:space="preserve" width="1202px" height="1780px" version="1.1" style="shape-rendering:geometricPrecision; text-rendering:geometricPrecision; image-rendering:optimizeQuality; fill-rule:evenodd; clip-rule:evenodd"
viewBox="0 0 1202 1780"
 xmlns:xlink="http://www.w3.org/1999/xlink">
 <defs>
  <style type="text/css">
   <![CDATA[
    .fil0 {fill:#CC9933;fill-rule:nonzero}
   ]]>
  </style>
 </defs>
 <g id="Layer_x0020_1">
  <metadata id="CorelCorpID_0Corel-Layer"/>
  <path class="fil0" d="M1200 426c-35,-279 -311,-430 -567,-426 -408,6 -638,314 -633,712 4,378 206,670 581,692l-37 108c0,2 -1,4 -1,5 0,7 6,11 12,14 9,4 22,7 32,7 55,2 134,24 134,95 0,81 -105,105 -167,105 -22,0 -61,-3 -78,-20 -9,-9 -26,-12 -38,-11 -7,0 -14,0 -20,2 -8,2 -23,8 -22,19 0,3 2,7 4,9 35,35 108,43 154,43 84,0 252,-33 252,-147 0,-91 -101,-122 -171,-134l32 -95c243,-15 492,-164 535,-424 0,-1 0,-2 0,-3 0,-24 -37,-34 -55,-35 -21,-1 -63,6 -67,32 -36,215 -238,359 -447,361 -347,3 -508,-306 -511,-624 -2,-321 165,-636 514,-641 211,-3 413,140 441,361 4,26 46,33 66,32 19,-1 57,-10 57,-35 0,0 0,-1 0,-2z"/>
 </g>
</svg>
