<?xml version="1.0" encoding="UTF-8"?>
<!DOCTYPE svg PUBLIC "-//W3C//DTD SVG 1.1//EN" "http://www.w3.org/Graphics/SVG/1.1/DTD/svg11.dtd">
<!-- Creator: CorelDRAW X8 -->
<svg xmlns="http://www.w3.org/2000/svg" xml:space="preserve" width="528px" height="523px" version="1.1" style="shape-rendering:geometricPrecision; text-rendering:geometricPrecision; image-rendering:optimizeQuality; fill-rule:evenodd; clip-rule:evenodd"
viewBox="0 0 528 523"
 xmlns:xlink="http://www.w3.org/1999/xlink">
 <defs>
  <style type="text/css">
   <![CDATA[
    .fil0 {fill:#CC9933;fill-rule:nonzero}
   ]]>
  </style>
 </defs>
 <g id="Layer_x0020_1">
  <metadata id="CorelCorpID_0Corel-Layer"/>
  <path class="fil0" d="M74 509l190 -408 190 408c5,11 26,14 37,14 3,0 6,0 9,-1 8,-1 28,-6 28,-17 0,-2 0,-3 -1,-4l-227 -486c-5,-11 -26,-15 -36,-15 -11,0 -31,3 -37,14l-226 487c-1,1 -1,2 -1,4 0,11 20,16 28,17 3,1 6,1 10,1 10,0 31,-3 36,-14z"/>
 </g>
</svg>
