<?xml version="1.0" encoding="UTF-8"?>
<!DOCTYPE svg PUBLIC "-//W3C//DTD SVG 1.1//EN" "http://www.w3.org/Graphics/SVG/1.1/DTD/svg11.dtd">
<!-- Creator: CorelDRAW X8 -->
<svg xmlns="http://www.w3.org/2000/svg" xml:space="preserve" width="1202px" height="1405px" version="1.1" style="shape-rendering:geometricPrecision; text-rendering:geometricPrecision; image-rendering:optimizeQuality; fill-rule:evenodd; clip-rule:evenodd"
viewBox="0 0 1202 1405"
 xmlns:xlink="http://www.w3.org/1999/xlink">
 <defs>
  <style type="text/css">
   <![CDATA[
    .fil0 {fill:#2B2A29;fill-rule:nonzero}
   ]]>
  </style>
 </defs>
 <g id="Layer_x0020_1">
  <metadata id="CorelCorpID_0Corel-Layer"/>
  <path class="fil0" d="M1202 977c0,-23 -31,-34 -62,-34 -28,0 -57,10 -60,30 -36,215 -240,362 -453,362 -353,0 -504,-325 -504,-636 0,-316 168,-629 520,-629 208,0 405,142 434,361 3,21 32,32 60,32 31,0 63,-12 63,-34 0,-8 -2,-18 -4,-26 -46,-260 -307,-403 -553,-403 -412,0 -643,307 -643,699 0,389 210,706 627,706 252,0 516,-145 571,-404 2,-9 4,-15 4,-24z"/>
 </g>
</svg>
