<?xml version="1.0" encoding="UTF-8"?>
<!DOCTYPE svg PUBLIC "-//W3C//DTD SVG 1.1//EN" "http://www.w3.org/Graphics/SVG/1.1/DTD/svg11.dtd">
<!-- Creator: CorelDRAW X8 -->
<svg xmlns="http://www.w3.org/2000/svg" xml:space="preserve" width="411px" height="454px" version="1.1" style="shape-rendering:geometricPrecision; text-rendering:geometricPrecision; image-rendering:optimizeQuality; fill-rule:evenodd; clip-rule:evenodd"
viewBox="0 0 411 454"
 xmlns:xlink="http://www.w3.org/1999/xlink">
 <defs>
  <style type="text/css">
   <![CDATA[
    .fil0 {fill:#CC9933;fill-rule:nonzero}
   ]]>
  </style>
 </defs>
 <g id="Layer_x0020_1">
  <metadata id="CorelCorpID_0Corel-Layer"/>
  <path class="fil0" d="M203 22l-54 160c-1,1 -1,3 -1,5 0,7 6,11 11,13 9,5 22,7 32,7 56,2 135,25 135,95 0,81 -106,105 -167,105 -22,0 -62,-3 -79,-20 -9,-8 -26,-11 -38,-11 -7,0 -13,1 -20,2 -8,3 -22,9 -22,19 0,4 2,7 5,10 35,34 108,42 154,42 84,0 252,-33 252,-147 0,-90 -102,-122 -172,-133l48 -140c0,-1 0,-2 0,-3 0,-14 -25,-20 -35,-21 -2,0 -5,0 -7,0 -12,0 -37,4 -42,17z"/>
 </g>
</svg>
