<?xml version="1.0" encoding="UTF-8"?>
<!DOCTYPE svg PUBLIC "-//W3C//DTD SVG 1.1//EN" "http://www.w3.org/Graphics/SVG/1.1/DTD/svg11.dtd">
<!-- Creator: CorelDRAW X8 -->
<svg xmlns="http://www.w3.org/2000/svg" xml:space="preserve" width="195px" height="319px" version="1.1" style="shape-rendering:geometricPrecision; text-rendering:geometricPrecision; image-rendering:optimizeQuality; fill-rule:evenodd; clip-rule:evenodd"
viewBox="0 0 195 320"
 xmlns:xlink="http://www.w3.org/1999/xlink">
 <defs>
  <style type="text/css">
   <![CDATA[
    .fil0 {fill:#E31E24;fill-rule:nonzero}
   ]]>
  </style>
 </defs>
 <g id="Layer_x0020_1">
  <metadata id="CorelCorpID_0Corel-Layer"/>
  <path class="fil0" d="M85 312c34,-15 64,-50 80,-80 18,-34 30,-74 30,-113 0,-33 -9,-64 -31,-88 -20,-21 -45,-31 -73,-31 -49,0 -91,43 -91,93 0,44 38,93 91,93 6,0 13,-2 19,-3 -3,22 -10,43 -19,60 -13,24 -31,44 -60,56 -7,3 -9,6 -9,9 0,9 12,12 24,12 16,0 33,-6 39,-8z"/>
 </g>
</svg>
