<?xml version="1.0" encoding="UTF-8"?>
<!DOCTYPE svg PUBLIC "-//W3C//DTD SVG 1.1//EN" "http://www.w3.org/Graphics/SVG/1.1/DTD/svg11.dtd">
<!-- Creator: CorelDRAW X8 -->
<svg xmlns="http://www.w3.org/2000/svg" xml:space="preserve" width="1091px" height="1024px" version="1.1" style="shape-rendering:geometricPrecision; text-rendering:geometricPrecision; image-rendering:optimizeQuality; fill-rule:evenodd; clip-rule:evenodd"
viewBox="0 0 1091 1024"
 xmlns:xlink="http://www.w3.org/1999/xlink">
 <defs>
  <style type="text/css">
   <![CDATA[
    .fil0 {fill:#00A0E3;fill-rule:nonzero}
   ]]>
  </style>
 </defs>
 <g id="Layer_x0020_1">
  <metadata id="CorelCorpID_0Corel-Layer"/>
  <path class="fil0" d="M863 372c2,18 -26,24 -39,25 -23,1 -43,-9 -45,-22 -13,-106 -111,-178 -215,-176 -173,2 -255,161 -253,317 1,158 82,311 251,309 103,-1 201,-73 219,-177 2,-13 22,-22 45,-21 13,1 40,8 37,25 -23,141 -167,219 -300,220 -212,2 -334,-147 -336,-355 -1,-208 120,-362 335,-365 135,-2 282,75 301,220zm133 140c0,264 -184,458 -450,458 -267,0 -451,-194 -451,-458 0,-264 184,-459 451,-459 266,0 450,195 450,459zm95 0c0,-315 -241,-512 -545,-512 -305,0 -546,197 -546,512 0,315 241,512 546,512 304,0 545,-197 545,-512z"/>
 </g>
</svg>
