<?xml version="1.0" encoding="UTF-8"?>
<!DOCTYPE svg PUBLIC "-//W3C//DTD SVG 1.1//EN" "http://www.w3.org/Graphics/SVG/1.1/DTD/svg11.dtd">
<!-- Creator: CorelDRAW X8 -->
<svg xmlns="http://www.w3.org/2000/svg" xml:space="preserve" width="1091px" height="1024px" version="1.1" style="shape-rendering:geometricPrecision; text-rendering:geometricPrecision; image-rendering:optimizeQuality; fill-rule:evenodd; clip-rule:evenodd"
viewBox="0 0 1091 1024"
 xmlns:xlink="http://www.w3.org/1999/xlink">
 <defs>
  <style type="text/css">
   <![CDATA[
    .fil0 {fill:#2B2A29;fill-rule:nonzero}
   ]]>
  </style>
 </defs>
 <g id="Layer_x0020_1">
  <metadata id="CorelCorpID_0Corel-Layer"/>
  <path class="fil0" d="M546 1024c304,0 545,-197 545,-512 0,-315 -241,-512 -545,-512 -305,0 -546,197 -546,512 0,315 241,512 546,512zm0 -54c-267,0 -451,-194 -451,-458 0,-264 184,-459 451,-459 266,0 450,195 450,459 0,264 -184,458 -450,458zm315 -307c1,-6 2,-8 2,-14 0,-16 -28,-22 -40,-22 -22,0 -40,9 -42,21 -18,106 -118,177 -222,177 -175,0 -248,-158 -248,-311 0,-156 82,-315 256,-315 103,0 199,71 212,176 1,12 20,22 42,22 13,0 42,-6 42,-23 0,-5 -1,-11 -2,-16 -26,-134 -164,-206 -294,-206 -216,0 -340,154 -340,362 0,204 118,358 332,358 130,0 273,-73 302,-209z"/>
 </g>
</svg>
