<?xml version="1.0" encoding="UTF-8"?>
<!DOCTYPE svg PUBLIC "-//W3C//DTD SVG 1.1//EN" "http://www.w3.org/Graphics/SVG/1.1/DTD/svg11.dtd">
<!-- Creator: CorelDRAW X8 -->
<svg xmlns="http://www.w3.org/2000/svg" xml:space="preserve" width="823px" height="606px" version="1.1" style="shape-rendering:geometricPrecision; text-rendering:geometricPrecision; image-rendering:optimizeQuality; fill-rule:evenodd; clip-rule:evenodd"
viewBox="0 0 823 606"
 xmlns:xlink="http://www.w3.org/1999/xlink">
 <defs>
  <style type="text/css">
   <![CDATA[
    .fil0 {fill:#2B2A29;fill-rule:nonzero}
   ]]>
  </style>
 </defs>
 <g id="Layer_x0020_1">
  <metadata id="CorelCorpID_0Corel-Layer"/>
  <path class="fil0" d="M412 150c43,0 75,-38 75,-75 0,-37 -32,-75 -75,-75 -44,0 -76,38 -76,75 0,37 32,75 76,75zm350 189c19,0 61,-9 61,-36 0,-27 -42,-36 -61,-36l-700 0c-20,0 -62,9 -62,36 0,27 42,36 62,36l700 0zm-350 267c43,0 75,-38 75,-75 0,-37 -32,-75 -75,-75 -44,0 -76,38 -76,75 0,37 32,75 76,75z"/>
 </g>
</svg>
