<?xml version="1.0" encoding="UTF-8"?>
<!DOCTYPE svg PUBLIC "-//W3C//DTD SVG 1.1//EN" "http://www.w3.org/Graphics/SVG/1.1/DTD/svg11.dtd">
<!-- Creator: CorelDRAW X8 -->
<svg xmlns="http://www.w3.org/2000/svg" xml:space="preserve" width="902px" height="1700px" version="1.1" style="shape-rendering:geometricPrecision; text-rendering:geometricPrecision; image-rendering:optimizeQuality; fill-rule:evenodd; clip-rule:evenodd"
viewBox="0 0 902 1699"
 xmlns:xlink="http://www.w3.org/1999/xlink">
 <defs>
  <style type="text/css">
   <![CDATA[
    .fil0 {fill:#00A0E3;fill-rule:nonzero}
   ]]>
  </style>
 </defs>
 <g id="Layer_x0020_1">
  <metadata id="CorelCorpID_0Corel-Layer"/>
  <path class="fil0" d="M162 463c2,-82 37,-155 98,-209 50,-44 97,-60 161,-76l0 539c-69,-19 -134,-45 -189,-94 -46,-41 -72,-98 -70,-160zm319 265c0,-181 0,-372 0,-552 63,10 108,23 157,65 62,54 96,129 111,209 6,29 57,34 81,29 16,-3 45,-15 41,-37 -17,-93 -59,-177 -131,-239 -76,-66 -161,-89 -259,-96l0 -93c0,-11 -22,-14 -30,-14 -8,0 -30,3 -30,14l0 94c-99,12 -188,41 -264,109 -69,61 -111,142 -117,235 -7,107 40,205 118,275 75,66 167,93 263,114l0 595c-62,-13 -108,-27 -159,-68 -77,-62 -120,-154 -140,-251 -6,-29 -57,-34 -82,-28 -16,3 -44,15 -40,36 23,111 74,212 162,283 78,63 161,88 259,98l0 179c0,11 22,14 30,14 8,0 30,-3 30,-14l0 -178c122,-8 226,-44 312,-135 67,-71 110,-168 109,-266 -1,-103 -43,-194 -118,-262 -86,-76 -193,-100 -303,-116zm0 710l0 -588c81,14 165,40 229,97 46,41 70,100 70,163 -1,85 -37,168 -95,229 -61,64 -119,87 -204,99z"/>
 </g>
</svg>
