<?xml version="1.0" encoding="UTF-8"?>
<!DOCTYPE svg PUBLIC "-//W3C//DTD SVG 1.1//EN" "http://www.w3.org/Graphics/SVG/1.1/DTD/svg11.dtd">
<!-- Creator: CorelDRAW X8 -->
<svg xmlns="http://www.w3.org/2000/svg" xml:space="preserve" width="902px" height="1700px" version="1.1" style="shape-rendering:geometricPrecision; text-rendering:geometricPrecision; image-rendering:optimizeQuality; fill-rule:evenodd; clip-rule:evenodd"
viewBox="0 0 902 1700"
 xmlns:xlink="http://www.w3.org/1999/xlink">
 <defs>
  <style type="text/css">
   <![CDATA[
    .fil0 {fill:#CC9933;fill-rule:nonzero}
   ]]>
  </style>
 </defs>
 <g id="Layer_x0020_1">
  <metadata id="CorelCorpID_0Corel-Layer"/>
  <path class="fil0" d="M162 463c2,-82 37,-155 98,-209 50,-44 97,-60 161,-76l0 540c-69,-19 -135,-46 -189,-95 -46,-40 -72,-98 -70,-160zm319 265c0,-181 0,-371 0,-552 63,10 108,23 157,65 62,54 96,129 111,209 5,23 42,31 61,31 7,0 14,-1 20,-2 16,-3 42,-13 42,-33 0,-1 0,-2 -1,-3 -17,-93 -59,-178 -131,-240 -76,-66 -161,-89 -259,-96l0 -93c0,-11 -22,-14 -30,-14 -8,0 -30,3 -30,14l0 94c-99,12 -188,41 -264,109 -69,61 -112,142 -118,236 -6,106 41,204 119,274 75,66 167,93 263,114l0 596c-62,-13 -108,-27 -159,-68 -77,-63 -120,-154 -140,-251 -4,-24 -42,-31 -61,-31 -7,0 -14,1 -21,2 -15,3 -40,14 -40,33 0,1 0,2 0,4 23,110 73,212 162,283 78,63 161,88 259,98l0 179c0,11 22,14 30,14 8,0 30,-3 30,-14l0 -178c122,-8 226,-45 312,-136 67,-71 110,-167 109,-266 0,-103 -43,-194 -118,-262 -85,-76 -193,-100 -303,-116zm0 711l0 -589c81,15 165,40 229,97 46,42 70,101 70,163 -1,85 -37,168 -95,229 -60,64 -119,88 -204,100z"/>
 </g>
</svg>
