<?xml version="1.0" encoding="UTF-8"?>
<!DOCTYPE svg PUBLIC "-//W3C//DTD SVG 1.1//EN" "http://www.w3.org/Graphics/SVG/1.1/DTD/svg11.dtd">
<!-- Creator: CorelDRAW X8 -->
<svg xmlns="http://www.w3.org/2000/svg" xml:space="preserve" width="1024px" height="1024px" version="1.1" style="shape-rendering:geometricPrecision; text-rendering:geometricPrecision; image-rendering:optimizeQuality; fill-rule:evenodd; clip-rule:evenodd"
viewBox="0 0 1024 1024"
 xmlns:xlink="http://www.w3.org/1999/xlink">
 <defs>
  <style type="text/css">
   <![CDATA[
    .fil0 {fill:#2B2A29;fill-rule:nonzero}
   ]]>
  </style>
 </defs>
 <g id="Layer_x0020_1">
  <metadata id="CorelCorpID_0Corel-Layer"/>
  <path class="fil0" d="M613 62c18,0 36,-4 45,-15 3,-4 4,-7 4,-10 0,-12 -18,-21 -29,-23 -40,-9 -80,-14 -121,-14 -41,0 -81,5 -121,14 -11,2 -29,11 -29,23 0,3 1,6 4,10 9,11 27,15 45,15 7,0 15,0 21,-2 26,-6 53,-9 80,-9 27,0 54,3 80,9 6,2 14,2 21,2zm-500 235c17,2 38,-5 45,-18 17,-29 38,-55 61,-79 23,-24 47,-45 73,-63 7,-5 11,-10 11,-15 0,-8 -8,-16 -19,-20 -9,-4 -20,-6 -32,-6 -14,0 -28,3 -38,10 -30,21 -58,45 -84,71 -25,26 -47,56 -66,87 -2,3 -2,5 -2,8 0,13 23,22 34,23l17 2zm798 0l17 -2c12,-1 34,-10 34,-23 0,-3 0,-5 -2,-8 -19,-31 -41,-61 -66,-87 -26,-26 -54,-50 -84,-71 -10,-7 -24,-10 -38,-10 -12,0 -23,2 -32,6 -11,4 -19,12 -19,20 0,5 4,10 11,15 26,18 50,39 73,63 23,24 44,50 61,79 7,13 28,20 45,18zm-802 322c0,-2 0,-3 -1,-6 -7,-33 -9,-67 -9,-101 0,-35 2,-68 9,-102 0,-1 1,-4 1,-5 0,-17 -33,-24 -47,-24 -17,0 -47,6 -51,23 -7,35 -11,72 -11,108 0,36 4,73 11,108 4,17 34,23 51,23 14,0 47,-6 47,-24zm806 0c0,-2 0,-3 1,-6 7,-33 9,-67 9,-101 0,-35 -2,-68 -9,-102 0,-1 -1,-4 -1,-5 0,-17 33,-24 47,-24 17,0 47,6 51,23 7,35 11,72 11,108 0,36 -4,73 -11,108 -4,17 -34,23 -51,23 -14,0 -47,-6 -47,-24zm-143 309c14,0 28,-3 38,-10 30,-21 58,-45 84,-71 25,-26 47,-56 66,-87 2,-3 2,-5 2,-8 0,-13 -22,-22 -34,-23l-17 -2c-17,-2 -38,5 -45,18 -17,29 -38,55 -61,79 -23,24 -47,45 -73,63 -7,5 -11,10 -11,15 0,8 8,16 19,20 9,4 20,6 32,6zm-520 0c12,0 23,-2 32,-6 11,-4 19,-12 19,-20 0,-5 -4,-10 -11,-15 -26,-18 -50,-39 -73,-63 -23,-24 -44,-50 -61,-79 -7,-13 -28,-20 -45,-18l-17 2c-12,1 -34,10 -34,23 0,3 0,5 2,8 19,31 41,61 66,87 26,26 54,50 84,71 10,7 24,10 38,10zm260 96c41,0 81,-5 121,-14 11,-2 29,-11 29,-23 0,-3 -1,-6 -4,-10 -9,-11 -27,-15 -45,-15 -7,0 -15,0 -21,2 -26,6 -53,9 -80,9 -27,0 -54,-3 -80,-9 -6,-2 -14,-2 -21,-2 -18,0 -36,4 -45,15 -3,4 -4,7 -4,10 0,12 18,21 29,23 40,9 80,14 121,14z"/>
 </g>
</svg>
