<?xml version="1.0" encoding="UTF-8"?>
<!DOCTYPE svg PUBLIC "-//W3C//DTD SVG 1.1//EN" "http://www.w3.org/Graphics/SVG/1.1/DTD/svg11.dtd">
<!-- Creator: CorelDRAW X8 -->
<svg xmlns="http://www.w3.org/2000/svg" xml:space="preserve" width="1024px" height="1024px" version="1.1" style="shape-rendering:geometricPrecision; text-rendering:geometricPrecision; image-rendering:optimizeQuality; fill-rule:evenodd; clip-rule:evenodd"
viewBox="0 0 1024 1024"
 xmlns:xlink="http://www.w3.org/1999/xlink">
 <defs>
  <style type="text/css">
   <![CDATA[
    .fil0 {fill:#B2B09C;fill-rule:nonzero}
   ]]>
  </style>
 </defs>
 <g id="Layer_x0020_1">
  <metadata id="CorelCorpID_0Corel-Layer"/>
  <path class="fil0" d="M109 409c-7,34 -10,68 -10,103 0,35 3,69 10,103 5,20 -29,27 -43,28 -16,1 -51,-4 -55,-23 -7,-35 -11,-72 -11,-108 0,-36 4,-73 11,-108 4,-19 39,-24 55,-23 14,1 48,9 43,28zm323 -349c26,-6 53,-9 80,-9 27,0 54,3 80,9 20,5 53,3 66,-13 14,-17 -11,-30 -25,-33 -40,-9 -80,-14 -121,-14 -41,0 -81,5 -121,14 -14,3 -39,16 -25,33 13,16 46,18 66,13zm300 77c26,18 51,39 73,63 24,24 43,50 61,79 10,17 43,20 62,16 14,-2 43,-13 32,-31 -19,-31 -41,-61 -66,-87 -26,-26 -54,-50 -84,-71 -18,-12 -50,-12 -70,-4 -18,7 -27,23 -8,35zm183 272c7,34 10,68 10,103 0,35 -3,69 -10,103 -5,20 29,27 43,28 16,1 51,-4 55,-23 7,-35 11,-72 11,-108 0,-36 -4,-73 -11,-108 -4,-19 -39,-24 -55,-23 -14,1 -48,9 -43,28zm-49 336c-18,29 -37,55 -61,79 -22,24 -47,45 -73,63 -19,12 -10,28 8,35 20,8 52,8 70,-4 30,-21 58,-45 84,-71 25,-26 47,-56 66,-87 11,-18 -18,-29 -32,-31 -19,-4 -52,-1 -62,16zm-274 219c-26,6 -53,9 -80,9 -27,0 -54,-3 -80,-9 -20,-5 -53,-3 -66,13 -14,17 11,30 25,33 40,9 80,14 121,14 41,0 81,-5 121,-14 14,-3 39,-16 25,-33 -13,-16 -46,-18 -66,-13zm-300 -77c-26,-18 -51,-39 -73,-63 -24,-24 -43,-50 -61,-79 -10,-17 -43,-20 -62,-16 -14,2 -43,13 -32,31 19,31 41,61 66,87 26,26 54,50 84,71 18,12 50,12 70,4 18,-7 27,-23 8,-35zm-134 -608c18,-29 37,-55 61,-79 22,-24 47,-45 73,-63 19,-12 10,-28 -8,-35 -20,-8 -52,-8 -70,4 -30,21 -58,45 -84,71 -25,26 -47,56 -66,87 -11,18 19,29 32,31 19,4 52,1 62,-16z"/>
 </g>
</svg>
