<?xml version="1.0" encoding="UTF-8"?>
<!DOCTYPE svg PUBLIC "-//W3C//DTD SVG 1.1//EN" "http://www.w3.org/Graphics/SVG/1.1/DTD/svg11.dtd">
<!-- Creator: CorelDRAW X8 -->
<svg xmlns="http://www.w3.org/2000/svg" xml:space="preserve" width="1024px" height="1024px" version="1.1" style="shape-rendering:geometricPrecision; text-rendering:geometricPrecision; image-rendering:optimizeQuality; fill-rule:evenodd; clip-rule:evenodd"
viewBox="0 0 1024 1024"
 xmlns:xlink="http://www.w3.org/1999/xlink">
 <defs>
  <style type="text/css">
   <![CDATA[
    .fil0 {fill:#CC9933;fill-rule:nonzero}
   ]]>
  </style>
 </defs>
 <g id="Layer_x0020_1">
  <metadata id="CorelCorpID_0Corel-Layer"/>
  <path class="fil0" d="M432 60c26,-6 53,-9 80,-9 27,0 54,3 80,9 7,2 14,3 20,3 15,0 36,-4 46,-16 2,-3 4,-6 4,-10 0,-13 -18,-21 -29,-23 -40,-9 -80,-14 -121,-14 -41,0 -81,5 -121,14 -11,2 -29,10 -29,23 0,4 2,7 4,10 10,12 31,15 45,15 7,1 14,0 21,-2zm300 77c26,18 51,39 73,63 24,24 43,50 61,79 8,13 32,18 47,18 5,0 10,-1 15,-2 12,-2 34,-9 34,-24 0,-2 -1,-5 -2,-7 -19,-31 -41,-61 -66,-87 -26,-26 -54,-50 -84,-71 -11,-7 -26,-9 -39,-10 -10,0 -21,2 -31,6 -8,3 -19,10 -19,20 0,7 5,12 11,15zm182 270c0,1 0,1 1,2 7,34 10,68 10,103 0,35 -3,69 -10,103 -1,1 -1,1 -1,2 -1,18 29,25 44,26 16,1 51,-4 55,-23 7,-35 11,-72 11,-108 0,-36 -4,-73 -11,-108 -4,-19 -39,-24 -55,-23 -14,1 -45,8 -44,26zm-48 338c-18,29 -37,55 -61,79 -22,24 -47,45 -73,63 -6,3 -11,8 -11,15 0,10 11,17 19,20 9,4 21,6 31,6 13,0 28,-3 39,-10 30,-21 58,-45 84,-71 25,-26 47,-56 66,-87 3,-5 3,-10 -1,-15 -6,-10 -20,-15 -31,-16 -5,-1 -10,-2 -15,-2 -15,0 -39,5 -47,18zm-274 219c-26,6 -53,9 -80,9 -27,0 -54,-3 -80,-9 -7,-2 -13,-3 -20,-3 -15,0 -36,4 -46,16 -2,3 -4,6 -4,10 0,13 18,21 29,23 40,9 80,14 121,14 41,0 81,-5 121,-14 11,-2 29,-10 29,-23 0,-4 -2,-7 -4,-10 -10,-12 -32,-16 -46,-16 -7,1 -13,1 -20,3zm-300 -77c-26,-18 -51,-39 -73,-63 -24,-24 -43,-50 -61,-79 -8,-13 -32,-18 -47,-18 -5,0 -10,1 -15,2 -12,2 -34,9 -34,24 0,2 1,5 2,7 19,31 41,61 66,87 26,26 54,50 84,71 11,7 25,9 38,10 10,0 22,-2 32,-6 8,-3 19,-10 19,-20 0,-7 -5,-12 -11,-15zm-182 -270c0,-1 0,-1 -1,-2 -7,-34 -10,-68 -10,-103 0,-35 3,-69 10,-103 1,-1 1,-1 1,-2 0,-5 -3,-10 -8,-15 -6,-4 -14,-7 -23,-9 -5,-1 -9,-2 -13,-2 -14,-1 -27,1 -37,6 -9,4 -16,10 -18,17 -7,35 -11,72 -11,108 0,36 4,73 11,108 4,19 39,24 55,23 15,-1 45,-8 44,-26zm48 -338c18,-29 37,-55 61,-79 22,-24 47,-45 73,-63 6,-3 11,-8 11,-15 0,-10 -11,-17 -19,-20 -9,-4 -21,-6 -31,-6 -12,0 -28,3 -39,10 -30,21 -58,45 -84,71 -25,26 -47,56 -66,87 -1,2 -2,5 -2,7 0,15 22,22 34,24 5,1 10,2 15,2 15,0 39,-5 47,-18z"/>
 </g>
</svg>
