<?xml version="1.0" encoding="UTF-8"?>
<!DOCTYPE svg PUBLIC "-//W3C//DTD SVG 1.1//EN" "http://www.w3.org/Graphics/SVG/1.1/DTD/svg11.dtd">
<!-- Creator: CorelDRAW X8 -->
<svg xmlns="http://www.w3.org/2000/svg" xml:space="preserve" width="1007px" height="1024px" version="1.1" style="shape-rendering:geometricPrecision; text-rendering:geometricPrecision; image-rendering:optimizeQuality; fill-rule:evenodd; clip-rule:evenodd"
viewBox="0 0 1007 1024"
 xmlns:xlink="http://www.w3.org/1999/xlink">
 <defs>
  <style type="text/css">
   <![CDATA[
    .fil0 {fill:#00A0E3;fill-rule:nonzero}
   ]]>
  </style>
 </defs>
 <g id="Layer_x0020_1">
  <metadata id="CorelCorpID_0Corel-Layer"/>
  <path class="fil0" d="M865 705c-8,74 -62,136 -121,176 -72,49 -161,74 -248,73 -246,-2 -376,-218 -373,-451l823 0c20,0 61,-8 61,-35 4,-306 -219,-469 -502,-468 -298,1 -506,219 -505,523 1,297 206,499 494,501 120,1 245,-30 345,-98 72,-49 139,-125 149,-217 3,-28 -42,-37 -62,-37 -20,0 -58,8 -61,33zm19 -272l-754 0c37,-201 164,-362 376,-363 223,-1 361,139 378,363z"/>
 </g>
</svg>
