<?xml version="1.0" encoding="UTF-8"?>
<!DOCTYPE svg PUBLIC "-//W3C//DTD SVG 1.1//EN" "http://www.w3.org/Graphics/SVG/1.1/DTD/svg11.dtd">
<!-- Creator: CorelDRAW X8 -->
<svg xmlns="http://www.w3.org/2000/svg" xml:space="preserve" width="1029px" height="1358px" version="1.1" style="shape-rendering:geometricPrecision; text-rendering:geometricPrecision; image-rendering:optimizeQuality; fill-rule:evenodd; clip-rule:evenodd"
viewBox="0 0 1029 1358"
 xmlns:xlink="http://www.w3.org/1999/xlink">
 <defs>
  <style type="text/css">
   <![CDATA[
    .fil0 {fill:#2B2A29;fill-rule:nonzero}
   ]]>
  </style>
 </defs>
 <g id="Layer_x0020_1">
  <metadata id="CorelCorpID_0Corel-Layer"/>
  <path class="fil0" d="M967 1358c20,0 62,-9 62,-35 0,-27 -42,-35 -62,-35l-844 0 0 -575 717 0c19,0 61,-9 61,-35 0,-26 -42,-35 -61,-35l-717 0 0 -573 844 0c20,0 62,-9 62,-35 0,-26 -42,-35 -62,-35l-898 0c-20,0 -69,13 -69,39l0 1280c0,26 49,39 69,39l898 0z"/>
 </g>
</svg>
