<?xml version="1.0" encoding="UTF-8"?>
<!DOCTYPE svg PUBLIC "-//W3C//DTD SVG 1.1//EN" "http://www.w3.org/Graphics/SVG/1.1/DTD/svg11.dtd">
<!-- Creator: CorelDRAW X8 -->
<svg xmlns="http://www.w3.org/2000/svg" xml:space="preserve" width="676px" height="1405px" version="1.1" style="shape-rendering:geometricPrecision; text-rendering:geometricPrecision; image-rendering:optimizeQuality; fill-rule:evenodd; clip-rule:evenodd"
viewBox="0 0 676 1405"
 xmlns:xlink="http://www.w3.org/1999/xlink">
 <defs>
  <style type="text/css">
   <![CDATA[
    .fil0 {fill:#2B2A29;fill-rule:nonzero}
   ]]>
  </style>
 </defs>
 <g id="Layer_x0020_1">
  <metadata id="CorelCorpID_0Corel-Layer"/>
  <path class="fil0" d="M272 1405c19,0 61,-9 61,-35l0 -920 211 0c20,0 61,-9 61,-35 0,-26 -41,-35 -61,-35l-211 0 0 -118c0,-117 52,-191 173,-192 38,0 74,11 107,11 20,0 63,-8 63,-35 0,-22 -38,-32 -56,-35 -37,-7 -75,-11 -114,-11 -168,1 -296,77 -296,262l0 118 -149 0c-19,0 -61,9 -61,35 0,26 42,35 61,35l149 0 0 920c0,26 42,35 62,35z"/>
 </g>
</svg>
