<?xml version="1.0" encoding="UTF-8"?>
<!DOCTYPE svg PUBLIC "-//W3C//DTD SVG 1.1//EN" "http://www.w3.org/Graphics/SVG/1.1/DTD/svg11.dtd">
<!-- Creator: CorelDRAW X8 -->
<svg xmlns="http://www.w3.org/2000/svg" xml:space="preserve" width="676px" height="1405px" version="1.1" style="shape-rendering:geometricPrecision; text-rendering:geometricPrecision; image-rendering:optimizeQuality; fill-rule:evenodd; clip-rule:evenodd"
viewBox="0 0 676 1405"
 xmlns:xlink="http://www.w3.org/1999/xlink">
 <defs>
  <style type="text/css">
   <![CDATA[
    .fil0 {fill:#CC9933;fill-rule:nonzero}
   ]]>
  </style>
 </defs>
 <g id="Layer_x0020_1">
  <metadata id="CorelCorpID_0Corel-Layer"/>
  <path class="fil0" d="M61 450l149 0 0 920c0,26 42,35 62,35 19,0 61,-9 61,-35l0 -920 211 0c20,0 62,-9 62,-35 0,-26 -42,-35 -62,-35l-211 0 0 -117c0,-118 52,-192 173,-193 29,0 59,4 87,9 7,2 14,2 20,2 19,0 48,-5 59,-23 2,-4 4,-8 4,-13 0,-21 -40,-31 -56,-34 -37,-7 -75,-11 -114,-11 -168,1 -296,77 -296,263l0 117 -149 0c-19,0 -61,9 -61,35 0,26 42,35 61,35z"/>
 </g>
</svg>
