<?xml version="1.0" encoding="UTF-8"?>
<!DOCTYPE svg PUBLIC "-//W3C//DTD SVG 1.1//EN" "http://www.w3.org/Graphics/SVG/1.1/DTD/svg11.dtd">
<!-- Creator: CorelDRAW X8 -->
<svg xmlns="http://www.w3.org/2000/svg" xml:space="preserve" width="944px" height="1405px" version="1.1" style="shape-rendering:geometricPrecision; text-rendering:geometricPrecision; image-rendering:optimizeQuality; fill-rule:evenodd; clip-rule:evenodd"
viewBox="0 0 944 1405"
 xmlns:xlink="http://www.w3.org/1999/xlink">
 <defs>
  <style type="text/css">
   <![CDATA[
    .fil0 {fill:#B2B09C;fill-rule:nonzero}
   ]]>
  </style>
 </defs>
 <g id="Layer_x0020_1">
  <metadata id="CorelCorpID_0Corel-Layer"/>
  <path class="fil0" d="M472 70c233,0 349,231 349,442 0,212 -116,443 -349,443 -233,0 -349,-231 -349,-443 0,-211 116,-442 349,-442zm-467 1160c92,137 316,180 467,175 263,-9 472,-135 472,-423l0 -947c0,-26 -42,-35 -62,-35 -19,0 -61,9 -61,35l0 137c-64,-98 -184,-172 -349,-172 -292,0 -472,225 -472,512 0,288 180,513 472,513 163,0 282,-71 348,-172l0 129c0,226 -137,346 -355,353 -112,4 -277,-29 -345,-130 -14,-22 -55,-25 -79,-20 -19,4 -52,21 -36,45z"/>
 </g>
</svg>
