<?xml version="1.0" encoding="UTF-8"?>
<!DOCTYPE svg PUBLIC "-//W3C//DTD SVG 1.1//EN" "http://www.w3.org/Graphics/SVG/1.1/DTD/svg11.dtd">
<!-- Creator: CorelDRAW X8 -->
<svg xmlns="http://www.w3.org/2000/svg" xml:space="preserve" width="1286px" height="1405px" version="1.1" style="shape-rendering:geometricPrecision; text-rendering:geometricPrecision; image-rendering:optimizeQuality; fill-rule:evenodd; clip-rule:evenodd"
viewBox="0 0 1286 1405"
 xmlns:xlink="http://www.w3.org/1999/xlink">
 <defs>
  <style type="text/css">
   <![CDATA[
    .fil0 {fill:#CC9933;fill-rule:nonzero}
   ]]>
  </style>
 </defs>
 <g id="Layer_x0020_1">
  <metadata id="CorelCorpID_0Corel-Layer"/>
  <path class="fil0" d="M1284 426c-39,-289 -347,-429 -606,-426 -416,5 -682,290 -678,710 3,420 263,698 680,695 143,-1 293,-44 410,-129 81,-58 196,-196 196,-301l0 -232c0,-26 -41,-35 -61,-35l-547 0c-20,0 -62,9 -62,35 0,26 42,35 62,35l486 0 0 196c0,112 -86,198 -170,259 -91,65 -205,101 -316,102 -360,3 -553,-281 -556,-625 -2,-344 201,-636 558,-640 216,-3 450,128 481,361 4,24 42,32 62,32 20,0 61,-9 61,-34 0,-1 0,-2 0,-3z"/>
 </g>
</svg>
