<?xml version="1.0" encoding="UTF-8"?>
<!DOCTYPE svg PUBLIC "-//W3C//DTD SVG 1.1//EN" "http://www.w3.org/Graphics/SVG/1.1/DTD/svg11.dtd">
<!-- Creator: CorelDRAW X8 -->
<svg xmlns="http://www.w3.org/2000/svg" xml:space="preserve" width="1286px" height="1405px" version="1.1" style="shape-rendering:geometricPrecision; text-rendering:geometricPrecision; image-rendering:optimizeQuality; fill-rule:evenodd; clip-rule:evenodd"
viewBox="0 0 1286 1405"
 xmlns:xlink="http://www.w3.org/1999/xlink">
 <defs>
  <style type="text/css">
   <![CDATA[
    .fil0 {fill:#2B2A29;fill-rule:nonzero}
   ]]>
  </style>
 </defs>
 <g id="Layer_x0020_1">
  <metadata id="CorelCorpID_0Corel-Layer"/>
  <path class="fil0" d="M1090 1276c81,-58 196,-196 196,-301l0 -232c0,-26 -41,-35 -61,-35l-547 0c-20,0 -62,8 -62,35 0,26 42,35 62,35l486 0 0 196c0,112 -86,198 -170,259 -92,67 -207,102 -321,102 -366,0 -550,-294 -550,-632 0,-339 202,-633 563,-633 214,0 444,131 475,361 3,24 42,32 62,32 18,0 61,-9 61,-35 0,-11 -4,-29 -7,-40 -58,-260 -345,-388 -591,-388 -421,0 -686,288 -686,703 0,413 250,702 673,702 144,0 299,-44 417,-129z"/>
 </g>
</svg>
