<?xml version="1.0" encoding="UTF-8"?>
<!DOCTYPE svg PUBLIC "-//W3C//DTD SVG 1.1//EN" "http://www.w3.org/Graphics/SVG/1.1/DTD/svg11.dtd">
<!-- Creator: CorelDRAW X8 -->
<svg xmlns="http://www.w3.org/2000/svg" xml:space="preserve" width="880px" height="1405px" version="1.1" style="shape-rendering:geometricPrecision; text-rendering:geometricPrecision; image-rendering:optimizeQuality; fill-rule:evenodd; clip-rule:evenodd"
viewBox="0 0 880 1406"
 xmlns:xlink="http://www.w3.org/1999/xlink">
 <defs>
  <style type="text/css">
   <![CDATA[
    .fil0 {fill:#CC9933;fill-rule:nonzero}
   ]]>
  </style>
 </defs>
 <g id="Layer_x0020_1">
  <metadata id="CorelCorpID_0Corel-Layer"/>
  <path class="fil0" d="M123 527l0 -492c0,-26 -42,-35 -61,-35 -20,0 -62,9 -62,35l0 1336c0,26 42,35 62,35 19,0 61,-9 61,-35l0 -543c0,-190 119,-382 317,-382 207,0 317,187 317,381l0 544c0,26 42,35 61,35 20,0 62,-9 62,-35l0 -544c0,-265 -181,-451 -440,-451 -143,0 -259,66 -317,151z"/>
 </g>
</svg>
