<?xml version="1.0" encoding="UTF-8"?>
<!DOCTYPE svg PUBLIC "-//W3C//DTD SVG 1.1//EN" "http://www.w3.org/Graphics/SVG/1.1/DTD/svg11.dtd">
<!-- Creator: CorelDRAW X8 -->
<svg xmlns="http://www.w3.org/2000/svg" xml:space="preserve" width="880px" height="1405px" version="1.1" style="shape-rendering:geometricPrecision; text-rendering:geometricPrecision; image-rendering:optimizeQuality; fill-rule:evenodd; clip-rule:evenodd"
viewBox="0 0 880 1405"
 xmlns:xlink="http://www.w3.org/1999/xlink">
 <defs>
  <style type="text/css">
   <![CDATA[
    .fil0 {fill:#CC9933;fill-rule:nonzero}
   ]]>
  </style>
 </defs>
 <g id="Layer_x0020_1">
  <metadata id="CorelCorpID_0Corel-Layer"/>
  <path class="fil0" d="M123 522l0 -477c0,-25 -42,-34 -61,-34 -20,0 -62,9 -62,34l0 1315c0,25 42,34 62,34 19,0 61,-9 61,-34l0 -549c0,-186 119,-361 317,-361 207,0 317,184 317,374l0 536c0,25 42,34 61,34 20,0 62,-9 62,-34l0 -536c0,-260 -181,-443 -440,-443 -143,0 -251,58 -317,141z"/>
 </g>
</svg>
