<?xml version="1.0" encoding="UTF-8"?>
<!DOCTYPE svg PUBLIC "-//W3C//DTD SVG 1.1//EN" "http://www.w3.org/Graphics/SVG/1.1/DTD/svg11.dtd">
<!-- Creator: CorelDRAW X8 -->
<svg xmlns="http://www.w3.org/2000/svg" xml:space="preserve" width="1109px" height="1405px" version="1.1" style="shape-rendering:geometricPrecision; text-rendering:geometricPrecision; image-rendering:optimizeQuality; fill-rule:evenodd; clip-rule:evenodd"
viewBox="0 0 1109 1405"
 xmlns:xlink="http://www.w3.org/1999/xlink">
 <defs>
  <style type="text/css">
   <![CDATA[
    .fil0 {fill:#2B2A29;fill-rule:nonzero}
   ]]>
  </style>
 </defs>
 <g id="Layer_x0020_1">
  <metadata id="CorelCorpID_0Corel-Layer"/>
  <path class="fil0" d="M676 1378l73 -390 230 0c20,0 62,-9 62,-35 0,-27 -42,-35 -62,-35l-217 0 78 -420 208 0c19,0 61,-9 61,-35 0,-26 -42,-35 -61,-35l-195 0 73 -392c1,-3 1,-5 1,-8 0,-21 -34,-28 -50,-28 -18,0 -48,6 -52,26l-75 402 -303 0 73 -392c1,-3 1,-5 1,-8 0,-21 -33,-28 -49,-28 -19,0 -49,6 -53,26l-75 402 -214 0c-20,0 -62,9 -62,35 0,26 42,35 62,35l201 0 -78 420 -192 0c-19,0 -61,8 -61,35 0,26 42,35 61,35l179 0 -71 379c-1,3 -1,6 -1,9 0,22 36,29 53,29 18,0 45,-7 49,-27l73 -390 302 0 -70 379c-1,4 -1,6 -1,9 -1,19 30,29 45,29 19,0 53,-4 57,-27zm-18 -460l-302 0 78 -420 303 0 -79 420z"/>
 </g>
</svg>
