<?xml version="1.0" encoding="UTF-8"?>
<!DOCTYPE svg PUBLIC "-//W3C//DTD SVG 1.1//EN" "http://www.w3.org/Graphics/SVG/1.1/DTD/svg11.dtd">
<!-- Creator: CorelDRAW X8 -->
<svg xmlns="http://www.w3.org/2000/svg" xml:space="preserve" width="1109px" height="1405px" version="1.1" style="shape-rendering:geometricPrecision; text-rendering:geometricPrecision; image-rendering:optimizeQuality; fill-rule:evenodd; clip-rule:evenodd"
viewBox="0 0 1109 1405"
 xmlns:xlink="http://www.w3.org/1999/xlink">
 <defs>
  <style type="text/css">
   <![CDATA[
    .fil0 {fill:#B2B09C;fill-rule:nonzero}
   ]]>
  </style>
 </defs>
 <g id="Layer_x0020_1">
  <metadata id="CorelCorpID_0Corel-Layer"/>
  <path class="fil0" d="M130 498l201 0c-26,140 -52,280 -78,420l-192 0c-19,0 -61,8 -61,35 0,26 42,35 61,35l179 0 -72 384c-4,22 29,31 46,32 17,2 52,-4 56,-26l73 -390 302 0 -71 384c-5,22 29,32 45,32 18,2 53,-4 57,-26l73 -390 230 0c20,0 62,-9 62,-35 0,-27 -42,-35 -62,-35l-217 0 78 -420 208 0c19,0 61,-9 61,-35 0,-26 -42,-35 -61,-35l-195 0 74 -396c4,-22 -30,-31 -46,-32 -17,-1 -52,5 -56,26l-75 402 -303 0 74 -396c4,-22 -30,-31 -45,-32 -18,-1 -53,5 -57,26l-75 402 -214 0c-20,0 -62,9 -62,35 0,26 42,35 62,35zm226 420l78 -420 303 0c-26,140 -53,280 -79,420l-302 0z"/>
 </g>
</svg>
