<?xml version="1.0" encoding="UTF-8"?>
<!DOCTYPE svg PUBLIC "-//W3C//DTD SVG 1.1//EN" "http://www.w3.org/Graphics/SVG/1.1/DTD/svg11.dtd">
<!-- Creator: CorelDRAW 2020 (64-Bit) -->
<svg xmlns="http://www.w3.org/2000/svg" xml:space="preserve" width="856px" height="1405px" version="1.1" style="shape-rendering:geometricPrecision; text-rendering:geometricPrecision; image-rendering:optimizeQuality; fill-rule:evenodd; clip-rule:evenodd"
viewBox="0 0 856 1405"
 xmlns:xlink="http://www.w3.org/1999/xlink"
 xmlns:xodm="http://www.corel.com/coreldraw/odm/2003">
 <defs>
  <style type="text/css">
   <![CDATA[
    .fil0 {fill:#E31E24;fill-rule:nonzero}
   ]]>
  </style>
 </defs>
 <g id="Layer_x0020_1">
  <metadata id="CorelCorpID_0Corel-Layer"/>
  <path class="fil0" d="M431.888 259.05c-19.995,0 -60.373,10 -59.984,34.88l1.11 71.094c0.843,53.981 -4.587,105.164 -33.991,155.963 -32.582,56.291 -89.99,110.105 -153.071,169.071 -103.777,97.008 -185.952,198.842 -185.952,351.028 0,233.944 209.057,363.914 419.002,363.914 131.966,0 265.097,-33.06 353.02,-141.078 56.928,-69.939 83.978,-161.962 83.978,-251.94 0,-25.994 -41.989,-33.992 -63.984,-33.992 -20.106,0 -58.823,8.636 -59.096,33.992 -0.858,79.976 -21.697,160.399 -71.981,221.947 -60.806,74.429 -149.961,101.087 -241.937,101.087 -161.958,0 -295.922,-123.971 -295.922,-293.93 0,-136.332 73.943,-226.135 167.956,-315.036 54.009,-51.074 123.981,-115.965 161.958,-179.069 34.892,-57.978 43.988,-125.081 43.988,-191.954 0,-21.106 -0.745,-42.01 -1.999,-61.986 -1.634,-26.018 -43.989,-33.991 -63.095,-33.991zm-1.026 -259.05c-52.883,0 -92.339,46.856 -92.339,92.615 0,45.485 39.456,92.341 92.339,92.341 53.156,0 92.613,-46.856 92.613,-92.341 0,-45.759 -39.457,-92.615 -92.613,-92.615z"/>
 </g>
</svg>
