<?xml version="1.0" encoding="UTF-8"?>
<!DOCTYPE svg PUBLIC "-//W3C//DTD SVG 1.1//EN" "http://www.w3.org/Graphics/SVG/1.1/DTD/svg11.dtd">
<!-- Creator: CorelDRAW 2020 (64-Bit) -->
<svg xmlns="http://www.w3.org/2000/svg" xml:space="preserve" width="226.483mm" height="371.74mm" version="1.1" style="shape-rendering:geometricPrecision; text-rendering:geometricPrecision; image-rendering:optimizeQuality; fill-rule:evenodd; clip-rule:evenodd"
viewBox="0 0 22648.34 37173.96"
 xmlns:xlink="http://www.w3.org/1999/xlink"
 xmlns:xodm="http://www.corel.com/coreldraw/odm/2003">
 <defs>
  <style type="text/css">
   <![CDATA[
    .fil0 {fill:#E31E24;fill-rule:nonzero}
   ]]>
  </style>
 </defs>
 <g id="Layer_x0020_1">
  <metadata id="CorelCorpID_0Corel-Layer"/>
  <path class="fil0" d="M11427.03 6854.03c-529.02,0 -1597.36,264.59 -1587.08,922.88l29.39 1881.03c22.3,1428.24 -121.37,2782.45 -899.35,4126.52 -862.07,1489.37 -2381,2913.19 -4050.01,4473.34 -2745.76,2566.66 -4919.98,5261.02 -4919.98,9287.61 0,6189.78 5531.3,9628.55 11086.1,9628.55 3491.59,0 7014.02,-874.71 9340.31,-3732.69 1506.22,-1850.47 2221.93,-4285.23 2221.93,-6665.91 0,-687.75 -1110.97,-899.37 -1692.9,-899.37 -531.98,0 -1556.38,228.51 -1563.58,899.37 -22.71,2116.03 -574.09,4243.89 -1904.5,5872.35 -1608.84,1969.26 -3967.72,2674.61 -6401.26,2674.61 -4285.13,0 -7829.62,-3280.07 -7829.62,-7776.91 0,-3607.11 1956.42,-5983.15 4443.84,-8335.34 1429.01,-1351.32 3280.33,-3068.24 4285.14,-4737.85 923.2,-1534.01 1163.86,-3309.45 1163.86,-5078.8 0,-558.43 -19.71,-1111.5 -52.9,-1640.03 -43.23,-688.41 -1163.87,-899.36 -1669.39,-899.36zm-27.14 -6854.03c-1399.19,0 -2443.12,1239.73 -2443.12,2450.43 0,1203.48 1043.93,2443.2 2443.12,2443.2 1406.43,0 2450.39,-1239.72 2450.39,-2443.2 0,-1210.7 -1043.96,-2450.43 -2450.39,-2450.43z"/>
 </g>
</svg>
