<?xml version="1.0" encoding="UTF-8"?>
<!DOCTYPE svg PUBLIC "-//W3C//DTD SVG 1.1//EN" "http://www.w3.org/Graphics/SVG/1.1/DTD/svg11.dtd">
<!-- Creator: CorelDRAW X8 -->
<svg xmlns="http://www.w3.org/2000/svg" xml:space="preserve" width="482px" height="1698px" version="1.1" style="shape-rendering:geometricPrecision; text-rendering:geometricPrecision; image-rendering:optimizeQuality; fill-rule:evenodd; clip-rule:evenodd"
viewBox="0 0 489 1724"
 xmlns:xlink="http://www.w3.org/1999/xlink">
 <defs>
  <style type="text/css">
   <![CDATA[
    .fil0 {fill:#B2B09C;fill-rule:nonzero}
   ]]>
  </style>
 </defs>
 <g id="Layer_x0020_1">
  <metadata id="CorelCorpID_0Corel-Layer"/>
  <path class="fil0" d="M348 333l0 1125c0,119 -52,194 -175,195 -30,0 -60,-3 -89,-9 -25,-5 -66,-1 -80,21 -8,14 -4,24 9,33 13,8 32,13 44,15 38,7 77,11 115,11 172,-1 301,-78 301,-266l0 -1125c0,-27 -42,-36 -62,-36 -20,0 -63,9 -63,36zm65 -333c-44,0 -76,39 -76,76 0,37 32,76 76,76 44,0 76,-39 76,-76 0,-37 -32,-76 -76,-76z"/>
 </g>
</svg>
