<?xml version="1.0" encoding="UTF-8"?>
<!DOCTYPE svg PUBLIC "-//W3C//DTD SVG 1.1//EN" "http://www.w3.org/Graphics/SVG/1.1/DTD/svg11.dtd">
<!-- Creator: CorelDRAW X8 -->
<svg xmlns="http://www.w3.org/2000/svg" xml:space="preserve" width="487px" height="1698px" version="1.1" style="shape-rendering:geometricPrecision; text-rendering:geometricPrecision; image-rendering:optimizeQuality; fill-rule:evenodd; clip-rule:evenodd"
viewBox="0 0 487 1699"
 xmlns:xlink="http://www.w3.org/1999/xlink">
 <defs>
  <style type="text/css">
   <![CDATA[
    .fil0 {fill:#2B2A29;fill-rule:nonzero}
   ]]>
  </style>
 </defs>
 <g id="Layer_x0020_1">
  <metadata id="CorelCorpID_0Corel-Layer"/>
  <g id="_2328315082784">
   <path class="fil0" d="M410 271c-19,0 -62,9 -62,35l0 1131c0,117 -57,191 -178,192 -38,0 -74,-11 -107,-11 -20,0 -63,8 -63,35 0,22 38,32 56,35 37,7 75,11 114,11 168,0 303,-77 303,-262l0 -1131c0,-26 -43,-35 -63,-35z"/>
   <path class="fil0" d="M411 152c44,0 76,-39 76,-76 0,-37 -32,-76 -76,-76 -44,0 -76,39 -76,76 0,37 32,76 76,76z"/>
  </g>
 </g>
</svg>
