<?xml version="1.0" encoding="UTF-8"?>
<!DOCTYPE svg PUBLIC "-//W3C//DTD SVG 1.1//EN" "http://www.w3.org/Graphics/SVG/1.1/DTD/svg11.dtd">
<!-- Creator: CorelDRAW X8 -->
<svg xmlns="http://www.w3.org/2000/svg" xml:space="preserve" width="482px" height="1698px" version="1.1" style="shape-rendering:geometricPrecision; text-rendering:geometricPrecision; image-rendering:optimizeQuality; fill-rule:evenodd; clip-rule:evenodd"
viewBox="0 0 482 1698"
 xmlns:xlink="http://www.w3.org/1999/xlink">
 <defs>
  <style type="text/css">
   <![CDATA[
    .fil0 {fill:#CC9933;fill-rule:nonzero}
   ]]>
  </style>
 </defs>
 <g id="Layer_x0020_1">
  <metadata id="CorelCorpID_0Corel-Layer"/>
  <path class="fil0" d="M347 328l0 1107c0,118 -52,192 -173,193 -30,0 -59,-4 -88,-9 -6,-2 -13,-2 -19,-2 -19,-1 -48,5 -59,23 -2,4 -4,8 -4,13 0,8 5,14 13,19 13,8 31,13 42,15 38,7 76,11 114,11 169,-1 297,-77 297,-263l0 -1107c0,-26 -42,-35 -62,-35 -19,0 -61,9 -61,35zm64 -328c-44,0 -75,38 -75,75 0,37 31,75 75,75 43,0 75,-38 75,-75 0,-37 -32,-75 -75,-75z"/>
 </g>
</svg>
