<?xml version="1.0" encoding="UTF-8"?>
<!DOCTYPE svg PUBLIC "-//W3C//DTD SVG 1.1//EN" "http://www.w3.org/Graphics/SVG/1.1/DTD/svg11.dtd">
<!-- Creator: CorelDRAW X8 -->
<svg xmlns="http://www.w3.org/2000/svg" xml:space="preserve" width="903px" height="1405px" version="1.1" style="shape-rendering:geometricPrecision; text-rendering:geometricPrecision; image-rendering:optimizeQuality; fill-rule:evenodd; clip-rule:evenodd"
viewBox="0 0 903 1405"
 xmlns:xlink="http://www.w3.org/1999/xlink">
 <defs>
  <style type="text/css">
   <![CDATA[
    .fil0 {fill:#2B2A29;fill-rule:nonzero}
   ]]>
  </style>
 </defs>
 <g id="Layer_x0020_1">
  <metadata id="CorelCorpID_0Corel-Layer"/>
  <path class="fil0" d="M823 1405c12,0 24,-1 34,-3 17,-4 46,-17 46,-36 0,-5 -2,-10 -7,-16l-496 -546 437 -387c5,-4 7,-8 7,-12 0,-9 -14,-17 -25,-20 -7,-2 -17,-3 -26,-3 -16,0 -33,3 -43,12l-627 552 0 -911c0,-26 -42,-35 -61,-35 -20,0 -62,9 -62,35l0 1335c0,27 42,35 62,35 19,0 61,-8 61,-35l0 -324 180 -157 447 493c15,17 45,23 73,23z"/>
 </g>
</svg>
