<?xml version="1.0" encoding="UTF-8"?>
<!DOCTYPE svg PUBLIC "-//W3C//DTD SVG 1.1//EN" "http://www.w3.org/Graphics/SVG/1.1/DTD/svg11.dtd">
<!-- Creator: CorelDRAW X8 -->
<svg xmlns="http://www.w3.org/2000/svg" xml:space="preserve" width="1062px" height="1404px" version="1.1" style="shape-rendering:geometricPrecision; text-rendering:geometricPrecision; image-rendering:optimizeQuality; fill-rule:evenodd; clip-rule:evenodd"
viewBox="0 0 1062 1404"
 xmlns:xlink="http://www.w3.org/1999/xlink">
 <defs>
  <style type="text/css">
   <![CDATA[
    .fil0 {fill:#B2B09C;fill-rule:nonzero}
   ]]>
  </style>
 </defs>
 <g id="Layer_x0020_1">
  <metadata id="CorelCorpID_0Corel-Layer"/>
  <path class="fil0" d="M0 30l0 1344c0,24 45,30 61,30 17,0 62,-6 62,-30l0 -457c89,-84 177,-168 266,-252l518 713c19,26 73,29 103,24 20,-4 68,-22 47,-50l-568 -782 565 -535c17,-15 -6,-28 -20,-32 -19,-5 -53,-4 -69,10l-842 798 0 -781c0,-24 -45,-30 -62,-30 -16,0 -61,6 -61,30z"/>
 </g>
</svg>
