<?xml version="1.0" encoding="UTF-8"?>
<!DOCTYPE svg PUBLIC "-//W3C//DTD SVG 1.1//EN" "http://www.w3.org/Graphics/SVG/1.1/DTD/svg11.dtd">
<!-- Creator: CorelDRAW X8 -->
<svg xmlns="http://www.w3.org/2000/svg" xml:space="preserve" width="1062px" height="1404px" version="1.1" style="shape-rendering:geometricPrecision; text-rendering:geometricPrecision; image-rendering:optimizeQuality; fill-rule:evenodd; clip-rule:evenodd"
viewBox="0 0 1062 1404"
 xmlns:xlink="http://www.w3.org/1999/xlink">
 <defs>
  <style type="text/css">
   <![CDATA[
    .fil0 {fill:#2B2A29;fill-rule:nonzero}
   ]]>
  </style>
 </defs>
 <g id="Layer_x0020_1">
  <metadata id="CorelCorpID_0Corel-Layer"/>
  <path class="fil0" d="M984 1404c9,0 18,-1 26,-2 17,-3 52,-16 52,-36 0,-5 -1,-9 -5,-14l-568 -782 565 -535c4,-4 6,-7 6,-11 0,-10 -16,-18 -26,-21 -7,-2 -15,-3 -24,-3 -16,0 -35,4 -45,13l-842 798 0 -781c0,-24 -45,-30 -62,-30 -16,0 -61,6 -61,30l0 1344c0,24 45,30 61,30 17,0 62,-6 62,-30l0 -457 266 -252 518 713c14,19 48,26 77,26z"/>
 </g>
</svg>
