<?xml version="1.0" encoding="UTF-8"?>
<!DOCTYPE svg PUBLIC "-//W3C//DTD SVG 1.1//EN" "http://www.w3.org/Graphics/SVG/1.1/DTD/svg11.dtd">
<!-- Creator: CorelDRAW X8 -->
<svg xmlns="http://www.w3.org/2000/svg" xml:space="preserve" width="1352px" height="1358px" version="1.1" style="shape-rendering:geometricPrecision; text-rendering:geometricPrecision; image-rendering:optimizeQuality; fill-rule:evenodd; clip-rule:evenodd"
viewBox="0 0 1352 1358"
 xmlns:xlink="http://www.w3.org/1999/xlink">
 <defs>
  <style type="text/css">
   <![CDATA[
    .fil0 {fill:#2B2A29;fill-rule:nonzero}
   ]]>
  </style>
 </defs>
 <g id="Layer_x0020_1">
  <metadata id="CorelCorpID_0Corel-Layer"/>
  <path class="fil0" d="M753 1358c384,0 599,-307 599,-675 0,-365 -214,-683 -599,-683l-466 0c-20,0 -62,9 -62,35l0 609 -163 0c-20,0 -62,9 -62,35 0,27 42,36 62,36l163 0 0 608c0,27 42,35 62,35l466 0zm0 -70l-405 0 0 -573 164 0c20,0 62,-9 62,-36 0,-26 -42,-35 -62,-35l-164 0 0 -574 405 0c322,0 476,326 476,613 0,290 -154,605 -476,605z"/>
 </g>
</svg>
