<?xml version="1.0" encoding="UTF-8"?>
<!DOCTYPE svg PUBLIC "-//W3C//DTD SVG 1.1//EN" "http://www.w3.org/Graphics/SVG/1.1/DTD/svg11.dtd">
<!-- Creator: CorelDRAW X8 -->
<svg xmlns="http://www.w3.org/2000/svg" xml:space="preserve" width="1010px" height="1405px" version="1.1" style="shape-rendering:geometricPrecision; text-rendering:geometricPrecision; image-rendering:optimizeQuality; fill-rule:evenodd; clip-rule:evenodd"
viewBox="0 0 1010 1405"
 xmlns:xlink="http://www.w3.org/1999/xlink">
 <defs>
  <style type="text/css">
   <![CDATA[
    .fil0 {fill:#00A0E3;fill-rule:nonzero}
   ]]>
  </style>
 </defs>
 <g id="Layer_x0020_1">
  <metadata id="CorelCorpID_0Corel-Layer"/>
  <path class="fil0" d="M505 451c242,0 382,211 382,442 0,232 -140,442 -382,442 -242,0 -382,-210 -382,-442 0,-231 140,-442 382,-442zm-50 -396c31,25 62,51 91,79l-179 96c-25,13 -26,35 -2,49 23,13 62,14 86,1l156 -83c70,78 131,165 178,260 -78,-49 -174,-76 -280,-76 -296,0 -505,208 -505,512 0,304 209,512 505,512 296,0 505,-208 505,-512 0,-174 -39,-328 -121,-482 -50,-95 -115,-184 -190,-264l164 -87c25,-13 26,-35 3,-49 -24,-14 -63,-14 -87,-1l-142 75c-26,-24 -54,-48 -82,-70 -19,-16 -58,-19 -85,-8 -28,11 -35,32 -15,48z"/>
 </g>
</svg>
