<?xml version="1.0" encoding="UTF-8"?>
<!DOCTYPE svg PUBLIC "-//W3C//DTD SVG 1.1//EN" "http://www.w3.org/Graphics/SVG/1.1/DTD/svg11.dtd">
<!-- Creator: CorelDRAW X8 -->
<svg xmlns="http://www.w3.org/2000/svg" xml:space="preserve" width="999px" height="1405px" version="1.1" style="shape-rendering:geometricPrecision; text-rendering:geometricPrecision; image-rendering:optimizeQuality; fill-rule:evenodd; clip-rule:evenodd"
viewBox="0 0 999 1405"
 xmlns:xlink="http://www.w3.org/1999/xlink">
 <defs>
  <style type="text/css">
   <![CDATA[
    .fil0 {fill:#2B2A29;fill-rule:nonzero}
   ]]>
  </style>
 </defs>
 <g id="Layer_x0020_1">
  <metadata id="CorelCorpID_0Corel-Layer"/>
  <path class="fil0" d="M62 1405c-34,0 -62,-16 -62,-35l0 -977c0,-259 162,-393 408,-393 166,0 354,81 354,271 0,162 -154,264 -154,383 0,170 391,241 391,494 0,173 -187,256 -337,256 -82,0 -162,-20 -221,-60 -50,-33 -113,-116 -113,-173 0,-25 39,-36 58,-36 34,0 61,14 64,32 11,60 42,103 84,131 36,24 81,36 127,36 107,0 214,-71 214,-186 0,-230 -392,-287 -392,-491 0,-138 154,-236 155,-387 0,-133 -107,-199 -230,-199 -195,0 -284,134 -284,322l0 977c0,19 -28,35 -62,35z"/>
 </g>
</svg>
