<?xml version="1.0" encoding="UTF-8"?>
<!DOCTYPE svg PUBLIC "-//W3C//DTD SVG 1.1//EN" "http://www.w3.org/Graphics/SVG/1.1/DTD/svg11.dtd">
<!-- Creator: CorelDRAW X8 -->
<svg xmlns="http://www.w3.org/2000/svg" xml:space="preserve" width="702px" height="654px" version="1.1" style="shape-rendering:geometricPrecision; text-rendering:geometricPrecision; image-rendering:optimizeQuality; fill-rule:evenodd; clip-rule:evenodd"
viewBox="0 0 702 654"
 xmlns:xlink="http://www.w3.org/1999/xlink">
 <defs>
  <style type="text/css">
   <![CDATA[
    .fil0 {fill:#CC9933;fill-rule:nonzero}
   ]]>
  </style>
 </defs>
 <g id="Layer_x0020_1">
  <metadata id="CorelCorpID_0Corel-Layer"/>
  <path class="fil0" d="M697 621l-303 -294 303 -294c3,-3 5,-7 5,-11 0,-10 -10,-16 -18,-19 -6,-2 -13,-3 -19,-3 -11,0 -24,3 -32,11l-314 304c-3,3 -5,8 -5,12 0,5 2,8 5,11l314 305c8,8 21,11 32,11 6,0 13,-1 19,-3 8,-3 18,-9 18,-19 0,-4 -2,-8 -5,-11zm-314 0l-302 -294 302 -294c3,-3 5,-7 5,-11 0,-10 -10,-16 -18,-19 -6,-2 -13,-3 -19,-3 -11,0 -24,3 -32,11l-313 304c-4,3 -6,8 -6,12 0,5 2,8 5,11l314 305c8,8 21,11 32,11 6,0 13,-1 19,-3 8,-3 18,-9 18,-19 0,-4 -2,-8 -5,-11z"/>
 </g>
</svg>
