<?xml version="1.0" encoding="UTF-8"?>
<!DOCTYPE svg PUBLIC "-//W3C//DTD SVG 1.1//EN" "http://www.w3.org/Graphics/SVG/1.1/DTD/svg11.dtd">
<!-- Creator: CorelDRAW X8 -->
<svg xmlns="http://www.w3.org/2000/svg" xml:space="preserve" width="1485px" height="1024px" version="1.1" style="shape-rendering:geometricPrecision; text-rendering:geometricPrecision; image-rendering:optimizeQuality; fill-rule:evenodd; clip-rule:evenodd"
viewBox="0 0 1485 1024"
 xmlns:xlink="http://www.w3.org/1999/xlink">
 <defs>
  <style type="text/css">
   <![CDATA[
    .fil0 {fill:#CC9933;fill-rule:nonzero}
   ]]>
  </style>
 </defs>
 <g id="Layer_x0020_1">
  <metadata id="CorelCorpID_0Corel-Layer"/>
  <path class="fil0" d="M123 133l0 -98c0,-26 -42,-35 -61,-35 -20,0 -62,9 -62,35l0 954c0,26 42,35 62,35 19,0 61,-9 61,-35l0 -545c0,-83 15,-175 58,-247 49,-84 125,-124 220,-124 209,0 281,187 281,372l0 544c0,26 42,35 61,35 20,0 62,-9 62,-35l0 -545c0,-181 69,-371 277,-371 208,0 280,187 280,372l0 544c0,26 42,35 61,35 20,0 62,-9 62,-35l0 -544c0,-248 -150,-445 -402,-445 -156,0 -254,65 -340,191 -87,-127 -185,-191 -340,-191 -129,0 -228,57 -280,133z"/>
 </g>
</svg>
