<?xml version="1.0" encoding="UTF-8"?>
<!DOCTYPE svg PUBLIC "-//W3C//DTD SVG 1.1//EN" "http://www.w3.org/Graphics/SVG/1.1/DTD/svg11.dtd">
<!-- Creator: CorelDRAW 2020 (64-Bit) -->
<svg xmlns="http://www.w3.org/2000/svg" xml:space="preserve" width="805px" height="1405px" version="1.1" style="shape-rendering:geometricPrecision; text-rendering:geometricPrecision; image-rendering:optimizeQuality; fill-rule:evenodd; clip-rule:evenodd"
viewBox="0 0 805 1404.418"
 xmlns:xlink="http://www.w3.org/1999/xlink"
 xmlns:xodm="http://www.corel.com/coreldraw/odm/2003">
 <defs>
  <style type="text/css">
   <![CDATA[
    .fil0 {fill:#2B2A29;fill-rule:nonzero}
   ]]>
  </style>
 </defs>
 <g id="Layer_x0020_1">
  <metadata id="CorelCorpID_0Corel-Layer"/>
  <path class="fil0" d="M402.5 1023.741c-117.562,0 -230.314,-70.704 -279.44,-176.981l0 522.784c0,25.989 -41.982,34.874 -61.086,34.874 -19.991,0 -61.974,-8.893 -61.974,-34.874l0 -1334.447c0,-26.204 41.983,-35.097 61.974,-35.097 19.104,0 61.086,8.885 61.086,35.097l0 509.788c0,181.119 77.182,405.946 279.44,405.946 202.258,0 279.44,-224.827 279.44,-405.946l0 -509.788c0,-26.212 41.983,-35.097 61.086,-35.097 19.992,0 61.974,8.885 61.974,35.097l0 953.827c0,25.989 -41.982,34.874 -61.974,34.874 -19.103,0 -61.086,-8.885 -61.086,-34.874l0 -142.164c-49.125,106.277 -161.878,176.981 -279.44,176.981z"/>
 </g>
</svg>
