<?xml version="1.0" encoding="UTF-8"?>
<!DOCTYPE svg PUBLIC "-//W3C//DTD SVG 1.1//EN" "http://www.w3.org/Graphics/SVG/1.1/DTD/svg11.dtd">
<!-- Creator: CorelDRAW 2020 (64-Bit) -->
<svg xmlns="http://www.w3.org/2000/svg" xml:space="preserve" width="655px" height="1054px" version="1.1" style="shape-rendering:geometricPrecision; text-rendering:geometricPrecision; image-rendering:optimizeQuality; fill-rule:evenodd; clip-rule:evenodd"
viewBox="0 0 655 1054"
 xmlns:xlink="http://www.w3.org/1999/xlink"
 xmlns:xodm="http://www.corel.com/coreldraw/odm/2003">
 <defs>
  <style type="text/css">
   <![CDATA[
    .fil0 {fill:#E31E24;fill-rule:nonzero}
   ]]>
  </style>
 </defs>
 <g id="Layer_x0020_1">
  <metadata id="CorelCorpID_0Corel-Layer"/>
  <path class="fil0" d="M123.061 673.881c49.025,66.559 121.36,105.836 212.878,106.197 82.765,0.325 149.628,-33.168 195.999,-92.042l0 56.241c0,19.014 27.548,34.427 61.531,34.427 33.982,0 61.531,-15.413 61.531,-34.427l0 -709.849c0,-19.014 -27.549,-34.428 -61.531,-34.428 -33.983,0 -61.531,15.414 -61.531,34.428l0 426.629c-0.367,109.24 -70.932,233.542 -195.362,233.129 -135.365,-0.401 -213.515,-139.511 -213.515,-259.606l0 -400.152c0,-19.014 -27.548,-34.428 -61.53,-34.428 -33.983,0 -61.531,15.414 -61.531,34.428l0 985.144c0,19.014 27.548,34.427 61.531,34.427 33.982,0 61.53,-15.413 61.53,-34.427l0 -345.691z"/>
 </g>
</svg>
