<?xml version="1.0" encoding="UTF-8"?>
<!DOCTYPE svg PUBLIC "-//W3C//DTD SVG 1.1//EN" "http://www.w3.org/Graphics/SVG/1.1/DTD/svg11.dtd">
<!-- Creator: CorelDRAW X8 -->
<svg xmlns="http://www.w3.org/2000/svg" xml:space="preserve" width="1956px" height="1004px" version="1.1" style="shape-rendering:geometricPrecision; text-rendering:geometricPrecision; image-rendering:optimizeQuality; fill-rule:evenodd; clip-rule:evenodd"
viewBox="0 0 1956 1004"
 xmlns:xlink="http://www.w3.org/1999/xlink">
 <defs>
  <style type="text/css">
   <![CDATA[
    .fil0 {fill:#CC9933;fill-rule:nonzero}
   ]]>
  </style>
 </defs>
 <g id="Layer_x0020_1">
  <metadata id="CorelCorpID_0Corel-Layer"/>
  <path class="fil0" d="M1149 0c-144,0 -262,39 -366,139 -93,-103 -183,-137 -321,-137 -175,0 -336,89 -412,250 -37,80 -51,171 -50,259 3,197 86,401 276,484 13,6 28,9 43,9 16,0 33,-4 47,-14 6,-5 12,-12 12,-21 0,-13 -13,-22 -24,-27 -162,-69 -228,-268 -231,-431 -1,-73 9,-149 36,-218 50,-126 163,-223 303,-223 173,0 253,128 253,288l0 611c0,26 42,34 61,34 20,0 62,-8 62,-34l0 -588c0,-190 120,-313 311,-312 142,0 269,66 352,182 33,47 52,93 69,147l-160 0c-201,0 -382,69 -382,303 0,186 156,304 333,303 252,-1 355,-232 354,-442 0,-32 -3,-63 -7,-95l186 0c20,0 62,-8 62,-34 0,-26 -42,-35 -62,-35l-200 0c-18,-63 -41,-118 -80,-172 -107,-152 -282,-226 -465,-226zm261 467l175 0c4,33 7,64 7,97 0,136 -63,371 -233,371 -125,0 -208,-117 -208,-234 0,-173 96,-234 259,-234z"/>
 </g>
</svg>
