<?xml version="1.0" encoding="UTF-8"?>
<!DOCTYPE svg PUBLIC "-//W3C//DTD SVG 1.1//EN" "http://www.w3.org/Graphics/SVG/1.1/DTD/svg11.dtd">
<!-- Creator: CorelDRAW X8 -->
<svg xmlns="http://www.w3.org/2000/svg" xml:space="preserve" width="2058px" height="1486px" version="1.1" style="shape-rendering:geometricPrecision; text-rendering:geometricPrecision; image-rendering:optimizeQuality; fill-rule:evenodd; clip-rule:evenodd"
viewBox="0 0 2058 1486"
 xmlns:xlink="http://www.w3.org/1999/xlink">
 <defs>
  <style type="text/css">
   <![CDATA[
    .fil0 {fill:#CC9933;fill-rule:nonzero}
   ]]>
  </style>
 </defs>
 <g id="Layer_x0020_1">
  <metadata id="CorelCorpID_0Corel-Layer"/>
  <path class="fil0" d="M1981 254c-75,-163 -236,-254 -411,-254 -150,0 -243,47 -313,142 -109,-114 -247,-143 -402,-142 -188,1 -357,90 -443,264 -42,86 -60,182 -60,277 0,145 42,315 156,411 60,50 128,72 204,71 75,0 150,-25 208,-74 67,-57 99,-147 102,-235 2,-81 -21,-160 -76,-221 -59,-64 -147,-96 -232,-93 -104,4 -213,68 -241,171 -8,-84 10,-193 51,-278 65,-134 182,-222 330,-223 197,-1 341,109 341,301l0 618c0,26 41,35 61,35 20,0 61,-9 61,-35l0 -629c0,-165 82,-290 253,-290 139,0 259,97 309,226 41,105 59,220 56,333 -3,156 -43,310 -124,444 -150,248 -473,349 -750,343 -236,-4 -527,-83 -696,-255 -166,-169 -242,-395 -241,-631 0,-183 60,-364 212,-473 9,-7 13,-14 13,-21 0,-11 -10,-22 -24,-28 -11,-5 -25,-8 -39,-8 -17,1 -35,5 -47,14 -167,120 -238,313 -239,516 -1,282 104,538 320,719 190,158 494,232 737,237 293,6 650,-87 832,-333 112,-153 165,-334 169,-524 2,-129 -22,-257 -77,-375zm-1463 460c1,-120 64,-238 195,-238 131,0 194,118 194,239 -1,119 -65,238 -194,238 -132,0 -195,-117 -195,-239z"/>
 </g>
</svg>
