<?xml version="1.0" encoding="UTF-8"?>
<!DOCTYPE svg PUBLIC "-//W3C//DTD SVG 1.1//EN" "http://www.w3.org/Graphics/SVG/1.1/DTD/svg11.dtd">
<!-- Creator: CorelDRAW X8 -->
<svg xmlns="http://www.w3.org/2000/svg" xml:space="preserve" width="2058px" height="1486px" version="1.1" style="shape-rendering:geometricPrecision; text-rendering:geometricPrecision; image-rendering:optimizeQuality; fill-rule:evenodd; clip-rule:evenodd"
viewBox="0 0 2058 1486"
 xmlns:xlink="http://www.w3.org/1999/xlink">
 <defs>
  <style type="text/css">
   <![CDATA[
    .fil0 {fill:#2B2A29;fill-rule:nonzero}
   ]]>
  </style>
 </defs>
 <g id="Layer_x0020_1">
  <metadata id="CorelCorpID_0Corel-Layer"/>
  <path class="fil0" d="M1084 1486c287,0 629,-94 805,-333 115,-155 169,-350 169,-542 0,-124 -24,-244 -77,-357 -75,-163 -236,-254 -411,-254 -150,0 -243,47 -313,142 -110,-114 -250,-142 -402,-142 -190,0 -356,88 -443,265 -42,85 -60,187 -60,281 0,156 48,316 156,406 59,49 124,72 199,72 76,0 155,-24 213,-74 70,-59 102,-156 102,-245 0,-78 -23,-153 -76,-211 -57,-61 -140,-94 -221,-94 -111,0 -219,60 -252,171 -3,-100 7,-188 52,-280 61,-127 174,-221 332,-221 185,0 337,104 337,301l0 618c0,26 42,34 62,34 20,0 61,-8 61,-34l0 -629c0,-165 82,-290 253,-290 139,0 259,97 309,226 39,100 56,208 56,315 0,162 -39,323 -124,462 -146,241 -455,343 -727,343 -242,0 -545,-78 -719,-255 -166,-168 -241,-393 -241,-627 0,-184 57,-366 212,-477 9,-7 13,-14 13,-21 0,-11 -9,-22 -24,-28 -10,-5 -24,-7 -38,-7 -17,0 -36,4 -48,13 -169,122 -239,317 -239,520 0,280 105,535 321,715 196,163 512,237 763,237zm-371 -533c-132,0 -195,-116 -195,-238 0,-121 64,-239 195,-239 130,0 193,117 193,236 0,119 -59,241 -193,241z"/>
 </g>
</svg>
