<?xml version="1.0" encoding="UTF-8"?>
<!DOCTYPE svg PUBLIC "-//W3C//DTD SVG 1.1//EN" "http://www.w3.org/Graphics/SVG/1.1/DTD/svg11.dtd">
<!-- Creator: CorelDRAW X8 -->
<svg xmlns="http://www.w3.org/2000/svg" xml:space="preserve" width="2058px" height="1486px" version="1.1" style="shape-rendering:geometricPrecision; text-rendering:geometricPrecision; image-rendering:optimizeQuality; fill-rule:evenodd; clip-rule:evenodd"
viewBox="0 0 2058 1486"
 xmlns:xlink="http://www.w3.org/1999/xlink">
 <defs>
  <style type="text/css">
   <![CDATA[
    .fil0 {fill:#00A0E3;fill-rule:nonzero}
   ]]>
  </style>
 </defs>
 <g id="Layer_x0020_1">
  <metadata id="CorelCorpID_0Corel-Layer"/>
  <path class="fil0" d="M1981 254c-75,-163 -236,-254 -411,-254 -150,0 -243,47 -313,142 -110,-114 -245,-140 -396,-142 -192,-2 -362,86 -449,265 -37,74 -57,167 -60,262 -4,162 44,331 156,425 60,50 127,73 204,72 74,-1 151,-26 208,-74 67,-57 99,-148 102,-235 2,-82 -21,-161 -76,-221 -59,-64 -147,-97 -232,-94 -105,4 -209,63 -241,171 -6,-97 12,-196 52,-280 62,-128 175,-222 335,-221 180,2 334,101 334,301l0 618c0,26 42,34 62,34 20,0 61,-8 61,-34l0 -629c0,-165 82,-290 253,-290 139,0 259,97 309,226 41,105 58,220 56,333 -3,156 -43,310 -124,444 -150,248 -473,349 -750,343 -236,-5 -527,-84 -696,-255 -166,-169 -242,-395 -241,-631 0,-183 60,-364 212,-473 23,-17 13,-39 -11,-49 -24,-11 -64,-10 -86,6 -167,120 -238,313 -239,516 -1,282 104,538 321,719 189,158 493,232 736,237 293,6 650,-87 832,-333 112,-153 165,-334 169,-524 2,-129 -22,-257 -77,-375zm-1463 461c0,-121 64,-239 195,-239 131,0 194,119 193,239 0,119 -64,239 -193,238 -132,0 -195,-116 -195,-238z"/>
 </g>
</svg>
