<?xml version="1.0" encoding="UTF-8"?>
<!DOCTYPE svg PUBLIC "-//W3C//DTD SVG 1.1//EN" "http://www.w3.org/Graphics/SVG/1.1/DTD/svg11.dtd">
<!-- Creator: CorelDRAW X8 -->
<svg xmlns="http://www.w3.org/2000/svg" xml:space="preserve" width="2181px" height="1412px" version="1.1" style="shape-rendering:geometricPrecision; text-rendering:geometricPrecision; image-rendering:optimizeQuality; fill-rule:evenodd; clip-rule:evenodd"
viewBox="0 0 2181 1412"
 xmlns:xlink="http://www.w3.org/1999/xlink">
 <defs>
  <style type="text/css">
   <![CDATA[
    .fil0 {fill:#00A0E3;fill-rule:nonzero}
   ]]>
  </style>
 </defs>
 <g id="Layer_x0020_1">
  <metadata id="CorelCorpID_0Corel-Layer"/>
  <path class="fil0" d="M2058 829c1,-126 -26,-253 -78,-367 -111,-242 -317,-392 -582,-392 -98,0 -196,26 -276,83 -23,16 -62,17 -87,5 -23,-10 -33,-32 -9,-49 107,-75 242,-109 372,-109 310,0 568,155 700,444 54,117 83,256 83,385 0,307 -176,583 -499,583 -121,0 -245,-43 -316,-142 -67,92 -178,141 -289,142 -116,1 -230,-46 -299,-142 -71,99 -196,142 -317,142 -156,0 -309,-76 -389,-212 -50,-86 -71,-193 -72,-292 -2,-206 82,-427 279,-513 25,-11 64,-10 86,7 23,17 11,39 -12,49 -165,72 -230,278 -230,456 1,90 18,187 62,265 56,99 162,170 276,170 171,0 253,-124 253,-285l0 -633c0,-20 28,-36 62,-36 34,0 61,16 61,36l0 633c0,187 117,282 233,282 154,0 236,-136 236,-282l0 -634c0,-19 28,-35 62,-35 33,0 61,16 61,35l0 634c0,161 82,285 253,285 263,0 375,-282 376,-513z"/>
 </g>
</svg>
