<?xml version="1.0" encoding="UTF-8"?>
<!DOCTYPE svg PUBLIC "-//W3C//DTD SVG 1.1//EN" "http://www.w3.org/Graphics/SVG/1.1/DTD/svg11.dtd">
<!-- Creator: CorelDRAW X8 -->
<svg xmlns="http://www.w3.org/2000/svg" xml:space="preserve" width="1734px" height="1024px" version="1.1" style="shape-rendering:geometricPrecision; text-rendering:geometricPrecision; image-rendering:optimizeQuality; fill-rule:evenodd; clip-rule:evenodd"
viewBox="0 0 1734 1024"
 xmlns:xlink="http://www.w3.org/1999/xlink">
 <defs>
  <style type="text/css">
   <![CDATA[
    .fil0 {fill:#2B2A29;fill-rule:nonzero}
   ]]>
  </style>
 </defs>
 <g id="Layer_x0020_1">
  <metadata id="CorelCorpID_0Corel-Layer"/>
  <path class="fil0" d="M797 1024c247,0 349,-215 356,-439 47,4 95,7 144,7 95,0 192,-12 278,-51 91,-42 159,-113 159,-219 0,-140 -117,-213 -246,-213 -125,0 -245,74 -245,211 0,97 48,147 127,194 -41,3 -78,6 -116,6 -33,0 -67,-2 -104,-8 -11,-103 -37,-197 -97,-282 -108,-156 -284,-230 -467,-230 -189,0 -369,65 -483,223 -72,100 -103,219 -103,341 0,174 75,332 213,436 20,15 42,24 64,24 13,0 25,-3 38,-9 13,-6 22,-17 22,-27 0,-8 -4,-15 -14,-22 -132,-91 -200,-241 -200,-402 0,-105 24,-208 82,-297 87,-134 223,-197 380,-197 143,0 272,67 354,186 48,69 68,137 84,217 -82,-29 -162,-58 -249,-58 -167,0 -309,106 -309,282 0,192 142,327 332,327zm691 -549c-81,0 -129,-70 -129,-148 0,-77 49,-148 129,-148 82,0 130,72 130,148 0,77 -49,148 -130,148zm-691 479c-129,0 -208,-130 -208,-251 0,-114 62,-215 184,-216 85,0 179,39 257,72 0,139 -52,395 -233,395z"/>
 </g>
</svg>
