<?xml version="1.0" encoding="UTF-8"?>
<!DOCTYPE svg PUBLIC "-//W3C//DTD SVG 1.1//EN" "http://www.w3.org/Graphics/SVG/1.1/DTD/svg11.dtd">
<!-- Creator: CorelDRAW X8 -->
<svg xmlns="http://www.w3.org/2000/svg" xml:space="preserve" width="1839px" height="1024px" version="1.1" style="shape-rendering:geometricPrecision; text-rendering:geometricPrecision; image-rendering:optimizeQuality; fill-rule:evenodd; clip-rule:evenodd"
viewBox="0 0 1839 1024"
 xmlns:xlink="http://www.w3.org/1999/xlink">
 <defs>
  <style type="text/css">
   <![CDATA[
    .fil0 {fill:#00A0E3;fill-rule:nonzero}
   ]]>
  </style>
 </defs>
 <g id="Layer_x0020_1">
  <metadata id="CorelCorpID_0Corel-Layer"/>
  <path class="fil0" d="M838 989l0 -601c0,-187 110,-318 300,-318 174,-1 269,115 271,287 1,70 -11,139 -37,204 -67,166 -220,312 -387,374 -15,6 -27,17 -27,30 1,28 47,35 68,35l751 0c20,0 62,-9 62,-36l0 -538c0,-117 -41,-221 -126,-300 -122,-112 -297,-125 -454,-126 -72,0 -146,3 -217,15 -95,18 -185,53 -258,125 -93,-105 -183,-140 -322,-140 -175,0 -336,91 -411,256 -38,81 -52,175 -51,264 3,201 86,410 276,495 27,12 65,14 90,-5 23,-17 11,-39 -12,-49 -161,-70 -228,-274 -231,-441 -1,-75 9,-152 36,-222 50,-130 164,-228 303,-228 173,0 253,130 253,294l0 625c0,26 42,35 62,35 19,0 61,-9 61,-35zm522 -922c81,7 171,24 249,97 74,68 107,161 107,262l0 503 -520 0c127,-88 241,-206 301,-371 22,-63 35,-134 34,-201 -3,-135 -59,-247 -171,-290z"/>
 </g>
</svg>
