<?xml version="1.0" encoding="UTF-8"?>
<!DOCTYPE svg PUBLIC "-//W3C//DTD SVG 1.1//EN" "http://www.w3.org/Graphics/SVG/1.1/DTD/svg11.dtd">
<!-- Creator: CorelDRAW X8 -->
<svg xmlns="http://www.w3.org/2000/svg" xml:space="preserve" width="2195px" height="1024px" version="1.1" style="shape-rendering:geometricPrecision; text-rendering:geometricPrecision; image-rendering:optimizeQuality; fill-rule:evenodd; clip-rule:evenodd"
viewBox="0 0 2195 1024"
 xmlns:xlink="http://www.w3.org/1999/xlink">
 <defs>
  <style type="text/css">
   <![CDATA[
    .fil0 {fill:#2B2A29;fill-rule:nonzero}
   ]]>
  </style>
 </defs>
 <g id="Layer_x0020_1">
  <metadata id="CorelCorpID_0Corel-Layer"/>
  <path class="fil0" d="M201 1018c17,0 33,-3 46,-13 9,-6 13,-14 13,-22 0,-11 -9,-21 -23,-28 -79,-37 -114,-124 -114,-208 0,-125 84,-224 209,-224 126,0 207,100 207,224 0,78 -28,157 -97,198 -8,5 -17,14 -17,25 0,26 42,36 62,36l1646 0c21,0 62,-9 62,-35l0 -539c0,-116 -40,-221 -126,-300 -98,-90 -231,-126 -361,-126 -129,0 -263,37 -361,127 -85,78 -125,183 -125,299l0 503 -622 0c43,-61 62,-112 62,-188 0,-188 -159,-294 -330,-294 -171,0 -332,105 -332,293 0,113 55,214 156,262 13,6 29,10 45,10zm1871 -82l-519 0c190,-133 335,-334 334,-571 -1,-152 -71,-254 -170,-292 87,9 171,25 248,96 68,63 107,155 107,263l0 504zm-727 0l0 -504c0,-100 32,-194 106,-262 38,-35 85,-56 136,-56 130,1 179,135 179,250 0,268 -185,470 -421,572z"/>
 </g>
</svg>
