<?xml version="1.0" encoding="UTF-8"?>
<!DOCTYPE svg PUBLIC "-//W3C//DTD SVG 1.1//EN" "http://www.w3.org/Graphics/SVG/1.1/DTD/svg11.dtd">
<!-- Creator: CorelDRAW X8 -->
<svg xmlns="http://www.w3.org/2000/svg" xml:space="preserve" width="1734px" height="1024px" version="1.1" style="shape-rendering:geometricPrecision; text-rendering:geometricPrecision; image-rendering:optimizeQuality; fill-rule:evenodd; clip-rule:evenodd"
viewBox="0 0 1734 1024"
 xmlns:xlink="http://www.w3.org/1999/xlink">
 <defs>
  <style type="text/css">
   <![CDATA[
    .fil0 {fill:#00A0E3;fill-rule:nonzero}
   ]]>
  </style>
 </defs>
 <g id="Layer_x0020_1">
  <metadata id="CorelCorpID_0Corel-Layer"/>
  <path class="fil0" d="M575 0c-185,3 -360,68 -472,223 -70,97 -102,214 -103,334 -2,177 73,338 213,443 31,23 66,33 102,15 23,-11 31,-33 8,-49 -133,-92 -201,-243 -200,-406 0,-103 26,-207 82,-293 86,-133 219,-194 371,-197 146,-3 278,64 363,186 47,69 68,137 84,217 -85,-30 -167,-60 -258,-58 -166,5 -305,112 -300,291 6,192 149,318 332,318 247,0 349,-215 356,-439 140,13 292,15 422,-44 92,-42 160,-114 159,-221 -1,-140 -121,-212 -246,-211 -127,0 -249,76 -245,218 3,95 51,142 127,187 -78,6 -142,10 -220,-2 -11,-103 -38,-196 -97,-282 -111,-158 -291,-233 -478,-230zm913 179c82,0 130,72 130,148 0,77 -49,148 -130,148 -81,0 -129,-70 -129,-148 0,-77 49,-148 129,-148zm-458 380c3,142 -57,395 -233,395 -129,0 -208,-130 -208,-251 0,-114 62,-215 184,-216 85,0 179,39 257,72z"/>
 </g>
</svg>
