<?xml version="1.0" encoding="UTF-8"?>
<!DOCTYPE svg PUBLIC "-//W3C//DTD SVG 1.1//EN" "http://www.w3.org/Graphics/SVG/1.1/DTD/svg11.dtd">
<!-- Creator: CorelDRAW X8 -->
<svg xmlns="http://www.w3.org/2000/svg" xml:space="preserve" width="1677px" height="1412px" version="1.1" style="shape-rendering:geometricPrecision; text-rendering:geometricPrecision; image-rendering:optimizeQuality; fill-rule:evenodd; clip-rule:evenodd"
viewBox="0 0 1677 1412"
 xmlns:xlink="http://www.w3.org/1999/xlink">
 <defs>
  <style type="text/css">
   <![CDATA[
    .fil0 {fill:#B2B09C;fill-rule:nonzero}
   ]]>
  </style>
 </defs>
 <g id="Layer_x0020_1">
  <metadata id="CorelCorpID_0Corel-Layer"/>
  <path class="fil0" d="M1323 63c162,70 228,274 231,440 1,75 -9,153 -36,223 -50,129 -163,227 -303,227 -171,0 -253,-116 -253,-282l0 -636c0,-26 -42,-35 -61,-35 -20,0 -62,9 -62,35l0 636c0,166 -82,282 -252,282 -140,0 -254,-98 -303,-227 -27,-70 -37,-148 -36,-223 2,-166 69,-370 231,-440 23,-10 34,-32 11,-49 -24,-19 -63,-17 -90,-5 -189,85 -272,294 -275,494 -1,90 13,183 50,265 67,145 199,233 349,252 1,12 2,24 2,36 0,138 -84,287 -236,287 -72,0 -129,-18 -171,-80 -15,-21 -55,-25 -80,-19 -19,4 -51,21 -35,44 66,95 176,124 286,124 209,0 359,-147 359,-356 0,-11 -1,-23 -2,-35 102,-9 179,-46 254,-130 89,101 182,133 314,133 175,0 336,-91 411,-256 38,-82 52,-175 51,-265 -3,-200 -86,-409 -276,-494 -27,-12 -65,-14 -90,5 -23,17 -11,39 12,49z"/>
 </g>
</svg>
