<?xml version="1.0" encoding="UTF-8"?>
<!DOCTYPE svg PUBLIC "-//W3C//DTD SVG 1.1//EN" "http://www.w3.org/Graphics/SVG/1.1/DTD/svg11.dtd">
<!-- Creator: CorelDRAW X8 -->
<svg xmlns="http://www.w3.org/2000/svg" xml:space="preserve" width="1421px" height="1405px" version="1.1" style="shape-rendering:geometricPrecision; text-rendering:geometricPrecision; image-rendering:optimizeQuality; fill-rule:evenodd; clip-rule:evenodd"
viewBox="0 0 1421 1405"
 xmlns:xlink="http://www.w3.org/1999/xlink">
 <defs>
  <style type="text/css">
   <![CDATA[
    .fil0 {fill:#CC9933;fill-rule:nonzero}
   ]]>
  </style>
 </defs>
 <g id="Layer_x0020_1">
  <metadata id="CorelCorpID_0Corel-Layer"/>
  <path class="fil0" d="M1047 434c-127,-40 -246,-60 -379,-60 -156,0 -332,31 -460,126 -137,102 -208,252 -208,424 0,145 42,314 156,409 60,50 127,72 204,71 74,0 150,-25 208,-73 67,-57 99,-147 102,-234 2,-81 -21,-160 -77,-220 -58,-63 -146,-96 -231,-93 -125,5 -216,92 -241,171 -10,-148 30,-283 138,-385 103,-98 271,-127 407,-128 118,0 229,18 339,60 -53,80 -111,163 -153,250 -44,91 -67,192 -66,293 0,72 5,133 41,207 49,101 135,153 246,153 125,0 223,-65 284,-175 48,-87 67,-194 64,-293 -3,-84 -22,-171 -61,-246 -49,-92 -120,-162 -206,-216 41,-73 87,-164 86,-250 -1,-153 -132,-226 -268,-225 -121,1 -239,56 -299,166 -2,3 -3,7 -3,11 1,20 28,30 44,33 7,1 15,2 23,1 17,-1 44,-7 53,-24 37,-68 103,-117 181,-117 95,0 146,69 147,160 0,66 -42,145 -71,204zm-881 663c0,-119 64,-237 195,-237 130,0 193,116 193,236 0,119 -63,239 -193,239 -132,-1 -195,-117 -195,-238zm939 -548c68,61 124,123 158,211 23,56 34,118 35,178 2,79 -10,163 -42,235 -33,76 -93,162 -183,162 -79,0 -123,-66 -145,-135 -16,-49 -20,-102 -20,-153 -1,-87 18,-173 53,-252 39,-86 91,-168 144,-246z"/>
 </g>
</svg>
