<?xml version="1.0" encoding="UTF-8"?>
<!DOCTYPE svg PUBLIC "-//W3C//DTD SVG 1.1//EN" "http://www.w3.org/Graphics/SVG/1.1/DTD/svg11.dtd">
<!-- Creator: CorelDRAW X8 -->
<svg xmlns="http://www.w3.org/2000/svg" xml:space="preserve" width="3907px" height="1024px" version="1.1" style="shape-rendering:geometricPrecision; text-rendering:geometricPrecision; image-rendering:optimizeQuality; fill-rule:evenodd; clip-rule:evenodd"
viewBox="0 0 3907 1024"
 xmlns:xlink="http://www.w3.org/1999/xlink">
 <defs>
  <style type="text/css">
   <![CDATA[
    .fil0 {fill:#B2B09C;fill-rule:nonzero}
   ]]>
  </style>
 </defs>
 <g id="Layer_x0020_1">
  <metadata id="CorelCorpID_0Corel-Layer"/>
  <path class="fil0" d="M3033 212c34,-88 123,-134 213,-132 159,5 229,127 231,277 1,70 -11,139 -37,204 -67,165 -220,311 -387,373 -14,6 -27,18 -27,30 1,28 47,35 68,35l751 0c20,0 62,-9 62,-35l0 -538c0,-117 -41,-221 -126,-300 -113,-104 -292,-126 -438,-126 -135,0 -320,27 -405,150 -65,-101 -181,-150 -299,-150 -119,0 -235,50 -301,155 -69,108 -54,243 -54,365 0,115 14,239 -54,339 -43,61 -105,95 -178,95 -74,0 -136,-33 -178,-95 -69,-99 -58,-240 -56,-356 3,-140 15,-281 -87,-392 -69,-76 -168,-111 -268,-111 -119,0 -235,50 -301,155 -69,108 -54,243 -54,365 0,115 14,239 -55,339 -42,61 -104,95 -177,95 -154,0 -234,-146 -234,-288l0 -630c0,-27 -42,-36 -61,-36 -20,0 -62,9 -62,36l0 630c0,140 -81,281 -232,282 -66,0 -128,-33 -169,-84 -18,-21 -57,-24 -82,-17 -21,5 -48,24 -30,46 69,85 176,125 282,125 125,-1 209,-43 291,-138 81,98 169,144 297,144 92,0 183,-30 252,-95 120,-114 103,-254 103,-405 0,-100 -12,-217 27,-309 38,-88 109,-144 205,-144 78,0 142,37 184,104 60,95 51,219 49,328 -2,148 -15,309 99,422 69,68 162,99 257,99 92,0 183,-30 252,-95 120,-114 103,-254 103,-405 0,-100 -12,-217 27,-309 38,-88 110,-144 205,-144 79,0 142,37 184,104 56,89 48,189 48,290l0 93c0,27 42,35 62,35 20,0 62,-8 61,-35l0 -95c0,-85 6,-169 39,-251zm395 -145c81,7 171,24 249,96 74,69 107,162 107,263l0 502 -520 0c127,-87 241,-206 301,-371 22,-62 35,-133 34,-200 -3,-135 -59,-247 -171,-290z"/>
 </g>
</svg>
