<?xml version="1.0" encoding="UTF-8"?>
<!DOCTYPE svg PUBLIC "-//W3C//DTD SVG 1.1//EN" "http://www.w3.org/Graphics/SVG/1.1/DTD/svg11.dtd">
<!-- Creator: CorelDRAW X8 -->
<svg xmlns="http://www.w3.org/2000/svg" xml:space="preserve" width="1421px" height="1405px" version="1.1" style="shape-rendering:geometricPrecision; text-rendering:geometricPrecision; image-rendering:optimizeQuality; fill-rule:evenodd; clip-rule:evenodd"
viewBox="0 0 1421 1405"
 xmlns:xlink="http://www.w3.org/1999/xlink">
 <defs>
  <style type="text/css">
   <![CDATA[
    .fil0 {fill:#00A0E3;fill-rule:nonzero}
   ]]>
  </style>
 </defs>
 <g id="Layer_x0020_1">
  <metadata id="CorelCorpID_0Corel-Layer"/>
  <path class="fil0" d="M1047 434c-127,-40 -246,-60 -379,-60 -156,0 -332,31 -460,126 -134,100 -204,247 -208,408 -4,162 44,331 156,425 60,51 127,73 204,72 74,-1 150,-26 208,-74 67,-57 99,-148 102,-235 2,-82 -21,-161 -77,-221 -58,-64 -146,-97 -231,-94 -106,4 -209,63 -242,171 -8,-144 31,-280 138,-382 104,-98 272,-127 408,-128 118,0 229,18 339,60 -53,80 -111,163 -153,250 -44,91 -67,192 -66,293 0,72 5,133 41,207 49,102 135,153 246,153 126,0 223,-64 284,-175 48,-87 67,-194 64,-293 -3,-84 -22,-171 -61,-246 -49,-92 -120,-162 -206,-216 41,-73 87,-164 86,-249 -1,-154 -132,-227 -268,-226 -121,1 -239,56 -299,166 -13,25 22,41 41,44 23,4 64,0 76,-23 37,-68 103,-117 181,-117 95,0 146,69 147,160 0,66 -42,145 -71,204zm-881 662c0,-120 64,-238 195,-239 131,0 193,119 193,239 0,119 -64,239 -193,239 -133,0 -195,-117 -195,-239zm939 -546c68,61 124,123 159,210 22,56 33,118 34,178 3,79 -10,163 -42,236 -33,75 -93,161 -183,161 -79,0 -123,-66 -145,-135 -16,-49 -20,-102 -20,-153 -1,-87 18,-173 53,-252 39,-86 91,-168 144,-245z"/>
 </g>
</svg>
