<?xml version="1.0" encoding="UTF-8"?>
<!DOCTYPE svg PUBLIC "-//W3C//DTD SVG 1.1//EN" "http://www.w3.org/Graphics/SVG/1.1/DTD/svg11.dtd">
<!-- Creator: CorelDRAW X8 -->
<svg xmlns="http://www.w3.org/2000/svg" xml:space="preserve" width="2181px" height="1412px" version="1.1" style="shape-rendering:geometricPrecision; text-rendering:geometricPrecision; image-rendering:optimizeQuality; fill-rule:evenodd; clip-rule:evenodd"
viewBox="0 0 2181 1412"
 xmlns:xlink="http://www.w3.org/1999/xlink">
 <defs>
  <style type="text/css">
   <![CDATA[
    .fil0 {fill:#2B2A29;fill-rule:nonzero}
   ]]>
  </style>
 </defs>
 <g id="Layer_x0020_1">
  <metadata id="CorelCorpID_0Corel-Layer"/>
  <path class="fil0" d="M1398 0c-130,0 -265,33 -372,109 -10,7 -14,14 -14,22 0,10 9,20 23,27 11,5 26,8 40,8 17,0 34,-4 47,-13 80,-58 178,-83 276,-83 265,0 472,150 582,391 52,113 78,237 78,361 0,227 -106,519 -376,519 -171,0 -253,-123 -253,-284l0 -634c0,-19 -27,-35 -61,-35 -34,0 -62,16 -62,35l0 634c0,146 -82,282 -236,282 -116,0 -233,-95 -233,-282l0 -634c0,-19 -27,-35 -61,-35 -34,0 -62,16 -62,35l0 634c0,161 -82,285 -253,285 -114,0 -220,-71 -276,-170 -44,-78 -62,-175 -62,-265 -1,-170 59,-382 230,-456 14,-6 24,-17 24,-29 0,-6 -3,-14 -12,-20 -13,-10 -31,-14 -49,-14 -13,0 -26,2 -37,7 -201,88 -280,307 -279,512 0,99 21,207 72,293 79,136 233,212 389,212 121,0 245,-43 317,-142 68,95 178,142 292,142 113,0 229,-49 296,-142 71,99 195,142 316,142 323,0 499,-284 499,-590 0,-130 -28,-261 -82,-378 -132,-290 -391,-444 -701,-444z"/>
 </g>
</svg>
