<?xml version="1.0" encoding="UTF-8"?>
<!DOCTYPE svg PUBLIC "-//W3C//DTD SVG 1.1//EN" "http://www.w3.org/Graphics/SVG/1.1/DTD/svg11.dtd">
<!-- Creator: CorelDRAW X8 -->
<svg xmlns="http://www.w3.org/2000/svg" xml:space="preserve" width="3907px" height="1024px" version="1.1" style="shape-rendering:geometricPrecision; text-rendering:geometricPrecision; image-rendering:optimizeQuality; fill-rule:evenodd; clip-rule:evenodd"
viewBox="0 0 3907 1024"
 xmlns:xlink="http://www.w3.org/1999/xlink">
 <defs>
  <style type="text/css">
   <![CDATA[
    .fil0 {fill:#2B2A29;fill-rule:nonzero}
   ]]>
  </style>
 </defs>
 <g id="Layer_x0020_1">
  <metadata id="CorelCorpID_0Corel-Layer"/>
  <path class="fil0" d="M2823 175c45,71 49,149 49,230l0 153c0,27 41,35 61,35 20,0 61,-8 61,-35l0 -95c0,-85 7,-169 39,-251 34,-86 119,-133 208,-132 166,1 236,129 236,285 0,253 -192,484 -423,570 -15,5 -28,17 -28,29 1,29 48,35 68,35l751 0c20,0 62,-9 62,-35l0 -538c0,-117 -41,-221 -126,-300 -113,-104 -292,-126 -438,-126 -135,0 -320,27 -405,150 -65,-101 -181,-150 -298,-150 -101,0 -200,36 -268,110 -104,115 -88,267 -88,411 0,113 12,240 -54,338 -42,62 -104,95 -178,95 -74,0 -135,-33 -178,-95 -66,-97 -55,-226 -55,-338 0,-154 -9,-309 -84,-409 -52,-69 -135,-112 -268,-112 -103,0 -202,34 -271,110 -105,115 -88,269 -88,411 1,114 13,239 -55,338 -42,62 -104,95 -177,95 -154,0 -234,-146 -234,-288l0 -630c0,-27 -42,-36 -61,-36 -20,0 -62,9 -62,36l0 630c0,140 -81,281 -232,282 -66,0 -128,-33 -169,-84 -12,-14 -35,-20 -56,-20 -9,0 -18,1 -26,3 -15,4 -36,16 -36,31 0,5 2,10 6,15 69,85 176,125 282,125 125,0 210,-43 291,-138 81,98 169,144 297,144 92,0 183,-29 252,-94 120,-114 104,-260 103,-409 -1,-117 -13,-238 47,-344 36,-63 95,-107 189,-107 91,0 146,43 179,105 52,98 50,243 50,346 0,143 -12,294 99,404 69,68 162,99 257,99 92,0 184,-29 252,-94 120,-115 104,-258 103,-409 0,-116 -16,-242 48,-345 41,-65 104,-105 185,-105 81,0 142,39 183,104zm961 754l-520 0c180,-125 336,-321 335,-564 0,-141 -57,-255 -170,-298 80,7 170,24 248,96 75,69 107,162 107,263l0 503z"/>
 </g>
</svg>
