<?xml version="1.0" encoding="UTF-8"?>
<!DOCTYPE svg PUBLIC "-//W3C//DTD SVG 1.1//EN" "http://www.w3.org/Graphics/SVG/1.1/DTD/svg11.dtd">
<!-- Creator: CorelDRAW X8 -->
<svg xmlns="http://www.w3.org/2000/svg" xml:space="preserve" width="2836px" height="1012px" version="1.1" style="shape-rendering:geometricPrecision; text-rendering:geometricPrecision; image-rendering:optimizeQuality; fill-rule:evenodd; clip-rule:evenodd"
viewBox="0 0 2836 1011"
 xmlns:xlink="http://www.w3.org/1999/xlink">
 <defs>
  <style type="text/css">
   <![CDATA[
    .fil0 {fill:#B2B09C;fill-rule:nonzero}
   ]]>
  </style>
 </defs>
 <g id="Layer_x0020_1">
  <metadata id="CorelCorpID_0Corel-Layer"/>
  <path class="fil0" d="M1663 835l0 -503c0,-155 93,-254 248,-263 133,-7 257,47 336,154 38,52 62,111 73,173 -69,-23 -138,-46 -215,-45 -165,0 -309,101 -280,283 23,151 152,236 301,236 174,0 277,-112 313,-269 8,-33 12,-63 13,-97 24,2 49,4 74,4 102,0 208,-23 295,-79 24,-16 17,-37 -6,-49 -25,-11 -64,-11 -87,4 -60,39 -130,55 -201,55 -26,0 -53,-2 -78,-6 -9,-85 -37,-168 -88,-236 -108,-145 -286,-206 -462,-196 -125,7 -232,51 -296,134 -91,-102 -178,-135 -316,-135 -175,0 -335,84 -411,250 -37,81 -52,169 -51,258 3,170 53,305 176,421l-401 0c42,-61 62,-113 62,-189 0,-188 -160,-293 -331,-293 -170,-1 -331,104 -331,293 0,112 55,213 156,261 28,13 65,15 90,-3 24,-17 14,-39 -9,-49 -79,-37 -114,-125 -114,-209 0,-125 84,-223 209,-223 125,0 207,99 207,223 0,78 -28,158 -97,199 -9,5 -17,14 -17,25 0,26 42,35 62,35l657 0c20,0 63,-10 59,-37 -2,-13 -14,-21 -24,-26 -161,-69 -228,-260 -231,-428 -1,-74 9,-147 36,-216 50,-130 164,-222 303,-222 184,0 253,128 253,295l0 470c0,19 27,35 61,35 34,0 62,-16 62,-35zm655 -242c-21,92 -82,208 -192,208 -98,0 -165,-82 -179,-173 -17,-108 40,-207 157,-207 74,0 158,38 225,58 1,39 -2,76 -11,114z"/>
 </g>
</svg>
