<?xml version="1.0" encoding="UTF-8"?>
<!DOCTYPE svg PUBLIC "-//W3C//DTD SVG 1.1//EN" "http://www.w3.org/Graphics/SVG/1.1/DTD/svg11.dtd">
<!-- Creator: CorelDRAW X8 -->
<svg xmlns="http://www.w3.org/2000/svg" xml:space="preserve" width="3653px" height="1024px" version="1.1" style="shape-rendering:geometricPrecision; text-rendering:geometricPrecision; image-rendering:optimizeQuality; fill-rule:evenodd; clip-rule:evenodd"
viewBox="0 0 3653 1024"
 xmlns:xlink="http://www.w3.org/1999/xlink">
 <defs>
  <style type="text/css">
   <![CDATA[
    .fil0 {fill:#2B2A29;fill-rule:nonzero}
   ]]>
  </style>
 </defs>
 <g id="Layer_x0020_1">
  <metadata id="CorelCorpID_0Corel-Layer"/>
  <path class="fil0" d="M1108 521c0,114 13,239 -55,338 -42,62 -104,95 -177,95 -154,0 -234,-146 -234,-288l0 -630c0,-27 -42,-36 -61,-36 -20,0 -62,9 -62,36l0 630c0,140 -81,281 -232,282 -66,0 -128,-33 -170,-84 -11,-14 -34,-20 -56,-20 -8,0 -18,1 -26,3 -14,4 -36,16 -36,31 0,5 3,10 6,15 70,85 176,125 283,125 125,0 210,-43 291,-138 81,98 169,144 297,144 92,0 183,-29 252,-94 120,-114 104,-260 103,-409 -1,-117 -13,-238 47,-344 36,-63 95,-107 189,-107 91,0 146,43 179,105 52,98 50,243 50,346 0,143 -12,294 99,404 69,68 162,99 257,99 92,0 184,-29 252,-94 120,-115 104,-258 103,-409 0,-116 -16,-242 49,-345 40,-65 104,-105 184,-105 78,0 142,37 184,104 61,100 48,232 48,346 0,157 13,313 97,408 53,59 132,95 253,95 101,0 189,-31 259,-93 120,-104 173,-273 173,-428 0,-203 -101,-406 -287,-493 -13,-6 -29,-10 -45,-10 -16,0 -33,4 -45,13 -10,7 -14,15 -14,22 0,11 9,21 23,27 161,74 245,268 245,441 0,123 -35,260 -118,356 -49,56 -112,95 -191,95 -82,0 -135,-37 -168,-92 -57,-94 -59,-240 -59,-341 0,-142 17,-297 -87,-410 -70,-76 -168,-111 -268,-111 -101,0 -200,36 -268,110 -104,115 -88,267 -88,411 0,113 12,240 -54,338 -42,62 -104,95 -178,95 -74,0 -135,-33 -178,-95 -66,-97 -55,-226 -55,-338 0,-154 -9,-309 -84,-409 -52,-69 -135,-112 -268,-112 -103,0 -202,34 -271,110 -105,115 -89,269 -88,411z"/>
 </g>
</svg>
