<?xml version="1.0" encoding="UTF-8"?>
<!DOCTYPE svg PUBLIC "-//W3C//DTD SVG 1.1//EN" "http://www.w3.org/Graphics/SVG/1.1/DTD/svg11.dtd">
<!-- Creator: CorelDRAW X8 -->
<svg xmlns="http://www.w3.org/2000/svg" xml:space="preserve" width="1800px" height="1405px" version="1.1" style="shape-rendering:geometricPrecision; text-rendering:geometricPrecision; image-rendering:optimizeQuality; fill-rule:evenodd; clip-rule:evenodd"
viewBox="0 0 1800 1405"
 xmlns:xlink="http://www.w3.org/1999/xlink">
 <defs>
  <style type="text/css">
   <![CDATA[
    .fil0 {fill:#CC9933;fill-rule:nonzero}
   ]]>
  </style>
 </defs>
 <g id="Layer_x0020_1">
  <metadata id="CorelCorpID_0Corel-Layer"/>
  <path class="fil0" d="M1498 529c69,62 111,123 144,212 24,67 36,139 35,211 0,73 -20,163 -49,230 -32,77 -86,153 -176,153 -79,0 -125,-69 -147,-138 -16,-51 -21,-107 -19,-161 3,-81 20,-167 53,-241 40,-92 103,-183 159,-266zm-594 11c-119,-123 -230,-160 -402,-159 -187,2 -357,90 -442,265 -42,85 -60,181 -60,276 0,145 42,315 156,411 59,50 127,72 204,72 74,-1 150,-26 208,-75 67,-56 99,-147 101,-234 3,-82 -20,-161 -76,-221 -59,-64 -146,-97 -231,-94 -105,4 -213,68 -242,172 -7,-85 11,-194 52,-279 64,-134 182,-222 330,-222 201,-2 339,114 340,314 2,201 0,403 0,604 0,26 42,35 62,35 19,0 61,-9 61,-35l0 -614c0,-177 114,-303 294,-306 52,-1 95,9 143,25 -56,89 -122,179 -169,273 -43,88 -68,190 -69,288 -1,68 9,139 36,202 47,109 134,167 252,167 119,0 212,-58 274,-161 52,-87 74,-191 74,-292 0,-84 -15,-171 -47,-248 -44,-106 -112,-191 -208,-251 38,-69 75,-145 74,-226 0,-152 -135,-227 -271,-227 -118,0 -237,57 -295,166 -2,4 -3,8 -3,12 2,18 28,29 44,31 6,2 15,2 23,2 21,-2 44,-8 53,-25 36,-68 101,-117 179,-116 89,1 148,68 148,157 0,65 -28,122 -56,180 -61,-17 -115,-27 -179,-27 -159,1 -253,47 -358,160zm-738 556c0,-121 64,-239 195,-239 131,0 193,118 193,239 0,119 -64,239 -193,238 -132,0 -195,-117 -195,-238z"/>
 </g>
</svg>
