<?xml version="1.0" encoding="UTF-8"?>
<!DOCTYPE svg PUBLIC "-//W3C//DTD SVG 1.1//EN" "http://www.w3.org/Graphics/SVG/1.1/DTD/svg11.dtd">
<!-- Creator: CorelDRAW X8 -->
<svg xmlns="http://www.w3.org/2000/svg" xml:space="preserve" width="2335px" height="1024px" version="1.1" style="shape-rendering:geometricPrecision; text-rendering:geometricPrecision; image-rendering:optimizeQuality; fill-rule:evenodd; clip-rule:evenodd"
viewBox="0 0 2335 1024"
 xmlns:xlink="http://www.w3.org/1999/xlink">
 <defs>
  <style type="text/css">
   <![CDATA[
    .fil0 {fill:#00A0E3;fill-rule:nonzero}
   ]]>
  </style>
 </defs>
 <g id="Layer_x0020_1">
  <metadata id="CorelCorpID_0Corel-Layer"/>
  <path class="fil0" d="M575 0c-185,3 -360,68 -472,223 -70,97 -101,214 -103,334 -2,177 73,338 213,443 31,23 66,33 102,15 23,-11 31,-33 8,-49 -133,-92 -201,-243 -200,-406 0,-103 26,-207 82,-293 86,-133 219,-194 371,-197 146,-3 278,64 363,186 47,69 68,137 84,217 -85,-30 -167,-60 -258,-58 -166,5 -305,112 -300,291 6,192 149,318 332,318 246,0 349,-214 356,-438 24,6 49,8 73,8 172,0 321,-133 321,-309 0,-79 -31,-154 -87,-209l293 0c-56,55 -87,130 -87,209 0,191 157,304 332,304 175,0 337,-113 337,-304 0,-124 -73,-232 -189,-278 -25,-9 -64,-8 -85,9 -23,18 -7,39 15,48 88,34 136,130 136,221 0,126 -86,235 -214,235 -128,0 -209,-109 -209,-235 0,-89 47,-179 130,-217 14,-7 22,-17 22,-26 1,-28 -44,-35 -64,-35l-543 0c-20,0 -62,8 -62,34 0,10 7,20 22,27 83,38 130,128 130,217 0,108 -81,240 -198,240 -27,0 -53,-8 -77,-21 -11,-99 -39,-191 -96,-274 -111,-158 -291,-233 -478,-230zm455 559c3,142 -57,395 -233,395 -129,0 -208,-130 -208,-251 0,-114 62,-215 184,-216 85,0 179,39 257,72z"/>
 </g>
</svg>
