<?xml version="1.0" encoding="UTF-8"?>
<!DOCTYPE svg PUBLIC "-//W3C//DTD SVG 1.1//EN" "http://www.w3.org/Graphics/SVG/1.1/DTD/svg11.dtd">
<!-- Creator: CorelDRAW X8 -->
<svg xmlns="http://www.w3.org/2000/svg" xml:space="preserve" width="3653px" height="1024px" version="1.1" style="shape-rendering:geometricPrecision; text-rendering:geometricPrecision; image-rendering:optimizeQuality; fill-rule:evenodd; clip-rule:evenodd"
viewBox="0 0 3653 1024"
 xmlns:xlink="http://www.w3.org/1999/xlink">
 <defs>
  <style type="text/css">
   <![CDATA[
    .fil0 {fill:#00A0E3;fill-rule:nonzero}
   ]]>
  </style>
 </defs>
 <g id="Layer_x0020_1">
  <metadata id="CorelCorpID_0Corel-Layer"/>
  <path class="fil0" d="M2230 859c-43,62 -104,95 -178,95 -74,0 -136,-33 -178,-95 -69,-99 -57,-240 -56,-356 3,-140 15,-281 -87,-392 -69,-76 -167,-111 -267,-111 -120,0 -236,50 -302,155 -69,108 -54,243 -54,365 0,115 14,239 -55,339 -42,62 -104,95 -177,95 -154,0 -234,-146 -234,-288l0 -630c0,-27 -42,-36 -61,-36 -20,0 -62,9 -62,36l0 630c0,140 -81,281 -232,282 -66,0 -128,-33 -169,-84 -18,-21 -57,-24 -82,-17 -20,5 -49,24 -30,46 69,85 176,125 282,125 125,0 210,-43 291,-138 81,98 169,144 297,144 92,0 183,-29 252,-94 120,-115 103,-255 103,-406 0,-100 -12,-217 27,-309 38,-88 109,-144 206,-144 78,0 141,37 183,104 60,95 51,219 49,328 -2,148 -15,309 99,422 69,68 162,99 257,99 92,0 184,-29 252,-94 121,-115 103,-255 103,-406 0,-100 -12,-217 28,-309 37,-88 109,-144 205,-144 78,0 141,37 183,104 60,95 51,219 49,328 -4,264 28,519 346,521 142,1 258,-60 339,-180 65,-96 97,-226 96,-341 -2,-203 -102,-406 -287,-493 -27,-13 -65,-15 -90,3 -24,17 -14,39 9,49 161,74 244,268 245,441 1,105 -28,229 -87,316 -53,79 -129,137 -227,135 -223,-6 -224,-284 -221,-451 2,-140 14,-281 -87,-392 -70,-76 -168,-111 -268,-111 -120,0 -236,50 -302,155 -68,108 -53,243 -54,365 0,115 14,239 -54,339z"/>
 </g>
</svg>
