<?xml version="1.0" encoding="UTF-8"?>
<!DOCTYPE svg PUBLIC "-//W3C//DTD SVG 1.1//EN" "http://www.w3.org/Graphics/SVG/1.1/DTD/svg11.dtd">
<!-- Creator: CorelDRAW X8 -->
<svg xmlns="http://www.w3.org/2000/svg" xml:space="preserve" width="1839px" height="1024px" version="1.1" style="shape-rendering:geometricPrecision; text-rendering:geometricPrecision; image-rendering:optimizeQuality; fill-rule:evenodd; clip-rule:evenodd"
viewBox="0 0 1839 1024"
 xmlns:xlink="http://www.w3.org/1999/xlink">
 <defs>
  <style type="text/css">
   <![CDATA[
    .fil0 {fill:#2B2A29;fill-rule:nonzero}
   ]]>
  </style>
 </defs>
 <g id="Layer_x0020_1">
  <metadata id="CorelCorpID_0Corel-Layer"/>
  <path class="fil0" d="M777 1024c19,0 61,-9 61,-35l0 -601c0,-187 109,-318 302,-318 181,0 269,124 269,295 0,253 -192,483 -424,570 -15,6 -27,17 -27,30 1,28 47,35 68,35l751 0c20,0 62,-9 62,-36l0 -538c0,-117 -41,-221 -126,-300 -122,-112 -297,-126 -454,-126 -72,0 -146,2 -217,15 -95,17 -185,53 -258,125 -93,-105 -183,-140 -322,-140 -175,0 -335,91 -411,256 -36,78 -51,169 -51,255 0,201 82,417 276,504 13,6 28,9 43,9 17,0 34,-4 47,-14 9,-6 12,-14 12,-20 0,-12 -10,-23 -24,-29 -166,-72 -231,-285 -231,-451 0,-72 10,-145 36,-212 50,-130 164,-228 303,-228 173,0 253,130 253,294l0 625c0,26 42,35 62,35zm939 -95l-520 0c189,-131 335,-328 335,-565 0,-123 -48,-250 -171,-297 81,7 171,24 249,97 74,68 107,161 107,262l0 503z"/>
 </g>
</svg>
