<?xml version="1.0" encoding="UTF-8"?>
<!DOCTYPE svg PUBLIC "-//W3C//DTD SVG 1.1//EN" "http://www.w3.org/Graphics/SVG/1.1/DTD/svg11.dtd">
<!-- Creator: CorelDRAW X8 -->
<svg xmlns="http://www.w3.org/2000/svg" xml:space="preserve" width="1800px" height="1405px" version="1.1" style="shape-rendering:geometricPrecision; text-rendering:geometricPrecision; image-rendering:optimizeQuality; fill-rule:evenodd; clip-rule:evenodd"
viewBox="0 0 1800 1405"
 xmlns:xlink="http://www.w3.org/1999/xlink">
 <defs>
  <style type="text/css">
   <![CDATA[
    .fil0 {fill:#B2B09C;fill-rule:nonzero}
   ]]>
  </style>
 </defs>
 <g id="Layer_x0020_1">
  <metadata id="CorelCorpID_0Corel-Layer"/>
  <path class="fil0" d="M1498 529c69,62 111,123 144,212 24,67 36,139 35,211 0,73 -20,163 -49,230 -32,77 -86,153 -176,153 -79,0 -125,-69 -147,-138 -16,-51 -21,-107 -19,-161 3,-81 20,-167 53,-241 40,-92 103,-183 159,-266zm-1342 804c60,50 127,73 204,72 74,-1 151,-26 208,-74 67,-57 99,-148 102,-235 2,-82 -21,-161 -76,-221 -59,-64 -147,-97 -232,-94 -106,4 -209,63 -241,171 -6,-97 12,-196 52,-280 62,-129 179,-220 329,-220 201,-2 339,114 340,314 2,201 0,403 0,604 0,26 42,35 62,35 19,0 61,-9 61,-35l0 -614c0,-177 114,-303 294,-306 52,-1 95,9 143,25 -56,89 -122,179 -169,273 -43,88 -68,190 -69,288 -1,68 9,139 36,202 47,109 134,167 252,167 119,0 212,-58 274,-161 52,-87 74,-191 74,-292 0,-84 -15,-171 -47,-248 -44,-106 -112,-191 -208,-251 38,-69 75,-145 74,-226 0,-152 -135,-227 -271,-227 -118,0 -237,57 -295,166 -13,25 21,40 41,43 23,5 64,0 76,-23 36,-68 101,-117 179,-116 89,1 148,68 148,157 0,65 -28,122 -56,180 -61,-17 -115,-27 -179,-27 -159,1 -253,47 -358,160 -119,-123 -230,-160 -402,-159 -191,2 -358,93 -442,265 -37,74 -57,167 -60,262 -4,162 44,331 156,425zm10 -237c0,-121 64,-239 195,-239 131,0 194,119 193,239 0,119 -64,239 -193,239 -132,-1 -195,-117 -195,-239z"/>
 </g>
</svg>
