<?xml version="1.0" encoding="UTF-8"?>
<!DOCTYPE svg PUBLIC "-//W3C//DTD SVG 1.1//EN" "http://www.w3.org/Graphics/SVG/1.1/DTD/svg11.dtd">
<!-- Creator: CorelDRAW X8 -->
<svg xmlns="http://www.w3.org/2000/svg" xml:space="preserve" width="2181px" height="1412px" version="1.1" style="shape-rendering:geometricPrecision; text-rendering:geometricPrecision; image-rendering:optimizeQuality; fill-rule:evenodd; clip-rule:evenodd"
viewBox="0 0 2181 1412"
 xmlns:xlink="http://www.w3.org/1999/xlink">
 <defs>
  <style type="text/css">
   <![CDATA[
    .fil0 {fill:#B2B09C;fill-rule:nonzero}
   ]]>
  </style>
 </defs>
 <g id="Layer_x0020_1">
  <metadata id="CorelCorpID_0Corel-Layer"/>
  <path class="fil0" d="M2058 829c1,-126 -26,-253 -78,-367 -111,-242 -317,-392 -582,-392 -98,0 -196,26 -276,83 -23,16 -62,17 -87,5 -23,-10 -33,-32 -9,-49 107,-75 242,-109 372,-109 310,0 568,155 701,444 53,118 82,256 82,385 0,307 -176,583 -499,583 -121,0 -245,-43 -316,-141 -67,91 -178,140 -289,141 -116,2 -230,-46 -299,-141 -72,98 -196,141 -317,141 -156,0 -309,-75 -389,-212 -50,-86 -71,-193 -72,-291 -2,-207 82,-428 279,-514 25,-10 64,-9 86,7 23,18 11,39 -12,49 -165,72 -231,279 -230,457 1,89 18,187 62,265 56,98 162,169 276,169 171,0 253,-124 253,-284l0 -634c0,-20 28,-35 62,-35 34,0 61,15 61,35l0 634c0,186 117,281 233,281 154,0 236,-135 236,-281l0 -634c0,-20 28,-36 62,-36 34,0 61,16 61,36l0 634c0,160 82,284 253,284 263,0 375,-281 376,-513z"/>
 </g>
</svg>
