<?xml version="1.0" encoding="UTF-8"?>
<!DOCTYPE svg PUBLIC "-//W3C//DTD SVG 1.1//EN" "http://www.w3.org/Graphics/SVG/1.1/DTD/svg11.dtd">
<!-- Creator: CorelDRAW X8 -->
<svg xmlns="http://www.w3.org/2000/svg" xml:space="preserve" width="1734px" height="1024px" version="1.1" style="shape-rendering:geometricPrecision; text-rendering:geometricPrecision; image-rendering:optimizeQuality; fill-rule:evenodd; clip-rule:evenodd"
viewBox="0 0 1734 1024"
 xmlns:xlink="http://www.w3.org/1999/xlink">
 <defs>
  <style type="text/css">
   <![CDATA[
    .fil0 {fill:#B2B09C;fill-rule:nonzero}
   ]]>
  </style>
 </defs>
 <g id="Layer_x0020_1">
  <metadata id="CorelCorpID_0Corel-Layer"/>
  <path class="fil0" d="M574 0c-184,3 -359,69 -471,223 -70,98 -102,214 -103,334 -2,177 73,339 213,443 31,23 66,33 102,16 23,-12 31,-34 8,-50 -134,-91 -201,-243 -200,-405 0,-104 26,-208 82,-294 86,-133 219,-193 371,-197 146,-3 278,64 363,186 47,69 68,137 84,217 -85,-30 -167,-60 -258,-57 -166,4 -305,111 -300,290 6,192 149,318 332,318 247,0 349,-215 356,-439 31,3 62,6 93,7 97,4 227,-4 329,-51 92,-42 160,-113 159,-221 -1,-140 -121,-212 -246,-211 -127,0 -249,76 -245,218 3,95 51,142 127,187 -42,3 -84,7 -127,6 -32,0 -61,-3 -93,-8 -11,-103 -38,-196 -97,-281 -111,-159 -291,-234 -479,-231zm914 179c82,0 130,72 130,148 0,77 -49,148 -130,148 -81,0 -129,-70 -129,-148 0,-77 49,-147 129,-148zm-458 380c3,142 -57,395 -233,395 -129,0 -208,-130 -208,-251 0,-114 62,-215 184,-215 85,-1 179,38 257,71z"/>
 </g>
</svg>
