<?xml version="1.0" encoding="UTF-8"?>
<!DOCTYPE svg PUBLIC "-//W3C//DTD SVG 1.1//EN" "http://www.w3.org/Graphics/SVG/1.1/DTD/svg11.dtd">
<!-- Creator: CorelDRAW X8 -->
<svg xmlns="http://www.w3.org/2000/svg" xml:space="preserve" width="1800px" height="1405px" version="1.1" style="shape-rendering:geometricPrecision; text-rendering:geometricPrecision; image-rendering:optimizeQuality; fill-rule:evenodd; clip-rule:evenodd"
viewBox="0 0 1800 1405"
 xmlns:xlink="http://www.w3.org/1999/xlink">
 <defs>
  <style type="text/css">
   <![CDATA[
    .fil0 {fill:#00A0E3;fill-rule:nonzero}
   ]]>
  </style>
 </defs>
 <g id="Layer_x0020_1">
  <metadata id="CorelCorpID_0Corel-Layer"/>
  <path class="fil0" d="M1498 529c69,63 111,123 144,212 24,67 36,139 35,211 0,73 -20,163 -49,230 -32,77 -86,153 -176,153 -79,0 -125,-68 -147,-138 -16,-51 -21,-107 -19,-161 3,-81 20,-167 53,-241 40,-91 103,-183 159,-266zm-1342 804c60,51 127,73 204,72 74,-1 151,-26 208,-74 67,-57 99,-148 102,-235 2,-82 -21,-161 -76,-221 -59,-64 -147,-97 -232,-94 -105,4 -209,63 -241,171 -6,-97 12,-196 52,-280 62,-129 179,-219 329,-220 201,-1 339,114 340,314 2,201 0,403 0,604 0,26 42,35 62,35 19,0 61,-9 61,-35l0 -614c0,-177 114,-303 294,-306 52,-1 95,9 143,26 -56,88 -123,178 -169,273 -43,87 -68,189 -69,287 -1,68 9,139 35,202 48,109 135,167 253,167 119,0 212,-58 274,-160 52,-87 74,-192 74,-293 0,-84 -15,-171 -47,-248 -44,-106 -112,-191 -208,-251 38,-69 75,-145 74,-226 0,-152 -135,-227 -271,-227 -118,0 -237,57 -295,166 -13,25 21,40 41,44 23,4 64,-1 76,-24 36,-68 101,-117 179,-116 89,1 147,68 148,157 0,65 -28,122 -56,180 -61,-17 -115,-26 -179,-26 -159,0 -253,46 -358,159 -119,-123 -230,-160 -402,-159 -191,2 -358,93 -442,265 -37,74 -57,167 -60,262 -4,162 44,331 156,425zm10 -237c0,-120 64,-239 195,-239 131,0 194,119 193,239 0,119 -64,239 -193,239 -132,-1 -195,-117 -195,-239z"/>
 </g>
</svg>
