<?xml version="1.0" encoding="UTF-8"?>
<!DOCTYPE svg PUBLIC "-//W3C//DTD SVG 1.1//EN" "http://www.w3.org/Graphics/SVG/1.1/DTD/svg11.dtd">
<!-- Creator: CorelDRAW X8 -->
<svg xmlns="http://www.w3.org/2000/svg" xml:space="preserve" width="1309px" height="1405px" version="1.1" style="shape-rendering:geometricPrecision; text-rendering:geometricPrecision; image-rendering:optimizeQuality; fill-rule:evenodd; clip-rule:evenodd"
viewBox="0 0 1309 1405"
 xmlns:xlink="http://www.w3.org/1999/xlink">
 <defs>
  <style type="text/css">
   <![CDATA[
    .fil0 {fill:#CC9933;fill-rule:nonzero}
   ]]>
  </style>
 </defs>
 <g id="Layer_x0020_1">
  <metadata id="CorelCorpID_0Corel-Layer"/>
  <path class="fil0" d="M144 26c-10,-24 -50,-27 -71,-26 -19,1 -73,9 -73,35l0 1353c0,15 29,17 39,17 10,0 39,-2 39,-17l0 -1179 509 1170c9,21 51,26 71,26 19,0 60,-4 69,-26l459 -1163 0 1155c0,26 43,34 62,34 18,0 61,-8 61,-34l0 -1336c0,-28 -41,-35 -62,-35 -17,0 -59,7 -66,26l-495 1249 -542 -1249z"/>
 </g>
</svg>
