<?xml version="1.0" encoding="UTF-8"?>
<!DOCTYPE svg PUBLIC "-//W3C//DTD SVG 1.1//EN" "http://www.w3.org/Graphics/SVG/1.1/DTD/svg11.dtd">
<!-- Creator: CorelDRAW 2020 (64-Bit) -->
<svg xmlns="http://www.w3.org/2000/svg" xml:space="preserve" width="428px" height="424px" version="1.1" style="shape-rendering:geometricPrecision; text-rendering:geometricPrecision; image-rendering:optimizeQuality; fill-rule:evenodd; clip-rule:evenodd"
viewBox="0 0 428 424"
 xmlns:xlink="http://www.w3.org/1999/xlink"
 xmlns:xodm="http://www.corel.com/coreldraw/odm/2003">
 <defs>
  <style type="text/css">
   <![CDATA[
    .fil0 {fill:#E31E24;fill-rule:nonzero}
   ]]>
  </style>
 </defs>
 <g id="Layer_x0020_1">
  <metadata id="CorelCorpID_0Corel-Layer"/>
  <path class="fil0" d="M428 409.41c0,-1.622 -0.866,-3.169 -1.556,-4.647l-183.364 -392.696c-4.093,-8.765 -21.067,-12.068 -29.17,-12.068 -8.823,0 -25.584,2.064 -29.89,11.348l-182.357 393.177c-0.607,1.309 -1.663,3.523 -1.663,4.886 0,8.875 16.083,14.585 31.753,14.59 12.346,0.004 24.585,-3.565 28.207,-11.348l153.95 -330.878 154.131 330.878c3.614,7.758 15.791,11.348 28.099,11.348 15.704,0 31.86,-5.695 31.86,-14.59z"/>
 </g>
</svg>
