<?xml version="1.0" encoding="UTF-8"?>
<!DOCTYPE svg PUBLIC "-//W3C//DTD SVG 1.1//EN" "http://www.w3.org/Graphics/SVG/1.1/DTD/svg11.dtd">
<!-- Creator: CorelDRAW 2020 (64-Bit) -->
<svg xmlns="http://www.w3.org/2000/svg" xml:space="preserve" width="113.242mm" height="112.122mm" version="1.1" style="shape-rendering:geometricPrecision; text-rendering:geometricPrecision; image-rendering:optimizeQuality; fill-rule:evenodd; clip-rule:evenodd"
viewBox="0 0 11324.16 11212.18"
 xmlns:xlink="http://www.w3.org/1999/xlink"
 xmlns:xodm="http://www.corel.com/coreldraw/odm/2003">
 <defs>
  <style type="text/css">
   <![CDATA[
    .fil0 {fill:#2B2A29;fill-rule:nonzero}
   ]]>
  </style>
 </defs>
 <g id="Layer_x0020_1">
  <metadata id="CorelCorpID_0Corel-Layer"/>
  <path class="fil0" d="M11324.16 10826.38c0,-42.9 -22.92,-83.8 -41.17,-122.9l-4851.51 -10384.37c-108.29,-231.79 -557.39,-319.12 -771.78,-319.12 -233.44,0 -676.91,54.57 -790.83,300.07l-4824.88 10397.11c-16.05,34.61 -43.99,93.16 -43.99,129.21 0,234.67 425.53,385.68 840.13,385.81 326.66,0.09 650.49,-94.28 746.3,-300.08l4073.27 -8749.7 4078.04 8749.7c95.62,205.14 417.8,300.08 743.47,300.08 415.49,0 842.95,-150.6 842.95,-385.81z"/>
 </g>
</svg>
