<?xml version="1.0" encoding="UTF-8"?>
<!DOCTYPE svg PUBLIC "-//W3C//DTD SVG 1.1//EN" "http://www.w3.org/Graphics/SVG/1.1/DTD/svg11.dtd">
<!-- Creator: CorelDRAW X8 -->
<svg xmlns="http://www.w3.org/2000/svg" xml:space="preserve" width="880px" height="1024px" version="1.1" style="shape-rendering:geometricPrecision; text-rendering:geometricPrecision; image-rendering:optimizeQuality; fill-rule:evenodd; clip-rule:evenodd"
viewBox="0 0 880 1025"
 xmlns:xlink="http://www.w3.org/1999/xlink">
 <defs>
  <style type="text/css">
   <![CDATA[
    .fil0 {fill:#CC9933;fill-rule:nonzero}
   ]]>
  </style>
 </defs>
 <g id="Layer_x0020_1">
  <metadata id="CorelCorpID_0Corel-Layer"/>
  <path class="fil0" d="M0 35l0 954c0,27 42,36 62,36 19,0 61,-9 61,-36l0 -541c0,-190 119,-378 317,-378 207,0 317,183 317,377l0 542c0,27 42,36 61,36 20,0 62,-9 62,-36l0 -542c0,-266 -181,-447 -440,-447 -143,0 -257,63 -317,144l0 -109c0,-26 -42,-35 -61,-35 -20,0 -62,9 -62,35z"/>
 </g>
</svg>
