<?xml version="1.0" encoding="UTF-8"?>
<!DOCTYPE svg PUBLIC "-//W3C//DTD SVG 1.1//EN" "http://www.w3.org/Graphics/SVG/1.1/DTD/svg11.dtd">
<!-- Creator: CorelDRAW X8 -->
<svg xmlns="http://www.w3.org/2000/svg" xml:space="preserve" width="1888px" height="1024px" version="1.1" style="shape-rendering:geometricPrecision; text-rendering:geometricPrecision; image-rendering:optimizeQuality; fill-rule:evenodd; clip-rule:evenodd"
viewBox="0 0 1888 1024"
 xmlns:xlink="http://www.w3.org/1999/xlink">
 <defs>
  <style type="text/css">
   <![CDATA[
    .fil1 {fill:#2B2A29;fill-rule:nonzero}
    .fil0 {fill:#00A0E3;fill-rule:nonzero}
   ]]>
  </style>
 </defs>
 <g id="Layer_x0020_1">
  <metadata id="CorelCorpID_0Corel-Layer"/>
  <path class="fil0" d="M505 70c242,0 382,211 382,442 0,232 -140,442 -382,442 -242,0 -382,-210 -382,-442 0,-231 140,-442 382,-442zm1241 635c-8,74 -62,136 -121,176 -72,49 -161,74 -247,73 -247,-3 -377,-218 -374,-451l823 0c20,0 61,-8 61,-35 4,-306 -219,-469 -501,-468 -198,1 -356,97 -440,249 -83,-154 -243,-249 -442,-249 -296,0 -505,208 -505,512 0,304 209,512 505,512 197,0 355,-92 439,-244 82,150 238,242 432,244 119,1 244,-30 344,-98 72,-49 139,-126 149,-217 2,-24 -29,-36 -61,-37 -30,0 -59,11 -62,33zm19 -272l-754 0c37,-201 165,-362 376,-363 223,-1 361,139 378,363z"/>
  <path class="fil1" d="M1382 1024c118,0 240,-31 338,-98 51,-34 99,-82 126,-140 12,-25 23,-52 23,-80 0,-26 -43,-34 -62,-34 -20,0 -58,8 -61,33 -8,74 -62,136 -121,176 -71,48 -158,73 -243,73 -252,0 -378,-223 -378,-451l823 0c20,0 61,-8 61,-35 0,-301 -209,-468 -499,-468 -201,0 -358,97 -442,248 -83,-154 -243,-248 -442,-248 -296,0 -505,208 -505,512 0,304 209,512 505,512 197,0 355,-91 439,-242 82,150 239,242 438,242zm-877 -954c242,0 382,211 382,442 0,232 -140,442 -382,442 -242,0 -382,-210 -382,-442 0,-231 140,-442 382,-442zm1260 363l-754 0c37,-201 164,-363 378,-363 225,0 359,143 376,363z"/>
 </g>
</svg>
