<?xml version="1.0" encoding="UTF-8"?>
<!DOCTYPE svg PUBLIC "-//W3C//DTD SVG 1.1//EN" "http://www.w3.org/Graphics/SVG/1.1/DTD/svg11.dtd">
<!-- Creator: CorelDRAW X8 -->
<svg xmlns="http://www.w3.org/2000/svg" xml:space="preserve" width="2045px" height="1405px" version="1.1" style="shape-rendering:geometricPrecision; text-rendering:geometricPrecision; image-rendering:optimizeQuality; fill-rule:evenodd; clip-rule:evenodd"
viewBox="0 0 2045 1405"
 xmlns:xlink="http://www.w3.org/1999/xlink">
 <defs>
  <style type="text/css">
   <![CDATA[
    .fil0 {fill:#00A0E3;fill-rule:nonzero}
   ]]>
  </style>
 </defs>
 <g id="Layer_x0020_1">
  <metadata id="CorelCorpID_0Corel-Layer"/>
  <path class="fil0" d="M1017 119c-108,-80 -249,-121 -384,-119 -408,6 -638,314 -633,712 5,396 226,697 635,693 135,-2 274,-45 382,-127l0 64c0,26 49,39 69,39l898 0c19,0 61,-9 61,-35 0,-27 -42,-35 -61,-35l-844 0 0 -574 716 0c19,0 61,-9 61,-35 0,-27 -42,-35 -61,-35l-716 0 0 -573 844 0c19,0 61,-9 61,-35 0,-26 -42,-35 -61,-35l-898 0c-20,0 -69,12 -69,39l0 56zm0 1013c-84,125 -232,202 -384,203 -347,3 -508,-307 -510,-624 -3,-321 165,-636 513,-641 152,-2 300,71 381,195l0 867z"/>
 </g>
</svg>
