<?xml version="1.0" encoding="UTF-8"?>
<!DOCTYPE svg PUBLIC "-//W3C//DTD SVG 1.1//EN" "http://www.w3.org/Graphics/SVG/1.1/DTD/svg11.dtd">
<!-- Creator: CorelDRAW X8 -->
<svg xmlns="http://www.w3.org/2000/svg" xml:space="preserve" width="2045px" height="1405px" version="1.1" style="shape-rendering:geometricPrecision; text-rendering:geometricPrecision; image-rendering:optimizeQuality; fill-rule:evenodd; clip-rule:evenodd"
viewBox="0 0 2045 1405"
 xmlns:xlink="http://www.w3.org/1999/xlink">
 <defs>
  <style type="text/css">
   <![CDATA[
    .fil0 {fill:#2B2A29;fill-rule:nonzero}
   ]]>
  </style>
 </defs>
 <g id="Layer_x0020_1">
  <metadata id="CorelCorpID_0Corel-Layer"/>
  <path class="fil0" d="M1983 1382c20,0 62,-10 62,-36 0,-27 -42,-35 -62,-35l-844 0 0 -575 717 0c19,0 61,-8 61,-34 0,-26 -42,-36 -61,-36l-717 0 0 -573 844 0c20,0 62,-8 62,-34 0,-26 -42,-36 -62,-36l-898 0c-20,0 -69,14 -69,40l0 56c-105,-78 -241,-119 -373,-119 -412,0 -643,307 -643,699 0,389 210,706 627,706 138,0 280,-44 389,-126l0 63c0,26 49,40 69,40l898 0zm-967 -1117l0 868c-84,125 -235,202 -389,202 -353,0 -504,-325 -504,-636 0,-316 168,-629 520,-629 149,0 293,73 373,195z"/>
 </g>
</svg>
