<?xml version="1.0" encoding="UTF-8"?>
<!DOCTYPE svg PUBLIC "-//W3C//DTD SVG 1.1//EN" "http://www.w3.org/Graphics/SVG/1.1/DTD/svg11.dtd">
<!-- Creator: CorelDRAW 2020 (64-Bit) -->
<svg xmlns="http://www.w3.org/2000/svg" xml:space="preserve" width="1043px" height="1405px" version="1.1" style="shape-rendering:geometricPrecision; text-rendering:geometricPrecision; image-rendering:optimizeQuality; fill-rule:evenodd; clip-rule:evenodd"
viewBox="0 0 1043 1405"
 xmlns:xlink="http://www.w3.org/1999/xlink"
 xmlns:xodm="http://www.corel.com/coreldraw/odm/2003">
 <defs>
  <style type="text/css">
   <![CDATA[
    .fil0 {fill:#E31E24;fill-rule:nonzero}
   ]]>
  </style>
 </defs>
 <g id="Layer_x0020_1">
  <metadata id="CorelCorpID_0Corel-Layer"/>
  <path class="fil0" d="M834.111 1405c108.889,0 208.889,-70 208.889,-190 0,-80 -40.889,-132.001 -108,-166 54,-32.223 90,-76.222 90,-143.111 0,-119.112 -104.001,-178.001 -208.889,-178.001 -53.111,0 -109.038,16.082 -150,52.889 -37.927,34.081 -54,80.001 -54,130l0 13.112c0,18.021 28.008,23.351 42,22.888 12.912,-0.426 38.888,-6 38.888,-22.888l0 -11.111c0,-34.89 9.328,-68.716 31.112,-96.001 22.217,-27.827 52.89,-43.176 88.888,-42.888 75.114,0.6 131.112,54.888 131.112,132 0,68.94 -50.009,114.321 -115.377,121.914 -9.394,1.09 -18.82,1.452 -28.623,2.085 -12.008,0.777 -38,6.889 -38,23.111 0,18 26.888,24 40.889,24l27.111 0c79.743,0 132,57.143 132,136.889 0,77.112 -50,144 -128,144 -85.111,0 -141.112,-56.888 -141.112,-144 0,-16.888 -27.999,-22.888 -40.888,-22.888 -13.112,0 -41.111,6 -41.111,22.888 0,130.001 107.111,191.112 223.111,191.112z"/>
  <path class="fil0" d="M150.248 1389.366l729.983 -1356.714c1.61,-2.992 4.016,-7.506 4.016,-10.86 0,-13.632 -20.504,-21.792 -40.832,-21.792 -15.838,0 -31.29,4.877 -37.168,15.79l-730.809 1356.95c-1.378,2.559 -3.462,6.294 -3.413,9.736 0.207,14.307 19.991,22.523 40.049,22.523 15.56,0.001 32.12,-4.383 38.174,-15.633z"/>
  <path class="fil0" d="M183.111 676c14,0 40.889,-6 40.889,-24l0 -628c0,-18 -26.889,-24 -40.889,-24 -14,0 -38.82,6.035 -41.111,24 -4.598,36.038 -18.398,70.529 -42.889,98 -17.515,19.647 -41.951,37.236 -69.111,40.889 -10.848,1.459 -30,8 -30,22 0,18.187 29.466,23.111 43.111,23.111 33.823,0 72.574,-10.535 100,-37.111l0 481.111c0,18 26.889,24 40,24z"/>
 </g>
</svg>
