<?xml version="1.0" encoding="UTF-8"?>
<!DOCTYPE svg PUBLIC "-//W3C//DTD SVG 1.1//EN" "http://www.w3.org/Graphics/SVG/1.1/DTD/svg11.dtd">
<!-- Creator: CorelDRAW X8 -->
<svg xmlns="http://www.w3.org/2000/svg" xml:space="preserve" width="1091px" height="1024px" version="1.1" style="shape-rendering:geometricPrecision; text-rendering:geometricPrecision; image-rendering:optimizeQuality; fill-rule:evenodd; clip-rule:evenodd"
viewBox="0 0 1091 1024"
 xmlns:xlink="http://www.w3.org/1999/xlink">
 <defs>
  <style type="text/css">
   <![CDATA[
    .fil0 {fill:#B2B09C;fill-rule:nonzero}
   ]]>
  </style>
 </defs>
 <g id="Layer_x0020_1">
  <metadata id="CorelCorpID_0Corel-Layer"/>
  <path class="fil0" d="M996 512c0,264 -184,458 -450,458 -69,0 -132,-12 -188,-36l439 -811c124,80 199,220 199,389zm-702 388c-124,-79 -199,-219 -199,-388 0,-264 184,-459 451,-459 68,0 131,13 187,37l-439 810zm557 -877c8,-14 -18,-21 -28,-22 -14,-2 -42,0 -49,13l-12 23c-66,-24 -139,-37 -216,-37 -305,0 -546,197 -546,512 0,207 105,363 263,446l-23 42c-8,14 18,21 28,23 14,2 42,0 49,-14l12 -22c66,24 139,37 217,37 304,0 545,-197 545,-512 0,-207 -105,-364 -263,-446l23 -43z"/>
 </g>
</svg>
