<?xml version="1.0" encoding="UTF-8"?>
<!DOCTYPE svg PUBLIC "-//W3C//DTD SVG 1.1//EN" "http://www.w3.org/Graphics/SVG/1.1/DTD/svg11.dtd">
<!-- Creator: CorelDRAW X8 -->
<svg xmlns="http://www.w3.org/2000/svg" xml:space="preserve" width="439px" height="1780px" version="1.1" style="shape-rendering:geometricPrecision; text-rendering:geometricPrecision; image-rendering:optimizeQuality; fill-rule:evenodd; clip-rule:evenodd"
viewBox="0 0 439 1780"
 xmlns:xlink="http://www.w3.org/1999/xlink">
 <defs>
  <style type="text/css">
   <![CDATA[
    .fil0 {fill:#CC9933;fill-rule:nonzero}
   ]]>
  </style>
 </defs>
 <g id="Layer_x0020_1">
  <metadata id="CorelCorpID_0Corel-Layer"/>
  <path class="fil0" d="M432 1729c-209,-223 -309,-540 -309,-843 0,-306 100,-611 309,-835 4,-4 7,-10 7,-16 0,-17 -19,-27 -33,-31 -9,-3 -18,-4 -28,-4 -18,0 -42,5 -54,19 -218,233 -324,549 -324,867 0,316 106,644 324,876 13,13 36,18 54,18 21,0 61,-9 61,-35 0,-6 -3,-12 -7,-16z"/>
 </g>
</svg>
