<?xml version="1.0" encoding="UTF-8"?>
<!DOCTYPE svg PUBLIC "-//W3C//DTD SVG 1.1//EN" "http://www.w3.org/Graphics/SVG/1.1/DTD/svg11.dtd">
<!-- Creator: CorelDRAW X8 -->
<svg xmlns="http://www.w3.org/2000/svg" xml:space="preserve" width="1484px" height="1405px" version="1.1" style="shape-rendering:geometricPrecision; text-rendering:geometricPrecision; image-rendering:optimizeQuality; fill-rule:evenodd; clip-rule:evenodd"
viewBox="0 0 1484 1405"
 xmlns:xlink="http://www.w3.org/1999/xlink">
 <defs>
  <style type="text/css">
   <![CDATA[
    .fil0 {fill:#CC9933;fill-rule:nonzero}
   ]]>
  </style>
 </defs>
 <g id="Layer_x0020_1">
  <metadata id="CorelCorpID_0Corel-Layer"/>
  <path class="fil0" d="M328 722c197,0 308,-171 308,-360 0,-189 -111,-362 -308,-362 -197,0 -308,171 -308,361 0,190 112,361 308,361zm0 -653c142,0 185,175 185,292 0,118 -43,292 -185,292 -142,0 -184,-174 -185,-292 0,-117 43,-292 185,-292zm86 1320l732 -1360c2,-2 2,-4 2,-7 0,-12 -18,-19 -28,-21 -4,-1 -8,-1 -12,-1 -12,0 -31,4 -38,16l-732 1360c-1,2 -2,4 -2,6 0,13 18,20 28,22 4,1 8,1 12,1 13,0 32,-4 38,-16zm742 16c197,0 308,-171 308,-360 0,-190 -111,-362 -308,-362 -198,0 -309,171 -308,361 0,189 112,361 308,361zm0 -653c142,0 185,174 185,292 0,118 -43,292 -185,292 -142,0 -185,-174 -185,-292 0,-117 42,-292 185,-292z"/>
 </g>
</svg>
