<?xml version="1.0" encoding="UTF-8"?>
<!DOCTYPE svg PUBLIC "-//W3C//DTD SVG 1.1//EN" "http://www.w3.org/Graphics/SVG/1.1/DTD/svg11.dtd">
<!-- Creator: CorelDRAW X8 -->
<svg xmlns="http://www.w3.org/2000/svg" xml:space="preserve" width="1339px" height="1405px" version="1.1" style="shape-rendering:geometricPrecision; text-rendering:geometricPrecision; image-rendering:optimizeQuality; fill-rule:evenodd; clip-rule:evenodd"
viewBox="0 0 1339 1405"
 xmlns:xlink="http://www.w3.org/1999/xlink">
 <defs>
  <style type="text/css">
   <![CDATA[
    .fil0 {fill:#00A0E3;fill-rule:nonzero}
   ]]>
  </style>
 </defs>
 <g id="Layer_x0020_1">
  <metadata id="CorelCorpID_0Corel-Layer"/>
  <path class="fil0" d="M653 0c-401,0 -653,307 -653,703 0,395 252,702 653,702 157,0 279,-39 405,-134 58,61 107,98 185,128 25,10 64,9 85,-9 23,-19 6,-40 -16,-49 -77,-29 -129,-78 -177,-145 116,-137 171,-314 171,-493 0,-396 -252,-703 -653,-703zm-12 884c211,23 260,150 360,309 -97,96 -212,142 -348,142 -345,0 -530,-311 -530,-632 0,-322 185,-633 530,-633 345,0 530,311 530,633 0,151 -35,266 -108,397 -96,-157 -224,-290 -422,-285 -25,0 -62,9 -62,35 0,22 33,32 50,34z"/>
 </g>
</svg>
