<?xml version="1.0" encoding="UTF-8"?>
<!DOCTYPE svg PUBLIC "-//W3C//DTD SVG 1.1//EN" "http://www.w3.org/Graphics/SVG/1.1/DTD/svg11.dtd">
<!-- Creator: CorelDRAW X8 -->
<svg xmlns="http://www.w3.org/2000/svg" xml:space="preserve" width="856px" height="1405px" version="1.1" style="shape-rendering:geometricPrecision; text-rendering:geometricPrecision; image-rendering:optimizeQuality; fill-rule:evenodd; clip-rule:evenodd"
viewBox="0 0 856 1405"
 xmlns:xlink="http://www.w3.org/1999/xlink">
 <defs>
  <style type="text/css">
   <![CDATA[
    .fil0 {fill:#2B2A29;fill-rule:nonzero}
   ]]>
  </style>
 </defs>
 <g id="Layer_x0020_1">
  <metadata id="CorelCorpID_0Corel-Layer"/>
  <path class="fil0" d="M424 1146c20,0 60,-10 60,-35l-1 -71c-1,-54 5,-105 34,-156 33,-56 90,-110 153,-169 104,-97 186,-199 186,-351 0,-234 -209,-364 -419,-364 -132,0 -265,33 -353,141 -57,70 -84,162 -84,252 0,26 42,34 64,34 20,0 59,-9 59,-34 1,-80 22,-160 72,-222 61,-74 150,-101 242,-101 162,0 296,124 296,294 0,136 -74,226 -168,315 -54,51 -124,116 -162,179 -35,58 -44,125 -44,192 0,21 1,42 2,62 2,26 44,34 63,34zm1 259c43,0 75,-39 75,-75 0,-37 -32,-75 -75,-75 -44,0 -75,38 -75,75 0,36 31,75 75,75z"/>
 </g>
</svg>
