<?xml version="1.0" encoding="UTF-8"?>
<!DOCTYPE svg PUBLIC "-//W3C//DTD SVG 1.1//EN" "http://www.w3.org/Graphics/SVG/1.1/DTD/svg11.dtd">
<!-- Creator: CorelDRAW X8 -->
<svg xmlns="http://www.w3.org/2000/svg" xml:space="preserve" width="599px" height="1024px" version="1.1" style="shape-rendering:geometricPrecision; text-rendering:geometricPrecision; image-rendering:optimizeQuality; fill-rule:evenodd; clip-rule:evenodd"
viewBox="0 0 599 1024"
 xmlns:xlink="http://www.w3.org/1999/xlink">
 <defs>
  <style type="text/css">
   <![CDATA[
    .fil0 {fill:#CC9933;fill-rule:nonzero}
   ]]>
  </style>
 </defs>
 <g id="Layer_x0020_1">
  <metadata id="CorelCorpID_0Corel-Layer"/>
  <path class="fil0" d="M0 35l0 954c0,26 42,35 61,35 20,0 62,-9 62,-35l0 -504c0,-91 10,-195 51,-278 40,-81 107,-139 211,-139 49,0 98,18 137,48 6,6 14,9 23,9 11,0 22,-5 31,-12 11,-8 23,-21 23,-36 0,-11 -7,-20 -16,-26 -56,-37 -111,-51 -178,-51 -164,0 -248,76 -282,144l0 -109c0,-26 -42,-35 -62,-35 -19,0 -61,9 -61,35z"/>
 </g>
</svg>
