<?xml version="1.0" encoding="UTF-8"?>
<!DOCTYPE svg PUBLIC "-//W3C//DTD SVG 1.1//EN" "http://www.w3.org/Graphics/SVG/1.1/DTD/svg11.dtd">
<!-- Creator: CorelDRAW X8 -->
<svg xmlns="http://www.w3.org/2000/svg" xml:space="preserve" width="599px" height="1024px" version="1.1" style="shape-rendering:geometricPrecision; text-rendering:geometricPrecision; image-rendering:optimizeQuality; fill-rule:evenodd; clip-rule:evenodd"
viewBox="0 0 599 1024"
 xmlns:xlink="http://www.w3.org/1999/xlink">
 <defs>
  <style type="text/css">
   <![CDATA[
    .fil0 {fill:#2B2A29;fill-rule:nonzero}
   ]]>
  </style>
 </defs>
 <g id="Layer_x0020_1">
  <metadata id="CorelCorpID_0Corel-Layer"/>
  <path class="fil0" d="M61 1024c20,0 62,-9 62,-35l0 -480c0,-152 48,-435 266,-435 49,0 94,12 133,42 7,6 15,8 23,8 10,0 21,-4 31,-11 14,-9 23,-23 23,-36 0,-9 -4,-19 -15,-26 -57,-38 -112,-51 -179,-51 -164,0 -248,108 -282,176l0 -141c0,-26 -42,-35 -62,-35 -19,0 -61,9 -61,35l0 954c0,26 42,35 61,35z"/>
 </g>
</svg>
