<?xml version="1.0" encoding="UTF-8"?>
<!DOCTYPE svg PUBLIC "-//W3C//DTD SVG 1.1//EN" "http://www.w3.org/Graphics/SVG/1.1/DTD/svg11.dtd">
<!-- Creator: CorelDRAW X8 -->
<svg xmlns="http://www.w3.org/2000/svg" xml:space="preserve" width="1108px" height="1024px" version="1.1" style="shape-rendering:geometricPrecision; text-rendering:geometricPrecision; image-rendering:optimizeQuality; fill-rule:evenodd; clip-rule:evenodd"
viewBox="0 0 1108 1024"
 xmlns:xlink="http://www.w3.org/1999/xlink">
 <defs>
  <style type="text/css">
   <![CDATA[
    .fil0 {fill:black;fill-rule:nonzero}
   ]]>
  </style>
 </defs>
 <g id="Layer_x0020_1">
  <metadata id="CorelCorpID_0Corel-Layer"/>
  <path class="fil0" d="M390 812c0,14 -22,25 -49,25 -27,0 -49,-11 -49,-25l0 -600c0,-13 22,-25 49,-25l247 0c101,0 200,67 200,174 0,89 -69,155 -153,170 39,34 59,82 78,130 23,54 45,109 92,134 18,11 17,26 -4,36 -20,9 -52,8 -70,-2 -65,-36 -90,-98 -115,-158 -25,-61 -48,-136 -105,-136l-121 0 0 277zm718 -300c0,322 -253,512 -554,512 -301,0 -554,-190 -554,-512 0,-321 253,-512 554,-512 301,0 554,191 554,512zm-133 0c0,-251 -171,-438 -421,-438 -250,0 -421,187 -421,438 0,251 171,438 421,438 250,0 421,-187 421,-438zm-389 -27c70,0 106,-64 105,-127 -1,-61 -37,-121 -103,-121l-198 0 0 248 196 0z"/>
 </g>
</svg>
