<?xml version="1.0" encoding="UTF-8"?>
<!DOCTYPE svg PUBLIC "-//W3C//DTD SVG 1.1//EN" "http://www.w3.org/Graphics/SVG/1.1/DTD/svg11.dtd">
<!-- Creator: CorelDRAW X8 -->
<svg xmlns="http://www.w3.org/2000/svg" xml:space="preserve" width="1091px" height="1024px" version="1.1" style="shape-rendering:geometricPrecision; text-rendering:geometricPrecision; image-rendering:optimizeQuality; fill-rule:evenodd; clip-rule:evenodd"
viewBox="0 0 1091 1024"
 xmlns:xlink="http://www.w3.org/1999/xlink">
 <defs>
  <style type="text/css">
   <![CDATA[
    .fil0 {fill:#B2B09C;fill-rule:nonzero}
   ]]>
  </style>
 </defs>
 <g id="Layer_x0020_1">
  <metadata id="CorelCorpID_0Corel-Layer"/>
  <path class="fil0" d="M342 815c0,12 -17,22 -38,22 -21,0 -38,-10 -38,-22 0,-202 0,-404 0,-607 0,-11 17,-21 38,-21l291 0c99,0 198,66 198,172 0,92 -77,157 -163,170 38,31 59,78 81,127 25,57 52,117 104,143 14,8 17,21 2,30 -14,9 -38,10 -54,2 -69,-35 -98,-101 -127,-165 -30,-68 -59,-135 -124,-135l-170 0 0 284zm654 -303c0,264 -184,458 -450,458 -267,0 -451,-194 -451,-458 0,-264 184,-459 451,-459 266,0 450,195 450,459zm95 0c0,-315 -241,-512 -545,-512 -305,0 -546,197 -546,512 0,315 241,512 546,512 304,0 545,-197 545,-512zm-749 -282l0 259 253 0c68,0 122,-64 122,-130 0,-66 -54,-129 -122,-129l-253 0z"/>
 </g>
</svg>
