<?xml version="1.0" encoding="UTF-8"?>
<!DOCTYPE svg PUBLIC "-//W3C//DTD SVG 1.1//EN" "http://www.w3.org/Graphics/SVG/1.1/DTD/svg11.dtd">
<!-- Creator: CorelDRAW X8 -->
<svg xmlns="http://www.w3.org/2000/svg" xml:space="preserve" width="1091px" height="1024px" version="1.1" style="shape-rendering:geometricPrecision; text-rendering:geometricPrecision; image-rendering:optimizeQuality; fill-rule:evenodd; clip-rule:evenodd"
viewBox="0 0 1091 1024"
 xmlns:xlink="http://www.w3.org/1999/xlink">
 <defs>
  <style type="text/css">
   <![CDATA[
    .fil0 {fill:#2B2A29;fill-rule:nonzero}
   ]]>
  </style>
 </defs>
 <g id="Layer_x0020_1">
  <metadata id="CorelCorpID_0Corel-Layer"/>
  <path class="fil0" d="M546 1024c304,0 545,-197 545,-512 0,-315 -241,-512 -545,-512 -305,0 -546,197 -546,512 0,315 241,512 546,512zm0 -54c-267,0 -451,-194 -451,-458 0,-264 184,-459 451,-459 266,0 450,195 450,459 0,264 -184,458 -450,458zm-242 -133c21,0 38,-10 38,-22l0 -284 170 0c65,0 94,67 124,135 29,64 58,130 127,165 7,4 16,5 25,5 11,0 21,-2 29,-7 7,-4 10,-9 10,-14 0,-6 -4,-12 -12,-16 -52,-26 -79,-86 -104,-143 -22,-49 -43,-96 -81,-127 86,-13 163,-78 163,-170 0,-106 -99,-172 -198,-172l-291 0c-21,0 -38,10 -38,21l0 607c0,12 17,22 38,22zm291 -348l-253 0 0 -259 253 0c68,0 122,63 122,129 0,66 -54,130 -122,130z"/>
 </g>
</svg>
