<?xml version="1.0" encoding="UTF-8"?>
<!DOCTYPE svg PUBLIC "-//W3C//DTD SVG 1.1//EN" "http://www.w3.org/Graphics/SVG/1.1/DTD/svg11.dtd">
<!-- Creator: CorelDRAW X8 -->
<svg xmlns="http://www.w3.org/2000/svg" xml:space="preserve" width="1153px" height="1380px" version="1.1" style="shape-rendering:geometricPrecision; text-rendering:geometricPrecision; image-rendering:optimizeQuality; fill-rule:evenodd; clip-rule:evenodd"
viewBox="0 0 1153 1380"
 xmlns:xlink="http://www.w3.org/1999/xlink">
 <defs>
  <style type="text/css">
   <![CDATA[
    .fil0 {fill:#2B2A29;fill-rule:nonzero}
   ]]>
  </style>
 </defs>
 <g id="Layer_x0020_1">
  <metadata id="CorelCorpID_0Corel-Layer"/>
  <path class="fil0" d="M1092 1380c16,0 33,-5 45,-12 11,-7 16,-15 16,-23 0,-10 -7,-20 -20,-26 -115,-60 -172,-189 -227,-315 -50,-114 -87,-202 -184,-284 185,-14 359,-162 359,-359 0,-219 -199,-361 -401,-361l-619 0c-19,0 -61,9 -61,35l0 1310c0,27 42,35 61,35 20,0 62,-8 62,-35l0 -624 379 0c163,0 229,173 285,300 59,136 121,275 264,350 11,6 26,9 41,9zm-412 -729l-557 0 0 -581 557 0c153,0 278,138 278,291 0,153 -125,290 -278,290z"/>
 </g>
</svg>
