<?xml version="1.0" encoding="UTF-8"?>
<!DOCTYPE svg PUBLIC "-//W3C//DTD SVG 1.1//EN" "http://www.w3.org/Graphics/SVG/1.1/DTD/svg11.dtd">
<!-- Creator: CorelDRAW X8 -->
<svg xmlns="http://www.w3.org/2000/svg" xml:space="preserve" width="956px" height="1381px" version="1.1" style="shape-rendering:geometricPrecision; text-rendering:geometricPrecision; image-rendering:optimizeQuality; fill-rule:evenodd; clip-rule:evenodd"
viewBox="0 0 956 1381"
 xmlns:xlink="http://www.w3.org/1999/xlink">
 <defs>
  <style type="text/css">
   <![CDATA[
    .fil0 {fill:#CC9933;fill-rule:nonzero}
   ]]>
  </style>
 </defs>
 <g id="Layer_x0020_1">
  <metadata id="CorelCorpID_0Corel-Layer"/>
  <path class="fil0" d="M62 70l103 0c147,0 318,42 411,166 22,29 34,56 45,90l-559 0c-20,0 -62,9 -62,35 0,27 42,35 62,35l568 0c-4,51 -14,89 -41,131 -96,151 -312,192 -476,192 -19,0 -61,9 -61,35 0,8 6,15 11,20l541 588c12,14 34,19 55,19 10,0 20,-2 28,-4 15,-4 33,-16 33,-31 0,-5 -2,-10 -7,-16l-501 -544c180,-18 387,-70 492,-235 32,-49 45,-96 49,-155l141 0c20,0 62,-8 62,-35 0,-26 -42,-35 -62,-35l-149 0c-12,-45 -28,-80 -56,-117 -50,-67 -105,-100 -175,-139l380 0c20,0 62,-9 62,-35 0,-26 -42,-35 -62,-35l-832 0c-20,0 -62,9 -62,35 0,26 42,35 62,35z"/>
 </g>
</svg>
