<?xml version="1.0" encoding="UTF-8"?>
<!DOCTYPE svg PUBLIC "-//W3C//DTD SVG 1.1//EN" "http://www.w3.org/Graphics/SVG/1.1/DTD/svg11.dtd">
<!-- Creator: CorelDRAW X8 -->
<svg xmlns="http://www.w3.org/2000/svg" xml:space="preserve" width="817px" height="1024px" version="1.1" style="shape-rendering:geometricPrecision; text-rendering:geometricPrecision; image-rendering:optimizeQuality; fill-rule:evenodd; clip-rule:evenodd"
viewBox="0 0 817 1025"
 xmlns:xlink="http://www.w3.org/1999/xlink">
 <defs>
  <style type="text/css">
   <![CDATA[
    .fil0 {fill:#00A0E3;fill-rule:nonzero}
   ]]>
  </style>
 </defs>
 <g id="Layer_x0020_1">
  <metadata id="CorelCorpID_0Corel-Layer"/>
  <path class="fil0" d="M789 249c-42,-179 -218,-252 -384,-249 -156,3 -387,88 -380,282 3,85 49,153 116,200 84,59 184,66 281,81 57,8 118,22 171,46 48,21 101,58 101,117 1,134 -139,220 -257,227 -153,10 -275,-66 -315,-221 -5,-22 -41,-30 -61,-30 -20,0 -68,11 -60,41 55,212 250,293 449,280 164,-10 371,-114 367,-307 -2,-90 -41,-152 -114,-200 -85,-56 -178,-67 -275,-82 -57,-9 -115,-22 -168,-44 -48,-21 -112,-58 -112,-118 -2,-133 149,-200 261,-202 122,-2 228,62 258,188 6,23 41,31 61,31 20,-1 68,-11 61,-40z"/>
 </g>
</svg>
