<?xml version="1.0" encoding="UTF-8"?>
<!DOCTYPE svg PUBLIC "-//W3C//DTD SVG 1.1//EN" "http://www.w3.org/Graphics/SVG/1.1/DTD/svg11.dtd">
<!-- Creator: CorelDRAW X8 -->
<svg xmlns="http://www.w3.org/2000/svg" xml:space="preserve" width="817px" height="1024px" version="1.1" style="shape-rendering:geometricPrecision; text-rendering:geometricPrecision; image-rendering:optimizeQuality; fill-rule:evenodd; clip-rule:evenodd"
viewBox="0 0 817 1024"
 xmlns:xlink="http://www.w3.org/1999/xlink">
 <defs>
  <style type="text/css">
   <![CDATA[
    .fil0 {fill:#CC9933;fill-rule:nonzero}
   ]]>
  </style>
 </defs>
 <g id="Layer_x0020_1">
  <metadata id="CorelCorpID_0Corel-Layer"/>
  <path class="fil0" d="M789 249c-43,-179 -219,-252 -384,-249 -156,3 -387,88 -380,282 3,85 49,153 116,200 84,58 184,66 281,81 57,8 118,21 171,45 47,22 101,58 101,118 0,134 -139,220 -257,227 -153,9 -274,-67 -314,-221 -6,-23 -42,-30 -61,-30 -19,0 -62,9 -62,34 0,2 0,4 1,6 55,212 250,293 449,281 164,-10 371,-114 367,-308 -2,-90 -41,-151 -114,-199 -85,-57 -178,-67 -275,-82 -57,-9 -115,-22 -168,-45 -48,-20 -111,-57 -112,-117 -2,-133 149,-200 261,-202 122,-2 228,62 258,188 5,23 41,31 61,30 18,0 61,-9 61,-33 0,-2 0,-5 0,-6z"/>
 </g>
</svg>
