<?xml version="1.0" encoding="UTF-8"?>
<!DOCTYPE svg PUBLIC "-//W3C//DTD SVG 1.1//EN" "http://www.w3.org/Graphics/SVG/1.1/DTD/svg11.dtd">
<!-- Creator: CorelDRAW 2020 (64-Bit) -->
<svg xmlns="http://www.w3.org/2000/svg" xml:space="preserve" width="912px" height="1780px" version="1.1" style="shape-rendering:geometricPrecision; text-rendering:geometricPrecision; image-rendering:optimizeQuality; fill-rule:evenodd; clip-rule:evenodd"
viewBox="0 0 912 1780"
 xmlns:xlink="http://www.w3.org/1999/xlink"
 xmlns:xodm="http://www.corel.com/coreldraw/odm/2003">
 <defs>
  <style type="text/css">
   <![CDATA[
    .fil0 {fill:#E31E24;fill-rule:nonzero}
   ]]>
  </style>
 </defs>
 <g id="Layer_x0020_1">
  <metadata id="CorelCorpID_0Corel-Layer"/>
  <path class="fil0" d="M811.717 1200.045c62.609,-65.976 100.283,-151.998 100.283,-251.279 0,-99.49 -42.385,-189.227 -116.922,-253.601 -84.695,-73.146 -177.359,-92.46 -283.448,-111.795 -82.045,-14.93 -185.025,-37.372 -251.852,-93.047 -41.458,-34.541 -69.003,-81.872 -69.003,-148.137 0,-154.648 143.705,-272.191 290.411,-272.191 152.916,0 250.988,113.715 278.899,258.43 4.656,25.027 38.714,30.543 59.331,30.543 19.662,0 63.281,-6.391 63.281,-33.443 0,-3.091 -1.065,-7.312 -1.767,-10.345 -47.16,-203.654 -193.153,-315.18 -398.209,-315.18 -200.167,0 -415.417,128.936 -415.417,351.561 0,74.346 25.928,143.582 70.511,200.059 -68.47,60.031 -111.605,142.235 -111.605,242.137 0,97.769 44.831,186.709 117.974,249.403 98.318,84.27 197.601,97.726 300.375,116.515 75.409,13.787 167.773,33.593 230.894,84.975 48.522,39.498 73.013,92.837 73.013,155.687 0,166.87 -147.667,309.689 -310.963,309.689 -177.085,0 -280.032,-141.672 -314.862,-304 -5.389,-25.053 -38.273,-30.268 -59.359,-30.268 -19.34,0 -63.282,6.131 -63.282,32.909 0,5.409 1.193,10.928 2.399,16.177 50.312,218.855 211.279,355.156 434.6,355.156 219.434,0 433.907,-152.054 433.907,-389.038 0,-68.438 -21.095,-135.364 -59.189,-190.917zm-601.246 -579.052c87.344,64.284 176.757,78.005 269.251,95.071 83.488,15.403 176.461,34.438 242.741,91.654 44.974,38.815 67.097,90.859 67.097,150.423 0,59.197 -19.218,116.427 -51.413,165.127 -73.291,-54.982 -166.665,-78.853 -264.474,-96.916 -87.18,-16.1 -174.589,-32.218 -244.605,-85.832 -50.431,-38.617 -79.387,-90.126 -79.387,-156.138 0,-60.871 22.965,-117.609 60.79,-163.389z"/>
 </g>
</svg>
