<?xml version="1.0" encoding="UTF-8"?>
<!DOCTYPE svg PUBLIC "-//W3C//DTD SVG 1.1//EN" "http://www.w3.org/Graphics/SVG/1.1/DTD/svg11.dtd">
<!-- Creator: CorelDRAW 2020 (64-Bit) -->
<svg xmlns="http://www.w3.org/2000/svg" xml:space="preserve" width="241.3mm" height="470.958mm" version="1.1" style="shape-rendering:geometricPrecision; text-rendering:geometricPrecision; image-rendering:optimizeQuality; fill-rule:evenodd; clip-rule:evenodd"
viewBox="0 0 24130 47095.83"
 xmlns:xlink="http://www.w3.org/1999/xlink"
 xmlns:xodm="http://www.corel.com/coreldraw/odm/2003">
 <defs>
  <style type="text/css">
   <![CDATA[
    .fil0 {fill:#2B2A29;fill-rule:nonzero}
   ]]>
  </style>
 </defs>
 <g id="Layer_x0020_1">
  <metadata id="CorelCorpID_0Corel-Layer"/>
  <path class="fil0" d="M21476.68 31751.18c1656.54,-1745.6 2653.32,-4021.6 2653.32,-6648.41 0,-2632.34 -1121.43,-5006.63 -3093.56,-6709.86 -2240.9,-1935.33 -4692.63,-2446.34 -7499.56,-2957.9 -2170.78,-395.03 -4895.45,-988.81 -6663.58,-2461.89 -1096.91,-913.89 -1825.7,-2166.19 -1825.7,-3919.44 0,-4091.73 3802.19,-7201.72 7683.78,-7201.72 4045.91,0 6640.72,3008.71 7379.21,6837.61 123.17,662.19 1024.31,808.12 1569.78,808.12 520.23,0 1674.33,-169.08 1674.33,-884.84 0,-81.78 -28.18,-193.47 -46.75,-273.71 -1247.78,-5388.35 -5110.51,-8339.14 -10535.95,-8339.14 -5296.08,0 -10991.24,3411.42 -10991.24,9301.72 0,1967.06 686,3798.95 1865.59,5293.22 -1811.59,1588.33 -2952.87,3763.3 -2952.87,6406.55 0,2586.81 1186.14,4940.01 3121.4,6598.78 2601.33,2229.65 5228.18,2585.68 7947.41,3082.81 1995.2,364.76 4438.99,888.79 6109.07,2248.28 1283.8,1045.06 1931.79,2456.32 1931.79,4119.21 0,4415.11 -3907,8193.88 -8227.54,8193.88 -4685.39,0 -7409.2,-3748.41 -8330.74,-8043.34 -142.59,-662.87 -1012.63,-800.85 -1570.54,-800.85 -511.69,0 -1674.33,162.22 -1674.33,870.73 0,143.11 31.57,289.13 63.47,428 1331.18,5790.55 5590.09,9396.84 11498.8,9396.84 5805.86,0 11480.45,-4023.1 11480.45,-10293.3 0,-1810.75 -558.14,-3581.49 -1566.04,-5051.35zm-15907.97 -15320.74c2310.97,1700.85 4676.69,2063.89 7123.94,2515.41 2208.94,407.54 4668.85,911.17 6422.52,2425.02 1189.94,1026.97 1775.26,2403.99 1775.26,3979.94 0,1566.27 -508.47,3080.47 -1360.28,4368.99 -1939.18,-1454.72 -4409.69,-2086.31 -6997.56,-2564.23 -2306.62,-425.98 -4619.32,-852.43 -6471.83,-2270.97 -1334.31,-1021.74 -2100.45,-2384.58 -2100.45,-4131.16 0,-1610.54 607.62,-3111.73 1608.4,-4323z"/>
 </g>
</svg>
