<?xml version="1.0" encoding="UTF-8"?>
<!DOCTYPE svg PUBLIC "-//W3C//DTD SVG 1.1//EN" "http://www.w3.org/Graphics/SVG/1.1/DTD/svg11.dtd">
<!-- Creator: CorelDRAW X8 -->
<svg xmlns="http://www.w3.org/2000/svg" xml:space="preserve" width="161px" height="771px" version="1.1" style="shape-rendering:geometricPrecision; text-rendering:geometricPrecision; image-rendering:optimizeQuality; fill-rule:evenodd; clip-rule:evenodd"
viewBox="0 0 161 769"
 xmlns:xlink="http://www.w3.org/1999/xlink">
 <defs>
  <style type="text/css">
   <![CDATA[
    .fil0 {fill:#00A0E3}
   ]]>
  </style>
 </defs>
 <g id="Layer_x0020_1">
  <metadata id="CorelCorpID_0Corel-Layer"/>
  <path class="fil0" d="M75 0c-44,0 -75,38 -75,75 0,36 31,75 75,75 43,0 75,-39 75,-75 0,-37 -32,-75 -75,-75zm0 510c-40,0 -75,35 -75,75 0,37 31,75 75,75 5,0 11,-1 16,-2 -3,18 -8,35 -16,50 -10,19 -26,34 -49,44 -15,6 -6,14 5,16 13,2 27,0 39,-5 28,-13 53,-41 66,-65 14,-24 24,-56 25,-86 1,-29 -6,-56 -26,-77 -16,-17 -37,-25 -60,-25z"/>
 </g>
</svg>
