<?xml version="1.0" encoding="UTF-8"?>
<!DOCTYPE svg PUBLIC "-//W3C//DTD SVG 1.1//EN" "http://www.w3.org/Graphics/SVG/1.1/DTD/svg11.dtd">
<!-- Creator: CorelDRAW 2020 (64-Bit) -->
<svg xmlns="http://www.w3.org/2000/svg" xml:space="preserve" width="275px" height="988px" version="1.1" style="shape-rendering:geometricPrecision; text-rendering:geometricPrecision; image-rendering:optimizeQuality; fill-rule:evenodd; clip-rule:evenodd"
viewBox="0 0 275 988"
 xmlns:xlink="http://www.w3.org/1999/xlink"
 xmlns:xodm="http://www.corel.com/coreldraw/odm/2003">
 <defs>
  <style type="text/css">
   <![CDATA[
    .fil0 {fill:#2B2A29;fill-rule:nonzero}
   ]]>
  </style>
 </defs>
 <g id="Layer_x0020_1">
  <metadata id="CorelCorpID_0Corel-Layer"/>
  <path class="fil0" d="M275 699.752c0,-99.862 -55.797,-178.752 -161.413,-178.752 -65.761,0 -113.587,51.928 -113.587,117.836 0,65.909 49.819,117.093 113.587,117.093 19.928,0 37.862,-4.993 52.808,-13.981 -1.886,79.348 -55.458,189.765 -135.529,211.372 -7.826,2.112 -10.481,3.441 -10.481,6.419 -0.001,25.607 36.434,28.285 54.993,28.26 130.469,-0.174 199.622,-176.899 199.622,-288.247zm-157.5 -464.752c65.391,0 117.5,-52.109 117.5,-117.5 0,-65.391 -52.109,-117.5 -117.5,-117.5 -65.391,0 -117.5,52.109 -117.5,117.5 0,65.391 52.109,117.5 117.5,117.5z"/>
 </g>
</svg>
