<?xml version="1.0" encoding="UTF-8"?>
<!DOCTYPE svg PUBLIC "-//W3C//DTD SVG 1.1//EN" "http://www.w3.org/Graphics/SVG/1.1/DTD/svg11.dtd">
<!-- Creator: CorelDRAW X8 -->
<svg xmlns="http://www.w3.org/2000/svg" xml:space="preserve" width="161px" height="771px" version="1.1" style="shape-rendering:geometricPrecision; text-rendering:geometricPrecision; image-rendering:optimizeQuality; fill-rule:evenodd; clip-rule:evenodd"
viewBox="0 0 161 769"
 xmlns:xlink="http://www.w3.org/1999/xlink">
 <defs>
  <style type="text/css">
   <![CDATA[
    .fil0 {fill:#2B2A29;fill-rule:nonzero}
   ]]>
  </style>
 </defs>
 <g id="Layer_x0020_1">
  <metadata id="CorelCorpID_0Corel-Layer"/>
  <path class="fil0" d="M70 762c28,-12 53,-40 66,-64 15,-28 25,-60 25,-92 0,-26 -8,-51 -26,-71 -16,-16 -37,-25 -60,-25 -40,0 -75,35 -75,75 0,36 31,75 75,75 5,0 11,-1 16,-2 -3,18 -8,35 -16,49 -10,19 -26,35 -49,45 -6,2 -8,5 -8,7 0,7 11,10 20,10 13,0 28,-5 32,-7zm5 -612c43,0 75,-38 75,-75 0,-37 -32,-75 -75,-75 -43,0 -75,38 -75,75 0,37 32,75 75,75z"/>
 </g>
</svg>
