<?xml version="1.0" encoding="UTF-8"?>
<!DOCTYPE svg PUBLIC "-//W3C//DTD SVG 1.1//EN" "http://www.w3.org/Graphics/SVG/1.1/DTD/svg11.dtd">
<!-- Creator: CorelDRAW 2020 (64-Bit) -->
<svg xmlns="http://www.w3.org/2000/svg" xml:space="preserve" width="102.658mm" height="173.302mm" version="1.1" style="shape-rendering:geometricPrecision; text-rendering:geometricPrecision; image-rendering:optimizeQuality; fill-rule:evenodd; clip-rule:evenodd"
viewBox="0 0 10265.82 17330.2"
 xmlns:xlink="http://www.w3.org/1999/xlink"
 xmlns:xodm="http://www.corel.com/coreldraw/odm/2003">
 <defs>
  <style type="text/css">
   <![CDATA[
    .fil0 {fill:#2B2A29;fill-rule:nonzero}
   ]]>
  </style>
 </defs>
 <g id="Layer_x0020_1">
  <metadata id="CorelCorpID_0Corel-Layer"/>
  <path class="fil0" d="M1031.86 17330.2c-187.61,0 -398.22,-54.32 -556.98,-105.81 -239.92,-77.83 -474.88,-264.55 -474.88,-476.17 0,-105.82 22.06,-183.66 128.99,-288.05l7996.9 -7806.83 -7996.9 -7783.31c-107.1,-104.23 -128.99,-211.63 -128.99,-288.05 0,-211.63 230.9,-408.43 474.88,-505.56 155.08,-61.74 340.05,-76.43 527.66,-76.43 316.6,0 630.49,79.19 844.25,288.05l8260.74 8071.37c95.73,93.55 158.29,188.11 158.29,293.93 0,105.81 -54.65,209.65 -134.84,288.05l-8284.19 8100.76c-184.01,179.93 -498.34,288.05 -814.93,288.05z"/>
 </g>
</svg>
