<?xml version="1.0" encoding="UTF-8"?>
<!DOCTYPE svg PUBLIC "-//W3C//DTD SVG 1.1//EN" "http://www.w3.org/Graphics/SVG/1.1/DTD/svg11.dtd">
<!-- Creator: CorelDRAW 2020 (64-Bit) -->
<svg xmlns="http://www.w3.org/2000/svg" xml:space="preserve" width="388px" height="655px" version="1.1" style="shape-rendering:geometricPrecision; text-rendering:geometricPrecision; image-rendering:optimizeQuality; fill-rule:evenodd; clip-rule:evenodd"
viewBox="0 0 388 655.001"
 xmlns:xlink="http://www.w3.org/1999/xlink"
 xmlns:xodm="http://www.corel.com/coreldraw/odm/2003">
 <defs>
  <style type="text/css">
   <![CDATA[
    .fil0 {fill:#E31E24;fill-rule:nonzero}
   ]]>
  </style>
 </defs>
 <g id="Layer_x0020_1">
  <metadata id="CorelCorpID_0Corel-Layer"/>
  <path class="fil0" d="M349.001 655.001c-11.966,0 -23.846,-4.087 -30.801,-10.887l-313.104 -306.171c-3.03,-2.963 -5.096,-6.888 -5.096,-10.887 0,-3.999 2.364,-7.573 5.983,-11.109l312.217 -305.06c8.079,-7.894 19.943,-10.887 31.909,-10.887 7.09,0 14.081,0.555 19.943,2.889 9.221,3.671 17.948,11.109 17.948,19.108 0,2.888 -0.827,6.947 -4.875,10.886l-302.246 294.173 302.246 295.062c4.041,3.945 4.875,6.887 4.875,10.887 0,7.998 -8.88,15.055 -17.948,17.997 -6.001,1.946 -13.961,3.999 -21.051,3.999z"/>
 </g>
</svg>
