<?xml version="1.0" encoding="UTF-8"?>
<!DOCTYPE svg PUBLIC "-//W3C//DTD SVG 1.1//EN" "http://www.w3.org/Graphics/SVG/1.1/DTD/svg11.dtd">
<!-- Creator: CorelDRAW 2020 (64-Bit) -->
<svg xmlns="http://www.w3.org/2000/svg" xml:space="preserve" width="102.658mm" height="173.302mm" version="1.1" style="shape-rendering:geometricPrecision; text-rendering:geometricPrecision; image-rendering:optimizeQuality; fill-rule:evenodd; clip-rule:evenodd"
viewBox="0 0 10265.82 17330.21"
 xmlns:xlink="http://www.w3.org/1999/xlink"
 xmlns:xodm="http://www.corel.com/coreldraw/odm/2003">
 <defs>
  <style type="text/css">
   <![CDATA[
    .fil0 {fill:#2B2A29;fill-rule:nonzero}
   ]]>
  </style>
 </defs>
 <g id="Layer_x0020_1">
  <metadata id="CorelCorpID_0Corel-Layer"/>
  <path class="fil0" d="M9233.96 17330.21c-316.59,0 -630.92,-108.12 -814.93,-288.05l-8284.19 -8100.76c-80.19,-78.4 -134.84,-182.24 -134.84,-288.05 0,-105.82 62.56,-200.38 158.29,-293.93l8260.74 -8071.37c213.76,-208.86 527.65,-288.05 844.25,-288.05 187.61,0 372.58,14.69 527.66,76.43 243.98,97.13 474.88,293.93 474.88,505.56 0,76.42 -21.89,183.82 -128.99,288.05l-7996.9 7783.31 7996.9 7806.83c106.93,104.39 128.99,182.23 128.99,288.05 0,211.62 -234.96,398.34 -474.88,476.17 -158.76,51.49 -369.37,105.81 -556.98,105.81z"/>
 </g>
</svg>
