<?xml version="1.0" encoding="UTF-8"?>
<!DOCTYPE svg PUBLIC "-//W3C//DTD SVG 1.1//EN" "http://www.w3.org/Graphics/SVG/1.1/DTD/svg11.dtd">
<!-- Creator: CorelDRAW 2020 (64-Bit) -->
<svg xmlns="http://www.w3.org/2000/svg" xml:space="preserve" width="192.352mm" height="66.1458mm" version="1.1" style="shape-rendering:geometricPrecision; text-rendering:geometricPrecision; image-rendering:optimizeQuality; fill-rule:evenodd; clip-rule:evenodd"
viewBox="0 0 19235.2 6614.58"
 xmlns:xlink="http://www.w3.org/1999/xlink"
 xmlns:xodm="http://www.corel.com/coreldraw/odm/2003">
 <defs>
  <style type="text/css">
   <![CDATA[
    .fil0 {fill:#2B2A29;fill-rule:nonzero}
   ]]>
  </style>
 </defs>
 <g id="Layer_x0020_1">
  <metadata id="CorelCorpID_0Corel-Layer"/>
  <path class="fil0" d="M14309.77 6614.57c1449.14,0 2725.11,-509.26 3624.92,-1804.26 660.84,-951.09 1300.51,-2935.55 1300.51,-4145.27 0,-437.96 -568.07,-665.03 -1138.34,-665.03 -551.79,0 -1105.65,204.27 -1148.91,627.87 -155.95,1526.9 -796.82,4628.33 -2638.18,4628.33 -1448.83,0 -2839.55,-1417.2 -3810.7,-2357.52 -1671.82,-1618.74 -3158.38,-2881.87 -5482.79,-2881.87 -1442.83,0 -2548.67,557.33 -3509.3,1634.99 -955.73,1072.14 -1491.37,2510.23 -1506.95,3996.63 -5.06,483.04 726.32,677.73 1061.06,685.37 387.98,8.87 1169.73,-127.84 1226.19,-631.69 157.6,-1406.34 925.33,-4326.93 2729,-4326.93 1337.67,0 2604.17,1318.07 3513.45,2208.88 1739.68,1704.33 3198.15,3030.5 5780.04,3030.5z"/>
 </g>
</svg>
