<?xml version="1.0" encoding="UTF-8"?>
<!DOCTYPE svg PUBLIC "-//W3C//DTD SVG 1.1//EN" "http://www.w3.org/Graphics/SVG/1.1/DTD/svg11.dtd">
<!-- Creator: CorelDRAW 2020 (64-Bit) -->
<svg xmlns="http://www.w3.org/2000/svg" xml:space="preserve" width="727px" height="250px" version="1.1" style="shape-rendering:geometricPrecision; text-rendering:geometricPrecision; image-rendering:optimizeQuality; fill-rule:evenodd; clip-rule:evenodd"
viewBox="0 0 727 250"
 xmlns:xlink="http://www.w3.org/1999/xlink"
 xmlns:xodm="http://www.corel.com/coreldraw/odm/2003">
 <defs>
  <style type="text/css">
   <![CDATA[
    .fil0 {fill:#E31E24;fill-rule:nonzero}
   ]]>
  </style>
 </defs>
 <g id="Layer_x0020_1">
  <metadata id="CorelCorpID_0Corel-Layer"/>
  <path class="fil0" d="M540.842 250c54.771,0 102.996,-19.248 137.005,-68.193 24.976,-35.947 49.153,-110.95 49.153,-156.672 0,-16.552 -21.47,-25.135 -43.024,-25.135 -20.855,0 -41.788,7.721 -43.423,23.731 -5.894,57.71 -30.116,174.929 -99.711,174.929 -54.759,0 -107.322,-53.563 -144.027,-89.103 -63.187,-61.181 -119.371,-108.921 -207.223,-108.921 -54.532,0 -96.328,21.064 -132.635,61.795 -36.122,40.521 -56.367,94.875 -56.956,151.053 -0.191,18.257 27.452,25.615 40.103,25.904 14.664,0.335 44.21,-4.832 46.344,-23.875 5.957,-53.153 34.974,-163.537 103.144,-163.537 50.557,0 98.425,49.817 132.792,83.485 65.751,64.416 120.875,114.539 218.458,114.539z"/>
 </g>
</svg>
