<?xml version="1.0" encoding="UTF-8"?>
<!DOCTYPE svg PUBLIC "-//W3C//DTD SVG 1.1//EN" "http://www.w3.org/Graphics/SVG/1.1/DTD/svg11.dtd">
<!-- Creator: CorelDRAW X8 -->
<svg xmlns="http://www.w3.org/2000/svg" xml:space="preserve" width="1100px" height="1405px" version="1.1" style="shape-rendering:geometricPrecision; text-rendering:geometricPrecision; image-rendering:optimizeQuality; fill-rule:evenodd; clip-rule:evenodd"
viewBox="0 0 1100 1405"
 xmlns:xlink="http://www.w3.org/1999/xlink">
 <defs>
  <style type="text/css">
   <![CDATA[
    .fil0 {fill:#2B2A29;fill-rule:nonzero}
   ]]>
  </style>
 </defs>
 <g id="Layer_x0020_1">
  <metadata id="CorelCorpID_0Corel-Layer"/>
  <path class="fil0" d="M554 1405c235,0 546,-126 546,-400 0,-118 -42,-223 -141,-288 -104,-68 -248,-90 -370,-103 -91,-9 -192,-30 -276,-67 -76,-33 -155,-87 -155,-179 0,-206 225,-298 401,-298 178,0 336,90 380,275 5,20 33,30 61,30 31,0 61,-12 61,-33 0,-3 -2,-9 -3,-14 -58,-229 -282,-328 -499,-328 -219,0 -524,106 -524,368 0,136 64,234 183,297 108,58 242,79 362,91 85,9 179,29 257,66 77,37 140,92 140,183 0,217 -235,330 -423,330 -207,0 -376,-107 -432,-322 -5,-20 -34,-29 -62,-29 -30,0 -60,12 -60,33 0,4 2,10 3,14 72,261 301,374 551,374z"/>
 </g>
</svg>
