<?xml version="1.0" encoding="UTF-8"?>
<!DOCTYPE svg PUBLIC "-//W3C//DTD SVG 1.1//EN" "http://www.w3.org/Graphics/SVG/1.1/DTD/svg11.dtd">
<!-- Creator: CorelDRAW X8 -->
<svg xmlns="http://www.w3.org/2000/svg" xml:space="preserve" width="1082px" height="1388px" version="1.1" style="shape-rendering:geometricPrecision; text-rendering:geometricPrecision; image-rendering:optimizeQuality; fill-rule:evenodd; clip-rule:evenodd"
viewBox="0 0 1082 1388"
 xmlns:xlink="http://www.w3.org/1999/xlink">
 <defs>
  <style type="text/css">
   <![CDATA[
    .fil0 {fill:#2B2A29;fill-rule:nonzero}
   ]]>
  </style>
 </defs>
 <g id="Layer_x0020_1">
  <metadata id="CorelCorpID_0Corel-Layer"/>
  <path class="fil0" d="M62 1388c19,0 61,-9 61,-35l0 -309 568 0c201,0 391,-145 391,-361 0,-215 -190,-360 -391,-360l-568 0 0 -288c0,-26 -42,-35 -61,-35 -20,0 -62,9 -62,35l0 1318c0,26 42,35 62,35zm629 -414l-568 0 0 -581 568 0c151,0 268,142 268,290 0,149 -117,291 -268,291z"/>
 </g>
</svg>
