<?xml version="1.0" encoding="UTF-8"?>
<!DOCTYPE svg PUBLIC "-//W3C//DTD SVG 1.1//EN" "http://www.w3.org/Graphics/SVG/1.1/DTD/svg11.dtd">
<!-- Creator: CorelDRAW X8 -->
<svg xmlns="http://www.w3.org/2000/svg" xml:space="preserve" width="1035px" height="356px" version="1.1" style="shape-rendering:geometricPrecision; text-rendering:geometricPrecision; image-rendering:optimizeQuality; fill-rule:evenodd; clip-rule:evenodd"
viewBox="0 0 1035 356"
 xmlns:xlink="http://www.w3.org/1999/xlink">
 <defs>
  <style type="text/css">
   <![CDATA[
    .fil0 {fill:#CC9933;fill-rule:nonzero}
   ]]>
  </style>
 </defs>
 <g id="Layer_x0020_1">
  <metadata id="CorelCorpID_0Corel-Layer"/>
  <path class="fil0" d="M123 307c8,-80 50,-229 143,-233 73,-3 143,70 193,119 93,91 171,160 305,163 81,2 151,-25 201,-96 36,-52 71,-159 70,-224 0,-26 -39,-35 -58,-36 -20,-1 -62,7 -65,34 -8,82 -43,251 -144,249 -74,-2 -139,-65 -203,-127 -94,-91 -172,-161 -308,-155 -67,3 -129,36 -176,88 -51,58 -80,135 -81,215 0,26 38,36 57,37 20,1 63,-7 66,-34z"/>
 </g>
</svg>
