<?xml version="1.0" encoding="UTF-8"?>
<!DOCTYPE svg PUBLIC "-//W3C//DTD SVG 1.1//EN" "http://www.w3.org/Graphics/SVG/1.1/DTD/svg11.dtd">
<!-- Creator: CorelDRAW X8 -->
<svg xmlns="http://www.w3.org/2000/svg" xml:space="preserve" width="1035px" height="356px" version="1.1" style="shape-rendering:geometricPrecision; text-rendering:geometricPrecision; image-rendering:optimizeQuality; fill-rule:evenodd; clip-rule:evenodd"
viewBox="0 0 1035 356"
 xmlns:xlink="http://www.w3.org/1999/xlink">
 <defs>
  <style type="text/css">
   <![CDATA[
    .fil0 {fill:#2B2A29;fill-rule:nonzero}
   ]]>
  </style>
 </defs>
 <g id="Layer_x0020_1">
  <metadata id="CorelCorpID_0Corel-Layer"/>
  <path class="fil0" d="M770 356c78,0 147,-28 195,-97 36,-51 70,-158 70,-223 0,-24 -31,-36 -61,-36 -30,0 -60,11 -62,34 -8,82 -43,249 -142,249 -78,0 -153,-76 -205,-127 -90,-87 -170,-155 -295,-155 -78,0 -137,30 -189,88 -51,58 -80,135 -81,215 0,26 39,36 57,37 21,0 63,-7 66,-34 9,-76 50,-233 147,-233 72,0 140,71 189,119 94,92 172,163 311,163z"/>
 </g>
</svg>
