<?xml version="1.0" encoding="UTF-8"?>
<!DOCTYPE svg PUBLIC "-//W3C//DTD SVG 1.1//EN" "http://www.w3.org/Graphics/SVG/1.1/DTD/svg11.dtd">
<!-- Creator: CorelDRAW 2020 (64-Bit) -->
<svg xmlns="http://www.w3.org/2000/svg" xml:space="preserve" width="388px" height="655px" version="1.1" style="shape-rendering:geometricPrecision; text-rendering:geometricPrecision; image-rendering:optimizeQuality; fill-rule:evenodd; clip-rule:evenodd"
viewBox="0 0 388 655.001"
 xmlns:xlink="http://www.w3.org/1999/xlink"
 xmlns:xodm="http://www.corel.com/coreldraw/odm/2003">
 <defs>
  <style type="text/css">
   <![CDATA[
    .fil0 {fill:#E31E24;fill-rule:nonzero}
   ]]>
  </style>
 </defs>
 <g id="Layer_x0020_1">
  <metadata id="CorelCorpID_0Corel-Layer"/>
  <path class="fil0" d="M38.999 655.001c-7.09,0 -15.05,-2.053 -21.051,-3.999 -9.068,-2.942 -17.948,-9.999 -17.948,-17.997 0,-4 0.834,-6.942 4.875,-10.887l302.246 -295.062 -302.246 -294.173c-4.048,-3.939 -4.875,-7.998 -4.875,-10.886 0,-7.999 8.727,-15.437 17.948,-19.108 5.862,-2.334 12.853,-2.889 19.943,-2.889 11.966,0 23.83,2.993 31.909,10.887l312.217 305.06c3.619,3.536 5.983,7.11 5.983,11.109 0,3.999 -2.066,7.924 -5.096,10.887l-313.104 306.171c-6.955,6.8 -18.835,10.887 -30.801,10.887z"/>
 </g>
</svg>
