<?xml version="1.0" encoding="UTF-8"?>
<!DOCTYPE svg PUBLIC "-//W3C//DTD SVG 1.1//EN" "http://www.w3.org/Graphics/SVG/1.1/DTD/svg11.dtd">
<!-- Creator: CorelDRAW 2020 (64-Bit) -->
<svg xmlns="http://www.w3.org/2000/svg" xml:space="preserve" width="302.272mm" height="371.74mm" version="1.1" style="shape-rendering:geometricPrecision; text-rendering:geometricPrecision; image-rendering:optimizeQuality; fill-rule:evenodd; clip-rule:evenodd"
viewBox="0 0 30227.14 37173.94"
 xmlns:xlink="http://www.w3.org/1999/xlink"
 xmlns:xodm="http://www.corel.com/coreldraw/odm/2003">
 <defs>
  <style type="text/css">
   <![CDATA[
    .fil0 {fill:#2B2A29;fill-rule:nonzero}
   ]]>
  </style>
 </defs>
 <g id="Layer_x0020_1">
  <metadata id="CorelCorpID_0Corel-Layer"/>
  <g id="_1255942516112">
   <path class="fil0" d="M24259.33 37172.47c2945.62,0 5967.81,-1640.15 5967.81,-4973.35 0,-2198.62 -1195.92,-3491.93 -3022.19,-4420.76 1590.62,-875.92 2545,-2010.51 2545,-3944.58 0,-3068.67 -2786.55,-4573.61 -5490.62,-4573.61 -2727.63,0 -5514.17,1504.94 -5514.17,4573.61 0,1934.07 954.38,3068.66 2545,3944.58 -1826.28,928.83 -3022.19,2222.14 -3022.19,4420.76 0,3333.2 3022.19,4973.35 5991.36,4973.35zm0 -9976.1c-1932.32,0 -3363.88,-1375.61 -3363.88,-3362.59 0,-1981.12 1431.56,-3333.2 3363.88,-3333.2 1908.76,0 3340.32,1352.08 3340.32,3333.2 0,1986.98 -1431.56,3362.59 -3340.32,3362.59zm0 8759.21c-2173.85,0 -3817.5,-1510.81 -3817.5,-3756.46 0,-2251.53 1643.65,-3756.47 3817.5,-3756.47 2150.3,0 3793.95,1504.94 3793.95,3756.47 0,2245.65 -1643.65,3756.46 -3793.95,3756.46z"/>
   <path class="fil0" d="M5903.15 17915.23c2881.02,0 5526.85,-1852.09 5526.85,-5027.09 0,-2116.66 -1081.85,-3492.5 -2857.5,-4392.08 1428.75,-852.55 2381.25,-2016.71 2381.25,-3786.48 0,-3151.48 -2751.67,-4709.59 -5526.85,-4709.59 -1405.23,0 -2884.97,425.49 -3968.75,1399.36 -1003.49,901.72 -1428.75,2116.67 -1428.75,3439.58l0 346.9c0,476.82 741.04,617.83 1111.25,605.6 341.64,-11.29 1028.93,-158.75 1028.93,-605.6l0 -293.98c0,-923.11 246.79,-1818.09 823.15,-2540 587.83,-736.28 1399.39,-1142.39 2351.85,-1134.77 1987.39,15.9 3468.99,1452.27 3468.99,3492.5 0,1824.04 -1323.14,3024.76 -3052.69,3225.64 -248.55,28.86 -497.94,38.42 -757.32,55.19 -317.7,20.54 -1005.41,182.27 -1005.41,611.48 0,476.25 711.43,635 1081.85,635l717.32 0c2109.87,0 3492.5,1511.9 3492.5,3621.85 0,2040.24 -1322.92,3810 -3386.67,3810 -2251.9,0 -3733.57,-1505.18 -3733.57,-3810 0,-446.85 -740.83,-605.6 -1081.85,-605.6 -346.9,0 -1087.73,158.75 -1087.73,605.6 0,3439.59 2833.98,5056.49 5903.15,5056.49z"/>
   <path class="fil0" d="M6726.96 36760.3l19314.14 -35896.39c42.58,-79.15 106.26,-198.58 106.26,-287.34 0,-360.68 -542.52,-576.56 -1080.36,-576.56 -419.04,0 -827.89,129.04 -983.39,417.78l-19335.98 35902.6c-36.46,67.71 -91.61,166.54 -90.3,257.61 5.48,378.55 528.91,595.92 1059.62,595.93 411.7,0.01 849.85,-115.97 1010.01,-413.63z"/>
  </g>
 </g>
</svg>
