<?xml version="1.0" encoding="UTF-8"?>
<!DOCTYPE svg PUBLIC "-//W3C//DTD SVG 1.1//EN" "http://www.w3.org/Graphics/SVG/1.1/DTD/svg11.dtd">
<!-- Creator: CorelDRAW 2020 (64-Bit) -->
<svg xmlns="http://www.w3.org/2000/svg" xml:space="preserve" width="277.93mm" height="371.857mm" version="1.1" style="shape-rendering:geometricPrecision; text-rendering:geometricPrecision; image-rendering:optimizeQuality; fill-rule:evenodd; clip-rule:evenodd"
viewBox="0 0 27793.02 37185.71"
 xmlns:xlink="http://www.w3.org/1999/xlink"
 xmlns:xodm="http://www.corel.com/coreldraw/odm/2003">
 <defs>
  <style type="text/css">
   <![CDATA[
    .fil0 {fill:#2B2A29;fill-rule:nonzero}
   ]]>
  </style>
 </defs>
 <g id="Layer_x0020_1">
  <metadata id="CorelCorpID_0Corel-Layer"/>
  <g id="_1255932725728">
   <path class="fil0" d="M21825.21 37185.71c2945.62,0 5967.81,-1642.57 5967.81,-4980.7 0,-2201.87 -1195.92,-3497.09 -3022.19,-4427.29 1590.62,-877.22 2545,-2013.48 2545,-3950.4 0,-3073.2 -2786.55,-4580.37 -5490.62,-4580.37 -2727.63,0 -5514.17,1507.17 -5514.17,4580.37 0,1936.92 954.38,3073.18 2545,3950.4 -1826.28,930.2 -3022.19,2225.42 -3022.19,4427.29 0,3338.13 3022.19,4980.7 5991.36,4980.7zm0 -9990.84c-1932.32,0 -3363.88,-1377.64 -3363.88,-3367.55 0,-1984.05 1431.56,-3338.13 3363.88,-3338.13 1908.76,0 3340.32,1354.08 3340.32,3338.13 0,1989.91 -1431.56,3367.55 -3340.32,3367.55zm0 8772.15c-2173.85,0 -3817.5,-1513.04 -3817.5,-3762.01 0,-2254.86 1643.65,-3762.01 3817.5,-3762.01 2150.3,0 3793.95,1507.15 3793.95,3762.01 0,2248.97 -1643.65,3762.01 -3793.95,3762.01z"/>
   <path class="fil0" d="M6114.82 16698.15c165.2,-2992.38 608.52,-5978.51 1640.41,-8784.16 955.41,-2597.72 2338.02,-4908.58 4021.67,-7043.8 92.67,-117.52 129.35,-211.67 129.35,-288.1 0,-158.75 -123.65,-303.09 -288.1,-399.82 -235.8,-138.71 -558.58,-182.27 -770.23,-182.27l-9789.59 0c-341.01,0 -1058.33,158.75 -1058.33,605.61 0,452.73 717.31,611.48 1058.33,611.48l8178.57 0c-1481.67,2034.35 -2677.21,4073.86 -3545.42,6432.31 -1060.31,2880.29 -1693.33,6664.56 -1693.33,9019.35 0,504.11 679.7,611.49 1066.94,611.49 361.21,0 1024.56,-126.19 1049.73,-582.09z"/>
   <path class="fil0" d="M4292.83 36760.31l19314.15 -35896.4c42.58,-79.15 106.26,-198.58 106.26,-287.34 0,-360.68 -542.52,-576.56 -1080.36,-576.56 -419.04,0 -827.89,129.04 -983.39,417.78l-19335.99 35902.61c-36.46,67.71 -91.61,166.54 -90.3,257.61 5.48,378.55 528.91,595.92 1059.62,595.93 411.7,0.01 849.85,-115.97 1010.01,-413.63z"/>
  </g>
 </g>
</svg>
