<?xml version="1.0" encoding="UTF-8"?>
<!DOCTYPE svg PUBLIC "-//W3C//DTD SVG 1.1//EN" "http://www.w3.org/Graphics/SVG/1.1/DTD/svg11.dtd">
<!-- Creator: CorelDRAW 2020 (64-Bit) -->
<svg xmlns="http://www.w3.org/2000/svg" xml:space="preserve" width="302.683mm" height="371.739mm" version="1.1" style="shape-rendering:geometricPrecision; text-rendering:geometricPrecision; image-rendering:optimizeQuality; fill-rule:evenodd; clip-rule:evenodd"
viewBox="0 0 30268.32 37173.94"
 xmlns:xlink="http://www.w3.org/1999/xlink"
 xmlns:xodm="http://www.corel.com/coreldraw/odm/2003">
 <defs>
  <style type="text/css">
   <![CDATA[
    .fil0 {fill:#2B2A29;fill-rule:nonzero}
   ]]>
  </style>
 </defs>
 <g id="Layer_x0020_1">
  <metadata id="CorelCorpID_0Corel-Layer"/>
  <g id="_1256046171776">
   <path class="fil0" d="M24300.51 37172.47c2945.62,0 5967.81,-1640.15 5967.81,-4973.36 0,-2198.61 -1195.92,-3491.92 -3022.19,-4420.75 1590.62,-875.92 2545,-2010.51 2545,-3944.58 0,-3068.66 -2786.55,-4573.61 -5490.62,-4573.61 -2727.63,0 -5514.17,1504.95 -5514.17,4573.61 0,1934.07 954.38,3068.66 2545,3944.58 -1826.28,928.83 -3022.19,2222.14 -3022.19,4420.75 0,3333.21 3022.19,4973.36 5991.36,4973.36zm0 -9976.1c-1932.32,0 -3363.88,-1375.61 -3363.88,-3362.59 0,-1981.11 1431.56,-3333.2 3363.88,-3333.2 1908.76,0 3340.32,1352.09 3340.32,3333.2 0,1986.98 -1431.56,3362.59 -3340.32,3362.59zm0 8759.21c-2173.85,0 -3817.5,-1510.82 -3817.5,-3756.47 0,-2251.53 1643.65,-3756.46 3817.5,-3756.46 2150.3,0 3793.95,1504.93 3793.95,3756.46 0,2245.65 -1643.65,3756.47 -3793.95,3756.47z"/>
   <path class="fil0" d="M11512.33 12064.99c0,-3412.86 -2493.37,-5556.25 -5797.32,-5556.25 -976.02,0 -1825.62,132.32 -2775.19,552.69l711.44 -5526.85 6244.17 0c346.9,0 1058.33,-158.75 1058.33,-611.48 0,-446.86 -711.45,-605.61 -1058.33,-605.61l-7220.19 0c-346.88,0 -1003.98,158.95 -1058.33,582.09l-1069.17 8322.21c-8.63,67.24 -23.04,144.56 -23.04,211.78 0,483.33 707.15,597.07 1115.73,597.07 423.33,0 723.73,-154.47 1005.41,-582.08 694.36,-1054.1 1828.57,-1722.73 3069.17,-1722.73 2382.49,0 3680.65,2165.87 3680.65,4339.16 0,2222.5 -1405.17,4325.91 -3733.57,4339.17 -1799.14,10.24 -3138.81,-1348.01 -3545.41,-3092.68 -99.04,-424.97 -764.36,-529.17 -1081.86,-529.17 -317.5,0 -1034.81,182.27 -1034.81,605.6 0,280.97 247.14,890.51 365.86,1143.46 950.64,2025.48 3064.65,3066.36 5296.22,3066.36 3306.5,0 5850.24,-2116.39 5850.24,-5532.74z"/>
   <path class="fil0" d="M6768.13 36760.3l19314.15 -35896.4c42.58,-79.15 106.26,-198.58 106.26,-287.34 0,-360.68 -542.52,-576.56 -1080.36,-576.56 -419.04,0 -827.89,129.04 -983.39,417.78l-19335.99 35902.61c-36.46,67.71 -91.61,166.54 -90.3,257.61 5.48,378.55 528.91,595.92 1059.62,595.93 411.7,0.01 849.85,-115.97 1010.01,-413.63z"/>
  </g>
 </g>
</svg>
