<?xml version="1.0" encoding="UTF-8"?>
<!DOCTYPE svg PUBLIC "-//W3C//DTD SVG 1.1//EN" "http://www.w3.org/Graphics/SVG/1.1/DTD/svg11.dtd">
<!-- Creator: CorelDRAW 2020 (64-Bit) -->
<svg xmlns="http://www.w3.org/2000/svg" xml:space="preserve" width="273.696mm" height="371.739mm" version="1.1" style="shape-rendering:geometricPrecision; text-rendering:geometricPrecision; image-rendering:optimizeQuality; fill-rule:evenodd; clip-rule:evenodd"
viewBox="0 0 27369.62 37173.94"
 xmlns:xlink="http://www.w3.org/1999/xlink"
 xmlns:xodm="http://www.corel.com/coreldraw/odm/2003">
 <defs>
  <style type="text/css">
   <![CDATA[
    .fil0 {fill:#2B2A29;fill-rule:nonzero}
   ]]>
  </style>
 </defs>
 <g id="Layer_x0020_1">
  <metadata id="CorelCorpID_0Corel-Layer"/>
  <g id="_1255988562928">
   <path class="fil0" d="M21401.81 37172.47c2945.62,0 5967.81,-1640.15 5967.81,-4973.35 0,-2198.62 -1195.92,-3491.93 -3022.19,-4420.76 1590.62,-875.92 2545,-2010.51 2545,-3944.58 0,-3068.67 -2786.55,-4573.61 -5490.62,-4573.61 -2727.63,0 -5514.17,1504.94 -5514.17,4573.61 0,1934.07 954.38,3068.66 2545,3944.58 -1826.28,928.83 -3022.19,2222.14 -3022.19,4420.76 0,3333.2 3022.19,4973.35 5991.36,4973.35zm0 -9976.1c-1932.32,0 -3363.88,-1375.61 -3363.88,-3362.59 0,-1981.12 1431.56,-3333.2 3363.88,-3333.2 1908.76,0 3340.32,1352.08 3340.32,3333.2 0,1986.98 -1431.56,3362.59 -3340.32,3362.59zm0 8759.21c-2173.85,0 -3817.5,-1510.81 -3817.5,-3756.46 0,-2251.53 1643.65,-3756.47 3817.5,-3756.47 2150.3,0 3793.95,1504.94 3793.95,3756.47 0,2245.65 -1643.65,3756.46 -3793.95,3756.46z"/>
   <path class="fil0" d="M3340.27 36760.3l19314.15 -35896.4c42.58,-79.15 106.26,-198.58 106.26,-287.34 0,-360.68 -542.52,-576.56 -1080.36,-576.56 -419.04,0 -827.89,129.04 -983.39,417.78l-19335.99 35902.61c-36.46,67.71 -91.61,166.54 -90.3,257.61 5.48,378.55 528.91,595.92 1059.62,595.93 411.7,0.01 849.85,-115.97 1010.01,-413.63z"/>
   <path class="fil0" d="M4844.81 17900.53c370.42,0 1081.86,-158.75 1081.86,-635l0 -16615.84c0,-476.25 -711.44,-635 -1081.86,-635 -370.41,0 -1027.1,159.68 -1087.73,635 -121.64,953.51 -486.79,1866.08 -1134.77,2592.92 -463.42,519.82 -1109.96,985.2 -1828.56,1081.85 -287.01,38.6 -793.75,211.67 -793.75,582.09 0,481.19 779.63,611.48 1140.65,611.48 894.89,0 1920.17,-278.74 2645.83,-981.9l0 12729.4c0,476.24 711.44,635 1058.33,635z"/>
  </g>
 </g>
</svg>
