<?xml version="1.0" encoding="UTF-8"?>
<!DOCTYPE svg PUBLIC "-//W3C//DTD SVG 1.1//EN" "http://www.w3.org/Graphics/SVG/1.1/DTD/svg11.dtd">
<!-- Creator: CorelDRAW 2020 (64-Bit) -->
<svg xmlns="http://www.w3.org/2000/svg" xml:space="preserve" width="1043px" height="1405px" version="1.1" style="shape-rendering:geometricPrecision; text-rendering:geometricPrecision; image-rendering:optimizeQuality; fill-rule:evenodd; clip-rule:evenodd"
viewBox="0 0 1043 1405.001"
 xmlns:xlink="http://www.w3.org/1999/xlink"
 xmlns:xodm="http://www.corel.com/coreldraw/odm/2003">
 <defs>
  <style type="text/css">
   <![CDATA[
    .fil0 {fill:#E31E24;fill-rule:nonzero}
   ]]>
  </style>
 </defs>
 <g id="Layer_x0020_1">
  <metadata id="CorelCorpID_0Corel-Layer"/>
  <path class="fil0" d="M885.889 1405.001c13.111,0 41.111,-6 41.111,-24l0 -150 75.111 0c12.889,0 40.889,-6 40.889,-24 0,-17.112 -28,-23.112 -40.889,-23.112l-75.111 0 0 -432c0,-18 -28,-24 -41.111,-24 -12.889,0 -30.891,4.888 -38.889,16.889l-302 453.111c-1.832,2.749 -3.111,6 -3.111,9.112 0,18 28,24 41.111,24l262 0 0 150c0,17.999 28,24 40.889,24zm-40.889 -221.112l-237.111 0 237.111 -359.111 0 359.111zm-661.889 -507.888c14,0 40.889,-6 40.889,-24l0 -628.001c0,-18 -26.889,-24 -40.889,-24 -14,0 -38.819,6.035 -41.111,24 -4.597,36.038 -18.398,70.529 -42.889,98 -17.515,19.647 -41.951,37.236 -69.111,40.889 -10.848,1.459 -30,8 -30,22 0,18.187 29.466,23.111 43.111,23.111 33.823,0 72.574,-10.535 100,-37.111l0 481.112c0,17.999 26.889,24 40,24zm10.5 713.366l729.985 -1356.715c1.609,-2.992 4.016,-7.506 4.016,-10.86 0,-13.632 -20.505,-21.792 -40.833,-21.792 -15.838,0 -31.29,4.877 -37.167,15.791l-730.81 1356.95c-1.378,2.559 -3.462,6.294 -3.413,9.736 0.207,14.307 19.99,22.523 40.049,22.523 15.56,0.001 32.12,-4.383 38.173,-15.633z"/>
 </g>
</svg>
