<?xml version="1.0" encoding="UTF-8"?>
<!DOCTYPE svg PUBLIC "-//W3C//DTD SVG 1.1//EN" "http://www.w3.org/Graphics/SVG/1.1/DTD/svg11.dtd">
<!-- Creator: CorelDRAW 2020 (64-Bit) -->
<svg xmlns="http://www.w3.org/2000/svg" xml:space="preserve" width="1144px" height="1405px" version="1.1" style="shape-rendering:geometricPrecision; text-rendering:geometricPrecision; image-rendering:optimizeQuality; fill-rule:evenodd; clip-rule:evenodd"
viewBox="0 0 1144 1405.001"
 xmlns:xlink="http://www.w3.org/1999/xlink"
 xmlns:xodm="http://www.corel.com/coreldraw/odm/2003">
 <defs>
  <style type="text/css">
   <![CDATA[
    .fil0 {fill:#E31E24;fill-rule:nonzero}
   ]]>
  </style>
 </defs>
 <g id="Layer_x0020_1">
  <metadata id="CorelCorpID_0Corel-Layer"/>
  <path class="fil0" d="M918.445 1404.945c111.331,0 225.555,-61.99 225.555,-187.969 0,-83.098 -45.2,-131.979 -114.224,-167.084 60.118,-33.106 96.189,-75.988 96.189,-149.086 0,-115.982 -105.319,-172.862 -207.52,-172.862 -103.092,0 -208.41,56.88 -208.41,172.862 0,73.098 36.071,115.98 96.189,149.086 -69.024,35.105 -114.224,83.986 -114.224,167.084 0,125.979 114.224,187.969 226.445,187.969zm0 -377.05c-73.033,0 -127.139,-51.991 -127.139,-127.089 0,-74.878 54.106,-125.98 127.139,-125.98 72.142,0 126.249,51.102 126.249,125.98 0,75.098 -54.107,127.089 -126.249,127.089zm0 331.057c-82.161,0 -144.284,-57.101 -144.284,-141.976 0,-85.098 62.123,-141.977 144.284,-141.977 81.271,0 143.394,56.879 143.394,141.977 0,84.875 -62.123,141.976 -143.394,141.976zm-483.333 -902.952c0,-128.99 -94.238,-210 -219.112,-210 -36.889,0 -69,5.001 -104.889,20.889l26.889 -208.889 236.001 0c13.111,0 39.999,-6 39.999,-23.111 0,-16.889 -26.889,-22.889 -39.999,-22.889l-272.89 0c-13.11,0 -37.946,6.007 -40,22l-40.409 314.54c-0.327,2.542 -0.871,5.464 -0.871,8.005 0,18.267 26.727,22.566 42.169,22.566 16,0 27.354,-5.838 38,-22 26.244,-39.84 69.111,-65.111 116,-65.111 90.047,0 139.112,81.86 139.112,164 0,84 -53.109,163.499 -141.112,164 -67.999,0.387 -118.632,-50.948 -134,-116.888 -3.743,-16.062 -28.889,-20.001 -40.889,-20.001 -12,0 -39.111,6.889 -39.111,22.889 0,10.62 9.341,33.657 13.828,43.218 35.93,76.553 115.829,115.894 200.172,115.894 124.97,0 221.112,-79.99 221.112,-209.112zm-179.309 933.367l729.985 -1356.716c1.609,-2.991 4.016,-7.505 4.016,-10.86 0,-13.632 -20.505,-21.791 -40.833,-21.791 -15.837,0 -31.29,4.877 -37.167,15.79l-730.81 1356.951c-1.378,2.559 -3.463,6.294 -3.413,9.736 0.207,14.308 19.99,22.523 40.049,22.523 15.56,0.001 32.12,-4.383 38.173,-15.633z"/>
 </g>
</svg>
