<?xml version="1.0" encoding="UTF-8"?>
<!DOCTYPE svg PUBLIC "-//W3C//DTD SVG 1.1//EN" "http://www.w3.org/Graphics/SVG/1.1/DTD/svg11.dtd">
<!-- Creator: CorelDRAW 2020 (64-Bit) -->
<svg xmlns="http://www.w3.org/2000/svg" xml:space="preserve" width="1034px" height="1405px" version="1.1" style="shape-rendering:geometricPrecision; text-rendering:geometricPrecision; image-rendering:optimizeQuality; fill-rule:evenodd; clip-rule:evenodd"
viewBox="0 0 1034 1404.399"
 xmlns:xlink="http://www.w3.org/1999/xlink"
 xmlns:xodm="http://www.corel.com/coreldraw/odm/2003">
 <defs>
  <style type="text/css">
   <![CDATA[
    .fil0 {fill:#E31E24;fill-rule:nonzero}
   ]]>
  </style>
 </defs>
 <g id="Layer_x0020_1">
  <metadata id="CorelCorpID_0Corel-Layer"/>
  <path class="fil0" d="M808.542 1404.343c111.282,0 225.458,-61.963 225.458,-187.889 0,-83.062 -45.181,-131.922 -114.176,-167.012 60.093,-33.092 96.149,-75.955 96.149,-149.023 0,-115.932 -105.274,-172.787 -207.431,-172.787 -103.048,0 -208.321,56.855 -208.321,172.787 0,73.068 36.055,115.931 96.148,149.023 -68.995,35.09 -114.176,83.95 -114.176,167.012 0,125.926 114.176,187.889 226.349,187.889zm-625.509 -728.077c13.994,0 40.871,-5.997 40.871,-23.99l0 -627.731c0,-17.993 -26.877,-23.99 -40.871,-23.99 -13.994,0 -38.803,6.033 -41.094,23.99 -4.595,36.022 -18.39,70.499 -42.87,97.958 -17.508,19.638 -41.934,37.22 -69.082,40.871 -10.843,1.459 -29.987,7.997 -29.987,21.991 0,18.179 29.454,23.101 43.093,23.101 33.808,0 72.542,-10.53 99.957,-37.095l0 480.905c0,17.992 26.877,23.99 39.983,23.99zm-56.841 712.506l729.672 -1356.135c1.609,-2.99 4.014,-7.502 4.014,-10.855 0,-13.626 -20.496,-21.782 -40.815,-21.782 -15.831,0 -31.277,4.875 -37.151,15.783l-730.497 1356.369c-1.377,2.558 -3.461,6.292 -3.411,9.732 0.207,14.302 19.981,22.514 40.031,22.514 15.554,0.001 32.107,-4.381 38.157,-15.626zm682.35 -361.317c-73.002,0 -127.085,-51.969 -127.085,-127.036 0,-74.844 54.083,-125.926 127.085,-125.926 72.11,0 126.194,51.082 126.194,125.926 0,75.067 -54.084,127.036 -126.194,127.036zm0 330.915c-82.127,0 -144.222,-57.077 -144.222,-141.916 0,-85.061 62.095,-141.915 144.222,-141.915 81.236,0 143.331,56.854 143.331,141.915 0,84.839 -62.095,141.916 -143.331,141.916z"/>
 </g>
</svg>
