<?xml version="1.0" encoding="UTF-8"?>
<!DOCTYPE svg PUBLIC "-//W3C//DTD SVG 1.1//EN" "http://www.w3.org/Graphics/SVG/1.1/DTD/svg11.dtd">
<!-- Creator: CorelDRAW 2020 (64-Bit) -->
<svg xmlns="http://www.w3.org/2000/svg" xml:space="preserve" width="1175px" height="1405px" version="1.1" style="shape-rendering:geometricPrecision; text-rendering:geometricPrecision; image-rendering:optimizeQuality; fill-rule:evenodd; clip-rule:evenodd"
viewBox="0 0 1175 1405"
 xmlns:xlink="http://www.w3.org/1999/xlink"
 xmlns:xodm="http://www.corel.com/coreldraw/odm/2003">
 <defs>
  <style type="text/css">
   <![CDATA[
    .fil0 {fill:#E31E24;fill-rule:nonzero}
   ]]>
  </style>
 </defs>
 <g id="Layer_x0020_1">
  <metadata id="CorelCorpID_0Corel-Layer"/>
  <path class="fil0" d="M282.247 1389.367l729.984 -1356.716c1.609,-2.991 4.016,-7.505 4.016,-10.86 0,-13.632 -20.504,-21.791 -40.832,-21.791 -15.838,0 -31.291,4.877 -37.168,15.79l-730.809 1356.95c-1.378,2.559 -3.463,6.295 -3.413,9.737 0.207,14.307 19.99,22.523 40.048,22.523 15.561,0 32.121,-4.383 38.174,-15.633zm683.864 15.633c108.889,0 208.889,-70 208.889,-190 0,-80 -40.889,-132 -108,-166 54,-32.222 90,-76.222 90,-143.111 0,-119.111 -104.001,-178.001 -208.889,-178.001 -53.111,0 -109.039,16.082 -150,52.89 -37.928,34.08 -54,80 -54,130l0 13.111c0,18.021 28.007,23.351 42,22.889 12.912,-0.427 38.888,-6 38.888,-22.889l0 -11.111c0,-34.89 9.328,-68.716 31.111,-96 22.218,-27.828 52.891,-43.177 88.889,-42.889 75.114,0.601 131.112,54.889 131.112,132 0,68.94 -50.009,114.321 -115.377,121.914 -9.395,1.091 -18.82,1.452 -28.624,2.086 -12.007,0.776 -37.999,6.889 -37.999,23.111 0,18 26.888,24 40.888,24l27.112 0c79.743,0 132,57.143 132,136.889 0,77.111 -50,144 -128,144 -85.112,0 -141.112,-56.889 -141.112,-144 0,-16.889 -28,-22.889 -40.889,-22.889 -13.111,0 -41.111,6 -41.111,22.889 0,130 107.111,191.111 223.112,191.111zm-581 -740.444c12.889,0 40,-6 40,-23.112 0,-16.888 -27.111,-22.888 -40,-22.888l-305.111 0c3.111,-38 6.591,-77.416 26,-110 23.484,-39.423 65.322,-57.578 104,-77.112 94.214,-47.579 218,-110.888 218,-230 0,-117.371 -99.369,-190 -210.889,-190 -43.111,0 -85.205,7.83 -123.111,28.889 -50.094,27.83 -90.889,91.111 -90.889,152 0,6 -0.196,13.144 0.889,19.111 2.916,16.037 28,20.889 41.111,20.889 12,0 38.889,-6 38.889,-22.889 0,-48 10.14,-93.821 50,-125.111 25.252,-19.822 52,-26.889 83.111,-26.889 82.972,0 130.889,67.398 130.889,142 0,103.112 -111.027,157.726 -190.889,198 -49.25,24.837 -96.755,46.204 -126,97.112 -24.756,43.094 -31.111,96.889 -31.111,146.888 0,17.112 27.111,23.112 40,23.112l345.111 0z"/>
 </g>
</svg>
