<?xml version="1.0" encoding="UTF-8"?>
<!DOCTYPE svg PUBLIC "-//W3C//DTD SVG 1.1//EN" "http://www.w3.org/Graphics/SVG/1.1/DTD/svg11.dtd">
<!-- Creator: CorelDRAW 2020 (64-Bit) -->
<svg xmlns="http://www.w3.org/2000/svg" xml:space="preserve" width="292.894mm" height="371.74mm" version="1.1" style="shape-rendering:geometricPrecision; text-rendering:geometricPrecision; image-rendering:optimizeQuality; fill-rule:evenodd; clip-rule:evenodd"
viewBox="0 0 29289.38 37173.96"
 xmlns:xlink="http://www.w3.org/1999/xlink"
 xmlns:xodm="http://www.corel.com/coreldraw/odm/2003">
 <defs>
  <style type="text/css">
   <![CDATA[
    .fil0 {fill:#2B2A29;fill-rule:nonzero}
   ]]>
  </style>
 </defs>
 <g id="Layer_x0020_1">
  <metadata id="CorelCorpID_0Corel-Layer"/>
  <path class="fil0" d="M5903.15 17915.25c2881.02,0 5526.85,-1852.09 5526.85,-5027.09 0,-2116.66 -1081.85,-3492.5 -2857.5,-4392.08 1428.75,-852.55 2381.25,-2016.71 2381.25,-3786.48 0,-3151.48 -2751.67,-4709.59 -5526.85,-4709.59 -1405.23,0 -2884.97,425.49 -3968.75,1399.36 -1003.49,901.72 -1428.75,2116.67 -1428.75,3439.58l0 346.9c0,476.82 741.04,617.83 1111.25,605.6 341.64,-11.29 1028.93,-158.75 1028.93,-605.6l0 -293.98c0,-923.11 246.79,-1818.09 823.15,-2540 587.83,-736.28 1399.39,-1142.39 2351.85,-1134.77 1987.39,15.9 3468.99,1452.27 3468.99,3492.5 0,1824.04 -1323.14,3024.76 -3052.69,3225.64 -248.55,28.86 -497.94,38.42 -757.32,55.19 -317.7,20.54 -1005.41,182.27 -1005.41,611.48 0,476.25 711.43,635 1081.85,635l717.32 0c2109.87,0 3492.5,1511.9 3492.5,3621.85 0,2040.24 -1322.92,3810 -3386.67,3810 -2251.9,0 -3733.57,-1505.18 -3733.57,-3810 0,-446.85 -740.83,-605.6 -1081.85,-605.6 -346.9,0 -1087.73,158.75 -1087.73,605.6 0,3439.59 2833.98,5056.49 5903.15,5056.49zm19229.33 19258.72c346.9,0 1087.73,-158.75 1087.73,-635l0 -3968.75 1987.31 0c341.02,0 1081.86,-158.75 1081.86,-635 0,-452.74 -740.85,-611.49 -1081.86,-611.49l-1987.31 0 0 -11430c0,-476.25 -740.83,-635 -1087.73,-635 -341.02,0 -817.32,129.34 -1028.94,446.86l-7990.42 11988.56c-48.47,72.72 -82.31,158.75 -82.31,241.07 0,476.25 740.83,635 1087.73,635l6932.09 0 0 3968.75c0,476.24 740.83,635 1081.85,635zm-1081.85 -5850.24l-6273.57 0 6273.57 -9501.48 0 9501.48zm-17323.67 5436.6l19314.16 -35896.41c42.58,-79.15 106.26,-198.58 106.26,-287.34 0,-360.68 -542.52,-576.56 -1080.36,-576.56 -419.04,0 -827.89,129.04 -983.39,417.78l-19336 35902.62c-36.46,67.71 -91.61,166.54 -90.3,257.61 5.48,378.55 528.91,595.92 1059.62,595.93 411.7,0.01 849.85,-115.97 1010.01,-413.63z"/>
 </g>
</svg>
