<?xml version="1.0" encoding="UTF-8"?>
<!DOCTYPE svg PUBLIC "-//W3C//DTD SVG 1.1//EN" "http://www.w3.org/Graphics/SVG/1.1/DTD/svg11.dtd">
<!-- Creator: CorelDRAW X8 -->
<svg xmlns="http://www.w3.org/2000/svg" xml:space="preserve" width="1247px" height="1405px" version="1.1" style="shape-rendering:geometricPrecision; text-rendering:geometricPrecision; image-rendering:optimizeQuality; fill-rule:evenodd; clip-rule:evenodd"
viewBox="0 0 1247 1405"
 xmlns:xlink="http://www.w3.org/1999/xlink">
 <defs>
  <style type="text/css">
   <![CDATA[
    .fil0 {fill:#CC9933;fill-rule:nonzero}
   ]]>
  </style>
 </defs>
 <g id="Layer_x0020_1">
  <metadata id="CorelCorpID_0Corel-Layer"/>
  <path class="fil0" d="M1 39l554 1340c9,21 45,26 64,26 21,0 57,-5 67,-28l560 -1355c1,-1 1,-3 1,-4 0,-12 -22,-17 -31,-18 -2,0 -5,0 -8,0 -11,0 -33,3 -38,15l-523 1262 -516 -1251c-9,-20 -46,-26 -65,-26 -5,0 -9,0 -14,1 -15,1 -52,10 -52,31 0,2 1,5 1,7z"/>
 </g>
</svg>
