<?xml version="1.0" encoding="UTF-8"?>
<!DOCTYPE svg PUBLIC "-//W3C//DTD SVG 1.1//EN" "http://www.w3.org/Graphics/SVG/1.1/DTD/svg11.dtd">
<!-- Creator: CorelDRAW X8 -->
<svg xmlns="http://www.w3.org/2000/svg" xml:space="preserve" width="1511px" height="1024px" version="1.1" style="shape-rendering:geometricPrecision; text-rendering:geometricPrecision; image-rendering:optimizeQuality; fill-rule:evenodd; clip-rule:evenodd"
viewBox="0 0 1511 1024"
 xmlns:xlink="http://www.w3.org/1999/xlink">
 <defs>
  <style type="text/css">
   <![CDATA[
    .fil0 {fill:#CC9933;fill-rule:nonzero}
   ]]>
  </style>
 </defs>
 <g id="Layer_x0020_1">
  <metadata id="CorelCorpID_0Corel-Layer"/>
  <path class="fil0" d="M1 39l372 958c8,22 45,27 64,27 20,0 62,-6 69,-30l251 -832 243 834c7,23 44,28 64,28 21,0 61,-6 70,-29l377 -973c0,-1 0,-2 0,-3 0,-13 -22,-18 -31,-19 -2,0 -5,0 -8,0 -11,0 -34,3 -38,15l-335 865 -247 -851c-7,-24 -45,-28 -65,-28 -19,0 -62,5 -69,28l-256 851 -331 -853c-8,-21 -47,-27 -65,-26 -5,0 -9,0 -13,0 -16,2 -53,11 -53,32 0,2 0,4 1,6z"/>
 </g>
</svg>
