<?xml version="1.0" encoding="UTF-8"?>
<!DOCTYPE svg PUBLIC "-//W3C//DTD SVG 1.1//EN" "http://www.w3.org/Graphics/SVG/1.1/DTD/svg11.dtd">
<!-- Creator: CorelDRAW X8 -->
<svg xmlns="http://www.w3.org/2000/svg" xml:space="preserve" width="1787px" height="1405px" version="1.1" style="shape-rendering:geometricPrecision; text-rendering:geometricPrecision; image-rendering:optimizeQuality; fill-rule:evenodd; clip-rule:evenodd"
viewBox="0 0 1787 1405"
 xmlns:xlink="http://www.w3.org/1999/xlink">
 <defs>
  <style type="text/css">
   <![CDATA[
    .fil0 {fill:#2B2A29;fill-rule:nonzero}
   ]]>
  </style>
 </defs>
 <g id="Layer_x0020_1">
  <metadata id="CorelCorpID_0Corel-Layer"/>
  <path class="fil0" d="M1333 1376l452 -1352c1,-3 2,-6 2,-7 0,-15 -25,-17 -37,-17 -18,0 -37,5 -41,16l-412 1231 -310 -1217c-6,-24 -45,-30 -66,-30 -16,0 -63,7 -68,27l-307 1221 -415 -1218c-7,-21 -34,-30 -62,-30 -34,0 -69,13 -69,31 0,5 2,10 3,15l454 1333c8,22 46,26 66,26 19,0 63,-6 69,-30l301 -1194 305 1196c5,19 33,28 63,28 33,0 66,-10 72,-29z"/>
 </g>
</svg>
