<?xml version="1.0" encoding="UTF-8"?>
<!DOCTYPE svg PUBLIC "-//W3C//DTD SVG 1.1//EN" "http://www.w3.org/Graphics/SVG/1.1/DTD/svg11.dtd">
<!-- Creator: CorelDRAW X8 -->
<svg xmlns="http://www.w3.org/2000/svg" xml:space="preserve" width="1787px" height="1405px" version="1.1" style="shape-rendering:geometricPrecision; text-rendering:geometricPrecision; image-rendering:optimizeQuality; fill-rule:evenodd; clip-rule:evenodd"
viewBox="0 0 1787 1405"
 xmlns:xlink="http://www.w3.org/1999/xlink">
 <defs>
  <style type="text/css">
   <![CDATA[
    .fil0 {fill:#CC9933;fill-rule:nonzero}
   ]]>
  </style>
 </defs>
 <g id="Layer_x0020_1">
  <metadata id="CorelCorpID_0Corel-Layer"/>
  <path class="fil0" d="M1 40l456 1339c8,22 46,26 66,26 19,0 63,-6 69,-29l301 -1195 305 1196c6,25 49,29 69,28 19,-1 59,-7 66,-29l453 -1355c1,-1 1,-1 1,-2 0,-13 -23,-18 -32,-19 -3,0 -5,0 -7,0 -11,0 -34,4 -38,16l-413 1232 -310 -1218c-7,-24 -45,-30 -66,-30 -16,0 -63,7 -68,27l-307 1221 -415 -1218c-7,-22 -47,-30 -67,-30 -3,0 -6,0 -9,0 -18,2 -55,12 -55,35 0,2 0,3 1,5z"/>
 </g>
</svg>
