<?xml version="1.0" encoding="UTF-8"?>
<!DOCTYPE svg PUBLIC "-//W3C//DTD SVG 1.1//EN" "http://www.w3.org/Graphics/SVG/1.1/DTD/svg11.dtd">
<!-- Creator: CorelDRAW X8 -->
<svg xmlns="http://www.w3.org/2000/svg" xml:space="preserve" width="916px" height="1024px" version="1.1" style="shape-rendering:geometricPrecision; text-rendering:geometricPrecision; image-rendering:optimizeQuality; fill-rule:evenodd; clip-rule:evenodd"
viewBox="0 0 916 1024"
 xmlns:xlink="http://www.w3.org/1999/xlink">
 <defs>
  <style type="text/css">
   <![CDATA[
    .fil0 {fill:#B2B09C;fill-rule:nonzero}
   ]]>
  </style>
 </defs>
 <g id="Layer_x0020_1">
  <metadata id="CorelCorpID_0Corel-Layer"/>
  <path class="fil0" d="M5 47l392 482 -391 466c-12,15 13,25 23,27 17,4 47,2 59,-12l356 -422 336 414c18,22 66,24 93,19 18,-4 57,-21 38,-45l-391 -482 390 -465c12,-14 -13,-24 -23,-27 -17,-3 -47,-2 -59,12l-356 422 -336 -414c-18,-23 -66,-25 -93,-19 -18,3 -57,20 -38,44z"/>
 </g>
</svg>
