<?xml version="1.0" encoding="UTF-8"?>
<!DOCTYPE svg PUBLIC "-//W3C//DTD SVG 1.1//EN" "http://www.w3.org/Graphics/SVG/1.1/DTD/svg11.dtd">
<!-- Creator: CorelDRAW X8 -->
<svg xmlns="http://www.w3.org/2000/svg" xml:space="preserve" width="1162px" height="1405px" version="1.1" style="shape-rendering:geometricPrecision; text-rendering:geometricPrecision; image-rendering:optimizeQuality; fill-rule:evenodd; clip-rule:evenodd"
viewBox="0 0 1162 1404"
 xmlns:xlink="http://www.w3.org/1999/xlink">
 <defs>
  <style type="text/css">
   <![CDATA[
    .fil0 {fill:#00A0E3;fill-rule:nonzero}
   ]]>
  </style>
 </defs>
 <g id="Layer_x0020_1">
  <metadata id="CorelCorpID_0Corel-Layer"/>
  <path class="fil0" d="M8 46l512 674 -517 656c-12,15 13,25 24,27 17,3 47,2 58,-12l482 -611 455 599c17,22 65,25 92,20 18,-4 58,-20 40,-44l-511 -672 516 -655c12,-14 -13,-24 -24,-26 -17,-4 -47,-2 -58,12l-480 609 -457 -601c-17,-22 -65,-25 -92,-20 -18,4 -58,20 -40,44z"/>
 </g>
</svg>
