<?xml version="1.0" encoding="UTF-8"?>
<!DOCTYPE svg PUBLIC "-//W3C//DTD SVG 1.1//EN" "http://www.w3.org/Graphics/SVG/1.1/DTD/svg11.dtd">
<!-- Creator: CorelDRAW X8 -->
<svg xmlns="http://www.w3.org/2000/svg" xml:space="preserve" width="880px" height="1405px" version="1.1" style="shape-rendering:geometricPrecision; text-rendering:geometricPrecision; image-rendering:optimizeQuality; fill-rule:evenodd; clip-rule:evenodd"
viewBox="0 0 880 1406"
 xmlns:xlink="http://www.w3.org/1999/xlink">
 <defs>
  <style type="text/css">
   <![CDATA[
    .fil0 {fill:#00A0E3;fill-rule:nonzero}
   ]]>
  </style>
 </defs>
 <g id="Layer_x0020_1">
  <metadata id="CorelCorpID_0Corel-Layer"/>
  <path class="fil0" d="M880 35c0,-26 -42,-35 -62,-35 -19,0 -61,9 -61,35l0 542c0,190 -119,377 -317,377 -207,0 -317,-182 -317,-377l0 -542c0,-26 -42,-35 -61,-35 -20,0 -62,9 -62,35l0 542c0,266 181,447 440,447 143,1 255,-61 316,-142l0 100c0,226 -104,346 -322,354 -112,3 -244,-29 -312,-131 -15,-22 -55,-25 -79,-20 -20,4 -52,21 -36,45 92,137 283,181 434,175 263,-9 439,-135 439,-423l0 -947z"/>
 </g>
</svg>
