<?xml version="1.0" encoding="UTF-8"?>
<!DOCTYPE svg PUBLIC "-//W3C//DTD SVG 1.1//EN" "http://www.w3.org/Graphics/SVG/1.1/DTD/svg11.dtd">
<!-- Creator: CorelDRAW X8 -->
<svg xmlns="http://www.w3.org/2000/svg" xml:space="preserve" width="880px" height="1406px" version="1.1" style="shape-rendering:geometricPrecision; text-rendering:geometricPrecision; image-rendering:optimizeQuality; fill-rule:evenodd; clip-rule:evenodd"
viewBox="0 0 880 1406"
 xmlns:xlink="http://www.w3.org/1999/xlink">
 <defs>
  <style type="text/css">
   <![CDATA[
    .fil0 {fill:#2B2A29;fill-rule:nonzero}
   ]]>
  </style>
 </defs>
 <g id="Layer_x0020_1">
  <metadata id="CorelCorpID_0Corel-Layer"/>
  <path class="fil0" d="M416 1406c281,0 464,-117 464,-424l0 -947c0,-26 -42,-35 -62,-35 -19,0 -61,9 -61,35l0 542c0,190 -116,377 -314,377 -207,0 -320,-182 -320,-377l0 -542c0,-26 -42,-35 -61,-35 -20,0 -62,9 -62,35l0 542c0,266 181,447 443,447 119,0 239,-46 313,-142l0 100c0,224 -109,354 -340,354 -109,0 -229,-33 -294,-131 -11,-16 -36,-22 -57,-22 -20,0 -62,9 -62,34 0,4 1,8 4,13 87,129 263,176 409,176z"/>
 </g>
</svg>
