<?xml version="1.0" encoding="UTF-8"?>
<!DOCTYPE svg PUBLIC "-//W3C//DTD SVG 1.1//EN" "http://www.w3.org/Graphics/SVG/1.1/DTD/svg11.dtd">
<!-- Creator: CorelDRAW X8 -->
<svg xmlns="http://www.w3.org/2000/svg" xml:space="preserve" width="953px" height="1405px" version="1.1" style="shape-rendering:geometricPrecision; text-rendering:geometricPrecision; image-rendering:optimizeQuality; fill-rule:evenodd; clip-rule:evenodd"
viewBox="0 0 953 1405"
 xmlns:xlink="http://www.w3.org/1999/xlink">
 <defs>
  <style type="text/css">
   <![CDATA[
    .fil0 {fill:#CC9933;fill-rule:nonzero}
   ]]>
  </style>
 </defs>
 <g id="Layer_x0020_1">
  <metadata id="CorelCorpID_0Corel-Layer"/>
  <path class="fil0" d="M2 42l457 982 -54 130c-44,105 -94,209 -224,208 -33,0 -69,-8 -90,-36 -7,-10 -23,-13 -35,-13 -4,0 -9,1 -14,2 -9,2 -23,8 -23,19 0,3 1,6 3,9 36,47 105,62 160,62 168,0 236,-97 296,-242l474 -1137c0,-1 1,-3 1,-5 0,-13 -19,-19 -29,-20 -3,-1 -6,-1 -9,-1 -12,0 -31,4 -36,17l-354 848 -386 -838c-9,-21 -48,-27 -68,-27 -6,0 -11,0 -17,1 -16,2 -54,12 -54,33 0,3 1,6 2,8z"/>
 </g>
</svg>
