<?xml version="1.0" encoding="UTF-8"?>
<!DOCTYPE svg PUBLIC "-//W3C//DTD SVG 1.1//EN" "http://www.w3.org/Graphics/SVG/1.1/DTD/svg11.dtd">
<!-- Creator: CorelDRAW X8 -->
<svg xmlns="http://www.w3.org/2000/svg" xml:space="preserve" width="1166px" height="1405px" version="1.1" style="shape-rendering:geometricPrecision; text-rendering:geometricPrecision; image-rendering:optimizeQuality; fill-rule:evenodd; clip-rule:evenodd"
viewBox="0 0 1166 1405"
 xmlns:xlink="http://www.w3.org/1999/xlink">
 <defs>
  <style type="text/css">
   <![CDATA[
    .fil0 {fill:#CC9933;fill-rule:nonzero}
   ]]>
  </style>
 </defs>
 <g id="Layer_x0020_1">
  <metadata id="CorelCorpID_0Corel-Layer"/>
  <path class="fil0" d="M645 1371l0 -635 519 -708c1,-2 2,-4 2,-7 0,-12 -19,-18 -28,-19 -16,-3 -47,-2 -58,12l-469 642 -474 -633c-13,-18 -47,-23 -68,-23 -17,0 -69,11 -69,33 0,5 2,9 5,13l517 689 0 636c0,9 7,18 18,24 11,6 26,10 43,10 20,0 62,-8 62,-34z"/>
 </g>
</svg>
