<?xml version="1.0" encoding="UTF-8"?>
<!DOCTYPE svg PUBLIC "-//W3C//DTD SVG 1.1//EN" "http://www.w3.org/Graphics/SVG/1.1/DTD/svg11.dtd">
<!-- Creator: CorelDRAW X8 -->
<svg xmlns="http://www.w3.org/2000/svg" xml:space="preserve" width="1188px" height="1357px" version="1.1" style="shape-rendering:geometricPrecision; text-rendering:geometricPrecision; image-rendering:optimizeQuality; fill-rule:evenodd; clip-rule:evenodd"
viewBox="0 0 1188 1357"
 xmlns:xlink="http://www.w3.org/1999/xlink">
 <defs>
  <style type="text/css">
   <![CDATA[
    .fil0 {fill:#CC9933;fill-rule:nonzero}
   ]]>
  </style>
 </defs>
 <g id="Layer_x0020_1">
  <metadata id="CorelCorpID_0Corel-Layer"/>
  <path class="fil0" d="M94 69l919 0 -1008 1241c-3,4 -5,8 -5,13 1,26 55,34 70,34l1048 0c19,0 70,-8 70,-34 0,-27 -51,-35 -70,-35l-945 0 1008 -1241c3,-4 5,-8 5,-13 0,-26 -51,-34 -70,-34l-1022 0c-20,0 -70,8 -70,34 0,27 50,35 70,35z"/>
 </g>
</svg>
