<?xml version="1.0" encoding="UTF-8"?>
<!DOCTYPE svg PUBLIC "-//W3C//DTD SVG 1.1//EN" "http://www.w3.org/Graphics/SVG/1.1/DTD/svg11.dtd">
<!-- Creator: CorelDRAW X8 -->
<svg xmlns="http://www.w3.org/2000/svg" xml:space="preserve" width="944px" height="1405px" version="1.1" style="shape-rendering:geometricPrecision; text-rendering:geometricPrecision; image-rendering:optimizeQuality; fill-rule:evenodd; clip-rule:evenodd"
viewBox="0 0 944 1405"
 xmlns:xlink="http://www.w3.org/1999/xlink">
 <defs>
  <style type="text/css">
   <![CDATA[
    .fil0 {fill:#2B2A29;fill-rule:nonzero}
   ]]>
  </style>
 </defs>
 <g id="Layer_x0020_1">
  <metadata id="CorelCorpID_0Corel-Layer"/>
  <path class="fil0" d="M944 899c0,-26 -42,-36 -61,-36 -20,0 -57,9 -61,32 -27,152 -186,250 -330,250 -53,0 -99,-9 -140,-26l315 -817c78,41 140,113 153,207 3,24 41,32 61,32 19,0 61,-8 61,-34 0,-40 -28,-104 -51,-137 -46,-67 -117,-115 -195,-144l78 -200c1,-3 2,-7 2,-8 0,-11 -20,-18 -40,-18 -17,0 -35,5 -39,16l-73 188c-41,-9 -83,-14 -123,-14 -306,0 -501,217 -501,517 0,212 93,377 254,456l-84 217c-1,2 -2,6 -2,8 0,11 20,17 40,17 18,0 35,-5 39,-15l77 -199c51,15 107,24 168,24 135,0 284,-52 374,-153 38,-43 78,-106 78,-163zm-659 184c-110,-79 -162,-223 -162,-378 0,-231 125,-445 378,-445 32,0 65,5 96,14l-312 809z"/>
 </g>
</svg>
