<?xml version="1.0" encoding="UTF-8"?>
<!DOCTYPE svg PUBLIC "-//W3C//DTD SVG 1.1//EN" "http://www.w3.org/Graphics/SVG/1.1/DTD/svg11.dtd">
<!-- Creator: CorelDRAW X8 -->
<svg xmlns="http://www.w3.org/2000/svg" xml:space="preserve" width="944px" height="1405px" version="1.1" style="shape-rendering:geometricPrecision; text-rendering:geometricPrecision; image-rendering:optimizeQuality; fill-rule:evenodd; clip-rule:evenodd"
viewBox="0 0 944 1405"
 xmlns:xlink="http://www.w3.org/1999/xlink">
 <defs>
  <style type="text/css">
   <![CDATA[
    .fil0 {fill:#CC9933;fill-rule:nonzero}
   ]]>
  </style>
 </defs>
 <g id="Layer_x0020_1">
  <metadata id="CorelCorpID_0Corel-Layer"/>
  <path class="fil0" d="M942 504c-19,-139 -122,-232 -245,-278l78 -203c1,-2 1,-3 1,-4 0,-12 -23,-18 -32,-19 -3,0 -5,0 -8,0 -11,0 -35,3 -39,16l-73 188c-43,-9 -86,-14 -128,-13 -304,4 -498,215 -496,522 2,213 96,373 254,450l-85 220c-1,1 -1,2 -1,3 0,13 23,18 32,19 3,0 6,1 9,0 11,0 34,-3 38,-15l77 -199c52,16 109,24 170,24 189,-1 413,-104 450,-313 0,-1 0,-3 0,-4 0,-25 -43,-34 -61,-34 -20,0 -57,7 -61,31 -27,152 -180,250 -324,250 -54,0 -102,-10 -145,-28l315 -816c78,42 139,113 152,208 3,25 41,33 61,33 19,0 61,-9 61,-34 0,-2 0,-3 0,-4zm-656 576c-107,-78 -163,-217 -163,-371 -1,-235 128,-445 376,-448 33,-1 66,4 98,12l-311 807z"/>
 </g>
</svg>
