<?xml version="1.0" encoding="UTF-8"?>
<!DOCTYPE svg PUBLIC "-//W3C//DTD SVG 1.1//EN" "http://www.w3.org/Graphics/SVG/1.1/DTD/svg11.dtd">
<!-- Creator: CorelDRAW X8 -->
<svg xmlns="http://www.w3.org/2000/svg" xml:space="preserve" width="944px" height="1405px" version="1.1" style="shape-rendering:geometricPrecision; text-rendering:geometricPrecision; image-rendering:optimizeQuality; fill-rule:evenodd; clip-rule:evenodd"
viewBox="0 0 944 1405"
 xmlns:xlink="http://www.w3.org/1999/xlink">
 <defs>
  <style type="text/css">
   <![CDATA[
    .fil0 {fill:#00A0E3;fill-rule:nonzero}
   ]]>
  </style>
 </defs>
 <g id="Layer_x0020_1">
  <metadata id="CorelCorpID_0Corel-Layer"/>
  <path class="fil0" d="M942 504c-19,-139 -122,-232 -245,-278l78 -204c6,-14 -21,-21 -31,-22 -14,-1 -42,2 -47,16l-73 188c-43,-10 -86,-14 -128,-14 -304,5 -498,216 -496,523 2,213 96,373 254,450l-85 220c-6,14 21,21 31,22 14,1 42,-1 47,-15l77 -199c52,16 109,24 170,24 189,-1 413,-104 450,-313 5,-28 -41,-38 -61,-38 -20,-1 -57,7 -61,31 -27,152 -180,249 -324,249 -54,0 -102,-9 -145,-27l315 -816c78,41 139,113 152,208 3,25 41,33 61,33 20,0 65,-10 61,-38zm-656 575c-107,-77 -163,-217 -163,-370 -1,-235 128,-445 376,-448 33,-1 66,4 98,12l-311 806z"/>
 </g>
</svg>
