<?xml version="1.0" encoding="UTF-8"?>
<!DOCTYPE svg PUBLIC "-//W3C//DTD SVG 1.1//EN" "http://www.w3.org/Graphics/SVG/1.1/DTD/svg11.dtd">
<!-- Creator: CorelDRAW X8 -->
<svg xmlns="http://www.w3.org/2000/svg" xml:space="preserve" width="1095px" height="1405px" version="1.1" style="shape-rendering:geometricPrecision; text-rendering:geometricPrecision; image-rendering:optimizeQuality; fill-rule:evenodd; clip-rule:evenodd"
viewBox="0 0 1095 1405"
 xmlns:xlink="http://www.w3.org/1999/xlink">
 <defs>
  <style type="text/css">
   <![CDATA[
    .fil0 {fill:#00A0E3;fill-rule:nonzero}
   ]]>
  </style>
 </defs>
 <g id="Layer_x0020_1">
  <metadata id="CorelCorpID_0Corel-Layer"/>
  <path class="fil0" d="M995 352c-40,-209 -179,-352 -394,-352 -218,0 -422,150 -422,385 0,102 30,196 61,291l-179 0c-19,0 -61,9 -61,35 0,27 42,35 61,35l200 0c17,58 30,115 30,175 1,184 -127,321 -260,429 -23,18 -7,39 15,48 25,11 57,9 81,-5 81,-45 172,-81 266,-82 136,-1 262,90 411,87 97,-2 187,-34 272,-80 24,-13 26,-35 2,-50 -24,-14 -62,-14 -87,-1 -59,33 -122,54 -190,56 -143,4 -266,-82 -409,-82 -39,1 -76,5 -114,10 80,-99 136,-194 136,-328 0,-61 -12,-118 -28,-177l314 0c19,0 61,-8 61,-35 0,-26 -42,-35 -61,-35l-336 0c-30,-94 -62,-190 -63,-290 0,-166 131,-319 300,-316 158,3 245,146 272,289 5,23 42,31 60,31 20,0 68,-10 62,-38z"/>
 </g>
</svg>
