<?xml version="1.0" encoding="UTF-8"?>
<!DOCTYPE svg PUBLIC "-//W3C//DTD SVG 1.1//EN" "http://www.w3.org/Graphics/SVG/1.1/DTD/svg11.dtd">
<!-- Creator: CorelDRAW X8 -->
<svg xmlns="http://www.w3.org/2000/svg" xml:space="preserve" width="735px" height="688px" version="1.1" style="shape-rendering:geometricPrecision; text-rendering:geometricPrecision; image-rendering:optimizeQuality; fill-rule:evenodd; clip-rule:evenodd"
viewBox="0 0 735 688"
 xmlns:xlink="http://www.w3.org/1999/xlink">
 <defs>
  <style type="text/css">
   <![CDATA[
    .fil0 {fill:#00A0E3;fill-rule:nonzero}
   ]]>
  </style>
 </defs>
 <g id="Layer_x0020_1">
  <metadata id="CorelCorpID_0Corel-Layer"/>
  <path class="fil0" d="M368 37c-77,0 -128,15 -194,52l-74 -74c-17,-16 -51,-18 -73,-11 -18,5 -38,22 -20,40l103 103c-47,58 -70,124 -70,198 0,74 24,138 70,196l-103 102c-18,18 2,35 20,41 22,7 56,5 73,-12l74 -73c66,36 117,52 194,52 76,0 127,-16 193,-52l74 73c17,17 51,19 73,12 18,-6 38,-23 20,-41l-103 -102c46,-58 70,-124 70,-198 0,-74 -24,-139 -70,-196l103 -103c18,-18 -2,-35 -20,-40 -22,-7 -56,-5 -73,11l-74 74c-66,-36 -117,-52 -193,-52zm0 60c141,0 219,115 219,247 0,132 -78,247 -219,247 -142,0 -220,-115 -220,-247 0,-132 78,-247 220,-247z"/>
 </g>
</svg>
