<?xml version="1.0" encoding="UTF-8"?>
<!DOCTYPE svg PUBLIC "-//W3C//DTD SVG 1.1//EN" "http://www.w3.org/Graphics/SVG/1.1/DTD/svg11.dtd">
<!-- Creator: CorelDRAW X8 -->
<svg xmlns="http://www.w3.org/2000/svg" xml:space="preserve" width="735px" height="688px" version="1.1" style="shape-rendering:geometricPrecision; text-rendering:geometricPrecision; image-rendering:optimizeQuality; fill-rule:evenodd; clip-rule:evenodd"
viewBox="0 0 735 688"
 xmlns:xlink="http://www.w3.org/1999/xlink">
 <defs>
  <style type="text/css">
   <![CDATA[
    .fil0 {fill:#CC9933;fill-rule:nonzero}
   ]]>
  </style>
 </defs>
 <g id="Layer_x0020_1">
  <metadata id="CorelCorpID_0Corel-Layer"/>
  <path class="fil0" d="M368 37c-77,0 -128,16 -194,52l-74 -74c-12,-11 -31,-15 -47,-15 -9,0 -17,1 -26,4 -11,3 -27,12 -27,26 0,6 3,10 7,14l103 103c-47,58 -70,124 -70,198 0,74 24,139 69,196l-102 103c-4,4 -7,9 -7,14 0,14 16,23 27,26 9,3 19,4 29,4 15,0 33,-4 44,-15l74 -74c66,37 117,52 194,52 76,0 127,-15 193,-52l74 74c11,11 29,15 44,15 10,0 20,-1 29,-4 11,-3 27,-12 27,-26 0,-5 -3,-10 -7,-14l-102 -103c46,-58 69,-123 69,-198 0,-74 -24,-138 -69,-196l102 -103c4,-4 7,-8 7,-14 0,-14 -16,-23 -27,-26 -9,-3 -17,-4 -26,-4 -16,0 -35,4 -47,15l-74 74c-66,-36 -117,-52 -193,-52zm0 60c141,0 219,115 219,247 0,133 -78,247 -219,247 -142,0 -220,-114 -220,-247 0,-132 78,-247 220,-247z"/>
 </g>
</svg>
