<?xml version="1.0" encoding="UTF-8"?>
<!DOCTYPE svg PUBLIC "-//W3C//DTD SVG 1.1//EN" "http://www.w3.org/Graphics/SVG/1.1/DTD/svg11.dtd">
<!-- Creator: CorelDRAW X8 -->
<svg xmlns="http://www.w3.org/2000/svg" xml:space="preserve" width="735px" height="688px" version="1.1" style="shape-rendering:geometricPrecision; text-rendering:geometricPrecision; image-rendering:optimizeQuality; fill-rule:evenodd; clip-rule:evenodd"
viewBox="0 0 735 688"
 xmlns:xlink="http://www.w3.org/1999/xlink">
 <defs>
  <style type="text/css">
   <![CDATA[
    .fil0 {fill:#2B2A29;fill-rule:nonzero}
   ]]>
  </style>
 </defs>
 <g id="Layer_x0020_1">
  <metadata id="CorelCorpID_0Corel-Layer"/>
  <path class="fil0" d="M682 688c9,0 18,-1 26,-4 13,-5 27,-14 27,-26 0,-5 -2,-10 -7,-15l-103 -102c46,-58 70,-124 70,-198 0,-74 -24,-139 -70,-196l103 -103c5,-5 7,-10 7,-15 0,-12 -14,-21 -27,-25 -8,-2 -17,-4 -27,-4 -17,0 -35,4 -46,15l-74 74c-66,-36 -117,-52 -193,-52 -77,0 -128,15 -194,52l-74 -74c-10,-11 -28,-15 -46,-15 -10,0 -19,2 -27,4 -13,4 -27,13 -27,26 0,4 2,9 7,14l103 103c-47,58 -70,124 -70,198 0,74 24,138 70,196l-103 102c-5,5 -7,10 -7,14 0,13 14,22 27,27 8,3 17,4 27,4 17,0 35,-5 46,-16l74 -73c66,36 117,52 194,52 76,0 127,-16 193,-52l74 73c11,11 29,16 47,16zm-314 -97c-142,0 -220,-115 -220,-247 0,-132 78,-247 220,-247 141,0 219,115 219,247 0,132 -78,247 -219,247z"/>
 </g>
</svg>
