<?xml version="1.0" encoding="UTF-8"?>
<!DOCTYPE svg PUBLIC "-//W3C//DTD SVG 1.1//EN" "http://www.w3.org/Graphics/SVG/1.1/DTD/svg11.dtd">
<!-- Creator: CorelDRAW X8 -->
<svg xmlns="http://www.w3.org/2000/svg" xml:space="preserve" width="1306px" height="1405px" version="1.1" style="shape-rendering:geometricPrecision; text-rendering:geometricPrecision; image-rendering:optimizeQuality; fill-rule:evenodd; clip-rule:evenodd"
viewBox="0 0 1306 1405"
 xmlns:xlink="http://www.w3.org/1999/xlink">
 <defs>
  <style type="text/css">
   <![CDATA[
    .fil0 {fill:#2B2A29;fill-rule:nonzero}
   ]]>
  </style>
 </defs>
 <g id="Layer_x0020_1">
  <metadata id="CorelCorpID_0Corel-Layer"/>
  <path class="fil0" d="M653 1405c401,0 653,-307 653,-702 0,-250 -100,-464 -275,-588l38 -71c3,-4 5,-7 5,-13 0,-22 -38,-30 -56,-30 -52,0 -54,21 -76,61 -84,-40 -181,-62 -289,-62 -401,0 -653,307 -653,703 0,250 101,465 276,589l-38 69c-2,4 -5,8 -5,13 0,22 39,31 57,31 21,0 45,-6 54,-22l21 -39c84,40 181,61 288,61zm-332 -197c-130,-120 -198,-311 -198,-505 0,-322 185,-633 530,-633 96,0 179,24 249,65l-581 1073zm332 127c-95,0 -178,-23 -248,-64l581 -1073c129,120 197,311 197,505 0,321 -185,632 -530,632z"/>
 </g>
</svg>
