<?xml version="1.0" encoding="UTF-8"?>
<!DOCTYPE svg PUBLIC "-//W3C//DTD SVG 1.1//EN" "http://www.w3.org/Graphics/SVG/1.1/DTD/svg11.dtd">
<!-- Creator: CorelDRAW X8 -->
<svg xmlns="http://www.w3.org/2000/svg" xml:space="preserve" width="1306px" height="1405px" version="1.1" style="shape-rendering:geometricPrecision; text-rendering:geometricPrecision; image-rendering:optimizeQuality; fill-rule:evenodd; clip-rule:evenodd"
viewBox="0 0 1306 1405"
 xmlns:xlink="http://www.w3.org/1999/xlink">
 <defs>
  <style type="text/css">
   <![CDATA[
    .fil0 {fill:#CC9933;fill-rule:nonzero}
   ]]>
  </style>
 </defs>
 <g id="Layer_x0020_1">
  <metadata id="CorelCorpID_0Corel-Layer"/>
  <path class="fil0" d="M344 1383c-7,13 -29,22 -53,22 -6,0 -12,0 -17,-1 -24,-4 -40,-17 -40,-30 0,-3 1,-6 2,-9l40 -73c-175,-124 -276,-339 -276,-589 0,-396 252,-703 653,-703 108,0 205,22 289,62l21 -39c8,-13 28,-22 52,-23 6,0 12,1 19,2 24,4 40,17 40,30 0,3 -1,6 -3,9l-40 74c175,124 275,338 275,588 0,395 -252,702 -653,702 -107,0 -204,-21 -288,-61l-21 39zm-23 -175l581 -1073c-70,-41 -153,-65 -249,-65 -345,0 -530,311 -530,633 0,194 68,385 198,505zm665 -1010l-581 1073c70,41 153,64 248,64 345,0 530,-311 530,-632 0,-194 -68,-385 -197,-505z"/>
 </g>
</svg>
