<?xml version="1.0" encoding="UTF-8"?>
<!DOCTYPE svg PUBLIC "-//W3C//DTD SVG 1.1//EN" "http://www.w3.org/Graphics/SVG/1.1/DTD/svg11.dtd">
<!-- Creator: CorelDRAW X8 -->
<svg xmlns="http://www.w3.org/2000/svg" xml:space="preserve" width="1142px" height="1405px" version="1.1" style="shape-rendering:geometricPrecision; text-rendering:geometricPrecision; image-rendering:optimizeQuality; fill-rule:evenodd; clip-rule:evenodd"
viewBox="0 0 1142 1406"
 xmlns:xlink="http://www.w3.org/1999/xlink">
 <defs>
  <style type="text/css">
   <![CDATA[
    .fil0 {fill:#00A0E3;fill-rule:nonzero}
   ]]>
  </style>
 </defs>
 <g id="Layer_x0020_1">
  <metadata id="CorelCorpID_0Corel-Layer"/>
  <path class="fil0" d="M571 0c-385,0 -571,388 -571,734 0,243 77,448 265,602l-175 0c-19,0 -61,8 -61,35 0,26 42,35 61,35l309 0c22,0 77,-4 76,-36 0,-13 -13,-22 -24,-27 -236,-102 -328,-366 -328,-610 0,-262 137,-665 451,-663 313,2 447,409 445,669 -2,242 -94,503 -328,604 -11,5 -24,14 -24,27 0,28 46,35 66,35l321 0c20,0 62,-9 62,-35 0,-26 -42,-35 -62,-35l-177 1c188,-154 265,-359 265,-602 0,-346 -186,-734 -571,-734z"/>
 </g>
</svg>
