<?xml version="1.0" encoding="UTF-8"?>
<!DOCTYPE svg PUBLIC "-//W3C//DTD SVG 1.1//EN" "http://www.w3.org/Graphics/SVG/1.1/DTD/svg11.dtd">
<!-- Creator: CorelDRAW X8 -->
<svg xmlns="http://www.w3.org/2000/svg" xml:space="preserve" width="402px" height="917px" version="1.1" style="shape-rendering:geometricPrecision; text-rendering:geometricPrecision; image-rendering:optimizeQuality; fill-rule:evenodd; clip-rule:evenodd"
viewBox="0 0 402 918"
 xmlns:xlink="http://www.w3.org/1999/xlink">
 <defs>
  <style type="text/css">
   <![CDATA[
    .fil0 {fill:#CC9933;fill-rule:nonzero}
   ]]>
  </style>
 </defs>
 <g id="Layer_x0020_1">
  <metadata id="CorelCorpID_0Corel-Layer"/>
  <path class="fil0" d="M201 532c-113,0 -201,69 -201,190 0,124 87,197 204,196 112,-1 199,-73 198,-193 -1,-122 -86,-193 -201,-193zm0 -532c-113,0 -201,69 -201,190 0,124 87,197 204,196 112,-1 199,-73 198,-193 -1,-122 -86,-193 -201,-193zm-102 193c0,-64 32,-130 102,-130 70,0 102,66 102,130 0,63 -32,130 -102,130 -70,0 -102,-66 -102,-130zm0 532c0,-64 32,-129 102,-129 70,0 102,66 102,129 0,64 -32,130 -102,130 -70,0 -102,-66 -102,-130z"/>
 </g>
</svg>
