<?xml version="1.0" encoding="UTF-8"?>
<!DOCTYPE svg PUBLIC "-//W3C//DTD SVG 1.1//EN" "http://www.w3.org/Graphics/SVG/1.1/DTD/svg11.dtd">
<!-- Creator: CorelDRAW X8 -->
<svg xmlns="http://www.w3.org/2000/svg" xml:space="preserve" width="2256px" height="1024px" version="1.1" style="shape-rendering:geometricPrecision; text-rendering:geometricPrecision; image-rendering:optimizeQuality; fill-rule:evenodd; clip-rule:evenodd"
viewBox="0 0 2256 1024"
 xmlns:xlink="http://www.w3.org/1999/xlink">
 <defs>
  <style type="text/css">
   <![CDATA[
    .fil0 {fill:#2B2A29;fill-rule:nonzero}
   ]]>
  </style>
 </defs>
 <g id="Layer_x0020_1">
  <metadata id="CorelCorpID_0Corel-Layer"/>
  <path class="fil0" d="M1905 1024c117,0 219,-56 279,-159 51,-88 72,-191 72,-292 0,-132 -34,-259 -115,-364 -114,-150 -273,-209 -454,-209 -142,0 -261,40 -363,140 -104,-111 -215,-140 -363,-140 -71,0 -143,8 -211,27 -67,-20 -136,-27 -205,-27 -147,0 -292,51 -395,157 -104,107 -150,249 -150,396 0,171 67,361 211,458 12,9 29,13 46,13 14,0 28,-3 40,-9 12,-6 22,-16 22,-27 0,-7 -5,-15 -15,-22 -127,-86 -182,-271 -182,-420 0,-156 63,-312 194,-403 72,-50 146,-70 231,-71 25,0 50,1 76,2 -173,112 -245,251 -245,459 0,107 20,214 73,308 68,120 173,183 309,183 173,0 298,-106 298,-284 0,-116 -57,-176 -157,-219 82,-51 131,-116 131,-219 0,-112 -55,-184 -141,-229 23,-2 46,-5 70,-5 198,0 295,128 295,320l0 601c0,26 42,35 61,35 20,0 61,-9 61,-35l0 -601c0,-194 111,-319 309,-319 117,0 214,43 301,122 -137,17 -251,61 -337,178 -58,79 -89,180 -89,279 0,81 20,163 64,231 63,97 165,145 279,145zm-1143 -71c-104,0 -176,-84 -215,-174 -33,-76 -47,-163 -47,-245 0,-196 74,-351 256,-432 93,26 153,92 153,200 0,103 -63,174 -160,190 -19,3 -37,1 -56,3 -20,2 -52,11 -52,36 0,25 39,34 59,34l53 0c104,0 183,63 183,179 0,105 -58,209 -174,209zm1143 0c-72,0 -126,-39 -165,-98 -39,-60 -55,-135 -55,-207 0,-90 25,-180 78,-252 71,-96 167,-136 282,-136 63,96 88,196 88,311 0,93 -16,190 -65,271 -37,62 -88,111 -163,111z"/>
 </g>
</svg>
