<?xml version="1.0" encoding="UTF-8"?>
<!DOCTYPE svg PUBLIC "-//W3C//DTD SVG 1.1//EN" "http://www.w3.org/Graphics/SVG/1.1/DTD/svg11.dtd">
<!-- Creator: CorelDRAW X8 -->
<svg xmlns="http://www.w3.org/2000/svg" xml:space="preserve" width="2582px" height="1412px" version="1.1" style="shape-rendering:geometricPrecision; text-rendering:geometricPrecision; image-rendering:optimizeQuality; fill-rule:evenodd; clip-rule:evenodd"
viewBox="0 0 2582 1412"
 xmlns:xlink="http://www.w3.org/1999/xlink">
 <defs>
  <style type="text/css">
   <![CDATA[
    .fil0 {fill:#00A0E3;fill-rule:nonzero}
   ]]>
  </style>
 </defs>
 <g id="Layer_x0020_1">
  <metadata id="CorelCorpID_0Corel-Layer"/>
  <path class="fil0" d="M2132 195c-116,-140 -275,-195 -452,-195 -141,0 -254,39 -356,139 -100,-106 -212,-138 -354,-139 -75,-1 -148,7 -220,26 -70,-14 -142,-27 -213,-26 -154,3 -287,57 -383,151 -94,94 -151,226 -154,388 -2,92 17,196 56,282 35,77 86,144 155,190 23,16 62,16 86,4 24,-11 31,-33 7,-49 -59,-40 -103,-101 -132,-170 -35,-80 -50,-177 -50,-257 1,-80 18,-159 52,-229 32,-66 79,-124 142,-168 34,-24 69,-40 105,-52 37,-11 76,-17 115,-18 29,-1 58,1 87,2 -176,113 -247,254 -245,465 0,101 23,215 73,303 69,120 175,183 312,182 166,-2 294,-101 295,-277 2,-118 -55,-185 -157,-229 82,-51 131,-116 131,-217 0,-111 -54,-181 -141,-229 27,-4 53,-5 80,-5 188,3 285,138 285,319l0 603c0,26 42,34 61,34 20,0 62,-8 62,-34l0 -603c0,-191 111,-313 300,-317 122,-3 222,41 312,123 -116,5 -249,52 -340,174 -58,79 -89,180 -89,278 0,80 20,169 64,236 63,96 164,143 276,144 119,1 221,-54 283,-158 49,-83 70,-190 71,-286 2,-112 -21,-189 -60,-291 184,81 277,314 262,568 -15,246 -153,477 -417,485 -91,3 -189,-22 -262,-81 -21,-17 -61,-18 -86,-8 -22,9 -37,30 -14,48 100,81 234,115 360,111 319,-10 522,-239 541,-555 20,-315 -127,-603 -448,-662zm-87 63c65,99 90,204 89,322 -1,88 -20,187 -65,264 -38,62 -90,111 -166,110 -70,-1 -125,-41 -162,-98 -39,-60 -56,-141 -56,-212 0,-90 25,-178 79,-251 70,-95 166,-135 281,-135zm-1289 -157c93,27 154,92 154,200 0,101 -64,172 -160,188 -19,3 -37,2 -56,3 -19,2 -55,12 -53,36 2,25 40,33 59,34 18,0 35,-2 53,0 105,8 184,69 183,185 -1,105 -59,206 -172,207 -105,1 -178,-83 -217,-173 -31,-73 -46,-163 -47,-242 -2,-199 72,-356 256,-438z"/>
 </g>
</svg>
