<?xml version="1.0" encoding="UTF-8"?>
<!DOCTYPE svg PUBLIC "-//W3C//DTD SVG 1.1//EN" "http://www.w3.org/Graphics/SVG/1.1/DTD/svg11.dtd">
<!-- Creator: CorelDRAW X8 -->
<svg xmlns="http://www.w3.org/2000/svg" xml:space="preserve" width="1608px" height="1412px" version="1.1" style="shape-rendering:geometricPrecision; text-rendering:geometricPrecision; image-rendering:optimizeQuality; fill-rule:evenodd; clip-rule:evenodd"
viewBox="0 0 1608 1412"
 xmlns:xlink="http://www.w3.org/1999/xlink">
 <defs>
  <style type="text/css">
   <![CDATA[
    .fil0 {fill:#CC9933;fill-rule:nonzero}
   ]]>
  </style>
 </defs>
 <g id="Layer_x0020_1">
  <metadata id="CorelCorpID_0Corel-Layer"/>
  <path class="fil0" d="M509 731c59,-50 91,-119 92,-197 0,-77 -31,-156 -90,-206 -56,-47 -133,-66 -205,-63 -69,2 -147,34 -179,94 1,-96 46,-178 119,-229 62,-44 138,-61 212,-62 93,-1 203,27 265,102 50,62 66,143 66,221l0 377c0,26 42,35 61,35 20,0 62,-9 62,-35l0 -377c0,-86 20,-173 75,-240 49,-58 112,-82 186,-81 85,0 160,33 215,100 74,90 98,218 97,332 0,98 -19,212 -76,295 -97,141 -253,163 -412,163l-719 0c-134,0 -278,73 -277,228 2,160 138,224 277,224l1193 0c32,0 62,-26 62,-59 0,-33 -30,-59 -62,-59l-1193 0c-77,0 -153,-46 -153,-132 0,-89 74,-132 153,-132l719 0c191,0 410,-39 527,-208 62,-91 84,-211 84,-320 0,-126 -27,-263 -109,-361 -82,-100 -202,-140 -327,-141 -144,-1 -237,43 -324,158 -106,-128 -227,-161 -389,-158 -115,2 -236,31 -325,109 -79,69 -119,163 -130,267 -10,90 -2,189 39,271 54,107 146,156 262,156 72,0 148,-25 204,-72zm-203 -391c109,0 172,90 172,194 0,104 -65,192 -172,195 -113,3 -168,-90 -168,-195 0,-103 60,-194 168,-194z"/>
 </g>
</svg>
