<?xml version="1.0" encoding="UTF-8"?>
<!DOCTYPE svg PUBLIC "-//W3C//DTD SVG 1.1//EN" "http://www.w3.org/Graphics/SVG/1.1/DTD/svg11.dtd">
<!-- Creator: CorelDRAW X8 -->
<svg xmlns="http://www.w3.org/2000/svg" xml:space="preserve" width="1078px" height="1412px" version="1.1" style="shape-rendering:geometricPrecision; text-rendering:geometricPrecision; image-rendering:optimizeQuality; fill-rule:evenodd; clip-rule:evenodd"
viewBox="0 0 1078 1412"
 xmlns:xlink="http://www.w3.org/1999/xlink">
 <defs>
  <style type="text/css">
   <![CDATA[
    .fil0 {fill:#2B2A29;fill-rule:nonzero}
   ]]>
  </style>
 </defs>
 <g id="Layer_x0020_1">
  <metadata id="CorelCorpID_0Corel-Layer"/>
  <path class="fil0" d="M968 1412c32,0 62,-26 62,-59 0,-33 -30,-59 -62,-59l-691 0c-78,0 -153,-46 -153,-132 0,-89 73,-133 153,-133l269 0c112,0 231,-15 326,-79 146,-98 206,-269 206,-437 0,-123 -37,-242 -115,-336 -106,-128 -281,-177 -440,-177 -126,-1 -258,35 -360,113 -102,78 -161,216 -161,350 0,96 28,190 97,258 59,58 130,83 210,83 81,0 168,-28 225,-86 51,-51 75,-119 75,-190 0,-77 -31,-150 -89,-198 -52,-44 -124,-64 -191,-64 -83,0 -169,28 -211,106 6,-72 46,-162 126,-222 77,-58 174,-80 268,-80 135,0 272,47 356,157 63,82 87,184 87,286 0,137 -36,275 -146,368 -74,63 -168,79 -263,79l-269 0c-133,0 -277,72 -277,225 0,162 136,227 277,227l691 0zm-652 -683c-111,0 -169,-92 -169,-194 0,-96 57,-194 169,-194 114,0 171,98 170,195 0,97 -57,193 -170,193z"/>
 </g>
</svg>
