<?xml version="1.0" encoding="UTF-8"?>
<!DOCTYPE svg PUBLIC "-//W3C//DTD SVG 1.1//EN" "http://www.w3.org/Graphics/SVG/1.1/DTD/svg11.dtd">
<!-- Creator: CorelDRAW X8 -->
<svg xmlns="http://www.w3.org/2000/svg" xml:space="preserve" width="1078px" height="1412px" version="1.1" style="shape-rendering:geometricPrecision; text-rendering:geometricPrecision; image-rendering:optimizeQuality; fill-rule:evenodd; clip-rule:evenodd"
viewBox="0 0 1078 1412"
 xmlns:xlink="http://www.w3.org/1999/xlink">
 <defs>
  <style type="text/css">
   <![CDATA[
    .fil0 {fill:#B2B09C;fill-rule:nonzero}
   ]]>
  </style>
 </defs>
 <g id="Layer_x0020_1">
  <metadata id="CorelCorpID_0Corel-Layer"/>
  <path class="fil0" d="M524 70c129,2 263,50 344,157 70,91 92,208 86,321 -6,123 -49,253 -145,333 -74,63 -168,79 -263,79l-269 0c-133,0 -277,72 -277,225 0,162 136,227 277,227l691 0c32,0 62,-26 62,-59 0,-33 -30,-59 -62,-59l-691 0c-78,0 -153,-46 -153,-132 0,-89 73,-133 153,-133l269 0c112,0 231,-15 326,-79 131,-88 197,-246 205,-402 7,-133 -29,-269 -114,-371 -106,-128 -281,-176 -440,-177 -126,0 -259,34 -360,113 -118,90 -171,222 -162,372 5,89 35,175 98,236 60,59 133,84 215,83 78,-1 163,-29 220,-86 47,-48 74,-114 75,-183 2,-79 -29,-155 -89,-205 -56,-48 -134,-67 -205,-64 -74,2 -157,32 -197,106 6,-72 46,-162 126,-222 80,-60 182,-82 280,-80zm-208 271c114,0 170,98 170,195 -1,97 -57,193 -170,193 -112,0 -168,-94 -169,-191 -1,-97 56,-197 169,-197z"/>
 </g>
</svg>
