<?xml version="1.0" encoding="UTF-8"?>
<!DOCTYPE svg PUBLIC "-//W3C//DTD SVG 1.1//EN" "http://www.w3.org/Graphics/SVG/1.1/DTD/svg11.dtd">
<!-- Creator: CorelDRAW X8 -->
<svg xmlns="http://www.w3.org/2000/svg" xml:space="preserve" width="1357px" height="1412px" version="1.1" style="shape-rendering:geometricPrecision; text-rendering:geometricPrecision; image-rendering:optimizeQuality; fill-rule:evenodd; clip-rule:evenodd"
viewBox="0 0 1357 1412"
 xmlns:xlink="http://www.w3.org/1999/xlink">
 <defs>
  <style type="text/css">
   <![CDATA[
    .fil0 {fill:#CC9933;fill-rule:nonzero}
   ]]>
  </style>
 </defs>
 <g id="Layer_x0020_1">
  <metadata id="CorelCorpID_0Corel-Layer"/>
  <path class="fil0" d="M123 269c0,-46 12,-96 40,-133 32,-44 80,-63 134,-62 51,1 99,22 132,61 27,32 44,77 44,134 0,51 -14,105 -51,143 -32,34 -76,51 -121,51 -51,0 -101,-21 -134,-60 -26,-32 -44,-77 -44,-134zm177 269c74,3 149,-16 207,-64 63,-51 92,-125 92,-206 0,-68 -29,-133 -78,-182 -60,-58 -141,-86 -224,-86 -82,0 -148,25 -196,69 -53,49 -86,121 -97,206 -7,54 -5,107 6,160 26,114 96,205 195,265 59,36 117,54 183,73 -139,41 -320,117 -318,288 3,268 400,351 612,351 210,0 602,-86 605,-351 2,-171 -179,-247 -318,-288 66,-19 124,-37 183,-73 99,-60 169,-151 195,-265 12,-53 13,-106 6,-160 -11,-85 -44,-157 -97,-206 -48,-44 -114,-69 -196,-69 -83,0 -164,28 -224,86 -49,49 -78,114 -78,182 0,81 29,155 92,206 58,48 133,67 207,64 86,-3 152,-44 195,-89 -37,104 -114,194 -264,245 -98,33 -209,37 -309,37 -100,1 -211,-6 -309,-37 -119,-39 -224,-124 -265,-245 39,42 109,86 195,89zm934 -269c0,103 -63,192 -174,194 -115,2 -176,-90 -176,-194 0,-104 66,-193 176,-195 116,-2 174,90 174,195zm-552 1073c-168,0 -484,-69 -484,-281 -1,-212 319,-261 481,-259 160,2 481,50 480,259 0,213 -309,281 -477,281z"/>
 </g>
</svg>
