<?xml version="1.0" encoding="UTF-8"?>
<!DOCTYPE svg PUBLIC "-//W3C//DTD SVG 1.1//EN" "http://www.w3.org/Graphics/SVG/1.1/DTD/svg11.dtd">
<!-- Creator: CorelDRAW X8 -->
<svg xmlns="http://www.w3.org/2000/svg" xml:space="preserve" width="1317px" height="1412px" version="1.1" style="shape-rendering:geometricPrecision; text-rendering:geometricPrecision; image-rendering:optimizeQuality; fill-rule:evenodd; clip-rule:evenodd"
viewBox="0 0 1317 1412"
 xmlns:xlink="http://www.w3.org/1999/xlink">
 <defs>
  <style type="text/css">
   <![CDATA[
    .fil0 {fill:#2B2A29;fill-rule:nonzero}
   ]]>
  </style>
 </defs>
 <g id="Layer_x0020_1">
  <metadata id="CorelCorpID_0Corel-Layer"/>
  <path class="fil0" d="M655 1412c208,0 594,-86 594,-352 0,-169 -174,-246 -309,-287 65,-19 121,-37 178,-73 97,-60 164,-151 189,-265 7,-32 10,-65 10,-97 0,-96 -26,-202 -98,-269 -47,-44 -110,-69 -190,-69 -81,0 -160,28 -217,86 -48,49 -76,114 -76,182 0,81 28,155 89,206 53,45 119,64 186,64 81,0 149,-30 204,-89 -35,104 -111,194 -256,245 -98,34 -202,37 -304,37 -98,0 -203,-6 -296,-37 -115,-38 -218,-124 -257,-245 53,58 126,89 204,89 67,0 134,-20 186,-64 61,-52 89,-125 89,-206 0,-68 -28,-133 -76,-182 -57,-58 -136,-86 -217,-86 -80,0 -143,25 -190,69 -71,67 -98,173 -98,269 0,32 3,65 10,97 25,114 92,205 189,265 57,36 113,54 178,73 -135,41 -309,118 -309,287 0,269 377,352 587,352zm373 -949c-111,0 -170,-93 -170,-195 0,-96 57,-194 170,-194 114,0 171,98 170,195 0,97 -58,194 -170,194zm-739 0c-112,0 -169,-95 -169,-197 0,-95 57,-192 169,-192 114,0 170,98 170,195 0,97 -57,194 -170,194zm366 879c-167,0 -463,-69 -463,-282 0,-210 304,-258 463,-258 156,0 470,50 470,258 0,212 -304,282 -470,282z"/>
 </g>
</svg>
