<?xml version="1.0" encoding="UTF-8"?>
<!DOCTYPE svg PUBLIC "-//W3C//DTD SVG 1.1//EN" "http://www.w3.org/Graphics/SVG/1.1/DTD/svg11.dtd">
<!-- Creator: CorelDRAW X8 -->
<svg xmlns="http://www.w3.org/2000/svg" xml:space="preserve" width="1878px" height="1024px" version="1.1" style="shape-rendering:geometricPrecision; text-rendering:geometricPrecision; image-rendering:optimizeQuality; fill-rule:evenodd; clip-rule:evenodd"
viewBox="0 0 1878 1024"
 xmlns:xlink="http://www.w3.org/1999/xlink">
 <defs>
  <style type="text/css">
   <![CDATA[
    .fil0 {fill:#CC9933;fill-rule:nonzero}
   ]]>
  </style>
 </defs>
 <g id="Layer_x0020_1">
  <metadata id="CorelCorpID_0Corel-Layer"/>
  <path class="fil0" d="M1302 0c-162,0 -253,41 -363,161 -110,-120 -201,-161 -363,-161 -181,0 -347,59 -461,209 -83,108 -117,239 -115,375 1,96 23,198 72,281 62,104 164,160 282,159 112,-1 213,-48 276,-145 44,-67 64,-150 64,-231 0,-99 -30,-200 -89,-279 -86,-117 -201,-161 -337,-178 89,-82 189,-124 309,-122 190,4 300,128 300,320l0 600c0,26 43,35 62,35 20,0 61,-9 61,-35l0 -600c0,-192 111,-316 301,-320 121,-2 220,41 309,122 -137,17 -252,61 -337,178 -59,79 -89,180 -89,279 0,81 20,164 64,231 63,97 164,144 276,145 118,1 220,-55 282,-159 49,-83 71,-185 72,-281 2,-136 -32,-267 -115,-375 -114,-150 -280,-209 -461,-209zm-1091 260c115,0 211,40 282,136 53,73 79,162 79,252 0,72 -17,147 -56,207 -38,58 -93,98 -163,98 -76,1 -128,-47 -165,-110 -46,-77 -64,-170 -65,-259 -2,-119 23,-224 88,-324zm1456 0c65,100 90,205 88,324 -1,89 -19,182 -65,259 -37,63 -89,111 -165,110 -70,0 -125,-40 -163,-98 -39,-60 -56,-135 -56,-207 0,-90 26,-179 79,-252 71,-96 167,-136 282,-136z"/>
 </g>
</svg>
