<?xml version="1.0" encoding="UTF-8"?>
<!DOCTYPE svg PUBLIC "-//W3C//DTD SVG 1.1//EN" "http://www.w3.org/Graphics/SVG/1.1/DTD/svg11.dtd">
<!-- Creator: CorelDRAW X8 -->
<svg xmlns="http://www.w3.org/2000/svg" xml:space="preserve" width="1842px" height="1024px" version="1.1" style="shape-rendering:geometricPrecision; text-rendering:geometricPrecision; image-rendering:optimizeQuality; fill-rule:evenodd; clip-rule:evenodd"
viewBox="0 0 1842 1024"
 xmlns:xlink="http://www.w3.org/1999/xlink">
 <defs>
  <style type="text/css">
   <![CDATA[
    .fil0 {fill:#B2B09C;fill-rule:nonzero}
   ]]>
  </style>
 </defs>
 <g id="Layer_x0020_1">
  <metadata id="CorelCorpID_0Corel-Layer"/>
  <path class="fil0" d="M1266 0c-161,0 -255,43 -366,164 -99,-124 -238,-162 -391,-164 -201,-2 -364,90 -449,265 -37,74 -57,167 -60,262 -4,162 44,331 156,425 60,50 127,73 204,72 74,-1 151,-26 208,-74 67,-57 99,-148 102,-235 2,-82 -21,-161 -76,-221 -59,-64 -147,-97 -232,-94 -106,4 -209,63 -241,171 -6,-97 12,-196 52,-280 64,-133 180,-222 334,-221 194,2 335,110 335,317l0 601c0,26 41,36 61,36 20,0 62,-9 62,-35l0 -602c0,-193 112,-314 300,-318 121,-2 220,41 309,122 -137,17 -252,62 -337,178 -59,79 -89,180 -89,279 0,81 20,164 64,231 63,97 164,144 276,145 118,1 221,-55 282,-159 49,-83 71,-185 72,-281 2,-136 -32,-267 -115,-375 -114,-150 -280,-209 -461,-209zm-1100 715c0,-121 64,-239 195,-239 131,0 194,119 193,239 0,119 -64,239 -193,239 -132,-1 -195,-117 -195,-239zm1465 -455c65,100 90,205 88,324 -1,89 -19,182 -65,259 -37,63 -89,111 -165,110 -70,0 -125,-40 -163,-98 -39,-60 -56,-135 -56,-207 0,-90 26,-179 79,-252 71,-96 167,-136 282,-136z"/>
 </g>
</svg>
