<?xml version="1.0" encoding="UTF-8"?>
<!DOCTYPE svg PUBLIC "-//W3C//DTD SVG 1.1//EN" "http://www.w3.org/Graphics/SVG/1.1/DTD/svg11.dtd">
<!-- Creator: CorelDRAW X8 -->
<svg xmlns="http://www.w3.org/2000/svg" xml:space="preserve" width="1842px" height="1024px" version="1.1" style="shape-rendering:geometricPrecision; text-rendering:geometricPrecision; image-rendering:optimizeQuality; fill-rule:evenodd; clip-rule:evenodd"
viewBox="0 0 1842 1024"
 xmlns:xlink="http://www.w3.org/1999/xlink">
 <defs>
  <style type="text/css">
   <![CDATA[
    .fil0 {fill:#CC9933;fill-rule:nonzero}
   ]]>
  </style>
 </defs>
 <g id="Layer_x0020_1">
  <metadata id="CorelCorpID_0Corel-Layer"/>
  <path class="fil0" d="M1266 0c-161,0 -255,43 -366,164 -99,-124 -238,-162 -391,-164 -192,-2 -362,85 -449,263 -42,85 -60,180 -60,274 0,145 42,320 156,415 60,50 127,72 204,71 74,-1 151,-25 208,-73 67,-57 99,-153 101,-240 3,-81 -20,-160 -76,-220 -59,-63 -146,-96 -231,-93 -128,5 -215,89 -242,171 -3,-83 5,-182 52,-277 65,-135 185,-222 335,-221 194,2 335,110 335,317l0 601c0,26 41,36 61,36 20,0 62,-9 62,-35l0 -602c0,-193 112,-314 300,-318 121,-2 220,41 309,122 -137,17 -252,62 -337,178 -59,79 -89,180 -89,279 0,81 20,164 64,231 63,97 164,144 276,145 118,1 221,-55 282,-159 49,-83 71,-185 72,-281 2,-136 -32,-267 -115,-375 -114,-150 -280,-209 -461,-209zm-1100 710c0,-119 64,-237 194,-237 131,0 194,116 194,236 0,119 -63,245 -193,245 -132,-1 -195,-123 -195,-244zm1465 -450c65,100 90,205 88,324 -1,89 -19,182 -65,259 -37,63 -89,111 -165,110 -70,0 -125,-40 -163,-98 -39,-60 -56,-135 -56,-207 0,-90 26,-179 79,-252 71,-96 167,-136 282,-136z"/>
 </g>
</svg>
