<?xml version="1.0" encoding="UTF-8"?>
<!DOCTYPE svg PUBLIC "-//W3C//DTD SVG 1.1//EN" "http://www.w3.org/Graphics/SVG/1.1/DTD/svg11.dtd">
<!-- Creator: CorelDRAW X8 -->
<svg xmlns="http://www.w3.org/2000/svg" xml:space="preserve" width="1842px" height="1024px" version="1.1" style="shape-rendering:geometricPrecision; text-rendering:geometricPrecision; image-rendering:optimizeQuality; fill-rule:evenodd; clip-rule:evenodd"
viewBox="0 0 1842 1024"
 xmlns:xlink="http://www.w3.org/1999/xlink">
 <defs>
  <style type="text/css">
   <![CDATA[
    .fil0 {fill:#2B2A29;fill-rule:nonzero}
   ]]>
  </style>
 </defs>
 <g id="Layer_x0020_1">
  <metadata id="CorelCorpID_0Corel-Layer"/>
  <path class="fil0" d="M1491 1024c118,0 219,-56 279,-159 52,-88 72,-192 72,-293 0,-131 -35,-258 -115,-363 -114,-150 -273,-209 -454,-209 -162,0 -262,42 -373,164 -99,-125 -242,-164 -396,-164 -198,0 -359,92 -444,265 -42,85 -60,187 -60,281 0,156 48,316 156,406 59,49 124,72 199,72 76,0 155,-24 213,-74 70,-59 102,-156 102,-245 0,-78 -22,-153 -76,-211 -56,-61 -140,-94 -221,-94 -111,0 -219,60 -252,171 -3,-100 8,-188 52,-280 64,-132 179,-221 331,-221 198,0 338,112 338,317l0 601c0,26 41,36 61,36 20,0 62,-9 62,-35l0 -602c0,-196 117,-318 308,-318 117,0 214,43 301,122 -137,17 -251,61 -337,178 -58,79 -89,180 -89,279 0,81 20,163 64,231 63,97 165,145 279,145zm-1130 -71c-132,0 -195,-116 -195,-238 0,-121 64,-239 195,-239 130,0 193,117 193,236 0,119 -59,241 -193,241zm1130 0c-71,0 -127,-41 -164,-99 -39,-60 -56,-135 -56,-206 0,-90 26,-180 79,-252 71,-96 166,-136 281,-136 63,96 88,196 88,311 0,94 -16,190 -65,271 -37,62 -88,111 -163,111z"/>
 </g>
</svg>
