<?xml version="1.0" encoding="UTF-8"?>
<!DOCTYPE svg PUBLIC "-//W3C//DTD SVG 1.1//EN" "http://www.w3.org/Graphics/SVG/1.1/DTD/svg11.dtd">
<!-- Creator: CorelDRAW X8 -->
<svg xmlns="http://www.w3.org/2000/svg" xml:space="preserve" width="1137px" height="600px" version="1.1" style="shape-rendering:geometricPrecision; text-rendering:geometricPrecision; image-rendering:optimizeQuality; fill-rule:evenodd; clip-rule:evenodd"
viewBox="0 0 1137 600"
 xmlns:xlink="http://www.w3.org/1999/xlink">
 <defs>
  <style type="text/css">
   <![CDATA[
    .fil0 {fill:#00A0E3;fill-rule:nonzero}
   ]]>
  </style>
 </defs>
 <g id="Layer_x0020_1">
  <metadata id="CorelCorpID_0Corel-Layer"/>
  <path class="fil0" d="M778 0c-90,0 -158,22 -220,86 -53,-63 -157,-85 -238,-86 -132,-1 -233,59 -283,156 -24,46 -37,100 -37,160 0,92 29,186 96,240 40,31 84,44 134,44 51,-1 101,-17 136,-46 42,-33 62,-86 64,-138 1,-52 -15,-97 -48,-130 -36,-37 -92,-59 -152,-57 -54,2 -101,26 -132,70 0,-43 11,-85 30,-123 36,-71 103,-123 191,-123 112,1 191,62 191,177l0 343c0,15 22,27 49,27 27,0 49,-12 49,-27l0 -343c0,-103 60,-175 170,-177 59,-1 121,19 166,58 -76,10 -148,43 -195,104 -35,46 -54,105 -54,163 0,49 13,97 39,135 40,59 106,86 177,87 72,1 141,-29 182,-96 29,-47 43,-105 44,-163 1,-79 -20,-155 -70,-217 -63,-78 -159,-124 -289,-124zm-653 416c0,-86 53,-130 105,-130 53,0 106,43 106,130 0,87 -54,130 -106,130 -54,0 -105,-44 -105,-130zm864 -254c37,53 51,116 50,179 -1,52 -12,104 -39,146 -24,40 -54,60 -88,59 -37,0 -66,-23 -86,-52 -22,-32 -33,-73 -33,-116 0,-51 15,-101 46,-142 36,-47 90,-74 150,-74z"/>
 </g>
</svg>
