<?xml version="1.0" encoding="UTF-8"?>
<!DOCTYPE svg PUBLIC "-//W3C//DTD SVG 1.1//EN" "http://www.w3.org/Graphics/SVG/1.1/DTD/svg11.dtd">
<!-- Creator: CorelDRAW X8 -->
<svg xmlns="http://www.w3.org/2000/svg" xml:space="preserve" width="1155px" height="600px" version="1.1" style="shape-rendering:geometricPrecision; text-rendering:geometricPrecision; image-rendering:optimizeQuality; fill-rule:evenodd; clip-rule:evenodd"
viewBox="0 0 1155 600"
 xmlns:xlink="http://www.w3.org/1999/xlink">
 <defs>
  <style type="text/css">
   <![CDATA[
    .fil0 {fill:#CC9933;fill-rule:nonzero}
   ]]>
  </style>
 </defs>
 <g id="Layer_x0020_1">
  <metadata id="CorelCorpID_0Corel-Layer"/>
  <path class="fil0" d="M796 0c130,0 226,46 289,124 50,62 71,138 70,217 -1,58 -14,116 -44,163 -41,67 -110,97 -182,96 -71,-1 -136,-28 -177,-87 -26,-38 -39,-86 -39,-135 0,-58 19,-117 54,-163 47,-61 119,-94 196,-104 -46,-39 -108,-59 -167,-58 -113,2 -170,77 -170,177l0 343c0,15 -22,27 -48,27 -27,0 -50,-12 -50,-27l0 -343c0,-100 -56,-175 -169,-177 -59,-1 -121,19 -167,58 77,10 149,43 196,104 35,46 54,105 54,163 0,49 -13,97 -39,135 -41,59 -106,86 -177,87 -72,1 -141,-29 -182,-96 -30,-47 -43,-105 -44,-163 -1,-79 20,-155 70,-217 63,-78 159,-124 289,-124 91,0 158,22 219,85 60,-63 127,-85 218,-85zm-649 162c-36,53 -50,116 -49,179 1,52 12,104 39,146 24,40 54,60 88,59 37,0 66,-23 86,-52 22,-32 33,-73 33,-116 0,-51 -15,-101 -46,-142 -37,-47 -90,-74 -151,-74zm861 0c-61,0 -114,27 -151,74 -31,41 -46,91 -46,142 0,43 11,84 33,116 20,29 49,52 86,52 34,1 64,-19 88,-59 27,-42 38,-94 39,-146 1,-63 -13,-126 -49,-179z"/>
 </g>
</svg>
