<?xml version="1.0" encoding="UTF-8"?>
<!DOCTYPE svg PUBLIC "-//W3C//DTD SVG 1.1//EN" "http://www.w3.org/Graphics/SVG/1.1/DTD/svg11.dtd">
<!-- Creator: CorelDRAW X8 -->
<svg xmlns="http://www.w3.org/2000/svg" xml:space="preserve" width="1956px" height="1400px" version="1.1" style="shape-rendering:geometricPrecision; text-rendering:geometricPrecision; image-rendering:optimizeQuality; fill-rule:evenodd; clip-rule:evenodd"
viewBox="0 0 1956 1400"
 xmlns:xlink="http://www.w3.org/1999/xlink">
 <defs>
  <style type="text/css">
   <![CDATA[
    .fil0 {fill:#CC9933;fill-rule:nonzero}
   ]]>
  </style>
 </defs>
 <g id="Layer_x0020_1">
  <metadata id="CorelCorpID_0Corel-Layer"/>
  <path class="fil0" d="M242 950c-80,-36 -116,-130 -116,-213 0,-124 85,-223 213,-223 128,0 211,99 211,222 0,77 -29,163 -98,204 -24,13 -25,36 0,49 12,7 27,11 45,11l399 0c37,199 124,394 358,400 107,3 175,-34 207,-139 23,-78 23,-190 23,-277 -1,-239 -1,-477 -1,-715 0,-26 -42,-35 -62,-35 -20,0 -63,9 -63,35l0 661 -346 0c-8,-75 -10,-155 -7,-230 11,-248 103,-630 415,-630 328,0 405,409 411,664 4,181 -33,481 -171,613 -22,21 1,41 22,48 25,8 66,6 86,-13 151,-144 192,-450 188,-648 -8,-346 -121,-734 -536,-734 -396,0 -525,364 -540,701 -3,75 -1,154 7,229l-274 0c43,-61 62,-118 62,-194 0,-186 -162,-292 -336,-292 -174,0 -339,105 -339,293 0,112 56,217 159,265 27,13 67,15 93,-3 24,-17 14,-38 -10,-49zm1116 50c0,55 0,103 -5,158 -6,60 -19,176 -101,172 -147,-8 -207,-214 -230,-330l336 0z"/>
 </g>
</svg>
