<?xml version="1.0" encoding="UTF-8"?>
<!DOCTYPE svg PUBLIC "-//W3C//DTD SVG 1.1//EN" "http://www.w3.org/Graphics/SVG/1.1/DTD/svg11.dtd">
<!-- Creator: CorelDRAW X8 -->
<svg xmlns="http://www.w3.org/2000/svg" xml:space="preserve" width="1964px" height="1400px" version="1.1" style="shape-rendering:geometricPrecision; text-rendering:geometricPrecision; image-rendering:optimizeQuality; fill-rule:evenodd; clip-rule:evenodd"
viewBox="0 0 1964 1400"
 xmlns:xlink="http://www.w3.org/1999/xlink">
 <defs>
  <style type="text/css">
   <![CDATA[
    .fil0 {fill:#2B2A29;fill-rule:nonzero}
   ]]>
  </style>
 </defs>
 <g id="Layer_x0020_1">
  <metadata id="CorelCorpID_0Corel-Layer"/>
  <path class="fil0" d="M1230 1330c-144,0 -208,-218 -229,-330l329 0 0 40c0,77 3,290 -100,290zm206 -1260c250,-1 400,163 400,415 0,104 -32,284 -156,306 -18,4 -34,3 -55,4 -20,1 -55,11 -55,35 0,24 38,35 57,35l51 -1c119,-2 164,112 163,219 0,101 -49,245 -166,246 -28,1 -53,-14 -82,-14 -33,0 -63,18 -63,35 0,34 89,50 144,49 184,-1 290,-133 290,-316 1,-115 -47,-206 -148,-262 111,-78 144,-205 143,-336 0,-319 -221,-485 -523,-485 -448,0 -575,399 -575,767 0,55 2,110 8,163l-269 0c42,-61 62,-118 62,-194 0,-186 -159,-292 -330,-292 -171,0 -332,105 -332,293 0,112 54,217 155,265 13,6 29,10 45,10 17,0 33,-4 46,-13 10,-7 14,-14 14,-22 0,-10 -9,-20 -23,-27 -79,-36 -114,-130 -114,-213 0,-124 84,-223 209,-223 125,0 207,99 207,222 0,77 -28,163 -97,204 -12,7 -18,16 -17,26 1,25 42,34 62,34l391 0c36,204 124,400 362,400 98,0 161,-38 191,-139 19,-65 22,-152 22,-230l0 -762c0,-26 -42,-35 -61,-35 -20,0 -62,9 -62,35l0 661 -339 0c-5,-52 -8,-107 -8,-160 0,-296 88,-699 453,-700z"/>
 </g>
</svg>
