<?xml version="1.0" encoding="UTF-8"?>
<!DOCTYPE svg PUBLIC "-//W3C//DTD SVG 1.1//EN" "http://www.w3.org/Graphics/SVG/1.1/DTD/svg11.dtd">
<!-- Creator: CorelDRAW X8 -->
<svg xmlns="http://www.w3.org/2000/svg" xml:space="preserve" width="1964px" height="1400px" version="1.1" style="shape-rendering:geometricPrecision; text-rendering:geometricPrecision; image-rendering:optimizeQuality; fill-rule:evenodd; clip-rule:evenodd"
viewBox="0 0 1964 1400"
 xmlns:xlink="http://www.w3.org/1999/xlink">
 <defs>
  <style type="text/css">
   <![CDATA[
    .fil0 {fill:#00A0E3;fill-rule:nonzero}
   ]]>
  </style>
 </defs>
 <g id="Layer_x0020_1">
  <metadata id="CorelCorpID_0Corel-Layer"/>
  <path class="fil0" d="M1627 865c26,1 52,-3 79,1 95,15 136,134 135,222 -1,99 -50,239 -166,241 -17,0 -35,-3 -51,-9 -22,-8 -53,-7 -75,5 -31,18 -22,43 10,54 36,14 76,20 115,20 182,-2 288,-132 290,-312 1,-117 -46,-209 -148,-266 111,-78 143,-205 143,-336 -1,-321 -224,-487 -528,-485 -409,3 -560,351 -571,719 -2,69 1,142 8,211l-268 0c43,-61 62,-118 62,-194 0,-186 -159,-292 -330,-292 -170,0 -332,104 -332,292 0,112 55,219 157,267 26,12 65,13 89,-4 24,-17 14,-38 -9,-49 -79,-36 -114,-131 -114,-214 0,-124 84,-222 209,-222 126,0 207,100 207,222 0,77 -28,163 -97,204 -11,7 -17,16 -17,25 0,26 42,35 62,35l391 0c36,198 122,394 351,400 104,2 171,-35 202,-139 23,-79 23,-194 23,-282 -1,-223 -1,-478 -1,-711 0,-27 -41,-35 -61,-35 -20,0 -62,8 -62,35l0 662 -339 0c-8,-69 -10,-143 -8,-211 8,-282 115,-646 448,-649 254,-3 405,162 405,416 0,97 -30,265 -135,300 -28,9 -48,8 -76,9 -18,2 -54,11 -55,34 -1,25 38,35 57,36zm-626 135l329 0c0,53 1,98 -4,151 -5,61 -18,183 -100,179 -142,-8 -203,-215 -225,-330z"/>
 </g>
</svg>
