<?xml version="1.0" encoding="UTF-8"?>
<!DOCTYPE svg PUBLIC "-//W3C//DTD SVG 1.1//EN" "http://www.w3.org/Graphics/SVG/1.1/DTD/svg11.dtd">
<!-- Creator: CorelDRAW X8 -->
<svg xmlns="http://www.w3.org/2000/svg" xml:space="preserve" width="2004px" height="1400px" version="1.1" style="shape-rendering:geometricPrecision; text-rendering:geometricPrecision; image-rendering:optimizeQuality; fill-rule:evenodd; clip-rule:evenodd"
viewBox="0 0 2004 1400"
 xmlns:xlink="http://www.w3.org/1999/xlink">
 <defs>
  <style type="text/css">
   <![CDATA[
    .fil0 {fill:#CC9933;fill-rule:nonzero}
   ]]>
  </style>
 </defs>
 <g id="Layer_x0020_1">
  <metadata id="CorelCorpID_0Corel-Layer"/>
  <path class="fil0" d="M1660 865c27,1 53,-3 80,1 98,15 140,134 139,222 -1,99 -51,239 -170,241 -18,0 -35,-3 -52,-9 -14,-5 -31,-6 -47,-4 -48,6 -71,45 -20,63 38,14 78,20 118,20 186,-2 294,-132 296,-312 1,-117 -47,-209 -151,-266 113,-78 146,-205 146,-336 -1,-299 -254,-487 -539,-485 -417,3 -571,350 -582,719 -2,69 0,142 8,211l-273 0c43,-61 62,-118 62,-194 0,-186 -162,-292 -336,-292 -174,0 -339,104 -339,292 0,112 56,219 160,267 27,12 67,13 91,-4 24,-17 14,-38 -9,-49 -81,-36 -116,-131 -116,-214 0,-124 85,-222 213,-222 129,0 211,99 211,222 0,77 -29,163 -99,204 -23,13 -24,36 1,49 11,7 27,11 45,11l399 0c37,198 125,394 358,400 106,2 174,-35 206,-139 24,-79 23,-194 23,-282 0,-223 0,-478 0,-711 0,-27 -43,-35 -63,-35 -20,0 -62,8 -62,35l0 662 -347 0c-8,-69 -10,-143 -8,-211 8,-282 118,-646 457,-649 235,-3 413,184 414,416 0,97 -31,265 -139,300 -28,9 -49,8 -77,9 -19,1 -55,11 -56,34 -1,25 39,35 58,36zm-639 135l337 0c-1,53 0,98 -5,151 -5,61 -18,183 -102,179 -145,-8 -207,-215 -230,-330z"/>
 </g>
</svg>
