<?xml version="1.0" encoding="UTF-8"?>
<!DOCTYPE svg PUBLIC "-//W3C//DTD SVG 1.1//EN" "http://www.w3.org/Graphics/SVG/1.1/DTD/svg11.dtd">
<!-- Creator: CorelDRAW X8 -->
<svg xmlns="http://www.w3.org/2000/svg" xml:space="preserve" width="1161px" height="1024px" version="1.1" style="shape-rendering:geometricPrecision; text-rendering:geometricPrecision; image-rendering:optimizeQuality; fill-rule:evenodd; clip-rule:evenodd"
viewBox="0 0 1161 1024"
 xmlns:xlink="http://www.w3.org/1999/xlink">
 <defs>
  <style type="text/css">
   <![CDATA[
    .fil0 {fill:#CC9933;fill-rule:nonzero}
   ]]>
  </style>
 </defs>
 <g id="Layer_x0020_1">
  <metadata id="CorelCorpID_0Corel-Layer"/>
  <path class="fil0" d="M654 714c2,-82 -21,-161 -77,-221 -59,-64 -146,-97 -232,-94 -109,4 -189,53 -224,136 7,-105 36,-239 135,-336 96,-93 228,-126 357,-128 98,-2 220,19 300,78 59,43 93,101 96,175 1,47 -14,94 -48,127 -24,23 -55,37 -88,43 -18,3 -36,2 -54,4 -18,1 -54,12 -52,36 2,23 35,32 53,33 16,2 33,-1 49,0 37,2 75,14 104,39 44,36 66,90 65,147 0,52 -20,99 -51,139 -30,37 -73,61 -120,61 -21,1 -42,-4 -62,-11 -9,-3 -20,-5 -32,-5 -19,0 -40,4 -53,16 -7,7 -10,13 -9,19 0,13 14,24 28,30 42,15 83,23 127,22 84,-2 178,-35 232,-103 38,-47 62,-106 63,-168 1,-108 -59,-179 -148,-226 75,-48 120,-109 118,-202 -3,-128 -77,-210 -186,-262 -99,-47 -221,-65 -330,-63 -139,3 -283,38 -398,119 -136,95 -207,235 -215,401 -6,108 2,220 50,318 59,121 159,187 292,186 74,-1 150,-26 208,-74 67,-58 99,-148 102,-236zm-504 0c0,-120 63,-238 194,-239 131,-1 194,119 194,239 0,120 -64,240 -194,239 -132,0 -195,-117 -194,-239z"/>
 </g>
</svg>
