<?xml version="1.0" encoding="UTF-8"?>
<!DOCTYPE svg PUBLIC "-//W3C//DTD SVG 1.1//EN" "http://www.w3.org/Graphics/SVG/1.1/DTD/svg11.dtd">
<!-- Creator: CorelDRAW X8 -->
<svg xmlns="http://www.w3.org/2000/svg" xml:space="preserve" width="1201px" height="1024px" version="1.1" style="shape-rendering:geometricPrecision; text-rendering:geometricPrecision; image-rendering:optimizeQuality; fill-rule:evenodd; clip-rule:evenodd"
viewBox="0 0 1201 1024"
 xmlns:xlink="http://www.w3.org/1999/xlink">
 <defs>
  <style type="text/css">
   <![CDATA[
    .fil0 {fill:#CC9933;fill-rule:nonzero}
   ]]>
  </style>
 </defs>
 <g id="Layer_x0020_1">
  <metadata id="CorelCorpID_0Corel-Layer"/>
  <path class="fil0" d="M676 714c2,-82 -21,-161 -79,-221 -61,-64 -151,-97 -240,-94 -113,4 -195,53 -232,136 7,-105 37,-239 140,-336 99,-93 236,-126 369,-128 101,-2 228,19 311,78 60,43 96,101 98,175 2,47 -14,94 -49,127 -25,23 -57,37 -91,43 -19,3 -37,2 -56,4 -18,1 -56,12 -54,36 2,23 37,32 55,33 17,2 34,-1 51,0 38,2 78,14 108,39 45,36 68,90 67,147 -1,52 -21,99 -53,139 -31,37 -76,61 -124,61 -22,1 -44,-4 -64,-11 -26,-9 -67,-7 -88,11 -23,20 -2,41 20,49 43,15 85,23 131,22 87,-2 184,-35 240,-103 39,-47 64,-106 65,-168 1,-108 -61,-179 -153,-226 77,-48 124,-109 122,-202 -3,-128 -80,-210 -192,-262 -103,-47 -229,-65 -342,-63 -143,3 -292,38 -412,119 -140,95 -213,235 -222,401 -6,108 3,220 52,318 61,121 164,187 302,186 76,-1 155,-26 215,-74 69,-58 103,-148 105,-236zm-521 0c0,-120 66,-238 201,-239 136,-1 201,119 201,239 0,120 -67,240 -201,239 -136,0 -202,-117 -201,-239z"/>
 </g>
</svg>
