<?xml version="1.0" encoding="UTF-8"?>
<!DOCTYPE svg PUBLIC "-//W3C//DTD SVG 1.1//EN" "http://www.w3.org/Graphics/SVG/1.1/DTD/svg11.dtd">
<!-- Creator: CorelDRAW X8 -->
<svg xmlns="http://www.w3.org/2000/svg" xml:space="preserve" width="1161px" height="1024px" version="1.1" style="shape-rendering:geometricPrecision; text-rendering:geometricPrecision; image-rendering:optimizeQuality; fill-rule:evenodd; clip-rule:evenodd"
viewBox="0 0 1161 1024"
 xmlns:xlink="http://www.w3.org/1999/xlink">
 <defs>
  <style type="text/css">
   <![CDATA[
    .fil0 {fill:#2B2A29;fill-rule:nonzero}
   ]]>
  </style>
 </defs>
 <g id="Layer_x0020_1">
  <metadata id="CorelCorpID_0Corel-Layer"/>
  <path class="fil0" d="M1098 921c38,-48 63,-110 63,-172 0,-106 -60,-175 -148,-222 73,-47 118,-109 118,-199 0,-129 -74,-212 -186,-265 -94,-45 -214,-63 -319,-63 -144,0 -290,35 -409,119 -136,95 -210,235 -215,401l-2 60c-3,89 13,178 52,258 59,120 158,186 289,186 75,0 154,-25 211,-74 70,-59 102,-156 102,-246 0,-78 -23,-153 -77,-211 -57,-61 -139,-94 -221,-94 -99,0 -195,40 -235,136 7,-105 36,-239 135,-336 99,-96 236,-128 370,-128 95,0 210,22 287,78 58,42 96,106 96,179 0,46 -15,91 -48,123 -47,45 -72,47 -129,47 -18,0 -65,10 -65,35 0,29 42,36 65,35 53,-1 98,2 141,38 43,36 65,88 65,143 0,55 -17,101 -51,143 -31,40 -77,61 -128,61 -34,0 -55,-16 -87,-16 -19,0 -39,5 -52,16 -7,6 -10,12 -10,18 0,14 14,26 29,31 40,15 78,22 120,22 87,0 184,-34 239,-103zm-754 32c-135,0 -194,-119 -194,-239 0,-120 63,-239 196,-239 132,0 192,122 192,239 0,119 -61,239 -194,239z"/>
 </g>
</svg>
