<?xml version="1.0" encoding="UTF-8"?>
<!DOCTYPE svg PUBLIC "-//W3C//DTD SVG 1.1//EN" "http://www.w3.org/Graphics/SVG/1.1/DTD/svg11.dtd">
<!-- Creator: CorelDRAW X8 -->
<svg xmlns="http://www.w3.org/2000/svg" xml:space="preserve" width="1041px" height="600px" version="1.1" style="shape-rendering:geometricPrecision; text-rendering:geometricPrecision; image-rendering:optimizeQuality; fill-rule:evenodd; clip-rule:evenodd"
viewBox="0 0 1041 600"
 xmlns:xlink="http://www.w3.org/1999/xlink">
 <defs>
  <style type="text/css">
   <![CDATA[
    .fil0 {fill:#B2B09C;fill-rule:nonzero}
   ]]>
  </style>
 </defs>
 <g id="Layer_x0020_1">
  <metadata id="CorelCorpID_0Corel-Layer"/>
  <path class="fil0" d="M521 0c107,0 172,42 208,105 25,45 37,101 40,158l44 0c60,0 120,14 164,46 38,27 64,69 64,128 0,45 -19,82 -48,110 -37,34 -90,52 -143,53 -24,0 -48,-4 -71,-11 -26,-7 -37,-30 -9,-43 33,-15 51,1 80,0 29,0 53,-16 70,-38 15,-20 23,-46 24,-70 0,-27 -9,-55 -27,-77 -21,-26 -56,-44 -104,-44l-44 0c-2,65 -13,130 -42,180 -36,62 -100,103 -206,103 -86,0 -144,-27 -182,-69 -29,44 -80,69 -146,69 -55,0 -109,-18 -146,-54 -32,-31 -47,-71 -47,-111 0,-41 17,-82 48,-112 50,-49 121,-60 174,-60l50 0c3,-57 15,-113 40,-157 36,-64 101,-106 209,-106zm-241 397c-5,-26 -7,-53 -8,-80l-50 0c-22,0 -59,3 -88,32 -23,22 -35,53 -36,85 -1,31 10,63 35,86 18,18 40,27 60,27 22,0 43,-12 57,-27 31,-32 37,-81 30,-123zm391 -80l-301 0c2,61 11,120 38,164 23,39 58,66 113,66 54,0 90,-27 113,-66 26,-45 36,-104 37,-164zm-301 -54l301 0c-3,-52 -13,-103 -36,-142 -23,-40 -59,-68 -114,-68 -56,0 -92,28 -115,68 -23,40 -33,90 -36,142z"/>
 </g>
</svg>
