<?xml version="1.0" encoding="UTF-8"?>
<!DOCTYPE svg PUBLIC "-//W3C//DTD SVG 1.1//EN" "http://www.w3.org/Graphics/SVG/1.1/DTD/svg11.dtd">
<!-- Creator: CorelDRAW X8 -->
<svg xmlns="http://www.w3.org/2000/svg" xml:space="preserve" width="1050px" height="600px" version="1.1" style="shape-rendering:geometricPrecision; text-rendering:geometricPrecision; image-rendering:optimizeQuality; fill-rule:evenodd; clip-rule:evenodd"
viewBox="0 0 1050 600"
 xmlns:xlink="http://www.w3.org/1999/xlink">
 <defs>
  <style type="text/css">
   <![CDATA[
    .fil0 {fill:#00A0E3;fill-rule:nonzero}
   ]]>
  </style>
 </defs>
 <g id="Layer_x0020_1">
  <metadata id="CorelCorpID_0Corel-Layer"/>
  <path class="fil0" d="M525 0c-109,0 -174,42 -211,106 -25,44 -36,100 -39,157l-51 0c-54,0 -125,11 -176,60 -31,30 -48,71 -48,112 0,40 15,80 48,111 37,36 91,54 147,54 66,0 117,-25 146,-69 39,42 97,69 184,69 107,0 171,-41 208,-103 29,-50 40,-115 42,-180l115 0c29,0 45,19 46,40 1,17 -5,28 -15,35 -13,9 -34,8 -55,7 -14,-1 -50,7 -49,29 1,14 24,26 51,25 19,-1 44,-6 60,1 14,6 26,19 26,38 0,38 -34,56 -70,54 -11,0 -23,-2 -33,-8 -19,-11 -50,-12 -70,-2 -47,23 17,49 41,56 20,5 42,8 62,8 68,1 167,-27 166,-108 0,-38 -32,-61 -59,-70 21,-11 44,-31 43,-65 -1,-74 -81,-94 -145,-94l-115 0c-3,-57 -14,-113 -40,-158 -36,-63 -101,-105 -209,-105zm-243 397c7,42 1,90 -30,123 -14,15 -35,27 -57,27 -21,0 -43,-10 -61,-27 -25,-23 -36,-55 -35,-86 0,-32 13,-63 36,-85 30,-29 67,-32 89,-32l50 0c1,27 3,54 8,80zm394 -80c-1,60 -11,119 -37,164 -24,39 -60,65 -114,65 -55,0 -91,-26 -114,-65 -27,-44 -37,-103 -38,-164l303 0zm-303 -54c3,-52 13,-102 36,-142 23,-40 60,-68 116,-68 55,0 92,28 115,68 23,39 33,90 36,142l-303 0z"/>
 </g>
</svg>
