<?xml version="1.0" encoding="UTF-8"?>
<!DOCTYPE svg PUBLIC "-//W3C//DTD SVG 1.1//EN" "http://www.w3.org/Graphics/SVG/1.1/DTD/svg11.dtd">
<!-- Creator: CorelDRAW X8 -->
<svg xmlns="http://www.w3.org/2000/svg" xml:space="preserve" width="1349px" height="600px" version="1.1" style="shape-rendering:geometricPrecision; text-rendering:geometricPrecision; image-rendering:optimizeQuality; fill-rule:evenodd; clip-rule:evenodd"
viewBox="0 0 1349 600"
 xmlns:xlink="http://www.w3.org/1999/xlink">
 <defs>
  <style type="text/css">
   <![CDATA[
    .fil0 {fill:#CC9933;fill-rule:nonzero}
   ]]>
  </style>
 </defs>
 <g id="Layer_x0020_1">
  <metadata id="CorelCorpID_0Corel-Layer"/>
  <path class="fil0" d="M528 0c86,0 158,27 203,92 7,10 13,21 18,33 8,-12 17,-24 27,-34 57,-61 145,-91 237,-91 99,0 186,37 246,98 56,55 90,131 90,214 0,68 -23,133 -64,185 -28,36 -64,67 -107,89 -27,13 -60,22 -87,4 -18,-11 -15,-28 7,-38 46,-20 82,-53 108,-93 28,-44 42,-96 43,-149 2,-64 -17,-128 -56,-175 -44,-54 -112,-81 -179,-81 -65,-1 -130,24 -174,73 -33,36 -53,84 -60,136l50 0c55,0 126,11 177,60 31,30 48,71 49,112 0,40 -15,80 -48,111 -38,35 -93,54 -148,54 -67,0 -118,-25 -148,-69 -39,42 -97,69 -184,69 -87,0 -146,-27 -185,-69 -29,44 -80,69 -147,69 -56,0 -111,-19 -148,-54 -33,-31 -48,-71 -48,-111 0,-41 17,-82 49,-112 50,-49 122,-60 176,-60l51 0c3,-57 15,-113 40,-157 37,-64 102,-106 212,-106zm252 317c-1,28 -3,56 -8,83 -8,40 1,89 30,119 15,16 36,27 58,28 20,0 43,-10 61,-27 25,-23 36,-55 35,-86 0,-32 -13,-63 -36,-85 -30,-29 -67,-32 -90,-32l-50 0zm-496 82c-5,-26 -7,-54 -8,-82l-51 0c-22,0 -59,3 -90,32 -22,22 -35,53 -36,85 0,31 11,63 35,86 19,17 42,27 62,27 31,-1 58,-23 73,-48 17,-29 21,-67 15,-100zm397 -82l-306 0c2,61 12,120 38,164 24,39 60,65 115,65 55,0 91,-26 115,-65 26,-45 36,-104 38,-164zm-305 -54l304 0c-3,-52 -13,-103 -36,-142 -23,-40 -60,-67 -116,-67 -56,0 -93,27 -117,67 -22,40 -33,90 -35,142z"/>
 </g>
</svg>
