<?xml version="1.0" encoding="UTF-8"?>
<!DOCTYPE svg PUBLIC "-//W3C//DTD SVG 1.1//EN" "http://www.w3.org/Graphics/SVG/1.1/DTD/svg11.dtd">
<!-- Creator: CorelDRAW X8 -->
<svg xmlns="http://www.w3.org/2000/svg" xml:space="preserve" width="1335px" height="868px" version="1.1" style="shape-rendering:geometricPrecision; text-rendering:geometricPrecision; image-rendering:optimizeQuality; fill-rule:evenodd; clip-rule:evenodd"
viewBox="0 0 1335 868"
 xmlns:xlink="http://www.w3.org/1999/xlink">
 <defs>
  <style type="text/css">
   <![CDATA[
    .fil0 {fill:#00A0E3}
   ]]>
  </style>
 </defs>
 <g id="Layer_x0020_1">
  <metadata id="CorelCorpID_0Corel-Layer"/>
  <path class="fil0" d="M370 263c3,-52 13,-103 35,-142 23,-41 60,-68 115,-68 55,0 91,27 114,68 23,39 33,90 36,142l-300 0zm300 54c-1,60 -11,120 -37,164 -23,39 -59,66 -113,66 -55,0 -90,-26 -113,-66 -26,-44 -36,-104 -38,-164l301 0zm-391 83c8,40 0,89 -29,120 -15,15 -36,27 -57,27 -20,0 -43,-9 -61,-27 -24,-23 -35,-55 -34,-86 0,-31 13,-65 36,-86 29,-29 66,-31 88,-31l50 0c0,28 3,57 7,83zm489 -83l50 0c21,0 58,2 88,31 22,21 35,55 35,86 1,31 -10,63 -34,86 -18,18 -41,27 -60,27 -22,0 -43,-12 -58,-27 -29,-30 -37,-79 -29,-119 5,-27 7,-56 8,-84zm-33 490c11,-11 18,-25 18,-41 0,-51 -72,-79 -118,-89 -32,-7 -68,-11 -113,-11 -49,0 -92,5 -125,13 -74,18 -110,53 -110,87 0,34 35,68 107,87 39,10 84,14 128,15 33,0 68,0 103,-2 93,-3 190,-13 275,-36 126,-34 251,-94 332,-196 68,-84 103,-191 103,-293 0,-81 -23,-164 -76,-228 -64,-77 -161,-114 -270,-113 -82,0 -149,24 -200,65 -20,16 -38,35 -52,57 -8,-17 -18,-33 -30,-47 -38,-46 -98,-75 -187,-75 -108,0 -172,42 -208,105 -26,45 -37,101 -40,158l-50 0c-53,0 -124,11 -174,59 -31,30 -48,72 -48,114 0,39 15,80 47,110 37,36 91,54 146,54 66,0 116,-25 145,-69 38,42 96,69 182,69 85,0 143,-27 181,-69 29,44 79,69 145,69 55,0 109,-18 146,-54 32,-30 48,-71 47,-111 0,-41 -16,-83 -47,-113 -50,-48 -121,-59 -174,-59l-50 0c9,-65 37,-117 75,-152 42,-38 94,-57 147,-58 84,0 150,36 193,99 38,55 54,124 54,189 0,95 -32,194 -94,272 -70,88 -178,142 -286,172 -18,5 -69,14 -122,22zm-213 -92c38,0 67,4 90,10 34,10 52,26 52,41 0,16 -18,32 -53,42 -23,6 -51,10 -89,10 -46,0 -83,-6 -107,-15 -26,-10 -39,-23 -39,-37 0,-13 14,-27 39,-36 24,-9 61,-15 107,-15z"/>
 </g>
</svg>
