<?xml version="1.0" encoding="UTF-8"?>
<!DOCTYPE svg PUBLIC "-//W3C//DTD SVG 1.1//EN" "http://www.w3.org/Graphics/SVG/1.1/DTD/svg11.dtd">
<!-- Creator: CorelDRAW X8 -->
<svg xmlns="http://www.w3.org/2000/svg" xml:space="preserve" width="3039px" height="1486px" version="1.1" style="shape-rendering:geometricPrecision; text-rendering:geometricPrecision; image-rendering:optimizeQuality; fill-rule:evenodd; clip-rule:evenodd"
viewBox="0 0 3039 1486"
 xmlns:xlink="http://www.w3.org/1999/xlink">
 <defs>
  <style type="text/css">
   <![CDATA[
    .fil0 {fill:#E31E24;fill-rule:nonzero}
   ]]>
  </style>
 </defs>
 <g id="Layer_x0020_1">
  <metadata id="CorelCorpID_0Corel-Layer"/>
  <path class="fil0" d="M2886 1155c98,-141 153,-314 153,-491 0,-149 -38,-294 -111,-410 -95,-151 -251,-254 -463,-254 -81,0 -152,13 -227,41 -76,-28 -147,-41 -228,-41 -189,0 -369,101 -457,272 -39,77 -56,148 -66,233 -68,-34 -110,-46 -190,-46l-61 0c-5,-96 -18,-199 -66,-285 -69,-127 -187,-174 -326,-174 -140,0 -256,47 -327,175 -46,85 -61,188 -66,284l-102 0c-99,0 -200,25 -272,98 -50,51 -77,125 -77,197 0,68 27,134 76,183 59,59 143,87 225,87 115,0 194,-41 238,-138 88,103 169,138 305,138 137,0 253,-46 323,-171 54,-95 67,-217 69,-324l61 0c54,0 98,16 132,46 35,31 59,82 68,130 25,118 85,233 190,297 19,12 43,21 66,21 14,0 28,-3 41,-11 11,-7 17,-16 17,-24 0,-9 -8,-18 -20,-25 -135,-71 -184,-252 -184,-396 0,-94 21,-191 64,-275 65,-125 197,-222 339,-222 48,0 88,4 134,19 -167,119 -253,298 -253,506 0,84 16,183 57,258 60,112 164,171 289,171 126,0 229,-58 291,-172 40,-75 57,-172 57,-257 0,-209 -85,-387 -253,-506 46,-16 85,-19 133,-19 158,0 276,91 351,216 67,113 101,253 101,378 -1,149 -34,310 -106,441 -50,90 -118,167 -210,226 2,-9 3,-19 3,-28 0,-45 -26,-83 -66,-109 -40,-26 -99,-36 -146,-36 -62,0 -106,13 -158,47 -51,-34 -96,-47 -158,-47 -47,0 -106,10 -146,36 -36,23 -63,60 -63,104 0,73 71,131 134,154 68,25 149,34 232,34 83,0 162,-10 237,-32 166,-47 310,-147 416,-299zm-1773 -696l-539 0c5,-88 18,-185 60,-263 46,-83 116,-126 210,-126 93,0 164,42 209,125 44,79 56,176 60,264zm1124 495c-79,0 -136,-54 -172,-121 -38,-69 -51,-161 -51,-238 0,-184 70,-353 223,-461 152,108 226,273 226,461 0,78 -15,168 -52,237 -36,67 -95,122 -174,122zm-1937 0c-45,0 -85,-20 -117,-52 -40,-41 -60,-94 -60,-151 0,-57 21,-119 61,-160 45,-45 104,-62 165,-62l102 0c1,51 5,104 13,154 4,18 4,36 4,55 0,59 -15,120 -55,163 -29,32 -70,53 -113,53zm544 0c-92,0 -161,-41 -207,-121 -50,-88 -61,-204 -64,-304l541 0c-3,100 -13,215 -63,303 -45,81 -115,122 -207,122zm1389 475c-66,0 -144,-4 -205,-32 -41,-19 -73,-51 -73,-99 0,-62 70,-86 122,-86 66,1 106,43 106,109 0,24 32,30 51,30 19,0 51,-6 51,-30 0,-66 40,-108 106,-109 53,0 122,25 122,88 0,47 -32,79 -72,97 -64,29 -139,32 -208,32z"/>
 </g>
</svg>
