<?xml version="1.0" encoding="UTF-8"?>
<!DOCTYPE svg PUBLIC "-//W3C//DTD SVG 1.1//EN" "http://www.w3.org/Graphics/SVG/1.1/DTD/svg11.dtd">
<!-- Creator: CorelDRAW X8 -->
<svg xmlns="http://www.w3.org/2000/svg" xml:space="preserve" width="3364px" height="1486px" version="1.1" style="shape-rendering:geometricPrecision; text-rendering:geometricPrecision; image-rendering:optimizeQuality; fill-rule:evenodd; clip-rule:evenodd"
viewBox="0 0 3364 1486"
 xmlns:xlink="http://www.w3.org/1999/xlink">
 <defs>
  <style type="text/css">
   <![CDATA[
    .fil0 {fill:#2B2A29;fill-rule:nonzero}
   ]]>
  </style>
 </defs>
 <g id="Layer_x0020_1">
  <metadata id="CorelCorpID_0Corel-Layer"/>
  <path class="fil0" d="M2359 1455c252,-31 529,-108 730,-273 188,-154 275,-365 275,-608 0,-108 -23,-206 -72,-302 -89,-173 -267,-272 -458,-272 -80,0 -151,13 -227,41 -75,-28 -146,-41 -227,-41 -189,0 -368,101 -456,272 -39,76 -56,149 -66,233 -70,-35 -112,-46 -191,-46l-60 0c-6,-96 -19,-199 -66,-285 -70,-127 -188,-174 -327,-174 -140,0 -256,47 -327,175 -46,85 -61,188 -65,284l-103 0c-99,0 -200,25 -272,98 -49,50 -76,122 -77,193 0,70 26,137 76,187 59,59 143,87 225,87 115,0 194,-41 238,-138 89,103 169,138 305,138 137,0 253,-46 323,-171 54,-95 68,-217 70,-324l60 0c52,0 98,16 132,46 35,31 59,82 69,130 24,118 84,234 189,297 20,13 43,22 66,22 14,0 28,-4 41,-12 11,-7 17,-15 17,-24 0,-9 -8,-18 -20,-25 -135,-70 -183,-252 -183,-396 0,-94 20,-191 64,-275 64,-125 193,-222 338,-222 48,0 87,4 133,19 -167,120 -252,300 -252,506 0,85 17,183 57,258 60,113 164,171 289,171 126,0 230,-58 291,-171 40,-76 57,-173 57,-258 0,-207 -84,-386 -253,-506 46,-16 84,-19 132,-19 146,0 274,95 340,222 45,88 68,182 68,282 1,222 -73,416 -243,561 -181,155 -435,224 -666,252 -206,25 -411,29 -618,29 -178,0 -393,-4 -606,-28 -213,-25 -422,-72 -583,-163 -255,-144 -403,-368 -403,-668 0,-192 80,-389 243,-498 10,-7 15,-15 15,-23 0,-10 -8,-20 -22,-27 -12,-6 -26,-9 -40,-9 -16,0 -32,4 -46,14 -178,119 -273,329 -273,543 0,326 162,560 440,718 173,98 392,150 617,178 227,29 460,33 658,33 216,1 429,-5 644,-31zm-876 -996l-539 0c5,-88 18,-185 60,-263 46,-83 116,-126 210,-126 93,0 164,42 209,125 43,79 56,176 60,264zm1124 495c-80,0 -137,-52 -173,-123 -35,-70 -51,-158 -51,-236 0,-184 74,-353 224,-461 152,108 226,275 226,461 0,77 -17,166 -53,236 -36,71 -93,123 -173,123zm-1936 0c-46,0 -86,-20 -118,-52 -40,-40 -60,-95 -60,-152 0,-57 21,-118 61,-159 45,-45 104,-62 165,-62l102 0c1,51 5,104 13,154 3,18 5,37 5,57 0,58 -16,118 -56,161 -29,32 -69,53 -112,53zm543 0c-92,0 -161,-41 -207,-121 -49,-88 -61,-204 -63,-304l541 0c-4,100 -14,215 -64,303 -45,81 -114,122 -207,122z"/>
 </g>
</svg>
