<?xml version="1.0" encoding="UTF-8"?>
<!DOCTYPE svg PUBLIC "-//W3C//DTD SVG 1.1//EN" "http://www.w3.org/Graphics/SVG/1.1/DTD/svg11.dtd">
<!-- Creator: CorelDRAW X8 -->
<svg xmlns="http://www.w3.org/2000/svg" xml:space="preserve" width="1250px" height="868px" version="1.1" style="shape-rendering:geometricPrecision; text-rendering:geometricPrecision; image-rendering:optimizeQuality; fill-rule:evenodd; clip-rule:evenodd"
viewBox="0 0 1250 868"
 xmlns:xlink="http://www.w3.org/1999/xlink">
 <defs>
  <style type="text/css">
   <![CDATA[
    .fil0 {fill:#2B2A29;fill-rule:nonzero}
   ]]>
  </style>
 </defs>
 <g id="Layer_x0020_1">
  <metadata id="CorelCorpID_0Corel-Layer"/>
  <path class="fil0" d="M681 868c127,0 246,-22 358,-85 114,-63 211,-175 211,-307 0,-67 -24,-136 -81,-177 -42,-29 -91,-37 -144,-37l-45 0c-3,-57 -14,-113 -40,-157 -36,-63 -100,-105 -208,-105 -107,0 -172,42 -208,105 -26,45 -37,100 -40,157l-50 0c-53,0 -124,11 -174,60 -31,30 -48,71 -48,111 0,40 15,80 48,111 36,35 91,54 145,54 66,-1 117,-25 146,-70 38,43 96,70 181,70 107,0 171,-42 207,-103 29,-50 40,-114 42,-180l44 0c27,0 50,5 66,17 44,31 61,91 61,143 0,115 -83,215 -183,271 -96,53 -189,68 -297,68 -157,0 -314,-35 -433,-140 -95,-85 -141,-197 -141,-333 0,-111 49,-233 148,-297 8,-5 11,-11 11,-17 0,-11 -9,-18 -20,-22 -10,-3 -22,-5 -29,-5 -14,0 -27,3 -37,9 -114,74 -171,205 -171,335 0,155 59,280 173,373 142,114 326,151 508,151zm201 -606l-299 0c4,-111 45,-209 149,-209 107,0 144,101 150,209zm-477 283c-20,0 -42,-10 -60,-27 -24,-23 -35,-53 -35,-84 0,-31 13,-64 36,-87 29,-28 67,-32 88,-32l50 0c1,28 3,54 8,80 1,11 3,21 3,32 0,33 -10,66 -33,90 -14,15 -35,28 -57,28zm327 -1c-113,0 -146,-111 -150,-229l301 0c-3,118 -38,229 -151,229z"/>
 </g>
</svg>
