<?xml version="1.0" encoding="UTF-8"?>
<!DOCTYPE svg PUBLIC "-//W3C//DTD SVG 1.1//EN" "http://www.w3.org/Graphics/SVG/1.1/DTD/svg11.dtd">
<!-- Creator: CorelDRAW X8 -->
<svg xmlns="http://www.w3.org/2000/svg" xml:space="preserve" width="1556px" height="868px" version="1.1" style="shape-rendering:geometricPrecision; text-rendering:geometricPrecision; image-rendering:optimizeQuality; fill-rule:evenodd; clip-rule:evenodd"
viewBox="0 0 1556 868"
 xmlns:xlink="http://www.w3.org/1999/xlink">
 <defs>
  <style type="text/css">
   <![CDATA[
    .fil0 {fill:#E31E24;fill-rule:nonzero}
   ]]>
  </style>
 </defs>
 <g id="Layer_x0020_1">
  <metadata id="CorelCorpID_0Corel-Layer"/>
  <path class="fil0" d="M783 868c179,0 384,-37 534,-133 143,-91 239,-229 239,-395 0,-75 -22,-153 -68,-214 -68,-89 -174,-126 -286,-126 -101,0 -192,39 -249,122 -41,-88 -120,-122 -217,-122 -107,0 -171,42 -208,106 -25,44 -36,100 -39,157l-50 0c-54,0 -124,10 -174,59 -31,30 -48,66 -48,111 0,40 15,80 47,111 37,35 91,54 146,54 66,0 116,-25 145,-69 38,42 96,69 181,69 86,0 144,-27 182,-69 28,44 79,69 145,69 55,0 109,-19 146,-54 31,-30 47,-68 47,-111 0,-40 -17,-81 -48,-111 -50,-49 -121,-59 -174,-59l-49 0c8,-60 32,-107 66,-142 43,-44 97,-68 149,-68 81,0 149,30 198,94 43,56 60,124 60,193 0,150 -86,279 -215,361 -130,82 -307,114 -460,114 -152,0 -320,-24 -452,-95 -153,-83 -233,-222 -233,-392 0,-108 41,-221 138,-284 8,-5 11,-11 11,-17 0,-10 -8,-16 -18,-21 -10,-4 -22,-6 -30,-6 -14,0 -27,3 -38,10 -110,70 -161,193 -161,316 0,189 92,339 262,431 153,82 347,111 521,111zm103 -605l-299 0c5,-108 43,-210 149,-210 105,0 144,98 150,210zm177 282c-22,0 -42,-12 -57,-27 -22,-23 -32,-58 -32,-90 0,-10 1,-20 3,-29 4,-27 7,-54 7,-83l50 0c22,0 58,3 89,32 23,22 35,55 35,87 0,30 -10,60 -34,83 -19,18 -41,27 -61,27zm-653 0c-20,0 -43,-9 -61,-27 -24,-23 -34,-53 -34,-83 0,-32 12,-64 35,-87 30,-29 67,-32 89,-32l50 0c0,28 2,56 7,82 2,9 3,18 3,28 0,34 -10,68 -32,92 -15,15 -36,27 -57,27zm326 -1c-113,0 -146,-115 -150,-228l301 0c-4,118 -39,228 -151,228z"/>
 </g>
</svg>
