<?xml version="1.0" encoding="UTF-8"?>
<!DOCTYPE svg PUBLIC "-//W3C//DTD SVG 1.1//EN" "http://www.w3.org/Graphics/SVG/1.1/DTD/svg11.dtd">
<!-- Creator: CorelDRAW X8 -->
<svg xmlns="http://www.w3.org/2000/svg" xml:space="preserve" width="1702px" height="1486px" version="1.1" style="shape-rendering:geometricPrecision; text-rendering:geometricPrecision; image-rendering:optimizeQuality; fill-rule:evenodd; clip-rule:evenodd"
viewBox="0 0 1702 1486"
 xmlns:xlink="http://www.w3.org/1999/xlink">
 <defs>
  <style type="text/css">
   <![CDATA[
    .fil0 {fill:#E31E24;fill-rule:nonzero}
   ]]>
  </style>
 </defs>
 <g id="Layer_x0020_1">
  <metadata id="CorelCorpID_0Corel-Layer"/>
  <path class="fil0" d="M844 954c-92,0 -162,-41 -207,-121 -51,-89 -61,-204 -64,-304l541 0c-3,100 -14,214 -64,303 -45,81 -114,122 -206,122zm-544 0c-44,0 -86,-21 -117,-52 -43,-42 -60,-96 -60,-155 0,-56 22,-117 61,-156 44,-45 103,-62 165,-62l102 0c1,50 4,107 13,157 3,18 4,36 4,54 0,58 -15,117 -55,161 -29,32 -70,53 -113,53zm813 -495l-539 0c4,-88 17,-185 60,-263 45,-83 115,-126 209,-126 94,0 164,42 209,125 43,79 56,175 61,264zm-267 1027c88,0 173,-6 259,-24 55,-11 109,-27 162,-46 252,-91 435,-261 435,-537 0,-139 -61,-281 -180,-357 -76,-49 -137,-63 -228,-63l-59 0c-5,-97 -18,-199 -65,-285 -70,-127 -188,-174 -327,-174 -139,0 -257,47 -327,175 -46,85 -60,188 -65,284l-103 0c-52,0 -105,7 -154,25 -42,14 -83,38 -117,73 -49,49 -77,120 -77,190 0,72 25,139 76,190 59,58 143,87 225,87 115,-1 194,-43 238,-138 88,103 168,138 305,138 137,0 253,-46 323,-171 53,-95 66,-217 69,-324l58 0c57,0 110,18 156,53 90,70 129,185 129,297 0,249 -149,409 -376,488 5,-14 8,-33 8,-46 0,-85 -117,-128 -183,-144 -60,-14 -121,-19 -182,-19 -65,0 -136,6 -199,22 -64,17 -171,61 -171,141 0,80 103,124 166,141 65,18 134,24 204,24zm0 -62c-179,0 -262,-52 -262,-103 0,-52 93,-100 262,-100 168,0 256,52 256,100 0,49 -79,103 -256,103z"/>
 </g>
</svg>
