<?xml version="1.0" encoding="UTF-8"?>
<!DOCTYPE svg PUBLIC "-//W3C//DTD SVG 1.1//EN" "http://www.w3.org/Graphics/SVG/1.1/DTD/svg11.dtd">
<!-- Creator: CorelDRAW X8 -->
<svg xmlns="http://www.w3.org/2000/svg" xml:space="preserve" width="2678px" height="1024px" version="1.1" style="shape-rendering:geometricPrecision; text-rendering:geometricPrecision; image-rendering:optimizeQuality; fill-rule:evenodd; clip-rule:evenodd"
viewBox="0 0 2678 1024"
 xmlns:xlink="http://www.w3.org/1999/xlink">
 <defs>
  <style type="text/css">
   <![CDATA[
    .fil0 {fill:#E31E24;fill-rule:nonzero}
   ]]>
  </style>
 </defs>
 <g id="Layer_x0020_1">
  <metadata id="CorelCorpID_0Corel-Layer"/>
  <path class="fil0" d="M844 1024c137,0 253,-46 323,-172 53,-96 67,-214 69,-323l89 0c73,-1 151,23 197,84 31,41 42,80 42,129 0,37 -9,73 -27,106 -33,61 -84,81 -150,81 -20,0 -63,8 -63,35 0,25 40,35 60,35l1233 0c19,0 61,-9 61,-35l0 -929c0,-26 -43,-35 -62,-35 -20,0 -61,9 -61,35 0,99 -38,204 -87,289 -63,110 -126,173 -236,228l0 -278c0,-152 -120,-228 -252,-228 -148,0 -270,96 -270,250 0,90 45,173 111,232 85,76 178,98 288,102l0 299 -501 0c50,-55 79,-112 79,-186 0,-85 -35,-160 -106,-211 -72,-52 -169,-73 -255,-73l-91 0c-4,-96 -18,-198 -65,-283 -71,-129 -187,-176 -326,-176 -140,0 -257,48 -327,177 -46,85 -61,186 -66,282l-102 0c-99,0 -200,26 -272,99 -51,51 -77,122 -77,194 0,69 27,135 76,184 59,59 143,88 225,88 115,0 194,-43 238,-139 88,104 169,139 305,139zm269 -564l-539 0c4,-90 17,-184 60,-263 45,-83 116,-126 210,-126 93,0 163,42 209,126 43,79 55,173 60,263zm996 100c-83,-5 -148,-27 -207,-92 -42,-47 -69,-108 -69,-172 0,-83 55,-180 147,-180 83,0 129,78 129,157l0 287zm446 369l-323 0 0 -304c142,-49 258,-170 323,-304l0 608zm-2255 25c-44,0 -86,-21 -117,-52 -41,-41 -60,-95 -60,-153 0,-57 20,-116 61,-157 44,-45 103,-62 165,-62l102 0c1,51 4,100 13,150 3,18 4,37 4,55 0,60 -15,122 -55,165 -29,32 -70,54 -113,54zm544 0c-92,0 -161,-41 -207,-122 -50,-89 -61,-201 -64,-302l541 0c-3,101 -14,212 -64,301 -45,81 -114,123 -206,123z"/>
 </g>
</svg>
