<?xml version="1.0" encoding="UTF-8"?>
<!DOCTYPE svg PUBLIC "-//W3C//DTD SVG 1.1//EN" "http://www.w3.org/Graphics/SVG/1.1/DTD/svg11.dtd">
<!-- Creator: CorelDRAW X8 -->
<svg xmlns="http://www.w3.org/2000/svg" xml:space="preserve" width="3123px" height="1486px" version="1.1" style="shape-rendering:geometricPrecision; text-rendering:geometricPrecision; image-rendering:optimizeQuality; fill-rule:evenodd; clip-rule:evenodd"
viewBox="0 0 3123 1486"
 xmlns:xlink="http://www.w3.org/1999/xlink">
 <defs>
  <style type="text/css">
   <![CDATA[
    .fil0 {fill:#CC9933;fill-rule:nonzero}
   ]]>
  </style>
 </defs>
 <g id="Layer_x0020_1">
  <metadata id="CorelCorpID_0Corel-Layer"/>
  <path class="fil0" d="M855 0c-142,0 -261,47 -332,175 -47,85 -61,188 -66,284l-104 0c-99,0 -202,25 -275,98 -49,50 -77,122 -78,192 -1,71 26,138 77,188 60,58 145,87 228,87 117,-1 180,-42 241,-138 90,103 170,138 308,138 138,0 257,-46 328,-171 54,-95 68,-217 70,-324l61 0c54,0 99,16 134,46 35,31 58,82 68,130 25,118 87,234 192,298 33,20 73,31 109,9 24,-14 21,-36 -3,-49 -137,-71 -185,-251 -185,-395 0,-95 20,-192 64,-276 66,-126 198,-222 343,-221 49,0 88,7 135,19 -121,85 -195,190 -233,333 -15,56 -23,114 -23,172 0,85 17,184 57,259 62,112 166,170 293,170 128,0 233,-58 295,-171 41,-75 58,-172 58,-258 0,-57 -8,-116 -22,-172 -38,-140 -110,-244 -228,-329 76,-19 136,-24 213,-24 83,0 178,13 250,55 70,41 118,113 119,196 0,89 -57,172 -152,173 -21,0 -67,5 -68,33 -2,30 47,36 68,36 128,3 202,119 202,238 -1,64 -16,124 -53,176 -68,93 -185,123 -296,123l-842 0c-128,0 -277,30 -280,187 -4,163 148,199 280,199l1206 0c32,0 62,-26 62,-59 0,-34 -30,-59 -62,-59l-1206 0c-68,0 -152,-13 -154,-98 -2,-85 87,-101 154,-101l838 0c144,0 288,-21 390,-130 62,-66 87,-149 87,-238 0,-125 -62,-216 -170,-274 74,-48 119,-111 120,-202 1,-107 -64,-196 -153,-248 -99,-58 -227,-77 -340,-77 -107,0 -205,10 -307,45 -77,-31 -155,-44 -238,-44 -192,-1 -373,100 -462,272 -40,76 -56,148 -67,232 -70,-34 -112,-46 -193,-46l-62 0c-4,-96 -19,-199 -66,-285 -71,-127 -190,-174 -330,-174zm1410 135c108,76 172,170 207,298 14,53 21,108 21,162 0,78 -15,169 -53,238 -37,67 -96,122 -176,122 -80,0 -137,-54 -174,-121 -37,-69 -52,-161 -52,-239 0,-55 8,-109 22,-162 34,-128 96,-222 205,-298zm-1795 548c6,39 6,82 -3,122 -8,36 -24,69 -49,96 -29,32 -70,53 -114,53 -45,0 -87,-21 -119,-52 -42,-41 -62,-97 -61,-155 2,-56 23,-116 63,-156 45,-45 104,-62 167,-62l103 0c1,51 4,104 13,154zm658 -154c-2,100 -14,215 -64,303 -46,81 -116,122 -210,122 -93,0 -163,-41 -209,-121 -50,-89 -61,-204 -64,-304l547 0zm-546 -70c4,-88 17,-185 60,-263 46,-83 117,-126 213,-126 94,0 165,42 211,125 44,79 57,176 61,264l-545 0z"/>
 </g>
</svg>
