<?xml version="1.0" encoding="UTF-8"?>
<!DOCTYPE svg PUBLIC "-//W3C//DTD SVG 1.1//EN" "http://www.w3.org/Graphics/SVG/1.1/DTD/svg11.dtd">
<!-- Creator: CorelDRAW X8 -->
<svg xmlns="http://www.w3.org/2000/svg" xml:space="preserve" width="1050px" height="600px" version="1.1" style="shape-rendering:geometricPrecision; text-rendering:geometricPrecision; image-rendering:optimizeQuality; fill-rule:evenodd; clip-rule:evenodd"
viewBox="0 0 1050 600"
 xmlns:xlink="http://www.w3.org/1999/xlink">
 <defs>
  <style type="text/css">
   <![CDATA[
    .fil0 {fill:#2B2A29;fill-rule:nonzero}
   ]]>
  </style>
 </defs>
 <g id="Layer_x0020_1">
  <metadata id="CorelCorpID_0Corel-Layer"/>
  <path class="fil0" d="M888 600c69,0 162,-28 162,-108 0,-38 -32,-61 -59,-70 21,-11 43,-31 43,-64 0,-75 -81,-94 -144,-94l-115 0c-3,-58 -15,-114 -40,-159 -37,-63 -102,-105 -211,-105 -108,0 -173,42 -210,106 -25,44 -36,100 -39,157l-51 0c-54,0 -126,11 -176,60 -32,31 -48,71 -48,114 0,40 15,79 47,109 38,35 92,54 147,54 67,0 118,-25 148,-69 38,42 96,69 182,69 108,0 172,-41 209,-103 29,-51 41,-115 42,-181l115 0c28,0 46,18 46,45 0,9 -3,18 -8,24 -5,8 -14,13 -24,15 -12,2 -26,0 -39,0 -18,0 -48,7 -48,26 0,22 34,26 51,26 11,0 24,-2 36,-2 9,0 18,1 25,4 16,7 25,22 25,39 0,37 -32,54 -66,54 -32,0 -42,-18 -74,-18 -7,0 -21,2 -32,7 -10,4 -18,9 -18,18 0,17 41,33 58,38 21,5 45,8 66,8zm-212 -336l-303 -1c6,-109 45,-210 151,-210 109,0 147,107 152,211zm-482 283c-20,0 -42,-10 -60,-27 -24,-23 -36,-53 -36,-84 0,-31 13,-65 36,-87 31,-29 68,-32 90,-32l50 0c1,27 3,54 8,80 2,11 3,21 3,32 0,33 -10,67 -33,91 -14,15 -36,27 -58,27zm330 0c-114,0 -148,-117 -152,-230l304 0c-2,109 -35,230 -152,230z"/>
 </g>
</svg>
