<?xml version="1.0" encoding="UTF-8"?>
<!DOCTYPE svg PUBLIC "-//W3C//DTD SVG 1.1//EN" "http://www.w3.org/Graphics/SVG/1.1/DTD/svg11.dtd">
<!-- Creator: CorelDRAW X8 -->
<svg xmlns="http://www.w3.org/2000/svg" xml:space="preserve" width="1070px" height="868px" version="1.1" style="shape-rendering:geometricPrecision; text-rendering:geometricPrecision; image-rendering:optimizeQuality; fill-rule:evenodd; clip-rule:evenodd"
viewBox="0 0 1070 868"
 xmlns:xlink="http://www.w3.org/1999/xlink">
 <defs>
  <style type="text/css">
   <![CDATA[
    .fil0 {fill:#E31E24;fill-rule:nonzero}
   ]]>
  </style>
 </defs>
 <g id="Layer_x0020_1">
  <metadata id="CorelCorpID_0Corel-Layer"/>
  <path class="fil0" d="M530 0c90,0 173,25 220,107 26,46 36,101 39,153l15 0c82,0 159,26 212,91 39,48 58,110 53,174 -5,83 -42,149 -95,200 -49,46 -112,79 -178,102 -44,15 -88,26 -132,32 -43,6 -87,9 -134,9 -39,0 -88,-3 -132,-15 -41,-10 -113,-38 -112,-89 0,-54 79,-81 121,-90 41,-9 86,-13 127,-13 40,1 81,4 120,13 42,9 124,37 121,93 49,-23 90,-53 119,-92 31,-41 50,-91 53,-151 2,-44 -6,-89 -28,-127 -24,-42 -65,-77 -115,-77l-15 0c0,58 -11,125 -41,175 -47,81 -129,105 -218,105 -64,0 -130,-13 -179,-57 -36,43 -92,57 -146,57 -56,0 -116,-16 -158,-55 -30,-30 -47,-69 -47,-111 0,-42 18,-83 48,-112 49,-47 120,-61 186,-61l37 0c3,-52 13,-108 39,-154 48,-82 130,-107 220,-107zm2 716c-21,0 -50,2 -75,8 -18,4 -57,16 -57,40 -1,23 36,36 54,41 24,6 53,8 78,8 26,0 63,-3 91,-13 15,-5 38,-17 38,-35 1,-18 -21,-30 -43,-37 -28,-9 -57,-12 -86,-12zm-138 -455l273 0c-3,-46 -12,-97 -35,-138 -22,-38 -56,-64 -102,-64 -45,0 -80,26 -102,65 -23,40 -32,91 -34,137zm274 59l-275 0c2,53 10,113 37,159 22,37 56,62 100,62 45,0 79,-25 101,-62 27,-46 35,-106 37,-159zm-390 76c-4,-25 -6,-51 -7,-76l-37 0c-33,0 -61,13 -81,34 -19,20 -30,48 -31,79 0,20 6,45 18,65 14,25 36,44 64,43 31,0 61,-28 73,-77 5,-22 5,-46 1,-68z"/>
 </g>
</svg>
