<?xml version="1.0" encoding="UTF-8"?>
<!DOCTYPE svg PUBLIC "-//W3C//DTD SVG 1.1//EN" "http://www.w3.org/Graphics/SVG/1.1/DTD/svg11.dtd">
<!-- Creator: CorelDRAW X8 -->
<svg xmlns="http://www.w3.org/2000/svg" xml:space="preserve" width="2183px" height="1024px" version="1.1" style="shape-rendering:geometricPrecision; text-rendering:geometricPrecision; image-rendering:optimizeQuality; fill-rule:evenodd; clip-rule:evenodd"
viewBox="0 0 2183 1024"
 xmlns:xlink="http://www.w3.org/1999/xlink">
 <defs>
  <style type="text/css">
   <![CDATA[
    .fil0 {fill:#00A0E3;fill-rule:nonzero}
   ]]>
  </style>
 </defs>
 <g id="Layer_x0020_1">
  <metadata id="CorelCorpID_0Corel-Layer"/>
  <path class="fil0" d="M844 0c-140,0 -257,48 -327,176 -47,86 -61,187 -65,283l-103 0c-99,0 -200,26 -272,99 -49,50 -76,119 -77,190 -1,71 26,138 76,188 59,59 143,88 225,88 115,0 178,-42 238,-139 88,104 169,139 305,139 136,0 216,-36 304,-139 60,96 123,139 238,139 82,0 167,-29 225,-88 50,-50 77,-117 76,-188 0,-71 -28,-140 -77,-190 -71,-73 -173,-99 -271,-99l-105 0c16,-104 48,-197 123,-272 85,-85 221,-118 337,-117 93,0 198,27 267,94 48,47 70,107 70,175 -1,42 -17,82 -48,111 -24,24 -55,38 -88,44 -18,3 -36,2 -54,3 -18,2 -54,12 -52,37 1,22 35,31 53,33 16,1 34,-2 51,-1 37,3 73,15 102,39 38,32 60,78 65,127 4,59 -16,115 -51,160 -23,28 -54,49 -89,57 -31,8 -64,4 -93,-7 -25,-9 -65,-8 -85,11 -22,20 -3,40 19,48 67,24 137,30 206,13 59,-14 115,-45 153,-93 43,-54 68,-122 62,-192 -8,-98 -65,-159 -147,-203 69,-44 117,-99 118,-187 2,-120 -59,-206 -156,-267 -87,-54 -203,-72 -303,-72 -145,0 -299,42 -407,141 -33,30 -62,65 -85,105 -10,-23 -17,-43 -29,-66 -69,-131 -188,-180 -329,-180zm393 530l101 0c62,0 121,17 165,62 39,40 60,97 62,153 1,59 -19,115 -60,157 -32,31 -74,52 -118,52 -43,0 -84,-22 -113,-54 -50,-55 -64,-142 -51,-214 9,-52 12,-103 14,-156zm-772 154c12,73 -2,161 -52,216 -29,32 -70,54 -113,54 -44,0 -86,-21 -117,-52 -42,-42 -61,-98 -60,-157 1,-56 22,-113 61,-153 45,-45 104,-62 165,-62l102 0c1,52 5,103 14,154zm649 -154c-3,101 -13,211 -63,301 -46,81 -115,123 -207,123 -92,0 -161,-41 -207,-122 -50,-90 -61,-201 -64,-302l541 0zm-540 -71c5,-89 17,-183 60,-262 45,-84 116,-127 210,-127 93,0 164,43 209,126 43,80 56,174 60,263l-539 0z"/>
 </g>
</svg>
