<?xml version="1.0" encoding="UTF-8"?>
<!DOCTYPE svg PUBLIC "-//W3C//DTD SVG 1.1//EN" "http://www.w3.org/Graphics/SVG/1.1/DTD/svg11.dtd">
<!-- Creator: CorelDRAW X8 -->
<svg xmlns="http://www.w3.org/2000/svg" xml:space="preserve" width="1689px" height="1486px" version="1.1" style="shape-rendering:geometricPrecision; text-rendering:geometricPrecision; image-rendering:optimizeQuality; fill-rule:evenodd; clip-rule:evenodd"
viewBox="0 0 1689 1486"
 xmlns:xlink="http://www.w3.org/1999/xlink">
 <defs>
  <style type="text/css">
   <![CDATA[
    .fil0 {fill:#00A0E3;fill-rule:nonzero}
   ]]>
  </style>
 </defs>
 <g id="Layer_x0020_1">
  <metadata id="CorelCorpID_0Corel-Layer"/>
  <path class="fil0" d="M844 0c-140,0 -258,47 -327,175 -47,85 -61,188 -66,284l-102 0c-99,0 -200,25 -272,98 -49,49 -76,122 -77,192 -1,71 26,138 76,188 59,58 143,87 225,87 114,-1 178,-41 238,-138 88,103 169,138 305,138 137,0 253,-46 323,-171 54,-95 67,-216 69,-324l192 0c61,0 107,46 107,106 1,37 -19,80 -50,100 -35,24 -68,13 -106,14 -20,1 -60,10 -60,36 1,26 43,35 63,35 40,-1 70,-11 110,4 55,21 84,75 82,133 -3,97 -81,143 -170,143l-1128 0c-126,0 -273,30 -276,187 -3,164 146,199 276,199l1304 0c31,0 61,-26 61,-59 0,-33 -30,-59 -61,-59l-1304 0c-67,0 -149,-12 -151,-98 -2,-85 86,-101 151,-101l1129 0c132,0 286,-53 284,-212 -1,-99 -54,-152 -142,-180 63,-27 106,-64 105,-141 -1,-45 -14,-84 -44,-116 -46,-47 -117,-61 -180,-61l-193 0c-4,-96 -18,-199 -65,-285 -70,-127 -187,-174 -326,-174zm-380 683c12,74 1,161 -51,218 -29,32 -70,53 -113,53 -44,0 -86,-21 -117,-52 -42,-41 -61,-97 -60,-155 1,-56 22,-116 61,-156 45,-45 103,-62 165,-62l102 0c1,50 4,104 13,154zm650 -154c-3,100 -14,214 -64,303 -45,81 -114,122 -206,122 -92,0 -161,-41 -207,-121 -50,-89 -61,-204 -64,-304l541 0zm-540 -70c4,-88 17,-185 60,-263 45,-83 116,-126 210,-126 93,0 163,42 209,125 43,79 55,176 60,264l-539 0z"/>
 </g>
</svg>
