<?xml version="1.0" encoding="UTF-8"?>
<!DOCTYPE svg PUBLIC "-//W3C//DTD SVG 1.1//EN" "http://www.w3.org/Graphics/SVG/1.1/DTD/svg11.dtd">
<!-- Creator: CorelDRAW X8 -->
<svg xmlns="http://www.w3.org/2000/svg" xml:space="preserve" width="1360px" height="868px" version="1.1" style="shape-rendering:geometricPrecision; text-rendering:geometricPrecision; image-rendering:optimizeQuality; fill-rule:evenodd; clip-rule:evenodd"
viewBox="0 0 1360 868"
 xmlns:xlink="http://www.w3.org/1999/xlink">
 <defs>
  <style type="text/css">
   <![CDATA[
    .fil0 {fill:#CC9933;fill-rule:nonzero}
   ]]>
  </style>
 </defs>
 <g id="Layer_x0020_1">
  <metadata id="CorelCorpID_0Corel-Layer"/>
  <path class="fil0" d="M528 0c99,0 162,35 200,88 9,12 17,26 23,40 11,-16 24,-31 38,-43 69,-63 164,-85 257,-85 64,0 140,11 196,43 58,34 100,84 99,158 -1,45 -28,83 -68,106 61,30 87,92 87,155 0,52 -17,105 -49,142 -58,69 -143,83 -230,83l-900 0c-55,0 -81,16 -80,51 1,36 28,49 80,49l1112 0c27,0 50,18 50,41 0,22 -23,40 -50,40l-1112 0c-84,0 -183,-21 -181,-120 2,-72 58,-114 181,-114l900 0c69,0 118,-18 157,-77 17,-25 25,-60 25,-95 0,-40 -13,-81 -41,-106 -13,-11 -32,-18 -54,-19 -10,-1 -21,1 -31,0 -22,-1 -40,-10 -43,-22 -4,-15 15,-29 42,-31 10,-1 22,0 31,-2 19,-3 35,-11 47,-21 18,-16 27,-38 27,-61 1,-42 -15,-70 -41,-95 -37,-37 -97,-51 -154,-52 -70,-2 -141,15 -193,64 -35,32 -62,80 -73,146l51 0c54,0 125,10 176,59 32,30 49,72 49,113 0,40 -15,81 -48,112 -38,35 -92,53 -148,53 -67,0 -118,-25 -148,-69 -38,42 -97,69 -184,69 -87,0 -146,-27 -185,-69 -29,44 -80,69 -147,69 -56,0 -111,-18 -148,-53 -33,-31 -48,-72 -48,-112 0,-41 17,-82 49,-112 50,-49 122,-60 176,-60l51 0c3,-57 15,-113 40,-157 37,-64 102,-106 212,-106zm252 316c-1,29 -3,58 -8,85 -8,40 1,89 30,119 15,15 36,27 58,27 20,0 43,-9 61,-27 25,-23 36,-54 35,-86 0,-31 -13,-65 -36,-86 -30,-29 -67,-32 -90,-32l-50 0zm-496 84c-5,-27 -7,-56 -8,-84l-51 0c-22,0 -59,3 -90,32 -22,21 -35,55 -36,86 0,32 11,63 35,86 19,18 42,27 62,27 22,0 43,-12 58,-27 29,-31 38,-80 30,-120zm397 -83l-306 0c2,60 12,120 38,165 24,39 60,65 115,65 55,0 91,-27 115,-66 26,-44 36,-104 38,-164zm-305 -54l304 0c-3,-52 -13,-103 -36,-142 -23,-41 -60,-68 -116,-68 -56,0 -93,28 -117,68 -22,39 -33,90 -35,142z"/>
 </g>
</svg>
