<?xml version="1.0" encoding="UTF-8"?>
<!DOCTYPE svg PUBLIC "-//W3C//DTD SVG 1.1//EN" "http://www.w3.org/Graphics/SVG/1.1/DTD/svg11.dtd">
<!-- Creator: CorelDRAW X8 -->
<svg xmlns="http://www.w3.org/2000/svg" xml:space="preserve" width="1556px" height="868px" version="1.1" style="shape-rendering:geometricPrecision; text-rendering:geometricPrecision; image-rendering:optimizeQuality; fill-rule:evenodd; clip-rule:evenodd"
viewBox="0 0 1556 868"
 xmlns:xlink="http://www.w3.org/1999/xlink">
 <defs>
  <style type="text/css">
   <![CDATA[
    .fil0 {fill:#00A0E3;fill-rule:nonzero}
   ]]>
  </style>
 </defs>
 <g id="Layer_x0020_1">
  <metadata id="CorelCorpID_0Corel-Layer"/>
  <path class="fil0" d="M1398 147c-48,-64 -118,-94 -198,-94 -52,0 -107,24 -150,68 -33,35 -57,84 -65,143l49 0c54,0 124,10 174,58 31,30 48,73 49,114 0,39 -15,80 -48,111 -36,35 -90,53 -145,53 -66,0 -117,-25 -145,-69 -39,42 -96,69 -182,69 -85,0 -143,-27 -181,-69 -29,44 -80,69 -145,69 -55,0 -109,-18 -146,-53 -33,-31 -48,-72 -48,-111 1,-41 17,-84 48,-114 50,-48 120,-58 174,-58l50 0c3,-57 14,-114 39,-158 36,-64 101,-106 208,-106 97,0 176,34 217,122 51,-75 137,-121 247,-122 112,-1 220,36 288,126 47,61 68,136 68,211 1,167 -96,307 -239,398 -150,96 -355,133 -534,133 -174,0 -368,-28 -521,-111 -169,-91 -261,-241 -262,-428 -1,-125 51,-248 161,-319 21,-14 50,-12 68,-3 19,8 27,24 7,37 -97,62 -138,177 -138,285 0,168 80,308 233,391 132,71 300,95 452,95 153,0 330,-32 460,-114 130,-83 216,-213 215,-364 0,-67 -18,-136 -60,-190zm-413 170c-1,29 -3,57 -8,84 -7,40 1,89 30,119 14,15 35,27 57,27 20,0 42,-9 60,-27 25,-23 36,-54 35,-86 -1,-31 -14,-65 -36,-86 -30,-29 -67,-31 -89,-31l-49 0zm-488 83c-5,-26 -8,-55 -9,-83l-49 0c-22,0 -59,2 -89,31 -22,21 -34,55 -35,86 0,32 10,63 35,86 18,18 40,27 60,27 22,0 43,-12 57,-27 29,-31 37,-80 30,-120zm390 -83l-301 0c2,61 12,120 38,165 24,39 59,65 113,65 55,0 90,-26 113,-66 26,-44 35,-103 37,-164zm-300 -53l299 0c-3,-52 -13,-104 -35,-143 -23,-41 -59,-68 -115,-68 -55,0 -91,28 -114,68 -23,39 -33,91 -35,143z"/>
 </g>
</svg>
