<?xml version="1.0" encoding="UTF-8"?>
<!DOCTYPE svg PUBLIC "-//W3C//DTD SVG 1.1//EN" "http://www.w3.org/Graphics/SVG/1.1/DTD/svg11.dtd">
<!-- Creator: CorelDRAW X8 -->
<svg xmlns="http://www.w3.org/2000/svg" xml:space="preserve" width="3006px" height="1486px" version="1.1" style="shape-rendering:geometricPrecision; text-rendering:geometricPrecision; image-rendering:optimizeQuality; fill-rule:evenodd; clip-rule:evenodd"
viewBox="0 0 3006 1486"
 xmlns:xlink="http://www.w3.org/1999/xlink">
 <defs>
  <style type="text/css">
   <![CDATA[
    .fil0 {fill:#E31E24;fill-rule:nonzero}
   ]]>
  </style>
 </defs>
 <g id="Layer_x0020_1">
  <metadata id="CorelCorpID_0Corel-Layer"/>
  <path class="fil0" d="M2897 1486c32,0 62,-26 62,-59 0,-33 -30,-59 -62,-59l-1112 0c-70,0 -152,-13 -152,-101 0,-82 86,-98 152,-98l637 0c151,0 281,-37 380,-115 149,-118 204,-279 204,-462 0,-157 -53,-315 -159,-429 -100,-107 -238,-163 -380,-163 -80,0 -154,13 -230,41 -75,-28 -146,-41 -226,-41 -190,0 -370,101 -458,272 -39,76 -56,149 -66,233 -70,-35 -112,-46 -190,-46l-61 0c-5,-96 -18,-199 -66,-285 -70,-127 -187,-174 -326,-174 -140,0 -257,47 -327,175 -46,85 -61,188 -66,284l-102 0c-99,0 -200,25 -272,98 -50,51 -77,122 -77,194 0,68 27,137 76,186 59,59 143,87 225,87 115,0 194,-41 238,-138 89,103 169,138 305,138 137,0 253,-46 323,-171 54,-95 67,-217 69,-324l61 0c52,0 98,16 132,46 35,32 59,82 68,130 25,118 85,233 190,297 19,12 42,21 66,21 14,0 28,-3 41,-11 11,-7 17,-16 17,-24 0,-9 -8,-18 -20,-25 -135,-71 -184,-252 -184,-396 0,-94 21,-191 64,-275 65,-125 196,-222 340,-222 47,0 87,4 132,19 -167,120 -252,300 -252,506 0,84 17,183 57,258 60,112 164,171 289,171 126,0 229,-58 291,-172 40,-75 57,-172 57,-257 0,-207 -84,-386 -253,-506 46,-16 84,-19 135,-19 124,0 233,69 306,167 74,100 111,230 111,355 0,151 -44,284 -153,394 -85,85 -192,114 -309,114l-637 0c-130,0 -278,33 -278,192 0,160 148,194 278,194l1112 0zm-1784 -1027l-539 0c4,-88 18,-185 60,-263 46,-83 116,-126 210,-126 93,0 164,42 209,125 44,79 55,176 60,264zm1124 495c-79,0 -135,-51 -172,-121 -36,-70 -52,-160 -52,-238 0,-184 74,-353 224,-461 153,108 226,275 226,461 0,77 -17,166 -53,236 -36,71 -93,123 -173,123zm-1936 0c-43,0 -88,-22 -118,-52 -40,-40 -60,-94 -60,-151 0,-57 21,-119 61,-160 45,-45 104,-62 165,-62l102 0c1,51 5,104 13,154 4,18 4,36 4,55 0,59 -15,120 -55,163 -29,32 -66,53 -112,53zm543 0c-92,0 -161,-41 -207,-121 -50,-88 -61,-204 -64,-304l541 0c-3,100 -13,215 -63,303 -45,81 -115,122 -207,122z"/>
 </g>
</svg>
