<?xml version="1.0" encoding="UTF-8"?>
<!DOCTYPE svg PUBLIC "-//W3C//DTD SVG 1.1//EN" "http://www.w3.org/Graphics/SVG/1.1/DTD/svg11.dtd">
<!-- Creator: CorelDRAW X8 -->
<svg xmlns="http://www.w3.org/2000/svg" xml:space="preserve" width="3038px" height="1486px" version="1.1" style="shape-rendering:geometricPrecision; text-rendering:geometricPrecision; image-rendering:optimizeQuality; fill-rule:evenodd; clip-rule:evenodd"
viewBox="0 0 3038 1486"
 xmlns:xlink="http://www.w3.org/1999/xlink">
 <defs>
  <style type="text/css">
   <![CDATA[
    .fil0 {fill:#00A0E3;fill-rule:nonzero}
   ]]>
  </style>
 </defs>
 <g id="Layer_x0020_1">
  <metadata id="CorelCorpID_0Corel-Layer"/>
  <path class="fil0" d="M2236 1221c53,0 109,4 160,20 35,10 96,36 96,80 1,45 -62,72 -98,82 -50,16 -105,20 -158,20 -59,0 -132,-6 -188,-28 -30,-12 -74,-36 -73,-74 0,-37 44,-61 74,-73 56,-21 128,-27 187,-27zm363 110c1,-6 1,-12 1,-18 -5,-78 -118,-121 -182,-136 -60,-14 -121,-19 -182,-19 -65,0 -135,6 -199,22 -64,17 -171,61 -171,141 0,80 103,124 166,141 64,17 138,25 204,24 60,-1 120,-7 180,-19 196,-39 348,-143 465,-307 103,-144 154,-321 157,-498 2,-141 -30,-281 -104,-401 -101,-165 -280,-261 -470,-261 -81,0 -152,13 -227,41 -76,-28 -147,-41 -228,-41 -189,0 -368,101 -456,272 -39,77 -56,148 -66,233 -69,-34 -111,-46 -190,-46l-61 0c-5,-96 -19,-199 -66,-285 -70,-127 -187,-174 -326,-174 -140,0 -257,47 -327,175 -47,85 -61,188 -66,284l-102 0c-99,0 -200,25 -272,98 -49,49 -76,122 -77,192 -1,71 26,138 76,188 59,58 143,87 225,87 115,0 178,-42 238,-138 88,103 169,138 305,138 137,0 253,-46 323,-171 54,-95 67,-217 69,-324l61 0c53,0 97,16 131,46 35,31 59,82 69,130 24,118 85,233 189,297 33,20 72,31 107,10 24,-15 21,-37 -3,-50 -134,-71 -183,-251 -183,-395 0,-94 21,-191 64,-275 65,-126 196,-223 339,-222 48,0 86,4 133,19 -168,120 -253,300 -253,505 0,85 17,184 57,259 61,112 164,171 289,170 126,0 230,-58 291,-171 41,-75 57,-172 57,-258 0,-206 -84,-385 -253,-505 46,-16 85,-19 133,-19 148,-1 274,94 352,216 74,113 100,248 100,382 -1,150 -33,303 -105,435 -53,96 -120,170 -212,228zm-363 -1197c153,108 226,275 226,460 0,79 -15,169 -52,238 -36,67 -95,122 -174,122 -79,0 -135,-54 -172,-121 -37,-69 -51,-161 -51,-239 -1,-183 73,-352 223,-460zm-1772 552c12,74 1,158 -51,215 -29,32 -70,53 -113,53 -44,1 -86,-21 -117,-52 -42,-41 -61,-97 -60,-155 1,-56 22,-116 61,-156 45,-45 104,-62 165,-62l102 0c1,51 4,107 13,157zm650 -157c-3,100 -14,215 -63,303 -46,81 -115,122 -207,122 -92,0 -161,-41 -207,-121 -50,-88 -61,-204 -64,-304l541 0zm-540 -70c5,-88 17,-185 60,-263 45,-83 116,-126 210,-126 93,0 163,42 209,125 43,79 56,176 60,264l-539 0z"/>
 </g>
</svg>
