<?xml version="1.0" encoding="UTF-8"?>
<!DOCTYPE svg PUBLIC "-//W3C//DTD SVG 1.1//EN" "http://www.w3.org/Graphics/SVG/1.1/DTD/svg11.dtd">
<!-- Creator: CorelDRAW X8 -->
<svg xmlns="http://www.w3.org/2000/svg" xml:space="preserve" width="1688px" height="1024px" version="1.1" style="shape-rendering:geometricPrecision; text-rendering:geometricPrecision; image-rendering:optimizeQuality; fill-rule:evenodd; clip-rule:evenodd"
viewBox="0 0 1688 1024"
 xmlns:xlink="http://www.w3.org/1999/xlink">
 <defs>
  <style type="text/css">
   <![CDATA[
    .fil0 {fill:#2B2A29;fill-rule:nonzero}
   ]]>
  </style>
 </defs>
 <g id="Layer_x0020_1">
  <metadata id="CorelCorpID_0Corel-Layer"/>
  <path class="fil0" d="M1688 847c0,-70 -49,-108 -109,-121 47,-16 83,-50 83,-110 0,-120 -119,-157 -218,-157l-209 0c-5,-96 -19,-198 -65,-284 -70,-128 -188,-175 -327,-175 -139,0 -257,48 -327,177 -46,86 -60,185 -65,282l-102 0c-99,0 -200,26 -272,99 -51,51 -77,122 -77,194 0,69 27,135 76,184 59,59 142,88 224,88 116,0 195,-43 239,-139 89,104 169,139 304,139 137,0 254,-46 324,-172 54,-96 66,-214 69,-322l208 0c53,0 96,30 96,86 0,28 -10,50 -28,64 -12,10 -28,16 -47,17 -21,2 -44,-1 -63,-1 -20,0 -57,12 -57,35 0,28 36,36 58,36 22,0 45,-4 67,-4 17,0 34,2 50,9 30,14 50,41 50,75 0,73 -63,107 -126,107 -60,1 -79,-31 -124,-31 -15,0 -29,3 -41,9 -14,7 -22,15 -22,23 0,8 6,16 18,25 43,32 111,44 164,44 108,0 249,-47 249,-177zm-575 -388l-539 0c4,-89 16,-182 60,-262 45,-84 115,-127 209,-127 94,0 164,43 209,126 44,80 56,174 61,263zm-813 495c-44,0 -86,-21 -118,-53 -39,-39 -59,-92 -59,-148 0,-60 18,-118 61,-161 45,-45 103,-62 165,-62l102 0c1,51 4,100 13,150 3,18 4,37 4,56 0,59 -15,120 -55,164 -29,32 -70,54 -113,54zm543 0c-91,0 -160,-42 -206,-123 -50,-89 -61,-200 -64,-301l540 0c-2,101 -13,212 -63,301 -45,81 -115,123 -207,123z"/>
 </g>
</svg>
