<?xml version="1.0" encoding="UTF-8"?>
<!DOCTYPE svg PUBLIC "-//W3C//DTD SVG 1.1//EN" "http://www.w3.org/Graphics/SVG/1.1/DTD/svg11.dtd">
<!-- Creator: CorelDRAW X8 -->
<svg xmlns="http://www.w3.org/2000/svg" xml:space="preserve" width="1689px" height="1486px" version="1.1" style="shape-rendering:geometricPrecision; text-rendering:geometricPrecision; image-rendering:optimizeQuality; fill-rule:evenodd; clip-rule:evenodd"
viewBox="0 0 1689 1486"
 xmlns:xlink="http://www.w3.org/1999/xlink">
 <defs>
  <style type="text/css">
   <![CDATA[
    .fil0 {fill:#E31E24;fill-rule:nonzero}
   ]]>
  </style>
 </defs>
 <g id="Layer_x0020_1">
  <metadata id="CorelCorpID_0Corel-Layer"/>
  <path class="fil0" d="M1580 1486c31,0 61,-26 61,-59 0,-33 -30,-59 -61,-59l-1304 0c-70,0 -151,-13 -151,-101 0,-82 87,-98 151,-98l1129 0c131,0 284,-61 284,-218 0,-99 -50,-145 -142,-174 62,-19 105,-67 105,-142 0,-45 -13,-83 -44,-115 -45,-48 -117,-61 -180,-61l-193 0c-4,-96 -18,-199 -65,-285 -70,-127 -187,-174 -326,-174 -140,0 -257,47 -327,175 -46,85 -61,188 -66,284l-102 0c-99,0 -200,25 -272,98 -50,51 -77,125 -77,196 0,69 27,135 76,184 59,58 143,87 225,87 114,-1 194,-41 238,-138 88,103 169,138 305,138 137,0 253,-46 323,-171 54,-95 67,-216 69,-324l192 0c61,0 107,46 107,106 0,36 -17,76 -47,99 -13,9 -28,16 -45,17 -21,1 -42,-2 -64,-2 -20,0 -60,10 -60,36 1,26 43,35 63,35 23,0 43,-4 63,-4 15,0 30,2 47,8 53,20 82,72 82,127 0,100 -77,149 -170,149l-1128 0c-130,0 -276,32 -276,192 0,160 147,194 276,194l1304 0zm-467 -1027l-539 0c4,-88 17,-185 60,-263 45,-83 116,-126 210,-126 93,0 163,42 209,125 43,79 55,176 60,264zm-813 495c-44,0 -86,-21 -117,-52 -41,-40 -60,-94 -60,-151 0,-57 20,-119 61,-160 45,-45 103,-62 165,-62l102 0c1,50 4,104 13,154 3,18 4,36 4,55 0,59 -15,120 -55,163 -29,32 -70,53 -113,53zm544 0c-92,0 -161,-41 -207,-121 -50,-89 -61,-204 -64,-304l541 0c-3,100 -14,214 -64,303 -45,81 -114,122 -206,122z"/>
 </g>
</svg>
