<?xml version="1.0" encoding="UTF-8"?>
<!DOCTYPE svg PUBLIC "-//W3C//DTD SVG 1.1//EN" "http://www.w3.org/Graphics/SVG/1.1/DTD/svg11.dtd">
<!-- Creator: CorelDRAW X8 -->
<svg xmlns="http://www.w3.org/2000/svg" xml:space="preserve" width="1340px" height="868px" version="1.1" style="shape-rendering:geometricPrecision; text-rendering:geometricPrecision; image-rendering:optimizeQuality; fill-rule:evenodd; clip-rule:evenodd"
viewBox="0 0 1340 868"
 xmlns:xlink="http://www.w3.org/1999/xlink">
 <defs>
  <style type="text/css">
   <![CDATA[
    .fil0 {fill:#B2B09C;fill-rule:nonzero}
   ]]>
  </style>
 </defs>
 <g id="Layer_x0020_1">
  <metadata id="CorelCorpID_0Corel-Layer"/>
  <path class="fil0" d="M520 0c98,0 160,35 198,88 8,12 16,26 22,40 11,-16 23,-31 37,-43 68,-63 162,-85 254,-85 63,0 138,11 193,43 57,34 98,84 97,158 -1,45 -27,83 -66,106 59,30 85,92 85,155 0,52 -17,105 -48,142 -57,69 -141,83 -227,83l-886 0c-54,0 -81,16 -80,51 1,36 28,49 80,49l1095 0c27,0 49,18 49,41 0,22 -22,40 -49,40l-1095 0c-83,0 -181,-21 -179,-120 2,-72 57,-114 179,-114l886 0c68,0 117,-18 155,-77 16,-25 25,-60 25,-95 -1,-40 -13,-81 -41,-106 -13,-11 -32,-18 -53,-19 -10,-1 -21,1 -31,0 -21,-1 -39,-10 -42,-22 -4,-15 14,-29 41,-31 10,-1 22,0 31,-2 19,-3 34,-11 46,-21 18,-16 27,-38 27,-61 1,-42 -15,-70 -40,-95 -37,-37 -96,-51 -152,-52 -70,-2 -140,15 -190,64 -35,32 -61,80 -73,146l50 0c54,0 124,10 174,59 31,30 48,72 48,113 1,40 -14,81 -47,112 -37,35 -91,53 -146,53 -66,0 -116,-25 -145,-69 -38,42 -96,69 -182,69 -85,0 -143,-27 -182,-69 -28,44 -79,69 -145,69 -55,0 -109,-18 -146,-53 -32,-31 -47,-72 -47,-112 0,-41 17,-82 48,-112 50,-49 121,-60 174,-60l50 0c3,-57 14,-113 40,-157 36,-64 100,-106 208,-106zm249 317c-1,28 -4,57 -9,84 -7,40 1,89 30,119 15,15 36,27 57,27 20,0 43,-9 61,-27 24,-23 35,-54 34,-86 0,-31 -13,-65 -35,-86 -30,-29 -67,-32 -89,-32l-49 1zm-489 83c-5,-27 -7,-56 -8,-83l-50 -1c-22,0 -59,3 -88,32 -23,21 -35,55 -36,86 -1,32 10,63 34,86 19,18 41,27 61,27 22,0 43,-12 57,-27 29,-31 37,-80 30,-120zm391 -83l-301 0c1,60 11,120 37,165 24,39 59,65 113,65 55,0 90,-27 113,-66 26,-44 36,-104 38,-164zm-301 -54l300 0c-3,-52 -13,-103 -35,-142 -23,-41 -60,-68 -115,-68 -55,0 -91,28 -115,68 -22,39 -32,90 -35,142z"/>
 </g>
</svg>
