<?xml version="1.0" encoding="UTF-8"?>
<!DOCTYPE svg PUBLIC "-//W3C//DTD SVG 1.1//EN" "http://www.w3.org/Graphics/SVG/1.1/DTD/svg11.dtd">
<!-- Creator: CorelDRAW X8 -->
<svg xmlns="http://www.w3.org/2000/svg" xml:space="preserve" width="1702px" height="1486px" version="1.1" style="shape-rendering:geometricPrecision; text-rendering:geometricPrecision; image-rendering:optimizeQuality; fill-rule:evenodd; clip-rule:evenodd"
viewBox="0 0 1702 1486"
 xmlns:xlink="http://www.w3.org/1999/xlink">
 <defs>
  <style type="text/css">
   <![CDATA[
    .fil0 {fill:#E31E24;fill-rule:nonzero}
   ]]>
  </style>
 </defs>
 <g id="Layer_x0020_1">
  <metadata id="CorelCorpID_0Corel-Layer"/>
  <path class="fil0" d="M842 1486c107,0 203,-9 300,-33 73,-17 145,-41 212,-74 84,-41 160,-96 222,-169 85,-100 126,-207 126,-337 0,-58 -11,-117 -32,-171 -63,-160 -208,-243 -376,-243l-59 0c-4,-96 -18,-199 -65,-285 -70,-127 -188,-174 -327,-174 -139,0 -257,47 -327,175 -46,85 -60,188 -65,284l-102 0c-99,0 -200,25 -272,98 -50,51 -77,123 -77,194 0,69 27,137 76,186 59,58 143,87 225,87 114,-1 194,-42 238,-138 89,103 169,138 304,138 138,0 254,-46 324,-171 53,-95 66,-217 69,-324l58 0c122,0 213,78 257,189 20,49 29,103 29,157 0,114 -26,210 -96,302 -81,107 -181,154 -300,201 14,-16 27,-45 27,-82 0,-45 -28,-79 -64,-102 -40,-26 -99,-36 -146,-36 -61,0 -106,13 -158,47 -52,-34 -96,-47 -158,-47 -47,0 -105,10 -145,36 -36,24 -64,59 -64,104 0,73 71,131 134,154 73,27 156,34 232,34zm271 -1027l-539 0c4,-89 17,-185 60,-263 45,-83 115,-126 209,-126 94,0 164,42 210,125 43,79 55,175 60,264zm-813 495c-44,0 -86,-21 -117,-52 -41,-40 -60,-94 -60,-151 0,-57 20,-120 61,-160 45,-45 103,-62 165,-62l102 0c1,50 4,104 13,154 3,18 4,36 4,54 0,59 -15,120 -55,164 -29,32 -70,53 -113,53zm543 0c-91,0 -161,-41 -206,-121 -51,-89 -61,-204 -64,-304l541 0c-3,100 -14,215 -64,303 -45,81 -114,122 -207,122zm-1 476c-66,0 -144,-5 -205,-33 -41,-19 -73,-51 -73,-99 0,-61 68,-85 119,-85 68,0 109,40 109,108 0,24 32,31 51,31 19,0 51,-7 51,-31 0,-68 41,-108 109,-108 53,0 119,24 119,87 0,47 -32,79 -72,97 -62,28 -141,33 -208,33z"/>
 </g>
</svg>
