<?xml version="1.0" encoding="UTF-8"?>
<!DOCTYPE svg PUBLIC "-//W3C//DTD SVG 1.1//EN" "http://www.w3.org/Graphics/SVG/1.1/DTD/svg11.dtd">
<!-- Creator: CorelDRAW X8 -->
<svg xmlns="http://www.w3.org/2000/svg" xml:space="preserve" width="1050px" height="868px" version="1.1" style="shape-rendering:geometricPrecision; text-rendering:geometricPrecision; image-rendering:optimizeQuality; fill-rule:evenodd; clip-rule:evenodd"
viewBox="0 0 1050 868"
 xmlns:xlink="http://www.w3.org/1999/xlink">
 <defs>
  <style type="text/css">
   <![CDATA[
    .fil0 {fill:#E31E24;fill-rule:nonzero}
   ]]>
  </style>
 </defs>
 <g id="Layer_x0020_1">
  <metadata id="CorelCorpID_0Corel-Layer"/>
  <path class="fil0" d="M520 544c-111,0 -147,-111 -151,-229l302 0c-3,116 -37,229 -151,229zm-327 1c-20,0 -42,-10 -60,-27 -24,-22 -35,-53 -35,-83 0,-31 13,-66 35,-87 30,-29 67,-33 89,-33l50 0c1,28 3,55 8,80 2,11 3,21 3,32 0,33 -10,66 -33,91 -14,15 -35,27 -57,27zm477 -283l-300 0c6,-103 41,-209 150,-209 104,0 145,98 150,209zm-148 606c55,0 108,-4 162,-15 33,-6 65,-15 98,-27 152,-51 268,-158 268,-320 0,-34 -7,-67 -19,-97 -36,-85 -120,-147 -239,-147l-23 0c-4,-57 -15,-113 -40,-157 -36,-63 -101,-105 -209,-105 -108,0 -172,42 -208,106 -25,44 -37,99 -39,156l-51 0c-53,0 -124,11 -174,60 -32,30 -48,71 -48,114 0,39 15,78 47,108 37,36 91,54 147,54 65,0 116,-25 145,-69 38,42 96,69 181,69 107,0 171,-41 207,-103 29,-50 40,-114 42,-180l23 0c67,0 118,45 144,106 11,27 16,58 16,89 0,136 -70,220 -200,271 1,-4 2,-9 2,-14 0,-51 -72,-79 -118,-89 -32,-8 -69,-12 -114,-12 -49,0 -92,5 -125,14 -73,18 -110,52 -110,87 0,34 36,68 107,86 41,11 86,15 128,15zm0 -49c-99,0 -146,-26 -146,-52 0,-27 52,-52 146,-52 94,0 143,27 143,52 0,25 -45,52 -143,52z"/>
 </g>
</svg>
