<?xml version="1.0" encoding="UTF-8"?>
<!DOCTYPE svg PUBLIC "-//W3C//DTD SVG 1.1//EN" "http://www.w3.org/Graphics/SVG/1.1/DTD/svg11.dtd">
<!-- Creator: CorelDRAW X8 -->
<svg xmlns="http://www.w3.org/2000/svg" xml:space="preserve" width="1728px" height="1024px" version="1.1" style="shape-rendering:geometricPrecision; text-rendering:geometricPrecision; image-rendering:optimizeQuality; fill-rule:evenodd; clip-rule:evenodd"
viewBox="0 0 1728 1024"
 xmlns:xlink="http://www.w3.org/1999/xlink">
 <defs>
  <style type="text/css">
   <![CDATA[
    .fil0 {fill:#CC9933;fill-rule:nonzero}
   ]]>
  </style>
 </defs>
 <g id="Layer_x0020_1">
  <metadata id="CorelCorpID_0Corel-Layer"/>
  <path class="fil0" d="M863 0c-142,0 -263,48 -334,177 -48,86 -62,185 -67,282l-105 0c-101,0 -205,26 -278,99 -50,50 -78,119 -79,190 -1,71 27,138 78,188 60,59 146,88 229,88 118,-1 183,-43 244,-139 91,104 174,139 312,139 141,0 260,-46 332,-172 54,-96 67,-214 70,-322l214 0c49,0 96,27 98,81 1,27 -7,52 -30,68 -29,22 -75,19 -110,17 -19,-1 -59,11 -60,35 -2,28 41,37 62,36 38,-2 81,-11 117,5 31,14 51,41 51,75 1,73 -64,106 -129,107 -27,0 -56,-5 -80,-19 -24,-15 -63,-16 -88,-3 -28,14 -30,29 -4,48 45,33 118,45 174,44 106,-1 249,-48 248,-177 -1,-70 -53,-100 -112,-121 50,-26 86,-54 85,-115 -1,-120 -124,-151 -223,-151l-214 0c-4,-97 -19,-199 -67,-285 -71,-128 -191,-175 -334,-175zm-388 680c13,76 1,162 -52,220 -30,32 -72,54 -116,54 -45,0 -88,-21 -120,-53 -42,-41 -63,-97 -61,-156 1,-56 22,-113 63,-153 45,-45 105,-62 168,-62l104 0c2,51 5,100 14,150zm665 -150c-3,101 -14,212 -65,301 -46,81 -117,123 -212,123 -93,0 -164,-42 -211,-123 -51,-89 -62,-200 -65,-301l553 0zm-553 -71c5,-89 17,-182 62,-262 46,-84 118,-127 214,-127 96,0 168,43 214,126 45,80 57,174 62,264l-552 -1z"/>
 </g>
</svg>
