<?xml version="1.0" encoding="UTF-8"?>
<!DOCTYPE svg PUBLIC "-//W3C//DTD SVG 1.1//EN" "http://www.w3.org/Graphics/SVG/1.1/DTD/svg11.dtd">
<!-- Creator: CorelDRAW X8 -->
<svg xmlns="http://www.w3.org/2000/svg" xml:space="preserve" width="2178px" height="1486px" version="1.1" style="shape-rendering:geometricPrecision; text-rendering:geometricPrecision; image-rendering:optimizeQuality; fill-rule:evenodd; clip-rule:evenodd"
viewBox="0 0 2178 1486"
 xmlns:xlink="http://www.w3.org/1999/xlink">
 <defs>
  <style type="text/css">
   <![CDATA[
    .fil0 {fill:#E31E24;fill-rule:nonzero}
   ]]>
  </style>
 </defs>
 <g id="Layer_x0020_1">
  <metadata id="CorelCorpID_0Corel-Layer"/>
  <path class="fil0" d="M1113 459l-539 0c5,-89 17,-183 60,-262 45,-83 116,-127 210,-127 93,0 164,43 209,126 43,80 56,174 60,263zm274 495c-43,-1 -84,-22 -113,-54 -38,-42 -56,-103 -56,-162 0,-18 2,-35 5,-52 9,-52 12,-104 14,-156l101 0c62,0 121,17 165,62 39,40 62,101 62,157 0,58 -20,112 -60,152 -32,32 -74,54 -118,53zm-1087 0c-44,1 -86,-22 -117,-53 -41,-41 -60,-94 -60,-152 0,-57 20,-116 61,-157 45,-45 104,-62 165,-62l102 0c1,52 5,103 14,154 3,16 4,33 4,50 0,60 -17,123 -56,166 -29,32 -70,53 -113,54zm964 508c121,-17 236,-44 349,-90 161,-64 297,-161 395,-284 108,-138 170,-308 170,-506 0,-140 -37,-282 -124,-393 -100,-128 -257,-189 -417,-189 -143,0 -275,49 -370,149 -25,25 -47,54 -67,87 -14,-33 -24,-53 -43,-83 -72,-113 -186,-153 -313,-153 -140,0 -257,48 -327,177 -47,85 -61,186 -65,282l-103 0c-99,0 -200,26 -272,99 -50,51 -77,120 -77,191 0,70 27,138 76,187 59,59 143,88 225,88 115,-1 194,-42 238,-139 89,104 169,139 305,139 136,0 216,-36 304,-139 44,96 123,138 238,139 82,0 166,-29 225,-88 49,-49 76,-117 76,-187 0,-73 -26,-139 -77,-191 -71,-73 -173,-99 -271,-99l-105 0c13,-94 40,-181 102,-254 76,-89 186,-134 301,-134 139,0 254,65 328,178 65,98 90,217 90,333 0,177 -49,342 -150,474 -105,138 -247,221 -409,277 -107,37 -220,57 -319,69 18,-18 34,-50 34,-82 0,-85 -116,-128 -183,-144 -59,-14 -120,-19 -181,-19 -66,0 -136,6 -200,22 -64,17 -171,61 -171,141 0,80 104,124 166,141 66,18 138,25 205,25 139,2 280,-4 417,-24zm-417 -40c-179,0 -262,-51 -262,-103 0,-51 93,-100 262,-100 168,0 256,53 256,100 0,50 -79,103 -256,103zm-3 -469c-92,0 -161,-41 -207,-122 -50,-89 -61,-200 -64,-301l541 0c-3,100 -13,212 -63,301 -45,81 -115,122 -207,122z"/>
 </g>
</svg>
