<?xml version="1.0" encoding="UTF-8"?>
<!DOCTYPE svg PUBLIC "-//W3C//DTD SVG 1.1//EN" "http://www.w3.org/Graphics/SVG/1.1/DTD/svg11.dtd">
<!-- Creator: CorelDRAW X8 -->
<svg xmlns="http://www.w3.org/2000/svg" xml:space="preserve" width="1361px" height="600px" version="1.1" style="shape-rendering:geometricPrecision; text-rendering:geometricPrecision; image-rendering:optimizeQuality; fill-rule:evenodd; clip-rule:evenodd"
viewBox="0 0 1361 600"
 xmlns:xlink="http://www.w3.org/1999/xlink">
 <defs>
  <style type="text/css">
   <![CDATA[
    .fil0 {fill:#CC9933;fill-rule:nonzero}
   ]]>
  </style>
 </defs>
 <g id="Layer_x0020_1">
  <metadata id="CorelCorpID_0Corel-Layer"/>
  <path class="fil0" d="M529 0c100,0 163,35 201,89 9,12 16,25 22,39 10,-14 20,-26 31,-37 70,-68 170,-91 266,-91 65,0 139,11 195,43 58,35 100,84 99,158 -1,46 -28,83 -68,107 48,23 81,65 85,116 4,37 -9,78 -39,113 -22,26 -57,47 -100,57 -42,9 -89,8 -137,-8 -23,-8 -30,-24 -16,-37 15,-12 46,-16 69,-8 17,6 33,6 46,4 19,-5 35,-16 48,-30 23,-27 33,-59 30,-88 -2,-27 -15,-53 -37,-70 -14,-11 -32,-18 -54,-19 -11,-1 -21,1 -32,0 -21,-2 -39,-11 -42,-23 -4,-14 14,-28 42,-30 10,-1 21,0 31,-2 19,-3 35,-11 47,-22 18,-16 27,-37 27,-60 1,-42 -15,-74 -41,-97 -38,-35 -96,-51 -153,-51 -67,0 -146,18 -195,64 -35,33 -62,80 -73,146l51 0c54,0 126,11 177,60 31,30 48,71 49,112 0,40 -16,80 -49,111 -37,36 -92,54 -148,54 -67,0 -118,-25 -147,-69 -39,42 -98,69 -185,69 -87,0 -146,-27 -185,-69 -29,44 -80,69 -148,69 -55,0 -110,-18 -148,-54 -33,-31 -48,-71 -48,-111 0,-41 17,-82 49,-112 51,-49 122,-60 177,-60l51 0c3,-57 14,-113 40,-157 37,-64 102,-106 212,-106zm252 317c0,28 -3,56 -8,83 -7,40 1,89 30,120 15,15 36,27 58,27 21,0 43,-9 62,-27 25,-23 36,-55 35,-86 -1,-32 -14,-63 -36,-85 -30,-29 -68,-32 -90,-32l-51 0zm-497 82c-4,-26 -7,-54 -8,-82l-50 0c-22,0 -60,3 -90,32 -23,22 -36,53 -36,85 -1,31 10,63 35,86 18,18 41,27 61,27 22,0 43,-12 58,-27 30,-31 38,-80 30,-121zm398 -82l-306 0c1,61 12,120 38,164 24,39 60,66 115,66 55,0 91,-27 115,-66 26,-45 36,-104 38,-164zm-306 -54l305 0c-3,-52 -13,-103 -36,-142 -23,-40 -60,-68 -116,-68 -57,0 -93,28 -117,68 -23,40 -33,90 -36,142z"/>
 </g>
</svg>
