<?xml version="1.0" encoding="UTF-8"?>
<!DOCTYPE svg PUBLIC "-//W3C//DTD SVG 1.1//EN" "http://www.w3.org/Graphics/SVG/1.1/DTD/svg11.dtd">
<!-- Creator: CorelDRAW X8 -->
<svg xmlns="http://www.w3.org/2000/svg" xml:space="preserve" width="1341px" height="600px" version="1.1" style="shape-rendering:geometricPrecision; text-rendering:geometricPrecision; image-rendering:optimizeQuality; fill-rule:evenodd; clip-rule:evenodd"
viewBox="0 0 1341 600"
 xmlns:xlink="http://www.w3.org/1999/xlink">
 <defs>
  <style type="text/css">
   <![CDATA[
    .fil0 {fill:#B2B09C;fill-rule:nonzero}
   ]]>
  </style>
 </defs>
 <g id="Layer_x0020_1">
  <metadata id="CorelCorpID_0Corel-Layer"/>
  <path class="fil0" d="M521 0c99,0 161,35 198,89 9,12 16,25 22,39 9,-14 20,-26 31,-37 68,-68 167,-91 262,-91 63,0 137,11 192,43 57,35 98,84 97,158 -1,46 -27,83 -66,107 46,23 79,65 83,116 4,37 -8,78 -38,113 -22,26 -57,47 -99,57 -41,9 -88,8 -135,-8 -17,-6 -33,-22 -15,-37 16,-14 47,-15 67,-8 17,6 33,6 45,4 19,-5 36,-16 48,-30 23,-27 32,-59 30,-88 -3,-27 -15,-53 -37,-70 -14,-11 -32,-18 -53,-19 -11,-1 -21,1 -31,0 -22,-2 -39,-11 -42,-23 -5,-14 14,-28 41,-30 10,-1 21,0 31,-2 19,-3 34,-11 46,-22 17,-16 27,-37 27,-60 1,-42 -15,-74 -40,-97 -38,-35 -96,-51 -151,-51 -67,0 -144,18 -193,64 -34,33 -61,80 -72,146l51 0c53,0 124,11 174,60 31,30 48,71 48,112 0,40 -15,80 -47,111 -37,36 -91,54 -147,54 -66,0 -116,-25 -145,-69 -38,42 -96,69 -182,69 -86,0 -144,-27 -182,-69 -29,44 -79,69 -145,69 -56,0 -110,-18 -147,-54 -32,-31 -47,-71 -47,-111 0,-41 17,-82 48,-112 50,-49 121,-60 174,-60l51 0c3,-57 14,-113 39,-157 36,-64 101,-106 209,-106zm249 317c-1,28 -3,56 -8,83 -8,40 1,89 30,120 14,15 35,27 57,27 20,0 42,-9 60,-27 25,-23 36,-55 35,-86 -1,-32 -13,-63 -36,-85 -29,-29 -67,-32 -89,-32l-49 0zm-490 82c-5,-26 -7,-54 -8,-82l-49 0c-22,0 -60,3 -89,32 -23,22 -35,53 -36,85 -1,31 10,63 35,86 18,18 40,27 60,27 22,0 43,-12 57,-27 30,-31 38,-80 30,-121zm392 -82l-302 0c2,61 12,120 38,164 23,39 59,66 113,66 55,0 90,-27 113,-66 26,-45 36,-104 38,-164zm-301 -54l300 0c-3,-52 -13,-103 -35,-142 -24,-40 -60,-68 -115,-68 -55,0 -92,28 -115,68 -22,40 -33,90 -35,142z"/>
 </g>
</svg>
