<?xml version="1.0" encoding="UTF-8"?>
<!DOCTYPE svg PUBLIC "-//W3C//DTD SVG 1.1//EN" "http://www.w3.org/Graphics/SVG/1.1/DTD/svg11.dtd">
<!-- Creator: CorelDRAW X8 -->
<svg xmlns="http://www.w3.org/2000/svg" xml:space="preserve" width="3030px" height="1024px" version="1.1" style="shape-rendering:geometricPrecision; text-rendering:geometricPrecision; image-rendering:optimizeQuality; fill-rule:evenodd; clip-rule:evenodd"
viewBox="0 0 3030 1024"
 xmlns:xlink="http://www.w3.org/1999/xlink">
 <defs>
  <style type="text/css">
   <![CDATA[
    .fil0 {fill:#669933;fill-rule:nonzero}
   ]]>
  </style>
 </defs>
 <g id="Layer_x0020_1">
  <metadata id="CorelCorpID_0Corel-Layer"/>
  <path class="fil0" d="M1824 945c33,17 35,46 4,64 -43,26 -95,15 -137,-10 -106,-64 -169,-179 -194,-299 -19,-88 -86,-160 -180,-160l-41 0c-3,112 -21,223 -70,308 -60,106 -166,176 -342,176 -142,0 -239,-45 -302,-118 -48,75 -132,118 -241,118 -91,1 -181,-31 -243,-91 -53,-53 -79,-122 -78,-190 1,-71 28,-140 80,-192 83,-82 200,-101 289,-101l83 0c5,-98 23,-193 66,-269 60,-109 167,-181 346,-181 178,0 285,72 345,180 43,76 61,171 66,270l42 0c68,0 122,11 173,36 9,-75 31,-146 64,-210 92,-176 279,-277 476,-276 84,0 160,14 227,38 66,-24 142,-38 227,-38 197,0 384,99 477,276 44,85 68,191 69,294 1,166 -58,339 -206,429 -42,25 -94,36 -137,10 -31,-18 -29,-47 4,-64 130,-68 177,-237 176,-375 0,-92 -20,-188 -62,-268 -62,-119 -185,-211 -321,-211 -36,0 -70,4 -101,12 110,78 184,193 219,323 15,56 22,114 22,171 0,92 -19,180 -58,251 -65,119 -178,176 -310,176 -131,0 -243,-58 -308,-176 -38,-70 -58,-160 -58,-251 0,-58 8,-115 23,-171 34,-129 108,-245 218,-322 -32,-8 -65,-13 -101,-13 -135,0 -259,94 -320,211 -41,78 -63,172 -63,268 0,137 47,307 177,375zm-1360 -267c-8,-44 -12,-91 -13,-137l-82 0c-37,0 -98,6 -147,55 -37,37 -58,90 -59,145 -2,53 16,107 57,147 30,30 67,46 100,45 36,0 71,-20 95,-46 51,-54 61,-138 49,-209zm650 -137l-500 0c2,104 19,205 62,280 39,67 98,112 188,112 90,0 149,-45 188,-112 43,-76 59,-177 62,-280zm-500 -91l499 0c-5,-90 -22,-176 -59,-243 -39,-69 -99,-116 -190,-116 -92,0 -152,47 -191,116 -37,67 -54,153 -59,243zm1643 -289c-94,66 -154,169 -183,278 -14,53 -21,106 -21,158 0,83 17,163 51,225 31,58 82,111 152,111 70,0 123,-54 155,-112 34,-62 51,-141 51,-224 0,-52 -7,-105 -21,-158 -29,-109 -91,-212 -184,-278z"/>
 </g>
</svg>
