<?xml version="1.0" encoding="UTF-8"?>
<!DOCTYPE svg PUBLIC "-//W3C//DTD SVG 1.1//EN" "http://www.w3.org/Graphics/SVG/1.1/DTD/svg11.dtd">
<!-- Creator: CorelDRAW X8 -->
<svg xmlns="http://www.w3.org/2000/svg" xml:space="preserve" width="2178px" height="1486px" version="1.1" style="shape-rendering:geometricPrecision; text-rendering:geometricPrecision; image-rendering:optimizeQuality; fill-rule:evenodd; clip-rule:evenodd"
viewBox="0 0 2178 1486"
 xmlns:xlink="http://www.w3.org/1999/xlink">
 <defs>
  <style type="text/css">
   <![CDATA[
    .fil0 {fill:#CC9933}
   ]]>
  </style>
 </defs>
 <g id="Layer_x0020_1">
  <metadata id="CorelCorpID_0Corel-Layer"/>
  <path class="fil0" d="M847 1219c53,0 108,5 159,20 35,11 96,37 97,81 0,45 -63,72 -98,82 -51,16 -106,20 -158,20 -60,0 -133,-6 -189,-28 -29,-12 -74,-37 -73,-74 1,-37 44,-61 74,-73 56,-22 128,-28 188,-28zm330 179c88,-11 176,-27 261,-51 178,-49 342,-134 459,-288 102,-134 158,-307 158,-477 1,-115 -26,-236 -90,-333 -79,-120 -200,-180 -341,-179 -97,1 -190,38 -260,105 -80,77 -115,175 -129,284l104 0c98,0 200,22 271,95 49,49 77,125 77,195 1,71 -26,138 -76,188 -59,58 -143,87 -225,87 -114,-1 -177,-42 -238,-138 -88,102 -168,138 -304,138 -136,0 -216,-35 -305,-138 -60,95 -123,137 -238,138 -82,0 -166,-29 -225,-87 -50,-50 -77,-117 -76,-188 1,-70 28,-146 77,-195 72,-73 173,-95 272,-95l102 0c5,-96 19,-199 66,-284 70,-128 187,-175 327,-175 113,0 219,31 293,124 29,36 45,73 64,116 33,-52 60,-93 107,-133 89,-76 200,-106 315,-107 166,-1 325,55 431,189 87,111 124,253 124,393 0,179 -60,363 -169,505 -132,174 -337,277 -542,334 -69,19 -143,33 -219,43 -76,10 -154,16 -231,19 -56,2 -113,4 -169,3 -68,-2 -140,-7 -206,-25 -62,-17 -166,-61 -166,-141 0,-80 107,-124 171,-141 64,-16 134,-22 200,-22 61,0 122,5 181,19 67,16 183,59 183,144 0,32 -16,60 -34,78zm59 -869l102 0c62,0 121,14 165,59 39,40 60,103 62,159 1,58 -19,114 -60,155 -32,31 -74,52 -118,52 -43,0 -84,-21 -113,-53 -50,-55 -64,-142 -51,-213 9,-51 12,-107 13,-159zm-771 158c12,72 -2,159 -52,214 -29,32 -70,53 -113,53 -44,0 -86,-21 -117,-52 -42,-41 -61,-97 -60,-155 1,-56 22,-119 61,-159 45,-45 104,-59 165,-59l102 0c1,52 5,107 14,158zm649 -158c-3,100 -14,215 -63,303 -46,81 -115,122 -207,122 -92,0 -161,-41 -207,-121 -50,-89 -61,-204 -64,-304l541 0zm-540 -70c5,-88 17,-185 60,-263 45,-83 116,-126 210,-126 93,0 163,42 209,125 43,79 56,176 60,264l-539 0z"/>
 </g>
</svg>
