<?xml version="1.0" encoding="UTF-8"?>
<!DOCTYPE svg PUBLIC "-//W3C//DTD SVG 1.1//EN" "http://www.w3.org/Graphics/SVG/1.1/DTD/svg11.dtd">
<!-- Creator: CorelDRAW X8 -->
<svg xmlns="http://www.w3.org/2000/svg" xml:space="preserve" width="3039px" height="1486px" version="1.1" style="shape-rendering:geometricPrecision; text-rendering:geometricPrecision; image-rendering:optimizeQuality; fill-rule:evenodd; clip-rule:evenodd"
viewBox="0 0 3039 1486"
 xmlns:xlink="http://www.w3.org/1999/xlink">
 <defs>
  <style type="text/css">
   <![CDATA[
    .fil0 {fill:#E31E24;fill-rule:nonzero}
   ]]>
  </style>
 </defs>
 <g id="Layer_x0020_1">
  <metadata id="CorelCorpID_0Corel-Layer"/>
  <path class="fil0" d="M844 954c-92,0 -161,-41 -207,-121 -50,-88 -61,-204 -64,-304l541 0c-3,100 -13,215 -63,303 -45,81 -115,122 -207,122zm-544 0c-45,0 -85,-21 -117,-52 -43,-42 -60,-96 -60,-155 0,-56 22,-116 61,-156 45,-45 104,-62 165,-62l102 0c1,51 5,107 13,157 4,18 4,36 4,54 0,59 -15,118 -55,161 -29,32 -70,53 -113,53zm1937 0c-79,0 -136,-54 -172,-121 -39,-71 -51,-159 -51,-239 0,-181 74,-353 223,-460 153,108 226,275 226,460 0,79 -15,169 -52,238 -36,67 -95,122 -174,122zm-1124 -495l-539 0c5,-88 18,-185 60,-263 46,-83 116,-126 210,-126 93,0 164,42 209,125 44,79 56,176 60,264zm1926 207c0,-150 -38,-296 -112,-413 -95,-151 -250,-253 -462,-253 -81,0 -152,13 -227,41 -76,-28 -147,-41 -227,-41 -190,0 -370,101 -458,272 -39,77 -56,148 -66,233 -68,-34 -110,-46 -190,-46l-61 0c-5,-96 -18,-199 -66,-285 -69,-127 -187,-174 -326,-174 -140,0 -256,47 -327,175 -46,85 -61,188 -66,284l-102 0c-99,0 -199,25 -272,98 -50,51 -77,119 -77,190 0,69 27,141 76,190 59,58 143,87 224,87 115,0 195,-42 239,-138 88,103 169,138 305,138 137,0 253,-46 323,-171 54,-95 67,-217 69,-324l61 0c54,0 98,16 132,46 35,31 59,82 68,130 25,118 85,233 190,297 19,12 43,21 66,21 14,0 28,-3 41,-11 11,-7 17,-16 17,-24 0,-10 -7,-19 -20,-26 -134,-71 -184,-251 -184,-395 0,-94 21,-191 64,-275 65,-126 195,-222 340,-222 48,0 86,4 133,19 -168,120 -253,300 -253,505 0,85 17,184 57,259 60,112 162,170 289,170 126,0 230,-58 291,-171 41,-75 57,-172 57,-258 0,-206 -84,-385 -253,-505 46,-16 85,-19 133,-19 157,0 273,89 348,212 70,114 104,257 104,384 -1,150 -33,305 -105,437 -53,96 -120,170 -212,228 1,-5 1,-10 1,-15 0,-79 -120,-124 -182,-139 -60,-14 -121,-19 -182,-19 -65,0 -135,5 -199,22 -64,17 -171,61 -171,141 0,80 103,124 166,141 60,16 130,24 204,24 70,0 137,-7 201,-22 186,-45 338,-155 443,-302 101,-141 158,-315 158,-496zm-802 758c-178,0 -262,-52 -262,-103 0,-52 93,-100 262,-100 168,0 256,52 256,100 0,49 -79,103 -256,103z"/>
 </g>
</svg>
