<?xml version="1.0" encoding="UTF-8"?>
<!DOCTYPE svg PUBLIC "-//W3C//DTD SVG 1.1//EN" "http://www.w3.org/Graphics/SVG/1.1/DTD/svg11.dtd">
<!-- Creator: CorelDRAW X8 -->
<svg xmlns="http://www.w3.org/2000/svg" xml:space="preserve" width="2991px" height="1024px" version="1.1" style="shape-rendering:geometricPrecision; text-rendering:geometricPrecision; image-rendering:optimizeQuality; fill-rule:evenodd; clip-rule:evenodd"
viewBox="0 0 2991 1024"
 xmlns:xlink="http://www.w3.org/1999/xlink">
 <defs>
  <style type="text/css">
   <![CDATA[
    .fil0 {fill:#E31E24;fill-rule:nonzero}
   ]]>
  </style>
 </defs>
 <g id="Layer_x0020_1">
  <metadata id="CorelCorpID_0Corel-Layer"/>
  <path class="fil0" d="M2724 1024c23,0 45,-9 66,-22 144,-89 201,-262 201,-427 0,-101 -22,-211 -68,-301 -89,-174 -268,-274 -458,-274 -81,0 -151,13 -227,41 -76,-28 -147,-41 -227,-41 -190,0 -370,101 -458,274 -39,77 -56,150 -66,234 -68,-34 -110,-49 -190,-49l-61 0c-5,-96 -19,-198 -66,-283 -70,-129 -187,-176 -326,-176 -140,0 -256,48 -327,177 -46,85 -61,186 -66,282l-102 0c-99,0 -200,26 -272,99 -50,51 -77,119 -77,191 0,69 27,138 76,187 59,59 143,88 225,88 115,0 194,-43 238,-139 88,104 169,139 305,139 137,0 253,-46 323,-172 54,-96 67,-214 69,-322l61 0c54,0 98,18 132,49 35,32 59,76 68,124 25,119 86,235 190,299 21,13 43,22 66,22 14,0 28,-4 41,-12 11,-7 17,-16 17,-24 0,-10 -7,-19 -20,-26 -134,-71 -184,-246 -184,-391 0,-95 22,-193 64,-277 66,-127 197,-224 340,-224 48,0 86,4 133,20 -168,121 -253,302 -253,509 0,85 16,178 57,253 60,113 164,172 289,172 126,0 230,-59 291,-172 41,-76 57,-167 57,-253 0,-208 -84,-388 -253,-509 46,-16 85,-20 133,-20 144,0 274,95 340,224 44,86 63,184 63,281 0,146 -48,316 -183,387 -13,7 -20,16 -20,26 0,8 6,17 17,24 14,8 28,12 42,12zm-1611 -565l-539 0c5,-89 18,-183 60,-262 46,-84 116,-127 210,-127 93,0 164,43 209,126 44,80 56,174 60,263zm1124 495c-79,0 -136,-55 -172,-122 -38,-69 -51,-155 -51,-233 0,-185 73,-356 223,-464 153,109 226,277 226,464 0,75 -17,162 -52,232 -37,71 -94,123 -174,123zm-1937 0c-44,0 -86,-21 -117,-52 -41,-41 -60,-95 -60,-153 0,-57 21,-116 61,-157 45,-45 104,-62 165,-62l102 0c1,51 5,100 13,150 4,18 4,37 4,55 0,60 -15,122 -55,165 -29,32 -70,54 -113,54zm544 0c-92,0 -161,-41 -207,-122 -50,-89 -61,-201 -64,-302l541 0c-3,101 -13,212 -63,301 -45,81 -115,123 -207,123z"/>
 </g>
</svg>
