<?xml version="1.0" encoding="UTF-8"?>
<!DOCTYPE svg PUBLIC "-//W3C//DTD SVG 1.1//EN" "http://www.w3.org/Graphics/SVG/1.1/DTD/svg11.dtd">
<!-- Creator: CorelDRAW X8 -->
<svg xmlns="http://www.w3.org/2000/svg" xml:space="preserve" width="1070px" height="600px" version="1.1" style="shape-rendering:geometricPrecision; text-rendering:geometricPrecision; image-rendering:optimizeQuality; fill-rule:evenodd; clip-rule:evenodd"
viewBox="0 0 1070 600"
 xmlns:xlink="http://www.w3.org/1999/xlink">
 <defs>
  <style type="text/css">
   <![CDATA[
    .fil0 {fill:#CC9933;fill-rule:nonzero}
   ]]>
  </style>
 </defs>
 <g id="Layer_x0020_1">
  <metadata id="CorelCorpID_0Corel-Layer"/>
  <path class="fil0" d="M535 0c110,0 176,42 213,105 27,45 38,101 41,158l117 0c65,0 147,20 148,94 0,34 -23,54 -44,65 28,9 60,32 60,70 1,81 -100,109 -169,108 -21,0 -43,-3 -63,-8 -23,-6 -91,-33 -42,-56 21,-10 53,-9 71,2 10,6 22,8 34,8 36,2 71,-16 71,-54 0,-19 -12,-32 -26,-38 -17,-7 -42,-2 -62,-1 -27,1 -50,-11 -51,-25 -2,-22 35,-30 50,-29 21,1 43,2 56,-7 9,-7 15,-18 15,-35 -1,-21 -17,-40 -47,-40l-117 0c-2,65 -13,130 -43,180 -38,62 -103,103 -212,103 -88,0 -148,-27 -187,-69 -30,44 -82,69 -150,69 -56,0 -111,-18 -149,-54 -34,-31 -49,-71 -49,-111 0,-41 18,-82 49,-112 52,-49 124,-60 179,-60l52 0c3,-57 14,-113 40,-157 38,-64 104,-106 215,-106zm-248 397c-5,-26 -7,-53 -8,-80l-51 0c-22,0 -60,3 -91,32 -23,22 -36,53 -36,85 -1,31 10,63 35,86 19,17 42,27 62,27 23,0 44,-12 59,-27 32,-33 38,-81 30,-123zm402 -80l-309 0c2,61 12,120 39,164 23,39 60,65 116,65 56,0 92,-26 116,-65 27,-45 37,-104 38,-164zm-309 -54l309 0c-3,-52 -14,-103 -37,-142 -24,-40 -61,-68 -117,-68 -57,0 -95,28 -118,68 -23,40 -34,90 -37,142z"/>
 </g>
</svg>
