<?xml version="1.0" encoding="UTF-8"?>
<!DOCTYPE svg PUBLIC "-//W3C//DTD SVG 1.1//EN" "http://www.w3.org/Graphics/SVG/1.1/DTD/svg11.dtd">
<!-- Creator: CorelDRAW X8 -->
<svg xmlns="http://www.w3.org/2000/svg" xml:space="preserve" width="1270px" height="868px" version="1.1" style="shape-rendering:geometricPrecision; text-rendering:geometricPrecision; image-rendering:optimizeQuality; fill-rule:evenodd; clip-rule:evenodd"
viewBox="0 0 1270 868"
 xmlns:xlink="http://www.w3.org/1999/xlink">
 <defs>
  <style type="text/css">
   <![CDATA[
    .fil0 {fill:#CC9933;fill-rule:nonzero}
   ]]>
  </style>
 </defs>
 <g id="Layer_x0020_1">
  <metadata id="CorelCorpID_0Corel-Layer"/>
  <path class="fil0" d="M744 0c110,0 175,42 212,105 26,44 37,101 40,158l45 0c54,0 104,8 147,38 60,42 84,113 82,182 -3,130 -101,238 -214,301 -100,54 -220,81 -335,84 -193,4 -393,-30 -545,-151 -117,-93 -177,-219 -176,-375 1,-129 58,-259 173,-332 18,-12 50,-13 71,-3 21,9 23,26 5,37 -100,64 -149,186 -149,298 0,135 46,247 143,332 131,114 306,146 478,140 92,-3 184,-24 263,-67 99,-54 183,-152 186,-264 2,-54 -14,-117 -61,-150 -16,-11 -40,-17 -68,-16l-44 0c-2,65 -13,130 -43,180 -37,62 -102,103 -210,103 -87,0 -146,-26 -185,-69 -29,44 -80,69 -147,69 -56,0 -111,-18 -148,-53 -33,-31 -49,-71 -49,-111 1,-41 18,-83 49,-113 51,-49 123,-60 177,-60l51 0c3,-57 14,-113 40,-158 37,-63 102,-105 212,-105zm-245 399c-4,-26 -7,-55 -7,-82l-51 0c-22,0 -60,3 -90,32 -22,21 -35,54 -36,85 -1,32 10,63 35,86 19,18 41,27 61,27 23,0 44,-12 59,-27 31,-32 37,-80 29,-121zm398 -82l-306 0c2,60 12,120 38,165 24,39 60,65 115,65 55,0 92,-26 115,-66 27,-44 36,-104 38,-164zm-305 -54l304 0c-2,-52 -13,-103 -36,-142 -23,-41 -60,-68 -116,-68 -56,0 -93,27 -117,68 -22,39 -33,90 -35,142z"/>
 </g>
</svg>
