<?xml version="1.0" encoding="UTF-8"?>
<!DOCTYPE svg PUBLIC "-//W3C//DTD SVG 1.1//EN" "http://www.w3.org/Graphics/SVG/1.1/DTD/svg11.dtd">
<!-- Creator: CorelDRAW X8 -->
<svg xmlns="http://www.w3.org/2000/svg" xml:space="preserve" width="1058px" height="868px" version="1.1" style="shape-rendering:geometricPrecision; text-rendering:geometricPrecision; image-rendering:optimizeQuality; fill-rule:evenodd; clip-rule:evenodd"
viewBox="0 0 1058 868"
 xmlns:xlink="http://www.w3.org/1999/xlink">
 <defs>
  <style type="text/css">
   <![CDATA[
    .fil0 {fill:#2B2A29;fill-rule:nonzero}
   ]]>
  </style>
 </defs>
 <g id="Layer_x0020_1">
  <metadata id="CorelCorpID_0Corel-Layer"/>
  <path class="fil0" d="M679 262l-302 0c6,-108 45,-209 151,-209 106,0 147,98 151,209zm207 53c34,0 55,29 55,59 0,29 -12,55 -45,59 -13,2 -27,-1 -41,-1 -26,0 -49,12 -49,27 0,14 23,27 49,27 14,0 29,-3 42,-2 41,4 66,26 66,68 0,40 -30,85 -93,85l-690 0c-82,0 -180,18 -180,114 0,97 98,117 180,117l798 0c29,0 49,-18 49,-41 0,-22 -20,-41 -49,-41l-798 0c-39,0 -80,-4 -80,-49 0,-33 29,-47 80,-47l692 0c131,0 186,-74 186,-135 0,-47 -31,-88 -78,-103 33,-12 53,-43 53,-78 0,-67 -61,-112 -147,-112l-106 0c-8,-137 -62,-262 -252,-262 -194,0 -244,129 -252,262l-51 0c-55,0 -124,10 -176,59 -32,31 -49,72 -49,115 0,88 86,162 196,162 66,0 119,-25 148,-70 39,43 98,70 184,70 198,0 248,-139 252,-283l106 0zm-690 230c-49,0 -96,-52 -96,-107 0,-35 10,-66 35,-90 30,-29 68,-33 90,-33l51 0c0,41 10,78 10,113 0,53 -34,117 -90,117zm332 0c-111,0 -149,-109 -154,-230l307 0c-4,119 -40,230 -153,230z"/>
 </g>
</svg>
