<?xml version="1.0" encoding="UTF-8"?>
<!DOCTYPE svg PUBLIC "-//W3C//DTD SVG 1.1//EN" "http://www.w3.org/Graphics/SVG/1.1/DTD/svg11.dtd">
<!-- Creator: CorelDRAW X8 -->
<svg xmlns="http://www.w3.org/2000/svg" xml:space="preserve" width="1329px" height="600px" version="1.1" style="shape-rendering:geometricPrecision; text-rendering:geometricPrecision; image-rendering:optimizeQuality; fill-rule:evenodd; clip-rule:evenodd"
viewBox="0 0 1329 600"
 xmlns:xlink="http://www.w3.org/1999/xlink">
 <defs>
  <style type="text/css">
   <![CDATA[
    .fil0 {fill:#2B2A29;fill-rule:nonzero}
   ]]>
  </style>
 </defs>
 <g id="Layer_x0020_1">
  <metadata id="CorelCorpID_0Corel-Layer"/>
  <path class="fil0" d="M1109 600c18,0 36,-7 51,-15 47,-24 85,-58 113,-98 36,-53 56,-117 56,-183 0,-87 -36,-163 -96,-218 -60,-54 -142,-86 -235,-86 -91,0 -177,30 -233,91 -10,10 -19,21 -27,34 -5,-12 -12,-23 -18,-33 -44,-65 -115,-92 -200,-92 -108,0 -172,42 -208,106 -25,44 -37,100 -40,157l-50 0c-53,0 -124,11 -174,60 -31,30 -48,71 -48,112 0,40 15,80 48,111 36,35 90,54 145,54 66,0 117,-25 145,-69 39,42 97,69 182,69 86,0 144,-27 182,-69 28,44 79,69 145,69 55,0 109,-19 146,-54 32,-30 47,-69 47,-109 0,-43 -16,-83 -48,-114 -50,-49 -121,-60 -174,-60l-50 0c8,-53 27,-100 59,-136 44,-49 108,-74 171,-74 67,1 134,28 177,82 38,46 56,107 56,169 0,54 -15,109 -44,155 -24,40 -60,73 -105,93 -11,5 -19,13 -19,22 0,5 4,11 12,16 11,7 22,10 34,10zm-439 -337l-300 0c5,-110 46,-210 150,-210 106,0 144,102 150,210zm177 284c-21,0 -42,-13 -57,-28 -22,-23 -33,-58 -33,-91 0,-10 1,-19 3,-28 5,-27 8,-55 8,-83l50 0c22,0 59,3 89,32 23,22 35,56 35,87 0,31 -11,61 -35,84 -18,17 -40,27 -60,27zm-654 0c-20,0 -42,-10 -61,-27 -23,-23 -34,-53 -34,-84 0,-32 12,-64 36,-87 29,-29 67,-32 88,-32l50 0c1,28 3,56 8,83 2,9 2,18 2,28 0,33 -9,68 -32,91 -15,15 -35,28 -57,28zm327 0c-112,0 -147,-113 -150,-230l301 0c-4,117 -39,230 -151,230z"/>
 </g>
</svg>
