<?xml version="1.0" encoding="UTF-8"?>
<!DOCTYPE svg PUBLIC "-//W3C//DTD SVG 1.1//EN" "http://www.w3.org/Graphics/SVG/1.1/DTD/svg11.dtd">
<!-- Creator: CorelDRAW X8 -->
<svg xmlns="http://www.w3.org/2000/svg" xml:space="preserve" width="2223px" height="1024px" version="1.1" style="shape-rendering:geometricPrecision; text-rendering:geometricPrecision; image-rendering:optimizeQuality; fill-rule:evenodd; clip-rule:evenodd"
viewBox="0 0 2223 1024"
 xmlns:xlink="http://www.w3.org/1999/xlink">
 <defs>
  <style type="text/css">
   <![CDATA[
    .fil0 {fill:#CC9933;fill-rule:nonzero}
   ]]>
  </style>
 </defs>
 <g id="Layer_x0020_1">
  <metadata id="CorelCorpID_0Corel-Layer"/>
  <path class="fil0" d="M859 0c-142,0 -262,48 -333,176 -47,86 -61,187 -66,283l-105 0c-100,0 -203,26 -276,99 -50,50 -78,119 -79,190 -1,71 27,138 77,188 60,59 146,88 229,88 117,0 181,-42 243,-139 90,104 172,139 310,139 139,0 221,-36 310,-139 61,96 125,139 243,139 83,0 169,-29 229,-88 51,-50 78,-117 77,-188 0,-71 -28,-140 -78,-190 -73,-73 -176,-99 -277,-99l-107 0c17,-104 49,-197 126,-272 86,-85 225,-118 343,-117 94,0 202,27 272,94 49,47 72,107 71,175 -1,42 -18,82 -49,111 -24,24 -56,38 -90,44 -18,3 -36,2 -54,3 -19,2 -56,12 -54,37 2,22 36,31 55,33 16,1 34,-2 51,-1 38,3 75,15 105,39 39,32 61,78 65,127 5,59 -15,115 -52,160 -23,28 -54,49 -90,57 -32,8 -65,4 -95,-7 -25,-9 -65,-8 -86,11 -22,20 -2,41 20,48 67,24 139,30 209,13 60,-14 117,-45 156,-93 44,-54 69,-122 63,-192 -8,-98 -67,-159 -150,-203 71,-44 119,-99 121,-187 1,-120 -60,-206 -160,-267 -88,-54 -206,-72 -308,-72 -148,0 -304,42 -415,141 -33,30 -62,65 -86,105 -10,-23 -18,-43 -30,-66 -70,-131 -191,-180 -335,-180zm400 530l104 0c62,0 122,17 168,62 40,40 61,97 62,153 2,59 -19,115 -61,157 -32,31 -74,52 -120,52 -43,0 -85,-22 -114,-54 -51,-55 -66,-142 -53,-214 9,-52 13,-103 14,-156zm-786 154c13,73 -1,161 -52,216 -30,32 -71,54 -115,54 -45,0 -88,-21 -120,-52 -42,-42 -62,-98 -61,-157 1,-56 23,-113 63,-153 45,-45 105,-62 167,-62l104 0c2,52 5,103 14,154zm661 -154c-2,101 -13,211 -64,301 -46,81 -117,123 -211,123 -93,0 -164,-41 -210,-122 -51,-90 -62,-201 -65,-302l550 0zm-549 -71c4,-89 17,-183 61,-262 46,-84 117,-127 213,-127 96,0 167,43 213,126 44,80 57,174 62,263l-549 0z"/>
 </g>
</svg>
