<?xml version="1.0" encoding="UTF-8"?>
<!DOCTYPE svg PUBLIC "-//W3C//DTD SVG 1.1//EN" "http://www.w3.org/Graphics/SVG/1.1/DTD/svg11.dtd">
<!-- Creator: CorelDRAW X8 -->
<svg xmlns="http://www.w3.org/2000/svg" xml:space="preserve" width="2048px" height="1486px" version="1.1" style="shape-rendering:geometricPrecision; text-rendering:geometricPrecision; image-rendering:optimizeQuality; fill-rule:evenodd; clip-rule:evenodd"
viewBox="0 0 2048 1486"
 xmlns:xlink="http://www.w3.org/1999/xlink">
 <defs>
  <style type="text/css">
   <![CDATA[
    .fil0 {fill:#00A0E3;fill-rule:nonzero}
   ]]>
  </style>
 </defs>
 <g id="Layer_x0020_1">
  <metadata id="CorelCorpID_0Corel-Layer"/>
  <path class="fil0" d="M1196 0c-140,0 -257,47 -327,175 -47,85 -61,188 -65,284l-103 0c-99,0 -200,25 -272,98 -49,49 -76,122 -77,192 0,71 26,138 76,188 59,58 143,87 225,87 115,-1 178,-42 238,-138 88,103 169,138 305,138 137,0 253,-46 324,-171 53,-95 66,-216 69,-324l192 0c60,0 106,45 107,106 0,37 -20,79 -50,100 -35,24 -69,13 -106,14 -20,0 -61,10 -61,36 1,26 44,35 64,35 39,-1 69,-11 109,4 55,21 90,75 88,133 -5,163 -96,253 -234,331 -148,84 -367,122 -538,127 -287,10 -582,-46 -800,-249 -167,-155 -237,-356 -237,-584 0,-198 82,-412 249,-524 24,-16 17,-38 -7,-49 -25,-13 -62,-12 -86,4 -186,124 -278,349 -279,569 -1,258 88,480 285,647 243,207 564,264 873,256 159,-3 389,-37 574,-123 163,-76 316,-206 316,-398 0,-100 -55,-158 -149,-187 64,-27 106,-64 105,-141 0,-45 -13,-84 -44,-116 -45,-47 -117,-61 -179,-61l-193 0c-5,-96 -19,-199 -66,-285 -70,-127 -187,-174 -326,-174zm-380 683c13,74 2,161 -51,218 -29,32 -69,53 -112,53 -45,0 -87,-21 -118,-52 -41,-41 -61,-97 -60,-155 1,-56 22,-116 62,-156 44,-45 103,-62 164,-62l102 0c1,50 5,104 13,154zm650 -154c-3,100 -13,214 -63,303 -46,81 -115,122 -207,122 -92,0 -161,-41 -206,-121 -50,-89 -62,-204 -64,-304l540 0zm-540 -70c5,-88 17,-185 60,-263 46,-84 116,-126 210,-126 93,0 164,42 209,125 43,79 56,176 60,264l-539 0z"/>
 </g>
</svg>
