<?xml version="1.0" encoding="UTF-8"?>
<!DOCTYPE svg PUBLIC "-//W3C//DTD SVG 1.1//EN" "http://www.w3.org/Graphics/SVG/1.1/DTD/svg11.dtd">
<!-- Creator: CorelDRAW X8 -->
<svg xmlns="http://www.w3.org/2000/svg" xml:space="preserve" width="1341px" height="600px" version="1.1" style="shape-rendering:geometricPrecision; text-rendering:geometricPrecision; image-rendering:optimizeQuality; fill-rule:evenodd; clip-rule:evenodd"
viewBox="0 0 1341 600"
 xmlns:xlink="http://www.w3.org/1999/xlink">
 <defs>
  <style type="text/css">
   <![CDATA[
    .fil0 {fill:#00A0E3;fill-rule:nonzero}
   ]]>
  </style>
 </defs>
 <g id="Layer_x0020_1">
  <metadata id="CorelCorpID_0Corel-Layer"/>
  <path class="fil0" d="M521 0c-108,0 -173,42 -209,106 -25,44 -36,100 -39,157l-51 0c-53,0 -124,11 -174,60 -31,30 -48,71 -48,112 0,40 15,80 47,111 37,36 91,54 147,54 66,0 116,-25 145,-69 38,42 96,69 182,69 86,0 144,-27 182,-69 29,44 79,69 145,69 56,0 110,-18 147,-54 32,-31 47,-71 47,-111 0,-41 -17,-82 -48,-112 -50,-49 -121,-60 -174,-60l-51 0c11,-66 38,-113 72,-146 49,-46 126,-64 193,-64 55,0 113,16 151,51 25,23 41,55 40,97 0,23 -10,44 -27,60 -12,11 -27,19 -46,22 -10,2 -21,1 -31,2 -27,2 -46,16 -41,30 3,12 20,21 42,23 10,1 20,-1 31,0 21,1 39,8 53,19 22,17 34,43 37,70 2,29 -7,61 -30,88 -12,14 -29,25 -48,30 -12,2 -28,2 -45,-4 -20,-7 -51,-6 -67,8 -18,15 -2,31 15,37 47,16 94,17 135,8 42,-10 77,-31 99,-57 30,-35 42,-76 38,-113 -4,-51 -37,-93 -83,-116 39,-24 65,-61 66,-107 1,-74 -40,-123 -97,-158 -55,-32 -129,-43 -192,-43 -95,0 -194,23 -262,91 -11,11 -22,23 -31,37 -6,-14 -13,-27 -22,-39 -37,-54 -99,-89 -198,-89zm249 317l49 0c22,0 60,3 89,32 23,22 35,53 36,85 1,31 -10,63 -35,86 -18,18 -40,27 -60,27 -22,0 -43,-12 -57,-27 -29,-31 -38,-80 -30,-120 5,-27 7,-55 8,-83zm-490 82c8,41 0,90 -30,121 -14,15 -35,27 -57,27 -20,0 -42,-9 -60,-27 -25,-23 -36,-55 -35,-86 1,-32 13,-63 36,-85 29,-29 67,-32 89,-32l49 0c1,28 3,56 8,82zm392 -82c-2,60 -12,119 -38,164 -23,39 -58,66 -113,66 -54,0 -90,-27 -113,-66 -26,-44 -36,-103 -38,-164l302 0zm-301 -54c2,-52 13,-102 35,-142 23,-40 60,-68 115,-68 55,0 91,28 115,68 22,39 32,90 35,142l-300 0z"/>
 </g>
</svg>
