<?xml version="1.0" encoding="UTF-8"?>
<!DOCTYPE svg PUBLIC "-//W3C//DTD SVG 1.1//EN" "http://www.w3.org/Graphics/SVG/1.1/DTD/svg11.dtd">
<!-- Creator: CorelDRAW X8 -->
<svg xmlns="http://www.w3.org/2000/svg" xml:space="preserve" width="1250px" height="868px" version="1.1" style="shape-rendering:geometricPrecision; text-rendering:geometricPrecision; image-rendering:optimizeQuality; fill-rule:evenodd; clip-rule:evenodd"
viewBox="0 0 1250 868"
 xmlns:xlink="http://www.w3.org/1999/xlink">
 <defs>
  <style type="text/css">
   <![CDATA[
    .fil0 {fill:#B2B09C;fill-rule:nonzero}
   ]]>
  </style>
 </defs>
 <g id="Layer_x0020_1">
  <metadata id="CorelCorpID_0Corel-Layer"/>
  <path class="fil0" d="M732 0c108,0 172,42 209,105 25,44 36,101 39,158l44 0c54,0 103,8 145,38 59,42 83,113 81,182 -3,130 -99,238 -211,301 -98,54 -216,81 -329,84 -190,4 -387,-30 -537,-151 -114,-93 -174,-219 -173,-375 1,-129 57,-259 171,-332 18,-12 49,-13 69,-3 20,9 23,26 5,37 -99,64 -147,186 -147,298 0,135 46,247 141,332 129,114 301,146 471,140 90,-3 180,-24 259,-67 97,-54 179,-152 183,-264 2,-54 -14,-117 -61,-150 -16,-11 -39,-17 -67,-16l-43 0c-2,65 -13,130 -42,180 -36,62 -100,103 -207,103 -85,0 -143,-26 -181,-69 -29,44 -80,69 -146,69 -55,0 -109,-18 -146,-53 -32,-31 -47,-71 -47,-111 0,-41 17,-83 48,-113 50,-49 121,-60 174,-60l50 0c3,-57 14,-113 40,-158 36,-63 100,-105 208,-105zm-240 399c-5,-26 -7,-55 -8,-82l-50 0c-22,0 -59,3 -88,32 -23,21 -35,54 -36,85 -1,32 10,63 35,86 18,18 40,27 60,27 22,0 43,-12 57,-27 31,-32 37,-80 30,-121zm391 -82l-301 0c1,60 11,120 38,165 23,39 58,65 112,65 55,0 90,-26 114,-66 26,-44 35,-104 37,-164zm-301 -54l300 0c-3,-52 -13,-103 -35,-142 -23,-41 -59,-68 -115,-68 -55,0 -91,27 -115,68 -22,39 -32,90 -35,142z"/>
 </g>
</svg>
