<?xml version="1.0" encoding="UTF-8"?>
<!DOCTYPE svg PUBLIC "-//W3C//DTD SVG 1.1//EN" "http://www.w3.org/Graphics/SVG/1.1/DTD/svg11.dtd">
<!-- Creator: CorelDRAW X8 -->
<svg xmlns="http://www.w3.org/2000/svg" xml:space="preserve" width="3403px" height="1486px" version="1.1" style="shape-rendering:geometricPrecision; text-rendering:geometricPrecision; image-rendering:optimizeQuality; fill-rule:evenodd; clip-rule:evenodd"
viewBox="0 0 3403 1486"
 xmlns:xlink="http://www.w3.org/1999/xlink">
 <defs>
  <style type="text/css">
   <![CDATA[
    .fil0 {fill:#CC9933;fill-rule:nonzero}
   ]]>
  </style>
 </defs>
 <g id="Layer_x0020_1">
  <metadata id="CorelCorpID_0Corel-Layer"/>
  <path class="fil0" d="M1736 1416c-180,0 -399,-3 -614,-27 -216,-25 -427,-73 -589,-164 -259,-144 -408,-365 -409,-665 0,-193 83,-393 247,-501 24,-16 16,-38 -7,-50 -25,-11 -65,-11 -88,5 -181,120 -277,331 -276,546 1,326 166,559 445,715 176,98 397,150 625,178 229,29 464,32 665,33 216,1 436,-5 651,-31 255,-31 536,-108 739,-273 191,-155 279,-363 278,-608 0,-105 -24,-208 -73,-302 -90,-173 -270,-272 -463,-272 -82,0 -153,13 -230,41 -76,-28 -148,-41 -229,-41 -192,0 -373,101 -462,272 -40,76 -56,149 -67,233 -71,-35 -113,-46 -193,-46l-61 0c-5,-96 -19,-199 -67,-285 -70,-127 -189,-174 -330,-174 -141,0 -260,47 -331,175 -47,85 -61,188 -66,284l-104 0c-99,0 -202,25 -274,98 -50,50 -78,122 -78,193 -1,70 26,137 76,187 60,59 145,87 228,87 116,0 180,-41 241,-138 90,103 171,138 308,138 139,0 257,-46 328,-171 54,-95 67,-217 70,-324l60 0c54,0 99,16 134,46 35,31 59,82 69,130 25,118 86,233 191,297 34,20 74,32 109,10 24,-14 21,-36 -3,-49 -136,-71 -185,-252 -185,-396 0,-94 20,-191 64,-275 65,-126 198,-223 343,-222 48,0 87,8 134,19 -120,86 -194,190 -233,334 -15,56 -22,114 -22,172 0,85 17,183 58,258 61,113 165,171 292,171 127,0 232,-58 294,-171 41,-76 58,-173 58,-258 0,-58 -7,-116 -22,-172 -38,-144 -113,-249 -234,-334 47,-12 85,-19 134,-19 146,-1 278,94 344,222 46,88 68,182 68,282 0,222 -73,416 -245,561 -184,155 -440,224 -674,252 -206,25 -417,30 -624,29zm-892 -733c13,74 1,161 -52,218 -29,32 -70,53 -113,53 -45,1 -88,-20 -120,-52 -41,-41 -61,-97 -60,-155 1,-56 22,-116 62,-156 45,-45 105,-62 167,-62l103 0c1,51 4,104 13,154zm658 -154c-3,100 -14,215 -64,303 -46,81 -117,122 -210,122 -92,0 -163,-41 -209,-121 -50,-88 -61,-204 -64,-304l547 0zm-547 -70c5,-88 18,-185 61,-263 46,-83 117,-126 212,-126 95,0 166,42 212,125 43,79 56,176 61,264l-546 0zm1682 -325c109,76 173,171 207,299 14,53 21,107 21,162 0,78 -15,168 -52,237 -37,68 -96,122 -176,122 -81,0 -137,-54 -174,-121 -37,-69 -52,-160 -52,-238 0,-55 7,-109 21,-162 35,-128 97,-222 205,-299z"/>
 </g>
</svg>
