<?xml version="1.0" encoding="UTF-8"?>
<!DOCTYPE svg PUBLIC "-//W3C//DTD SVG 1.1//EN" "http://www.w3.org/Graphics/SVG/1.1/DTD/svg11.dtd">
<!-- Creator: CorelDRAW X8 -->
<svg xmlns="http://www.w3.org/2000/svg" xml:space="preserve" width="2035px" height="1486px" version="1.1" style="shape-rendering:geometricPrecision; text-rendering:geometricPrecision; image-rendering:optimizeQuality; fill-rule:evenodd; clip-rule:evenodd"
viewBox="0 0 2035 1486"
 xmlns:xlink="http://www.w3.org/1999/xlink">
 <defs>
  <style type="text/css">
   <![CDATA[
    .fil0 {fill:#CC9933;fill-rule:nonzero}
   ]]>
  </style>
 </defs>
 <g id="Layer_x0020_1">
  <metadata id="CorelCorpID_0Corel-Layer"/>
  <path class="fil0" d="M1196 0c-140,0 -257,47 -327,175 -47,85 -61,188 -65,284l-103 0c-99,0 -200,25 -272,98 -49,49 -76,122 -77,192 -1,71 26,138 76,188 59,58 143,87 225,87 115,-1 178,-42 238,-138 88,102 169,138 305,138 137,0 253,-46 323,-171 54,-95 67,-217 70,-324l92 0c42,0 91,7 126,32 77,58 106,162 105,255 0,203 -142,381 -309,478 -135,79 -289,116 -443,121 -287,10 -582,-46 -800,-249 -167,-155 -237,-356 -237,-584 0,-198 82,-412 249,-524 11,-7 15,-15 15,-23 0,-10 -9,-20 -22,-26 -11,-6 -25,-9 -40,-9 -17,0 -34,4 -46,13 -186,124 -278,349 -279,569 -1,258 88,480 285,647 243,207 563,264 873,256 182,-4 374,-49 532,-142 186,-108 345,-301 345,-527 0,-113 -38,-227 -130,-297 -67,-49 -144,-60 -224,-60l-93 0c-5,-96 -19,-200 -66,-285 -70,-127 -187,-174 -326,-174zm-380 683c13,74 2,161 -51,218 -29,32 -69,53 -113,53 -44,0 -86,-21 -117,-52 -42,-41 -61,-97 -60,-155 1,-56 22,-117 61,-156 45,-45 104,-62 165,-62l102 0c1,50 5,104 13,154zm650 -154c-3,100 -14,215 -63,303 -46,81 -115,122 -207,122 -92,0 -161,-41 -207,-121 -50,-89 -61,-204 -64,-304l541 0zm-540 -70c5,-88 17,-185 60,-263 45,-83 116,-126 210,-126 93,0 164,42 209,125 43,79 56,175 60,264l-539 0z"/>
 </g>
</svg>
