<?xml version="1.0" encoding="UTF-8"?>
<!DOCTYPE svg PUBLIC "-//W3C//DTD SVG 1.1//EN" "http://www.w3.org/Graphics/SVG/1.1/DTD/svg11.dtd">
<!-- Creator: CorelDRAW X8 -->
<svg xmlns="http://www.w3.org/2000/svg" xml:space="preserve" width="1341px" height="868px" version="1.1" style="shape-rendering:geometricPrecision; text-rendering:geometricPrecision; image-rendering:optimizeQuality; fill-rule:evenodd; clip-rule:evenodd"
viewBox="0 0 1341 868"
 xmlns:xlink="http://www.w3.org/1999/xlink">
 <defs>
  <style type="text/css">
   <![CDATA[
    .fil0 {fill:#2B2A29;fill-rule:nonzero}
   ]]>
  </style>
 </defs>
 <g id="Layer_x0020_1">
  <metadata id="CorelCorpID_0Corel-Layer"/>
  <path class="fil0" d="M1263 868c27,0 49,-18 49,-40 0,-23 -22,-41 -49,-41l-1085 0c-38,0 -78,-4 -78,-50 0,-33 26,-48 78,-48l888 0c86,0 170,-17 227,-84 33,-40 48,-94 48,-145 0,-62 -26,-124 -85,-153 41,-25 66,-62 66,-110 0,-71 -41,-120 -97,-154 -55,-33 -130,-43 -194,-43 -91,0 -185,22 -253,85 -14,12 -27,27 -38,43 -6,-14 -13,-27 -22,-40 -38,-53 -99,-88 -198,-88 -108,0 -172,42 -208,106 -26,44 -36,99 -39,156l-51 0c-53,0 -124,11 -174,60 -32,30 -48,71 -48,114 0,39 15,78 47,108 37,36 91,54 147,54 65,0 116,-25 145,-69 38,42 96,69 181,69 86,0 144,-27 182,-69 29,44 80,69 146,69 55,0 109,-19 146,-54 32,-31 47,-71 47,-111 0,-42 -17,-81 -48,-111 -50,-49 -121,-60 -174,-60l-50 0c11,-66 38,-112 72,-145 48,-46 115,-64 180,-64 57,0 121,11 163,52 24,24 40,52 40,93 0,24 -9,45 -27,62 -12,11 -27,19 -47,23 -9,1 -20,1 -30,1 -18,2 -41,7 -41,27 0,18 28,26 42,26 10,0 20,0 29,0 19,1 37,4 55,19 28,25 40,66 41,107 0,34 -9,68 -26,94 -38,59 -86,79 -154,79l-888 0c-82,0 -178,18 -178,116 0,96 97,116 178,116l1085 0zm-593 -606l-300 0c6,-103 41,-209 150,-209 108,0 146,106 150,209zm178 283c-22,0 -42,-12 -57,-27 -22,-24 -33,-58 -33,-92 0,-9 1,-18 3,-27 5,-27 8,-55 8,-84l50 0c22,0 59,4 88,33 24,22 36,55 36,87 0,30 -11,60 -34,83 -19,18 -41,27 -61,27zm-655 0c-20,0 -42,-10 -60,-27 -24,-23 -35,-53 -35,-83 0,-31 12,-66 35,-87 30,-29 67,-33 89,-33l50 0c1,28 3,57 8,83 2,9 3,19 3,29 0,33 -10,67 -33,91 -14,15 -35,27 -57,27zm327 -1c-112,0 -147,-111 -150,-229l301 0c-2,110 -35,229 -151,229z"/>
 </g>
</svg>
