<?xml version="1.0" encoding="UTF-8"?>
<!DOCTYPE svg PUBLIC "-//W3C//DTD SVG 1.1//EN" "http://www.w3.org/Graphics/SVG/1.1/DTD/svg11.dtd">
<!-- Creator: CorelDRAW X8 -->
<svg xmlns="http://www.w3.org/2000/svg" xml:space="preserve" width="1340px" height="868px" version="1.1" style="shape-rendering:geometricPrecision; text-rendering:geometricPrecision; image-rendering:optimizeQuality; fill-rule:evenodd; clip-rule:evenodd"
viewBox="0 0 1340 868"
 xmlns:xlink="http://www.w3.org/1999/xlink">
 <defs>
  <style type="text/css">
   <![CDATA[
    .fil0 {fill:#00A0E3;fill-rule:nonzero}
   ]]>
  </style>
 </defs>
 <g id="Layer_x0020_1">
  <metadata id="CorelCorpID_0Corel-Layer"/>
  <path class="fil0" d="M520 0c-108,0 -172,42 -208,106 -26,44 -37,100 -40,157l-50 0c-53,0 -124,11 -174,60 -31,30 -48,71 -48,112 0,40 15,81 47,112 37,35 91,53 146,53 66,0 117,-25 145,-69 39,42 97,69 182,69 86,0 144,-27 182,-69 29,44 79,69 145,69 55,0 109,-18 146,-53 33,-31 48,-72 47,-112 0,-41 -17,-83 -48,-113 -50,-49 -120,-59 -174,-59l-50 0c12,-66 38,-114 73,-146 50,-49 120,-66 190,-64 56,1 115,15 152,52 25,25 41,53 40,95 0,23 -9,45 -27,61 -12,10 -27,18 -46,21 -9,2 -21,1 -31,2 -27,2 -45,16 -41,31 3,12 21,21 42,22 10,1 21,-1 31,0 21,1 40,8 53,19 28,25 40,66 41,106 0,35 -9,70 -25,95 -38,59 -87,77 -155,77l-886 0c-122,0 -177,42 -179,114 -2,99 96,120 179,120l1095 0c27,0 49,-18 49,-40 0,-23 -22,-41 -49,-41l-1095 0c-52,0 -79,-13 -80,-49 -1,-35 26,-51 80,-51l886 0c86,0 170,-14 227,-83 31,-37 48,-90 48,-142 0,-63 -26,-125 -85,-155 39,-23 65,-61 66,-106 1,-74 -40,-124 -97,-158 -55,-32 -130,-43 -193,-43 -92,0 -186,22 -254,85 -14,12 -26,27 -37,43 -6,-14 -14,-28 -22,-40 -38,-53 -100,-88 -198,-88zm249 317l49 -1c22,0 59,3 89,32 22,21 35,55 35,86 1,32 -10,63 -34,86 -18,18 -41,27 -61,27 -21,0 -42,-12 -57,-27 -29,-30 -37,-79 -30,-119 5,-27 8,-56 9,-84zm-489 83c7,40 -1,89 -30,120 -14,15 -35,27 -57,27 -20,0 -42,-9 -61,-27 -24,-23 -35,-54 -34,-86 1,-31 13,-65 36,-86 29,-29 66,-32 88,-32l50 1c1,27 3,56 8,83zm391 -83c-2,60 -12,120 -38,164 -23,40 -58,66 -113,66 -54,0 -89,-26 -113,-65 -26,-45 -36,-105 -37,-165l301 0zm-301 -54c3,-52 13,-103 35,-142 24,-40 60,-68 115,-68 55,0 92,27 115,68 22,39 32,90 35,142l-300 0z"/>
 </g>
</svg>
