<?xml version="1.0" encoding="UTF-8"?>
<!DOCTYPE svg PUBLIC "-//W3C//DTD SVG 1.1//EN" "http://www.w3.org/Graphics/SVG/1.1/DTD/svg11.dtd">
<!-- Creator: CorelDRAW X8 -->
<svg xmlns="http://www.w3.org/2000/svg" xml:space="preserve" width="2168px" height="1024px" version="1.1" style="shape-rendering:geometricPrecision; text-rendering:geometricPrecision; image-rendering:optimizeQuality; fill-rule:evenodd; clip-rule:evenodd"
viewBox="0 0 2168 1024"
 xmlns:xlink="http://www.w3.org/1999/xlink">
 <defs>
  <style type="text/css">
   <![CDATA[
    .fil0 {fill:#2B2A29;fill-rule:nonzero}
   ]]>
  </style>
 </defs>
 <g id="Layer_x0020_1">
  <metadata id="CorelCorpID_0Corel-Layer"/>
  <path class="fil0" d="M1824 1024c24,0 49,-10 70,-22 67,-37 125,-88 171,-150 67,-92 103,-218 103,-333 0,-141 -51,-267 -138,-359 -94,-99 -230,-160 -392,-160 -144,0 -275,50 -371,149 -24,26 -47,55 -67,87 -14,-33 -23,-53 -42,-83 -72,-113 -186,-153 -314,-153 -140,0 -256,48 -327,177 -46,85 -61,186 -65,282l-103 0c-99,0 -200,26 -272,99 -50,51 -77,120 -77,191 0,70 27,138 76,187 59,59 143,88 225,88 115,0 194,-42 238,-139 89,104 169,139 305,139 136,0 216,-36 304,-139 44,96 124,139 239,139 82,0 166,-29 225,-88 49,-49 76,-117 76,-187 0,-73 -26,-139 -77,-191 -72,-73 -173,-99 -271,-99l-106 0c14,-94 41,-181 103,-254 75,-88 185,-134 301,-134 144,0 243,57 312,148 62,80 95,186 95,300 0,95 -23,193 -72,275 -45,73 -108,130 -184,167 -14,6 -22,17 -22,28 0,8 3,15 14,22 13,9 28,13 43,13zm-710 -565l-540 0c5,-89 18,-183 60,-262 46,-83 116,-127 210,-127 94,0 165,43 210,126 43,80 56,174 60,263zm274 495c-43,0 -84,-22 -114,-54 -38,-42 -56,-103 -56,-162 0,-18 3,-35 6,-52 9,-52 12,-104 14,-156l101 0c62,0 121,17 165,62 39,40 62,101 62,157 0,58 -20,112 -60,152 -32,32 -74,54 -118,53zm-1088 0c-44,1 -85,-22 -117,-53 -40,-41 -60,-94 -60,-152 0,-57 21,-116 61,-157 45,-45 104,-62 165,-62l102 0c1,52 5,103 14,154 3,16 4,33 4,50 0,60 -17,123 -56,166 -29,32 -70,54 -113,54zm544 -1c-92,0 -161,-41 -207,-122 -50,-89 -61,-200 -64,-301l541 0c-2,100 -13,212 -62,301 -46,81 -116,122 -208,122z"/>
 </g>
</svg>
