<?xml version="1.0" encoding="UTF-8"?>
<!DOCTYPE svg PUBLIC "-//W3C//DTD SVG 1.1//EN" "http://www.w3.org/Graphics/SVG/1.1/DTD/svg11.dtd">
<!-- Creator: CorelDRAW X8 -->
<svg xmlns="http://www.w3.org/2000/svg" xml:space="preserve" width="2184px" height="1486px" version="1.1" style="shape-rendering:geometricPrecision; text-rendering:geometricPrecision; image-rendering:optimizeQuality; fill-rule:evenodd; clip-rule:evenodd"
viewBox="0 0 2184 1486"
 xmlns:xlink="http://www.w3.org/1999/xlink">
 <defs>
  <style type="text/css">
   <![CDATA[
    .fil0 {fill:#E31E24;fill-rule:nonzero}
   ]]>
  </style>
 </defs>
 <g id="Layer_x0020_1">
  <metadata id="CorelCorpID_0Corel-Layer"/>
  <path class="fil0" d="M2035 526c74,-47 118,-104 118,-194 0,-124 -64,-207 -155,-259 -92,-52 -203,-73 -316,-73 -157,0 -287,36 -387,127 -36,32 -67,71 -93,119 -10,-23 -17,-43 -29,-66 -69,-131 -188,-180 -329,-180 -140,0 -257,48 -327,176 -47,86 -61,187 -65,283l-103 0c-99,0 -200,26 -272,99 -51,51 -77,122 -77,194 0,69 27,135 76,184 59,59 143,88 225,88 115,0 194,-42 238,-139 88,104 169,139 305,139 136,0 216,-36 304,-139 44,96 123,139 238,139 82,0 167,-29 225,-88 49,-49 76,-115 76,-184 0,-73 -25,-141 -77,-194 -71,-73 -173,-99 -271,-99l-99 0c16,-104 42,-197 117,-272 86,-86 207,-117 325,-117 96,0 182,19 250,67 60,42 100,105 99,195 0,42 -17,88 -48,118 -24,23 -55,38 -88,44 -18,3 -36,1 -54,3 -18,1 -52,11 -52,35 0,24 34,35 53,35l51 -1c37,-1 73,15 102,39 55,46 70,124 70,193 0,56 -13,116 -42,163 -66,107 -154,139 -275,139l-1472 0c-130,0 -276,32 -276,192 0,159 147,194 276,194l1799 0c31,0 61,-26 61,-59 0,-33 -30,-59 -61,-59l-1799 0c-70,0 -151,-13 -151,-101 0,-82 87,-98 151,-98l1472 0c137,0 267,-22 358,-135 53,-65 78,-153 78,-236 0,-125 -54,-227 -149,-272zm-922 -67l-539 0c5,-89 17,-183 60,-262 45,-84 116,-127 210,-127 93,0 164,43 209,126 43,80 56,174 60,263zm274 495c-43,0 -84,-22 -113,-54 -38,-42 -56,-103 -56,-162 0,-18 2,-35 5,-52 9,-52 12,-103 14,-156l101 0c62,0 121,17 165,62 39,40 62,101 62,157 0,58 -19,112 -60,153 -31,31 -74,52 -118,52zm-1087 0c-44,0 -86,-21 -117,-52 -41,-41 -60,-95 -60,-153 0,-57 20,-116 61,-157 45,-45 104,-62 165,-62l102 0c1,52 5,103 14,154 3,16 4,33 4,50 0,60 -17,123 -56,166 -29,32 -70,54 -113,54zm544 0c-92,0 -162,-41 -207,-122 -51,-90 -61,-201 -64,-302l541 0c-3,101 -13,211 -63,301 -46,81 -115,123 -207,123z"/>
 </g>
</svg>
