<?xml version="1.0" encoding="UTF-8"?>
<!DOCTYPE svg PUBLIC "-//W3C//DTD SVG 1.1//EN" "http://www.w3.org/Graphics/SVG/1.1/DTD/svg11.dtd">
<!-- Creator: CorelDRAW X8 -->
<svg xmlns="http://www.w3.org/2000/svg" xml:space="preserve" width="1050px" height="600px" version="1.1" style="shape-rendering:geometricPrecision; text-rendering:geometricPrecision; image-rendering:optimizeQuality; fill-rule:evenodd; clip-rule:evenodd"
viewBox="0 0 1050 600"
 xmlns:xlink="http://www.w3.org/1999/xlink">
 <defs>
  <style type="text/css">
   <![CDATA[
    .fil0 {fill:#00A0E3;fill-rule:nonzero}
   ]]>
  </style>
 </defs>
 <g id="Layer_x0020_1">
  <metadata id="CorelCorpID_0Corel-Layer"/>
  <path class="fil0" d="M525 0c108,0 173,42 209,105 26,45 37,101 40,158l115 0c64,0 144,20 145,94 1,34 -22,54 -43,65 27,9 59,32 59,70 1,81 -98,109 -166,108 -20,0 -42,-3 -62,-8 -24,-7 -88,-33 -41,-56 20,-10 51,-9 70,2 10,6 22,8 33,8 36,2 70,-16 70,-54 0,-19 -12,-32 -26,-38 -16,-7 -41,-2 -60,-1 -27,1 -50,-11 -51,-25 -1,-22 35,-30 49,-29 21,1 42,2 55,-7 10,-7 16,-18 15,-35 -1,-21 -17,-40 -46,-40l-115 0c-2,65 -13,130 -42,180 -37,62 -101,103 -208,103 -87,0 -145,-27 -184,-69 -29,44 -80,69 -146,69 -56,0 -110,-18 -147,-54 -33,-31 -48,-71 -48,-111 0,-41 17,-82 48,-112 51,-49 122,-60 176,-60l51 0c3,-57 14,-113 39,-157 37,-64 102,-106 211,-106zm-243 397c-5,-26 -7,-53 -8,-80l-50 0c-22,0 -59,3 -89,32 -23,22 -36,53 -36,85 -1,31 10,63 35,86 18,17 40,27 61,27 22,0 43,-12 57,-27 31,-33 37,-81 30,-123zm394 -80l-303 0c1,61 11,120 38,164 23,39 59,65 114,65 54,0 90,-26 114,-65 26,-45 36,-104 37,-164zm-303 -54l303 0c-3,-52 -13,-103 -36,-142 -23,-40 -60,-68 -115,-68 -56,0 -93,28 -116,68 -23,40 -33,90 -36,142z"/>
 </g>
</svg>
