<?xml version="1.0" encoding="UTF-8"?>
<!DOCTYPE svg PUBLIC "-//W3C//DTD SVG 1.1//EN" "http://www.w3.org/Graphics/SVG/1.1/DTD/svg11.dtd">
<!-- Creator: CorelDRAW X8 -->
<svg xmlns="http://www.w3.org/2000/svg" xml:space="preserve" width="1329px" height="600px" version="1.1" style="shape-rendering:geometricPrecision; text-rendering:geometricPrecision; image-rendering:optimizeQuality; fill-rule:evenodd; clip-rule:evenodd"
viewBox="0 0 1329 600"
 xmlns:xlink="http://www.w3.org/1999/xlink">
 <defs>
  <style type="text/css">
   <![CDATA[
    .fil0 {fill:#00A0E3;fill-rule:nonzero}
   ]]>
  </style>
 </defs>
 <g id="Layer_x0020_1">
  <metadata id="CorelCorpID_0Corel-Layer"/>
  <path class="fil0" d="M520 0c-108,0 -172,42 -208,106 -26,44 -37,100 -40,157l-50 0c-53,0 -124,11 -174,60 -31,30 -48,71 -48,112 0,40 15,80 47,111 37,35 91,54 146,54 66,0 117,-25 145,-69 39,42 97,69 182,69 86,0 144,-27 182,-69 29,44 79,69 145,69 55,0 109,-19 146,-54 32,-31 47,-71 47,-111 0,-41 -17,-82 -48,-112 -50,-49 -121,-60 -174,-60l-50 0c7,-52 27,-100 59,-136 44,-49 108,-74 172,-73 66,0 133,27 177,81 38,47 56,111 55,175 -1,53 -16,105 -43,149 -25,40 -61,73 -107,93 -19,9 -25,25 -6,38 26,18 60,9 85,-4 42,-23 78,-53 106,-89 40,-52 63,-117 63,-185 0,-83 -34,-159 -89,-214 -59,-61 -145,-98 -242,-98 -102,0 -204,38 -260,125 -40,-90 -120,-125 -218,-125zm248 317l50 0c22,0 59,3 89,32 22,22 34,53 35,85 1,31 -10,63 -34,86 -19,17 -41,27 -61,27 -22,-1 -42,-12 -57,-28 -29,-30 -37,-79 -30,-119 5,-27 8,-55 8,-83zm-488 82c6,33 2,71 -15,100 -14,25 -42,47 -72,48 -20,0 -42,-10 -61,-27 -24,-23 -35,-55 -34,-86 1,-32 13,-63 35,-85 30,-29 67,-32 89,-32l50 0c0,28 3,56 8,82zm391 -82c-2,60 -12,119 -38,164 -23,39 -58,65 -113,65 -54,0 -90,-26 -113,-65 -26,-44 -36,-103 -38,-164l302 0zm-301 -54c3,-52 13,-102 35,-142 23,-40 60,-67 115,-67 55,0 91,27 115,67 22,39 32,90 35,142l-300 0z"/>
 </g>
</svg>
