<?xml version="1.0" encoding="UTF-8"?>
<!DOCTYPE svg PUBLIC "-//W3C//DTD SVG 1.1//EN" "http://www.w3.org/Graphics/SVG/1.1/DTD/svg11.dtd">
<!-- Creator: CorelDRAW X8 -->
<svg xmlns="http://www.w3.org/2000/svg" xml:space="preserve" width="2546px" height="1486px" version="1.1" style="shape-rendering:geometricPrecision; text-rendering:geometricPrecision; image-rendering:optimizeQuality; fill-rule:evenodd; clip-rule:evenodd"
viewBox="0 0 2546 1486"
 xmlns:xlink="http://www.w3.org/1999/xlink">
 <defs>
  <style type="text/css">
   <![CDATA[
    .fil0 {fill:#00A0E3;fill-rule:nonzero}
   ]]>
  </style>
 </defs>
 <g id="Layer_x0020_1">
  <metadata id="CorelCorpID_0Corel-Layer"/>
  <path class="fil0" d="M2322 239c70,97 101,217 101,336 2,267 -146,495 -362,639 -220,146 -520,203 -780,202 -254,0 -539,-41 -765,-169 -257,-145 -393,-389 -393,-687 -1,-192 71,-392 234,-502 25,-17 15,-37 -9,-49 -23,-11 -58,-14 -85,4 -180,121 -264,333 -263,547 1,323 152,580 430,737 251,142 567,189 851,189 292,0 626,-63 873,-227 233,-155 394,-395 392,-684 -1,-129 -35,-259 -111,-363 -110,-150 -280,-213 -460,-212 -192,1 -311,80 -414,239 -75,-167 -170,-239 -357,-239 -140,0 -257,48 -327,176 -47,85 -61,188 -65,284l-103 0c-99,0 -200,21 -272,94 -49,49 -76,125 -77,195 0,71 26,138 76,187 59,59 143,88 225,88 116,-1 179,-43 238,-138 89,103 170,137 305,137 135,0 216,-34 305,-137 60,96 123,137 238,138 81,0 166,-29 225,-88 49,-49 76,-116 76,-187 -1,-70 -29,-146 -78,-195 -71,-73 -173,-94 -271,-94l-103 0c12,-100 43,-191 112,-266 69,-75 164,-124 266,-124 141,-1 263,54 348,169zm-725 291l102 0c61,0 120,13 164,58 40,40 61,103 62,159 1,58 -19,114 -60,155 -31,31 -73,52 -118,52 -43,0 -83,-22 -112,-53 -50,-55 -65,-142 -52,-213 9,-51 12,-106 14,-158zm-772 156c12,72 -1,160 -52,215 -29,31 -69,53 -112,53 -45,0 -87,-21 -118,-52 -41,-41 -61,-97 -60,-155 1,-56 22,-119 62,-159 44,-45 103,-58 164,-58l102 0c2,52 5,106 14,156zm649 -156c-2,100 -13,214 -63,302 -46,81 -115,122 -207,122 -92,0 -161,-41 -206,-121 -50,-89 -62,-203 -64,-303l540 0zm-540 -70c5,-88 17,-186 60,-264 46,-83 116,-126 210,-126 94,0 164,43 209,125 43,79 56,177 60,265l-539 0z"/>
 </g>
</svg>
