<?xml version="1.0" encoding="UTF-8"?>
<!DOCTYPE svg PUBLIC "-//W3C//DTD SVG 1.1//EN" "http://www.w3.org/Graphics/SVG/1.1/DTD/svg11.dtd">
<!-- Creator: CorelDRAW X8 -->
<svg xmlns="http://www.w3.org/2000/svg" xml:space="preserve" width="2678px" height="1024px" version="1.1" style="shape-rendering:geometricPrecision; text-rendering:geometricPrecision; image-rendering:optimizeQuality; fill-rule:evenodd; clip-rule:evenodd"
viewBox="0 0 2678 1024"
 xmlns:xlink="http://www.w3.org/1999/xlink">
 <defs>
  <style type="text/css">
   <![CDATA[
    .fil0 {fill:#B2B09C;fill-rule:nonzero}
   ]]>
  </style>
 </defs>
 <g id="Layer_x0020_1">
  <metadata id="CorelCorpID_0Corel-Layer"/>
  <path class="fil0" d="M844 0c-140,0 -258,48 -327,177 -47,85 -61,186 -66,282l-102 0c-99,0 -200,26 -272,99 -49,50 -76,119 -77,190 -1,71 26,138 76,188 59,59 143,88 225,88 115,0 178,-43 238,-139 88,104 169,139 305,139 137,0 253,-46 323,-172 53,-96 67,-214 69,-322l28 -1c22,0 40,0 61,0 73,1 150,23 197,84 23,31 37,68 41,107 4,44 -4,89 -26,128 -33,60 -85,82 -150,81 -20,0 -62,8 -63,34 -1,26 40,36 60,36l1233 0c19,0 61,-9 61,-35l0 -929c0,-26 -43,-35 -62,-35 -20,0 -61,9 -61,35 0,99 -38,204 -87,289 -63,110 -126,173 -236,228l1 -276c0,-154 -122,-231 -256,-230 -145,1 -267,96 -267,250 0,90 45,173 111,232 85,76 178,98 288,102l0 299 -501 0c56,-62 86,-125 78,-213 -8,-77 -43,-140 -105,-184 -72,-52 -169,-73 -255,-73 -22,0 -41,0 -63,0l-28 0c-4,-96 -18,-198 -65,-283 -70,-129 -187,-176 -326,-176zm1388 625c142,-49 258,-170 323,-304l0 608 -323 0 0 -304zm-122 -349l-1 284c-83,-5 -148,-27 -207,-92 -42,-47 -69,-108 -69,-172 0,-82 55,-180 145,-180 85,-1 132,79 132,160zm-1646 404c12,75 1,163 -51,220 -29,32 -70,54 -113,54 -44,0 -86,-21 -117,-52 -42,-42 -61,-98 -60,-157 1,-56 22,-113 61,-153 45,-45 103,-62 165,-62l102 0c1,51 4,100 13,150zm650 -150c-3,101 -14,212 -64,301 -45,81 -114,123 -206,123 -92,0 -161,-41 -207,-122 -50,-89 -61,-201 -64,-302l541 0zm-540 -70c4,-90 17,-184 60,-263 45,-83 116,-126 210,-126 93,0 163,42 209,126 43,79 55,173 60,263l-539 0z"/>
 </g>
</svg>
