<?xml version="1.0" encoding="UTF-8"?>
<!DOCTYPE svg PUBLIC "-//W3C//DTD SVG 1.1//EN" "http://www.w3.org/Graphics/SVG/1.1/DTD/svg11.dtd">
<!-- Creator: CorelDRAW X8 -->
<svg xmlns="http://www.w3.org/2000/svg" xml:space="preserve" width="2224px" height="1486px" version="1.1" style="shape-rendering:geometricPrecision; text-rendering:geometricPrecision; image-rendering:optimizeQuality; fill-rule:evenodd; clip-rule:evenodd"
viewBox="0 0 2224 1486"
 xmlns:xlink="http://www.w3.org/1999/xlink">
 <defs>
  <style type="text/css">
   <![CDATA[
    .fil0 {fill:#CC9933;fill-rule:nonzero}
   ]]>
  </style>
 </defs>
 <g id="Layer_x0020_1">
  <metadata id="CorelCorpID_0Corel-Layer"/>
  <path class="fil0" d="M859 0c-142,0 -262,47 -333,175 -47,86 -62,188 -66,284l-105 0c-100,0 -204,25 -276,97 -50,50 -78,123 -79,193 -1,71 27,138 77,187 60,59 146,88 229,87 118,0 182,-42 243,-137 43,49 75,81 138,107 48,20 104,30 172,30 68,0 124,-10 171,-30 64,-26 96,-58 139,-107 61,96 126,137 242,137 84,1 169,-28 229,-87 51,-49 78,-116 78,-187 -1,-70 -29,-143 -79,-193 -73,-72 -176,-97 -276,-97l-104 0c18,-108 44,-195 124,-273 90,-88 216,-120 339,-116 95,2 206,25 274,95 48,50 72,102 71,172 -1,42 -17,81 -48,111 -25,23 -57,37 -90,42 -19,4 -37,2 -55,4 -18,2 -55,12 -53,36 2,23 35,32 54,33 17,2 34,-1 52,0 37,2 76,13 105,39 51,47 70,123 71,190 1,58 -12,120 -43,169 -67,107 -156,139 -280,139l-1499 0c-127,0 -278,29 -281,187 -3,164 149,199 281,199l1852 0c32,0 62,-26 62,-59 0,-33 -30,-59 -62,-59l-1852 0c-68,0 -152,-12 -154,-98 -2,-85 87,-101 154,-101l1499 0c140,0 272,-22 364,-135 54,-65 79,-158 80,-241 1,-121 -44,-214 -152,-270 70,-44 118,-99 120,-186 1,-119 -60,-205 -159,-265 -89,-55 -209,-72 -312,-72 -166,0 -332,45 -443,176 -20,23 -36,48 -53,73 -10,-24 -19,-48 -32,-71 -70,-129 -191,-178 -334,-178zm400 529l103 0c63,0 123,17 168,62 40,39 61,100 63,156 1,58 -19,114 -61,155 -32,31 -75,52 -120,52 -44,0 -85,-22 -115,-53 -51,-55 -65,-142 -52,-213 9,-52 12,-107 14,-159zm-786 157c13,72 -1,160 -53,215 -29,31 -70,53 -114,53 -45,0 -88,-21 -120,-52 -42,-41 -62,-97 -61,-155 1,-56 23,-117 63,-156 45,-45 105,-62 167,-62l104 0c1,51 5,106 14,157zm661 -157c-3,100 -14,214 -64,303 -47,81 -117,121 -211,121 -93,0 -164,-40 -210,-121 -51,-88 -62,-203 -65,-303l550 0zm-550 -70c5,-89 18,-185 61,-263 47,-83 118,-126 214,-126 95,0 167,42 213,125 44,79 57,175 61,264l-549 0z"/>
 </g>
</svg>
