<?xml version="1.0" encoding="UTF-8"?>
<!DOCTYPE svg PUBLIC "-//W3C//DTD SVG 1.1//EN" "http://www.w3.org/Graphics/SVG/1.1/DTD/svg11.dtd">
<!-- Creator: CorelDRAW X8 -->
<svg xmlns="http://www.w3.org/2000/svg" xml:space="preserve" width="2184px" height="1486px" version="1.1" style="shape-rendering:geometricPrecision; text-rendering:geometricPrecision; image-rendering:optimizeQuality; fill-rule:evenodd; clip-rule:evenodd"
viewBox="0 0 2184 1486"
 xmlns:xlink="http://www.w3.org/1999/xlink">
 <defs>
  <style type="text/css">
   <![CDATA[
    .fil0 {fill:#CC9933;fill-rule:nonzero}
   ]]>
  </style>
 </defs>
 <g id="Layer_x0020_1">
  <metadata id="CorelCorpID_0Corel-Layer"/>
  <path class="fil0" d="M843 0c-139,0 -257,47 -327,175 -46,86 -60,188 -65,284l-102 0c-99,0 -200,25 -272,97 -49,50 -76,123 -77,193 -1,71 26,138 76,187 59,59 143,88 225,87 115,0 178,-42 238,-137 42,49 74,81 136,107 46,20 102,30 168,30 67,0 123,-10 169,-30 62,-26 94,-58 136,-107 60,96 123,137 238,137 82,1 166,-28 225,-87 50,-49 76,-116 76,-187 -1,-70 -28,-143 -77,-193 -72,-72 -173,-97 -272,-97l-102 0c18,-108 43,-195 122,-273 88,-88 212,-120 333,-116 93,2 202,25 269,95 48,50 71,102 70,172 -1,42 -17,81 -48,111 -24,23 -55,37 -88,42 -18,4 -36,2 -54,4 -18,2 -54,12 -52,36 2,23 35,32 53,33 17,2 34,-1 51,0 37,2 75,13 103,39 51,47 70,123 70,190 1,58 -12,120 -42,169 -66,107 -154,139 -275,139l-1472 0c-125,0 -273,29 -276,187 -3,164 146,199 276,199l1818 0c32,0 62,-26 62,-59 0,-33 -30,-59 -62,-59l-1818 0c-67,0 -149,-12 -151,-98 -2,-85 86,-101 151,-101l1472 0c137,0 267,-22 358,-135 53,-65 77,-158 78,-241 1,-121 -44,-214 -150,-270 70,-44 117,-99 118,-186 2,-119 -58,-205 -156,-265 -87,-55 -205,-72 -306,-72 -163,0 -326,45 -435,176 -19,23 -35,48 -52,73 -10,-24 -19,-48 -31,-71 -69,-129 -188,-178 -329,-178zm393 529l102 0c61,0 120,17 165,62 39,39 60,100 61,156 1,58 -19,114 -60,155 -31,31 -73,52 -118,52 -43,0 -83,-22 -112,-53 -50,-55 -64,-142 -52,-213 9,-52 13,-107 14,-159zm-772 157c13,72 -1,160 -51,215 -29,31 -70,53 -113,53 -44,0 -86,-21 -117,-52 -42,-41 -61,-97 -60,-155 1,-56 22,-117 61,-156 45,-45 103,-62 165,-62l102 0c1,51 5,106 13,157zm650 -157c-3,100 -14,214 -64,303 -45,81 -114,121 -207,121 -91,0 -160,-40 -206,-121 -50,-88 -61,-203 -64,-303l541 0zm-540 -70c4,-89 17,-185 60,-263 45,-83 115,-126 209,-126 94,0 164,42 210,125 43,79 55,175 60,264l-539 0z"/>
 </g>
</svg>
