<?xml version="1.0" encoding="UTF-8"?>
<!DOCTYPE svg PUBLIC "-//W3C//DTD SVG 1.1//EN" "http://www.w3.org/Graphics/SVG/1.1/DTD/svg11.dtd">
<!-- Creator: CorelDRAW X8 -->
<svg xmlns="http://www.w3.org/2000/svg" xml:space="preserve" width="1702px" height="1486px" version="1.1" style="shape-rendering:geometricPrecision; text-rendering:geometricPrecision; image-rendering:optimizeQuality; fill-rule:evenodd; clip-rule:evenodd"
viewBox="0 0 1702 1486"
 xmlns:xlink="http://www.w3.org/1999/xlink">
 <defs>
  <style type="text/css">
   <![CDATA[
    .fil0 {fill:#00A0E3;fill-rule:nonzero}
   ]]>
  </style>
 </defs>
 <g id="Layer_x0020_1">
  <metadata id="CorelCorpID_0Corel-Layer"/>
  <path class="fil0" d="M846 1221c53,0 109,4 160,20 34,10 96,36 96,80 1,45 -63,72 -98,83 -51,15 -105,19 -158,19 -60,0 -132,-6 -188,-28 -30,-12 -74,-36 -73,-74 0,-37 44,-61 73,-73 56,-22 129,-27 188,-27zm357 146c5,-14 8,-33 8,-46 0,-85 -117,-128 -183,-144 -60,-14 -121,-19 -182,-19 -65,0 -136,6 -199,22 -64,17 -171,61 -171,141 0,80 103,124 166,141 65,18 134,24 201,24 60,0 119,-3 178,-10 85,-11 166,-31 246,-60 229,-83 418,-256 434,-514 10,-151 -51,-297 -179,-380 -62,-39 -139,-63 -228,-63l-59 0c-5,-97 -18,-199 -65,-285 -70,-127 -188,-174 -327,-174 -139,0 -257,47 -327,175 -46,85 -60,188 -65,284l-103 0c-52,0 -105,7 -154,25 -42,14 -83,38 -117,73 -49,49 -76,122 -77,192 -1,71 26,138 76,188 59,58 143,87 225,87 115,-1 178,-43 238,-138 88,103 168,138 305,138 137,0 253,-46 323,-171 53,-95 66,-217 69,-324l58 0c57,0 110,18 156,53 96,74 134,199 129,318 -12,243 -157,391 -376,467zm-739 -681c12,74 1,157 -51,215 -29,32 -70,53 -113,53 -44,0 -86,-21 -117,-52 -42,-41 -61,-97 -60,-155 1,-56 22,-117 61,-156 44,-45 103,-62 165,-62l102 0c1,50 4,107 13,157zm650 -157c-3,100 -14,214 -64,303 -45,81 -114,122 -206,122 -92,0 -161,-41 -207,-121 -50,-89 -61,-204 -64,-304l541 0zm-540 -70c4,-88 17,-185 60,-263 45,-83 115,-126 209,-126 94,0 164,42 209,125 44,79 56,175 61,264l-539 0z"/>
 </g>
</svg>
