<?xml version="1.0" encoding="UTF-8"?>
<!DOCTYPE svg PUBLIC "-//W3C//DTD SVG 1.1//EN" "http://www.w3.org/Graphics/SVG/1.1/DTD/svg11.dtd">
<!-- Creator: CorelDRAW X8 -->
<svg xmlns="http://www.w3.org/2000/svg" xml:space="preserve" width="3045px" height="1486px" version="1.1" style="shape-rendering:geometricPrecision; text-rendering:geometricPrecision; image-rendering:optimizeQuality; fill-rule:evenodd; clip-rule:evenodd"
viewBox="0 0 3045 1486"
 xmlns:xlink="http://www.w3.org/1999/xlink">
 <defs>
  <style type="text/css">
   <![CDATA[
    .fil0 {fill:#CC9933;fill-rule:nonzero}
   ]]>
  </style>
 </defs>
 <g id="Layer_x0020_1">
  <metadata id="CorelCorpID_0Corel-Layer"/>
  <path class="fil0" d="M855 0c-141,0 -261,47 -332,175 -47,85 -61,188 -66,284l-104 0c-100,0 -202,25 -275,98 -50,50 -77,122 -78,193 -1,70 26,137 77,187 60,59 145,87 228,87 116,0 180,-41 241,-138 90,103 172,138 309,138 139,0 257,-46 328,-171 54,-95 67,-217 70,-324l61 0c53,0 99,16 133,46 35,32 59,82 70,130 24,118 86,233 191,297 34,20 74,31 109,10 25,-15 21,-37 -3,-49 -136,-72 -185,-252 -185,-396 0,-94 20,-191 64,-275 66,-126 198,-223 343,-222 49,0 88,8 135,19 -121,85 -195,190 -233,334 -15,56 -23,113 -23,172 0,84 17,183 58,258 61,112 166,171 293,171 127,-1 233,-58 295,-172 41,-75 58,-172 58,-257 0,-58 -8,-117 -23,-172 -38,-144 -113,-249 -234,-334 47,-12 86,-19 134,-19 127,-1 238,68 312,167 82,108 118,250 112,384 -6,136 -56,268 -154,365 -86,85 -194,114 -313,114l-645 0c-128,0 -277,30 -280,187 -4,164 148,199 280,199l1135 0c32,0 62,-26 62,-59 0,-33 -30,-59 -62,-59l-1135 0c-68,0 -152,-12 -154,-98 -2,-85 87,-101 154,-101l645 0c153,0 285,-37 386,-115 122,-96 197,-244 205,-431 8,-167 -44,-338 -160,-460 -102,-107 -241,-163 -388,-163 -81,0 -153,13 -230,41 -76,-28 -148,-41 -230,-41 -192,0 -373,101 -462,272 -40,76 -57,149 -67,233 -71,-35 -114,-46 -193,-46l-62 0c-5,-96 -19,-199 -66,-285 -71,-127 -190,-174 -331,-174zm1411 134c109,76 173,170 207,299 14,52 21,107 22,162 0,78 -15,168 -53,237 -37,67 -96,122 -176,122 -81,0 -138,-54 -174,-121 -38,-69 -53,-161 -53,-238 0,-55 8,-109 22,-162 34,-128 97,-222 205,-299zm-1796 549c13,74 2,161 -52,218 -29,32 -70,53 -114,53 -45,1 -87,-20 -119,-52 -42,-41 -62,-97 -61,-155 2,-56 23,-116 63,-156 45,-45 104,-62 167,-62l103 0c1,51 4,104 13,154zm659 -154c-3,100 -14,215 -64,303 -46,81 -117,122 -210,122 -93,0 -163,-41 -209,-121 -51,-88 -62,-204 -65,-304l548 0zm-547 -70c4,-88 17,-185 60,-263 46,-83 118,-126 213,-126 95,0 166,42 212,125 44,79 56,176 61,264l-546 0z"/>
 </g>
</svg>
