<?xml version="1.0" encoding="UTF-8"?>
<!DOCTYPE svg PUBLIC "-//W3C//DTD SVG 1.1//EN" "http://www.w3.org/Graphics/SVG/1.1/DTD/svg11.dtd">
<!-- Creator: CorelDRAW X8 -->
<svg xmlns="http://www.w3.org/2000/svg" xml:space="preserve" width="2547px" height="1486px" version="1.1" style="shape-rendering:geometricPrecision; text-rendering:geometricPrecision; image-rendering:optimizeQuality; fill-rule:evenodd; clip-rule:evenodd"
viewBox="0 0 2547 1486"
 xmlns:xlink="http://www.w3.org/1999/xlink">
 <defs>
  <style type="text/css">
   <![CDATA[
    .fil0 {fill:#2B2A29;fill-rule:nonzero}
   ]]>
  </style>
 </defs>
 <g id="Layer_x0020_1">
  <metadata id="CorelCorpID_0Corel-Layer"/>
  <path class="fil0" d="M1998 1c-144,0 -275,49 -371,149 -24,25 -47,54 -67,87 -14,-33 -23,-53 -42,-83 -72,-113 -186,-153 -314,-153 -140,0 -256,48 -327,177 -46,85 -61,186 -65,282l-103 0c-99,0 -200,26 -272,99 -50,51 -77,120 -77,191 0,70 27,138 76,187 59,59 143,88 225,88 115,-1 194,-42 238,-139 89,104 169,139 305,139 136,0 216,-36 304,-139 44,96 123,138 239,139 82,0 166,-29 225,-88 49,-49 76,-117 76,-187 0,-73 -26,-139 -77,-191 -72,-73 -174,-99 -271,-99l-106 0c14,-94 40,-181 103,-254 75,-89 185,-134 301,-134 129,0 247,60 325,167 72,99 101,219 101,341 0,265 -147,491 -362,634 -222,147 -518,202 -780,202 -254,0 -540,-41 -766,-169 -261,-148 -393,-393 -393,-691 0,-191 72,-389 234,-498 10,-7 15,-14 15,-21 0,-11 -10,-22 -24,-28 -11,-6 -25,-9 -40,-9 -15,0 -31,3 -45,13 -179,120 -263,331 -263,543 0,323 149,582 430,741 251,142 568,189 852,189 292,0 626,-63 873,-227 232,-154 392,-392 392,-679 0,-130 -34,-263 -111,-368 -103,-140 -269,-211 -438,-211zm-524 459l-540 0c5,-89 17,-183 60,-262 45,-83 116,-127 210,-127 94,0 165,43 210,126 43,80 56,174 60,263zm274 495c-43,-1 -85,-22 -114,-54 -38,-42 -56,-103 -56,-162 0,-18 3,-35 6,-52 9,-52 12,-104 14,-156l101 0c62,0 120,17 165,62 39,40 62,101 62,157 0,58 -20,112 -60,152 -32,32 -75,53 -118,53zm-1088 0c-44,0 -85,-22 -117,-53 -40,-41 -60,-94 -60,-152 0,-57 21,-116 61,-157 45,-46 104,-62 165,-62l102 0c1,52 5,103 14,154 3,16 4,33 4,50 0,60 -17,123 -56,166 -29,32 -70,53 -113,54zm544 -1c-92,0 -161,-41 -207,-122 -50,-89 -61,-200 -64,-301l541 0c-2,100 -13,212 -62,301 -46,81 -116,122 -208,122z"/>
 </g>
</svg>
