<?xml version="1.0" encoding="UTF-8"?>
<!DOCTYPE svg PUBLIC "-//W3C//DTD SVG 1.1//EN" "http://www.w3.org/Graphics/SVG/1.1/DTD/svg11.dtd">
<!-- Creator: CorelDRAW X8 -->
<svg xmlns="http://www.w3.org/2000/svg" xml:space="preserve" width="917px" height="593px" version="1.1" style="shape-rendering:geometricPrecision; text-rendering:geometricPrecision; image-rendering:optimizeQuality; fill-rule:evenodd; clip-rule:evenodd"
viewBox="0 0 917 593"
 xmlns:xlink="http://www.w3.org/1999/xlink">
 <defs>
  <style type="text/css">
   <![CDATA[
    .fil0 {fill:#CC9933;fill-rule:nonzero}
   ]]>
  </style>
 </defs>
 <g id="Layer_x0020_1">
  <metadata id="CorelCorpID_0Corel-Layer"/>
  <path class="fil0" d="M482 540c83,-44 118,-151 115,-239 -6,-142 -108,-246 -257,-247 -132,-1 -225,97 -243,224 31,-35 73,-54 121,-56 59,-2 115,20 151,57 32,34 49,78 47,130 -1,52 -22,105 -63,139 -36,28 -84,44 -135,45 -160,2 -220,-136 -218,-272 4,-197 145,-322 340,-321 189,1 347,105 355,301 3,84 -24,171 -84,232l208 0 0 -506c0,-14 22,-26 49,-26 27,0 49,12 49,26l0 532c0,22 -37,27 -53,27l-349 0c-27,0 -49,-12 -49,-27 0,-9 8,-15 16,-19zm-370 -131c0,87 51,130 106,131 51,0 104,-43 105,-131 0,-87 -53,-130 -105,-130 -53,0 -106,43 -106,130z"/>
 </g>
</svg>
