<?xml version="1.0" encoding="UTF-8"?>
<!DOCTYPE svg PUBLIC "-//W3C//DTD SVG 1.1//EN" "http://www.w3.org/Graphics/SVG/1.1/DTD/svg11.dtd">
<!-- Creator: CorelDRAW X8 -->
<svg xmlns="http://www.w3.org/2000/svg" xml:space="preserve" width="917px" height="600px" version="1.1" style="shape-rendering:geometricPrecision; text-rendering:geometricPrecision; image-rendering:optimizeQuality; fill-rule:evenodd; clip-rule:evenodd"
viewBox="0 0 917 600"
 xmlns:xlink="http://www.w3.org/1999/xlink">
 <defs>
  <style type="text/css">
   <![CDATA[
    .fil0 {fill:#00A0E3;fill-rule:nonzero}
   ]]>
  </style>
 </defs>
 <g id="Layer_x0020_1">
  <metadata id="CorelCorpID_0Corel-Layer"/>
  <path class="fil0" d="M604 536c62,-59 93,-145 92,-231 -3,-196 -166,-305 -358,-301 -191,3 -338,125 -338,316 0,91 29,186 96,239 39,32 83,45 134,44 50,0 99,-16 135,-45 41,-33 61,-86 63,-138 2,-52 -15,-97 -47,-130 -36,-37 -93,-59 -151,-57 -54,2 -101,26 -133,69 1,-137 97,-246 243,-246 156,0 254,101 261,249 4,96 -39,191 -129,239 -9,5 -14,12 -14,19 0,19 33,27 48,27l358 0c16,0 53,-6 53,-27l0 -532c0,-15 -22,-27 -49,-27 -27,0 -49,12 -49,27l0 505 -215 0zm-480 -116c0,-87 53,-130 106,-131 52,0 105,44 104,131 0,87 -54,130 -104,130 -55,0 -106,-44 -106,-130z"/>
 </g>
</svg>
