<?xml version="1.0" encoding="UTF-8"?>
<!DOCTYPE svg PUBLIC "-//W3C//DTD SVG 1.1//EN" "http://www.w3.org/Graphics/SVG/1.1/DTD/svg11.dtd">
<!-- Creator: CorelDRAW X8 -->
<svg xmlns="http://www.w3.org/2000/svg" xml:space="preserve" width="917px" height="600px" version="1.1" style="shape-rendering:geometricPrecision; text-rendering:geometricPrecision; image-rendering:optimizeQuality; fill-rule:evenodd; clip-rule:evenodd"
viewBox="0 0 917 600"
 xmlns:xlink="http://www.w3.org/1999/xlink">
 <defs>
  <style type="text/css">
   <![CDATA[
    .fil0 {fill:#2B2A29;fill-rule:nonzero}
   ]]>
  </style>
 </defs>
 <g id="Layer_x0020_1">
  <metadata id="CorelCorpID_0Corel-Layer"/>
  <path class="fil0" d="M364 554c45,-36 64,-91 64,-146 0,-48 -17,-90 -47,-121 -35,-37 -88,-58 -145,-58 -57,0 -106,24 -139,70 1,-138 97,-246 243,-246 160,0 261,96 261,251 0,91 -43,191 -129,236 -9,5 -14,12 -14,19 0,19 32,27 48,27l357 0c17,0 54,-5 54,-26l0 -533c0,-15 -22,-26 -49,-26 -27,0 -49,11 -49,26l0 506 -215 0c62,-60 92,-143 92,-229 0,-193 -162,-304 -348,-304 -194,0 -348,121 -348,316 0,92 29,186 96,240 38,31 81,44 130,44 50,0 100,-15 138,-46zm-135 -7c-53,0 -105,-44 -105,-129 0,-63 32,-132 105,-132 73,0 105,68 105,130 0,87 -53,131 -105,131z"/>
 </g>
</svg>
