<?xml version="1.0" encoding="UTF-8"?>
<!DOCTYPE svg PUBLIC "-//W3C//DTD SVG 1.1//EN" "http://www.w3.org/Graphics/SVG/1.1/DTD/svg11.dtd">
<!-- Creator: CorelDRAW X8 -->
<svg xmlns="http://www.w3.org/2000/svg" xml:space="preserve" width="1813px" height="1486px" version="1.1" style="shape-rendering:geometricPrecision; text-rendering:geometricPrecision; image-rendering:optimizeQuality; fill-rule:evenodd; clip-rule:evenodd"
viewBox="0 0 1813 1486"
 xmlns:xlink="http://www.w3.org/1999/xlink">
 <defs>
  <style type="text/css">
   <![CDATA[
    .fil0 {fill:#CC9933;fill-rule:nonzero}
   ]]>
  </style>
 </defs>
 <g id="Layer_x0020_1">
  <metadata id="CorelCorpID_0Corel-Layer"/>
  <path class="fil0" d="M1688 1000c7,335 -423,416 -678,416 -235,0 -470,-63 -646,-227 -163,-153 -240,-352 -241,-576 -1,-205 67,-431 237,-557 9,-7 12,-14 12,-21 0,-11 -9,-22 -24,-28 -10,-4 -24,-7 -38,-7 -17,0 -35,4 -48,14 -181,134 -261,372 -262,594 -1,272 103,504 319,668 198,151 449,210 693,210 289,0 800,-98 801,-475l0 -975c0,-26 -42,-35 -61,-35 -20,0 -62,9 -62,35l0 895 -399 0c110,-116 159,-252 153,-413 -12,-328 -260,-517 -569,-518 -332,-2 -548,242 -544,576 2,215 96,439 340,436 75,-1 151,-26 208,-74 68,-56 100,-146 103,-233 2,-82 -21,-160 -77,-220 -59,-63 -147,-94 -232,-93 -87,2 -191,47 -228,135 20,-247 172,-458 431,-457 254,2 435,191 445,448 5,156 -54,343 -197,422 -9,5 -19,14 -19,25 0,26 41,35 61,35l522 0zm-1211 -295c0,-72 20,-127 50,-166 35,-45 88,-71 145,-71 132,0 194,117 194,237 0,119 -64,237 -194,237 -132,0 -195,-116 -195,-237z"/>
 </g>
</svg>
