<?xml version="1.0" encoding="UTF-8"?>
<!DOCTYPE svg PUBLIC "-//W3C//DTD SVG 1.1//EN" "http://www.w3.org/Graphics/SVG/1.1/DTD/svg11.dtd">
<!-- Creator: CorelDRAW X8 -->
<svg xmlns="http://www.w3.org/2000/svg" xml:space="preserve" width="917px" height="868px" version="1.1" style="shape-rendering:geometricPrecision; text-rendering:geometricPrecision; image-rendering:optimizeQuality; fill-rule:evenodd; clip-rule:evenodd"
viewBox="0 0 917 868"
 xmlns:xlink="http://www.w3.org/1999/xlink">
 <defs>
  <style type="text/css">
   <![CDATA[
    .fil0 {fill:#CC9933;fill-rule:nonzero}
   ]]>
  </style>
 </defs>
 <g id="Layer_x0020_1">
  <metadata id="CorelCorpID_0Corel-Layer"/>
  <path class="fil0" d="M472 715c39,0 68,4 91,11 34,10 52,25 52,41 0,15 -18,31 -53,41 -23,7 -52,11 -90,11 -46,0 -82,-6 -106,-15 -27,-10 -40,-24 -39,-37 0,-14 13,-27 39,-37 24,-9 61,-15 106,-15zm10 -175c-8,4 -16,11 -16,20 0,14 22,26 49,26l304 0c0,86 -17,169 -118,199 2,-6 3,-12 3,-18 0,-52 -72,-79 -118,-89 -32,-7 -69,-12 -114,-12 -49,0 -91,5 -125,14 -73,18 -110,52 -110,87 0,34 36,68 107,87 37,9 84,14 124,14 84,0 174,-10 236,-28 57,-16 113,-40 150,-80 39,-41 63,-99 63,-176l0 -557c0,-15 -22,-26 -49,-26 -27,0 -49,11 -49,26l0 506 -208 0c60,-61 87,-147 84,-231 -8,-195 -166,-301 -355,-302 -195,-1 -336,126 -340,323 -2,135 58,272 218,270 51,0 99,-17 135,-45 41,-33 62,-86 63,-138 2,-52 -15,-96 -47,-129 -36,-38 -92,-59 -151,-57 -48,1 -90,20 -121,55 18,-127 111,-226 243,-225 149,1 251,107 257,248 3,88 -32,194 -115,238zm-370 -130c0,-86 53,-130 106,-130 52,0 105,43 105,130 -1,87 -54,130 -105,130 -55,0 -106,-44 -106,-130z"/>
 </g>
</svg>
