<?xml version="1.0" encoding="UTF-8"?>
<!DOCTYPE svg PUBLIC "-//W3C//DTD SVG 1.1//EN" "http://www.w3.org/Graphics/SVG/1.1/DTD/svg11.dtd">
<!-- Creator: CorelDRAW X8 -->
<svg xmlns="http://www.w3.org/2000/svg" xml:space="preserve" width="1813px" height="1486px" version="1.1" style="shape-rendering:geometricPrecision; text-rendering:geometricPrecision; image-rendering:optimizeQuality; fill-rule:evenodd; clip-rule:evenodd"
viewBox="0 0 1813 1486"
 xmlns:xlink="http://www.w3.org/1999/xlink">
 <defs>
  <style type="text/css">
   <![CDATA[
    .fil0 {fill:#2B2A29;fill-rule:nonzero}
   ]]>
  </style>
 </defs>
 <g id="Layer_x0020_1">
  <metadata id="CorelCorpID_0Corel-Layer"/>
  <path class="fil0" d="M1012 1486c289,0 801,-98 801,-475l0 -975c0,-26 -42,-35 -61,-35 -20,0 -62,9 -62,35l0 894 -412 0c111,-102 167,-254 167,-407 0,-325 -244,-523 -557,-523 -325,0 -553,218 -553,546 0,156 44,316 152,406 59,50 124,72 199,72 76,0 155,-24 213,-74 69,-59 102,-156 102,-245 0,-78 -23,-153 -76,-211 -57,-62 -140,-94 -221,-94 -111,0 -219,60 -252,171 -22,-274 151,-502 436,-502 268,0 439,190 439,454 0,169 -66,331 -219,416 -9,5 -18,14 -18,25 0,25 41,36 61,36l537 0c0,337 -415,416 -678,416 -235,0 -470,-62 -646,-227 -164,-153 -241,-357 -241,-581 -1,-205 65,-426 237,-552 9,-7 12,-14 12,-20 0,-12 -10,-23 -24,-29 -10,-5 -23,-7 -37,-7 -17,0 -36,4 -49,14 -181,134 -262,372 -262,594 -1,271 101,502 319,668 198,151 449,210 693,210zm-320 -532c-132,-1 -195,-117 -195,-239 0,-120 64,-239 195,-239 130,-1 193,117 193,236 0,117 -60,243 -193,242z"/>
 </g>
</svg>
