<?xml version="1.0" encoding="UTF-8"?>
<!DOCTYPE svg PUBLIC "-//W3C//DTD SVG 1.1//EN" "http://www.w3.org/Graphics/SVG/1.1/DTD/svg11.dtd">
<!-- Creator: CorelDRAW X8 -->
<svg xmlns="http://www.w3.org/2000/svg" xml:space="preserve" width="1123px" height="868px" version="1.1" style="shape-rendering:geometricPrecision; text-rendering:geometricPrecision; image-rendering:optimizeQuality; fill-rule:evenodd; clip-rule:evenodd"
viewBox="0 0 1123 868"
 xmlns:xlink="http://www.w3.org/1999/xlink">
 <defs>
  <style type="text/css">
   <![CDATA[
    .fil0 {fill:#B2B09C;fill-rule:nonzero}
   ]]>
  </style>
 </defs>
 <g id="Layer_x0020_1">
  <metadata id="CorelCorpID_0Corel-Layer"/>
  <path class="fil0" d="M810 533l215 0 0 -506c0,-14 22,-26 49,-26 27,0 49,12 49,26l0 559c0,219 -312,282 -497,282 -166,0 -317,-41 -430,-123 -117,-84 -197,-211 -196,-389 1,-136 54,-270 162,-346 17,-12 49,-13 69,-4 18,7 27,24 9,37 -97,67 -142,191 -141,316 0,144 58,252 144,328 94,83 225,128 381,128 138,0 402,-46 400,-229l-312 0c-15,0 -48,-8 -48,-27 0,-7 5,-14 14,-19 90,-47 133,-142 129,-238 -7,-148 -105,-250 -261,-249 -146,0 -242,108 -243,246 32,-44 79,-68 133,-70 58,-2 115,20 151,57 32,34 49,78 47,130 -2,52 -22,105 -63,139 -36,28 -85,44 -135,45 -51,1 -95,-13 -134,-44 -67,-54 -96,-148 -96,-239 0,-192 147,-313 338,-317 192,-4 355,106 358,302 1,86 -30,171 -92,231zm-480 -117c0,87 51,130 106,131 50,0 104,-43 104,-131 1,-87 -52,-130 -104,-130 -53,0 -106,43 -106,130z"/>
 </g>
</svg>
