<?xml version="1.0" encoding="UTF-8"?>
<!DOCTYPE svg PUBLIC "-//W3C//DTD SVG 1.1//EN" "http://www.w3.org/Graphics/SVG/1.1/DTD/svg11.dtd">
<!-- Creator: CorelDRAW X8 -->
<svg xmlns="http://www.w3.org/2000/svg" xml:space="preserve" width="1813px" height="1486px" version="1.1" style="shape-rendering:geometricPrecision; text-rendering:geometricPrecision; image-rendering:optimizeQuality; fill-rule:evenodd; clip-rule:evenodd"
viewBox="0 0 1813 1486"
 xmlns:xlink="http://www.w3.org/1999/xlink">
 <defs>
  <style type="text/css">
   <![CDATA[
    .fil0 {fill:#00A0E3;fill-rule:nonzero}
   ]]>
  </style>
 </defs>
 <g id="Layer_x0020_1">
  <metadata id="CorelCorpID_0Corel-Layer"/>
  <path class="fil0" d="M1151 1000l537 0c4,335 -418,416 -678,416 -235,0 -470,-63 -646,-227 -163,-153 -240,-352 -241,-576 -1,-205 67,-431 237,-557 23,-17 11,-39 -12,-49 -24,-11 -63,-10 -86,7 -181,134 -261,372 -262,594 -1,272 103,504 319,668 198,151 449,210 693,210 289,0 800,-98 801,-475l0 -975c0,-26 -42,-35 -61,-35 -20,0 -62,9 -62,35l0 894 -412 0c113,-104 169,-259 167,-415 -4,-329 -259,-519 -567,-515 -315,4 -538,215 -547,527 -4,162 44,331 156,425 60,51 127,73 204,72 74,-1 151,-26 208,-74 67,-57 99,-148 102,-235 2,-82 -21,-161 -76,-221 -59,-64 -147,-97 -232,-94 -106,4 -209,63 -241,171 -17,-264 127,-501 423,-502 267,-1 440,176 452,446 7,172 -67,340 -219,424 -11,7 -17,15 -18,24 -2,26 41,37 61,37zm-654 -285c0,-120 64,-238 195,-239 131,0 194,119 193,239 0,119 -64,239 -193,239 -132,-1 -195,-117 -195,-239z"/>
 </g>
</svg>
