<?xml version="1.0" encoding="UTF-8"?>
<!DOCTYPE svg PUBLIC "-//W3C//DTD SVG 1.1//EN" "http://www.w3.org/Graphics/SVG/1.1/DTD/svg11.dtd">
<!-- Creator: CorelDRAW X8 -->
<svg xmlns="http://www.w3.org/2000/svg" xml:space="preserve" width="1444px" height="1024px" version="1.1" style="shape-rendering:geometricPrecision; text-rendering:geometricPrecision; image-rendering:optimizeQuality; fill-rule:evenodd; clip-rule:evenodd"
viewBox="0 0 1444 1024"
 xmlns:xlink="http://www.w3.org/1999/xlink">
 <defs>
  <style type="text/css">
   <![CDATA[
    .fil0 {fill:#B2B09C;fill-rule:nonzero}
   ]]>
  </style>
 </defs>
 <g id="Layer_x0020_1">
  <metadata id="CorelCorpID_0Corel-Layer"/>
  <path class="fil0" d="M1025 1010c26,20 65,17 94,4 203,-88 325,-287 325,-511 0,-114 -33,-227 -97,-321 -78,-115 -190,-180 -328,-182 -309,-5 -365,239 -361,503 3,168 2,445 -222,451 -97,3 -173,-56 -226,-135 -60,-87 -88,-211 -87,-316 1,-173 84,-367 245,-440 23,-11 33,-33 9,-50 -25,-18 -63,-16 -90,-3 -186,87 -285,290 -287,493 -1,116 31,246 95,341 81,120 198,181 340,180 318,-2 350,-257 346,-521 -3,-172 14,-435 239,-433 93,1 162,63 213,137 59,88 89,190 88,296 -1,194 -101,383 -282,458 -22,9 -37,31 -14,49z"/>
 </g>
</svg>
