<?xml version="1.0" encoding="UTF-8"?>
<!DOCTYPE svg PUBLIC "-//W3C//DTD SVG 1.1//EN" "http://www.w3.org/Graphics/SVG/1.1/DTD/svg11.dtd">
<!-- Creator: CorelDRAW X8 -->
<svg xmlns="http://www.w3.org/2000/svg" xml:space="preserve" width="889px" height="600px" version="1.1" style="shape-rendering:geometricPrecision; text-rendering:geometricPrecision; image-rendering:optimizeQuality; fill-rule:evenodd; clip-rule:evenodd"
viewBox="0 0 889 600"
 xmlns:xlink="http://www.w3.org/1999/xlink">
 <defs>
  <style type="text/css">
   <![CDATA[
    .fil0 {fill:#CC9933;fill-rule:nonzero}
   ]]>
  </style>
 </defs>
 <g id="Layer_x0020_1">
  <metadata id="CorelCorpID_0Corel-Layer"/>
  <path class="fil0" d="M617 589c-7,-5 -10,-10 -10,-16 0,-8 7,-16 21,-21 105,-42 163,-149 164,-257 0,-60 -18,-118 -53,-167 -27,-39 -66,-74 -116,-75 -125,-1 -133,153 -131,242 2,159 -20,304 -219,305 -89,0 -164,-35 -215,-107 -39,-55 -59,-131 -58,-198 1,-120 63,-237 176,-288 10,-4 23,-7 35,-7 13,0 26,3 36,10 8,5 11,11 11,17 0,8 -6,15 -18,20 -94,42 -142,152 -143,248 0,60 17,130 52,178 29,41 71,75 124,74 123,-4 123,-164 121,-252 -2,-157 34,-298 229,-295 87,1 158,39 207,109 39,54 59,119 59,186 0,131 -76,247 -199,298 -11,4 -24,7 -37,7 -13,0 -26,-3 -36,-11z"/>
 </g>
</svg>
