<?xml version="1.0" encoding="UTF-8"?>
<!DOCTYPE svg PUBLIC "-//W3C//DTD SVG 1.1//EN" "http://www.w3.org/Graphics/SVG/1.1/DTD/svg11.dtd">
<!-- Creator: CorelDRAW X8 -->
<svg xmlns="http://www.w3.org/2000/svg" xml:space="preserve" width="889px" height="600px" version="1.1" style="shape-rendering:geometricPrecision; text-rendering:geometricPrecision; image-rendering:optimizeQuality; fill-rule:evenodd; clip-rule:evenodd"
viewBox="0 0 889 600"
 xmlns:xlink="http://www.w3.org/1999/xlink">
 <defs>
  <style type="text/css">
   <![CDATA[
    .fil0 {fill:#2B2A29;fill-rule:nonzero}
   ]]>
  </style>
 </defs>
 <g id="Layer_x0020_1">
  <metadata id="CorelCorpID_0Corel-Layer"/>
  <path class="fil0" d="M653 600c13,0 26,-3 36,-7 125,-51 200,-167 200,-298 0,-67 -20,-131 -59,-187 -51,-72 -124,-108 -213,-108 -193,0 -223,141 -223,297 0,88 2,250 -124,250 -52,0 -93,-33 -121,-74 -34,-48 -52,-116 -52,-175 0,-97 49,-209 143,-251 11,-4 18,-13 18,-21 0,-5 -3,-11 -11,-16 -10,-7 -23,-10 -36,-10 -13,0 -25,2 -35,7 -115,52 -176,171 -176,291 0,67 19,140 58,195 51,71 124,107 212,107 203,0 222,-144 222,-303 0,-90 4,-244 130,-244 51,0 90,36 118,75 35,49 52,107 52,167 0,108 -59,215 -164,257 -12,5 -21,13 -21,22 0,5 3,10 10,15 10,7 23,11 36,11z"/>
 </g>
</svg>
