<?xml version="1.0" encoding="UTF-8"?>
<!DOCTYPE svg PUBLIC "-//W3C//DTD SVG 1.1//EN" "http://www.w3.org/Graphics/SVG/1.1/DTD/svg11.dtd">
<!-- Creator: CorelDRAW X8 -->
<svg xmlns="http://www.w3.org/2000/svg" xml:space="preserve" width="1526px" height="1486px" version="1.1" style="shape-rendering:geometricPrecision; text-rendering:geometricPrecision; image-rendering:optimizeQuality; fill-rule:evenodd; clip-rule:evenodd"
viewBox="0 0 1526 1486"
 xmlns:xlink="http://www.w3.org/1999/xlink">
 <defs>
  <style type="text/css">
   <![CDATA[
    .fil0 {fill:#2B2A29;fill-rule:nonzero}
   ]]>
  </style>
 </defs>
 <g id="Layer_x0020_1">
  <metadata id="CorelCorpID_0Corel-Layer"/>
  <path class="fil0" d="M658 508c0,167 7,446 -226,446 -94,0 -170,-58 -222,-135 -59,-86 -87,-207 -87,-311 0,-172 80,-370 245,-445 14,-7 23,-17 23,-28 0,-7 -4,-15 -14,-22 -13,-9 -29,-13 -45,-13 -16,0 -32,4 -45,10 -189,88 -287,296 -287,498 0,115 32,242 95,336 80,119 196,180 337,180 325,0 349,-259 349,-516 0,-218 8,-436 290,-436 77,0 166,17 225,69 50,44 76,110 76,175 0,47 -14,100 -48,132 -24,23 -55,37 -88,43 -18,3 -36,1 -54,3 -19,1 -52,11 -52,35 0,23 35,34 53,34 17,0 34,-2 51,-2 38,0 75,15 103,41 51,47 70,123 70,191 0,58 -11,118 -42,168 -66,107 -154,139 -275,139l-813 0c-130,0 -277,32 -277,192 0,160 148,194 277,194l1140 0c32,0 61,-25 61,-59 0,-33 -29,-59 -61,-59l-1140 0c-70,0 -152,-13 -152,-101 0,-82 87,-98 152,-98l813 0c137,0 267,-21 358,-134 54,-67 78,-158 78,-242 0,-118 -45,-215 -150,-270 84,-52 120,-128 120,-207 0,-96 -56,-192 -136,-243 -83,-54 -193,-72 -289,-72 -363,0 -413,223 -413,507z"/>
 </g>
</svg>
