<?xml version="1.0" encoding="UTF-8"?>
<!DOCTYPE svg PUBLIC "-//W3C//DTD SVG 1.1//EN" "http://www.w3.org/Graphics/SVG/1.1/DTD/svg11.dtd">
<!-- Creator: CorelDRAW X8 -->
<svg xmlns="http://www.w3.org/2000/svg" xml:space="preserve" width="944px" height="868px" version="1.1" style="shape-rendering:geometricPrecision; text-rendering:geometricPrecision; image-rendering:optimizeQuality; fill-rule:evenodd; clip-rule:evenodd"
viewBox="0 0 944 868"
 xmlns:xlink="http://www.w3.org/1999/xlink">
 <defs>
  <style type="text/css">
   <![CDATA[
    .fil0 {fill:#00A0E3;fill-rule:nonzero}
   ]]>
  </style>
 </defs>
 <g id="Layer_x0020_1">
  <metadata id="CorelCorpID_0Corel-Layer"/>
  <path class="fil0" d="M179 687c-54,0 -80,17 -80,52 1,37 28,48 80,48l687 0c27,0 49,18 49,41 0,22 -22,40 -49,40l-687 0c-83,0 -181,-20 -179,-119 2,-72 57,-115 179,-115l490 0c68,0 117,-18 155,-76 16,-26 25,-61 24,-95 0,-41 -12,-82 -40,-107 -13,-11 -32,-18 -53,-19 -10,-1 -21,1 -31,0 -21,-1 -39,-10 -42,-22 -4,-15 14,-28 41,-31 10,0 21,0 31,-1 19,-4 34,-11 46,-22 18,-16 27,-38 27,-61 1,-40 -10,-82 -43,-109 -34,-29 -86,-37 -129,-37 -59,0 -115,24 -137,76 -22,54 -24,104 -23,164 3,162 -21,307 -226,305 -87,0 -161,-37 -211,-107 -39,-55 -59,-131 -58,-198 1,-119 63,-236 178,-287 21,-9 52,-10 71,3 19,13 11,29 -7,37 -95,41 -143,152 -144,247 -1,60 17,131 52,179 27,39 69,73 119,73 130,2 130,-162 128,-252 -1,-66 1,-142 38,-199 45,-69 140,-94 220,-94 62,-1 133,10 186,43 61,36 85,91 84,157 -1,45 -27,83 -66,106 59,30 85,92 85,156 0,51 -17,104 -48,142 -57,68 -141,82 -227,82l-490 0z"/>
 </g>
</svg>
