<?xml version="1.0" encoding="UTF-8"?>
<!DOCTYPE svg PUBLIC "-//W3C//DTD SVG 1.1//EN" "http://www.w3.org/Graphics/SVG/1.1/DTD/svg11.dtd">
<!-- Creator: CorelDRAW X8 -->
<svg xmlns="http://www.w3.org/2000/svg" xml:space="preserve" width="2246px" height="1024px" version="1.1" style="shape-rendering:geometricPrecision; text-rendering:geometricPrecision; image-rendering:optimizeQuality; fill-rule:evenodd; clip-rule:evenodd"
viewBox="0 0 2246 1024"
 xmlns:xlink="http://www.w3.org/1999/xlink">
 <defs>
  <style type="text/css">
   <![CDATA[
    .fil0 {fill:#2B2A29;fill-rule:nonzero}
   ]]>
  </style>
 </defs>
 <g id="Layer_x0020_1">
  <metadata id="CorelCorpID_0Corel-Layer"/>
  <path class="fil0" d="M1315 139c-80,-101 -174,-139 -298,-139 -317,0 -358,254 -358,509 0,166 6,445 -227,445 -94,0 -170,-58 -222,-135 -58,-86 -87,-207 -87,-311 0,-172 80,-370 245,-445 14,-7 23,-17 23,-28 0,-7 -4,-15 -14,-22 -13,-9 -29,-13 -45,-13 -16,0 -32,4 -45,10 -189,88 -287,296 -287,498 0,115 32,242 95,336 80,119 196,180 337,180 325,0 349,-259 349,-515 0,-167 0,-439 236,-439 177,0 228,118 228,294l0 625c0,26 42,35 62,35 19,0 61,-9 61,-35l0 -600c0,-193 109,-320 309,-320 117,0 214,43 301,122 -137,17 -252,61 -337,178 -59,79 -89,180 -89,279 0,81 20,163 64,231 63,97 165,145 279,145 117,0 218,-56 279,-159 51,-88 72,-191 72,-292 0,-132 -35,-259 -115,-364 -115,-150 -273,-209 -454,-209 -146,0 -260,39 -362,139zm580 814c-72,0 -127,-39 -165,-98 -40,-60 -55,-135 -55,-207 0,-90 25,-180 78,-252 71,-96 167,-136 282,-136 63,96 88,196 88,311 0,93 -17,190 -65,271 -37,62 -88,111 -163,111z"/>
 </g>
</svg>
