<?xml version="1.0" encoding="UTF-8"?>
<!DOCTYPE svg PUBLIC "-//W3C//DTD SVG 1.1//EN" "http://www.w3.org/Graphics/SVG/1.1/DTD/svg11.dtd">
<!-- Creator: CorelDRAW X8 -->
<svg xmlns="http://www.w3.org/2000/svg" xml:space="preserve" width="942px" height="868px" version="1.1" style="shape-rendering:geometricPrecision; text-rendering:geometricPrecision; image-rendering:optimizeQuality; fill-rule:evenodd; clip-rule:evenodd"
viewBox="0 0 942 868"
 xmlns:xlink="http://www.w3.org/1999/xlink">
 <defs>
  <style type="text/css">
   <![CDATA[
    .fil0 {fill:#00A0E3;fill-rule:nonzero}
   ]]>
  </style>
 </defs>
 <g id="Layer_x0020_1">
  <metadata id="CorelCorpID_0Corel-Layer"/>
  <path class="fil0" d="M675 437c26,0 48,-4 71,-1 54,5 96,40 96,96 0,90 -96,102 -170,102l-493 0c-122,0 -177,42 -179,114 -2,99 96,120 179,120l703 0c27,0 49,-18 49,-40 0,-23 -22,-41 -49,-41l-703 0c-52,0 -79,-13 -80,-49 -1,-35 26,-51 80,-51l493 0c112,0 269,-17 270,-155 0,-56 -38,-107 -105,-126 69,-31 101,-97 102,-166 1,-61 -21,-123 -64,-165 -51,-49 -127,-74 -212,-75 -211,-2 -269,110 -266,296 2,88 2,249 -124,251 -53,1 -95,-33 -123,-73 -35,-49 -52,-118 -52,-178 1,-96 49,-207 144,-248 18,-8 26,-25 7,-37 -21,-14 -49,-13 -71,-3 -115,51 -177,169 -178,288 0,67 19,142 59,197 51,72 124,107 214,107 201,-1 225,-144 222,-304 -2,-120 11,-247 168,-242 60,1 107,22 138,57 28,32 44,81 43,129 -1,64 -30,126 -98,141 -22,5 -45,2 -71,2 -27,0 -49,12 -49,27 0,20 34,27 49,27z"/>
 </g>
</svg>
