<?xml version="1.0" encoding="UTF-8"?>
<!DOCTYPE svg PUBLIC "-//W3C//DTD SVG 1.1//EN" "http://www.w3.org/Graphics/SVG/1.1/DTD/svg11.dtd">
<!-- Creator: CorelDRAW X8 -->
<svg xmlns="http://www.w3.org/2000/svg" xml:space="preserve" width="1526px" height="1486px" version="1.1" style="shape-rendering:geometricPrecision; text-rendering:geometricPrecision; image-rendering:optimizeQuality; fill-rule:evenodd; clip-rule:evenodd"
viewBox="0 0 1526 1486"
 xmlns:xlink="http://www.w3.org/1999/xlink">
 <defs>
  <style type="text/css">
   <![CDATA[
    .fil0 {fill:#00A0E3;fill-rule:nonzero}
   ]]>
  </style>
 </defs>
 <g id="Layer_x0020_1">
  <metadata id="CorelCorpID_0Corel-Layer"/>
  <path class="fil0" d="M277 1100c-127,0 -274,30 -277,187 -3,164 147,199 277,199l1140 0c32,0 61,-25 61,-59 0,-33 -29,-59 -61,-59l-1140 0c-67,0 -150,-12 -152,-98 -2,-85 86,-101 152,-101l813 0c137,0 267,-21 358,-134 53,-66 77,-158 78,-242 1,-120 -44,-214 -150,-270 85,-53 121,-128 120,-208 -2,-91 -52,-188 -136,-242 -85,-55 -197,-73 -295,-72 -127,1 -274,42 -345,158 -61,98 -64,231 -62,344 3,172 0,453 -232,451 -92,-1 -166,-60 -216,-135 -60,-87 -88,-211 -88,-316 2,-173 85,-367 246,-441 23,-10 33,-32 9,-49 -25,-18 -63,-16 -90,-3 -186,87 -285,290 -287,493 -1,116 31,246 95,341 79,116 194,179 332,180 324,3 358,-252 353,-521 -1,-101 1,-193 39,-289 40,-102 145,-142 246,-142 78,-1 170,16 231,69 44,39 74,108 76,174 2,50 -12,99 -48,133 -24,23 -55,37 -88,43 -18,3 -36,2 -54,3 -18,2 -54,12 -52,36 2,23 35,32 53,33 17,2 34,-1 51,0 37,2 75,13 103,39 51,47 70,123 70,191 1,57 -12,120 -42,168 -66,107 -154,139 -275,139l-813 0z"/>
 </g>
</svg>
