<?xml version="1.0" encoding="UTF-8"?>
<!DOCTYPE svg PUBLIC "-//W3C//DTD SVG 1.1//EN" "http://www.w3.org/Graphics/SVG/1.1/DTD/svg11.dtd">
<!-- Creator: CorelDRAW X8 -->
<svg xmlns="http://www.w3.org/2000/svg" xml:space="preserve" width="1591px" height="1486px" version="1.1" style="shape-rendering:geometricPrecision; text-rendering:geometricPrecision; image-rendering:optimizeQuality; fill-rule:evenodd; clip-rule:evenodd"
viewBox="0 0 1591 1486"
 xmlns:xlink="http://www.w3.org/1999/xlink">
 <defs>
  <style type="text/css">
   <![CDATA[
    .fil0 {fill:#2B2A29;fill-rule:nonzero}
   ]]>
  </style>
 </defs>
 <g id="Layer_x0020_1">
  <metadata id="CorelCorpID_0Corel-Layer"/>
  <path class="fil0" d="M1073 72c77,0 164,16 223,69 52,46 75,99 75,171 0,89 -52,145 -122,170 -31,11 -66,16 -101,16l-102 -1c-20,0 -62,9 -62,35 0,26 43,35 62,35 35,0 69,-2 102,-2 36,0 72,2 107,12 153,43 242,178 242,331 0,156 -37,311 -164,411 -5,-82 -120,-126 -188,-142 -59,-14 -120,-19 -181,-19 -66,0 -136,5 -200,22 -65,17 -170,61 -170,142 0,79 103,123 166,140 60,16 130,24 204,24 72,0 142,-7 207,-23 131,-32 245,-102 328,-228 65,-97 92,-211 92,-327 0,-180 -80,-310 -241,-384 88,-44 144,-107 144,-212 0,-104 -46,-183 -134,-239 -83,-54 -191,-72 -287,-72 -131,0 -280,40 -353,158 -58,93 -62,244 -62,349 0,167 7,446 -226,446 -94,0 -170,-58 -222,-135 -59,-86 -87,-207 -87,-311 0,-172 80,-370 245,-445 14,-7 23,-17 23,-28 0,-7 -4,-15 -14,-22 -13,-9 -29,-13 -45,-13 -16,0 -32,4 -45,10 -189,88 -287,296 -287,498 0,115 32,242 95,336 80,119 196,180 337,180 325,0 349,-259 349,-516 0,-106 1,-212 36,-293 37,-86 112,-143 256,-143zm-109 1352c-178,0 -262,-52 -262,-103 0,-52 93,-100 262,-100 168,0 256,52 256,100 0,49 -79,103 -256,103z"/>
 </g>
</svg>
