<?xml version="1.0" encoding="UTF-8"?>
<!DOCTYPE svg PUBLIC "-//W3C//DTD SVG 1.1//EN" "http://www.w3.org/Graphics/SVG/1.1/DTD/svg11.dtd">
<!-- Creator: CorelDRAW X8 -->
<svg xmlns="http://www.w3.org/2000/svg" xml:space="preserve" width="1137px" height="868px" version="1.1" style="shape-rendering:geometricPrecision; text-rendering:geometricPrecision; image-rendering:optimizeQuality; fill-rule:evenodd; clip-rule:evenodd"
viewBox="0 0 1137 868"
 xmlns:xlink="http://www.w3.org/1999/xlink">
 <defs>
  <style type="text/css">
   <![CDATA[
    .fil0 {fill:#B2B09C;fill-rule:nonzero}
   ]]>
  </style>
 </defs>
 <g id="Layer_x0020_1">
  <metadata id="CorelCorpID_0Corel-Layer"/>
  <path class="fil0" d="M156 9c18,-11 49,-12 69,-3 19,9 25,26 6,38 -100,64 -138,185 -133,306 5,129 55,241 136,323 88,89 213,142 358,141 128,-1 257,-53 342,-151 62,-73 103,-177 105,-303 2,-93 -26,-193 -95,-260 -28,-27 -61,-46 -98,-47 -129,-1 -132,172 -130,261 3,155 -32,284 -222,285 -90,1 -163,-34 -214,-107 -40,-55 -59,-126 -59,-193 1,-119 59,-234 171,-288 24,-12 55,-17 79,-1 18,13 11,30 -8,38 -96,41 -143,154 -144,251 0,59 17,126 52,174 29,40 70,74 123,73 120,-2 126,-146 124,-232 -3,-159 24,-317 228,-314 56,1 108,16 153,49 99,73 140,194 138,311 -3,152 -60,273 -146,356 -103,99 -252,151 -399,152 -160,2 -305,-49 -412,-139 -106,-91 -174,-221 -180,-379 -4,-134 41,-267 156,-341z"/>
 </g>
</svg>
