<?xml version="1.0" encoding="UTF-8"?>
<!DOCTYPE svg PUBLIC "-//W3C//DTD SVG 1.1//EN" "http://www.w3.org/Graphics/SVG/1.1/DTD/svg11.dtd">
<!-- Creator: CorelDRAW X8 -->
<svg xmlns="http://www.w3.org/2000/svg" xml:space="preserve" width="1692px" height="1024px" version="1.1" style="shape-rendering:geometricPrecision; text-rendering:geometricPrecision; image-rendering:optimizeQuality; fill-rule:evenodd; clip-rule:evenodd"
viewBox="0 0 1692 1024"
 xmlns:xlink="http://www.w3.org/1999/xlink">
 <defs>
  <style type="text/css">
   <![CDATA[
    .fil0 {fill:#2B2A29;fill-rule:nonzero}
   ]]>
  </style>
 </defs>
 <g id="Layer_x0020_1">
  <metadata id="CorelCorpID_0Corel-Layer"/>
  <path class="fil0" d="M1026 80c167,0 236,135 236,285 0,253 -191,484 -423,570 -15,6 -28,17 -28,30 1,28 48,34 68,34l751 0c20,0 62,-9 62,-35l0 -538c0,-117 -40,-221 -126,-300 -113,-104 -292,-126 -438,-126 -131,0 -318,26 -400,142 -66,94 -70,256 -70,367 0,166 7,445 -226,445 -94,0 -170,-58 -222,-135 -59,-86 -87,-207 -87,-311 0,-172 80,-370 245,-445 14,-7 23,-17 23,-28 0,-7 -4,-15 -14,-22 -13,-9 -29,-13 -45,-13 -16,0 -32,4 -45,10 -189,88 -287,296 -287,498 0,115 32,242 95,336 80,119 196,180 337,180 325,0 349,-259 349,-515 0,-99 -4,-217 36,-305 33,-73 98,-124 209,-124zm543 849l-520 0c189,-131 335,-327 335,-564 0,-123 -47,-251 -170,-298 80,7 170,25 248,97 75,68 107,161 107,262l0 503z"/>
 </g>
</svg>
