<?xml version="1.0" encoding="UTF-8"?>
<!DOCTYPE svg PUBLIC "-//W3C//DTD SVG 1.1//EN" "http://www.w3.org/Graphics/SVG/1.1/DTD/svg11.dtd">
<!-- Creator: CorelDRAW X8 -->
<svg xmlns="http://www.w3.org/2000/svg" xml:space="preserve" width="2645px" height="1486px" version="1.1" style="shape-rendering:geometricPrecision; text-rendering:geometricPrecision; image-rendering:optimizeQuality; fill-rule:evenodd; clip-rule:evenodd"
viewBox="0 0 2645 1486"
 xmlns:xlink="http://www.w3.org/1999/xlink">
 <defs>
  <style type="text/css">
   <![CDATA[
    .fil0 {fill:#2B2A29;fill-rule:nonzero}
   ]]>
  </style>
 </defs>
 <g id="Layer_x0020_1">
  <metadata id="CorelCorpID_0Corel-Layer"/>
  <path class="fil0" d="M2167 1024c135,0 260,-53 346,-153 -7,168 -88,354 -230,448 -20,13 -41,25 -64,37 2,-9 3,-18 3,-27 0,-91 -110,-134 -184,-152 -59,-14 -120,-19 -181,-19 -66,0 -137,5 -200,22 -64,16 -171,61 -172,141 0,80 105,124 168,141 60,17 126,24 204,24 71,0 151,-7 229,-24 92,-19 171,-48 239,-88 162,-96 257,-252 299,-476 15,-80 21,-164 21,-246 0,-108 -11,-218 -39,-323 -36,-136 -121,-261 -252,-320 -13,-6 -28,-9 -44,-9 -17,0 -33,4 -46,14 -9,7 -13,14 -13,21 0,11 10,22 24,28 166,71 231,283 231,450 0,72 -11,146 -36,213 -49,129 -163,227 -303,227 -172,0 -252,-123 -252,-288l0 -630c0,-26 -42,-35 -62,-35 -20,0 -61,9 -61,35l0 631c0,117 -46,194 -153,241 -80,36 -162,41 -248,46 68,-45 116,-103 116,-199 0,-109 -71,-180 -166,-226 92,-43 150,-108 150,-217 0,-103 -44,-182 -130,-238 -84,-54 -192,-72 -288,-72 -130,0 -280,40 -353,158 -57,93 -61,244 -61,349 0,167 6,446 -227,446 -94,0 -170,-58 -222,-135 -58,-86 -87,-207 -87,-311 0,-172 80,-370 245,-445 15,-7 23,-17 23,-28 0,-7 -4,-15 -14,-22 -13,-9 -29,-13 -45,-13 -16,0 -32,4 -45,10 -189,88 -287,296 -287,498 0,115 32,242 95,336 80,119 196,180 337,180 325,0 349,-259 349,-516 0,-106 1,-212 36,-293 38,-86 113,-143 256,-143 77,0 165,16 224,69 50,45 72,103 72,170 1,92 -53,145 -125,169 -34,12 -72,17 -110,16l-91 -1c-19,0 -61,9 -61,35 0,27 42,36 62,36 31,0 61,-2 90,-2 38,0 76,3 118,17 79,26 131,88 131,173 0,108 -82,180 -188,180 -74,0 -119,-38 -169,-38 -17,0 -34,6 -46,15 -10,7 -14,15 -14,22 0,11 9,21 23,28 106,49 269,62 386,62 112,0 236,-14 340,-60 55,-25 87,-50 130,-90 85,113 184,151 322,151zm-310 400c-179,0 -263,-52 -263,-103 0,-52 94,-100 263,-100 168,0 256,52 256,100 0,49 -80,103 -256,103z"/>
 </g>
</svg>
