<?xml version="1.0" encoding="UTF-8"?>
<!DOCTYPE svg PUBLIC "-//W3C//DTD SVG 1.1//EN" "http://www.w3.org/Graphics/SVG/1.1/DTD/svg11.dtd">
<!-- Creator: CorelDRAW X8 -->
<svg xmlns="http://www.w3.org/2000/svg" xml:space="preserve" width="1470px" height="1486px" version="1.1" style="shape-rendering:geometricPrecision; text-rendering:geometricPrecision; image-rendering:optimizeQuality; fill-rule:evenodd; clip-rule:evenodd"
viewBox="0 0 1470 1486"
 xmlns:xlink="http://www.w3.org/1999/xlink">
 <defs>
  <style type="text/css">
   <![CDATA[
    .fil0 {fill:#B2B09C;fill-rule:nonzero}
   ]]>
  </style>
 </defs>
 <g id="Layer_x0020_1">
  <metadata id="CorelCorpID_0Corel-Layer"/>
  <path class="fil0" d="M1347 556c0,137 -31,285 -116,394 -86,111 -211,150 -347,150l-608 0c-126,0 -273,30 -276,187 -3,164 147,199 276,199l1092 0c32,0 61,-25 61,-59 0,-33 -29,-59 -61,-59l-1092 0c-66,0 -149,-12 -151,-98 -2,-85 86,-101 151,-101l608 0c165,0 327,-39 441,-168 106,-122 145,-286 145,-445 0,-134 -35,-280 -115,-388 -82,-110 -204,-167 -338,-168 -318,-3 -360,270 -356,531 2,166 -6,420 -226,423 -97,1 -171,-56 -223,-135 -64,-96 -94,-220 -86,-336 10,-166 88,-349 244,-421 23,-10 33,-32 10,-49 -31,-21 -70,-13 -102,2 -174,87 -263,275 -275,465 -8,125 24,263 95,366 79,116 197,178 337,178 307,0 352,-232 348,-493 -2,-168 7,-462 234,-462 90,0 171,54 225,126 75,101 106,236 105,361z"/>
 </g>
</svg>
