<?xml version="1.0" encoding="UTF-8"?>
<!DOCTYPE svg PUBLIC "-//W3C//DTD SVG 1.1//EN" "http://www.w3.org/Graphics/SVG/1.1/DTD/svg11.dtd">
<!-- Creator: CorelDRAW X8 -->
<svg xmlns="http://www.w3.org/2000/svg" xml:space="preserve" width="1848px" height="1486px" version="1.1" style="shape-rendering:geometricPrecision; text-rendering:geometricPrecision; image-rendering:optimizeQuality; fill-rule:evenodd; clip-rule:evenodd"
viewBox="0 0 1848 1486"
 xmlns:xlink="http://www.w3.org/1999/xlink">
 <defs>
  <style type="text/css">
   <![CDATA[
    .fil0 {fill:#B2B09C;fill-rule:nonzero}
   ]]>
  </style>
 </defs>
 <g id="Layer_x0020_1">
  <metadata id="CorelCorpID_0Corel-Layer"/>
  <path class="fil0" d="M245 19c-184,129 -252,358 -244,578 8,253 106,485 295,652 184,164 424,240 666,237 235,-2 477,-89 646,-258 162,-163 236,-385 240,-614 3,-200 -63,-408 -225,-533 -70,-54 -151,-79 -239,-80 -323,-5 -361,274 -357,537 3,164 -9,413 -224,416 -97,2 -172,-57 -225,-134 -59,-87 -88,-204 -87,-308 1,-174 81,-374 245,-449 24,-11 33,-32 10,-49 -32,-23 -70,-14 -102,2 -182,93 -274,295 -276,496 0,114 31,239 96,333 81,120 194,180 338,179 302,-3 352,-227 348,-486 -3,-171 2,-469 235,-467 71,0 131,36 180,86 116,119 163,293 160,457 -3,190 -55,383 -176,531 -144,175 -364,268 -586,269 -230,2 -451,-80 -612,-249 -146,-154 -221,-356 -229,-567 -7,-203 51,-423 226,-540 23,-16 16,-38 -8,-49 -31,-15 -67,-10 -95,10z"/>
 </g>
</svg>
