<?xml version="1.0" encoding="UTF-8"?>
<!DOCTYPE svg PUBLIC "-//W3C//DTD SVG 1.1//EN" "http://www.w3.org/Graphics/SVG/1.1/DTD/svg11.dtd">
<!-- Creator: CorelDRAW X8 -->
<svg xmlns="http://www.w3.org/2000/svg" xml:space="preserve" width="2774px" height="1024px" version="1.1" style="shape-rendering:geometricPrecision; text-rendering:geometricPrecision; image-rendering:optimizeQuality; fill-rule:evenodd; clip-rule:evenodd"
viewBox="0 0 2774 1024"
 xmlns:xlink="http://www.w3.org/1999/xlink">
 <defs>
  <style type="text/css">
   <![CDATA[
    .fil0 {fill:#CC9933;fill-rule:nonzero}
   ]]>
  </style>
 </defs>
 <g id="Layer_x0020_1">
  <metadata id="CorelCorpID_0Corel-Layer"/>
  <path class="fil0" d="M2651 35l0 894 -971 0 0 -278 629 0c19,0 61,-9 61,-35l0 -270c0,-118 -50,-205 -126,-262 -74,-56 -172,-84 -272,-84 -101,0 -215,30 -300,101 -69,57 -115,139 -115,247l0 233 -298 0c42,-61 61,-112 61,-188 0,-188 -158,-294 -329,-294 -178,-1 -325,103 -333,294 -3,65 2,129 -1,194 -5,158 -25,365 -225,367 -95,1 -170,-58 -222,-135 -60,-87 -88,-211 -88,-316 2,-173 85,-367 246,-441 14,-6 23,-16 23,-27 0,-7 -4,-15 -14,-22 -13,-9 -29,-13 -46,-13 -15,0 -31,4 -44,10 -186,87 -285,290 -287,493 -1,116 31,246 95,341 81,119 195,181 337,180 282,-1 340,-189 348,-441 2,-63 -2,-126 1,-190 7,-127 78,-224 210,-224 125,0 206,100 206,224 0,77 -28,157 -96,198 -9,5 -17,14 -17,25 0,26 42,35 61,35l412 0 0 309c0,29 40,39 62,39l1093 0c20,0 62,-9 62,-35l0 -929c0,-26 -42,-35 -62,-35 -19,0 -61,9 -61,35zm-404 546l-567 0 0 -233c0,-80 30,-147 79,-195 57,-57 134,-82 212,-83 83,0 153,30 202,80 46,48 74,116 74,196l0 235z"/>
 </g>
</svg>
