<?xml version="1.0" encoding="UTF-8"?>
<!DOCTYPE svg PUBLIC "-//W3C//DTD SVG 1.1//EN" "http://www.w3.org/Graphics/SVG/1.1/DTD/svg11.dtd">
<!-- Creator: CorelDRAW X8 -->
<svg xmlns="http://www.w3.org/2000/svg" xml:space="preserve" width="2994px" height="1486px" version="1.1" style="shape-rendering:geometricPrecision; text-rendering:geometricPrecision; image-rendering:optimizeQuality; fill-rule:evenodd; clip-rule:evenodd"
viewBox="0 0 2994 1486"
 xmlns:xlink="http://www.w3.org/1999/xlink">
 <defs>
  <style type="text/css">
   <![CDATA[
    .fil0 {fill:#2B2A29;fill-rule:nonzero}
   ]]>
  </style>
 </defs>
 <g id="Layer_x0020_1">
  <metadata id="CorelCorpID_0Corel-Layer"/>
  <path class="fil0" d="M2529 1024c110,0 214,-36 295,-103 -84,166 -150,243 -327,335 -265,137 -664,160 -960,160 -270,0 -562,-20 -816,-109 -366,-129 -596,-396 -596,-794 0,-178 63,-352 214,-456 10,-7 14,-14 14,-22 0,-10 -9,-21 -22,-27 -11,-5 -25,-8 -39,-8 -17,0 -34,4 -47,13 -167,114 -245,300 -245,500 0,449 302,741 710,869 262,82 551,104 827,104 320,0 755,-30 1042,-178 204,-105 333,-261 387,-489 20,-86 28,-180 28,-269 0,-85 -11,-174 -38,-256 -40,-122 -115,-229 -240,-285 -13,-6 -28,-9 -44,-9 -17,0 -33,4 -46,14 -9,7 -13,14 -13,21 0,11 10,22 24,28 166,71 231,283 231,450 0,72 -10,146 -36,213 -49,129 -163,227 -303,227 -172,0 -252,-123 -252,-288l0 -630c0,-26 -42,-35 -62,-35 -20,0 -61,9 -61,35l0 631c0,117 -46,194 -152,241 -80,36 -163,41 -248,46 67,-45 116,-103 116,-199 0,-109 -72,-180 -166,-226 91,-43 150,-108 150,-217 0,-103 -44,-182 -131,-238 -84,-54 -191,-72 -287,-72 -131,0 -280,40 -353,158 -58,93 -62,244 -62,349 0,167 6,446 -226,446 -94,0 -170,-58 -223,-135 -58,-86 -87,-207 -87,-311 0,-172 80,-370 245,-445 15,-7 23,-17 23,-28 0,-7 -3,-15 -14,-22 -13,-9 -29,-13 -45,-13 -16,0 -32,4 -45,10 -189,88 -287,296 -287,498 0,115 32,242 95,336 80,119 196,180 338,180 324,0 348,-259 348,-516 0,-106 1,-212 37,-293 37,-86 112,-143 256,-143 77,0 164,16 223,69 50,45 72,103 73,170 0,92 -54,145 -126,169 -33,12 -71,17 -109,16l-91 -1c-19,0 -61,9 -61,35 0,27 42,36 62,36 31,0 61,-2 90,-2 38,0 76,3 118,17 78,26 131,88 131,173 0,108 -83,180 -188,180 -75,0 -120,-38 -169,-38 -17,0 -34,6 -46,15 -10,7 -14,15 -14,22 0,11 9,21 23,28 106,49 269,62 385,62 112,0 236,-14 340,-60 55,-25 87,-50 130,-90 85,113 184,151 322,151z"/>
 </g>
</svg>
