<?xml version="1.0" encoding="UTF-8"?>
<!DOCTYPE svg PUBLIC "-//W3C//DTD SVG 1.1//EN" "http://www.w3.org/Graphics/SVG/1.1/DTD/svg11.dtd">
<!-- Creator: CorelDRAW X8 -->
<svg xmlns="http://www.w3.org/2000/svg" xml:space="preserve" width="1137px" height="868px" version="1.1" style="shape-rendering:geometricPrecision; text-rendering:geometricPrecision; image-rendering:optimizeQuality; fill-rule:evenodd; clip-rule:evenodd"
viewBox="0 0 1137 868"
 xmlns:xlink="http://www.w3.org/1999/xlink">
 <defs>
  <style type="text/css">
   <![CDATA[
    .fil0 {fill:#00A0E3;fill-rule:nonzero}
   ]]>
  </style>
 </defs>
 <g id="Layer_x0020_1">
  <metadata id="CorelCorpID_0Corel-Layer"/>
  <path class="fil0" d="M156 9c-115,74 -160,207 -156,341 6,158 74,288 180,379 107,90 252,141 412,139 147,-1 296,-53 399,-152 86,-83 143,-204 146,-356 2,-117 -39,-238 -138,-311 -45,-33 -97,-48 -153,-49 -204,-3 -231,155 -228,314 2,86 -4,230 -124,232 -53,1 -94,-33 -123,-73 -35,-48 -52,-115 -52,-174 1,-97 48,-210 144,-251 19,-8 26,-25 8,-38 -24,-16 -55,-11 -79,1 -112,54 -170,169 -171,288 0,67 19,138 59,193 51,73 124,108 214,107 190,-1 225,-130 222,-285 -2,-89 1,-262 130,-261 37,1 70,20 98,47 69,67 97,167 95,260 -2,126 -43,230 -105,303 -85,98 -214,150 -342,151 -145,1 -270,-52 -358,-141 -81,-82 -131,-194 -136,-323 -5,-121 33,-242 133,-306 19,-12 13,-29 -6,-38 -20,-9 -51,-8 -69,3z"/>
 </g>
</svg>
