<?xml version="1.0" encoding="UTF-8"?>
<!DOCTYPE svg PUBLIC "-//W3C//DTD SVG 1.1//EN" "http://www.w3.org/Graphics/SVG/1.1/DTD/svg11.dtd">
<!-- Creator: CorelDRAW X8 -->
<svg xmlns="http://www.w3.org/2000/svg" xml:space="preserve" width="1848px" height="1486px" version="1.1" style="shape-rendering:geometricPrecision; text-rendering:geometricPrecision; image-rendering:optimizeQuality; fill-rule:evenodd; clip-rule:evenodd"
viewBox="0 0 1848 1486"
 xmlns:xlink="http://www.w3.org/1999/xlink">
 <defs>
  <style type="text/css">
   <![CDATA[
    .fil0 {fill:#2B2A29;fill-rule:nonzero}
   ]]>
  </style>
 </defs>
 <g id="Layer_x0020_1">
  <metadata id="CorelCorpID_0Corel-Layer"/>
  <path class="fil0" d="M1608 1228c165,-165 240,-399 240,-629 0,-196 -67,-396 -225,-518 -70,-55 -151,-81 -238,-81 -317,0 -359,253 -359,508 0,167 7,446 -226,446 -94,0 -170,-58 -222,-135 -59,-86 -87,-207 -87,-311 0,-172 80,-370 245,-445 14,-7 23,-17 23,-28 0,-7 -4,-15 -14,-22 -13,-9 -29,-13 -45,-13 -16,0 -32,4 -45,10 -189,88 -287,296 -287,498 0,115 32,242 95,336 80,119 196,180 337,180 325,0 349,-259 349,-516 0,-167 -1,-438 236,-438 70,0 132,37 180,87 113,115 160,283 160,442 0,194 -51,394 -176,546 -146,178 -374,269 -601,269 -227,0 -438,-82 -597,-249 -159,-167 -230,-372 -230,-599 0,-194 61,-397 227,-508 10,-7 14,-15 14,-22 0,-11 -8,-21 -22,-27 -12,-6 -25,-9 -38,-9 -20,0 -40,7 -57,19 -174,122 -245,334 -245,544 0,271 88,502 296,686 181,161 415,237 652,237 242,0 487,-85 660,-258z"/>
 </g>
</svg>
