<?xml version="1.0" encoding="UTF-8"?>
<!DOCTYPE svg PUBLIC "-//W3C//DTD SVG 1.1//EN" "http://www.w3.org/Graphics/SVG/1.1/DTD/svg11.dtd">
<!-- Creator: CorelDRAW X8 -->
<svg xmlns="http://www.w3.org/2000/svg" xml:space="preserve" width="914px" height="868px" version="1.1" style="shape-rendering:geometricPrecision; text-rendering:geometricPrecision; image-rendering:optimizeQuality; fill-rule:evenodd; clip-rule:evenodd"
viewBox="0 0 914 868"
 xmlns:xlink="http://www.w3.org/1999/xlink">
 <defs>
  <style type="text/css">
   <![CDATA[
    .fil0 {fill:#2B2A29;fill-rule:nonzero}
   ]]>
  </style>
 </defs>
 <g id="Layer_x0020_1">
  <metadata id="CorelCorpID_0Corel-Layer"/>
  <path class="fil0" d="M659 814c94,-48 163,-128 205,-221 33,-72 50,-153 50,-232 0,-63 -12,-131 -36,-188 -44,-102 -133,-173 -250,-173 -210,0 -231,146 -231,311 0,87 -2,235 -127,235 -51,0 -93,-34 -121,-74 -34,-47 -52,-111 -52,-170 0,-99 44,-211 144,-255 11,-4 19,-13 19,-21 0,-5 -3,-11 -11,-16 -11,-7 -23,-10 -35,-10 -17,0 -35,5 -50,13 -114,57 -164,172 -164,289 0,66 19,135 58,190 51,71 124,106 214,106 196,0 223,-130 223,-287 0,-89 -1,-258 128,-258 80,0 132,67 160,132 25,60 33,112 33,176 0,63 -13,137 -39,206 -31,82 -80,157 -146,199 -1,-51 -72,-78 -118,-88 -32,-8 -69,-12 -114,-12 -49,0 -92,5 -126,13 -73,18 -109,53 -109,87 0,35 35,69 106,87 38,10 84,15 129,15 43,0 94,-5 142,-14 41,-9 81,-21 118,-40zm-260 4c-99,0 -146,-26 -146,-52 0,-26 52,-51 146,-51 94,0 143,27 143,51 0,25 -45,52 -143,52z"/>
 </g>
</svg>
