<?xml version="1.0" encoding="UTF-8"?>
<!DOCTYPE svg PUBLIC "-//W3C//DTD SVG 1.1//EN" "http://www.w3.org/Graphics/SVG/1.1/DTD/svg11.dtd">
<!-- Creator: CorelDRAW X8 -->
<svg xmlns="http://www.w3.org/2000/svg" xml:space="preserve" width="1470px" height="1486px" version="1.1" style="shape-rendering:geometricPrecision; text-rendering:geometricPrecision; image-rendering:optimizeQuality; fill-rule:evenodd; clip-rule:evenodd"
viewBox="0 0 1470 1486"
 xmlns:xlink="http://www.w3.org/1999/xlink">
 <defs>
  <style type="text/css">
   <![CDATA[
    .fil0 {fill:#2B2A29;fill-rule:nonzero}
   ]]>
  </style>
 </defs>
 <g id="Layer_x0020_1">
  <metadata id="CorelCorpID_0Corel-Layer"/>
  <path class="fil0" d="M1361 1486c32,0 61,-25 61,-59 0,-33 -29,-59 -61,-59l-1085 0c-70,0 -151,-14 -151,-101 0,-82 87,-98 151,-98l608 0c165,0 328,-38 441,-168 107,-122 145,-286 145,-445 0,-134 -35,-280 -115,-388 -83,-111 -200,-168 -338,-168 -313,0 -359,246 -359,508 0,167 7,446 -226,446 -94,0 -170,-58 -222,-135 -59,-86 -87,-207 -87,-311 0,-172 80,-370 245,-445 14,-7 23,-17 23,-28 0,-7 -4,-15 -14,-22 -13,-9 -29,-13 -45,-13 -16,0 -32,4 -45,10 -189,88 -287,296 -287,498 0,115 32,242 95,336 80,119 196,180 337,180 325,0 349,-259 349,-516 0,-172 5,-439 236,-439 90,0 171,54 225,126 77,102 105,235 105,361 0,137 -31,285 -116,394 -86,111 -211,150 -347,150l-608 0c-130,0 -276,32 -276,192 0,160 148,194 276,194l1085 0z"/>
 </g>
</svg>
