<?xml version="1.0" encoding="UTF-8"?>
<!DOCTYPE svg PUBLIC "-//W3C//DTD SVG 1.1//EN" "http://www.w3.org/Graphics/SVG/1.1/DTD/svg11.dtd">
<!-- Creator: CorelDRAW X8 -->
<svg xmlns="http://www.w3.org/2000/svg" xml:space="preserve" width="1505px" height="1024px" version="1.1" style="shape-rendering:geometricPrecision; text-rendering:geometricPrecision; image-rendering:optimizeQuality; fill-rule:evenodd; clip-rule:evenodd"
viewBox="0 0 1505 1024"
 xmlns:xlink="http://www.w3.org/1999/xlink">
 <defs>
  <style type="text/css">
   <![CDATA[
    .fil0 {fill:#2B2A29;fill-rule:nonzero}
   ]]>
  </style>
 </defs>
 <g id="Layer_x0020_1">
  <metadata id="CorelCorpID_0Corel-Layer"/>
  <path class="fil0" d="M1073 72c77,0 164,17 223,69 50,45 73,103 73,170 1,92 -54,146 -127,170 -33,11 -70,16 -108,15l-91 -1c-19,0 -61,9 -61,35 0,27 42,36 62,36 31,0 61,-2 90,-2 38,0 76,3 118,17 79,27 130,87 130,172 0,47 -11,97 -40,133 -34,43 -96,65 -149,65 -74,1 -118,-37 -165,-37 -18,0 -35,5 -48,14 -9,6 -13,14 -13,21 0,11 8,21 22,28 63,30 135,44 204,44 75,0 153,-17 214,-61 70,-49 98,-123 98,-207 0,-110 -71,-180 -164,-225 91,-43 150,-108 150,-217 0,-103 -44,-182 -131,-238 -83,-54 -191,-72 -287,-72 -131,0 -280,40 -353,158 -58,93 -62,244 -62,350 0,166 7,445 -226,445 -94,0 -170,-58 -222,-135 -59,-86 -87,-207 -87,-311 0,-172 80,-370 245,-445 14,-7 23,-17 23,-28 0,-7 -4,-15 -14,-22 -13,-9 -29,-13 -45,-13 -16,0 -32,4 -45,10 -189,88 -287,296 -287,498 0,115 32,242 95,336 80,119 196,180 337,180 325,0 349,-259 349,-515 0,-107 1,-213 36,-294 37,-86 112,-143 256,-143z"/>
 </g>
</svg>
