<?xml version="1.0" encoding="UTF-8"?>
<!DOCTYPE svg PUBLIC "-//W3C//DTD SVG 1.1//EN" "http://www.w3.org/Graphics/SVG/1.1/DTD/svg11.dtd">
<!-- Creator: CorelDRAW X8 -->
<svg xmlns="http://www.w3.org/2000/svg" xml:space="preserve" width="2059px" height="1024px" version="1.1" style="shape-rendering:geometricPrecision; text-rendering:geometricPrecision; image-rendering:optimizeQuality; fill-rule:evenodd; clip-rule:evenodd"
viewBox="0 0 2059 1024"
 xmlns:xlink="http://www.w3.org/1999/xlink">
 <defs>
  <style type="text/css">
   <![CDATA[
    .fil0 {fill:#CC9933;fill-rule:nonzero}
   ]]>
  </style>
 </defs>
 <g id="Layer_x0020_1">
  <metadata id="CorelCorpID_0Corel-Layer"/>
  <path class="fil0" d="M1222 359l0 629c0,27 41,36 61,36 20,0 62,-9 62,-36l0 -629c0,-165 80,-289 252,-289 140,0 254,99 303,228 25,65 36,137 36,207 1,171 -65,384 -231,456 -22,10 -35,31 -11,49 24,19 63,17 90,5 194,-87 276,-305 275,-510 0,-85 -15,-172 -50,-249 -76,-165 -236,-256 -412,-256 -131,0 -222,34 -311,133 -80,-96 -164,-130 -288,-133 -148,-3 -278,75 -329,221 -35,98 -35,209 -35,313 0,161 -7,420 -221,420 -206,0 -288,-244 -291,-420 -2,-182 77,-401 257,-469 14,-5 27,-17 27,-29 0,-7 -3,-13 -10,-19 -13,-12 -30,-17 -47,-17 -17,0 -34,5 -49,11 -206,84 -303,305 -300,523 4,258 137,490 413,490 301,0 344,-235 344,-490 0,-100 -1,-205 32,-300 36,-103 120,-169 228,-164 165,7 205,146 205,289z"/>
 </g>
</svg>
