<?xml version="1.0" encoding="UTF-8"?>
<!DOCTYPE svg PUBLIC "-//W3C//DTD SVG 1.1//EN" "http://www.w3.org/Graphics/SVG/1.1/DTD/svg11.dtd">
<!-- Creator: CorelDRAW X8 -->
<svg xmlns="http://www.w3.org/2000/svg" xml:space="preserve" width="911px" height="868px" version="1.1" style="shape-rendering:geometricPrecision; text-rendering:geometricPrecision; image-rendering:optimizeQuality; fill-rule:evenodd; clip-rule:evenodd"
viewBox="0 0 911 868"
 xmlns:xlink="http://www.w3.org/1999/xlink">
 <defs>
  <style type="text/css">
   <![CDATA[
    .fil0 {fill:#2B2A29;fill-rule:nonzero}
   ]]>
  </style>
 </defs>
 <g id="Layer_x0020_1">
  <metadata id="CorelCorpID_0Corel-Layer"/>
  <path class="fil0" d="M833 868c27,0 49,-18 49,-40 0,-23 -22,-41 -49,-41l-654 0c-39,0 -79,-4 -79,-50 0,-33 26,-48 79,-48l366 0c122,0 215,-36 277,-104 65,-71 89,-166 89,-259 0,-83 -24,-166 -71,-226 -53,-68 -132,-100 -219,-100 -200,0 -222,152 -222,308 0,85 -2,237 -126,237 -53,0 -93,-33 -122,-74 -34,-49 -51,-111 -51,-171 0,-99 43,-209 143,-253 11,-4 18,-13 18,-21 0,-5 -3,-11 -11,-16 -10,-7 -23,-10 -35,-10 -15,0 -30,4 -43,11 -117,55 -171,168 -171,289 0,67 20,137 59,192 50,70 126,106 214,106 197,0 222,-133 222,-290 0,-88 2,-255 129,-255 50,0 96,30 125,68 45,58 63,134 63,205 0,78 -19,163 -69,225 -44,53 -109,85 -199,85l-366 0c-82,0 -179,19 -179,116 0,96 97,116 179,116l654 0z"/>
 </g>
</svg>
