<?xml version="1.0" encoding="UTF-8"?>
<!DOCTYPE svg PUBLIC "-//W3C//DTD SVG 1.1//EN" "http://www.w3.org/Graphics/SVG/1.1/DTD/svg11.dtd">
<!-- Creator: CorelDRAW X8 -->
<svg xmlns="http://www.w3.org/2000/svg" xml:space="preserve" width="2222px" height="1024px" version="1.1" style="shape-rendering:geometricPrecision; text-rendering:geometricPrecision; image-rendering:optimizeQuality; fill-rule:evenodd; clip-rule:evenodd"
viewBox="0 0 2222 1024"
 xmlns:xlink="http://www.w3.org/1999/xlink">
 <defs>
  <style type="text/css">
   <![CDATA[
    .fil0 {fill:#00A0E3;fill-rule:nonzero}
   ]]>
  </style>
 </defs>
 <g id="Layer_x0020_1">
  <metadata id="CorelCorpID_0Corel-Layer"/>
  <path class="fil0" d="M1222 364l0 625c0,26 42,35 61,35 19,0 61,-9 61,-35l0 -600c0,-194 109,-315 301,-319 121,-3 220,40 309,121 -137,18 -252,62 -337,178 -59,79 -89,180 -89,279 0,81 20,164 64,231 63,97 164,144 276,145 118,1 220,-55 282,-159 49,-83 71,-185 72,-281 2,-135 -32,-267 -115,-375 -114,-149 -280,-208 -461,-209 -142,0 -252,39 -355,139 -79,-100 -166,-136 -292,-139 -149,-3 -279,75 -330,220 -34,99 -34,210 -35,314 0,161 -7,419 -221,419 -206,0 -288,-243 -290,-419 -3,-183 76,-401 256,-469 22,-8 39,-29 17,-48 -27,-24 -65,-19 -95,-6 -207,84 -304,305 -301,523 4,258 137,490 413,490 302,0 344,-235 344,-490 0,-100 -1,-205 32,-300 36,-103 120,-169 229,-164 167,7 204,150 204,294zm789 -104c65,100 90,205 88,324 -1,89 -19,182 -65,259 -37,63 -89,111 -165,111 -70,-1 -125,-41 -163,-99 -39,-60 -56,-135 -56,-207 0,-90 26,-179 79,-252 71,-96 167,-136 282,-136z"/>
 </g>
</svg>
