<?xml version="1.0" encoding="UTF-8"?>
<!DOCTYPE svg PUBLIC "-//W3C//DTD SVG 1.1//EN" "http://www.w3.org/Graphics/SVG/1.1/DTD/svg11.dtd">
<!-- Creator: CorelDRAW X8 -->
<svg xmlns="http://www.w3.org/2000/svg" xml:space="preserve" width="2993px" height="1486px" version="1.1" style="shape-rendering:geometricPrecision; text-rendering:geometricPrecision; image-rendering:optimizeQuality; fill-rule:evenodd; clip-rule:evenodd"
viewBox="0 0 2993 1486"
 xmlns:xlink="http://www.w3.org/1999/xlink">
 <defs>
  <style type="text/css">
   <![CDATA[
    .fil0 {fill:#CC9933;fill-rule:nonzero}
   ]]>
  </style>
 </defs>
 <g id="Layer_x0020_1">
  <metadata id="CorelCorpID_0Corel-Layer"/>
  <path class="fil0" d="M1351 962c106,50 270,62 385,62 113,0 236,-14 340,-60 54,-23 88,-57 130,-96 85,112 185,156 323,156 127,0 237,-57 307,-128 -91,184 -154,264 -340,360 -253,131 -645,158 -925,160 -281,2 -584,-16 -850,-109 -355,-125 -587,-383 -596,-774 -5,-186 57,-368 214,-476 10,-7 14,-14 14,-22 0,-10 -9,-21 -22,-27 -11,-5 -25,-8 -39,-8 -18,0 -35,4 -47,13 -172,117 -249,309 -245,515 9,446 308,728 710,854 273,86 578,106 863,104 308,-3 728,-34 1005,-178 204,-105 333,-261 387,-489 20,-86 28,-180 28,-269 0,-76 -9,-154 -29,-228 -38,-139 -116,-254 -249,-313 -13,-6 -29,-9 -44,-9 -17,0 -33,4 -46,14 -9,6 -13,13 -13,20 0,12 10,22 25,29 161,69 228,272 230,437 1,74 -9,152 -35,221 -50,129 -164,233 -303,233 -172,0 -253,-129 -253,-293l0 -626c0,-26 -42,-35 -62,-35 -19,0 -61,9 -61,35l0 627c0,115 -46,200 -152,247 -80,36 -163,41 -248,46 68,-56 117,-118 117,-212 0,-113 -75,-174 -167,-218 92,-44 151,-105 150,-215 -1,-102 -46,-183 -132,-238 -84,-54 -196,-72 -294,-71 -127,1 -274,42 -345,157 -61,98 -64,229 -62,341 3,169 2,452 -225,456 -96,1 -171,-58 -224,-134 -59,-87 -88,-217 -87,-321 2,-172 85,-365 246,-438 13,-6 22,-16 23,-27 0,-7 -4,-15 -14,-22 -13,-9 -29,-13 -46,-13 -15,0 -31,4 -44,10 -186,86 -285,288 -287,490 -1,114 30,251 95,346 81,118 196,179 337,178 320,-1 353,-260 348,-524 -1,-101 1,-192 38,-287 40,-101 146,-141 246,-142 78,0 171,16 232,69 50,44 72,104 73,170 0,81 -40,139 -115,166 -66,23 -141,19 -211,19 -20,0 -61,9 -61,35 0,26 42,35 62,35 73,0 135,-9 208,16 73,24 126,83 131,161 8,111 -77,192 -182,194 -44,1 -95,-9 -135,-28 -10,-5 -24,-7 -38,-7 -17,-1 -35,3 -48,12 -9,7 -14,14 -14,21 0,11 9,22 23,28z"/>
 </g>
</svg>
