<?xml version="1.0" encoding="UTF-8"?>
<!DOCTYPE svg PUBLIC "-//W3C//DTD SVG 1.1//EN" "http://www.w3.org/Graphics/SVG/1.1/DTD/svg11.dtd">
<!-- Creator: CorelDRAW X8 -->
<svg xmlns="http://www.w3.org/2000/svg" xml:space="preserve" width="1476px" height="1486px" version="1.1" style="shape-rendering:geometricPrecision; text-rendering:geometricPrecision; image-rendering:optimizeQuality; fill-rule:evenodd; clip-rule:evenodd"
viewBox="0 0 1475 1485"
 xmlns:xlink="http://www.w3.org/1999/xlink">
 <defs>
  <style type="text/css">
   <![CDATA[
    .fil0 {fill:#B2B09C}
   ]]>
  </style>
 </defs>
 <g id="Layer_x0020_1">
  <metadata id="CorelCorpID_0Corel-Layer"/>
  <path class="fil0" d="M643 1219c53,0 108,5 159,20 35,11 96,37 97,81 0,45 -63,72 -98,82 -51,15 -105,20 -158,20 -60,0 -132,-6 -188,-28 -30,-12 -74,-37 -73,-74 0,-37 44,-61 73,-73 56,-22 128,-28 188,-28zm366 125c3,-9 3,-18 3,-27 -8,-90 -115,-124 -188,-141 -59,-14 -120,-19 -181,-19 -66,0 -136,5 -200,22 -63,17 -170,60 -170,141 0,79 103,124 166,141 63,17 138,24 203,23 57,0 115,-5 171,-13 54,-8 108,-21 160,-39 192,-68 332,-222 414,-407 53,-120 83,-252 87,-383 4,-120 -12,-238 -57,-349 -70,-171 -213,-294 -401,-293 -326,3 -362,270 -358,539 3,166 -10,414 -227,415 -95,1 -169,-58 -221,-134 -64,-93 -94,-223 -86,-336 10,-166 89,-351 245,-422 23,-10 33,-32 9,-49 -34,-24 -76,-11 -110,7 -168,89 -255,275 -267,461 -8,124 24,262 94,364 81,118 195,178 336,178 304,0 354,-224 350,-485 -3,-170 3,-470 235,-468 142,1 231,117 281,238 42,101 55,222 57,330 1,110 -19,224 -54,328 -54,157 -142,296 -291,378z"/>
 </g>
</svg>
