<?xml version="1.0" encoding="UTF-8"?>
<!DOCTYPE svg PUBLIC "-//W3C//DTD SVG 1.1//EN" "http://www.w3.org/Graphics/SVG/1.1/DTD/svg11.dtd">
<!-- Creator: CorelDRAW X8 -->
<svg xmlns="http://www.w3.org/2000/svg" xml:space="preserve" width="911px" height="868px" version="1.1" style="shape-rendering:geometricPrecision; text-rendering:geometricPrecision; image-rendering:optimizeQuality; fill-rule:evenodd; clip-rule:evenodd"
viewBox="0 0 911 868"
 xmlns:xlink="http://www.w3.org/1999/xlink">
 <defs>
  <style type="text/css">
   <![CDATA[
    .fil0 {fill:#B2B09C;fill-rule:nonzero}
   ]]>
  </style>
 </defs>
 <g id="Layer_x0020_1">
  <metadata id="CorelCorpID_0Corel-Layer"/>
  <path class="fil0" d="M813 326c0,-77 -21,-151 -63,-205 -33,-42 -79,-68 -124,-68 -127,0 -131,170 -130,257 3,156 -28,290 -222,290 -88,0 -164,-36 -214,-107 -43,-60 -63,-140 -58,-213 7,-112 63,-219 170,-270 24,-11 55,-16 78,0 19,13 12,29 -7,37 -92,40 -137,143 -143,235 -5,66 13,137 51,191 29,41 69,74 123,74 122,-2 126,-150 124,-237 -2,-157 26,-312 228,-310 85,1 163,34 214,101 47,59 71,142 71,225 0,93 -24,188 -89,259 -62,68 -156,102 -277,102l-366 0c-54,0 -80,16 -80,51 1,36 28,49 80,49l658 0c27,0 50,18 50,41 0,22 -23,40 -50,40l-658 0c-83,0 -181,-21 -179,-120 2,-72 57,-114 179,-114l366 0c90,0 155,-30 199,-83 50,-63 69,-147 69,-225z"/>
 </g>
</svg>
