<?xml version="1.0" encoding="UTF-8"?>
<!DOCTYPE svg PUBLIC "-//W3C//DTD SVG 1.1//EN" "http://www.w3.org/Graphics/SVG/1.1/DTD/svg11.dtd">
<!-- Creator: CorelDRAW X8 -->
<svg xmlns="http://www.w3.org/2000/svg" xml:space="preserve" width="2628px" height="1024px" version="1.1" style="shape-rendering:geometricPrecision; text-rendering:geometricPrecision; image-rendering:optimizeQuality; fill-rule:evenodd; clip-rule:evenodd"
viewBox="0 0 2628 1024"
 xmlns:xlink="http://www.w3.org/1999/xlink">
 <defs>
  <style type="text/css">
   <![CDATA[
    .fil0 {fill:#2B2A29;fill-rule:nonzero}
   ]]>
  </style>
 </defs>
 <g id="Layer_x0020_1">
  <metadata id="CorelCorpID_0Corel-Layer"/>
  <path class="fil0" d="M1491 326c0,-5 0,-9 0,-14 0,-103 -44,-184 -132,-239 -82,-54 -190,-72 -286,-72l-8 0c-127,1 -274,42 -345,158 -54,86 -62,198 -62,302l1 95c0,169 -22,395 -226,398l-2 0c-95,0 -169,-59 -221,-135 -60,-87 -88,-211 -88,-316 2,-173 85,-367 246,-441 14,-6 23,-16 23,-27 0,-7 -4,-15 -14,-22 -13,-9 -29,-13 -45,-13 -16,0 -32,4 -45,10 -186,87 -285,290 -287,493l0 5c0,114 32,241 95,336 80,118 193,180 334,180l3 0c302,-2 348,-228 348,-477l0 -76c0,-89 5,-171 38,-257 40,-102 146,-142 246,-142l6 0c77,0 167,17 226,69 50,45 72,104 72,171 0,5 0,9 0,14l123 0z"/>
  <path class="fil0" d="M2166 1024c176,0 337,-91 412,-256 37,-79 50,-167 50,-254 0,-200 -82,-418 -275,-505 -13,-6 -28,-9 -44,-9 -17,0 -33,4 -46,14 -9,7 -13,14 -13,21 0,11 10,22 24,28 166,72 231,283 231,450 0,72 -10,146 -36,213 -49,129 -163,227 -303,227 -172,0 -252,-123 -252,-288l0 -630c0,-26 -42,-35 -62,-35 -20,0 -61,9 -61,35l0 631c0,117 -46,194 -152,241 -80,36 -163,41 -248,46 67,-45 116,-103 116,-199 0,-108 -72,-180 -166,-226 91,-43 150,-108 150,-217 0,-103 -44,-182 -131,-238 -83,-54 -191,-72 -287,-72 -131,0 -280,40 -353,158 -58,93 -62,244 -62,350 0,166 7,445 -226,445 -94,0 -170,-58 -222,-135 -59,-86 -87,-207 -87,-311 0,-172 80,-370 245,-445 14,-7 23,-17 23,-28 0,-7 -4,-15 -14,-22 -13,-9 -29,-13 -45,-13 -16,0 -32,4 -45,10 -189,88 -287,296 -287,498 0,115 32,242 95,336 80,119 196,180 337,180 325,0 349,-259 349,-515 0,-107 1,-213 36,-294 37,-86 112,-143 256,-143 77,0 164,17 223,69 50,45 73,103 73,170 1,92 -54,145 -125,169 -34,12 -72,17 -110,16l-91 -1c-19,0 -61,9 -61,35 0,27 42,36 62,36 31,0 61,-2 90,-2 38,0 76,3 118,17 78,26 131,88 131,173 0,108 -83,180 -188,180 -75,0 -120,-38 -169,-38 -17,0 -34,6 -46,15 -10,7 -14,15 -14,22 0,11 9,21 23,28 106,49 269,62 385,62 112,0 236,-14 340,-60 55,-25 87,-50 130,-90 85,113 184,151 322,151z"/>
 </g>
</svg>
