<?xml version="1.0" encoding="UTF-8"?>
<!DOCTYPE svg PUBLIC "-//W3C//DTD SVG 1.1//EN" "http://www.w3.org/Graphics/SVG/1.1/DTD/svg11.dtd">
<!-- Creator: CorelDRAW X8 -->
<svg xmlns="http://www.w3.org/2000/svg" xml:space="preserve" width="914px" height="868px" version="1.1" style="shape-rendering:geometricPrecision; text-rendering:geometricPrecision; image-rendering:optimizeQuality; fill-rule:evenodd; clip-rule:evenodd"
viewBox="0 0 910 864"
 xmlns:xlink="http://www.w3.org/1999/xlink">
 <defs>
  <style type="text/css">
   <![CDATA[
    .fil0 {fill:#B2B09C}
   ]]>
  </style>
 </defs>
 <g id="Layer_x0020_1">
  <metadata id="CorelCorpID_0Corel-Layer"/>
  <path class="fil0" d="M398 712c-46,0 -82,6 -106,15 -26,10 -39,23 -39,36 -1,14 12,27 39,37 23,9 60,15 106,15 38,0 66,-4 89,-10 35,-10 53,-26 53,-42 0,-15 -18,-31 -52,-40 -23,-7 -52,-11 -90,-11zm231 51c74,-47 122,-121 152,-204 22,-62 33,-128 32,-187 -1,-67 -10,-134 -33,-187 -34,-77 -88,-131 -158,-132 -129,-1 -130,172 -129,260 3,156 -31,284 -222,284 -89,1 -162,-34 -213,-105 -43,-60 -62,-140 -57,-212 7,-109 60,-215 163,-267 25,-12 60,-20 84,-3 19,13 11,29 -7,37 -92,40 -137,143 -143,235 -4,64 13,138 51,191 28,39 70,73 122,72 120,0 126,-145 125,-231 -3,-161 21,-313 226,-314 118,-1 209,71 253,173 28,64 37,133 35,201 -3,75 -21,152 -53,221 -50,108 -136,198 -254,238 -32,11 -65,18 -100,23 -35,5 -71,8 -105,8 -40,1 -89,-4 -128,-14 -71,-19 -107,-53 -107,-87 1,-34 37,-68 110,-87 33,-8 76,-13 125,-13 45,0 81,4 113,12 46,10 117,37 118,88z"/>
 </g>
</svg>
