<?xml version="1.0" encoding="UTF-8"?>
<!DOCTYPE svg PUBLIC "-//W3C//DTD SVG 1.1//EN" "http://www.w3.org/Graphics/SVG/1.1/DTD/svg11.dtd">
<!-- Creator: CorelDRAW X8 -->
<svg xmlns="http://www.w3.org/2000/svg" xml:space="preserve" width="1591px" height="1486px" version="1.1" style="shape-rendering:geometricPrecision; text-rendering:geometricPrecision; image-rendering:optimizeQuality; fill-rule:evenodd; clip-rule:evenodd"
viewBox="0 0 1591 1486"
 xmlns:xlink="http://www.w3.org/1999/xlink">
 <defs>
  <style type="text/css">
   <![CDATA[
    .fil0 {fill:#CC9933}
   ]]>
  </style>
 </defs>
 <g id="Layer_x0020_1">
  <metadata id="CorelCorpID_0Corel-Layer"/>
  <path class="fil0" d="M964 1221c53,0 108,5 160,20 34,10 96,36 96,80 1,46 -63,72 -98,83 -51,15 -105,20 -158,20 -60,0 -132,-6 -188,-29 -30,-11 -74,-36 -74,-74 1,-36 45,-61 74,-72 56,-22 128,-28 188,-28zm103 -1151c80,0 169,17 231,71 51,44 73,103 73,170 1,80 -39,141 -114,167 -67,23 -142,19 -211,19 -20,0 -62,9 -62,35 0,27 43,35 63,35 70,0 139,-9 208,10 154,43 230,178 242,331 8,96 -9,199 -52,285 -31,62 -62,92 -111,136 0,-8 -1,-16 -2,-23 -16,-73 -123,-114 -187,-129 -59,-14 -120,-18 -181,-18 -66,0 -136,5 -200,22 -63,16 -170,60 -171,141 0,79 104,123 167,141 63,17 138,24 204,23 78,-1 154,-6 229,-30 65,-20 124,-49 177,-87 50,-36 94,-80 130,-133 64,-98 91,-211 91,-328 0,-180 -80,-310 -241,-383 89,-45 145,-107 144,-214 -1,-103 -46,-183 -132,-238 -85,-53 -196,-74 -295,-73 -126,1 -273,42 -345,157 -60,98 -66,238 -64,351 3,171 0,450 -232,448 -92,-1 -166,-60 -216,-134 -60,-87 -88,-210 -87,-314 1,-172 86,-371 247,-445 11,-5 23,-14 23,-27 0,-9 -6,-17 -13,-22 -13,-9 -30,-14 -46,-14 -16,0 -31,5 -44,11 -186,86 -288,295 -290,497 -1,115 31,244 95,339 79,115 194,177 332,178 324,3 358,-250 354,-517 -2,-101 2,-201 40,-296 40,-101 145,-141 246,-142z"/>
 </g>
</svg>
