<?xml version="1.0" encoding="UTF-8"?>
<!DOCTYPE svg PUBLIC "-//W3C//DTD SVG 1.1//EN" "http://www.w3.org/Graphics/SVG/1.1/DTD/svg11.dtd">
<!-- Creator: CorelDRAW X8 -->
<svg xmlns="http://www.w3.org/2000/svg" xml:space="preserve" width="2500px" height="1486px" version="1.1" style="shape-rendering:geometricPrecision; text-rendering:geometricPrecision; image-rendering:optimizeQuality; fill-rule:evenodd; clip-rule:evenodd"
viewBox="0 0 2500 1486"
 xmlns:xlink="http://www.w3.org/1999/xlink">
 <defs>
  <style type="text/css">
   <![CDATA[
    .fil0 {fill:#2B2A29;fill-rule:nonzero}
   ]]>
  </style>
 </defs>
 <g id="Layer_x0020_1">
  <metadata id="CorelCorpID_0Corel-Layer"/>
  <path class="fil0" d="M1400 1486c236,0 522,-14 741,-90 173,-60 359,-185 359,-391l0 -970c0,-26 -42,-35 -62,-35 -19,0 -61,9 -61,35l0 895 -971 0 0 -280 629 0c19,0 61,-8 61,-35l0 -272c0,-227 -192,-343 -398,-343 -196,0 -416,112 -416,345l0 235 -298 0c42,-60 62,-115 62,-190 0,-187 -158,-292 -330,-292 -171,0 -332,105 -332,292 0,111 54,214 156,263 13,6 29,10 45,10 16,0 33,-4 45,-13 10,-7 14,-15 14,-22 0,-11 -9,-21 -23,-27 -79,-36 -114,-128 -114,-211 0,-124 84,-222 209,-222 126,0 206,99 206,222 0,77 -27,160 -96,201 -10,6 -17,15 -17,24 0,27 43,35 61,35l412 0 0 311c0,28 40,39 63,39l1032 0c-7,191 -133,279 -300,336 -197,67 -464,80 -677,80 -384,0 -802,-34 -1078,-337 -127,-139 -199,-313 -199,-504 0,-189 77,-404 232,-519 9,-7 12,-14 12,-20 0,-12 -10,-23 -24,-29 -11,-5 -24,-7 -37,-7 -18,0 -36,4 -49,14 -169,126 -257,352 -257,561 0,219 91,418 247,571 302,296 751,340 1153,340zm573 -906l-567 0 0 -235c0,-168 132,-275 291,-275 161,0 276,109 276,274l0 236z"/>
 </g>
</svg>
