<?xml version="1.0" encoding="UTF-8"?>
<!DOCTYPE svg PUBLIC "-//W3C//DTD SVG 1.1//EN" "http://www.w3.org/Graphics/SVG/1.1/DTD/svg11.dtd">
<!-- Creator: CorelDRAW X8 -->
<svg xmlns="http://www.w3.org/2000/svg" xml:space="preserve" width="1702px" height="1486px" version="1.1" style="shape-rendering:geometricPrecision; text-rendering:geometricPrecision; image-rendering:optimizeQuality; fill-rule:evenodd; clip-rule:evenodd"
viewBox="0 0 1702 1486"
 xmlns:xlink="http://www.w3.org/1999/xlink">
 <defs>
  <style type="text/css">
   <![CDATA[
    .fil0 {fill:#00A0E3;fill-rule:nonzero}
   ]]>
  </style>
 </defs>
 <g id="Layer_x0020_1">
  <metadata id="CorelCorpID_0Corel-Layer"/>
  <path class="fil0" d="M846 1221c53,0 109,4 160,20 34,10 96,36 96,80 1,45 -63,72 -98,83 -51,15 -105,19 -158,19 -60,0 -132,-6 -188,-28 -30,-12 -74,-36 -73,-74 0,-37 44,-61 73,-73 56,-21 129,-27 188,-27zm604 -640c96,74 133,198 129,315 -8,237 -152,394 -376,471 5,-14 8,-33 8,-46 0,-85 -117,-128 -183,-144 -60,-14 -121,-19 -182,-19 -65,0 -136,6 -199,22 -64,17 -171,61 -171,141 0,80 103,124 166,141 65,18 134,24 201,24 60,0 119,-3 178,-10 85,-11 166,-31 246,-60 235,-85 425,-267 435,-524 5,-147 -54,-289 -181,-371 -61,-40 -138,-61 -227,-61 -20,0 -39,0 -59,0 -5,-96 -19,-200 -65,-286 -70,-127 -188,-174 -327,-174 -124,0 -204,30 -291,120 -69,-83 -142,-120 -251,-120 -80,0 -164,26 -224,81 -49,45 -77,104 -77,172 0,68 28,135 78,182 27,25 54,44 87,61 -34,18 -61,30 -88,58 -49,49 -76,125 -77,195 0,71 26,138 76,188 59,58 143,87 225,87 115,-1 178,-43 238,-138 42,49 74,82 136,108 46,19 102,30 169,30 137,0 253,-46 323,-171 53,-95 66,-216 69,-323 19,0 39,0 58,0 60,0 113,17 156,51zm-1033 -461c50,51 63,131 50,200 -9,45 -13,94 -16,140l-102 0c-62,0 -119,-17 -166,-61 -40,-38 -61,-92 -60,-147 0,-51 21,-99 59,-134 32,-30 75,-49 118,-48 44,0 86,19 117,50zm47 563c13,74 2,160 -51,218 -29,32 -69,53 -113,53 -44,0 -86,-21 -117,-52 -41,-41 -61,-97 -60,-155 1,-56 22,-119 61,-159 45,-45 103,-58 165,-58l102 0c1,50 4,103 13,153zm649 -153c-2,100 -13,214 -63,302 -45,81 -114,122 -206,122 -52,0 -94,-13 -128,-35 -33,-21 -59,-51 -79,-86 -50,-89 -61,-202 -64,-303l540 0zm-539 -70c4,-89 16,-185 60,-264 45,-83 115,-126 209,-126 94,0 164,42 209,125 44,79 56,176 61,265l-539 0z"/>
 </g>
</svg>
