<?xml version="1.0" encoding="UTF-8"?>
<!DOCTYPE svg PUBLIC "-//W3C//DTD SVG 1.1//EN" "http://www.w3.org/Graphics/SVG/1.1/DTD/svg11.dtd">
<!-- Creator: CorelDRAW X8 -->
<svg xmlns="http://www.w3.org/2000/svg" xml:space="preserve" width="2504px" height="1024px" version="1.1" style="shape-rendering:geometricPrecision; text-rendering:geometricPrecision; image-rendering:optimizeQuality; fill-rule:evenodd; clip-rule:evenodd"
viewBox="0 0 2504 1024"
 xmlns:xlink="http://www.w3.org/1999/xlink">
 <defs>
  <style type="text/css">
   <![CDATA[
    .fil0 {fill:#2B2A29;fill-rule:nonzero}
   ]]>
  </style>
 </defs>
 <g id="Layer_x0020_1">
  <metadata id="CorelCorpID_0Corel-Layer"/>
  <path class="fil0" d="M2167 1024c160,-1 337,-74 337,-258 0,-114 -69,-192 -166,-234 87,-49 144,-123 144,-228 0,-226 -211,-304 -404,-303 -159,0 -287,29 -391,158 -111,-138 -238,-156 -399,-156 -70,0 -134,12 -204,35 -114,-28 -226,-38 -344,-38 -108,0 -219,10 -323,39 -116,32 -222,88 -301,182 -83,99 -116,221 -116,349 0,133 42,295 145,382 59,50 130,72 206,72 76,0 147,-24 206,-74 70,-59 102,-154 102,-244 0,-78 -22,-154 -76,-212 -56,-61 -139,-94 -221,-94 -111,0 -220,61 -252,172 -7,-109 17,-209 86,-297 61,-77 141,-129 233,-161 99,-34 207,-44 312,-44 80,0 155,7 235,19 -166,113 -227,252 -227,450 0,243 119,485 385,485 173,0 297,-100 297,-280 0,-115 -57,-177 -157,-220 74,-45 130,-103 130,-195 0,-51 -16,-94 -43,-132 -41,-57 -93,-86 -153,-117 26,-3 54,-7 80,-7 96,0 191,22 258,93 58,60 83,140 83,223l0 600c0,26 41,35 61,35 19,0 61,-9 61,-35l0 -597c0,-216 122,-321 327,-321 144,-1 281,66 282,233 0,86 -43,141 -105,170 -42,20 -93,28 -144,27l-81 -2c-21,0 -63,8 -63,34 0,26 40,36 60,36l84 0c52,0 103,2 153,23 71,30 117,96 117,174 0,124 -100,189 -214,188 -73,-1 -127,-38 -175,-38 -18,0 -37,6 -49,16 -9,7 -12,14 -12,20 0,12 10,23 25,29 66,28 139,43 211,43zm-1033 -70c-190,0 -262,-259 -262,-415 0,-183 60,-328 224,-418 52,21 102,46 140,91 28,32 44,70 44,117 0,58 -29,103 -72,132 -29,18 -63,30 -98,34 -14,2 -30,2 -44,3 -20,1 -54,10 -54,35 0,24 36,34 56,34l40 0c44,0 86,9 120,29 49,27 81,76 81,148 0,106 -58,210 -175,210zm-783 0c-131,0 -196,-115 -196,-239 0,-121 66,-239 196,-239 131,0 194,119 193,239 0,117 -63,239 -193,239z"/>
 </g>
</svg>
