<?xml version="1.0" encoding="UTF-8"?>
<!DOCTYPE svg PUBLIC "-//W3C//DTD SVG 1.1//EN" "http://www.w3.org/Graphics/SVG/1.1/DTD/svg11.dtd">
<!-- Creator: CorelDRAW X8 -->
<svg xmlns="http://www.w3.org/2000/svg" xml:space="preserve" width="1687px" height="1024px" version="1.1" style="shape-rendering:geometricPrecision; text-rendering:geometricPrecision; image-rendering:optimizeQuality; fill-rule:evenodd; clip-rule:evenodd"
viewBox="0 0 1687 1024"
 xmlns:xlink="http://www.w3.org/1999/xlink">
 <defs>
  <style type="text/css">
   <![CDATA[
    .fil0 {fill:#00A0E3;fill-rule:nonzero}
   ]]>
  </style>
 </defs>
 <g id="Layer_x0020_1">
  <metadata id="CorelCorpID_0Corel-Layer"/>
  <path class="fil0" d="M844 0c-125,0 -204,30 -291,120 -70,-83 -143,-120 -252,-120 -80,0 -164,26 -224,82 -49,45 -77,105 -77,172 0,69 28,137 78,184 27,26 54,41 87,58 -34,18 -61,34 -88,62 -49,50 -76,119 -77,190 -1,71 26,138 76,188 59,59 143,88 225,88 115,0 178,-43 238,-139 89,104 169,139 305,139 137,0 253,-46 323,-172 54,-96 67,-214 69,-322l92 0c73,0 145,24 192,84 31,39 46,90 45,140 0,44 -16,90 -41,125 -32,46 -78,73 -133,74 -17,0 -34,-3 -51,-8 -25,-7 -64,-5 -83,14 -20,22 4,41 25,48 35,11 71,17 108,16 79,0 162,-30 220,-87 50,-49 77,-113 77,-185 0,-88 -33,-164 -103,-217 -71,-55 -168,-75 -256,-75l-92 0c-5,-96 -19,-198 -66,-283 -70,-129 -187,-176 -326,-176zm-495 459c-62,0 -119,-13 -166,-57 -40,-38 -61,-93 -60,-148 0,-52 21,-100 59,-135 32,-30 75,-49 118,-49 44,0 86,20 117,51 50,52 63,132 50,201 -9,46 -13,91 -16,137l-102 0zm115 221c12,75 1,163 -51,220 -29,32 -70,54 -113,54 -44,0 -86,-21 -117,-52 -42,-42 -61,-98 -60,-157 1,-56 22,-113 61,-153 45,-45 103,-62 165,-62l102 0c1,51 4,100 13,150zm650 -150c-3,101 -14,212 -63,301 -46,81 -115,123 -207,123 -92,0 -161,-41 -207,-122 -50,-89 -61,-201 -64,-302l541 0zm-540 -71c4,-89 17,-183 60,-262 45,-84 116,-127 210,-127 93,0 163,43 209,126 43,80 55,174 60,264l-539 -1z"/>
 </g>
</svg>
