<?xml version="1.0" encoding="UTF-8"?>
<!DOCTYPE svg PUBLIC "-//W3C//DTD SVG 1.1//EN" "http://www.w3.org/Graphics/SVG/1.1/DTD/svg11.dtd">
<!-- Creator: CorelDRAW X8 -->
<svg xmlns="http://www.w3.org/2000/svg" xml:space="preserve" width="2112px" height="1486px" version="1.1" style="shape-rendering:geometricPrecision; text-rendering:geometricPrecision; image-rendering:optimizeQuality; fill-rule:evenodd; clip-rule:evenodd"
viewBox="0 0 2112 1486"
 xmlns:xlink="http://www.w3.org/1999/xlink">
 <defs>
  <style type="text/css">
   <![CDATA[
    .fil0 {fill:#00A0E3;fill-rule:nonzero}
   ]]>
  </style>
 </defs>
 <g id="Layer_x0020_1">
  <metadata id="CorelCorpID_0Corel-Layer"/>
  <path class="fil0" d="M623 496c-33,18 -60,30 -87,57 -49,50 -77,126 -77,196 -1,71 26,138 76,187 59,59 143,88 225,87 114,0 177,-41 238,-138 88,103 168,138 304,138 137,0 254,-46 324,-170 53,-95 66,-216 69,-323l66 0c42,0 92,2 127,28 79,60 105,174 101,270 -8,176 -122,330 -262,426 -169,116 -393,164 -595,163 -260,-2 -539,-76 -741,-249 -182,-156 -270,-364 -267,-605 2,-194 68,-395 234,-506 24,-15 17,-37 -6,-49 -25,-12 -64,-11 -87,4 -183,122 -263,336 -265,551 -3,278 110,513 330,679 221,166 529,241 801,244 229,2 474,-46 668,-175 163,-107 305,-278 313,-484 4,-115 -32,-240 -126,-311 -66,-50 -143,-57 -223,-57l-69 0c-5,-96 -19,-200 -65,-285 -70,-127 -188,-174 -327,-174 -124,0 -203,30 -291,120 -69,-84 -143,-120 -251,-120 -80,0 -165,26 -224,81 -49,45 -77,104 -77,171 0,69 28,136 78,182 27,26 54,45 86,62zm253 -376c50,51 63,131 50,200 -9,45 -14,94 -16,140l-103 0c-62,0 -118,-18 -165,-62 -40,-37 -61,-91 -60,-146 0,-51 21,-99 58,-134 33,-30 75,-49 119,-48 44,0 86,19 117,50zm47 562c12,75 1,161 -51,218 -29,32 -70,54 -113,54 -44,0 -86,-21 -118,-52 -41,-41 -61,-97 -59,-155 1,-56 22,-120 61,-160 44,-45 103,-57 165,-57l102 0c1,50 4,103 13,152zm649 -152c-2,100 -13,213 -63,302 -45,81 -115,121 -207,121 -91,0 -161,-40 -206,-121 -50,-88 -61,-202 -64,-302l540 0zm-539 -70c4,-89 16,-185 60,-264 45,-83 115,-126 209,-126 94,0 164,42 209,125 44,79 56,176 61,265l-539 0z"/>
 </g>
</svg>
