<?xml version="1.0" encoding="UTF-8"?>
<!DOCTYPE svg PUBLIC "-//W3C//DTD SVG 1.1//EN" "http://www.w3.org/Graphics/SVG/1.1/DTD/svg11.dtd">
<!-- Creator: CorelDRAW X8 -->
<svg xmlns="http://www.w3.org/2000/svg" xml:space="preserve" width="1702px" height="1486px" version="1.1" style="shape-rendering:geometricPrecision; text-rendering:geometricPrecision; image-rendering:optimizeQuality; fill-rule:evenodd; clip-rule:evenodd"
viewBox="0 0 1702 1486"
 xmlns:xlink="http://www.w3.org/1999/xlink">
 <defs>
  <style type="text/css">
   <![CDATA[
    .fil0 {fill:#00A0E3;fill-rule:nonzero}
   ]]>
  </style>
 </defs>
 <g id="Layer_x0020_1">
  <metadata id="CorelCorpID_0Corel-Layer"/>
  <path class="fil0" d="M842 1430c-66,-1 -144,-5 -205,-33 -42,-19 -74,-52 -73,-101 2,-61 72,-84 122,-83 66,0 106,42 106,108 0,24 32,31 51,31 19,0 51,-7 51,-31 0,-66 40,-108 106,-108 50,-1 120,22 122,83 2,49 -31,82 -72,101 -62,28 -141,33 -208,33zm-677 -934c-34,18 -61,30 -88,58 -49,49 -76,125 -77,195 0,71 26,138 76,188 59,58 143,87 225,87 115,-1 178,-43 238,-138 88,103 169,138 305,138 137,0 253,-46 323,-171 54,-95 66,-215 69,-323l58 0c60,0 113,17 156,51 92,71 130,187 129,301 0,105 -32,212 -95,295 -81,107 -181,154 -300,201 14,-16 27,-45 27,-82 0,-45 -28,-79 -64,-102 -40,-26 -99,-35 -146,-36 -61,0 -106,13 -158,47 -52,-34 -96,-47 -158,-47 -47,1 -105,10 -146,36 -35,23 -62,58 -63,102 -1,74 71,133 134,156 73,27 156,34 233,34 73,0 144,-4 216,-16 71,-11 140,-30 208,-54 121,-43 230,-112 309,-206 78,-91 124,-207 126,-328 3,-145 -57,-281 -181,-361 -61,-40 -138,-61 -227,-61l-59 0c-5,-97 -18,-200 -65,-286 -70,-127 -188,-174 -327,-174 -124,0 -204,30 -291,120 -69,-83 -142,-120 -251,-120 -80,0 -164,26 -224,81 -49,45 -77,104 -77,171 0,69 28,136 78,183 27,25 54,45 87,61zm252 -376c50,51 63,131 50,199 -9,46 -13,95 -16,141l-102 0c-62,0 -119,-17 -166,-61 -40,-38 -61,-92 -60,-147 0,-51 21,-99 59,-134 32,-30 75,-49 118,-48 44,0 86,19 117,50zm47 563c13,74 2,161 -51,218 -29,32 -69,53 -113,53 -44,0 -86,-21 -117,-52 -41,-41 -61,-97 -60,-155 1,-56 22,-119 61,-159 45,-45 103,-58 165,-58l102 0c1,51 4,103 13,153zm649 -153c-2,101 -13,213 -63,302 -45,81 -114,122 -206,122 -92,0 -161,-41 -207,-121 -50,-89 -61,-202 -64,-303l540 0zm-539 -70c4,-89 16,-185 60,-264 45,-83 115,-126 209,-126 94,0 164,42 209,125 44,79 56,176 61,265l-539 0z"/>
 </g>
</svg>
