<?xml version="1.0" encoding="UTF-8"?>
<!DOCTYPE svg PUBLIC "-//W3C//DTD SVG 1.1//EN" "http://www.w3.org/Graphics/SVG/1.1/DTD/svg11.dtd">
<!-- Creator: CorelDRAW X8 -->
<svg xmlns="http://www.w3.org/2000/svg" xml:space="preserve" width="1688px" height="1024px" version="1.1" style="shape-rendering:geometricPrecision; text-rendering:geometricPrecision; image-rendering:optimizeQuality; fill-rule:evenodd; clip-rule:evenodd"
viewBox="0 0 1688 1024"
 xmlns:xlink="http://www.w3.org/1999/xlink">
 <defs>
  <style type="text/css">
   <![CDATA[
    .fil0 {fill:#E31E24;fill-rule:nonzero}
   ]]>
  </style>
 </defs>
 <g id="Layer_x0020_1">
  <metadata id="CorelCorpID_0Corel-Layer"/>
  <path class="fil0" d="M1688 847c0,-70 -49,-108 -109,-121 47,-16 83,-50 83,-110 0,-120 -119,-157 -218,-157l-209 0c-5,-97 -19,-198 -65,-284 -70,-128 -188,-175 -327,-175 -113,0 -213,31 -289,120 -70,-83 -143,-120 -253,-120 -80,0 -163,26 -224,82 -48,45 -77,109 -77,176 0,69 29,133 78,180 27,26 54,42 87,59 -32,15 -62,35 -88,61 -50,51 -77,122 -77,194 0,69 27,135 76,184 59,59 143,88 225,88 116,0 194,-43 238,-139 89,105 171,139 304,139 137,0 254,-46 324,-172 53,-96 66,-214 69,-322l208 0c53,0 96,30 96,86 0,28 -10,50 -28,64 -12,10 -28,16 -47,17 -21,2 -44,-1 -63,-1 -20,0 -57,12 -57,35 0,28 36,36 58,36 22,0 44,-4 66,-4 17,0 35,2 51,9 30,14 50,41 50,75 0,73 -63,107 -126,107 -60,1 -79,-31 -124,-31 -15,0 -29,3 -41,9 -14,7 -22,15 -22,23 0,8 6,16 18,25 43,32 111,44 164,44 108,0 249,-47 249,-177zm-845 -777c94,0 164,43 209,126 44,80 56,174 61,263l-538 0c4,-89 17,-183 60,-262 44,-82 112,-127 208,-127zm270 460c-2,101 -13,212 -63,301 -45,81 -115,123 -207,123 -93,0 -161,-44 -206,-122 -50,-89 -60,-201 -64,-302l540 0zm-644 -219c-9,49 -15,99 -18,148l-102 0c-62,0 -119,-13 -166,-57 -39,-37 -60,-91 -60,-144 0,-54 19,-102 59,-139 33,-30 75,-49 118,-49 44,0 87,20 117,51 39,40 56,96 56,150 0,14 -1,27 -4,40zm-169 643c-44,0 -86,-21 -117,-52 -41,-41 -60,-95 -60,-153 0,-57 21,-116 61,-157 45,-45 103,-62 165,-62l102 0c2,51 5,100 14,150 3,18 4,37 4,55 0,60 -16,122 -56,165 -29,32 -70,54 -113,54z"/>
 </g>
</svg>
