<?xml version="1.0" encoding="UTF-8"?>
<!DOCTYPE svg PUBLIC "-//W3C//DTD SVG 1.1//EN" "http://www.w3.org/Graphics/SVG/1.1/DTD/svg11.dtd">
<!-- Creator: CorelDRAW X8 -->
<svg xmlns="http://www.w3.org/2000/svg" xml:space="preserve" width="1689px" height="1486px" version="1.1" style="shape-rendering:geometricPrecision; text-rendering:geometricPrecision; image-rendering:optimizeQuality; fill-rule:evenodd; clip-rule:evenodd"
viewBox="0 0 1689 1486"
 xmlns:xlink="http://www.w3.org/1999/xlink">
 <defs>
  <style type="text/css">
   <![CDATA[
    .fil0 {fill:#00A0E3;fill-rule:nonzero}
   ]]>
  </style>
 </defs>
 <g id="Layer_x0020_1">
  <metadata id="CorelCorpID_0Corel-Layer"/>
  <path class="fil0" d="M574 456c5,-88 17,-182 60,-260 46,-83 116,-126 210,-126 94,0 164,42 209,125 43,78 56,173 60,261l-539 0zm663 70l191 0c61,0 107,56 107,117 1,37 -19,71 -50,92 -35,23 -68,13 -106,14 -20,0 -60,10 -60,36 1,26 43,35 63,34 40,-1 69,-11 110,5 55,21 84,83 82,141 -3,96 -81,135 -170,135l-1127 0c-127,0 -273,30 -277,187 -3,164 147,199 277,199l1322 0c32,0 61,-26 61,-59 0,-33 -29,-59 -61,-59l-1322 0c-67,0 -150,-12 -152,-98 -2,-85 86,-101 152,-101l1128 0c133,0 286,-46 284,-204 -1,-99 -54,-161 -142,-188 50,-10 106,-56 105,-134 -2,-134 -110,-187 -224,-187l-192 0c-5,-96 -19,-197 -66,-282 -70,-127 -187,-174 -326,-174 -125,0 -204,30 -291,120 -70,-83 -143,-120 -252,-120 -80,0 -164,26 -224,81 -48,45 -77,105 -77,172 0,68 29,136 78,182 27,26 54,41 86,57 -33,18 -59,34 -87,61 -49,50 -76,126 -77,196 -1,71 26,138 76,188 59,58 142,87 224,87 116,-1 179,-42 239,-138 88,103 169,138 305,138 137,0 253,-46 323,-171 24,-42 41,-91 52,-144 12,-58 16,-124 18,-183zm-123 0c-2,100 -13,217 -63,306 -46,81 -115,122 -207,122 -92,0 -161,-41 -207,-121 -50,-89 -61,-207 -63,-307l540 0zm-650 157c13,75 2,161 -51,218 -29,32 -69,53 -113,53 -44,0 -86,-21 -117,-52 -42,-41 -61,-97 -60,-155 1,-56 22,-120 61,-159 45,-45 104,-62 165,-62l102 0c1,50 4,107 13,157zm-115 -227c-63,0 -118,-12 -166,-57 -39,-37 -61,-92 -60,-146 1,-52 21,-100 59,-135 32,-30 75,-48 119,-48 43,0 86,19 116,51 50,51 63,130 50,199 -9,45 -13,90 -15,136l-103 0z"/>
 </g>
</svg>
