<?xml version="1.0" encoding="UTF-8"?>
<!DOCTYPE svg PUBLIC "-//W3C//DTD SVG 1.1//EN" "http://www.w3.org/Graphics/SVG/1.1/DTD/svg11.dtd">
<!-- Creator: CorelDRAW X8 -->
<svg xmlns="http://www.w3.org/2000/svg" xml:space="preserve" width="1687px" height="1024px" version="1.1" style="shape-rendering:geometricPrecision; text-rendering:geometricPrecision; image-rendering:optimizeQuality; fill-rule:evenodd; clip-rule:evenodd"
viewBox="0 0 1687 1024"
 xmlns:xlink="http://www.w3.org/1999/xlink">
 <defs>
  <style type="text/css">
   <![CDATA[
    .fil0 {fill:#2B2A29;fill-rule:nonzero}
   ]]>
  </style>
 </defs>
 <g id="Layer_x0020_1">
  <metadata id="CorelCorpID_0Corel-Layer"/>
  <path class="fil0" d="M844 1024c137,0 253,-46 323,-172 54,-96 67,-214 69,-322l92 0c73,0 145,24 192,84 30,38 45,87 45,135 0,47 -14,91 -41,130 -32,46 -77,74 -133,74 -32,0 -55,-12 -83,-12 -10,0 -20,2 -32,6 -20,7 -27,16 -27,26 0,16 23,32 48,39 30,8 62,11 93,11 79,0 162,-30 220,-87 50,-49 77,-113 77,-185 0,-88 -33,-164 -103,-217 -71,-55 -168,-75 -256,-75l-92 0c-5,-96 -19,-198 -66,-284 -70,-128 -187,-175 -326,-175 -115,0 -214,31 -290,120 -70,-83 -144,-120 -253,-120 -80,0 -164,26 -224,82 -49,45 -77,109 -77,176 0,69 28,133 78,180 27,26 53,42 86,59 -32,15 -61,35 -87,61 -51,51 -77,122 -77,194 0,69 27,135 76,184 59,59 143,88 225,88 115,0 194,-43 238,-139 88,104 169,139 305,139zm-375 -713c-10,49 -15,99 -18,148l-102 0c-62,0 -119,-13 -166,-57 -39,-37 -60,-91 -60,-144 0,-54 19,-102 59,-139 32,-30 75,-49 118,-49 44,0 86,20 117,51 38,40 55,96 55,150 0,14 -1,27 -3,40zm644 148l-539 0c4,-89 17,-183 60,-262 45,-84 116,-127 210,-127 93,0 164,43 209,126 44,80 55,174 60,263zm-813 495c-44,0 -86,-21 -117,-52 -41,-41 -60,-95 -60,-153 0,-57 20,-116 61,-157 45,-45 103,-62 165,-62l102 0c1,51 4,100 13,150 3,18 4,37 4,55 0,60 -15,122 -55,165 -29,32 -70,54 -113,54zm544 0c-92,0 -161,-41 -207,-122 -50,-89 -61,-201 -64,-302l541 0c-3,101 -13,212 -63,301 -45,81 -115,123 -207,123z"/>
 </g>
</svg>
