<?xml version="1.0" encoding="UTF-8"?>
<!DOCTYPE svg PUBLIC "-//W3C//DTD SVG 1.1//EN" "http://www.w3.org/Graphics/SVG/1.1/DTD/svg11.dtd">
<!-- Creator: CorelDRAW X8 -->
<svg xmlns="http://www.w3.org/2000/svg" xml:space="preserve" width="1688px" height="1024px" version="1.1" style="shape-rendering:geometricPrecision; text-rendering:geometricPrecision; image-rendering:optimizeQuality; fill-rule:evenodd; clip-rule:evenodd"
viewBox="0 0 1688 1024"
 xmlns:xlink="http://www.w3.org/1999/xlink">
 <defs>
  <style type="text/css">
   <![CDATA[
    .fil0 {fill:#CC9933;fill-rule:nonzero}
   ]]>
  </style>
 </defs>
 <g id="Layer_x0020_1">
  <metadata id="CorelCorpID_0Corel-Layer"/>
  <path class="fil0" d="M574 459c4,-89 17,-183 60,-262 45,-84 115,-127 209,-127 94,0 164,43 209,126 44,79 56,174 61,263l-539 0zm539 70c-2,101 -13,212 -63,301 -45,81 -115,123 -207,123 -91,0 -160,-41 -206,-122 -50,-90 -61,-200 -64,-302l540 0zm-649 151c12,75 1,162 -51,219 -29,32 -70,54 -113,54 -44,0 -86,-21 -118,-52 -41,-42 -61,-98 -59,-156 1,-57 22,-114 61,-154 45,-45 103,-62 165,-62l102 0c1,51 4,100 13,151zm379 -680c-124,0 -204,30 -291,120 -69,-83 -142,-120 -251,-120 -80,0 -164,26 -224,82 -49,45 -77,105 -77,172 0,69 28,137 78,184 27,26 53,41 86,57 -33,18 -60,34 -87,62 -49,50 -76,119 -77,190 -1,71 26,138 76,188 59,59 142,88 224,88 116,-1 179,-43 239,-139 88,103 168,139 304,139 137,0 254,-46 324,-172 24,-43 40,-92 51,-145 12,-59 16,-117 18,-177l208 0c49,0 94,28 96,81 1,27 -6,48 -28,65 -29,21 -75,19 -108,17 -20,-1 -60,11 -59,36 0,27 41,35 61,34 37,-2 79,-11 114,5 33,15 51,50 50,87 -3,69 -66,99 -126,100 -27,0 -55,-5 -78,-19 -12,-8 -28,-12 -45,-12 -15,0 -30,3 -42,9 -15,8 -21,16 -21,24 0,25 62,48 84,55 33,9 69,13 103,13 102,-1 241,-47 243,-172 1,-73 -48,-108 -109,-130 47,-27 84,-50 83,-112 -1,-120 -122,-151 -218,-151l-209 0c-5,-97 -19,-198 -65,-284 -70,-128 -188,-175 -327,-175zm-494 459c-64,0 -118,-12 -166,-57 -40,-38 -61,-93 -60,-148 0,-52 21,-100 59,-135 32,-30 74,-49 118,-49 44,0 86,20 117,51 50,52 63,132 49,201 -8,46 -12,91 -15,137l-102 0z"/>
 </g>
</svg>
