<?xml version="1.0" encoding="UTF-8"?>
<!DOCTYPE svg PUBLIC "-//W3C//DTD SVG 1.1//EN" "http://www.w3.org/Graphics/SVG/1.1/DTD/svg11.dtd">
<!-- Creator: CorelDRAW X8 -->
<svg xmlns="http://www.w3.org/2000/svg" xml:space="preserve" width="1702px" height="1486px" version="1.1" style="shape-rendering:geometricPrecision; text-rendering:geometricPrecision; image-rendering:optimizeQuality; fill-rule:evenodd; clip-rule:evenodd"
viewBox="0 0 1702 1486"
 xmlns:xlink="http://www.w3.org/1999/xlink">
 <defs>
  <style type="text/css">
   <![CDATA[
    .fil0 {fill:#E31E24;fill-rule:nonzero}
   ]]>
  </style>
 </defs>
 <g id="Layer_x0020_1">
  <metadata id="CorelCorpID_0Corel-Layer"/>
  <path class="fil0" d="M842 1486c107,0 203,-9 300,-33 73,-17 145,-41 212,-74 84,-41 160,-96 222,-169 85,-100 126,-207 126,-337 0,-58 -11,-117 -32,-171 -63,-160 -208,-243 -376,-243l-58 0c-5,-96 -19,-198 -66,-284 -70,-128 -187,-175 -326,-175 -116,0 -215,31 -290,120 -70,-83 -144,-120 -253,-120 -80,0 -164,26 -224,82 -49,45 -77,109 -77,176 0,69 28,133 78,180 27,25 53,42 86,58 -32,16 -61,36 -87,62 -51,51 -77,122 -77,194 0,69 27,135 76,184 59,59 143,88 225,88 115,0 194,-43 238,-139 88,104 169,139 305,139 137,0 253,-46 323,-172 54,-96 67,-214 69,-322l58 0c122,0 213,77 257,188 20,49 29,103 29,157 0,114 -26,210 -96,302 -81,107 -181,154 -300,201 14,-16 27,-45 27,-82 0,-45 -28,-79 -64,-102 -40,-26 -99,-36 -146,-36 -61,0 -106,13 -158,47 -52,-34 -96,-47 -158,-47 -47,0 -105,10 -145,36 -36,24 -64,59 -64,104 0,73 71,131 134,154 73,27 156,34 232,34zm-373 -1175c-10,49 -16,99 -18,148l-102 0c-62,0 -119,-13 -166,-57 -39,-37 -60,-91 -60,-144 0,-54 19,-102 59,-139 32,-30 75,-49 118,-49 44,0 86,19 117,51 38,40 55,96 55,150 0,14 -1,27 -3,40zm644 148l-539 0c4,-89 17,-183 60,-262 45,-84 116,-127 210,-127 93,0 164,43 209,126 44,79 55,174 60,263zm-813 495c-44,0 -86,-21 -117,-52 -41,-41 -60,-95 -60,-153 0,-57 20,-116 61,-157 45,-45 103,-62 165,-62l102 0c1,51 4,100 13,150 3,18 4,37 4,55 0,60 -15,122 -55,165 -29,32 -70,54 -113,54zm544 0c-92,0 -161,-41 -207,-122 -50,-89 -61,-201 -64,-302l541 0c-3,101 -13,212 -63,301 -45,81 -115,123 -207,123zm-2 476c-66,0 -144,-5 -205,-33 -41,-19 -73,-51 -73,-99 0,-61 68,-85 119,-85 68,0 109,40 109,108 0,24 32,31 51,31 19,0 51,-7 51,-31 0,-68 41,-108 109,-108 53,0 119,24 119,87 0,47 -32,79 -72,97 -62,28 -141,33 -208,33z"/>
 </g>
</svg>
