<?xml version="1.0" encoding="UTF-8"?>
<!DOCTYPE svg PUBLIC "-//W3C//DTD SVG 1.1//EN" "http://www.w3.org/Graphics/SVG/1.1/DTD/svg11.dtd">
<!-- Creator: CorelDRAW X8 -->
<svg xmlns="http://www.w3.org/2000/svg" xml:space="preserve" width="2503px" height="1024px" version="1.1" style="shape-rendering:geometricPrecision; text-rendering:geometricPrecision; image-rendering:optimizeQuality; fill-rule:evenodd; clip-rule:evenodd"
viewBox="0 0 2503 1024"
 xmlns:xlink="http://www.w3.org/1999/xlink">
 <defs>
  <style type="text/css">
   <![CDATA[
    .fil0 {fill:#B2B09C;fill-rule:nonzero}
   ]]>
  </style>
 </defs>
 <g id="Layer_x0020_1">
  <metadata id="CorelCorpID_0Corel-Layer"/>
  <path class="fil0" d="M1627 387l0 602c0,26 42,35 62,35 19,0 61,-9 61,-35l0 -597c0,-217 126,-320 331,-321 145,-1 277,65 278,231 0,69 -33,136 -95,168 -59,31 -132,30 -203,29 -11,0 -22,0 -33,0 -20,0 -61,8 -62,34 -1,26 40,35 60,36 14,0 29,0 44,-1 64,0 132,-1 193,24 68,29 116,94 117,170 2,128 -99,193 -214,192 -47,0 -95,-11 -138,-29 -25,-11 -64,-10 -86,7 -23,18 -10,40 13,49 66,28 139,43 211,43 158,0 335,-77 337,-262 1,-114 -67,-188 -166,-230 88,-50 146,-122 144,-230 -5,-223 -213,-302 -400,-301 -163,1 -288,23 -395,161 -107,-135 -236,-161 -399,-159 -71,1 -134,12 -203,35 -115,-28 -227,-38 -344,-38 -108,0 -219,10 -323,39 -116,32 -222,88 -301,182 -83,99 -116,221 -116,349 0,133 41,295 145,382 59,50 130,72 206,72 76,0 147,-24 206,-74 67,-57 99,-146 102,-234 2,-82 -21,-162 -76,-222 -59,-64 -146,-97 -232,-94 -118,4 -213,75 -241,172 -7,-60 7,-197 86,-297 61,-77 141,-129 233,-161 99,-34 207,-44 312,-44 80,0 155,7 235,19 -163,111 -228,252 -227,452 0,244 120,485 388,483 166,-1 291,-100 293,-277 2,-119 -55,-179 -157,-223 41,-25 73,-48 100,-91 19,-30 30,-65 30,-104 0,-51 -16,-94 -43,-132 -41,-57 -92,-86 -152,-117 26,-3 53,-7 79,-7 196,-1 340,103 340,314zm-1472 328c0,-121 66,-239 196,-239 131,0 193,119 193,239 -1,117 -63,239 -193,239 -131,0 -196,-115 -196,-239zm940 -594c53,21 103,46 141,91 27,32 44,70 44,117 0,97 -82,156 -170,166 -15,2 -30,2 -45,3 -18,1 -55,11 -53,36 2,23 37,32 55,33 13,1 27,-1 40,0 110,1 202,56 201,179 -1,106 -59,207 -173,208 -191,2 -264,-258 -264,-415 0,-183 61,-328 224,-418z"/>
 </g>
</svg>
