<?xml version="1.0" encoding="UTF-8"?>
<!DOCTYPE svg PUBLIC "-//W3C//DTD SVG 1.1//EN" "http://www.w3.org/Graphics/SVG/1.1/DTD/svg11.dtd">
<!-- Creator: CorelDRAW X8 -->
<svg xmlns="http://www.w3.org/2000/svg" xml:space="preserve" width="891px" height="586px" version="1.1" style="shape-rendering:geometricPrecision; text-rendering:geometricPrecision; image-rendering:optimizeQuality; fill-rule:evenodd; clip-rule:evenodd"
viewBox="0 0 891 586"
 xmlns:xlink="http://www.w3.org/1999/xlink">
 <defs>
  <style type="text/css">
   <![CDATA[
    .fil0 {fill:#2B2A29;fill-rule:nonzero}
   ]]>
  </style>
 </defs>
 <g id="Layer_x0020_1">
  <metadata id="CorelCorpID_0Corel-Layer"/>
  <path class="fil0" d="M842 586c27,0 49,-12 49,-27l0 -532c0,-15 -22,-27 -49,-27 -27,0 -49,12 -49,27l0 506 -325 0c55,-41 89,-103 89,-171 0,-117 -102,-177 -213,-177 -89,0 -209,48 -210,153 0,50 40,119 96,119 10,0 19,-2 28,-5 12,-4 22,-12 22,-22 0,-5 -3,-10 -9,-15 -24,-20 -39,-48 -39,-77 1,-57 55,-100 112,-100 73,0 115,57 115,124 0,92 -74,171 -167,171l-243 0c-27,0 -49,11 -49,26 0,21 35,27 49,27l793 0z"/>
 </g>
</svg>
