<?xml version="1.0" encoding="UTF-8"?>
<!DOCTYPE svg PUBLIC "-//W3C//DTD SVG 1.1//EN" "http://www.w3.org/Graphics/SVG/1.1/DTD/svg11.dtd">
<!-- Creator: CorelDRAW X8 -->
<svg xmlns="http://www.w3.org/2000/svg" xml:space="preserve" width="1627px" height="1024px" version="1.1" style="shape-rendering:geometricPrecision; text-rendering:geometricPrecision; image-rendering:optimizeQuality; fill-rule:evenodd; clip-rule:evenodd"
viewBox="0 0 1627 1024"
 xmlns:xlink="http://www.w3.org/1999/xlink">
 <defs>
  <style type="text/css">
   <![CDATA[
    .fil0 {fill:#2B2A29;fill-rule:nonzero}
   ]]>
  </style>
 </defs>
 <g id="Layer_x0020_1">
  <metadata id="CorelCorpID_0Corel-Layer"/>
  <path class="fil0" d="M1565 1012c20,0 62,-9 62,-35l0 -930c0,-26 -42,-35 -62,-35 -19,0 -61,9 -61,35l0 895 -580 0c196,-90 293,-270 293,-486 0,-90 -25,-208 -94,-299 -72,-95 -186,-144 -304,-144 -87,0 -174,26 -234,92 -56,-64 -146,-92 -230,-92 -123,0 -241,53 -305,162 -35,59 -50,134 -50,205 0,149 68,317 211,380 11,5 24,7 38,7 17,0 35,-4 48,-13 9,-7 13,-14 13,-21 0,-11 -10,-21 -24,-27 -115,-50 -163,-213 -163,-330 0,-62 13,-128 43,-179 39,-66 110,-116 189,-116 107,0 169,93 169,194l0 456c0,28 41,36 62,36 21,0 61,-8 61,-36l0 -456c0,-102 63,-195 172,-194 77,0 145,43 191,103 61,81 84,189 84,272 0,315 -205,486 -503,486l-516 0c-19,0 -61,8 -61,35 0,26 42,35 61,35l1490 0z"/>
 </g>
</svg>
