<?xml version="1.0" encoding="UTF-8"?>
<!DOCTYPE svg PUBLIC "-//W3C//DTD SVG 1.1//EN" "http://www.w3.org/Graphics/SVG/1.1/DTD/svg11.dtd">
<!-- Creator: CorelDRAW X8 -->
<svg xmlns="http://www.w3.org/2000/svg" xml:space="preserve" width="1627px" height="1024px" version="1.1" style="shape-rendering:geometricPrecision; text-rendering:geometricPrecision; image-rendering:optimizeQuality; fill-rule:evenodd; clip-rule:evenodd"
viewBox="0 0 1627 1024"
 xmlns:xlink="http://www.w3.org/1999/xlink">
 <defs>
  <style type="text/css">
   <![CDATA[
    .fil0 {fill:#00A0E3;fill-rule:nonzero}
   ]]>
  </style>
 </defs>
 <g id="Layer_x0020_1">
  <metadata id="CorelCorpID_0Corel-Layer"/>
  <path class="fil0" d="M75 1012l1490 0c20,0 62,-9 62,-35l0 -930c0,-26 -42,-35 -62,-35 -19,0 -61,9 -61,35l0 895 -580 0c196,-90 293,-270 293,-486 0,-90 -25,-208 -94,-299 -72,-95 -185,-144 -303,-144 -86,-1 -176,27 -235,92 -58,-66 -149,-94 -236,-92 -120,2 -237,57 -299,162 -44,74 -56,173 -47,258 14,133 80,271 208,327 25,11 63,10 86,-6 23,-17 12,-38 -11,-48 -100,-44 -149,-175 -160,-277 -9,-76 1,-166 40,-232 39,-65 109,-115 186,-116 109,-2 172,92 172,194l0 456c0,28 41,36 62,36 21,0 61,-8 61,-36l0 -456c0,-102 63,-194 172,-194 77,1 145,43 191,103 61,81 84,189 84,272 0,315 -205,486 -503,486l-516 0c-19,0 -61,8 -61,35 0,26 42,35 61,35z"/>
 </g>
</svg>
