<?xml version="1.0" encoding="UTF-8"?>
<!DOCTYPE svg PUBLIC "-//W3C//DTD SVG 1.1//EN" "http://www.w3.org/Graphics/SVG/1.1/DTD/svg11.dtd">
<!-- Creator: CorelDRAW X8 -->
<svg xmlns="http://www.w3.org/2000/svg" xml:space="preserve" width="1437px" height="1420px" version="1.1" style="shape-rendering:geometricPrecision; text-rendering:geometricPrecision; image-rendering:optimizeQuality; fill-rule:evenodd; clip-rule:evenodd"
viewBox="0 0 1437 1420"
 xmlns:xlink="http://www.w3.org/1999/xlink">
 <defs>
  <style type="text/css">
   <![CDATA[
    .fil0 {fill:#CC9933;fill-rule:nonzero}
   ]]>
  </style>
 </defs>
 <g id="Layer_x0020_1">
  <metadata id="CorelCorpID_0Corel-Layer"/>
  <path class="fil0" d="M61 1000l720 0c33,180 -111,350 -293,350l-94 0c-20,0 -62,9 -62,35 0,26 42,35 62,35l981 0c20,0 62,-9 62,-35l0 -1350c0,-26 -42,-35 -61,-35 -20,0 -62,9 -62,35l0 895 -599 0c103,-79 168,-178 168,-315 0,-194 -155,-295 -332,-295 -146,0 -327,85 -329,255 0,68 33,128 82,172 16,15 38,22 59,22 11,0 23,-2 33,-6 15,-6 28,-17 28,-29 0,-7 -3,-13 -11,-19 -41,-35 -68,-85 -68,-140 1,-112 108,-187 211,-185 126,2 204,99 205,223 0,169 -128,317 -297,317l-403 0c-19,0 -61,9 -61,35 0,26 42,35 61,35zm842 0l411 0 0 350 -575 0c115,-87 188,-203 164,-350z"/>
 </g>
</svg>
