<?xml version="1.0" encoding="UTF-8"?>
<!DOCTYPE svg PUBLIC "-//W3C//DTD SVG 1.1//EN" "http://www.w3.org/Graphics/SVG/1.1/DTD/svg11.dtd">
<!-- Creator: CorelDRAW X8 -->
<svg xmlns="http://www.w3.org/2000/svg" xml:space="preserve" width="2192px" height="1024px" version="1.1" style="shape-rendering:geometricPrecision; text-rendering:geometricPrecision; image-rendering:optimizeQuality; fill-rule:evenodd; clip-rule:evenodd"
viewBox="0 0 2192 1024"
 xmlns:xlink="http://www.w3.org/1999/xlink">
 <defs>
  <style type="text/css">
   <![CDATA[
    .fil0 {fill:#2B2A29;fill-rule:nonzero}
   ]]>
  </style>
 </defs>
 <g id="Layer_x0020_1">
  <metadata id="CorelCorpID_0Corel-Layer"/>
  <path class="fil0" d="M1838 1024c118,0 221,-56 282,-159 52,-87 72,-195 72,-295 0,-95 -17,-185 -59,-270 -99,-202 -303,-300 -513,-300 -172,0 -349,64 -458,196 -76,92 -120,215 -120,359 0,151 54,265 156,374l-483 0c103,-80 168,-173 168,-311 0,-196 -154,-297 -331,-297 -146,-1 -328,78 -330,257 -1,71 57,195 140,195 12,0 23,-2 34,-6 15,-5 28,-17 28,-30 0,-6 -3,-13 -11,-19 -41,-34 -68,-85 -68,-140 0,-112 105,-186 207,-186 130,0 209,99 209,224 0,170 -128,313 -297,313l-403 0c-19,0 -61,8 -61,35 0,26 42,35 61,35l1254 0c20,0 62,-9 62,-35 0,-8 -4,-16 -14,-23 -127,-87 -198,-229 -198,-386 0,-118 31,-222 89,-304 87,-123 217,-181 366,-181 123,0 212,36 304,120 -137,18 -252,62 -338,178 -59,80 -89,181 -89,280 0,81 20,163 64,231 63,97 167,145 277,145zm0 -71c-70,0 -125,-41 -162,-99 -39,-60 -56,-135 -56,-206 0,-90 26,-180 79,-252 71,-96 166,-136 282,-137 63,96 88,197 88,311 0,94 -16,191 -65,272 -37,63 -89,111 -166,111z"/>
 </g>
</svg>
