<?xml version="1.0" encoding="UTF-8"?>
<!DOCTYPE svg PUBLIC "-//W3C//DTD SVG 1.1//EN" "http://www.w3.org/Graphics/SVG/1.1/DTD/svg11.dtd">
<!-- Creator: CorelDRAW X8 -->
<svg xmlns="http://www.w3.org/2000/svg" xml:space="preserve" width="1356px" height="600px" version="1.1" style="shape-rendering:geometricPrecision; text-rendering:geometricPrecision; image-rendering:optimizeQuality; fill-rule:evenodd; clip-rule:evenodd"
viewBox="0 0 1356 600"
 xmlns:xlink="http://www.w3.org/1999/xlink">
 <defs>
  <style type="text/css">
   <![CDATA[
    .fil0 {fill:#00A0E3;fill-rule:nonzero}
   ]]>
  </style>
 </defs>
 <g id="Layer_x0020_1">
  <metadata id="CorelCorpID_0Corel-Layer"/>
  <path class="fil0" d="M1207 162c37,53 51,116 50,179 -1,52 -12,104 -39,146 -25,40 -55,60 -89,59 -38,0 -67,-23 -87,-52 -22,-32 -34,-73 -34,-116 0,-51 16,-101 47,-142 37,-47 91,-74 152,-74zm-487 370l-249 0c56,-40 89,-103 90,-170 0,-119 -103,-178 -217,-177 -93,1 -209,52 -209,155 0,38 19,73 51,101 20,17 49,20 74,11 18,-6 31,-22 13,-37 -25,-20 -39,-46 -39,-75 0,-57 55,-102 113,-102 74,0 116,58 115,126 -2,89 -72,168 -168,168l-244 0c-28,0 -50,12 -50,27 0,21 36,27 50,27l761 0c16,0 50,-7 50,-27 0,-6 -4,-12 -12,-17 -77,-50 -117,-130 -117,-217 0,-55 16,-109 45,-156 50,-80 125,-115 220,-116 63,-1 116,17 165,58 -78,10 -150,43 -198,104 -36,46 -55,105 -55,163 0,49 14,97 40,135 41,59 108,86 180,87 73,1 141,-29 183,-96 29,-47 43,-105 44,-163 1,-60 -10,-115 -36,-164 -63,-123 -185,-178 -324,-177 -128,1 -244,43 -312,152 -33,53 -51,113 -51,174 1,77 31,150 87,206z"/>
 </g>
</svg>
