<?xml version="1.0" encoding="UTF-8"?>
<!DOCTYPE svg PUBLIC "-//W3C//DTD SVG 1.1//EN" "http://www.w3.org/Graphics/SVG/1.1/DTD/svg11.dtd">
<!-- Creator: CorelDRAW X8 -->
<svg xmlns="http://www.w3.org/2000/svg" xml:space="preserve" width="1356px" height="600px" version="1.1" style="shape-rendering:geometricPrecision; text-rendering:geometricPrecision; image-rendering:optimizeQuality; fill-rule:evenodd; clip-rule:evenodd"
viewBox="0 0 1356 600"
 xmlns:xlink="http://www.w3.org/1999/xlink">
 <defs>
  <style type="text/css">
   <![CDATA[
    .fil0 {fill:#B2B09C;fill-rule:nonzero}
   ]]>
  </style>
 </defs>
 <g id="Layer_x0020_1">
  <metadata id="CorelCorpID_0Corel-Layer"/>
  <path class="fil0" d="M1207 162c-61,0 -115,27 -152,74 -31,41 -47,91 -47,142 0,43 12,84 34,116 20,29 49,52 87,52 34,1 64,-19 89,-59 27,-42 38,-94 39,-146 1,-63 -13,-126 -50,-179zm-487 370c-56,-56 -86,-129 -87,-206 0,-61 18,-121 51,-174 68,-109 184,-151 312,-152 139,-1 261,54 324,177 26,49 37,104 36,164 -1,58 -15,116 -44,163 -42,67 -110,97 -183,96 -72,-1 -139,-28 -180,-87 -26,-38 -40,-86 -40,-135 0,-58 19,-117 55,-163 48,-61 120,-94 198,-104 -49,-41 -102,-59 -165,-58 -95,1 -170,36 -220,116 -29,47 -45,101 -45,156 0,87 40,167 117,217 14,8 16,21 4,31 -11,10 -29,13 -42,13l-761 0c-14,0 -50,-6 -50,-27 0,-15 22,-27 50,-27l244 0c96,0 166,-79 168,-168 1,-68 -41,-126 -115,-126 -58,0 -113,45 -113,102 0,29 14,55 39,75 18,15 5,31 -13,37 -25,9 -54,6 -74,-11 -32,-28 -51,-63 -51,-101 0,-103 116,-154 209,-155 114,-1 217,58 217,177 -1,67 -34,130 -90,170l249 0z"/>
 </g>
</svg>
