<?xml version="1.0" encoding="UTF-8"?>
<!DOCTYPE svg PUBLIC "-//W3C//DTD SVG 1.1//EN" "http://www.w3.org/Graphics/SVG/1.1/DTD/svg11.dtd">
<!-- Creator: CorelDRAW X8 -->
<svg xmlns="http://www.w3.org/2000/svg" xml:space="preserve" width="1545px" height="868px" version="1.1" style="shape-rendering:geometricPrecision; text-rendering:geometricPrecision; image-rendering:optimizeQuality; fill-rule:evenodd; clip-rule:evenodd"
viewBox="0 0 1545 868"
 xmlns:xlink="http://www.w3.org/1999/xlink">
 <defs>
  <style type="text/css">
   <![CDATA[
    .fil0 {fill:#00A0E3;fill-rule:nonzero}
   ]]>
  </style>
 </defs>
 <g id="Layer_x0020_1">
  <metadata id="CorelCorpID_0Corel-Layer"/>
  <path class="fil0" d="M1205 161c-61,0 -115,27 -151,74 -32,41 -47,91 -47,141 0,44 11,85 33,116 20,29 50,52 87,52 34,1 64,-19 89,-59 26,-42 38,-94 39,-145 1,-64 -13,-126 -50,-179zm66 -52c81,10 154,46 206,107 47,58 71,131 68,203 -3,73 -32,142 -85,192 -63,58 -156,76 -241,76l-1039 0c-55,0 -81,16 -80,51 1,36 28,49 80,49l1284 0c27,0 49,18 49,41 0,22 -22,40 -49,40l-1284 0c-83,0 -182,-21 -180,-120 2,-72 57,-114 180,-114l1039 0c64,0 131,-19 172,-67 35,-41 53,-95 55,-149 2,-57 -14,-117 -48,-165 -19,-27 -45,-51 -76,-69 23,47 32,100 32,156 -1,57 -15,115 -44,162 -42,67 -110,96 -183,96 -71,-1 -139,-29 -179,-87 -27,-38 -40,-86 -40,-135 0,-57 19,-116 55,-162 47,-60 120,-94 197,-103 -48,-42 -101,-59 -165,-58 -102,1 -180,49 -224,121 -26,43 -40,94 -40,149 0,87 40,169 117,219 7,5 11,11 11,17 0,20 -34,27 -49,27l-761 0c-13,0 -49,-6 -49,-27 0,-15 22,-27 49,-27l245 0c96,0 166,-80 167,-170 2,-67 -41,-125 -115,-125 -58,0 -112,44 -112,101 0,29 14,56 39,76 18,14 4,30 -14,37 -24,8 -53,5 -73,-12 -32,-27 -51,-63 -51,-101 0,-102 116,-153 209,-154 113,-1 216,58 216,176 0,68 -34,132 -90,172l248 0c-55,-56 -85,-130 -86,-207 0,-70 19,-130 53,-179 63,-92 178,-145 309,-146 110,-1 209,34 277,109z"/>
 </g>
</svg>
