<?xml version="1.0" encoding="UTF-8"?>
<!DOCTYPE svg PUBLIC "-//W3C//DTD SVG 1.1//EN" "http://www.w3.org/Graphics/SVG/1.1/DTD/svg11.dtd">
<!-- Creator: CorelDRAW X8 -->
<svg xmlns="http://www.w3.org/2000/svg" xml:space="preserve" width="1611px" height="868px" version="1.1" style="shape-rendering:geometricPrecision; text-rendering:geometricPrecision; image-rendering:optimizeQuality; fill-rule:evenodd; clip-rule:evenodd"
viewBox="0 0 1611 868"
 xmlns:xlink="http://www.w3.org/1999/xlink">
 <defs>
  <style type="text/css">
   <![CDATA[
    .fil0 {fill:#00A0E3;fill-rule:nonzero}
   ]]>
  </style>
 </defs>
 <g id="Layer_x0020_1">
  <metadata id="CorelCorpID_0Corel-Layer"/>
  <path class="fil0" d="M717 531c-56,-57 -86,-129 -86,-206 -1,-61 17,-121 50,-173 68,-109 184,-151 311,-152 100,0 193,27 265,99 53,-3 104,2 155,14 91,21 173,82 168,179 -2,38 -19,75 -49,100 51,25 81,73 80,129 -1,65 -36,110 -87,137 -41,23 -87,31 -135,31l-1210 0c-54,0 -80,15 -79,50 1,36 27,48 79,48l1354 0c27,0 49,18 49,41 0,22 -22,40 -49,40l-1354 0c-83,0 -181,-20 -179,-119 2,-72 57,-113 179,-113l1210 0c37,0 70,-11 95,-39 18,-20 28,-47 29,-76 0,-30 -11,-63 -35,-82 -10,-8 -23,-14 -39,-13 -26,0 -50,-9 -53,-23 -5,-18 21,-27 38,-30 21,-3 34,-13 45,-31 9,-15 12,-33 13,-51 3,-66 -44,-114 -109,-129 -24,-6 -48,-10 -73,-10 37,58 50,124 50,182 0,59 -14,121 -44,169 -41,65 -109,95 -183,95 -73,0 -137,-27 -178,-87 -26,-37 -39,-85 -39,-134 0,-57 19,-116 55,-162 47,-60 118,-93 194,-105 -47,-41 -101,-58 -163,-57 -94,1 -168,36 -218,116 -29,46 -45,100 -45,154 0,87 40,168 117,217 12,8 16,22 3,32 -10,8 -29,12 -41,12l-758 0c-14,0 -49,-6 -49,-27 0,-14 22,-26 49,-26l243 0c96,0 166,-79 167,-169 2,-67 -41,-125 -114,-125 -58,0 -111,43 -112,100 -1,29 14,57 39,77 17,14 4,30 -14,37 -24,8 -53,5 -73,-12 -32,-27 -51,-62 -51,-100 0,-103 115,-154 208,-155 113,-1 215,58 215,176 0,68 -33,130 -89,171l248 0zm483 -372c-59,4 -113,30 -149,77 -32,40 -47,91 -47,141 0,43 12,84 33,116 24,35 55,52 86,52 33,0 65,-20 90,-59 26,-42 39,-98 39,-152 0,-56 -12,-119 -52,-175z"/>
 </g>
</svg>
