<?xml version="1.0" encoding="UTF-8"?>
<!DOCTYPE svg PUBLIC "-//W3C//DTD SVG 1.1//EN" "http://www.w3.org/Graphics/SVG/1.1/DTD/svg11.dtd">
<!-- Creator: CorelDRAW X8 -->
<svg xmlns="http://www.w3.org/2000/svg" xml:space="preserve" width="1552px" height="868px" version="1.1" style="shape-rendering:geometricPrecision; text-rendering:geometricPrecision; image-rendering:optimizeQuality; fill-rule:evenodd; clip-rule:evenodd"
viewBox="0 0 1552 868"
 xmlns:xlink="http://www.w3.org/1999/xlink">
 <defs>
  <style type="text/css">
   <![CDATA[
    .fil0 {fill:#2B2A29;fill-rule:nonzero}
   ]]>
  </style>
 </defs>
 <g id="Layer_x0020_1">
  <metadata id="CorelCorpID_0Corel-Layer"/>
  <path class="fil0" d="M1131 546c-39,0 -68,-21 -89,-52 -22,-32 -34,-73 -34,-116 0,-51 16,-101 47,-142 37,-47 91,-74 152,-74 36,51 50,112 50,173 0,52 -11,108 -39,152 -24,39 -54,59 -87,59zm0 54c71,0 140,-30 181,-96 31,-51 44,-110 44,-169 0,-47 -7,-92 -24,-132 83,58 124,173 124,288 0,94 -29,200 -101,265 -10,-44 -75,-69 -118,-78 -32,-7 -69,-12 -115,-12 -49,0 -92,5 -126,14 -41,11 -110,36 -110,88 0,34 36,67 107,86 36,9 91,14 129,14 42,0 85,-4 127,-13 46,-10 91,-26 131,-51 120,-73 172,-197 172,-332 0,-169 -92,-320 -272,-356 -67,-80 -167,-116 -278,-116 -126,0 -248,40 -318,152 -33,53 -52,113 -51,174 1,77 31,150 87,206l-249 0c56,-40 90,-103 90,-170 0,-118 -101,-177 -214,-177 -90,0 -212,49 -212,155 0,50 41,117 97,117 9,0 19,-2 28,-5 12,-4 22,-12 22,-22 0,-5 -3,-10 -9,-15 -25,-20 -39,-46 -39,-75 0,-57 55,-102 113,-102 73,0 115,57 115,124 0,92 -75,170 -168,170l-244 0c-28,0 -50,12 -50,27 0,21 36,27 50,27l761 0c16,0 50,-7 50,-27 0,-6 -4,-12 -12,-17 -77,-50 -117,-130 -117,-217 0,-55 16,-109 45,-156 52,-83 129,-116 225,-116 61,0 112,18 160,58 -78,10 -150,43 -198,104 -36,46 -55,105 -55,163 0,49 14,97 40,135 42,61 112,87 182,87zm-8 219c-100,0 -146,-26 -146,-53 0,-26 52,-51 146,-51 93,0 142,27 142,51 0,25 -44,53 -142,53z"/>
 </g>
</svg>
