<?xml version="1.0" encoding="UTF-8"?>
<!DOCTYPE svg PUBLIC "-//W3C//DTD SVG 1.1//EN" "http://www.w3.org/Graphics/SVG/1.1/DTD/svg11.dtd">
<!-- Creator: CorelDRAW X8 -->
<svg xmlns="http://www.w3.org/2000/svg" xml:space="preserve" width="2624px" height="1486px" version="1.1" style="shape-rendering:geometricPrecision; text-rendering:geometricPrecision; image-rendering:optimizeQuality; fill-rule:evenodd; clip-rule:evenodd"
viewBox="0 0 2624 1486"
 xmlns:xlink="http://www.w3.org/1999/xlink">
 <defs>
  <style type="text/css">
   <![CDATA[
    .fil0 {fill:#2B2A29;fill-rule:nonzero}
   ]]>
  </style>
 </defs>
 <g id="Layer_x0020_1">
  <metadata id="CorelCorpID_0Corel-Layer"/>
  <path class="fil0" d="M2515 1486c32,0 61,-26 61,-59 0,-33 -29,-59 -61,-59l-2238 0c-70,0 -152,-13 -152,-101 0,-82 87,-98 152,-98l1999 0c74,0 146,-13 210,-50 89,-51 138,-127 138,-230 0,-101 -51,-173 -139,-218 56,-47 88,-112 88,-186 0,-167 -126,-254 -269,-291 -62,-16 -127,-23 -187,-23 -23,0 -46,1 -70,3 -109,-117 -266,-174 -427,-174 -172,0 -349,64 -458,196 -76,92 -120,215 -120,359 0,151 54,265 156,374l-483 0c103,-80 168,-173 168,-311 0,-196 -154,-297 -331,-297 -146,-1 -328,78 -330,257 -1,71 57,195 140,195 12,0 23,-2 34,-6 15,-5 28,-17 28,-30 0,-6 -3,-13 -11,-19 -42,-34 -69,-85 -68,-140 0,-112 105,-186 207,-186 130,0 208,99 209,224 0,170 -128,313 -297,313l-403 0c-19,0 -61,8 -61,35 0,26 42,35 61,35l1254 0c20,0 62,-9 62,-35 0,-8 -4,-17 -14,-23 -128,-88 -198,-229 -198,-386 0,-118 31,-222 89,-304 87,-123 217,-181 366,-181 123,0 212,36 304,120 -130,17 -258,70 -338,178 -59,80 -89,181 -89,280 0,81 20,163 64,231 63,97 167,145 277,145 118,0 221,-56 282,-159 52,-87 72,-195 72,-295 0,-120 -26,-227 -92,-328 53,-2 110,3 162,19 103,31 188,101 188,224 0,34 -10,73 -27,102 -18,32 -44,57 -79,60 -18,2 -54,12 -54,35 0,29 39,34 62,35 36,0 60,5 89,29 40,33 60,91 60,143 0,53 -15,95 -50,136 -45,54 -106,75 -175,75l-1999 0c-132,0 -276,32 -276,193 0,158 148,193 276,193l2238 0zm-677 -533c-70,0 -125,-41 -162,-99 -39,-60 -56,-135 -56,-206 0,-90 26,-180 79,-252 71,-96 172,-130 278,-141 63,96 92,201 92,315 0,94 -16,190 -65,272 -37,63 -89,111 -166,111z"/>
 </g>
</svg>
