<?xml version="1.0" encoding="UTF-8"?>
<!DOCTYPE svg PUBLIC "-//W3C//DTD SVG 1.1//EN" "http://www.w3.org/Graphics/SVG/1.1/DTD/svg11.dtd">
<!-- Creator: CorelDRAW X8 -->
<svg xmlns="http://www.w3.org/2000/svg" xml:space="preserve" width="1623px" height="868px" version="1.1" style="shape-rendering:geometricPrecision; text-rendering:geometricPrecision; image-rendering:optimizeQuality; fill-rule:evenodd; clip-rule:evenodd"
viewBox="0 0 1623 868"
 xmlns:xlink="http://www.w3.org/1999/xlink">
 <defs>
  <style type="text/css">
   <![CDATA[
    .fil0 {fill:#00A0E3;fill-rule:nonzero}
   ]]>
  </style>
 </defs>
 <g id="Layer_x0020_1">
  <metadata id="CorelCorpID_0Corel-Layer"/>
  <path class="fil0" d="M1313 161c33,53 46,116 45,179 -1,51 -11,106 -35,148 -22,39 -49,59 -80,58 -33,0 -60,-23 -78,-52 -20,-31 -30,-74 -30,-117 0,-51 14,-101 42,-142 33,-47 82,-74 136,-74zm-1157 -152c-108,71 -156,198 -156,330 0,154 58,267 152,348 55,47 124,84 201,112 165,59 354,70 500,69 148,-1 323,-11 464,-61 96,-34 180,-86 235,-160 48,-64 75,-143 71,-242 -4,-92 -42,-175 -109,-233 -39,-33 -88,-54 -141,-63 -61,-75 -150,-110 -249,-109 -112,1 -211,48 -269,132 -36,51 -57,117 -56,193 0,77 28,152 77,208l-223 0c50,-40 81,-105 81,-173 0,-118 -93,-177 -194,-176 -83,1 -186,51 -188,153 0,39 17,74 46,102 18,17 44,20 66,12 16,-7 28,-23 12,-37 -22,-21 -36,-48 -35,-77 2,-57 49,-99 101,-100 66,0 105,58 104,125 -2,90 -65,171 -151,171l-219 0c-25,0 -45,12 -45,27 0,20 32,26 45,26l682 0c14,0 44,-7 45,-27 0,-6 -4,-12 -11,-17 -68,-49 -105,-132 -105,-219 1,-57 14,-110 39,-154 40,-69 110,-115 199,-116 57,-1 104,16 147,58 -69,9 -134,43 -176,103 -33,46 -50,105 -50,163 0,48 12,98 36,136 36,59 97,86 161,87 65,1 126,-29 164,-95 26,-47 39,-108 40,-165 0,-56 -8,-107 -28,-154 72,45 111,134 115,221 4,89 -20,161 -62,218 -48,63 -119,107 -200,136 -125,44 -287,53 -419,54 -134,1 -308,-9 -455,-62 -79,-28 -146,-67 -197,-119 -71,-72 -112,-168 -112,-295 -1,-113 38,-232 132,-294 17,-11 15,-28 -2,-37 -19,-11 -45,-11 -63,1z"/>
 </g>
</svg>
