<?xml version="1.0" encoding="UTF-8"?>
<!DOCTYPE svg PUBLIC "-//W3C//DTD SVG 1.1//EN" "http://www.w3.org/Graphics/SVG/1.1/DTD/svg11.dtd">
<!-- Creator: CorelDRAW X8 -->
<svg xmlns="http://www.w3.org/2000/svg" xml:space="preserve" width="1623px" height="868px" version="1.1" style="shape-rendering:geometricPrecision; text-rendering:geometricPrecision; image-rendering:optimizeQuality; fill-rule:evenodd; clip-rule:evenodd"
viewBox="0 0 1623 868"
 xmlns:xlink="http://www.w3.org/1999/xlink">
 <defs>
  <style type="text/css">
   <![CDATA[
    .fil0 {fill:#2B2A29;fill-rule:nonzero}
   ]]>
  </style>
 </defs>
 <g id="Layer_x0020_1">
  <metadata id="CorelCorpID_0Corel-Layer"/>
  <path class="fil0" d="M1317 807c96,-34 180,-86 235,-160 45,-60 71,-131 71,-221 0,-97 -33,-190 -109,-254 -38,-33 -91,-53 -143,-62 -63,-75 -155,-109 -259,-109 -106,0 -198,48 -255,127 -39,54 -62,122 -61,199 0,77 29,150 83,206l-225 0c54,-40 86,-103 86,-170 1,-118 -96,-177 -204,-177 -86,0 -203,48 -203,155 0,50 40,117 93,117 9,0 18,-2 27,-5 11,-4 21,-12 21,-22 0,-5 -3,-10 -9,-15 -24,-20 -37,-46 -37,-75 0,-57 52,-102 108,-102 70,0 110,57 110,124 0,92 -72,170 -161,170l-215 0c-27,0 -48,12 -48,27 0,21 35,27 48,27l696 0c15,0 48,-7 48,-27 0,-6 -4,-12 -12,-17 -73,-50 -112,-130 -112,-217 0,-54 14,-108 39,-154 37,-69 100,-118 183,-118 58,0 107,18 153,58 -75,10 -143,43 -189,104 -35,46 -53,105 -53,163 0,49 14,97 39,135 40,61 106,87 173,87 68,0 134,-30 173,-96 30,-51 42,-110 42,-169 0,-55 -10,-105 -30,-150 80,51 114,149 114,240 0,80 -22,146 -62,199 -47,63 -119,107 -200,136 -131,47 -297,54 -436,54 -132,0 -297,-11 -438,-62 -79,-28 -146,-67 -197,-119 -71,-72 -112,-168 -112,-295 0,-110 35,-231 132,-294 8,-5 12,-12 12,-18 0,-7 -5,-14 -14,-19 -9,-5 -20,-8 -31,-8 -12,0 -23,3 -32,9 -108,71 -156,198 -156,330 0,154 58,267 152,348 55,47 124,84 201,112 159,57 339,69 483,69 155,0 334,-9 481,-61zm-82 -260c-37,0 -64,-21 -85,-52 -21,-32 -32,-73 -32,-116 0,-51 15,-101 45,-142 35,-47 87,-74 145,-74 34,51 48,112 48,173 0,52 -11,107 -38,152 -23,39 -51,59 -83,59z"/>
 </g>
</svg>
