<?xml version="1.0" encoding="UTF-8"?>
<!DOCTYPE svg PUBLIC "-//W3C//DTD SVG 1.1//EN" "http://www.w3.org/Graphics/SVG/1.1/DTD/svg11.dtd">
<!-- Creator: CorelDRAW X8 -->
<svg xmlns="http://www.w3.org/2000/svg" xml:space="preserve" width="1545px" height="868px" version="1.1" style="shape-rendering:geometricPrecision; text-rendering:geometricPrecision; image-rendering:optimizeQuality; fill-rule:evenodd; clip-rule:evenodd"
viewBox="0 0 1545 868"
 xmlns:xlink="http://www.w3.org/1999/xlink">
 <defs>
  <style type="text/css">
   <![CDATA[
    .fil0 {fill:#00A0E3;fill-rule:nonzero}
   ]]>
  </style>
 </defs>
 <g id="Layer_x0020_1">
  <metadata id="CorelCorpID_0Corel-Layer"/>
  <path class="fil0" d="M1205 161c37,53 51,115 50,179 -1,51 -13,103 -39,145 -25,40 -55,60 -89,59 -37,0 -67,-23 -87,-52 -22,-31 -33,-72 -33,-116 0,-50 15,-100 47,-141 36,-47 90,-74 151,-74zm66 -52c-68,-75 -167,-110 -277,-109 -131,1 -246,54 -309,146 -34,49 -53,109 -53,179 1,77 31,151 86,207l-248 0c56,-40 90,-104 90,-172 0,-118 -103,-177 -216,-176 -93,1 -209,52 -209,154 0,38 19,74 51,101 20,17 49,20 73,12 18,-7 32,-23 14,-37 -25,-20 -39,-47 -39,-76 0,-57 54,-101 112,-101 74,0 117,58 115,125 -1,90 -71,170 -167,170l-245 0c-27,0 -49,12 -49,27 0,21 36,27 49,27l761 0c15,0 49,-7 49,-27 0,-6 -4,-12 -11,-17 -77,-50 -117,-132 -117,-219 0,-55 14,-106 40,-149 44,-72 122,-120 224,-121 64,-1 117,16 165,58 -77,9 -150,43 -197,103 -36,46 -55,105 -55,162 0,49 13,97 40,135 40,58 108,86 179,87 73,0 141,-29 183,-96 29,-47 43,-105 44,-162 0,-56 -9,-109 -32,-156 31,18 57,42 76,69 34,48 50,108 48,165 -2,54 -20,108 -55,149 -41,48 -108,67 -172,67l-1039 0c-123,0 -178,42 -180,114 -2,99 97,120 180,120l1284 0c27,0 49,-18 49,-40 0,-23 -22,-41 -49,-41l-1284 0c-52,0 -79,-13 -80,-49 -1,-35 25,-51 80,-51l1039 0c85,0 178,-18 241,-76 53,-50 82,-119 85,-192 3,-72 -21,-145 -68,-203 -52,-61 -125,-97 -206,-107z"/>
 </g>
</svg>
