<?xml version="1.0" encoding="UTF-8"?>
<!DOCTYPE svg PUBLIC "-//W3C//DTD SVG 1.1//EN" "http://www.w3.org/Graphics/SVG/1.1/DTD/svg11.dtd">
<!-- Creator: CorelDRAW X8 -->
<svg xmlns="http://www.w3.org/2000/svg" xml:space="preserve" width="1552px" height="868px" version="1.1" style="shape-rendering:geometricPrecision; text-rendering:geometricPrecision; image-rendering:optimizeQuality; fill-rule:evenodd; clip-rule:evenodd"
viewBox="0 0 1552 868"
 xmlns:xlink="http://www.w3.org/1999/xlink">
 <defs>
  <style type="text/css">
   <![CDATA[
    .fil0 {fill:#B2B09C;fill-rule:nonzero}
   ]]>
  </style>
 </defs>
 <g id="Layer_x0020_1">
  <metadata id="CorelCorpID_0Corel-Layer"/>
  <path class="fil0" d="M1122 715c-46,0 -83,6 -107,15 -26,10 -39,23 -39,37 0,13 13,27 39,37 24,9 61,15 107,15 39,0 67,-4 91,-11 35,-10 53,-26 53,-41 -1,-16 -18,-31 -53,-41 -23,-7 -52,-11 -91,-11zm-391 -392c0,87 40,170 117,219 13,9 15,22 3,32 -10,9 -29,12 -41,12l-761 0c-13,0 -49,-6 -49,-27 0,-14 22,-26 49,-26l245 0c96,0 166,-81 167,-171 2,-67 -41,-125 -115,-125 -59,0 -111,43 -112,101 -1,29 14,56 39,76 18,14 4,30 -14,37 -24,8 -53,5 -73,-12 -32,-27 -51,-63 -51,-101 1,-102 116,-153 209,-154 113,-1 216,58 216,176 0,68 -34,133 -90,173l248 0c-55,-57 -85,-131 -86,-208 0,-75 22,-138 60,-189 65,-86 176,-135 302,-136 113,-1 215,36 283,115 193,38 286,206 274,388 -8,122 -67,238 -171,301 -42,26 -96,43 -145,53 -36,7 -73,10 -113,11 -40,1 -90,-4 -129,-14 -72,-19 -108,-53 -107,-87 0,-35 37,-69 110,-87 34,-9 77,-14 126,-14 46,0 83,5 115,12 43,9 108,34 118,78 65,-59 98,-156 101,-253 3,-120 -39,-243 -127,-302 18,43 25,89 25,139 -1,57 -15,117 -45,164 -41,67 -110,96 -182,96 -72,-1 -139,-28 -180,-87 -26,-38 -39,-88 -39,-136 0,-58 19,-117 55,-163 47,-60 119,-94 197,-103 -49,-42 -102,-59 -165,-58 -98,1 -174,46 -219,114 -29,44 -45,98 -45,156zm474 -162c-61,0 -115,27 -151,74 -32,41 -47,91 -47,142 0,43 11,86 33,117 20,29 50,52 87,52 34,1 64,-19 89,-59 26,-41 38,-96 39,-147 1,-63 -13,-126 -50,-179z"/>
 </g>
</svg>
