<?xml version="1.0" encoding="UTF-8"?>
<!DOCTYPE svg PUBLIC "-//W3C//DTD SVG 1.1//EN" "http://www.w3.org/Graphics/SVG/1.1/DTD/svg11.dtd">
<!-- Creator: CorelDRAW X8 -->
<svg xmlns="http://www.w3.org/2000/svg" xml:space="preserve" width="2520px" height="1486px" version="1.1" style="shape-rendering:geometricPrecision; text-rendering:geometricPrecision; image-rendering:optimizeQuality; fill-rule:evenodd; clip-rule:evenodd"
viewBox="0 0 2520 1486"
 xmlns:xlink="http://www.w3.org/1999/xlink">
 <defs>
  <style type="text/css">
   <![CDATA[
    .fil0 {fill:#2B2A29;fill-rule:nonzero}
   ]]>
  </style>
 </defs>
 <g id="Layer_x0020_1">
  <metadata id="CorelCorpID_0Corel-Layer"/>
  <path class="fil0" d="M1839 953c-70,0 -125,-41 -162,-99 -39,-60 -56,-135 -56,-206 0,-90 25,-180 79,-252 70,-96 166,-136 282,-137 63,96 88,197 88,311 0,94 -17,190 -65,272 -38,63 -89,111 -166,111zm681 -125c-1,-293 -125,-562 -460,-641 -109,-132 -269,-187 -439,-187 -172,0 -349,64 -458,196 -76,92 -120,215 -120,359 0,151 53,265 156,374l-484 0c104,-80 168,-173 168,-311 0,-196 -153,-297 -330,-297 -146,-1 -329,78 -331,257 0,71 58,195 140,195 12,0 23,-2 34,-6 15,-5 28,-17 28,-30 0,-6 -3,-13 -11,-19 -41,-34 -68,-85 -68,-140 1,-112 106,-186 208,-186 130,0 208,99 208,224 1,170 -128,313 -296,313l-404 0c-19,0 -61,8 -61,35 0,26 42,35 61,35l1255 0c20,0 62,-9 62,-35 0,-8 -5,-17 -14,-23 -128,-88 -198,-229 -198,-386 0,-118 31,-222 89,-304 86,-123 217,-181 366,-181 123,0 212,36 304,120 -137,18 -252,62 -338,178 -59,80 -89,181 -89,280 0,81 20,163 64,231 63,97 167,145 277,145 118,0 221,-56 282,-159 51,-87 72,-195 72,-295 0,-100 -18,-195 -63,-285 205,103 274,326 274,543 1,173 -59,383 -203,491 -9,-82 -119,-126 -188,-142 -60,-14 -121,-19 -181,-19 -66,0 -136,5 -200,22 -63,17 -171,61 -171,141 0,79 104,124 166,141 60,16 130,24 205,24 71,0 139,-8 202,-23 75,-18 145,-47 206,-85 172,-109 280,-300 280,-550zm-688 595c-179,0 -262,-51 -262,-103 0,-51 93,-100 262,-100 168,0 256,53 256,100 0,50 -79,103 -256,103z"/>
 </g>
</svg>
