<?xml version="1.0" encoding="UTF-8"?>
<!DOCTYPE svg PUBLIC "-//W3C//DTD SVG 1.1//EN" "http://www.w3.org/Graphics/SVG/1.1/DTD/svg11.dtd">
<!-- Creator: CorelDRAW X8 -->
<svg xmlns="http://www.w3.org/2000/svg" xml:space="preserve" width="1611px" height="868px" version="1.1" style="shape-rendering:geometricPrecision; text-rendering:geometricPrecision; image-rendering:optimizeQuality; fill-rule:evenodd; clip-rule:evenodd"
viewBox="0 0 1611 868"
 xmlns:xlink="http://www.w3.org/1999/xlink">
 <defs>
  <style type="text/css">
   <![CDATA[
    .fil0 {fill:#00A0E3;fill-rule:nonzero}
   ]]>
  </style>
 </defs>
 <g id="Layer_x0020_1">
  <metadata id="CorelCorpID_0Corel-Layer"/>
  <path class="fil0" d="M1206 157c38,45 55,113 54,183 -1,51 -13,105 -39,147 -25,39 -55,59 -89,59 -38,0 -68,-23 -88,-52 -22,-32 -33,-75 -33,-118 0,-50 15,-101 47,-141 36,-46 90,-70 148,-78zm-207 -104c63,-1 116,16 165,57 -77,10 -150,43 -197,104 -36,46 -56,105 -56,162 0,49 14,98 40,136 41,59 109,87 181,87 72,1 141,-28 183,-95 29,-47 43,-107 44,-164 1,-68 -13,-127 -48,-185 103,3 208,63 202,173 -1,33 -11,64 -36,84 -14,11 -33,18 -57,19 -30,0 -46,13 -47,25 0,13 15,25 47,28 25,2 45,-2 65,13 17,14 26,36 27,58 1,23 -7,40 -19,53 -18,18 -48,27 -80,27l-1233 0c-122,0 -178,42 -180,114 -2,99 97,119 180,119l1359 0c28,0 50,-18 50,-40 0,-23 -22,-41 -50,-41l-1359 0c-52,0 -79,-12 -80,-48 -1,-35 26,-51 80,-51l1233 0c51,0 109,-11 149,-39 29,-20 49,-51 49,-94 0,-45 -29,-81 -69,-101 44,-29 66,-74 68,-122 3,-56 -20,-115 -64,-154 -71,-61 -184,-78 -275,-74 -72,-76 -170,-105 -273,-104 -128,1 -241,51 -306,139 -36,50 -57,113 -57,186 1,77 31,151 87,207l-249 0c55,-40 89,-104 89,-172 0,-118 -103,-177 -216,-176 -94,1 -210,52 -210,155 0,38 20,73 51,100 20,17 50,20 74,12 18,-7 32,-23 14,-37 -26,-20 -40,-48 -40,-77 1,-57 55,-100 113,-100 74,0 117,58 116,125 -2,90 -72,170 -169,170l-245 0c-27,0 -49,12 -49,27 0,21 35,27 49,27l763 0c16,0 50,-7 50,-27 0,-6 -4,-12 -12,-17 -76,-50 -117,-132 -117,-219 0,-59 16,-113 46,-157 45,-68 121,-112 219,-113z"/>
 </g>
</svg>
