<?xml version="1.0" encoding="UTF-8"?>
<!DOCTYPE svg PUBLIC "-//W3C//DTD SVG 1.1//EN" "http://www.w3.org/Graphics/SVG/1.1/DTD/svg11.dtd">
<!-- Creator: CorelDRAW X8 -->
<svg xmlns="http://www.w3.org/2000/svg" xml:space="preserve" width="2624px" height="1486px" version="1.1" style="shape-rendering:geometricPrecision; text-rendering:geometricPrecision; image-rendering:optimizeQuality; fill-rule:evenodd; clip-rule:evenodd"
viewBox="0 0 2624 1486"
 xmlns:xlink="http://www.w3.org/1999/xlink">
 <defs>
  <style type="text/css">
   <![CDATA[
    .fil0 {fill:#00A0E3;fill-rule:nonzero}
   ]]>
  </style>
 </defs>
 <g id="Layer_x0020_1">
  <metadata id="CorelCorpID_0Corel-Layer"/>
  <path class="fil0" d="M1317 1000c19,0 60,-10 61,-36 1,-8 -5,-16 -14,-22 -128,-87 -197,-236 -197,-391 0,-92 21,-184 67,-263 83,-143 226,-217 388,-219 119,-1 207,35 299,118 -134,21 -250,66 -335,180 -58,78 -89,186 -89,284 0,80 20,162 64,229 64,98 161,144 275,144 119,0 222,-53 284,-158 51,-84 72,-198 72,-296 0,-123 -28,-226 -92,-330 57,1 103,5 158,19 112,27 198,113 192,235 -1,28 -10,64 -27,93 -18,32 -44,57 -79,60 -17,2 -56,12 -54,36 2,28 48,34 69,34 31,-1 58,9 82,29 41,34 61,94 60,147 0,51 -17,94 -50,132 -45,54 -106,75 -175,75l-1999 0c-126,0 -273,30 -276,187 -4,163 146,199 276,199l2238 0c32,0 61,-26 61,-59 0,-33 -29,-59 -61,-59l-2238 0c-67,0 -150,-12 -152,-98 -2,-85 86,-101 152,-101l1999 0c74,0 146,-13 210,-50 87,-50 136,-124 138,-225 2,-104 -49,-177 -139,-223 55,-47 84,-102 88,-175 8,-163 -123,-266 -266,-301 -88,-22 -169,-28 -259,-21 -121,-127 -258,-173 -426,-174 -195,-1 -386,81 -493,246 -60,92 -86,198 -85,307 1,149 56,271 155,377l-484 0c105,-80 170,-182 169,-319 -2,-192 -156,-291 -332,-291 -147,0 -329,86 -329,258 1,66 34,125 82,168 25,23 61,28 92,16 23,-8 40,-29 17,-48 -41,-35 -69,-85 -68,-140 3,-110 104,-184 206,-184 128,-1 209,96 210,222 0,169 -129,318 -298,318l-403 0c-19,0 -61,9 -61,35 0,26 42,35 61,35l1256 0zm660 -747c66,97 92,199 92,317 0,90 -19,197 -65,274 -37,62 -94,110 -168,110 -69,0 -123,-42 -160,-98 -39,-59 -56,-134 -56,-205 0,-90 26,-185 79,-257 70,-94 165,-133 278,-141z"/>
 </g>
</svg>
