<?xml version="1.0" encoding="UTF-8"?>
<!DOCTYPE svg PUBLIC "-//W3C//DTD SVG 1.1//EN" "http://www.w3.org/Graphics/SVG/1.1/DTD/svg11.dtd">
<!-- Creator: CorelDRAW X8 -->
<svg xmlns="http://www.w3.org/2000/svg" xml:space="preserve" width="1468px" height="1024px" version="1.1" style="shape-rendering:geometricPrecision; text-rendering:geometricPrecision; image-rendering:optimizeQuality; fill-rule:evenodd; clip-rule:evenodd"
viewBox="0 0 1468 1024"
 xmlns:xlink="http://www.w3.org/1999/xlink">
 <defs>
  <style type="text/css">
   <![CDATA[
    .fil0 {fill:#2B2A29;fill-rule:nonzero}
   ]]>
  </style>
 </defs>
 <g id="Layer_x0020_1">
  <metadata id="CorelCorpID_0Corel-Layer"/>
  <path class="fil0" d="M1468 802c0,-102 -73,-186 -170,-211 38,-24 69,-47 98,-83 45,-57 72,-129 72,-201 0,-79 -30,-153 -87,-207 -75,-70 -182,-99 -282,-99 -123,-1 -220,30 -308,121 -97,-100 -214,-122 -344,-122 -114,0 -246,15 -339,87 -72,55 -108,135 -108,225 0,61 17,119 63,161 47,43 112,57 174,57 110,0 222,-65 222,-189 0,-115 -103,-189 -209,-189 -52,0 -99,15 -133,40 80,-111 203,-121 330,-121 56,0 114,11 163,36 78,39 120,105 120,195l0 193c0,26 41,35 60,35 20,0 62,-9 62,-35l0 -193c0,-145 105,-232 242,-231 66,0 133,20 183,66 47,44 70,109 69,174 0,62 -23,120 -61,167 -42,52 -101,84 -162,102 -100,30 -213,32 -318,33 -75,1 -150,-3 -225,-5 -67,-2 -130,-5 -189,-5 -90,0 -169,6 -234,23 -93,25 -154,72 -154,174 0,193 208,225 359,224 106,0 207,-23 304,-66 107,-47 185,-102 275,-174 13,156 97,240 254,240 132,0 273,-75 273,-222zm-1229 -342c-69,0 -125,-45 -125,-119 0,-73 54,-118 123,-118 70,0 123,46 123,118 0,71 -53,119 -121,119zm956 493c-89,0 -144,-67 -144,-153 0,-90 59,-151 150,-151 86,0 144,64 144,151 0,89 -60,153 -150,153zm-832 2c-93,0 -243,-20 -243,-141 0,-51 29,-101 78,-119 44,-17 112,-22 194,-22 56,0 118,3 183,5 78,2 154,4 231,4 47,0 95,0 143,-2 -97,91 -199,155 -317,213 -89,43 -171,62 -269,62z"/>
 </g>
</svg>
