<?xml version="1.0" encoding="UTF-8"?>
<!DOCTYPE svg PUBLIC "-//W3C//DTD SVG 1.1//EN" "http://www.w3.org/Graphics/SVG/1.1/DTD/svg11.dtd">
<!-- Creator: CorelDRAW X8 -->
<svg xmlns="http://www.w3.org/2000/svg" xml:space="preserve" width="1468px" height="1024px" version="1.1" style="shape-rendering:geometricPrecision; text-rendering:geometricPrecision; image-rendering:optimizeQuality; fill-rule:evenodd; clip-rule:evenodd"
viewBox="0 0 1468 1024"
 xmlns:xlink="http://www.w3.org/1999/xlink">
 <defs>
  <style type="text/css">
   <![CDATA[
    .fil0 {fill:#CC9933;fill-rule:nonzero}
   ]]>
  </style>
 </defs>
 <g id="Layer_x0020_1">
  <metadata id="CorelCorpID_0Corel-Layer"/>
  <path class="fil0" d="M941 784c13,158 99,242 260,240 128,-2 268,-77 267,-224 -1,-112 -85,-187 -170,-209 38,-24 69,-47 98,-83 44,-56 71,-126 72,-197 1,-81 -29,-156 -87,-211 -75,-70 -182,-98 -282,-99 -123,0 -220,30 -308,121 -101,-105 -225,-124 -362,-122 -108,2 -232,19 -321,87 -71,56 -108,135 -108,225 0,61 17,119 63,161 47,43 112,57 174,57 110,0 222,-65 222,-189 0,-115 -103,-189 -209,-189 -52,0 -99,15 -133,40 67,-93 171,-127 314,-121 57,2 127,10 179,36 78,39 120,105 120,195l0 193c0,26 41,35 60,35 20,0 62,-9 62,-35l0 -193c1,-145 105,-231 242,-231 66,1 133,20 183,66 47,44 69,109 69,174 -1,62 -23,120 -61,167 -42,52 -101,83 -162,102 -69,20 -157,29 -252,32 -97,2 -194,-1 -291,-4 -168,-6 -316,-11 -423,18 -96,26 -158,75 -154,184 4,112 82,170 182,195 57,14 119,19 177,19 106,-1 207,-23 304,-66 107,-47 185,-102 275,-174zm110 23c-3,-94 57,-158 150,-158 86,0 144,64 144,151 0,88 -58,151 -146,153 -85,2 -145,-59 -148,-146zm-937 -466c0,-73 54,-118 123,-118 70,0 123,46 123,118 0,71 -53,119 -121,119 -69,0 -125,-45 -125,-119zm835 339c-97,91 -199,155 -317,213 -86,42 -174,64 -269,62 -41,0 -82,-5 -122,-14 -67,-14 -123,-56 -121,-131 1,-50 31,-98 78,-115 73,-28 215,-23 377,-17 126,4 248,6 374,2z"/>
 </g>
</svg>
