<?xml version="1.0" encoding="UTF-8"?>
<!DOCTYPE svg PUBLIC "-//W3C//DTD SVG 1.1//EN" "http://www.w3.org/Graphics/SVG/1.1/DTD/svg11.dtd">
<!-- Creator: CorelDRAW X8 -->
<svg xmlns="http://www.w3.org/2000/svg" xml:space="preserve" width="910px" height="600px" version="1.1" style="shape-rendering:geometricPrecision; text-rendering:geometricPrecision; image-rendering:optimizeQuality; fill-rule:evenodd; clip-rule:evenodd"
viewBox="0 0 910 600"
 xmlns:xlink="http://www.w3.org/1999/xlink">
 <defs>
  <style type="text/css">
   <![CDATA[
    .fil0 {fill:#CC9933;fill-rule:nonzero}
   ]]>
  </style>
 </defs>
 <g id="Layer_x0020_1">
  <metadata id="CorelCorpID_0Corel-Layer"/>
  <path class="fil0" d="M570 475c-45,34 -93,62 -149,86 -58,24 -121,38 -190,39 -41,0 -80,-4 -112,-11 -63,-15 -115,-50 -117,-118 -3,-66 39,-96 100,-112 68,-17 159,-14 263,-11 113,4 240,8 319,-15 38,-11 70,-29 92,-55 23,-27 36,-59 36,-94 0,-34 -12,-71 -40,-96 -26,-23 -61,-34 -97,-34 -92,-2 -136,60 -137,125l0 111c0,15 -22,27 -49,27 -27,0 -49,-12 -49,-27l1 -111c0,-53 -28,-87 -69,-106 -26,-13 -65,-18 -101,-20 -48,-1 -124,4 -157,43 12,-5 26,-8 40,-9 69,-4 147,39 147,115 0,78 -77,115 -146,115 -47,0 -87,-12 -115,-36 -25,-22 -40,-53 -40,-96 0,-61 26,-103 65,-131 54,-40 134,-54 206,-54 73,0 165,9 219,63 46,-46 121,-63 185,-63 67,1 134,19 181,60 38,34 55,79 54,124 -1,41 -16,83 -45,116 -14,17 -32,32 -52,44 53,20 97,61 97,121 1,87 -87,134 -173,135 -81,1 -160,-39 -167,-125zm88 -10c0,55 40,82 79,81 37,-1 75,-28 75,-81 0,-52 -37,-80 -75,-80 -39,0 -79,25 -79,80zm-565 -263c0,41 32,62 63,62 31,0 61,-22 61,-62 0,-41 -31,-61 -62,-61 -31,-1 -62,20 -62,61zm469 201c-62,3 -134,1 -197,-1 -98,-4 -185,-7 -227,8 -25,9 -41,35 -42,61 -1,39 29,61 66,69 24,5 47,7 69,8 57,0 107,-13 154,-35 56,-25 127,-64 177,-110z"/>
 </g>
</svg>
