<?xml version="1.0" encoding="UTF-8"?>
<!DOCTYPE svg PUBLIC "-//W3C//DTD SVG 1.1//EN" "http://www.w3.org/Graphics/SVG/1.1/DTD/svg11.dtd">
<!-- Creator: CorelDRAW X8 -->
<svg xmlns="http://www.w3.org/2000/svg" xml:space="preserve" width="910px" height="600px" version="1.1" style="shape-rendering:geometricPrecision; text-rendering:geometricPrecision; image-rendering:optimizeQuality; fill-rule:evenodd; clip-rule:evenodd"
viewBox="0 0 910 600"
 xmlns:xlink="http://www.w3.org/1999/xlink">
 <defs>
  <style type="text/css">
   <![CDATA[
    .fil0 {fill:#2B2A29;fill-rule:nonzero}
   ]]>
  </style>
 </defs>
 <g id="Layer_x0020_1">
  <metadata id="CorelCorpID_0Corel-Layer"/>
  <path class="fil0" d="M910 466c0,-61 -43,-102 -97,-122 20,-12 38,-27 52,-44 29,-33 45,-76 45,-120 0,-43 -17,-87 -54,-120 -47,-41 -114,-60 -181,-60 -64,-1 -139,17 -185,63 -54,-54 -146,-63 -219,-63 -72,0 -152,14 -206,54 -39,28 -65,70 -65,131 0,43 15,74 40,96 28,24 68,36 115,36 69,0 146,-37 146,-115 0,-73 -71,-115 -138,-115 -17,0 -33,2 -49,9 34,-40 108,-43 157,-43 36,0 75,7 101,20 41,19 70,53 69,106l-1 111c0,15 22,27 49,27 27,0 49,-12 49,-27l0 -111c0,-81 59,-125 137,-125 36,0 71,11 97,34 28,25 40,62 40,96 0,35 -13,67 -36,94 -22,26 -54,44 -92,55 -49,14 -115,18 -186,18 -44,0 -90,-2 -133,-3 -40,-2 -79,-2 -114,-2 -57,0 -107,3 -149,13 -59,15 -100,44 -100,105 0,120 137,137 229,136 69,-1 132,-15 190,-39 56,-24 104,-52 149,-86 7,85 84,125 164,125 80,0 176,-41 176,-134zm-754 -202c-31,0 -63,-21 -63,-62 0,-40 30,-61 60,-61 37,0 64,23 64,61 0,40 -30,62 -61,62zm579 282c-38,0 -77,-27 -77,-81 0,-55 40,-80 79,-80 38,0 75,28 75,80 0,45 -31,81 -77,81zm-504 2c-50,-1 -135,-9 -135,-75 0,-26 17,-54 42,-63 24,-9 63,-11 109,-11 36,0 76,1 118,3 40,1 83,4 126,3l71 -2c-50,46 -121,85 -177,110 -47,22 -97,36 -154,35z"/>
 </g>
</svg>
