<?xml version="1.0" encoding="UTF-8"?>
<!DOCTYPE svg PUBLIC "-//W3C//DTD SVG 1.1//EN" "http://www.w3.org/Graphics/SVG/1.1/DTD/svg11.dtd">
<!-- Creator: CorelDRAW X8 -->
<svg xmlns="http://www.w3.org/2000/svg" xml:space="preserve" width="930px" height="600px" version="1.1" style="shape-rendering:geometricPrecision; text-rendering:geometricPrecision; image-rendering:optimizeQuality; fill-rule:evenodd; clip-rule:evenodd"
viewBox="0 0 930 601"
 xmlns:xlink="http://www.w3.org/1999/xlink">
 <defs>
  <style type="text/css">
   <![CDATA[
    .fil0 {fill:#669933;fill-rule:nonzero}
   ]]>
  </style>
 </defs>
 <g id="Layer_x0020_1">
  <metadata id="CorelCorpID_0Corel-Layer"/>
  <path class="fil0" d="M569 491c-45,31 -92,57 -141,75 -68,25 -140,37 -216,34 -47,-2 -103,-9 -144,-31 -40,-21 -64,-53 -66,-100 -3,-63 42,-96 103,-113 89,-23 211,-13 270,-11 56,2 114,4 170,2 55,-1 122,-5 174,-30 52,-24 88,-73 89,-131 0,-35 -13,-71 -40,-95 -23,-21 -55,-32 -87,-32 -37,0 -66,14 -87,35 -23,23 -34,55 -34,87l0 110c0,23 -45,29 -62,29 -16,0 -60,-6 -60,-29l0 -110c0,-32 -10,-61 -33,-82 -32,-31 -81,-38 -125,-40 -24,-1 -57,0 -86,8 -16,5 -32,11 -44,20 8,-1 16,-1 24,-1 38,0 76,11 104,30 28,21 46,51 46,87 0,36 -16,63 -40,82 -31,24 -75,35 -117,35 -49,0 -95,-11 -126,-37 -25,-21 -41,-53 -41,-96 0,-55 21,-99 65,-132 59,-43 146,-55 217,-55 71,0 160,8 217,54 50,-40 123,-54 185,-54 67,1 141,17 192,62 36,32 55,76 54,124 -1,42 -17,83 -45,115 -14,17 -31,31 -50,43 28,11 52,27 70,48 15,19 25,43 25,72 0,40 -19,72 -48,95 -35,27 -85,41 -136,42 -49,0 -96,-12 -129,-36 -24,-18 -41,-43 -48,-74zm111 -27c-1,22 6,44 23,60 14,12 28,18 43,17 14,-1 29,-8 41,-22 14,-14 21,-36 20,-57 0,-21 -7,-42 -22,-57 -13,-11 -26,-17 -40,-18 -16,0 -31,7 -44,20 -13,13 -21,32 -21,57zm-512 -203c14,0 28,-10 37,-21 7,-10 11,-22 11,-37 0,-16 -5,-28 -12,-38 -9,-11 -23,-20 -37,-20 -14,1 -28,9 -36,19 -10,11 -14,26 -14,40 0,13 4,25 11,35 9,12 25,22 40,22zm387 145c-27,1 -54,1 -82,0 -34,0 -67,-1 -99,-2 -37,-1 -109,-5 -164,-1 -43,3 -88,13 -89,66 -2,53 51,70 95,73 57,4 113,-9 165,-31 36,-15 71,-34 104,-54 25,-16 49,-33 70,-51z"/>
 </g>
</svg>
