<?xml version="1.0" encoding="UTF-8"?>
<!DOCTYPE svg PUBLIC "-//W3C//DTD SVG 1.1//EN" "http://www.w3.org/Graphics/SVG/1.1/DTD/svg11.dtd">
<!-- Creator: CorelDRAW X8 -->
<svg xmlns="http://www.w3.org/2000/svg" xml:space="preserve" width="3339px" height="1486px" version="1.1" style="shape-rendering:geometricPrecision; text-rendering:geometricPrecision; image-rendering:optimizeQuality; fill-rule:evenodd; clip-rule:evenodd"
viewBox="0 0 3339 1486"
 xmlns:xlink="http://www.w3.org/1999/xlink">
 <defs>
  <style type="text/css">
   <![CDATA[
    .fil0 {fill:#2B2A29;fill-rule:nonzero}
   ]]>
  </style>
 </defs>
 <g id="Layer_x0020_1">
  <metadata id="CorelCorpID_0Corel-Layer"/>
  <path class="fil0" d="M1840 460c-70,0 -126,-45 -126,-119 0,-73 54,-118 124,-118 70,0 122,46 122,118 0,71 -52,119 -120,119zm1229 342c0,-79 -44,-147 -108,-185 61,0 124,2 174,43 57,46 81,109 81,181 0,59 -15,116 -54,162 -65,78 -176,97 -272,97l-1010 0c-131,0 -277,33 -277,193 0,159 149,193 277,193l1350 0c31,0 61,-27 61,-60 0,-33 -30,-59 -61,-59l-1350 0c-70,0 -152,-11 -152,-99 0,-82 88,-99 152,-99l1010 0c125,0 275,-28 367,-120 56,-57 82,-128 82,-208 0,-88 -34,-165 -103,-221 -80,-65 -187,-66 -285,-66 16,-13 31,-28 46,-46 45,-57 72,-129 72,-201 0,-79 -30,-153 -87,-207 -75,-70 -182,-99 -282,-99 -123,-1 -220,30 -308,121 -98,-101 -216,-122 -344,-122 -115,0 -247,15 -340,87 -56,43 -93,106 -105,177 -38,245 -119,439 -348,563 -126,68 -276,99 -418,114 -94,10 -185,14 -280,14 -94,0 -200,-5 -292,-28 -64,-16 -139,-49 -139,-124 0,-105 100,-120 189,-127 35,-3 71,-4 107,-4 69,0 140,4 209,6 57,2 120,4 185,4 164,0 341,-14 463,-82 112,-62 190,-158 190,-289 0,-78 -30,-158 -88,-211 -74,-70 -181,-99 -282,-99 -123,-1 -220,30 -308,121 -97,-100 -217,-122 -347,-122 -114,0 -243,15 -336,87 -71,55 -108,135 -108,225 0,61 17,119 63,161 47,43 112,58 174,58 110,0 222,-66 222,-189 0,-116 -103,-190 -209,-190 -52,0 -99,15 -133,40 78,-108 203,-121 327,-121 54,0 118,12 166,36 78,39 120,105 120,195l0 193c0,26 41,35 61,35 19,0 61,-8 61,-35l0 -193c0,-145 106,-232 243,-231 65,0 133,20 182,66 48,44 70,109 70,174 -1,100 -66,190 -153,238 -96,53 -252,65 -393,65 -60,0 -117,-2 -166,-4 -75,-3 -152,-7 -228,-7 -33,0 -67,1 -100,3 -138,8 -304,25 -304,197 0,115 116,163 211,188 106,27 234,33 344,33 95,0 193,-4 288,-13 148,-15 300,-47 431,-118 185,-100 292,-250 369,-439 47,57 120,76 192,76 110,0 222,-65 222,-189 0,-115 -104,-189 -210,-189 -52,0 -98,15 -132,40 79,-111 203,-121 330,-121 55,0 113,11 163,36 78,39 120,105 120,195l0 193c0,26 41,35 60,35 20,0 62,-9 62,-35l0 -193c0,-145 105,-232 242,-231 66,0 133,20 183,66 47,44 69,109 69,174 -1,62 -23,120 -61,167 -42,52 -101,84 -162,102 -69,21 -157,31 -252,32l-66 1c-75,1 -151,-3 -225,-5 -68,-2 -130,-5 -189,-5 -90,0 -170,6 -234,23 -94,25 -155,72 -155,174 0,193 208,225 359,224 107,-1 207,-23 305,-66 106,-47 185,-102 275,-174 13,156 97,240 254,240 131,0 273,-75 273,-222zm-2830 -342c-69,0 -125,-45 -125,-119 0,-73 54,-118 123,-118 70,0 123,46 123,119 0,70 -53,118 -121,118zm2557 493c-89,0 -144,-67 -144,-153 0,-90 59,-151 150,-151 86,0 144,64 144,151 0,89 -60,153 -150,153zm-832 2c-94,0 -244,-20 -244,-141 0,-51 29,-101 78,-119 45,-17 112,-22 195,-22 56,0 118,3 183,5 77,2 154,4 231,4 47,0 95,0 143,-2 -97,91 -199,155 -317,213 -89,43 -171,62 -269,62z"/>
 </g>
</svg>
