<?xml version="1.0" encoding="UTF-8"?>
<!DOCTYPE svg PUBLIC "-//W3C//DTD SVG 1.1//EN" "http://www.w3.org/Graphics/SVG/1.1/DTD/svg11.dtd">
<!-- Creator: CorelDRAW X8 -->
<svg xmlns="http://www.w3.org/2000/svg" xml:space="preserve" width="1738px" height="1486px" version="1.1" style="shape-rendering:geometricPrecision; text-rendering:geometricPrecision; image-rendering:optimizeQuality; fill-rule:evenodd; clip-rule:evenodd"
viewBox="0 0 1738 1486"
 xmlns:xlink="http://www.w3.org/1999/xlink">
 <defs>
  <style type="text/css">
   <![CDATA[
    .fil0 {fill:#CC9933;fill-rule:nonzero}
   ]]>
  </style>
 </defs>
 <g id="Layer_x0020_1">
  <metadata id="CorelCorpID_0Corel-Layer"/>
  <path class="fil0" d="M1360 617c60,-1 125,3 174,43 57,46 81,109 81,181 0,59 -15,116 -54,162 -65,78 -176,97 -272,97l-1010 0c-126,0 -273,31 -276,188 -3,163 147,198 276,198l1350 0c31,0 61,-27 61,-60 0,-33 -30,-59 -61,-59l-1350 0c-66,0 -149,-10 -151,-96 -2,-85 86,-102 151,-102l1010 0c125,0 275,-28 367,-120 56,-57 82,-128 82,-208 0,-88 -34,-165 -103,-221 -78,-64 -188,-68 -284,-66 16,-14 30,-28 45,-46 44,-56 71,-126 72,-198 1,-80 -29,-156 -87,-210 -75,-70 -182,-98 -282,-99 -123,0 -220,30 -308,121 -101,-105 -225,-124 -362,-122 -108,2 -232,19 -321,87 -71,56 -108,135 -108,225 0,61 17,119 63,161 47,43 112,57 174,57 110,0 222,-65 222,-189 0,-115 -103,-189 -209,-189 -52,0 -99,15 -133,40 67,-93 171,-127 314,-121 57,2 127,10 179,36 78,39 120,105 120,195l0 193c0,26 41,35 60,35 20,0 62,-9 62,-35l0 -193c0,-145 105,-231 242,-231 66,1 133,20 183,66 47,44 69,109 69,174 -1,62 -23,120 -61,167 -42,52 -101,83 -162,102 -69,20 -157,29 -252,32 -97,2 -194,-1 -291,-4 -168,-6 -316,-11 -423,18 -96,26 -158,75 -154,184 4,112 82,170 181,195 58,14 119,19 178,19 106,-1 207,-24 304,-66 107,-47 185,-102 275,-174 13,158 99,242 260,240 128,-2 268,-77 267,-225 -1,-83 -48,-146 -108,-182zm-309 190c-3,-94 57,-159 150,-158 86,0 144,64 144,150 0,89 -58,152 -146,154 -85,2 -145,-59 -148,-146zm-937 -466c0,-73 54,-118 123,-118 70,0 123,46 123,118 0,71 -53,119 -121,119 -69,0 -125,-45 -125,-119zm835 339c-97,91 -199,155 -317,213 -86,42 -174,64 -269,62 -41,0 -82,-5 -122,-14 -67,-14 -123,-56 -121,-131 1,-50 31,-98 78,-115 73,-28 215,-23 377,-17 126,4 248,6 374,2z"/>
 </g>
</svg>
