<?xml version="1.0" encoding="UTF-8"?>
<!DOCTYPE svg PUBLIC "-//W3C//DTD SVG 1.1//EN" "http://www.w3.org/Graphics/SVG/1.1/DTD/svg11.dtd">
<!-- Creator: CorelDRAW X8 -->
<svg xmlns="http://www.w3.org/2000/svg" xml:space="preserve" width="3386px" height="1486px" version="1.1" style="shape-rendering:geometricPrecision; text-rendering:geometricPrecision; image-rendering:optimizeQuality; fill-rule:evenodd; clip-rule:evenodd"
viewBox="0 0 3386 1486"
 xmlns:xlink="http://www.w3.org/1999/xlink">
 <defs>
  <style type="text/css">
   <![CDATA[
    .fil0 {fill:#00A0E3;fill-rule:nonzero}
   ]]>
  </style>
 </defs>
 <g id="Layer_x0020_1">
  <metadata id="CorelCorpID_0Corel-Layer"/>
  <path class="fil0" d="M1468 311c1,-81 -29,-157 -87,-211 -75,-70 -182,-98 -282,-99 -123,0 -220,30 -308,121 -101,-105 -225,-124 -362,-122 -108,2 -232,19 -321,87 -71,56 -108,135 -108,225 0,61 17,119 63,161 47,43 112,57 174,57 110,0 222,-65 222,-189 0,-115 -103,-189 -209,-189 -52,0 -99,15 -133,40 67,-93 171,-127 314,-121 57,2 127,10 179,36 78,39 120,105 120,195l0 193c0,26 41,35 60,35 20,0 62,-9 62,-35l0 -193c0,-145 105,-231 242,-231 66,1 133,20 183,66 47,44 69,109 69,174 -1,99 -65,190 -152,238 -137,76 -395,67 -559,61 -108,-4 -221,-11 -328,-5 -123,8 -288,24 -303,182 -11,127 111,178 210,204 106,27 234,32 344,33 95,0 193,-4 288,-14 148,-15 299,-46 431,-118 185,-99 290,-249 367,-438 47,58 121,76 192,76 110,0 223,-65 223,-189 0,-115 -104,-189 -210,-189 -51,0 -98,15 -132,40 66,-93 171,-127 313,-121 57,2 128,10 179,36 79,39 121,105 120,195l0 193c0,26 41,35 61,35 20,0 61,-9 61,-35l1 -193c0,-145 105,-231 242,-231 66,1 133,20 182,66 47,44 70,109 69,174 0,62 -22,120 -61,167 -41,52 -100,83 -162,102 -68,20 -157,29 -252,32 -97,2 -194,-1 -291,-4 -168,-6 -315,-11 -423,18 -95,26 -158,75 -154,184 5,112 82,170 182,195 57,14 119,19 178,19 105,-1 206,-23 303,-66 107,-47 186,-102 276,-174 13,158 99,242 259,240 129,-2 268,-77 267,-224 0,-85 -49,-149 -109,-184l28 1c64,1 120,24 164,61 73,60 115,142 113,244 -2,116 -60,226 -145,303 -119,108 -244,146 -396,176 20,-20 36,-51 36,-81 0,-85 -116,-128 -183,-144 -60,-14 -121,-19 -181,-19 -66,0 -136,5 -200,22 -63,16 -171,60 -171,141 0,79 104,124 166,141 66,18 138,23 206,24 93,2 194,-1 295,-13 197,-24 393,-83 532,-210 96,-87 163,-209 164,-340 1,-153 -75,-254 -191,-317 -58,-31 -127,-50 -200,-52l-43 -1c15,-13 29,-27 43,-44 45,-56 71,-126 72,-197 2,-81 -28,-157 -86,-211 -76,-70 -183,-98 -282,-99 -124,0 -221,30 -308,121 -101,-105 -225,-124 -362,-122 -109,2 -233,19 -321,87 -58,45 -93,105 -104,174 -42,248 -117,439 -349,565 -127,69 -276,99 -418,115 -92,10 -187,14 -280,14 -94,0 -200,-5 -292,-29 -67,-17 -146,-51 -138,-135 8,-94 115,-111 188,-116 104,-7 211,-1 316,3 202,7 476,17 648,-79 109,-60 187,-163 189,-288zm926 908c53,0 108,5 159,20 35,11 96,37 97,81 0,45 -63,72 -99,82 -50,15 -105,20 -157,20 -60,0 -133,-6 -189,-28 -29,-12 -74,-37 -73,-74 1,-37 44,-61 74,-73 56,-22 128,-28 188,-28zm256 -412c-3,-94 58,-159 150,-158 86,0 145,64 145,151 -1,88 -59,151 -146,153 -85,2 -146,-59 -149,-146zm-937 -466c0,-73 54,-118 124,-118 69,0 123,46 123,118 0,71 -53,119 -121,119 -70,0 -126,-45 -126,-119zm835 339c-96,91 -199,155 -317,213 -85,42 -174,64 -268,62 -41,0 -82,-5 -123,-14 -66,-14 -122,-56 -121,-131 2,-50 32,-98 78,-115 73,-28 216,-23 378,-17 125,4 247,6 373,2zm-2434 -339c0,-73 54,-118 123,-118 70,0 123,46 123,118 0,71 -53,119 -121,119 -69,0 -125,-45 -125,-119z"/>
 </g>
</svg>
