<?xml version="1.0" encoding="UTF-8"?>
<!DOCTYPE svg PUBLIC "-//W3C//DTD SVG 1.1//EN" "http://www.w3.org/Graphics/SVG/1.1/DTD/svg11.dtd">
<!-- Creator: CorelDRAW X8 -->
<svg xmlns="http://www.w3.org/2000/svg" xml:space="preserve" width="1103px" height="868px" version="1.1" style="shape-rendering:geometricPrecision; text-rendering:geometricPrecision; image-rendering:optimizeQuality; fill-rule:evenodd; clip-rule:evenodd"
viewBox="0 0 1103 868"
 xmlns:xlink="http://www.w3.org/1999/xlink">
 <defs>
  <style type="text/css">
   <![CDATA[
    .fil0 {fill:#00A0E3}
   ]]>
  </style>
 </defs>
 <g id="Layer_x0020_1">
  <metadata id="CorelCorpID_0Corel-Layer"/>
  <path class="fil0" d="M492 715c-46,0 -83,6 -107,15 -26,9 -39,23 -39,36 -1,14 12,27 39,37 24,9 60,15 107,15 38,0 66,-4 89,-10 36,-10 53,-26 53,-42 0,-15 -17,-31 -52,-41 -23,-6 -52,-10 -90,-10zm427 -7c51,-45 85,-107 86,-171 1,-88 -60,-174 -156,-177 36,22 61,57 62,103 0,87 -87,134 -173,135 -81,1 -160,-39 -168,-125 -44,35 -92,63 -148,86 -59,24 -122,39 -191,39 -41,1 -80,-3 -112,-11 -63,-15 -114,-50 -117,-118 -3,-65 39,-95 100,-111 68,-17 159,-14 264,-11 112,4 239,7 319,-15 38,-11 70,-29 92,-55 23,-27 35,-59 36,-94 0,-34 -12,-71 -40,-96 -27,-23 -62,-33 -97,-34 -93,-1 -137,60 -137,126l0 110c0,15 -22,27 -50,27 -27,0 -48,-12 -48,-27l0 -110c0,-54 -28,-88 -69,-107 -26,-12 -65,-17 -101,-19 -48,-2 -124,4 -157,42 12,-5 26,-7 40,-8 69,-4 147,38 147,114 0,78 -77,115 -146,115 -46,0 -87,-11 -115,-36 -25,-21 -40,-53 -40,-95 0,-61 26,-103 65,-131 54,-40 134,-54 206,-54 73,0 165,9 219,62 47,-46 121,-62 186,-62 66,0 134,19 180,60 38,33 55,78 55,123 -1,48 -22,93 -55,127 135,5 248,89 247,227 -1,75 -40,146 -101,199 -103,90 -256,122 -400,130 -38,2 -75,2 -110,2 -45,-1 -89,-5 -129,-15 -72,-19 -107,-53 -107,-87 0,-34 37,-69 110,-87 34,-8 77,-13 126,-13 45,0 82,4 114,11 46,10 118,38 118,89 0,15 -6,28 -16,39 77,-16 152,-46 211,-97zm-260 -245c0,56 39,83 79,81 37,-1 74,-28 74,-81 1,-52 -37,-80 -75,-80 -39,0 -78,25 -78,80zm-566 -261c0,40 32,61 64,61 30,0 61,-22 61,-62 0,-40 -32,-61 -63,-61 -31,0 -62,21 -62,62zm470 200c-63,2 -134,0 -197,-2 -99,-3 -186,-6 -228,9 -25,9 -41,35 -41,60 -1,40 28,62 65,69 24,5 47,8 69,8 57,1 108,-12 155,-34 55,-26 127,-64 177,-110z"/>
 </g>
</svg>
