<?xml version="1.0" encoding="UTF-8"?>
<!DOCTYPE svg PUBLIC "-//W3C//DTD SVG 1.1//EN" "http://www.w3.org/Graphics/SVG/1.1/DTD/svg11.dtd">
<!-- Creator: CorelDRAW X8 -->
<svg xmlns="http://www.w3.org/2000/svg" xml:space="preserve" width="3068px" height="1024px" version="1.1" style="shape-rendering:geometricPrecision; text-rendering:geometricPrecision; image-rendering:optimizeQuality; fill-rule:evenodd; clip-rule:evenodd"
viewBox="0 0 3068 1024"
 xmlns:xlink="http://www.w3.org/1999/xlink">
 <defs>
  <style type="text/css">
   <![CDATA[
    .fil0 {fill:#00A0E3;fill-rule:nonzero}
   ]]>
  </style>
 </defs>
 <g id="Layer_x0020_1">
  <metadata id="CorelCorpID_0Corel-Layer"/>
  <path class="fil0" d="M2541 784c13,158 99,242 260,240 128,-1 268,-77 267,-224 -1,-112 -85,-187 -170,-209 38,-24 69,-47 98,-83 44,-55 71,-126 72,-197 1,-81 -29,-156 -87,-211 -75,-70 -182,-98 -282,-99 -124,0 -220,30 -308,121 -101,-105 -225,-124 -362,-122 -109,2 -233,19 -321,87 -58,45 -94,107 -105,177 -38,245 -120,439 -348,563 -127,68 -276,99 -418,114 -92,10 -187,15 -280,14 -94,0 -200,-5 -292,-28 -67,-17 -146,-52 -138,-136 8,-93 115,-110 188,-115 104,-8 211,-1 316,2 202,7 476,17 648,-78 109,-61 187,-164 189,-289 2,-81 -28,-156 -87,-211 -75,-70 -182,-98 -282,-99 -123,0 -220,30 -308,121 -101,-105 -225,-124 -362,-122 -108,2 -232,19 -321,87 -71,56 -108,135 -108,225 0,61 17,119 63,161 47,43 112,58 174,58 110,0 222,-66 222,-189 0,-116 -103,-190 -209,-190 -52,0 -99,15 -133,40 67,-93 171,-127 314,-121 57,2 127,10 179,36 78,39 120,105 120,195l0 193c0,26 41,35 61,35 19,0 61,-8 61,-35l0 -193c1,-145 105,-231 243,-231 65,1 133,20 182,66 47,44 69,109 69,174 -1,100 -65,190 -152,238 -137,76 -395,67 -559,61 -108,-4 -220,-11 -328,-4 -123,7 -288,23 -303,181 -11,127 111,178 210,204 106,27 234,32 344,33 95,0 193,-4 288,-13 148,-15 299,-47 431,-118 185,-100 291,-250 368,-439 46,58 120,77 192,77 110,0 222,-66 222,-189 0,-116 -104,-190 -209,-190 -52,0 -99,15 -133,40 67,-93 171,-127 313,-121 57,2 128,10 180,36 78,39 120,105 120,195l0 193c-1,26 41,35 60,35 20,0 62,-8 62,-35l0 -193c0,-145 105,-231 242,-231 66,1 133,20 183,66 47,44 69,109 69,174 -1,62 -23,120 -61,168 -42,51 -101,82 -162,101 -69,21 -157,29 -252,32 -97,2 -194,-1 -291,-4 -168,-6 -316,-11 -423,18 -96,26 -158,75 -154,184 4,112 82,170 181,195 57,14 119,20 178,19 106,-1 207,-23 304,-66 106,-47 185,-101 275,-174zm-2427 -443c0,-73 54,-118 123,-118 70,0 123,46 123,119 0,70 -53,118 -121,118 -69,0 -125,-45 -125,-119zm2537 466c-3,-94 57,-158 150,-158 86,0 144,64 144,151 0,88 -58,151 -146,153 -85,2 -145,-58 -148,-146zm-937 -466c0,-73 54,-118 123,-118 70,0 123,46 123,119 0,70 -53,118 -121,118 -69,0 -126,-45 -125,-119zm835 339c-97,92 -199,155 -317,213 -86,42 -174,64 -269,62 -41,0 -82,-5 -122,-14 -67,-14 -123,-56 -121,-131 1,-50 31,-97 77,-115 74,-27 216,-23 378,-17 126,4 248,6 374,2z"/>
 </g>
</svg>
