<?xml version="1.0" encoding="UTF-8"?>
<!DOCTYPE svg PUBLIC "-//W3C//DTD SVG 1.1//EN" "http://www.w3.org/Graphics/SVG/1.1/DTD/svg11.dtd">
<!-- Creator: CorelDRAW X8 -->
<svg xmlns="http://www.w3.org/2000/svg" xml:space="preserve" width="1787px" height="1486px" version="1.1" style="shape-rendering:geometricPrecision; text-rendering:geometricPrecision; image-rendering:optimizeQuality; fill-rule:evenodd; clip-rule:evenodd"
viewBox="0 0 1787 1486"
 xmlns:xlink="http://www.w3.org/1999/xlink">
 <defs>
  <style type="text/css">
   <![CDATA[
    .fil0 {fill:#2B2A29;fill-rule:nonzero}
   ]]>
  </style>
 </defs>
 <g id="Layer_x0020_1">
  <metadata id="CorelCorpID_0Corel-Layer"/>
  <path class="fil0" d="M363 955c-93,0 -243,-20 -243,-141 0,-51 29,-101 78,-119 44,-17 112,-22 194,-22 56,0 118,3 183,5 78,2 154,4 231,4 47,0 95,0 143,-2 -97,91 -199,155 -317,213 -89,43 -171,62 -269,62zm832 -2c-89,0 -144,-67 -144,-153 0,-90 59,-151 150,-151 86,0 144,64 144,151 0,89 -60,153 -150,153zm-956 -493c-69,0 -125,-45 -125,-119 0,-73 54,-118 123,-118 70,0 123,46 123,118 0,71 -53,119 -121,119zm1229 342c0,-79 -44,-148 -109,-186 99,0 185,39 239,105 43,52 66,120 66,198 0,118 -58,227 -145,306 -119,109 -244,147 -396,176 20,-19 36,-50 36,-81 0,-84 -117,-128 -183,-144 -60,-14 -121,-19 -182,-19 -65,0 -136,6 -199,22 -64,17 -171,61 -171,141 0,76 83,119 174,142 56,14 123,24 192,24 128,1 266,-7 370,-24 172,-28 337,-85 463,-200 97,-89 164,-210 164,-343 0,-105 -34,-186 -96,-247 -93,-90 -212,-120 -338,-120 15,-13 29,-27 43,-44 45,-57 72,-129 72,-201 0,-79 -30,-153 -87,-207 -75,-70 -182,-99 -282,-99 -123,-1 -220,30 -308,121 -97,-100 -214,-122 -344,-122 -114,0 -247,15 -339,87 -72,55 -108,135 -108,225 0,61 17,119 63,161 47,43 112,57 174,57 110,0 222,-65 222,-189 0,-115 -103,-189 -209,-189 -52,0 -99,15 -133,40 80,-111 203,-122 330,-121 56,0 114,11 163,36 78,39 120,105 120,195l0 193c0,26 41,35 60,35 20,0 62,-9 62,-35l0 -193c0,-145 105,-232 242,-231 66,0 133,20 183,66 47,44 70,109 69,174 0,62 -23,120 -61,167 -42,52 -101,84 -162,102 -100,30 -213,32 -318,33 -75,0 -150,-3 -225,-5 -67,-2 -130,-5 -189,-5 -90,0 -169,6 -234,23 -93,25 -154,72 -154,174 0,193 207,225 359,224 106,-1 207,-23 304,-66 107,-47 185,-102 275,-174 13,156 97,240 254,240 131,0 273,-75 273,-222zm-673 620c-179,0 -263,-51 -263,-102 0,-52 93,-101 263,-101 168,0 256,53 256,101 0,49 -80,102 -256,102z"/>
 </g>
</svg>
