<?xml version="1.0" encoding="UTF-8"?>
<!DOCTYPE svg PUBLIC "-//W3C//DTD SVG 1.1//EN" "http://www.w3.org/Graphics/SVG/1.1/DTD/svg11.dtd">
<!-- Creator: CorelDRAW X8 -->
<svg xmlns="http://www.w3.org/2000/svg" xml:space="preserve" width="2185px" height="1486px" version="1.1" style="shape-rendering:geometricPrecision; text-rendering:geometricPrecision; image-rendering:optimizeQuality; fill-rule:evenodd; clip-rule:evenodd"
viewBox="0 0 2185 1486"
 xmlns:xlink="http://www.w3.org/1999/xlink">
 <defs>
  <style type="text/css">
   <![CDATA[
    .fil0 {fill:#2B2A29;fill-rule:nonzero}
   ]]>
  </style>
 </defs>
 <g id="Layer_x0020_1">
  <metadata id="CorelCorpID_0Corel-Layer"/>
  <path class="fil0" d="M1180 1487c323,0 759,-75 940,-377 40,-67 65,-150 65,-227 0,-62 -16,-131 -50,-184 -75,-117 -207,-142 -337,-145 16,-14 31,-28 45,-47 45,-56 72,-128 72,-201 0,-79 -29,-153 -87,-207 -74,-70 -182,-98 -282,-99 -123,0 -220,30 -308,121 -97,-100 -214,-122 -344,-122 -114,0 -246,15 -339,87 -71,56 -108,135 -108,225 0,61 17,119 63,161 47,43 112,57 174,57 110,0 222,-65 222,-189 0,-115 -103,-189 -209,-189 -52,0 -99,15 -133,40 80,-110 204,-121 330,-121 56,0 114,12 163,36 78,39 120,105 120,195l0 193c0,26 41,35 60,35 20,0 62,-9 62,-35l0 -193c0,-145 105,-232 242,-231 66,1 134,20 183,66 48,44 70,109 69,174 0,62 -23,120 -61,167 -42,52 -100,84 -162,103 -100,30 -213,32 -318,32 -75,1 -150,-2 -225,-4 -67,-2 -130,-6 -189,-6 -90,0 -169,6 -234,24 -93,24 -154,72 -154,174 0,193 208,224 359,224 106,-1 207,-23 304,-66 107,-48 185,-102 275,-174 13,156 97,240 254,240 132,0 273,-75 273,-222 0,-79 -42,-146 -106,-185 85,11 160,26 211,106 33,52 42,100 42,160 0,68 -24,147 -59,205 -159,266 -537,330 -823,330 -238,0 -506,-43 -709,-173 -246,-158 -348,-403 -348,-688 0,-193 83,-391 243,-499 10,-7 15,-15 15,-23 0,-10 -8,-19 -22,-26 -12,-5 -26,-9 -41,-9 -16,0 -32,5 -45,13 -178,120 -273,329 -273,544 0,335 141,607 440,770 220,119 492,160 740,160zm-494 -1028c-69,0 -125,-45 -125,-119 0,-73 54,-118 123,-118 70,0 123,46 123,118 0,71 -53,119 -121,119zm956 493c-89,0 -144,-66 -144,-152 0,-90 59,-152 150,-152 86,0 144,64 144,152 0,89 -59,152 -150,152zm-832 2c-93,0 -243,-19 -243,-140 0,-51 29,-101 78,-120 44,-16 112,-22 194,-22 56,0 118,4 183,6 78,2 154,4 231,4 47,0 95,0 143,-2 -97,90 -199,155 -317,212 -88,44 -170,62 -269,62z"/>
 </g>
</svg>
