<?xml version="1.0" encoding="UTF-8"?>
<!DOCTYPE svg PUBLIC "-//W3C//DTD SVG 1.1//EN" "http://www.w3.org/Graphics/SVG/1.1/DTD/svg11.dtd">
<!-- Creator: CorelDRAW X8 -->
<svg xmlns="http://www.w3.org/2000/svg" xml:space="preserve" width="1135px" height="868px" version="1.1" style="shape-rendering:geometricPrecision; text-rendering:geometricPrecision; image-rendering:optimizeQuality; fill-rule:evenodd; clip-rule:evenodd"
viewBox="0 0 1135 868"
 xmlns:xlink="http://www.w3.org/1999/xlink">
 <defs>
  <style type="text/css">
   <![CDATA[
    .fil0 {fill:#00A0E3;fill-rule:nonzero}
   ]]>
  </style>
 </defs>
 <g id="Layer_x0020_1">
  <metadata id="CorelCorpID_0Corel-Layer"/>
  <path class="fil0" d="M657 463c0,-54 39,-80 78,-80 38,0 75,28 75,80 0,53 -37,80 -75,82 -39,1 -78,-26 -78,-82zm-564 -261c0,-41 31,-62 62,-62 31,0 62,21 62,62 0,39 -30,61 -61,61 -31,0 -63,-21 -63,-61zm468 200c-50,46 -121,84 -176,110 -47,22 -98,35 -155,34 -22,0 -45,-3 -68,-8 -37,-7 -67,-29 -66,-68 1,-26 17,-52 42,-61 42,-15 129,-12 227,-9 62,2 134,4 196,2zm8 72c7,85 86,125 166,124 87,-1 174,-48 173,-135 0,-46 -26,-81 -62,-104 26,-4 56,-7 84,-6 42,1 96,10 100,61 2,27 -15,58 -46,58 -16,0 -49,8 -46,30 3,14 22,25 49,24 32,-2 51,20 50,50 -1,37 -33,60 -70,60 -262,0 -525,0 -788,0 -121,0 -176,41 -178,113 -2,99 96,119 178,119l879 0c27,0 49,-18 49,-40 0,-23 -22,-41 -49,-41l-879 0c-51,0 -78,-11 -79,-48 -1,-34 25,-50 79,-50 263,0 526,0 788,0 50,0 98,-11 130,-36 22,-18 37,-43 38,-76 1,-35 -19,-63 -48,-81 27,-20 43,-51 40,-84 -3,-57 -44,-87 -94,-101 -31,-9 -67,-12 -103,-12 -26,1 -51,3 -73,8 31,-34 50,-78 51,-124 1,-45 -16,-90 -54,-123 -47,-41 -114,-60 -180,-60 -65,0 -139,16 -185,62 -54,-53 -146,-62 -219,-62 -72,0 -152,14 -206,54 -39,28 -64,70 -64,131 0,42 15,74 40,95 28,25 68,36 115,36 68,0 146,-37 145,-115 0,-76 -78,-118 -147,-114 -13,1 -27,3 -40,9 34,-39 110,-45 157,-43 36,2 75,7 101,19 41,19 69,53 69,107l0 110c0,15 21,27 48,27 27,0 49,-12 49,-27l0 -110c0,-66 45,-127 137,-126 35,1 70,11 96,34 28,25 41,62 40,97 0,34 -13,66 -35,93 -23,26 -54,44 -92,55 -79,23 -206,19 -318,15 -104,-3 -195,-6 -264,12 -60,15 -102,45 -99,111 3,67 54,102 116,117 33,8 72,12 112,11 70,0 132,-14 191,-39 55,-23 103,-51 148,-85z"/>
 </g>
</svg>
