<?xml version="1.0" encoding="UTF-8"?>
<!DOCTYPE svg PUBLIC "-//W3C//DTD SVG 1.1//EN" "http://www.w3.org/Graphics/SVG/1.1/DTD/svg11.dtd">
<!-- Creator: CorelDRAW X8 -->
<svg xmlns="http://www.w3.org/2000/svg" xml:space="preserve" width="1844px" height="1486px" version="1.1" style="shape-rendering:geometricPrecision; text-rendering:geometricPrecision; image-rendering:optimizeQuality; fill-rule:evenodd; clip-rule:evenodd"
viewBox="0 0 1844 1486"
 xmlns:xlink="http://www.w3.org/1999/xlink">
 <defs>
  <style type="text/css">
   <![CDATA[
    .fil0 {fill:#00A0E3;fill-rule:nonzero}
   ]]>
  </style>
 </defs>
 <g id="Layer_x0020_1">
  <metadata id="CorelCorpID_0Corel-Layer"/>
  <path class="fil0" d="M941 784c13,158 100,242 260,240 129,-1 268,-77 268,-224 -1,-86 -50,-149 -111,-184 42,-6 104,-11 161,-8 94,5 185,29 190,109 4,56 -41,104 -96,104 -21,0 -63,9 -63,36 1,27 46,35 67,34 62,-3 107,35 104,99 -3,74 -67,110 -136,110l-1309 0c-126,0 -273,31 -276,188 -3,164 147,198 277,198l1458 0c32,0 62,-25 62,-59 0,-33 -30,-59 -62,-59l-1458 0c-66,0 -150,-11 -152,-97 -2,-85 86,-101 151,-101l1309 0c68,0 146,-14 199,-59 39,-32 58,-70 60,-120 2,-66 -34,-107 -86,-139 48,-38 78,-73 73,-137 -10,-156 -189,-179 -311,-176 -58,2 -124,5 -165,12 14,-13 28,-26 41,-43 45,-55 71,-126 72,-197 2,-81 -28,-156 -86,-211 -76,-70 -183,-98 -283,-99 -123,0 -220,30 -307,121 -101,-105 -226,-124 -363,-122 -108,2 -232,19 -321,87 -71,56 -108,135 -108,225 0,61 17,119 63,161 47,44 112,58 174,58 110,0 222,-66 222,-189 0,-116 -103,-190 -209,-190 -52,0 -99,15 -133,40 67,-93 172,-127 314,-121 57,2 127,10 179,36 79,39 120,105 120,195l0 193c0,26 41,35 61,35 19,0 61,-8 61,-34l1 -194c0,-145 105,-231 242,-230 66,0 133,19 182,65 47,44 70,109 69,174 0,62 -22,120 -61,168 -41,51 -100,82 -162,101 -68,21 -157,29 -252,32 -97,3 -194,-1 -291,-4 -168,-6 -316,-10 -423,18 -96,26 -158,75 -154,184 4,112 82,170 182,195 57,15 119,20 177,19 106,-1 207,-23 304,-66 107,-47 186,-101 275,-174zm110 24c-3,-95 58,-159 150,-159 86,0 145,64 145,151 -1,88 -59,152 -146,153 -85,2 -146,-58 -149,-145zm-937 -467c0,-73 54,-118 123,-118 70,0 123,46 123,119 0,70 -52,118 -121,118 -69,0 -125,-45 -125,-119zm835 339c-96,92 -199,156 -317,213 -85,42 -174,64 -269,63 -41,-1 -82,-6 -122,-15 -67,-14 -123,-56 -121,-131 1,-50 31,-97 78,-115 73,-27 216,-23 377,-17 126,4 248,7 374,2z"/>
 </g>
</svg>
