<?xml version="1.0" encoding="UTF-8"?>
<!DOCTYPE svg PUBLIC "-//W3C//DTD SVG 1.1//EN" "http://www.w3.org/Graphics/SVG/1.1/DTD/svg11.dtd">
<!-- Creator: CorelDRAW X8 -->
<svg xmlns="http://www.w3.org/2000/svg" xml:space="preserve" width="1787px" height="1486px" version="1.1" style="shape-rendering:geometricPrecision; text-rendering:geometricPrecision; image-rendering:optimizeQuality; fill-rule:evenodd; clip-rule:evenodd"
viewBox="0 0 1787 1486"
 xmlns:xlink="http://www.w3.org/1999/xlink">
 <defs>
  <style type="text/css">
   <![CDATA[
    .fil0 {fill:#00A0E3}
   ]]>
  </style>
 </defs>
 <g id="Layer_x0020_1">
  <metadata id="CorelCorpID_0Corel-Layer"/>
  <path class="fil0" d="M1519 1225c-119,109 -244,147 -396,176 20,-19 36,-50 36,-81 0,-84 -117,-128 -183,-144 -60,-14 -121,-19 -182,-19 -65,0 -136,6 -199,22 -64,17 -171,61 -171,141 0,80 103,124 166,141 66,18 137,24 205,25 94,2 195,-2 296,-14 197,-24 393,-83 532,-210 96,-87 163,-207 164,-340 1,-152 -75,-254 -191,-316 -58,-32 -127,-51 -200,-53l-43 -1c15,-12 29,-27 43,-44 45,-55 71,-126 72,-197 2,-81 -28,-156 -86,-211 -76,-70 -183,-98 -283,-99 -123,0 -220,30 -307,121 -102,-105 -226,-124 -363,-122 -108,2 -232,19 -321,87 -71,56 -108,135 -108,225 0,61 17,119 63,161 47,43 112,58 174,58 110,0 222,-66 222,-189 0,-116 -103,-190 -209,-190 -52,0 -99,15 -133,40 67,-93 172,-127 314,-121 57,2 127,10 179,36 79,39 120,105 120,195l0 193c0,26 41,35 61,35 19,0 61,-8 61,-34l0 -194c1,-145 106,-231 243,-231 65,1 133,20 182,66 47,44 70,109 69,174 0,62 -22,120 -61,168 -41,51 -100,82 -162,101 -68,21 -157,29 -252,32 -97,3 -194,-1 -291,-4 -168,-6 -316,-10 -423,18 -96,26 -158,75 -154,184 4,112 82,170 182,195 57,15 119,20 177,19 106,-1 207,-23 304,-66 107,-47 186,-101 275,-174 13,158 100,242 260,240 129,-1 268,-77 267,-224 0,-85 -49,-149 -109,-184l28 1c64,2 120,25 164,61 73,60 115,143 113,245 -2,116 -61,226 -145,302zm-468 -417c-3,-95 58,-159 150,-159 86,0 145,64 144,151 0,88 -58,152 -145,153 -86,2 -146,-58 -149,-145zm-937 -467c0,-73 54,-118 123,-118 70,0 123,46 123,119 0,70 -52,118 -121,118 -69,0 -125,-45 -125,-119zm835 339c-96,92 -199,155 -317,213 -85,42 -174,64 -269,62 -41,0 -82,-5 -122,-14 -67,-14 -123,-56 -121,-131 1,-50 31,-97 78,-115 73,-27 216,-23 377,-17 126,4 248,7 374,2zm-155 540c53,0 109,4 160,20 35,10 96,36 96,80 1,45 -63,72 -98,83 -50,15 -105,19 -158,19 -60,0 -132,-6 -188,-28 -30,-12 -74,-36 -73,-74 0,-37 44,-61 74,-72 56,-22 128,-28 187,-28z"/>
 </g>
</svg>
