<?xml version="1.0" encoding="UTF-8"?>
<!DOCTYPE svg PUBLIC "-//W3C//DTD SVG 1.1//EN" "http://www.w3.org/Graphics/SVG/1.1/DTD/svg11.dtd">
<!-- Creator: CorelDRAW X8 -->
<svg xmlns="http://www.w3.org/2000/svg" xml:space="preserve" width="3814px" height="1024px" version="1.1" style="shape-rendering:geometricPrecision; text-rendering:geometricPrecision; image-rendering:optimizeQuality; fill-rule:evenodd; clip-rule:evenodd"
viewBox="0 0 3814 1024"
 xmlns:xlink="http://www.w3.org/1999/xlink">
 <defs>
  <style type="text/css">
   <![CDATA[
    .fil0 {fill:#00A0E3;fill-rule:nonzero}
   ]]>
  </style>
 </defs>
 <g id="Layer_x0020_1">
  <metadata id="CorelCorpID_0Corel-Layer"/>
  <path class="fil0" d="M114 341c0,-73 54,-118 123,-118 70,0 123,46 123,118 0,71 -53,119 -121,119 -69,0 -125,-45 -125,-119zm1572 333c23,-106 118,-198 227,-198 131,0 194,117 194,237 0,119 -64,240 -194,240 -132,0 -227,-156 -227,-279zm1375 -539c150,108 225,277 225,463 0,79 -15,163 -52,232 -36,68 -94,122 -173,122 -80,1 -136,-53 -172,-121 -38,-69 -52,-154 -52,-233 0,-187 72,-355 224,-463zm-2247 478c-71,0 -147,-4 -223,-7 -126,-6 -255,-10 -370,7 -101,15 -213,55 -216,178 -4,139 117,180 228,203 126,26 265,30 393,29 141,-2 285,-7 423,-30 194,-31 378,-97 536,-234 30,76 61,139 123,192 61,51 126,74 204,72 73,-2 152,-26 208,-74 68,-57 100,-148 102,-235 3,-82 -20,-161 -76,-221 -59,-64 -146,-96 -232,-93 -92,3 -184,44 -241,147 2,-94 10,-168 51,-254 66,-136 187,-223 337,-223 198,0 334,111 334,321l0 597c0,26 42,35 62,35 19,0 61,-9 61,-35l0 -597c0,-209 112,-320 316,-321 48,0 87,8 133,20 -168,120 -253,299 -253,508 0,86 17,178 57,253 61,113 164,172 290,172 126,-1 229,-58 290,-172 41,-76 58,-167 57,-253 0,-208 -85,-388 -252,-508 46,-12 84,-20 132,-20 144,0 274,95 340,224 43,84 63,185 63,281 0,144 -49,316 -183,388 -23,12 -27,35 -3,49 34,21 74,11 106,-9 145,-89 203,-263 203,-428 0,-102 -22,-210 -68,-301 -90,-174 -268,-274 -458,-274 -81,0 -152,13 -227,41 -76,-28 -146,-41 -227,-41 -157,0 -280,43 -381,168 -105,-130 -231,-167 -393,-168 -193,-2 -360,85 -448,264 -64,131 -70,269 -47,411 -131,137 -321,215 -518,252 -143,27 -290,28 -421,29 -109,1 -239,-2 -344,-31 -65,-18 -156,-56 -155,-138 1,-55 54,-92 102,-102 102,-22 249,-11 356,-8 76,3 153,6 229,6 151,-1 336,-12 465,-84 109,-60 187,-163 189,-288 1,-81 -29,-156 -87,-211 -75,-70 -182,-98 -282,-99 -123,0 -220,30 -308,121 -101,-105 -225,-124 -362,-122 -108,2 -232,19 -321,87 -71,56 -108,135 -108,225 0,61 17,119 63,161 47,43 112,57 174,57 110,0 222,-65 222,-189 0,-115 -103,-189 -209,-189 -52,0 -99,15 -133,40 67,-93 171,-127 314,-121 57,2 127,10 179,36 78,39 120,105 120,195l0 193c0,26 41,35 61,35 19,0 61,-8 61,-35l0 -193c1,-145 105,-231 243,-231 65,1 132,20 182,66 47,44 69,109 69,174 -1,99 -65,190 -152,238 -104,57 -258,63 -380,64z"/>
 </g>
</svg>
