<?xml version="1.0" encoding="UTF-8"?>
<!DOCTYPE svg PUBLIC "-//W3C//DTD SVG 1.1//EN" "http://www.w3.org/Graphics/SVG/1.1/DTD/svg11.dtd">
<!-- Creator: CorelDRAW X8 -->
<svg xmlns="http://www.w3.org/2000/svg" xml:space="preserve" width="3388px" height="1486px" version="1.1" style="shape-rendering:geometricPrecision; text-rendering:geometricPrecision; image-rendering:optimizeQuality; fill-rule:evenodd; clip-rule:evenodd"
viewBox="0 0 3388 1486"
 xmlns:xlink="http://www.w3.org/1999/xlink">
 <defs>
  <style type="text/css">
   <![CDATA[
    .fil0 {fill:#2B2A29;fill-rule:nonzero}
   ]]>
  </style>
 </defs>
 <g id="Layer_x0020_1">
  <metadata id="CorelCorpID_0Corel-Layer"/>
  <path class="fil0" d="M1964 955c-93,0 -243,-20 -243,-141 0,-51 29,-101 78,-119 44,-17 112,-22 194,-22 56,0 118,3 183,5 78,2 154,4 231,4 47,0 95,0 143,-2 -97,91 -199,155 -317,213 -89,43 -171,62 -269,62zm832 -2c-89,0 -144,-67 -144,-153 0,-90 59,-151 150,-151 86,0 144,64 144,151 0,89 -60,153 -150,153zm-957 -493c-69,0 -125,-45 -125,-119 0,-73 54,-118 123,-118 70,0 123,46 123,118 0,71 -53,119 -121,119zm1230 342c0,-79 -44,-148 -109,-186 99,0 185,39 239,105 43,52 66,120 66,198 0,118 -59,227 -145,306 -119,109 -244,147 -396,176 20,-19 36,-50 36,-81 0,-84 -117,-128 -183,-144 -60,-14 -121,-19 -182,-19 -65,0 -136,6 -199,22 -64,17 -171,61 -171,141 0,76 83,119 174,142 56,14 123,24 192,24 128,1 266,-7 370,-24 171,-28 337,-85 463,-200 97,-89 164,-210 164,-343 0,-105 -34,-186 -97,-247 -92,-90 -211,-120 -337,-120 15,-13 29,-27 43,-44 45,-57 72,-129 72,-201 0,-79 -30,-153 -87,-207 -75,-70 -182,-99 -282,-99 -123,-1 -220,30 -308,121 -97,-101 -215,-122 -345,-122 -114,0 -246,15 -339,87 -56,43 -94,106 -105,177 -38,245 -120,439 -348,563 -127,68 -276,99 -418,114 -94,10 -186,14 -280,14 -94,0 -200,-5 -292,-28 -64,-16 -139,-49 -139,-124 0,-105 100,-121 189,-127 35,-3 71,-4 107,-4 69,0 140,4 209,6 57,2 120,4 185,4 164,0 340,-14 463,-82 112,-62 189,-158 189,-289 0,-78 -30,-158 -87,-211 -75,-70 -182,-99 -282,-99 -123,-1 -220,30 -308,121 -97,-100 -218,-122 -348,-122 -114,0 -242,15 -335,87 -72,55 -108,135 -108,225 0,61 17,119 63,161 47,43 112,58 174,58 110,0 222,-66 222,-189 0,-116 -103,-190 -209,-190 -52,0 -99,15 -133,40 78,-108 202,-121 326,-121 55,0 119,12 167,36 78,39 120,105 120,195l0 193c0,26 41,35 61,35 19,0 61,-8 61,-35l0 -193c0,-145 105,-232 243,-231 65,0 133,20 182,66 47,44 70,109 69,174 0,100 -65,190 -152,238 -96,53 -252,65 -393,65 -60,0 -117,-2 -166,-4 -75,-3 -152,-7 -228,-7 -33,0 -67,1 -100,3 -138,8 -304,25 -304,197 0,115 116,163 211,188 106,27 234,32 344,33 95,0 193,-4 288,-13 148,-15 299,-47 431,-118 185,-100 292,-250 369,-439 47,57 120,76 191,76 110,0 222,-65 222,-189 0,-115 -103,-189 -209,-189 -52,0 -99,15 -133,40 80,-111 204,-122 330,-121 56,0 114,11 164,36 78,39 120,105 120,195l0 193c0,26 41,35 60,35 20,0 62,-9 62,-35l0 -193c0,-145 105,-232 242,-231 66,0 133,20 183,66 47,44 70,109 69,174 0,62 -23,120 -61,167 -42,52 -101,84 -162,102 -69,21 -157,31 -252,32l-66 1c-75,1 -150,-3 -225,-5 -67,-2 -130,-5 -189,-5 -90,0 -169,6 -234,23 -93,25 -154,72 -154,174 0,193 207,225 359,224 106,-1 207,-23 304,-66 107,-47 185,-102 275,-174 13,156 97,240 254,240 131,0 273,-75 273,-222zm-674 620c-178,0 -262,-51 -262,-102 0,-52 93,-101 262,-101 169,0 256,53 256,101 0,49 -79,102 -256,102zm-2156 -962c-69,0 -125,-45 -125,-119 0,-73 54,-118 123,-118 70,0 123,46 123,119 0,70 -53,118 -121,118z"/>
 </g>
</svg>
