<?xml version="1.0" encoding="UTF-8"?>
<!DOCTYPE svg PUBLIC "-//W3C//DTD SVG 1.1//EN" "http://www.w3.org/Graphics/SVG/1.1/DTD/svg11.dtd">
<!-- Creator: CorelDRAW X8 -->
<svg xmlns="http://www.w3.org/2000/svg" xml:space="preserve" width="2725px" height="1024px" version="1.1" style="shape-rendering:geometricPrecision; text-rendering:geometricPrecision; image-rendering:optimizeQuality; fill-rule:evenodd; clip-rule:evenodd"
viewBox="0 0 2725 1024"
 xmlns:xlink="http://www.w3.org/1999/xlink">
 <defs>
  <style type="text/css">
   <![CDATA[
    .fil0 {fill:#2B2A29;fill-rule:nonzero}
   ]]>
  </style>
 </defs>
 <g id="Layer_x0020_1">
  <metadata id="CorelCorpID_0Corel-Layer"/>
  <path class="fil0" d="M2263 1024c169,0 334,-85 412,-256 37,-79 51,-169 50,-255 0,-207 -85,-418 -275,-504 -13,-6 -28,-9 -44,-9 -30,0 -59,16 -59,34 0,12 10,23 24,29 164,71 230,277 231,450 1,72 -10,146 -36,213 -49,126 -160,228 -303,228 -172,0 -253,-124 -253,-289l0 -630c0,-26 -42,-35 -61,-35 -20,0 -62,9 -62,35l0 631c0,147 -60,288 -224,288 -100,0 -176,-71 -208,-164 -30,-87 -32,-181 -32,-272 0,-100 0,-215 -45,-307 -79,-160 -232,-211 -398,-211 -81,0 -151,13 -226,41 -76,-28 -147,-41 -228,-41 -190,0 -369,100 -458,274 -47,91 -68,199 -68,301 0,164 58,338 201,427 20,13 43,22 66,22 27,0 58,-16 58,-35 0,-10 -8,-20 -19,-26 -135,-72 -183,-244 -183,-388 0,-96 20,-197 63,-281 66,-129 196,-224 340,-224 49,0 87,4 132,20 -168,120 -252,299 -252,508 0,86 16,177 57,253 61,114 165,172 291,172 125,1 228,-59 289,-172 40,-75 57,-167 57,-253 0,-209 -85,-388 -253,-508 46,-16 85,-20 133,-20 134,0 243,56 291,189 29,82 29,174 29,259 0,96 2,194 34,286 51,144 177,221 323,220 128,0 214,-36 295,-133 89,100 180,133 311,133zm-1509 -72c-161,0 -226,-205 -226,-354 0,-186 75,-355 226,-463 150,107 223,274 223,459 0,135 -52,358 -223,358z"/>
 </g>
</svg>
