<?xml version="1.0" encoding="UTF-8"?>
<!DOCTYPE svg PUBLIC "-//W3C//DTD SVG 1.1//EN" "http://www.w3.org/Graphics/SVG/1.1/DTD/svg11.dtd">
<!-- Creator: CorelDRAW X8 -->
<svg xmlns="http://www.w3.org/2000/svg" xml:space="preserve" width="2740px" height="1486px" version="1.1" style="shape-rendering:geometricPrecision; text-rendering:geometricPrecision; image-rendering:optimizeQuality; fill-rule:evenodd; clip-rule:evenodd"
viewBox="0 0 2740 1486"
 xmlns:xlink="http://www.w3.org/1999/xlink">
 <defs>
  <style type="text/css">
   <![CDATA[
    .fil0 {fill:#CC9933}
   ]]>
  </style>
 </defs>
 <g id="Layer_x0020_1">
  <metadata id="CorelCorpID_0Corel-Layer"/>
  <path class="fil0" d="M1948 1429c-66,0 -145,-4 -206,-32 -41,-19 -74,-52 -72,-101 2,-60 71,-83 121,-84 66,0 107,41 107,109 0,24 32,30 51,30 18,0 51,-6 51,-30 0,-68 41,-109 107,-109 50,1 119,24 121,84 1,49 -31,82 -73,101 -61,28 -140,33 -207,32zm753 -1100c-37,-140 -120,-261 -252,-320 -13,-6 -28,-9 -44,-9 -16,0 -33,4 -46,14 -9,7 -12,14 -12,21 0,11 10,22 24,28 162,69 228,271 231,437 1,74 -9,152 -36,221 -49,126 -162,233 -303,233 -172,0 -253,-129 -253,-293l0 -626c0,-26 -42,-35 -61,-35 -18,0 -62,8 -62,35l0 626c-2,150 -57,293 -226,293 -100,-1 -174,-70 -206,-163 -29,-83 -32,-181 -32,-269 0,-102 1,-219 -45,-312 -79,-159 -232,-210 -398,-210 -81,0 -151,12 -226,41 -76,-28 -147,-41 -228,-41 -190,0 -369,99 -458,272 -46,90 -68,197 -68,299 0,163 58,343 201,431 20,13 43,22 66,22 14,0 28,-3 42,-12 11,-6 16,-15 16,-23 0,-10 -7,-19 -19,-26 -134,-71 -183,-249 -183,-392 0,-95 20,-195 63,-279 66,-128 196,-223 340,-222 48,0 86,3 132,19 -168,119 -252,298 -252,505 -1,85 16,183 57,258 61,113 164,172 290,172 126,0 229,-59 290,-171 40,-75 57,-174 57,-259 0,-208 -85,-385 -253,-505 46,-16 85,-19 133,-19 134,0 243,55 291,187 30,83 29,177 29,265 0,93 3,195 34,283 51,145 180,221 329,219 123,-2 209,-37 289,-132 89,98 180,132 311,132 127,0 268,-57 345,-161 -3,176 -82,355 -230,455 -24,15 -49,30 -76,45 10,-21 15,-43 15,-67 0,-45 -29,-79 -64,-102 -41,-26 -99,-36 -146,-36 -62,0 -106,13 -158,47 -52,-34 -96,-47 -158,-47 -47,0 -106,10 -146,36 -35,23 -63,58 -63,102 -1,74 71,133 134,156 72,26 157,35 233,34 58,0 117,-5 175,-14 100,-16 211,-45 298,-98 173,-106 261,-280 297,-476 14,-76 20,-154 21,-232 1,-112 -10,-228 -39,-337zm-1947 -195c151,108 224,274 223,460 0,78 -14,170 -51,238 -37,68 -93,122 -173,122 -79,0 -137,-55 -173,-123 -37,-69 -52,-159 -52,-237 0,-185 75,-353 226,-460z"/>
 </g>
</svg>
