<?xml version="1.0" encoding="UTF-8"?>
<!DOCTYPE svg PUBLIC "-//W3C//DTD SVG 1.1//EN" "http://www.w3.org/Graphics/SVG/1.1/DTD/svg11.dtd">
<!-- Creator: CorelDRAW X8 -->
<svg xmlns="http://www.w3.org/2000/svg" xml:space="preserve" width="3078px" height="1486px" version="1.1" style="shape-rendering:geometricPrecision; text-rendering:geometricPrecision; image-rendering:optimizeQuality; fill-rule:evenodd; clip-rule:evenodd"
viewBox="0 0 3078 1486"
 xmlns:xlink="http://www.w3.org/1999/xlink">
 <defs>
  <style type="text/css">
   <![CDATA[
    .fil0 {fill:#CC9933;fill-rule:nonzero}
   ]]>
  </style>
 </defs>
 <g id="Layer_x0020_1">
  <metadata id="CorelCorpID_0Corel-Layer"/>
  <path class="fil0" d="M1642 523c0,93 3,195 34,283 51,146 180,221 329,218 123,-2 209,-35 289,-131 89,100 180,131 311,131 138,0 207,-48 317,-119 -75,133 -136,210 -264,293 -159,104 -358,162 -545,188 -188,26 -380,30 -570,30 -327,0 -690,-30 -988,-177 -257,-128 -425,-337 -432,-636 -4,-213 66,-430 254,-544 12,-7 17,-16 17,-24 0,-10 -7,-19 -19,-26 -12,-6 -27,-9 -42,-9 -17,0 -33,4 -45,11 -206,125 -295,355 -288,592 11,331 190,547 475,688 322,160 713,195 1068,195 199,0 401,-5 599,-33 209,-29 439,-86 613,-212 129,-94 226,-215 278,-369 31,-91 45,-192 45,-288 0,-54 -4,-110 -13,-164 -11,-66 -30,-131 -58,-190 -46,-98 -117,-176 -216,-220 -13,-5 -28,-10 -43,-10 -17,0 -34,6 -47,15 -9,7 -12,14 -12,21 0,11 10,22 24,28 169,73 233,288 231,460 -1,67 -12,136 -36,199 -50,128 -164,231 -303,231 -172,0 -253,-128 -253,-292l0 -625c0,-27 -42,-35 -61,-35 -20,0 -62,8 -62,35l0 626c0,148 -60,291 -226,291 -99,0 -174,-70 -206,-161 -30,-84 -33,-182 -33,-270 0,-102 2,-219 -44,-312 -79,-159 -233,-209 -398,-209 -81,-1 -151,12 -227,40 -76,-28 -146,-40 -227,-41 -190,0 -369,99 -458,273 -46,90 -68,197 -68,298 0,163 58,343 201,431 20,13 43,23 67,23 13,-1 27,-4 41,-12 11,-7 16,-15 16,-24 0,-9 -7,-19 -20,-25 -134,-71 -182,-249 -182,-393 -1,-94 20,-195 63,-279 66,-128 195,-222 340,-222 48,0 86,4 132,19 -168,120 -253,298 -253,506 0,85 17,182 58,257 61,113 164,171 290,171 125,0 229,-58 290,-170 40,-75 57,-173 57,-258 0,-209 -85,-386 -253,-506 46,-16 85,-19 133,-19 134,0 242,55 291,187 30,83 29,178 29,265zm-323 73c0,77 -15,169 -52,238 -36,67 -92,120 -172,120 -79,0 -137,-54 -173,-121 -37,-69 -52,-159 -52,-237 0,-186 74,-353 225,-461 152,108 224,275 224,461z"/>
 </g>
</svg>
