<?xml version="1.0" encoding="UTF-8"?>
<!DOCTYPE svg PUBLIC "-//W3C//DTD SVG 1.1//EN" "http://www.w3.org/Graphics/SVG/1.1/DTD/svg11.dtd">
<!-- Creator: CorelDRAW X8 -->
<svg xmlns="http://www.w3.org/2000/svg" xml:space="preserve" width="2740px" height="1486px" version="1.1" style="shape-rendering:geometricPrecision; text-rendering:geometricPrecision; image-rendering:optimizeQuality; fill-rule:evenodd; clip-rule:evenodd"
viewBox="0 0 2740 1486"
 xmlns:xlink="http://www.w3.org/1999/xlink">
 <defs>
  <style type="text/css">
   <![CDATA[
    .fil0 {fill:#B2B09C}
   ]]>
  </style>
 </defs>
 <g id="Layer_x0020_1">
  <metadata id="CorelCorpID_0Corel-Layer"/>
  <path class="fil0" d="M753 134c152,108 224,274 224,460 0,78 -14,170 -51,238 -37,68 -93,122 -172,122 -80,0 -138,-55 -174,-122 -37,-70 -52,-160 -52,-238 0,-185 75,-353 225,-460zm1948 195c-37,-140 -120,-261 -252,-320 -27,-12 -65,-14 -90,5 -23,17 -11,39 12,49 161,69 228,271 231,437 1,74 -9,152 -36,221 -50,128 -162,233 -303,233 -172,0 -253,-129 -253,-293l0 -626c0,-26 -42,-35 -61,-35 -20,0 -62,9 -62,35l0 626c0,146 -60,294 -224,294 -100,0 -176,-71 -208,-164 -30,-83 -32,-181 -33,-269 0,-60 0,-116 -6,-168 -5,-52 -16,-100 -38,-144 -79,-159 -232,-209 -398,-210 -81,0 -150,12 -227,41 -75,-28 -146,-41 -227,-41 -190,0 -368,99 -458,272 -46,90 -68,198 -68,299 0,163 58,343 201,431 33,21 72,32 108,10 24,-14 20,-36 -3,-49 -134,-71 -183,-249 -183,-392 0,-95 20,-195 63,-279 66,-128 196,-223 340,-222 49,0 87,3 132,19 -168,119 -252,298 -252,505 0,86 16,183 57,258 61,113 164,172 291,172 125,0 228,-59 289,-171 40,-75 57,-174 57,-259 0,-208 -85,-385 -253,-505 46,-16 85,-19 133,-19 134,0 243,55 291,187 30,83 29,178 29,265 0,93 3,195 34,283 52,147 181,223 331,219 122,-3 208,-38 287,-132 89,99 180,132 311,132 128,0 268,-57 345,-161 -3,170 -85,360 -230,456 -20,13 -41,25 -64,37 2,-9 3,-18 3,-26 1,-36 -17,-69 -48,-93 -38,-31 -94,-50 -136,-60 -59,-14 -120,-19 -181,-19 -66,0 -136,6 -200,22 -63,17 -170,61 -170,141 -1,80 103,124 166,141 64,18 135,25 201,24 58,0 117,-5 175,-14 100,-16 210,-45 298,-98 173,-105 260,-279 297,-476 14,-76 20,-154 21,-232 1,-112 -10,-228 -39,-337zm-749 892c53,0 108,4 159,20 35,10 97,36 97,80 0,45 -63,72 -98,83 -51,15 -106,19 -158,19 -60,0 -132,-6 -188,-28 -30,-12 -74,-36 -74,-74 1,-37 45,-61 74,-73 56,-21 128,-27 188,-27z"/>
 </g>
</svg>
