<?xml version="1.0" encoding="UTF-8"?>
<!DOCTYPE svg PUBLIC "-//W3C//DTD SVG 1.1//EN" "http://www.w3.org/Graphics/SVG/1.1/DTD/svg11.dtd">
<!-- Creator: CorelDRAW X8 -->
<svg xmlns="http://www.w3.org/2000/svg" xml:space="preserve" width="2262px" height="1024px" version="1.1" style="shape-rendering:geometricPrecision; text-rendering:geometricPrecision; image-rendering:optimizeQuality; fill-rule:evenodd; clip-rule:evenodd"
viewBox="0 0 2262 1024"
 xmlns:xlink="http://www.w3.org/1999/xlink">
 <defs>
  <style type="text/css">
   <![CDATA[
    .fil0 {fill:#00A0E3;fill-rule:nonzero}
   ]]>
  </style>
 </defs>
 <g id="Layer_x0020_1">
  <metadata id="CorelCorpID_0Corel-Layer"/>
  <path class="fil0" d="M508 0c-196,-2 -362,88 -448,265 -37,74 -57,167 -60,262 -4,162 44,331 156,425 60,51 127,73 204,72 74,-1 151,-26 208,-74 67,-57 99,-148 102,-235 2,-82 -21,-161 -76,-221 -59,-64 -147,-97 -232,-94 -105,4 -209,63 -241,171 -6,-97 12,-196 52,-280 67,-139 185,-221 335,-221 198,0 335,111 335,322l0 596c0,27 42,35 61,35 20,0 61,-8 61,-35l0 -596c0,-207 116,-321 317,-322 48,0 87,8 133,20 -169,120 -253,299 -253,508 0,86 17,178 57,254 61,113 164,171 289,171 126,0 230,-58 291,-172 41,-76 57,-167 57,-253 0,-208 -84,-388 -252,-508 46,-12 84,-20 131,-20 145,0 275,95 341,224 43,84 63,186 63,281 0,143 -48,316 -183,388 -24,13 -27,35 -3,50 34,21 74,10 106,-10 146,-89 203,-265 203,-428 0,-102 -22,-210 -68,-301 -90,-174 -268,-274 -459,-274 -80,0 -151,13 -227,41 -76,-28 -145,-41 -226,-41 -158,0 -279,42 -380,168 -105,-130 -233,-167 -394,-168zm-342 715c0,-121 64,-239 195,-239 131,0 194,119 194,239 -1,119 -65,239 -194,239 -132,-1 -195,-117 -195,-239zm1342 -580c151,108 226,277 226,463 0,79 -15,163 -52,232 -37,68 -94,123 -174,123 -79,0 -136,-54 -172,-122 -37,-69 -51,-154 -52,-233 0,-187 73,-355 224,-463z"/>
 </g>
</svg>
