<?xml version="1.0" encoding="UTF-8"?>
<!DOCTYPE svg PUBLIC "-//W3C//DTD SVG 1.1//EN" "http://www.w3.org/Graphics/SVG/1.1/DTD/svg11.dtd">
<!-- Creator: CorelDRAW X8 -->
<svg xmlns="http://www.w3.org/2000/svg" xml:space="preserve" width="3473px" height="1024px" version="1.1" style="shape-rendering:geometricPrecision; text-rendering:geometricPrecision; image-rendering:optimizeQuality; fill-rule:evenodd; clip-rule:evenodd"
viewBox="0 0 3473 1024"
 xmlns:xlink="http://www.w3.org/1999/xlink">
 <defs>
  <style type="text/css">
   <![CDATA[
    .fil0 {fill:#00A0E3;fill-rule:nonzero}
   ]]>
  </style>
 </defs>
 <g id="Layer_x0020_1">
  <metadata id="CorelCorpID_0Corel-Layer"/>
  <path class="fil0" d="M2054 393l0 595c0,26 42,35 61,35 20,0 61,-9 61,-35l0 -595c0,-205 117,-322 317,-323 48,0 87,8 133,20 -168,120 -253,301 -253,510 0,86 17,176 57,251 61,113 164,172 290,171 125,0 229,-57 290,-171 41,-77 57,-166 57,-253 0,-208 -85,-388 -252,-508 46,-12 84,-20 132,-20 144,0 274,95 340,224 43,84 63,185 63,281 0,144 -49,316 -183,388 -23,12 -27,35 -3,49 36,22 75,10 108,-10 143,-89 201,-263 201,-427 0,-102 -22,-210 -68,-301 -89,-174 -268,-274 -458,-274 -81,0 -151,13 -227,41 -75,-28 -146,-41 -227,-41 -156,0 -279,43 -380,167 -101,-123 -219,-167 -375,-167 -81,0 -152,13 -228,41 -76,-28 -145,-41 -226,-41 -158,0 -279,41 -381,167 -106,-129 -233,-166 -395,-167 -197,-2 -362,88 -448,265 -37,74 -57,167 -60,262 -4,162 44,331 156,425 60,51 127,73 204,72 74,-1 151,-26 208,-74 67,-57 99,-148 102,-235 2,-82 -21,-161 -76,-221 -59,-64 -147,-97 -232,-94 -106,4 -209,63 -241,171 -6,-97 12,-196 52,-280 66,-138 185,-221 335,-221 198,0 335,114 335,321l0 597c0,26 42,35 61,35 20,0 61,-9 61,-35l0 -596c0,-210 115,-322 319,-322 48,0 86,8 132,20 -168,120 -253,299 -253,508 0,86 17,177 57,253 61,114 165,171 291,171 125,1 229,-58 289,-171 41,-75 57,-165 57,-251 1,-209 -84,-390 -253,-510 47,-12 85,-20 134,-20 194,1 316,125 316,323zm-1888 322c0,-120 64,-238 195,-239 131,0 194,119 193,239 0,119 -64,239 -193,239 -132,0 -195,-117 -195,-239zm2727 115c-36,68 -94,122 -173,122 -80,0 -136,-53 -173,-121 -37,-69 -51,-153 -51,-231 0,-187 73,-357 224,-465 151,108 225,277 225,463 0,79 -15,163 -52,232zm-1383 -695c152,108 225,278 225,465 0,78 -15,162 -52,231 -36,68 -93,121 -172,121 -79,0 -137,-54 -173,-122 -38,-69 -52,-153 -52,-232 0,-186 73,-355 224,-463z"/>
 </g>
</svg>
