<?xml version="1.0" encoding="UTF-8"?>
<!DOCTYPE svg PUBLIC "-//W3C//DTD SVG 1.1//EN" "http://www.w3.org/Graphics/SVG/1.1/DTD/svg11.dtd">
<!-- Creator: CorelDRAW X8 -->
<svg xmlns="http://www.w3.org/2000/svg" xml:space="preserve" width="3082px" height="1486px" version="1.1" style="shape-rendering:geometricPrecision; text-rendering:geometricPrecision; image-rendering:optimizeQuality; fill-rule:evenodd; clip-rule:evenodd"
viewBox="0 0 3082 1486"
 xmlns:xlink="http://www.w3.org/1999/xlink">
 <defs>
  <style type="text/css">
   <![CDATA[
    .fil0 {fill:#CC9933;fill-rule:nonzero}
   ]]>
  </style>
 </defs>
 <g id="Layer_x0020_1">
  <metadata id="CorelCorpID_0Corel-Layer"/>
  <path class="fil0" d="M2180 784c13,158 99,242 259,240 129,-2 269,-77 268,-224 -1,-86 -50,-149 -111,-184 43,-6 104,-11 161,-8 94,4 185,29 190,109 4,55 -41,104 -96,103 -21,0 -63,10 -63,36 1,28 46,36 67,35 62,-3 107,35 104,99 -3,73 -67,110 -136,110l-1308 0c-126,0 -273,31 -276,188 -4,163 146,198 276,198l1458 0c32,0 62,-26 62,-59 0,-33 -30,-59 -62,-59l-1458 0c-66,0 -149,-11 -152,-97 -2,-86 86,-102 152,-102l1308 0c68,0 146,-14 199,-58 39,-33 58,-70 60,-120 2,-66 -34,-107 -86,-140 48,-37 78,-72 73,-136 -10,-157 -189,-179 -311,-176 -58,1 -124,5 -165,11 15,-12 28,-26 42,-42 44,-56 70,-126 72,-197 1,-81 -29,-156 -87,-211 -75,-70 -182,-98 -282,-99 -124,0 -220,30 -308,121 -51,-53 -107,-83 -166,-101 -62,-17 -127,-21 -196,-21 -62,0 -119,10 -178,28 -69,-19 -133,-29 -205,-28 -158,2 -278,37 -384,168 -104,-130 -232,-167 -393,-168 -193,-2 -360,85 -448,265 -42,85 -60,181 -60,276 0,145 42,315 156,411 59,50 128,72 204,72 76,0 149,-25 208,-74 67,-57 99,-147 102,-234 2,-82 -21,-162 -76,-222 -59,-64 -145,-97 -230,-94 -107,4 -206,73 -242,169 -9,-88 11,-196 50,-276 66,-136 186,-223 336,-223 198,0 335,111 335,321l0 597c0,26 41,35 61,35 19,0 61,-9 61,-35l0 -597c0,-215 122,-322 320,-322 32,1 63,4 94,8 -80,59 -135,125 -135,232 1,141 112,222 242,223 127,1 246,-75 246,-216 -1,-108 -55,-180 -136,-241 25,-2 47,-5 72,-5 56,1 130,12 181,37 78,39 120,105 120,195l-1 193c0,26 42,35 61,35 20,0 61,-8 62,-35l0 -193c0,-145 105,-231 242,-231 66,1 133,20 182,66 47,44 70,109 69,174 0,62 -22,120 -61,167 -41,52 -100,83 -161,102 -69,21 -157,29 -252,32 -97,2 -195,-1 -292,-4 -168,-6 -315,-11 -423,18 -95,26 -158,75 -153,184 4,112 81,170 181,195 57,14 119,19 178,19 106,-1 207,-23 304,-66 106,-47 185,-102 275,-174zm-690 -672c73,45 124,113 125,203 0,77 -45,146 -126,146 -83,0 -127,-74 -128,-152 0,-94 55,-151 129,-197zm-1324 603c0,-121 64,-239 195,-239 131,0 194,119 193,239 0,117 -56,239 -186,239 -131,-1 -202,-115 -202,-239zm2124 92c-3,-94 57,-158 150,-158 86,0 144,64 144,151 -1,88 -59,151 -146,153 -85,2 -146,-59 -148,-146zm-103 -127c-96,91 -198,155 -317,213 -85,42 -173,64 -268,62 -41,0 -82,-5 -122,-14 -67,-14 -123,-56 -121,-131 1,-50 31,-97 77,-115 74,-28 216,-23 378,-17 126,4 248,6 373,2z"/>
 </g>
</svg>
