<?xml version="1.0" encoding="UTF-8"?>
<!DOCTYPE svg PUBLIC "-//W3C//DTD SVG 1.1//EN" "http://www.w3.org/Graphics/SVG/1.1/DTD/svg11.dtd">
<!-- Creator: CorelDRAW X8 -->
<svg xmlns="http://www.w3.org/2000/svg" xml:space="preserve" width="3473px" height="1024px" version="1.1" style="shape-rendering:geometricPrecision; text-rendering:geometricPrecision; image-rendering:optimizeQuality; fill-rule:evenodd; clip-rule:evenodd"
viewBox="0 0 3473 1024"
 xmlns:xlink="http://www.w3.org/1999/xlink">
 <defs>
  <style type="text/css">
   <![CDATA[
    .fil0 {fill:#CC9933;fill-rule:nonzero}
   ]]>
  </style>
 </defs>
 <g id="Layer_x0020_1">
  <metadata id="CorelCorpID_0Corel-Layer"/>
  <path class="fil0" d="M2054 393l0 595c0,26 42,35 61,35 20,0 61,-9 61,-35l0 -595c0,-205 117,-322 317,-323 48,0 87,8 133,20 -168,120 -253,301 -253,510 0,86 17,176 57,251 61,113 164,172 290,171 125,0 229,-57 290,-171 41,-77 58,-166 57,-253 0,-208 -85,-388 -252,-508 46,-12 84,-20 132,-20 144,0 274,95 340,224 43,84 63,185 63,281 0,144 -49,316 -183,388 -12,7 -19,16 -19,26 0,8 5,16 16,23 14,9 27,12 41,12 23,0 47,-9 67,-22 143,-89 201,-263 201,-427 0,-102 -22,-210 -68,-301 -89,-174 -268,-274 -458,-274 -81,0 -151,13 -227,41 -75,-28 -146,-41 -227,-41 -156,0 -279,43 -380,167 -101,-123 -219,-167 -375,-167 -81,0 -152,13 -228,41 -76,-28 -145,-41 -226,-41 -158,0 -279,41 -381,167 -109,-132 -238,-167 -403,-167 -190,0 -354,88 -440,264 -42,86 -60,182 -60,276 0,145 42,315 156,411 59,50 128,72 204,72 76,0 149,-25 208,-74 67,-57 99,-146 102,-234 2,-81 -21,-162 -76,-222 -59,-64 -145,-96 -230,-93 -131,4 -207,84 -243,171 -4,-81 4,-180 51,-278 65,-136 181,-221 331,-223 197,-2 340,112 340,321l0 597c0,26 42,35 61,35 20,0 61,-9 61,-35l0 -596c0,-210 115,-322 319,-322 48,0 86,8 132,20 -168,120 -253,299 -253,508 0,86 17,177 57,253 61,114 165,171 291,171 125,1 229,-58 289,-171 41,-75 57,-165 57,-251 1,-209 -84,-390 -253,-510 47,-12 85,-20 134,-20 194,1 316,125 316,323zm839 437c-36,68 -94,122 -173,122 -80,0 -136,-53 -173,-121 -37,-69 -51,-153 -51,-231 0,-187 73,-357 224,-465 151,108 225,277 225,463 0,79 -15,163 -52,232zm-2339 -117c1,117 -55,240 -186,240 -131,-1 -202,-115 -202,-239 0,-120 64,-238 195,-238 130,0 193,117 193,237zm956 -578c152,108 225,278 225,465 0,78 -15,162 -52,231 -36,68 -93,121 -172,121 -79,0 -137,-54 -173,-122 -38,-69 -52,-153 -52,-232 0,-186 73,-355 224,-463z"/>
 </g>
</svg>
