<?xml version="1.0" encoding="UTF-8"?>
<!DOCTYPE svg PUBLIC "-//W3C//DTD SVG 1.1//EN" "http://www.w3.org/Graphics/SVG/1.1/DTD/svg11.dtd">
<!-- Creator: CorelDRAW X8 -->
<svg xmlns="http://www.w3.org/2000/svg" xml:space="preserve" width="3724px" height="1486px" version="1.1" style="shape-rendering:geometricPrecision; text-rendering:geometricPrecision; image-rendering:optimizeQuality; fill-rule:evenodd; clip-rule:evenodd"
viewBox="0 0 3724 1486"
 xmlns:xlink="http://www.w3.org/1999/xlink">
 <defs>
  <style type="text/css">
   <![CDATA[
    .fil0 {fill:#B2B09C;fill-rule:nonzero}
   ]]>
  </style>
 </defs>
 <g id="Layer_x0020_1">
  <metadata id="CorelCorpID_0Corel-Layer"/>
  <path class="fil0" d="M1841 930c157,-100 245,-242 249,-436 4,-163 -67,-318 -201,-411 -80,-55 -175,-82 -272,-81 -67,0 -125,13 -188,38 -66,-27 -126,-39 -198,-39 -148,0 -243,45 -328,169 -100,-117 -212,-159 -362,-169 -211,-13 -390,78 -481,264 -37,74 -57,167 -60,262 -4,163 44,331 156,425 60,51 127,73 204,72 74,-1 151,-25 208,-74 67,-57 99,-148 102,-235 2,-82 -21,-161 -76,-221 -59,-64 -147,-97 -232,-94 -105,4 -209,64 -241,171 -6,-97 12,-196 52,-280 68,-141 195,-230 355,-220 188,12 315,118 315,318l0 600c0,27 41,35 61,35 19,0 61,-9 61,-35l0 -601c0,-167 85,-314 265,-318 41,0 73,8 112,19 -112,89 -184,214 -185,361 0,167 107,285 273,284 165,0 271,-120 270,-284 -1,-147 -72,-271 -184,-361 35,-10 64,-17 100,-18 84,-2 164,32 224,91 87,84 130,210 128,331 -5,230 -164,437 -399,437l-349 0c-20,0 -62,8 -62,34 0,27 42,36 62,36l1311 0c17,0 39,-5 52,-16 16,-14 11,-31 -4,-42 -128,-87 -198,-236 -197,-391 0,-92 21,-183 67,-263 83,-143 226,-217 388,-219 126,-1 210,35 303,120 -137,17 -252,61 -338,177 -58,78 -89,180 -89,278 0,80 20,168 64,235 63,97 166,143 278,144 119,2 220,-54 281,-157 50,-83 71,-191 73,-287 1,-122 -22,-201 -72,-311 76,47 131,79 184,157 57,84 84,189 80,290 -3,95 -33,191 -93,264 -72,89 -191,121 -301,121l-1772 0c-127,0 -274,30 -277,187 -3,164 147,199 277,199l2175 0c32,0 62,-25 62,-59 0,-33 -30,-59 -62,-59l-2175 0c-67,0 -150,-12 -152,-98 -2,-85 86,-101 152,-101l1772 0c133,0 280,-27 379,-124 87,-86 133,-205 138,-327 4,-125 -34,-251 -111,-348 -86,-109 -201,-164 -334,-183 -108,-125 -278,-186 -442,-187 -195,-1 -386,81 -493,246 -60,92 -86,198 -85,307 1,149 55,270 155,377l-573 0zm-1675 -215c0,-120 64,-238 195,-239 131,0 194,119 194,239 -1,119 -65,239 -194,239 -132,0 -195,-117 -195,-239zm1263 -576c92,82 147,184 148,311 0,90 -41,212 -148,212 -108,0 -149,-120 -148,-212 0,-127 56,-229 148,-311zm1768 119c65,99 90,203 89,321 -1,88 -20,188 -66,264 -37,63 -90,111 -166,110 -70,-1 -124,-40 -162,-98 -39,-59 -56,-140 -56,-211 0,-90 26,-179 79,-251 71,-96 167,-135 282,-135z"/>
 </g>
</svg>
