<?xml version="1.0" encoding="UTF-8"?>
<!DOCTYPE svg PUBLIC "-//W3C//DTD SVG 1.1//EN" "http://www.w3.org/Graphics/SVG/1.1/DTD/svg11.dtd">
<!-- Creator: CorelDRAW X8 -->
<svg xmlns="http://www.w3.org/2000/svg" xml:space="preserve" width="3838px" height="1486px" version="1.1" style="shape-rendering:geometricPrecision; text-rendering:geometricPrecision; image-rendering:optimizeQuality; fill-rule:evenodd; clip-rule:evenodd"
viewBox="0 0 3838 1486"
 xmlns:xlink="http://www.w3.org/1999/xlink">
 <defs>
  <style type="text/css">
   <![CDATA[
    .fil0 {fill:#2B2A29;fill-rule:nonzero}
   ]]>
  </style>
 </defs>
 <g id="Layer_x0020_1">
  <metadata id="CorelCorpID_0Corel-Layer"/>
  <path class="fil0" d="M3729 1486c32,0 61,-26 61,-59 0,-33 -29,-59 -61,-59l-2294 0c-70,0 -152,-13 -152,-101 0,-82 87,-98 152,-98l2055 0c74,0 146,-13 210,-50 89,-51 138,-127 138,-230 0,-101 -51,-173 -139,-218 56,-47 88,-112 88,-186 0,-167 -126,-254 -269,-291 -62,-16 -127,-23 -187,-23 -23,0 -46,1 -70,3 -109,-117 -267,-174 -427,-174 -172,0 -349,64 -458,196 -76,92 -120,215 -120,359 0,151 54,265 156,374l-571 0c163,-105 249,-247 249,-442 0,-159 -70,-312 -201,-403 -81,-56 -176,-84 -272,-83 -68,0 -125,14 -188,39 -66,-27 -127,-39 -198,-39 -148,0 -245,43 -329,168 -102,-131 -228,-169 -400,-169 -194,0 -357,91 -442,265 -42,85 -60,187 -60,281 0,156 48,316 156,406 59,50 124,72 199,72 76,0 154,-24 213,-74 70,-59 102,-156 102,-245 0,-78 -23,-153 -76,-211 -57,-62 -140,-94 -221,-94 -111,0 -219,60 -252,171 -3,-105 5,-184 52,-280 65,-134 182,-221 331,-221 202,0 339,107 339,322l0 597c0,26 42,35 61,35 19,0 61,-9 61,-35l0 -598c0,-169 85,-320 265,-320 42,0 72,7 112,19 -112,89 -184,215 -185,363 0,167 106,286 271,286 168,0 273,-123 272,-286 0,-148 -72,-273 -184,-363 30,-12 67,-19 107,-19 82,0 158,34 217,92 83,82 127,204 127,321 0,230 -153,445 -398,445l-349 0c-20,0 -62,8 -62,35 0,26 42,35 62,35l1309 0c20,0 62,-9 62,-35 0,-8 -5,-17 -14,-23 -128,-88 -198,-229 -198,-386 0,-118 31,-222 89,-304 86,-123 217,-181 366,-181 123,0 212,36 304,120 -130,17 -258,70 -338,178 -59,80 -89,181 -89,280 0,81 20,163 64,231 63,97 167,145 277,145 118,0 221,-56 282,-159 51,-87 72,-195 72,-295 0,-120 -26,-227 -92,-328 53,-2 110,3 162,19 103,31 188,101 188,224 0,34 -10,73 -27,102 -18,32 -44,57 -79,60 -18,2 -54,12 -54,35 0,29 39,34 61,35 36,0 61,5 90,29 40,33 60,91 60,143 0,53 -15,95 -50,136 -45,54 -106,75 -175,75l-2055 0c-132,0 -276,32 -276,193 0,158 148,193 276,193l2294 0zm-2300 -820c-108,0 -149,-121 -149,-213 1,-128 56,-231 148,-313 92,82 149,185 149,313 0,91 -42,213 -148,213zm-1068 288c-132,-1 -195,-117 -195,-239 0,-120 64,-239 195,-239 130,-1 193,117 193,236 0,117 -60,243 -193,242zm2691 -1c-70,0 -125,-41 -162,-99 -39,-60 -56,-135 -56,-206 0,-90 25,-180 79,-252 70,-96 172,-130 278,-141 63,96 92,201 92,315 0,94 -17,190 -65,272 -37,63 -89,111 -166,111z"/>
 </g>
</svg>
