<?xml version="1.0" encoding="UTF-8"?>
<!DOCTYPE svg PUBLIC "-//W3C//DTD SVG 1.1//EN" "http://www.w3.org/Graphics/SVG/1.1/DTD/svg11.dtd">
<!-- Creator: CorelDRAW X8 -->
<svg xmlns="http://www.w3.org/2000/svg" xml:space="preserve" width="2707px" height="1024px" version="1.1" style="shape-rendering:geometricPrecision; text-rendering:geometricPrecision; image-rendering:optimizeQuality; fill-rule:evenodd; clip-rule:evenodd"
viewBox="0 0 2707 1024"
 xmlns:xlink="http://www.w3.org/1999/xlink">
 <defs>
  <style type="text/css">
   <![CDATA[
    .fil0 {fill:#2B2A29;fill-rule:nonzero}
   ]]>
  </style>
 </defs>
 <g id="Layer_x0020_1">
  <metadata id="CorelCorpID_0Corel-Layer"/>
  <path class="fil0" d="M502 0c-194,0 -356,91 -442,265 -42,85 -60,187 -60,281 0,156 48,316 156,406 59,50 124,72 199,72 77,0 154,-24 213,-74 70,-58 102,-156 102,-245 0,-78 -22,-153 -76,-211 -56,-61 -140,-94 -221,-94 -111,0 -219,60 -252,171 -3,-104 6,-183 52,-280 65,-134 182,-221 331,-221 202,0 339,109 339,321l0 597c0,27 41,35 61,35 20,0 61,-8 61,-35l0 -597c0,-215 123,-322 320,-322 32,0 63,4 94,8 -82,61 -134,126 -134,232 0,140 110,223 244,223 126,0 243,-75 243,-214 0,-108 -52,-180 -135,-243 24,-4 33,-6 71,-6 59,0 128,11 181,38 78,39 120,105 120,195l0 193c0,26 41,35 60,35 20,0 62,-9 62,-35l0 -193c0,-145 105,-232 242,-231 66,0 133,20 183,66 48,44 70,109 69,174 0,62 -23,120 -61,167 -42,52 -101,84 -162,102 -100,30 -213,32 -318,33 -75,1 -150,-3 -225,-5 -67,-2 -130,-5 -189,-5 -90,0 -169,6 -234,23 -93,25 -154,72 -154,174 0,193 208,225 359,224 106,0 207,-23 304,-66 107,-47 185,-102 275,-174 13,156 97,240 254,240 132,0 273,-75 273,-222 0,-102 -72,-186 -170,-211 38,-24 70,-47 98,-83 45,-57 72,-129 72,-201 0,-79 -29,-153 -87,-207 -74,-70 -182,-99 -282,-99 -123,-1 -220,30 -308,121 -103,-107 -223,-122 -362,-122 -62,0 -118,10 -178,28 -65,-18 -127,-28 -194,-28 -164,0 -288,35 -394,168 -107,-132 -234,-168 -400,-168zm987 461c-83,0 -127,-74 -127,-152 0,-94 52,-149 128,-197 73,45 125,113 125,203 0,77 -45,146 -126,146zm945 492c-89,0 -144,-67 -144,-153 0,-90 59,-151 150,-151 86,0 144,64 144,151 0,89 -60,153 -150,153zm-832 2c-93,0 -243,-20 -243,-141 0,-51 29,-101 78,-119 44,-17 112,-22 194,-22 56,0 118,3 183,5 78,2 154,4 231,4 47,0 95,0 143,-2 -97,91 -199,155 -317,213 -89,43 -170,62 -269,62zm-1241 -1c-132,0 -195,-117 -195,-239 0,-120 64,-238 195,-239 130,-1 193,117 193,236 0,118 -60,243 -193,242z"/>
 </g>
</svg>
