<?xml version="1.0" encoding="UTF-8"?>
<!DOCTYPE svg PUBLIC "-//W3C//DTD SVG 1.1//EN" "http://www.w3.org/Graphics/SVG/1.1/DTD/svg11.dtd">
<!-- Creator: CorelDRAW X8 -->
<svg xmlns="http://www.w3.org/2000/svg" xml:space="preserve" width="3473px" height="1024px" version="1.1" style="shape-rendering:geometricPrecision; text-rendering:geometricPrecision; image-rendering:optimizeQuality; fill-rule:evenodd; clip-rule:evenodd"
viewBox="0 0 3473 1024"
 xmlns:xlink="http://www.w3.org/1999/xlink">
 <defs>
  <style type="text/css">
   <![CDATA[
    .fil0 {fill:#2B2A29;fill-rule:nonzero}
   ]]>
  </style>
 </defs>
 <g id="Layer_x0020_1">
  <metadata id="CorelCorpID_0Corel-Layer"/>
  <path class="fil0" d="M502 0c-194,0 -357,91 -442,265 -42,85 -60,187 -60,281 0,156 48,316 156,406 59,50 124,72 199,72 76,0 154,-24 213,-74 69,-58 102,-156 102,-245 0,-78 -23,-153 -76,-211 -57,-61 -140,-94 -221,-94 -111,0 -219,60 -252,171 -3,-100 7,-188 52,-280 64,-134 182,-221 331,-221 203,0 339,112 339,321l0 597c0,26 42,35 61,35 20,0 61,-9 61,-35l0 -596c0,-210 115,-322 319,-322 48,0 86,8 132,20 -168,120 -253,299 -253,508 0,86 16,177 57,253 61,114 165,171 291,171 127,0 229,-58 289,-171 40,-75 57,-165 57,-251 0,-208 -81,-388 -253,-510 47,-12 85,-20 134,-20 194,1 316,125 316,323l0 595c0,26 42,35 61,35 20,0 61,-9 61,-35l0 -595c0,-205 117,-322 317,-323 48,0 87,8 133,20 -168,120 -253,301 -253,510 0,86 17,176 57,251 61,113 163,171 290,171 125,0 229,-57 290,-171 41,-77 57,-166 57,-253 0,-208 -85,-388 -252,-508 46,-12 84,-20 132,-20 144,0 274,95 340,224 43,84 64,185 64,281 0,144 -49,316 -184,388 -11,6 -18,16 -18,26 0,8 4,17 16,23 14,8 28,12 42,12 22,0 45,-9 66,-22 143,-88 200,-263 200,-427 0,-102 -21,-210 -68,-301 -88,-174 -268,-274 -458,-274 -81,0 -151,13 -227,41 -75,-28 -146,-41 -227,-41 -156,0 -279,43 -380,167 -101,-123 -219,-167 -375,-167 -81,0 -152,13 -228,41 -76,-28 -145,-41 -226,-41 -158,0 -281,41 -383,167 -108,-131 -230,-167 -399,-167zm2218 952c-155,0 -224,-191 -224,-352 0,-187 73,-357 224,-465 151,108 225,277 225,463 0,164 -73,354 -225,354zm-1209 0c-154,0 -225,-192 -225,-354 0,-186 73,-355 224,-463 152,108 225,278 225,465 0,162 -72,352 -224,352zm-1150 2c-132,0 -195,-117 -195,-239 0,-120 64,-239 195,-239 130,-1 193,117 193,236 0,117 -60,243 -193,242z"/>
 </g>
</svg>
