<?xml version="1.0" encoding="UTF-8"?>
<!DOCTYPE svg PUBLIC "-//W3C//DTD SVG 1.1//EN" "http://www.w3.org/Graphics/SVG/1.1/DTD/svg11.dtd">
<!-- Creator: CorelDRAW X8 -->
<svg xmlns="http://www.w3.org/2000/svg" xml:space="preserve" width="3724px" height="1486px" version="1.1" style="shape-rendering:geometricPrecision; text-rendering:geometricPrecision; image-rendering:optimizeQuality; fill-rule:evenodd; clip-rule:evenodd"
viewBox="0 0 3724 1486"
 xmlns:xlink="http://www.w3.org/1999/xlink">
 <defs>
  <style type="text/css">
   <![CDATA[
    .fil0 {fill:#2B2A29;fill-rule:nonzero}
   ]]>
  </style>
 </defs>
 <g id="Layer_x0020_1">
  <metadata id="CorelCorpID_0Corel-Layer"/>
  <path class="fil0" d="M3614 1486c32,0 62,-25 62,-59 0,-33 -30,-58 -62,-58l-2179 0c-69,0 -151,-14 -151,-101 0,-83 87,-99 151,-99l1772 0c133,0 280,-27 379,-124 93,-91 138,-220 138,-349 0,-269 -183,-481 -449,-509 -110,-126 -273,-187 -439,-187 -172,0 -350,64 -459,196 -76,92 -120,215 -120,359 0,151 54,265 156,374l-571 0c162,-105 249,-247 249,-442 0,-159 -70,-312 -201,-403 -81,-56 -176,-84 -272,-83 -68,0 -125,14 -188,39 -66,-27 -127,-39 -198,-39 -148,0 -245,43 -329,168 -102,-131 -229,-169 -401,-169 -194,0 -356,91 -442,265 -42,85 -60,187 -60,281 0,156 48,316 156,406 60,50 124,72 199,72 77,0 155,-24 213,-74 70,-59 102,-156 102,-245 0,-78 -22,-153 -76,-211 -56,-62 -140,-94 -221,-94 -111,0 -219,60 -252,171 -3,-105 6,-184 52,-280 65,-134 182,-221 331,-221 203,0 340,107 340,322l0 597c0,26 42,35 60,35 20,0 62,-9 62,-35l0 -598c0,-169 84,-320 264,-320 43,0 72,7 113,19 -113,89 -185,215 -185,363 -1,167 106,286 271,286 167,0 272,-123 272,-286 -1,-148 -72,-273 -184,-363 29,-12 66,-19 107,-19 82,0 158,34 217,92 83,82 127,204 127,321 0,230 -153,445 -398,445l-350 0c-20,0 -62,8 -62,35 0,26 42,35 62,35l1310 0c20,0 62,-9 62,-35 0,-8 -4,-17 -14,-23 -127,-88 -198,-229 -198,-386 0,-118 31,-222 89,-304 87,-123 218,-181 367,-181 122,0 212,36 304,120 -138,18 -253,62 -338,178 -60,80 -90,181 -90,280 0,81 20,163 64,231 63,97 167,145 278,145 118,0 221,-56 282,-159 51,-87 72,-195 72,-295 0,-109 -22,-207 -76,-302 175,58 269,242 269,428 0,97 -31,207 -93,283 -73,89 -191,121 -301,121l-1772 0c-131,0 -276,33 -276,193 0,159 148,193 276,193l2179 0zm-2184 -820c-108,0 -150,-121 -150,-213 1,-128 57,-231 149,-313 92,82 148,185 149,313 0,91 -42,213 -148,213zm-1069 288c-132,-1 -195,-117 -195,-239 0,-120 64,-239 195,-239 130,-1 193,117 193,236 0,117 -60,243 -193,242zm2693 -1c-70,0 -125,-41 -162,-99 -39,-60 -56,-135 -56,-206 0,-90 25,-180 78,-252 71,-96 167,-136 283,-137 63,96 88,197 88,311 0,94 -17,190 -65,272 -38,63 -89,111 -166,111z"/>
 </g>
</svg>
