<?xml version="1.0" encoding="UTF-8"?>
<!DOCTYPE svg PUBLIC "-//W3C//DTD SVG 1.1//EN" "http://www.w3.org/Graphics/SVG/1.1/DTD/svg11.dtd">
<!-- Creator: CorelDRAW X8 -->
<svg xmlns="http://www.w3.org/2000/svg" xml:space="preserve" width="2522px" height="1024px" version="1.1" style="shape-rendering:geometricPrecision; text-rendering:geometricPrecision; image-rendering:optimizeQuality; fill-rule:evenodd; clip-rule:evenodd"
viewBox="0 0 2522 1024"
 xmlns:xlink="http://www.w3.org/1999/xlink">
 <defs>
  <style type="text/css">
   <![CDATA[
    .fil0 {fill:#B2B09C;fill-rule:nonzero}
   ]]>
  </style>
 </defs>
 <g id="Layer_x0020_1">
  <metadata id="CorelCorpID_0Corel-Layer"/>
  <path class="fil0" d="M1841 929c157,-101 245,-237 249,-432 3,-163 -67,-320 -201,-413 -81,-56 -176,-83 -272,-83 -68,1 -125,14 -188,39 -66,-27 -127,-39 -198,-39 -148,0 -244,45 -328,170 -100,-117 -211,-160 -362,-170 -211,-13 -390,78 -481,264 -37,74 -57,167 -60,262 -4,162 44,331 156,425 60,51 127,73 204,72 74,-1 150,-26 208,-74 67,-57 99,-148 102,-235 2,-82 -21,-161 -76,-221 -59,-64 -147,-97 -232,-94 -106,4 -209,63 -241,171 -6,-97 12,-196 52,-280 68,-141 195,-230 355,-220 190,12 315,120 315,321l0 597c0,26 42,35 61,35 19,0 61,-9 61,-35l0 -598c0,-169 85,-317 265,-320 41,-1 73,7 112,19 -112,89 -184,215 -185,363 0,168 107,287 273,286 164,-1 270,-121 270,-286 -1,-148 -72,-273 -184,-363 35,-10 64,-18 100,-18 84,-2 163,31 224,91 86,85 130,212 127,333 -5,232 -163,433 -398,433l-349 0c-20,0 -62,8 -62,35 0,26 42,35 62,35l1240 0c20,0 62,-9 62,-35l0 -928c0,-27 -42,-36 -62,-36 -19,0 -61,9 -61,36l0 893 -558 0zm-1675 -214c0,-120 64,-238 195,-239 131,0 194,119 193,239 0,119 -64,239 -193,239 -132,-1 -195,-117 -195,-239zm1262 -575c92,82 148,185 149,313 0,91 -42,213 -148,213 -108,0 -149,-121 -149,-213 1,-128 56,-231 148,-313z"/>
 </g>
</svg>
