<?xml version="1.0" encoding="UTF-8"?>
<!DOCTYPE svg PUBLIC "-//W3C//DTD SVG 1.1//EN" "http://www.w3.org/Graphics/SVG/1.1/DTD/svg11.dtd">
<!-- Creator: CorelDRAW X8 -->
<svg xmlns="http://www.w3.org/2000/svg" xml:space="preserve" width="3735px" height="1486px" version="1.1" style="shape-rendering:geometricPrecision; text-rendering:geometricPrecision; image-rendering:optimizeQuality; fill-rule:evenodd; clip-rule:evenodd"
viewBox="0 0 3735 1486"
 xmlns:xlink="http://www.w3.org/1999/xlink">
 <defs>
  <style type="text/css">
   <![CDATA[
    .fil0 {fill:#CC9933;fill-rule:nonzero}
   ]]>
  </style>
 </defs>
 <g id="Layer_x0020_1">
  <metadata id="CorelCorpID_0Corel-Layer"/>
  <path class="fil0" d="M3046 1221c54,0 109,4 160,19 35,11 96,37 97,81 0,45 -63,72 -99,82 -50,15 -105,20 -158,20 -59,0 -132,-6 -188,-28 -30,-12 -74,-37 -73,-74 1,-37 44,-61 74,-73 56,-22 128,-27 187,-27zm-1204 -291c156,-100 244,-243 248,-436 4,-163 -67,-318 -201,-411 -81,-55 -175,-82 -272,-82 -68,1 -125,14 -188,38 -66,-26 -127,-38 -198,-38 -148,0 -244,45 -328,169 -100,-116 -211,-159 -362,-169 -204,-12 -387,71 -481,262 -42,84 -60,180 -60,274 0,144 42,320 156,415 59,50 128,72 204,72 76,0 149,-25 208,-74 67,-56 99,-152 102,-239 2,-81 -21,-161 -76,-221 -60,-65 -147,-96 -233,-93 -98,4 -214,74 -240,170 -3,-80 4,-181 51,-276 69,-143 198,-230 356,-220 190,11 315,119 315,318l0 600c0,26 42,35 61,35 20,0 61,-9 61,-35l0 -601c0,-168 85,-314 265,-318 41,-1 73,8 112,19 -112,89 -184,214 -185,361 0,166 107,284 273,284 164,-1 270,-121 270,-284 -1,-147 -72,-271 -184,-361 35,-10 64,-17 100,-18 84,-2 163,32 224,91 86,84 130,210 127,331 -5,230 -163,437 -398,437l-349 0c-20,0 -61,8 -61,34 0,27 41,36 61,36l1311 0c17,0 40,-5 52,-16 16,-14 12,-31 -4,-42 -128,-87 -198,-236 -198,-391 0,-97 24,-194 75,-276 84,-134 222,-204 379,-206 127,-1 212,35 305,120 -137,17 -252,61 -338,177 -59,78 -89,179 -89,277 0,80 20,169 64,236 63,96 166,143 277,144 119,1 220,-54 282,-158 49,-82 70,-190 72,-286 1,-111 -19,-183 -58,-286 197,110 280,336 269,560 -8,164 -66,363 -203,466 0,-4 -1,-8 -2,-13 -19,-74 -121,-114 -186,-129 -60,-14 -121,-19 -182,-19 -65,0 -135,6 -199,22 -64,17 -171,61 -171,141 0,80 103,124 166,141 64,17 138,25 204,24 60,-1 120,-7 180,-19 79,-16 162,-44 231,-88 174,-112 266,-313 277,-519 16,-295 -135,-599 -450,-665 -115,-141 -272,-196 -449,-195 -185,1 -369,74 -480,229 -68,95 -98,207 -97,324 1,149 56,270 156,377l-572 0zm-413 -791c92,82 147,184 148,311 0,90 -42,212 -148,212 -108,0 -149,-121 -149,-212 1,-127 57,-229 149,-311zm-1263 571c0,-120 64,-237 195,-237 130,0 193,116 193,235 0,116 -55,246 -186,246 -131,0 -202,-121 -202,-244zm3030 -452c66,99 91,203 89,321 -1,88 -20,188 -66,264 -37,63 -89,111 -165,110 -70,-1 -125,-40 -163,-98 -39,-59 -55,-141 -55,-212 0,-90 25,-178 79,-250 70,-96 166,-135 281,-135z"/>
 </g>
</svg>
