<?xml version="1.0" encoding="UTF-8"?>
<!DOCTYPE svg PUBLIC "-//W3C//DTD SVG 1.1//EN" "http://www.w3.org/Graphics/SVG/1.1/DTD/svg11.dtd">
<!-- Creator: CorelDRAW X8 -->
<svg xmlns="http://www.w3.org/2000/svg" xml:space="preserve" width="3735px" height="1486px" version="1.1" style="shape-rendering:geometricPrecision; text-rendering:geometricPrecision; image-rendering:optimizeQuality; fill-rule:evenodd; clip-rule:evenodd"
viewBox="0 0 3735 1486"
 xmlns:xlink="http://www.w3.org/1999/xlink">
 <defs>
  <style type="text/css">
   <![CDATA[
    .fil0 {fill:#2B2A29;fill-rule:nonzero}
   ]]>
  </style>
 </defs>
 <g id="Layer_x0020_1">
  <metadata id="CorelCorpID_0Corel-Layer"/>
  <path class="fil0" d="M3054 953c-70,0 -125,-41 -162,-99 -39,-60 -56,-135 -56,-206 0,-90 26,-180 79,-252 71,-96 166,-136 282,-137 63,96 88,197 88,311 0,94 -16,190 -65,272 -37,63 -88,111 -166,111zm-2693 1c-132,-1 -195,-117 -195,-239 0,-120 64,-239 195,-239 130,-1 193,117 193,236 0,117 -60,243 -193,242zm1068 -288c-108,0 -149,-121 -149,-213 1,-128 56,-231 148,-313 92,82 149,185 149,313 1,91 -42,213 -148,213zm2306 162c0,-293 -125,-562 -459,-641 -109,-132 -269,-187 -440,-187 -172,0 -349,64 -458,196 -76,92 -120,215 -120,359 0,151 54,265 156,374l-573 0c163,-105 249,-247 249,-442 0,-159 -70,-312 -201,-403 -81,-56 -176,-84 -272,-83 -68,0 -125,14 -188,39 -66,-27 -127,-39 -198,-39 -148,0 -245,43 -329,168 -101,-131 -228,-169 -400,-169 -194,0 -357,91 -442,265 -42,85 -60,187 -60,281 0,156 48,316 156,406 59,50 124,72 199,72 76,0 154,-24 213,-74 70,-59 102,-156 102,-245 0,-78 -23,-153 -76,-211 -57,-62 -140,-94 -221,-94 -111,0 -219,60 -252,171 -3,-105 5,-184 52,-280 65,-134 182,-221 331,-221 202,0 339,107 339,322l0 597c0,26 42,35 61,35 19,0 61,-9 61,-35l0 -598c0,-169 85,-320 265,-320 43,0 72,7 112,19 -112,89 -184,215 -185,363 0,167 106,286 271,286 168,0 273,-123 272,-286 0,-148 -72,-273 -184,-363 30,-12 67,-19 107,-19 82,0 158,34 217,92 83,82 127,204 127,321 0,230 -153,445 -398,445l-349 0c-20,0 -62,8 -62,35 0,26 42,35 62,35l1311 0c20,0 62,-9 62,-35 0,-8 -4,-17 -14,-23 -127,-88 -198,-229 -198,-386 0,-118 31,-222 89,-304 87,-123 218,-181 366,-181 123,0 212,36 304,120 -137,18 -252,62 -338,178 -59,80 -89,181 -89,280 0,81 20,163 64,231 63,97 167,145 277,145 118,0 221,-56 282,-159 52,-87 72,-195 72,-295 0,-100 -18,-195 -62,-285 204,103 274,326 274,543 0,173 -59,383 -204,491 -9,-82 -119,-126 -188,-142 -60,-14 -121,-19 -181,-19 -66,0 -136,5 -200,22 -63,17 -171,61 -171,141 0,79 104,124 166,141 60,16 130,24 205,24 71,0 139,-8 202,-23 76,-18 145,-47 206,-85 173,-109 280,-300 280,-550zm-688 595c-178,0 -262,-51 -262,-103 0,-51 93,-100 262,-100 168,0 256,53 256,100 0,50 -79,103 -256,103z"/>
 </g>
</svg>
