<?xml version="1.0" encoding="UTF-8"?>
<!DOCTYPE svg PUBLIC "-//W3C//DTD SVG 1.1//EN" "http://www.w3.org/Graphics/SVG/1.1/DTD/svg11.dtd">
<!-- Creator: CorelDRAW X8 -->
<svg xmlns="http://www.w3.org/2000/svg" xml:space="preserve" width="3735px" height="1486px" version="1.1" style="shape-rendering:geometricPrecision; text-rendering:geometricPrecision; image-rendering:optimizeQuality; fill-rule:evenodd; clip-rule:evenodd"
viewBox="0 0 3735 1486"
 xmlns:xlink="http://www.w3.org/1999/xlink">
 <defs>
  <style type="text/css">
   <![CDATA[
    .fil0 {fill:#00A0E3;fill-rule:nonzero}
   ]]>
  </style>
 </defs>
 <g id="Layer_x0020_1">
  <metadata id="CorelCorpID_0Corel-Layer"/>
  <path class="fil0" d="M3047 1221c53,0 108,4 159,20 35,10 96,36 97,80 0,45 -63,72 -99,82 -50,16 -105,20 -157,20 -60,0 -133,-6 -189,-28 -29,-12 -74,-36 -73,-74 1,-37 44,-61 74,-73 56,-22 128,-27 188,-27zm-2506 -1220c-211,-13 -390,78 -481,264 -37,74 -57,167 -60,262 -4,162 44,331 156,425 60,51 127,73 204,72 74,-1 150,-26 208,-74 67,-57 99,-148 102,-235 2,-82 -21,-161 -77,-221 -58,-64 -146,-97 -231,-94 -106,4 -209,63 -242,171 -5,-97 13,-196 53,-280 68,-141 195,-230 355,-220 188,12 315,118 315,318l0 600c0,26 42,35 61,35 20,0 61,-9 61,-35l0 -601c0,-167 85,-314 265,-318 41,-1 73,8 112,19 -112,89 -184,214 -185,361 0,166 107,284 273,284 164,-1 270,-121 270,-284 -1,-147 -72,-271 -184,-361 35,-10 64,-17 100,-18 84,-2 163,32 224,91 86,84 130,210 127,331 -5,230 -163,437 -398,437l-349 0c-20,0 -62,8 -62,34 0,27 42,36 62,36l1311 0c20,0 62,-9 62,-36 0,-8 -6,-16 -14,-22 -128,-87 -198,-236 -198,-391 0,-97 24,-194 75,-276 84,-134 223,-204 379,-206 127,-1 212,35 305,120 -137,17 -252,61 -338,177 -59,78 -89,179 -89,277 0,80 20,169 64,236 63,97 166,143 277,144 119,2 220,-54 282,-157 49,-83 71,-191 72,-287 1,-111 -18,-183 -58,-286 198,110 280,336 270,560 -8,164 -66,363 -204,466 -8,-82 -119,-126 -188,-142 -60,-14 -121,-19 -181,-19 -66,0 -136,6 -200,22 -64,17 -171,61 -171,141 0,80 104,124 166,141 64,17 138,25 204,24 60,-1 121,-7 180,-19 79,-16 162,-44 231,-88 174,-112 266,-313 277,-519 16,-295 -135,-599 -450,-665 -114,-141 -272,-196 -449,-195 -185,1 -369,74 -480,229 -67,95 -98,207 -97,324 1,149 56,270 156,377l-572 0c156,-100 244,-243 248,-436 4,-163 -67,-318 -201,-411 -81,-55 -175,-82 -272,-82 -68,1 -125,14 -188,38 -66,-26 -127,-38 -198,-38 -148,0 -244,45 -328,169 -100,-117 -212,-159 -362,-169zm-375 714c0,-120 64,-238 195,-239 131,0 194,119 193,239 0,119 -64,239 -193,239 -133,0 -195,-117 -195,-239zm1262 -576c93,82 148,184 149,311 0,90 -42,212 -148,212 -108,0 -149,-121 -149,-212 1,-127 56,-229 148,-311zm1769 119c65,99 90,203 88,321 -1,88 -20,188 -65,264 -38,63 -90,111 -166,110 -70,-1 -125,-40 -163,-98 -39,-59 -55,-141 -55,-212 0,-90 25,-178 79,-250 70,-96 166,-135 282,-135z"/>
 </g>
</svg>
