<?xml version="1.0" encoding="UTF-8" standalone="no"?>
<!-- Creator: CorelDRAW X8 -->

<svg
   xmlns:dc="http://purl.org/dc/elements/1.1/"
   xmlns:cc="http://creativecommons.org/ns#"
   xmlns:rdf="http://www.w3.org/1999/02/22-rdf-syntax-ns#"
   xmlns:svg="http://www.w3.org/2000/svg"
   xmlns="http://www.w3.org/2000/svg"
   xmlns:sodipodi="http://sodipodi.sourceforge.net/DTD/sodipodi-0.dtd"
   xmlns:inkscape="http://www.inkscape.org/namespaces/inkscape"
   xml:space="preserve"
   width="3513px"
   height="1024px"
   version="1.1"
   style="shape-rendering:geometricPrecision; text-rendering:geometricPrecision; image-rendering:optimizeQuality; fill-rule:evenodd; clip-rule:evenodd"
   viewBox="0 0 3513 1024"
   id="svg10"
   sodipodi:docname="ഞ്ഞ.svg"
   inkscape:version="0.92.3 (2405546, 2018-03-11)"><metadata
   id="metadata14"><rdf:RDF><cc:Work
       rdf:about=""><dc:format>image/svg+xml</dc:format><dc:type
         rdf:resource="http://purl.org/dc/dcmitype/StillImage" /></cc:Work></rdf:RDF></metadata><sodipodi:namedview
   pagecolor="#ffffff"
   bordercolor="#666666"
   borderopacity="1"
   objecttolerance="10"
   gridtolerance="10"
   guidetolerance="10"
   inkscape:pageopacity="0"
   inkscape:pageshadow="2"
   inkscape:window-width="1062"
   inkscape:window-height="497"
   id="namedview12"
   showgrid="false"
   inkscape:zoom="0.13891261"
   inkscape:cx="1015.0266"
   inkscape:cy="512"
   inkscape:window-x="0"
   inkscape:window-y="0"
   inkscape:window-maximized="0"
   inkscape:current-layer="Layer_x0020_1" />
 <defs
   id="defs4">
  <style
   type="text/css"
   id="style2">
   <![CDATA[
    .fil0 {fill:#669933;fill-rule:nonzero}
   ]]>
  </style>
 </defs>
 <g
   id="Layer_x0020_1">
  <metadata
   id="CorelCorpID_0Corel-Layer" />
  <path
   class="fil0"
   d="m 1758,91 c -37,0 -70,4 -102,12 160,112 241,304 241,495 0,91 -19,179 -58,249 -64,118 -177,176 -308,175 -132,0 -244,-57 -310,-175 -38,-71 -58,-159 -58,-251 0,-191 82,-381 241,-493 -31,-8 -64,-12 -100,-12 -196,-1 -299,110 -299,304 v 583 c 0,25 -36,45 -81,45 -45,0 -81,-20 -81,-45 V 393 C 843,194 707,89 520,91 377,93 270,182 211,300 c -32,64 -49,137 -50,210 52,-75 132,-116 221,-119 98,-3 189,34 249,97 57,61 81,141 79,223 -3,89 -37,178 -106,235 -59,49 -138,77 -224,77 -91,0 -164,-29 -221,-75 C 48,857 0,695 0,540 0,438 21,345 60,267 143,102 304,0 520,0 665,0 826,34 923,148 1010,42 1158,0 1304,0 c 85,0 160,14 226,38 67,-24 142,-38 228,-38 146,0 289,44 375,148 87,-104 234,-148 380,-148 85,0 161,14 228,38 66,-24 141,-38 226,-38 197,0 384,98 477,276 45,86 69,192 69,297 0,165 -60,337 -206,426 -41,25 -93,37 -137,10 -31,-18 -29,-47 4,-64 130,-68 176,-235 176,-372 0,-96 -21,-193 -62,-272 -62,-118 -184,-210 -321,-210 -36,0 -69,4 -101,12 160,112 241,302 241,493 0,86 -16,174 -58,251 -65,118 -177,175 -309,175 -132,1 -244,-57 -309,-175 -38,-70 -58,-158 -58,-249 0,-191 82,-383 242,-495 -32,-8 -66,-12 -102,-12 -189,0 -297,112 -297,305 v 582 c 0,25 -36,45 -81,45 -45,0 -81,-20 -81,-45 V 396 C 2054,210 1941,91 1758,91 Z m 1187,505 c 0,-163 -68,-339 -205,-435 -137,96 -204,274 -204,437 0,83 17,161 51,223 31,58 82,111 153,111 70,0 122,-54 154,-112 36,-67 51,-148 51,-224 z M 381,488 c -87,0 -175,74 -175,222 0,147 92,222 182,222 84,0 166,-73 166,-222 1,-105 -53,-223 -173,-222 z m 945,108 c -1,83 17,162 51,224 31,58 84,112 154,112 70,0 121,-53 153,-111 34,-62 51,-140 51,-223 0,-163 -68,-341 -205,-437 -136,96 -204,272 -204,435 z"
   id="path7"
   inkscape:connector-curvature="0"
   style="fill:#669933;fill-rule:nonzero"
   sodipodi:nodetypes="scscccsccssssscscccccscscscscscscscscccscscscccscsssssssscscscscssccccscscc" />
 </g>
</svg>