<?xml version="1.0" encoding="UTF-8"?>
<!DOCTYPE svg PUBLIC "-//W3C//DTD SVG 1.1//EN" "http://www.w3.org/Graphics/SVG/1.1/DTD/svg11.dtd">
<!-- Creator: CorelDRAW X8 -->
<svg xmlns="http://www.w3.org/2000/svg" xml:space="preserve" width="2522px" height="1024px" version="1.1" style="shape-rendering:geometricPrecision; text-rendering:geometricPrecision; image-rendering:optimizeQuality; fill-rule:evenodd; clip-rule:evenodd"
viewBox="0 0 2522 1024"
 xmlns:xlink="http://www.w3.org/1999/xlink">
 <defs>
  <style type="text/css">
   <![CDATA[
    .fil0 {fill:#2B2A29;fill-rule:nonzero}
   ]]>
  </style>
 </defs>
 <g id="Layer_x0020_1">
  <metadata id="CorelCorpID_0Corel-Layer"/>
  <path class="fil0" d="M904 1024c19,0 61,-9 61,-35l0 -598c0,-169 85,-320 265,-320 42,0 72,7 112,19 -112,89 -185,215 -185,363 0,167 106,286 271,286 168,0 273,-123 272,-286 0,-148 -72,-273 -184,-363 29,-12 67,-19 107,-19 82,0 158,34 217,92 83,82 127,204 127,321 0,230 -153,445 -398,445l-349 0c-20,0 -62,8 -62,35 0,26 42,35 62,35l1240 0c20,0 62,-9 62,-35l0 -928c0,-27 -42,-36 -62,-36 -19,0 -61,9 -61,36l0 893 -558 0c163,-104 249,-247 249,-442 0,-159 -70,-312 -201,-403 -81,-56 -176,-84 -272,-83 -68,0 -125,14 -188,39 -66,-27 -127,-39 -198,-39 -148,0 -245,43 -329,168 -102,-130 -228,-169 -400,-169 -194,0 -357,91 -442,265 -42,85 -60,187 -60,281 0,156 48,316 156,406 59,50 124,72 199,72 76,0 154,-24 213,-74 70,-58 102,-156 102,-245 0,-78 -23,-153 -76,-211 -57,-61 -140,-94 -221,-94 -111,0 -219,60 -252,171 -3,-100 8,-188 52,-280 65,-134 182,-221 331,-221 202,0 339,107 339,322l0 597c0,26 42,35 61,35zm525 -358c-108,0 -150,-121 -149,-213 1,-128 56,-231 148,-313 92,82 148,185 149,313 0,91 -42,213 -148,213zm-1068 288c-132,0 -195,-117 -195,-239 0,-120 64,-239 195,-239 130,-1 193,117 193,236 0,117 -60,243 -193,242z"/>
 </g>
</svg>
