<?xml version="1.0" encoding="UTF-8"?>
<!DOCTYPE svg PUBLIC "-//W3C//DTD SVG 1.1//EN" "http://www.w3.org/Graphics/SVG/1.1/DTD/svg11.dtd">
<!-- Creator: CorelDRAW X8 -->
<svg xmlns="http://www.w3.org/2000/svg" xml:space="preserve" width="3822px" height="1486px" version="1.1" style="shape-rendering:geometricPrecision; text-rendering:geometricPrecision; image-rendering:optimizeQuality; fill-rule:evenodd; clip-rule:evenodd"
viewBox="0 0 3822 1486"
 xmlns:xlink="http://www.w3.org/1999/xlink">
 <defs>
  <style type="text/css">
   <![CDATA[
    .fil0 {fill:#CC9933;fill-rule:nonzero}
   ]]>
  </style>
 </defs>
 <g id="Layer_x0020_1">
  <metadata id="CorelCorpID_0Corel-Layer"/>
  <path class="fil0" d="M1841 930c157,-101 245,-242 249,-436 4,-162 -67,-318 -201,-411 -81,-55 -175,-82 -272,-81 -67,0 -125,13 -188,38 -66,-27 -127,-39 -198,-39 -148,0 -244,45 -328,169 -100,-116 -211,-159 -362,-168 -204,-13 -387,70 -481,261 -42,85 -60,180 -60,274 0,145 42,320 155,416 59,49 129,71 205,71 76,0 149,-24 207,-74 68,-56 100,-152 103,-239 2,-81 -21,-161 -76,-221 -60,-64 -147,-95 -233,-92 -98,3 -214,74 -240,170 -3,-80 4,-181 51,-277 69,-142 198,-230 356,-220 190,12 315,119 315,318l-1 600c0,27 42,35 62,35 19,0 61,-8 61,-35l0 -600c0,-168 85,-315 265,-318 41,-1 73,7 112,18 -112,89 -184,214 -185,361 0,167 107,285 273,284 164,0 270,-120 270,-284 -1,-147 -72,-271 -184,-360 35,-11 64,-18 100,-19 84,-1 163,32 224,91 87,84 130,210 127,331 -5,230 -163,437 -398,437l-349 0c-20,0 -62,8 -62,35 0,26 42,35 62,35l1311 0c16,0 39,-5 52,-17 16,-14 11,-30 -5,-41 -128,-87 -197,-236 -197,-391 0,-98 25,-195 77,-278 85,-135 225,-202 381,-204 125,-1 209,36 301,119 -137,18 -253,62 -338,177 -59,79 -90,179 -90,278 0,80 20,169 64,236 63,96 166,143 278,144 119,1 220,-54 282,-158 49,-82 70,-191 72,-286 1,-129 -24,-223 -87,-334 102,4 196,21 279,88 64,52 105,126 102,223 -2,57 -18,117 -63,155 -31,26 -70,37 -109,38 -20,0 -58,7 -59,33 -1,26 41,35 61,36 44,4 80,-4 119,28 31,26 47,67 48,107 4,109 -87,147 -182,147l-2081 0c-126,0 -273,30 -276,187 -4,163 146,199 276,199l2288 0c32,0 62,-26 62,-59 0,-33 -30,-59 -62,-59l-2288 0c-67,0 -149,-12 -151,-98 -2,-85 86,-101 151,-101l2081 0c140,0 305,-49 305,-216 0,-84 -51,-137 -121,-174 76,-53 115,-119 120,-213 5,-96 -33,-197 -103,-261 -115,-106 -294,-131 -446,-124 -113,-126 -268,-181 -433,-181 -189,0 -377,74 -488,235 -65,94 -93,204 -93,318 1,149 56,270 155,377l-572 0zm-412 -791c92,82 147,184 148,311 0,91 -42,212 -148,212 -108,0 -149,-120 -149,-212 1,-126 57,-229 149,-311zm-1263 571c0,-120 64,-237 195,-237 130,0 193,116 193,236 0,116 -56,245 -186,245 -131,0 -202,-121 -202,-244zm3022 -462c75,95 98,211 97,331 -1,88 -20,188 -66,264 -37,62 -89,111 -165,110 -70,-1 -125,-41 -163,-98 -39,-60 -55,-141 -55,-212 0,-90 25,-179 79,-251 67,-91 165,-127 273,-144z"/>
 </g>
</svg>
