<?xml version="1.0" encoding="UTF-8"?>
<!DOCTYPE svg PUBLIC "-//W3C//DTD SVG 1.1//EN" "http://www.w3.org/Graphics/SVG/1.1/DTD/svg11.dtd">
<!-- Creator: CorelDRAW X8 -->
<svg xmlns="http://www.w3.org/2000/svg" xml:space="preserve" width="951px" height="1024px" version="1.1" style="shape-rendering:geometricPrecision; text-rendering:geometricPrecision; image-rendering:optimizeQuality; fill-rule:evenodd; clip-rule:evenodd"
viewBox="0 0 951 1024"
 xmlns:xlink="http://www.w3.org/1999/xlink">
 <defs>
  <style type="text/css">
   <![CDATA[
    .fil0 {fill:#2B2A29;fill-rule:nonzero}
   ]]>
  </style>
 </defs>
 <g id="Layer_x0020_1">
  <metadata id="CorelCorpID_0Corel-Layer"/>
  <path class="fil0" d="M820 943c86,-55 131,-135 131,-238 0,-117 -48,-199 -161,-237 -69,-23 -150,-29 -227,-28 -65,0 -130,4 -194,4 -139,0 -215,-52 -217,-131 -1,-43 13,-100 64,-147 70,-65 179,-96 273,-96 125,0 255,36 346,130 12,13 33,18 53,18 11,0 21,-1 30,-4 15,-5 32,-17 32,-31 0,-6 -2,-11 -8,-17 -118,-123 -288,-167 -453,-166 -108,0 -235,28 -327,89 -90,59 -137,150 -135,256 2,87 52,168 148,206 74,29 166,33 252,33 61,0 121,-4 181,-4 105,0 218,15 219,141 0,68 -33,122 -89,162 -69,49 -171,70 -254,71 -124,1 -281,-42 -369,-135 -13,-13 -34,-18 -54,-18 -10,0 -21,2 -29,4 -15,5 -32,17 -32,31 0,6 2,11 8,17 113,119 317,171 476,171 111,0 241,-20 336,-81z"/>
 </g>
</svg>
