<?xml version="1.0" encoding="UTF-8"?>
<!DOCTYPE svg PUBLIC "-//W3C//DTD SVG 1.1//EN" "http://www.w3.org/Graphics/SVG/1.1/DTD/svg11.dtd">
<!-- Creator: CorelDRAW X8 -->
<svg xmlns="http://www.w3.org/2000/svg" xml:space="preserve" width="951px" height="1024px" version="1.1" style="shape-rendering:geometricPrecision; text-rendering:geometricPrecision; image-rendering:optimizeQuality; fill-rule:evenodd; clip-rule:evenodd"
viewBox="0 0 951 1024"
 xmlns:xlink="http://www.w3.org/1999/xlink">
 <defs>
  <style type="text/css">
   <![CDATA[
    .fil0 {fill:#00A0E3;fill-rule:nonzero}
   ]]>
  </style>
 </defs>
 <g id="Layer_x0020_1">
  <metadata id="CorelCorpID_0Corel-Layer"/>
  <path class="fil0" d="M942 166c-117,-122 -290,-167 -453,-166 -108,1 -235,29 -327,89 -92,60 -139,161 -135,256 4,87 52,168 148,206 91,36 210,34 310,33 70,-1 139,-10 210,3 66,12 126,40 131,117 6,76 -27,136 -88,179 -69,49 -166,69 -249,71 -122,1 -287,-43 -374,-135 -19,-19 -58,-21 -83,-14 -21,7 -45,27 -24,48 114,120 321,172 481,171 109,-1 237,-21 331,-81 88,-56 133,-139 131,-245 -2,-116 -53,-193 -161,-230 -92,-31 -204,-29 -301,-27 -72,1 -141,9 -214,-4 -58,-11 -118,-38 -123,-105 -6,-66 17,-122 64,-166 69,-64 181,-95 273,-96 127,-1 254,35 346,130 19,20 58,22 83,14 21,-7 45,-27 24,-48z"/>
 </g>
</svg>
