<?xml version="1.0" encoding="UTF-8"?>
<!DOCTYPE svg PUBLIC "-//W3C//DTD SVG 1.1//EN" "http://www.w3.org/Graphics/SVG/1.1/DTD/svg11.dtd">
<!-- Creator: CorelDRAW X8 -->
<svg xmlns="http://www.w3.org/2000/svg" xml:space="preserve" width="600px" height="600px" version="1.1" style="shape-rendering:geometricPrecision; text-rendering:geometricPrecision; image-rendering:optimizeQuality; fill-rule:evenodd; clip-rule:evenodd"
viewBox="0 0 600 600"
 xmlns:xlink="http://www.w3.org/1999/xlink">
 <defs>
  <style type="text/css">
   <![CDATA[
    .fil0 {fill:#00A0E3;fill-rule:nonzero}
   ]]>
  </style>
 </defs>
 <g id="Layer_x0020_1">
  <metadata id="CorelCorpID_0Corel-Layer"/>
  <path class="fil0" d="M593 99c-73,-73 -183,-100 -285,-99 -66,1 -147,16 -207,53 -54,34 -85,90 -85,144 0,54 30,106 95,131 59,22 135,21 197,20 29,-1 80,-6 121,1 37,7 68,21 71,61 4,45 -18,77 -50,99 -40,26 -96,37 -142,38 -71,1 -166,-24 -216,-74 -15,-15 -46,-16 -66,-10 -17,4 -36,19 -20,36 71,71 201,102 302,101 70,0 151,-13 209,-48 50,-30 84,-76 83,-145 -1,-80 -45,-119 -103,-138 -58,-18 -129,-17 -189,-16 -29,0 -83,5 -126,-2 -35,-7 -63,-22 -66,-55 -4,-38 12,-68 37,-91 40,-35 104,-51 155,-52 74,0 146,19 199,71 13,13 43,18 67,11 24,-7 32,-23 19,-36z"/>
 </g>
</svg>
