<?xml version="1.0" encoding="UTF-8"?>
<!DOCTYPE svg PUBLIC "-//W3C//DTD SVG 1.1//EN" "http://www.w3.org/Graphics/SVG/1.1/DTD/svg11.dtd">
<!-- Creator: CorelDRAW X8 -->
<svg xmlns="http://www.w3.org/2000/svg" xml:space="preserve" width="600px" height="600px" version="1.1" style="shape-rendering:geometricPrecision; text-rendering:geometricPrecision; image-rendering:optimizeQuality; fill-rule:evenodd; clip-rule:evenodd"
viewBox="0 0 600 600"
 xmlns:xlink="http://www.w3.org/1999/xlink">
 <defs>
  <style type="text/css">
   <![CDATA[
    .fil0 {fill:#B2B09C;fill-rule:nonzero}
   ]]>
  </style>
 </defs>
 <g id="Layer_x0020_1">
  <metadata id="CorelCorpID_0Corel-Layer"/>
  <path class="fil0" d="M593 99c13,13 4,29 -19,36 -24,7 -54,2 -67,-11 -53,-52 -125,-71 -199,-71 -51,1 -115,17 -155,52 -25,23 -41,53 -37,91 3,33 31,48 66,54 43,8 97,3 126,2 60,0 131,-1 189,17 58,19 101,58 103,137 1,69 -33,116 -83,145 -59,36 -139,48 -209,49 -101,0 -231,-31 -302,-102 -16,-16 3,-31 20,-36 20,-6 51,-4 66,11 51,50 145,74 216,73 46,0 102,-11 142,-38 32,-21 54,-53 50,-98 -3,-40 -34,-55 -71,-61 -41,-7 -92,-2 -121,-2 -62,1 -138,3 -197,-19 -65,-25 -95,-77 -95,-131 1,-54 31,-110 85,-144 60,-37 141,-52 207,-53 102,-1 212,26 285,99z"/>
 </g>
</svg>
