<?xml version="1.0" encoding="UTF-8"?>
<!DOCTYPE svg PUBLIC "-//W3C//DTD SVG 1.1//EN" "http://www.w3.org/Graphics/SVG/1.1/DTD/svg11.dtd">
<!-- Creator: CorelDRAW X8 -->
<svg xmlns="http://www.w3.org/2000/svg" xml:space="preserve" width="600px" height="600px" version="1.1" style="shape-rendering:geometricPrecision; text-rendering:geometricPrecision; image-rendering:optimizeQuality; fill-rule:evenodd; clip-rule:evenodd"
viewBox="0 0 600 600"
 xmlns:xlink="http://www.w3.org/1999/xlink">
 <defs>
  <style type="text/css">
   <![CDATA[
    .fil0 {fill:#CC9933;fill-rule:nonzero}
   ]]>
  </style>
 </defs>
 <g id="Layer_x0020_1">
  <metadata id="CorelCorpID_0Corel-Layer"/>
  <path class="fil0" d="M593 99c13,13 5,29 -19,36 -24,7 -54,2 -67,-11 -53,-52 -125,-71 -199,-71 -51,1 -115,17 -155,52 -25,23 -41,53 -37,91 3,33 31,48 66,55 43,7 97,2 126,2 60,-1 131,-2 189,16 58,19 102,58 103,138 1,69 -33,115 -83,145 -58,35 -139,48 -209,48 -101,1 -231,-30 -302,-101 -4,-5 -6,-9 -6,-13 0,-10 9,-19 26,-23 7,-3 16,-4 24,-4 17,0 33,5 42,14 50,50 145,75 216,74 46,-1 102,-12 142,-38 32,-22 54,-54 50,-99 -3,-40 -34,-54 -71,-61 -41,-7 -92,-2 -121,-1 -62,1 -138,2 -197,-20 -65,-25 -95,-77 -95,-131 0,-54 31,-110 85,-144 60,-37 141,-52 207,-53 102,-1 212,26 285,99z"/>
 </g>
</svg>
