<?xml version="1.0" encoding="UTF-8"?>
<!DOCTYPE svg PUBLIC "-//W3C//DTD SVG 1.1//EN" "http://www.w3.org/Graphics/SVG/1.1/DTD/svg11.dtd">
<!-- Creator: CorelDRAW X8 -->
<svg xmlns="http://www.w3.org/2000/svg" xml:space="preserve" width="787px" height="600px" version="1.1" style="shape-rendering:geometricPrecision; text-rendering:geometricPrecision; image-rendering:optimizeQuality; fill-rule:evenodd; clip-rule:evenodd"
viewBox="0 0 787 600"
 xmlns:xlink="http://www.w3.org/1999/xlink">
 <defs>
  <style type="text/css">
   <![CDATA[
    .fil0 {fill:#B2B09C;fill-rule:nonzero}
   ]]>
  </style>
 </defs>
 <g id="Layer_x0020_1">
  <metadata id="CorelCorpID_0Corel-Layer"/>
  <path class="fil0" d="M691 548c-60,32 -147,49 -233,52 -111,3 -220,-17 -309,-73 -96,-61 -149,-167 -149,-273 0,-94 39,-188 121,-244 18,-12 49,-13 69,-4 19,8 27,24 8,37 -69,47 -99,131 -99,210 1,94 41,186 125,239 66,42 152,57 234,54 45,-1 113,-10 163,-36 41,-22 66,-59 65,-93 0,-31 -22,-58 -72,-67 -42,-7 -92,-2 -122,-1 -62,0 -138,2 -197,-20 -65,-24 -96,-77 -96,-132 1,-53 30,-109 86,-143 60,-37 142,-53 208,-54 103,-1 212,27 285,100 17,16 -2,31 -19,36 -20,6 -52,4 -67,-11 -53,-52 -125,-72 -199,-72 -51,1 -116,18 -156,53 -25,23 -41,53 -37,91 3,33 31,48 66,55 43,7 97,2 126,2 60,-1 132,-2 190,16 70,23 105,77 105,133 0,54 -33,111 -96,145z"/>
 </g>
</svg>
