<?xml version="1.0" encoding="UTF-8"?>
<!DOCTYPE svg PUBLIC "-//W3C//DTD SVG 1.1//EN" "http://www.w3.org/Graphics/SVG/1.1/DTD/svg11.dtd">
<!-- Creator: CorelDRAW X8 -->
<svg xmlns="http://www.w3.org/2000/svg" xml:space="preserve" width="787px" height="600px" version="1.1" style="shape-rendering:geometricPrecision; text-rendering:geometricPrecision; image-rendering:optimizeQuality; fill-rule:evenodd; clip-rule:evenodd"
viewBox="0 0 787 600"
 xmlns:xlink="http://www.w3.org/1999/xlink">
 <defs>
  <style type="text/css">
   <![CDATA[
    .fil0 {fill:#2B2A29;fill-rule:nonzero}
   ]]>
  </style>
 </defs>
 <g id="Layer_x0020_1">
  <metadata id="CorelCorpID_0Corel-Layer"/>
  <path class="fil0" d="M441 600c87,0 174,-11 249,-52 64,-33 97,-90 97,-145 0,-56 -35,-110 -105,-133 -50,-16 -100,-17 -152,-17 -36,0 -72,2 -107,2 -56,0 -124,-4 -124,-69 0,-34 16,-61 39,-81 40,-35 107,-52 158,-52 75,0 143,18 196,71 10,10 27,14 43,14 9,0 17,-1 25,-3 12,-4 25,-13 25,-24 0,-4 -1,-8 -6,-13 -73,-72 -181,-98 -283,-98 -70,0 -151,17 -211,53 -56,35 -85,91 -85,145 0,61 38,109 96,130 45,17 101,20 153,20 37,0 76,-2 113,-2 51,0 124,8 124,72 0,34 -24,70 -65,92 -51,27 -121,37 -180,37 -76,0 -155,-16 -217,-55 -84,-54 -124,-146 -124,-241 0,-78 30,-161 98,-208 7,-5 11,-11 11,-16 0,-8 -8,-16 -19,-21 -9,-4 -20,-6 -31,-6 -14,0 -28,3 -38,10 -81,55 -121,148 -121,241 0,109 53,215 149,276 82,51 190,73 292,73z"/>
 </g>
</svg>
