<?xml version="1.0" encoding="UTF-8"?>
<!DOCTYPE svg PUBLIC "-//W3C//DTD SVG 1.1//EN" "http://www.w3.org/Graphics/SVG/1.1/DTD/svg11.dtd">
<!-- Creator: CorelDRAW X8 -->
<svg xmlns="http://www.w3.org/2000/svg" xml:space="preserve" width="936px" height="1486px" version="1.1" style="shape-rendering:geometricPrecision; text-rendering:geometricPrecision; image-rendering:optimizeQuality; fill-rule:evenodd; clip-rule:evenodd"
viewBox="0 0 936 1486"
 xmlns:xlink="http://www.w3.org/1999/xlink">
 <defs>
  <style type="text/css">
   <![CDATA[
    .fil0 {fill:#00A0E3;fill-rule:nonzero}
   ]]>
  </style>
 </defs>
 <g id="Layer_x0020_1">
  <metadata id="CorelCorpID_0Corel-Layer"/>
  <path class="fil0" d="M796 954c84,-53 137,-127 140,-231 3,-115 -64,-221 -172,-258 -92,-32 -205,-29 -301,-28 -73,1 -142,10 -215,-4 -57,-11 -117,-37 -123,-104 -6,-65 18,-120 65,-164 69,-64 180,-95 272,-96 128,-1 255,35 347,129 18,20 58,22 83,14 21,-6 44,-26 24,-47 -117,-121 -290,-166 -453,-165 -109,1 -235,29 -328,88 -95,61 -142,166 -134,262 7,84 54,160 148,197 90,35 210,34 309,32 71,-1 140,-9 211,4 73,12 139,64 149,144 15,132 -119,204 -232,204l-525 0c-19,0 -61,8 -61,34 0,27 42,35 62,35l523 0c35,0 97,0 129,12 69,25 103,78 100,151 -3,64 -26,119 -72,163 -73,67 -185,90 -280,90 -65,1 -134,-9 -195,-31 -55,-20 -109,-55 -150,-98 -19,-19 -59,-21 -84,-14 -21,7 -44,27 -24,48 52,54 122,97 192,123 83,30 174,43 262,42 103,-1 226,-23 317,-75 95,-55 155,-133 156,-248 1,-108 -45,-165 -140,-209z"/>
 </g>
</svg>
