<?xml version="1.0" encoding="UTF-8"?>
<!DOCTYPE svg PUBLIC "-//W3C//DTD SVG 1.1//EN" "http://www.w3.org/Graphics/SVG/1.1/DTD/svg11.dtd">
<!-- Creator: CorelDRAW X8 -->
<svg xmlns="http://www.w3.org/2000/svg" xml:space="preserve" width="947px" height="1130px" version="1.1" style="shape-rendering:geometricPrecision; text-rendering:geometricPrecision; image-rendering:optimizeQuality; fill-rule:evenodd; clip-rule:evenodd"
viewBox="0 0 947 1130"
 xmlns:xlink="http://www.w3.org/1999/xlink">
 <defs>
  <style type="text/css">
   <![CDATA[
    .fil0 {fill:#2B2A29;fill-rule:nonzero}
   ]]>
  </style>
 </defs>
 <g id="Layer_x0020_1">
  <metadata id="CorelCorpID_0Corel-Layer"/>
  <path class="fil0" d="M535 440c-64,0 -130,4 -194,4 -139,0 -215,-52 -217,-131 -1,-43 13,-100 64,-147 70,-65 179,-96 273,-96 125,0 256,36 346,130 13,13 33,18 53,18 11,0 21,-1 30,-4 15,-5 32,-17 32,-31 0,-6 -2,-11 -8,-17 -118,-123 -288,-167 -453,-166 -108,0 -235,29 -327,89 -90,59 -137,150 -135,256 2,87 52,168 148,206 74,29 166,33 252,33 61,0 121,-4 181,-4 53,0 119,4 168,30 67,35 91,110 91,182 0,59 -18,113 -54,161 -18,24 -39,45 -65,63 11,-22 16,-44 17,-65 1,-49 -24,-88 -66,-114 -41,-27 -98,-36 -145,-36 -62,0 -107,12 -158,46 -52,-34 -97,-46 -158,-46 -47,0 -106,9 -146,36 -38,24 -63,58 -63,104 0,75 70,131 134,154 66,25 136,35 232,35 99,0 209,-4 309,-34 70,-21 136,-54 187,-110 55,-60 85,-149 85,-236 0,-83 -28,-167 -91,-223 -90,-81 -208,-88 -322,-87zm-168 632c-66,0 -145,-5 -206,-32 -40,-19 -72,-51 -72,-98 0,-62 67,-87 120,-87 67,0 108,40 108,108 0,24 32,31 51,31 18,0 51,-7 51,-31 0,-66 40,-108 106,-108 50,0 122,25 122,85 0,48 -32,81 -73,100 -61,28 -140,32 -207,32z"/>
 </g>
</svg>
