<?xml version="1.0" encoding="UTF-8"?>
<!DOCTYPE svg PUBLIC "-//W3C//DTD SVG 1.1//EN" "http://www.w3.org/Graphics/SVG/1.1/DTD/svg11.dtd">
<!-- Creator: CorelDRAW X8 -->
<svg xmlns="http://www.w3.org/2000/svg" xml:space="preserve" width="1256px" height="1024px" version="1.1" style="shape-rendering:geometricPrecision; text-rendering:geometricPrecision; image-rendering:optimizeQuality; fill-rule:evenodd; clip-rule:evenodd"
viewBox="0 0 1256 1024"
 xmlns:xlink="http://www.w3.org/1999/xlink">
 <defs>
  <style type="text/css">
   <![CDATA[
    .fil0 {fill:#CC9933;fill-rule:nonzero}
   ]]>
  </style>
 </defs>
 <g id="Layer_x0020_1">
  <metadata id="CorelCorpID_0Corel-Layer"/>
  <path class="fil0" d="M1103 937c88,-50 153,-140 153,-246 0,-107 -67,-188 -164,-221 -92,-32 -204,-29 -301,-28 -73,1 -142,10 -215,-4 -57,-11 -117,-37 -123,-105 -5,-65 18,-121 65,-165 69,-64 182,-97 274,-98 128,-1 253,36 345,132 12,13 33,18 54,18 10,0 20,-2 29,-5 15,-4 32,-16 32,-30 0,-5 -2,-11 -8,-17 -117,-122 -288,-169 -452,-168 -108,1 -236,30 -328,91 -91,58 -138,157 -135,249 2,90 50,174 148,213 93,37 214,34 313,32 70,-1 137,-9 207,4 67,12 132,50 133,128 1,72 -54,136 -113,169 -81,45 -191,64 -282,67 -137,4 -285,-21 -402,-99 -140,-94 -208,-256 -209,-424 -1,-141 51,-289 167,-373 9,-7 13,-14 13,-22 0,-11 -9,-21 -23,-27 -11,-5 -25,-8 -39,-8 -17,0 -35,4 -47,13 -132,95 -196,257 -195,418 1,185 88,366 240,469 145,97 322,128 493,123 120,-3 265,-27 370,-86z"/>
 </g>
</svg>
