<?xml version="1.0" encoding="UTF-8"?>
<!DOCTYPE svg PUBLIC "-//W3C//DTD SVG 1.1//EN" "http://www.w3.org/Graphics/SVG/1.1/DTD/svg11.dtd">
<!-- Creator: CorelDRAW X8 -->
<svg xmlns="http://www.w3.org/2000/svg" xml:space="preserve" width="787px" height="600px" version="1.1" style="shape-rendering:geometricPrecision; text-rendering:geometricPrecision; image-rendering:optimizeQuality; fill-rule:evenodd; clip-rule:evenodd"
viewBox="0 0 787 600"
 xmlns:xlink="http://www.w3.org/1999/xlink">
 <defs>
  <style type="text/css">
   <![CDATA[
    .fil0 {fill:#00A0E3;fill-rule:nonzero}
   ]]>
  </style>
 </defs>
 <g id="Layer_x0020_1">
  <metadata id="CorelCorpID_0Corel-Layer"/>
  <path class="fil0" d="M691 548c63,-34 96,-91 96,-145 0,-56 -35,-110 -105,-133 -58,-18 -130,-17 -190,-16 -29,0 -83,5 -126,-2 -35,-7 -63,-22 -66,-55 -4,-38 12,-68 37,-91 40,-35 105,-52 156,-53 74,0 146,20 199,72 15,15 47,17 67,11 17,-5 36,-20 19,-36 -73,-73 -182,-101 -285,-100 -66,1 -148,17 -208,54 -56,34 -85,90 -86,143 0,55 31,108 96,132 59,22 135,20 197,20 30,-1 80,-6 122,1 50,9 72,36 72,67 1,34 -24,71 -65,93 -50,26 -118,35 -163,36 -82,3 -168,-12 -234,-54 -84,-53 -124,-145 -125,-239 0,-79 30,-163 99,-210 19,-13 11,-29 -8,-37 -20,-9 -51,-8 -69,4 -82,56 -121,150 -121,244 0,106 53,212 149,273 89,56 198,76 309,73 86,-3 173,-20 233,-52z"/>
 </g>
</svg>
