<?xml version="1.0" encoding="UTF-8"?>
<!DOCTYPE svg PUBLIC "-//W3C//DTD SVG 1.1//EN" "http://www.w3.org/Graphics/SVG/1.1/DTD/svg11.dtd">
<!-- Creator: CorelDRAW X8 -->
<svg xmlns="http://www.w3.org/2000/svg" xml:space="preserve" width="947px" height="1130px" version="1.1" style="shape-rendering:geometricPrecision; text-rendering:geometricPrecision; image-rendering:optimizeQuality; fill-rule:evenodd; clip-rule:evenodd"
viewBox="0 0 947 1130"
 xmlns:xlink="http://www.w3.org/1999/xlink">
 <defs>
  <style type="text/css">
   <![CDATA[
    .fil0 {fill:#2B2A29;fill-rule:nonzero}
   ]]>
  </style>
 </defs>
 <g id="Layer_x0020_1">
  <metadata id="CorelCorpID_0Corel-Layer"/>
  <path class="fil0" d="M535 440c-64,0 -129,4 -194,4 -139,0 -215,-52 -217,-131 -1,-43 13,-100 64,-147 71,-65 179,-96 273,-96 125,0 256,35 347,130 12,13 33,18 53,18 11,0 21,-1 30,-4 15,-5 32,-17 32,-31 0,-6 -3,-11 -8,-17 -118,-123 -288,-167 -454,-166 -108,0 -235,28 -327,89 -89,59 -137,150 -135,256 2,87 52,168 148,206 74,29 166,33 252,33 61,0 121,-4 182,-4 52,0 120,5 167,30 70,37 92,116 92,190 0,87 -33,157 -106,206 6,-13 8,-26 8,-37 1,-82 -116,-134 -184,-150 -58,-14 -120,-19 -180,-19 -67,0 -137,6 -201,23 -66,17 -170,61 -170,142 0,79 103,124 166,141 56,15 129,24 203,24 87,0 181,-3 269,-24 82,-20 159,-56 218,-120 62,-68 85,-150 85,-240 0,-87 -25,-160 -90,-219 -89,-81 -210,-88 -323,-87zm-157 627c-179,0 -263,-51 -263,-103 0,-52 94,-101 263,-101 168,0 256,53 256,101 0,49 -80,103 -256,103z"/>
 </g>
</svg>
