<?xml version="1.0" encoding="UTF-8"?>
<!DOCTYPE svg PUBLIC "-//W3C//DTD SVG 1.1//EN" "http://www.w3.org/Graphics/SVG/1.1/DTD/svg11.dtd">
<!-- Creator: CorelDRAW X8 -->
<svg xmlns="http://www.w3.org/2000/svg" xml:space="preserve" width="2420px" height="1486px" version="1.1" style="shape-rendering:geometricPrecision; text-rendering:geometricPrecision; image-rendering:optimizeQuality; fill-rule:evenodd; clip-rule:evenodd"
viewBox="0 0 2420 1486"
 xmlns:xlink="http://www.w3.org/1999/xlink">
 <defs>
  <style type="text/css">
   <![CDATA[
    .fil0 {fill:#2B2A29;fill-rule:nonzero}
   ]]>
  </style>
 </defs>
 <g id="Layer_x0020_1">
  <metadata id="CorelCorpID_0Corel-Layer"/>
  <path class="fil0" d="M1958 1024c99,0 192,-29 269,-83 -36,64 -71,125 -122,178 -207,219 -530,297 -822,297 -262,0 -557,-63 -779,-206 -258,-166 -381,-395 -381,-695 0,-173 62,-361 210,-456 11,-7 16,-16 16,-24 0,-10 -8,-19 -21,-26 -12,-7 -26,-9 -40,-9 -17,0 -33,4 -46,12 -167,107 -242,308 -242,503 0,344 182,619 480,781 238,130 535,190 804,190 310,0 649,-80 878,-300 176,-169 258,-395 258,-635 0,-98 -12,-199 -46,-289 -40,-108 -111,-201 -229,-253 -13,-6 -28,-9 -44,-9 -17,0 -33,4 -46,14 -9,6 -13,14 -13,21 0,11 10,22 24,28 169,72 231,287 231,456 0,70 -11,141 -36,207 -49,129 -163,227 -303,227 -172,0 -252,-123 -252,-288l0 -630c0,-26 -42,-35 -62,-35 -20,0 -61,9 -61,35l0 631c0,148 -56,288 -225,288 -97,0 -177,-74 -208,-164 -33,-94 -32,-197 -32,-295 0,-107 -2,-219 -46,-318 -57,-129 -164,-177 -298,-177 -179,0 -309,101 -372,269 -28,74 -41,163 -41,242 0,203 93,417 300,502 15,6 32,11 49,11 17,0 33,-5 47,-17 7,-6 10,-13 10,-19 0,-12 -12,-24 -27,-29 -177,-67 -256,-267 -257,-448 -1,-69 12,-143 34,-209 39,-122 119,-232 257,-232 98,0 158,57 190,149 30,87 31,184 31,276 0,103 1,210 35,308 50,144 183,221 328,221 126,0 209,-36 289,-133 89,99 180,133 311,133z"/>
 </g>
</svg>
