<?xml version="1.0" encoding="UTF-8"?>
<!DOCTYPE svg PUBLIC "-//W3C//DTD SVG 1.1//EN" "http://www.w3.org/Graphics/SVG/1.1/DTD/svg11.dtd">
<!-- Creator: CorelDRAW X8 -->
<svg xmlns="http://www.w3.org/2000/svg" xml:space="preserve" width="2420px" height="1486px" version="1.1" style="shape-rendering:geometricPrecision; text-rendering:geometricPrecision; image-rendering:optimizeQuality; fill-rule:evenodd; clip-rule:evenodd"
viewBox="0 0 2420 1486"
 xmlns:xlink="http://www.w3.org/1999/xlink">
 <defs>
  <style type="text/css">
   <![CDATA[
    .fil0 {fill:#00A0E3;fill-rule:nonzero}
   ]]>
  </style>
 </defs>
 <g id="Layer_x0020_1">
  <metadata id="CorelCorpID_0Corel-Layer"/>
  <path class="fil0" d="M504 1210c-233,-149 -361,-369 -379,-648 -12,-185 47,-399 208,-503 24,-16 19,-38 -5,-50 -26,-13 -62,-12 -86,3 -182,117 -255,346 -240,556 23,330 193,573 478,728 240,131 540,191 811,190 306,-1 643,-81 871,-300 176,-169 255,-392 258,-635 1,-118 -18,-244 -74,-349 -46,-87 -113,-153 -202,-193 -27,-12 -66,-14 -90,5 -23,17 -11,39 11,49 167,71 232,283 231,452 0,70 -10,141 -36,206 -49,129 -163,233 -303,233 -172,0 -252,-122 -252,-286l0 -633c0,-26 -42,-35 -62,-35 -20,0 -61,9 -61,35l0 634c0,149 -59,282 -224,286 -99,2 -177,-72 -209,-163 -33,-95 -32,-206 -32,-305 0,-105 -3,-214 -46,-311 -57,-129 -164,-176 -298,-176 -179,0 -309,100 -373,267 -29,77 -41,160 -40,241 1,211 99,424 300,506 30,12 70,16 96,-6 22,-19 5,-40 -18,-48 -176,-67 -255,-273 -256,-452 0,-69 12,-142 34,-207 40,-122 119,-231 257,-231 98,0 158,56 190,147 30,87 31,184 31,275 0,102 0,216 35,313 50,143 183,219 328,219 126,0 209,-35 289,-132 89,99 180,132 311,132 116,0 182,-39 279,-91 -40,70 -76,128 -131,186 -206,218 -528,296 -816,297 -263,1 -561,-62 -785,-206z"/>
 </g>
</svg>
