<?xml version="1.0" encoding="UTF-8"?>
<!DOCTYPE svg PUBLIC "-//W3C//DTD SVG 1.1//EN" "http://www.w3.org/Graphics/SVG/1.1/DTD/svg11.dtd">
<!-- Creator: CorelDRAW X8 -->
<svg xmlns="http://www.w3.org/2000/svg" xml:space="preserve" width="2188px" height="1024px" version="1.1" style="shape-rendering:geometricPrecision; text-rendering:geometricPrecision; image-rendering:optimizeQuality; fill-rule:evenodd; clip-rule:evenodd"
viewBox="0 0 2188 1024"
 xmlns:xlink="http://www.w3.org/1999/xlink"
 xmlns:dc="http://purl.org/dc/elements/1.1/"
 xmlns:cc="http://creativecommons.org/ns#"
 xmlns:rdf="http://www.w3.org/1999/02/22-rdf-syntax-ns#"
 xmlns:svg="http://www.w3.org/2000/svg"
 xmlns:sodipodi="http://sodipodi.sourceforge.net/DTD/sodipodi-0.dtd"
 xmlns:inkscape="http://www.inkscape.org/namespaces/inkscape"
 sodipodi:docname="ഡ്ര.svg"
 inkscape:version="0.92.3 (2405546, 2018-03-11)">
 <defs>
  <style type="text/css">
   <![CDATA[
    .fil0 {fill:#2B2A29;fill-rule:nonzero}
   ]]>
  </style>
 </defs>
 <g id="Layer_x0020_1">
  <metadata id="CorelCorpID_0Corel-Layer"/>
  <sodipodi:namedview pagecolor="#ffffff" bordercolor="#666666" borderopacity="1" objecttolerance="10" gridtolerance="10" guidetolerance="10" inkscape:pageopacity="0" inkscape:pageshadow="2" inkscape:window-width="1062" inkscape:window-height="497" id="namedview12" showgrid="false" inkscape:zoom="0.21912887" inkscape:cx="643.45697" inkscape:cy="512" inkscape:window-x="0" inkscape:window-y="0" inkscape:window-maximized="0" inkscape:current-layer="Layer_x0020_1"/>
  <sodipodi:namedview pagecolor="#ffffff" bordercolor="#666666" borderopacity="1" objecttolerance="10" gridtolerance="10" guidetolerance="10" inkscape:pageopacity="0" inkscape:pageshadow="2" inkscape:window-width="3200" inkscape:window-height="1693" id="namedview14" showgrid="false" inkscape:zoom="0.921875" inkscape:cx="1435.6911" inkscape:cy="437.18221" inkscape:window-x="0" inkscape:window-y="0" inkscape:window-maximized="1" inkscape:current-layer="Layer_x0020_1"/>
  <sodipodi:namedview pagecolor="#ffffff" bordercolor="#666666" borderopacity="1" objecttolerance="10" gridtolerance="10" guidetolerance="10" inkscape:pageopacity="0" inkscape:pageshadow="2" inkscape:window-width="1062" inkscape:window-height="497" id="namedview12" showgrid="false" inkscape:zoom="0.15881561" inkscape:cx="581.44915" inkscape:cy="743" inkscape:window-x="0" inkscape:window-y="0" inkscape:window-maximized="0" inkscape:current-layer="Layer_x0020_1"/>
 </g>
 <g id="Layer_x0020_1_0">
  <metadata id="CorelCorpID_1Corel-Layer"/>
 </g>
 <g id="Layer_x0020_1_1">
  <metadata id="CorelCorpID_2Corel-Layer"/>
 </g>
 <g id="Layer_x0020_1_2">
  <metadata id="CorelCorpID_3Corel-Layer"/>
  <path class="fil0" d="M1687 1024c190,1 354,-88 441,-265 41,-85 60,-181 60,-276 0,-145 -42,-315 -156,-411 -58,-49 -121,-72 -195,-72 -80,0 -158,24 -217,74 -69,58 -102,153 -102,245 0,78 22,153 76,211 56,61 140,94 221,94 135,0 230,-86 252,-172 0,102 -6,185 -51,279 -64,134 -182,222 -331,222 -193,-1 -339,-110 -339,-318l0 -600c0,-26 -42,-35 -62,-35 -20,0 -62,9 -62,35l0 625c0,151 -53,294 -224,294 -97,0 -177,-74 -209,-164 -32,-94 -32,-197 -32,-295 0,-107 -2,-219 -46,-318 -57,-129 -164,-177 -298,-177 -179,0 -309,101 -372,269 -27,74 -41,163 -41,242 0,203 93,418 300,502 15,6 32,11 49,11 17,0 33,-5 47,-17 7,-6 10,-13 10,-19 0,-12 -12,-23 -27,-29 -177,-66 -256,-267 -257,-448 0,-69 13,-143 34,-209 40,-122 119,-232 257,-232 98,0 158,57 190,149 30,87 31,184 31,276 0,103 1,210 35,308 50,144 183,221 329,221 135,0 218,-39 301,-150 110,117 229,150 388,150zm140 -476c-131,0 -194,-118 -194,-239 0,-119 65,-239 194,-239 132,0 195,117 195,239 0,121 -64,239 -195,239z"/>
 </g>
</svg>
