<?xml version="1.0" encoding="UTF-8"?>
<!DOCTYPE svg PUBLIC "-//W3C//DTD SVG 1.1//EN" "http://www.w3.org/Graphics/SVG/1.1/DTD/svg11.dtd">
<!-- Creator: CorelDRAW X8 -->
<svg xmlns="http://www.w3.org/2000/svg" xml:space="preserve" width="1341px" height="600px" version="1.1" style="shape-rendering:geometricPrecision; text-rendering:geometricPrecision; image-rendering:optimizeQuality; fill-rule:evenodd; clip-rule:evenodd"
viewBox="0 0 1341 600"
 xmlns:xlink="http://www.w3.org/1999/xlink">
 <defs>
  <style type="text/css">
   <![CDATA[
    .fil0 {fill:#00A0E3;fill-rule:nonzero}
   ]]>
  </style>
 </defs>
 <g id="Layer_x0020_1">
  <metadata id="CorelCorpID_0Corel-Layer"/>
  <path class="fil0" d="M834 371l0 -344c0,-15 -22,-27 -49,-27 -27,0 -49,12 -49,27l0 358c0,78 -30,160 -123,162 -55,1 -97,-42 -114,-89 -20,-54 -19,-114 -19,-171 0,-152 -29,-287 -219,-287 -175,0 -258,134 -261,287 -2,129 59,256 186,306 24,9 54,12 74,-5 18,-15 4,-31 -13,-37 -105,-38 -150,-163 -149,-264 1,-93 47,-234 163,-234 118,0 121,152 121,234 0,60 0,125 21,181 32,89 116,134 210,132 69,-2 138,-22 182,-77 58,59 149,76 228,77 132,1 231,-59 282,-157 23,-46 36,-100 36,-160 0,-91 -29,-185 -96,-239 -39,-32 -83,-45 -133,-44 -50,1 -100,17 -135,45 -41,34 -62,86 -63,139 -2,51 15,96 47,129 36,38 92,60 151,58 54,-2 100,-26 132,-70 -1,43 -11,85 -30,123 -36,71 -102,123 -191,122 -108,-1 -189,-63 -189,-175zm383 -187c0,86 -53,130 -105,130 -53,0 -105,-43 -105,-130 0,-88 54,-131 105,-131 54,0 105,44 105,131z"/>
 </g>
</svg>
