<?xml version="1.0" encoding="UTF-8"?>
<!DOCTYPE svg PUBLIC "-//W3C//DTD SVG 1.1//EN" "http://www.w3.org/Graphics/SVG/1.1/DTD/svg11.dtd">
<!-- Creator: CorelDRAW X8 -->
<svg xmlns="http://www.w3.org/2000/svg" xml:space="preserve" width="2548px" height="1486px" version="1.1" style="shape-rendering:geometricPrecision; text-rendering:geometricPrecision; image-rendering:optimizeQuality; fill-rule:evenodd; clip-rule:evenodd"
viewBox="0 0 2548 1486"
 xmlns:xlink="http://www.w3.org/1999/xlink">
 <defs>
  <style type="text/css">
   <![CDATA[
    .fil0 {fill:#CC9933;fill-rule:nonzero}
   ]]>
  </style>
 </defs>
 <g id="Layer_x0020_1">
  <metadata id="CorelCorpID_0Corel-Layer"/>
  <path class="fil0" d="M1704 638l0 -603c0,-26 -41,-35 -61,-35 -20,0 -62,9 -62,35l0 627c0,150 -57,289 -223,292 -100,2 -177,-72 -209,-163 -33,-94 -32,-205 -33,-304 0,-131 -11,-255 -62,-345 -48,-86 -134,-142 -282,-142 -275,0 -408,230 -412,487 -4,216 93,443 300,526 14,6 31,10 48,10 17,0 34,-4 47,-16 8,-6 11,-12 11,-19 0,-12 -13,-23 -28,-29 -180,-67 -258,-291 -256,-472 2,-175 85,-417 290,-417 112,0 167,69 195,158 26,84 27,186 27,259 0,102 0,220 34,318 51,145 179,222 328,219 133,-3 221,-41 301,-149 109,115 228,147 382,149 145,1 221,-44 338,-116 -109,189 -218,296 -418,387 -197,88 -424,122 -631,121 -304,0 -628,-65 -864,-233 -189,-135 -321,-336 -339,-622 -12,-184 46,-398 208,-502 11,-7 16,-15 16,-23 0,-10 -8,-20 -21,-27 -11,-5 -26,-9 -41,-9 -16,0 -33,5 -45,12 -182,117 -255,346 -240,555 21,308 169,523 379,668 263,181 623,251 947,251 221,0 453,-29 658,-116 227,-95 407,-255 497,-490 43,-112 66,-240 65,-387 -1,-150 -38,-322 -157,-422 -61,-50 -126,-72 -204,-71 -73,2 -152,26 -208,74 -67,56 -100,146 -102,233 -2,81 20,160 76,219 59,64 147,96 232,93 127,-4 209,-80 241,-170 3,97 -15,197 -54,281 -60,126 -170,225 -334,224 -190,-2 -334,-114 -334,-316zm677 -331c-1,119 -64,237 -195,237 -131,0 -194,-118 -194,-237 0,-119 65,-237 194,-237 132,0 195,116 195,237z"/>
 </g>
</svg>
