<?xml version="1.0" encoding="UTF-8"?>
<!DOCTYPE svg PUBLIC "-//W3C//DTD SVG 1.1//EN" "http://www.w3.org/Graphics/SVG/1.1/DTD/svg11.dtd">
<!-- Creator: CorelDRAW X8 -->
<svg xmlns="http://www.w3.org/2000/svg" xml:space="preserve" width="2200px" height="1486px" version="1.1" style="shape-rendering:geometricPrecision; text-rendering:geometricPrecision; image-rendering:optimizeQuality; fill-rule:evenodd; clip-rule:evenodd"
viewBox="0 0 2200 1486"
 xmlns:xlink="http://www.w3.org/1999/xlink">
 <defs>
  <style type="text/css">
   <![CDATA[
    .fil0 {fill:#B2B09C;fill-rule:nonzero}
   ]]>
  </style>
 </defs>
 <g id="Layer_x0020_1">
  <metadata id="CorelCorpID_0Corel-Layer"/>
  <path class="fil0" d="M2066 449c2,100 -8,186 -51,277 -66,135 -185,229 -336,228 -190,-2 -334,-114 -334,-316l-1 -603c0,-26 -41,-35 -61,-35 -20,0 -62,9 -62,35l1 627c0,150 -57,288 -223,292 -100,2 -177,-72 -209,-163 -33,-94 -33,-205 -33,-304 0,-254 -43,-487 -344,-487 -276,0 -409,230 -413,487 -3,216 94,443 301,526 30,12 70,17 96,-6 22,-19 5,-40 -18,-48 -180,-68 -259,-291 -257,-472 3,-175 85,-417 291,-417 214,0 221,257 221,417 0,102 1,220 36,318 50,144 179,222 327,219 133,-3 221,-41 301,-149 109,115 228,147 382,149 157,1 298,-64 392,-183 -49,196 -159,375 -327,480 -33,21 -69,39 -107,54 8,-17 12,-33 12,-49 1,-33 -15,-64 -47,-89 -39,-31 -94,-50 -136,-60 -60,-14 -121,-19 -182,-19 -65,0 -135,5 -199,22 -64,16 -171,60 -171,141 0,79 103,124 166,141 66,18 138,24 206,24 59,0 118,-3 176,-10 61,-7 123,-19 181,-38 53,-16 102,-37 148,-65 148,-90 265,-208 335,-371 25,-59 44,-122 56,-190 12,-68 17,-140 17,-215 0,-74 -8,-159 -24,-243 -21,-107 -63,-214 -145,-283 -61,-50 -126,-72 -204,-71 -73,2 -152,26 -208,74 -67,56 -100,146 -102,233 -2,81 20,160 76,219 59,64 147,96 232,93 127,-4 220,-89 241,-170zm-781 771c53,0 109,5 160,20 35,11 96,36 96,81 1,45 -62,72 -98,82 -50,15 -105,20 -158,20 -59,0 -132,-6 -188,-28 -30,-12 -74,-37 -73,-74 1,-37 44,-61 74,-73 56,-22 128,-28 187,-28zm735 -913c0,119 -64,237 -194,237 -131,0 -194,-117 -194,-237 0,-119 64,-237 194,-237 132,0 195,116 194,237z"/>
 </g>
</svg>
