<?xml version="1.0" encoding="UTF-8"?>
<!DOCTYPE svg PUBLIC "-//W3C//DTD SVG 1.1//EN" "http://www.w3.org/Graphics/SVG/1.1/DTD/svg11.dtd">
<!-- Creator: CorelDRAW X8 -->
<svg xmlns="http://www.w3.org/2000/svg" xml:space="preserve" width="2266px" height="1024px" version="1.1" style="shape-rendering:geometricPrecision; text-rendering:geometricPrecision; image-rendering:optimizeQuality; fill-rule:evenodd; clip-rule:evenodd"
viewBox="0 0 2266 1024"
 xmlns:xlink="http://www.w3.org/1999/xlink">
 <defs>
  <style type="text/css">
   <![CDATA[
    .fil0 {fill:#B2B09C;fill-rule:nonzero}
   ]]>
  </style>
 </defs>
 <g id="Layer_x0020_1">
  <metadata id="CorelCorpID_0Corel-Layer"/>
  <path class="fil0" d="M897 151c-111,-117 -236,-149 -388,-151 -192,-2 -362,86 -449,265 -37,74 -57,167 -60,262 -4,162 44,331 156,425 60,51 127,73 204,72 74,-1 151,-26 208,-74 67,-57 99,-148 102,-235 2,-82 -21,-161 -76,-221 -59,-64 -147,-97 -232,-94 -105,4 -209,63 -241,171 -6,-97 12,-196 52,-280 62,-128 175,-222 335,-221 188,2 333,108 335,316 1,201 0,402 0,603 0,26 41,35 61,35 19,0 61,-9 61,-35l0 -629c0,-193 115,-287 231,-287 116,0 233,95 233,282l0 634c0,19 27,35 61,35 34,0 62,-16 62,-35l0 -634c0,-161 82,-285 253,-285 114,0 220,71 276,170 44,78 61,176 62,265 1,178 -65,384 -230,456 -23,10 -35,32 -12,49 22,17 61,18 86,7 197,-86 281,-306 279,-513 -1,-99 -22,-206 -72,-292 -80,-136 -233,-212 -389,-212 -121,0 -246,43 -317,142 -69,-96 -183,-143 -299,-142 -116,1 -228,52 -292,151zm-731 564c0,-121 64,-239 195,-239 131,0 194,119 194,239 -1,119 -65,239 -194,239 -132,-1 -195,-117 -195,-239z"/>
 </g>
</svg>
