<?xml version="1.0" encoding="UTF-8"?>
<!DOCTYPE svg PUBLIC "-//W3C//DTD SVG 1.1//EN" "http://www.w3.org/Graphics/SVG/1.1/DTD/svg11.dtd">
<!-- Creator: CorelDRAW X8 -->
<svg xmlns="http://www.w3.org/2000/svg" xml:space="preserve" width="1388px" height="600px" version="1.1" style="shape-rendering:geometricPrecision; text-rendering:geometricPrecision; image-rendering:optimizeQuality; fill-rule:evenodd; clip-rule:evenodd"
viewBox="0 0 1388 600"
 xmlns:xlink="http://www.w3.org/1999/xlink">
 <defs>
  <style type="text/css">
   <![CDATA[
    .fil0 {fill:#CC9933;fill-rule:nonzero}
   ]]>
  </style>
 </defs>
 <g id="Layer_x0020_1">
  <metadata id="CorelCorpID_0Corel-Layer"/>
  <path class="fil0" d="M733 0c66,1 129,24 175,77 43,-47 110,-77 190,-77 110,0 212,53 259,152 23,46 32,100 31,153 -2,117 -53,237 -168,287 -11,5 -24,8 -37,8 -13,0 -26,-3 -36,-11 -7,-5 -10,-10 -10,-16 0,-8 6,-16 19,-21 94,-39 133,-155 134,-247 1,-43 -5,-87 -21,-126 -28,-69 -92,-125 -171,-125 -97,0 -140,73 -140,160l0 359c0,15 -22,27 -49,27 -27,0 -49,-12 -49,-27l0 -359c0,-76 -37,-160 -127,-160 -89,0 -128,81 -128,161l0 358c0,15 -22,27 -49,27 -27,0 -49,-12 -49,-27l0 -344c0,-115 -82,-176 -193,-175 -86,0 -152,52 -187,122 -19,38 -29,81 -30,123 31,-44 78,-68 132,-70 59,-1 115,20 151,58 32,33 49,77 47,129 -2,52 -22,105 -63,139 -36,28 -84,44 -135,45 -50,0 -94,-13 -133,-44 -67,-54 -96,-148 -96,-239 0,-60 13,-114 36,-160 50,-96 150,-156 278,-157 84,0 178,19 237,79 46,-53 112,-80 182,-79zm-609 416c0,86 51,130 105,131 51,0 104,-43 105,-131 0,-87 -53,-130 -105,-130 -52,0 -105,44 -105,130z"/>
 </g>
</svg>
