<?xml version="1.0" encoding="UTF-8"?>
<!DOCTYPE svg PUBLIC "-//W3C//DTD SVG 1.1//EN" "http://www.w3.org/Graphics/SVG/1.1/DTD/svg11.dtd">
<!-- Creator: CorelDRAW X8 -->
<svg xmlns="http://www.w3.org/2000/svg" xml:space="preserve" width="1388px" height="600px" version="1.1" style="shape-rendering:geometricPrecision; text-rendering:geometricPrecision; image-rendering:optimizeQuality; fill-rule:evenodd; clip-rule:evenodd"
viewBox="0 0 1388 600"
 xmlns:xlink="http://www.w3.org/1999/xlink">
 <defs>
  <style type="text/css">
   <![CDATA[
    .fil0 {fill:#2B2A29;fill-rule:nonzero}
   ]]>
  </style>
 </defs>
 <g id="Layer_x0020_1">
  <metadata id="CorelCorpID_0Corel-Layer"/>
  <path class="fil0" d="M1184 600c12,0 25,-3 35,-8 117,-50 169,-174 169,-292 0,-52 -9,-103 -31,-148 -47,-99 -149,-152 -259,-152 -80,0 -148,30 -190,77 -45,-52 -105,-77 -175,-77 -69,0 -136,26 -182,78 -59,-59 -150,-78 -233,-78 -118,0 -227,51 -281,156 -24,46 -37,101 -37,160 0,92 29,186 96,239 38,31 82,44 130,44 50,0 99,-13 138,-45 44,-36 63,-91 63,-146 0,-48 -17,-90 -47,-121 -35,-37 -88,-58 -144,-58 -57,0 -106,24 -139,70 0,-42 11,-85 30,-123 37,-73 103,-123 189,-123 109,0 191,61 191,175l0 345c0,15 22,27 49,27 27,0 49,-12 49,-27l0 -359c0,-79 38,-160 128,-160 90,0 127,84 127,160l0 359c0,15 22,26 49,26 27,0 49,-11 49,-26l0 -359c0,-87 42,-161 140,-161 79,0 143,57 171,126 15,37 21,79 21,120 0,94 -38,213 -134,253 -12,5 -20,13 -20,21 0,5 3,11 11,16 11,7 23,11 37,11zm-955 -54c-54,0 -105,-44 -105,-130 0,-87 53,-130 105,-130 53,0 104,43 104,128 0,62 -31,132 -104,132z"/>
 </g>
</svg>
