<?xml version="1.0" encoding="UTF-8"?>
<!DOCTYPE svg PUBLIC "-//W3C//DTD SVG 1.1//EN" "http://www.w3.org/Graphics/SVG/1.1/DTD/svg11.dtd">
<!-- Creator: CorelDRAW X8 -->
<svg xmlns="http://www.w3.org/2000/svg" xml:space="preserve" width="3451px" height="1024px" version="1.1" style="shape-rendering:geometricPrecision; text-rendering:geometricPrecision; image-rendering:optimizeQuality; fill-rule:evenodd; clip-rule:evenodd"
viewBox="0 0 3451 1024"
 xmlns:xlink="http://www.w3.org/1999/xlink">
 <defs>
  <style type="text/css">
   <![CDATA[
    .fil0 {fill:#CC9933;fill-rule:nonzero}
   ]]>
  </style>
 </defs>
 <g id="Layer_x0020_1">
  <metadata id="CorelCorpID_0Corel-Layer"/>
  <path class="fil0" d="M2678 891c89,99 180,133 311,133 176,0 336,-91 412,-256 35,-77 50,-164 50,-249 1,-205 -81,-423 -275,-510 -13,-6 -28,-9 -44,-9 -17,0 -34,4 -47,14 -8,6 -12,14 -12,21 0,11 10,22 24,28 166,72 232,285 231,456 0,70 -11,141 -36,207 -49,129 -163,228 -303,228 -172,0 -253,-124 -253,-289l0 -630c0,-26 -41,-35 -61,-35 -20,0 -62,9 -62,35l0 631c0,151 -58,284 -223,288 -99,2 -177,-73 -209,-164 -32,-94 -32,-197 -32,-295 0,-107 -2,-219 -46,-318 -57,-129 -164,-177 -298,-177 -133,0 -231,49 -316,150 -60,-91 -163,-149 -292,-150 -129,-1 -231,54 -300,152 -111,-118 -237,-153 -395,-151 -187,1 -357,89 -442,264 -42,85 -60,181 -60,276 0,145 42,315 156,411 59,50 127,72 204,72 74,-1 150,-26 208,-74 67,-57 99,-148 101,-235 3,-82 -20,-161 -76,-221 -59,-64 -146,-97 -231,-94 -105,4 -213,68 -242,172 -7,-85 11,-194 52,-279 64,-133 181,-221 330,-222 191,-1 339,104 340,315 2,200 0,402 0,603 0,26 42,35 62,35 19,0 61,-9 61,-35l0 -626c0,-194 115,-290 231,-291 116,0 233,96 233,290l0 626c0,27 41,35 61,35 20,0 61,-8 61,-35l0 -626c0,-160 79,-292 253,-291 100,0 159,55 191,148 30,87 31,184 31,276 0,103 0,210 35,308 50,144 183,221 328,221 126,0 209,-36 289,-133zm-2512 -176c0,-121 64,-239 195,-239 131,0 193,118 193,239 0,119 -64,239 -193,239 -132,-1 -195,-117 -195,-239z"/>
 </g>
</svg>
