<?xml version="1.0" encoding="UTF-8"?>
<!DOCTYPE svg PUBLIC "-//W3C//DTD SVG 1.1//EN" "http://www.w3.org/Graphics/SVG/1.1/DTD/svg11.dtd">
<!-- Creator: CorelDRAW X8 -->
<svg xmlns="http://www.w3.org/2000/svg" xml:space="preserve" width="3809px" height="1486px" version="1.1" style="shape-rendering:geometricPrecision; text-rendering:geometricPrecision; image-rendering:optimizeQuality; fill-rule:evenodd; clip-rule:evenodd"
viewBox="0 0 3809 1486"
 xmlns:xlink="http://www.w3.org/1999/xlink">
 <defs>
  <style type="text/css">
   <![CDATA[
    .fil0 {fill:#2B2A29;fill-rule:nonzero}
   ]]>
  </style>
 </defs>
 <g id="Layer_x0020_1">
  <metadata id="CorelCorpID_0Corel-Layer"/>
  <path class="fil0" d="M3102 1385c218,-57 437,-157 572,-348 107,-152 135,-336 135,-519 0,-89 -16,-182 -50,-265 -44,-105 -117,-196 -226,-244 -13,-6 -28,-9 -44,-9 -17,0 -33,4 -46,14 -9,6 -13,14 -13,21 0,11 10,22 24,28 169,72 231,287 231,456 0,70 -11,141 -36,207 -49,129 -163,227 -303,227 -172,0 -252,-123 -252,-288l0 -630c0,-26 -42,-35 -62,-35 -20,0 -61,9 -61,35l0 631c0,147 -56,288 -225,288 -97,0 -177,-74 -208,-164 -33,-94 -32,-197 -32,-295 0,-107 -3,-219 -46,-318 -58,-130 -166,-177 -298,-177 -121,0 -246,43 -317,142 -68,-95 -179,-142 -293,-142 -117,0 -233,50 -298,151 -110,-116 -237,-151 -393,-151 -190,0 -358,88 -445,265 -41,85 -60,187 -60,281 0,156 48,316 156,406 60,50 124,72 199,72 76,0 155,-25 213,-74 70,-59 102,-156 102,-245 0,-78 -22,-154 -76,-211 -56,-62 -140,-94 -221,-94 -110,0 -219,60 -252,171 -3,-100 8,-189 52,-280 62,-127 174,-221 332,-221 196,0 339,113 339,316l0 603c0,26 40,35 60,35 20,0 62,-9 62,-35l0 -629c0,-193 114,-287 230,-287 117,0 234,95 234,282l0 634c0,19 27,35 61,35 34,0 62,-16 62,-35l0 -634c0,-161 82,-285 253,-285 96,0 157,55 190,149 30,87 31,184 31,276 0,103 1,210 35,308 50,144 183,221 328,221 126,0 209,-36 289,-133 89,99 180,133 311,133 102,0 200,-31 278,-89 -141,215 -298,310 -543,379 -363,102 -761,102 -1136,102 -420,0 -1056,14 -1419,-190 -258,-146 -403,-368 -403,-668 0,-192 83,-391 244,-498 10,-7 14,-15 14,-22 0,-11 -8,-21 -22,-28 -14,-7 -27,-10 -41,-10 -15,0 -31,4 -45,14 -178,120 -273,330 -273,544 0,325 162,561 440,718 403,227 1045,210 1505,210 386,0 781,-2 1157,-101zm-2385 -431c-132,-1 -195,-117 -195,-239 0,-121 64,-239 195,-239 131,0 195,119 194,239 0,119 -65,239 -194,239z"/>
 </g>
</svg>
