<?xml version="1.0" encoding="UTF-8"?>
<!DOCTYPE svg PUBLIC "-//W3C//DTD SVG 1.1//EN" "http://www.w3.org/Graphics/SVG/1.1/DTD/svg11.dtd">
<!-- Creator: CorelDRAW X8 -->
<svg xmlns="http://www.w3.org/2000/svg" xml:space="preserve" width="2428px" height="1024px" version="1.1" style="shape-rendering:geometricPrecision; text-rendering:geometricPrecision; image-rendering:optimizeQuality; fill-rule:evenodd; clip-rule:evenodd"
viewBox="0 0 2428 1024"
 xmlns:xlink="http://www.w3.org/1999/xlink">
 <defs>
  <style type="text/css">
   <![CDATA[
    .fil0 {fill:#00A0E3;fill-rule:nonzero}
   ]]>
  </style>
 </defs>
 <g id="Layer_x0020_1">
  <metadata id="CorelCorpID_0Corel-Layer"/>
  <path class="fil0" d="M1197 0c-129,-1 -242,62 -300,151 -109,-115 -232,-149 -388,-151 -192,-2 -362,86 -449,265 -37,74 -57,167 -60,262 -4,162 44,331 156,425 60,50 127,72 204,71 74,0 150,-25 208,-74 67,-57 99,-147 102,-235 2,-81 -21,-160 -77,-221 -58,-64 -146,-96 -231,-93 -106,4 -209,63 -241,170 -6,-96 12,-195 52,-279 61,-128 175,-222 334,-221 193,2 334,112 335,315 2,201 0,403 0,604 0,26 42,35 61,35 20,0 62,-9 62,-35l0 -626c0,-195 116,-291 232,-291 116,1 231,96 231,290l0 626c0,27 42,35 62,35 19,0 61,-8 61,-35l0 -624c0,-186 116,-287 301,-294 120,-5 220,40 309,121 -137,18 -252,62 -338,178 -58,79 -89,180 -89,279 0,81 20,163 64,231 63,96 164,144 276,145 119,1 221,-55 282,-159 49,-83 71,-185 72,-281 2,-136 -32,-267 -115,-375 -114,-149 -280,-208 -461,-209 -151,0 -295,49 -364,150 -55,-88 -162,-149 -291,-150zm-1031 715c0,-121 64,-239 195,-239 131,0 194,119 193,239 0,119 -64,239 -193,238 -132,0 -195,-116 -195,-238zm2051 -455c65,100 90,205 88,324 -1,88 -19,182 -65,258 -37,63 -89,112 -165,111 -70,-1 -125,-41 -162,-99 -39,-60 -56,-134 -56,-206 0,-90 25,-179 79,-252 70,-96 166,-136 281,-136z"/>
 </g>
</svg>
