<?xml version="1.0" encoding="UTF-8"?>
<!DOCTYPE svg PUBLIC "-//W3C//DTD SVG 1.1//EN" "http://www.w3.org/Graphics/SVG/1.1/DTD/svg11.dtd">
<!-- Creator: CorelDRAW X8 -->
<svg xmlns="http://www.w3.org/2000/svg" xml:space="preserve" width="1681px" height="825px" version="1.1" style="shape-rendering:geometricPrecision; text-rendering:geometricPrecision; image-rendering:optimizeQuality; fill-rule:evenodd; clip-rule:evenodd"
viewBox="0 0 1681 825"
 xmlns:xlink="http://www.w3.org/1999/xlink">
 <defs>
  <style type="text/css">
   <![CDATA[
    .fil0 {fill:#00A0E3;fill-rule:nonzero}
   ]]>
  </style>
 </defs>
 <g id="Layer_x0020_1">
  <metadata id="CorelCorpID_0Corel-Layer"/>
  <path class="fil0" d="M957 571l0 -356c0,-109 81,-160 170,-162 58,-1 120,19 166,58 -77,10 -148,43 -195,104 -36,46 -54,105 -54,162 0,49 13,96 39,134 40,59 106,87 177,87 71,1 140,-28 181,-95 30,-47 43,-105 44,-163 1,-48 -7,-96 -25,-139 92,64 126,178 123,284 -5,138 -81,282 -240,287 -51,1 -106,-13 -147,-44 -17,-13 -48,-14 -68,-7 -18,7 -30,24 -12,38 62,47 149,67 227,66 209,-3 333,-148 338,-344 4,-175 -87,-330 -273,-366 -63,-73 -156,-114 -281,-115 -73,0 -168,24 -220,77 -46,-53 -108,-76 -174,-77 -70,-1 -137,26 -182,79 -59,-60 -153,-79 -237,-79 -128,1 -228,61 -278,156 -23,46 -36,100 -36,160 0,91 29,185 96,238 38,31 83,45 133,44 51,0 99,-17 134,-45 42,-33 62,-86 64,-138 1,-52 -15,-96 -47,-129 -36,-37 -92,-59 -151,-57 -54,2 -101,25 -132,69 0,-42 11,-85 30,-122 35,-70 101,-122 187,-122 110,-1 193,59 193,174l0 344c0,14 22,26 49,26 27,0 48,-12 48,-26l0 -358c0,-76 38,-160 129,-160 89,0 127,84 127,161l0 356c0,15 22,27 48,27 27,0 49,-12 49,-27zm-833 -156c0,-86 52,-130 105,-130 52,0 105,43 104,130 0,87 -53,130 -104,130 -54,0 -105,-44 -105,-130zm1214 -253c36,53 50,115 49,178 0,52 -12,104 -38,146 -25,39 -54,59 -88,59 -37,-1 -67,-23 -87,-52 -21,-32 -33,-73 -33,-116 0,-50 15,-101 47,-142 36,-46 90,-73 150,-73z"/>
 </g>
</svg>
