<?xml version="1.0" encoding="UTF-8"?>
<!DOCTYPE svg PUBLIC "-//W3C//DTD SVG 1.1//EN" "http://www.w3.org/Graphics/SVG/1.1/DTD/svg11.dtd">
<!-- Creator: CorelDRAW X8 -->
<svg xmlns="http://www.w3.org/2000/svg" xml:space="preserve" width="2779px" height="1486px" version="1.1" style="shape-rendering:geometricPrecision; text-rendering:geometricPrecision; image-rendering:optimizeQuality; fill-rule:evenodd; clip-rule:evenodd"
viewBox="0 0 2779 1486"
 xmlns:xlink="http://www.w3.org/1999/xlink">
 <defs>
  <style type="text/css">
   <![CDATA[
    .fil0 {fill:#B2B09C;fill-rule:nonzero}
   ]]>
  </style>
 </defs>
 <g id="Layer_x0020_1">
  <metadata id="CorelCorpID_0Corel-Layer"/>
  <path class="fil0" d="M862 0c-192,-2 -362,86 -449,265 -37,74 -57,167 -60,262 -4,162 44,331 156,425 60,50 127,73 204,72 74,-1 151,-26 208,-74 67,-57 99,-148 102,-235 2,-82 -21,-161 -76,-221 -59,-64 -147,-97 -232,-94 -105,4 -209,63 -241,171 -6,-97 12,-196 52,-280 62,-128 175,-222 335,-221 191,2 333,110 334,313 2,200 0,407 0,606 0,26 42,35 62,35 19,0 61,-9 61,-35l0 -628c0,-194 116,-289 233,-289 115,0 231,95 231,288l0 629c0,26 41,35 61,35 20,0 62,-9 62,-35l0 -603c0,-249 170,-317 383,-315 123,0 361,42 338,209 -9,67 -69,77 -126,69 -93,-14 -199,-53 -285,2 -59,37 -82,105 -79,173 2,66 33,136 93,167 130,68 202,-18 303,17 86,30 124,115 123,203 -3,236 -214,348 -410,409 -268,83 -581,96 -861,96 -260,0 -628,-47 -858,-177 -256,-145 -403,-380 -403,-680 -1,-193 82,-393 244,-502 23,-15 16,-37 -8,-49 -24,-12 -63,-11 -86,4 -179,121 -274,332 -273,547 1,325 163,573 440,730 265,149 644,197 944,197 287,0 595,-11 873,-85 244,-65 522,-194 522,-490 0,-146 -68,-286 -227,-294 -81,-4 -144,36 -232,9 -47,-13 -76,-53 -78,-102 -3,-53 28,-96 79,-108 61,-15 127,7 187,16 113,16 224,-20 228,-153 6,-217 -290,-280 -454,-279 -163,1 -310,34 -430,152 -79,-112 -175,-151 -302,-152 -129,-1 -231,55 -300,151 -109,-116 -233,-149 -388,-151zm-343 715c0,-121 64,-239 195,-239 131,0 194,119 194,239 -1,119 -65,239 -194,239 -132,-1 -195,-117 -195,-239z"/>
 </g>
</svg>
