<?xml version="1.0" encoding="UTF-8"?>
<!DOCTYPE svg PUBLIC "-//W3C//DTD SVG 1.1//EN" "http://www.w3.org/Graphics/SVG/1.1/DTD/svg11.dtd">
<!-- Creator: CorelDRAW X8 -->
<svg xmlns="http://www.w3.org/2000/svg" xml:space="preserve" width="2393px" height="1024px" version="1.1" style="shape-rendering:geometricPrecision; text-rendering:geometricPrecision; image-rendering:optimizeQuality; fill-rule:evenodd; clip-rule:evenodd"
viewBox="0 0 2393 1024"
 xmlns:xlink="http://www.w3.org/1999/xlink">
 <defs>
  <style type="text/css">
   <![CDATA[
    .fil0 {fill:#CC9933;fill-rule:nonzero}
   ]]>
  </style>
 </defs>
 <g id="Layer_x0020_1">
  <metadata id="CorelCorpID_0Corel-Layer"/>
  <path class="fil0" d="M1198 0c-130,-1 -233,54 -301,152 -111,-119 -239,-153 -395,-151 -187,1 -357,89 -442,264 -42,85 -60,181 -60,276 0,145 42,315 156,411 59,50 127,73 204,72 75,-1 150,-25 208,-74 67,-57 99,-148 102,-235 2,-82 -21,-161 -77,-221 -58,-64 -146,-97 -231,-94 -105,4 -213,68 -241,172 -8,-85 10,-193 51,-279 64,-133 182,-221 330,-222 189,-1 339,103 341,315 1,201 0,402 0,603 0,26 41,35 61,35 19,0 61,-8 61,-35l0 -625c0,-195 117,-292 234,-291 115,1 229,97 230,290l0 626c0,26 42,35 61,35 20,0 62,-9 62,-35l0 -601c0,-249 166,-318 383,-317 87,1 193,17 266,66 45,30 74,71 74,124 -1,83 -59,100 -128,90 -93,-13 -199,-53 -285,2 -59,37 -81,103 -79,172 2,67 34,136 94,168 126,67 231,-15 325,17 43,15 72,46 72,94 0,36 -16,71 -41,96 -46,46 -108,53 -169,52 -57,-2 -123,-8 -176,-32 -11,-5 -25,-8 -38,-8 -18,0 -36,5 -48,14 -9,6 -13,14 -13,21 -1,11 9,22 23,28 76,34 167,49 250,48 84,0 190,-18 258,-69 44,-33 73,-81 73,-150 0,-102 -70,-181 -170,-186 -87,-4 -166,37 -256,10 -46,-14 -76,-54 -78,-103 -2,-54 29,-97 80,-109 60,-15 126,7 186,16 111,16 225,-16 229,-152 3,-106 -66,-175 -155,-218 -88,-42 -203,-62 -300,-62 -163,1 -310,34 -429,153 -80,-113 -176,-152 -302,-153zm-1032 715c0,-120 64,-239 195,-239 131,0 193,119 193,239 0,119 -64,239 -193,239 -132,0 -195,-117 -195,-239z"/>
 </g>
</svg>
