<?xml version="1.0" encoding="UTF-8"?>
<!DOCTYPE svg PUBLIC "-//W3C//DTD SVG 1.1//EN" "http://www.w3.org/Graphics/SVG/1.1/DTD/svg11.dtd">
<!-- Creator: CorelDRAW X8 -->
<svg xmlns="http://www.w3.org/2000/svg" xml:space="preserve" width="3592px" height="1486px" version="1.1" style="shape-rendering:geometricPrecision; text-rendering:geometricPrecision; image-rendering:optimizeQuality; fill-rule:evenodd; clip-rule:evenodd"
viewBox="0 0 3592 1486"
 xmlns:xlink="http://www.w3.org/1999/xlink">
 <defs>
  <style type="text/css">
   <![CDATA[
    .fil0 {fill:#2B2A29;fill-rule:nonzero}
   ]]>
  </style>
 </defs>
 <g id="Layer_x0020_1">
  <metadata id="CorelCorpID_0Corel-Layer"/>
  <path class="fil0" d="M3218 548c-131,0 -194,-118 -194,-239 0,-119 65,-239 194,-239 132,0 195,117 195,239 0,121 -64,239 -195,239zm-2857 406c-132,0 -195,-117 -195,-239 0,-121 64,-239 195,-239 131,0 194,119 194,239 0,119 -65,240 -194,239zm1444 -954c-121,0 -246,43 -317,142 -68,-95 -178,-142 -292,-142 -117,0 -234,50 -299,151 -110,-116 -236,-151 -392,-151 -190,0 -359,88 -445,265 -42,85 -60,187 -60,281 0,156 48,316 156,406 59,50 124,72 199,72 76,0 155,-24 213,-74 70,-59 102,-156 102,-245 0,-78 -23,-153 -76,-211 -57,-61 -140,-94 -221,-94 -111,0 -219,61 -252,171 -3,-100 8,-188 52,-280 62,-127 174,-221 332,-221 196,0 338,113 338,316l0 603c0,26 41,35 61,35 19,0 61,-9 61,-35l0 -629c0,-193 115,-287 231,-287 116,0 233,95 233,282l0 634c0,19 27,35 61,35 34,0 62,-16 62,-35l0 -634c0,-161 82,-285 253,-285 97,0 157,57 189,149 30,87 31,184 31,276 0,103 1,210 35,308 50,144 183,221 329,221 135,0 219,-39 301,-150 110,117 229,150 388,150 154,1 291,-57 383,-173 -50,192 -159,367 -324,470 -33,21 -69,39 -107,54 8,-17 12,-33 12,-49 0,-89 -111,-132 -183,-149 -60,-14 -121,-19 -182,-19 -65,0 -135,6 -199,22 -64,17 -171,60 -171,141 0,79 103,124 166,141 66,18 136,24 204,24 86,0 177,-6 264,-23 82,-16 172,-46 243,-90 148,-90 265,-208 335,-371 55,-127 73,-267 73,-405 0,-80 -8,-175 -29,-266 -22,-99 -65,-195 -140,-259 -58,-49 -121,-72 -195,-72 -80,0 -158,24 -217,74 -69,58 -102,154 -102,245 0,78 23,153 76,211 57,61 140,94 221,94 135,0 230,-86 252,-172 0,102 -6,185 -51,279 -64,134 -182,222 -331,222 -193,0 -339,-110 -339,-318l0 -600c0,-26 -42,-35 -62,-35 -19,0 -61,9 -61,35l0 625c0,152 -54,294 -225,294 -98,0 -178,-75 -209,-164 -33,-94 -32,-197 -32,-295 0,-107 -2,-219 -46,-318 -58,-130 -166,-177 -297,-177zm872 1423c-178,0 -262,-51 -262,-102 0,-52 93,-101 262,-101 168,0 256,53 256,101 0,49 -79,102 -256,102z"/>
 </g>
</svg>
