<?xml version="1.0" encoding="UTF-8"?>
<!DOCTYPE svg PUBLIC "-//W3C//DTD SVG 1.1//EN" "http://www.w3.org/Graphics/SVG/1.1/DTD/svg11.dtd">
<!-- Creator: CorelDRAW X8 -->
<svg xmlns="http://www.w3.org/2000/svg" xml:space="preserve" width="2779px" height="1486px" version="1.1" style="shape-rendering:geometricPrecision; text-rendering:geometricPrecision; image-rendering:optimizeQuality; fill-rule:evenodd; clip-rule:evenodd"
viewBox="0 0 2779 1486"
 xmlns:xlink="http://www.w3.org/1999/xlink">
 <defs>
  <style type="text/css">
   <![CDATA[
    .fil0 {fill:#2B2A29;fill-rule:nonzero}
   ]]>
  </style>
 </defs>
 <g id="Layer_x0020_1">
  <metadata id="CorelCorpID_0Corel-Layer"/>
  <path class="fil0" d="M1844 1023c20,0 62,-9 62,-35l0 -601c0,-247 164,-317 378,-317 88,0 197,17 271,66 45,30 74,73 74,126 0,69 -41,91 -95,91 -68,0 -138,-29 -212,-29 -37,0 -72,7 -106,28 -62,38 -79,104 -79,172 0,67 34,136 94,168 39,21 76,27 111,27 57,0 142,-28 190,-11 85,30 123,113 123,200 0,236 -213,351 -410,412 -268,83 -553,96 -833,96 -260,0 -656,-47 -886,-177 -260,-147 -403,-383 -403,-683 0,-192 82,-392 244,-499 9,-7 14,-14 14,-21 0,-11 -8,-21 -22,-28 -11,-5 -25,-8 -39,-8 -17,0 -35,3 -47,12 -179,119 -273,330 -273,544 0,325 160,575 440,733 264,150 672,197 972,197 287,0 567,-11 845,-85 244,-65 522,-197 522,-493 0,-146 -68,-285 -227,-291 -52,-2 -108,19 -165,19 -72,0 -144,-29 -144,-112 0,-78 51,-114 125,-114 65,0 127,25 192,25 106,0 178,-62 178,-173 0,-102 -67,-159 -155,-201 -88,-42 -203,-62 -300,-62 -163,0 -312,34 -431,153 -71,-101 -180,-153 -302,-153 -118,0 -234,50 -299,151 -110,-116 -236,-151 -392,-151 -190,0 -359,88 -445,265 -42,85 -60,187 -60,281 0,156 48,316 156,406 59,50 124,72 199,72 76,0 154,-24 213,-74 69,-59 102,-156 102,-245 0,-78 -23,-153 -76,-211 -57,-61 -140,-94 -221,-94 -111,0 -219,60 -252,171 -3,-100 7,-189 52,-280 62,-127 174,-221 332,-221 196,0 338,113 338,316l0 603c0,26 41,35 61,35 19,0 61,-9 61,-35l0 -629c0,-193 115,-287 231,-287 158,0 233,148 233,290l0 626c0,26 42,35 61,35zm-1129 -70c-132,0 -195,-117 -195,-239 0,-121 64,-239 195,-239 131,0 194,119 194,239 -1,119 -65,240 -194,239z"/>
 </g>
</svg>
