<?xml version="1.0" encoding="UTF-8"?>
<!DOCTYPE svg PUBLIC "-//W3C//DTD SVG 1.1//EN" "http://www.w3.org/Graphics/SVG/1.1/DTD/svg11.dtd">
<!-- Creator: CorelDRAW X8 -->
<svg xmlns="http://www.w3.org/2000/svg" xml:space="preserve" width="3579px" height="1024px" version="1.1" style="shape-rendering:geometricPrecision; text-rendering:geometricPrecision; image-rendering:optimizeQuality; fill-rule:evenodd; clip-rule:evenodd"
viewBox="0 0 3579 1024"
 xmlns:xlink="http://www.w3.org/1999/xlink">
 <defs>
  <style type="text/css">
   <![CDATA[
    .fil0 {fill:#B2B09C;fill-rule:nonzero}
   ]]>
  </style>
 </defs>
 <g id="Layer_x0020_1">
  <metadata id="CorelCorpID_0Corel-Layer"/>
  <path class="fil0" d="M3458 452c2,101 -7,188 -51,279 -65,136 -185,224 -336,223 -190,-2 -334,-115 -334,-318l0 -601c0,-26 -42,-35 -62,-35 -19,0 -61,9 -61,35l0 625c0,151 -58,290 -224,294 -99,2 -177,-73 -209,-164 -32,-94 -32,-197 -32,-295 0,-107 -2,-219 -45,-318 -58,-129 -165,-177 -299,-177 -133,0 -231,49 -316,150 -62,-94 -162,-149 -291,-150 -130,-1 -237,57 -301,152 -109,-116 -232,-150 -388,-152 -192,-2 -362,86 -449,265 -37,74 -57,167 -60,262 -4,163 44,331 156,425 60,51 127,73 204,72 74,-1 151,-25 208,-74 67,-57 99,-148 102,-235 2,-82 -21,-161 -76,-221 -59,-64 -147,-97 -232,-94 -106,4 -209,64 -241,171 -6,-97 12,-196 52,-280 61,-128 175,-222 335,-220 192,1 333,111 334,315 2,201 0,402 0,603 0,26 42,35 62,35 19,0 61,-9 61,-35l0 -626c0,-194 117,-290 233,-291 116,0 231,96 231,290l0 626c0,27 42,36 61,36 20,0 62,-9 62,-36l0 -626c0,-160 78,-292 252,-291 100,0 159,55 191,148 30,87 31,185 31,276 0,102 1,211 35,309 51,145 179,223 328,220 133,-3 220,-41 301,-149 109,115 227,147 382,149 192,2 360,-86 447,-265 42,-85 60,-181 60,-276 0,-145 -42,-315 -156,-411 -60,-51 -126,-73 -204,-72 -73,2 -151,26 -208,74 -67,57 -99,148 -102,235 -2,82 21,161 76,221 59,64 147,97 232,94 127,-5 220,-90 241,-172zm-3292 263c0,-120 64,-238 195,-239 131,0 194,119 194,239 -1,119 -65,239 -194,239 -132,0 -195,-117 -195,-239zm3247 -406c0,121 -64,239 -195,239 -131,0 -194,-118 -194,-239 1,-119 65,-239 194,-239 132,1 195,117 195,239z"/>
 </g>
</svg>
