<?xml version="1.0" encoding="UTF-8"?>
<!DOCTYPE svg PUBLIC "-//W3C//DTD SVG 1.1//EN" "http://www.w3.org/Graphics/SVG/1.1/DTD/svg11.dtd">
<!-- Creator: CorelDRAW X8 -->
<svg xmlns="http://www.w3.org/2000/svg" xml:space="preserve" width="2393px" height="1024px" version="1.1" style="shape-rendering:geometricPrecision; text-rendering:geometricPrecision; image-rendering:optimizeQuality; fill-rule:evenodd; clip-rule:evenodd"
viewBox="0 0 2393 1024"
 xmlns:xlink="http://www.w3.org/1999/xlink">
 <defs>
  <style type="text/css">
   <![CDATA[
    .fil0 {fill:#B2B09C;fill-rule:nonzero}
   ]]>
  </style>
 </defs>
 <g id="Layer_x0020_1">
  <metadata id="CorelCorpID_0Corel-Layer"/>
  <path class="fil0" d="M1198 0c-130,-1 -233,54 -301,152 -109,-116 -232,-150 -388,-152 -192,-2 -362,86 -449,265 -37,74 -57,167 -60,262 -4,163 44,331 156,425 60,51 127,73 204,72 74,-1 151,-25 208,-74 67,-57 99,-148 102,-235 2,-82 -21,-161 -76,-221 -59,-64 -147,-97 -232,-94 -105,4 -209,64 -241,171 -6,-97 12,-196 52,-280 62,-128 175,-222 335,-220 192,1 333,111 335,315 1,201 0,402 0,603 0,26 41,35 61,35 19,0 61,-8 61,-35l0 -625c0,-195 117,-292 234,-291 115,1 229,97 230,290l0 626c0,26 42,35 61,35 20,0 62,-9 62,-35l0 -601c0,-249 166,-318 383,-317 87,1 193,17 266,66 45,30 74,71 74,124 -1,83 -59,100 -128,90 -93,-13 -199,-53 -285,2 -59,37 -81,103 -79,172 2,67 34,136 94,168 126,67 231,-15 325,17 43,15 72,46 72,94 0,36 -16,71 -41,96 -46,46 -108,53 -169,52 -57,-2 -123,-8 -176,-32 -25,-11 -64,-11 -86,6 -24,17 -13,39 10,49 76,34 167,49 250,48 84,0 190,-18 258,-69 44,-33 73,-81 73,-150 0,-102 -70,-181 -170,-186 -87,-4 -166,37 -256,10 -46,-14 -76,-54 -78,-103 -2,-54 29,-97 80,-109 60,-15 126,7 186,16 111,16 225,-16 229,-152 3,-106 -66,-175 -155,-218 -88,-42 -203,-62 -300,-62 -163,1 -310,34 -429,153 -80,-113 -176,-152 -302,-153zm-1032 715c0,-120 64,-238 195,-239 131,0 194,119 194,239 -1,120 -65,239 -194,239 -132,0 -195,-117 -195,-239z"/>
 </g>
</svg>
