<?xml version="1.0" encoding="UTF-8"?>
<!DOCTYPE svg PUBLIC "-//W3C//DTD SVG 1.1//EN" "http://www.w3.org/Graphics/SVG/1.1/DTD/svg11.dtd">
<!-- Creator: CorelDRAW X8 -->
<svg xmlns="http://www.w3.org/2000/svg" xml:space="preserve" width="1681px" height="825px" version="1.1" style="shape-rendering:geometricPrecision; text-rendering:geometricPrecision; image-rendering:optimizeQuality; fill-rule:evenodd; clip-rule:evenodd"
viewBox="0 0 1681 825"
 xmlns:xlink="http://www.w3.org/1999/xlink">
 <defs>
  <style type="text/css">
   <![CDATA[
    .fil0 {fill:#2B2A29;fill-rule:nonzero}
   ]]>
  </style>
 </defs>
 <g id="Layer_x0020_1">
  <metadata id="CorelCorpID_0Corel-Layer"/>
  <path class="fil0" d="M907 77c-45,-52 -105,-77 -174,-77 -69,0 -137,26 -182,79 -59,-59 -154,-78 -237,-78 -118,0 -224,49 -278,155 -24,46 -36,100 -36,160 0,91 29,185 96,239 39,31 83,44 133,43 51,0 99,-17 134,-45 45,-36 63,-91 63,-146 0,-48 -16,-90 -46,-121 -34,-35 -87,-57 -143,-57 -58,0 -107,23 -140,69 0,-42 11,-85 30,-122 35,-70 100,-122 187,-122 112,0 193,61 193,175l0 343c0,15 22,26 48,26 27,0 50,-11 50,-26l0 -358c0,-77 36,-160 128,-160 89,0 127,85 127,160l0 358c0,14 21,26 48,26 27,0 49,-12 49,-26l0 -358c0,-101 74,-161 174,-161 57,0 118,20 162,58 -77,9 -148,43 -195,104 -36,45 -54,104 -54,162 0,49 13,96 39,134 40,59 106,87 178,87 71,0 139,-29 180,-95 32,-51 44,-111 44,-170 0,-46 -8,-90 -24,-132 88,62 122,169 122,271 0,143 -78,300 -246,300 -49,0 -102,-14 -141,-44 -10,-8 -26,-11 -40,-11 -10,0 -21,2 -28,5 -12,4 -21,13 -21,22 0,5 3,10 9,14 60,47 139,67 214,67 226,0 351,-149 351,-357 0,-169 -91,-317 -272,-352 -63,-73 -152,-116 -278,-116 -74,0 -171,23 -224,77zm354 468c-38,-1 -67,-24 -87,-53 -21,-31 -33,-72 -33,-115 0,-51 16,-101 47,-142 36,-46 89,-73 150,-73 35,50 49,110 49,170 0,53 -10,108 -39,154 -24,39 -54,59 -87,59zm-1032 0c-73,0 -105,-68 -105,-130 0,-87 52,-130 105,-130 53,0 104,43 104,130 0,87 -53,130 -104,130z"/>
 </g>
</svg>
