<?xml version="1.0" encoding="UTF-8"?>
<!DOCTYPE svg PUBLIC "-//W3C//DTD SVG 1.1//EN" "http://www.w3.org/Graphics/SVG/1.1/DTD/svg11.dtd">
<!-- Creator: CorelDRAW X8 -->
<svg xmlns="http://www.w3.org/2000/svg" xml:space="preserve" width="1681px" height="825px" version="1.1" style="shape-rendering:geometricPrecision; text-rendering:geometricPrecision; image-rendering:optimizeQuality; fill-rule:evenodd; clip-rule:evenodd"
viewBox="0 0 1681 825"
 xmlns:xlink="http://www.w3.org/1999/xlink">
 <defs>
  <style type="text/css">
   <![CDATA[
    .fil0 {fill:#CC9933;fill-rule:nonzero}
   ]]>
  </style>
 </defs>
 <g id="Layer_x0020_1">
  <metadata id="CorelCorpID_0Corel-Layer"/>
  <path class="fil0" d="M957 571c0,15 -22,27 -49,27 -26,0 -48,-12 -48,-27l0 -356c0,-77 -38,-161 -127,-161 -91,0 -129,84 -129,160l0 358c0,14 -21,26 -48,26 -27,0 -49,-12 -49,-26l0 -344c0,-115 -83,-175 -193,-174 -86,0 -152,52 -187,122 -19,37 -30,80 -30,122 31,-44 78,-67 132,-69 59,-2 115,20 151,57 32,33 48,77 47,129 -2,52 -22,105 -64,138 -35,28 -83,45 -134,45 -50,1 -95,-13 -133,-44 -67,-53 -96,-147 -96,-238 0,-60 13,-114 36,-160 50,-95 150,-155 278,-156 84,0 178,19 237,79 45,-53 112,-80 182,-79 66,1 128,24 174,77 52,-53 147,-77 220,-77 125,1 218,42 281,115 186,36 277,191 273,366 -5,196 -129,341 -338,344 -78,1 -165,-19 -227,-66 -6,-5 -9,-11 -9,-16 0,-8 7,-16 21,-22 8,-3 18,-4 28,-4 15,0 30,4 40,11 41,31 96,45 147,44 159,-5 235,-149 240,-287 3,-106 -31,-220 -123,-284 18,43 26,91 25,139 -1,58 -14,116 -44,163 -41,67 -110,96 -181,95 -71,0 -137,-28 -177,-87 -26,-38 -39,-85 -39,-134 0,-57 18,-116 54,-162 47,-61 118,-94 195,-104 -46,-39 -108,-59 -166,-58 -89,2 -170,53 -170,162l0 356zm-833 -156c0,86 51,130 105,130 51,0 104,-43 104,-130 1,-87 -52,-130 -104,-130 -53,0 -105,44 -105,130zm1214 -253c-60,0 -114,27 -150,73 -32,41 -47,92 -47,142 0,43 12,84 33,116 20,29 50,51 87,52 34,0 63,-20 88,-59 26,-42 38,-94 38,-146 1,-63 -13,-125 -49,-178z"/>
 </g>
</svg>
