<?xml version="1.0" encoding="UTF-8"?>
<!DOCTYPE svg PUBLIC "-//W3C//DTD SVG 1.1//EN" "http://www.w3.org/Graphics/SVG/1.1/DTD/svg11.dtd">
<!-- Creator: CorelDRAW X8 -->
<svg xmlns="http://www.w3.org/2000/svg" xml:space="preserve" width="2402px" height="1024px" version="1.1" style="shape-rendering:geometricPrecision; text-rendering:geometricPrecision; image-rendering:optimizeQuality; fill-rule:evenodd; clip-rule:evenodd"
viewBox="0 0 2402 1024"
 xmlns:xlink="http://www.w3.org/1999/xlink">
 <defs>
  <style type="text/css">
   <![CDATA[
    .fil0 {fill:#B2B09C;fill-rule:nonzero}
   ]]>
  </style>
 </defs>
 <g id="Layer_x0020_1">
  <metadata id="CorelCorpID_0Corel-Layer"/>
  <path class="fil0" d="M1760 929c130,-90 242,-216 298,-365 23,-64 37,-133 36,-205 -1,-152 -71,-254 -170,-292 87,9 171,25 248,96 69,63 107,155 107,263l0 503 -519 0zm-1251 -929c-192,-2 -362,86 -449,265 -37,74 -57,167 -60,262 -4,162 44,331 156,425 60,51 127,73 204,72 74,-1 151,-26 208,-74 67,-57 99,-148 102,-235 2,-82 -21,-161 -76,-221 -59,-64 -147,-97 -232,-94 -106,4 -209,63 -241,171 -6,-97 12,-196 52,-280 61,-128 175,-222 334,-220 193,1 334,111 335,314 2,201 0,403 0,604 0,26 42,35 61,35 20,0 62,-9 62,-35l0 -626c0,-195 116,-291 233,-291 115,1 231,97 231,290l0 603c0,26 42,35 62,35l850 0c19,0 61,-9 61,-35l0 -539c0,-116 -40,-221 -126,-300 -97,-90 -231,-126 -360,-126 -151,0 -310,51 -405,174 -68,-118 -173,-172 -314,-174 -129,-1 -235,56 -300,152 -109,-116 -232,-150 -388,-152zm-343 715c0,-120 64,-238 195,-239 131,0 194,119 193,239 0,119 -64,239 -193,239 -132,-1 -195,-117 -195,-239zm1492 -551c38,-35 85,-56 136,-56 131,0 180,138 179,253 -1,70 -13,135 -36,194 -65,172 -212,300 -385,374l0 -503c0,-100 32,-194 106,-262z"/>
 </g>
</svg>
