<?xml version="1.0" encoding="UTF-8"?>
<!DOCTYPE svg PUBLIC "-//W3C//DTD SVG 1.1//EN" "http://www.w3.org/Graphics/SVG/1.1/DTD/svg11.dtd">
<!-- Creator: CorelDRAW X8 -->
<svg xmlns="http://www.w3.org/2000/svg" xml:space="preserve" width="3592px" height="1486px" version="1.1" style="shape-rendering:geometricPrecision; text-rendering:geometricPrecision; image-rendering:optimizeQuality; fill-rule:evenodd; clip-rule:evenodd"
viewBox="0 0 3592 1486"
 xmlns:xlink="http://www.w3.org/1999/xlink">
 <defs>
  <style type="text/css">
   <![CDATA[
    .fil0 {fill:#B2B09C;fill-rule:nonzero}
   ]]>
  </style>
 </defs>
 <g id="Layer_x0020_1">
  <metadata id="CorelCorpID_0Corel-Layer"/>
  <path class="fil0" d="M3458 449c2,100 -8,186 -51,277 -66,135 -185,229 -336,228 -190,-2 -334,-114 -334,-316l-1 -603c0,-26 -42,-35 -61,-35 -20,0 -62,9 -62,35l1 627c0,150 -57,289 -223,292 -100,2 -178,-72 -209,-163 -33,-93 -33,-198 -34,-296 0,-107 -1,-219 -45,-318 -57,-129 -164,-177 -298,-177 -133,0 -231,49 -316,150 -62,-93 -163,-149 -292,-150 -129,-1 -234,54 -300,152 -109,-116 -232,-150 -388,-152 -192,-2 -362,86 -449,265 -37,74 -57,167 -60,262 -4,162 44,331 156,425 60,50 127,73 204,72 74,-1 151,-26 208,-74 67,-57 99,-148 102,-235 2,-82 -21,-161 -76,-222 -59,-63 -147,-96 -232,-93 -106,4 -209,63 -241,171 -6,-97 12,-196 52,-280 61,-128 175,-222 334,-221 193,2 334,112 335,315 2,201 0,403 0,604 0,26 42,35 62,35 19,0 61,-9 61,-35l0 -626c0,-195 117,-292 234,-291 115,1 230,97 230,290l0 626c0,27 41,35 61,35 20,0 61,-8 61,-35l0 -626c0,-160 78,-292 253,-291 100,0 159,55 191,148 30,87 31,184 31,276 0,102 1,212 35,310 52,146 181,222 328,219 133,-3 221,-41 301,-149 109,115 228,147 382,149 157,1 298,-64 392,-183 -49,196 -159,375 -327,481 -34,20 -69,38 -107,53 8,-17 12,-33 12,-49 1,-33 -15,-64 -47,-89 -39,-31 -95,-50 -136,-60 -60,-14 -121,-19 -182,-19 -65,0 -136,5 -199,22 -64,17 -171,60 -171,141 0,79 103,124 166,141 66,18 138,24 206,24 59,0 118,-3 176,-10 61,-7 123,-19 181,-37 52,-17 102,-38 148,-66 148,-89 265,-208 335,-370 25,-60 44,-123 56,-191 12,-68 17,-139 17,-215 0,-74 -8,-159 -24,-242 -21,-108 -63,-215 -145,-284 -61,-50 -126,-72 -204,-71 -73,2 -152,26 -208,74 -68,56 -100,146 -102,233 -3,81 20,160 76,220 59,63 146,95 232,92 127,-4 220,-88 241,-170zm-3292 266c0,-121 64,-239 195,-239 131,0 194,119 193,239 0,119 -64,239 -193,238 -132,0 -195,-116 -195,-238zm2511 505c53,0 109,5 160,20 35,11 96,37 96,81 1,45 -63,72 -98,82 -50,15 -105,20 -158,20 -60,0 -132,-6 -188,-28 -30,-12 -74,-37 -73,-74 0,-37 44,-61 74,-73 56,-22 128,-28 187,-28zm735 -913c0,119 -64,237 -194,237 -131,0 -194,-117 -194,-237 0,-119 64,-237 194,-237 132,0 195,116 194,237z"/>
 </g>
</svg>
