<?xml version="1.0" encoding="UTF-8"?>
<!DOCTYPE svg PUBLIC "-//W3C//DTD SVG 1.1//EN" "http://www.w3.org/Graphics/SVG/1.1/DTD/svg11.dtd">
<!-- Creator: CorelDRAW X8 -->
<svg xmlns="http://www.w3.org/2000/svg" xml:space="preserve" width="1486px" height="600px" version="1.1" style="shape-rendering:geometricPrecision; text-rendering:geometricPrecision; image-rendering:optimizeQuality; fill-rule:evenodd; clip-rule:evenodd"
viewBox="0 0 1484 599"
 xmlns:xlink="http://www.w3.org/1999/xlink">
 <defs>
  <style type="text/css">
   <![CDATA[
    .fil0 {fill:#CC9933;fill-rule:nonzero}
   ]]>
  </style>
 </defs>
 <g id="Layer_x0020_1">
  <metadata id="CorelCorpID_0Corel-Layer"/>
  <path class="fil0" d="M957 572c0,15 -22,27 -49,27 -27,0 -49,-12 -49,-27l0 -357c0,-76 -37,-161 -127,-161 -91,0 -128,84 -128,161l0 358c0,14 -22,26 -49,26 -27,0 -48,-12 -48,-26l0 -344c0,-116 -83,-176 -193,-175 -87,0 -152,52 -187,122 -19,38 -30,80 -30,123 31,-44 78,-68 132,-70 58,-2 114,20 150,57 32,33 49,78 48,130 -2,52 -22,105 -64,138 -35,28 -83,45 -134,45 -50,1 -95,-13 -133,-44 -67,-53 -96,-148 -96,-239 0,-59 13,-114 36,-160 49,-95 150,-155 278,-156 84,0 177,19 237,79 45,-53 111,-80 181,-79 66,1 129,24 175,77 52,-53 146,-77 219,-77 130,1 226,46 289,124 50,62 71,138 69,217 0,57 -14,116 -43,163 -42,67 -110,96 -182,95 -71,0 -136,-28 -177,-87 -25,-38 -39,-85 -39,-134 0,-58 19,-117 55,-163 47,-61 118,-94 194,-104 -45,-39 -107,-59 -166,-58 -89,2 -169,53 -169,162l0 357zm-833 -156c0,86 51,130 105,130 50,0 104,-43 104,-130 0,-87 -52,-130 -104,-130 -53,0 -105,43 -105,130zm1213 -254c-60,0 -114,27 -150,74 -31,41 -46,91 -46,142 0,43 11,84 33,116 20,29 49,51 86,52 34,0 64,-20 88,-59 26,-42 38,-95 39,-146 1,-63 -13,-126 -50,-179z"/>
 </g>
</svg>
