<?xml version="1.0" encoding="UTF-8"?>
<!DOCTYPE svg PUBLIC "-//W3C//DTD SVG 1.1//EN" "http://www.w3.org/Graphics/SVG/1.1/DTD/svg11.dtd">
<!-- Creator: CorelDRAW X8 -->
<svg xmlns="http://www.w3.org/2000/svg" xml:space="preserve" width="3465px" height="1486px" version="1.1" style="shape-rendering:geometricPrecision; text-rendering:geometricPrecision; image-rendering:optimizeQuality; fill-rule:evenodd; clip-rule:evenodd"
viewBox="0 0 3465 1486"
 xmlns:xlink="http://www.w3.org/1999/xlink">
 <defs>
  <style type="text/css">
   <![CDATA[
    .fil0 {fill:#CC9933}
   ]]>
  </style>
 </defs>
 <g id="Layer_x0020_1">
  <metadata id="CorelCorpID_0Corel-Layer"/>
  <path class="fil0" d="M3426 329c-37,-140 -120,-261 -252,-320 -13,-6 -28,-9 -44,-9 -16,0 -33,4 -46,14 -9,7 -13,14 -12,21 0,11 10,22 24,28 161,69 228,271 231,437 1,74 -9,151 -36,221 -50,128 -164,234 -303,234 -164,0 -252,-119 -252,-288l0 -632c0,-26 -42,-35 -61,-35 -20,0 -62,9 -62,35l0 633c0,150 -58,282 -223,286 -100,2 -177,-72 -209,-163 -32,-92 -33,-199 -33,-295 0,-107 -1,-219 -45,-318 -57,-130 -165,-177 -299,-177 -132,0 -230,49 -315,150 -64,-95 -163,-149 -292,-150 -129,-2 -235,56 -300,151 -111,-117 -238,-152 -395,-151 -187,2 -357,90 -442,265 -42,85 -60,181 -60,276 0,145 42,315 156,411 59,50 127,72 204,71 74,0 150,-25 207,-74 68,-56 100,-147 102,-234 3,-82 -20,-161 -76,-221 -59,-64 -146,-97 -231,-94 -105,4 -213,68 -242,172 -7,-85 11,-194 52,-279 64,-133 181,-221 330,-222 191,-1 339,104 340,314 2,201 0,403 0,604 0,26 42,35 61,35 20,0 62,-9 62,-35l0 -626c0,-195 116,-291 232,-291 116,0 231,96 231,290l0 626c0,26 42,35 62,35 19,0 61,-9 61,-35l0 -626c0,-160 78,-292 253,-291 100,0 158,54 191,147 30,88 31,185 31,277 0,101 0,212 34,309 50,142 184,219 329,219 125,0 208,-35 289,-132 88,97 185,133 310,133 127,0 272,-63 345,-162 -3,169 -85,360 -230,456 -20,13 -41,25 -64,37 2,-9 3,-18 4,-27 0,-35 -18,-68 -48,-92 -39,-31 -95,-50 -137,-60 -59,-14 -120,-19 -181,-19 -66,0 -136,5 -199,22 -64,17 -171,61 -171,141 -1,79 103,124 166,141 64,17 135,24 201,24 58,-1 117,-5 175,-14 100,-16 210,-46 298,-99 173,-105 260,-279 297,-475 14,-76 20,-155 21,-232 1,-113 -10,-228 -39,-337zm-3260 387c0,-121 64,-239 195,-239 130,0 193,118 193,239 0,119 -64,239 -194,238 -131,0 -194,-117 -194,-238zm2511 504c53,0 109,5 160,20 34,11 96,37 96,81 1,45 -63,72 -98,82 -51,15 -105,20 -158,20 -60,0 -132,-6 -188,-28 -30,-12 -74,-37 -73,-74 0,-37 44,-61 73,-73 56,-22 128,-28 188,-28z"/>
 </g>
</svg>
