<?xml version="1.0" encoding="UTF-8"?>
<!DOCTYPE svg PUBLIC "-//W3C//DTD SVG 1.1//EN" "http://www.w3.org/Graphics/SVG/1.1/DTD/svg11.dtd">
<!-- Creator: CorelDRAW X8 -->
<svg xmlns="http://www.w3.org/2000/svg" xml:space="preserve" width="3465px" height="1486px" version="1.1" style="shape-rendering:geometricPrecision; text-rendering:geometricPrecision; image-rendering:optimizeQuality; fill-rule:evenodd; clip-rule:evenodd"
viewBox="0 0 3465 1486"
 xmlns:xlink="http://www.w3.org/1999/xlink">
 <defs>
  <style type="text/css">
   <![CDATA[
    .fil0 {fill:#00A0E3}
   ]]>
  </style>
 </defs>
 <g id="Layer_x0020_1">
  <metadata id="CorelCorpID_0Corel-Layer"/>
  <path class="fil0" d="M3426 329c-37,-140 -120,-261 -252,-320 -27,-12 -65,-14 -90,5 -23,17 -11,39 12,49 161,69 228,271 231,437 1,74 -9,151 -36,221 -50,128 -164,234 -303,234 -164,0 -252,-119 -252,-288l0 -632c0,-26 -42,-35 -61,-35 -20,0 -62,9 -62,35l0 633c0,150 -58,282 -223,286 -100,2 -177,-72 -209,-163 -32,-92 -33,-199 -33,-295 0,-107 -1,-219 -45,-318 -57,-130 -165,-177 -299,-177 -132,0 -230,49 -315,150 -64,-95 -163,-149 -292,-150 -129,-2 -235,56 -300,151 -109,-116 -232,-150 -388,-152 -192,-2 -362,86 -449,265 -37,74 -57,167 -60,262 -4,162 44,331 156,425 60,50 127,73 204,72 74,-1 150,-26 208,-75 67,-56 99,-147 102,-235 2,-81 -21,-160 -76,-221 -59,-63 -147,-96 -232,-93 -106,4 -209,63 -241,170 -6,-96 12,-195 52,-279 61,-128 175,-222 334,-221 193,2 334,113 335,316 2,201 0,403 0,604 0,26 42,35 61,35 20,0 62,-9 62,-35l0 -626c0,-195 116,-291 232,-291 116,0 231,96 231,290l0 626c0,26 42,35 62,35 19,0 61,-9 61,-35l0 -626c0,-160 78,-292 253,-291 100,0 158,54 191,147 30,88 31,185 31,277 0,101 0,212 34,309 50,142 184,219 329,219 125,0 208,-35 289,-132 88,97 185,133 310,133 127,0 272,-63 345,-162 -3,169 -85,360 -230,456 -20,13 -41,25 -64,37 2,-9 3,-18 4,-27 0,-91 -110,-135 -185,-152 -59,-14 -120,-19 -181,-19 -66,0 -136,5 -199,22 -64,17 -171,61 -171,141 -1,79 103,124 166,141 64,17 135,24 201,24 58,-1 117,-5 175,-14 100,-16 210,-46 298,-99 173,-105 260,-279 297,-475 14,-76 20,-155 21,-232 1,-113 -10,-228 -39,-337zm-3260 386c0,-121 64,-239 195,-239 131,0 194,119 193,239 0,119 -64,239 -193,238 -132,0 -195,-116 -195,-238zm2511 505c53,0 109,5 160,20 34,11 96,37 96,81 1,45 -63,72 -98,82 -51,15 -105,20 -158,20 -60,0 -132,-6 -188,-28 -30,-12 -74,-37 -73,-74 0,-37 44,-61 73,-73 56,-22 128,-28 188,-28z"/>
 </g>
</svg>
