<?xml version="1.0" encoding="UTF-8"?>
<!DOCTYPE svg PUBLIC "-//W3C//DTD SVG 1.1//EN" "http://www.w3.org/Graphics/SVG/1.1/DTD/svg11.dtd">
<!-- Creator: CorelDRAW X8 -->
<svg xmlns="http://www.w3.org/2000/svg" xml:space="preserve" width="1486px" height="600px" version="1.1" style="shape-rendering:geometricPrecision; text-rendering:geometricPrecision; image-rendering:optimizeQuality; fill-rule:evenodd; clip-rule:evenodd"
viewBox="0 0 1486 600"
 xmlns:xlink="http://www.w3.org/1999/xlink">
 <defs>
  <style type="text/css">
   <![CDATA[
    .fil0 {fill:#00A0E3;fill-rule:nonzero}
   ]]>
  </style>
 </defs>
 <g id="Layer_x0020_1">
  <metadata id="CorelCorpID_0Corel-Layer"/>
  <path class="fil0" d="M958 573c0,15 -22,27 -49,27 -27,0 -49,-12 -49,-27l0 -358c0,-76 -37,-161 -127,-161 -91,0 -128,84 -128,161l0 358c0,15 -22,27 -49,27 -27,0 -49,-12 -49,-27l0 -344c0,-116 -82,-176 -193,-175 -86,0 -152,52 -187,122 -19,38 -29,81 -30,123 31,-44 78,-68 132,-70 59,-1 115,20 151,58 32,33 49,77 47,129 -2,52 -22,105 -63,139 -36,28 -84,44 -135,45 -50,0 -94,-13 -133,-44 -67,-54 -96,-148 -96,-239 0,-60 13,-114 36,-160 50,-96 150,-156 278,-157 84,0 178,19 237,79 46,-53 112,-80 182,-79 66,1 129,24 175,77 52,-53 147,-77 219,-77 130,1 227,46 289,124 50,62 71,138 70,217 -1,58 -14,116 -44,163 -41,67 -110,97 -181,96 -71,-1 -137,-28 -177,-87 -26,-38 -40,-86 -40,-135 0,-58 19,-116 55,-163 47,-60 118,-94 195,-103 -46,-40 -108,-60 -167,-59 -89,2 -169,53 -169,162l0 358zm-834 -157c0,86 51,130 105,131 51,0 104,-43 105,-131 0,-87 -53,-130 -105,-130 -52,0 -105,44 -105,130zm1215 -254c-60,0 -114,27 -150,74 -32,41 -47,91 -47,142 0,43 11,84 33,116 20,29 49,52 87,52 33,1 63,-19 88,-59 26,-42 38,-94 38,-146 1,-63 -13,-126 -49,-179z"/>
 </g>
</svg>
