<?xml version="1.0" encoding="UTF-8"?>
<!DOCTYPE svg PUBLIC "-//W3C//DTD SVG 1.1//EN" "http://www.w3.org/Graphics/SVG/1.1/DTD/svg11.dtd">
<!-- Creator: CorelDRAW X8 -->
<svg xmlns="http://www.w3.org/2000/svg" xml:space="preserve" width="3815px" height="1486px" version="1.1" style="shape-rendering:geometricPrecision; text-rendering:geometricPrecision; image-rendering:optimizeQuality; fill-rule:evenodd; clip-rule:evenodd"
viewBox="0 0 3815 1486"
 xmlns:xlink="http://www.w3.org/1999/xlink">
 <defs>
  <style type="text/css">
   <![CDATA[
    .fil0 {fill:#CC9933;fill-rule:nonzero}
   ]]>
  </style>
 </defs>
 <g id="Layer_x0020_1">
  <metadata id="CorelCorpID_0Corel-Layer"/>
  <path class="fil0" d="M3040 891c89,100 180,133 312,133 104,0 203,-32 282,-93 -142,219 -307,313 -554,383 -331,93 -729,104 -1071,102 -429,-2 -1111,20 -1483,-190 -255,-144 -403,-365 -403,-665 -1,-193 82,-393 244,-501 9,-7 14,-15 14,-22 0,-11 -8,-21 -22,-28 -11,-5 -25,-10 -40,-10 -17,0 -34,6 -46,14 -179,121 -274,332 -273,547 1,326 164,559 440,715 416,235 1093,207 1568,210 353,2 750,-11 1093,-101 218,-57 444,-157 579,-348 108,-155 136,-342 135,-528 -1,-199 -84,-414 -276,-500 -13,-6 -28,-9 -44,-9 -17,0 -34,4 -47,14 -9,7 -12,14 -12,21 0,11 10,22 24,28 167,72 233,285 232,456 -1,70 -11,141 -36,207 -50,129 -164,228 -304,228 -173,0 -254,-124 -254,-289l0 -630c0,-26 -42,-35 -61,-35 -20,0 -62,9 -62,35l0 631c0,151 -59,284 -224,288 -100,2 -178,-73 -210,-164 -32,-94 -32,-197 -32,-295 0,-107 -2,-219 -46,-318 -57,-129 -165,-177 -299,-177 -133,0 -231,49 -317,150 -69,-96 -163,-149 -292,-150 -130,-1 -240,58 -302,152 -111,-118 -238,-153 -396,-151 -188,1 -358,89 -443,264 -42,85 -60,181 -60,276 0,145 42,315 156,411 60,50 128,73 205,72 74,-1 150,-25 208,-74 67,-57 100,-148 102,-235 2,-82 -21,-161 -76,-221 -59,-64 -147,-97 -233,-94 -104,4 -213,68 -242,172 -7,-85 11,-193 52,-279 64,-133 182,-221 331,-222 191,-1 340,104 342,315 1,200 0,402 0,603 0,26 41,35 61,35 19,0 61,-9 61,-35l0 -626c0,-194 117,-290 233,-291 116,0 233,96 233,290l0 626c0,27 41,36 61,36 20,0 62,-9 62,-36l0 -626c0,-160 78,-292 253,-291 100,0 159,55 192,148 30,87 31,185 31,276 0,103 0,210 35,308 50,144 184,221 329,221 126,0 209,-36 290,-133zm-2520 -176c0,-120 64,-239 195,-239 132,0 195,118 194,239 0,119 -64,239 -194,239 -132,-1 -195,-117 -195,-239z"/>
 </g>
</svg>
