<?xml version="1.0" encoding="UTF-8"?>
<!DOCTYPE svg PUBLIC "-//W3C//DTD SVG 1.1//EN" "http://www.w3.org/Graphics/SVG/1.1/DTD/svg11.dtd">
<!-- Creator: CorelDRAW X8 -->
<svg xmlns="http://www.w3.org/2000/svg" xml:space="preserve" width="3815px" height="1486px" version="1.1" style="shape-rendering:geometricPrecision; text-rendering:geometricPrecision; image-rendering:optimizeQuality; fill-rule:evenodd; clip-rule:evenodd"
viewBox="0 0 3815 1486"
 xmlns:xlink="http://www.w3.org/1999/xlink">
 <defs>
  <style type="text/css">
   <![CDATA[
    .fil0 {fill:#B2B09C;fill-rule:nonzero}
   ]]>
  </style>
 </defs>
 <g id="Layer_x0020_1">
  <metadata id="CorelCorpID_0Corel-Layer"/>
  <path class="fil0" d="M863 0c-192,-2 -361,86 -449,265 -36,74 -57,167 -59,262 -5,162 44,331 155,425 60,50 127,73 205,72 74,-1 150,-26 207,-74 68,-57 100,-148 102,-235 3,-82 -20,-161 -76,-221 -59,-64 -146,-97 -232,-94 -105,4 -209,63 -241,171 -6,-97 12,-196 53,-280 61,-128 174,-222 334,-221 192,2 335,112 337,316 1,200 0,402 0,603 0,26 41,35 61,35 19,0 61,-9 61,-35l0 -626c0,-194 117,-290 233,-291 116,0 233,96 233,290l0 626c0,27 41,36 61,36 20,0 62,-9 62,-36l0 -626c0,-160 78,-292 253,-291 100,0 159,55 192,148 30,87 31,185 31,276 0,103 0,210 35,308 50,144 184,221 329,221 126,0 209,-36 290,-133 89,100 180,133 312,133 104,0 203,-32 282,-93 -142,219 -307,313 -554,383 -331,93 -729,104 -1071,102 -429,-2 -1111,20 -1483,-190 -255,-144 -403,-365 -403,-665 -1,-193 82,-393 244,-501 23,-16 16,-38 -8,-50 -29,-14 -59,-14 -86,4 -179,121 -274,332 -273,547 1,326 164,559 440,715 416,235 1093,207 1568,210 353,2 750,-11 1093,-101 218,-57 444,-157 579,-348 108,-155 136,-342 135,-528 -1,-199 -84,-414 -276,-500 -27,-12 -66,-14 -91,5 -23,17 -11,39 12,49 167,72 233,285 232,456 -1,70 -11,141 -36,207 -50,129 -164,228 -304,228 -173,0 -254,-124 -254,-289l0 -630c0,-26 -42,-35 -61,-35 -20,0 -62,9 -62,35l0 631c0,151 -59,284 -224,288 -100,2 -178,-73 -210,-164 -32,-94 -32,-197 -32,-295 0,-107 -2,-219 -46,-318 -57,-129 -165,-177 -299,-177 -133,0 -231,49 -317,150 -69,-96 -163,-149 -292,-150 -130,-1 -240,58 -302,152 -109,-116 -233,-150 -390,-152zm-342 715c0,-121 64,-239 194,-239 131,0 194,119 194,239 0,119 -64,239 -194,238 -132,0 -195,-116 -194,-238z"/>
 </g>
</svg>
