<?xml version="1.0" encoding="UTF-8"?>
<!DOCTYPE svg PUBLIC "-//W3C//DTD SVG 1.1//EN" "http://www.w3.org/Graphics/SVG/1.1/DTD/svg11.dtd">
<!-- Creator: CorelDRAW X8 -->
<svg xmlns="http://www.w3.org/2000/svg" xml:space="preserve" width="1505px" height="1024px" version="1.1" style="shape-rendering:geometricPrecision; text-rendering:geometricPrecision; image-rendering:optimizeQuality; fill-rule:evenodd; clip-rule:evenodd"
viewBox="0 0 1505 1024"
 xmlns:xlink="http://www.w3.org/1999/xlink">
 <defs>
  <style type="text/css">
   <![CDATA[
    .fil0 {fill:#B2B09C;fill-rule:nonzero}
   ]]>
  </style>
 </defs>
 <g id="Layer_x0020_1">
  <metadata id="CorelCorpID_0Corel-Layer"/>
  <path class="fil0" d="M306 962c-135,-71 -183,-246 -183,-391 0,-95 20,-193 63,-277 65,-127 196,-224 339,-224 48,0 87,8 133,20 -168,121 -253,302 -253,509 0,85 17,178 57,253 61,113 164,172 289,172 126,0 230,-59 291,-172 41,-76 58,-167 58,-253 -1,-208 -85,-388 -254,-509 46,-14 85,-20 133,-20 144,0 274,95 340,224 43,84 63,183 63,277 1,146 -47,319 -183,391 -23,13 -27,35 -3,50 36,22 75,10 108,-10 145,-90 202,-265 201,-431 -1,-100 -23,-207 -68,-297 -89,-174 -268,-274 -458,-274 -81,0 -151,13 -227,41 -76,-28 -146,-41 -227,-41 -189,0 -368,101 -457,274 -46,91 -68,195 -68,297 0,164 58,342 201,431 33,21 73,32 108,10 24,-15 20,-37 -3,-50zm446 -827c152,109 225,277 225,464 0,79 -15,162 -52,232 -36,68 -94,123 -174,123 -79,0 -135,-55 -171,-122 -37,-69 -52,-155 -52,-233 0,-185 73,-355 224,-464z"/>
 </g>
</svg>
