<?xml version="1.0" encoding="UTF-8"?>
<!DOCTYPE svg PUBLIC "-//W3C//DTD SVG 1.1//EN" "http://www.w3.org/Graphics/SVG/1.1/DTD/svg11.dtd">
<!-- Creator: CorelDRAW X8 -->
<svg xmlns="http://www.w3.org/2000/svg" xml:space="preserve" width="1505px" height="1024px" version="1.1" style="shape-rendering:geometricPrecision; text-rendering:geometricPrecision; image-rendering:optimizeQuality; fill-rule:evenodd; clip-rule:evenodd"
viewBox="0 0 1505 1024"
 xmlns:xlink="http://www.w3.org/1999/xlink">
 <defs>
  <style type="text/css">
   <![CDATA[
    .fil0 {fill:#2B2A29;fill-rule:nonzero}
   ]]>
  </style>
 </defs>
 <g id="Layer_x0020_1">
  <metadata id="CorelCorpID_0Corel-Layer"/>
  <path class="fil0" d="M1238 1024c23,0 46,-9 66,-22 148,-90 201,-266 201,-431 0,-100 -22,-207 -68,-297 -88,-174 -268,-274 -458,-274 -81,0 -151,13 -227,41 -76,-28 -146,-41 -227,-41 -189,0 -369,101 -457,274 -47,91 -68,195 -68,297 0,164 58,342 201,431 20,13 43,22 66,22 14,0 29,-4 42,-12 11,-7 16,-15 16,-24 0,-9 -7,-19 -19,-26 -135,-71 -183,-246 -183,-391 0,-95 20,-193 63,-277 65,-127 196,-224 339,-224 48,0 87,4 133,20 -168,121 -253,302 -253,509 0,85 17,178 57,253 61,113 164,172 289,172 126,0 230,-59 291,-172 41,-76 58,-167 58,-253 -1,-208 -85,-388 -254,-509 46,-14 85,-20 133,-20 144,0 274,95 340,224 43,84 63,183 63,277 0,145 -44,318 -183,391 -12,7 -19,17 -19,26 0,9 5,17 16,24 14,8 28,12 42,12zm-487 -70c-79,0 -135,-52 -171,-122 -36,-70 -52,-159 -52,-233 0,-185 73,-355 224,-464 152,109 225,277 225,464 0,75 -17,164 -53,234 -37,70 -93,121 -173,121z"/>
 </g>
</svg>
