<?xml version="1.0" encoding="UTF-8"?>
<!DOCTYPE svg PUBLIC "-//W3C//DTD SVG 1.1//EN" "http://www.w3.org/Graphics/SVG/1.1/DTD/svg11.dtd">
<!-- Creator: CorelDRAW X8 -->
<svg xmlns="http://www.w3.org/2000/svg" xml:space="preserve" width="932px" height="600px" version="1.1" style="shape-rendering:geometricPrecision; text-rendering:geometricPrecision; image-rendering:optimizeQuality; fill-rule:evenodd; clip-rule:evenodd"
viewBox="0 0 932 600"
 xmlns:xlink="http://www.w3.org/1999/xlink">
 <defs>
  <style type="text/css">
   <![CDATA[
    .fil0 {fill:#00A0E3;fill-rule:nonzero}
   ]]>
  </style>
 </defs>
 <g id="Layer_x0020_1">
  <metadata id="CorelCorpID_0Corel-Layer"/>
  <path class="fil0" d="M205 553c19,10 21,27 2,38 -26,15 -57,9 -82,-6 -89,-52 -125,-155 -125,-251 0,-62 14,-121 42,-172 55,-103 168,-162 287,-162 51,0 97,8 136,22 41,-14 86,-22 137,-22 120,0 232,58 288,162 27,50 42,111 42,172 1,97 -35,198 -124,251 -25,15 -57,22 -83,6 -19,-11 -17,-28 2,-38 79,-39 107,-138 107,-219 0,-54 -13,-110 -38,-157 -37,-70 -111,-124 -194,-124 -21,0 -42,3 -60,8 96,65 145,177 145,289 0,54 -11,105 -35,147 -39,69 -107,103 -187,103 -79,0 -147,-34 -186,-103 -23,-41 -34,-94 -34,-147 -1,-112 49,-224 145,-289 -19,-5 -40,-8 -61,-8 -82,0 -157,56 -193,124 -25,46 -38,100 -38,157 0,80 28,180 107,219zm260 -459c-81,56 -123,161 -123,256 0,48 11,95 31,131 19,34 50,66 92,66 43,0 74,-32 94,-66 20,-36 30,-83 30,-131 0,-96 -41,-199 -124,-256z"/>
 </g>
</svg>
