<?xml version="1.0" encoding="UTF-8"?>
<!DOCTYPE svg PUBLIC "-//W3C//DTD SVG 1.1//EN" "http://www.w3.org/Graphics/SVG/1.1/DTD/svg11.dtd">
<!-- Creator: CorelDRAW X8 -->
<svg xmlns="http://www.w3.org/2000/svg" xml:space="preserve" width="932px" height="600px" version="1.1" style="shape-rendering:geometricPrecision; text-rendering:geometricPrecision; image-rendering:optimizeQuality; fill-rule:evenodd; clip-rule:evenodd"
viewBox="0 0 932 600"
 xmlns:xlink="http://www.w3.org/1999/xlink">
 <defs>
  <style type="text/css">
   <![CDATA[
    .fil0 {fill:#2B2A29;fill-rule:nonzero}
   ]]>
  </style>
 </defs>
 <g id="Layer_x0020_1">
  <metadata id="CorelCorpID_0Corel-Layer"/>
  <path class="fil0" d="M758 600c17,0 35,-6 50,-15 88,-52 124,-152 124,-249 0,-58 -14,-122 -42,-174 -56,-105 -169,-162 -287,-162 -52,0 -97,8 -137,22 -45,-15 -90,-22 -137,-22 -118,0 -232,59 -287,162 -28,51 -42,110 -42,172 0,97 36,199 125,251 15,9 32,15 49,15 11,0 23,-3 33,-9 9,-5 13,-12 13,-18 0,-7 -5,-14 -15,-19 -79,-40 -107,-140 -107,-220 0,-56 13,-111 38,-157 37,-68 111,-124 193,-124 21,0 42,3 61,8 -96,65 -146,177 -146,289 0,53 12,106 35,147 39,69 107,103 186,103 80,0 148,-33 187,-103 26,-45 35,-96 35,-147 0,-112 -49,-224 -145,-290 18,-4 39,-7 61,-7 82,0 156,54 193,124 27,49 38,105 38,159 0,81 -28,178 -107,218 -10,5 -15,12 -15,19 0,6 4,13 13,18 10,6 22,9 33,9zm-293 -53c-42,0 -73,-31 -92,-65 -20,-37 -30,-84 -30,-132 0,-95 41,-199 123,-256 82,57 123,160 123,256 0,48 -10,95 -30,131 -20,34 -51,66 -94,66z"/>
 </g>
</svg>
