<?xml version="1.0" encoding="UTF-8"?>
<!DOCTYPE svg PUBLIC "-//W3C//DTD SVG 1.1//EN" "http://www.w3.org/Graphics/SVG/1.1/DTD/svg11.dtd">
<!-- Creator: CorelDRAW X8 -->
<svg xmlns="http://www.w3.org/2000/svg" xml:space="preserve" width="988px" height="868px" version="1.1" style="shape-rendering:geometricPrecision; text-rendering:geometricPrecision; image-rendering:optimizeQuality; fill-rule:evenodd; clip-rule:evenodd"
viewBox="0 0 988 868"
 xmlns:xlink="http://www.w3.org/1999/xlink">
 <defs>
  <style type="text/css">
   <![CDATA[
    .fil0 {fill:#B2B09C;fill-rule:nonzero}
   ]]>
  </style>
 </defs>
 <g id="Layer_x0020_1">
  <metadata id="CorelCorpID_0Corel-Layer"/>
  <path class="fil0" d="M692 688l-513 0c-54,0 -81,16 -80,51 1,36 28,48 80,48l732 0c27,0 49,18 49,41 0,22 -22,40 -49,40l-732 0c-83,0 -181,-20 -179,-119 2,-72 57,-114 179,-114l516 0c70,0 130,-23 165,-69 19,-26 30,-59 30,-98 0,-62 -38,-129 -108,-131 -16,0 -54,-5 -53,-27 1,-21 36,-26 53,-26 50,0 78,-49 78,-93 0,-45 -27,-85 -67,-108 -40,-22 -93,-30 -140,-30 -36,0 -73,2 -108,10 94,66 142,177 142,288 0,53 -12,105 -35,146 -39,69 -107,103 -187,103 -79,0 -147,-34 -186,-103 -23,-41 -34,-93 -34,-146 -1,-112 49,-225 145,-290 -19,-5 -40,-7 -62,-7 -81,-1 -156,55 -192,123 -25,45 -38,102 -38,158 0,80 28,179 107,219 19,9 21,26 2,37 -26,16 -57,9 -82,-6 -89,-52 -125,-154 -125,-250 0,-62 14,-123 42,-173 55,-103 168,-162 286,-161 46,0 100,7 143,24 58,-19 121,-25 182,-25 69,0 149,11 211,46 56,32 95,85 94,147 0,49 -25,90 -66,116 61,32 96,92 96,159 0,59 -20,105 -53,139 -55,58 -135,81 -243,81zm-227 -593c-81,55 -123,161 -123,256 0,48 11,95 31,131 19,34 50,65 92,65 42,0 74,-32 93,-66 21,-36 31,-82 31,-130 0,-96 -41,-200 -124,-256z"/>
 </g>
</svg>
