<?xml version="1.0" encoding="UTF-8"?>
<!DOCTYPE svg PUBLIC "-//W3C//DTD SVG 1.1//EN" "http://www.w3.org/Graphics/SVG/1.1/DTD/svg11.dtd">
<!-- Creator: CorelDRAW X8 -->
<svg xmlns="http://www.w3.org/2000/svg" xml:space="preserve" width="2355px" height="1486px" version="1.1" style="shape-rendering:geometricPrecision; text-rendering:geometricPrecision; image-rendering:optimizeQuality; fill-rule:evenodd; clip-rule:evenodd"
viewBox="0 0 2355 1486"
 xmlns:xlink="http://www.w3.org/1999/xlink">
 <defs>
  <style type="text/css">
   <![CDATA[
    .fil0 {fill:#669933;fill-rule:nonzero}
   ]]>
  </style>
 </defs>
 <g id="Layer_x0020_1">
  <metadata id="CorelCorpID_0Corel-Layer"/>
  <path class="fil0" d="M1696 1225c-76,0 -137,10 -177,25 -43,17 -65,40 -65,63 0,23 21,46 65,63 39,16 100,26 177,26 63,0 110,-7 148,-18 59,-17 88,-44 88,-71 0,-27 -29,-53 -86,-70 -38,-11 -87,-18 -150,-18zm-400 -247l0 -587c0,-182 -118,-299 -297,-300 -33,0 -67,4 -101,12 109,74 186,197 219,323 15,56 22,114 22,171 1,92 -19,180 -58,250 -65,119 -178,177 -310,177 -131,0 -243,-58 -308,-176 -38,-70 -58,-160 -58,-251 0,-58 8,-115 23,-171 34,-130 108,-245 218,-323 -31,-8 -65,-12 -101,-12 -135,-1 -259,94 -320,211 -41,78 -62,171 -62,268 0,137 46,307 176,374 33,18 35,46 4,65 -43,26 -95,15 -136,-10 -147,-89 -207,-265 -207,-429 0,-106 24,-207 69,-294 92,-176 280,-277 476,-276 74,0 157,12 227,38 76,-26 147,-38 227,-38 143,0 284,29 383,140 93,-115 294,-139 433,-140 94,0 225,12 325,61 88,43 152,116 149,225 -4,144 -135,175 -253,158 -51,-7 -122,-28 -174,-16 -47,12 -69,54 -67,96 1,40 24,79 67,91 62,19 123,0 185,-6 72,-8 135,14 187,53 88,69 125,189 121,304 -8,235 -144,387 -315,461 -93,41 -223,60 -347,59 -76,0 -149,-9 -210,-25 -119,-32 -178,-90 -178,-148 1,-59 61,-118 183,-149 55,-15 127,-23 208,-23 74,0 136,7 189,19 75,18 193,64 195,150 93,-64 147,-230 142,-357 -4,-76 -25,-145 -67,-188 -29,-30 -67,-50 -107,-52 -110,-6 -181,45 -299,-16 -64,-33 -98,-103 -100,-173 -3,-79 28,-140 84,-175 96,-60 203,-20 305,-5 52,7 94,-3 101,-58 8,-61 -22,-111 -73,-143 -69,-44 -165,-51 -245,-51 -201,-1 -362,63 -362,294l0 592c0,25 -36,46 -81,46 -45,0 -82,-21 -82,-46zm-524 -817c-94,66 -154,169 -183,278 -14,53 -21,106 -21,158 0,82 17,163 51,225 31,57 82,111 152,111 71,0 123,-54 155,-112 34,-63 51,-141 51,-224 0,-52 -7,-105 -21,-158 -29,-109 -90,-212 -184,-278z"/>
 </g>
</svg>
