<?xml version="1.0" encoding="UTF-8"?>
<!DOCTYPE svg PUBLIC "-//W3C//DTD SVG 1.1//EN" "http://www.w3.org/Graphics/SVG/1.1/DTD/svg11.dtd">
<!-- Creator: CorelDRAW X8 -->
<svg xmlns="http://www.w3.org/2000/svg" xml:space="preserve" width="988px" height="868px" version="1.1" style="shape-rendering:geometricPrecision; text-rendering:geometricPrecision; image-rendering:optimizeQuality; fill-rule:evenodd; clip-rule:evenodd"
viewBox="0 0 988 868"
 xmlns:xlink="http://www.w3.org/1999/xlink">
 <defs>
  <style type="text/css">
   <![CDATA[
    .fil0 {fill:#2B2A29;fill-rule:nonzero}
   ]]>
  </style>
 </defs>
 <g id="Layer_x0020_1">
  <metadata id="CorelCorpID_0Corel-Layer"/>
  <path class="fil0" d="M910 868c27,0 49,-18 49,-40 0,-23 -22,-41 -49,-41l-732 0c-39,0 -78,-4 -78,-50 0,-33 26,-48 78,-48l515 0c106,0 187,-24 243,-82 32,-34 52,-80 52,-139 0,-67 -34,-127 -96,-159 41,-26 67,-68 67,-117 0,-62 -40,-115 -95,-146 -62,-35 -142,-46 -211,-46 -61,0 -124,5 -182,25 -44,-18 -96,-24 -144,-24 -117,0 -230,58 -285,161 -28,50 -42,110 -42,171 0,96 36,199 125,251 14,9 31,14 48,14 11,0 23,-2 34,-9 9,-5 13,-11 13,-18 0,-7 -5,-14 -16,-19 -78,-40 -106,-138 -106,-219 0,-56 13,-111 38,-157 36,-67 111,-122 191,-122 21,0 42,2 62,7 -95,65 -145,177 -145,288 0,53 12,106 35,147 39,69 107,103 186,103 79,-1 147,-34 187,-104 23,-41 35,-93 35,-146 0,-110 -48,-220 -142,-285 35,-9 72,-11 108,-11 47,0 100,7 140,30 40,22 67,63 67,108 0,44 -27,93 -78,93 -17,0 -53,5 -53,27 0,21 36,26 53,26 38,1 67,21 85,49 15,24 24,54 23,82 0,40 -11,72 -30,99 -35,46 -96,69 -166,69l-516 0c-81,0 -178,19 -178,116 0,96 97,116 178,116l732 0zm-445 -322c-42,0 -73,-32 -92,-66 -20,-36 -31,-83 -31,-131 0,-95 41,-199 123,-254 83,56 124,158 124,254 0,48 -10,94 -31,130 -19,34 -50,67 -93,67z"/>
 </g>
</svg>
