<?xml version="1.0" encoding="UTF-8"?>
<!DOCTYPE svg PUBLIC "-//W3C//DTD SVG 1.1//EN" "http://www.w3.org/Graphics/SVG/1.1/DTD/svg11.dtd">
<!-- Creator: CorelDRAW X8 -->
<svg xmlns="http://www.w3.org/2000/svg" xml:space="preserve" width="1553px" height="1486px" version="1.1" style="shape-rendering:geometricPrecision; text-rendering:geometricPrecision; image-rendering:optimizeQuality; fill-rule:evenodd; clip-rule:evenodd"
viewBox="0 0 1553 1486"
 xmlns:xlink="http://www.w3.org/1999/xlink">
 <defs>
  <style type="text/css">
   <![CDATA[
    .fil0 {fill:#B2B09C;fill-rule:nonzero}
   ]]>
  </style>
 </defs>
 <g id="Layer_x0020_1">
  <metadata id="CorelCorpID_0Corel-Layer"/>
  <path class="fil0" d="M752 1220c53,0 108,5 159,20 35,11 96,37 97,81 0,45 -63,72 -99,82 -50,15 -105,20 -157,20 -60,0 -133,-6 -189,-28 -29,-12 -74,-37 -73,-74 1,-37 44,-61 74,-73 56,-22 128,-28 188,-28zm-446 -258c-135,-71 -183,-244 -183,-388 0,-94 20,-198 63,-282 65,-126 196,-223 339,-222 48,0 87,8 133,19 -168,120 -253,307 -253,512 0,85 17,177 57,252 61,112 164,170 289,170 126,0 230,-58 291,-171 41,-75 58,-165 58,-251 -1,-206 -85,-392 -254,-512 46,-14 85,-19 133,-19 148,-1 274,94 352,216 74,113 100,248 100,382 -1,149 -33,303 -105,435 -53,96 -119,170 -212,228 1,-6 2,-12 1,-18 -1,-19 -9,-38 -25,-56 -38,-44 -109,-69 -157,-80 -60,-14 -121,-19 -181,-19 -66,0 -136,5 -200,22 -64,17 -171,61 -171,141 0,79 104,124 166,141 64,17 138,25 204,24 60,-1 121,-7 180,-19 196,-40 348,-143 465,-307 103,-144 154,-322 157,-498 2,-141 -30,-281 -103,-401 -101,-165 -281,-261 -471,-261 -81,0 -151,13 -227,41 -76,-28 -146,-41 -227,-41 -189,0 -368,101 -457,272 -46,91 -68,200 -68,302 0,163 58,340 201,428 33,20 73,31 108,10 24,-15 20,-37 -3,-50zm446 -828c152,108 225,282 225,467 0,79 -15,162 -52,231 -36,67 -94,122 -174,122 -79,0 -135,-54 -171,-121 -37,-69 -52,-154 -52,-232 0,-183 73,-359 224,-467z"/>
 </g>
</svg>
