<?xml version="1.0" encoding="UTF-8"?>
<!DOCTYPE svg PUBLIC "-//W3C//DTD SVG 1.1//EN" "http://www.w3.org/Graphics/SVG/1.1/DTD/svg11.dtd">
<!-- Creator: CorelDRAW X8 -->
<svg xmlns="http://www.w3.org/2000/svg" xml:space="preserve" width="1553px" height="1486px" version="1.1" style="shape-rendering:geometricPrecision; text-rendering:geometricPrecision; image-rendering:optimizeQuality; fill-rule:evenodd; clip-rule:evenodd"
viewBox="0 0 1553 1486"
 xmlns:xlink="http://www.w3.org/1999/xlink">
 <defs>
  <style type="text/css">
   <![CDATA[
    .fil0 {fill:#00A0E3;fill-rule:nonzero}
   ]]>
  </style>
 </defs>
 <g id="Layer_x0020_1">
  <metadata id="CorelCorpID_0Corel-Layer"/>
  <path class="fil0" d="M747 1429c-66,0 -144,-5 -205,-33 -42,-19 -74,-51 -72,-101 2,-60 72,-83 121,-83 66,0 106,42 106,109 1,24 32,30 51,30 19,0 51,-6 51,-30 0,-67 40,-109 107,-109 49,0 119,23 121,83 2,50 -30,82 -72,101 -62,28 -141,33 -208,33zm-441 -467c-135,-71 -183,-244 -183,-388 0,-94 20,-198 63,-282 65,-126 196,-223 339,-222 48,0 87,8 133,19 -168,120 -253,307 -253,512 0,85 17,177 57,252 61,112 164,170 289,170 126,0 230,-58 291,-171 41,-75 58,-165 57,-251 0,-206 -84,-392 -253,-512 46,-14 84,-19 133,-19 148,-1 274,94 352,216 74,113 100,248 100,382 -1,149 -33,305 -106,437 -50,89 -118,167 -209,225 2,-11 2,-23 2,-33 -2,-41 -23,-76 -66,-103 -40,-26 -98,-36 -145,-36 -63,0 -107,13 -159,47 -51,-34 -96,-47 -158,-47 -47,0 -105,10 -145,36 -36,23 -63,57 -64,102 -1,74 71,132 134,155 71,26 157,35 232,35 76,-1 153,-9 227,-29 175,-47 316,-149 422,-297 103,-144 154,-321 157,-498 2,-141 -30,-281 -103,-401 -102,-165 -281,-261 -471,-261 -81,0 -151,13 -227,41 -76,-28 -147,-41 -227,-41 -189,0 -368,101 -457,272 -46,91 -68,200 -68,302 0,163 58,339 201,428 33,20 72,31 108,10 24,-15 20,-37 -3,-50zm446 -828c152,108 225,282 225,467 0,79 -15,162 -52,231 -36,67 -94,122 -174,122 -79,0 -135,-54 -171,-121 -37,-69 -52,-154 -52,-232 0,-183 73,-359 224,-467z"/>
 </g>
</svg>
