<?xml version="1.0" encoding="UTF-8"?>
<!DOCTYPE svg PUBLIC "-//W3C//DTD SVG 1.1//EN" "http://www.w3.org/Graphics/SVG/1.1/DTD/svg11.dtd">
<!-- Creator: CorelDRAW X8 -->
<svg xmlns="http://www.w3.org/2000/svg" xml:space="preserve" width="2654px" height="1486px" version="1.1" style="shape-rendering:geometricPrecision; text-rendering:geometricPrecision; image-rendering:optimizeQuality; fill-rule:evenodd; clip-rule:evenodd"
viewBox="0 0 2654 1486"
 xmlns:xlink="http://www.w3.org/1999/xlink">
 <defs>
  <style type="text/css">
   <![CDATA[
    .fil0 {fill:#2B2A29;fill-rule:nonzero}
   ]]>
  </style>
 </defs>
 <g id="Layer_x0020_1">
  <metadata id="CorelCorpID_0Corel-Layer"/>
  <path class="fil0" d="M1862 1486c88,-1 184,-11 275,-34 72,-17 140,-42 199,-78 174,-105 261,-280 297,-476 15,-81 21,-164 21,-246 0,-121 -13,-266 -59,-377 -50,-119 -135,-217 -254,-264 -16,-7 -33,-11 -49,-11 -17,0 -33,5 -47,17 -7,6 -10,12 -10,18 0,13 12,24 27,30 185,68 259,284 257,465 -1,175 -85,424 -291,424 -214,0 -221,-264 -221,-424 0,-103 0,-213 -35,-311 -50,-142 -178,-219 -323,-219 -130,0 -219,37 -300,141 -107,-113 -226,-141 -378,-141 -82,-1 -142,13 -219,41 -76,-30 -149,-41 -230,-41 -188,0 -366,101 -454,272 -47,90 -68,201 -68,302 0,163 58,340 201,428 20,12 44,21 67,21 14,0 28,-3 41,-11 11,-7 16,-15 16,-24 0,-9 -7,-19 -19,-25 -135,-71 -183,-245 -183,-389 0,-94 19,-198 63,-282 64,-125 195,-222 337,-222 48,0 89,7 135,19 -167,119 -253,305 -253,513 0,85 17,176 57,251 60,112 164,171 289,171 126,0 230,-58 291,-171 41,-76 58,-166 58,-251 0,-206 -86,-398 -255,-513 43,-12 82,-19 126,-19 197,0 325,115 325,316l0 603c0,26 42,35 62,35 19,0 61,-9 61,-35l0 -633c0,-151 59,-286 230,-286 96,0 172,74 203,163 33,94 32,198 32,297 0,253 43,494 344,494 116,0 216,-41 292,-129 -11,165 -89,329 -229,423 -23,15 -48,30 -75,45 10,-21 15,-44 15,-67 0,-45 -28,-79 -64,-102 -41,-26 -99,-36 -146,-36 -62,0 -107,13 -158,47 -52,-34 -96,-47 -158,-47 -47,0 -106,10 -146,36 -37,24 -63,59 -63,104 0,73 70,131 134,154 72,26 157,35 232,34zm-1111 -532c-79,0 -135,-52 -171,-122 -36,-69 -52,-156 -52,-230 0,-186 74,-361 224,-468 151,108 225,281 225,468 0,74 -17,162 -53,231 -37,70 -93,121 -173,121zm1111 475c-66,0 -145,-5 -206,-33 -40,-18 -72,-49 -72,-97 0,-62 68,-87 120,-87 67,0 108,41 108,109 0,24 32,30 51,30 18,0 51,-6 51,-30 0,-68 41,-109 107,-109 50,0 121,25 121,85 0,49 -32,80 -73,99 -61,29 -140,33 -207,33z"/>
 </g>
</svg>
