<?xml version="1.0" encoding="UTF-8"?>
<!DOCTYPE svg PUBLIC "-//W3C//DTD SVG 1.1//EN" "http://www.w3.org/Graphics/SVG/1.1/DTD/svg11.dtd">
<!-- Creator: CorelDRAW X8 -->
<svg xmlns="http://www.w3.org/2000/svg" xml:space="preserve" width="961px" height="868px" version="1.1" style="shape-rendering:geometricPrecision; text-rendering:geometricPrecision; image-rendering:optimizeQuality; fill-rule:evenodd; clip-rule:evenodd"
viewBox="0 0 961 868"
 xmlns:xlink="http://www.w3.org/1999/xlink">
 <defs>
  <style type="text/css">
   <![CDATA[
    .fil0 {fill:#2B2A29;fill-rule:nonzero}
   ]]>
  </style>
 </defs>
 <g id="Layer_x0020_1">
  <metadata id="CorelCorpID_0Corel-Layer"/>
  <path class="fil0" d="M465 545c-42,0 -73,-32 -92,-66 -20,-36 -30,-82 -30,-130 0,-96 41,-200 123,-255 82,56 123,159 123,255 0,48 -10,94 -30,130 -20,34 -52,66 -94,66zm401 131c64,-85 95,-185 95,-289 0,-80 -20,-165 -63,-233 -64,-99 -175,-154 -294,-154 -51,0 -98,8 -138,22 -45,-15 -91,-22 -138,-22 -118,0 -231,59 -286,161 -28,51 -42,110 -42,172 0,96 36,199 125,250 14,9 32,15 49,15 11,0 23,-3 33,-9 9,-6 13,-12 13,-18 0,-7 -5,-14 -15,-20 -79,-39 -107,-138 -107,-218 0,-57 13,-111 38,-157 36,-67 111,-123 192,-123 21,0 41,2 62,7 -96,66 -146,177 -146,289 0,53 12,105 35,146 39,69 106,103 186,103 80,0 148,-34 187,-103 26,-45 35,-96 35,-146 0,-112 -49,-223 -145,-289 20,-5 41,-7 62,-7 83,0 156,54 200,120 42,62 59,137 59,214 0,86 -19,176 -62,252 -27,45 -61,86 -104,118 -9,-45 -74,-70 -118,-79 -32,-8 -69,-12 -113,-12 -50,0 -92,5 -126,14 -73,18 -110,52 -110,87 0,34 35,68 107,87 36,9 83,14 129,14 63,0 121,-8 174,-26 88,-29 163,-83 226,-166zm-400 143c-100,0 -146,-26 -146,-52 0,-27 52,-51 146,-51 93,0 142,26 142,51 0,25 -44,52 -142,52z"/>
 </g>
</svg>
