<?xml version="1.0" encoding="UTF-8"?>
<!DOCTYPE svg PUBLIC "-//W3C//DTD SVG 1.1//EN" "http://www.w3.org/Graphics/SVG/1.1/DTD/svg11.dtd">
<!-- Creator: CorelDRAW X8 -->
<svg xmlns="http://www.w3.org/2000/svg" xml:space="preserve" width="2654px" height="1486px" version="1.1" style="shape-rendering:geometricPrecision; text-rendering:geometricPrecision; image-rendering:optimizeQuality; fill-rule:evenodd; clip-rule:evenodd"
viewBox="0 0 2654 1486"
 xmlns:xlink="http://www.w3.org/1999/xlink">
 <defs>
  <style type="text/css">
   <![CDATA[
    .fil0 {fill:#CC9933;fill-rule:nonzero}
   ]]>
  </style>
 </defs>
 <g id="Layer_x0020_1">
  <metadata id="CorelCorpID_0Corel-Layer"/>
  <path class="fil0" d="M1866 1221c53,0 108,4 160,19 34,11 96,37 96,81 0,45 -63,72 -98,82 -48,15 -108,20 -158,20 -60,0 -132,-6 -188,-28 -30,-12 -74,-36 -74,-74 1,-37 45,-61 74,-73 56,-22 128,-27 188,-27zm-570 -835l0 603c0,26 42,35 62,35 19,0 61,-9 61,-35l0 -633c0,-150 58,-283 224,-286 99,-3 177,72 209,163 33,94 32,198 32,297 0,253 43,494 344,494 132,0 196,-41 292,-121 -31,206 -97,374 -297,468 6,-18 9,-35 8,-50 -5,-84 -105,-126 -184,-144 -59,-14 -120,-19 -181,-19 -66,0 -136,6 -200,22 -63,17 -170,61 -170,141 -1,80 103,124 166,141 64,17 135,24 201,24 58,-1 117,-5 175,-14 100,-16 210,-45 298,-98 173,-106 260,-279 297,-476 14,-76 20,-154 21,-232 1,-109 -9,-240 -42,-344 -45,-139 -135,-256 -271,-311 -15,-6 -32,-11 -49,-11 -17,0 -34,5 -47,17 -7,6 -10,12 -10,18 0,13 13,24 27,30 181,67 259,284 257,465 -3,175 -85,424 -291,424 -214,0 -221,-264 -221,-424 0,-103 0,-213 -35,-311 -51,-145 -179,-222 -327,-219 -128,3 -216,38 -296,141 -107,-113 -218,-140 -370,-141 -82,0 -150,13 -227,41 -75,-29 -147,-41 -227,-41 -189,-1 -368,101 -457,272 -46,91 -68,201 -68,302 0,163 58,340 201,428 21,13 44,22 66,22 14,0 28,-4 42,-12 11,-7 16,-15 16,-24 0,-9 -7,-19 -19,-25 -135,-71 -183,-245 -183,-389 0,-94 20,-198 63,-282 65,-126 196,-223 339,-222 48,0 87,7 133,19 -167,119 -253,306 -253,513 0,85 17,176 57,251 61,112 164,171 289,171 126,0 230,-58 291,-171 41,-76 58,-166 58,-251 0,-205 -86,-398 -255,-513 46,-13 87,-20 135,-19 188,1 316,122 316,316zm-544 -252c151,108 225,282 225,468 0,78 -15,161 -52,230 -36,67 -94,122 -174,122 -79,0 -135,-54 -171,-121 -37,-69 -52,-153 -52,-231 0,-185 74,-361 224,-468z"/>
 </g>
</svg>
