<?xml version="1.0" encoding="UTF-8"?>
<!DOCTYPE svg PUBLIC "-//W3C//DTD SVG 1.1//EN" "http://www.w3.org/Graphics/SVG/1.1/DTD/svg11.dtd">
<!-- Creator: CorelDRAW X8 -->
<svg xmlns="http://www.w3.org/2000/svg" xml:space="preserve" width="1169px" height="868px" version="1.1" style="shape-rendering:geometricPrecision; text-rendering:geometricPrecision; image-rendering:optimizeQuality; fill-rule:evenodd; clip-rule:evenodd"
viewBox="0 0 1169 868"
 xmlns:xlink="http://www.w3.org/1999/xlink">
 <defs>
  <style type="text/css">
   <![CDATA[
    .fil0 {fill:#CC9933;fill-rule:nonzero}
   ]]>
  </style>
 </defs>
 <g id="Layer_x0020_1">
  <metadata id="CorelCorpID_0Corel-Layer"/>
  <path class="fil0" d="M419 554c11,5 16,12 16,19 0,6 -4,13 -13,18 -11,6 -22,9 -34,9 -17,0 -34,-6 -49,-14 -88,-52 -125,-155 -125,-251 0,-62 15,-123 42,-174 56,-103 169,-161 288,-161 51,0 97,8 137,22 40,-14 86,-22 137,-22 60,0 118,14 169,42 125,69 182,206 182,341 0,156 -70,301 -206,389 -98,63 -222,95 -356,96 -142,1 -276,-31 -382,-100 -143,-93 -223,-246 -225,-411 -2,-139 54,-274 181,-348 9,-6 21,-9 34,-9 13,0 25,2 35,7 11,5 16,13 16,20 0,6 -5,12 -13,18 -110,64 -155,189 -155,308 1,150 71,296 202,381 86,55 193,82 305,81 125,-1 235,-36 316,-102 101,-81 150,-205 150,-330 -1,-103 -39,-218 -124,-284 -37,-28 -82,-46 -129,-46 -22,0 -42,3 -61,7 97,66 146,179 146,291 0,53 -11,105 -35,146 -39,70 -107,103 -187,103 -80,0 -147,-34 -187,-103 -23,-41 -35,-93 -35,-146 0,-112 50,-225 146,-291 -19,-4 -40,-7 -61,-7 -82,0 -157,55 -194,123 -24,46 -37,103 -37,159 0,80 28,179 106,219zm262 -460c-82,56 -123,162 -123,257 0,48 10,95 30,131 20,34 50,65 93,65 42,0 74,-32 93,-66 21,-36 31,-82 31,-130 0,-96 -41,-201 -124,-257z"/>
 </g>
</svg>
