<?xml version="1.0" encoding="UTF-8"?>
<!DOCTYPE svg PUBLIC "-//W3C//DTD SVG 1.1//EN" "http://www.w3.org/Graphics/SVG/1.1/DTD/svg11.dtd">
<!-- Creator: CorelDRAW X8 -->
<svg xmlns="http://www.w3.org/2000/svg" xml:space="preserve" width="3675px" height="1024px" version="1.1" style="shape-rendering:geometricPrecision; text-rendering:geometricPrecision; image-rendering:optimizeQuality; fill-rule:evenodd; clip-rule:evenodd"
viewBox="0 0 3675 1024"
 xmlns:xlink="http://www.w3.org/1999/xlink">
 <defs>
  <style type="text/css">
   <![CDATA[
    .fil0 {fill:#00A0E3;fill-rule:nonzero}
   ]]>
  </style>
 </defs>
 <g id="Layer_x0020_1">
  <metadata id="CorelCorpID_0Corel-Layer"/>
  <path class="fil0" d="M3614 999c19,0 61,-9 61,-35l0 -568c0,-240 -202,-396 -426,-396 -228,0 -410,147 -410,390l0 539 -376 0c118,-85 176,-238 178,-407 4,-218 -93,-427 -300,-511 -31,-13 -68,-18 -96,6 -22,19 -4,40 18,48 180,68 258,274 256,457 -2,176 -85,407 -290,407 -214,0 -222,-246 -222,-407 0,-104 0,-203 -35,-301 -50,-146 -179,-224 -327,-221 -128,3 -216,38 -296,142 -107,-114 -218,-142 -369,-142 -83,0 -151,13 -228,41 -75,-29 -147,-41 -227,-41 -189,-1 -368,101 -457,274 -46,91 -68,195 -68,297 0,164 58,342 201,431 33,21 73,32 108,10 24,-14 20,-37 -3,-49 -135,-72 -183,-247 -183,-392 0,-95 20,-193 63,-277 65,-127 196,-224 339,-224 48,0 87,8 133,20 -168,121 -253,304 -253,509 0,86 17,178 57,253 61,113 164,172 289,172 126,0 230,-58 291,-172 41,-76 58,-167 58,-253 0,-204 -85,-393 -255,-509 46,-14 87,-20 135,-20 187,2 317,125 317,319l0 600c0,26 42,35 61,35 20,0 62,-9 62,-35l0 -630c0,-151 58,-285 223,-289 100,-2 177,73 209,164 33,95 33,188 33,288 0,255 42,477 344,477l1385 0zm-653 -609c0,-180 103,-320 287,-320 181,0 305,147 304,326l0 533 -591 0 0 -539zm-2209 -255c152,109 225,279 225,464 0,79 -15,163 -52,232 -36,68 -94,123 -174,123 -79,0 -135,-54 -171,-122 -37,-69 -52,-155 -52,-233 0,-184 73,-356 224,-464z"/>
 </g>
</svg>
