<?xml version="1.0" encoding="UTF-8"?>
<!DOCTYPE svg PUBLIC "-//W3C//DTD SVG 1.1//EN" "http://www.w3.org/Graphics/SVG/1.1/DTD/svg11.dtd">
<!-- Creator: CorelDRAW X8 -->
<svg xmlns="http://www.w3.org/2000/svg" xml:space="preserve" width="961px" height="868px" version="1.1" style="shape-rendering:geometricPrecision; text-rendering:geometricPrecision; image-rendering:optimizeQuality; fill-rule:evenodd; clip-rule:evenodd"
viewBox="0 0 961 868"
 xmlns:xlink="http://www.w3.org/1999/xlink">
 <defs>
  <style type="text/css">
   <![CDATA[
    .fil0 {fill:#B2B09C;fill-rule:nonzero}
   ]]>
  </style>
 </defs>
 <g id="Layer_x0020_1">
  <metadata id="CorelCorpID_0Corel-Layer"/>
  <path class="fil0" d="M465 715c-45,0 -82,6 -106,15 -26,10 -39,23 -39,37 -1,13 12,27 39,37 24,9 60,15 106,15 38,0 67,-4 90,-11 35,-10 53,-26 53,-41 0,-16 -18,-31 -52,-41 -23,-7 -52,-11 -91,-11zm-260 -161c19,9 21,26 2,37 -26,15 -58,9 -82,-6 -89,-52 -125,-154 -125,-250 0,-62 14,-123 42,-174 55,-103 168,-161 287,-161 51,0 97,8 137,22 40,-14 85,-22 136,-22 120,0 233,56 296,155 45,69 64,151 63,232 -2,104 -33,206 -95,290 -77,101 -174,158 -288,180 -36,7 -73,10 -113,11 -40,1 -89,-4 -128,-14 -71,-19 -107,-53 -107,-87 0,-35 37,-69 110,-87 34,-9 77,-14 125,-14 46,0 82,5 114,12 43,9 109,34 118,79 43,-32 78,-73 104,-118 42,-74 62,-162 62,-248 1,-78 -16,-155 -59,-218 -45,-66 -117,-120 -202,-120 -21,0 -41,3 -60,7 96,65 145,179 145,291 0,53 -11,105 -35,146 -39,69 -107,103 -187,103 -79,0 -147,-34 -186,-103 -23,-41 -34,-93 -34,-146 -1,-112 49,-226 145,-291 -19,-4 -40,-7 -61,-7 -82,0 -157,55 -193,123 -25,46 -38,103 -38,159 0,80 28,179 107,219zm261 -460c-82,56 -124,162 -124,257 0,48 11,95 31,131 19,34 50,65 92,65 43,0 74,-32 94,-66 20,-36 30,-82 30,-130 0,-96 -41,-201 -123,-257z"/>
 </g>
</svg>
