<?xml version="1.0" encoding="UTF-8"?>
<!DOCTYPE svg PUBLIC "-//W3C//DTD SVG 1.1//EN" "http://www.w3.org/Graphics/SVG/1.1/DTD/svg11.dtd">
<!-- Creator: CorelDRAW X8 -->
<svg xmlns="http://www.w3.org/2000/svg" xml:space="preserve" width="2654px" height="1486px" version="1.1" style="shape-rendering:geometricPrecision; text-rendering:geometricPrecision; image-rendering:optimizeQuality; fill-rule:evenodd; clip-rule:evenodd"
viewBox="0 0 2654 1486"
 xmlns:xlink="http://www.w3.org/1999/xlink">
 <defs>
  <style type="text/css">
   <![CDATA[
    .fil0 {fill:#CC9933}
   ]]>
  </style>
 </defs>
 <g id="Layer_x0020_1">
  <metadata id="CorelCorpID_0Corel-Layer"/>
  <path class="fil0" d="M2633 898c-37,196 -124,370 -297,476 -87,52 -198,82 -298,98 -58,9 -117,13 -175,14 -76,1 -161,-8 -233,-34 -64,-23 -135,-82 -134,-156 0,-44 28,-79 63,-102 40,-26 99,-36 146,-36 62,0 106,13 158,47 51,-34 96,-47 158,-47 47,0 105,10 146,36 35,23 64,57 64,102 0,23 -5,46 -15,67 27,-15 52,-30 75,-45 140,-94 218,-258 229,-423 -76,88 -176,129 -292,129 -301,0 -344,-241 -344,-494 0,-99 1,-203 -32,-297 -32,-91 -110,-165 -209,-163 -166,4 -224,136 -224,286l0 633c0,26 -42,35 -61,35 -20,0 -62,-9 -62,-35l0 -603c0,-196 -126,-315 -316,-316 -48,0 -89,6 -135,19 169,115 255,308 255,513 0,85 -17,175 -58,251 -61,113 -165,171 -291,171 -125,0 -228,-58 -289,-171 -40,-75 -57,-166 -57,-251 0,-208 86,-394 253,-513 -47,-12 -85,-19 -133,-19 -143,-1 -274,96 -339,222 -43,84 -63,188 -63,282 0,144 48,318 183,389 12,7 19,16 19,25 0,9 -5,17 -16,24 -14,8 -28,12 -42,12 -22,0 -45,-9 -66,-22 -143,-88 -201,-265 -201,-428 0,-101 22,-211 68,-302 89,-171 268,-273 457,-272 80,0 152,12 227,41 77,-28 145,-41 227,-41 152,1 263,28 370,141 80,-103 168,-138 296,-141 148,-3 276,75 327,219 35,98 35,208 35,311 0,160 7,424 221,424 206,0 288,-249 291,-424 2,-181 -76,-398 -257,-465 -15,-6 -27,-17 -27,-30 0,-6 3,-12 10,-18 13,-12 30,-17 47,-17 17,0 34,5 49,11 119,48 204,145 254,264 48,115 60,267 59,391 -1,78 -7,156 -21,232zm-1881 -764c151,108 225,281 225,468 0,78 -15,161 -52,230 -36,67 -94,122 -174,122 -79,0 -135,-54 -171,-121 -37,-69 -52,-153 -52,-231 0,-186 74,-361 224,-468zm1110 1295c-66,0 -145,-5 -206,-32 -41,-20 -74,-52 -72,-101 2,-60 71,-83 120,-84 67,0 108,41 108,109 0,24 32,30 51,30 18,0 51,-6 51,-30 0,-68 41,-109 107,-109 50,1 119,24 121,84 1,49 -31,81 -73,101 -61,28 -140,32 -207,32z"/>
 </g>
</svg>
