<?xml version="1.0" encoding="UTF-8"?>
<!DOCTYPE svg PUBLIC "-//W3C//DTD SVG 1.1//EN" "http://www.w3.org/Graphics/SVG/1.1/DTD/svg11.dtd">
<!-- Creator: CorelDRAW X8 -->
<svg xmlns="http://www.w3.org/2000/svg" xml:space="preserve" width="2641px" height="1024px" version="1.1" style="shape-rendering:geometricPrecision; text-rendering:geometricPrecision; image-rendering:optimizeQuality; fill-rule:evenodd; clip-rule:evenodd"
viewBox="0 0 2641 1024"
 xmlns:xlink="http://www.w3.org/1999/xlink">
 <defs>
  <style type="text/css">
   <![CDATA[
    .fil0 {fill:#2B2A29;fill-rule:nonzero}
   ]]>
  </style>
 </defs>
 <g id="Layer_x0020_1">
  <metadata id="CorelCorpID_0Corel-Layer"/>
  <path class="fil0" d="M2228 1024c276,0 413,-232 413,-490 0,-216 -88,-437 -300,-523 -15,-6 -32,-11 -48,-11 -17,0 -34,5 -48,17 -7,6 -10,13 -10,19 0,12 13,23 27,29 185,68 257,288 257,469 0,176 -85,420 -291,420 -214,0 -221,-259 -221,-420 0,-104 0,-215 -35,-313 -50,-143 -180,-221 -325,-221 -130,0 -217,37 -298,141 -107,-113 -218,-141 -370,-141 -82,0 -150,13 -227,41 -76,-29 -149,-41 -230,-41 -188,0 -366,102 -454,274 -47,91 -68,195 -68,297 0,164 58,342 201,431 20,12 44,21 67,21 14,0 28,-3 41,-11 11,-7 16,-15 16,-24 0,-9 -7,-19 -19,-26 -135,-71 -183,-246 -183,-391 0,-95 20,-193 63,-277 65,-127 196,-224 339,-224 48,0 86,5 133,20 -168,121 -253,304 -253,509 0,85 17,178 57,253 61,113 164,172 289,172 126,0 230,-59 291,-173 41,-75 58,-166 58,-252 0,-204 -85,-393 -255,-509 46,-14 87,-21 135,-20 187,1 316,125 316,319l0 599c0,27 42,36 62,36 19,0 61,-9 61,-36l0 -629c0,-148 58,-289 228,-289 97,0 174,74 205,164 34,95 32,200 32,300 0,255 42,490 344,490zm-1477 -70c-79,0 -135,-52 -171,-123 -36,-70 -52,-158 -52,-232 0,-184 73,-356 224,-464 152,109 225,279 225,464 0,74 -16,163 -53,233 -36,70 -93,122 -173,122z"/>
 </g>
</svg>
