<?xml version="1.0" encoding="UTF-8"?>
<!DOCTYPE svg PUBLIC "-//W3C//DTD SVG 1.1//EN" "http://www.w3.org/Graphics/SVG/1.1/DTD/svg11.dtd">
<!-- Creator: CorelDRAW X8 -->
<svg xmlns="http://www.w3.org/2000/svg" xml:space="preserve" width="2809px" height="1486px" version="1.1" style="shape-rendering:geometricPrecision; text-rendering:geometricPrecision; image-rendering:optimizeQuality; fill-rule:evenodd; clip-rule:evenodd"
viewBox="0 0 2809 1486"
 xmlns:xlink="http://www.w3.org/1999/xlink">
 <defs>
  <style type="text/css">
   <![CDATA[
    .fil0 {fill:#CC9933;fill-rule:nonzero}
   ]]>
  </style>
 </defs>
 <g id="Layer_x0020_1">
  <metadata id="CorelCorpID_0Corel-Layer"/>
  <path class="fil0" d="M276 1169l2063 0c141,0 284,-21 385,-130 60,-66 85,-149 85,-238 0,-125 -61,-213 -167,-271 73,-48 117,-114 118,-205 1,-107 -63,-196 -152,-248 -97,-58 -223,-77 -335,-77 -105,0 -201,10 -301,45 -79,-32 -152,-45 -236,-45 -157,0 -274,29 -378,154 -103,-125 -221,-154 -378,-154 -82,0 -150,13 -227,41 -74,-29 -149,-41 -227,-41 -190,-1 -369,100 -457,272 -46,91 -69,201 -69,302 1,163 58,340 202,428 20,12 43,21 66,21 14,1 28,-3 41,-11 11,-7 17,-16 17,-24 -1,-9 -8,-19 -20,-25 -135,-72 -183,-245 -183,-389 0,-94 21,-198 64,-282 65,-126 196,-223 339,-222 48,0 86,7 133,19 -167,119 -253,306 -253,513 0,85 16,176 57,251 60,112 164,171 289,171 126,0 230,-58 291,-171 40,-76 57,-166 57,-251 0,-205 -85,-398 -254,-513 46,-13 87,-20 134,-19 190,1 317,122 317,317l0 601c0,26 41,35 61,35 19,0 61,-9 61,-35l0 -601c1,-196 126,-317 317,-317 48,0 87,7 133,19 -169,120 -254,304 -253,512 0,85 16,176 57,251 60,113 164,170 289,170 126,0 230,-57 291,-170 40,-75 57,-166 57,-251 0,-204 -87,-386 -249,-507 75,-21 136,-24 212,-24 82,0 176,13 247,55 69,41 117,113 117,196 0,89 -56,175 -150,176 -21,0 -66,5 -67,33 -2,30 47,36 68,36 126,3 199,116 198,235 0,63 -15,124 -52,176 -66,93 -183,123 -292,123l-2066 0c-125,0 -273,30 -276,187 -3,163 147,199 276,199l2426 0c32,0 61,-26 61,-59 0,-34 -29,-59 -61,-59l-2426 0c-66,0 -149,-13 -151,-98 -2,-86 86,-101 151,-101zm1686 -1035c151,107 225,282 225,467 0,78 -14,161 -52,230 -36,68 -94,122 -173,122 -79,0 -136,-54 -172,-121 -37,-69 -52,-153 -52,-231 0,-186 73,-359 224,-467zm-1210 0c152,107 225,282 226,468 0,78 -15,161 -53,230 -36,67 -94,122 -173,122 -80,0 -136,-54 -172,-121 -37,-69 -52,-154 -52,-231 0,-185 75,-361 224,-468z"/>
 </g>
</svg>
