<?xml version="1.0" encoding="UTF-8"?>
<!DOCTYPE svg PUBLIC "-//W3C//DTD SVG 1.1//EN" "http://www.w3.org/Graphics/SVG/1.1/DTD/svg11.dtd">
<!-- Creator: CorelDRAW X8 -->
<svg xmlns="http://www.w3.org/2000/svg" xml:space="preserve" width="2715px" height="1024px" version="1.1" style="shape-rendering:geometricPrecision; text-rendering:geometricPrecision; image-rendering:optimizeQuality; fill-rule:evenodd; clip-rule:evenodd"
viewBox="0 0 2715 1024"
 xmlns:xlink="http://www.w3.org/1999/xlink">
 <defs>
  <style type="text/css">
   <![CDATA[
    .fil0 {fill:#CC9933;fill-rule:nonzero}
   ]]>
  </style>
 </defs>
 <g id="Layer_x0020_1">
  <metadata id="CorelCorpID_0Corel-Layer"/>
  <path class="fil0" d="M1735 0c-157,0 -274,29 -378,155 -104,-127 -221,-155 -378,-155 -82,0 -150,13 -227,41 -75,-29 -147,-41 -227,-41 -189,-1 -368,101 -457,274 -46,91 -68,195 -68,297 0,164 58,342 201,431 21,13 44,22 67,22 13,0 27,-4 41,-12 11,-7 16,-16 16,-24 0,-10 -7,-19 -19,-26 -135,-71 -183,-246 -183,-391 0,-95 20,-193 63,-277 65,-127 196,-224 339,-224 48,0 87,8 133,20 -168,121 -253,302 -253,509 0,85 17,178 57,253 61,113 164,172 289,172 126,0 230,-59 291,-172 41,-76 58,-167 58,-253 0,-205 -85,-393 -255,-509 46,-14 87,-20 135,-20 190,2 316,123 316,319l0 599c0,26 42,35 61,35 20,0 62,-9 62,-35l0 -599c0,-196 125,-318 316,-319 49,0 87,8 133,20 -169,121 -253,300 -253,508 0,86 17,178 57,253 61,114 165,172 290,172 125,-1 229,-58 290,-172 41,-76 58,-167 57,-253 0,-207 -84,-388 -252,-508 46,-14 84,-20 132,-20 144,0 274,95 340,224 43,84 63,185 63,281 0,144 -49,316 -183,388 -12,7 -19,16 -19,26 0,8 5,16 16,23 13,8 27,12 41,12 23,0 45,-9 65,-21 145,-89 203,-263 203,-428 0,-102 -22,-210 -68,-301 -89,-174 -268,-274 -458,-274 -81,0 -152,13 -227,41 -77,-28 -146,-41 -227,-41zm227 135c151,108 225,278 225,463 0,79 -15,163 -52,232 -36,68 -94,122 -173,123 -80,0 -136,-54 -172,-122 -38,-69 -52,-154 -52,-233 0,-186 72,-354 224,-463zm-1210 0c152,109 225,277 225,464 0,79 -15,162 -52,232 -36,68 -94,123 -174,123 -79,0 -135,-55 -171,-122 -37,-70 -52,-155 -52,-233 0,-185 73,-356 224,-464z"/>
 </g>
</svg>
