<?xml version="1.0" encoding="UTF-8"?>
<!DOCTYPE svg PUBLIC "-//W3C//DTD SVG 1.1//EN" "http://www.w3.org/Graphics/SVG/1.1/DTD/svg11.dtd">
<!-- Creator: CorelDRAW X8 -->
<svg xmlns="http://www.w3.org/2000/svg" xml:space="preserve" width="1599px" height="1486px" version="1.1" style="shape-rendering:geometricPrecision; text-rendering:geometricPrecision; image-rendering:optimizeQuality; fill-rule:evenodd; clip-rule:evenodd"
viewBox="0 0 1599 1486"
 xmlns:xlink="http://www.w3.org/1999/xlink">
 <defs>
  <style type="text/css">
   <![CDATA[
    .fil0 {fill:#2B2A29;fill-rule:nonzero}
   ]]>
  </style>
 </defs>
 <g id="Layer_x0020_1">
  <metadata id="CorelCorpID_0Corel-Layer"/>
  <path class="fil0" d="M1490 1486c32,0 61,-25 61,-58 0,-34 -29,-59 -61,-59l-1214 0c-69,0 -151,-15 -151,-101 0,-83 87,-99 151,-99l853 0c141,0 284,-20 385,-130 60,-66 85,-150 85,-240 0,-124 -60,-214 -167,-273 74,-47 118,-114 118,-205 0,-106 -64,-191 -152,-244 -97,-58 -223,-77 -335,-77 -107,0 -202,10 -303,45 -77,-31 -154,-44 -237,-44 -188,0 -367,101 -455,272 -47,90 -68,200 -68,302 0,164 58,340 201,429 20,12 44,21 67,21 14,0 28,-3 41,-11 11,-7 16,-15 16,-25 0,-8 -7,-19 -19,-26 -135,-71 -183,-244 -183,-388 0,-94 20,-199 63,-283 65,-125 195,-221 337,-221 48,0 89,4 135,19 -168,120 -253,307 -253,513 0,84 17,177 57,252 61,112 164,170 289,170 126,0 230,-59 291,-172 41,-75 58,-164 58,-250 0,-204 -82,-388 -247,-509 74,-21 134,-24 210,-24 82,0 176,13 247,55 69,41 117,113 117,196 0,89 -56,173 -150,173 -21,0 -67,6 -67,34 0,30 46,35 68,35 125,3 198,118 198,236 0,65 -14,125 -52,178 -66,94 -183,123 -292,123l-856 0c-130,0 -276,33 -276,193 0,159 148,193 276,193l1214 0zm-739 -531c-80,0 -136,-52 -172,-123 -35,-70 -51,-156 -51,-229 0,-184 73,-361 224,-468 152,108 225,282 225,468 0,73 -16,161 -52,231 -37,70 -94,121 -174,121z"/>
 </g>
</svg>
