<?xml version="1.0" encoding="UTF-8"?>
<!DOCTYPE svg PUBLIC "-//W3C//DTD SVG 1.1//EN" "http://www.w3.org/Graphics/SVG/1.1/DTD/svg11.dtd">
<!-- Creator: CorelDRAW X8 -->
<svg xmlns="http://www.w3.org/2000/svg" xml:space="preserve" width="3083px" height="1486px" version="1.1" style="shape-rendering:geometricPrecision; text-rendering:geometricPrecision; image-rendering:optimizeQuality; fill-rule:evenodd; clip-rule:evenodd"
viewBox="0 0 3083 1486"
 xmlns:xlink="http://www.w3.org/1999/xlink">
 <defs>
  <style type="text/css">
   <![CDATA[
    .fil0 {fill:#2B2A29;fill-rule:nonzero}
   ]]>
  </style>
 </defs>
 <g id="Layer_x0020_1">
  <metadata id="CorelCorpID_0Corel-Layer"/>
  <path class="fil0" d="M2715 1264c249,-154 368,-379 368,-670 0,-137 -36,-280 -121,-388 -105,-137 -261,-206 -429,-206 -77,0 -151,15 -223,41 -76,-28 -145,-40 -226,-40 -157,0 -274,28 -378,154 -104,-126 -221,-154 -378,-154 -82,0 -151,13 -228,41 -76,-30 -146,-41 -227,-41 -188,0 -368,101 -456,272 -47,90 -70,200 -69,302 0,163 58,339 202,428 20,12 43,21 66,21 14,0 28,-3 41,-11 11,-7 17,-16 17,-24 0,-10 -7,-19 -20,-26 -135,-71 -183,-244 -183,-388 0,-95 20,-199 63,-283 65,-126 196,-222 339,-222 49,0 87,8 133,20 -168,120 -252,307 -252,512 0,85 16,177 57,252 60,112 164,170 289,170 126,0 230,-58 291,-171 40,-75 57,-165 57,-251 0,-203 -85,-397 -254,-513 46,-13 87,-20 134,-19 188,1 317,124 317,317l0 602c0,26 41,35 61,35 20,0 61,-9 61,-35l0 -602c0,-194 126,-317 317,-317 48,0 87,8 133,19 -169,120 -253,305 -253,513 0,90 18,179 57,251 54,101 148,170 289,170 126,0 231,-58 291,-171 40,-75 57,-165 57,-250 0,-208 -85,-393 -253,-513 42,-12 84,-19 128,-19 138,0 256,73 334,188 67,97 94,218 93,336 0,253 -94,458 -302,601 -285,197 -719,221 -1056,221 -353,0 -787,-20 -1100,-198 -246,-140 -379,-354 -379,-642 0,-202 75,-408 254,-517 11,-7 17,-15 17,-23 0,-10 -7,-19 -19,-26 -13,-7 -28,-10 -43,-10 -16,0 -31,3 -44,11 -200,121 -288,338 -288,565 0,341 180,576 475,723 331,165 762,187 1127,187 361,0 800,-28 1113,-222zm-405 -311c-78,0 -133,-48 -170,-116 -37,-69 -54,-157 -54,-235 0,-186 73,-360 224,-468 151,108 226,282 226,468 0,73 -16,159 -51,228 -37,71 -94,123 -175,123zm-1210 2c-80,0 -136,-52 -172,-122 -36,-70 -52,-157 -52,-231 0,-183 74,-360 224,-468 152,109 226,283 226,468 0,76 -17,160 -51,227 -37,73 -95,126 -175,126z"/>
 </g>
</svg>
