<?xml version="1.0" encoding="UTF-8"?>
<!DOCTYPE svg PUBLIC "-//W3C//DTD SVG 1.1//EN" "http://www.w3.org/Graphics/SVG/1.1/DTD/svg11.dtd">
<!-- Creator: CorelDRAW X8 -->
<svg xmlns="http://www.w3.org/2000/svg" xml:space="preserve" width="1715px" height="868px" version="1.1" style="shape-rendering:geometricPrecision; text-rendering:geometricPrecision; image-rendering:optimizeQuality; fill-rule:evenodd; clip-rule:evenodd"
viewBox="0 0 1715 868"
 xmlns:xlink="http://www.w3.org/1999/xlink">
 <defs>
  <style type="text/css">
   <![CDATA[
    .fil0 {fill:#00A0E3;fill-rule:nonzero}
   ]]>
  </style>
 </defs>
 <g id="Layer_x0020_1">
  <metadata id="CorelCorpID_0Corel-Layer"/>
  <path class="fil0" d="M1420 688c107,0 187,-23 242,-81 33,-34 53,-80 53,-139 0,-67 -35,-127 -96,-159 41,-26 66,-67 66,-115 1,-63 -38,-116 -94,-148 -62,-35 -141,-46 -210,-46 -61,0 -123,5 -181,24 -45,-17 -94,-24 -143,-24 -83,0 -172,17 -227,80 -55,-63 -144,-80 -227,-80 -49,0 -92,7 -137,22 -42,-15 -92,-22 -137,-22 -118,0 -231,58 -286,161 -27,51 -43,113 -43,175 0,96 36,198 124,250 24,14 58,21 83,6 19,-11 16,-28 -3,-38 -78,-39 -106,-138 -106,-218 0,-57 14,-114 39,-160 36,-68 111,-123 192,-123 22,0 42,3 61,7 -95,65 -146,180 -146,291 0,54 12,106 35,147 39,69 106,103 185,103 80,0 147,-34 187,-103 23,-42 35,-93 35,-147 0,-109 -49,-228 -145,-291 21,-4 41,-7 62,-7 108,1 179,69 178,176l-1 345c0,15 22,26 49,26 27,0 49,-11 49,-26l1 -345c0,-106 68,-176 178,-176 22,0 42,3 61,7 -96,66 -146,179 -146,291 0,53 12,106 35,147 39,69 106,102 185,102 80,0 148,-33 187,-103 23,-41 35,-92 35,-146 0,-114 -52,-224 -142,-288 34,-8 73,-10 109,-10 46,0 100,8 139,30 40,23 67,63 68,108 0,44 -28,93 -79,93 -16,0 -52,5 -52,26 -1,22 36,27 52,27 70,2 108,69 108,131 0,40 -11,72 -30,98 -35,47 -95,69 -165,69l-1243 0c-121,0 -177,42 -178,114 -2,99 96,119 178,119l1457 0c28,0 49,-18 49,-40 0,-23 -21,-41 -49,-41l-1457 0c-52,0 -78,-11 -79,-48 -1,-35 25,-51 79,-51l1241 0zm-226 -594c82,56 122,162 122,257 0,48 -10,94 -31,131 -19,34 -50,65 -93,65 -42,0 -73,-31 -92,-65 -20,-36 -30,-83 -30,-131 0,-95 41,-201 124,-257zm-729 0c83,56 123,162 123,257 0,49 -10,95 -31,131 -19,34 -51,66 -93,66 -42,0 -73,-31 -92,-65 -20,-36 -30,-83 -30,-132 0,-94 42,-201 123,-257z"/>
 </g>
</svg>
