<?xml version="1.0" encoding="UTF-8"?>
<!DOCTYPE svg PUBLIC "-//W3C//DTD SVG 1.1//EN" "http://www.w3.org/Graphics/SVG/1.1/DTD/svg11.dtd">
<!-- Creator: CorelDRAW X8 -->
<svg xmlns="http://www.w3.org/2000/svg" xml:space="preserve" width="1522px" height="1486px" version="1.1" style="shape-rendering:geometricPrecision; text-rendering:geometricPrecision; image-rendering:optimizeQuality; fill-rule:evenodd; clip-rule:evenodd"
viewBox="0 0 1522 1486"
 xmlns:xlink="http://www.w3.org/1999/xlink">
 <defs>
  <style type="text/css">
   <![CDATA[
    .fil0 {fill:#2B2A29;fill-rule:nonzero}
   ]]>
  </style>
 </defs>
 <g id="Layer_x0020_1">
  <metadata id="CorelCorpID_0Corel-Layer"/>
  <path class="fil0" d="M1413 1486c32,0 62,-25 62,-59 0,-33 -30,-59 -62,-59l-1137 0c-70,0 -151,-14 -151,-101 0,-82 87,-97 151,-97l661 0c153,0 302,-41 415,-148 126,-119 170,-263 170,-430 0,-157 -53,-315 -159,-429 -100,-107 -235,-163 -380,-163 -80,0 -154,13 -230,41 -75,-28 -149,-41 -229,-41 -189,0 -366,101 -454,272 -48,93 -69,198 -69,302 0,163 58,340 201,428 20,12 43,21 66,21 14,0 28,-3 41,-11 11,-7 17,-16 17,-24 0,-9 -7,-18 -20,-25 -135,-70 -183,-245 -183,-389 0,-94 21,-198 64,-282 65,-125 195,-222 337,-222 48,0 89,4 135,19 -168,120 -253,307 -253,513 0,85 17,176 57,251 61,113 164,171 289,171 126,0 230,-58 291,-171 41,-76 58,-166 58,-251 -1,-207 -84,-393 -253,-513 47,-14 87,-19 135,-19 124,0 233,69 306,168 74,99 112,229 111,354 0,152 -44,285 -153,394 -85,85 -192,114 -310,114l-661 0c-129,0 -276,33 -276,192 0,160 148,194 276,194l1137 0zm-661 -532c-79,0 -135,-54 -172,-121 -37,-69 -51,-153 -51,-231 0,-184 74,-360 224,-468 152,108 225,282 225,468 0,75 -17,163 -54,232 -36,69 -93,120 -172,120z"/>
 </g>
</svg>
