<?xml version="1.0" encoding="UTF-8"?>
<!DOCTYPE svg PUBLIC "-//W3C//DTD SVG 1.1//EN" "http://www.w3.org/Graphics/SVG/1.1/DTD/svg11.dtd">
<!-- Creator: CorelDRAW X8 -->
<svg xmlns="http://www.w3.org/2000/svg" xml:space="preserve" width="1169px" height="868px" version="1.1" style="shape-rendering:geometricPrecision; text-rendering:geometricPrecision; image-rendering:optimizeQuality; fill-rule:evenodd; clip-rule:evenodd"
viewBox="0 0 1169 868"
 xmlns:xlink="http://www.w3.org/1999/xlink">
 <defs>
  <style type="text/css">
   <![CDATA[
    .fil0 {fill:#2B2A29;fill-rule:nonzero}
   ]]>
  </style>
 </defs>
 <g id="Layer_x0020_1">
  <metadata id="CorelCorpID_0Corel-Layer"/>
  <path class="fil0" d="M963 772c136,-89 206,-233 206,-389 0,-135 -57,-273 -182,-341 -51,-28 -109,-42 -169,-42 -51,0 -97,8 -137,22 -45,-15 -90,-22 -137,-22 -118,0 -233,59 -288,161 -28,51 -42,111 -42,172 0,96 36,199 125,250 15,9 32,15 49,15 12,0 23,-3 33,-9 10,-5 14,-11 14,-18 0,-7 -6,-14 -16,-19 -79,-39 -106,-139 -106,-219 0,-56 12,-111 37,-157 37,-68 112,-123 194,-123 21,0 42,3 61,8 -96,65 -146,177 -146,288 0,53 12,106 35,146 39,69 107,103 186,103 80,0 149,-34 188,-103 25,-45 35,-95 35,-146 0,-112 -49,-223 -146,-289 19,-4 39,-7 61,-7 47,0 92,18 128,46 86,67 125,181 125,284 0,125 -49,249 -149,330 -91,73 -206,102 -323,102 -108,0 -214,-27 -299,-81 -131,-85 -202,-233 -202,-384 0,-118 46,-242 155,-306 8,-5 12,-11 12,-18 0,-7 -5,-14 -15,-19 -9,-5 -21,-7 -33,-7 -13,0 -26,3 -36,9 -125,73 -181,205 -181,341 0,167 80,325 225,418 104,67 235,100 374,100 127,0 258,-27 364,-96zm-283 -227c-42,0 -73,-31 -92,-65 -20,-36 -30,-83 -30,-131 0,-95 41,-199 123,-255 83,56 124,159 124,255 0,48 -10,94 -31,130 -19,34 -51,66 -94,66z"/>
 </g>
</svg>
