<?xml version="1.0" encoding="UTF-8"?>
<!DOCTYPE svg PUBLIC "-//W3C//DTD SVG 1.1//EN" "http://www.w3.org/Graphics/SVG/1.1/DTD/svg11.dtd">
<!-- Creator: CorelDRAW X8 -->
<svg xmlns="http://www.w3.org/2000/svg" xml:space="preserve" width="1715px" height="868px" version="1.1" style="shape-rendering:geometricPrecision; text-rendering:geometricPrecision; image-rendering:optimizeQuality; fill-rule:evenodd; clip-rule:evenodd"
viewBox="0 0 1715 868"
 xmlns:xlink="http://www.w3.org/1999/xlink">
 <defs>
  <style type="text/css">
   <![CDATA[
    .fil0 {fill:#00A0E3;fill-rule:nonzero}
   ]]>
  </style>
 </defs>
 <g id="Layer_x0020_1">
  <metadata id="CorelCorpID_0Corel-Layer"/>
  <path class="fil0" d="M1419 688c107,0 187,-23 243,-81 32,-34 52,-80 52,-139 0,-67 -34,-127 -96,-159 41,-26 66,-67 67,-116 0,-62 -39,-115 -95,-147 -62,-35 -141,-46 -210,-46 -60,0 -123,5 -181,24 -45,-17 -94,-24 -143,-24 -83,0 -172,17 -227,80 -54,-63 -144,-80 -227,-80 -48,0 -91,7 -137,22 -42,-15 -92,-22 -137,-22 -118,0 -230,58 -286,161 -27,51 -43,113 -43,175 1,96 36,198 125,250 24,14 57,21 82,6 19,-11 16,-28 -3,-38 -78,-39 -106,-138 -106,-218 0,-57 15,-114 39,-160 37,-68 111,-123 192,-123 22,0 42,3 61,7 -95,65 -146,180 -146,291 0,54 12,106 35,147 39,69 106,103 185,103 80,0 148,-34 187,-103 23,-42 35,-93 35,-147 0,-109 -49,-228 -144,-291 20,-4 41,-7 61,-7 108,1 179,69 179,176l-2 345c0,14 22,26 49,26 27,0 49,-12 49,-26l1 -345c0,-106 69,-176 178,-176 22,0 43,3 62,7 -97,66 -147,179 -147,291 0,53 12,106 35,147 39,69 107,102 186,102 79,0 147,-33 186,-103 23,-41 35,-92 35,-146 0,-114 -52,-224 -142,-288 35,-8 73,-10 109,-10 47,0 100,8 140,30 39,23 67,63 67,108 0,44 -28,93 -79,93 -16,0 -51,5 -52,26 -1,22 36,27 52,27 71,2 109,69 108,131 0,39 -11,72 -30,98 -34,46 -95,69 -165,69l-1243 0c-121,0 -176,42 -178,114 -2,99 96,119 178,119l1460 0c27,0 49,-18 49,-40 0,-23 -22,-41 -49,-41l-1460 0c-51,0 -78,-12 -79,-48 -1,-35 26,-51 79,-51l1241 0zm-226 -594c82,56 122,162 122,257 0,48 -10,94 -31,131 -19,33 -50,65 -92,65 -43,0 -73,-31 -92,-65 -21,-36 -31,-83 -31,-131 0,-95 41,-201 124,-257zm-728 0c82,56 122,162 122,257 0,49 -10,95 -30,131 -20,34 -51,66 -94,66 -42,0 -72,-32 -91,-65 -21,-37 -31,-83 -31,-132 0,-94 42,-201 124,-257z"/>
 </g>
</svg>
