<?xml version="1.0" encoding="UTF-8"?>
<!DOCTYPE svg PUBLIC "-//W3C//DTD SVG 1.1//EN" "http://www.w3.org/Graphics/SVG/1.1/DTD/svg11.dtd">
<!-- Creator: CorelDRAW X8 -->
<svg xmlns="http://www.w3.org/2000/svg" xml:space="preserve" width="942px" height="868px" version="1.1" style="shape-rendering:geometricPrecision; text-rendering:geometricPrecision; image-rendering:optimizeQuality; fill-rule:evenodd; clip-rule:evenodd"
viewBox="0 0 941 867"
 xmlns:xlink="http://www.w3.org/1999/xlink">
 <defs>
  <style type="text/css">
   <![CDATA[
    .fil0 {fill:#CC9933;fill-rule:nonzero}
   ]]>
  </style>
 </defs>
 <g id="Layer_x0020_1">
  <metadata id="CorelCorpID_0Corel-Layer"/>
  <path class="fil0" d="M205 553c11,5 16,13 15,20 0,6 -4,12 -13,17 -10,7 -21,9 -33,9 -17,0 -34,-6 -49,-14 -88,-52 -124,-155 -124,-250 0,-62 14,-123 41,-174 56,-103 169,-161 287,-161 51,0 97,8 137,22 40,-14 85,-22 136,-22 91,0 178,33 241,97 69,70 102,169 97,267 -4,98 -42,177 -103,233 -65,59 -156,90 -260,90l-398 0c-54,0 -81,16 -80,51 1,36 28,48 80,48l689 0c27,0 49,18 49,40 0,23 -22,41 -49,41l-689 0c-83,0 -181,-20 -179,-119 2,-72 57,-114 179,-114l398 0c66,0 127,-18 175,-64 58,-55 87,-130 91,-207 3,-76 -18,-156 -66,-218 -41,-53 -104,-92 -175,-92 -21,0 -41,3 -60,7 96,65 145,179 145,290 0,54 -12,105 -35,146 -39,70 -107,103 -187,103 -79,0 -146,-33 -185,-102 -23,-41 -35,-93 -35,-147 0,-111 50,-225 145,-290 -19,-4 -39,-7 -61,-7 -81,0 -156,55 -193,123 -24,45 -37,102 -37,159 0,80 28,178 106,218zm261 -459c-82,56 -123,162 -123,256 0,48 10,95 30,131 19,34 50,65 92,65 43,0 74,-31 93,-65 21,-36 31,-82 31,-131 0,-95 -41,-200 -123,-256z"/>
 </g>
</svg>
