<?xml version="1.0" encoding="UTF-8"?>
<!DOCTYPE svg PUBLIC "-//W3C//DTD SVG 1.1//EN" "http://www.w3.org/Graphics/SVG/1.1/DTD/svg11.dtd">
<!-- Creator: CorelDRAW X8 -->
<svg xmlns="http://www.w3.org/2000/svg" xml:space="preserve" width="2996px" height="1486px" version="1.1" style="shape-rendering:geometricPrecision; text-rendering:geometricPrecision; image-rendering:optimizeQuality; fill-rule:evenodd; clip-rule:evenodd"
viewBox="0 0 2996 1486"
 xmlns:xlink="http://www.w3.org/1999/xlink">
 <defs>
  <style type="text/css">
   <![CDATA[
    .fil0 {fill:#B2B09C;fill-rule:nonzero}
   ]]>
  </style>
 </defs>
 <g id="Layer_x0020_1">
  <metadata id="CorelCorpID_0Corel-Layer"/>
  <path class="fil0" d="M2589 1199c-149,111 -354,161 -534,186 -202,29 -408,32 -612,31 -295,-1 -636,-40 -902,-176 -268,-137 -419,-355 -418,-664 0,-200 72,-408 246,-517 24,-15 20,-37 -4,-49 -26,-14 -61,-14 -86,2 -194,121 -279,340 -279,564 0,336 169,568 459,716 291,148 661,193 983,194 214,1 430,-3 642,-33 205,-29 434,-86 603,-212 125,-94 213,-218 264,-367 32,-94 46,-198 45,-297 -1,-110 -21,-229 -67,-330 -51,-107 -134,-192 -243,-236 -32,-13 -68,-18 -96,6 -22,19 -5,40 17,48 181,68 259,284 257,465 -2,175 -85,424 -291,424 -214,0 -221,-257 -221,-416 0,-103 0,-221 -35,-319 -51,-144 -179,-222 -328,-219 -127,3 -215,38 -295,141 -107,-113 -218,-140 -370,-141 -82,0 -150,13 -227,41 -74,-28 -149,-41 -228,-41 -189,-1 -368,101 -456,272 -46,91 -69,201 -68,303 0,162 58,339 201,427 33,20 72,32 107,10 24,-14 21,-36 -3,-49 -134,-71 -183,-245 -183,-388 0,-95 21,-199 64,-283 64,-126 196,-223 339,-222 48,0 86,8 133,19 -169,120 -253,309 -253,513 0,85 17,176 57,251 61,113 164,171 289,171 126,0 230,-58 291,-171 41,-76 57,-166 57,-251 0,-202 -84,-397 -254,-513 46,-13 86,-19 134,-19 190,1 317,122 317,316l0 603c0,26 42,35 62,35 19,0 61,-9 61,-35l0 -632c0,-150 58,-283 224,-287 99,-2 177,72 209,163 33,94 32,206 32,305 0,253 42,486 344,486 89,0 138,-21 216,-55 -57,98 -109,161 -200,230zm-1267 -597c0,78 -15,161 -52,230 -36,68 -95,122 -174,122 -79,0 -135,-54 -172,-121 -37,-69 -51,-153 -51,-231 -1,-182 73,-360 223,-468 153,108 226,284 226,468z"/>
 </g>
</svg>
