<?xml version="1.0" encoding="UTF-8"?>
<!DOCTYPE svg PUBLIC "-//W3C//DTD SVG 1.1//EN" "http://www.w3.org/Graphics/SVG/1.1/DTD/svg11.dtd">
<!-- Creator: CorelDRAW X8 -->
<svg xmlns="http://www.w3.org/2000/svg" xml:space="preserve" width="961px" height="868px" version="1.1" style="shape-rendering:geometricPrecision; text-rendering:geometricPrecision; image-rendering:optimizeQuality; fill-rule:evenodd; clip-rule:evenodd"
viewBox="0 0 961 868"
 xmlns:xlink="http://www.w3.org/1999/xlink">
 <defs>
  <style type="text/css">
   <![CDATA[
    .fil0 {fill:#00A0E3;fill-rule:nonzero}
   ]]>
  </style>
 </defs>
 <g id="Layer_x0020_1">
  <metadata id="CorelCorpID_0Corel-Layer"/>
  <path class="fil0" d="M463 822c-37,0 -83,-2 -116,-17 -24,-10 -41,-27 -40,-53 1,-29 35,-41 61,-41 34,-1 53,23 53,56 0,18 28,24 43,24 14,0 42,-6 42,-24 0,-33 19,-57 53,-56 26,0 60,12 61,41 1,26 -16,43 -39,53 -35,15 -81,17 -118,17zm-258 -268c-79,-40 -107,-139 -107,-219 0,-56 13,-113 38,-159 36,-68 111,-123 193,-123 21,0 42,3 61,7 -96,65 -146,180 -145,291 0,53 11,105 34,146 39,69 107,103 186,103 80,0 148,-34 187,-103 24,-41 35,-93 35,-146 0,-112 -49,-226 -145,-291 19,-4 39,-7 60,-7 85,0 157,54 202,120 43,63 60,140 59,218 0,86 -20,174 -62,248 -26,45 -60,85 -104,117 2,-29 -17,-52 -41,-67 -24,-15 -61,-22 -97,-22 -32,0 -69,6 -95,23 -27,-17 -64,-23 -96,-23 -36,0 -73,7 -97,22 -28,18 -41,41 -41,63 -1,39 36,78 86,95 49,17 108,21 147,21 49,-1 97,-6 142,-17 103,-26 192,-83 261,-174 62,-84 93,-186 95,-290 1,-81 -18,-163 -63,-232 -63,-99 -176,-155 -296,-155 -51,0 -96,8 -136,22 -40,-14 -86,-22 -137,-22 -119,0 -232,58 -287,161 -28,51 -42,112 -42,174 0,96 36,199 125,251 24,14 56,20 82,5 19,-11 17,-28 -2,-37zm261 -460c82,56 123,161 123,257 0,48 -10,94 -30,130 -20,34 -51,66 -94,66 -42,0 -73,-31 -92,-65 -20,-36 -31,-83 -31,-131 0,-95 42,-201 124,-257z"/>
 </g>
</svg>
