<?xml version="1.0" encoding="UTF-8"?>
<!DOCTYPE svg PUBLIC "-//W3C//DTD SVG 1.1//EN" "http://www.w3.org/Graphics/SVG/1.1/DTD/svg11.dtd">
<!-- Creator: CorelDRAW X8 -->
<svg xmlns="http://www.w3.org/2000/svg" xml:space="preserve" width="942px" height="868px" version="1.1" style="shape-rendering:geometricPrecision; text-rendering:geometricPrecision; image-rendering:optimizeQuality; fill-rule:evenodd; clip-rule:evenodd"
viewBox="0 0 942 868"
 xmlns:xlink="http://www.w3.org/1999/xlink">
 <defs>
  <style type="text/css">
   <![CDATA[
    .fil0 {fill:#2B2A29;fill-rule:nonzero}
   ]]>
  </style>
 </defs>
 <g id="Layer_x0020_1">
  <metadata id="CorelCorpID_0Corel-Layer"/>
  <path class="fil0" d="M864 868c27,0 48,-18 48,-41 0,-22 -21,-40 -48,-40l-685 0c-39,0 -79,-4 -79,-51 0,-32 26,-47 79,-47l398 0c105,0 196,-33 260,-92 77,-69 105,-153 105,-252 0,-92 -33,-182 -98,-248 -63,-64 -150,-97 -241,-97 -51,0 -97,8 -137,22 -40,-14 -86,-22 -137,-22 -119,0 -231,58 -287,161 -27,51 -41,110 -41,172 0,96 36,198 125,250 14,9 32,14 49,14 11,0 22,-2 33,-8 9,-5 13,-12 13,-18 0,-8 -5,-15 -16,-20 -78,-39 -106,-138 -106,-218 0,-57 13,-111 37,-157 37,-68 112,-123 193,-123 22,0 42,3 62,7 -96,66 -146,177 -146,288 0,54 12,106 35,147 39,69 106,103 186,103 80,0 147,-34 187,-103 23,-41 35,-93 35,-147 0,-111 -49,-222 -146,-288 19,-4 40,-7 61,-7 71,0 134,39 175,93 44,57 66,130 66,201 0,87 -26,161 -91,223 -48,47 -109,66 -176,66l-398 0c-82,0 -179,18 -179,116 0,96 97,116 179,116l685 0zm-398 -323c-42,0 -73,-32 -92,-65 -21,-36 -31,-83 -31,-132 0,-94 42,-198 123,-254 83,56 124,159 124,254 0,49 -10,95 -31,131 -19,34 -51,66 -93,66z"/>
 </g>
</svg>
