<?xml version="1.0" encoding="UTF-8"?>
<!DOCTYPE svg PUBLIC "-//W3C//DTD SVG 1.1//EN" "http://www.w3.org/Graphics/SVG/1.1/DTD/svg11.dtd">
<!-- Creator: CorelDRAW X8 -->
<svg xmlns="http://www.w3.org/2000/svg" xml:space="preserve" width="2293px" height="1486px" version="1.1" style="shape-rendering:geometricPrecision; text-rendering:geometricPrecision; image-rendering:optimizeQuality; fill-rule:evenodd; clip-rule:evenodd"
viewBox="0 0 2293 1486"
 xmlns:xlink="http://www.w3.org/1999/xlink">
 <defs>
  <style type="text/css">
   <![CDATA[
    .fil0 {fill:#2B2A29;fill-rule:nonzero}
   ]]>
  </style>
 </defs>
 <g id="Layer_x0020_1">
  <metadata id="CorelCorpID_0Corel-Layer"/>
  <path class="fil0" d="M2014 700c109,0 162,61 162,177 0,146 -114,221 -251,221l-1648 2c-130,0 -276,33 -276,192 0,159 148,194 276,194l1907 -2c31,0 61,-26 61,-59 0,-33 -30,-59 -61,-59l-1907 2c-70,0 -151,-14 -151,-101 0,-82 87,-98 151,-98l1644 -2c178,0 372,-63 372,-290 0,-141 -92,-258 -239,-258 -56,0 -102,18 -155,18 -75,0 -144,-31 -144,-118 0,-77 60,-108 125,-108 65,0 127,25 192,25 106,0 178,-61 178,-173 0,-222 -261,-263 -440,-263 -193,0 -362,37 -447,159 -94,-127 -220,-159 -383,-159 -83,0 -151,13 -228,41 -76,-29 -146,-41 -227,-41 -188,0 -369,102 -457,274 -47,91 -68,195 -68,297 0,164 58,342 201,431 20,13 43,22 66,22 14,0 29,-4 42,-12 11,-7 16,-15 16,-24 0,-9 -7,-19 -19,-25 -135,-72 -183,-247 -183,-392 0,-95 20,-193 63,-277 65,-127 196,-224 339,-224 48,0 87,8 133,20 -168,121 -253,302 -253,509 0,85 17,178 57,253 61,113 164,172 289,172 126,0 230,-58 291,-172 41,-76 58,-167 58,-253 0,-205 -85,-393 -255,-509 46,-14 87,-20 135,-20 190,2 317,122 317,319l0 600c0,26 41,35 61,35 20,0 62,-9 62,-35l0 -605c0,-235 173,-314 390,-314 123,0 326,34 326,193 0,63 -28,90 -91,90 -70,0 -138,-28 -212,-28 -115,0 -184,75 -184,191 0,66 23,126 77,166 37,27 84,38 128,38 61,0 104,-20 160,-20zm-1263 254c-80,0 -135,-52 -171,-122 -36,-70 -52,-159 -52,-233 0,-185 73,-356 224,-464 152,109 225,277 225,464 0,76 -17,164 -53,234 -37,70 -94,121 -173,121z"/>
 </g>
</svg>
