<?xml version="1.0" encoding="UTF-8"?>
<!DOCTYPE svg PUBLIC "-//W3C//DTD SVG 1.1//EN" "http://www.w3.org/Graphics/SVG/1.1/DTD/svg11.dtd">
<!-- Creator: CorelDRAW X8 -->
<svg xmlns="http://www.w3.org/2000/svg" xml:space="preserve" width="1602px" height="1486px" version="1.1" style="shape-rendering:geometricPrecision; text-rendering:geometricPrecision; image-rendering:optimizeQuality; fill-rule:evenodd; clip-rule:evenodd"
viewBox="0 0 1602 1486"
 xmlns:xlink="http://www.w3.org/1999/xlink">
 <defs>
  <style type="text/css">
   <![CDATA[
    .fil0 {fill:red;fill-rule:nonzero}
   ]]>
  </style>
 </defs>
 <g id="Layer_x0020_1">
  <metadata id="CorelCorpID_0Corel-Layer"/>
  <path class="fil0" d="M768 1408c62,0 138,-4 195,-30 38,-17 66,-47 65,-90 -2,-51 -58,-71 -101,-71 -57,-1 -88,40 -88,96 1,31 -46,41 -70,41 -24,0 -71,-10 -71,-41 0,-56 -31,-97 -88,-96 -42,0 -98,20 -100,71 -2,43 26,73 65,90 56,25 131,30 193,30zm-429 -464c33,17 35,46 4,64 -43,26 -95,16 -136,-9 -147,-89 -207,-265 -207,-429 0,-106 24,-207 69,-294 92,-176 280,-277 476,-276 85,0 161,14 227,38 66,-24 142,-38 227,-38 198,-1 385,96 490,264 74,120 107,259 104,399 -3,178 -55,353 -158,495 -113,157 -261,254 -433,299 -74,19 -152,28 -234,29 -65,1 -163,-6 -243,-35 -84,-31 -145,-97 -143,-163 0,-38 21,-78 68,-108 40,-26 101,-39 160,-39 54,0 115,12 159,40 44,-28 105,-40 158,-40 59,0 120,13 160,39 49,31 69,69 69,108 1,2 0,4 0,7 72,-55 129,-124 171,-201 71,-127 103,-278 104,-425 1,-133 -27,-265 -98,-373 -74,-113 -194,-206 -334,-205 -36,0 -70,4 -101,12 111,77 185,193 219,323 15,55 23,114 23,171 0,91 -20,179 -58,250 -66,119 -178,176 -310,176 -132,1 -244,-57 -308,-175 -39,-71 -58,-160 -58,-251 0,-58 7,-115 22,-171 35,-130 108,-245 218,-323 -31,-8 -65,-12 -101,-12 -135,-1 -259,94 -320,210 -40,79 -62,172 -62,269 0,137 47,306 176,374zm433 -783c-94,66 -154,169 -183,278 -14,53 -21,105 -21,158 0,82 17,162 51,224 32,58 82,112 153,112 70,0 122,-55 154,-113 34,-62 51,-141 51,-223 0,-52 -7,-106 -21,-158 -29,-110 -90,-212 -184,-278z"/>
 </g>
</svg>
