<?xml version="1.0" encoding="UTF-8"?>
<!DOCTYPE svg PUBLIC "-//W3C//DTD SVG 1.1//EN" "http://www.w3.org/Graphics/SVG/1.1/DTD/svg11.dtd">
<!-- Creator: CorelDRAW X8 -->
<svg xmlns="http://www.w3.org/2000/svg" xml:space="preserve" width="2641px" height="1024px" version="1.1" style="shape-rendering:geometricPrecision; text-rendering:geometricPrecision; image-rendering:optimizeQuality; fill-rule:evenodd; clip-rule:evenodd"
viewBox="0 0 2641 1024"
 xmlns:xlink="http://www.w3.org/1999/xlink">
 <defs>
  <style type="text/css">
   <![CDATA[
    .fil0 {fill:#CC9933;fill-rule:nonzero}
   ]]>
  </style>
 </defs>
 <g id="Layer_x0020_1">
  <metadata id="CorelCorpID_0Corel-Layer"/>
  <path class="fil0" d="M1296 389l0 599c0,27 42,36 62,36 19,0 61,-9 61,-36l0 -629c0,-151 58,-285 224,-289 99,-2 177,73 209,164 33,95 32,200 32,300 0,255 42,490 344,490 276,0 409,-232 413,-490 3,-218 -94,-439 -300,-523 -15,-6 -32,-11 -49,-11 -17,0 -34,5 -47,17 -7,6 -10,12 -10,19 0,12 13,24 27,29 180,68 259,287 257,469 -3,176 -85,420 -291,420 -214,0 -221,-259 -221,-420 0,-104 0,-215 -35,-313 -51,-146 -179,-224 -327,-221 -128,3 -216,38 -296,141 -107,-113 -218,-141 -370,-141 -82,0 -150,13 -227,41 -75,-29 -147,-41 -227,-41 -189,-1 -368,101 -457,274 -46,91 -68,195 -68,297 0,164 58,342 201,431 33,20 73,32 108,10 24,-15 20,-37 -3,-50 -135,-71 -183,-246 -183,-391 0,-95 20,-193 63,-277 65,-127 196,-224 339,-224 48,0 86,8 133,20 -168,121 -253,304 -253,509 0,85 17,178 57,253 61,113 164,172 289,172 126,0 230,-59 291,-173 41,-75 58,-166 58,-252 0,-204 -85,-393 -255,-509 46,-14 87,-20 135,-20 187,2 316,125 316,319zm-544 -254c152,109 225,279 225,464 0,79 -15,162 -52,232 -36,68 -94,123 -174,123 -79,0 -135,-55 -171,-122 -37,-70 -52,-155 -52,-233 0,-184 73,-356 224,-464z"/>
 </g>
</svg>
