<?xml version="1.0" encoding="UTF-8"?>
<!DOCTYPE svg PUBLIC "-//W3C//DTD SVG 1.1//EN" "http://www.w3.org/Graphics/SVG/1.1/DTD/svg11.dtd">
<!-- Creator: CorelDRAW X8 -->
<svg xmlns="http://www.w3.org/2000/svg" xml:space="preserve" width="1599px" height="1486px" version="1.1" style="shape-rendering:geometricPrecision; text-rendering:geometricPrecision; image-rendering:optimizeQuality; fill-rule:evenodd; clip-rule:evenodd"
viewBox="0 0 1599 1485"
 xmlns:xlink="http://www.w3.org/1999/xlink">
 <defs>
  <style type="text/css">
   <![CDATA[
    .fil0 {fill:#00A0E3;fill-rule:nonzero}
   ]]>
  </style>
 </defs>
 <g id="Layer_x0020_1">
  <metadata id="CorelCorpID_0Corel-Layer"/>
  <path class="fil0" d="M276 1168l853 0c141,0 284,-20 385,-130 60,-65 85,-148 85,-237 0,-125 -60,-216 -167,-275 73,-47 117,-110 118,-201 1,-107 -63,-196 -152,-248 -97,-58 -223,-77 -335,-77 -107,0 -202,10 -303,45 -76,-31 -153,-44 -235,-44 -189,-1 -368,100 -457,272 -46,90 -68,200 -68,302 0,163 58,339 201,428 33,20 73,31 108,10 24,-15 20,-37 -3,-50 -135,-71 -183,-244 -183,-388 0,-94 20,-199 63,-283 65,-126 196,-222 339,-221 48,0 86,7 133,19 -168,120 -253,307 -253,512 0,85 17,177 57,252 61,112 164,170 289,170 126,0 230,-58 291,-171 41,-75 58,-165 58,-251 0,-203 -82,-387 -247,-508 74,-21 134,-24 210,-24 82,0 176,13 247,55 69,41 117,113 117,196 0,89 -56,172 -150,173 -21,0 -66,5 -67,33 -2,30 47,36 68,36 126,3 199,119 198,238 0,63 -15,124 -52,176 -66,93 -183,122 -292,122l-856 0c-125,0 -273,31 -276,188 -3,163 147,198 276,198l1216 0c32,0 61,-25 61,-58 0,-34 -29,-59 -61,-59l-1216 0c-66,0 -149,-13 -151,-98 -2,-86 86,-102 151,-102zm476 -1033c152,108 225,282 225,467 0,78 -15,162 -52,231 -36,67 -94,122 -174,122 -79,0 -135,-54 -171,-121 -37,-69 -52,-154 -52,-232 0,-183 73,-360 224,-467z"/>
 </g>
</svg>
