<?xml version="1.0" encoding="UTF-8"?>
<!DOCTYPE svg PUBLIC "-//W3C//DTD SVG 1.1//EN" "http://www.w3.org/Graphics/SVG/1.1/DTD/svg11.dtd">
<!-- Creator: CorelDRAW X8 -->
<svg xmlns="http://www.w3.org/2000/svg" xml:space="preserve" width="1553px" height="1486px" version="1.1" style="shape-rendering:geometricPrecision; text-rendering:geometricPrecision; image-rendering:optimizeQuality; fill-rule:evenodd; clip-rule:evenodd"
viewBox="0 0 1553 1486"
 xmlns:xlink="http://www.w3.org/1999/xlink">
 <defs>
  <style type="text/css">
   <![CDATA[
    .fil0 {fill:#2B2A29;fill-rule:nonzero}
   ]]>
  </style>
 </defs>
 <g id="Layer_x0020_1">
  <metadata id="CorelCorpID_0Corel-Layer"/>
  <path class="fil0" d="M751 954c-79,0 -134,-51 -170,-121 -37,-69 -53,-158 -53,-232 0,-183 73,-359 224,-467 152,108 225,282 225,467 0,75 -16,163 -53,232 -36,70 -93,121 -173,121zm645 206c103,-144 157,-314 157,-492 0,-143 -27,-284 -103,-407 -101,-165 -279,-261 -469,-261 -81,0 -153,13 -229,41 -76,-28 -148,-41 -229,-41 -189,0 -367,100 -455,272 -47,90 -68,200 -68,302 0,163 58,340 201,428 20,12 44,21 67,21 14,0 28,-3 41,-11 11,-7 16,-15 16,-24 0,-9 -7,-20 -19,-26 -135,-72 -183,-244 -183,-388 0,-94 20,-198 63,-282 65,-125 195,-222 337,-222 48,0 89,4 135,19 -168,120 -253,307 -253,512 0,85 17,177 57,252 61,112 164,170 289,170 126,0 230,-58 291,-171 41,-75 58,-165 58,-251 -1,-206 -85,-392 -254,-512 46,-14 87,-19 135,-19 147,0 272,95 350,216 74,113 101,248 100,382 0,149 -32,303 -105,435 -52,96 -119,170 -212,228 0,-108 -106,-137 -181,-154 -60,-14 -121,-19 -181,-19 -66,0 -136,5 -200,22 -64,17 -171,61 -171,141 0,79 104,124 166,141 60,16 130,24 205,24 70,0 138,-8 202,-23 177,-43 329,-144 442,-303zm-644 263c-178,0 -262,-51 -262,-103 0,-51 93,-100 262,-100 168,0 256,53 256,100 0,50 -79,103 -256,103z"/>
 </g>
</svg>
