<?xml version="1.0" encoding="UTF-8"?>
<!DOCTYPE svg PUBLIC "-//W3C//DTD SVG 1.1//EN" "http://www.w3.org/Graphics/SVG/1.1/DTD/svg11.dtd">
<!-- Creator: CorelDRAW X8 -->
<svg xmlns="http://www.w3.org/2000/svg" xml:space="preserve" width="2133px" height="1024px" version="1.1" style="shape-rendering:geometricPrecision; text-rendering:geometricPrecision; image-rendering:optimizeQuality; fill-rule:evenodd; clip-rule:evenodd"
viewBox="0 0 2133 1024"
 xmlns:xlink="http://www.w3.org/1999/xlink">
 <defs>
  <style type="text/css">
   <![CDATA[
    .fil0 {fill:#2B2A29;fill-rule:nonzero}
   ]]>
  </style>
 </defs>
 <g id="Layer_x0020_1">
  <metadata id="CorelCorpID_0Corel-Layer"/>
  <path class="fil0" d="M1814 1024c16,0 31,-3 44,-9 194,-87 275,-304 275,-504 0,-87 -13,-176 -50,-255 -75,-165 -236,-256 -412,-256 -137,0 -233,37 -320,146 -105,-118 -219,-146 -372,-146 -82,0 -150,13 -227,41 -75,-29 -147,-41 -227,-41 -188,0 -369,102 -457,274 -47,91 -68,195 -68,297 0,164 58,342 201,431 21,13 43,22 66,22 14,0 28,-4 42,-12 11,-7 16,-15 16,-24 0,-9 -7,-19 -19,-26 -135,-71 -183,-246 -183,-391 0,-95 20,-193 63,-277 65,-127 196,-224 339,-224 48,0 87,8 133,20 -167,120 -253,301 -253,509 0,85 16,177 57,253 60,113 164,172 289,172 126,0 230,-59 291,-173 41,-75 58,-166 58,-252 -1,-206 -86,-394 -255,-509 46,-14 87,-21 135,-20 188,1 316,124 316,319l0 599c0,26 42,35 61,35 20,0 62,-9 62,-35l0 -629c0,-165 80,-289 252,-289 140,0 254,99 303,228 26,67 36,141 36,213 0,167 -65,378 -231,450 -14,6 -24,17 -24,28 0,7 4,15 13,21 14,10 29,14 46,14zm-1063 -70c-80,0 -136,-53 -172,-125 -35,-69 -51,-157 -51,-230 0,-186 74,-356 224,-464 151,108 225,276 225,464 0,74 -17,162 -53,232 -36,71 -93,123 -173,123z"/>
 </g>
</svg>
