<?xml version="1.0" encoding="UTF-8"?>
<!DOCTYPE svg PUBLIC "-//W3C//DTD SVG 1.1//EN" "http://www.w3.org/Graphics/SVG/1.1/DTD/svg11.dtd">
<!-- Creator: CorelDRAW X8 -->
<svg xmlns="http://www.w3.org/2000/svg" xml:space="preserve" width="2539px" height="1024px" version="1.1" style="shape-rendering:geometricPrecision; text-rendering:geometricPrecision; image-rendering:optimizeQuality; fill-rule:evenodd; clip-rule:evenodd"
viewBox="0 0 2539 1024"
 xmlns:xlink="http://www.w3.org/1999/xlink">
 <defs>
  <style type="text/css">
   <![CDATA[
    .fil0 {fill:#B2B09C;fill-rule:nonzero}
   ]]>
  </style>
 </defs>
 <g id="Layer_x0020_1">
  <metadata id="CorelCorpID_0Corel-Layer"/>
  <path class="fil0" d="M306 963c-135,-72 -183,-247 -183,-392 0,-95 20,-192 63,-277 65,-127 196,-224 339,-224 48,1 87,8 133,20 -167,120 -253,301 -253,509 0,86 17,178 58,253 60,114 163,172 288,172 126,0 230,-58 291,-172 41,-76 58,-167 58,-253 0,-209 -85,-389 -254,-509 47,-14 85,-20 133,-20 145,0 275,95 340,224 43,83 63,162 64,256 0,146 -48,316 -183,388 -13,7 -20,16 -20,26 0,25 40,36 60,36l1238 0c19,0 61,-9 61,-36l0 -567c0,-241 -202,-396 -426,-396 -228,0 -410,146 -410,389l0 539 -336 0c101,-109 140,-230 138,-379 0,-100 -23,-187 -68,-276 -89,-174 -267,-274 -458,-274 -81,0 -151,13 -227,41 -76,-28 -146,-41 -227,-41 -189,0 -368,101 -457,274 -46,91 -68,195 -68,297 0,164 58,343 201,431 34,21 73,32 108,10 24,-14 20,-37 -3,-49zm1519 -573c0,-179 103,-319 287,-319 181,0 305,146 304,326l0 532 -591 0 0 -539zm-1073 -255c151,108 225,277 225,464 0,79 -14,163 -52,232 -36,68 -94,123 -174,123 -79,0 -135,-54 -171,-122 -37,-69 -52,-155 -52,-233 0,-185 74,-356 224,-464z"/>
 </g>
</svg>
