<?xml version="1.0" encoding="UTF-8"?>
<!DOCTYPE svg PUBLIC "-//W3C//DTD SVG 1.1//EN" "http://www.w3.org/Graphics/SVG/1.1/DTD/svg11.dtd">
<!-- Creator: CorelDRAW X8 -->
<svg xmlns="http://www.w3.org/2000/svg" xml:space="preserve" width="2539px" height="1024px" version="1.1" style="shape-rendering:geometricPrecision; text-rendering:geometricPrecision; image-rendering:optimizeQuality; fill-rule:evenodd; clip-rule:evenodd"
viewBox="0 0 2539 1024"
 xmlns:xlink="http://www.w3.org/1999/xlink">
 <defs>
  <style type="text/css">
   <![CDATA[
    .fil0 {fill:#2B2A29;fill-rule:nonzero}
   ]]>
  </style>
 </defs>
 <g id="Layer_x0020_1">
  <metadata id="CorelCorpID_0Corel-Layer"/>
  <path class="fil0" d="M751 1024c126,0 230,-58 291,-172 41,-76 58,-167 58,-253 0,-209 -85,-389 -254,-509 47,-14 85,-20 133,-20 145,0 274,95 340,224 43,83 64,162 64,256 1,146 -48,316 -183,388 -13,7 -20,16 -20,26 0,25 40,36 60,36l1238 0c19,0 61,-9 61,-36l0 -567c0,-241 -202,-396 -426,-396 -228,0 -410,146 -410,389l0 539 -336 0c104,-112 138,-229 138,-379 0,-100 -23,-187 -68,-276 -89,-174 -267,-274 -458,-274 -81,0 -151,13 -227,41 -76,-28 -146,-41 -227,-41 -189,0 -369,101 -457,274 -47,91 -68,195 -68,297 0,164 58,343 201,431 21,13 44,22 66,22 14,0 29,-4 42,-12 11,-6 16,-15 16,-23 0,-10 -7,-20 -19,-26 -135,-72 -183,-247 -183,-392 0,-95 19,-192 63,-277 64,-127 196,-225 339,-224 48,0 87,6 133,20 -167,120 -253,301 -253,509 0,86 18,178 58,253 60,114 163,172 288,172zm1665 -95l-591 0 0 -539c0,-179 103,-319 287,-319 180,0 304,145 304,324l0 534zm-1665 25c-80,0 -136,-52 -172,-123 -35,-70 -51,-158 -51,-232 0,-185 74,-356 224,-464 151,108 225,277 225,464 0,79 -15,163 -52,232 -37,68 -94,123 -174,123z"/>
 </g>
</svg>
