<?xml version="1.0" encoding="UTF-8"?>
<!DOCTYPE svg PUBLIC "-//W3C//DTD SVG 1.1//EN" "http://www.w3.org/Graphics/SVG/1.1/DTD/svg11.dtd">
<!-- Creator: CorelDRAW X8 -->
<svg xmlns="http://www.w3.org/2000/svg" xml:space="preserve" width="3083px" height="1486px" version="1.1" style="shape-rendering:geometricPrecision; text-rendering:geometricPrecision; image-rendering:optimizeQuality; fill-rule:evenodd; clip-rule:evenodd"
viewBox="0 0 3083 1486"
 xmlns:xlink="http://www.w3.org/1999/xlink">
 <defs>
  <style type="text/css">
   <![CDATA[
    .fil0 {fill:#B2B09C;fill-rule:nonzero}
   ]]>
  </style>
 </defs>
 <g id="Layer_x0020_1">
  <metadata id="CorelCorpID_0Corel-Layer"/>
  <path class="fil0" d="M2084 1c-157,0 -274,28 -378,154 -104,-126 -221,-154 -378,-154 -82,0 -151,13 -228,41 -74,-29 -147,-41 -227,-41 -189,-1 -368,100 -456,272 -47,90 -69,200 -69,302 1,163 58,339 202,428 33,20 72,31 107,10 24,-15 21,-37 -3,-50 -135,-71 -183,-244 -183,-388 0,-95 20,-199 63,-283 65,-126 196,-222 339,-222 49,0 87,8 133,20 -168,120 -252,307 -252,512 0,85 16,177 57,252 60,112 164,170 289,170 126,0 230,-58 291,-171 40,-75 57,-165 57,-251 0,-203 -85,-397 -254,-513 46,-13 87,-19 134,-19 188,2 317,124 317,317l0 602c0,26 41,35 61,35 20,0 61,-9 61,-35l0 -602c0,-194 126,-316 317,-317 48,0 87,8 133,19 -169,120 -253,305 -253,513 0,90 18,179 57,251 54,101 148,170 289,170 126,0 230,-58 291,-171 40,-75 57,-165 57,-250 0,-208 -85,-393 -253,-513 42,-12 79,-18 122,-19 141,-2 260,72 340,188 66,97 93,218 93,336 -1,253 -94,458 -302,601 -280,193 -697,218 -1026,221 -358,3 -813,-18 -1130,-198 -246,-141 -380,-356 -379,-645 1,-202 77,-406 254,-514 24,-14 21,-36 -2,-49 -26,-14 -62,-14 -87,1 -197,120 -288,336 -288,562 -1,343 179,579 475,726 335,166 788,190 1156,187 353,-3 776,-32 1084,-222 246,-153 369,-378 368,-670 0,-137 -36,-280 -121,-388 -106,-138 -264,-207 -434,-206 -77,1 -146,15 -218,41 -76,-28 -145,-40 -226,-40zm226 133c151,108 226,282 226,468 0,78 -15,161 -52,230 -37,67 -94,121 -174,121 -79,0 -136,-53 -172,-120 -37,-69 -52,-153 -52,-231 0,-186 73,-360 224,-468zm-1210 0c152,109 226,283 226,468 0,78 -15,162 -52,231 -37,67 -95,122 -174,122 -80,0 -136,-54 -172,-121 -37,-69 -52,-154 -52,-232 0,-183 74,-360 224,-468z"/>
 </g>
</svg>
