<?xml version="1.0" encoding="UTF-8"?>
<!DOCTYPE svg PUBLIC "-//W3C//DTD SVG 1.1//EN" "http://www.w3.org/Graphics/SVG/1.1/DTD/svg11.dtd">
<!-- Creator: CorelDRAW X8 -->
<svg xmlns="http://www.w3.org/2000/svg" xml:space="preserve" width="1894px" height="1486px" version="1.1" style="shape-rendering:geometricPrecision; text-rendering:geometricPrecision; image-rendering:optimizeQuality; fill-rule:evenodd; clip-rule:evenodd"
viewBox="0 0 1894 1486"
 xmlns:xlink="http://www.w3.org/1999/xlink">
 <defs>
  <style type="text/css">
   <![CDATA[
    .fil0 {fill:#B2B09C;fill-rule:nonzero}
   ]]>
  </style>
 </defs>
 <g id="Layer_x0020_1">
  <metadata id="CorelCorpID_0Corel-Layer"/>
  <path class="fil0" d="M660 963c-135,-71 -183,-245 -183,-388 0,-95 20,-199 63,-283 65,-126 196,-223 339,-222 48,0 87,8 133,20 -168,119 -252,306 -252,512 0,85 16,177 57,252 60,112 164,170 289,170 126,0 230,-58 291,-171 40,-75 57,-166 57,-251 0,-207 -84,-393 -253,-513 46,-14 84,-19 132,-19 85,0 164,31 229,85 144,117 209,318 209,500 1,219 -82,437 -250,580 -151,127 -346,180 -540,181 -182,2 -367,-41 -519,-145 -219,-148 -336,-401 -339,-665 -2,-213 75,-433 261,-547 23,-15 20,-37 -4,-50 -24,-13 -62,-12 -86,2 -205,126 -296,357 -294,595 3,285 133,551 367,710 181,123 401,172 616,170 200,-2 407,-49 575,-163 221,-151 336,-400 336,-668 0,-230 -92,-467 -296,-585 -80,-47 -172,-70 -265,-70 -80,0 -151,13 -227,41 -75,-28 -146,-40 -227,-41 -189,0 -368,101 -456,273 -47,90 -69,200 -69,302 0,162 58,339 202,428 33,20 72,31 107,9 24,-14 21,-36 -3,-49zm446 -829c152,108 226,283 226,468 0,78 -15,161 -52,231 -37,67 -95,122 -174,122 -80,0 -136,-54 -172,-122 -37,-68 -52,-153 -52,-231 0,-184 74,-360 224,-468z"/>
 </g>
</svg>
