<?xml version="1.0" encoding="UTF-8"?>
<!DOCTYPE svg PUBLIC "-//W3C//DTD SVG 1.1//EN" "http://www.w3.org/Graphics/SVG/1.1/DTD/svg11.dtd">
<!-- Creator: CorelDRAW X8 -->
<svg xmlns="http://www.w3.org/2000/svg" xml:space="preserve" width="2764px" height="1486px" version="1.1" style="shape-rendering:geometricPrecision; text-rendering:geometricPrecision; image-rendering:optimizeQuality; fill-rule:evenodd; clip-rule:evenodd"
viewBox="0 0 2763 1486"
 xmlns:xlink="http://www.w3.org/1999/xlink">
 <defs>
  <style type="text/css">
   <![CDATA[
    .fil0 {fill:#B2B09C;fill-rule:nonzero}
   ]]>
  </style>
 </defs>
 <g id="Layer_x0020_1">
  <metadata id="CorelCorpID_0Corel-Layer"/>
  <path class="fil0" d="M1962 1220c53,0 108,5 159,20 35,11 96,36 97,81 0,45 -63,72 -98,82 -51,15 -106,20 -158,20 -60,0 -133,-6 -189,-28 -29,-12 -73,-37 -73,-74 1,-37 45,-61 74,-73 56,-22 128,-28 188,-28zm-227 -1220c-156,0 -273,28 -377,154 -104,-125 -221,-154 -378,-154 -82,0 -150,13 -228,41 -74,-29 -147,-41 -227,-41 -189,-1 -368,100 -456,272 -46,90 -69,200 -69,302 0,163 58,340 201,428 33,20 73,31 108,10 24,-15 20,-37 -4,-50 -134,-71 -182,-244 -182,-388 0,-94 21,-198 64,-282 65,-126 196,-223 339,-222 48,0 86,7 133,19 -167,119 -254,305 -254,513 0,84 17,176 57,251 61,112 164,170 289,170 126,0 230,-58 291,-171 41,-75 57,-165 57,-250 0,-206 -85,-398 -253,-513 46,-13 87,-20 134,-19 189,1 317,123 317,316l-1 602c0,26 42,35 61,35 20,0 61,-9 61,-35l1 -602c0,-193 128,-316 316,-316 49,0 87,7 134,19 -169,120 -254,304 -254,512 0,85 16,176 57,251 60,112 164,170 289,170 126,0 230,-57 291,-170 40,-76 57,-166 57,-251 0,-207 -84,-393 -252,-512 46,-14 84,-19 132,-19 149,-1 273,93 353,216 73,113 100,248 99,382 -1,149 -33,303 -105,435 -52,96 -119,169 -212,228 1,-6 2,-12 1,-18 -1,-19 -9,-38 -25,-56 -38,-44 -109,-69 -157,-80 -59,-14 -120,-19 -181,-19 -66,0 -136,5 -200,22 -63,16 -170,60 -171,141 0,79 104,124 167,141 63,17 138,25 203,24 61,-1 121,-7 180,-19 196,-40 348,-143 465,-307 104,-144 154,-322 157,-498 3,-141 -30,-281 -103,-401 -101,-165 -281,-261 -471,-261 -80,0 -152,13 -227,41 -76,-29 -145,-41 -227,-41zm227 134c151,107 224,282 224,467 0,78 -14,161 -52,230 -36,67 -94,122 -173,122 -79,0 -136,-54 -172,-121 -37,-69 -52,-153 -52,-231 0,-186 73,-360 225,-467zm-1210 0c152,107 225,280 225,468 0,78 -15,161 -52,230 -36,67 -94,122 -174,122 -79,0 -135,-54 -171,-121 -38,-69 -52,-154 -52,-231 0,-186 74,-361 224,-468z"/>
 </g>
</svg>
