<?xml version="1.0" encoding="UTF-8"?>
<!DOCTYPE svg PUBLIC "-//W3C//DTD SVG 1.1//EN" "http://www.w3.org/Graphics/SVG/1.1/DTD/svg11.dtd">
<!-- Creator: CorelDRAW X8 -->
<svg xmlns="http://www.w3.org/2000/svg" xml:space="preserve" width="1667px" height="868px" version="1.1" style="shape-rendering:geometricPrecision; text-rendering:geometricPrecision; image-rendering:optimizeQuality; fill-rule:evenodd; clip-rule:evenodd"
viewBox="0 0 1667 868"
 xmlns:xlink="http://www.w3.org/1999/xlink">
 <defs>
  <style type="text/css">
   <![CDATA[
    .fil0 {fill:#00A0E3;fill-rule:nonzero}
   ]]>
  </style>
 </defs>
 <g id="Layer_x0020_1">
  <metadata id="CorelCorpID_0Corel-Layer"/>
  <path class="fil0" d="M1056 0c-83,0 -172,17 -227,80 -55,-63 -144,-80 -228,-80 -48,0 -91,7 -136,22 -43,-15 -92,-22 -137,-22 -118,0 -231,58 -286,161 -28,51 -42,112 -42,174 0,96 36,198 124,250 25,15 56,21 83,6 19,-11 16,-28 -3,-37 -78,-40 -106,-139 -106,-219 0,-57 13,-113 38,-159 36,-68 111,-123 192,-123 22,0 42,3 61,7 -96,65 -145,179 -145,291 0,53 12,105 35,146 39,69 106,103 185,103 80,0 147,-34 187,-103 23,-41 35,-93 35,-146 0,-110 -50,-228 -146,-291 21,-4 41,-7 61,-7 108,1 179,69 179,176l0 344c0,15 22,27 49,27 27,0 49,-12 49,-27l0 -344c0,-106 68,-176 178,-176 22,0 42,3 61,7 -96,66 -145,178 -145,290 0,54 12,106 35,147 39,69 106,102 185,102 80,0 147,-33 187,-103 23,-41 35,-92 35,-146 0,-111 -50,-225 -145,-290 19,-5 40,-7 60,-7 71,0 133,39 174,93 48,61 69,142 66,218 -4,77 -33,152 -90,207 -49,46 -109,64 -176,64l-1125 0c-121,0 -177,42 -178,114 -2,99 96,119 178,119l1416 0c27,0 49,-18 49,-40 0,-23 -22,-41 -49,-41l-1416 0c-52,0 -78,-12 -79,-48 -1,-35 25,-51 79,-51l1101 0c105,0 208,-17 285,-91 65,-63 98,-147 102,-232 5,-99 -28,-198 -96,-268 -63,-64 -150,-97 -241,-97 -46,0 -93,7 -137,22 -40,-14 -85,-22 -136,-22zm136 94c82,56 124,161 124,256 0,49 -10,95 -31,131 -19,34 -50,65 -93,65 -42,0 -73,-31 -92,-65 -20,-36 -30,-83 -30,-131 0,-95 40,-200 122,-256zm-728 0c83,56 124,161 124,257 0,48 -10,94 -31,130 -19,34 -51,66 -93,66 -42,0 -73,-31 -92,-65 -20,-36 -30,-83 -30,-131 0,-95 41,-201 122,-257z"/>
 </g>
</svg>
