<?xml version="1.0" encoding="UTF-8"?>
<!DOCTYPE svg PUBLIC "-//W3C//DTD SVG 1.1//EN" "http://www.w3.org/Graphics/SVG/1.1/DTD/svg11.dtd">
<!-- Creator: CorelDRAW X8 -->
<svg xmlns="http://www.w3.org/2000/svg" xml:space="preserve" width="1658px" height="600px" version="1.1" style="shape-rendering:geometricPrecision; text-rendering:geometricPrecision; image-rendering:optimizeQuality; fill-rule:evenodd; clip-rule:evenodd"
viewBox="0 0 1658 600"
 xmlns:xlink="http://www.w3.org/1999/xlink">
 <defs>
  <style type="text/css">
   <![CDATA[
    .fil0 {fill:#00A0E3;fill-rule:nonzero}
   ]]>
  </style>
 </defs>
 <g id="Layer_x0020_1">
  <metadata id="CorelCorpID_0Corel-Layer"/>
  <path class="fil0" d="M1056 0c-83,0 -172,17 -227,80 -55,-63 -144,-80 -228,-80 -48,0 -91,7 -136,22 -42,-15 -92,-22 -137,-22 -118,0 -231,59 -286,162 -28,51 -42,110 -42,172 0,96 36,199 124,251 25,15 56,21 83,6 19,-11 16,-28 -3,-38 -78,-39 -106,-139 -106,-219 0,-57 13,-112 38,-157 36,-68 111,-124 192,-124 22,0 42,3 61,8 -95,65 -145,177 -145,289 0,53 12,106 35,147 39,69 106,103 185,103 80,0 148,-34 187,-103 23,-42 35,-94 35,-147 0,-110 -50,-227 -146,-290 21,-4 41,-7 61,-7 109,1 179,69 179,177l0 343c0,15 22,27 49,27 27,0 49,-12 49,-27l0 -343c0,-107 69,-176 178,-177 22,0 42,3 61,7 -96,66 -145,177 -145,289 0,54 12,106 35,147 39,70 106,103 186,103 79,0 147,-33 186,-103 23,-41 35,-93 35,-147 0,-111 -49,-223 -145,-289 19,-4 39,-7 60,-7 83,0 156,54 193,124 25,45 38,102 38,159 0,80 -28,178 -106,218 -19,9 -22,26 -3,37 26,15 57,9 82,-5 89,-52 125,-153 125,-250 0,-62 -15,-124 -42,-174 -55,-104 -168,-162 -287,-162 -51,0 -97,8 -136,22 -41,-14 -86,-22 -137,-22zm137 94c82,56 123,160 123,255 0,49 -10,95 -31,131 -19,34 -50,66 -92,66 -43,0 -73,-31 -93,-65 -20,-36 -30,-83 -30,-132 0,-95 40,-198 123,-255zm-729 0c83,57 124,160 124,256 0,48 -10,94 -31,131 -19,34 -51,66 -93,66 -42,0 -73,-32 -92,-66 -20,-36 -30,-83 -30,-131 0,-95 41,-200 122,-256z"/>
 </g>
</svg>
