<?xml version="1.0" encoding="UTF-8"?>
<!DOCTYPE svg PUBLIC "-//W3C//DTD SVG 1.1//EN" "http://www.w3.org/Graphics/SVG/1.1/DTD/svg11.dtd">
<!-- Creator: CorelDRAW X8 -->
<svg xmlns="http://www.w3.org/2000/svg" xml:space="preserve" width="1658px" height="600px" version="1.1" style="shape-rendering:geometricPrecision; text-rendering:geometricPrecision; image-rendering:optimizeQuality; fill-rule:evenodd; clip-rule:evenodd"
viewBox="0 0 1658 600"
 xmlns:xlink="http://www.w3.org/1999/xlink">
 <defs>
  <style type="text/css">
   <![CDATA[
    .fil0 {fill:#2B2A29;fill-rule:nonzero}
   ]]>
  </style>
 </defs>
 <g id="Layer_x0020_1">
  <metadata id="CorelCorpID_0Corel-Layer"/>
  <path class="fil0" d="M1484 600c17,0 34,-6 49,-14 89,-52 125,-153 125,-250 0,-62 -14,-124 -42,-174 -56,-105 -168,-162 -287,-162 -51,0 -97,8 -136,22 -41,-14 -86,-22 -137,-22 -83,0 -173,17 -227,80 -55,-64 -144,-80 -228,-80 -48,0 -91,7 -136,22 -44,-15 -91,-22 -137,-22 -117,0 -231,59 -286,162 -28,51 -42,110 -42,172 0,96 36,199 125,251 15,9 31,15 48,15 12,0 23,-3 33,-9 9,-5 14,-12 14,-18 0,-8 -6,-15 -16,-20 -78,-39 -106,-139 -106,-219 0,-57 13,-111 37,-157 38,-69 111,-124 193,-124 22,0 42,3 61,7 -95,66 -145,178 -145,290 0,53 12,106 35,147 39,69 106,103 185,103 79,0 147,-34 187,-104 23,-41 35,-92 35,-146 0,-110 -50,-227 -146,-290 21,-4 41,-7 61,-7 109,1 179,69 179,177l0 343c0,15 22,26 49,26 27,0 49,-11 49,-26l0 -343c0,-107 69,-177 178,-177 22,0 42,3 62,7 -97,66 -146,177 -146,289 0,54 12,106 35,147 39,69 106,104 186,103 79,0 147,-34 186,-103 23,-41 35,-93 35,-147 0,-112 -49,-223 -145,-289 19,-4 39,-7 60,-7 82,0 156,54 194,123 24,47 37,103 37,160 0,80 -28,178 -106,218 -10,5 -16,12 -16,19 0,6 5,13 14,18 10,7 21,9 32,9zm-291 -54c-43,0 -73,-31 -92,-65 -20,-36 -31,-83 -31,-132 0,-95 40,-198 123,-255 82,57 123,160 123,255 0,49 -10,95 -31,131 -19,34 -50,66 -92,66zm-729 1c-42,0 -73,-31 -92,-65 -20,-37 -30,-84 -30,-132 0,-95 41,-200 123,-256 82,57 123,160 123,256 0,48 -10,94 -31,131 -19,34 -50,66 -93,66z"/>
 </g>
</svg>
