<?xml version="1.0" encoding="UTF-8"?>
<!DOCTYPE svg PUBLIC "-//W3C//DTD SVG 1.1//EN" "http://www.w3.org/Graphics/SVG/1.1/DTD/svg11.dtd">
<!-- Creator: CorelDRAW X8 -->
<svg xmlns="http://www.w3.org/2000/svg" xml:space="preserve" width="1288px" height="1000px" version="1.1" style="shape-rendering:geometricPrecision; text-rendering:geometricPrecision; image-rendering:optimizeQuality; fill-rule:evenodd; clip-rule:evenodd"
viewBox="0 0 1288 1000"
 xmlns:xlink="http://www.w3.org/1999/xlink">
 <defs>
  <style type="text/css">
   <![CDATA[
    .fil0 {fill:#00A0E3;fill-rule:nonzero}
   ]]>
  </style>
 </defs>
 <g id="Layer_x0020_1">
  <metadata id="CorelCorpID_0Corel-Layer"/>
  <path class="fil0" d="M452 390l0 540 -329 0 0 -895c0,-26 -42,-35 -62,-35 -19,0 -61,9 -61,35l0 930c0,26 42,35 61,35l1166 0c19,0 61,-9 61,-35l0 -568c0,-241 -202,-397 -425,-397 -229,0 -411,147 -411,390zm122 0c0,-179 103,-319 287,-319 180,0 305,146 304,326l0 533 -591 0 0 -540z"/>
 </g>
</svg>
