<?xml version="1.0" encoding="UTF-8"?>
<!DOCTYPE svg PUBLIC "-//W3C//DTD SVG 1.1//EN" "http://www.w3.org/Graphics/SVG/1.1/DTD/svg11.dtd">
<!-- Creator: CorelDRAW X8 -->
<svg xmlns="http://www.w3.org/2000/svg" xml:space="preserve" width="1813px" height="1486px" version="1.1" style="shape-rendering:geometricPrecision; text-rendering:geometricPrecision; image-rendering:optimizeQuality; fill-rule:evenodd; clip-rule:evenodd"
viewBox="0 0 1813 1486"
 xmlns:xlink="http://www.w3.org/1999/xlink">
 <defs>
  <style type="text/css">
   <![CDATA[
    .fil0 {fill:#2B2A29;fill-rule:nonzero}
   ]]>
  </style>
 </defs>
 <g id="Layer_x0020_1">
  <metadata id="CorelCorpID_0Corel-Layer"/>
  <path class="fil0" d="M1012 1486c289,0 801,-98 801,-475l0 -617c0,-239 -202,-394 -425,-394 -229,0 -411,146 -411,387l0 543 -329 0 0 -895c0,-26 -42,-35 -62,-35 -19,0 -61,9 -61,35l0 930c0,26 42,35 61,35l1103 0c0,336 -416,416 -679,416 -235,0 -471,-63 -646,-227 -166,-154 -241,-353 -241,-577 0,-204 67,-432 237,-556 9,-7 12,-14 12,-20 0,-12 -10,-23 -24,-29 -10,-5 -23,-7 -37,-7 -17,0 -36,4 -49,14 -183,136 -262,377 -262,598 0,270 104,501 319,664 198,151 449,211 693,210zm678 -556l-591 0 0 -543c0,-178 103,-317 287,-317 181,0 305,145 305,324l-1 536z"/>
 </g>
</svg>
