<?xml version="1.0" encoding="UTF-8"?>
<!DOCTYPE svg PUBLIC "-//W3C//DTD SVG 1.1//EN" "http://www.w3.org/Graphics/SVG/1.1/DTD/svg11.dtd">
<!-- Creator: CorelDRAW X8 -->
<svg xmlns="http://www.w3.org/2000/svg" xml:space="preserve" width="979px" height="1024px" version="1.1" style="shape-rendering:geometricPrecision; text-rendering:geometricPrecision; image-rendering:optimizeQuality; fill-rule:evenodd; clip-rule:evenodd"
viewBox="0 0 979 1024"
 xmlns:xlink="http://www.w3.org/1999/xlink">
 <defs>
  <style type="text/css">
   <![CDATA[
    .fil0 {fill:#2B2A29;fill-rule:nonzero}
   ]]>
  </style>
 </defs>
 <g id="Layer_x0020_1">
  <metadata id="CorelCorpID_0Corel-Layer"/>
  <path class="fil0" d="M199 1024c9,0 19,-1 28,-4 15,-4 35,-16 35,-31 0,-5 -2,-10 -6,-15 -91,-109 -133,-265 -133,-409 0,-136 32,-284 130,-383 78,-80 185,-112 293,-112 79,0 163,18 224,72 50,45 73,107 73,174 1,93 -50,140 -119,164 -36,13 -77,18 -118,18l-89 0c-19,0 -61,8 -61,35 0,26 42,35 62,35 31,0 59,-2 88,-2 39,0 78,4 120,18 79,27 130,87 130,171 0,54 -14,100 -40,133 -34,41 -87,64 -155,64 -43,0 -82,-10 -121,-27 -11,-5 -24,-8 -38,-8 -18,0 -35,4 -48,13 -9,6 -13,14 -13,21 0,11 8,21 22,28 61,29 131,43 198,43 78,0 155,-15 220,-61 69,-49 98,-122 98,-206 0,-109 -71,-189 -164,-224 91,-38 150,-106 150,-215 0,-103 -44,-187 -131,-242 -83,-53 -192,-74 -288,-74 -126,0 -252,28 -353,107 -140,110 -193,288 -193,460 0,151 44,309 138,427 17,21 38,30 61,30z"/>
 </g>
</svg>
