<?xml version="1.0" encoding="UTF-8"?>
<!DOCTYPE svg PUBLIC "-//W3C//DTD SVG 1.1//EN" "http://www.w3.org/Graphics/SVG/1.1/DTD/svg11.dtd">
<!-- Creator: CorelDRAW X8 -->
<svg xmlns="http://www.w3.org/2000/svg" xml:space="preserve" width="979px" height="1024px" version="1.1" style="shape-rendering:geometricPrecision; text-rendering:geometricPrecision; image-rendering:optimizeQuality; fill-rule:evenodd; clip-rule:evenodd"
viewBox="0 0 979 1024"
 xmlns:xlink="http://www.w3.org/1999/xlink">
 <defs>
  <style type="text/css">
   <![CDATA[
    .fil0 {fill:#B2B09C;fill-rule:nonzero}
   ]]>
  </style>
 </defs>
 <g id="Layer_x0020_1">
  <metadata id="CorelCorpID_0Corel-Layer"/>
  <path class="fil0" d="M463 979c65,30 140,45 211,43 72,-1 147,-18 207,-61 70,-50 99,-124 98,-210 -2,-109 -74,-177 -164,-220 92,-44 151,-107 150,-218 -1,-103 -46,-185 -131,-239 -85,-54 -197,-75 -295,-74 -123,1 -247,29 -346,107 -124,97 -179,245 -191,401 -13,168 30,353 136,486 23,29 55,35 89,26 20,-5 48,-24 29,-46 -103,-124 -144,-308 -131,-467 9,-118 44,-240 128,-325 78,-80 177,-111 285,-112 79,0 171,18 232,72 50,45 72,104 73,171 0,81 -39,139 -115,165 -66,23 -141,20 -211,20 -19,0 -61,8 -61,35 0,26 42,35 62,35 73,0 136,-9 208,16 74,24 129,85 130,167 1,49 -10,99 -40,137 -34,43 -88,63 -141,64 -44,1 -94,-9 -135,-27 -24,-12 -63,-11 -86,5 -23,16 -14,38 9,49z"/>
 </g>
</svg>
