<?xml version="1.0" encoding="UTF-8"?>
<!DOCTYPE svg PUBLIC "-//W3C//DTD SVG 1.1//EN" "http://www.w3.org/Graphics/SVG/1.1/DTD/svg11.dtd">
<!-- Creator: CorelDRAW X8 -->
<svg xmlns="http://www.w3.org/2000/svg" xml:space="preserve" width="616px" height="600px" version="1.1" style="shape-rendering:geometricPrecision; text-rendering:geometricPrecision; image-rendering:optimizeQuality; fill-rule:evenodd; clip-rule:evenodd"
viewBox="0 0 616 600"
 xmlns:xlink="http://www.w3.org/1999/xlink">
 <defs>
  <style type="text/css">
   <![CDATA[
    .fil0 {fill:#00A0E3;fill-rule:nonzero}
   ]]>
  </style>
 </defs>
 <g id="Layer_x0020_1">
  <metadata id="CorelCorpID_0Corel-Layer"/>
  <path class="fil0" d="M284 573c40,17 88,27 136,26 46,-1 96,-11 134,-38 43,-28 63,-71 62,-124 -1,-57 -41,-103 -92,-126 52,-24 84,-68 84,-125 -1,-67 -35,-112 -83,-142 -53,-32 -124,-44 -187,-44 -89,1 -163,22 -219,64 -68,50 -109,129 -118,233 -8,98 19,205 83,282 18,21 45,25 70,18 16,-4 39,-18 24,-35 -62,-70 -86,-175 -78,-265 6,-75 30,-140 75,-183 39,-38 92,-60 163,-61 49,0 97,12 129,39 26,21 42,52 43,94 0,43 -21,75 -64,89 -38,12 -85,10 -121,10 -27,0 -49,12 -49,27 0,20 34,27 49,27 25,0 76,-6 120,8 42,13 72,46 73,90 0,28 -7,55 -24,76 -18,21 -46,32 -74,33 -24,0 -52,-5 -74,-15 -19,-8 -51,-8 -69,4 -19,13 -11,29 7,38z"/>
 </g>
</svg>
