<?xml version="1.0" encoding="UTF-8"?>
<!DOCTYPE svg PUBLIC "-//W3C//DTD SVG 1.1//EN" "http://www.w3.org/Graphics/SVG/1.1/DTD/svg11.dtd">
<!-- Creator: CorelDRAW X8 -->
<svg xmlns="http://www.w3.org/2000/svg" xml:space="preserve" width="2118px" height="1486px" version="1.1" style="shape-rendering:geometricPrecision; text-rendering:geometricPrecision; image-rendering:optimizeQuality; fill-rule:evenodd; clip-rule:evenodd"
viewBox="0 0 2118 1486"
 xmlns:xlink="http://www.w3.org/1999/xlink">
 <defs>
  <style type="text/css">
   <![CDATA[
    .fil0 {fill:#2B2A29;fill-rule:nonzero}
   ]]>
  </style>
 </defs>
 <g id="Layer_x0020_1">
  <metadata id="CorelCorpID_0Corel-Layer"/>
  <path class="fil0" d="M1641 1024c134,0 259,-53 345,-152 -10,165 -97,352 -231,446 -23,16 -48,30 -75,46 10,-21 15,-44 15,-68 0,-45 -29,-78 -65,-101 -40,-26 -98,-36 -145,-36 -62,0 -107,13 -158,47 -52,-34 -96,-47 -159,-47 -47,0 -105,10 -145,36 -37,23 -64,58 -64,104 0,73 71,130 134,154 73,26 157,34 234,34 85,-1 180,-11 270,-33 73,-18 143,-44 203,-80 171,-104 259,-274 295,-464 17,-85 23,-171 23,-258 0,-118 -15,-271 -59,-383 -44,-110 -118,-207 -231,-258 -13,-6 -28,-9 -43,-9 -17,0 -34,4 -47,14 -9,7 -13,14 -13,21 0,12 10,22 24,28 166,72 231,281 231,449 0,72 -10,146 -36,213 -50,128 -163,227 -303,227 -172,0 -252,-123 -252,-288l0 -628c0,-27 -42,-35 -62,-35 -19,0 -61,8 -61,35l0 629c0,116 -47,193 -152,240 -80,36 -163,41 -247,46 77,-48 113,-115 113,-207 0,-109 -72,-180 -165,-215 91,-38 151,-106 151,-215 0,-103 -45,-187 -132,-242 -83,-53 -192,-74 -288,-74 -126,0 -252,28 -353,107 -140,110 -193,288 -193,460 0,151 44,309 138,427 17,21 38,30 61,30 9,0 19,-1 28,-4 15,-4 35,-16 35,-31 0,-5 -2,-10 -6,-15 -91,-109 -133,-265 -133,-409 0,-135 33,-283 130,-383 79,-80 185,-111 293,-112 79,0 164,18 224,72 51,45 73,107 74,174 0,93 -51,140 -120,164 -36,13 -76,18 -118,18l-89 0c-19,0 -61,8 -61,35 0,26 42,35 62,35 31,0 59,-2 88,-2 39,0 78,4 120,18 79,27 130,78 130,162 0,54 -14,91 -40,124 -33,41 -86,64 -155,64 -43,0 -82,-10 -121,-27 -11,-5 -24,-8 -38,-8 -18,0 -35,4 -48,13 -9,6 -13,14 -13,21 0,11 8,22 22,28 108,51 268,62 385,62 114,0 236,-14 340,-60 55,-24 88,-49 131,-89 85,111 184,150 322,150zm-315 406c-66,0 -145,-6 -206,-33 -41,-19 -72,-49 -72,-97 0,-62 68,-87 120,-87 67,0 108,41 108,109 0,24 32,30 51,30 18,0 51,-6 51,-30 1,-68 41,-109 107,-109 50,0 121,25 121,85 0,49 -32,79 -73,99 -61,28 -140,33 -207,33z"/>
 </g>
</svg>
