<?xml version="1.0" encoding="UTF-8"?>
<!DOCTYPE svg PUBLIC "-//W3C//DTD SVG 1.1//EN" "http://www.w3.org/Graphics/SVG/1.1/DTD/svg11.dtd">
<!-- Creator: CorelDRAW X8 -->
<svg xmlns="http://www.w3.org/2000/svg" xml:space="preserve" width="1062px" height="1486px" version="1.1" style="shape-rendering:geometricPrecision; text-rendering:geometricPrecision; image-rendering:optimizeQuality; fill-rule:evenodd; clip-rule:evenodd"
viewBox="0 0 1062 1486"
 xmlns:xlink="http://www.w3.org/1999/xlink">
 <defs>
  <style type="text/css">
   <![CDATA[
    .fil0 {fill:#2B2A29;fill-rule:nonzero}
   ]]>
  </style>
 </defs>
 <g id="Layer_x0020_1">
  <metadata id="CorelCorpID_0Corel-Layer"/>
  <path class="fil0" d="M199 1024c9,0 19,-1 28,-4 15,-4 35,-16 35,-31 0,-5 -2,-10 -6,-15 -91,-109 -133,-265 -133,-409 0,-136 32,-284 130,-383 78,-80 185,-112 293,-112 79,-1 163,17 224,72 50,45 73,107 73,174 1,92 -50,140 -119,164 -36,13 -77,18 -118,18l-89 0c-19,0 -61,8 -61,35 0,26 42,35 62,35 31,0 59,-2 88,-2 44,0 83,6 119,16 156,47 232,189 232,340 0,147 -48,302 -154,390 -18,-86 -111,-118 -186,-135 -60,-14 -121,-19 -182,-19 -65,0 -135,6 -199,22 -64,16 -171,60 -171,141 0,79 103,124 166,141 60,16 130,24 204,24 71,0 140,-6 208,-24 131,-34 253,-114 328,-227 64,-97 91,-196 91,-313 0,-179 -75,-328 -247,-391 91,-38 150,-106 150,-215 0,-103 -44,-187 -131,-242 -83,-53 -192,-74 -288,-74 -126,0 -252,28 -353,107 -140,110 -193,288 -193,460 0,151 44,309 138,427 17,21 38,30 61,30zm237 399c-179,0 -263,-51 -263,-103 0,-51 94,-100 263,-100 168,0 256,53 256,100 0,50 -80,103 -256,103z"/>
 </g>
</svg>
