<?xml version="1.0" encoding="UTF-8"?>
<!DOCTYPE svg PUBLIC "-//W3C//DTD SVG 1.1//EN" "http://www.w3.org/Graphics/SVG/1.1/DTD/svg11.dtd">
<!-- Creator: CorelDRAW X8 -->
<svg xmlns="http://www.w3.org/2000/svg" xml:space="preserve" width="982px" height="1486px" version="1.1" style="shape-rendering:geometricPrecision; text-rendering:geometricPrecision; image-rendering:optimizeQuality; fill-rule:evenodd; clip-rule:evenodd"
viewBox="0 0 982 1486"
 xmlns:xlink="http://www.w3.org/1999/xlink">
 <defs>
  <style type="text/css">
   <![CDATA[
    .fil0 {fill:#CC9933;fill-rule:nonzero}
   ]]>
  </style>
 </defs>
 <g id="Layer_x0020_1">
  <metadata id="CorelCorpID_0Corel-Layer"/>
  <path class="fil0" d="M409 1430c-66,0 -145,-5 -206,-33 -42,-19 -74,-52 -72,-101 2,-60 71,-83 120,-83 67,0 108,41 108,108 0,24 32,31 51,31 18,0 51,-6 51,-31 0,-66 40,-108 106,-108 50,0 120,23 122,83 1,49 -31,82 -73,101 -61,28 -140,33 -207,33zm328 -515c-70,21 -147,19 -220,19 -19,0 -61,9 -61,35 0,27 43,35 63,35 90,3 174,-20 261,26 56,29 94,69 98,133 6,92 -45,160 -116,208 11,-18 17,-42 17,-66 0,-50 -24,-84 -65,-111 -41,-26 -99,-35 -146,-35 -62,0 -107,12 -158,47 -52,-35 -97,-47 -159,-47 -47,0 -105,9 -145,35 -36,23 -63,58 -64,102 -1,75 71,133 134,156 74,27 159,35 237,34 92,-1 181,-2 270,-22 59,-13 115,-37 165,-70 81,-54 136,-129 134,-230 -2,-94 -54,-159 -134,-202 84,-50 136,-126 132,-228 -4,-110 -74,-170 -168,-202 94,-45 154,-109 153,-221 -1,-103 -46,-183 -131,-238 -85,-53 -197,-74 -295,-73 -123,1 -247,29 -346,106 -124,97 -179,244 -191,398 -13,168 30,358 136,490 16,21 38,30 61,30 9,0 18,-1 28,-4 15,-4 35,-16 35,-31 0,-5 -1,-10 -6,-15 -103,-123 -144,-312 -131,-471 9,-117 44,-238 128,-323 78,-79 177,-109 286,-110 78,-1 170,18 231,71 50,44 72,103 73,170 1,80 -39,141 -115,167 -66,23 -141,19 -211,19 -19,0 -61,9 -61,35 0,27 42,35 62,35 73,0 136,-9 208,16 68,22 131,76 136,153 5,79 -52,156 -125,179z"/>
 </g>
</svg>
