<?xml version="1.0" encoding="UTF-8"?>
<!DOCTYPE svg PUBLIC "-//W3C//DTD SVG 1.1//EN" "http://www.w3.org/Graphics/SVG/1.1/DTD/svg11.dtd">
<!-- Creator: CorelDRAW X8 -->
<svg xmlns="http://www.w3.org/2000/svg" xml:space="preserve" width="2102px" height="1024px" version="1.1" style="shape-rendering:geometricPrecision; text-rendering:geometricPrecision; image-rendering:optimizeQuality; fill-rule:evenodd; clip-rule:evenodd"
viewBox="0 0 2102 1024"
 xmlns:xlink="http://www.w3.org/1999/xlink">
 <defs>
  <style type="text/css">
   <![CDATA[
    .fil0 {fill:#2B2A29;fill-rule:nonzero}
   ]]>
  </style>
 </defs>
 <g id="Layer_x0020_1">
  <metadata id="CorelCorpID_0Corel-Layer"/>
  <path class="fil0" d="M1640 1024c176,0 336,-91 412,-256 36,-78 50,-167 50,-254 0,-200 -82,-416 -275,-503 -13,-6 -28,-9 -43,-9 -17,0 -34,4 -47,14 -9,7 -13,14 -13,21 0,12 10,22 24,28 167,72 231,281 231,449 0,72 -10,146 -36,213 -49,128 -163,227 -303,227 -172,0 -252,-123 -252,-288l0 -628c0,-27 -42,-35 -62,-35 -19,0 -61,8 -61,35l0 629c0,116 -46,193 -152,240 -79,35 -163,41 -247,46 78,-48 113,-115 113,-207 0,-109 -71,-180 -164,-215 91,-38 150,-106 150,-215 0,-103 -44,-187 -131,-242 -83,-53 -192,-74 -288,-74 -126,0 -252,28 -353,107 -140,110 -193,288 -193,460 0,151 44,309 138,427 17,21 38,30 61,30 9,0 19,-1 28,-4 15,-4 35,-16 35,-31 0,-5 -2,-10 -6,-15 -91,-109 -133,-265 -133,-409 0,-136 32,-284 130,-383 78,-80 185,-112 293,-112 79,0 163,18 224,72 50,45 73,107 73,174 1,93 -50,140 -119,164 -36,13 -77,18 -118,18l-89 0c-19,0 -61,8 -61,35 0,26 42,35 62,35 31,0 59,-2 88,-2 39,0 78,4 120,18 79,27 130,78 130,162 0,54 -14,91 -41,124 -33,41 -86,64 -154,64 -43,0 -82,-10 -121,-27 -11,-5 -24,-8 -38,-8 -18,0 -35,4 -48,13 -9,6 -13,14 -13,21 0,11 8,21 22,28 108,51 268,62 385,62 113,0 236,-14 340,-60 55,-24 87,-49 130,-89 85,111 184,150 322,150z"/>
 </g>
</svg>
