<?xml version="1.0" encoding="UTF-8"?>
<!DOCTYPE svg PUBLIC "-//W3C//DTD SVG 1.1//EN" "http://www.w3.org/Graphics/SVG/1.1/DTD/svg11.dtd">
<!-- Creator: CorelDRAW X8 -->
<svg xmlns="http://www.w3.org/2000/svg" xml:space="preserve" width="1062px" height="1486px" version="1.1" style="shape-rendering:geometricPrecision; text-rendering:geometricPrecision; image-rendering:optimizeQuality; fill-rule:evenodd; clip-rule:evenodd"
viewBox="0 0 1062 1486"
 xmlns:xlink="http://www.w3.org/1999/xlink">
 <defs>
  <style type="text/css">
   <![CDATA[
    .fil0 {fill:#CC9933;fill-rule:nonzero}
   ]]>
  </style>
 </defs>
 <g id="Layer_x0020_1">
  <metadata id="CorelCorpID_0Corel-Layer"/>
  <path class="fil0" d="M435 1220c53,0 109,5 160,20 35,11 96,36 96,81 1,45 -63,72 -98,82 -50,15 -105,20 -158,20 -59,0 -132,-6 -188,-28 -30,-12 -74,-37 -73,-74 0,-37 44,-61 74,-73 56,-22 128,-28 187,-28zm368 92c-2,-8 -4,-15 -7,-22 -26,-64 -98,-94 -179,-113 -60,-14 -121,-19 -182,-19 -65,0 -135,5 -199,22 -64,16 -171,60 -171,141 0,79 103,124 166,141 64,17 138,25 204,24 78,-2 154,-7 230,-30 123,-39 233,-111 306,-221 64,-97 91,-210 91,-327 0,-183 -77,-306 -241,-381 89,-45 145,-110 144,-216 -1,-103 -46,-183 -132,-238 -84,-53 -196,-74 -294,-73 -123,1 -247,29 -346,106 -124,97 -179,244 -191,398 -13,167 30,358 136,490 16,20 38,30 61,30 9,0 18,-2 28,-4 15,-4 35,-16 35,-32 0,-4 -2,-9 -6,-15 -103,-123 -144,-312 -131,-470 9,-117 44,-238 128,-323 77,-79 177,-109 285,-110 79,-1 170,18 232,71 50,44 72,103 72,169 1,81 -39,142 -114,168 -67,23 -141,19 -211,19 -20,0 -61,9 -61,35 0,26 42,35 62,35 68,0 130,-9 198,10 151,42 225,182 239,330 10,102 -6,204 -55,290 -24,43 -56,82 -97,115z"/>
 </g>
</svg>
