<?xml version="1.0" encoding="UTF-8"?>
<!DOCTYPE svg PUBLIC "-//W3C//DTD SVG 1.1//EN" "http://www.w3.org/Graphics/SVG/1.1/DTD/svg11.dtd">
<!-- Creator: CorelDRAW X8 -->
<svg xmlns="http://www.w3.org/2000/svg" xml:space="preserve" width="666px" height="868px" version="1.1" style="shape-rendering:geometricPrecision; text-rendering:geometricPrecision; image-rendering:optimizeQuality; fill-rule:evenodd; clip-rule:evenodd"
viewBox="0 0 666 868"
 xmlns:xlink="http://www.w3.org/1999/xlink">
 <defs>
  <style type="text/css">
   <![CDATA[
    .fil0 {fill:#00A0E3;fill-rule:nonzero}
   ]]>
  </style>
 </defs>
 <g id="Layer_x0020_1">
  <metadata id="CorelCorpID_0Corel-Layer"/>
  <path class="fil0" d="M275 715c39,0 68,4 91,11 34,10 52,25 52,41 0,15 -18,31 -53,41 -23,7 -52,11 -90,11 -46,0 -83,-6 -107,-15 -26,-10 -39,-24 -39,-37 0,-14 14,-27 40,-37 24,-9 60,-15 106,-15zm50 -378c40,0 75,-5 115,6 87,23 129,105 137,186 9,84 -18,175 -71,224 -12,-43 -75,-66 -117,-75 -32,-7 -69,-12 -114,-12 -49,0 -92,5 -125,14 -74,18 -111,52 -111,87 0,34 36,68 108,87 39,10 88,15 128,14 50,-1 96,-4 145,-18 78,-24 146,-67 190,-130 35,-51 56,-114 56,-191 0,-103 -49,-182 -139,-221 50,-24 81,-67 80,-123 0,-66 -34,-112 -82,-141 -54,-32 -124,-44 -188,-44 -88,1 -162,22 -218,64 -68,50 -109,128 -118,232 -8,98 19,206 83,283 17,21 45,25 70,18 16,-4 39,-18 24,-35 -62,-70 -86,-176 -78,-266 6,-75 30,-139 75,-183 39,-37 91,-59 162,-60 50,0 98,12 130,38 26,22 42,52 42,94 1,43 -21,75 -63,89 -38,13 -85,10 -121,10 -28,0 -50,12 -50,27 0,20 34,26 50,26z"/>
 </g>
</svg>
