<?xml version="1.0" encoding="UTF-8"?>
<!DOCTYPE svg PUBLIC "-//W3C//DTD SVG 1.1//EN" "http://www.w3.org/Graphics/SVG/1.1/DTD/svg11.dtd">
<!-- Creator: CorelDRAW X8 -->
<svg xmlns="http://www.w3.org/2000/svg" xml:space="preserve" width="666px" height="868px" version="1.1" style="shape-rendering:geometricPrecision; text-rendering:geometricPrecision; image-rendering:optimizeQuality; fill-rule:evenodd; clip-rule:evenodd"
viewBox="0 0 666 868"
 xmlns:xlink="http://www.w3.org/1999/xlink">
 <defs>
  <style type="text/css">
   <![CDATA[
    .fil0 {fill:#B2B09C;fill-rule:nonzero}
   ]]>
  </style>
 </defs>
 <g id="Layer_x0020_1">
  <metadata id="CorelCorpID_0Corel-Layer"/>
  <path class="fil0" d="M275 715c-46,0 -82,6 -106,15 -26,10 -40,23 -40,37 0,13 13,27 39,37 24,9 61,15 107,15 38,0 67,-4 90,-11 35,-10 53,-26 53,-41 0,-16 -18,-31 -52,-41 -23,-7 -52,-11 -91,-11zm50 -378c-16,0 -50,-6 -50,-26 0,-15 22,-27 50,-27 36,0 83,3 121,-10 42,-14 64,-46 63,-89 0,-42 -16,-72 -42,-94 -32,-26 -80,-38 -130,-38 -71,1 -123,23 -162,60 -45,44 -69,108 -75,183 -8,90 16,196 78,266 15,17 -8,31 -24,35 -25,7 -53,3 -70,-18 -64,-77 -91,-185 -83,-283 9,-104 50,-182 118,-232 56,-42 130,-63 218,-64 64,0 134,12 188,44 48,29 82,75 82,141 1,56 -30,99 -80,123 90,39 139,118 139,221 0,77 -21,140 -56,191 -44,63 -112,106 -190,130 -49,14 -95,17 -145,18 -40,1 -89,-4 -128,-14 -72,-19 -108,-53 -108,-87 0,-35 37,-69 111,-87 33,-9 76,-14 125,-14 45,0 82,5 114,12 42,9 105,32 117,75 53,-49 80,-140 71,-224 -8,-81 -50,-163 -137,-186 -40,-11 -75,-6 -115,-6z"/>
 </g>
</svg>
