<?xml version="1.0" encoding="UTF-8"?>
<!DOCTYPE svg PUBLIC "-//W3C//DTD SVG 1.1//EN" "http://www.w3.org/Graphics/SVG/1.1/DTD/svg11.dtd">
<!-- Creator: CorelDRAW X8 -->
<svg xmlns="http://www.w3.org/2000/svg" xml:space="preserve" width="982px" height="1486px" version="1.1" style="shape-rendering:geometricPrecision; text-rendering:geometricPrecision; image-rendering:optimizeQuality; fill-rule:evenodd; clip-rule:evenodd"
viewBox="0 0 982 1487"
 xmlns:xlink="http://www.w3.org/1999/xlink">
 <defs>
  <style type="text/css">
   <![CDATA[
    .fil0 {fill:#00A0E3;fill-rule:nonzero}
   ]]>
  </style>
 </defs>
 <g id="Layer_x0020_1">
  <metadata id="CorelCorpID_0Corel-Layer"/>
  <path class="fil0" d="M409 1221c53,0 108,5 160,20 34,10 96,36 96,81 1,45 -63,71 -98,82 -51,15 -105,20 -158,20 -60,0 -132,-6 -189,-28 -29,-12 -73,-37 -73,-74 1,-37 45,-62 74,-73 56,-22 128,-28 188,-28zm328 -306c-70,21 -147,19 -220,19 -19,0 -61,9 -61,35 0,27 43,35 63,35 70,2 126,-11 198,4 83,17 150,65 155,155 6,94 -40,165 -98,197 20,-113 -95,-162 -184,-183 -59,-14 -120,-18 -181,-18 -66,0 -136,5 -200,22 -63,16 -170,60 -171,141 0,79 104,124 167,141 63,17 138,24 204,23 79,-1 157,-2 235,-16 54,-10 112,-27 164,-54 98,-50 177,-131 174,-252 -2,-94 -54,-159 -134,-202 84,-50 136,-126 132,-228 -4,-110 -74,-170 -168,-202 93,-45 154,-109 153,-221 -1,-103 -46,-183 -131,-238 -85,-53 -197,-74 -295,-73 -123,1 -247,29 -346,106 -124,97 -179,244 -191,398 -13,168 30,358 136,490 23,29 55,35 89,26 20,-5 48,-24 29,-46 -103,-123 -144,-312 -131,-471 9,-117 44,-238 128,-323 78,-79 177,-109 286,-110 78,-1 170,18 231,71 50,44 72,103 73,170 1,80 -39,141 -115,167 -66,23 -141,19 -211,19 -19,0 -61,9 -61,35 0,27 42,35 62,35 73,0 136,-9 208,16 68,22 131,76 136,153 5,79 -52,156 -125,179z"/>
 </g>
</svg>
