<?xml version="1.0" encoding="UTF-8"?>
<!DOCTYPE svg PUBLIC "-//W3C//DTD SVG 1.1//EN" "http://www.w3.org/Graphics/SVG/1.1/DTD/svg11.dtd">
<!-- Creator: CorelDRAW X8 -->
<svg xmlns="http://www.w3.org/2000/svg" xml:space="preserve" width="2118px" height="1486px" version="1.1" style="shape-rendering:geometricPrecision; text-rendering:geometricPrecision; image-rendering:optimizeQuality; fill-rule:evenodd; clip-rule:evenodd"
viewBox="0 0 2118 1487"
 xmlns:xlink="http://www.w3.org/1999/xlink">
 <defs>
  <style type="text/css">
   <![CDATA[
    .fil0 {fill:#B2B09C;fill-rule:nonzero}
   ]]>
  </style>
 </defs>
 <g id="Layer_x0020_1">
  <metadata id="CorelCorpID_0Corel-Layer"/>
  <path class="fil0" d="M1326 1430c-66,0 -145,-5 -206,-33 -42,-19 -74,-51 -72,-101 2,-59 71,-83 120,-83 67,0 108,41 108,109 0,24 32,30 51,30 18,0 50,-6 51,-30 0,-68 41,-109 107,-109 50,0 118,24 121,83 1,50 -31,82 -73,101 -61,29 -140,33 -207,33zm-863 -468c106,49 270,62 385,62 113,0 237,-14 341,-60 53,-23 86,-48 129,-88 85,111 185,150 323,149 150,-1 281,-74 345,-162 -3,176 -82,355 -231,455 -23,16 -48,30 -75,46 10,-21 15,-44 15,-68 0,-45 -29,-78 -65,-101 -40,-26 -98,-36 -145,-36 -62,0 -107,13 -158,47 -52,-34 -96,-47 -159,-47 -47,0 -105,10 -145,36 -36,23 -63,57 -64,102 -1,74 71,132 134,156 73,26 157,34 234,34 58,-1 117,-6 175,-14 100,-16 211,-46 298,-99 171,-103 258,-274 295,-464 15,-80 22,-162 23,-243 1,-109 -10,-222 -36,-327 -36,-143 -119,-268 -255,-329 -27,-12 -65,-13 -90,5 -23,17 -11,39 12,49 161,69 228,271 231,436 1,75 -9,159 -36,228 -50,128 -164,226 -303,226 -172,0 -253,-122 -253,-286l0 -632c0,-26 -42,-34 -61,-34 -20,0 -62,8 -62,34l0 633c0,116 -46,192 -152,239 -79,35 -163,41 -248,46 68,-55 117,-110 117,-204 0,-113 -75,-181 -167,-225 92,-43 151,-104 150,-214 -1,-103 -45,-184 -131,-239 -85,-53 -197,-74 -295,-73 -123,1 -247,29 -346,106 -124,96 -179,243 -191,397 -13,168 30,358 136,490 22,28 55,35 89,26 20,-6 48,-24 29,-47 -103,-123 -144,-311 -131,-470 9,-116 44,-237 128,-322 78,-79 177,-109 285,-110 79,-1 171,18 232,71 51,44 72,104 73,171 0,80 -40,136 -115,162 -66,23 -141,19 -211,19 -19,0 -61,9 -61,35 0,27 42,35 62,35 73,0 135,-8 208,16 73,24 126,93 131,171 8,111 -77,184 -182,186 -44,1 -94,-9 -135,-28 -24,-11 -63,-11 -86,5 -23,17 -14,38 9,49z"/>
 </g>
</svg>
