<?xml version="1.0" encoding="UTF-8"?>
<!DOCTYPE svg PUBLIC "-//W3C//DTD SVG 1.1//EN" "http://www.w3.org/Graphics/SVG/1.1/DTD/svg11.dtd">
<!-- Creator: CorelDRAW X8 -->
<svg xmlns="http://www.w3.org/2000/svg" xml:space="preserve" width="1062px" height="1486px" version="1.1" style="shape-rendering:geometricPrecision; text-rendering:geometricPrecision; image-rendering:optimizeQuality; fill-rule:evenodd; clip-rule:evenodd"
viewBox="0 0 1062 1486"
 xmlns:xlink="http://www.w3.org/1999/xlink">
 <defs>
  <style type="text/css">
   <![CDATA[
    .fil0 {fill:#2B2A29;fill-rule:nonzero}
   ]]>
  </style>
 </defs>
 <g id="Layer_x0020_1">
  <metadata id="CorelCorpID_0Corel-Layer"/>
  <path class="fil0" d="M199 1024c9,0 19,-1 28,-4 15,-4 35,-16 35,-31 0,-5 -2,-10 -6,-15 -91,-109 -133,-265 -133,-409 0,-136 32,-284 130,-383 78,-80 185,-112 293,-112 79,-1 163,17 224,72 50,45 73,107 73,174 1,92 -50,140 -119,164 -36,13 -77,18 -118,18l-89 0c-19,0 -61,8 -61,35 0,26 42,35 62,35 31,0 59,-2 88,-2 43,0 82,6 117,16 157,46 234,188 234,340 0,144 -45,302 -160,395 0,-56 -18,-92 -66,-123 -40,-26 -99,-36 -146,-36 -61,0 -106,13 -158,47 -52,-34 -96,-47 -158,-47 -47,0 -105,10 -146,36 -36,23 -63,59 -63,104 0,73 71,130 134,153 71,26 157,35 232,35 78,1 164,-6 239,-30 124,-38 234,-112 306,-221 64,-97 91,-196 91,-313 0,-179 -75,-328 -247,-391 91,-38 150,-106 150,-215 0,-103 -44,-187 -131,-242 -83,-53 -192,-74 -288,-74 -126,0 -252,28 -353,107 -140,110 -193,288 -193,460 0,151 44,309 138,427 17,21 38,30 61,30zm227 405c-66,0 -144,-5 -205,-33 -41,-19 -73,-51 -73,-99 0,-60 71,-85 121,-85 66,0 107,41 107,108 0,25 32,31 51,31 19,0 51,-6 51,-31 0,-66 40,-108 106,-108 53,0 122,24 122,87 0,47 -32,79 -72,97 -62,28 -141,33 -208,33z"/>
 </g>
</svg>
