<?xml version="1.0" encoding="UTF-8"?>
<!DOCTYPE svg PUBLIC "-//W3C//DTD SVG 1.1//EN" "http://www.w3.org/Graphics/SVG/1.1/DTD/svg11.dtd">
<!-- Creator: CorelDRAW X8 -->
<svg xmlns="http://www.w3.org/2000/svg" xml:space="preserve" width="980px" height="1486px" version="1.1" style="shape-rendering:geometricPrecision; text-rendering:geometricPrecision; image-rendering:optimizeQuality; fill-rule:evenodd; clip-rule:evenodd"
viewBox="0 0 980 1486"
 xmlns:xlink="http://www.w3.org/1999/xlink">
 <defs>
  <style type="text/css">
   <![CDATA[
    .fil0 {fill:#2B2A29;fill-rule:nonzero}
   ]]>
  </style>
 </defs>
 <g id="Layer_x0020_1">
  <metadata id="CorelCorpID_0Corel-Layer"/>
  <path class="fil0" d="M576 1486c209,0 404,-85 404,-315 0,-96 -48,-163 -137,-206 91,-53 136,-126 136,-232 0,-105 -68,-166 -164,-202 91,-38 150,-106 150,-215 0,-102 -44,-186 -131,-242 -83,-53 -192,-74 -288,-74 -126,0 -252,28 -353,107 -140,111 -193,288 -193,460 0,152 44,310 138,428 17,21 38,30 61,30 9,0 19,-2 28,-4 15,-5 35,-16 35,-32 0,-4 -2,-10 -6,-14 -91,-110 -133,-266 -133,-410 0,-135 32,-283 130,-383 78,-79 185,-111 293,-112 79,0 163,18 224,72 50,45 73,107 73,174 1,93 -50,141 -119,165 -36,12 -77,17 -118,17l-89 0c-19,0 -61,8 -61,35 0,26 42,36 62,36 31,0 59,-2 88,-2 39,0 78,3 120,18 68,22 135,72 135,152 0,81 -46,153 -125,178 -44,14 -91,20 -138,20 -27,0 -54,0 -81,0 -20,0 -62,8 -62,34 0,26 44,34 64,35 26,0 52,-2 78,-2 47,0 94,1 135,12 72,19 125,68 125,157 0,150 -142,251 -281,251 -110,0 -226,-52 -302,-130 -12,-12 -32,-17 -52,-17 -11,0 -22,1 -31,4 -15,4 -32,16 -32,30 0,6 3,11 8,17 105,109 260,160 409,160z"/>
 </g>
</svg>
