<?xml version="1.0" encoding="UTF-8"?>
<!DOCTYPE svg PUBLIC "-//W3C//DTD SVG 1.1//EN" "http://www.w3.org/Graphics/SVG/1.1/DTD/svg11.dtd">
<!-- Creator: CorelDRAW X8 -->
<svg xmlns="http://www.w3.org/2000/svg" xml:space="preserve" width="982px" height="1486px" version="1.1" style="shape-rendering:geometricPrecision; text-rendering:geometricPrecision; image-rendering:optimizeQuality; fill-rule:evenodd; clip-rule:evenodd"
viewBox="0 0 982 1486"
 xmlns:xlink="http://www.w3.org/1999/xlink">
 <defs>
  <style type="text/css">
   <![CDATA[
    .fil0 {fill:#00A0E3;fill-rule:nonzero}
   ]]>
  </style>
 </defs>
 <g id="Layer_x0020_1">
  <metadata id="CorelCorpID_0Corel-Layer"/>
  <path class="fil0" d="M409 1429c-66,0 -145,-5 -206,-32 -41,-20 -74,-52 -72,-101 2,-60 71,-83 120,-84 67,0 108,41 108,109 0,24 32,30 51,30 18,0 51,-6 51,-30 0,-66 40,-109 106,-109 50,0 120,23 122,84 1,49 -31,81 -73,101 -61,28 -140,32 -207,32zm328 -515c-70,22 -148,20 -220,20 -19,0 -61,9 -61,35 0,27 43,34 63,35 90,3 174,-20 261,26 55,28 94,68 98,133 5,91 -46,159 -116,208 11,-19 17,-43 17,-66 0,-51 -25,-85 -66,-111 -40,-26 -98,-36 -145,-36 -62,0 -107,13 -158,47 -52,-34 -97,-47 -158,-47 -47,0 -106,10 -146,36 -35,23 -63,58 -63,102 -2,74 70,133 133,156 74,27 159,35 237,34 92,-1 181,-2 270,-22 59,-14 114,-38 165,-71 80,-54 136,-128 134,-230 -2,-93 -55,-158 -134,-201 84,-50 135,-126 132,-228 -4,-110 -74,-170 -169,-202 95,-45 155,-109 154,-221 -1,-103 -46,-183 -132,-238 -84,-53 -196,-73 -294,-73 -123,1 -247,29 -346,106 -124,97 -178,244 -190,398 -14,167 29,358 135,490 23,29 55,35 89,26 20,-6 48,-24 29,-47 -103,-123 -143,-312 -131,-470 9,-117 44,-238 128,-323 78,-79 177,-109 286,-110 78,0 170,18 231,71 50,44 72,103 73,170 0,80 -40,141 -115,167 -66,23 -141,19 -211,19 -19,0 -61,9 -61,35 0,26 42,35 62,35 73,0 135,-9 208,15 68,23 131,77 136,154 5,79 -52,156 -125,178z"/>
 </g>
</svg>
