<?xml version="1.0" encoding="UTF-8"?>
<!DOCTYPE svg PUBLIC "-//W3C//DTD SVG 1.1//EN" "http://www.w3.org/Graphics/SVG/1.1/DTD/svg11.dtd">
<!-- Creator: CorelDRAW X8 -->
<svg xmlns="http://www.w3.org/2000/svg" xml:space="preserve" width="2102px" height="1024px" version="1.1" style="shape-rendering:geometricPrecision; text-rendering:geometricPrecision; image-rendering:optimizeQuality; fill-rule:evenodd; clip-rule:evenodd"
viewBox="0 0 2102 1024"
 xmlns:xlink="http://www.w3.org/1999/xlink">
 <defs>
  <style type="text/css">
   <![CDATA[
    .fil0 {fill:#00A0E3;fill-rule:nonzero}
   ]]>
  </style>
 </defs>
 <g id="Layer_x0020_1">
  <metadata id="CorelCorpID_0Corel-Layer"/>
  <path class="fil0" d="M463 961c106,49 270,62 385,62 113,0 236,-14 340,-60 55,-24 87,-49 130,-89 85,111 184,150 322,150 176,0 336,-91 412,-256 37,-81 51,-172 50,-262 -3,-200 -86,-410 -275,-495 -27,-12 -66,-13 -90,5 -23,18 -12,39 11,49 162,70 229,273 231,439 1,75 -9,153 -36,223 -49,128 -163,227 -303,227 -172,0 -252,-123 -252,-288l0 -628c0,-27 -42,-35 -62,-35 -19,0 -61,8 -61,35l0 629c0,116 -46,193 -152,240 -80,36 -163,41 -248,46 68,-55 116,-111 117,-205 0,-113 -76,-175 -167,-219 92,-44 151,-105 150,-215 -1,-104 -45,-185 -132,-240 -84,-54 -196,-75 -294,-74 -123,1 -247,29 -346,107 -124,97 -179,244 -191,399 -13,169 30,355 136,488 22,29 55,35 89,26 20,-6 48,-24 29,-47 -103,-124 -144,-309 -131,-468 9,-117 44,-239 128,-324 78,-79 177,-110 285,-111 79,0 170,18 232,72 50,44 72,105 72,172 1,81 -39,137 -114,163 -66,23 -141,19 -211,19 -20,0 -61,9 -61,35 0,27 42,36 62,36 73,0 135,-9 208,15 73,25 126,87 131,166 7,111 -78,184 -182,186 -44,1 -95,-9 -135,-28 -24,-11 -63,-10 -86,6 -23,16 -14,38 9,49z"/>
 </g>
</svg>
