<?xml version="1.0" encoding="UTF-8"?>
<!DOCTYPE svg PUBLIC "-//W3C//DTD SVG 1.1//EN" "http://www.w3.org/Graphics/SVG/1.1/DTD/svg11.dtd">
<!-- Creator: CorelDRAW X8 -->
<svg xmlns="http://www.w3.org/2000/svg" xml:space="preserve" width="1062px" height="1486px" version="1.1" style="shape-rendering:geometricPrecision; text-rendering:geometricPrecision; image-rendering:optimizeQuality; fill-rule:evenodd; clip-rule:evenodd"
viewBox="0 0 1062 1486"
 xmlns:xlink="http://www.w3.org/1999/xlink">
 <defs>
  <style type="text/css">
   <![CDATA[
    .fil0 {fill:#B2B09C;fill-rule:nonzero}
   ]]>
  </style>
 </defs>
 <g id="Layer_x0020_1">
  <metadata id="CorelCorpID_0Corel-Layer"/>
  <path class="fil0" d="M426 1429c-66,0 -144,-5 -205,-33 -42,-19 -74,-52 -73,-101 2,-59 71,-83 121,-83 66,0 107,41 107,108 0,25 32,31 51,31 19,0 51,-6 51,-31 0,-66 40,-108 106,-108 50,0 120,23 122,83 2,49 -31,82 -72,101 -62,28 -141,33 -208,33zm371 -112c1,-7 1,-14 0,-22 -3,-45 -30,-78 -66,-101 -40,-26 -99,-36 -146,-36 -61,0 -106,13 -158,47 -52,-34 -96,-47 -158,-47 -47,0 -105,10 -146,36 -35,23 -62,57 -63,102 -1,74 71,132 134,155 71,26 157,34 232,35 78,0 164,-7 239,-30 123,-39 233,-111 306,-221 64,-97 91,-213 91,-329 0,-180 -79,-306 -241,-378 89,-45 145,-111 144,-217 -1,-103 -46,-183 -132,-238 -84,-53 -196,-74 -294,-73 -123,1 -247,29 -346,106 -124,97 -179,244 -191,398 -13,167 30,358 136,490 22,28 55,35 89,26 20,-6 48,-24 29,-47 -103,-123 -144,-312 -131,-470 9,-117 44,-238 128,-323 77,-79 177,-109 285,-110 79,-1 170,18 232,71 50,44 72,103 72,169 1,81 -39,143 -114,169 -67,23 -141,19 -211,19 -20,0 -61,8 -61,35 0,26 42,35 62,35 68,0 130,-8 198,10 147,38 226,178 239,327 9,109 -7,210 -58,296 -25,43 -58,82 -100,116z"/>
 </g>
</svg>
