<?xml version="1.0" encoding="UTF-8"?>
<!DOCTYPE svg PUBLIC "-//W3C//DTD SVG 1.1//EN" "http://www.w3.org/Graphics/SVG/1.1/DTD/svg11.dtd">
<!-- Creator: CorelDRAW X8 -->
<svg xmlns="http://www.w3.org/2000/svg" xml:space="preserve" width="1390px" height="1486px" version="1.1" style="shape-rendering:geometricPrecision; text-rendering:geometricPrecision; image-rendering:optimizeQuality; fill-rule:evenodd; clip-rule:evenodd"
viewBox="0 0 1390 1485"
 xmlns:xlink="http://www.w3.org/1999/xlink">
 <defs>
  <style type="text/css">
   <![CDATA[
    .fil0 {fill:#CC9933;fill-rule:nonzero}
   ]]>
  </style>
 </defs>
 <g id="Layer_x0020_1">
  <metadata id="CorelCorpID_0Corel-Layer"/>
  <path class="fil0" d="M879 567c68,0 131,-8 199,12 146,44 193,187 191,328 -1,126 -40,236 -106,322 -92,120 -237,191 -410,189 -223,-2 -385,-115 -489,-278 -92,-145 -138,-330 -140,-510 -3,-221 70,-452 265,-572 11,-6 16,-15 16,-23 0,-10 -7,-19 -20,-26 -11,-6 -26,-9 -41,-9 -16,0 -33,4 -45,11 -214,131 -300,380 -299,623 1,205 59,401 166,552 127,181 326,300 584,299 190,0 372,-70 493,-197 91,-96 148,-225 147,-381 -1,-167 -51,-308 -208,-380 89,-45 145,-110 144,-216 -1,-103 -46,-183 -132,-238 -84,-53 -196,-74 -295,-73 -122,1 -246,29 -345,106 -121,94 -180,245 -191,396 -13,166 31,361 136,492 16,20 37,29 61,30 9,0 18,-2 28,-4 15,-4 35,-16 35,-32 0,-4 -2,-9 -6,-15 -103,-123 -144,-312 -131,-470 9,-117 44,-238 128,-323 77,-79 177,-109 285,-110 79,-1 170,18 231,71 51,44 73,103 73,169 1,81 -39,142 -114,168 -67,23 -141,19 -211,19 -20,0 -61,9 -61,35 0,26 42,35 62,35z"/>
 </g>
</svg>
