<?xml version="1.0" encoding="UTF-8"?>
<!DOCTYPE svg PUBLIC "-//W3C//DTD SVG 1.1//EN" "http://www.w3.org/Graphics/SVG/1.1/DTD/svg11.dtd">
<!-- Creator: CorelDRAW X8 -->
<svg xmlns="http://www.w3.org/2000/svg" xml:space="preserve" width="2118px" height="1486px" version="1.1" style="shape-rendering:geometricPrecision; text-rendering:geometricPrecision; image-rendering:optimizeQuality; fill-rule:evenodd; clip-rule:evenodd"
viewBox="0 0 2118 1486"
 xmlns:xlink="http://www.w3.org/1999/xlink">
 <defs>
  <style type="text/css">
   <![CDATA[
    .fil0 {fill:#2B2A29;fill-rule:nonzero}
   ]]>
  </style>
 </defs>
 <g id="Layer_x0020_1">
  <metadata id="CorelCorpID_0Corel-Layer"/>
  <path class="fil0" d="M1640 1024c135,0 260,-53 346,-152 -7,167 -88,353 -230,447 -20,13 -41,25 -64,36 2,-7 3,-15 3,-23 0,-95 -106,-137 -184,-155 -59,-13 -120,-19 -181,-19 -66,0 -136,6 -200,22 -63,16 -171,60 -171,141 0,79 104,125 167,141 64,18 135,25 204,24 76,0 151,-8 225,-23 85,-18 172,-46 245,-90 174,-105 261,-280 297,-475 15,-83 21,-167 21,-252 0,-134 -18,-295 -77,-418 -44,-94 -114,-173 -213,-218 -14,-5 -28,-8 -44,-8 -16,0 -34,4 -47,14 -9,6 -13,14 -13,20 0,12 10,22 24,28 167,73 232,282 232,450 0,72 -11,146 -36,213 -50,128 -164,227 -304,227 -172,0 -252,-123 -252,-288l0 -628c0,-28 -42,-36 -62,-36 -19,0 -61,9 -61,36l0 629c0,116 -46,193 -152,240 -79,35 -162,41 -246,46 77,-49 112,-116 112,-207 0,-110 -71,-181 -164,-215 91,-38 150,-106 150,-215 0,-103 -44,-187 -131,-242 -83,-53 -192,-74 -288,-74 -126,0 -252,27 -353,107 -140,110 -193,287 -193,460 0,151 44,309 138,427 17,21 38,30 61,30 9,0 19,-1 28,-4 15,-5 35,-16 35,-31 0,-5 -2,-10 -6,-15 -91,-109 -133,-265 -133,-409 0,-136 32,-284 130,-383 78,-80 185,-112 293,-112 79,-1 163,17 224,72 50,44 73,106 73,174 1,92 -50,140 -119,164 -36,12 -77,18 -118,18l-89 0c-19,0 -61,8 -61,35 0,26 42,35 62,35 31,0 59,-2 88,-2 39,0 78,4 120,18 79,26 130,77 130,162 0,53 -14,91 -40,123 -34,42 -86,65 -155,65 -43,0 -82,-10 -121,-27 -11,-5 -24,-8 -38,-8 -18,0 -35,4 -48,13 -9,6 -13,14 -13,21 0,11 8,21 22,28 108,50 268,62 385,62 113,0 236,-14 340,-60 55,-25 87,-49 130,-89 85,111 184,150 322,150zm-310 399c-179,0 -262,-51 -262,-102 0,-52 93,-101 262,-101 168,0 256,53 256,101 0,49 -79,102 -256,102z"/>
 </g>
</svg>
