<?xml version="1.0" encoding="UTF-8"?>
<!DOCTYPE svg PUBLIC "-//W3C//DTD SVG 1.1//EN" "http://www.w3.org/Graphics/SVG/1.1/DTD/svg11.dtd">
<!-- Creator: CorelDRAW X8 -->
<svg xmlns="http://www.w3.org/2000/svg" xml:space="preserve" width="1552px" height="1024px" version="1.1" style="shape-rendering:geometricPrecision; text-rendering:geometricPrecision; image-rendering:optimizeQuality; fill-rule:evenodd; clip-rule:evenodd"
viewBox="0 0 1552 1024"
 xmlns:xlink="http://www.w3.org/1999/xlink">
 <defs>
  <style type="text/css">
   <![CDATA[
    .fil0 {fill:#CC9933;fill-rule:nonzero}
   ]]>
  </style>
 </defs>
 <g id="Layer_x0020_1">
  <metadata id="CorelCorpID_0Corel-Layer"/>
  <path class="fil0" d="M1198 63c162,70 228,274 231,440 1,75 -9,153 -36,223 -49,129 -163,228 -303,228 -171,0 -253,-117 -253,-283l0 -636c0,-26 -41,-35 -61,-35 -20,0 -61,9 -61,35l0 636c0,166 -83,283 -253,283 -140,0 -254,-99 -303,-228 -27,-70 -37,-148 -36,-223 3,-166 69,-370 231,-440 14,-6 24,-17 24,-29 0,-7 -4,-14 -12,-20 -14,-10 -32,-14 -49,-14 -15,0 -29,4 -42,9 -189,85 -272,294 -275,495 -1,89 13,182 50,264 76,165 236,256 412,256 132,0 225,-32 314,-133 89,101 182,133 314,133 176,0 336,-91 412,-256 37,-82 51,-175 50,-264 -3,-201 -86,-410 -275,-495 -13,-6 -28,-9 -43,-9 -18,0 -34,4 -48,14 -8,7 -12,14 -12,21 0,11 10,22 24,28z"/>
 </g>
</svg>
