<?xml version="1.0" encoding="UTF-8"?>
<!DOCTYPE svg PUBLIC "-//W3C//DTD SVG 1.1//EN" "http://www.w3.org/Graphics/SVG/1.1/DTD/svg11.dtd">
<!-- Creator: CorelDRAW X8 -->
<svg xmlns="http://www.w3.org/2000/svg" xml:space="preserve" width="1567px" height="1486px" version="1.1" style="shape-rendering:geometricPrecision; text-rendering:geometricPrecision; image-rendering:optimizeQuality; fill-rule:evenodd; clip-rule:evenodd"
viewBox="0 0 1567 1486"
 xmlns:xlink="http://www.w3.org/1999/xlink">
 <defs>
  <style type="text/css">
   <![CDATA[
    .fil0 {fill:#00A0E3;fill-rule:nonzero}
   ]]>
  </style>
 </defs>
 <g id="Layer_x0020_1">
  <metadata id="CorelCorpID_0Corel-Layer"/>
  <path class="fil0" d="M775 1429c-66,0 -145,-5 -206,-32 -41,-20 -74,-52 -72,-101 2,-60 71,-83 121,-84 66,0 107,41 107,109 0,24 32,30 51,30 18,0 51,-6 51,-30 0,-68 41,-109 107,-109 50,1 119,24 121,84 1,49 -31,81 -73,101 -61,28 -140,32 -207,32zm315 -405c150,0 280,-72 344,-160 -3,176 -81,353 -230,454 -23,15 -48,30 -75,45 10,-21 15,-44 15,-67 0,-45 -29,-79 -64,-102 -41,-26 -99,-36 -146,-36 -62,0 -106,13 -158,47 -52,-34 -96,-47 -158,-47 -47,0 -106,10 -146,36 -35,23 -63,58 -63,102 -1,74 71,133 134,156 72,26 157,34 233,34 58,-1 117,-5 175,-14 100,-16 211,-46 298,-98 172,-105 257,-278 296,-473 14,-67 21,-166 22,-235 1,-109 -10,-222 -36,-328 -36,-143 -119,-268 -255,-329 -27,-12 -65,-14 -90,5 -23,17 -11,39 12,49 162,69 228,271 231,437 1,74 -9,158 -36,228 -50,128 -164,226 -303,226 -171,0 -253,-116 -253,-280l0 -639c0,-26 -42,-35 -61,-35 -20,0 -62,9 -62,35l0 639c0,164 -82,280 -252,280 -140,0 -254,-98 -303,-226 -27,-70 -37,-154 -36,-228 2,-166 69,-368 231,-437 23,-10 34,-32 11,-49 -24,-19 -63,-17 -90,-5 -189,85 -272,291 -275,491 -1,89 13,188 50,269 76,164 236,255 412,255 132,0 225,-32 314,-133 89,101 182,133 314,133z"/>
 </g>
</svg>
