<?xml version="1.0" encoding="UTF-8"?>
<!DOCTYPE svg PUBLIC "-//W3C//DTD SVG 1.1//EN" "http://www.w3.org/Graphics/SVG/1.1/DTD/svg11.dtd">
<!-- Creator: CorelDRAW X8 -->
<svg xmlns="http://www.w3.org/2000/svg" xml:space="preserve" width="969px" height="868px" version="1.1" style="shape-rendering:geometricPrecision; text-rendering:geometricPrecision; image-rendering:optimizeQuality; fill-rule:evenodd; clip-rule:evenodd"
viewBox="0 0 969 868"
 xmlns:xlink="http://www.w3.org/1999/xlink">
 <defs>
  <style type="text/css">
   <![CDATA[
    .fil0 {fill:#2B2A29;fill-rule:nonzero}
   ]]>
  </style>
 </defs>
 <g id="Layer_x0020_1">
  <metadata id="CorelCorpID_0Corel-Layer"/>
  <path class="fil0" d="M482 868c45,0 92,-5 137,-13 56,-11 112,-29 155,-54 108,-62 161,-165 182,-277 10,-48 13,-97 13,-145 0,-71 -11,-165 -40,-230 -27,-61 -72,-114 -140,-143 -9,-4 -21,-6 -33,-6 -14,0 -28,3 -38,11 -7,4 -10,10 -10,15 0,9 8,17 19,22 97,39 135,159 135,252 0,41 -6,83 -21,120 -29,69 -93,125 -172,125 -97,0 -140,-67 -140,-155l0 -363c0,-15 -22,-27 -49,-27 -27,0 -49,12 -49,27l0 363c0,88 -43,155 -140,155 -79,0 -144,-56 -172,-125 -15,-37 -21,-79 -21,-120 0,-93 38,-213 135,-252 11,-5 19,-13 19,-22 0,-5 -3,-10 -10,-15 -10,-8 -24,-11 -38,-11 -12,0 -24,2 -33,6 -119,51 -171,174 -171,293 0,52 9,103 31,148 47,99 149,151 260,151 79,0 146,-22 189,-68 42,46 110,68 189,68 70,0 140,-22 194,-66 -13,99 -57,193 -150,245 1,-5 1,-10 1,-14 0,-53 -74,-76 -118,-85 -32,-8 -69,-12 -114,-12 -49,0 -92,5 -126,13 -73,19 -109,53 -109,87 0,35 35,69 106,87 40,11 87,15 129,15zm0 -49c-99,0 -146,-26 -146,-52 0,-27 52,-51 146,-51 93,0 142,26 142,51 0,25 -44,52 -142,52z"/>
 </g>
</svg>
