<?xml version="1.0" encoding="UTF-8"?>
<!DOCTYPE svg PUBLIC "-//W3C//DTD SVG 1.1//EN" "http://www.w3.org/Graphics/SVG/1.1/DTD/svg11.dtd">
<!-- Creator: CorelDRAW X8 -->
<svg xmlns="http://www.w3.org/2000/svg" xml:space="preserve" width="1567px" height="1486px" version="1.1" style="shape-rendering:geometricPrecision; text-rendering:geometricPrecision; image-rendering:optimizeQuality; fill-rule:evenodd; clip-rule:evenodd"
viewBox="0 0 1567 1486"
 xmlns:xlink="http://www.w3.org/1999/xlink">
 <defs>
  <style type="text/css">
   <![CDATA[
    .fil0 {fill:#2B2A29;fill-rule:nonzero}
   ]]>
  </style>
 </defs>
 <g id="Layer_x0020_1">
  <metadata id="CorelCorpID_0Corel-Layer"/>
  <path class="fil0" d="M779 1486c75,-1 147,-9 221,-23 86,-17 176,-45 249,-90 109,-66 185,-162 235,-272 60,-134 83,-289 83,-435 0,-136 -13,-290 -66,-416 -44,-107 -119,-194 -225,-241 -13,-6 -28,-9 -43,-9 -17,0 -34,4 -47,14 -9,6 -12,14 -12,20 0,12 10,23 24,29 166,70 231,280 231,447 0,72 -10,151 -36,218 -50,128 -164,226 -303,226 -171,0 -253,-116 -253,-280l0 -639c0,-26 -42,-35 -61,-35 -20,0 -62,9 -62,35l0 639c0,164 -82,280 -252,280 -140,0 -254,-98 -303,-226 -26,-67 -36,-146 -36,-218 0,-167 64,-376 231,-447 14,-6 24,-17 24,-28 0,-7 -4,-14 -13,-21 -13,-10 -29,-14 -46,-14 -16,0 -31,3 -44,9 -193,87 -275,300 -275,500 0,87 14,182 50,260 76,164 236,255 412,255 132,0 225,-32 314,-133 89,101 182,133 314,133 150,0 279,-72 345,-162 -1,66 -16,140 -44,211 -39,98 -101,191 -186,246 -20,13 -41,25 -64,36 3,-10 4,-19 4,-29 0,-87 -110,-132 -184,-149 -60,-14 -121,-19 -182,-19 -65,0 -136,6 -199,22 -64,17 -171,60 -171,141 0,79 103,124 166,141 64,17 135,25 204,24zm1 -63c-179,0 -263,-51 -263,-103 0,-51 94,-100 263,-100 168,0 256,52 256,100 0,50 -80,103 -256,103z"/>
 </g>
</svg>
