<?xml version="1.0" encoding="UTF-8"?>
<!DOCTYPE svg PUBLIC "-//W3C//DTD SVG 1.1//EN" "http://www.w3.org/Graphics/SVG/1.1/DTD/svg11.dtd">
<!-- Creator: CorelDRAW X8 -->
<svg xmlns="http://www.w3.org/2000/svg" xml:space="preserve" width="1934px" height="1486px" version="1.1" style="shape-rendering:geometricPrecision; text-rendering:geometricPrecision; image-rendering:optimizeQuality; fill-rule:evenodd; clip-rule:evenodd"
viewBox="0 0 1934 1486"
 xmlns:xlink="http://www.w3.org/1999/xlink">
 <defs>
  <style type="text/css">
   <![CDATA[
    .fil0 {fill:#2B2A29;fill-rule:nonzero}
   ]]>
  </style>
 </defs>
 <g id="Layer_x0020_1">
  <metadata id="CorelCorpID_0Corel-Layer"/>
  <path class="fil0" d="M1520 1354c275,-157 414,-421 414,-734 0,-107 -14,-225 -52,-331 -44,-122 -120,-226 -240,-280 -13,-6 -28,-9 -44,-9 -17,0 -33,4 -46,14 -9,6 -12,14 -12,21 0,11 9,22 23,28 167,71 231,280 231,447 0,72 -10,151 -36,218 -49,128 -163,226 -303,226 -170,0 -252,-116 -252,-281l0 -638c0,-26 -42,-35 -62,-35 -19,0 -61,9 -61,35l0 638c0,165 -82,281 -253,281 -139,0 -253,-98 -303,-226 -26,-67 -36,-146 -36,-218 0,-166 66,-376 231,-447 14,-6 24,-17 24,-29 0,-6 -3,-14 -12,-20 -13,-10 -30,-14 -47,-14 -15,0 -30,3 -43,9 -199,88 -275,303 -275,507 0,84 15,177 50,253 75,164 236,254 411,254 132,0 226,-32 314,-132 89,101 182,132 314,132 121,0 223,-39 314,-118 -69,166 -146,283 -299,382 -137,89 -305,130 -467,130 -239,0 -473,-92 -643,-264 -158,-159 -239,-366 -238,-590 0,-193 60,-390 221,-507 9,-7 13,-14 13,-21 0,-11 -9,-22 -23,-28 -11,-6 -24,-7 -38,-7 -18,0 -36,3 -49,13 -176,126 -246,337 -246,550 0,274 112,515 323,687 191,155 436,236 680,236 180,0 361,-43 517,-132z"/>
 </g>
</svg>
