<?xml version="1.0" encoding="UTF-8"?>
<!DOCTYPE svg PUBLIC "-//W3C//DTD SVG 1.1//EN" "http://www.w3.org/Graphics/SVG/1.1/DTD/svg11.dtd">
<!-- Creator: CorelDRAW X8 -->
<svg xmlns="http://www.w3.org/2000/svg" xml:space="preserve" width="969px" height="868px" version="1.1" style="shape-rendering:geometricPrecision; text-rendering:geometricPrecision; image-rendering:optimizeQuality; fill-rule:evenodd; clip-rule:evenodd"
viewBox="0 0 969 868"
 xmlns:xlink="http://www.w3.org/1999/xlink">
 <defs>
  <style type="text/css">
   <![CDATA[
    .fil0 {fill:#00A0E3;fill-rule:nonzero}
   ]]>
  </style>
 </defs>
 <g id="Layer_x0020_1">
  <metadata id="CorelCorpID_0Corel-Layer"/>
  <path class="fil0" d="M479 822c-37,0 -82,-2 -116,-17 -23,-10 -40,-27 -39,-53 1,-29 35,-41 61,-41 34,-1 52,23 52,56 0,18 28,24 43,24 15,0 43,-6 43,-24 0,-33 18,-57 52,-56 26,0 60,12 61,41 1,26 -16,43 -39,53 -34,15 -80,17 -118,17zm190 -222c70,0 140,-21 194,-66 -14,107 -60,194 -155,246 4,-9 6,-19 6,-28 0,-22 -13,-45 -42,-63 -24,-15 -61,-22 -97,-23 -32,0 -69,7 -95,24 -26,-17 -63,-24 -95,-24 -36,1 -73,8 -97,23 -29,18 -41,41 -41,63 -1,39 35,78 86,95 45,16 99,21 147,21 34,0 71,-3 109,-8 67,-10 134,-29 185,-59 108,-62 160,-165 182,-277 9,-44 12,-89 13,-134 1,-66 -7,-132 -22,-190 -22,-83 -72,-157 -158,-193 -21,-9 -52,-10 -71,4 -19,13 -9,29 9,37 94,38 133,154 135,246 0,43 -6,89 -22,128 -28,69 -92,125 -171,125 -97,0 -140,-67 -140,-155l0 -365c0,-15 -22,-27 -49,-27 -27,0 -49,12 -49,27l0 365c0,88 -43,155 -141,155 -79,0 -143,-56 -170,-125 -16,-39 -23,-85 -22,-128 2,-92 41,-208 135,-246 18,-8 27,-24 9,-37 -19,-14 -50,-13 -71,-4 -118,49 -169,170 -171,287 -1,53 9,109 31,155 47,98 149,151 259,151 80,0 147,-22 190,-68 42,46 109,68 189,68z"/>
 </g>
</svg>
