<?xml version="1.0" encoding="UTF-8"?>
<!DOCTYPE svg PUBLIC "-//W3C//DTD SVG 1.1//EN" "http://www.w3.org/Graphics/SVG/1.1/DTD/svg11.dtd">
<!-- Creator: CorelDRAW X8 -->
<svg xmlns="http://www.w3.org/2000/svg" xml:space="preserve" width="960px" height="600px" version="1.1" style="shape-rendering:geometricPrecision; text-rendering:geometricPrecision; image-rendering:optimizeQuality; fill-rule:evenodd; clip-rule:evenodd"
viewBox="0 0 960 600"
 xmlns:xlink="http://www.w3.org/1999/xlink">
 <defs>
  <style type="text/css">
   <![CDATA[
    .fil0 {fill:#B2B09C;fill-rule:nonzero}
   ]]>
  </style>
 </defs>
 <g id="Layer_x0020_1">
  <metadata id="CorelCorpID_0Corel-Layer"/>
  <path class="fil0" d="M727 552c-18,8 -28,24 -9,37 19,14 50,13 71,4 118,-50 169,-170 171,-288 1,-54 -9,-107 -31,-153 -47,-99 -149,-152 -260,-152 -79,0 -147,22 -189,68 -42,-46 -110,-68 -189,-68 -111,0 -213,53 -260,152 -22,46 -32,99 -31,153 2,118 53,238 171,288 21,9 52,10 71,-4 19,-13 9,-29 -9,-37 -94,-39 -133,-155 -135,-247 0,-43 6,-87 22,-126 27,-69 91,-126 171,-126 97,0 140,68 140,156l0 364c0,15 22,27 49,27 27,0 49,-12 49,-27l0 -364c0,-88 43,-156 140,-156 80,0 144,57 171,126 16,39 22,83 22,126 -2,92 -41,208 -135,247z"/>
 </g>
</svg>
