<?xml version="1.0" encoding="UTF-8"?>
<!DOCTYPE svg PUBLIC "-//W3C//DTD SVG 1.1//EN" "http://www.w3.org/Graphics/SVG/1.1/DTD/svg11.dtd">
<!-- Creator: CorelDRAW X8 -->
<svg xmlns="http://www.w3.org/2000/svg" xml:space="preserve" width="1597px" height="1486px" version="1.1" style="shape-rendering:geometricPrecision; text-rendering:geometricPrecision; image-rendering:optimizeQuality; fill-rule:evenodd; clip-rule:evenodd"
viewBox="0 0 1597 1486"
 xmlns:xlink="http://www.w3.org/1999/xlink">
 <defs>
  <style type="text/css">
   <![CDATA[
    .fil0 {fill:#CC9933}
   ]]>
  </style>
 </defs>
 <g id="Layer_x0020_1">
  <metadata id="CorelCorpID_0Corel-Layer"/>
  <path class="fil0" d="M777 1429c-66,0 -145,-4 -206,-32 -41,-19 -74,-52 -72,-101 2,-60 71,-83 120,-84 67,0 108,41 108,109 0,24 32,30 51,30 18,0 50,-6 51,-30 0,-66 40,-108 106,-109 50,0 119,23 122,84 1,49 -31,82 -73,101 -61,28 -140,33 -207,32zm357 -70c8,-17 13,-35 13,-53 0,-43 -24,-85 -66,-112 -40,-26 -98,-36 -145,-36 -62,0 -107,13 -158,47 -52,-34 -97,-47 -158,-47 -47,0 -106,10 -146,36 -35,23 -63,58 -63,102 -2,74 70,133 133,156 73,26 158,35 234,34 68,-1 136,-7 203,-19 55,-9 112,-23 165,-43 186,-72 317,-220 388,-407 48,-129 67,-271 62,-408 -6,-176 -58,-371 -191,-493 -85,-78 -201,-116 -315,-116 -132,0 -225,32 -314,132 -89,-100 -182,-132 -314,-132 -175,0 -336,91 -411,254 -38,81 -52,174 -51,263 3,199 86,414 275,498 13,6 28,9 44,9 17,0 34,-4 47,-14 9,-6 12,-14 12,-21 0,-11 -10,-21 -24,-28 -162,-69 -228,-278 -231,-444 -1,-74 9,-152 36,-221 49,-128 163,-226 303,-226 171,0 253,116 253,280l0 639c0,26 42,35 61,35 20,0 62,-9 62,-35l0 -639c0,-165 82,-280 252,-280 99,0 191,49 252,126 88,112 128,272 134,412 5,125 -7,255 -43,375 -51,167 -137,300 -299,376z"/>
 </g>
</svg>
