<?xml version="1.0" encoding="UTF-8"?>
<!DOCTYPE svg PUBLIC "-//W3C//DTD SVG 1.1//EN" "http://www.w3.org/Graphics/SVG/1.1/DTD/svg11.dtd">
<!-- Creator: CorelDRAW X8 -->
<svg xmlns="http://www.w3.org/2000/svg" xml:space="preserve" width="1058px" height="600px" version="1.1" style="shape-rendering:geometricPrecision; text-rendering:geometricPrecision; image-rendering:optimizeQuality; fill-rule:evenodd; clip-rule:evenodd"
viewBox="0 0 1058 600"
 xmlns:xlink="http://www.w3.org/1999/xlink">
 <defs>
  <style type="text/css">
   <![CDATA[
    .fil0 {fill:#B2B09C;fill-rule:nonzero}
   ]]>
  </style>
 </defs>
 <g id="Layer_x0020_1">
  <metadata id="CorelCorpID_0Corel-Layer"/>
  <path class="fil0" d="M529 573c0,15 -22,27 -49,27 -27,0 -49,-12 -49,-27l0 -358c0,-86 -42,-162 -140,-162 -80,0 -144,56 -171,125 -16,40 -22,84 -22,127 2,92 41,208 135,247 18,8 28,24 9,37 -19,14 -50,13 -71,4 -118,-50 -169,-170 -171,-288 -1,-54 9,-107 31,-154 47,-98 149,-151 260,-151 74,0 143,18 194,73 54,-50 134,-73 214,-73 130,0 226,46 289,124 50,62 71,138 70,217 -1,58 -14,116 -44,163 -41,67 -110,97 -182,96 -71,-1 -137,-28 -177,-87 -26,-38 -40,-86 -40,-135 0,-58 19,-116 55,-163 47,-60 119,-94 195,-104 -45,-39 -108,-59 -166,-58 -108,2 -170,71 -170,176l0 344zm381 -411c-60,0 -114,27 -150,74 -31,41 -46,91 -46,142 0,43 11,84 32,116 20,29 50,52 87,52 34,1 64,-19 88,-59 27,-42 38,-94 39,-146 1,-63 -13,-126 -50,-179z"/>
 </g>
</svg>
