<?xml version="1.0" encoding="UTF-8"?>
<!DOCTYPE svg PUBLIC "-//W3C//DTD SVG 1.1//EN" "http://www.w3.org/Graphics/SVG/1.1/DTD/svg11.dtd">
<!-- Creator: CorelDRAW X8 -->
<svg xmlns="http://www.w3.org/2000/svg" xml:space="preserve" width="2143px" height="1024px" version="1.1" style="shape-rendering:geometricPrecision; text-rendering:geometricPrecision; image-rendering:optimizeQuality; fill-rule:evenodd; clip-rule:evenodd"
viewBox="0 0 2143 1024"
 xmlns:xlink="http://www.w3.org/1999/xlink">
 <defs>
  <style type="text/css">
   <![CDATA[
    .fil0 {fill:#B2B09C;fill-rule:nonzero}
   ]]>
  </style>
 </defs>
 <g id="Layer_x0020_1">
  <metadata id="CorelCorpID_0Corel-Layer"/>
  <path class="fil0" d="M1306 355l0 634c0,19 27,35 61,35 34,0 62,-16 62,-35l0 -634c0,-161 82,-284 253,-284 114,0 220,70 276,169 44,78 61,176 62,265 1,178 -65,384 -230,456 -23,10 -35,32 -12,49 22,17 61,18 86,7 197,-86 281,-306 279,-513 -1,-99 -22,-206 -72,-291 -80,-137 -233,-213 -389,-213 -121,0 -245,43 -317,142 -66,-92 -177,-141 -288,-142 -116,-1 -230,46 -299,142 -72,-99 -196,-142 -317,-142 -156,0 -309,76 -389,212 -50,86 -71,193 -72,292 -2,207 82,427 279,513 25,11 64,10 86,-7 23,-17 11,-39 -12,-49 -165,-72 -231,-278 -230,-456 1,-90 18,-187 62,-265 56,-99 162,-170 276,-170 171,0 253,124 253,285l0 634c0,19 28,35 62,35 34,0 61,-16 61,-35l0 -634c0,-187 117,-282 233,-282 154,0 236,136 236,282z"/>
 </g>
</svg>
