<?xml version="1.0" encoding="UTF-8"?>
<!DOCTYPE svg PUBLIC "-//W3C//DTD SVG 1.1//EN" "http://www.w3.org/Graphics/SVG/1.1/DTD/svg11.dtd">
<!-- Creator: CorelDRAW X8 -->
<svg xmlns="http://www.w3.org/2000/svg" xml:space="preserve" width="1192px" height="868px" version="1.1" style="shape-rendering:geometricPrecision; text-rendering:geometricPrecision; image-rendering:optimizeQuality; fill-rule:evenodd; clip-rule:evenodd"
viewBox="0 0 1192 868"
 xmlns:xlink="http://www.w3.org/1999/xlink">
 <defs>
  <style type="text/css">
   <![CDATA[
    .fil0 {fill:#2B2A29;fill-rule:nonzero}
   ]]>
  </style>
 </defs>
 <g id="Layer_x0020_1">
  <metadata id="CorelCorpID_0Corel-Layer"/>
  <path class="fil0" d="M628 868c198,0 362,-68 461,-196 70,-90 103,-205 103,-318 0,-72 -14,-137 -46,-203 -48,-98 -150,-151 -260,-151 -80,0 -147,22 -189,68 -43,-46 -110,-68 -190,-68 -110,0 -212,53 -259,151 -22,45 -31,96 -31,148 0,119 52,242 170,292 10,4 22,7 34,7 14,0 27,-3 38,-10 7,-6 10,-11 10,-16 0,-9 -8,-17 -19,-22 -97,-39 -135,-159 -135,-252 0,-41 6,-83 21,-120 28,-69 92,-125 171,-125 98,0 140,67 140,155l0 363c0,15 23,27 50,27 27,0 48,-12 48,-27l0 -363c0,-88 43,-155 141,-155 79,0 147,56 175,125 22,56 33,116 33,176 0,96 -23,186 -74,267 -77,122 -213,194 -392,194 -143,0 -283,-44 -385,-144 -90,-88 -144,-211 -144,-357 0,-105 33,-208 125,-271 7,-5 10,-10 10,-16 0,-8 -7,-17 -18,-21 -9,-4 -20,-5 -30,-5 -15,0 -29,3 -40,10 -102,70 -146,184 -146,303 0,178 75,320 195,415 121,96 278,139 433,139z"/>
 </g>
</svg>
