<?xml version="1.0" encoding="UTF-8"?>
<!DOCTYPE svg PUBLIC "-//W3C//DTD SVG 1.1//EN" "http://www.w3.org/Graphics/SVG/1.1/DTD/svg11.dtd">
<!-- Creator: CorelDRAW X8 -->
<svg xmlns="http://www.w3.org/2000/svg" xml:space="preserve" width="1312px" height="600px" version="1.1" style="shape-rendering:geometricPrecision; text-rendering:geometricPrecision; image-rendering:optimizeQuality; fill-rule:evenodd; clip-rule:evenodd"
viewBox="0 0 1312 600"
 xmlns:xlink="http://www.w3.org/1999/xlink">
 <defs>
  <style type="text/css">
   <![CDATA[
    .fil0 {fill:#CC9933;fill-rule:nonzero}
   ]]>
  </style>
 </defs>
 <g id="Layer_x0020_1">
  <metadata id="CorelCorpID_0Corel-Layer"/>
  <path class="fil0" d="M832 77c42,-47 110,-77 190,-77 110,0 212,53 259,152 23,46 32,99 31,153 -2,117 -53,237 -169,287 -10,5 -23,8 -36,8 -13,0 -26,-4 -37,-11 -7,-5 -10,-11 -10,-17 1,-8 7,-15 20,-20 94,-39 132,-155 134,-247 1,-43 -5,-87 -21,-126 -28,-69 -92,-126 -171,-126 -98,0 -140,74 -140,161l0 359c0,14 -22,26 -49,26 -27,0 -49,-12 -49,-26l0 -359c0,-78 -38,-160 -129,-160 -90,0 -127,84 -127,160l0 359c0,15 -22,27 -49,27 -27,0 -49,-12 -49,-27l0 -359c0,-87 -42,-160 -140,-160 -79,0 -143,56 -171,125 -16,39 -22,83 -21,126 2,93 40,208 134,247 13,5 19,13 20,21 0,6 -3,11 -10,16 -11,8 -24,11 -38,11 -12,0 -25,-3 -35,-7 -116,-51 -167,-171 -169,-288 -1,-53 8,-107 31,-153 47,-99 149,-152 259,-152 80,0 148,30 190,78 46,-54 109,-77 175,-78 70,-1 132,25 177,77z"/>
 </g>
</svg>
