<?xml version="1.0" encoding="UTF-8"?>
<!DOCTYPE svg PUBLIC "-//W3C//DTD SVG 1.1//EN" "http://www.w3.org/Graphics/SVG/1.1/DTD/svg11.dtd">
<!-- Creator: CorelDRAW X8 -->
<svg xmlns="http://www.w3.org/2000/svg" xml:space="preserve" width="2086px" height="1486px" version="1.1" style="shape-rendering:geometricPrecision; text-rendering:geometricPrecision; image-rendering:optimizeQuality; fill-rule:evenodd; clip-rule:evenodd"
viewBox="0 0 2082 1483"
 xmlns:xlink="http://www.w3.org/1999/xlink">
 <defs>
  <style type="text/css">
   <![CDATA[
    .fil0 {fill:#669933;fill-rule:nonzero}
   ]]>
  </style>
 </defs>
 <g id="Layer_x0020_1">
  <metadata id="CorelCorpID_0Corel-Layer"/>
  <path class="fil0" d="M1464 907l455 0 0 -480c0,-108 -39,-193 -103,-251 -48,-42 -108,-69 -175,-80 91,56 132,155 133,265 1,66 -13,135 -38,203 -48,127 -140,252 -272,343zm618 92c0,158 -98,267 -234,341 -206,112 -501,144 -680,143 -262,0 -534,-56 -718,-160 -289,-161 -450,-446 -450,-776 0,-207 64,-411 243,-529 29,-19 80,-21 114,-5 35,16 39,45 10,64 -156,103 -204,291 -205,470 -2,296 142,566 403,712 167,94 413,135 605,134 172,0 436,-29 600,-142 86,-59 144,-141 149,-253l-767 0c-45,0 -81,-20 -81,-45l0 -587c0,-146 -69,-275 -233,-275 -131,0 -237,95 -283,213 -26,67 -36,142 -35,215 2,158 67,355 222,422 36,15 43,43 16,63 -32,24 -83,22 -118,7 -194,-85 -280,-291 -283,-492 -1,-91 14,-182 51,-261 79,-168 248,-258 430,-258 129,0 264,38 340,148 102,-105 255,-148 398,-148 150,0 284,45 377,128 80,72 129,173 129,299l0 572zm-745 -822c-64,57 -103,140 -103,250l0 480c149,-64 279,-198 341,-354 24,-61 38,-125 39,-189 0,-101 -42,-240 -165,-236 -39,1 -79,19 -112,49z"/>
 </g>
</svg>
