<?xml version="1.0" encoding="UTF-8"?>
<!DOCTYPE svg PUBLIC "-//W3C//DTD SVG 1.1//EN" "http://www.w3.org/Graphics/SVG/1.1/DTD/svg11.dtd">
<!-- Creator: CorelDRAW X8 -->
<svg xmlns="http://www.w3.org/2000/svg" xml:space="preserve" width="1192px" height="868px" version="1.1" style="shape-rendering:geometricPrecision; text-rendering:geometricPrecision; image-rendering:optimizeQuality; fill-rule:evenodd; clip-rule:evenodd"
viewBox="0 0 1192 868"
 xmlns:xlink="http://www.w3.org/1999/xlink">
 <defs>
  <style type="text/css">
   <![CDATA[
    .fil0 {fill:#B2B09C;fill-rule:nonzero}
   ]]>
  </style>
 </defs>
 <g id="Layer_x0020_1">
  <metadata id="CorelCorpID_0Corel-Layer"/>
  <path class="fil0" d="M1145 151c-47,-98 -149,-151 -259,-151 -80,0 -147,22 -189,68 -43,-46 -110,-68 -190,-68 -110,0 -212,53 -259,151 -22,46 -32,100 -31,153 2,117 53,239 170,289 21,9 52,10 71,-4 19,-13 9,-29 -9,-37 -94,-38 -132,-156 -134,-248 -1,-43 6,-87 21,-126 28,-69 92,-125 171,-125 97,0 141,67 141,155l-1 365c0,15 22,27 49,27 27,0 49,-12 49,-27l1 -365c0,-87 42,-155 140,-155 79,0 147,56 174,125 25,60 35,126 34,190 -2,98 -30,184 -74,253 -79,125 -220,197 -404,194 -152,-3 -282,-55 -373,-144 -91,-88 -145,-212 -144,-360 0,-106 37,-207 125,-268 19,-13 10,-29 -8,-37 -20,-9 -51,-8 -69,4 -103,71 -147,183 -147,301 -1,180 75,322 195,418 110,87 257,136 417,139 205,4 376,-65 477,-196 61,-79 100,-181 103,-303 1,-75 -13,-149 -47,-218z"/>
 </g>
</svg>
