<?xml version="1.0" encoding="UTF-8"?>
<!DOCTYPE svg PUBLIC "-//W3C//DTD SVG 1.1//EN" "http://www.w3.org/Graphics/SVG/1.1/DTD/svg11.dtd">
<!-- Creator: CorelDRAW X8 -->
<svg xmlns="http://www.w3.org/2000/svg" xml:space="preserve" width="2585px" height="1024px" version="1.1" style="shape-rendering:geometricPrecision; text-rendering:geometricPrecision; image-rendering:optimizeQuality; fill-rule:evenodd; clip-rule:evenodd"
viewBox="0 0 2585 1024"
 xmlns:xlink="http://www.w3.org/1999/xlink">
 <defs>
  <style type="text/css">
   <![CDATA[
    .fil0 {fill:#CC9933;fill-rule:nonzero}
   ]]>
  </style>
 </defs>
 <g id="Layer_x0020_1">
  <metadata id="CorelCorpID_0Corel-Layer"/>
  <path class="fil0" d="M1198 936c-13,6 -23,16 -24,26 -2,27 40,37 59,37l1291 0c19,0 61,-9 61,-35l0 -568c0,-240 -202,-396 -425,-396 -229,0 -411,146 -411,390l0 539 -373 0c123,-116 173,-251 176,-421 1,-89 -13,-177 -51,-258 -75,-166 -236,-250 -411,-250 -132,0 -225,32 -314,133 -89,-101 -182,-133 -314,-133 -176,0 -336,91 -412,256 -37,82 -51,175 -50,264 3,201 86,410 275,495 13,6 29,9 44,9 17,0 34,-4 46,-14 10,-7 13,-15 13,-22 -1,-11 -11,-21 -24,-27 -162,-70 -228,-274 -231,-440 -1,-75 9,-153 36,-223 49,-129 163,-228 303,-228 170,0 252,117 252,283l0 635c0,27 42,36 62,36 20,0 61,-9 61,-36l0 -635c0,-166 82,-283 253,-283 139,0 253,92 303,222 27,69 37,142 36,216 -3,168 -70,358 -231,428zm673 -546c0,-180 103,-320 287,-320 181,0 305,146 304,326l0 533 -591 0 0 -539z"/>
 </g>
</svg>
