<?xml version="1.0" encoding="UTF-8"?>
<!DOCTYPE svg PUBLIC "-//W3C//DTD SVG 1.1//EN" "http://www.w3.org/Graphics/SVG/1.1/DTD/svg11.dtd">
<!-- Creator: CorelDRAW X8 -->
<svg xmlns="http://www.w3.org/2000/svg" xml:space="preserve" width="2182px" height="1486px" version="1.1" style="shape-rendering:geometricPrecision; text-rendering:geometricPrecision; image-rendering:optimizeQuality; fill-rule:evenodd; clip-rule:evenodd"
viewBox="0 0 2182 1486"
 xmlns:xlink="http://www.w3.org/1999/xlink">
 <defs>
  <style type="text/css">
   <![CDATA[
    .fil0 {fill:#2B2A29;fill-rule:nonzero}
   ]]>
  </style>
 </defs>
 <g id="Layer_x0020_1">
  <metadata id="CorelCorpID_0Corel-Layer"/>
  <path class="fil0" d="M1380 954c-79,0 -135,-54 -172,-121 -37,-69 -51,-161 -51,-239 0,-183 73,-352 223,-460 153,108 226,275 226,460 0,157 -67,360 -226,360zm645 206c105,-147 157,-312 157,-492 0,-137 -32,-291 -104,-407 -101,-165 -278,-261 -468,-261 -81,0 -154,13 -229,41 -81,-30 -141,-40 -227,-40 -136,0 -281,42 -372,145 -87,-108 -183,-146 -320,-146 -176,0 -336,91 -412,255 -36,78 -50,166 -50,252 0,198 82,422 275,508 13,6 28,9 44,9 17,0 33,-4 46,-14 9,-7 13,-14 13,-21 0,-11 -10,-21 -24,-27 -167,-72 -231,-288 -231,-455 0,-71 10,-144 36,-211 49,-128 163,-226 303,-226 172,0 252,123 252,287l0 632c0,26 42,34 61,34 20,0 62,-8 62,-34l0 -603c0,-193 129,-316 317,-316 46,0 87,4 133,19 -168,120 -253,300 -253,505 0,85 17,184 57,259 61,112 164,170 289,170 126,0 230,-58 291,-171 41,-75 57,-172 57,-258 0,-206 -84,-385 -253,-505 46,-16 87,-19 135,-19 147,0 272,95 350,216 74,113 100,248 100,382 -1,150 -33,303 -105,435 -53,96 -120,170 -212,228 1,-4 1,-9 1,-13 0,-83 -110,-124 -182,-141 -60,-14 -121,-19 -182,-19 -65,0 -135,6 -199,22 -64,17 -171,61 -171,141 0,80 103,124 166,141 60,16 130,24 204,24 71,0 140,-8 204,-23 176,-43 327,-143 441,-303zm-644 264c-179,0 -262,-52 -262,-103 0,-52 93,-100 262,-100 168,0 256,52 256,100 0,49 -79,103 -256,103z"/>
 </g>
</svg>
