<?xml version="1.0" encoding="UTF-8"?>
<!DOCTYPE svg PUBLIC "-//W3C//DTD SVG 1.1//EN" "http://www.w3.org/Graphics/SVG/1.1/DTD/svg11.dtd">
<!-- Creator: CorelDRAW X8 -->
<svg xmlns="http://www.w3.org/2000/svg" xml:space="preserve" width="1938px" height="1486px" version="1.1" style="shape-rendering:geometricPrecision; text-rendering:geometricPrecision; image-rendering:optimizeQuality; fill-rule:evenodd; clip-rule:evenodd"
viewBox="0 0 1938 1486"
 xmlns:xlink="http://www.w3.org/1999/xlink">
 <defs>
  <style type="text/css">
   <![CDATA[
    .fil0 {fill:#2B2A29;fill-rule:nonzero}
   ]]>
  </style>
 </defs>
 <g id="Layer_x0020_1">
  <metadata id="CorelCorpID_0Corel-Layer"/>
  <path class="fil0" d="M1024 1486c285,0 569,-94 745,-333 113,-153 169,-334 169,-524 0,-133 -20,-254 -77,-375 -75,-163 -236,-254 -411,-254 -132,0 -225,32 -314,132 -89,-100 -182,-132 -314,-132 -176,0 -335,91 -411,254 -37,78 -51,168 -51,254 0,199 82,420 275,507 13,6 28,9 43,9 17,0 35,-4 48,-14 9,-6 12,-14 12,-20 0,-12 -10,-23 -24,-29 -165,-70 -231,-289 -231,-454 0,-71 10,-145 36,-211 49,-128 163,-226 303,-226 170,0 252,116 252,280l0 639c0,26 42,35 62,35 20,0 61,-9 61,-35l0 -639c0,-165 82,-280 253,-280 139,0 259,97 309,226 44,111 56,215 56,333 0,156 -43,310 -124,444 -146,241 -398,343 -667,343 -246,0 -484,-77 -659,-255 -166,-168 -241,-393 -241,-627 0,-184 57,-366 212,-477 9,-7 13,-14 13,-21 0,-11 -10,-22 -24,-28 -10,-5 -24,-7 -38,-7 -17,0 -36,4 -48,13 -169,122 -239,317 -239,520 0,280 105,536 320,715 196,164 451,237 704,237z"/>
 </g>
</svg>
