<?xml version="1.0" encoding="UTF-8"?>
<!DOCTYPE svg PUBLIC "-//W3C//DTD SVG 1.1//EN" "http://www.w3.org/Graphics/SVG/1.1/DTD/svg11.dtd">
<!-- Creator: CorelDRAW X8 -->
<svg xmlns="http://www.w3.org/2000/svg" xml:space="preserve" width="2133px" height="1024px" version="1.1" style="shape-rendering:geometricPrecision; text-rendering:geometricPrecision; image-rendering:optimizeQuality; fill-rule:evenodd; clip-rule:evenodd"
viewBox="0 0 2133 1024"
 xmlns:xlink="http://www.w3.org/1999/xlink">
 <defs>
  <style type="text/css">
   <![CDATA[
    .fil0 {fill:#2B2A29;fill-rule:nonzero}
   ]]>
  </style>
 </defs>
 <g id="Layer_x0020_1">
  <metadata id="CorelCorpID_0Corel-Layer"/>
  <path class="fil0" d="M1382 1024c125,0 228,-59 289,-172 40,-76 57,-168 57,-253 0,-207 -85,-389 -253,-509 47,-16 88,-20 136,-20 143,0 271,97 336,224 43,84 63,182 63,277 0,145 -48,320 -183,391 -12,7 -19,17 -19,26 0,9 5,17 16,24 13,8 27,11 41,11 23,0 47,-9 67,-21 143,-89 201,-267 201,-431 0,-102 -21,-206 -68,-297 -88,-172 -266,-274 -454,-274 -81,0 -155,12 -230,41 -76,-28 -149,-41 -230,-41 -133,0 -276,41 -369,146 -88,-109 -183,-146 -320,-146 -176,0 -336,91 -412,256 -36,79 -50,167 -50,254 0,200 82,418 275,505 13,6 28,9 44,9 17,0 33,-4 46,-14 9,-6 13,-14 13,-21 0,-11 -10,-22 -24,-28 -166,-72 -231,-283 -231,-450 0,-72 10,-146 36,-213 49,-129 163,-228 303,-228 172,0 252,124 252,289l0 629c0,26 42,35 62,35 19,0 61,-9 61,-35l0 -599c0,-196 125,-317 314,-319 48,0 91,4 137,20 -170,116 -254,304 -255,509 0,86 17,177 58,252 61,114 165,173 291,173zm0 -70c-160,0 -226,-207 -226,-355 0,-187 73,-355 225,-464 151,108 224,279 224,464 0,149 -66,355 -223,355z"/>
 </g>
</svg>
