<?xml version="1.0" encoding="UTF-8"?>
<!DOCTYPE svg PUBLIC "-//W3C//DTD SVG 1.1//EN" "http://www.w3.org/Graphics/SVG/1.1/DTD/svg11.dtd">
<!-- Creator: CorelDRAW X8 -->
<svg xmlns="http://www.w3.org/2000/svg" xml:space="preserve" width="2188px" height="1486px" version="1.1" style="shape-rendering:geometricPrecision; text-rendering:geometricPrecision; image-rendering:optimizeQuality; fill-rule:evenodd; clip-rule:evenodd"
viewBox="0 0 2188 1486"
 xmlns:xlink="http://www.w3.org/1999/xlink">
 <defs>
  <style type="text/css">
   <![CDATA[
    .fil0 {fill:#2B2A29;fill-rule:nonzero}
   ]]>
  </style>
 </defs>
 <g id="Layer_x0020_1">
  <metadata id="CorelCorpID_0Corel-Layer"/>
  <path class="fil0" d="M1738 1424c192,-75 317,-224 385,-401 45,-116 65,-245 65,-372 0,-183 -51,-407 -191,-535 -85,-78 -201,-116 -315,-116 -124,0 -241,37 -316,142 -67,-93 -183,-142 -296,-142 -114,0 -224,47 -292,142 -72,-99 -196,-142 -317,-142 -156,0 -309,76 -389,212 -50,86 -72,193 -72,292 -1,205 78,425 279,513 11,5 24,7 37,7 18,0 36,-4 49,-14 9,-6 12,-14 12,-20 0,-12 -10,-23 -24,-29 -171,-74 -231,-286 -230,-456 0,-90 18,-187 62,-265 56,-99 162,-170 276,-170 171,0 253,124 253,285l0 634c0,19 28,35 62,35 34,0 61,-16 61,-35l0 -634c0,-187 117,-282 233,-282 154,0 236,136 236,282l0 634c0,19 28,35 62,35 34,0 61,-16 61,-35l0 -634c0,-164 82,-285 253,-285 99,0 191,49 252,126 92,116 134,287 134,455 0,109 -10,226 -43,335 -48,159 -140,301 -297,373 2,-12 4,-23 4,-34 0,-89 -113,-131 -184,-148 -59,-14 -120,-19 -181,-19 -66,0 -137,5 -200,22 -66,17 -170,61 -170,142 0,79 103,123 166,140 60,17 126,24 204,24 70,0 155,-8 235,-24 49,-9 96,-22 136,-38zm-371 0c-179,0 -262,-52 -262,-103 0,-52 93,-100 262,-100 168,0 256,52 256,100 0,49 -79,103 -256,103z"/>
 </g>
</svg>
