<?xml version="1.0" encoding="UTF-8"?>
<!DOCTYPE svg PUBLIC "-//W3C//DTD SVG 1.1//EN" "http://www.w3.org/Graphics/SVG/1.1/DTD/svg11.dtd">
<!-- Creator: CorelDRAW X8 -->
<svg xmlns="http://www.w3.org/2000/svg" xml:space="preserve" width="2151px" height="1486px" version="1.1" style="shape-rendering:geometricPrecision; text-rendering:geometricPrecision; image-rendering:optimizeQuality; fill-rule:evenodd; clip-rule:evenodd"
viewBox="0 0 2151 1486"
 xmlns:xlink="http://www.w3.org/1999/xlink">
 <defs>
  <style type="text/css">
   <![CDATA[
    .fil0 {fill:#00A0E3;fill-rule:nonzero}
   ]]>
  </style>
 </defs>
 <g id="Layer_x0020_1">
  <metadata id="CorelCorpID_0Corel-Layer"/>
  <path class="fil0" d="M354 962c-161,-70 -228,-279 -230,-445 -2,-74 8,-151 35,-221 50,-128 164,-226 303,-226 172,0 253,123 253,287l0 632c0,26 42,34 61,34 20,0 62,-8 62,-34l0 -603c0,-194 129,-316 318,-316 48,0 87,3 133,19 -169,120 -253,297 -253,505 0,85 16,184 57,259 60,112 164,170 289,170 126,0 230,-58 291,-171 40,-75 57,-172 57,-258 0,-207 -85,-385 -253,-505 46,-16 85,-19 132,-19 125,0 235,68 309,168 80,108 116,249 110,383 -6,137 -56,269 -152,365 -85,85 -192,114 -310,114l-1290 0c-125,0 -273,31 -276,188 -3,163 147,198 276,198l1766 0c32,0 62,-25 62,-59 0,-33 -30,-59 -62,-59l-1766 0c-66,0 -149,-12 -151,-97 -2,-86 86,-101 151,-101l1251 0c168,0 331,-25 455,-149 106,-106 162,-249 168,-398 8,-167 -44,-338 -158,-460 -100,-106 -238,-163 -383,-163 -81,0 -151,13 -227,41 -71,-27 -150,-40 -228,-41 -139,-2 -277,39 -371,146 -88,-109 -183,-146 -321,-146 -175,0 -336,91 -411,255 -37,81 -52,172 -50,261 2,199 85,415 275,499 27,12 66,14 90,-5 23,-17 11,-39 -12,-48zm1254 -368c0,78 -15,169 -52,238 -37,67 -94,121 -174,121 -79,0 -136,-53 -172,-120 -37,-69 -52,-161 -52,-239 0,-186 73,-352 224,-460 151,107 226,275 226,460z"/>
 </g>
</svg>
