<?xml version="1.0" encoding="UTF-8"?>
<!DOCTYPE svg PUBLIC "-//W3C//DTD SVG 1.1//EN" "http://www.w3.org/Graphics/SVG/1.1/DTD/svg11.dtd">
<!-- Creator: CorelDRAW X8 -->
<svg xmlns="http://www.w3.org/2000/svg" xml:space="preserve" width="2632px" height="1412px" version="1.1" style="shape-rendering:geometricPrecision; text-rendering:geometricPrecision; image-rendering:optimizeQuality; fill-rule:evenodd; clip-rule:evenodd"
viewBox="0 0 2632 1412"
 xmlns:xlink="http://www.w3.org/1999/xlink">
 <defs>
  <style type="text/css">
   <![CDATA[
    .fil0 {fill:#00A0E3;fill-rule:nonzero}
   ]]>
  </style>
 </defs>
 <g id="Layer_x0020_1">
  <metadata id="CorelCorpID_0Corel-Layer"/>
  <path class="fil0" d="M1369 146c-73,-94 -170,-145 -292,-146 -116,-1 -230,46 -299,142 -72,-99 -196,-142 -317,-142 -156,0 -309,76 -389,212 -50,86 -71,193 -72,292 -2,207 82,427 279,513 25,11 64,10 86,-7 23,-17 11,-39 -12,-49 -165,-72 -231,-278 -230,-456 1,-90 18,-187 62,-265 56,-99 162,-170 276,-170 171,0 253,124 253,285l0 634c0,19 28,35 62,35 34,0 61,-16 61,-35l0 -634c0,-187 117,-282 233,-282 163,0 236,146 236,290l0 626c0,26 42,35 61,35 20,0 62,-9 62,-35l0 -600c0,-198 112,-316 300,-320 123,-3 223,41 312,123 -116,5 -249,52 -340,174 -58,79 -89,180 -89,278 0,80 20,169 64,236 63,96 164,143 276,144 119,1 221,-54 283,-158 49,-83 70,-190 71,-286 2,-112 -21,-189 -60,-291 184,81 277,314 262,568 -15,246 -153,477 -417,485 -91,3 -189,-22 -262,-81 -21,-17 -61,-18 -86,-8 -22,9 -37,30 -14,48 100,81 234,115 360,111 319,-10 522,-239 541,-555 20,-315 -127,-603 -448,-662 -115,-140 -274,-195 -452,-195 -142,0 -260,38 -361,146zm726 112c65,99 90,204 89,322 -1,88 -20,187 -65,264 -38,62 -90,111 -166,110 -70,-1 -125,-41 -162,-98 -39,-60 -56,-141 -56,-212 0,-90 25,-178 79,-251 70,-95 166,-134 281,-135z"/>
 </g>
</svg>
