<?xml version="1.0" encoding="UTF-8"?>
<!DOCTYPE svg PUBLIC "-//W3C//DTD SVG 1.1//EN" "http://www.w3.org/Graphics/SVG/1.1/DTD/svg11.dtd">
<!-- Creator: CorelDRAW X8 -->
<svg xmlns="http://www.w3.org/2000/svg" xml:space="preserve" width="2530px" height="1486px" version="1.1" style="shape-rendering:geometricPrecision; text-rendering:geometricPrecision; image-rendering:optimizeQuality; fill-rule:evenodd; clip-rule:evenodd"
viewBox="0 0 2530 1486"
 xmlns:xlink="http://www.w3.org/1999/xlink">
 <defs>
  <style type="text/css">
   <![CDATA[
    .fil0 {fill:#2B2A29;fill-rule:nonzero}
   ]]>
  </style>
 </defs>
 <g id="Layer_x0020_1">
  <metadata id="CorelCorpID_0Corel-Layer"/>
  <path class="fil0" d="M1318 1486c321,0 669,-83 910,-274 182,-145 302,-353 302,-634 0,-168 -53,-346 -180,-462 -85,-78 -196,-116 -310,-116 -120,0 -245,43 -316,142 -67,-94 -182,-142 -296,-142 -113,0 -224,47 -292,142 -71,-99 -196,-142 -316,-142 -157,0 -310,76 -390,213 -50,85 -72,192 -72,291 -1,205 78,425 279,513 11,5 24,7 37,7 18,0 36,-4 49,-14 9,-7 13,-14 13,-21 0,-11 -10,-22 -25,-28 -165,-72 -231,-278 -230,-456 0,-89 18,-187 62,-265 56,-98 162,-169 277,-169 170,0 252,123 252,284l0 634c0,19 28,35 62,35 34,0 61,-16 61,-35l0 -634c0,-186 117,-282 233,-282 154,0 236,136 236,282l0 634c0,19 28,35 62,35 34,0 61,-16 61,-35l0 -634c0,-161 82,-284 253,-284 101,0 190,52 252,131 83,105 113,244 113,376 0,252 -90,438 -234,569 -209,192 -531,270 -853,270 -304,0 -669,-67 -909,-265 -189,-155 -286,-369 -286,-613 0,-191 70,-379 238,-480 11,-7 17,-16 17,-24 0,-10 -7,-19 -20,-26 -12,-7 -27,-9 -42,-9 -16,0 -32,4 -44,11 -188,113 -272,314 -272,528 0,311 139,532 346,681 264,191 638,266 972,266z"/>
 </g>
</svg>
