<?xml version="1.0" encoding="UTF-8"?>
<!DOCTYPE svg PUBLIC "-//W3C//DTD SVG 1.1//EN" "http://www.w3.org/Graphics/SVG/1.1/DTD/svg11.dtd">
<!-- Creator: CorelDRAW X8 -->
<svg xmlns="http://www.w3.org/2000/svg" xml:space="preserve" width="2727px" height="1024px" version="1.1" style="shape-rendering:geometricPrecision; text-rendering:geometricPrecision; image-rendering:optimizeQuality; fill-rule:evenodd; clip-rule:evenodd"
viewBox="0 0 2727 1024"
 xmlns:xlink="http://www.w3.org/1999/xlink">
 <defs>
  <style type="text/css">
   <![CDATA[
    .fil0 {fill:#B2B09C;fill-rule:nonzero}
   ]]>
  </style>
 </defs>
 <g id="Layer_x0020_1">
  <metadata id="CorelCorpID_0Corel-Layer"/>
  <path class="fil0" d="M2265 1024c176,0 336,-91 412,-256 37,-81 51,-173 50,-262 -3,-200 -86,-412 -275,-497 -27,-12 -66,-14 -90,5 -23,17 -11,39 11,49 162,70 228,277 231,443 1,74 -9,151 -36,220 -49,129 -163,228 -303,228 -172,0 -252,-123 -252,-288l0 -629c0,-26 -42,-35 -62,-35 -20,0 -61,9 -61,35l0 629c0,150 -59,284 -224,288 -99,2 -177,-73 -209,-164 -32,-92 -32,-190 -33,-286 -1,-95 -2,-191 -34,-282 -51,-145 -179,-225 -328,-222 -123,3 -209,38 -289,135 -142,-159 -381,-173 -556,-66 -158,97 -219,269 -217,451 3,200 86,410 275,495 27,12 66,14 90,-5 24,-17 11,-39 -11,-49 -162,-70 -228,-275 -231,-441 -2,-145 38,-294 156,-384 198,-153 435,-38 435,224l0 628c0,27 42,36 62,36 20,0 61,-9 61,-36l0 -628c0,-151 58,-286 224,-290 99,-2 177,74 209,166 30,86 32,178 33,269 1,101 0,202 34,299 51,145 179,223 327,220 124,-3 210,-36 290,-133 89,99 180,133 311,133z"/>
 </g>
</svg>
