<?xml version="1.0" encoding="UTF-8"?>
<!DOCTYPE svg PUBLIC "-//W3C//DTD SVG 1.1//EN" "http://www.w3.org/Graphics/SVG/1.1/DTD/svg11.dtd">
<!-- Creator: CorelDRAW X8 -->
<svg xmlns="http://www.w3.org/2000/svg" xml:space="preserve" width="1253px" height="825px" version="1.1" style="shape-rendering:geometricPrecision; text-rendering:geometricPrecision; image-rendering:optimizeQuality; fill-rule:evenodd; clip-rule:evenodd"
viewBox="0 0 1253 825"
 xmlns:xlink="http://www.w3.org/1999/xlink">
 <defs>
  <style type="text/css">
   <![CDATA[
    .fil0 {fill:#B2B09C;fill-rule:nonzero}
   ]]>
  </style>
 </defs>
 <g id="Layer_x0020_1">
  <metadata id="CorelCorpID_0Corel-Layer"/>
  <path class="fil0" d="M528 573c0,15 -21,27 -48,27 -27,0 -49,-12 -49,-27l0 -359c0,-85 -42,-161 -141,-161 -79,0 -143,56 -171,125 -15,39 -22,83 -21,126 2,92 40,209 134,248 18,8 29,24 10,37 -19,14 -50,13 -71,4 -118,-50 -169,-172 -171,-289 -1,-54 9,-107 31,-153 47,-98 149,-151 259,-151 75,0 144,18 195,73 53,-50 134,-73 213,-73 125,0 219,42 282,115 193,38 284,202 272,384 -12,190 -142,320 -337,326 -80,2 -164,-18 -228,-66 -18,-15 -6,-31 12,-37 20,-8 51,-7 68,6 41,31 96,45 148,44 152,-5 230,-137 239,-273 7,-110 -25,-231 -122,-298 18,45 26,91 25,139 -1,58 -15,118 -44,165 -41,66 -110,96 -182,95 -71,-1 -136,-28 -177,-87 -26,-38 -39,-87 -39,-136 0,-58 19,-116 54,-162 47,-61 119,-94 196,-104 -46,-39 -108,-59 -167,-58 -109,2 -170,70 -170,175l0 345zm382 -411c-61,0 -114,27 -151,73 -31,41 -46,91 -46,142 0,43 11,86 33,117 20,29 49,52 86,53 34,0 64,-20 88,-59 27,-42 38,-96 39,-148 1,-63 -13,-125 -49,-178z"/>
 </g>
</svg>
