<?xml version="1.0" encoding="UTF-8"?>
<!DOCTYPE svg PUBLIC "-//W3C//DTD SVG 1.1//EN" "http://www.w3.org/Graphics/SVG/1.1/DTD/svg11.dtd">
<!-- Creator: CorelDRAW X8 -->
<svg xmlns="http://www.w3.org/2000/svg" xml:space="preserve" width="1605px" height="825px" version="1.1" style="shape-rendering:geometricPrecision; text-rendering:geometricPrecision; image-rendering:optimizeQuality; fill-rule:evenodd; clip-rule:evenodd"
viewBox="0 0 1605 825"
 xmlns:xlink="http://www.w3.org/1999/xlink">
 <defs>
  <style type="text/css">
   <![CDATA[
    .fil0 {fill:#00A0E3;fill-rule:nonzero}
   ]]>
  </style>
 </defs>
 <g id="Layer_x0020_1">
  <metadata id="CorelCorpID_0Corel-Layer"/>
  <path class="fil0" d="M831 77c59,-55 128,-77 220,-77 107,0 211,33 281,115 193,38 284,202 272,384 -12,190 -142,320 -337,326 -79,2 -164,-18 -227,-66 -19,-14 -7,-31 11,-37 20,-8 52,-7 69,6 41,31 95,45 147,44 152,-5 231,-137 239,-273 7,-110 -25,-231 -121,-298 17,45 25,91 24,139 -1,58 -14,118 -44,165 -41,66 -110,96 -181,95 -71,-1 -137,-28 -177,-87 -26,-38 -40,-87 -40,-136 0,-58 19,-116 55,-162 47,-61 118,-94 195,-104 -46,-39 -108,-59 -167,-58 -109,2 -169,69 -169,175l0 345c0,15 -22,27 -49,27 -27,0 -49,-12 -49,-27l0 -359c0,-78 -38,-160 -128,-160 -90,0 -127,84 -127,160l0 360c0,14 -22,26 -49,26 -27,0 -49,-12 -49,-26l0 -360c0,-87 -43,-160 -140,-160 -79,0 -143,56 -171,125 -16,39 -22,83 -21,126 1,92 40,209 134,248 18,7 28,24 9,37 -20,14 -51,12 -73,3 -115,-50 -166,-172 -168,-288 -1,-54 8,-107 31,-153 47,-98 149,-151 259,-151 80,0 147,29 190,77 46,-53 108,-77 175,-77 69,-1 131,24 176,76zm431 85c-60,0 -114,27 -150,73 -32,41 -47,91 -47,142 0,43 11,86 33,117 20,29 49,52 87,53 34,0 63,-20 88,-59 26,-42 38,-96 38,-148 1,-63 -13,-125 -49,-178z"/>
 </g>
</svg>
