<?xml version="1.0" encoding="UTF-8"?>
<!DOCTYPE svg PUBLIC "-//W3C//DTD SVG 1.1//EN" "http://www.w3.org/Graphics/SVG/1.1/DTD/svg11.dtd">
<!-- Creator: CorelDRAW X8 -->
<svg xmlns="http://www.w3.org/2000/svg" xml:space="preserve" width="2046px" height="1486px" version="1.1" style="shape-rendering:geometricPrecision; text-rendering:geometricPrecision; image-rendering:optimizeQuality; fill-rule:evenodd; clip-rule:evenodd"
viewBox="0 0 2046 1486"
 xmlns:xlink="http://www.w3.org/1999/xlink">
 <defs>
  <style type="text/css">
   <![CDATA[
    .fil0 {fill:#B2B09C;fill-rule:nonzero}
   ]]>
  </style>
 </defs>
 <g id="Layer_x0020_1">
  <metadata id="CorelCorpID_0Corel-Layer"/>
  <path class="fil0" d="M1404 930c130,-91 242,-217 297,-366 24,-64 37,-133 37,-205 -2,-152 -71,-254 -170,-292 87,9 171,25 248,96 68,63 107,155 107,264l0 503 -519 0zm642 83l0 -586c0,-117 -40,-222 -126,-301 -98,-90 -231,-126 -361,-126 -148,0 -305,50 -401,169 -87,-126 -185,-169 -338,-169 -175,0 -336,91 -412,256 -37,81 -51,175 -50,264 3,201 86,410 275,495 27,12 66,14 91,-5 23,-17 11,-39 -12,-49 -162,-70 -229,-274 -231,-441 -1,-75 9,-152 36,-222 49,-130 163,-228 303,-228 224,0 253,185 253,360l0 535c0,26 42,35 61,35l788 0c-4,123 -54,199 -153,268 -163,115 -422,148 -616,149 -198,1 -448,-41 -621,-140 -265,-150 -411,-427 -409,-732 1,-185 49,-378 209,-485 24,-16 17,-38 -7,-50 -24,-12 -63,-11 -86,4 -177,119 -239,325 -239,531 0,331 159,619 445,782 200,114 477,159 705,159 210,0 481,-39 668,-143 130,-72 228,-172 228,-330zm-744 -849c38,-35 85,-56 136,-56 131,1 180,138 179,253 -1,70 -14,135 -36,195 -65,171 -212,299 -385,374l0 -503c0,-101 32,-195 106,-263z"/>
 </g>
</svg>
