<?xml version="1.0" encoding="UTF-8"?>
<!DOCTYPE svg PUBLIC "-//W3C//DTD SVG 1.1//EN" "http://www.w3.org/Graphics/SVG/1.1/DTD/svg11.dtd">
<!-- Creator: CorelDRAW X8 -->
<svg xmlns="http://www.w3.org/2000/svg" xml:space="preserve" width="987px" height="868px" version="1.1" style="shape-rendering:geometricPrecision; text-rendering:geometricPrecision; image-rendering:optimizeQuality; fill-rule:evenodd; clip-rule:evenodd"
viewBox="0 0 987 868"
 xmlns:xlink="http://www.w3.org/1999/xlink">
 <defs>
  <style type="text/css">
   <![CDATA[
    .fil0 {fill:#2B2A29;fill-rule:nonzero}
   ]]>
  </style>
 </defs>
 <g id="Layer_x0020_1">
  <metadata id="CorelCorpID_0Corel-Layer"/>
  <path class="fil0" d="M479 868c45,0 97,-5 146,-14 30,-6 59,-13 85,-23 117,-43 195,-131 237,-234 28,-68 40,-142 40,-216 0,-113 -27,-231 -117,-311 -53,-46 -126,-70 -201,-70 -79,0 -146,22 -189,68 -42,-46 -110,-68 -189,-68 -111,0 -213,53 -260,151 -22,45 -31,96 -31,148 0,119 53,242 171,293 9,4 21,6 33,6 14,0 28,-3 38,-10 7,-6 10,-11 10,-16 0,-9 -8,-17 -19,-22 -97,-39 -135,-159 -135,-252 0,-41 6,-83 21,-120 29,-69 93,-125 172,-125 97,0 140,67 140,155l0 363c0,15 22,27 49,27 27,0 49,-12 49,-27l0 -363c0,-88 43,-155 140,-155 57,0 108,29 141,69 62,75 80,166 80,259 0,62 -8,134 -27,194 -27,83 -74,156 -153,202 1,-5 2,-10 2,-14 0,-53 -76,-76 -119,-85 -32,-8 -68,-12 -114,-12 -48,0 -91,5 -125,13 -73,19 -110,53 -110,87 0,50 66,77 107,87 40,11 86,15 128,15zm0 -49c-99,0 -145,-26 -145,-52 0,-27 51,-51 145,-51 94,0 143,26 143,51 0,25 -44,52 -143,52z"/>
 </g>
</svg>
