<?xml version="1.0" encoding="UTF-8"?>
<!DOCTYPE svg PUBLIC "-//W3C//DTD SVG 1.1//EN" "http://www.w3.org/Graphics/SVG/1.1/DTD/svg11.dtd">
<!-- Creator: CorelDRAW X8 -->
<svg xmlns="http://www.w3.org/2000/svg" xml:space="preserve" width="2227px" height="1486px" version="1.1" style="shape-rendering:geometricPrecision; text-rendering:geometricPrecision; image-rendering:optimizeQuality; fill-rule:evenodd; clip-rule:evenodd"
viewBox="0 0 2227 1486"
 xmlns:xlink="http://www.w3.org/1999/xlink">
 <defs>
  <style type="text/css">
   <![CDATA[
    .fil0 {fill:#00A0E3;fill-rule:nonzero}
   ]]>
  </style>
 </defs>
 <g id="Layer_x0020_1">
  <metadata id="CorelCorpID_0Corel-Layer"/>
  <path class="fil0" d="M715 357l0 631c0,26 42,35 61,35 19,0 61,-9 61,-35l0 -607c0,-194 129,-311 317,-311 49,0 87,4 133,19 -168,120 -253,297 -253,505 0,85 17,183 57,258 61,113 164,170 289,170 126,0 230,-57 291,-170 41,-75 57,-173 57,-258 0,-204 -86,-379 -249,-500 75,-21 136,-24 212,-24 82,0 176,13 247,55 69,41 117,113 117,196 0,89 -56,172 -150,173 -21,0 -66,6 -67,34 -1,28 44,34 64,35 131,7 203,112 202,239 0,63 -15,124 -52,175 -66,93 -183,123 -292,123l-1484 0c-125,0 -273,30 -276,187 -3,164 147,199 276,199l1844 0c32,0 61,-26 61,-59 0,-34 -30,-59 -61,-59l-1844 0c-66,0 -149,-12 -151,-98 -2,-85 86,-101 151,-101l1481 0c141,0 284,-21 385,-130 60,-66 85,-149 85,-237 0,-126 -60,-217 -167,-275 73,-48 117,-110 118,-202 1,-107 -63,-195 -152,-248 -97,-58 -223,-77 -335,-77 -105,0 -201,10 -301,45 -72,-29 -154,-43 -236,-45 -140,-3 -280,37 -371,146 -90,-112 -187,-146 -321,-146 -175,0 -336,91 -411,255 -37,80 -52,171 -50,260 2,200 85,415 275,500 27,12 65,13 90,-5 23,-17 11,-39 -12,-49 -161,-69 -228,-278 -231,-444 -1,-74 9,-152 36,-221 50,-128 164,-226 303,-226 166,0 253,115 253,287zm891 237c0,78 -15,168 -52,237 -37,68 -94,122 -174,122 -79,0 -135,-54 -172,-121 -37,-68 -51,-160 -51,-238 0,-186 72,-352 223,-460 151,107 226,275 226,460z"/>
 </g>
</svg>
