<?xml version="1.0" encoding="UTF-8"?>
<!DOCTYPE svg PUBLIC "-//W3C//DTD SVG 1.1//EN" "http://www.w3.org/Graphics/SVG/1.1/DTD/svg11.dtd">
<!-- Creator: CorelDRAW X8 -->
<svg xmlns="http://www.w3.org/2000/svg" xml:space="preserve" width="1688px" height="1024px" version="1.1" style="shape-rendering:geometricPrecision; text-rendering:geometricPrecision; image-rendering:optimizeQuality; fill-rule:evenodd; clip-rule:evenodd"
viewBox="0 0 1688 1024"
 xmlns:xlink="http://www.w3.org/1999/xlink">
 <defs>
  <style type="text/css">
   <![CDATA[
    .fil0 {fill:#CC9933;fill-rule:nonzero}
   ]]>
  </style>
 </defs>
 <g id="Layer_x0020_1">
  <metadata id="CorelCorpID_0Corel-Layer"/>
  <path class="fil0" d="M1046 930c130,-91 242,-217 297,-366 24,-64 38,-133 37,-205 -2,-152 -71,-254 -170,-292 87,9 171,25 248,96 68,63 107,155 107,263l0 504 -519 0zm-331 -500l0 535c0,26 42,35 61,35l850 0c20,0 62,-9 62,-35l0 -539c0,-116 -40,-221 -126,-300 -98,-90 -231,-126 -361,-126 -148,0 -305,50 -401,169 -87,-126 -185,-169 -338,-169 -175,0 -336,91 -412,256 -37,81 -51,175 -50,264 3,201 86,410 276,495 12,6 28,9 43,9 17,0 34,-4 47,-14 9,-7 13,-15 12,-22 -1,-11 -11,-21 -24,-27 -162,-70 -228,-274 -231,-441 -1,-75 9,-152 36,-222 50,-130 163,-228 303,-228 224,0 253,185 253,360zm229 -266c38,-35 85,-56 136,-56 131,1 180,138 179,253 -1,70 -14,135 -36,195 -65,171 -212,299 -385,374l0 -504c0,-100 32,-194 106,-262z"/>
 </g>
</svg>
