<?xml version="1.0" encoding="UTF-8"?>
<!DOCTYPE svg PUBLIC "-//W3C//DTD SVG 1.1//EN" "http://www.w3.org/Graphics/SVG/1.1/DTD/svg11.dtd">
<!-- Creator: CorelDRAW X8 -->
<svg xmlns="http://www.w3.org/2000/svg" xml:space="preserve" width="1755px" height="1024px" version="1.1" style="shape-rendering:geometricPrecision; text-rendering:geometricPrecision; image-rendering:optimizeQuality; fill-rule:evenodd; clip-rule:evenodd"
viewBox="0 0 1755 1024"
 xmlns:xlink="http://www.w3.org/1999/xlink">
 <defs>
  <style type="text/css">
   <![CDATA[
    .fil0 {fill:#669933;fill-rule:nonzero}
   ]]>
  </style>
 </defs>
 <g id="Layer_x0020_1">
  <metadata id="CorelCorpID_0Corel-Layer"/>
  <path class="fil0" d="M877 978c0,25 -36,46 -81,46 -44,0 -81,-21 -81,-46l0 -611c0,-146 -69,-276 -233,-276 -131,0 -237,96 -284,214 -26,67 -36,142 -35,215 2,158 67,356 223,422 36,15 43,44 15,64 -31,23 -83,22 -118,7 -194,-86 -280,-292 -283,-493 -1,-91 14,-183 51,-262 79,-168 248,-258 431,-258 124,0 238,31 323,125 89,-86 222,-125 354,-125 216,1 376,78 480,211 83,107 118,236 116,371 -1,99 -24,198 -73,279 -69,114 -182,164 -302,163 -118,-1 -227,-48 -294,-149 -43,-65 -65,-146 -65,-230 0,-98 31,-199 91,-277 78,-104 196,-162 324,-178 -76,-67 -180,-102 -277,-100 -178,4 -282,122 -282,301l0 587zm633 -701c-100,0 -189,46 -249,126 -52,69 -77,156 -77,242 0,74 18,144 54,198 33,50 82,89 144,90 56,0 106,-34 146,-101 44,-72 63,-161 65,-250 1,-108 -22,-215 -83,-305z"/>
 </g>
</svg>
