<?xml version="1.0" encoding="UTF-8"?>
<!DOCTYPE svg PUBLIC "-//W3C//DTD SVG 1.1//EN" "http://www.w3.org/Graphics/SVG/1.1/DTD/svg11.dtd">
<!-- Creator: CorelDRAW X8 -->
<svg xmlns="http://www.w3.org/2000/svg" xml:space="preserve" width="1661px" height="1486px" version="1.1" style="shape-rendering:geometricPrecision; text-rendering:geometricPrecision; image-rendering:optimizeQuality; fill-rule:evenodd; clip-rule:evenodd"
viewBox="0 0 1661 1486"
 xmlns:xlink="http://www.w3.org/1999/xlink">
 <defs>
  <style type="text/css">
   <![CDATA[
    .fil0 {fill:#2B2A29;fill-rule:nonzero}
   ]]>
  </style>
 </defs>
 <g id="Layer_x0020_1">
  <metadata id="CorelCorpID_0Corel-Layer"/>
  <path class="fil0" d="M1570 1236c65,-98 91,-193 91,-310 0,-181 -74,-320 -234,-396 85,-49 141,-125 141,-228 0,-230 -206,-301 -401,-301 -147,0 -287,32 -391,143 -93,-113 -172,-144 -314,-144 -176,0 -336,91 -412,256 -36,79 -50,169 -50,255 0,200 82,417 275,504 13,6 28,9 43,9 17,0 34,-4 47,-14 9,-7 13,-14 13,-21 0,-11 -10,-22 -24,-28 -167,-72 -231,-284 -231,-451 0,-71 10,-145 36,-212 49,-129 163,-228 303,-228 170,0 252,117 252,283l0 635c0,27 42,35 62,35 18,0 61,-8 61,-35l0 -615c0,-207 135,-302 330,-302 143,0 279,64 279,231 0,69 -33,136 -95,168 -48,25 -106,30 -165,29l-70 -1c-21,-1 -63,8 -63,35 0,26 41,35 60,35l73 0c56,0 111,3 164,24 140,57 207,184 207,334 0,96 -15,191 -59,271 -23,43 -54,83 -96,116 -18,-86 -111,-118 -187,-136 -59,-14 -120,-19 -181,-19 -66,0 -136,5 -200,22 -65,17 -170,61 -170,142 0,79 103,123 166,140 59,17 129,24 204,24 70,0 140,-7 206,-24 131,-34 249,-104 330,-226zm-536 188c-178,0 -262,-51 -262,-103 0,-51 93,-100 262,-100 168,0 256,53 256,100 0,50 -79,103 -256,103z"/>
 </g>
</svg>
