<?xml version="1.0" encoding="UTF-8"?>
<!DOCTYPE svg PUBLIC "-//W3C//DTD SVG 1.1//EN" "http://www.w3.org/Graphics/SVG/1.1/DTD/svg11.dtd">
<!-- Creator: CorelDRAW X8 -->
<svg xmlns="http://www.w3.org/2000/svg" xml:space="preserve" width="2182px" height="1486px" version="1.1" style="shape-rendering:geometricPrecision; text-rendering:geometricPrecision; image-rendering:optimizeQuality; fill-rule:evenodd; clip-rule:evenodd"
viewBox="0 0 2182 1486"
 xmlns:xlink="http://www.w3.org/1999/xlink">
 <defs>
  <style type="text/css">
   <![CDATA[
    .fil0 {fill:#B2B09C;fill-rule:nonzero}
   ]]>
  </style>
 </defs>
 <g id="Layer_x0020_1">
  <metadata id="CorelCorpID_0Corel-Layer"/>
  <path class="fil0" d="M1376 1429c-66,0 -144,-4 -205,-32 -42,-20 -74,-52 -73,-101 2,-61 73,-84 122,-84 66,1 106,43 106,109 0,24 32,30 51,30 19,0 51,-6 51,-30 0,-66 40,-108 106,-109 50,0 120,23 122,84 2,49 -31,81 -72,101 -62,28 -141,33 -208,32zm-1022 -467c-162,-70 -229,-279 -231,-445 -1,-74 9,-151 36,-221 49,-128 163,-226 303,-226 172,0 252,123 252,287l0 632c0,26 42,34 61,34 20,0 62,-8 62,-34l0 -603c0,-194 128,-316 317,-316 48,0 86,4 133,19 -167,119 -253,298 -253,506 0,84 17,183 57,258 61,112 164,171 289,171 126,-1 230,-59 291,-172 41,-75 57,-172 57,-257 0,-209 -85,-387 -253,-506 46,-16 85,-19 133,-19 148,-1 274,94 352,216 74,113 100,248 100,382 -1,149 -34,306 -106,437 -50,90 -118,167 -210,226 3,-12 3,-23 3,-34 -2,-41 -23,-75 -66,-103 -40,-26 -99,-36 -146,-36 -62,0 -106,13 -158,47 -51,-34 -96,-47 -158,-47 -47,0 -105,10 -145,36 -36,23 -63,58 -64,102 -1,74 71,133 134,156 71,26 157,35 232,34 76,-1 153,-9 227,-29 175,-46 316,-148 422,-297 103,-144 154,-321 157,-498 2,-141 -30,-281 -104,-401 -101,-165 -280,-261 -470,-261 -81,0 -152,13 -227,41 -78,-29 -148,-39 -228,-41 -139,-2 -276,39 -371,146 -87,-108 -183,-146 -320,-146 -176,0 -336,91 -412,255 -37,81 -51,172 -50,261 3,199 86,415 275,499 27,12 66,14 90,-5 23,-17 12,-39 -11,-48zm1026 -828c152,108 226,273 226,461 0,78 -15,168 -52,237 -36,67 -95,122 -174,122 -79,0 -135,-54 -172,-121 -37,-69 -51,-161 -51,-238 0,-186 73,-354 223,-461z"/>
 </g>
</svg>
