<?xml version="1.0" encoding="UTF-8"?>
<!DOCTYPE svg PUBLIC "-//W3C//DTD SVG 1.1//EN" "http://www.w3.org/Graphics/SVG/1.1/DTD/svg11.dtd">
<!-- Creator: CorelDRAW X8 -->
<svg xmlns="http://www.w3.org/2000/svg" xml:space="preserve" width="1253px" height="825px" version="1.1" style="shape-rendering:geometricPrecision; text-rendering:geometricPrecision; image-rendering:optimizeQuality; fill-rule:evenodd; clip-rule:evenodd"
viewBox="0 0 1253 825"
 xmlns:xlink="http://www.w3.org/1999/xlink">
 <defs>
  <style type="text/css">
   <![CDATA[
    .fil0 {fill:#00A0E3;fill-rule:nonzero}
   ]]>
  </style>
 </defs>
 <g id="Layer_x0020_1">
  <metadata id="CorelCorpID_0Corel-Layer"/>
  <path class="fil0" d="M528 573l0 -345c0,-105 61,-173 170,-175 59,-1 121,19 167,58 -77,10 -149,43 -196,104 -35,46 -54,104 -54,162 0,49 13,98 39,136 41,59 106,86 177,87 72,1 141,-29 182,-95 29,-47 43,-107 44,-165 1,-48 -7,-94 -25,-139 97,67 129,188 122,298 -9,136 -87,268 -239,273 -52,1 -107,-13 -148,-44 -17,-13 -48,-14 -68,-6 -18,6 -30,22 -12,37 64,48 148,68 228,66 195,-6 325,-136 337,-326 12,-182 -79,-346 -272,-384 -63,-73 -157,-115 -282,-115 -79,0 -160,23 -213,73 -51,-55 -120,-73 -195,-73 -110,0 -212,53 -259,151 -22,46 -32,99 -31,153 2,117 53,239 171,289 21,9 52,10 71,-4 19,-13 8,-29 -10,-37 -94,-39 -132,-156 -134,-248 -1,-43 6,-87 21,-126 28,-69 92,-125 171,-125 99,0 141,76 141,161l0 359c0,15 22,27 49,27 27,0 48,-12 48,-27zm382 -411c36,53 50,115 49,178 -1,52 -12,106 -39,148 -24,39 -54,59 -88,59 -37,-1 -66,-24 -86,-53 -22,-31 -33,-74 -33,-117 0,-51 15,-101 46,-142 37,-46 90,-73 151,-73z"/>
 </g>
</svg>
