<?xml version="1.0" encoding="UTF-8"?>
<!DOCTYPE svg PUBLIC "-//W3C//DTD SVG 1.1//EN" "http://www.w3.org/Graphics/SVG/1.1/DTD/svg11.dtd">
<!-- Creator: CorelDRAW X8 -->
<svg xmlns="http://www.w3.org/2000/svg" xml:space="preserve" width="2227px" height="1486px" version="1.1" style="shape-rendering:geometricPrecision; text-rendering:geometricPrecision; image-rendering:optimizeQuality; fill-rule:evenodd; clip-rule:evenodd"
viewBox="0 0 2227 1486"
 xmlns:xlink="http://www.w3.org/1999/xlink">
 <defs>
  <style type="text/css">
   <![CDATA[
    .fil0 {fill:#2B2A29;fill-rule:nonzero}
   ]]>
  </style>
 </defs>
 <g id="Layer_x0020_1">
  <metadata id="CorelCorpID_0Corel-Layer"/>
  <path class="fil0" d="M2118 1486c32,0 61,-26 61,-59 0,-34 -30,-59 -61,-59l-1842 0c-70,0 -151,-14 -151,-101 0,-82 87,-98 151,-98l1481 0c141,0 285,-21 385,-130 61,-66 85,-152 85,-240 0,-126 -60,-214 -167,-272 75,-49 118,-113 118,-204 0,-106 -64,-193 -152,-246 -97,-59 -223,-77 -335,-77 -105,0 -201,10 -301,45 -78,-32 -152,-45 -236,-45 -136,0 -283,41 -371,146 -90,-112 -187,-146 -321,-146 -175,0 -336,91 -411,255 -35,75 -50,160 -50,244 0,203 76,427 275,516 13,6 28,9 43,9 17,0 34,-4 47,-14 9,-6 12,-14 12,-20 0,-12 -10,-23 -24,-29 -165,-71 -231,-289 -231,-454 0,-71 10,-145 36,-211 50,-128 164,-226 303,-226 166,0 253,115 253,287l0 631c0,26 42,35 61,35 19,0 61,-9 61,-35l0 -607c0,-194 129,-311 317,-311 49,0 87,4 133,19 -168,120 -253,297 -253,505 0,85 17,183 57,258 61,113 164,170 289,170 126,0 230,-57 291,-170 41,-75 57,-173 57,-258 0,-204 -86,-379 -249,-500 75,-21 136,-24 212,-24 82,0 176,13 247,55 69,41 117,113 117,196 0,89 -56,172 -150,173 -21,0 -67,6 -67,35 0,27 44,33 64,34 130,7 202,111 202,236 0,64 -14,125 -52,178 -66,93 -183,123 -292,123l-1484 0c-130,0 -276,33 -276,192 0,160 148,194 276,194l1842 0zm-738 -533c-79,0 -135,-54 -172,-121 -37,-68 -51,-160 -51,-238 0,-186 72,-352 223,-460 151,107 226,275 226,460 0,157 -67,359 -226,359z"/>
 </g>
</svg>
