<?xml version="1.0" encoding="UTF-8"?>
<!DOCTYPE svg PUBLIC "-//W3C//DTD SVG 1.1//EN" "http://www.w3.org/Graphics/SVG/1.1/DTD/svg11.dtd">
<!-- Creator: CorelDRAW X8 -->
<svg xmlns="http://www.w3.org/2000/svg" xml:space="preserve" width="2306px" height="1024px" version="1.1" style="shape-rendering:geometricPrecision; text-rendering:geometricPrecision; image-rendering:optimizeQuality; fill-rule:evenodd; clip-rule:evenodd"
viewBox="0 0 2306 1024"
 xmlns:xlink="http://www.w3.org/1999/xlink">
 <defs>
  <style type="text/css">
   <![CDATA[
    .fil0 {fill:#CC9933;fill-rule:nonzero}
   ]]>
  </style>
 </defs>
 <g id="Layer_x0020_1">
  <metadata id="CorelCorpID_0Corel-Layer"/>
  <path class="fil0" d="M1369 146c-73,-94 -170,-145 -292,-146 -116,-1 -230,46 -299,142 -71,-99 -196,-142 -317,-142 -156,0 -309,76 -389,212 -50,86 -71,193 -72,292 -2,207 82,427 279,513 11,5 24,7 37,7 19,0 37,-5 49,-14 8,-6 12,-13 13,-20 0,-11 -9,-22 -25,-29 -165,-72 -231,-278 -230,-456 1,-89 18,-187 62,-265 56,-99 162,-170 276,-170 171,0 253,124 253,285l0 634c0,19 28,35 62,35 34,0 61,-16 61,-35l0 -634c0,-187 117,-282 233,-282 163,0 236,146 236,290l0 626c0,26 42,35 62,35 19,0 61,-9 61,-35l0 -600c0,-195 108,-315 300,-319 121,-2 221,40 309,121 -136,18 -251,62 -337,179 -58,79 -89,180 -89,279 0,80 20,163 64,231 63,96 164,143 276,144 119,2 221,-54 282,-158 49,-84 71,-185 72,-282 2,-135 -32,-267 -115,-374 -112,-148 -280,-210 -459,-209 -143,0 -264,39 -363,145zm726 115c65,99 90,204 88,323 -1,89 -19,182 -65,259 -37,63 -89,112 -165,111 -70,-1 -125,-41 -162,-99 -39,-60 -56,-135 -56,-206 0,-90 25,-180 79,-252 70,-96 166,-136 281,-136z"/>
 </g>
</svg>
