<?xml version="1.0" encoding="UTF-8"?>
<!DOCTYPE svg PUBLIC "-//W3C//DTD SVG 1.1//EN" "http://www.w3.org/Graphics/SVG/1.1/DTD/svg11.dtd">
<!-- Creator: CorelDRAW X8 -->
<svg xmlns="http://www.w3.org/2000/svg" xml:space="preserve" width="1688px" height="1024px" version="1.1" style="shape-rendering:geometricPrecision; text-rendering:geometricPrecision; image-rendering:optimizeQuality; fill-rule:evenodd; clip-rule:evenodd"
viewBox="0 0 1688 1024"
 xmlns:xlink="http://www.w3.org/1999/xlink">
 <defs>
  <style type="text/css">
   <![CDATA[
    .fil0 {fill:#2B2A29;fill-rule:nonzero}
   ]]>
  </style>
 </defs>
 <g id="Layer_x0020_1">
  <metadata id="CorelCorpID_0Corel-Layer"/>
  <path class="fil0" d="M319 1024c17,0 34,-4 47,-14 9,-6 12,-14 12,-20 0,-12 -10,-23 -24,-29 -166,-72 -231,-284 -231,-451 0,-72 10,-145 36,-212 50,-130 163,-228 303,-228 224,0 253,185 253,360l0 535c0,26 42,35 61,35l850 0c20,0 62,-9 62,-35l0 -539c0,-116 -40,-221 -126,-300 -98,-90 -231,-126 -361,-126 -148,0 -305,50 -401,169 -87,-126 -185,-169 -338,-169 -175,0 -336,91 -412,256 -36,78 -50,169 -50,255 0,201 82,417 276,504 13,6 28,9 43,9zm1246 -94l-519 0c190,-133 334,-334 334,-572 0,-123 -47,-244 -170,-291 87,9 171,25 248,96 68,63 107,155 107,263l0 504zm-727 0l0 -504c0,-100 32,-194 106,-262 38,-35 85,-56 136,-56 130,1 179,135 179,250 0,268 -184,469 -421,572z"/>
 </g>
</svg>
