<?xml version="1.0" encoding="UTF-8"?>
<!DOCTYPE svg PUBLIC "-//W3C//DTD SVG 1.1//EN" "http://www.w3.org/Graphics/SVG/1.1/DTD/svg11.dtd">
<!-- Creator: CorelDRAW X8 -->
<svg xmlns="http://www.w3.org/2000/svg" xml:space="preserve" width="987px" height="868px" version="1.1" style="shape-rendering:geometricPrecision; text-rendering:geometricPrecision; image-rendering:optimizeQuality; fill-rule:evenodd; clip-rule:evenodd"
viewBox="0 0 987 868"
 xmlns:xlink="http://www.w3.org/1999/xlink">
 <defs>
  <style type="text/css">
   <![CDATA[
    .fil0 {fill:#B2B09C;fill-rule:nonzero}
   ]]>
  </style>
 </defs>
 <g id="Layer_x0020_1">
  <metadata id="CorelCorpID_0Corel-Layer"/>
  <path class="fil0" d="M479 715c39,0 68,4 91,11 34,10 52,25 52,41 0,15 -18,31 -53,41 -23,7 -52,11 -90,11 -46,0 -82,-6 -106,-15 -27,-10 -40,-24 -39,-37 0,-14 13,-27 39,-37 24,-9 60,-15 106,-15zm391 -645c-53,-46 -126,-70 -200,-70 -80,0 -147,22 -190,68 -42,-46 -110,-68 -189,-68 -111,0 -213,53 -260,151 -22,46 -32,100 -31,153 2,118 53,240 171,290 21,9 52,9 71,-4 19,-14 9,-30 -9,-38 -94,-38 -133,-156 -135,-248 0,-43 6,-87 22,-126 27,-69 91,-125 171,-125 97,0 140,67 140,155l0 365c0,15 22,27 49,27 27,0 49,-12 49,-27l0 -365c0,-87 43,-155 141,-155 56,0 107,29 140,69 49,59 75,146 79,235 4,70 -3,147 -26,218 -27,82 -75,157 -153,202 1,-3 1,-7 1,-10 0,-52 -72,-79 -118,-89 -32,-7 -69,-12 -114,-12 -49,0 -91,5 -125,14 -73,18 -110,52 -110,87 0,34 35,68 107,87 40,10 86,14 127,14 34,0 71,-3 108,-8 45,-7 86,-15 124,-29 117,-43 195,-130 237,-234 30,-75 43,-159 40,-240 -4,-110 -40,-219 -117,-287z"/>
 </g>
</svg>
