<?xml version="1.0" encoding="UTF-8"?>
<!DOCTYPE svg PUBLIC "-//W3C//DTD SVG 1.1//EN" "http://www.w3.org/Graphics/SVG/1.1/DTD/svg11.dtd">
<!-- Creator: CorelDRAW X8 -->
<svg xmlns="http://www.w3.org/2000/svg" xml:space="preserve" width="1058px" height="600px" version="1.1" style="shape-rendering:geometricPrecision; text-rendering:geometricPrecision; image-rendering:optimizeQuality; fill-rule:evenodd; clip-rule:evenodd"
viewBox="0 0 1058 600"
 xmlns:xlink="http://www.w3.org/1999/xlink">
 <defs>
  <style type="text/css">
   <![CDATA[
    .fil0 {fill:#2B2A29;fill-rule:nonzero}
   ]]>
  </style>
 </defs>
 <g id="Layer_x0020_1">
  <metadata id="CorelCorpID_0Corel-Layer"/>
  <path class="fil0" d="M833 600c71,0 140,-29 181,-96 32,-50 44,-111 44,-169 0,-77 -21,-150 -70,-211 -63,-78 -154,-124 -284,-124 -80,0 -165,23 -219,73 -51,-55 -120,-73 -194,-73 -111,0 -213,53 -260,151 -22,45 -31,97 -31,149 0,120 52,243 171,294 9,4 21,6 33,6 14,0 28,-3 38,-11 7,-5 10,-10 10,-15 0,-9 -8,-17 -19,-22 -97,-40 -135,-159 -135,-253 0,-41 6,-83 21,-120 28,-69 93,-126 172,-126 98,0 140,77 140,162l0 358c0,15 22,27 49,27 27,0 49,-12 49,-27l0 -344c0,-105 64,-176 175,-176 57,0 117,20 162,58 -77,10 -148,44 -196,105 -36,46 -54,105 -54,162 0,49 13,97 39,135 40,59 107,87 178,87zm0 -53c-37,-1 -67,-24 -87,-53 -21,-32 -32,-73 -32,-116 0,-50 15,-101 46,-142 36,-47 90,-74 150,-74 36,52 50,113 50,175 0,51 -12,107 -39,151 -24,39 -54,59 -88,59z"/>
 </g>
</svg>
