<?xml version="1.0" encoding="UTF-8"?>
<!DOCTYPE svg PUBLIC "-//W3C//DTD SVG 1.1//EN" "http://www.w3.org/Graphics/SVG/1.1/DTD/svg11.dtd">
<!-- Creator: CorelDRAW X8 -->
<svg xmlns="http://www.w3.org/2000/svg" xml:space="preserve" width="2041px" height="1412px" version="1.1" style="shape-rendering:geometricPrecision; text-rendering:geometricPrecision; image-rendering:optimizeQuality; fill-rule:evenodd; clip-rule:evenodd"
viewBox="0 0 2041 1412"
 xmlns:xlink="http://www.w3.org/1999/xlink">
 <defs>
  <style type="text/css">
   <![CDATA[
    .fil0 {fill:#CC9933;fill-rule:nonzero}
   ]]>
  </style>
 </defs>
 <g id="Layer_x0020_1">
  <metadata id="CorelCorpID_0Corel-Layer"/>
  <path class="fil0" d="M1591 195c-115,-140 -274,-195 -452,-195 -140,0 -253,39 -356,139 -93,-105 -183,-139 -321,-139 -88,0 -173,23 -245,67 -71,43 -129,105 -167,187 -37,81 -51,174 -50,263 3,200 86,413 275,498 13,5 28,9 43,9 17,0 34,-4 47,-14 9,-7 13,-14 13,-21 0,-11 -10,-22 -24,-28 -162,-70 -228,-278 -231,-444 -1,-74 9,-152 36,-221 25,-64 66,-122 120,-163 51,-40 113,-64 183,-64 172,0 253,129 253,293l0 627c0,26 42,35 61,35 20,0 62,-9 62,-35l0 -603c0,-196 114,-313 300,-317 123,-3 223,41 312,123 -116,5 -249,52 -340,174 -58,79 -89,180 -89,278 0,80 20,169 64,236 63,96 164,143 276,144 119,1 221,-54 283,-158 49,-83 70,-190 71,-286 2,-112 -21,-189 -60,-291 184,81 277,314 262,568 -15,246 -153,477 -417,485 -91,3 -189,-22 -262,-81 -12,-10 -30,-14 -48,-15 -14,0 -27,2 -38,7 -14,5 -26,16 -26,29 0,6 3,13 12,19 100,81 234,115 360,111 319,-10 522,-239 541,-555 20,-315 -127,-603 -448,-662zm-87 63c65,99 90,204 89,322 -1,88 -20,187 -65,264 -38,62 -90,111 -166,110 -70,-1 -125,-41 -162,-98 -39,-60 -56,-141 -56,-212 0,-90 25,-178 79,-251 70,-95 166,-134 281,-135z"/>
 </g>
</svg>
