<?xml version="1.0" encoding="UTF-8"?>
<!DOCTYPE svg PUBLIC "-//W3C//DTD SVG 1.1//EN" "http://www.w3.org/Graphics/SVG/1.1/DTD/svg11.dtd">
<!-- Creator: CorelDRAW X8 -->
<svg xmlns="http://www.w3.org/2000/svg" xml:space="preserve" width="1597px" height="1486px" version="1.1" style="shape-rendering:geometricPrecision; text-rendering:geometricPrecision; image-rendering:optimizeQuality; fill-rule:evenodd; clip-rule:evenodd"
viewBox="0 0 1597 1486"
 xmlns:xlink="http://www.w3.org/1999/xlink">
 <defs>
  <style type="text/css">
   <![CDATA[
    .fil0 {fill:#B2B09C}
   ]]>
  </style>
 </defs>
 <g id="Layer_x0020_1">
  <metadata id="CorelCorpID_0Corel-Layer"/>
  <path class="fil0" d="M777 1430c-66,0 -145,-5 -206,-33 -42,-19 -74,-52 -72,-101 2,-60 71,-83 120,-83 67,-1 108,41 108,108 0,24 32,31 51,31 18,0 50,-7 51,-31 0,-66 40,-108 106,-108 50,0 119,23 122,83 1,49 -31,82 -73,101 -61,28 -140,33 -207,33zm357 -70c9,-18 13,-36 13,-54 0,-43 -24,-85 -66,-112 -40,-26 -98,-35 -145,-35 -62,0 -107,12 -158,46 -52,-34 -97,-46 -159,-46 -47,0 -105,9 -145,35 -35,23 -63,58 -64,102 -1,75 71,133 134,156 73,26 158,35 234,34 68,0 136,-7 203,-18 55,-10 112,-24 165,-44 186,-72 317,-220 388,-407 48,-129 67,-271 62,-408 -6,-176 -58,-371 -191,-493 -85,-78 -201,-116 -315,-116 -132,0 -225,32 -314,132 -89,-100 -182,-132 -314,-132 -176,0 -336,91 -412,254 -37,81 -51,174 -50,263 3,200 86,414 275,498 27,12 66,14 91,-5 23,-17 11,-38 -12,-48 -162,-70 -228,-279 -231,-445 -1,-74 9,-152 36,-221 49,-128 163,-226 303,-226 171,0 253,116 253,280l0 639c0,26 42,35 61,35 20,0 62,-9 62,-35l0 -639c0,-165 82,-280 252,-280 99,0 191,49 252,126 88,112 128,272 134,412 5,125 -7,255 -43,375 -51,168 -137,300 -299,377z"/>
 </g>
</svg>
