<?xml version="1.0" encoding="UTF-8"?>
<!DOCTYPE svg PUBLIC "-//W3C//DTD SVG 1.1//EN" "http://www.w3.org/Graphics/SVG/1.1/DTD/svg11.dtd">
<!-- Creator: CorelDRAW X8 -->
<svg xmlns="http://www.w3.org/2000/svg" xml:space="preserve" width="1590px" height="1024px" version="1.1" style="shape-rendering:geometricPrecision; text-rendering:geometricPrecision; image-rendering:optimizeQuality; fill-rule:evenodd; clip-rule:evenodd"
viewBox="0 0 1590 1024"
 xmlns:xlink="http://www.w3.org/1999/xlink">
 <defs>
  <style type="text/css">
   <![CDATA[
    .fil0 {fill:#00A0E3;fill-rule:nonzero}
   ]]>
  </style>
 </defs>
 <g id="Layer_x0020_1">
  <metadata id="CorelCorpID_0Corel-Layer"/>
  <path class="fil0" d="M776 144c-93,-113 -172,-144 -314,-144 -176,0 -336,91 -412,256 -37,82 -51,175 -50,264 3,201 86,410 275,495 27,12 66,13 90,-5 24,-18 11,-39 -11,-49 -162,-70 -229,-274 -231,-441 -1,-74 9,-152 36,-222 49,-129 163,-228 303,-228 170,0 252,117 252,283l0 635c0,27 42,35 62,35 18,0 61,-8 61,-35l0 -615c0,-203 129,-297 317,-302 148,-4 291,59 292,231 0,69 -33,136 -95,168 -69,36 -159,28 -235,28 -20,0 -62,8 -63,34 -1,27 41,36 60,36 79,1 161,-7 237,24 68,28 116,93 117,170 2,127 -99,192 -214,191 -47,0 -95,-10 -138,-29 -25,-10 -64,-9 -86,8 -23,17 -10,39 13,49 66,28 139,43 211,43 158,-1 335,-77 337,-262 1,-115 -67,-188 -166,-230 88,-50 146,-122 144,-230 -5,-231 -221,-302 -413,-301 -146,1 -276,33 -379,143z"/>
 </g>
</svg>
