<?xml version="1.0" encoding="UTF-8"?>
<!DOCTYPE svg PUBLIC "-//W3C//DTD SVG 1.1//EN" "http://www.w3.org/Graphics/SVG/1.1/DTD/svg11.dtd">
<!-- Creator: CorelDRAW X8 -->
<svg xmlns="http://www.w3.org/2000/svg" xml:space="preserve" width="1715px" height="1024px" version="1.1" style="shape-rendering:geometricPrecision; text-rendering:geometricPrecision; image-rendering:optimizeQuality; fill-rule:evenodd; clip-rule:evenodd"
viewBox="0 0 1715 1024"
 xmlns:xlink="http://www.w3.org/1999/xlink">
 <defs>
  <style type="text/css">
   <![CDATA[
    .fil0 {fill:#B2B09C;fill-rule:nonzero}
   ]]>
  </style>
 </defs>
 <g id="Layer_x0020_1">
  <metadata id="CorelCorpID_0Corel-Layer"/>
  <path class="fil0" d="M837 988l0 -600c0,-191 112,-315 301,-319 121,-2 220,41 309,122 -137,17 -252,61 -337,178 -59,79 -89,180 -89,279 0,81 20,163 64,231 63,97 164,144 276,145 119,1 221,-55 282,-159 49,-83 71,-185 72,-282 2,-135 -32,-266 -115,-374 -114,-150 -280,-209 -461,-209 -142,0 -253,39 -356,140 -93,-105 -182,-140 -321,-140 -175,0 -336,91 -412,256 -37,81 -51,174 -50,264 3,201 86,409 275,494 27,13 66,14 91,-4 23,-18 11,-39 -12,-49 -162,-71 -228,-274 -231,-441 -1,-75 9,-153 36,-223 49,-129 163,-227 303,-227 172,0 253,130 253,294l0 624c0,27 42,35 61,35 20,0 61,-8 61,-35zm667 -728c65,100 90,204 88,324 -1,88 -19,182 -65,258 -37,63 -89,112 -165,111 -70,-1 -125,-41 -162,-99 -39,-60 -56,-135 -56,-206 0,-90 25,-180 79,-252 70,-96 166,-136 281,-136z"/>
 </g>
</svg>
