<?xml version="1.0" encoding="UTF-8"?>
<!DOCTYPE svg PUBLIC "-//W3C//DTD SVG 1.1//EN" "http://www.w3.org/Graphics/SVG/1.1/DTD/svg11.dtd">
<!-- Creator: CorelDRAW X8 -->
<svg xmlns="http://www.w3.org/2000/svg" xml:space="preserve" width="2143px" height="1024px" version="1.1" style="shape-rendering:geometricPrecision; text-rendering:geometricPrecision; image-rendering:optimizeQuality; fill-rule:evenodd; clip-rule:evenodd"
viewBox="0 0 2143 1024"
 xmlns:xlink="http://www.w3.org/1999/xlink">
 <defs>
  <style type="text/css">
   <![CDATA[
    .fil0 {fill:#2B2A29;fill-rule:nonzero}
   ]]>
  </style>
 </defs>
 <g id="Layer_x0020_1">
  <metadata id="CorelCorpID_0Corel-Layer"/>
  <path class="fil0" d="M1827 1024c13,0 26,-2 37,-7 201,-88 280,-308 279,-513 0,-99 -22,-206 -72,-291 -80,-137 -233,-213 -389,-213 -121,0 -245,43 -317,142 -67,-93 -182,-142 -295,-142 -114,0 -224,47 -292,142 -72,-99 -196,-142 -317,-142 -156,0 -310,76 -389,212 -51,86 -72,193 -72,292 -1,205 78,425 279,513 11,5 24,7 37,7 18,0 35,-4 49,-14 9,-6 12,-14 12,-20 0,-12 -10,-23 -24,-29 -171,-74 -231,-286 -230,-456 0,-90 18,-187 62,-265 56,-99 162,-170 276,-170 171,0 253,124 253,285l0 634c0,19 28,35 62,35 34,0 61,-16 61,-35l0 -634c0,-187 117,-282 233,-282 154,0 236,136 236,282l0 634c0,19 27,35 61,35 34,0 62,-16 62,-35l0 -634c0,-161 82,-284 253,-284 114,0 220,70 276,169 44,78 62,176 62,265 1,170 -59,382 -230,456 -14,6 -24,17 -24,29 0,6 3,14 12,20 14,10 31,14 49,14z"/>
 </g>
</svg>
