<?xml version="1.0" encoding="UTF-8"?>
<!DOCTYPE svg PUBLIC "-//W3C//DTD SVG 1.1//EN" "http://www.w3.org/Graphics/SVG/1.1/DTD/svg11.dtd">
<!-- Creator: CorelDRAW X8 -->
<svg xmlns="http://www.w3.org/2000/svg" xml:space="preserve" width="2632px" height="1412px" version="1.1" style="shape-rendering:geometricPrecision; text-rendering:geometricPrecision; image-rendering:optimizeQuality; fill-rule:evenodd; clip-rule:evenodd"
viewBox="0 0 2632 1412"
 xmlns:xlink="http://www.w3.org/1999/xlink">
 <defs>
  <style type="text/css">
   <![CDATA[
    .fil0 {fill:#2B2A29;fill-rule:nonzero}
   ]]>
  </style>
 </defs>
 <g id="Layer_x0020_1">
  <metadata id="CorelCorpID_0Corel-Layer"/>
  <path class="fil0" d="M1737 69c117,0 214,43 301,122 -137,17 -251,61 -337,178 -58,79 -89,180 -89,279 0,81 20,163 64,231 63,97 165,145 279,145 117,0 219,-56 279,-159 51,-88 72,-191 72,-292 0,-101 -20,-199 -65,-287 199,96 269,309 269,518 0,269 -132,538 -441,538 -86,0 -171,-25 -240,-81 -12,-10 -31,-14 -50,-14 -13,0 -26,2 -36,6 -14,6 -26,17 -26,28 0,7 4,14 12,20 95,77 220,111 340,111 372,0 563,-263 563,-608 0,-290 -147,-557 -452,-609 -113,-140 -268,-195 -443,-195 -143,0 -270,41 -368,146 -75,-97 -177,-146 -299,-146 -114,0 -224,47 -292,142 -71,-99 -196,-142 -317,-142 -156,0 -310,76 -389,212 -51,86 -72,193 -72,292 -1,205 78,425 279,513 11,5 24,7 37,7 18,0 35,-4 49,-14 8,-6 12,-14 12,-20 0,-12 -10,-23 -24,-29 -171,-74 -231,-286 -230,-456 0,-89 18,-187 62,-265 56,-99 162,-170 276,-170 171,0 253,124 253,285l0 634c0,19 28,35 62,35 34,0 61,-16 61,-35l0 -634c0,-187 117,-282 233,-282 163,0 236,146 236,290l0 626c0,26 42,35 62,35 19,0 61,-9 61,-35l0 -600c0,-194 110,-320 308,-320zm218 884c-72,0 -126,-39 -165,-98 -39,-60 -55,-135 -55,-207 0,-90 25,-180 78,-252 71,-96 167,-136 282,-136 63,96 88,196 88,311 0,93 -16,190 -65,271 -37,62 -88,111 -163,111z"/>
 </g>
</svg>
