<?xml version="1.0" encoding="UTF-8"?>
<!DOCTYPE svg PUBLIC "-//W3C//DTD SVG 1.1//EN" "http://www.w3.org/Graphics/SVG/1.1/DTD/svg11.dtd">
<!-- Creator: CorelDRAW X8 -->
<svg xmlns="http://www.w3.org/2000/svg" xml:space="preserve" width="1998px" height="1486px" version="1.1" style="shape-rendering:geometricPrecision; text-rendering:geometricPrecision; image-rendering:optimizeQuality; fill-rule:evenodd; clip-rule:evenodd"
viewBox="0 0 1998 1486"
 xmlns:xlink="http://www.w3.org/1999/xlink">
 <defs>
  <style type="text/css">
   <![CDATA[
    .fil0 {fill:#00A0E3;fill-rule:nonzero}
   ]]>
  </style>
 </defs>
 <g id="Layer_x0020_1">
  <metadata id="CorelCorpID_0Corel-Layer"/>
  <path class="fil0" d="M1117 1416c-299,2 -557,-51 -770,-280 -144,-154 -224,-395 -223,-606 0,-183 60,-364 212,-473 23,-17 12,-39 -11,-49 -25,-11 -64,-10 -86,6 -167,120 -238,313 -239,516 -1,251 110,530 298,696 240,213 509,262 818,260 201,-2 431,-53 604,-159 170,-104 278,-257 278,-464 0,-159 -69,-272 -211,-339 88,-47 143,-119 141,-224 -4,-229 -221,-300 -413,-299 -146,1 -276,32 -379,142 -92,-112 -172,-143 -314,-143 -176,0 -336,91 -412,254 -37,81 -51,174 -50,263 3,199 86,413 275,498 27,12 66,13 91,-5 23,-17 11,-39 -12,-49 -162,-69 -228,-279 -231,-444 -1,-74 9,-152 36,-221 49,-128 163,-226 303,-226 170,0 252,116 252,280l0 639c0,26 42,35 62,35 20,0 61,-9 61,-35l0 -619c0,-201 129,-294 317,-300 148,-4 291,59 292,230 0,83 -41,150 -120,178 -66,23 -141,19 -211,19 -19,0 -61,9 -61,35 0,26 42,35 62,35 76,0 151,-11 225,13 123,40 174,160 174,283 0,158 -69,286 -193,380 -154,119 -374,171 -565,173z"/>
 </g>
</svg>
