<?xml version="1.0" encoding="UTF-8"?>
<!DOCTYPE svg PUBLIC "-//W3C//DTD SVG 1.1//EN" "http://www.w3.org/Graphics/SVG/1.1/DTD/svg11.dtd">
<!-- Creator: CorelDRAW X8 -->
<svg xmlns="http://www.w3.org/2000/svg" xml:space="preserve" width="824px" height="780px" version="1.1" style="shape-rendering:geometricPrecision; text-rendering:geometricPrecision; image-rendering:optimizeQuality; fill-rule:evenodd; clip-rule:evenodd"
viewBox="0 0 824 780"
 xmlns:xlink="http://www.w3.org/1999/xlink">
 <defs>
  <style type="text/css">
   <![CDATA[
    .fil0 {fill:#CC9933;fill-rule:nonzero}
   ]]>
  </style>
 </defs>
 <g id="Layer_x0020_1">
  <metadata id="CorelCorpID_0Corel-Layer"/>
  <path class="fil0" d="M163 733c-45,-20 -65,-69 -65,-114 0,-79 58,-122 115,-122 56,0 112,43 112,122 0,42 -15,87 -54,109 -7,4 -14,10 -14,19 0,14 22,26 49,26l469 0c27,0 49,-12 49,-26l0 -747 -121 95 0 625 -311 0c21,-29 32,-64 32,-101 0,-115 -106,-175 -211,-175 -107,0 -213,60 -213,175 0,67 35,125 98,154 10,5 23,7 36,7 13,0 26,-3 36,-10 7,-4 11,-10 11,-16 0,-8 -6,-16 -18,-21z"/>
 </g>
</svg>
