<?xml version="1.0" encoding="UTF-8"?>
<!DOCTYPE svg PUBLIC "-//W3C//DTD SVG 1.1//EN" "http://www.w3.org/Graphics/SVG/1.1/DTD/svg11.dtd">
<!-- Creator: CorelDRAW X8 -->
<svg xmlns="http://www.w3.org/2000/svg" xml:space="preserve" width="824px" height="780px" version="1.1" style="shape-rendering:geometricPrecision; text-rendering:geometricPrecision; image-rendering:optimizeQuality; fill-rule:evenodd; clip-rule:evenodd"
viewBox="0 0 824 780"
 xmlns:xlink="http://www.w3.org/1999/xlink">
 <defs>
  <style type="text/css">
   <![CDATA[
    .fil0 {fill:#CC9933;fill-rule:nonzero}
   ]]>
  </style>
 </defs>
 <g id="Layer_x0020_1">
  <metadata id="CorelCorpID_0Corel-Layer"/>
  <path class="fil0" d="M163 733c12,5 18,13 18,21 0,6 -4,12 -11,16 -10,7 -23,10 -36,10 -13,0 -26,-2 -36,-7 -63,-29 -98,-87 -98,-154 0,-115 106,-175 213,-175 105,0 211,60 211,175 0,37 -11,72 -32,101l311 0 0 -626 121 -94 0 747c0,14 -22,26 -49,26l-469 0c-27,0 -49,-12 -49,-26 0,-9 7,-15 14,-19 39,-22 54,-67 54,-109 0,-79 -56,-122 -112,-122 -57,0 -115,43 -115,122 0,45 20,94 65,114z"/>
 </g>
</svg>
