<?xml version="1.0" encoding="UTF-8"?>
<!DOCTYPE svg PUBLIC "-//W3C//DTD SVG 1.1//EN" "http://www.w3.org/Graphics/SVG/1.1/DTD/svg11.dtd">
<!-- Creator: CorelDRAW X8 -->
<svg xmlns="http://www.w3.org/2000/svg" xml:space="preserve" width="836px" height="593px" version="1.1" style="shape-rendering:geometricPrecision; text-rendering:geometricPrecision; image-rendering:optimizeQuality; fill-rule:evenodd; clip-rule:evenodd"
viewBox="0 0 836 593"
 xmlns:xlink="http://www.w3.org/1999/xlink">
 <defs>
  <style type="text/css">
   <![CDATA[
    .fil0 {fill:#00A0E3;fill-rule:nonzero}
   ]]>
  </style>
 </defs>
 <g id="Layer_x0020_1">
  <metadata id="CorelCorpID_0Corel-Layer"/>
  <path class="fil0" d="M163 545c-45,-19 -65,-69 -65,-114 0,-78 58,-121 115,-121 56,0 112,43 112,121 0,42 -15,87 -54,109 -7,4 -14,11 -14,19 0,15 22,27 49,27l481 0c27,0 49,-12 49,-27l0 -532c0,-15 -22,-27 -49,-27 -27,0 -49,12 -49,27l0 505 -346 0c21,-28 32,-63 32,-101 0,-114 -106,-174 -211,-175 -107,0 -213,60 -213,175 0,68 35,126 98,155 21,9 52,10 72,-3 19,-13 11,-29 -7,-38z"/>
 </g>
</svg>
