<?xml version="1.0" encoding="UTF-8"?>
<!DOCTYPE svg PUBLIC "-//W3C//DTD SVG 1.1//EN" "http://www.w3.org/Graphics/SVG/1.1/DTD/svg11.dtd">
<!-- Creator: CorelDRAW X8 -->
<svg xmlns="http://www.w3.org/2000/svg" xml:space="preserve" width="824px" height="780px" version="1.1" style="shape-rendering:geometricPrecision; text-rendering:geometricPrecision; image-rendering:optimizeQuality; fill-rule:evenodd; clip-rule:evenodd"
viewBox="0 0 824 780"
 xmlns:xlink="http://www.w3.org/1999/xlink">
 <defs>
  <style type="text/css">
   <![CDATA[
    .fil0 {fill:#2B2A29;fill-rule:nonzero}
   ]]>
  </style>
 </defs>
 <g id="Layer_x0020_1">
  <metadata id="CorelCorpID_0Corel-Layer"/>
  <path class="fil0" d="M775 773c27,0 49,-12 49,-27l0 -746 -121 95 0 624 -310 0c20,-29 31,-64 31,-102 0,-116 -106,-177 -211,-177 -108,0 -213,61 -213,177 0,68 35,126 98,155 10,5 23,8 36,8 13,0 26,-3 36,-10 8,-5 11,-11 11,-17 0,-8 -7,-16 -18,-21 -45,-20 -65,-70 -65,-115 0,-66 44,-123 115,-123 56,0 113,43 113,123 0,42 -16,87 -55,110 -8,4 -14,11 -14,19 0,15 21,27 49,27 156,0 312,0 469,0z"/>
 </g>
</svg>
