<?xml version="1.0" encoding="UTF-8"?>
<!DOCTYPE svg PUBLIC "-//W3C//DTD SVG 1.1//EN" "http://www.w3.org/Graphics/SVG/1.1/DTD/svg11.dtd">
<!-- Creator: CorelDRAW X8 -->
<svg xmlns="http://www.w3.org/2000/svg" xml:space="preserve" width="1055px" height="868px" version="1.1" style="shape-rendering:geometricPrecision; text-rendering:geometricPrecision; image-rendering:optimizeQuality; fill-rule:evenodd; clip-rule:evenodd"
viewBox="0 0 1055 868"
 xmlns:xlink="http://www.w3.org/1999/xlink">
 <defs>
  <style type="text/css">
   <![CDATA[
    .fil0 {fill:#00A0E3;fill-rule:nonzero}
   ]]>
  </style>
 </defs>
 <g id="Layer_x0020_1">
  <metadata id="CorelCorpID_0Corel-Layer"/>
  <path class="fil0" d="M0 385c1,146 56,258 141,338 105,97 260,144 435,145 118,1 278,-22 379,-96 60,-44 100,-105 100,-188l0 -557c0,-15 -22,-27 -49,-27 -28,0 -50,12 -50,27l0 506 -344 0c21,-29 31,-64 31,-101 0,-114 -105,-176 -211,-176 -106,-1 -212,61 -212,176 0,67 35,125 98,154 21,9 52,10 72,-3 19,-13 11,-29 -7,-37 -45,-20 -65,-69 -65,-114 0,-79 58,-123 114,-123 57,0 113,44 113,123 0,42 -16,86 -55,109 -7,4 -14,10 -14,18 0,15 22,27 50,27l430 0c-3,57 -25,99 -59,132 -77,75 -212,97 -320,96 -163,0 -295,-49 -378,-142 -71,-80 -101,-183 -102,-287 0,-137 53,-273 167,-340 18,-11 17,-28 -3,-38 -19,-10 -50,-9 -69,2 -131,77 -194,226 -192,376z"/>
 </g>
</svg>
