<?xml version="1.0" encoding="UTF-8"?>
<!DOCTYPE svg PUBLIC "-//W3C//DTD SVG 1.1//EN" "http://www.w3.org/Graphics/SVG/1.1/DTD/svg11.dtd">
<!-- Creator: CorelDRAW X8 -->
<svg xmlns="http://www.w3.org/2000/svg" xml:space="preserve" width="1710px" height="1486px" version="1.1" style="shape-rendering:geometricPrecision; text-rendering:geometricPrecision; image-rendering:optimizeQuality; fill-rule:evenodd; clip-rule:evenodd"
viewBox="0 0 1710 1486"
 xmlns:xlink="http://www.w3.org/1999/xlink">
 <defs>
  <style type="text/css">
   <![CDATA[
    .fil0 {fill:#CC9933;fill-rule:nonzero}
   ]]>
  </style>
 </defs>
 <g id="Layer_x0020_1">
  <metadata id="CorelCorpID_0Corel-Layer"/>
  <path class="fil0" d="M0 658c2,221 73,426 232,581 187,181 453,246 704,247 198,1 452,-40 614,-163 104,-80 160,-187 160,-320l0 -968c0,-27 -42,-35 -61,-35 -20,0 -62,8 -62,35l0 895 -621 0c42,-60 62,-116 62,-191 0,-188 -160,-295 -331,-295 -170,0 -331,107 -331,294 0,112 54,215 155,264 14,7 32,10 49,10 15,-1 30,-5 42,-13 11,-8 15,-17 13,-25 -1,-10 -10,-19 -22,-24 -79,-36 -114,-128 -114,-212 0,-123 84,-224 209,-224 125,0 207,102 207,225 0,77 -28,159 -97,199 -8,6 -17,14 -17,25 0,26 42,37 61,37l734 0c-4,99 -30,171 -100,242 -132,136 -367,174 -548,173 -234,0 -476,-63 -636,-243 -125,-141 -178,-327 -179,-514 -2,-229 80,-475 281,-599 24,-15 21,-37 -3,-49 -12,-6 -27,-9 -42,-9 -16,0 -32,3 -45,11 -218,134 -316,395 -314,646z"/>
 </g>
</svg>
