<?xml version="1.0" encoding="UTF-8"?>
<!DOCTYPE svg PUBLIC "-//W3C//DTD SVG 1.1//EN" "http://www.w3.org/Graphics/SVG/1.1/DTD/svg11.dtd">
<!-- Creator: CorelDRAW X8 -->
<svg xmlns="http://www.w3.org/2000/svg" xml:space="preserve" width="1344px" height="1012px" version="1.1" style="shape-rendering:geometricPrecision; text-rendering:geometricPrecision; image-rendering:optimizeQuality; fill-rule:evenodd; clip-rule:evenodd"
viewBox="0 0 1344 1012"
 xmlns:xlink="http://www.w3.org/1999/xlink">
 <defs>
  <style type="text/css">
   <![CDATA[
    .fil0 {fill:#00A0E3;fill-rule:nonzero}
   ]]>
  </style>
 </defs>
 <g id="Layer_x0020_1">
  <metadata id="CorelCorpID_0Corel-Layer"/>
  <path class="fil0" d="M237 949c-79,-36 -114,-124 -114,-208 0,-125 84,-224 209,-223 125,0 207,99 207,223 0,78 -29,158 -97,198 -9,6 -17,14 -17,25 0,27 42,35 61,35l797 0c19,0 61,-8 61,-35l0 -929c0,-26 -42,-35 -61,-35 -20,0 -62,9 -62,35l0 373 -294 0c21,-29 31,-64 31,-101 0,-115 -105,-175 -211,-175 -106,0 -212,60 -212,175 0,67 35,125 98,154 21,10 52,11 72,-3 17,-11 13,-28 -8,-37 -44,-20 -64,-69 -64,-114 0,-79 57,-122 114,-122 57,0 113,43 113,122 0,42 -16,87 -55,109 -7,4 -14,10 -14,19 0,14 22,26 49,26l381 0 0 468 -621 0c42,-61 62,-112 62,-188 0,-188 -159,-293 -330,-294 -170,0 -332,105 -332,294 0,112 55,212 155,261 27,13 66,15 91,-4 24,-16 14,-38 -9,-49z"/>
 </g>
</svg>
