<?xml version="1.0" encoding="UTF-8"?>
<!DOCTYPE svg PUBLIC "-//W3C//DTD SVG 1.1//EN" "http://www.w3.org/Graphics/SVG/1.1/DTD/svg11.dtd">
<!-- Creator: CorelDRAW X8 -->
<svg xmlns="http://www.w3.org/2000/svg" xml:space="preserve" width="1055px" height="868px" version="1.1" style="shape-rendering:geometricPrecision; text-rendering:geometricPrecision; image-rendering:optimizeQuality; fill-rule:evenodd; clip-rule:evenodd"
viewBox="0 0 1054 867"
 xmlns:xlink="http://www.w3.org/1999/xlink">
 <defs>
  <style type="text/css">
   <![CDATA[
    .fil0 {fill:#B2B09C;fill-rule:nonzero}
   ]]>
  </style>
 </defs>
 <g id="Layer_x0020_1">
  <metadata id="CorelCorpID_0Corel-Layer"/>
  <path class="fil0" d="M0 385c-1,-150 62,-299 193,-376 18,-11 49,-12 69,-2 19,10 21,27 2,38 -114,67 -167,203 -166,340 1,103 31,207 102,286 83,94 214,142 377,143 108,0 243,-22 319,-97 34,-33 57,-75 59,-132l-429 0c-28,0 -50,-11 -50,-26 0,-9 7,-15 14,-19 39,-22 55,-67 55,-109 0,-78 -56,-123 -113,-123 -56,0 -113,45 -113,123 0,45 19,95 64,114 18,8 26,25 7,37 -19,14 -51,13 -72,3 -62,-29 -98,-87 -98,-154 0,-114 107,-176 212,-176 106,0 211,62 211,176 0,38 -10,73 -31,101l344 0 0 -506c0,-14 22,-26 49,-26 27,0 49,12 49,26l0 557c0,84 -40,145 -99,188 -102,74 -261,97 -379,96 -174,-1 -330,-48 -434,-145 -86,-79 -141,-191 -142,-337z"/>
 </g>
</svg>
