<?xml version="1.0" encoding="UTF-8"?>
<!DOCTYPE svg PUBLIC "-//W3C//DTD SVG 1.1//EN" "http://www.w3.org/Graphics/SVG/1.1/DTD/svg11.dtd">
<!-- Creator: CorelDRAW X8 -->
<svg xmlns="http://www.w3.org/2000/svg" xml:space="preserve" width="1055px" height="868px" version="1.1" style="shape-rendering:geometricPrecision; text-rendering:geometricPrecision; image-rendering:optimizeQuality; fill-rule:evenodd; clip-rule:evenodd"
viewBox="0 0 1055 868"
 xmlns:xlink="http://www.w3.org/1999/xlink">
 <defs>
  <style type="text/css">
   <![CDATA[
    .fil0 {fill:#2B2A29;fill-rule:nonzero}
   ]]>
  </style>
 </defs>
 <g id="Layer_x0020_1">
  <metadata id="CorelCorpID_0Corel-Layer"/>
  <path class="fil0" d="M582 868c118,0 273,-24 374,-96 60,-44 99,-104 99,-189l0 -557c0,-14 -22,-26 -49,-26 -27,0 -49,12 -49,26l0 504 -345 0c21,-28 32,-63 32,-100 0,-115 -105,-174 -211,-175 -106,0 -212,60 -212,175 0,67 35,125 98,153 10,5 22,8 34,8 14,0 27,-4 38,-10 7,-5 11,-11 11,-17 0,-8 -8,-16 -19,-21 -45,-19 -64,-68 -64,-113 0,-79 57,-122 114,-122 56,0 112,44 112,122 0,42 -15,87 -54,109 -7,3 -14,10 -14,18 0,15 22,27 49,27l431 0c-3,57 -26,101 -59,134 -76,74 -209,96 -316,96 -141,0 -287,-35 -382,-142 -72,-80 -102,-189 -102,-293 0,-137 52,-267 166,-334 9,-5 14,-12 14,-18 0,-7 -6,-14 -16,-19 -10,-5 -22,-8 -34,-8 -13,0 -26,3 -36,9 -129,76 -192,222 -192,370 0,131 42,251 142,344 116,107 283,145 440,145z"/>
 </g>
</svg>
