<?xml version="1.0" encoding="UTF-8"?>
<!DOCTYPE svg PUBLIC "-//W3C//DTD SVG 1.1//EN" "http://www.w3.org/Graphics/SVG/1.1/DTD/svg11.dtd">
<!-- Creator: CorelDRAW X8 -->
<svg xmlns="http://www.w3.org/2000/svg" xml:space="preserve" width="1719px" height="1012px" version="1.1" style="shape-rendering:geometricPrecision; text-rendering:geometricPrecision; image-rendering:optimizeQuality; fill-rule:evenodd; clip-rule:evenodd"
viewBox="0 0 1719 1012"
 xmlns:xlink="http://www.w3.org/1999/xlink">
 <defs>
  <style type="text/css">
   <![CDATA[
    .fil0 {fill:#00A0E3;fill-rule:nonzero}
   ]]>
  </style>
 </defs>
 <g id="Layer_x0020_1">
  <metadata id="CorelCorpID_0Corel-Layer"/>
  <path class="fil0" d="M883 390l0 539 -283 0c43,-60 62,-112 62,-188 0,-188 -159,-293 -330,-294 -170,0 -332,105 -332,294 0,113 55,213 156,261 27,13 66,15 90,-3 24,-17 14,-39 -9,-49 -79,-37 -114,-125 -114,-209 0,-125 84,-224 209,-223 126,0 207,99 207,223 0,78 -28,158 -97,199 -8,5 -17,13 -17,25 0,26 42,35 62,35l1171 0c19,0 61,-9 61,-35l0 -568c0,-243 -201,-397 -425,-397 -228,0 -411,148 -411,390zm122 0c0,-178 104,-319 287,-320 182,0 305,144 304,327l0 532 -591 0 0 -539z"/>
 </g>
</svg>
