<?xml version="1.0" encoding="UTF-8"?>
<!DOCTYPE svg PUBLIC "-//W3C//DTD SVG 1.1//EN" "http://www.w3.org/Graphics/SVG/1.1/DTD/svg11.dtd">
<!-- Creator: CorelDRAW X8 -->
<svg xmlns="http://www.w3.org/2000/svg" xml:space="preserve" width="1719px" height="1012px" version="1.1" style="shape-rendering:geometricPrecision; text-rendering:geometricPrecision; image-rendering:optimizeQuality; fill-rule:evenodd; clip-rule:evenodd"
viewBox="0 0 1719 1012"
 xmlns:xlink="http://www.w3.org/1999/xlink">
 <defs>
  <style type="text/css">
   <![CDATA[
    .fil0 {fill:#CC9933;fill-rule:nonzero}
   ]]>
  </style>
 </defs>
 <g id="Layer_x0020_1">
  <metadata id="CorelCorpID_0Corel-Layer"/>
  <path class="fil0" d="M997 109c-69,65 -114,158 -114,281l0 539 -283 0c43,-60 62,-112 62,-188 0,-188 -159,-293 -330,-294 -170,0 -332,105 -332,294 0,113 55,213 156,261 14,7 30,10 46,10 16,0 32,-4 44,-13 10,-7 14,-15 14,-22 0,-11 -9,-21 -23,-27 -79,-37 -114,-125 -114,-209 0,-125 84,-224 209,-223 126,0 207,99 207,223 0,78 -28,158 -97,199 -8,5 -17,13 -17,25 0,26 42,35 62,35l1171 0c19,0 61,-9 61,-35l0 -568c0,-118 -46,-222 -136,-296 -80,-66 -185,-101 -289,-101 -107,0 -217,35 -297,109zm8 281c0,-99 29,-174 74,-226 55,-63 133,-94 213,-94 79,0 156,30 212,87 65,63 92,149 92,240l0 532 -591 0 0 -539z"/>
 </g>
</svg>
