<?xml version="1.0" encoding="UTF-8"?>
<!DOCTYPE svg PUBLIC "-//W3C//DTD SVG 1.1//EN" "http://www.w3.org/Graphics/SVG/1.1/DTD/svg11.dtd">
<!-- Creator: CorelDRAW X8 -->
<svg xmlns="http://www.w3.org/2000/svg" xml:space="preserve" width="1052px" height="593px" version="1.1" style="shape-rendering:geometricPrecision; text-rendering:geometricPrecision; image-rendering:optimizeQuality; fill-rule:evenodd; clip-rule:evenodd"
viewBox="0 0 1052 593"
 xmlns:xlink="http://www.w3.org/1999/xlink">
 <defs>
  <style type="text/css">
   <![CDATA[
    .fil0 {fill:#B2B09C;fill-rule:nonzero}
   ]]>
  </style>
 </defs>
 <g id="Layer_x0020_1">
  <metadata id="CorelCorpID_0Corel-Layer"/>
  <path class="fil0" d="M528 230c0,-154 129,-230 258,-230 132,0 266,84 266,234l0 325c0,20 -33,27 -49,27l-700 0c-27,0 -49,-12 -49,-27 0,-8 7,-15 14,-19 39,-22 54,-67 54,-109 0,-78 -55,-121 -111,-121 -57,0 -113,42 -113,121 0,45 19,95 63,114 19,9 26,25 8,38 -20,13 -50,12 -71,3 -63,-29 -98,-87 -98,-155 0,-115 106,-175 211,-175 104,0 209,61 209,175 0,38 -11,73 -31,101l139 0 0 -302zm97 0l0 302 330 0 0 -298c0,-118 -86,-181 -170,-181 -80,1 -160,57 -160,177z"/>
 </g>
</svg>
