<?xml version="1.0" encoding="UTF-8"?>
<!DOCTYPE svg PUBLIC "-//W3C//DTD SVG 1.1//EN" "http://www.w3.org/Graphics/SVG/1.1/DTD/svg11.dtd">
<!-- Creator: CorelDRAW X8 -->
<svg xmlns="http://www.w3.org/2000/svg" xml:space="preserve" width="1052px" height="593px" version="1.1" style="shape-rendering:geometricPrecision; text-rendering:geometricPrecision; image-rendering:optimizeQuality; fill-rule:evenodd; clip-rule:evenodd"
viewBox="0 0 1052 593"
 xmlns:xlink="http://www.w3.org/1999/xlink">
 <defs>
  <style type="text/css">
   <![CDATA[
    .fil0 {fill:#2B2A29;fill-rule:nonzero}
   ]]>
  </style>
 </defs>
 <g id="Layer_x0020_1">
  <metadata id="CorelCorpID_0Corel-Layer"/>
  <path class="fil0" d="M132 593c13,0 27,-3 37,-10 7,-5 10,-11 10,-16 0,-9 -7,-17 -18,-22 -44,-19 -63,-69 -63,-114 0,-79 56,-122 112,-122 57,0 112,44 112,122 0,42 -15,87 -54,109 -7,4 -14,11 -14,19 0,15 22,27 49,27l700 0c15,0 49,-7 49,-27l0 -325c0,-150 -134,-234 -267,-234 -128,0 -257,76 -257,230l0 303 -139 0c21,-29 31,-64 31,-102 0,-115 -105,-175 -210,-175 -104,0 -210,60 -210,175 0,68 35,126 98,155 10,4 22,7 34,7zm822 -60l-329 0 0 -303c0,-120 79,-177 160,-177 84,0 169,63 169,180l0 300z"/>
 </g>
</svg>
