<?xml version="1.0" encoding="UTF-8"?>
<!DOCTYPE svg PUBLIC "-//W3C//DTD SVG 1.1//EN" "http://www.w3.org/Graphics/SVG/1.1/DTD/svg11.dtd">
<!-- Creator: CorelDRAW X8 -->
<svg xmlns="http://www.w3.org/2000/svg" xml:space="preserve" width="2082px" height="1486px" version="1.1" style="shape-rendering:geometricPrecision; text-rendering:geometricPrecision; image-rendering:optimizeQuality; fill-rule:evenodd; clip-rule:evenodd"
viewBox="0 0 2082 1486"
 xmlns:xlink="http://www.w3.org/1999/xlink">
 <defs>
  <style type="text/css">
   <![CDATA[
    .fil0 {fill:#B2B09C;fill-rule:nonzero}
   ]]>
  </style>
 </defs>
 <g id="Layer_x0020_1">
  <metadata id="CorelCorpID_0Corel-Layer"/>
  <path class="fil0" d="M1958 1000c3,123 -56,200 -153,268 -164,115 -453,148 -648,149 -339,1 -744,-89 -932,-406 -69,-118 -101,-261 -102,-397 -2,-210 61,-435 242,-557 24,-16 16,-37 -7,-49 -25,-12 -64,-11 -87,4 -196,132 -273,372 -271,602 1,165 48,335 143,470 220,314 654,401 1011,402 213,0 511,-39 700,-143 131,-72 228,-182 228,-340l0 -610c0,-116 -46,-219 -136,-293 -80,-65 -185,-100 -289,-100 -107,0 -217,35 -297,108 -69,65 -114,157 -114,279l0 543 -282 0c42,-61 61,-116 61,-191 0,-187 -159,-295 -329,-295 -171,0 -332,106 -333,294 0,112 55,216 157,264 26,13 65,14 90,-3 24,-17 14,-39 -10,-49 -78,-36 -113,-128 -113,-212 0,-124 83,-225 209,-224 125,0 206,102 206,225 0,77 -28,160 -96,201 -9,5 -17,13 -17,25 0,26 41,35 61,35l1108 0zm-590 -613c0,-98 29,-172 74,-224 55,-63 134,-93 213,-93 79,0 156,30 212,85 65,64 92,149 92,238l0 537 -591 0 0 -543z"/>
 </g>
</svg>
