<?xml version="1.0" encoding="UTF-8"?>
<!DOCTYPE svg PUBLIC "-//W3C//DTD SVG 1.1//EN" "http://www.w3.org/Graphics/SVG/1.1/DTD/svg11.dtd">
<!-- Creator: CorelDRAW X8 -->
<svg xmlns="http://www.w3.org/2000/svg" xml:space="preserve" width="2082px" height="1486px" version="1.1" style="shape-rendering:geometricPrecision; text-rendering:geometricPrecision; image-rendering:optimizeQuality; fill-rule:evenodd; clip-rule:evenodd"
viewBox="0 0 2082 1486"
 xmlns:xlink="http://www.w3.org/1999/xlink">
 <defs>
  <style type="text/css">
   <![CDATA[
    .fil0 {fill:#2B2A29;fill-rule:nonzero}
   ]]>
  </style>
 </defs>
 <g id="Layer_x0020_1">
  <metadata id="CorelCorpID_0Corel-Layer"/>
  <path class="fil0" d="M1151 1486c213,1 514,-39 703,-143 131,-72 228,-182 228,-340l0 -610c0,-240 -201,-393 -425,-393 -228,0 -411,147 -411,387l0 543 -282 0c42,-61 61,-116 61,-191 0,-187 -159,-295 -329,-295 -171,0 -333,106 -333,294 0,112 55,216 157,264 13,6 28,10 44,10 16,0 33,-4 46,-13 10,-7 14,-14 14,-22 0,-11 -10,-21 -24,-27 -78,-36 -113,-128 -113,-212 0,-123 81,-224 209,-224 125,0 206,102 206,225 0,77 -28,160 -96,201 -9,5 -17,13 -17,25 0,26 41,35 61,35l1108 0c0,126 -52,198 -153,268 -164,115 -456,149 -654,149 -337,0 -740,-91 -926,-406 -72,-122 -102,-265 -102,-406 0,-207 64,-428 242,-548 10,-7 15,-14 15,-22 0,-10 -9,-21 -22,-27 -11,-6 -26,-8 -40,-8 -17,0 -34,3 -47,12 -194,129 -271,366 -271,593 0,169 45,340 143,479 220,314 651,402 1008,402zm808 -556l-591 0 0 -543c0,-176 105,-317 287,-317 182,0 304,143 304,323l0 537z"/>
 </g>
</svg>
