<?xml version="1.0" encoding="UTF-8"?>
<!DOCTYPE svg PUBLIC "-//W3C//DTD SVG 1.1//EN" "http://www.w3.org/Graphics/SVG/1.1/DTD/svg11.dtd">
<!-- Creator: CorelDRAW X8 -->
<svg xmlns="http://www.w3.org/2000/svg" xml:space="preserve" width="2085px" height="1024px" version="1.1" style="shape-rendering:geometricPrecision; text-rendering:geometricPrecision; image-rendering:optimizeQuality; fill-rule:evenodd; clip-rule:evenodd"
viewBox="0 0 2085 1024"
 xmlns:xlink="http://www.w3.org/1999/xlink">
 <defs>
  <style type="text/css">
   <![CDATA[
    .fil0 {fill:#B2B09C;fill-rule:nonzero}
   ]]>
  </style>
 </defs>
 <g id="Layer_x0020_1">
  <metadata id="CorelCorpID_0Corel-Layer"/>
  <path class="fil0" d="M503 70c192,-1 339,106 339,314l0 604c0,26 42,36 62,36 19,0 61,-9 61,-35l0 -629c0,-165 85,-292 256,-290 213,2 314,244 311,433 -2,167 -69,364 -230,434 -14,6 -24,17 -25,28 0,28 45,35 65,35l682 0c19,0 61,-9 61,-35l0 -929c0,-26 -42,-35 -61,-35 -20,0 -62,9 -62,35l0 894 -484 0c123,-119 175,-255 177,-427 4,-269 -159,-499 -436,-503 -139,-2 -238,38 -321,154 -111,-125 -233,-154 -395,-153 -195,1 -359,92 -443,264 -37,74 -57,167 -60,262 -4,162 44,331 156,425 60,50 127,73 204,72 74,-1 150,-26 208,-74 67,-57 99,-148 102,-235 2,-82 -21,-161 -77,-221 -58,-64 -146,-97 -231,-94 -106,4 -209,63 -241,171 -6,-97 12,-196 52,-280 63,-131 179,-221 330,-221zm-337 645c0,-120 64,-239 195,-239 131,0 194,119 193,239 0,119 -64,239 -193,239 -132,-1 -195,-117 -195,-239z"/>
 </g>
</svg>
