<?xml version="1.0" encoding="UTF-8"?>
<!DOCTYPE svg PUBLIC "-//W3C//DTD SVG 1.1//EN" "http://www.w3.org/Graphics/SVG/1.1/DTD/svg11.dtd">
<!-- Creator: CorelDRAW X8 -->
<svg xmlns="http://www.w3.org/2000/svg" xml:space="preserve" width="1280px" height="600px" version="1.1" style="shape-rendering:geometricPrecision; text-rendering:geometricPrecision; image-rendering:optimizeQuality; fill-rule:evenodd; clip-rule:evenodd"
viewBox="0 0 1280 600"
 xmlns:xlink="http://www.w3.org/1999/xlink">
 <defs>
  <style type="text/css">
   <![CDATA[
    .fil0 {fill:#00A0E3;fill-rule:nonzero}
   ]]>
  </style>
 </defs>
 <g id="Layer_x0020_1">
  <metadata id="CorelCorpID_0Corel-Layer"/>
  <path class="fil0" d="M0 316c0,92 29,186 96,240 39,31 83,44 133,44 51,-1 100,-17 135,-46 41,-33 62,-86 63,-138 2,-52 -15,-97 -47,-130 -36,-37 -92,-59 -151,-57 -54,2 -100,26 -132,70 1,-43 11,-85 30,-123 36,-70 101,-123 188,-123 110,0 192,60 192,174l0 346c0,20 34,27 49,27 27,0 49,-12 49,-27l0 -360c0,-82 43,-161 142,-160 121,2 178,140 176,242 -1,92 -40,205 -134,244 -12,4 -19,12 -19,20 -2,21 35,27 51,27l410 0c27,0 49,-12 49,-26l0 -533c0,-15 -22,-27 -49,-27 -27,0 -49,12 -49,27l0 506 -259 0c66,-61 97,-148 98,-238 2,-163 -104,-294 -277,-295 -73,0 -149,21 -192,79 -59,-63 -151,-79 -237,-79 -129,1 -229,60 -279,156 -23,46 -36,100 -36,160zm124 100c0,-87 53,-130 105,-130 53,0 105,43 105,130 0,87 -54,131 -105,130 -54,0 -105,-44 -105,-130z"/>
 </g>
</svg>
