<?xml version="1.0" encoding="UTF-8"?>
<!DOCTYPE svg PUBLIC "-//W3C//DTD SVG 1.1//EN" "http://www.w3.org/Graphics/SVG/1.1/DTD/svg11.dtd">
<!-- Creator: CorelDRAW X8 -->
<svg xmlns="http://www.w3.org/2000/svg" xml:space="preserve" width="1280px" height="600px" version="1.1" style="shape-rendering:geometricPrecision; text-rendering:geometricPrecision; image-rendering:optimizeQuality; fill-rule:evenodd; clip-rule:evenodd"
viewBox="0 0 1280 600"
 xmlns:xlink="http://www.w3.org/1999/xlink">
 <defs>
  <style type="text/css">
   <![CDATA[
    .fil0 {fill:#2B2A29;fill-rule:nonzero}
   ]]>
  </style>
 </defs>
 <g id="Layer_x0020_1">
  <metadata id="CorelCorpID_0Corel-Layer"/>
  <path class="fil0" d="M557 600c27,0 48,-12 48,-26l0 -361c0,-81 38,-160 136,-160 122,0 182,135 182,236 0,94 -38,210 -134,249 -8,4 -19,11 -19,21 0,22 34,28 50,28l411 0c27,0 49,-13 49,-27l0 -533c0,-15 -22,-26 -49,-26 -27,0 -49,11 -49,26l0 506 -259 0c69,-63 98,-153 98,-244 0,-162 -107,-289 -280,-289 -72,0 -146,22 -189,79 -58,-61 -151,-78 -235,-78 -119,0 -226,49 -281,155 -23,46 -36,101 -36,160 0,92 29,186 96,240 38,31 81,44 130,44 49,0 100,-15 138,-46 44,-36 63,-91 63,-146 0,-48 -17,-90 -47,-121 -35,-37 -88,-58 -144,-58 -57,0 -106,24 -139,70 1,-43 11,-86 30,-123 38,-73 104,-123 190,-123 109,0 190,61 190,174l0 346c0,20 34,27 50,27zm-328 -53c-73,-1 -105,-68 -105,-131 0,-87 53,-130 105,-130 52,0 105,43 105,128 0,62 -32,133 -105,133z"/>
 </g>
</svg>
