<?xml version="1.0" encoding="UTF-8"?>
<!DOCTYPE svg PUBLIC "-//W3C//DTD SVG 1.1//EN" "http://www.w3.org/Graphics/SVG/1.1/DTD/svg11.dtd">
<!-- Creator: CorelDRAW X8 -->
<svg xmlns="http://www.w3.org/2000/svg" xml:space="preserve" width="1280px" height="600px" version="1.1" style="shape-rendering:geometricPrecision; text-rendering:geometricPrecision; image-rendering:optimizeQuality; fill-rule:evenodd; clip-rule:evenodd"
viewBox="0 0 1280 600"
 xmlns:xlink="http://www.w3.org/1999/xlink">
 <defs>
  <style type="text/css">
   <![CDATA[
    .fil0 {fill:#B2B09C;fill-rule:nonzero}
   ]]>
  </style>
 </defs>
 <g id="Layer_x0020_1">
  <metadata id="CorelCorpID_0Corel-Layer"/>
  <path class="fil0" d="M0 316c0,-60 13,-114 36,-160 50,-96 150,-155 279,-156 86,0 178,16 237,79 43,-58 119,-79 192,-79 173,1 279,132 277,295 -1,90 -32,177 -98,238l259 0 0 -506c0,-15 22,-27 49,-27 27,0 49,12 49,27l0 533c0,14 -22,26 -49,26l-410 0c-16,0 -52,-5 -52,-27 1,-8 7,-15 20,-20 94,-39 133,-152 134,-244 2,-102 -55,-240 -176,-242 -99,-1 -142,78 -142,160l0 360c0,15 -22,27 -49,27 -15,0 -49,-7 -49,-27l0 -346c0,-114 -82,-174 -192,-174 -87,0 -152,53 -188,123 -19,38 -29,80 -30,123 32,-44 78,-68 132,-70 59,-2 115,20 151,57 32,33 49,78 47,130 -1,52 -22,105 -63,138 -35,29 -84,45 -135,46 -50,0 -94,-13 -133,-44 -67,-54 -96,-148 -96,-240zm124 100c0,86 51,130 105,130 51,1 105,-43 105,-130 0,-87 -52,-130 -105,-130 -52,0 -105,43 -105,130z"/>
 </g>
</svg>
