<?xml version="1.0" encoding="UTF-8"?>
<!DOCTYPE svg PUBLIC "-//W3C//DTD SVG 1.1//EN" "http://www.w3.org/Graphics/SVG/1.1/DTD/svg11.dtd">
<!-- Creator: CorelDRAW X8 -->
<svg xmlns="http://www.w3.org/2000/svg" xml:space="preserve" width="2438px" height="1486px" version="1.1" style="shape-rendering:geometricPrecision; text-rendering:geometricPrecision; image-rendering:optimizeQuality; fill-rule:evenodd; clip-rule:evenodd"
viewBox="0 0 2438 1486"
 xmlns:xlink="http://www.w3.org/1999/xlink">
 <defs>
  <style type="text/css">
   <![CDATA[
    .fil0 {fill:#CC9933;fill-rule:nonzero}
   ]]>
  </style>
 </defs>
 <g id="Layer_x0020_1">
  <metadata id="CorelCorpID_0Corel-Layer"/>
  <path class="fil0" d="M2438 36c0,-26 -42,-35 -62,-35 -19,0 -61,9 -61,35l0 894 -484 0c123,-118 175,-259 177,-431 4,-267 -159,-495 -436,-499 -139,-2 -238,38 -321,153 -112,-124 -233,-153 -395,-152 -188,1 -358,87 -444,261 -42,85 -60,180 -60,275 0,144 42,320 156,415 60,50 127,72 205,71 74,-1 150,-25 207,-73 67,-57 100,-154 102,-241 2,-81 -20,-159 -76,-219 -59,-64 -147,-96 -232,-93 -125,4 -213,77 -241,170 1,-104 5,-181 51,-277 65,-133 183,-220 331,-221 193,0 340,106 340,313l0 606c0,26 42,35 61,35 20,0 62,-8 62,-34l0 -632c0,-164 84,-289 256,-288 212,2 314,243 311,430 -2,166 -69,369 -231,438 -13,6 -23,16 -24,27 -1,29 45,36 65,36l619 0c-3,138 -75,214 -191,277 -227,123 -587,139 -843,139 -274,0 -593,-39 -827,-194 -234,-154 -330,-387 -330,-664 -1,-192 82,-391 244,-500 10,-7 14,-15 14,-23 0,-10 -8,-20 -22,-26 -10,-5 -24,-8 -38,-8 -17,-1 -35,3 -48,12 -179,120 -274,331 -273,545 1,330 134,589 423,750 251,139 574,178 857,178 275,0 621,-17 875,-126 154,-67 283,-175 283,-358l0 -966zm-1920 673c1,-119 64,-237 195,-237 131,0 194,117 194,236 0,119 -63,246 -194,245 -132,0 -195,-123 -195,-244z"/>
 </g>
</svg>
