<?xml version="1.0" encoding="UTF-8"?>
<!DOCTYPE svg PUBLIC "-//W3C//DTD SVG 1.1//EN" "http://www.w3.org/Graphics/SVG/1.1/DTD/svg11.dtd">
<!-- Creator: CorelDRAW X8 -->
<svg xmlns="http://www.w3.org/2000/svg" xml:space="preserve" width="2438px" height="1486px" version="1.1" style="shape-rendering:geometricPrecision; text-rendering:geometricPrecision; image-rendering:optimizeQuality; fill-rule:evenodd; clip-rule:evenodd"
viewBox="0 0 2438 1486"
 xmlns:xlink="http://www.w3.org/1999/xlink">
 <defs>
  <style type="text/css">
   <![CDATA[
    .fil0 {fill:#2B2A29;fill-rule:nonzero}
   ]]>
  </style>
 </defs>
 <g id="Layer_x0020_1">
  <metadata id="CorelCorpID_0Corel-Layer"/>
  <path class="fil0" d="M1280 1486c275,0 621,-17 875,-126 154,-67 283,-175 283,-358l0 -966c0,-26 -42,-35 -61,-35 -20,0 -62,9 -62,35l0 894 -484 0c127,-122 177,-262 177,-437 0,-266 -164,-493 -446,-493 -134,0 -230,41 -311,154 -109,-123 -234,-153 -392,-153 -195,0 -358,85 -446,264 -42,85 -60,187 -60,281 0,156 48,317 156,406 59,50 124,72 199,72 77,0 154,-24 213,-74 70,-58 102,-156 102,-245 0,-78 -23,-152 -77,-211 -56,-61 -139,-94 -220,-94 -111,0 -219,60 -252,171 -3,-100 8,-188 52,-280 65,-134 181,-221 333,-221 190,0 336,107 336,314l0 604c0,26 42,36 62,36 19,0 61,-8 61,-35l0 -629c0,-164 76,-290 244,-290 216,0 323,239 323,423 0,167 -65,373 -230,444 -14,6 -25,17 -25,28 -1,28 45,35 65,35l619 0c-4,137 -75,214 -191,277 -227,123 -587,139 -843,139 -274,0 -593,-40 -827,-194 -237,-157 -330,-391 -330,-668 0,-191 83,-388 244,-497 10,-7 14,-15 14,-22 0,-11 -8,-21 -22,-27 -11,-5 -25,-8 -39,-8 -17,0 -34,4 -47,12 -178,119 -273,329 -273,542 0,329 131,592 423,754 251,139 574,178 857,178zm-566 -532c-132,0 -195,-117 -195,-239 0,-120 64,-239 195,-239 130,0 193,117 193,236 0,118 -60,243 -193,242z"/>
 </g>
</svg>
