<?xml version="1.0" encoding="UTF-8"?>
<!DOCTYPE svg PUBLIC "-//W3C//DTD SVG 1.1//EN" "http://www.w3.org/Graphics/SVG/1.1/DTD/svg11.dtd">
<!-- Creator: CorelDRAW X8 -->
<svg xmlns="http://www.w3.org/2000/svg" xml:space="preserve" width="1019px" height="1024px" version="1.1" style="shape-rendering:geometricPrecision; text-rendering:geometricPrecision; image-rendering:optimizeQuality; fill-rule:evenodd; clip-rule:evenodd"
viewBox="0 0 1019 1024"
 xmlns:xlink="http://www.w3.org/1999/xlink">
 <defs>
  <style type="text/css">
   <![CDATA[
    .fil0 {fill:#B2B09C;fill-rule:nonzero}
   ]]>
  </style>
 </defs>
 <g id="Layer_x0020_1">
  <metadata id="CorelCorpID_0Corel-Layer"/>
  <path class="fil0" d="M438 975c88,39 200,53 295,46 129,-10 287,-58 286,-218 0,-101 -70,-180 -170,-185 -87,-4 -166,37 -256,10 -46,-14 -76,-54 -78,-104 -2,-53 29,-96 80,-108 60,-15 126,7 186,16 112,16 225,-16 229,-152 6,-232 -275,-280 -448,-280 -332,0 -561,231 -562,571 0,150 47,305 138,424 22,28 55,34 88,25 19,-5 48,-24 30,-46 -90,-113 -135,-258 -133,-403 3,-276 150,-490 435,-501 115,-4 363,51 341,211 -9,69 -69,78 -126,70 -56,-8 -120,-26 -180,-26 -36,0 -71,6 -102,25 -60,38 -84,105 -82,174 2,71 31,124 77,158 36,26 80,37 124,38 81,1 152,-33 218,-10 43,15 72,46 72,93 1,105 -91,146 -190,151 -63,3 -138,-9 -196,-35 -25,-11 -64,-10 -86,6 -23,17 -13,39 10,50z"/>
 </g>
</svg>
