<?xml version="1.0" encoding="UTF-8"?>
<!DOCTYPE svg PUBLIC "-//W3C//DTD SVG 1.1//EN" "http://www.w3.org/Graphics/SVG/1.1/DTD/svg11.dtd">
<!-- Creator: CorelDRAW X8 -->
<svg xmlns="http://www.w3.org/2000/svg" xml:space="preserve" width="640px" height="600px" version="1.1" style="shape-rendering:geometricPrecision; text-rendering:geometricPrecision; image-rendering:optimizeQuality; fill-rule:evenodd; clip-rule:evenodd"
viewBox="0 0 640 600"
 xmlns:xlink="http://www.w3.org/1999/xlink">
 <defs>
  <style type="text/css">
   <![CDATA[
    .fil0 {fill:#CC9933;fill-rule:nonzero}
   ]]>
  </style>
 </defs>
 <g id="Layer_x0020_1">
  <metadata id="CorelCorpID_0Corel-Layer"/>
  <path class="fil0" d="M274 570c-13,-5 -20,-14 -19,-22 0,-5 4,-11 10,-15 12,-8 30,-11 46,-10 9,1 16,2 23,5 24,10 59,19 93,20 59,0 118,-21 117,-81 0,-23 -14,-40 -38,-48 -30,-10 -75,8 -126,7 -23,-1 -47,-5 -72,-18 -39,-19 -59,-60 -61,-101 -1,-48 19,-84 53,-104 22,-13 45,-17 69,-17 38,0 77,10 113,15 32,5 57,-1 62,-34 9,-67 -89,-118 -194,-114 -119,5 -249,80 -252,281 -1,83 27,165 80,228 3,4 4,7 4,11 0,10 -10,20 -29,24 -7,2 -14,3 -21,3 -18,0 -36,-6 -48,-21 -55,-68 -84,-157 -84,-245 0,-202 146,-334 352,-334 112,0 286,31 282,167 -2,85 -81,103 -153,93 -30,-4 -73,-17 -105,-9 -28,7 -42,32 -41,56 1,23 15,46 41,54 48,13 99,-9 150,-7 66,3 114,49 114,113 0,95 -100,125 -183,131 -65,5 -132,-6 -183,-28z"/>
 </g>
</svg>
