<?xml version="1.0" encoding="UTF-8"?>
<!DOCTYPE svg PUBLIC "-//W3C//DTD SVG 1.1//EN" "http://www.w3.org/Graphics/SVG/1.1/DTD/svg11.dtd">
<!-- Creator: CorelDRAW X8 -->
<svg xmlns="http://www.w3.org/2000/svg" xml:space="preserve" width="1075px" height="1486px" version="1.1" style="shape-rendering:geometricPrecision; text-rendering:geometricPrecision; image-rendering:optimizeQuality; fill-rule:evenodd; clip-rule:evenodd"
viewBox="0 0 1075 1486"
 xmlns:xlink="http://www.w3.org/1999/xlink">
 <defs>
  <style type="text/css">
   <![CDATA[
    .fil0 {fill:#00A0E3}
   ]]>
  </style>
 </defs>
 <g id="Layer_x0020_1">
  <metadata id="CorelCorpID_0Corel-Layer"/>
  <path class="fil0" d="M1075 969c2,-76 -12,-153 -50,-219 -49,-85 -136,-140 -234,-130 -68,8 -128,27 -197,7 -47,-14 -77,-54 -79,-103 -2,-53 29,-96 80,-108 61,-15 126,7 187,16 113,16 224,-17 228,-151 2,-73 -25,-137 -81,-183 -93,-76 -250,-98 -367,-98 -332,0 -561,229 -562,568 0,148 47,310 138,427 22,28 55,34 88,25 20,-5 48,-23 30,-46 -90,-111 -135,-263 -133,-406 3,-275 150,-487 435,-498 86,-4 189,10 263,56 52,33 90,93 79,157 -12,68 -68,77 -126,68 -58,-8 -125,-27 -187,-25 -34,0 -66,7 -96,25 -60,37 -84,104 -82,173 3,66 34,136 94,167 39,20 72,27 103,28 60,2 112,-19 184,-15 47,3 86,25 118,58 49,51 66,125 69,193 8,163 -36,274 -177,385 13,-106 -102,-144 -184,-163 -60,-14 -121,-19 -181,-19 -66,0 -136,6 -200,22 -64,17 -171,61 -171,141 0,79 104,123 166,140 65,18 136,24 202,25 108,1 236,-14 335,-58 192,-84 301,-257 308,-459zm-640 252c53,0 108,4 159,20 35,10 96,36 97,80 0,45 -63,72 -99,83 -48,14 -107,19 -157,19 -60,0 -133,-6 -189,-28 -29,-12 -74,-36 -73,-74 1,-37 44,-61 74,-72 56,-22 128,-28 188,-28z"/>
 </g>
</svg>
