<?xml version="1.0" encoding="UTF-8"?>
<!DOCTYPE svg PUBLIC "-//W3C//DTD SVG 1.1//EN" "http://www.w3.org/Graphics/SVG/1.1/DTD/svg11.dtd">
<!-- Creator: CorelDRAW X8 -->
<svg xmlns="http://www.w3.org/2000/svg" xml:space="preserve" width="1422px" height="1486px" version="1.1" style="shape-rendering:geometricPrecision; text-rendering:geometricPrecision; image-rendering:optimizeQuality; fill-rule:evenodd; clip-rule:evenodd"
viewBox="0 0 1422 1486"
 xmlns:xlink="http://www.w3.org/1999/xlink">
 <defs>
  <style type="text/css">
   <![CDATA[
    .fil0 {fill:#00A0E3;fill-rule:nonzero}
   ]]>
  </style>
 </defs>
 <g id="Layer_x0020_1">
  <metadata id="CorelCorpID_0Corel-Layer"/>
  <path class="fil0" d="M1228 738c50,39 81,103 85,167 6,117 -20,231 -92,324 -97,128 -242,188 -398,190 -237,4 -447,-118 -575,-319 -88,-138 -122,-306 -124,-469 -3,-221 69,-452 265,-572 24,-15 20,-37 -4,-49 -24,-13 -63,-13 -86,2 -212,130 -300,377 -299,619 0,198 55,393 175,551 158,206 393,306 647,304 176,-1 349,-59 470,-192 100,-111 136,-253 129,-400 -6,-137 -96,-270 -240,-277 -81,-4 -140,36 -227,10 -46,-14 -76,-54 -78,-103 -3,-53 28,-96 80,-108 60,-15 126,7 186,16 111,16 224,-16 228,-151 7,-230 -274,-281 -447,-281 -332,0 -562,229 -563,568 0,149 48,310 139,427 21,28 55,34 87,26 20,-6 49,-24 30,-47 -89,-111 -134,-263 -133,-406 3,-275 151,-487 436,-498 114,-5 363,54 341,212 -9,68 -69,78 -126,70 -58,-9 -125,-28 -187,-26 -34,0 -66,7 -95,25 -61,37 -85,104 -82,173 2,75 38,135 93,167 30,17 65,27 104,27 91,0 177,-46 261,20z"/>
 </g>
</svg>
