<?xml version="1.0" encoding="UTF-8"?>
<!DOCTYPE svg PUBLIC "-//W3C//DTD SVG 1.1//EN" "http://www.w3.org/Graphics/SVG/1.1/DTD/svg11.dtd">
<!-- Creator: CorelDRAW X8 -->
<svg xmlns="http://www.w3.org/2000/svg" xml:space="preserve" width="1075px" height="1486px" version="1.1" style="shape-rendering:geometricPrecision; text-rendering:geometricPrecision; image-rendering:optimizeQuality; fill-rule:evenodd; clip-rule:evenodd"
viewBox="0 0 1075 1486"
 xmlns:xlink="http://www.w3.org/1999/xlink">
 <defs>
  <style type="text/css">
   <![CDATA[
    .fil0 {fill:#2B2A29;fill-rule:nonzero}
   ]]>
  </style>
 </defs>
 <g id="Layer_x0020_1">
  <metadata id="CorelCorpID_0Corel-Layer"/>
  <path class="fil0" d="M198 1024c9,0 19,-1 28,-4 15,-4 36,-16 36,-32 0,-4 -2,-9 -6,-14 -88,-111 -133,-252 -133,-394 0,-275 149,-510 447,-510 123,0 326,33 326,193 0,63 -28,90 -91,90 -70,0 -138,-28 -212,-28 -115,0 -184,75 -184,191 0,66 23,126 77,166 36,27 83,38 128,38 55,0 105,-17 158,-17 66,0 114,16 147,54 40,47 58,115 58,190 0,86 -19,181 -49,241 -31,62 -76,111 -128,152 0,-91 -70,-137 -155,-160 -71,-19 -152,-22 -210,-22 -66,0 -136,5 -200,22 -64,17 -171,61 -171,141 0,79 104,123 166,140 67,19 138,25 205,25 72,0 154,-7 230,-25 65,-15 124,-40 176,-73 68,-43 125,-102 166,-173 43,-76 68,-174 68,-268 0,-79 -10,-136 -50,-205 -45,-78 -123,-124 -211,-123 -53,1 -102,18 -155,18 -75,0 -144,-31 -144,-118 0,-77 60,-108 125,-108 65,0 127,25 192,25 106,0 178,-61 178,-173 0,-222 -262,-263 -440,-263 -345,0 -569,231 -570,571 -1,150 47,305 138,424 16,20 37,29 60,29zm237 400c-179,0 -262,-52 -262,-103 0,-52 93,-100 262,-100 168,0 256,52 256,100 0,49 -79,103 -256,103z"/>
 </g>
</svg>
