<?xml version="1.0" encoding="UTF-8"?>
<!DOCTYPE svg PUBLIC "-//W3C//DTD SVG 1.1//EN" "http://www.w3.org/Graphics/SVG/1.1/DTD/svg11.dtd">
<!-- Creator: CorelDRAW X8 -->
<svg xmlns="http://www.w3.org/2000/svg" xml:space="preserve" width="1422px" height="1486px" version="1.1" style="shape-rendering:geometricPrecision; text-rendering:geometricPrecision; image-rendering:optimizeQuality; fill-rule:evenodd; clip-rule:evenodd"
viewBox="0 0 1422 1486"
 xmlns:xlink="http://www.w3.org/1999/xlink">
 <defs>
  <style type="text/css">
   <![CDATA[
    .fil0 {fill:#2B2A29;fill-rule:nonzero}
   ]]>
  </style>
 </defs>
 <g id="Layer_x0020_1">
  <metadata id="CorelCorpID_0Corel-Layer"/>
  <path class="fil0" d="M1121 704c123,0 193,113 193,225 0,110 -25,211 -93,300 -100,131 -244,190 -406,190 -233,0 -441,-121 -567,-319 -91,-142 -124,-307 -124,-473 0,-217 73,-450 265,-568 11,-7 16,-15 16,-23 0,-10 -7,-20 -20,-26 -12,-6 -27,-10 -42,-10 -16,0 -32,4 -44,12 -211,129 -299,374 -299,615 0,200 53,395 175,555 156,204 388,304 640,304 179,0 354,-57 477,-192 92,-102 130,-231 130,-365 0,-155 -75,-308 -253,-308 -51,0 -97,16 -149,16 -75,0 -144,-31 -144,-118 0,-77 60,-108 125,-108 65,0 127,25 192,25 106,0 178,-61 178,-173 0,-222 -261,-263 -440,-263 -345,0 -569,231 -570,571 0,150 47,305 138,424 16,20 37,29 60,29 9,0 19,-1 28,-4 15,-4 36,-16 36,-32 0,-4 -2,-9 -6,-14 -88,-111 -133,-252 -133,-394 0,-275 149,-510 447,-510 123,0 326,33 326,193 0,63 -28,90 -91,90 -70,0 -138,-28 -212,-28 -115,0 -184,75 -184,191 0,66 23,126 77,166 36,27 84,38 128,38 51,0 97,-16 146,-16z"/>
 </g>
</svg>
