<?xml version="1.0" encoding="UTF-8"?>
<!DOCTYPE svg PUBLIC "-//W3C//DTD SVG 1.1//EN" "http://www.w3.org/Graphics/SVG/1.1/DTD/svg11.dtd">
<!-- Creator: CorelDRAW X8 -->
<svg xmlns="http://www.w3.org/2000/svg" xml:space="preserve" width="1389px" height="1486px" version="1.1" style="shape-rendering:geometricPrecision; text-rendering:geometricPrecision; image-rendering:optimizeQuality; fill-rule:evenodd; clip-rule:evenodd"
viewBox="0 0 1389 1486"
 xmlns:xlink="http://www.w3.org/1999/xlink">
 <defs>
  <style type="text/css">
   <![CDATA[
    .fil0 {fill:#2B2A29;fill-rule:nonzero}
   ]]>
  </style>
 </defs>
 <g id="Layer_x0020_1">
  <metadata id="CorelCorpID_0Corel-Layer"/>
  <path class="fil0" d="M830 1486c132,-1 257,-14 375,-78 106,-58 184,-149 184,-275 0,-83 -40,-142 -110,-170 69,-35 107,-87 107,-172 0,-106 -75,-173 -182,-173 -61,0 -121,19 -182,19 -75,0 -144,-31 -144,-118 0,-77 60,-108 125,-108 65,0 127,25 192,25 106,0 178,-61 178,-173 0,-222 -262,-263 -440,-263 -346,0 -569,231 -570,571 -1,150 47,305 138,424 16,20 37,29 60,29 9,0 19,-1 28,-4 15,-4 36,-16 36,-32 0,-4 -2,-9 -6,-14 -88,-111 -133,-252 -133,-394 0,-275 149,-510 447,-510 123,0 326,33 326,193 0,63 -28,90 -91,90 -70,0 -138,-28 -212,-28 -115,0 -184,75 -184,191 0,66 23,126 77,166 36,27 83,38 128,38 56,0 109,-18 163,-18 61,0 127,20 127,89 0,115 -110,137 -204,137l-201 0c-19,0 -61,9 -61,35 0,27 42,35 61,35l254 0c87,0 164,38 164,135 0,88 -53,159 -124,205 -93,61 -216,84 -326,84 -239,0 -448,-110 -579,-318 -90,-142 -128,-307 -127,-473 0,-221 69,-452 265,-572 11,-7 16,-15 16,-24 0,-9 -7,-19 -19,-25 -12,-6 -27,-10 -42,-10 -16,0 -33,4 -45,12 -210,129 -299,374 -299,615 0,197 55,396 174,555 152,203 409,306 656,304z"/>
 </g>
</svg>
