<?xml version="1.0" encoding="UTF-8"?>
<!DOCTYPE svg PUBLIC "-//W3C//DTD SVG 1.1//EN" "http://www.w3.org/Graphics/SVG/1.1/DTD/svg11.dtd">
<!-- Creator: CorelDRAW X8 -->
<svg xmlns="http://www.w3.org/2000/svg" xml:space="preserve" width="1075px" height="1486px" version="1.1" style="shape-rendering:geometricPrecision; text-rendering:geometricPrecision; image-rendering:optimizeQuality; fill-rule:evenodd; clip-rule:evenodd"
viewBox="0 0 1075 1486"
 xmlns:xlink="http://www.w3.org/1999/xlink">
 <defs>
  <style type="text/css">
   <![CDATA[
    .fil0 {fill:#2B2A29;fill-rule:nonzero}
   ]]>
  </style>
 </defs>
 <g id="Layer_x0020_1">
  <metadata id="CorelCorpID_0Corel-Layer"/>
  <path class="fil0" d="M702 1452c226,-67 373,-276 373,-505 0,-79 -10,-136 -50,-205 -45,-78 -123,-124 -211,-123 -53,1 -102,18 -155,18 -75,0 -144,-31 -144,-118 0,-77 60,-108 125,-108 65,0 127,25 192,25 106,0 178,-61 178,-173 0,-222 -262,-263 -440,-263 -345,0 -569,231 -570,571 -1,150 47,305 138,424 16,20 37,29 60,29 9,0 19,-1 28,-4 15,-4 36,-16 36,-32 0,-4 -2,-9 -6,-14 -88,-111 -133,-252 -133,-394 0,-275 149,-510 447,-510 123,0 326,33 326,193 0,63 -28,90 -91,90 -70,0 -138,-28 -212,-28 -115,0 -184,75 -184,191 0,66 23,126 77,166 36,27 83,38 128,38 55,0 105,-17 158,-17 66,0 114,16 147,54 40,47 58,115 58,190 0,162 -45,287 -181,397 4,-14 6,-28 6,-41 0,-44 -24,-82 -66,-109 -41,-26 -97,-35 -145,-35 -62,0 -107,12 -159,47 -51,-35 -95,-47 -158,-47 -47,0 -105,9 -145,35 -36,24 -64,59 -64,104 0,74 71,131 134,154 72,26 157,34 233,34 86,0 184,-9 270,-34zm-270 -22c-66,0 -145,-5 -206,-33 -41,-18 -72,-50 -72,-97 0,-62 67,-87 120,-87 67,0 107,41 108,108 0,24 32,31 50,31 19,0 51,-7 51,-31 1,-66 41,-108 107,-108 53,0 121,24 121,87 0,47 -31,79 -72,97 -62,28 -140,33 -207,33z"/>
 </g>
</svg>
