<?xml version="1.0" encoding="UTF-8"?>
<!DOCTYPE svg PUBLIC "-//W3C//DTD SVG 1.1//EN" "http://www.w3.org/Graphics/SVG/1.1/DTD/svg11.dtd">
<!-- Creator: CorelDRAW X8 -->
<svg xmlns="http://www.w3.org/2000/svg" xml:space="preserve" width="973px" height="1000px" version="1.1" style="shape-rendering:geometricPrecision; text-rendering:geometricPrecision; image-rendering:optimizeQuality; fill-rule:evenodd; clip-rule:evenodd"
viewBox="0 0 973 1000"
 xmlns:xlink="http://www.w3.org/1999/xlink">
 <defs>
  <style type="text/css">
   <![CDATA[
    .fil0 {fill:#2B2A29;fill-rule:nonzero}
   ]]>
  </style>
 </defs>
 <g id="Layer_x0020_1">
  <metadata id="CorelCorpID_0Corel-Layer"/>
  <path class="fil0" d="M911 1000c20,0 62,-9 62,-35l0 -539c0,-116 -40,-221 -126,-300 -98,-90 -231,-126 -360,-126 -129,0 -264,37 -362,127 -85,78 -125,183 -125,299l0 539c0,26 42,35 62,35l849 0zm-61 -70l-519 0c190,-133 334,-333 334,-572 0,-152 -71,-253 -170,-291 87,9 171,25 248,96 68,63 107,155 107,263l0 504zm-727 0l0 -504c0,-100 32,-194 106,-262 38,-35 85,-56 136,-56 130,1 179,135 179,250 0,267 -184,469 -421,572z"/>
 </g>
</svg>
