<?xml version="1.0" encoding="UTF-8"?>
<!DOCTYPE svg PUBLIC "-//W3C//DTD SVG 1.1//EN" "http://www.w3.org/Graphics/SVG/1.1/DTD/svg11.dtd">
<!-- Creator: CorelDRAW X8 -->
<svg xmlns="http://www.w3.org/2000/svg" xml:space="preserve" width="613px" height="586px" version="1.1" style="shape-rendering:geometricPrecision; text-rendering:geometricPrecision; image-rendering:optimizeQuality; fill-rule:evenodd; clip-rule:evenodd"
viewBox="0 0 613 586"
 xmlns:xlink="http://www.w3.org/1999/xlink">
 <defs>
  <style type="text/css">
   <![CDATA[
    .fil0 {fill:#00A0E3;fill-rule:nonzero}
   ]]>
  </style>
 </defs>
 <g id="Layer_x0020_1">
  <metadata id="CorelCorpID_0Corel-Layer"/>
  <path class="fil0" d="M238 533c81,-54 136,-128 165,-202 16,-40 24,-80 23,-119 0,-65 -25,-123 -80,-156 40,7 77,23 105,48 39,33 63,83 63,147l0 282 -276 0zm-77 -429c20,-18 44,-28 68,-29 75,-2 101,79 100,139 0,37 -9,75 -23,111 -38,91 -117,170 -207,207l0 -281c0,-65 24,-114 62,-147zm403 482c27,0 49,-12 49,-27l0 -308c0,-74 -30,-134 -78,-176 -56,-49 -138,-75 -228,-75 -89,0 -172,25 -229,76 -48,41 -78,100 -78,175l0 308c0,15 22,27 49,27l515 0z"/>
 </g>
</svg>
