<?xml version="1.0" encoding="UTF-8"?>
<!DOCTYPE svg PUBLIC "-//W3C//DTD SVG 1.1//EN" "http://www.w3.org/Graphics/SVG/1.1/DTD/svg11.dtd">
<!-- Creator: CorelDRAW X8 -->
<svg xmlns="http://www.w3.org/2000/svg" xml:space="preserve" width="1956px" height="1024px" version="1.1" style="shape-rendering:geometricPrecision; text-rendering:geometricPrecision; image-rendering:optimizeQuality; fill-rule:evenodd; clip-rule:evenodd"
viewBox="0 0 1956 1024"
 xmlns:xlink="http://www.w3.org/1999/xlink">
 <defs>
  <style type="text/css">
   <![CDATA[
    .fil0 {fill:#00A0E3;fill-rule:nonzero}
   ]]>
  </style>
 </defs>
 <g id="Layer_x0020_1">
  <metadata id="CorelCorpID_0Corel-Layer"/>
  <path class="fil0" d="M1526 502c4,-265 -159,-502 -436,-502 -132,0 -225,32 -314,133 -89,-101 -182,-133 -314,-133 -176,0 -336,91 -412,256 -37,82 -51,175 -50,265 3,201 86,409 275,494 27,12 66,14 91,-5 23,-17 11,-39 -12,-49 -162,-70 -228,-274 -231,-440 -1,-75 9,-153 36,-223 49,-129 163,-228 303,-228 171,0 253,117 253,283l0 636c0,26 42,35 61,35 20,0 62,-9 62,-35l0 -636c0,-166 82,-283 252,-283 214,0 316,245 313,433 -2,167 -69,364 -231,434 -10,4 -22,13 -24,25 -4,30 44,38 65,38l681 0c21,0 62,-9 62,-35l0 -930c0,-27 -42,-35 -62,-35 -19,0 -61,8 -61,35l0 894 -485 0c123,-118 176,-254 178,-427z"/>
 </g>
</svg>
