<?xml version="1.0" encoding="UTF-8"?>
<!DOCTYPE svg PUBLIC "-//W3C//DTD SVG 1.1//EN" "http://www.w3.org/Graphics/SVG/1.1/DTD/svg11.dtd">
<!-- Creator: CorelDRAW X8 -->
<svg xmlns="http://www.w3.org/2000/svg" xml:space="preserve" width="1391px" height="1486px" version="1.1" style="shape-rendering:geometricPrecision; text-rendering:geometricPrecision; image-rendering:optimizeQuality; fill-rule:evenodd; clip-rule:evenodd"
viewBox="0 0 1391 1486"
 xmlns:xlink="http://www.w3.org/1999/xlink">
 <defs>
  <style type="text/css">
   <![CDATA[
    .fil0 {fill:#CC9933;fill-rule:nonzero}
   ]]>
  </style>
 </defs>
 <g id="Layer_x0020_1">
  <metadata id="CorelCorpID_0Corel-Layer"/>
  <path class="fil0" d="M749 930c130,-91 242,-217 297,-366 24,-64 38,-133 37,-205 -1,-152 -71,-254 -170,-292 87,9 171,25 248,96 68,63 107,155 107,263l0 504 -519 0zm519 70c-1,103 -20,185 -88,265 -88,104 -243,152 -374,156 -241,6 -452,-83 -575,-301 -78,-138 -107,-304 -108,-462 -2,-228 71,-475 272,-599 24,-15 21,-37 -3,-49 -12,-6 -27,-9 -42,-9 -16,0 -32,3 -45,11 -218,134 -307,397 -305,646 2,186 46,374 155,527 154,215 394,303 650,301 156,-1 335,-50 450,-163 91,-90 136,-193 136,-323l0 -574c0,-116 -40,-221 -126,-300 -97,-90 -231,-126 -360,-126 -129,0 -264,37 -362,127 -85,78 -125,183 -125,299l0 539c0,26 41,35 62,35l788 0zm-621 -836c38,-35 85,-56 136,-56 131,1 180,138 179,253 -1,70 -13,135 -36,194 -65,172 -212,300 -385,375l0 -504c0,-100 32,-194 106,-262z"/>
 </g>
</svg>
