<?xml version="1.0" encoding="UTF-8"?>
<!DOCTYPE svg PUBLIC "-//W3C//DTD SVG 1.1//EN" "http://www.w3.org/Graphics/SVG/1.1/DTD/svg11.dtd">
<!-- Creator: CorelDRAW X8 -->
<svg xmlns="http://www.w3.org/2000/svg" xml:space="preserve" width="973px" height="1486px" version="1.1" style="shape-rendering:geometricPrecision; text-rendering:geometricPrecision; image-rendering:optimizeQuality; fill-rule:evenodd; clip-rule:evenodd"
viewBox="0 0 973 1486"
 xmlns:xlink="http://www.w3.org/1999/xlink">
 <defs>
  <style type="text/css">
   <![CDATA[
    .fil0 {fill:#2B2A29;fill-rule:nonzero}
   ]]>
  </style>
 </defs>
 <g id="Layer_x0020_1">
  <metadata id="CorelCorpID_0Corel-Layer"/>
  <path class="fil0" d="M123 929l0 -503c0,-100 32,-194 106,-262 38,-35 85,-56 136,-56 134,0 180,142 179,253 -3,267 -181,465 -421,568zm727 0l-519 0c185,-128 334,-331 334,-563 0,-123 -47,-252 -170,-299 87,9 171,25 248,96 68,63 107,155 107,263l0 503zm-489 557c84,0 188,-2 290,-24 101,-21 193,-61 246,-134 51,-70 76,-173 76,-324l0 -578c0,-116 -40,-221 -126,-300 -98,-90 -231,-126 -360,-126 -129,0 -264,37 -362,127 -85,78 -125,183 -125,299l0 539c0,26 41,35 62,35l790 0c2,96 9,217 -45,299 -23,34 -56,62 -105,83 9,-16 16,-36 16,-55 0,-89 -109,-133 -180,-150 -58,-14 -117,-19 -177,-19 -64,0 -132,5 -194,22 -64,17 -167,61 -167,141 0,79 100,124 162,141 60,17 130,24 199,24zm1 -63c-175,0 -257,-51 -257,-103 0,-51 91,-100 257,-100 164,0 250,53 250,100 0,50 -77,103 -250,103z"/>
 </g>
</svg>
