<?xml version="1.0" encoding="UTF-8"?>
<!DOCTYPE svg PUBLIC "-//W3C//DTD SVG 1.1//EN" "http://www.w3.org/Graphics/SVG/1.1/DTD/svg11.dtd">
<!-- Creator: CorelDRAW X8 -->
<svg xmlns="http://www.w3.org/2000/svg" xml:space="preserve" width="1391px" height="1486px" version="1.1" style="shape-rendering:geometricPrecision; text-rendering:geometricPrecision; image-rendering:optimizeQuality; fill-rule:evenodd; clip-rule:evenodd"
viewBox="0 0 1391 1486"
 xmlns:xlink="http://www.w3.org/1999/xlink">
 <defs>
  <style type="text/css">
   <![CDATA[
    .fil0 {fill:#2B2A29;fill-rule:nonzero}
   ]]>
  </style>
 </defs>
 <g id="Layer_x0020_1">
  <metadata id="CorelCorpID_0Corel-Layer"/>
  <path class="fil0" d="M1255 1323c91,-90 136,-193 136,-323l0 -574c0,-116 -40,-221 -126,-300 -97,-90 -231,-126 -360,-126 -129,0 -264,37 -362,127 -85,78 -125,183 -125,299l0 539c0,26 41,35 62,35l788 0c-1,103 -20,185 -88,265 -94,111 -243,156 -384,156 -231,0 -446,-90 -565,-301 -80,-142 -108,-309 -108,-470 0,-226 74,-469 272,-591 11,-7 17,-16 17,-24 0,-9 -7,-19 -20,-25 -12,-6 -27,-10 -42,-10 -16,0 -33,4 -45,12 -216,133 -305,391 -305,638 0,187 45,381 155,535 152,213 389,301 641,301 161,0 342,-48 459,-163zm13 -393l-519 0c188,-131 334,-333 334,-569 0,-124 -46,-246 -170,-294 87,9 171,25 248,96 68,63 107,155 107,263l0 504zm-727 0l0 -504c0,-100 32,-194 106,-262 38,-35 85,-57 136,-56 134,1 180,141 179,253 -2,268 -182,465 -421,569z"/>
 </g>
</svg>
