<?xml version="1.0" encoding="UTF-8"?>
<!DOCTYPE svg PUBLIC "-//W3C//DTD SVG 1.1//EN" "http://www.w3.org/Graphics/SVG/1.1/DTD/svg11.dtd">
<!-- Creator: CorelDRAW X8 -->
<svg xmlns="http://www.w3.org/2000/svg" xml:space="preserve" width="973px" height="1486px" version="1.1" style="shape-rendering:geometricPrecision; text-rendering:geometricPrecision; image-rendering:optimizeQuality; fill-rule:evenodd; clip-rule:evenodd"
viewBox="0 0 973 1486"
 xmlns:xlink="http://www.w3.org/1999/xlink">
 <defs>
  <style type="text/css">
   <![CDATA[
    .fil0 {fill:#2B2A29;fill-rule:nonzero}
   ]]>
  </style>
 </defs>
 <g id="Layer_x0020_1">
  <metadata id="CorelCorpID_0Corel-Layer"/>
  <path class="fil0" d="M358 1486c107,0 216,-8 321,-31 96,-21 169,-59 218,-127 51,-70 76,-173 76,-324l0 -578c0,-116 -40,-221 -126,-300 -98,-90 -231,-126 -360,-126 -129,0 -264,37 -362,127 -85,78 -125,183 -125,299l0 539c0,26 41,35 62,35l790 0 1 89c2,127 -14,233 -159,298 18,-24 25,-53 25,-83 0,-49 -21,-83 -63,-110 -39,-26 -96,-36 -142,-36 -61,0 -104,13 -155,47 -50,-34 -93,-47 -155,-47 -46,0 -103,10 -142,36 -36,24 -62,60 -62,104 0,73 68,130 131,154 69,26 154,35 227,34zm492 -557l-519 0c185,-128 334,-331 334,-563 0,-123 -47,-252 -170,-299 87,9 171,25 248,96 68,63 107,155 107,263l0 503zm-727 0l0 -503c0,-100 32,-194 106,-262 38,-35 85,-56 136,-56 134,0 180,142 179,253 -3,267 -181,465 -421,568zm235 500c-65,0 -142,-6 -201,-33 -41,-19 -71,-50 -71,-96 0,-62 65,-87 118,-88 66,-1 106,42 106,109 0,24 30,30 49,30 19,0 50,-6 50,-30 0,-66 38,-109 104,-109 53,0 120,25 120,88 0,46 -31,77 -71,96 -60,28 -138,33 -204,33z"/>
 </g>
</svg>
