<?xml version="1.0" encoding="UTF-8"?>
<!DOCTYPE svg PUBLIC "-//W3C//DTD SVG 1.1//EN" "http://www.w3.org/Graphics/SVG/1.1/DTD/svg11.dtd">
<!-- Creator: CorelDRAW X8 -->
<svg xmlns="http://www.w3.org/2000/svg" xml:space="preserve" width="1590px" height="1024px" version="1.1" style="shape-rendering:geometricPrecision; text-rendering:geometricPrecision; image-rendering:optimizeQuality; fill-rule:evenodd; clip-rule:evenodd"
viewBox="0 0 1590 1024"
 xmlns:xlink="http://www.w3.org/1999/xlink">
 <defs>
  <style type="text/css">
   <![CDATA[
    .fil0 {fill:#00A0E3;fill-rule:nonzero}
   ]]>
  </style>
 </defs>
 <g id="Layer_x0020_1">
  <metadata id="CorelCorpID_0Corel-Layer"/>
  <path class="fil0" d="M657 688c-32,-73 -48,-154 -54,-239 -9,-154 40,-379 224,-379 69,0 130,37 170,94 57,80 71,188 67,285 -5,86 -26,174 -66,251 -43,84 -94,139 -171,190 -78,-56 -130,-112 -170,-202zm-100 -526c-28,-88 -96,-162 -225,-162 -105,0 -211,60 -264,153 -51,88 -70,194 -68,295 3,136 47,285 135,388 119,139 274,187 450,188 86,1 162,-12 242,-41 78,28 151,40 234,40 185,0 359,-93 451,-259 52,-95 77,-208 78,-316 1,-162 -55,-336 -195,-427 -32,-20 -69,-30 -104,-10 -24,13 -24,36 0,49 130,75 177,245 176,388 0,101 -24,207 -72,295 -68,123 -194,210 -334,210 -49,0 -89,-7 -136,-18 84,-58 141,-118 189,-211 43,-84 68,-179 72,-276 6,-124 -24,-249 -111,-340 -65,-68 -155,-108 -248,-108 -129,0 -225,73 -270,162zm28 791c-139,1 -247,-39 -339,-148 -81,-95 -120,-232 -123,-357 -2,-93 15,-192 62,-273 31,-55 80,-105 147,-105 96,0 127,81 140,165 11,73 6,141 11,213 7,100 28,195 70,280 44,90 99,148 179,206 -51,12 -93,19 -147,19z"/>
 </g>
</svg>
