<?xml version="1.0" encoding="UTF-8"?>
<!DOCTYPE svg PUBLIC "-//W3C//DTD SVG 1.1//EN" "http://www.w3.org/Graphics/SVG/1.1/DTD/svg11.dtd">
<!-- Creator: CorelDRAW X8 -->
<svg xmlns="http://www.w3.org/2000/svg" xml:space="preserve" width="1608px" height="1486px" version="1.1" style="shape-rendering:geometricPrecision; text-rendering:geometricPrecision; image-rendering:optimizeQuality; fill-rule:evenodd; clip-rule:evenodd"
viewBox="0 0 1608 1486"
 xmlns:xlink="http://www.w3.org/1999/xlink">
 <defs>
  <style type="text/css">
   <![CDATA[
    .fil0 {fill:#2B2A29;fill-rule:nonzero}
   ]]>
  </style>
 </defs>
 <g id="Layer_x0020_1">
  <metadata id="CorelCorpID_0Corel-Layer"/>
  <path class="fil0" d="M585 953c-141,0 -246,-39 -339,-148 -85,-100 -123,-243 -123,-372 0,-88 17,-181 62,-258 31,-55 80,-105 147,-105 96,0 127,81 140,165 9,61 9,119 9,179 0,107 24,217 72,314 44,90 99,148 179,206 -51,12 -93,19 -147,19zm242 -63c-78,-56 -130,-112 -170,-202 -38,-86 -55,-180 -55,-274 0,-151 55,-344 225,-344 69,0 130,37 170,94 51,72 68,166 68,255 0,100 -21,191 -67,281 -43,84 -94,139 -171,190zm-242 134c82,0 165,-13 242,-41 78,28 151,40 234,40 163,0 317,-72 414,-202 -21,100 -45,192 -94,282 -47,87 -119,176 -206,227 0,-95 -110,-135 -187,-153 -60,-14 -121,-19 -182,-19 -65,0 -136,5 -199,22 -64,17 -171,61 -171,141 0,79 103,124 166,141 60,16 141,24 204,24 74,0 145,-8 211,-24 173,-42 318,-140 434,-302 117,-163 157,-347 157,-546 0,-99 -6,-215 -34,-321 -30,-110 -83,-211 -179,-272 -20,-13 -41,-21 -63,-21 -14,0 -27,3 -41,11 -12,6 -18,15 -18,24 0,9 6,18 18,25 129,74 176,241 176,384 0,103 -22,208 -72,299 -68,123 -194,210 -334,210 -49,0 -89,-7 -136,-18 84,-58 141,-118 189,-211 52,-101 73,-194 73,-306 0,-114 -32,-226 -112,-310 -65,-68 -155,-108 -248,-108 -129,0 -225,73 -270,162 -28,-88 -96,-162 -225,-162 -105,0 -211,60 -264,153 -49,84 -68,184 -68,281 0,139 43,295 135,402 121,142 278,188 450,188zm222 399c-179,0 -263,-51 -263,-103 0,-51 94,-100 263,-100 168,0 256,53 256,100 0,50 -80,103 -256,103z"/>
 </g>
</svg>
