<?xml version="1.0" encoding="UTF-8"?>
<!DOCTYPE svg PUBLIC "-//W3C//DTD SVG 1.1//EN" "http://www.w3.org/Graphics/SVG/1.1/DTD/svg11.dtd">
<!-- Creator: CorelDRAW X8 -->
<svg xmlns="http://www.w3.org/2000/svg" xml:space="preserve" width="1148px" height="1024px" version="1.1" style="shape-rendering:geometricPrecision; text-rendering:geometricPrecision; image-rendering:optimizeQuality; fill-rule:evenodd; clip-rule:evenodd"
viewBox="0 0 1148 1024"
 xmlns:xlink="http://www.w3.org/1999/xlink">
 <defs>
  <style type="text/css">
   <![CDATA[
    .fil0 {fill:#B2B09C;fill-rule:nonzero}
   ]]>
  </style>
 </defs>
 <g id="Layer_x0020_1">
  <metadata id="CorelCorpID_0Corel-Layer"/>
  <path class="fil0" d="M936 260c66,99 91,204 89,324 -1,88 -20,182 -65,258 -38,64 -90,112 -166,111 -70,0 -125,-40 -162,-98 -40,-60 -57,-136 -57,-207 0,-90 26,-180 80,-252 70,-96 166,-136 281,-136zm-613 706c-134,-92 -201,-243 -200,-405 0,-104 26,-208 82,-294 85,-131 220,-195 371,-197 126,-1 210,35 304,120 -137,18 -253,62 -338,178 -59,80 -90,181 -90,280 0,81 21,163 65,231 63,97 166,144 278,145 119,1 219,-55 281,-159 49,-83 71,-185 72,-282 1,-98 -15,-195 -59,-283 -101,-207 -293,-301 -514,-300 -182,1 -361,69 -472,223 -70,97 -102,214 -103,334 -2,177 73,339 213,443 31,23 66,33 102,16 23,-11 31,-33 8,-50z"/>
 </g>
</svg>
