<?xml version="1.0" encoding="UTF-8"?>
<!DOCTYPE svg PUBLIC "-//W3C//DTD SVG 1.1//EN" "http://www.w3.org/Graphics/SVG/1.1/DTD/svg11.dtd">
<!-- Creator: CorelDRAW X8 -->
<svg xmlns="http://www.w3.org/2000/svg" xml:space="preserve" width="1967px" height="1486px" version="1.1" style="shape-rendering:geometricPrecision; text-rendering:geometricPrecision; image-rendering:optimizeQuality; fill-rule:evenodd; clip-rule:evenodd"
viewBox="0 0 1967 1486"
 xmlns:xlink="http://www.w3.org/1999/xlink">
 <defs>
  <style type="text/css">
   <![CDATA[
    .fil0 {fill:#00A0E3;fill-rule:nonzero}
   ]]>
  </style>
 </defs>
 <g id="Layer_x0020_1">
  <metadata id="CorelCorpID_0Corel-Layer"/>
  <path class="fil0" d="M1622 566c52,1 96,12 137,47 58,51 81,128 82,204 3,196 -105,362 -264,465 -150,97 -343,140 -519,143 -293,6 -605,-88 -784,-338 -98,-137 -149,-312 -151,-481 -2,-212 75,-433 261,-548 23,-14 20,-36 -4,-49 -24,-13 -63,-12 -86,2 -206,126 -296,358 -294,595 2,181 58,365 163,511 205,284 560,373 891,369 191,-2 394,-35 564,-129 192,-107 354,-309 349,-540 -3,-134 -61,-228 -179,-290 73,-48 116,-113 116,-204 1,-107 -63,-196 -151,-248 -98,-58 -224,-75 -335,-75 -107,0 -202,9 -304,45 -76,-32 -153,-45 -235,-45 -189,0 -368,101 -456,273 -47,90 -69,193 -69,295 0,162 58,346 202,435 32,20 72,31 107,10 24,-15 21,-37 -3,-50 -135,-71 -183,-252 -183,-395 0,-95 20,-192 63,-276 65,-126 196,-223 339,-222 48,0 87,4 133,19 -167,120 -252,299 -252,506 0,85 16,184 57,259 60,112 163,170 289,170 126,0 230,-58 291,-171 40,-75 57,-173 57,-258 0,-205 -83,-381 -247,-501 59,-16 134,-25 210,-25 91,1 183,17 247,55 71,42 120,117 117,202 -1,38 -12,80 -34,111 -32,41 -70,60 -122,59 -19,0 -62,8 -63,34 -1,26 40,36 60,36zm-516 -432c152,108 225,275 226,461 0,78 -15,168 -53,238 -36,67 -94,122 -173,122 -80,0 -136,-54 -172,-122 -37,-68 -52,-160 -52,-238 0,-184 74,-354 224,-461z"/>
 </g>
</svg>
