<?xml version="1.0" encoding="UTF-8"?>
<!DOCTYPE svg PUBLIC "-//W3C//DTD SVG 1.1//EN" "http://www.w3.org/Graphics/SVG/1.1/DTD/svg11.dtd">
<!-- Creator: CorelDRAW X8 -->
<svg xmlns="http://www.w3.org/2000/svg" xml:space="preserve" width="2007px" height="1486px" version="1.1" style="shape-rendering:geometricPrecision; text-rendering:geometricPrecision; image-rendering:optimizeQuality; fill-rule:evenodd; clip-rule:evenodd"
viewBox="0 0 2007 1486"
 xmlns:xlink="http://www.w3.org/1999/xlink">
 <defs>
  <style type="text/css">
   <![CDATA[
    .fil0 {fill:#669933;fill-rule:nonzero}
   ]]>
  </style>
 </defs>
 <g id="Layer_x0020_1">
  <metadata id="CorelCorpID_0Corel-Layer"/>
  <path class="fil0" d="M1641 577c-45,-1 -80,-22 -79,-47 2,-25 39,-44 83,-44 45,0 76,-17 103,-52 21,-28 33,-65 34,-102 2,-79 -43,-151 -112,-191 -66,-39 -155,-49 -232,-49 -60,0 -121,1 -180,16 108,77 180,191 214,318 15,56 22,114 22,171 0,92 -19,180 -58,251 -65,119 -178,176 -310,176 -132,0 -244,-57 -308,-176 -39,-70 -58,-160 -58,-251 0,-58 7,-115 22,-171 35,-129 108,-245 219,-322 -32,-8 -66,-13 -102,-13 -135,0 -259,94 -320,211 -40,78 -62,172 -62,268 0,138 47,307 176,375 33,17 35,46 5,64 -44,26 -96,15 -137,-10 -147,-89 -207,-264 -207,-429 0,-105 24,-207 69,-294 92,-176 280,-276 476,-276 76,0 165,13 236,42 96,-33 201,-42 303,-42 114,0 247,17 349,78 92,53 158,144 157,251 0,82 -40,153 -108,198 119,62 168,176 171,289 5,232 -160,433 -355,540 -174,95 -383,128 -578,130 -260,3 -532,-59 -702,-173 -155,-104 -274,-253 -334,-456 -48,-158 -52,-334 -5,-489 43,-144 129,-271 266,-353 30,-19 82,-20 115,-3 33,17 35,46 4,64 -113,69 -187,179 -225,307 -43,145 -39,310 5,459 56,186 162,321 299,412 150,101 372,154 580,150 168,-3 357,-43 505,-138 156,-99 262,-260 259,-450 -1,-75 -24,-151 -79,-198 -37,-31 -74,-41 -121,-41zm-515 -416c-93,66 -153,169 -183,278 -14,53 -21,106 -21,158 0,83 17,163 51,225 32,58 83,111 153,111 70,0 123,-54 154,-112 34,-62 52,-141 52,-224 0,-51 -7,-105 -21,-158 -30,-109 -91,-212 -185,-278z"/>
 </g>
</svg>
