<?xml version="1.0" encoding="UTF-8"?>
<!DOCTYPE svg PUBLIC "-//W3C//DTD SVG 1.1//EN" "http://www.w3.org/Graphics/SVG/1.1/DTD/svg11.dtd">
<!-- Creator: CorelDRAW X8 -->
<svg xmlns="http://www.w3.org/2000/svg" xml:space="preserve" width="1580px" height="1024px" version="1.1" style="shape-rendering:geometricPrecision; text-rendering:geometricPrecision; image-rendering:optimizeQuality; fill-rule:evenodd; clip-rule:evenodd"
viewBox="0 0 1580 1024"
 xmlns:xlink="http://www.w3.org/1999/xlink">
 <defs>
  <style type="text/css">
   <![CDATA[
    .fil0 {fill:#00A0E3;fill-rule:nonzero}
   ]]>
  </style>
 </defs>
 <g id="Layer_x0020_1">
  <metadata id="CorelCorpID_0Corel-Layer"/>
  <path class="fil0" d="M1174 963c-25,32 30,48 51,52 26,6 53,9 79,9 155,-1 278,-100 276,-266 -2,-113 -50,-180 -146,-230 73,-49 116,-112 116,-203 0,-107 -64,-197 -152,-249 -97,-59 -223,-76 -335,-76 -107,0 -202,9 -303,45 -75,-32 -154,-45 -235,-45 -189,-1 -368,101 -457,274 -46,91 -68,195 -68,297 0,164 58,342 201,431 33,20 73,32 108,10 24,-15 20,-37 -3,-50 -135,-71 -183,-246 -183,-391 0,-95 20,-193 63,-277 65,-127 196,-224 339,-224 48,0 86,4 133,20 -167,120 -253,301 -253,509 0,85 17,178 57,253 61,113 164,172 289,172 126,0 230,-59 291,-172 41,-76 58,-167 58,-253 0,-206 -83,-384 -247,-505 58,-15 134,-25 209,-24 92,0 184,16 248,54 71,43 119,119 117,204 -1,38 -12,78 -35,108 -31,42 -69,61 -121,60 -20,0 -62,8 -63,34 -1,26 37,35 56,36 52,3 95,8 136,45 41,38 57,92 57,148 2,94 -52,197 -156,195 -24,-1 -43,-10 -65,-11 -23,-1 -49,4 -62,20zm-422 -828c151,108 225,276 225,464 0,79 -15,162 -52,232 -36,68 -94,123 -174,123 -79,0 -135,-54 -171,-122 -37,-70 -52,-155 -52,-233 0,-186 74,-356 224,-464z"/>
 </g>
</svg>
