<?xml version="1.0" encoding="UTF-8"?>
<!DOCTYPE svg PUBLIC "-//W3C//DTD SVG 1.1//EN" "http://www.w3.org/Graphics/SVG/1.1/DTD/svg11.dtd">
<!-- Creator: CorelDRAW X8 -->
<svg xmlns="http://www.w3.org/2000/svg" xml:space="preserve" width="1580px" height="1024px" version="1.1" style="shape-rendering:geometricPrecision; text-rendering:geometricPrecision; image-rendering:optimizeQuality; fill-rule:evenodd; clip-rule:evenodd"
viewBox="0 0 1580 1024"
 xmlns:xlink="http://www.w3.org/1999/xlink">
 <defs>
  <style type="text/css">
   <![CDATA[
    .fil0 {fill:#2B2A29;fill-rule:nonzero}
   ]]>
  </style>
 </defs>
 <g id="Layer_x0020_1">
  <metadata id="CorelCorpID_0Corel-Layer"/>
  <path class="fil0" d="M1304 1024c154,0 276,-96 276,-260 0,-112 -47,-185 -146,-236 73,-49 116,-114 116,-205 0,-107 -64,-195 -152,-247 -97,-59 -225,-76 -337,-76 -108,0 -200,9 -301,45 -75,-32 -154,-45 -235,-45 -193,0 -369,102 -457,274 -47,91 -68,195 -68,297 0,164 57,343 201,431 20,13 44,22 67,22 14,0 28,-4 41,-12 11,-7 16,-15 16,-24 0,-9 -7,-19 -19,-26 -135,-71 -183,-246 -183,-391 0,-95 20,-193 63,-277 65,-127 196,-224 339,-224 48,0 86,4 133,20 -167,120 -253,301 -253,509 0,85 17,178 57,253 61,113 164,172 289,172 126,0 230,-59 291,-172 41,-76 58,-167 58,-253 0,-206 -83,-384 -247,-505 59,-16 133,-26 208,-26 92,0 184,17 249,56 70,42 117,116 117,199 0,39 -11,81 -35,113 -30,41 -67,60 -117,60 -21,0 -67,7 -67,34 0,26 36,36 56,36 52,0 95,8 136,45 44,40 57,95 57,153 0,92 -53,190 -153,190 -25,0 -48,-11 -74,-11 -21,0 -44,5 -56,20 -4,6 -6,11 -6,16 0,21 40,33 57,36 26,6 53,9 79,9zm-553 -70c-159,0 -223,-208 -223,-355 0,-186 74,-356 224,-464 151,108 225,276 225,464 0,151 -67,355 -226,355z"/>
 </g>
</svg>
