<?xml version="1.0" encoding="UTF-8"?>
<!DOCTYPE svg PUBLIC "-//W3C//DTD SVG 1.1//EN" "http://www.w3.org/Graphics/SVG/1.1/DTD/svg11.dtd">
<!-- Creator: CorelDRAW X8 -->
<svg xmlns="http://www.w3.org/2000/svg" xml:space="preserve" width="1052px" height="1024px" version="1.1" style="shape-rendering:geometricPrecision; text-rendering:geometricPrecision; image-rendering:optimizeQuality; fill-rule:evenodd; clip-rule:evenodd"
viewBox="0 0 1052 1024"
 xmlns:xlink="http://www.w3.org/1999/xlink">
 <defs>
  <style type="text/css">
   <![CDATA[
    .fil0 {fill:#2B2A29;fill-rule:nonzero}
   ]]>
  </style>
 </defs>
 <g id="Layer_x0020_1">
  <metadata id="CorelCorpID_0Corel-Layer"/>
  <path class="fil0" d="M720 1024c18,0 36,-5 52,-13 174,-92 280,-274 280,-473 0,-294 -228,-538 -526,-538 -297,0 -526,236 -526,532 0,199 108,388 282,480 15,8 32,12 49,12 16,0 31,-4 44,-12 11,-8 15,-15 15,-23 0,-10 -7,-20 -20,-26 -162,-83 -246,-252 -246,-433 0,-240 144,-459 402,-460 257,0 402,229 402,466 0,181 -84,344 -246,427 -13,6 -20,16 -20,26 0,8 4,15 15,23 13,8 28,12 43,12z"/>
 </g>
</svg>
