<?xml version="1.0" encoding="UTF-8"?>
<!DOCTYPE svg PUBLIC "-//W3C//DTD SVG 1.1//EN" "http://www.w3.org/Graphics/SVG/1.1/DTD/svg11.dtd">
<!-- Creator: CorelDRAW X8 -->
<svg xmlns="http://www.w3.org/2000/svg" xml:space="preserve" width="1052px" height="1024px" version="1.1" style="shape-rendering:geometricPrecision; text-rendering:geometricPrecision; image-rendering:optimizeQuality; fill-rule:evenodd; clip-rule:evenodd"
viewBox="0 0 1052 1024"
 xmlns:xlink="http://www.w3.org/1999/xlink">
 <defs>
  <style type="text/css">
   <![CDATA[
    .fil0 {fill:#CC9933;fill-rule:nonzero}
   ]]>
  </style>
 </defs>
 <g id="Layer_x0020_1">
  <metadata id="CorelCorpID_0Corel-Layer"/>
  <path class="fil0" d="M370 962c-163,-82 -247,-254 -246,-435 0,-244 150,-456 402,-457 250,0 397,217 402,456 3,185 -81,353 -246,436 -9,5 -20,13 -21,25 0,11 7,19 16,24 13,9 28,13 43,13 18,0 36,-5 52,-14 177,-94 284,-280 280,-483 -6,-295 -238,-527 -526,-527 -291,0 -523,228 -526,527 -2,201 106,392 282,484 15,8 33,13 51,13 15,0 30,-4 42,-13 9,-5 16,-13 16,-24 -1,-12 -12,-20 -21,-25z"/>
 </g>
</svg>
