<?xml version="1.0" encoding="UTF-8"?>
<!DOCTYPE svg PUBLIC "-//W3C//DTD SVG 1.1//EN" "http://www.w3.org/Graphics/SVG/1.1/DTD/svg11.dtd">
<!-- Creator: CorelDRAW X8 -->
<svg xmlns="http://www.w3.org/2000/svg" xml:space="preserve" width="660px" height="600px" version="1.1" style="shape-rendering:geometricPrecision; text-rendering:geometricPrecision; image-rendering:optimizeQuality; fill-rule:evenodd; clip-rule:evenodd"
viewBox="0 0 660 600"
 xmlns:xlink="http://www.w3.org/1999/xlink">
 <defs>
  <style type="text/css">
   <![CDATA[
    .fil0 {fill:#CC9933;fill-rule:nonzero}
   ]]>
  </style>
 </defs>
 <g id="Layer_x0020_1">
  <metadata id="CorelCorpID_0Corel-Layer"/>
  <path class="fil0" d="M244 553c10,5 15,12 16,18 1,7 -3,14 -12,20 -10,6 -23,9 -35,9 -14,0 -27,-3 -38,-9 -109,-54 -176,-165 -175,-283 2,-176 148,-308 330,-308 180,0 326,134 330,308 3,119 -63,227 -173,282 -11,6 -25,10 -38,10 -13,0 -26,-2 -37,-9 -8,-5 -12,-12 -12,-18 0,-8 6,-15 16,-20 101,-48 147,-145 145,-245 -3,-127 -84,-255 -231,-255 -150,1 -231,127 -231,255 -1,98 46,198 145,245z"/>
 </g>
</svg>
