<?xml version="1.0" encoding="UTF-8"?>
<!DOCTYPE svg PUBLIC "-//W3C//DTD SVG 1.1//EN" "http://www.w3.org/Graphics/SVG/1.1/DTD/svg11.dtd">
<!-- Creator: CorelDRAW X8 -->
<svg xmlns="http://www.w3.org/2000/svg" xml:space="preserve" width="2604px" height="1486px" version="1.1" style="shape-rendering:geometricPrecision; text-rendering:geometricPrecision; image-rendering:optimizeQuality; fill-rule:evenodd; clip-rule:evenodd"
viewBox="0 0 2604 1486"
 xmlns:xlink="http://www.w3.org/1999/xlink">
 <defs>
  <style type="text/css">
   <![CDATA[
    .fil0 {fill:#2B2A29;fill-rule:nonzero}
   ]]>
  </style>
 </defs>
 <g id="Layer_x0020_1">
  <metadata id="CorelCorpID_0Corel-Layer"/>
  <path class="fil0" d="M1081 1024c18,0 37,-5 52,-13 175,-92 280,-274 280,-473 0,-294 -228,-538 -526,-538 -297,0 -526,236 -526,532 0,199 108,388 282,480 15,8 32,12 49,12 16,0 31,-4 44,-12 11,-8 15,-15 15,-23 0,-10 -7,-20 -20,-26 -162,-83 -246,-252 -246,-433 0,-240 144,-459 402,-460 258,0 402,229 402,466 0,181 -84,344 -246,427 -13,6 -20,16 -20,26 0,8 5,15 15,23 14,8 28,12 43,12zm214 462c376,0 817,-91 1091,-362 147,-145 218,-324 218,-531 0,-324 -210,-593 -549,-593 -299,0 -528,227 -528,525 0,198 107,396 282,487 15,8 32,12 50,12 15,0 30,-4 43,-12 11,-7 15,-15 15,-23 0,-10 -7,-19 -20,-26 -163,-83 -247,-258 -247,-438 1,-244 152,-455 405,-455 297,0 424,260 424,523 0,168 -49,324 -157,454 -240,289 -663,371 -1024,371 -318,0 -657,-60 -909,-270 -180,-150 -265,-356 -265,-588 0,-205 87,-391 262,-501 11,-7 16,-16 16,-24 0,-9 -6,-18 -19,-25 -12,-7 -28,-10 -43,-10 -16,0 -31,3 -43,11 -193,121 -297,320 -297,549 0,272 112,496 332,657 277,205 626,269 963,269z"/>
 </g>
</svg>
