<?xml version="1.0" encoding="UTF-8"?>
<!DOCTYPE svg PUBLIC "-//W3C//DTD SVG 1.1//EN" "http://www.w3.org/Graphics/SVG/1.1/DTD/svg11.dtd">
<!-- Creator: CorelDRAW X8 -->
<svg xmlns="http://www.w3.org/2000/svg" xml:space="preserve" width="1615px" height="868px" version="1.1" style="shape-rendering:geometricPrecision; text-rendering:geometricPrecision; image-rendering:optimizeQuality; fill-rule:evenodd; clip-rule:evenodd"
viewBox="0 0 1615 868"
 xmlns:xlink="http://www.w3.org/1999/xlink">
 <defs>
  <style type="text/css">
   <![CDATA[
    .fil0 {fill:#00A0E3;fill-rule:nonzero}
   ]]>
  </style>
 </defs>
 <g id="Layer_x0020_1">
  <metadata id="CorelCorpID_0Corel-Layer"/>
  <path class="fil0" d="M470 552c-98,-47 -145,-147 -144,-245 0,-128 81,-253 230,-254 147,0 227,128 230,254 2,100 -44,198 -144,245 -19,9 -24,26 -4,38 22,14 52,11 74,-1 109,-54 175,-163 172,-282 -3,-174 -149,-307 -328,-307 -181,0 -327,131 -329,307 -1,118 66,230 174,283 22,11 52,13 73,0 19,-12 15,-29 -4,-38zm483 -245c-1,118 65,230 173,283 22,11 52,13 74,0 19,-12 14,-29 -5,-38 -98,-47 -144,-147 -144,-245 0,-128 81,-253 230,-254 174,0 249,153 245,306 -3,102 -38,183 -94,247 -148,171 -429,216 -659,209 -179,-5 -376,-47 -507,-152 -94,-75 -156,-182 -157,-331 -1,-114 48,-223 154,-287 19,-11 17,-28 -2,-38 -20,-10 -51,-10 -69,1 -126,76 -183,198 -182,324 2,172 83,295 202,379 153,107 372,152 561,157 237,6 541,-44 719,-212 78,-74 129,-171 133,-297 6,-203 -130,-359 -344,-359 -178,0 -327,128 -328,307z"/>
 </g>
</svg>
