<?xml version="1.0" encoding="UTF-8"?>
<!DOCTYPE svg PUBLIC "-//W3C//DTD SVG 1.1//EN" "http://www.w3.org/Graphics/SVG/1.1/DTD/svg11.dtd">
<!-- Creator: CorelDRAW X8 -->
<svg xmlns="http://www.w3.org/2000/svg" xml:space="preserve" width="2604px" height="1486px" version="1.1" style="shape-rendering:geometricPrecision; text-rendering:geometricPrecision; image-rendering:optimizeQuality; fill-rule:evenodd; clip-rule:evenodd"
viewBox="0 0 2604 1486"
 xmlns:xlink="http://www.w3.org/1999/xlink">
 <defs>
  <style type="text/css">
   <![CDATA[
    .fil0 {fill:#00A0E3;fill-rule:nonzero}
   ]]>
  </style>
 </defs>
 <g id="Layer_x0020_1">
  <metadata id="CorelCorpID_0Corel-Layer"/>
  <path class="fil0" d="M731 962c-163,-82 -247,-254 -246,-435 1,-244 150,-456 402,-457 250,0 398,217 402,457 4,184 -81,352 -246,435 -23,12 -29,34 -5,50 29,19 66,14 96,-2 177,-93 284,-280 279,-483 -6,-295 -237,-527 -526,-527 -290,0 -523,228 -526,527 -2,201 106,393 282,485 29,14 66,18 94,0 24,-16 18,-38 -6,-50zm796 -437c-2,200 105,395 282,487 28,14 65,18 93,0 24,-15 18,-37 -5,-49 -163,-82 -247,-258 -247,-438 1,-246 154,-458 410,-455 288,4 419,255 419,518 1,170 -48,328 -157,459 -256,308 -720,381 -1095,370 -289,-8 -610,-79 -838,-269 -179,-149 -263,-348 -265,-581 -1,-207 86,-397 262,-508 23,-15 21,-36 -3,-49 -24,-13 -63,-14 -86,1 -195,122 -299,324 -297,556 2,271 116,491 332,650 252,186 591,260 897,268 390,11 867,-74 1157,-361 146,-145 218,-327 218,-534 0,-326 -210,-586 -543,-590 -294,-3 -532,223 -534,525z"/>
 </g>
</svg>
