<?xml version="1.0" encoding="UTF-8"?>
<!DOCTYPE svg PUBLIC "-//W3C//DTD SVG 1.1//EN" "http://www.w3.org/Graphics/SVG/1.1/DTD/svg11.dtd">
<!-- Creator: CorelDRAW X8 -->
<svg xmlns="http://www.w3.org/2000/svg" xml:space="preserve" width="1615px" height="868px" version="1.1" style="shape-rendering:geometricPrecision; text-rendering:geometricPrecision; image-rendering:optimizeQuality; fill-rule:evenodd; clip-rule:evenodd"
viewBox="0 0 1615 868"
 xmlns:xlink="http://www.w3.org/1999/xlink">
 <defs>
  <style type="text/css">
   <![CDATA[
    .fil0 {fill:#2B2A29;fill-rule:nonzero}
   ]]>
  </style>
 </defs>
 <g id="Layer_x0020_1">
  <metadata id="CorelCorpID_0Corel-Layer"/>
  <path class="fil0" d="M805 868c230,2 509,-53 677,-212 88,-83 133,-191 133,-311 0,-196 -134,-345 -344,-345 -181,0 -328,135 -328,313 0,117 66,223 173,276 11,6 25,9 38,9 13,0 25,-3 36,-9 8,-6 12,-11 12,-18 0,-7 -6,-15 -17,-20 -98,-46 -144,-141 -144,-238 0,-132 83,-260 230,-260 168,0 245,144 245,292 0,98 -28,186 -94,261 -139,161 -395,211 -617,210 -189,-1 -399,-33 -549,-153 -107,-85 -157,-202 -157,-335 0,-113 49,-220 154,-283 9,-6 14,-12 14,-19 0,-7 -6,-14 -16,-19 -10,-5 -22,-7 -34,-7 -13,0 -26,2 -35,8 -125,75 -182,195 -182,320 0,160 70,290 202,383 171,120 397,155 603,157zm-143 -270c14,0 29,-3 40,-9 108,-54 173,-160 173,-276 0,-177 -148,-313 -329,-313 -180,0 -329,135 -329,313 0,117 67,223 174,276 12,6 25,9 38,9 13,0 25,-3 35,-9 9,-6 12,-11 12,-18 0,-7 -6,-15 -16,-20 -98,-47 -145,-140 -144,-238 0,-128 81,-260 230,-260 147,0 230,129 230,260 0,97 -46,192 -144,238 -10,5 -16,13 -16,20 0,7 3,12 12,18 10,6 22,9 34,9z"/>
 </g>
</svg>
