<?xml version="1.0" encoding="UTF-8"?>
<!DOCTYPE svg PUBLIC "-//W3C//DTD SVG 1.1//EN" "http://www.w3.org/Graphics/SVG/1.1/DTD/svg11.dtd">
<!-- Creator: CorelDRAW X8 -->
<svg xmlns="http://www.w3.org/2000/svg" xml:space="preserve" width="1615px" height="868px" version="1.1" style="shape-rendering:geometricPrecision; text-rendering:geometricPrecision; image-rendering:optimizeQuality; fill-rule:evenodd; clip-rule:evenodd"
viewBox="0 0 1635 879"
 xmlns:xlink="http://www.w3.org/1999/xlink">
 <defs>
  <style type="text/css">
   <![CDATA[
    .fil0 {fill:#00A0E3;fill-rule:nonzero}
   ]]>
  </style>
 </defs>
 <g id="Layer_x0020_1">
  <metadata id="CorelCorpID_0Corel-Layer"/>
  <path class="fil0" d="M466 559c19,9 23,26 4,38 -21,13 -52,12 -74,1 -110,-55 -177,-168 -176,-287 2,-178 150,-311 333,-311 181,0 328,135 332,311 3,120 -64,230 -174,286 -23,11 -53,14 -76,0 -19,-12 -14,-29 5,-38 101,-48 147,-147 146,-248 -3,-128 -85,-257 -233,-257 -151,0 -233,127 -233,257 -1,99 46,201 146,248zm488 -248c-1,119 67,232 176,287 22,11 53,12 75,-1 19,-12 14,-29 -5,-38 -99,-47 -146,-149 -146,-248 1,-130 82,-257 233,-257 176,0 253,154 248,309 -3,104 -39,186 -95,251 -150,172 -434,218 -667,212 -181,-5 -381,-49 -514,-155 -95,-76 -158,-184 -159,-334 -1,-116 49,-227 156,-292 19,-11 17,-28 -2,-38 -20,-10 -51,-10 -70,2 -128,76 -185,199 -184,328 2,174 84,298 205,383 155,108 376,153 568,158 239,7 548,-43 728,-214 79,-75 130,-173 134,-301 6,-205 -131,-363 -348,-363 -180,0 -331,130 -333,311z"/>
 </g>
</svg>
