<?xml version="1.0" encoding="UTF-8"?>
<!DOCTYPE svg PUBLIC "-//W3C//DTD SVG 1.1//EN" "http://www.w3.org/Graphics/SVG/1.1/DTD/svg11.dtd">
<!-- Creator: CorelDRAW X8 -->
<svg xmlns="http://www.w3.org/2000/svg" xml:space="preserve" width="1217px" height="999px" version="1.1" style="shape-rendering:geometricPrecision; text-rendering:geometricPrecision; image-rendering:optimizeQuality; fill-rule:evenodd; clip-rule:evenodd"
viewBox="0 0 1217 999"
 xmlns:xlink="http://www.w3.org/1999/xlink">
 <defs>
  <style type="text/css">
   <![CDATA[
    .fil0 {fill:#CC9933;fill-rule:nonzero}
   ]]>
  </style>
 </defs>
 <g id="Layer_x0020_1">
  <metadata id="CorelCorpID_0Corel-Layer"/>
  <path class="fil0" d="M1094 35l0 894 -971 0 0 -278 629 0c12,0 32,-3 46,-12 9,-5 15,-13 15,-23l0 -270c0,-118 -50,-205 -126,-262 -74,-56 -172,-84 -272,-84 -101,0 -215,30 -300,101 -69,57 -115,139 -115,247l0 612c0,29 40,39 61,39l1094 0c21,0 62,-9 62,-35l0 -929c0,-26 -42,-35 -62,-35 -19,0 -61,9 -61,35zm-404 546l-567 0 0 -233c0,-80 30,-147 79,-195 57,-57 134,-82 212,-83 83,0 153,30 202,80 46,48 74,116 74,196l0 235z"/>
 </g>
</svg>
