<?xml version="1.0" encoding="UTF-8"?>
<!DOCTYPE svg PUBLIC "-//W3C//DTD SVG 1.1//EN" "http://www.w3.org/Graphics/SVG/1.1/DTD/svg11.dtd">
<!-- Creator: CorelDRAW X8 -->
<svg xmlns="http://www.w3.org/2000/svg" xml:space="preserve" width="1127px" height="1412px" version="1.1" style="shape-rendering:geometricPrecision; text-rendering:geometricPrecision; image-rendering:optimizeQuality; fill-rule:evenodd; clip-rule:evenodd"
viewBox="0 0 1127 1412"
 xmlns:xlink="http://www.w3.org/1999/xlink">
 <defs>
  <style type="text/css">
   <![CDATA[
    .fil0 {fill:#2B2A29;fill-rule:nonzero}
   ]]>
  </style>
 </defs>
 <g id="Layer_x0020_1">
  <metadata id="CorelCorpID_0Corel-Layer"/>
  <path class="fil0" d="M1017 1412c32,0 61,-26 61,-59 0,-33 -29,-59 -61,-59l-740 0c-77,0 -153,-45 -153,-132 0,-89 73,-133 153,-133l458 0c177,0 392,-51 392,-269 0,-114 -64,-176 -161,-225 87,-46 149,-110 149,-214 0,-98 -61,-187 -142,-235 -109,-66 -257,-86 -383,-86 -191,0 -415,31 -526,208 -45,72 -64,161 -64,245 0,87 18,178 72,246 58,74 140,103 230,103 83,0 161,-27 220,-86 48,-48 76,-113 76,-182 0,-80 -27,-154 -89,-206 -52,-45 -123,-64 -191,-64 -73,0 -150,27 -193,89 11,-93 52,-171 163,-227 93,-47 199,-56 302,-56 95,0 212,14 295,64 63,38 108,111 108,187 0,49 -19,96 -57,129 -42,37 -100,49 -155,49 -19,0 -61,9 -61,35 0,26 42,35 61,35 52,0 97,9 141,39 52,35 82,89 82,152 0,158 -136,199 -269,199l-458 0c-135,0 -277,73 -277,227 0,160 135,226 277,226l740 0zm-713 -684c-110,0 -170,-92 -170,-194 0,-97 57,-195 170,-195 114,0 170,98 170,195 0,98 -57,194 -170,194z"/>
 </g>
</svg>
