<?xml version="1.0" encoding="UTF-8"?>
<!DOCTYPE svg PUBLIC "-//W3C//DTD SVG 1.1//EN" "http://www.w3.org/Graphics/SVG/1.1/DTD/svg11.dtd">
<!-- Creator: CorelDRAW X8 -->
<svg xmlns="http://www.w3.org/2000/svg" xml:space="preserve" width="1127px" height="1412px" version="1.1" style="shape-rendering:geometricPrecision; text-rendering:geometricPrecision; image-rendering:optimizeQuality; fill-rule:evenodd; clip-rule:evenodd"
viewBox="0 0 1127 1412"
 xmlns:xlink="http://www.w3.org/1999/xlink">
 <defs>
  <style type="text/css">
   <![CDATA[
    .fil0 {fill:#00A0E3;fill-rule:nonzero}
   ]]>
  </style>
 </defs>
 <g id="Layer_x0020_1">
  <metadata id="CorelCorpID_0Corel-Layer"/>
  <path class="fil0" d="M64 208c-44,70 -63,156 -64,238 -1,89 17,183 72,253 59,75 143,104 235,103 79,0 158,-29 215,-86 48,-48 76,-113 76,-182 0,-80 -27,-154 -89,-206 -55,-47 -130,-66 -201,-64 -85,3 -149,40 -183,89 11,-93 52,-171 163,-227 88,-45 194,-56 292,-56 97,-1 219,12 305,64 63,38 108,111 108,187 0,49 -19,97 -57,129 -42,37 -100,49 -155,49 -19,0 -61,9 -61,35 0,26 42,35 61,35 52,0 97,9 141,39 55,37 85,94 82,161 -5,152 -141,190 -269,190l-458 0c-135,0 -278,74 -277,229 1,160 137,224 277,224l737 0c32,0 61,-26 61,-59 0,-33 -29,-59 -61,-59l-737 0c-77,0 -153,-45 -153,-132 0,-89 73,-133 153,-133l458 0c173,0 384,-49 392,-260 4,-120 -61,-184 -161,-234 86,-45 150,-110 149,-214 0,-98 -61,-187 -142,-235 -112,-68 -264,-87 -393,-86 -188,1 -407,34 -516,208zm240 131c114,0 170,98 170,195 0,98 -57,194 -170,194 -112,0 -169,-94 -170,-191 -1,-98 56,-198 170,-198z"/>
 </g>
</svg>
