<?xml version="1.0" encoding="UTF-8"?>
<!DOCTYPE svg PUBLIC "-//W3C//DTD SVG 1.1//EN" "http://www.w3.org/Graphics/SVG/1.1/DTD/svg11.dtd">
<!-- Creator: CorelDRAW X8 -->
<svg xmlns="http://www.w3.org/2000/svg" xml:space="preserve" width="2195px" height="1412px" version="1.1" style="shape-rendering:geometricPrecision; text-rendering:geometricPrecision; image-rendering:optimizeQuality; fill-rule:evenodd; clip-rule:evenodd"
viewBox="0 0 2195 1412"
 xmlns:xlink="http://www.w3.org/1999/xlink">
 <defs>
  <style type="text/css">
   <![CDATA[
    .fil0 {fill:#00A0E3;fill-rule:nonzero}
   ]]>
  </style>
 </defs>
 <g id="Layer_x0020_1">
  <metadata id="CorelCorpID_0Corel-Layer"/>
  <path class="fil0" d="M509 731c59,-50 91,-119 92,-197 0,-77 -30,-156 -89,-206 -56,-47 -134,-66 -206,-63 -68,2 -147,34 -179,94 1,-96 47,-178 120,-229 61,-44 137,-61 211,-62 212,-2 331,113 331,323 1,126 0,251 0,377 0,26 42,35 62,35 19,0 61,-9 61,-35l0 -408c0,-193 115,-287 231,-287 116,0 232,95 232,282l0 413c0,19 28,35 62,35 34,0 61,-16 61,-35l0 -413c0,-167 88,-287 262,-285 85,0 160,33 215,100 74,90 98,218 97,332 0,98 -19,212 -76,295 -97,141 -253,163 -412,163l-1306 0c-134,0 -278,73 -277,228 1,160 137,224 277,224l1780 0c32,0 61,-26 61,-59 0,-33 -29,-59 -61,-59l-1780 0c-78,0 -153,-46 -153,-132 0,-89 73,-132 153,-132l1306 0c190,0 410,-39 526,-208 63,-91 85,-211 85,-320 0,-126 -28,-263 -109,-361 -83,-100 -202,-140 -327,-141 -122,-1 -250,39 -324,142 -69,-96 -184,-143 -299,-142 -119,1 -227,52 -293,152 -105,-123 -225,-155 -384,-152 -115,2 -236,31 -325,109 -79,69 -119,163 -130,267 -10,90 -2,189 39,271 54,107 146,156 262,156 73,0 149,-25 204,-72zm-203 -391c110,0 172,90 172,194 0,104 -65,192 -172,195 -112,3 -168,-90 -168,-195 0,-103 60,-194 168,-194z"/>
 </g>
</svg>
