<?xml version="1.0" encoding="UTF-8"?>
<!DOCTYPE svg PUBLIC "-//W3C//DTD SVG 1.1//EN" "http://www.w3.org/Graphics/SVG/1.1/DTD/svg11.dtd">
<!-- Creator: CorelDRAW X8 -->
<svg xmlns="http://www.w3.org/2000/svg" xml:space="preserve" width="1003px" height="1024px" version="1.1" style="shape-rendering:geometricPrecision; text-rendering:geometricPrecision; image-rendering:optimizeQuality; fill-rule:evenodd; clip-rule:evenodd"
viewBox="0 0 1003 1024"
 xmlns:xlink="http://www.w3.org/1999/xlink">
 <defs>
  <style type="text/css">
   <![CDATA[
    .fil0 {fill:#B2B09C;fill-rule:nonzero}
   ]]>
  </style>
 </defs>
 <g id="Layer_x0020_1">
  <metadata id="CorelCorpID_0Corel-Layer"/>
  <path class="fil0" d="M86 23c-57,74 -87,168 -86,262 3,290 255,423 510,421 45,0 86,-5 131,-13 11,31 19,56 20,89 2,103 -66,170 -164,172 -77,2 -148,-42 -153,-126 -1,-26 -43,-34 -63,-34 -20,1 -60,10 -60,36 3,140 161,195 275,194 76,0 158,-23 215,-74 40,-36 62,-80 70,-127 9,-58 -4,-110 -29,-163 166,-71 258,-185 251,-375 -3,-70 -24,-138 -70,-191 -51,-60 -129,-92 -207,-94 -81,-2 -162,28 -215,92 -48,59 -67,138 -64,214 5,144 70,215 153,321 -30,5 -59,9 -90,9 -211,1 -385,-123 -387,-351 -1,-84 25,-168 76,-235 21,-29 -28,-48 -50,-49 -21,-1 -50,4 -63,22zm621 569c-35,-45 -74,-90 -100,-141 -22,-43 -36,-89 -37,-151 -2,-62 12,-130 52,-178 31,-38 68,-54 105,-51 34,2 68,21 96,54 38,44 55,103 57,161 6,148 -48,235 -173,306z"/>
 </g>
</svg>
