<?xml version="1.0" encoding="UTF-8"?>
<!DOCTYPE svg PUBLIC "-//W3C//DTD SVG 1.1//EN" "http://www.w3.org/Graphics/SVG/1.1/DTD/svg11.dtd">
<!-- Creator: CorelDRAW X8 -->
<svg xmlns="http://www.w3.org/2000/svg" xml:space="preserve" width="1512px" height="1012px" version="1.1" style="shape-rendering:geometricPrecision; text-rendering:geometricPrecision; image-rendering:optimizeQuality; fill-rule:evenodd; clip-rule:evenodd"
viewBox="0 0 1512 1012"
 xmlns:xlink="http://www.w3.org/1999/xlink">
 <defs>
  <style type="text/css">
   <![CDATA[
    .fil0 {fill:black;fill-rule:nonzero}
   ]]>
  </style>
 </defs>
 <g id="Layer_x0020_1">
  <metadata id="CorelCorpID_0Corel-Layer"/>
  <path class="fil0" d="M917 909l432 0 0 -863c0,-25 36,-46 81,-46 46,0 82,21 82,46l0 909c0,25 -36,45 -82,45l-686 0c-22,0 -44,-4 -62,-15 -30,-19 -27,-47 7,-64 166,-81 242,-242 239,-410 -4,-215 -138,-421 -382,-421 -247,1 -382,204 -382,421 -1,165 76,343 239,422 34,17 37,45 7,64 -35,22 -85,19 -121,0 -180,-90 -291,-287 -289,-486 3,-299 246,-511 546,-511 298,0 540,216 546,511 4,155 -61,298 -175,398z"/>
 </g>
</svg>
