<?xml version="1.0" encoding="UTF-8"?>
<!DOCTYPE svg PUBLIC "-//W3C//DTD SVG 1.1//EN" "http://www.w3.org/Graphics/SVG/1.1/DTD/svg11.dtd">
<!-- Creator: CorelDRAW X8 -->
<svg xmlns="http://www.w3.org/2000/svg" xml:space="preserve" width="912px" height="593px" version="1.1" style="shape-rendering:geometricPrecision; text-rendering:geometricPrecision; image-rendering:optimizeQuality; fill-rule:evenodd; clip-rule:evenodd"
viewBox="0 0 912 593"
 xmlns:xlink="http://www.w3.org/1999/xlink">
 <defs>
  <style type="text/css">
   <![CDATA[
    .fil0 {fill:#00A0E3;fill-rule:nonzero}
   ]]>
  </style>
 </defs>
 <g id="Layer_x0020_1">
  <metadata id="CorelCorpID_0Corel-Layer"/>
  <path class="fil0" d="M553 533c69,-59 108,-143 106,-234 -4,-172 -150,-299 -330,-299 -181,0 -327,124 -329,299 -1,117 66,232 174,285 22,11 52,13 74,0 19,-12 14,-28 -5,-37 -98,-47 -145,-151 -144,-248 0,-127 81,-246 230,-246 148,0 228,120 231,246 2,99 -44,193 -144,241 -12,5 -17,12 -17,20 0,20 34,26 50,26l414 0c16,0 49,-7 49,-27l0 -532c0,-15 -22,-27 -49,-27 -27,0 -49,12 -49,27l0 506 -261 0z"/>
 </g>
</svg>
