<?xml version="1.0" encoding="UTF-8"?>
<!DOCTYPE svg PUBLIC "-//W3C//DTD SVG 1.1//EN" "http://www.w3.org/Graphics/SVG/1.1/DTD/svg11.dtd">
<!-- Creator: CorelDRAW X8 -->
<svg xmlns="http://www.w3.org/2000/svg" xml:space="preserve" width="912px" height="593px" version="1.1" style="shape-rendering:geometricPrecision; text-rendering:geometricPrecision; image-rendering:optimizeQuality; fill-rule:evenodd; clip-rule:evenodd"
viewBox="0 0 912 593"
 xmlns:xlink="http://www.w3.org/1999/xlink">
 <defs>
  <style type="text/css">
   <![CDATA[
    .fil0 {fill:#2B2A29;fill-rule:nonzero}
   ]]>
  </style>
 </defs>
 <g id="Layer_x0020_1">
  <metadata id="CorelCorpID_0Corel-Layer"/>
  <path class="fil0" d="M212 593c13,0 26,-3 36,-9 8,-5 12,-11 12,-17 0,-8 -7,-16 -17,-20 -98,-46 -144,-148 -144,-245 0,-133 85,-249 230,-249 146,-1 231,117 231,249 0,96 -46,191 -144,238 -8,3 -17,10 -17,19 0,21 34,27 50,27l414 0c15,0 49,-7 49,-27l0 -532c0,-15 -22,-27 -49,-27 -28,0 -49,12 -49,27l0 506 -261 0c67,-58 106,-142 106,-231 0,-178 -151,-302 -330,-302 -178,0 -329,123 -329,302 0,116 67,230 174,282 12,6 25,9 38,9z"/>
 </g>
</svg>
