<?xml version="1.0" encoding="UTF-8"?>
<!DOCTYPE svg PUBLIC "-//W3C//DTD SVG 1.1//EN" "http://www.w3.org/Graphics/SVG/1.1/DTD/svg11.dtd">
<!-- Creator: CorelDRAW X8 -->
<svg xmlns="http://www.w3.org/2000/svg" xml:space="preserve" width="1678px" height="1024px" version="1.1" style="shape-rendering:geometricPrecision; text-rendering:geometricPrecision; image-rendering:optimizeQuality; fill-rule:evenodd; clip-rule:evenodd"
viewBox="0 0 1678 1024"
 xmlns:xlink="http://www.w3.org/1999/xlink">
 <defs>
  <style type="text/css">
   <![CDATA[
    .fil0 {fill:#2B2A29;fill-rule:nonzero}
   ]]>
  </style>
 </defs>
 <g id="Layer_x0020_1">
  <metadata id="CorelCorpID_0Corel-Layer"/>
  <path class="fil0" d="M429 1024c327,0 343,-216 343,-480 0,-103 -1,-210 47,-304 59,-116 177,-171 302,-170 122,0 199,38 289,120 -137,17 -252,62 -338,178 -58,79 -89,180 -89,279 0,81 20,163 64,231 63,97 167,145 279,145 118,0 219,-56 280,-159 51,-86 72,-191 72,-290 0,-95 -17,-190 -59,-275 -98,-197 -286,-299 -498,-299 -154,0 -316,56 -403,191 -69,107 -68,231 -68,353 0,169 14,410 -221,410 -214,0 -307,-257 -307,-435 0,-184 90,-388 267,-454 15,-6 28,-17 28,-30 0,-6 -3,-13 -10,-19 -14,-12 -32,-16 -50,-16 -14,0 -29,3 -42,8 -206,81 -315,299 -315,517 0,257 151,499 429,499zm897 -72c-71,0 -126,-41 -164,-99 -39,-60 -56,-134 -56,-206 0,-90 26,-180 79,-252 71,-96 166,-136 282,-136 63,96 88,197 88,311 0,94 -16,190 -65,271 -37,62 -89,111 -164,111z"/>
 </g>
</svg>
