<?xml version="1.0" encoding="UTF-8"?>
<!DOCTYPE svg PUBLIC "-//W3C//DTD SVG 1.1//EN" "http://www.w3.org/Graphics/SVG/1.1/DTD/svg11.dtd">
<!-- Creator: CorelDRAW X8 -->
<svg xmlns="http://www.w3.org/2000/svg" xml:space="preserve" width="1678px" height="1024px" version="1.1" style="shape-rendering:geometricPrecision; text-rendering:geometricPrecision; image-rendering:optimizeQuality; fill-rule:evenodd; clip-rule:evenodd"
viewBox="0 0 1678 1024"
 xmlns:xlink="http://www.w3.org/1999/xlink">
 <defs>
  <style type="text/css">
   <![CDATA[
    .fil0 {fill:#B2B09C;fill-rule:nonzero}
   ]]>
  </style>
 </defs>
 <g id="Layer_x0020_1">
  <metadata id="CorelCorpID_0Corel-Layer"/>
  <path class="fil0" d="M1467 259c65,100 90,205 88,324 -1,88 -20,182 -65,258 -37,63 -90,112 -166,111 -70,-1 -124,-41 -162,-99 -39,-60 -56,-134 -56,-206 0,-90 25,-180 79,-252 70,-96 166,-136 282,-136zm-349 -189c122,1 202,38 292,120 -137,17 -252,62 -338,178 -58,79 -89,180 -89,279 0,81 20,163 64,231 63,97 166,144 278,145 119,1 219,-55 281,-159 49,-83 71,-185 72,-281 1,-98 -15,-196 -59,-284 -97,-198 -288,-300 -501,-299 -152,1 -313,56 -400,191 -67,104 -69,228 -68,349 1,175 14,416 -224,414 -195,-2 -295,-238 -303,-409 -9,-190 80,-411 266,-480 22,-9 40,-29 18,-49 -25,-21 -64,-19 -92,-8 -212,83 -322,313 -315,537 9,252 165,476 427,479 328,3 347,-207 345,-484 -1,-100 0,-209 47,-300 59,-116 174,-170 299,-170z"/>
 </g>
</svg>
