<?xml version="1.0" encoding="UTF-8"?>
<!DOCTYPE svg PUBLIC "-//W3C//DTD SVG 1.1//EN" "http://www.w3.org/Graphics/SVG/1.1/DTD/svg11.dtd">
<!-- Creator: CorelDRAW X8 -->
<svg xmlns="http://www.w3.org/2000/svg" xml:space="preserve" width="1036px" height="600px" version="1.1" style="shape-rendering:geometricPrecision; text-rendering:geometricPrecision; image-rendering:optimizeQuality; fill-rule:evenodd; clip-rule:evenodd"
viewBox="0 0 1036 600"
 xmlns:xlink="http://www.w3.org/1999/xlink">
 <defs>
  <style type="text/css">
   <![CDATA[
    .fil0 {fill:#CC9933;fill-rule:nonzero}
   ]]>
  </style>
 </defs>
 <g id="Layer_x0020_1">
  <metadata id="CorelCorpID_0Corel-Layer"/>
  <path class="fil0" d="M888 162c-60,0 -114,27 -150,74 -32,40 -47,91 -47,142 0,43 11,84 33,116 20,29 49,52 87,52 34,0 64,-20 88,-59 26,-42 38,-95 39,-146 1,-64 -13,-126 -50,-179zm-202 -108c-75,-1 -137,33 -169,92 -28,52 -28,114 -27,170 1,163 -13,286 -221,284 -165,-1 -264,-132 -269,-281 -4,-132 65,-264 195,-313 10,-3 21,-6 33,-6 14,0 29,4 39,12 15,13 9,29 -14,37 -109,39 -160,165 -155,270 5,92 62,227 171,228 133,1 123,-138 123,-231 -1,-70 1,-141 42,-202 53,-78 152,-113 252,-114 133,0 253,58 314,176 26,50 37,105 36,165 -1,57 -15,116 -44,163 -42,67 -109,96 -181,96 -71,-1 -138,-29 -179,-88 -26,-38 -39,-85 -39,-134 0,-58 19,-117 54,-163 48,-61 119,-95 196,-104 -46,-40 -96,-57 -157,-57z"/>
 </g>
</svg>
