<?xml version="1.0" encoding="UTF-8"?>
<!DOCTYPE svg PUBLIC "-//W3C//DTD SVG 1.1//EN" "http://www.w3.org/Graphics/SVG/1.1/DTD/svg11.dtd">
<!-- Creator: CorelDRAW X8 -->
<svg xmlns="http://www.w3.org/2000/svg" xml:space="preserve" width="1036px" height="600px" version="1.1" style="shape-rendering:geometricPrecision; text-rendering:geometricPrecision; image-rendering:optimizeQuality; fill-rule:evenodd; clip-rule:evenodd"
viewBox="0 0 1036 600"
 xmlns:xlink="http://www.w3.org/1999/xlink">
 <defs>
  <style type="text/css">
   <![CDATA[
    .fil0 {fill:#00A0E3;fill-rule:nonzero}
   ]]>
  </style>
 </defs>
 <g id="Layer_x0020_1">
  <metadata id="CorelCorpID_0Corel-Layer"/>
  <path class="fil0" d="M888 162c37,53 51,115 50,179 -1,51 -13,104 -39,146 -24,39 -54,59 -88,59 -38,-1 -67,-23 -87,-53 -22,-31 -33,-72 -33,-116 0,-50 15,-101 47,-142 36,-46 90,-73 150,-73zm-202 -109c61,0 111,18 157,58 -77,9 -148,43 -196,104 -35,46 -54,105 -54,162 0,49 13,97 39,135 41,59 108,87 179,87 72,1 139,-28 181,-95 29,-47 43,-106 44,-163 1,-60 -10,-115 -36,-165 -61,-118 -181,-177 -314,-176 -100,0 -199,36 -252,114 -41,61 -43,132 -42,202 0,93 10,232 -123,231 -109,-1 -166,-137 -171,-228 -5,-105 46,-232 155,-270 23,-8 29,-25 14,-37 -19,-16 -50,-14 -72,-6 -130,48 -199,181 -195,313 5,149 104,279 269,281 208,2 222,-121 221,-284 -1,-56 -1,-119 27,-170 32,-59 94,-93 169,-93z"/>
 </g>
</svg>
