<?xml version="1.0" encoding="UTF-8"?>
<!DOCTYPE svg PUBLIC "-//W3C//DTD SVG 1.1//EN" "http://www.w3.org/Graphics/SVG/1.1/DTD/svg11.dtd">
<!-- Creator: CorelDRAW X8 -->
<svg xmlns="http://www.w3.org/2000/svg" xml:space="preserve" width="1036px" height="600px" version="1.1" style="shape-rendering:geometricPrecision; text-rendering:geometricPrecision; image-rendering:optimizeQuality; fill-rule:evenodd; clip-rule:evenodd"
viewBox="0 0 1036 600"
 xmlns:xlink="http://www.w3.org/1999/xlink">
 <defs>
  <style type="text/css">
   <![CDATA[
    .fil0 {fill:#2B2A29;fill-rule:nonzero}
   ]]>
  </style>
 </defs>
 <g id="Layer_x0020_1">
  <metadata id="CorelCorpID_0Corel-Layer"/>
  <path class="fil0" d="M271 600c205,0 219,-117 219,-281 0,-57 -1,-121 27,-173 32,-59 96,-93 171,-93 60,0 109,18 155,58 -77,9 -148,43 -195,104 -36,46 -55,105 -55,162 0,50 13,97 39,135 41,59 109,87 179,87 71,0 140,-29 181,-95 31,-50 44,-113 44,-171 0,-58 -11,-109 -36,-157 -60,-117 -180,-176 -312,-176 -96,0 -199,32 -254,114 -42,62 -42,134 -42,205 0,91 8,228 -121,228 -120,0 -173,-147 -173,-244 0,-101 51,-218 155,-254 12,-5 23,-13 23,-23 0,-4 -3,-10 -9,-14 -10,-8 -25,-12 -38,-12 -12,0 -24,2 -34,6 -126,47 -195,172 -195,300 0,158 98,294 271,294zm540 -54c-37,0 -67,-23 -87,-53 -21,-31 -33,-72 -33,-116 0,-50 15,-101 47,-142 36,-46 90,-73 150,-73 36,50 50,110 50,171 0,53 -10,107 -39,154 -25,39 -54,59 -88,59z"/>
 </g>
</svg>
