<?xml version="1.0" encoding="UTF-8"?>
<!DOCTYPE svg PUBLIC "-//W3C//DTD SVG 1.1//EN" "http://www.w3.org/Graphics/SVG/1.1/DTD/svg11.dtd">
<!-- Creator: CorelDRAW X8 -->
<svg xmlns="http://www.w3.org/2000/svg" xml:space="preserve" width="2350px" height="1486px" version="1.1" style="shape-rendering:geometricPrecision; text-rendering:geometricPrecision; image-rendering:optimizeQuality; fill-rule:evenodd; clip-rule:evenodd"
viewBox="0 0 2350 1486"
 xmlns:xlink="http://www.w3.org/1999/xlink">
 <defs>
  <style type="text/css">
   <![CDATA[
    .fil0 {fill:#2B2A29;fill-rule:nonzero}
   ]]>
  </style>
 </defs>
 <g id="Layer_x0020_1">
  <metadata id="CorelCorpID_0Corel-Layer"/>
  <path class="fil0" d="M802 1024c327,0 343,-216 343,-480 0,-103 -1,-211 47,-304 59,-116 177,-171 302,-170 122,0 199,38 289,120 -137,17 -252,62 -338,178 -58,79 -89,180 -89,279 0,81 20,163 64,231 63,97 167,145 279,145 118,0 219,-56 280,-159 51,-86 72,-191 72,-290 0,-100 -18,-197 -65,-286 172,65 244,254 244,422 0,149 -41,285 -136,401 -190,230 -577,306 -861,306 -270,0 -568,-50 -792,-213 -229,-166 -318,-399 -318,-673 0,-184 59,-370 220,-473 10,-7 15,-15 15,-23 0,-9 -8,-19 -21,-26 -11,-6 -26,-9 -40,-9 -17,0 -34,4 -46,12 -178,114 -251,314 -251,519 0,314 112,561 382,739 244,161 563,216 851,216 302,0 691,-84 914,-301 135,-131 203,-285 203,-475 0,-251 -174,-478 -426,-517 -105,-127 -260,-193 -430,-193 -154,0 -316,56 -403,191 -69,107 -68,231 -68,353 0,169 14,410 -221,410 -214,0 -307,-257 -307,-435 0,-184 90,-388 267,-454 15,-6 28,-17 28,-30 0,-6 -3,-13 -10,-19 -14,-12 -32,-16 -50,-16 -14,0 -29,3 -42,8 -206,81 -315,299 -315,517 0,257 151,499 429,499zm897 -72c-71,0 -126,-41 -164,-99 -39,-60 -56,-134 -56,-206 0,-90 26,-180 79,-252 71,-96 166,-136 282,-136 63,96 88,197 88,311 0,93 -16,190 -65,271 -37,62 -89,111 -164,111z"/>
 </g>
</svg>
