<?xml version="1.0" encoding="UTF-8"?>
<!DOCTYPE svg PUBLIC "-//W3C//DTD SVG 1.1//EN" "http://www.w3.org/Graphics/SVG/1.1/DTD/svg11.dtd">
<!-- Creator: CorelDRAW X8 -->
<svg xmlns="http://www.w3.org/2000/svg" xml:space="preserve" width="3617px" height="1486px" version="1.1" style="shape-rendering:geometricPrecision; text-rendering:geometricPrecision; image-rendering:optimizeQuality; fill-rule:evenodd; clip-rule:evenodd"
viewBox="0 0 3617 1486"
 xmlns:xlink="http://www.w3.org/1999/xlink">
 <defs>
  <style type="text/css">
   <![CDATA[
    .fil0 {fill:#B2B09C;fill-rule:nonzero}
   ]]>
  </style>
 </defs>
 <g id="Layer_x0020_1">
  <metadata id="CorelCorpID_0Corel-Layer"/>
  <path class="fil0" d="M2928 1221c53,0 109,4 160,20 35,10 96,36 96,80 1,46 -62,72 -98,83 -50,15 -105,19 -158,19 -59,0 -132,-6 -188,-28 -30,-12 -74,-36 -73,-74 0,-37 44,-61 74,-72 56,-22 128,-28 187,-28zm-1617 -1182c-67,-27 -131,-40 -203,-39 -149,3 -304,59 -389,191 -68,104 -70,228 -69,349 1,175 14,416 -224,414 -195,-2 -295,-238 -303,-409 -9,-190 80,-411 266,-481 22,-8 40,-29 18,-48 -24,-21 -64,-19 -92,-8 -212,83 -322,313 -315,537 9,252 165,476 427,479 328,3 347,-207 345,-484 0,-100 0,-209 47,-300 58,-113 165,-166 287,-170 44,-1 76,3 117,19 -112,90 -184,215 -184,363 -1,166 105,286 269,286 166,1 274,-119 273,-286 0,-148 -71,-272 -183,-362 30,-13 64,-19 99,-19 85,-1 163,31 224,91 87,85 131,212 128,334 -5,231 -163,433 -398,433l-350 0c-19,0 -61,9 -61,35 0,27 42,35 61,35l1312 0c19,0 62,-9 61,-35 0,-8 -5,-16 -14,-22 -128,-87 -197,-236 -197,-391 0,-97 24,-194 75,-276 84,-135 223,-204 379,-206 127,-1 212,35 305,120 -137,17 -252,61 -338,177 -59,78 -90,179 -90,277 0,80 20,169 64,236 63,97 166,143 278,144 119,2 220,-54 282,-157 49,-83 70,-191 72,-287 1,-111 -19,-183 -58,-286 197,111 280,336 269,561 -8,163 -66,363 -203,465 -1,-4 -1,-8 -2,-13 -19,-74 -121,-113 -186,-129 -60,-14 -121,-19 -182,-19 -65,0 -135,6 -199,22 -64,17 -171,61 -171,141 0,80 103,124 166,141 64,18 138,25 204,24 60,-1 120,-7 180,-19 79,-16 162,-44 231,-88 174,-112 266,-313 277,-519 16,-294 -135,-598 -450,-665 -115,-141 -272,-196 -449,-195 -185,1 -369,73 -480,229 -68,95 -98,207 -97,324 1,149 56,270 155,376l-572 0c158,-103 245,-238 249,-432 3,-164 -67,-321 -202,-414 -80,-56 -175,-83 -272,-82 -67,1 -125,14 -187,38zm1767 219c66,99 90,203 89,321 -1,88 -20,188 -66,264 -37,63 -89,111 -165,110 -70,0 -125,-40 -163,-98 -39,-59 -56,-141 -56,-212 0,-90 26,-178 80,-250 70,-96 166,-135 281,-135zm-1768 -118c92,82 148,185 148,312 1,92 -41,214 -148,214 -108,0 -149,-121 -148,-214 0,-127 56,-230 148,-312z"/>
 </g>
</svg>
