<?xml version="1.0" encoding="UTF-8"?>
<!DOCTYPE svg PUBLIC "-//W3C//DTD SVG 1.1//EN" "http://www.w3.org/Graphics/SVG/1.1/DTD/svg11.dtd">
<!-- Creator: CorelDRAW X8 -->
<svg xmlns="http://www.w3.org/2000/svg" xml:space="preserve" width="1443px" height="868px" version="1.1" style="shape-rendering:geometricPrecision; text-rendering:geometricPrecision; image-rendering:optimizeQuality; fill-rule:evenodd; clip-rule:evenodd"
viewBox="0 0 1443 868"
 xmlns:xlink="http://www.w3.org/1999/xlink">
 <defs>
  <style type="text/css">
   <![CDATA[
    .fil0 {fill:#CC9933;fill-rule:nonzero}
   ]]>
  </style>
 </defs>
 <g id="Layer_x0020_1">
  <metadata id="CorelCorpID_0Corel-Layer"/>
  <path class="fil0" d="M912 53c-75,0 -136,33 -169,93 -27,51 -28,113 -27,169 1,162 -13,287 -221,285 -166,-2 -264,-133 -269,-282 -5,-132 64,-264 195,-312 9,-4 21,-6 32,-6 15,0 30,3 40,12 6,5 8,10 8,15 0,9 -8,17 -22,22 -109,38 -160,164 -155,269 4,91 61,228 171,229 132,1 123,-139 123,-232 -1,-70 1,-141 42,-202 53,-77 152,-113 252,-113 104,0 207,36 274,115 176,34 257,157 257,293 0,120 -49,214 -124,284 -133,123 -370,175 -553,176 -191,1 -387,-35 -532,-127 -134,-84 -226,-216 -234,-410 -5,-128 40,-252 154,-322 11,-6 26,-9 41,-9 10,0 20,3 29,7 10,5 16,12 16,20 0,6 -4,12 -12,17 -97,60 -134,172 -129,287 6,170 79,287 189,364 125,87 297,120 476,120 177,-1 394,-48 501,-172 51,-59 82,-134 82,-229 0,-85 -32,-161 -108,-213 17,43 25,89 24,139 -1,57 -15,117 -44,164 -42,67 -110,96 -182,95 -71,0 -138,-28 -179,-87 -26,-38 -39,-87 -39,-135 0,-58 19,-117 55,-163 47,-60 119,-94 196,-103 -46,-40 -97,-58 -158,-58zm203 108c-60,0 -115,27 -151,74 -31,40 -47,91 -47,142 0,43 11,85 33,117 20,29 50,52 87,52 34,0 64,-20 89,-59 26,-42 38,-96 39,-147 1,-64 -13,-126 -50,-179z"/>
 </g>
</svg>
