<?xml version="1.0" encoding="UTF-8"?>
<!DOCTYPE svg PUBLIC "-//W3C//DTD SVG 1.1//EN" "http://www.w3.org/Graphics/SVG/1.1/DTD/svg11.dtd">
<!-- Creator: CorelDRAW X8 -->
<svg xmlns="http://www.w3.org/2000/svg" xml:space="preserve" width="1285px" height="868px" version="1.1" style="shape-rendering:geometricPrecision; text-rendering:geometricPrecision; image-rendering:optimizeQuality; fill-rule:evenodd; clip-rule:evenodd"
viewBox="0 0 1285 868"
 xmlns:xlink="http://www.w3.org/1999/xlink">
 <defs>
  <style type="text/css">
   <![CDATA[
    .fil0 {fill:#2B2A29;fill-rule:nonzero}
   ]]>
  </style>
 </defs>
 <g id="Layer_x0020_1">
  <metadata id="CorelCorpID_0Corel-Layer"/>
  <path class="fil0" d="M834 110c-74,11 -146,45 -192,105 -36,46 -54,104 -54,162 0,49 13,96 39,134 41,60 103,87 175,87 74,0 142,-30 182,-95 29,-48 43,-110 43,-168 0,-59 -13,-125 -50,-184 25,1 49,5 73,10 62,14 107,60 107,123 0,20 -2,40 -12,58 -10,15 -20,25 -36,30 -16,4 -47,6 -47,27 0,13 18,26 49,26 17,0 29,4 43,14 23,19 34,52 34,81 0,30 -11,56 -29,77 -25,28 -57,39 -93,39l-889 0c-81,0 -177,19 -177,116 0,96 96,116 177,116l1031 0c27,0 48,-18 48,-40 0,-23 -21,-41 -48,-41l-1031 0c-39,0 -78,-4 -78,-50 0,-33 26,-48 78,-48l889 0c48,0 92,-8 134,-31 53,-29 85,-78 85,-139 0,-55 -29,-103 -79,-128 33,-27 49,-65 49,-107 0,-92 -79,-151 -167,-171 -40,-10 -79,-15 -119,-15 -11,0 -22,1 -34,1 -68,-69 -158,-99 -253,-99 -95,0 -197,32 -252,113 -41,62 -41,134 -41,205 0,91 8,227 -121,227 -118,0 -171,-146 -171,-243 0,-100 51,-217 153,-254 12,-4 23,-12 23,-22 0,-4 -2,-10 -8,-14 -10,-8 -25,-12 -38,-12 -12,0 -24,2 -33,6 -126,47 -194,171 -194,299 0,157 98,293 268,293 204,0 217,-117 217,-280 0,-57 0,-121 28,-173 32,-59 94,-92 169,-92 57,0 108,19 152,57zm-32 435c-30,0 -60,-17 -84,-52 -22,-32 -33,-73 -33,-116 0,-51 15,-101 47,-142 35,-46 88,-71 147,-76 39,56 51,119 51,176 0,53 -13,109 -39,151 -24,39 -56,59 -89,59z"/>
 </g>
</svg>
