<?xml version="1.0" encoding="UTF-8"?>
<!DOCTYPE svg PUBLIC "-//W3C//DTD SVG 1.1//EN" "http://www.w3.org/Graphics/SVG/1.1/DTD/svg11.dtd">
<!-- Creator: CorelDRAW X8 -->
<svg xmlns="http://www.w3.org/2000/svg" xml:space="preserve" width="1232px" height="868px" version="1.1" style="shape-rendering:geometricPrecision; text-rendering:geometricPrecision; image-rendering:optimizeQuality; fill-rule:evenodd; clip-rule:evenodd"
viewBox="0 0 1232 868"
 xmlns:xlink="http://www.w3.org/1999/xlink">
 <defs>
  <style type="text/css">
   <![CDATA[
    .fil0 {fill:#B2B09C;fill-rule:nonzero}
   ]]>
  </style>
 </defs>
 <g id="Layer_x0020_1">
  <metadata id="CorelCorpID_0Corel-Layer"/>
  <path class="fil0" d="M805 715c-46,0 -82,6 -106,15 -26,10 -39,23 -39,37 -1,13 12,27 39,37 24,9 60,15 106,15 38,0 67,-4 90,-11 35,-10 53,-26 53,-41 -1,-16 -18,-31 -52,-41 -23,-6 -52,-11 -91,-11zm-120 -662c-75,0 -136,33 -168,93 -28,51 -28,113 -28,169 1,162 -13,287 -221,285 -165,-1 -263,-133 -268,-282 -4,-132 65,-264 195,-312 22,-8 53,-10 72,6 18,15 3,31 -14,37 -109,38 -160,164 -155,269 5,91 61,228 170,229 133,1 124,-139 123,-232 0,-70 1,-141 43,-202 52,-77 151,-112 251,-113 103,0 206,36 274,115 192,38 284,206 272,388 -8,122 -67,238 -170,302 -42,26 -95,42 -144,52 -35,7 -73,11 -112,11 -40,1 -89,-4 -128,-14 -71,-19 -107,-53 -107,-87 0,-35 37,-69 110,-87 34,-9 76,-14 125,-14 45,0 82,5 114,12 43,9 108,34 117,78 64,-59 98,-156 101,-253 3,-120 -39,-243 -126,-302 17,43 25,89 24,139 -1,57 -15,117 -45,164 -41,67 -109,96 -181,95 -71,0 -138,-28 -178,-87 -26,-37 -39,-87 -39,-135 0,-58 19,-117 55,-163 47,-60 119,-94 195,-103 -46,-40 -96,-58 -157,-58zm202 108c-60,0 -114,27 -150,74 -32,41 -47,91 -47,142 0,43 11,85 32,117 20,29 50,52 87,52 34,0 64,-20 88,-59 27,-42 39,-96 40,-147 1,-63 -13,-126 -50,-179z"/>
 </g>
</svg>
