<?xml version="1.0" encoding="UTF-8"?>
<!DOCTYPE svg PUBLIC "-//W3C//DTD SVG 1.1//EN" "http://www.w3.org/Graphics/SVG/1.1/DTD/svg11.dtd">
<!-- Creator: CorelDRAW X8 -->
<svg xmlns="http://www.w3.org/2000/svg" xml:space="preserve" width="1285px" height="868px" version="1.1" style="shape-rendering:geometricPrecision; text-rendering:geometricPrecision; image-rendering:optimizeQuality; fill-rule:evenodd; clip-rule:evenodd"
viewBox="0 0 1285 868"
 xmlns:xlink="http://www.w3.org/1999/xlink">
 <defs>
  <style type="text/css">
   <![CDATA[
    .fil0 {fill:#00A0E3;fill-rule:nonzero}
   ]]>
  </style>
 </defs>
 <g id="Layer_x0020_1">
  <metadata id="CorelCorpID_0Corel-Layer"/>
  <path class="fil0" d="M884 157c-57,8 -111,32 -147,78 -31,41 -46,91 -46,142 0,43 11,85 33,117 20,29 49,52 86,52 34,0 64,-20 89,-59 26,-42 38,-96 38,-147 1,-70 -15,-138 -53,-183zm65 -53c89,-4 202,14 271,74 44,39 67,98 64,154 -2,48 -24,93 -67,122 39,20 68,56 68,101 0,29 -12,63 -38,87 -42,38 -102,45 -158,45l-910 0c-54,0 -81,16 -80,51 1,36 28,49 80,49l1037 0c27,0 49,18 49,41 0,22 -22,40 -49,40l-1037 0c-83,0 -181,-21 -179,-120 2,-72 57,-114 179,-114l910 0c26,0 55,-2 75,-20 16,-14 24,-37 23,-59 -1,-22 -10,-44 -27,-58 -20,-15 -40,-11 -64,-13 -32,-3 -47,-15 -46,-28 0,-12 16,-24 46,-25 24,0 43,-7 57,-19 24,-19 34,-51 35,-84 6,-110 -98,-169 -200,-173 35,58 48,117 47,185 -1,57 -14,117 -44,164 -41,67 -109,96 -181,95 -71,0 -138,-28 -178,-87 -26,-38 -40,-87 -40,-135 0,-58 19,-117 55,-163 47,-60 119,-94 196,-103 -47,-40 -97,-58 -157,-58 -76,0 -137,33 -169,93 -28,51 -28,113 -28,169 2,162 -12,287 -220,285 -165,-2 -264,-133 -269,-282 -4,-132 65,-264 195,-312 22,-8 53,-10 72,6 18,15 3,31 -14,37 -109,38 -160,164 -155,269 5,91 62,228 171,229 133,1 123,-139 123,-232 -1,-70 0,-141 42,-202 52,-77 151,-112 252,-113 102,0 197,34 263,104z"/>
 </g>
</svg>
