<?xml version="1.0" encoding="UTF-8"?>
<!DOCTYPE svg PUBLIC "-//W3C//DTD SVG 1.1//EN" "http://www.w3.org/Graphics/SVG/1.1/DTD/svg11.dtd">
<!-- Creator: CorelDRAW X8 -->
<svg xmlns="http://www.w3.org/2000/svg" xml:space="preserve" width="2404px" height="1024px" version="1.1" style="shape-rendering:geometricPrecision; text-rendering:geometricPrecision; image-rendering:optimizeQuality; fill-rule:evenodd; clip-rule:evenodd"
viewBox="0 0 2404 1024"
 xmlns:xlink="http://www.w3.org/1999/xlink">
 <defs>
  <style type="text/css">
   <![CDATA[
    .fil0 {fill:#2B2A29;fill-rule:nonzero}
   ]]>
  </style>
 </defs>
 <g id="Layer_x0020_1">
  <metadata id="CorelCorpID_0Corel-Layer"/>
  <path class="fil0" d="M1118 70c38,0 68,5 105,19 -113,91 -184,219 -184,366 0,163 104,283 271,283 164,0 271,-118 271,-283 0,-148 -69,-273 -183,-365 33,-14 68,-19 103,-19 83,0 160,32 221,91 84,81 127,207 127,325 0,230 -153,442 -398,442l-350 0c-19,0 -61,9 -61,35 0,26 42,35 61,35l1241 0c20,0 62,-9 62,-35l0 -929c0,-26 -42,-35 -62,-35 -19,0 -61,9 -61,35l0 894 -558 0c163,-106 249,-246 249,-442 0,-160 -70,-313 -202,-404 -79,-54 -172,-82 -267,-82 -67,0 -130,14 -192,38 -65,-25 -127,-39 -196,-39 -151,0 -312,59 -397,191 -69,107 -68,231 -68,353 0,169 14,410 -221,410 -214,0 -307,-257 -307,-435 0,-184 90,-388 267,-454 15,-6 28,-17 28,-30 0,-6 -3,-13 -10,-19 -14,-12 -32,-16 -50,-16 -14,0 -29,3 -42,8 -206,81 -315,299 -315,517 0,257 151,499 429,499 326,0 343,-216 343,-480 0,-103 -1,-210 47,-304 59,-115 175,-170 299,-170zm192 596c-106,0 -148,-118 -148,-211 0,-127 54,-232 148,-315 95,84 148,187 148,315 0,92 -42,211 -148,211z"/>
 </g>
</svg>
