<?xml version="1.0" encoding="UTF-8"?>
<!DOCTYPE svg PUBLIC "-//W3C//DTD SVG 1.1//EN" "http://www.w3.org/Graphics/SVG/1.1/DTD/svg11.dtd">
<!-- Creator: CorelDRAW X8 -->
<svg xmlns="http://www.w3.org/2000/svg" xml:space="preserve" width="2006px" height="1486px" version="1.1" style="shape-rendering:geometricPrecision; text-rendering:geometricPrecision; image-rendering:optimizeQuality; fill-rule:evenodd; clip-rule:evenodd"
viewBox="0 0 2006 1486"
 xmlns:xlink="http://www.w3.org/1999/xlink">
 <defs>
  <style type="text/css">
   <![CDATA[
    .fil0 {fill:#2B2A29;fill-rule:nonzero}
   ]]>
  </style>
 </defs>
 <g id="Layer_x0020_1">
  <metadata id="CorelCorpID_0Corel-Layer"/>
  <path class="fil0" d="M1327 953c-72,0 -126,-39 -165,-98 -39,-59 -56,-141 -56,-212 0,-89 26,-178 79,-250 71,-96 167,-135 282,-135 65,97 89,199 89,314 0,90 -19,193 -66,271 -37,62 -88,110 -163,110zm-898 71c327,0 343,-216 343,-480 0,-103 -1,-211 47,-304 59,-116 177,-171 302,-170 117,0 199,37 290,119 -137,17 -252,61 -339,177 -58,78 -89,179 -89,277 0,80 20,170 64,237 63,96 168,144 280,144 118,0 219,-56 280,-158 50,-84 72,-198 72,-295 0,-106 -20,-177 -58,-278 186,105 270,300 270,512 1,183 -49,399 -204,515 -9,-82 -119,-126 -188,-143 -60,-14 -121,-18 -182,-18 -65,0 -136,6 -199,22 -65,17 -171,60 -171,141 0,79 103,123 166,140 60,17 141,24 204,24 67,0 138,-7 207,-23 73,-18 144,-44 204,-83 200,-128 278,-348 278,-575 0,-281 -151,-546 -451,-610 -109,-135 -266,-195 -434,-195 -154,0 -316,56 -403,191 -69,107 -68,231 -68,353 0,169 14,410 -221,410 -214,0 -307,-257 -307,-435 0,-184 90,-388 267,-454 15,-6 28,-17 28,-30 0,-6 -3,-13 -10,-19 -14,-12 -32,-16 -50,-16 -14,0 -29,3 -42,8 -206,81 -315,299 -315,517 0,257 151,499 429,499zm888 400c-179,0 -262,-51 -262,-103 0,-51 93,-100 262,-100 168,0 256,53 256,100 0,50 -79,103 -256,103z"/>
 </g>
</svg>
