<?xml version="1.0" encoding="UTF-8"?>
<!DOCTYPE svg PUBLIC "-//W3C//DTD SVG 1.1//EN" "http://www.w3.org/Graphics/SVG/1.1/DTD/svg11.dtd">
<!-- Creator: CorelDRAW X8 -->
<svg xmlns="http://www.w3.org/2000/svg" xml:space="preserve" width="1994px" height="1486px" version="1.1" style="shape-rendering:geometricPrecision; text-rendering:geometricPrecision; image-rendering:optimizeQuality; fill-rule:evenodd; clip-rule:evenodd"
viewBox="0 0 1994 1486"
 xmlns:xlink="http://www.w3.org/1999/xlink">
 <defs>
  <style type="text/css">
   <![CDATA[
    .fil0 {fill:#00A0E3;fill-rule:nonzero}
   ]]>
  </style>
 </defs>
 <g id="Layer_x0020_1">
  <metadata id="CorelCorpID_0Corel-Layer"/>
  <path class="fil0" d="M1467 259c65,100 90,205 89,324 -1,89 -20,182 -66,259 -37,63 -89,111 -165,110 -70,0 -125,-40 -163,-98 -39,-60 -56,-135 -56,-207 0,-90 26,-179 79,-252 71,-96 167,-136 282,-136zm139 13c63,31 129,73 180,146 59,82 87,188 85,289 -2,85 -24,171 -71,242 -71,108 -178,151 -303,151l-1220 0c-125,0 -273,30 -276,187 -3,164 147,199 276,199l1607 0c32,0 62,-25 62,-59 0,-33 -30,-59 -62,-59l-1607 0c-67,0 -149,-12 -151,-98 -2,-85 86,-101 151,-101l1220 0c166,0 318,-47 416,-192 52,-79 79,-173 81,-268 3,-159 -62,-315 -186,-415 -78,-63 -165,-93 -262,-108 -105,-124 -259,-187 -428,-186 -152,1 -312,56 -399,191 -68,104 -70,228 -69,349 1,176 14,416 -224,414 -195,-2 -295,-238 -303,-409 -9,-190 80,-411 266,-480 22,-9 40,-30 18,-49 -24,-21 -64,-19 -92,-8 -212,83 -322,313 -315,537 9,252 165,477 427,479 328,3 347,-207 345,-484 0,-100 0,-209 47,-300 59,-116 174,-170 299,-170 122,0 203,38 292,120 -137,17 -252,62 -338,178 -58,79 -89,180 -89,279 0,81 20,164 64,231 63,97 166,144 278,145 119,1 220,-55 282,-159 49,-83 70,-185 72,-281 1,-109 -20,-215 -73,-311z"/>
 </g>
</svg>
