<?xml version="1.0" encoding="UTF-8"?>
<!DOCTYPE svg PUBLIC "-//W3C//DTD SVG 1.1//EN" "http://www.w3.org/Graphics/SVG/1.1/DTD/svg11.dtd">
<!-- Creator: CorelDRAW X8 -->
<svg xmlns="http://www.w3.org/2000/svg" xml:space="preserve" width="3605px" height="1486px" version="1.1" style="shape-rendering:geometricPrecision; text-rendering:geometricPrecision; image-rendering:optimizeQuality; fill-rule:evenodd; clip-rule:evenodd"
viewBox="0 0 3605 1486"
 xmlns:xlink="http://www.w3.org/1999/xlink">
 <defs>
  <style type="text/css">
   <![CDATA[
    .fil0 {fill:#B2B09C;fill-rule:nonzero}
   ]]>
  </style>
 </defs>
 <g id="Layer_x0020_1">
  <metadata id="CorelCorpID_0Corel-Layer"/>
  <path class="fil0" d="M3078 258c65,99 90,203 89,321 -1,88 -20,188 -66,264 -37,63 -89,111 -165,111 -70,-1 -125,-41 -163,-99 -39,-59 -56,-141 -56,-212 0,-90 26,-178 79,-250 71,-96 167,-135 282,-135zm-1767 -219c-67,-27 -131,-40 -203,-39 -149,3 -304,59 -389,191 -68,104 -70,228 -69,349 1,175 14,417 -224,415 -195,-2 -295,-239 -303,-410 -9,-190 80,-411 266,-481 22,-8 40,-29 18,-48 -24,-21 -64,-19 -92,-8 -212,83 -322,313 -315,537 9,252 165,478 427,480 328,3 347,-208 345,-485 0,-100 0,-209 47,-300 58,-113 165,-166 287,-170 43,-1 76,3 117,19 -112,90 -184,215 -184,363 -1,166 105,286 269,286 166,1 274,-119 273,-286 0,-148 -71,-272 -184,-362 31,-13 65,-19 100,-19 85,-1 163,31 224,91 87,85 130,212 128,334 -5,231 -164,433 -398,433l-350 0c-19,0 -61,9 -61,35 0,27 42,36 61,36l1312 0c20,0 65,-11 61,-38 -1,-8 -6,-14 -14,-20 -128,-87 -197,-236 -197,-391 0,-92 21,-183 67,-263 83,-143 226,-217 388,-219 126,-1 210,35 303,120 -137,17 -252,61 -338,177 -58,78 -89,179 -89,277 0,80 20,170 64,237 63,96 167,143 278,144 119,1 220,-55 282,-158 49,-83 70,-191 72,-287 1,-122 -22,-201 -72,-311 166,73 271,246 264,447 -3,95 -33,190 -93,264 -72,89 -191,121 -301,121l-1772 0c-126,0 -273,30 -277,187 -3,164 147,199 277,199l2175 0c32,0 62,-25 62,-59 0,-33 -30,-59 -62,-59l-2175 0c-67,0 -150,-12 -152,-98 -2,-85 86,-101 152,-101l1772 0c133,0 280,-27 379,-124 87,-86 133,-205 138,-327 10,-280 -177,-497 -445,-531 -108,-125 -277,-186 -442,-187 -195,-1 -386,81 -493,246 -60,92 -86,198 -85,307 1,149 56,270 155,376l-572 0c158,-103 244,-238 249,-432 3,-164 -67,-321 -202,-414 -80,-56 -175,-83 -272,-82 -67,1 -125,13 -187,38zm-1 101c92,82 148,185 148,312 0,92 -41,214 -148,214 -108,0 -149,-121 -148,-214 0,-127 56,-230 148,-312z"/>
 </g>
</svg>
