<?xml version="1.0" encoding="UTF-8"?>
<!DOCTYPE svg PUBLIC "-//W3C//DTD SVG 1.1//EN" "http://www.w3.org/Graphics/SVG/1.1/DTD/svg11.dtd">
<!-- Creator: CorelDRAW X8 -->
<svg xmlns="http://www.w3.org/2000/svg" xml:space="preserve" width="3617px" height="1486px" version="1.1" style="shape-rendering:geometricPrecision; text-rendering:geometricPrecision; image-rendering:optimizeQuality; fill-rule:evenodd; clip-rule:evenodd"
viewBox="0 0 3617 1486"
 xmlns:xlink="http://www.w3.org/1999/xlink">
 <defs>
  <style type="text/css">
   <![CDATA[
    .fil0 {fill:#2B2A29;fill-rule:nonzero}
   ]]>
  </style>
 </defs>
 <g id="Layer_x0020_1">
  <metadata id="CorelCorpID_0Corel-Layer"/>
  <path class="fil0" d="M2936 953c-70,0 -125,-41 -162,-99 -39,-60 -56,-135 -56,-206 0,-90 25,-180 79,-252 70,-96 166,-136 282,-137 63,96 88,197 88,311 0,94 -17,190 -65,272 -37,63 -89,111 -166,111zm-1625 -287c-107,0 -149,-118 -149,-211 0,-127 55,-232 149,-315 94,84 148,187 148,315 0,92 -42,211 -148,211zm2306 162c0,-293 -125,-562 -459,-641 -110,-132 -270,-187 -440,-187 -172,0 -349,64 -458,196 -76,92 -120,215 -120,359 0,151 54,265 156,374l-573 0c163,-105 250,-246 250,-442 0,-160 -70,-313 -202,-404 -79,-54 -172,-82 -268,-82 -67,0 -129,14 -192,38 -65,-25 -127,-39 -196,-39 -151,0 -312,60 -397,191 -68,107 -68,231 -68,353 0,170 14,410 -221,410 -213,0 -307,-257 -307,-435 0,-184 90,-388 267,-454 15,-6 28,-17 28,-30 0,-6 -3,-13 -10,-19 -14,-12 -32,-16 -50,-16 -14,0 -29,3 -42,8 -206,81 -315,299 -315,517 0,257 151,499 429,499 327,0 343,-216 343,-480 0,-103 -1,-210 47,-304 59,-115 175,-170 299,-170 38,0 68,5 105,19 -113,91 -184,219 -184,366 0,164 104,283 272,283 164,0 270,-118 270,-283 0,-148 -68,-273 -182,-365 32,-14 67,-19 102,-19 84,0 161,32 222,91 83,82 127,207 127,325 0,230 -154,442 -399,442l-350 0c-19,0 -61,9 -61,35 0,26 42,35 61,35l1312 0c20,0 62,-9 62,-35 0,-8 -5,-17 -14,-23 -128,-88 -198,-229 -198,-386 0,-118 31,-222 89,-304 86,-123 217,-181 366,-181 123,0 212,36 304,120 -137,18 -252,62 -338,178 -59,80 -89,181 -89,280 0,81 20,163 64,231 63,97 167,145 277,145 118,0 221,-56 282,-159 51,-87 72,-195 72,-295 0,-100 -18,-195 -63,-285 205,103 274,326 275,543 0,173 -60,383 -204,491 -9,-82 -119,-126 -188,-142 -60,-14 -121,-19 -181,-19 -66,0 -136,5 -200,22 -63,17 -171,61 -171,141 0,79 104,124 166,141 60,16 130,24 205,24 71,0 139,-8 202,-23 76,-18 145,-47 206,-85 173,-109 280,-300 280,-550zm-688 595c-179,0 -262,-51 -262,-103 0,-51 93,-100 262,-100 168,0 256,53 256,100 0,50 -79,103 -256,103z"/>
 </g>
</svg>
