<?xml version="1.0" encoding="UTF-8"?>
<!DOCTYPE svg PUBLIC "-//W3C//DTD SVG 1.1//EN" "http://www.w3.org/Graphics/SVG/1.1/DTD/svg11.dtd">
<!-- Creator: CorelDRAW X8 -->
<svg xmlns="http://www.w3.org/2000/svg" xml:space="preserve" width="2404px" height="1024px" version="1.1" style="shape-rendering:geometricPrecision; text-rendering:geometricPrecision; image-rendering:optimizeQuality; fill-rule:evenodd; clip-rule:evenodd"
viewBox="0 0 2404 1024"
 xmlns:xlink="http://www.w3.org/1999/xlink">
 <defs>
  <style type="text/css">
   <![CDATA[
    .fil0 {fill:#00A0E3;fill-rule:nonzero}
   ]]>
  </style>
 </defs>
 <g id="Layer_x0020_1">
  <metadata id="CorelCorpID_0Corel-Layer"/>
  <path class="fil0" d="M1311 39c-67,-26 -131,-40 -203,-39 -149,3 -304,59 -389,191 -68,104 -70,228 -69,349 1,176 14,416 -224,414 -195,-2 -295,-238 -303,-408 -9,-191 80,-412 266,-481 22,-9 40,-30 18,-49 -24,-21 -64,-19 -92,-8 -212,83 -322,313 -315,537 9,252 165,477 427,479 328,3 347,-207 345,-484 0,-100 0,-209 47,-300 58,-113 165,-165 287,-170 44,-1 76,3 117,19 -112,90 -183,215 -184,363 -1,166 105,286 269,286 166,1 274,-119 273,-286 0,-148 -71,-272 -183,-362 30,-13 65,-19 99,-19 85,-1 163,31 225,91 86,85 130,212 127,334 -5,231 -163,433 -398,433l-350 0c-19,0 -61,9 -61,35 0,26 42,35 61,35l1241 0c20,0 62,-9 62,-35l0 -929c0,-26 -42,-35 -62,-35 -19,0 -61,9 -61,35l0 894 -558 0c157,-102 245,-236 249,-432 3,-164 -67,-321 -202,-414 -80,-55 -175,-83 -272,-82 -67,1 -125,14 -187,38zm-1 101c92,82 148,185 148,312 1,92 -41,214 -148,214 -107,0 -149,-121 -148,-214 1,-127 56,-230 148,-312z"/>
 </g>
</svg>
