<?xml version="1.0" encoding="UTF-8"?>
<!DOCTYPE svg PUBLIC "-//W3C//DTD SVG 1.1//EN" "http://www.w3.org/Graphics/SVG/1.1/DTD/svg11.dtd">
<!-- Creator: CorelDRAW X8 -->
<svg xmlns="http://www.w3.org/2000/svg" xml:space="preserve" width="2093px" height="1486px" version="1.1" style="shape-rendering:geometricPrecision; text-rendering:geometricPrecision; image-rendering:optimizeQuality; fill-rule:evenodd; clip-rule:evenodd"
viewBox="0 0 2093 1486"
 xmlns:xlink="http://www.w3.org/1999/xlink">
 <defs>
  <style type="text/css">
   <![CDATA[
    .fil0 {fill:#B2B09C;fill-rule:nonzero}
   ]]>
  </style>
 </defs>
 <g id="Layer_x0020_1">
  <metadata id="CorelCorpID_0Corel-Layer"/>
  <path class="fil0" d="M1467 259c66,100 90,205 89,324 -1,89 -20,182 -65,259 -38,63 -90,111 -166,110 -70,0 -125,-40 -163,-98 -39,-60 -56,-135 -56,-207 0,-90 26,-179 79,-252 71,-96 167,-136 282,-136zm123 -14c101,4 198,21 281,88 70,57 106,136 102,227 -3,56 -19,114 -63,151 -31,27 -70,37 -109,38 -20,1 -58,7 -59,33 -1,27 41,35 60,37 45,3 81,-4 120,28 31,26 47,66 48,106 1,40 -12,81 -41,109 -37,34 -93,38 -141,38l-1512 0c-125,0 -273,31 -276,188 -3,163 147,198 276,198l1722 0c32,0 62,-25 62,-59 0,-33 -30,-58 -62,-58l-1722 0c-66,0 -149,-13 -151,-98 -2,-86 86,-102 151,-102l1512 0c87,0 180,-7 245,-70 39,-37 60,-92 60,-146 0,-84 -52,-137 -121,-174 76,-53 115,-119 120,-213 5,-96 -33,-197 -103,-261 -116,-106 -297,-131 -447,-124 -106,-121 -258,-182 -424,-181 -152,1 -312,56 -399,191 -68,104 -70,228 -69,349 1,176 14,416 -224,414 -195,-2 -295,-238 -303,-408 -9,-191 80,-412 266,-481 22,-9 40,-30 18,-49 -24,-21 -64,-19 -92,-8 -212,83 -322,313 -315,537 9,252 165,477 427,479 328,3 347,-207 345,-484 0,-100 0,-209 47,-300 60,-116 174,-170 299,-170 122,0 203,38 293,120 -138,17 -253,62 -339,178 -58,79 -89,180 -89,279 0,81 20,164 64,231 63,97 167,144 278,145 119,1 220,-55 282,-159 49,-83 70,-185 72,-281 1,-121 -24,-236 -89,-338z"/>
 </g>
</svg>
