<?xml version="1.0" encoding="UTF-8"?>
<!DOCTYPE svg PUBLIC "-//W3C//DTD SVG 1.1//EN" "http://www.w3.org/Graphics/SVG/1.1/DTD/svg11.dtd">
<!-- Creator: CorelDRAW X8 -->
<svg xmlns="http://www.w3.org/2000/svg" xml:space="preserve" width="1443px" height="868px" version="1.1" style="shape-rendering:geometricPrecision; text-rendering:geometricPrecision; image-rendering:optimizeQuality; fill-rule:evenodd; clip-rule:evenodd"
viewBox="0 0 1443 868"
 xmlns:xlink="http://www.w3.org/1999/xlink">
 <defs>
  <style type="text/css">
   <![CDATA[
    .fil0 {fill:#2B2A29;fill-rule:nonzero}
   ]]>
  </style>
 </defs>
 <g id="Layer_x0020_1">
  <metadata id="CorelCorpID_0Corel-Layer"/>
  <path class="fil0" d="M497 598c206,0 219,-117 219,-280 0,-57 0,-121 28,-173 32,-59 95,-92 171,-92 60,0 109,18 155,57 -77,10 -148,44 -196,104 -36,46 -55,105 -55,162 0,49 13,97 40,134 40,60 109,88 179,88 71,0 140,-30 181,-96 31,-49 44,-113 44,-170 0,-47 -7,-90 -24,-130 76,51 108,123 108,206 0,96 -31,176 -82,234 -112,130 -337,173 -504,173 -177,0 -349,-34 -472,-120 -137,-95 -187,-226 -190,-383 -2,-108 38,-212 129,-268 9,-5 13,-11 13,-17 0,-8 -6,-15 -17,-20 -9,-4 -21,-7 -33,-7 -13,0 -26,3 -36,9 -109,66 -157,183 -155,303 3,183 73,328 234,429 145,91 338,127 527,127 182,0 423,-52 558,-176 75,-71 124,-164 124,-284 0,-136 -81,-258 -256,-293 -66,-77 -165,-115 -272,-115 -96,0 -199,32 -254,113 -43,62 -43,134 -43,205 0,91 9,227 -121,227 -120,0 -173,-146 -173,-243 0,-100 51,-217 155,-254 12,-4 23,-12 23,-22 0,-4 -3,-10 -9,-14 -10,-8 -24,-12 -38,-12 -12,0 -24,2 -34,6 -126,47 -195,171 -195,299 0,157 98,293 271,293zm541 -54c-38,0 -67,-23 -87,-52 -22,-32 -33,-73 -33,-116 0,-50 15,-101 46,-141 36,-47 91,-74 151,-74 36,50 50,111 50,171 0,53 -10,107 -39,153 -25,39 -54,60 -88,59z"/>
 </g>
</svg>
