<?xml version="1.0" encoding="UTF-8"?>
<!DOCTYPE svg PUBLIC "-//W3C//DTD SVG 1.1//EN" "http://www.w3.org/Graphics/SVG/1.1/DTD/svg11.dtd">
<!-- Creator: CorelDRAW X8 -->
<svg xmlns="http://www.w3.org/2000/svg" xml:space="preserve" width="1229px" height="868px" version="1.1" style="shape-rendering:geometricPrecision; text-rendering:geometricPrecision; image-rendering:optimizeQuality; fill-rule:evenodd; clip-rule:evenodd"
viewBox="0 0 1229 868"
 xmlns:xlink="http://www.w3.org/1999/xlink">
 <defs>
  <style type="text/css">
   <![CDATA[
    .fil0 {fill:#00A0E3;fill-rule:nonzero}
   ]]>
  </style>
 </defs>
 <g id="Layer_x0020_1">
  <metadata id="CorelCorpID_0Corel-Layer"/>
  <path class="fil0" d="M890 161c37,53 51,115 50,179 -1,51 -12,105 -39,147 -24,39 -54,59 -88,59 -38,0 -67,-23 -87,-52 -22,-32 -33,-75 -33,-118 0,-50 15,-101 46,-141 37,-47 91,-74 151,-74zm-202 -108c60,0 111,18 157,58 -77,9 -149,43 -196,103 -36,46 -55,105 -55,162 0,49 14,99 40,136 40,59 107,87 179,87 72,1 140,-28 181,-95 30,-47 44,-107 44,-164 1,-56 -9,-109 -31,-156 83,48 125,136 124,228 -1,47 -14,94 -40,134 -40,61 -100,88 -174,88l-737 0c-122,0 -178,42 -179,114 -3,99 96,120 179,120l970 0c27,0 49,-18 49,-40 0,-23 -22,-41 -49,-41l-970 0c-52,0 -79,-13 -80,-49 -1,-35 26,-51 80,-51l737 0c97,0 189,-26 251,-101 41,-51 61,-115 61,-179 0,-91 -40,-178 -114,-235 -44,-34 -99,-56 -159,-64 -67,-74 -168,-108 -268,-108 -101,0 -200,36 -253,113 -42,61 -43,132 -42,202 0,93 10,233 -123,232 -109,-1 -167,-138 -171,-229 -6,-105 46,-231 155,-269 17,-6 32,-22 14,-37 -19,-15 -51,-14 -72,-6 -131,48 -200,180 -196,312 5,149 104,281 270,282 209,2 222,-123 221,-285 -1,-56 0,-118 27,-169 33,-60 94,-93 170,-93z"/>
 </g>
</svg>
