<?xml version="1.0" encoding="UTF-8"?>
<!DOCTYPE svg PUBLIC "-//W3C//DTD SVG 1.1//EN" "http://www.w3.org/Graphics/SVG/1.1/DTD/svg11.dtd">
<!-- Creator: CorelDRAW X8 -->
<svg xmlns="http://www.w3.org/2000/svg" xml:space="preserve" width="1285px" height="868px" version="1.1" style="shape-rendering:geometricPrecision; text-rendering:geometricPrecision; image-rendering:optimizeQuality; fill-rule:evenodd; clip-rule:evenodd"
viewBox="0 0 1285 868"
 xmlns:xlink="http://www.w3.org/1999/xlink">
 <defs>
  <style type="text/css">
   <![CDATA[
    .fil0 {fill:#00A0E3;fill-rule:nonzero}
   ]]>
  </style>
 </defs>
 <g id="Layer_x0020_1">
  <metadata id="CorelCorpID_0Corel-Layer"/>
  <path class="fil0" d="M884 157c38,45 54,113 53,183 0,51 -12,105 -38,147 -25,39 -55,59 -89,59 -37,0 -66,-23 -86,-52 -22,-32 -33,-74 -33,-118 0,-50 15,-101 46,-141 36,-46 90,-70 147,-78zm65 -53c-66,-70 -161,-104 -263,-104 -101,0 -200,36 -252,113 -42,61 -43,132 -42,202 0,93 10,233 -123,232 -109,-1 -166,-138 -171,-229 -5,-105 46,-231 155,-269 17,-6 32,-22 14,-37 -19,-16 -50,-14 -72,-6 -130,48 -199,180 -195,312 5,149 104,280 269,282 208,2 222,-123 220,-285 0,-56 0,-118 28,-169 32,-60 93,-93 169,-93 60,0 111,18 157,58 -77,9 -149,42 -196,103 -36,46 -55,105 -55,162 0,49 14,98 40,136 40,59 107,87 178,87 72,1 140,-28 181,-95 30,-47 43,-107 44,-164 1,-68 -12,-127 -47,-185 102,4 206,63 200,173 -1,33 -11,65 -35,84 -14,12 -33,19 -57,19 -30,1 -46,13 -46,25 -1,13 14,25 46,28 24,2 44,-2 64,13 17,14 26,36 27,58 1,22 -7,45 -23,59 -20,17 -49,20 -75,20l-910 0c-122,0 -177,42 -179,114 -2,99 96,120 179,120l1037 0c27,0 49,-18 49,-40 0,-23 -22,-41 -49,-41l-1037 0c-52,0 -79,-13 -80,-49 -1,-35 26,-51 80,-51l910 0c56,0 116,-7 158,-45 26,-24 38,-58 38,-87 0,-45 -29,-81 -68,-101 43,-29 65,-74 67,-122 3,-56 -20,-115 -64,-154 -69,-60 -182,-78 -271,-74z"/>
 </g>
</svg>
