<?xml version="1.0" encoding="UTF-8"?>
<!DOCTYPE svg PUBLIC "-//W3C//DTD SVG 1.1//EN" "http://www.w3.org/Graphics/SVG/1.1/DTD/svg11.dtd">
<!-- Creator: CorelDRAW X8 -->
<svg xmlns="http://www.w3.org/2000/svg" xml:space="preserve" width="2006px" height="1486px" version="1.1" style="shape-rendering:geometricPrecision; text-rendering:geometricPrecision; image-rendering:optimizeQuality; fill-rule:evenodd; clip-rule:evenodd"
viewBox="0 0 2006 1486"
 xmlns:xlink="http://www.w3.org/1999/xlink">
 <defs>
  <style type="text/css">
   <![CDATA[
    .fil0 {fill:#CC9933;fill-rule:nonzero}
   ]]>
  </style>
 </defs>
 <g id="Layer_x0020_1">
  <metadata id="CorelCorpID_0Corel-Layer"/>
  <path class="fil0" d="M1317 1221c53,0 109,5 160,20 35,10 96,36 96,80 1,46 -63,72 -98,83 -51,15 -105,20 -158,20 -60,0 -132,-6 -188,-29 -30,-11 -74,-36 -73,-74 0,-36 44,-61 73,-72 56,-22 129,-28 188,-28zm-199 -1151c120,0 201,36 293,119 -137,17 -252,61 -339,177 -58,78 -89,179 -89,277 0,80 20,170 64,237 63,96 166,143 278,144 119,1 220,-55 282,-158 49,-83 70,-191 72,-287 1,-111 -19,-183 -58,-286 197,111 280,336 269,561 -8,163 -66,363 -203,466 -1,-5 -1,-9 -2,-13 -19,-74 -121,-114 -186,-130 -60,-14 -121,-18 -182,-18 -65,0 -136,5 -199,22 -64,16 -171,60 -171,141 -1,79 103,123 166,140 64,18 138,25 204,24 60,-1 120,-6 180,-18 79,-16 162,-44 231,-88 174,-112 266,-314 277,-520 16,-294 -135,-598 -450,-665 -110,-135 -269,-196 -437,-195 -152,1 -312,56 -399,191 -68,105 -70,228 -69,349 1,176 15,416 -224,414 -195,-2 -295,-238 -303,-408 -9,-191 80,-412 266,-481 15,-6 28,-17 28,-30 0,-6 -3,-13 -10,-19 -14,-12 -32,-16 -50,-16 -15,0 -30,4 -42,8 -212,83 -322,313 -315,537 9,252 165,477 427,479 328,3 347,-207 346,-484 -1,-100 -1,-209 46,-300 60,-116 174,-170 299,-170zm349 188c66,99 90,203 89,321 -1,88 -20,188 -66,264 -37,63 -89,111 -165,110 -70,0 -125,-40 -163,-98 -39,-59 -56,-141 -56,-212 0,-89 26,-178 79,-250 71,-96 167,-135 282,-135z"/>
 </g>
</svg>
