<?xml version="1.0" encoding="UTF-8"?>
<!DOCTYPE svg PUBLIC "-//W3C//DTD SVG 1.1//EN" "http://www.w3.org/Graphics/SVG/1.1/DTD/svg11.dtd">
<!-- Creator: CorelDRAW X8 -->
<svg xmlns="http://www.w3.org/2000/svg" xml:space="preserve" width="2041px" height="1486px" version="1.1" style="shape-rendering:geometricPrecision; text-rendering:geometricPrecision; image-rendering:optimizeQuality; fill-rule:evenodd; clip-rule:evenodd"
viewBox="0 0 2041 1486"
 xmlns:xlink="http://www.w3.org/1999/xlink">
 <defs>
  <style type="text/css">
   <![CDATA[
    .fil0 {fill:#CC9933;fill-rule:nonzero}
   ]]>
  </style>
 </defs>
 <g id="Layer_x0020_1">
  <metadata id="CorelCorpID_0Corel-Layer"/>
  <path class="fil0" d="M601 949c-79,-36 -114,-124 -114,-208 0,-125 83,-224 209,-223 125,0 206,99 206,223 0,78 -28,158 -96,198 -9,6 -17,14 -17,25 0,26 41,35 61,35l1067 0c0,119 -58,202 -153,269 -163,115 -432,148 -627,149 -340,1 -724,-89 -912,-406 -69,-117 -101,-261 -102,-397 -2,-209 61,-435 242,-556 8,-6 15,-14 14,-24 -1,-12 -12,-21 -21,-25 -12,-6 -26,-9 -40,-9 -16,0 -34,4 -47,13 -196,132 -273,372 -271,601 1,165 48,335 143,470 220,314 634,402 991,402 211,0 491,-39 679,-143 130,-72 228,-181 228,-340l0 -968c0,-26 -42,-35 -61,-35 -15,0 -62,7 -62,35 1,179 -156,449 -323,517l1 -276c0,-147 -113,-229 -250,-230 -145,-2 -272,92 -273,250 -1,91 45,173 111,232 85,75 178,98 288,102l0 299 -508 0c42,-61 61,-112 61,-188 0,-188 -159,-293 -329,-294 -171,0 -332,105 -332,294 -1,112 54,213 156,261 14,7 31,11 48,10 15,-1 30,-5 42,-13 8,-6 15,-14 13,-24 -1,-13 -12,-21 -22,-26zm994 -324c142,-49 258,-170 323,-304l0 608 -323 0c0,-101 0,-203 0,-304zm-122 -349l-1 284c-82,-5 -154,-32 -206,-89 -43,-47 -70,-111 -70,-175 0,-83 57,-181 147,-180 85,1 130,80 130,160z"/>
 </g>
</svg>
