<?xml version="1.0" encoding="UTF-8"?>
<!DOCTYPE svg PUBLIC "-//W3C//DTD SVG 1.1//EN" "http://www.w3.org/Graphics/SVG/1.1/DTD/svg11.dtd">
<!-- Creator: CorelDRAW X8 -->
<svg xmlns="http://www.w3.org/2000/svg" xml:space="preserve" width="2059px" height="1024px" version="1.1" style="shape-rendering:geometricPrecision; text-rendering:geometricPrecision; image-rendering:optimizeQuality; fill-rule:evenodd; clip-rule:evenodd"
viewBox="0 0 2059 1024"
 xmlns:xlink="http://www.w3.org/1999/xlink">
 <defs>
  <style type="text/css">
   <![CDATA[
    .fil0 {fill:#00A0E3;fill-rule:nonzero}
   ]]>
  </style>
 </defs>
 <g id="Layer_x0020_1">
  <metadata id="CorelCorpID_0Corel-Layer"/>
  <path class="fil0" d="M773 133c-89,-100 -180,-133 -311,-133 -176,0 -336,91 -412,256 -35,77 -50,164 -50,249 -1,205 81,423 275,510 27,12 66,14 90,-5 23,-17 12,-39 -11,-49 -166,-72 -232,-285 -231,-456 0,-70 11,-142 36,-207 49,-129 163,-228 303,-228 172,0 252,124 252,289l0 629c0,27 42,36 62,36 20,0 61,-9 61,-36l0 -630c0,-151 59,-284 224,-288 99,-2 177,73 209,164 32,93 32,197 32,295 0,107 2,218 46,318 57,129 164,177 298,177 179,0 309,-101 372,-269 29,-77 42,-160 41,-242 -2,-213 -99,-420 -300,-502 -30,-12 -70,-17 -96,6 -22,19 -5,40 17,48 177,67 256,267 257,448 0,69 -13,143 -34,208 -40,123 -119,233 -257,233 -98,0 -158,-57 -190,-149 -30,-87 -31,-185 -31,-276 0,-103 -1,-210 -35,-308 -50,-144 -183,-221 -328,-221 -126,0 -209,36 -289,133z"/>
 </g>
</svg>
