<?xml version="1.0" encoding="UTF-8"?>
<!DOCTYPE svg PUBLIC "-//W3C//DTD SVG 1.1//EN" "http://www.w3.org/Graphics/SVG/1.1/DTD/svg11.dtd">
<!-- Creator: CorelDRAW X8 -->
<svg xmlns="http://www.w3.org/2000/svg" xml:space="preserve" width="1264px" height="600px" version="1.1" style="shape-rendering:geometricPrecision; text-rendering:geometricPrecision; image-rendering:optimizeQuality; fill-rule:evenodd; clip-rule:evenodd"
viewBox="0 0 1264 600"
 xmlns:xlink="http://www.w3.org/1999/xlink">
 <defs>
  <style type="text/css">
   <![CDATA[
    .fil0 {fill:#2B2A29;fill-rule:nonzero}
   ]]>
  </style>
 </defs>
 <g id="Layer_x0020_1">
  <metadata id="CorelCorpID_0Corel-Layer"/>
  <path class="fil0" d="M204 600c14,0 27,-3 37,-11 7,-4 10,-10 10,-15 0,-9 -6,-17 -18,-22 -97,-39 -135,-160 -135,-254 0,-41 6,-81 21,-119 28,-69 92,-126 171,-126 98,0 140,72 140,159l0 361c0,15 22,27 49,27 28,0 49,-12 49,-27l0 -361c0,-77 28,-159 124,-159 57,0 94,38 113,89 18,51 19,107 19,160 0,156 24,298 219,298 176,0 261,-137 261,-294 0,-126 -60,-250 -186,-298 -12,-5 -24,-8 -37,-8 -14,0 -26,4 -37,12 -6,5 -9,10 -9,15 0,9 11,18 22,22 104,38 149,160 149,259 0,93 -45,239 -163,239 -118,0 -121,-162 -121,-245 0,-59 0,-114 -21,-170 -32,-87 -118,-132 -209,-132 -66,0 -131,18 -175,68 -43,-45 -108,-68 -187,-68 -110,0 -212,53 -259,152 -22,46 -31,96 -31,146 0,120 51,245 170,296 10,4 22,6 34,6z"/>
 </g>
</svg>
