<?xml version="1.0" encoding="UTF-8"?>
<!DOCTYPE svg PUBLIC "-//W3C//DTD SVG 1.1//EN" "http://www.w3.org/Graphics/SVG/1.1/DTD/svg11.dtd">
<!-- Creator: CorelDRAW X8 -->
<svg xmlns="http://www.w3.org/2000/svg" xml:space="preserve" width="1264px" height="600px" version="1.1" style="shape-rendering:geometricPrecision; text-rendering:geometricPrecision; image-rendering:optimizeQuality; fill-rule:evenodd; clip-rule:evenodd"
viewBox="0 0 1264 600"
 xmlns:xlink="http://www.w3.org/1999/xlink">
 <defs>
  <style type="text/css">
   <![CDATA[
    .fil0 {fill:#00A0E3;fill-rule:nonzero}
   ]]>
  </style>
 </defs>
 <g id="Layer_x0020_1">
  <metadata id="CorelCorpID_0Corel-Layer"/>
  <path class="fil0" d="M477 68c-43,-45 -109,-68 -187,-68 -110,0 -212,53 -259,152 -21,44 -31,93 -31,144 0,121 51,246 170,297 22,9 52,10 72,-4 18,-13 9,-29 -10,-37 -97,-40 -134,-162 -134,-256 0,-40 7,-80 21,-117 28,-69 92,-126 171,-126 98,0 140,72 140,159l0 361c0,15 22,27 49,27 27,0 49,-12 49,-27l0 -361c0,-78 30,-157 123,-159 55,-1 97,42 114,89 20,54 19,114 19,171 0,60 2,124 28,180 32,69 93,107 191,107 122,0 200,-67 236,-159 17,-43 25,-91 25,-141 -1,-125 -62,-245 -186,-293 -23,-8 -55,-11 -74,5 -18,15 -4,31 13,37 103,37 149,152 149,251 0,35 -6,78 -20,119 -23,68 -69,128 -143,128 -56,0 -86,-36 -102,-80 -18,-49 -19,-106 -19,-157 0,-60 0,-122 -21,-178 -32,-87 -118,-132 -210,-132 -65,0 -131,18 -174,68z"/>
 </g>
</svg>
