<?xml version="1.0" encoding="UTF-8" standalone="no"?>
<!-- Creator: CorelDRAW X8 -->

<svg
   xmlns:dc="http://purl.org/dc/elements/1.1/"
   xmlns:cc="http://creativecommons.org/ns#"
   xmlns:rdf="http://www.w3.org/1999/02/22-rdf-syntax-ns#"
   xmlns:svg="http://www.w3.org/2000/svg"
   xmlns="http://www.w3.org/2000/svg"
   xmlns:sodipodi="http://sodipodi.sourceforge.net/DTD/sodipodi-0.dtd"
   xmlns:inkscape="http://www.inkscape.org/namespaces/inkscape"
   xml:space="preserve"
   width="2443px"
   height="1486px"
   version="1.1"
   style="shape-rendering:geometricPrecision; text-rendering:geometricPrecision; image-rendering:optimizeQuality; fill-rule:evenodd; clip-rule:evenodd"
   viewBox="0 0 2443 1485"
   id="svg10"
   sodipodi:docname="സ്ര.svg"
   inkscape:version="0.92.3 (2405546, 2018-03-11)"><metadata
   id="metadata14"><rdf:RDF><cc:Work
       rdf:about=""><dc:format>image/svg+xml</dc:format><dc:type
         rdf:resource="http://purl.org/dc/dcmitype/StillImage" /></cc:Work></rdf:RDF></metadata><sodipodi:namedview
   pagecolor="#ffffff"
   bordercolor="#666666"
   borderopacity="1"
   objecttolerance="10"
   gridtolerance="10"
   guidetolerance="10"
   inkscape:pageopacity="0"
   inkscape:pageshadow="2"
   inkscape:window-width="1062"
   inkscape:window-height="497"
   id="namedview12"
   showgrid="false"
   inkscape:zoom="0.15881561"
   inkscape:cx="572.94915"
   inkscape:cy="743"
   inkscape:window-x="0"
   inkscape:window-y="0"
   inkscape:window-maximized="0"
   inkscape:current-layer="Layer_x0020_1" />
 <defs
   id="defs4">
  <style
   type="text/css"
   id="style2">
   <![CDATA[
    .fil0 {fill:#669933;fill-rule:nonzero}
   ]]>
  </style>
 </defs>
 <g
   id="Layer_x0020_1">
  <metadata
   id="CorelCorpID_0Corel-Layer" />
  <path
   class="fil0"
   d="m 1424,0 c 156,-3 294,74 348,225 35,96 35,207 35,308 0,142 5,400 202,400 185,0 263,-224 270,-383 7,-176 -68,-400 -247,-466 -38,-14 -48,-42 -23,-63 33,-28 86,-23 124,-8 223,88 309,312 310,537 1,236 -89,471 -262,635 -221,207 -553,299 -888,300 -298,2 -581,-68 -807,-190 C 222,1153 27,923 2,570 -14,347 71,127 247,16 c 29,-19 81,-21 114,-4 34,17 37,45 7,64 -145,92 -217,288 -203,488 19,298 166,501 374,631 202,128 469,200 752,199 305,-1 608,-88 798,-286 33,-35 64,-73 91,-116 -50,20 -107,32 -171,32 -317,0 -364,-231 -364,-491 0,-96 0,-199 -32,-290 -29,-80 -99,-154 -189,-152 -155,3 -204,137 -204,271 v 616 c 0,25 -37,46 -82,46 -45,0 -81,-21 -81,-46 V 362 C 1057,212 986,91 824,91 693,91 587,187 541,305 c -27,67 -37,141 -36,214 3,158 67,357 223,423 36,15 43,44 16,64 -32,23 -83,22 -118,7 C 431,927 346,720 343,519 341,428 357,338 394,259 473,90 642,0 824,0 954,0 1064,39 1134,116 1197,43 1300,3 1424,0 Z"
   id="path7"
   inkscape:connector-curvature="0"
   style="fill:#669933;fill-rule:nonzero"
   sodipodi:nodetypes="ccsscccccccccccccccccssccsssssscccccccscc" />
 </g>
</svg>