<?xml version="1.0" encoding="UTF-8"?>
<!DOCTYPE svg PUBLIC "-//W3C//DTD SVG 1.1//EN" "http://www.w3.org/Graphics/SVG/1.1/DTD/svg11.dtd">
<!-- Creator: CorelDRAW X8 -->
<svg xmlns="http://www.w3.org/2000/svg" xml:space="preserve" width="1271px" height="868px" version="1.1" style="shape-rendering:geometricPrecision; text-rendering:geometricPrecision; image-rendering:optimizeQuality; fill-rule:evenodd; clip-rule:evenodd"
viewBox="0 0 1271 868"
 xmlns:xlink="http://www.w3.org/1999/xlink">
 <defs>
  <style type="text/css">
   <![CDATA[
    .fil0 {fill:#B2B09C;fill-rule:nonzero}
   ]]>
  </style>
 </defs>
 <g id="Layer_x0020_1">
  <metadata id="CorelCorpID_0Corel-Layer"/>
  <path class="fil0" d="M784 715c-46,0 -82,6 -106,15 -26,10 -39,23 -40,37 0,13 13,27 39,37 24,9 61,15 107,15 38,0 67,-4 90,-11 35,-10 52,-26 52,-41 0,-16 -17,-31 -51,-41 -23,-7 -53,-11 -91,-11zm-307 -647c38,-43 100,-66 175,-68 94,-2 177,43 210,131 20,57 21,121 21,181 0,82 3,235 121,235 116,0 162,-142 163,-235 1,-101 -44,-225 -149,-263 -18,-6 -32,-22 -14,-37 20,-16 52,-13 75,-5 105,41 155,125 176,220 12,52 16,107 16,160 0,45 -4,91 -13,136 -22,112 -76,217 -182,278 -51,30 -118,49 -185,59 -38,5 -75,8 -109,8 -41,0 -87,-4 -126,-14 -72,-19 -107,-53 -107,-87 0,-35 37,-69 110,-87 33,-9 76,-14 125,-14 45,0 82,5 114,12 46,10 118,37 118,89 0,3 -1,7 -1,10 88,-49 132,-136 147,-229 -40,31 -93,52 -158,52 -191,0 -219,-137 -219,-288 0,-57 0,-117 -20,-170 -17,-47 -59,-90 -113,-89 -94,2 -123,80 -123,159l0 361c0,15 -22,27 -49,27 -28,0 -49,-12 -49,-27l0 -361c0,-88 -43,-159 -141,-159 -79,0 -143,56 -171,125 -15,39 -22,82 -21,125 2,92 40,211 134,249 19,8 28,24 10,37 -19,14 -50,13 -71,4 -118,-50 -169,-172 -171,-290 -1,-53 9,-106 31,-152 47,-98 149,-151 259,-151 79,0 145,23 187,68z"/>
 </g>
</svg>
