<?xml version="1.0" encoding="UTF-8"?>
<!DOCTYPE svg PUBLIC "-//W3C//DTD SVG 1.1//EN" "http://www.w3.org/Graphics/SVG/1.1/DTD/svg11.dtd">
<!-- Creator: CorelDRAW X8 -->
<svg xmlns="http://www.w3.org/2000/svg" xml:space="preserve" width="2071px" height="1486px" version="1.1" style="shape-rendering:geometricPrecision; text-rendering:geometricPrecision; image-rendering:optimizeQuality; fill-rule:evenodd; clip-rule:evenodd"
viewBox="0 0 2073 1487"
 xmlns:xlink="http://www.w3.org/1999/xlink">
 <defs>
  <style type="text/css">
   <![CDATA[
    .fil0 {fill:#B2B09C;fill-rule:nonzero}
   ]]>
  </style>
 </defs>
 <g id="Layer_x0020_1">
  <metadata id="CorelCorpID_0Corel-Layer"/>
  <path class="fil0" d="M1284 1221c54,0 109,5 160,20 35,11 96,37 97,81 0,45 -63,72 -98,82 -51,16 -106,20 -159,20 -59,0 -132,-6 -188,-28 -30,-12 -74,-37 -73,-74 0,-37 44,-61 74,-73 56,-22 128,-28 187,-28zm-511 -1088c-89,-99 -180,-133 -311,-133 -175,0 -336,92 -412,256 -35,78 -50,165 -50,250 -1,205 82,423 276,510 27,12 65,13 90,-5 23,-18 11,-39 -12,-49 -166,-72 -232,-285 -231,-456 0,-71 11,-142 36,-208 50,-129 163,-227 303,-227 172,0 253,123 253,288l0 630c0,27 42,36 62,36 19,0 61,-9 61,-36l0 -631c0,-151 59,-284 224,-288 99,-2 177,73 209,165 32,93 32,196 32,294 0,107 2,219 46,318 58,132 167,178 298,178 116,0 217,-42 292,-129 -12,161 -92,334 -228,424 -20,13 -41,25 -64,37 2,-9 3,-18 3,-27 1,-35 -17,-68 -48,-92 -39,-31 -94,-50 -136,-60 -60,-14 -121,-19 -182,-19 -65,0 -135,5 -199,22 -64,16 -171,61 -171,141 -1,80 103,124 166,141 64,18 135,24 201,24 59,0 118,-5 175,-14 101,-16 211,-45 299,-98 173,-106 260,-280 297,-476 14,-77 20,-155 21,-232 1,-110 -9,-241 -42,-345 -45,-139 -135,-256 -272,-311 -31,-13 -68,-18 -95,5 -22,19 -5,40 17,49 180,67 259,284 256,466 -2,174 -84,424 -290,424 -98,0 -158,-57 -190,-149 -30,-87 -31,-185 -31,-277 0,-103 0,-210 -35,-308 -50,-144 -183,-221 -328,-221 -126,0 -209,36 -290,133z"/>
 </g>
</svg>
