<?xml version="1.0" encoding="UTF-8"?>
<!DOCTYPE svg PUBLIC "-//W3C//DTD SVG 1.1//EN" "http://www.w3.org/Graphics/SVG/1.1/DTD/svg11.dtd">
<!-- Creator: CorelDRAW X8 -->
<svg xmlns="http://www.w3.org/2000/svg" xml:space="preserve" width="1479px" height="868px" version="1.1" style="shape-rendering:geometricPrecision; text-rendering:geometricPrecision; image-rendering:optimizeQuality; fill-rule:evenodd; clip-rule:evenodd"
viewBox="0 0 1479 868"
 xmlns:xlink="http://www.w3.org/1999/xlink">
 <defs>
  <style type="text/css">
   <![CDATA[
    .fil0 {fill:#CC9933;fill-rule:nonzero}
   ]]>
  </style>
 </defs>
 <g id="Layer_x0020_1">
  <metadata id="CorelCorpID_0Corel-Layer"/>
  <path class="fil0" d="M687 68c37,-43 100,-66 175,-68 95,-2 178,43 211,131 21,57 21,121 21,181 0,82 3,235 122,235 112,0 159,-133 164,-226 4,-103 -41,-233 -150,-272 -14,-5 -22,-13 -22,-22 0,-5 3,-10 8,-15 11,-9 26,-12 40,-12 12,1 25,3 35,7 135,52 188,183 188,314 0,138 -54,276 -159,371 -133,122 -334,175 -537,176 -181,1 -352,-40 -489,-111 -160,-83 -278,-218 -293,-424 -9,-130 42,-259 148,-324 10,-6 23,-9 37,-9 12,0 23,3 33,7 11,5 16,13 16,20 0,6 -4,13 -12,18 -88,53 -131,168 -123,284 11,175 101,293 226,369 122,75 284,117 455,117 185,-1 369,-52 484,-168 20,-20 38,-42 55,-67 -30,12 -65,20 -104,20 -192,0 -220,-137 -220,-288 0,-57 0,-117 -20,-170 -17,-47 -59,-90 -114,-89 -94,2 -123,80 -123,159l0 361c0,15 -23,27 -50,27 -27,0 -49,-12 -49,-27l0 -361c0,-88 -43,-159 -141,-159 -79,0 -144,56 -172,125 -16,39 -22,82 -21,125 1,92 40,210 135,249 12,5 19,13 19,21 1,5 -3,11 -10,16 -10,8 -25,11 -39,11 -11,0 -23,-3 -32,-7 -118,-50 -170,-172 -172,-290 0,-53 9,-106 31,-152 48,-98 151,-151 261,-151 79,0 145,23 188,68z"/>
 </g>
</svg>
