<?xml version="1.0" encoding="UTF-8"?>
<!DOCTYPE svg PUBLIC "-//W3C//DTD SVG 1.1//EN" "http://www.w3.org/Graphics/SVG/1.1/DTD/svg11.dtd">
<!-- Creator: CorelDRAW X8 -->
<svg xmlns="http://www.w3.org/2000/svg" xml:space="preserve" width="1479px" height="868px" version="1.1" style="shape-rendering:geometricPrecision; text-rendering:geometricPrecision; image-rendering:optimizeQuality; fill-rule:evenodd; clip-rule:evenodd"
viewBox="0 0 1479 868"
 xmlns:xlink="http://www.w3.org/1999/xlink">
 <defs>
  <style type="text/css">
   <![CDATA[
    .fil0 {fill:#00A0E3;fill-rule:nonzero}
   ]]>
  </style>
 </defs>
 <g id="Layer_x0020_1">
  <metadata id="CorelCorpID_0Corel-Layer"/>
  <path class="fil0" d="M687 68c-43,-45 -109,-68 -188,-68 -110,0 -213,53 -261,151 -22,46 -31,99 -31,152 2,118 54,240 172,290 21,9 52,10 71,-4 19,-13 9,-29 -9,-37 -95,-39 -134,-157 -135,-249 -1,-43 5,-86 21,-125 28,-69 93,-125 172,-125 98,0 141,71 141,159l0 361c0,15 22,27 49,27 27,0 50,-12 50,-27l0 -361c0,-79 29,-157 123,-159 55,-1 97,42 114,89 20,53 20,113 20,170 0,151 28,288 220,288 39,0 74,-8 104,-20 -17,25 -35,47 -55,67 -115,116 -299,167 -484,168 -171,0 -333,-42 -455,-117 -125,-76 -215,-194 -226,-369 -8,-116 35,-231 123,-284 19,-12 15,-29 -4,-38 -20,-9 -51,-9 -70,2 -106,65 -157,194 -148,324 15,206 133,341 293,424 137,71 308,112 489,111 203,-1 404,-54 537,-176 105,-95 159,-233 159,-371 0,-131 -53,-262 -188,-314 -23,-8 -55,-11 -75,5 -18,15 -4,31 14,37 109,39 154,169 150,272 -5,93 -52,226 -164,226 -119,0 -122,-153 -122,-235 0,-60 0,-124 -21,-181 -33,-88 -116,-133 -211,-131 -75,2 -138,25 -175,68z"/>
 </g>
</svg>
