<?xml version="1.0" encoding="UTF-8" standalone="no"?>
<!-- Creator: CorelDRAW X8 -->

<svg
   xmlns:dc="http://purl.org/dc/elements/1.1/"
   xmlns:cc="http://creativecommons.org/ns#"
   xmlns:rdf="http://www.w3.org/1999/02/22-rdf-syntax-ns#"
   xmlns:svg="http://www.w3.org/2000/svg"
   xmlns="http://www.w3.org/2000/svg"
   xmlns:sodipodi="http://sodipodi.sourceforge.net/DTD/sodipodi-0.dtd"
   xmlns:inkscape="http://www.inkscape.org/namespaces/inkscape"
   xml:space="preserve"
   width="3132px"
   height="1024px"
   version="1.1"
   style="shape-rendering:geometricPrecision; text-rendering:geometricPrecision; image-rendering:optimizeQuality; fill-rule:evenodd; clip-rule:evenodd"
   viewBox="0 0 3132 1024"
   id="svg10"
   sodipodi:docname="സ്ഥ.svg"
   inkscape:version="0.92.3 (2405546, 2018-03-11)"><metadata
   id="metadata14"><rdf:RDF><cc:Work
       rdf:about=""><dc:format>image/svg+xml</dc:format><dc:type
         rdf:resource="http://purl.org/dc/dcmitype/StillImage" /></cc:Work></rdf:RDF></metadata><sodipodi:namedview
   pagecolor="#ffffff"
   bordercolor="#666666"
   borderopacity="1"
   objecttolerance="10"
   gridtolerance="10"
   guidetolerance="10"
   inkscape:pageopacity="0"
   inkscape:pageshadow="2"
   inkscape:window-width="3200"
   inkscape:window-height="1693"
   id="namedview12"
   showgrid="false"
   inkscape:zoom="0.15581098"
   inkscape:cx="904.94262"
   inkscape:cy="512"
   inkscape:window-x="0"
   inkscape:window-y="0"
   inkscape:window-maximized="1"
   inkscape:current-layer="Layer_x0020_1" />
 <defs
   id="defs4">
  <style
   type="text/css"
   id="style2">
   <![CDATA[
    .fil0 {fill:#669933;fill-rule:nonzero}
   ]]>
  </style>
 </defs>
 <g
   id="Layer_x0020_1">
  <metadata
   id="CorelCorpID_0Corel-Layer" />
  <path
   class="fil0"
   d="m 1082,0 c 155,-3 294,74 348,225 34,96 34,195 35,296 0,142 5,387 201,387 192,0 269,-227 271,-387 2,-172 -74,-372 -248,-437 -37,-14 -47,-42 -23,-63 33,-28 86,-23 124,-8 211,84 312,289 309,508 -3,158 -55,300 -159,387 h 316 V 392 c 0,-263 212,-392 431,-392 218,0 445,143 445,399 v 555 c 0,34 -56,45 -81,45 H 1666 c -317,0 -364,-218 -364,-478 0,-96 1,-187 -32,-278 C 1242,163 1172,89 1082,91 927,94 877,228 877,362 v 616 c 0,25 -36,46 -81,46 -45,0 -82,-21 -82,-46 V 362 C 714,212 644,91 482,91 351,91 244,187 198,305 c -26,67 -36,141 -35,214 2,158 67,357 223,423 35,15 42,44 15,64 -32,23 -83,22 -118,7 C 89,927 3,720 0,519 -1,428 14,338 51,259 130,90 299,0 482,0 612,0 721,39 792,116 854,43 958,3 1082,0 Z m 1336,908 h 551 l 1,-509 c 0,-200 -147,-308 -285,-308 -137,0 -267,96 -267,301 z"
   id="path7"
   inkscape:connector-curvature="0"
   style="fill:#669933;fill-rule:nonzero"
   sodipodi:nodetypes="cccscccccccsssssssccsssssscccccccscccccssc" />
 </g>
</svg>