<?xml version="1.0" encoding="UTF-8"?>
<!DOCTYPE svg PUBLIC "-//W3C//DTD SVG 1.1//EN" "http://www.w3.org/Graphics/SVG/1.1/DTD/svg11.dtd">
<!-- Creator: CorelDRAW X8 -->
<svg xmlns="http://www.w3.org/2000/svg" xml:space="preserve" width="1479px" height="868px" version="1.1" style="shape-rendering:geometricPrecision; text-rendering:geometricPrecision; image-rendering:optimizeQuality; fill-rule:evenodd; clip-rule:evenodd"
viewBox="0 0 1479 868"
 xmlns:xlink="http://www.w3.org/1999/xlink">
 <defs>
  <style type="text/css">
   <![CDATA[
    .fil0 {fill:#2B2A29;fill-rule:nonzero}
   ]]>
  </style>
 </defs>
 <g id="Layer_x0020_1">
  <metadata id="CorelCorpID_0Corel-Layer"/>
  <path class="fil0" d="M413 599c14,0 27,-3 37,-11 7,-5 10,-11 10,-16 0,-8 -6,-16 -19,-21 -97,-40 -135,-160 -135,-253 0,-41 6,-81 21,-120 28,-69 93,-125 172,-125 98,0 141,72 141,159l0 360c0,14 22,27 49,27 28,0 49,-13 49,-27l0 -360c0,-77 29,-159 124,-159 58,0 95,38 114,89 19,51 20,107 20,160 0,155 23,297 220,297 39,0 74,-7 104,-19 -16,24 -36,47 -55,67 -123,124 -314,168 -486,168 -170,0 -331,-42 -453,-116 -146,-89 -227,-230 -227,-396 0,-107 43,-208 124,-258 8,-5 12,-11 12,-18 0,-7 -6,-15 -16,-20 -9,-4 -21,-7 -33,-7 -13,0 -27,3 -37,9 -98,60 -149,174 -149,294 0,201 114,360 294,454 136,71 306,111 485,111 189,0 401,-47 541,-176 105,-95 159,-230 159,-368 0,-70 -11,-136 -48,-197 -31,-52 -77,-95 -140,-119 -12,-5 -24,-8 -37,-8 -14,0 -27,4 -38,12 -6,5 -8,10 -8,15 0,9 10,18 22,22 105,38 150,159 150,258 0,93 -46,238 -164,238 -119,0 -122,-160 -122,-243 0,-59 0,-114 -21,-170 -32,-87 -119,-132 -211,-132 -65,0 -131,19 -175,68 -43,-45 -109,-68 -188,-68 -111,0 -213,53 -261,152 -22,46 -31,95 -31,146 0,119 52,243 172,294 9,4 21,7 34,7z"/>
 </g>
</svg>
