<?xml version="1.0" encoding="UTF-8"?>
<!DOCTYPE svg PUBLIC "-//W3C//DTD SVG 1.1//EN" "http://www.w3.org/Graphics/SVG/1.1/DTD/svg11.dtd">
<!-- Creator: CorelDRAW X8 -->
<svg xmlns="http://www.w3.org/2000/svg" xml:space="preserve" width="1292px" height="868px" version="1.1" style="shape-rendering:geometricPrecision; text-rendering:geometricPrecision; image-rendering:optimizeQuality; fill-rule:evenodd; clip-rule:evenodd"
viewBox="0 0 1292 869"
 xmlns:xlink="http://www.w3.org/1999/xlink">
 <defs>
  <style type="text/css">
   <![CDATA[
    .fil0 {fill:#666633;fill-rule:nonzero}
   ]]>
  </style>
 </defs>
 <g id="Layer_x0020_1">
  <metadata id="CorelCorpID_0Corel-Layer"/>
  <path class="fil0" d="M897 801c22,-9 38,-26 37,-51 0,-23 -26,-39 -47,-38 -28,1 -41,28 -41,52 0,18 -26,27 -54,28 -27,0 -55,-9 -55,-28 -1,-24 -14,-51 -41,-52 -21,-1 -47,15 -47,38 -1,25 15,42 37,51 24,11 64,16 104,16 41,0 82,-5 107,-16zm-410 -743c47,-44 113,-58 175,-58 93,0 187,41 221,133 21,56 21,118 21,177 0,51 1,106 18,155 15,40 44,76 91,76 66,0 110,-67 129,-123 13,-37 21,-79 20,-117 0,-100 -46,-212 -146,-247 -18,-7 -35,-23 -15,-39 24,-20 69,-17 96,-6 63,24 109,68 141,121 52,87 60,220 50,321 -13,139 -67,276 -193,349 -55,33 -126,50 -189,60 -85,12 -190,15 -271,-14 -40,-13 -89,-49 -88,-96 0,-28 19,-50 42,-64 29,-18 73,-24 108,-24 31,0 66,5 94,19 29,-14 64,-19 95,-19 35,0 79,6 108,24 23,15 43,36 43,64 0,3 0,6 -1,8 72,-51 97,-112 119,-193 -40,24 -89,35 -142,35 -87,0 -165,-25 -204,-108 -26,-56 -27,-119 -27,-179 0,-56 0,-116 -20,-169 -14,-39 -54,-86 -99,-85 -84,2 -111,82 -111,154l0 358c0,23 -45,29 -62,29 -17,0 -61,-6 -61,-29l0 -358c0,-80 -39,-154 -127,-154 -71,0 -133,59 -158,121 -15,37 -21,77 -21,116 -1,94 37,214 132,252 19,8 30,25 10,40 -23,16 -68,15 -93,4 -119,-50 -172,-172 -172,-296 0,-49 9,-99 31,-143 50,-104 159,-153 271,-153 65,0 135,14 185,58z"/>
 </g>
</svg>
