<?xml version="1.0" encoding="UTF-8"?>
<!DOCTYPE svg PUBLIC "-//W3C//DTD SVG 1.1//EN" "http://www.w3.org/Graphics/SVG/1.1/DTD/svg11.dtd">
<!-- Creator: CorelDRAW X8 -->
<svg xmlns="http://www.w3.org/2000/svg" xml:space="preserve" width="1271px" height="868px" version="1.1" style="shape-rendering:geometricPrecision; text-rendering:geometricPrecision; image-rendering:optimizeQuality; fill-rule:evenodd; clip-rule:evenodd"
viewBox="0 0 1271 868"
 xmlns:xlink="http://www.w3.org/1999/xlink">
 <defs>
  <style type="text/css">
   <![CDATA[
    .fil0 {fill:#2B2A29;fill-rule:nonzero}
   ]]>
  </style>
 </defs>
 <g id="Layer_x0020_1">
  <metadata id="CorelCorpID_0Corel-Layer"/>
  <path class="fil0" d="M784 868c45,0 95,-5 144,-15 54,-11 106,-28 148,-52 106,-61 160,-166 182,-278 8,-45 13,-91 13,-136 0,-54 -3,-107 -16,-160 -21,-95 -70,-179 -176,-219 -11,-5 -24,-7 -38,-7 -13,0 -27,3 -37,11 -6,5 -8,10 -8,14 0,10 10,19 22,23 104,37 149,159 149,258 0,93 -45,238 -163,238 -118,0 -121,-161 -121,-244 0,-59 -1,-114 -21,-170 -32,-86 -118,-131 -210,-131 -65,0 -131,18 -175,68 -43,-45 -108,-68 -186,-68 -111,0 -213,53 -260,151 -22,46 -31,96 -31,146 0,119 51,244 171,295 9,4 21,6 33,6 14,0 27,-3 38,-10 6,-5 9,-11 9,-16 0,-8 -6,-17 -18,-22 -97,-39 -135,-159 -135,-253 0,-41 6,-81 21,-119 28,-69 93,-125 172,-125 97,0 139,71 139,158l0 360c0,15 23,27 50,27 27,0 49,-12 49,-27l0 -360c0,-76 28,-158 123,-158 58,0 95,38 113,89 19,50 20,106 20,159 0,155 23,297 219,297 58,0 113,-15 159,-50 -16,93 -60,180 -148,229 0,-4 1,-7 1,-11 0,-51 -75,-79 -118,-88 -32,-8 -69,-12 -114,-12 -49,0 -92,5 -125,13 -41,11 -110,38 -110,88 0,34 36,68 107,86 39,11 85,15 128,15zm0 -49c-99,0 -146,-26 -146,-52 0,-27 52,-51 146,-51 93,0 142,26 142,51 0,25 -44,52 -142,52z"/>
 </g>
</svg>
