<?xml version="1.0" encoding="UTF-8"?>
<!DOCTYPE svg PUBLIC "-//W3C//DTD SVG 1.1//EN" "http://www.w3.org/Graphics/SVG/1.1/DTD/svg11.dtd">
<!-- Creator: CorelDRAW X8 -->
<svg xmlns="http://www.w3.org/2000/svg" xml:space="preserve" width="1272px" height="868px" version="1.1" style="shape-rendering:geometricPrecision; text-rendering:geometricPrecision; image-rendering:optimizeQuality; fill-rule:evenodd; clip-rule:evenodd"
viewBox="0 0 1272 868"
 xmlns:xlink="http://www.w3.org/1999/xlink">
 <defs>
  <style type="text/css">
   <![CDATA[
    .fil0 {fill:#CC9933}
   ]]>
  </style>
 </defs>
 <g id="Layer_x0020_1">
  <metadata id="CorelCorpID_0Corel-Layer"/>
  <path class="fil0" d="M782 821c38,0 83,-3 118,-18 23,-10 40,-27 39,-53 -1,-29 -35,-41 -61,-41 -34,0 -53,23 -53,56 1,18 -28,24 -42,24 -15,0 -43,-6 -43,-24 0,-33 -19,-56 -53,-56 -25,0 -59,12 -60,41 -1,26 15,43 39,53 33,15 79,18 116,18zm-304 -753c37,-43 100,-66 174,-68 94,-2 178,43 210,131 21,57 21,121 21,181 0,82 3,233 122,233 116,0 162,-140 163,-233 1,-101 -44,-225 -149,-263 -14,-5 -22,-13 -22,-22 0,-5 3,-10 8,-15 11,-9 25,-12 40,-12 12,1 24,3 35,7 103,40 153,124 176,218 11,46 16,98 16,150 0,54 -5,109 -16,158 -23,108 -75,208 -179,268 -51,30 -119,49 -186,59 -37,5 -74,8 -108,8 -48,0 -102,-5 -147,-21 -51,-17 -87,-56 -87,-95 1,-22 13,-45 42,-63 24,-15 60,-22 96,-23 32,0 69,7 96,24 26,-17 63,-24 95,-24 36,1 73,8 97,23 29,18 42,41 42,63 0,9 -2,19 -6,28 90,-49 136,-132 152,-232 -40,31 -93,50 -158,50 -191,0 -219,-135 -220,-286 0,-57 1,-117 -19,-170 -17,-47 -59,-90 -114,-89 -93,2 -123,80 -123,159l0 359c0,15 -22,27 -49,27 -27,0 -49,-14 -49,-28l0 -360c0,-88 -43,-159 -140,-159 -80,0 -144,57 -171,125 -16,40 -22,83 -22,125 2,92 41,210 135,248 12,5 19,13 19,21 0,6 -3,12 -10,16 -11,8 -26,12 -41,12 -11,0 -21,-2 -30,-6 -118,-50 -169,-171 -171,-289 -1,-53 9,-106 31,-152 47,-98 149,-151 260,-151 78,0 144,23 187,68z"/>
 </g>
</svg>
