<?xml version="1.0" encoding="UTF-8"?>
<!DOCTYPE svg PUBLIC "-//W3C//DTD SVG 1.1//EN" "http://www.w3.org/Graphics/SVG/1.1/DTD/svg11.dtd">
<!-- Creator: CorelDRAW X8 -->
<svg xmlns="http://www.w3.org/2000/svg" xml:space="preserve" width="2069px" height="1486px" version="1.1" style="shape-rendering:geometricPrecision; text-rendering:geometricPrecision; image-rendering:optimizeQuality; fill-rule:evenodd; clip-rule:evenodd"
viewBox="0 0 2069 1486"
 xmlns:xlink="http://www.w3.org/1999/xlink">
 <defs>
  <style type="text/css">
   <![CDATA[
    .fil0 {fill:#CC9933}
   ]]>
  </style>
 </defs>
 <g id="Layer_x0020_1">
  <metadata id="CorelCorpID_0Corel-Layer"/>
  <path class="fil0" d="M2051 898c14,-76 20,-154 21,-232 1,-124 -11,-276 -59,-391 -50,-119 -135,-216 -254,-264 -15,-6 -32,-11 -49,-11 -17,0 -34,5 -47,17 -7,6 -10,12 -10,18 0,13 12,24 27,30 180,67 259,284 257,465 -3,175 -85,424 -291,424 -97,0 -158,-56 -190,-149 -30,-87 -31,-184 -31,-276 0,-103 -1,-210 -35,-308 -50,-144 -183,-221 -328,-221 -126,0 -209,36 -289,133 -90,-99 -180,-133 -311,-133 -176,0 -336,91 -412,256 -35,77 -50,164 -50,249 -1,205 81,423 275,510 13,5 28,9 42,9 18,0 35,-4 48,-14 9,-6 13,-14 13,-21 0,-11 -10,-22 -24,-28 -167,-72 -232,-285 -231,-456 0,-70 10,-141 36,-207 49,-129 163,-228 303,-228 171,0 252,124 252,289l0 630c0,26 42,35 62,35 19,0 61,-9 61,-35l0 -631c0,-151 59,-284 224,-288 99,-2 177,73 209,164 32,94 32,197 32,295 0,107 2,219 46,318 58,132 167,177 298,177 116,0 216,-41 292,-129 -11,165 -89,329 -229,423 -23,15 -48,30 -75,45 10,-21 15,-44 15,-67 0,-45 -29,-79 -64,-102 -41,-26 -99,-36 -146,-36 -62,0 -107,13 -158,47 -52,-34 -96,-47 -158,-47 -47,0 -106,10 -146,36 -35,23 -63,58 -63,102 -2,74 70,133 134,156 72,26 157,35 233,34 58,-1 117,-5 175,-14 100,-16 211,-46 298,-98 173,-106 260,-280 297,-476zm-771 531c-66,0 -145,-4 -206,-32 -41,-20 -74,-52 -72,-101 2,-60 71,-83 120,-84 67,0 108,41 108,109 0,24 32,30 51,30 18,0 51,-6 51,-30 0,-68 41,-109 107,-109 50,1 119,24 121,84 1,49 -31,81 -73,101 -61,28 -140,33 -207,32z"/>
 </g>
</svg>
