<?xml version="1.0" encoding="UTF-8"?>
<!DOCTYPE svg PUBLIC "-//W3C//DTD SVG 1.1//EN" "http://www.w3.org/Graphics/SVG/1.1/DTD/svg11.dtd">
<!-- Creator: CorelDRAW X8 -->
<svg xmlns="http://www.w3.org/2000/svg" xml:space="preserve" width="2403px" height="1486px" version="1.1" style="shape-rendering:geometricPrecision; text-rendering:geometricPrecision; image-rendering:optimizeQuality; fill-rule:evenodd; clip-rule:evenodd"
viewBox="0 0 2403 1486"
 xmlns:xlink="http://www.w3.org/1999/xlink">
 <defs>
  <style type="text/css">
   <![CDATA[
    .fil0 {fill:#B2B09C;fill-rule:nonzero}
   ]]>
  </style>
 </defs>
 <g id="Layer_x0020_1">
  <metadata id="CorelCorpID_0Corel-Layer"/>
  <path class="fil0" d="M1115 133c-89,-100 -180,-133 -311,-133 -175,0 -336,91 -411,256 -35,77 -50,164 -50,249 -1,205 81,423 275,510 27,12 65,13 90,-5 23,-17 11,-39 -12,-49 -166,-72 -231,-285 -231,-456 1,-70 11,-142 36,-207 50,-129 164,-228 303,-228 172,0 253,124 253,289l0 629c0,27 42,36 61,36 20,0 62,-9 62,-36l0 -630c0,-151 59,-284 224,-288 99,-2 176,73 208,164 33,93 33,197 33,295 0,107 1,218 45,318 57,129 165,177 299,177 81,0 152,-21 211,-59 -34,55 -69,107 -114,154 -205,217 -528,296 -815,297 -264,1 -543,-62 -767,-206 -234,-149 -361,-370 -379,-649 -12,-184 46,-398 208,-502 24,-16 19,-38 -5,-50 -24,-12 -63,-11 -86,3 -182,117 -255,346 -240,556 23,329 193,573 478,728 240,131 521,191 793,190 305,-2 643,-82 870,-300 172,-165 261,-401 260,-639 -1,-224 -81,-446 -302,-536 -29,-12 -70,-17 -95,6 -22,19 -6,40 17,48 176,67 255,267 256,448 0,69 -12,143 -34,208 -40,123 -119,232 -256,232 -99,0 -159,-56 -191,-148 -30,-87 -31,-185 -31,-276 0,-103 0,-210 -34,-308 -50,-144 -184,-221 -329,-221 -125,0 -208,36 -289,133z"/>
 </g>
</svg>
