<?xml version="1.0" encoding="UTF-8"?>
<!DOCTYPE svg PUBLIC "-//W3C//DTD SVG 1.1//EN" "http://www.w3.org/Graphics/SVG/1.1/DTD/svg11.dtd">
<!-- Creator: CorelDRAW X8 -->
<svg xmlns="http://www.w3.org/2000/svg" xml:space="preserve" width="1272px" height="868px" version="1.1" style="shape-rendering:geometricPrecision; text-rendering:geometricPrecision; image-rendering:optimizeQuality; fill-rule:evenodd; clip-rule:evenodd"
viewBox="0 0 1272 868"
 xmlns:xlink="http://www.w3.org/1999/xlink">
 <defs>
  <style type="text/css">
   <![CDATA[
    .fil0 {fill:#2B2A29;fill-rule:nonzero}
   ]]>
  </style>
 </defs>
 <g id="Layer_x0020_1">
  <metadata id="CorelCorpID_0Corel-Layer"/>
  <path class="fil0" d="M1259 523c8,-45 13,-91 13,-136 0,-54 -3,-107 -16,-160 -21,-95 -70,-179 -176,-219 -11,-5 -25,-7 -38,-7 -13,0 -27,3 -37,11 -6,5 -8,10 -8,14 0,10 10,19 22,23 104,37 149,159 149,258 0,93 -45,238 -163,238 -118,0 -121,-161 -121,-244 0,-59 -1,-114 -21,-170 -32,-86 -119,-131 -210,-131 -66,0 -131,18 -175,68 -43,-45 -109,-68 -187,-68 -111,0 -213,53 -260,151 -22,46 -31,96 -31,146 0,119 51,244 171,295 9,4 21,6 33,6 14,0 28,-3 38,-10 6,-5 10,-11 10,-16 0,-8 -6,-17 -19,-22 -97,-39 -135,-159 -135,-253 0,-41 6,-81 21,-119 28,-69 93,-125 172,-125 97,0 140,71 140,158l0 360c0,15 22,27 49,27 27,0 49,-12 49,-27l0 -360c0,-76 28,-158 124,-158 57,0 94,38 113,89 19,50 19,106 19,159 0,155 24,297 220,297 57,0 113,-15 158,-50 -16,96 -60,182 -152,232 4,-10 6,-20 6,-29 -1,-25 -17,-47 -42,-62 -24,-15 -61,-23 -97,-23 -32,0 -69,7 -95,24 -27,-17 -63,-24 -95,-24 -37,0 -73,8 -97,23 -29,18 -41,41 -41,63 0,46 45,81 86,95 42,16 94,21 146,21 54,0 115,-6 173,-20 44,-11 86,-26 122,-47 105,-60 160,-166 182,-278zm-477 299c-37,0 -82,-3 -116,-17 -23,-10 -39,-26 -39,-50 0,-33 34,-44 62,-44 33,0 51,24 51,56 0,18 28,23 43,23 14,0 43,-5 43,-23 0,-32 18,-56 51,-56 27,0 62,11 62,42 0,25 -16,42 -39,52 -35,15 -80,17 -118,17z"/>
 </g>
</svg>
