<?xml version="1.0" encoding="UTF-8"?>
<!DOCTYPE svg PUBLIC "-//W3C//DTD SVG 1.1//EN" "http://www.w3.org/Graphics/SVG/1.1/DTD/svg11.dtd">
<!-- Creator: CorelDRAW X8 -->
<svg xmlns="http://www.w3.org/2000/svg" xml:space="preserve" width="1865px" height="1012px" version="1.1" style="shape-rendering:geometricPrecision; text-rendering:geometricPrecision; image-rendering:optimizeQuality; fill-rule:evenodd; clip-rule:evenodd"
viewBox="0 0 1865 1012"
 xmlns:xlink="http://www.w3.org/1999/xlink">
 <defs>
  <style type="text/css">
   <![CDATA[
    .fil0 {fill:#CC9933;fill-rule:nonzero}
   ]]>
  </style>
 </defs>
 <g id="Layer_x0020_1">
  <metadata id="CorelCorpID_0Corel-Layer"/>
  <path class="fil0" d="M1495 951c-10,5 -20,13 -21,25 0,10 7,19 15,24 13,8 28,12 43,12 18,0 36,-5 51,-12 175,-91 284,-279 282,-480 -3,-298 -238,-520 -526,-520 -284,0 -520,209 -526,506 -4,173 65,310 191,423l-404 0c43,-61 62,-112 62,-188 0,-188 -159,-294 -330,-294 -171,0 -332,105 -332,293 0,113 55,214 156,262 14,7 32,11 49,10 15,-1 30,-5 41,-13 8,-6 15,-14 14,-24 -1,-13 -13,-21 -23,-26 -79,-36 -114,-124 -114,-208 0,-125 84,-224 209,-224 126,1 207,100 207,224 0,78 -28,157 -97,198 -8,5 -17,14 -17,25 0,27 42,35 62,35l657 0c19,0 61,-9 60,-35 -1,-12 -12,-20 -21,-25 -164,-82 -249,-250 -246,-433 4,-241 156,-437 402,-437 250,1 402,208 402,451 1,181 -84,350 -246,431z"/>
 </g>
</svg>
