<?xml version="1.0" encoding="UTF-8"?>
<!DOCTYPE svg PUBLIC "-//W3C//DTD SVG 1.1//EN" "http://www.w3.org/Graphics/SVG/1.1/DTD/svg11.dtd">
<!-- Creator: CorelDRAW X8 -->
<svg xmlns="http://www.w3.org/2000/svg" xml:space="preserve" width="1865px" height="1024px" version="1.1" style="shape-rendering:geometricPrecision; text-rendering:geometricPrecision; image-rendering:optimizeQuality; fill-rule:evenodd; clip-rule:evenodd"
viewBox="0 0 1865 1024"
 xmlns:xlink="http://www.w3.org/1999/xlink">
 <defs>
  <style type="text/css">
   <![CDATA[
    .fil0 {fill:#2B2A29;fill-rule:nonzero}
   ]]>
  </style>
 </defs>
 <g id="Layer_x0020_1">
  <metadata id="CorelCorpID_0Corel-Layer"/>
  <path class="fil0" d="M1534 1018c17,0 34,-4 49,-12 173,-89 282,-276 282,-475 0,-295 -231,-525 -526,-525 -296,0 -526,221 -526,520 0,167 68,299 191,409l-404 0c43,-61 62,-112 62,-188 0,-188 -159,-294 -330,-294 -171,0 -332,105 -332,293 0,113 55,214 156,262 13,6 29,10 45,10 17,0 33,-4 45,-13 10,-7 14,-15 14,-22 0,-11 -9,-21 -23,-28 -79,-37 -114,-124 -114,-208 0,-125 84,-224 209,-224 126,0 207,100 207,224 0,78 -28,157 -97,198 -8,5 -17,14 -17,25 0,27 42,35 62,35l657 0c20,0 60,-9 60,-34 0,-12 -12,-21 -21,-26 -161,-81 -246,-244 -246,-424 0,-239 148,-447 402,-446 256,0 402,214 402,454 0,180 -85,347 -246,428 -13,7 -21,16 -21,26 0,8 4,16 15,23 13,8 29,12 45,12z"/>
 </g>
</svg>
