<?xml version="1.0" encoding="UTF-8"?>
<!DOCTYPE svg PUBLIC "-//W3C//DTD SVG 1.1//EN" "http://www.w3.org/Graphics/SVG/1.1/DTD/svg11.dtd">
<!-- Creator: CorelDRAW X8 -->
<svg xmlns="http://www.w3.org/2000/svg" xml:space="preserve" width="1164px" height="593px" version="1.1" style="shape-rendering:geometricPrecision; text-rendering:geometricPrecision; image-rendering:optimizeQuality; fill-rule:evenodd; clip-rule:evenodd"
viewBox="0 0 1164 593"
 xmlns:xlink="http://www.w3.org/1999/xlink">
 <defs>
  <style type="text/css">
   <![CDATA[
    .fil0 {fill:#2B2A29;fill-rule:nonzero}
   ]]>
  </style>
 </defs>
 <g id="Layer_x0020_1">
  <metadata id="CorelCorpID_0Corel-Layer"/>
  <path class="fil0" d="M950 593c12,0 26,-4 37,-9 109,-53 177,-164 177,-279 0,-179 -152,-305 -334,-305 -180,0 -333,126 -333,305 0,89 39,170 107,227l-207 0c21,-28 32,-63 32,-101 0,-115 -107,-175 -214,-175 -107,0 -215,60 -215,175 0,68 36,126 100,155 10,5 22,7 34,7 15,0 28,-3 38,-10 8,-5 11,-11 11,-16 0,-9 -7,-17 -18,-22 -45,-19 -65,-69 -65,-114 0,-79 58,-122 115,-122 58,0 114,44 114,122 0,42 -16,87 -55,109 -8,4 -14,11 -14,19 0,15 22,27 50,27l401 0c16,0 49,-8 49,-27 0,-7 -6,-14 -17,-19 -99,-47 -146,-139 -146,-235 0,-133 86,-253 233,-252 151,0 234,125 234,252 0,101 -49,196 -146,242 -11,4 -17,12 -17,20 0,5 4,11 12,17 11,6 24,9 37,9z"/>
 </g>
</svg>
