<?xml version="1.0" encoding="UTF-8"?>
<!DOCTYPE svg PUBLIC "-//W3C//DTD SVG 1.1//EN" "http://www.w3.org/Graphics/SVG/1.1/DTD/svg11.dtd">
<!-- Creator: CorelDRAW X8 -->
<svg xmlns="http://www.w3.org/2000/svg" xml:space="preserve" width="1880px" height="1486px" version="1.1" style="shape-rendering:geometricPrecision; text-rendering:geometricPrecision; image-rendering:optimizeQuality; fill-rule:evenodd; clip-rule:evenodd"
viewBox="0 0 1880 1486"
 xmlns:xlink="http://www.w3.org/1999/xlink">
 <defs>
  <style type="text/css">
   <![CDATA[
    .fil0 {fill:#CC9933;fill-rule:nonzero}
   ]]>
  </style>
 </defs>
 <g id="Layer_x0020_1">
  <metadata id="CorelCorpID_0Corel-Layer"/>
  <path class="fil0" d="M813 506c-4,173 65,310 191,423l-404 0c43,-61 62,-112 62,-188 0,-188 -159,-294 -330,-294 -171,0 -332,105 -332,293 0,113 55,213 156,262 14,7 32,11 49,10 15,-1 30,-5 41,-13 8,-6 15,-14 14,-24 -1,-13 -13,-21 -23,-26 -79,-36 -114,-124 -114,-208 0,-125 84,-224 209,-224 126,1 207,100 207,224 0,78 -28,157 -97,198 -9,5 -17,14 -17,25 0,26 42,35 62,35l657 0c20,0 61,-9 60,-35 -1,-12 -12,-21 -21,-25 -164,-82 -250,-250 -246,-434 4,-237 153,-437 403,-436 133,0 250,65 326,174 63,91 93,205 92,315 -2,329 -206,542 -533,542l-949 0c-125,0 -273,30 -276,187 -3,163 147,199 276,199l1469 0c31,0 61,-26 61,-59 0,-33 -30,-59 -61,-59l-1469 0c-66,0 -149,-12 -151,-98 -2,-85 86,-101 151,-101l950 0c369,0 644,-215 654,-603 4,-150 -47,-294 -150,-403 -104,-111 -241,-163 -391,-163 -285,0 -520,210 -526,506z"/>
 </g>
</svg>
