<?xml version="1.0" encoding="UTF-8"?>
<!DOCTYPE svg PUBLIC "-//W3C//DTD SVG 1.1//EN" "http://www.w3.org/Graphics/SVG/1.1/DTD/svg11.dtd">
<!-- Creator: CorelDRAW X8 -->
<svg xmlns="http://www.w3.org/2000/svg" xml:space="preserve" width="2866px" height="1412px" version="1.1" style="shape-rendering:geometricPrecision; text-rendering:geometricPrecision; image-rendering:optimizeQuality; fill-rule:evenodd; clip-rule:evenodd"
viewBox="0 0 2866 1412"
 xmlns:xlink="http://www.w3.org/1999/xlink">
 <defs>
  <style type="text/css">
   <![CDATA[
    .fil0 {fill:#2B2A29;fill-rule:nonzero}
   ]]>
  </style>
 </defs>
 <g id="Layer_x0020_1">
  <metadata id="CorelCorpID_0Corel-Layer"/>
  <path class="fil0" d="M1287 0c-175,0 -336,91 -412,256 -36,78 -50,156 -50,243 0,165 51,313 176,430l-401 0c43,-60 62,-112 62,-188 0,-189 -160,-294 -331,-294 -170,0 -331,105 -331,293 0,113 55,213 156,262 13,7 29,10 44,10 17,0 34,-4 47,-14 9,-6 13,-14 13,-21 0,-11 -9,-21 -23,-28 -79,-36 -114,-125 -114,-209 0,-125 84,-223 209,-223 126,0 207,100 207,224 0,77 -28,158 -96,198 -9,6 -18,14 -18,25 0,27 42,36 62,36l658 0c22,0 58,-10 58,-36 0,-14 -12,-22 -24,-27 -163,-71 -231,-271 -231,-439 0,-72 11,-134 36,-201 49,-129 163,-227 303,-227 167,0 253,120 253,292l0 627c0,26 42,35 61,35 20,0 62,-9 62,-35l0 -603c0,-191 109,-317 308,-317 117,0 214,43 301,122 -137,17 -252,61 -337,178 -59,79 -89,180 -89,279 0,81 20,163 64,231 63,97 165,145 279,145 117,0 218,-56 279,-159 51,-88 72,-192 72,-292 0,-101 -20,-200 -66,-287 200,96 270,309 270,518 0,268 -133,538 -441,538 -86,0 -171,-25 -240,-81 -12,-10 -31,-14 -50,-14 -13,0 -26,2 -36,6 -14,6 -26,17 -26,28 0,7 4,14 12,20 95,77 220,111 340,111 372,0 563,-263 563,-608 0,-291 -148,-557 -452,-609 -113,-140 -268,-195 -443,-195 -145,0 -262,40 -363,139 -96,-108 -188,-139 -321,-139zm902 953c-72,0 -127,-39 -165,-98 -39,-60 -55,-135 -55,-207 0,-90 25,-180 78,-252 71,-96 167,-136 282,-136 63,96 88,196 88,311 0,93 -16,190 -65,271 -37,62 -88,111 -163,111z"/>
 </g>
</svg>
