<?xml version="1.0" encoding="UTF-8"?>
<!DOCTYPE svg PUBLIC "-//W3C//DTD SVG 1.1//EN" "http://www.w3.org/Graphics/SVG/1.1/DTD/svg11.dtd">
<!-- Creator: CorelDRAW X8 -->
<svg xmlns="http://www.w3.org/2000/svg" xml:space="preserve" width="1925px" height="1486px" version="1.1" style="shape-rendering:geometricPrecision; text-rendering:geometricPrecision; image-rendering:optimizeQuality; fill-rule:evenodd; clip-rule:evenodd"
viewBox="0 0 1925 1486"
 xmlns:xlink="http://www.w3.org/1999/xlink">
 <defs>
  <style type="text/css">
   <![CDATA[
    .fil0 {fill:#2B2A29;fill-rule:nonzero}
   ]]>
  </style>
 </defs>
 <g id="Layer_x0020_1">
  <metadata id="CorelCorpID_0Corel-Layer"/>
  <path class="fil0" d="M1817 1486c32,0 61,-26 61,-59 0,-33 -29,-59 -61,-59l-1540 0c-70,0 -152,-13 -152,-101 0,-82 87,-98 152,-98l1167 0c130,0 255,-30 344,-95 95,-69 137,-166 137,-282 0,-118 -50,-214 -155,-269 84,-52 119,-127 119,-206 0,-151 -139,-248 -269,-287 -75,-23 -154,-30 -220,-30 -318,0 -587,174 -587,517 0,168 69,301 192,412l-404 0c42,-61 61,-112 61,-188 0,-188 -159,-294 -330,-294 -170,0 -332,105 -332,293 0,113 55,214 156,262 13,6 29,10 45,10 17,0 33,-4 46,-13 9,-7 13,-14 13,-22 0,-11 -9,-22 -23,-28 -79,-37 -114,-124 -114,-208 0,-125 84,-225 209,-224 126,0 207,100 207,224 0,78 -28,157 -96,198 -9,5 -18,14 -18,25 0,26 42,35 62,35l658 0c20,0 59,-8 59,-34 0,-13 -9,-21 -20,-26 -161,-81 -246,-242 -246,-421 0,-293 174,-448 462,-448 58,0 125,6 186,29 100,37 179,105 179,218 0,46 -13,99 -47,131 -31,29 -58,37 -88,41 -16,2 -34,3 -54,5 -19,2 -52,11 -52,35 0,23 36,34 56,34 18,0 36,0 54,1 35,2 67,10 97,38 51,47 75,123 75,190 0,82 -28,154 -89,210 -68,63 -168,98 -273,98l-1167 0c-130,0 -277,32 -277,192 0,160 148,194 277,194l1540 0z"/>
 </g>
</svg>
