<?xml version="1.0" encoding="UTF-8"?>
<!DOCTYPE svg PUBLIC "-//W3C//DTD SVG 1.1//EN" "http://www.w3.org/Graphics/SVG/1.1/DTD/svg11.dtd">
<!-- Creator: CorelDRAW X8 -->
<svg xmlns="http://www.w3.org/2000/svg" xml:space="preserve" width="1911px" height="1486px" version="1.1" style="shape-rendering:geometricPrecision; text-rendering:geometricPrecision; image-rendering:optimizeQuality; fill-rule:evenodd; clip-rule:evenodd"
viewBox="0 0 1911 1486"
 xmlns:xlink="http://www.w3.org/1999/xlink">
 <defs>
  <style type="text/css">
   <![CDATA[
    .fil0 {fill:#2B2A29;fill-rule:nonzero}
   ]]>
  </style>
 </defs>
 <g id="Layer_x0020_1">
  <metadata id="CorelCorpID_0Corel-Layer"/>
  <path class="fil0" d="M1446 1404c139,-67 256,-182 334,-317 83,-142 131,-294 131,-460 0,-355 -207,-627 -574,-627 -296,0 -524,221 -524,520 0,167 68,299 191,409l-404 0c42,-61 62,-112 62,-188 0,-188 -159,-294 -330,-294 -171,0 -332,104 -332,293 0,113 55,213 156,262 13,6 29,10 45,10 16,0 33,-4 45,-13 10,-7 14,-15 14,-22 0,-11 -9,-22 -23,-28 -79,-37 -114,-125 -114,-208 0,-125 84,-224 209,-224 125,0 207,100 207,224 0,78 -28,157 -97,198 -9,5 -17,14 -17,25 0,26 41,35 62,35l657 0c20,0 59,-8 59,-34 0,-13 -10,-21 -20,-26 -161,-81 -246,-242 -246,-422 0,-240 144,-448 400,-448 323,0 449,273 449,558 0,140 -30,284 -91,409 -69,143 -154,229 -283,315 1,-8 2,-15 2,-22 -1,-92 -110,-134 -186,-152 -59,-13 -120,-19 -181,-19 -66,0 -136,6 -199,22 -64,17 -171,60 -171,141 0,79 103,124 166,141 60,16 141,24 204,24 72,0 147,-7 220,-23 63,-13 124,-32 179,-59zm-398 19c-179,0 -263,-51 -263,-103 0,-51 94,-100 263,-100 168,0 256,53 256,100 0,50 -80,103 -256,103z"/>
 </g>
</svg>
