<?xml version="1.0" encoding="UTF-8"?>
<!DOCTYPE svg PUBLIC "-//W3C//DTD SVG 1.1//EN" "http://www.w3.org/Graphics/SVG/1.1/DTD/svg11.dtd">
<!-- Creator: CorelDRAW X8 -->
<svg xmlns="http://www.w3.org/2000/svg" xml:space="preserve" width="2378px" height="1024px" version="1.1" style="shape-rendering:geometricPrecision; text-rendering:geometricPrecision; image-rendering:optimizeQuality; fill-rule:evenodd; clip-rule:evenodd"
viewBox="0 0 2378 1024"
 xmlns:xlink="http://www.w3.org/1999/xlink">
 <defs>
  <style type="text/css">
   <![CDATA[
    .fil0 {fill:#00A0E3;fill-rule:nonzero}
   ]]>
  </style>
 </defs>
 <g id="Layer_x0020_1">
  <metadata id="CorelCorpID_0Corel-Layer"/>
  <path class="fil0" d="M487 1000l658 0c19,0 62,-11 58,-38 -1,-12 -13,-21 -24,-25 -160,-70 -228,-261 -230,-429 -1,-74 9,-147 35,-216 50,-130 165,-222 304,-222 170,0 252,117 252,283l0 636c0,26 42,35 62,35 19,0 61,-9 61,-35l0 -636c0,-166 82,-283 253,-283 140,0 254,99 303,228 27,70 37,148 36,223 -3,166 -69,370 -231,440 -23,10 -35,32 -12,49 25,19 64,17 91,5 189,-85 272,-293 275,-494 1,-90 -13,-183 -50,-265 -76,-165 -236,-256 -412,-256 -132,0 -225,32 -314,133 -89,-101 -182,-133 -314,-133 -175,0 -336,84 -412,250 -37,81 -52,169 -50,258 2,171 52,306 175,421l-401 0c43,-60 62,-112 62,-188 0,-189 -160,-294 -331,-294 -170,0 -331,105 -331,293 0,113 55,213 156,262 28,13 65,14 91,-4 23,-17 13,-38 -10,-49 -79,-36 -114,-125 -114,-209 0,-125 84,-223 209,-223 126,0 207,100 207,224 0,77 -28,158 -96,198 -9,6 -18,14 -18,25 0,27 42,36 62,36z"/>
 </g>
</svg>
