<?xml version="1.0" encoding="UTF-8"?>
<!DOCTYPE svg PUBLIC "-//W3C//DTD SVG 1.1//EN" "http://www.w3.org/Graphics/SVG/1.1/DTD/svg11.dtd">
<!-- Creator: CorelDRAW X8 -->
<svg xmlns="http://www.w3.org/2000/svg" xml:space="preserve" width="1832px" height="1012px" version="1.1" style="shape-rendering:geometricPrecision; text-rendering:geometricPrecision; image-rendering:optimizeQuality; fill-rule:evenodd; clip-rule:evenodd"
viewBox="0 0 1832 1012"
 xmlns:xlink="http://www.w3.org/1999/xlink">
 <defs>
  <style type="text/css">
   <![CDATA[
    .fil0 {fill:#B2B09C;fill-rule:nonzero}
   ]]>
  </style>
 </defs>
 <g id="Layer_x0020_1">
  <metadata id="CorelCorpID_0Corel-Layer"/>
  <path class="fil0" d="M1190 930c130,-91 242,-217 297,-366 24,-64 38,-133 37,-205 -2,-152 -71,-254 -170,-292 87,9 171,25 248,96 68,63 107,155 107,263l0 504 -519 0zm-331 -1l-259 0c43,-61 62,-112 62,-188 0,-188 -159,-294 -330,-294 -171,0 -332,105 -332,293 0,113 55,214 156,262 27,13 66,15 90,-3 24,-17 14,-39 -9,-50 -79,-36 -114,-124 -114,-208 0,-125 84,-224 209,-224 126,1 207,100 207,224 0,78 -28,157 -97,198 -8,6 -17,14 -17,25 0,26 42,36 62,36l1283 0c21,0 62,-9 62,-35l0 -539c0,-116 -40,-221 -126,-300 -98,-90 -231,-126 -361,-126 -128,0 -263,37 -361,127 -85,78 -125,183 -125,299l0 503zm229 -765c38,-35 85,-56 136,-56 131,1 180,138 179,253 -1,70 -14,135 -36,195 -65,171 -212,299 -385,374l0 -504c0,-100 32,-194 106,-262z"/>
 </g>
</svg>
