<?xml version="1.0" encoding="UTF-8"?>
<!DOCTYPE svg PUBLIC "-//W3C//DTD SVG 1.1//EN" "http://www.w3.org/Graphics/SVG/1.1/DTD/svg11.dtd">
<!-- Creator: CorelDRAW X8 -->
<svg xmlns="http://www.w3.org/2000/svg" xml:space="preserve" width="2540px" height="1024px" version="1.1" style="shape-rendering:geometricPrecision; text-rendering:geometricPrecision; image-rendering:optimizeQuality; fill-rule:evenodd; clip-rule:evenodd"
viewBox="0 0 2540 1024"
 xmlns:xlink="http://www.w3.org/1999/xlink">
 <defs>
  <style type="text/css">
   <![CDATA[
    .fil0 {fill:#00A0E3;fill-rule:nonzero}
   ]]>
  </style>
 </defs>
 <g id="Layer_x0020_1">
  <metadata id="CorelCorpID_0Corel-Layer"/>
  <path class="fil0" d="M1662 988l0 -600c0,-192 111,-315 301,-319 120,-2 220,41 309,122 -136,17 -251,61 -337,178 -59,79 -89,180 -89,279 0,81 20,163 64,231 63,97 164,144 276,145 118,1 221,-55 282,-159 49,-83 71,-185 72,-281 2,-136 -32,-267 -115,-375 -114,-150 -280,-209 -461,-209 -142,0 -254,40 -356,140 -93,-106 -183,-140 -321,-140 -171,0 -337,88 -411,250 -37,81 -52,169 -51,258 3,170 53,305 176,421l-401 0c43,-61 62,-114 62,-189 0,-188 -159,-293 -330,-294 -170,0 -332,105 -332,294 0,112 55,213 156,261 28,13 65,15 90,-3 24,-17 14,-39 -9,-50 -79,-36 -114,-124 -114,-208 0,-125 84,-224 209,-223 125,0 207,99 207,223 0,78 -28,158 -97,199 -9,5 -17,14 -17,25 0,26 42,35 62,35l657 0c20,0 63,-10 59,-38 -2,-12 -14,-20 -24,-25 -161,-70 -228,-261 -231,-428 -1,-74 9,-147 36,-216 49,-128 166,-222 303,-222 173,0 253,130 253,294l0 624c0,27 42,35 61,35 20,0 61,-8 61,-35zm667 -728c65,100 90,204 88,324 -1,88 -19,182 -65,258 -37,63 -89,112 -165,111 -70,-1 -125,-41 -163,-99 -38,-60 -55,-135 -55,-206 0,-90 25,-180 79,-252 70,-96 166,-136 281,-136z"/>
 </g>
</svg>
