<?xml version="1.0" encoding="UTF-8"?>
<!DOCTYPE svg PUBLIC "-//W3C//DTD SVG 1.1//EN" "http://www.w3.org/Graphics/SVG/1.1/DTD/svg11.dtd">
<!-- Creator: CorelDRAW X8 -->
<svg xmlns="http://www.w3.org/2000/svg" xml:space="preserve" width="2540px" height="1024px" version="1.1" style="shape-rendering:geometricPrecision; text-rendering:geometricPrecision; image-rendering:optimizeQuality; fill-rule:evenodd; clip-rule:evenodd"
viewBox="0 0 2540 1024"
 xmlns:xlink="http://www.w3.org/1999/xlink">
 <defs>
  <style type="text/css">
   <![CDATA[
    .fil0 {fill:#2B2A29;fill-rule:nonzero}
   ]]>
  </style>
 </defs>
 <g id="Layer_x0020_1">
  <metadata id="CorelCorpID_0Corel-Layer"/>
  <path class="fil0" d="M2189 1024c118,0 219,-56 279,-159 52,-88 72,-192 72,-293 0,-131 -34,-258 -115,-363 -114,-150 -273,-209 -454,-209 -142,0 -260,39 -363,140 -93,-105 -182,-140 -321,-140 -175,0 -336,91 -412,256 -36,78 -50,156 -50,243 0,165 51,313 176,430l-401 0c43,-60 62,-112 62,-188 0,-189 -160,-294 -331,-294 -170,0 -331,105 -331,293 0,113 55,213 156,262 13,6 29,10 44,10 17,0 33,-4 47,-14 9,-6 13,-14 13,-21 0,-11 -9,-21 -23,-28 -79,-37 -114,-125 -114,-209 0,-125 84,-223 209,-223 126,0 207,100 207,224 0,77 -28,157 -96,198 -9,6 -18,14 -18,25 0,27 42,36 62,36l658 0c21,0 58,-10 58,-37 0,-13 -13,-21 -24,-26 -163,-71 -231,-271 -231,-439 0,-72 10,-134 36,-201 49,-129 163,-227 303,-227 172,0 253,130 253,294l0 624c0,27 42,35 61,35 20,0 61,-8 61,-35l0 -600c0,-192 114,-319 309,-319 117,0 214,43 301,122 -137,17 -251,61 -337,178 -58,79 -89,180 -89,279 0,81 20,163 64,231 63,97 165,145 279,145zm0 -71c-71,0 -127,-41 -164,-99 -39,-60 -56,-135 -56,-206 0,-90 26,-180 79,-252 71,-96 166,-136 281,-136 63,96 88,196 88,311 0,93 -16,190 -65,271 -37,62 -88,111 -163,111z"/>
 </g>
</svg>
