<?xml version="1.0" encoding="UTF-8"?>
<!DOCTYPE svg PUBLIC "-//W3C//DTD SVG 1.1//EN" "http://www.w3.org/Graphics/SVG/1.1/DTD/svg11.dtd">
<!-- Creator: CorelDRAW X8 -->
<svg xmlns="http://www.w3.org/2000/svg" xml:space="preserve" width="1925px" height="1486px" version="1.1" style="shape-rendering:geometricPrecision; text-rendering:geometricPrecision; image-rendering:optimizeQuality; fill-rule:evenodd; clip-rule:evenodd"
viewBox="0 0 1925 1486"
 xmlns:xlink="http://www.w3.org/1999/xlink">
 <defs>
  <style type="text/css">
   <![CDATA[
    .fil0 {fill:#2B2A29;fill-rule:nonzero}
   ]]>
  </style>
 </defs>
 <g id="Layer_x0020_1">
  <metadata id="CorelCorpID_0Corel-Layer"/>
  <path class="fil0" d="M1817 1487c33,0 61,-27 61,-60 0,-32 -28,-59 -61,-59l-1541 0c-70,0 -152,-12 -152,-100 0,-82 89,-99 152,-99l1168 0c131,0 256,-29 344,-94 94,-70 138,-166 138,-283 0,-117 -50,-213 -156,-268 84,-54 119,-127 119,-207 0,-152 -140,-248 -269,-287 -76,-23 -153,-31 -219,-31 -320,0 -588,174 -588,519 0,168 70,301 193,411l-406 0c43,-61 61,-112 61,-188 0,-189 -158,-293 -330,-293 -170,0 -332,104 -332,293 0,113 56,213 156,262 15,6 29,10 45,10 17,0 33,-4 47,-14 9,-6 13,-14 13,-22 0,-11 -8,-21 -23,-27 -80,-37 -115,-125 -115,-209 0,-122 82,-223 209,-223 129,0 207,99 207,223 0,78 -26,158 -96,199 -8,4 -16,14 -16,24 0,27 41,35 61,35l658 0c20,0 59,-8 59,-33 0,-14 -10,-22 -20,-26 -160,-82 -246,-242 -246,-422 0,-293 174,-447 463,-447 57,0 125,6 184,29 101,37 181,104 181,217 0,47 -15,100 -47,131 -29,29 -64,43 -105,43 -26,0 -90,1 -90,37 0,37 63,37 90,37 42,0 76,10 103,27 61,39 90,115 90,200 0,82 -29,154 -90,211 -68,62 -169,99 -273,99l-1168 0c-129,0 -277,30 -277,190 0,160 148,195 277,195l1541 0z"/>
 </g>
</svg>
