<?xml version="1.0" encoding="UTF-8"?>
<!DOCTYPE svg PUBLIC "-//W3C//DTD SVG 1.1//EN" "http://www.w3.org/Graphics/SVG/1.1/DTD/svg11.dtd">
<!-- Creator: CorelDRAW X8 -->
<svg xmlns="http://www.w3.org/2000/svg" xml:space="preserve" width="2378px" height="1024px" version="1.1" style="shape-rendering:geometricPrecision; text-rendering:geometricPrecision; image-rendering:optimizeQuality; fill-rule:evenodd; clip-rule:evenodd"
viewBox="0 0 2378 1024"
 xmlns:xlink="http://www.w3.org/1999/xlink">
 <defs>
  <style type="text/css">
   <![CDATA[
    .fil0 {fill:#2B2A29;fill-rule:nonzero}
   ]]>
  </style>
 </defs>
 <g id="Layer_x0020_1">
  <metadata id="CorelCorpID_0Corel-Layer"/>
  <path class="fil0" d="M2059 1024c16,0 31,-3 44,-9 194,-87 275,-303 275,-503 0,-87 -13,-177 -50,-256 -75,-165 -236,-256 -412,-256 -132,0 -225,32 -314,133 -89,-101 -182,-133 -314,-133 -175,0 -336,84 -412,250 -35,76 -50,159 -50,242 0,175 44,315 175,437l-401 0c43,-60 62,-112 62,-188 0,-189 -160,-294 -331,-294 -170,0 -331,105 -331,293 0,113 55,213 156,262 13,6 29,10 44,10 17,0 33,-4 47,-14 9,-6 13,-14 13,-21 0,-11 -9,-21 -23,-28 -79,-37 -114,-125 -114,-209 0,-125 84,-223 209,-223 126,0 207,100 207,224 0,77 -29,157 -96,198 -9,6 -18,14 -18,25 0,27 42,36 62,36l658 0c21,0 58,-10 58,-37 0,-13 -13,-21 -24,-26 -166,-72 -230,-271 -230,-439 0,-71 10,-140 35,-206 50,-130 165,-222 304,-222 170,0 252,117 252,283l0 636c0,26 42,35 62,35 19,0 61,-9 61,-35l0 -636c0,-166 82,-283 253,-283 140,0 254,99 303,228 26,67 36,141 36,213 0,167 -65,378 -231,450 -14,6 -24,17 -24,29 0,6 3,14 12,20 13,10 30,14 47,14z"/>
 </g>
</svg>
