<?xml version="1.0" encoding="UTF-8"?>
<!DOCTYPE svg PUBLIC "-//W3C//DTD SVG 1.1//EN" "http://www.w3.org/Graphics/SVG/1.1/DTD/svg11.dtd">
<!-- Creator: CorelDRAW X8 -->
<svg xmlns="http://www.w3.org/2000/svg" xml:space="preserve" width="710px" height="1024px" version="1.1" style="shape-rendering:geometricPrecision; text-rendering:geometricPrecision; image-rendering:optimizeQuality; fill-rule:evenodd; clip-rule:evenodd"
viewBox="0 0 710 1024"
 xmlns:xlink="http://www.w3.org/1999/xlink">
 <defs>
  <style type="text/css">
   <![CDATA[
    .fil0 {fill:#2B2A29;fill-rule:nonzero}
   ]]>
  </style>
 </defs>
 <g id="Layer_x0020_1">
  <metadata id="CorelCorpID_0Corel-Layer"/>
  <path class="fil0" d="M328 1024c117,0 232,-59 296,-161 63,-99 86,-234 86,-351 0,-121 -25,-255 -93,-357 -65,-98 -172,-155 -289,-155 -88,0 -177,32 -239,94 -53,52 -88,129 -88,204 0,25 40,35 60,35 19,0 61,-8 62,-34 3,-65 26,-125 72,-170 34,-33 85,-58 133,-58 79,0 133,46 175,109 63,94 84,220 84,332 0,110 -18,233 -78,328 -40,63 -105,113 -181,113 -54,0 -94,-24 -131,-61 -45,-45 -70,-103 -74,-168 -2,-26 -42,-33 -63,-33 -19,0 -60,9 -60,34 0,72 40,153 91,202 65,63 147,97 237,97z"/>
 </g>
</svg>
