<?xml version="1.0" encoding="UTF-8"?>
<!DOCTYPE svg PUBLIC "-//W3C//DTD SVG 1.1//EN" "http://www.w3.org/Graphics/SVG/1.1/DTD/svg11.dtd">
<!-- Creator: CorelDRAW X8 -->
<svg xmlns="http://www.w3.org/2000/svg" xml:space="preserve" width="710px" height="1024px" version="1.1" style="shape-rendering:geometricPrecision; text-rendering:geometricPrecision; image-rendering:optimizeQuality; fill-rule:evenodd; clip-rule:evenodd"
viewBox="0 0 710 1024"
 xmlns:xlink="http://www.w3.org/1999/xlink">
 <defs>
  <style type="text/css">
   <![CDATA[
    .fil0 {fill:#00A0E3;fill-rule:nonzero}
   ]]>
  </style>
 </defs>
 <g id="Layer_x0020_1">
  <metadata id="CorelCorpID_0Corel-Layer"/>
  <path class="fil0" d="M123 299c3,-65 26,-125 72,-170 35,-34 82,-59 131,-58 77,1 135,47 177,109 63,94 84,220 84,332 0,110 -19,233 -78,328 -41,64 -106,114 -183,113 -53,-1 -92,-25 -129,-61 -45,-45 -70,-103 -74,-168 -2,-26 -44,-34 -64,-33 -19,0 -61,10 -59,36 5,77 37,147 91,200 65,63 145,97 235,97 117,-1 234,-59 298,-161 63,-99 86,-234 86,-351 0,-121 -25,-255 -93,-357 -65,-97 -177,-154 -291,-155 -89,-1 -174,31 -237,94 -55,54 -85,125 -88,203 -1,26 40,36 60,36 19,0 61,-8 62,-34z"/>
 </g>
</svg>
