<?xml version="1.0" encoding="UTF-8"?>
<!DOCTYPE svg PUBLIC "-//W3C//DTD SVG 1.1//EN" "http://www.w3.org/Graphics/SVG/1.1/DTD/svg11.dtd">
<!-- Creator: CorelDRAW X8 -->
<svg xmlns="http://www.w3.org/2000/svg" xml:space="preserve" width="601px" height="1405px" version="1.1" style="shape-rendering:geometricPrecision; text-rendering:geometricPrecision; image-rendering:optimizeQuality; fill-rule:evenodd; clip-rule:evenodd"
viewBox="0 0 601 1405"
 xmlns:xlink="http://www.w3.org/1999/xlink">
 <defs>
  <style type="text/css">
   <![CDATA[
    .fil0 {fill:#2B2A29;fill-rule:nonzero}
   ]]>
  </style>
 </defs>
 <g id="Layer_x0020_1">
  <metadata id="CorelCorpID_0Corel-Layer"/>
  <path class="fil0" d="M176 252c-56,0 -93,-36 -93,-92 0,-56 37,-95 92,-95 55,0 93,38 93,93 0,56 -37,94 -92,94zm364 1151c20,0 60,-8 60,-35l0 -1118c0,-205 -164,-247 -332,-248 -57,-1 -126,3 -178,30 -50,25 -89,71 -89,131 0,42 19,80 53,105 35,26 80,35 122,35 43,0 88,-9 123,-34 37,-26 54,-61 54,-106 0,-41 -14,-76 -46,-101 114,7 172,57 172,188l0 1118c0,27 41,35 61,35z"/>
 </g>
</svg>
