<?xml version="1.0" encoding="UTF-8"?>
<!DOCTYPE svg PUBLIC "-//W3C//DTD SVG 1.1//EN" "http://www.w3.org/Graphics/SVG/1.1/DTD/svg11.dtd">
<!-- Creator: CorelDRAW X8 -->
<svg xmlns="http://www.w3.org/2000/svg" xml:space="preserve" width="601px" height="1405px" version="1.1" style="shape-rendering:geometricPrecision; text-rendering:geometricPrecision; image-rendering:optimizeQuality; fill-rule:evenodd; clip-rule:evenodd"
viewBox="0 0 599 1401"
 xmlns:xlink="http://www.w3.org/1999/xlink">
 <defs>
  <style type="text/css">
   <![CDATA[
    .fil0 {fill:#00A0E3}
   ]]>
  </style>
 </defs>
 <g id="Layer_x0020_1">
  <metadata id="CorelCorpID_0Corel-Layer"/>
  <path class="fil0" d="M171 250c-53,-1 -89,-37 -89,-92 0,-56 37,-95 92,-95 55,0 93,38 93,93 0,57 -39,96 -96,94zm135 -190c114,7 172,57 172,188l0 1118c0,27 41,35 61,35 20,0 60,-8 60,-35l0 -1118c0,-205 -164,-246 -332,-248 -57,0 -126,3 -178,30 -51,25 -90,72 -89,133 1,42 20,79 53,103 35,26 80,35 122,35 43,0 88,-9 123,-34 36,-25 54,-60 54,-104 1,-46 -17,-80 -46,-103z"/>
 </g>
</svg>
