<?xml version="1.0" encoding="UTF-8"?>
<!DOCTYPE svg PUBLIC "-//W3C//DTD SVG 1.1//EN" "http://www.w3.org/Graphics/SVG/1.1/DTD/svg11.dtd">
<!-- Creator: CorelDRAW X8 -->
<svg xmlns="http://www.w3.org/2000/svg" xml:space="preserve" width="480px" height="1423px" version="1.1" style="shape-rendering:geometricPrecision; text-rendering:geometricPrecision; image-rendering:optimizeQuality; fill-rule:evenodd; clip-rule:evenodd"
viewBox="0 0 480 1423"
 xmlns:xlink="http://www.w3.org/1999/xlink">
 <defs>
  <style type="text/css">
   <![CDATA[
    .fil0 {fill:#2B2A29;fill-rule:nonzero}
   ]]>
  </style>
 </defs>
 <g id="Layer_x0020_1">
  <metadata id="CorelCorpID_0Corel-Layer"/>
  <path class="fil0" d="M240 1357c-96,0 -136,-96 -136,-184 0,-87 39,-184 136,-184 97,0 136,96 136,184 0,88 -39,184 -136,184zm0 66c140,0 240,-103 240,-250 0,-118 -65,-208 -164,-238 80,-168 123,-343 126,-529 1,-100 -18,-198 -66,-272 -46,-71 -137,-134 -223,-134 -21,0 -61,6 -61,33 0,20 23,31 40,34 71,15 117,60 145,118 32,65 42,147 42,221 0,183 -46,359 -127,522 -114,21 -192,116 -192,245 0,147 101,250 240,250z"/>
 </g>
</svg>
