<?xml version="1.0" encoding="UTF-8"?>
<!DOCTYPE svg PUBLIC "-//W3C//DTD SVG 1.1//EN" "http://www.w3.org/Graphics/SVG/1.1/DTD/svg11.dtd">
<!-- Creator: CorelDRAW X8 -->
<svg xmlns="http://www.w3.org/2000/svg" xml:space="preserve" width="480px" height="1423px" version="1.1" style="shape-rendering:geometricPrecision; text-rendering:geometricPrecision; image-rendering:optimizeQuality; fill-rule:evenodd; clip-rule:evenodd"
viewBox="0 0 480 1422"
 xmlns:xlink="http://www.w3.org/1999/xlink">
 <defs>
  <style type="text/css">
   <![CDATA[
    .fil0 {fill:#B2B09C;fill-rule:nonzero}
   ]]>
  </style>
 </defs>
 <g id="Layer_x0020_1">
  <metadata id="CorelCorpID_0Corel-Layer"/>
  <path class="fil0" d="M316 934c71,-149 118,-325 125,-490 5,-114 -11,-226 -65,-310 -46,-71 -137,-132 -223,-134 -21,0 -65,7 -61,37 2,17 25,27 40,30 71,15 116,60 145,118 37,77 45,177 41,259 -7,159 -54,339 -126,483 -114,21 -192,116 -192,245 0,147 101,250 240,250 140,0 240,-103 240,-250 0,-118 -65,-208 -164,-238zm60 238c0,88 -39,184 -136,184 -96,0 -136,-96 -136,-184 0,-87 39,-184 136,-184 97,0 136,96 136,184z"/>
 </g>
</svg>
