<?xml version="1.0" encoding="UTF-8"?>
<!DOCTYPE svg PUBLIC "-//W3C//DTD SVG 1.1//EN" "http://www.w3.org/Graphics/SVG/1.1/DTD/svg11.dtd">
<!-- Creator: CorelDRAW X8 -->
<svg xmlns="http://www.w3.org/2000/svg" xml:space="preserve" width="660px" height="1596px" version="1.1" style="shape-rendering:geometricPrecision; text-rendering:geometricPrecision; image-rendering:optimizeQuality; fill-rule:evenodd; clip-rule:evenodd"
viewBox="0 0 659 1593"
 xmlns:xlink="http://www.w3.org/1999/xlink">
 <defs>
  <style type="text/css">
   <![CDATA[
    .fil0 {fill:#B2B09C}
   ]]>
  </style>
 </defs>
 <g id="Layer_x0020_1">
  <metadata id="CorelCorpID_0Corel-Layer"/>
  <path class="fil0" d="M479 1169c0,-74 -20,-132 -69,-185 44,15 80,38 105,70 37,50 55,116 52,189 -7,173 -135,293 -295,293 -46,0 -91,-8 -133,-30 -20,-10 -52,-10 -71,2 -19,12 -15,30 4,40 62,32 131,45 200,45 195,0 385,-127 387,-351 2,-218 -143,-319 -325,-332 65,-149 108,-312 114,-475 3,-99 -9,-210 -62,-296 -46,-74 -142,-139 -230,-139 -20,0 -57,8 -57,34 -1,19 25,30 40,33 64,13 112,54 142,112 39,75 47,171 44,254 -5,162 -52,339 -122,485 -34,7 -65,18 -91,35 -75,46 -112,125 -112,216 0,150 103,245 240,245 137,0 239,-96 239,-245zm-103 -2c0,88 -41,186 -136,186 -96,0 -137,-98 -137,-186 0,-88 41,-187 137,-187 95,0 136,99 136,187z"/>
 </g>
</svg>
