<?xml version="1.0" encoding="UTF-8"?>
<!DOCTYPE svg PUBLIC "-//W3C//DTD SVG 1.1//EN" "http://www.w3.org/Graphics/SVG/1.1/DTD/svg11.dtd">
<!-- Creator: CorelDRAW X8 -->
<svg xmlns="http://www.w3.org/2000/svg" xml:space="preserve" width="662px" height="1596px" version="1.1" style="shape-rendering:geometricPrecision; text-rendering:geometricPrecision; image-rendering:optimizeQuality; fill-rule:evenodd; clip-rule:evenodd"
viewBox="0 0 662 1596"
 xmlns:xlink="http://www.w3.org/1999/xlink">
 <defs>
  <style type="text/css">
   <![CDATA[
    .fil0 {fill:#CC9933}
   ]]>
  </style>
 </defs>
 <g id="Layer_x0020_1">
  <metadata id="CorelCorpID_0Corel-Layer"/>
  <path class="fil0" d="M481 1171c0,-74 -21,-132 -70,-185 44,15 81,38 105,70 38,50 55,117 52,189 -7,173 -135,294 -296,294 -46,0 -91,-9 -132,-30 -11,-6 -24,-8 -37,-8 -12,1 -25,4 -34,10 -6,4 -11,9 -13,16 -1,11 8,20 16,24 62,32 132,45 200,45 196,0 387,-127 388,-351 2,-219 -143,-321 -325,-333 65,-149 109,-313 114,-476 3,-100 -9,-211 -62,-297 -46,-74 -142,-139 -230,-139 -20,0 -58,8 -58,34 0,19 25,30 41,33 64,13 112,54 142,113 39,74 47,171 44,254 -5,162 -52,340 -123,486 -33,7 -65,18 -91,34 -75,47 -112,126 -112,217 0,150 104,245 241,245 137,0 240,-96 240,-245zm-104 -2c0,89 -41,186 -136,186 -96,0 -137,-97 -137,-186 0,-88 41,-187 137,-187 95,0 136,99 136,187z"/>
 </g>
</svg>
