<?xml version="1.0" encoding="UTF-8"?>
<!DOCTYPE svg PUBLIC "-//W3C//DTD SVG 1.1//EN" "http://www.w3.org/Graphics/SVG/1.1/DTD/svg11.dtd">
<!-- Creator: CorelDRAW X8 -->
<svg xmlns="http://www.w3.org/2000/svg" xml:space="preserve" width="495px" height="506px" version="1.1" style="shape-rendering:geometricPrecision; text-rendering:geometricPrecision; image-rendering:optimizeQuality; fill-rule:evenodd; clip-rule:evenodd"
viewBox="0 0 495 506"
 xmlns:xlink="http://www.w3.org/1999/xlink">
 <defs>
  <style type="text/css">
   <![CDATA[
    .fil0 {fill:#CC9933}
   ]]>
  </style>
 </defs>
 <g id="Layer_x0020_1">
  <metadata id="CorelCorpID_0Corel-Layer"/>
  <path class="fil0" d="M360 189c0,-55 -15,-97 -52,-137 33,12 60,29 79,53 28,37 41,84 39,138 -6,130 -101,220 -222,220 -35,0 -68,-6 -99,-22 -8,-4 -18,-6 -28,-6 -9,0 -19,3 -26,7 -4,3 -8,7 -9,12 -1,9 6,15 12,18 46,24 99,34 150,34 146,0 290,-95 291,-263 2,-176 -127,-243 -277,-243 -51,0 -98,6 -134,29 -56,35 -84,92 -84,161 0,112 77,181 180,181 103,0 180,-70 180,-182zm-77 -1c0,66 -31,138 -103,138 -72,0 -102,-72 -102,-138 0,-67 30,-139 102,-139 72,0 103,73 103,139z"/>
 </g>
</svg>
