<?xml version="1.0" encoding="UTF-8"?>
<!DOCTYPE svg PUBLIC "-//W3C//DTD SVG 1.1//EN" "http://www.w3.org/Graphics/SVG/1.1/DTD/svg11.dtd">
<!-- Creator: CorelDRAW X8 -->
<svg xmlns="http://www.w3.org/2000/svg" xml:space="preserve" width="495px" height="506px" version="1.1" style="shape-rendering:geometricPrecision; text-rendering:geometricPrecision; image-rendering:optimizeQuality; fill-rule:evenodd; clip-rule:evenodd"
viewBox="0 0 495 506"
 xmlns:xlink="http://www.w3.org/1999/xlink">
 <defs>
  <style type="text/css">
   <![CDATA[
    .fil0 {fill:#2B2A29;fill-rule:nonzero}
   ]]>
  </style>
 </defs>
 <g id="Layer_x0020_1">
  <metadata id="CorelCorpID_0Corel-Layer"/>
  <path class="fil0" d="M204 506c156,0 291,-104 291,-269 0,-173 -128,-237 -277,-237 -51,0 -98,6 -134,29 -56,35 -84,92 -84,161 0,112 77,181 180,181 103,0 180,-70 180,-182 0,-55 -15,-97 -52,-137 86,31 118,96 118,185 0,126 -96,226 -222,226 -35,0 -68,-6 -99,-22 -7,-4 -17,-6 -26,-6 -10,0 -20,2 -28,7 -6,4 -9,9 -9,14 0,6 4,12 12,16 46,24 99,34 150,34zm-24 -180c-72,0 -102,-72 -102,-138 0,-67 30,-139 102,-139 72,0 103,73 103,139 0,66 -31,138 -103,138z"/>
 </g>
</svg>
