<?xml version="1.0" encoding="UTF-8"?>
<!DOCTYPE svg PUBLIC "-//W3C//DTD SVG 1.1//EN" "http://www.w3.org/Graphics/SVG/1.1/DTD/svg11.dtd">
<!-- Creator: CorelDRAW X8 -->
<svg xmlns="http://www.w3.org/2000/svg" xml:space="preserve" width="660px" height="666px" version="1.1" style="shape-rendering:geometricPrecision; text-rendering:geometricPrecision; image-rendering:optimizeQuality; fill-rule:evenodd; clip-rule:evenodd"
viewBox="0 0 660 666"
 xmlns:xlink="http://www.w3.org/1999/xlink">
 <defs>
  <style type="text/css">
   <![CDATA[
    .fil0 {fill:#CC9933}
   ]]>
  </style>
 </defs>
 <g id="Layer_x0020_1">
  <metadata id="CorelCorpID_0Corel-Layer"/>
  <path class="fil0" d="M480 253c0,-71 -15,-130 -64,-182 44,15 75,39 100,70 37,49 55,114 52,184 -7,168 -135,285 -296,285 -46,0 -91,-8 -133,-29 -10,-5 -23,-7 -36,-7 -13,0 -25,3 -35,9 -5,4 -11,9 -12,16 -2,11 8,19 16,23 62,31 132,44 200,44 195,0 386,-124 388,-341 2,-228 -165,-325 -365,-325 -68,0 -135,13 -183,43 -75,45 -112,122 -112,211 0,145 103,237 240,237 137,0 240,-93 240,-238zm-103 -2c0,86 -41,181 -137,181 -96,0 -136,-95 -136,-181 0,-86 41,-182 136,-182 96,0 137,96 137,182z"/>
 </g>
</svg>
