<?xml version="1.0" encoding="UTF-8"?>
<!DOCTYPE svg PUBLIC "-//W3C//DTD SVG 1.1//EN" "http://www.w3.org/Graphics/SVG/1.1/DTD/svg11.dtd">
<!-- Creator: CorelDRAW X8 -->
<svg xmlns="http://www.w3.org/2000/svg" xml:space="preserve" width="660px" height="666px" version="1.1" style="shape-rendering:geometricPrecision; text-rendering:geometricPrecision; image-rendering:optimizeQuality; fill-rule:evenodd; clip-rule:evenodd"
viewBox="0 0 660 666"
 xmlns:xlink="http://www.w3.org/1999/xlink">
 <defs>
  <style type="text/css">
   <![CDATA[
    .fil0 {fill:#CC9933}
   ]]>
  </style>
 </defs>
 <g id="Layer_x0020_1">
  <metadata id="CorelCorpID_0Corel-Layer"/>
  <path class="fil0" d="M480 250c0,-74 -20,-132 -69,-185 44,15 80,38 105,70 37,50 55,116 52,189 -7,173 -135,294 -296,294 -46,0 -91,-9 -133,-30 -10,-6 -23,-8 -36,-8 -13,1 -25,4 -35,10 -5,3 -11,9 -12,16 -2,11 8,19 16,24 62,32 132,45 200,45 195,0 386,-128 388,-352 2,-234 -165,-332 -365,-332 -68,0 -135,12 -183,42 -75,47 -112,126 -112,217 0,150 103,245 240,245 137,0 240,-96 240,-245zm-103 -2c0,88 -41,186 -137,186 -96,0 -136,-98 -136,-186 0,-89 41,-187 136,-187 96,0 137,98 137,187z"/>
 </g>
</svg>
