<?xml version="1.0" encoding="UTF-8"?>
<!DOCTYPE svg PUBLIC "-//W3C//DTD SVG 1.1//EN" "http://www.w3.org/Graphics/SVG/1.1/DTD/svg11.dtd">
<!-- Creator: CorelDRAW X8 -->
<svg xmlns="http://www.w3.org/2000/svg" xml:space="preserve" width="495px" height="514px" version="1.1" style="shape-rendering:geometricPrecision; text-rendering:geometricPrecision; image-rendering:optimizeQuality; fill-rule:evenodd; clip-rule:evenodd"
viewBox="0 0 495 514"
 xmlns:xlink="http://www.w3.org/1999/xlink">
 <defs>
  <style type="text/css">
   <![CDATA[
    .fil0 {fill:#CC9933}
   ]]>
  </style>
 </defs>
 <g id="Layer_x0020_1">
  <metadata id="CorelCorpID_0Corel-Layer"/>
  <path class="fil0" d="M360 196c0,-56 -15,-100 -52,-139 33,11 60,28 79,52 28,38 41,88 39,142 -6,130 -101,220 -222,220 -35,0 -68,-6 -99,-22 -8,-4 -18,-6 -28,-6 -9,0 -19,3 -26,7 -4,3 -8,7 -9,12 -1,9 6,15 12,18 46,24 99,34 150,34 146,0 289,-95 291,-263 1,-176 -124,-251 -274,-251 -51,0 -101,10 -137,33 -56,35 -84,95 -84,163 0,112 77,183 180,183 103,0 180,-72 180,-183zm-77 -2c0,66 -31,140 -103,140 -72,0 -102,-74 -102,-140 0,-66 30,-140 102,-140 72,0 103,74 103,140z"/>
 </g>
</svg>
