<?xml version="1.0" encoding="UTF-8"?>
<!DOCTYPE svg PUBLIC "-//W3C//DTD SVG 1.1//EN" "http://www.w3.org/Graphics/SVG/1.1/DTD/svg11.dtd">
<!-- Creator: CorelDRAW X8 -->
<svg xmlns="http://www.w3.org/2000/svg" xml:space="preserve" width="660px" height="684px" version="1.1" style="shape-rendering:geometricPrecision; text-rendering:geometricPrecision; image-rendering:optimizeQuality; fill-rule:evenodd; clip-rule:evenodd"
viewBox="0 0 660 683"
 xmlns:xlink="http://www.w3.org/1999/xlink">
 <defs>
  <style type="text/css">
   <![CDATA[
    .fil0 {fill:#00A0E3}
   ]]>
  </style>
 </defs>
 <g id="Layer_x0020_1">
  <metadata id="CorelCorpID_0Corel-Layer"/>
  <path class="fil0" d="M480 259c0,-74 -20,-133 -69,-186 44,15 80,38 105,70 37,50 55,117 52,190 -7,173 -135,293 -296,293 -46,0 -91,-8 -133,-30 -20,-10 -52,-10 -71,2 -19,13 -15,30 4,40 62,32 132,45 200,45 195,0 386,-127 388,-351 2,-234 -165,-332 -365,-332 -68,0 -135,12 -183,42 -75,46 -112,126 -112,217 0,149 103,245 240,245 137,0 240,-96 240,-245zm-103 -2c0,88 -41,186 -137,186 -96,0 -136,-98 -136,-187 0,-88 41,-187 136,-187 96,0 137,99 137,188z"/>
 </g>
</svg>
