<?xml version="1.0" encoding="UTF-8"?>
<!DOCTYPE svg PUBLIC "-//W3C//DTD SVG 1.1//EN" "http://www.w3.org/Graphics/SVG/1.1/DTD/svg11.dtd">
<!-- Creator: CorelDRAW X8 -->
<svg xmlns="http://www.w3.org/2000/svg" xml:space="preserve" width="399px" height="389px" version="1.1" style="shape-rendering:geometricPrecision; text-rendering:geometricPrecision; image-rendering:optimizeQuality; fill-rule:evenodd; clip-rule:evenodd"
viewBox="0 0 399 389"
 xmlns:xlink="http://www.w3.org/1999/xlink">
 <defs>
  <style type="text/css">
   <![CDATA[
    .fil0 {fill:#CC9933}
   ]]>
  </style>
 </defs>
 <g id="Layer_x0020_1">
  <metadata id="CorelCorpID_0Corel-Layer"/>
  <path class="fil0" d="M297 149c0,96 -75,141 -149,141 -74,0 -148,-45 -148,-141 0,-58 28,-100 67,-123 32,-20 76,-25 113,-26 60,-1 121,11 165,56 33,32 55,79 54,134 -2,126 -114,199 -233,199 -41,0 -84,-8 -121,-26 -10,-5 -14,-12 -13,-19 1,-4 4,-9 10,-13 8,-5 20,-7 31,-7 9,0 18,2 25,6 22,10 45,15 68,15 89,0 154,-68 158,-155 1,-44 -11,-96 -49,-122 14,21 22,50 22,81zm-82 -1c0,-63 -34,-96 -67,-96 -33,0 -66,33 -66,96 0,63 33,96 66,96 33,0 67,-33 67,-96z"/>
 </g>
</svg>
