<?xml version="1.0" encoding="UTF-8"?>
<!DOCTYPE svg PUBLIC "-//W3C//DTD SVG 1.1//EN" "http://www.w3.org/Graphics/SVG/1.1/DTD/svg11.dtd">
<!-- Creator: CorelDRAW X8 -->
<svg xmlns="http://www.w3.org/2000/svg" xml:space="preserve" width="700px" height="1486px" version="1.1" style="shape-rendering:geometricPrecision; text-rendering:geometricPrecision; image-rendering:optimizeQuality; fill-rule:evenodd; clip-rule:evenodd"
viewBox="0 0 700 1486"
 xmlns:xlink="http://www.w3.org/1999/xlink">
 <defs>
  <style type="text/css">
   <![CDATA[
    .fil0 {fill:#CC9933;fill-rule:nonzero}
   ]]>
  </style>
 </defs>
 <g id="Layer_x0020_1">
  <metadata id="CorelCorpID_0Corel-Layer"/>
  <path class="fil0" d="M276 33c-15,166 -27,338 2,503 21,119 61,225 132,322 74,104 129,150 163,268 -50,-52 -131,-85 -235,-86 -127,-1 -338,59 -338,220 0,84 60,141 129,179 62,34 140,45 210,47 81,2 164,-12 233,-57 88,-58 128,-151 128,-255 1,-131 -104,-241 -177,-342 -67,-93 -105,-195 -124,-308 -28,-160 -15,-327 0,-487 2,-27 -39,-36 -58,-37 -19,-1 -62,7 -65,33zm-157 1230c-1,-110 127,-152 220,-152 88,0 219,40 219,150 0,108 -132,149 -219,151 -89,1 -219,-39 -220,-149z"/>
 </g>
</svg>
