<?xml version="1.0" encoding="UTF-8"?>
<!DOCTYPE svg PUBLIC "-//W3C//DTD SVG 1.1//EN" "http://www.w3.org/Graphics/SVG/1.1/DTD/svg11.dtd">
<!-- Creator: CorelDRAW X8 -->
<svg xmlns="http://www.w3.org/2000/svg" xml:space="preserve" width="1087px" height="699px" version="1.1" style="shape-rendering:geometricPrecision; text-rendering:geometricPrecision; image-rendering:optimizeQuality; fill-rule:evenodd; clip-rule:evenodd"
viewBox="0 0 1087 699"
 xmlns:xlink="http://www.w3.org/1999/xlink">
 <defs>
  <style type="text/css">
   <![CDATA[
    .fil0 {fill:#2B2A29;fill-rule:nonzero}
   ]]>
  </style>
 </defs>
 <g id="Layer_x0020_1">
  <metadata id="CorelCorpID_0Corel-Layer"/>
  <path class="fil0" d="M370 699c92,0 193,-7 288,-26 114,-23 250,-72 328,-160 74,-85 101,-197 101,-310l0 -203 -122 38 0 165c0,206 -59,320 -243,381 8,-16 13,-35 13,-55 0,-87 -117,-132 -183,-148 -60,-14 -121,-19 -182,-19 -66,0 -136,5 -199,22 -67,18 -171,64 -171,146 0,81 103,126 166,144 62,17 133,25 204,25zm1 -67c-179,0 -263,-52 -263,-103 0,-52 93,-100 263,-100 168,0 256,52 256,100 0,49 -80,103 -256,103z"/>
 </g>
</svg>
