<?xml version="1.0" encoding="UTF-8"?>
<!DOCTYPE svg PUBLIC "-//W3C//DTD SVG 1.1//EN" "http://www.w3.org/Graphics/SVG/1.1/DTD/svg11.dtd">
<!-- Creator: CorelDRAW X8 -->
<svg xmlns="http://www.w3.org/2000/svg" xml:space="preserve" width="1087px" height="699px" version="1.1" style="shape-rendering:geometricPrecision; text-rendering:geometricPrecision; image-rendering:optimizeQuality; fill-rule:evenodd; clip-rule:evenodd"
viewBox="0 0 1087 699"
 xmlns:xlink="http://www.w3.org/1999/xlink">
 <defs>
  <style type="text/css">
   <![CDATA[
    .fil0 {fill:#CC9933}
   ]]>
  </style>
 </defs>
 <g id="Layer_x0020_1">
  <metadata id="CorelCorpID_0Corel-Layer"/>
  <path class="fil0" d="M370 426c53,0 109,4 160,20 34,11 96,38 96,83 1,47 -63,74 -98,85 -51,15 -105,20 -158,20 -60,0 -132,-6 -188,-29 -30,-12 -74,-37 -73,-76 0,-38 44,-63 74,-75 56,-22 128,-28 187,-28zm365 103c0,-87 -117,-132 -183,-148 -60,-14 -121,-19 -182,-19 -65,0 -136,5 -199,22 -64,17 -171,62 -171,145 0,82 103,128 166,145 62,17 133,25 197,25 121,0 265,-13 382,-48 86,-27 179,-68 241,-139 74,-85 101,-196 101,-309l0 -203 -122 38 0 165c0,206 -44,318 -243,380 8,-15 13,-34 13,-54z"/>
 </g>
</svg>
