<?xml version="1.0" encoding="UTF-8"?>
<!DOCTYPE svg PUBLIC "-//W3C//DTD SVG 1.1//EN" "http://www.w3.org/Graphics/SVG/1.1/DTD/svg11.dtd">
<!-- Creator: CorelDRAW X8 -->
<svg xmlns="http://www.w3.org/2000/svg" xml:space="preserve" width="700px" height="1486px" version="1.1" style="shape-rendering:geometricPrecision; text-rendering:geometricPrecision; image-rendering:optimizeQuality; fill-rule:evenodd; clip-rule:evenodd"
viewBox="0 0 700 1485"
 xmlns:xlink="http://www.w3.org/1999/xlink">
 <defs>
  <style type="text/css">
   <![CDATA[
    .fil0 {fill:#B2B09C;fill-rule:nonzero}
   ]]>
  </style>
 </defs>
 <g id="Layer_x0020_1">
  <metadata id="CorelCorpID_0Corel-Layer"/>
  <path class="fil0" d="M700 1184c6,-131 -101,-255 -177,-353 -36,-48 -63,-98 -83,-150 -19,-51 -32,-104 -41,-157 -28,-160 -15,-327 0,-487 3,-27 -39,-36 -58,-37 -19,-1 -62,7 -64,33 -16,166 -28,338 2,503 10,56 24,110 45,164 21,54 49,106 86,158 53,73 123,148 145,206 -19,-9 -49,-16 -73,-16 -68,-1 -98,25 -142,72 -42,-46 -80,-72 -144,-72 -106,0 -197,90 -196,198 1,181 196,240 343,239 194,-1 347,-88 357,-301zm-356 230c-109,1 -244,-38 -253,-169 -5,-68 35,-134 108,-134 82,0 103,77 103,146 0,17 27,23 39,23 13,0 40,-6 40,-23 0,-69 17,-144 99,-145 67,-1 113,51 112,118 -2,131 -138,184 -248,184z"/>
 </g>
</svg>
