<?xml version="1.0" encoding="UTF-8"?>
<!DOCTYPE svg PUBLIC "-//W3C//DTD SVG 1.1//EN" "http://www.w3.org/Graphics/SVG/1.1/DTD/svg11.dtd">
<!-- Creator: CorelDRAW X8 -->
<svg xmlns="http://www.w3.org/2000/svg" xml:space="preserve" width="700px" height="1486px" version="1.1" style="shape-rendering:geometricPrecision; text-rendering:geometricPrecision; image-rendering:optimizeQuality; fill-rule:evenodd; clip-rule:evenodd"
viewBox="0 0 700 1486"
 xmlns:xlink="http://www.w3.org/1999/xlink">
 <defs>
  <style type="text/css">
   <![CDATA[
    .fil0 {fill:#2B2A29;fill-rule:nonzero}
   ]]>
  </style>
 </defs>
 <g id="Layer_x0020_1">
  <metadata id="CorelCorpID_0Corel-Layer"/>
  <path class="fil0" d="M340 1415c-114,0 -249,-45 -249,-180 0,-64 39,-123 108,-123 82,0 103,77 103,146 0,17 27,23 39,23 13,0 40,-6 40,-23 0,-69 17,-145 101,-145 65,0 110,51 110,116 0,133 -139,186 -252,186zm3 71c198,-1 357,-97 357,-312 0,-127 -103,-247 -177,-343 -70,-90 -104,-194 -124,-307 -12,-69 -16,-139 -16,-209 0,-92 7,-185 16,-275 0,-2 0,-4 0,-6 0,-22 -31,-33 -62,-33 -29,0 -58,10 -60,32 -9,92 -16,185 -16,278 0,76 5,151 18,225 21,119 60,225 131,323 53,73 123,148 145,206 -23,-11 -52,-16 -77,-16 -65,0 -109,26 -138,72 -24,-46 -80,-72 -144,-72 -105,0 -196,89 -196,196 0,181 193,241 343,241z"/>
 </g>
</svg>
