<?xml version="1.0" encoding="UTF-8"?>
<!DOCTYPE svg PUBLIC "-//W3C//DTD SVG 1.1//EN" "http://www.w3.org/Graphics/SVG/1.1/DTD/svg11.dtd">
<!-- Creator: CorelDRAW X8 -->
<svg xmlns="http://www.w3.org/2000/svg" xml:space="preserve" width="1114px" height="1024px" version="1.1" style="shape-rendering:geometricPrecision; text-rendering:geometricPrecision; image-rendering:optimizeQuality; fill-rule:evenodd; clip-rule:evenodd"
viewBox="0 0 1114 1024"
 xmlns:xlink="http://www.w3.org/1999/xlink">
 <defs>
  <style type="text/css">
   <![CDATA[
    .fil0 {fill:#CC9933;fill-rule:nonzero}
   ]]>
  </style>
 </defs>
 <g id="Layer_x0020_1">
  <metadata id="CorelCorpID_0Corel-Layer"/>
  <path class="fil0" d="M0 541c0,145 42,315 156,411 60,50 127,73 204,72 74,-1 151,-26 208,-74 67,-57 99,-148 102,-235 2,-82 -21,-161 -76,-222 -59,-63 -147,-96 -232,-93 -125,4 -210,75 -241,165 -13,-277 138,-495 423,-496 267,-1 440,188 452,458 7,172 -67,352 -219,436 -9,5 -18,14 -18,25 0,11 9,20 18,25 14,8 30,12 45,11 18,-1 36,-6 51,-15 163,-97 243,-295 241,-482 -4,-329 -259,-531 -567,-527 -312,4 -547,215 -547,541zm166 174c0,-121 64,-239 195,-239 130,0 193,117 194,237 0,120 -64,241 -194,241 -132,-1 -195,-118 -195,-239z"/>
 </g>
</svg>
