<?xml version="1.0" encoding="UTF-8"?>
<!DOCTYPE svg PUBLIC "-//W3C//DTD SVG 1.1//EN" "http://www.w3.org/Graphics/SVG/1.1/DTD/svg11.dtd">
<!-- Creator: CorelDRAW X8 -->
<svg xmlns="http://www.w3.org/2000/svg" xml:space="preserve" width="1220px" height="472px" version="1.1" style="shape-rendering:geometricPrecision; text-rendering:geometricPrecision; image-rendering:optimizeQuality; fill-rule:evenodd; clip-rule:evenodd"
viewBox="0 0 1220 472"
 xmlns:xlink="http://www.w3.org/1999/xlink">
 <defs>
  <style type="text/css">
   <![CDATA[
    .fil0 {fill:#CC9933;fill-rule:nonzero}
   ]]>
  </style>
 </defs>
 <g id="Layer_x0020_1">
  <metadata id="CorelCorpID_0Corel-Layer"/>
  <path class="fil0" d="M328 0c-67,1 -146,10 -205,45 -75,43 -123,114 -123,206 0,140 118,219 242,219 129,0 234,-76 234,-219 0,-116 -55,-171 -115,-192 59,5 143,13 211,84 33,34 57,76 75,120 64,150 126,214 289,209 60,-2 130,-18 181,-52 70,-47 109,-130 102,-217 -7,-94 -63,-163 -146,-195 -9,-4 -18,-6 -28,-6 -14,-1 -30,2 -43,9 -8,5 -17,12 -17,22 -1,14 14,25 25,30 58,23 92,80 97,143 4,56 -11,110 -50,149 -34,35 -79,50 -126,51 -112,3 -136,-69 -174,-160 -33,-78 -75,-145 -148,-187 -78,-46 -194,-60 -281,-59zm53 251c0,86 -53,157 -139,157 -85,0 -139,-71 -139,-157 0,-87 53,-159 139,-159 86,0 139,72 139,159z"/>
 </g>
</svg>
