<?xml version="1.0" encoding="UTF-8"?>
<!DOCTYPE svg PUBLIC "-//W3C//DTD SVG 1.1//EN" "http://www.w3.org/Graphics/SVG/1.1/DTD/svg11.dtd">
<!-- Creator: CorelDRAW X8 -->
<svg xmlns="http://www.w3.org/2000/svg" xml:space="preserve" width="659px" height="1297px" version="1.1" style="shape-rendering:geometricPrecision; text-rendering:geometricPrecision; image-rendering:optimizeQuality; fill-rule:evenodd; clip-rule:evenodd"
viewBox="0 0 659 1297"
 xmlns:xlink="http://www.w3.org/1999/xlink">
 <defs>
  <style type="text/css">
   <![CDATA[
    .fil0 {fill:#2B2A29;fill-rule:nonzero}
   ]]>
  </style>
 </defs>
 <g id="Layer_x0020_1">
  <metadata id="CorelCorpID_0Corel-Layer"/>
  <path class="fil0" d="M377 1297c86,0 186,-18 262,-57 13,-7 20,-16 20,-26 0,-8 -6,-16 -16,-23 -12,-8 -29,-12 -45,-12 -15,0 -30,3 -41,9 -52,26 -118,39 -177,39 -57,0 -118,-12 -160,-52 -92,-91 -98,-278 -98,-402 0,-132 14,-270 38,-397 19,-110 50,-228 102,-327 2,-5 4,-10 4,-15 0,-24 -38,-34 -58,-34 -21,0 -47,5 -60,22 -53,75 -93,265 -110,356 -23,129 -38,265 -38,397 0,142 6,330 114,435 67,64 172,87 263,87z"/>
 </g>
</svg>
