<?xml version="1.0" encoding="UTF-8"?>
<!DOCTYPE svg PUBLIC "-//W3C//DTD SVG 1.1//EN" "http://www.w3.org/Graphics/SVG/1.1/DTD/svg11.dtd">
<!-- Creator: CorelDRAW X8 -->
<svg xmlns="http://www.w3.org/2000/svg" xml:space="preserve" width="658px" height="1297px" version="1.1" style="shape-rendering:geometricPrecision; text-rendering:geometricPrecision; image-rendering:optimizeQuality; fill-rule:evenodd; clip-rule:evenodd"
viewBox="0 0 658 1296"
 xmlns:xlink="http://www.w3.org/1999/xlink">
 <defs>
  <style type="text/css">
   <![CDATA[
    .fil0 {fill:#B2B09C;fill-rule:nonzero}
   ]]>
  </style>
 </defs>
 <g id="Layer_x0020_1">
  <metadata id="CorelCorpID_0Corel-Layer"/>
  <path class="fil0" d="M148 22c-54,74 -94,264 -110,356 -27,147 -42,304 -37,454 2,66 7,133 22,198 15,66 42,131 91,179 65,63 163,84 249,87 89,2 195,-16 275,-57 23,-12 28,-34 4,-49 -23,-15 -62,-15 -86,-3 -57,29 -132,42 -195,39 -50,-3 -104,-16 -141,-52 -41,-40 -63,-98 -76,-153 -14,-62 -18,-125 -21,-188 -5,-150 9,-310 36,-457 20,-110 51,-228 102,-327 18,-35 -29,-49 -54,-49 -20,0 -47,5 -59,22z"/>
 </g>
</svg>
