<?xml version="1.0" encoding="UTF-8"?>
<!DOCTYPE svg PUBLIC "-//W3C//DTD SVG 1.1//EN" "http://www.w3.org/Graphics/SVG/1.1/DTD/svg11.dtd">
<!-- Creator: CorelDRAW X8 -->
<svg xmlns="http://www.w3.org/2000/svg" xml:space="preserve" width="1220px" height="472px" version="1.1" style="shape-rendering:geometricPrecision; text-rendering:geometricPrecision; image-rendering:optimizeQuality; fill-rule:evenodd; clip-rule:evenodd"
viewBox="0 0 1220 472"
 xmlns:xlink="http://www.w3.org/1999/xlink">
 <defs>
  <style type="text/css">
   <![CDATA[
    .fil0 {fill:#CC9933;fill-rule:nonzero}
   ]]>
  </style>
 </defs>
 <g id="Layer_x0020_1">
  <metadata id="CorelCorpID_0Corel-Layer"/>
  <path class="fil0" d="M328 0c87,-1 203,13 281,59 73,42 115,109 148,187 38,91 62,163 174,160 47,-1 92,-16 126,-51 39,-39 54,-93 50,-149 -5,-63 -39,-120 -97,-143 -11,-5 -26,-16 -25,-30 0,-10 9,-17 17,-22 13,-7 29,-10 43,-9 10,0 19,2 28,6 83,32 139,101 146,195 7,87 -32,170 -102,217 -56,38 -131,52 -197,52 -151,0 -211,-64 -273,-209 -18,-44 -42,-86 -75,-120 -68,-71 -152,-79 -211,-84 60,21 115,76 115,192 0,143 -105,219 -234,219 -124,0 -242,-79 -242,-219 0,-92 48,-163 123,-206 59,-35 138,-44 205,-45zm53 251c0,-87 -53,-159 -139,-159 -86,0 -139,72 -139,159 0,86 54,157 139,157 86,0 139,-71 139,-157z"/>
 </g>
</svg>
