<?xml version="1.0" encoding="UTF-8"?>
<!DOCTYPE svg PUBLIC "-//W3C//DTD SVG 1.1//EN" "http://www.w3.org/Graphics/SVG/1.1/DTD/svg11.dtd">
<!-- Creator: CorelDRAW X8 -->
<svg xmlns="http://www.w3.org/2000/svg" xml:space="preserve" width="619px" height="1486px" version="1.1" style="shape-rendering:geometricPrecision; text-rendering:geometricPrecision; image-rendering:optimizeQuality; fill-rule:evenodd; clip-rule:evenodd"
viewBox="0 0 619 1486"
 xmlns:xlink="http://www.w3.org/1999/xlink">
 <defs>
  <style type="text/css">
   <![CDATA[
    .fil0 {fill:#00A0E3;fill-rule:nonzero}
   ]]>
  </style>
 </defs>
 <g id="Layer_x0020_1">
  <metadata id="CorelCorpID_0Corel-Layer"/>
  <path class="fil0" d="M194 33c-15,166 -28,338 2,503 21,118 61,224 131,322 68,94 159,191 167,312 9,127 -56,247 -195,246 -96,-1 -170,-55 -176,-157 -3,-44 20,-80 54,-106 26,-20 12,-38 -12,-47 -17,-7 -39,-10 -54,-6 -23,5 -44,18 -62,37 -31,32 -51,77 -49,122 7,152 167,227 300,227 183,0 323,-122 319,-315 -3,-128 -106,-240 -178,-340 -67,-93 -105,-194 -124,-307 -28,-160 -15,-327 0,-487 2,-27 -39,-36 -58,-37 -19,-1 -62,7 -65,33z"/>
 </g>
</svg>
