<?xml version="1.0" encoding="UTF-8"?>
<!DOCTYPE svg PUBLIC "-//W3C//DTD SVG 1.1//EN" "http://www.w3.org/Graphics/SVG/1.1/DTD/svg11.dtd">
<!-- Creator: CorelDRAW X8 -->
<svg xmlns="http://www.w3.org/2000/svg" xml:space="preserve" width="1220px" height="472px" version="1.1" style="shape-rendering:geometricPrecision; text-rendering:geometricPrecision; image-rendering:optimizeQuality; fill-rule:evenodd; clip-rule:evenodd"
viewBox="0 0 1220 472"
 xmlns:xlink="http://www.w3.org/1999/xlink">
 <defs>
  <style type="text/css">
   <![CDATA[
    .fil0 {fill:#2B2A29;fill-rule:nonzero}
   ]]>
  </style>
 </defs>
 <g id="Layer_x0020_1">
  <metadata id="CorelCorpID_0Corel-Layer"/>
  <path class="fil0" d="M920 472c66,0 141,-14 197,-52 65,-43 103,-117 103,-197 0,-97 -74,-221 -179,-221 -14,0 -28,3 -39,9 -12,7 -17,15 -17,23 0,11 10,23 25,29 69,27 98,92 98,160 0,50 -16,97 -51,132 -36,37 -83,51 -133,51 -106,0 -130,-72 -167,-160 -33,-78 -75,-145 -148,-187 -75,-44 -186,-59 -272,-59 -70,0 -153,9 -214,45 -75,44 -123,114 -123,206 0,140 118,219 242,219 129,0 234,-76 234,-219 0,-116 -55,-171 -115,-192 59,5 143,13 211,84 33,34 57,76 75,119 62,146 122,210 273,210zm-678 -64c-85,0 -139,-71 -139,-157 0,-87 53,-159 139,-159 86,0 139,72 139,159 0,86 -53,157 -139,157z"/>
 </g>
</svg>
