<?xml version="1.0" encoding="UTF-8"?>
<!DOCTYPE svg PUBLIC "-//W3C//DTD SVG 1.1//EN" "http://www.w3.org/Graphics/SVG/1.1/DTD/svg11.dtd">
<!-- Creator: CorelDRAW X8 -->
<svg xmlns="http://www.w3.org/2000/svg" xml:space="preserve" width="973px" height="1380px" version="1.1" style="shape-rendering:geometricPrecision; text-rendering:geometricPrecision; image-rendering:optimizeQuality; fill-rule:evenodd; clip-rule:evenodd"
viewBox="0 0 973 1380"
 xmlns:xlink="http://www.w3.org/1999/xlink">
 <defs>
  <style type="text/css">
   <![CDATA[
    .fil0 {fill:#B2B09C;fill-rule:nonzero}
   ]]>
  </style>
 </defs>
 <g id="Layer_x0020_1">
  <metadata id="CorelCorpID_0Corel-Layer"/>
  <path class="fil0" d="M331 1310c133,-93 246,-221 300,-372 22,-63 34,-130 34,-199 -1,-152 -71,-254 -170,-292 87,9 171,26 248,96 68,63 107,155 107,264l0 503 -519 0zm458 -1148c-57,-106 -173,-160 -290,-162 -142,-2 -280,66 -281,227 0,87 51,144 109,173 -75,20 -145,54 -202,107 -85,78 -125,183 -125,300l0 538c0,26 42,35 62,35l849 0c20,0 62,-9 62,-35l0 -538c0,-117 -40,-222 -126,-301 -88,-81 -206,-114 -323,-125 -93,-8 -183,-38 -183,-154 0,-92 66,-161 159,-158 74,3 137,49 171,113 13,22 53,26 77,22 19,-3 54,-18 41,-42zm-560 382c38,-35 85,-56 136,-56 131,1 180,138 179,254 -1,65 -12,127 -32,183 -63,175 -210,307 -389,385l0 -503c0,-101 32,-195 106,-263z"/>
 </g>
</svg>
