<?xml version="1.0" encoding="UTF-8"?>
<!DOCTYPE svg PUBLIC "-//W3C//DTD SVG 1.1//EN" "http://www.w3.org/Graphics/SVG/1.1/DTD/svg11.dtd">
<!-- Creator: CorelDRAW X8 -->
<svg xmlns="http://www.w3.org/2000/svg" xml:space="preserve" width="973px" height="1381px" version="1.1" style="shape-rendering:geometricPrecision; text-rendering:geometricPrecision; image-rendering:optimizeQuality; fill-rule:evenodd; clip-rule:evenodd"
viewBox="0 0 973 1381"
 xmlns:xlink="http://www.w3.org/1999/xlink">
 <defs>
  <style type="text/css">
   <![CDATA[
    .fil0 {fill:#2B2A29;fill-rule:nonzero}
   ]]>
  </style>
 </defs>
 <g id="Layer_x0020_1">
  <metadata id="CorelCorpID_0Corel-Layer"/>
  <path class="fil0" d="M911 1381c20,0 62,-9 62,-35l0 -538c0,-117 -40,-222 -126,-301 -88,-82 -206,-115 -323,-126 -93,-8 -183,-38 -183,-154 0,-90 62,-158 152,-158 76,0 142,48 178,113 9,18 37,23 59,23 20,0 62,-8 62,-33 0,-3 -1,-6 -3,-10 -58,-107 -177,-162 -296,-162 -140,0 -274,68 -275,227 -1,87 51,144 109,173 -75,20 -145,55 -202,108 -85,78 -125,183 -125,300l0 538c0,26 42,35 62,35l849 0zm-61 -70l-519 0c190,-133 334,-330 334,-571 0,-152 -71,-254 -170,-293 87,9 171,26 248,97 68,62 107,155 107,264l0 503zm-727 0l0 -503c0,-101 32,-196 106,-264 38,-34 85,-56 136,-55 130,0 179,135 179,251 0,268 -186,468 -421,571z"/>
 </g>
</svg>
