<?xml version="1.0" encoding="UTF-8"?>
<!DOCTYPE svg PUBLIC "-//W3C//DTD SVG 1.1//EN" "http://www.w3.org/Graphics/SVG/1.1/DTD/svg11.dtd">
<!-- Creator: CorelDRAW X8 -->
<svg xmlns="http://www.w3.org/2000/svg" xml:space="preserve" width="1834px" height="1405px" version="1.1" style="shape-rendering:geometricPrecision; text-rendering:geometricPrecision; image-rendering:optimizeQuality; fill-rule:evenodd; clip-rule:evenodd"
viewBox="0 0 1834 1405"
 xmlns:xlink="http://www.w3.org/1999/xlink">
 <defs>
  <style type="text/css">
   <![CDATA[
    .fil0 {fill:#2B2A29;fill-rule:nonzero}
   ]]>
  </style>
 </defs>
 <g id="Layer_x0020_1">
  <metadata id="CorelCorpID_0Corel-Layer"/>
  <path class="fil0" d="M585 1405c82,0 165,-13 242,-41 78,28 151,40 234,40 185,0 360,-93 451,-259 53,-96 78,-211 78,-321 0,-148 -39,-234 -116,-360 -44,-73 -87,-148 -87,-235 0,-89 59,-160 151,-159 78,0 141,47 176,115 10,18 37,24 59,24 20,0 61,-9 61,-33 0,-4 -1,-7 -3,-11 -57,-108 -175,-165 -293,-165 -146,0 -269,73 -269,232 0,108 44,183 90,261 66,112 108,201 108,331 0,104 -22,209 -72,300 -68,123 -194,210 -334,210 -49,0 -89,-7 -136,-18 84,-58 141,-118 189,-211 52,-101 73,-194 73,-306 0,-114 -32,-226 -112,-310 -65,-68 -155,-108 -248,-108 -129,0 -225,73 -270,162 -28,-88 -96,-162 -225,-162 -105,0 -211,60 -264,153 -49,84 -68,184 -68,281 0,139 43,295 135,402 121,142 278,188 450,188zm242 -134c-78,-56 -130,-112 -170,-202 -38,-86 -55,-180 -55,-274 0,-151 55,-344 225,-344 69,0 130,37 170,94 51,72 68,166 68,255 0,100 -21,191 -67,281 -43,84 -94,139 -171,190zm-242 63c-141,0 -246,-38 -339,-148 -85,-100 -123,-243 -123,-372 0,-88 17,-181 62,-258 31,-55 80,-105 147,-105 96,0 127,81 140,165 9,61 9,119 9,179 0,107 24,217 72,314 44,90 99,148 179,206 -51,12 -93,19 -147,19z"/>
 </g>
</svg>
