<?xml version="1.0" encoding="UTF-8"?>
<!DOCTYPE svg PUBLIC "-//W3C//DTD SVG 1.1//EN" "http://www.w3.org/Graphics/SVG/1.1/DTD/svg11.dtd">
<!-- Creator: CorelDRAW X8 -->
<svg xmlns="http://www.w3.org/2000/svg" xml:space="preserve" width="1042px" height="1405px" version="1.1" style="shape-rendering:geometricPrecision; text-rendering:geometricPrecision; image-rendering:optimizeQuality; fill-rule:evenodd; clip-rule:evenodd"
viewBox="0 0 1043 1405"
 xmlns:xlink="http://www.w3.org/1999/xlink">
 <defs>
  <style type="text/css">
   <![CDATA[
    .fil0 {fill:#663300;fill-rule:nonzero}
   ]]>
  </style>
 </defs>
 <g id="Layer_x0020_1">
  <metadata id="CorelCorpID_0Corel-Layer"/>
  <path class="fil0" d="M88 410c17,-23 65,-34 106,-24 42,10 61,37 43,60 -51,66 -75,146 -75,226 2,121 55,211 137,267 90,-118 140,-220 186,-359 44,-131 78,-286 51,-378 -18,-62 -52,-107 -134,-109 -69,-2 -131,46 -162,105 -13,24 -59,37 -102,30 -42,-7 -67,-33 -54,-57 61,-111 200,-171 331,-171 91,0 159,27 205,72 48,45 72,109 76,183 1,41 -4,84 -15,130 16,-3 33,-5 51,-5 96,-1 179,35 235,97 45,49 72,116 76,194 7,180 -82,301 -248,371 20,42 30,87 29,132 -7,161 -160,232 -305,231 -151,0 -307,-83 -305,-250 0,-40 11,-79 29,-119 -139,-64 -241,-182 -243,-364 -1,-91 28,-184 88,-262zm350 585c27,5 55,8 83,8 23,0 47,-2 71,-5 -32,-44 -53,-85 -76,-124 -27,42 -53,83 -78,121zm208 89c-42,7 -84,10 -127,10 -43,-1 -86,-5 -127,-12 -59,156 34,234 127,232 93,-1 186,-81 127,-230zm88 -133c108,-60 151,-158 146,-278 -3,-68 -24,-119 -55,-154 -27,-30 -57,-46 -87,-46 -27,0 -55,14 -80,43 -38,46 -52,111 -50,170 3,116 55,179 126,265z"/>
 </g>
</svg>
