<?xml version="1.0" encoding="UTF-8"?>
<!DOCTYPE svg PUBLIC "-//W3C//DTD SVG 1.1//EN" "http://www.w3.org/Graphics/SVG/1.1/DTD/svg11.dtd">
<!-- Creator: CorelDRAW X8 -->
<svg xmlns="http://www.w3.org/2000/svg" xml:space="preserve" width="1123px" height="1024px" version="1.1" style="shape-rendering:geometricPrecision; text-rendering:geometricPrecision; image-rendering:optimizeQuality; fill-rule:evenodd; clip-rule:evenodd"
viewBox="0 0 1123 1024"
 xmlns:xlink="http://www.w3.org/1999/xlink">
 <defs>
  <style type="text/css">
   <![CDATA[
    .fil0 {fill:#00A0E3;fill-rule:nonzero}
   ]]>
  </style>
 </defs>
 <g id="Layer_x0020_1">
  <metadata id="CorelCorpID_0Corel-Layer"/>
  <path class="fil0" d="M164 476c-31,-48 -43,-111 -43,-167 0,-123 58,-237 191,-239 134,-1 175,80 175,204l0 215c0,26 42,35 62,35 19,0 61,-9 61,-35l0 -221c0,-111 41,-198 161,-198 180,0 230,186 230,337 0,161 -54,325 -177,431 -88,75 -210,116 -329,116 -78,0 -158,-19 -227,-58 -24,-13 -63,-13 -87,1 -32,19 -15,41 11,55 93,49 198,72 303,72 155,0 316,-49 431,-147 137,-117 197,-291 197,-470 0,-227 -115,-407 -352,-407 -110,0 -184,48 -221,123 -43,-79 -124,-123 -236,-123 -185,0 -314,120 -314,312 0,57 12,124 40,174 20,35 51,43 88,35 19,-4 52,-21 36,-45z"/>
 </g>
</svg>
