<?xml version="1.0" encoding="UTF-8"?>
<!DOCTYPE svg PUBLIC "-//W3C//DTD SVG 1.1//EN" "http://www.w3.org/Graphics/SVG/1.1/DTD/svg11.dtd">
<!-- Creator: CorelDRAW X8 -->
<svg xmlns="http://www.w3.org/2000/svg" xml:space="preserve" width="1163px" height="1024px" version="1.1" style="shape-rendering:geometricPrecision; text-rendering:geometricPrecision; image-rendering:optimizeQuality; fill-rule:evenodd; clip-rule:evenodd"
viewBox="0 0 1163 1024"
 xmlns:xlink="http://www.w3.org/1999/xlink">
 <defs>
  <style type="text/css">
   <![CDATA[
    .fil0 {fill:#CC9933;fill-rule:nonzero}
   ]]>
  </style>
 </defs>
 <g id="Layer_x0020_1">
  <metadata id="CorelCorpID_0Corel-Layer"/>
  <path class="fil0" d="M170 476c-32,-48 -45,-111 -45,-167 0,-123 60,-237 198,-239 139,-1 182,80 182,204l0 215c0,26 43,35 63,35 21,0 64,-9 64,-35l0 -221c0,-111 42,-198 167,-198 185,0 237,186 237,337 0,161 -55,325 -183,431 -90,75 -217,116 -340,116 -82,0 -164,-19 -236,-58 -25,-13 -65,-13 -89,1 -34,19 -17,41 11,55 96,49 205,72 313,72 161,0 328,-49 447,-147 141,-117 204,-291 204,-470 0,-227 -120,-407 -364,-407 -114,0 -168,29 -230,123 -65,-91 -128,-123 -244,-123 -192,0 -325,120 -325,312 0,57 13,124 42,174 20,35 52,43 90,35 20,-4 54,-21 38,-45z"/>
 </g>
</svg>
