<?xml version="1.0" encoding="UTF-8"?>
<!DOCTYPE svg PUBLIC "-//W3C//DTD SVG 1.1//EN" "http://www.w3.org/Graphics/SVG/1.1/DTD/svg11.dtd">
<!-- Creator: CorelDRAW X8 -->
<svg xmlns="http://www.w3.org/2000/svg" xml:space="preserve" width="2167px" height="1412px" version="1.1" style="shape-rendering:geometricPrecision; text-rendering:geometricPrecision; image-rendering:optimizeQuality; fill-rule:evenodd; clip-rule:evenodd"
viewBox="0 0 2167 1412"
 xmlns:xlink="http://www.w3.org/1999/xlink">
 <defs>
  <style type="text/css">
   <![CDATA[
    .fil0 {fill:#2B2A29;fill-rule:nonzero}
   ]]>
  </style>
 </defs>
 <g id="Layer_x0020_1">
  <metadata id="CorelCorpID_0Corel-Layer"/>
  <path class="fil0" d="M900 164c-99,-125 -242,-164 -396,-164 -198,0 -359,92 -444,265 -42,85 -60,187 -60,281 0,156 48,316 156,406 59,49 124,72 199,72 76,0 155,-24 213,-74 70,-59 102,-156 102,-245 0,-78 -22,-153 -76,-211 -56,-61 -140,-94 -221,-94 -111,0 -219,60 -252,171 -3,-100 8,-188 52,-280 64,-132 179,-221 331,-221 198,0 338,112 338,317l0 601c0,26 41,36 61,36 20,0 62,-9 62,-35l0 -602c0,-198 116,-318 307,-318 117,0 214,43 301,122 -137,17 -252,61 -337,178 -59,79 -89,180 -89,279 0,81 20,163 64,231 63,97 165,145 279,145 117,0 218,-56 279,-159 51,-88 72,-191 72,-292 0,-101 -20,-199 -66,-287 200,96 270,309 270,518 0,269 -133,538 -441,538 -86,0 -171,-25 -240,-81 -12,-10 -31,-14 -50,-14 -13,0 -26,2 -36,6 -14,6 -26,17 -26,28 0,7 4,14 12,20 95,77 220,111 340,111 372,0 563,-263 563,-608 0,-290 -148,-557 -452,-609 -113,-140 -268,-195 -443,-195 -161,0 -261,42 -372,164zm590 789c-72,0 -127,-39 -165,-98 -39,-60 -55,-135 -55,-207 0,-90 25,-180 78,-252 71,-96 167,-136 282,-136 63,96 88,196 88,311 0,93 -16,190 -65,271 -37,62 -88,111 -163,111zm-1129 0c-132,0 -195,-116 -195,-238 0,-121 64,-239 195,-239 130,0 193,117 193,236 0,119 -59,241 -193,241z"/>
 </g>
</svg>
