<?xml version="1.0" encoding="UTF-8"?>
<!DOCTYPE svg PUBLIC "-//W3C//DTD SVG 1.1//EN" "http://www.w3.org/Graphics/SVG/1.1/DTD/svg11.dtd">
<!-- Creator: CorelDRAW X8 -->
<svg xmlns="http://www.w3.org/2000/svg" xml:space="preserve" width="2167px" height="1412px" version="1.1" style="shape-rendering:geometricPrecision; text-rendering:geometricPrecision; image-rendering:optimizeQuality; fill-rule:evenodd; clip-rule:evenodd"
viewBox="0 0 2167 1412"
 xmlns:xlink="http://www.w3.org/1999/xlink">
 <defs>
  <style type="text/css">
   <![CDATA[
    .fil0 {fill:#B2B09C;fill-rule:nonzero}
   ]]>
  </style>
 </defs>
 <g id="Layer_x0020_1">
  <metadata id="CorelCorpID_0Corel-Layer"/>
  <path class="fil0" d="M509 0c-201,-2 -364,90 -449,265 -37,74 -57,167 -60,262 -4,162 44,331 156,425 60,50 127,73 204,72 74,-1 151,-26 208,-74 67,-57 99,-148 102,-235 2,-82 -21,-161 -76,-221 -59,-64 -147,-97 -232,-94 -106,4 -209,63 -241,171 -6,-97 12,-196 52,-280 64,-133 180,-222 334,-221 192,2 335,108 335,317l0 601c0,26 41,36 61,36 20,0 62,-9 62,-35l0 -602c0,-195 114,-314 300,-318 122,-3 222,41 311,123 -116,5 -249,52 -340,174 -58,79 -89,180 -89,278 0,80 20,169 64,236 63,96 164,143 276,144 119,1 221,-54 283,-158 49,-83 70,-190 71,-286 2,-112 -21,-189 -60,-291 184,81 277,314 262,568 -15,246 -153,477 -417,485 -91,3 -189,-22 -262,-81 -21,-17 -61,-18 -85,-8 -23,9 -38,30 -15,48 100,81 234,115 360,111 319,-10 522,-239 541,-555 20,-315 -127,-603 -448,-662 -115,-140 -274,-195 -452,-195 -157,0 -255,43 -365,164 -100,-125 -240,-162 -391,-164zm1121 258c66,99 90,204 89,322 -1,88 -20,187 -65,264 -38,62 -90,111 -166,110 -70,-1 -125,-41 -162,-99 -39,-59 -56,-140 -56,-211 0,-90 25,-178 79,-251 70,-95 166,-135 281,-135zm-1464 457c0,-121 64,-239 195,-239 131,0 194,119 193,239 0,119 -64,239 -193,238 -132,0 -195,-116 -195,-238z"/>
 </g>
</svg>
