<?xml version="1.0" encoding="UTF-8"?>
<!DOCTYPE svg PUBLIC "-//W3C//DTD SVG 1.1//EN" "http://www.w3.org/Graphics/SVG/1.1/DTD/svg11.dtd">
<!-- Creator: CorelDRAW X8 -->
<svg xmlns="http://www.w3.org/2000/svg" xml:space="preserve" width="1332px" height="825px" version="1.1" style="shape-rendering:geometricPrecision; text-rendering:geometricPrecision; image-rendering:optimizeQuality; fill-rule:evenodd; clip-rule:evenodd"
viewBox="0 0 1332 825"
 xmlns:xlink="http://www.w3.org/1999/xlink">
 <defs>
  <style type="text/css">
   <![CDATA[
    .fil0 {fill:#2B2A29;fill-rule:nonzero}
   ]]>
  </style>
 </defs>
 <g id="Layer_x0020_1">
  <metadata id="CorelCorpID_0Corel-Layer"/>
  <path class="fil0" d="M777 53c59,-1 121,19 167,58 -77,10 -149,43 -196,104 -35,46 -54,104 -54,162 0,49 13,98 39,136 40,59 106,86 177,87 72,1 141,-29 182,-95 29,-47 43,-107 44,-165 1,-48 -7,-94 -25,-139 97,67 129,189 122,298 -9,136 -87,268 -239,273 -52,1 -107,-12 -148,-44 -17,-13 -48,-14 -68,-6 -18,6 -30,23 -12,37 63,48 148,68 228,66 195,-6 325,-136 337,-326 12,-182 -79,-346 -272,-384 -63,-73 -157,-115 -282,-115 -87,0 -157,22 -219,86 -53,-63 -157,-85 -238,-86 -132,-1 -233,59 -283,156 -24,46 -37,101 -37,160 0,92 29,186 96,240 40,31 84,44 134,44 51,-1 101,-17 136,-46 42,-33 62,-86 64,-138 1,-52 -16,-96 -48,-130 -36,-37 -92,-59 -152,-57 -54,2 -101,26 -132,70 0,-43 11,-85 30,-123 36,-71 103,-123 191,-123 112,1 191,62 191,177l0 343c0,15 22,27 49,27 27,0 49,-12 49,-27l0 -343c0,-108 62,-175 169,-177zm-652 363c0,-86 53,-130 105,-130 53,0 106,43 106,130 -1,87 -55,130 -106,130 -54,0 -106,-43 -105,-130zm863 -254c37,53 51,115 50,178 -1,52 -12,106 -39,148 -24,39 -54,59 -88,59 -37,-1 -66,-23 -86,-53 -22,-31 -33,-74 -33,-117 0,-50 15,-101 46,-142 36,-46 90,-73 150,-73z"/>
 </g>
</svg>
