<?xml version="1.0" encoding="UTF-8"?>
<!DOCTYPE svg PUBLIC "-//W3C//DTD SVG 1.1//EN" "http://www.w3.org/Graphics/SVG/1.1/DTD/svg11.dtd">
<!-- Creator: CorelDRAW X8 -->
<svg xmlns="http://www.w3.org/2000/svg" xml:space="preserve" width="1343px" height="1012px" version="1.1" style="shape-rendering:geometricPrecision; text-rendering:geometricPrecision; image-rendering:optimizeQuality; fill-rule:evenodd; clip-rule:evenodd"
viewBox="0 0 1343 1012"
 xmlns:xlink="http://www.w3.org/1999/xlink">
 <defs>
  <style type="text/css">
   <![CDATA[
    .fil0 {fill:#2B2A29;fill-rule:nonzero}
   ]]>
  </style>
 </defs>
 <g id="Layer_x0020_1">
  <metadata id="CorelCorpID_0Corel-Layer"/>
  <path class="fil0" d="M331 1012c16,0 32,-3 45,-12 11,-7 15,-14 15,-22 0,-10 -8,-20 -21,-27 -162,-81 -246,-258 -246,-437 0,-241 147,-445 402,-445 257,-1 402,214 402,454 0,179 -86,336 -246,416 -9,5 -21,14 -21,26 0,26 43,35 63,35l557 0c20,0 62,-9 62,-35 0,-27 -42,-35 -62,-35l-420 0c122,-110 191,-238 191,-405 0,-297 -229,-525 -526,-525 -293,0 -526,219 -526,516 0,199 108,394 282,484 15,8 32,12 49,12z"/>
 </g>
</svg>
