<?xml version="1.0" encoding="UTF-8"?>
<!DOCTYPE svg PUBLIC "-//W3C//DTD SVG 1.1//EN" "http://www.w3.org/Graphics/SVG/1.1/DTD/svg11.dtd">
<!-- Creator: CorelDRAW X8 -->
<svg xmlns="http://www.w3.org/2000/svg" xml:space="preserve" width="1343px" height="1012px" version="1.1" style="shape-rendering:geometricPrecision; text-rendering:geometricPrecision; image-rendering:optimizeQuality; fill-rule:evenodd; clip-rule:evenodd"
viewBox="0 0 1343 1012"
 xmlns:xlink="http://www.w3.org/1999/xlink">
 <defs>
  <style type="text/css">
   <![CDATA[
    .fil0 {fill:#CC9933;fill-rule:nonzero}
   ]]>
  </style>
 </defs>
 <g id="Layer_x0020_1">
  <metadata id="CorelCorpID_0Corel-Layer"/>
  <path class="fil0" d="M861 930c125,-113 195,-245 191,-419 -6,-296 -241,-511 -526,-511 -286,0 -523,211 -526,511 -2,200 106,398 282,489 15,8 33,12 51,12 15,0 30,-4 43,-12 8,-5 16,-13 15,-24 -1,-12 -11,-20 -21,-25 -163,-81 -247,-260 -246,-440 0,-245 154,-441 402,-442 247,0 398,201 402,442 4,184 -82,346 -246,428 -9,5 -20,13 -21,25 -1,27 43,36 63,36l557 0c20,0 62,-9 62,-35 0,-27 -42,-35 -62,-35l-420 0z"/>
 </g>
</svg>
