<?xml version="1.0" encoding="UTF-8"?>
<!DOCTYPE svg PUBLIC "-//W3C//DTD SVG 1.1//EN" "http://www.w3.org/Graphics/SVG/1.1/DTD/svg11.dtd">
<!-- Creator: CorelDRAW X8 -->
<svg xmlns="http://www.w3.org/2000/svg" xml:space="preserve" width="1832px" height="1024px" version="1.1" style="shape-rendering:geometricPrecision; text-rendering:geometricPrecision; image-rendering:optimizeQuality; fill-rule:evenodd; clip-rule:evenodd"
viewBox="0 0 1832 1024"
 xmlns:xlink="http://www.w3.org/1999/xlink">
 <defs>
  <style type="text/css">
   <![CDATA[
    .fil0 {fill:#2B2A29;fill-rule:nonzero}
   ]]>
  </style>
 </defs>
 <g id="Layer_x0020_1">
  <metadata id="CorelCorpID_0Corel-Layer"/>
  <path class="fil0" d="M776 1024c20,0 62,-9 62,-35l0 -636c0,-166 82,-283 252,-283 211,0 313,238 313,425 0,167 -65,371 -231,442 -11,5 -24,14 -24,27 0,29 43,36 65,36l557 0c20,0 62,-9 62,-36 0,-26 -42,-35 -62,-35l-422 0c128,-122 178,-262 178,-437 0,-261 -162,-492 -436,-492 -132,0 -225,32 -314,133 -89,-101 -182,-133 -314,-133 -176,0 -336,91 -412,256 -36,79 -50,169 -50,256 0,200 82,416 275,503 13,6 28,9 44,9 17,0 34,-4 47,-14 9,-6 12,-14 12,-20 0,-12 -10,-23 -24,-29 -166,-72 -231,-283 -231,-450 0,-72 10,-146 36,-213 49,-129 163,-228 303,-228 171,0 253,117 253,283l0 636c0,26 42,35 61,35z"/>
 </g>
</svg>
