<?xml version="1.0" encoding="UTF-8"?>
<!DOCTYPE svg PUBLIC "-//W3C//DTD SVG 1.1//EN" "http://www.w3.org/Graphics/SVG/1.1/DTD/svg11.dtd">
<!-- Creator: CorelDRAW X8 -->
<svg xmlns="http://www.w3.org/2000/svg" xml:space="preserve" width="1142px" height="1405px" version="1.1" style="shape-rendering:geometricPrecision; text-rendering:geometricPrecision; image-rendering:optimizeQuality; fill-rule:evenodd; clip-rule:evenodd"
viewBox="0 0 1142 1405"
 xmlns:xlink="http://www.w3.org/1999/xlink">
 <defs>
  <style type="text/css">
   <![CDATA[
    .fil0 {fill:#2B2A29;fill-rule:nonzero}
   ]]>
  </style>
 </defs>
 <g id="Layer_x0020_1">
  <metadata id="CorelCorpID_0Corel-Layer"/>
  <path class="fil0" d="M277 1405c11,0 24,-3 36,-8 14,-6 23,-16 23,-28 0,-7 -4,-14 -13,-21 -132,-95 -200,-271 -200,-430 0,-255 165,-434 409,-469l0 619c0,181 38,336 250,336 248,0 360,-244 360,-463 0,-304 -182,-525 -487,-561l0 -345c0,-26 -42,-35 -62,-35 -19,0 -61,9 -61,35l0 343c-296,24 -532,224 -532,540 0,173 74,354 212,462 20,16 42,25 65,25zm505 -70c-119,0 -127,-180 -127,-267l0 -617c249,53 364,246 364,490 0,142 -54,394 -237,394z"/>
 </g>
</svg>
