<?xml version="1.0" encoding="UTF-8"?>
<!DOCTYPE svg PUBLIC "-//W3C//DTD SVG 1.1//EN" "http://www.w3.org/Graphics/SVG/1.1/DTD/svg11.dtd">
<!-- Creator: CorelDRAW X8 -->
<svg xmlns="http://www.w3.org/2000/svg" xml:space="preserve" width="1713px" height="1679px" version="1.1" style="shape-rendering:geometricPrecision; text-rendering:geometricPrecision; image-rendering:optimizeQuality; fill-rule:evenodd; clip-rule:evenodd"
viewBox="0 0 1713 1679"
 xmlns:xlink="http://www.w3.org/1999/xlink">
 <defs>
  <style type="text/css">
   <![CDATA[
    .fil0 {fill:#2B2A29;fill-rule:nonzero}
   ]]>
  </style>
 </defs>
 <g id="Layer_x0020_1">
  <metadata id="CorelCorpID_0Corel-Layer"/>
  <path class="fil0" d="M748 1679c321,0 588,-229 588,-558 0,-163 -71,-275 -222,-336 96,-33 170,-102 170,-218 0,-99 -49,-172 -132,-221 -75,-45 -180,-65 -267,-65 -328,0 -513,233 -513,550 0,153 49,322 151,439 19,22 40,32 64,32 10,0 20,-2 30,-5 15,-4 33,-17 33,-31 0,-5 -2,-11 -7,-16 -101,-108 -148,-273 -148,-419 0,-237 124,-481 390,-481 65,0 139,16 193,54 55,38 83,96 83,163 0,99 -66,149 -155,172 -45,11 -90,14 -136,14 -20,0 -62,9 -62,35 0,26 42,35 62,35 47,0 96,2 143,12 142,30 201,148 201,286 0,261 -206,488 -472,488 -404,0 -619,-362 -619,-736 0,-441 284,-803 744,-803 444,0 721,364 721,791 0,155 -38,314 -115,448 -2,4 -3,8 -3,11 0,26 43,35 64,35 25,0 47,-9 61,-35 78,-139 118,-299 118,-459 0,-487 -359,-861 -846,-861 -514,0 -867,361 -867,873 0,449 286,806 748,806z"/>
 </g>
</svg>
