<?xml version="1.0" encoding="UTF-8"?>
<!DOCTYPE svg PUBLIC "-//W3C//DTD SVG 1.1//EN" "http://www.w3.org/Graphics/SVG/1.1/DTD/svg11.dtd">
<!-- Creator: CorelDRAW X8 -->
<svg xmlns="http://www.w3.org/2000/svg" xml:space="preserve" width="2181px" height="1412px" version="1.1" style="shape-rendering:geometricPrecision; text-rendering:geometricPrecision; image-rendering:optimizeQuality; fill-rule:evenodd; clip-rule:evenodd"
viewBox="0 0 2181 1412"
 xmlns:xlink="http://www.w3.org/1999/xlink">
 <defs>
  <style type="text/css">
   <![CDATA[
    .fil0 {fill:#2B2A29;fill-rule:nonzero}
   ]]>
  </style>
 </defs>
 <g id="Layer_x0020_1">
  <metadata id="CorelCorpID_0Corel-Layer"/>
  <path class="fil0" d="M1398 1412c310,0 569,-154 701,-444 54,-117 82,-248 82,-378 0,-306 -176,-590 -499,-590 -121,0 -245,43 -316,142 -67,-93 -183,-142 -296,-142 -114,0 -224,47 -292,142 -72,-99 -196,-142 -317,-142 -156,0 -310,76 -389,212 -51,86 -72,194 -72,293 -1,205 78,424 279,512 11,5 24,7 37,7 18,0 35,-4 49,-14 9,-6 12,-14 12,-20 0,-12 -10,-23 -24,-29 -171,-74 -231,-286 -230,-456 0,-90 18,-187 62,-265 56,-99 162,-170 276,-170 171,0 253,124 253,285l0 634c0,19 28,35 62,35 34,0 61,-16 61,-35l0 -634c0,-187 117,-282 233,-282 154,0 236,136 236,282l0 634c0,19 28,35 62,35 34,0 61,-16 61,-35l0 -634c0,-161 82,-284 253,-284 270,0 376,292 376,519 0,124 -26,248 -78,361 -110,241 -317,391 -582,391 -98,0 -196,-25 -276,-83 -13,-9 -30,-13 -47,-13 -14,0 -29,3 -40,8 -14,7 -23,17 -23,27 0,8 4,15 14,22 107,76 242,109 372,109z"/>
 </g>
</svg>
