<?xml version="1.0" encoding="UTF-8"?>
<!DOCTYPE svg PUBLIC "-//W3C//DTD SVG 1.1//EN" "http://www.w3.org/Graphics/SVG/1.1/DTD/svg11.dtd">
<!-- Creator: CorelDRAW X8 -->
<svg xmlns="http://www.w3.org/2000/svg" xml:space="preserve" width="1218px" height="1412px" version="1.1" style="shape-rendering:geometricPrecision; text-rendering:geometricPrecision; image-rendering:optimizeQuality; fill-rule:evenodd; clip-rule:evenodd"
viewBox="0 0 1218 1412"
 xmlns:xlink="http://www.w3.org/1999/xlink">
 <defs>
  <style type="text/css">
   <![CDATA[
    .fil0 {fill:#2B2A29;fill-rule:nonzero}
   ]]>
  </style>
 </defs>
 <g id="Layer_x0020_1">
  <metadata id="CorelCorpID_0Corel-Layer"/>
  <path class="fil0" d="M528 1412c128,0 249,-35 358,-104 92,-58 170,-138 226,-232 72,-119 106,-254 106,-392 0,-182 -55,-366 -186,-503 -123,-128 -287,-181 -461,-181 -335,0 -571,202 -571,546 0,156 48,316 156,406 59,49 124,72 199,72 76,0 155,-24 213,-74 70,-59 102,-156 102,-245 0,-78 -23,-153 -76,-211 -57,-61 -140,-94 -221,-94 -111,0 -219,60 -252,171 -23,-284 155,-502 450,-502 154,0 275,59 362,154 123,133 162,285 162,460 0,130 -32,259 -99,370 -51,84 -119,157 -202,209 -80,50 -171,80 -266,80 -101,0 -197,-31 -282,-84 -12,-8 -29,-12 -45,-12 -15,0 -30,4 -42,10 -12,6 -19,16 -19,25 0,9 5,17 16,24 111,69 241,107 372,107zm-167 -459c-132,0 -195,-116 -195,-238 0,-121 64,-239 195,-239 131,0 194,119 194,239 0,117 -62,238 -194,238z"/>
 </g>
</svg>
