<?xml version="1.0" encoding="UTF-8"?>
<!DOCTYPE svg PUBLIC "-//W3C//DTD SVG 1.1//EN" "http://www.w3.org/Graphics/SVG/1.1/DTD/svg11.dtd">
<!-- Creator: CorelDRAW X8 -->
<svg xmlns="http://www.w3.org/2000/svg" xml:space="preserve" width="1218px" height="1412px" version="1.1" style="shape-rendering:geometricPrecision; text-rendering:geometricPrecision; image-rendering:optimizeQuality; fill-rule:evenodd; clip-rule:evenodd"
viewBox="0 0 1218 1412"
 xmlns:xlink="http://www.w3.org/1999/xlink">
 <defs>
  <style type="text/css">
   <![CDATA[
    .fil0 {fill:#B2B09C;fill-rule:nonzero}
   ]]>
  </style>
 </defs>
 <g id="Layer_x0020_1">
  <metadata id="CorelCorpID_0Corel-Layer"/>
  <path class="fil0" d="M156 1305c111,70 236,107 367,107 128,0 254,-35 363,-103 92,-59 170,-139 226,-233 79,-131 113,-282 105,-435 -9,-168 -68,-338 -185,-459 -123,-129 -285,-182 -459,-182 -340,0 -564,205 -573,527 -4,162 44,331 156,425 60,51 127,73 204,72 74,-1 151,-26 208,-74 67,-57 100,-148 102,-235 2,-82 -21,-161 -76,-221 -59,-64 -147,-97 -232,-94 -105,4 -209,63 -241,171 -17,-279 136,-507 452,-502 135,1 257,48 352,146 108,113 161,269 169,425 8,144 -24,290 -98,413 -50,85 -119,157 -202,209 -81,52 -174,81 -271,81 -98,-1 -193,-33 -277,-85 -24,-15 -62,-15 -87,-2 -24,12 -27,35 -3,49zm10 -590c0,-120 64,-239 195,-239 131,0 194,119 194,239 -1,119 -65,239 -194,239 -132,0 -195,-117 -195,-239z"/>
 </g>
</svg>
