<?xml version="1.0" encoding="UTF-8"?>
<!DOCTYPE svg PUBLIC "-//W3C//DTD SVG 1.1//EN" "http://www.w3.org/Graphics/SVG/1.1/DTD/svg11.dtd">
<!-- Creator: CorelDRAW X8 -->
<svg xmlns="http://www.w3.org/2000/svg" xml:space="preserve" width="1218px" height="1412px" version="1.1" style="shape-rendering:geometricPrecision; text-rendering:geometricPrecision; image-rendering:optimizeQuality; fill-rule:evenodd; clip-rule:evenodd"
viewBox="0 0 1218 1412"
 xmlns:xlink="http://www.w3.org/1999/xlink">
 <defs>
  <style type="text/css">
   <![CDATA[
    .fil0 {fill:#CC9933;fill-rule:nonzero}
   ]]>
  </style>
 </defs>
 <g id="Layer_x0020_1">
  <metadata id="CorelCorpID_0Corel-Layer"/>
  <path class="fil0" d="M166 715c0,122 63,239 195,239 130,0 194,-121 194,-240 0,-121 -64,-238 -194,-238 -131,0 -195,118 -195,239zm-10 590c-9,-5 -17,-13 -17,-24 1,-12 11,-20 20,-25 13,-7 29,-10 44,-9 16,0 31,4 43,11 84,52 179,84 277,85 97,0 190,-29 271,-81 83,-52 152,-124 202,-209 74,-123 106,-269 98,-413 -8,-156 -61,-312 -169,-425 -95,-98 -217,-145 -352,-146 -297,-4 -467,191 -452,496 31,-90 116,-161 241,-165 85,-3 173,30 232,94 55,60 78,139 76,221 -2,87 -35,178 -102,235 -57,49 -134,73 -208,74 -77,1 -144,-21 -204,-72 -114,-96 -156,-266 -156,-411 0,-345 250,-541 573,-541 174,0 336,53 459,182 117,121 176,291 185,459 8,153 -26,304 -105,435 -56,94 -134,174 -226,233 -109,68 -235,103 -363,103 -131,0 -256,-37 -367,-107z"/>
 </g>
</svg>
