<?xml version="1.0" encoding="UTF-8"?>
<!DOCTYPE svg PUBLIC "-//W3C//DTD SVG 1.1//EN" "http://www.w3.org/Graphics/SVG/1.1/DTD/svg11.dtd">
<!-- Creator: CorelDRAW X8 -->
<svg xmlns="http://www.w3.org/2000/svg" xml:space="preserve" width="1472px" height="1412px" version="1.1" style="shape-rendering:geometricPrecision; text-rendering:geometricPrecision; image-rendering:optimizeQuality; fill-rule:evenodd; clip-rule:evenodd"
viewBox="0 0 1472 1412"
 xmlns:xlink="http://www.w3.org/1999/xlink">
 <defs>
  <style type="text/css">
   <![CDATA[
    .fil0 {fill:#2B2A29;fill-rule:nonzero}
   ]]>
  </style>
 </defs>
 <g id="Layer_x0020_1">
  <metadata id="CorelCorpID_0Corel-Layer"/>
  <path class="fil0" d="M983 1412c165,0 343,-62 433,-211 41,-67 56,-135 56,-213l0 -952c0,-27 -42,-36 -62,-36 -19,0 -61,9 -61,36l0 893 -488 0c122,-109 191,-237 191,-404 0,-297 -229,-525 -526,-525 -293,0 -526,219 -526,516 0,198 108,395 282,484 15,8 33,12 50,12 16,0 31,-4 44,-12 11,-7 15,-14 15,-22 0,-10 -8,-20 -21,-27 -162,-81 -246,-258 -246,-437 0,-241 148,-445 402,-445 257,-1 402,214 402,454 0,178 -86,336 -246,416 -9,5 -21,14 -21,26 0,26 43,35 63,35l625 0c0,67 -15,122 -50,179 -67,111 -190,163 -316,163 -97,0 -193,-30 -276,-83 -12,-7 -28,-12 -44,-12 -16,0 -31,4 -43,10 -13,7 -20,16 -20,26 0,8 5,16 16,23 110,69 238,106 367,106z"/>
 </g>
</svg>
