<?xml version="1.0" encoding="UTF-8"?>
<!DOCTYPE svg PUBLIC "-//W3C//DTD SVG 1.1//EN" "http://www.w3.org/Graphics/SVG/1.1/DTD/svg11.dtd">
<!-- Creator: CorelDRAW X8 -->
<svg xmlns="http://www.w3.org/2000/svg" xml:space="preserve" width="1472px" height="1412px" version="1.1" style="shape-rendering:geometricPrecision; text-rendering:geometricPrecision; image-rendering:optimizeQuality; fill-rule:evenodd; clip-rule:evenodd"
viewBox="0 0 1472 1412"
 xmlns:xlink="http://www.w3.org/1999/xlink">
 <defs>
  <style type="text/css">
   <![CDATA[
    .fil0 {fill:#B2B09C;fill-rule:nonzero}
   ]]>
  </style>
 </defs>
 <g id="Layer_x0020_1">
  <metadata id="CorelCorpID_0Corel-Layer"/>
  <path class="fil0" d="M861 929c125,-112 195,-244 191,-418 -6,-296 -241,-511 -526,-511 -286,0 -523,211 -526,511 -2,200 106,398 282,489 28,14 66,18 94,0 23,-15 18,-37 -6,-49 -163,-81 -247,-260 -246,-440 0,-245 154,-441 402,-442 247,0 398,201 402,442 4,184 -82,346 -246,428 -9,5 -20,13 -21,25 -1,27 43,36 63,36l625 0c-1,66 -15,122 -50,179 -67,112 -190,163 -316,163 -97,0 -193,-31 -276,-83 -23,-14 -62,-15 -87,-2 -23,12 -28,34 -4,49 110,69 238,107 367,106 165,0 343,-62 433,-210 41,-68 56,-136 56,-214l0 -952c0,-27 -42,-36 -62,-36 -19,0 -61,9 -61,36l0 893 -488 0z"/>
 </g>
</svg>
