<?xml version="1.0" encoding="UTF-8"?>
<!DOCTYPE svg PUBLIC "-//W3C//DTD SVG 1.1//EN" "http://www.w3.org/Graphics/SVG/1.1/DTD/svg11.dtd">
<!-- Creator: CorelDRAW X8 -->
<svg xmlns="http://www.w3.org/2000/svg" xml:space="preserve" width="1206px" height="1000px" version="1.1" style="shape-rendering:geometricPrecision; text-rendering:geometricPrecision; image-rendering:optimizeQuality; fill-rule:evenodd; clip-rule:evenodd"
viewBox="0 0 1206 1000"
 xmlns:xlink="http://www.w3.org/1999/xlink">
 <defs>
  <style type="text/css">
   <![CDATA[
    .fil0 {fill:#2B2A29;fill-rule:nonzero}
   ]]>
  </style>
 </defs>
 <g id="Layer_x0020_1">
  <metadata id="CorelCorpID_0Corel-Layer"/>
  <path class="fil0" d="M426 1000c112,0 227,-42 303,-128 82,-93 115,-232 115,-355 0,-98 -18,-189 -62,-278 -8,-17 -33,-25 -58,-25 -31,0 -63,12 -63,34 0,4 1,7 3,11 40,80 57,169 57,258 0,112 -27,239 -101,323 -51,57 -118,91 -194,91 -83,0 -157,-42 -209,-106 -73,-90 -94,-208 -94,-321 0,-114 32,-228 101,-318 53,-70 116,-116 206,-116l715 0c19,0 61,-9 61,-35 0,-26 -42,-35 -61,-35l-715 0c-128,0 -240,55 -319,158 -75,97 -111,223 -111,346 0,122 27,253 105,350 79,97 199,146 321,146z"/>
 </g>
</svg>
