<?xml version="1.0" encoding="UTF-8"?>
<!DOCTYPE svg PUBLIC "-//W3C//DTD SVG 1.1//EN" "http://www.w3.org/Graphics/SVG/1.1/DTD/svg11.dtd">
<!-- Creator: CorelDRAW X8 -->
<svg xmlns="http://www.w3.org/2000/svg" xml:space="preserve" width="2386px" height="1405px" version="1.1" style="shape-rendering:geometricPrecision; text-rendering:geometricPrecision; image-rendering:optimizeQuality; fill-rule:evenodd; clip-rule:evenodd"
viewBox="0 0 2386 1405"
 xmlns:xlink="http://www.w3.org/1999/xlink">
 <defs>
  <style type="text/css">
   <![CDATA[
    .fil0 {fill:#B2B09C;fill-rule:nonzero}
   ]]>
  </style>
 </defs>
 <g id="Layer_x0020_1">
  <metadata id="CorelCorpID_0Corel-Layer"/>
  <path class="fil0" d="M896 532c-110,-117 -237,-151 -394,-150 -192,1 -358,93 -442,264 -37,74 -57,167 -60,262 -4,163 44,331 156,425 60,51 127,73 204,72 74,-1 150,-26 208,-74 67,-57 99,-148 102,-235 2,-82 -21,-161 -77,-221 -58,-64 -146,-97 -231,-94 -106,4 -209,64 -241,171 -6,-97 12,-195 52,-280 62,-129 178,-219 329,-220 201,-1 339,114 340,315 2,201 0,402 0,603 0,26 42,35 61,35 20,0 62,-9 62,-35l0 -629c0,-193 115,-287 230,-287 163,0 233,146 233,289l0 627c0,26 42,35 62,35 19,0 61,-9 61,-35l0 -603c0,-191 106,-314 297,-316 50,0 93,9 140,25 -56,89 -122,178 -169,272 -43,88 -68,190 -69,288 -1,68 9,139 36,202 47,109 134,167 252,167 119,0 212,-58 274,-161 52,-87 74,-191 74,-293 0,-83 -15,-170 -47,-247 -44,-106 -112,-191 -208,-250 38,-70 75,-146 74,-227 0,-152 -135,-227 -270,-227 -119,0 -238,57 -296,166 -13,25 22,40 41,43 24,5 64,0 76,-23 36,-68 101,-117 179,-116 87,1 148,69 148,157 0,66 -27,122 -56,181 -61,-17 -115,-27 -179,-27 -145,0 -254,43 -351,153 -72,-106 -175,-154 -303,-153 -116,2 -233,52 -298,151zm-730 564c0,-120 64,-238 195,-239 131,0 194,119 193,239 0,119 -64,239 -193,239 -132,0 -195,-117 -195,-239zm1918 -566c69,62 111,122 144,211 24,67 36,139 35,210 0,74 -20,164 -49,231 -32,77 -86,153 -176,153 -79,0 -125,-69 -147,-138 -16,-51 -20,-107 -19,-161 3,-81 20,-167 53,-241 40,-92 103,-183 159,-265z"/>
 </g>
</svg>
