<?xml version="1.0" encoding="UTF-8"?>
<!DOCTYPE svg PUBLIC "-//W3C//DTD SVG 1.1//EN" "http://www.w3.org/Graphics/SVG/1.1/DTD/svg11.dtd">
<!-- Creator: CorelDRAW X8 -->
<svg xmlns="http://www.w3.org/2000/svg" xml:space="preserve" width="2386px" height="1405px" version="1.1" style="shape-rendering:geometricPrecision; text-rendering:geometricPrecision; image-rendering:optimizeQuality; fill-rule:evenodd; clip-rule:evenodd"
viewBox="0 0 2386 1405"
 xmlns:xlink="http://www.w3.org/1999/xlink">
 <defs>
  <style type="text/css">
   <![CDATA[
    .fil0 {fill:#2B2A29;fill-rule:nonzero}
   ]]>
  </style>
 </defs>
 <g id="Layer_x0020_1">
  <metadata id="CorelCorpID_0Corel-Layer"/>
  <path class="fil0" d="M1497 534c-71,-105 -176,-153 -302,-153 -116,0 -234,52 -299,151 -108,-115 -237,-150 -391,-150 -193,0 -358,88 -445,264 -42,85 -60,187 -60,281 0,157 48,316 156,406 59,50 124,72 199,72 76,0 154,-24 213,-74 70,-58 102,-156 102,-245 0,-78 -23,-153 -77,-211 -56,-61 -139,-94 -220,-94 -111,0 -219,61 -252,171 -3,-100 8,-188 52,-280 63,-133 182,-220 332,-220 199,0 336,115 337,315l1 201 -1 402c0,26 42,35 61,35 20,0 62,-9 62,-35l0 -629c0,-193 115,-287 230,-287 163,0 233,146 233,289l0 627c0,26 42,35 62,35 19,0 61,-9 61,-35l0 -603c0,-182 101,-317 297,-317 49,0 94,10 140,25 -56,89 -122,179 -169,273 -45,92 -69,195 -69,297 0,65 10,133 36,192 48,110 135,167 252,167 119,0 212,-57 274,-160 52,-87 74,-192 74,-293 0,-83 -14,-170 -47,-248 -43,-105 -112,-190 -208,-250 37,-69 74,-143 74,-224 0,-153 -131,-229 -270,-229 -119,0 -238,57 -296,166 -2,4 -3,7 -3,11 0,24 42,33 61,33 22,0 50,-7 59,-24 37,-67 100,-116 177,-116 91,0 150,67 150,156 0,66 -28,123 -56,181 -61,-17 -115,-28 -179,-27 -149,1 -256,46 -351,154zm541 800c-79,0 -125,-68 -147,-137 -14,-46 -19,-97 -19,-146 0,-84 19,-179 53,-256 41,-92 103,-183 159,-266 69,62 112,123 144,211 26,69 35,138 35,211 0,74 -20,164 -49,231 -32,77 -86,152 -176,152zm-1677 1c-132,0 -195,-117 -195,-239 0,-120 64,-238 195,-239 130,-1 193,117 193,236 0,118 -60,242 -193,242z"/>
 </g>
</svg>
