<?xml version="1.0" encoding="UTF-8"?>
<!DOCTYPE svg PUBLIC "-//W3C//DTD SVG 1.1//EN" "http://www.w3.org/Graphics/SVG/1.1/DTD/svg11.dtd">
<!-- Creator: CorelDRAW X8 -->
<svg xmlns="http://www.w3.org/2000/svg" xml:space="preserve" width="1672px" height="1405px" version="1.1" style="shape-rendering:geometricPrecision; text-rendering:geometricPrecision; image-rendering:optimizeQuality; fill-rule:evenodd; clip-rule:evenodd"
viewBox="0 0 1672 1405"
 xmlns:xlink="http://www.w3.org/1999/xlink">
 <defs>
  <style type="text/css">
   <![CDATA[
    .fil0 {fill:#2B2A29;fill-rule:nonzero}
   ]]>
  </style>
 </defs>
 <g id="Layer_x0020_1">
  <metadata id="CorelCorpID_0Corel-Layer"/>
  <path class="fil0" d="M318 1405c17,0 34,-4 47,-14 9,-7 13,-14 13,-21 0,-11 -10,-22 -24,-28 -167,-72 -231,-281 -231,-448 0,-71 10,-144 36,-211 49,-127 162,-232 304,-232 170,0 251,124 251,287l0 631c0,27 42,35 62,35 19,0 61,-8 61,-35l0 -595c0,-190 99,-324 297,-324 49,0 94,10 140,25 -56,89 -122,179 -169,273 -45,92 -69,195 -69,297 0,65 10,133 36,192 47,110 135,167 252,167 119,0 212,-57 274,-160 52,-87 74,-192 74,-293 0,-83 -15,-170 -47,-248 -44,-105 -112,-190 -208,-250 37,-69 74,-143 74,-224 0,-153 -131,-229 -270,-229 -119,0 -238,57 -296,166 -2,4 -3,7 -3,11 0,24 41,33 61,33 22,0 49,-7 59,-24 36,-67 100,-116 177,-116 90,0 150,67 150,156 0,66 -28,123 -56,181 -61,-17 -115,-28 -179,-27 -144,1 -253,43 -349,151 -87,-112 -184,-150 -323,-150 -176,0 -336,97 -412,261 -36,78 -50,167 -50,253 0,200 82,414 275,501 13,6 28,9 43,9zm1006 -71c-79,0 -125,-68 -147,-137 -14,-46 -19,-97 -19,-146 0,-84 19,-179 53,-256 41,-92 103,-183 159,-266 69,62 112,123 144,211 26,69 35,138 35,211 0,74 -20,164 -49,231 -32,77 -86,152 -176,152z"/>
 </g>
</svg>
