<?xml version="1.0" encoding="UTF-8"?>
<!DOCTYPE svg PUBLIC "-//W3C//DTD SVG 1.1//EN" "http://www.w3.org/Graphics/SVG/1.1/DTD/svg11.dtd">
<!-- Creator: CorelDRAW X8 -->
<svg xmlns="http://www.w3.org/2000/svg" xml:space="preserve" width="1156px" height="1405px" version="1.1" style="shape-rendering:geometricPrecision; text-rendering:geometricPrecision; image-rendering:optimizeQuality; fill-rule:evenodd; clip-rule:evenodd"
viewBox="0 0 1156 1405"
 xmlns:xlink="http://www.w3.org/1999/xlink">
 <defs>
  <style type="text/css">
   <![CDATA[
    .fil0 {fill:#CC9933;fill-rule:nonzero}
   ]]>
  </style>
 </defs>
 <g id="Layer_x0020_1">
  <metadata id="CorelCorpID_0Corel-Layer"/>
  <path class="fil0" d="M313 1349c-129,-93 -192,-246 -190,-404 4,-255 169,-486 431,-495 71,-3 131,9 198,35 -57,85 -120,175 -165,267 -43,90 -67,195 -67,295 0,69 11,142 42,205 49,102 135,153 246,153 126,0 223,-64 284,-175 49,-89 67,-190 64,-291 -3,-78 -20,-157 -51,-228 -46,-104 -116,-187 -210,-247 41,-71 79,-150 80,-234 2,-156 -129,-231 -268,-230 -121,1 -239,56 -299,166 -1,3 -2,5 -2,7 -4,22 26,34 43,37 7,1 17,2 27,1 20,-2 41,-9 49,-24 37,-68 103,-117 181,-117 95,0 147,69 147,160 0,67 -31,127 -60,186 -82,-26 -151,-39 -237,-36 -314,8 -557,238 -556,565 1,174 75,345 217,447 11,7 25,12 41,13 16,1 32,-1 45,-7 10,-5 22,-13 23,-25 1,-11 -5,-19 -13,-24zm533 -810c72,64 118,128 152,220 21,57 33,118 35,180 3,81 -9,160 -42,235 -33,76 -93,161 -183,161 -79,0 -123,-66 -145,-135 -16,-49 -20,-102 -20,-153 -1,-87 19,-173 53,-252 40,-89 96,-176 150,-256z"/>
 </g>
</svg>
