<?xml version="1.0" encoding="UTF-8"?>
<!DOCTYPE svg PUBLIC "-//W3C//DTD SVG 1.1//EN" "http://www.w3.org/Graphics/SVG/1.1/DTD/svg11.dtd">
<!-- Creator: CorelDRAW X8 -->
<svg xmlns="http://www.w3.org/2000/svg" xml:space="preserve" width="1863px" height="1405px" version="1.1" style="shape-rendering:geometricPrecision; text-rendering:geometricPrecision; image-rendering:optimizeQuality; fill-rule:evenodd; clip-rule:evenodd"
viewBox="0 0 1863 1405"
 xmlns:xlink="http://www.w3.org/1999/xlink">
 <defs>
  <style type="text/css">
   <![CDATA[
    .fil0 {fill:#2B2A29;fill-rule:nonzero}
   ]]>
  </style>
 </defs>
 <g id="Layer_x0020_1">
  <metadata id="CorelCorpID_0Corel-Layer"/>
  <path class="fil0" d="M268 1405c14,0 28,-3 41,-11 11,-7 16,-15 16,-24 0,-9 -7,-19 -19,-26 -135,-71 -183,-239 -183,-382 0,-96 19,-199 63,-284 64,-126 197,-228 340,-228 48,0 86,4 133,20 -167,118 -254,310 -254,512 0,85 17,176 58,251 60,113 164,171 289,171 126,0 229,-58 290,-171 41,-76 58,-166 58,-251 0,-203 -83,-391 -251,-511 76,-28 178,-35 264,-35 118,0 235,12 343,60 -54,76 -111,160 -154,243 -49,95 -76,196 -76,302 0,88 16,180 67,253 54,77 130,111 222,111 104,0 191,-48 253,-130 64,-85 95,-200 95,-306 0,-76 -13,-147 -43,-218 -47,-114 -123,-206 -223,-273 43,-76 85,-162 85,-252 0,-152 -129,-226 -267,-226 -119,0 -240,55 -298,164 -2,4 -3,8 -3,11 0,24 40,34 60,34 23,0 50,-6 60,-24 34,-65 104,-115 177,-115 91,0 149,67 149,156 0,71 -31,138 -63,200 -128,-46 -254,-59 -389,-59 -120,0 -242,13 -355,56 -76,-29 -146,-43 -227,-43 -189,-1 -369,107 -458,279 -46,89 -68,201 -68,303 0,161 58,334 201,422 20,13 44,21 67,21zm484 -71c-80,0 -136,-51 -172,-121 -36,-70 -52,-157 -52,-231 0,-192 80,-364 225,-467 147,104 224,280 224,467 0,76 -17,164 -53,232 -37,70 -93,120 -172,120zm765 0c-73,0 -114,-50 -139,-113 -21,-55 -30,-121 -30,-180 0,-92 23,-182 63,-264 37,-77 88,-153 137,-223 69,62 116,126 152,212 27,65 40,133 40,203 0,89 -22,177 -68,253 -34,58 -85,112 -155,112z"/>
 </g>
</svg>
