<?xml version="1.0" encoding="UTF-8"?>
<!DOCTYPE svg PUBLIC "-//W3C//DTD SVG 1.1//EN" "http://www.w3.org/Graphics/SVG/1.1/DTD/svg11.dtd">
<!-- Creator: CorelDRAW X8 -->
<svg xmlns="http://www.w3.org/2000/svg" xml:space="preserve" width="1666px" height="1405px" version="1.1" style="shape-rendering:geometricPrecision; text-rendering:geometricPrecision; image-rendering:optimizeQuality; fill-rule:evenodd; clip-rule:evenodd"
viewBox="0 0 1666 1405"
 xmlns:xlink="http://www.w3.org/1999/xlink">
 <defs>
  <style type="text/css">
   <![CDATA[
    .fil0 {fill:#2B2A29;fill-rule:nonzero}
   ]]>
  </style>
 </defs>
 <g id="Layer_x0020_1">
  <metadata id="CorelCorpID_0Corel-Layer"/>
  <path class="fil0" d="M1324 1405c99,0 196,-53 252,-135 63,-91 90,-209 90,-319 0,-88 -16,-176 -50,-258 -43,-104 -110,-189 -206,-247 38,-68 75,-139 75,-219 0,-52 -15,-98 -49,-137 -52,-61 -139,-90 -217,-90 -118,0 -242,57 -300,166 -2,4 -3,7 -3,10 0,25 41,34 61,34 22,0 50,-6 59,-24 35,-65 102,-115 177,-115 89,0 150,69 150,156 0,65 -29,120 -58,177 -64,-16 -121,-25 -187,-25 -93,0 -188,22 -269,68 -186,105 -199,284 -199,476 0,169 19,411 -216,411 -210,0 -311,-259 -311,-435 0,-183 85,-389 266,-456 14,-5 28,-17 28,-30 0,-6 -3,-12 -10,-18 -13,-11 -32,-16 -51,-16 -12,0 -24,2 -34,6 -212,79 -322,293 -322,514 0,258 153,505 434,505 328,0 339,-216 339,-481 0,-142 2,-306 126,-402 63,-48 140,-72 218,-72 53,0 98,8 149,22 -55,87 -118,178 -163,270 -48,100 -73,199 -73,310 0,71 13,149 47,212 53,98 140,142 247,142zm0 -69c-81,0 -126,-58 -149,-130 -16,-50 -23,-102 -23,-155 0,-85 19,-170 51,-249 40,-98 104,-192 162,-280 66,60 106,119 138,203 28,73 40,148 40,226 0,95 -21,194 -70,276 -32,55 -81,109 -149,109z"/>
 </g>
</svg>
