<?xml version="1.0" encoding="UTF-8"?>
<!DOCTYPE svg PUBLIC "-//W3C//DTD SVG 1.1//EN" "http://www.w3.org/Graphics/SVG/1.1/DTD/svg11.dtd">
<!-- Creator: CorelDRAW X8 -->
<svg xmlns="http://www.w3.org/2000/svg" xml:space="preserve" width="1666px" height="1405px" version="1.1" style="shape-rendering:geometricPrecision; text-rendering:geometricPrecision; image-rendering:optimizeQuality; fill-rule:evenodd; clip-rule:evenodd"
viewBox="0 0 1666 1405"
 xmlns:xlink="http://www.w3.org/1999/xlink">
 <defs>
  <style type="text/css">
   <![CDATA[
    .fil0 {fill:#B2B09C;fill-rule:nonzero}
   ]]>
  </style>
 </defs>
 <g id="Layer_x0020_1">
  <metadata id="CorelCorpID_0Corel-Layer"/>
  <path class="fil0" d="M1036 186c36,-67 107,-119 185,-115 84,4 142,71 142,156 0,65 -29,120 -58,177 -64,-16 -121,-25 -187,-25 -93,1 -188,22 -269,68 -186,105 -200,286 -199,481 1,174 13,409 -224,406 -92,-1 -165,-58 -216,-132 -58,-85 -87,-197 -87,-300 0,-105 29,-223 86,-310 44,-68 104,-121 180,-149 21,-8 40,-29 18,-48 -21,-18 -60,-19 -85,-10 -95,35 -172,98 -228,182 -63,96 -95,221 -94,335 1,112 32,233 95,325 79,114 195,176 332,177 326,3 347,-201 346,-476 -1,-144 1,-311 126,-407 62,-49 140,-71 218,-72 53,0 98,8 149,22 -55,87 -118,178 -163,270 -43,90 -71,192 -73,292 -3,78 10,161 47,230 52,97 140,142 246,142 100,1 196,-52 253,-135 65,-94 92,-218 90,-332 -1,-83 -18,-168 -50,-245 -44,-104 -110,-189 -206,-247 38,-68 75,-139 75,-219 0,-52 -16,-98 -49,-137 -53,-61 -139,-90 -217,-90 -118,0 -242,57 -300,166 -13,24 22,40 41,43 23,4 64,0 76,-23zm329 336c66,60 106,119 138,203 26,67 39,141 40,213 2,99 -19,203 -70,289 -32,56 -82,110 -151,109 -80,-2 -124,-57 -147,-130 -18,-56 -25,-115 -23,-174 3,-78 21,-158 51,-230 40,-98 104,-192 162,-280z"/>
 </g>
</svg>
