<?xml version="1.0" encoding="UTF-8"?>
<!DOCTYPE svg PUBLIC "-//W3C//DTD SVG 1.1//EN" "http://www.w3.org/Graphics/SVG/1.1/DTD/svg11.dtd">
<!-- Creator: CorelDRAW X8 -->
<svg xmlns="http://www.w3.org/2000/svg" xml:space="preserve" width="1687px" height="1405px" version="1.1" style="shape-rendering:geometricPrecision; text-rendering:geometricPrecision; image-rendering:optimizeQuality; fill-rule:evenodd; clip-rule:evenodd"
viewBox="0 0 1687 1405"
 xmlns:xlink="http://www.w3.org/1999/xlink">
 <defs>
  <style type="text/css">
   <![CDATA[
    .fil0 {fill:#CC9933;fill-rule:nonzero}
   ]]>
  </style>
 </defs>
 <g id="Layer_x0020_1">
  <metadata id="CorelCorpID_0Corel-Layer"/>
  <path class="fil0" d="M844 381c-140,0 -258,47 -327,175 -47,85 -61,189 -66,285l-102 0c-99,-1 -200,27 -272,100 -49,50 -76,119 -77,189 -1,71 26,138 76,188 59,58 143,87 225,87 115,-1 178,-43 238,-138 88,103 169,138 305,138 136,0 216,-35 304,-138 60,97 124,137 238,138 82,0 166,-29 225,-87 50,-50 77,-117 76,-188 -1,-70 -28,-139 -77,-189 -72,-72 -173,-101 -272,-101l-98 0c25,-104 81,-185 140,-272 77,-111 155,-219 153,-343 -1,-152 -137,-225 -273,-225 -118,0 -235,57 -293,165 -13,25 22,40 41,43 24,4 64,0 76,-23 36,-68 101,-114 178,-115 86,0 146,64 149,150 3,84 -56,189 -97,260 -33,57 -69,113 -104,169 -13,-32 -23,-63 -40,-94 -70,-127 -187,-174 -326,-174zm392 530l102 0c62,0 120,19 165,64 39,40 60,97 61,153 1,58 -18,114 -60,155 -31,31 -73,52 -117,52 -43,0 -84,-21 -113,-53 -50,-55 -64,-142 -52,-213 10,-52 13,-106 14,-158zm-772 156c13,72 -1,160 -51,215 -29,32 -70,53 -113,53 -44,0 -86,-21 -117,-52 -42,-41 -61,-97 -60,-155 1,-56 22,-113 61,-153 45,-45 103,-64 165,-64l102 0c1,51 5,105 13,156zm650 -156c-3,100 -14,213 -63,302 -46,81 -115,122 -207,122 -92,0 -161,-41 -207,-121 -50,-89 -61,-203 -64,-303l541 0zm-540 -70c4,-89 17,-186 60,-264 45,-84 116,-126 210,-126 93,0 163,42 209,125 43,79 55,176 60,265l-539 0z"/>
 </g>
</svg>
