<?xml version="1.0" encoding="UTF-8"?>
<!DOCTYPE svg PUBLIC "-//W3C//DTD SVG 1.1//EN" "http://www.w3.org/Graphics/SVG/1.1/DTD/svg11.dtd">
<!-- Creator: CorelDRAW X8 -->
<svg xmlns="http://www.w3.org/2000/svg" xml:space="preserve" width="1196px" height="1405px" version="1.1" style="shape-rendering:geometricPrecision; text-rendering:geometricPrecision; image-rendering:optimizeQuality; fill-rule:evenodd; clip-rule:evenodd"
viewBox="0 0 1196 1405"
 xmlns:xlink="http://www.w3.org/1999/xlink">
 <defs>
  <style type="text/css">
   <![CDATA[
    .fil0 {fill:#2B2A29;fill-rule:nonzero}
   ]]>
  </style>
 </defs>
 <g id="Layer_x0020_1">
  <metadata id="CorelCorpID_0Corel-Layer"/>
  <path class="fil0" d="M831 1405c119,0 236,-29 337,-95 11,-7 15,-15 15,-23 0,-10 -7,-19 -20,-26 -12,-6 -27,-9 -42,-9 -16,0 -33,4 -45,12 -74,49 -157,71 -245,71 -277,0 -436,-212 -491,-467l646 0c19,0 61,-9 61,-35 0,-27 -42,-35 -61,-35l-656 0c-4,-32 -6,-63 -6,-96 0,-34 3,-67 6,-101l710 0c20,0 62,-9 62,-35 0,-26 -42,-35 -62,-35l-698 0c56,-253 215,-461 489,-461 93,0 179,24 256,78 13,9 30,13 47,13 14,0 29,-3 40,-8 14,-6 22,-17 22,-27 0,-8 -4,-15 -14,-22 -104,-72 -227,-104 -351,-104 -330,0 -546,211 -613,531l-157 0c-19,0 -61,9 -61,35 0,26 42,35 61,35l146 0c-3,34 -6,67 -6,101 0,33 2,64 5,96l-145 0c-19,0 -61,8 -61,35 0,26 42,35 61,35l156 0c65,322 281,537 614,537z"/>
 </g>
</svg>
