<?xml version="1.0" encoding="UTF-8"?>
<!DOCTYPE svg PUBLIC "-//W3C//DTD SVG 1.1//EN" "http://www.w3.org/Graphics/SVG/1.1/DTD/svg11.dtd">
<!-- Creator: CorelDRAW X8 -->
<svg xmlns="http://www.w3.org/2000/svg" xml:space="preserve" width="2420px" height="1024px" version="1.1" style="shape-rendering:geometricPrecision; text-rendering:geometricPrecision; image-rendering:optimizeQuality; fill-rule:evenodd; clip-rule:evenodd"
viewBox="0 0 2420 1024"
 xmlns:xlink="http://www.w3.org/1999/xlink">
 <defs>
  <style type="text/css">
   <![CDATA[
    .fil0 {fill:#996633;fill-rule:nonzero}
   ]]>
  </style>
 </defs>
 <g id="Layer_x0020_1">
  <metadata id="CorelCorpID_0Corel-Layer"/>
  <path class="fil0" d="M1124 234c58,80 86,165 98,262 14,4 29,6 45,6 115,-1 182,-100 182,-209 0,-84 -44,-172 -122,-208 -20,-9 -30,-23 -30,-36 0,-10 7,-20 19,-28 17,-12 42,-17 63,-17l543 2c45,0 82,19 82,44 0,16 -16,30 -38,38 -74,39 -112,125 -112,205 0,120 82,215 203,215 121,0 200,-95 200,-215 0,-85 -44,-177 -127,-209 -22,-9 -34,-23 -35,-37 0,-9 5,-18 15,-26 16,-13 41,-21 67,-21 16,0 32,4 46,9 120,47 197,155 197,284 0,204 -180,306 -363,306 -182,-1 -366,-102 -366,-306 0,-72 25,-142 71,-198l-224 0c48,55 74,126 74,198 0,187 -159,312 -338,312 -16,0 -32,-1 -47,-3 -10,235 -145,422 -395,422 -200,0 -366,-122 -372,-326 -5,-190 157,-295 338,-300 73,-2 141,13 210,35 -14,-56 -38,-111 -72,-158 -75,-103 -191,-166 -320,-164 -137,1 -257,60 -334,173 -55,81 -79,178 -80,274 0,149 63,290 191,374 15,10 23,22 23,33 2,17 -12,34 -36,45 -20,9 -41,14 -62,14 -34,0 -68,-12 -97,-32 -145,-103 -223,-262 -221,-437 1,-118 34,-232 106,-328 119,-158 313,-226 508,-227 197,-1 392,71 510,234zm-99 334c-51,-28 -136,-60 -207,-59 -105,1 -155,87 -155,185 1,91 62,219 169,219 141,0 193,-239 193,-345z"/>
 </g>
</svg>
