<?xml version="1.0" encoding="UTF-8"?>
<!DOCTYPE svg PUBLIC "-//W3C//DTD SVG 1.1//EN" "http://www.w3.org/Graphics/SVG/1.1/DTD/svg11.dtd">
<!-- Creator: CorelDRAW X8 -->
<svg xmlns="http://www.w3.org/2000/svg" xml:space="preserve" width="2391px" height="1024px" version="1.1" style="shape-rendering:geometricPrecision; text-rendering:geometricPrecision; image-rendering:optimizeQuality; fill-rule:evenodd; clip-rule:evenodd"
viewBox="0 0 2391 1024"
 xmlns:xlink="http://www.w3.org/1999/xlink">
 <defs>
  <style type="text/css">
   <![CDATA[
    .fil0 {fill:#996633;fill-rule:nonzero}
   ]]>
  </style>
 </defs>
 <g id="Layer_x0020_1">
  <metadata id="CorelCorpID_0Corel-Layer"/>
  <path class="fil0" d="M1175 0c200,-3 397,71 516,234 56,78 87,167 98,261 19,2 54,3 72,3 15,0 30,0 45,-1 -53,-39 -83,-97 -85,-162 -5,-155 143,-230 284,-231 139,-1 285,72 286,224 1,117 -82,193 -187,234 -109,44 -243,53 -344,48 -17,0 -50,-1 -67,-3 -12,230 -143,417 -395,417 -199,0 -365,-122 -371,-326 -6,-190 156,-295 338,-300 73,-2 141,13 209,35 -14,-56 -37,-111 -71,-158 -76,-104 -192,-167 -325,-164 -170,3 -261,125 -261,284l0 573c0,41 -68,55 -101,55 -32,0 -101,-14 -101,-55l0 -597c0,-132 -61,-259 -213,-259 -123,0 -222,94 -264,200 -27,66 -36,138 -35,208 2,148 64,341 215,404 18,8 40,22 40,44 0,14 -10,26 -21,34 -22,16 -51,22 -79,21 -22,0 -46,-4 -67,-13 -199,-85 -288,-287 -291,-489 -1,-88 13,-179 52,-259 82,-171 260,-260 450,-260 120,0 236,27 324,111 95,-78 227,-111 349,-113zm841 335c0,49 30,120 90,120 59,0 89,-71 89,-120 0,-31 -10,-65 -31,-89 -15,-19 -35,-31 -58,-31 -60,0 -90,71 -90,120zm-424 233c-64,-26 -149,-58 -218,-58 -100,1 -144,100 -144,185 0,90 61,218 168,218 142,0 194,-239 194,-345z"/>
 </g>
</svg>
