<?xml version="1.0" encoding="UTF-8"?>
<!DOCTYPE svg PUBLIC "-//W3C//DTD SVG 1.1//EN" "http://www.w3.org/Graphics/SVG/1.1/DTD/svg11.dtd">
<!-- Creator: CorelDRAW X8 -->
<svg xmlns="http://www.w3.org/2000/svg" xml:space="preserve" width="1758px" height="1412px" version="1.1" style="shape-rendering:geometricPrecision; text-rendering:geometricPrecision; image-rendering:optimizeQuality; fill-rule:evenodd; clip-rule:evenodd"
viewBox="0 0 1758 1413"
 xmlns:xlink="http://www.w3.org/1999/xlink">
 <defs>
  <style type="text/css">
   <![CDATA[
    .fil0 {fill:#996633;fill-rule:nonzero}
   ]]>
  </style>
 </defs>
 <g id="Layer_x0020_1">
  <metadata id="CorelCorpID_0Corel-Layer"/>
  <path class="fil0" d="M1340 100c-24,-10 -40,-27 -40,-45 0,-11 6,-23 21,-33 21,-15 50,-22 78,-22 24,0 49,5 68,13 199,86 288,288 291,491 1,88 -13,178 -52,259 -82,171 -260,261 -450,261 -111,0 -231,-25 -314,-102 -59,54 -135,83 -214,95 0,5 0,11 0,16 0,231 -171,380 -398,380 -122,0 -250,-33 -323,-139 -5,-6 -7,-13 -7,-20 0,-23 24,-44 65,-53 12,-3 24,-4 36,-4 40,0 79,14 95,36 34,51 74,66 134,66 131,0 195,-154 195,-266 0,-6 0,-12 0,-18 -149,-26 -280,-112 -347,-252 -39,-81 -53,-171 -52,-259 3,-203 92,-405 291,-491 19,-8 43,-13 67,-13 29,0 58,6 79,22 14,10 21,22 21,33 0,18 -17,35 -40,45 -152,62 -213,256 -215,404 -2,70 8,143 35,208 42,107 141,201 264,201 151,0 212,-114 212,-248l0 -609c0,-42 70,-56 102,-56 32,0 101,14 101,56l0 609c0,135 62,248 213,248 123,0 222,-94 264,-201 27,-65 36,-138 35,-208 -2,-148 -64,-342 -215,-404z"/>
 </g>
</svg>
