<?xml version="1.0" encoding="UTF-8"?>
<!DOCTYPE svg PUBLIC "-//W3C//DTD SVG 1.1//EN" "http://www.w3.org/Graphics/SVG/1.1/DTD/svg11.dtd">
<!-- Creator: CorelDRAW X8 -->
<svg xmlns="http://www.w3.org/2000/svg" xml:space="preserve" width="959px" height="1381px" version="1.1" style="shape-rendering:geometricPrecision; text-rendering:geometricPrecision; image-rendering:optimizeQuality; fill-rule:evenodd; clip-rule:evenodd"
viewBox="0 0 959 1381"
 xmlns:xlink="http://www.w3.org/1999/xlink">
 <defs>
  <style type="text/css">
   <![CDATA[
    .fil0 {fill:#A82682;fill-rule:nonzero}
   ]]>
  </style>
 </defs>
 <g id="Layer_x0020_1">
  <metadata id="CorelCorpID_0Corel-Layer"/>
  <path class="fil0" d="M212 420c2,40 -60,56 -93,57 -33,2 -103,-9 -109,-50 -23,-142 76,-299 200,-366 84,-45 180,-63 276,-63 218,0 435,121 469,349 43,292 -253,436 -475,545 -82,40 -171,78 -220,159 -39,64 -52,146 -56,219l647 0c32,0 101,15 101,56 0,42 -69,57 -101,57l-749 0c-33,0 -102,-15 -102,-57 0,-104 13,-219 68,-310 65,-108 169,-154 278,-208 182,-89 442,-211 406,-453 -19,-132 -127,-244 -266,-244 -63,0 -118,14 -168,52 -78,60 -111,163 -106,257z"/>
 </g>
</svg>
