<?xml version="1.0" encoding="UTF-8"?>
<!DOCTYPE svg PUBLIC "-//W3C//DTD SVG 1.1//EN" "http://www.w3.org/Graphics/SVG/1.1/DTD/svg11.dtd">
<!-- Creator: CorelDRAW X8 -->
<svg xmlns="http://www.w3.org/2000/svg" xml:space="preserve" width="959px" height="1381px" version="1.1" style="shape-rendering:geometricPrecision; text-rendering:geometricPrecision; image-rendering:optimizeQuality; fill-rule:evenodd; clip-rule:evenodd"
viewBox="0 0 959 1381"
 xmlns:xlink="http://www.w3.org/1999/xlink">
 <defs>
  <style type="text/css">
   <![CDATA[
    .fil0 {fill:#996633;fill-rule:nonzero}
   ]]>
  </style>
 </defs>
 <g id="Layer_x0020_1">
  <metadata id="CorelCorpID_0Corel-Layer"/>
  <path class="fil0" d="M212 424c-2,40 -70,54 -101,54 -35,0 -95,-13 -101,-51 -2,-10 -3,-21 -3,-31 -5,-132 88,-272 203,-333 84,-46 180,-63 276,-63 242,0 474,149 473,406 -2,253 -272,385 -479,486 -82,40 -171,77 -220,158 -39,64 -52,146 -56,219l647 0c32,0 101,14 101,56 0,42 -69,56 -101,56l-749 0c-33,0 -102,-14 -102,-56 0,-104 13,-218 68,-310 65,-108 169,-153 278,-207 171,-83 411,-196 410,-409 -1,-147 -114,-287 -270,-287 -63,0 -118,15 -168,53 -59,45 -108,145 -109,225 0,12 3,24 3,34z"/>
 </g>
</svg>
