<?xml version="1.0" encoding="UTF-8"?>
<!DOCTYPE svg PUBLIC "-//W3C//DTD SVG 1.1//EN" "http://www.w3.org/Graphics/SVG/1.1/DTD/svg11.dtd">
<!-- Creator: CorelDRAW X8 -->
<svg xmlns="http://www.w3.org/2000/svg" xml:space="preserve" width="478px" height="653px" version="1.1" style="shape-rendering:geometricPrecision; text-rendering:geometricPrecision; image-rendering:optimizeQuality; fill-rule:evenodd; clip-rule:evenodd"
viewBox="0 0 478 653"
 xmlns:xlink="http://www.w3.org/1999/xlink">
 <defs>
  <style type="text/css">
   <![CDATA[
    .fil0 {fill:#A82682;fill-rule:nonzero}
   ]]>
  </style>
 </defs>
 <g id="Layer_x0020_1">
  <metadata id="CorelCorpID_0Corel-Layer"/>
  <path class="fil0" d="M134 204c0,26 -43,35 -64,35 -21,0 -62,-7 -66,-32 -11,-69 38,-143 98,-175 43,-23 92,-32 140,-32 107,0 217,56 234,168 21,138 -119,207 -225,258 -35,17 -75,34 -96,69 -16,25 -21,57 -24,87l279 0c21,0 65,9 65,35 0,27 -44,36 -65,36l-345 0c-21,0 -65,-9 -65,-36 0,-49 6,-102 32,-145 32,-52 81,-73 133,-99 80,-39 197,-93 181,-199 -7,-51 -48,-103 -104,-103 -27,0 -48,8 -64,21 -31,24 -44,67 -44,112z"/>
 </g>
</svg>
