<?xml version="1.0" encoding="UTF-8"?>
<!DOCTYPE svg PUBLIC "-//W3C//DTD SVG 1.1//EN" "http://www.w3.org/Graphics/SVG/1.1/DTD/svg11.dtd">
<!-- Creator: CorelDRAW X8 -->
<svg xmlns="http://www.w3.org/2000/svg" xml:space="preserve" width="949px" height="1405px" version="1.1" style="shape-rendering:geometricPrecision; text-rendering:geometricPrecision; image-rendering:optimizeQuality; fill-rule:evenodd; clip-rule:evenodd"
viewBox="0 0 949 1405"
 xmlns:xlink="http://www.w3.org/1999/xlink">
 <defs>
  <style type="text/css">
   <![CDATA[
    .fil0 {fill:#2B2A29;fill-rule:nonzero}
   ]]>
  </style>
 </defs>
 <g id="Layer_x0020_1">
  <metadata id="CorelCorpID_0Corel-Layer"/>
  <path class="fil0" d="M489 1405c238,0 460,-144 460,-397 0,-153 -84,-278 -225,-343 113,-60 187,-164 187,-292 -1,-250 -231,-373 -459,-373 -241,1 -452,138 -452,385l1 26c3,41 67,54 101,54 31,0 102,-15 102,-55l-1 -23c0,-138 85,-275 238,-275 153,0 267,107 268,261 0,108 -66,196 -171,230 -42,14 -78,15 -122,17 -30,2 -95,16 -95,56 0,42 69,56 101,56 41,-1 87,-4 127,6 128,31 198,143 198,268 0,148 -98,287 -258,287 -175,0 -286,-117 -286,-287 0,-42 -69,-56 -102,-56 -32,0 -101,14 -101,56 0,273 237,399 489,399z"/>
 </g>
</svg>
