<?xml version="1.0" encoding="UTF-8"?>
<!DOCTYPE svg PUBLIC "-//W3C//DTD SVG 1.1//EN" "http://www.w3.org/Graphics/SVG/1.1/DTD/svg11.dtd">
<!-- Creator: CorelDRAW X8 -->
<svg xmlns="http://www.w3.org/2000/svg" xml:space="preserve" width="551px" height="677px" version="1.1" style="shape-rendering:geometricPrecision; text-rendering:geometricPrecision; image-rendering:optimizeQuality; fill-rule:evenodd; clip-rule:evenodd"
viewBox="0 0 551 677"
 xmlns:xlink="http://www.w3.org/1999/xlink">
 <defs>
  <style type="text/css">
   <![CDATA[
    .fil0 {fill:#A82682;fill-rule:nonzero}
   ]]>
  </style>
 </defs>
 <g id="Layer_x0020_1">
  <metadata id="CorelCorpID_0Corel-Layer"/>
  <path class="fil0" d="M435 640c0,28 -45,37 -66,37 -21,0 -66,-9 -66,-37l0 -130 -237 0c-21,0 -66,-9 -66,-36 0,-5 2,-10 5,-14l302 -435c12,-18 41,-25 62,-25 21,0 66,9 66,37l0 401 50 0c21,0 66,9 66,36 0,27 -45,36 -66,36l-50 0 0 130zm-308 -202l176 0 0 -256 -176 256z"/>
 </g>
</svg>
