<?xml version="1.0" encoding="UTF-8"?>
<!DOCTYPE svg PUBLIC "-//W3C//DTD SVG 1.1//EN" "http://www.w3.org/Graphics/SVG/1.1/DTD/svg11.dtd">
<!-- Creator: CorelDRAW X8 -->
<svg xmlns="http://www.w3.org/2000/svg" xml:space="preserve" width="485px" height="653px" version="1.1" style="shape-rendering:geometricPrecision; text-rendering:geometricPrecision; image-rendering:optimizeQuality; fill-rule:evenodd; clip-rule:evenodd"
viewBox="0 0 485 653"
 xmlns:xlink="http://www.w3.org/1999/xlink">
 <defs>
  <style type="text/css">
   <![CDATA[
    .fil0 {fill:#2B2A29;fill-rule:nonzero}
   ]]>
  </style>
 </defs>
 <g id="Layer_x0020_1">
  <metadata id="CorelCorpID_0Corel-Layer"/>
  <path class="fil0" d="M485 439c0,-137 -114,-215 -242,-215 -26,0 -53,3 -78,9l22 -162 212 0c21,0 65,-9 65,-35 0,-27 -44,-36 -65,-36l-273 0c-21,0 -61,9 -65,34l-41 306c0,32 45,37 69,38 23,0 45,-7 60,-30 20,-30 54,-53 93,-53 73,0 113,80 113,144 0,65 -39,142 -114,143 -57,0 -100,-49 -112,-100 -6,-24 -45,-30 -65,-30 -20,0 -64,10 -64,35l1 5c26,108 131,161 239,161 129,0 245,-74 245,-214z"/>
 </g>
</svg>
