<?xml version="1.0" encoding="UTF-8"?>
<!DOCTYPE svg PUBLIC "-//W3C//DTD SVG 1.1//EN" "http://www.w3.org/Graphics/SVG/1.1/DTD/svg11.dtd">
<!-- Creator: CorelDRAW X8 -->
<svg xmlns="http://www.w3.org/2000/svg" xml:space="preserve" width="485px" height="653px" version="1.1" style="shape-rendering:geometricPrecision; text-rendering:geometricPrecision; image-rendering:optimizeQuality; fill-rule:evenodd; clip-rule:evenodd"
viewBox="0 0 485 653"
 xmlns:xlink="http://www.w3.org/1999/xlink">
 <defs>
  <style type="text/css">
   <![CDATA[
    .fil0 {fill:#996633;fill-rule:nonzero}
   ]]>
  </style>
 </defs>
 <g id="Layer_x0020_1">
  <metadata id="CorelCorpID_0Corel-Layer"/>
  <path class="fil0" d="M20 337l41 -303c4,-25 44,-34 65,-34l273 0c21,0 65,9 65,36 0,26 -44,35 -65,35l-212 0 -22 162c29,-7 59,-10 89,-9 127,6 231,83 231,215 0,136 -111,213 -242,214 -109,1 -216,-52 -242,-161 -1,-2 -1,-4 -1,-6 0,-25 44,-34 64,-34 20,0 59,6 65,30 12,51 55,100 112,100 75,-1 114,-78 114,-143 0,-65 -38,-140 -111,-144 -39,-1 -75,22 -95,53 -14,22 -34,30 -59,30 -7,0 -13,0 -20,-1 -20,-2 -49,-12 -50,-35 0,-2 0,-3 0,-5z"/>
 </g>
</svg>
