<?xml version="1.0" encoding="UTF-8"?>
<!DOCTYPE svg PUBLIC "-//W3C//DTD SVG 1.1//EN" "http://www.w3.org/Graphics/SVG/1.1/DTD/svg11.dtd">
<!-- Creator: CorelDRAW X8 -->
<svg xmlns="http://www.w3.org/2000/svg" xml:space="preserve" width="997px" height="1405px" version="1.1" style="shape-rendering:geometricPrecision; text-rendering:geometricPrecision; image-rendering:optimizeQuality; fill-rule:evenodd; clip-rule:evenodd"
viewBox="0 0 997 1405"
 xmlns:xlink="http://www.w3.org/1999/xlink">
 <defs>
  <style type="text/css">
   <![CDATA[
    .fil0 {fill:#A82682;fill-rule:nonzero}
   ]]>
  </style>
 </defs>
 <g id="Layer_x0020_1">
  <metadata id="CorelCorpID_0Corel-Layer"/>
  <path class="fil0" d="M34 426c69,-254 237,-427 516,-426 199,1 372,109 419,306 11,46 -66,63 -99,63 -37,0 -93,-13 -102,-49 -24,-100 -105,-208 -220,-209 -175,0 -275,187 -314,332 -16,59 -26,121 -31,183 84,-85 199,-122 318,-122 120,0 240,35 331,115 99,86 145,207 145,335 0,103 -29,202 -94,283 -92,116 -236,168 -382,168 -143,0 -276,-39 -370,-149 -68,-79 -107,-176 -128,-276 -18,-88 -24,-179 -23,-268 1,-94 9,-195 34,-286zm760 528c0,-158 -92,-338 -273,-338 -182,0 -273,180 -273,338 0,159 91,339 273,339 181,0 273,-180 273,-339z"/>
 </g>
</svg>
