<?xml version="1.0" encoding="UTF-8"?>
<!DOCTYPE svg PUBLIC "-//W3C//DTD SVG 1.1//EN" "http://www.w3.org/Graphics/SVG/1.1/DTD/svg11.dtd">
<!-- Creator: CorelDRAW X8 -->
<svg xmlns="http://www.w3.org/2000/svg" xml:space="preserve" width="989px" height="1405px" version="1.1" style="shape-rendering:geometricPrecision; text-rendering:geometricPrecision; image-rendering:optimizeQuality; fill-rule:evenodd; clip-rule:evenodd"
viewBox="0 0 989 1405"
 xmlns:xlink="http://www.w3.org/1999/xlink">
 <defs>
  <style type="text/css">
   <![CDATA[
    .fil0 {fill:#996633;fill-rule:nonzero}
   ]]>
  </style>
 </defs>
 <g id="Layer_x0020_1">
  <metadata id="CorelCorpID_0Corel-Layer"/>
  <path class="fil0" d="M951 363c0,139 -75,244 -198,306 144,65 236,182 236,342 0,265 -253,394 -494,394 -242,0 -495,-129 -495,-394 0,-160 92,-277 236,-342 -123,-62 -198,-167 -198,-306 0,-245 233,-363 457,-363 223,0 456,118 456,363zm-165 648c0,-167 -123,-283 -291,-283 -169,0 -292,116 -292,283 0,167 123,282 292,282 168,0 291,-115 291,-282zm-38 -648c0,-145 -105,-251 -253,-251 -149,0 -254,106 -254,251 0,146 105,252 254,252 148,0 253,-106 253,-252z"/>
 </g>
</svg>
