<?xml version="1.0" encoding="UTF-8"?>
<!DOCTYPE svg PUBLIC "-//W3C//DTD SVG 1.1//EN" "http://www.w3.org/Graphics/SVG/1.1/DTD/svg11.dtd">
<!-- Creator: CorelDRAW X8 -->
<svg xmlns="http://www.w3.org/2000/svg" xml:space="preserve" width="997px" height="1405px" version="1.1" style="shape-rendering:geometricPrecision; text-rendering:geometricPrecision; image-rendering:optimizeQuality; fill-rule:evenodd; clip-rule:evenodd"
viewBox="0 0 997 1405"
 xmlns:xlink="http://www.w3.org/1999/xlink">
 <defs>
  <style type="text/css">
   <![CDATA[
    .fil0 {fill:#996633;fill-rule:nonzero}
   ]]>
  </style>
 </defs>
 <g id="Layer_x0020_1">
  <metadata id="CorelCorpID_0Corel-Layer"/>
  <path class="fil0" d="M963 979c-69,254 -238,427 -517,426 -199,-1 -371,-109 -419,-306 0,-3 -1,-6 -1,-9 2,-39 68,-54 101,-54 36,0 92,13 101,49 24,100 106,208 220,209 175,0 275,-187 314,-332 16,-59 26,-121 31,-183 -84,85 -199,122 -317,122 -121,0 -241,-35 -332,-115 -99,-86 -144,-207 -144,-335 0,-103 29,-202 93,-283 93,-115 236,-168 383,-168 142,0 275,39 370,149 67,79 106,176 127,276 19,88 24,179 24,268 -1,94 -10,195 -34,286zm-760 -528c0,158 91,338 273,338 181,0 272,-180 272,-338 0,-159 -91,-339 -272,-339 -182,0 -273,180 -273,339z"/>
 </g>
</svg>
