<?xml version="1.0" encoding="UTF-8"?>
<!DOCTYPE svg PUBLIC "-//W3C//DTD SVG 1.1//EN" "http://www.w3.org/Graphics/SVG/1.1/DTD/svg11.dtd">
<!-- Creator: CorelDRAW X8 -->
<svg xmlns="http://www.w3.org/2000/svg" xml:space="preserve" width="1046px" height="1024px" version="1.1" style="shape-rendering:geometricPrecision; text-rendering:geometricPrecision; image-rendering:optimizeQuality; fill-rule:evenodd; clip-rule:evenodd"
viewBox="0 0 1046 1024"
 xmlns:xlink="http://www.w3.org/1999/xlink">
 <defs>
  <style type="text/css">
   <![CDATA[
    .fil0 {fill:#A82682;fill-rule:nonzero}
   ]]>
  </style>
 </defs>
 <g id="Layer_x0020_1">
  <metadata id="CorelCorpID_0Corel-Layer"/>
  <path class="fil0" d="M751 654l0 -96c-107,18 -215,7 -323,5 -127,-1 -225,25 -225,170 0,124 100,180 215,180 150,0 333,-93 333,-259zm-519 -361c0,42 -70,56 -103,55 -32,0 -99,-14 -99,-55 0,-86 65,-160 134,-206 95,-62 219,-88 332,-87 212,1 457,96 457,336l0 431c0,59 7,130 65,163 40,23 36,58 -3,79 -40,20 -105,20 -144,-2 -38,-22 -73,-51 -88,-107 -86,100 -251,124 -365,124 -183,0 -418,-77 -418,-291 0,-242 240,-280 437,-280 89,0 240,18 314,-22l0 -95c0,-146 -115,-224 -256,-225 -61,-1 -125,15 -176,48 -45,29 -86,78 -87,134z"/>
 </g>
</svg>
