<?xml version="1.0" encoding="UTF-8"?>
<!DOCTYPE svg PUBLIC "-//W3C//DTD SVG 1.1//EN" "http://www.w3.org/Graphics/SVG/1.1/DTD/svg11.dtd">
<!-- Creator: CorelDRAW X8 -->
<svg xmlns="http://www.w3.org/2000/svg" xml:space="preserve" width="1797px" height="1024px" version="1.1" style="shape-rendering:geometricPrecision; text-rendering:geometricPrecision; image-rendering:optimizeQuality; fill-rule:evenodd; clip-rule:evenodd"
viewBox="0 0 1797 1024"
 xmlns:xlink="http://www.w3.org/1999/xlink">
 <defs>
  <style type="text/css">
   <![CDATA[
    .fil0 {fill:#A82682;fill-rule:nonzero}
   ]]>
  </style>
 </defs>
 <g id="Layer_x0020_1">
  <metadata id="CorelCorpID_0Corel-Layer"/>
  <path class="fil0" d="M1600 414c-19,-182 -140,-304 -323,-303 -173,1 -287,142 -321,303l644 0zm-849 240l0 -96c-107,18 -215,7 -322,5 -128,-1 -226,25 -226,170 0,124 100,180 215,180 150,0 333,-93 333,-259zm-519 -361c0,42 -70,56 -102,55 -32,0 -100,-14 -100,-55 1,-86 65,-160 135,-206 95,-62 219,-88 332,-87 145,1 307,46 393,153 94,-97 229,-152 385,-153 286,-1 526,157 522,470 -1,42 -66,55 -97,55l-755 0c2,191 116,386 321,388 74,1 149,-21 210,-62 52,-35 101,-90 107,-156 4,-35 52,-51 99,-51 50,0 100,20 96,58 -10,93 -79,170 -152,220 -105,71 -237,103 -362,102 -166,-2 -309,-65 -402,-176 -123,118 -272,176 -444,176 -182,0 -418,-77 -418,-291 0,-242 241,-280 437,-280 89,0 240,18 314,-22l0 -95c0,-146 -115,-224 -256,-225 -60,-1 -125,15 -176,48 -45,29 -86,78 -87,134z"/>
 </g>
</svg>
