<?xml version="1.0" encoding="UTF-8"?>
<!DOCTYPE svg PUBLIC "-//W3C//DTD SVG 1.1//EN" "http://www.w3.org/Graphics/SVG/1.1/DTD/svg11.dtd">
<!-- Creator: CorelDRAW X8 -->
<svg xmlns="http://www.w3.org/2000/svg" xml:space="preserve" width="1156px" height="1405px" version="1.1" style="shape-rendering:geometricPrecision; text-rendering:geometricPrecision; image-rendering:optimizeQuality; fill-rule:evenodd; clip-rule:evenodd"
viewBox="0 0 1156 1405"
 xmlns:xlink="http://www.w3.org/1999/xlink">
 <defs>
  <style type="text/css">
   <![CDATA[
    .fil0 {fill:#A82682;fill-rule:nonzero}
   ]]>
  </style>
 </defs>
 <g id="Layer_x0020_1">
  <metadata id="CorelCorpID_0Corel-Layer"/>
  <path class="fil0" d="M848 742c1,-42 69,-56 102,-56 32,1 100,15 100,56 -1,123 -38,251 -101,357 65,75 131,151 197,226 31,36 -14,66 -47,74 -41,11 -107,7 -136,-26 -40,-46 -80,-92 -120,-138 -115,112 -264,172 -426,170 -206,-3 -415,-125 -417,-346 -2,-212 156,-332 324,-432 -81,-97 -205,-227 -205,-359 0,-182 204,-268 364,-268 176,0 357,90 357,284 0,171 -140,283 -275,365 39,46 80,95 122,145 40,47 83,98 126,148 22,-65 34,-133 35,-200zm-118 363c-52,-60 -111,-129 -176,-204 -48,-57 -95,-112 -138,-164 -117,75 -216,172 -213,319 2,121 88,236 218,237 128,2 240,-90 309,-188zm-258 -568c88,-59 165,-142 165,-253 0,-90 -56,-172 -154,-172 -87,0 -161,69 -161,156 0,98 90,197 150,269z"/>
 </g>
</svg>
