<?xml version="1.0" encoding="UTF-8"?>
<!DOCTYPE svg PUBLIC "-//W3C//DTD SVG 1.1//EN" "http://www.w3.org/Graphics/SVG/1.1/DTD/svg11.dtd">
<!-- Creator: CorelDRAW X8 -->
<svg xmlns="http://www.w3.org/2000/svg" xml:space="preserve" width="1759px" height="1024px" version="1.1" style="shape-rendering:geometricPrecision; text-rendering:geometricPrecision; image-rendering:optimizeQuality; fill-rule:evenodd; clip-rule:evenodd"
viewBox="0 0 1759 1024"
 xmlns:xlink="http://www.w3.org/1999/xlink">
 <defs>
  <style type="text/css">
   <![CDATA[
    .fil0 {fill:#5B5A50;fill-rule:nonzero}
   ]]>
  </style>
 </defs>
 <g id="Layer_x0020_1">
  <metadata id="CorelCorpID_0Corel-Layer"/>
  <path class="fil0" d="M938 122c81,-85 205,-122 320,-122 189,0 367,90 449,262 39,80 53,170 52,258 -3,202 -91,403 -287,489 -45,20 -109,23 -150,-7 -38,-28 -18,-62 20,-78 151,-62 212,-256 214,-404 2,-70 -8,-142 -35,-208 -42,-106 -141,-200 -263,-200 -152,0 -213,124 -213,257l0 599c0,42 -69,56 -102,56 -32,0 -101,-14 -101,-56l0 -575 0 0 0 0 0 0 0 0 0 0 0 0 0 0 0 -3c0,-180 -125,-280 -300,-279 -132,1 -235,84 -292,197 -24,47 -39,98 -46,150 54,-48 122,-73 195,-75 98,-4 201,30 269,101 59,61 84,139 81,222 -2,89 -37,179 -108,237 -67,54 -155,79 -240,80 -89,1 -169,-22 -238,-78 -119,-96 -163,-261 -163,-406 0,-93 18,-186 61,-270 93,-181 280,-268 481,-269 140,-1 287,28 396,122zm-692 584c-1,91 45,206 154,206 107,1 154,-117 154,-206 0,-90 -45,-207 -153,-207 -109,0 -155,116 -155,207z"/>
 </g>
</svg>
