<?xml version="1.0" encoding="UTF-8"?>
<!DOCTYPE svg PUBLIC "-//W3C//DTD SVG 1.1//EN" "http://www.w3.org/Graphics/SVG/1.1/DTD/svg11.dtd">
<!-- Creator: CorelDRAW X8 -->
<svg xmlns="http://www.w3.org/2000/svg" xml:space="preserve" width="2504px" height="1024px" version="1.1" style="shape-rendering:geometricPrecision; text-rendering:geometricPrecision; image-rendering:optimizeQuality; fill-rule:evenodd; clip-rule:evenodd"
viewBox="0 0 2504 1024"
 xmlns:xlink="http://www.w3.org/1999/xlink">
 <defs>
  <style type="text/css">
   <![CDATA[
    .fil0 {fill:#5B5A50}
   ]]>
  </style>
 </defs>
 <g id="Layer_x0020_1">
  <metadata id="CorelCorpID_0Corel-Layer"/>
  <path class="fil0" d="M560 512c0,155 -124,250 -280,250 -155,0 -280,-95 -280,-250 0,-155 125,-250 280,-250 156,0 280,95 280,250zm-183 0c0,-54 -26,-147 -97,-147 -71,0 -97,93 -97,147 0,54 26,147 97,147 71,0 97,-93 97,-147zm2127 0c0,155 -124,250 -280,250 -155,0 -280,-95 -280,-250 0,-155 125,-250 280,-250 155,0 280,95 280,250zm-183 0c0,-54 -26,-147 -97,-147 -71,0 -97,93 -97,147 0,54 26,147 97,147 71,0 97,-93 97,-147zm-739 -220c-88,5 -165,49 -218,117 -51,67 -76,150 -76,233 0,66 16,135 54,190 28,41 72,80 125,80 58,1 100,-47 128,-91 44,-71 62,-159 63,-241 1,-101 -20,-202 -76,-288zm-556 641c39,25 26,60 -13,78 -53,24 -112,14 -159,-19 -145,-103 -223,-262 -221,-437 1,-118 34,-232 106,-328 119,-158 314,-226 509,-227 234,-1 444,91 552,303 45,87 62,181 60,277 -1,95 -23,195 -73,277 -70,112 -187,168 -320,167 -125,-1 -244,-49 -315,-153 -45,-67 -67,-149 -67,-229 0,-98 32,-198 93,-276 75,-98 188,-156 311,-176 -71,-57 -148,-80 -239,-79 -138,1 -258,60 -335,173 -54,81 -79,178 -79,274 -1,149 62,290 190,375z"/>
 </g>
</svg>
