<?xml version="1.0" encoding="UTF-8"?>
<!DOCTYPE svg PUBLIC "-//W3C//DTD SVG 1.1//EN" "http://www.w3.org/Graphics/SVG/1.1/DTD/svg11.dtd">
<!-- Creator: CorelDRAW X8 -->
<svg xmlns="http://www.w3.org/2000/svg" xml:space="preserve" width="538px" height="516px" version="1.1" style="shape-rendering:geometricPrecision; text-rendering:geometricPrecision; image-rendering:optimizeQuality; fill-rule:evenodd; clip-rule:evenodd"
viewBox="0 0 538 516"
 xmlns:xlink="http://www.w3.org/1999/xlink">
 <defs>
  <style type="text/css">
   <![CDATA[
    .fil0 {fill:#996633;fill-rule:nonzero}
   ]]>
  </style>
 </defs>
 <g id="Layer_x0020_1">
  <metadata id="CorelCorpID_0Corel-Layer"/>
  <path class="fil0" d="M214 205l12 -171c2,-24 20,-34 42,-34 23,0 42,10 43,34l12 170 166 -41c3,-1 6,-1 10,-1 19,0 30,14 36,30 2,6 3,13 3,19 0,15 -8,27 -23,33l-158 64 91 144c3,6 6,13 6,20 0,14 -9,25 -20,33 -8,6 -17,11 -27,11 -12,0 -21,-5 -28,-14l-110 -130 -109 131c-7,8 -16,13 -26,13 -10,0 -20,-4 -29,-10 -11,-8 -20,-20 -20,-34 0,-7 2,-13 6,-19l90 -145 -158 -64c-15,-6 -23,-17 -23,-33 0,-6 1,-12 3,-17 7,-22 22,-36 46,-31l165 42z"/>
 </g>
</svg>
