<?xml version="1.0" encoding="UTF-8"?>
<!DOCTYPE svg PUBLIC "-//W3C//DTD SVG 1.1//EN" "http://www.w3.org/Graphics/SVG/1.1/DTD/svg11.dtd">
<!-- Creator: CorelDRAW X8 -->
<svg xmlns="http://www.w3.org/2000/svg" xml:space="preserve" width="538px" height="516px" version="1.1" style="shape-rendering:geometricPrecision; text-rendering:geometricPrecision; image-rendering:optimizeQuality; fill-rule:evenodd; clip-rule:evenodd"
viewBox="0 0 538 516"
 xmlns:xlink="http://www.w3.org/1999/xlink">
 <defs>
  <style type="text/css">
   <![CDATA[
    .fil0 {fill:#A82682;fill-rule:nonzero}
   ]]>
  </style>
 </defs>
 <g id="Layer_x0020_1">
  <metadata id="CorelCorpID_0Corel-Layer"/>
  <path class="fil0" d="M214 205l12 -171c2,-24 20,-34 42,-34 23,0 42,10 43,34l12 170 166 -41c23,-6 38,8 46,29 7,21 3,43 -20,52l-158 64 91 144c12,21 4,40 -14,53 -18,13 -39,16 -55,-3l-110 -130 -109 131c-16,18 -37,16 -55,3 -18,-13 -27,-33 -14,-53l90 -145 -158 -64c-23,-9 -26,-29 -20,-50 7,-22 22,-36 46,-31l165 42z"/>
 </g>
</svg>
