<?xml version="1.0" encoding="UTF-8"?>
<!DOCTYPE svg PUBLIC "-//W3C//DTD SVG 1.1//EN" "http://www.w3.org/Graphics/SVG/1.1/DTD/svg11.dtd">
<!-- Creator: CorelDRAW X8 -->
<svg xmlns="http://www.w3.org/2000/svg" xml:space="preserve" width="1788px" height="1780px" version="1.1" style="shape-rendering:geometricPrecision; text-rendering:geometricPrecision; image-rendering:optimizeQuality; fill-rule:evenodd; clip-rule:evenodd"
viewBox="0 0 1788 1781"
 xmlns:xlink="http://www.w3.org/1999/xlink">
 <defs>
  <style type="text/css">
   <![CDATA[
    .fil0 {fill:#2B2A29;fill-rule:nonzero}
   ]]>
  </style>
 </defs>
 <g id="Layer_x0020_1">
  <metadata id="CorelCorpID_0Corel-Layer"/>
  <path class="fil0" d="M870 1781c102,0 204,-16 303,-47 25,-8 51,-26 51,-49 0,-8 -4,-18 -14,-27 -20,-20 -54,-28 -87,-28 -19,0 -37,2 -51,7 -66,21 -138,32 -208,32 -130,-1 -256,-41 -363,-114 -213,-147 -299,-389 -299,-640 1,-220 62,-439 222,-600 130,-131 310,-203 496,-203 169,0 328,58 452,175 155,147 214,351 214,558 0,123 -30,246 -102,347 -27,36 -85,98 -136,98 -58,0 -71,-66 -71,-127 0,-34 4,-67 7,-85l84 -561c5,-32 -47,-52 -99,-52 -49,0 -99,16 -103,53l-8 64c-78,-85 -190,-118 -304,-118 -283,0 -437,224 -437,484 0,268 172,455 445,455 102,0 194,-30 267,-104 41,81 128,103 213,103 135,0 249,-60 329,-169 84,-114 117,-248 117,-388 0,-230 -68,-452 -241,-615 -168,-158 -400,-230 -627,-230 -250,0 -498,84 -674,261 -175,176 -246,412 -246,655 0,283 104,544 344,709 153,106 339,156 526,156zm-12 -491c-171,0 -238,-205 -238,-346 0,-135 74,-368 238,-368 176,0 238,209 238,352 0,135 -78,362 -238,362z"/>
 </g>
</svg>
