<?xml version="1.0" encoding="UTF-8"?>
<!DOCTYPE svg PUBLIC "-//W3C//DTD SVG 1.1//EN" "http://www.w3.org/Graphics/SVG/1.1/DTD/svg11.dtd">
<!-- Creator: CorelDRAW X8 -->
<svg xmlns="http://www.w3.org/2000/svg" xml:space="preserve" width="1747px" height="1780px" version="1.1" style="shape-rendering:geometricPrecision; text-rendering:geometricPrecision; image-rendering:optimizeQuality; fill-rule:evenodd; clip-rule:evenodd"
viewBox="0 0 1747 1779"
 xmlns:xlink="http://www.w3.org/1999/xlink">
 <defs>
  <style type="text/css">
   <![CDATA[
    .fil0 {fill:black;fill-rule:nonzero}
   ]]>
  </style>
 </defs>
 <g id="Layer_x0020_1">
  <metadata id="CorelCorpID_0Corel-Layer"/>
  <path class="fil0" d="M420 882c27,-253 197,-446 470,-415 123,14 207,70 260,150 7,-43 12,-81 15,-110 2,-25 40,-44 85,-43 45,1 79,23 77,48 -5,55 -21,149 -38,251 -19,116 -40,241 -47,326 -5,50 4,214 75,220 65,6 129,-58 163,-106 74,-102 104,-230 105,-354 1,-259 -85,-450 -217,-576 -125,-120 -294,-181 -466,-182 -185,-1 -374,68 -516,212 -128,131 -215,322 -223,579 -4,123 12,232 42,327 52,159 145,279 261,360 108,75 235,115 361,119 79,2 158,-9 234,-33 39,-13 89,-5 111,16 22,22 9,50 -30,62 -104,34 -214,49 -323,46 -173,-5 -341,-56 -480,-153 -131,-92 -237,-225 -293,-401 -33,-101 -49,-216 -45,-345 8,-272 102,-478 243,-621 173,-176 416,-260 658,-259 222,1 445,72 607,227 144,139 239,345 238,622 -1,136 -35,276 -116,388 -68,95 -170,161 -305,163 -127,2 -187,-48 -212,-125 -62,78 -151,126 -271,126 -301,2 -451,-245 -423,-519zm421 428c157,-3 238,-198 252,-332 17,-163 -42,-400 -235,-422 -171,-19 -260,189 -275,331 -18,168 51,426 258,423z"/>
 </g>
</svg>
