<?xml version="1.0" encoding="UTF-8"?>
<!DOCTYPE svg PUBLIC "-//W3C//DTD SVG 1.1//EN" "http://www.w3.org/Graphics/SVG/1.1/DTD/svg11.dtd">
<!-- Creator: CorelDRAW X8 -->
<svg xmlns="http://www.w3.org/2000/svg" xml:space="preserve" width="1399px" height="1780px" version="1.1" style="shape-rendering:geometricPrecision; text-rendering:geometricPrecision; image-rendering:optimizeQuality; fill-rule:evenodd; clip-rule:evenodd"
viewBox="0 0 1399 1780"
 xmlns:xlink="http://www.w3.org/1999/xlink">
 <defs>
  <style type="text/css">
   <![CDATA[
    .fil0 {fill:#A82682;fill-rule:nonzero}
   ]]>
  </style>
 </defs>
 <g id="Layer_x0020_1">
  <metadata id="CorelCorpID_0Corel-Layer"/>
  <path class="fil0" d="M16 1396c11,-35 67,-46 99,-46 33,-1 116,17 101,65 -11,33 -16,68 -12,103 7,66 54,146 129,150 39,2 77,-22 101,-51 115,-135 146,-551 165,-731 20,-202 50,-616 183,-771 72,-85 192,-120 301,-114 166,8 316,109 316,285 0,33 -6,66 -16,98 -11,34 -66,46 -97,46 -34,1 -118,-17 -103,-65 11,-33 16,-68 12,-103 -7,-66 -54,-146 -129,-150 -39,-2 -77,22 -101,51 -115,135 -146,550 -164,729 -21,204 -51,617 -184,773 -72,85 -192,120 -301,114 -167,-8 -317,-109 -316,-286 0,-33 6,-66 16,-97z"/>
 </g>
</svg>
