<?xml version="1.0" encoding="UTF-8"?>
<!DOCTYPE svg PUBLIC "-//W3C//DTD SVG 1.1//EN" "http://www.w3.org/Graphics/SVG/1.1/DTD/svg11.dtd">
<!-- Creator: CorelDRAW X8 -->
<svg xmlns="http://www.w3.org/2000/svg" xml:space="preserve" width="461px" height="454px" version="1.1" style="shape-rendering:geometricPrecision; text-rendering:geometricPrecision; image-rendering:optimizeQuality; fill-rule:evenodd; clip-rule:evenodd"
viewBox="0 0 461 454"
 xmlns:xlink="http://www.w3.org/1999/xlink">
 <defs>
  <style type="text/css">
   <![CDATA[
    .fil0 {fill:#A82682;fill-rule:nonzero}
   ]]>
  </style>
 </defs>
 <g id="Layer_x0020_1">
  <metadata id="CorelCorpID_0Corel-Layer"/>
  <path class="fil0" d="M206 28c9,-24 55,-29 78,-28 18,2 64,13 55,39l-46 128c72,13 168,51 168,135 0,118 -185,152 -277,152 -54,0 -135,-10 -176,-47 -23,-21 8,-40 29,-46 26,-6 69,-4 90,14 11,10 43,12 57,12 54,0 142,-19 142,-85 0,-56 -63,-74 -111,-76 -15,0 -33,-3 -47,-9 -13,-6 -24,-16 -19,-31l57 -158z"/>
 </g>
</svg>
