<?xml version="1.0" encoding="UTF-8"?>
<!DOCTYPE svg PUBLIC "-//W3C//DTD SVG 1.1//EN" "http://www.w3.org/Graphics/SVG/1.1/DTD/svg11.dtd">
<!-- Creator: CorelDRAW 2020 (64-Bit) -->
<svg xmlns="http://www.w3.org/2000/svg" xml:space="preserve" width="270.992mm" height="371.678mm" version="1.1" style="shape-rendering:geometricPrecision; text-rendering:geometricPrecision; image-rendering:optimizeQuality; fill-rule:evenodd; clip-rule:evenodd"
viewBox="0 0 27099.22 37167.86"
 xmlns:xlink="http://www.w3.org/1999/xlink"
 xmlns:xodm="http://www.corel.com/coreldraw/odm/2003">
 <defs>
  <style type="text/css">
   <![CDATA[
    .fil0 {fill:#EF7F1A;fill-rule:nonzero}
   ]]>
  </style>
 </defs>
 <g id="Layer_x0020_1">
  <metadata id="CorelCorpID_0Corel-Layer"/>
  <path class="fil0" d="M14134.64 32133.54c5224.82,0 11590.35,-2607.26 12861.73,-8063.44 36.8,-157.93 102.85,-387.85 102.85,-538.46 0,-1081.85 -1875.6,-1452.27 -2698.75,-1452.27 -846.67,0 -2496.51,339.27 -2675.23,1322.92 -615.03,3384.96 -4074.58,5791.44 -7484.77,5791.44 -950.8,0 -1822.95,-130.56 -2618.09,-370.69l7649.02 -19175.68c1265.61,1000.09 2157.2,2406.79 2400.92,4094.69 145.46,1007.41 1828.57,1346.43 2675.23,1346.43 846.67,0 2675.24,-393.93 2675.24,-1452.27 0,-155.44 -18.54,-271.7 -45.41,-425.28 -592.77,-3387.66 -3209.92,-5689.3 -6348.51,-6966.65l1932.05 -4843.54c42.81,-107.33 105.07,-252.6 105.07,-365.92 0,-784.38 -1480.85,-1034.82 -2116.67,-1034.82 -770.23,0 -1831.44,219.55 -2093.15,876.07l-1724.77 4326.65c-788.39,-112.31 -1572.56,-168.4 -2332.18,-168.4 -8300.57,0 -14399.22,5098.7 -14399.22,13652.51 0,5622.63 2547.55,9677.38 6657.42,11786.89l-2134.1 5353.47c-43.08,108.09 -89.91,201.6 -90.08,320.79 -0.94,642.96 1117.44,1019.88 2211.35,1019.88 901.43,0 1759.08,-275.73 1992.59,-861.13l1806.49 -4528.78c1162.38,235.37 2397.07,355.59 3690.96,355.59zm-5964.19 -5455.29c-1882.39,-1998.31 -2819.97,-4945.78 -2825.86,-7938.51 -10.71,-5432.84 3022.08,-10765.6 9025.23,-10765.6 409.57,0 817.5,32.1 1219.4,93.8l-7418.77 18610.32z"/>
 </g>
</svg>
