<?xml version="1.0" encoding="UTF-8"?>
<!DOCTYPE svg PUBLIC "-//W3C//DTD SVG 1.1//EN" "http://www.w3.org/Graphics/SVG/1.1/DTD/svg11.dtd">
<!-- Creator: CorelDRAW 2020 (64-Bit) -->
<svg xmlns="http://www.w3.org/2000/svg" xml:space="preserve" width="493px" height="424px" version="1.1" style="shape-rendering:geometricPrecision; text-rendering:geometricPrecision; image-rendering:optimizeQuality; fill-rule:evenodd; clip-rule:evenodd"
viewBox="0 0 493 424.012"
 xmlns:xlink="http://www.w3.org/1999/xlink"
 xmlns:xodm="http://www.corel.com/coreldraw/odm/2003">
 <defs>
  <style type="text/css">
   <![CDATA[
    .fil0 {fill:#009846;fill-rule:nonzero}
   ]]>
  </style>
 </defs>
 <g id="Layer_x0020_1">
  <metadata id="CorelCorpID_0Corel-Layer"/>
  <path class="fil0" d="M493 393.931c0,-2.341 -0.886,-4.87 -2.521,-8.105l-183.187 -362.41c-8.975,-17.757 -42.149,-23.416 -60.882,-23.416 -18.553,0 -51.691,5.677 -60.702,23.416l-184.087 362.41c-1.357,2.672 -1.621,5.764 -1.621,8.105 0,18.496 32.634,30.092 64.657,30.081 25.495,-0.009 50.434,-7.629 58.548,-23.596l123.205 -242.447 123.385 242.447c8.079,15.875 33.307,23.551 59.009,23.596 31.868,0.056 64.196,-11.266 64.196,-30.081z"/>
 </g>
</svg>
