<?xml version="1.0" encoding="UTF-8"?>
<!DOCTYPE svg PUBLIC "-//W3C//DTD SVG 1.1//EN" "http://www.w3.org/Graphics/SVG/1.1/DTD/svg11.dtd">
<!-- Creator: CorelDRAW X8 -->
<svg xmlns="http://www.w3.org/2000/svg" xml:space="preserve" width="1123px" height="1024px" version="1.1" style="shape-rendering:geometricPrecision; text-rendering:geometricPrecision; image-rendering:optimizeQuality; fill-rule:evenodd; clip-rule:evenodd"
viewBox="0 0 1123 1024"
 xmlns:xlink="http://www.w3.org/1999/xlink">
 <defs>
  <style type="text/css">
   <![CDATA[
    .fil0 {fill:#996633;fill-rule:nonzero}
   ]]>
  </style>
 </defs>
 <g id="Layer_x0020_1">
  <metadata id="CorelCorpID_0Corel-Layer"/>
  <path class="fil0" d="M866 387c0,1 0,2 0,2 0,23 -35,31 -52,31 -19,1 -58,-5 -61,-29 -11,-86 -89,-148 -175,-147 -144,2 -211,144 -209,272 0,70 20,143 62,195 33,42 81,69 145,69 42,-1 83,-17 115,-43 33,-26 56,-63 64,-105 3,-23 42,-29 61,-28 17,1 51,9 51,31 0,1 0,2 0,3 -10,61 -46,109 -94,143 -56,40 -128,61 -196,61 -103,0 -183,-34 -238,-92 -54,-57 -83,-138 -83,-233 -1,-198 118,-332 320,-335 126,-2 272,67 290,205zm257 125c0,321 -255,512 -561,512 -307,0 -562,-191 -562,-512 0,-321 255,-512 562,-512 306,0 561,191 561,512zm-169 0c0,-231 -154,-417 -392,-417 -239,0 -393,186 -393,417 0,231 154,417 393,417 238,0 392,-186 392,-417z"/>
 </g>
</svg>
