<?xml version="1.0" encoding="UTF-8"?>
<!DOCTYPE svg PUBLIC "-//W3C//DTD SVG 1.1//EN" "http://www.w3.org/Graphics/SVG/1.1/DTD/svg11.dtd">
<!-- Creator: CorelDRAW 2020 (64-Bit) -->
<svg xmlns="http://www.w3.org/2000/svg" xml:space="preserve" width="203.024mm" height="182.092mm" version="1.1" style="shape-rendering:geometricPrecision; text-rendering:geometricPrecision; image-rendering:optimizeQuality; fill-rule:evenodd; clip-rule:evenodd"
viewBox="0 0 20302.36 18209.22"
 xmlns:xlink="http://www.w3.org/1999/xlink"
 xmlns:xodm="http://www.corel.com/coreldraw/odm/2003">
 <defs>
  <style type="text/css">
   <![CDATA[
    .fil0 {fill:#EF7F1A;fill-rule:nonzero}
   ]]>
  </style>
 </defs>
 <g id="Layer_x0020_1">
  <metadata id="CorelCorpID_0Corel-Layer"/>
  <path class="fil0" d="M10136.48 14663.8c-2963.33,0 -4415.6,-3016.25 -4415.6,-5662.08 0,-2622.32 1452.27,-5456.3 4415.6,-5456.3 2992.73,0 4421.48,2833.98 4421.48,5456.3 0,2645.83 -1428.75,5662.08 -4421.48,5662.08zm7808.15 3545.42c399.82,0 794.87,-49.33 1140.65,-158.75 583.22,-184.56 1217.08,-635 1217.08,-1164.17 0,-211.67 -105.84,-423.33 -317.5,-635l-2304.81 -2304.81c1058.33,-1399.36 1616.9,-3198.52 1616.9,-4944.77 0,-1746.25 -558.57,-3363.15 -1616.9,-4768.38l2304.81 -2275.42c213.02,-210.31 317.5,-423.33 317.5,-635 0,-529.17 -633.86,-979.61 -1217.08,-1164.17 -345.78,-109.42 -740.83,-158.75 -1140.65,-158.75 -764.35,0 -1556.94,189.34 -2034.35,664.4l-1193.57 1187.69c-1428.75,-658.52 -3016.25,-923.11 -4580.23,-923.11 -1558.1,0 -3122.08,264.59 -4550.83,923.11l-1187.69 -1187.69c-476.24,-476.25 -1270,-664.4 -2040.23,-664.4 -423.33,0 -816.46,55.41 -1134.77,158.75 -587.15,190.63 -1222.96,635 -1222.96,1164.17 0,188.15 105.56,423.61 317.5,635l2281.3 2275.42c-1034.82,1375.83 -1587.5,3075.04 -1587.5,4768.38 0,1814.69 489.49,3484.92 1587.5,4944.77l-2281.3 2304.81c-210.57,212.74 -317.5,446.85 -317.5,635 0,529.17 635.81,973.54 1222.96,1164.17 318.31,103.34 711.44,158.75 1134.77,158.75 770.23,0 1561.03,-185.2 2040.23,-664.4l1187.69 -1187.69c1428.75,658.52 2992.73,923.11 4550.83,923.11 1563.98,0 3151.48,-264.59 4580.23,-923.11l1193.57 1187.69c480.38,478 1270,664.4 2034.35,664.4z"/>
 </g>
</svg>
