<?xml version="1.0" encoding="UTF-8"?>
<!DOCTYPE svg PUBLIC "-//W3C//DTD SVG 1.1//EN" "http://www.w3.org/Graphics/SVG/1.1/DTD/svg11.dtd">
<!-- Creator: CorelDRAW X8 -->
<svg xmlns="http://www.w3.org/2000/svg" xml:space="preserve" width="1109px" height="1357px" version="1.1" style="shape-rendering:geometricPrecision; text-rendering:geometricPrecision; image-rendering:optimizeQuality; fill-rule:evenodd; clip-rule:evenodd"
viewBox="0 0 1109 1357"
 xmlns:xlink="http://www.w3.org/1999/xlink">
 <defs>
  <style type="text/css">
   <![CDATA[
    .fil0 {fill:#A82682;fill-rule:nonzero}
   ]]>
  </style>
 </defs>
 <g id="Layer_x0020_1">
  <metadata id="CorelCorpID_0Corel-Layer"/>
  <path class="fil0" d="M0 1297l0 -1237c0,-42 77,-60 109,-60l898 0c33,0 102,14 102,56 0,42 -69,56 -102,56l-804 0 0 510 677 0c32,0 101,14 101,56 0,42 -69,56 -101,56l-677 0 0 511 804 0c33,0 102,14 102,56 0,42 -69,56 -102,56l-898 0c-33,0 -109,-18 -109,-60z"/>
 </g>
</svg>
