<?xml version="1.0" encoding="UTF-8"?>
<!DOCTYPE svg PUBLIC "-//W3C//DTD SVG 1.1//EN" "http://www.w3.org/Graphics/SVG/1.1/DTD/svg11.dtd">
<!-- Creator: CorelDRAW X8 -->
<svg xmlns="http://www.w3.org/2000/svg" xml:space="preserve" width="756px" height="1405px" version="1.1" style="shape-rendering:geometricPrecision; text-rendering:geometricPrecision; image-rendering:optimizeQuality; fill-rule:evenodd; clip-rule:evenodd"
viewBox="0 0 756 1405"
 xmlns:xlink="http://www.w3.org/1999/xlink">
 <defs>
  <style type="text/css">
   <![CDATA[
    .fil0 {fill:#EF7F1A;fill-rule:nonzero}
   ]]>
  </style>
 </defs>
 <g id="Layer_x0020_1">
  <metadata id="CorelCorpID_0Corel-Layer"/>
  <path class="fil0" d="M311 1405c32,0 101,-14 101,-56l0 -857 171 0c32,0 102,-14 102,-56 0,-42 -70,-56 -102,-56l-171 0 0 -104c0,-89 33,-164 135,-164 37,0 70,11 104,11 34,0 106,-14 106,-58 0,-32 -56,-49 -84,-54 -42,-7 -84,-11 -128,-11 -183,1 -336,78 -336,276l0 104 -109 0c-32,0 -101,14 -101,56 0,42 69,56 101,56l109 0 0 857c0,42 69,56 102,56z"/>
 </g>
</svg>
