<?xml version="1.0" encoding="UTF-8"?>
<!DOCTYPE svg PUBLIC "-//W3C//DTD SVG 1.1//EN" "http://www.w3.org/Graphics/SVG/1.1/DTD/svg11.dtd">
<!-- Creator: CorelDRAW 2020 (64-Bit) -->
<svg xmlns="http://www.w3.org/2000/svg" xml:space="preserve" width="691px" height="677px" version="1.1" style="shape-rendering:geometricPrecision; text-rendering:geometricPrecision; image-rendering:optimizeQuality; fill-rule:evenodd; clip-rule:evenodd"
viewBox="0 0 691 677"
 xmlns:xlink="http://www.w3.org/1999/xlink"
 xmlns:xodm="http://www.corel.com/coreldraw/odm/2003">
 <defs>
  <style type="text/css">
   <![CDATA[
    .fil0 {fill:#009846;fill-rule:nonzero}
   ]]>
  </style>
 </defs>
 <g id="Layer_x0020_1">
  <metadata id="CorelCorpID_0Corel-Layer"/>
  <path class="fil0" d="M623.632 677c17.172,0 33.759,-2.944 46.82,-9.842 13.364,-7.059 20.548,-17.333 20.548,-27.174 0,-8.666 -5.995,-17.96 -18.493,-25.118 -38.285,-21.925 -43.004,-68.742 -43.004,-107.814l0 -284.96c0,-163.146 -169.016,-222.092 -305.872,-222.092 -73.973,0 -154.123,16.942 -215.314,57.432 -45.806,30.31 -88.503,79.466 -88.503,136.311 0,27.656 45.339,36.281 66.348,36.281 21.287,0 66.814,-7.998 67.068,-36.281 0.332,-37.019 27.714,-69.517 57.387,-88.573 32.998,-21.191 73.386,-31.727 113.014,-31.727 92.051,0 172.456,48.266 172.456,148.649l0 62.868c-25.831,13.807 -65.46,17.185 -106.409,17.185 -36.252,0 -81.58,-2.644 -109.32,-2.644 -130.186,0 -280.358,25.118 -280.358,185.077 0,141.452 155.137,192.422 276.077,192.422 75.294,0 184.345,-15.864 241.145,-81.963 9.834,37.015 32.873,56.374 58.122,70.799 13.062,7.463 31.116,11.164 48.288,11.164zm-347.555 -73.444c-76.027,0 -142.074,-37.015 -142.074,-118.978 0,-95.737 65.045,-112.368 146.355,-112.368 40.939,0 82.12,3.378 123.264,3.378 30.968,0 62.084,-1.322 92.465,-6.61l0 63.456c0,109.723 -120.939,171.122 -220.01,171.122z"/>
 </g>
</svg>
