<?xml version="1.0" encoding="UTF-8"?>
<!DOCTYPE svg PUBLIC "-//W3C//DTD SVG 1.1//EN" "http://www.w3.org/Graphics/SVG/1.1/DTD/svg11.dtd">
<!-- Creator: CorelDRAW X8 -->
<svg xmlns="http://www.w3.org/2000/svg" xml:space="preserve" width="1022px" height="1405px" version="1.1" style="shape-rendering:geometricPrecision; text-rendering:geometricPrecision; image-rendering:optimizeQuality; fill-rule:evenodd; clip-rule:evenodd"
viewBox="0 0 1022 1405"
 xmlns:xlink="http://www.w3.org/1999/xlink">
 <defs>
  <style type="text/css">
   <![CDATA[
    .fil0 {fill:#EF7F1A;fill-rule:nonzero}
   ]]>
  </style>
 </defs>
 <g id="Layer_x0020_1">
  <metadata id="CorelCorpID_0Corel-Layer"/>
  <path class="fil0" d="M1021 961l1 -905c0,-42 -67,-56 -100,-56 -32,0 -101,14 -101,56l0 61c-80,-79 -197,-117 -309,-117 -309,0 -512,211 -512,512 0,301 202,512 511,512 113,0 229,-34 308,-115l0 52c0,207 -124,332 -331,332 -99,0 -233,-29 -290,-112 -18,-26 -59,-35 -95,-35 -33,0 -102,15 -102,55 0,6 2,13 7,20 94,136 320,184 483,184 279,0 530,-135 530,-444zm-510 -49c-210,0 -308,-221 -308,-400 0,-179 99,-400 309,-400 210,0 309,221 309,400 0,179 -100,400 -310,400z"/>
 </g>
</svg>
