<?xml version="1.0" encoding="UTF-8"?>
<!DOCTYPE svg PUBLIC "-//W3C//DTD SVG 1.1//EN" "http://www.w3.org/Graphics/SVG/1.1/DTD/svg11.dtd">
<!-- Creator: CorelDRAW X8 -->
<svg xmlns="http://www.w3.org/2000/svg" xml:space="preserve" width="1022px" height="1405px" version="1.1" style="shape-rendering:geometricPrecision; text-rendering:geometricPrecision; image-rendering:optimizeQuality; fill-rule:evenodd; clip-rule:evenodd"
viewBox="0 0 1022 1405"
 xmlns:xlink="http://www.w3.org/1999/xlink">
 <defs>
  <style type="text/css">
   <![CDATA[
    .fil0 {fill:#5B5A50;fill-rule:nonzero}
   ]]>
  </style>
 </defs>
 <g id="Layer_x0020_1">
  <metadata id="CorelCorpID_0Corel-Layer"/>
  <path class="fil0" d="M8 1221c-26,-38 27,-65 59,-72 40,-8 106,-2 131,33 60,86 205,115 305,111 202,-6 316,-134 316,-332l0 -52c-79,81 -195,115 -308,115 -309,0 -511,-211 -511,-512 0,-300 203,-512 512,-512 112,0 229,38 309,117l0 -61c0,-42 69,-56 101,-56 33,0 100,14 100,56l-1 905c0,297 -229,434 -506,444 -164,5 -408,-41 -507,-184zm504 -1109c-210,0 -309,221 -309,400 0,179 98,400 308,400 210,0 310,-221 310,-400 0,-179 -99,-400 -309,-400z"/>
 </g>
</svg>
