<?xml version="1.0" encoding="UTF-8"?>
<!DOCTYPE svg PUBLIC "-//W3C//DTD SVG 1.1//EN" "http://www.w3.org/Graphics/SVG/1.1/DTD/svg11.dtd">
<!-- Creator: CorelDRAW X8 -->
<svg xmlns="http://www.w3.org/2000/svg" xml:space="preserve" width="1366px" height="1405px" version="1.1" style="shape-rendering:geometricPrecision; text-rendering:geometricPrecision; image-rendering:optimizeQuality; fill-rule:evenodd; clip-rule:evenodd"
viewBox="0 0 1366 1405"
 xmlns:xlink="http://www.w3.org/1999/xlink">
 <defs>
  <style type="text/css">
   <![CDATA[
    .fil0 {fill:#2B2A29;fill-rule:nonzero}
   ]]>
  </style>
 </defs>
 <g id="Layer_x0020_1">
  <metadata id="CorelCorpID_0Corel-Layer"/>
  <path class="fil0" d="M713 1293c-334,0 -511,-279 -511,-588 0,-316 187,-593 526,-593 199,0 404,123 433,329 6,39 70,52 102,52 32,0 101,-15 101,-55 0,-12 -4,-28 -6,-39 -62,-271 -372,-399 -632,-399 -428,0 -726,270 -726,705 0,431 287,700 713,700 157,0 319,-43 449,-133 85,-60 204,-198 204,-306l0 -224c0,-42 -69,-56 -101,-56l-547 0c-33,0 -102,14 -102,56 0,42 69,56 102,56l446 0 0 168c0,102 -82,181 -161,237 -85,59 -187,90 -290,90z"/>
 </g>
</svg>
