<?xml version="1.0" encoding="UTF-8"?>
<!DOCTYPE svg PUBLIC "-//W3C//DTD SVG 1.1//EN" "http://www.w3.org/Graphics/SVG/1.1/DTD/svg11.dtd">
<!-- Creator: CorelDRAW X8 -->
<svg xmlns="http://www.w3.org/2000/svg" xml:space="preserve" width="1366px" height="1405px" version="1.1" style="shape-rendering:geometricPrecision; text-rendering:geometricPrecision; image-rendering:optimizeQuality; fill-rule:evenodd; clip-rule:evenodd"
viewBox="0 0 1366 1405"
 xmlns:xlink="http://www.w3.org/1999/xlink">
 <defs>
  <style type="text/css">
   <![CDATA[
    .fil0 {fill:#A82682;fill-rule:nonzero}
   ]]>
  </style>
 </defs>
 <g id="Layer_x0020_1">
  <metadata id="CorelCorpID_0Corel-Layer"/>
  <path class="fil0" d="M1364 433c6,44 -68,60 -101,60 -32,0 -96,-13 -102,-52 -29,-208 -239,-332 -440,-329 -338,4 -521,288 -519,598 3,308 175,586 516,583 100,0 203,-33 285,-90 79,-56 161,-135 161,-237l0 -168 -446 0c-33,0 -102,-14 -102,-56 0,-42 69,-56 102,-56l547 0c32,0 101,14 101,56l0 224c0,108 -119,246 -204,306 -127,88 -288,132 -442,133 -434,3 -716,-267 -720,-695 -4,-428 285,-704 717,-710 273,-3 605,136 647,433z"/>
 </g>
</svg>
