<?xml version="1.0" encoding="UTF-8"?>
<!DOCTYPE svg PUBLIC "-//W3C//DTD SVG 1.1//EN" "http://www.w3.org/Graphics/SVG/1.1/DTD/svg11.dtd">
<!-- Creator: CorelDRAW X8 -->
<svg xmlns="http://www.w3.org/2000/svg" xml:space="preserve" width="960px" height="1405px" version="1.1" style="shape-rendering:geometricPrecision; text-rendering:geometricPrecision; image-rendering:optimizeQuality; fill-rule:evenodd; clip-rule:evenodd"
viewBox="0 0 960 1405"
 xmlns:xlink="http://www.w3.org/1999/xlink">
 <defs>
  <style type="text/css">
   <![CDATA[
    .fil0 {fill:#996633;fill-rule:nonzero}
   ]]>
  </style>
 </defs>
 <g id="Layer_x0020_1">
  <metadata id="CorelCorpID_0Corel-Layer"/>
  <path class="fil0" d="M203 464c80,-60 179,-83 277,-83 276,0 480,172 480,453l0 526c0,42 -69,57 -102,57 -32,0 -101,-15 -101,-57l0 -526c0,-164 -92,-340 -277,-340 -178,0 -277,166 -277,327l0 539c0,42 -69,57 -101,57 -33,0 -102,-15 -102,-57l0 -1315c0,-42 69,-57 102,-57 32,0 101,15 101,57l0 419z"/>
 </g>
</svg>
