<?xml version="1.0" encoding="UTF-8"?>
<!DOCTYPE svg PUBLIC "-//W3C//DTD SVG 1.1//EN" "http://www.w3.org/Graphics/SVG/1.1/DTD/svg11.dtd">
<!-- Creator: CorelDRAW X8 -->
<svg xmlns="http://www.w3.org/2000/svg" xml:space="preserve" width="1189px" height="1405px" version="1.1" style="shape-rendering:geometricPrecision; text-rendering:geometricPrecision; image-rendering:optimizeQuality; fill-rule:evenodd; clip-rule:evenodd"
viewBox="0 0 1189 1405"
 xmlns:xlink="http://www.w3.org/1999/xlink">
 <defs>
  <style type="text/css">
   <![CDATA[
    .fil0 {fill:#EF7F1A;fill-rule:nonzero}
   ]]>
  </style>
 </defs>
 <g id="Layer_x0020_1">
  <metadata id="CorelCorpID_0Corel-Layer"/>
  <path class="fil0" d="M663 1405c32,0 85,-11 92,-45l70 -359 194 0c33,0 102,-14 102,-56 0,-42 -69,-56 -102,-56l-173 0 70 -362 172 0c32,0 101,-14 101,-56 0,-42 -69,-56 -101,-56l-150 0 68 -353c1,-4 1,-8 1,-12 0,-36 -60,-50 -89,-50 -33,0 -86,11 -93,45l-71 370 -222 0 68 -354c1,-3 1,-7 1,-10 0,-38 -58,-51 -89,-51 -33,0 -86,11 -93,45l-71 370 -178 0c-33,0 -102,14 -102,56 0,42 69,56 102,56l157 0 -70 362 -156 0c-32,0 -101,14 -101,56 0,42 69,56 101,56l134 0 -67 348c0,3 -1,5 -1,7 0,36 62,49 90,49 33,0 86,-11 93,-45l69 -359 222 0 -67 348c0,3 -1,5 -1,7 0,36 62,49 90,49zm0 -516l-223 0 70 -362 222 0 -69 362z"/>
 </g>
</svg>
