<?xml version="1.0" encoding="UTF-8"?>
<!DOCTYPE svg PUBLIC "-//W3C//DTD SVG 1.1//EN" "http://www.w3.org/Graphics/SVG/1.1/DTD/svg11.dtd">
<!-- Creator: CorelDRAW X8 -->
<svg xmlns="http://www.w3.org/2000/svg" xml:space="preserve" width="1189px" height="1405px" version="1.1" style="shape-rendering:geometricPrecision; text-rendering:geometricPrecision; image-rendering:optimizeQuality; fill-rule:evenodd; clip-rule:evenodd"
viewBox="0 0 1189 1405"
 xmlns:xlink="http://www.w3.org/1999/xlink">
 <defs>
  <style type="text/css">
   <![CDATA[
    .fil0 {fill:#996633;fill-rule:nonzero}
   ]]>
  </style>
 </defs>
 <g id="Layer_x0020_1">
  <metadata id="CorelCorpID_0Corel-Layer"/>
  <path class="fil0" d="M170 527c-33,0 -102,-14 -102,-56 0,-42 69,-56 102,-56l178 0 71 -370c7,-35 63,-45 95,-45 2,0 4,0 6,0 28,2 88,18 81,56l-69 359 222 0 71 -370c7,-34 60,-45 93,-45 2,0 5,0 8,0 26,2 81,16 81,50 0,2 0,4 0,6l-69 359 150 0c32,0 101,14 101,56 0,42 -69,56 -101,56l-172 0 -70 362 173 0c33,0 102,14 102,56 0,42 -69,56 -102,56l-194 0 -70 359c-6,34 -61,45 -93,45 -3,0 -5,0 -7,0 -27,-2 -82,-16 -82,-50 0,-2 1,-4 1,-6l67 -348 -222 0 -69 359c-7,34 -60,45 -93,45 -3,0 -5,0 -8,0 -29,-2 -88,-18 -81,-56l67 -348 -134 0c-32,0 -101,-14 -101,-56 0,-42 69,-56 101,-56l156 0 70 -362 -157 0zm270 362l223 0 69 -362 -222 0 -70 362z"/>
 </g>
</svg>
