<?xml version="1.0" encoding="UTF-8"?>
<!DOCTYPE svg PUBLIC "-//W3C//DTD SVG 1.1//EN" "http://www.w3.org/Graphics/SVG/1.1/DTD/svg11.dtd">
<!-- Creator: CorelDRAW X8 -->
<svg xmlns="http://www.w3.org/2000/svg" xml:space="preserve" width="554px" height="1698px" version="1.1" style="shape-rendering:geometricPrecision; text-rendering:geometricPrecision; image-rendering:optimizeQuality; fill-rule:evenodd; clip-rule:evenodd"
viewBox="0 0 554 1698"
 xmlns:xlink="http://www.w3.org/1999/xlink">
 <defs>
  <style type="text/css">
   <![CDATA[
    .fil0 {fill:#A82682;fill-rule:nonzero}
   ]]>
  </style>
 </defs>
 <g id="Layer_x0020_1">
  <metadata id="CorelCorpID_0Corel-Layer"/>
  <path class="fil0" d="M343 349c0,-42 69,-56 101,-56 33,0 102,14 102,56l0 1073c0,198 -153,275 -336,276 -43,0 -85,-4 -127,-11 -32,-6 -106,-29 -77,-74 23,-36 90,-42 130,-34 24,4 49,8 73,7 102,0 134,-75 134,-164l0 -1073zm101 -349c58,0 110,41 110,101 0,60 -52,101 -110,101 -58,0 -110,-41 -110,-101 0,-60 53,-101 110,-101z"/>
 </g>
</svg>
