<?xml version="1.0" encoding="UTF-8"?>
<!DOCTYPE svg PUBLIC "-//W3C//DTD SVG 1.1//EN" "http://www.w3.org/Graphics/SVG/1.1/DTD/svg11.dtd">
<!-- Creator: CorelDRAW X8 -->
<svg xmlns="http://www.w3.org/2000/svg" xml:space="preserve" width="555px" height="1698px" version="1.1" style="shape-rendering:geometricPrecision; text-rendering:geometricPrecision; image-rendering:optimizeQuality; fill-rule:evenodd; clip-rule:evenodd"
viewBox="0 0 555 1698"
 xmlns:xlink="http://www.w3.org/1999/xlink">
 <defs>
  <style type="text/css">
   <![CDATA[
    .fil0 {fill:#EF7F1A;fill-rule:nonzero}
   ]]>
  </style>
 </defs>
 <g id="Layer_x0020_1">
  <metadata id="CorelCorpID_0Corel-Layer"/>
  <path class="fil0" d="M445 202c58,0 110,-41 110,-101 0,-60 -52,-101 -110,-101 -57,0 -110,41 -110,101 0,60 52,101 110,101zm-234 1496c183,-1 336,-78 336,-276l0 -1073c0,-42 -69,-56 -102,-56 -32,0 -101,14 -101,56l0 1073c0,89 -32,164 -134,164 -38,0 -71,-10 -107,-10 -33,0 -103,14 -103,57 0,32 57,49 84,54 42,7 84,11 127,11z"/>
 </g>
</svg>
