<?xml version="1.0" encoding="UTF-8"?>
<!DOCTYPE svg PUBLIC "-//W3C//DTD SVG 1.1//EN" "http://www.w3.org/Graphics/SVG/1.1/DTD/svg11.dtd">
<!-- Creator: CorelDRAW X8 -->
<svg xmlns="http://www.w3.org/2000/svg" xml:space="preserve" width="554px" height="1698px" version="1.1" style="shape-rendering:geometricPrecision; text-rendering:geometricPrecision; image-rendering:optimizeQuality; fill-rule:evenodd; clip-rule:evenodd"
viewBox="0 0 554 1697"
 xmlns:xlink="http://www.w3.org/1999/xlink">
 <defs>
  <style type="text/css">
   <![CDATA[
    .fil0 {fill:#996633;fill-rule:nonzero}
   ]]>
  </style>
 </defs>
 <g id="Layer_x0020_1">
  <metadata id="CorelCorpID_0Corel-Layer"/>
  <path class="fil0" d="M343 349c0,-42 69,-56 101,-56 32,0 102,14 102,56l0 1072c0,198 -153,275 -336,276 -43,0 -85,-4 -127,-12 -15,-3 -41,-9 -60,-21 -13,-8 -23,-19 -23,-33 0,-7 3,-14 7,-20 18,-28 65,-37 97,-37 10,0 21,1 32,3 24,5 49,8 73,8 102,-1 134,-75 134,-164l0 -1072zm101 -349c58,0 110,41 110,101 0,60 -52,101 -110,101 -58,0 -110,-41 -110,-101 0,-60 53,-101 110,-101z"/>
 </g>
</svg>
