<?xml version="1.0" encoding="UTF-8"?>
<!DOCTYPE svg PUBLIC "-//W3C//DTD SVG 1.1//EN" "http://www.w3.org/Graphics/SVG/1.1/DTD/svg11.dtd">
<!-- Creator: CorelDRAW X8 -->
<svg xmlns="http://www.w3.org/2000/svg" xml:space="preserve" width="1142px" height="1405px" version="1.1" style="shape-rendering:geometricPrecision; text-rendering:geometricPrecision; image-rendering:optimizeQuality; fill-rule:evenodd; clip-rule:evenodd"
viewBox="0 0 1142 1405"
 xmlns:xlink="http://www.w3.org/1999/xlink">
 <defs>
  <style type="text/css">
   <![CDATA[
    .fil0 {fill:#996633;fill-rule:nonzero}
   ]]>
  </style>
 </defs>
 <g id="Layer_x0020_1">
  <metadata id="CorelCorpID_0Corel-Layer"/>
  <path class="fil0" d="M0 51c0,-39 72,-51 101,-51 30,0 102,12 102,51l0 677 769 -705c18,-17 52,-23 78,-23 14,0 28,2 42,5 18,5 48,18 48,40 0,9 -5,16 -11,22l-555 509 561 748c4,6 7,13 7,21 0,34 -52,51 -79,56 -14,3 -27,4 -41,4 -35,0 -90,-10 -112,-39l-488 -651 -219 201 0 438c0,39 -72,51 -102,51 -29,0 -101,-12 -101,-51l0 -1303z"/>
 </g>
</svg>
