<?xml version="1.0" encoding="UTF-8"?>
<!DOCTYPE svg PUBLIC "-//W3C//DTD SVG 1.1//EN" "http://www.w3.org/Graphics/SVG/1.1/DTD/svg11.dtd">
<!-- Creator: CorelDRAW X8 -->
<svg xmlns="http://www.w3.org/2000/svg" xml:space="preserve" width="1143px" height="1405px" version="1.1" style="shape-rendering:geometricPrecision; text-rendering:geometricPrecision; image-rendering:optimizeQuality; fill-rule:evenodd; clip-rule:evenodd"
viewBox="0 0 1143 1405"
 xmlns:xlink="http://www.w3.org/1999/xlink">
 <defs>
  <style type="text/css">
   <![CDATA[
    .fil0 {fill:#2B2A29;fill-rule:nonzero}
   ]]>
  </style>
 </defs>
 <g id="Layer_x0020_1">
  <metadata id="CorelCorpID_0Corel-Layer"/>
  <path class="fil0" d="M1022 1405c15,0 29,-2 41,-4 27,-5 80,-25 80,-56 0,-6 -2,-13 -8,-21l-561 -748 555 -509c8,-7 12,-15 12,-21 0,-20 -28,-35 -49,-41 -12,-3 -27,-5 -43,-5 -29,0 -59,7 -77,23l-769 705 0 -677c0,-39 -72,-51 -102,-51 -29,0 -101,12 -101,51l0 1303c0,39 72,51 101,51 30,0 102,-12 102,-51l0 -438 219 -201 488 651c21,28 70,39 112,39z"/>
 </g>
</svg>
