<?xml version="1.0" encoding="UTF-8"?>
<!DOCTYPE svg PUBLIC "-//W3C//DTD SVG 1.1//EN" "http://www.w3.org/Graphics/SVG/1.1/DTD/svg11.dtd">
<!-- Creator: CorelDRAW X8 -->
<svg xmlns="http://www.w3.org/2000/svg" xml:space="preserve" width="1430px" height="1357px" version="1.1" style="shape-rendering:geometricPrecision; text-rendering:geometricPrecision; image-rendering:optimizeQuality; fill-rule:evenodd; clip-rule:evenodd"
viewBox="0 0 1430 1357"
 xmlns:xlink="http://www.w3.org/1999/xlink">
 <defs>
  <style type="text/css">
   <![CDATA[
    .fil0 {fill:#A82682;fill-rule:nonzero}
   ]]>
  </style>
 </defs>
 <g id="Layer_x0020_1">
  <metadata id="CorelCorpID_0Corel-Layer"/>
  <path class="fil0" d="M326 0l466 0c403,0 638,306 638,683 0,378 -236,674 -638,674l-466 0c-32,0 -101,-14 -101,-56l0 -568 -124 0c-32,0 -101,-13 -101,-55 0,-41 69,-54 101,-54l124 0 0 -568c0,-42 69,-56 101,-56zm102 624l123 0c33,0 102,13 102,54 0,42 -69,55 -102,55l-123 0 0 512 364 0c300,0 436,-309 436,-563 0,-251 -137,-570 -436,-570l-364 0 0 512z"/>
 </g>
</svg>
