<?xml version="1.0" encoding="UTF-8"?>
<!DOCTYPE svg PUBLIC "-//W3C//DTD SVG 1.1//EN" "http://www.w3.org/Graphics/SVG/1.1/DTD/svg11.dtd">
<!-- Creator: CorelDRAW X8 -->
<svg xmlns="http://www.w3.org/2000/svg" xml:space="preserve" width="1079px" height="1405px" version="1.1" style="shape-rendering:geometricPrecision; text-rendering:geometricPrecision; image-rendering:optimizeQuality; fill-rule:evenodd; clip-rule:evenodd"
viewBox="0 0 1079 1405"
 xmlns:xlink="http://www.w3.org/1999/xlink">
 <defs>
  <style type="text/css">
   <![CDATA[
    .fil0 {fill:#EF7F1A;fill-rule:nonzero}
   ]]>
  </style>
 </defs>
 <g id="Layer_x0020_1">
  <metadata id="CorelCorpID_0Corel-Layer"/>
  <path class="fil0" d="M102 1405c-56,0 -102,-25 -102,-56l0 -946c0,-277 195,-403 449,-403 176,0 392,80 392,286 0,158 -153,262 -153,369 0,154 391,227 391,479 0,188 -219,270 -377,270 -94,0 -185,-22 -253,-66 -53,-35 -121,-116 -121,-183 0,-41 70,-55 102,-55 52,0 96,21 100,50 11,54 37,92 74,115 30,19 63,27 97,27 90,0 175,-63 175,-158 0,-211 -392,-268 -392,-476 0,-134 152,-235 154,-374 0,-112 -86,-171 -190,-171 -174,0 -244,128 -244,290l0 946c0,31 -45,56 -102,56z"/>
 </g>
</svg>
