<?xml version="1.0" encoding="UTF-8"?>
<!DOCTYPE svg PUBLIC "-//W3C//DTD SVG 1.1//EN" "http://www.w3.org/Graphics/SVG/1.1/DTD/svg11.dtd">
<!-- Creator: CorelDRAW X8 -->
<svg xmlns="http://www.w3.org/2000/svg" xml:space="preserve" width="1114px" height="1488px" version="1.1" style="shape-rendering:geometricPrecision; text-rendering:geometricPrecision; image-rendering:optimizeQuality; fill-rule:evenodd; clip-rule:evenodd"
viewBox="0 0 1114 1487"
 xmlns:xlink="http://www.w3.org/1999/xlink">
 <defs>
  <style type="text/css">
   <![CDATA[
    .fil0 {fill:#996633;fill-rule:nonzero}
   ]]>
  </style>
 </defs>
 <g id="Layer_x0020_1">
  <metadata id="CorelCorpID_0Corel-Layer"/>
  <path class="fil0" d="M204 264c-19,11 -46,17 -72,17 -26,0 -51,-5 -71,-16 -20,-11 -31,-25 -31,-40 0,-14 10,-28 28,-38 121,-69 255,-103 394,-103 42,0 85,4 126,10l58 -69c13,-16 45,-26 78,-25 9,0 19,1 28,3 31,7 49,22 50,37 0,6 -2,11 -6,17l-65 76c98,39 179,100 241,179 95,120 148,285 152,473 6,366 -128,702 -569,702 -312,0 -545,-200 -545,-511 0,-312 233,-512 545,-512 128,0 242,34 333,95 -23,-78 -57,-147 -101,-203 -40,-51 -88,-91 -143,-119l-46 54c-13,16 -42,25 -74,25 -11,0 -21,-1 -32,-3 -30,-6 -49,-21 -50,-36 0,-6 2,-12 7,-17l52 -63c-13,-1 -26,-1 -39,-1 -89,0 -171,24 -248,68zm341 311c-222,0 -342,203 -342,401 0,197 120,400 342,400 221,0 341,-203 341,-400 0,-198 -120,-401 -341,-401z"/>
 </g>
</svg>
