<?xml version="1.0" encoding="UTF-8"?>
<!DOCTYPE svg PUBLIC "-//W3C//DTD SVG 1.1//EN" "http://www.w3.org/Graphics/SVG/1.1/DTD/svg11.dtd">
<!-- Creator: CorelDRAW X8 -->
<svg xmlns="http://www.w3.org/2000/svg" xml:space="preserve" width="782px" height="654px" version="1.1" style="shape-rendering:geometricPrecision; text-rendering:geometricPrecision; image-rendering:optimizeQuality; fill-rule:evenodd; clip-rule:evenodd"
viewBox="0 0 782 654"
 xmlns:xlink="http://www.w3.org/1999/xlink">
 <defs>
  <style type="text/css">
   <![CDATA[
    .fil0 {fill:#EF7F1A;fill-rule:nonzero}
   ]]>
  </style>
 </defs>
 <g id="Layer_x0020_1">
  <metadata id="CorelCorpID_0Corel-Layer"/>
  <path class="fil0" d="M704 654c15,0 29,-2 41,-6 18,-6 37,-20 37,-36 0,-7 -3,-14 -11,-21l-290 -264 290 -264c8,-7 11,-14 11,-21 0,-16 -19,-30 -37,-36 -12,-4 -26,-6 -41,-6 -25,0 -50,6 -65,20l-314 285c-6,6 -11,13 -11,22 0,9 5,15 11,21l314 286c15,14 40,20 65,20zm-314 0c15,0 29,-2 41,-6 19,-6 37,-20 37,-36 0,-7 -3,-14 -11,-21l-290 -264 290 -264c8,-7 11,-14 11,-21 0,-16 -18,-30 -37,-36 -12,-4 -26,-6 -41,-6 -25,0 -50,6 -65,20l-314 285c-6,6 -11,13 -11,22 0,8 5,16 11,21l314 286c16,14 41,20 65,20z"/>
 </g>
</svg>
