<?xml version="1.0" encoding="UTF-8"?>
<!DOCTYPE svg PUBLIC "-//W3C//DTD SVG 1.1//EN" "http://www.w3.org/Graphics/SVG/1.1/DTD/svg11.dtd">
<!-- Creator: CorelDRAW X8 -->
<svg xmlns="http://www.w3.org/2000/svg" xml:space="preserve" width="782px" height="654px" version="1.1" style="shape-rendering:geometricPrecision; text-rendering:geometricPrecision; image-rendering:optimizeQuality; fill-rule:evenodd; clip-rule:evenodd"
viewBox="0 0 782 654"
 xmlns:xlink="http://www.w3.org/1999/xlink">
 <defs>
  <style type="text/css">
   <![CDATA[
    .fil0 {fill:#A82682;fill-rule:nonzero}
   ]]>
  </style>
 </defs>
 <g id="Layer_x0020_1">
  <metadata id="CorelCorpID_0Corel-Layer"/>
  <path class="fil0" d="M771 591c27,24 0,48 -26,57 -32,10 -82,8 -106,-14l-314 -286c-7,-5 -11,-12 -11,-21 0,-9 5,-16 11,-22l314 -285c24,-22 74,-24 106,-14 26,9 53,33 26,57l-290 264 290 264zm-314 0c27,24 1,48 -26,57 -32,10 -81,8 -106,-14l-314 -286c-6,-5 -11,-13 -11,-21 0,-9 5,-16 11,-22l314 -285c24,-22 74,-24 106,-14 27,9 53,33 26,57l-290 264 290 264z"/>
 </g>
</svg>
