<?xml version="1.0" encoding="UTF-8"?>
<!DOCTYPE svg PUBLIC "-//W3C//DTD SVG 1.1//EN" "http://www.w3.org/Graphics/SVG/1.1/DTD/svg11.dtd">
<!-- Creator: CorelDRAW X8 -->
<svg xmlns="http://www.w3.org/2000/svg" xml:space="preserve" width="782px" height="654px" version="1.1" style="shape-rendering:geometricPrecision; text-rendering:geometricPrecision; image-rendering:optimizeQuality; fill-rule:evenodd; clip-rule:evenodd"
viewBox="0 0 782 654"
 xmlns:xlink="http://www.w3.org/1999/xlink">
 <defs>
  <style type="text/css">
   <![CDATA[
    .fil0 {fill:#996633;fill-rule:nonzero}
   ]]>
  </style>
 </defs>
 <g id="Layer_x0020_1">
  <metadata id="CorelCorpID_0Corel-Layer"/>
  <path class="fil0" d="M771 591c6,5 11,13 11,21 0,19 -21,31 -37,36 -13,4 -27,6 -40,6 -22,0 -50,-5 -66,-20l-314 -286c-7,-5 -11,-12 -11,-21 0,-9 5,-16 11,-22l314 -285c16,-15 43,-20 65,-20 14,0 27,2 41,6 16,5 37,17 37,36 0,8 -5,16 -11,21l-290 264 290 264zm-314 0c6,5 11,12 11,21 0,19 -21,31 -37,36 -13,4 -27,6 -41,6 -22,0 -49,-5 -65,-20l-314 -286c-6,-5 -11,-13 -11,-21 0,-9 5,-16 11,-22l314 -285c16,-15 44,-20 66,-20 13,0 27,2 40,6 16,5 37,17 37,36 0,8 -5,16 -11,21l-290 264 290 264z"/>
 </g>
</svg>
