<?xml version="1.0" encoding="UTF-8"?>
<!DOCTYPE svg PUBLIC "-//W3C//DTD SVG 1.1//EN" "http://www.w3.org/Graphics/SVG/1.1/DTD/svg11.dtd">
<!-- Creator: CorelDRAW X8 -->
<svg xmlns="http://www.w3.org/2000/svg" xml:space="preserve" width="1036px" height="945px" version="1.1" style="shape-rendering:geometricPrecision; text-rendering:geometricPrecision; image-rendering:optimizeQuality; fill-rule:evenodd; clip-rule:evenodd"
viewBox="0 0 1036 945"
 xmlns:xlink="http://www.w3.org/1999/xlink">
 <defs>
  <style type="text/css">
   <![CDATA[
    .fil0 {fill:#996633;fill-rule:nonzero}
   ]]>
  </style>
 </defs>
 <g id="Layer_x0020_1">
  <metadata id="CorelCorpID_0Corel-Layer"/>
  <path class="fil0" d="M867 15c20,-11 44,-15 67,-15 25,0 54,5 75,18 14,8 27,21 27,37 0,19 -17,33 -33,41l-752 376 752 377c16,8 33,21 33,40 0,17 -13,30 -27,38 -21,13 -50,18 -75,18 -23,0 -47,-4 -67,-15l-834 -417c-16,-8 -33,-22 -33,-41 0,-19 17,-32 33,-40l834 -417z"/>
 </g>
</svg>
