<?xml version="1.0" encoding="UTF-8"?>
<!DOCTYPE svg PUBLIC "-//W3C//DTD SVG 1.1//EN" "http://www.w3.org/Graphics/SVG/1.1/DTD/svg11.dtd">
<!-- Creator: CorelDRAW X8 -->
<svg xmlns="http://www.w3.org/2000/svg" xml:space="preserve" width="1525px" height="1024px" version="1.1" style="shape-rendering:geometricPrecision; text-rendering:geometricPrecision; image-rendering:optimizeQuality; fill-rule:evenodd; clip-rule:evenodd"
viewBox="0 0 1525 1024"
 xmlns:xlink="http://www.w3.org/1999/xlink">
 <defs>
  <style type="text/css">
   <![CDATA[
    .fil0 {fill:black;fill-rule:nonzero}
   ]]>
  </style>
 </defs>
 <g id="Layer_x0020_1">
  <metadata id="CorelCorpID_0Corel-Layer"/>
  <path class="fil0" d="M163 99c70,-70 162,-99 260,-99 136,0 260,54 340,167 79,-113 204,-167 340,-167 258,0 422,189 422,446l0 533c0,25 -37,45 -82,45 -45,0 -81,-20 -81,-45l0 -533c0,-169 -65,-352 -260,-352 -194,0 -257,186 -257,352l0 533c0,25 -37,45 -82,45 -45,0 -81,-20 -81,-45l0 -533c0,-169 -65,-352 -261,-352 -194,0 -258,185 -258,352l0 532c0,26 -36,46 -81,46 -45,0 -82,-20 -82,-46l0 -933c0,-25 37,-45 82,-45 45,0 81,20 81,45l0 54z"/>
 </g>
</svg>
