<?xml version="1.0" encoding="UTF-8"?>
<!DOCTYPE svg PUBLIC "-//W3C//DTD SVG 1.1//EN" "http://www.w3.org/Graphics/SVG/1.1/DTD/svg11.dtd">
<!-- Creator: CorelDRAW 2020 (64-Bit) -->
<svg xmlns="http://www.w3.org/2000/svg" xml:space="preserve" width="885px" height="1405px" version="1.1" style="shape-rendering:geometricPrecision; text-rendering:geometricPrecision; image-rendering:optimizeQuality; fill-rule:evenodd; clip-rule:evenodd"
viewBox="0 0 885 1404.989"
 xmlns:xlink="http://www.w3.org/1999/xlink"
 xmlns:xodm="http://www.corel.com/coreldraw/odm/2003">
 <defs>
  <style type="text/css">
   <![CDATA[
    .fil0 {fill:#EF7F1A;fill-rule:nonzero}
   ]]>
  </style>
 </defs>
 <g id="Layer_x0020_1">
  <metadata id="CorelCorpID_0Corel-Layer"/>
  <path class="fil0" d="M442.5 1023.549c-80.496,-4.059 -168.921,-32.001 -239.414,-116.552l0 441.999c0,41.995 -69.103,55.993 -101.099,55.993 -32.884,0 -101.987,-14 -101.987,-55.993l0 -1293.003c0,-41.992 69.103,-55.993 101.987,-55.993 31.996,0 101.099,13.998 101.099,55.993l0 521.045c0,77.102 15.017,163.011 55.992,229.971 41.909,68.485 103.077,103.098 183.415,103.098 80.346,0 141.514,-34.603 183.429,-103.098 40.975,-66.96 55.992,-152.869 55.992,-229.971l0 -521.045c0,-41.995 69.103,-55.993 101.099,-55.993 32.884,0 101.987,13.999 101.987,55.993l0 912.107c0,41.995 -69.103,55.993 -101.987,55.993 -31.996,0 -101.099,-13.998 -101.099,-55.993l0 -61.103c-70.493,84.551 -158.918,112.493 -239.414,116.552z"/>
 </g>
</svg>
