<?xml version="1.0" encoding="UTF-8"?>
<!DOCTYPE svg PUBLIC "-//W3C//DTD SVG 1.1//EN" "http://www.w3.org/Graphics/SVG/1.1/DTD/svg11.dtd">
<!-- Creator: CorelDRAW 2020 (64-Bit) -->
<svg xmlns="http://www.w3.org/2000/svg" xml:space="preserve" width="795px" height="1054px" version="1.1" style="shape-rendering:geometricPrecision; text-rendering:geometricPrecision; image-rendering:optimizeQuality; fill-rule:evenodd; clip-rule:evenodd"
viewBox="0 0 795 1054"
 xmlns:xlink="http://www.w3.org/1999/xlink"
 xmlns:xodm="http://www.corel.com/coreldraw/odm/2003">
 <defs>
  <style type="text/css">
   <![CDATA[
    .fil0 {fill:#009846;fill-rule:nonzero}
   ]]>
  </style>
 </defs>
 <g id="Layer_x0020_1">
  <metadata id="CorelCorpID_0Corel-Layer"/>
  <path class="fil0" d="M203.083 680.545c46.425,62.46 114.492,99.106 202.856,99.455 92.739,0.364 162.394,-41.755 205.985,-114.479l0 56.269c0,31.389 35.458,56.836 91.538,56.836 56.08,0 91.538,-25.447 91.538,-56.836l0 -664.954c0,-31.389 -45.462,-56.836 -101.542,-56.836 -56.08,0 -101.542,25.447 -101.542,56.836l0 404.087c-0.379,109.261 -60.935,228.574 -185.341,228.16 -135.338,-0.4 -203.475,-134.519 -203.492,-254.638l0 -377.609c0,-31.389 -45.462,-56.836 -101.541,-56.836 -56.08,0 -101.542,25.447 -101.542,56.836l0 940.328c0,31.389 45.462,56.836 101.542,56.836 56.079,0 101.541,-25.447 101.541,-56.836l0 -316.619z"/>
 </g>
</svg>
