<?xml version="1.0" encoding="UTF-8"?>
<!DOCTYPE svg PUBLIC "-//W3C//DTD SVG 1.1//EN" "http://www.w3.org/Graphics/SVG/1.1/DTD/svg11.dtd">
<!-- Creator: CorelDRAW X8 -->
<svg xmlns="http://www.w3.org/2000/svg" xml:space="preserve" width="2036px" height="1024px" version="1.1" style="shape-rendering:geometricPrecision; text-rendering:geometricPrecision; image-rendering:optimizeQuality; fill-rule:evenodd; clip-rule:evenodd"
viewBox="0 0 2036 1024"
 xmlns:xlink="http://www.w3.org/1999/xlink">
 <defs>
  <style type="text/css">
   <![CDATA[
    .fil0 {fill:#A82682;fill-rule:nonzero}
   ]]>
  </style>
 </defs>
 <g id="Layer_x0020_1">
  <metadata id="CorelCorpID_0Corel-Layer"/>
  <path class="fil0" d="M1189 -12c196,0 386,76 502,240 35,48 60,101 77,158l166 0c33,0 102,14 102,57 0,42 -69,57 -102,57l-144 0c3,24 4,48 5,72 1,237 -121,463 -393,464 -192,1 -374,-119 -374,-325 0,-251 200,-325 422,-325l112 0c-14,-41 -34,-81 -59,-116 -73,-105 -186,-169 -314,-169 -174,0 -272,123 -272,290l0 588c0,42 -68,57 -101,57 -32,0 -101,-15 -101,-57l0 -611c0,-135 -61,-265 -213,-265 -123,0 -221,96 -264,205 -26,67 -36,141 -35,213 2,151 64,349 215,413 38,16 58,51 19,79 -39,29 -103,28 -146,9 -199,-87 -288,-294 -291,-501 -1,-90 13,-183 52,-264 82,-176 260,-267 450,-267 120,0 236,27 324,113 98,-82 237,-115 363,-115zm398 512l-137 0c-148,0 -219,58 -219,211 0,94 64,212 168,212 139,0 193,-241 193,-349 0,-25 -1,-50 -5,-74z"/>
 </g>
</svg>
