<?xml version="1.0" encoding="UTF-8"?>
<!DOCTYPE svg PUBLIC "-//W3C//DTD SVG 1.1//EN" "http://www.w3.org/Graphics/SVG/1.1/DTD/svg11.dtd">
<!-- Creator: CorelDRAW X8 -->
<svg xmlns="http://www.w3.org/2000/svg" xml:space="preserve" width="2138px" height="1486px" version="1.1" style="shape-rendering:geometricPrecision; text-rendering:geometricPrecision; image-rendering:optimizeQuality; fill-rule:evenodd; clip-rule:evenodd"
viewBox="0 0 2138 1486"
 xmlns:xlink="http://www.w3.org/1999/xlink">
 <defs>
  <style type="text/css">
   <![CDATA[
    .fil0 {fill:#A82682;fill-rule:nonzero}
   ]]>
  </style>
 </defs>
 <g id="Layer_x0020_1">
  <metadata id="CorelCorpID_0Corel-Layer"/>
  <path class="fil0" d="M2060 263c55,116 80,242 78,370 -4,187 -58,365 -172,516 -190,250 -564,343 -870,337 -254,-5 -570,-79 -768,-240 -221,-178 -329,-430 -328,-710 1,-203 76,-394 248,-514 37,-26 101,-27 142,-10 38,17 56,52 17,79 -146,102 -203,274 -203,445 -1,225 73,441 236,602 161,158 437,232 662,236 264,5 569,-90 711,-318 80,-128 119,-274 122,-424 3,-108 -15,-218 -55,-318 -43,-108 -148,-202 -270,-202 -152,0 -213,116 -213,250l0 606c0,41 -69,55 -101,55 -32,0 -101,-14 -101,-55l0 -575c0,0 0,0 0,0l0 0 0 0 0 0 0 0c-7,0 -1,0 0,0l0 0 0 -3c-1,-180 -125,-280 -300,-279 -133,1 -236,84 -292,197 -24,47 -39,98 -46,150 54,-48 122,-73 195,-75 98,-4 201,30 269,101 59,61 83,139 81,222 -3,89 -38,179 -109,237 -66,53 -155,79 -240,80 -88,1 -169,-23 -238,-78 -119,-96 -163,-261 -162,-406 0,-93 18,-186 61,-270 92,-181 279,-268 480,-269 134,-1 298,25 402,113 90,-75 179,-113 314,-113 190,0 368,90 450,263zm-1462 443c0,91 45,206 155,206 106,0 154,-117 154,-206 0,-90 -46,-207 -154,-207 -108,0 -155,116 -155,207z"/>
 </g>
</svg>
