<?xml version="1.0" encoding="UTF-8"?>
<!DOCTYPE svg PUBLIC "-//W3C//DTD SVG 1.1//EN" "http://www.w3.org/Graphics/SVG/1.1/DTD/svg11.dtd">
<!-- Creator: CorelDRAW X8 -->
<svg xmlns="http://www.w3.org/2000/svg" xml:space="preserve" width="2138px" height="1486px" version="1.1" style="shape-rendering:geometricPrecision; text-rendering:geometricPrecision; image-rendering:optimizeQuality; fill-rule:evenodd; clip-rule:evenodd"
viewBox="0 0 2138 1486"
 xmlns:xlink="http://www.w3.org/1999/xlink">
 <defs>
  <style type="text/css">
   <![CDATA[
    .fil0 {fill:#996633;fill-rule:nonzero}
   ]]>
  </style>
 </defs>
 <g id="Layer_x0020_1">
  <metadata id="CorelCorpID_0Corel-Layer"/>
  <path class="fil0" d="M2060 263c55,117 80,242 78,370 -4,187 -58,366 -172,516 -190,250 -564,343 -870,337 -254,-5 -570,-79 -769,-239 -221,-179 -328,-431 -327,-710 1,-204 76,-395 248,-515 20,-15 50,-21 79,-21 22,0 45,4 63,11 23,10 39,27 39,45 0,11 -7,23 -22,34 -147,102 -203,275 -204,446 0,224 74,440 237,601 161,158 437,232 662,237 264,5 569,-91 712,-319 79,-128 119,-274 122,-424 2,-108 -16,-217 -56,-318 -43,-108 -147,-202 -270,-202 -152,0 -213,116 -213,250l0 606c0,42 -69,56 -101,56 -32,0 -101,-14 -101,-56l0 -575c0,0 0,0 0,0l0 0 0 0 0 0 0 0c-7,0 -1,0 0,0l0 0 0 -3c-1,-180 -125,-280 -301,-279 -132,1 -235,84 -292,197 -23,47 -39,98 -45,150 54,-48 122,-73 195,-75 98,-3 201,30 269,101 59,61 83,139 81,222 -3,89 -38,179 -109,237 -66,54 -155,80 -240,80 -89,1 -169,-22 -238,-78 -119,-96 -163,-261 -163,-406 0,-93 19,-186 62,-270 92,-181 279,-268 480,-269 134,-1 298,25 402,113 90,-75 179,-113 314,-113 190,0 368,90 450,263zm-1462 443c0,91 45,206 155,207 106,0 154,-118 154,-207 0,-90 -46,-207 -154,-207 -108,0 -155,116 -155,207z"/>
 </g>
</svg>
