<?xml version="1.0" encoding="UTF-8"?>
<!DOCTYPE svg PUBLIC "-//W3C//DTD SVG 1.1//EN" "http://www.w3.org/Graphics/SVG/1.1/DTD/svg11.dtd">
<!-- Creator: CorelDRAW X8 -->
<svg xmlns="http://www.w3.org/2000/svg" xml:space="preserve" width="2138px" height="1486px" version="1.1" style="shape-rendering:geometricPrecision; text-rendering:geometricPrecision; image-rendering:optimizeQuality; fill-rule:evenodd; clip-rule:evenodd"
viewBox="0 0 2138 1486"
 xmlns:xlink="http://www.w3.org/1999/xlink">
 <defs>
  <style type="text/css">
   <![CDATA[
    .fil0 {fill:#EF7F1A;fill-rule:nonzero}
   ]]>
  </style>
 </defs>
 <g id="Layer_x0020_1">
  <metadata id="CorelCorpID_0Corel-Layer"/>
  <path class="fil0" d="M1124 1486c300,0 659,-95 842,-337 115,-151 172,-329 172,-516 0,-132 -21,-250 -78,-370 -82,-173 -260,-263 -450,-263 -135,0 -224,38 -314,113 -106,-90 -264,-114 -398,-113 -201,0 -392,88 -484,269 -44,86 -61,178 -61,275 0,144 44,306 162,401 68,54 147,78 233,78 86,0 178,-25 245,-80 73,-59 109,-154 109,-246 0,-80 -24,-154 -81,-213 -64,-67 -160,-101 -253,-101 -80,0 -150,21 -211,75 7,-52 22,-103 46,-150 58,-116 162,-197 295,-197 173,0 297,100 297,279l0 578c0,41 69,55 101,55 32,0 101,-14 101,-55l0 -606c0,-134 61,-250 213,-250 122,0 227,94 270,202 43,106 55,205 55,318 0,150 -42,296 -122,424 -138,222 -432,318 -691,318l-20 0c-225,0 -501,-78 -662,-236 -162,-160 -236,-374 -236,-598 0,-174 55,-346 203,-449 15,-11 22,-22 22,-34 0,-18 -16,-36 -39,-45 -18,-8 -40,-11 -63,-11 -29,0 -58,6 -79,21 -172,120 -248,313 -248,518 0,278 108,529 328,706 198,161 514,240 768,240l28 0zm-371 -574c-110,0 -155,-115 -155,-206 0,-91 47,-207 155,-207 108,0 154,117 154,207 0,89 -48,206 -154,206z"/>
 </g>
</svg>
