<?xml version="1.0" encoding="UTF-8"?>
<!DOCTYPE svg PUBLIC "-//W3C//DTD SVG 1.1//EN" "http://www.w3.org/Graphics/SVG/1.1/DTD/svg11.dtd">
<!-- Creator: CorelDRAW X8 -->
<svg xmlns="http://www.w3.org/2000/svg" xml:space="preserve" width="1901px" height="1024px" version="1.1" style="shape-rendering:geometricPrecision; text-rendering:geometricPrecision; image-rendering:optimizeQuality; fill-rule:evenodd; clip-rule:evenodd"
viewBox="0 0 1901 1024"
 xmlns:xlink="http://www.w3.org/1999/xlink">
 <defs>
  <style type="text/css">
   <![CDATA[
    .fil0 {fill:#EF7F1A;fill-rule:nonzero}
   ]]>
  </style>
 </defs>
 <g id="Layer_x0020_1">
  <metadata id="CorelCorpID_0Corel-Layer"/>
  <path class="fil0" d="M817 1024c32,0 101,-14 101,-56l0 -574c0,-160 67,-283 242,-283 159,0 231,110 231,259 0,202 -160,459 -350,528 -24,9 -45,27 -45,46 0,44 75,56 108,56l695 0c33,0 102,-14 102,-56l0 -514c0,-117 -43,-222 -132,-301 -120,-106 -326,-128 -515,-128 -180,0 -335,34 -428,110 -88,-84 -204,-111 -324,-111 -189,0 -368,89 -450,261 -37,78 -52,165 -52,251 0,208 92,414 291,499 20,9 44,13 68,13 28,0 57,-6 79,-22 14,-10 20,-22 20,-33 0,-18 -16,-35 -40,-45 -153,-63 -215,-261 -215,-413 0,-68 9,-137 35,-200 42,-106 142,-200 264,-200 152,0 214,128 214,259l0 598c0,42 68,56 101,56zm881 -136l-397 0c159,-116 291,-315 291,-517 0,-87 -25,-176 -90,-237 35,13 67,29 95,54 71,62 101,150 101,242l0 458z"/>
 </g>
</svg>
