<?xml version="1.0" encoding="UTF-8"?>
<!DOCTYPE svg PUBLIC "-//W3C//DTD SVG 1.1//EN" "http://www.w3.org/Graphics/SVG/1.1/DTD/svg11.dtd">
<!-- Creator: CorelDRAW X8 -->
<svg xmlns="http://www.w3.org/2000/svg" xml:space="preserve" width="2260px" height="1412px" version="1.1" style="shape-rendering:geometricPrecision; text-rendering:geometricPrecision; image-rendering:optimizeQuality; fill-rule:evenodd; clip-rule:evenodd"
viewBox="0 0 2260 1412"
 xmlns:xlink="http://www.w3.org/1999/xlink">
 <defs>
  <style type="text/css">
   <![CDATA[
    .fil0 {fill:#5B5A50;fill-rule:nonzero}
   ]]>
  </style>
 </defs>
 <g id="Layer_x0020_1">
  <metadata id="CorelCorpID_0Corel-Layer"/>
  <path class="fil0" d="M2260 825c0,-128 -29,-262 -84,-378 -139,-294 -414,-447 -739,-447 -74,0 -150,10 -221,30 -64,18 -127,47 -182,84 -39,27 -22,62 16,79 41,18 105,17 142,-9 35,-24 75,-43 116,-54 41,-12 86,-18 129,-18 250,0 440,144 543,363 52,108 78,231 78,350 -2,205 -103,476 -342,476 -151,0 -212,-125 -212,-258l0 -599c0,-41 -70,-55 -102,-55 -32,0 -101,14 -101,55l0 600c0,116 -54,255 -194,255 -137,0 -190,-142 -190,-256l0 -599c0,-42 -69,-56 -102,-56 -32,0 -101,14 -101,56l0 599c0,133 -61,257 -213,257 -122,0 -221,-94 -263,-201 -27,-65 -37,-137 -35,-208 2,-147 63,-341 214,-404 38,-15 59,-49 20,-77 -41,-30 -105,-27 -150,-7 -196,86 -284,287 -287,488 -1,88 13,179 52,259 82,171 260,261 449,261 116,0 232,-36 315,-116 78,78 180,115 291,116 112,2 216,-36 294,-115 83,80 200,116 315,116 341,0 544,-255 544,-587z"/>
 </g>
</svg>
