<?xml version="1.0" encoding="UTF-8"?>
<!DOCTYPE svg PUBLIC "-//W3C//DTD SVG 1.1//EN" "http://www.w3.org/Graphics/SVG/1.1/DTD/svg11.dtd">
<!-- Creator: CorelDRAW X8 -->
<svg xmlns="http://www.w3.org/2000/svg" xml:space="preserve" width="2916px" height="1024px" version="1.1" style="shape-rendering:geometricPrecision; text-rendering:geometricPrecision; image-rendering:optimizeQuality; fill-rule:evenodd; clip-rule:evenodd"
viewBox="0 0 2916 1024"
 xmlns:xlink="http://www.w3.org/1999/xlink">
 <defs>
  <style type="text/css">
   <![CDATA[
    .fil0 {fill:#A82682;fill-rule:nonzero}
   ]]>
  </style>
 </defs>
 <g id="Layer_x0020_1">
  <metadata id="CorelCorpID_0Corel-Layer"/>
  <path class="fil0" d="M526 1006c-32,0 -101,-15 -101,-56 0,-17 14,-31 28,-39 62,-35 85,-108 85,-174 0,-96 -60,-192 -166,-192 -107,0 -169,95 -169,192 0,70 29,152 99,182 38,17 55,51 15,78 -39,27 -105,26 -147,7 -109,-50 -170,-151 -170,-268 0,-199 186,-302 371,-302 185,0 370,104 370,303 0,56 -13,110 -43,158l273 0c-101,-102 -144,-241 -146,-380 -1,-88 14,-173 52,-253 82,-172 261,-256 450,-256 117,0 226,26 316,104 74,-65 181,-97 293,-103 185,-9 383,48 501,198 27,34 48,72 63,111 12,32 21,66 26,100 74,6 149,-3 214,-43 39,-23 103,-24 143,-3 40,20 46,56 6,80 -105,64 -237,86 -359,80 -2,24 -6,50 -11,73 -42,170 -168,274 -353,274 -158,0 -316,-80 -342,-247 -30,-194 148,-293 316,-295 60,-1 115,10 169,25 -13,-40 -32,-77 -58,-109 -72,-92 -181,-137 -296,-131 -132,7 -213,90 -213,222l0 477c0,32 -45,57 -101,57 -56,0 -101,-25 -101,-57l0 -453c0,-137 -63,-249 -213,-249 -122,0 -221,88 -264,195 -26,65 -36,133 -35,203 2,149 64,328 215,391 17,7 37,21 40,40 6,43 -67,60 -99,60l-658 0zm1792 -418c7,-29 11,-62 11,-93 -51,-16 -128,-45 -187,-45 -89,1 -128,91 -116,171 11,69 64,142 140,142 84,0 136,-106 152,-175z"/>
 </g>
</svg>
