<?xml version="1.0" encoding="UTF-8"?>
<!DOCTYPE svg PUBLIC "-//W3C//DTD SVG 1.1//EN" "http://www.w3.org/Graphics/SVG/1.1/DTD/svg11.dtd">
<!-- Creator: CorelDRAW X8 -->
<svg xmlns="http://www.w3.org/2000/svg" xml:space="preserve" width="1501px" height="1405px" version="1.1" style="shape-rendering:geometricPrecision; text-rendering:geometricPrecision; image-rendering:optimizeQuality; fill-rule:evenodd; clip-rule:evenodd"
viewBox="0 0 1501 1405"
 xmlns:xlink="http://www.w3.org/1999/xlink">
 <defs>
  <style type="text/css">
   <![CDATA[
    .fil0 {fill:#996633;fill-rule:nonzero}
   ]]>
  </style>
 </defs>
 <g id="Layer_x0020_1">
  <metadata id="CorelCorpID_0Corel-Layer"/>
  <path class="fil0" d="M1062 421c24,-48 56,-123 56,-176 0,-64 -32,-134 -106,-133 -62,0 -115,47 -144,97 -20,37 -87,44 -126,37 -31,-5 -89,-30 -67,-69 67,-120 202,-176 336,-177 150,-1 308,73 309,240 1,81 -41,179 -81,248 82,52 153,111 199,197 40,74 60,161 63,244 3,99 -17,204 -66,291 -69,121 -182,185 -322,185 -125,0 -228,-52 -285,-165 -36,-73 -41,-134 -42,-207 -1,-98 23,-200 68,-288 40,-80 92,-143 143,-216 -91,-32 -195,-45 -291,-45 -124,1 -279,26 -373,113 -72,66 -116,143 -129,239 54,-49 122,-74 195,-76 98,-3 202,30 270,102 58,61 83,140 80,223 -2,90 -37,180 -108,239 -66,53 -155,80 -240,81 -89,1 -169,-23 -238,-79 -119,-96 -163,-262 -163,-408 0,-174 74,-311 216,-413 137,-99 325,-131 492,-131 118,0 240,16 354,47zm-816 664c0,92 45,208 155,208 107,0 153,-119 153,-209 0,-91 -46,-207 -154,-207 -108,0 -154,118 -154,208zm907 -470c-42,61 -82,115 -113,183 -34,74 -53,156 -52,238 0,48 4,99 19,144 14,45 50,113 106,113 67,0 121,-87 144,-140 31,-68 44,-148 42,-222 -2,-56 -13,-116 -34,-168 -25,-60 -64,-104 -112,-148z"/>
 </g>
</svg>
