<?xml version="1.0" encoding="UTF-8"?>
<!DOCTYPE svg PUBLIC "-//W3C//DTD SVG 1.1//EN" "http://www.w3.org/Graphics/SVG/1.1/DTD/svg11.dtd">
<!-- Creator: CorelDRAW X8 -->
<svg xmlns="http://www.w3.org/2000/svg" xml:space="preserve" width="2275px" height="1012px" version="1.1" style="shape-rendering:geometricPrecision; text-rendering:geometricPrecision; image-rendering:optimizeQuality; fill-rule:evenodd; clip-rule:evenodd"
viewBox="0 0 2275 1012"
 xmlns:xlink="http://www.w3.org/1999/xlink">
 <defs>
  <style type="text/css">
   <![CDATA[
    .fil0 {fill:#996633;fill-rule:nonzero}
   ]]>
  </style>
 </defs>
 <g id="Layer_x0020_1">
  <metadata id="CorelCorpID_0Corel-Layer"/>
  <path class="fil0" d="M1677 889l395 0 0 -459c0,-95 -33,-181 -100,-240 -27,-24 -60,-44 -98,-57 65,60 92,145 93,232 0,68 -15,137 -39,201 -50,128 -139,241 -251,323zm-1151 111c-31,0 -101,-14 -101,-56 0,-17 14,-31 29,-39 61,-35 85,-108 85,-174 0,-95 -60,-192 -167,-192 -107,0 -169,95 -169,192 0,70 29,152 99,182 17,8 35,21 38,40 1,16 -10,29 -23,38 -19,13 -44,20 -69,21 -28,1 -56,-4 -78,-14 -109,-50 -170,-151 -170,-268 0,-199 187,-302 372,-302 185,0 370,104 370,303 0,56 -14,110 -44,158l524 0 0 -459c0,-116 42,-220 131,-299 106,-93 255,-131 395,-131 141,0 289,37 395,131 89,78 132,183 132,299l0 514c0,42 -69,56 -102,56l-1647 0zm999 -810c-71,62 -100,148 -100,240l0 459c135,-66 247,-202 303,-338 23,-58 37,-121 38,-184 1,-82 -34,-219 -139,-220 -38,0 -74,19 -102,43z"/>
 </g>
</svg>
