<?xml version="1.0" encoding="UTF-8"?>
<!DOCTYPE svg PUBLIC "-//W3C//DTD SVG 1.1//EN" "http://www.w3.org/Graphics/SVG/1.1/DTD/svg11.dtd">
<!-- Creator: CorelDRAW X8 -->
<svg xmlns="http://www.w3.org/2000/svg" xml:space="preserve" width="2420px" height="1024px" version="1.1" style="shape-rendering:geometricPrecision; text-rendering:geometricPrecision; image-rendering:optimizeQuality; fill-rule:evenodd; clip-rule:evenodd"
viewBox="0 0 2420 1024"
 xmlns:xlink="http://www.w3.org/1999/xlink">
 <defs>
  <style type="text/css">
   <![CDATA[
    .fil0 {fill:#EF7F1A;fill-rule:nonzero}
   ]]>
  </style>
 </defs>
 <g id="Layer_x0020_1">
  <metadata id="CorelCorpID_0Corel-Layer"/>
  <path class="fil0" d="M832 1024c250,0 385,-186 395,-422 15,2 31,3 47,3 179,0 338,-125 338,-312 0,-72 -26,-143 -74,-198l225 0c-47,56 -72,126 -72,198 0,204 184,306 366,306 183,0 363,-102 363,-306 0,-129 -77,-238 -197,-284 -14,-6 -30,-8 -47,-8 -24,0 -48,6 -66,20 -10,8 -15,17 -15,25 0,16 15,30 35,38 83,32 127,124 127,209 0,120 -78,215 -200,215 -121,0 -203,-95 -203,-215 0,-80 37,-169 112,-205 22,-10 38,-22 38,-38 0,-25 -37,-44 -82,-44l-543 -2c-26,0 -81,11 -82,45 0,13 10,27 30,36 78,36 122,124 122,208 0,113 -68,209 -188,209 -14,0 -27,-3 -39,-6 -12,-97 -40,-182 -98,-262 -117,-162 -310,-234 -506,-234 -195,0 -392,67 -512,227 -74,98 -106,213 -106,334 0,172 77,329 221,431 28,20 62,32 96,32 21,0 43,-5 63,-14 23,-10 37,-26 37,-43 0,-12 -8,-24 -24,-35 -127,-83 -191,-223 -191,-371 0,-97 25,-197 80,-277 79,-117 200,-173 340,-173 127,0 240,63 314,164 34,47 58,102 72,158 -65,-21 -119,-35 -187,-35 -177,0 -361,102 -361,296 0,212 172,330 372,330zm0 -111c-108,0 -169,-128 -169,-219 0,-99 50,-185 158,-185 71,0 154,31 204,59 0,106 -52,345 -193,345z"/>
 </g>
</svg>
