<?xml version="1.0" encoding="UTF-8"?>
<!DOCTYPE svg PUBLIC "-//W3C//DTD SVG 1.1//EN" "http://www.w3.org/Graphics/SVG/1.1/DTD/svg11.dtd">
<!-- Creator: CorelDRAW X8 -->
<svg xmlns="http://www.w3.org/2000/svg" xml:space="preserve" width="2420px" height="1024px" version="1.1" style="shape-rendering:geometricPrecision; text-rendering:geometricPrecision; image-rendering:optimizeQuality; fill-rule:evenodd; clip-rule:evenodd"
viewBox="0 0 2420 1024"
 xmlns:xlink="http://www.w3.org/1999/xlink">
 <defs>
  <style type="text/css">
   <![CDATA[
    .fil0 {fill:#A82682;fill-rule:nonzero}
   ]]>
  </style>
 </defs>
 <g id="Layer_x0020_1">
  <metadata id="CorelCorpID_0Corel-Layer"/>
  <path class="fil0" d="M1124 234c58,80 86,165 98,262 14,4 29,7 45,6 115,-1 182,-100 182,-209 0,-84 -44,-172 -122,-208 -20,-9 -30,-23 -30,-36 1,-34 56,-45 82,-45l543 2c45,0 82,19 82,44 0,16 -16,28 -38,38 -75,36 -112,125 -112,205 0,120 82,215 203,215 122,0 200,-95 200,-215 0,-85 -44,-177 -127,-209 -30,-12 -50,-39 -20,-63 30,-24 79,-25 113,-12 120,47 197,155 197,284 0,204 -180,306 -363,306 -182,0 -366,-102 -366,-306 0,-72 25,-142 72,-198l-225 0c48,55 74,126 74,198 0,187 -159,312 -338,312 -16,0 -32,-1 -47,-3 -10,236 -145,422 -395,422 -200,0 -366,-122 -372,-326 -6,-190 157,-295 338,-300 73,-2 141,13 210,35 -14,-56 -38,-111 -72,-158 -75,-103 -191,-166 -320,-164 -138,1 -257,60 -334,173 -55,81 -79,178 -80,274 -1,149 63,290 191,374 39,26 26,61 -13,78 -53,24 -112,15 -159,-18 -145,-103 -223,-262 -221,-437 1,-118 34,-232 106,-328 119,-158 313,-226 508,-227 197,-1 392,71 510,234zm-99 334c-51,-28 -136,-60 -207,-59 -105,1 -155,87 -155,185 0,91 61,219 169,219 141,0 193,-239 193,-345z"/>
 </g>
</svg>
