<?xml version="1.0" encoding="UTF-8"?>
<!DOCTYPE svg PUBLIC "-//W3C//DTD SVG 1.1//EN" "http://www.w3.org/Graphics/SVG/1.1/DTD/svg11.dtd">
<!-- Creator: CorelDRAW X8 -->
<svg xmlns="http://www.w3.org/2000/svg" xml:space="preserve" width="1674px" height="1412px" version="1.1" style="shape-rendering:geometricPrecision; text-rendering:geometricPrecision; image-rendering:optimizeQuality; fill-rule:evenodd; clip-rule:evenodd"
viewBox="0 0 1674 1412"
 xmlns:xlink="http://www.w3.org/1999/xlink">
 <defs>
  <style type="text/css">
   <![CDATA[
    .fil0 {fill:#A82682;fill-rule:nonzero}
   ]]>
  </style>
 </defs>
 <g id="Layer_x0020_1">
  <metadata id="CorelCorpID_0Corel-Layer"/>
  <path class="fil0" d="M917 368l0 599c0,42 -69,56 -101,56 -33,0 -102,-14 -102,-56l0 -599c0,-132 -61,-257 -212,-257 -123,0 -222,94 -264,201 -27,65 -36,137 -35,208 2,148 64,341 215,404 37,15 58,49 19,77 -41,30 -105,27 -150,7 -196,-86 -284,-287 -287,-488 -1,-88 14,-179 52,-259 82,-171 260,-261 450,-261 114,0 231,35 314,115 83,-80 199,-115 314,-115 341,0 544,255 544,587 0,128 -29,262 -84,378 -139,294 -414,447 -739,447 -139,0 -287,-35 -403,-114 -39,-27 -23,-62 15,-79 41,-18 105,-17 143,9 72,50 157,72 245,72 249,0 440,-144 543,-363 51,-108 78,-231 77,-350 -1,-205 -102,-476 -341,-476 -153,0 -213,127 -213,257z"/>
 </g>
</svg>
