<?xml version="1.0" encoding="UTF-8"?>
<!DOCTYPE svg PUBLIC "-//W3C//DTD SVG 1.1//EN" "http://www.w3.org/Graphics/SVG/1.1/DTD/svg11.dtd">
<!-- Creator: CorelDRAW X8 -->
<svg xmlns="http://www.w3.org/2000/svg" xml:space="preserve" width="1901px" height="1024px" version="1.1" style="shape-rendering:geometricPrecision; text-rendering:geometricPrecision; image-rendering:optimizeQuality; fill-rule:evenodd; clip-rule:evenodd"
viewBox="0 0 1901 1024"
 xmlns:xlink="http://www.w3.org/1999/xlink">
 <defs>
  <style type="text/css">
   <![CDATA[
    .fil0 {fill:#996633;fill-rule:nonzero}
   ]]>
  </style>
 </defs>
 <g id="Layer_x0020_1">
  <metadata id="CorelCorpID_0Corel-Layer"/>
  <path class="fil0" d="M1769 131c89,79 132,182 132,299l0 514c0,42 -69,56 -101,56l-696 0c-33,0 -108,-12 -108,-55 0,-20 21,-38 45,-47 143,-52 249,-189 310,-340 27,-64 41,-131 40,-194 -1,-153 -81,-257 -240,-253 -166,4 -233,124 -233,283l0 574c0,42 -69,56 -102,56 -32,0 -101,-14 -101,-56l0 -598c0,-131 -61,-259 -213,-259 -123,0 -221,94 -264,200 -27,66 -36,139 -35,209 2,148 64,342 215,404 23,10 40,27 40,45 0,11 -6,22 -21,33 -21,15 -49,22 -77,22 -25,0 -49,-5 -69,-13 -199,-86 -288,-288 -291,-491 -1,-88 13,-179 52,-259 82,-172 260,-261 450,-261 120,0 236,27 324,111 93,-76 248,-110 428,-110 204,-1 414,41 515,130zm-267 3c65,59 88,145 90,230 1,66 -12,131 -36,193 -50,132 -140,247 -255,331l397 0 0 -458c0,-92 -30,-178 -101,-240 -28,-25 -60,-43 -95,-56z"/>
 </g>
</svg>
