<?xml version="1.0" encoding="UTF-8"?>
<!DOCTYPE svg PUBLIC "-//W3C//DTD SVG 1.1//EN" "http://www.w3.org/Graphics/SVG/1.1/DTD/svg11.dtd">
<!-- Creator: CorelDRAW X8 -->
<svg xmlns="http://www.w3.org/2000/svg" xml:space="preserve" width="1758px" height="1412px" version="1.1" style="shape-rendering:geometricPrecision; text-rendering:geometricPrecision; image-rendering:optimizeQuality; fill-rule:evenodd; clip-rule:evenodd"
viewBox="0 0 1758 1412"
 xmlns:xlink="http://www.w3.org/1999/xlink">
 <defs>
  <style type="text/css">
   <![CDATA[
    .fil0 {fill:#5B5A50;fill-rule:nonzero}
   ]]>
  </style>
 </defs>
 <g id="Layer_x0020_1">
  <metadata id="CorelCorpID_0Corel-Layer"/>
  <path class="fil0" d="M1340 100c-38,-16 -58,-50 -19,-78 39,-28 103,-27 146,-9 198,86 288,288 290,491 2,88 -13,178 -51,258 -82,172 -260,262 -450,262 -111,0 -231,-26 -314,-103 -59,54 -135,83 -214,95 0,6 0,11 0,16 0,232 -171,380 -398,380 -122,0 -250,-33 -323,-139 -26,-38 26,-66 58,-73 40,-8 107,-3 131,33 35,50 75,65 134,65 132,0 195,-154 195,-266 0,-6 0,-12 0,-17 -149,-27 -280,-113 -347,-253 -38,-80 -53,-170 -52,-258 3,-203 92,-405 291,-491 43,-18 107,-19 146,9 39,28 18,62 -19,78 -151,62 -213,256 -215,404 -1,70 8,142 35,208 42,106 141,201 264,201 151,0 212,-114 212,-249l0 -608c0,-42 70,-56 102,-56 32,0 101,14 101,56l0 608c0,135 62,249 213,249 122,0 221,-95 264,-201 26,-66 36,-138 35,-208 -2,-148 -64,-342 -215,-404z"/>
 </g>
</svg>
