<?xml version="1.0" encoding="UTF-8"?>
<!DOCTYPE svg PUBLIC "-//W3C//DTD SVG 1.1//EN" "http://www.w3.org/Graphics/SVG/1.1/DTD/svg11.dtd">
<!-- Creator: CorelDRAW X8 -->
<svg xmlns="http://www.w3.org/2000/svg" xml:space="preserve" width="3734px" height="1024px" version="1.1" style="shape-rendering:geometricPrecision; text-rendering:geometricPrecision; image-rendering:optimizeQuality; fill-rule:evenodd; clip-rule:evenodd"
viewBox="0 0 3734 1024"
 xmlns:xlink="http://www.w3.org/1999/xlink">
 <defs>
  <style type="text/css">
   <![CDATA[
    .fil0 {fill:#2B2A29;fill-rule:nonzero}
   ]]>
  </style>
 </defs>
 <g id="Layer_x0020_1">
  <metadata id="CorelCorpID_0Corel-Layer"/>
  <path class="fil0" d="M1165 163c-69,104 -57,238 -56,358 1,104 12,226 -52,315 -34,47 -81,77 -141,77 -131,0 -193,-143 -193,-254l0 -603c0,-42 -70,-56 -102,-56 -32,0 -101,14 -101,56l0 603c0,109 -64,248 -192,248 -52,0 -101,-29 -134,-67 -19,-23 -57,-32 -92,-32 -15,0 -30,2 -43,5 -25,6 -59,26 -59,50 0,7 3,15 10,23 78,91 200,132 319,132 106,0 213,-32 290,-105 78,77 188,111 297,111 104,0 209,-31 287,-101 123,-113 110,-250 108,-400 0,-94 -12,-202 27,-290 33,-73 93,-122 171,-122 194,0 189,278 188,412 -1,144 -11,286 104,395 78,74 186,106 292,106 104,0 210,-31 287,-101 124,-113 110,-249 109,-400 0,-95 -13,-201 26,-290 30,-68 87,-122 166,-122 63,0 113,35 146,85 60,91 49,221 47,327 0,285 54,501 389,501 154,0 285,-61 373,-186 66,-93 98,-217 98,-330 0,-208 -108,-407 -302,-494 -20,-9 -45,-14 -69,-14 -28,0 -56,7 -77,21 -16,10 -23,22 -23,34 0,17 15,34 38,44 153,67 231,251 231,409 0,97 -28,210 -84,290 -42,59 -106,115 -184,115 -188,0 -188,-259 -188,-390 2,-145 18,-291 -91,-405 -78,-82 -191,-118 -304,-118 -132,0 -265,51 -339,163 -70,104 -58,240 -56,360 1,105 11,223 -53,313 -32,47 -80,77 -140,77 -60,0 -108,-30 -140,-77 -65,-87 -56,-211 -54,-315 0,-290 -41,-521 -389,-521 -133,0 -268,46 -345,163z"/>
 </g>
</svg>
