<?xml version="1.0" encoding="UTF-8"?>
<!DOCTYPE svg PUBLIC "-//W3C//DTD SVG 1.1//EN" "http://www.w3.org/Graphics/SVG/1.1/DTD/svg11.dtd">
<!-- Creator: CorelDRAW X8 -->
<svg xmlns="http://www.w3.org/2000/svg" xml:space="preserve" width="3989px" height="1024px" version="1.1" style="shape-rendering:geometricPrecision; text-rendering:geometricPrecision; image-rendering:optimizeQuality; fill-rule:evenodd; clip-rule:evenodd"
viewBox="0 0 3989 1024"
 xmlns:xlink="http://www.w3.org/1999/xlink">
 <defs>
  <style type="text/css">
   <![CDATA[
    .fil0 {fill:#5B5A50;fill-rule:nonzero}
   ]]>
  </style>
 </defs>
 <g id="Layer_x0020_1">
  <metadata id="CorelCorpID_0Corel-Layer"/>
  <path class="fil0" d="M2825 196c-33,-50 -83,-85 -146,-85 -79,0 -136,54 -166,122 -38,86 -26,197 -26,290 0,151 17,286 -109,400 -77,70 -182,101 -286,101 -107,0 -214,-32 -292,-106 -119,-113 -106,-267 -104,-415 2,-100 11,-219 -47,-307 -33,-50 -83,-85 -146,-85 -79,0 -136,54 -166,122 -38,86 -26,197 -26,290 0,151 17,286 -109,400 -77,70 -182,101 -286,101 -109,0 -220,-34 -297,-111 -78,73 -185,105 -291,105 -118,0 -241,-41 -318,-132 -31,-36 17,-65 49,-74 41,-10 107,-6 135,27 32,38 82,68 133,68 129,0 192,-139 192,-248l0 -603c0,-42 69,-56 102,-56 32,0 101,14 101,56l0 603c0,111 62,254 194,254 59,0 107,-30 140,-77 66,-92 52,-210 52,-316 0,-121 -15,-250 56,-357 74,-112 207,-163 339,-163 113,0 226,36 304,118 105,111 94,246 91,385 -2,108 -13,242 53,333 34,47 81,77 141,77 59,0 107,-30 140,-77 66,-92 52,-210 52,-316 1,-121 -15,-250 56,-357 74,-112 207,-163 339,-163 111,0 223,35 301,115 100,-93 277,-115 405,-115 157,0 350,24 472,131 89,79 132,182 132,298l-1 515c0,42 -69,56 -101,56l-715 0c-33,0 -108,-12 -108,-55 0,-20 21,-38 45,-47 142,-52 269,-189 330,-340 26,-64 41,-131 40,-194 -1,-120 -55,-239 -193,-243 -75,-3 -144,40 -173,109 -24,58 -36,118 -36,179l0 130c0,42 -69,56 -101,56 -33,0 -102,-14 -102,-56l0 -132c0,-74 -6,-146 -49,-211zm764 -63c65,60 89,146 91,231 1,65 -13,131 -36,192 -50,133 -140,248 -255,333l397 0 0 -460c0,-91 -30,-177 -101,-239 -28,-25 -60,-44 -96,-57z"/>
 </g>
</svg>
