<?xml version="1.0" encoding="UTF-8"?>
<!DOCTYPE svg PUBLIC "-//W3C//DTD SVG 1.1//EN" "http://www.w3.org/Graphics/SVG/1.1/DTD/svg11.dtd">
<!-- Creator: CorelDRAW X8 -->
<svg xmlns="http://www.w3.org/2000/svg" xml:space="preserve" width="1880px" height="1405px" version="1.1" style="shape-rendering:geometricPrecision; text-rendering:geometricPrecision; image-rendering:optimizeQuality; fill-rule:evenodd; clip-rule:evenodd"
viewBox="0 0 1880 1405"
 xmlns:xlink="http://www.w3.org/1999/xlink">
 <defs>
  <style type="text/css">
   <![CDATA[
    .fil0 {fill:#A82682;fill-rule:nonzero}
   ]]>
  </style>
 </defs>
 <g id="Layer_x0020_1">
  <metadata id="CorelCorpID_0Corel-Layer"/>
  <path class="fil0" d="M1546 596c-46,66 -95,128 -129,201 -31,70 -49,153 -51,229 -2,50 3,104 19,152 14,44 51,115 107,115 67,0 114,-77 138,-131 27,-63 47,-149 48,-218 0,-68 -12,-136 -35,-200 -22,-57 -54,-104 -97,-148zm-501 176l0 578c0,41 -69,55 -101,55 -33,0 -101,-14 -101,-55l0 -578c0,-181 -127,-281 -301,-280 -132,1 -235,85 -292,197 -24,47 -39,99 -45,151 53,-49 121,-73 194,-76 98,-3 202,31 270,101 58,61 83,140 80,222 -2,89 -37,179 -108,237 -67,54 -155,80 -240,81 -89,0 -169,-23 -238,-79 -119,-95 -163,-260 -163,-405 0,-94 18,-187 61,-271 93,-180 280,-267 481,-269 147,-1 288,30 402,127 107,-91 216,-127 358,-127 51,0 103,5 153,16 22,-45 42,-105 42,-156 0,-62 -39,-128 -109,-129 -61,-1 -112,47 -140,97 -20,37 -87,43 -126,37 -30,-5 -89,-30 -67,-70 65,-118 201,-176 333,-176 150,0 311,76 311,241 0,77 -33,161 -69,227 92,57 160,132 202,231 32,76 48,162 48,245 0,100 -23,204 -77,291 -69,112 -178,170 -311,170 -132,0 -237,-58 -291,-179 -28,-62 -38,-133 -37,-200 1,-97 26,-198 70,-285 45,-87 106,-156 159,-237 -30,-8 -61,-13 -93,-12 -170,3 -255,116 -255,280zm-799 315c0,91 45,207 155,207 106,0 153,-118 153,-207 1,-90 -45,-206 -153,-206 -108,0 -155,116 -155,206z"/>
 </g>
</svg>
