<?xml version="1.0" encoding="UTF-8"?>
<!DOCTYPE svg PUBLIC "-//W3C//DTD SVG 1.1//EN" "http://www.w3.org/Graphics/SVG/1.1/DTD/svg11.dtd">
<!-- Creator: CorelDRAW X8 -->
<svg xmlns="http://www.w3.org/2000/svg" xml:space="preserve" width="2261px" height="1412px" version="1.1" style="shape-rendering:geometricPrecision; text-rendering:geometricPrecision; image-rendering:optimizeQuality; fill-rule:evenodd; clip-rule:evenodd"
viewBox="0 0 2261 1412"
 xmlns:xlink="http://www.w3.org/1999/xlink">
 <defs>
  <style type="text/css">
   <![CDATA[
    .fil0 {fill:#2B2A29;fill-rule:nonzero}
   ]]>
  </style>
 </defs>
 <g id="Layer_x0020_1">
  <metadata id="CorelCorpID_0Corel-Layer"/>
  <path class="fil0" d="M1448 0c-139,0 -298,35 -414,114 -16,11 -22,23 -22,34 0,18 15,35 38,45 18,8 41,12 64,12 28,0 58,-7 78,-21 75,-51 166,-74 256,-74 229,0 434,153 534,365 50,106 77,227 77,344 0,204 -99,482 -342,482 -151,0 -212,-125 -212,-257l0 -599c0,-42 -70,-56 -102,-56 -32,0 -101,14 -101,56l0 599c0,116 -54,256 -195,256 -137,0 -190,-143 -190,-257l0 -599c0,-42 -70,-56 -102,-56 -32,0 -101,14 -101,56l0 599c0,133 -61,257 -213,257 -122,0 -221,-94 -264,-200 -25,-63 -35,-132 -35,-199 0,-151 63,-350 215,-413 24,-10 40,-27 40,-45 0,-11 -6,-22 -20,-33 -21,-16 -49,-22 -77,-22 -25,0 -51,5 -73,15 -197,87 -287,292 -287,498 0,85 14,172 51,249 83,172 261,262 450,262 115,0 232,-36 315,-117 80,81 180,117 291,117 111,0 218,-38 295,-116 83,80 200,116 315,116 341,0 544,-261 544,-593 0,-128 -29,-256 -83,-372 -139,-294 -405,-447 -730,-447z"/>
 </g>
</svg>
