<?xml version="1.0" encoding="UTF-8"?>
<!DOCTYPE svg PUBLIC "-//W3C//DTD SVG 1.1//EN" "http://www.w3.org/Graphics/SVG/1.1/DTD/svg11.dtd">
<!-- Creator: CorelDRAW X8 -->
<svg xmlns="http://www.w3.org/2000/svg" xml:space="preserve" width="2917px" height="1012px" version="1.1" style="shape-rendering:geometricPrecision; text-rendering:geometricPrecision; image-rendering:optimizeQuality; fill-rule:evenodd; clip-rule:evenodd"
viewBox="0 0 2917 1012"
 xmlns:xlink="http://www.w3.org/1999/xlink">
 <defs>
  <style type="text/css">
   <![CDATA[
    .fil0 {fill:#2B2A29;fill-rule:nonzero}
   ]]>
  </style>
 </defs>
 <g id="Layer_x0020_1">
  <metadata id="CorelCorpID_0Corel-Layer"/>
  <path class="fil0" d="M239 1012c29,0 57,-7 78,-21 16,-11 23,-23 23,-34 0,-18 -15,-34 -38,-44 -70,-30 -99,-112 -99,-182 0,-97 62,-192 169,-192 106,0 166,96 166,192 0,66 -23,139 -85,174 -14,8 -28,22 -28,39 0,41 69,56 101,56l658 0c34,0 99,-15 99,-57 0,-20 -23,-36 -40,-43 -153,-64 -215,-245 -215,-399 0,-67 10,-133 35,-195 43,-107 142,-195 264,-195 151,0 214,112 214,249l0 453c0,32 45,57 101,57 56,0 101,-25 101,-57l0 -477c0,-149 92,-223 233,-223 108,0 208,45 276,132 26,32 45,69 58,109 -52,-14 -110,-25 -167,-25 -152,0 -321,83 -321,257 0,190 171,285 345,285 185,0 311,-104 353,-274 5,-23 9,-49 11,-73l39 1c110,0 226,-24 320,-81 19,-11 27,-25 27,-38 0,-16 -12,-31 -33,-42 -19,-10 -44,-15 -68,-15 -27,0 -55,6 -75,18 -53,33 -113,45 -174,45l-40 -2c-5,-34 -14,-68 -26,-100 -15,-39 -36,-77 -63,-111 -110,-140 -290,-199 -464,-199 -116,0 -240,24 -330,104 -90,-78 -199,-104 -317,-104 -189,0 -368,84 -450,256 -37,78 -52,160 -52,245 0,143 44,285 146,388l-273 0c30,-48 43,-102 43,-158 0,-199 -185,-303 -370,-303 -185,0 -371,103 -371,302 0,117 61,218 170,268 20,9 44,14 69,14zm1928 -255c-87,0 -142,-92 -142,-171 0,-71 39,-141 118,-142 59,0 136,29 187,45 0,31 -4,64 -11,93 -16,69 -68,175 -152,175z"/>
 </g>
</svg>
