<?xml version="1.0" encoding="UTF-8"?>
<!DOCTYPE svg PUBLIC "-//W3C//DTD SVG 1.1//EN" "http://www.w3.org/Graphics/SVG/1.1/DTD/svg11.dtd">
<!-- Creator: CorelDRAW X8 -->
<svg xmlns="http://www.w3.org/2000/svg" xml:space="preserve" width="1902px" height="1024px" version="1.1" style="shape-rendering:geometricPrecision; text-rendering:geometricPrecision; image-rendering:optimizeQuality; fill-rule:evenodd; clip-rule:evenodd"
viewBox="0 0 1902 1024"
 xmlns:xlink="http://www.w3.org/1999/xlink">
 <defs>
  <style type="text/css">
   <![CDATA[
    .fil0 {fill:#2B2A29;fill-rule:nonzero}
   ]]>
  </style>
 </defs>
 <g id="Layer_x0020_1">
  <metadata id="CorelCorpID_0Corel-Layer"/>
  <path class="fil0" d="M817 1024c33,0 101,-14 101,-56l0 -574c0,-159 68,-283 242,-283 159,0 232,110 232,259 0,61 -15,126 -40,188 -61,151 -168,288 -310,340 -24,9 -46,27 -46,46 0,44 76,56 108,56l696 0c33,0 102,-14 102,-56l0 -514c0,-117 -43,-220 -132,-299 -120,-106 -362,-130 -515,-130 -181,0 -335,34 -429,110 -88,-84 -204,-111 -324,-111 -189,0 -368,89 -450,261 -37,78 -52,165 -52,251 0,208 92,413 291,500 20,8 44,12 68,12 28,0 57,-6 79,-22 14,-11 20,-22 20,-33 0,-18 -16,-35 -40,-45 -153,-62 -215,-260 -215,-413 0,-68 10,-137 35,-200 43,-106 142,-200 264,-200 152,0 214,128 214,259l0 598c0,42 68,56 101,56zm882 -136l-397 0c115,-84 205,-199 255,-331 23,-60 36,-122 36,-186 0,-87 -25,-176 -90,-237 35,13 67,31 95,56 71,62 101,148 101,240l0 458z"/>
 </g>
</svg>
