<?xml version="1.0" encoding="UTF-8"?>
<!DOCTYPE svg PUBLIC "-//W3C//DTD SVG 1.1//EN" "http://www.w3.org/Graphics/SVG/1.1/DTD/svg11.dtd">
<!-- Creator: CorelDRAW X8 -->
<svg xmlns="http://www.w3.org/2000/svg" xml:space="preserve" width="2695px" height="1024px" version="1.1" style="shape-rendering:geometricPrecision; text-rendering:geometricPrecision; image-rendering:optimizeQuality; fill-rule:evenodd; clip-rule:evenodd"
viewBox="0 0 2695 1024"
 xmlns:xlink="http://www.w3.org/1999/xlink">
 <defs>
  <style type="text/css">
   <![CDATA[
    .fil0 {fill:#2B2A29;fill-rule:nonzero}
   ]]>
  </style>
 </defs>
 <g id="Layer_x0020_1">
  <metadata id="CorelCorpID_0Corel-Layer"/>
  <path class="fil0" d="M2224 1024c154,0 285,-61 373,-186 66,-93 98,-217 98,-330 0,-208 -108,-407 -302,-494 -20,-9 -45,-14 -69,-14 -28,0 -56,7 -77,21 -16,10 -23,22 -23,34 0,17 15,34 38,44 153,67 231,251 231,409 0,97 -28,210 -84,290 -42,59 -106,115 -184,115 -188,0 -188,-258 -188,-390 2,-145 18,-291 -91,-405 -78,-82 -191,-118 -304,-118 -132,0 -265,51 -339,163 -70,104 -58,240 -56,360 1,105 11,223 -53,313 -33,47 -81,77 -141,77 -59,0 -107,-30 -140,-77 -64,-87 -55,-211 -53,-315 0,-290 -41,-521 -389,-521 -154,0 -285,61 -373,186 -66,93 -98,217 -98,330 0,209 108,407 302,494 20,9 45,14 69,14 28,0 56,-7 77,-21 16,-10 23,-22 23,-34 0,-17 -15,-34 -38,-44 -152,-66 -231,-251 -231,-409 0,-97 28,-210 84,-290 42,-59 106,-115 184,-115 194,0 189,278 188,412 -1,144 -11,286 104,395 77,74 185,106 291,106 104,0 210,-31 288,-101 124,-113 110,-249 109,-400 0,-95 -13,-201 26,-290 30,-68 87,-122 166,-122 63,0 113,35 146,85 60,91 49,221 47,327 0,285 54,501 389,501z"/>
 </g>
</svg>
