<?xml version="1.0" encoding="UTF-8"?>
<!DOCTYPE svg PUBLIC "-//W3C//DTD SVG 1.1//EN" "http://www.w3.org/Graphics/SVG/1.1/DTD/svg11.dtd">
<!-- Creator: CorelDRAW X8 -->
<svg xmlns="http://www.w3.org/2000/svg" xml:space="preserve" width="2694px" height="1024px" version="1.1" style="shape-rendering:geometricPrecision; text-rendering:geometricPrecision; image-rendering:optimizeQuality; fill-rule:evenodd; clip-rule:evenodd"
viewBox="0 0 2694 1024"
 xmlns:xlink="http://www.w3.org/1999/xlink">
 <defs>
  <style type="text/css">
   <![CDATA[
    .fil0 {fill:#EF7F1A;fill-rule:nonzero}
   ]]>
  </style>
 </defs>
 <g id="Layer_x0020_1">
  <metadata id="CorelCorpID_0Corel-Layer"/>
  <path class="fil0" d="M2223 1024c114,0 215,-33 295,-100 120,-101 176,-263 176,-416 0,-208 -108,-407 -302,-494 -20,-9 -45,-14 -69,-14 -28,0 -56,7 -77,21 -15,10 -23,22 -23,34 0,17 15,34 38,44 153,67 231,250 231,409 0,113 -35,242 -113,327 -41,44 -93,78 -155,78 -64,0 -106,-30 -134,-76 -54,-87 -55,-228 -54,-315 1,-144 18,-290 -91,-404 -78,-82 -191,-118 -304,-118 -112,0 -224,37 -301,116 -111,114 -95,260 -94,406 1,106 11,224 -52,314 -33,47 -81,77 -141,77 -59,0 -106,-30 -140,-77 -64,-88 -54,-211 -53,-315 2,-290 -41,-521 -389,-521 -122,0 -229,38 -313,116 -108,101 -158,254 -158,400 0,208 108,407 302,494 20,9 45,14 69,14 28,0 56,-7 77,-21 16,-10 23,-22 23,-34 0,-17 -15,-34 -38,-44 -153,-66 -231,-251 -231,-409 0,-110 33,-236 107,-320 41,-47 96,-85 161,-85 194,0 189,277 187,411 -1,145 -11,286 105,396 77,74 185,106 291,106 104,0 210,-31 287,-101 124,-113 110,-250 109,-400 -1,-109 -17,-232 46,-328 33,-49 82,-84 146,-84 63,0 113,35 146,85 61,91 48,221 47,326 -1,170 19,314 104,404 59,62 149,98 285,98z"/>
 </g>
</svg>
