<?xml version="1.0" encoding="UTF-8"?>
<!DOCTYPE svg PUBLIC "-//W3C//DTD SVG 1.1//EN" "http://www.w3.org/Graphics/SVG/1.1/DTD/svg11.dtd">
<!-- Creator: CorelDRAW X8 -->
<svg xmlns="http://www.w3.org/2000/svg" xml:space="preserve" width="1758px" height="1412px" version="1.1" style="shape-rendering:geometricPrecision; text-rendering:geometricPrecision; image-rendering:optimizeQuality; fill-rule:evenodd; clip-rule:evenodd"
viewBox="0 0 1758 1412"
 xmlns:xlink="http://www.w3.org/1999/xlink">
 <defs>
  <style type="text/css">
   <![CDATA[
    .fil0 {fill:#EF7F1A;fill-rule:nonzero}
   ]]>
  </style>
 </defs>
 <g id="Layer_x0020_1">
  <metadata id="CorelCorpID_0Corel-Layer"/>
  <path class="fil0" d="M330 1412c177,0 309,-84 367,-224 20,-51 31,-108 31,-172 79,-12 155,-41 214,-95 83,77 203,103 314,103 190,0 368,-90 450,-262 37,-78 52,-164 52,-250 0,-208 -92,-413 -291,-499 -20,-9 -44,-13 -68,-13 -28,0 -57,7 -78,22 -15,11 -21,22 -21,33 0,18 17,35 40,44 153,63 215,261 215,414 0,67 -9,136 -35,199 -42,106 -141,201 -264,201 -151,0 -213,-114 -213,-249l0 -608c0,-42 -69,-56 -101,-56 -32,0 -102,14 -102,56l0 608c0,135 -61,249 -212,249 -123,0 -222,-95 -264,-201 -26,-63 -35,-131 -35,-198 0,-153 61,-351 215,-415 23,-9 40,-26 40,-44 0,-11 -6,-22 -21,-33 -21,-15 -50,-22 -78,-22 -24,0 -48,4 -68,13 -200,86 -291,292 -291,500 0,85 14,172 52,249 68,141 198,226 347,253 0,37 -5,77 -16,117 -25,87 -81,166 -179,166 -59,0 -100,-14 -134,-65 -19,-27 -59,-36 -96,-36 -34,0 -100,15 -100,56 0,6 2,14 7,21 73,105 201,138 323,138z"/>
 </g>
</svg>
