<?xml version="1.0" encoding="UTF-8"?>
<!DOCTYPE svg PUBLIC "-//W3C//DTD SVG 1.1//EN" "http://www.w3.org/Graphics/SVG/1.1/DTD/svg11.dtd">
<!-- Creator: CorelDRAW X8 -->
<svg xmlns="http://www.w3.org/2000/svg" xml:space="preserve" width="1824px" height="1024px" version="1.1" style="shape-rendering:geometricPrecision; text-rendering:geometricPrecision; image-rendering:optimizeQuality; fill-rule:evenodd; clip-rule:evenodd"
viewBox="0 0 1824 1024"
 xmlns:xlink="http://www.w3.org/1999/xlink">
 <defs>
  <style type="text/css">
   <![CDATA[
    .fil0 {fill:#5B5A50;fill-rule:nonzero}
   ]]>
  </style>
 </defs>
 <g id="Layer_x0020_1">
  <metadata id="CorelCorpID_0Corel-Layer"/>
  <path class="fil0" d="M1124 234c56,78 87,167 99,261 18,2 53,3 71,3 15,0 30,0 45,-1 -53,-39 -83,-97 -85,-162 -5,-155 143,-230 284,-231 140,-1 285,72 286,224 1,117 -82,192 -187,234 -109,44 -243,53 -344,48 -16,0 -49,-1 -66,-3 -12,230 -143,417 -395,417 -200,0 -366,-122 -372,-326 -5,-191 157,-295 338,-300 73,-2 141,13 210,35 -14,-56 -38,-111 -72,-158 -75,-103 -191,-166 -320,-164 -138,1 -257,60 -334,173 -55,81 -79,178 -80,274 0,148 63,290 191,374 39,26 26,61 -13,78 -53,24 -112,15 -159,-18 -145,-103 -223,-262 -221,-437 1,-118 34,-232 106,-328 119,-158 313,-226 508,-227 197,-1 391,71 510,234zm325 101c0,49 30,120 90,120 59,0 89,-71 89,-120 0,-51 -31,-120 -89,-120 -60,0 -90,71 -90,120zm-424 233c-64,-26 -149,-58 -218,-58 -99,0 -144,100 -144,184 1,91 62,219 169,219 141,0 193,-239 193,-345z"/>
 </g>
</svg>
