<?xml version="1.0" encoding="UTF-8"?>
<!DOCTYPE svg PUBLIC "-//W3C//DTD SVG 1.1//EN" "http://www.w3.org/Graphics/SVG/1.1/DTD/svg11.dtd">
<!-- Creator: CorelDRAW X8 -->
<svg xmlns="http://www.w3.org/2000/svg" xml:space="preserve" width="3732px" height="1024px" version="1.1" style="shape-rendering:geometricPrecision; text-rendering:geometricPrecision; image-rendering:optimizeQuality; fill-rule:evenodd; clip-rule:evenodd"
viewBox="0 0 3732 1024"
 xmlns:xlink="http://www.w3.org/1999/xlink">
 <defs>
  <style type="text/css">
   <![CDATA[
    .fil0 {fill:#EF7F1A;fill-rule:nonzero}
   ]]>
  </style>
 </defs>
 <g id="Layer_x0020_1">
  <metadata id="CorelCorpID_0Corel-Layer"/>
  <path class="fil0" d="M1164 163c-68,104 -57,238 -56,357 1,105 12,227 -52,316 -34,47 -81,77 -141,77 -131,0 -193,-143 -193,-254l0 -603c0,-42 -70,-56 -102,-56 -32,0 -101,14 -101,56l0 603c0,109 -64,248 -192,248 -52,0 -101,-29 -134,-67 -19,-23 -57,-32 -92,-32 -15,0 -30,2 -43,5 -25,6 -59,26 -59,50 0,7 3,15 10,23 78,91 200,132 319,132 106,0 213,-32 290,-105 78,77 188,111 297,111 104,0 210,-31 287,-101 124,-112 109,-250 108,-400 0,-94 -12,-202 27,-290 33,-73 93,-122 171,-122 84,0 131,52 157,121 34,92 32,214 31,290 -1,145 -11,286 104,396 78,74 186,106 292,106 104,0 210,-31 287,-101 124,-113 110,-250 109,-400 -1,-95 -13,-201 26,-290 29,-68 87,-122 166,-122 63,0 113,35 146,85 60,91 47,221 47,326 -1,165 17,306 97,397 58,66 150,105 292,105 115,0 218,-34 299,-104 117,-101 172,-260 172,-412 0,-208 -108,-407 -302,-494 -20,-9 -45,-14 -69,-14 -28,0 -56,7 -77,21 -16,10 -23,22 -23,34 0,17 15,34 38,44 153,67 231,250 231,409 0,114 -36,243 -115,328 -40,43 -92,77 -153,77 -66,0 -109,-32 -137,-79 -52,-87 -52,-226 -51,-312 1,-144 18,-290 -91,-404 -78,-82 -191,-118 -304,-118 -132,0 -265,51 -339,163 -69,104 -58,240 -56,359 1,106 11,224 -53,314 -33,47 -80,77 -140,77 -60,0 -107,-30 -140,-77 -64,-88 -54,-211 -54,-315 1,-139 -8,-264 -56,-357 -53,-101 -151,-164 -333,-164 -133,0 -267,46 -345,163z"/>
 </g>
</svg>
