<?xml version="1.0" encoding="UTF-8"?>
<!DOCTYPE svg PUBLIC "-//W3C//DTD SVG 1.1//EN" "http://www.w3.org/Graphics/SVG/1.1/DTD/svg11.dtd">
<!-- Creator: CorelDRAW X8 -->
<svg xmlns="http://www.w3.org/2000/svg" xml:space="preserve" width="1901px" height="1024px" version="1.1" style="shape-rendering:geometricPrecision; text-rendering:geometricPrecision; image-rendering:optimizeQuality; fill-rule:evenodd; clip-rule:evenodd"
viewBox="0 0 1901 1024"
 xmlns:xlink="http://www.w3.org/1999/xlink">
 <defs>
  <style type="text/css">
   <![CDATA[
    .fil0 {fill:#A82682;fill-rule:nonzero}
   ]]>
  </style>
 </defs>
 <g id="Layer_x0020_1">
  <metadata id="CorelCorpID_0Corel-Layer"/>
  <path class="fil0" d="M1769 131c89,79 132,182 132,299l0 514c0,42 -69,56 -102,56l-695 0c-33,0 -108,-12 -108,-56 0,-19 21,-37 45,-46 143,-52 249,-189 310,-340 26,-64 41,-131 40,-194 -2,-153 -81,-257 -240,-253 -166,4 -233,124 -233,283l0 574c0,42 -69,56 -101,56 -33,0 -101,-14 -101,-56l0 -598c0,-131 -62,-259 -214,-259 -122,0 -221,94 -264,200 -26,66 -36,139 -35,209 2,148 64,342 215,404 38,16 58,50 20,78 -40,28 -104,27 -147,9 -199,-86 -288,-288 -291,-491 -1,-88 14,-179 52,-259 82,-172 261,-261 450,-261 120,0 236,27 324,111 93,-76 248,-110 428,-110 204,-1 414,41 515,130zm-267 3c64,60 88,145 90,230 1,66 -12,131 -36,193 -50,132 -140,247 -255,331l397 0 0 -458c0,-92 -30,-178 -101,-240 -28,-25 -60,-43 -95,-56z"/>
 </g>
</svg>
