<?xml version="1.0" encoding="UTF-8"?>
<!DOCTYPE svg PUBLIC "-//W3C//DTD SVG 1.1//EN" "http://www.w3.org/Graphics/SVG/1.1/DTD/svg11.dtd">
<!-- Creator: CorelDRAW X8 -->
<svg xmlns="http://www.w3.org/2000/svg" xml:space="preserve" width="1389px" height="1405px" version="1.1" style="shape-rendering:geometricPrecision; text-rendering:geometricPrecision; image-rendering:optimizeQuality; fill-rule:evenodd; clip-rule:evenodd"
viewBox="0 0 1389 1405"
 xmlns:xlink="http://www.w3.org/1999/xlink">
 <defs>
  <style type="text/css">
   <![CDATA[
    .fil0 {fill:#A82682;fill-rule:nonzero}
   ]]>
  </style>
 </defs>
 <g id="Layer_x0020_1">
  <metadata id="CorelCorpID_0Corel-Layer"/>
  <path class="fil0" d="M223 42l501 1120 458 -1120c13,-31 75,-42 105,-42 34,0 102,12 102,56l0 1294c0,41 -70,55 -101,55 -32,0 -102,-14 -102,-55l0 -921 -380 933c-14,35 -76,43 -108,43 -32,0 -95,-9 -110,-42l-430 -958 0 961c0,32 -56,39 -79,39 -23,0 -79,-7 -79,-39l0 -1310c0,-41 79,-54 110,-56 34,-1 97,5 113,42z"/>
 </g>
</svg>
