<?xml version="1.0" encoding="UTF-8"?>
<!DOCTYPE svg PUBLIC "-//W3C//DTD SVG 1.1//EN" "http://www.w3.org/Graphics/SVG/1.1/DTD/svg11.dtd">
<!-- Creator: CorelDRAW X8 -->
<svg xmlns="http://www.w3.org/2000/svg" xml:space="preserve" width="1389px" height="1405px" version="1.1" style="shape-rendering:geometricPrecision; text-rendering:geometricPrecision; image-rendering:optimizeQuality; fill-rule:evenodd; clip-rule:evenodd"
viewBox="0 0 1389 1405"
 xmlns:xlink="http://www.w3.org/1999/xlink">
 <defs>
  <style type="text/css">
   <![CDATA[
    .fil0 {fill:#EF7F1A;fill-rule:nonzero}
   ]]>
  </style>
 </defs>
 <g id="Layer_x0020_1">
  <metadata id="CorelCorpID_0Corel-Layer"/>
  <path class="fil0" d="M1288 1405c31,0 101,-14 101,-55l0 -1294c0,-44 -68,-56 -102,-56 -30,0 -92,11 -105,42l-458 1120 -501 -1120c-16,-35 -71,-42 -106,-42 -32,0 -117,14 -117,56l0 1310c0,32 56,39 79,39 23,0 79,-7 79,-39l0 -961 430 958c15,33 78,42 110,42 32,0 94,-8 108,-43l380 -933 0 921c0,41 70,55 102,55z"/>
 </g>
</svg>
