<?xml version="1.0" encoding="UTF-8"?>
<!DOCTYPE svg PUBLIC "-//W3C//DTD SVG 1.1//EN" "http://www.w3.org/Graphics/SVG/1.1/DTD/svg11.dtd">
<!-- Creator: CorelDRAW X8 -->
<svg xmlns="http://www.w3.org/2000/svg" xml:space="preserve" width="760px" height="667px" version="1.1" style="shape-rendering:geometricPrecision; text-rendering:geometricPrecision; image-rendering:optimizeQuality; fill-rule:evenodd; clip-rule:evenodd"
viewBox="0 0 760 667"
 xmlns:xlink="http://www.w3.org/1999/xlink">
 <defs>
  <style type="text/css">
   <![CDATA[
    .fil0 {fill:#A82682;fill-rule:nonzero}
   ]]>
  </style>
 </defs>
 <g id="Layer_x0020_1">
  <metadata id="CorelCorpID_0Corel-Layer"/>
  <path class="fil0" d="M150 645c-25,24 -77,26 -109,16 -27,-8 -58,-32 -31,-58l278 -270 -278 -269c-27,-26 4,-50 31,-58 32,-10 84,-8 109,16l230 223 230 -223c25,-24 77,-26 109,-16 27,8 58,32 31,58l-278 269 278 270c27,26 -4,50 -31,58 -32,10 -84,8 -109,-16l-230 -223 -230 223z"/>
 </g>
</svg>
