<?xml version="1.0" encoding="UTF-8"?>
<!DOCTYPE svg PUBLIC "-//W3C//DTD SVG 1.1//EN" "http://www.w3.org/Graphics/SVG/1.1/DTD/svg11.dtd">
<!-- Creator: CorelDRAW X8 -->
<svg xmlns="http://www.w3.org/2000/svg" xml:space="preserve" width="760px" height="667px" version="1.1" style="shape-rendering:geometricPrecision; text-rendering:geometricPrecision; image-rendering:optimizeQuality; fill-rule:evenodd; clip-rule:evenodd"
viewBox="0 0 760 667"
 xmlns:xlink="http://www.w3.org/1999/xlink">
 <defs>
  <style type="text/css">
   <![CDATA[
    .fil0 {fill:#996633;fill-rule:nonzero}
   ]]>
  </style>
 </defs>
 <g id="Layer_x0020_1">
  <metadata id="CorelCorpID_0Corel-Layer"/>
  <path class="fil0" d="M150 645c-17,16 -47,22 -69,22 -14,0 -27,-2 -40,-6 -17,-5 -41,-17 -41,-37 0,-9 4,-16 10,-21l278 -270 -278 -269c-6,-5 -10,-12 -10,-21 0,-20 24,-32 41,-37 12,-4 26,-6 39,-6 23,0 53,6 70,22l230 223 230 -223c17,-16 47,-22 70,-22 13,0 27,2 39,6 17,5 41,17 41,37 0,8 -4,16 -10,21l-278 269 278 270c6,5 10,12 10,21 0,20 -24,32 -41,37 -12,4 -26,6 -39,6 -23,0 -53,-6 -70,-22l-230 -223 -230 223z"/>
 </g>
</svg>
