<?xml version="1.0" encoding="UTF-8"?>
<!DOCTYPE svg PUBLIC "-//W3C//DTD SVG 1.1//EN" "http://www.w3.org/Graphics/SVG/1.1/DTD/svg11.dtd">
<!-- Creator: CorelDRAW X8 -->
<svg xmlns="http://www.w3.org/2000/svg" xml:space="preserve" width="2125px" height="1405px" version="1.1" style="shape-rendering:geometricPrecision; text-rendering:geometricPrecision; image-rendering:optimizeQuality; fill-rule:evenodd; clip-rule:evenodd"
viewBox="0 0 2125 1405"
 xmlns:xlink="http://www.w3.org/1999/xlink">
 <defs>
  <style type="text/css">
   <![CDATA[
    .fil0 {fill:#996633;fill-rule:nonzero}
   ]]>
  </style>
 </defs>
 <g id="Layer_x0020_1">
  <metadata id="CorelCorpID_0Corel-Layer"/>
  <path class="fil0" d="M1017 283c-74,-107 -203,-173 -341,-171 -327,4 -477,313 -474,599 3,281 145,585 470,583 137,-2 268,-72 345,-180l0 -831zm0 1035c-104,57 -226,86 -342,87 -428,3 -673,-286 -675,-693 -2,-410 240,-706 672,-712 117,-2 240,26 345,81 4,-40 77,-57 109,-57l898 0c32,0 101,14 101,56 0,42 -69,56 -101,56l-804 0 0 510 676 0c32,0 102,14 102,56 0,42 -70,56 -102,56l-676 0 0 511 804 0c32,0 101,14 101,56 0,42 -69,56 -101,56l-898 0c-33,0 -109,-18 -109,-60l0 -3z"/>
 </g>
</svg>
