<?xml version="1.0" encoding="UTF-8"?>
<!DOCTYPE svg PUBLIC "-//W3C//DTD SVG 1.1//EN" "http://www.w3.org/Graphics/SVG/1.1/DTD/svg11.dtd">
<!-- Creator: CorelDRAW 2020 (64-Bit) -->
<svg xmlns="http://www.w3.org/2000/svg" xml:space="preserve" width="1114px" height="1405px" version="1.1" style="shape-rendering:geometricPrecision; text-rendering:geometricPrecision; image-rendering:optimizeQuality; fill-rule:evenodd; clip-rule:evenodd"
viewBox="0 0 1114 1405.001"
 xmlns:xlink="http://www.w3.org/1999/xlink"
 xmlns:xodm="http://www.corel.com/coreldraw/odm/2003">
 <defs>
  <style type="text/css">
   <![CDATA[
    .fil0 {fill:#009846;fill-rule:nonzero}
   ]]>
  </style>
 </defs>
 <g id="Layer_x0020_1">
  <metadata id="CorelCorpID_0Corel-Layer"/>
  <path class="fil0" d="M932 1405.001c20.889,0 66.001,-9.112 66.001,-37.111l0 -130.001 49.999 0c21.112,0 66,-8.888 66,-36 0,-26.889 -44.889,-36 -66,-36l-49.999 0 0 -401.111c0,-28 -45.112,-36.889 -66.001,-36.889 -21.111,0 -49.665,7.117 -62,24.889l-302 435.111c-2.889,4.163 -5.111,9.111 -5.111,14 0,27.112 45.111,36 66,36l237.111 0 0 130.001c0,27.999 44.889,37.111 66,37.111zm-66 -239.112l-176 0 176 -256 0 256zm-658 -488.777c22,0 66,-9.111 66,-36l0 -605.112c0,-27.111 -44,-36 -66,-36 -22,0 -62.088,8.876 -66,34.889 -4.977,33.098 -16.927,65.076 -40,90 -12.927,13.965 -32.853,29.372 -52.889,32 -18.522,2.43 -49.111,12.751 -49.111,35.397 0,28.137 46.527,35.32 67.111,34.603 28.851,-1.004 48.711,-5.973 76,-16.889l0 431.112c0,26.888 44,36 64.889,36zm-28 727.889c21.441,0 56.804,-5.162 68.4,-26.322l732 -1335.815c1.513,-2.759 2.711,-6.094 2.711,-9.285 0,-26.358 -49.99,-33.579 -68.889,-33.579 -21.44,0 -56.803,5.165 -68.4,26.323l-732.223 1335.814c-1.489,2.717 -2.71,6.144 -2.71,9.285 0,26.787 49.962,33.579 69.111,33.579z"/>
 </g>
</svg>
