<?xml version="1.0" encoding="UTF-8"?>
<!DOCTYPE svg PUBLIC "-//W3C//DTD SVG 1.1//EN" "http://www.w3.org/Graphics/SVG/1.1/DTD/svg11.dtd">
<!-- Creator: CorelDRAW 2020 (64-Bit) -->
<svg xmlns="http://www.w3.org/2000/svg" xml:space="preserve" width="1126px" height="1405px" version="1.1" style="shape-rendering:geometricPrecision; text-rendering:geometricPrecision; image-rendering:optimizeQuality; fill-rule:evenodd; clip-rule:evenodd"
viewBox="0 0 1126 1405.557"
 xmlns:xlink="http://www.w3.org/1999/xlink"
 xmlns:xodm="http://www.corel.com/coreldraw/odm/2003">
 <defs>
  <style type="text/css">
   <![CDATA[
    .fil0 {fill:#009846;fill-rule:nonzero}
   ]]>
  </style>
 </defs>
 <g id="Layer_x0020_1">
  <metadata id="CorelCorpID_0Corel-Layer"/>
  <g id="_1263674358896">
   <path class="fil0" d="M208.082 677.381c22.009,0 66.026,-9.115 66.026,-36.015l0 -605.351c0,-27.122 -44.017,-36.014 -66.026,-36.014 -22.008,0 -62.112,8.879 -66.026,34.903 -4.979,33.111 -16.934,65.101 -40.016,90.035 -12.932,13.97 -32.866,29.384 -52.909,32.013 -18.53,2.43 -49.131,12.756 -49.131,35.411 0,28.148 46.545,35.334 67.138,34.617 28.862,-1.005 48.73,-5.976 76.03,-16.896l0 431.282c0,26.899 44.017,36.015 64.914,36.015z"/>
   <path class="fil0" d="M891.685 1405.557c118.046,0 234.315,-69.139 234.315,-195.189 0,-70.028 -36.237,-128.051 -98.262,-160.953 49.131,-31.123 80.254,-79.142 80.254,-137.165 0,-125.161 -120.269,-184.073 -234.315,-184.073 -60.913,0 -125.233,16.56 -170.956,56.911 -39.424,34.791 -63.181,80.193 -59.135,131.163l1.112 14.006c2.217,27.937 46.018,34.903 66.915,34.903 22.009,0 64.025,-8.893 64.025,-36.015l0 -10.893c0,-30.012 8.064,-61.972 28.011,-85.145 17.179,-19.955 40.017,-32.902 67.138,-32.902 64.026,0 106.042,52.021 106.042,112.045 0,53.43 -36.302,94.763 -88.409,103.292 -10.814,1.77 -21.536,2.169 -32.75,2.75 -20.001,1.035 -60.913,10.893 -60.913,36.014 0,27.122 44.031,36.766 66.026,36.014l26.011 -0.889c67.042,-2.292 108.043,55.741 108.043,120.048 0,58.023 -37.126,124.049 -103.152,124.049 -74.919,0 -116.936,-55.133 -116.936,-125.161 0,-26.899 -44.017,-36.014 -65.137,-36.014 -20.897,0 -66.026,9.115 -66.026,36.014 0,137.166 123.16,197.19 248.099,197.19z"/>
   <path class="fil0" d="M156.252 1405.557c21.45,0 56.827,-5.164 68.428,-26.333l732.29 -1336.343c1.512,-2.761 2.711,-6.097 2.711,-9.289 0,-26.368 -50.009,-33.592 -68.916,-33.592 -21.449,0 -56.825,5.167 -68.427,26.333l-732.512 1336.343c-1.49,2.718 -2.712,6.146 -2.712,9.289 0,26.797 49.982,33.592 69.138,33.592z"/>
  </g>
 </g>
</svg>
