<?xml version="1.0" encoding="UTF-8"?>
<!DOCTYPE svg PUBLIC "-//W3C//DTD SVG 1.1//EN" "http://www.w3.org/Graphics/SVG/1.1/DTD/svg11.dtd">
<!-- Creator: CorelDRAW X8 -->
<svg xmlns="http://www.w3.org/2000/svg" xml:space="preserve" width="1123px" height="1024px" version="1.1" style="shape-rendering:geometricPrecision; text-rendering:geometricPrecision; image-rendering:optimizeQuality; fill-rule:evenodd; clip-rule:evenodd"
viewBox="0 0 1123 1024"
 xmlns:xlink="http://www.w3.org/1999/xlink">
 <defs>
  <style type="text/css">
   <![CDATA[
    .fil0 {fill:#996633;fill-rule:nonzero}
   ]]>
  </style>
 </defs>
 <g id="Layer_x0020_1">
  <metadata id="CorelCorpID_0Corel-Layer"/>
  <path class="fil0" d="M1123 512c0,321 -255,512 -561,512 -63,0 -125,-8 -185,-25 -15,19 -49,25 -71,25 -7,0 -13,-1 -20,-2 -19,-2 -58,-13 -57,-38 0,-4 1,-7 2,-11l16 -28c-162,-92 -247,-249 -247,-433 0,-321 255,-512 562,-512 62,0 124,8 184,25 15,-19 49,-25 72,-25 6,0 12,1 19,2 19,2 57,13 57,38 0,4 -1,7 -2,11l-16 28c162,92 247,249 247,433zm-817 324l390 -719c-44,-15 -89,-22 -134,-22 -239,0 -393,186 -393,417 0,122 43,242 137,324zm511 -648l-390 719c44,15 89,22 135,22 238,0 392,-186 392,-417 0,-122 -43,-242 -137,-324z"/>
 </g>
</svg>
