<?xml version="1.0" encoding="UTF-8"?>
<!DOCTYPE svg PUBLIC "-//W3C//DTD SVG 1.1//EN" "http://www.w3.org/Graphics/SVG/1.1/DTD/svg11.dtd">
<!-- Creator: CorelDRAW X8 -->
<svg xmlns="http://www.w3.org/2000/svg" xml:space="preserve" width="519px" height="1780px" version="1.1" style="shape-rendering:geometricPrecision; text-rendering:geometricPrecision; image-rendering:optimizeQuality; fill-rule:evenodd; clip-rule:evenodd"
viewBox="0 0 519 1780"
 xmlns:xlink="http://www.w3.org/1999/xlink">
 <defs>
  <style type="text/css">
   <![CDATA[
    .fil0 {fill:#996633;fill-rule:nonzero}
   ]]>
  </style>
 </defs>
 <g id="Layer_x0020_1">
  <metadata id="CorelCorpID_0Corel-Layer"/>
  <path class="fil0" d="M507 1698c7,7 12,16 12,26 0,27 -31,43 -54,49 -15,5 -31,7 -47,7 -29,0 -68,-8 -89,-30 -220,-228 -329,-552 -329,-864 0,-314 108,-626 328,-856 21,-22 61,-30 90,-30 16,0 32,2 47,6 22,7 54,23 54,50 0,10 -5,19 -12,26 -206,216 -304,510 -304,804 0,292 98,598 304,812z"/>
 </g>
</svg>
