<?xml version="1.0" encoding="UTF-8"?>
<!DOCTYPE svg PUBLIC "-//W3C//DTD SVG 1.1//EN" "http://www.w3.org/Graphics/SVG/1.1/DTD/svg11.dtd">
<!-- Creator: CorelDRAW X8 -->
<svg xmlns="http://www.w3.org/2000/svg" xml:space="preserve" width="1524px" height="1405px" version="1.1" style="shape-rendering:geometricPrecision; text-rendering:geometricPrecision; image-rendering:optimizeQuality; fill-rule:evenodd; clip-rule:evenodd"
viewBox="0 0 1524 1405"
 xmlns:xlink="http://www.w3.org/1999/xlink">
 <defs>
  <style type="text/css">
   <![CDATA[
    .fil0 {fill:#2B2A29;fill-rule:nonzero}
   ]]>
  </style>
 </defs>
 <g id="Layer_x0020_1">
  <metadata id="CorelCorpID_0Corel-Layer"/>
  <path class="fil0" d="M1176 1297c-112,0 -145,-171 -145,-253 0,-83 33,-252 145,-252 111,0 145,166 145,252 0,82 -33,253 -145,253zm0 108c216,0 348,-159 348,-360 0,-202 -132,-362 -348,-362 -215,0 -348,158 -348,359 0,207 136,363 348,363zm-828 -791c-112,0 -145,-171 -145,-253 0,-83 33,-252 145,-252 111,0 145,166 145,252 0,82 -33,253 -145,253zm0 108c216,0 348,-159 348,-360 0,-202 -132,-362 -348,-362 -215,0 -348,158 -348,359 0,207 136,363 348,363zm47 683c29,0 64,-8 77,-31l732 -1317c3,-5 4,-10 4,-14 0,-33 -53,-43 -79,-43 -29,0 -64,8 -77,31l-732 1317c-3,5 -4,10 -4,14 0,34 53,43 79,43z"/>
 </g>
</svg>
