<?xml version="1.0" encoding="UTF-8"?>
<!DOCTYPE svg PUBLIC "-//W3C//DTD SVG 1.1//EN" "http://www.w3.org/Graphics/SVG/1.1/DTD/svg11.dtd">
<!-- Creator: CorelDRAW X8 -->
<svg xmlns="http://www.w3.org/2000/svg" xml:space="preserve" width="1524px" height="1405px" version="1.1" style="shape-rendering:geometricPrecision; text-rendering:geometricPrecision; image-rendering:optimizeQuality; fill-rule:evenodd; clip-rule:evenodd"
viewBox="0 0 1524 1405"
 xmlns:xlink="http://www.w3.org/1999/xlink">
 <defs>
  <style type="text/css">
   <![CDATA[
    .fil0 {fill:#996633;fill-rule:nonzero}
   ]]>
  </style>
 </defs>
 <g id="Layer_x0020_1">
  <metadata id="CorelCorpID_0Corel-Layer"/>
  <path class="fil0" d="M472 1374c-13,23 -51,31 -75,31 -8,0 -17,-1 -25,-2 -20,-3 -56,-17 -56,-42 0,-4 1,-9 4,-13l732 -1317c13,-23 51,-31 76,-31 8,0 16,1 24,2 20,3 56,17 56,41 0,5 -1,10 -4,14l-732 1317zm704 31c-215,0 -348,-160 -348,-361 -1,-202 132,-361 348,-361 216,0 348,160 348,361 0,202 -133,361 -348,361zm0 -614c-113,1 -145,170 -145,253 0,82 33,252 145,252 112,0 145,-170 145,-252 0,-83 -33,-253 -145,-253zm-828 -69c-215,0 -347,-160 -348,-361 0,-202 132,-361 348,-361 216,0 348,160 348,362 0,201 -132,360 -348,360zm0 -613c-112,0 -145,169 -145,252 0,82 33,253 145,253 112,0 145,-171 145,-253 0,-82 -33,-252 -145,-252z"/>
 </g>
</svg>
