<?xml version="1.0" encoding="UTF-8"?>
<!DOCTYPE svg PUBLIC "-//W3C//DTD SVG 1.1//EN" "http://www.w3.org/Graphics/SVG/1.1/DTD/svg11.dtd">
<!-- Creator: CorelDRAW 2020 (64-Bit) -->
<svg xmlns="http://www.w3.org/2000/svg" xml:space="preserve" width="270.933mm" height="270.933mm" version="1.1" style="shape-rendering:geometricPrecision; text-rendering:geometricPrecision; image-rendering:optimizeQuality; fill-rule:evenodd; clip-rule:evenodd"
viewBox="0 0 27093.32 27093.32"
 xmlns:xlink="http://www.w3.org/1999/xlink"
 xmlns:xodm="http://www.corel.com/coreldraw/odm/2003">
 <defs>
  <style type="text/css">
   <![CDATA[
    .fil0 {fill:#2B2A29;fill-rule:nonzero}
   ]]>
  </style>
 </defs>
 <g id="Layer_x0020_1">
  <metadata id="CorelCorpID_0Corel-Layer"/>
  <path class="fil0" d="M13546.66 22495.45c846.67,0 2698.75,-370.42 2698.75,-1458.15l0 -8331.43 6402.92 0c852.55,0 2675.23,-370.42 2675.23,-1458.15 0,-1087.73 -1822.68,-1458.15 -2675.23,-1458.15l-6402.92 0 0 -8331.44c0,-1087.73 -1852.08,-1458.14 -2698.75,-1458.14 -846.66,0 -2698.75,370.41 -2698.75,1458.14l0 8331.44 -6402.91 0c-846.67,0 -2675.24,370.42 -2675.24,1458.15 0,1087.73 1828.57,1458.15 2675.24,1458.15l6402.91 0 0 8331.43c0,1087.73 1852.09,1458.15 2698.75,1458.15zm-9078.15 4597.87l18156.3 0c876.06,0 2698.75,-376.3 2698.75,-1458.15 0,-1087.73 -1822.71,-1458.15 -2698.75,-1458.15l-18156.3 0c-870.16,0 -2698.75,370.42 -2698.75,1458.15 0,1081.85 1828.57,1458.15 2698.75,1458.15z"/>
 </g>
</svg>
