<?xml version="1.0" encoding="UTF-8"?>
<!DOCTYPE svg PUBLIC "-//W3C//DTD SVG 1.1//EN" "http://www.w3.org/Graphics/SVG/1.1/DTD/svg11.dtd">
<!-- Creator: CorelDRAW 2020 (64-Bit) -->
<svg xmlns="http://www.w3.org/2000/svg" xml:space="preserve" width="890px" height="1024px" version="1.1" style="shape-rendering:geometricPrecision; text-rendering:geometricPrecision; image-rendering:optimizeQuality; fill-rule:evenodd; clip-rule:evenodd"
viewBox="0 0 890 1023.744"
 xmlns:xlink="http://www.w3.org/1999/xlink"
 xmlns:xodm="http://www.corel.com/coreldraw/odm/2003">
 <defs>
  <style type="text/css">
   <![CDATA[
    .fil0 {fill:#009846;fill-rule:nonzero}
   ]]>
  </style>
 </defs>
 <g id="Layer_x0020_1">
  <metadata id="CorelCorpID_0Corel-Layer"/>
  <path class="fil0" d="M445 850.01c31.992,0 101.975,-13.997 101.975,-55.098l0 -314.81 241.939 0c32.215,0 101.086,-13.996 101.086,-55.097 0,-41.101 -68.871,-55.098 -101.086,-55.098l-241.939 0 0 -314.81c0,-41.101 -69.983,-55.097 -101.975,-55.097 -31.992,0 -101.975,13.996 -101.975,55.097l0 314.81 -241.939 0c-31.992,0 -101.086,13.997 -101.086,55.098 0,41.101 69.094,55.097 101.086,55.097l241.939 0 0 314.81c0,41.101 69.983,55.098 101.975,55.098zm-343.025 173.734l686.05 0c33.103,0 101.975,-14.219 101.975,-55.097 0,-41.101 -68.873,-55.098 -101.975,-55.098l-686.05 0c-32.88,0 -101.975,13.997 -101.975,55.098 0,40.878 69.094,55.097 101.975,55.097z"/>
 </g>
</svg>
