<?xml version="1.0" encoding="UTF-8"?>
<!DOCTYPE svg PUBLIC "-//W3C//DTD SVG 1.1//EN" "http://www.w3.org/Graphics/SVG/1.1/DTD/svg11.dtd">
<!-- Creator: CorelDRAW X8 -->
<svg xmlns="http://www.w3.org/2000/svg" xml:space="preserve" width="1233px" height="1381px" version="1.1" style="shape-rendering:geometricPrecision; text-rendering:geometricPrecision; image-rendering:optimizeQuality; fill-rule:evenodd; clip-rule:evenodd"
viewBox="0 0 1233 1381"
 xmlns:xlink="http://www.w3.org/1999/xlink">
 <defs>
  <style type="text/css">
   <![CDATA[
    .fil0 {fill:#A82682;fill-rule:nonzero}
   ]]>
  </style>
 </defs>
 <g id="Layer_x0020_1">
  <metadata id="CorelCorpID_0Corel-Layer"/>
  <path class="fil0" d="M203 1325c0,42 -69,56 -102,56 -32,0 -101,-14 -101,-56l0 -1269c0,-42 69,-56 101,-56l619 0c217,0 441,140 441,371 0,190 -157,326 -336,361 75,69 119,167 160,257 47,105 105,239 215,294 39,20 46,55 7,79 -39,24 -103,24 -143,4 -152,-76 -215,-215 -276,-350 -45,-101 -111,-273 -246,-273l-339 0 0 582zm0 -1213l0 519 517 0c135,0 238,-134 238,-260 0,-126 -103,-259 -238,-259l-517 0z"/>
 </g>
</svg>
