<?xml version="1.0" encoding="UTF-8"?>
<!DOCTYPE svg PUBLIC "-//W3C//DTD SVG 1.1//EN" "http://www.w3.org/Graphics/SVG/1.1/DTD/svg11.dtd">
<!-- Creator: CorelDRAW X8 -->
<svg xmlns="http://www.w3.org/2000/svg" xml:space="preserve" width="996px" height="1381px" version="1.1" style="shape-rendering:geometricPrecision; text-rendering:geometricPrecision; image-rendering:optimizeQuality; fill-rule:evenodd; clip-rule:evenodd"
viewBox="0 0 996 1381"
 xmlns:xlink="http://www.w3.org/1999/xlink">
 <defs>
  <style type="text/css">
   <![CDATA[
    .fil0 {fill:#996633;fill-rule:nonzero}
   ]]>
  </style>
 </defs>
 <g id="Layer_x0020_1">
  <metadata id="CorelCorpID_0Corel-Layer"/>
  <path class="fil0" d="M98 112c-31,0 -98,-14 -98,-56 0,-42 67,-56 98,-56l800 0c31,0 98,14 98,56 0,42 -67,56 -98,56l-274 0c42,28 81,62 112,103 23,31 40,65 52,101l110 0c31,0 98,14 98,56 0,42 -67,56 -98,56l-99 0c-5,49 -22,94 -48,135 -94,150 -286,215 -451,236l458 500c32,35 -9,66 -41,76 -39,11 -102,8 -132,-24l-520 -569c-8,-9 -15,-18 -15,-30 0,-42 66,-56 97,-56 146,0 336,-36 421,-171 19,-29 32,-62 36,-97l-506 0c-31,0 -98,-14 -98,-56 0,-42 67,-56 98,-56l491 0c-8,-20 -19,-39 -32,-57 -82,-110 -231,-147 -360,-147l-99 0z"/>
 </g>
</svg>
