<?xml version="1.0" encoding="UTF-8"?>
<!DOCTYPE svg PUBLIC "-//W3C//DTD SVG 1.1//EN" "http://www.w3.org/Graphics/SVG/1.1/DTD/svg11.dtd">
<!-- Creator: CorelDRAW X8 -->
<svg xmlns="http://www.w3.org/2000/svg" xml:space="preserve" width="1036px" height="1381px" version="1.1" style="shape-rendering:geometricPrecision; text-rendering:geometricPrecision; image-rendering:optimizeQuality; fill-rule:evenodd; clip-rule:evenodd"
viewBox="0 0 1036 1381"
 xmlns:xlink="http://www.w3.org/1999/xlink">
 <defs>
  <style type="text/css">
   <![CDATA[
    .fil0 {fill:#996633;fill-rule:nonzero}
   ]]>
  </style>
 </defs>
 <g id="Layer_x0020_1">
  <metadata id="CorelCorpID_0Corel-Layer"/>
  <path class="fil0" d="M102 112c-33,0 -102,-14 -102,-56 0,-42 69,-56 102,-56l832 0c33,0 102,14 102,56 0,42 -69,56 -102,56l-285 0c44,28 84,62 116,103 24,31 43,65 54,101l115 0c33,0 102,14 102,56 0,42 -69,56 -102,56l-103 0c-5,49 -22,94 -49,135 -99,150 -298,215 -470,236l476 501c9,8 12,17 12,25 0,24 -30,42 -55,50 -13,4 -30,6 -48,6 -33,0 -68,-9 -88,-30l-542 -569c-7,-9 -15,-18 -15,-30 0,-42 69,-56 101,-56 152,0 349,-36 438,-171 20,-29 33,-62 37,-97l-526 0c-33,0 -102,-14 -102,-56 0,-42 69,-56 102,-56l511 0c-9,-20 -20,-39 -34,-57 -85,-110 -239,-147 -374,-147l-103 0z"/>
 </g>
</svg>
