<?xml version="1.0" encoding="UTF-8"?>
<!DOCTYPE svg PUBLIC "-//W3C//DTD SVG 1.1//EN" "http://www.w3.org/Graphics/SVG/1.1/DTD/svg11.dtd">
<!-- Creator: CorelDRAW X8 -->
<svg xmlns="http://www.w3.org/2000/svg" xml:space="preserve" width="896px" height="1024px" version="1.1" style="shape-rendering:geometricPrecision; text-rendering:geometricPrecision; image-rendering:optimizeQuality; fill-rule:evenodd; clip-rule:evenodd"
viewBox="0 0 896 1024"
 xmlns:xlink="http://www.w3.org/1999/xlink">
 <defs>
  <style type="text/css">
   <![CDATA[
    .fil0 {fill:#EF7F1A;fill-rule:nonzero}
   ]]>
  </style>
 </defs>
 <g id="Layer_x0020_1">
  <metadata id="CorelCorpID_0Corel-Layer"/>
  <path class="fil0" d="M453 1024c182,0 443,-91 443,-312 0,-96 -44,-161 -123,-211 -92,-58 -189,-69 -295,-85 -52,-8 -106,-20 -155,-39 -40,-16 -96,-46 -96,-96 0,-116 127,-170 227,-170 105,0 188,59 213,161 9,36 69,48 101,48 31,-1 101,-15 101,-54 0,-6 -1,-11 -3,-17 -48,-177 -238,-249 -411,-249 -169,0 -430,78 -430,283 0,92 50,164 125,214 92,61 195,70 302,85 51,7 107,18 155,39 41,18 87,47 87,97 0,125 -132,195 -242,195 -126,0 -217,-71 -250,-194 -9,-35 -69,-47 -101,-47 -31,0 -101,15 -101,55 0,6 2,12 4,18 59,198 252,279 449,279z"/>
 </g>
</svg>
