<?xml version="1.0" encoding="UTF-8"?>
<!DOCTYPE svg PUBLIC "-//W3C//DTD SVG 1.1//EN" "http://www.w3.org/Graphics/SVG/1.1/DTD/svg11.dtd">
<!-- Creator: CorelDRAW 2020 (64-Bit) -->
<svg xmlns="http://www.w3.org/2000/svg" xml:space="preserve" width="992px" height="1780px" version="1.1" style="shape-rendering:geometricPrecision; text-rendering:geometricPrecision; image-rendering:optimizeQuality; fill-rule:evenodd; clip-rule:evenodd"
viewBox="0 0 992 1780"
 xmlns:xlink="http://www.w3.org/1999/xlink"
 xmlns:xodm="http://www.corel.com/coreldraw/odm/2003">
 <defs>
  <style type="text/css">
   <![CDATA[
    .fil0 {fill:#009846;fill-rule:nonzero}
   ]]>
  </style>
 </defs>
 <g id="Layer_x0020_1">
  <metadata id="CorelCorpID_0Corel-Layer"/>
  <path class="fil0" d="M761.742 1073.536c17.759,-36.399 27.824,-76.33 27.824,-117.089 0,-52.804 -19.325,-100.037 -60.379,-134.585 -57.048,-48.023 -140.314,-66.166 -212.397,-79.239 -86.074,-15.609 -168.59,-24.839 -253.801,-72.918 -21.207,35.142 -33.314,75.167 -33.314,117.302 0,54.504 21.993,99.982 64.753,133.944 58.943,46.813 142.312,64.713 225.782,80.406 89.965,16.916 167.618,30.615 241.532,72.179zm-619.278 -503.163c-47.334,-57.887 -75.159,-128.858 -75.159,-205.429 0,-235.654 241.19,-364.944 455.417,-364.944 220.351,0 386.375,110.323 437.739,326.616 0.892,3.756 2.236,9.152 2.236,12.939 0,42.871 -70.851,54.733 -103.278,54.733 -35.453,0 -91.022,-10.066 -99.327,-51.133 -24.072,-119.095 -105.715,-230.657 -238.906,-230.657 -130.608,0 -250.416,112.874 -250.416,243.305 0,56.531 23.369,102.104 67.813,136.337 58.572,45.123 141.243,62.657 223.931,78.204 116.383,21.884 212.158,38.666 305.845,117.566 78.277,65.923 123.641,157.329 123.641,259.396 0,101.857 -40.225,176.801 -105.493,234.9 41.434,56.483 64.399,123.694 64.399,196.304 0,250.393 -239.74,401.49 -473.907,401.49 -239.288,0 -419.492,-133.831 -474.131,-365.598 -1.334,-5.663 -2.868,-12.847 -2.868,-18.626 0,-42.634 71.145,-54.213 103.279,-54.213 35.3,0 90.319,9.806 99.326,50.323 30.224,135.706 118.822,275.637 274.898,275.637 145.96,0 270.968,-138.612 270.968,-279.871 0,-52.804 -19.325,-100.037 -60.378,-134.586 -56.68,-47.712 -139.172,-65.897 -210.799,-78.947 -110.318,-20.099 -214.734,-29.259 -326.39,-122.582 -76.892,-64.268 -124.694,-155.02 -124.694,-255.388 0,-101.95 45.705,-173.327 116.254,-225.776z"/>
 </g>
</svg>
