<?xml version="1.0" encoding="UTF-8"?>
<!DOCTYPE svg PUBLIC "-//W3C//DTD SVG 1.1//EN" "http://www.w3.org/Graphics/SVG/1.1/DTD/svg11.dtd">
<!-- Creator: CorelDRAW 2020 (64-Bit) -->
<svg xmlns="http://www.w3.org/2000/svg" xml:space="preserve" width="262.467mm" height="470.958mm" version="1.1" style="shape-rendering:geometricPrecision; text-rendering:geometricPrecision; image-rendering:optimizeQuality; fill-rule:evenodd; clip-rule:evenodd"
viewBox="0 0 26246.66 47095.83"
 xmlns:xlink="http://www.w3.org/1999/xlink"
 xmlns:xodm="http://www.corel.com/coreldraw/odm/2003">
 <defs>
  <style type="text/css">
   <![CDATA[
    .fil0 {fill:#2B2A29;fill-rule:nonzero}
   ]]>
  </style>
 </defs>
 <g id="Layer_x0020_1">
  <metadata id="CorelCorpID_0Corel-Layer"/>
  <path class="fil0" d="M20154.41 28403.97c469.87,-963.07 736.18,-2019.58 736.18,-3097.97 0,-1397.12 -511.31,-2646.82 -1597.51,-3560.92 -1509.4,-1270.59 -3712.48,-1750.64 -5619.67,-2096.51 -2277.38,-412.99 -4460.63,-657.21 -6715.16,-1929.29 -561.11,929.79 -881.44,1988.78 -881.44,3103.62 0,1442.06 581.91,2645.34 1713.26,3543.91 1559.54,1238.6 3765.33,1712.2 5973.82,2127.43 2380.31,447.55 4434.88,810 6390.52,1909.73zm-16385.06 -13312.85c-1252.38,-1531.6 -1988.58,-3409.38 -1988.58,-5435.3 0,-6235.01 6381.49,-9655.82 12049.57,-9655.82 5830.12,0 10222.84,2918.95 11581.84,8641.71 23.6,99.38 59.18,242.16 59.18,342.36 0,1134.27 -1874.6,1448.14 -2732.58,1448.14 -938.03,0 -2408.28,-266.35 -2628.01,-1352.89 -636.92,-3151.06 -2797.05,-6102.8 -6321.06,-6102.8 -3455.68,0 -6625.6,2986.44 -6625.6,6437.42 0,1495.74 618.32,2701.52 1794.24,3607.27 1549.71,1193.88 3737.04,1657.78 5924.83,2069.14 3079.31,579 5613.35,1023.04 8092.14,3110.6 2071.08,1744.2 3271.34,4162.67 3271.34,6863.17 0,2694.98 -1064.29,4677.86 -2791.18,6215.07 1096.28,1494.45 1703.89,3272.75 1703.89,5193.89 0,6624.96 -6343.12,10622.75 -12538.77,10622.75 -6331.17,0 -11099.07,-3540.95 -12544.71,-9673.12 -35.3,-149.83 -75.89,-339.92 -75.89,-492.81 0,-1128.03 1882.38,-1434.39 2732.58,-1434.39 933.98,0 2389.71,259.44 2628,1331.47 799.69,3590.56 3143.83,7292.9 7273.36,7292.9 3861.85,0 7169.36,-3667.45 7169.36,-7404.93 0,-1397.11 -511.32,-2646.81 -1597.51,-3560.91 -1499.65,-1262.4 -3682.27,-1743.53 -5577.4,-2088.82 -2918.82,-531.78 -5681.49,-774.14 -8635.72,-3243.31 -2034.43,-1700.43 -3299.19,-4101.56 -3299.19,-6757.13 0,-2697.43 1209.26,-4585.95 3075.87,-5973.66z"/>
 </g>
</svg>
