<?xml version="1.0" encoding="UTF-8"?>
<!DOCTYPE svg PUBLIC "-//W3C//DTD SVG 1.1//EN" "http://www.w3.org/Graphics/SVG/1.1/DTD/svg11.dtd">
<!-- Creator: CorelDRAW X8 -->
<svg xmlns="http://www.w3.org/2000/svg" xml:space="preserve" width="222px" height="848px" version="1.1" style="shape-rendering:geometricPrecision; text-rendering:geometricPrecision; image-rendering:optimizeQuality; fill-rule:evenodd; clip-rule:evenodd"
viewBox="0 0 222 849"
 xmlns:xlink="http://www.w3.org/1999/xlink">
 <defs>
  <style type="text/css">
   <![CDATA[
    .fil0 {fill:#5B5A50}
   ]]>
  </style>
 </defs>
 <g id="Layer_x0020_1">
  <metadata id="CorelCorpID_0Corel-Layer"/>
  <path class="fil0" d="M103 0c53,0 102,41 102,103 0,61 -49,102 -102,102 -54,0 -103,-41 -103,-102 0,-62 49,-103 103,-103zm17 705c-6,1 -12,2 -17,2 -54,0 -103,-42 -103,-103 0,-61 49,-103 103,-103 33,0 60,12 80,31 29,27 39,63 39,101 0,36 -11,75 -29,110 -17,33 -48,73 -85,93 -19,11 -39,16 -60,12 -14,-2 -25,-12 -7,-20 22,-9 44,-34 59,-61 12,-21 20,-44 20,-62z"/>
 </g>
</svg>
