<?xml version="1.0" encoding="UTF-8"?>
<!DOCTYPE svg PUBLIC "-//W3C//DTD SVG 1.1//EN" "http://www.w3.org/Graphics/SVG/1.1/DTD/svg11.dtd">
<!-- Creator: CorelDRAW X8 -->
<svg xmlns="http://www.w3.org/2000/svg" xml:space="preserve" width="282px" height="913px" version="1.1" style="shape-rendering:geometricPrecision; text-rendering:geometricPrecision; image-rendering:optimizeQuality; fill-rule:evenodd; clip-rule:evenodd"
viewBox="0 0 282 913"
 xmlns:xlink="http://www.w3.org/1999/xlink">
 <defs>
  <style type="text/css">
   <![CDATA[
    .fil0 {fill:#996633;fill-rule:nonzero}
   ]]>
  </style>
 </defs>
 <g id="Layer_x0020_1">
  <metadata id="CorelCorpID_0Corel-Layer"/>
  <path class="fil0" d="M94 909c-9,3 -18,4 -28,4 -19,0 -45,-5 -59,-20 -4,-5 -7,-11 -7,-18 1,-18 24,-28 38,-32 34,-9 67,-43 86,-74 12,-20 20,-44 25,-66 -49,-6 -91,-47 -91,-102 0,-61 49,-103 104,-103 31,0 67,13 88,38 24,29 32,67 32,104 0,18 -2,35 -5,53 -9,50 -32,107 -66,145 -32,36 -72,60 -117,71zm66 -909c54,0 103,42 103,103 0,61 -49,102 -103,102 -53,0 -102,-41 -102,-102 0,-61 49,-103 102,-103z"/>
 </g>
</svg>
