<?xml version="1.0" encoding="UTF-8"?>
<!DOCTYPE svg PUBLIC "-//W3C//DTD SVG 1.1//EN" "http://www.w3.org/Graphics/SVG/1.1/DTD/svg11.dtd">
<!-- Creator: CorelDRAW X8 -->
<svg xmlns="http://www.w3.org/2000/svg" xml:space="preserve" width="222px" height="848px" version="1.1" style="shape-rendering:geometricPrecision; text-rendering:geometricPrecision; image-rendering:optimizeQuality; fill-rule:evenodd; clip-rule:evenodd"
viewBox="0 0 222 848"
 xmlns:xlink="http://www.w3.org/1999/xlink">
 <defs>
  <style type="text/css">
   <![CDATA[
    .fil0 {fill:#A82682}
   ]]>
  </style>
 </defs>
 <g id="Layer_x0020_1">
  <metadata id="CorelCorpID_0Corel-Layer"/>
  <path class="fil0" d="M103 0c53,0 102,41 102,102 0,61 -49,103 -102,103 -54,0 -103,-42 -103,-103 0,-61 49,-102 103,-102zm17 704c-6,1 -12,2 -17,2 -54,0 -103,-42 -103,-103 0,-61 49,-102 103,-102 33,0 60,11 80,30 28,27 39,63 39,101 0,36 -11,75 -29,110 -17,33 -48,73 -85,93 -19,10 -39,16 -60,12 -14,-2 -25,-12 -7,-20 22,-9 44,-34 59,-60 12,-22 20,-45 20,-63z"/>
 </g>
</svg>
