<?xml version="1.0" encoding="UTF-8"?>
<!DOCTYPE svg PUBLIC "-//W3C//DTD SVG 1.1//EN" "http://www.w3.org/Graphics/SVG/1.1/DTD/svg11.dtd">
<!-- Creator: CorelDRAW X8 -->
<svg xmlns="http://www.w3.org/2000/svg" xml:space="preserve" width="222px" height="848px" version="1.1" style="shape-rendering:geometricPrecision; text-rendering:geometricPrecision; image-rendering:optimizeQuality; fill-rule:evenodd; clip-rule:evenodd"
viewBox="0 0 222 848"
 xmlns:xlink="http://www.w3.org/1999/xlink">
 <defs>
  <style type="text/css">
   <![CDATA[
    .fil0 {fill:#2B2A29;fill-rule:nonzero}
   ]]>
  </style>
 </defs>
 <g id="Layer_x0020_1">
  <metadata id="CorelCorpID_0Corel-Layer"/>
  <path class="fil0" d="M103 0c-54,0 -103,41 -103,103 0,61 49,102 103,102 53,0 102,-41 102,-102 0,-62 -49,-103 -102,-103zm-41 848c16,0 31,-4 46,-12 73,-40 114,-138 114,-204 0,-67 -40,-131 -119,-131 -54,0 -103,41 -103,102 0,61 49,103 103,103 6,0 11,0 17,-2 0,40 -39,108 -79,124 -7,2 -9,6 -9,8 0,8 17,12 30,12z"/>
 </g>
</svg>
