<?xml version="1.0" encoding="UTF-8"?>
<!DOCTYPE svg PUBLIC "-//W3C//DTD SVG 1.1//EN" "http://www.w3.org/Graphics/SVG/1.1/DTD/svg11.dtd">
<!-- Creator: CorelDRAW 2020 (64-Bit) -->
<svg xmlns="http://www.w3.org/2000/svg" xml:space="preserve" width="123.825mm" height="173.302mm" version="1.1" style="shape-rendering:geometricPrecision; text-rendering:geometricPrecision; image-rendering:optimizeQuality; fill-rule:evenodd; clip-rule:evenodd"
viewBox="0 0 12382.5 17330.21"
 xmlns:xlink="http://www.w3.org/1999/xlink"
 xmlns:xodm="http://www.corel.com/coreldraw/odm/2003">
 <defs>
  <style type="text/css">
   <![CDATA[
    .fil0 {fill:#EF7F1A;fill-rule:nonzero}
   ]]>
  </style>
 </defs>
 <g id="Layer_x0020_1">
  <metadata id="CorelCorpID_0Corel-Layer"/>
  <path class="fil0" d="M2062.77 17330.21c-393.75,0 -762.89,-56.41 -1081.35,-158.94 -504.3,-162.36 -981.42,-529.79 -981.42,-953.63 0,-188.38 84.53,-368.36 293.84,-559.23l7669.27 -6993.3 -7669.27 -6999.19c-206.38,-188.35 -293.84,-370.86 -293.84,-553.35 0,-423.83 477.12,-791.27 981.42,-953.63 318.46,-102.52 687.6,-158.94 1081.35,-158.94 664.08,0 1321.79,165.89 1721.91,529.8l8303.98 7552.53c166.11,151.08 293.84,341.42 293.84,582.78 0,211.91 -142.58,415.23 -293.84,553.34l-8303.98 7581.97c-415.51,379.38 -1087.21,529.79 -1721.91,529.79z"/>
 </g>
</svg>
