<?xml version="1.0" encoding="UTF-8"?>
<!DOCTYPE svg PUBLIC "-//W3C//DTD SVG 1.1//EN" "http://www.w3.org/Graphics/SVG/1.1/DTD/svg11.dtd">
<!-- Creator: CorelDRAW 2020 (64-Bit) -->
<svg xmlns="http://www.w3.org/2000/svg" xml:space="preserve" width="468px" height="655px" version="1.1" style="shape-rendering:geometricPrecision; text-rendering:geometricPrecision; image-rendering:optimizeQuality; fill-rule:evenodd; clip-rule:evenodd"
viewBox="0 0 468 655"
 xmlns:xlink="http://www.w3.org/1999/xlink"
 xmlns:xodm="http://www.corel.com/coreldraw/odm/2003">
 <defs>
  <style type="text/css">
   <![CDATA[
    .fil0 {fill:#009846;fill-rule:nonzero}
   ]]>
  </style>
 </defs>
 <g id="Layer_x0020_1">
  <metadata id="CorelCorpID_0Corel-Layer"/>
  <path class="fil0" d="M77.963 655c-14.882,0 -28.834,-2.132 -40.87,-6.007 -19.06,-6.137 -37.093,-20.024 -37.093,-36.043 0,-7.12 3.195,-13.922 11.106,-21.136l289.862 -264.314 -289.862 -264.536c-7.8,-7.119 -11.106,-14.017 -11.106,-20.914 0,-16.019 18.033,-29.906 37.093,-36.043 12.036,-3.875 25.988,-6.007 40.87,-6.007 25.099,0 49.957,6.27 65.08,20.024l313.851 285.45c6.278,5.71 11.106,12.904 11.106,22.026 0,8.009 -5.389,15.694 -11.106,20.914l-313.851 286.563c-15.704,14.338 -41.091,20.023 -65.08,20.023z"/>
 </g>
</svg>
