<?xml version="1.0" encoding="UTF-8"?>
<!DOCTYPE svg PUBLIC "-//W3C//DTD SVG 1.1//EN" "http://www.w3.org/Graphics/SVG/1.1/DTD/svg11.dtd">
<!-- Creator: CorelDRAW 2020 (64-Bit) -->
<svg xmlns="http://www.w3.org/2000/svg" xml:space="preserve" width="207.169mm" height="66.1458mm" version="1.1" style="shape-rendering:geometricPrecision; text-rendering:geometricPrecision; image-rendering:optimizeQuality; fill-rule:evenodd; clip-rule:evenodd"
viewBox="0 0 20716.88 6614.58"
 xmlns:xlink="http://www.w3.org/1999/xlink"
 xmlns:xodm="http://www.corel.com/coreldraw/odm/2003">
 <defs>
  <style type="text/css">
   <![CDATA[
    .fil0 {fill:#EF7F1A;fill-rule:nonzero}
   ]]>
  </style>
 </defs>
 <g id="Layer_x0020_1">
  <metadata id="CorelCorpID_0Corel-Layer"/>
  <path class="fil0" d="M15086.72 6614.58c1692.35,0 3231.42,-503.86 4272.15,-1819.73 705.27,-891.73 1358.01,-2694.52 1358.01,-3808.64 0,-733.04 -1278.54,-986.21 -1840.95,-986.21 -648.05,0 -1832.96,223.26 -1911.12,928.44 -91.06,821.57 -763.62,3697.23 -1894.6,3697.23 -1097.24,0 -2438.35,-1223.41 -3236.11,-1910.51 -1875.71,-1615.51 -3380.56,-2694.52 -5964.5,-2694.52 -1644.4,0 -3081.55,475.68 -4272.15,1654.67 -997.45,987.73 -1583.87,2318.94 -1597.41,3693.11 -7.09,719.92 1283.92,1002.71 1840.95,1002.71 631.53,0 1818.35,-223.09 1911.11,-928.44 120.14,-913.45 876.83,-3453.78 2026.7,-3453.78 891.58,0 2229.78,1224.58 2860.48,1766.09 2036.74,1748.75 3628.29,2859.58 6447.44,2859.58z"/>
 </g>
</svg>
