<?xml version="1.0" encoding="UTF-8"?>
<!DOCTYPE svg PUBLIC "-//W3C//DTD SVG 1.1//EN" "http://www.w3.org/Graphics/SVG/1.1/DTD/svg11.dtd">
<!-- Creator: CorelDRAW X8 -->
<svg xmlns="http://www.w3.org/2000/svg" xml:space="preserve" width="1179px" height="1405px" version="1.1" style="shape-rendering:geometricPrecision; text-rendering:geometricPrecision; image-rendering:optimizeQuality; fill-rule:evenodd; clip-rule:evenodd"
viewBox="0 0 1179 1405"
 xmlns:xlink="http://www.w3.org/1999/xlink">
 <defs>
  <style type="text/css">
   <![CDATA[
    .fil0 {fill:#996633;fill-rule:nonzero}
   ]]>
  </style>
 </defs>
 <g id="Layer_x0020_1">
  <metadata id="CorelCorpID_0Corel-Layer"/>
  <path class="fil0" d="M1139 344c1,3 1,5 1,8 0,37 -58,53 -88,55 -34,3 -103,-7 -113,-48 -41,-164 -183,-250 -349,-247 -153,2 -351,89 -353,263 -1,81 71,130 140,160 79,33 174,52 259,60 130,14 282,36 393,107 106,67 151,165 150,288 -3,261 -299,400 -530,413 -286,17 -569,-94 -648,-387 -1,-3 -1,-6 -1,-9 0,-37 57,-52 87,-55 35,-2 104,7 115,48 54,202 217,304 426,292 160,-9 350,-125 349,-299 -1,-78 -59,-127 -126,-158 -72,-34 -160,-51 -239,-59 -127,-13 -267,-35 -381,-94 -122,-63 -194,-159 -197,-298 -5,-264 327,-380 550,-384 238,-4 494,96 555,344z"/>
 </g>
</svg>
