<?xml version="1.0" encoding="UTF-8"?>
<!DOCTYPE svg PUBLIC "-//W3C//DTD SVG 1.1//EN" "http://www.w3.org/Graphics/SVG/1.1/DTD/svg11.dtd">
<!-- Creator: CorelDRAW X8 -->
<svg xmlns="http://www.w3.org/2000/svg" xml:space="preserve" width="1179px" height="1405px" version="1.1" style="shape-rendering:geometricPrecision; text-rendering:geometricPrecision; image-rendering:optimizeQuality; fill-rule:evenodd; clip-rule:evenodd"
viewBox="0 0 1179 1405"
 xmlns:xlink="http://www.w3.org/1999/xlink">
 <defs>
  <style type="text/css">
   <![CDATA[
    .fil0 {fill:#2B2A29;fill-rule:nonzero}
   ]]>
  </style>
 </defs>
 <g id="Layer_x0020_1">
  <metadata id="CorelCorpID_0Corel-Layer"/>
  <path class="fil0" d="M593 1405c246,0 586,-122 586,-419 0,-121 -45,-218 -150,-284 -111,-71 -263,-93 -393,-107 -85,-8 -180,-27 -259,-60 -69,-30 -140,-78 -140,-158 0,-180 208,-265 361,-265 163,0 301,86 341,247 8,33 54,48 101,48 50,0 100,-19 100,-55 0,-8 -2,-13 -4,-20 -65,-234 -308,-332 -538,-332 -219,0 -564,110 -564,378 0,141 74,241 197,304 114,59 254,81 381,94 79,8 167,25 239,59 66,30 126,80 126,159 0,195 -212,299 -382,299 -193,0 -342,-102 -393,-293 -9,-32 -54,-48 -100,-48 -51,0 -102,20 -102,55 0,5 1,10 3,15 76,270 326,392 590,383z"/>
 </g>
</svg>
