<?xml version="1.0" encoding="UTF-8"?>
<!DOCTYPE svg PUBLIC "-//W3C//DTD SVG 1.1//EN" "http://www.w3.org/Graphics/SVG/1.1/DTD/svg11.dtd">
<!-- Creator: CorelDRAW X8 -->
<svg xmlns="http://www.w3.org/2000/svg" xml:space="preserve" width="759px" height="1405px" version="1.1" style="shape-rendering:geometricPrecision; text-rendering:geometricPrecision; image-rendering:optimizeQuality; fill-rule:evenodd; clip-rule:evenodd"
viewBox="0 0 759 1405"
 xmlns:xlink="http://www.w3.org/1999/xlink">
 <defs>
  <style type="text/css">
   <![CDATA[
    .fil0 {fill:#A82682;fill-rule:nonzero}
   ]]>
  </style>
 </defs>
 <g id="Layer_x0020_1">
  <metadata id="CorelCorpID_0Corel-Layer"/>
  <path class="fil0" d="M416 56l0 325 168 0c32,0 102,14 102,56 0,42 -70,56 -102,56l-168 0 0 636c0,89 32,164 134,164 24,1 49,-3 73,-8 40,-7 107,-1 130,35 29,45 -44,68 -77,74 -42,7 -84,11 -127,11 -183,-1 -336,-78 -336,-276l0 -636 -112 0c-32,0 -101,-14 -101,-56 0,-42 69,-56 101,-56l112 0 0 -325c0,-42 69,-56 102,-56 32,0 101,14 101,56z"/>
 </g>
</svg>
