<?xml version="1.0" encoding="UTF-8"?>
<!DOCTYPE svg PUBLIC "-//W3C//DTD SVG 1.1//EN" "http://www.w3.org/Graphics/SVG/1.1/DTD/svg11.dtd">
<!-- Creator: CorelDRAW 2020 (64-Bit) -->
<svg xmlns="http://www.w3.org/2000/svg" xml:space="preserve" width="1190px" height="1405px" version="1.1" style="shape-rendering:geometricPrecision; text-rendering:geometricPrecision; image-rendering:optimizeQuality; fill-rule:evenodd; clip-rule:evenodd"
viewBox="0 0 1190 1405.131"
 xmlns:xlink="http://www.w3.org/1999/xlink"
 xmlns:xodm="http://www.corel.com/coreldraw/odm/2003">
 <defs>
  <style type="text/css">
   <![CDATA[
    .fil0 {fill:#009846;fill-rule:nonzero}
   ]]>
  </style>
 </defs>
 <g id="Layer_x0020_1">
  <metadata id="CorelCorpID_0Corel-Layer"/>
  <path class="fil0" d="M260.549 1405.131c21.444,0 56.81,-5.162 68.407,-26.325l732.068 -1335.938c1.512,-2.76 2.711,-6.095 2.711,-9.286 0,-26.36 -49.995,-33.582 -68.895,-33.582 -21.443,0 -56.808,5.165 -68.407,26.325l-732.29 1335.938c-1.49,2.717 -2.711,6.144 -2.711,9.286 0,26.79 49.967,33.582 69.117,33.582zm747.434 0c20.891,0 66.006,-9.112 66.006,-37.115l0 -130.012 50.004 0c21.114,0 66.007,-8.89 66.007,-36.004 0,-26.891 -44.894,-36.003 -66.007,-36.003l-50.004 0 0 -401.148c0,-28.003 -45.115,-36.893 -66.006,-36.893 -21.113,0 -49.67,7.118 -62.006,24.891l-302.028 435.152c-2.89,4.163 -5.112,9.112 -5.112,14.001 0,27.114 45.115,36.004 66.006,36.004l237.134 0 0 130.012c0,28.002 44.893,37.115 66.006,37.115zm-66.006 -239.134l-176.017 0 176.017 -256.024 0 256.024zm-693.507 -488.822c118.011,0 234.244,-69.117 234.244,-195.129 0,-70.007 -36.226,-128.012 -98.232,-160.904 49.116,-31.114 80.23,-79.119 80.23,-137.124 0,-125.123 -120.233,-184.017 -234.244,-184.017 -60.895,0 -125.195,16.555 -170.905,56.894 -39.411,34.781 -63.161,80.168 -59.117,131.123l1.112 14.002c2.216,27.928 46.004,34.892 66.895,34.892 22.002,0 64.006,-8.89 64.006,-36.003l0 -10.89c0,-30.003 8.061,-61.954 28.002,-85.119 17.173,-19.95 40.004,-32.893 67.118,-32.893 64.006,0 106.01,52.006 106.01,112.011 0,53.414 -36.291,94.734 -88.383,103.261 -10.811,1.77 -21.529,2.168 -32.74,2.749 -19.995,1.035 -60.894,10.89 -60.894,36.003 0,27.114 44.017,36.755 66.006,36.004l26.002 -0.889c67.022,-2.292 108.01,55.723 108.01,120.011 0,58.005 -37.114,124.012 -103.12,124.012 -74.896,0 -116.9,-55.117 -116.9,-125.123 0,-26.892 -44.005,-36.004 -65.117,-36.004 -20.891,0 -66.007,9.112 -66.007,36.004 0,137.124 123.123,197.129 248.024,197.129z"/>
 </g>
</svg>
