<?xml version="1.0" encoding="UTF-8"?>
<!DOCTYPE svg PUBLIC "-//W3C//DTD SVG 1.1//EN" "http://www.w3.org/Graphics/SVG/1.1/DTD/svg11.dtd">
<!-- Creator: CorelDRAW 2020 (64-Bit) -->
<svg xmlns="http://www.w3.org/2000/svg" xml:space="preserve" width="468px" height="655px" version="1.1" style="shape-rendering:geometricPrecision; text-rendering:geometricPrecision; image-rendering:optimizeQuality; fill-rule:evenodd; clip-rule:evenodd"
viewBox="0 0 468 655"
 xmlns:xlink="http://www.w3.org/1999/xlink"
 xmlns:xodm="http://www.corel.com/coreldraw/odm/2003">
 <defs>
  <style type="text/css">
   <![CDATA[
    .fil0 {fill:#009846;fill-rule:nonzero}
   ]]>
  </style>
 </defs>
 <g id="Layer_x0020_1">
  <metadata id="CorelCorpID_0Corel-Layer"/>
  <path class="fil0" d="M390.037 655c-23.989,0 -49.376,-5.685 -65.08,-20.023l-313.851 -286.563c-5.717,-5.22 -11.106,-12.905 -11.106,-20.914 0,-9.122 4.828,-16.316 11.106,-22.026l313.851 -285.45c15.123,-13.754 39.981,-20.024 65.08,-20.024 14.882,0 28.834,2.132 40.87,6.007 19.06,6.137 37.093,20.024 37.093,36.043 0,6.897 -3.306,13.795 -11.106,20.914l-289.862 264.536 289.862 264.314c7.911,7.214 11.106,14.016 11.106,21.136 0,16.019 -18.033,29.906 -37.093,36.043 -12.036,3.875 -25.988,6.007 -40.87,6.007z"/>
 </g>
</svg>
