<?xml version="1.0" encoding="UTF-8"?>
<!DOCTYPE svg PUBLIC "-//W3C//DTD SVG 1.1//EN" "http://www.w3.org/Graphics/SVG/1.1/DTD/svg11.dtd">
<!-- Creator: CorelDRAW 2020 (64-Bit) -->
<svg xmlns="http://www.w3.org/2000/svg" xml:space="preserve" width="1165px" height="1405px" version="1.1" style="shape-rendering:geometricPrecision; text-rendering:geometricPrecision; image-rendering:optimizeQuality; fill-rule:evenodd; clip-rule:evenodd"
viewBox="0 0 1165 1405.344"
 xmlns:xlink="http://www.w3.org/1999/xlink"
 xmlns:xodm="http://www.corel.com/coreldraw/odm/2003">
 <defs>
  <style type="text/css">
   <![CDATA[
    .fil0 {fill:#009846;fill-rule:nonzero}
   ]]>
  </style>
 </defs>
 <g id="Layer_x0020_1">
  <metadata id="CorelCorpID_0Corel-Layer"/>
  <g id="_1263785902912">
   <path class="fil0" d="M208.051 699.727c22.005,0 66.016,-9.114 66.016,-36.009l0 -605.26c0,-27.117 -44.011,-36.009 -66.016,-36.009 -22.006,0 -62.104,8.878 -66.016,34.898 -4.978,33.106 -16.932,65.092 -40.01,90.022 -12.93,13.968 -32.862,29.379 -52.902,32.008 -18.526,2.43 -49.123,12.754 -49.123,35.405 0,28.144 46.538,35.329 67.128,34.612 28.858,-1.004 48.722,-5.975 76.018,-16.893l0 431.217c0,26.895 44.011,36.009 64.905,36.009z"/>
   <path class="fil0" d="M1146.963 885.687c0,-123.12 -122.246,-180.014 -232.468,-180.014 -111.335,0 -233.582,56.894 -233.582,180.014 0,62.005 31.174,110.898 85.283,142.012 -64.129,34.002 -103.319,89.118 -103.319,161.124 0,132.011 131.376,194.016 251.618,194.016 119.129,0 250.505,-62.005 250.505,-194.016 0,-72.006 -38.968,-127.122 -103.319,-161.124 54.108,-31.114 85.282,-80.007 85.282,-142.012zm-131.376 0c0,58.005 -40.08,108.009 -101.092,108.009 -62.125,0 -102.206,-50.004 -102.206,-108.009 0,-58.004 40.081,-108.008 102.206,-108.008 61.012,0 101.092,50.004 101.092,108.008zm17.146 303.136c0,68.005 -47.206,122.01 -118.238,122.01 -72.145,0 -119.351,-54.005 -119.351,-122.01 0,-69.117 47.206,-122.01 119.351,-122.01 71.032,0 118.238,52.893 118.238,122.01z"/>
   <path class="fil0" d="M156.229 1405.344c21.446,0 56.818,-5.164 68.416,-26.329l732.179 -1336.14c1.513,-2.761 2.712,-6.096 2.712,-9.288 0,-26.364 -50.002,-33.587 -68.906,-33.587 -21.445,0 -56.817,5.166 -68.416,26.329l-732.402 1336.14c-1.49,2.718 -2.711,6.145 -2.711,9.288 0,26.793 49.974,33.587 69.128,33.587z"/>
  </g>
 </g>
</svg>
