<?xml version="1.0" encoding="UTF-8"?>
<!DOCTYPE svg PUBLIC "-//W3C//DTD SVG 1.1//EN" "http://www.w3.org/Graphics/SVG/1.1/DTD/svg11.dtd">
<!-- Creator: CorelDRAW 2020 (64-Bit) -->
<svg xmlns="http://www.w3.org/2000/svg" xml:space="preserve" width="297.803mm" height="371.74mm" version="1.1" style="shape-rendering:geometricPrecision; text-rendering:geometricPrecision; image-rendering:optimizeQuality; fill-rule:evenodd; clip-rule:evenodd"
viewBox="0 0 29780.26 37173.95"
 xmlns:xlink="http://www.w3.org/1999/xlink"
 xmlns:xodm="http://www.corel.com/coreldraw/odm/2003">
 <defs>
  <style type="text/css">
   <![CDATA[
    .fil0 {fill:#2B2A29;fill-rule:nonzero}
   ]]>
  </style>
 </defs>
 <g id="Layer_x0020_1">
  <metadata id="CorelCorpID_0Corel-Layer"/>
  <g id="_1218355397104">
   <path class="fil0" d="M5503.33 17915.25c582.09,0 1746.25,-241.07 1746.25,-952.5l0 -16010.23c0,-717.31 -1164.16,-952.5 -1746.25,-952.5 -582.08,0 -1642.75,234.84 -1746.25,923.11 -131.68,875.71 -447.86,1721.8 -1058.33,2381.25 -342.03,369.47 -869.25,777.13 -1399.35,846.66 -490.06,64.28 -1299.4,337.36 -1299.4,936.54 0,744.45 1231.02,934.51 1775.65,915.55 763.35,-26.57 1288.81,-158.05 2010.83,-446.86l0 11406.49c0,711.42 1164.17,952.5 1716.85,952.5z"/>
   <path class="fil0" d="M23583.13 37173.94c3122.08,0 6197.13,-1828.57 6197.13,-5162.32 0,-1852.08 -958.38,-3386.67 -2598.8,-4256.85 1299.4,-823.15 2122.55,-2093.15 2122.55,-3627.73 0,-3310.23 -3180.88,-4868.34 -6197.13,-4868.34 -1611.02,0 -3312.15,437.98 -4521.44,1505.19 -1042.66,920.15 -1670.98,2120.92 -1563.98,3468.98l29.4 370.42c58.64,738.87 1217.08,923.1 1769.77,923.1 582.08,0 1693.33,-235.19 1693.33,-952.5l0 -288.1c0,-793.75 213.27,-1639.04 740.83,-2251.9 454.33,-527.79 1058.34,-870.19 1775.65,-870.19 1693.34,0 2804.59,1375.84 2804.59,2963.34 0,1413.1 -960.11,2506.27 -2338.24,2731.86 -286.01,46.81 -569.58,57.36 -866.16,72.72 -528.98,27.39 -1611.02,288.1 -1611.02,952.5 0,717.32 1164.51,972.39 1746.25,952.5l687.92 -23.52c1773.11,-60.62 2857.5,1474.22 2857.5,3175 0,1534.59 -981.9,3280.84 -2728.15,3280.84 -1981.44,0 -3092.69,-1458.15 -3092.69,-3310.24 0,-711.43 -1164.17,-952.5 -1722.73,-952.5 -552.69,0 -1746.25,241.07 -1746.25,952.5 0,3627.74 3257.31,5215.24 6561.67,5215.24z"/>
   <path class="fil0" d="M4132.54 37173.95c567.3,0 1502.94,-136.58 1809.75,-696.45l19367.49 -35343.38c40.01,-73.02 71.72,-161.25 71.72,-245.68 0,-697.38 -1322.65,-888.44 -1822.68,-888.44 -567.28,0 -1502.91,136.65 -1809.75,696.45l-19373.37 35343.39c-39.41,71.89 -71.72,162.55 -71.72,245.67 0,708.74 1321.91,888.44 1828.56,888.44z"/>
  </g>
 </g>
</svg>
