<?xml version="1.0" encoding="UTF-8"?>
<!DOCTYPE svg PUBLIC "-//W3C//DTD SVG 1.1//EN" "http://www.w3.org/Graphics/SVG/1.1/DTD/svg11.dtd">
<!-- Creator: CorelDRAW 2020 (64-Bit) -->
<svg xmlns="http://www.w3.org/2000/svg" xml:space="preserve" width="1258px" height="1405px" version="1.1" style="shape-rendering:geometricPrecision; text-rendering:geometricPrecision; image-rendering:optimizeQuality; fill-rule:evenodd; clip-rule:evenodd"
viewBox="0 0 1258 1405.001"
 xmlns:xlink="http://www.w3.org/1999/xlink"
 xmlns:xodm="http://www.corel.com/coreldraw/odm/2003">
 <defs>
  <style type="text/css">
   <![CDATA[
    .fil0 {fill:#009846;fill-rule:nonzero}
   ]]>
  </style>
 </defs>
 <g id="Layer_x0020_1">
  <metadata id="CorelCorpID_0Corel-Layer"/>
  <path class="fil0" d="M1023.778 1405.001c118,0 234.222,-69.112 234.222,-195.112 0,-70 -36.222,-128 -98.222,-160.889 49.111,-31.111 80.222,-79.111 80.222,-137.111 0,-125.111 -120.222,-184 -234.222,-184 -60.889,0 -125.184,16.553 -170.889,56.889 -39.408,34.777 -63.155,80.161 -59.111,131.111l1.111 14c2.216,27.926 46,34.889 66.889,34.889 22,0 64,-8.889 64,-36l0 -10.889c0,-30 8.06,-61.948 28,-85.111 17.171,-19.948 40,-32.889 67.111,-32.889 64,0 106,52 106,112 0,53.409 -36.287,94.725 -88.374,103.252 -10.81,1.769 -21.528,2.168 -32.737,2.748 -19.993,1.035 -60.889,10.889 -60.889,36 0,27.111 44.013,36.752 66,36l26 -0.889c67.015,-2.291 108,55.719 108,120 0,58.001 -37.111,124.001 -103.111,124.001 -74.889,0 -116.889,-55.112 -116.889,-125.112 0,-26.889 -44,-36 -65.111,-36 -20.889,0 -66,9.111 -66,36 0,137.112 123.111,197.112 248,197.112z"/>
  <path class="fil0" d="M288.469 1405.001c21.441,0 56.804,-5.162 68.4,-26.322l732 -1335.815c1.513,-2.759 2.711,-6.094 2.711,-9.285 0,-26.358 -49.99,-33.579 -68.889,-33.579 -21.44,0 -56.803,5.165 -68.4,26.323l-732.222 1335.814c-1.49,2.717 -2.711,6.144 -2.711,9.285 0,26.787 49.962,33.579 69.111,33.579z"/>
  <path class="fil0" d="M410 653.112c21.111,0 65.112,-9.111 65.112,-36 0,-26 -44.001,-35.112 -65.112,-35.112l-278.889 0c2.889,-30 8.504,-61.683 24,-86.888 21.398,-34.804 60.869,-52.041 96,-69.112 98.869,-48.041 227.111,-110.888 227.111,-231.111 0,-127.697 -120.701,-194.889 -236.222,-194.889 -48,0 -96.878,8.91 -140,32 -53.989,28.909 -99,92 -99,154.889 0,7.659 0.565,14.223 1.554,19.824 4.914,27.832 50.57,32.176 65.446,32.176 21.111,0 64,-8.889 64,-34.889 0,-45.111 13.328,-87.724 44,-112 16.22,-12.837 37.111,-21.111 64,-21.111 63.209,0 105.111,63.345 105.111,122 0,94 -107.166,143.002 -182,180.222 -52.054,25.891 -101.322,46.76 -133.111,98.89 -26.211,42.982 -32,96 -32,145.111 0,26.889 44,36 65.111,36l344.889 0z"/>
 </g>
</svg>
