<?xml version="1.0" encoding="UTF-8"?>
<!DOCTYPE svg PUBLIC "-//W3C//DTD SVG 1.1//EN" "http://www.w3.org/Graphics/SVG/1.1/DTD/svg11.dtd">
<!-- Creator: CorelDRAW 2020 (64-Bit) -->
<svg xmlns="http://www.w3.org/2000/svg" xml:space="preserve" width="336.432mm" height="371.74mm" version="1.1" style="shape-rendering:geometricPrecision; text-rendering:geometricPrecision; image-rendering:optimizeQuality; fill-rule:evenodd; clip-rule:evenodd"
viewBox="0 0 33643.2 37173.97"
 xmlns:xlink="http://www.w3.org/1999/xlink"
 xmlns:xodm="http://www.corel.com/coreldraw/odm/2003">
 <defs>
  <style type="text/css">
   <![CDATA[
    .fil0 {fill:#2B2A29;fill-rule:nonzero}
   ]]>
  </style>
 </defs>
 <g id="Layer_x0020_1">
  <metadata id="CorelCorpID_0Corel-Layer"/>
  <g id="_1255833908272">
   <path class="fil0" d="M33166.11 24021.91c0,-3256.77 -3233.65,-4761.72 -6149.23,-4761.72 -2945.03,0 -6178.68,1504.95 -6178.68,4761.72 0,1640.15 824.62,2933.46 2255.9,3756.47 -1696.34,899.43 -2732.99,2357.34 -2732.99,4262.03 0,3491.93 3475.13,5132.08 6655.77,5132.08 3151.18,0 6626.32,-1640.15 6626.32,-5132.08 0,-1904.69 -1030.77,-3362.6 -2732.99,-4262.03 1431.28,-823.01 2255.9,-2116.32 2255.9,-3756.47zm-3475.15 0c0,1534.34 -1060.21,2857.03 -2674.08,2857.03 -1643.33,0 -2703.54,-1322.69 -2703.54,-2857.03 0,-1534.33 1060.21,-2857.03 2703.54,-2857.03 1613.87,0 2674.08,1322.7 2674.08,2857.03zm453.54 8018.5c0,1798.87 -1248.7,3227.39 -3127.62,3227.39 -1908.38,0 -3157.07,-1428.52 -3157.07,-3227.39 0,-1828.27 1248.69,-3227.39 3157.07,-3227.39 1878.92,0 3127.62,1399.12 3127.62,3227.39z"/>
   <path class="fil0" d="M12835.24 11935.67c0,-3624.37 -3040.69,-5691.48 -6432.31,-5691.48 -687.92,0 -1375.84,76.44 -2034.36,235.19l582.09 -4286.25 5609.17 0c552.68,0 1722.73,-235.19 1722.73,-923.11 0,-717.31 -1170.07,-952.5 -1722.73,-952.5l-7226.07 0c-552.67,0 -1627.28,232.82 -1716.85,899.59l-1065.17 7928.35c-11.69,87.08 -29.36,183.35 -29.36,270.75 0,754.49 1222.65,887.94 1835.36,902.56 605.41,14.44 1184.61,-184.3 1587.5,-793.75 526.08,-795.78 1428.75,-1399.35 2457.69,-1399.35 1932.41,0 2992.73,2108.33 2992.73,3810 0,1716.85 -1064.14,3767.27 -3045.65,3780.6 -1511.03,10.16 -2610.23,-1294.99 -2933.94,-2645.83 -152.53,-636.51 -1193.56,-793.75 -1722.73,-793.75 -529.16,0 -1693.54,264.6 -1693.33,928.98 0.1,333.53 353.86,1106.31 532.65,1427.7 1104.47,1985.36 3432.26,2964.39 5817.35,2964.39 3420.09,0 6485.23,-1969.06 6485.23,-5662.09z"/>
   <path class="fil0" d="M6925.38 37173.97c567.3,0 1502.94,-136.57 1809.75,-696.44l19367.51 -35343.42c40.01,-73.01 71.72,-161.24 71.72,-245.67 0,-697.38 -1322.65,-888.44 -1822.68,-888.44 -567.28,0 -1502.91,136.65 -1809.75,696.44l-19373.39 35343.43c-39.41,71.89 -71.72,162.54 -71.72,245.66 0,708.74 1321.91,888.44 1828.56,888.44z"/>
  </g>
 </g>
</svg>
