<?xml version="1.0" encoding="UTF-8"?>
<!DOCTYPE svg PUBLIC "-//W3C//DTD SVG 1.1//EN" "http://www.w3.org/Graphics/SVG/1.1/DTD/svg11.dtd">
<!-- Creator: CorelDRAW 2020 (64-Bit) -->
<svg xmlns="http://www.w3.org/2000/svg" xml:space="preserve" width="1145px" height="1405px" version="1.1" style="shape-rendering:geometricPrecision; text-rendering:geometricPrecision; image-rendering:optimizeQuality; fill-rule:evenodd; clip-rule:evenodd"
viewBox="0 0 1145 1405.001"
 xmlns:xlink="http://www.w3.org/1999/xlink"
 xmlns:xodm="http://www.corel.com/coreldraw/odm/2003">
 <defs>
  <style type="text/css">
   <![CDATA[
    .fil0 {fill:#009846;fill-rule:nonzero}
   ]]>
  </style>
 </defs>
 <g id="Layer_x0020_1">
  <metadata id="CorelCorpID_0Corel-Layer"/>
  <path class="fil0" d="M208 677.112c22,0 66,-9.112 66,-36l0 -605.112c0,-27.111 -44,-36 -66,-36 -22,0 -62.088,8.876 -66,34.889 -4.977,33.098 -16.927,65.076 -40,90 -12.927,13.964 -32.854,29.372 -52.889,32 -18.522,2.429 -49.111,12.751 -49.111,35.397 0,28.137 46.527,35.32 67.111,34.603 28.851,-1.004 48.711,-5.973 76,-16.889l0 431.112c0,26.888 44,36 64.889,36zm868.778 715.888c21.111,0 65.111,-9.111 65.111,-36 0,-26 -44,-35.111 -65.111,-35.111l-278.889 0c2.889,-30 8.503,-61.684 24,-86.889 21.397,-34.803 60.869,-52.041 96,-69.111 98.869,-48.041 227.111,-110.889 227.111,-231.111 0,-127.698 -120.702,-194.889 -236.222,-194.889 -48,0 -96.878,8.909 -140,32 -53.989,28.909 -99,92 -99,154.889 0,7.658 0.565,14.222 1.554,19.824 4.914,27.831 50.57,32.176 65.446,32.176 21.111,0 64,-8.889 64,-34.889 0,-45.111 13.327,-87.724 44,-112 16.22,-12.838 37.111,-21.111 64,-21.111 63.208,0 105.111,63.344 105.111,122 0,94 -107.166,143.001 -182,180.222 -52.055,25.89 -101.322,46.76 -133.111,98.889 -26.212,42.983 -32,96 -32,145.111 0,26.889 44,36 65.111,36l344.889 0zm-910.803 12.001c21.442,0 56.804,-5.162 68.4,-26.323l732.001 -1335.814c1.512,-2.759 2.71,-6.094 2.71,-9.285 0,-26.358 -49.99,-33.579 -68.888,-33.579 -21.441,0 -56.803,5.165 -68.4,26.323l-732.223 1335.814c-1.489,2.717 -2.711,6.143 -2.711,9.285 0,26.787 49.962,33.579 69.111,33.579z"/>
 </g>
</svg>
