<?xml version="1.0" encoding="UTF-8"?>
<!DOCTYPE svg PUBLIC "-//W3C//DTD SVG 1.1//EN" "http://www.w3.org/Graphics/SVG/1.1/DTD/svg11.dtd">
<!-- Creator: CorelDRAW X8 -->
<svg xmlns="http://www.w3.org/2000/svg" xml:space="preserve" width="1326px" height="1405px" version="1.1" style="shape-rendering:geometricPrecision; text-rendering:geometricPrecision; image-rendering:optimizeQuality; fill-rule:evenodd; clip-rule:evenodd"
viewBox="0 0 1326 1405"
 xmlns:xlink="http://www.w3.org/1999/xlink">
 <defs>
  <style type="text/css">
   <![CDATA[
    .fil0 {fill:#996633;fill-rule:nonzero}
   ]]>
  </style>
 </defs>
 <g id="Layer_x0020_1">
  <metadata id="CorelCorpID_0Corel-Layer"/>
  <path class="fil0" d="M2 64c-1,-3 -2,-7 -2,-10 -1,-35 57,-50 85,-53 6,-1 13,-1 20,-1 32,0 90,10 104,42l478 1121 483 -1131c11,-25 54,-32 78,-32 5,0 10,0 15,1 20,2 63,13 63,39 0,3 0,5 -1,8l-561 1313c-15,35 -72,44 -106,44 -31,0 -88,-9 -102,-42l-554 -1299z"/>
 </g>
</svg>
