<?xml version="1.0" encoding="UTF-8"?>
<!DOCTYPE svg PUBLIC "-//W3C//DTD SVG 1.1//EN" "http://www.w3.org/Graphics/SVG/1.1/DTD/svg11.dtd">
<!-- Creator: CorelDRAW X8 -->
<svg xmlns="http://www.w3.org/2000/svg" xml:space="preserve" width="1591px" height="1024px" version="1.1" style="shape-rendering:geometricPrecision; text-rendering:geometricPrecision; image-rendering:optimizeQuality; fill-rule:evenodd; clip-rule:evenodd"
viewBox="0 0 1591 1024"
 xmlns:xlink="http://www.w3.org/1999/xlink">
 <defs>
  <style type="text/css">
   <![CDATA[
    .fil0 {fill:#A82682;fill-rule:nonzero}
   ]]>
  </style>
 </defs>
 <g id="Layer_x0020_1">
  <metadata id="CorelCorpID_0Corel-Layer"/>
  <path class="fil0" d="M2 64c-16,-41 55,-60 84,-63 37,-3 109,5 124,42l287 708 222 -705c11,-36 76,-45 108,-45 32,0 93,9 104,45l214 703 290 -717c11,-28 64,-34 92,-31 21,2 75,16 62,47l-376 931c-14,35 -75,45 -109,45 -32,0 -93,-9 -104,-45l-203 -671 -212 669c-11,37 -74,47 -107,47 -33,0 -90,-9 -104,-43l-372 -917z"/>
 </g>
</svg>
