<?xml version="1.0" encoding="UTF-8"?>
<!DOCTYPE svg PUBLIC "-//W3C//DTD SVG 1.1//EN" "http://www.w3.org/Graphics/SVG/1.1/DTD/svg11.dtd">
<!-- Creator: CorelDRAW X8 -->
<svg xmlns="http://www.w3.org/2000/svg" xml:space="preserve" width="1591px" height="1024px" version="1.1" style="shape-rendering:geometricPrecision; text-rendering:geometricPrecision; image-rendering:optimizeQuality; fill-rule:evenodd; clip-rule:evenodd"
viewBox="0 0 1591 1024"
 xmlns:xlink="http://www.w3.org/1999/xlink">
 <defs>
  <style type="text/css">
   <![CDATA[
    .fil0 {fill:#996633;fill-rule:nonzero}
   ]]>
  </style>
 </defs>
 <g id="Layer_x0020_1">
  <metadata id="CorelCorpID_0Corel-Layer"/>
  <path class="fil0" d="M2 64c-1,-4 -2,-7 -2,-11 0,-34 59,-49 86,-52 7,0 13,0 20,0 31,-1 90,9 104,42l287 708 222 -705c11,-36 76,-45 108,-45 32,0 93,9 104,45l214 703 290 -717c10,-25 54,-32 77,-32 5,0 10,0 15,1 20,2 64,13 64,39 0,3 0,5 -2,8l-376 931c-14,35 -75,45 -109,45 -32,0 -93,-9 -104,-45l-203 -671 -212 669c-11,37 -74,47 -107,47 -33,0 -90,-9 -104,-43l-372 -917z"/>
 </g>
</svg>
