<?xml version="1.0" encoding="UTF-8"?>
<!DOCTYPE svg PUBLIC "-//W3C//DTD SVG 1.1//EN" "http://www.w3.org/Graphics/SVG/1.1/DTD/svg11.dtd">
<!-- Creator: CorelDRAW X8 -->
<svg xmlns="http://www.w3.org/2000/svg" xml:space="preserve" width="1866px" height="1405px" version="1.1" style="shape-rendering:geometricPrecision; text-rendering:geometricPrecision; image-rendering:optimizeQuality; fill-rule:evenodd; clip-rule:evenodd"
viewBox="0 0 1866 1405"
 xmlns:xlink="http://www.w3.org/1999/xlink">
 <defs>
  <style type="text/css">
   <![CDATA[
    .fil0 {fill:#A82682;fill-rule:nonzero}
   ]]>
  </style>
 </defs>
 <g id="Layer_x0020_1">
  <metadata id="CorelCorpID_0Corel-Layer"/>
  <path class="fil0" d="M1 65c-14,-41 58,-62 87,-64 37,-3 108,7 122,46l370 1051 273 -1053c9,-33 79,-45 108,-45 33,0 95,10 105,48l276 1050 368 -1065c9,-28 63,-35 90,-32 22,1 76,15 65,46l-453 1312c-12,34 -72,45 -103,46 -34,1 -101,-7 -111,-46l-266 -1007 -261 1006c-9,36 -76,46 -108,47 -33,0 -93,-8 -105,-43l-457 -1297z"/>
 </g>
</svg>
