<?xml version="1.0" encoding="UTF-8"?>
<!DOCTYPE svg PUBLIC "-//W3C//DTD SVG 1.1//EN" "http://www.w3.org/Graphics/SVG/1.1/DTD/svg11.dtd">
<!-- Creator: CorelDRAW X8 -->
<svg xmlns="http://www.w3.org/2000/svg" xml:space="preserve" width="995px" height="1024px" version="1.1" style="shape-rendering:geometricPrecision; text-rendering:geometricPrecision; image-rendering:optimizeQuality; fill-rule:evenodd; clip-rule:evenodd"
viewBox="0 0 995 1024"
 xmlns:xlink="http://www.w3.org/1999/xlink">
 <defs>
  <style type="text/css">
   <![CDATA[
    .fil0 {fill:#A82682;fill-rule:nonzero}
   ]]>
  </style>
 </defs>
 <g id="Layer_x0020_1">
  <metadata id="CorelCorpID_0Corel-Layer"/>
  <path class="fil0" d="M9 76c-33,-38 29,-66 60,-72 42,-9 114,-4 143,30l300 354 320 -362c22,-25 76,-29 108,-22 24,5 71,26 46,55l-383 436 383 453c33,38 -29,66 -60,72 -41,8 -114,4 -143,-30l-300 -354 -320 363c-22,25 -76,29 -108,22 -24,-5 -71,-26 -46,-56l383 -436 -383 -453z"/>
 </g>
</svg>
