<?xml version="1.0" encoding="UTF-8"?>
<!DOCTYPE svg PUBLIC "-//W3C//DTD SVG 1.1//EN" "http://www.w3.org/Graphics/SVG/1.1/DTD/svg11.dtd">
<!-- Creator: CorelDRAW X8 -->
<svg xmlns="http://www.w3.org/2000/svg" xml:space="preserve" width="995px" height="1024px" version="1.1" style="shape-rendering:geometricPrecision; text-rendering:geometricPrecision; image-rendering:optimizeQuality; fill-rule:evenodd; clip-rule:evenodd"
viewBox="0 0 995 1024"
 xmlns:xlink="http://www.w3.org/1999/xlink">
 <defs>
  <style type="text/css">
   <![CDATA[
    .fil0 {fill:#996633;fill-rule:nonzero}
   ]]>
  </style>
 </defs>
 <g id="Layer_x0020_1">
  <metadata id="CorelCorpID_0Corel-Layer"/>
  <path class="fil0" d="M9 76c-6,-6 -9,-13 -9,-21 0,-30 44,-46 69,-51 14,-3 27,-4 41,-4 32,0 80,8 102,34l300 354 320 -362c17,-19 53,-25 77,-25 11,0 21,1 31,3 19,4 53,16 53,39 0,6 -3,12 -7,16l-383 436 383 453c6,6 9,13 9,21 0,30 -44,46 -69,51 -14,3 -27,4 -41,4 -21,0 -43,-3 -60,-9 -18,-6 -33,-14 -42,-25l-300 -354 -320 363c-17,19 -53,25 -77,25 -11,0 -21,-1 -31,-3 -19,-4 -53,-16 -53,-39 0,-7 3,-12 7,-17l383 -436 -383 -453z"/>
 </g>
</svg>
