<?xml version="1.0" encoding="UTF-8"?>
<!DOCTYPE svg PUBLIC "-//W3C//DTD SVG 1.1//EN" "http://www.w3.org/Graphics/SVG/1.1/DTD/svg11.dtd">
<!-- Creator: CorelDRAW X8 -->
<svg xmlns="http://www.w3.org/2000/svg" xml:space="preserve" width="1242px" height="1405px" version="1.1" style="shape-rendering:geometricPrecision; text-rendering:geometricPrecision; image-rendering:optimizeQuality; fill-rule:evenodd; clip-rule:evenodd"
viewBox="0 0 1242 1405"
 xmlns:xlink="http://www.w3.org/1999/xlink">
 <defs>
  <style type="text/css">
   <![CDATA[
    .fil0 {fill:#A82682;fill-rule:nonzero}
   ]]>
  </style>
 </defs>
 <g id="Layer_x0020_1">
  <metadata id="CorelCorpID_0Corel-Layer"/>
  <path class="fil0" d="M12 76c-31,-40 32,-67 63,-72 42,-8 114,-4 142,31l420 536 444 -545c21,-26 75,-29 108,-23 24,5 71,26 46,56l-509 625 504 642c31,39 -32,66 -63,72 -42,8 -114,3 -142,-31l-419 -535 -445 547c-21,26 -75,29 -107,23 -25,-5 -72,-26 -47,-56l510 -627 -505 -643z"/>
 </g>
</svg>
