<?xml version="1.0" encoding="UTF-8"?>
<!DOCTYPE svg PUBLIC "-//W3C//DTD SVG 1.1//EN" "http://www.w3.org/Graphics/SVG/1.1/DTD/svg11.dtd">
<!-- Creator: CorelDRAW X8 -->
<svg xmlns="http://www.w3.org/2000/svg" xml:space="preserve" width="1032px" height="1405px" version="1.1" style="shape-rendering:geometricPrecision; text-rendering:geometricPrecision; image-rendering:optimizeQuality; fill-rule:evenodd; clip-rule:evenodd"
viewBox="0 0 1032 1405"
 xmlns:xlink="http://www.w3.org/1999/xlink">
 <defs>
  <style type="text/css">
   <![CDATA[
    .fil0 {fill:#996633;fill-rule:nonzero}
   ]]>
  </style>
 </defs>
 <g id="Layer_x0020_1">
  <metadata id="CorelCorpID_0Corel-Layer"/>
  <path class="fil0" d="M3 68c-2,-4 -3,-8 -3,-13 0,-35 58,-50 86,-54 8,-1 16,-1 24,-1 33,0 92,10 108,43l345 726 316 -736c11,-25 51,-33 76,-33 6,0 11,0 17,1 22,3 60,15 60,42 0,3 -1,6 -2,9l-474 1102c-68,158 -147,251 -334,251 -68,0 -154,-18 -197,-74 -4,-5 -6,-10 -6,-17 0,-22 28,-34 47,-39 10,-2 20,-3 30,-3 23,0 56,7 71,26 13,17 32,22 53,22 105,0 151,-105 186,-186l47 -110 -450 -956z"/>
 </g>
</svg>
