<?xml version="1.0" encoding="UTF-8"?>
<!DOCTYPE svg PUBLIC "-//W3C//DTD SVG 1.1//EN" "http://www.w3.org/Graphics/SVG/1.1/DTD/svg11.dtd">
<!-- Creator: CorelDRAW X8 -->
<svg xmlns="http://www.w3.org/2000/svg" xml:space="preserve" width="1246px" height="1405px" version="1.1" style="shape-rendering:geometricPrecision; text-rendering:geometricPrecision; image-rendering:optimizeQuality; fill-rule:evenodd; clip-rule:evenodd"
viewBox="0 0 1246 1405"
 xmlns:xlink="http://www.w3.org/1999/xlink">
 <defs>
  <style type="text/css">
   <![CDATA[
    .fil0 {fill:#996633;fill-rule:nonzero}
   ]]>
  </style>
 </defs>
 <g id="Layer_x0020_1">
  <metadata id="CorelCorpID_0Corel-Layer"/>
  <path class="fil0" d="M725 1350c0,41 -70,55 -102,55 -28,0 -53,-6 -71,-16 -19,-10 -30,-24 -30,-39l0 -611 -514 -664c-4,-6 -8,-13 -8,-21 0,-38 79,-54 108,-54 33,0 85,8 106,35l436 565 434 -573c20,-26 75,-30 106,-24 20,3 56,15 56,40 0,5 -2,10 -6,15l-515 681 0 611z"/>
 </g>
</svg>
