<?xml version="1.0" encoding="UTF-8"?>
<!DOCTYPE svg PUBLIC "-//W3C//DTD SVG 1.1//EN" "http://www.w3.org/Graphics/SVG/1.1/DTD/svg11.dtd">
<!-- Creator: CorelDRAW X8 -->
<svg xmlns="http://www.w3.org/2000/svg" xml:space="preserve" width="1268px" height="1357px" version="1.1" style="shape-rendering:geometricPrecision; text-rendering:geometricPrecision; image-rendering:optimizeQuality; fill-rule:evenodd; clip-rule:evenodd"
viewBox="0 0 1268 1357"
 xmlns:xlink="http://www.w3.org/1999/xlink">
 <defs>
  <style type="text/css">
   <![CDATA[
    .fil0 {fill:#996633;fill-rule:nonzero}
   ]]>
  </style>
 </defs>
 <g id="Layer_x0020_1">
  <metadata id="CorelCorpID_0Corel-Layer"/>
  <path class="fil0" d="M24 55c0,-42 77,-55 110,-55l1022 0c32,0 110,13 110,55 0,8 -4,16 -9,22l-982 1169 883 0c32,0 110,13 110,56 0,42 -78,55 -110,55l-1048 0c-26,0 -109,-13 -110,-54 0,-8 3,-16 9,-23l982 -1170 -857 0c-32,0 -110,-13 -110,-55z"/>
 </g>
</svg>
