<?xml version="1.0" encoding="UTF-8"?>
<!DOCTYPE svg PUBLIC "-//W3C//DTD SVG 1.1//EN" "http://www.w3.org/Graphics/SVG/1.1/DTD/svg11.dtd">
<!-- Creator: CorelDRAW X8 -->
<svg xmlns="http://www.w3.org/2000/svg" xml:space="preserve" width="1023px" height="1405px" version="1.1" style="shape-rendering:geometricPrecision; text-rendering:geometricPrecision; image-rendering:optimizeQuality; fill-rule:evenodd; clip-rule:evenodd"
viewBox="0 0 1023 1405"
 xmlns:xlink="http://www.w3.org/1999/xlink">
 <defs>
  <style type="text/css">
   <![CDATA[
    .fil0 {fill:#996633;fill-rule:nonzero}
   ]]>
  </style>
 </defs>
 <g id="Layer_x0020_1">
  <metadata id="CorelCorpID_0Corel-Layer"/>
  <path class="fil0" d="M1021 511c0,1 0,3 0,5 0,40 -69,54 -101,54 -32,0 -96,-12 -101,-51 -9,-64 -43,-117 -91,-155l-289 725c30,9 63,14 99,14 129,0 260,-91 283,-219 7,-37 69,-50 101,-50 31,0 101,15 101,55 0,2 0,4 -1,6 -39,216 -287,319 -488,319 -49,0 -96,-4 -140,-13l-68 171c-10,25 -54,32 -78,33 -5,0 -10,-1 -15,-1 -21,-2 -65,-13 -65,-40 0,-3 0,-5 1,-8l82 -205c-154,-79 -249,-232 -251,-439 -3,-315 215,-517 535,-522 31,0 64,2 96,7l66 -165c10,-25 55,-32 79,-32 5,0 10,0 14,1 21,2 65,13 65,39 0,3 0,6 -1,8l-75 188c122,50 223,140 242,275zm-433 -206c-16,-3 -32,-4 -49,-4 -227,3 -337,206 -337,407 1,113 36,224 106,300l280 -703z"/>
 </g>
</svg>
