<?xml version="1.0" encoding="UTF-8"?>
<!DOCTYPE svg PUBLIC "-//W3C//DTD SVG 1.1//EN" "http://www.w3.org/Graphics/SVG/1.1/DTD/svg11.dtd">
<!-- Creator: CorelDRAW X8 -->
<svg xmlns="http://www.w3.org/2000/svg" xml:space="preserve" width="1023px" height="1405px" version="1.1" style="shape-rendering:geometricPrecision; text-rendering:geometricPrecision; image-rendering:optimizeQuality; fill-rule:evenodd; clip-rule:evenodd"
viewBox="0 0 1023 1405"
 xmlns:xlink="http://www.w3.org/1999/xlink">
 <defs>
  <style type="text/css">
   <![CDATA[
    .fil0 {fill:#A82682;fill-rule:nonzero}
   ]]>
  </style>
 </defs>
 <g id="Layer_x0020_1">
  <metadata id="CorelCorpID_0Corel-Layer"/>
  <path class="fil0" d="M1021 511c7,44 -69,59 -101,59 -32,0 -95,-12 -101,-51 -9,-64 -43,-117 -91,-154l-289 724c30,9 63,14 99,14 129,0 260,-91 283,-218 7,-38 69,-50 101,-50 32,0 109,16 101,61 -40,215 -287,318 -489,318 -49,1 -96,-4 -140,-13l-68 171c-11,29 -65,35 -93,32 -22,-2 -76,-16 -64,-47l82 -205c-154,-80 -249,-233 -251,-440 -3,-314 215,-517 535,-521 31,-1 64,1 96,6l66 -164c11,-29 65,-35 93,-32 22,2 76,16 64,47l-75 188c122,50 224,140 242,275zm-433 -206c-16,-3 -32,-4 -49,-4 -227,3 -337,206 -337,407 1,113 35,224 106,300l280 -703z"/>
 </g>
</svg>
