<?xml version="1.0" encoding="UTF-8"?>
<!DOCTYPE svg PUBLIC "-//W3C//DTD SVG 1.1//EN" "http://www.w3.org/Graphics/SVG/1.1/DTD/svg11.dtd">
<!-- Creator: CorelDRAW X8 -->
<svg xmlns="http://www.w3.org/2000/svg" xml:space="preserve" width="1175px" height="1405px" version="1.1" style="shape-rendering:geometricPrecision; text-rendering:geometricPrecision; image-rendering:optimizeQuality; fill-rule:evenodd; clip-rule:evenodd"
viewBox="0 0 1175 1405"
 xmlns:xlink="http://www.w3.org/1999/xlink">
 <defs>
  <style type="text/css">
   <![CDATA[
    .fil0 {fill:#996633;fill-rule:nonzero}
   ]]>
  </style>
 </defs>
 <g id="Layer_x0020_1">
  <metadata id="CorelCorpID_0Corel-Layer"/>
  <path class="fil0" d="M1075 360c1,3 1,5 1,7 0,41 -72,55 -103,55 -30,0 -92,-12 -99,-50 -23,-115 -98,-258 -234,-260 -150,-3 -259,146 -259,284 0,89 29,175 57,259l302 0c32,0 101,14 101,56 0,42 -69,56 -101,56l-268 0c13,49 22,99 22,150 0,109 -41,202 -108,287 15,-1 30,-1 45,-1 148,-1 276,82 408,79 58,-2 114,-21 165,-48 21,-11 47,-16 70,-16 24,0 52,5 73,18 14,8 28,21 28,38 0,19 -16,33 -31,41 -93,49 -192,81 -299,83 -157,3 -284,-84 -412,-84 -83,1 -166,34 -238,73 -21,12 -48,18 -73,18 -20,0 -40,-3 -59,-10 -19,-8 -43,-23 -43,-46 0,-13 8,-24 18,-32 129,-101 254,-230 254,-402 -1,-50 -11,-100 -25,-148l-166 0c-32,0 -101,-14 -101,-56 0,-42 69,-56 101,-56l131 0c-28,-85 -53,-169 -53,-260 0,-247 229,-395 462,-395 232,0 390,139 434,360z"/>
 </g>
</svg>
