<?xml version="1.0" encoding="UTF-8"?>
<!DOCTYPE svg PUBLIC "-//W3C//DTD SVG 1.1//EN" "http://www.w3.org/Graphics/SVG/1.1/DTD/svg11.dtd">
<!-- Creator: CorelDRAW X8 -->
<svg xmlns="http://www.w3.org/2000/svg" xml:space="preserve" width="766px" height="688px" version="1.1" style="shape-rendering:geometricPrecision; text-rendering:geometricPrecision; image-rendering:optimizeQuality; fill-rule:evenodd; clip-rule:evenodd"
viewBox="0 0 766 688"
 xmlns:xlink="http://www.w3.org/1999/xlink">
 <defs>
  <style type="text/css">
   <![CDATA[
    .fil0 {fill:#A82682;fill-rule:nonzero}
   ]]>
  </style>
 </defs>
 <g id="Layer_x0020_1">
  <metadata id="CorelCorpID_0Corel-Layer"/>
  <path class="fil0" d="M383 35c59,0 119,10 172,35l45 -45c28,-27 85,-30 121,-19 30,10 63,38 34,68l-87 87c40,52 60,116 61,182 0,66 -21,131 -61,184l87 87c29,30 -4,58 -34,68 -36,11 -93,8 -121,-19l-45 -45c-53,25 -113,35 -172,35 -59,0 -119,-10 -172,-35l-45 45c-28,27 -85,30 -121,19 -30,-10 -63,-38 -34,-68l87 -87c-40,-52 -60,-116 -61,-182 0,-66 21,-131 61,-184l-87 -87c-29,-30 4,-58 34,-68 36,-11 93,-8 121,19l45 45c53,-25 113,-35 172,-35zm-167 309c0,100 55,210 167,210 112,0 167,-110 167,-210 0,-99 -54,-210 -167,-210 -113,0 -167,111 -167,210z"/>
 </g>
</svg>
