<?xml version="1.0" encoding="UTF-8"?>
<!DOCTYPE svg PUBLIC "-//W3C//DTD SVG 1.1//EN" "http://www.w3.org/Graphics/SVG/1.1/DTD/svg11.dtd">
<!-- Creator: CorelDRAW X8 -->
<svg xmlns="http://www.w3.org/2000/svg" xml:space="preserve" width="766px" height="688px" version="1.1" style="shape-rendering:geometricPrecision; text-rendering:geometricPrecision; image-rendering:optimizeQuality; fill-rule:evenodd; clip-rule:evenodd"
viewBox="0 0 766 688"
 xmlns:xlink="http://www.w3.org/1999/xlink">
 <defs>
  <style type="text/css">
   <![CDATA[
    .fil0 {fill:#996633;fill-rule:nonzero}
   ]]>
  </style>
 </defs>
 <g id="Layer_x0020_1">
  <metadata id="CorelCorpID_0Corel-Layer"/>
  <path class="fil0" d="M383 35c59,0 119,10 172,35l45 -45c19,-18 52,-25 78,-25 14,0 29,2 43,6 19,6 45,21 45,44 0,9 -5,17 -11,24l-87 87c40,52 61,116 61,182 0,67 -21,132 -61,185l87 86c6,7 11,15 11,25 0,22 -26,37 -45,43 -16,5 -32,7 -48,6 -24,-1 -55,-8 -73,-25l-45 -45c-53,25 -113,35 -172,35 -59,0 -119,-10 -172,-35l-45 45c-18,17 -49,24 -73,25 -16,1 -32,-1 -48,-6 -19,-6 -45,-21 -45,-43 0,-10 5,-18 11,-25l87 -86c-40,-53 -60,-117 -61,-183 0,-66 21,-131 61,-184l-87 -87c-6,-7 -11,-15 -11,-24 0,-23 26,-38 45,-44 14,-4 29,-6 43,-6 26,0 59,7 78,25l45 45c53,-25 113,-35 172,-35zm-167 309c0,100 55,210 167,210 112,0 167,-110 167,-210 0,-99 -54,-210 -167,-210 -113,0 -167,111 -167,210z"/>
 </g>
</svg>
