<?xml version="1.0" encoding="UTF-8"?>
<!DOCTYPE svg PUBLIC "-//W3C//DTD SVG 1.1//EN" "http://www.w3.org/Graphics/SVG/1.1/DTD/svg11.dtd">
<!-- Creator: CorelDRAW X8 -->
<svg xmlns="http://www.w3.org/2000/svg" xml:space="preserve" width="1004px" height="1405px" version="1.1" style="shape-rendering:geometricPrecision; text-rendering:geometricPrecision; image-rendering:optimizeQuality; fill-rule:evenodd; clip-rule:evenodd"
viewBox="0 0 1004 1405"
 xmlns:xlink="http://www.w3.org/1999/xlink">
 <defs>
  <style type="text/css">
   <![CDATA[
    .fil0 {fill:#EF7F1A;fill-rule:nonzero}
   ]]>
  </style>
 </defs>
 <g id="Layer_x0020_1">
  <metadata id="CorelCorpID_0Corel-Layer"/>
  <path class="fil0" d="M502 1405c32,0 101,-14 101,-55l0 -334 262 0c56,0 101,-25 101,-57 0,-31 -45,-57 -101,-57l-262 0 0 -148 262 0c56,0 101,-26 101,-57 0,-32 -45,-57 -101,-57l-204 0 338 -582c4,-6 5,-11 5,-16 0,-34 -61,-42 -88,-42 -29,0 -62,7 -74,28l-313 572 -317 -564c-17,-31 -72,-36 -105,-36 -33,0 -107,14 -107,53 0,7 2,14 7,22l335 565 -203 0c-57,0 -102,25 -102,57 0,31 45,57 102,57l261 0 0 148 -261 0c-57,0 -102,26 -102,57 0,32 45,57 102,57l261 0 0 334c0,41 71,55 102,55z"/>
 </g>
</svg>
