<?xml version="1.0" encoding="UTF-8"?>
<!DOCTYPE svg PUBLIC "-//W3C//DTD SVG 1.1//EN" "http://www.w3.org/Graphics/SVG/1.1/DTD/svg11.dtd">
<!-- Creator: CorelDRAW X8 -->
<svg xmlns="http://www.w3.org/2000/svg" xml:space="preserve" width="1006px" height="1405px" version="1.1" style="shape-rendering:geometricPrecision; text-rendering:geometricPrecision; image-rendering:optimizeQuality; fill-rule:evenodd; clip-rule:evenodd"
viewBox="0 0 1006 1405"
 xmlns:xlink="http://www.w3.org/1999/xlink">
 <defs>
  <style type="text/css">
   <![CDATA[
    .fil0 {fill:#996633;fill-rule:nonzero}
   ]]>
  </style>
 </defs>
 <g id="Layer_x0020_1">
  <metadata id="CorelCorpID_0Corel-Layer"/>
  <path class="fil0" d="M605 1350c0,42 -70,55 -102,55 -28,0 -53,-6 -71,-16 -19,-10 -30,-24 -30,-39l0 -334 -262 0c-56,0 -102,-25 -102,-57 0,-31 46,-57 102,-57l262 0 0 -148 -262 0c-56,0 -102,-26 -102,-57 0,-31 46,-57 102,-57l203 0 -335 -565c-4,-7 -8,-13 -8,-21 0,-38 79,-54 108,-54 33,0 89,5 106,36l316 564 314 -572c16,-30 75,-31 106,-25 20,3 56,16 56,40 0,5 -3,10 -5,15l-338 582 203 0c56,0 102,26 102,57 0,31 -46,57 -102,57l-261 0 0 148 261 0c56,0 102,26 102,57 0,32 -46,57 -102,57l-261 0 0 334z"/>
 </g>
</svg>
