<?xml version="1.0" encoding="UTF-8"?>
<!DOCTYPE svg PUBLIC "-//W3C//DTD SVG 1.1//EN" "http://www.w3.org/Graphics/SVG/1.1/DTD/svg11.dtd">
<!-- Creator: CorelDRAW X8 -->
<svg xmlns="http://www.w3.org/2000/svg" xml:space="preserve" width="1004px" height="1405px" version="1.1" style="shape-rendering:geometricPrecision; text-rendering:geometricPrecision; image-rendering:optimizeQuality; fill-rule:evenodd; clip-rule:evenodd"
viewBox="0 0 1004 1405"
 xmlns:xlink="http://www.w3.org/1999/xlink">
 <defs>
  <style type="text/css">
   <![CDATA[
    .fil0 {fill:#A82682;fill-rule:nonzero}
   ]]>
  </style>
 </defs>
 <g id="Layer_x0020_1">
  <metadata id="CorelCorpID_0Corel-Layer"/>
  <path class="fil0" d="M603 1350c0,41 -69,55 -101,55 -28,0 -53,-6 -72,-16 -18,-10 -30,-24 -30,-39l0 -334 -261 0c-57,0 -102,-25 -102,-57 0,-31 45,-57 102,-57l261 0 0 -148 -261 0c-57,0 -102,-26 -102,-57 0,-32 45,-57 102,-57l203 0 -335 -565c-33,-56 62,-75 100,-75 33,0 88,5 105,36l317 564 313 -572c16,-30 76,-31 107,-25 26,4 70,21 50,55l-338 582 204 0c56,0 101,25 101,57 0,31 -45,57 -101,57l-262 0 0 148 262 0c56,0 101,26 101,57 0,32 -45,57 -101,57l-262 0 0 334z"/>
 </g>
</svg>
