<?xml version="1.0" encoding="UTF-8"?>
<!DOCTYPE svg PUBLIC "-//W3C//DTD SVG 1.1//EN" "http://www.w3.org/Graphics/SVG/1.1/DTD/svg11.dtd">
<!-- Creator: CorelDRAW X8 -->
<svg xmlns="http://www.w3.org/2000/svg" xml:space="preserve" width="1221px" height="1405px" version="1.1" style="shape-rendering:geometricPrecision; text-rendering:geometricPrecision; image-rendering:optimizeQuality; fill-rule:evenodd; clip-rule:evenodd"
viewBox="0 0 1221 1405"
 xmlns:xlink="http://www.w3.org/1999/xlink">
 <defs>
  <style type="text/css">
   <![CDATA[
    .fil0 {fill:#996633;fill-rule:nonzero}
   ]]>
  </style>
 </defs>
 <g id="Layer_x0020_1">
  <metadata id="CorelCorpID_0Corel-Layer"/>
  <path class="fil0" d="M610 0c407,0 611,372 611,733 0,207 -68,420 -230,560l103 0c32,0 101,14 101,56 0,41 -69,55 -101,55l-321 1c-28,0 -63,-6 -86,-22 -11,-8 -21,-20 -21,-35 1,-21 22,-36 40,-44 224,-93 311,-343 312,-567 2,-224 -120,-623 -405,-625 -286,-2 -410,393 -410,620 0,225 86,478 312,572 18,8 39,23 40,44 0,15 -10,26 -21,35 -28,20 -62,22 -95,22l-309 0c-32,0 -101,-14 -101,-56 0,-42 69,-56 101,-56l100 0c-162,-140 -230,-353 -230,-560 0,-361 204,-733 610,-733z"/>
 </g>
</svg>
