<?xml version="1.0" encoding="UTF-8"?>
<!DOCTYPE svg PUBLIC "-//W3C//DTD SVG 1.1//EN" "http://www.w3.org/Graphics/SVG/1.1/DTD/svg11.dtd">
<!-- Creator: CorelDRAW X8 -->
<svg xmlns="http://www.w3.org/2000/svg" xml:space="preserve" width="481px" height="917px" version="1.1" style="shape-rendering:geometricPrecision; text-rendering:geometricPrecision; image-rendering:optimizeQuality; fill-rule:evenodd; clip-rule:evenodd"
viewBox="0 0 481 917"
 xmlns:xlink="http://www.w3.org/1999/xlink">
 <defs>
  <style type="text/css">
   <![CDATA[
    .fil0 {fill:#A82682;fill-rule:nonzero}
   ]]>
  </style>
 </defs>
 <g id="Layer_x0020_1">
  <metadata id="CorelCorpID_0Corel-Layer"/>
  <path class="fil0" d="M241 506c129,-1 239,71 240,206 2,135 -107,204 -237,205 -129,1 -244,-71 -244,-208 0,-138 111,-202 241,-203zm0 -506c129,-1 239,70 240,205 2,135 -107,205 -237,206 -129,1 -244,-71 -244,-209 0,-137 111,-201 241,-202zm-66 205c0,66 33,102 66,102 32,0 65,-36 65,-102 0,-65 -33,-101 -65,-101 -33,0 -66,35 -66,101zm0 507c0,66 33,101 66,101 32,0 65,-36 65,-101 0,-66 -33,-102 -65,-102 -33,0 -66,36 -66,102z"/>
 </g>
</svg>
