<?xml version="1.0" encoding="UTF-8"?>
<!DOCTYPE svg PUBLIC "-//W3C//DTD SVG 1.1//EN" "http://www.w3.org/Graphics/SVG/1.1/DTD/svg11.dtd">
<!-- Creator: CorelDRAW X8 -->
<svg xmlns="http://www.w3.org/2000/svg" xml:space="preserve" width="2336px" height="1024px" version="1.1" style="shape-rendering:geometricPrecision; text-rendering:geometricPrecision; image-rendering:optimizeQuality; fill-rule:evenodd; clip-rule:evenodd"
viewBox="0 0 2336 1024"
 xmlns:xlink="http://www.w3.org/1999/xlink">
 <defs>
  <style type="text/css">
   <![CDATA[
    .fil0 {fill:#5B5A50;fill-rule:nonzero}
   ]]>
  </style>
 </defs>
 <g id="Layer_x0020_1">
  <metadata id="CorelCorpID_0Corel-Layer"/>
  <path class="fil0" d="M1458 968c0,42 -69,56 -101,56 -32,0 -101,-14 -101,-56l0 -574c0,-160 -71,-281 -248,-285 67,50 104,119 104,202 0,86 -41,159 -113,207 92,44 140,116 139,218 -1,88 -35,157 -89,205 -61,53 -148,82 -245,83 -152,1 -275,-61 -351,-190 -51,-88 -75,-193 -75,-293 -1,-171 56,-325 201,-428 -72,2 -132,19 -192,60 -124,83 -184,224 -185,368 -1,136 50,312 173,391 39,26 26,61 -12,79 -41,18 -105,18 -143,-7 -153,-99 -223,-290 -220,-463 3,-151 56,-277 144,-369 103,-107 255,-169 432,-172 70,-1 143,10 212,24 72,-18 148,-25 222,-24 124,1 261,29 355,112 97,-80 231,-112 355,-112 194,0 376,60 498,213 85,106 120,234 118,368 -1,95 -23,194 -74,276 -69,113 -188,168 -321,167 -125,-1 -242,-49 -312,-153 -46,-67 -67,-149 -67,-229 0,-97 32,-197 92,-276 76,-98 188,-155 311,-176 -68,-52 -158,-82 -244,-80 -175,4 -263,119 -263,284l0 574zm600 -675c-88,4 -165,48 -218,116 -51,67 -75,151 -75,233 0,66 15,135 53,190 28,42 72,80 125,81 57,0 100,-48 127,-92 44,-71 63,-158 64,-240 1,-101 -21,-202 -76,-288zm-1261 -146c-159,74 -219,229 -217,394 1,74 15,154 46,221 30,68 93,152 177,151 38,-1 68,-19 90,-46 28,-35 43,-84 43,-131 1,-94 -41,-144 -132,-151 -16,-1 -33,0 -49,0 -32,-1 -95,-14 -98,-53 -3,-38 56,-55 87,-57 18,-2 35,-1 53,-4 81,-13 112,-79 112,-160 0,-78 -39,-133 -112,-164z"/>
 </g>
</svg>
