<?xml version="1.0" encoding="UTF-8"?>
<!DOCTYPE svg PUBLIC "-//W3C//DTD SVG 1.1//EN" "http://www.w3.org/Graphics/SVG/1.1/DTD/svg11.dtd">
<!-- Creator: CorelDRAW X8 -->
<svg xmlns="http://www.w3.org/2000/svg" xml:space="preserve" width="2296px" height="1024px" version="1.1" style="shape-rendering:geometricPrecision; text-rendering:geometricPrecision; image-rendering:optimizeQuality; fill-rule:evenodd; clip-rule:evenodd"
viewBox="0 0 2296 1024"
 xmlns:xlink="http://www.w3.org/1999/xlink">
 <defs>
  <style type="text/css">
   <![CDATA[
    .fil0 {fill:#5B5A50;fill-rule:nonzero}
   ]]>
  </style>
 </defs>
 <g id="Layer_x0020_1">
  <metadata id="CorelCorpID_0Corel-Layer"/>
  <path class="fil0" d="M1433 968c0,42 -67,56 -99,56 -32,0 -99,-14 -99,-56l0 -574c0,-160 -70,-281 -244,-285 66,50 102,119 102,202 0,86 -41,159 -111,207 90,44 138,116 137,218 -1,88 -35,157 -88,205 -60,53 -145,82 -241,83 -149,1 -270,-61 -345,-190 -50,-88 -73,-193 -74,-293 -1,-171 56,-325 198,-428 -71,2 -130,19 -189,60 -122,83 -180,224 -181,368 -1,136 49,312 169,391 39,26 27,61 -12,79 -39,18 -102,18 -140,-7 -150,-99 -219,-290 -216,-463 3,-151 55,-277 141,-369 102,-107 251,-169 425,-172 69,-1 140,10 208,24 71,-18 146,-25 219,-24 122,1 256,29 349,112 95,-80 227,-112 349,-112 190,0 369,60 489,213 83,106 118,234 116,368 -1,95 -23,194 -73,276 -68,113 -185,168 -315,167 -123,-1 -238,-49 -307,-153 -45,-67 -66,-149 -66,-229 0,-97 32,-197 91,-276 74,-98 185,-155 305,-176 -67,-52 -155,-82 -240,-80 -171,4 -258,119 -258,284l0 574zm589 -675c-86,4 -162,48 -213,116 -51,67 -75,151 -75,233 0,66 16,135 53,190 27,42 71,80 123,81 56,0 98,-48 125,-92 43,-71 61,-158 62,-240 1,-101 -20,-202 -75,-288zm-1238 -146c-157,74 -216,229 -214,394 1,74 15,154 45,221 30,68 92,152 174,151 37,-1 67,-19 88,-46 28,-35 43,-84 43,-131 1,-94 -40,-144 -130,-151 -16,-1 -32,0 -48,0 -32,-1 -93,-14 -96,-53 -3,-38 54,-55 85,-57 18,-2 35,-1 52,-4 80,-13 111,-79 111,-160 0,-78 -39,-133 -110,-164z"/>
 </g>
</svg>
