<?xml version="1.0" encoding="UTF-8"?>
<!DOCTYPE svg PUBLIC "-//W3C//DTD SVG 1.1//EN" "http://www.w3.org/Graphics/SVG/1.1/DTD/svg11.dtd">
<!-- Creator: CorelDRAW X8 -->
<svg xmlns="http://www.w3.org/2000/svg" xml:space="preserve" width="2662px" height="1412px" version="1.1" style="shape-rendering:geometricPrecision; text-rendering:geometricPrecision; image-rendering:optimizeQuality; fill-rule:evenodd; clip-rule:evenodd"
viewBox="0 0 2662 1412"
 xmlns:xlink="http://www.w3.org/1999/xlink">
 <defs>
  <style type="text/css">
   <![CDATA[
    .fil0 {fill:#A82682;fill-rule:nonzero}
   ]]>
  </style>
 </defs>
 <g id="Layer_x0020_1">
  <metadata id="CorelCorpID_0Corel-Layer"/>
  <path class="fil0" d="M2203 196c324,68 477,346 457,657 -20,327 -243,549 -578,559 -139,4 -286,-31 -396,-117 -38,-29 -13,-63 25,-77 41,-16 105,-14 141,13 63,50 147,72 227,69 244,-7 365,-233 379,-448 10,-158 -28,-334 -144,-450 16,59 23,121 22,182 -1,96 -22,189 -73,272 -70,113 -188,169 -321,168 -125,-1 -242,-50 -313,-154 -45,-67 -67,-150 -67,-230 0,-98 32,-193 92,-272 76,-98 189,-156 311,-177 -68,-53 -157,-82 -244,-80 -173,3 -263,122 -263,285l1 572c0,41 -69,55 -101,55 -32,0 -101,-14 -101,-55l-1 -572c0,-154 -78,-285 -248,-287 67,51 104,120 104,204 0,86 -41,160 -113,208 92,44 141,111 140,213 -2,190 -154,288 -335,289 -151,2 -274,-60 -350,-191 -52,-87 -76,-188 -76,-288 -1,-172 56,-327 201,-430 -72,2 -132,19 -192,60 -124,83 -184,225 -185,370 -1,137 51,308 173,388 39,25 27,60 -12,78 -41,19 -105,18 -142,-6 -153,-100 -224,-286 -221,-460 3,-161 62,-293 160,-386 102,-99 248,-155 416,-158 71,-1 143,10 212,24 72,-18 149,-25 222,-24 124,1 261,29 356,113 96,-81 230,-113 354,-113 185,0 361,55 483,196zm-145 99c-88,4 -165,48 -217,117 -52,67 -76,145 -76,228 0,66 16,135 54,191 28,42 72,80 125,81 57,0 100,-48 127,-92 44,-71 62,-153 63,-236 1,-102 -20,-203 -76,-289zm-1261 -147c-159,74 -219,230 -217,396 1,74 16,149 46,217 31,68 94,152 178,151 90,-1 132,-102 133,-178 1,-95 -41,-139 -133,-146 -16,-1 -33,1 -49,0 -32,0 -95,-14 -98,-53 -3,-39 56,-55 87,-58 18,-1 35,0 53,-3 81,-14 112,-80 112,-161 0,-79 -39,-134 -112,-165z"/>
 </g>
</svg>
