<?xml version="1.0" encoding="UTF-8"?>
<!DOCTYPE svg PUBLIC "-//W3C//DTD SVG 1.1//EN" "http://www.w3.org/Graphics/SVG/1.1/DTD/svg11.dtd">
<!-- Creator: CorelDRAW X8 -->
<svg xmlns="http://www.w3.org/2000/svg" xml:space="preserve" width="2663px" height="1412px" version="1.1" style="shape-rendering:geometricPrecision; text-rendering:geometricPrecision; image-rendering:optimizeQuality; fill-rule:evenodd; clip-rule:evenodd"
viewBox="0 0 2663 1412"
 xmlns:xlink="http://www.w3.org/1999/xlink">
 <defs>
  <style type="text/css">
   <![CDATA[
    .fil0 {fill:#2B2A29;fill-rule:nonzero}
   ]]>
  </style>
 </defs>
 <g id="Layer_x0020_1">
  <metadata id="CorelCorpID_0Corel-Layer"/>
  <path class="fil0" d="M1946 1024c131,0 249,-55 317,-167 53,-86 74,-187 74,-287 0,-57 -7,-114 -22,-168 104,104 146,257 146,402 0,237 -127,496 -395,496 -76,0 -154,-22 -213,-69 -21,-16 -52,-23 -82,-23 -21,0 -42,3 -59,10 -25,9 -44,27 -44,46 0,10 6,21 19,31 104,83 242,117 375,117 367,0 601,-250 601,-613 0,-287 -154,-538 -458,-603 -122,-140 -298,-196 -484,-196 -124,0 -258,32 -355,112 -95,-83 -232,-111 -356,-112 -76,0 -148,5 -222,24 -66,-13 -136,-24 -203,-24 -162,0 -327,53 -441,172 -99,103 -144,239 -144,380 0,170 70,355 220,452 21,14 49,20 77,20 24,0 47,-5 66,-13 22,-10 36,-27 36,-43 0,-13 -8,-25 -24,-36 -122,-78 -173,-252 -173,-387 0,-146 61,-289 185,-372 60,-41 120,-58 192,-60 -145,103 -201,255 -201,428 0,100 24,205 75,293 75,128 197,190 347,190 89,0 182,-24 249,-83 61,-54 89,-127 89,-208 0,-100 -48,-171 -139,-215 72,-48 113,-121 113,-207 0,-83 -37,-152 -104,-202 177,4 248,125 248,285l0 574c0,42 69,56 102,56 32,0 101,-14 101,-56l0 -574c0,-171 94,-284 271,-284 84,0 170,30 236,80 -123,21 -235,78 -311,176 -60,79 -92,179 -92,276 0,80 21,162 67,229 71,107 191,153 316,153zm-1144 -111c-84,0 -146,-83 -176,-151 -32,-70 -46,-152 -46,-229 0,-162 61,-313 217,-386 73,31 112,86 112,164 0,81 -31,147 -112,160 -18,3 -35,2 -53,4 -30,2 -87,17 -87,55 0,41 68,54 98,55l49 0c90,7 132,56 132,148 0,48 -12,97 -43,134 -22,28 -54,46 -91,46zm1142 0c-53,-1 -97,-39 -125,-81 -38,-55 -53,-124 -53,-190 0,-82 24,-166 75,-233 53,-68 130,-112 218,-116 54,84 76,183 76,281 0,85 -19,174 -64,247 -27,44 -70,92 -127,92z"/>
 </g>
</svg>
