<?xml version="1.0" encoding="UTF-8"?>
<!DOCTYPE svg PUBLIC "-//W3C//DTD SVG 1.1//EN" "http://www.w3.org/Graphics/SVG/1.1/DTD/svg11.dtd">
<!-- Creator: CorelDRAW X8 -->
<svg xmlns="http://www.w3.org/2000/svg" xml:space="preserve" width="1688px" height="1412px" version="1.1" style="shape-rendering:geometricPrecision; text-rendering:geometricPrecision; image-rendering:optimizeQuality; fill-rule:evenodd; clip-rule:evenodd"
viewBox="0 0 1688 1412"
 xmlns:xlink="http://www.w3.org/1999/xlink">
 <defs>
  <style type="text/css">
   <![CDATA[
    .fil0 {fill:#996633;fill-rule:nonzero}
   ]]>
  </style>
 </defs>
 <g id="Layer_x0020_1">
  <metadata id="CorelCorpID_0Corel-Layer"/>
  <path class="fil0" d="M582 742c-64,53 -153,80 -237,80 -130,0 -240,-50 -300,-167 -43,-82 -51,-180 -41,-270 12,-105 54,-199 136,-269 98,-83 232,-114 358,-116 136,-2 288,25 388,124 84,-92 205,-125 327,-124 137,1 272,43 362,149 85,99 113,233 113,359 0,109 -22,227 -87,318 -124,174 -361,227 -564,227l-719 0c-65,0 -113,34 -113,101 0,64 50,100 113,100l1193 0c47,0 102,28 102,79 0,51 -55,79 -102,79l-1193 0c-153,0 -315,-60 -317,-233 -1,-168 170,-237 317,-237l719 0c147,0 285,-29 375,-156 55,-77 73,-186 74,-278 0,-107 -22,-228 -94,-312 -46,-54 -107,-84 -180,-85 -61,0 -109,21 -149,67 -53,61 -71,144 -71,223l0 365c0,42 -69,56 -102,56 -32,0 -101,-14 -101,-56l0 -365c0,-72 -15,-148 -62,-205 -54,-64 -147,-87 -228,-86 -63,1 -136,16 -188,54 -44,31 -80,75 -95,127 39,-22 83,-33 128,-34 83,-3 175,18 241,71 63,51 96,132 96,212 -1,80 -36,151 -99,202zm-364 -202c0,75 38,169 128,166 87,-3 132,-89 132,-166 0,-78 -43,-168 -132,-167 -88,2 -128,91 -128,167z"/>
 </g>
</svg>
