<?xml version="1.0" encoding="UTF-8"?>
<!DOCTYPE svg PUBLIC "-//W3C//DTD SVG 1.1//EN" "http://www.w3.org/Graphics/SVG/1.1/DTD/svg11.dtd">
<!-- Creator: CorelDRAW X8 -->
<svg xmlns="http://www.w3.org/2000/svg" xml:space="preserve" width="1648px" height="1412px" version="1.1" style="shape-rendering:geometricPrecision; text-rendering:geometricPrecision; image-rendering:optimizeQuality; fill-rule:evenodd; clip-rule:evenodd"
viewBox="0 0 1648 1412"
 xmlns:xlink="http://www.w3.org/1999/xlink">
 <defs>
  <style type="text/css">
   <![CDATA[
    .fil0 {fill:#996633;fill-rule:nonzero}
   ]]>
  </style>
 </defs>
 <g id="Layer_x0020_1">
  <metadata id="CorelCorpID_0Corel-Layer"/>
  <path class="fil0" d="M569 742c-64,53 -151,80 -232,80 -127,0 -234,-50 -293,-167 -42,-82 -50,-180 -40,-270 11,-105 52,-199 133,-269 95,-83 226,-114 349,-116 133,-2 282,25 379,124 82,-92 200,-125 319,-124 134,1 266,43 354,149 82,99 110,233 110,359 0,109 -22,227 -85,318 -121,174 -353,227 -550,227l-703 0c-63,0 -110,34 -110,101 0,64 49,100 110,100l1165 0c46,0 99,28 99,79 0,51 -53,79 -99,79l-1165 0c-149,0 -307,-60 -309,-233 -1,-168 166,-237 309,-237l703 0c143,0 278,-29 366,-156 53,-77 71,-186 72,-278 0,-107 -22,-228 -92,-312 -45,-54 -105,-84 -175,-85 -60,0 -107,21 -146,67 -52,61 -70,144 -70,223l0 365c0,42 -67,56 -99,56 -31,0 -99,-14 -99,-56l0 -365c0,-72 -14,-148 -61,-205 -52,-64 -143,-87 -222,-86 -62,1 -132,16 -183,54 -43,31 -79,75 -93,127 38,-22 81,-33 125,-34 81,-3 171,18 235,71 61,51 94,132 93,212 0,80 -34,151 -95,202zm-356 -202c0,75 37,169 125,166 85,-3 128,-89 128,-166 0,-78 -41,-168 -128,-167 -86,2 -125,91 -125,167z"/>
 </g>
</svg>
