<?xml version="1.0" encoding="UTF-8"?>
<!DOCTYPE svg PUBLIC "-//W3C//DTD SVG 1.1//EN" "http://www.w3.org/Graphics/SVG/1.1/DTD/svg11.dtd">
<!-- Creator: CorelDRAW X8 -->
<svg xmlns="http://www.w3.org/2000/svg" xml:space="preserve" width="1158px" height="1412px" version="1.1" style="shape-rendering:geometricPrecision; text-rendering:geometricPrecision; image-rendering:optimizeQuality; fill-rule:evenodd; clip-rule:evenodd"
viewBox="0 0 1158 1412"
 xmlns:xlink="http://www.w3.org/1999/xlink">
 <defs>
  <style type="text/css">
   <![CDATA[
    .fil0 {fill:#996633;fill-rule:nonzero}
   ]]>
  </style>
 </defs>
 <g id="Layer_x0020_1">
  <metadata id="CorelCorpID_0Corel-Layer"/>
  <path class="fil0" d="M562 111c-86,-1 -176,18 -246,69 -40,30 -71,68 -92,112 38,-21 82,-32 127,-34 82,-5 178,18 242,71 65,52 98,130 96,212 -2,70 -30,137 -80,187 -66,64 -164,94 -255,95 -94,1 -181,-26 -250,-91 -67,-63 -98,-150 -103,-239 -9,-151 46,-283 169,-375 111,-82 256,-118 393,-118 171,1 362,50 476,184 88,103 125,236 118,369 -8,158 -78,315 -215,404 -103,67 -233,96 -356,96l-269 0c-65,0 -113,34 -113,101 0,64 50,100 113,100l691 0c47,0 102,28 102,79 0,51 -55,79 -102,79l-691 0c-154,0 -317,-61 -317,-236 0,-166 170,-235 317,-235l269 0c84,0 165,-24 230,-77 92,-75 132,-198 138,-311 6,-106 -16,-217 -82,-303 -74,-93 -192,-136 -310,-139zm-335 430c0,75 38,169 128,166 87,-2 131,-89 132,-165 0,-76 -44,-168 -132,-168 -90,1 -128,91 -128,167z"/>
 </g>
</svg>
