<?xml version="1.0" encoding="UTF-8"?>
<!DOCTYPE svg PUBLIC "-//W3C//DTD SVG 1.1//EN" "http://www.w3.org/Graphics/SVG/1.1/DTD/svg11.dtd">
<!-- Creator: CorelDRAW X8 -->
<svg xmlns="http://www.w3.org/2000/svg" xml:space="preserve" width="1118px" height="1412px" version="1.1" style="shape-rendering:geometricPrecision; text-rendering:geometricPrecision; image-rendering:optimizeQuality; fill-rule:evenodd; clip-rule:evenodd"
viewBox="0 0 1118 1412"
 xmlns:xlink="http://www.w3.org/1999/xlink">
 <defs>
  <style type="text/css">
   <![CDATA[
    .fil0 {fill:#996633;fill-rule:nonzero}
   ]]>
  </style>
 </defs>
 <g id="Layer_x0020_1">
  <metadata id="CorelCorpID_0Corel-Layer"/>
  <path class="fil0" d="M543 111c-84,-1 -170,18 -238,69 -39,30 -69,68 -89,112 37,-21 79,-32 123,-34 79,-5 172,18 234,71 62,52 95,130 92,212 -1,70 -28,137 -77,187 -64,64 -158,94 -246,95 -91,1 -175,-26 -241,-91 -65,-63 -95,-150 -100,-239 -9,-151 44,-283 163,-375 107,-82 247,-118 380,-118 165,1 349,50 459,184 85,103 121,236 114,369 -8,158 -75,315 -207,404 -100,67 -226,96 -344,96l-260 0c-63,0 -109,34 -109,101 0,64 48,100 109,100l668 0c44,0 98,28 98,79 0,51 -54,79 -98,79l-668 0c-149,0 -306,-61 -306,-236 0,-166 165,-235 306,-235l260 0c81,0 159,-24 222,-77 89,-75 128,-198 133,-311 5,-106 -15,-217 -80,-303 -70,-93 -185,-136 -298,-139zm-324 430c0,75 37,169 123,166 85,-2 127,-89 128,-165 0,-76 -43,-168 -128,-168 -86,1 -123,91 -123,167z"/>
 </g>
</svg>
