<?xml version="1.0" encoding="UTF-8"?>
<!DOCTYPE svg PUBLIC "-//W3C//DTD SVG 1.1//EN" "http://www.w3.org/Graphics/SVG/1.1/DTD/svg11.dtd">
<!-- Creator: CorelDRAW X8 -->
<svg xmlns="http://www.w3.org/2000/svg" xml:space="preserve" width="1357px" height="1412px" version="1.1" style="shape-rendering:geometricPrecision; text-rendering:geometricPrecision; image-rendering:optimizeQuality; fill-rule:evenodd; clip-rule:evenodd"
viewBox="0 0 1357 1412"
 xmlns:xlink="http://www.w3.org/1999/xlink">
 <defs>
  <style type="text/css">
   <![CDATA[
    .fil0 {fill:#996633;fill-rule:nonzero}
   ]]>
  </style>
 </defs>
 <g id="Layer_x0020_1">
  <metadata id="CorelCorpID_0Corel-Layer"/>
  <path class="fil0" d="M194 287c1,72 42,162 125,162 86,0 126,-86 127,-162 1,-76 -40,-171 -127,-171 -91,-1 -127,93 -125,171zm32 260c45,65 109,104 181,128 85,28 183,34 272,34 89,-1 187,-6 272,-34 71,-23 135,-63 180,-128 -30,11 -62,17 -94,18 -81,3 -165,-18 -229,-71 -62,-52 -92,-126 -93,-207 -1,-73 27,-141 78,-192 65,-65 154,-95 244,-95 92,0 166,28 219,78 54,50 86,123 97,209 7,53 5,107 -6,159 -25,116 -95,207 -193,269 -38,24 -79,42 -121,56 124,43 260,133 258,279 -3,272 -396,362 -609,362 -215,0 -613,-87 -616,-362 -2,-146 134,-236 258,-279 -42,-14 -83,-32 -121,-56 -98,-62 -168,-153 -193,-269 -11,-52 -13,-106 -6,-159 22,-179 135,-287 315,-287 89,0 180,30 245,95 49,50 78,116 78,187 0,83 -30,159 -93,212 -64,53 -148,74 -229,71 -32,-1 -64,-7 -94,-18zm811 -431c-87,0 -127,94 -126,171 1,75 41,163 126,162 83,-2 125,-87 126,-162 2,-77 -37,-172 -126,-171zm-355 1184c148,0 411,-61 411,-250 1,-186 -276,-230 -417,-231 -141,-1 -410,44 -412,228 -3,190 269,253 418,253z"/>
 </g>
</svg>
