<?xml version="1.0" encoding="UTF-8"?>
<!DOCTYPE svg PUBLIC "-//W3C//DTD SVG 1.1//EN" "http://www.w3.org/Graphics/SVG/1.1/DTD/svg11.dtd">
<!-- Creator: CorelDRAW X8 -->
<svg xmlns="http://www.w3.org/2000/svg" xml:space="preserve" width="1957px" height="1024px" version="1.1" style="shape-rendering:geometricPrecision; text-rendering:geometricPrecision; image-rendering:optimizeQuality; fill-rule:evenodd; clip-rule:evenodd"
viewBox="0 0 1957 1024"
 xmlns:xlink="http://www.w3.org/1999/xlink">
 <defs>
  <style type="text/css">
   <![CDATA[
    .fil0 {fill:#996633;fill-rule:nonzero}
   ]]>
  </style>
 </defs>
 <g id="Layer_x0020_1">
  <metadata id="CorelCorpID_0Corel-Layer"/>
  <path class="fil0" d="M1341 0c194,0 376,60 498,213 85,106 120,234 118,368 -1,95 -23,194 -74,276 -69,112 -188,168 -321,167 -125,-1 -242,-49 -312,-153 -46,-67 -67,-149 -67,-229 0,-98 32,-197 92,-276 76,-98 189,-155 311,-176 -68,-52 -158,-82 -244,-80 -173,4 -263,122 -263,284l0 574c0,41 -68,55 -101,55 -32,0 -101,-14 -101,-55l0 -574c0,-161 -89,-280 -262,-284 -86,-2 -176,28 -244,80 122,21 235,78 311,176 60,79 92,178 92,276 0,80 -21,162 -67,229 -70,104 -187,152 -312,153 -133,1 -252,-55 -321,-167 -51,-82 -73,-181 -74,-276 -2,-134 33,-262 118,-368 122,-153 304,-213 498,-213 142,0 259,31 363,130 103,-99 220,-130 362,-130zm-1063 293c-56,86 -77,187 -76,287 1,83 20,170 63,241 28,44 70,92 127,91 54,0 98,-38 126,-80 38,-55 53,-124 53,-190 0,-83 -24,-166 -75,-233 -53,-68 -130,-112 -218,-116zm1401 0c-88,4 -165,48 -218,116 -51,67 -75,150 -75,233 0,66 15,135 53,190 28,42 72,80 126,80 57,1 99,-47 127,-91 43,-71 62,-158 63,-241 1,-100 -20,-201 -76,-287z"/>
 </g>
</svg>
