<?xml version="1.0" encoding="UTF-8"?>
<!DOCTYPE svg PUBLIC "-//W3C//DTD SVG 1.1//EN" "http://www.w3.org/Graphics/SVG/1.1/DTD/svg11.dtd">
<!-- Creator: CorelDRAW X8 -->
<svg xmlns="http://www.w3.org/2000/svg" xml:space="preserve" width="1173px" height="600px" version="1.1" style="shape-rendering:geometricPrecision; text-rendering:geometricPrecision; image-rendering:optimizeQuality; fill-rule:evenodd; clip-rule:evenodd"
viewBox="0 0 1173 600"
 xmlns:xlink="http://www.w3.org/1999/xlink">
 <defs>
  <style type="text/css">
   <![CDATA[
    .fil0 {fill:#2B2A29;fill-rule:nonzero}
   ]]>
  </style>
 </defs>
 <g id="Layer_x0020_1">
  <metadata id="CorelCorpID_0Corel-Layer"/>
  <path class="fil0" d="M251 531c-54,0 -83,-65 -83,-118 0,-49 27,-118 82,-118 53,0 82,67 82,117 0,49 -28,116 -81,119zm679 0c-40,0 -66,-27 -81,-62 -12,-28 -17,-66 -17,-93 0,-48 13,-93 41,-132 28,-39 66,-63 114,-68 31,47 43,109 43,164 0,48 -9,100 -34,142 -15,26 -38,49 -66,49zm0 69c80,0 155,-30 199,-99 30,-48 44,-105 44,-161 0,-80 -18,-151 -70,-214 -77,-93 -186,-126 -304,-126 -72,0 -165,19 -223,61 -65,-48 -162,-61 -241,-61 -122,1 -240,48 -299,159 -25,48 -36,102 -36,157 0,86 27,181 97,236 45,35 98,48 154,48 54,-1 111,-15 153,-49 44,-33 66,-89 66,-143 0,-47 -15,-90 -49,-125 -42,-42 -104,-60 -164,-60 -40,0 -77,7 -111,28 5,-24 13,-48 24,-69 32,-62 93,-113 165,-113 92,0 170,50 170,149l0 347c0,28 51,35 71,35 21,0 71,-7 71,-35l0 -348c0,-90 63,-149 152,-149 45,0 93,18 129,44 -72,13 -139,45 -184,103 -36,45 -56,103 -56,161 0,47 13,94 40,133 47,66 124,91 202,91z"/>
 </g>
</svg>
