<?xml version="1.0" encoding="UTF-8"?>
<!DOCTYPE svg PUBLIC "-//W3C//DTD SVG 1.1//EN" "http://www.w3.org/Graphics/SVG/1.1/DTD/svg11.dtd">
<!-- Creator: CorelDRAW X8 -->
<svg xmlns="http://www.w3.org/2000/svg" xml:space="preserve" width="1174px" height="600px" version="1.1" style="shape-rendering:geometricPrecision; text-rendering:geometricPrecision; image-rendering:optimizeQuality; fill-rule:evenodd; clip-rule:evenodd"
viewBox="0 0 1174 600"
 xmlns:xlink="http://www.w3.org/1999/xlink">
 <defs>
  <style type="text/css">
   <![CDATA[
    .fil0 {fill:#A82682;fill-rule:nonzero}
   ]]>
  </style>
 </defs>
 <g id="Layer_x0020_1">
  <metadata id="CorelCorpID_0Corel-Layer"/>
  <path class="fil0" d="M587 61c58,-42 146,-61 218,-61 118,0 232,33 309,126 50,61 72,136 70,214 0,56 -14,113 -44,161 -45,70 -121,100 -203,99 -78,-1 -152,-26 -198,-91 -27,-39 -40,-86 -40,-133 0,-58 20,-116 56,-161 45,-58 112,-90 184,-103 -37,-27 -87,-45 -133,-44 -88,2 -148,62 -148,149l0 348c0,28 -50,35 -71,35 -20,0 -71,-7 -71,-35l0 -347c0,-93 -72,-150 -170,-149 -72,0 -133,51 -165,113 -11,21 -19,45 -24,69 31,-19 66,-27 102,-28 62,-2 129,16 173,60 35,36 50,81 49,130 -2,53 -23,105 -66,138 -42,34 -99,48 -153,49 -56,0 -109,-13 -154,-48 -70,-55 -97,-150 -97,-236 0,-55 11,-109 36,-157 59,-111 177,-158 299,-159 79,0 176,13 241,61zm-408 352c0,31 7,63 27,87 14,17 33,31 56,31 19,-1 36,-13 49,-26 23,-25 32,-61 32,-93 0,-32 -9,-67 -31,-91 -13,-14 -31,-26 -51,-26 -22,0 -41,14 -54,30 -21,25 -28,57 -28,88zm757 118c33,0 56,-23 71,-49 25,-42 34,-94 34,-142 0,-55 -12,-117 -43,-164 -48,5 -86,29 -114,68 -26,36 -39,83 -41,127 -1,34 3,70 18,101 14,30 39,59 75,59z"/>
 </g>
</svg>
