<?xml version="1.0" encoding="UTF-8"?>
<!DOCTYPE svg PUBLIC "-//W3C//DTD SVG 1.1//EN" "http://www.w3.org/Graphics/SVG/1.1/DTD/svg11.dtd">
<!-- Creator: CorelDRAW X8 -->
<svg xmlns="http://www.w3.org/2000/svg" xml:space="preserve" width="1956px" height="1400px" version="1.1" style="shape-rendering:geometricPrecision; text-rendering:geometricPrecision; image-rendering:optimizeQuality; fill-rule:evenodd; clip-rule:evenodd"
viewBox="0 0 1956 1400"
 xmlns:xlink="http://www.w3.org/1999/xlink">
 <defs>
  <style type="text/css">
   <![CDATA[
    .fil0 {fill:#996633;fill-rule:nonzero}
   ]]>
  </style>
 </defs>
 <g id="Layer_x0020_1">
  <metadata id="CorelCorpID_0Corel-Layer"/>
  <path class="fil0" d="M296 912c37,17 53,52 15,79 -39,27 -103,26 -145,6 -106,-51 -166,-144 -166,-261 0,-201 183,-306 364,-306 182,0 363,105 363,305 0,56 -13,105 -43,153l165 0c-6,-65 -7,-123 -4,-188 16,-352 154,-700 557,-700 424,0 545,370 554,733 4,198 -36,495 -186,639 -32,30 -96,33 -136,20 -34,-11 -69,-43 -35,-76 128,-123 162,-414 159,-583 -6,-217 -71,-621 -356,-621 -270,0 -350,378 -359,589 -3,64 -2,123 5,187l256 0 0 -606c0,-42 67,-56 99,-56 32,0 99,14 99,56l0 668c0,94 4,208 -22,297 -35,118 -121,156 -238,153 -236,-6 -338,-190 -378,-400l-348 0c-28,0 -52,-7 -70,-17 -40,-22 -38,-57 -2,-79 61,-35 84,-102 84,-169 0,-96 -59,-193 -164,-193 -104,0 -165,97 -165,194 0,71 29,146 97,176zm1008 88l-240 0c11,114 76,286 180,288 54,2 54,-77 58,-153 3,-54 2,-113 2,-135z"/>
 </g>
</svg>
