<?xml version="1.0" encoding="UTF-8"?>
<!DOCTYPE svg PUBLIC "-//W3C//DTD SVG 1.1//EN" "http://www.w3.org/Graphics/SVG/1.1/DTD/svg11.dtd">
<!-- Creator: CorelDRAW X8 -->
<svg xmlns="http://www.w3.org/2000/svg" xml:space="preserve" width="2044px" height="1400px" version="1.1" style="shape-rendering:geometricPrecision; text-rendering:geometricPrecision; image-rendering:optimizeQuality; fill-rule:evenodd; clip-rule:evenodd"
viewBox="0 0 2044 1400"
 xmlns:xlink="http://www.w3.org/1999/xlink">
 <defs>
  <style type="text/css">
   <![CDATA[
    .fil0 {fill:#996633;fill-rule:nonzero}
   ]]>
  </style>
 </defs>
 <g id="Layer_x0020_1">
  <metadata id="CorelCorpID_0Corel-Layer"/>
  <path class="fil0" d="M1579 826c0,-39 60,-54 95,-56 19,0 32,0 51,-6 76,-25 118,-141 111,-269 -11,-205 -136,-384 -361,-383 -308,0 -405,361 -412,606 -2,59 -1,111 5,170l263 0 0 -607c0,-42 69,-56 101,-56 32,0 102,14 102,56 0,206 -1,507 0,689 0,86 0,199 -24,277 -36,117 -124,156 -243,153 -239,-6 -344,-192 -385,-400l-355 0c-33,0 -103,-15 -102,-57 0,-14 10,-28 29,-39 61,-35 85,-102 85,-169 0,-96 -60,-193 -167,-193 -107,0 -169,96 -169,193 0,70 29,146 99,177 23,11 38,27 38,45 0,11 -7,23 -23,34 -39,27 -103,26 -145,7 -110,-50 -172,-145 -172,-263 0,-202 187,-305 372,-305 185,0 370,105 370,305 0,56 -14,105 -44,153l168 0c-6,-59 -8,-111 -6,-170 12,-384 181,-718 615,-718 294,0 564,184 564,493 0,116 -31,248 -130,323 93,56 136,155 135,259 -2,196 -130,322 -330,324 -46,0 -81,-7 -125,-23 -24,-8 -47,-26 -47,-47 0,-10 5,-20 17,-30 20,-17 48,-25 76,-25 17,0 35,3 51,8 8,3 19,5 28,5 75,-1 127,-106 131,-209 3,-88 -28,-174 -108,-192 -17,-3 -37,-5 -59,-5 -34,0 -100,-14 -99,-55zm-493 174c9,96 65,283 184,288 58,3 57,-113 59,-155 2,-43 2,-94 2,-133l-245 0z"/>
 </g>
</svg>
