<?xml version="1.0" encoding="UTF-8"?>
<!DOCTYPE svg PUBLIC "-//W3C//DTD SVG 1.1//EN" "http://www.w3.org/Graphics/SVG/1.1/DTD/svg11.dtd">
<!-- Creator: CorelDRAW X8 -->
<svg xmlns="http://www.w3.org/2000/svg" xml:space="preserve" width="1241px" height="1024px" version="1.1" style="shape-rendering:geometricPrecision; text-rendering:geometricPrecision; image-rendering:optimizeQuality; fill-rule:evenodd; clip-rule:evenodd"
viewBox="0 0 1241 1024"
 xmlns:xlink="http://www.w3.org/1999/xlink">
 <defs>
  <style type="text/css">
   <![CDATA[
    .fil0 {fill:#5B5A50;fill-rule:nonzero}
   ]]>
  </style>
 </defs>
 <g id="Layer_x0020_1">
  <metadata id="CorelCorpID_0Corel-Layer"/>
  <path class="fil0" d="M733 706c-2,89 -37,179 -108,237 -66,54 -155,80 -240,81 -149,1 -265,-63 -332,-194 -48,-96 -57,-205 -51,-311 9,-165 83,-303 224,-397 124,-83 279,-118 427,-122 118,-2 250,17 358,66 115,52 197,136 200,266 2,79 -37,148 -102,193 81,46 133,124 132,218 -1,63 -26,121 -67,170 -62,75 -171,109 -267,111 -52,1 -89,-8 -139,-25 -36,-12 -67,-45 -31,-76 33,-29 88,-32 129,-18 13,5 27,8 40,8 33,-1 65,-23 85,-46 29,-35 47,-79 48,-124 0,-49 -19,-98 -58,-129 -22,-17 -43,-26 -70,-28 -16,-1 -33,2 -50,1 -30,-2 -85,-17 -88,-53 -3,-38 57,-55 86,-57 16,-2 33,0 48,-3 25,-4 42,-15 60,-32 30,-28 43,-69 42,-109 -2,-66 -33,-117 -87,-155 -72,-51 -181,-68 -268,-67 -117,2 -236,31 -324,112 -61,58 -97,132 -115,213 50,-35 107,-52 168,-54 98,-3 202,30 270,101 58,61 83,140 80,223zm-504 0c0,90 46,206 154,207 108,0 155,-117 155,-207 0,-91 -45,-207 -153,-207 -109,0 -155,116 -156,207z"/>
 </g>
</svg>
