<?xml version="1.0" encoding="UTF-8"?>
<!DOCTYPE svg PUBLIC "-//W3C//DTD SVG 1.1//EN" "http://www.w3.org/Graphics/SVG/1.1/DTD/svg11.dtd">
<!-- Creator: CorelDRAW X8 -->
<svg xmlns="http://www.w3.org/2000/svg" xml:space="preserve" width="1201px" height="1024px" version="1.1" style="shape-rendering:geometricPrecision; text-rendering:geometricPrecision; image-rendering:optimizeQuality; fill-rule:evenodd; clip-rule:evenodd"
viewBox="0 0 1201 1024"
 xmlns:xlink="http://www.w3.org/1999/xlink">
 <defs>
  <style type="text/css">
   <![CDATA[
    .fil0 {fill:#996633;fill-rule:nonzero}
   ]]>
  </style>
 </defs>
 <g id="Layer_x0020_1">
  <metadata id="CorelCorpID_0Corel-Layer"/>
  <path class="fil0" d="M710 706c-3,89 -36,179 -105,237 -64,54 -151,80 -233,81 -143,1 -256,-63 -320,-194 -47,-96 -56,-205 -51,-311 9,-165 81,-303 218,-397 119,-83 270,-118 413,-122 114,-2 242,17 346,66 112,52 191,136 194,266 2,79 -35,148 -99,193 78,46 129,124 128,218 -1,63 -25,121 -64,170 -61,75 -166,109 -259,111 -50,1 -87,-8 -134,-25 -35,-12 -66,-45 -31,-76 32,-30 86,-32 125,-18 13,5 26,8 39,8 32,-1 62,-23 82,-46 28,-35 45,-79 46,-124 1,-49 -18,-98 -56,-129 -21,-17 -41,-26 -67,-28 -16,-1 -32,2 -49,1 -29,-2 -82,-17 -85,-53 -3,-38 55,-55 84,-57 15,-2 32,0 46,-3 24,-4 40,-15 58,-32 29,-28 42,-69 40,-109 -2,-66 -32,-117 -84,-155 -69,-51 -175,-68 -259,-67 -114,2 -229,31 -313,112 -60,58 -95,132 -111,213 47,-35 103,-52 162,-54 95,-3 195,30 261,101 56,61 80,140 78,223zm-488 0c0,90 44,206 148,207 105,0 151,-117 151,-207 0,-91 -44,-207 -149,-207 -105,0 -150,116 -150,207z"/>
 </g>
</svg>
