<?xml version="1.0" encoding="UTF-8"?>
<!DOCTYPE svg PUBLIC "-//W3C//DTD SVG 1.1//EN" "http://www.w3.org/Graphics/SVG/1.1/DTD/svg11.dtd">
<!-- Creator: CorelDRAW X8 -->
<svg xmlns="http://www.w3.org/2000/svg" xml:space="preserve" width="1747px" height="1024px" version="1.1" style="shape-rendering:geometricPrecision; text-rendering:geometricPrecision; image-rendering:optimizeQuality; fill-rule:evenodd; clip-rule:evenodd"
viewBox="0 0 1747 1024"
 xmlns:xlink="http://www.w3.org/1999/xlink">
 <defs>
  <style type="text/css">
   <![CDATA[
    .fil0 {fill:#996633;fill-rule:nonzero}
   ]]>
  </style>
 </defs>
 <g id="Layer_x0020_1">
  <metadata id="CorelCorpID_0Corel-Layer"/>
  <path class="fil0" d="M874 0c150,0 284,48 360,183 43,77 60,170 65,257l54 0c97,0 205,21 285,80 74,54 109,130 109,221 0,73 -29,138 -82,188 -66,63 -160,94 -251,94 -39,1 -179,-10 -179,-67 0,-19 20,-35 43,-44 19,-8 38,-11 58,-11 30,0 53,12 77,11 40,-1 74,-26 97,-56 23,-32 37,-73 38,-113 0,-45 -13,-89 -42,-125 -38,-47 -93,-67 -153,-67l-52 0c-4,98 -20,206 -70,293 -76,133 -209,180 -357,180 -108,0 -216,-25 -296,-101 -59,73 -150,101 -241,101 -93,0 -190,-30 -257,-95 -52,-51 -81,-119 -80,-192 1,-72 30,-141 81,-192 79,-78 194,-105 303,-105l64 0c5,-87 22,-179 64,-256 77,-135 211,-184 362,-184zm-415 675c-7,-41 -11,-82 -13,-124l-62 0c-49,0 -93,13 -128,48 -36,36 -55,87 -56,137 -1,51 17,102 54,138 21,20 52,39 82,39 29,0 58,-20 77,-39 48,-52 57,-132 46,-199zm642 -124l-455 0c4,86 17,185 61,260 37,64 91,102 167,102 76,0 130,-38 167,-102 43,-76 57,-174 60,-260zm-453 -111l451 0c-5,-75 -19,-157 -56,-224 -37,-65 -92,-105 -169,-105 -78,0 -133,40 -170,106 -37,66 -52,148 -56,223z"/>
 </g>
</svg>
