<?xml version="1.0" encoding="UTF-8"?>
<!DOCTYPE svg PUBLIC "-//W3C//DTD SVG 1.1//EN" "http://www.w3.org/Graphics/SVG/1.1/DTD/svg11.dtd">
<!-- Creator: CorelDRAW X8 -->
<svg xmlns="http://www.w3.org/2000/svg" xml:space="preserve" width="1748px" height="1024px" version="1.1" style="shape-rendering:geometricPrecision; text-rendering:geometricPrecision; image-rendering:optimizeQuality; fill-rule:evenodd; clip-rule:evenodd"
viewBox="0 0 1748 1024"
 xmlns:xlink="http://www.w3.org/1999/xlink">
 <defs>
  <style type="text/css">
   <![CDATA[
    .fil0 {fill:#2B2A29;fill-rule:nonzero}
   ]]>
  </style>
 </defs>
 <g id="Layer_x0020_1">
  <metadata id="CorelCorpID_0Corel-Layer"/>
  <path class="fil0" d="M874 1024c148,0 282,-47 358,-180 50,-87 66,-195 70,-293l52 0c60,0 115,20 153,67 29,36 42,80 42,125 -1,40 -15,81 -38,113 -24,32 -59,56 -100,56 -32,0 -54,-11 -82,-11 -15,0 -30,2 -50,11 -30,13 -43,29 -43,44 0,19 20,38 54,50 38,13 84,18 125,18 91,0 185,-32 251,-95 53,-50 82,-115 82,-188 0,-91 -35,-167 -109,-221 -80,-59 -188,-80 -285,-80l-54 0c-5,-87 -22,-180 -65,-257 -76,-135 -211,-183 -361,-183 -151,0 -285,49 -362,184 -42,77 -59,169 -64,256l-64 0c-109,0 -224,27 -303,105 -52,52 -81,123 -81,196 0,71 29,138 80,188 67,65 164,95 257,95 91,0 182,-28 241,-101 80,76 188,101 296,101zm226 -584l-452 0c8,-151 63,-329 226,-329 164,0 216,174 226,329zm-764 473c-30,0 -61,-19 -82,-39 -36,-35 -54,-84 -54,-134 0,-51 19,-104 56,-141 35,-35 79,-48 128,-48l62 0c2,42 6,83 13,124 3,16 4,34 4,51 0,54 -14,109 -50,148 -19,19 -48,39 -77,39zm538 0c-173,0 -220,-194 -228,-362l456 0c-6,166 -56,362 -228,362z"/>
 </g>
</svg>
