<?xml version="1.0" encoding="UTF-8"?>
<!DOCTYPE svg PUBLIC "-//W3C//DTD SVG 1.1//EN" "http://www.w3.org/Graphics/SVG/1.1/DTD/svg11.dtd">
<!-- Creator: CorelDRAW X8 -->
<svg xmlns="http://www.w3.org/2000/svg" xml:space="preserve" width="1767px" height="1024px" version="1.1" style="shape-rendering:geometricPrecision; text-rendering:geometricPrecision; image-rendering:optimizeQuality; fill-rule:evenodd; clip-rule:evenodd"
viewBox="0 0 1767 1024"
 xmlns:xlink="http://www.w3.org/1999/xlink">
 <defs>
  <style type="text/css">
   <![CDATA[
    .fil0 {fill:#E31E24;fill-rule:nonzero}
   ]]>
  </style>
 </defs>
 <g id="Layer_x0020_1">
  <metadata id="CorelCorpID_0Corel-Layer"/>
  <path class="fil0" d="M884 1024c150,0 284,-47 361,-180 51,-87 67,-195 71,-293l52 0c61,0 117,20 155,67 29,36 43,80 43,125 -1,40 -15,82 -39,113 -24,32 -60,56 -101,56 -32,0 -54,-11 -83,-11 -15,0 -30,2 -51,11 -30,13 -43,29 -43,44 0,19 20,38 55,49 39,13 85,18 126,18 92,0 187,-31 254,-94 53,-50 83,-115 83,-188 0,-91 -36,-167 -110,-221 -81,-59 -190,-80 -289,-80l-54 0c-5,-87 -22,-180 -66,-257 -77,-135 -212,-183 -364,-183 -153,0 -289,48 -366,184 -43,76 -60,169 -65,256l-65 0c-110,0 -226,27 -306,105 -53,52 -82,123 -82,196 0,71 29,138 81,188 68,65 166,95 260,95 92,0 184,-28 244,-101 81,76 190,101 299,101zm228 -584l-457 0c9,-151 64,-329 229,-329 165,0 217,174 228,329zm-772 473c-31,0 -62,-19 -83,-39 -37,-35 -55,-84 -55,-134 0,-51 20,-104 57,-141 35,-35 80,-48 129,-48l63 0c2,42 6,83 13,124 3,16 4,34 4,51 0,54 -13,110 -50,148 -19,20 -49,39 -78,39zm544 0c-175,0 -222,-194 -231,-362l461 0c-6,166 -56,362 -230,362z"/>
 </g>
</svg>
