<?xml version="1.0" encoding="UTF-8"?>
<!DOCTYPE svg PUBLIC "-//W3C//DTD SVG 1.1//EN" "http://www.w3.org/Graphics/SVG/1.1/DTD/svg11.dtd">
<!-- Creator: CorelDRAW X8 -->
<svg xmlns="http://www.w3.org/2000/svg" xml:space="preserve" width="1081px" height="600px" version="1.1" style="shape-rendering:geometricPrecision; text-rendering:geometricPrecision; image-rendering:optimizeQuality; fill-rule:evenodd; clip-rule:evenodd"
viewBox="0 0 1081 600"
 xmlns:xlink="http://www.w3.org/1999/xlink">
 <defs>
  <style type="text/css">
   <![CDATA[
    .fil0 {fill:#996633;fill-rule:nonzero}
   ]]>
  </style>
 </defs>
 <g id="Layer_x0020_1">
  <metadata id="CorelCorpID_0Corel-Layer"/>
  <path class="fil0" d="M1038 537c-42,42 -107,62 -167,63 -15,0 -27,-1 -38,-3 -16,-3 -46,-10 -59,-21 -8,-6 -11,-12 -11,-18 0,-11 14,-21 28,-27 12,-5 23,-7 35,-7 17,0 30,7 44,7 21,-1 43,-18 55,-35 11,-17 17,-41 16,-61 0,-21 -6,-43 -16,-60 -20,-33 -55,-50 -94,-50l-21 0c-2,57 -12,119 -42,168 -49,82 -136,107 -227,107 -63,0 -128,-12 -179,-51 -38,38 -94,51 -147,51 -59,0 -122,-16 -166,-57 -32,-30 -49,-69 -49,-112 0,-42 18,-83 49,-112 51,-48 126,-63 195,-63l28 0c3,-50 13,-103 39,-147 49,-83 137,-109 230,-109 92,0 180,25 229,109 26,44 36,97 39,147l22 0c71,0 156,16 207,68 29,30 43,67 43,109 0,40 -14,75 -43,104zm-624 -281l253 0c-3,-43 -12,-90 -34,-128 -20,-33 -51,-59 -92,-59 -42,0 -73,26 -93,60 -22,37 -31,84 -34,127zm254 69l-255 0c2,49 11,106 37,149 20,32 50,57 91,57 40,0 71,-25 90,-58 26,-43 35,-99 37,-148zm-390 70c-4,-23 -6,-47 -7,-70l-27 0c-28,0 -53,10 -72,30 -19,20 -29,47 -30,75 0,21 7,45 17,63 11,19 30,39 54,38 35,-1 57,-42 64,-70 5,-22 5,-44 1,-66z"/>
 </g>
</svg>
