<?xml version="1.0" encoding="UTF-8"?>
<!DOCTYPE svg PUBLIC "-//W3C//DTD SVG 1.1//EN" "http://www.w3.org/Graphics/SVG/1.1/DTD/svg11.dtd">
<!-- Creator: CorelDRAW X8 -->
<svg xmlns="http://www.w3.org/2000/svg" xml:space="preserve" width="1061px" height="600px" version="1.1" style="shape-rendering:geometricPrecision; text-rendering:geometricPrecision; image-rendering:optimizeQuality; fill-rule:evenodd; clip-rule:evenodd"
viewBox="0 0 1061 600"
 xmlns:xlink="http://www.w3.org/1999/xlink">
 <defs>
  <style type="text/css">
   <![CDATA[
    .fil0 {fill:#996633;fill-rule:nonzero}
   ]]>
  </style>
 </defs>
 <g id="Layer_x0020_1">
  <metadata id="CorelCorpID_0Corel-Layer"/>
  <path class="fil0" d="M1019 537c-42,42 -105,62 -164,63 -15,0 -26,-1 -37,-3 -16,-3 -45,-10 -59,-21 -30,-24 12,-47 36,-51 14,-2 29,-1 43,3 4,1 9,3 15,3 22,-1 43,-18 55,-35 11,-17 16,-41 16,-61 0,-21 -6,-43 -16,-60 -20,-33 -55,-50 -92,-50l-21 0c-2,57 -12,119 -41,168 -48,82 -134,107 -223,107 -62,0 -126,-12 -175,-51 -38,38 -93,51 -145,51 -58,0 -120,-16 -163,-57 -31,-30 -48,-69 -48,-112 0,-42 18,-83 49,-112 50,-48 123,-63 190,-63l28 0c3,-50 13,-103 38,-147 48,-83 134,-109 226,-109 91,0 176,25 224,109 26,44 36,97 39,147l22 0c69,0 153,16 203,68 29,30 42,67 42,109 0,40 -14,75 -42,104zm-613 -281l249 0c-3,-43 -12,-90 -34,-128 -19,-33 -50,-59 -90,-59 -41,0 -72,26 -91,60 -22,37 -31,84 -34,127zm249 69l-249 0c2,49 10,106 36,149 19,32 49,57 89,57 39,0 69,-25 89,-58 25,-43 33,-99 35,-148zm-382 70c-4,-23 -6,-47 -7,-70l-27 0c-27,0 -51,10 -70,30 -19,20 -29,47 -29,75 -1,21 6,45 17,63 10,19 29,39 52,38 34,-1 56,-42 63,-70 5,-22 5,-44 1,-66z"/>
 </g>
</svg>
