<?xml version="1.0" encoding="UTF-8"?>
<!DOCTYPE svg PUBLIC "-//W3C//DTD SVG 1.1//EN" "http://www.w3.org/Graphics/SVG/1.1/DTD/svg11.dtd">
<!-- Creator: CorelDRAW X8 -->
<svg xmlns="http://www.w3.org/2000/svg" xml:space="preserve" width="3444px" height="1486px" version="1.1" style="shape-rendering:geometricPrecision; text-rendering:geometricPrecision; image-rendering:optimizeQuality; fill-rule:evenodd; clip-rule:evenodd"
viewBox="0 0 3444 1487"
 xmlns:xlink="http://www.w3.org/1999/xlink">
 <defs>
  <style type="text/css">
   <![CDATA[
    .fil0 {fill:#2B2A29;fill-rule:nonzero}
   ]]>
  </style>
 </defs>
 <g id="Layer_x0020_1">
  <metadata id="CorelCorpID_0Corel-Layer"/>
  <path class="fil0" d="M2407 1457c261,-32 548,-110 755,-275 193,-154 282,-358 282,-603 0,-105 -24,-206 -73,-299 -97,-182 -290,-280 -495,-280 -77,0 -156,11 -229,36 -73,-25 -153,-36 -229,-36 -204,0 -397,100 -492,280 -31,59 -52,123 -62,188 -65,-24 -110,-28 -179,-28 -6,-88 -22,-178 -66,-255 -78,-136 -212,-185 -365,-185 -290,0 -415,169 -431,440l-64 0c-110,0 -226,30 -307,109 -52,51 -82,114 -82,187 0,73 28,141 81,192 68,66 166,96 260,96 93,0 184,-28 244,-101 80,76 189,101 299,101 151,0 285,-47 361,-181 52,-88 68,-192 72,-292l20 0c38,0 72,18 99,41 31,27 53,60 62,103 26,121 90,236 200,301 28,17 62,28 96,28 24,0 48,-6 69,-19 19,-11 28,-24 28,-37 0,-16 -12,-30 -33,-41 -125,-65 -170,-225 -170,-354 0,-90 20,-182 62,-262 57,-106 173,-199 298,-199 24,0 48,2 72,6 -151,113 -229,297 -229,481 0,85 17,169 59,244 68,122 188,181 327,181 140,0 261,-59 329,-182 42,-75 59,-158 59,-243 0,-185 -78,-368 -230,-481 24,-4 47,-6 71,-6 128,0 243,91 300,199 45,84 66,174 66,268 0,211 -70,395 -236,532 -175,145 -419,209 -641,235 -195,23 -387,28 -583,28 -208,0 -418,-3 -625,-26 -207,-24 -409,-68 -563,-153 -248,-136 -391,-349 -392,-633 0,-180 79,-367 235,-469 17,-11 24,-23 24,-36 0,-16 -14,-33 -36,-43 -20,-9 -43,-14 -66,-14 -27,0 -55,7 -77,21 -183,119 -282,327 -282,541 0,328 172,559 452,713 179,98 405,151 636,179 229,28 464,33 694,33 209,0 417,-7 625,-30zm-924 -1017l-458 0c10,-152 64,-328 229,-328 163,0 219,174 229,328zm1164 472c-61,0 -107,-54 -134,-102 -36,-64 -50,-138 -50,-211 0,-150 62,-317 184,-411 124,95 186,259 186,411 0,74 -14,145 -51,210 -26,49 -74,103 -135,103zm-1937 0c-31,0 -61,-17 -83,-39 -36,-35 -54,-85 -54,-135 0,-52 20,-98 56,-135 36,-35 80,-51 130,-51l63 0c1,42 5,80 12,121 3,17 5,35 5,53 0,54 -15,108 -51,147 -19,20 -49,39 -78,39zm544 0c-173,0 -224,-194 -230,-360l459 0c-6,164 -54,360 -229,360z"/>
 </g>
</svg>
