<?xml version="1.0" encoding="UTF-8"?>
<!DOCTYPE svg PUBLIC "-//W3C//DTD SVG 1.1//EN" "http://www.w3.org/Graphics/SVG/1.1/DTD/svg11.dtd">
<!-- Creator: CorelDRAW X8 -->
<svg xmlns="http://www.w3.org/2000/svg" xml:space="preserve" width="1098px" height="868px" version="1.1" style="shape-rendering:geometricPrecision; text-rendering:geometricPrecision; image-rendering:optimizeQuality; fill-rule:evenodd; clip-rule:evenodd"
viewBox="0 0 1098 868"
 xmlns:xlink="http://www.w3.org/1999/xlink">
 <defs>
  <style type="text/css">
   <![CDATA[
    .fil0 {fill:#2B2A29;fill-rule:nonzero}
   ]]>
  </style>
 </defs>
 <g id="Layer_x0020_1">
  <metadata id="CorelCorpID_0Corel-Layer"/>
  <path class="fil0" d="M997 868c30,0 72,-13 72,-48 0,-35 -42,-48 -72,-48l-797 0c-30,0 -56,-2 -56,-39 0,-35 30,-37 60,-37l682 0c88,0 212,-31 212,-140 0,-45 -25,-86 -67,-104 28,-17 45,-46 45,-79 -1,-33 -13,-62 -41,-82 -36,-27 -89,-36 -133,-36l-93 0c-3,-50 -14,-101 -39,-146 -49,-83 -137,-109 -229,-109 -93,0 -181,26 -230,110 -26,44 -36,95 -39,145l-28 0c-69,0 -144,17 -194,66 -31,29 -50,67 -50,109 0,43 17,83 49,113 44,41 107,60 166,60 53,0 109,-16 147,-54 50,39 116,54 178,54 92,0 179,-28 228,-110 29,-49 41,-112 41,-168l87 0c26,0 54,21 54,49 0,15 -5,30 -17,40 -6,4 -14,7 -23,7l-22 0c-20,0 -57,10 -57,36 0,25 38,36 59,36 8,0 14,-2 26,-2 9,0 17,1 25,6 20,10 27,34 27,55 0,45 -39,75 -82,75l-683 0c-81,0 -203,12 -203,120 0,105 117,121 200,121l797 0zm-330 -613l-253 0c6,-84 41,-186 127,-186 85,0 120,103 126,186zm-127 276c-89,0 -123,-114 -127,-206l255 0c-3,83 -33,206 -128,206zm-327 0c-24,0 -43,-20 -54,-38 -10,-19 -17,-43 -17,-64 1,-27 11,-51 30,-72 19,-20 44,-32 72,-32l27 0c1,23 3,46 7,69 2,11 3,21 3,32 0,24 -5,48 -18,69 -12,19 -28,35 -50,36z"/>
 </g>
</svg>
