<?xml version="1.0" encoding="UTF-8"?>
<!DOCTYPE svg PUBLIC "-//W3C//DTD SVG 1.1//EN" "http://www.w3.org/Graphics/SVG/1.1/DTD/svg11.dtd">
<!-- Creator: CorelDRAW X8 -->
<svg xmlns="http://www.w3.org/2000/svg" xml:space="preserve" width="3070px" height="1024px" version="1.1" style="shape-rendering:geometricPrecision; text-rendering:geometricPrecision; image-rendering:optimizeQuality; fill-rule:evenodd; clip-rule:evenodd"
viewBox="0 0 3070 1024"
 xmlns:xlink="http://www.w3.org/1999/xlink">
 <defs>
  <style type="text/css">
   <![CDATA[
    .fil0 {fill:#5B5A50;fill-rule:nonzero}
   ]]>
  </style>
 </defs>
 <g id="Layer_x0020_1">
  <metadata id="CorelCorpID_0Corel-Layer"/>
  <path class="fil0" d="M1857 927c40,20 45,55 6,79 -52,30 -116,19 -166,-10 -109,-65 -174,-179 -200,-299 -9,-43 -31,-82 -62,-109 -27,-23 -61,-37 -98,-37l-21 0c-4,98 -20,206 -71,293 -77,133 -211,180 -361,180 -110,0 -219,-25 -300,-101 -59,73 -151,101 -243,101 -94,0 -192,-30 -260,-95 -53,-51 -82,-119 -81,-192 1,-72 30,-141 82,-192 80,-78 196,-105 307,-105l64 0c5,-87 22,-179 65,-256 77,-135 213,-184 366,-184 152,0 287,48 364,183 44,77 61,170 66,257l23 0c53,0 106,6 156,25 10,-65 31,-128 62,-187 95,-179 291,-278 495,-278 77,0 154,11 226,35 74,-24 150,-35 228,-35 204,0 400,98 496,278 47,88 69,192 70,291 1,166 -60,337 -212,427 -50,29 -114,40 -166,10 -39,-24 -34,-59 5,-79 127,-65 171,-229 171,-358 -1,-88 -20,-181 -62,-260 -58,-108 -174,-198 -302,-198 -23,0 -47,2 -69,6 152,112 229,294 229,478 0,85 -17,174 -59,248 -68,123 -189,181 -329,181 -139,0 -259,-59 -327,-180 -41,-74 -59,-165 -59,-249 0,-182 78,-366 229,-478 -23,-4 -46,-6 -69,-6 -127,0 -244,92 -301,198 -42,79 -62,171 -62,260 0,128 45,294 170,358zm-1393 -252c-7,-41 -11,-82 -12,-124l-63 0c-50,0 -94,13 -130,48 -36,36 -55,87 -57,137 -1,51 17,102 55,138 21,20 53,39 83,39 29,0 58,-20 77,-39 49,-52 59,-132 47,-199zm649 -124l-459 0c3,86 17,185 61,260 38,64 92,102 169,102 77,0 131,-38 169,-102 44,-76 57,-174 60,-260zm-458 -111l457 0c-5,-75 -19,-157 -57,-224 -38,-65 -93,-105 -171,-105 -79,0 -135,40 -172,106 -38,66 -52,148 -57,223zm1622 -253c-123,93 -185,259 -185,408 1,73 15,152 51,217 26,47 73,101 133,101 61,0 109,-54 136,-102 36,-65 50,-143 50,-216 0,-151 -61,-314 -185,-408z"/>
 </g>
</svg>
