<?xml version="1.0" encoding="UTF-8"?>
<!DOCTYPE svg PUBLIC "-//W3C//DTD SVG 1.1//EN" "http://www.w3.org/Graphics/SVG/1.1/DTD/svg11.dtd">
<!-- Creator: CorelDRAW X8 -->
<svg xmlns="http://www.w3.org/2000/svg" xml:space="preserve" width="2116px" height="1486px" version="1.1" style="shape-rendering:geometricPrecision; text-rendering:geometricPrecision; image-rendering:optimizeQuality; fill-rule:evenodd; clip-rule:evenodd"
viewBox="0 0 2116 1487"
 xmlns:xlink="http://www.w3.org/1999/xlink">
 <defs>
  <style type="text/css">
   <![CDATA[
    .fil0 {fill:#2B2A29;fill-rule:nonzero}
   ]]>
  </style>
 </defs>
 <g id="Layer_x0020_1">
  <metadata id="CorelCorpID_0Corel-Layer"/>
  <path class="fil0" d="M1140 1487c221,0 423,-35 620,-145 192,-110 356,-302 356,-529 0,-116 -43,-233 -139,-303 -75,-55 -164,-70 -255,-70l-55 0c-5,-88 -22,-178 -66,-255 -77,-136 -212,-185 -365,-185 -152,0 -288,49 -366,186 -43,77 -60,167 -65,254l-64 0c-110,0 -227,30 -307,108 -52,53 -82,117 -82,191 0,71 29,139 81,189 68,65 166,96 260,96 92,0 185,-29 245,-102 80,76 188,102 298,102 151,0 285,-48 362,-181 51,-88 67,-192 71,-292l53 0c72,0 114,27 151,91 30,52 40,112 40,171 0,191 -135,359 -298,451 -155,87 -301,111 -475,111 -258,0 -512,-57 -706,-233 -164,-147 -231,-335 -231,-551 0,-185 78,-393 240,-499 17,-11 24,-23 24,-35 0,-17 -14,-33 -36,-43 -19,-9 -43,-14 -67,-14 -27,0 -55,7 -76,20 -191,125 -288,347 -288,571 0,254 92,471 291,635 238,198 545,261 849,261zm325 -1047l-457 0c10,-152 64,-328 228,-328 164,0 219,174 229,328zm-773 472c-30,0 -62,-19 -83,-39 -36,-35 -54,-83 -54,-132 0,-54 17,-99 56,-138 36,-35 80,-52 130,-52l63 0c1,42 5,80 12,122 3,17 5,35 5,53 0,53 -15,107 -52,146 -18,20 -48,40 -77,40zm544 0c-172,0 -224,-193 -230,-361l460 0c-6,169 -57,361 -230,361z"/>
 </g>
</svg>
