<?xml version="1.0" encoding="UTF-8"?>
<!DOCTYPE svg PUBLIC "-//W3C//DTD SVG 1.1//EN" "http://www.w3.org/Graphics/SVG/1.1/DTD/svg11.dtd">
<!-- Creator: CorelDRAW X8 -->
<svg xmlns="http://www.w3.org/2000/svg" xml:space="preserve" width="1729px" height="1486px" version="1.1" style="shape-rendering:geometricPrecision; text-rendering:geometricPrecision; image-rendering:optimizeQuality; fill-rule:evenodd; clip-rule:evenodd"
viewBox="0 0 1729 1486"
 xmlns:xlink="http://www.w3.org/1999/xlink">
 <defs>
  <style type="text/css">
   <![CDATA[
    .fil0 {fill:#996633;fill-rule:nonzero}
   ]]>
  </style>
 </defs>
 <g id="Layer_x0020_1">
  <metadata id="CorelCorpID_0Corel-Layer"/>
  <path class="fil0" d="M864 0c148,0 281,49 356,185 43,77 59,167 65,255l144 0c76,0 161,17 216,74 33,34 47,77 48,125 0,55 -27,106 -75,134 69,32 110,102 111,178 2,171 -173,239 -317,239l-1103 0c-52,0 -111,4 -109,70 2,66 56,68 109,68l1293 0c45,0 99,27 99,79 0,51 -54,79 -99,79l-1293 0c-139,0 -313,-34 -309,-209 4,-170 173,-198 309,-198l1102 0c73,0 127,-55 129,-129 2,-44 -20,-97 -66,-111 -25,-8 -48,0 -76,0 -32,1 -94,-12 -95,-55 -1,-41 57,-56 88,-57 40,-1 62,9 84,-16 17,-18 28,-48 28,-72 -1,-42 -29,-88 -74,-88l-143 0c-4,100 -20,204 -69,292 -76,133 -206,181 -353,181 -107,0 -214,-25 -293,-102 -58,73 -148,101 -238,102 -92,0 -187,-30 -254,-96 -52,-51 -80,-120 -79,-193 1,-72 29,-135 80,-187 79,-78 192,-108 300,-108l62 0c6,-87 22,-177 65,-254 75,-137 207,-186 357,-186zm-410 673c-8,-42 -11,-80 -13,-122l-61 0c-49,0 -92,17 -127,52 -35,36 -54,81 -55,131 -1,51 16,102 53,139 21,20 52,39 81,39 28,0 57,-20 76,-40 48,-52 57,-132 46,-199zm634 -122l-449 0c3,87 17,183 60,259 37,64 90,102 165,102 75,0 128,-38 165,-103 43,-76 56,-171 59,-258zm-448 -111l447 0c-5,-76 -19,-155 -56,-222 -37,-66 -91,-106 -167,-106 -78,0 -132,40 -168,107 -37,66 -51,145 -56,221z"/>
 </g>
</svg>
