<?xml version="1.0" encoding="UTF-8"?>
<!DOCTYPE svg PUBLIC "-//W3C//DTD SVG 1.1//EN" "http://www.w3.org/Graphics/SVG/1.1/DTD/svg11.dtd">
<!-- Creator: CorelDRAW X8 -->
<svg xmlns="http://www.w3.org/2000/svg" xml:space="preserve" width="1098px" height="868px" version="1.1" style="shape-rendering:geometricPrecision; text-rendering:geometricPrecision; image-rendering:optimizeQuality; fill-rule:evenodd; clip-rule:evenodd"
viewBox="0 0 1098 868"
 xmlns:xlink="http://www.w3.org/1999/xlink">
 <defs>
  <style type="text/css">
   <![CDATA[
    .fil0 {fill:#996633;fill-rule:nonzero}
   ]]>
  </style>
 </defs>
 <g id="Layer_x0020_1">
  <metadata id="CorelCorpID_0Corel-Layer"/>
  <path class="fil0" d="M414 255l253 0c-3,-43 -12,-88 -34,-126 -20,-34 -51,-60 -92,-60 -42,0 -73,26 -93,60 -22,38 -31,83 -34,126zm254 70l-255 0c2,50 11,105 37,148 20,33 50,58 90,58 41,0 72,-25 91,-58 26,-44 35,-98 37,-148zm-390 69c-4,-23 -6,-46 -7,-69l-27 0c-28,0 -53,12 -72,32 -19,21 -29,45 -30,72 0,21 7,45 17,64 11,18 30,38 54,38 22,-1 38,-17 50,-36 18,-30 22,-66 15,-101zm531 -139l93 0c44,0 97,9 133,36 28,20 40,49 41,82 0,33 -17,62 -45,79 42,18 67,59 67,104 0,109 -124,140 -212,140l-682 0c-30,0 -61,2 -60,39 1,35 27,37 56,37l809 0c30,0 72,13 72,48 0,35 -42,48 -72,48l-809 0c-84,0 -202,-16 -200,-124 3,-105 121,-117 203,-117l683 0c42,0 81,-30 82,-72 1,-29 -12,-63 -48,-64 -8,-1 -15,1 -23,2 -22,1 -64,-11 -66,-39 -1,-27 37,-32 57,-33 8,-1 14,1 22,0 27,0 41,-25 40,-48 0,-26 -27,-48 -54,-48l-87 0c0,56 -12,119 -41,168 -49,82 -136,110 -228,110 -62,0 -128,-15 -178,-54 -38,38 -94,54 -147,54 -59,0 -122,-19 -166,-60 -32,-30 -49,-70 -49,-113 0,-42 19,-80 50,-109 50,-49 125,-66 194,-66l28 0c3,-50 13,-101 39,-145 49,-84 137,-110 230,-110 92,0 180,26 229,109 25,45 36,96 39,146z"/>
 </g>
</svg>
