<?xml version="1.0" encoding="UTF-8"?>
<!DOCTYPE svg PUBLIC "-//W3C//DTD SVG 1.1//EN" "http://www.w3.org/Graphics/SVG/1.1/DTD/svg11.dtd">
<!-- Creator: CorelDRAW X8 -->
<svg xmlns="http://www.w3.org/2000/svg" xml:space="preserve" width="3118px" height="1486px" version="1.1" style="shape-rendering:geometricPrecision; text-rendering:geometricPrecision; image-rendering:optimizeQuality; fill-rule:evenodd; clip-rule:evenodd"
viewBox="0 0 3118 1486"
 xmlns:xlink="http://www.w3.org/1999/xlink">
 <defs>
  <style type="text/css">
   <![CDATA[
    .fil0 {fill:#996633;fill-rule:nonzero}
   ]]>
  </style>
 </defs>
 <g id="Layer_x0020_1">
  <metadata id="CorelCorpID_0Corel-Layer"/>
  <path class="fil0" d="M2276 1229c-52,0 -116,4 -165,23 -21,8 -56,26 -56,52 -1,27 34,45 56,54 49,18 113,23 165,23 47,0 95,-4 140,-17 26,-7 77,-27 77,-60 -1,-32 -50,-51 -76,-59 -45,-13 -94,-16 -141,-16zm-1392 -1229c152,0 287,49 364,185 44,77 61,167 66,255l23 0c53,0 105,9 156,28 10,-65 31,-129 62,-188 95,-180 291,-280 495,-280 77,0 154,11 226,36 74,-25 150,-36 228,-36 204,0 399,95 508,268 75,119 108,257 106,397 -3,175 -55,349 -160,491 -123,167 -284,270 -489,311 -63,12 -128,18 -192,19 -72,1 -152,-7 -222,-25 -72,-19 -189,-69 -189,-157 0,-89 121,-138 194,-157 70,-17 145,-23 216,-23 66,0 133,5 197,20 66,15 165,51 197,116 58,-49 106,-108 143,-174 71,-126 102,-273 103,-416 1,-126 -26,-256 -97,-363 -69,-104 -184,-196 -315,-195 -23,0 -47,2 -69,6 152,113 229,296 229,481 0,85 -17,168 -59,243 -68,123 -189,181 -329,181 -139,0 -259,-58 -327,-181 -42,-74 -59,-158 -59,-243 0,-184 78,-368 229,-481 -23,-4 -46,-6 -69,-6 -127,-1 -244,92 -301,199 -42,80 -62,172 -62,261 0,130 45,290 170,354 21,11 33,26 33,41 0,14 -9,27 -27,38 -22,13 -46,18 -70,18 -33,0 -67,-10 -96,-28 -109,-65 -174,-179 -200,-300 -9,-43 -31,-76 -62,-103 -27,-23 -61,-41 -98,-41l-21 0c-4,100 -20,204 -71,292 -77,133 -211,181 -361,181 -110,0 -219,-25 -300,-102 -59,74 -151,102 -243,102 -94,0 -192,-30 -260,-96 -53,-51 -82,-119 -81,-193 1,-72 30,-135 82,-186 80,-79 196,-109 307,-109l64 0c5,-87 22,-177 65,-254 77,-137 213,-186 366,-186zm1393 188c-123,94 -185,261 -185,411 1,73 15,146 51,211 26,48 73,102 133,102 61,0 109,-55 136,-103 36,-65 50,-137 50,-210 0,-152 -61,-316 -185,-411zm-1813 485c-7,-41 -11,-79 -12,-121l-63 0c-50,0 -94,16 -130,51 -36,36 -55,81 -57,131 -1,51 17,103 55,139 21,20 53,40 83,39 29,0 58,-19 77,-39 49,-52 59,-133 47,-200zm649 -121l-459 0c3,86 17,182 61,258 38,64 92,102 169,102 77,0 131,-38 169,-103 44,-76 57,-171 60,-257zm-458 -112l457 0c-5,-76 -19,-155 -57,-222 -38,-66 -93,-106 -171,-106 -79,0 -135,40 -172,106 -38,67 -52,146 -57,222z"/>
 </g>
</svg>
