<?xml version="1.0" encoding="UTF-8"?>
<!DOCTYPE svg PUBLIC "-//W3C//DTD SVG 1.1//EN" "http://www.w3.org/Graphics/SVG/1.1/DTD/svg11.dtd">
<!-- Creator: CorelDRAW X8 -->
<svg xmlns="http://www.w3.org/2000/svg" xml:space="preserve" width="2258px" height="1486px" version="1.1" style="shape-rendering:geometricPrecision; text-rendering:geometricPrecision; image-rendering:optimizeQuality; fill-rule:evenodd; clip-rule:evenodd"
viewBox="0 0 2258 1486"
 xmlns:xlink="http://www.w3.org/1999/xlink">
 <defs>
  <style type="text/css">
   <![CDATA[
    .fil0 {fill:#996633;fill-rule:nonzero}
   ]]>
  </style>
 </defs>
 <g id="Layer_x0020_1">
  <metadata id="CorelCorpID_0Corel-Layer"/>
  <path class="fil0" d="M887 1227c-53,0 -117,5 -166,24 -21,8 -56,25 -56,52 -1,27 34,45 56,54 49,18 113,23 166,23 46,0 94,-4 139,-17 26,-7 77,-27 77,-60 0,-32 -50,-51 -76,-59 -45,-13 -94,-17 -140,-17zm389 128c51,-8 110,-17 159,-30 176,-50 352,-139 466,-284 100,-127 155,-293 155,-454 0,-109 -26,-224 -88,-316 -71,-104 -176,-160 -304,-159 -84,0 -164,34 -225,91 -69,64 -107,145 -121,236l61 0c110,0 226,31 306,110 52,51 82,114 83,186 0,73 -28,142 -81,193 -68,65 -166,96 -260,96 -93,-1 -184,-29 -244,-102 -81,76 -190,102 -299,102 -109,0 -218,-26 -299,-102 -60,73 -151,101 -244,102 -94,0 -192,-31 -260,-96 -53,-51 -81,-120 -81,-193 1,-72 30,-135 82,-186 80,-79 196,-110 307,-110l64 0c5,-87 22,-177 65,-253 77,-137 213,-186 366,-186 125,0 247,33 329,133 13,16 24,32 34,50 20,-25 43,-49 68,-69 98,-81 222,-113 348,-114 179,-1 353,56 468,197 89,109 127,251 127,390 0,177 -61,358 -172,498 -137,175 -349,278 -561,336 -72,19 -149,33 -228,43 -78,10 -159,16 -237,19 -58,2 -116,4 -173,3 -74,-2 -151,-7 -222,-26 -72,-19 -189,-69 -189,-157 0,-89 121,-138 194,-157 70,-17 145,-23 217,-23 66,0 132,5 196,20 77,17 208,66 208,160 0,19 -5,36 -15,52zm40 -804c-2,43 -5,84 -13,127 -12,64 1,145 47,194 19,20 49,40 78,40 30,0 61,-19 82,-39 38,-37 56,-88 55,-140 -1,-50 -20,-94 -57,-130 -36,-35 -80,-52 -130,-52l-62 0zm-851 126c-8,-43 -12,-83 -14,-126l-62 0c-50,0 -94,17 -130,52 -36,36 -55,80 -56,130 -1,52 17,103 54,140 21,20 53,39 83,39 29,0 59,-20 78,-40 47,-49 59,-130 47,-195zm648 -126l-459 0c3,86 17,183 62,258 37,65 91,103 168,103 77,0 132,-39 169,-103 44,-76 57,-172 60,-258zm-458 -112l457 0c-5,-76 -19,-154 -57,-221 -38,-66 -93,-106 -171,-106 -79,0 -135,40 -172,106 -38,67 -52,145 -57,221z"/>
 </g>
</svg>
