<?xml version="1.0" encoding="UTF-8"?>
<!DOCTYPE svg PUBLIC "-//W3C//DTD SVG 1.1//EN" "http://www.w3.org/Graphics/SVG/1.1/DTD/svg11.dtd">
<!-- Creator: CorelDRAW X8 -->
<svg xmlns="http://www.w3.org/2000/svg" xml:space="preserve" width="3045px" height="1486px" version="1.1" style="shape-rendering:geometricPrecision; text-rendering:geometricPrecision; image-rendering:optimizeQuality; fill-rule:evenodd; clip-rule:evenodd"
viewBox="0 0 3045 1486"
 xmlns:xlink="http://www.w3.org/1999/xlink">
 <defs>
  <style type="text/css">
   <![CDATA[
    .fil0 {fill:#996633;fill-rule:nonzero}
   ]]>
  </style>
 </defs>
 <g id="Layer_x0020_1">
  <metadata id="CorelCorpID_0Corel-Layer"/>
  <path class="fil0" d="M872 0c150,0 284,49 360,185 43,77 60,167 65,255l22 0c53,0 105,9 154,28 11,-65 31,-129 62,-188 94,-180 287,-280 488,-280 76,0 152,11 224,36 72,-25 148,-36 224,-36 155,0 304,57 412,170 116,121 169,291 161,457 -8,193 -89,343 -217,438 -105,78 -242,126 -398,126l-629 0c-52,0 -112,4 -110,69 2,66 57,68 110,68l1106 0c46,0 100,27 100,79 0,51 -54,79 -100,79l-1106 0c-141,0 -316,-34 -312,-209 4,-169 175,-198 312,-198l629 0c104,0 196,-37 271,-111 92,-91 139,-216 145,-344 5,-126 -29,-261 -106,-363 -63,-84 -160,-150 -268,-149 -23,0 -46,2 -68,6 103,77 171,187 204,311 15,55 23,113 23,170 0,85 -17,168 -59,243 -67,123 -186,181 -325,182 -137,0 -255,-59 -322,-181 -41,-75 -58,-159 -58,-244 0,-58 7,-114 22,-170 33,-123 101,-234 203,-311 -22,-4 -45,-6 -68,-6 -125,-1 -241,92 -297,199 -41,80 -61,172 -61,261 0,130 44,290 168,354 37,20 46,55 5,79 -51,31 -114,20 -163,-10 -108,-65 -172,-179 -198,-300 -9,-43 -30,-76 -61,-103 -27,-23 -60,-41 -97,-41l-20 0c-4,100 -20,205 -70,292 -76,134 -208,181 -357,181 -108,0 -215,-25 -295,-101 -59,73 -149,101 -241,101 -92,0 -189,-30 -256,-96 -52,-51 -81,-119 -80,-192 1,-73 30,-136 81,-187 79,-79 194,-109 303,-109l63 0c5,-87 22,-177 65,-254 76,-137 209,-186 360,-186zm1375 188c-82,64 -134,158 -161,257 -13,50 -21,102 -21,154 0,73 14,146 50,211 26,48 72,102 131,102 60,0 108,-55 134,-103 36,-65 50,-136 50,-210 0,-52 -7,-104 -21,-154 -26,-99 -80,-193 -162,-257zm-1789 485c-7,-41 -11,-79 -12,-121l-62 0c-49,0 -93,16 -128,51 -36,36 -55,81 -56,131 -1,51 17,103 54,139 21,21 52,40 82,40 28,-1 57,-20 76,-40 48,-52 58,-133 46,-200zm641 -121l-454 0c4,86 17,182 61,258 37,64 90,102 166,102 76,0 130,-38 167,-103 43,-76 57,-171 60,-257zm-453 -112l452 0c-5,-76 -20,-155 -57,-222 -37,-66 -91,-106 -169,-106 -78,0 -132,40 -169,107 -37,66 -52,145 -57,221z"/>
 </g>
</svg>
