<?xml version="1.0" encoding="UTF-8"?>
<!DOCTYPE svg PUBLIC "-//W3C//DTD SVG 1.1//EN" "http://www.w3.org/Graphics/SVG/1.1/DTD/svg11.dtd">
<!-- Creator: CorelDRAW X8 -->
<svg xmlns="http://www.w3.org/2000/svg" xml:space="preserve" width="1349px" height="600px" version="1.1" style="shape-rendering:geometricPrecision; text-rendering:geometricPrecision; image-rendering:optimizeQuality; fill-rule:evenodd; clip-rule:evenodd"
viewBox="0 0 1349 600"
 xmlns:xlink="http://www.w3.org/1999/xlink">
 <defs>
  <style type="text/css">
   <![CDATA[
    .fil0 {fill:#996633;fill-rule:nonzero}
   ]]>
  </style>
 </defs>
 <g id="Layer_x0020_1">
  <metadata id="CorelCorpID_0Corel-Layer"/>
  <path class="fil0" d="M533 0c86,0 168,32 217,105 63,-69 159,-105 252,-105 96,0 190,31 258,100 57,57 89,129 89,210 0,64 -18,128 -53,181 -28,43 -67,78 -117,98 -32,13 -75,17 -105,-3 -24,-15 -15,-36 9,-46 47,-22 79,-57 98,-99 19,-40 27,-85 27,-131 2,-59 -15,-122 -53,-168 -36,-45 -94,-73 -153,-73 -55,0 -110,25 -147,66 -30,34 -48,76 -55,121l25 0c68,0 141,15 192,63 30,29 48,69 48,111 1,43 -16,83 -48,113 -43,40 -105,57 -164,57 -52,0 -107,-13 -145,-51 -49,39 -114,51 -175,51 -62,0 -126,-12 -176,-51 -38,38 -93,51 -145,51 -58,0 -121,-17 -164,-57 -31,-30 -48,-70 -48,-113 1,-42 18,-82 49,-111 50,-48 124,-63 191,-63l28 0c3,-54 15,-110 44,-155 49,-78 133,-101 221,-101zm-125 256l249 0c-2,-35 -9,-72 -23,-104 -18,-46 -51,-84 -104,-83 -50,1 -81,39 -99,82 -14,32 -20,70 -23,105zm250 69l-251 0c2,35 6,72 17,105 16,50 50,101 109,101 58,0 92,-51 108,-100 11,-34 16,-71 17,-106zm-383 72c-5,-24 -7,-48 -8,-72l-27 0c-19,0 -37,5 -53,15 -30,20 -46,56 -47,91 0,22 4,44 15,63 11,19 30,37 54,37 24,0 44,-17 55,-37 16,-29 17,-65 11,-97zm523 -72c-1,24 -3,49 -7,73 -7,34 -3,71 17,100 11,16 29,33 50,33 21,0 40,-18 51,-35 11,-19 16,-43 16,-64 0,-26 -8,-52 -25,-72 -19,-23 -46,-35 -75,-35l-27 0z"/>
 </g>
</svg>
