<?xml version="1.0" encoding="UTF-8"?>
<!DOCTYPE svg PUBLIC "-//W3C//DTD SVG 1.1//EN" "http://www.w3.org/Graphics/SVG/1.1/DTD/svg11.dtd">
<!-- Creator: CorelDRAW X8 -->
<svg xmlns="http://www.w3.org/2000/svg" xml:space="preserve" width="1070px" height="600px" version="1.1" style="shape-rendering:geometricPrecision; text-rendering:geometricPrecision; image-rendering:optimizeQuality; fill-rule:evenodd; clip-rule:evenodd"
viewBox="0 0 1070 600"
 xmlns:xlink="http://www.w3.org/1999/xlink">
 <defs>
  <style type="text/css">
   <![CDATA[
    .fil0 {fill:#996633;fill-rule:nonzero}
   ]]>
  </style>
 </defs>
 <g id="Layer_x0020_1">
  <metadata id="CorelCorpID_0Corel-Layer"/>
  <path class="fil0" d="M880 457c-23,1 -66,-4 -66,-34 0,-30 43,-36 65,-35 10,0 26,1 34,-4 9,-6 13,-18 13,-28 -1,-31 -34,-31 -58,-31l-73 0c-1,56 -12,119 -41,168 -48,82 -133,107 -223,107 -62,0 -126,-12 -175,-51 -38,38 -93,51 -145,51 -58,0 -120,-16 -163,-57 -31,-30 -48,-69 -48,-112 0,-42 18,-83 49,-112 50,-48 123,-63 190,-63l28 0c3,-50 13,-103 38,-147 48,-83 134,-109 226,-109 91,0 177,25 225,109 25,44 35,97 38,147l77 0c67,0 185,4 184,96 0,25 -12,50 -36,65 30,14 52,38 51,72 -1,83 -104,109 -171,111 -39,1 -86,-5 -120,-29 -40,-28 -1,-50 29,-55 23,-4 45,-2 66,10 5,3 11,5 18,5 24,0 49,-21 49,-44 0,-20 -9,-28 -20,-31 -13,-3 -28,0 -41,1zm-474 -201l249 0c-3,-43 -12,-90 -34,-128 -19,-33 -50,-59 -90,-59 -41,0 -72,26 -91,60 -22,37 -31,84 -34,127zm250 69l-250 0c2,49 10,106 36,149 19,32 49,57 89,57 39,0 70,-25 89,-58 25,-43 34,-99 36,-148zm-383 70c-4,-23 -6,-47 -7,-70l-27 0c-27,0 -51,10 -70,30 -19,20 -29,48 -29,75 -1,21 6,45 17,63 10,19 29,39 52,38 23,0 41,-20 51,-39 16,-28 19,-66 13,-97z"/>
 </g>
</svg>
