<?xml version="1.0" encoding="UTF-8"?>
<!DOCTYPE svg PUBLIC "-//W3C//DTD SVG 1.1//EN" "http://www.w3.org/Graphics/SVG/1.1/DTD/svg11.dtd">
<!-- Creator: CorelDRAW X8 -->
<svg xmlns="http://www.w3.org/2000/svg" xml:space="preserve" width="1769px" height="1486px" version="1.1" style="shape-rendering:geometricPrecision; text-rendering:geometricPrecision; image-rendering:optimizeQuality; fill-rule:evenodd; clip-rule:evenodd"
viewBox="0 0 1769 1486"
 xmlns:xlink="http://www.w3.org/1999/xlink">
 <defs>
  <style type="text/css">
   <![CDATA[
    .fil0 {fill:#A82682;fill-rule:nonzero}
   ]]>
  </style>
 </defs>
 <g id="Layer_x0020_1">
  <metadata id="CorelCorpID_0Corel-Layer"/>
  <path class="fil0" d="M884 0c152,0 287,49 364,185 44,77 61,167 66,255l148 0c77,0 165,17 221,74 34,34 48,77 49,125 1,55 -28,106 -76,134 70,32 112,102 113,178 2,171 -177,239 -324,239l-1129 0c-53,0 -113,4 -111,70 1,66 57,68 111,68l1323 0c46,0 101,28 101,79 0,51 -55,79 -101,79l-1323 0c-143,0 -320,-34 -316,-209 4,-170 177,-198 316,-198l1128 0c74,0 130,-55 132,-129 2,-44 -17,-97 -64,-111 -26,-8 -45,0 -74,0 -33,1 -84,-12 -85,-55 0,-41 46,-56 78,-57 41,-1 60,9 83,-16 16,-18 24,-48 24,-72 -1,-42 -30,-87 -76,-87l-146 0c-4,99 -20,203 -71,291 -77,133 -211,181 -361,181 -110,0 -219,-25 -300,-102 -59,73 -151,101 -243,102 -94,0 -192,-30 -260,-96 -53,-51 -82,-120 -81,-193 1,-72 30,-135 82,-187 80,-78 196,-108 307,-108l64 0c5,-87 22,-177 65,-254 77,-137 213,-186 366,-186zm-420 673c-7,-42 -11,-80 -12,-121l-63 0c-50,0 -94,16 -130,51 -36,36 -55,81 -57,131 -1,51 17,102 55,139 21,20 53,39 83,39 29,0 58,-20 77,-40 49,-52 59,-132 47,-199zm649 -121l-459 0c3,86 17,182 61,258 38,64 92,102 169,102 77,0 131,-38 169,-103 43,-76 57,-171 60,-257zm-458 -112l457 0c-5,-76 -20,-155 -57,-222 -38,-66 -93,-106 -171,-106 -79,0 -135,40 -172,107 -38,66 -52,145 -57,221z"/>
 </g>
</svg>
