<?xml version="1.0" encoding="UTF-8"?>
<!DOCTYPE svg PUBLIC "-//W3C//DTD SVG 1.1//EN" "http://www.w3.org/Graphics/SVG/1.1/DTD/svg11.dtd">
<!-- Creator: CorelDRAW X8 -->
<svg xmlns="http://www.w3.org/2000/svg" xml:space="preserve" width="3443px" height="1486px" version="1.1" style="shape-rendering:geometricPrecision; text-rendering:geometricPrecision; image-rendering:optimizeQuality; fill-rule:evenodd; clip-rule:evenodd"
viewBox="0 0 3443 1486"
 xmlns:xlink="http://www.w3.org/1999/xlink">
 <defs>
  <style type="text/css">
   <![CDATA[
    .fil0 {fill:#5B5A50;fill-rule:nonzero}
   ]]>
  </style>
 </defs>
 <g id="Layer_x0020_1">
  <metadata id="CorelCorpID_0Corel-Layer"/>
  <path class="fil0" d="M1755 1374c203,1 408,-4 609,-28 222,-26 466,-90 641,-235 166,-137 236,-321 236,-532 0,-94 -21,-184 -66,-268 -57,-109 -173,-200 -302,-199 -23,0 -46,2 -69,6 152,113 230,296 230,481 0,85 -17,168 -59,243 -68,123 -189,182 -329,182 -139,0 -259,-59 -327,-181 -42,-75 -59,-159 -59,-244 0,-184 78,-368 229,-481 -23,-4 -46,-6 -70,-6 -126,-1 -243,92 -300,199 -42,80 -62,172 -62,262 0,129 45,289 170,354 40,20 45,55 5,78 -51,31 -116,20 -165,-9 -110,-65 -174,-180 -200,-301 -9,-43 -31,-76 -62,-103 -27,-23 -61,-41 -99,-41l-20 0c-4,100 -20,204 -71,292 -77,134 -211,181 -361,181 -110,0 -219,-25 -299,-101 -60,73 -151,101 -244,101 -94,0 -192,-30 -260,-96 -53,-51 -81,-119 -81,-192 1,-73 30,-136 82,-187 81,-79 197,-109 307,-109l64 0c16,-271 141,-440 431,-440 152,0 287,49 364,185 44,77 61,167 66,255l22 0c54,0 106,9 157,28 10,-65 31,-129 62,-188 95,-180 291,-280 495,-280 76,0 153,11 226,36 73,-25 150,-36 227,-36 205,0 400,98 497,280 49,93 73,194 73,299 1,243 -89,449 -282,603 -207,165 -494,243 -755,274 -215,25 -435,31 -651,30 -202,-1 -437,-4 -667,-32 -231,-28 -457,-81 -636,-179 -282,-155 -451,-386 -452,-710 -1,-215 98,-424 282,-544 41,-26 100,-27 143,-7 39,18 51,54 12,79 -156,102 -235,292 -235,472 1,284 144,494 392,630 154,85 356,129 563,153 208,23 422,26 598,26zm-921 -701c-7,-41 -11,-79 -12,-121l-63 0c-50,0 -94,16 -130,51 -36,36 -55,81 -56,131 -1,51 17,103 54,139 21,20 53,40 83,39 29,0 59,-19 78,-39 49,-52 58,-133 46,-200zm649 -121l-459 0c3,86 17,182 61,258 38,64 92,102 169,102 77,0 131,-38 169,-103 44,-76 57,-171 60,-257zm-458 -112l457 0c-5,-76 -19,-155 -57,-222 -38,-66 -93,-106 -171,-106 -79,0 -134,40 -172,106 -38,67 -52,146 -57,222zm1621 -252c-122,94 -184,261 -184,411 0,73 14,147 50,211 27,48 73,102 134,102 61,0 109,-54 135,-103 37,-65 51,-136 51,-210 0,-152 -62,-316 -186,-411z"/>
 </g>
</svg>
