<?xml version="1.0" encoding="UTF-8"?>
<!DOCTYPE svg PUBLIC "-//W3C//DTD SVG 1.1//EN" "http://www.w3.org/Graphics/SVG/1.1/DTD/svg11.dtd">
<!-- Creator: CorelDRAW X8 -->
<svg xmlns="http://www.w3.org/2000/svg" xml:space="preserve" width="1728px" height="1024px" version="1.1" style="shape-rendering:geometricPrecision; text-rendering:geometricPrecision; image-rendering:optimizeQuality; fill-rule:evenodd; clip-rule:evenodd"
viewBox="0 0 1728 1024"
 xmlns:xlink="http://www.w3.org/1999/xlink">
 <defs>
  <style type="text/css">
   <![CDATA[
    .fil0 {fill:#996633;fill-rule:nonzero}
   ]]>
  </style>
 </defs>
 <g id="Layer_x0020_1">
  <metadata id="CorelCorpID_0Corel-Layer"/>
  <path class="fil0" d="M863 0c149,0 281,48 357,183 42,77 59,170 64,257l166 0c107,0 251,35 253,167 0,46 -22,82 -60,107 48,23 84,63 85,119 1,140 -162,190 -276,191 -64,1 -136,-13 -187,-51 -38,-27 -34,-54 8,-75 40,-20 93,-20 130,4 14,8 31,11 47,11 48,0 85,-29 85,-80 -1,-23 -13,-45 -35,-55 -18,-9 -57,-1 -80,0 -33,1 -96,-12 -94,-57 3,-40 61,-56 93,-54 19,1 54,4 70,-8 17,-12 17,-33 17,-52 -2,-31 -23,-56 -55,-56l-166 0c-3,98 -19,206 -68,293 -76,133 -207,180 -354,180 -106,0 -213,-25 -292,-101 -58,73 -148,101 -239,101 -91,0 -186,-30 -253,-95 -52,-51 -80,-119 -79,-192 1,-72 29,-141 80,-192 79,-78 192,-105 300,-105l62 0c5,-87 22,-179 64,-256 76,-135 208,-184 357,-184zm-410 675c-7,-41 -10,-82 -12,-124l-61 0c-49,0 -92,13 -127,48 -35,36 -54,87 -55,137 -1,51 16,102 53,138 21,20 52,39 81,39 28,0 57,-20 76,-39 48,-52 57,-132 45,-199zm635 -124l-449 0c3,86 17,185 60,260 36,64 89,102 164,102 76,0 129,-38 165,-102 43,-76 57,-174 60,-260zm-448 -111l446 0c-4,-75 -19,-157 -56,-224 -36,-65 -90,-105 -167,-105 -77,0 -131,40 -167,106 -37,66 -51,148 -56,223z"/>
 </g>
</svg>
