<?xml version="1.0" encoding="UTF-8"?>
<!DOCTYPE svg PUBLIC "-//W3C//DTD SVG 1.1//EN" "http://www.w3.org/Graphics/SVG/1.1/DTD/svg11.dtd">
<!-- Creator: CorelDRAW X8 -->
<svg xmlns="http://www.w3.org/2000/svg" xml:space="preserve" width="2263px" height="1024px" version="1.1" style="shape-rendering:geometricPrecision; text-rendering:geometricPrecision; image-rendering:optimizeQuality; fill-rule:evenodd; clip-rule:evenodd"
viewBox="0 0 2263 1024"
 xmlns:xlink="http://www.w3.org/1999/xlink">
 <defs>
  <style type="text/css">
   <![CDATA[
    .fil0 {fill:#A82682;fill-rule:nonzero}
   ]]>
  </style>
 </defs>
 <g id="Layer_x0020_1">
  <metadata id="CorelCorpID_0Corel-Layer"/>
  <path class="fil0" d="M884 0c155,0 292,50 368,191 117,-143 302,-191 482,-191 110,0 237,19 332,76 103,62 169,149 167,271 -1,74 -41,136 -103,177 74,42 125,110 132,195 6,71 -20,139 -66,193 -43,52 -107,85 -173,101 -81,18 -165,13 -243,-14 -36,-13 -68,-45 -32,-77 34,-29 99,-31 140,-17 18,6 38,10 56,5 27,-6 51,-23 68,-44 34,-40 52,-90 48,-142 -4,-43 -23,-83 -58,-110 -21,-17 -46,-27 -73,-28 -17,-1 -35,1 -52,0 -30,-2 -85,-17 -88,-52 -4,-39 56,-55 86,-58 16,-1 33,0 48,-3 25,-4 48,-14 66,-31 27,-25 41,-60 42,-96 1,-60 -20,-114 -64,-156 -61,-56 -152,-79 -233,-79 -224,-1 -376,106 -417,329l62 0c110,0 226,27 306,105 52,51 82,120 82,192 1,73 -28,141 -81,192 -68,65 -166,95 -260,95 -92,0 -184,-28 -243,-101 -81,76 -190,101 -299,101 -110,0 -219,-25 -299,-101 -60,73 -152,101 -244,101 -94,0 -192,-30 -260,-95 -53,-51 -82,-119 -81,-192 1,-72 30,-141 82,-192 80,-78 196,-105 307,-105l64 0c5,-87 22,-179 65,-256 77,-135 213,-184 366,-184zm432 551c-2,43 -6,87 -14,130 -11,64 1,144 48,193 19,19 48,39 77,39 31,0 62,-19 83,-39 38,-36 56,-87 55,-138 -1,-50 -20,-101 -57,-137 -36,-35 -80,-48 -130,-48l-62 0zm-851 128c-8,-42 -12,-85 -13,-128l-63 0c-50,0 -94,13 -130,48 -36,36 -55,87 -56,137 -2,51 16,102 54,138 21,20 53,39 83,39 29,0 58,-20 77,-39 47,-50 59,-130 48,-195zm648 -128l-459 0c3,86 17,185 61,260 38,64 92,102 169,102 77,0 131,-38 169,-102 44,-76 57,-174 60,-260zm-458 -111l457 0c-5,-75 -19,-157 -57,-224 -38,-65 -93,-105 -171,-105 -79,0 -135,40 -172,106 -38,66 -52,148 -57,223z"/>
 </g>
</svg>
