<?xml version="1.0" encoding="UTF-8"?>
<!DOCTYPE svg PUBLIC "-//W3C//DTD SVG 1.1//EN" "http://www.w3.org/Graphics/SVG/1.1/DTD/svg11.dtd">
<!-- Creator: CorelDRAW X8 -->
<svg xmlns="http://www.w3.org/2000/svg" xml:space="preserve" width="1782px" height="1486px" version="1.1" style="shape-rendering:geometricPrecision; text-rendering:geometricPrecision; image-rendering:optimizeQuality; fill-rule:evenodd; clip-rule:evenodd"
viewBox="0 0 1782 1486"
 xmlns:xlink="http://www.w3.org/1999/xlink">
 <defs>
  <style type="text/css">
   <![CDATA[
    .fil0 {fill:#996633;fill-rule:nonzero}
   ]]>
  </style>
 </defs>
 <g id="Layer_x0020_1">
  <metadata id="CorelCorpID_0Corel-Layer"/>
  <path class="fil0" d="M882 1387c58,0 129,-3 183,-27 34,-15 59,-41 57,-80 -1,-42 -45,-59 -81,-59 -47,0 -67,42 -67,83 0,40 -59,51 -91,51 -31,0 -90,-11 -91,-51 0,-41 -19,-83 -66,-83 -37,0 -80,17 -82,59 -1,39 23,65 58,80 52,23 123,27 180,27zm2 -1387c152,0 287,49 364,185 44,77 61,167 66,254l20 0c182,0 345,89 415,260 26,63 36,131 32,199 -8,122 -56,225 -128,308 -83,95 -198,164 -324,208 -72,25 -145,44 -219,56 -75,11 -151,16 -226,16 -85,0 -175,-8 -256,-37 -71,-25 -153,-88 -152,-170 1,-49 33,-87 74,-113 48,-30 118,-42 175,-42 53,0 111,10 158,35 47,-25 106,-35 158,-35 58,0 127,12 176,42 41,26 74,63 74,113 0,10 -1,19 -3,28 79,-36 148,-86 199,-151 53,-68 87,-154 92,-261 3,-57 -5,-118 -27,-172 -37,-90 -113,-172 -218,-172l-19 0c-3,100 -20,204 -70,292 -77,133 -211,181 -362,181 -109,0 -218,-26 -299,-102 -59,73 -151,101 -243,102 -94,0 -192,-31 -260,-96 -53,-51 -82,-120 -81,-193 1,-72 30,-135 82,-187 80,-78 196,-109 307,-109l64 0c5,-87 22,-176 65,-253 77,-137 213,-186 366,-186zm-420 670c-7,-42 -11,-77 -12,-119l-63 0c-50,0 -94,17 -130,52 -36,36 -55,80 -57,130 -1,52 17,103 55,140 21,20 53,39 83,39 29,0 58,-20 77,-40 49,-52 59,-135 47,-202zm649 -119l-459 0c3,87 17,183 61,258 37,65 92,103 168,103 77,0 132,-39 169,-103 44,-76 58,-171 61,-258zm-458 -112l457 1c-5,-76 -20,-155 -58,-222 -37,-66 -92,-106 -170,-106 -79,0 -135,40 -172,107 -38,66 -52,145 -57,220z"/>
 </g>
</svg>
