<?xml version="1.0" encoding="UTF-8"?>
<!DOCTYPE svg PUBLIC "-//W3C//DTD SVG 1.1//EN" "http://www.w3.org/Graphics/SVG/1.1/DTD/svg11.dtd">
<!-- Creator: CorelDRAW X8 -->
<svg xmlns="http://www.w3.org/2000/svg" xml:space="preserve" width="1596px" height="868px" version="1.1" style="shape-rendering:geometricPrecision; text-rendering:geometricPrecision; image-rendering:optimizeQuality; fill-rule:evenodd; clip-rule:evenodd"
viewBox="0 0 1596 868"
 xmlns:xlink="http://www.w3.org/1999/xlink">
 <defs>
  <style type="text/css">
   <![CDATA[
    .fil0 {fill:#996633;fill-rule:nonzero}
   ]]>
  </style>
 </defs>
 <g id="Layer_x0020_1">
  <metadata id="CorelCorpID_0Corel-Layer"/>
  <path class="fil0" d="M757 0c88,0 172,23 219,102 23,-30 54,-53 88,-69 49,-23 104,-33 155,-33 109,0 221,32 296,114 57,63 81,142 81,225 1,170 -100,307 -241,395 -157,98 -369,134 -552,134 -179,0 -378,-27 -537,-112 -169,-89 -265,-235 -266,-425 -1,-122 50,-240 153,-311 20,-13 45,-20 69,-20 16,0 32,3 47,10 14,6 22,15 22,25 0,8 -4,15 -15,22 -92,58 -134,169 -134,274 1,165 81,299 229,378 128,68 288,90 432,90 146,0 314,-30 439,-108 125,-78 213,-203 212,-352 -1,-59 -16,-119 -49,-169 -42,-65 -108,-101 -186,-101 -46,1 -88,22 -121,54 -36,36 -61,83 -70,133l25 0c72,0 141,14 195,65 30,29 48,66 48,108 1,44 -17,84 -48,114 -44,41 -108,57 -167,57 -53,0 -108,-13 -147,-51 -50,39 -115,51 -178,51 -63,0 -128,-12 -178,-51 -39,38 -94,51 -147,51 -59,0 -123,-16 -167,-57 -31,-30 -49,-70 -48,-114 0,-42 19,-79 50,-108 50,-49 125,-66 194,-66l28 0c3,-53 15,-108 44,-154 50,-77 136,-101 225,-101zm-127 255l253 0c-3,-35 -10,-70 -23,-102 -19,-46 -52,-85 -106,-83 -51,1 -82,38 -101,82 -13,33 -20,68 -23,103zm254 70l-255 0c2,35 6,71 17,105 5,15 11,30 20,43 19,33 50,58 90,58 40,0 71,-25 91,-58 8,-14 14,-28 19,-43 11,-34 16,-70 18,-105zm-390 71c-4,-24 -6,-47 -7,-71l-27 0c-30,0 -57,14 -76,37 -16,20 -26,43 -26,68 0,22 4,44 15,63 11,20 31,38 55,38 20,0 38,-13 50,-28 22,-30 23,-71 16,-107zm532 -71c-1,24 -4,48 -8,72 -7,34 -2,72 18,101 11,16 29,33 50,33 24,0 43,-23 53,-42 9,-18 15,-39 15,-58 0,-26 -8,-49 -25,-69 -19,-23 -46,-37 -76,-37l-27 0z"/>
 </g>
</svg>
