<?xml version="1.0" encoding="UTF-8"?>
<!DOCTYPE svg PUBLIC "-//W3C//DTD SVG 1.1//EN" "http://www.w3.org/Graphics/SVG/1.1/DTD/svg11.dtd">
<!-- Creator: CorelDRAW X8 -->
<svg xmlns="http://www.w3.org/2000/svg" xml:space="preserve" width="1782px" height="1486px" version="1.1" style="shape-rendering:geometricPrecision; text-rendering:geometricPrecision; image-rendering:optimizeQuality; fill-rule:evenodd; clip-rule:evenodd"
viewBox="0 0 1782 1486"
 xmlns:xlink="http://www.w3.org/1999/xlink">
 <defs>
  <style type="text/css">
   <![CDATA[
    .fil0 {fill:#5B5A50;fill-rule:nonzero}
   ]]>
  </style>
 </defs>
 <g id="Layer_x0020_1">
  <metadata id="CorelCorpID_0Corel-Layer"/>
  <path class="fil0" d="M886 1228c-52,0 -116,5 -165,23 -21,9 -56,26 -56,53 -1,27 34,45 56,54 49,18 113,23 165,23 47,0 95,-4 140,-17 26,-7 77,-27 76,-60 0,-32 -49,-51 -75,-59 -45,-13 -94,-17 -141,-17zm-3 -1228c152,0 288,49 365,185 43,77 61,167 66,254l20 0c102,0 188,29 258,72 134,84 199,233 189,387 -17,260 -215,433 -452,516 -85,30 -170,50 -259,61 -62,8 -124,11 -187,11 -72,0 -148,-7 -218,-25 -72,-19 -189,-69 -189,-157 0,-89 121,-138 194,-157 69,-17 145,-23 216,-23 66,0 132,5 197,20 77,17 208,66 208,161 175,-81 278,-216 288,-410 5,-109 -30,-230 -121,-298 -36,-27 -78,-46 -124,-46l-19 0c-3,100 -20,204 -70,291 -77,134 -211,182 -362,182 -109,0 -218,-26 -299,-102 -59,73 -151,101 -243,102 -94,0 -192,-31 -260,-96 -53,-51 -82,-120 -81,-193 1,-72 30,-135 82,-187 80,-78 196,-109 307,-109l64 0c5,-87 22,-176 65,-253 77,-137 213,-186 365,-186zm-419 673c-7,-42 -11,-80 -12,-122l-63 0c-50,0 -94,17 -130,52 -36,36 -56,80 -57,130 -1,52 17,103 55,140 26,25 54,39 82,39 26,0 53,-13 78,-40 49,-52 59,-132 47,-199zm649 -122l-459 0c3,87 17,182 61,258 81,140 258,137 337,0 44,-76 58,-171 61,-258zm-458 -112l457 0c-5,-75 -20,-154 -58,-221 -37,-66 -92,-106 -171,-106 -78,0 -134,40 -171,106 -38,67 -52,146 -57,221z"/>
 </g>
</svg>
