<?xml version="1.0" encoding="UTF-8"?>
<!DOCTYPE svg PUBLIC "-//W3C//DTD SVG 1.1//EN" "http://www.w3.org/Graphics/SVG/1.1/DTD/svg11.dtd">
<!-- Creator: CorelDRAW X8 -->
<svg xmlns="http://www.w3.org/2000/svg" xml:space="preserve" width="3078px" height="1486px" version="1.1" style="shape-rendering:geometricPrecision; text-rendering:geometricPrecision; image-rendering:optimizeQuality; fill-rule:evenodd; clip-rule:evenodd"
viewBox="0 0 3078 1486"
 xmlns:xlink="http://www.w3.org/1999/xlink">
 <defs>
  <style type="text/css">
   <![CDATA[
    .fil0 {fill:#996633;fill-rule:nonzero}
   ]]>
  </style>
 </defs>
 <g id="Layer_x0020_1">
  <metadata id="CorelCorpID_0Corel-Layer"/>
  <path class="fil0" d="M2247 1229c-51,0 -115,4 -163,23 -21,8 -55,26 -56,52 0,27 34,45 56,54 48,18 112,23 163,23 46,0 94,-4 138,-17 26,-7 76,-27 76,-60 -1,-32 -49,-51 -75,-59 -44,-13 -92,-16 -139,-16zm-1375 -1229c150,0 284,49 360,185 43,77 60,167 66,255l21 0c53,0 105,9 155,28 10,-65 30,-129 61,-188 94,-180 288,-280 488,-280 76,0 152,11 224,36 72,-25 148,-36 224,-36 202,0 395,95 503,268 74,119 106,257 104,397 -3,175 -54,349 -158,491 -121,167 -280,270 -483,311 -62,12 -126,18 -189,19 -71,1 -151,-7 -219,-25 -71,-19 -187,-69 -187,-157 1,-89 120,-138 192,-157 68,-17 143,-23 213,-23 65,0 131,5 194,20 66,15 163,51 195,116 57,-49 104,-108 141,-174 70,-126 101,-273 102,-416 0,-126 -26,-256 -96,-363 -69,-104 -182,-196 -312,-195 -22,0 -45,2 -68,6 103,77 172,187 205,311 15,55 22,113 22,170 0,85 -17,168 -58,243 -68,123 -187,181 -325,181 -138,0 -256,-58 -323,-181 -41,-74 -58,-158 -58,-243 0,-58 7,-114 22,-170 33,-123 102,-234 204,-311 -23,-4 -46,-6 -69,-6 -125,-1 -240,92 -296,199 -42,80 -61,172 -61,261 0,130 43,290 168,354 38,20 44,56 5,79 -51,31 -115,20 -164,-10 -108,-65 -172,-179 -197,-300 -9,-43 -31,-76 -62,-103 -26,-23 -59,-41 -97,-41l-20 0c-4,100 -20,204 -70,292 -76,133 -208,181 -357,181 -108,0 -215,-25 -295,-102 -59,74 -149,102 -240,102 -93,0 -190,-30 -257,-96 -52,-51 -81,-119 -80,-193 1,-72 30,-135 81,-186 79,-79 194,-109 303,-109l63 0c5,-87 22,-177 65,-254 76,-137 210,-186 360,-186zm1375 188c-81,64 -134,158 -161,257 -13,50 -20,102 -20,154 0,73 14,146 49,211 26,48 72,102 132,102 60,0 107,-55 134,-103 36,-65 50,-137 50,-210 0,-52 -8,-104 -21,-154 -27,-99 -80,-193 -163,-257zm-1789 485c-7,-41 -11,-79 -12,-121l-62 0c-49,0 -93,16 -128,51 -36,36 -55,81 -56,131 -1,51 17,103 54,139 21,20 52,40 82,39 28,0 57,-19 76,-39 48,-52 58,-133 46,-200zm641 -121l-454 0c4,86 17,182 61,258 37,64 91,102 166,102 76,0 130,-38 167,-103 43,-76 57,-171 60,-257zm-452 -112l451 0c-5,-76 -19,-155 -57,-222 -37,-66 -91,-106 -169,-106 -78,0 -132,40 -169,106 -37,67 -52,146 -56,222z"/>
 </g>
</svg>
