<?xml version="1.0" encoding="UTF-8"?>
<!DOCTYPE svg PUBLIC "-//W3C//DTD SVG 1.1//EN" "http://www.w3.org/Graphics/SVG/1.1/DTD/svg11.dtd">
<!-- Creator: CorelDRAW X8 -->
<svg xmlns="http://www.w3.org/2000/svg" xml:space="preserve" width="3123px" height="1486px" version="1.1" style="shape-rendering:geometricPrecision; text-rendering:geometricPrecision; image-rendering:optimizeQuality; fill-rule:evenodd; clip-rule:evenodd"
viewBox="0 0 3123 1486"
 xmlns:xlink="http://www.w3.org/1999/xlink">
 <defs>
  <style type="text/css">
   <![CDATA[
    .fil0 {fill:#996633;fill-rule:nonzero}
   ]]>
  </style>
 </defs>
 <g id="Layer_x0020_1">
  <metadata id="CorelCorpID_0Corel-Layer"/>
  <path class="fil0" d="M872 0c150,0 284,49 360,185 43,77 60,168 65,255l22 0c53,0 105,9 155,28 10,-65 30,-128 61,-187 94,-180 288,-281 488,-280 77,0 162,11 234,39 95,-31 198,-40 298,-40 120,0 254,20 359,81 93,55 162,146 161,256 -1,80 -39,149 -103,195 97,57 151,156 151,268 0,90 -26,173 -89,240 -107,116 -263,150 -415,150l-817 0c-53,0 -112,4 -111,70 2,66 57,68 111,68l1176 0c46,0 100,27 100,79 0,51 -54,79 -100,79l-1176 0c-141,0 -316,-34 -313,-209 4,-169 176,-198 313,-198l821 0c96,0 194,-37 252,-117 34,-48 48,-104 48,-162 0,-91 -48,-207 -152,-209 -33,-1 -96,-12 -95,-56 1,-45 62,-56 95,-56 72,0 104,-84 104,-146 -1,-72 -43,-138 -105,-174 -62,-36 -144,-47 -215,-47 -49,0 -98,1 -146,11 99,77 166,186 199,307 15,55 22,113 22,170 0,85 -17,168 -58,243 -68,123 -187,181 -325,181 -138,0 -256,-58 -323,-181 -41,-74 -58,-158 -58,-243 0,-58 7,-115 22,-170 33,-123 102,-234 204,-311 -23,-4 -46,-6 -69,-6 -125,-1 -241,92 -296,199 -42,80 -61,172 -61,261 -1,130 43,290 168,354 38,20 44,56 5,79 -51,31 -115,20 -164,-10 -108,-65 -172,-180 -197,-301 -10,-43 -31,-75 -62,-103 -26,-23 -59,-41 -97,-41l-20 0c-4,100 -20,205 -70,292 -76,134 -208,181 -357,181 -108,0 -215,-25 -295,-101 -59,73 -149,101 -241,101 -92,1 -189,-30 -256,-96 -52,-51 -81,-119 -80,-192 1,-73 30,-136 81,-187 79,-79 194,-109 303,-109l63 0c5,-87 22,-177 65,-254 76,-137 210,-186 360,-186zm1375 189c-81,64 -134,158 -161,257 -13,50 -21,102 -21,154 1,73 14,146 50,211 26,48 72,102 132,102 60,0 107,-55 134,-103 35,-65 49,-137 49,-210 0,-52 -7,-104 -20,-154 -27,-99 -81,-194 -163,-257zm-1789 484c-7,-41 -11,-79 -12,-121l-62 0c-49,0 -93,16 -128,52 -36,35 -55,80 -56,130 -1,51 17,103 54,139 21,21 52,40 82,40 28,-1 57,-20 76,-40 22,-24 36,-54 44,-86 8,-37 8,-77 2,-114zm641 -121l-454 0c4,86 17,182 61,258 37,64 90,102 166,102 76,0 130,-38 167,-103 43,-75 57,-171 60,-257zm-452 -112l451 0c-5,-76 -20,-155 -57,-222 -37,-66 -91,-106 -169,-106 -78,0 -132,40 -169,107 -37,66 -52,146 -56,221z"/>
 </g>
</svg>
