<?xml version="1.0" encoding="UTF-8"?>
<!DOCTYPE svg PUBLIC "-//W3C//DTD SVG 1.1//EN" "http://www.w3.org/Graphics/SVG/1.1/DTD/svg11.dtd">
<!-- Creator: CorelDRAW X8 -->
<svg xmlns="http://www.w3.org/2000/svg" xml:space="preserve" width="1070px" height="868px" version="1.1" style="shape-rendering:geometricPrecision; text-rendering:geometricPrecision; image-rendering:optimizeQuality; fill-rule:evenodd; clip-rule:evenodd"
viewBox="0 0 1070 868"
 xmlns:xlink="http://www.w3.org/1999/xlink">
 <defs>
  <style type="text/css">
   <![CDATA[
    .fil0 {fill:#996633;fill-rule:nonzero}
   ]]>
  </style>
 </defs>
 <g id="Layer_x0020_1">
  <metadata id="CorelCorpID_0Corel-Layer"/>
  <path class="fil0" d="M531 0c90,0 176,26 224,109 26,44 36,96 39,146l10 0c82,0 159,30 212,95 40,49 57,111 53,174 -5,79 -38,146 -95,200 -50,47 -113,81 -178,103 -43,15 -87,25 -132,32 -44,6 -89,9 -133,9 -45,0 -92,-4 -135,-15 -42,-11 -116,-40 -116,-93 1,-56 81,-85 126,-94 41,-10 85,-13 128,-13 41,0 81,3 121,12 42,10 116,36 125,86 38,-20 72,-47 99,-81 32,-43 48,-94 51,-148 2,-42 -7,-86 -28,-123 -20,-36 -56,-74 -99,-74l-8 -1c-1,57 -12,120 -41,169 -49,82 -134,107 -224,107 -61,0 -125,-12 -174,-51 -38,38 -93,51 -145,51 -58,0 -120,-16 -163,-57 -31,-30 -48,-70 -48,-113 0,-42 18,-80 49,-109 50,-49 123,-66 190,-66l28 0c3,-50 13,-101 38,-145 48,-84 134,-110 226,-110zm1 718c-23,0 -47,2 -70,7 -16,4 -49,15 -50,35 -1,20 32,31 47,35 24,6 49,8 73,7 27,0 59,-2 84,-11 12,-5 33,-15 33,-31 1,-17 -24,-27 -38,-31 -25,-9 -52,-11 -79,-11zm-126 -463l249 0c-4,-43 -12,-88 -34,-126 -19,-34 -50,-60 -90,-60 -41,0 -72,26 -91,60 -22,38 -31,83 -34,126zm249 70l-249 0c2,50 10,105 36,148 19,33 49,58 88,58 40,0 70,-25 90,-58 25,-44 33,-98 35,-148zm-382 69c-4,-23 -6,-46 -7,-69l-27 0c-27,0 -51,12 -70,32 -19,20 -29,44 -29,72 -1,21 6,45 17,63 10,19 29,39 52,39 23,-1 41,-21 51,-40 16,-29 19,-65 13,-97z"/>
 </g>
</svg>
