<?xml version="1.0" encoding="UTF-8"?>
<!DOCTYPE svg PUBLIC "-//W3C//DTD SVG 1.1//EN" "http://www.w3.org/Graphics/SVG/1.1/DTD/svg11.dtd">
<!-- Creator: CorelDRAW X8 -->
<svg xmlns="http://www.w3.org/2000/svg" xml:space="preserve" width="2115px" height="1486px" version="1.1" style="shape-rendering:geometricPrecision; text-rendering:geometricPrecision; image-rendering:optimizeQuality; fill-rule:evenodd; clip-rule:evenodd"
viewBox="0 0 2115 1486"
 xmlns:xlink="http://www.w3.org/1999/xlink">
 <defs>
  <style type="text/css">
   <![CDATA[
    .fil0 {fill:#5B5A50;fill-rule:nonzero}
   ]]>
  </style>
 </defs>
 <g id="Layer_x0020_1">
  <metadata id="CorelCorpID_0Corel-Layer"/>
  <path class="fil0" d="M1236 0c152,0 287,49 364,185 44,77 61,167 66,255l55 0c91,0 180,15 255,70 97,70 138,184 139,299 1,228 -163,422 -356,532 -167,94 -368,140 -559,144 -322,8 -656,-50 -909,-259 -200,-165 -292,-383 -291,-639 1,-221 97,-442 288,-567 39,-25 101,-26 143,-6 39,18 51,53 12,78 -162,106 -240,310 -240,495 0,216 67,408 231,555 209,189 488,240 764,231 145,-4 290,-39 416,-110 164,-93 300,-261 298,-454 0,-58 -12,-118 -40,-167 -37,-64 -79,-91 -151,-91l-53 0c-4,100 -20,204 -71,292 -77,133 -211,181 -361,181 -110,0 -219,-26 -299,-102 -60,73 -152,101 -244,102 -94,0 -192,-31 -260,-96 -53,-51 -82,-120 -81,-193 1,-72 30,-135 82,-187 80,-78 197,-108 307,-108l64 0c5,-87 22,-177 65,-254 78,-137 213,-186 366,-186zm-420 673c-7,-42 -11,-80 -12,-122l-63 0c-50,0 -94,17 -130,52 -36,36 -55,80 -56,130 -2,52 16,103 54,140 21,20 53,39 83,39 29,0 59,-20 77,-40 50,-52 59,-132 47,-199zm649 -122l-459 0c3,87 17,183 61,259 38,64 92,102 169,102 77,0 131,-39 169,-103 44,-76 57,-171 60,-258zm-458 -111l457 0c-5,-76 -19,-155 -57,-222 -38,-66 -93,-106 -171,-106 -79,0 -134,40 -172,106 -38,67 -52,146 -57,222z"/>
 </g>
</svg>
