<?xml version="1.0" encoding="UTF-8"?>
<!DOCTYPE svg PUBLIC "-//W3C//DTD SVG 1.1//EN" "http://www.w3.org/Graphics/SVG/1.1/DTD/svg11.dtd">
<!-- Creator: CorelDRAW X8 -->
<svg xmlns="http://www.w3.org/2000/svg" xml:space="preserve" width="2264px" height="1486px" version="1.1" style="shape-rendering:geometricPrecision; text-rendering:geometricPrecision; image-rendering:optimizeQuality; fill-rule:evenodd; clip-rule:evenodd"
viewBox="0 0 2264 1486"
 xmlns:xlink="http://www.w3.org/1999/xlink">
 <defs>
  <style type="text/css">
   <![CDATA[
    .fil0 {fill:#5B5A50;fill-rule:nonzero}
   ]]>
  </style>
 </defs>
 <g id="Layer_x0020_1">
  <metadata id="CorelCorpID_0Corel-Layer"/>
  <path class="fil0" d="M883 0c156,0 293,51 369,192 116,-143 299,-192 478,-192 111,0 240,19 336,77 103,62 168,150 166,272 -1,75 -41,137 -102,179 94,56 135,158 134,263 -1,85 -27,177 -82,244 -99,119 -245,155 -394,155l-1472 0c-53,0 -113,4 -111,70 1,66 57,68 111,68l1818 0c47,0 102,27 102,79 0,51 -55,79 -102,79l-1818 0c-143,0 -320,-34 -316,-209 4,-170 177,-198 316,-198l1472 0c108,0 179,-41 237,-132 29,-44 41,-103 41,-156 -1,-60 -18,-131 -65,-174 -20,-18 -46,-25 -73,-27 -17,-1 -34,2 -52,0 -30,-2 -85,-16 -88,-52 -3,-39 57,-56 86,-58 16,-2 34,-1 49,-3 24,-4 47,-15 65,-32 27,-25 42,-60 42,-97 1,-63 -20,-110 -65,-155 -59,-60 -153,-79 -236,-82 -109,-2 -217,25 -296,102 -64,62 -100,140 -116,226l61 0c110,0 226,30 307,109 52,51 81,114 82,187 0,73 -28,141 -81,193 -68,65 -166,96 -260,95 -93,0 -184,-28 -244,-101 -29,28 -64,51 -107,68 -53,22 -116,33 -192,33 -75,0 -139,-11 -192,-33 -42,-17 -77,-40 -107,-68 -59,73 -151,101 -243,101 -94,1 -192,-30 -260,-95 -53,-52 -82,-120 -81,-193 1,-73 30,-136 82,-187 80,-79 196,-109 307,-109l64 0c5,-87 22,-176 65,-253 77,-137 213,-186 365,-186zm432 551c-1,44 -5,84 -13,127 -12,64 1,145 47,194 19,20 49,40 78,40 30,0 62,-19 83,-39 37,-37 55,-88 54,-140 -1,-50 -20,-94 -56,-130 -36,-35 -80,-52 -130,-52l-63 0zm-850 125c-8,-42 -12,-82 -14,-125l-62 0c-50,0 -94,17 -130,52 -36,36 -55,80 -57,130 -1,52 17,103 55,140 21,20 53,39 83,39 29,0 58,-20 77,-40 47,-50 59,-131 48,-196zm648 -125l-459 0c3,87 17,182 61,258 38,65 92,102 168,102 77,0 132,-38 169,-102 44,-76 58,-172 61,-258zm-458 -112l457 0c-5,-75 -20,-154 -58,-221 -37,-66 -92,-106 -171,-106 -79,0 -134,40 -171,107 -38,66 -52,145 -57,220z"/>
 </g>
</svg>
