<?xml version="1.0" encoding="UTF-8"?>
<!DOCTYPE svg PUBLIC "-//W3C//DTD SVG 1.1//EN" "http://www.w3.org/Graphics/SVG/1.1/DTD/svg11.dtd">
<!-- Creator: CorelDRAW X8 -->
<svg xmlns="http://www.w3.org/2000/svg" xml:space="preserve" width="3164px" height="1486px" version="1.1" style="shape-rendering:geometricPrecision; text-rendering:geometricPrecision; image-rendering:optimizeQuality; fill-rule:evenodd; clip-rule:evenodd"
viewBox="0 0 3164 1487"
 xmlns:xlink="http://www.w3.org/1999/xlink">
 <defs>
  <style type="text/css">
   <![CDATA[
    .fil0 {fill:#2B2A29;fill-rule:nonzero}
   ]]>
  </style>
 </defs>
 <g id="Layer_x0020_1">
  <metadata id="CorelCorpID_0Corel-Layer"/>
  <path class="fil0" d="M3015 1487c46,0 101,-28 101,-81 0,-51 -55,-79 -101,-79l-1213 0c-54,0 -113,0 -113,-70 0,-63 60,-67 113,-67l852 0c153,0 311,-35 420,-150 64,-67 90,-150 90,-240 0,-112 -55,-211 -153,-268 65,-46 104,-119 104,-199 0,-109 -70,-197 -163,-252 -106,-61 -242,-81 -364,-81 -101,0 -205,9 -301,40 -75,-29 -157,-39 -237,-39 -200,0 -399,99 -495,280 -32,59 -52,122 -62,187 -64,-24 -110,-28 -178,-28 -6,-87 -22,-178 -67,-255 -77,-136 -212,-185 -365,-185 -152,0 -288,49 -365,186 -43,77 -60,167 -65,254l-64 0c-111,0 -227,30 -307,109 -53,52 -82,117 -82,191 0,71 29,138 81,188 67,65 163,96 259,96 91,0 185,-27 244,-101 81,76 190,101 299,101 151,0 285,-47 362,-181 52,-87 68,-192 70,-292l22 0c38,0 70,18 98,41 32,28 52,60 62,103 26,121 90,236 200,301 28,18 63,29 97,29 24,0 48,-6 69,-19 19,-11 27,-24 27,-38 0,-15 -11,-30 -32,-41 -127,-64 -171,-224 -171,-354 0,-89 20,-181 63,-261 56,-107 174,-200 300,-200 23,1 47,3 69,7 -150,113 -228,290 -228,474 0,85 17,175 58,250 68,123 188,181 327,181 140,0 261,-58 330,-181 41,-75 59,-165 59,-250 0,-182 -76,-357 -224,-470 48,-10 98,-11 147,-11 144,0 332,52 332,221 0,62 -33,146 -106,146 -36,0 -81,12 -81,57 0,42 46,54 80,55 106,2 157,117 157,209 0,58 -23,114 -58,162 -58,80 -158,117 -255,117l-855 0c-136,0 -317,28 -317,201 0,173 174,207 317,207l1213 0zm-1903 -1047l-457 0c10,-153 65,-328 228,-328 161,0 219,171 229,328zm1164 473c-60,0 -106,-54 -133,-102 -36,-65 -50,-145 -50,-218 0,-150 62,-310 184,-404 124,95 185,252 185,404 0,73 -14,152 -50,217 -27,48 -75,103 -136,103zm-1936 0c-30,0 -62,-19 -83,-40 -37,-35 -55,-85 -55,-135 0,-50 21,-99 57,-134 36,-36 80,-52 130,-52l62 0c2,42 6,80 13,121 3,17 4,35 4,53 0,54 -13,107 -51,147 -19,20 -48,39 -77,40zm543 -1c-173,0 -223,-197 -229,-360l459 0c-6,167 -59,360 -230,360z"/>
 </g>
</svg>
