<?xml version="1.0" encoding="UTF-8"?>
<!DOCTYPE svg PUBLIC "-//W3C//DTD SVG 1.1//EN" "http://www.w3.org/Graphics/SVG/1.1/DTD/svg11.dtd">
<!-- Creator: CorelDRAW X8 -->
<svg xmlns="http://www.w3.org/2000/svg" xml:space="preserve" width="1768px" height="1024px" version="1.1" style="shape-rendering:geometricPrecision; text-rendering:geometricPrecision; image-rendering:optimizeQuality; fill-rule:evenodd; clip-rule:evenodd"
viewBox="0 0 1768 1024"
 xmlns:xlink="http://www.w3.org/1999/xlink">
 <defs>
  <style type="text/css">
   <![CDATA[
    .fil0 {fill:#5B5A50;fill-rule:nonzero}
   ]]>
  </style>
 </defs>
 <g id="Layer_x0020_1">
  <metadata id="CorelCorpID_0Corel-Layer"/>
  <path class="fil0" d="M883 0c152,0 288,48 365,183 43,77 61,170 66,257l170 0c110,0 256,35 258,167 1,46 -22,82 -61,107 49,23 86,63 87,119 2,140 -165,190 -282,191 -66,1 -139,-13 -192,-51 -39,-27 -33,-55 9,-75 40,-20 94,-20 133,4 14,8 31,11 47,11 49,0 88,-29 87,-80 0,-23 -13,-45 -35,-55 -19,-9 -58,-1 -82,0 -34,1 -99,-12 -96,-57 2,-40 62,-56 95,-54 19,1 55,4 72,-8 17,-12 17,-33 16,-52 -1,-31 -23,-56 -56,-56l-169 0c-3,98 -20,206 -70,293 -77,133 -211,180 -362,180 -109,0 -218,-25 -299,-101 -59,73 -151,101 -244,101 -94,0 -191,-30 -259,-95 -53,-51 -82,-119 -81,-192 1,-72 30,-141 82,-192 80,-78 196,-105 306,-105l65 0c5,-87 22,-179 65,-256 77,-135 213,-184 365,-184zm-419 675c-7,-41 -11,-82 -13,-124l-62 0c-50,0 -94,13 -130,48 -36,36 -55,87 -57,137 -1,51 17,102 55,138 21,20 53,39 83,39 29,0 58,-20 77,-39 49,-52 59,-132 47,-199zm649 -124l-459 0c3,86 17,185 61,260 37,64 92,102 168,102 77,0 132,-38 169,-102 44,-76 58,-174 61,-260zm-458 -111l457 0c-5,-75 -20,-157 -58,-224 -37,-65 -92,-105 -171,-105 -79,0 -134,40 -171,106 -38,66 -52,148 -57,223z"/>
 </g>
</svg>
