<?xml version="1.0" encoding="UTF-8"?>
<!DOCTYPE svg PUBLIC "-//W3C//DTD SVG 1.1//EN" "http://www.w3.org/Graphics/SVG/1.1/DTD/svg11.dtd">
<!-- Creator: CorelDRAW X8 -->
<svg xmlns="http://www.w3.org/2000/svg" xml:space="preserve" width="1090px" height="868px" version="1.1" style="shape-rendering:geometricPrecision; text-rendering:geometricPrecision; image-rendering:optimizeQuality; fill-rule:evenodd; clip-rule:evenodd"
viewBox="0 0 1090 868"
 xmlns:xlink="http://www.w3.org/1999/xlink">
 <defs>
  <style type="text/css">
   <![CDATA[
    .fil0 {fill:#2B2A29;fill-rule:nonzero}
   ]]>
  </style>
 </defs>
 <g id="Layer_x0020_1">
  <metadata id="CorelCorpID_0Corel-Layer"/>
  <path class="fil0" d="M542 868c57,0 114,-4 170,-15 98,-19 203,-59 278,-126 60,-53 100,-124 100,-213 0,-56 -18,-120 -55,-164 -59,-71 -136,-95 -226,-95 -3,-50 -14,-101 -39,-146 -49,-83 -137,-109 -229,-109 -93,0 -181,26 -230,110 -26,44 -36,95 -39,145l-28 0c-69,0 -144,17 -194,66 -32,29 -50,67 -50,109 0,43 17,83 49,113 44,41 107,57 166,57 53,0 109,-13 147,-51 50,39 116,51 178,51 92,0 179,-25 228,-107 29,-49 41,-112 41,-168l9 0c44,0 80,38 101,74 20,33 29,75 29,115 0,57 -20,114 -53,156 -27,35 -62,61 -100,81 -9,-50 -85,-76 -127,-86 -41,-8 -83,-12 -124,-12 -43,0 -88,3 -131,13 -45,10 -127,38 -127,94 0,54 75,82 118,93 44,11 91,15 138,15zm125 -613l-253 0c6,-84 41,-186 127,-186 85,0 120,103 126,186zm-127 276c-89,0 -123,-114 -127,-206l255 0c-3,83 -33,206 -128,206zm-327 0c-24,0 -43,-20 -54,-38 -10,-19 -17,-43 -17,-64 1,-27 11,-51 30,-72 19,-20 44,-32 72,-32l27 0c1,23 3,46 7,69 2,10 3,20 3,31 0,23 -5,46 -16,66 -10,19 -29,39 -52,40zm329 272c-24,0 -50,-2 -74,-8 -16,-4 -48,-15 -48,-34 0,-21 34,-32 51,-36 23,-5 48,-7 71,-7 27,0 55,3 81,11 14,4 38,14 38,31 0,16 -20,26 -33,31 -26,9 -58,12 -86,12z"/>
 </g>
</svg>
