<?xml version="1.0" encoding="UTF-8"?>
<!DOCTYPE svg PUBLIC "-//W3C//DTD SVG 1.1//EN" "http://www.w3.org/Graphics/SVG/1.1/DTD/svg11.dtd">
<!-- Creator: CorelDRAW X8 -->
<svg xmlns="http://www.w3.org/2000/svg" xml:space="preserve" width="2627px" height="1486px" version="1.1" style="shape-rendering:geometricPrecision; text-rendering:geometricPrecision; image-rendering:optimizeQuality; fill-rule:evenodd; clip-rule:evenodd"
viewBox="0 0 2627 1487"
 xmlns:xlink="http://www.w3.org/1999/xlink">
 <defs>
  <style type="text/css">
   <![CDATA[
    .fil0 {fill:#2B2A29;fill-rule:nonzero}
   ]]>
  </style>
 </defs>
 <g id="Layer_x0020_1">
  <metadata id="CorelCorpID_0Corel-Layer"/>
  <path class="fil0" d="M1322 1487c302,0 648,-63 904,-229 239,-153 401,-384 401,-675 -1,-128 -36,-260 -114,-363 -117,-156 -302,-220 -494,-220 -159,0 -310,56 -410,183 -77,-134 -213,-183 -365,-183 -153,0 -288,49 -365,186 -44,77 -61,167 -66,254l-64 0c-110,0 -226,30 -306,109 -53,51 -83,113 -83,186 0,73 28,141 81,193 70,67 166,95 260,95 93,0 184,-28 244,-101 81,76 190,101 299,101 110,0 219,-25 300,-101 59,73 151,101 244,101 94,0 190,-29 259,-95 52,-51 81,-118 81,-189 0,-76 -28,-137 -82,-190 -80,-79 -196,-109 -306,-109l-60 0c13,-83 46,-158 104,-219 60,-63 143,-109 232,-110 127,0 234,51 310,151 68,91 99,208 99,321 0,252 -143,467 -353,603 -214,138 -499,188 -750,188 -246,0 -521,-38 -738,-157 -252,-138 -381,-370 -381,-656 0,-178 68,-367 224,-468 17,-11 24,-24 24,-36 0,-17 -14,-33 -36,-43 -20,-9 -43,-14 -66,-14 -28,0 -55,7 -77,21 -184,120 -272,328 -272,540 0,326 158,580 442,735 259,142 586,191 880,191zm151 -1047l-458 0c10,-157 68,-328 229,-328 164,0 219,173 229,328zm315 472c-28,0 -58,-20 -77,-40 -35,-38 -51,-94 -51,-147 0,-16 1,-32 4,-47 7,-43 11,-83 13,-127l63 0c49,0 94,17 129,52 37,37 57,82 57,134 0,51 -18,100 -55,135 -21,21 -52,40 -83,40zm-1088 0c-30,0 -61,-19 -83,-40 -36,-35 -54,-84 -54,-135 0,-52 20,-97 56,-134 36,-35 80,-52 130,-52l63 0c1,44 5,83 13,125 3,15 4,32 4,48 0,54 -15,110 -51,148 -19,20 -49,40 -78,40zm544 -1c-176,0 -223,-200 -230,-359l461 0c-6,159 -54,359 -231,359z"/>
 </g>
</svg>
