<?xml version="1.0" encoding="UTF-8"?>
<!DOCTYPE svg PUBLIC "-//W3C//DTD SVG 1.1//EN" "http://www.w3.org/Graphics/SVG/1.1/DTD/svg11.dtd">
<!-- Creator: CorelDRAW X8 -->
<svg xmlns="http://www.w3.org/2000/svg" xml:space="preserve" width="1270px" height="868px" version="1.1" style="shape-rendering:geometricPrecision; text-rendering:geometricPrecision; image-rendering:optimizeQuality; fill-rule:evenodd; clip-rule:evenodd"
viewBox="0 0 1270 869"
 xmlns:xlink="http://www.w3.org/1999/xlink">
 <defs>
  <style type="text/css">
   <![CDATA[
    .fil0 {fill:#E31E24;fill-rule:nonzero}
   ]]>
  </style>
 </defs>
 <g id="Layer_x0020_1">
  <metadata id="CorelCorpID_0Corel-Layer"/>
  <path class="fil0" d="M742 0c90,0 173,25 220,107 26,46 36,101 39,154 12,0 25,0 31,0 73,0 141,12 188,67 35,42 50,96 50,150 -1,115 -77,215 -169,279 -108,75 -250,108 -380,111 -192,5 -395,-28 -548,-152 -117,-95 -174,-221 -173,-374 1,-129 58,-258 171,-330 27,-18 92,-16 107,9 7,10 1,20 -9,27 -98,62 -146,183 -146,294 0,131 42,244 140,330 126,111 292,142 455,137 116,-4 234,-40 320,-116 62,-55 107,-129 109,-213 1,-34 -5,-67 -18,-96 -20,-41 -49,-65 -96,-64l-32 0c0,58 -11,125 -41,176 -47,80 -129,104 -218,104 -64,0 -130,-13 -179,-57 -37,43 -92,57 -147,57 -56,1 -116,-16 -157,-55 -31,-29 -48,-69 -48,-111 1,-42 18,-83 48,-112 49,-47 120,-61 186,-61l38 0c3,-52 13,-108 39,-154 47,-82 130,-107 220,-107zm-137 261l274 0c-3,-46 -12,-97 -35,-138 -22,-38 -57,-64 -102,-64 -46,0 -80,26 -102,65 -23,40 -32,91 -35,137zm274 59l-275 0c2,53 11,113 38,159 22,37 56,62 100,62 44,0 78,-25 100,-62 28,-46 36,-106 37,-159zm-389 77c-5,-26 -7,-51 -8,-77l-37 0c-33,0 -61,13 -80,34 -19,20 -31,48 -31,79 -1,20 6,45 17,66 14,24 36,43 64,42 31,0 61,-28 73,-76 6,-23 6,-47 2,-68z"/>
 </g>
</svg>
