<?xml version="1.0" encoding="UTF-8"?>
<!DOCTYPE svg PUBLIC "-//W3C//DTD SVG 1.1//EN" "http://www.w3.org/Graphics/SVG/1.1/DTD/svg11.dtd">
<!-- Creator: CorelDRAW X8 -->
<svg xmlns="http://www.w3.org/2000/svg" xml:space="preserve" width="2075px" height="1486px" version="1.1" style="shape-rendering:geometricPrecision; text-rendering:geometricPrecision; image-rendering:optimizeQuality; fill-rule:evenodd; clip-rule:evenodd"
viewBox="0 0 2075 1486"
 xmlns:xlink="http://www.w3.org/1999/xlink">
 <defs>
  <style type="text/css">
   <![CDATA[
    .fil0 {fill:#996633;fill-rule:nonzero}
   ]]>
  </style>
 </defs>
 <g id="Layer_x0020_1">
  <metadata id="CorelCorpID_0Corel-Layer"/>
  <path class="fil0" d="M1212 0c150,0 283,49 358,185 43,77 60,167 65,255l53 0c89,0 177,15 251,70 95,70 135,184 136,299 1,228 -160,422 -349,532 -164,94 -361,140 -549,144 -315,8 -643,-50 -891,-259 -197,-165 -287,-383 -286,-639 1,-221 95,-442 283,-567 37,-24 100,-25 140,-6 38,18 50,53 11,78 -158,106 -235,310 -235,495 0,216 66,408 227,555 205,189 479,240 749,231 142,-4 284,-39 408,-110 161,-93 295,-261 293,-454 0,-58 -12,-118 -40,-167 -35,-64 -77,-91 -148,-91l-52 0c-3,100 -19,204 -69,292 -76,133 -207,181 -355,181 -107,0 -214,-26 -293,-102 -58,73 -148,101 -239,102 -92,0 -188,-31 -255,-96 -52,-51 -80,-120 -80,-193 1,-72 30,-135 81,-187 79,-78 193,-108 301,-108l63 0c5,-87 22,-177 64,-254 76,-137 209,-186 358,-186zm-411 673c-7,-42 -11,-80 -13,-122l-61 0c-49,0 -92,17 -127,52 -36,36 -55,80 -56,130 -1,52 17,103 54,140 20,20 51,39 81,39 28,0 57,-20 76,-40 48,-52 57,-132 46,-199zm637 -122l-451 0c3,87 17,183 60,259 37,64 90,102 165,102 76,0 130,-39 166,-103 43,-76 57,-171 60,-258zm-450 -111l448 0c-4,-76 -19,-155 -56,-222 -37,-66 -90,-106 -168,-106 -77,0 -131,40 -168,106 -37,67 -51,146 -56,222z"/>
 </g>
</svg>
