<?xml version="1.0" encoding="UTF-8"?>
<!DOCTYPE svg PUBLIC "-//W3C//DTD SVG 1.1//EN" "http://www.w3.org/Graphics/SVG/1.1/DTD/svg11.dtd">
<!-- Creator: CorelDRAW X8 -->
<svg xmlns="http://www.w3.org/2000/svg" xml:space="preserve" width="3163px" height="1486px" version="1.1" style="shape-rendering:geometricPrecision; text-rendering:geometricPrecision; image-rendering:optimizeQuality; fill-rule:evenodd; clip-rule:evenodd"
viewBox="0 0 3163 1486"
 xmlns:xlink="http://www.w3.org/1999/xlink">
 <defs>
  <style type="text/css">
   <![CDATA[
    .fil0 {fill:#5B5A50;fill-rule:nonzero}
   ]]>
  </style>
 </defs>
 <g id="Layer_x0020_1">
  <metadata id="CorelCorpID_0Corel-Layer"/>
  <path class="fil0" d="M2813 479c73,0 106,-84 106,-146 0,-169 -188,-221 -332,-221 -49,0 -99,1 -147,11 148,113 224,288 224,470 0,85 -18,175 -59,250 -69,123 -190,181 -330,181 -139,0 -259,-58 -327,-181 -41,-75 -58,-165 -58,-250 0,-184 78,-361 228,-474 -22,-4 -46,-6 -69,-7 -126,0 -244,93 -300,200 -42,80 -62,172 -62,261 0,130 44,290 170,354 39,20 45,56 5,79 -51,31 -116,20 -166,-10 -109,-65 -173,-180 -199,-301 -10,-43 -31,-75 -63,-103 -27,-23 -60,-41 -98,-41l-21 0c-3,100 -19,205 -70,292 -77,134 -211,181 -362,181 -109,0 -218,-25 -299,-101 -59,73 -151,101 -243,101 -94,1 -192,-30 -260,-96 -53,-51 -82,-119 -81,-192 1,-73 30,-136 82,-187 80,-79 196,-109 307,-109l64 0c5,-87 22,-177 65,-254 77,-137 213,-186 365,-186 153,0 288,49 365,185 44,77 61,168 66,255l22 0c54,0 106,9 157,28 10,-65 30,-128 61,-187 97,-182 294,-281 495,-280 78,0 164,11 237,39 96,-31 200,-40 301,-40 122,0 258,20 364,81 94,55 164,146 163,256 -1,79 -39,149 -104,195 98,57 153,156 153,268 0,90 -26,173 -90,240 -109,115 -267,150 -420,150l-852 0c-54,0 -114,4 -112,70 2,66 57,67 112,67l1215 0c46,0 101,28 101,79 0,52 -55,80 -101,80l-1215 0c-143,0 -320,-34 -317,-210 4,-169 178,-197 317,-197l855 0c97,0 197,-37 255,-117 35,-48 58,-104 58,-162 0,-92 -51,-207 -157,-209 -34,-1 -81,-13 -80,-56 1,-44 45,-56 81,-56zm-2349 194c-7,-41 -11,-79 -13,-121l-62 0c-50,0 -94,16 -130,52 -36,35 -55,80 -57,130 -1,51 17,103 55,139 21,21 53,40 83,40 29,-1 58,-20 77,-40 23,-24 37,-54 45,-86 8,-37 8,-77 2,-114zm649 -121l-459 0c3,86 17,182 61,258 38,64 92,102 168,102 77,0 132,-38 169,-103 44,-75 58,-171 61,-257zm-458 -112l457 0c-5,-76 -20,-155 -58,-222 -37,-66 -92,-106 -171,-106 -79,0 -134,40 -171,107 -38,66 -52,146 -57,221zm1621 -251c-122,94 -184,254 -184,404 0,73 14,153 50,218 27,48 73,102 133,102 61,0 109,-55 136,-103 36,-65 50,-144 50,-217 0,-152 -61,-309 -185,-404z"/>
 </g>
</svg>
