<?xml version="1.0" encoding="UTF-8"?>
<!DOCTYPE svg PUBLIC "-//W3C//DTD SVG 1.1//EN" "http://www.w3.org/Graphics/SVG/1.1/DTD/svg11.dtd">
<!-- Creator: CorelDRAW X8 -->
<svg xmlns="http://www.w3.org/2000/svg" xml:space="preserve" width="1078px" height="868px" version="1.1" style="shape-rendering:geometricPrecision; text-rendering:geometricPrecision; image-rendering:optimizeQuality; fill-rule:evenodd; clip-rule:evenodd"
viewBox="0 0 1078 868"
 xmlns:xlink="http://www.w3.org/1999/xlink">
 <defs>
  <style type="text/css">
   <![CDATA[
    .fil0 {fill:#996633;fill-rule:nonzero}
   ]]>
  </style>
 </defs>
 <g id="Layer_x0020_1">
  <metadata id="CorelCorpID_0Corel-Layer"/>
  <path class="fil0" d="M406 255l249 0c-3,-43 -12,-88 -34,-126 -19,-34 -50,-60 -90,-60 -41,0 -72,26 -91,60 -22,38 -31,83 -34,126zm249 70l-249 0c2,50 10,105 36,148 19,33 49,58 88,58 40,0 70,-25 90,-58 25,-44 33,-98 35,-148zm-382 69c-4,-23 -6,-46 -7,-69l-27 0c-27,0 -51,12 -70,32 -19,20 -29,44 -29,72 -1,21 6,45 16,63 11,19 30,39 53,39 21,-1 38,-17 49,-36 17,-31 21,-67 15,-101zm521 -139l91 0c43,0 96,9 131,36 28,20 40,49 40,82 0,33 -16,62 -44,79 41,18 66,59 66,104 0,109 -121,139 -208,139l-670 0c-29,0 -60,3 -59,40 1,35 27,36 56,36l794 0c29,0 70,13 70,49 0,35 -41,48 -70,48l-794 0c-83,0 -199,-16 -197,-124 2,-105 119,-118 200,-118l670 0c41,0 79,-29 81,-72 1,-29 -12,-62 -48,-63 -8,-1 -15,1 -22,1 -22,2 -63,-11 -65,-38 -1,-27 36,-32 56,-33 7,-1 14,0 21,0 27,0 40,-26 40,-48 -1,-26 -27,-48 -54,-48l-84 0c-1,56 -12,119 -41,168 -49,82 -134,110 -224,110 -61,0 -125,-15 -174,-54 -38,38 -93,54 -145,54 -58,0 -120,-19 -163,-60 -31,-30 -48,-70 -48,-113 0,-43 18,-80 49,-109 50,-49 123,-66 190,-66l28 0c3,-50 13,-101 38,-145 48,-84 134,-110 226,-110 91,0 176,26 224,109 26,44 36,96 39,146z"/>
 </g>
</svg>
