<?xml version="1.0" encoding="UTF-8"?>
<!DOCTYPE svg PUBLIC "-//W3C//DTD SVG 1.1//EN" "http://www.w3.org/Graphics/SVG/1.1/DTD/svg11.dtd">
<!-- Creator: CorelDRAW X8 -->
<svg xmlns="http://www.w3.org/2000/svg" xml:space="preserve" width="3118px" height="1486px" version="1.1" style="shape-rendering:geometricPrecision; text-rendering:geometricPrecision; image-rendering:optimizeQuality; fill-rule:evenodd; clip-rule:evenodd"
viewBox="0 0 3118 1487"
 xmlns:xlink="http://www.w3.org/1999/xlink">
 <defs>
  <style type="text/css">
   <![CDATA[
    .fil0 {fill:#2B2A29;fill-rule:nonzero}
   ]]>
  </style>
 </defs>
 <g id="Layer_x0020_1">
  <metadata id="CorelCorpID_0Corel-Layer"/>
  <path class="fil0" d="M2958 1156c106,-144 160,-324 160,-503 0,-136 -33,-269 -106,-385 -109,-173 -302,-268 -506,-268 -77,0 -156,11 -229,36 -73,-25 -152,-36 -229,-36 -204,0 -397,100 -493,280 -32,59 -52,123 -62,188 -64,-24 -110,-28 -178,-28 -6,-88 -24,-178 -68,-255 -77,-136 -212,-185 -364,-185 -153,0 -288,49 -365,186 -44,77 -61,167 -66,254l-64 0c-110,0 -226,30 -307,109 -53,52 -81,117 -81,191 0,71 29,138 81,188 68,66 166,96 260,96 92,0 184,-28 243,-101 81,76 190,101 300,101 150,0 284,-47 361,-181 52,-88 66,-192 70,-292l22 0c38,0 70,18 98,41 30,27 54,60 62,103 26,121 92,235 200,300 30,18 64,29 97,29 24,0 48,-6 69,-19 19,-11 27,-24 27,-38 0,-15 -11,-30 -32,-41 -127,-64 -171,-224 -171,-354 0,-89 20,-181 62,-261 57,-106 173,-199 299,-199 24,0 47,2 71,6 -150,113 -229,297 -229,481 0,85 18,169 60,243 67,122 186,181 327,181 140,0 259,-55 329,-181 42,-75 58,-158 58,-243 0,-185 -77,-368 -229,-481 23,-4 47,-6 71,-6 130,0 244,92 313,195 70,105 97,232 97,356 0,146 -31,296 -103,423 -35,63 -80,120 -135,167 -10,-38 -38,-66 -71,-87 -49,-30 -118,-42 -175,-42 -53,0 -112,10 -159,35 -46,-25 -105,-35 -158,-35 -57,0 -126,12 -175,42 -40,26 -74,65 -74,114 0,82 81,144 152,169 75,28 165,38 254,38 94,0 184,-12 269,-37 164,-48 306,-144 417,-294zm-1847 -716l-457 0c10,-154 65,-328 229,-328 163,0 218,173 228,328zm1166 472c-61,0 -107,-54 -134,-102 -36,-65 -50,-138 -50,-211 0,-150 61,-316 184,-411 124,95 185,260 185,411 0,74 -13,145 -50,210 -26,48 -74,103 -135,103zm-1937 0l-2 0c-30,0 -61,-19 -81,-39 -37,-35 -55,-85 -55,-135 0,-50 20,-99 56,-135 36,-35 80,-51 130,-51l63 0c1,42 6,80 13,121 3,17 5,34 5,52 0,54 -15,109 -52,148 -19,20 -48,39 -77,39zm544 0c-175,0 -225,-201 -231,-360l460 0c-8,167 -55,360 -229,360zm1388 475c-57,0 -128,-4 -180,-27 -34,-15 -58,-40 -58,-78 0,-43 45,-61 82,-61 47,0 66,42 67,83 0,40 59,51 91,51 31,0 90,-11 90,-51 0,-41 20,-83 67,-83 39,0 81,18 81,63 0,37 -24,62 -57,76 -53,24 -125,27 -183,27z"/>
 </g>
</svg>
