<?xml version="1.0" encoding="UTF-8"?>
<!DOCTYPE svg PUBLIC "-//W3C//DTD SVG 1.1//EN" "http://www.w3.org/Graphics/SVG/1.1/DTD/svg11.dtd">
<!-- Creator: CorelDRAW X8 -->
<svg xmlns="http://www.w3.org/2000/svg" xml:space="preserve" width="1375px" height="868px" version="1.1" style="shape-rendering:geometricPrecision; text-rendering:geometricPrecision; image-rendering:optimizeQuality; fill-rule:evenodd; clip-rule:evenodd"
viewBox="0 0 1375 868"
 xmlns:xlink="http://www.w3.org/1999/xlink">
 <defs>
  <style type="text/css">
   <![CDATA[
    .fil0 {fill:#A82682;fill-rule:nonzero}
   ]]>
  </style>
 </defs>
 <g id="Layer_x0020_1">
  <metadata id="CorelCorpID_0Corel-Layer"/>
  <path class="fil0" d="M540 0c62,0 127,11 177,50 17,13 34,31 44,50 22,-30 52,-52 86,-68 51,-23 110,-32 160,-32 110,-1 219,31 292,116 53,64 76,146 76,227 0,85 -23,164 -63,233 -82,136 -223,212 -375,252 -67,18 -137,28 -207,33 -63,5 -126,8 -189,7 -46,-1 -94,-5 -140,-16 -42,-11 -116,-40 -115,-93 0,-53 75,-82 119,-92 44,-11 91,-15 137,-15 42,0 84,4 125,13 46,10 128,38 128,94 0,9 -2,18 -6,26 40,-7 77,-15 112,-26 108,-34 218,-103 277,-200 40,-66 55,-140 55,-216 0,-63 -16,-130 -53,-183 -40,-57 -101,-91 -171,-91 -50,1 -94,21 -127,53 -37,35 -62,82 -71,133l26 0c69,0 143,17 194,66 31,29 49,66 50,108 0,44 -17,84 -49,113 -44,41 -107,58 -166,58 -53,0 -109,-13 -147,-51 -51,39 -116,51 -179,51 -62,0 -128,-12 -178,-51 -38,38 -94,51 -147,51 -59,0 -122,-17 -166,-58 -32,-29 -49,-69 -49,-113 1,-42 19,-79 49,-108 51,-49 126,-66 195,-66l28 0c3,-53 15,-108 44,-154 50,-77 136,-101 224,-101zm2 718c-23,0 -47,1 -69,6 -17,4 -53,15 -53,35 -1,22 30,31 46,35 24,5 52,8 76,8 23,0 49,-3 71,-8 16,-4 49,-13 48,-35 0,-18 -28,-28 -43,-33 -24,-6 -50,-8 -76,-8zm-128 -463l253 0c-3,-35 -10,-70 -23,-103 -19,-45 -52,-84 -106,-83 -51,2 -83,39 -101,83 -14,32 -20,68 -23,103zm254 70l-255 0c2,49 11,104 37,148 20,33 50,57 90,57 41,0 72,-24 91,-57 26,-44 35,-99 37,-148zm-389 71c-5,-24 -7,-47 -8,-71l-27 0c-31,0 -58,15 -76,37 -16,20 -25,43 -26,68 0,22 4,44 15,63 11,20 31,37 55,38 25,0 45,-18 56,-38 16,-29 17,-65 11,-97zm531 -71c-1,24 -3,48 -8,72 -6,32 -3,67 14,95 11,19 31,38 54,39 22,0 40,-17 52,-38 11,-20 16,-45 16,-62 0,-26 -8,-49 -25,-69 -19,-23 -46,-37 -76,-37l-27 0z"/>
 </g>
</svg>
