<?xml version="1.0" encoding="UTF-8"?>
<!DOCTYPE svg PUBLIC "-//W3C//DTD SVG 1.1//EN" "http://www.w3.org/Graphics/SVG/1.1/DTD/svg11.dtd">
<!-- Creator: CorelDRAW X8 -->
<svg xmlns="http://www.w3.org/2000/svg" xml:space="preserve" width="1369px" height="600px" version="1.1" style="shape-rendering:geometricPrecision; text-rendering:geometricPrecision; image-rendering:optimizeQuality; fill-rule:evenodd; clip-rule:evenodd"
viewBox="0 0 1369 600"
 xmlns:xlink="http://www.w3.org/1999/xlink">
 <defs>
  <style type="text/css">
   <![CDATA[
    .fil0 {fill:#A82682;fill-rule:nonzero}
   ]]>
  </style>
 </defs>
 <g id="Layer_x0020_1">
  <metadata id="CorelCorpID_0Corel-Layer"/>
  <path class="fil0" d="M541 0c88,0 170,32 220,105 64,-69 162,-105 256,-105 97,0 193,31 262,100 58,57 90,129 90,210 0,64 -18,128 -54,181 -28,43 -68,78 -118,98 -33,13 -77,17 -107,-3 -24,-15 -15,-36 9,-47 48,-21 80,-56 100,-98 18,-40 27,-86 27,-131 2,-59 -15,-122 -53,-168 -38,-45 -97,-73 -156,-73 -56,0 -112,25 -149,66 -31,34 -49,76 -56,121l26 0c68,0 143,15 194,63 31,29 49,69 49,111 1,43 -17,83 -49,113 -44,40 -107,57 -166,57 -53,0 -109,-13 -147,-51 -50,39 -116,51 -178,51 -63,0 -128,-12 -179,-51 -38,38 -94,51 -147,51 -59,0 -122,-17 -166,-57 -32,-30 -50,-70 -49,-113 1,-42 19,-82 50,-111 50,-48 125,-63 194,-63l28 0c3,-54 15,-110 44,-155 50,-78 136,-101 225,-101zm-127 256l253 0c-3,-35 -10,-72 -23,-105 -19,-45 -52,-83 -106,-82 -51,1 -82,39 -101,82 -13,32 -20,70 -23,105zm254 69l-255 0c2,35 6,72 17,105 17,50 52,101 111,101 58,0 93,-51 110,-100 11,-34 15,-71 17,-106zm-389 72c-5,-24 -7,-48 -8,-72l-27 0c-20,0 -38,5 -54,15 -31,20 -47,56 -48,91 0,22 4,44 15,63 11,19 31,37 55,37 24,0 45,-17 56,-37 16,-29 17,-65 11,-97zm531 -72c-1,24 -3,49 -8,73 -6,34 -2,71 18,100 11,16 30,33 51,33 21,0 40,-18 51,-35 11,-19 17,-43 17,-64 0,-26 -9,-52 -26,-72 -19,-23 -46,-35 -76,-35l-27 0z"/>
 </g>
</svg>
