<?xml version="1.0" encoding="UTF-8"?>
<!DOCTYPE svg PUBLIC "-//W3C//DTD SVG 1.1//EN" "http://www.w3.org/Graphics/SVG/1.1/DTD/svg11.dtd">
<!-- Creator: CorelDRAW X8 -->
<svg xmlns="http://www.w3.org/2000/svg" xml:space="preserve" width="1270px" height="868px" version="1.1" style="shape-rendering:geometricPrecision; text-rendering:geometricPrecision; image-rendering:optimizeQuality; fill-rule:evenodd; clip-rule:evenodd"
viewBox="0 0 1270 868"
 xmlns:xlink="http://www.w3.org/1999/xlink">
 <defs>
  <style type="text/css">
   <![CDATA[
    .fil0 {fill:#996633;fill-rule:nonzero}
   ]]>
  </style>
 </defs>
 <g id="Layer_x0020_1">
  <metadata id="CorelCorpID_0Corel-Layer"/>
  <path class="fil0" d="M740 0c92,0 178,26 226,109 25,45 36,96 39,146 7,0 14,0 21,0 72,1 145,14 194,72 35,42 50,96 50,150 -1,115 -77,215 -168,278 -109,76 -251,110 -382,113 -191,4 -395,-29 -548,-153 -117,-95 -173,-221 -172,-372 1,-130 59,-257 170,-329 21,-14 54,-16 79,-12 30,5 71,30 33,55 -94,60 -142,178 -142,286 0,127 41,238 137,323 121,107 282,137 439,132 110,-3 224,-38 307,-112 60,-53 105,-125 106,-207 1,-32 -4,-65 -17,-93 -18,-36 -43,-61 -85,-61l-22 0c0,56 -12,119 -41,168 -48,82 -133,107 -224,107 -61,0 -126,-12 -175,-51 -38,38 -93,51 -145,51 -58,0 -121,-16 -164,-57 -31,-30 -48,-70 -48,-113 1,-42 18,-80 49,-109 50,-49 123,-66 191,-66l28 0c3,-50 13,-101 38,-145 48,-84 135,-110 226,-110zm-124 255l249 0c-3,-43 -12,-88 -34,-126 -19,-34 -50,-60 -91,-60 -40,0 -71,26 -91,60 -22,38 -30,83 -33,126zm250 70l-251 0c2,50 11,105 36,148 20,33 50,58 89,58 40,0 71,-25 90,-58 26,-44 34,-98 36,-148zm-384 69c-4,-23 -6,-46 -7,-69l-27 0c-27,0 -52,12 -70,32 -19,20 -29,44 -30,72 0,21 7,45 17,63 11,19 30,39 53,39 22,-1 41,-20 50,-38 17,-30 20,-66 14,-99z"/>
 </g>
</svg>
