<?xml version="1.0" encoding="UTF-8"?>
<!DOCTYPE svg PUBLIC "-//W3C//DTD SVG 1.1//EN" "http://www.w3.org/Graphics/SVG/1.1/DTD/svg11.dtd">
<!-- Creator: CorelDRAW X8 -->
<svg xmlns="http://www.w3.org/2000/svg" xml:space="preserve" width="3030px" height="1024px" version="1.1" style="shape-rendering:geometricPrecision; text-rendering:geometricPrecision; image-rendering:optimizeQuality; fill-rule:evenodd; clip-rule:evenodd"
viewBox="0 0 3030 1024"
 xmlns:xlink="http://www.w3.org/1999/xlink">
 <defs>
  <style type="text/css">
   <![CDATA[
    .fil0 {fill:#996633;fill-rule:nonzero}
   ]]>
  </style>
 </defs>
 <g id="Layer_x0020_1">
  <metadata id="CorelCorpID_0Corel-Layer"/>
  <path class="fil0" d="M1833 927c37,19 46,54 5,79 -51,30 -114,19 -163,-10 -108,-65 -172,-179 -197,-299 -10,-43 -31,-82 -62,-109 -27,-23 -60,-37 -97,-37l-20 0c-4,98 -20,206 -70,293 -76,133 -208,180 -357,180 -108,0 -215,-25 -295,-101 -59,73 -149,101 -241,101 -92,0 -189,-30 -256,-95 -52,-51 -81,-119 -80,-192 1,-72 30,-141 81,-192 79,-78 194,-105 303,-105l63 0c5,-87 22,-179 65,-256 76,-135 209,-184 360,-184 150,0 284,48 360,183 43,77 60,170 65,257l22 0c53,0 105,6 154,25 11,-65 31,-128 62,-187 94,-179 287,-278 488,-278 76,0 152,11 224,35 72,-24 148,-35 224,-35 202,0 395,98 490,278 46,88 68,192 69,291 1,166 -59,337 -209,427 -49,29 -113,40 -164,10 -39,-24 -34,-59 5,-79 125,-65 169,-229 168,-358 0,-88 -20,-181 -61,-260 -57,-108 -171,-198 -298,-198 -23,0 -46,2 -68,6 103,77 171,187 204,309 15,55 23,112 23,169 0,85 -17,174 -59,248 -67,123 -186,181 -324,181 -138,0 -256,-59 -323,-180 -41,-74 -58,-165 -58,-249 0,-57 7,-114 22,-169 33,-122 101,-232 203,-309 -22,-4 -45,-6 -68,-6 -125,0 -241,92 -297,198 -41,79 -61,171 -61,260 0,128 44,294 168,358zm-1375 -252c-7,-41 -11,-82 -12,-124l-62 0c-49,0 -93,13 -128,48 -36,36 -55,87 -56,137 -1,51 17,102 54,138 21,20 52,39 82,39 28,0 57,-20 76,-39 48,-52 58,-132 46,-199zm641 -124l-454 0c4,86 17,185 61,260 37,64 90,102 166,102 76,0 130,-38 167,-102 43,-76 57,-174 60,-260zm-453 -111l452 0c-5,-75 -20,-157 -57,-224 -37,-65 -91,-105 -169,-105 -78,0 -132,40 -169,106 -38,66 -52,148 -57,223zm1601 -253c-82,63 -134,157 -161,255 -13,50 -21,101 -21,153 0,73 14,152 50,217 26,47 72,101 132,101 59,0 107,-54 133,-102 36,-65 50,-143 50,-216 0,-51 -7,-103 -21,-153 -26,-98 -80,-192 -162,-255z"/>
 </g>
</svg>
