<?xml version="1.0" encoding="UTF-8"?>
<!DOCTYPE svg PUBLIC "-//W3C//DTD SVG 1.1//EN" "http://www.w3.org/Graphics/SVG/1.1/DTD/svg11.dtd">
<!-- Creator: CorelDRAW X8 -->
<svg xmlns="http://www.w3.org/2000/svg" xml:space="preserve" width="2258px" height="1486px" version="1.1" style="shape-rendering:geometricPrecision; text-rendering:geometricPrecision; image-rendering:optimizeQuality; fill-rule:evenodd; clip-rule:evenodd"
viewBox="0 0 2258 1486"
 xmlns:xlink="http://www.w3.org/1999/xlink">
 <defs>
  <style type="text/css">
   <![CDATA[
    .fil0 {fill:#EF7F1A;fill-rule:nonzero}
   ]]>
  </style>
 </defs>
 <g id="Layer_x0020_1">
  <metadata id="CorelCorpID_0Corel-Layer"/>
  <path class="fil0" d="M884 912c-173,0 -224,-199 -230,-361l459 0c-6,164 -54,361 -229,361zm-544 0c-30,0 -63,-19 -83,-39 -37,-36 -54,-85 -54,-136 0,-52 19,-98 56,-134 35,-35 80,-52 130,-52l62 0c2,43 6,83 14,126 3,15 4,32 4,48 0,54 -15,110 -51,147 -19,20 -49,40 -78,40zm1088 0c-29,0 -59,-20 -78,-40 -35,-38 -51,-94 -51,-147 0,-16 1,-32 4,-47 8,-43 11,-84 13,-127l62 0c50,0 94,17 130,52 38,36 57,81 57,134 0,51 -18,100 -55,136 -21,20 -52,39 -82,39zm-316 -473l-457 0c10,-154 65,-327 229,-327 164,0 218,175 228,327zm185 1025c143,-18 276,-49 409,-105 147,-61 282,-150 380,-274 111,-140 172,-321 172,-498 0,-139 -38,-281 -127,-390 -114,-140 -286,-197 -463,-197 -127,0 -253,32 -353,114 -25,20 -48,44 -68,69 -10,-18 -21,-34 -34,-50 -82,-100 -204,-133 -329,-133 -153,0 -289,49 -366,186 -43,76 -60,166 -65,253l-64 0c-111,0 -227,31 -307,110 -52,51 -82,114 -82,186 -1,73 28,142 81,193 68,65 166,96 260,96 93,0 184,-29 244,-102 81,76 190,102 299,102 109,0 218,-26 299,-102 60,73 151,102 244,102 94,0 192,-31 260,-96 53,-51 82,-120 81,-193 0,-72 -31,-135 -83,-186 -80,-79 -196,-110 -306,-110l-61 0c14,-91 52,-172 121,-236 61,-57 141,-91 225,-91 128,0 232,53 304,159 62,92 88,207 88,316 0,161 -55,327 -155,454 -70,89 -163,157 -266,208 -125,62 -224,85 -359,106 10,-16 15,-33 15,-52 0,-94 -131,-142 -208,-160 -64,-14 -130,-20 -196,-20 -72,0 -147,5 -217,23 -73,18 -194,68 -194,157 0,88 117,138 189,157 71,19 148,26 222,26 137,0 274,-4 410,-22zm-410 -84c-152,0 -222,-39 -222,-77 0,-39 79,-76 222,-76 142,0 216,40 216,76 0,37 -67,77 -216,77z"/>
 </g>
</svg>
