<?xml version="1.0" encoding="UTF-8"?>
<!DOCTYPE svg PUBLIC "-//W3C//DTD SVG 1.1//EN" "http://www.w3.org/Graphics/SVG/1.1/DTD/svg11.dtd">
<!-- Creator: CorelDRAW X8 -->
<svg xmlns="http://www.w3.org/2000/svg" xml:space="preserve" width="2758px" height="1024px" version="1.1" style="shape-rendering:geometricPrecision; text-rendering:geometricPrecision; image-rendering:optimizeQuality; fill-rule:evenodd; clip-rule:evenodd"
viewBox="0 0 2758 1024"
 xmlns:xlink="http://www.w3.org/1999/xlink">
 <defs>
  <style type="text/css">
   <![CDATA[
    .fil0 {fill:#A82682;fill-rule:nonzero}
   ]]>
  </style>
 </defs>
 <g id="Layer_x0020_1">
  <metadata id="CorelCorpID_0Corel-Layer"/>
  <path class="fil0" d="M883 0c153,0 288,48 365,183 44,77 61,170 66,257l52 0c97,0 206,22 286,77 66,46 105,110 113,189 7,65 -12,132 -53,183l398 0 0 -244c-104,-6 -203,-38 -282,-106 -70,-60 -118,-143 -118,-234 0,-167 146,-260 306,-261 149,-2 296,76 296,242l0 213c59,-39 115,-102 158,-174 48,-79 85,-177 85,-270 0,-41 68,-55 100,-55 33,0 103,13 103,55l0 890c0,42 -69,55 -101,55l-1233 0c-33,0 -100,-14 -100,-55 0,-42 71,-56 103,-56 52,1 87,-18 112,-62 20,-35 28,-75 24,-115 -3,-34 -16,-67 -38,-95 -39,-48 -99,-67 -160,-67l-50 1c-3,98 -19,206 -70,293 -77,133 -211,180 -362,180 -109,0 -218,-25 -299,-101 -59,73 -151,101 -243,101 -94,0 -192,-30 -260,-95 -27,-26 -47,-56 -61,-88 -14,-33 -20,-68 -20,-104 1,-72 30,-141 82,-192 80,-78 196,-105 307,-105l64 0c5,-87 22,-179 65,-256 77,-135 213,-184 365,-184zm1429 889l243 0 0 -471c-60,92 -140,160 -243,204l0 267zm-202 -356l0 -247c0,-51 -29,-132 -92,-131 -64,0 -104,96 -105,150 -1,55 21,104 56,146 36,41 86,72 141,82zm-1646 142c-7,-41 -11,-82 -13,-124l-62 0c-50,0 -94,13 -130,48 -36,36 -55,87 -57,137 -1,51 17,102 55,138 21,20 53,39 83,39 29,0 58,-20 77,-39 49,-52 59,-132 47,-199zm649 -124l-459 0c3,86 17,185 61,260 38,64 92,102 168,102 77,0 132,-38 169,-102 44,-76 58,-174 61,-260zm-458 -111l457 0c-5,-75 -20,-157 -58,-224 -37,-65 -92,-105 -171,-105 -79,0 -134,40 -171,106 -38,66 -52,148 -57,223z"/>
 </g>
</svg>
