<?xml version="1.0" encoding="UTF-8"?>
<!DOCTYPE svg PUBLIC "-//W3C//DTD SVG 1.1//EN" "http://www.w3.org/Graphics/SVG/1.1/DTD/svg11.dtd">
<!-- Creator: CorelDRAW X8 -->
<svg xmlns="http://www.w3.org/2000/svg" xml:space="preserve" width="3085px" height="1486px" version="1.1" style="shape-rendering:geometricPrecision; text-rendering:geometricPrecision; image-rendering:optimizeQuality; fill-rule:evenodd; clip-rule:evenodd"
viewBox="0 0 3085 1486"
 xmlns:xlink="http://www.w3.org/1999/xlink">
 <defs>
  <style type="text/css">
   <![CDATA[
    .fil0 {fill:#996633;fill-rule:nonzero}
   ]]>
  </style>
 </defs>
 <g id="Layer_x0020_1">
  <metadata id="CorelCorpID_0Corel-Layer"/>
  <path class="fil0" d="M884 0c152,0 287,49 364,185 44,77 61,167 66,255l22 0c54,0 106,9 157,28 10,-65 31,-129 62,-188 95,-180 291,-280 495,-280 76,0 153,11 226,36 73,-25 150,-36 227,-36 157,0 309,57 418,170 118,121 171,291 163,457 -9,193 -90,343 -220,438 -107,78 -246,126 -403,126l-637 0c-53,0 -114,4 -112,69 2,66 58,68 112,68l1120 0c47,0 102,27 102,79 0,51 -55,79 -102,79l-1120 0c-143,0 -320,-34 -316,-209 3,-169 177,-198 316,-198l637 0c106,0 198,-37 274,-111 94,-91 141,-216 147,-344 6,-126 -29,-261 -107,-363 -64,-84 -162,-150 -272,-149 -23,0 -46,2 -68,6 152,113 229,296 229,481 0,85 -17,168 -59,243 -68,123 -189,181 -329,182 -139,0 -259,-59 -327,-181 -42,-75 -59,-159 -59,-244 0,-184 78,-368 229,-481 -23,-4 -46,-6 -70,-6 -126,-1 -243,92 -300,199 -42,80 -62,172 -62,261 0,130 45,290 170,354 21,11 32,26 33,41 0,13 -9,27 -27,38 -52,31 -117,20 -166,-10 -109,-65 -174,-179 -200,-300 -9,-43 -31,-76 -62,-103 -27,-23 -61,-41 -99,-41l-20 0c-4,100 -20,205 -71,292 -77,134 -211,181 -361,181 -110,0 -219,-25 -300,-101 -59,73 -151,101 -243,101 -94,0 -192,-30 -260,-96 -53,-51 -82,-119 -81,-192 1,-73 30,-136 82,-187 80,-79 196,-109 307,-109l64 0c5,-87 22,-177 65,-254 77,-137 213,-186 366,-186zm1393 188c-123,94 -185,261 -185,411 0,73 15,146 50,211 27,48 74,102 134,102 61,0 109,-55 136,-103 36,-65 50,-136 50,-210 0,-152 -62,-316 -185,-411zm-1813 485c-7,-41 -11,-79 -12,-121l-63 0c-50,0 -94,16 -130,51 -36,36 -55,81 -57,131 -1,51 17,103 55,139 21,21 53,40 83,40 29,-1 58,-20 77,-40 49,-52 59,-133 47,-200zm649 -121l-459 0c3,86 17,182 61,258 38,64 92,102 169,102 77,0 131,-38 169,-103 43,-76 57,-171 60,-257zm-458 -112l457 0c-5,-76 -20,-155 -57,-222 -38,-66 -93,-106 -171,-106 -79,0 -135,40 -172,106 -38,67 -52,146 -57,222z"/>
 </g>
</svg>
