<?xml version="1.0" encoding="UTF-8"?>
<!DOCTYPE svg PUBLIC "-//W3C//DTD SVG 1.1//EN" "http://www.w3.org/Graphics/SVG/1.1/DTD/svg11.dtd">
<!-- Creator: CorelDRAW X8 -->
<svg xmlns="http://www.w3.org/2000/svg" xml:space="preserve" width="1381px" height="600px" version="1.1" style="shape-rendering:geometricPrecision; text-rendering:geometricPrecision; image-rendering:optimizeQuality; fill-rule:evenodd; clip-rule:evenodd"
viewBox="0 0 1381 600"
 xmlns:xlink="http://www.w3.org/1999/xlink">
 <defs>
  <style type="text/css">
   <![CDATA[
    .fil0 {fill:#996633;fill-rule:nonzero}
   ]]>
  </style>
 </defs>
 <g id="Layer_x0020_1">
  <metadata id="CorelCorpID_0Corel-Layer"/>
  <path class="fil0" d="M1051 0c69,0 149,11 209,46 61,35 102,86 101,158 -1,44 -25,79 -61,103 25,14 44,32 58,52 15,22 23,47 23,73 0,38 -11,72 -36,101 -42,49 -105,68 -168,66 -21,0 -39,-3 -59,-8 -18,-4 -47,-17 -47,-34 0,-6 3,-12 10,-19 15,-12 33,-16 51,-16 3,0 6,0 9,0 14,1 24,9 36,9 20,0 43,-18 53,-35 11,-18 15,-41 13,-63 -2,-19 -8,-37 -19,-52 -14,-19 -36,-35 -59,-36 -19,-1 -30,2 -50,-3 -14,-4 -34,-14 -36,-29 -1,-18 22,-28 36,-32 18,-5 26,-2 43,-5 36,-6 60,-38 61,-73 0,-42 -18,-77 -53,-101 -33,-23 -76,-33 -115,-33 -61,-1 -122,15 -168,55 -40,35 -62,81 -71,132l26 0c68,0 143,15 194,63 31,29 49,69 49,111 1,43 -17,83 -48,113 -44,41 -108,57 -167,57 -53,0 -108,-13 -147,-51 -50,39 -116,51 -178,51 -63,0 -128,-12 -179,-51 -38,38 -94,51 -147,51 -59,0 -122,-16 -166,-57 -32,-30 -50,-70 -49,-113 1,-42 19,-82 50,-111 50,-48 125,-63 194,-63l28 0c3,-54 15,-110 44,-155 50,-78 136,-101 225,-101 91,0 172,28 223,105 27,-28 56,-50 86,-65 59,-31 124,-40 201,-40zm-637 256l253 0c-2,-35 -10,-72 -23,-105 -19,-45 -52,-83 -106,-82 -51,1 -82,39 -100,82 -14,32 -21,70 -24,105zm254 69l-255 0c3,50 11,106 37,149 20,32 51,57 91,57 40,0 71,-25 91,-58 26,-43 34,-98 36,-148zm-389 72c-5,-24 -7,-48 -8,-72l-27 0c-30,0 -57,12 -76,35 -16,20 -25,46 -26,71 0,22 4,44 15,63 11,20 31,37 55,37 24,0 45,-17 56,-36 17,-29 17,-66 11,-98zm531 -72c-1,24 -3,49 -7,73 -7,32 -3,68 15,96 10,18 30,37 53,37 24,0 43,-23 53,-42 9,-17 15,-38 15,-57 0,-26 -9,-52 -26,-72 -19,-23 -46,-35 -75,-35l-28 0z"/>
 </g>
</svg>
