<?xml version="1.0" encoding="UTF-8"?>
<!DOCTYPE svg PUBLIC "-//W3C//DTD SVG 1.1//EN" "http://www.w3.org/Graphics/SVG/1.1/DTD/svg11.dtd">
<!-- Creator: CorelDRAW X8 -->
<svg xmlns="http://www.w3.org/2000/svg" xml:space="preserve" width="1520px" height="1012px" version="1.1" style="shape-rendering:geometricPrecision; text-rendering:geometricPrecision; image-rendering:optimizeQuality; fill-rule:evenodd; clip-rule:evenodd"
viewBox="0 0 1520 1012"
 xmlns:xlink="http://www.w3.org/1999/xlink">
 <defs>
  <style type="text/css">
   <![CDATA[
    .fil0 {fill:#669933;fill-rule:nonzero}
   ]]>
  </style>
 </defs>
 <g id="Layer_x0020_1">
  <metadata id="CorelCorpID_0Corel-Layer"/>
  <path class="fil0" d="M799 921c138,-75 196,-257 190,-407 -9,-242 -179,-421 -425,-422 -219,-2 -373,165 -404,382 52,-60 122,-92 201,-95 98,-3 191,34 251,98 53,56 81,133 78,221 -2,89 -36,179 -105,236 -59,49 -140,77 -224,78 -265,3 -365,-232 -361,-463 6,-337 240,-550 564,-549 314,1 575,179 588,514 5,142 -39,291 -139,395l344 0 0 -862c0,-26 37,-46 82,-46 45,0 81,20 81,46l0 907c0,37 -61,46 -89,46l-577 0c-44,0 -81,-20 -81,-46 0,-15 13,-26 26,-33zm-613 -223c0,148 85,223 175,223 84,0 174,-74 174,-223 0,-148 -87,-222 -174,-222 -87,0 -175,74 -175,222z"/>
 </g>
</svg>
