<?xml version="1.0" encoding="UTF-8"?>
<!DOCTYPE svg PUBLIC "-//W3C//DTD SVG 1.1//EN" "http://www.w3.org/Graphics/SVG/1.1/DTD/svg11.dtd">
<!-- Creator: CorelDRAW X8 -->
<svg xmlns="http://www.w3.org/2000/svg" xml:space="preserve" width="937px" height="593px" version="1.1" style="shape-rendering:geometricPrecision; text-rendering:geometricPrecision; image-rendering:optimizeQuality; fill-rule:evenodd; clip-rule:evenodd"
viewBox="0 0 937 593"
 xmlns:xlink="http://www.w3.org/1999/xlink">
 <defs>
  <style type="text/css">
   <![CDATA[
    .fil0 {fill:#669933;fill-rule:nonzero}
   ]]>
  </style>
 </defs>
 <g id="Layer_x0020_1">
  <metadata id="CorelCorpID_0Corel-Layer"/>
  <path class="fil0" d="M480 536c38,-20 66,-53 84,-91 22,-45 31,-97 29,-144 -2,-70 -30,-132 -75,-175 -43,-41 -101,-66 -168,-67 -57,0 -107,22 -147,58 -38,34 -64,81 -77,134 30,-21 65,-30 101,-31 59,-2 122,16 165,59 34,35 48,81 47,129 -1,27 -7,54 -18,79 -22,47 -60,76 -109,93 -25,8 -53,13 -83,13 -72,1 -137,-23 -180,-84 -37,-53 -50,-123 -49,-188 2,-97 37,-176 96,-231 62,-58 150,-90 255,-90 104,0 198,29 264,85 59,51 97,123 101,216 2,43 -5,87 -19,127 -14,37 -34,71 -61,99l178 0 0 -497c0,-24 45,-29 62,-29 17,0 61,5 61,29l0 527c0,24 -48,29 -66,29l-346 0c-19,0 -35,-3 -46,-9 -22,-12 -19,-30 1,-41zm-343 -128c-1,40 11,71 28,92 18,23 41,34 64,34 20,0 41,-10 59,-30 24,-26 33,-62 33,-97 0,-42 -13,-74 -32,-95 -18,-20 -39,-30 -60,-30 -23,0 -45,12 -64,35 -17,21 -28,51 -28,91z"/>
 </g>
</svg>
