<?xml version="1.0" encoding="UTF-8"?>
<!DOCTYPE svg PUBLIC "-//W3C//DTD SVG 1.1//EN" "http://www.w3.org/Graphics/SVG/1.1/DTD/svg11.dtd">
<!-- Creator: CorelDRAW X8 -->
<svg xmlns="http://www.w3.org/2000/svg" xml:space="preserve" width="957px" height="868px" version="1.1" style="shape-rendering:geometricPrecision; text-rendering:geometricPrecision; image-rendering:optimizeQuality; fill-rule:evenodd; clip-rule:evenodd"
viewBox="0 0 957 868"
 xmlns:xlink="http://www.w3.org/1999/xlink">
 <defs>
  <style type="text/css">
   <![CDATA[
    .fil0 {fill:#996633;fill-rule:nonzero}
   ]]>
  </style>
 </defs>
 <g id="Layer_x0020_1">
  <metadata id="CorelCorpID_0Corel-Layer"/>
  <path class="fil0" d="M484 527c36,-19 63,-51 81,-87 21,-43 30,-93 28,-140 -2,-65 -26,-122 -73,-167 -44,-42 -100,-63 -160,-63 -52,-1 -100,19 -139,54 -33,31 -57,67 -70,109 27,-12 56,-18 86,-19 62,-2 129,16 173,61 35,35 50,81 49,130 -2,53 -22,104 -64,138 -42,35 -101,49 -155,50 -76,1 -145,-23 -190,-86 -38,-54 -51,-124 -50,-188 2,-88 32,-167 98,-228 70,-66 168,-91 263,-91 96,0 198,25 272,87 67,55 100,127 103,212 2,63 -12,127 -46,180 -8,13 -17,26 -28,38l152 0 0 -482c0,-27 51,-35 72,-35 20,0 71,8 71,35l0 546c0,65 -18,128 -64,176 -29,30 -69,52 -109,67 -52,20 -107,30 -162,36 -44,6 -89,8 -134,8 -45,0 -93,-4 -137,-16 -42,-10 -116,-39 -115,-92 0,-53 75,-82 119,-92 44,-11 92,-15 137,-15 42,0 85,3 126,12 43,10 121,37 127,89 22,-14 38,-33 49,-55 16,-34 20,-76 21,-113l-280 0c-20,0 -71,-7 -71,-34 0,-9 7,-18 20,-25zm-328 -122c0,31 8,64 28,88 13,16 33,31 54,31 20,-1 38,-13 51,-27 24,-25 32,-59 32,-93 0,-33 -8,-67 -31,-92 -13,-13 -31,-26 -51,-26 -22,0 -41,15 -55,31 -20,24 -27,57 -28,88zm336 313c-29,0 -62,3 -90,13 -12,4 -32,14 -32,29 -1,15 20,26 32,30 27,10 61,13 90,13 26,0 51,-2 76,-9 14,-4 44,-15 44,-34 -1,-18 -29,-29 -44,-33 -24,-7 -50,-9 -76,-9z"/>
 </g>
</svg>
