<?xml version="1.0" encoding="UTF-8"?>
<!DOCTYPE svg PUBLIC "-//W3C//DTD SVG 1.1//EN" "http://www.w3.org/Graphics/SVG/1.1/DTD/svg11.dtd">
<!-- Creator: CorelDRAW X8 -->
<svg xmlns="http://www.w3.org/2000/svg" xml:space="preserve" width="1893px" height="1486px" version="1.1" style="shape-rendering:geometricPrecision; text-rendering:geometricPrecision; image-rendering:optimizeQuality; fill-rule:evenodd; clip-rule:evenodd"
viewBox="0 0 1893 1486"
 xmlns:xlink="http://www.w3.org/1999/xlink">
 <defs>
  <style type="text/css">
   <![CDATA[
    .fil0 {fill:#996633;fill-rule:nonzero}
   ]]>
  </style>
 </defs>
 <g id="Layer_x0020_1">
  <metadata id="CorelCorpID_0Corel-Layer"/>
  <path class="fil0" d="M1138 904c135,-73 189,-251 184,-394 -9,-228 -168,-396 -406,-398 -193,-1 -331,133 -374,310 50,-36 109,-54 170,-56 99,-3 202,31 270,102 59,62 83,141 81,224 -3,90 -37,180 -109,239 -66,54 -155,80 -240,81 -123,1 -228,-43 -298,-145 -56,-82 -82,-190 -83,-300 -4,-346 234,-569 584,-567 323,1 595,172 608,510 5,135 -36,275 -127,378l292 0 0 -831c0,-42 69,-56 101,-56 33,0 102,14 102,56l0 931c0,383 -539,498 -841,498 -255,0 -518,-60 -725,-212 -221,-163 -328,-392 -327,-662 1,-222 84,-456 271,-590 21,-15 51,-22 80,-22 22,0 44,4 62,12 22,9 39,26 39,44 0,12 -6,23 -21,34 -164,118 -230,334 -229,527 2,212 76,403 236,547 167,151 389,210 612,210 226,0 635,-88 639,-374l-482 0c-32,0 -101,-14 -101,-56 0,-19 16,-32 32,-40zm-579 -212c-1,91 45,208 155,208 106,0 154,-118 154,-208 0,-90 -45,-208 -154,-208 -109,0 -155,117 -155,208z"/>
 </g>
</svg>
