<?xml version="1.0" encoding="UTF-8"?>
<!DOCTYPE svg PUBLIC "-//W3C//DTD SVG 1.1//EN" "http://www.w3.org/Graphics/SVG/1.1/DTD/svg11.dtd">
<!-- Creator: CorelDRAW X8 -->
<svg xmlns="http://www.w3.org/2000/svg" xml:space="preserve" width="1163px" height="868px" version="1.1" style="shape-rendering:geometricPrecision; text-rendering:geometricPrecision; image-rendering:optimizeQuality; fill-rule:evenodd; clip-rule:evenodd"
viewBox="0 0 1163 868"
 xmlns:xlink="http://www.w3.org/1999/xlink">
 <defs>
  <style type="text/css">
   <![CDATA[
    .fil0 {fill:#996633;fill-rule:nonzero}
   ]]>
  </style>
 </defs>
 <g id="Layer_x0020_1">
  <metadata id="CorelCorpID_0Corel-Layer"/>
  <path class="fil0" d="M690 527c79,-41 113,-144 109,-227 -5,-129 -97,-229 -233,-230 -101,-1 -180,70 -209,163 27,-12 56,-18 86,-19 62,-2 129,16 173,61 35,35 50,81 49,130 -2,53 -22,104 -64,138 -42,35 -101,49 -155,50 -76,1 -145,-23 -190,-86 -38,-54 -51,-124 -50,-188 4,-207 159,-320 361,-319 194,1 367,95 375,299 3,78 -21,159 -74,218l152 0 0 -482c0,-27 51,-34 72,-34 20,0 71,7 71,34l0 546c0,93 -57,158 -135,202 -107,60 -258,85 -380,85 -164,0 -340,-39 -469,-144 -117,-95 -174,-223 -179,-371 -4,-130 49,-262 159,-339 14,-10 36,-14 58,-14 17,0 34,3 47,8 14,6 25,16 25,27 0,7 -4,14 -14,20 -96,67 -135,185 -134,298 1,112 42,239 124,319 101,97 245,127 382,127 79,0 170,-15 243,-48 69,-31 127,-85 130,-165l-279 0c-20,0 -71,-7 -71,-34 0,-11 10,-20 20,-25zm-328 -122c0,31 8,64 28,88 13,16 33,31 54,31 20,-1 38,-13 51,-27 24,-25 32,-59 32,-93 0,-33 -8,-67 -31,-92 -13,-13 -31,-26 -51,-26 -22,0 -41,15 -55,31 -20,24 -27,57 -28,88z"/>
 </g>
</svg>
