<?xml version="1.0" encoding="UTF-8"?>
<!DOCTYPE svg PUBLIC "-//W3C//DTD SVG 1.1//EN" "http://www.w3.org/Graphics/SVG/1.1/DTD/svg11.dtd">
<!-- Creator: CorelDRAW X8 -->
<svg xmlns="http://www.w3.org/2000/svg" xml:space="preserve" width="1894px" height="1486px" version="1.1" style="shape-rendering:geometricPrecision; text-rendering:geometricPrecision; image-rendering:optimizeQuality; fill-rule:evenodd; clip-rule:evenodd"
viewBox="0 0 1894 1487"
 xmlns:xlink="http://www.w3.org/1999/xlink">
 <defs>
  <style type="text/css">
   <![CDATA[
    .fil0 {fill:#2B2A29;fill-rule:nonzero}
   ]]>
  </style>
 </defs>
 <g id="Layer_x0020_1">
  <metadata id="CorelCorpID_0Corel-Layer"/>
  <path class="fil0" d="M974 943c76,-61 108,-154 108,-250 0,-78 -24,-151 -80,-209 -64,-68 -162,-101 -258,-101 -77,0 -149,23 -207,76 23,-199 182,-349 393,-349 255,0 400,162 400,408 0,148 -69,313 -208,386 -20,11 -30,25 -30,39 0,41 68,57 100,57l498 0c-6,286 -414,375 -640,375 -223,0 -445,-59 -612,-211 -159,-143 -236,-338 -236,-551 0,-192 66,-406 229,-523 15,-11 21,-23 21,-34 0,-18 -16,-34 -39,-44 -18,-8 -40,-12 -62,-12 -30,0 -60,7 -80,22 -188,134 -271,370 -271,594 0,268 107,496 327,659 207,152 470,212 725,212 303,0 842,-115 842,-499l0 -932c0,-41 -69,-55 -101,-55 -33,0 -102,14 -102,55l0 833 -303 0c93,-99 140,-233 140,-371 0,-338 -287,-518 -598,-518 -324,0 -597,198 -597,540 0,145 44,310 163,405 68,55 146,79 234,79 86,0 177,-25 244,-81zm-240 -30c-110,0 -155,-116 -155,-207 0,-90 46,-207 155,-207 108,0 154,115 154,204 0,92 -45,210 -154,210z"/>
 </g>
</svg>
