<?xml version="1.0" encoding="UTF-8"?>
<!DOCTYPE svg PUBLIC "-//W3C//DTD SVG 1.1//EN" "http://www.w3.org/Graphics/SVG/1.1/DTD/svg11.dtd">
<!-- Creator: CorelDRAW X8 -->
<svg xmlns="http://www.w3.org/2000/svg" xml:space="preserve" width="935px" height="600px" version="1.1" style="shape-rendering:geometricPrecision; text-rendering:geometricPrecision; image-rendering:optimizeQuality; fill-rule:evenodd; clip-rule:evenodd"
viewBox="0 0 935 600"
 xmlns:xlink="http://www.w3.org/1999/xlink">
 <defs>
  <style type="text/css">
   <![CDATA[
    .fil0 {fill:#A82682;fill-rule:nonzero}
   ]]>
  </style>
 </defs>
 <g id="Layer_x0020_1">
  <metadata id="CorelCorpID_0Corel-Layer"/>
  <path class="fil0" d="M635 538c100,-38 157,-140 158,-243 0,-57 -14,-117 -48,-164 -20,-28 -62,-62 -100,-62 -102,-1 -109,154 -108,226 3,179 -32,304 -243,305 -96,0 -178,-32 -235,-110 -40,-55 -60,-129 -59,-195 1,-116 69,-240 181,-284 34,-14 70,-16 102,-1 30,15 25,39 -3,51 -89,38 -137,143 -138,234 0,57 15,128 49,175 21,29 62,61 102,61 103,-1 103,-164 102,-236 -3,-178 49,-298 252,-295 93,1 173,36 228,111 39,54 60,118 60,184 0,130 -94,271 -227,301 -26,6 -52,6 -76,-4 -34,-15 -30,-41 3,-54z"/>
 </g>
</svg>
