<?xml version="1.0" encoding="UTF-8"?>
<!DOCTYPE svg PUBLIC "-//W3C//DTD SVG 1.1//EN" "http://www.w3.org/Graphics/SVG/1.1/DTD/svg11.dtd">
<!-- Creator: CorelDRAW X8 -->
<svg xmlns="http://www.w3.org/2000/svg" xml:space="preserve" width="935px" height="601px" version="1.1" style="shape-rendering:geometricPrecision; text-rendering:geometricPrecision; image-rendering:optimizeQuality; fill-rule:evenodd; clip-rule:evenodd"
viewBox="0 0 935 601"
 xmlns:xlink="http://www.w3.org/1999/xlink">
 <defs>
  <style type="text/css">
   <![CDATA[
    .fil0 {fill:#5B5A50;fill-rule:nonzero}
   ]]>
  </style>
 </defs>
 <g id="Layer_x0020_1">
  <metadata id="CorelCorpID_0Corel-Layer"/>
  <path class="fil0" d="M635 539c100,-38 157,-141 158,-244 0,-57 -14,-117 -48,-163 -20,-28 -62,-62 -100,-63 -102,-1 -109,154 -108,226 3,180 -32,304 -243,305 -96,1 -178,-32 -235,-110 -40,-55 -60,-128 -59,-195 1,-115 69,-240 181,-284 34,-13 69,-16 102,0 30,14 25,39 -3,51 -89,38 -137,142 -138,233 0,57 15,128 49,175 21,30 62,62 102,61 103,-1 103,-164 102,-236 -3,-177 49,-298 252,-294 93,1 173,35 228,111 39,54 60,117 60,183 0,131 -94,272 -227,302 -26,6 -52,5 -76,-5 -34,-14 -30,-40 3,-53z"/>
 </g>
</svg>
