<?xml version="1.0" encoding="UTF-8"?>
<!DOCTYPE svg PUBLIC "-//W3C//DTD SVG 1.1//EN" "http://www.w3.org/Graphics/SVG/1.1/DTD/svg11.dtd">
<!-- Creator: CorelDRAW X8 -->
<svg xmlns="http://www.w3.org/2000/svg" xml:space="preserve" width="2301px" height="1024px" version="1.1" style="shape-rendering:geometricPrecision; text-rendering:geometricPrecision; image-rendering:optimizeQuality; fill-rule:evenodd; clip-rule:evenodd"
viewBox="0 0 2301 1024"
 xmlns:xlink="http://www.w3.org/1999/xlink">
 <defs>
  <style type="text/css">
   <![CDATA[
    .fil0 {fill:#5B5A50;fill-rule:nonzero}
   ]]>
  </style>
 </defs>
 <g id="Layer_x0020_1">
  <metadata id="CorelCorpID_0Corel-Layer"/>
  <path class="fil0" d="M1221 370c0,-112 -24,-254 -167,-259 -91,-4 -157,59 -186,139 -32,90 -32,189 -32,283 0,270 -57,490 -383,490 -296,0 -449,-219 -453,-490 -3,-219 101,-434 317,-519 48,-18 110,-23 152,12 37,30 8,63 -29,76 -168,61 -240,269 -238,431 2,140 72,379 251,379 178,0 181,-256 181,-379 0,-101 1,-209 35,-304 57,-156 208,-232 371,-229 106,2 219,31 295,109 96,-77 228,-109 350,-109 194,1 376,60 498,213 85,107 120,235 118,368 -1,95 -23,194 -74,276 -69,113 -188,168 -321,167 -125,-1 -242,-49 -312,-153 -46,-67 -67,-149 -67,-229 0,-97 32,-197 92,-275 76,-99 189,-156 311,-176 -68,-53 -158,-82 -244,-81 -175,4 -263,120 -263,284l0 574c0,42 -69,55 -101,55 -32,0 -101,-13 -101,-55l0 -598zm802 -77c-88,4 -165,48 -218,117 -51,66 -75,150 -75,232 0,66 15,135 53,190 28,42 72,80 126,81 57,0 99,-48 127,-92 43,-71 62,-158 63,-240 1,-101 -20,-202 -76,-288z"/>
 </g>
</svg>
