<?xml version="1.0" encoding="UTF-8"?>
<!DOCTYPE svg PUBLIC "-//W3C//DTD SVG 1.1//EN" "http://www.w3.org/Graphics/SVG/1.1/DTD/svg11.dtd">
<!-- Creator: CorelDRAW X8 -->
<svg xmlns="http://www.w3.org/2000/svg" xml:space="preserve" width="2724px" height="1486px" version="1.1" style="shape-rendering:geometricPrecision; text-rendering:geometricPrecision; image-rendering:optimizeQuality; fill-rule:evenodd; clip-rule:evenodd"
viewBox="0 0 2724 1487"
 xmlns:xlink="http://www.w3.org/1999/xlink">
 <defs>
  <style type="text/css">
   <![CDATA[
    .fil0 {fill:#2B2A29;fill-rule:nonzero}
   ]]>
  </style>
 </defs>
 <g id="Layer_x0020_1">
  <metadata id="CorelCorpID_0Corel-Layer"/>
  <path class="fil0" d="M1896 1487c121,0 242,-19 358,-56 81,-25 152,-60 218,-114 129,-106 199,-254 231,-421 15,-79 21,-161 21,-242 0,-93 -7,-190 -29,-282 -38,-153 -117,-290 -277,-359 -20,-9 -44,-13 -68,-13 -28,0 -57,7 -78,22 -15,11 -21,22 -21,33 0,18 17,35 40,45 154,63 215,261 215,414 0,67 -9,136 -35,198 -42,107 -141,201 -264,201 -152,0 -212,-121 -212,-254l0 -603c0,-42 -70,-56 -102,-56 -32,0 -101,14 -101,56l0 603c0,102 -39,172 -137,214 -44,19 -94,29 -142,34 46,-45 70,-105 70,-170 0,-92 -61,-166 -142,-209 82,-44 130,-115 130,-207 0,-106 -50,-188 -142,-244 -92,-56 -210,-76 -317,-76 -139,0 -309,40 -390,165 -64,101 -64,225 -64,341 0,139 4,406 -192,406 -75,0 -139,-58 -180,-115 -56,-80 -84,-193 -84,-290 0,-158 78,-343 230,-409 23,-10 38,-27 38,-44 0,-12 -6,-24 -22,-34 -21,-14 -49,-21 -77,-21 -25,0 -49,5 -70,14 -193,88 -301,286 -301,494 0,113 32,237 98,330 89,127 215,186 368,186 342,0 394,-229 394,-517 0,-98 2,-199 37,-274 34,-71 97,-120 215,-121 140,-1 257,56 257,212 0,74 -41,116 -96,136 -32,12 -68,16 -104,16l-86 -2c-33,-1 -88,14 -88,56 0,41 56,55 89,55 28,0 56,-2 84,-2 34,0 68,3 103,14 70,23 112,81 112,152 0,87 -65,145 -150,145 -68,0 -105,-34 -166,-34 -28,0 -57,7 -78,21 -16,11 -23,22 -23,34 0,17 15,33 38,44 114,50 287,64 411,64 120,0 252,-15 365,-62 35,-15 69,-34 99,-57 83,89 209,120 328,120 109,0 214,-29 299,-87 -22,134 -93,275 -206,355 -11,-86 -134,-131 -207,-148 -64,-15 -131,-20 -197,-20 -71,0 -146,6 -217,23 -72,19 -194,68 -194,157 0,88 118,138 190,157 72,19 144,26 221,26zm0 -106c-52,0 -116,-5 -165,-23 -22,-9 -56,-26 -56,-53 0,-27 33,-44 56,-53 49,-19 113,-24 165,-24 47,0 96,4 141,17 26,8 75,27 76,59 0,33 -51,53 -77,60 -45,13 -93,17 -140,17z"/>
 </g>
</svg>
