<?xml version="1.0" encoding="UTF-8"?>
<!DOCTYPE svg PUBLIC "-//W3C//DTD SVG 1.1//EN" "http://www.w3.org/Graphics/SVG/1.1/DTD/svg11.dtd">
<!-- Creator: CorelDRAW X8 -->
<svg xmlns="http://www.w3.org/2000/svg" xml:space="preserve" width="1928px" height="1486px" version="1.1" style="shape-rendering:geometricPrecision; text-rendering:geometricPrecision; image-rendering:optimizeQuality; fill-rule:evenodd; clip-rule:evenodd"
viewBox="0 0 1928 1487"
 xmlns:xlink="http://www.w3.org/1999/xlink">
 <defs>
  <style type="text/css">
   <![CDATA[
    .fil0 {fill:#2B2A29;fill-rule:nonzero}
   ]]>
  </style>
 </defs>
 <g id="Layer_x0020_1">
  <metadata id="CorelCorpID_0Corel-Layer"/>
  <path class="fil0" d="M1683 1225c169,-165 245,-384 245,-617 0,-161 -46,-313 -134,-425 -92,-117 -217,-183 -368,-183 -333,0 -399,229 -399,512 0,135 3,401 -187,401 -78,0 -144,-56 -186,-115 -56,-80 -84,-193 -84,-290 0,-158 79,-342 232,-409 23,-10 38,-27 38,-44 0,-12 -7,-24 -23,-34 -21,-14 -49,-21 -77,-21 -25,0 -50,5 -70,14 -193,87 -302,286 -302,494 0,113 32,237 98,330 88,125 219,186 374,186 342,0 389,-225 389,-512 0,-138 5,-401 197,-401 112,0 186,73 232,170 50,103 68,233 68,327 0,182 -55,376 -173,516 -135,161 -351,248 -561,249 -218,0 -411,-73 -566,-231 -156,-159 -219,-350 -225,-570 0,-180 57,-376 217,-479 17,-11 24,-24 24,-35 0,-19 -16,-36 -40,-46 -19,-8 -39,-12 -60,-12 -32,0 -64,10 -91,28 -180,124 -251,335 -251,544 0,261 103,503 302,675 191,164 440,240 690,240 251,0 509,-86 691,-262z"/>
 </g>
</svg>
