<?xml version="1.0" encoding="UTF-8"?>
<!DOCTYPE svg PUBLIC "-//W3C//DTD SVG 1.1//EN" "http://www.w3.org/Graphics/SVG/1.1/DTD/svg11.dtd">
<!-- Creator: CorelDRAW X8 -->
<svg xmlns="http://www.w3.org/2000/svg" xml:space="preserve" width="1772px" height="1024px" version="1.1" style="shape-rendering:geometricPrecision; text-rendering:geometricPrecision; image-rendering:optimizeQuality; fill-rule:evenodd; clip-rule:evenodd"
viewBox="0 0 1772 1024"
 xmlns:xlink="http://www.w3.org/1999/xlink">
 <defs>
  <style type="text/css">
   <![CDATA[
    .fil0 {fill:#5B5A50;fill-rule:nonzero}
   ]]>
  </style>
 </defs>
 <g id="Layer_x0020_1">
  <metadata id="CorelCorpID_0Corel-Layer"/>
  <path class="fil0" d="M896 230c-36,89 -38,178 -37,273 5,286 -43,525 -394,521 -151,-1 -280,-64 -367,-186 -67,-94 -99,-221 -98,-335 2,-204 107,-401 301,-489 43,-19 107,-20 147,7 38,26 23,61 -16,78 -151,66 -229,250 -230,404 -1,98 27,214 84,295 41,57 105,115 180,115 196,2 194,-276 192,-410 -2,-113 3,-258 73,-353 90,-122 294,-150 437,-150 158,0 350,24 472,131 89,79 132,182 132,299l0 515c0,41 -69,55 -101,55l-716 0c-33,0 -108,-11 -108,-55 0,-20 21,-37 45,-46 143,-52 269,-190 330,-341 27,-64 41,-131 40,-194 -1,-120 -54,-239 -192,-243 -76,-2 -145,40 -174,109zm477 -96c65,59 88,145 90,230 1,66 -12,131 -36,193 -50,132 -140,248 -255,332l397 0 0 -459c0,-92 -30,-178 -101,-240 -28,-25 -60,-43 -95,-56z"/>
 </g>
</svg>
