<?xml version="1.0" encoding="UTF-8"?>
<!DOCTYPE svg PUBLIC "-//W3C//DTD SVG 1.1//EN" "http://www.w3.org/Graphics/SVG/1.1/DTD/svg11.dtd">
<!-- Creator: CorelDRAW X8 -->
<svg xmlns="http://www.w3.org/2000/svg" xml:space="preserve" width="1550px" height="1486px" version="1.1" style="shape-rendering:geometricPrecision; text-rendering:geometricPrecision; image-rendering:optimizeQuality; fill-rule:evenodd; clip-rule:evenodd"
viewBox="0 0 1550 1486"
 xmlns:xlink="http://www.w3.org/1999/xlink">
 <defs>
  <style type="text/css">
   <![CDATA[
    .fil0 {fill:#A82682;fill-rule:nonzero}
   ]]>
  </style>
 </defs>
 <g id="Layer_x0020_1">
  <metadata id="CorelCorpID_0Corel-Layer"/>
  <path class="fil0" d="M1348 562c0,-118 -30,-247 -103,-342 -43,-57 -113,-109 -188,-109 -191,0 -196,280 -194,413 5,280 -56,500 -389,500 -152,0 -286,-62 -373,-186 -73,-104 -106,-239 -98,-364 13,-194 107,-366 289,-454 48,-23 113,-31 159,1 39,27 23,62 -16,79 -148,65 -220,227 -230,378 -7,109 22,227 84,318 42,61 105,117 185,116 186,-2 189,-257 187,-388 -4,-282 52,-527 396,-524 148,2 284,59 374,176 83,108 119,252 119,386 0,158 -40,320 -149,441 -122,135 -299,187 -477,187l-608 0c-53,0 -113,5 -111,71 1,66 57,67 111,67l1085 0c46,0 101,28 101,79 0,52 -55,79 -101,79l-1085 0c-143,0 -320,-33 -316,-209 4,-169 177,-198 316,-198l608 0c123,0 232,-46 310,-144 83,-103 113,-244 114,-373z"/>
 </g>
</svg>
