<?xml version="1.0" encoding="UTF-8"?>
<!DOCTYPE svg PUBLIC "-//W3C//DTD SVG 1.1//EN" "http://www.w3.org/Graphics/SVG/1.1/DTD/svg11.dtd">
<!-- Creator: CorelDRAW X8 -->
<svg xmlns="http://www.w3.org/2000/svg" xml:space="preserve" width="1602px" height="1486px" version="1.1" style="shape-rendering:geometricPrecision; text-rendering:geometricPrecision; image-rendering:optimizeQuality; fill-rule:evenodd; clip-rule:evenodd"
viewBox="0 0 1602 1486"
 xmlns:xlink="http://www.w3.org/1999/xlink">
 <defs>
  <style type="text/css">
   <![CDATA[
    .fil0 {fill:#A82682;fill-rule:nonzero}
   ]]>
  </style>
 </defs>
 <g id="Layer_x0020_1">
  <metadata id="CorelCorpID_0Corel-Layer"/>
  <path class="fil0" d="M1140 759c-33,0 -93,-15 -92,-57 0,-41 58,-56 91,-56 36,0 76,5 110,-3 107,-24 149,-129 150,-228 2,-72 -21,-156 -69,-213 -54,-61 -130,-87 -211,-90 -244,-6 -262,200 -259,387 5,285 -41,523 -388,525 -156,0 -285,-61 -374,-188 -66,-94 -99,-222 -98,-337 2,-205 109,-396 302,-484 46,-20 105,-22 147,7 39,27 23,62 -16,79 -151,67 -229,242 -231,398 -1,99 27,215 85,297 42,60 106,117 185,116 191,-2 188,-279 186,-412 -6,-329 105,-503 462,-500 133,1 273,38 368,133 74,73 111,180 109,283 -2,114 -52,221 -156,279 94,34 161,112 161,214 -1,242 -278,281 -467,281l-818 0c-54,0 -114,4 -112,70 2,66 57,68 112,68l1166 0c46,0 101,27 101,79 0,51 -55,79 -101,79l-1166 0c-143,0 -320,-34 -317,-209 4,-170 178,-198 317,-198l818 0c114,0 261,-27 261,-170 0,-85 -59,-144 -143,-152 -36,-4 -76,2 -113,2z"/>
 </g>
</svg>
