<?xml version="1.0" encoding="UTF-8"?>
<!DOCTYPE svg PUBLIC "-//W3C//DTD SVG 1.1//EN" "http://www.w3.org/Graphics/SVG/1.1/DTD/svg11.dtd">
<!-- Creator: CorelDRAW X8 -->
<svg xmlns="http://www.w3.org/2000/svg" xml:space="preserve" width="1584px" height="1024px" version="1.1" style="shape-rendering:geometricPrecision; text-rendering:geometricPrecision; image-rendering:optimizeQuality; fill-rule:evenodd; clip-rule:evenodd"
viewBox="0 0 1584 1024"
 xmlns:xlink="http://www.w3.org/1999/xlink">
 <defs>
  <style type="text/css">
   <![CDATA[
    .fil0 {fill:#5B5A50;fill-rule:nonzero}
   ]]>
  </style>
 </defs>
 <g id="Layer_x0020_1">
  <metadata id="CorelCorpID_0Corel-Layer"/>
  <path class="fil0" d="M1104 112c-87,1 -173,36 -207,120 -37,89 -39,176 -37,271 5,286 -43,524 -394,521 -152,-2 -281,-64 -368,-186 -67,-94 -99,-221 -98,-335 2,-204 108,-402 302,-489 43,-19 106,-20 146,7 39,26 23,61 -15,78 -152,66 -229,249 -231,404 -1,98 27,214 85,295 40,57 104,114 179,115 196,2 194,-276 192,-410 -2,-112 1,-239 64,-337 78,-121 243,-164 382,-165 109,-1 231,19 324,76 92,56 141,138 142,244 1,92 -47,163 -129,207 81,42 141,118 143,211 1,88 -32,163 -107,215 -68,46 -155,65 -237,67 -80,1 -164,-15 -237,-47 -38,-17 -53,-52 -14,-78 37,-25 101,-26 142,-8 32,14 73,22 108,22 41,-1 80,-18 106,-49 28,-34 38,-79 37,-122 -1,-68 -46,-121 -111,-142 -63,-20 -123,-12 -188,-12 -32,0 -88,-14 -88,-56 0,-41 55,-55 88,-55 61,0 132,4 190,-16 65,-21 96,-71 95,-137 -1,-151 -121,-210 -264,-209z"/>
 </g>
</svg>
