<?xml version="1.0" encoding="UTF-8"?>
<!DOCTYPE svg PUBLIC "-//W3C//DTD SVG 1.1//EN" "http://www.w3.org/Graphics/SVG/1.1/DTD/svg11.dtd">
<!-- Creator: CorelDRAW X8 -->
<svg xmlns="http://www.w3.org/2000/svg" xml:space="preserve" width="1555px" height="1486px" version="1.1" style="shape-rendering:geometricPrecision; text-rendering:geometricPrecision; image-rendering:optimizeQuality; fill-rule:evenodd; clip-rule:evenodd"
viewBox="0 0 1555 1486"
 xmlns:xlink="http://www.w3.org/1999/xlink">
 <defs>
  <style type="text/css">
   <![CDATA[
    .fil0 {fill:#A82682}
   ]]>
  </style>
 </defs>
 <g id="Layer_x0020_1">
  <metadata id="CorelCorpID_0Corel-Layer"/>
  <path class="fil0" d="M678 1387c58,0 129,-3 183,-27 34,-15 58,-41 57,-80 -1,-42 -45,-59 -82,-59 -46,0 -66,42 -66,83 0,40 -59,51 -91,51 -32,0 -90,-11 -91,-51 0,-41 -20,-83 -66,-83 -37,0 -80,17 -82,59 -1,39 23,65 58,80 52,23 123,27 180,27zm409 -115c103,-80 171,-195 214,-316 35,-99 55,-209 53,-314 -2,-104 -15,-219 -56,-315 -41,-99 -122,-214 -242,-215 -196,-2 -197,285 -195,420 5,279 -61,492 -390,492 -155,0 -284,-60 -373,-186 -72,-103 -105,-238 -97,-362 12,-190 103,-360 279,-450 51,-27 118,-39 169,-5 39,27 23,62 -16,79 -148,65 -220,229 -230,380 -7,106 22,230 84,318 42,59 106,117 184,116 183,-1 190,-250 188,-381 -5,-289 43,-530 397,-533 204,-1 363,119 440,301 46,110 63,227 58,345 -4,129 -34,259 -88,377 -86,188 -232,340 -432,409 -110,38 -240,53 -357,54 -82,1 -175,-9 -253,-37 -71,-25 -153,-88 -152,-170 1,-49 33,-87 73,-113 49,-31 119,-42 176,-42 52,0 111,10 158,35 47,-25 106,-35 158,-35 57,0 127,11 176,42 38,24 70,59 74,106z"/>
 </g>
</svg>
