<?xml version="1.0" encoding="UTF-8"?>
<!DOCTYPE svg PUBLIC "-//W3C//DTD SVG 1.1//EN" "http://www.w3.org/Graphics/SVG/1.1/DTD/svg11.dtd">
<!-- Creator: CorelDRAW X8 -->
<svg xmlns="http://www.w3.org/2000/svg" xml:space="preserve" width="1550px" height="1486px" version="1.1" style="shape-rendering:geometricPrecision; text-rendering:geometricPrecision; image-rendering:optimizeQuality; fill-rule:evenodd; clip-rule:evenodd"
viewBox="0 0 1550 1486"
 xmlns:xlink="http://www.w3.org/1999/xlink">
 <defs>
  <style type="text/css">
   <![CDATA[
    .fil0 {fill:#A82682;fill-rule:nonzero}
   ]]>
  </style>
 </defs>
 <g id="Layer_x0020_1">
  <metadata id="CorelCorpID_0Corel-Layer"/>
  <path class="fil0" d="M1348 561c0,-117 -30,-246 -103,-341 -43,-57 -114,-109 -188,-109 -191,0 -196,280 -194,413 5,280 -56,499 -388,500 -153,0 -286,-62 -374,-187 -73,-103 -106,-239 -98,-363 13,-194 108,-366 289,-454 48,-23 113,-30 159,1 39,27 23,62 -16,79 -147,65 -220,227 -229,378 -7,109 21,226 83,317 43,62 105,118 185,117 186,-2 189,-257 187,-388 -4,-282 52,-527 396,-524 147,2 284,59 374,176 83,108 119,251 119,385 -1,159 -40,321 -150,442 -121,135 -299,187 -476,187l-607 0c-54,0 -114,4 -112,70 1,66 57,68 112,68l1091 0c46,0 101,27 101,79 0,51 -55,79 -101,79l-1091 0c-143,0 -320,-34 -317,-209 4,-170 178,-198 317,-198l607 0c123,0 232,-46 310,-144 83,-103 113,-244 114,-374z"/>
 </g>
</svg>
