<?xml version="1.0" encoding="UTF-8"?>
<!DOCTYPE svg PUBLIC "-//W3C//DTD SVG 1.1//EN" "http://www.w3.org/Graphics/SVG/1.1/DTD/svg11.dtd">
<!-- Creator: CorelDRAW X8 -->
<svg xmlns="http://www.w3.org/2000/svg" xml:space="preserve" width="1670px" height="1486px" version="1.1" style="shape-rendering:geometricPrecision; text-rendering:geometricPrecision; image-rendering:optimizeQuality; fill-rule:evenodd; clip-rule:evenodd"
viewBox="0 0 1670 1486"
 xmlns:xlink="http://www.w3.org/1999/xlink">
 <defs>
  <style type="text/css">
   <![CDATA[
    .fil0 {fill:#2B2A29;fill-rule:nonzero}
   ]]>
  </style>
 </defs>
 <g id="Layer_x0020_1">
  <metadata id="CorelCorpID_0Corel-Layer"/>
  <path class="fil0" d="M1440 1364c53,-37 99,-82 136,-135 67,-97 94,-210 94,-326 0,-160 -73,-300 -220,-373 77,-44 123,-115 123,-204 0,-108 -51,-192 -142,-248 -95,-58 -209,-77 -319,-77 -139,0 -309,40 -390,165 -65,101 -64,225 -64,341 0,139 4,406 -192,406 -75,0 -139,-58 -180,-115 -56,-80 -84,-193 -84,-290 0,-158 78,-343 230,-409 23,-10 38,-27 38,-44 0,-12 -6,-24 -22,-34 -21,-14 -49,-21 -77,-21 -25,0 -49,5 -70,14 -193,88 -301,286 -301,494 0,113 32,237 98,330 89,127 215,186 368,186 342,0 394,-229 394,-517 0,-98 2,-199 37,-274 34,-71 96,-120 215,-121 67,0 139,14 192,59 46,39 67,93 67,152 1,72 -42,116 -98,137 -28,10 -59,15 -90,15l-98 -2c-33,-1 -91,14 -91,56 0,42 59,56 92,56 31,0 64,-2 96,-2 32,0 65,2 95,10 141,38 208,177 219,311 1,15 2,30 2,45 0,77 -17,156 -52,224 -14,28 -32,55 -54,78 -36,-59 -128,-92 -192,-107 -65,-15 -131,-20 -197,-20 -71,0 -147,6 -216,23 -73,19 -194,68 -194,157 0,88 117,138 189,157 65,17 141,25 221,25 78,0 153,-7 225,-25 74,-19 144,-50 212,-97zm-437 17c-52,0 -116,-5 -165,-23 -22,-9 -56,-26 -56,-53 0,-27 34,-45 56,-53 49,-19 113,-24 165,-24 47,0 96,4 141,17 26,8 75,27 76,59 0,33 -51,53 -77,60 -45,13 -93,17 -140,17z"/>
 </g>
</svg>
