<?xml version="1.0" encoding="UTF-8"?>
<!DOCTYPE svg PUBLIC "-//W3C//DTD SVG 1.1//EN" "http://www.w3.org/Graphics/SVG/1.1/DTD/svg11.dtd">
<!-- Creator: CorelDRAW X8 -->
<svg xmlns="http://www.w3.org/2000/svg" xml:space="preserve" width="1177px" height="868px" version="1.1" style="shape-rendering:geometricPrecision; text-rendering:geometricPrecision; image-rendering:optimizeQuality; fill-rule:evenodd; clip-rule:evenodd"
viewBox="0 0 1177 868"
 xmlns:xlink="http://www.w3.org/1999/xlink">
 <defs>
  <style type="text/css">
   <![CDATA[
    .fil0 {fill:#996633}
   ]]>
  </style>
 </defs>
 <g id="Layer_x0020_1">
  <metadata id="CorelCorpID_0Corel-Layer"/>
  <path class="fil0" d="M759 305c3,179 -42,294 -245,294 -96,1 -177,-32 -234,-110 -40,-55 -60,-131 -59,-199 0,-60 17,-115 49,-166 20,-31 52,-66 89,-91 28,-18 63,-33 97,-33 15,0 31,3 45,9 15,6 23,16 23,26 0,10 -8,19 -24,26 -41,18 -74,51 -97,89 -25,43 -40,90 -40,140 -1,58 16,128 50,175 22,29 61,66 100,65 103,-1 105,-153 104,-225 -3,-179 40,-307 248,-305 121,2 215,61 269,166 31,60 44,128 43,195 -2,134 -48,260 -147,353 -110,104 -268,153 -418,154 -154,1 -311,-41 -431,-141 -114,-96 -175,-228 -181,-375 -2,-68 8,-138 37,-200 20,-43 58,-97 105,-128 23,-15 48,-24 74,-24 12,0 25,2 38,6 12,3 32,14 32,28 0,10 -7,18 -15,22 -45,29 -77,70 -98,118 -25,55 -33,118 -31,178 5,118 49,229 134,313 88,87 211,133 335,132 122,-1 240,-49 320,-142 71,-81 102,-188 104,-294 1,-56 -10,-116 -33,-168 -22,-49 -77,-123 -138,-123 -102,-1 -106,164 -105,235z"/>
 </g>
</svg>
