<?xml version="1.0" encoding="UTF-8"?>
<!DOCTYPE svg PUBLIC "-//W3C//DTD SVG 1.1//EN" "http://www.w3.org/Graphics/SVG/1.1/DTD/svg11.dtd">
<!-- Creator: CorelDRAW X8 -->
<svg xmlns="http://www.w3.org/2000/svg" xml:space="preserve" width="1927px" height="1486px" version="1.1" style="shape-rendering:geometricPrecision; text-rendering:geometricPrecision; image-rendering:optimizeQuality; fill-rule:evenodd; clip-rule:evenodd"
viewBox="0 0 1927 1486"
 xmlns:xlink="http://www.w3.org/1999/xlink">
 <defs>
  <style type="text/css">
   <![CDATA[
    .fil0 {fill:#996633;fill-rule:nonzero}
   ]]>
  </style>
 </defs>
 <g id="Layer_x0020_1">
  <metadata id="CorelCorpID_0Corel-Layer"/>
  <path class="fil0" d="M406 14c22,10 36,26 36,43 0,12 -8,25 -24,36 -169,109 -223,320 -216,509 7,201 81,394 224,540 152,155 358,232 576,230 209,-1 415,-88 550,-248 119,-141 169,-325 173,-506 2,-154 -43,-321 -156,-433 -38,-38 -89,-72 -145,-72 -196,-2 -198,283 -195,418 4,278 -62,490 -388,493 -157,1 -285,-60 -375,-188 -67,-94 -99,-216 -99,-330 2,-204 101,-391 290,-484 25,-13 55,-22 85,-22 27,0 53,7 75,22 15,11 22,23 22,34 0,18 -15,34 -38,44 -155,69 -230,247 -231,406 -1,98 27,209 84,290 43,60 107,118 186,116 182,-3 189,-251 186,-381 -5,-284 48,-535 398,-530 99,1 192,28 271,87 166,125 236,330 232,530 -4,227 -79,445 -245,606 -178,173 -433,260 -680,262 -254,2 -507,-74 -700,-240 -192,-166 -293,-394 -302,-644 -7,-219 63,-444 251,-574 26,-18 58,-28 89,-28 23,0 45,4 66,14z"/>
 </g>
</svg>
