<?xml version="1.0" encoding="UTF-8"?>
<!DOCTYPE svg PUBLIC "-//W3C//DTD SVG 1.1//EN" "http://www.w3.org/Graphics/SVG/1.1/DTD/svg11.dtd">
<!-- Creator: CorelDRAW X8 -->
<svg xmlns="http://www.w3.org/2000/svg" xml:space="preserve" width="1670px" height="1486px" version="1.1" style="shape-rendering:geometricPrecision; text-rendering:geometricPrecision; image-rendering:optimizeQuality; fill-rule:evenodd; clip-rule:evenodd"
viewBox="0 0 1670 1486"
 xmlns:xlink="http://www.w3.org/1999/xlink">
 <defs>
  <style type="text/css">
   <![CDATA[
    .fil0 {fill:#996633}
   ]]>
  </style>
 </defs>
 <g id="Layer_x0020_1">
  <metadata id="CorelCorpID_0Corel-Layer"/>
  <path class="fil0" d="M1002 1228c-52,0 -116,5 -165,24 -21,8 -56,26 -56,52 -1,27 34,45 56,54 49,18 113,23 165,23 47,0 95,-4 140,-17 26,-7 77,-27 77,-60 -1,-32 -50,-51 -76,-59 -45,-13 -94,-17 -141,-17zm104 -1116c-88,1 -173,36 -208,120 -37,90 -40,173 -39,269 5,288 -43,527 -394,524 -151,-1 -281,-64 -368,-187 -66,-95 -99,-223 -98,-337 2,-206 110,-398 304,-486 20,-9 45,-15 70,-15 27,0 55,8 76,22 12,8 22,20 23,35 0,21 -21,36 -38,43 -152,68 -231,245 -232,401 -1,98 26,215 84,296 41,58 104,116 180,117 195,1 194,-278 191,-413 -2,-113 4,-236 66,-334 78,-123 243,-166 382,-167 109,-1 232,21 325,78 91,56 141,139 142,245 1,90 -45,163 -123,207 147,73 220,213 220,373 0,116 -27,229 -94,326 -37,53 -83,98 -136,135 -56,39 -119,69 -188,90 -82,25 -163,31 -248,32 -72,1 -153,-7 -222,-25 -72,-19 -189,-69 -189,-157 0,-89 121,-138 194,-157 69,-17 145,-23 216,-23 66,0 132,5 197,20 64,15 156,48 192,107 22,-23 40,-50 54,-78 42,-81 58,-179 50,-269 -11,-134 -78,-270 -219,-308 -61,-16 -129,-8 -191,-8 -33,0 -92,-14 -92,-56 0,-42 58,-56 91,-56 61,0 132,5 190,-15 66,-22 96,-71 96,-138 -1,-59 -21,-113 -67,-152 -53,-45 -129,-59 -197,-59z"/>
 </g>
</svg>
