<?xml version="1.0" encoding="UTF-8"?>
<!DOCTYPE svg PUBLIC "-//W3C//DTD SVG 1.1//EN" "http://www.w3.org/Graphics/SVG/1.1/DTD/svg11.dtd">
<!-- Creator: CorelDRAW X8 -->
<svg xmlns="http://www.w3.org/2000/svg" xml:space="preserve" width="951px" height="868px" version="1.1" style="shape-rendering:geometricPrecision; text-rendering:geometricPrecision; image-rendering:optimizeQuality; fill-rule:evenodd; clip-rule:evenodd"
viewBox="0 0 951 868"
 xmlns:xlink="http://www.w3.org/1999/xlink">
 <defs>
  <style type="text/css">
   <![CDATA[
    .fil0 {fill:#A82682;fill-rule:nonzero}
   ]]>
  </style>
 </defs>
 <g id="Layer_x0020_1">
  <metadata id="CorelCorpID_0Corel-Layer"/>
  <path class="fil0" d="M809 328c0,-68 -18,-143 -62,-198 -22,-28 -64,-61 -102,-61 -103,0 -107,167 -106,238 3,179 -42,292 -245,293 -96,0 -178,-33 -235,-111 -40,-55 -60,-129 -59,-196 1,-115 73,-245 187,-284 30,-11 63,-13 93,0 32,14 31,39 0,52 -87,38 -137,142 -138,232 0,57 17,125 51,172 21,30 61,66 100,66 102,-2 105,-152 104,-224 -3,-179 39,-309 248,-307 91,1 177,32 235,104 49,63 71,146 71,224 0,85 -19,170 -73,238 -75,95 -196,130 -313,130l-365 0c-28,0 -57,4 -56,39 1,35 27,37 56,37l655 0c29,0 72,13 72,48 0,35 -43,48 -72,48l-655 0c-84,0 -202,-16 -200,-124 3,-103 117,-117 200,-117l365 0c84,0 152,-39 196,-110 34,-56 47,-124 48,-189z"/>
 </g>
</svg>
