<?xml version="1.0" encoding="UTF-8"?>
<!DOCTYPE svg PUBLIC "-//W3C//DTD SVG 1.1//EN" "http://www.w3.org/Graphics/SVG/1.1/DTD/svg11.dtd">
<!-- Creator: CorelDRAW X8 -->
<svg xmlns="http://www.w3.org/2000/svg" xml:space="preserve" width="3073px" height="1486px" version="1.1" style="shape-rendering:geometricPrecision; text-rendering:geometricPrecision; image-rendering:optimizeQuality; fill-rule:evenodd; clip-rule:evenodd"
viewBox="0 0 3073 1487"
 xmlns:xlink="http://www.w3.org/1999/xlink">
 <defs>
  <style type="text/css">
   <![CDATA[
    .fil0 {fill:#2B2A29;fill-rule:nonzero}
   ]]>
  </style>
 </defs>
 <g id="Layer_x0020_1">
  <metadata id="CorelCorpID_0Corel-Layer"/>
  <path class="fil0" d="M827 1024c342,0 394,-229 394,-517 0,-98 2,-199 38,-274 33,-71 96,-120 214,-121 141,-1 257,56 257,212 0,74 -41,116 -96,136 -32,12 -68,16 -104,16l-85 -2c-34,-1 -88,14 -88,56 0,41 56,55 88,55 28,0 56,-2 84,-2 35,0 69,3 104,14 69,23 112,81 112,152 0,87 -66,145 -150,145 -69,0 -106,-34 -166,-34 -28,0 -58,7 -78,21 -16,11 -24,22 -24,34 0,17 16,33 38,44 114,50 287,64 411,64 121,0 253,-15 365,-62 35,-15 69,-34 99,-57 83,89 209,120 328,120 78,0 154,-15 222,-44 -59,104 -172,191 -281,245 -256,129 -647,149 -932,149 -261,0 -550,-19 -796,-103 -346,-117 -577,-375 -577,-752 0,-167 59,-330 205,-428 16,-10 24,-23 24,-35 0,-16 -14,-33 -37,-43 -19,-9 -42,-13 -65,-13 -29,0 -57,6 -77,20 -174,115 -254,298 -254,499 0,455 320,739 730,863 268,81 565,105 847,105 330,0 772,-30 1069,-179 209,-106 344,-261 399,-488 21,-87 28,-174 28,-264 0,-65 -6,-137 -21,-201 -36,-148 -124,-278 -273,-342 -20,-9 -44,-13 -68,-13 -28,0 -57,7 -78,22 -15,11 -21,22 -21,33 0,18 17,35 40,45 154,63 215,261 215,414 0,67 -9,136 -35,198 -42,107 -141,201 -264,201 -152,0 -212,-121 -212,-254l0 -603c0,-42 -70,-56 -102,-56 -32,0 -101,14 -101,56l0 603c0,102 -39,172 -137,214 -44,19 -94,29 -142,34 47,-45 71,-105 71,-170 0,-92 -62,-166 -142,-209 82,-44 130,-115 130,-207 -1,-106 -51,-188 -142,-244 -92,-56 -210,-76 -318,-76 -139,0 -309,40 -390,165 -64,101 -64,225 -64,341 0,139 4,406 -192,406 -75,0 -139,-58 -180,-115 -56,-80 -84,-193 -84,-290 0,-158 78,-343 230,-409 23,-10 38,-27 38,-44 0,-12 -6,-24 -22,-34 -21,-14 -49,-21 -77,-21 -25,0 -49,5 -70,14 -193,88 -301,286 -301,494 0,113 32,237 98,330 90,127 215,186 368,186z"/>
 </g>
</svg>
