<?xml version="1.0" encoding="UTF-8"?>
<!DOCTYPE svg PUBLIC "-//W3C//DTD SVG 1.1//EN" "http://www.w3.org/Graphics/SVG/1.1/DTD/svg11.dtd">
<!-- Creator: CorelDRAW X8 -->
<svg xmlns="http://www.w3.org/2000/svg" xml:space="preserve" width="2708px" height="1024px" version="1.1" style="shape-rendering:geometricPrecision; text-rendering:geometricPrecision; image-rendering:optimizeQuality; fill-rule:evenodd; clip-rule:evenodd"
viewBox="0 0 2708 1024"
 xmlns:xlink="http://www.w3.org/1999/xlink">
 <defs>
  <style type="text/css">
   <![CDATA[
    .fil0 {fill:#5B5A50;fill-rule:nonzero}
   ]]>
  </style>
 </defs>
 <g id="Layer_x0020_1">
  <metadata id="CorelCorpID_0Corel-Layer"/>
  <path class="fil0" d="M1004 959c-39,-18 -54,-52 -15,-78 37,-26 101,-27 142,-9 32,15 73,23 108,22 88,-1 150,-71 144,-156 -5,-65 -48,-121 -111,-141 -64,-20 -124,-12 -188,-12 -33,0 -92,-14 -92,-55 0,-42 59,-56 91,-56 61,0 132,4 190,-15 65,-22 96,-72 96,-138 -1,-59 -21,-113 -67,-152 -52,-44 -130,-57 -197,-57 -88,1 -173,36 -208,120 -37,89 -39,176 -37,271 5,283 -41,519 -388,521 -156,1 -285,-60 -374,-186 -67,-94 -99,-221 -98,-335 2,-204 108,-401 302,-489 43,-19 106,-20 146,7 39,26 23,61 -15,78 -152,66 -229,249 -231,404 -1,98 27,214 85,295 42,59 106,116 185,115 191,-2 188,-277 186,-410 -2,-112 1,-239 64,-337 78,-121 243,-164 382,-165 109,-1 232,19 325,76 91,56 141,138 142,244 1,92 -48,163 -129,207 84,43 145,112 145,209 0,65 -28,125 -75,170 48,-5 98,-15 142,-34 98,-42 137,-111 137,-214l0 -603c0,-42 69,-56 101,-56 32,0 102,14 102,56l0 603c0,133 60,254 212,254 123,0 222,-94 264,-201 27,-65 36,-138 35,-208 -2,-148 -64,-342 -215,-404 -38,-16 -57,-50 -19,-78 39,-28 103,-27 146,-9 199,86 288,290 291,492 1,88 -13,177 -52,257 -82,172 -260,262 -450,262 -119,0 -245,-31 -328,-120 -30,23 -64,42 -99,57 -112,47 -244,62 -365,62 -124,0 -296,-13 -410,-64z"/>
 </g>
</svg>
