<?xml version="1.0" encoding="UTF-8"?>
<!DOCTYPE svg PUBLIC "-//W3C//DTD SVG 1.1//EN" "http://www.w3.org/Graphics/SVG/1.1/DTD/svg11.dtd">
<!-- Creator: CorelDRAW X8 -->
<svg xmlns="http://www.w3.org/2000/svg" xml:space="preserve" width="1606px" height="1486px" version="1.1" style="shape-rendering:geometricPrecision; text-rendering:geometricPrecision; image-rendering:optimizeQuality; fill-rule:evenodd; clip-rule:evenodd"
viewBox="0 0 1606 1486"
 xmlns:xlink="http://www.w3.org/1999/xlink">
 <defs>
  <style type="text/css">
   <![CDATA[
    .fil0 {fill:#A82682;fill-rule:nonzero}
   ]]>
  </style>
 </defs>
 <g id="Layer_x0020_1">
  <metadata id="CorelCorpID_0Corel-Layer"/>
  <path class="fil0" d="M317 1190c-54,0 -114,5 -112,70 1,66 57,68 112,68l1139 0c46,0 102,28 102,79 0,51 -56,79 -102,79l-1139 0c-143,0 -321,-33 -317,-209 4,-169 178,-198 317,-198l813 0c108,0 179,-41 237,-131 29,-45 41,-104 41,-157 -1,-60 -18,-131 -65,-173 -20,-18 -46,-26 -73,-28 -17,-1 -34,2 -52,1 -30,-3 -85,-17 -88,-53 -3,-39 57,-56 86,-58 16,-2 33,0 49,-3 24,-4 47,-15 65,-32 30,-28 43,-63 43,-104 0,-64 -31,-137 -76,-174 -47,-37 -112,-55 -192,-55 -88,1 -173,36 -208,120 -36,89 -38,177 -37,271 5,286 -43,524 -394,521 -151,-1 -281,-64 -368,-186 -67,-94 -99,-221 -98,-335 2,-204 108,-401 302,-489 43,-19 106,-20 146,7 39,26 23,61 -15,78 -152,66 -229,250 -231,404 -1,98 27,214 85,295 40,57 104,115 179,115 196,2 195,-275 192,-410 -2,-112 2,-239 64,-336 79,-122 244,-165 382,-166 109,-1 232,19 325,76 93,57 149,163 146,264 -2,71 -34,140 -103,187 94,56 135,158 134,263 -1,85 -27,177 -82,244 -99,120 -245,155 -394,155l-813 0z"/>
 </g>
</svg>
