<?xml version="1.0" encoding="UTF-8"?>
<!DOCTYPE svg PUBLIC "-//W3C//DTD SVG 1.1//EN" "http://www.w3.org/Graphics/SVG/1.1/DTD/svg11.dtd">
<!-- Creator: CorelDRAW X8 -->
<svg xmlns="http://www.w3.org/2000/svg" xml:space="preserve" width="2853px" height="1024px" version="1.1" style="shape-rendering:geometricPrecision; text-rendering:geometricPrecision; image-rendering:optimizeQuality; fill-rule:evenodd; clip-rule:evenodd"
viewBox="0 0 2853 1024"
 xmlns:xlink="http://www.w3.org/1999/xlink">
 <defs>
  <style type="text/css">
   <![CDATA[
    .fil0 {fill:#5B5A50;fill-rule:nonzero}
   ]]>
  </style>
 </defs>
 <g id="Layer_x0020_1">
  <metadata id="CorelCorpID_0Corel-Layer"/>
  <path class="fil0" d="M2650 56c0,-42 69,-56 102,-56 32,0 101,14 101,56l0 888c0,42 -69,56 -102,56l-1093 0c-35,0 -101,-16 -101,-60l0 -273 -372 0c-33,0 -102,-14 -102,-56 0,-17 15,-31 29,-39 61,-35 85,-108 85,-174 0,-96 -60,-192 -167,-192 -111,-1 -164,95 -169,193 -4,60 0,121 -2,182 -8,265 -83,441 -387,443 -156,1 -285,-60 -374,-186 -67,-94 -99,-221 -98,-335 2,-204 108,-401 302,-489 43,-19 106,-20 146,7 39,26 23,61 -15,78 -152,66 -229,250 -231,404 -1,98 27,214 85,295 42,59 106,116 184,115 168,-2 182,-207 186,-330 2,-62 -2,-123 1,-185 9,-202 180,-304 372,-303 186,0 370,104 370,303 0,55 -14,110 -43,158l200 0 0 -201c0,-108 48,-191 122,-249 93,-74 221,-106 333,-106 111,0 221,30 303,89 80,58 135,146 135,264l0 258c0,42 -70,56 -102,56l-588 0 0 222 890 0 0 -833zm-403 500l0 -203c0,-73 -26,-134 -70,-177 -41,-41 -99,-65 -166,-65 -67,0 -130,23 -178,68 -46,43 -73,103 -73,176l0 201 487 0z"/>
 </g>
</svg>
