<?xml version="1.0" encoding="UTF-8"?>
<!DOCTYPE svg PUBLIC "-//W3C//DTD SVG 1.1//EN" "http://www.w3.org/Graphics/SVG/1.1/DTD/svg11.dtd">
<!-- Creator: CorelDRAW X8 -->
<svg xmlns="http://www.w3.org/2000/svg" xml:space="preserve" width="3072px" height="1486px" version="1.1" style="shape-rendering:geometricPrecision; text-rendering:geometricPrecision; image-rendering:optimizeQuality; fill-rule:evenodd; clip-rule:evenodd"
viewBox="0 0 3072 1486"
 xmlns:xlink="http://www.w3.org/1999/xlink">
 <defs>
  <style type="text/css">
   <![CDATA[
    .fil0 {fill:#5B5A50;fill-rule:nonzero}
   ]]>
  </style>
 </defs>
 <g id="Layer_x0020_1">
  <metadata id="CorelCorpID_0Corel-Layer"/>
  <path class="fil0" d="M1365 959c-38,-17 -53,-52 -14,-78 37,-26 101,-27 142,-9 32,15 73,23 108,22 89,-1 150,-65 144,-151 -5,-66 -48,-124 -112,-145 -63,-20 -124,-12 -188,-12 -32,0 -92,-14 -92,-56 0,-42 59,-56 92,-56 61,0 132,4 190,-15 65,-22 96,-69 95,-136 0,-59 -20,-113 -66,-153 -52,-44 -131,-57 -198,-57 -87,1 -173,36 -207,120 -37,90 -39,178 -37,274 5,284 -42,516 -388,517 -155,0 -285,-61 -374,-187 -67,-95 -99,-216 -98,-330 2,-206 107,-405 301,-493 44,-19 107,-20 147,7 39,27 23,61 -16,78 -151,68 -229,252 -230,408 -1,98 27,208 84,289 43,60 107,118 185,116 192,-2 189,-272 187,-405 -2,-113 1,-241 64,-339 78,-123 243,-166 382,-167 109,-1 231,19 324,76 92,57 141,139 142,246 1,93 -47,165 -129,208 84,44 146,114 146,211 0,66 -29,119 -75,165 51,-6 99,-15 141,-33 81,-33 137,-96 137,-210l0 -608c0,-42 69,-56 102,-56 32,0 101,14 101,56l0 607c0,135 61,249 213,249 122,0 221,-88 264,-195 26,-66 36,-139 35,-210 -3,-149 -64,-344 -215,-407 -38,-16 -58,-50 -20,-78 39,-28 104,-27 147,-9 140,61 224,175 264,318 20,73 29,149 29,225 0,87 -8,179 -29,264 -54,227 -189,382 -399,487 -286,144 -713,176 -1031,179 -292,2 -603,-19 -883,-104 -410,-125 -721,-404 -730,-848 -4,-207 77,-396 254,-514 37,-25 101,-26 142,-7 39,18 52,53 13,78 -151,101 -209,275 -204,448 9,369 231,614 576,732 259,88 556,105 829,103 270,-2 654,-27 898,-149 111,-56 212,-132 278,-238 -68,30 -143,37 -218,37 -119,0 -246,-31 -329,-121 -29,23 -62,42 -97,58 -113,49 -250,63 -366,63 -125,0 -297,-14 -411,-65z"/>
 </g>
</svg>
