<?xml version="1.0" encoding="UTF-8"?>
<!DOCTYPE svg PUBLIC "-//W3C//DTD SVG 1.1//EN" "http://www.w3.org/Graphics/SVG/1.1/DTD/svg11.dtd">
<!-- Creator: CorelDRAW X8 -->
<svg xmlns="http://www.w3.org/2000/svg" xml:space="preserve" width="1670px" height="1486px" version="1.1" style="shape-rendering:geometricPrecision; text-rendering:geometricPrecision; image-rendering:optimizeQuality; fill-rule:evenodd; clip-rule:evenodd"
viewBox="0 0 1668 1485"
 xmlns:xlink="http://www.w3.org/1999/xlink">
 <defs>
  <style type="text/css">
   <![CDATA[
    .fil0 {fill:#5B5A50}
   ]]>
  </style>
 </defs>
 <g id="Layer_x0020_1">
  <metadata id="CorelCorpID_0Corel-Layer"/>
  <path class="fil0" d="M1002 1228c-52,0 -116,4 -165,23 -21,8 -56,26 -56,52 -1,27 34,45 56,54 49,18 113,23 165,23 47,0 95,-4 140,-17 26,-7 77,-27 76,-60 0,-32 -49,-51 -75,-59 -45,-13 -94,-16 -141,-16zm103 -1116c-87,1 -172,36 -207,120 -37,90 -40,173 -39,268 5,288 -43,527 -394,524 -151,-1 -280,-64 -367,-187 -67,-95 -99,-222 -98,-337 2,-205 109,-397 303,-485 46,-20 104,-22 146,7 39,27 23,61 -15,78 -152,67 -231,245 -232,401 -1,98 27,214 84,296 41,57 105,115 180,116 195,2 194,-278 192,-412 -2,-113 3,-236 65,-334 78,-123 243,-166 382,-167 109,-1 231,21 324,78 91,56 141,139 142,245 1,90 -44,162 -123,207 147,73 220,213 220,372 0,116 -27,229 -94,326 -36,53 -82,98 -135,135 -56,39 -120,69 -188,90 -82,25 -163,30 -248,32 -72,1 -153,-7 -222,-25 -72,-19 -189,-69 -189,-157 1,-89 121,-138 194,-157 69,-17 145,-23 216,-23 66,0 132,5 197,20 64,15 156,48 192,107 22,-23 39,-50 54,-78 41,-81 58,-178 50,-269 -11,-134 -79,-270 -219,-308 -61,-16 -129,-7 -191,-7 -33,0 -92,-14 -92,-56 0,-42 58,-56 91,-56 61,0 131,4 190,-16 65,-21 96,-70 95,-137 0,-59 -20,-113 -66,-152 -53,-45 -129,-59 -198,-59z"/>
 </g>
</svg>
