<?xml version="1.0" encoding="UTF-8"?>
<!DOCTYPE svg PUBLIC "-//W3C//DTD SVG 1.1//EN" "http://www.w3.org/Graphics/SVG/1.1/DTD/svg11.dtd">
<!-- Creator: CorelDRAW X8 -->
<svg xmlns="http://www.w3.org/2000/svg" xml:space="preserve" width="2626px" height="1412px" version="1.1" style="shape-rendering:geometricPrecision; text-rendering:geometricPrecision; image-rendering:optimizeQuality; fill-rule:evenodd; clip-rule:evenodd"
viewBox="0 0 2626 1412"
 xmlns:xlink="http://www.w3.org/1999/xlink">
 <defs>
  <style type="text/css">
   <![CDATA[
    .fil0 {fill:#5B5A50;fill-rule:nonzero}
   ]]>
  </style>
 </defs>
 <g id="Layer_x0020_1">
  <metadata id="CorelCorpID_0Corel-Layer"/>
  <path class="fil0" d="M1221 373c0,-114 -24,-256 -167,-262 -91,-3 -157,60 -186,141 -32,90 -32,190 -32,284 0,272 -57,488 -384,488 -295,0 -448,-215 -452,-488 -3,-220 101,-437 317,-522 48,-18 110,-23 152,12 37,30 8,64 -29,77 -168,61 -240,270 -238,433 2,141 72,376 250,376 179,0 182,-252 182,-376 0,-101 0,-210 35,-306 57,-156 208,-233 371,-230 106,2 219,31 295,110 96,-78 228,-110 350,-110 184,1 360,55 483,197 323,68 476,345 456,656 -20,327 -243,549 -578,559 -138,4 -286,-31 -395,-116 -38,-30 -13,-64 24,-78 41,-16 106,-14 141,13 64,50 148,72 228,69 243,-7 365,-233 378,-448 10,-158 -28,-334 -145,-450 17,60 24,120 23,182 -1,96 -23,190 -73,272 -70,113 -188,169 -321,168 -125,-1 -242,-49 -313,-154 -45,-67 -66,-143 -66,-224 0,-98 32,-198 92,-277 75,-99 188,-156 310,-177 -68,-53 -157,-83 -244,-81 -172,4 -262,122 -262,285l0 572c0,42 -69,56 -101,56 -32,0 -101,-14 -101,-56l0 -595zm801 -78c-88,4 -164,48 -217,117 -51,67 -76,151 -76,234 0,66 16,130 54,185 28,42 72,81 125,81 57,1 100,-48 127,-92 44,-71 62,-153 63,-236 2,-101 -20,-203 -76,-289z"/>
 </g>
</svg>
