<?xml version="1.0" encoding="UTF-8"?>
<!DOCTYPE svg PUBLIC "-//W3C//DTD SVG 1.1//EN" "http://www.w3.org/Graphics/SVG/1.1/DTD/svg11.dtd">
<!-- Creator: CorelDRAW X8 -->
<svg xmlns="http://www.w3.org/2000/svg" xml:space="preserve" width="3072px" height="1486px" version="1.1" style="shape-rendering:geometricPrecision; text-rendering:geometricPrecision; image-rendering:optimizeQuality; fill-rule:evenodd; clip-rule:evenodd"
viewBox="0 0 3072 1486"
 xmlns:xlink="http://www.w3.org/1999/xlink">
 <defs>
  <style type="text/css">
   <![CDATA[
    .fil0 {fill:#A82682;fill-rule:nonzero}
   ]]>
  </style>
 </defs>
 <g id="Layer_x0020_1">
  <metadata id="CorelCorpID_0Corel-Layer"/>
  <path class="fil0" d="M1365 959c-38,-17 -53,-52 -14,-78 37,-26 101,-27 142,-8 32,14 73,22 108,21 89,-1 150,-65 144,-151 -5,-65 -48,-124 -112,-145 -63,-20 -124,-12 -188,-12 -32,0 -92,-14 -92,-56 0,-42 59,-56 92,-56 61,0 132,4 190,-15 65,-22 96,-69 95,-136 0,-59 -20,-113 -66,-153 -52,-44 -131,-57 -198,-57 -87,1 -173,36 -207,120 -37,90 -39,178 -37,274 5,284 -42,516 -388,517 -155,0 -285,-61 -374,-187 -67,-95 -100,-216 -98,-330 2,-206 107,-405 301,-493 43,-19 107,-20 147,7 38,27 23,61 -16,78 -152,68 -229,252 -230,408 -1,98 27,208 84,290 42,60 107,117 185,116 192,-3 189,-273 187,-406 -2,-113 1,-241 64,-339 78,-123 243,-166 382,-167 109,-1 231,19 325,76 91,57 140,139 141,246 1,93 -47,165 -129,208 84,44 146,114 146,212 0,65 -29,118 -75,164 51,-5 99,-15 141,-33 81,-33 137,-96 137,-210l0 -608c0,-42 69,-56 102,-56 32,0 101,14 101,56l0 607c0,135 61,249 213,249 122,0 221,-88 264,-195 26,-66 36,-139 35,-210 -2,-149 -64,-343 -215,-407 -38,-16 -58,-50 -19,-78 39,-28 103,-27 146,-9 140,61 224,175 264,318 21,73 29,149 29,225 1,87 -8,179 -28,264 -55,227 -190,382 -399,488 -287,143 -714,175 -1032,178 -292,2 -603,-19 -883,-104 -411,-125 -721,-403 -730,-848 -4,-207 76,-396 254,-514 37,-25 101,-26 142,-7 39,18 52,53 13,78 -151,101 -209,275 -205,448 10,369 232,615 577,732 259,88 556,105 829,103 270,-2 655,-27 898,-149 111,-56 212,-131 278,-238 -68,30 -143,37 -218,37 -119,0 -246,-31 -329,-121 -29,23 -62,42 -97,58 -113,49 -250,63 -366,63 -125,0 -297,-13 -411,-65z"/>
 </g>
</svg>
