<?xml version="1.0" encoding="UTF-8"?>
<!DOCTYPE svg PUBLIC "-//W3C//DTD SVG 1.1//EN" "http://www.w3.org/Graphics/SVG/1.1/DTD/svg11.dtd">
<!-- Creator: CorelDRAW X8 -->
<svg xmlns="http://www.w3.org/2000/svg" xml:space="preserve" width="1545px" height="1024px" version="1.1" style="shape-rendering:geometricPrecision; text-rendering:geometricPrecision; image-rendering:optimizeQuality; fill-rule:evenodd; clip-rule:evenodd"
viewBox="0 0 1545 1024"
 xmlns:xlink="http://www.w3.org/1999/xlink">
 <defs>
  <style type="text/css">
   <![CDATA[
    .fil0 {fill:#669933;fill-rule:nonzero}
   ]]>
  </style>
 </defs>
 <g id="Layer_x0020_1">
  <metadata id="CorelCorpID_0Corel-Layer"/>
  <path class="fil0" d="M1085 93c-98,0 -191,40 -227,130 -37,92 -39,177 -38,280 5,277 -35,524 -374,521 -145,-1 -267,-64 -349,-183 -66,-94 -98,-223 -97,-338 2,-204 105,-404 295,-491 34,-16 85,-18 118,5 28,20 22,48 -13,64 -156,70 -236,259 -238,422 -1,103 28,222 86,305 46,66 114,125 198,125 214,2 215,-276 212,-430 -2,-113 2,-242 63,-340 75,-119 231,-161 364,-162 103,-1 221,18 309,74 80,50 136,128 137,242 1,97 -52,171 -139,211 85,40 151,119 153,216 1,91 -32,163 -102,213 -64,45 -146,63 -223,64 -78,1 -158,-15 -224,-45 -34,-16 -40,-45 -11,-64 28,-20 79,-23 114,-7 36,17 82,26 121,25 48,-1 94,-20 124,-57 28,-35 39,-82 39,-129 -2,-75 -51,-132 -121,-154 -72,-24 -157,-14 -198,-14 -26,0 -82,-11 -82,-46 0,-25 36,-46 81,-46 60,0 139,4 201,-17 70,-24 106,-77 105,-150 -1,-72 -27,-125 -70,-161 -56,-49 -142,-64 -214,-63z"/>
 </g>
</svg>
