<?xml version="1.0" encoding="UTF-8"?>
<!DOCTYPE svg PUBLIC "-//W3C//DTD SVG 1.1//EN" "http://www.w3.org/Graphics/SVG/1.1/DTD/svg11.dtd">
<!-- Creator: CorelDRAW X8 -->
<svg xmlns="http://www.w3.org/2000/svg" xml:space="preserve" width="2683px" height="1486px" version="1.1" style="shape-rendering:geometricPrecision; text-rendering:geometricPrecision; image-rendering:optimizeQuality; fill-rule:evenodd; clip-rule:evenodd"
viewBox="0 0 2683 1486"
 xmlns:xlink="http://www.w3.org/1999/xlink">
 <defs>
  <style type="text/css">
   <![CDATA[
    .fil0 {fill:#669933}
   ]]>
  </style>
 </defs>
 <g id="Layer_x0020_1">
  <metadata id="CorelCorpID_0Corel-Layer"/>
  <path class="fil0" d="M1875 1224c-76,0 -136,10 -176,26 -43,16 -65,39 -65,62 -1,24 21,47 64,64 40,15 101,26 177,26 63,0 111,-7 149,-19 58,-17 88,-44 87,-71 0,-26 -29,-53 -86,-69 -38,-12 -86,-19 -150,-19zm383 106c155,-90 233,-261 248,-420 -86,75 -200,114 -320,114 -140,0 -256,-45 -326,-134 -32,29 -70,54 -114,72 -104,46 -231,62 -352,62 -117,0 -290,-14 -398,-64 -35,-15 -40,-44 -12,-64 29,-19 80,-22 115,-6 35,16 81,25 121,25 98,-2 169,-76 163,-173 -5,-66 -48,-129 -121,-153 -73,-23 -157,-13 -198,-13 -26,0 -83,-11 -83,-46 0,-25 37,-46 82,-46 59,0 138,4 201,-17 70,-24 105,-77 104,-151 0,-71 -27,-124 -69,-160 -57,-49 -142,-64 -215,-63 -97,0 -190,40 -226,130 -37,92 -40,177 -38,280 5,277 -36,522 -374,521 -146,-1 -266,-63 -349,-183 -66,-95 -98,-223 -97,-338 2,-204 104,-404 294,-491 35,-16 86,-18 119,5 28,20 22,48 -13,64 -156,70 -236,259 -238,422 -1,103 28,222 86,305 46,66 114,123 198,125 214,3 215,-278 212,-430 -2,-113 1,-243 63,-340 75,-119 231,-161 363,-162 104,-1 221,18 310,74 80,50 136,128 137,241 1,98 -52,171 -140,212 89,42 156,113 156,214 0,69 -33,139 -95,189 70,-4 139,-16 194,-41 104,-45 144,-120 144,-228l0 -616c0,-25 37,-46 82,-46 45,0 81,21 81,46l0 616c0,149 71,270 233,270 131,0 237,-95 283,-213 27,-67 37,-142 36,-215 -3,-158 -67,-356 -223,-422 -36,-16 -43,-44 -16,-64 32,-24 84,-22 119,-7 138,61 222,184 259,322 27,101 40,217 39,334 -1,77 -7,155 -21,230 -36,192 -123,367 -303,475 -84,50 -196,83 -307,99 -62,10 -123,14 -180,15 -67,0 -144,-7 -210,-25 -118,-32 -177,-90 -177,-149 0,-59 61,-118 182,-149 56,-14 127,-23 208,-23 75,0 136,8 189,20 76,18 196,65 196,152 0,6 -1,12 -2,18z"/>
 </g>
</svg>
