<?xml version="1.0" encoding="UTF-8"?>
<!DOCTYPE svg PUBLIC "-//W3C//DTD SVG 1.1//EN" "http://www.w3.org/Graphics/SVG/1.1/DTD/svg11.dtd">
<!-- Creator: CorelDRAW X8 -->
<svg xmlns="http://www.w3.org/2000/svg" xml:space="preserve" width="2195px" height="1000px" version="1.1" style="shape-rendering:geometricPrecision; text-rendering:geometricPrecision; image-rendering:optimizeQuality; fill-rule:evenodd; clip-rule:evenodd"
viewBox="0 0 2195 1000"
 xmlns:xlink="http://www.w3.org/1999/xlink">
 <defs>
  <style type="text/css">
   <![CDATA[
    .fil0 {fill:#996633;fill-rule:nonzero}
   ]]>
  </style>
 </defs>
 <g id="Layer_x0020_1">
  <metadata id="CorelCorpID_0Corel-Layer"/>
  <path class="fil0" d="M1992 44c0,-42 69,-56 102,-56 32,0 101,14 101,56l0 889c0,41 -69,55 -101,55l-1094 0c-35,0 -102,-16 -102,-59l0 -274 -371 0c-33,0 -101,-14 -102,-55 0,-15 10,-29 29,-40 61,-35 85,-108 85,-174 0,-96 -60,-192 -167,-192 -107,-1 -169,95 -169,191 0,70 29,152 99,183 23,10 38,26 38,43 0,12 -7,24 -23,35 -20,14 -48,20 -77,20 -24,0 -49,-5 -69,-14 -109,-50 -171,-150 -171,-267 0,-200 187,-302 372,-302 185,0 370,104 370,303 0,55 -14,110 -44,157l200 0 0 -200c0,-239 239,-354 456,-354 219,0 437,114 437,352l0 258c0,42 -69,56 -101,56l-589 0 0 222 891 0 0 -833zm-404 499l1 -202c0,-136 -93,-242 -237,-242 -143,0 -251,103 -251,244l0 200 487 0z"/>
 </g>
</svg>
