<?xml version="1.0" encoding="UTF-8"?>
<!DOCTYPE svg PUBLIC "-//W3C//DTD SVG 1.1//EN" "http://www.w3.org/Graphics/SVG/1.1/DTD/svg11.dtd">
<!-- Creator: CorelDRAW X8 -->
<svg xmlns="http://www.w3.org/2000/svg" xml:space="preserve" width="2578px" height="1486px" version="1.1" style="shape-rendering:geometricPrecision; text-rendering:geometricPrecision; image-rendering:optimizeQuality; fill-rule:evenodd; clip-rule:evenodd"
viewBox="0 0 2578 1486"
 xmlns:xlink="http://www.w3.org/1999/xlink">
 <defs>
  <style type="text/css">
   <![CDATA[
    .fil0 {fill:#A82682;fill-rule:nonzero}
   ]]>
  </style>
 </defs>
 <g id="Layer_x0020_1">
  <metadata id="CorelCorpID_0Corel-Layer"/>
  <path class="fil0" d="M2375 56c0,-42 70,-56 102,-56 32,0 101,14 101,56l0 941c0,210 -196,337 -378,398 -242,82 -543,93 -798,91 -396,-4 -851,-57 -1150,-341 -156,-149 -250,-342 -252,-558 -3,-211 88,-438 265,-565 36,-26 99,-28 140,-11 37,15 61,50 21,79 -150,107 -224,312 -224,489 1,181 70,347 195,480 254,269 655,312 1009,315 216,2 483,-5 689,-74 142,-48 268,-140 279,-300l-991 0c-35,0 -101,-16 -101,-60l0 -273 -372 0c-33,0 -102,-14 -102,-56 0,-14 10,-28 29,-39 61,-35 85,-106 85,-173 0,-96 -60,-193 -167,-193 -106,0 -169,96 -169,193 0,71 30,150 99,181 39,17 55,52 16,78 -40,27 -104,26 -147,7 -109,-50 -171,-148 -171,-266 1,-202 188,-305 372,-305 186,1 370,105 370,305 0,56 -13,108 -43,156l200 0 0 -198c0,-244 244,-357 455,-357 219,0 438,115 438,355l0 256c0,42 -69,56 -102,56l-588 0 -1 221 891 0 0 -832zm-403 499l0 -200c0,-137 -93,-243 -236,-243 -144,0 -251,103 -251,245l0 198 487 0z"/>
 </g>
</svg>
