<?xml version="1.0" encoding="UTF-8"?>
<!DOCTYPE svg PUBLIC "-//W3C//DTD SVG 1.1//EN" "http://www.w3.org/Graphics/SVG/1.1/DTD/svg11.dtd">
<!-- Creator: CorelDRAW X8 -->
<svg xmlns="http://www.w3.org/2000/svg" xml:space="preserve" width="2611px" height="1024px" version="1.1" style="shape-rendering:geometricPrecision; text-rendering:geometricPrecision; image-rendering:optimizeQuality; fill-rule:evenodd; clip-rule:evenodd"
viewBox="0 0 2611 1024"
 xmlns:xlink="http://www.w3.org/1999/xlink">
 <defs>
  <style type="text/css">
   <![CDATA[
    .fil0 {fill:#996633;fill-rule:nonzero}
   ]]>
  </style>
 </defs>
 <g id="Layer_x0020_1">
  <metadata id="CorelCorpID_0Corel-Layer"/>
  <path class="fil0" d="M1656 393c0,-178 -115,-277 -293,-279 40,24 76,53 102,89 28,38 46,82 46,134 0,39 -12,75 -33,107 -19,30 -47,56 -78,77 91,43 139,116 138,216 -2,189 -152,285 -332,287 -289,3 -429,-226 -429,-484 -1,-168 56,-318 197,-420 -55,-7 -110,-10 -165,-10 -98,0 -227,9 -320,40 -85,28 -159,75 -217,144 -39,48 -66,103 -77,164 54,-48 124,-72 196,-75 98,-3 199,30 267,101 59,61 83,141 81,224 -3,89 -38,178 -109,235 -67,55 -152,81 -239,81 -87,0 -171,-24 -239,-78 -109,-88 -151,-245 -152,-378 0,-127 35,-246 120,-344 84,-95 197,-152 320,-185 110,-29 254,-39 368,-39 114,0 229,9 341,34 66,-20 137,-31 206,-31 139,-1 298,21 399,123 98,-103 258,-124 395,-125 200,-2 435,79 440,310 2,90 -47,170 -124,218 87,42 147,125 146,222 -3,195 -205,273 -377,273 -80,0 -161,-15 -235,-45 -24,-10 -41,-27 -41,-45 0,-11 5,-22 20,-33 21,-15 51,-22 81,-22 22,0 43,4 60,11 36,14 77,23 115,23 101,1 175,-60 174,-162 -1,-63 -41,-120 -101,-144 -50,-20 -111,-20 -169,-19 -15,0 -30,0 -45,0 -32,0 -90,-15 -89,-56 1,-41 60,-55 93,-55 11,0 22,0 33,1 63,1 128,1 176,-22 54,-27 81,-88 81,-145 -1,-140 -107,-200 -238,-199 -190,0 -291,100 -291,285l0 572c0,41 -69,55 -101,55 -33,0 -101,-14 -101,-55l0 -576zm-1421 313c0,94 46,207 156,207 106,0 153,-121 153,-207 0,-89 -44,-206 -153,-206 -108,0 -156,116 -156,206zm932 -540c-138,79 -188,222 -188,372 0,122 63,377 224,375 91,0 132,-101 133,-177 1,-99 -66,-149 -162,-150 -14,0 -28,1 -42,1 -31,-2 -79,-16 -82,-53 -3,-40 44,-55 77,-57 15,-1 29,-1 43,-2 75,-9 138,-61 138,-138 0,-41 -16,-75 -40,-102 -26,-30 -63,-53 -101,-69z"/>
 </g>
</svg>
