<?xml version="1.0" encoding="UTF-8"?>
<!DOCTYPE svg PUBLIC "-//W3C//DTD SVG 1.1//EN" "http://www.w3.org/Graphics/SVG/1.1/DTD/svg11.dtd">
<!-- Creator: CorelDRAW X8 -->
<svg xmlns="http://www.w3.org/2000/svg" xml:space="preserve" width="2192px" height="1486px" version="1.1" style="shape-rendering:geometricPrecision; text-rendering:geometricPrecision; image-rendering:optimizeQuality; fill-rule:evenodd; clip-rule:evenodd"
viewBox="0 0 2192 1486"
 xmlns:xlink="http://www.w3.org/1999/xlink">
 <defs>
  <style type="text/css">
   <![CDATA[
    .fil0 {fill:#A82682;fill-rule:nonzero}
   ]]>
  </style>
 </defs>
 <g id="Layer_x0020_1">
  <metadata id="CorelCorpID_0Corel-Layer"/>
  <path class="fil0" d="M605 496c-22,-13 -44,-24 -63,-41 -52,-48 -83,-117 -83,-188 0,-70 31,-131 83,-177 68,-62 166,-90 258,-90 91,0 187,28 254,91 80,-68 185,-91 288,-91 152,0 288,49 365,185 43,77 61,166 66,253l30 0c91,0 180,17 255,71 100,74 138,198 134,316 -8,206 -155,376 -323,484 -203,130 -460,179 -699,177 -282,-3 -602,-78 -832,-246 -225,-164 -341,-396 -338,-672 2,-216 86,-426 275,-548 36,-24 97,-26 138,-9 40,17 58,54 15,81 -160,104 -223,295 -225,476 -2,229 83,427 261,576 193,160 459,230 708,231 192,2 404,-43 565,-150 135,-90 245,-235 252,-400 4,-86 -19,-194 -93,-248 -25,-19 -64,-27 -94,-27l-28 0c-3,100 -19,205 -70,292 -77,134 -211,181 -362,181 -109,0 -218,-25 -299,-101 -59,73 -151,101 -243,101 -94,1 -192,-30 -260,-95 -53,-52 -82,-120 -81,-193 0,-73 30,-136 82,-187 19,-19 41,-39 64,-52zm276 -346c-21,-21 -52,-38 -82,-38 -31,-1 -62,16 -85,36 -34,31 -52,74 -53,119 0,48 19,97 55,130 38,35 81,41 131,41l64 0c3,-37 7,-71 15,-108 12,-61 1,-135 -45,-180zm42 522c-7,-41 -11,-80 -13,-122l-62 0c-50,0 -94,14 -130,49 -36,36 -56,84 -57,134 -1,52 17,103 55,140 21,20 52,39 83,39 29,0 58,-20 77,-40 49,-52 59,-132 47,-200zm649 -122l-459 0c3,87 17,183 61,259 37,65 92,102 168,102 77,0 132,-38 169,-102 44,-76 58,-173 61,-259zm-458 -112l457 0c-5,-75 -20,-153 -58,-220 -37,-66 -92,-106 -171,-106 -79,0 -134,40 -171,107 -38,66 -52,144 -57,219z"/>
 </g>
</svg>
