<?xml version="1.0" encoding="UTF-8"?>
<!DOCTYPE svg PUBLIC "-//W3C//DTD SVG 1.1//EN" "http://www.w3.org/Graphics/SVG/1.1/DTD/svg11.dtd">
<!-- Creator: CorelDRAW X8 -->
<svg xmlns="http://www.w3.org/2000/svg" xml:space="preserve" width="1782px" height="1486px" version="1.1" style="shape-rendering:geometricPrecision; text-rendering:geometricPrecision; image-rendering:optimizeQuality; fill-rule:evenodd; clip-rule:evenodd"
viewBox="0 0 1782 1486"
 xmlns:xlink="http://www.w3.org/1999/xlink">
 <defs>
  <style type="text/css">
   <![CDATA[
    .fil0 {fill:#2B2A29;fill-rule:nonzero}
   ]]>
  </style>
 </defs>
 <g id="Layer_x0020_1">
  <metadata id="CorelCorpID_0Corel-Layer"/>
  <path class="fil0" d="M886 1486c92,0 181,-8 270,-25 85,-16 167,-40 246,-76 96,-43 183,-102 250,-179 81,-93 130,-210 130,-334 0,-143 -65,-282 -191,-361 -83,-52 -162,-73 -277,-73 -5,-87 -23,-176 -66,-253 -77,-136 -213,-185 -365,-185 -104,0 -208,23 -288,91 -67,-63 -167,-91 -258,-91 -92,0 -186,28 -254,90 -52,46 -83,108 -83,177 0,71 31,140 84,188 19,18 40,28 62,41 -23,13 -45,34 -64,52 -52,52 -82,116 -82,191 0,71 29,139 81,189 68,65 166,96 260,96 92,-1 184,-29 243,-102 30,28 65,51 107,68 53,22 117,34 192,34 151,0 285,-48 362,-181 50,-88 67,-193 70,-293l19 0c46,0 88,20 124,47 85,64 121,173 121,275 0,101 -29,200 -90,281 -50,66 -119,116 -198,152 0,-95 -131,-143 -208,-161 -65,-15 -131,-20 -197,-20 -71,0 -147,6 -216,23 -73,19 -194,68 -194,157 0,88 117,138 189,157 70,18 145,25 221,25zm-434 -1048l-64 0c-50,0 -93,-6 -131,-41 -36,-33 -55,-82 -55,-130 1,-45 19,-88 53,-119 22,-19 52,-36 82,-36 32,0 62,15 85,38 35,34 50,84 50,133 0,16 -2,32 -5,47 -8,37 -12,71 -15,108zm660 1l-457 -1c10,-156 68,-326 228,-326 166,0 220,183 229,327zm-772 473c-30,0 -62,-19 -83,-39 -37,-36 -55,-85 -55,-136 0,-51 21,-98 57,-134 36,-35 80,-53 130,-53l62 0c2,42 6,81 13,123 3,17 5,34 5,52 0,53 -15,108 -52,147 -19,20 -48,40 -77,40zm543 0c-170,0 -223,-194 -229,-362l459 0c-6,161 -54,362 -230,362zm3 469c-52,0 -116,-5 -165,-23 -22,-9 -57,-27 -57,-54 1,-27 35,-44 57,-52 49,-19 113,-24 165,-24 47,0 96,4 141,17 26,8 75,27 75,59 0,33 -49,53 -76,60 -45,13 -93,17 -140,17z"/>
 </g>
</svg>
