<?xml version="1.0" encoding="UTF-8"?>
<!DOCTYPE svg PUBLIC "-//W3C//DTD SVG 1.1//EN" "http://www.w3.org/Graphics/SVG/1.1/DTD/svg11.dtd">
<!-- Creator: CorelDRAW X8 -->
<svg xmlns="http://www.w3.org/2000/svg" xml:space="preserve" width="1768px" height="1024px" version="1.1" style="shape-rendering:geometricPrecision; text-rendering:geometricPrecision; image-rendering:optimizeQuality; fill-rule:evenodd; clip-rule:evenodd"
viewBox="0 0 1768 1024"
 xmlns:xlink="http://www.w3.org/1999/xlink">
 <defs>
  <style type="text/css">
   <![CDATA[
    .fil0 {fill:#2B2A29;fill-rule:nonzero}
   ]]>
  </style>
 </defs>
 <g id="Layer_x0020_1">
  <metadata id="CorelCorpID_0Corel-Layer"/>
  <path class="fil0" d="M1486 1024c112,-1 282,-50 282,-188 0,-57 -37,-95 -87,-119 38,-24 61,-63 61,-108 0,-136 -150,-169 -258,-169l-170 0c-5,-87 -23,-180 -66,-257 -77,-135 -213,-183 -365,-183 -103,0 -208,23 -288,91 -67,-64 -163,-91 -254,-91 -92,0 -190,28 -258,89 -52,46 -83,107 -83,176 0,71 31,140 84,188 18,17 39,31 62,44 -23,13 -45,29 -64,48 -53,51 -82,123 -82,196 0,70 29,137 81,187 68,65 165,95 259,95 93,0 185,-28 244,-101 81,76 190,101 299,101 151,0 285,-47 362,-180 25,-42 42,-91 53,-142 10,-48 15,-99 17,-151l169 0c34,0 56,26 56,59 0,19 -4,41 -20,53 -10,7 -28,9 -44,9l-33 -1c-35,0 -98,17 -98,56 0,42 65,55 97,55 22,0 44,-4 66,-4 10,0 20,1 27,4 24,11 35,30 35,55 0,49 -41,77 -87,77 -16,0 -33,-2 -47,-11 -21,-12 -48,-18 -76,-18 -24,0 -48,5 -67,14 -25,12 -35,25 -35,38 0,33 70,63 106,73 39,11 82,15 122,15zm-374 -584l-457 0c10,-153 63,-329 228,-329 164,0 219,175 229,329zm-659 -1l-65 0c-51,0 -92,-8 -131,-44 -36,-33 -55,-82 -55,-130 1,-45 19,-88 53,-118 23,-20 54,-36 85,-36 30,0 61,17 82,38 35,34 50,84 50,133 0,15 -2,31 -5,46 -8,37 -12,74 -14,111zm430 473c-172,0 -223,-194 -229,-362l459 0c-6,167 -56,362 -230,362zm-543 0c-31,0 -62,-19 -83,-39 -37,-35 -55,-84 -55,-134 0,-50 21,-105 57,-140 36,-35 80,-49 130,-49l62 0c2,42 6,84 13,125 3,17 5,34 5,52 0,53 -15,107 -52,146 -19,20 -48,39 -77,39z"/>
 </g>
</svg>
