<?xml version="1.0" encoding="UTF-8"?>
<!DOCTYPE svg PUBLIC "-//W3C//DTD SVG 1.1//EN" "http://www.w3.org/Graphics/SVG/1.1/DTD/svg11.dtd">
<!-- Creator: CorelDRAW X8 -->
<svg xmlns="http://www.w3.org/2000/svg" xml:space="preserve" width="1782px" height="1486px" version="1.1" style="shape-rendering:geometricPrecision; text-rendering:geometricPrecision; image-rendering:optimizeQuality; fill-rule:evenodd; clip-rule:evenodd"
viewBox="0 0 1782 1486"
 xmlns:xlink="http://www.w3.org/1999/xlink">
 <defs>
  <style type="text/css">
   <![CDATA[
    .fil0 {fill:#5B5A50;fill-rule:nonzero}
   ]]>
  </style>
 </defs>
 <g id="Layer_x0020_1">
  <metadata id="CorelCorpID_0Corel-Layer"/>
  <path class="fil0" d="M882 1387c58,0 129,-3 182,-27 35,-15 59,-41 58,-80 -2,-41 -45,-59 -81,-60 -47,0 -67,43 -67,84 0,40 -59,51 -91,51 -32,0 -91,-11 -91,-51 0,-41 -20,-83 -66,-84 -37,0 -80,18 -82,60 -1,39 23,65 58,80 52,23 123,27 180,27zm-736 -891c-22,-13 -43,-23 -62,-41 -53,-48 -84,-117 -84,-188 0,-70 31,-131 83,-177 68,-62 166,-90 258,-90 91,0 187,28 254,91 80,-68 185,-91 288,-91 152,0 288,49 365,185 43,77 61,166 66,253l20 0c101,0 188,30 257,73 128,81 193,219 191,364 -2,122 -50,239 -130,331 -82,95 -197,164 -324,208 -71,25 -144,44 -219,56 -74,11 -150,16 -226,16 -85,0 -174,-8 -255,-37 -71,-25 -153,-88 -152,-170 1,-49 33,-88 73,-113 49,-31 119,-42 176,-42 52,0 111,10 158,35 47,-25 106,-35 158,-35 57,0 127,11 176,42 40,26 74,63 74,113 0,10 -1,19 -4,28 80,-36 149,-86 200,-151 61,-78 92,-180 92,-278 1,-105 -34,-216 -121,-281 -36,-27 -78,-47 -124,-47l-19 0c-3,100 -20,205 -70,293 -77,133 -211,181 -362,181 -109,0 -218,-26 -299,-102 -59,73 -151,101 -243,102 -94,0 -192,-31 -260,-96 -53,-51 -82,-120 -81,-193 1,-72 30,-135 82,-187 19,-18 41,-39 64,-52zm276 -346c-21,-21 -52,-38 -82,-38 -31,-1 -62,16 -85,36 -34,30 -52,74 -53,119 0,48 19,97 55,131 38,34 81,41 131,41l65 0c2,-38 6,-72 14,-109 12,-61 1,-135 -45,-180zm42 523c-7,-42 -11,-81 -13,-123l-62 0c-50,0 -94,18 -130,53 -36,36 -56,80 -57,130 -1,52 17,103 55,140 21,20 53,39 83,39 29,0 58,-20 77,-40 49,-52 59,-132 47,-199zm649 -123l-459 0c3,87 17,184 61,260 37,64 92,102 168,102 77,0 132,-39 169,-103 44,-76 58,-172 61,-259zm-458 -111l457 0c-5,-76 -20,-154 -58,-221 -37,-66 -92,-106 -171,-106 -79,0 -134,40 -171,106 -38,67 -52,145 -57,221z"/>
 </g>
</svg>
