<?xml version="1.0" encoding="UTF-8"?>
<!DOCTYPE svg PUBLIC "-//W3C//DTD SVG 1.1//EN" "http://www.w3.org/Graphics/SVG/1.1/DTD/svg11.dtd">
<!-- Creator: CorelDRAW X8 -->
<svg xmlns="http://www.w3.org/2000/svg" xml:space="preserve" width="1768px" height="1024px" version="1.1" style="shape-rendering:geometricPrecision; text-rendering:geometricPrecision; image-rendering:optimizeQuality; fill-rule:evenodd; clip-rule:evenodd"
viewBox="0 0 1768 1024"
 xmlns:xlink="http://www.w3.org/1999/xlink">
 <defs>
  <style type="text/css">
   <![CDATA[
    .fil0 {fill:#5B5A50;fill-rule:nonzero}
   ]]>
  </style>
 </defs>
 <g id="Layer_x0020_1">
  <metadata id="CorelCorpID_0Corel-Layer"/>
  <path class="fil0" d="M655 440l457 0c-5,-76 -20,-157 -58,-224 -37,-65 -92,-105 -171,-105 -79,0 -134,40 -171,106 -38,66 -52,148 -57,223zm458 110l-459 0c3,86 17,185 61,260 37,64 92,102 168,102 77,0 132,-38 169,-102 44,-75 58,-174 61,-260zm-649 125c-7,-41 -11,-83 -13,-125l-62 0c-50,0 -94,14 -130,49 -36,35 -55,86 -57,136 -1,51 17,102 55,138 21,20 52,39 83,39 29,0 58,-19 77,-39 49,-52 59,-131 47,-198zm419 -675c152,0 288,48 365,183 43,77 61,170 66,257l170 0c109,0 256,34 258,166 1,46 -22,86 -61,111 51,24 88,63 87,121 -3,136 -167,185 -282,186 -40,0 -83,-4 -122,-15 -50,-14 -163,-66 -71,-111 40,-20 104,-19 143,4 14,9 31,11 47,11 46,0 85,-27 87,-74 1,-26 -10,-47 -35,-58 -19,-8 -62,-1 -86,0 -33,2 -101,-11 -104,-52 -3,-43 69,-61 103,-59 19,1 55,4 72,-8 17,-12 21,-36 20,-56 -1,-31 -23,-56 -56,-56l-169 0c-2,52 -7,103 -17,151 -11,51 -28,100 -53,142 -77,133 -211,180 -362,180 -109,0 -218,-25 -299,-101 -59,73 -151,101 -244,101 -94,0 -191,-30 -259,-95 -53,-51 -82,-119 -81,-191 1,-72 30,-142 82,-192 19,-19 41,-35 64,-48 -23,-13 -44,-27 -62,-44 -53,-48 -84,-117 -84,-188 0,-69 31,-130 83,-176 68,-61 166,-89 258,-89 91,0 187,27 254,91 80,-68 185,-91 288,-91zm-495 439l65 0c2,-37 6,-74 14,-111 12,-61 1,-134 -45,-179 -21,-21 -52,-38 -82,-38 -31,0 -62,16 -85,36 -34,30 -52,73 -53,118 0,48 19,97 55,130 39,36 80,44 131,44z"/>
 </g>
</svg>
