<?xml version="1.0" encoding="UTF-8"?>
<!DOCTYPE svg PUBLIC "-//W3C//DTD SVG 1.1//EN" "http://www.w3.org/Graphics/SVG/1.1/DTD/svg11.dtd">
<!-- Creator: CorelDRAW X8 -->
<svg xmlns="http://www.w3.org/2000/svg" xml:space="preserve" width="1769px" height="1486px" version="1.1" style="shape-rendering:geometricPrecision; text-rendering:geometricPrecision; image-rendering:optimizeQuality; fill-rule:evenodd; clip-rule:evenodd"
viewBox="0 0 1769 1486"
 xmlns:xlink="http://www.w3.org/1999/xlink">
 <defs>
  <style type="text/css">
   <![CDATA[
    .fil0 {fill:#996633;fill-rule:nonzero}
   ]]>
  </style>
 </defs>
 <g id="Layer_x0020_1">
  <metadata id="CorelCorpID_0Corel-Layer"/>
  <path class="fil0" d="M655 442l457 0c-5,-75 -20,-158 -58,-224 -37,-67 -92,-106 -171,-106 -79,0 -134,40 -171,106 -38,67 -52,149 -57,224zm813 0c128,0 262,44 264,191 1,56 -28,110 -76,139 70,31 112,98 113,173 2,172 -178,245 -324,245l-1129 0c-53,0 -113,4 -111,70 1,66 57,68 111,68l1323 0c46,0 101,27 101,79 0,51 -55,79 -101,79l-1323 0c-143,0 -320,-34 -316,-209 4,-170 177,-198 316,-198l1128 0c74,0 128,-61 130,-134 2,-45 -19,-90 -64,-107 -25,-9 -59,-1 -86,0 -33,0 -104,-13 -105,-56 0,-41 66,-56 98,-57 23,0 59,6 78,-6 25,-16 41,-57 41,-86 -1,-36 -27,-79 -68,-79l-153 0c-2,52 -7,97 -17,145 -11,52 -28,101 -53,144 -77,133 -211,181 -362,181 -109,0 -218,-25 -299,-102 -59,73 -151,101 -244,102 -93,0 -191,-30 -259,-96 -53,-51 -81,-119 -81,-192 1,-104 57,-185 146,-236 -88,-49 -146,-131 -146,-233 0,-70 31,-131 83,-177 68,-62 166,-90 258,-90 91,0 187,28 254,91 80,-68 184,-91 288,-91 152,0 288,49 365,184 43,77 61,171 66,258 51,0 103,0 154,0zm-355 112l-459 0c3,86 17,180 61,256 38,64 92,102 168,102 77,0 132,-38 169,-103 44,-76 58,-169 61,-255zm-649 119c-7,-41 -11,-77 -13,-119l-62 0c-50,0 -94,8 -130,43 -36,35 -55,87 -56,137 -2,51 16,103 54,139 21,20 53,39 83,39 29,0 58,-20 77,-39 49,-52 59,-132 47,-200zm-76 -231l64 0c3,-37 7,-75 15,-112 12,-61 1,-135 -45,-180 -21,-21 -52,-38 -82,-38 -31,-1 -62,16 -85,36 -34,30 -52,74 -53,119 0,48 19,98 55,131 39,35 80,44 131,44z"/>
 </g>
</svg>
