<?xml version="1.0" encoding="UTF-8"?>
<!DOCTYPE svg PUBLIC "-//W3C//DTD SVG 1.1//EN" "http://www.w3.org/Graphics/SVG/1.1/DTD/svg11.dtd">
<!-- Creator: CorelDRAW X8 -->
<svg xmlns="http://www.w3.org/2000/svg" xml:space="preserve" width="931px" height="586px" version="1.1" style="shape-rendering:geometricPrecision; text-rendering:geometricPrecision; image-rendering:optimizeQuality; fill-rule:evenodd; clip-rule:evenodd"
viewBox="0 0 931 586"
 xmlns:xlink="http://www.w3.org/1999/xlink">
 <defs>
  <style type="text/css">
   <![CDATA[
    .fil0 {fill:#996633;fill-rule:nonzero}
   ]]>
  </style>
 </defs>
 <g id="Layer_x0020_1">
  <metadata id="CorelCorpID_0Corel-Layer"/>
  <path class="fil0" d="M71 586c-20,0 -71,-7 -71,-35 0,-27 51,-34 71,-34l242 0c83,0 144,-82 143,-159 0,-50 -33,-110 -90,-110 -47,0 -90,44 -90,90 0,27 15,52 36,69 8,7 11,13 11,19 0,14 -21,27 -39,31 -10,3 -21,4 -31,4 -35,0 -69,-16 -92,-44 -17,-23 -27,-51 -27,-79 0,-55 32,-95 79,-121 44,-25 102,-38 153,-38 56,1 116,13 162,45 42,29 70,74 70,136 0,61 -28,117 -74,157l264 0 0 -482c0,-28 51,-35 72,-35 20,0 71,7 71,35l0 516c0,28 -51,35 -71,35l-789 0z"/>
 </g>
</svg>
