<?xml version="1.0" encoding="UTF-8"?>
<!DOCTYPE svg PUBLIC "-//W3C//DTD SVG 1.1//EN" "http://www.w3.org/Graphics/SVG/1.1/DTD/svg11.dtd">
<!-- Creator: CorelDRAW X8 -->
<svg xmlns="http://www.w3.org/2000/svg" xml:space="preserve" width="1518px" height="1420px" version="1.1" style="shape-rendering:geometricPrecision; text-rendering:geometricPrecision; image-rendering:optimizeQuality; fill-rule:evenodd; clip-rule:evenodd"
viewBox="0 0 1518 1420"
 xmlns:xlink="http://www.w3.org/1999/xlink">
 <defs>
  <style type="text/css">
   <![CDATA[
    .fil0 {fill:#5B5A50;fill-rule:nonzero}
   ]]>
  </style>
 </defs>
 <g id="Layer_x0020_1">
  <metadata id="CorelCorpID_0Corel-Layer"/>
  <path class="fil0" d="M102 1000c-33,0 -102,-14 -102,-56 0,-42 69,-56 102,-56l402 0c151,0 258,-131 258,-272 -1,-97 -59,-192 -166,-194 -88,-2 -170,70 -170,158 0,48 24,92 61,122 37,31 9,64 -28,78 -48,18 -109,12 -148,-23 -53,-46 -88,-107 -88,-177 3,-183 209,-270 369,-270 191,1 372,100 371,308 0,107 -48,200 -130,270l481 0 1 -832c0,-42 69,-56 101,-56 33,0 102,14 102,56l0 1308c0,42 -69,56 -102,56l-982 0c-32,0 -101,-14 -101,-56 0,-42 69,-56 101,-56l95 0c157,0 270,-162 255,-308l-682 0zm1212 0l-328 0c9,113 -42,234 -128,308l457 0 -1 -308z"/>
 </g>
</svg>
