<?xml version="1.0" encoding="UTF-8"?>
<!DOCTYPE svg PUBLIC "-//W3C//DTD SVG 1.1//EN" "http://www.w3.org/Graphics/SVG/1.1/DTD/svg11.dtd">
<!-- Creator: CorelDRAW X8 -->
<svg xmlns="http://www.w3.org/2000/svg" xml:space="preserve" width="1668px" height="1000px" version="1.1" style="shape-rendering:geometricPrecision; text-rendering:geometricPrecision; image-rendering:optimizeQuality; fill-rule:evenodd; clip-rule:evenodd"
viewBox="0 0 1668 1000"
 xmlns:xlink="http://www.w3.org/1999/xlink">
 <defs>
  <style type="text/css">
   <![CDATA[
    .fil0 {fill:#996633;fill-rule:nonzero}
   ]]>
  </style>
 </defs>
 <g id="Layer_x0020_1">
  <metadata id="CorelCorpID_0Corel-Layer"/>
  <path class="fil0" d="M108 1000c-33,0 -102,-14 -102,-55 0,-42 70,-56 102,-56l534 0c278,0 452,-123 452,-423 0,-81 -22,-186 -80,-263 -37,-48 -93,-89 -156,-90 -87,0 -132,95 -131,172 0,70 0,365 0,445 0,44 -68,58 -101,58 -34,0 -101,-14 -101,-58 0,-81 1,-375 -1,-445 -1,-75 -44,-173 -131,-172 -61,1 -119,50 -149,100 -38,64 -47,152 -39,225 10,91 55,210 146,249 25,11 38,28 38,44 1,13 -6,25 -21,36 -20,14 -50,21 -80,21 -22,0 -44,-4 -62,-12 -136,-59 -208,-189 -223,-332 -10,-88 3,-189 49,-267 63,-104 177,-162 296,-175 13,-1 26,-2 39,-2 90,-1 175,22 239,72 62,-49 146,-72 234,-72 132,1 259,52 340,159 71,93 97,215 97,307 0,171 -62,327 -208,423l376 0 0 -833c0,-42 69,-56 101,-56 33,0 102,14 102,56l0 889c0,41 -69,55 -102,55l-1458 0z"/>
 </g>
</svg>
