<?xml version="1.0" encoding="UTF-8"?>
<!DOCTYPE svg PUBLIC "-//W3C//DTD SVG 1.1//EN" "http://www.w3.org/Graphics/SVG/1.1/DTD/svg11.dtd">
<!-- Creator: CorelDRAW X8 -->
<svg xmlns="http://www.w3.org/2000/svg" xml:space="preserve" width="1396px" height="600px" version="1.1" style="shape-rendering:geometricPrecision; text-rendering:geometricPrecision; image-rendering:optimizeQuality; fill-rule:evenodd; clip-rule:evenodd"
viewBox="0 0 1396 600"
 xmlns:xlink="http://www.w3.org/1999/xlink">
 <defs>
  <style type="text/css">
   <![CDATA[
    .fil0 {fill:#5B5A50;fill-rule:nonzero}
   ]]>
  </style>
 </defs>
 <g id="Layer_x0020_1">
  <metadata id="CorelCorpID_0Corel-Layer"/>
  <path class="fil0" d="M1210 175c-49,6 -89,31 -116,71 -27,38 -39,86 -40,132 -1,35 6,74 23,105 15,26 39,48 71,48 33,0 56,-24 71,-50 23,-39 34,-96 35,-141 0,-58 -12,-116 -44,-165zm-1139 411c-20,0 -71,-7 -71,-34 0,-28 51,-35 71,-35l242 0c83,0 144,-82 144,-159 -1,-50 -34,-110 -91,-110 -47,0 -90,43 -90,89 0,28 15,53 37,71 28,22 -5,43 -28,49 -16,4 -36,5 -53,2 -59,-10 -98,-64 -98,-122 1,-112 136,-158 231,-158 114,0 234,53 234,181 0,61 -29,117 -75,157l189 0c-22,-24 -40,-52 -53,-83 -15,-34 -22,-71 -23,-109 0,-75 28,-149 77,-206 78,-89 188,-118 304,-119 3,0 7,0 10,0 105,2 198,33 263,90 75,64 106,154 105,250 -1,56 -14,113 -44,161 -45,70 -120,100 -203,99 -77,-1 -154,-26 -199,-91 -27,-39 -40,-86 -40,-133 0,-58 20,-116 56,-161 45,-58 113,-90 185,-103 -39,-30 -82,-44 -131,-43 -82,1 -148,34 -193,102 -30,44 -47,100 -47,153 0,41 10,82 30,119 19,35 48,65 82,87 15,9 21,24 7,38 -15,14 -43,18 -63,18l-765 0z"/>
 </g>
</svg>
