<?xml version="1.0" encoding="UTF-8"?>
<!DOCTYPE svg PUBLIC "-//W3C//DTD SVG 1.1//EN" "http://www.w3.org/Graphics/SVG/1.1/DTD/svg11.dtd">
<!-- Creator: CorelDRAW X8 -->
<svg xmlns="http://www.w3.org/2000/svg" xml:space="preserve" width="2587px" height="1486px" version="1.1" style="shape-rendering:geometricPrecision; text-rendering:geometricPrecision; image-rendering:optimizeQuality; fill-rule:evenodd; clip-rule:evenodd"
viewBox="0 0 2587 1486"
 xmlns:xlink="http://www.w3.org/1999/xlink">
 <defs>
  <style type="text/css">
   <![CDATA[
    .fil0 {fill:#A82682;fill-rule:nonzero}
   ]]>
  </style>
 </defs>
 <g id="Layer_x0020_1">
  <metadata id="CorelCorpID_0Corel-Layer"/>
  <path class="fil0" d="M1993 294c-88,4 -165,49 -218,117 -51,67 -75,151 -75,235 0,66 15,128 53,184 28,42 72,80 126,81 57,0 100,-48 127,-92 44,-72 62,-153 63,-235 1,-102 -20,-204 -76,-290zm136 -109c135,20 257,81 343,186 80,98 119,223 115,348 -5,123 -53,242 -143,328 -108,102 -269,143 -414,143l-1714 0c-53,0 -113,4 -111,70 1,66 57,67 111,67l2121 0c47,0 102,28 102,80 0,51 -55,79 -102,79l-2121 0c-143,0 -320,-34 -316,-209 4,-170 177,-198 316,-198l1714 0c98,0 201,-40 265,-116 57,-69 86,-159 89,-247 4,-95 -22,-195 -77,-274 -19,-28 -43,-53 -69,-75 25,70 35,143 34,217 -2,96 -23,188 -74,271 -70,113 -187,169 -320,168 -125,-1 -244,-49 -315,-154 -45,-67 -66,-143 -66,-223 0,-99 32,-199 92,-278 76,-99 189,-156 311,-177 -71,-57 -149,-81 -240,-80 -148,2 -275,71 -350,197 -44,75 -65,162 -65,248 0,145 65,271 188,352 15,10 24,22 24,36 -1,41 -70,56 -102,56l-1254 0c-32,0 -101,-14 -101,-56 0,-42 69,-56 101,-56l403 0c149,0 254,-126 257,-266 2,-99 -56,-198 -166,-200 -89,-1 -169,70 -170,159 0,49 24,91 61,122 37,30 9,63 -27,77 -49,18 -110,12 -149,-22 -52,-46 -88,-107 -87,-177 0,-183 208,-270 368,-270 191,0 372,99 371,307 0,107 -48,200 -129,270l339 0c-84,-94 -129,-205 -130,-330 0,-108 27,-214 88,-305 113,-168 319,-254 530,-253 175,1 356,60 469,185z"/>
 </g>
</svg>
