<?xml version="1.0" encoding="UTF-8"?>
<!DOCTYPE svg PUBLIC "-//W3C//DTD SVG 1.1//EN" "http://www.w3.org/Graphics/SVG/1.1/DTD/svg11.dtd">
<!-- Creator: CorelDRAW X8 -->
<svg xmlns="http://www.w3.org/2000/svg" xml:space="preserve" width="3022px" height="1487px" version="1.1" style="shape-rendering:geometricPrecision; text-rendering:geometricPrecision; image-rendering:optimizeQuality; fill-rule:evenodd; clip-rule:evenodd"
viewBox="0 0 3022 1487"
 xmlns:xlink="http://www.w3.org/1999/xlink">
 <defs>
  <style type="text/css">
   <![CDATA[
    .fil0 {fill:#2B2A29;fill-rule:nonzero}
   ]]>
  </style>
 </defs>
 <g id="Layer_x0020_1">
  <metadata id="CorelCorpID_0Corel-Layer"/>
  <path class="fil0" d="M2305 1024c131,0 250,-55 319,-167 51,-83 74,-193 74,-290 0,-68 -9,-133 -31,-196 35,31 67,69 90,110 46,81 63,158 63,249 0,292 -200,467 -472,556 -248,81 -536,89 -795,89 -260,0 -545,-22 -791,-102 -131,-43 -250,-103 -345,-187 -148,-131 -214,-310 -214,-501 0,-193 63,-384 238,-489 18,-11 26,-25 26,-38 0,-15 -11,-30 -32,-41 -21,-11 -45,-16 -70,-16 -26,0 -52,6 -73,19 -207,125 -292,332 -292,564 0,216 79,417 248,565 113,98 255,169 410,220 281,92 597,118 895,118 292,0 618,-14 897,-105 318,-103 572,-306 572,-652 0,-94 -15,-173 -59,-258 -81,-158 -232,-257 -407,-286 -117,-125 -292,-186 -469,-186 -183,0 -372,63 -490,194 -80,90 -130,213 -130,359 0,126 47,243 130,336l-339 0c83,-69 131,-170 131,-276 0,-207 -181,-304 -373,-304 -161,0 -368,88 -368,270 0,95 76,206 178,206 20,0 40,-3 58,-10 24,-9 44,-26 44,-46 0,-10 -5,-21 -17,-31 -37,-30 -61,-71 -61,-119 1,-87 79,-159 166,-159 109,0 169,93 170,193 0,140 -106,276 -257,276l-402 0c-33,0 -102,14 -102,56 0,41 69,55 102,55l1254 0c32,0 101,-14 102,-55 0,-14 -9,-26 -24,-36 -122,-81 -188,-212 -188,-356 0,-104 28,-200 80,-275 81,-115 197,-167 336,-167 88,0 169,23 239,79 -122,21 -235,78 -311,176 -60,78 -92,178 -92,276 0,80 21,162 67,229 71,107 193,153 315,153zm0 -111c-54,-1 -98,-39 -126,-81 -37,-55 -53,-124 -53,-190 0,-83 24,-166 76,-233 52,-68 129,-112 217,-117 54,82 76,179 76,275 0,88 -16,178 -63,254 -27,44 -70,92 -127,92z"/>
 </g>
</svg>
