<?xml version="1.0" encoding="UTF-8"?>
<!DOCTYPE svg PUBLIC "-//W3C//DTD SVG 1.1//EN" "http://www.w3.org/Graphics/SVG/1.1/DTD/svg11.dtd">
<!-- Creator: CorelDRAW X8 -->
<svg xmlns="http://www.w3.org/2000/svg" xml:space="preserve" width="2688px" height="1486px" version="1.1" style="shape-rendering:geometricPrecision; text-rendering:geometricPrecision; image-rendering:optimizeQuality; fill-rule:evenodd; clip-rule:evenodd"
viewBox="0 0 2688 1486"
 xmlns:xlink="http://www.w3.org/1999/xlink">
 <defs>
  <style type="text/css">
   <![CDATA[
    .fil0 {fill:#996633;fill-rule:nonzero}
   ]]>
  </style>
 </defs>
 <g id="Layer_x0020_1">
  <metadata id="CorelCorpID_0Corel-Layer"/>
  <path class="fil0" d="M1991 289c-84,16 -161,54 -214,122 -51,67 -76,151 -76,235 0,66 14,128 52,184 28,42 72,80 126,81 57,1 102,-41 129,-85 44,-71 62,-160 63,-242 1,-100 -18,-214 -80,-295zm-326 -178c-143,2 -267,64 -344,183 -51,78 -74,170 -74,262 0,145 64,271 186,352 26,17 34,44 8,66 -21,19 -58,26 -86,26l-1253 0c-33,0 -102,-14 -102,-56 0,-42 69,-56 102,-56l402 0c151,0 259,-131 259,-272 -1,-99 -61,-194 -170,-194 -86,0 -164,71 -166,157 -1,49 24,93 61,124 13,10 18,20 18,30 0,20 -21,38 -45,47 -19,7 -38,10 -58,10 -33,0 -66,-11 -91,-32 -52,-46 -87,-106 -87,-175 -1,-185 208,-272 368,-272 190,0 370,98 372,304 0,108 -49,203 -132,273l339 0c-83,-94 -127,-205 -128,-329 0,-114 29,-224 96,-317 119,-167 323,-241 525,-242 170,-1 341,54 457,174 152,-4 339,28 455,132 75,66 115,167 110,266 -5,81 -40,154 -106,204 63,37 107,97 107,171 0,187 -186,243 -345,243l-2026 0c-53,0 -113,4 -112,70 2,66 58,68 112,68l2233 0c47,0 102,28 102,79 0,51 -55,79 -102,79l-2233 0c-143,0 -320,-34 -316,-209 3,-169 177,-198 316,-198l2026 0c80,0 149,-47 146,-132 -1,-46 -14,-72 -36,-88 -21,-14 -48,-17 -83,-20 -32,-3 -78,-18 -77,-59 2,-40 46,-52 79,-52 33,-1 56,-15 74,-36 29,-34 40,-87 42,-131 3,-89 -36,-156 -95,-203 -52,-41 -121,-66 -190,-73 52,95 72,191 70,299 -1,95 -24,188 -75,271 -70,113 -187,169 -320,168 -125,-1 -244,-49 -315,-154 -45,-67 -65,-143 -65,-223 0,-99 33,-199 93,-278 75,-99 188,-157 311,-177 -71,-57 -147,-81 -237,-80z"/>
 </g>
</svg>
