<?xml version="1.0" encoding="UTF-8"?>
<!DOCTYPE svg PUBLIC "-//W3C//DTD SVG 1.1//EN" "http://www.w3.org/Graphics/SVG/1.1/DTD/svg11.dtd">
<!-- Creator: CorelDRAW X8 -->
<svg xmlns="http://www.w3.org/2000/svg" xml:space="preserve" width="3021px" height="1486px" version="1.1" style="shape-rendering:geometricPrecision; text-rendering:geometricPrecision; image-rendering:optimizeQuality; fill-rule:evenodd; clip-rule:evenodd"
viewBox="0 0 3021 1486"
 xmlns:xlink="http://www.w3.org/1999/xlink">
 <defs>
  <style type="text/css">
   <![CDATA[
    .fil0 {fill:#5B5A50;fill-rule:nonzero}
   ]]>
  </style>
 </defs>
 <g id="Layer_x0020_1">
  <metadata id="CorelCorpID_0Corel-Layer"/>
  <path class="fil0" d="M2418 294c-88,5 -165,49 -217,118 -52,67 -76,151 -76,234 0,66 16,129 53,184 28,42 72,81 126,81 57,1 100,-48 127,-92 44,-71 62,-152 63,-235 2,-102 -20,-203 -76,-290zm-2126 -275c41,-25 100,-25 143,-3 39,20 45,55 6,79 -157,94 -229,273 -237,448 -10,206 55,402 213,542 94,84 214,144 345,187 257,85 554,104 824,103 244,-2 528,-14 761,-90 282,-92 486,-277 471,-588 -4,-75 -25,-151 -62,-217 -24,-41 -55,-79 -91,-110 24,69 33,141 32,214 -1,96 -23,188 -74,271 -70,113 -187,169 -320,168 -125,-1 -244,-49 -314,-154 -46,-67 -67,-143 -67,-223 0,-98 32,-199 92,-278 76,-99 189,-156 311,-177 -71,-57 -148,-81 -239,-80 -144,2 -269,68 -346,189 -48,77 -70,167 -70,256 0,145 65,271 188,352 27,18 33,45 8,66 -21,19 -58,26 -86,26l-1254 0c-32,0 -101,-14 -101,-56 0,-42 69,-56 101,-56l403 0c151,0 257,-130 257,-272 -1,-99 -61,-194 -170,-194 -87,1 -163,71 -166,157 -1,50 24,93 61,124 37,30 9,64 -27,77 -49,18 -110,12 -149,-22 -53,-46 -89,-108 -87,-179 2,-182 208,-268 368,-268 191,0 372,100 372,308 0,106 -48,199 -130,269l339 0c-83,-94 -129,-204 -130,-329 0,-120 32,-233 105,-329 120,-158 317,-229 512,-230 178,-1 351,53 472,186 176,28 325,126 406,285 35,68 54,144 58,223 18,367 -242,581 -571,688 -267,86 -583,103 -862,104 -307,2 -637,-22 -929,-118 -155,-51 -297,-121 -410,-220 -180,-158 -258,-375 -247,-608 11,-213 103,-408 291,-521z"/>
 </g>
</svg>
