<?xml version="1.0" encoding="UTF-8"?>
<!DOCTYPE svg PUBLIC "-//W3C//DTD SVG 1.1//EN" "http://www.w3.org/Graphics/SVG/1.1/DTD/svg11.dtd">
<!-- Creator: CorelDRAW X8 -->
<svg xmlns="http://www.w3.org/2000/svg" xml:space="preserve" width="3021px" height="1486px" version="1.1" style="shape-rendering:geometricPrecision; text-rendering:geometricPrecision; image-rendering:optimizeQuality; fill-rule:evenodd; clip-rule:evenodd"
viewBox="0 0 3021 1486"
 xmlns:xlink="http://www.w3.org/1999/xlink">
 <defs>
  <style type="text/css">
   <![CDATA[
    .fil0 {fill:#996633;fill-rule:nonzero}
   ]]>
  </style>
 </defs>
 <g id="Layer_x0020_1">
  <metadata id="CorelCorpID_0Corel-Layer"/>
  <path class="fil0" d="M2418 294c-88,5 -165,49 -217,117 -52,68 -76,152 -76,235 0,66 16,128 53,184 28,42 72,80 126,81 57,1 100,-48 127,-92 44,-71 62,-152 63,-235 2,-102 -20,-203 -76,-290zm-2126 -275c20,-12 47,-19 74,-19 25,0 50,6 69,16 21,11 33,26 33,41 0,14 -9,27 -27,38 -157,94 -229,273 -237,448 -10,206 55,402 213,542 95,84 214,144 345,187 257,84 554,104 824,102 244,-1 528,-13 761,-89 282,-92 486,-277 471,-588 -4,-75 -25,-151 -62,-217 -24,-42 -55,-79 -91,-110 24,69 33,141 32,214 -2,96 -23,188 -74,271 -70,113 -187,169 -320,168 -125,-1 -244,-49 -314,-154 -46,-67 -67,-143 -67,-223 0,-98 32,-199 92,-278 76,-99 189,-156 311,-177 -71,-57 -148,-81 -239,-80 -144,2 -269,68 -346,189 -48,77 -70,167 -70,256 0,145 65,271 188,352 27,18 33,45 8,66 -21,19 -58,26 -86,26l-1253 0c-33,0 -102,-14 -102,-56 0,-42 69,-56 102,-56l402 0c151,0 257,-130 257,-272 -1,-99 -61,-194 -170,-194 -87,1 -163,71 -166,157 -1,50 24,93 61,124 13,10 18,20 18,30 0,20 -21,38 -45,47 -18,7 -37,10 -57,10 -33,0 -67,-10 -92,-32 -53,-46 -88,-108 -87,-179 2,-182 208,-268 368,-268 191,0 372,100 372,307 0,107 -48,200 -130,270l339 0c-83,-94 -129,-204 -130,-329 0,-120 32,-233 105,-329 120,-158 317,-229 512,-230 177,-1 351,53 472,186 176,28 325,126 406,285 35,68 54,144 58,223 17,367 -243,581 -571,687 -267,87 -583,103 -862,105 -307,2 -637,-22 -929,-118 -155,-51 -297,-122 -410,-220 -180,-158 -258,-375 -247,-608 11,-213 104,-408 291,-521z"/>
 </g>
</svg>
