<?xml version="1.0" encoding="UTF-8"?>
<!DOCTYPE svg PUBLIC "-//W3C//DTD SVG 1.1//EN" "http://www.w3.org/Graphics/SVG/1.1/DTD/svg11.dtd">
<!-- Creator: CorelDRAW X8 -->
<svg xmlns="http://www.w3.org/2000/svg" xml:space="preserve" width="1651px" height="868px" version="1.1" style="shape-rendering:geometricPrecision; text-rendering:geometricPrecision; image-rendering:optimizeQuality; fill-rule:evenodd; clip-rule:evenodd"
viewBox="0 0 1651 868"
 xmlns:xlink="http://www.w3.org/1999/xlink">
 <defs>
  <style type="text/css">
   <![CDATA[
    .fil0 {fill:#A82682;fill-rule:nonzero}
   ]]>
  </style>
 </defs>
 <g id="Layer_x0020_1">
  <metadata id="CorelCorpID_0Corel-Layer"/>
  <path class="fil0" d="M1210 176c-45,5 -82,27 -110,62 -30,39 -45,91 -46,140 -1,34 5,67 20,97 14,29 39,55 74,55 37,0 62,-31 77,-61 18,-38 28,-85 29,-128 1,-58 -12,-116 -44,-165zm93 -75c92,-1 211,18 281,79 44,38 69,97 66,155 -3,47 -24,89 -63,118 37,22 64,56 64,100 0,33 -15,66 -40,88 -46,43 -117,55 -178,55l-1232 0c-29,0 -58,4 -57,39 1,35 28,37 57,37l1365 0c29,0 71,13 71,48 0,35 -42,48 -71,48l-1365 0c-85,0 -203,-16 -200,-123 2,-104 118,-118 200,-118l1232 0c29,0 55,-10 73,-29 9,-11 16,-24 19,-41 4,-30 -12,-62 -48,-65 -11,0 -29,-1 -44,-5 -18,-4 -32,-12 -31,-31 0,-18 16,-26 31,-30 14,-4 24,-2 37,-6 35,-12 48,-56 50,-88 2,-48 -28,-92 -67,-121 -26,-20 -63,-33 -96,-38 29,52 40,110 39,169 -1,56 -14,110 -44,158 -45,71 -120,100 -203,100 -77,-1 -153,-27 -199,-92 -27,-39 -40,-83 -40,-130 0,-58 20,-116 56,-162 45,-58 113,-91 185,-104 -39,-29 -82,-43 -131,-43 -79,1 -148,37 -192,100 -32,46 -48,101 -48,157 0,41 10,82 30,119 19,36 48,62 82,85 9,5 15,13 15,21 0,28 -51,35 -71,35l-764 0c-21,0 -72,-8 -72,-35 0,-27 51,-35 72,-35l241 0c84,0 144,-79 144,-156 0,-51 -34,-111 -91,-111 -47,1 -90,44 -90,91 0,28 15,52 37,70 28,22 -5,40 -28,46 -23,6 -49,5 -71,-3 -49,-17 -80,-63 -80,-115 2,-112 136,-158 231,-158 114,0 234,53 234,182 0,61 -29,114 -75,154l189 0c-22,-24 -40,-49 -53,-79 -15,-35 -22,-72 -22,-110 -1,-61 18,-120 50,-172 73,-115 199,-154 330,-155 103,-1 210,28 285,101z"/>
 </g>
</svg>
