<?xml version="1.0" encoding="UTF-8"?>
<!DOCTYPE svg PUBLIC "-//W3C//DTD SVG 1.1//EN" "http://www.w3.org/Graphics/SVG/1.1/DTD/svg11.dtd">
<!-- Creator: CorelDRAW X8 -->
<svg xmlns="http://www.w3.org/2000/svg" xml:space="preserve" width="1651px" height="868px" version="1.1" style="shape-rendering:geometricPrecision; text-rendering:geometricPrecision; image-rendering:optimizeQuality; fill-rule:evenodd; clip-rule:evenodd"
viewBox="0 0 1651 868"
 xmlns:xlink="http://www.w3.org/1999/xlink">
 <defs>
  <style type="text/css">
   <![CDATA[
    .fil0 {fill:#5B5A50;fill-rule:nonzero}
   ]]>
  </style>
 </defs>
 <g id="Layer_x0020_1">
  <metadata id="CorelCorpID_0Corel-Layer"/>
  <path class="fil0" d="M1210 176c-45,5 -82,27 -109,62 -31,39 -46,91 -47,140 -1,34 5,67 20,97 14,29 39,55 74,55 37,0 62,-30 77,-61 18,-38 28,-85 29,-127 1,-58 -12,-117 -44,-166zm94 -75c91,-1 210,18 280,79 45,38 69,97 66,155 -2,47 -24,90 -63,118 37,22 64,56 64,100 0,33 -15,66 -39,88 -47,43 -118,55 -179,55l-1232 0c-29,0 -58,4 -57,39 1,35 27,37 57,37l1365 0c29,0 71,13 71,48 0,35 -42,48 -71,48l-1365 0c-85,0 -203,-16 -201,-123 3,-104 119,-118 201,-118l1232 0c24,0 48,-13 64,-29 12,-12 22,-27 23,-45 0,-24 -15,-58 -42,-60 -18,-2 -28,0 -46,-6 -15,-4 -31,-14 -30,-31 0,-18 16,-26 31,-30 15,-4 25,-2 37,-6 35,-12 48,-56 50,-88 2,-48 -28,-92 -66,-121 -27,-20 -64,-33 -96,-38 28,52 39,110 38,169 -1,56 -14,110 -44,158 -45,71 -120,100 -203,100 -77,-1 -153,-27 -199,-92 -27,-39 -40,-83 -40,-130 0,-58 20,-116 56,-162 45,-58 113,-91 185,-104 -39,-29 -82,-43 -131,-43 -79,1 -148,37 -192,100 -32,46 -48,101 -48,157 0,41 10,82 30,119 19,36 48,62 83,85 14,9 21,24 6,37 -15,14 -43,19 -63,19l-765 0c-20,0 -71,-7 -71,-35 0,-27 51,-35 71,-35l242 0c83,0 144,-79 144,-156 -1,-50 -34,-111 -91,-111 -47,1 -90,45 -90,91 0,28 15,53 37,70 28,22 -5,40 -28,46 -16,4 -36,5 -53,2 -59,-10 -98,-62 -98,-120 1,-112 136,-158 231,-158 114,0 234,53 234,182 0,61 -29,114 -75,154l189 0c-22,-24 -40,-49 -53,-79 -15,-35 -22,-72 -23,-110 0,-61 19,-120 51,-172 73,-115 199,-154 330,-155 103,-1 210,28 286,101z"/>
 </g>
</svg>
