<?xml version="1.0" encoding="UTF-8"?>
<!DOCTYPE svg PUBLIC "-//W3C//DTD SVG 1.1//EN" "http://www.w3.org/Graphics/SVG/1.1/DTD/svg11.dtd">
<!-- Creator: CorelDRAW X8 -->
<svg xmlns="http://www.w3.org/2000/svg" xml:space="preserve" width="1585px" height="868px" version="1.1" style="shape-rendering:geometricPrecision; text-rendering:geometricPrecision; image-rendering:optimizeQuality; fill-rule:evenodd; clip-rule:evenodd"
viewBox="0 0 1585 868"
 xmlns:xlink="http://www.w3.org/1999/xlink">
 <defs>
  <style type="text/css">
   <![CDATA[
    .fil0 {fill:#5B5A50;fill-rule:nonzero}
   ]]>
  </style>
 </defs>
 <g id="Layer_x0020_1">
  <metadata id="CorelCorpID_0Corel-Layer"/>
  <path class="fil0" d="M1209 176c-50,6 -91,33 -118,75 -23,35 -35,79 -37,122 -2,35 4,75 20,107 15,28 39,53 74,53 36,1 60,-29 75,-58 19,-38 30,-91 30,-134 1,-58 -12,-116 -44,-165zm101 -68c47,8 92,23 131,46 93,55 146,154 144,261 -1,55 -18,110 -50,155 -66,92 -174,125 -283,125l-1052 0c-28,0 -57,4 -56,39 1,35 27,37 56,37l1282 0c30,0 72,14 72,49 0,34 -42,48 -72,48l-1282 0c-84,0 -202,-18 -200,-125 3,-103 117,-117 200,-117l1052 0c63,0 114,-30 150,-81 26,-38 40,-85 41,-131 1,-61 -15,-128 -58,-169 8,32 11,64 11,96 -1,57 -14,114 -45,162 -45,71 -120,101 -202,100 -78,-1 -154,-27 -199,-91 -27,-39 -40,-87 -40,-134 0,-58 19,-117 55,-162 46,-58 113,-91 185,-104 -39,-29 -81,-43 -131,-43 -73,1 -139,32 -184,90 -37,48 -55,107 -55,166 0,42 9,83 29,120 20,36 48,62 83,84 14,10 21,25 7,38 -15,14 -44,19 -64,19l-764 0c-20,0 -71,-8 -71,-35 0,-28 51,-35 71,-35l242 0c83,0 144,-79 143,-156 0,-50 -33,-111 -90,-111 -47,1 -90,44 -90,90 0,28 15,53 36,71 28,22 -4,43 -27,49 -16,4 -36,5 -53,3 -59,-11 -98,-65 -98,-123 0,-114 138,-159 233,-159 113,1 231,54 231,182 0,61 -28,114 -74,154l189 0c-22,-25 -40,-49 -53,-79 -15,-35 -23,-72 -23,-110 0,-81 33,-162 89,-221 76,-79 184,-105 291,-106 107,-1 218,30 293,108z"/>
 </g>
</svg>
