<?xml version="1.0" encoding="UTF-8"?>
<!DOCTYPE svg PUBLIC "-//W3C//DTD SVG 1.1//EN" "http://www.w3.org/Graphics/SVG/1.1/DTD/svg11.dtd">
<!-- Creator: CorelDRAW X8 -->
<svg xmlns="http://www.w3.org/2000/svg" xml:space="preserve" width="1592px" height="868px" version="1.1" style="shape-rendering:geometricPrecision; text-rendering:geometricPrecision; image-rendering:optimizeQuality; fill-rule:evenodd; clip-rule:evenodd"
viewBox="0 0 1592 868"
 xmlns:xlink="http://www.w3.org/1999/xlink">
 <defs>
  <style type="text/css">
   <![CDATA[
    .fil0 {fill:#996633;fill-rule:nonzero}
   ]]>
  </style>
 </defs>
 <g id="Layer_x0020_1">
  <metadata id="CorelCorpID_0Corel-Layer"/>
  <path class="fil0" d="M1210 176c-46,5 -83,27 -111,63 -29,37 -43,87 -45,134 -1,33 3,66 17,96 14,32 40,61 77,61 39,0 64,-33 78,-64 18,-38 27,-83 27,-124 1,-59 -11,-117 -43,-166zm-65 542c-29,0 -63,3 -90,13 -13,4 -33,14 -33,29 0,15 20,26 32,30 28,10 62,13 91,13 25,0 51,-2 75,-9 15,-4 44,-15 44,-34 0,-18 -29,-29 -43,-33 -25,-7 -51,-9 -76,-9zm172 -603c84,18 158,62 208,132 52,74 72,166 66,255 -8,120 -66,236 -172,300 -46,27 -100,44 -152,54 -40,8 -81,11 -121,12 -47,1 -97,-4 -142,-16 -43,-10 -116,-39 -116,-92 0,-53 76,-82 119,-92 45,-11 92,-15 138,-15 42,0 84,3 125,13 36,8 84,24 110,52 59,-60 73,-149 77,-226 3,-83 -15,-167 -66,-221 4,23 5,47 5,71 -1,56 -14,110 -44,158 -45,71 -120,101 -203,100 -77,-1 -154,-27 -199,-92 -27,-39 -40,-83 -40,-130 0,-58 19,-116 55,-162 46,-58 114,-91 186,-104 -39,-29 -82,-43 -132,-43 -66,1 -127,27 -172,76 -45,49 -67,115 -67,181 0,62 22,119 65,165 14,14 30,27 47,39 15,9 21,24 7,38 -15,14 -43,18 -63,18l-765 0c-20,0 -71,-7 -71,-35 0,-27 51,-35 71,-35l242 0c83,0 144,-79 143,-156 0,-51 -33,-111 -90,-111 -47,1 -90,43 -90,90 0,28 15,53 36,71 8,6 11,12 11,17 0,14 -21,25 -38,29 -10,3 -21,4 -31,4 -8,0 -15,-1 -22,-2 -59,-10 -98,-61 -98,-119 0,-114 138,-159 233,-159 114,1 231,54 231,182 0,61 -28,115 -74,155l189 0c-48,-55 -75,-118 -76,-190 0,-86 38,-175 102,-234 75,-69 178,-92 279,-93 110,-1 223,32 299,115z"/>
 </g>
</svg>
