<?xml version="1.0" encoding="UTF-8"?>
<!DOCTYPE svg PUBLIC "-//W3C//DTD SVG 1.1//EN" "http://www.w3.org/Graphics/SVG/1.1/DTD/svg11.dtd">
<!-- Creator: CorelDRAW X8 -->
<svg xmlns="http://www.w3.org/2000/svg" xml:space="preserve" width="2599px" height="1486px" version="1.1" style="shape-rendering:geometricPrecision; text-rendering:geometricPrecision; image-rendering:optimizeQuality; fill-rule:evenodd; clip-rule:evenodd"
viewBox="0 0 2599 1486"
 xmlns:xlink="http://www.w3.org/1999/xlink">
 <defs>
  <style type="text/css">
   <![CDATA[
    .fil0 {fill:#5B5A50;fill-rule:nonzero}
   ]]>
  </style>
 </defs>
 <g id="Layer_x0020_1">
  <metadata id="CorelCorpID_0Corel-Layer"/>
  <path class="fil0" d="M1871 1229c-52,0 -117,4 -166,23 -21,8 -56,26 -56,52 -1,27 34,45 56,54 49,19 113,23 166,23 46,0 94,-3 139,-16 26,-8 77,-28 77,-61 0,-32 -50,-51 -76,-59 -45,-13 -94,-16 -140,-16zm-626 -673c0,145 66,272 188,353 27,17 33,44 8,66 -21,18 -58,26 -86,26l-1253 0c-33,0 -102,-15 -102,-56 0,-42 69,-56 102,-56l402 0c151,0 257,-131 257,-273 -1,-97 -59,-192 -166,-194 -90,-1 -168,70 -170,159 -1,49 24,91 61,122 37,30 9,64 -28,77 -48,18 -109,12 -148,-22 -53,-46 -88,-107 -88,-177 2,-183 208,-270 369,-270 191,0 371,100 371,308 0,106 -47,200 -129,270l339 0c-83,-95 -129,-205 -130,-330 -1,-117 30,-228 100,-323 119,-162 320,-235 517,-236 183,-1 360,56 481,196 323,69 477,354 457,664 -13,203 -108,404 -286,515 -74,46 -163,75 -248,92 -63,12 -128,18 -192,19 -72,1 -152,-7 -222,-25 -72,-19 -189,-69 -189,-157 1,-89 121,-138 194,-157 70,-17 145,-23 217,-23 66,0 132,5 196,20 65,15 160,50 195,111 93,-105 135,-258 139,-396 4,-156 -38,-340 -151,-456 16,59 23,120 22,181 -2,96 -23,189 -74,271 -69,114 -187,170 -320,169 -125,-2 -243,-50 -314,-155 -46,-67 -67,-143 -67,-223 0,-98 32,-199 92,-278 76,-99 189,-156 311,-177 -71,-57 -149,-81 -241,-80 -142,2 -264,66 -341,185 -50,78 -73,169 -73,260zm748 -262c-88,5 -165,49 -218,118 -51,67 -75,151 -75,234 0,66 16,129 53,185 29,41 72,80 126,80 57,1 100,-47 127,-91 44,-72 62,-153 63,-236 2,-102 -20,-203 -76,-290z"/>
 </g>
</svg>
