<?xml version="1.0" encoding="UTF-8"?>
<!DOCTYPE svg PUBLIC "-//W3C//DTD SVG 1.1//EN" "http://www.w3.org/Graphics/SVG/1.1/DTD/svg11.dtd">
<!-- Creator: CorelDRAW X8 -->
<svg xmlns="http://www.w3.org/2000/svg" xml:space="preserve" width="1548px" height="1024px" version="1.1" style="shape-rendering:geometricPrecision; text-rendering:geometricPrecision; image-rendering:optimizeQuality; fill-rule:evenodd; clip-rule:evenodd"
viewBox="0 0 1548 1024"
 xmlns:xlink="http://www.w3.org/1999/xlink">
 <defs>
  <style type="text/css">
   <![CDATA[
    .fil0 {fill:#996633;fill-rule:nonzero}
   ]]>
  </style>
 </defs>
 <g id="Layer_x0020_1">
  <metadata id="CorelCorpID_0Corel-Layer"/>
  <path class="fil0" d="M948 834c-68,49 -140,89 -218,122 -104,44 -213,67 -327,68 -65,0 -132,-5 -195,-20 -109,-26 -200,-88 -205,-207 -5,-116 71,-169 177,-196 117,-30 269,-25 442,-19 96,3 191,6 287,3 90,-2 173,-10 235,-28 55,-16 107,-42 144,-87 37,-43 57,-95 58,-151 0,-57 -20,-116 -63,-155 -41,-37 -94,-52 -148,-52 -121,-1 -203,81 -203,198l0 186c0,41 -69,55 -102,55 -32,0 -100,-14 -100,-55l0 -186c0,-77 -35,-136 -106,-170 -45,-21 -107,-27 -156,-29 -64,-2 -148,3 -205,35 9,-1 18,-1 27,-1 120,0 249,74 249,203 0,137 -138,203 -262,203 -73,0 -153,-16 -208,-65 -49,-43 -69,-102 -69,-166 0,-92 35,-170 111,-226 97,-72 239,-93 358,-94 120,0 267,15 362,94 82,-69 203,-94 308,-93 112,0 232,30 316,105 62,55 94,131 93,213 -1,72 -29,142 -76,198 -21,26 -47,48 -75,67 86,38 150,107 151,203 1,159 -164,235 -307,237 -128,1 -264,-56 -293,-190zm183 -40c2,60 40,120 107,118 70,-1 107,-63 107,-125 1,-60 -36,-122 -104,-123 -75,0 -112,64 -110,130zm-852 -354c51,0 81,-46 81,-92 0,-48 -31,-91 -83,-91 -52,-1 -83,43 -83,91 0,49 32,92 85,92zm636 257c-101,2 -202,-2 -302,-5 -155,-5 -291,-9 -354,13 -36,14 -58,56 -59,92 -2,59 39,94 95,105 36,8 72,12 109,13 86,1 165,-19 242,-55 93,-43 190,-98 269,-163z"/>
 </g>
</svg>
