<?xml version="1.0" encoding="UTF-8"?>
<!DOCTYPE svg PUBLIC "-//W3C//DTD SVG 1.1//EN" "http://www.w3.org/Graphics/SVG/1.1/DTD/svg11.dtd">
<!-- Creator: CorelDRAW X8 -->
<svg xmlns="http://www.w3.org/2000/svg" xml:space="preserve" width="1092px" height="868px" version="1.1" style="shape-rendering:geometricPrecision; text-rendering:geometricPrecision; image-rendering:optimizeQuality; fill-rule:evenodd; clip-rule:evenodd"
viewBox="0 0 1092 868"
 xmlns:xlink="http://www.w3.org/1999/xlink">
 <defs>
  <style type="text/css">
   <![CDATA[
    .fil0 {fill:#669933;fill-rule:nonzero}
   ]]>
  </style>
 </defs>
 <g id="Layer_x0020_1">
  <metadata id="CorelCorpID_0Corel-Layer"/>
  <path class="fil0" d="M569 491c-45,31 -92,56 -141,75 -68,25 -140,37 -216,34 -47,-2 -103,-10 -144,-31 -40,-21 -64,-53 -66,-100 -3,-63 42,-96 103,-113 89,-23 211,-13 270,-11 56,2 113,4 170,2 54,-1 122,-5 174,-30 52,-24 88,-73 89,-131 0,-35 -13,-71 -40,-95 -23,-21 -55,-32 -87,-32 -37,0 -67,14 -87,35 -23,23 -34,55 -34,87l0 110c0,23 -45,29 -62,29 -17,0 -60,-6 -60,-30l0 -109c0,-32 -10,-61 -33,-82 -32,-31 -81,-38 -125,-40 -24,-1 -57,0 -86,8 -16,5 -32,11 -44,20 8,-1 16,-1 24,-1 38,0 76,11 104,30 28,21 46,51 46,87 0,36 -16,63 -40,82 -31,24 -75,35 -117,35 -49,0 -95,-11 -126,-37 -25,-21 -41,-53 -41,-96 0,-55 21,-100 65,-132 59,-43 146,-55 217,-55 71,0 160,8 217,54 50,-40 123,-54 185,-54 67,1 141,17 192,62 36,32 55,76 54,124 -1,46 -21,91 -53,124 52,1 109,11 151,43 42,33 64,84 64,137 0,48 -17,90 -51,123 -61,58 -162,78 -243,78l-606 0c-32,0 -67,7 -66,46 1,39 34,44 66,44l810 0c26,0 61,13 61,44 0,31 -35,43 -61,43l-810 0c-43,0 -93,-4 -132,-24 -35,-17 -59,-47 -58,-97 1,-37 16,-66 47,-85 31,-20 78,-30 143,-30l606 0c92,0 185,-42 185,-142 0,-54 -45,-119 -105,-123 10,7 19,16 26,25 16,19 26,43 26,71 0,41 -19,73 -48,96 -35,27 -85,41 -136,42 -49,0 -96,-12 -129,-36 -24,-18 -41,-43 -48,-74zm110 -28c0,23 7,45 24,61 14,12 28,18 42,17 15,-1 30,-8 42,-22 14,-14 21,-36 20,-57 0,-21 -7,-42 -22,-57 -13,-11 -26,-17 -40,-18 -16,0 -31,7 -45,20 -12,13 -20,32 -21,56zm-511 -202c14,0 28,-10 37,-21 7,-10 11,-22 11,-37 0,-16 -5,-28 -12,-38 -9,-11 -23,-20 -37,-20 -14,0 -28,9 -36,19 -10,11 -14,26 -14,40 0,13 4,25 11,35 9,12 25,22 40,22zm387 145c-27,1 -54,1 -82,0 -34,0 -68,-1 -99,-2 -37,-1 -109,-6 -164,-1 -43,3 -88,13 -89,66 -2,53 51,70 95,73 57,4 113,-9 165,-31 36,-15 71,-34 104,-54 25,-16 49,-33 70,-51z"/>
 </g>
</svg>
