<?xml version="1.0" encoding="UTF-8"?>
<!DOCTYPE svg PUBLIC "-//W3C//DTD SVG 1.1//EN" "http://www.w3.org/Graphics/SVG/1.1/DTD/svg11.dtd">
<!-- Creator: CorelDRAW X8 -->
<svg xmlns="http://www.w3.org/2000/svg" xml:space="preserve" width="1923px" height="1486px" version="1.1" style="shape-rendering:geometricPrecision; text-rendering:geometricPrecision; image-rendering:optimizeQuality; fill-rule:evenodd; clip-rule:evenodd"
viewBox="0 0 1923 1486"
 xmlns:xlink="http://www.w3.org/1999/xlink">
 <defs>
  <style type="text/css">
   <![CDATA[
    .fil0 {fill:#996633;fill-rule:nonzero}
   ]]>
  </style>
 </defs>
 <g id="Layer_x0020_1">
  <metadata id="CorelCorpID_0Corel-Layer"/>
  <path class="fil0" d="M948 835c-68,49 -140,89 -218,121 -104,44 -214,67 -328,68 -64,1 -131,-5 -194,-20 -110,-26 -200,-87 -205,-207 -5,-116 71,-169 177,-196 116,-29 269,-25 442,-19 95,3 191,6 287,4 90,-3 172,-10 235,-29 55,-16 107,-42 144,-86 37,-44 57,-96 58,-152 0,-57 -20,-116 -64,-155 -40,-36 -94,-52 -148,-52 -120,-1 -202,81 -202,198l0 186c0,41 -69,55 -102,55 -32,0 -100,-14 -100,-55l0 -186c0,-77 -35,-135 -107,-169 -44,-22 -107,-28 -155,-30 -64,-2 -148,3 -205,35 9,-1 18,-1 26,-1 120,0 250,74 250,203 0,137 -139,203 -262,203 -73,0 -153,-16 -208,-65 -50,-43 -69,-102 -69,-166 0,-92 35,-170 111,-226 97,-72 239,-93 358,-94 120,0 267,15 362,94 82,-69 203,-93 308,-93 111,0 232,30 316,105 62,55 94,131 93,213 -2,69 -27,136 -70,191 26,-3 59,-5 83,-5 60,-1 124,4 182,21 91,26 161,80 168,179 3,55 -21,106 -63,142 47,32 77,79 75,137 -2,54 -24,101 -66,136 -62,51 -154,71 -232,71l-1309 0c-53,0 -113,4 -112,70 2,66 58,66 112,66l1458 0c47,0 102,28 102,80 0,51 -55,79 -101,79l-1459 0c-142,0 -320,-33 -316,-208 4,-170 177,-199 316,-199l1309 0c52,0 122,-43 124,-95 2,-48 -22,-80 -70,-77 -41,2 -91,-6 -91,-57 1,-45 46,-52 83,-52 50,0 69,-40 65,-87 -5,-78 -112,-92 -175,-94 -30,-1 -68,1 -100,4 52,40 86,96 87,166 1,159 -164,235 -307,237 -129,2 -264,-56 -293,-189zm183 -41c2,61 40,120 107,118 69,-1 107,-63 107,-125 0,-60 -37,-122 -104,-122 -75,-1 -113,63 -110,129zm-852 -354c51,0 81,-46 81,-92 0,-47 -31,-91 -83,-91 -52,0 -84,43 -84,91 0,49 33,92 86,92zm636 257c-101,2 -202,-2 -302,-5 -155,-5 -291,-9 -354,13 -36,14 -58,56 -59,92 -2,59 39,94 95,105 36,8 72,12 109,13 85,1 165,-19 242,-55 93,-43 190,-97 269,-163z"/>
 </g>
</svg>
