<?xml version="1.0" encoding="UTF-8"?>
<!DOCTYPE svg PUBLIC "-//W3C//DTD SVG 1.1//EN" "http://www.w3.org/Graphics/SVG/1.1/DTD/svg11.dtd">
<!-- Creator: CorelDRAW X8 -->
<svg xmlns="http://www.w3.org/2000/svg" xml:space="preserve" width="1924px" height="1486px" version="1.1" style="shape-rendering:geometricPrecision; text-rendering:geometricPrecision; image-rendering:optimizeQuality; fill-rule:evenodd; clip-rule:evenodd"
viewBox="0 0 1924 1487"
 xmlns:xlink="http://www.w3.org/1999/xlink">
 <defs>
  <style type="text/css">
   <![CDATA[
    .fil0 {fill:#2B2A29;fill-rule:nonzero}
   ]]>
  </style>
 </defs>
 <g id="Layer_x0020_1">
  <metadata id="CorelCorpID_0Corel-Layer"/>
  <path class="fil0" d="M1549 788c0,-69 -35,-126 -88,-167 33,-2 67,-4 101,-4 76,0 176,16 176,106 0,42 -20,75 -66,75 -37,0 -82,7 -83,52 0,47 42,57 80,57 54,0 81,17 81,74 0,57 -74,99 -124,99l-1310 0c-139,0 -316,28 -316,205 0,170 176,202 316,202l1460 0c46,0 101,-28 101,-79 0,-52 -55,-80 -102,-80l-1459 0c-51,0 -112,0 -112,-68 0,-64 59,-68 112,-68l1310 0c78,0 170,-20 232,-72 43,-35 66,-85 66,-141 0,-56 -29,-101 -75,-132 40,-34 63,-81 63,-133 0,-102 -77,-162 -168,-188 -53,-16 -112,-21 -168,-21 -32,0 -65,1 -97,5 43,-55 70,-124 70,-195 0,-80 -32,-155 -93,-209 -84,-75 -204,-105 -316,-105 -107,0 -225,22 -308,93 -96,-79 -254,-94 -374,-94 -119,0 -250,22 -347,94 -76,56 -111,134 -111,226 0,64 20,123 69,166 55,49 135,65 208,65 124,0 262,-66 262,-203 0,-129 -129,-203 -249,-203 -9,0 -18,0 -27,1 50,-28 135,-35 195,-35 58,0 115,5 166,29 71,34 106,93 106,170l0 186c0,41 68,55 100,55 34,0 102,-14 102,-55l0 -186c0,-116 82,-198 202,-198 55,0 108,14 150,52 43,39 63,98 63,155 -1,56 -21,108 -58,151 -37,45 -89,71 -145,87 -96,28 -217,29 -319,29 -68,0 -135,-2 -203,-4 -68,-2 -132,-5 -193,-5 -94,0 -178,6 -249,24 -103,26 -177,77 -177,185 0,127 92,191 205,218 63,16 130,20 195,20 114,0 223,-24 327,-68 78,-33 150,-73 218,-122 30,133 164,190 291,190 139,0 310,-74 310,-236zm-1270 -348c-53,0 -85,-43 -85,-92 0,-49 31,-91 83,-91 52,0 83,43 83,91 0,46 -30,92 -81,92zm957 472c-67,0 -104,-62 -104,-123 0,-64 36,-125 110,-125 67,1 104,61 104,121 0,67 -38,127 -110,127zm-826 3c-38,0 -78,-4 -115,-13 -55,-11 -95,-43 -95,-103 0,-37 24,-80 59,-94 37,-13 100,-17 177,-17 53,0 114,2 177,4 81,2 163,6 245,6l58 -1c-80,65 -177,120 -270,163 -75,35 -152,55 -236,55z"/>
 </g>
</svg>
