<?xml version="1.0" encoding="UTF-8"?>
<!DOCTYPE svg PUBLIC "-//W3C//DTD SVG 1.1//EN" "http://www.w3.org/Graphics/SVG/1.1/DTD/svg11.dtd">
<!-- Creator: CorelDRAW X8 -->
<svg xmlns="http://www.w3.org/2000/svg" xml:space="preserve" width="1866px" height="1486px" version="1.1" style="shape-rendering:geometricPrecision; text-rendering:geometricPrecision; image-rendering:optimizeQuality; fill-rule:evenodd; clip-rule:evenodd"
viewBox="0 0 1866 1486"
 xmlns:xlink="http://www.w3.org/1999/xlink">
 <defs>
  <style type="text/css">
   <![CDATA[
    .fil0 {fill:#996633;fill-rule:nonzero}
   ]]>
  </style>
 </defs>
 <g id="Layer_x0020_1">
  <metadata id="CorelCorpID_0Corel-Layer"/>
  <path class="fil0" d="M948 834c-68,49 -140,89 -218,122 -105,44 -214,67 -328,68 -64,0 -131,-5 -194,-20 -110,-26 -201,-88 -205,-207 -5,-116 71,-169 177,-196 116,-30 268,-25 442,-19 95,3 191,6 287,3 89,-2 172,-10 235,-28 55,-16 107,-42 144,-87 36,-43 57,-95 58,-151 0,-57 -20,-116 -64,-155 -40,-37 -94,-52 -148,-52 -120,-1 -202,81 -202,198l-1 186c0,41 -68,55 -101,55 -32,0 -101,-14 -100,-55l0 -186c0,-77 -35,-136 -107,-170 -44,-21 -107,-27 -155,-29 -64,-2 -148,3 -205,35 9,-1 18,-1 26,-1 120,0 250,74 250,203 0,137 -139,203 -262,203 -73,0 -153,-16 -208,-65 -50,-43 -69,-102 -69,-166 0,-92 35,-170 111,-226 97,-72 239,-93 358,-94 120,0 267,15 362,94 82,-69 203,-94 308,-93 111,0 232,30 316,105 62,55 94,131 93,213 -2,72 -29,142 -76,198 -2,3 -5,5 -7,8 110,10 215,51 287,117 71,67 115,160 114,274 -1,133 -71,255 -170,342 -129,114 -304,172 -473,201 -59,10 -119,17 -179,21 -71,5 -142,7 -212,5 -84,-2 -178,-10 -256,-38 -71,-25 -154,-87 -152,-168 0,-50 32,-88 73,-114 49,-30 118,-42 175,-42 53,0 112,10 159,35 46,-25 105,-35 158,-35 57,0 126,12 175,42 41,26 74,64 74,114 0,26 -9,51 -23,73 113,-29 222,-76 309,-153 81,-72 138,-174 140,-283 1,-75 -25,-150 -73,-205 -27,-32 -67,-57 -108,-71 39,38 64,87 65,147 1,159 -164,235 -307,237 -129,1 -264,-56 -293,-190zm-118 552c58,0 129,-3 182,-27 35,-15 59,-41 58,-80 -2,-41 -46,-59 -82,-59 -47,0 -66,42 -67,83 0,40 -59,52 -91,52 -31,-1 -90,-12 -90,-52 0,-41 -20,-83 -67,-83 -37,0 -80,18 -81,59 -2,39 23,65 57,80 53,24 124,27 181,27zm300 -592c2,60 41,120 108,118 69,-1 107,-63 107,-125 0,-60 -37,-122 -104,-123 -75,0 -113,64 -111,130zm-851 -354c50,0 81,-46 81,-92 0,-48 -31,-91 -83,-91 -52,-1 -84,43 -84,91 0,49 33,92 86,92zm636 257c-101,2 -202,-2 -302,-5 -155,-5 -292,-9 -354,13 -37,14 -59,56 -59,92 -2,59 39,94 95,105 36,8 72,12 109,13 85,1 165,-19 241,-55 93,-43 191,-98 270,-163z"/>
 </g>
</svg>
