<?xml version="1.0" encoding="UTF-8"?>
<!DOCTYPE svg PUBLIC "-//W3C//DTD SVG 1.1//EN" "http://www.w3.org/Graphics/SVG/1.1/DTD/svg11.dtd">
<!-- Creator: CorelDRAW X8 -->
<svg xmlns="http://www.w3.org/2000/svg" xml:space="preserve" width="3169px" height="1024px" version="1.1" style="shape-rendering:geometricPrecision; text-rendering:geometricPrecision; image-rendering:optimizeQuality; fill-rule:evenodd; clip-rule:evenodd"
viewBox="0 0 3169 1024"
 xmlns:xlink="http://www.w3.org/1999/xlink">
 <defs>
  <style type="text/css">
   <![CDATA[
    .fil0 {fill:#A82682;fill-rule:nonzero}
   ]]>
  </style>
 </defs>
 <g id="Layer_x0020_1">
  <metadata id="CorelCorpID_0Corel-Layer"/>
  <path class="fil0" d="M2570 834c-68,49 -141,89 -218,122 -105,44 -214,67 -328,68 -64,0 -132,-5 -194,-20 -110,-26 -201,-88 -206,-207 -4,-116 72,-169 177,-196 117,-30 269,-25 442,-19 96,3 192,6 287,3 90,-2 173,-10 236,-28 55,-16 107,-42 144,-87 36,-43 57,-95 57,-151 1,-57 -19,-116 -63,-155 -41,-37 -94,-52 -148,-52 -121,-1 -202,81 -203,198l0 186c0,41 -69,55 -101,55 -33,0 -101,-14 -101,-55l0 -186c1,-77 -35,-136 -106,-170 -44,-21 -107,-27 -156,-29 -64,-2 -148,3 -205,35 9,-1 18,-1 27,-1 120,0 249,74 249,203 0,137 -138,203 -262,203 -59,0 -122,-10 -174,-41 -74,164 -199,299 -360,382 -139,72 -316,104 -471,119 -98,9 -198,13 -296,13 -115,-1 -248,-6 -359,-34 -110,-27 -247,-82 -234,-215 16,-166 203,-187 338,-195 110,-7 225,0 335,4 157,5 405,14 529,-52 79,-42 139,-123 140,-213 0,-57 -20,-116 -64,-155 -40,-37 -94,-52 -148,-52 -121,-1 -202,81 -202,198l-1 186c0,41 -68,55 -101,55 -32,0 -101,-14 -101,-55l1 -186c0,-77 -35,-136 -107,-170 -44,-21 -107,-27 -155,-29 -64,-2 -148,3 -205,35 9,-1 18,-1 26,-1 120,0 250,74 250,203 0,137 -139,203 -262,203 -73,0 -153,-16 -209,-65 -49,-43 -68,-102 -68,-166 0,-92 34,-170 111,-226 97,-72 239,-93 358,-94 120,0 267,15 362,94 82,-69 202,-94 308,-93 111,0 232,30 316,105 62,55 94,131 93,213 -3,130 -88,232 -201,292 -185,98 -469,89 -679,82 -102,-4 -207,-9 -308,-3 -62,4 -146,15 -154,90 -6,68 58,95 115,109 86,21 188,25 276,25 91,1 182,-4 272,-13 135,-14 298,-41 418,-104 210,-109 305,-296 337,-520 12,-91 60,-155 134,-200 96,-59 224,-77 332,-77 121,0 268,15 363,94 82,-69 202,-94 308,-93 111,0 232,30 316,105 62,55 94,131 92,213 -1,72 -29,142 -75,198 -22,26 -48,48 -76,67 87,38 151,107 151,203 1,159 -164,235 -306,237 -129,1 -265,-56 -293,-190zm-2291 -394c50,0 81,-46 81,-92 0,-48 -31,-91 -83,-91 -52,-1 -84,43 -84,91 0,49 33,92 86,92zm2473 354c2,60 41,120 108,118 69,-1 106,-63 107,-125 0,-60 -37,-122 -105,-123 -74,0 -112,64 -110,130zm-851 -354c50,0 81,-46 81,-92 0,-48 -31,-91 -83,-91 -52,-1 -84,43 -84,91 0,49 33,92 86,92zm635 257c-100,2 -201,-2 -302,-5 -155,-5 -291,-9 -353,13 -37,14 -59,56 -60,92 -1,59 39,94 95,105 36,8 73,12 109,13 86,1 165,-19 242,-55 93,-43 191,-98 269,-163z"/>
 </g>
</svg>
