<?xml version="1.0" encoding="UTF-8"?>
<!DOCTYPE svg PUBLIC "-//W3C//DTD SVG 1.1//EN" "http://www.w3.org/Graphics/SVG/1.1/DTD/svg11.dtd">
<!-- Creator: CorelDRAW X8 -->
<svg xmlns="http://www.w3.org/2000/svg" xml:space="preserve" width="1143px" height="868px" version="1.1" style="shape-rendering:geometricPrecision; text-rendering:geometricPrecision; image-rendering:optimizeQuality; fill-rule:evenodd; clip-rule:evenodd"
viewBox="0 0 1143 868"
 xmlns:xlink="http://www.w3.org/1999/xlink">
 <defs>
  <style type="text/css">
   <![CDATA[
    .fil0 {fill:#A82682;fill-rule:nonzero}
   ]]>
  </style>
 </defs>
 <g id="Layer_x0020_1">
  <metadata id="CorelCorpID_0Corel-Layer"/>
  <path class="fil0" d="M572 500c-40,26 -83,48 -128,65 -72,26 -147,37 -223,35 -49,-2 -106,-10 -150,-33 -42,-21 -67,-54 -69,-101 -3,-68 49,-100 109,-116 78,-20 179,-16 244,-13 66,3 134,5 200,4 55,-2 118,-5 168,-29 50,-23 84,-69 85,-124 0,-34 -12,-68 -38,-90 -22,-19 -50,-29 -79,-29 -30,0 -57,10 -79,32 -21,22 -32,52 -32,82l0 108c0,27 -51,34 -71,34 -21,0 -71,-7 -71,-35l0 -107c0,-30 -9,-57 -32,-78 -24,-23 -71,-35 -118,-37 -39,-2 -77,3 -102,14 37,1 78,11 109,32 31,21 49,51 49,88 0,34 -15,61 -42,82 -34,26 -83,37 -125,37 -46,0 -99,-9 -135,-39 -30,-25 -42,-58 -42,-96 0,-55 22,-97 67,-130 61,-43 151,-56 225,-56 71,0 158,8 217,49 52,-36 123,-49 185,-49 37,1 77,5 114,17 32,10 61,25 86,46 37,32 57,77 56,125 -1,44 -19,86 -48,118 59,8 128,26 174,65 50,42 68,100 67,164 -1,78 -46,149 -104,199 -82,70 -192,103 -296,120 -77,11 -155,15 -233,14 -47,-1 -95,-5 -140,-16 -43,-11 -116,-40 -116,-93 1,-53 76,-82 119,-92 45,-11 92,-15 138,-15 42,0 84,4 125,13 46,10 128,38 128,94 0,7 -1,13 -3,20 56,-17 110,-42 154,-80 48,-41 84,-100 85,-164 1,-43 -10,-89 -40,-122 -10,-11 -28,-25 -44,-33 22,22 34,49 34,80 0,40 -19,72 -50,97 -40,30 -95,42 -144,43 -47,0 -99,-10 -137,-37 -22,-17 -38,-38 -47,-63zm-61 218c-29,0 -63,2 -90,12 -12,4 -32,14 -33,29 0,16 20,26 33,31 27,10 61,12 90,12 25,0 51,-2 75,-9 15,-4 44,-15 44,-34 0,-18 -28,-28 -43,-32 -24,-7 -50,-9 -76,-9zm188 -258c0,30 20,72 56,71 33,-2 53,-43 52,-72 0,-29 -20,-67 -53,-68 -34,-1 -54,39 -55,69zm-521 -208c24,0 39,-24 39,-50 0,-25 -14,-50 -40,-50 -26,0 -40,25 -40,50 1,26 15,50 41,50zm368 158c-62,0 -125,-1 -186,-4 -39,-1 -95,-3 -138,0 -41,3 -80,11 -81,60 -1,48 45,63 86,66 55,3 108,-9 158,-30 36,-14 70,-32 102,-52 21,-12 40,-26 59,-40z"/>
 </g>
</svg>
