<?xml version="1.0" encoding="UTF-8"?>
<!DOCTYPE svg PUBLIC "-//W3C//DTD SVG 1.1//EN" "http://www.w3.org/Graphics/SVG/1.1/DTD/svg11.dtd">
<!-- Creator: CorelDRAW X8 -->
<svg xmlns="http://www.w3.org/2000/svg" xml:space="preserve" width="3488px" height="1486px" version="1.1" style="shape-rendering:geometricPrecision; text-rendering:geometricPrecision; image-rendering:optimizeQuality; fill-rule:evenodd; clip-rule:evenodd"
viewBox="0 0 3488 1486"
 xmlns:xlink="http://www.w3.org/1999/xlink">
 <defs>
  <style type="text/css">
   <![CDATA[
    .fil0 {fill:#A82682;fill-rule:nonzero}
   ]]>
  </style>
 </defs>
 <g id="Layer_x0020_1">
  <metadata id="CorelCorpID_0Corel-Layer"/>
  <path class="fil0" d="M2570 834c-68,49 -141,89 -218,122 -105,44 -214,67 -328,68 -64,0 -132,-5 -194,-20 -110,-26 -201,-88 -205,-207 -5,-116 71,-169 176,-196 117,-30 269,-25 443,-19 95,3 191,6 287,3 89,-2 172,-10 235,-28 55,-16 107,-42 144,-87 36,-43 57,-95 57,-151 1,-57 -19,-116 -63,-155 -40,-37 -94,-52 -148,-52 -121,-1 -202,81 -202,198l-1 186c0,41 -69,55 -101,55 -32,0 -101,-14 -101,-55l1 -186c0,-77 -36,-136 -107,-170 -44,-21 -107,-27 -156,-29 -63,-2 -148,3 -204,35 8,-1 17,-1 26,-1 120,0 250,74 250,203 0,137 -139,203 -263,203 -59,0 -122,-10 -174,-41 -74,164 -199,299 -359,382 -139,72 -317,104 -472,119 -98,9 -197,13 -296,13 -115,-1 -247,-6 -359,-34 -110,-27 -246,-82 -234,-215 16,-166 203,-187 339,-195 109,-7 224,0 334,4 158,5 405,14 529,-52 79,-42 139,-123 140,-213 0,-57 -20,-116 -63,-155 -41,-37 -94,-52 -149,-52 -120,-1 -202,81 -202,198l0 186c0,41 -69,55 -102,55 -32,0 -100,-14 -100,-55l0 -186c0,-77 -35,-136 -106,-170 -45,-21 -108,-27 -156,-29 -64,-2 -148,3 -205,35 9,-1 18,-1 27,-1 120,0 249,74 249,203 0,137 -139,203 -262,203 -73,0 -153,-16 -208,-65 -50,-43 -69,-102 -69,-166 0,-92 35,-170 111,-226 97,-72 239,-93 358,-94 120,0 267,15 362,94 82,-69 203,-94 308,-93 111,0 232,30 316,105 62,55 94,131 93,213 -3,130 -88,232 -201,292 -185,98 -469,89 -679,82 -102,-4 -206,-9 -308,-3 -62,4 -146,15 -153,90 -7,68 57,95 114,109 86,21 188,25 276,25 91,1 183,-4 273,-13 134,-14 297,-41 417,-104 210,-109 306,-296 337,-520 11,-77 46,-137 109,-183 97,-72 239,-93 358,-94 120,0 267,15 362,94 82,-69 202,-94 308,-93 111,0 232,30 316,105 62,55 94,131 92,213 -1,76 -32,150 -83,206 64,6 129,22 182,47 132,62 222,182 220,345 -1,133 -71,254 -170,341 -179,159 -444,211 -678,224 -61,4 -123,5 -185,4 -73,-2 -149,-8 -221,-26 -72,-19 -189,-69 -189,-157 1,-89 122,-138 194,-157 70,-17 145,-23 217,-23 66,0 132,5 196,20 77,17 208,66 208,160 0,16 -4,31 -11,46 108,-29 213,-75 297,-150 81,-71 138,-173 140,-282 1,-81 -31,-168 -91,-225 -24,-23 -58,-42 -92,-53 40,38 66,87 66,148 1,159 -164,235 -306,237 -129,1 -265,-56 -293,-190zm-2291 -394c51,0 81,-46 81,-92 0,-48 -31,-91 -83,-91 -52,-1 -83,43 -84,91 0,49 33,92 86,92zm2177 787c-52,0 -117,5 -165,23 -22,9 -57,26 -57,53 -1,27 34,45 56,54 49,18 113,23 166,23 46,0 94,-4 139,-17 26,-7 77,-27 77,-60 0,-32 -50,-51 -75,-59 -46,-13 -94,-17 -141,-17zm296 -433c2,60 41,120 108,118 69,-1 107,-63 107,-125 0,-60 -37,-122 -104,-123 -75,0 -113,64 -111,130zm-851 -354c50,0 81,-46 81,-92 0,-48 -31,-91 -83,-91 -52,-1 -84,43 -84,91 0,49 33,92 86,92zm635 257c-100,2 -201,-2 -301,-5 -155,-5 -292,-9 -354,13 -37,14 -59,56 -60,92 -1,59 40,94 95,105 36,8 73,12 110,13 85,1 164,-19 241,-55 93,-43 191,-98 269,-163z"/>
 </g>
</svg>
