<?xml version="1.0" encoding="UTF-8"?>
<!DOCTYPE svg PUBLIC "-//W3C//DTD SVG 1.1//EN" "http://www.w3.org/Graphics/SVG/1.1/DTD/svg11.dtd">
<!-- Creator: CorelDRAW X8 -->
<svg xmlns="http://www.w3.org/2000/svg" xml:space="preserve" width="2804px" height="1024px" version="1.1" style="shape-rendering:geometricPrecision; text-rendering:geometricPrecision; image-rendering:optimizeQuality; fill-rule:evenodd; clip-rule:evenodd"
viewBox="0 0 2804 1024"
 xmlns:xlink="http://www.w3.org/1999/xlink">
 <defs>
  <style type="text/css">
   <![CDATA[
    .fil0 {fill:#5B5A50;fill-rule:nonzero}
   ]]>
  </style>
 </defs>
 <g id="Layer_x0020_1">
  <metadata id="CorelCorpID_0Corel-Layer"/>
  <path class="fil0" d="M1300 525c0,-83 1,-173 -28,-251 -43,-112 -133,-163 -252,-163 -24,0 -47,2 -70,6 152,112 229,294 229,477 0,85 -17,175 -58,249 -68,122 -189,179 -328,179 -140,0 -260,-57 -328,-180 -42,-74 -60,-163 -60,-248 1,-183 78,-365 230,-477 -23,-4 -46,-6 -69,-6 -129,-1 -244,90 -302,198 -42,79 -62,174 -62,263 1,128 45,291 171,355 39,20 44,55 5,79 -52,30 -117,19 -167,-10 -150,-90 -211,-259 -211,-424 0,-100 23,-205 70,-294 96,-180 292,-278 496,-278 77,0 154,11 227,35 73,-25 150,-35 227,-35 178,1 350,52 436,218 47,93 46,205 46,307 0,83 3,169 32,248 14,39 38,76 70,103 29,24 60,37 99,37 140,0 184,-140 184,-254l0 -603c0,-42 69,-56 101,-56 33,0 102,14 102,56l0 602c0,134 61,255 212,255 56,0 108,-20 152,-52 50,-37 89,-90 112,-149 27,-66 36,-138 35,-208 -2,-148 -64,-342 -215,-404 -37,-16 -57,-50 -19,-78 39,-28 103,-27 146,-9 199,86 288,288 291,491 1,88 -13,178 -52,258 -39,83 -101,146 -175,190 -80,47 -176,72 -275,72 -110,0 -226,-27 -309,-102 -75,72 -186,100 -288,102 -164,3 -313,-72 -370,-229 -32,-86 -35,-179 -35,-270zm-507 -339c-123,95 -185,258 -185,408 0,73 14,151 50,216 27,48 75,102 135,102 61,0 107,-53 134,-101 36,-64 50,-144 50,-217 0,-150 -60,-313 -184,-408z"/>
 </g>
</svg>
