<?xml version="1.0" encoding="UTF-8"?>
<!DOCTYPE svg PUBLIC "-//W3C//DTD SVG 1.1//EN" "http://www.w3.org/Graphics/SVG/1.1/DTD/svg11.dtd">
<!-- Creator: CorelDRAW X8 -->
<svg xmlns="http://www.w3.org/2000/svg" xml:space="preserve" width="2804px" height="1024px" version="1.1" style="shape-rendering:geometricPrecision; text-rendering:geometricPrecision; image-rendering:optimizeQuality; fill-rule:evenodd; clip-rule:evenodd"
viewBox="0 0 2804 1024"
 xmlns:xlink="http://www.w3.org/1999/xlink">
 <defs>
  <style type="text/css">
   <![CDATA[
    .fil0 {fill:#A82682;fill-rule:nonzero}
   ]]>
  </style>
 </defs>
 <g id="Layer_x0020_1">
  <metadata id="CorelCorpID_0Corel-Layer"/>
  <path class="fil0" d="M1300 525c0,-83 1,-173 -29,-251 -42,-112 -132,-163 -251,-163 -24,0 -47,2 -70,6 152,112 229,294 229,478 0,84 -17,174 -58,248 -68,122 -189,179 -328,179 -140,0 -260,-57 -329,-179 -41,-75 -59,-164 -59,-248 0,-184 78,-366 229,-478 -22,-4 -45,-6 -68,-6 -129,-1 -244,90 -302,198 -42,79 -62,174 -62,263 0,129 45,291 170,355 40,20 45,56 6,79 -52,30 -117,19 -167,-10 -150,-90 -211,-259 -211,-424 0,-100 22,-205 70,-294 96,-180 292,-278 496,-278 77,0 154,11 227,35 73,-25 150,-35 227,-35 178,1 350,52 436,218 47,93 46,205 46,307 0,83 3,169 32,249 25,70 86,139 169,139 140,0 184,-140 184,-254l0 -603c0,-42 69,-56 101,-56 33,0 102,14 102,56l0 603c0,133 61,254 213,254 55,0 107,-20 151,-52 50,-37 89,-90 113,-149 26,-65 36,-138 35,-208 -3,-148 -64,-342 -215,-404 -38,-16 -58,-50 -20,-78 39,-28 103,-27 147,-9 198,86 287,288 290,491 1,88 -13,178 -52,258 -39,83 -101,146 -175,190 -80,48 -175,72 -274,72 -111,0 -227,-26 -310,-101 -75,71 -186,99 -288,101 -164,3 -313,-72 -370,-229 -32,-86 -35,-179 -35,-270zm-507 -339c-123,95 -185,258 -185,409 0,73 14,150 50,215 27,48 75,102 135,102 61,0 107,-53 134,-101 36,-64 50,-144 50,-216 0,-151 -60,-314 -184,-409z"/>
 </g>
</svg>
