<?xml version="1.0" encoding="UTF-8"?>
<!DOCTYPE svg PUBLIC "-//W3C//DTD SVG 1.1//EN" "http://www.w3.org/Graphics/SVG/1.1/DTD/svg11.dtd">
<!-- Creator: CorelDRAW X8 -->
<svg xmlns="http://www.w3.org/2000/svg" xml:space="preserve" width="2820px" height="1486px" version="1.1" style="shape-rendering:geometricPrecision; text-rendering:geometricPrecision; image-rendering:optimizeQuality; fill-rule:evenodd; clip-rule:evenodd"
viewBox="0 0 2820 1486"
 xmlns:xlink="http://www.w3.org/1999/xlink">
 <defs>
  <style type="text/css">
   <![CDATA[
    .fil0 {fill:#5B5A50}
   ]]>
  </style>
 </defs>
 <g id="Layer_x0020_1">
  <metadata id="CorelCorpID_0Corel-Layer"/>
  <path class="fil0" d="M1988 1387c58,0 129,-3 182,-27 35,-15 59,-41 58,-80 -2,-41 -45,-59 -81,-59 -47,-1 -67,42 -67,83 -1,40 -60,52 -91,52 -32,-1 -91,-12 -91,-52 0,-41 -20,-84 -67,-83 -36,0 -80,18 -81,59 -1,39 23,65 57,80 53,24 124,27 181,27zm610 -441c-87,58 -191,78 -295,78 -110,0 -227,-27 -309,-102 -76,73 -188,100 -291,102 -163,2 -311,-74 -368,-230 -31,-87 -35,-174 -35,-266 0,-83 2,-174 -28,-252 -43,-113 -132,-164 -252,-164 -23,0 -47,2 -69,6 151,113 229,295 229,481 0,84 -17,168 -59,243 -68,122 -188,182 -328,182 -140,0 -260,-60 -328,-183 -42,-75 -59,-157 -59,-242 0,-185 77,-368 229,-482 -23,-4 -46,-5 -69,-6 -128,0 -244,91 -302,200 -42,80 -62,175 -62,265 1,129 45,286 171,351 39,20 44,55 5,79 -52,31 -117,19 -167,-10 -150,-90 -211,-254 -211,-420 0,-101 23,-207 70,-296 96,-182 292,-280 496,-280 77,0 155,11 227,35 74,-25 150,-35 227,-35 179,1 351,53 436,220 48,93 46,206 46,308 0,84 3,164 32,244 25,69 87,140 167,140 143,0 186,-130 186,-248l0 -608c0,-43 72,-56 102,-56 32,0 101,14 101,56l0 607c0,135 61,249 213,249 123,0 222,-88 264,-195 27,-66 36,-139 35,-210 -2,-149 -64,-344 -215,-407 -38,-16 -57,-50 -19,-78 39,-28 103,-27 146,-9 142,62 223,177 266,320 32,107 41,224 40,335 -1,76 -7,153 -22,228 -37,197 -128,369 -307,474 -42,25 -90,45 -141,61 -56,18 -116,32 -176,41 -61,9 -123,14 -184,14 -84,1 -177,-8 -256,-37 -71,-25 -153,-88 -152,-170 1,-49 33,-87 73,-113 49,-30 119,-42 176,-42 52,0 111,10 158,35 47,-25 106,-35 158,-35 57,0 127,12 176,42 45,28 79,70 73,126 118,-83 178,-208 202,-346zm-1805 -758c-123,94 -185,259 -185,411 0,73 14,145 50,210 27,48 75,103 135,103 61,0 108,-55 134,-102 36,-65 51,-138 51,-211 0,-152 -60,-316 -185,-411z"/>
 </g>
</svg>
