<?xml version="1.0" encoding="UTF-8"?>
<!DOCTYPE svg PUBLIC "-//W3C//DTD SVG 1.1//EN" "http://www.w3.org/Graphics/SVG/1.1/DTD/svg11.dtd">
<!-- Creator: CorelDRAW X8 -->
<svg xmlns="http://www.w3.org/2000/svg" xml:space="preserve" width="2820px" height="1486px" version="1.1" style="shape-rendering:geometricPrecision; text-rendering:geometricPrecision; image-rendering:optimizeQuality; fill-rule:evenodd; clip-rule:evenodd"
viewBox="0 0 2820 1486"
 xmlns:xlink="http://www.w3.org/1999/xlink">
 <defs>
  <style type="text/css">
   <![CDATA[
    .fil0 {fill:#5B5A50}
   ]]>
  </style>
 </defs>
 <g id="Layer_x0020_1">
  <metadata id="CorelCorpID_0Corel-Layer"/>
  <path class="fil0" d="M793 188c-123,95 -185,260 -185,411 0,73 14,145 50,210 27,48 75,103 135,103 61,0 108,-54 134,-102 36,-65 50,-138 50,-211 1,-152 -60,-316 -184,-411zm1199 1041c-52,0 -116,4 -165,23 -22,8 -56,26 -57,52 0,27 35,45 56,54 49,19 114,23 166,23 46,0 95,-3 140,-16 26,-8 77,-28 76,-61 0,-32 -49,-51 -75,-59 -45,-13 -94,-16 -141,-16zm404 63c116,-82 178,-210 202,-346 -88,58 -190,78 -295,78 -110,0 -227,-26 -310,-102 -74,71 -185,100 -287,102 -164,4 -313,-71 -371,-230 -31,-87 -35,-174 -35,-266 0,-82 1,-173 -28,-252 -43,-113 -132,-164 -252,-164 -23,0 -47,2 -70,6 152,113 230,296 230,481 0,84 -18,168 -59,243 -68,122 -188,182 -328,182 -140,0 -260,-59 -328,-182 -42,-76 -59,-158 -59,-243 0,-185 77,-368 229,-481 -23,-4 -46,-6 -69,-7 -128,0 -244,91 -302,200 -42,80 -62,175 -62,265 1,129 45,287 171,351 39,20 44,55 5,79 -52,31 -117,19 -167,-10 -150,-90 -211,-254 -211,-420 0,-101 23,-207 70,-296 96,-182 292,-280 496,-280 77,0 155,11 227,35 73,-24 150,-35 227,-35 178,1 351,53 436,220 23,44 34,92 40,144 6,51 6,106 6,164 0,84 3,164 32,244 26,71 87,141 169,141 141,0 184,-134 184,-249l0 -608c0,-42 69,-56 102,-56 32,0 101,14 101,56l0 607c0,135 61,249 213,249 123,0 221,-88 264,-195 26,-66 36,-139 35,-210 -2,-149 -64,-344 -215,-407 -38,-16 -58,-50 -19,-78 39,-28 103,-27 146,-9 140,61 224,178 266,320 31,106 41,225 40,335 -1,76 -7,153 -22,228 -37,197 -128,369 -307,474 -93,55 -210,86 -317,102 -61,9 -123,14 -185,14 -72,1 -149,-7 -218,-25 -72,-19 -190,-69 -189,-157 0,-89 121,-138 194,-157 69,-17 145,-23 216,-23 66,0 132,5 197,20 73,17 196,62 207,148z"/>
 </g>
</svg>
