<?xml version="1.0" encoding="UTF-8"?>
<!DOCTYPE svg PUBLIC "-//W3C//DTD SVG 1.1//EN" "http://www.w3.org/Graphics/SVG/1.1/DTD/svg11.dtd">
<!-- Creator: CorelDRAW X8 -->
<svg xmlns="http://www.w3.org/2000/svg" xml:space="preserve" width="2341px" height="1024px" version="1.1" style="shape-rendering:geometricPrecision; text-rendering:geometricPrecision; image-rendering:optimizeQuality; fill-rule:evenodd; clip-rule:evenodd"
viewBox="0 0 2341 1024"
 xmlns:xlink="http://www.w3.org/1999/xlink">
 <defs>
  <style type="text/css">
   <![CDATA[
    .fil0 {fill:#5B5A50;fill-rule:nonzero}
   ]]>
  </style>
 </defs>
 <g id="Layer_x0020_1">
  <metadata id="CorelCorpID_0Corel-Layer"/>
  <path class="fil0" d="M548 0c137,1 294,32 393,132 97,-97 246,-132 380,-132 77,0 154,10 227,35 73,-24 150,-35 227,-35 204,0 400,98 496,278 47,89 70,194 70,294 0,87 -17,176 -56,254 -34,69 -86,129 -157,171 -49,29 -114,39 -165,9 -39,-23 -34,-59 5,-79 56,-28 96,-76 123,-132 34,-69 48,-151 48,-223 0,-89 -20,-184 -62,-263 -58,-108 -173,-199 -302,-198 -23,0 -46,2 -69,6 152,112 229,294 230,478 0,84 -18,173 -60,248 -68,122 -188,179 -328,179 -139,0 -260,-57 -328,-179 -41,-74 -58,-164 -58,-248 0,-184 77,-366 229,-478 -23,-4 -46,-6 -70,-6 -184,0 -276,110 -276,285l0 572c0,41 -69,55 -101,55 -32,0 -101,-14 -101,-55l0 -572c0,-179 -113,-285 -295,-285 -135,0 -240,82 -298,197 -24,47 -39,99 -45,151 54,-49 123,-74 196,-76 98,-3 200,30 268,101 58,61 83,141 80,223 -2,90 -37,178 -108,236 -68,55 -154,81 -241,81 -87,0 -170,-24 -237,-79 -119,-95 -163,-260 -163,-405 0,-94 18,-187 61,-271 95,-186 280,-271 487,-269zm-302 706c-1,94 52,207 162,207 106,0 146,-121 146,-207 1,-89 -45,-207 -153,-207 -109,0 -155,117 -155,207zm1302 -520c-124,95 -184,258 -184,409 0,72 14,152 50,216 27,48 73,101 134,101 60,0 108,-54 135,-102 36,-65 50,-142 50,-215 0,-151 -62,-314 -185,-409z"/>
 </g>
</svg>
