<?xml version="1.0" encoding="UTF-8"?>
<!DOCTYPE svg PUBLIC "-//W3C//DTD SVG 1.1//EN" "http://www.w3.org/Graphics/SVG/1.1/DTD/svg11.dtd">
<!-- Creator: CorelDRAW X8 -->
<svg xmlns="http://www.w3.org/2000/svg" xml:space="preserve" width="3803px" height="1486px" version="1.1" style="shape-rendering:geometricPrecision; text-rendering:geometricPrecision; image-rendering:optimizeQuality; fill-rule:evenodd; clip-rule:evenodd"
viewBox="0 0 3803 1486"
 xmlns:xlink="http://www.w3.org/1999/xlink">
 <defs>
  <style type="text/css">
   <![CDATA[
    .fil0 {fill:#5B5A50;fill-rule:nonzero}
   ]]>
  </style>
 </defs>
 <g id="Layer_x0020_1">
  <metadata id="CorelCorpID_0Corel-Layer"/>
  <path class="fil0" d="M3209 294c-88,4 -165,49 -218,117 -51,67 -75,151 -75,235 0,66 15,129 53,184 28,42 72,80 126,81 57,1 100,-48 127,-92 44,-71 62,-153 63,-235 1,-102 -20,-204 -76,-290zm-3209 249c0,-94 18,-187 61,-272 102,-200 306,-283 524,-270 126,8 262,45 354,133 81,-98 207,-133 332,-133 67,0 135,10 198,33 60,-22 124,-32 187,-33 108,0 214,28 303,88 140,93 214,248 211,412 -4,156 -74,295 -202,387l420 0c-84,-94 -129,-205 -130,-329 -1,-109 27,-215 88,-306 113,-168 319,-254 530,-253 175,1 356,60 469,185 135,20 257,81 343,187 80,97 119,222 115,347 -5,123 -53,242 -143,328 -108,102 -269,143 -414,143l-1772 0c-53,0 -113,4 -112,70 2,66 58,68 112,68l2175 0c47,0 102,27 102,79 0,51 -55,79 -102,79l-2175 0c-143,0 -320,-34 -316,-209 4,-170 177,-198 316,-198l1772 0c98,0 201,-40 265,-116 57,-69 86,-159 89,-247 4,-95 -22,-195 -77,-274 -19,-28 -43,-53 -69,-75 25,70 35,143 34,217 -2,96 -24,188 -74,271 -70,113 -187,169 -320,168 -125,-1 -244,-49 -315,-154 -45,-67 -66,-143 -66,-223 0,-99 32,-199 92,-278 76,-99 189,-156 311,-177 -71,-57 -149,-81 -240,-80 -148,2 -275,71 -350,197 -44,75 -65,162 -65,248 0,145 65,271 188,352 25,17 33,44 8,66 -22,19 -59,26 -86,26l-1311 0c-33,0 -102,-14 -102,-56 0,-42 69,-56 102,-56l349 0c216,0 354,-188 358,-388 3,-112 -39,-231 -122,-310 -50,-48 -117,-78 -188,-77 -14,0 -28,2 -42,4 101,84 164,212 164,342 1,180 -128,296 -309,297 -182,1 -314,-114 -313,-297 1,-130 65,-258 165,-342 -17,-3 -34,-5 -51,-5 -159,3 -226,148 -226,287l0 569c0,42 -69,56 -101,56 -32,0 -101,-14 -101,-56l0 -569c0,-173 -105,-276 -279,-287 -142,-8 -253,77 -314,198 -24,48 -39,99 -45,152 17,-16 37,-30 58,-41 41,-22 88,-34 138,-35 98,-4 199,30 268,101 58,62 83,142 80,225 -2,90 -37,172 -108,231 -68,54 -154,81 -241,81 -87,0 -170,-24 -237,-79 -119,-97 -163,-256 -163,-402zm1468 -344c-67,67 -108,166 -108,260 0,61 29,183 108,183 79,0 109,-123 109,-183 -1,-95 -41,-193 -109,-260zm-1222 512c0,94 52,201 162,201 107,0 146,-116 146,-203 0,-90 -46,-206 -153,-206 -108,0 -155,117 -155,208z"/>
 </g>
</svg>
