<?xml version="1.0" encoding="UTF-8"?>
<!DOCTYPE svg PUBLIC "-//W3C//DTD SVG 1.1//EN" "http://www.w3.org/Graphics/SVG/1.1/DTD/svg11.dtd">
<!-- Creator: CorelDRAW X8 -->
<svg xmlns="http://www.w3.org/2000/svg" xml:space="preserve" width="3488px" height="1024px" version="1.1" style="shape-rendering:geometricPrecision; text-rendering:geometricPrecision; image-rendering:optimizeQuality; fill-rule:evenodd; clip-rule:evenodd"
viewBox="0 0 3488 1024"
 xmlns:xlink="http://www.w3.org/1999/xlink">
 <defs>
  <style type="text/css">
   <![CDATA[
    .fil0 {fill:#5B5A50;fill-rule:nonzero}
   ]]>
  </style>
 </defs>
 <g id="Layer_x0020_1">
  <metadata id="CorelCorpID_0Corel-Layer"/>
  <path class="fil0" d="M3209 292c-88,5 -165,49 -217,117 -52,67 -76,150 -76,233 0,66 16,135 53,190 28,41 72,80 126,80 57,1 100,-47 127,-91 44,-71 62,-159 63,-241 2,-101 -20,-202 -76,-288zm-3209 248c0,-94 18,-187 61,-271 102,-198 306,-281 524,-268 126,8 262,44 354,132 81,-97 207,-132 332,-132 67,0 135,10 198,32 60,-21 124,-31 187,-32 108,0 214,28 303,87 140,93 215,247 211,410 -3,155 -74,299 -202,391 140,0 280,0 420,0 -83,-94 -129,-210 -130,-334 -1,-148 48,-270 130,-361 117,-131 300,-194 483,-194 226,0 453,99 557,303 44,87 61,181 60,277 -1,95 -23,195 -74,277 -70,112 -187,168 -320,167 -125,-2 -243,-49 -314,-153 -46,-67 -67,-149 -67,-229 0,-98 32,-198 92,-276 76,-98 189,-156 311,-176 -71,-57 -154,-80 -245,-79 -151,1 -259,66 -329,167 -53,75 -81,171 -81,275 0,143 66,275 188,356 27,17 33,43 8,65 -21,19 -58,26 -86,26 -437,0 -874,0 -1311,0 -32,0 -102,-14 -102,-55 0,-42 70,-56 102,-56l349 0c216,0 354,-194 359,-392 2,-112 -39,-230 -123,-308 -50,-48 -117,-78 -188,-77 -14,0 -28,2 -41,5 100,83 163,209 164,339 0,179 -129,294 -309,295 -183,1 -314,-113 -314,-295 1,-130 65,-257 165,-340 -17,-3 -34,-5 -51,-5 -159,3 -226,147 -226,285l0 573c0,41 -69,55 -101,55 -32,0 -101,-14 -101,-55l0 -572c0,-173 -104,-275 -279,-285 -142,-9 -253,76 -314,196 -24,47 -39,99 -45,151 17,-16 37,-30 58,-41 41,-21 88,-33 138,-35 98,-3 200,30 268,101 58,61 83,141 80,224 -2,89 -37,177 -108,235 -67,55 -154,81 -241,81 -87,0 -169,-24 -237,-79 -119,-95 -163,-260 -163,-405zm1469 -342c-68,66 -108,164 -109,258 0,60 29,182 109,182 78,0 108,-122 108,-182 -1,-94 -41,-192 -108,-258zm-1223 508c0,94 52,207 162,207 107,0 147,-122 146,-208 0,-90 -46,-206 -153,-206 -108,0 -155,117 -155,207z"/>
 </g>
</svg>
