<?xml version="1.0" encoding="UTF-8"?>
<!DOCTYPE svg PUBLIC "-//W3C//DTD SVG 1.1//EN" "http://www.w3.org/Graphics/SVG/1.1/DTD/svg11.dtd">
<!-- Creator: CorelDRAW X8 -->
<svg xmlns="http://www.w3.org/2000/svg" xml:space="preserve" width="3554px" height="1024px" version="1.1" style="shape-rendering:geometricPrecision; text-rendering:geometricPrecision; image-rendering:optimizeQuality; fill-rule:evenodd; clip-rule:evenodd"
viewBox="0 0 3554 1024"
 xmlns:xlink="http://www.w3.org/1999/xlink">
 <defs>
  <style type="text/css">
   <![CDATA[
    .fil0 {fill:#2B2A29;fill-rule:nonzero}
   ]]>
  </style>
 </defs>
 <g id="Layer_x0020_1">
  <metadata id="CorelCorpID_0Corel-Layer"/>
  <path class="fil0" d="M3245 1024c34,0 69,-11 98,-28 149,-90 211,-259 211,-424 0,-100 -23,-205 -70,-294 -96,-180 -292,-278 -496,-278 -77,0 -154,11 -227,35 -73,-25 -150,-35 -227,-35 -134,0 -283,35 -380,132 -96,-97 -242,-132 -375,-132 -78,0 -156,10 -228,35 -74,-24 -150,-35 -226,-35 -136,0 -286,34 -383,131 -102,-101 -261,-131 -402,-131 -204,0 -385,86 -479,269 -43,84 -61,177 -61,270 0,145 44,310 163,406 68,54 150,78 237,78 87,0 174,-26 241,-81 73,-58 109,-152 109,-244 0,-80 -25,-156 -81,-214 -64,-67 -159,-101 -252,-101 -80,0 -151,21 -212,75 6,-52 22,-103 45,-150 57,-112 161,-197 293,-197 182,0 300,103 300,285l0 572c0,41 69,55 101,55 32,0 101,-14 101,-55l0 -571c0,-178 91,-286 280,-286 22,0 46,2 68,6 -152,112 -230,294 -230,478 0,84 18,173 59,248 69,122 189,179 329,179 140,0 261,-57 328,-179 42,-74 59,-163 59,-247 0,-184 -77,-367 -229,-479 22,-4 46,-6 70,-6 176,0 276,119 276,287l0 570c0,41 69,55 101,55 32,0 101,-14 101,-55l0 -570c0,-174 94,-287 277,-287 23,0 47,2 70,6 -152,112 -230,295 -230,479 0,84 18,173 59,247 68,122 188,179 328,179 139,0 260,-57 328,-179 42,-76 59,-163 59,-248 0,-184 -78,-366 -229,-478 23,-4 46,-6 69,-6 128,0 243,89 302,198 42,79 61,174 61,263 0,129 -44,291 -170,355 -21,11 -32,26 -32,41 0,14 9,27 27,38 22,12 45,18 69,18zm-484 -112c-61,0 -108,-53 -134,-101 -36,-64 -50,-142 -51,-215 0,-150 61,-315 185,-410 124,95 185,259 185,409 0,72 -14,151 -50,215 -27,48 -75,102 -135,102zm-1210 0c-60,0 -108,-54 -134,-102 -36,-65 -52,-142 -52,-215 2,-150 62,-314 186,-409 124,95 184,260 184,410 0,73 -14,151 -50,215 -26,48 -72,101 -134,101zm-1143 0c-110,-1 -162,-112 -162,-207 0,-90 47,-206 155,-206 108,0 154,116 154,205 0,86 -40,208 -147,208z"/>
 </g>
</svg>
