<?xml version="1.0" encoding="UTF-8"?>
<!DOCTYPE svg PUBLIC "-//W3C//DTD SVG 1.1//EN" "http://www.w3.org/Graphics/SVG/1.1/DTD/svg11.dtd">
<!-- Creator: CorelDRAW X8 -->
<svg xmlns="http://www.w3.org/2000/svg" xml:space="preserve" width="3902px" height="1486px" version="1.1" style="shape-rendering:geometricPrecision; text-rendering:geometricPrecision; image-rendering:optimizeQuality; fill-rule:evenodd; clip-rule:evenodd"
viewBox="0 0 3902 1486"
 xmlns:xlink="http://www.w3.org/1999/xlink">
 <defs>
  <style type="text/css">
   <![CDATA[
    .fil0 {fill:#A82682;fill-rule:nonzero}
   ]]>
  </style>
 </defs>
 <g id="Layer_x0020_1">
  <metadata id="CorelCorpID_0Corel-Layer"/>
  <path class="fil0" d="M3205 289c-84,16 -161,54 -214,122 -51,67 -76,151 -76,235 0,66 17,129 54,184 28,42 72,81 126,81 57,1 100,-48 127,-92 44,-71 62,-153 63,-235 1,-100 -18,-214 -80,-295zm498 658c-1,-46 -14,-72 -36,-88 -21,-14 -47,-17 -83,-20 -32,-3 -78,-18 -77,-59 2,-40 46,-52 79,-52 33,-1 56,-15 74,-36 30,-34 40,-87 42,-131 3,-89 -35,-156 -95,-203 -54,-42 -123,-66 -190,-73 52,95 72,191 71,299 -2,95 -23,189 -74,271 -70,113 -187,169 -320,168 -125,-1 -243,-49 -314,-154 -46,-67 -67,-143 -67,-223 0,-99 32,-199 92,-278 76,-99 189,-157 311,-177 -71,-57 -147,-81 -237,-80 -142,2 -267,64 -344,183 -51,78 -74,170 -74,262 0,145 66,271 189,352 14,10 23,23 23,36 0,42 -70,56 -101,56l-1312 0c-32,0 -101,-14 -101,-56 0,-42 69,-56 101,-56l350 0c215,0 353,-188 357,-388 3,-112 -39,-231 -122,-310 -50,-48 -117,-78 -188,-77 -14,0 -28,2 -41,5 100,84 163,211 163,341 1,181 -128,297 -309,297 -182,1 -313,-114 -313,-297 1,-130 65,-258 165,-342 -17,-3 -34,-5 -51,-5 -159,3 -226,148 -226,287l0 570c0,41 -69,55 -101,55 -32,0 -101,-14 -101,-55l0 -569c0,-174 -104,-277 -279,-287 -142,-9 -253,76 -314,197 -24,48 -39,100 -45,152 17,-16 37,-29 58,-41 41,-21 88,-33 138,-35 98,-4 200,30 268,102 58,61 83,141 80,225 -2,89 -37,172 -108,230 -67,55 -154,81 -241,81 -87,0 -169,-24 -237,-79 -119,-96 -163,-255 -163,-401 0,-95 18,-188 61,-273 102,-199 306,-283 524,-269 126,7 262,44 354,132 81,-98 207,-133 332,-133 67,0 135,10 198,33 60,-21 124,-32 187,-32 108,-1 214,27 303,87 140,93 215,248 211,413 -4,155 -74,294 -202,386l420 0c-83,-94 -129,-205 -130,-329 0,-114 29,-224 96,-317 119,-167 323,-241 525,-242 170,-1 341,54 457,174 154,-4 340,29 455,132 75,66 115,167 110,266 -5,81 -40,154 -106,204 63,37 107,97 107,171 0,180 -187,243 -345,243l-2081 0c-53,0 -113,4 -112,70 2,66 58,68 112,68l2288 0c47,0 102,28 102,79 0,51 -55,79 -102,79l-2288 0c-143,0 -320,-34 -316,-209 4,-169 177,-198 316,-198l2081 0c79,0 149,-47 146,-132zm-2235 -748c-67,67 -107,166 -108,260 0,61 29,184 109,184 78,0 108,-124 108,-184 -1,-94 -41,-193 -109,-260zm-1222 512c0,94 52,201 162,201 107,0 147,-116 146,-202 0,-91 -46,-207 -153,-207 -108,0 -155,117 -155,208z"/>
 </g>
</svg>
