<?xml version="1.0" encoding="UTF-8"?>
<!DOCTYPE svg PUBLIC "-//W3C//DTD SVG 1.1//EN" "http://www.w3.org/Graphics/SVG/1.1/DTD/svg11.dtd">
<!-- Creator: CorelDRAW X8 -->
<svg xmlns="http://www.w3.org/2000/svg" xml:space="preserve" width="2602px" height="1024px" version="1.1" style="shape-rendering:geometricPrecision; text-rendering:geometricPrecision; image-rendering:optimizeQuality; fill-rule:evenodd; clip-rule:evenodd"
viewBox="0 0 2602 1024"
 xmlns:xlink="http://www.w3.org/1999/xlink">
 <defs>
  <style type="text/css">
   <![CDATA[
    .fil0 {fill:#A82682;fill-rule:nonzero}
   ]]>
  </style>
 </defs>
 <g id="Layer_x0020_1">
  <metadata id="CorelCorpID_0Corel-Layer"/>
  <path class="fil0" d="M0 540c0,-94 18,-187 61,-271 102,-198 306,-281 524,-268 126,8 262,44 354,132 81,-97 207,-132 332,-132 67,0 135,10 198,32 60,-21 124,-31 187,-32 108,0 214,28 303,87 140,93 215,247 211,410 -4,155 -74,299 -202,391l431 0 0 -833c0,-42 69,-56 101,-56 33,0 102,14 102,56l0 889c0,41 -69,55 -101,55l-1241 0c-32,0 -102,-14 -102,-55 0,-42 70,-56 102,-56l349 0c216,0 354,-194 358,-392 3,-112 -39,-230 -122,-308 -50,-48 -117,-78 -188,-77 -14,0 -28,2 -41,5 100,83 163,209 163,338 1,180 -128,295 -309,296 -182,1 -313,-113 -313,-296 1,-129 65,-256 165,-339 -17,-3 -34,-5 -51,-5 -159,3 -226,147 -226,285l0 573c0,41 -69,55 -101,55 -32,0 -101,-14 -101,-55l0 -572c0,-173 -104,-275 -279,-285 -142,-9 -253,76 -314,196 -24,47 -39,99 -45,151 17,-16 37,-30 58,-41 41,-21 88,-33 138,-35 98,-3 200,30 268,101 58,61 83,141 80,224 -2,89 -37,177 -108,235 -67,55 -154,81 -241,81 -87,0 -169,-24 -237,-79 -119,-95 -163,-260 -163,-405zm1469 -342c-68,66 -108,164 -109,257 0,61 29,183 109,183 78,0 108,-122 108,-183 -1,-93 -41,-191 -108,-257zm-1223 508c0,94 52,207 162,207 107,0 147,-123 146,-208 0,-90 -46,-206 -153,-206 -108,0 -155,117 -155,207z"/>
 </g>
</svg>
