<?xml version="1.0" encoding="UTF-8"?>
<!DOCTYPE svg PUBLIC "-//W3C//DTD SVG 1.1//EN" "http://www.w3.org/Graphics/SVG/1.1/DTD/svg11.dtd">
<!-- Creator: CorelDRAW X8 -->
<svg xmlns="http://www.w3.org/2000/svg" xml:space="preserve" width="3057px" height="1486px" version="1.1" style="shape-rendering:geometricPrecision; text-rendering:geometricPrecision; image-rendering:optimizeQuality; fill-rule:evenodd; clip-rule:evenodd"
viewBox="0 0 3057 1486"
 xmlns:xlink="http://www.w3.org/1999/xlink">
 <defs>
  <style type="text/css">
   <![CDATA[
    .fil0 {fill:#A82682;fill-rule:nonzero}
   ]]>
  </style>
 </defs>
 <g id="Layer_x0020_1">
  <metadata id="CorelCorpID_0Corel-Layer"/>
  <path class="fil0" d="M2187 834c-68,49 -140,89 -218,122 -105,44 -214,67 -328,68 -64,0 -131,-5 -194,-20 -110,-26 -200,-88 -205,-207 -5,-116 71,-169 177,-196 116,-30 269,-25 442,-19 95,3 191,6 287,3 90,-2 172,-9 235,-28 55,-16 107,-42 144,-86 37,-44 57,-96 58,-152 0,-57 -20,-116 -64,-155 -40,-37 -94,-52 -148,-52 -120,-1 -202,81 -202,198l0 186c-1,41 -69,55 -102,55 -32,0 -101,-14 -100,-55l0 -186c0,-77 -35,-136 -107,-170 -44,-21 -106,-28 -153,-29 63,54 103,131 103,213 0,154 -145,230 -287,229 -144,-1 -280,-81 -280,-235 -1,-84 39,-154 104,-207 -8,-1 -16,-1 -24,-1 -180,0 -280,100 -280,287l0 571c0,41 -69,55 -101,55 -32,0 -101,-14 -101,-55l0 -571c0,-180 -112,-286 -295,-286 -135,0 -240,82 -298,197 -23,47 -39,99 -45,151 54,-49 123,-74 196,-76 99,-3 200,30 268,101 59,61 83,141 81,224 -3,89 -38,177 -109,235 -67,55 -154,81 -241,81 -87,0 -169,-24 -237,-79 -119,-95 -163,-260 -163,-405 0,-94 18,-187 61,-271 95,-186 280,-271 487,-269 138,1 295,32 394,132 101,-102 245,-130 383,-132 69,-1 138,7 205,24 57,-15 118,-24 178,-24 121,0 267,15 362,94 82,-69 203,-93 308,-93 111,0 232,30 316,105 62,55 94,131 93,213 -2,77 -33,152 -85,208 83,4 180,23 245,74 73,58 110,146 110,237 0,82 -28,154 -87,213 -100,98 -265,140 -402,140l-1010 0c-53,0 -113,4 -112,70 2,66 58,66 112,66l1349 0c47,0 102,27 102,79 0,51 -56,80 -101,80l-1350 0c-142,0 -320,-33 -316,-209 3,-169 177,-198 316,-198l1010 0c84,0 191,-26 248,-93 36,-42 50,-94 50,-148 0,-63 -34,-132 -85,-173 -14,-11 -37,-19 -58,-24 39,38 63,87 64,146 1,159 -164,235 -307,237 -129,1 -264,-56 -293,-190zm-657 -672c-54,37 -89,90 -89,155 1,50 28,124 88,124 59,0 86,-69 86,-118 0,-62 -34,-124 -85,-161zm-1284 544c0,94 52,207 162,207 106,0 147,-121 147,-207 0,-89 -45,-207 -154,-207 -108,0 -155,117 -155,207zm2124 88c2,61 40,120 107,118 69,-1 107,-63 107,-125 0,-60 -37,-122 -104,-123 -75,0 -113,64 -110,130zm-216 -97c-101,2 -202,-2 -302,-5 -155,-5 -291,-9 -354,13 -36,14 -58,56 -59,92 -2,59 39,94 95,105 36,8 72,12 109,13 85,1 165,-19 242,-55 93,-43 190,-97 269,-163z"/>
 </g>
</svg>
