<?xml version="1.0" encoding="UTF-8"?>
<!DOCTYPE svg PUBLIC "-//W3C//DTD SVG 1.1//EN" "http://www.w3.org/Graphics/SVG/1.1/DTD/svg11.dtd">
<!-- Creator: CorelDRAW X8 -->
<svg xmlns="http://www.w3.org/2000/svg" xml:space="preserve" width="3815px" height="1486px" version="1.1" style="shape-rendering:geometricPrecision; text-rendering:geometricPrecision; image-rendering:optimizeQuality; fill-rule:evenodd; clip-rule:evenodd"
viewBox="0 0 3815 1486"
 xmlns:xlink="http://www.w3.org/1999/xlink">
 <defs>
  <style type="text/css">
   <![CDATA[
    .fil0 {fill:#2B2A29;fill-rule:nonzero}
   ]]>
  </style>
 </defs>
 <g id="Layer_x0020_1">
  <metadata id="CorelCorpID_0Corel-Layer"/>
  <path class="fil0" d="M3075 1381c-52,0 -105,-5 -154,-23 -22,-9 -56,-26 -56,-53 0,-27 34,-44 56,-53 49,-19 113,-23 165,-23 47,0 96,3 141,16 26,8 75,27 76,59 0,33 -51,53 -77,60 -45,13 -104,17 -151,17zm-1107 -492c131,-94 202,-243 202,-403 0,-159 -74,-307 -210,-398 -90,-59 -192,-87 -300,-87 -63,1 -131,11 -191,32 -63,-22 -131,-32 -198,-32 -125,0 -250,35 -332,132 -102,-98 -257,-133 -395,-133 -202,0 -388,84 -483,269 -43,84 -61,177 -61,271 0,145 44,310 163,405 68,55 150,79 237,79 87,0 174,-26 241,-81 72,-59 109,-152 109,-244 0,-80 -25,-156 -81,-215 -65,-68 -162,-101 -256,-101 -52,0 -104,11 -150,35 -21,11 -41,25 -58,41 6,-52 21,-104 45,-151 58,-114 162,-197 294,-197 180,8 299,95 299,286l0 572c0,41 69,55 101,55 32,0 101,-14 101,-55l0 -573c0,-138 67,-282 226,-285 17,0 34,2 51,5 -100,83 -164,210 -165,339 0,182 130,296 312,296 179,0 311,-113 311,-296 0,-129 -64,-255 -164,-338 15,-3 29,-5 44,-5 70,0 136,30 186,77 82,76 122,191 122,300 0,203 -143,400 -359,400l-349 0c-32,0 -102,14 -102,56 0,41 70,55 102,55l1311 0c32,0 101,-14 102,-55 0,-14 -9,-26 -24,-36 -122,-81 -188,-212 -188,-356 0,-104 28,-200 81,-275 80,-115 196,-167 335,-167 88,0 169,23 239,79 -122,21 -235,78 -311,176 -60,78 -92,178 -92,276 0,80 21,162 67,229 72,107 193,153 315,153 131,0 250,-55 319,-167 52,-83 74,-193 74,-290 0,-57 -6,-111 -21,-164 107,114 150,254 150,404 0,142 -36,343 -139,448 -35,-61 -130,-96 -195,-111 -64,-15 -131,-20 -197,-20 -71,0 -146,6 -216,23 -73,19 -194,68 -194,157 0,89 117,138 189,157 66,18 141,25 210,25 74,0 154,-7 232,-25 79,-17 155,-45 220,-86 203,-126 288,-340 288,-568 1,-289 -156,-545 -460,-611 -117,-132 -296,-196 -478,-196 -183,0 -372,63 -489,194 -81,90 -130,213 -130,359 0,126 46,243 130,336l-420 0zm-499 -251c-80,0 -109,-122 -109,-183 1,-93 41,-191 109,-257 67,66 107,164 108,257 0,61 -30,183 -108,183zm-1061 275c-110,0 -162,-113 -162,-207 0,-90 47,-207 155,-207 107,0 154,116 154,206 0,85 -40,208 -147,208zm2687 0c-54,-1 -98,-39 -126,-81 -37,-55 -53,-124 -53,-190 0,-83 24,-166 76,-233 52,-68 129,-112 217,-117 54,82 76,179 76,275 0,88 -16,178 -63,254 -27,44 -70,92 -127,92z"/>
 </g>
</svg>
