<?xml version="1.0" encoding="UTF-8"?>
<!DOCTYPE svg PUBLIC "-//W3C//DTD SVG 1.1//EN" "http://www.w3.org/Graphics/SVG/1.1/DTD/svg11.dtd">
<!-- Creator: CorelDRAW X8 -->
<svg xmlns="http://www.w3.org/2000/svg" xml:space="preserve" width="3162px" height="1486px" version="1.1" style="shape-rendering:geometricPrecision; text-rendering:geometricPrecision; image-rendering:optimizeQuality; fill-rule:evenodd; clip-rule:evenodd"
viewBox="0 0 3162 1486"
 xmlns:xlink="http://www.w3.org/1999/xlink">
 <defs>
  <style type="text/css">
   <![CDATA[
    .fil0 {fill:#A82682;fill-rule:nonzero}
   ]]>
  </style>
 </defs>
 <g id="Layer_x0020_1">
  <metadata id="CorelCorpID_0Corel-Layer"/>
  <path class="fil0" d="M2187 835c-68,49 -141,89 -218,121 -105,44 -214,67 -328,68 -64,1 -132,-5 -194,-20 -110,-26 -201,-87 -205,-207 -5,-116 71,-169 177,-196 116,-29 268,-25 442,-19 95,3 191,6 287,4 89,-3 172,-10 235,-29 55,-16 107,-42 144,-86 36,-44 57,-96 58,-152 0,-57 -20,-116 -64,-155 -40,-36 -94,-52 -148,-52 -121,-1 -202,81 -202,198l-1 186c0,41 -68,55 -101,55 -32,0 -101,-14 -101,-55l1 -186c0,-77 -36,-135 -107,-169 -44,-22 -106,-29 -153,-30 63,54 102,131 103,213 0,154 -145,231 -287,229 -144,-1 -280,-81 -280,-235 -1,-84 39,-154 104,-207 -8,0 -16,-1 -24,-1 -180,0 -280,101 -280,287l0 571c0,41 -69,55 -101,55 -32,0 -101,-14 -101,-55l0 -571c0,-180 -113,-286 -295,-286 -135,0 -240,82 -298,197 -24,47 -39,99 -45,151 54,-49 123,-73 196,-76 98,-3 200,30 268,101 58,61 83,141 81,224 -3,89 -38,177 -109,235 -67,55 -154,81 -241,81 -87,0 -169,-24 -237,-79 -119,-95 -163,-260 -163,-405 0,-94 18,-187 61,-271 95,-186 280,-271 487,-269 137,1 294,32 393,132 101,-102 246,-130 384,-132 69,-1 137,7 205,24 57,-15 118,-24 178,-24 59,0 124,3 186,16 66,14 128,38 176,78 82,-69 202,-93 308,-93 111,0 232,30 316,105 62,55 94,131 93,213 -2,69 -27,136 -70,191 28,-3 55,-5 83,-5 60,-1 124,4 182,21 91,26 161,80 167,179 4,55 -20,106 -62,142 47,32 77,79 75,137 -2,54 -24,101 -66,136 -62,51 -154,71 -232,71l-1309 0c-53,0 -113,4 -112,70 2,66 58,66 112,66l1458 0c47,0 102,28 102,80 0,51 -55,79 -102,79l-1458 0c-142,0 -320,-33 -316,-208 3,-170 177,-199 316,-199l1308 0c53,0 122,-43 125,-95 2,-48 -23,-80 -70,-77 -41,2 -91,-6 -91,-57 1,-45 46,-52 83,-52 50,0 68,-40 65,-87 -5,-77 -111,-91 -175,-94 -33,-1 -67,1 -100,4 52,40 86,96 87,166 1,159 -165,235 -307,237 -129,2 -265,-56 -293,-189zm-657 -673c-54,37 -89,90 -89,155 0,50 27,124 88,124 59,0 86,-69 86,-118 0,-62 -35,-124 -85,-161zm-1284 544c0,94 52,207 162,207 106,0 146,-121 147,-207 0,-89 -46,-207 -154,-207 -109,0 -155,117 -155,207zm2123 88c2,61 41,120 108,118 69,-1 107,-63 107,-125 0,-60 -37,-122 -104,-122 -75,-1 -113,63 -111,129zm-215 -97c-101,2 -202,-2 -302,-5 -155,-5 -292,-9 -354,13 -37,14 -59,56 -60,92 -1,59 40,94 96,105 36,8 72,12 109,13 85,1 164,-19 241,-55 93,-43 191,-97 270,-163z"/>
 </g>
</svg>
