<?xml version="1.0" encoding="UTF-8"?>
<!DOCTYPE svg PUBLIC "-//W3C//DTD SVG 1.1//EN" "http://www.w3.org/Graphics/SVG/1.1/DTD/svg11.dtd">
<!-- Creator: CorelDRAW X8 -->
<svg xmlns="http://www.w3.org/2000/svg" xml:space="preserve" width="3815px" height="1486px" version="1.1" style="shape-rendering:geometricPrecision; text-rendering:geometricPrecision; image-rendering:optimizeQuality; fill-rule:evenodd; clip-rule:evenodd"
viewBox="0 0 3815 1486"
 xmlns:xlink="http://www.w3.org/1999/xlink">
 <defs>
  <style type="text/css">
   <![CDATA[
    .fil0 {fill:#5B5A50;fill-rule:nonzero}
   ]]>
  </style>
 </defs>
 <g id="Layer_x0020_1">
  <metadata id="CorelCorpID_0Corel-Layer"/>
  <path class="fil0" d="M3087 1229c-52,0 -117,4 -165,23 -22,8 -57,26 -57,52 -1,27 34,45 56,54 49,19 113,23 166,23 46,0 94,-4 139,-17 26,-7 77,-27 77,-60 0,-32 -50,-51 -75,-59 -46,-13 -94,-16 -141,-16zm-3087 -686c0,-94 18,-188 61,-272 102,-200 306,-283 524,-270 126,8 262,45 354,133 81,-98 207,-133 332,-133 67,0 135,10 198,33 60,-22 124,-32 187,-33 108,0 214,28 303,88 140,93 215,248 211,412 -4,156 -73,295 -201,387l420 0c-84,-94 -130,-205 -131,-329 0,-117 31,-228 100,-323 119,-162 320,-235 517,-236 183,-1 360,56 481,196 323,69 477,354 457,664 -13,203 -108,404 -286,515 -74,46 -163,75 -248,92 -63,12 -128,18 -192,19 -72,1 -152,-7 -222,-25 -72,-19 -189,-69 -189,-157 1,-89 121,-138 194,-157 70,-17 145,-23 217,-23 66,0 132,5 196,20 65,15 160,50 195,111 94,-105 135,-259 139,-396 4,-156 -38,-340 -151,-457 16,60 23,121 22,182 -2,96 -22,189 -73,271 -70,114 -187,170 -320,169 -125,-2 -244,-50 -315,-154 -45,-68 -67,-144 -67,-224 0,-98 32,-199 92,-278 76,-99 189,-156 311,-177 -71,-57 -149,-81 -241,-80 -142,2 -264,66 -341,185 -50,78 -73,169 -73,260 0,145 66,272 189,353 26,17 33,44 8,66 -22,18 -58,25 -86,25l-1311 0c-33,0 -102,-14 -102,-56 0,-42 69,-56 102,-56l349 0c216,0 353,-188 357,-388 3,-112 -39,-231 -122,-310 -50,-48 -117,-78 -188,-77 -14,0 -28,2 -41,4 100,84 163,211 163,341 1,181 -128,297 -309,298 -182,1 -313,-114 -313,-298 1,-130 65,-257 165,-341 -17,-3 -34,-5 -51,-5 -159,3 -226,148 -226,287l1 569c0,42 -69,56 -101,56 -32,0 -101,-14 -101,-56l-1 -569c0,-173 -104,-276 -279,-287 -142,-8 -253,77 -314,198 -24,48 -39,99 -45,152 17,-16 37,-30 58,-41 41,-22 88,-34 138,-36 98,-3 200,31 268,102 58,62 83,142 80,225 -2,90 -36,172 -107,231 -68,55 -154,81 -241,81 -87,0 -170,-24 -238,-79 -118,-96 -163,-256 -163,-402zm3209 -249c-88,5 -165,49 -217,117 -52,68 -76,152 -76,235 0,66 16,129 54,185 28,41 72,80 126,81 57,0 100,-48 127,-92 44,-72 61,-153 62,-236 2,-102 -20,-203 -76,-290zm-1740 -95c-68,67 -108,165 -109,259 0,62 29,184 109,184 78,0 108,-123 108,-184 -1,-94 -41,-192 -108,-259zm-1223 512c0,94 53,201 163,201 107,0 146,-116 145,-203 0,-90 -46,-206 -153,-206 -108,0 -155,117 -155,208z"/>
 </g>
</svg>
