<?xml version="1.0" encoding="UTF-8"?>
<!DOCTYPE svg PUBLIC "-//W3C//DTD SVG 1.1//EN" "http://www.w3.org/Graphics/SVG/1.1/DTD/svg11.dtd">
<!-- Creator: CorelDRAW X8 -->
<svg xmlns="http://www.w3.org/2000/svg" xml:space="preserve" width="1031px" height="1024px" version="1.1" style="shape-rendering:geometricPrecision; text-rendering:geometricPrecision; image-rendering:optimizeQuality; fill-rule:evenodd; clip-rule:evenodd"
viewBox="0 0 1031 1024"
 xmlns:xlink="http://www.w3.org/1999/xlink">
 <defs>
  <style type="text/css">
   <![CDATA[
    .fil0 {fill:#5B5A50;fill-rule:nonzero}
   ]]>
  </style>
 </defs>
 <g id="Layer_x0020_1">
  <metadata id="CorelCorpID_0Corel-Layer"/>
  <path class="fil0" d="M1018 170c33,34 -6,65 -40,76 -41,12 -107,9 -138,-22 -83,-83 -195,-114 -311,-113 -80,0 -178,27 -238,82 -44,39 -65,88 -59,145 4,53 48,73 95,81 67,12 134,4 202,3 104,-2 222,-3 322,30 118,38 178,116 180,238 2,109 -47,193 -141,250 -103,62 -242,83 -361,84 -171,1 -393,-51 -516,-175 -34,-34 6,-65 40,-75 41,-12 106,-9 137,22 79,79 228,118 339,117 72,-1 158,-19 219,-59 55,-38 84,-91 79,-157 -5,-61 -48,-83 -103,-92 -65,-11 -133,-4 -198,-3 -105,2 -232,4 -333,-34 -107,-41 -161,-125 -166,-215 -5,-96 45,-198 145,-261 101,-62 238,-91 357,-92 175,-1 363,45 489,170z"/>
 </g>
</svg>
