<?xml version="1.0" encoding="UTF-8"?>
<!DOCTYPE svg PUBLIC "-//W3C//DTD SVG 1.1//EN" "http://www.w3.org/Graphics/SVG/1.1/DTD/svg11.dtd">
<!-- Creator: CorelDRAW X8 -->
<svg xmlns="http://www.w3.org/2000/svg" xml:space="preserve" width="1031px" height="1024px" version="1.1" style="shape-rendering:geometricPrecision; text-rendering:geometricPrecision; image-rendering:optimizeQuality; fill-rule:evenodd; clip-rule:evenodd"
viewBox="0 0 1031 1024"
 xmlns:xlink="http://www.w3.org/1999/xlink">
 <defs>
  <style type="text/css">
   <![CDATA[
    .fil0 {fill:#996633;fill-rule:nonzero}
   ]]>
  </style>
 </defs>
 <g id="Layer_x0020_1">
  <metadata id="CorelCorpID_0Corel-Layer"/>
  <path class="fil0" d="M1018 170c9,10 13,18 13,27 0,23 -28,41 -53,49 -14,4 -31,6 -49,6 -33,1 -68,-8 -89,-28 -83,-83 -195,-114 -311,-113 -80,0 -178,27 -238,82 -44,39 -65,88 -59,145 4,53 48,73 95,81 67,12 134,4 202,3 104,-2 222,-3 322,30 118,38 178,116 180,238 2,109 -47,193 -141,250 -103,62 -242,83 -361,84 -171,1 -393,-51 -516,-175 -9,-9 -13,-18 -13,-26 0,-23 29,-42 53,-49 14,-4 31,-7 49,-7 33,0 68,9 88,29 79,79 228,119 339,117 72,-1 158,-19 219,-59 55,-38 84,-91 79,-157 -5,-61 -48,-83 -103,-92 -65,-11 -133,-3 -198,-2 -105,1 -232,3 -333,-35 -107,-41 -161,-125 -166,-215 -5,-96 45,-198 145,-261 101,-62 238,-91 357,-92 175,-1 363,45 489,170z"/>
 </g>
</svg>
