<?xml version="1.0" encoding="UTF-8"?>
<!DOCTYPE svg PUBLIC "-//W3C//DTD SVG 1.1//EN" "http://www.w3.org/Graphics/SVG/1.1/DTD/svg11.dtd">
<!-- Creator: CorelDRAW X8 -->
<svg xmlns="http://www.w3.org/2000/svg" xml:space="preserve" width="1016px" height="1486px" version="1.1" style="shape-rendering:geometricPrecision; text-rendering:geometricPrecision; image-rendering:optimizeQuality; fill-rule:evenodd; clip-rule:evenodd"
viewBox="0 0 1016 1486"
 xmlns:xlink="http://www.w3.org/1999/xlink">
 <defs>
  <style type="text/css">
   <![CDATA[
    .fil0 {fill:#996633;fill-rule:nonzero}
   ]]>
  </style>
 </defs>
 <g id="Layer_x0020_1">
  <metadata id="CorelCorpID_0Corel-Layer"/>
  <path class="fil0" d="M893 931c84,44 124,127 123,219 -1,119 -66,200 -168,257 -99,55 -232,78 -344,79 -96,1 -194,-13 -284,-45 -75,-26 -150,-70 -206,-127 -9,-9 -13,-18 -13,-27 1,-22 28,-41 53,-49 15,-4 33,-6 51,-6 33,0 67,9 87,29 37,37 87,69 137,87 54,19 115,27 172,26 84,0 183,-19 247,-77 43,-39 64,-90 66,-147 3,-59 -22,-121 -81,-142 -24,-8 -83,-8 -108,-8l-523 0c-32,0 -102,-14 -102,-56 0,-41 69,-56 101,-56l525 0c99,0 205,-65 192,-174 -8,-64 -59,-95 -121,-106 -65,-11 -132,-3 -198,-2 -105,2 -232,3 -333,-35 -104,-40 -157,-121 -165,-208 -8,-99 42,-206 144,-270 101,-63 239,-92 357,-93 175,-1 363,45 489,171 9,9 13,18 13,28 -1,9 -5,19 -14,27 -9,9 -22,16 -39,21 -14,5 -31,7 -49,7 -33,0 -68,-9 -88,-29 -83,-83 -195,-115 -311,-114 -81,1 -179,28 -239,83 -43,39 -64,88 -59,146 5,53 49,73 96,82 66,12 134,3 201,2 105,-1 222,-3 323,30 118,39 194,132 191,256 -3,90 -49,170 -123,221z"/>
 </g>
</svg>
