<?xml version="1.0" encoding="UTF-8"?>
<!DOCTYPE svg PUBLIC "-//W3C//DTD SVG 1.1//EN" "http://www.w3.org/Graphics/SVG/1.1/DTD/svg11.dtd">
<!-- Creator: CorelDRAW X8 -->
<svg xmlns="http://www.w3.org/2000/svg" xml:space="preserve" width="1028px" height="1131px" version="1.1" style="shape-rendering:geometricPrecision; text-rendering:geometricPrecision; image-rendering:optimizeQuality; fill-rule:evenodd; clip-rule:evenodd"
viewBox="0 0 1028 1131"
 xmlns:xlink="http://www.w3.org/1999/xlink">
 <defs>
  <style type="text/css">
   <![CDATA[
    .fil0 {fill:#5B5A50}
   ]]>
  </style>
 </defs>
 <g id="Layer_x0020_1">
  <metadata id="CorelCorpID_0Corel-Layer"/>
  <path class="fil0" d="M418 874c-52,0 -116,4 -165,23 -22,8 -56,25 -57,52 0,27 35,45 56,53 49,19 114,23 166,23 46,0 95,-3 139,-16 27,-8 77,-27 77,-60 0,-32 -50,-51 -75,-59 -45,-13 -94,-16 -141,-16zm393 30c18,-28 29,-68 30,-108 2,-69 -22,-143 -79,-171 -67,-34 -182,-22 -260,-21 -108,2 -234,4 -336,-35 -104,-39 -158,-120 -165,-208 -8,-98 42,-204 144,-268 101,-63 238,-92 357,-93 175,-1 363,45 488,171 34,34 -5,65 -40,75 -40,13 -106,9 -137,-22 -83,-83 -195,-114 -311,-113 -80,1 -178,28 -238,82 -44,39 -65,88 -59,146 4,53 48,73 95,81 68,13 139,4 207,3 70,-1 145,-2 215,7 78,11 150,35 210,87 66,57 92,130 96,214 4,92 -25,182 -89,249 -64,67 -152,107 -242,127 -77,17 -181,25 -281,23 -81,-1 -159,-9 -219,-25 -72,-19 -190,-68 -189,-156 0,-89 121,-138 194,-156 69,-18 145,-24 216,-24 66,0 132,6 196,20 46,11 109,31 154,65 18,15 33,31 43,50z"/>
 </g>
</svg>
