<?xml version="1.0" encoding="UTF-8"?>
<!DOCTYPE svg PUBLIC "-//W3C//DTD SVG 1.1//EN" "http://www.w3.org/Graphics/SVG/1.1/DTD/svg11.dtd">
<!-- Creator: CorelDRAW X8 -->
<svg xmlns="http://www.w3.org/2000/svg" xml:space="preserve" width="987px" height="1130px" version="1.1" style="shape-rendering:geometricPrecision; text-rendering:geometricPrecision; image-rendering:optimizeQuality; fill-rule:evenodd; clip-rule:evenodd"
viewBox="0 0 987 1130"
 xmlns:xlink="http://www.w3.org/1999/xlink">
 <defs>
  <style type="text/css">
   <![CDATA[
    .fil0 {fill:#669933;fill-rule:nonzero}
   ]]>
  </style>
 </defs>
 <g id="Layer_x0020_1">
  <metadata id="CorelCorpID_0Corel-Layer"/>
  <path class="fil0" d="M386 1052c62,0 138,-4 195,-30 39,-17 67,-47 65,-90 -2,-51 -58,-71 -100,-71 -57,-1 -88,40 -88,97 0,30 -47,40 -71,40 -24,0 -71,-10 -71,-40 1,-57 -31,-98 -87,-97 -43,0 -99,20 -101,71 -1,43 26,73 65,90 56,26 132,30 193,30zm566 -883c21,22 7,49 -32,61 -40,13 -89,5 -111,-18 -87,-89 -206,-122 -328,-121 -85,1 -190,29 -256,89 -42,38 -68,90 -62,156 5,56 52,81 110,92 71,13 159,4 208,4 70,-1 146,-3 215,7 72,9 140,32 198,83 66,58 89,133 93,213 4,100 -29,187 -87,249 -58,61 -140,103 -232,124 -94,21 -186,21 -282,22 -64,1 -162,-6 -243,-35 -84,-30 -144,-96 -143,-163 1,-38 21,-78 68,-108 41,-25 101,-39 161,-39 53,0 114,12 158,40 44,-28 105,-40 159,-40 59,0 120,14 160,39 49,31 69,69 69,108 0,13 -2,25 -6,38 57,-56 79,-152 66,-229 -9,-54 -35,-100 -81,-123 -73,-38 -194,-25 -273,-24 -103,2 -229,4 -326,-34 -86,-33 -150,-98 -155,-224 -4,-112 54,-192 138,-245 99,-63 234,-90 343,-91 169,-1 349,45 471,169z"/>
 </g>
</svg>
