<?xml version="1.0" encoding="UTF-8"?>
<!DOCTYPE svg PUBLIC "-//W3C//DTD SVG 1.1//EN" "http://www.w3.org/Graphics/SVG/1.1/DTD/svg11.dtd">
<!-- Creator: CorelDRAW X8 -->
<svg xmlns="http://www.w3.org/2000/svg" xml:space="preserve" width="1336px" height="1024px" version="1.1" style="shape-rendering:geometricPrecision; text-rendering:geometricPrecision; image-rendering:optimizeQuality; fill-rule:evenodd; clip-rule:evenodd"
viewBox="0 0 1336 1024"
 xmlns:xlink="http://www.w3.org/1999/xlink">
 <defs>
  <style type="text/css">
   <![CDATA[
    .fil0 {fill:#5B5A50;fill-rule:nonzero}
   ]]>
  </style>
 </defs>
 <g id="Layer_x0020_1">
  <metadata id="CorelCorpID_0Corel-Layer"/>
  <path class="fil0" d="M1171 934c-113,61 -268,86 -396,89 -181,6 -371,-27 -525,-126 -158,-101 -249,-278 -250,-462 -1,-161 67,-320 203,-414 37,-26 102,-27 143,-9 38,17 55,51 16,78 -111,77 -159,216 -158,344 1,154 65,305 200,391 107,69 243,91 369,88 82,-3 183,-20 256,-59 53,-28 102,-84 101,-146 0,-61 -49,-92 -105,-102 -64,-11 -129,-3 -194,-2 -108,2 -234,4 -337,-35 -108,-41 -162,-128 -165,-219 -4,-95 46,-195 145,-256 100,-63 240,-93 358,-94 175,-1 362,47 487,172 34,34 -5,65 -40,75 -41,13 -106,9 -137,-22 -83,-82 -193,-115 -309,-114 -81,0 -180,29 -241,83 -43,39 -64,88 -59,146 5,52 49,72 96,81 66,12 134,3 201,2 105,-1 223,-3 323,30 106,35 183,117 183,231 0,108 -70,200 -165,250z"/>
 </g>
</svg>
