<?xml version="1.0" encoding="UTF-8"?>
<!DOCTYPE svg PUBLIC "-//W3C//DTD SVG 1.1//EN" "http://www.w3.org/Graphics/SVG/1.1/DTD/svg11.dtd">
<!-- Creator: CorelDRAW X8 -->
<svg xmlns="http://www.w3.org/2000/svg" xml:space="preserve" width="832px" height="600px" version="1.1" style="shape-rendering:geometricPrecision; text-rendering:geometricPrecision; image-rendering:optimizeQuality; fill-rule:evenodd; clip-rule:evenodd"
viewBox="0 0 832 600"
 xmlns:xlink="http://www.w3.org/1999/xlink">
 <defs>
  <style type="text/css">
   <![CDATA[
    .fil0 {fill:#A82682;fill-rule:nonzero}
   ]]>
  </style>
 </defs>
 <g id="Layer_x0020_1">
  <metadata id="CorelCorpID_0Corel-Layer"/>
  <path class="fil0" d="M732 547c-71,37 -166,51 -246,53 -106,3 -222,-17 -314,-70 -106,-60 -171,-153 -172,-275 0,-94 34,-186 116,-241 25,-17 76,-18 104,-6 24,10 35,31 11,47 -66,44 -88,125 -88,200 1,84 39,157 106,209 65,51 151,69 233,67 47,-1 103,-11 145,-33 31,-16 61,-48 60,-84 0,-32 -20,-48 -50,-55 -38,-9 -82,-4 -122,-3 -66,1 -144,2 -208,-22 -32,-12 -57,-29 -73,-51 -18,-24 -26,-53 -27,-81 -1,-42 15,-84 45,-114 63,-62 178,-87 267,-88 59,0 120,7 176,27 47,16 91,40 127,75 19,18 -1,36 -20,43 -29,11 -84,11 -107,-11 -23,-22 -51,-39 -81,-50 -30,-11 -62,-15 -94,-15 -51,0 -116,22 -148,60 -16,19 -25,42 -22,71 3,29 27,41 54,45 36,7 76,2 113,1 62,-1 126,-2 186,14 70,18 129,63 129,140 0,64 -44,117 -100,147z"/>
 </g>
</svg>
