<?xml version="1.0" encoding="UTF-8"?>
<!DOCTYPE svg PUBLIC "-//W3C//DTD SVG 1.1//EN" "http://www.w3.org/Graphics/SVG/1.1/DTD/svg11.dtd">
<!-- Creator: CorelDRAW X8 -->
<svg xmlns="http://www.w3.org/2000/svg" xml:space="preserve" width="1028px" height="1130px" version="1.1" style="shape-rendering:geometricPrecision; text-rendering:geometricPrecision; image-rendering:optimizeQuality; fill-rule:evenodd; clip-rule:evenodd"
viewBox="0 0 1028 1130"
 xmlns:xlink="http://www.w3.org/1999/xlink">
 <defs>
  <style type="text/css">
   <![CDATA[
    .fil0 {fill:#A82682}
   ]]>
  </style>
 </defs>
 <g id="Layer_x0020_1">
  <metadata id="CorelCorpID_0Corel-Layer"/>
  <path class="fil0" d="M418 873c-52,0 -116,5 -165,23 -22,9 -56,26 -57,53 0,27 34,45 56,53 49,19 114,23 166,23 46,0 95,-3 139,-16 27,-8 77,-27 77,-60 0,-32 -49,-51 -75,-59 -45,-13 -94,-17 -141,-17zm393 31c18,-28 29,-68 30,-109 2,-69 -22,-142 -79,-171 -67,-34 -182,-21 -260,-20 -108,1 -234,4 -336,-35 -104,-40 -158,-121 -165,-208 -9,-98 41,-205 144,-269 101,-63 238,-92 357,-92 175,-2 363,45 489,171 33,33 -6,65 -40,75 -41,12 -107,9 -138,-22 -83,-83 -195,-114 -311,-113 -80,0 -178,27 -238,82 -44,39 -65,88 -59,146 4,52 48,72 95,81 68,12 139,4 207,3 70,-1 145,-3 215,7 78,10 150,35 210,86 66,58 92,130 96,215 4,92 -24,182 -89,249 -64,67 -152,107 -242,127 -77,16 -181,25 -282,23 -80,-1 -158,-9 -219,-25 -71,-19 -189,-69 -188,-156 0,-89 121,-138 194,-156 69,-18 144,-24 216,-24 66,0 132,6 196,20 67,15 164,50 197,115z"/>
 </g>
</svg>
