<?xml version="1.0" encoding="UTF-8"?>
<!DOCTYPE svg PUBLIC "-//W3C//DTD SVG 1.1//EN" "http://www.w3.org/Graphics/SVG/1.1/DTD/svg11.dtd">
<!-- Creator: CorelDRAW X8 -->
<svg xmlns="http://www.w3.org/2000/svg" xml:space="preserve" width="2139px" height="1024px" version="1.1" style="shape-rendering:geometricPrecision; text-rendering:geometricPrecision; image-rendering:optimizeQuality; fill-rule:evenodd; clip-rule:evenodd"
viewBox="0 0 2139 1024"
 xmlns:xlink="http://www.w3.org/1999/xlink">
 <defs>
  <style type="text/css">
   <![CDATA[
    .fil0 {fill:#5B5A50;fill-rule:nonzero}
   ]]>
  </style>
 </defs>
 <g id="Layer_x0020_1">
  <metadata id="CorelCorpID_0Corel-Layer"/>
  <path class="fil0" d="M1328 923c-77,74 -185,101 -291,101 -159,0 -312,-76 -367,-229 -35,-95 -36,-199 -36,-299 0,-86 -1,-179 -30,-261 -25,-69 -71,-124 -151,-124 -116,0 -185,109 -218,204 -21,62 -33,132 -33,196 1,161 73,351 239,410 37,14 64,46 28,77 -40,34 -106,31 -152,12 -209,-87 -315,-284 -317,-499 -1,-79 12,-161 41,-236 70,-177 218,-275 412,-275 147,0 274,49 337,186 45,97 46,205 46,310 1,92 1,190 32,278 25,68 88,141 168,139 143,-3 186,-135 186,-254l0 -603c0,-42 69,-56 101,-56 32,0 102,14 102,56l0 603c0,133 60,254 212,254 123,0 222,-94 264,-201 25,-61 35,-128 35,-194 1,-151 -59,-354 -215,-418 -37,-16 -57,-50 -19,-78 39,-28 103,-27 146,-9 204,88 292,299 291,505 0,84 -15,168 -52,244 -82,172 -260,262 -450,262 -110,0 -226,-26 -309,-101z"/>
 </g>
</svg>
