<?xml version="1.0" encoding="UTF-8"?>
<!DOCTYPE svg PUBLIC "-//W3C//DTD SVG 1.1//EN" "http://www.w3.org/Graphics/SVG/1.1/DTD/svg11.dtd">
<!-- Creator: CorelDRAW X8 -->
<svg xmlns="http://www.w3.org/2000/svg" xml:space="preserve" width="2154px" height="1486px" version="1.1" style="shape-rendering:geometricPrecision; text-rendering:geometricPrecision; image-rendering:optimizeQuality; fill-rule:evenodd; clip-rule:evenodd"
viewBox="0 0 2154 1487"
 xmlns:xlink="http://www.w3.org/1999/xlink">
 <defs>
  <style type="text/css">
   <![CDATA[
    .fil0 {fill:#2B2A29;fill-rule:nonzero}
   ]]>
  </style>
 </defs>
 <g id="Layer_x0020_1">
  <metadata id="CorelCorpID_0Corel-Layer"/>
  <path class="fil0" d="M1326 1382c-52,0 -116,-5 -166,-23 -22,-9 -56,-27 -56,-53 0,-28 34,-45 56,-54 50,-18 114,-24 166,-24 47,0 96,4 141,18 26,8 75,26 76,58 0,34 -51,54 -77,61 -45,13 -93,17 -140,17zm523 -1369c-20,-8 -44,-13 -68,-13 -28,0 -57,7 -78,22 -15,11 -21,22 -21,33 0,18 17,35 40,45 156,64 215,246 215,400 0,66 -10,151 -35,212 -42,107 -141,201 -264,201 -152,0 -212,-121 -212,-254l0 -603c0,-42 -70,-56 -102,-56 -32,0 -102,14 -102,56l0 603c0,121 -41,254 -184,254 -80,0 -144,-72 -170,-139 -30,-88 -30,-182 -30,-274 -2,-105 -2,-217 -48,-314 -63,-137 -190,-186 -337,-186 -194,0 -342,98 -412,275 -28,72 -41,148 -41,225 0,222 107,423 317,510 21,10 46,14 71,14 30,0 59,-8 81,-26 12,-10 17,-21 17,-31 0,-19 -20,-37 -45,-46 -166,-59 -238,-260 -239,-421 0,-64 12,-123 33,-185 33,-95 102,-204 218,-204 80,0 126,55 151,124 29,82 30,179 30,265 1,100 1,200 36,295 55,153 208,229 368,229 106,0 214,-27 291,-101 83,75 199,101 309,101 106,0 209,-28 294,-83 -24,134 -86,270 -202,351 -11,-86 -134,-130 -207,-148 -65,-14 -131,-20 -197,-20 -72,0 -148,6 -216,24 -74,18 -194,68 -194,156 0,89 116,139 188,158 66,17 152,25 222,25 77,0 164,-8 249,-26 91,-19 178,-49 250,-90 179,-106 270,-277 308,-475 15,-81 21,-164 21,-247 0,-84 -5,-170 -20,-251 -32,-164 -110,-309 -285,-385z"/>
 </g>
</svg>
