<?xml version="1.0" encoding="UTF-8"?>
<!DOCTYPE svg PUBLIC "-//W3C//DTD SVG 1.1//EN" "http://www.w3.org/Graphics/SVG/1.1/DTD/svg11.dtd">
<!-- Creator: CorelDRAW X8 -->
<svg xmlns="http://www.w3.org/2000/svg" xml:space="preserve" width="2500px" height="1486px" version="1.1" style="shape-rendering:geometricPrecision; text-rendering:geometricPrecision; image-rendering:optimizeQuality; fill-rule:evenodd; clip-rule:evenodd"
viewBox="0 0 2500 1486"
 xmlns:xlink="http://www.w3.org/1999/xlink">
 <defs>
  <style type="text/css">
   <![CDATA[
    .fil0 {fill:#5B5A50;fill-rule:nonzero}
   ]]>
  </style>
 </defs>
 <g id="Layer_x0020_1">
  <metadata id="CorelCorpID_0Corel-Layer"/>
  <path class="fil0" d="M574 1182c215,134 502,194 755,193 276,-1 584,-75 781,-277 30,-31 57,-65 82,-101 -62,23 -129,27 -195,27 -110,0 -226,-26 -309,-102 -77,75 -185,102 -291,102 -159,0 -312,-77 -368,-230 -34,-96 -35,-194 -35,-295 0,-86 -1,-179 -30,-262 -25,-70 -71,-125 -151,-125 -117,0 -185,109 -218,206 -21,62 -33,132 -33,197 1,162 73,346 238,406 37,14 66,47 29,78 -40,33 -106,29 -152,11 -211,-83 -316,-279 -317,-495 -1,-80 12,-163 41,-238 70,-179 218,-277 412,-277 147,0 274,49 337,188 44,96 46,203 46,307 0,94 0,187 32,277 25,69 88,143 168,141 143,-3 186,-136 186,-256l0 -601c0,-42 69,-56 101,-56 32,0 102,14 102,56l0 600c0,135 60,256 212,256 123,0 222,-88 264,-195 25,-61 35,-129 36,-195 0,-153 -60,-357 -216,-422 -38,-16 -57,-50 -19,-78 39,-28 103,-27 146,-9 95,42 168,109 217,199 57,104 76,227 75,345 -3,241 -84,460 -264,627 -236,220 -587,301 -904,302 -281,2 -591,-58 -840,-190 -290,-154 -467,-395 -490,-722 -15,-211 62,-437 250,-554 40,-25 100,-26 142,-5 39,19 48,54 9,79 -155,96 -210,301 -199,472 18,265 142,474 370,616z"/>
 </g>
</svg>
