<?xml version="1.0" encoding="UTF-8"?>
<!DOCTYPE svg PUBLIC "-//W3C//DTD SVG 1.1//EN" "http://www.w3.org/Graphics/SVG/1.1/DTD/svg11.dtd">
<!-- Creator: CorelDRAW X8 -->
<svg xmlns="http://www.w3.org/2000/svg" xml:space="preserve" width="2153px" height="1486px" version="1.1" style="shape-rendering:geometricPrecision; text-rendering:geometricPrecision; image-rendering:optimizeQuality; fill-rule:evenodd; clip-rule:evenodd"
viewBox="0 0 2153 1486"
 xmlns:xlink="http://www.w3.org/1999/xlink">
 <defs>
  <style type="text/css">
   <![CDATA[
    .fil0 {fill:#5B5A50}
   ]]>
  </style>
 </defs>
 <g id="Layer_x0020_1">
  <metadata id="CorelCorpID_0Corel-Layer"/>
  <path class="fil0" d="M1325 1228c-52,0 -116,5 -165,23 -21,9 -56,26 -56,53 -1,27 34,45 56,53 49,19 113,24 165,24 46,0 95,-4 140,-17 26,-7 77,-27 76,-60 0,-32 -49,-51 -75,-59 -45,-13 -94,-17 -141,-17zm606 -282c-34,23 -71,34 -110,47 -58,20 -120,31 -184,31 -110,0 -227,-27 -309,-102 -77,75 -186,102 -291,102 -159,0 -312,-77 -368,-230 -34,-97 -35,-194 -35,-295 0,-87 -1,-180 -30,-262 -25,-70 -71,-125 -151,-125 -117,0 -185,109 -218,206 -21,61 -33,131 -33,197 1,161 73,345 238,406 37,13 66,47 29,77 -41,33 -105,29 -152,11 -211,-80 -315,-278 -317,-494 -1,-81 12,-163 41,-238 70,-179 218,-277 412,-277 147,0 273,49 337,188 44,96 46,203 46,306 0,95 0,188 32,278 25,68 88,142 168,140 143,-3 185,-136 185,-255l0 -601c0,-42 70,-56 102,-56 32,0 101,14 101,56l0 600c0,135 61,256 213,256 122,0 221,-88 264,-195 25,-62 35,-129 35,-195 1,-153 -60,-357 -215,-422 -36,-15 -59,-49 -19,-78 39,-28 103,-27 146,-9 162,70 243,210 279,374 20,91 27,188 26,281 -1,76 -7,153 -22,228 -37,197 -128,368 -307,474 -93,55 -210,85 -317,101 -61,10 -123,14 -184,15 -72,0 -149,-7 -219,-26 -72,-19 -189,-68 -189,-156 0,-90 121,-138 194,-157 69,-17 145,-23 216,-23 66,0 132,5 197,20 73,16 196,62 207,148 116,-82 178,-210 202,-346z"/>
 </g>
</svg>
