<?xml version="1.0" encoding="UTF-8"?>
<!DOCTYPE svg PUBLIC "-//W3C//DTD SVG 1.1//EN" "http://www.w3.org/Graphics/SVG/1.1/DTD/svg11.dtd">
<!-- Creator: CorelDRAW X8 -->
<svg xmlns="http://www.w3.org/2000/svg" xml:space="preserve" width="2268px" height="1024px" version="1.1" style="shape-rendering:geometricPrecision; text-rendering:geometricPrecision; image-rendering:optimizeQuality; fill-rule:evenodd; clip-rule:evenodd"
viewBox="0 0 2268 1024"
 xmlns:xlink="http://www.w3.org/1999/xlink">
 <defs>
  <style type="text/css">
   <![CDATA[
    .fil0 {fill:#2B2A29;fill-rule:nonzero}
   ]]>
  </style>
 </defs>
 <g id="Layer_x0020_1">
  <metadata id="CorelCorpID_0Corel-Layer"/>
  <path class="fil0" d="M1723 1024c203,0 390,-86 484,-269 43,-84 61,-177 61,-271 0,-145 -44,-310 -163,-406 -67,-54 -142,-78 -228,-78 -87,0 -182,25 -250,81 -73,59 -109,154 -109,246 0,79 24,154 81,213 65,67 163,101 257,101 76,0 151,-24 207,-76 -6,52 -22,104 -45,151 -58,113 -162,197 -295,197 -172,0 -297,-106 -297,-283l0 -574c0,-42 -69,-56 -102,-56 -32,0 -102,14 -102,56l0 598c0,124 -40,259 -184,259 -80,0 -144,-72 -170,-139 -31,-88 -31,-182 -31,-274 -1,-105 -2,-217 -47,-314 -63,-137 -190,-186 -337,-186 -194,0 -342,98 -412,275 -28,72 -41,148 -41,225 0,222 107,423 317,510 21,10 46,14 71,14 30,0 59,-8 81,-26 12,-10 17,-21 17,-31 0,-19 -20,-37 -45,-46 -166,-59 -238,-260 -239,-421 0,-64 12,-123 33,-185 33,-95 102,-204 218,-204 80,0 126,55 151,124 29,82 30,179 30,265 1,100 1,200 36,295 55,153 208,229 368,229 112,0 226,-29 305,-116 101,88 250,116 380,116zm144 -500c-108,0 -154,-116 -154,-207 0,-88 48,-206 154,-206 110,0 155,116 155,207 0,90 -47,206 -155,206z"/>
 </g>
</svg>
