<?xml version="1.0" encoding="UTF-8"?>
<!DOCTYPE svg PUBLIC "-//W3C//DTD SVG 1.1//EN" "http://www.w3.org/Graphics/SVG/1.1/DTD/svg11.dtd">
<!-- Creator: CorelDRAW X8 -->
<svg xmlns="http://www.w3.org/2000/svg" xml:space="preserve" width="2267px" height="1024px" version="1.1" style="shape-rendering:geometricPrecision; text-rendering:geometricPrecision; image-rendering:optimizeQuality; fill-rule:evenodd; clip-rule:evenodd"
viewBox="0 0 2267 1024"
 xmlns:xlink="http://www.w3.org/1999/xlink"
 xmlns:dc="http://purl.org/dc/elements/1.1/"
 xmlns:cc="http://creativecommons.org/ns#"
 xmlns:rdf="http://www.w3.org/1999/02/22-rdf-syntax-ns#"
 xmlns:svg="http://www.w3.org/2000/svg"
 xmlns:sodipodi="http://sodipodi.sourceforge.net/DTD/sodipodi-0.dtd"
 xmlns:inkscape="http://www.inkscape.org/namespaces/inkscape"
 sodipodi:docname="ഡ്ര.svg"
 inkscape:version="0.92.3 (2405546, 2018-03-11)">
 <defs>
  <style type="text/css">
   <![CDATA[
    .fil0 {fill:#996633;fill-rule:nonzero}
   ]]>
  </style>
 </defs>
 <g id="Layer_x0020_1">
  <metadata id="CorelCorpID_0Corel-Layer"/>
  <sodipodi:namedview pagecolor="#ffffff" bordercolor="#666666" borderopacity="1" objecttolerance="10" gridtolerance="10" guidetolerance="10" inkscape:pageopacity="0" inkscape:pageshadow="2" inkscape:window-width="1062" inkscape:window-height="497" id="namedview12" showgrid="false" inkscape:zoom="0.21912887" inkscape:cx="643.45697" inkscape:cy="512" inkscape:window-x="0" inkscape:window-y="0" inkscape:window-maximized="0" inkscape:current-layer="Layer_x0020_1"/>
  <sodipodi:namedview pagecolor="#ffffff" bordercolor="#666666" borderopacity="1" objecttolerance="10" gridtolerance="10" guidetolerance="10" inkscape:pageopacity="0" inkscape:pageshadow="2" inkscape:window-width="3200" inkscape:window-height="1693" id="namedview14" showgrid="false" inkscape:zoom="0.921875" inkscape:cx="1435.6911" inkscape:cy="437.18221" inkscape:window-x="0" inkscape:window-y="0" inkscape:window-maximized="1" inkscape:current-layer="Layer_x0020_1"/>
  <sodipodi:namedview pagecolor="#ffffff" bordercolor="#666666" borderopacity="1" objecttolerance="10" gridtolerance="10" guidetolerance="10" inkscape:pageopacity="0" inkscape:pageshadow="2" inkscape:window-width="1062" inkscape:window-height="497" id="namedview12" showgrid="false" inkscape:zoom="0.15881561" inkscape:cx="581.44915" inkscape:cy="743" inkscape:window-x="0" inkscape:window-y="0" inkscape:window-maximized="0" inkscape:current-layer="Layer_x0020_1"/>
 </g>
 <g id="Layer_x0020_1_0">
  <metadata id="CorelCorpID_1Corel-Layer"/>
 </g>
 <g id="Layer_x0020_1_1">
  <metadata id="CorelCorpID_2Corel-Layer"/>
 </g>
 <g id="Layer_x0020_1_2">
  <metadata id="CorelCorpID_3Corel-Layer"/>
  <path class="fil0" d="M1867 641c-98,3 -201,-31 -269,-101 -59,-61 -83,-140 -81,-222 3,-90 38,-180 109,-237 65,-53 156,-79 240,-81 90,-2 168,22 238,78 119,96 163,261 163,406 0,94 -18,187 -61,271 -95,185 -281,271 -487,269 -130,-2 -277,-29 -377,-116 -77,84 -192,113 -304,116 -163,3 -312,-73 -368,-229 -35,-95 -35,-203 -35,-304 0,-124 -4,-380 -182,-380 -179,0 -249,239 -251,380 -2,162 70,369 239,430 23,9 45,27 45,47 1,10 -4,20 -17,30 -21,18 -50,26 -79,26 -25,0 -51,-6 -73,-14 -216,-85 -320,-300 -317,-519 5,-272 157,-491 453,-491 327,0 384,220 384,491 0,94 -1,193 32,283 24,68 87,141 168,139 143,-3 185,-141 185,-259l0 -598c0,-42 69,-56 101,-56 33,0 102,14 102,56l0 574c0,174 120,281 295,283 134,1 239,-83 297,-197 23,-47 39,-99 45,-151 -53,49 -122,73 -195,76zm154 -323c0,-91 -45,-207 -155,-207 -106,0 -154,118 -154,206 0,91 46,207 154,207 108,0 155,-116 155,-206z"/>
 </g>
</svg>
