<?xml version="1.0" encoding="UTF-8"?>
<!DOCTYPE svg PUBLIC "-//W3C//DTD SVG 1.1//EN" "http://www.w3.org/Graphics/SVG/1.1/DTD/svg11.dtd">
<!-- Creator: CorelDRAW X8 -->
<svg xmlns="http://www.w3.org/2000/svg" xml:space="preserve" width="1381px" height="600px" version="1.1" style="shape-rendering:geometricPrecision; text-rendering:geometricPrecision; image-rendering:optimizeQuality; fill-rule:evenodd; clip-rule:evenodd"
viewBox="0 0 1381 600"
 xmlns:xlink="http://www.w3.org/1999/xlink">
 <defs>
  <style type="text/css">
   <![CDATA[
    .fil0 {fill:#5B5A50;fill-rule:nonzero}
   ]]>
  </style>
 </defs>
 <g id="Layer_x0020_1">
  <metadata id="CorelCorpID_0Corel-Layer"/>
  <path class="fil0" d="M876 35l0 334c0,97 68,161 167,162 34,0 65,-10 93,-29 31,-20 56,-50 74,-84 11,-22 20,-45 24,-69 -30,19 -66,27 -102,28 -62,2 -129,-16 -173,-61 -35,-35 -50,-80 -49,-129 2,-53 23,-105 66,-138 42,-33 100,-48 153,-49 57,-1 109,12 154,47 71,56 98,151 98,237 0,54 -11,109 -37,157 -28,54 -69,92 -118,118 -54,29 -118,42 -185,41 -76,-1 -162,-15 -224,-60 -49,44 -118,59 -183,60 -100,2 -196,-38 -232,-135 -21,-56 -21,-118 -21,-177 0,-47 -2,-98 -16,-143 -13,-38 -37,-76 -83,-76 -39,0 -69,26 -91,56 -32,45 -48,109 -49,163 -1,95 43,215 142,249 22,8 41,28 18,46 -28,23 -78,20 -110,8 -129,-49 -194,-172 -192,-303 1,-75 23,-152 75,-208 54,-58 129,-80 207,-80 80,0 159,19 202,91 34,56 39,133 39,197 0,54 -1,112 19,164 12,33 50,80 89,79 78,-1 102,-86 102,-149l0 -347c0,-28 51,-35 71,-35 21,0 72,7 72,35zm337 152c0,-25 -5,-50 -18,-73 -14,-24 -36,-45 -64,-45 -29,0 -53,24 -67,49 -11,21 -16,45 -16,69 0,25 5,50 17,72 14,24 37,46 65,46 27,0 49,-20 63,-43 14,-23 20,-48 20,-75z"/>
 </g>
</svg>
