<?xml version="1.0" encoding="UTF-8"?>
<!DOCTYPE svg PUBLIC "-//W3C//DTD SVG 1.1//EN" "http://www.w3.org/Graphics/SVG/1.1/DTD/svg11.dtd">
<!-- Creator: CorelDRAW X8 -->
<svg xmlns="http://www.w3.org/2000/svg" xml:space="preserve" width="2280px" height="1486px" version="1.1" style="shape-rendering:geometricPrecision; text-rendering:geometricPrecision; image-rendering:optimizeQuality; fill-rule:evenodd; clip-rule:evenodd"
viewBox="0 0 2280 1486"
 xmlns:xlink="http://www.w3.org/1999/xlink">
 <defs>
  <style type="text/css">
   <![CDATA[
    .fil0 {fill:#A82682;fill-rule:nonzero}
   ]]>
  </style>
 </defs>
 <g id="Layer_x0020_1">
  <metadata id="CorelCorpID_0Corel-Layer"/>
  <path class="fil0" d="M2255 362c16,80 25,164 25,239 0,136 -19,273 -74,399 -72,162 -193,280 -345,370 -105,62 -230,92 -350,106 -61,7 -122,10 -184,10 -74,0 -151,-6 -223,-25 -72,-19 -189,-69 -189,-157 1,-89 121,-138 194,-157 70,-17 145,-23 216,-23 66,0 133,5 197,20 77,17 208,66 208,161 137,-66 245,-220 303,-356 -90,56 -199,76 -314,75 -130,-2 -277,-29 -377,-117 -77,84 -192,114 -304,117 -163,3 -312,-74 -368,-230 -35,-97 -36,-198 -36,-300 0,-124 -3,-382 -181,-382 -179,0 -249,241 -251,382 -2,163 70,365 239,427 36,13 65,47 28,77 -40,33 -105,30 -152,12 -216,-85 -321,-295 -317,-516 4,-273 157,-494 453,-494 327,0 383,222 383,494 0,95 0,188 33,278 24,68 87,142 168,140 143,-3 185,-142 185,-261l-1 -595c0,-42 70,-56 102,-56 32,0 101,14 101,56l1 572c0,175 120,282 295,284 134,1 239,-76 296,-191 24,-48 39,-100 46,-152 -54,49 -122,74 -195,76 -98,3 -201,-30 -269,-102 -59,-61 -83,-140 -81,-223 3,-90 37,-181 109,-239 65,-53 156,-79 239,-81 90,-2 169,22 239,79 85,69 130,175 151,283zm-234 -42c0,-92 -46,-208 -155,-208 -107,0 -154,118 -154,208 0,91 46,208 154,208 108,0 155,-117 155,-208zm-696 908c-52,0 -116,5 -165,23 -21,9 -56,26 -56,53 -1,27 34,45 56,54 49,18 113,23 165,23 47,0 95,-4 140,-17 26,-7 77,-27 77,-60 -1,-32 -50,-51 -76,-59 -45,-13 -94,-17 -141,-17z"/>
 </g>
</svg>
