<?xml version="1.0" encoding="UTF-8"?>
<!DOCTYPE svg PUBLIC "-//W3C//DTD SVG 1.1//EN" "http://www.w3.org/Graphics/SVG/1.1/DTD/svg11.dtd">
<!-- Creator: CorelDRAW X8 -->
<svg xmlns="http://www.w3.org/2000/svg" xml:space="preserve" width="2628px" height="1486px" version="1.1" style="shape-rendering:geometricPrecision; text-rendering:geometricPrecision; image-rendering:optimizeQuality; fill-rule:evenodd; clip-rule:evenodd"
viewBox="0 0 2628 1486"
 xmlns:xlink="http://www.w3.org/1999/xlink">
 <defs>
  <style type="text/css">
   <![CDATA[
    .fil0 {fill:#A82682;fill-rule:nonzero}
   ]]>
  </style>
 </defs>
 <g id="Layer_x0020_1">
  <metadata id="CorelCorpID_0Corel-Layer"/>
  <path class="fil0" d="M1784 56l1 571c0,176 120,283 295,285 134,1 239,-77 296,-192 24,-47 39,-99 46,-151 -54,49 -122,73 -195,76 -98,3 -201,-31 -269,-102 -59,-61 -83,-140 -81,-223 3,-90 37,-181 109,-239 65,-53 156,-79 239,-81 90,-2 169,22 239,79 124,101 162,270 164,421 1,145 -22,271 -66,380 -94,239 -286,399 -523,494 -210,83 -446,112 -671,112 -335,0 -706,-70 -978,-252 -214,-144 -366,-357 -388,-661 -15,-211 62,-436 250,-553 40,-25 101,-26 143,-5 39,19 47,54 8,78 -155,97 -210,302 -198,473 18,272 146,463 330,590 227,157 540,218 833,218 199,0 417,-30 606,-113 139,-61 262,-150 350,-276 -77,32 -162,39 -245,39 -130,-2 -277,-29 -377,-117 -77,84 -192,114 -304,117 -163,3 -312,-74 -368,-230 -35,-97 -36,-199 -36,-300 0,-69 -1,-167 -27,-247 -24,-76 -69,-135 -154,-135 -179,0 -249,241 -251,382 -2,163 70,365 239,427 36,13 65,46 28,77 -40,33 -105,29 -152,11 -216,-84 -321,-294 -317,-515 4,-273 157,-494 453,-494 169,0 265,60 319,153 52,91 64,212 64,341 0,95 0,188 33,278 24,68 87,142 168,140 143,-3 185,-142 185,-261l-1 -595c0,-42 70,-56 102,-56 32,0 101,14 101,56zm597 264c0,-92 -46,-208 -155,-208 -107,0 -154,118 -154,208 0,90 45,208 154,208 108,0 155,-117 155,-208z"/>
 </g>
</svg>
