<?xml version="1.0" encoding="UTF-8"?>
<!DOCTYPE svg PUBLIC "-//W3C//DTD SVG 1.1//EN" "http://www.w3.org/Graphics/SVG/1.1/DTD/svg11.dtd">
<!-- Creator: CorelDRAW X8 -->
<svg xmlns="http://www.w3.org/2000/svg" xml:space="preserve" width="2628px" height="1486px" version="1.1" style="shape-rendering:geometricPrecision; text-rendering:geometricPrecision; image-rendering:optimizeQuality; fill-rule:evenodd; clip-rule:evenodd"
viewBox="0 0 2628 1486"
 xmlns:xlink="http://www.w3.org/1999/xlink">
 <defs>
  <style type="text/css">
   <![CDATA[
    .fil0 {fill:#5B5A50;fill-rule:nonzero}
   ]]>
  </style>
 </defs>
 <g id="Layer_x0020_1">
  <metadata id="CorelCorpID_0Corel-Layer"/>
  <path class="fil0" d="M1785 56l0 572c0,175 120,282 295,284 134,1 239,-76 296,-192 24,-47 40,-99 46,-151 -54,49 -122,74 -195,76 -98,3 -201,-30 -269,-102 -59,-61 -83,-140 -81,-223 3,-90 37,-181 109,-239 65,-53 156,-79 239,-81 91,-2 169,22 239,79 124,101 163,270 164,421 1,145 -22,271 -65,380 -95,239 -286,400 -524,494 -210,83 -446,112 -671,112 -335,0 -707,-70 -978,-252 -215,-143 -366,-357 -388,-661 -15,-211 62,-436 250,-553 40,-25 100,-26 142,-5 39,19 48,54 9,78 -155,97 -210,302 -199,473 19,272 147,463 331,590 227,157 540,219 833,219 199,0 417,-31 606,-114 139,-61 263,-150 350,-276 -77,32 -162,40 -245,39 -130,-2 -277,-29 -377,-117 -77,84 -192,114 -304,117 -163,3 -312,-74 -368,-230 -35,-97 -36,-198 -36,-300 0,-69 -1,-166 -27,-247 -24,-76 -69,-135 -155,-135 -178,0 -248,241 -250,382 -2,163 70,365 239,427 36,13 65,47 28,77 -40,34 -106,30 -152,12 -216,-85 -321,-295 -317,-516 4,-273 157,-494 452,-494 169,0 266,60 320,153 52,91 64,213 64,341 0,95 0,188 33,278 24,68 87,142 168,140 143,-3 185,-142 185,-261l-1 -595c0,-42 70,-56 102,-56 32,0 101,14 102,56zm596 264c0,-92 -45,-208 -155,-208 -107,0 -154,119 -154,208 0,90 45,208 154,208 108,0 155,-117 155,-208z"/>
 </g>
</svg>
