<?xml version="1.0" encoding="UTF-8"?>
<!DOCTYPE svg PUBLIC "-//W3C//DTD SVG 1.1//EN" "http://www.w3.org/Graphics/SVG/1.1/DTD/svg11.dtd">
<!-- Creator: CorelDRAW X8 -->
<svg xmlns="http://www.w3.org/2000/svg" xml:space="preserve" width="2281px" height="1486px" version="1.1" style="shape-rendering:geometricPrecision; text-rendering:geometricPrecision; image-rendering:optimizeQuality; fill-rule:evenodd; clip-rule:evenodd"
viewBox="0 0 2281 1487"
 xmlns:xlink="http://www.w3.org/1999/xlink">
 <defs>
  <style type="text/css">
   <![CDATA[
    .fil0 {fill:#2B2A29;fill-rule:nonzero}
   ]]>
  </style>
 </defs>
 <g id="Layer_x0020_1">
  <metadata id="CorelCorpID_0Corel-Layer"/>
  <path class="fil0" d="M1326 1382c-52,0 -116,-6 -166,-24 -22,-8 -56,-26 -56,-52 0,-29 34,-45 56,-54 50,-18 114,-24 166,-24 47,0 96,4 141,18 26,8 75,26 76,58 0,34 -51,54 -77,60 -45,14 -93,18 -140,18zm397 -358c114,0 223,-27 314,-84 -41,135 -172,301 -306,366 0,-96 -131,-144 -208,-162 -64,-15 -131,-20 -197,-20 -72,0 -146,6 -217,24 -73,18 -194,68 -194,156 0,88 117,138 189,158 72,19 150,25 222,25 93,0 187,-7 279,-25 90,-17 179,-46 257,-92 152,-90 273,-208 345,-370 55,-126 74,-263 74,-399 0,-176 -33,-408 -176,-523 -67,-54 -142,-78 -228,-78 -87,0 -182,25 -250,81 -73,59 -109,154 -109,246 0,79 24,154 81,213 65,67 163,101 257,101 76,0 150,-24 207,-76 -6,52 -22,104 -45,151 -58,113 -162,197 -295,197 -172,0 -297,-106 -297,-283l0 -574c0,-42 -69,-56 -102,-56 -32,0 -102,14 -102,56l0 598c0,124 -40,259 -185,259 -79,0 -144,-72 -169,-139 -31,-88 -31,-182 -31,-274 -1,-105 -2,-217 -47,-314 -63,-137 -190,-186 -337,-186 -194,0 -342,98 -412,275 -28,72 -41,148 -41,225 0,222 107,423 317,510 21,9 46,14 71,14 30,0 59,-8 81,-26 12,-10 17,-21 17,-31 0,-19 -20,-37 -45,-46 -166,-59 -238,-260 -239,-421 0,-64 12,-123 33,-185 33,-95 102,-204 218,-204 80,0 126,55 151,124 29,82 30,179 30,265 1,100 1,200 36,295 55,153 208,229 367,229 113,0 227,-29 306,-116 101,88 250,116 380,116zm144 -500c-108,0 -154,-116 -154,-207 0,-88 48,-206 154,-206 110,0 155,116 155,207 0,90 -47,206 -155,206z"/>
 </g>
</svg>
