<?xml version="1.0" encoding="UTF-8"?>
<!DOCTYPE svg PUBLIC "-//W3C//DTD SVG 1.1//EN" "http://www.w3.org/Graphics/SVG/1.1/DTD/svg11.dtd">
<!-- Creator: CorelDRAW X8 -->
<svg xmlns="http://www.w3.org/2000/svg" xml:space="preserve" width="2345px" height="1024px" version="1.1" style="shape-rendering:geometricPrecision; text-rendering:geometricPrecision; image-rendering:optimizeQuality; fill-rule:evenodd; clip-rule:evenodd"
viewBox="0 0 2345 1024"
 xmlns:xlink="http://www.w3.org/1999/xlink">
 <defs>
  <style type="text/css">
   <![CDATA[
    .fil0 {fill:#EF7F1A;fill-rule:nonzero}
   ]]>
  </style>
 </defs>
 <g id="Layer_x0020_1">
  <metadata id="CorelCorpID_0Corel-Layer"/>
  <path class="fil0" d="M1986 1024c25,0 51,-6 72,-15 198,-86 287,-292 287,-498 0,-85 -14,-172 -51,-249 -83,-172 -261,-262 -450,-262 -115,0 -232,36 -315,117 -79,-81 -180,-117 -292,-117 -113,0 -224,39 -303,120 -102,-89 -255,-119 -389,-119 -202,0 -389,83 -484,269 -43,84 -61,176 -61,270 0,145 44,310 162,405 69,56 150,80 238,79 86,0 174,-27 240,-81 73,-59 109,-154 109,-246 0,-79 -24,-154 -81,-213 -65,-67 -163,-101 -257,-101 -77,0 -150,24 -207,76 7,-52 22,-104 46,-151 58,-115 162,-197 295,-197 173,0 297,101 297,280l0 578c0,41 69,55 101,55 33,0 101,-14 101,-55l0 -599c0,-116 54,-258 193,-258 138,0 191,143 191,257l0 599c0,41 69,56 102,56 32,0 101,-15 101,-56l0 -599c0,-133 61,-257 213,-257 122,0 222,94 264,200 26,63 35,132 35,199 0,152 -63,350 -215,413 -24,10 -40,27 -40,45 0,11 6,23 20,33 22,16 50,22 78,22zm-1586 -111c-109,0 -156,-116 -155,-207 0,-90 47,-206 155,-206 108,0 154,116 154,206 0,89 -47,207 -154,207z"/>
 </g>
</svg>
