<?xml version="1.0" encoding="UTF-8"?>
<!DOCTYPE svg PUBLIC "-//W3C//DTD SVG 1.1//EN" "http://www.w3.org/Graphics/SVG/1.1/DTD/svg11.dtd">
<!-- Creator: CorelDRAW X8 -->
<svg xmlns="http://www.w3.org/2000/svg" xml:space="preserve" width="2345px" height="1024px" version="1.1" style="shape-rendering:geometricPrecision; text-rendering:geometricPrecision; image-rendering:optimizeQuality; fill-rule:evenodd; clip-rule:evenodd"
viewBox="0 0 2345 1024"
 xmlns:xlink="http://www.w3.org/1999/xlink">
 <defs>
  <style type="text/css">
   <![CDATA[
    .fil0 {fill:#5B5A50;fill-rule:nonzero}
   ]]>
  </style>
 </defs>
 <g id="Layer_x0020_1">
  <metadata id="CorelCorpID_0Corel-Layer"/>
  <path class="fil0" d="M1238 0c111,1 213,38 291,117 83,-81 199,-117 315,-117 189,0 367,90 449,262 39,80 53,170 52,258 -3,201 -91,403 -287,489 -45,20 -109,22 -150,-7 -38,-28 -18,-62 20,-78 151,-63 212,-256 214,-404 2,-70 -8,-142 -35,-208 -42,-106 -141,-200 -263,-200 -152,0 -213,124 -213,257l0 599c0,41 -69,55 -101,55 -33,0 -102,-14 -102,-55l0 -599c0,-114 -53,-257 -191,-257 -139,0 -193,142 -193,258l0 598c0,42 -68,56 -101,56 -32,0 -101,-14 -101,-56l0 -575c0,0 0,0 0,0l0 0 0 0 0 0 0 0c-7,0 -1,0 0,0l0 0 0 -2c-1,-180 -125,-281 -300,-280 -132,1 -235,85 -292,197 -24,47 -39,99 -46,151 54,-49 122,-73 195,-76 98,-3 201,31 269,101 59,61 83,140 81,222 -3,89 -37,179 -109,237 -66,54 -154,80 -239,81 -89,0 -170,-23 -238,-79 -119,-95 -163,-260 -163,-405 0,-94 18,-187 61,-270 93,-181 280,-268 480,-269 136,-1 289,28 393,119 80,-82 190,-121 304,-120zm-992 706c-1,91 45,207 154,207 107,0 154,-118 154,-207 0,-90 -45,-206 -154,-206 -108,0 -154,116 -154,206z"/>
 </g>
</svg>
