<?xml version="1.0" encoding="UTF-8"?>
<!DOCTYPE svg PUBLIC "-//W3C//DTD SVG 1.1//EN" "http://www.w3.org/Graphics/SVG/1.1/DTD/svg11.dtd">
<!-- Creator: CorelDRAW X8 -->
<svg xmlns="http://www.w3.org/2000/svg" xml:space="preserve" width="1428px" height="600px" version="1.1" style="shape-rendering:geometricPrecision; text-rendering:geometricPrecision; image-rendering:optimizeQuality; fill-rule:evenodd; clip-rule:evenodd"
viewBox="0 0 1428 600"
 xmlns:xlink="http://www.w3.org/1999/xlink">
 <defs>
  <style type="text/css">
   <![CDATA[
    .fil0 {fill:#A82682;fill-rule:nonzero}
   ]]>
  </style>
 </defs>
 <g id="Layer_x0020_1">
  <metadata id="CorelCorpID_0Corel-Layer"/>
  <path class="fil0" d="M754 0c64,1 125,18 174,60 52,-43 122,-60 189,-60 115,0 228,49 280,154 23,47 32,100 31,151 -2,120 -57,235 -173,285 -31,13 -81,15 -110,-5 -24,-16 -10,-37 13,-46 89,-36 126,-147 128,-234 0,-41 -6,-83 -21,-121 -24,-57 -82,-115 -148,-115 -83,0 -117,76 -117,148l0 348c0,28 -52,35 -72,35 -20,0 -71,-8 -71,-35l0 -348c0,-60 -31,-148 -104,-148 -74,1 -106,88 -106,148l0 349c0,27 -50,34 -71,34 -20,0 -71,-7 -71,-34l0 -335c0,-100 -67,-162 -169,-162 -73,1 -133,52 -165,113 -12,22 -20,45 -25,69 31,-18 66,-27 102,-28 63,-2 129,16 174,61 35,35 50,80 48,129 -1,53 -23,105 -65,138 -43,34 -100,48 -154,49 -56,0 -109,-13 -153,-47 -71,-56 -98,-151 -98,-237 0,-54 11,-109 37,-157 58,-111 176,-158 298,-159 79,0 170,14 235,62 50,-44 117,-63 184,-62zm-586 413c0,31 7,63 28,88 13,16 33,30 55,30 19,-1 37,-13 50,-26 22,-24 32,-61 32,-93 0,-32 -10,-67 -32,-91 -13,-14 -31,-26 -51,-26 -22,0 -41,15 -54,31 -20,24 -28,56 -28,87z"/>
 </g>
</svg>
