<?xml version="1.0" encoding="UTF-8"?>
<!DOCTYPE svg PUBLIC "-//W3C//DTD SVG 1.1//EN" "http://www.w3.org/Graphics/SVG/1.1/DTD/svg11.dtd">
<!-- Creator: CorelDRAW X8 -->
<svg xmlns="http://www.w3.org/2000/svg" xml:space="preserve" width="2834px" height="1412px" version="1.1" style="shape-rendering:geometricPrecision; text-rendering:geometricPrecision; image-rendering:optimizeQuality; fill-rule:evenodd; clip-rule:evenodd"
viewBox="0 0 2834 1412"
 xmlns:xlink="http://www.w3.org/1999/xlink">
 <defs>
  <style type="text/css">
   <![CDATA[
    .fil0 {fill:#996633;fill-rule:nonzero}
   ]]>
  </style>
 </defs>
 <g id="Layer_x0020_1">
  <metadata id="CorelCorpID_0Corel-Layer"/>
  <path class="fil0" d="M1530 117c92,-80 242,-117 363,-117 184,1 359,55 481,196 311,65 467,324 460,625 -9,342 -225,585 -581,591 -135,2 -287,-33 -395,-117 -13,-10 -18,-21 -18,-31 -1,-19 19,-37 43,-46 17,-7 38,-11 59,-11 30,1 61,8 82,24 63,50 147,72 228,69 253,-7 372,-250 379,-472 5,-151 -36,-316 -146,-426 17,59 24,121 23,182 -1,96 -23,190 -74,272 -69,113 -188,169 -320,168 -125,-1 -242,-49 -313,-154 -45,-67 -67,-150 -67,-230 0,-98 33,-192 93,-271 75,-99 188,-156 310,-177 -68,-53 -157,-83 -244,-81 -158,3 -262,105 -262,261l0 596c0,41 -69,56 -101,56 -32,0 -101,-15 -101,-56l0 -597c0,-114 -54,-258 -191,-258 -140,0 -194,143 -194,259l0 596c0,42 -68,56 -101,56 -32,0 -101,-14 -101,-56l0 -572c0,-1 1,0 0,0l0 0 0 0 0 0 0 0c-7,0 -1,0 0,0l0 0 0 -3c0,-181 -125,-282 -300,-281 -132,1 -235,85 -292,198 -24,48 -39,97 -45,149 53,-49 121,-73 194,-76 98,-3 201,31 269,102 59,61 84,136 81,220 -2,89 -37,180 -108,238 -67,54 -155,80 -240,81 -89,0 -169,-23 -238,-79 -119,-96 -163,-258 -163,-404 0,-94 18,-185 61,-270 93,-182 280,-269 481,-270 135,-1 289,28 392,119 80,-81 190,-121 304,-120 110,1 215,41 292,117zm700 178c-88,4 -165,48 -217,117 -51,67 -76,145 -76,228 0,66 16,136 53,191 29,42 72,80 126,81 57,1 100,-48 127,-92 44,-71 62,-153 63,-236 1,-101 -20,-203 -76,-289zm-1984 409c-1,92 45,208 154,208 107,0 154,-118 154,-207 0,-91 -45,-205 -153,-205 -109,0 -155,113 -155,204z"/>
 </g>
</svg>
