<?xml version="1.0" encoding="UTF-8"?>
<!DOCTYPE svg PUBLIC "-//W3C//DTD SVG 1.1//EN" "http://www.w3.org/Graphics/SVG/1.1/DTD/svg11.dtd">
<!-- Creator: CorelDRAW X8 -->
<svg xmlns="http://www.w3.org/2000/svg" xml:space="preserve" width="3546px" height="1486px" version="1.1" style="shape-rendering:geometricPrecision; text-rendering:geometricPrecision; image-rendering:optimizeQuality; fill-rule:evenodd; clip-rule:evenodd"
viewBox="0 0 3546 1486"
 xmlns:xlink="http://www.w3.org/1999/xlink">
 <defs>
  <style type="text/css">
   <![CDATA[
    .fil0 {fill:#A82682;fill-rule:nonzero}
   ]]>
  </style>
 </defs>
 <g id="Layer_x0020_1">
  <metadata id="CorelCorpID_0Corel-Layer"/>
  <path class="fil0" d="M2718 1229c-52,0 -116,4 -165,23 -22,8 -56,26 -57,53 0,27 35,45 57,53 49,19 113,23 165,23 46,0 95,-3 140,-16 26,-8 77,-27 76,-60 0,-33 -49,-52 -75,-59 -45,-14 -94,-17 -141,-17zm-691 -734c0,-86 -1,-178 -31,-260 -25,-69 -70,-124 -151,-124 -149,0 -214,121 -214,257l0 600c0,41 -69,55 -101,55 -32,0 -102,-14 -102,-55l0 -600c0,-113 -53,-256 -191,-256 -139,0 -193,142 -193,257l0 599c0,42 -68,56 -101,56 -32,0 -101,-14 -101,-56l0 -575c0,0 1,0 0,0l0 0 0 0 0 0 0 0c-7,0 -1,0 0,0l0 0 0 -3c0,-180 -125,-280 -300,-279 -132,1 -235,84 -292,197 -24,47 -39,98 -46,150 54,-48 122,-73 195,-75 98,-3 201,30 269,101 59,61 83,139 81,222 -3,89 -37,179 -109,237 -66,54 -154,80 -239,80 -89,1 -170,-22 -238,-78 -119,-96 -163,-261 -163,-406 0,-93 18,-186 61,-270 93,-181 279,-268 481,-269 135,-1 289,28 392,119 80,-81 190,-121 304,-119 111,1 213,38 291,116 84,-81 202,-116 316,-116 148,0 274,48 338,186 45,97 46,205 46,310 0,93 0,187 32,276 25,69 88,142 168,141 143,-3 185,-136 185,-256l0 -600c0,-42 69,-56 102,-56 32,0 101,14 101,56l0 599c0,135 61,256 213,256 122,0 221,-88 264,-195 25,-61 35,-129 35,-195 1,-152 -60,-356 -215,-421 -36,-16 -59,-50 -19,-78 40,-30 102,-28 146,-9 162,70 243,209 279,373 20,92 27,188 26,282 -1,76 -7,152 -21,227 -38,197 -129,369 -308,474 -93,55 -210,86 -317,102 -61,9 -123,14 -184,14 -73,1 -149,-6 -219,-25 -72,-19 -189,-68 -189,-157 0,-89 121,-138 194,-156 69,-18 145,-24 216,-24 66,0 132,6 197,20 73,17 196,62 207,148 116,-81 178,-209 202,-345 -34,22 -71,33 -110,47 -58,20 -120,30 -184,30 -110,0 -227,-26 -310,-102 -76,75 -185,102 -290,102 -159,0 -312,-77 -368,-230 -35,-97 -35,-197 -35,-299zm-1781 211c-1,91 45,206 154,206 107,1 154,-117 154,-206 0,-90 -45,-207 -153,-207 -109,0 -155,116 -155,207z"/>
 </g>
</svg>
