<?xml version="1.0" encoding="UTF-8"?>
<!DOCTYPE svg PUBLIC "-//W3C//DTD SVG 1.1//EN" "http://www.w3.org/Graphics/SVG/1.1/DTD/svg11.dtd">
<!-- Creator: CorelDRAW X8 -->
<svg xmlns="http://www.w3.org/2000/svg" xml:space="preserve" width="2468px" height="1024px" version="1.1" style="shape-rendering:geometricPrecision; text-rendering:geometricPrecision; image-rendering:optimizeQuality; fill-rule:evenodd; clip-rule:evenodd"
viewBox="0 0 2466 1023"
 xmlns:xlink="http://www.w3.org/1999/xlink">
 <defs>
  <style type="text/css">
   <![CDATA[
    .fil0 {fill:#669933;fill-rule:nonzero}
   ]]>
  </style>
 </defs>
 <g id="Layer_x0020_1">
  <metadata id="CorelCorpID_0Corel-Layer"/>
  <path class="fil0" d="M1590 977c0,25 -36,46 -81,46 -45,0 -81,-21 -81,-46l0 -610c0,-130 -62,-275 -211,-275 -151,0 -213,143 -213,274l0 612c0,25 -36,45 -81,45 -45,0 -81,-20 -81,-45l0 -588c0,-197 -137,-300 -321,-298 -143,0 -251,89 -310,209 -32,64 -49,136 -50,209 52,-75 130,-116 219,-119 98,-3 191,34 250,98 54,56 81,133 79,221 -3,89 -37,179 -105,236 -59,48 -139,76 -224,77 -83,1 -157,-22 -221,-75 -111,-91 -159,-252 -159,-408 0,-102 21,-195 60,-273 82,-163 249,-265 461,-266 140,-1 295,31 394,133 75,-90 185,-135 302,-134 110,1 213,41 290,131 86,-90 243,-131 364,-131 216,1 376,78 479,211 83,107 118,236 116,371 -1,98 -24,198 -72,278 -69,114 -183,164 -302,163 -118,-1 -227,-48 -294,-149 -43,-64 -65,-146 -65,-229 0,-99 31,-199 91,-278 78,-103 196,-161 323,-177 -75,-67 -179,-101 -276,-99 -148,3 -281,90 -281,276l0 610zm-1384 -267c-1,147 84,222 174,222 84,0 173,-73 174,-222 0,-148 -87,-222 -174,-222 -87,0 -174,74 -174,222zm2016 -433c-100,0 -189,46 -249,126 -52,69 -77,155 -77,242 0,73 18,144 54,198 33,49 82,88 144,89 56,0 105,-34 146,-101 43,-72 63,-161 64,-249 2,-108 -22,-215 -82,-305z"/>
 </g>
</svg>
