<?xml version="1.0" encoding="UTF-8"?>
<!DOCTYPE svg PUBLIC "-//W3C//DTD SVG 1.1//EN" "http://www.w3.org/Graphics/SVG/1.1/DTD/svg11.dtd">
<!-- Creator: CorelDRAW X8 -->
<svg xmlns="http://www.w3.org/2000/svg" xml:space="preserve" width="3546px" height="1487px" version="1.1" style="shape-rendering:geometricPrecision; text-rendering:geometricPrecision; image-rendering:optimizeQuality; fill-rule:evenodd; clip-rule:evenodd"
viewBox="0 0 3546 1487"
 xmlns:xlink="http://www.w3.org/1999/xlink">
 <defs>
  <style type="text/css">
   <![CDATA[
    .fil0 {fill:#5B5A50;fill-rule:nonzero}
   ]]>
  </style>
 </defs>
 <g id="Layer_x0020_1">
  <metadata id="CorelCorpID_0Corel-Layer"/>
  <path class="fil0" d="M2718 1229c-52,0 -116,5 -165,23 -22,9 -56,26 -57,53 0,27 35,45 57,53 48,19 113,24 165,24 46,0 95,-4 140,-17 26,-7 77,-27 76,-60 0,-32 -49,-52 -75,-59 -45,-13 -94,-17 -141,-17zm-691 -733c0,-86 -1,-179 -31,-261 -25,-69 -70,-124 -151,-124 -149,0 -214,121 -214,258l0 599c0,41 -69,55 -101,55 -32,0 -102,-14 -102,-55l0 -599c0,-114 -53,-257 -191,-257 -139,0 -193,142 -193,258l0 599c0,41 -68,55 -101,55 -32,0 -101,-14 -101,-55l0 -576c0,0 1,0 0,0l0 0 0 0 0 0 0 0c-7,0 -1,0 0,0l0 0 0 -2c0,-180 -125,-281 -300,-280 -132,1 -235,85 -292,197 -24,47 -39,99 -46,151 54,-49 122,-73 195,-76 98,-3 201,31 269,101 59,61 83,140 81,222 -3,89 -37,179 -109,237 -66,54 -154,80 -239,81 -89,0 -169,-23 -238,-79 -119,-95 -163,-260 -163,-405 0,-94 18,-187 61,-270 93,-181 280,-268 481,-269 135,-1 289,28 392,119 80,-82 190,-121 304,-120 111,1 213,38 291,117 84,-81 202,-117 316,-117 148,0 274,49 338,186 45,97 46,205 46,310 0,93 0,187 32,277 25,68 88,142 168,140 143,-3 185,-136 185,-255l0 -601c0,-42 69,-56 102,-56 32,0 101,14 101,56l0 600c0,135 61,256 213,256 122,0 221,-88 264,-195 25,-62 35,-129 35,-195 1,-153 -60,-357 -215,-422 -36,-15 -59,-49 -19,-78 40,-29 102,-28 146,-9 162,70 243,210 279,374 20,91 27,188 26,281 -1,76 -7,153 -22,227 -37,198 -128,369 -307,475 -93,55 -210,85 -317,101 -61,9 -123,14 -184,15 -73,0 -149,-7 -219,-26 -72,-19 -189,-68 -189,-156 0,-90 121,-139 194,-157 69,-18 145,-23 216,-23 66,0 132,5 197,20 73,16 196,62 207,147 116,-81 178,-209 202,-345 -34,23 -71,34 -110,47 -58,20 -120,31 -184,31 -110,0 -227,-27 -310,-102 -76,75 -185,102 -290,102 -159,0 -312,-77 -368,-231 -35,-97 -35,-197 -35,-298zm-1781 210c-1,91 45,207 154,207 107,0 154,-118 154,-207 0,-90 -45,-206 -153,-206 -109,0 -155,116 -155,206z"/>
 </g>
</svg>
