<?xml version="1.0" encoding="UTF-8"?>
<!DOCTYPE svg PUBLIC "-//W3C//DTD SVG 1.1//EN" "http://www.w3.org/Graphics/SVG/1.1/DTD/svg11.dtd">
<!-- Creator: CorelDRAW X8 -->
<svg xmlns="http://www.w3.org/2000/svg" xml:space="preserve" width="1526px" height="600px" version="1.1" style="shape-rendering:geometricPrecision; text-rendering:geometricPrecision; image-rendering:optimizeQuality; fill-rule:evenodd; clip-rule:evenodd"
viewBox="0 0 1526 600"
 xmlns:xlink="http://www.w3.org/1999/xlink">
 <defs>
  <style type="text/css">
   <![CDATA[
    .fil0 {fill:#5B5A50;fill-rule:nonzero}
   ]]>
  </style>
 </defs>
 <g id="Layer_x0020_1">
  <metadata id="CorelCorpID_0Corel-Layer"/>
  <path class="fil0" d="M754 0c64,1 126,18 175,61 58,-42 146,-61 217,-61 118,0 233,33 309,126 51,61 72,136 71,214 -1,56 -14,113 -44,161 -45,70 -121,100 -204,99 -77,-1 -152,-26 -197,-91 -27,-39 -40,-86 -40,-133 0,-57 19,-115 55,-161 46,-57 113,-90 185,-103 -37,-27 -87,-44 -134,-43 -88,1 -147,61 -147,148l0 348c0,28 -51,35 -71,35 -21,0 -72,-7 -72,-35l0 -348c0,-60 -31,-148 -104,-147 -74,0 -105,87 -105,147l0 349c0,27 -51,34 -71,34 -21,0 -71,-7 -71,-34l0 -335c0,-100 -68,-162 -170,-162 -73,1 -133,52 -165,113 -11,22 -20,45 -24,69 30,-18 66,-27 101,-28 63,-2 129,16 174,61 35,35 50,80 48,129 -1,53 -22,105 -65,138 -43,34 -100,48 -154,49 -56,0 -109,-12 -153,-47 -71,-56 -98,-151 -98,-237 0,-54 11,-109 37,-157 58,-111 176,-158 298,-159 80,0 171,14 235,62 51,-44 117,-63 184,-62zm524 531c33,0 57,-24 72,-51 22,-39 33,-96 33,-140 0,-55 -13,-117 -43,-164 -47,5 -86,28 -113,66 -27,38 -41,86 -42,132 -1,31 3,64 15,93 14,32 39,64 78,64zm-1110 -118c0,31 7,63 28,88 13,16 33,30 55,30 19,-1 37,-12 50,-26 22,-24 32,-61 32,-93 0,-32 -10,-67 -32,-91 -13,-14 -31,-26 -51,-26 -21,0 -41,15 -54,31 -20,24 -28,56 -28,87z"/>
 </g>
</svg>
