<?xml version="1.0" encoding="UTF-8"?>
<!DOCTYPE svg PUBLIC "-//W3C//DTD SVG 1.1//EN" "http://www.w3.org/Graphics/SVG/1.1/DTD/svg11.dtd">
<!-- Creator: CorelDRAW X8 -->
<svg xmlns="http://www.w3.org/2000/svg" xml:space="preserve" width="2859px" height="1486px" version="1.1" style="shape-rendering:geometricPrecision; text-rendering:geometricPrecision; image-rendering:optimizeQuality; fill-rule:evenodd; clip-rule:evenodd"
viewBox="0 0 2859 1486"
 xmlns:xlink="http://www.w3.org/1999/xlink">
 <defs>
  <style type="text/css">
   <![CDATA[
    .fil0 {fill:#5B5A50;fill-rule:nonzero}
   ]]>
  </style>
 </defs>
 <g id="Layer_x0020_1">
  <metadata id="CorelCorpID_0Corel-Layer"/>
  <path class="fil0" d="M2596 596c177,9 263,143 263,307 0,299 -292,433 -545,498 -284,73 -598,85 -890,85 -310,0 -699,-48 -972,-198 -283,-155 -451,-400 -452,-723 -1,-216 98,-425 282,-545 38,-25 102,-26 143,-7 39,18 51,53 12,79 -156,102 -235,292 -234,473 0,283 142,507 391,644 221,121 579,166 830,166 273,0 581,-13 842,-91 187,-57 386,-162 389,-381 1,-71 -29,-153 -104,-178 -81,-26 -160,57 -309,-19 -67,-34 -104,-105 -106,-178 -3,-74 24,-140 89,-180 105,-65 214,-24 325,-9 41,6 70,-1 76,-47 20,-144 -189,-179 -299,-179 -200,-2 -342,61 -342,282l0 574c0,42 -70,56 -102,56 -32,0 -101,-14 -101,-56l0 -599c0,-115 -55,-257 -191,-257 -140,0 -194,142 -194,258l0 599c0,41 -68,55 -101,55 -32,0 -101,-14 -101,-55l0 -576c0,0 1,0 0,0l0 0 0 0 0 0 0 0c-7,0 -1,0 0,0l0 0 0 -2c0,-180 -125,-281 -300,-280 -132,1 -235,85 -292,197 -24,47 -39,99 -46,151 54,-49 122,-73 195,-76 98,-3 201,31 269,101 59,61 84,140 81,222 -3,89 -37,179 -108,237 -67,54 -155,80 -240,81 -89,1 -170,-23 -238,-79 -119,-95 -163,-260 -163,-405 0,-94 18,-187 61,-270 93,-181 280,-268 481,-270 135,0 289,28 392,120 80,-82 190,-121 304,-120 111,1 233,35 307,120 112,-90 286,-120 423,-121 178,-1 502,66 495,293 -5,151 -150,185 -278,167 -48,-7 -116,-27 -161,-17 -38,9 -57,48 -56,84 2,35 22,71 57,81 66,19 146,-15 218,-12zm-1997 111c-1,91 45,207 154,207 107,0 154,-118 154,-207 0,-90 -45,-206 -153,-206 -109,0 -155,116 -155,206z"/>
 </g>
</svg>
