<?xml version="1.0" encoding="UTF-8"?>
<!DOCTYPE svg PUBLIC "-//W3C//DTD SVG 1.1//EN" "http://www.w3.org/Graphics/SVG/1.1/DTD/svg11.dtd">
<!-- Creator: CorelDRAW X8 -->
<svg xmlns="http://www.w3.org/2000/svg" xml:space="preserve" width="3532px" height="1024px" version="1.1" style="shape-rendering:geometricPrecision; text-rendering:geometricPrecision; image-rendering:optimizeQuality; fill-rule:evenodd; clip-rule:evenodd"
viewBox="0 0 3532 1024"
 xmlns:xlink="http://www.w3.org/1999/xlink">
 <defs>
  <style type="text/css">
   <![CDATA[
    .fil0 {fill:#5B5A50;fill-rule:nonzero}
   ]]>
  </style>
 </defs>
 <g id="Layer_x0020_1">
  <metadata id="CorelCorpID_0Corel-Layer"/>
  <path class="fil0" d="M2721 923c-77,74 -186,101 -291,101 -159,0 -312,-76 -368,-229 -34,-95 -35,-199 -35,-299 0,-86 -1,-179 -30,-261 -25,-69 -71,-124 -151,-124 -150,0 -215,121 -215,258l0 599c0,42 -69,56 -101,56 -32,0 -101,-14 -101,-56l0 -599c0,-114 -54,-257 -191,-257 -140,0 -194,142 -194,258l0 599c0,41 -68,55 -101,55 -32,0 -101,-14 -101,-55l0 -576c0,0 1,0 0,0l0 0 0 0 0 0 0 0c-7,0 -1,0 0,0l0 0 0 -2c0,-180 -125,-280 -300,-280 -132,1 -235,85 -292,197 -24,47 -39,99 -46,151 54,-49 122,-73 195,-76 98,-3 201,31 269,101 59,61 84,140 81,222 -2,89 -37,179 -108,237 -67,54 -155,80 -240,81 -89,1 -169,-23 -238,-79 -119,-95 -163,-260 -163,-405 0,-94 18,-186 61,-270 93,-181 280,-268 481,-269 135,-1 289,28 393,119 79,-82 189,-121 303,-120 111,1 213,38 291,117 84,-81 203,-117 317,-117 147,0 274,49 337,186 45,97 46,205 46,310 0,92 1,190 32,278 25,68 88,141 168,139 143,-3 186,-135 186,-254l0 -603c0,-42 69,-56 101,-56 32,0 102,14 102,56l0 603c0,133 60,254 212,254 123,0 222,-94 264,-201 25,-61 35,-128 35,-193 1,-152 -59,-355 -215,-419 -37,-16 -58,-50 -19,-78 39,-28 103,-27 146,-9 204,88 292,299 291,506 0,83 -15,167 -52,243 -82,172 -260,262 -450,262 -110,0 -226,-26 -309,-101zm-2475 -217c-1,91 45,207 154,207 107,0 154,-118 154,-206 0,-91 -45,-207 -153,-207 -109,0 -155,116 -155,206z"/>
 </g>
</svg>
