<?xml version="1.0" encoding="UTF-8"?>
<!DOCTYPE svg PUBLIC "-//W3C//DTD SVG 1.1//EN" "http://www.w3.org/Graphics/SVG/1.1/DTD/svg11.dtd">
<!-- Creator: CorelDRAW X8 -->
<svg xmlns="http://www.w3.org/2000/svg" xml:space="preserve" width="2472px" height="1024px" version="1.1" style="shape-rendering:geometricPrecision; text-rendering:geometricPrecision; image-rendering:optimizeQuality; fill-rule:evenodd; clip-rule:evenodd"
viewBox="0 0 2472 1024"
 xmlns:xlink="http://www.w3.org/1999/xlink">
 <defs>
  <style type="text/css">
   <![CDATA[
    .fil0 {fill:#A82682;fill-rule:nonzero}
   ]]>
  </style>
 </defs>
 <g id="Layer_x0020_1">
  <metadata id="CorelCorpID_0Corel-Layer"/>
  <path class="fil0" d="M1237 112c-139,0 -193,142 -193,258l0 599c0,41 -68,55 -101,55 -32,0 -101,-14 -101,-55l0 -576c0,0 1,0 0,0l0 0 0 0 0 0 0 0c-7,0 -1,0 0,0l0 0 0 -2c-1,-180 -125,-281 -300,-280 -133,1 -235,85 -292,197 -24,47 -39,99 -46,151 54,-49 122,-73 195,-76 98,-3 201,31 269,101 59,61 83,140 81,222 -3,89 -37,179 -109,237 -66,54 -154,80 -240,81 -88,0 -169,-23 -238,-79 -118,-95 -162,-260 -162,-405 0,-94 18,-186 61,-270 93,-181 279,-268 480,-269 136,-1 289,28 393,119 80,-82 190,-121 304,-120 110,1 233,35 307,120 111,-89 284,-119 423,-120 106,0 230,21 326,65 96,44 172,115 169,225 -5,152 -152,184 -278,166 -48,-6 -117,-27 -161,-16 -38,9 -58,47 -56,84 2,34 22,69 57,80 68,19 164,-16 240,-12 116,5 207,82 207,199 0,72 -32,122 -81,157 -77,56 -195,75 -290,75 -90,0 -191,-15 -274,-51 -38,-16 -56,-51 -17,-78 37,-25 101,-27 142,-9 45,19 102,25 151,26 49,1 97,-3 135,-38 22,-22 36,-51 36,-82 -1,-34 -20,-60 -53,-71 -76,-25 -188,54 -332,-19 -67,-34 -104,-104 -107,-177 -2,-73 24,-139 90,-179 105,-64 213,-24 324,-8 53,7 78,-10 78,-65 0,-45 -24,-80 -64,-105 -64,-41 -160,-55 -236,-55 -203,-2 -343,61 -343,282l0 574c0,41 -69,56 -101,56 -32,0 -102,-15 -102,-56l0 -599c0,-115 -54,-257 -191,-257zm-991 594c-1,91 45,207 154,207 107,0 154,-118 154,-207 0,-90 -45,-206 -154,-206 -108,0 -154,116 -154,206z"/>
 </g>
</svg>
