<?xml version="1.0" encoding="UTF-8"?>
<!DOCTYPE svg PUBLIC "-//W3C//DTD SVG 1.1//EN" "http://www.w3.org/Graphics/SVG/1.1/DTD/svg11.dtd">
<!-- Creator: CorelDRAW X8 -->
<svg xmlns="http://www.w3.org/2000/svg" xml:space="preserve" width="1585px" height="1024px" version="1.1" style="shape-rendering:geometricPrecision; text-rendering:geometricPrecision; image-rendering:optimizeQuality; fill-rule:evenodd; clip-rule:evenodd"
viewBox="0 0 1585 1024"
 xmlns:xlink="http://www.w3.org/1999/xlink">
 <defs>
  <style type="text/css">
   <![CDATA[
    .fil0 {fill:#5B5A50;fill-rule:nonzero}
   ]]>
  </style>
 </defs>
 <g id="Layer_x0020_1">
  <metadata id="CorelCorpID_0Corel-Layer"/>
  <path class="fil0" d="M373 927c39,20 44,56 5,79 -52,30 -117,19 -166,-10 -150,-89 -212,-262 -212,-427 0,-100 22,-201 70,-291 95,-179 291,-279 495,-278 77,0 154,11 227,35 73,-24 150,-35 227,-35 204,0 400,98 496,278 47,88 69,192 70,291 1,167 -60,337 -212,427 -49,29 -114,40 -166,10 -39,-23 -34,-59 5,-79 127,-64 171,-228 171,-358 -1,-88 -20,-181 -62,-260 -58,-108 -173,-198 -302,-198 -23,0 -47,2 -69,6 152,112 229,295 229,478 0,85 -17,174 -59,249 -68,122 -189,180 -329,180 -139,0 -259,-58 -327,-180 -41,-74 -59,-165 -59,-249 0,-182 78,-366 229,-478 -23,-4 -46,-6 -69,-6 -127,0 -244,92 -301,198 -42,79 -62,171 -62,260 0,129 45,294 171,358zm419 -740c-122,93 -184,259 -184,408 0,73 14,153 50,217 26,48 73,101 133,101 61,0 109,-54 136,-102 36,-65 50,-143 50,-216 0,-151 -61,-314 -185,-408z"/>
 </g>
</svg>
