<?xml version="1.0" encoding="UTF-8"?>
<!DOCTYPE svg PUBLIC "-//W3C//DTD SVG 1.1//EN" "http://www.w3.org/Graphics/SVG/1.1/DTD/svg11.dtd">
<!-- Creator: CorelDRAW X8 -->
<svg xmlns="http://www.w3.org/2000/svg" xml:space="preserve" width="972px" height="600px" version="1.1" style="shape-rendering:geometricPrecision; text-rendering:geometricPrecision; image-rendering:optimizeQuality; fill-rule:evenodd; clip-rule:evenodd"
viewBox="0 0 972 600"
 xmlns:xlink="http://www.w3.org/1999/xlink">
 <defs>
  <style type="text/css">
   <![CDATA[
    .fil0 {fill:#5B5A50;fill-rule:nonzero}
   ]]>
  </style>
 </defs>
 <g id="Layer_x0020_1">
  <metadata id="CorelCorpID_0Corel-Layer"/>
  <path class="fil0" d="M244 541c24,12 28,33 3,47 -35,20 -86,14 -119,-6 -90,-51 -128,-151 -128,-249 0,-59 14,-117 42,-169 60,-110 184,-164 308,-164 45,0 91,6 135,19 44,-13 91,-19 137,-19 124,0 247,53 308,164 28,51 42,111 42,169 1,99 -37,197 -128,249 -33,20 -84,26 -119,6 -25,-14 -21,-35 3,-47 75,-37 102,-132 102,-208 -1,-51 -12,-105 -37,-151 -34,-60 -101,-113 -174,-113 -9,0 -18,1 -27,2 90,65 137,170 137,277 0,50 -11,102 -36,145 -44,76 -121,107 -208,107 -86,0 -163,-31 -206,-107 -25,-43 -36,-95 -36,-145 0,-106 47,-212 136,-277 -10,-1 -20,-2 -30,-1 -74,2 -136,51 -170,112 -25,46 -37,99 -37,151 0,76 28,171 102,208zm242 -422c-66,55 -101,146 -100,229 0,43 8,89 30,126 13,24 39,57 69,57 31,0 58,-34 71,-57 22,-38 30,-83 30,-126 0,-84 -34,-174 -100,-229z"/>
 </g>
</svg>
