<?xml version="1.0" encoding="UTF-8"?>
<!DOCTYPE svg PUBLIC "-//W3C//DTD SVG 1.1//EN" "http://www.w3.org/Graphics/SVG/1.1/DTD/svg11.dtd">
<!-- Creator: CorelDRAW X8 -->
<svg xmlns="http://www.w3.org/2000/svg" xml:space="preserve" width="982px" height="868px" version="1.1" style="shape-rendering:geometricPrecision; text-rendering:geometricPrecision; image-rendering:optimizeQuality; fill-rule:evenodd; clip-rule:evenodd"
viewBox="0 0 982 868"
 xmlns:xlink="http://www.w3.org/1999/xlink">
 <defs>
  <style type="text/css">
   <![CDATA[
    .fil0 {fill:#A82682;fill-rule:nonzero}
   ]]>
  </style>
 </defs>
 <g id="Layer_x0020_1">
  <metadata id="CorelCorpID_0Corel-Layer"/>
  <path class="fil0" d="M622 0c97,0 192,31 261,100 70,71 103,169 98,266 -4,88 -39,170 -104,231 -82,77 -194,99 -304,99l-373 0c-28,0 -57,4 -56,39 1,35 27,37 56,37l687 0c30,0 71,13 71,48 0,35 -42,48 -71,48l-687 0c-23,0 -48,-1 -71,-5 -69,-11 -131,-41 -129,-119 2,-103 117,-117 200,-117l375 0c71,0 140,-24 191,-75 49,-51 70,-119 73,-187 4,-74 -18,-152 -64,-211 -37,-47 -90,-83 -153,-84 -10,-1 -20,0 -30,1 90,66 137,168 137,276 0,50 -11,102 -36,146 -44,76 -121,107 -208,107 -86,0 -163,-31 -206,-107 -25,-44 -36,-96 -36,-146 0,-107 48,-210 136,-275 -10,-2 -20,-2 -30,-2 -74,3 -136,51 -169,113 -26,46 -37,96 -37,149 0,42 8,90 28,131 16,33 40,61 73,78 24,12 28,33 3,47 -35,20 -85,14 -119,-6 -43,-24 -73,-60 -94,-101 -23,-45 -34,-98 -34,-149 0,-59 14,-115 42,-167 61,-111 184,-165 308,-165 45,0 92,6 135,19 45,-13 91,-19 137,-19zm-136 120c-66,55 -100,143 -100,227 0,43 8,89 30,127 13,23 39,57 69,57 31,0 58,-34 71,-58 22,-38 30,-83 30,-126 0,-85 -34,-172 -100,-227z"/>
 </g>
</svg>
