<?xml version="1.0" encoding="UTF-8"?>
<!DOCTYPE svg PUBLIC "-//W3C//DTD SVG 1.1//EN" "http://www.w3.org/Graphics/SVG/1.1/DTD/svg11.dtd">
<!-- Creator: CorelDRAW X8 -->
<svg xmlns="http://www.w3.org/2000/svg" xml:space="preserve" width="3162px" height="1486px" version="1.1" style="shape-rendering:geometricPrecision; text-rendering:geometricPrecision; image-rendering:optimizeQuality; fill-rule:evenodd; clip-rule:evenodd"
viewBox="0 0 3162 1486"
 xmlns:xlink="http://www.w3.org/1999/xlink">
 <defs>
  <style type="text/css">
   <![CDATA[
    .fil0 {fill:#A82682;fill-rule:nonzero}
   ]]>
  </style>
 </defs>
 <g id="Layer_x0020_1">
  <metadata id="CorelCorpID_0Corel-Layer"/>
  <path class="fil0" d="M2123 1c77,0 154,10 227,35 69,-23 144,-35 217,-36 183,-1 357,69 471,213 87,108 124,249 124,385 1,291 -127,514 -378,665 -317,190 -750,220 -1113,223 -378,3 -839,-22 -1182,-187 -304,-145 -490,-380 -489,-721 0,-227 95,-440 298,-560 40,-23 103,-24 144,-2 39,20 43,56 4,79 -171,100 -243,295 -244,483 0,273 128,477 368,610 307,170 754,189 1101,186 318,-2 725,-26 995,-206 203,-135 293,-331 293,-570 1,-111 -25,-226 -90,-318 -70,-99 -176,-169 -302,-168 -19,0 -39,3 -59,6 152,113 229,290 229,474 0,85 -17,175 -59,250 -68,123 -189,181 -328,181 -159,0 -267,-72 -327,-180 -40,-71 -60,-158 -60,-251 0,-185 78,-361 230,-474 -23,-4 -47,-6 -70,-6 -173,1 -276,119 -276,286l0 570c0,41 -69,56 -101,56 -33,0 -102,-14 -102,-56l0 -570c0,-166 -105,-285 -277,-286 -23,0 -46,2 -69,6 151,110 229,293 229,475 1,85 -17,175 -59,250 -68,123 -189,181 -329,181 -139,0 -259,-58 -327,-181 -41,-75 -58,-165 -59,-250 0,-184 79,-362 229,-475 -23,-4 -46,-6 -69,-6 -127,0 -244,93 -301,200 -42,79 -61,165 -61,254 0,130 44,296 170,361 39,20 44,56 5,79 -52,30 -117,20 -166,-10 -150,-89 -212,-264 -212,-430 0,-101 23,-196 70,-285 96,-181 292,-281 495,-280 76,0 156,10 227,35 75,-24 149,-35 227,-35 133,0 281,25 379,121 97,-96 244,-121 377,-121zm227 187c-124,95 -185,253 -184,404 0,73 14,154 50,218 26,48 73,102 134,102 60,0 108,-55 135,-103 36,-65 50,-143 50,-217 0,-151 -62,-309 -185,-404zm-1210 0c-122,95 -184,254 -184,405 0,73 14,153 50,218 26,48 73,102 133,102 61,0 109,-55 136,-103 36,-65 50,-144 50,-217 0,-152 -61,-310 -185,-405z"/>
 </g>
</svg>
