<?xml version="1.0" encoding="UTF-8"?>
<!DOCTYPE svg PUBLIC "-//W3C//DTD SVG 1.1//EN" "http://www.w3.org/Graphics/SVG/1.1/DTD/svg11.dtd">
<!-- Creator: CorelDRAW X8 -->
<svg xmlns="http://www.w3.org/2000/svg" xml:space="preserve" width="2844px" height="1486px" version="1.1" style="shape-rendering:geometricPrecision; text-rendering:geometricPrecision; image-rendering:optimizeQuality; fill-rule:evenodd; clip-rule:evenodd"
viewBox="0 0 2844 1487"
 xmlns:xlink="http://www.w3.org/1999/xlink">
 <defs>
  <style type="text/css">
   <![CDATA[
    .fil0 {fill:#2B2A29;fill-rule:nonzero}
   ]]>
  </style>
 </defs>
 <g id="Layer_x0020_1">
  <metadata id="CorelCorpID_0Corel-Layer"/>
  <path class="fil0" d="M2467 1362c81,-50 154,-119 218,-206 109,-147 159,-323 159,-505 0,-133 -33,-269 -105,-383 -109,-173 -303,-268 -507,-268 -77,0 -156,11 -229,35 -73,-24 -149,-35 -226,-35 -134,0 -282,25 -378,122 -98,-97 -246,-122 -379,-122 -79,0 -152,11 -227,36 -74,-26 -152,-36 -230,-36 -202,0 -397,101 -492,280 -48,90 -71,185 -71,285 0,167 62,341 212,430 29,18 63,29 96,29 24,0 48,-6 70,-19 18,-11 27,-24 27,-38 0,-15 -12,-30 -33,-41 -125,-64 -170,-231 -170,-361 0,-89 21,-174 63,-254 56,-106 173,-199 298,-199 24,0 48,2 72,6 -151,113 -230,290 -230,474 0,85 17,176 59,251 68,122 188,181 327,181 140,0 261,-59 329,-182 42,-75 59,-165 59,-250 0,-181 -77,-364 -228,-474 24,-3 45,-6 69,-6 174,0 277,119 277,285l0 570c0,42 68,56 100,56 34,0 102,-14 102,-56l0 -570c0,-165 106,-285 278,-285 23,0 46,1 69,6 -153,113 -231,289 -231,474 0,84 18,175 60,250 68,122 188,180 327,180 140,0 260,-58 329,-181 42,-75 59,-164 59,-249 0,-185 -77,-362 -228,-475 23,-4 46,-5 70,-5 132,0 243,91 313,195 71,105 97,220 97,344 0,148 -30,306 -103,435 -37,66 -84,125 -142,174 -33,-65 -131,-101 -197,-116 -65,-15 -131,-20 -197,-20 -71,0 -147,6 -216,23 -73,19 -194,68 -194,158 0,87 116,137 189,156 65,18 141,26 221,26 72,0 147,-9 219,-25 87,-20 170,-53 245,-100zm-465 -451c-60,0 -107,-53 -134,-102 -36,-64 -50,-144 -50,-217 0,-152 61,-309 185,-405 124,95 185,254 185,405 0,73 -14,152 -51,217 -26,48 -74,102 -135,102zm-1211 1c-60,0 -107,-54 -134,-102 -35,-65 -50,-145 -50,-218 0,-150 63,-310 185,-404 124,95 185,253 185,404 0,74 -14,152 -50,217 -27,48 -75,103 -136,103zm1212 469c-52,0 -117,-5 -166,-23 -21,-9 -56,-27 -56,-54 1,-26 35,-44 57,-52 49,-19 113,-23 165,-23 47,0 96,3 141,16 26,8 75,27 75,59 0,34 -50,53 -77,60 -44,13 -93,17 -139,17z"/>
 </g>
</svg>
