<?xml version="1.0" encoding="UTF-8"?>
<!DOCTYPE svg PUBLIC "-//W3C//DTD SVG 1.1//EN" "http://www.w3.org/Graphics/SVG/1.1/DTD/svg11.dtd">
<!-- Creator: CorelDRAW X8 -->
<svg xmlns="http://www.w3.org/2000/svg" xml:space="preserve" width="2374px" height="1486px" version="1.1" style="shape-rendering:geometricPrecision; text-rendering:geometricPrecision; image-rendering:optimizeQuality; fill-rule:evenodd; clip-rule:evenodd"
viewBox="0 0 2374 1487"
 xmlns:xlink="http://www.w3.org/1999/xlink">
 <defs>
  <style type="text/css">
   <![CDATA[
    .fil0 {fill:#2B2A29;fill-rule:nonzero}
   ]]>
  </style>
 </defs>
 <g id="Layer_x0020_1">
  <metadata id="CorelCorpID_0Corel-Layer"/>
  <path class="fil0" d="M2225 1487c46,0 101,-28 101,-79 0,-52 -55,-80 -101,-80l-1909 0c-61,0 -110,-2 -111,-70 0,-62 59,-68 111,-68l1646 0c195,0 412,-84 412,-320 0,-162 -108,-273 -276,-273 -53,0 -106,13 -159,13 -57,0 -104,-25 -104,-89 0,-54 31,-84 85,-84 63,0 127,24 193,24 116,0 217,-56 217,-186 0,-232 -304,-275 -488,-275 -142,0 -337,23 -439,124 -103,-98 -245,-124 -383,-124 -79,0 -152,11 -227,35 -74,-25 -152,-35 -230,-35 -202,0 -397,100 -493,278 -47,89 -70,191 -70,291 0,165 62,338 212,427 29,17 64,28 98,28 23,0 47,-6 68,-18 18,-11 27,-24 27,-38 0,-15 -11,-30 -32,-41 -126,-64 -170,-229 -170,-358 0,-89 19,-181 61,-260 57,-105 173,-198 299,-198 24,0 48,2 71,6 -150,112 -228,295 -228,478 0,84 17,175 58,249 68,122 188,180 327,180 141,0 261,-58 331,-180 40,-75 58,-164 58,-249 0,-180 -78,-369 -228,-478 22,-4 44,-6 68,-6 174,1 278,116 278,283l0 574c0,42 69,56 101,56 32,0 102,-14 102,-56l0 -579c0,-216 157,-278 341,-278 101,0 299,46 299,164 0,39 -12,63 -57,63 -67,0 -138,-27 -211,-28 -45,0 -89,7 -131,32 -66,40 -93,104 -93,179 0,76 39,143 105,179 39,22 86,33 136,33 46,0 86,-12 131,-12 95,0 155,47 156,151 1,124 -85,208 -211,208l-1650 0c-146,0 -316,29 -316,204 0,170 175,203 316,203l1909 0zm-1434 -574c-60,0 -106,-53 -133,-101 -36,-64 -50,-144 -50,-217 0,-149 62,-315 184,-408 124,94 186,257 186,408 0,73 -14,151 -50,216 -28,48 -76,102 -137,102z"/>
 </g>
</svg>
