<?xml version="1.0" encoding="UTF-8"?>
<!DOCTYPE svg PUBLIC "-//W3C//DTD SVG 1.1//EN" "http://www.w3.org/Graphics/SVG/1.1/DTD/svg11.dtd">
<!-- Creator: CorelDRAW X8 -->
<svg xmlns="http://www.w3.org/2000/svg" xml:space="preserve" width="2843px" height="1485px" version="1.1" style="shape-rendering:geometricPrecision; text-rendering:geometricPrecision; image-rendering:optimizeQuality; fill-rule:evenodd; clip-rule:evenodd"
viewBox="0 0 2843 1486"
 xmlns:xlink="http://www.w3.org/1999/xlink">
 <defs>
  <style type="text/css">
   <![CDATA[
    .fil0 {fill:#5B5A50;fill-rule:nonzero}
   ]]>
  </style>
 </defs>
 <g id="Layer_x0020_1">
  <metadata id="CorelCorpID_0Corel-Layer"/>
  <path class="fil0" d="M1997 1387c58,0 130,-4 183,-27 34,-16 59,-42 57,-81 -1,-41 -44,-59 -81,-59 -47,0 -67,42 -67,83 0,40 -58,52 -90,52 -32,0 -91,-11 -91,-52 -1,-40 -20,-83 -67,-83 -36,0 -80,18 -82,59 -1,39 23,65 58,81 52,23 123,27 180,27zm-222 -1387c77,0 154,11 227,35 72,-24 150,-35 227,-35 204,0 399,95 508,268 75,119 108,257 106,396 -3,176 -55,349 -160,492 -56,77 -121,139 -194,189 -75,51 -159,88 -248,111 -80,20 -161,29 -243,30 -83,0 -177,-9 -255,-37 -71,-25 -153,-88 -152,-170 1,-49 33,-88 74,-113 49,-31 118,-42 175,-42 53,0 112,10 158,34 47,-24 106,-34 159,-34 57,0 126,11 175,42 33,20 61,49 71,87 55,-48 100,-105 135,-168 71,-125 102,-272 103,-415 1,-127 -26,-256 -97,-364 -70,-104 -183,-195 -315,-194 -23,0 -46,1 -69,5 152,113 229,290 229,474 0,85 -17,175 -59,250 -68,123 -188,181 -328,181 -139,0 -260,-58 -328,-180 -41,-75 -59,-166 -59,-251 0,-185 78,-360 230,-473 -23,-5 -47,-6 -70,-6 -171,0 -276,121 -276,285l0 570c0,42 -70,56 -102,56 -32,0 -101,-14 -101,-56l0 -570c0,-166 -105,-284 -277,-285 -23,-1 -46,2 -69,6 151,110 229,292 229,474 0,85 -17,175 -59,250 -68,123 -189,181 -329,181 -139,0 -259,-58 -327,-181 -41,-75 -59,-165 -59,-250 0,-58 8,-107 23,-163 33,-123 103,-234 206,-311 -23,-4 -46,-6 -69,-6 -127,-1 -244,92 -301,199 -42,80 -62,165 -62,254 0,130 45,296 171,361 39,20 44,56 5,79 -52,31 -116,20 -166,-10 -150,-89 -212,-264 -212,-430 0,-101 22,-195 70,-285 95,-180 291,-281 495,-280 76,0 156,11 227,36 75,-25 149,-36 227,-36 133,0 281,25 378,122 98,-97 245,-122 378,-122zm227 187c-124,96 -185,253 -184,404 0,74 14,154 50,218 26,48 73,102 134,102 60,0 108,-54 135,-103 36,-65 50,-143 50,-217 0,-151 -62,-309 -185,-404zm-1210 1c-122,94 -184,253 -184,404 0,73 14,153 50,218 26,48 73,102 133,102 61,0 109,-55 136,-103 36,-65 50,-144 50,-217 0,-152 -61,-309 -185,-404z"/>
 </g>
</svg>
