<?xml version="1.0" encoding="UTF-8"?>
<!DOCTYPE svg PUBLIC "-//W3C//DTD SVG 1.1//EN" "http://www.w3.org/Graphics/SVG/1.1/DTD/svg11.dtd">
<!-- Creator: CorelDRAW X8 -->
<svg xmlns="http://www.w3.org/2000/svg" xml:space="preserve" width="2889px" height="1486px" version="1.1" style="shape-rendering:geometricPrecision; text-rendering:geometricPrecision; image-rendering:optimizeQuality; fill-rule:evenodd; clip-rule:evenodd"
viewBox="0 0 2889 1486"
 xmlns:xlink="http://www.w3.org/1999/xlink">
 <defs>
  <style type="text/css">
   <![CDATA[
    .fil0 {fill:#A82682;fill-rule:nonzero}
   ]]>
  </style>
 </defs>
 <g id="Layer_x0020_1">
  <metadata id="CorelCorpID_0Corel-Layer"/>
  <path class="fil0" d="M2459 531c0,-43 47,-55 83,-55 73,0 101,-81 101,-143 0,-73 -49,-138 -112,-174 -63,-36 -146,-47 -218,-47 -49,0 -100,1 -149,10 147,114 226,287 226,470 0,85 -17,174 -59,249 -69,123 -189,181 -329,181 -139,0 -259,-58 -327,-180 -42,-75 -59,-166 -59,-250 0,-185 78,-361 229,-474 -23,-4 -46,-6 -69,-6 -174,0 -277,117 -277,285l0 570c0,42 -69,56 -101,56 -32,0 -101,-14 -101,-56l0 -570c0,-167 -104,-284 -277,-285 -23,0 -46,2 -69,6 151,110 229,292 229,474 0,85 -17,175 -59,250 -69,123 -189,182 -329,182 -140,0 -260,-59 -327,-181 -42,-75 -59,-166 -59,-251 0,-184 78,-361 229,-474 -23,-4 -46,-6 -70,-6 -126,-1 -243,92 -300,199 -42,80 -62,165 -62,255 0,129 44,296 170,360 39,21 45,56 5,79 -51,31 -116,20 -166,-9 -150,-90 -211,-264 -212,-430 0,-101 23,-196 71,-286 95,-180 291,-281 495,-280 75,0 156,11 227,36 75,-25 149,-36 227,-36 133,0 281,25 378,122 97,-97 245,-122 378,-122 80,0 162,12 237,39 97,-30 200,-39 300,-39 122,0 258,20 364,81 94,55 164,146 163,256 -1,80 -39,146 -104,192 98,57 153,159 153,271 0,90 -27,173 -90,240 -109,115 -267,150 -420,150l-2063 0c-53,0 -113,4 -111,70 1,66 57,67 111,67l2424 0c46,0 101,28 101,80 0,51 -55,79 -101,79l-2424 0c-143,0 -320,-34 -316,-209 4,-170 178,-198 316,-198l2066 0c97,0 197,-37 255,-117 35,-48 56,-104 56,-162 0,-92 -46,-210 -152,-212 -35,-1 -82,-13 -82,-57zm-457 -343c-124,95 -184,252 -184,404 0,73 14,153 50,218 27,48 74,101 134,101 61,0 108,-54 135,-102 36,-65 51,-144 51,-217 0,-151 -62,-310 -186,-404zm-1210 0c-121,94 -184,253 -184,404 0,73 14,154 50,218 27,48 73,102 134,102 60,0 108,-54 135,-103 36,-65 51,-143 51,-217 0,-152 -62,-310 -186,-404z"/>
 </g>
</svg>
