<?xml version="1.0" encoding="UTF-8"?>
<!DOCTYPE svg PUBLIC "-//W3C//DTD SVG 1.1//EN" "http://www.w3.org/Graphics/SVG/1.1/DTD/svg11.dtd">
<!-- Creator: CorelDRAW X8 -->
<svg xmlns="http://www.w3.org/2000/svg" xml:space="preserve" width="2698px" height="1486px" version="1.1" style="shape-rendering:geometricPrecision; text-rendering:geometricPrecision; image-rendering:optimizeQuality; fill-rule:evenodd; clip-rule:evenodd"
viewBox="0 0 2698 1486"
 xmlns:xlink="http://www.w3.org/1999/xlink">
 <defs>
  <style type="text/css">
   <![CDATA[
    .fil0 {fill:#A82682;fill-rule:nonzero}
   ]]>
  </style>
 </defs>
 <g id="Layer_x0020_1">
  <metadata id="CorelCorpID_0Corel-Layer"/>
  <path class="fil0" d="M1643 968l0 -572c0,-166 -106,-283 -278,-284 -23,-1 -46,2 -68,6 150,110 229,292 229,474 0,85 -18,175 -59,250 -69,123 -189,182 -329,182 -140,0 -260,-59 -328,-181 -41,-75 -58,-166 -58,-251 0,-184 78,-361 228,-474 -22,-4 -46,-6 -69,-6 -59,-1 -116,19 -166,52 -98,63 -154,160 -180,271 -38,159 -12,406 154,491 39,20 45,56 5,79 -51,31 -116,20 -166,-9 -195,-117 -243,-372 -194,-576 35,-147 117,-267 251,-344 88,-50 191,-76 296,-76 76,0 156,11 228,36 74,-25 148,-36 227,-36 138,0 279,26 382,125 102,-101 295,-124 433,-125 110,-1 239,14 338,62 95,46 160,122 156,230 -4,152 -150,185 -278,167 -47,-7 -116,-27 -160,-16 -39,9 -58,47 -56,84 1,34 21,70 57,80 69,21 164,-15 241,-11 115,5 212,82 213,201 0,65 -35,114 -91,147 59,37 97,98 97,169 0,161 -165,242 -300,284 -243,76 -585,88 -840,89 -281,1 -680,-13 -946,-103 -377,-128 -614,-408 -612,-808 1,-227 95,-438 297,-557 39,-23 104,-23 144,-3 39,21 43,56 4,79 -170,100 -241,293 -242,481 -3,343 187,601 515,713 226,77 600,87 840,86 220,0 577,-10 780,-91 75,-30 157,-81 157,-170 0,-66 -49,-114 -114,-114l-254 0c-32,0 -101,-14 -101,-56 0,-42 69,-56 101,-56l201 0c65,0 166,-5 165,-90 0,-36 -26,-61 -59,-72 -28,-9 -62,-4 -99,3 -66,12 -141,25 -233,-22 -68,-35 -104,-105 -107,-178 -2,-74 24,-141 89,-181 106,-64 214,-24 325,-8 42,5 70,-2 76,-48 8,-56 -20,-102 -68,-132 -65,-41 -155,-46 -230,-47 -198,-1 -341,62 -341,279l0 577c0,42 -70,56 -102,56 -32,0 -101,-14 -101,-56zm-505 -780c-122,94 -184,254 -184,404 0,73 14,153 50,218 27,48 73,102 134,102 60,0 108,-55 135,-103 36,-65 51,-143 50,-217 0,-152 -61,-309 -185,-404z"/>
 </g>
</svg>
