<?xml version="1.0" encoding="UTF-8"?>
<!DOCTYPE svg PUBLIC "-//W3C//DTD SVG 1.1//EN" "http://www.w3.org/Graphics/SVG/1.1/DTD/svg11.dtd">
<!-- Creator: CorelDRAW X8 -->
<svg xmlns="http://www.w3.org/2000/svg" xml:space="preserve" width="1028px" height="868px" version="1.1" style="shape-rendering:geometricPrecision; text-rendering:geometricPrecision; image-rendering:optimizeQuality; fill-rule:evenodd; clip-rule:evenodd"
viewBox="0 0 1028 868"
 xmlns:xlink="http://www.w3.org/1999/xlink">
 <defs>
  <style type="text/css">
   <![CDATA[
    .fil0 {fill:#5B5A50;fill-rule:nonzero}
   ]]>
  </style>
 </defs>
 <g id="Layer_x0020_1">
  <metadata id="CorelCorpID_0Corel-Layer"/>
  <path class="fil0" d="M244 540c24,12 28,34 3,48 -35,20 -86,14 -119,-6 -90,-52 -128,-152 -128,-251 0,-58 14,-114 42,-166 60,-111 184,-165 307,-165 47,0 99,6 143,21 58,-16 120,-21 180,-21 76,0 162,12 228,49 56,31 99,84 99,149 -1,24 -7,46 -19,67 -11,18 -26,34 -43,46 26,15 49,36 65,62 17,29 26,61 26,94 0,53 -16,101 -54,140 -68,70 -169,88 -263,88l-511 0c-28,0 -57,5 -56,40 1,35 27,36 56,36l729 0c30,0 72,14 72,49 0,35 -42,48 -72,48l-729 0c-84,0 -202,-16 -200,-124 2,-103 118,-118 200,-118l514 0c53,0 106,-20 140,-62 23,-27 36,-65 37,-99 2,-30 -5,-62 -22,-87 -15,-20 -35,-31 -60,-31 -20,1 -53,-8 -53,-33 -1,-27 34,-36 54,-35 22,0 39,-17 48,-35 7,-15 10,-33 8,-50 -6,-43 -34,-76 -72,-96 -36,-20 -82,-28 -123,-29 -25,0 -50,1 -75,5 87,66 132,167 132,273 0,50 -10,102 -35,145 -44,77 -122,108 -208,108 -86,0 -163,-31 -207,-107 -24,-44 -35,-97 -35,-146 0,-108 47,-210 136,-275 -10,-2 -20,-2 -30,-2 -74,3 -136,51 -170,113 -25,46 -37,96 -37,148 0,77 28,173 102,209zm241 -420c-65,55 -100,143 -100,227 0,43 9,89 30,126 14,24 40,57 70,58 31,0 57,-34 71,-58 22,-38 30,-83 30,-126 0,-85 -34,-172 -101,-227z"/>
 </g>
</svg>
