<?xml version="1.0" encoding="UTF-8"?>
<!DOCTYPE svg PUBLIC "-//W3C//DTD SVG 1.1//EN" "http://www.w3.org/Graphics/SVG/1.1/DTD/svg11.dtd">
<!-- Creator: CorelDRAW X8 -->
<svg xmlns="http://www.w3.org/2000/svg" xml:space="preserve" width="2795px" height="1024px" version="1.1" style="shape-rendering:geometricPrecision; text-rendering:geometricPrecision; image-rendering:optimizeQuality; fill-rule:evenodd; clip-rule:evenodd"
viewBox="0 0 2795 1024"
 xmlns:xlink="http://www.w3.org/1999/xlink">
 <defs>
  <style type="text/css">
   <![CDATA[
    .fil0 {fill:#A82682;fill-rule:nonzero}
   ]]>
  </style>
 </defs>
 <g id="Layer_x0020_1">
  <metadata id="CorelCorpID_0Corel-Layer"/>
  <path class="fil0" d="M1775 0c77,0 154,10 227,35 72,-24 150,-35 227,-35 204,0 400,98 496,278 47,89 70,194 70,294 0,166 -62,336 -213,425 -49,29 -114,39 -165,9 -39,-23 -34,-59 5,-79 126,-64 170,-226 170,-355 1,-89 -19,-184 -61,-263 -58,-108 -174,-199 -302,-198 -23,0 -46,2 -69,6 152,112 229,294 229,478 0,84 -17,173 -59,248 -68,122 -189,179 -328,179 -140,1 -260,-57 -328,-179 -41,-74 -59,-164 -59,-248 0,-184 78,-366 230,-478 -23,-4 -47,-6 -70,-6 -174,0 -276,117 -276,284l0 573c0,41 -70,55 -101,55 -33,0 -102,-14 -102,-55l0 -573c0,-167 -103,-283 -277,-284 -23,0 -46,2 -69,6 151,109 229,297 229,478 1,85 -17,174 -59,248 -68,123 -189,181 -329,181 -139,0 -259,-59 -327,-180 -41,-74 -58,-165 -59,-249 0,-183 79,-366 229,-478 -23,-4 -46,-6 -69,-6 -127,-1 -244,92 -301,198 -42,79 -61,171 -61,260 -1,128 44,294 170,358 39,20 44,55 5,79 -52,30 -116,19 -166,-10 -150,-89 -212,-262 -212,-427 0,-101 23,-202 70,-291 96,-179 292,-279 495,-278 76,0 156,11 227,35 75,-24 149,-35 227,-35 133,0 281,25 378,121 98,-96 245,-121 378,-121zm227 186c-124,95 -185,258 -184,409 0,72 14,152 50,216 26,48 73,101 134,101 60,0 108,-54 135,-102 36,-64 50,-142 50,-215 0,-151 -62,-315 -185,-409zm-1210 1c-122,93 -184,259 -184,408 0,73 14,152 50,217 26,47 73,101 133,101 61,0 109,-54 136,-102 36,-65 50,-143 50,-216 0,-151 -61,-314 -185,-408z"/>
 </g>
</svg>
