<?xml version="1.0" encoding="UTF-8"?>
<!DOCTYPE svg PUBLIC "-//W3C//DTD SVG 1.1//EN" "http://www.w3.org/Graphics/SVG/1.1/DTD/svg11.dtd">
<!-- Creator: CorelDRAW X8 -->
<svg xmlns="http://www.w3.org/2000/svg" xml:space="preserve" width="1633px" height="1486px" version="1.1" style="shape-rendering:geometricPrecision; text-rendering:geometricPrecision; image-rendering:optimizeQuality; fill-rule:evenodd; clip-rule:evenodd"
viewBox="0 0 1633 1486"
 xmlns:xlink="http://www.w3.org/1999/xlink">
 <defs>
  <style type="text/css">
   <![CDATA[
    .fil0 {fill:#5B5A50;fill-rule:nonzero}
   ]]>
  </style>
 </defs>
 <g id="Layer_x0020_1">
  <metadata id="CorelCorpID_0Corel-Layer"/>
  <path class="fil0" d="M787 1387c58,0 130,-3 183,-27 34,-15 59,-41 57,-80 -1,-41 -44,-59 -81,-60 -47,0 -67,43 -67,84 0,40 -58,51 -90,51 -32,0 -91,-11 -91,-51 0,-41 -20,-84 -67,-84 -36,1 -80,18 -82,60 -1,39 23,65 58,80 52,23 123,27 180,27zm-414 -461c39,20 44,56 5,79 -52,31 -117,20 -166,-10 -150,-89 -212,-263 -212,-430 0,-100 22,-195 70,-285 96,-180 291,-281 495,-280 77,0 154,11 227,36 73,-25 150,-36 227,-36 204,0 399,95 508,268 75,119 108,257 106,397 -3,175 -55,349 -160,491 -56,77 -121,140 -194,189 -75,51 -159,88 -248,111 -80,21 -161,29 -243,30 -82,1 -177,-9 -255,-37 -71,-25 -153,-88 -152,-170 1,-49 33,-88 74,-113 49,-31 118,-42 175,-42 53,0 112,10 158,35 47,-25 106,-35 159,-35 57,0 126,11 175,42 33,20 61,49 71,87 55,-47 100,-104 135,-167 71,-126 102,-273 103,-416 1,-126 -26,-256 -97,-363 -69,-104 -184,-196 -315,-195 -23,0 -47,2 -69,6 152,113 229,289 229,474 0,85 -17,175 -59,250 -68,123 -189,181 -329,181 -139,0 -259,-58 -327,-181 -41,-74 -59,-165 -59,-250 0,-184 79,-361 229,-474 -23,-4 -46,-6 -69,-6 -127,-1 -244,92 -301,199 -42,80 -62,165 -62,254 0,130 45,297 171,361zm419 -738c-122,94 -184,254 -184,404 0,73 14,153 50,218 26,48 73,102 133,102 61,0 109,-55 136,-103 36,-65 50,-143 50,-217 0,-152 -61,-309 -185,-404z"/>
 </g>
</svg>
