<?xml version="1.0" encoding="UTF-8"?>
<!DOCTYPE svg PUBLIC "-//W3C//DTD SVG 1.1//EN" "http://www.w3.org/Graphics/SVG/1.1/DTD/svg11.dtd">
<!-- Creator: CorelDRAW X8 -->
<svg xmlns="http://www.w3.org/2000/svg" xml:space="preserve" width="1632px" height="1486px" version="1.1" style="shape-rendering:geometricPrecision; text-rendering:geometricPrecision; image-rendering:optimizeQuality; fill-rule:evenodd; clip-rule:evenodd"
viewBox="0 0 1632 1486"
 xmlns:xlink="http://www.w3.org/1999/xlink">
 <defs>
  <style type="text/css">
   <![CDATA[
    .fil0 {fill:#5B5A50;fill-rule:nonzero}
   ]]>
  </style>
 </defs>
 <g id="Layer_x0020_1">
  <metadata id="CorelCorpID_0Corel-Layer"/>
  <path class="fil0" d="M791 1228c-52,0 -117,5 -165,23 -22,9 -57,26 -57,53 -1,27 34,45 56,54 49,18 113,23 166,23 46,0 94,-4 139,-17 26,-7 77,-27 77,-60 0,-32 -50,-51 -75,-59 -46,-13 -94,-17 -141,-17zm-418 -302c39,20 44,56 5,79 -52,30 -117,20 -166,-10 -150,-89 -212,-263 -212,-430 0,-100 22,-195 69,-285 96,-180 292,-281 495,-280 77,0 154,11 227,36 73,-25 150,-36 227,-36 204,0 399,95 508,268 75,119 108,257 106,396 -3,176 -55,349 -160,492 -64,87 -137,155 -218,206 -82,51 -172,85 -271,104 -63,13 -127,19 -192,20 -72,1 -152,-7 -222,-25 -72,-19 -189,-69 -189,-157 1,-89 122,-138 195,-157 69,-17 144,-23 216,-23 66,0 132,5 196,20 67,15 165,51 197,116 25,-21 47,-43 67,-66 29,-34 54,-70 76,-108 71,-126 102,-273 103,-416 1,-126 -26,-256 -97,-363 -69,-104 -184,-196 -315,-196 -23,1 -46,3 -69,7 152,113 230,289 230,474 0,85 -17,175 -59,250 -68,123 -189,181 -329,181 -139,0 -259,-58 -327,-181 -41,-74 -59,-165 -59,-250 0,-184 78,-361 228,-474 -23,-4 -46,-6 -69,-6 -127,-1 -244,92 -301,199 -42,80 -61,165 -61,254 0,130 45,296 171,361zm418 -738c-122,94 -184,254 -183,404 0,73 14,153 50,218 26,48 73,102 133,102 61,0 109,-55 136,-103 36,-65 50,-143 50,-217 0,-152 -62,-309 -186,-404z"/>
 </g>
</svg>
