<?xml version="1.0" encoding="UTF-8"?>
<!DOCTYPE svg PUBLIC "-//W3C//DTD SVG 1.1//EN" "http://www.w3.org/Graphics/SVG/1.1/DTD/svg11.dtd">
<!-- Creator: CorelDRAW X8 -->
<svg xmlns="http://www.w3.org/2000/svg" xml:space="preserve" width="3075px" height="1486px" version="1.1" style="shape-rendering:geometricPrecision; text-rendering:geometricPrecision; image-rendering:optimizeQuality; fill-rule:evenodd; clip-rule:evenodd"
viewBox="0 0 3075 1486"
 xmlns:xlink="http://www.w3.org/1999/xlink">
 <defs>
  <style type="text/css">
   <![CDATA[
    .fil0 {fill:#5B5A50;fill-rule:nonzero}
   ]]>
  </style>
 </defs>
 <g id="Layer_x0020_1">
  <metadata id="CorelCorpID_0Corel-Layer"/>
  <path class="fil0" d="M2751 1006c-45,12 -92,18 -138,18 -327,0 -384,-222 -384,-494 0,-95 0,-188 -32,-278 -25,-68 -88,-142 -168,-140 -143,3 -185,136 -185,256l0 600c0,42 -70,56 -102,56 -32,0 -101,-14 -101,-56l0 -572c0,-167 -105,-283 -277,-284 -23,0 -47,2 -69,6 151,110 229,292 229,474 0,85 -17,175 -59,250 -69,123 -189,182 -329,182 -140,0 -259,-59 -327,-181 -42,-75 -59,-166 -59,-251 0,-183 78,-361 229,-474 -23,-4 -47,-6 -70,-6 -127,-1 -244,92 -300,199 -42,80 -62,165 -62,255 0,129 44,296 170,360 39,20 45,56 5,79 -51,31 -116,20 -165,-9 -151,-90 -212,-264 -212,-430 -1,-101 22,-196 69,-286 96,-180 292,-281 495,-280 76,0 156,11 228,36 74,-25 148,-36 227,-36 127,1 267,24 366,110 75,-79 191,-107 297,-110 164,-3 312,74 369,230 35,97 35,198 35,300 0,124 3,382 182,382 178,0 248,-234 250,-376 2,-163 -70,-371 -238,-433 -37,-13 -66,-46 -29,-77 42,-35 104,-30 152,-11 116,45 205,131 258,241 48,100 68,216 69,326 1,97 -13,200 -45,292 -53,148 -144,272 -272,365 -175,127 -412,185 -625,214 -215,30 -434,33 -652,33 -331,-2 -710,-46 -1009,-194 -297,-147 -472,-377 -472,-711 0,-225 89,-441 289,-562 40,-25 101,-25 143,-4 39,20 46,55 7,79 -169,102 -236,300 -236,487 -1,291 143,498 405,628 257,127 589,164 874,165 201,1 404,-2 603,-29 172,-24 369,-70 511,-173 61,-45 113,-105 155,-166zm-1615 -818c-122,94 -184,253 -184,404 0,73 14,154 50,218 27,48 73,102 134,102 60,0 108,-54 135,-103 36,-65 51,-143 51,-217 0,-152 -62,-309 -186,-404z"/>
 </g>
</svg>
