<?xml version="1.0" encoding="UTF-8"?>
<!DOCTYPE svg PUBLIC "-//W3C//DTD SVG 1.1//EN" "http://www.w3.org/Graphics/SVG/1.1/DTD/svg11.dtd">
<!-- Creator: CorelDRAW X8 -->
<svg xmlns="http://www.w3.org/2000/svg" xml:space="preserve" width="1687px" height="868px" version="1.1" style="shape-rendering:geometricPrecision; text-rendering:geometricPrecision; image-rendering:optimizeQuality; fill-rule:evenodd; clip-rule:evenodd"
viewBox="0 0 1687 868"
 xmlns:xlink="http://www.w3.org/1999/xlink">
 <defs>
  <style type="text/css">
   <![CDATA[
    .fil0 {fill:#669933;fill-rule:nonzero}
   ]]>
  </style>
 </defs>
 <g id="Layer_x0020_1">
  <metadata id="CorelCorpID_0Corel-Layer"/>
  <path class="fil0" d="M1201 20c44,-14 91,-20 137,-20 94,0 185,31 252,99 69,70 101,169 97,266 -5,88 -39,171 -103,232 -80,76 -187,94 -294,94l-1100 0c-21,0 -37,3 -48,10 -13,7 -19,19 -18,36 0,18 7,29 19,36 11,6 27,9 47,9l1412 0c26,0 61,12 61,43 0,31 -35,43 -61,43l-1412 0c-45,0 -94,-5 -131,-24 -36,-18 -60,-48 -59,-97 1,-37 16,-66 47,-85 31,-20 78,-30 143,-30l1101 0c73,0 128,-10 184,-63 56,-54 86,-128 89,-205 4,-76 -18,-155 -65,-216 -42,-54 -98,-88 -163,-89 -14,0 -29,2 -44,5 93,64 142,173 142,285 0,50 -10,102 -35,146 -42,74 -115,104 -198,104 -82,0 -155,-30 -197,-104 -25,-44 -35,-96 -35,-146 0,-112 49,-221 143,-285 -16,-4 -32,-5 -47,-5 -94,0 -165,65 -165,171l0 340c0,24 -44,30 -61,30 -17,0 -61,-6 -61,-30l0 -340c0,-107 -72,-171 -166,-171 -15,0 -31,2 -46,5 63,43 109,113 129,186 9,32 14,66 14,99 0,50 -11,102 -35,146 -43,74 -116,105 -199,105 -83,0 -155,-31 -197,-105 -25,-43 -35,-96 -35,-146 0,-33 5,-67 14,-99 20,-75 64,-141 129,-186 -17,-4 -32,-5 -48,-5 -33,1 -64,11 -96,31 -34,22 -63,54 -82,88 -12,23 -22,48 -28,74 -6,26 -10,54 -10,82 0,79 29,177 105,215 20,11 23,28 3,40 -31,18 -75,12 -105,-5 -88,-52 -125,-153 -125,-250 0,-60 13,-119 42,-171 58,-109 177,-163 297,-163 46,0 94,6 137,20 45,-14 89,-20 136,-20 78,0 168,13 227,69 59,-56 148,-69 226,-69 47,0 92,6 136,20zm0 86c-73,56 -110,152 -110,243 0,44 9,91 31,130 15,27 46,61 79,61 34,0 65,-35 80,-62 22,-38 31,-85 31,-129 0,-90 -38,-187 -111,-243zm-726 0c-48,38 -80,93 -97,152 -8,30 -13,60 -13,91 1,44 9,92 31,130 15,27 46,62 79,62 34,0 65,-36 81,-62 21,-39 30,-86 30,-130 0,-31 -4,-61 -12,-91 -17,-59 -50,-114 -99,-152z"/>
 </g>
</svg>
