<?xml version="1.0" encoding="UTF-8"?>
<!DOCTYPE svg PUBLIC "-//W3C//DTD SVG 1.1//EN" "http://www.w3.org/Graphics/SVG/1.1/DTD/svg11.dtd">
<!-- Creator: CorelDRAW X8 -->
<svg xmlns="http://www.w3.org/2000/svg" xml:space="preserve" width="2810px" height="1486px" version="1.1" style="shape-rendering:geometricPrecision; text-rendering:geometricPrecision; image-rendering:optimizeQuality; fill-rule:evenodd; clip-rule:evenodd"
viewBox="0 0 2810 1486"
 xmlns:xlink="http://www.w3.org/1999/xlink">
 <defs>
  <style type="text/css">
   <![CDATA[
    .fil0 {fill:#A82682;fill-rule:nonzero}
   ]]>
  </style>
 </defs>
 <g id="Layer_x0020_1">
  <metadata id="CorelCorpID_0Corel-Layer"/>
  <path class="fil0" d="M1775 0c77,0 154,11 227,35 73,-24 150,-35 227,-35 157,0 308,57 417,170 118,121 171,291 163,457 -6,148 -64,291 -173,396 -132,128 -310,168 -490,168l-1830 0c-53,0 -113,3 -112,69 2,66 58,67 112,67l2353 0c47,0 102,28 102,80 0,51 -55,79 -102,79l-2353 0c-143,0 -320,-34 -316,-209 4,-169 177,-198 316,-198l1870 0c105,0 198,-37 274,-111 94,-91 141,-216 147,-344 6,-126 -29,-261 -107,-363 -64,-84 -162,-150 -271,-149 -23,0 -46,2 -69,6 152,113 229,289 229,474 0,85 -17,174 -59,249 -68,123 -189,181 -329,181 -139,0 -259,-58 -327,-180 -42,-75 -59,-166 -59,-250 0,-185 78,-361 230,-474 -23,-4 -47,-6 -70,-6 -174,0 -276,118 -276,285l-1 570c0,42 -69,56 -101,56 -32,0 -101,-14 -101,-56l1 -570c0,-166 -105,-284 -278,-285 -23,0 -46,2 -69,6 151,110 229,292 229,474 0,85 -17,175 -59,250 -68,123 -189,182 -329,182 -139,0 -259,-59 -327,-181 -41,-75 -59,-166 -59,-251 0,-184 79,-361 229,-474 -23,-4 -46,-6 -69,-6 -127,-1 -244,92 -301,199 -42,80 -62,165 -62,255 0,129 45,296 171,360 39,21 44,56 5,79 -52,31 -117,20 -166,-9 -150,-90 -212,-264 -212,-430 0,-101 23,-196 70,-286 96,-180 292,-281 495,-280 76,0 156,11 228,36 74,-25 148,-36 227,-36 132,0 280,25 378,122 97,-97 244,-122 377,-122zm227 188c-124,95 -185,252 -185,404 0,73 15,153 51,218 26,48 73,101 133,101 61,0 109,-54 136,-102 36,-65 50,-144 50,-217 0,-151 -62,-310 -185,-404zm-1210 0c-123,95 -185,254 -184,404 0,73 14,154 50,218 26,48 73,102 133,102 61,0 109,-54 136,-103 36,-65 50,-143 50,-217 0,-152 -61,-309 -185,-404z"/>
 </g>
</svg>
