<?xml version="1.0" encoding="UTF-8"?>
<!DOCTYPE svg PUBLIC "-//W3C//DTD SVG 1.1//EN" "http://www.w3.org/Graphics/SVG/1.1/DTD/svg11.dtd">
<!-- Creator: CorelDRAW X8 -->
<svg xmlns="http://www.w3.org/2000/svg" xml:space="preserve" width="2373px" height="1486px" version="1.1" style="shape-rendering:geometricPrecision; text-rendering:geometricPrecision; image-rendering:optimizeQuality; fill-rule:evenodd; clip-rule:evenodd"
viewBox="0 0 2373 1486"
 xmlns:xlink="http://www.w3.org/1999/xlink">
 <defs>
  <style type="text/css">
   <![CDATA[
    .fil0 {fill:#996633;fill-rule:nonzero}
   ]]>
  </style>
 </defs>
 <g id="Layer_x0020_1">
  <metadata id="CorelCorpID_0Corel-Layer"/>
  <path class="fil0" d="M1296 967l1 -571c0,-166 -106,-283 -278,-284 -23,-1 -46,2 -68,6 150,110 228,292 228,474 0,85 -17,175 -59,250 -68,123 -189,181 -329,181 -139,0 -259,-58 -327,-181 -41,-74 -59,-165 -59,-250 0,-184 79,-361 229,-474 -22,-4 -46,-6 -69,-6 -127,-1 -244,92 -300,199 -43,80 -63,165 -63,254 0,130 45,296 171,361 20,11 32,26 32,41 0,13 -9,27 -27,38 -22,13 -46,19 -71,18 -33,0 -67,-11 -95,-28 -150,-89 -212,-264 -212,-430 0,-101 23,-195 70,-285 96,-180 292,-281 495,-280 76,0 156,11 228,36 74,-25 148,-36 227,-36 138,0 279,26 382,125 102,-101 295,-124 433,-125 109,-1 239,14 338,62 95,46 160,122 156,230 -4,153 -151,185 -278,167 -47,-7 -116,-27 -161,-16 -38,9 -57,47 -55,84 1,34 21,70 56,80 66,19 148,-11 220,-7 154,7 261,115 262,268 0,82 -29,157 -90,214 -89,83 -218,108 -322,108l-1644 0c-53,0 -113,4 -112,70 2,66 58,67 112,67l1890 0c47,0 102,28 102,80 0,51 -55,79 -102,79l-1890 0c-143,0 -320,-34 -316,-209 4,-169 177,-198 316,-198l1648 0c61,0 119,-24 161,-69 34,-38 50,-88 50,-136 0,-76 -45,-140 -125,-148 -113,-12 -170,44 -295,-20 -68,-35 -105,-112 -107,-185 -3,-74 24,-134 89,-174 106,-64 214,-24 325,-8 41,5 70,-2 76,-48 8,-56 -20,-102 -68,-132 -65,-41 -155,-46 -230,-47 -199,-1 -341,61 -341,279l-1 576c0,42 -69,56 -101,56 -33,0 -102,-14 -102,-56zm-504 -779c-122,94 -185,254 -184,404 0,73 14,153 50,218 26,48 73,102 133,102 61,0 109,-55 136,-103 36,-65 50,-143 50,-217 0,-152 -61,-309 -185,-404z"/>
 </g>
</svg>
