<?xml version="1.0" encoding="UTF-8"?>
<!DOCTYPE svg PUBLIC "-//W3C//DTD SVG 1.1//EN" "http://www.w3.org/Graphics/SVG/1.1/DTD/svg11.dtd">
<!-- Creator: CorelDRAW X8 -->
<svg xmlns="http://www.w3.org/2000/svg" xml:space="preserve" width="1001px" height="868px" version="1.1" style="shape-rendering:geometricPrecision; text-rendering:geometricPrecision; image-rendering:optimizeQuality; fill-rule:evenodd; clip-rule:evenodd"
viewBox="0 0 1001 868"
 xmlns:xlink="http://www.w3.org/1999/xlink">
 <defs>
  <style type="text/css">
   <![CDATA[
    .fil0 {fill:#2B2A29;fill-rule:nonzero}
   ]]>
  </style>
 </defs>
 <g id="Layer_x0020_1">
  <metadata id="CorelCorpID_0Corel-Layer"/>
  <path class="fil0" d="M774 794c51,-31 95,-72 131,-120 63,-83 96,-184 96,-288 0,-79 -20,-161 -64,-228 -68,-106 -191,-158 -316,-158 -46,0 -91,6 -136,19 -43,-13 -91,-19 -136,-19 -124,0 -246,54 -307,165 -28,52 -42,108 -42,167 0,98 38,198 128,250 19,11 44,18 68,18 18,0 36,-3 51,-12 12,-7 17,-15 17,-23 0,-9 -7,-18 -20,-25 -74,-36 -101,-132 -101,-208 0,-53 11,-103 37,-149 34,-62 95,-110 169,-113 10,0 20,0 30,2 -88,65 -136,168 -136,275 0,50 11,102 36,146 43,76 120,107 206,107 87,0 164,-31 208,-108 25,-43 36,-95 36,-145 0,-108 -47,-210 -137,-276 10,0 19,-1 29,-1 76,0 139,51 180,111 42,62 58,131 58,205 -1,83 -20,171 -62,244 -19,33 -44,67 -72,93 -25,-31 -77,-49 -114,-57 -41,-10 -83,-13 -125,-13 -46,0 -94,4 -138,15 -43,10 -119,39 -119,92 0,53 73,82 116,92 41,11 87,16 141,16 49,0 97,-5 143,-16 50,-12 99,-30 145,-58zm-289 -263c-30,0 -56,-34 -69,-57 -22,-38 -30,-84 -30,-127 0,-84 34,-172 100,-227 66,55 100,142 100,227 0,43 -8,88 -30,126 -13,24 -40,58 -71,58zm1 272c-29,0 -64,-3 -91,-13 -12,-4 -32,-15 -32,-30 0,-15 20,-25 33,-29 27,-10 61,-13 90,-13 25,0 51,2 76,9 14,4 43,15 43,33 0,19 -29,30 -44,34 -25,7 -50,9 -75,9z"/>
 </g>
</svg>
