<?xml version="1.0" encoding="UTF-8"?>
<!DOCTYPE svg PUBLIC "-//W3C//DTD SVG 1.1//EN" "http://www.w3.org/Graphics/SVG/1.1/DTD/svg11.dtd">
<!-- Creator: CorelDRAW X8 -->
<svg xmlns="http://www.w3.org/2000/svg" xml:space="preserve" width="2213px" height="1024px" version="1.1" style="shape-rendering:geometricPrecision; text-rendering:geometricPrecision; image-rendering:optimizeQuality; fill-rule:evenodd; clip-rule:evenodd"
viewBox="0 0 2213 1024"
 xmlns:xlink="http://www.w3.org/1999/xlink">
 <defs>
  <style type="text/css">
   <![CDATA[
    .fil0 {fill:#A82682;fill-rule:nonzero}
   ]]>
  </style>
 </defs>
 <g id="Layer_x0020_1">
  <metadata id="CorelCorpID_0Corel-Layer"/>
  <path class="fil0" d="M1795 924c151,-62 213,-256 215,-404 1,-70 -8,-143 -35,-208 -42,-107 -141,-201 -264,-201 -152,0 -212,121 -212,254l0 603c0,41 -69,55 -102,55 -32,0 -101,-14 -101,-55l0 -574c0,-165 -106,-282 -277,-283 -23,0 -46,2 -69,6 151,109 229,298 229,478 0,85 -17,174 -59,248 -68,123 -189,181 -329,181 -139,0 -259,-58 -327,-180 -41,-74 -59,-165 -59,-249 0,-183 79,-366 229,-478 -23,-4 -46,-6 -69,-6 -127,-1 -244,92 -301,198 -42,79 -61,171 -61,260 -1,128 44,294 170,358 39,20 44,55 5,79 -52,30 -116,19 -166,-10 -150,-89 -212,-262 -212,-427 0,-101 23,-202 70,-291 96,-179 291,-279 495,-278 76,0 156,11 227,35 75,-24 149,-35 227,-35 129,0 273,24 370,113 83,-84 206,-113 322,-113 190,0 368,90 450,262 39,80 53,169 52,257 -3,203 -92,406 -291,492 -43,18 -107,19 -146,-9 -38,-28 -19,-62 19,-78zm-1003 -737c-123,94 -184,259 -184,408 0,73 14,152 50,217 26,47 73,101 133,101 61,0 109,-54 136,-102 36,-65 50,-143 50,-216 0,-150 -61,-314 -185,-408z"/>
 </g>
</svg>
