<?xml version="1.0" encoding="UTF-8"?>
<!DOCTYPE svg PUBLIC "-//W3C//DTD SVG 1.1//EN" "http://www.w3.org/Graphics/SVG/1.1/DTD/svg11.dtd">
<!-- Creator: CorelDRAW X8 -->
<svg xmlns="http://www.w3.org/2000/svg" xml:space="preserve" width="2734px" height="1486px" version="1.1" style="shape-rendering:geometricPrecision; text-rendering:geometricPrecision; image-rendering:optimizeQuality; fill-rule:evenodd; clip-rule:evenodd"
viewBox="0 0 2734 1486"
 xmlns:xlink="http://www.w3.org/1999/xlink">
 <defs>
  <style type="text/css">
   <![CDATA[
    .fil0 {fill:#996633}
   ]]>
  </style>
 </defs>
 <g id="Layer_x0020_1">
  <metadata id="CorelCorpID_0Corel-Layer"/>
  <path class="fil0" d="M1902 1387c58,0 129,-3 182,-27 35,-15 59,-41 58,-80 -2,-41 -45,-59 -81,-59 -47,-1 -67,42 -67,83 -1,40 -59,51 -91,51 -31,1 -91,-11 -91,-51 0,-41 -20,-83 -66,-83 -37,0 -81,17 -82,59 -2,39 23,65 57,80 53,24 124,27 181,27zm-606 -419l0 -572c0,-168 -103,-283 -277,-284 -23,0 -46,2 -69,6 151,110 229,293 229,474 0,85 -17,175 -59,250 -68,123 -189,182 -329,182 -139,0 -259,-59 -327,-181 -41,-75 -59,-166 -59,-251 0,-184 79,-361 229,-474 -23,-4 -46,-6 -69,-6 -127,-1 -244,92 -301,199 -42,80 -62,165 -62,255 0,129 45,296 171,361 20,10 32,25 32,40 0,14 -9,27 -27,38 -22,13 -46,19 -70,19 -33,0 -67,-11 -96,-28 -150,-90 -212,-264 -212,-430 0,-101 22,-196 70,-286 95,-180 291,-281 495,-280 76,0 156,11 227,36 75,-25 149,-36 227,-36 128,1 268,24 366,110 76,-79 191,-107 298,-110 163,-3 312,74 368,230 18,48 27,100 31,152 4,52 5,104 5,155 0,124 3,375 181,375 179,0 249,-234 251,-375 2,-164 -70,-372 -239,-434 -24,-9 -45,-27 -45,-47 0,-10 5,-20 17,-30 21,-18 50,-26 80,-26 25,0 50,6 72,15 127,49 217,146 270,269 49,114 61,262 60,384 -1,77 -7,153 -22,228 -37,197 -128,369 -307,474 -93,55 -210,86 -317,102 -61,9 -123,13 -185,14 -83,1 -176,-8 -255,-37 -71,-25 -153,-88 -152,-170 1,-49 33,-87 73,-113 49,-30 119,-42 176,-42 52,0 111,10 158,35 47,-25 106,-35 158,-35 57,0 127,12 176,42 41,26 74,64 74,114 0,4 0,8 -1,12 111,-78 171,-200 197,-330 -72,44 -154,62 -239,62 -327,0 -383,-215 -383,-487 -1,-95 0,-195 -32,-285 -25,-68 -88,-142 -168,-140 -144,3 -186,136 -186,256l0 600c0,42 -69,56 -101,56 -32,0 -102,-14 -102,-56zm-504 -780c-123,95 -184,254 -184,404 0,73 14,154 50,218 26,48 73,102 133,102 61,0 109,-54 136,-103 36,-65 50,-143 50,-217 0,-151 -61,-309 -185,-404z"/>
 </g>
</svg>
