<?xml version="1.0" encoding="UTF-8"?>
<!DOCTYPE svg PUBLIC "-//W3C//DTD SVG 1.1//EN" "http://www.w3.org/Graphics/SVG/1.1/DTD/svg11.dtd">
<!-- Creator: CorelDRAW X8 -->
<svg xmlns="http://www.w3.org/2000/svg" xml:space="preserve" width="2734px" height="1486px" version="1.1" style="shape-rendering:geometricPrecision; text-rendering:geometricPrecision; image-rendering:optimizeQuality; fill-rule:evenodd; clip-rule:evenodd"
viewBox="0 0 2734 1486"
 xmlns:xlink="http://www.w3.org/1999/xlink">
 <defs>
  <style type="text/css">
   <![CDATA[
    .fil0 {fill:#A82682;fill-rule:nonzero}
   ]]>
  </style>
 </defs>
 <g id="Layer_x0020_1">
  <metadata id="CorelCorpID_0Corel-Layer"/>
  <path class="fil0" d="M1906 1228c-52,0 -116,5 -165,24 -22,8 -56,26 -57,52 0,27 35,45 56,54 49,18 114,23 166,23 46,0 95,-4 140,-17 26,-7 77,-27 76,-60 0,-32 -49,-51 -75,-59 -45,-13 -94,-17 -141,-17zm-610 -260l0 -572c0,-166 -105,-283 -277,-284 -23,0 -46,2 -69,6 151,110 229,292 229,474 1,85 -17,175 -59,250 -68,123 -189,182 -329,182 -139,0 -259,-59 -327,-181 -41,-75 -58,-166 -59,-251 0,-184 79,-361 229,-474 -23,-4 -46,-6 -69,-6 -127,-1 -244,92 -301,199 -42,80 -61,165 -61,255 0,129 44,296 170,360 39,20 44,56 5,79 -52,31 -117,20 -166,-9 -150,-90 -212,-264 -212,-430 0,-101 23,-196 70,-286 96,-180 292,-281 495,-280 76,0 156,11 227,36 75,-25 149,-36 227,-36 128,0 268,24 366,110 76,-79 191,-107 298,-110 163,-3 312,74 368,230 35,97 35,205 36,306 0,125 3,376 181,376 179,0 249,-234 251,-376 2,-163 -70,-371 -239,-433 -36,-13 -65,-47 -28,-77 42,-35 104,-30 152,-11 144,56 240,172 287,315 34,103 44,231 43,338 -1,77 -7,153 -22,228 -37,197 -128,369 -307,474 -93,55 -210,86 -317,102 -61,9 -123,13 -185,14 -72,0 -149,-7 -218,-25 -72,-19 -190,-69 -189,-157 0,-89 121,-138 194,-157 69,-17 145,-23 216,-23 66,0 132,5 197,20 73,17 196,62 207,148 110,-77 171,-202 197,-330 -72,44 -155,62 -239,62 -327,0 -383,-215 -384,-488 0,-94 1,-194 -31,-284 -25,-68 -88,-142 -168,-140 -144,3 -186,136 -186,256l0 600c0,42 -69,56 -101,56 -32,0 -102,-14 -102,-56zm-504 -780c-122,94 -184,254 -184,404 0,73 14,153 50,218 26,48 73,102 133,102 61,0 109,-54 136,-103 36,-65 50,-143 50,-217 0,-152 -61,-309 -185,-404z"/>
 </g>
</svg>
