<?xml version="1.0" encoding="UTF-8"?>
<!DOCTYPE svg PUBLIC "-//W3C//DTD SVG 1.1//EN" "http://www.w3.org/Graphics/SVG/1.1/DTD/svg11.dtd">
<!-- Creator: CorelDRAW X8 -->
<svg xmlns="http://www.w3.org/2000/svg" xml:space="preserve" width="1601px" height="1486px" version="1.1" style="shape-rendering:geometricPrecision; text-rendering:geometricPrecision; image-rendering:optimizeQuality; fill-rule:evenodd; clip-rule:evenodd"
viewBox="0 0 1601 1486"
 xmlns:xlink="http://www.w3.org/1999/xlink">
 <defs>
  <style type="text/css">
   <![CDATA[
    .fil0 {fill:#A82682;fill-rule:nonzero}
   ]]>
  </style>
 </defs>
 <g id="Layer_x0020_1">
  <metadata id="CorelCorpID_0Corel-Layer"/>
  <path class="fil0" d="M373 926c39,20 45,56 5,79 -51,30 -116,20 -165,-10 -151,-89 -212,-264 -212,-430 -1,-100 23,-195 70,-285 96,-180 292,-281 495,-280 77,0 154,11 227,36 73,-25 150,-36 227,-36 156,0 308,57 417,170 118,121 171,290 163,456 -7,152 -61,293 -175,398 -121,112 -284,166 -448,166l-661 0c-53,0 -113,4 -111,70 1,66 57,67 111,67l1135 0c47,0 102,28 102,79 0,52 -55,80 -102,80l-1135 0c-143,0 -320,-34 -316,-210 4,-169 178,-197 316,-197l661 0c105,0 198,-44 274,-118 93,-91 141,-209 147,-337 6,-127 -29,-261 -107,-363 -64,-84 -162,-150 -271,-150 -23,1 -47,3 -69,7 152,113 229,289 229,474 0,85 -18,175 -59,250 -69,123 -189,181 -329,181 -140,0 -259,-58 -327,-181 -42,-74 -59,-165 -59,-250 0,-184 79,-361 229,-474 -23,-4 -46,-6 -69,-6 -127,-1 -244,92 -301,199 -42,80 -62,165 -62,254 0,130 44,296 170,361zm420 -738c-122,94 -185,254 -185,404 0,73 14,153 50,218 27,48 73,102 134,102 60,0 108,-55 135,-103 36,-65 51,-143 51,-217 -1,-152 -61,-309 -185,-404z"/>
 </g>
</svg>
