<?xml version="1.0" encoding="UTF-8"?>
<!DOCTYPE svg PUBLIC "-//W3C//DTD SVG 1.1//EN" "http://www.w3.org/Graphics/SVG/1.1/DTD/svg11.dtd">
<!-- Creator: CorelDRAW X8 -->
<svg xmlns="http://www.w3.org/2000/svg" xml:space="preserve" width="2618px" height="1024px" version="1.1" style="shape-rendering:geometricPrecision; text-rendering:geometricPrecision; image-rendering:optimizeQuality; fill-rule:evenodd; clip-rule:evenodd"
viewBox="0 0 2618 1024"
 xmlns:xlink="http://www.w3.org/1999/xlink">
 <defs>
  <style type="text/css">
   <![CDATA[
    .fil0 {fill:#996633;fill-rule:nonzero}
   ]]>
  </style>
 </defs>
 <g id="Layer_x0020_1">
  <metadata id="CorelCorpID_0Corel-Layer"/>
  <path class="fil0" d="M373 927c21,11 32,26 32,41 0,13 -9,27 -27,38 -22,12 -46,18 -70,18 -33,0 -67,-11 -96,-28 -150,-89 -212,-262 -212,-427 0,-100 22,-202 70,-291 95,-179 291,-279 495,-278 77,0 154,11 226,35 74,-24 150,-35 228,-35 204,0 400,98 496,278 46,88 69,172 70,270 1,121 -32,247 -113,341l230 0 0 -494c0,-253 207,-395 451,-395 238,0 465,151 465,402l0 543c0,41 -69,55 -101,55l-1238 0c-32,0 -99,-15 -99,-55 0,-15 11,-31 32,-41 127,-65 171,-226 170,-356 0,-88 -20,-161 -61,-239 -58,-108 -174,-198 -302,-198 -24,0 -47,2 -69,6 152,112 229,295 229,478 0,85 -17,174 -59,249 -68,122 -189,180 -329,180 -139,0 -259,-58 -327,-180 -41,-74 -59,-165 -59,-249 0,-182 78,-366 229,-478 -23,-4 -46,-6 -69,-6 -127,0 -244,92 -301,198 -42,79 -62,171 -62,260 0,129 45,294 171,358zm1531 -532l0 494 512 0 0 -487c0,-150 -102,-290 -265,-290 -165,0 -247,135 -247,283zm-1112 -208c-122,93 -185,258 -184,408 0,73 14,153 50,217 26,48 73,101 133,101 61,0 109,-54 136,-102 36,-65 50,-143 50,-216 0,-151 -62,-314 -185,-408z"/>
 </g>
</svg>
