<?xml version="1.0" encoding="UTF-8"?>
<!DOCTYPE svg PUBLIC "-//W3C//DTD SVG 1.1//EN" "http://www.w3.org/Graphics/SVG/1.1/DTD/svg11.dtd">
<!-- Creator: CorelDRAW X8 -->
<svg xmlns="http://www.w3.org/2000/svg" xml:space="preserve" width="3162px" height="1486px" version="1.1" style="shape-rendering:geometricPrecision; text-rendering:geometricPrecision; image-rendering:optimizeQuality; fill-rule:evenodd; clip-rule:evenodd"
viewBox="0 0 3162 1486"
 xmlns:xlink="http://www.w3.org/1999/xlink">
 <defs>
  <style type="text/css">
   <![CDATA[
    .fil0 {fill:#996633;fill-rule:nonzero}
   ]]>
  </style>
 </defs>
 <g id="Layer_x0020_1">
  <metadata id="CorelCorpID_0Corel-Layer"/>
  <path class="fil0" d="M2123 1c77,0 154,10 227,35 69,-23 144,-35 216,-36 184,-1 358,69 472,213 87,108 124,249 124,385 1,291 -127,514 -379,665 -316,190 -749,219 -1112,222 -377,3 -839,-21 -1182,-186 -304,-146 -490,-380 -489,-721 0,-227 95,-440 299,-560 20,-12 46,-18 73,-18 25,0 50,6 70,16 21,10 32,25 32,41 -1,13 -9,27 -28,38 -171,100 -243,295 -243,483 -1,273 127,477 367,610 307,170 754,189 1101,186 318,-3 725,-26 995,-206 203,-136 293,-331 293,-570 0,-111 -26,-226 -90,-318 -70,-99 -176,-170 -302,-168 -20,0 -40,2 -59,6 151,113 229,290 229,474 0,85 -17,175 -59,250 -68,123 -189,181 -328,181 -159,0 -267,-72 -327,-180 -40,-72 -60,-159 -60,-251 0,-185 78,-361 230,-474 -23,-4 -47,-6 -70,-6 -173,0 -276,119 -276,286l0 570c0,41 -69,55 -101,55 -33,0 -102,-14 -102,-55l0 -570c0,-166 -105,-285 -277,-286 -23,0 -46,2 -69,6 151,110 229,293 230,475 0,85 -18,174 -60,249 -68,124 -189,182 -329,182 -139,0 -259,-59 -327,-181 -41,-75 -58,-166 -58,-250 0,-184 78,-362 228,-475 -23,-4 -46,-6 -69,-6 -127,0 -244,93 -301,200 -42,79 -61,165 -61,254 0,130 44,296 170,361 21,11 32,26 32,40 0,14 -9,28 -27,39 -22,12 -45,18 -69,18 -34,0 -68,-11 -97,-28 -150,-90 -212,-264 -212,-430 0,-101 23,-196 70,-285 96,-181 292,-281 495,-280 76,0 156,10 228,35 74,-25 148,-35 227,-35 132,0 280,25 377,121 98,-96 245,-121 378,-121zm227 187c-125,95 -185,253 -185,404 1,73 15,153 51,218 26,48 73,101 134,101 60,0 108,-54 135,-102 36,-65 50,-143 50,-217 0,-151 -62,-309 -185,-404zm-1210 0c-122,95 -184,254 -184,405 0,73 14,153 50,218 26,48 73,102 133,101 61,0 109,-54 136,-102 36,-65 50,-144 50,-217 0,-152 -61,-310 -185,-405z"/>
 </g>
</svg>
