<?xml version="1.0" encoding="UTF-8"?>
<!DOCTYPE svg PUBLIC "-//W3C//DTD SVG 1.1//EN" "http://www.w3.org/Graphics/SVG/1.1/DTD/svg11.dtd">
<!-- Creator: CorelDRAW X8 -->
<svg xmlns="http://www.w3.org/2000/svg" xml:space="preserve" width="1001px" height="868px" version="1.1" style="shape-rendering:geometricPrecision; text-rendering:geometricPrecision; image-rendering:optimizeQuality; fill-rule:evenodd; clip-rule:evenodd"
viewBox="0 0 1001 868"
 xmlns:xlink="http://www.w3.org/1999/xlink">
 <defs>
  <style type="text/css">
   <![CDATA[
    .fil0 {fill:#996633;fill-rule:nonzero}
   ]]>
  </style>
 </defs>
 <g id="Layer_x0020_1">
  <metadata id="CorelCorpID_0Corel-Layer"/>
  <path class="fil0" d="M583 792c20,-8 34,-23 34,-46 -1,-20 -17,-32 -37,-32 -8,0 -14,4 -19,10 -9,10 -12,23 -12,36 -1,27 -45,32 -65,32 -20,0 -65,-5 -65,-32 0,-13 -4,-26 -12,-36 -6,-6 -13,-10 -21,-10 -18,1 -35,13 -35,32 -1,23 13,38 33,46 23,10 62,17 100,17 38,0 76,-7 99,-17zm-97 -672c-66,55 -100,143 -100,227 0,43 8,89 30,127 13,23 39,57 69,57 31,0 58,-34 71,-58 22,-37 31,-83 30,-126 0,-85 -34,-172 -100,-227zm-242 421c13,6 20,15 20,24 0,8 -5,16 -17,23 -14,8 -31,12 -48,12 -3,0 -7,0 -10,0 -22,-1 -44,-8 -61,-18 -90,-51 -128,-152 -128,-250 0,-59 14,-115 42,-167 60,-111 184,-165 308,-165 45,0 92,6 136,19 44,-13 90,-19 136,-19 125,0 247,52 315,158 45,69 65,149 64,231 -2,102 -33,203 -96,286 -39,51 -87,94 -143,126 -39,22 -81,38 -125,49 -50,13 -102,18 -153,18 -53,1 -112,-5 -162,-22 -42,-15 -94,-51 -93,-100 0,-29 20,-52 44,-66 32,-20 79,-26 116,-26 31,0 65,4 95,17 29,-13 63,-17 95,-17 37,0 83,6 115,26 15,9 29,21 37,37 26,-25 48,-53 66,-84 42,-72 61,-158 62,-241 0,-74 -16,-149 -58,-211 -41,-60 -105,-110 -181,-111 -9,0 -19,0 -28,1 91,69 137,166 137,276 0,50 -11,102 -36,146 -44,76 -121,107 -208,107 -86,0 -163,-31 -206,-107 -25,-43 -36,-96 -36,-146 0,-107 48,-210 136,-275 -10,-2 -20,-2 -30,-2 -74,3 -136,51 -170,113 -25,46 -37,97 -37,149 0,76 28,172 102,209z"/>
 </g>
</svg>
