<?xml version="1.0" encoding="UTF-8"?>
<!DOCTYPE svg PUBLIC "-//W3C//DTD SVG 1.1//EN" "http://www.w3.org/Graphics/SVG/1.1/DTD/svg11.dtd">
<!-- Creator: CorelDRAW X8 -->
<svg xmlns="http://www.w3.org/2000/svg" xml:space="preserve" width="3163px" height="1486px" version="1.1" style="shape-rendering:geometricPrecision; text-rendering:geometricPrecision; image-rendering:optimizeQuality; fill-rule:evenodd; clip-rule:evenodd"
viewBox="0 0 3163 1486"
 xmlns:xlink="http://www.w3.org/1999/xlink">
 <defs>
  <style type="text/css">
   <![CDATA[
    .fil0 {fill:#2B2A29;fill-rule:nonzero}
   ]]>
  </style>
 </defs>
 <g id="Layer_x0020_1">
  <metadata id="CorelCorpID_0Corel-Layer"/>
  <path class="fil0" d="M2785 1263c251,-150 378,-378 378,-671 0,-136 -37,-271 -124,-379 -113,-143 -287,-213 -468,-213 -73,0 -151,13 -220,36 -73,-25 -150,-35 -227,-35 -133,0 -280,25 -377,121 -98,-96 -247,-121 -380,-121 -78,0 -152,11 -227,35 -71,-25 -151,-35 -227,-35 -203,0 -397,97 -495,280 -47,89 -70,184 -70,285 0,166 62,341 212,430 28,17 62,28 96,28 24,0 48,-5 70,-18 18,-11 27,-24 27,-38 0,-15 -11,-30 -32,-41 -126,-65 -170,-231 -170,-361 0,-89 19,-175 61,-254 57,-107 174,-200 301,-200 23,0 46,2 69,6 -150,113 -229,291 -229,475 1,85 18,175 59,250 68,123 188,181 327,181 140,0 261,-58 329,-181 44,-77 59,-163 59,-250 0,-182 -78,-365 -229,-475 23,-4 46,-6 69,-6 172,1 278,120 278,286l0 570c0,42 68,56 102,56 32,0 101,-15 101,-56l0 -570c0,-167 103,-285 276,-286 23,0 47,2 70,6 -152,113 -230,290 -230,475 0,93 20,179 60,250 60,108 168,180 327,180 139,0 260,-58 328,-181 42,-75 59,-164 59,-249 0,-184 -77,-362 -229,-475 21,-3 40,-6 62,-6 124,0 229,70 299,168 64,90 90,203 90,312 0,244 -87,439 -293,576 -287,191 -721,206 -1058,206 -337,0 -750,-26 -1039,-186 -240,-133 -368,-337 -368,-610 1,-188 73,-383 244,-483 19,-11 27,-25 27,-38 0,-16 -11,-30 -31,-41 -20,-11 -45,-16 -70,-16 -27,0 -53,6 -74,18 -203,120 -298,333 -298,560 0,345 187,576 489,721 326,157 753,187 1120,187 380,0 844,-24 1176,-223zm-434 -351c-61,0 -108,-54 -134,-102 -38,-66 -50,-142 -50,-217 0,-150 61,-311 184,-405 123,95 185,254 185,405 0,74 -14,151 -50,216 -27,48 -75,103 -135,103zm-1212 1c-60,0 -107,-54 -133,-102 -36,-65 -50,-145 -50,-218 0,-151 62,-310 184,-405 124,95 185,253 185,405 0,73 -14,152 -50,217 -27,48 -75,103 -136,103z"/>
 </g>
</svg>
