<?xml version="1.0" encoding="UTF-8"?>
<!DOCTYPE svg PUBLIC "-//W3C//DTD SVG 1.1//EN" "http://www.w3.org/Graphics/SVG/1.1/DTD/svg11.dtd">
<!-- Creator: CorelDRAW X8 -->
<svg xmlns="http://www.w3.org/2000/svg" xml:space="preserve" width="1679px" height="1486px" version="1.1" style="shape-rendering:geometricPrecision; text-rendering:geometricPrecision; image-rendering:optimizeQuality; fill-rule:evenodd; clip-rule:evenodd"
viewBox="0 0 1679 1486"
 xmlns:xlink="http://www.w3.org/1999/xlink">
 <defs>
  <style type="text/css">
   <![CDATA[
    .fil0 {fill:#A82682;fill-rule:nonzero}
   ]]>
  </style>
 </defs>
 <g id="Layer_x0020_1">
  <metadata id="CorelCorpID_0Corel-Layer"/>
  <path class="fil0" d="M1329 479c73,0 106,-84 106,-146 0,-169 -188,-221 -332,-221 -49,0 -99,1 -147,11 148,113 223,288 224,470 0,85 -18,175 -60,250 -68,123 -189,181 -329,181 -139,1 -259,-58 -327,-181 -41,-74 -59,-165 -59,-250 0,-184 79,-361 229,-474 -23,-4 -46,-6 -69,-6 -127,-1 -244,92 -301,199 -42,80 -61,165 -62,254 0,130 45,297 171,361 39,20 44,56 5,79 -52,31 -117,20 -166,-10 -150,-89 -212,-263 -212,-430 0,-100 22,-195 70,-285 96,-180 291,-281 495,-280 77,0 164,11 237,39 96,-31 200,-40 301,-40 122,0 258,20 364,81 94,55 164,146 163,256 -1,80 -39,149 -104,195 98,57 153,156 153,268 0,90 -27,173 -90,240 -109,115 -267,150 -420,150l-853 0c-53,0 -113,4 -111,70 1,66 57,67 111,67l1214 0c46,0 101,28 101,80 0,51 -55,79 -101,79l-1214 0c-143,0 -320,-34 -316,-209 4,-170 178,-198 316,-198l856 0c97,0 197,-37 255,-117 35,-48 58,-104 58,-162 0,-92 -51,-207 -157,-209 -34,-1 -81,-13 -80,-56 1,-44 45,-56 81,-56zm-537 -290c-122,94 -184,254 -184,404 0,73 14,153 50,218 26,48 73,102 133,102 61,0 109,-55 136,-103 36,-65 50,-143 50,-217 0,-152 -61,-309 -185,-404z"/>
 </g>
</svg>
