<?xml version="1.0" encoding="UTF-8"?>
<!DOCTYPE svg PUBLIC "-//W3C//DTD SVG 1.1//EN" "http://www.w3.org/Graphics/SVG/1.1/DTD/svg11.dtd">
<!-- Creator: CorelDRAW X8 -->
<svg xmlns="http://www.w3.org/2000/svg" xml:space="preserve" width="1974px" height="1486px" version="1.1" style="shape-rendering:geometricPrecision; text-rendering:geometricPrecision; image-rendering:optimizeQuality; fill-rule:evenodd; clip-rule:evenodd"
viewBox="0 0 1974 1487"
 xmlns:xlink="http://www.w3.org/1999/xlink">
 <defs>
  <style type="text/css">
   <![CDATA[
    .fil0 {fill:#2B2A29;fill-rule:nonzero}
   ]]>
  </style>
 </defs>
 <g id="Layer_x0020_1">
  <metadata id="CorelCorpID_0Corel-Layer"/>
  <path class="fil0" d="M1629 1320c227,-150 345,-396 345,-663 0,-231 -96,-464 -307,-583 -89,-49 -191,-74 -293,-74 -77,0 -154,11 -228,36 -72,-25 -152,-35 -228,-36 -205,0 -398,100 -494,280 -47,90 -70,185 -70,286 0,166 62,340 212,430 29,18 63,28 97,28 24,0 47,-6 69,-18 18,-11 27,-25 27,-38 0,-15 -11,-30 -32,-41 -126,-65 -171,-232 -171,-361 1,-90 20,-175 62,-255 57,-105 173,-199 300,-199 24,0 47,2 70,6 -150,113 -229,291 -229,474 0,85 18,176 59,251 68,122 188,181 328,181 140,0 261,-59 329,-182 42,-75 59,-164 59,-250 0,-184 -77,-361 -229,-474 22,-4 46,-6 69,-6 72,0 140,28 196,72 139,110 201,303 202,473 0,208 -80,417 -244,551 -148,121 -330,167 -518,167 -166,0 -338,-40 -478,-133 -214,-141 -330,-386 -330,-639 0,-196 73,-404 250,-509 19,-11 27,-25 27,-38 0,-15 -11,-30 -32,-41 -20,-10 -44,-15 -69,-15 -27,0 -54,6 -74,18 -209,125 -304,349 -304,585 0,286 137,552 376,711 186,123 413,173 634,173 215,0 438,-48 619,-167zm-483 -408c-60,0 -108,-53 -134,-101 -36,-65 -50,-145 -50,-219 0,-150 62,-310 184,-404 125,95 186,253 186,404 0,74 -14,153 -50,218 -27,48 -76,102 -136,102z"/>
 </g>
</svg>
