<?xml version="1.0" encoding="UTF-8"?>
<!DOCTYPE svg PUBLIC "-//W3C//DTD SVG 1.1//EN" "http://www.w3.org/Graphics/SVG/1.1/DTD/svg11.dtd">
<!-- Creator: CorelDRAW X8 -->
<svg xmlns="http://www.w3.org/2000/svg" xml:space="preserve" width="2339px" height="1024px" version="1.1" style="shape-rendering:geometricPrecision; text-rendering:geometricPrecision; image-rendering:optimizeQuality; fill-rule:evenodd; clip-rule:evenodd"
viewBox="0 0 2339 1024"
 xmlns:xlink="http://www.w3.org/1999/xlink">
 <defs>
  <style type="text/css">
   <![CDATA[
    .fil0 {fill:#996633;fill-rule:nonzero}
   ]]>
  </style>
 </defs>
 <g id="Layer_x0020_1">
  <metadata id="CorelCorpID_0Corel-Layer"/>
  <path class="fil0" d="M1297 969l0 -575c0,-167 -104,-282 -278,-283 -23,0 -46,2 -68,6 150,109 229,298 229,478 0,85 -18,174 -59,249 -69,122 -190,180 -330,180 -139,0 -259,-58 -327,-180 -41,-74 -59,-164 -59,-249 0,-182 79,-366 229,-478 -23,-4 -46,-6 -69,-6 -127,-1 -244,92 -301,198 -42,79 -61,171 -62,260 0,129 45,294 171,359 21,10 32,25 32,40 0,13 -9,27 -27,38 -22,13 -45,18 -70,18 -34,0 -67,-11 -96,-28 -150,-89 -212,-262 -212,-427 0,-100 22,-202 70,-291 96,-179 291,-279 495,-278 76,0 156,11 228,35 74,-24 148,-35 227,-35 138,0 279,26 382,124 103,-101 295,-123 433,-124 110,-1 239,14 338,62 96,46 160,121 157,229 -5,151 -152,183 -279,165 -47,-6 -116,-26 -160,-16 -39,9 -58,47 -56,84 1,34 21,70 57,80 68,19 163,-16 240,-12 116,6 206,82 207,200 1,167 -180,219 -320,229 -57,5 -115,2 -171,-6 -56,-9 -109,-23 -154,-42 -24,-10 -39,-27 -39,-45 0,-11 6,-23 22,-33 20,-15 49,-21 78,-22 23,0 46,4 64,12 51,22 119,27 175,26 72,0 147,-40 147,-119 -1,-35 -19,-60 -53,-72 -76,-25 -188,54 -332,-18 -68,-35 -104,-105 -107,-178 -2,-73 24,-139 89,-179 106,-64 214,-24 325,-8 42,5 70,-2 77,-47 8,-56 -21,-102 -68,-132 -65,-40 -156,-46 -231,-46 -200,-2 -341,59 -341,277l0 580c0,41 -70,55 -102,55 -32,0 -101,-14 -101,-55zm-505 -782c-122,93 -184,259 -184,408 0,73 14,153 50,217 26,48 73,101 133,101 61,0 109,-54 136,-102 36,-65 50,-143 50,-216 0,-151 -61,-314 -185,-408z"/>
 </g>
</svg>
