<?xml version="1.0" encoding="UTF-8"?>
<!DOCTYPE svg PUBLIC "-//W3C//DTD SVG 1.1//EN" "http://www.w3.org/Graphics/SVG/1.1/DTD/svg11.dtd">
<!-- Creator: CorelDRAW X8 -->
<svg xmlns="http://www.w3.org/2000/svg" xml:space="preserve" width="1632px" height="1486px" version="1.1" style="shape-rendering:geometricPrecision; text-rendering:geometricPrecision; image-rendering:optimizeQuality; fill-rule:evenodd; clip-rule:evenodd"
viewBox="0 0 1632 1486"
 xmlns:xlink="http://www.w3.org/1999/xlink">
 <defs>
  <style type="text/css">
   <![CDATA[
    .fil0 {fill:#2B2A29;fill-rule:nonzero}
   ]]>
  </style>
 </defs>
 <g id="Layer_x0020_1">
  <metadata id="CorelCorpID_0Corel-Layer"/>
  <path class="fil0" d="M1254 1362c81,-51 154,-119 218,-206 110,-147 160,-329 160,-511 0,-133 -34,-263 -106,-377 -109,-173 -304,-268 -508,-268 -77,0 -154,11 -227,36 -73,-25 -150,-36 -227,-36 -203,0 -399,100 -495,280 -47,90 -69,185 -69,286 0,166 62,340 212,429 29,18 63,29 96,29 24,0 48,-6 70,-19 18,-11 27,-24 27,-38 0,-15 -11,-30 -32,-41 -126,-64 -171,-231 -171,-360 0,-90 19,-175 61,-255 57,-106 173,-199 299,-199 24,0 47,2 71,6 -150,113 -228,290 -228,474 0,85 18,176 59,250 67,122 186,181 327,181 140,0 259,-55 329,-181 42,-75 59,-165 59,-250 0,-185 -78,-361 -230,-474 24,-4 47,-6 71,-6 130,0 244,92 313,195 71,105 97,214 97,338 0,146 -31,313 -103,441 -37,66 -84,125 -143,174 -32,-65 -130,-101 -197,-116 -64,-15 -130,-20 -196,-20 -72,0 -147,6 -217,23 -72,19 -194,68 -194,157 0,88 117,138 189,157 66,17 141,25 222,25 72,0 146,-8 218,-25 87,-20 170,-52 245,-99zm-463 -450c-60,0 -107,-54 -133,-102 -36,-65 -50,-145 -51,-218 0,-150 62,-310 184,-404 124,95 186,252 186,404 0,74 -14,152 -50,217 -27,48 -75,103 -136,103zm0 469c-53,0 -117,-5 -166,-23 -22,-9 -56,-26 -56,-53 0,-28 35,-45 57,-53 48,-19 113,-23 165,-23 47,0 95,3 141,16 25,8 75,27 75,59 0,33 -51,53 -77,60 -45,13 -93,17 -139,17z"/>
 </g>
</svg>
