<?xml version="1.0" encoding="UTF-8"?>
<!DOCTYPE svg PUBLIC "-//W3C//DTD SVG 1.1//EN" "http://www.w3.org/Graphics/SVG/1.1/DTD/svg11.dtd">
<!-- Creator: CorelDRAW X8 -->
<svg xmlns="http://www.w3.org/2000/svg" xml:space="preserve" width="1601px" height="1486px" version="1.1" style="shape-rendering:geometricPrecision; text-rendering:geometricPrecision; image-rendering:optimizeQuality; fill-rule:evenodd; clip-rule:evenodd"
viewBox="0 0 1601 1486"
 xmlns:xlink="http://www.w3.org/1999/xlink">
 <defs>
  <style type="text/css">
   <![CDATA[
    .fil0 {fill:#A82682;fill-rule:nonzero}
   ]]>
  </style>
 </defs>
 <g id="Layer_x0020_1">
  <metadata id="CorelCorpID_0Corel-Layer"/>
  <path class="fil0" d="M373 926c39,20 45,56 5,79 -51,31 -116,20 -166,-9 -150,-90 -211,-264 -212,-430 0,-101 24,-196 71,-286 96,-180 291,-280 495,-280 77,1 154,11 227,36 73,-25 150,-36 227,-36 157,0 308,57 417,170 118,121 171,291 163,457 -7,151 -61,293 -175,398 -121,112 -284,166 -448,166l-661 0c-53,0 -113,3 -112,69 2,66 58,67 112,67l1144 0c47,0 102,28 102,80 0,51 -55,79 -102,79l-1144 0c-143,0 -320,-34 -316,-209 4,-169 177,-198 316,-198l661 0c105,0 198,-44 274,-118 93,-90 141,-209 147,-337 6,-126 -29,-261 -107,-363 -64,-84 -162,-150 -271,-149 -23,0 -47,2 -69,6 152,113 229,289 229,474 0,85 -17,175 -59,250 -69,123 -189,181 -329,182 -140,0 -259,-59 -327,-181 -42,-75 -59,-166 -59,-251 0,-184 79,-361 229,-474 -23,-4 -46,-6 -69,-6 -127,-1 -244,92 -301,199 -42,80 -62,165 -62,255 0,129 44,296 170,360zm420 -738c-122,94 -185,254 -185,404 0,73 14,154 50,218 27,48 73,102 134,102 60,0 108,-55 135,-103 36,-65 51,-143 51,-217 0,-152 -61,-309 -185,-404z"/>
 </g>
</svg>
