<?xml version="1.0" encoding="UTF-8"?>
<!DOCTYPE svg PUBLIC "-//W3C//DTD SVG 1.1//EN" "http://www.w3.org/Graphics/SVG/1.1/DTD/svg11.dtd">
<!-- Creator: CorelDRAW X8 -->
<svg xmlns="http://www.w3.org/2000/svg" xml:space="preserve" width="2721px" height="1024px" version="1.1" style="shape-rendering:geometricPrecision; text-rendering:geometricPrecision; image-rendering:optimizeQuality; fill-rule:evenodd; clip-rule:evenodd"
viewBox="0 0 2721 1024"
 xmlns:xlink="http://www.w3.org/1999/xlink">
 <defs>
  <style type="text/css">
   <![CDATA[
    .fil0 {fill:#A82682;fill-rule:nonzero}
   ]]>
  </style>
 </defs>
 <g id="Layer_x0020_1">
  <metadata id="CorelCorpID_0Corel-Layer"/>
  <path class="fil0" d="M1296 968l0 -574c0,-164 -106,-282 -277,-283 -23,0 -46,2 -69,6 151,109 229,297 229,478 0,85 -17,174 -59,248 -68,123 -189,181 -329,181 -139,0 -259,-58 -327,-180 -41,-74 -59,-165 -59,-249 0,-182 78,-366 229,-478 -23,-4 -46,-6 -69,-6 -127,-1 -244,92 -301,198 -42,79 -61,171 -61,260 -1,128 44,294 170,358 39,20 44,55 5,79 -52,30 -116,19 -166,-10 -150,-89 -212,-262 -212,-427 0,-101 23,-202 70,-291 96,-179 291,-279 495,-278 76,0 156,11 227,35 75,-24 149,-35 227,-35 128,0 268,23 366,109 76,-78 191,-107 298,-109 163,-3 312,73 368,229 35,95 35,203 35,304 1,124 4,380 182,380 179,0 249,-239 251,-380 2,-162 -70,-369 -239,-430 -36,-14 -65,-47 -28,-77 41,-35 104,-30 152,-12 216,85 320,300 317,519 -5,272 -157,491 -453,491 -327,0 -383,-220 -384,-491 0,-94 1,-193 -31,-283 -25,-68 -88,-141 -168,-139 -144,3 -186,135 -186,254l0 603c0,42 -69,56 -101,56 -32,0 -102,-14 -102,-56zm-504 -781c-122,93 -184,258 -184,408 0,73 14,152 50,217 26,47 73,101 133,101 61,0 109,-54 136,-102 36,-65 50,-143 50,-216 0,-151 -62,-314 -185,-408z"/>
 </g>
</svg>
