<?xml version="1.0" encoding="UTF-8"?>
<!DOCTYPE svg PUBLIC "-//W3C//DTD SVG 1.1//EN" "http://www.w3.org/Graphics/SVG/1.1/DTD/svg11.dtd">
<!-- Creator: CorelDRAW X8 -->
<svg xmlns="http://www.w3.org/2000/svg" xml:space="preserve" width="2173px" height="1024px" version="1.1" style="shape-rendering:geometricPrecision; text-rendering:geometricPrecision; image-rendering:optimizeQuality; fill-rule:evenodd; clip-rule:evenodd"
viewBox="0 0 2173 1024"
 xmlns:xlink="http://www.w3.org/1999/xlink">
 <defs>
  <style type="text/css">
   <![CDATA[
    .fil0 {fill:#669933;fill-rule:nonzero}
   ]]>
  </style>
 </defs>
 <g id="Layer_x0020_1">
  <metadata id="CorelCorpID_0Corel-Layer"/>
  <path class="fil0" d="M1787 942c156,-66 221,-264 223,-422 1,-73 -9,-148 -35,-215 -46,-118 -153,-214 -284,-214 -162,0 -232,122 -232,271l0 616c0,25 -37,45 -82,45 -44,0 -81,-20 -81,-45l0 -587c0,-181 -119,-299 -297,-300 -33,0 -67,4 -101,12 109,74 186,197 219,323 15,56 22,114 22,171 1,92 -19,180 -58,250 -65,119 -178,177 -310,177 -131,0 -243,-58 -308,-176 -38,-70 -58,-160 -58,-251 0,-58 8,-115 23,-171 34,-130 108,-245 218,-323 -31,-8 -65,-12 -101,-12 -135,-1 -259,94 -320,211 -41,78 -62,171 -62,268 0,137 46,307 176,374 33,18 35,46 4,65 -43,26 -95,15 -136,-10 -147,-89 -207,-265 -207,-429 0,-106 24,-207 69,-294 92,-176 280,-277 476,-276 74,0 157,12 227,38 76,-26 147,-38 227,-38 135,0 280,27 371,129 70,-86 184,-129 321,-129 183,0 352,90 431,259 37,79 52,169 51,260 -3,201 -89,408 -283,494 -35,15 -86,17 -118,-7 -27,-20 -20,-48 15,-64zm-1015 -781c-94,66 -154,169 -183,278 -14,53 -21,106 -21,158 0,82 17,163 51,225 31,57 82,111 152,111 71,0 123,-54 155,-112 34,-63 51,-141 51,-224 0,-52 -7,-105 -21,-158 -29,-109 -90,-212 -184,-278z"/>
 </g>
</svg>
