<?xml version="1.0" encoding="UTF-8"?>
<!DOCTYPE svg PUBLIC "-//W3C//DTD SVG 1.1//EN" "http://www.w3.org/Graphics/SVG/1.1/DTD/svg11.dtd">
<!-- Creator: CorelDRAW X8 -->
<svg xmlns="http://www.w3.org/2000/svg" xml:space="preserve" width="1001px" height="868px" version="1.1" style="shape-rendering:geometricPrecision; text-rendering:geometricPrecision; image-rendering:optimizeQuality; fill-rule:evenodd; clip-rule:evenodd"
viewBox="0 0 1001 868"
 xmlns:xlink="http://www.w3.org/1999/xlink">
 <defs>
  <style type="text/css">
   <![CDATA[
    .fil0 {fill:#A82682;fill-rule:nonzero}
   ]]>
  </style>
 </defs>
 <g id="Layer_x0020_1">
  <metadata id="CorelCorpID_0Corel-Layer"/>
  <path class="fil0" d="M583 792c20,-9 34,-24 34,-46 -1,-20 -17,-33 -37,-32 -22,0 -31,28 -31,46 -1,27 -45,32 -65,32 -20,0 -65,-5 -65,-32 0,-18 -10,-47 -33,-46 -18,1 -35,13 -35,32 -1,22 13,37 33,46 23,10 62,17 100,17 38,-1 76,-7 99,-17zm-97 -672c-66,55 -100,143 -100,227 0,43 8,89 30,127 13,23 39,57 69,57 31,0 58,-34 71,-58 22,-38 30,-83 30,-126 0,-85 -34,-172 -100,-227zm-242 421c24,12 28,33 3,47 -35,20 -86,14 -119,-6 -90,-52 -128,-152 -128,-250 0,-59 14,-115 42,-167 61,-111 184,-165 308,-165 45,0 92,6 136,19 44,-13 90,-19 136,-19 125,0 247,52 315,158 45,69 65,149 64,230 -2,103 -33,204 -96,287 -39,51 -87,94 -143,125 -39,23 -81,39 -125,50 -50,12 -102,17 -153,18 -53,1 -112,-5 -162,-22 -42,-15 -94,-51 -93,-100 0,-30 20,-52 44,-67 33,-19 79,-26 116,-26 31,0 65,5 95,17 29,-12 63,-17 95,-17 37,0 83,7 115,26 15,9 29,22 37,37 26,-24 48,-52 66,-83 42,-73 61,-158 62,-241 0,-74 -16,-149 -58,-211 -41,-60 -105,-110 -181,-111 -9,-1 -19,0 -28,1 91,69 137,166 137,276 0,50 -11,102 -36,146 -44,76 -121,107 -208,107 -86,0 -163,-31 -206,-107 -25,-44 -36,-96 -36,-146 0,-107 48,-210 136,-275 -10,-2 -20,-2 -30,-2 -74,3 -135,51 -169,113 -26,46 -37,96 -37,149 0,76 27,172 101,209z"/>
 </g>
</svg>
