<?xml version="1.0" encoding="UTF-8"?>
<!DOCTYPE svg PUBLIC "-//W3C//DTD SVG 1.1//EN" "http://www.w3.org/Graphics/SVG/1.1/DTD/svg11.dtd">
<!-- Creator: CorelDRAW X8 -->
<svg xmlns="http://www.w3.org/2000/svg" xml:space="preserve" width="2844px" height="1486px" version="1.1" style="shape-rendering:geometricPrecision; text-rendering:geometricPrecision; image-rendering:optimizeQuality; fill-rule:evenodd; clip-rule:evenodd"
viewBox="0 0 2843 1486"
 xmlns:xlink="http://www.w3.org/1999/xlink">
 <defs>
  <style type="text/css">
   <![CDATA[
    .fil0 {fill:#996633;fill-rule:nonzero}
   ]]>
  </style>
 </defs>
 <g id="Layer_x0020_1">
  <metadata id="CorelCorpID_0Corel-Layer"/>
  <path class="fil0" d="M2002 1228c-52,0 -116,5 -165,23 -22,9 -56,26 -57,53 0,27 35,45 56,53 49,19 114,24 166,24 46,0 95,-4 139,-17 27,-7 77,-27 77,-60 0,-32 -49,-51 -75,-59 -45,-13 -94,-17 -141,-17zm-227 -1228c78,0 154,11 227,35 73,-24 150,-35 227,-35 204,0 400,95 509,268 75,119 108,257 105,396 -3,176 -54,349 -159,492 -64,87 -137,155 -219,205 -82,52 -172,86 -271,105 -63,13 -127,19 -192,20 -72,1 -152,-7 -222,-26 -71,-19 -189,-68 -188,-156 0,-90 121,-138 194,-157 69,-17 144,-23 216,-23 66,0 132,5 196,20 67,15 165,51 198,115 58,-48 105,-108 142,-173 71,-126 103,-273 103,-416 1,-126 -25,-256 -97,-363 -70,-105 -182,-196 -315,-196 -23,1 -46,2 -68,6 151,113 228,290 228,475 0,85 -17,174 -59,249 -69,123 -189,181 -329,181 -139,0 -259,-58 -327,-180 -42,-75 -59,-166 -59,-250 0,-186 78,-361 230,-474 -23,-5 -46,-6 -70,-6 -171,0 -276,120 -277,285l0 570c0,42 -68,56 -101,56 -32,0 -101,-14 -100,-56l0 -570c0,-166 -105,-284 -277,-285 -23,-1 -46,2 -69,6 151,110 228,292 228,474 0,85 -17,175 -59,250 -68,123 -189,181 -329,181 -139,0 -259,-58 -327,-181 -41,-74 -59,-165 -59,-250 0,-184 79,-361 230,-474 -23,-4 -46,-6 -70,-6 -126,-1 -243,92 -300,199 -42,80 -63,165 -63,254 0,130 45,297 171,361 20,11 32,26 32,41 0,13 -9,27 -27,38 -22,13 -46,18 -70,18 -33,0 -67,-11 -96,-28 -150,-89 -212,-264 -212,-430 0,-100 23,-195 71,-285 95,-180 291,-281 495,-280 75,0 155,11 227,36 75,-25 148,-36 227,-36 133,0 281,25 378,122 97,-97 245,-122 377,-122zm227 187c-124,96 -185,253 -185,405 0,73 14,153 50,217 27,48 74,102 134,102 61,0 109,-54 135,-103 37,-65 51,-143 51,-216 0,-152 -62,-310 -185,-405zm-1210 1c-122,94 -185,254 -185,404 1,73 15,153 51,218 26,48 73,102 133,102 61,0 109,-55 136,-103 36,-65 50,-143 50,-217 0,-151 -60,-309 -185,-404z"/>
 </g>
</svg>
