<?xml version="1.0" encoding="UTF-8"?>
<!DOCTYPE svg PUBLIC "-//W3C//DTD SVG 1.1//EN" "http://www.w3.org/Graphics/SVG/1.1/DTD/svg11.dtd">
<!-- Creator: CorelDRAW X8 -->
<svg xmlns="http://www.w3.org/2000/svg" xml:space="preserve" width="2395px" height="1486px" version="1.1" style="shape-rendering:geometricPrecision; text-rendering:geometricPrecision; image-rendering:optimizeQuality; fill-rule:evenodd; clip-rule:evenodd"
viewBox="0 0 2395 1486"
 xmlns:xlink="http://www.w3.org/1999/xlink">
 <defs>
  <style type="text/css">
   <![CDATA[
    .fil0 {fill:#5B5A50;fill-rule:nonzero}
   ]]>
  </style>
 </defs>
 <g id="Layer_x0020_1">
  <metadata id="CorelCorpID_0Corel-Layer"/>
  <path class="fil0" d="M1716 1228c-52,0 -117,5 -165,24 -22,8 -57,25 -57,52 -1,27 34,45 56,54 49,18 114,23 166,23 46,0 94,-4 139,-17 26,-7 77,-27 77,-60 0,-32 -50,-51 -75,-59 -46,-13 -94,-17 -141,-17zm-420 -260l0 -572c0,-166 -105,-283 -277,-284 -23,-1 -46,2 -69,6 151,110 229,292 229,474 0,85 -17,175 -59,250 -68,123 -189,182 -329,182 -139,0 -259,-59 -327,-181 -41,-75 -59,-166 -59,-251 0,-184 78,-361 229,-474 -23,-4 -46,-6 -69,-6 -127,-1 -244,92 -301,199 -42,80 -62,165 -62,255 0,129 45,296 171,360 39,20 44,56 5,79 -52,31 -117,20 -166,-9 -150,-90 -212,-264 -212,-430 0,-101 22,-196 70,-286 95,-180 291,-281 495,-280 76,0 156,11 227,36 75,-25 149,-36 227,-36 139,0 280,26 383,125 102,-101 294,-124 433,-125 109,-1 239,14 338,62 95,46 159,122 156,230 -4,153 -152,185 -278,167 -48,-7 -116,-27 -161,-16 -38,9 -57,47 -55,84 1,34 21,70 56,80 54,16 117,-2 172,-7 75,-8 147,11 207,57 93,71 129,193 125,305 -7,213 -124,379 -322,463 -107,46 -244,62 -360,61 -73,-1 -148,-8 -219,-26 -71,-19 -189,-68 -189,-156 1,-89 122,-138 195,-157 69,-17 144,-23 216,-23 66,0 132,5 196,20 69,15 175,55 202,126 75,-76 112,-217 108,-321 -3,-61 -20,-134 -65,-180 -23,-23 -56,-43 -90,-45 -119,-6 -184,47 -311,-18 -68,-35 -105,-105 -107,-178 -3,-74 24,-141 89,-181 106,-64 214,-24 325,-8 41,5 70,-2 76,-48 8,-56 -20,-102 -68,-132 -65,-41 -155,-46 -230,-47 -197,-1 -342,63 -342,279l0 577c0,42 -69,56 -101,56 -32,0 -102,-14 -102,-56zm-504 -780c-122,94 -184,254 -184,404 0,73 14,153 50,218 26,48 73,102 133,102 61,0 109,-55 136,-103 36,-65 50,-143 50,-217 0,-152 -61,-309 -185,-404z"/>
 </g>
</svg>
