<?xml version="1.0" encoding="UTF-8"?>
<!DOCTYPE svg PUBLIC "-//W3C//DTD SVG 1.1//EN" "http://www.w3.org/Graphics/SVG/1.1/DTD/svg11.dtd">
<!-- Creator: CorelDRAW X8 -->
<svg xmlns="http://www.w3.org/2000/svg" xml:space="preserve" width="2734px" height="1486px" version="1.1" style="shape-rendering:geometricPrecision; text-rendering:geometricPrecision; image-rendering:optimizeQuality; fill-rule:evenodd; clip-rule:evenodd"
viewBox="0 0 2734 1486"
 xmlns:xlink="http://www.w3.org/1999/xlink">
 <defs>
  <style type="text/css">
   <![CDATA[
    .fil0 {fill:#A82682}
   ]]>
  </style>
 </defs>
 <g id="Layer_x0020_1">
  <metadata id="CorelCorpID_0Corel-Layer"/>
  <path class="fil0" d="M1902 1387c58,0 129,-3 182,-27 35,-15 59,-41 58,-80 -2,-41 -45,-59 -81,-60 -47,0 -67,42 -67,84 -1,40 -59,51 -91,51 -31,0 -91,-11 -91,-51 0,-41 -20,-83 -66,-84 -37,0 -81,18 -82,60 -2,39 23,65 57,80 53,23 124,27 181,27zm-606 -419l0 -572c0,-168 -103,-283 -277,-284 -23,0 -46,2 -69,6 151,110 229,293 229,474 1,85 -17,175 -59,250 -68,123 -189,182 -329,182 -139,0 -259,-59 -327,-181 -41,-75 -58,-166 -59,-251 0,-184 79,-361 229,-474 -23,-4 -46,-6 -69,-6 -127,-1 -244,92 -301,199 -42,80 -61,165 -61,255 -1,129 44,296 170,360 39,21 44,56 5,79 -52,31 -117,20 -166,-9 -150,-90 -212,-264 -212,-430 0,-101 23,-196 70,-286 96,-180 292,-281 495,-280 76,0 156,11 227,36 75,-25 149,-36 227,-36 128,1 268,24 366,110 76,-79 191,-107 298,-110 163,-3 312,74 368,230 35,97 35,205 36,307 0,124 3,375 181,375 179,0 249,-234 251,-376 2,-163 -70,-371 -239,-433 -36,-13 -65,-47 -28,-77 42,-35 104,-30 152,-11 127,49 217,146 270,269 49,114 61,262 60,384 -1,76 -7,153 -22,228 -37,197 -128,369 -307,474 -93,55 -210,85 -317,101 -61,10 -123,14 -185,15 -83,0 -176,-9 -255,-37 -71,-25 -153,-88 -152,-170 1,-49 33,-88 73,-113 49,-31 118,-42 176,-42 52,0 111,10 158,35 47,-25 106,-35 158,-35 57,0 127,11 176,42 45,28 79,70 73,126 111,-78 171,-201 197,-330 -72,44 -155,62 -239,62 -327,0 -383,-215 -384,-487 0,-95 1,-195 -31,-285 -25,-68 -88,-142 -168,-140 -144,3 -186,136 -186,256l0 600c0,42 -69,56 -101,56 -32,0 -102,-14 -102,-56zm-504 -780c-123,95 -184,254 -184,404 0,73 14,154 50,218 26,48 73,102 133,102 61,0 109,-54 136,-103 36,-65 50,-143 50,-217 0,-151 -61,-309 -185,-404z"/>
 </g>
</svg>
