<?xml version="1.0" encoding="UTF-8"?>
<!DOCTYPE svg PUBLIC "-//W3C//DTD SVG 1.1//EN" "http://www.w3.org/Graphics/SVG/1.1/DTD/svg11.dtd">
<!-- Creator: CorelDRAW X8 -->
<svg xmlns="http://www.w3.org/2000/svg" xml:space="preserve" width="2699px" height="1487px" version="1.1" style="shape-rendering:geometricPrecision; text-rendering:geometricPrecision; image-rendering:optimizeQuality; fill-rule:evenodd; clip-rule:evenodd"
viewBox="0 0 2699 1487"
 xmlns:xlink="http://www.w3.org/1999/xlink">
 <defs>
  <style type="text/css">
   <![CDATA[
    .fil0 {fill:#2B2A29;fill-rule:nonzero}
   ]]>
  </style>
 </defs>
 <g id="Layer_x0020_1">
  <metadata id="CorelCorpID_0Corel-Layer"/>
  <path class="fil0" d="M2189 111c101,0 299,46 299,164 0,39 -12,63 -57,63 -67,0 -138,-27 -211,-28 -45,0 -89,7 -131,32 -66,40 -93,104 -93,179 0,76 39,143 105,179 39,22 86,33 136,33 56,0 106,-15 156,-15 50,0 101,25 101,82 0,70 -61,88 -121,88l-245 0c-32,0 -102,14 -102,56 0,42 70,56 102,56l254 0c70,0 114,44 114,114 0,88 -82,140 -157,170 -219,87 -570,90 -807,90 -242,0 -597,-12 -814,-86 -328,-111 -515,-360 -515,-708 1,-188 72,-386 242,-486 19,-11 27,-25 27,-38 0,-15 -11,-30 -31,-41 -19,-10 -44,-15 -70,-15 -27,0 -54,6 -74,18 -203,120 -297,332 -297,562 0,397 237,676 612,804 258,87 640,103 920,103 271,0 608,-9 867,-89 135,-42 300,-124 300,-284 0,-67 -42,-134 -97,-170 60,-34 91,-78 91,-146 -1,-125 -108,-204 -225,-204 -61,0 -122,19 -182,19 -57,0 -104,-28 -104,-92 0,-54 31,-84 85,-84 63,0 127,24 193,24 116,0 217,-56 217,-186 0,-232 -304,-275 -488,-275 -140,0 -339,25 -440,125 -103,-98 -245,-124 -383,-124 -79,0 -153,11 -227,35 -74,-25 -152,-35 -230,-35 -202,0 -397,100 -493,278 -47,89 -70,191 -70,291 0,166 62,338 212,428 29,17 64,28 98,28 23,0 47,-6 68,-18 18,-12 27,-24 27,-38 0,-16 -11,-30 -32,-42 -126,-64 -170,-228 -170,-358 0,-89 19,-181 61,-260 57,-105 173,-198 299,-198 24,0 48,2 71,6 -150,112 -228,295 -228,478 0,84 17,176 58,250 68,122 188,180 327,180 140,0 261,-58 331,-180 40,-76 58,-164 58,-250 0,-180 -78,-369 -229,-478 22,-4 45,-6 69,-6 174,1 278,116 278,283l0 575c0,42 69,56 101,56 32,0 102,-14 102,-56l0 -580c0,-216 162,-279 342,-279zm-1052 803c-60,0 -106,-52 -133,-100 -36,-64 -50,-144 -50,-218 0,-149 62,-315 184,-408 124,94 185,257 185,408 0,74 -14,152 -50,216 -27,48 -75,102 -136,102z"/>
 </g>
</svg>
