<?xml version="1.0" encoding="UTF-8"?>
<!DOCTYPE svg PUBLIC "-//W3C//DTD SVG 1.1//EN" "http://www.w3.org/Graphics/SVG/1.1/DTD/svg11.dtd">
<!-- Creator: CorelDRAW X8 -->
<svg xmlns="http://www.w3.org/2000/svg" xml:space="preserve" width="3123px" height="1486px" version="1.1" style="shape-rendering:geometricPrecision; text-rendering:geometricPrecision; image-rendering:optimizeQuality; fill-rule:evenodd; clip-rule:evenodd"
viewBox="0 0 3123 1486"
 xmlns:xlink="http://www.w3.org/1999/xlink">
 <defs>
  <style type="text/css">
   <![CDATA[
    .fil0 {fill:#669933;fill-rule:nonzero}
   ]]>
  </style>
 </defs>
 <g id="Layer_x0020_1">
  <metadata id="CorelCorpID_0Corel-Layer"/>
  <path class="fil0" d="M2104 0c85,0 160,14 226,38 68,-25 145,-37 217,-38 176,-1 343,67 454,209 84,107 122,248 122,387 1,322 -152,532 -373,668 -311,189 -740,219 -1098,222 -372,3 -834,-23 -1170,-187 -302,-147 -483,-384 -482,-723 0,-87 14,-172 42,-250 45,-127 127,-238 251,-311 31,-19 83,-20 115,-2 33,17 35,46 4,64 -102,61 -171,155 -211,266 -25,73 -38,152 -38,233 -1,284 133,492 373,627 310,174 763,195 1116,192 324,-3 736,-28 1010,-213 180,-122 297,-307 298,-586 0,-117 -28,-234 -92,-327 -76,-109 -189,-179 -321,-178 -29,0 -61,5 -90,12 159,112 241,303 241,494 0,91 -19,179 -58,250 -65,119 -178,176 -310,176 -131,0 -244,-57 -308,-175 -39,-71 -58,-160 -58,-251 0,-192 81,-382 241,-494 -31,-8 -65,-12 -101,-12 -181,1 -297,120 -297,301l0 586c0,25 -36,46 -81,46 -45,0 -81,-21 -81,-46l0 -586c0,-181 -120,-299 -297,-301 -34,0 -68,5 -102,13 110,73 186,196 220,322 15,56 22,114 22,171 0,92 -19,180 -58,251 -65,119 -178,176 -310,176 -132,0 -244,-57 -308,-176 -39,-70 -58,-159 -58,-251 0,-57 7,-114 22,-171 35,-129 108,-245 219,-322 -32,-8 -66,-13 -102,-13 -135,0 -259,95 -319,211 -41,78 -63,172 -63,268 0,138 47,307 177,375 32,17 34,46 4,64 -44,26 -96,15 -137,-10 -147,-89 -206,-264 -207,-429 0,-105 24,-207 70,-293 92,-177 279,-277 475,-277 75,1 158,12 228,39 75,-27 147,-39 227,-39 138,1 287,29 378,137 91,-108 239,-136 378,-137zm226 161c-137,96 -204,272 -204,436 0,82 17,162 51,224 32,58 83,111 153,111 70,0 123,-54 154,-112 35,-62 52,-140 52,-223 0,-163 -69,-340 -206,-436zm-1210 0c-93,66 -153,169 -183,278 -14,54 -21,106 -21,158 0,83 17,163 51,225 32,58 83,111 153,111 70,0 123,-54 154,-112 35,-62 52,-141 52,-224 0,-51 -7,-105 -21,-158 -30,-109 -91,-212 -185,-278z"/>
 </g>
</svg>
