<?xml version="1.0" encoding="UTF-8"?>
<!DOCTYPE svg PUBLIC "-//W3C//DTD SVG 1.1//EN" "http://www.w3.org/Graphics/SVG/1.1/DTD/svg11.dtd">
<!-- Creator: CorelDRAW X8 -->
<svg xmlns="http://www.w3.org/2000/svg" xml:space="preserve" width="1894px" height="1486px" version="1.1" style="shape-rendering:geometricPrecision; text-rendering:geometricPrecision; image-rendering:optimizeQuality; fill-rule:evenodd; clip-rule:evenodd"
viewBox="0 0 1894 1487"
 xmlns:xlink="http://www.w3.org/1999/xlink">
 <defs>
  <style type="text/css">
   <![CDATA[
    .fil0 {fill:#2B2A29;fill-rule:nonzero}
   ]]>
  </style>
 </defs>
 <g id="Layer_x0020_1">
  <metadata id="CorelCorpID_0Corel-Layer"/>
  <path class="fil0" d="M1050 1487c303,0 844,-115 844,-499l0 -584c0,-251 -227,-404 -465,-404 -244,0 -451,143 -451,398l0 490 -250 0 0 -832c0,-42 -69,-56 -102,-56 -32,0 -101,14 -101,56l0 888c0,42 69,56 101,56l1064 0c-4,287 -412,375 -640,375 -223,0 -445,-59 -612,-211 -159,-143 -236,-335 -236,-548 0,-192 66,-409 229,-526 15,-11 21,-23 21,-34 0,-18 -16,-34 -39,-44 -18,-8 -40,-12 -62,-12 -30,0 -60,7 -80,22 -188,134 -271,370 -271,594 0,268 107,496 327,659 207,152 468,212 723,212zm642 -599l-512 0 0 -490c0,-149 82,-286 247,-286 162,0 265,142 265,292l0 484z"/>
 </g>
</svg>
