<?xml version="1.0" encoding="UTF-8"?>
<!DOCTYPE svg PUBLIC "-//W3C//DTD SVG 1.1//EN" "http://www.w3.org/Graphics/SVG/1.1/DTD/svg11.dtd">
<!-- Creator: CorelDRAW X8 -->
<svg xmlns="http://www.w3.org/2000/svg" xml:space="preserve" width="1893px" height="1486px" version="1.1" style="shape-rendering:geometricPrecision; text-rendering:geometricPrecision; image-rendering:optimizeQuality; fill-rule:evenodd; clip-rule:evenodd"
viewBox="0 0 1893 1486"
 xmlns:xlink="http://www.w3.org/1999/xlink">
 <defs>
  <style type="text/css">
   <![CDATA[
    .fil0 {fill:#5B5A50;fill-rule:nonzero}
   ]]>
  </style>
 </defs>
 <g id="Layer_x0020_1">
  <metadata id="CorelCorpID_0Corel-Layer"/>
  <path class="fil0" d="M1052 1486c-255,0 -518,-60 -725,-212 -221,-163 -328,-392 -327,-662 1,-222 84,-456 271,-590 36,-26 101,-28 142,-10 38,16 56,50 18,78 -164,118 -230,334 -229,527 2,212 76,403 236,547 167,151 389,211 612,211 227,0 635,-89 639,-375l-1063 0c-32,0 -101,-14 -101,-56l0 -888c0,-42 69,-56 101,-56 33,0 102,14 102,56l0 832 249 0 0 -490c0,-255 207,-398 451,-398 238,0 465,153 465,404l0 584c0,383 -539,498 -841,498zm127 -1088l0 490 512 0 0 -484c0,-150 -103,-292 -265,-292 -165,0 -247,137 -247,286z"/>
 </g>
</svg>
