<?xml version="1.0" encoding="UTF-8"?>
<!DOCTYPE svg PUBLIC "-//W3C//DTD SVG 1.1//EN" "http://www.w3.org/Graphics/SVG/1.1/DTD/svg11.dtd">
<!-- Creator: CorelDRAW X8 -->
<svg xmlns="http://www.w3.org/2000/svg" xml:space="preserve" width="1058px" height="1024px" version="1.1" style="shape-rendering:geometricPrecision; text-rendering:geometricPrecision; image-rendering:optimizeQuality; fill-rule:evenodd; clip-rule:evenodd"
viewBox="0 0 1058 1024"
 xmlns:xlink="http://www.w3.org/1999/xlink">
 <defs>
  <style type="text/css">
   <![CDATA[
    .fil0 {fill:#2B2A29;fill-rule:nonzero}
   ]]>
  </style>
 </defs>
 <g id="Layer_x0020_1">
  <metadata id="CorelCorpID_0Corel-Layer"/>
  <path class="fil0" d="M238 1024c15,0 30,-2 45,-6 25,-6 58,-25 58,-50 0,-8 -3,-16 -10,-24 -88,-102 -129,-249 -129,-383 0,-125 33,-265 125,-355 69,-67 161,-94 258,-95 67,0 138,15 190,59 47,39 66,96 67,154 0,78 -40,118 -95,137 -32,11 -69,15 -106,15l-85 0c-32,0 -101,14 -101,56 0,41 69,55 102,55 28,0 56,-2 84,-2 35,0 69,3 104,14 65,21 109,78 111,146 0,43 -10,84 -38,118 -29,35 -73,48 -117,48 -34,0 -66,-8 -96,-21 -18,-8 -41,-12 -64,-12 -29,0 -58,6 -79,20 -16,11 -23,23 -23,34 0,18 15,34 38,44 69,30 148,46 224,46 87,0 177,-16 250,-67 74,-50 107,-124 107,-210 0,-95 -63,-172 -143,-215 80,-43 129,-116 129,-206 0,-107 -51,-190 -142,-246 -91,-56 -211,-78 -317,-78 -136,0 -275,28 -385,111 -145,108 -200,281 -200,455 0,148 46,301 140,417 25,29 61,41 98,41z"/>
 </g>
</svg>
