<?xml version="1.0" encoding="UTF-8"?>
<!DOCTYPE svg PUBLIC "-//W3C//DTD SVG 1.1//EN" "http://www.w3.org/Graphics/SVG/1.1/DTD/svg11.dtd">
<!-- Creator: CorelDRAW X8 -->
<svg xmlns="http://www.w3.org/2000/svg" xml:space="preserve" width="1059px" height="1024px" version="1.1" style="shape-rendering:geometricPrecision; text-rendering:geometricPrecision; image-rendering:optimizeQuality; fill-rule:evenodd; clip-rule:evenodd"
viewBox="0 0 1059 1024"
 xmlns:xlink="http://www.w3.org/1999/xlink">
 <defs>
  <style type="text/css">
   <![CDATA[
    .fil0 {fill:#5B5A50;fill-rule:nonzero}
   ]]>
  </style>
 </defs>
 <g id="Layer_x0020_1">
  <metadata id="CorelCorpID_0Corel-Layer"/>
  <path class="fil0" d="M478 976c-39,-17 -54,-52 -15,-78 38,-25 102,-26 143,-8 32,14 73,22 108,22 41,-1 80,-18 106,-49 28,-34 37,-79 37,-122 -2,-67 -46,-121 -111,-141 -63,-21 -124,-12 -188,-12 -33,0 -102,-14 -102,-56 0,-42 69,-56 101,-56 62,0 133,4 191,-15 65,-22 96,-73 95,-140 -1,-58 -20,-112 -66,-151 -53,-44 -131,-59 -198,-59 -97,1 -182,28 -251,95 -81,79 -114,193 -123,302 -13,149 27,321 127,437 31,35 -15,65 -48,74 -50,13 -109,5 -143,-36 -108,-130 -152,-311 -139,-476 13,-154 70,-299 199,-396 108,-81 244,-110 378,-111 108,-1 231,21 324,78 91,56 141,138 142,243 1,92 -47,166 -129,209 80,43 141,119 143,211 1,89 -32,163 -107,215 -68,47 -155,65 -237,67 -80,1 -164,-14 -237,-47z"/>
 </g>
</svg>
