<?xml version="1.0" encoding="UTF-8"?>
<!DOCTYPE svg PUBLIC "-//W3C//DTD SVG 1.1//EN" "http://www.w3.org/Graphics/SVG/1.1/DTD/svg11.dtd">
<!-- Creator: CorelDRAW X8 -->
<svg xmlns="http://www.w3.org/2000/svg" xml:space="preserve" width="1059px" height="1024px" version="1.1" style="shape-rendering:geometricPrecision; text-rendering:geometricPrecision; image-rendering:optimizeQuality; fill-rule:evenodd; clip-rule:evenodd"
viewBox="0 0 1059 1024"
 xmlns:xlink="http://www.w3.org/1999/xlink">
 <defs>
  <style type="text/css">
   <![CDATA[
    .fil0 {fill:#A82682;fill-rule:nonzero}
   ]]>
  </style>
 </defs>
 <g id="Layer_x0020_1">
  <metadata id="CorelCorpID_0Corel-Layer"/>
  <path class="fil0" d="M478 976c-39,-17 -54,-52 -15,-78 38,-25 102,-26 143,-8 32,14 72,22 108,21 41,0 79,-17 105,-48 28,-34 38,-79 38,-122 -2,-68 -46,-121 -111,-142 -63,-20 -124,-12 -188,-12 -33,0 -102,-14 -102,-55 0,-42 69,-56 101,-56 62,0 133,4 191,-15 65,-22 95,-74 95,-140 -1,-58 -20,-112 -67,-151 -52,-44 -130,-59 -197,-59 -97,1 -182,28 -251,95 -81,79 -114,193 -123,302 -12,148 27,321 127,436 31,36 -15,66 -48,74 -50,13 -108,6 -143,-35 -107,-131 -152,-311 -138,-476 12,-154 69,-300 198,-396 108,-81 244,-110 378,-111 108,-1 231,21 324,78 91,56 141,138 142,243 1,92 -48,166 -129,209 80,43 141,118 143,211 1,88 -32,163 -107,214 -68,47 -155,66 -237,67 -80,2 -164,-14 -237,-46z"/>
 </g>
</svg>
