<?xml version="1.0" encoding="UTF-8"?>
<!DOCTYPE svg PUBLIC "-//W3C//DTD SVG 1.1//EN" "http://www.w3.org/Graphics/SVG/1.1/DTD/svg11.dtd">
<!-- Creator: CorelDRAW X8 -->
<svg xmlns="http://www.w3.org/2000/svg" xml:space="preserve" width="1061px" height="1486px" version="1.1" style="shape-rendering:geometricPrecision; text-rendering:geometricPrecision; image-rendering:optimizeQuality; fill-rule:evenodd; clip-rule:evenodd"
viewBox="0 0 1061 1485"
 xmlns:xlink="http://www.w3.org/1999/xlink">
 <defs>
  <style type="text/css">
   <![CDATA[
    .fil0 {fill:#996633;fill-rule:nonzero}
   ]]>
  </style>
 </defs>
 <g id="Layer_x0020_1">
  <metadata id="CorelCorpID_0Corel-Layer"/>
  <path class="fil0" d="M448 1387c58,0 129,-4 183,-27 34,-16 59,-42 57,-81 -1,-41 -44,-59 -81,-59 -47,0 -67,42 -67,83 0,40 -59,52 -90,52 -32,0 -91,-11 -91,-52 -1,-40 -20,-83 -67,-83 -36,0 -80,18 -82,59 -1,39 23,65 58,81 52,23 123,27 180,27zm309 -511c63,-19 109,-81 104,-145 -4,-65 -56,-112 -116,-131 -63,-20 -123,-12 -187,-12 -33,0 -103,-14 -103,-56 0,-42 70,-56 102,-56 61,0 132,4 190,-15 65,-22 96,-71 95,-138 0,-59 -20,-113 -66,-152 -52,-44 -130,-60 -198,-59 -96,0 -182,27 -251,96 -80,79 -114,194 -123,303 -12,149 28,316 128,432 7,8 10,16 10,24 0,25 -33,44 -58,50 -15,4 -30,6 -45,6 -37,0 -74,-12 -98,-41 -108,-131 -152,-306 -139,-472 13,-155 70,-301 198,-398 108,-81 244,-111 378,-112 109,-1 231,21 325,78 91,56 140,139 141,245 1,92 -46,162 -127,206 82,35 138,110 142,198 3,89 -41,171 -116,221 70,43 116,121 118,202 2,105 -58,182 -144,238 -54,35 -116,60 -180,74 -95,21 -188,22 -284,23 -85,1 -178,-7 -258,-36 -72,-25 -154,-88 -153,-170 1,-49 33,-88 74,-113 49,-31 118,-42 175,-42 53,0 112,10 158,34 47,-24 106,-34 159,-34 57,0 126,11 175,42 32,20 61,49 71,86 14,-30 26,-68 23,-101 -3,-55 -36,-103 -84,-128 -74,-37 -159,-17 -236,-19 -33,-1 -102,-14 -102,-56 0,-42 70,-56 102,-56 65,0 138,3 200,-16z"/>
 </g>
</svg>
