<?xml version="1.0" encoding="UTF-8"?>
<!DOCTYPE svg PUBLIC "-//W3C//DTD SVG 1.1//EN" "http://www.w3.org/Graphics/SVG/1.1/DTD/svg11.dtd">
<!-- Creator: CorelDRAW X8 -->
<svg xmlns="http://www.w3.org/2000/svg" xml:space="preserve" width="2517px" height="1486px" version="1.1" style="shape-rendering:geometricPrecision; text-rendering:geometricPrecision; image-rendering:optimizeQuality; fill-rule:evenodd; clip-rule:evenodd"
viewBox="0 0 2517 1487"
 xmlns:xlink="http://www.w3.org/1999/xlink">
 <defs>
  <style type="text/css">
   <![CDATA[
    .fil0 {fill:#2B2A29;fill-rule:nonzero}
   ]]>
  </style>
 </defs>
 <g id="Layer_x0020_1">
  <metadata id="CorelCorpID_0Corel-Layer"/>
  <path class="fil0" d="M2014 1025c56,0 110,-8 162,-23 -34,50 -76,107 -121,146 -202,176 -472,226 -731,226 -241,0 -513,-32 -724,-143 -254,-134 -397,-365 -397,-649 0,-186 67,-384 228,-491 16,-10 23,-22 23,-34 0,-17 -14,-33 -36,-44 -19,-9 -42,-13 -66,-13 -28,0 -56,6 -77,20 -188,125 -275,342 -275,562 0,325 172,578 460,730 256,134 574,175 864,175 316,0 656,-66 902,-279 141,-122 230,-275 269,-455 16,-81 22,-159 22,-242 -1,-73 -13,-146 -37,-214 -43,-122 -126,-225 -254,-281 -21,-8 -44,-14 -70,-14 -28,0 -56,7 -76,22 -15,11 -21,22 -21,33 0,18 17,35 39,45 154,63 216,261 216,413 0,68 -10,136 -36,198 -42,106 -140,200 -264,200 -152,0 -212,-120 -212,-254l0 -601c0,-42 -70,-56 -102,-56 -32,0 -101,14 -101,56l0 603c0,102 -39,172 -137,212 -44,20 -94,30 -142,34 47,-44 75,-102 75,-166 0,-98 -61,-168 -145,-212 81,-43 129,-113 129,-207 -1,-106 -50,-188 -142,-244 -91,-56 -217,-78 -324,-78 -135,0 -269,28 -378,111 -143,107 -201,280 -201,452 0,148 45,304 141,420 24,30 61,42 98,42 15,0 30,-2 45,-6 25,-7 58,-26 58,-50 0,-8 -3,-16 -10,-24 -88,-102 -129,-248 -129,-382 0,-127 30,-265 124,-357 70,-68 155,-95 252,-95 68,0 144,13 197,59 47,39 66,93 67,152 0,79 -41,120 -98,139 -31,10 -67,14 -103,14l-85 0c-32,0 -101,14 -101,56 0,42 69,56 102,56 28,0 56,-2 84,-2 34,0 68,2 104,14 67,21 111,72 111,142 0,85 -62,154 -149,154 -35,0 -73,-8 -103,-22 -18,-8 -41,-12 -64,-12 -29,0 -58,6 -78,20 -16,12 -23,24 -23,34 0,18 15,34 38,44 114,52 286,65 410,65 121,0 253,-15 365,-63 35,-14 69,-34 99,-56 83,88 209,120 328,120z"/>
 </g>
</svg>
