<?xml version="1.0" encoding="UTF-8"?>
<!DOCTYPE svg PUBLIC "-//W3C//DTD SVG 1.1//EN" "http://www.w3.org/Graphics/SVG/1.1/DTD/svg11.dtd">
<!-- Creator: CorelDRAW X8 -->
<svg xmlns="http://www.w3.org/2000/svg" xml:space="preserve" width="1061px" height="1486px" version="1.1" style="shape-rendering:geometricPrecision; text-rendering:geometricPrecision; image-rendering:optimizeQuality; fill-rule:evenodd; clip-rule:evenodd"
viewBox="0 0 1061 1486"
 xmlns:xlink="http://www.w3.org/1999/xlink">
 <defs>
  <style type="text/css">
   <![CDATA[
    .fil0 {fill:#A82682;fill-rule:nonzero}
   ]]>
  </style>
 </defs>
 <g id="Layer_x0020_1">
  <metadata id="CorelCorpID_0Corel-Layer"/>
  <path class="fil0" d="M448 1387c58,0 129,-3 183,-27 34,-15 59,-41 57,-80 -1,-41 -44,-59 -81,-59 -47,-1 -67,42 -67,83 0,40 -59,51 -90,51 -32,0 -91,-11 -91,-51 -1,-41 -20,-83 -67,-83 -37,-1 -80,17 -82,59 -1,39 23,65 58,80 52,23 123,27 180,27zm309 -511c63,-19 109,-81 105,-145 -5,-64 -57,-112 -117,-131 -63,-20 -123,-12 -187,-12 -33,0 -103,-14 -103,-56 0,-42 70,-56 102,-56 61,0 132,4 190,-15 65,-22 96,-71 95,-138 0,-59 -20,-113 -66,-152 -52,-44 -130,-59 -198,-59 -96,1 -182,28 -251,96 -80,79 -114,194 -123,303 -12,150 28,316 128,432 31,36 -15,66 -48,75 -50,13 -109,5 -143,-36 -108,-131 -152,-306 -139,-472 13,-155 70,-301 198,-398 108,-81 244,-111 378,-112 109,-1 231,21 325,78 91,57 140,139 141,245 1,92 -46,162 -127,206 82,35 139,110 142,199 3,89 -41,171 -116,220 70,43 116,121 118,203 2,104 -58,182 -144,237 -54,35 -116,61 -180,75 -95,21 -188,22 -284,23 -85,1 -178,-8 -259,-37 -71,-25 -153,-88 -152,-170 1,-49 33,-88 74,-113 49,-31 118,-42 175,-42 53,0 112,10 158,35 47,-25 106,-35 159,-35 57,0 126,11 175,42 33,20 61,49 71,87 15,-30 26,-69 24,-102 -4,-55 -36,-103 -85,-128 -74,-37 -159,-16 -236,-19 -33,-1 -102,-14 -102,-55 0,-42 70,-56 102,-56 65,0 138,2 200,-17z"/>
 </g>
</svg>
