<?xml version="1.0" encoding="UTF-8"?>
<!DOCTYPE svg PUBLIC "-//W3C//DTD SVG 1.1//EN" "http://www.w3.org/Graphics/SVG/1.1/DTD/svg11.dtd">
<!-- Creator: CorelDRAW X8 -->
<svg xmlns="http://www.w3.org/2000/svg" xml:space="preserve" width="2516px" height="1486px" version="1.1" style="shape-rendering:geometricPrecision; text-rendering:geometricPrecision; image-rendering:optimizeQuality; fill-rule:evenodd; clip-rule:evenodd"
viewBox="0 0 2516 1486"
 xmlns:xlink="http://www.w3.org/1999/xlink">
 <defs>
  <style type="text/css">
   <![CDATA[
    .fil0 {fill:#996633;fill-rule:nonzero}
   ]]>
  </style>
 </defs>
 <g id="Layer_x0020_1">
  <metadata id="CorelCorpID_0Corel-Layer"/>
  <path class="fil0" d="M811 961c-23,-11 -37,-27 -37,-44 0,-12 7,-24 23,-35 21,-14 50,-21 80,-21 22,1 44,5 62,13 32,14 73,22 108,22 89,-2 150,-72 144,-158 -5,-65 -48,-114 -112,-135 -63,-20 -123,-12 -188,-12 -32,0 -102,-14 -102,-56 0,-42 69,-56 102,-56 61,0 132,4 190,-15 65,-22 96,-72 95,-139 0,-60 -19,-114 -66,-154 -52,-44 -130,-60 -198,-59 -96,0 -182,28 -251,96 -81,79 -114,194 -123,303 -12,150 27,316 128,433 7,8 10,16 10,24 0,25 -33,44 -59,50 -50,13 -108,6 -142,-36 -108,-131 -153,-305 -139,-472 13,-155 70,-301 198,-398 108,-81 244,-111 378,-112 109,-1 231,21 325,78 92,57 141,140 142,247 0,93 -48,165 -130,208 84,44 146,107 146,205 0,65 -29,125 -75,170 48,-5 98,-15 142,-34 98,-41 136,-105 136,-208l0 -608c0,-42 70,-56 102,-56 32,0 101,14 101,56l0 607c0,135 61,249 213,249 123,0 222,-94 264,-202 27,-66 36,-132 35,-202 -2,-149 -64,-344 -215,-408 -23,-9 -40,-27 -40,-45 0,-11 6,-22 21,-33 21,-15 50,-22 79,-22 24,0 48,5 67,14 199,86 288,291 291,495 1,81 -5,162 -22,242 -39,181 -128,333 -269,455 -232,201 -558,273 -859,278 -301,4 -637,-33 -906,-174 -289,-152 -461,-406 -460,-733 1,-218 87,-434 275,-559 21,-14 50,-20 78,-20 23,0 46,4 65,13 22,10 36,26 36,43 0,12 -7,25 -23,35 -160,106 -228,306 -228,488 -2,287 141,517 397,652 224,118 510,147 761,143 245,-3 506,-63 694,-225 47,-42 90,-95 125,-147 -53,16 -110,24 -166,24 -119,0 -246,-31 -328,-121 -30,24 -64,43 -99,58 -112,47 -245,62 -365,62 -125,0 -297,-13 -411,-64z"/>
 </g>
</svg>
