<?xml version="1.0" encoding="UTF-8"?>
<!DOCTYPE svg PUBLIC "-//W3C//DTD SVG 1.1//EN" "http://www.w3.org/Graphics/SVG/1.1/DTD/svg11.dtd">
<!-- Creator: CorelDRAW X8 -->
<svg xmlns="http://www.w3.org/2000/svg" xml:space="preserve" width="1061px" height="1486px" version="1.1" style="shape-rendering:geometricPrecision; text-rendering:geometricPrecision; image-rendering:optimizeQuality; fill-rule:evenodd; clip-rule:evenodd"
viewBox="0 0 1061 1485"
 xmlns:xlink="http://www.w3.org/1999/xlink">
 <defs>
  <style type="text/css">
   <![CDATA[
    .fil0 {fill:#A82682;fill-rule:nonzero}
   ]]>
  </style>
 </defs>
 <g id="Layer_x0020_1">
  <metadata id="CorelCorpID_0Corel-Layer"/>
  <path class="fil0" d="M448 1387c-57,0 -128,-4 -180,-27 -35,-16 -59,-42 -58,-81 2,-41 46,-59 82,-59 47,0 66,43 67,83 0,41 59,52 91,52 31,0 90,-12 90,-52 0,-41 20,-83 67,-83 37,0 80,18 81,59 2,39 -23,65 -57,81 -54,23 -125,27 -183,27zm309 -511c-62,19 -135,16 -200,16 -32,0 -102,14 -102,56 0,42 69,55 102,56 77,2 162,-18 236,19 48,25 81,73 84,128 3,33 -9,71 -23,101 -10,-37 -39,-66 -71,-86 -49,-31 -118,-42 -175,-42 -53,0 -112,10 -159,34 -46,-24 -105,-34 -158,-34 -57,0 -126,11 -175,42 -41,25 -73,64 -74,113 -1,82 81,145 153,170 80,29 173,37 258,36 96,-1 189,-2 284,-23 64,-14 126,-39 180,-74 86,-56 146,-133 144,-238 -2,-81 -48,-159 -118,-202 75,-50 119,-132 116,-221 -4,-88 -60,-163 -142,-198 81,-44 128,-114 127,-206 -1,-106 -50,-189 -141,-245 -94,-57 -216,-79 -325,-78 -134,1 -270,31 -378,112 -128,97 -185,243 -198,398 -13,166 31,341 139,472 34,41 93,48 143,35 33,-8 79,-38 48,-74 -100,-116 -140,-283 -128,-432 9,-109 43,-224 123,-303 69,-69 155,-96 251,-96 68,-1 146,15 198,59 46,39 66,93 66,152 1,67 -30,116 -95,138 -58,19 -129,15 -190,15 -32,0 -102,14 -102,56 0,42 70,56 103,56 64,0 124,-8 187,12 60,19 112,66 116,131 5,64 -41,126 -104,145z"/>
 </g>
</svg>
