<?xml version="1.0" encoding="UTF-8"?>
<!DOCTYPE svg PUBLIC "-//W3C//DTD SVG 1.1//EN" "http://www.w3.org/Graphics/SVG/1.1/DTD/svg11.dtd">
<!-- Creator: CorelDRAW X8 -->
<svg xmlns="http://www.w3.org/2000/svg" xml:space="preserve" width="2198px" height="1486px" version="1.1" style="shape-rendering:geometricPrecision; text-rendering:geometricPrecision; image-rendering:optimizeQuality; fill-rule:evenodd; clip-rule:evenodd"
viewBox="0 0 2198 1486"
 xmlns:xlink="http://www.w3.org/1999/xlink">
 <defs>
  <style type="text/css">
   <![CDATA[
    .fil0 {fill:#A82682;fill-rule:nonzero}
   ]]>
  </style>
 </defs>
 <g id="Layer_x0020_1">
  <metadata id="CorelCorpID_0Corel-Layer"/>
  <path class="fil0" d="M1370 1229c-52,0 -116,4 -165,23 -22,8 -56,26 -57,52 0,28 34,45 56,54 49,19 114,23 166,23 46,0 95,-4 139,-16 27,-8 77,-28 77,-61 0,-32 -50,-51 -75,-58 -45,-14 -94,-17 -141,-17zm-892 -270c-39,-17 -54,-52 -15,-79 38,-25 102,-26 143,-8 32,15 73,23 108,22 89,-1 149,-71 143,-157 -4,-65 -48,-114 -111,-134 -63,-21 -124,-13 -188,-13 -33,0 -102,-14 -102,-56 0,-41 69,-55 101,-55 61,0 133,4 191,-16 65,-22 96,-72 95,-138 -1,-60 -20,-114 -66,-154 -53,-45 -131,-60 -198,-59 -97,0 -182,27 -251,95 -81,80 -114,194 -123,303 -12,150 27,316 127,432 31,36 -15,66 -48,75 -50,13 -108,5 -143,-36 -107,-131 -152,-306 -138,-472 12,-155 69,-300 198,-397 108,-81 244,-111 378,-112 108,-1 231,21 324,78 92,57 141,139 142,247 1,92 -47,164 -129,208 84,43 146,106 146,204 0,65 -29,124 -76,170 48,-5 98,-15 143,-34 97,-42 136,-112 136,-215l0 -600c0,-42 69,-56 101,-56 33,0 102,14 102,56l0 599c0,135 61,256 213,256 122,0 221,-95 264,-202 26,-66 36,-132 35,-202 -3,-149 -64,-344 -215,-407 -38,-16 -58,-50 -20,-78 39,-28 103,-27 147,-8 112,48 192,135 239,245 51,118 68,282 67,409 -1,76 -8,152 -22,227 -37,196 -128,368 -307,473 -93,55 -211,86 -317,102 -61,9 -123,14 -185,14 -72,1 -149,-7 -219,-25 -72,-19 -189,-69 -188,-157 0,-89 121,-138 194,-156 69,-18 144,-24 216,-24 66,0 132,6 196,20 74,17 196,62 208,148 116,-82 178,-216 202,-352 -87,57 -191,85 -295,85 -120,0 -246,-31 -329,-121 -30,23 -64,42 -99,57 -111,48 -244,63 -365,63 -124,0 -296,-14 -410,-65z"/>
 </g>
</svg>
