<?xml version="1.0" encoding="UTF-8"?>
<!DOCTYPE svg PUBLIC "-//W3C//DTD SVG 1.1//EN" "http://www.w3.org/Graphics/SVG/1.1/DTD/svg11.dtd">
<!-- Creator: CorelDRAW X8 -->
<svg xmlns="http://www.w3.org/2000/svg" xml:space="preserve" width="1061px" height="1486px" version="1.1" style="shape-rendering:geometricPrecision; text-rendering:geometricPrecision; image-rendering:optimizeQuality; fill-rule:evenodd; clip-rule:evenodd"
viewBox="0 0 1061 1485"
 xmlns:xlink="http://www.w3.org/1999/xlink">
 <defs>
  <style type="text/css">
   <![CDATA[
    .fil0 {fill:#996633;fill-rule:nonzero}
   ]]>
  </style>
 </defs>
 <g id="Layer_x0020_1">
  <metadata id="CorelCorpID_0Corel-Layer"/>
  <path class="fil0" d="M449 1228c-52,0 -117,5 -165,23 -22,8 -57,26 -57,53 -1,27 34,45 56,53 49,19 113,24 166,24 46,0 94,-4 139,-17 26,-8 77,-27 77,-60 -1,-33 -50,-52 -76,-59 -45,-13 -93,-17 -140,-17zm308 -352c63,-19 109,-81 104,-145 -4,-65 -56,-113 -116,-132 -63,-20 -123,-12 -187,-12 -33,0 -103,-14 -103,-56 0,-42 70,-56 102,-56 61,0 132,4 190,-15 65,-22 96,-70 95,-137 -1,-150 -122,-212 -264,-211 -96,0 -182,27 -251,96 -80,79 -114,194 -123,303 -12,149 28,316 128,432 7,8 10,16 10,24 0,25 -33,44 -58,50 -15,4 -30,6 -45,6 -37,0 -74,-12 -98,-41 -108,-131 -152,-306 -139,-472 13,-155 70,-301 198,-398 108,-81 244,-111 378,-112 109,-1 231,21 325,78 91,56 140,139 141,245 1,92 -46,161 -127,205 82,35 138,111 142,199 3,89 -41,170 -116,220 70,43 116,122 118,203 3,132 -90,218 -203,269 -55,25 -115,42 -170,51 -79,13 -158,14 -239,15 -72,1 -152,-6 -222,-25 -72,-19 -189,-68 -189,-156 1,-90 122,-139 194,-157 70,-18 145,-24 217,-24 66,0 132,6 196,20 69,16 172,53 200,124 22,-33 35,-77 32,-116 -4,-75 -63,-130 -134,-144 -66,-14 -122,-1 -186,-3 -33,-1 -102,-14 -102,-56 0,-42 70,-56 102,-56 65,0 138,3 200,-16z"/>
 </g>
</svg>
