<?xml version="1.0" encoding="UTF-8"?>
<!DOCTYPE svg PUBLIC "-//W3C//DTD SVG 1.1//EN" "http://www.w3.org/Graphics/SVG/1.1/DTD/svg11.dtd">
<!-- Creator: CorelDRAW X8 -->
<svg xmlns="http://www.w3.org/2000/svg" xml:space="preserve" width="2197px" height="1486px" version="1.1" style="shape-rendering:geometricPrecision; text-rendering:geometricPrecision; image-rendering:optimizeQuality; fill-rule:evenodd; clip-rule:evenodd"
viewBox="0 0 2197 1486"
 xmlns:xlink="http://www.w3.org/1999/xlink">
 <defs>
  <style type="text/css">
   <![CDATA[
    .fil0 {fill:#A82682;fill-rule:nonzero}
   ]]>
  </style>
 </defs>
 <g id="Layer_x0020_1">
  <metadata id="CorelCorpID_0Corel-Layer"/>
  <path class="fil0" d="M1365 1387c58,0 129,-3 183,-27 34,-15 59,-41 57,-80 -1,-41 -44,-59 -81,-59 -47,0 -67,42 -67,83 0,40 -59,52 -91,52 -31,0 -90,-12 -91,-52 0,-41 -19,-83 -66,-83 -37,0 -80,18 -82,59 -1,39 23,65 58,80 52,24 123,27 180,27zm-888 -428c-38,-17 -53,-52 -14,-78 37,-26 101,-27 142,-9 32,15 73,23 108,22 89,-1 150,-71 144,-157 -5,-65 -48,-114 -111,-134 -64,-21 -124,-13 -188,-13 -33,0 -103,-14 -103,-56 0,-41 70,-55 102,-55 61,0 132,4 190,-16 65,-22 96,-72 95,-138 0,-60 -19,-114 -66,-154 -52,-45 -130,-60 -198,-59 -96,0 -182,27 -251,95 -80,80 -114,194 -123,303 -12,150 28,316 128,432 31,36 -15,66 -48,75 -50,13 -109,5 -143,-36 -108,-131 -152,-306 -139,-472 13,-155 70,-300 198,-397 108,-81 244,-111 378,-112 109,-1 232,21 325,78 92,57 141,139 142,247 1,92 -48,164 -130,208 84,43 146,106 146,204 0,65 -29,124 -75,170 48,-5 98,-15 142,-34 98,-42 136,-112 136,-215l0 -600c0,-42 70,-56 102,-56 32,0 101,14 101,56l0 599c0,135 61,256 213,256 123,0 222,-95 264,-202 27,-66 36,-132 35,-202 -2,-149 -64,-344 -215,-407 -38,-16 -58,-50 -19,-78 39,-28 103,-27 146,-8 144,62 231,186 269,333 28,103 38,214 37,321 -1,76 -7,152 -21,227 -38,196 -129,368 -308,473 -93,55 -210,86 -317,102 -60,9 -123,13 -184,14 -84,1 -177,-8 -256,-37 -71,-25 -153,-88 -152,-169 1,-50 33,-88 73,-113 49,-31 119,-42 176,-42 53,0 111,10 158,34 47,-24 106,-34 158,-34 58,0 127,11 176,42 45,28 79,70 73,125 118,-83 178,-214 202,-352 -87,57 -191,85 -295,85 -119,0 -245,-31 -328,-121 -30,23 -64,42 -99,57 -112,48 -245,63 -365,63 -125,0 -297,-14 -411,-65z"/>
 </g>
</svg>
