<?xml version="1.0" encoding="UTF-8"?>
<!DOCTYPE svg PUBLIC "-//W3C//DTD SVG 1.1//EN" "http://www.w3.org/Graphics/SVG/1.1/DTD/svg11.dtd">
<!-- Creator: CorelDRAW X8 -->
<svg xmlns="http://www.w3.org/2000/svg" xml:space="preserve" width="1061px" height="1486px" version="1.1" style="shape-rendering:geometricPrecision; text-rendering:geometricPrecision; image-rendering:optimizeQuality; fill-rule:evenodd; clip-rule:evenodd"
viewBox="0 0 1061 1486"
 xmlns:xlink="http://www.w3.org/1999/xlink">
 <defs>
  <style type="text/css">
   <![CDATA[
    .fil0 {fill:#A82682;fill-rule:nonzero}
   ]]>
  </style>
 </defs>
 <g id="Layer_x0020_1">
  <metadata id="CorelCorpID_0Corel-Layer"/>
  <path class="fil0" d="M449 1228c-52,0 -117,5 -166,24 -21,8 -56,25 -56,52 -1,27 34,45 56,54 49,18 113,23 166,23 46,0 94,-4 139,-17 26,-7 77,-27 77,-60 0,-32 -50,-51 -76,-59 -45,-13 -93,-17 -140,-17zm308 -352c63,-19 109,-81 105,-145 -5,-64 -57,-113 -117,-132 -63,-20 -123,-12 -187,-12 -33,0 -103,-14 -103,-56 0,-42 70,-56 102,-56 61,0 132,4 190,-15 65,-22 96,-70 95,-137 -1,-150 -122,-212 -264,-211 -96,1 -182,28 -251,96 -80,79 -114,194 -123,303 -12,150 28,316 128,432 31,36 -15,66 -48,75 -50,13 -109,5 -143,-36 -108,-131 -152,-306 -139,-472 13,-155 70,-301 198,-398 108,-81 244,-111 378,-112 109,-1 231,21 325,78 91,57 140,139 141,245 1,92 -46,161 -127,205 82,35 139,111 142,200 3,89 -41,170 -116,219 70,43 116,122 118,204 3,131 -90,217 -203,268 -55,25 -115,42 -170,51 -79,13 -158,15 -239,16 -72,1 -152,-7 -222,-25 -72,-19 -189,-69 -189,-157 1,-89 121,-138 194,-157 70,-17 145,-23 217,-23 66,0 132,5 196,20 69,16 172,52 200,123 22,-33 35,-77 33,-116 -5,-74 -63,-130 -135,-144 -66,-13 -122,-1 -186,-3 -33,-1 -102,-14 -102,-56 0,-41 70,-55 102,-55 65,0 138,2 200,-17z"/>
 </g>
</svg>
