<?xml version="1.0" encoding="UTF-8"?>
<!DOCTYPE svg PUBLIC "-//W3C//DTD SVG 1.1//EN" "http://www.w3.org/Graphics/SVG/1.1/DTD/svg11.dtd">
<!-- Creator: CorelDRAW X8 -->
<svg xmlns="http://www.w3.org/2000/svg" xml:space="preserve" width="2197px" height="1486px" version="1.1" style="shape-rendering:geometricPrecision; text-rendering:geometricPrecision; image-rendering:optimizeQuality; fill-rule:evenodd; clip-rule:evenodd"
viewBox="0 0 2197 1486"
 xmlns:xlink="http://www.w3.org/1999/xlink">
 <defs>
  <style type="text/css">
   <![CDATA[
    .fil0 {fill:#996633;fill-rule:nonzero}
   ]]>
  </style>
 </defs>
 <g id="Layer_x0020_1">
  <metadata id="CorelCorpID_0Corel-Layer"/>
  <path class="fil0" d="M1365 1387c58,0 129,-3 183,-27 34,-15 58,-41 57,-80 -1,-41 -45,-59 -81,-59 -47,0 -67,42 -67,83 0,40 -59,51 -91,51 -32,0 -90,-11 -91,-51 0,-41 -20,-83 -66,-83 -37,0 -80,18 -82,59 -1,39 23,65 58,80 52,23 123,27 180,27zm-887 -428c-23,-10 -38,-27 -38,-44 0,-12 7,-24 23,-35 21,-14 52,-21 82,-20 22,0 43,5 60,12 32,15 73,23 108,22 89,-1 150,-71 144,-157 -5,-65 -48,-114 -111,-135 -64,-20 -124,-12 -188,-12 -33,0 -102,-14 -102,-56 0,-41 69,-56 101,-56 61,0 132,5 190,-15 65,-22 96,-72 95,-138 0,-60 -19,-115 -66,-154 -52,-45 -130,-60 -198,-59 -96,0 -181,27 -251,95 -80,80 -114,194 -122,303 -13,150 27,316 127,432 7,9 10,17 10,24 0,25 -33,44 -58,50 -14,4 -29,6 -44,6 -37,1 -74,-11 -99,-41 -108,-131 -152,-306 -139,-472 13,-155 70,-300 199,-397 107,-81 243,-111 377,-112 109,-1 232,21 325,78 92,57 141,139 142,246 1,93 -48,165 -130,209 84,43 146,106 146,204 0,65 -29,124 -75,170 48,-6 98,-15 142,-34 98,-42 136,-112 136,-215l0 -600c0,-42 70,-56 102,-56 32,0 101,14 101,56l0 599c0,135 61,256 213,256 123,0 221,-95 264,-202 26,-66 36,-132 35,-202 -2,-149 -64,-344 -215,-407 -23,-10 -40,-26 -40,-44 0,-11 6,-23 21,-34 21,-15 50,-22 78,-22 24,0 48,5 68,14 144,62 231,186 269,333 27,103 38,214 37,320 -1,76 -7,153 -21,227 -38,197 -129,369 -308,474 -93,55 -210,85 -317,101 -61,10 -123,14 -184,15 -84,0 -177,-9 -256,-37 -71,-25 -153,-88 -152,-170 1,-49 33,-87 73,-113 49,-30 119,-41 176,-41 52,-1 111,9 158,34 47,-25 106,-35 158,-34 57,0 127,11 176,41 45,29 79,71 73,126 118,-83 178,-215 202,-352 -87,57 -191,85 -295,85 -119,0 -246,-32 -328,-121 -30,23 -64,42 -99,57 -112,48 -245,62 -365,62 -125,0 -296,-13 -410,-64z"/>
 </g>
</svg>
