<?xml version="1.0" encoding="UTF-8"?>
<!DOCTYPE svg PUBLIC "-//W3C//DTD SVG 1.1//EN" "http://www.w3.org/Graphics/SVG/1.1/DTD/svg11.dtd">
<!-- Creator: CorelDRAW X8 -->
<svg xmlns="http://www.w3.org/2000/svg" xml:space="preserve" width="2516px" height="1486px" version="1.1" style="shape-rendering:geometricPrecision; text-rendering:geometricPrecision; image-rendering:optimizeQuality; fill-rule:evenodd; clip-rule:evenodd"
viewBox="0 0 2516 1486"
 xmlns:xlink="http://www.w3.org/1999/xlink">
 <defs>
  <style type="text/css">
   <![CDATA[
    .fil0 {fill:#A82682;fill-rule:nonzero}
   ]]>
  </style>
 </defs>
 <g id="Layer_x0020_1">
  <metadata id="CorelCorpID_0Corel-Layer"/>
  <path class="fil0" d="M811 960c-38,-17 -53,-52 -14,-78 37,-25 101,-27 142,-8 32,14 73,22 108,22 89,-2 150,-72 144,-158 -5,-65 -48,-114 -112,-135 -63,-20 -123,-12 -187,-12 -33,0 -103,-14 -103,-56 0,-42 70,-56 102,-56 61,0 132,4 190,-15 65,-22 96,-72 95,-139 0,-60 -19,-114 -66,-154 -52,-44 -130,-60 -198,-59 -96,0 -182,28 -251,96 -80,79 -114,194 -123,303 -12,150 28,316 128,433 31,36 -15,66 -49,74 -50,13 -108,6 -142,-36 -108,-131 -152,-306 -139,-472 13,-155 70,-301 198,-398 108,-81 244,-111 378,-112 109,-1 231,21 325,78 92,57 141,140 142,247 0,93 -48,165 -130,208 84,44 146,107 146,205 0,65 -29,125 -75,170 48,-5 98,-15 142,-34 98,-42 136,-105 136,-208l0 -608c0,-42 70,-56 102,-56 32,0 101,14 101,56l0 607c0,135 61,249 213,249 123,0 221,-95 264,-202 26,-66 36,-132 35,-203 -2,-149 -64,-343 -215,-407 -38,-15 -58,-50 -19,-78 39,-28 103,-27 146,-8 199,86 288,291 291,495 1,81 -6,162 -22,242 -39,180 -128,333 -269,455 -232,201 -558,273 -859,278 -301,4 -637,-33 -906,-175 -289,-151 -461,-405 -460,-732 1,-218 87,-434 275,-559 38,-25 102,-26 143,-7 38,18 52,53 13,78 -160,106 -227,306 -228,488 -2,287 141,517 397,652 224,117 510,147 761,143 245,-4 506,-63 693,-226 48,-41 91,-94 126,-146 -53,16 -110,24 -166,24 -119,0 -246,-31 -328,-121 -30,24 -64,43 -99,58 -112,47 -245,62 -365,62 -125,0 -297,-13 -411,-65z"/>
 </g>
</svg>
