<?xml version="1.0" encoding="UTF-8"?>
<!DOCTYPE svg PUBLIC "-//W3C//DTD SVG 1.1//EN" "http://www.w3.org/Graphics/SVG/1.1/DTD/svg11.dtd">
<!-- Creator: CorelDRAW X8 -->
<svg xmlns="http://www.w3.org/2000/svg" xml:space="preserve" width="2197px" height="1486px" version="1.1" style="shape-rendering:geometricPrecision; text-rendering:geometricPrecision; image-rendering:optimizeQuality; fill-rule:evenodd; clip-rule:evenodd"
viewBox="0 0 2197 1486"
 xmlns:xlink="http://www.w3.org/1999/xlink">
 <defs>
  <style type="text/css">
   <![CDATA[
    .fil0 {fill:#5B5A50;fill-rule:nonzero}
   ]]>
  </style>
 </defs>
 <g id="Layer_x0020_1">
  <metadata id="CorelCorpID_0Corel-Layer"/>
  <path class="fil0" d="M1369 1229c-52,0 -116,4 -165,23 -21,8 -56,26 -56,52 -1,27 34,45 56,54 49,18 113,23 165,23 47,0 95,-4 140,-17 26,-7 77,-27 77,-60 -1,-32 -50,-51 -76,-59 -45,-13 -94,-16 -141,-16zm-891 -270c-39,-17 -54,-52 -15,-79 37,-25 101,-26 142,-8 32,15 73,23 108,22 89,-1 150,-71 144,-157 -5,-65 -48,-114 -111,-135 -64,-20 -124,-12 -188,-12 -33,0 -102,-14 -102,-56 0,-41 69,-56 101,-56 61,0 132,5 190,-15 65,-22 96,-72 95,-138 0,-60 -19,-115 -66,-154 -52,-45 -130,-60 -198,-59 -96,0 -181,27 -251,95 -80,80 -114,194 -122,303 -13,150 27,316 127,432 31,36 -15,66 -48,74 -50,13 -109,6 -143,-35 -108,-131 -152,-306 -139,-472 13,-155 70,-300 199,-397 107,-81 243,-111 377,-112 109,-1 232,21 325,78 92,57 141,139 142,246 1,93 -48,165 -130,209 84,43 146,106 146,203 0,66 -29,125 -75,171 48,-6 98,-15 142,-34 49,-21 83,-49 104,-84 23,-36 32,-79 32,-131l0 -600c0,-42 70,-56 102,-56 32,0 101,14 101,56l0 599c0,135 61,256 213,256 123,0 221,-95 264,-202 26,-66 36,-132 35,-202 -2,-149 -64,-344 -215,-407 -38,-16 -58,-50 -19,-78 39,-28 103,-27 146,-8 112,48 192,135 240,245 50,118 68,281 66,408 -1,76 -7,153 -21,227 -38,197 -129,369 -308,474 -93,55 -210,85 -317,101 -61,10 -123,14 -184,15 -72,0 -149,-7 -219,-26 -72,-18 -189,-68 -189,-156 0,-89 121,-138 194,-156 70,-18 145,-24 216,-24 66,0 132,6 197,20 73,17 196,62 207,148 116,-82 178,-217 202,-352 -87,57 -191,85 -295,85 -119,0 -246,-32 -328,-121 -30,23 -64,42 -99,57 -112,48 -245,62 -365,62 -125,0 -296,-13 -410,-64z"/>
 </g>
</svg>
