<?xml version="1.0" encoding="UTF-8"?>
<!DOCTYPE svg PUBLIC "-//W3C//DTD SVG 1.1//EN" "http://www.w3.org/Graphics/SVG/1.1/DTD/svg11.dtd">
<!-- Creator: CorelDRAW X8 -->
<svg xmlns="http://www.w3.org/2000/svg" xml:space="preserve" width="1142px" height="1486px" version="1.1" style="shape-rendering:geometricPrecision; text-rendering:geometricPrecision; image-rendering:optimizeQuality; fill-rule:evenodd; clip-rule:evenodd"
viewBox="0 0 1142 1486"
 xmlns:xlink="http://www.w3.org/1999/xlink">
 <defs>
  <style type="text/css">
   <![CDATA[
    .fil0 {fill:#996633;fill-rule:nonzero}
   ]]>
  </style>
 </defs>
 <g id="Layer_x0020_1">
  <metadata id="CorelCorpID_0Corel-Layer"/>
  <path class="fil0" d="M475 1228c-52,0 -116,5 -165,24 -21,8 -56,26 -56,52 -1,27 34,45 56,54 49,18 113,23 165,23 47,0 95,-4 140,-17 26,-7 77,-27 77,-60 -1,-32 -50,-51 -76,-59 -45,-13 -94,-17 -141,-17zm83 -640c-33,0 -102,-14 -102,-56 0,-42 69,-56 101,-56 62,0 132,5 190,-15 66,-22 96,-71 96,-138 -1,-59 -21,-113 -67,-152 -52,-44 -130,-60 -197,-59 -97,0 -182,28 -252,96 -80,79 -114,194 -122,303 -13,150 27,316 127,433 7,8 10,16 10,23 1,25 -33,44 -58,51 -15,4 -30,6 -45,6 -37,0 -74,-12 -98,-42 -108,-131 -152,-306 -139,-472 13,-155 70,-301 199,-398 107,-81 244,-111 377,-112 109,-1 232,21 325,78 91,56 141,139 142,245 1,90 -45,160 -123,204 150,74 220,214 220,376 0,117 -27,229 -94,326 -77,112 -194,185 -324,225 -82,25 -163,31 -248,32 -72,1 -153,-7 -222,-25 -72,-19 -189,-69 -189,-157 0,-89 121,-138 194,-157 70,-17 145,-23 216,-23 66,0 133,5 197,20 64,15 155,48 192,106 76,-92 103,-231 91,-346 -12,-130 -79,-271 -216,-308 -59,-16 -121,-8 -181,-8z"/>
 </g>
</svg>
