<?xml version="1.0" encoding="UTF-8"?>
<!DOCTYPE svg PUBLIC "-//W3C//DTD SVG 1.1//EN" "http://www.w3.org/Graphics/SVG/1.1/DTD/svg11.dtd">
<!-- Creator: CorelDRAW X8 -->
<svg xmlns="http://www.w3.org/2000/svg" xml:space="preserve" width="706px" height="868px" version="1.1" style="shape-rendering:geometricPrecision; text-rendering:geometricPrecision; image-rendering:optimizeQuality; fill-rule:evenodd; clip-rule:evenodd"
viewBox="0 0 706 868"
 xmlns:xlink="http://www.w3.org/1999/xlink">
 <defs>
  <style type="text/css">
   <![CDATA[
    .fil0 {fill:#996633;fill-rule:nonzero}
   ]]>
  </style>
 </defs>
 <g id="Layer_x0020_1">
  <metadata id="CorelCorpID_0Corel-Layer"/>
  <path class="fil0" d="M296 718c-29,0 -63,2 -90,12 -13,5 -33,15 -33,30 0,15 20,25 32,30 28,10 62,12 91,12 25,0 51,-1 75,-8 15,-4 44,-15 44,-34 0,-18 -29,-29 -43,-33 -25,-7 -51,-9 -76,-9zm49 -370c-20,0 -72,-7 -72,-35 0,-27 51,-35 72,-35 34,0 73,3 105,-7 16,-6 30,-15 40,-29 11,-15 16,-33 15,-52 0,-34 -12,-66 -39,-88 -29,-24 -71,-33 -108,-33 -54,1 -102,17 -141,54 -48,46 -68,112 -73,176 -8,88 16,185 76,252 4,5 6,9 6,14 1,15 -22,27 -37,31 -11,2 -24,4 -36,4 -26,0 -52,-7 -68,-26 -65,-76 -92,-178 -84,-275 8,-92 43,-176 120,-232 67,-50 153,-67 236,-67 68,0 146,12 205,47 54,32 85,80 86,143 0,26 -7,51 -21,73 -13,20 -32,36 -52,47 38,19 72,46 95,83 26,40 36,87 36,134 0,111 -45,205 -138,268 -35,24 -74,41 -115,53 -51,15 -103,19 -156,20 -47,0 -97,-4 -142,-16 -43,-11 -116,-40 -116,-92 0,-53 76,-82 119,-93 45,-10 92,-14 138,-14 42,0 84,3 125,12 36,8 82,24 108,51 43,-51 51,-124 44,-189 -4,-41 -18,-83 -43,-117 -21,-29 -50,-49 -84,-58 -32,-9 -68,-4 -101,-4z"/>
 </g>
</svg>
