<?xml version="1.0" encoding="UTF-8"?>
<!DOCTYPE svg PUBLIC "-//W3C//DTD SVG 1.1//EN" "http://www.w3.org/Graphics/SVG/1.1/DTD/svg11.dtd">
<!-- Creator: CorelDRAW X8 -->
<svg xmlns="http://www.w3.org/2000/svg" xml:space="preserve" width="1470px" height="1486px" version="1.1" style="shape-rendering:geometricPrecision; text-rendering:geometricPrecision; image-rendering:optimizeQuality; fill-rule:evenodd; clip-rule:evenodd"
viewBox="0 0 1470 1486"
 xmlns:xlink="http://www.w3.org/1999/xlink">
 <defs>
  <style type="text/css">
   <![CDATA[
    .fil0 {fill:#996633;fill-rule:nonzero}
   ]]>
  </style>
 </defs>
 <g id="Layer_x0020_1">
  <metadata id="CorelCorpID_0Corel-Layer"/>
  <path class="fil0" d="M919 588c-33,0 -102,-14 -102,-56 0,-42 69,-56 101,-56 61,0 132,4 190,-15 66,-22 96,-71 96,-138 -1,-59 -21,-113 -67,-152 -52,-44 -130,-60 -197,-59 -97,0 -182,28 -252,96 -80,79 -114,194 -122,303 -13,150 27,316 127,433 7,8 10,16 10,24 0,24 -33,43 -58,50 -15,4 -30,6 -46,6 -36,0 -73,-13 -97,-42 -107,-130 -152,-309 -139,-474 12,-152 73,-301 199,-396 107,-81 243,-111 377,-112 109,-1 232,21 325,78 91,57 141,139 142,245 1,90 -45,160 -124,204 139,72 187,230 188,375 1,163 -62,295 -163,391 -129,125 -321,192 -517,193 -270,1 -480,-115 -615,-296 -112,-149 -174,-344 -175,-552 -1,-244 89,-489 310,-620 20,-12 47,-18 74,-18 25,0 49,5 68,15 21,10 33,26 33,41 0,13 -8,27 -27,38 -189,112 -257,333 -255,539 2,164 45,338 131,476 97,155 248,266 460,268 163,1 297,-69 381,-182 59,-79 93,-181 95,-293 1,-121 -39,-266 -171,-304 -59,-17 -120,-10 -180,-10z"/>
 </g>
</svg>
