<?xml version="1.0" encoding="UTF-8"?>
<!DOCTYPE svg PUBLIC "-//W3C//DTD SVG 1.1//EN" "http://www.w3.org/Graphics/SVG/1.1/DTD/svg11.dtd">
<!-- Creator: CorelDRAW X8 -->
<svg xmlns="http://www.w3.org/2000/svg" xml:space="preserve" width="706px" height="868px" version="1.1" style="shape-rendering:geometricPrecision; text-rendering:geometricPrecision; image-rendering:optimizeQuality; fill-rule:evenodd; clip-rule:evenodd"
viewBox="0 0 706 868"
 xmlns:xlink="http://www.w3.org/1999/xlink">
 <defs>
  <style type="text/css">
   <![CDATA[
    .fil0 {fill:#A82682;fill-rule:nonzero}
   ]]>
  </style>
 </defs>
 <g id="Layer_x0020_1">
  <metadata id="CorelCorpID_0Corel-Layer"/>
  <path class="fil0" d="M296 718c-29,0 -63,3 -90,13 -13,4 -33,14 -33,29 0,15 20,26 32,30 28,10 62,13 91,13 25,0 51,-2 75,-9 15,-4 44,-15 44,-34 0,-18 -29,-29 -43,-33 -25,-7 -51,-9 -76,-9zm49 -370c-20,0 -72,-7 -72,-35 0,-27 51,-34 72,-34 34,0 73,2 105,-8 16,-6 31,-15 41,-29 11,-15 15,-33 15,-52 -1,-34 -13,-66 -40,-88 -29,-24 -71,-33 -108,-33 -54,1 -102,17 -141,54 -48,46 -68,112 -73,176 -8,88 16,185 76,252 20,22 -12,40 -31,45 -34,8 -80,6 -104,-22 -65,-76 -92,-178 -84,-275 8,-92 43,-176 120,-232 67,-50 153,-67 236,-67 68,0 146,12 205,47 54,32 85,80 86,143 0,26 -7,51 -21,73 -13,20 -32,36 -52,47 39,19 72,46 95,83 26,40 36,87 36,134 0,111 -45,205 -138,269 -35,23 -74,40 -115,52 -51,16 -103,19 -156,20 -47,1 -97,-4 -142,-16 -43,-10 -116,-39 -116,-92 0,-53 76,-82 119,-92 45,-11 92,-15 138,-15 42,0 84,3 125,12 36,8 82,24 108,51 43,-51 51,-124 44,-188 -4,-42 -18,-84 -43,-118 -21,-29 -49,-49 -84,-58 -32,-9 -68,-4 -101,-4z"/>
 </g>
</svg>
