<?xml version="1.0" encoding="UTF-8"?>
<!DOCTYPE svg PUBLIC "-//W3C//DTD SVG 1.1//EN" "http://www.w3.org/Graphics/SVG/1.1/DTD/svg11.dtd">
<!-- Creator: CorelDRAW X8 -->
<svg xmlns="http://www.w3.org/2000/svg" xml:space="preserve" width="2158px" height="1488px" version="1.1" style="shape-rendering:geometricPrecision; text-rendering:geometricPrecision; image-rendering:optimizeQuality; fill-rule:evenodd; clip-rule:evenodd"
viewBox="0 0 2158 1489"
 xmlns:xlink="http://www.w3.org/1999/xlink">
 <defs>
  <style type="text/css">
   <![CDATA[
    .fil0 {fill:#FF6600;fill-rule:nonzero}
   ]]>
  </style>
 </defs>
 <g id="Layer_x0020_1">
  <metadata id="CorelCorpID_0Corel-Layer"/>
  <path class="fil0" d="M1346 1411c62,0 138,-5 195,-30 39,-18 66,-47 65,-91 -2,-50 -58,-71 -101,-71 -57,0 -88,40 -87,97 0,31 -47,40 -71,40 -24,0 -71,-9 -71,-40 0,-57 -31,-97 -88,-97 -42,0 -98,21 -100,71 -2,44 26,73 65,91 56,25 131,29 193,30zm-876 -449c-34,-16 -40,-44 -11,-64 28,-19 79,-22 114,-6 36,16 82,25 121,24 99,-1 170,-74 163,-171 -4,-67 -48,-129 -121,-153 -72,-24 -157,-14 -198,-14 -26,0 -82,-11 -82,-46 0,-25 36,-45 81,-45 60,0 139,4 201,-18 70,-24 105,-77 105,-150 -1,-63 -21,-120 -70,-163 -53,-45 -133,-65 -214,-65 -118,1 -205,39 -269,103 -75,75 -115,185 -125,313 -13,154 28,332 129,452 19,22 2,50 -39,60 -42,12 -87,4 -116,-31 -106,-131 -150,-314 -137,-481 15,-178 83,-313 195,-398 93,-71 215,-108 362,-109 104,-1 221,21 309,76 92,57 136,140 137,243 1,97 -52,171 -139,211 89,42 156,113 156,215 0,69 -33,137 -96,187 70,-4 139,-16 195,-40 103,-45 144,-120 144,-227l0 -617c0,-25 37,-46 82,-46 45,0 81,21 81,46l0 616c0,150 71,271 233,271 131,0 237,-96 283,-214 27,-67 37,-142 36,-215 -3,-158 -67,-356 -223,-422 -36,-15 -43,-44 -16,-64 32,-23 84,-22 119,-6 141,62 225,189 261,331 26,99 38,211 37,325 -1,76 -7,154 -21,229 -36,192 -123,368 -303,475 -84,51 -196,83 -307,100 -62,10 -123,14 -180,15 -79,0 -170,-9 -244,-36 -84,-30 -145,-96 -143,-163 0,-38 21,-78 68,-108 40,-25 101,-38 160,-38 54,0 115,11 159,40 44,-29 105,-40 158,-40 60,0 120,13 160,38 49,31 70,70 70,108 0,16 -4,32 -10,48 157,-88 234,-241 256,-425 -86,75 -200,113 -320,113 -140,0 -256,-44 -326,-134 -32,30 -71,53 -114,72 -104,46 -232,61 -353,61 -116,0 -290,-14 -398,-63z"/>
 </g>
</svg>
