<?xml version="1.0" encoding="UTF-8"?>
<!DOCTYPE svg PUBLIC "-//W3C//DTD SVG 1.1//EN" "http://www.w3.org/Graphics/SVG/1.1/DTD/svg11.dtd">
<!-- Creator: CorelDRAW X8 -->
<svg xmlns="http://www.w3.org/2000/svg" xml:space="preserve" width="980px" height="600px" version="1.1" style="shape-rendering:geometricPrecision; text-rendering:geometricPrecision; image-rendering:optimizeQuality; fill-rule:evenodd; clip-rule:evenodd"
viewBox="0 0 980 600"
 xmlns:xlink="http://www.w3.org/1999/xlink">
 <defs>
  <style type="text/css">
   <![CDATA[
    .fil0 {fill:#666633;fill-rule:nonzero}
   ]]>
  </style>
 </defs>
 <g id="Layer_x0020_1">
  <metadata id="CorelCorpID_0Corel-Layer"/>
  <path class="fil0" d="M725 52c-19,-8 -30,-25 -10,-39 23,-17 68,-16 93,-5 116,49 170,166 172,287 1,52 -8,105 -31,152 -50,105 -158,153 -270,153 -66,0 -138,-13 -189,-58 -51,45 -123,58 -189,58 -112,0 -220,-48 -270,-153 -23,-47 -32,-100 -31,-152 2,-121 56,-238 172,-287 25,-11 70,-12 93,5 20,14 9,31 -10,39 -92,38 -131,152 -132,243 -1,42 5,86 21,125 25,62 87,121 157,121 88,0 128,-70 128,-151l0 -360c0,-24 44,-30 61,-30 17,0 61,6 61,30l0 360c0,81 39,151 128,151 70,0 132,-59 157,-121 16,-39 22,-83 21,-125 -1,-91 -40,-205 -132,-243z"/>
 </g>
</svg>
