<?xml version="1.0" encoding="UTF-8"?>
<!DOCTYPE svg PUBLIC "-//W3C//DTD SVG 1.1//EN" "http://www.w3.org/Graphics/SVG/1.1/DTD/svg11.dtd">
<!-- Creator: CorelDRAW X8 -->
<svg xmlns="http://www.w3.org/2000/svg" xml:space="preserve" width="1000px" height="600px" version="1.1" style="shape-rendering:geometricPrecision; text-rendering:geometricPrecision; image-rendering:optimizeQuality; fill-rule:evenodd; clip-rule:evenodd"
viewBox="0 0 1000 600"
 xmlns:xlink="http://www.w3.org/1999/xlink">
 <defs>
  <style type="text/css">
   <![CDATA[
    .fil0 {fill:#996633;fill-rule:nonzero}
   ]]>
  </style>
 </defs>
 <g id="Layer_x0020_1">
  <metadata id="CorelCorpID_0Corel-Layer"/>
  <path class="fil0" d="M730 61c-15,-6 -26,-16 -26,-27 0,-6 4,-13 13,-20 15,-10 37,-14 59,-14 17,0 35,4 49,9 118,49 173,165 175,286 1,52 -8,104 -31,151 -52,106 -165,154 -280,154 -65,0 -137,-12 -189,-53 -52,41 -124,53 -189,53 -115,0 -228,-48 -280,-154 -23,-47 -32,-99 -31,-151 2,-121 57,-237 175,-286 14,-5 32,-9 49,-9 22,0 44,4 59,14 9,7 13,14 13,20 0,11 -12,21 -26,27 -88,36 -126,147 -127,234 -1,41 5,83 20,121 24,57 82,115 148,115 83,0 118,-70 118,-142l0 -354c0,-28 50,-35 71,-35 21,0 71,7 71,35l0 354c0,72 35,142 118,142 66,0 124,-58 148,-115 15,-38 21,-80 20,-121 -1,-87 -39,-198 -127,-234z"/>
 </g>
</svg>
