<?xml version="1.0" encoding="UTF-8"?>
<!DOCTYPE svg PUBLIC "-//W3C//DTD SVG 1.1//EN" "http://www.w3.org/Graphics/SVG/1.1/DTD/svg11.dtd">
<!-- Creator: CorelDRAW X8 -->
<svg xmlns="http://www.w3.org/2000/svg" xml:space="preserve" width="1009px" height="868px" version="1.1" style="shape-rendering:geometricPrecision; text-rendering:geometricPrecision; image-rendering:optimizeQuality; fill-rule:evenodd; clip-rule:evenodd"
viewBox="0 0 1009 868"
 xmlns:xlink="http://www.w3.org/1999/xlink">
 <defs>
  <style type="text/css">
   <![CDATA[
    .fil0 {fill:#5B5A50;fill-rule:nonzero}
   ]]>
  </style>
 </defs>
 <g id="Layer_x0020_1">
  <metadata id="CorelCorpID_0Corel-Layer"/>
  <path class="fil0" d="M500 806c32,0 70,-2 99,-14 20,-9 35,-24 34,-46 -1,-18 -20,-33 -37,-32 -22,1 -31,28 -31,46 0,26 -45,32 -65,32 -20,0 -65,-6 -65,-32 0,-18 -10,-46 -32,-46 -17,0 -35,14 -36,32 -1,22 14,37 34,46 29,12 67,14 99,14zm188 -206c-64,0 -136,-13 -188,-53 -52,40 -124,53 -189,53 -115,0 -228,-49 -280,-155 -23,-47 -32,-96 -31,-148 2,-122 57,-238 175,-288 30,-12 81,-13 108,6 24,17 10,37 -13,46 -88,36 -126,148 -128,236 0,41 6,80 21,118 24,58 82,116 148,116 85,0 118,-69 118,-144l0 -352c0,-28 50,-35 71,-35 20,0 71,7 71,35l0 352c0,74 35,144 117,144 67,0 125,-58 148,-116 16,-38 22,-77 21,-118 -1,-88 -39,-200 -128,-236 -23,-9 -36,-29 -12,-46 27,-19 78,-18 107,-6 154,64 187,234 185,382 -1,44 -4,88 -13,132 -23,116 -78,215 -185,276 -58,33 -129,51 -194,60 -39,6 -77,9 -116,9 -54,0 -112,-5 -163,-23 -42,-14 -93,-51 -93,-99 1,-30 21,-52 45,-67 32,-19 78,-26 115,-26 32,0 66,5 95,17 29,-12 63,-17 95,-17 28,0 62,4 92,15 31,12 63,35 67,69 54,-44 84,-108 98,-174 -50,26 -107,37 -164,37z"/>
 </g>
</svg>
