<?xml version="1.0" encoding="UTF-8"?>
<!DOCTYPE svg PUBLIC "-//W3C//DTD SVG 1.1//EN" "http://www.w3.org/Graphics/SVG/1.1/DTD/svg11.dtd">
<!-- Creator: CorelDRAW X8 -->
<svg xmlns="http://www.w3.org/2000/svg" xml:space="preserve" width="2014px" height="1486px" version="1.1" style="shape-rendering:geometricPrecision; text-rendering:geometricPrecision; image-rendering:optimizeQuality; fill-rule:evenodd; clip-rule:evenodd"
viewBox="0 0 2014 1486"
 xmlns:xlink="http://www.w3.org/1999/xlink">
 <defs>
  <style type="text/css">
   <![CDATA[
    .fil0 {fill:#996633;fill-rule:nonzero}
   ]]>
  </style>
 </defs>
 <g id="Layer_x0020_1">
  <metadata id="CorelCorpID_0Corel-Layer"/>
  <path class="fil0" d="M1579 100c-23,-10 -40,-27 -40,-45 0,-11 7,-22 21,-33 21,-15 49,-22 78,-22 24,0 49,5 68,13 127,55 206,158 252,278 43,112 58,238 56,354 -6,310 -160,563 -433,711 -154,84 -335,127 -519,130 -262,4 -526,-76 -732,-239 -215,-169 -330,-407 -330,-678 0,-214 73,-421 255,-548 21,-15 51,-21 81,-21 22,0 44,4 61,12 23,10 39,27 39,44 0,12 -6,24 -22,34 -156,109 -212,296 -212,477 0,213 78,412 232,563 164,161 397,248 627,245 149,-2 295,-41 419,-118 104,-66 192,-165 252,-285 -74,35 -155,52 -237,52 -111,0 -230,-26 -314,-104 -83,78 -203,104 -314,104 -189,0 -368,-91 -450,-264 -38,-80 -53,-165 -51,-253 3,-204 92,-408 290,-494 20,-8 44,-13 68,-13 29,0 57,7 79,22 14,11 20,22 20,34 0,18 -17,34 -40,44 -151,63 -212,258 -215,407 -1,71 9,137 35,203 43,107 142,202 264,202 151,0 213,-115 213,-250l0 -606c0,-42 69,-56 101,-56 33,0 102,14 102,56l0 606c0,136 61,250 212,250 123,0 222,-95 264,-202 27,-66 37,-132 35,-203 -2,-149 -63,-344 -215,-407z"/>
 </g>
</svg>
