<?xml version="1.0" encoding="UTF-8"?>
<!DOCTYPE svg PUBLIC "-//W3C//DTD SVG 1.1//EN" "http://www.w3.org/Graphics/SVG/1.1/DTD/svg11.dtd">
<!-- Creator: CorelDRAW X8 -->
<svg xmlns="http://www.w3.org/2000/svg" xml:space="preserve" width="1607px" height="1486px" version="1.1" style="shape-rendering:geometricPrecision; text-rendering:geometricPrecision; image-rendering:optimizeQuality; fill-rule:evenodd; clip-rule:evenodd"
viewBox="0 0 1607 1486"
 xmlns:xlink="http://www.w3.org/1999/xlink">
 <defs>
  <style type="text/css">
   <![CDATA[
    .fil0 {fill:#FF6600;fill-rule:nonzero}
   ]]>
  </style>
 </defs>
 <g id="Layer_x0020_1">
  <metadata id="CorelCorpID_0Corel-Layer"/>
  <path class="fil0" d="M795 1408c62,0 138,-4 195,-30 39,-18 66,-47 65,-91 -2,-50 -58,-70 -101,-71 -56,0 -87,41 -87,97 0,31 -47,40 -71,40 -24,0 -71,-9 -71,-40 0,-56 -31,-97 -87,-97 -43,1 -99,21 -101,71 -1,44 26,73 65,91 56,25 131,30 193,30zm315 -384c-132,0 -244,-38 -314,-117 -71,79 -182,117 -314,117 -183,0 -352,-91 -431,-259 -37,-79 -52,-170 -51,-261 3,-202 89,-407 283,-493 35,-15 86,-17 118,7 27,20 20,48 -15,64 -156,66 -221,264 -223,422 -1,73 9,148 35,215 46,118 153,214 284,214 161,0 232,-115 232,-265l0 -622c0,-25 37,-46 82,-46 45,0 81,21 81,46l0 622c0,149 71,265 233,265 130,0 237,-96 283,-214 27,-67 37,-142 36,-215 -3,-158 -67,-356 -223,-422 -36,-16 -43,-44 -16,-64 32,-24 84,-22 119,-7 141,63 225,189 261,331 26,99 38,212 37,325 -1,77 -7,155 -21,230 -36,192 -123,367 -303,475 -84,50 -196,83 -307,100 -62,9 -123,13 -180,14 -79,0 -169,-9 -244,-36 -84,-30 -144,-96 -143,-163 1,-38 21,-77 68,-107 41,-26 101,-39 161,-39 53,0 114,11 158,40 44,-29 105,-40 158,-40 60,0 121,13 161,39 48,30 69,69 69,107 0,16 -4,33 -10,48 157,-88 234,-241 256,-425 -88,77 -204,114 -320,114z"/>
 </g>
</svg>
