<?xml version="1.0" encoding="UTF-8"?>
<!DOCTYPE svg PUBLIC "-//W3C//DTD SVG 1.1//EN" "http://www.w3.org/Graphics/SVG/1.1/DTD/svg11.dtd">
<!-- Creator: CorelDRAW X8 -->
<svg xmlns="http://www.w3.org/2000/svg" xml:space="preserve" width="2014px" height="1486px" version="1.1" style="shape-rendering:geometricPrecision; text-rendering:geometricPrecision; image-rendering:optimizeQuality; fill-rule:evenodd; clip-rule:evenodd"
viewBox="0 0 2014 1486"
 xmlns:xlink="http://www.w3.org/1999/xlink">
 <defs>
  <style type="text/css">
   <![CDATA[
    .fil0 {fill:#A82682;fill-rule:nonzero}
   ]]>
  </style>
 </defs>
 <g id="Layer_x0020_1">
  <metadata id="CorelCorpID_0Corel-Layer"/>
  <path class="fil0" d="M1579 100c-37,-16 -57,-50 -19,-78 39,-28 103,-27 146,-9 127,55 206,158 252,278 43,112 58,238 56,354 -7,310 -160,563 -433,711 -154,84 -335,127 -519,130 -262,4 -526,-76 -732,-239 -215,-169 -329,-407 -330,-679 0,-213 73,-420 255,-547 37,-26 101,-27 142,-9 38,16 56,51 17,78 -156,109 -212,296 -212,477 0,213 78,412 232,563 164,161 397,248 627,245 148,-2 295,-41 419,-119 104,-65 192,-164 252,-284 -74,35 -155,52 -237,52 -111,0 -230,-26 -314,-104 -83,78 -203,104 -314,104 -189,0 -368,-91 -450,-264 -38,-80 -53,-165 -51,-253 3,-204 92,-408 290,-494 43,-18 108,-19 147,9 38,28 18,62 -20,78 -151,63 -212,258 -215,407 -1,71 9,137 35,203 43,107 142,202 264,202 151,0 213,-115 213,-250l0 -606c0,-42 69,-56 101,-56 33,0 102,14 102,56l0 606c0,136 61,250 212,250 123,0 222,-95 264,-202 27,-66 36,-132 35,-203 -2,-149 -64,-344 -215,-407z"/>
 </g>
</svg>
