<?xml version="1.0" encoding="UTF-8"?>
<!DOCTYPE svg PUBLIC "-//W3C//DTD SVG 1.1//EN" "http://www.w3.org/Graphics/SVG/1.1/DTD/svg11.dtd">
<!-- Creator: CorelDRAW X8 -->
<svg xmlns="http://www.w3.org/2000/svg" xml:space="preserve" width="2014px" height="1487px" version="1.1" style="shape-rendering:geometricPrecision; text-rendering:geometricPrecision; image-rendering:optimizeQuality; fill-rule:evenodd; clip-rule:evenodd"
viewBox="0 0 2014 1487"
 xmlns:xlink="http://www.w3.org/1999/xlink">
 <defs>
  <style type="text/css">
   <![CDATA[
    .fil0 {fill:#2B2A29;fill-rule:nonzero}
   ]]>
  </style>
 </defs>
 <g id="Layer_x0020_1">
  <metadata id="CorelCorpID_0Corel-Layer"/>
  <path class="fil0" d="M1495 1024c84,0 165,-18 237,-52 -60,118 -150,221 -252,285 -128,80 -286,119 -437,119 -226,0 -448,-87 -609,-245 -154,-151 -232,-349 -232,-562 0,-181 56,-369 212,-478 15,-11 22,-22 22,-34 0,-18 -16,-34 -39,-44 -18,-8 -41,-12 -64,-12 -28,0 -57,7 -78,21 -182,127 -255,334 -255,547 1,272 115,510 330,679 201,159 457,239 713,239 186,0 375,-41 538,-130 280,-152 433,-414 433,-731 0,-89 -10,-183 -34,-270 -41,-148 -124,-279 -274,-343 -20,-9 -44,-13 -68,-13 -28,0 -57,7 -78,22 -15,11 -21,22 -21,33 0,18 16,35 40,45 154,63 215,260 215,413 0,67 -9,137 -35,199 -42,107 -141,201 -264,201 -151,0 -213,-114 -213,-249l0 -608c0,-42 -69,-56 -101,-56 -32,0 -102,14 -102,56l0 608c0,135 -61,249 -212,249 -123,0 -222,-94 -264,-201 -26,-62 -35,-132 -35,-199 0,-153 61,-350 215,-413 23,-10 40,-27 40,-45 0,-11 -6,-22 -21,-33 -21,-15 -50,-22 -78,-22 -24,0 -48,5 -68,13 -200,86 -291,292 -291,500 0,85 14,172 52,249 82,172 260,262 450,262 111,0 231,-26 314,-103 83,77 203,103 314,103z"/>
 </g>
</svg>
