<?xml version="1.0" encoding="UTF-8"?>
<!DOCTYPE svg PUBLIC "-//W3C//DTD SVG 1.1//EN" "http://www.w3.org/Graphics/SVG/1.1/DTD/svg11.dtd">
<!-- Creator: CorelDRAW X8 -->
<svg xmlns="http://www.w3.org/2000/svg" xml:space="preserve" width="1647px" height="1486px" version="1.1" style="shape-rendering:geometricPrecision; text-rendering:geometricPrecision; image-rendering:optimizeQuality; fill-rule:evenodd; clip-rule:evenodd"
viewBox="0 0 1647 1486"
 xmlns:xlink="http://www.w3.org/1999/xlink">
 <defs>
  <style type="text/css">
   <![CDATA[
    .fil0 {fill:#A82682;fill-rule:nonzero}
   ]]>
  </style>
 </defs>
 <g id="Layer_x0020_1">
  <metadata id="CorelCorpID_0Corel-Layer"/>
  <path class="fil0" d="M815 1387c58,0 129,-3 183,-27 34,-15 58,-41 57,-80 -1,-41 -45,-59 -81,-59 -47,-1 -67,42 -67,83 0,40 -59,51 -91,51 -32,0 -91,-11 -91,-51 0,-41 -20,-83 -66,-83 -37,0 -80,17 -82,59 -1,39 23,65 58,80 52,23 123,27 180,27zm315 -363c-111,0 -231,-26 -314,-103 -83,77 -203,103 -314,103 -190,0 -368,-90 -450,-263 -39,-81 -53,-165 -52,-254 3,-204 92,-408 291,-494 43,-18 107,-19 146,9 38,28 18,62 -19,78 -151,63 -213,258 -215,407 -1,71 8,137 35,203 42,107 141,202 264,202 151,0 212,-114 212,-250l0 -606c0,-42 70,-56 102,-56 32,0 101,14 101,56l0 606c0,136 62,250 213,250 123,0 221,-95 264,-202 26,-66 36,-132 35,-203 -2,-149 -64,-344 -215,-407 -38,-16 -58,-50 -19,-78 39,-28 103,-27 146,-9 144,63 231,187 269,334 27,104 38,214 37,321 -1,76 -7,153 -21,228 -38,197 -129,369 -308,474 -93,55 -210,86 -317,102 -61,9 -123,13 -184,14 -84,1 -177,-8 -256,-37 -71,-25 -153,-88 -152,-170 1,-49 33,-87 73,-113 49,-30 119,-42 176,-42 52,0 111,10 158,35 47,-25 106,-35 158,-35 57,0 127,12 176,42 45,28 79,70 73,126 118,-83 178,-215 202,-353 -87,58 -191,85 -295,85z"/>
 </g>
</svg>
