<?xml version="1.0" encoding="UTF-8"?>
<!DOCTYPE svg PUBLIC "-//W3C//DTD SVG 1.1//EN" "http://www.w3.org/Graphics/SVG/1.1/DTD/svg11.dtd">
<!-- Creator: CorelDRAW X8 -->
<svg xmlns="http://www.w3.org/2000/svg" xml:space="preserve" width="1632px" height="1024px" version="1.1" style="shape-rendering:geometricPrecision; text-rendering:geometricPrecision; image-rendering:optimizeQuality; fill-rule:evenodd; clip-rule:evenodd"
viewBox="0 0 1632 1024"
 xmlns:xlink="http://www.w3.org/1999/xlink">
 <defs>
  <style type="text/css">
   <![CDATA[
    .fil0 {fill:#A82682;fill-rule:nonzero}
   ]]>
  </style>
 </defs>
 <g id="Layer_x0020_1">
  <metadata id="CorelCorpID_0Corel-Layer"/>
  <path class="fil0" d="M1214 924c-40,17 -56,51 -19,78 39,28 103,27 146,9 199,-86 288,-288 291,-491 1,-88 -13,-178 -52,-258 -82,-172 -260,-262 -450,-262 -111,0 -231,26 -314,103 -83,-77 -203,-103 -314,-103 -190,0 -368,90 -450,262 -39,80 -53,170 -52,258 3,203 92,405 291,491 43,18 107,19 146,-9 39,-28 19,-62 -19,-78 -151,-62 -213,-256 -215,-404 -1,-70 8,-143 35,-208 42,-107 141,-201 264,-201 151,0 212,114 212,249l0 608c0,42 70,56 102,56 32,0 101,-14 101,-56l0 -608c0,-135 62,-249 213,-249 123,0 222,94 264,201 27,65 36,138 35,208 -2,148 -64,342 -215,404z"/>
 </g>
</svg>
