<?xml version="1.0" encoding="UTF-8"?>
<!DOCTYPE svg PUBLIC "-//W3C//DTD SVG 1.1//EN" "http://www.w3.org/Graphics/SVG/1.1/DTD/svg11.dtd">
<!-- Creator: CorelDRAW X8 -->
<svg xmlns="http://www.w3.org/2000/svg" xml:space="preserve" width="1027px" height="868px" version="1.1" style="shape-rendering:geometricPrecision; text-rendering:geometricPrecision; image-rendering:optimizeQuality; fill-rule:evenodd; clip-rule:evenodd"
viewBox="0 0 1027 868"
 xmlns:xlink="http://www.w3.org/1999/xlink">
 <defs>
  <style type="text/css">
   <![CDATA[
    .fil0 {fill:#5B5A50;fill-rule:nonzero}
   ]]>
  </style>
 </defs>
 <g id="Layer_x0020_1">
  <metadata id="CorelCorpID_0Corel-Layer"/>
  <path class="fil0" d="M499 718c-28,0 -62,3 -90,13 -12,4 -32,14 -32,29 -1,16 20,26 32,30 27,11 61,13 90,13 26,0 51,-2 76,-9 15,-4 44,-15 44,-34 0,-18 -29,-29 -43,-33 -25,-7 -51,-9 -77,-9zm409 -645c82,70 115,181 119,285 3,80 -10,163 -40,237 -45,111 -129,193 -243,235 -41,15 -86,23 -130,29 -38,6 -77,9 -116,9 -46,0 -94,-4 -139,-15 -43,-11 -116,-40 -116,-93 0,-61 87,-86 137,-95 45,-9 91,-12 119,-12 42,0 85,4 126,13 41,9 106,31 124,73 54,-43 89,-103 110,-168 22,-68 29,-142 26,-213 -4,-77 -26,-166 -77,-227 -28,-33 -74,-62 -119,-62 -83,0 -118,70 -118,144l0 352c0,28 -50,35 -71,35 -20,0 -71,-7 -71,-35l0 -352c0,-73 -35,-144 -117,-144 -67,0 -125,58 -148,116 -16,38 -22,80 -21,122 1,87 39,196 127,232 24,9 37,30 13,47 -27,19 -78,18 -108,5 -118,-49 -173,-162 -175,-284 -1,-52 8,-105 31,-152 52,-106 165,-155 281,-155 64,0 136,13 188,53 52,-40 124,-53 189,-53 78,0 159,22 219,73z"/>
 </g>
</svg>
