<?xml version="1.0" encoding="UTF-8"?>
<!DOCTYPE svg PUBLIC "-//W3C//DTD SVG 1.1//EN" "http://www.w3.org/Graphics/SVG/1.1/DTD/svg11.dtd">
<!-- Creator: CorelDRAW X8 -->
<svg xmlns="http://www.w3.org/2000/svg" xml:space="preserve" width="1098px" height="600px" version="1.1" style="shape-rendering:geometricPrecision; text-rendering:geometricPrecision; image-rendering:optimizeQuality; fill-rule:evenodd; clip-rule:evenodd"
viewBox="0 0 1098 600"
 xmlns:xlink="http://www.w3.org/1999/xlink">
 <defs>
  <style type="text/css">
   <![CDATA[
    .fil0 {fill:#5B5A50;fill-rule:nonzero}
   ]]>
  </style>
 </defs>
 <g id="Layer_x0020_1">
  <metadata id="CorelCorpID_0Corel-Layer"/>
  <path class="fil0" d="M270 539c23,9 37,30 13,47 -27,18 -78,17 -108,5 -118,-49 -173,-165 -175,-286 -1,-52 8,-104 31,-151 52,-106 165,-154 280,-154 74,0 136,12 194,58 59,-40 143,-58 213,-58 118,1 233,33 309,126 51,61 72,136 71,214 -1,56 -14,113 -44,161 -45,70 -121,100 -204,99 -77,-1 -152,-26 -197,-91 -27,-39 -40,-86 -40,-133 0,-57 19,-115 55,-161 46,-57 113,-90 185,-103 -37,-27 -87,-44 -134,-43 -85,1 -148,57 -148,142l0 354c0,28 -50,35 -71,35 -21,0 -71,-7 -71,-35l0 -354c0,-72 -35,-142 -118,-142 -66,0 -124,58 -148,115 -15,38 -21,80 -20,121 1,87 39,198 127,234zm580 -8c33,0 57,-24 72,-51 22,-39 33,-96 33,-140 0,-55 -13,-117 -43,-164 -47,5 -86,29 -113,66 -27,38 -41,86 -42,132 -1,31 3,64 15,93 14,32 39,64 78,64z"/>
 </g>
</svg>
