<?xml version="1.0" encoding="UTF-8"?>
<!DOCTYPE svg PUBLIC "-//W3C//DTD SVG 1.1//EN" "http://www.w3.org/Graphics/SVG/1.1/DTD/svg11.dtd">
<!-- Creator: CorelDRAW X8 -->
<svg xmlns="http://www.w3.org/2000/svg" xml:space="preserve" width="1740px" height="1486px" version="1.1" style="shape-rendering:geometricPrecision; text-rendering:geometricPrecision; image-rendering:optimizeQuality; fill-rule:evenodd; clip-rule:evenodd"
viewBox="0 0 1740 1486"
 xmlns:xlink="http://www.w3.org/1999/xlink">
 <defs>
  <style type="text/css">
   <![CDATA[
    .fil0 {fill:#5B5A50;fill-rule:nonzero}
   ]]>
  </style>
 </defs>
 <g id="Layer_x0020_1">
  <metadata id="CorelCorpID_0Corel-Layer"/>
  <path class="fil0" d="M1064 1387c58,0 129,-3 183,-27 34,-15 59,-41 57,-80 -1,-41 -44,-59 -81,-60 -47,0 -67,42 -67,84 0,40 -59,51 -90,51 -32,0 -91,-11 -91,-51 -1,-41 -20,-84 -67,-84 -36,0 -80,18 -82,60 -1,39 23,65 58,80 52,23 123,27 180,27zm-246 -1273c97,-84 252,-112 377,-113 205,-1 448,72 453,312 2,92 -48,168 -128,214 148,73 220,213 220,374 0,116 -27,231 -94,328 -77,112 -194,185 -324,225 -81,25 -174,32 -258,32 -83,-1 -175,-9 -254,-37 -71,-25 -153,-88 -152,-170 1,-49 33,-88 74,-113 48,-31 118,-42 175,-42 53,0 111,10 158,35 47,-25 106,-35 158,-35 58,0 127,11 176,42 29,18 56,44 68,78 73,-93 99,-228 87,-342 -13,-130 -81,-269 -217,-306 -59,-16 -120,-8 -181,-8 -33,0 -102,-14 -102,-56 0,-42 69,-56 101,-56 61,0 132,4 190,-15 69,-23 101,-79 101,-148 -1,-146 -116,-204 -250,-201 -173,5 -279,94 -279,269l0 587c0,42 -71,56 -101,56 -33,0 -102,-15 -102,-56l0 -606c0,-136 -61,-250 -212,-250 -123,0 -222,95 -264,202 -27,66 -36,139 -35,209 2,149 64,337 215,401 37,15 57,50 19,78 -39,28 -103,27 -146,8 -199,-86 -288,-282 -291,-486 -1,-89 13,-180 52,-261 82,-173 260,-263 450,-263 121,0 230,24 316,114z"/>
 </g>
</svg>
