<?xml version="1.0" encoding="UTF-8"?>
<!DOCTYPE svg PUBLIC "-//W3C//DTD SVG 1.1//EN" "http://www.w3.org/Graphics/SVG/1.1/DTD/svg11.dtd">
<!-- Creator: CorelDRAW X8 -->
<svg xmlns="http://www.w3.org/2000/svg" xml:space="preserve" width="2259px" height="1486px" version="1.1" style="shape-rendering:geometricPrecision; text-rendering:geometricPrecision; image-rendering:optimizeQuality; fill-rule:evenodd; clip-rule:evenodd"
viewBox="0 0 2259 1486"
 xmlns:xlink="http://www.w3.org/1999/xlink">
 <defs>
  <style type="text/css">
   <![CDATA[
    .fil0 {fill:#A82682}
   ]]>
  </style>
 </defs>
 <g id="Layer_x0020_1">
  <metadata id="CorelCorpID_0Corel-Layer"/>
  <path class="fil0" d="M1403 1387c58,0 129,-3 182,-27 35,-15 59,-41 58,-80 -2,-41 -45,-59 -81,-59 -47,-1 -67,42 -68,83 0,40 -58,51 -90,51 -32,0 -91,-11 -91,-51 0,-41 -20,-83 -67,-83 -36,0 -80,17 -81,59 -2,39 23,65 57,80 53,24 124,27 181,27zm101 -1014l0 595c0,42 -69,56 -101,56 -33,0 -102,-14 -102,-56l0 -597c0,-116 -53,-257 -193,-257 -137,0 -191,143 -191,258l0 597c0,41 -69,55 -101,55 -33,0 -102,-14 -102,-55l0 -597c0,-133 -61,-259 -212,-259 -123,0 -222,95 -264,202 -27,66 -36,139 -35,210 2,149 64,336 215,400 37,15 58,50 19,78 -41,29 -105,27 -150,7 -196,-87 -284,-283 -287,-485 -1,-89 14,-180 52,-260 82,-173 260,-264 450,-264 115,0 231,36 315,117 77,-79 180,-116 291,-117 108,-1 209,34 287,110 90,-84 200,-111 321,-111 126,0 251,40 345,123 137,121 191,314 197,489 5,136 -14,274 -63,401 -74,189 -207,336 -401,409 -56,21 -117,35 -176,45 -70,12 -142,18 -214,19 -83,1 -176,-8 -255,-37 -71,-25 -154,-88 -152,-170 0,-49 32,-87 73,-113 49,-30 118,-42 176,-42 52,0 111,10 158,35 47,-25 105,-35 158,-35 57,0 127,12 175,42 43,27 77,67 74,120 105,-78 170,-192 208,-314 36,-114 48,-239 43,-359 -6,-133 -44,-286 -130,-391 -52,-65 -131,-110 -216,-110 -158,0 -212,121 -212,261z"/>
 </g>
</svg>
