<?xml version="1.0" encoding="UTF-8"?>
<!DOCTYPE svg PUBLIC "-//W3C//DTD SVG 1.1//EN" "http://www.w3.org/Graphics/SVG/1.1/DTD/svg11.dtd">
<!-- Creator: CorelDRAW X8 -->
<svg xmlns="http://www.w3.org/2000/svg" xml:space="preserve" width="2610px" height="1486px" version="1.1" style="shape-rendering:geometricPrecision; text-rendering:geometricPrecision; image-rendering:optimizeQuality; fill-rule:evenodd; clip-rule:evenodd"
viewBox="0 0 2610 1487"
 xmlns:xlink="http://www.w3.org/1999/xlink">
 <defs>
  <style type="text/css">
   <![CDATA[
    .fil0 {fill:#2B2A29;fill-rule:nonzero}
   ]]>
  </style>
 </defs>
 <g id="Layer_x0020_1">
  <metadata id="CorelCorpID_0Corel-Layer"/>
  <path class="fil0" d="M1359 1487c328,0 704,-83 960,-291 195,-159 291,-370 291,-621 0,-168 -55,-337 -185,-452 -94,-83 -220,-123 -345,-123 -122,0 -231,26 -321,111 -77,-75 -181,-110 -288,-110 -112,0 -212,36 -291,117 -84,-81 -200,-117 -316,-117 -189,0 -367,91 -450,263 -37,78 -51,165 -51,250 0,208 90,409 287,496 22,10 48,16 73,16 28,0 56,-6 77,-22 14,-12 20,-23 20,-34 0,-18 -16,-35 -40,-45 -152,-63 -215,-258 -215,-411 0,-67 10,-136 35,-199 43,-107 142,-202 264,-202 152,0 214,125 214,259l0 597c0,43 68,57 100,57 34,0 102,-14 102,-57l0 -597c0,-115 54,-258 191,-258 140,0 194,140 194,257l0 597c0,42 69,56 101,56 32,0 101,-14 101,-56l0 -596c0,-139 54,-260 213,-260 85,0 164,52 216,115 78,97 110,227 110,348 0,205 -65,394 -215,537 -213,202 -544,264 -832,264 -291,0 -645,-62 -878,-248 -180,-144 -279,-351 -279,-582 0,-178 66,-357 228,-452 18,-11 27,-24 27,-38 0,-15 -11,-30 -32,-41 -19,-10 -44,-15 -68,-15 -27,0 -55,6 -75,18 -194,113 -282,311 -282,528 0,286 136,524 368,686 272,188 665,255 991,255z"/>
 </g>
</svg>
