<?xml version="1.0" encoding="UTF-8"?>
<!DOCTYPE svg PUBLIC "-//W3C//DTD SVG 1.1//EN" "http://www.w3.org/Graphics/SVG/1.1/DTD/svg11.dtd">
<!-- Creator: CorelDRAW X8 -->
<svg xmlns="http://www.w3.org/2000/svg" xml:space="preserve" width="1676px" height="1486px" version="1.1" style="shape-rendering:geometricPrecision; text-rendering:geometricPrecision; image-rendering:optimizeQuality; fill-rule:evenodd; clip-rule:evenodd"
viewBox="0 0 1676 1486"
 xmlns:xlink="http://www.w3.org/1999/xlink">
 <defs>
  <style type="text/css">
   <![CDATA[
    .fil0 {fill:#A82682}
   ]]>
  </style>
 </defs>
 <g id="Layer_x0020_1">
  <metadata id="CorelCorpID_0Corel-Layer"/>
  <path class="fil0" d="M816 1387c58,0 129,-3 183,-27 34,-15 59,-41 57,-80 -1,-41 -44,-59 -81,-59 -47,-1 -67,42 -67,83 0,40 -59,51 -90,51 -32,0 -91,-11 -91,-51 -1,-41 -20,-83 -67,-83 -36,0 -80,17 -82,59 -1,39 23,65 58,80 52,24 123,27 180,27zm392 35c-57,21 -117,35 -176,45 -71,12 -143,18 -214,19 -84,1 -177,-8 -256,-37 -71,-25 -153,-88 -152,-170 1,-49 33,-87 74,-113 48,-30 118,-42 175,-42 53,0 111,10 158,35 47,-25 106,-35 158,-35 58,0 127,12 176,42 43,27 77,67 74,120 104,-78 170,-192 208,-314 36,-114 48,-239 43,-359 -6,-133 -45,-286 -131,-391 -52,-65 -130,-110 -215,-110 -151,0 -213,114 -213,250l0 606c0,42 -69,56 -101,56 -33,0 -102,-14 -102,-56l0 -606c0,-136 -61,-250 -213,-250 -122,0 -221,95 -264,202 -26,66 -36,139 -35,210 3,149 64,337 215,400 38,16 58,50 20,78 -39,28 -103,27 -147,9 -198,-86 -287,-283 -290,-487 -1,-89 13,-180 51,-261 83,-173 261,-263 450,-263 112,0 231,26 315,103 83,-77 202,-103 314,-103 125,0 254,40 349,123 136,121 190,314 197,489 4,136 -15,274 -64,401 -73,190 -211,336 -404,409z"/>
 </g>
</svg>
