<?xml version="1.0" encoding="UTF-8"?>
<!DOCTYPE svg PUBLIC "-//W3C//DTD SVG 1.1//EN" "http://www.w3.org/Graphics/SVG/1.1/DTD/svg11.dtd">
<!-- Creator: CorelDRAW X8 -->
<svg xmlns="http://www.w3.org/2000/svg" xml:space="preserve" width="2223px" height="1486px" version="1.1" style="shape-rendering:geometricPrecision; text-rendering:geometricPrecision; image-rendering:optimizeQuality; fill-rule:evenodd; clip-rule:evenodd"
viewBox="0 0 2223 1486"
 xmlns:xlink="http://www.w3.org/1999/xlink">
 <defs>
  <style type="text/css">
   <![CDATA[
    .fil0 {fill:#003399;fill-rule:nonzero}
   ]]>
  </style>
 </defs>
 <g id="Layer_x0020_1">
  <metadata id="CorelCorpID_0Corel-Layer"/>
  <path class="fil0" d="M1381 1225c-76,0 -137,10 -176,25 -43,17 -65,40 -66,63 0,23 22,46 65,63 40,16 101,26 177,26 63,0 111,-7 149,-18 58,-17 88,-44 87,-71 0,-27 -29,-53 -86,-70 -38,-11 -86,-18 -150,-18zm83 -858l0 611c0,25 -36,46 -81,46 -45,0 -82,-21 -82,-46l0 -612c0,-133 -63,-273 -213,-273 -149,0 -211,143 -211,274l0 612c0,25 -36,46 -81,46 -45,0 -82,-21 -82,-46l0 -612c0,-149 -71,-274 -232,-274 -131,0 -238,96 -284,213 -26,67 -36,143 -35,216 2,157 67,355 223,421 35,15 42,44 15,64 -33,25 -85,22 -121,5 -192,-86 -277,-290 -280,-490 -1,-92 14,-183 51,-262 79,-168 248,-258 431,-258 133,0 244,50 315,131 77,-90 181,-131 291,-132 112,-1 212,40 287,124 88,-95 193,-125 321,-125 124,0 241,41 328,120 129,116 192,302 198,491 5,140 -15,283 -65,411 -70,177 -200,327 -394,401 -62,24 -130,38 -205,49 -62,9 -123,14 -180,14 -68,1 -144,-7 -210,-24 -118,-32 -177,-91 -177,-149 0,-59 61,-118 182,-149 56,-15 127,-23 208,-23 75,0 136,7 189,19 76,18 195,65 196,153 0,6 -1,12 -2,17 130,-77 209,-204 253,-346 38,-121 49,-253 44,-373 -7,-152 -51,-302 -131,-402 -55,-69 -140,-118 -234,-118 -170,0 -232,123 -232,276z"/>
 </g>
</svg>
