<?xml version="1.0" encoding="UTF-8"?>
<!DOCTYPE svg PUBLIC "-//W3C//DTD SVG 1.1//EN" "http://www.w3.org/Graphics/SVG/1.1/DTD/svg11.dtd">
<!-- Creator: CorelDRAW X8 -->
<svg xmlns="http://www.w3.org/2000/svg" xml:space="preserve" width="2381px" height="1024px" version="1.1" style="shape-rendering:geometricPrecision; text-rendering:geometricPrecision; image-rendering:optimizeQuality; fill-rule:evenodd; clip-rule:evenodd"
viewBox="0 0 2381 1024"
 xmlns:xlink="http://www.w3.org/1999/xlink">
 <defs>
  <style type="text/css">
   <![CDATA[
    .fil0 {fill:#2B2A29;fill-rule:nonzero}
   ]]>
  </style>
 </defs>
 <g id="Layer_x0020_1">
  <metadata id="CorelCorpID_0Corel-Layer"/>
  <path class="fil0" d="M815 1024c56,0 102,-25 102,-56l0 -599c0,-114 57,-256 194,-256 141,0 190,140 190,255l0 599c0,42 69,56 102,56 32,0 101,-14 101,-56l0 -574c0,-171 90,-283 266,-283 84,0 174,30 240,80 -122,21 -235,78 -311,176 -60,78 -92,178 -92,276 0,80 21,162 67,228 72,108 192,153 316,153 130,0 248,-56 317,-167 52,-83 74,-186 74,-283 0,-130 -36,-257 -118,-360 -120,-150 -302,-213 -493,-213 -126,0 -271,32 -367,117 -78,-78 -179,-116 -292,-116 -111,0 -215,37 -295,116 -83,-80 -200,-116 -315,-116 -189,0 -367,90 -449,262 -37,78 -52,162 -52,248 0,206 91,412 287,498 21,9 47,15 72,15 29,0 56,-7 78,-22 14,-11 20,-22 20,-33 0,-18 -16,-35 -40,-45 -153,-63 -214,-261 -214,-413 0,-67 9,-136 35,-198 42,-106 141,-201 263,-201 152,0 213,125 213,257l0 599c0,42 69,56 101,56zm1175 -112c-55,0 -98,-37 -127,-80 -38,-55 -53,-124 -53,-190 0,-83 24,-166 75,-233 53,-68 130,-112 217,-116 55,83 77,182 77,280 0,83 -20,177 -64,248 -27,44 -69,91 -125,91z"/>
 </g>
</svg>
