<?xml version="1.0" encoding="UTF-8"?>
<!DOCTYPE svg PUBLIC "-//W3C//DTD SVG 1.1//EN" "http://www.w3.org/Graphics/SVG/1.1/DTD/svg11.dtd">
<!-- Creator: CorelDRAW X8 -->
<svg xmlns="http://www.w3.org/2000/svg" xml:space="preserve" width="2807px" height="1024px" version="1.1" style="shape-rendering:geometricPrecision; text-rendering:geometricPrecision; image-rendering:optimizeQuality; fill-rule:evenodd; clip-rule:evenodd"
viewBox="0 0 2807 1024"
 xmlns:xlink="http://www.w3.org/1999/xlink">
 <defs>
  <style type="text/css">
   <![CDATA[
    .fil0 {fill:#5B5A50;fill-rule:nonzero}
   ]]>
  </style>
 </defs>
 <g id="Layer_x0020_1">
  <metadata id="CorelCorpID_0Corel-Layer"/>
  <path class="fil0" d="M1996 923c-76,72 -187,99 -290,101 -163,3 -312,-73 -368,-229 -35,-94 -34,-192 -35,-291 -1,-85 -3,-172 -32,-253 -25,-68 -88,-142 -168,-140 -144,3 -186,136 -186,255l0 602c0,42 -69,56 -101,56 -32,0 -102,-14 -102,-56l0 -602c0,-214 -181,-337 -363,-203 -113,83 -150,224 -148,356 2,148 64,343 215,405 37,16 58,50 19,78 -39,28 -103,27 -146,9 -199,-86 -288,-289 -291,-492 -3,-182 63,-350 227,-447 165,-97 436,-104 584,30 76,-72 187,-99 290,-102 163,-3 312,74 368,229 33,89 34,182 35,275 1,90 1,183 32,270 25,68 88,141 168,139 144,-3 186,-135 186,-254l0 -603c0,-42 69,-56 101,-56 32,0 102,14 102,56l0 603c0,133 60,254 212,254 123,0 222,-94 264,-201 27,-65 36,-136 35,-206 -2,-148 -64,-343 -215,-406 -38,-16 -57,-50 -19,-78 39,-28 103,-27 146,-8 199,85 288,289 291,491 1,88 -13,177 -52,257 -82,172 -260,262 -450,262 -110,0 -226,-26 -309,-101z"/>
 </g>
</svg>
