<?xml version="1.0" encoding="UTF-8"?>
<!DOCTYPE svg PUBLIC "-//W3C//DTD SVG 1.1//EN" "http://www.w3.org/Graphics/SVG/1.1/DTD/svg11.dtd">
<!-- Creator: CorelDRAW X8 -->
<svg xmlns="http://www.w3.org/2000/svg" xml:space="preserve" width="1676px" height="1486px" version="1.1" style="shape-rendering:geometricPrecision; text-rendering:geometricPrecision; image-rendering:optimizeQuality; fill-rule:evenodd; clip-rule:evenodd"
viewBox="0 0 1676 1486"
 xmlns:xlink="http://www.w3.org/1999/xlink">
 <defs>
  <style type="text/css">
   <![CDATA[
    .fil0 {fill:#A82682;fill-rule:nonzero}
   ]]>
  </style>
 </defs>
 <g id="Layer_x0020_1">
  <metadata id="CorelCorpID_0Corel-Layer"/>
  <path class="fil0" d="M815 1228c-53,0 -117,5 -166,24 -21,8 -56,26 -56,52 -1,27 34,45 56,54 49,18 113,23 166,23 46,0 94,-4 139,-17 26,-7 77,-27 77,-60 -1,-32 -50,-51 -76,-59 -45,-13 -94,-17 -140,-17zm664 -1105c136,121 190,314 197,489 4,138 -16,279 -66,408 -74,186 -211,330 -402,402 -68,25 -140,39 -211,50 -61,9 -123,14 -185,14 -72,1 -149,-7 -219,-25 -72,-19 -189,-69 -189,-157 1,-89 121,-138 194,-157 70,-17 145,-23 217,-23 65,0 132,5 196,20 73,17 195,62 207,147 107,-76 174,-189 213,-312 37,-117 49,-244 44,-366 -6,-133 -44,-286 -130,-391 -52,-65 -130,-110 -215,-110 -151,0 -213,114 -213,250l0 606c0,42 -69,56 -101,56 -33,0 -102,-14 -102,-56l0 -606c0,-136 -61,-250 -213,-250 -122,0 -221,95 -264,202 -26,66 -36,139 -35,210 3,149 64,337 215,400 38,16 58,50 20,78 -39,28 -103,27 -147,9 -198,-86 -287,-283 -290,-487 -1,-89 13,-180 51,-261 83,-173 261,-263 450,-263 112,0 231,26 315,103 83,-77 202,-103 314,-103 125,0 254,40 349,123z"/>
 </g>
</svg>
