<?xml version="1.0" encoding="UTF-8"?>
<!DOCTYPE svg PUBLIC "-//W3C//DTD SVG 1.1//EN" "http://www.w3.org/Graphics/SVG/1.1/DTD/svg11.dtd">
<!-- Creator: CorelDRAW X8 -->
<svg xmlns="http://www.w3.org/2000/svg" xml:space="preserve" width="1676px" height="1486px" version="1.1" style="shape-rendering:geometricPrecision; text-rendering:geometricPrecision; image-rendering:optimizeQuality; fill-rule:evenodd; clip-rule:evenodd"
viewBox="0 0 1676 1486"
 xmlns:xlink="http://www.w3.org/1999/xlink">
 <defs>
  <style type="text/css">
   <![CDATA[
    .fil0 {fill:#5B5A50}
   ]]>
  </style>
 </defs>
 <g id="Layer_x0020_1">
  <metadata id="CorelCorpID_0Corel-Layer"/>
  <path class="fil0" d="M816 1387c58,0 129,-4 183,-27 34,-16 59,-42 57,-81 -1,-41 -44,-59 -81,-59 -47,0 -67,42 -67,83 0,41 -59,52 -90,52 -32,0 -91,-11 -91,-52 -1,-40 -20,-83 -67,-83 -36,0 -80,18 -82,59 -1,39 23,65 58,81 52,23 123,27 180,27zm392 34c-57,22 -117,36 -176,46 -71,11 -143,18 -214,19 -84,0 -177,-9 -256,-37 -71,-25 -153,-88 -152,-170 1,-49 33,-88 74,-113 49,-31 118,-42 175,-42 53,0 111,10 158,34 47,-24 106,-34 158,-34 58,0 127,11 176,42 43,27 77,67 74,119 104,-77 170,-191 208,-313 35,-115 48,-240 42,-359 -6,-133 -44,-286 -130,-392 -52,-64 -131,-109 -215,-109 -152,0 -213,114 -213,250l0 606c0,41 -69,55 -101,55 -33,0 -102,-14 -102,-55l0 -606c0,-136 -61,-250 -212,-250 -123,0 -222,95 -264,202 -27,66 -36,139 -35,209 2,149 64,337 215,401 37,15 57,50 19,78 -39,28 -103,27 -146,8 -199,-86 -288,-282 -291,-486 -1,-89 13,-180 52,-261 82,-173 260,-263 450,-263 111,0 230,26 314,103 83,-77 202,-103 314,-103 125,0 254,40 348,123 137,121 191,313 197,489 5,136 -14,274 -63,401 -73,189 -211,336 -404,408z"/>
 </g>
</svg>
