<?xml version="1.0" encoding="UTF-8"?>
<!DOCTYPE svg PUBLIC "-//W3C//DTD SVG 1.1//EN" "http://www.w3.org/Graphics/SVG/1.1/DTD/svg11.dtd">
<!-- Creator: CorelDRAW X8 -->
<svg xmlns="http://www.w3.org/2000/svg" xml:space="preserve" width="2178px" height="1024px" version="1.1" style="shape-rendering:geometricPrecision; text-rendering:geometricPrecision; image-rendering:optimizeQuality; fill-rule:evenodd; clip-rule:evenodd"
viewBox="0 0 2178 1024"
 xmlns:xlink="http://www.w3.org/1999/xlink">
 <defs>
  <style type="text/css">
   <![CDATA[
    .fil0 {fill:#003399;fill-rule:nonzero}
   ]]>
  </style>
 </defs>
 <g id="Layer_x0020_1">
  <metadata id="CorelCorpID_0Corel-Layer"/>
  <path class="fil0" d="M1381 132c71,-81 182,-132 316,-132 182,0 351,90 430,259 37,79 52,170 51,261 -3,200 -88,404 -280,491 -36,16 -88,19 -121,-6 -27,-20 -20,-48 16,-63 155,-67 220,-264 222,-422 1,-73 -9,-148 -35,-215 -46,-118 -152,-214 -283,-214 -162,0 -233,125 -233,274l0 612c0,26 -37,46 -82,46 -45,0 -81,-20 -81,-46l0 -612c0,-133 -63,-273 -213,-273 -149,1 -211,144 -211,274l0 612c0,25 -36,46 -81,46 -45,0 -82,-21 -82,-46l0 -612c0,-149 -71,-274 -233,-274 -131,0 -237,96 -283,214 -26,67 -36,142 -35,215 2,157 67,355 222,421 36,15 43,44 16,64 -33,25 -85,22 -121,5 -192,-86 -277,-290 -280,-490 -1,-91 14,-183 51,-262 79,-168 248,-258 430,-258 134,0 245,50 316,131 77,-90 181,-131 291,-132 115,-1 218,43 293,132z"/>
 </g>
</svg>
