<?xml version="1.0" encoding="UTF-8"?>
<!DOCTYPE svg PUBLIC "-//W3C//DTD SVG 1.1//EN" "http://www.w3.org/Graphics/SVG/1.1/DTD/svg11.dtd">
<!-- Creator: CorelDRAW X8 -->
<svg xmlns="http://www.w3.org/2000/svg" xml:space="preserve" width="2126px" height="1486px" version="1.1" style="shape-rendering:geometricPrecision; text-rendering:geometricPrecision; image-rendering:optimizeQuality; fill-rule:evenodd; clip-rule:evenodd"
viewBox="0 0 2126 1486"
 xmlns:xlink="http://www.w3.org/1999/xlink">
 <defs>
  <style type="text/css">
   <![CDATA[
    .fil0 {fill:#A82682;fill-rule:nonzero}
   ]]>
  </style>
 </defs>
 <g id="Layer_x0020_1">
  <metadata id="CorelCorpID_0Corel-Layer"/>
  <path class="fil0" d="M1527 889l396 0 0 -459c0,-95 -34,-181 -101,-240 -27,-24 -59,-44 -97,-57 65,60 92,145 93,232 0,68 -15,137 -39,201 -50,128 -140,241 -252,323zm599 101c0,161 -104,278 -241,351 -195,105 -475,145 -695,145 -237,0 -525,-46 -734,-161 -292,-162 -456,-445 -456,-775 0,-206 66,-409 248,-528 38,-25 102,-26 143,-7 38,18 51,53 12,79 -154,100 -199,285 -200,456 -2,289 139,553 397,696 165,91 405,129 592,129 184,-1 431,-31 586,-136 82,-56 136,-139 143,-239l-747 0c-32,0 -101,-14 -101,-56l0 -514c0,-147 -22,-319 -213,-319 -123,0 -222,94 -264,200 -27,66 -36,139 -35,209 2,148 64,342 215,404 37,16 58,50 19,78 -39,28 -103,27 -146,9 -199,-86 -288,-288 -291,-491 -1,-88 13,-179 52,-259 82,-172 260,-261 450,-261 125,0 260,34 343,132 107,-94 257,-132 396,-132 141,0 289,37 395,131 89,78 132,183 132,299l0 560zm-750 -800c-71,62 -100,148 -100,240l0 459c134,-66 247,-202 303,-338 23,-58 37,-121 38,-184 0,-82 -34,-219 -139,-220 -38,0 -74,19 -102,43z"/>
 </g>
</svg>
