<?xml version="1.0" encoding="UTF-8"?>
<!DOCTYPE svg PUBLIC "-//W3C//DTD SVG 1.1//EN" "http://www.w3.org/Graphics/SVG/1.1/DTD/svg11.dtd">
<!-- Creator: CorelDRAW X8 -->
<svg xmlns="http://www.w3.org/2000/svg" xml:space="preserve" width="2266px" height="1486px" version="1.1" style="shape-rendering:geometricPrecision; text-rendering:geometricPrecision; image-rendering:optimizeQuality; fill-rule:evenodd; clip-rule:evenodd"
viewBox="0 0 2266 1486"
 xmlns:xlink="http://www.w3.org/1999/xlink">
 <defs>
  <style type="text/css">
   <![CDATA[
    .fil0 {fill:#5B5A50;fill-rule:nonzero}
   ]]>
  </style>
 </defs>
 <g id="Layer_x0020_1">
  <metadata id="CorelCorpID_0Corel-Layer"/>
  <path class="fil0" d="M1421 1229c-52,0 -117,4 -165,23 -22,8 -57,26 -57,52 -1,28 34,46 56,54 49,19 113,23 166,23 46,0 94,-3 139,-16 26,-8 77,-28 77,-61 0,-32 -50,-51 -75,-58 -46,-14 -94,-17 -141,-17zm-1003 -305c38,16 57,50 19,78 -39,28 -103,27 -146,8 -199,-86 -288,-284 -291,-488 -1,-88 13,-178 52,-258 82,-173 260,-264 450,-264 116,0 238,30 321,114 89,-81 232,-115 370,-114 82,1 162,13 228,36 73,-25 150,-36 227,-36 204,0 403,96 512,268 75,119 108,257 106,397 -3,175 -55,349 -160,492 -64,86 -138,154 -220,205 -83,51 -174,86 -273,105 -63,12 -128,18 -192,19 -72,1 -152,-7 -222,-25 -72,-19 -189,-69 -189,-157 1,-89 122,-138 194,-156 70,-18 145,-24 217,-24 66,0 132,6 196,20 67,15 165,51 197,116 59,-49 106,-108 143,-174 71,-125 102,-273 103,-415 1,-127 -26,-257 -97,-364 -70,-105 -182,-195 -315,-195 -23,0 -46,2 -69,6 152,113 229,296 229,481 1,85 -17,167 -59,242 -68,123 -188,181 -328,181 -139,0 -260,-58 -328,-180 -41,-75 -58,-159 -58,-243 -1,-185 77,-368 229,-481 -23,-4 -47,-6 -70,-6 -171,0 -278,119 -278,285l0 570c0,42 -68,56 -101,56 -32,0 -101,-14 -101,-56l0 -599c0,-135 -61,-256 -212,-256 -123,0 -222,95 -264,202 -27,66 -36,139 -35,210 2,149 64,336 215,400zm1003 -736c-124,95 -184,259 -184,411 0,73 14,146 50,211 27,48 73,101 134,101 60,0 108,-54 135,-102 36,-65 50,-137 50,-210 0,-151 -62,-316 -185,-411z"/>
 </g>
</svg>
