<?xml version="1.0" encoding="UTF-8"?>
<!DOCTYPE svg PUBLIC "-//W3C//DTD SVG 1.1//EN" "http://www.w3.org/Graphics/SVG/1.1/DTD/svg11.dtd">
<!-- Creator: CorelDRAW X8 -->
<svg xmlns="http://www.w3.org/2000/svg" xml:space="preserve" width="2214px" height="1024px" version="1.1" style="shape-rendering:geometricPrecision; text-rendering:geometricPrecision; image-rendering:optimizeQuality; fill-rule:evenodd; clip-rule:evenodd"
viewBox="0 0 2214 1024"
 xmlns:xlink="http://www.w3.org/1999/xlink">
 <defs>
  <style type="text/css">
   <![CDATA[
    .fil0 {fill:#2B2A29;fill-rule:nonzero}
   ]]>
  </style>
 </defs>
 <g id="Layer_x0020_1">
  <metadata id="CorelCorpID_0Corel-Layer"/>
  <path class="fil0" d="M1905 1024c34,0 68,-10 97,-28 150,-89 212,-262 212,-427 0,-100 -23,-202 -70,-291 -96,-179 -291,-278 -495,-278 -76,0 -156,11 -227,36 -77,-25 -147,-36 -228,-36 -134,0 -284,33 -370,113 -83,-84 -206,-113 -322,-113 -190,0 -368,90 -450,262 -38,77 -52,163 -52,248 0,208 91,415 291,502 20,8 44,12 68,12 28,0 57,-6 78,-22 15,-11 21,-22 21,-33 0,-18 -16,-35 -40,-45 -154,-63 -215,-261 -215,-414 0,-67 9,-135 35,-198 42,-106 141,-201 264,-201 152,0 212,121 212,255l0 602c0,42 69,56 102,56 32,0 102,-14 102,-56l0 -574c0,-166 104,-282 276,-283 24,0 46,2 70,6 -152,109 -230,298 -230,478 0,85 18,174 60,248 68,123 188,181 329,181 139,0 259,-58 327,-180 41,-74 59,-165 59,-249 0,-182 -79,-366 -229,-478 23,-4 46,-6 69,-6 127,0 244,92 301,198 42,79 61,171 61,260 0,131 -44,295 -170,358 -21,11 -32,26 -32,41 0,13 9,27 27,38 22,12 45,18 69,18zm-482 -111c-61,0 -109,-54 -136,-102 -37,-65 -51,-143 -51,-216 0,-151 62,-314 186,-408 122,93 184,259 184,408 0,73 -14,153 -50,217 -26,47 -73,101 -133,101z"/>
 </g>
</svg>
