<?xml version="1.0" encoding="UTF-8"?>
<!DOCTYPE svg PUBLIC "-//W3C//DTD SVG 1.1//EN" "http://www.w3.org/Graphics/SVG/1.1/DTD/svg11.dtd">
<!-- Creator: CorelDRAW X8 -->
<svg xmlns="http://www.w3.org/2000/svg" xml:space="preserve" width="1768px" height="1024px" version="1.1" style="shape-rendering:geometricPrecision; text-rendering:geometricPrecision; image-rendering:optimizeQuality; fill-rule:evenodd; clip-rule:evenodd"
viewBox="0 0 1768 1024"
 xmlns:xlink="http://www.w3.org/1999/xlink">
 <defs>
  <style type="text/css">
   <![CDATA[
    .fil0 {fill:#996633;fill-rule:nonzero}
   ]]>
  </style>
 </defs>
 <g id="Layer_x0020_1">
  <metadata id="CorelCorpID_0Corel-Layer"/>
  <path class="fil0" d="M1170 889l395 0 0 -459c0,-95 -33,-181 -100,-240 -27,-24 -60,-44 -98,-57 65,60 92,145 93,232 0,68 -15,137 -39,201 -50,128 -140,241 -251,323zm-455 -459c0,-147 -22,-319 -213,-319 -123,0 -221,94 -264,200 -27,66 -36,139 -35,209 2,148 64,342 215,405 22,9 40,25 40,43 0,12 -6,23 -21,34 -21,15 -49,22 -78,22 -24,0 -48,-5 -68,-13 -199,-86 -288,-288 -291,-491 -1,-88 13,-179 52,-259 82,-172 260,-261 450,-261 125,0 260,34 343,132 107,-94 257,-132 396,-132 141,0 289,37 395,131 89,78 132,183 132,299l0 515c0,41 -69,55 -102,55l-850 0c-32,0 -101,-14 -101,-55l0 -515zm303 -240c-71,62 -100,148 -100,240l0 459c135,-66 247,-202 303,-338 23,-58 37,-121 38,-184 1,-82 -34,-219 -139,-220 -38,0 -74,19 -102,43z"/>
 </g>
</svg>
