<?xml version="1.0" encoding="UTF-8"?>
<!DOCTYPE svg PUBLIC "-//W3C//DTD SVG 1.1//EN" "http://www.w3.org/Graphics/SVG/1.1/DTD/svg11.dtd">
<!-- Creator: CorelDRAW X8 -->
<svg xmlns="http://www.w3.org/2000/svg" xml:space="preserve" width="2263px" height="1486px" version="1.1" style="shape-rendering:geometricPrecision; text-rendering:geometricPrecision; image-rendering:optimizeQuality; fill-rule:evenodd; clip-rule:evenodd"
viewBox="0 0 2263 1487"
 xmlns:xlink="http://www.w3.org/1999/xlink">
 <defs>
  <style type="text/css">
   <![CDATA[
    .fil0 {fill:#2B2A29;fill-rule:nonzero}
   ]]>
  </style>
 </defs>
 <g id="Layer_x0020_1">
  <metadata id="CorelCorpID_0Corel-Layer"/>
  <path class="fil0" d="M1402 1487c74,0 163,-9 246,-25 76,-14 146,-37 209,-67 153,-75 269,-197 340,-375 53,-133 66,-265 66,-408 0,-176 -64,-368 -201,-489 -94,-83 -219,-123 -345,-123 -122,0 -230,26 -321,111 -77,-75 -180,-110 -288,-110 -111,0 -212,37 -291,117 -84,-81 -200,-117 -315,-117 -190,0 -368,91 -450,264 -37,78 -52,163 -52,250 0,207 91,408 287,495 21,9 47,15 72,15 29,0 56,-7 78,-22 15,-11 21,-22 21,-33 0,-19 -17,-36 -40,-45 -153,-65 -215,-255 -215,-410 0,-68 9,-137 35,-200 42,-107 141,-202 264,-202 151,0 212,126 212,259l0 597c0,41 69,55 102,55 32,0 101,-14 101,-55l0 -597c0,-115 54,-258 191,-258 140,0 194,141 194,257l0 597c0,42 69,56 102,56 32,0 101,-14 101,-56l0 -595c0,-140 53,-261 212,-261 85,0 163,45 216,110 85,105 133,258 133,391 0,122 -12,250 -48,366 -38,123 -105,237 -212,313 -12,-86 -134,-130 -207,-148 -65,-15 -131,-20 -197,-20 -71,0 -148,6 -216,24 -74,18 -195,67 -195,158 0,86 117,136 189,156 72,18 147,25 222,25zm0 -105c-52,0 -118,-6 -166,-24 -22,-8 -56,-26 -56,-54 0,-26 34,-44 56,-52 50,-18 114,-24 166,-24 47,0 96,4 141,18 26,8 75,26 75,60 0,32 -50,52 -76,58 -45,14 -94,18 -140,18z"/>
 </g>
</svg>
