<?xml version="1.0" encoding="UTF-8"?>
<!DOCTYPE svg PUBLIC "-//W3C//DTD SVG 1.1//EN" "http://www.w3.org/Graphics/SVG/1.1/DTD/svg11.dtd">
<!-- Creator: CorelDRAW X8 -->
<svg xmlns="http://www.w3.org/2000/svg" xml:space="preserve" width="2266px" height="1486px" version="1.1" style="shape-rendering:geometricPrecision; text-rendering:geometricPrecision; image-rendering:optimizeQuality; fill-rule:evenodd; clip-rule:evenodd"
viewBox="0 0 2266 1486"
 xmlns:xlink="http://www.w3.org/1999/xlink">
 <defs>
  <style type="text/css">
   <![CDATA[
    .fil0 {fill:#A82682;fill-rule:nonzero}
   ]]>
  </style>
 </defs>
 <g id="Layer_x0020_1">
  <metadata id="CorelCorpID_0Corel-Layer"/>
  <path class="fil0" d="M1416 1387c58,0 129,-3 183,-27 34,-15 59,-41 57,-80 -1,-41 -44,-59 -81,-59 -47,-1 -67,42 -67,83 0,40 -59,51 -91,51 -32,0 -90,-11 -90,-51 -1,-41 -20,-83 -67,-83 -36,0 -80,17 -82,59 -1,39 23,65 58,80 52,23 123,27 180,27zm-998 -463c38,16 57,50 19,78 -39,28 -103,27 -146,8 -199,-86 -288,-284 -291,-488 -1,-88 14,-178 52,-258 82,-173 260,-264 450,-264 116,0 238,30 321,114 88,-81 231,-115 369,-114 82,1 163,13 229,36 72,-25 150,-36 226,-36 205,0 404,95 513,268 75,119 108,257 106,397 -4,175 -55,349 -160,491 -56,77 -122,139 -195,188 -76,52 -161,89 -251,112 -80,21 -161,29 -243,30 -83,1 -177,-9 -255,-37 -71,-25 -153,-88 -152,-170 1,-49 33,-87 74,-113 49,-30 118,-42 175,-42 53,0 112,10 158,35 47,-25 106,-35 159,-35 57,0 126,12 175,42 33,21 61,49 71,87 55,-47 99,-104 135,-167 71,-126 102,-273 103,-416 1,-126 -26,-256 -97,-363 -70,-105 -183,-195 -316,-195 -22,0 -45,2 -68,6 71,53 126,121 164,198 43,87 65,185 65,283 0,85 -17,167 -59,243 -68,123 -189,181 -328,181 -140,0 -260,-58 -328,-181 -41,-75 -59,-158 -59,-243 0,-98 22,-196 65,-283 38,-76 93,-145 165,-198 -23,-4 -47,-6 -70,-6 -172,0 -278,118 -278,285l0 570c0,42 -68,56 -101,56 -32,0 -101,-14 -101,-56l0 -599c0,-135 -61,-256 -212,-256 -123,0 -222,95 -264,202 -27,66 -36,139 -35,210 2,149 64,336 215,400zm1133 -571c-31,-65 -75,-122 -130,-165 -56,43 -99,100 -130,164 -36,77 -55,163 -54,247 0,73 14,146 50,211 26,48 73,101 134,101 60,0 108,-54 135,-102 36,-65 50,-137 50,-210 0,-83 -18,-169 -55,-246z"/>
 </g>
</svg>
