<?xml version="1.0" encoding="UTF-8"?>
<!DOCTYPE svg PUBLIC "-//W3C//DTD SVG 1.1//EN" "http://www.w3.org/Graphics/SVG/1.1/DTD/svg11.dtd">
<!-- Creator: CorelDRAW X8 -->
<svg xmlns="http://www.w3.org/2000/svg" xml:space="preserve" width="1449px" height="600px" version="1.1" style="shape-rendering:geometricPrecision; text-rendering:geometricPrecision; image-rendering:optimizeQuality; fill-rule:evenodd; clip-rule:evenodd"
viewBox="0 0 1449 600"
 xmlns:xlink="http://www.w3.org/1999/xlink">
 <defs>
  <style type="text/css">
   <![CDATA[
    .fil0 {fill:#A82682;fill-rule:nonzero}
   ]]>
  </style>
 </defs>
 <g id="Layer_x0020_1">
  <metadata id="CorelCorpID_0Corel-Layer"/>
  <path class="fil0" d="M571 217l0 348c0,28 -51,35 -71,35 -21,0 -71,-7 -71,-35l0 -348c0,-72 -35,-148 -118,-148 -66,0 -124,58 -147,115 -16,38 -22,80 -21,121 1,87 39,198 127,234 24,9 37,30 13,47 -28,19 -79,17 -109,4 -117,-50 -172,-165 -174,-285 -1,-51 8,-104 31,-151 52,-105 165,-154 280,-154 67,0 137,17 189,60 49,-42 112,-61 177,-60 64,1 126,18 175,61 58,-42 146,-61 217,-61 118,0 232,33 309,126 50,61 72,136 71,214 -1,56 -14,113 -45,161 -44,70 -121,100 -203,99 -77,-1 -152,-26 -197,-91 -27,-39 -40,-86 -40,-133 0,-58 19,-116 55,-161 46,-57 113,-90 185,-103 -37,-27 -87,-44 -134,-43 -88,1 -147,61 -147,148l0 348c0,27 -51,35 -72,35 -20,0 -71,-8 -71,-35l0 -348c0,-60 -31,-148 -104,-148 -74,1 -105,88 -105,148zm630 314c33,0 57,-24 72,-51 22,-39 33,-96 33,-140 0,-55 -13,-117 -43,-164 -47,5 -86,28 -113,66 -27,38 -41,86 -43,132 -1,31 4,64 16,93 14,32 39,64 78,64z"/>
 </g>
</svg>
