<?xml version="1.0" encoding="UTF-8"?>
<!DOCTYPE svg PUBLIC "-//W3C//DTD SVG 1.1//EN" "http://www.w3.org/Graphics/SVG/1.1/DTD/svg11.dtd">
<!-- Creator: CorelDRAW X8 -->
<svg xmlns="http://www.w3.org/2000/svg" xml:space="preserve" width="2380px" height="1024px" version="1.1" style="shape-rendering:geometricPrecision; text-rendering:geometricPrecision; image-rendering:optimizeQuality; fill-rule:evenodd; clip-rule:evenodd"
viewBox="0 0 2380 1024"
 xmlns:xlink="http://www.w3.org/1999/xlink">
 <defs>
  <style type="text/css">
   <![CDATA[
    .fil0 {fill:#A82682;fill-rule:nonzero}
   ]]>
  </style>
 </defs>
 <g id="Layer_x0020_1">
  <metadata id="CorelCorpID_0Corel-Layer"/>
  <path class="fil0" d="M1402 117c94,-83 239,-117 363,-117 192,-1 376,62 497,213 84,106 120,234 118,367 -2,95 -23,195 -74,276 -70,113 -188,169 -321,167 -125,-1 -242,-49 -312,-153 -46,-66 -67,-148 -67,-228 0,-98 32,-198 92,-276 76,-98 189,-155 311,-176 -68,-52 -158,-82 -244,-80 -175,4 -262,119 -262,283l0 574c0,42 -69,56 -101,56 -33,0 -102,-14 -102,-56l0 -599c0,-115 -53,-255 -193,-255 -137,0 -190,142 -190,256l0 599c0,31 -46,56 -102,56 -32,0 -101,-14 -101,-56l0 -599c0,-132 -61,-257 -213,-257 -122,0 -221,95 -263,201 -27,65 -36,138 -35,208 2,148 64,341 214,403 38,16 58,50 20,78 -41,29 -105,27 -150,7 -196,-86 -284,-287 -287,-488 -1,-88 14,-178 52,-258 82,-172 260,-262 449,-262 115,0 232,36 315,116 78,-78 180,-115 291,-116 113,-1 216,37 295,116zm699 176c-87,4 -164,48 -217,116 -51,67 -75,150 -75,233 0,66 15,135 53,190 28,41 72,80 125,80 57,1 100,-47 127,-91 44,-71 62,-159 64,-241 1,-101 -21,-202 -77,-287z"/>
 </g>
</svg>
