<?xml version="1.0" encoding="UTF-8"?>
<!DOCTYPE svg PUBLIC "-//W3C//DTD SVG 1.1//EN" "http://www.w3.org/Graphics/SVG/1.1/DTD/svg11.dtd">
<!-- Creator: CorelDRAW X8 -->
<svg xmlns="http://www.w3.org/2000/svg" xml:space="preserve" width="1332px" height="600px" version="1.1" style="shape-rendering:geometricPrecision; text-rendering:geometricPrecision; image-rendering:optimizeQuality; fill-rule:evenodd; clip-rule:evenodd"
viewBox="0 0 1332 600"
 xmlns:xlink="http://www.w3.org/1999/xlink">
 <defs>
  <style type="text/css">
   <![CDATA[
    .fil0 {fill:#666633;fill-rule:nonzero}
   ]]>
  </style>
 </defs>
 <g id="Layer_x0020_1">
  <metadata id="CorelCorpID_0Corel-Layer"/>
  <path class="fil0" d="M842 66c50,-47 120,-66 189,-66 112,0 220,49 270,153 23,47 32,100 31,152 -2,120 -55,236 -170,286 -26,11 -71,14 -95,-4 -20,-14 -9,-31 11,-39 91,-38 130,-152 131,-243 1,-42 -5,-86 -21,-125 -25,-62 -86,-121 -157,-121 -89,0 -128,77 -128,156l0 355c0,24 -44,30 -61,30 -17,0 -61,-6 -61,-30l0 -355c0,-69 -36,-156 -116,-155 -80,1 -114,88 -114,155l0 356c0,23 -44,29 -61,29 -17,0 -61,-6 -61,-29l0 -356c0,-79 -39,-155 -128,-155 -71,0 -132,58 -157,121 -16,39 -22,82 -21,124 1,92 40,206 131,243 20,8 31,25 11,40 -24,17 -69,15 -95,3 -115,-49 -168,-166 -170,-286 -1,-52 8,-105 31,-152 50,-104 158,-153 270,-153 69,0 139,19 189,67 48,-47 109,-66 175,-67 67,-1 128,19 177,66z"/>
 </g>
</svg>
