<?xml version="1.0" encoding="UTF-8"?>
<!DOCTYPE svg PUBLIC "-//W3C//DTD SVG 1.1//EN" "http://www.w3.org/Graphics/SVG/1.1/DTD/svg11.dtd">
<!-- Creator: CorelDRAW X8 -->
<svg xmlns="http://www.w3.org/2000/svg" xml:space="preserve" width="2263px" height="1486px" version="1.1" style="shape-rendering:geometricPrecision; text-rendering:geometricPrecision; image-rendering:optimizeQuality; fill-rule:evenodd; clip-rule:evenodd"
viewBox="0 0 2263 1486"
 xmlns:xlink="http://www.w3.org/1999/xlink">
 <defs>
  <style type="text/css">
   <![CDATA[
    .fil0 {fill:#A82682;fill-rule:nonzero}
   ]]>
  </style>
 </defs>
 <g id="Layer_x0020_1">
  <metadata id="CorelCorpID_0Corel-Layer"/>
  <path class="fil0" d="M1401 1228c-52,0 -116,5 -165,24 -22,8 -56,26 -57,52 0,27 35,45 56,54 49,18 114,23 166,23 46,0 95,-4 140,-17 26,-7 77,-27 76,-60 0,-32 -49,-51 -75,-59 -45,-13 -94,-17 -141,-17zm103 -855l0 595c0,42 -69,56 -101,56 -33,0 -102,-14 -102,-56l0 -597c0,-116 -53,-257 -193,-257 -137,0 -191,143 -191,258l0 597c0,41 -69,55 -101,55 -33,0 -102,-14 -102,-55l0 -597c0,-133 -61,-259 -212,-259 -123,0 -222,95 -264,202 -27,66 -36,139 -35,210 2,149 64,336 215,400 37,15 58,50 19,78 -41,29 -105,27 -150,7 -196,-87 -284,-283 -287,-485 -1,-89 14,-180 52,-260 82,-173 260,-264 450,-264 115,0 231,36 315,117 77,-79 180,-116 291,-117 108,-1 209,34 287,110 91,-85 199,-111 321,-111 126,0 251,40 345,123 137,121 195,313 201,489 5,138 -15,279 -66,408 -74,186 -211,330 -402,402 -67,25 -140,39 -211,50 -61,9 -123,14 -185,14 -72,1 -149,-7 -218,-25 -72,-19 -190,-69 -189,-157 0,-89 121,-138 194,-157 69,-17 145,-23 216,-23 66,0 132,5 197,20 73,17 195,62 207,147 107,-76 174,-189 212,-312 37,-117 50,-244 44,-366 -6,-133 -43,-286 -129,-391 -52,-65 -131,-110 -216,-110 -159,0 -212,121 -212,261z"/>
 </g>
</svg>
