<?xml version="1.0" encoding="UTF-8"?>
<!DOCTYPE svg PUBLIC "-//W3C//DTD SVG 1.1//EN" "http://www.w3.org/Graphics/SVG/1.1/DTD/svg11.dtd">
<!-- Creator: CorelDRAW X8 -->
<svg xmlns="http://www.w3.org/2000/svg" xml:space="preserve" width="2570px" height="1488px" version="1.1" style="shape-rendering:geometricPrecision; text-rendering:geometricPrecision; image-rendering:optimizeQuality; fill-rule:evenodd; clip-rule:evenodd"
viewBox="0 0 2564 1485"
 xmlns:xlink="http://www.w3.org/1999/xlink">
 <defs>
  <style type="text/css">
   <![CDATA[
    .fil0 {fill:#669933;fill-rule:nonzero}
   ]]>
  </style>
 </defs>
 <g id="Layer_x0020_1">
  <metadata id="CorelCorpID_0Corel-Layer"/>
  <path class="fil0" d="M1823 366l0 610c0,25 -36,46 -81,46 -45,0 -81,-21 -81,-46l0 -611c0,-133 -63,-272 -213,-272 -149,0 -210,143 -210,273l0 611c0,25 -37,45 -82,45 -45,0 -81,-20 -81,-45l0 -611c0,-149 -71,-273 -232,-273 -131,0 -237,95 -283,213 -26,67 -36,142 -35,214 2,158 66,355 222,421 36,15 43,44 16,64 -34,24 -85,21 -122,5 -191,-86 -276,-290 -279,-490 -1,-90 14,-182 51,-260 79,-168 248,-258 430,-258 133,0 244,50 314,131 77,-91 181,-131 291,-132 112,-1 211,40 286,124 88,-95 193,-125 321,-125 123,0 240,41 327,120 127,113 183,283 182,458 0,272 -114,473 -287,617 -248,206 -620,292 -955,290 -316,-2 -695,-69 -959,-255 -221,-157 -357,-387 -363,-674 -4,-219 81,-425 276,-542 31,-18 82,-19 115,-2 33,18 34,46 4,65 -170,100 -236,291 -233,479 4,240 108,441 282,583 233,189 587,254 878,256 329,2 655,-75 861,-274 132,-127 215,-304 217,-543 1,-137 -36,-269 -112,-363 -55,-70 -140,-124 -233,-124 -170,0 -232,122 -232,275z"/>
 </g>
</svg>
