<?xml version="1.0" encoding="UTF-8"?>
<!DOCTYPE svg PUBLIC "-//W3C//DTD SVG 1.1//EN" "http://www.w3.org/Graphics/SVG/1.1/DTD/svg11.dtd">
<!-- Creator: CorelDRAW X8 -->
<svg xmlns="http://www.w3.org/2000/svg" xml:space="preserve" width="1293px" height="825px" version="1.1" style="shape-rendering:geometricPrecision; text-rendering:geometricPrecision; image-rendering:optimizeQuality; fill-rule:evenodd; clip-rule:evenodd"
viewBox="0 0 1293 825"
 xmlns:xlink="http://www.w3.org/1999/xlink">
 <defs>
  <style type="text/css">
   <![CDATA[
    .fil0 {fill:#A82682;fill-rule:nonzero}
   ]]>
  </style>
 </defs>
 <g id="Layer_x0020_1">
  <metadata id="CorelCorpID_0Corel-Layer"/>
  <path class="fil0" d="M506 58c58,-40 142,-58 212,-58 112,0 222,30 299,115 190,40 287,197 275,383 -13,202 -154,324 -357,327 -84,1 -180,-18 -248,-69 -24,-19 -7,-39 16,-47 28,-11 79,-11 104,8 35,27 81,40 125,39 137,-4 210,-137 218,-259 5,-78 -12,-163 -58,-228 4,24 6,48 6,73 -1,56 -14,111 -44,158 -45,71 -121,101 -204,100 -77,-1 -152,-26 -197,-91 -27,-39 -41,-84 -41,-131 0,-58 20,-116 56,-162 45,-58 113,-90 185,-103 -38,-28 -87,-45 -134,-44 -88,2 -148,62 -148,149l0 347c0,28 -50,35 -71,35 -21,0 -72,-7 -72,-35l0 -353c0,-73 -34,-143 -117,-143 -66,0 -124,58 -148,116 -15,38 -21,80 -21,121 2,88 40,197 128,233 23,9 37,29 13,47 -27,19 -78,17 -108,5 -118,-49 -173,-163 -175,-285 -1,-51 8,-104 31,-151 52,-106 165,-155 280,-155 73,0 136,13 195,58zm344 473c33,0 57,-25 72,-52 22,-39 33,-93 33,-138 -1,-55 -13,-117 -43,-164 -47,5 -85,28 -113,66 -27,37 -41,85 -43,130 -1,35 4,70 20,102 14,29 39,56 74,56z"/>
 </g>
</svg>
