<?xml version="1.0" encoding="UTF-8"?>
<!DOCTYPE svg PUBLIC "-//W3C//DTD SVG 1.1//EN" "http://www.w3.org/Graphics/SVG/1.1/DTD/svg11.dtd">
<!-- Creator: CorelDRAW X8 -->
<svg xmlns="http://www.w3.org/2000/svg" xml:space="preserve" width="2596px" height="1486px" version="1.1" style="shape-rendering:geometricPrecision; text-rendering:geometricPrecision; image-rendering:optimizeQuality; fill-rule:evenodd; clip-rule:evenodd"
viewBox="0 0 2596 1486"
 xmlns:xlink="http://www.w3.org/1999/xlink">
 <defs>
  <style type="text/css">
   <![CDATA[
    .fil0 {fill:#A82682;fill-rule:nonzero}
   ]]>
  </style>
 </defs>
 <g id="Layer_x0020_1">
  <metadata id="CorelCorpID_0Corel-Layer"/>
  <path class="fil0" d="M766 924c38,16 58,50 20,78 -39,28 -104,27 -147,8 -198,-85 -287,-284 -290,-488 -2,-88 13,-178 51,-258 83,-173 261,-264 450,-264 116,0 239,30 322,114 88,-82 233,-115 371,-114 82,1 161,14 226,36 73,-25 151,-36 227,-36 183,0 365,81 479,223 83,103 119,233 121,362 5,278 -134,537 -370,689 -259,166 -600,212 -903,212 -292,0 -615,-46 -873,-189 -288,-159 -450,-420 -450,-747 0,-208 76,-410 258,-529 38,-24 102,-25 143,-6 38,18 51,53 12,78 -154,100 -209,284 -211,457 -1,286 138,528 392,669 214,118 486,155 729,155 250,1 536,-36 749,-173 211,-135 323,-371 322,-616 -1,-115 -31,-225 -104,-317 -67,-82 -184,-156 -294,-156 -23,0 -45,2 -68,6 151,113 229,296 229,481 0,85 -17,167 -59,242 -68,123 -189,181 -329,181 -139,1 -259,-58 -327,-180 -42,-75 -59,-159 -59,-243 0,-185 78,-368 229,-481 -23,-4 -46,-6 -69,-6 -172,0 -278,118 -278,285l0 570c0,42 -69,56 -101,56 -32,0 -101,-14 -101,-56l0 -599c0,-135 -61,-256 -213,-256 -122,0 -221,95 -264,202 -26,66 -36,139 -35,210 3,149 64,337 215,400zm1003 -736c-124,95 -184,259 -184,411 0,73 15,146 50,211 27,48 74,101 134,101 61,0 109,-54 136,-102 36,-65 50,-137 50,-210 0,-151 -62,-316 -186,-411z"/>
 </g>
</svg>
