<?xml version="1.0" encoding="UTF-8"?>
<!DOCTYPE svg PUBLIC "-//W3C//DTD SVG 1.1//EN" "http://www.w3.org/Graphics/SVG/1.1/DTD/svg11.dtd">
<!-- Creator: CorelDRAW X8 -->
<svg xmlns="http://www.w3.org/2000/svg" xml:space="preserve" width="1676px" height="1486px" version="1.1" style="shape-rendering:geometricPrecision; text-rendering:geometricPrecision; image-rendering:optimizeQuality; fill-rule:evenodd; clip-rule:evenodd"
viewBox="0 0 1676 1486"
 xmlns:xlink="http://www.w3.org/1999/xlink">
 <defs>
  <style type="text/css">
   <![CDATA[
    .fil0 {fill:#2B2A29;fill-rule:nonzero}
   ]]>
  </style>
 </defs>
 <g id="Layer_x0020_1">
  <metadata id="CorelCorpID_0Corel-Layer"/>
  <path class="fil0" d="M1610 1020c53,-136 66,-264 66,-408 0,-176 -61,-368 -197,-489 -95,-83 -224,-123 -349,-123 -112,0 -231,26 -314,103 -84,-77 -203,-103 -315,-103 -189,0 -367,90 -450,263 -37,78 -51,166 -51,252 0,208 91,409 290,496 20,8 44,13 68,13 29,0 58,-7 79,-22 14,-11 20,-22 20,-33 0,-18 -16,-35 -40,-45 -153,-64 -215,-257 -215,-410 0,-68 10,-137 35,-200 43,-107 142,-202 264,-202 152,0 213,114 213,250l0 606c0,42 69,56 102,56 32,0 101,-14 101,-56l0 -606c0,-136 62,-250 213,-250 85,0 163,45 215,110 86,105 130,258 130,391 0,128 -5,244 -44,366 -39,123 -106,236 -213,312 -12,-85 -134,-130 -207,-147 -64,-15 -131,-20 -196,-20 -72,0 -147,6 -217,23 -73,19 -194,68 -194,157 0,88 117,138 189,157 66,17 138,25 222,25 84,0 172,-8 257,-26 80,-16 154,-42 220,-77 143,-75 252,-194 318,-363zm-795 361c-53,0 -117,-5 -166,-23 -22,-9 -56,-26 -56,-53 0,-27 34,-45 56,-53 49,-19 113,-24 166,-24 46,0 95,4 140,17 26,8 75,27 76,59 0,33 -51,53 -77,60 -45,13 -93,17 -139,17z"/>
 </g>
</svg>
