<?xml version="1.0" encoding="UTF-8"?>
<!DOCTYPE svg PUBLIC "-//W3C//DTD SVG 1.1//EN" "http://www.w3.org/Graphics/SVG/1.1/DTD/svg11.dtd">
<!-- Creator: CorelDRAW X8 -->
<svg xmlns="http://www.w3.org/2000/svg" xml:space="preserve" width="2078px" height="1486px" version="1.1" style="shape-rendering:geometricPrecision; text-rendering:geometricPrecision; image-rendering:optimizeQuality; fill-rule:evenodd; clip-rule:evenodd"
viewBox="0 0 2078 1486"
 xmlns:xlink="http://www.w3.org/1999/xlink">
 <defs>
  <style type="text/css">
   <![CDATA[
    .fil0 {fill:#996633;fill-rule:nonzero}
   ]]>
  </style>
 </defs>
 <g id="Layer_x0020_1">
  <metadata id="CorelCorpID_0Corel-Layer"/>
  <path class="fil0" d="M1156 1374c181,-1 388,-50 534,-159 119,-88 185,-208 185,-355 0,-106 -43,-227 -154,-262 -63,-20 -139,-10 -205,-10 -33,0 -102,-14 -102,-56 0,-42 69,-56 101,-56 61,0 133,4 191,-15 68,-23 100,-79 100,-148 0,-146 -116,-204 -250,-201 -174,5 -279,93 -279,269l0 587c0,42 -69,56 -101,56 -32,0 -102,-14 -102,-56l0 -606c0,-136 -61,-250 -212,-250 -123,0 -222,95 -264,202 -27,66 -36,139 -35,210 2,149 64,336 215,400 23,10 40,27 40,45 0,11 -6,22 -21,33 -21,15 -50,22 -79,22 -24,0 -48,-5 -67,-14 -199,-85 -288,-282 -291,-486 -1,-89 13,-180 52,-261 82,-173 260,-263 450,-263 121,0 230,24 316,114 97,-84 253,-112 377,-113 205,-1 448,72 453,312 2,90 -45,164 -122,211 128,66 192,195 192,336 0,207 -114,360 -289,465 -182,108 -422,159 -632,161 -321,2 -604,-49 -853,-262 -192,-165 -305,-439 -304,-688 1,-203 76,-394 247,-514 21,-15 51,-22 80,-22 23,1 45,5 63,12 21,10 36,25 38,41 2,13 -4,26 -21,38 -147,102 -203,274 -204,445 0,201 78,432 219,579 205,213 448,262 734,259z"/>
 </g>
</svg>
