<?xml version="1.0" encoding="UTF-8"?>
<!DOCTYPE svg PUBLIC "-//W3C//DTD SVG 1.1//EN" "http://www.w3.org/Graphics/SVG/1.1/DTD/svg11.dtd">
<!-- Creator: CorelDRAW X8 -->
<svg xmlns="http://www.w3.org/2000/svg" xml:space="preserve" width="1740px" height="1486px" version="1.1" style="shape-rendering:geometricPrecision; text-rendering:geometricPrecision; image-rendering:optimizeQuality; fill-rule:evenodd; clip-rule:evenodd"
viewBox="0 0 1740 1486"
 xmlns:xlink="http://www.w3.org/1999/xlink">
 <defs>
  <style type="text/css">
   <![CDATA[
    .fil0 {fill:#5B5A50;fill-rule:nonzero}
   ]]>
  </style>
 </defs>
 <g id="Layer_x0020_1">
  <metadata id="CorelCorpID_0Corel-Layer"/>
  <path class="fil0" d="M1073 1228c-52,0 -116,5 -165,23 -21,9 -56,26 -56,53 -1,27 34,45 56,53 49,19 113,24 165,24 47,0 95,-4 140,-17 26,-7 77,-27 77,-60 -1,-32 -50,-52 -76,-59 -45,-13 -94,-17 -141,-17zm-255 -1114c97,-84 252,-112 377,-113 205,-1 448,72 453,312 2,92 -48,168 -128,214 150,74 220,214 220,376 0,116 -27,228 -94,325 -77,113 -194,186 -324,226 -82,25 -163,30 -248,32 -72,1 -152,-7 -222,-26 -72,-19 -189,-68 -189,-156 1,-90 121,-138 194,-157 70,-17 145,-23 216,-23 66,0 133,5 197,20 64,14 155,48 192,106 76,-92 103,-231 92,-346 -13,-130 -80,-271 -217,-308 -59,-16 -120,-8 -181,-8 -33,0 -102,-14 -102,-56 0,-42 69,-56 101,-56 61,0 132,4 190,-15 69,-23 101,-79 101,-148 -1,-146 -116,-204 -250,-201 -174,5 -279,93 -279,269l0 587c0,42 -71,56 -101,56 -33,0 -102,-15 -102,-56l0 -606c0,-136 -61,-250 -212,-250 -123,0 -222,95 -264,202 -27,66 -36,139 -35,209 2,149 64,337 215,401 37,15 57,50 19,78 -39,28 -103,27 -146,8 -199,-86 -288,-282 -291,-486 -1,-89 13,-180 52,-261 82,-173 260,-263 450,-263 121,0 230,24 316,114z"/>
 </g>
</svg>
