<?xml version="1.0" encoding="UTF-8"?>
<!DOCTYPE svg PUBLIC "-//W3C//DTD SVG 1.1//EN" "http://www.w3.org/Graphics/SVG/1.1/DTD/svg11.dtd">
<!-- Creator: CorelDRAW X8 -->
<svg xmlns="http://www.w3.org/2000/svg" xml:space="preserve" width="1352px" height="600px" version="1.1" style="shape-rendering:geometricPrecision; text-rendering:geometricPrecision; image-rendering:optimizeQuality; fill-rule:evenodd; clip-rule:evenodd"
viewBox="0 0 1352 600"
 xmlns:xlink="http://www.w3.org/1999/xlink">
 <defs>
  <style type="text/css">
   <![CDATA[
    .fil0 {fill:#A82682;fill-rule:nonzero}
   ]]>
  </style>
 </defs>
 <g id="Layer_x0020_1">
  <metadata id="CorelCorpID_0Corel-Layer"/>
  <path class="fil0" d="M852 60c52,-43 122,-60 189,-60 115,0 228,48 280,154 23,46 32,99 31,151 -2,120 -57,235 -174,285 -30,13 -81,15 -109,-5 -24,-17 -11,-37 13,-46 88,-36 126,-147 127,-235 1,-40 -5,-82 -21,-120 -23,-57 -81,-115 -147,-115 -83,0 -118,76 -118,147l0 349c0,28 -51,34 -71,34 -21,0 -71,-7 -71,-34l0 -349c0,-60 -32,-147 -106,-146 -73,1 -104,87 -104,147l0 348c0,28 -51,35 -71,35 -21,0 -71,-7 -71,-35l0 -348c0,-72 -35,-148 -118,-148 -66,0 -124,58 -147,115 -16,38 -22,80 -21,121 1,87 39,198 127,234 24,9 37,30 13,47 -28,19 -79,17 -109,4 -117,-50 -172,-165 -174,-285 -1,-51 8,-104 31,-151 52,-105 165,-154 280,-154 67,0 137,17 189,60 49,-42 110,-59 175,-60 65,0 127,17 177,60z"/>
 </g>
</svg>
