<?xml version="1.0" encoding="UTF-8"?>
<!DOCTYPE svg PUBLIC "-//W3C//DTD SVG 1.1//EN" "http://www.w3.org/Graphics/SVG/1.1/DTD/svg11.dtd">
<!-- Creator: CorelDRAW X8 -->
<svg xmlns="http://www.w3.org/2000/svg" xml:space="preserve" width="2121px" height="1412px" version="1.1" style="shape-rendering:geometricPrecision; text-rendering:geometricPrecision; image-rendering:optimizeQuality; fill-rule:evenodd; clip-rule:evenodd"
viewBox="0 0 2121 1412"
 xmlns:xlink="http://www.w3.org/1999/xlink">
 <defs>
  <style type="text/css">
   <![CDATA[
    .fil0 {fill:#996633;fill-rule:nonzero}
   ]]>
  </style>
 </defs>
 <g id="Layer_x0020_1">
  <metadata id="CorelCorpID_0Corel-Layer"/>
  <path class="fil0" d="M917 968c1,42 -68,56 -100,56 -32,0 -101,-14 -102,-56l0 -596c0,-133 -61,-261 -213,-261 -56,0 -107,20 -151,53 -50,37 -90,90 -113,149 -27,66 -36,139 -35,210 2,149 64,338 215,401 24,10 41,27 40,45 0,11 -6,22 -20,33 -22,15 -51,22 -80,22 -24,0 -47,-5 -67,-13 -199,-86 -288,-284 -291,-488 -1,-89 13,-180 52,-260 39,-83 101,-147 175,-191 81,-48 176,-72 275,-72 120,0 236,27 324,112 96,-80 230,-112 353,-112 185,1 361,55 483,196 324,69 477,346 457,657 -20,327 -243,549 -578,559 -139,4 -286,-31 -396,-116 -14,-11 -19,-22 -19,-33 1,-19 20,-36 44,-45 17,-7 38,-10 59,-10 30,0 61,7 82,23 63,50 147,72 228,69 243,-7 364,-233 378,-448 10,-158 -28,-334 -145,-450 17,59 24,120 23,182 -1,96 -22,190 -73,272 -70,113 -188,169 -321,168 -125,-1 -242,-49 -313,-154 -45,-67 -67,-143 -67,-224 0,-98 32,-199 92,-277 76,-99 189,-157 311,-177 -68,-53 -157,-83 -244,-81 -174,3 -263,121 -263,285l0 572zm600 -673c-88,4 -165,48 -217,117 -52,67 -76,151 -76,234 0,66 16,130 54,185 28,42 72,81 125,81 57,1 100,-48 127,-92 44,-71 62,-153 63,-236 1,-101 -20,-203 -76,-289z"/>
 </g>
</svg>
