<?xml version="1.0" encoding="UTF-8"?>
<!DOCTYPE svg PUBLIC "-//W3C//DTD SVG 1.1//EN" "http://www.w3.org/Graphics/SVG/1.1/DTD/svg11.dtd">
<!-- Creator: CorelDRAW X8 -->
<svg xmlns="http://www.w3.org/2000/svg" xml:space="preserve" width="1670px" height="1024px" version="1.1" style="shape-rendering:geometricPrecision; text-rendering:geometricPrecision; image-rendering:optimizeQuality; fill-rule:evenodd; clip-rule:evenodd"
viewBox="0 0 1670 1024"
 xmlns:xlink="http://www.w3.org/1999/xlink">
 <defs>
  <style type="text/css">
   <![CDATA[
    .fil0 {fill:#996633;fill-rule:nonzero}
   ]]>
  </style>
 </defs>
 <g id="Layer_x0020_1">
  <metadata id="CorelCorpID_0Corel-Layer"/>
  <path class="fil0" d="M818 113c97,-83 252,-111 377,-112 205,-1 448,72 453,310 2,90 -47,170 -124,218 88,42 147,125 146,222 -2,195 -205,272 -377,273 -80,0 -161,-15 -235,-46 -25,-10 -42,-28 -41,-47 1,-10 7,-20 20,-30 20,-15 50,-22 79,-22 22,-1 45,3 62,10 36,15 77,24 116,24 100,0 175,-60 173,-162 -1,-63 -40,-121 -101,-145 -64,-25 -145,-17 -214,-18 -32,-1 -99,-15 -99,-56 1,-42 70,-55 103,-55 64,0 151,7 209,-21 54,-27 81,-88 81,-145 -1,-145 -116,-203 -250,-199 -174,4 -279,92 -279,267l0 589c0,43 -71,56 -101,56 -33,0 -102,-14 -102,-56l0 -608c0,-135 -61,-249 -212,-249 -123,0 -222,94 -264,201 -27,65 -36,138 -35,208 2,148 64,342 215,404 23,10 39,26 40,44 0,11 -6,23 -21,34 -21,15 -49,22 -78,22 -24,0 -48,-5 -68,-13 -199,-86 -288,-288 -291,-491 -1,-88 13,-178 52,-258 82,-172 260,-262 450,-262 121,0 230,24 316,113z"/>
 </g>
</svg>
