<?xml version="1.0" encoding="UTF-8"?>
<!DOCTYPE svg PUBLIC "-//W3C//DTD SVG 1.1//EN" "http://www.w3.org/Graphics/SVG/1.1/DTD/svg11.dtd">
<!-- Creator: CorelDRAW X8 -->
<svg xmlns="http://www.w3.org/2000/svg" xml:space="preserve" width="2808px" height="1024px" version="1.1" style="shape-rendering:geometricPrecision; text-rendering:geometricPrecision; image-rendering:optimizeQuality; fill-rule:evenodd; clip-rule:evenodd"
viewBox="0 0 2808 1024"
 xmlns:xlink="http://www.w3.org/1999/xlink">
 <defs>
  <style type="text/css">
   <![CDATA[
    .fil0 {fill:#2B2A29;fill-rule:nonzero}
   ]]>
  </style>
 </defs>
 <g id="Layer_x0020_1">
  <metadata id="CorelCorpID_0Corel-Layer"/>
  <path class="fil0" d="M2306 1024c190,0 368,-90 450,-262 38,-77 52,-161 52,-246 0,-207 -92,-417 -291,-502 -20,-9 -44,-14 -69,-14 -28,0 -56,7 -77,22 -15,11 -21,22 -21,33 0,18 17,35 40,45 153,64 215,263 215,416 0,67 -9,134 -35,196 -42,107 -141,201 -264,201 -152,0 -212,-121 -212,-254l0 -603c0,-42 -70,-56 -102,-56 -32,0 -101,14 -101,56l0 603c0,122 -49,254 -194,254 -78,0 -136,-72 -160,-139 -32,-87 -32,-180 -32,-270 -2,-93 -2,-186 -36,-275 -54,-152 -203,-229 -363,-229 -103,0 -218,29 -295,102 -77,-70 -189,-102 -301,-102 -102,0 -205,26 -283,72 -160,95 -227,260 -227,437 0,210 89,415 291,502 20,8 44,13 68,13 28,0 57,-7 78,-22 15,-11 21,-22 21,-33 0,-18 -17,-35 -40,-45 -154,-63 -215,-262 -215,-415 0,-129 38,-265 148,-346 52,-39 105,-56 152,-56 119,0 211,106 211,259l0 602c0,42 70,56 102,56 32,0 101,-14 101,-56l0 -602c0,-121 45,-255 189,-255 79,0 140,73 165,140 30,81 32,168 32,253 2,99 0,197 36,291 54,153 198,229 358,229 105,0 222,-27 300,-101 83,75 199,101 309,101z"/>
 </g>
</svg>
