<?xml version="1.0" encoding="UTF-8"?>
<!DOCTYPE svg PUBLIC "-//W3C//DTD SVG 1.1//EN" "http://www.w3.org/Graphics/SVG/1.1/DTD/svg11.dtd">
<!-- Creator: CorelDRAW X8 -->
<svg xmlns="http://www.w3.org/2000/svg" xml:space="preserve" width="2609px" height="1486px" version="1.1" style="shape-rendering:geometricPrecision; text-rendering:geometricPrecision; image-rendering:optimizeQuality; fill-rule:evenodd; clip-rule:evenodd"
viewBox="0 0 2609 1486"
 xmlns:xlink="http://www.w3.org/1999/xlink">
 <defs>
  <style type="text/css">
   <![CDATA[
    .fil0 {fill:#996633;fill-rule:nonzero}
   ]]>
  </style>
 </defs>
 <g id="Layer_x0020_1">
  <metadata id="CorelCorpID_0Corel-Layer"/>
  <path class="fil0" d="M1866 372l0 596c0,42 -69,56 -101,56 -32,0 -101,-14 -101,-56l0 -597c0,-117 -54,-257 -194,-257 -137,0 -190,143 -190,258l0 597c0,41 -69,56 -102,56 -32,0 -101,-15 -101,-56l0 -597c0,-134 -61,-259 -213,-259 -122,0 -221,95 -264,202 -26,66 -36,138 -34,209 2,149 63,338 214,401 23,9 40,26 40,43 1,12 -5,24 -20,35 -21,15 -48,21 -75,22 -26,0 -53,-5 -75,-15 -196,-87 -284,-284 -287,-486 -1,-88 13,-179 52,-260 82,-172 260,-263 449,-263 116,0 232,36 315,117 78,-79 180,-116 291,-117 109,-1 210,34 288,110 90,-85 199,-111 321,-111 125,0 250,40 345,123 131,116 186,287 185,458 -1,247 -97,456 -291,614 -259,212 -644,292 -974,291 -323,-2 -707,-69 -976,-255 -230,-160 -362,-392 -368,-671 -4,-222 84,-426 282,-542 20,-12 48,-18 75,-18 24,0 49,5 68,15 21,11 32,26 32,41 0,13 -9,27 -27,38 -166,97 -231,284 -228,466 4,226 101,425 280,568 228,183 575,245 862,247 291,2 629,-59 846,-264 150,-143 213,-328 215,-530 1,-123 -31,-256 -111,-354 -51,-63 -130,-115 -215,-115 -159,0 -213,121 -213,260z"/>
 </g>
</svg>
