<?xml version="1.0" encoding="UTF-8"?>
<!DOCTYPE svg PUBLIC "-//W3C//DTD SVG 1.1//EN" "http://www.w3.org/Graphics/SVG/1.1/DTD/svg11.dtd">
<!-- Creator: CorelDRAW X8 -->
<svg xmlns="http://www.w3.org/2000/svg" xml:space="preserve" width="2078px" height="1486px" version="1.1" style="shape-rendering:geometricPrecision; text-rendering:geometricPrecision; image-rendering:optimizeQuality; fill-rule:evenodd; clip-rule:evenodd"
viewBox="0 0 2078 1486"
 xmlns:xlink="http://www.w3.org/1999/xlink">
 <defs>
  <style type="text/css">
   <![CDATA[
    .fil0 {fill:#A82682;fill-rule:nonzero}
   ]]>
  </style>
 </defs>
 <g id="Layer_x0020_1">
  <metadata id="CorelCorpID_0Corel-Layer"/>
  <path class="fil0" d="M1156 1374c181,-1 388,-50 534,-159 119,-88 185,-207 185,-355 0,-106 -43,-226 -154,-262 -63,-20 -139,-10 -205,-10 -32,0 -102,-14 -102,-56 0,-42 69,-56 101,-56 62,0 133,4 191,-15 68,-23 100,-79 100,-148 0,-146 -116,-204 -250,-201 -174,5 -279,93 -279,269l0 587c0,42 -69,56 -101,56 -32,0 -102,-14 -102,-56l0 -606c0,-136 -61,-250 -212,-250 -123,0 -222,95 -264,202 -27,66 -36,139 -35,210 2,149 64,337 215,400 38,16 57,50 19,78 -39,28 -103,27 -146,9 -199,-86 -288,-283 -291,-487 -1,-89 13,-180 52,-261 82,-173 260,-263 450,-263 121,0 230,24 316,114 97,-84 253,-112 377,-113 205,-1 448,72 453,312 2,90 -45,164 -122,211 128,66 192,196 192,336 0,207 -113,361 -289,465 -182,108 -422,159 -632,161 -321,3 -604,-48 -853,-262 -192,-165 -305,-439 -304,-688 0,-203 76,-394 247,-514 37,-26 102,-27 143,-10 38,17 56,52 17,79 -147,102 -203,274 -204,445 0,201 78,432 219,579 205,213 448,262 734,259z"/>
 </g>
</svg>
