<?xml version="1.0" encoding="UTF-8"?>
<!DOCTYPE svg PUBLIC "-//W3C//DTD SVG 1.1//EN" "http://www.w3.org/Graphics/SVG/1.1/DTD/svg11.dtd">
<!-- Creator: CorelDRAW X8 -->
<svg xmlns="http://www.w3.org/2000/svg" xml:space="preserve" width="2213px" height="1024px" version="1.1" style="shape-rendering:geometricPrecision; text-rendering:geometricPrecision; image-rendering:optimizeQuality; fill-rule:evenodd; clip-rule:evenodd"
viewBox="0 0 2213 1024"
 xmlns:xlink="http://www.w3.org/1999/xlink">
 <defs>
  <style type="text/css">
   <![CDATA[
    .fil0 {fill:#996633;fill-rule:nonzero}
   ]]>
  </style>
 </defs>
 <g id="Layer_x0020_1">
  <metadata id="CorelCorpID_0Corel-Layer"/>
  <path class="fil0" d="M418 925c22,9 39,25 40,43 1,11 -5,23 -21,34 -21,15 -49,22 -77,22 -25,0 -49,-5 -69,-13 -199,-86 -288,-289 -291,-492 -1,-88 13,-177 52,-257 82,-172 260,-262 450,-262 116,0 239,29 322,113 89,-82 232,-115 370,-113 81,1 161,14 227,36 71,-25 151,-36 227,-36 204,0 400,99 495,278 48,89 70,191 70,291 0,165 -62,338 -212,427 -29,17 -63,28 -96,28 -24,0 -48,-6 -70,-18 -18,-11 -27,-24 -27,-38 0,-15 11,-30 32,-41 126,-64 171,-229 171,-358 0,-89 -20,-181 -62,-260 -57,-106 -174,-198 -301,-198 -23,0 -46,2 -69,6 103,77 173,187 206,309 15,56 23,112 23,169 0,84 -18,175 -59,249 -68,122 -188,180 -327,180 -140,0 -261,-58 -329,-180 -42,-75 -59,-164 -59,-249 0,-57 7,-114 22,-169 33,-119 104,-235 207,-309 -23,-4 -46,-6 -69,-6 -173,1 -277,117 -277,283l0 574c0,41 -69,55 -101,55 -33,0 -102,-14 -102,-55l0 -602c0,-134 -60,-255 -212,-255 -123,0 -222,95 -264,201 -27,66 -36,138 -35,208 2,148 64,342 215,405zm1003 -738c-83,63 -137,157 -164,255 -14,50 -21,102 -21,153 0,73 14,151 50,216 27,48 75,102 136,102 60,0 107,-53 133,-101 36,-64 50,-144 50,-217 0,-51 -7,-103 -21,-153 -27,-98 -80,-192 -163,-255z"/>
 </g>
</svg>
