<?xml version="1.0" encoding="UTF-8"?>
<!DOCTYPE svg PUBLIC "-//W3C//DTD SVG 1.1//EN" "http://www.w3.org/Graphics/SVG/1.1/DTD/svg11.dtd">
<!-- Creator: CorelDRAW X8 -->
<svg xmlns="http://www.w3.org/2000/svg" xml:space="preserve" width="1424px" height="1012px" version="1.1" style="shape-rendering:geometricPrecision; text-rendering:geometricPrecision; image-rendering:optimizeQuality; fill-rule:evenodd; clip-rule:evenodd"
viewBox="0 0 1424 1012"
 xmlns:xlink="http://www.w3.org/1999/xlink">
 <defs>
  <style type="text/css">
   <![CDATA[
    .fil0 {fill:#A82682;fill-rule:nonzero}
   ]]>
  </style>
 </defs>
 <g id="Layer_x0020_1">
  <metadata id="CorelCorpID_0Corel-Layer"/>
  <path class="fil0" d="M302 913c38,17 55,51 15,78 -40,28 -104,26 -148,6 -108,-50 -169,-150 -169,-266 0,-200 187,-303 372,-303 185,0 369,104 369,303 0,56 -13,111 -43,158l523 0 0 -834c0,-41 69,-55 102,-55 32,0 101,14 101,55l0 890c0,41 -69,55 -101,55l-797 0c-32,0 -101,-14 -101,-55 0,-18 14,-31 28,-39 62,-35 85,-109 85,-175 0,-95 -60,-192 -166,-192 -107,0 -169,96 -169,192 0,70 29,152 99,182z"/>
 </g>
</svg>
