<?xml version="1.0" encoding="UTF-8"?>
<!DOCTYPE svg PUBLIC "-//W3C//DTD SVG 1.1//EN" "http://www.w3.org/Graphics/SVG/1.1/DTD/svg11.dtd">
<!-- Creator: CorelDRAW X8 -->
<svg xmlns="http://www.w3.org/2000/svg" xml:space="preserve" width="887px" height="780px" version="1.1" style="shape-rendering:geometricPrecision; text-rendering:geometricPrecision; image-rendering:optimizeQuality; fill-rule:evenodd; clip-rule:evenodd"
viewBox="0 0 887 780"
 xmlns:xlink="http://www.w3.org/1999/xlink">
 <defs>
  <style type="text/css">
   <![CDATA[
    .fil0 {fill:#A82682;fill-rule:nonzero}
   ]]>
  </style>
 </defs>
 <g id="Layer_x0020_1">
  <metadata id="CorelCorpID_0Corel-Layer"/>
  <path class="fil0" d="M201 720c24,10 35,30 10,46 -28,19 -79,17 -108,4 -65,-29 -103,-86 -103,-155 0,-122 123,-177 233,-177 111,1 233,55 233,178 0,31 -8,62 -24,89l242 0 0 -593c60,-38 142,-75 203,-112l0 739c0,27 -52,34 -72,34l-488 0c-21,0 -71,-7 -72,-34 0,-8 6,-17 18,-23 36,-20 50,-62 50,-100 0,-52 -29,-109 -89,-109 -60,0 -91,56 -91,108 0,41 18,88 58,105z"/>
 </g>
</svg>
