<?xml version="1.0" encoding="UTF-8"?>
<!DOCTYPE svg PUBLIC "-//W3C//DTD SVG 1.1//EN" "http://www.w3.org/Graphics/SVG/1.1/DTD/svg11.dtd">
<!-- Creator: CorelDRAW X8 -->
<svg xmlns="http://www.w3.org/2000/svg" xml:space="preserve" width="1095px" height="868px" version="1.1" style="shape-rendering:geometricPrecision; text-rendering:geometricPrecision; image-rendering:optimizeQuality; fill-rule:evenodd; clip-rule:evenodd"
viewBox="0 0 1095 868"
 xmlns:xlink="http://www.w3.org/1999/xlink">
 <defs>
  <style type="text/css">
   <![CDATA[
    .fil0 {fill:#A82682;fill-rule:nonzero}
   ]]>
  </style>
 </defs>
 <g id="Layer_x0020_1">
  <metadata id="CorelCorpID_0Corel-Layer"/>
  <path class="fil0" d="M421 532c23,10 34,31 9,47 -27,18 -78,17 -108,4 -64,-29 -103,-85 -103,-155 1,-124 123,-178 233,-177 111,0 233,53 233,177 0,32 -7,61 -24,89l291 0 0 -482c0,-28 51,-35 72,-35 20,0 71,7 71,35l0 546c0,79 -37,142 -102,188 -105,76 -270,100 -397,99 -159,-1 -333,-38 -453,-148 -97,-88 -142,-205 -143,-334 -1,-148 62,-297 196,-374 27,-15 77,-15 105,-2 24,12 28,33 3,48 -115,66 -162,202 -162,328 1,93 26,184 84,259 88,113 232,153 372,153 97,1 224,-19 297,-89 34,-33 52,-76 56,-123l-405 0c-21,0 -72,-7 -72,-35 1,-9 7,-17 18,-23 36,-20 51,-61 51,-100 0,-52 -30,-108 -90,-108 -59,0 -91,54 -91,107 0,42 18,87 59,105z"/>
 </g>
</svg>
