<?xml version="1.0" encoding="UTF-8"?>
<!DOCTYPE svg PUBLIC "-//W3C//DTD SVG 1.1//EN" "http://www.w3.org/Graphics/SVG/1.1/DTD/svg11.dtd">
<!-- Creator: CorelDRAW X8 -->
<svg xmlns="http://www.w3.org/2000/svg" xml:space="preserve" width="1790px" height="1486px" version="1.1" style="shape-rendering:geometricPrecision; text-rendering:geometricPrecision; image-rendering:optimizeQuality; fill-rule:evenodd; clip-rule:evenodd"
viewBox="0 0 1790 1486"
 xmlns:xlink="http://www.w3.org/1999/xlink">
 <defs>
  <style type="text/css">
   <![CDATA[
    .fil0 {fill:#996633;fill-rule:nonzero}
   ]]>
  </style>
 </defs>
 <g id="Layer_x0020_1">
  <metadata id="CorelCorpID_0Corel-Layer"/>
  <path class="fil0" d="M0 660c-2,-250 100,-508 325,-641 20,-12 46,-18 72,-18 26,-1 51,4 71,15 20,10 31,24 32,39 1,14 -7,28 -27,39 -194,116 -272,352 -271,566 1,175 51,349 170,483 151,170 380,230 606,231 169,0 389,-34 513,-157 58,-58 88,-137 94,-217l-693 0c-32,0 -101,-14 -101,-56 0,-18 14,-31 28,-40 62,-35 86,-104 86,-171 0,-96 -60,-190 -167,-190 -106,0 -169,93 -169,190 0,70 29,148 99,179 21,9 35,24 37,40 2,13 -4,27 -22,39 -40,27 -105,26 -148,5 -108,-50 -169,-146 -169,-264 0,-200 186,-301 371,-301 185,0 371,101 371,302 0,56 -14,107 -44,155l523 0 0 -832c0,-42 70,-56 102,-56 32,0 101,14 101,56l0 939c0,136 -59,243 -168,324 -171,126 -438,168 -646,167 -263,-1 -543,-67 -738,-251 -163,-153 -236,-355 -238,-575z"/>
 </g>
</svg>
