<?xml version="1.0" encoding="UTF-8"?>
<!DOCTYPE svg PUBLIC "-//W3C//DTD SVG 1.1//EN" "http://www.w3.org/Graphics/SVG/1.1/DTD/svg11.dtd">
<!-- Creator: CorelDRAW X8 -->
<svg xmlns="http://www.w3.org/2000/svg" xml:space="preserve" width="1798px" height="1012px" version="1.1" style="shape-rendering:geometricPrecision; text-rendering:geometricPrecision; image-rendering:optimizeQuality; fill-rule:evenodd; clip-rule:evenodd"
viewBox="0 0 1798 1012"
 xmlns:xlink="http://www.w3.org/1999/xlink">
 <defs>
  <style type="text/css">
   <![CDATA[
    .fil0 {fill:#A82682;fill-rule:nonzero}
   ]]>
  </style>
 </defs>
 <g id="Layer_x0020_1">
  <metadata id="CorelCorpID_0Corel-Layer"/>
  <path class="fil0" d="M882 395c0,-251 209,-395 451,-395 240,0 465,150 465,401l0 544c0,41 -69,55 -101,55l-1171 0c-32,0 -101,-14 -101,-55 0,-18 14,-31 28,-39 62,-36 85,-109 85,-175 0,-95 -60,-192 -166,-192 -107,0 -169,96 -169,192 0,70 29,151 99,182 38,17 54,52 15,78 -40,27 -104,26 -147,7 -109,-50 -170,-150 -170,-268 0,-200 187,-302 372,-302 185,0 369,104 369,303 0,56 -13,110 -43,158l184 0 0 -494zm202 0l0 494 512 0 0 -488c0,-152 -101,-290 -265,-290 -163,0 -247,137 -247,284z"/>
 </g>
</svg>
