<?xml version="1.0" encoding="UTF-8"?>
<!DOCTYPE svg PUBLIC "-//W3C//DTD SVG 1.1//EN" "http://www.w3.org/Graphics/SVG/1.1/DTD/svg11.dtd">
<!-- Creator: CorelDRAW X8 -->
<svg xmlns="http://www.w3.org/2000/svg" xml:space="preserve" width="1072px" height="593px" version="1.1" style="shape-rendering:geometricPrecision; text-rendering:geometricPrecision; image-rendering:optimizeQuality; fill-rule:evenodd; clip-rule:evenodd"
viewBox="0 0 1072 593"
 xmlns:xlink="http://www.w3.org/1999/xlink">
 <defs>
  <style type="text/css">
   <![CDATA[
    .fil0 {fill:#666633;fill-rule:nonzero}
   ]]>
  </style>
 </defs>
 <g id="Layer_x0020_1">
  <metadata id="CorelCorpID_0Corel-Layer"/>
  <path class="fil0" d="M529 231c0,-152 125,-231 266,-231 139,0 277,80 277,234l0 322c0,24 -44,30 -61,30l-695 0c-18,0 -35,-4 -46,-10 -21,-11 -20,-29 0,-40 38,-21 53,-64 53,-106 0,-77 -49,-117 -99,-117 -51,0 -101,40 -101,117 0,44 19,93 62,111 20,9 29,26 8,40 -24,16 -69,15 -94,3 -63,-29 -99,-86 -99,-154 0,-122 116,-176 223,-176 107,0 223,55 223,176 0,35 -9,68 -29,97l112 0 0 -296zm123 0l0 296 298 0 0 -293c0,-91 -60,-175 -155,-175 -95,0 -143,84 -143,172z"/>
 </g>
</svg>
