<?xml version="1.0" encoding="UTF-8"?>
<!DOCTYPE svg PUBLIC "-//W3C//DTD SVG 1.1//EN" "http://www.w3.org/Graphics/SVG/1.1/DTD/svg11.dtd">
<!-- Creator: CorelDRAW X8 -->
<svg xmlns="http://www.w3.org/2000/svg" xml:space="preserve" width="2162px" height="1486px" version="1.1" style="shape-rendering:geometricPrecision; text-rendering:geometricPrecision; image-rendering:optimizeQuality; fill-rule:evenodd; clip-rule:evenodd"
viewBox="0 0 2162 1486"
 xmlns:xlink="http://www.w3.org/1999/xlink">
 <defs>
  <style type="text/css">
   <![CDATA[
    .fil0 {fill:#5B5A50;fill-rule:nonzero}
   ]]>
  </style>
 </defs>
 <g id="Layer_x0020_1">
  <metadata id="CorelCorpID_0Corel-Layer"/>
  <path class="fil0" d="M2162 995c0,161 -104,273 -240,346 -197,106 -506,145 -728,145 -369,-1 -820,-89 -1048,-404 -97,-134 -145,-301 -146,-464 -2,-230 79,-466 281,-598 37,-25 102,-26 142,-7 39,18 52,53 12,79 -174,114 -234,330 -233,526 2,129 33,267 101,378 180,296 567,380 894,379 184,-1 462,-31 617,-136 81,-55 143,-139 144,-239l-1068 0c-32,0 -102,-14 -102,-56 0,-18 15,-32 29,-40 61,-35 85,-104 85,-171 0,-96 -60,-191 -166,-191 -107,0 -170,94 -170,191 0,70 30,148 99,179 39,17 55,52 16,78 -40,28 -104,27 -147,7 -109,-50 -171,-147 -170,-265 0,-201 187,-302 372,-301 185,0 369,102 369,302 0,56 -13,107 -43,155l184 0 0 -491c0,-122 47,-216 120,-281 89,-80 212,-116 331,-116 117,0 234,37 322,107 93,74 143,178 143,297l0 591zm-714 -598l0 491 511 0 1 -484c0,-82 -26,-162 -87,-220 -48,-46 -112,-72 -178,-72 -65,0 -130,25 -177,78 -43,47 -70,116 -70,207z"/>
 </g>
</svg>
