<?xml version="1.0" encoding="UTF-8"?>
<!DOCTYPE svg PUBLIC "-//W3C//DTD SVG 1.1//EN" "http://www.w3.org/Graphics/SVG/1.1/DTD/svg11.dtd">
<!-- Creator: CorelDRAW X8 -->
<svg xmlns="http://www.w3.org/2000/svg" xml:space="preserve" width="2518px" height="1486px" version="1.1" style="shape-rendering:geometricPrecision; text-rendering:geometricPrecision; image-rendering:optimizeQuality; fill-rule:evenodd; clip-rule:evenodd"
viewBox="0 0 2518 1486"
 xmlns:xlink="http://www.w3.org/1999/xlink">
 <defs>
  <style type="text/css">
   <![CDATA[
    .fil0 {fill:#A82682;fill-rule:nonzero}
   ]]>
  </style>
 </defs>
 <g id="Layer_x0020_1">
  <metadata id="CorelCorpID_0Corel-Layer"/>
  <path class="fil0" d="M353 543c0,-94 18,-188 61,-272 92,-183 280,-269 481,-270 137,-1 288,24 392,119 80,-90 209,-122 326,-120 295,4 479,225 475,506 -2,143 -47,278 -148,383l375 0 0 -832c0,-42 69,-56 101,-56 33,0 102,14 102,56l0 938c0,186 -138,296 -299,364 -262,110 -616,127 -899,127 -293,0 -625,-39 -885,-179 -296,-160 -433,-415 -435,-743 -1,-216 98,-423 282,-544 38,-24 102,-25 143,-6 39,18 51,53 12,79 -156,101 -235,291 -234,471 0,261 92,484 320,629 226,145 533,181 797,181 246,0 598,-14 816,-129 96,-51 171,-132 178,-244l-579 0c-32,0 -108,-14 -105,-58 2,-17 18,-33 40,-43 151,-63 213,-244 215,-394 3,-155 -84,-392 -272,-395 -150,-2 -216,127 -216,258l0 599c0,41 -68,55 -101,55 -32,0 -101,-14 -101,-56l0 -575c0,-179 -122,-281 -299,-281 -133,1 -237,85 -293,199 -24,47 -39,99 -46,151 54,-49 122,-73 195,-76 98,-3 201,31 269,102 59,61 83,140 81,224 -3,89 -37,173 -109,231 -66,54 -155,80 -240,81 -89,1 -169,-23 -238,-79 -118,-96 -163,-255 -162,-401zm245 167c0,92 46,201 155,201 107,1 154,-111 154,-200 0,-91 -45,-209 -154,-209 -108,0 -155,118 -155,208z"/>
 </g>
</svg>
