<?xml version="1.0" encoding="UTF-8"?>
<!DOCTYPE svg PUBLIC "-//W3C//DTD SVG 1.1//EN" "http://www.w3.org/Graphics/SVG/1.1/DTD/svg11.dtd">
<!-- Creator: CorelDRAW X8 -->
<svg xmlns="http://www.w3.org/2000/svg" xml:space="preserve" width="1099px" height="1024px" version="1.1" style="shape-rendering:geometricPrecision; text-rendering:geometricPrecision; image-rendering:optimizeQuality; fill-rule:evenodd; clip-rule:evenodd"
viewBox="0 0 1099 1024"
 xmlns:xlink="http://www.w3.org/1999/xlink">
 <defs>
  <style type="text/css">
   <![CDATA[
    .fil0 {fill:#996633;fill-rule:nonzero}
   ]]>
  </style>
 </defs>
 <g id="Layer_x0020_1">
  <metadata id="CorelCorpID_0Corel-Layer"/>
  <path class="fil0" d="M454 972c-24,-10 -40,-27 -39,-45 1,-11 7,-23 22,-33 22,-15 55,-22 86,-21 20,1 40,5 56,12 51,22 119,26 175,26 72,0 147,-40 147,-119 -1,-35 -19,-61 -53,-72 -51,-16 -117,13 -198,13 -50,0 -97,-11 -136,-33 -61,-34 -102,-93 -105,-176 -2,-74 26,-142 93,-182 42,-25 86,-32 131,-32 63,1 127,18 190,27 42,5 70,-2 77,-47 19,-135 -198,-183 -299,-179 -267,10 -396,215 -398,458 -2,135 42,271 129,376 7,8 10,16 10,23 0,25 -35,44 -60,51 -13,3 -28,5 -42,5 -38,0 -75,-11 -99,-41 -93,-116 -141,-267 -141,-414 1,-347 253,-569 602,-569 186,0 495,51 488,291 -5,151 -152,183 -278,165 -48,-6 -117,-27 -161,-16 -39,9 -58,47 -56,84 1,34 21,69 57,80 68,19 163,-16 240,-12 116,5 206,82 207,199 1,168 -180,219 -320,230 -105,8 -229,-7 -325,-49z"/>
 </g>
</svg>
