<?xml version="1.0" encoding="UTF-8"?>
<!DOCTYPE svg PUBLIC "-//W3C//DTD SVG 1.1//EN" "http://www.w3.org/Graphics/SVG/1.1/DTD/svg11.dtd">
<!-- Creator: CorelDRAW X8 -->
<svg xmlns="http://www.w3.org/2000/svg" xml:space="preserve" width="680px" height="600px" version="1.1" style="shape-rendering:geometricPrecision; text-rendering:geometricPrecision; image-rendering:optimizeQuality; fill-rule:evenodd; clip-rule:evenodd"
viewBox="0 0 680 600"
 xmlns:xlink="http://www.w3.org/1999/xlink">
 <defs>
  <style type="text/css">
   <![CDATA[
    .fil0 {fill:#A82682;fill-rule:nonzero}
   ]]>
  </style>
 </defs>
 <g id="Layer_x0020_1">
  <metadata id="CorelCorpID_0Corel-Layer"/>
  <path class="fil0" d="M293 568c-23,-9 -35,-30 -11,-46 26,-18 74,-18 103,-6 28,11 48,14 77,14 40,0 78,-26 78,-67 0,-44 -36,-43 -69,-38 -25,3 -48,6 -70,6 -31,0 -60,-5 -91,-20 -40,-20 -63,-60 -65,-104 -1,-44 17,-84 57,-106 27,-16 57,-21 87,-21 28,0 58,5 86,10 26,5 59,18 65,-20 11,-74 -111,-103 -168,-101 -151,5 -228,125 -230,264 -1,79 26,158 78,219 19,22 -13,39 -33,44 -33,8 -79,6 -102,-22 -56,-67 -85,-155 -85,-241 0,-213 164,-333 372,-333 109,0 307,27 302,171 -1,34 -14,57 -33,73 -25,19 -61,27 -97,28 -27,0 -53,-2 -79,-7 -15,-3 -43,-9 -57,-6 -21,5 -31,28 -30,48 1,19 12,39 32,45 17,5 40,2 63,-2 25,-4 49,-7 75,-6 70,3 132,44 132,118 1,102 -116,130 -199,136 -67,5 -126,-4 -188,-30z"/>
 </g>
</svg>
