<?xml version="1.0" encoding="UTF-8"?>
<!DOCTYPE svg PUBLIC "-//W3C//DTD SVG 1.1//EN" "http://www.w3.org/Graphics/SVG/1.1/DTD/svg11.dtd">
<!-- Creator: CorelDRAW X8 -->
<svg xmlns="http://www.w3.org/2000/svg" xml:space="preserve" width="1155px" height="1486px" version="1.1" style="shape-rendering:geometricPrecision; text-rendering:geometricPrecision; image-rendering:optimizeQuality; fill-rule:evenodd; clip-rule:evenodd"
viewBox="0 0 1155 1487"
 xmlns:xlink="http://www.w3.org/1999/xlink">
 <defs>
  <style type="text/css">
   <![CDATA[
    .fil0 {fill:#996633;fill-rule:nonzero}
   ]]>
  </style>
 </defs>
 <g id="Layer_x0020_1">
  <metadata id="CorelCorpID_0Corel-Layer"/>
  <path class="fil0" d="M472 1388c58,0 129,-4 182,-27 34,-16 59,-42 57,-81 -1,-41 -44,-59 -81,-59 -47,0 -67,42 -67,83 0,41 -58,52 -90,52 -32,0 -91,-11 -91,-52 -1,-40 -20,-83 -67,-83 -36,0 -80,18 -82,59 -1,39 23,65 58,81 52,23 124,27 181,27zm-158 -263c53,0 112,10 158,34 47,-24 106,-34 159,-34 57,0 126,11 175,42 36,22 67,54 73,97 72,-79 103,-211 99,-314 -3,-62 -20,-138 -65,-184 -23,-23 -53,-43 -87,-45 -71,-4 -119,15 -175,16 -49,1 -97,-11 -136,-34 -61,-36 -103,-98 -106,-178 -2,-75 27,-144 93,-183 40,-24 81,-32 123,-33 65,-1 133,18 199,27 42,6 68,-1 76,-48 10,-55 -23,-101 -69,-129 -65,-39 -155,-50 -230,-47 -264,10 -396,213 -398,461 -2,136 42,274 129,379 7,8 10,15 10,22 1,26 -35,45 -60,52 -14,3 -29,5 -44,5 -36,0 -73,-12 -96,-41 -93,-117 -142,-269 -142,-417 1,-354 258,-573 602,-573 128,0 298,23 400,105 60,48 90,108 88,185 -5,152 -152,184 -278,166 -48,-6 -116,-27 -161,-16 -38,9 -57,47 -56,84 2,35 22,71 57,81 54,15 116,-3 171,-8 115,-12 221,41 280,140 39,66 54,150 52,226 -8,214 -126,379 -322,463 -108,46 -244,61 -361,61 -83,-1 -176,-9 -255,-37 -71,-25 -153,-88 -152,-170 1,-49 33,-88 74,-113 49,-31 118,-42 175,-42z"/>
 </g>
</svg>
