<?xml version="1.0" encoding="UTF-8"?>
<!DOCTYPE svg PUBLIC "-//W3C//DTD SVG 1.1//EN" "http://www.w3.org/Graphics/SVG/1.1/DTD/svg11.dtd">
<!-- Creator: CorelDRAW X8 -->
<svg xmlns="http://www.w3.org/2000/svg" xml:space="preserve" width="1155px" height="1486px" version="1.1" style="shape-rendering:geometricPrecision; text-rendering:geometricPrecision; image-rendering:optimizeQuality; fill-rule:evenodd; clip-rule:evenodd"
viewBox="0 0 1155 1486"
 xmlns:xlink="http://www.w3.org/1999/xlink">
 <defs>
  <style type="text/css">
   <![CDATA[
    .fil0 {fill:#A82682;fill-rule:nonzero}
   ]]>
  </style>
 </defs>
 <g id="Layer_x0020_1">
  <metadata id="CorelCorpID_0Corel-Layer"/>
  <path class="fil0" d="M472 1387c58,0 129,-3 182,-27 34,-15 59,-41 57,-80 -1,-41 -44,-59 -81,-59 -47,-1 -67,42 -67,83 0,40 -58,51 -90,51 -32,1 -91,-11 -91,-51 0,-41 -20,-83 -67,-83 -36,0 -80,17 -82,59 -1,39 24,65 58,80 53,24 124,27 181,27zm-158 -262c53,0 112,9 158,34 47,-25 106,-34 159,-34 57,0 126,10 175,41 36,23 67,55 73,97 71,-78 103,-211 98,-314 -2,-61 -19,-138 -64,-183 -23,-23 -53,-43 -87,-45 -71,-4 -119,14 -175,16 -49,1 -97,-11 -136,-34 -61,-36 -103,-99 -106,-178 -2,-76 27,-144 93,-183 40,-24 81,-32 123,-33 65,-1 133,18 198,27 43,6 69,-1 77,-48 10,-55 -23,-101 -69,-129 -65,-39 -155,-50 -230,-47 -264,10 -395,213 -398,461 -2,136 42,273 129,378 30,37 -17,66 -50,74 -48,12 -107,6 -140,-35 -93,-117 -142,-269 -142,-417 1,-354 258,-573 602,-573 128,0 297,23 400,105 60,48 90,108 88,184 -5,153 -152,185 -278,167 -48,-7 -117,-27 -161,-16 -38,9 -57,47 -56,84 2,35 22,70 57,81 54,15 116,-3 171,-9 115,-12 221,42 280,141 39,66 54,149 52,225 -8,215 -126,379 -322,463 -108,46 -244,61 -361,61 -83,0 -176,-9 -254,-37 -72,-25 -154,-88 -153,-170 1,-49 33,-87 74,-113 49,-31 118,-41 175,-41z"/>
 </g>
</svg>
