<?xml version="1.0" encoding="UTF-8"?>
<!DOCTYPE svg PUBLIC "-//W3C//DTD SVG 1.1//EN" "http://www.w3.org/Graphics/SVG/1.1/DTD/svg11.dtd">
<!-- Creator: CorelDRAW X8 -->
<svg xmlns="http://www.w3.org/2000/svg" xml:space="preserve" width="1502px" height="1486px" version="1.1" style="shape-rendering:geometricPrecision; text-rendering:geometricPrecision; image-rendering:optimizeQuality; fill-rule:evenodd; clip-rule:evenodd"
viewBox="0 0 1502 1486"
 xmlns:xlink="http://www.w3.org/1999/xlink">
 <defs>
  <style type="text/css">
   <![CDATA[
    .fil0 {fill:#2B2A29;fill-rule:nonzero}
   ]]>
  </style>
 </defs>
 <g id="Layer_x0020_1">
  <metadata id="CorelCorpID_0Corel-Layer"/>
  <path class="fil0" d="M1368 1287c95,-101 134,-229 134,-364 0,-173 -97,-330 -289,-330 -52,0 -104,17 -153,17 -56,0 -104,-25 -104,-89 0,-54 31,-84 85,-84 63,0 127,24 193,24 116,0 217,-56 217,-186 0,-232 -304,-275 -488,-275 -349,0 -601,222 -602,569 0,147 48,298 141,414 24,29 61,41 98,41 15,0 29,-2 43,-5 26,-7 60,-26 60,-51 0,-7 -3,-15 -10,-23 -85,-103 -129,-244 -129,-376 0,-254 127,-458 399,-458 101,0 299,46 299,164 0,39 -12,63 -57,63 -66,0 -138,-26 -211,-28 -45,0 -89,7 -131,32 -66,40 -93,105 -93,179 0,76 39,143 105,179 39,22 86,33 136,33 49,0 96,-13 140,-13 30,0 59,6 84,25 61,47 79,115 79,187 0,98 -27,194 -89,274 -93,118 -223,171 -371,171 -217,0 -411,-117 -528,-295 -90,-136 -122,-291 -122,-452 0,-202 69,-425 254,-536 19,-11 27,-24 27,-37 0,-15 -12,-31 -33,-42 -19,-10 -43,-15 -68,-15 -27,0 -54,6 -74,19 -217,129 -310,370 -310,611 0,197 56,392 179,548 164,209 412,308 675,308 190,0 381,-57 514,-199z"/>
 </g>
</svg>
