<?xml version="1.0" encoding="UTF-8"?>
<!DOCTYPE svg PUBLIC "-//W3C//DTD SVG 1.1//EN" "http://www.w3.org/Graphics/SVG/1.1/DTD/svg11.dtd">
<!-- Creator: CorelDRAW X8 -->
<svg xmlns="http://www.w3.org/2000/svg" xml:space="preserve" width="1155px" height="1486px" version="1.1" style="shape-rendering:geometricPrecision; text-rendering:geometricPrecision; image-rendering:optimizeQuality; fill-rule:evenodd; clip-rule:evenodd"
viewBox="0 0 1155 1486"
 xmlns:xlink="http://www.w3.org/1999/xlink">
 <defs>
  <style type="text/css">
   <![CDATA[
    .fil0 {fill:#2B2A29;fill-rule:nonzero}
   ]]>
  </style>
 </defs>
 <g id="Layer_x0020_1">
  <metadata id="CorelCorpID_0Corel-Layer"/>
  <path class="fil0" d="M239 1024c15,0 29,-2 43,-5 26,-7 60,-26 60,-51 0,-7 -3,-15 -10,-23 -85,-103 -129,-244 -129,-376 0,-254 127,-458 399,-458 101,0 299,46 299,164 0,39 -12,63 -57,63 -66,0 -138,-27 -211,-28 -45,0 -89,7 -131,32 -66,40 -93,104 -93,179 0,76 39,142 105,179 39,22 86,33 136,33 57,0 106,-18 156,-18 46,0 82,20 108,51 42,48 63,122 63,183 0,110 -24,239 -103,321 -27,-72 -133,-111 -202,-126 -64,-15 -131,-20 -196,-20 -72,0 -147,6 -217,23 -73,19 -193,68 -194,157 0,88 118,137 189,156 70,18 146,25 222,26 81,0 167,-6 248,-26 85,-20 165,-55 233,-107 42,-32 79,-70 110,-114 58,-85 88,-188 88,-290 0,-77 -17,-152 -53,-214 -48,-83 -130,-141 -247,-141 -52,0 -106,16 -156,16 -56,0 -104,-25 -104,-89 0,-54 31,-84 85,-84 63,0 127,24 193,24 116,0 217,-56 217,-186 0,-232 -304,-275 -488,-275 -349,0 -601,222 -602,569 0,147 48,298 141,414 24,29 61,41 98,41zm237 357c-53,0 -117,-5 -166,-23 -22,-9 -56,-26 -56,-53 0,-28 33,-45 56,-53 49,-19 113,-24 166,-24 46,0 95,4 140,17 26,8 75,27 76,59 0,33 -51,53 -77,60 -45,13 -93,17 -139,17z"/>
 </g>
</svg>
