<?xml version="1.0" encoding="UTF-8"?>
<!DOCTYPE svg PUBLIC "-//W3C//DTD SVG 1.1//EN" "http://www.w3.org/Graphics/SVG/1.1/DTD/svg11.dtd">
<!-- Creator: CorelDRAW X8 -->
<svg xmlns="http://www.w3.org/2000/svg" xml:space="preserve" width="1502px" height="1486px" version="1.1" style="shape-rendering:geometricPrecision; text-rendering:geometricPrecision; image-rendering:optimizeQuality; fill-rule:evenodd; clip-rule:evenodd"
viewBox="0 0 1502 1486"
 xmlns:xlink="http://www.w3.org/1999/xlink">
 <defs>
  <style type="text/css">
   <![CDATA[
    .fil0 {fill:#A82682;fill-rule:nonzero}
   ]]>
  </style>
 </defs>
 <g id="Layer_x0020_1">
  <metadata id="CorelCorpID_0Corel-Layer"/>
  <path class="fil0" d="M1008 735c-48,1 -94,-10 -131,-32 -62,-35 -104,-97 -107,-178 -3,-75 26,-144 92,-183 41,-24 83,-32 125,-33 65,0 132,18 197,27 41,6 70,-2 76,-48 19,-135 -197,-180 -299,-176 -266,10 -395,217 -398,461 -1,135 42,266 130,372 30,36 -17,65 -50,74 -49,12 -108,5 -141,-36 -93,-117 -142,-262 -141,-410 0,-350 253,-573 602,-573 186,0 494,48 487,289 -4,153 -152,185 -278,167 -48,-6 -116,-27 -161,-16 -38,9 -57,48 -55,84 1,35 21,70 56,81 65,18 141,-16 213,-12 162,8 269,142 276,296 7,147 -30,288 -133,398 -130,139 -318,198 -506,199 -266,2 -517,-97 -683,-308 -123,-156 -178,-348 -179,-544 -1,-242 92,-485 310,-615 39,-24 102,-24 142,-4 40,21 46,56 6,79 -189,113 -257,334 -254,540 1,155 35,317 122,448 119,181 314,299 536,295 144,-2 274,-58 363,-171 69,-88 94,-196 88,-305 -3,-56 -32,-121 -78,-156 -64,-49 -152,-11 -227,-10z"/>
 </g>
</svg>
