<?xml version="1.0" encoding="UTF-8"?>
<!DOCTYPE svg PUBLIC "-//W3C//DTD SVG 1.1//EN" "http://www.w3.org/Graphics/SVG/1.1/DTD/svg11.dtd">
<!-- Creator: CorelDRAW X8 -->
<svg xmlns="http://www.w3.org/2000/svg" xml:space="preserve" width="1469px" height="1486px" version="1.1" style="shape-rendering:geometricPrecision; text-rendering:geometricPrecision; image-rendering:optimizeQuality; fill-rule:evenodd; clip-rule:evenodd"
viewBox="0 0 1469 1486"
 xmlns:xlink="http://www.w3.org/1999/xlink">
 <defs>
  <style type="text/css">
   <![CDATA[
    .fil0 {fill:#A82682;fill-rule:nonzero}
   ]]>
  </style>
 </defs>
 <g id="Layer_x0020_1">
  <metadata id="CorelCorpID_0Corel-Layer"/>
  <path class="fil0" d="M956 524c1,34 21,70 56,80 70,21 165,-15 242,-11 114,5 212,85 213,203 0,69 -31,113 -91,147 59,38 93,102 93,172 0,129 -85,230 -196,289 -112,58 -250,76 -375,81 -275,12 -551,-88 -721,-308 -119,-155 -176,-349 -177,-543 0,-242 92,-486 310,-615 39,-24 103,-24 143,-4 39,20 45,56 5,79 -189,113 -254,334 -254,540 -1,158 38,318 124,452 125,194 327,299 560,294 92,-2 200,-25 278,-74 67,-43 116,-110 114,-191 -1,-71 -57,-116 -124,-116l-254 0c-32,0 -101,-14 -101,-56 0,-42 69,-56 101,-56l201 0c70,0 166,0 165,-90 0,-36 -26,-64 -59,-75 -59,-20 -120,13 -200,14 -49,0 -95,-12 -133,-33 -61,-35 -103,-97 -106,-178 -3,-75 26,-144 93,-183 42,-25 86,-33 130,-33 63,1 128,18 191,27 41,5 70,-2 76,-48 8,-51 -24,-89 -65,-117 -65,-45 -155,-62 -233,-59 -267,10 -396,216 -399,461 -1,135 43,266 130,371 30,37 -17,66 -50,74 -49,12 -108,5 -141,-36 -93,-116 -141,-262 -141,-409 0,-350 253,-573 602,-573 108,0 233,16 330,62 97,46 161,117 157,227 -4,153 -151,185 -278,167 -47,-7 -116,-27 -161,-16 -38,9 -57,47 -55,84z"/>
 </g>
</svg>
