<?xml version="1.0" encoding="UTF-8"?>
<!DOCTYPE svg PUBLIC "-//W3C//DTD SVG 1.1//EN" "http://www.w3.org/Graphics/SVG/1.1/DTD/svg11.dtd">
<!-- Creator: CorelDRAW X8 -->
<svg xmlns="http://www.w3.org/2000/svg" xml:space="preserve" width="1155px" height="1486px" version="1.1" style="shape-rendering:geometricPrecision; text-rendering:geometricPrecision; image-rendering:optimizeQuality; fill-rule:evenodd; clip-rule:evenodd"
viewBox="0 0 1155 1486"
 xmlns:xlink="http://www.w3.org/1999/xlink">
 <defs>
  <style type="text/css">
   <![CDATA[
    .fil0 {fill:#A82682}
   ]]>
  </style>
 </defs>
 <g id="Layer_x0020_1">
  <metadata id="CorelCorpID_0Corel-Layer"/>
  <path class="fil0" d="M476 1228c-53,0 -117,5 -166,24 -21,8 -56,25 -56,52 -1,27 34,45 56,54 49,18 113,23 166,23 46,0 94,-4 139,-17 26,-7 77,-27 77,-60 -1,-32 -50,-51 -76,-59 -45,-13 -94,-17 -140,-17zm398 42c74,-77 108,-218 103,-321 -2,-61 -19,-138 -64,-183 -23,-23 -53,-43 -87,-45 -72,-4 -121,15 -177,16 -38,1 -79,-7 -133,-34 -67,-34 -104,-105 -107,-178 -2,-75 26,-144 93,-183 40,-24 82,-32 124,-33 65,0 132,18 197,27 43,6 69,-1 77,-48 10,-54 -23,-101 -69,-129 -65,-39 -155,-50 -230,-47 -267,10 -396,217 -398,461 -2,135 42,266 129,371 30,37 -17,66 -50,74 -48,12 -108,6 -140,-35 -93,-117 -142,-262 -142,-410 1,-350 254,-573 602,-573 128,0 298,23 400,105 60,48 90,108 88,184 -5,152 -150,185 -278,167 -48,-7 -117,-27 -161,-16 -38,9 -57,47 -56,84 2,35 22,70 57,80 54,16 116,-2 171,-8 115,-12 222,42 280,141 39,66 54,149 52,225 -4,111 -37,203 -88,277 -59,85 -142,147 -234,186 -107,46 -245,62 -360,61 -73,-1 -149,-8 -219,-26 -71,-19 -189,-68 -189,-156 1,-89 121,-138 194,-157 70,-17 145,-23 217,-23 65,0 132,5 196,20 69,15 175,54 202,126z"/>
 </g>
</svg>
