<?xml version="1.0" encoding="UTF-8"?>
<!DOCTYPE svg PUBLIC "-//W3C//DTD SVG 1.1//EN" "http://www.w3.org/Graphics/SVG/1.1/DTD/svg11.dtd">
<!-- Creator: CorelDRAW X8 -->
<svg xmlns="http://www.w3.org/2000/svg" xml:space="preserve" width="633px" height="586px" version="1.1" style="shape-rendering:geometricPrecision; text-rendering:geometricPrecision; image-rendering:optimizeQuality; fill-rule:evenodd; clip-rule:evenodd"
viewBox="0 0 633 586"
 xmlns:xlink="http://www.w3.org/1999/xlink">
 <defs>
  <style type="text/css">
   <![CDATA[
    .fil0 {fill:#666633;fill-rule:nonzero}
   ]]>
  </style>
 </defs>
 <g id="Layer_x0020_1">
  <metadata id="CorelCorpID_0Corel-Layer"/>
  <path class="fil0" d="M267 527l243 0 0 -275c0,-84 -43,-165 -125,-181 44,35 62,87 63,142 1,83 -37,167 -89,230 -26,31 -56,60 -92,84zm-144 -275l0 266c35,-18 69,-42 98,-71 54,-55 110,-147 113,-233 1,-58 -17,-130 -87,-133 -40,-2 -76,21 -98,53 -23,36 -26,76 -26,118zm449 334l-511 0c-17,0 -61,-5 -61,-29l0 -305c0,-69 25,-130 77,-175 65,-56 156,-77 239,-77 84,0 175,21 239,77 52,45 78,106 78,175l0 305c0,24 -44,29 -61,29z"/>
 </g>
</svg>
