<?xml version="1.0" encoding="UTF-8"?>
<!DOCTYPE svg PUBLIC "-//W3C//DTD SVG 1.1//EN" "http://www.w3.org/Graphics/SVG/1.1/DTD/svg11.dtd">
<!-- Creator: CorelDRAW X8 -->
<svg xmlns="http://www.w3.org/2000/svg" xml:space="preserve" width="653px" height="586px" version="1.1" style="shape-rendering:geometricPrecision; text-rendering:geometricPrecision; image-rendering:optimizeQuality; fill-rule:evenodd; clip-rule:evenodd"
viewBox="0 0 653 586"
 xmlns:xlink="http://www.w3.org/1999/xlink">
 <defs>
  <style type="text/css">
   <![CDATA[
    .fil0 {fill:#A82682;fill-rule:nonzero}
   ]]>
  </style>
 </defs>
 <g id="Layer_x0020_1">
  <metadata id="CorelCorpID_0Corel-Layer"/>
  <path class="fil0" d="M297 516l213 0 0 -264c0,-62 -27,-131 -86,-161 31,35 43,79 44,124 1,117 -76,232 -171,301zm-154 -264l0 264c97,-54 188,-190 191,-300 0,-31 -5,-67 -22,-92 -12,-19 -30,-32 -56,-33 -36,-2 -68,21 -87,49 -24,34 -26,73 -26,112zm438 333l-510 0c-20,0 -71,-8 -71,-35l0 -298c0,-68 26,-128 79,-173 67,-56 161,-78 248,-78 86,0 180,21 247,78 52,45 79,105 79,173l0 298c0,27 -51,35 -72,35z"/>
 </g>
</svg>
