<?xml version="1.0" encoding="UTF-8"?>
<!DOCTYPE svg PUBLIC "-//W3C//DTD SVG 1.1//EN" "http://www.w3.org/Graphics/SVG/1.1/DTD/svg11.dtd">
<!-- Creator: CorelDRAW X8 -->
<svg xmlns="http://www.w3.org/2000/svg" xml:space="preserve" width="653px" height="583px" version="1.1" style="shape-rendering:geometricPrecision; text-rendering:geometricPrecision; image-rendering:optimizeQuality; fill-rule:evenodd; clip-rule:evenodd"
viewBox="0 0 653 583"
 xmlns:xlink="http://www.w3.org/1999/xlink">
 <defs>
  <style type="text/css">
   <![CDATA[
    .fil0 {fill:#996633;fill-rule:nonzero}
   ]]>
  </style>
 </defs>
 <g id="Layer_x0020_1">
  <metadata id="CorelCorpID_0Corel-Layer"/>
  <path class="fil0" d="M297 514l213 0 0 -263c0,-62 -26,-132 -86,-161 31,34 43,78 44,123 1,118 -76,233 -171,301zm-154 -263l0 263c97,-54 188,-190 191,-300 0,-31 -5,-66 -22,-92 -12,-18 -30,-31 -56,-32 -36,-2 -68,20 -87,49 -24,33 -26,73 -26,112zm439 332l-511 0c-20,0 -71,-7 -71,-34l0 -298c0,-68 26,-128 79,-173 67,-57 161,-78 247,-78 87,0 181,21 248,78 52,44 79,105 79,173l0 298c0,27 -51,34 -71,34z"/>
 </g>
</svg>
