<?xml version="1.0" encoding="UTF-8"?>
<!DOCTYPE svg PUBLIC "-//W3C//DTD SVG 1.1//EN" "http://www.w3.org/Graphics/SVG/1.1/DTD/svg11.dtd">
<!-- Creator: CorelDRAW X8 -->
<svg xmlns="http://www.w3.org/2000/svg" xml:space="preserve" width="1903px" height="1000px" version="1.1" style="shape-rendering:geometricPrecision; text-rendering:geometricPrecision; image-rendering:optimizeQuality; fill-rule:evenodd; clip-rule:evenodd"
viewBox="0 0 1903 1000"
 xmlns:xlink="http://www.w3.org/1999/xlink">
 <defs>
  <style type="text/css">
   <![CDATA[
    .fil0 {fill:#5B5A50;fill-rule:nonzero}
   ]]>
  </style>
 </defs>
 <g id="Layer_x0020_1">
  <metadata id="CorelCorpID_0Corel-Layer"/>
  <path class="fil0" d="M1305 889l395 0 0 -459c0,-95 -33,-181 -100,-240 -27,-24 -60,-44 -98,-57 66,60 92,145 93,232 0,68 -15,137 -39,201 -50,128 -139,241 -251,323zm-850 0l395 0 0 -459c0,-95 -33,-181 -100,-240 -27,-24 -60,-44 -98,-57 66,60 92,145 93,232 0,68 -15,137 -39,201 -50,128 -139,241 -251,323zm698 -699c-71,62 -100,148 -100,240l0 459c135,-66 247,-202 303,-338 23,-58 37,-121 38,-184 1,-82 -34,-219 -139,-220 -38,0 -74,19 -102,43zm648 810l-849 0 -850 0c-33,0 -102,-14 -102,-56l0 -514c0,-116 42,-220 131,-299 106,-93 255,-131 396,-131 153,0 319,46 424,160 106,-114 272,-160 426,-160 140,0 288,37 394,131 89,78 132,183 132,299l0 514c0,42 -69,56 -102,56zm-1498 -810c-71,62 -100,148 -100,240l0 459c135,-66 247,-202 303,-338 23,-58 37,-121 38,-184 1,-82 -34,-219 -139,-220 -38,0 -74,19 -102,43z"/>
 </g>
</svg>
