<?xml version="1.0" encoding="UTF-8"?>
<!DOCTYPE svg PUBLIC "-//W3C//DTD SVG 1.1//EN" "http://www.w3.org/Graphics/SVG/1.1/DTD/svg11.dtd">
<!-- Creator: CorelDRAW X8 -->
<svg xmlns="http://www.w3.org/2000/svg" xml:space="preserve" width="1904px" height="1000px" version="1.1" style="shape-rendering:geometricPrecision; text-rendering:geometricPrecision; image-rendering:optimizeQuality; fill-rule:evenodd; clip-rule:evenodd"
viewBox="0 0 1904 1000"
 xmlns:xlink="http://www.w3.org/1999/xlink">
 <defs>
  <style type="text/css">
   <![CDATA[
    .fil0 {fill:#2B2A29;fill-rule:nonzero}
   ]]>
  </style>
 </defs>
 <g id="Layer_x0020_1">
  <metadata id="CorelCorpID_0Corel-Layer"/>
  <path class="fil0" d="M1803 1000c32,0 101,-14 101,-56l0 -514c0,-116 -43,-221 -132,-299 -106,-94 -254,-131 -394,-131 -154,0 -320,46 -426,160 -106,-114 -272,-160 -425,-160 -141,0 -290,38 -396,131 -89,79 -131,183 -131,299l0 514c0,42 69,56 101,56l1702 0zm-102 -111l-395 0c158,-115 290,-313 290,-524 -1,-87 -27,-172 -93,-232 134,46 198,168 198,297l0 459zm-851 0l-395 0c158,-115 290,-313 290,-524 -1,-87 -27,-172 -93,-232 134,46 198,168 198,297l0 459zm204 0l0 -459c0,-92 28,-178 100,-240 28,-24 64,-43 102,-43 104,1 139,134 139,217 0,208 -157,435 -341,525zm-851 0l0 -459c0,-92 29,-178 100,-240 28,-24 64,-43 102,-43 104,1 139,134 139,217 0,208 -157,435 -341,525z"/>
 </g>
</svg>
