<?xml version="1.0" encoding="UTF-8"?>
<!DOCTYPE svg PUBLIC "-//W3C//DTD SVG 1.1//EN" "http://www.w3.org/Graphics/SVG/1.1/DTD/svg11.dtd">
<!-- Creator: CorelDRAW X8 -->
<svg xmlns="http://www.w3.org/2000/svg" xml:space="preserve" width="2402px" height="1486px" version="1.1" style="shape-rendering:geometricPrecision; text-rendering:geometricPrecision; image-rendering:optimizeQuality; fill-rule:evenodd; clip-rule:evenodd"
viewBox="0 0 2402 1486"
 xmlns:xlink="http://www.w3.org/1999/xlink">
 <defs>
  <style type="text/css">
   <![CDATA[
    .fil0 {fill:#A82682;fill-rule:nonzero}
   ]]>
  </style>
 </defs>
 <g id="Layer_x0020_1">
  <metadata id="CorelCorpID_0Corel-Layer"/>
  <path class="fil0" d="M1972 503c-2,141 -47,283 -148,387l375 -1 0 -833c0,-42 69,-56 101,-56 33,0 102,14 102,56l0 932c0,190 -165,311 -327,376 -220,90 -493,119 -730,122 -246,3 -510,-22 -743,-105 -386,-138 -600,-408 -602,-817 -1,-216 98,-424 282,-544 38,-25 102,-26 143,-7 39,18 51,53 12,79 -156,102 -235,291 -234,472 0,334 152,577 469,705 207,85 450,108 673,105 205,-3 461,-32 648,-120 99,-47 204,-135 205,-253l-579 0c-32,0 -111,-14 -104,-60 2,-20 22,-33 39,-40 151,-63 213,-250 215,-398 3,-153 -84,-392 -272,-392 -152,0 -213,114 -213,249l0 608c0,42 -69,56 -102,56 -32,0 -101,-14 -101,-56l0 -608c0,-135 -62,-249 -213,-249 -122,0 -221,94 -264,201 -26,65 -36,138 -35,208 2,148 64,342 215,404 38,16 58,50 20,78 -40,28 -104,27 -147,9 -198,-86 -288,-288 -290,-491 -2,-88 13,-178 51,-258 82,-172 261,-262 450,-262 111,0 231,26 314,103 84,-77 203,-103 315,-103 295,0 479,225 475,503z"/>
 </g>
</svg>
