<?xml version="1.0" encoding="UTF-8"?>
<!DOCTYPE svg PUBLIC "-//W3C//DTD SVG 1.1//EN" "http://www.w3.org/Graphics/SVG/1.1/DTD/svg11.dtd">
<!-- Creator: CorelDRAW X8 -->
<svg xmlns="http://www.w3.org/2000/svg" xml:space="preserve" width="1053px" height="1486px" version="1.1" style="shape-rendering:geometricPrecision; text-rendering:geometricPrecision; image-rendering:optimizeQuality; fill-rule:evenodd; clip-rule:evenodd"
viewBox="0 0 1053 1486"
 xmlns:xlink="http://www.w3.org/1999/xlink">
 <defs>
  <style type="text/css">
   <![CDATA[
    .fil0 {fill:#2B2A29;fill-rule:nonzero}
   ]]>
  </style>
 </defs>
 <g id="Layer_x0020_1">
  <metadata id="CorelCorpID_0Corel-Layer"/>
  <path class="fil0" d="M401 1486c86,0 200,-4 306,-26 109,-22 210,-64 267,-141 52,-72 79,-173 79,-323l0 -566c0,-116 -43,-221 -132,-299 -106,-94 -254,-131 -394,-131 -141,0 -290,38 -396,131 -89,79 -131,183 -131,299l0 514c0,42 69,56 101,56l751 0c0,88 3,227 -55,296 -7,-88 -129,-135 -203,-152 -63,-15 -128,-20 -193,-20 -70,0 -143,6 -211,23 -73,19 -190,68 -190,157 0,88 113,137 185,157 66,18 141,25 216,25zm449 -597l-395 0c158,-115 290,-313 290,-524 -1,-87 -27,-172 -93,-232 134,46 198,168 198,297l0 459zm-647 0l0 -459c0,-92 29,-178 100,-240 28,-24 64,-43 102,-43 104,1 139,134 139,217 0,207 -157,435 -341,525zm198 492c-50,0 -114,-5 -161,-23 -22,-9 -55,-27 -55,-54 1,-26 34,-44 55,-52 48,-19 111,-24 161,-24 46,0 94,4 138,17 25,8 73,27 73,59 0,33 -49,53 -75,60 -43,13 -90,17 -136,17z"/>
 </g>
</svg>
