<?xml version="1.0" encoding="UTF-8"?>
<!DOCTYPE svg PUBLIC "-//W3C//DTD SVG 1.1//EN" "http://www.w3.org/Graphics/SVG/1.1/DTD/svg11.dtd">
<!-- Creator: CorelDRAW X8 -->
<svg xmlns="http://www.w3.org/2000/svg" xml:space="preserve" width="1471px" height="1486px" version="1.1" style="shape-rendering:geometricPrecision; text-rendering:geometricPrecision; image-rendering:optimizeQuality; fill-rule:evenodd; clip-rule:evenodd"
viewBox="0 0 1471 1486"
 xmlns:xlink="http://www.w3.org/1999/xlink">
 <defs>
  <style type="text/css">
   <![CDATA[
    .fil0 {fill:#5B5A50;fill-rule:nonzero}
   ]]>
  </style>
 </defs>
 <g id="Layer_x0020_1">
  <metadata id="CorelCorpID_0Corel-Layer"/>
  <path class="fil0" d="M873 889l395 0 0 -459c0,-95 -33,-181 -100,-240 -27,-24 -60,-44 -98,-57 65,60 92,145 93,232 0,68 -15,137 -39,201 -50,128 -140,241 -251,323zm598 103c0,131 -47,235 -142,325 -123,118 -316,168 -484,169 -268,2 -525,-86 -687,-305 -111,-151 -156,-336 -158,-521 -2,-249 91,-507 316,-641 39,-24 103,-24 143,-3 39,19 45,55 5,78 -194,116 -263,354 -262,566 1,151 30,310 107,443 116,198 308,281 535,276 120,-3 260,-47 340,-139 63,-72 82,-147 84,-240l-749 0c-32,0 -101,-14 -101,-55l0 -515c0,-116 42,-220 131,-299 106,-93 255,-131 395,-131 141,0 289,37 395,131 89,78 132,183 132,299l0 562zm-750 -802c-71,62 -100,148 -100,240l0 459c134,-66 247,-202 303,-338 23,-58 37,-121 38,-183 0,-83 -34,-220 -139,-221 -38,0 -74,19 -102,43z"/>
 </g>
</svg>
