<?xml version="1.0" encoding="UTF-8"?>
<!DOCTYPE svg PUBLIC "-//W3C//DTD SVG 1.1//EN" "http://www.w3.org/Graphics/SVG/1.1/DTD/svg11.dtd">
<!-- Creator: CorelDRAW X8 -->
<svg xmlns="http://www.w3.org/2000/svg" xml:space="preserve" width="1670px" height="1024px" version="1.1" style="shape-rendering:geometricPrecision; text-rendering:geometricPrecision; image-rendering:optimizeQuality; fill-rule:evenodd; clip-rule:evenodd"
viewBox="0 0 1670 1024"
 xmlns:xlink="http://www.w3.org/1999/xlink">
 <defs>
  <style type="text/css">
   <![CDATA[
    .fil0 {fill:#5B5A50;fill-rule:nonzero}
   ]]>
  </style>
 </defs>
 <g id="Layer_x0020_1">
  <metadata id="CorelCorpID_0Corel-Layer"/>
  <path class="fil0" d="M683 451c6,79 21,156 53,224 29,63 71,119 132,164 56,-40 100,-93 132,-153 38,-72 60,-154 64,-235 4,-89 -9,-191 -64,-264 -31,-42 -78,-76 -133,-76 -152,0 -192,217 -184,340zm-74 -336c64,-78 158,-115 258,-115 106,0 209,41 283,115 91,90 122,213 116,336 -5,95 -29,188 -74,270 -39,72 -93,136 -162,186 24,4 47,6 71,6 125,-1 236,-84 296,-187 47,-82 70,-181 71,-275 0,-128 -43,-289 -165,-356 -39,-22 -39,-57 0,-78 51,-28 114,-19 162,11 146,91 206,260 205,423 -1,105 -26,216 -80,308 -99,173 -290,264 -489,264 -79,0 -159,-10 -234,-35 -78,25 -160,36 -242,36 -188,-1 -359,-50 -486,-192 -91,-102 -136,-247 -139,-381 -2,-99 18,-203 70,-290 60,-101 183,-161 302,-161 98,0 183,31 237,115zm16 798c28,0 56,-2 83,-7 -68,-51 -118,-113 -154,-182 -42,-82 -64,-175 -71,-273 -5,-68 0,-133 -11,-202 -8,-54 -30,-138 -100,-138 -47,0 -88,49 -110,85 -45,76 -61,168 -59,255 3,115 40,244 119,332 83,94 177,130 303,130z"/>
 </g>
</svg>
