<?xml version="1.0" encoding="UTF-8"?>
<!DOCTYPE svg PUBLIC "-//W3C//DTD SVG 1.1//EN" "http://www.w3.org/Graphics/SVG/1.1/DTD/svg11.dtd">
<!-- Creator: CorelDRAW X8 -->
<svg xmlns="http://www.w3.org/2000/svg" xml:space="preserve" width="1555px" height="1486px" version="1.1" style="shape-rendering:geometricPrecision; text-rendering:geometricPrecision; image-rendering:optimizeQuality; fill-rule:evenodd; clip-rule:evenodd"
viewBox="0 0 1555 1486"
 xmlns:xlink="http://www.w3.org/1999/xlink">
 <defs>
  <style type="text/css">
   <![CDATA[
    .fil0 {fill:#2B2A29;fill-rule:nonzero}
   ]]>
  </style>
 </defs>
 <g id="Layer_x0020_1">
  <metadata id="CorelCorpID_0Corel-Layer"/>
  <path class="fil0" d="M836 1024c132,0 249,-56 317,-167 52,-84 74,-186 74,-284 0,-57 -6,-114 -21,-170 40,43 74,95 98,155 31,76 56,145 56,252 0,153 -39,329 -143,445 -35,-61 -129,-96 -195,-111 -64,-15 -130,-20 -196,-20 -72,0 -147,6 -216,23 -73,19 -194,67 -194,158 0,87 116,137 188,156 66,17 141,25 222,25 67,0 142,-8 215,-24 82,-18 161,-47 225,-87 202,-126 289,-338 289,-566 0,-301 -158,-542 -458,-613 -115,-135 -286,-196 -475,-196 -195,0 -395,67 -516,227 -72,96 -106,212 -106,331 0,176 77,331 221,434 29,20 62,32 96,32 21,0 43,-5 63,-14 23,-10 37,-26 37,-43 0,-12 -8,-24 -24,-35 -128,-84 -191,-225 -191,-374 1,-96 25,-193 80,-274 80,-117 201,-173 340,-173 89,0 163,23 233,79 -122,20 -235,78 -311,176 -60,78 -92,178 -92,276 0,80 21,162 67,229 71,104 194,153 317,153zm-10 357c-52,0 -117,-5 -166,-23 -22,-9 -56,-27 -56,-54 1,-26 35,-44 57,-52 49,-19 113,-23 165,-23 47,0 96,3 141,16 25,8 75,27 75,59 0,33 -51,53 -77,60 -44,13 -93,17 -139,17zm10 -469c-55,0 -98,-37 -128,-80 -37,-55 -53,-124 -53,-190 0,-83 24,-167 76,-233 52,-68 130,-112 217,-117 55,84 77,183 77,281 0,83 -20,177 -64,248 -27,44 -69,91 -125,91z"/>
 </g>
</svg>
