<?xml version="1.0" encoding="UTF-8"?>
<!DOCTYPE svg PUBLIC "-//W3C//DTD SVG 1.1//EN" "http://www.w3.org/Graphics/SVG/1.1/DTD/svg11.dtd">
<!-- Creator: CorelDRAW X8 -->
<svg xmlns="http://www.w3.org/2000/svg" xml:space="preserve" width="1554px" height="1486px" version="1.1" style="shape-rendering:geometricPrecision; text-rendering:geometricPrecision; image-rendering:optimizeQuality; fill-rule:evenodd; clip-rule:evenodd"
viewBox="0 0 1554 1486"
 xmlns:xlink="http://www.w3.org/1999/xlink">
 <defs>
  <style type="text/css">
   <![CDATA[
    .fil0 {fill:#5B5A50;fill-rule:nonzero}
   ]]>
  </style>
 </defs>
 <g id="Layer_x0020_1">
  <metadata id="CorelCorpID_0Corel-Layer"/>
  <path class="fil0" d="M826 1228c-52,0 -116,5 -165,23 -22,9 -56,26 -57,53 0,27 34,45 56,53 49,19 114,24 166,24 46,0 95,-4 139,-17 26,-7 77,-27 77,-60 0,-32 -50,-52 -75,-59 -46,-13 -94,-17 -141,-17zm122 -934c-88,4 -165,49 -217,117 -52,67 -76,151 -76,235 0,66 16,129 54,184 28,42 72,81 125,81 57,1 100,-48 128,-92 43,-71 61,-153 62,-235 2,-102 -20,-204 -76,-290zm147 -98c323,69 477,354 457,663 -13,204 -108,404 -286,516 -74,45 -163,75 -248,91 -63,13 -127,19 -192,20 -72,1 -152,-7 -222,-26 -72,-19 -189,-68 -188,-156 0,-90 121,-139 194,-157 69,-17 144,-23 216,-23 66,0 132,5 196,20 44,10 100,28 143,58 22,14 40,32 52,52 94,-105 135,-258 139,-395 2,-104 -15,-210 -52,-301 -25,-60 -58,-113 -99,-156 16,59 23,121 22,182 -1,96 -23,189 -74,271 -69,113 -186,169 -319,168 -125,-1 -244,-49 -315,-154 -45,-67 -67,-143 -67,-223 0,-99 32,-199 92,-278 76,-99 189,-156 311,-177 -71,-57 -147,-81 -239,-80 -138,2 -257,61 -334,175 -55,82 -79,179 -80,276 0,149 64,285 191,370 39,25 26,60 -13,78 -53,24 -112,15 -158,-19 -146,-103 -224,-256 -222,-433 2,-127 39,-249 121,-348 120,-146 307,-209 493,-210 183,-1 360,56 481,196z"/>
 </g>
</svg>
