<?xml version="1.0" encoding="UTF-8"?>
<!DOCTYPE svg PUBLIC "-//W3C//DTD SVG 1.1//EN" "http://www.w3.org/Graphics/SVG/1.1/DTD/svg11.dtd">
<!-- Creator: CorelDRAW X8 -->
<svg xmlns="http://www.w3.org/2000/svg" xml:space="preserve" width="1620px" height="1024px" version="1.1" style="shape-rendering:geometricPrecision; text-rendering:geometricPrecision; image-rendering:optimizeQuality; fill-rule:evenodd; clip-rule:evenodd"
viewBox="0 0 1620 1024"
 xmlns:xlink="http://www.w3.org/1999/xlink">
 <defs>
  <style type="text/css">
   <![CDATA[
    .fil0 {fill:#669933;fill-rule:nonzero}
   ]]>
  </style>
 </defs>
 <g id="Layer_x0020_1">
  <metadata id="CorelCorpID_0Corel-Layer"/>
  <path class="fil0" d="M1176 949c20,-23 68,-33 109,-22 11,3 27,6 39,6 91,0 135,-102 134,-180 -1,-65 -23,-109 -55,-138 -33,-30 -73,-38 -116,-39 -45,0 -80,-21 -79,-46 1,-25 38,-45 83,-44 45,0 76,-17 103,-53 21,-27 32,-65 33,-101 2,-79 -43,-152 -111,-192 -67,-38 -155,-49 -233,-49 -60,0 -121,2 -179,17 107,77 179,191 213,318 15,56 23,114 23,171 0,92 -20,180 -59,250 -65,119 -178,177 -310,177 -131,0 -243,-58 -308,-176 -38,-70 -58,-160 -58,-251 0,-58 8,-115 23,-171 35,-130 108,-245 218,-323 -31,-8 -65,-12 -101,-12 -135,-1 -259,94 -320,211 -41,78 -62,171 -62,268 0,137 46,307 176,374 33,18 35,46 4,65 -43,26 -95,15 -136,-10 -147,-89 -207,-265 -207,-429 0,-106 24,-207 69,-294 92,-176 280,-277 476,-276 76,0 165,12 236,42 96,-33 201,-42 302,-42 115,0 247,17 350,77 92,54 157,145 157,252 0,82 -40,153 -108,197 90,46 136,124 138,227 3,172 -134,270 -296,271 -14,0 -28,-1 -41,-2 -15,-2 -30,-4 -45,-7 -28,-6 -94,-27 -62,-66zm-404 -788c-94,66 -154,169 -183,278 -14,53 -21,106 -21,158 0,83 17,163 51,225 31,58 82,111 152,111 71,0 123,-54 155,-112 34,-63 51,-141 51,-224 0,-52 -7,-105 -21,-158 -29,-109 -90,-212 -184,-278z"/>
 </g>
</svg>
