<?xml version="1.0" encoding="UTF-8"?>
<!DOCTYPE svg PUBLIC "-//W3C//DTD SVG 1.1//EN" "http://www.w3.org/Graphics/SVG/1.1/DTD/svg11.dtd">
<!-- Creator: CorelDRAW X8 -->
<svg xmlns="http://www.w3.org/2000/svg" xml:space="preserve" width="1554px" height="1486px" version="1.1" style="shape-rendering:geometricPrecision; text-rendering:geometricPrecision; image-rendering:optimizeQuality; fill-rule:evenodd; clip-rule:evenodd"
viewBox="0 0 1554 1486"
 xmlns:xlink="http://www.w3.org/1999/xlink">
 <defs>
  <style type="text/css">
   <![CDATA[
    .fil0 {fill:#A82682;fill-rule:nonzero}
   ]]>
  </style>
 </defs>
 <g id="Layer_x0020_1">
  <metadata id="CorelCorpID_0Corel-Layer"/>
  <path class="fil0" d="M826 1229c-52,0 -116,4 -165,23 -22,8 -56,26 -57,52 0,27 34,45 56,54 49,18 114,23 166,23 46,0 95,-4 139,-17 26,-7 77,-27 77,-60 0,-32 -50,-51 -75,-59 -45,-13 -94,-16 -141,-16zm122 -935c-88,5 -165,49 -217,117 -52,68 -76,152 -76,235 0,66 16,129 54,184 28,42 72,81 125,81 57,1 100,-47 128,-92 44,-71 61,-152 63,-235 1,-102 -21,-203 -77,-290zm147 -98c323,69 477,354 458,664 -13,203 -109,404 -287,515 -73,46 -163,75 -248,92 -63,12 -127,18 -192,19 -72,1 -152,-7 -222,-25 -72,-19 -189,-69 -188,-157 0,-89 121,-138 194,-157 69,-17 144,-23 216,-23 66,0 132,5 196,20 66,15 160,50 195,111 94,-105 135,-259 139,-396 2,-104 -15,-210 -52,-301 -25,-60 -58,-113 -99,-156 16,60 23,121 22,182 -1,96 -23,189 -73,271 -70,114 -187,170 -320,168 -125,-1 -244,-49 -315,-154 -45,-67 -67,-143 -67,-223 0,-98 32,-199 92,-278 76,-99 189,-156 311,-177 -71,-57 -147,-81 -239,-80 -138,2 -258,61 -334,176 -55,81 -79,178 -80,275 0,149 64,285 191,370 39,26 26,61 -13,78 -53,24 -112,15 -159,-18 -145,-104 -223,-257 -221,-433 1,-128 38,-250 121,-349 120,-146 307,-209 493,-210 183,-1 360,56 481,196z"/>
 </g>
</svg>
