<?xml version="1.0" encoding="UTF-8"?>
<!DOCTYPE svg PUBLIC "-//W3C//DTD SVG 1.1//EN" "http://www.w3.org/Graphics/SVG/1.1/DTD/svg11.dtd">
<!-- Creator: CorelDRAW X8 -->
<svg xmlns="http://www.w3.org/2000/svg" xml:space="preserve" width="2047px" height="1486px" version="1.1" style="shape-rendering:geometricPrecision; text-rendering:geometricPrecision; image-rendering:optimizeQuality; fill-rule:evenodd; clip-rule:evenodd"
viewBox="0 0 2047 1486"
 xmlns:xlink="http://www.w3.org/1999/xlink">
 <defs>
  <style type="text/css">
   <![CDATA[
    .fil0 {fill:#A82682;fill-rule:nonzero}
   ]]>
  </style>
 </defs>
 <g id="Layer_x0020_1">
  <metadata id="CorelCorpID_0Corel-Layer"/>
  <path class="fil0" d="M1675 587c-33,0 -73,-15 -73,-56 1,-42 45,-56 78,-55 37,0 60,-16 82,-45 21,-27 27,-59 28,-93 2,-74 -49,-143 -114,-181 -54,-30 -138,-44 -219,-46 -54,-1 -106,4 -147,11 148,114 224,295 224,477 0,86 -17,168 -59,244 -69,123 -189,181 -329,181 -140,0 -259,-59 -327,-181 -42,-75 -59,-159 -59,-244 0,-184 78,-368 229,-481 -23,-4 -47,-6 -70,-6 -127,0 -244,93 -300,200 -43,79 -62,171 -62,261 0,129 44,289 170,354 39,20 44,55 5,79 -51,30 -116,19 -166,-10 -150,-90 -212,-257 -212,-423 0,-101 23,-203 70,-293 96,-180 292,-280 495,-280 78,1 164,12 237,39 97,-30 200,-39 302,-39 121,0 257,19 364,80 93,54 163,145 162,255 0,79 -37,145 -101,191 107,60 161,169 164,289 5,231 -163,432 -361,539 -178,96 -391,130 -592,132 -343,3 -715,-86 -928,-372 -107,-144 -164,-325 -166,-504 -2,-237 92,-465 304,-592 39,-23 103,-23 143,-3 39,20 45,55 6,79 -180,107 -253,318 -250,516 1,161 52,321 148,452 171,232 465,326 745,321 167,-4 349,-43 491,-132 154,-97 263,-253 260,-436 -1,-68 -17,-146 -72,-192 -32,-27 -59,-35 -100,-36zm-529 -399c-122,95 -184,261 -184,411 0,74 14,147 50,212 27,48 73,102 134,102 60,0 109,-55 135,-103 37,-65 51,-137 51,-211 0,-151 -62,-316 -186,-411z"/>
 </g>
</svg>
