<?xml version="1.0" encoding="UTF-8"?>
<!DOCTYPE svg PUBLIC "-//W3C//DTD SVG 1.1//EN" "http://www.w3.org/Graphics/SVG/1.1/DTD/svg11.dtd">
<!-- Creator: CorelDRAW X8 -->
<svg xmlns="http://www.w3.org/2000/svg" xml:space="preserve" width="1660px" height="1024px" version="1.1" style="shape-rendering:geometricPrecision; text-rendering:geometricPrecision; image-rendering:optimizeQuality; fill-rule:evenodd; clip-rule:evenodd"
viewBox="0 0 1660 1024"
 xmlns:xlink="http://www.w3.org/1999/xlink">
 <defs>
  <style type="text/css">
   <![CDATA[
    .fil0 {fill:#996633;fill-rule:nonzero}
   ]]>
  </style>
 </defs>
 <g id="Layer_x0020_1">
  <metadata id="CorelCorpID_0Corel-Layer"/>
  <path class="fil0" d="M1178 935c21,-25 63,-33 100,-32 23,1 43,9 65,10 77,2 126,-99 125,-165 -1,-48 -14,-97 -52,-130 -33,-28 -60,-30 -102,-32 -30,-2 -67,-17 -66,-56 1,-42 44,-55 77,-55 38,0 60,-15 83,-44 20,-27 26,-62 27,-95 2,-74 -49,-143 -114,-180 -53,-31 -138,-44 -219,-46 -54,-1 -106,3 -146,11 148,113 223,293 224,474 0,85 -18,174 -60,249 -68,122 -189,180 -329,180 -139,0 -259,-58 -327,-180 -41,-74 -59,-165 -59,-249 0,-183 79,-366 229,-478 -23,-4 -46,-6 -69,-6 -127,-1 -244,92 -301,198 -42,79 -61,171 -62,260 0,129 45,294 171,358 21,11 32,26 32,42 0,13 -9,26 -27,37 -22,12 -46,18 -70,18 -33,0 -67,-11 -96,-28 -150,-89 -212,-262 -212,-427 0,-101 22,-202 70,-291 96,-179 291,-279 495,-278 77,0 164,11 237,39 97,-31 200,-39 301,-39 122,0 258,18 364,79 94,54 163,144 163,254 0,78 -37,146 -101,192 86,49 129,125 131,222 3,179 -146,276 -316,277 -31,0 -62,-3 -93,-10 -34,-7 -113,-33 -73,-79zm-386 -748c-123,94 -184,259 -184,408 0,73 14,153 50,217 26,48 73,101 133,101 61,0 109,-54 136,-102 36,-65 50,-143 50,-216 0,-150 -61,-314 -185,-408z"/>
 </g>
</svg>
