<?xml version="1.0" encoding="UTF-8"?>
<!DOCTYPE svg PUBLIC "-//W3C//DTD SVG 1.1//EN" "http://www.w3.org/Graphics/SVG/1.1/DTD/svg11.dtd">
<!-- Creator: CorelDRAW X8 -->
<svg xmlns="http://www.w3.org/2000/svg" xml:space="preserve" width="1132px" height="1024px" version="1.1" style="shape-rendering:geometricPrecision; text-rendering:geometricPrecision; image-rendering:optimizeQuality; fill-rule:evenodd; clip-rule:evenodd"
viewBox="0 0 1132 1024"
 xmlns:xlink="http://www.w3.org/1999/xlink">
 <defs>
  <style type="text/css">
   <![CDATA[
    .fil0 {fill:#EF7F1A;fill-rule:nonzero}
   ]]>
  </style>
 </defs>
 <g id="Layer_x0020_1">
  <metadata id="CorelCorpID_0Corel-Layer"/>
  <path class="fil0" d="M759 1024c28,0 57,-7 81,-19 180,-91 292,-271 292,-470 0,-312 -263,-535 -566,-535 -303,0 -566,221 -566,535 0,199 114,381 295,471 22,11 50,18 77,18 27,0 52,-6 73,-19 18,-11 26,-24 26,-37 0,-16 -13,-31 -35,-42 -155,-74 -233,-226 -233,-391 0,-209 131,-424 363,-424 231,0 362,213 362,424 0,165 -78,317 -232,391 -22,11 -35,26 -35,42 0,13 8,26 26,37 21,13 46,19 72,19z"/>
 </g>
</svg>
