<?xml version="1.0" encoding="UTF-8"?>
<!DOCTYPE svg PUBLIC "-//W3C//DTD SVG 1.1//EN" "http://www.w3.org/Graphics/SVG/1.1/DTD/svg11.dtd">
<!-- Creator: CorelDRAW X8 -->
<svg xmlns="http://www.w3.org/2000/svg" xml:space="preserve" width="1132px" height="1024px" version="1.1" style="shape-rendering:geometricPrecision; text-rendering:geometricPrecision; image-rendering:optimizeQuality; fill-rule:evenodd; clip-rule:evenodd"
viewBox="0 0 1132 1024"
 xmlns:xlink="http://www.w3.org/1999/xlink">
 <defs>
  <style type="text/css">
   <![CDATA[
    .fil0 {fill:#996633;fill-rule:nonzero}
   ]]>
  </style>
 </defs>
 <g id="Layer_x0020_1">
  <metadata id="CorelCorpID_0Corel-Layer"/>
  <path class="fil0" d="M436 927c16,7 33,21 35,39 1,17 -12,30 -26,39 -21,13 -46,19 -72,19 -28,0 -55,-6 -78,-17 -183,-92 -297,-280 -295,-481 3,-307 259,-526 566,-526 305,0 559,223 566,526 4,203 -109,386 -292,479 -24,12 -51,19 -80,19 -26,0 -52,-6 -73,-19 -14,-9 -27,-22 -26,-39 2,-18 19,-32 35,-39 157,-76 235,-233 232,-401 -4,-205 -132,-415 -362,-415 -232,1 -362,206 -363,415 0,165 78,326 233,401z"/>
 </g>
</svg>
