<?xml version="1.0" encoding="UTF-8"?>
<!DOCTYPE svg PUBLIC "-//W3C//DTD SVG 1.1//EN" "http://www.w3.org/Graphics/SVG/1.1/DTD/svg11.dtd">
<!-- Creator: CorelDRAW X8 -->
<svg xmlns="http://www.w3.org/2000/svg" xml:space="preserve" width="1132px" height="1024px" version="1.1" style="shape-rendering:geometricPrecision; text-rendering:geometricPrecision; image-rendering:optimizeQuality; fill-rule:evenodd; clip-rule:evenodd"
viewBox="0 0 1132 1024"
 xmlns:xlink="http://www.w3.org/1999/xlink">
 <defs>
  <style type="text/css">
   <![CDATA[
    .fil0 {fill:#A82682;fill-rule:nonzero}
   ]]>
  </style>
 </defs>
 <g id="Layer_x0020_1">
  <metadata id="CorelCorpID_0Corel-Layer"/>
  <path class="fil0" d="M436 926c39,19 49,54 9,79 -42,26 -106,23 -150,1 -183,-91 -297,-279 -295,-480 3,-307 259,-526 566,-526 305,0 559,223 566,526 4,203 -109,386 -292,479 -46,23 -109,28 -153,0 -40,-25 -30,-60 9,-79 157,-75 235,-232 232,-400 -4,-205 -132,-415 -362,-415 -232,1 -362,206 -363,415 0,165 78,326 233,400z"/>
 </g>
</svg>
