<?xml version="1.0" encoding="UTF-8"?>
<!DOCTYPE svg PUBLIC "-//W3C//DTD SVG 1.1//EN" "http://www.w3.org/Graphics/SVG/1.1/DTD/svg11.dtd">
<!-- Creator: CorelDRAW X8 -->
<svg xmlns="http://www.w3.org/2000/svg" xml:space="preserve" width="700px" height="600px" version="1.1" style="shape-rendering:geometricPrecision; text-rendering:geometricPrecision; image-rendering:optimizeQuality; fill-rule:evenodd; clip-rule:evenodd"
viewBox="0 0 700 600"
 xmlns:xlink="http://www.w3.org/1999/xlink">
 <defs>
  <style type="text/css">
   <![CDATA[
    .fil0 {fill:#A82682;fill-rule:nonzero}
   ]]>
  </style>
 </defs>
 <g id="Layer_x0020_1">
  <metadata id="CorelCorpID_0Corel-Layer"/>
  <path class="fil0" d="M282 540c24,11 30,32 6,47 -30,18 -80,16 -110,1 -109,-52 -179,-160 -178,-280 2,-189 167,-308 350,-308 182,0 346,121 350,308 3,121 -67,226 -176,279 -31,16 -81,19 -112,0 -24,-15 -18,-36 6,-47 92,-43 141,-133 139,-232 -7,-318 -413,-316 -414,0 0,97 48,190 139,232z"/>
 </g>
</svg>
