<?xml version="1.0" encoding="UTF-8"?>
<!DOCTYPE svg PUBLIC "-//W3C//DTD SVG 1.1//EN" "http://www.w3.org/Graphics/SVG/1.1/DTD/svg11.dtd">
<!-- Creator: CorelDRAW X8 -->
<svg xmlns="http://www.w3.org/2000/svg" xml:space="preserve" width="700px" height="600px" version="1.1" style="shape-rendering:geometricPrecision; text-rendering:geometricPrecision; image-rendering:optimizeQuality; fill-rule:evenodd; clip-rule:evenodd"
viewBox="0 0 700 600"
 xmlns:xlink="http://www.w3.org/1999/xlink">
 <defs>
  <style type="text/css">
   <![CDATA[
    .fil0 {fill:#996633;fill-rule:nonzero}
   ]]>
  </style>
 </defs>
 <g id="Layer_x0020_1">
  <metadata id="CorelCorpID_0Corel-Layer"/>
  <path class="fil0" d="M282 540c9,5 20,13 21,24 1,10 -7,18 -15,23 -15,9 -34,13 -53,13 -21,0 -42,-4 -57,-12 -109,-52 -179,-160 -178,-280 2,-189 167,-308 350,-308 182,0 346,121 350,308 3,121 -67,226 -176,279 -16,8 -37,13 -58,13 -20,0 -39,-4 -54,-13 -8,-5 -16,-13 -15,-23 1,-11 12,-19 21,-24 92,-43 141,-133 139,-232 -7,-318 -413,-316 -414,0 0,97 48,190 139,232z"/>
 </g>
</svg>
