<?xml version="1.0" encoding="UTF-8"?>
<!DOCTYPE svg PUBLIC "-//W3C//DTD SVG 1.1//EN" "http://www.w3.org/Graphics/SVG/1.1/DTD/svg11.dtd">
<!-- Creator: CorelDRAW X8 -->
<svg xmlns="http://www.w3.org/2000/svg" xml:space="preserve" width="2724px" height="1486px" version="1.1" style="shape-rendering:geometricPrecision; text-rendering:geometricPrecision; image-rendering:optimizeQuality; fill-rule:evenodd; clip-rule:evenodd"
viewBox="0 0 2724 1486"
 xmlns:xlink="http://www.w3.org/1999/xlink">
 <defs>
  <style type="text/css">
   <![CDATA[
    .fil0 {fill:#5B5A50;fill-rule:nonzero}
   ]]>
  </style>
 </defs>
 <g id="Layer_x0020_1">
  <metadata id="CorelCorpID_0Corel-Layer"/>
  <path class="fil0" d="M797 927c39,18 49,53 10,78 -43,27 -106,24 -151,2 -183,-92 -297,-280 -295,-481 3,-307 259,-526 566,-526 305,0 559,223 566,526 5,203 -108,386 -292,479 -46,23 -109,28 -153,0 -40,-25 -30,-60 9,-78 157,-76 236,-233 232,-401 -4,-205 -132,-415 -362,-415 -232,1 -362,206 -363,415 0,165 78,326 233,401zm770 -400c2,-314 265,-532 575,-527 351,5 582,254 582,595 0,205 -75,385 -224,529 -299,287 -811,372 -1213,361 -316,-8 -686,-82 -947,-268 -221,-158 -338,-376 -340,-645 -2,-231 106,-432 307,-554 39,-24 104,-23 143,-3 39,21 44,55 5,79 -170,104 -252,284 -251,478 1,221 83,410 258,551 220,179 548,245 827,253 362,10 829,-59 1077,-347 106,-124 154,-275 154,-436 -1,-232 -114,-477 -381,-481 -236,-3 -368,202 -369,415 -1,165 78,324 233,399 39,19 49,54 9,79 -43,27 -106,24 -150,2 -184,-93 -297,-278 -295,-480z"/>
 </g>
</svg>
