<?xml version="1.0" encoding="UTF-8"?>
<!DOCTYPE svg PUBLIC "-//W3C//DTD SVG 1.1//EN" "http://www.w3.org/Graphics/SVG/1.1/DTD/svg11.dtd">
<!-- Creator: CorelDRAW X8 -->
<svg xmlns="http://www.w3.org/2000/svg" xml:space="preserve" width="2725px" height="1486px" version="1.1" style="shape-rendering:geometricPrecision; text-rendering:geometricPrecision; image-rendering:optimizeQuality; fill-rule:evenodd; clip-rule:evenodd"
viewBox="0 0 2725 1487"
 xmlns:xlink="http://www.w3.org/1999/xlink">
 <defs>
  <style type="text/css">
   <![CDATA[
    .fil0 {fill:#2B2A29;fill-rule:nonzero}
   ]]>
  </style>
 </defs>
 <g id="Layer_x0020_1">
  <metadata id="CorelCorpID_0Corel-Layer"/>
  <path class="fil0" d="M1361 1487c392,0 857,-93 1140,-364 149,-143 224,-326 224,-531 0,-349 -240,-592 -590,-592 -305,0 -567,216 -567,531 0,201 113,384 295,475 22,12 50,18 77,18 26,0 52,-6 73,-19 18,-11 26,-24 26,-37 0,-16 -13,-31 -35,-42 -154,-75 -233,-232 -233,-397 0,-214 132,-417 364,-417 267,0 385,244 385,480 0,164 -46,312 -153,437 -232,269 -655,347 -1006,347 -306,-3 -653,-53 -899,-253 -175,-141 -258,-333 -258,-557 0,-192 82,-369 251,-472 19,-11 27,-25 27,-38 0,-15 -11,-30 -31,-41 -20,-10 -45,-15 -71,-15 -26,0 -53,6 -73,18 -198,121 -307,318 -307,548 0,271 120,494 340,650 289,206 674,265 1021,271zm-240 -463c28,0 57,-6 81,-18 180,-92 292,-272 292,-471 0,-312 -264,-535 -566,-535 -304,0 -566,221 -566,535 0,199 114,381 295,471 22,12 50,18 77,18 27,0 52,-6 73,-18 18,-12 26,-25 26,-38 0,-16 -13,-31 -35,-42 -155,-74 -233,-226 -233,-391 1,-209 131,-423 363,-424 230,0 362,213 362,424 0,165 -78,317 -232,391 -22,11 -35,26 -35,42 0,13 8,26 26,38 21,12 46,18 72,18z"/>
 </g>
</svg>
