<?xml version="1.0" encoding="UTF-8"?>
<!DOCTYPE svg PUBLIC "-//W3C//DTD SVG 1.1//EN" "http://www.w3.org/Graphics/SVG/1.1/DTD/svg11.dtd">
<!-- Creator: CorelDRAW X8 -->
<svg xmlns="http://www.w3.org/2000/svg" xml:space="preserve" width="2684px" height="1486px" version="1.1" style="shape-rendering:geometricPrecision; text-rendering:geometricPrecision; image-rendering:optimizeQuality; fill-rule:evenodd; clip-rule:evenodd"
viewBox="0 0 2704 1498"
 xmlns:xlink="http://www.w3.org/1999/xlink">
 <defs>
  <style type="text/css">
   <![CDATA[
    .fil0 {fill:#669933;fill-rule:nonzero}
   ]]>
  </style>
 </defs>
 <g id="Layer_x0020_1">
  <metadata id="CorelCorpID_0Corel-Layer"/>
  <path class="fil0" d="M770 951c34,17 37,46 7,65 -35,23 -86,19 -122,1 -182,-93 -293,-284 -291,-487 2,-304 247,-530 550,-530 300,0 544,230 550,530 5,205 -106,391 -288,485 -38,20 -88,25 -125,1 -30,-19 -27,-48 7,-65 167,-82 244,-249 241,-421 -4,-218 -139,-438 -385,-438 -249,0 -385,217 -385,438 -1,169 76,340 241,421zm808 -421c-1,203 110,394 291,487 37,18 87,22 123,-1 30,-19 27,-48 -8,-65 -164,-81 -241,-252 -241,-421 1,-221 136,-438 385,-438 291,-1 418,263 410,527 -5,177 -63,317 -156,427 -249,294 -719,372 -1104,361 -300,-9 -630,-82 -850,-263 -158,-130 -261,-315 -263,-570 -1,-198 81,-386 258,-497 31,-19 30,-47 -3,-64 -33,-18 -85,-17 -116,2 -211,130 -306,340 -304,559 3,296 139,507 339,652 256,186 622,262 939,271 396,10 906,-75 1203,-365 132,-128 217,-296 223,-513 10,-349 -217,-619 -576,-619 -297,0 -547,222 -550,530z"/>
 </g>
</svg>
