<?xml version="1.0" encoding="UTF-8"?>
<!DOCTYPE svg PUBLIC "-//W3C//DTD SVG 1.1//EN" "http://www.w3.org/Graphics/SVG/1.1/DTD/svg11.dtd">
<!-- Creator: CorelDRAW X8 -->
<svg xmlns="http://www.w3.org/2000/svg" xml:space="preserve" width="2724px" height="1486px" version="1.1" style="shape-rendering:geometricPrecision; text-rendering:geometricPrecision; image-rendering:optimizeQuality; fill-rule:evenodd; clip-rule:evenodd"
viewBox="0 0 2724 1486"
 xmlns:xlink="http://www.w3.org/1999/xlink">
 <defs>
  <style type="text/css">
   <![CDATA[
    .fil0 {fill:#A82682;fill-rule:nonzero}
   ]]>
  </style>
 </defs>
 <g id="Layer_x0020_1">
  <metadata id="CorelCorpID_0Corel-Layer"/>
  <path class="fil0" d="M797 926c39,19 49,54 10,79 -43,26 -106,23 -150,1 -184,-91 -297,-279 -296,-480 3,-307 259,-526 566,-526 305,0 559,223 566,526 5,203 -108,386 -292,479 -46,23 -109,28 -153,0 -40,-25 -30,-60 9,-79 157,-75 236,-232 232,-400 -4,-205 -132,-415 -362,-415 -232,1 -362,206 -362,415 -1,165 77,326 232,400zm770 -400c2,-313 265,-531 575,-526 350,5 582,254 582,595 0,205 -75,385 -224,528 -299,287 -811,373 -1213,362 -316,-8 -686,-83 -947,-269 -221,-157 -337,-375 -340,-644 -2,-232 107,-432 307,-554 39,-24 104,-23 144,-3 39,21 43,55 4,79 -170,104 -252,284 -251,478 1,221 83,410 258,551 220,179 548,244 827,252 362,11 829,-58 1077,-346 106,-124 154,-275 153,-437 0,-231 -113,-476 -380,-480 -236,-3 -368,202 -369,414 -1,166 78,325 233,400 39,19 49,54 9,79 -43,27 -106,24 -150,1 -184,-92 -297,-277 -295,-480z"/>
 </g>
</svg>
