<?xml version="1.0" encoding="UTF-8"?>
<!DOCTYPE svg PUBLIC "-//W3C//DTD SVG 1.1//EN" "http://www.w3.org/Graphics/SVG/1.1/DTD/svg11.dtd">
<!-- Creator: CorelDRAW X8 -->
<svg xmlns="http://www.w3.org/2000/svg" xml:space="preserve" width="1297px" height="1000px" version="1.1" style="shape-rendering:geometricPrecision; text-rendering:geometricPrecision; image-rendering:optimizeQuality; fill-rule:evenodd; clip-rule:evenodd"
viewBox="0 0 1297 1001"
 xmlns:xlink="http://www.w3.org/1999/xlink">
 <defs>
  <style type="text/css">
   <![CDATA[
    .fil0 {fill:#996633;fill-rule:nonzero}
   ]]>
  </style>
 </defs>
 <g id="Layer_x0020_1">
  <metadata id="CorelCorpID_0Corel-Layer"/>
  <path class="fil0" d="M1094 56c0,-42 69,-56 102,-56 32,0 101,14 101,56l0 889c0,42 -70,56 -102,56l-1094 0c-34,0 -101,-16 -101,-60l0 -586c0,-108 49,-191 122,-249 93,-74 221,-106 333,-106 112,0 222,30 304,89 80,59 134,146 134,264l0 259c0,19 -14,32 -33,41 -22,10 -51,14 -68,14l-589 0 0 222 891 0 0 -833zm-404 500l0 -203c0,-73 -26,-134 -69,-177 -42,-41 -100,-65 -167,-65 -66,0 -130,23 -178,68 -45,43 -73,103 -73,176l0 201 487 0z"/>
 </g>
</svg>
