<?xml version="1.0" encoding="UTF-8"?>
<!DOCTYPE svg PUBLIC "-//W3C//DTD SVG 1.1//EN" "http://www.w3.org/Graphics/SVG/1.1/DTD/svg11.dtd">
<!-- Creator: CorelDRAW X8 -->
<svg xmlns="http://www.w3.org/2000/svg" xml:space="preserve" width="2275px" height="1412px" version="1.1" style="shape-rendering:geometricPrecision; text-rendering:geometricPrecision; image-rendering:optimizeQuality; fill-rule:evenodd; clip-rule:evenodd"
viewBox="0 0 2275 1412"
 xmlns:xlink="http://www.w3.org/1999/xlink">
 <defs>
  <style type="text/css">
   <![CDATA[
    .fil0 {fill:#A82682;fill-rule:nonzero}
   ]]>
  </style>
 </defs>
 <g id="Layer_x0020_1">
  <metadata id="CorelCorpID_0Corel-Layer"/>
  <path class="fil0" d="M1185 0c111,1 213,38 291,117 86,-84 207,-118 324,-117 137,1 272,43 362,149 84,99 113,233 113,359 0,109 -23,227 -87,318 -124,174 -361,227 -564,227l-1306 0c-65,0 -113,34 -113,101 0,64 50,100 113,100l1780 0c46,0 102,28 102,79 0,51 -56,79 -102,79l-1780 0c-153,0 -315,-60 -317,-233 -1,-168 169,-237 317,-237l1306 0c147,0 285,-29 375,-156 55,-77 73,-186 74,-278 0,-107 -22,-228 -94,-312 -46,-54 -107,-84 -180,-85 -147,-1 -220,108 -220,258l0 397c0,41 -70,55 -102,55 -32,0 -101,-14 -101,-55l0 -397c0,-114 -54,-257 -191,-257 -140,0 -193,142 -193,258l0 396c0,42 -69,56 -101,56 -33,0 -101,-14 -101,-56l0 -365c0,-187 -101,-293 -291,-291 -63,1 -136,16 -187,54 -44,31 -81,75 -96,127 39,-22 83,-33 128,-34 83,-3 175,18 241,71 63,51 96,132 96,212 -1,80 -36,151 -98,202 -65,53 -154,80 -238,80 -130,0 -239,-50 -300,-167 -43,-82 -51,-180 -41,-270 12,-105 54,-199 136,-269 98,-83 232,-114 358,-116 134,-2 284,24 384,119 79,-81 189,-120 303,-119zm-967 540c0,75 38,169 128,166 88,-3 132,-89 132,-166 0,-78 -43,-168 -132,-167 -88,2 -128,91 -128,167z"/>
 </g>
</svg>
