<?xml version="1.0" encoding="UTF-8"?>
<!DOCTYPE svg PUBLIC "-//W3C//DTD SVG 1.1//EN" "http://www.w3.org/Graphics/SVG/1.1/DTD/svg11.dtd">
<!-- Creator: CorelDRAW X8 -->
<svg xmlns="http://www.w3.org/2000/svg" xml:space="preserve" width="2276px" height="1412px" version="1.1" style="shape-rendering:geometricPrecision; text-rendering:geometricPrecision; image-rendering:optimizeQuality; fill-rule:evenodd; clip-rule:evenodd"
viewBox="0 0 2276 1412"
 xmlns:xlink="http://www.w3.org/1999/xlink">
 <defs>
  <style type="text/css">
   <![CDATA[
    .fil0 {fill:#2B2A29;fill-rule:nonzero}
   ]]>
  </style>
 </defs>
 <g id="Layer_x0020_1">
  <metadata id="CorelCorpID_0Corel-Layer"/>
  <path class="fil0" d="M2126 1412c47,0 102,-28 102,-78 0,-52 -55,-80 -102,-80l-1808 0c-63,0 -113,-36 -113,-100 0,-66 48,-100 113,-100l1307 0c203,0 440,-54 564,-227 65,-91 87,-210 87,-319 0,-126 -28,-260 -113,-359 -91,-108 -225,-148 -365,-149 -115,0 -236,34 -321,117 -78,-80 -177,-117 -291,-117 -114,0 -226,39 -304,119 -97,-92 -248,-119 -378,-119 -136,1 -263,30 -364,116 -100,86 -140,207 -140,337 0,70 13,140 45,202 60,117 170,167 300,167 84,0 173,-27 237,-80 63,-51 98,-122 99,-202 0,-80 -33,-161 -96,-212 -62,-50 -147,-71 -226,-71 -55,1 -96,7 -143,34 35,-121 162,-180 288,-181 187,0 286,106 286,291l0 365c0,42 68,56 102,56 32,0 100,-14 100,-56l0 -396c0,-116 54,-258 194,-258 137,0 191,143 191,257l0 397c0,41 69,55 101,55 32,0 102,-14 102,-55l0 -397c0,-149 72,-258 218,-258 74,0 136,30 182,85 72,84 94,206 94,312 -1,92 -19,201 -74,278 -90,127 -228,156 -375,156l-1307 0c-148,0 -317,70 -317,236 1,174 162,234 317,234l1808 0zm-1784 -706c-87,0 -124,-92 -124,-166 0,-75 40,-167 129,-167 88,0 131,89 131,167 0,80 -47,166 -136,166z"/>
 </g>
</svg>
