<?xml version="1.0" encoding="UTF-8"?>
<!DOCTYPE svg PUBLIC "-//W3C//DTD SVG 1.1//EN" "http://www.w3.org/Graphics/SVG/1.1/DTD/svg11.dtd">
<!-- Creator: CorelDRAW X8 -->
<svg xmlns="http://www.w3.org/2000/svg" xml:space="preserve" width="2470px" height="1412px" version="1.1" style="shape-rendering:geometricPrecision; text-rendering:geometricPrecision; image-rendering:optimizeQuality; fill-rule:evenodd; clip-rule:evenodd"
viewBox="0 0 2470 1412"
 xmlns:xlink="http://www.w3.org/1999/xlink">
 <defs>
  <style type="text/css">
   <![CDATA[
    .fil0 {fill:#A82682;fill-rule:nonzero}
   ]]>
  </style>
 </defs>
 <g id="Layer_x0020_1">
  <metadata id="CorelCorpID_0Corel-Layer"/>
  <path class="fil0" d="M1329 216c116,-180 354,-215 554,-216 138,-1 301,19 423,90 86,50 152,141 152,243 1,90 -53,157 -130,201 90,49 146,129 142,233 -9,222 -246,286 -432,286l-458 0c-65,0 -113,34 -113,100 0,65 50,101 113,101l737 0c47,0 102,28 102,79 0,51 -55,79 -102,79l-2000 0c-153,0 -316,-60 -317,-233 -1,-169 169,-237 317,-237l458 0c114,0 225,-46 229,-175 3,-59 -23,-115 -73,-148 -35,-23 -68,-29 -110,-29 -34,0 -81,-16 -81,-56 0,-41 47,-56 81,-56 44,0 88,-9 122,-38 33,-28 50,-65 50,-107 0,-66 -40,-133 -97,-166 -77,-45 -189,-56 -276,-56 -88,1 -186,10 -266,49 -55,27 -108,67 -131,126 38,-19 80,-29 123,-30 83,-3 171,19 236,71 65,54 96,129 96,212 0,71 -30,138 -81,188 -66,64 -159,93 -250,94 -105,2 -204,-30 -271,-113 -58,-71 -77,-164 -76,-254 1,-82 20,-167 66,-238 116,-180 354,-215 554,-216 138,-1 301,19 422,90 87,50 153,141 153,243 0,90 -53,157 -130,201 90,49 146,129 142,233 -9,222 -246,286 -432,286l-458 0c-65,0 -113,34 -113,100 0,65 50,101 113,101l958 0c-7,-23 -12,-47 -12,-75 -1,-169 169,-237 317,-237l458 0c115,0 225,-46 230,-175 2,-59 -24,-115 -74,-148 -35,-23 -68,-29 -110,-29 -34,0 -81,-16 -81,-56 0,-41 47,-56 81,-56 44,0 88,-9 122,-38 33,-28 50,-65 50,-107 0,-66 -39,-133 -97,-166 -77,-45 -188,-56 -276,-56 -88,1 -186,10 -266,49 -55,27 -107,67 -131,126 38,-19 80,-29 123,-30 83,-3 171,19 236,71 66,54 97,129 97,212 0,71 -31,138 -82,188 -65,64 -159,93 -250,94 -104,2 -204,-30 -271,-113 -57,-71 -77,-164 -76,-254 1,-82 20,-167 66,-238zm278 157c-86,0 -130,85 -129,169 1,83 43,164 129,164 86,0 129,-83 130,-166 0,-83 -43,-167 -130,-167zm-1263 0c-87,0 -130,85 -129,169 1,83 43,164 129,164 86,0 129,-83 129,-166 1,-83 -42,-167 -129,-167z"/>
 </g>
</svg>
