<?xml version="1.0" encoding="UTF-8"?>
<!DOCTYPE svg PUBLIC "-//W3C//DTD SVG 1.1//EN" "http://www.w3.org/Graphics/SVG/1.1/DTD/svg11.dtd">
<!-- Creator: CorelDRAW X8 -->
<svg xmlns="http://www.w3.org/2000/svg" xml:space="preserve" width="1552px" height="1012px" version="1.1" style="shape-rendering:geometricPrecision; text-rendering:geometricPrecision; image-rendering:optimizeQuality; fill-rule:evenodd; clip-rule:evenodd"
viewBox="0 0 1552 1012"
 xmlns:xlink="http://www.w3.org/1999/xlink">
 <defs>
  <style type="text/css">
   <![CDATA[
    .fil0 {fill:#EF7F1A;fill-rule:nonzero}
   ]]>
  </style>
 </defs>
 <g id="Layer_x0020_1">
  <metadata id="CorelCorpID_0Corel-Layer"/>
  <path class="fil0" d="M372 1012c26,0 52,-6 73,-19 18,-11 26,-23 26,-36 0,-16 -13,-31 -35,-42 -154,-73 -232,-237 -232,-399 0,-215 133,-406 362,-406 228,0 362,193 362,406 0,164 -79,315 -232,388 -16,8 -34,21 -34,40 0,43 69,56 102,56l686 0c33,0 102,-14 102,-55l0 -889c0,-42 -69,-56 -102,-56 -32,0 -101,14 -101,56l0 833 -377 0c103,-97 160,-233 160,-373 0,-313 -267,-516 -566,-516 -299,0 -566,201 -566,516 0,197 114,389 296,479 22,11 49,17 76,17z"/>
 </g>
</svg>
