<?xml version="1.0" encoding="UTF-8"?>
<!DOCTYPE svg PUBLIC "-//W3C//DTD SVG 1.1//EN" "http://www.w3.org/Graphics/SVG/1.1/DTD/svg11.dtd">
<!-- Creator: CorelDRAW X8 -->
<svg xmlns="http://www.w3.org/2000/svg" xml:space="preserve" width="1894px" height="1486px" version="1.1" style="shape-rendering:geometricPrecision; text-rendering:geometricPrecision; image-rendering:optimizeQuality; fill-rule:evenodd; clip-rule:evenodd"
viewBox="0 0 1894 1487"
 xmlns:xlink="http://www.w3.org/1999/xlink">
 <defs>
  <style type="text/css">
   <![CDATA[
    .fil0 {fill:#2B2A29;fill-rule:nonzero}
   ]]>
  </style>
 </defs>
 <g id="Layer_x0020_1">
  <metadata id="CorelCorpID_0Corel-Layer"/>
  <path class="fil0" d="M1050 1487c303,0 844,-108 844,-492l0 -939c0,-42 -69,-56 -102,-56 -32,0 -101,14 -101,56l0 833 -376 0c102,-97 159,-226 159,-366 0,-313 -267,-523 -566,-523 -297,0 -567,201 -567,514 0,198 113,390 296,481 22,11 49,17 76,17 27,0 53,-6 74,-19 17,-10 25,-23 25,-35 0,-16 -13,-32 -35,-43 -154,-73 -232,-239 -232,-401 0,-215 133,-404 363,-404 231,0 362,199 362,413 0,162 -80,308 -232,381 -16,7 -34,21 -34,39l0 3c0,41 72,54 102,54l584 0c-4,287 -413,375 -640,375 -223,0 -445,-59 -612,-211 -159,-143 -236,-335 -236,-548 0,-192 66,-409 229,-526 15,-11 21,-22 21,-33 0,-18 -16,-35 -39,-45 -18,-8 -40,-12 -62,-12 -30,0 -60,7 -80,22 -188,134 -271,370 -271,594 0,268 107,496 327,659 207,152 468,212 723,212z"/>
 </g>
</svg>
