<?xml version="1.0" encoding="UTF-8"?>
<!DOCTYPE svg PUBLIC "-//W3C//DTD SVG 1.1//EN" "http://www.w3.org/Graphics/SVG/1.1/DTD/svg11.dtd">
<!-- Creator: CorelDRAW X8 -->
<svg xmlns="http://www.w3.org/2000/svg" xml:space="preserve" width="952px" height="593px" version="1.1" style="shape-rendering:geometricPrecision; text-rendering:geometricPrecision; image-rendering:optimizeQuality; fill-rule:evenodd; clip-rule:evenodd"
viewBox="0 0 952 593"
 xmlns:xlink="http://www.w3.org/1999/xlink">
 <defs>
  <style type="text/css">
   <![CDATA[
    .fil0 {fill:#A82682;fill-rule:nonzero}
   ]]>
  </style>
 </defs>
 <g id="Layer_x0020_1">
  <metadata id="CorelCorpID_0Corel-Layer"/>
  <path class="fil0" d="M607 517l202 0 0 -482c0,-28 51,-35 72,-35 20,0 71,7 71,35l0 517c0,27 -51,34 -71,34l-412 0c-20,0 -74,-7 -72,-35 1,-11 12,-20 21,-24 92,-42 141,-130 139,-228 -2,-116 -79,-231 -207,-231 -129,1 -207,113 -207,231 0,96 48,193 139,235 24,11 31,32 6,46 -30,18 -80,16 -110,2 -109,-52 -179,-164 -178,-283 2,-189 170,-299 350,-299 179,0 346,112 350,299 2,83 -32,161 -93,218z"/>
 </g>
</svg>
