<?xml version="1.0" encoding="UTF-8"?>
<!DOCTYPE svg PUBLIC "-//W3C//DTD SVG 1.1//EN" "http://www.w3.org/Graphics/SVG/1.1/DTD/svg11.dtd">
<!-- Creator: CorelDRAW X8 -->
<svg xmlns="http://www.w3.org/2000/svg" xml:space="preserve" width="1893px" height="1486px" version="1.1" style="shape-rendering:geometricPrecision; text-rendering:geometricPrecision; image-rendering:optimizeQuality; fill-rule:evenodd; clip-rule:evenodd"
viewBox="0 0 1893 1486"
 xmlns:xlink="http://www.w3.org/1999/xlink">
 <defs>
  <style type="text/css">
   <![CDATA[
    .fil0 {fill:#A82682;fill-rule:nonzero}
   ]]>
  </style>
 </defs>
 <g id="Layer_x0020_1">
  <metadata id="CorelCorpID_0Corel-Layer"/>
  <path class="fil0" d="M1314 889l376 0 0 -833c0,-42 69,-56 101,-56 33,0 102,14 102,56l0 939c0,383 -539,491 -841,491 -255,0 -518,-60 -725,-212 -221,-163 -328,-392 -327,-662 1,-222 84,-456 271,-590 36,-26 101,-28 142,-10 37,16 57,50 18,78 -164,118 -230,334 -229,527 2,212 76,403 236,547 167,151 389,210 612,210 226,0 635,-88 639,-374l-584 0c-31,0 -105,-14 -102,-57 1,-18 18,-32 34,-39 156,-75 236,-226 232,-393 -4,-207 -134,-401 -362,-401 -229,0 -362,190 -362,401 -1,163 77,331 232,404 39,19 50,54 10,78 -43,27 -106,24 -150,2 -184,-91 -297,-285 -296,-484 3,-308 264,-511 566,-511 301,0 559,207 566,510 3,144 -54,280 -159,379z"/>
 </g>
</svg>
