<?xml version="1.0" encoding="UTF-8"?>
<!DOCTYPE svg PUBLIC "-//W3C//DTD SVG 1.1//EN" "http://www.w3.org/Graphics/SVG/1.1/DTD/svg11.dtd">
<!-- Creator: CorelDRAW X8 -->
<svg xmlns="http://www.w3.org/2000/svg" xml:space="preserve" width="1758px" height="1024px" version="1.1" style="shape-rendering:geometricPrecision; text-rendering:geometricPrecision; image-rendering:optimizeQuality; fill-rule:evenodd; clip-rule:evenodd"
viewBox="0 0 1758 1024"
 xmlns:xlink="http://www.w3.org/1999/xlink">
 <defs>
  <style type="text/css">
   <![CDATA[
    .fil0 {fill:#EF7F1A;fill-rule:nonzero}
   ]]>
  </style>
 </defs>
 <g id="Layer_x0020_1">
  <metadata id="CorelCorpID_0Corel-Layer"/>
  <path class="fil0" d="M467 1024c338,0 385,-223 385,-501 0,-101 -4,-173 45,-265 52,-98 151,-147 263,-147 87,0 158,24 226,78 -122,21 -235,78 -311,176 -60,79 -92,179 -92,276 0,80 21,162 67,229 72,106 193,153 315,153 131,0 250,-55 319,-167 53,-85 74,-190 74,-289 0,-94 -17,-180 -60,-265 -103,-203 -311,-302 -538,-302 -163,0 -344,56 -439,197 -75,110 -72,199 -71,326 2,135 11,390 -183,390 -182,0 -265,-241 -265,-390 0,-165 82,-362 248,-421 25,-9 46,-27 46,-47 0,-10 -4,-20 -16,-30 -21,-18 -51,-25 -81,-25 -23,0 -47,4 -67,12 -215,80 -332,293 -332,511 0,281 177,501 467,501zm898 -112c-54,0 -98,-39 -126,-81 -37,-55 -53,-124 -53,-190 0,-82 24,-166 76,-233 52,-68 129,-112 217,-116 54,82 76,179 76,275 0,88 -16,177 -63,253 -27,44 -70,93 -127,92z"/>
 </g>
</svg>
