<?xml version="1.0" encoding="UTF-8"?>
<!DOCTYPE svg PUBLIC "-//W3C//DTD SVG 1.1//EN" "http://www.w3.org/Graphics/SVG/1.1/DTD/svg11.dtd">
<!-- Creator: CorelDRAW X8 -->
<svg xmlns="http://www.w3.org/2000/svg" xml:space="preserve" width="1075px" height="600px" version="1.1" style="shape-rendering:geometricPrecision; text-rendering:geometricPrecision; image-rendering:optimizeQuality; fill-rule:evenodd; clip-rule:evenodd"
viewBox="0 0 1075 600"
 xmlns:xlink="http://www.w3.org/1999/xlink">
 <defs>
  <style type="text/css">
   <![CDATA[
    .fil0 {fill:#A82682;fill-rule:nonzero}
   ]]>
  </style>
 </defs>
 <g id="Layer_x0020_1">
  <metadata id="CorelCorpID_0Corel-Layer"/>
  <path class="fil0" d="M827 530c34,0 57,-24 72,-51 22,-39 34,-96 33,-140 0,-55 -13,-117 -43,-164 -47,5 -85,29 -113,67 -27,37 -41,85 -42,131 -1,31 3,64 15,93 14,33 40,64 78,64zm-122 -461c-62,0 -117,30 -146,83 -27,49 -27,109 -27,164 1,185 -28,286 -243,284 -169,-2 -283,-117 -289,-281 -5,-135 69,-263 201,-311 30,-11 81,-13 107,8 24,19 3,39 -19,47 -102,35 -152,156 -147,255 5,84 43,212 149,213 110,1 99,-137 99,-215 -1,-70 1,-140 42,-200 60,-85 172,-116 273,-116 112,-1 227,37 299,125 51,62 72,136 71,214 -1,56 -14,113 -44,161 -45,70 -121,100 -203,99 -78,-1 -153,-26 -198,-91 -27,-39 -40,-86 -40,-133 0,-57 19,-115 55,-161 46,-57 113,-89 185,-102 -36,-27 -80,-43 -125,-43z"/>
 </g>
</svg>
