<?xml version="1.0" encoding="UTF-8"?>
<!DOCTYPE svg PUBLIC "-//W3C//DTD SVG 1.1//EN" "http://www.w3.org/Graphics/SVG/1.1/DTD/svg11.dtd">
<!-- Creator: CorelDRAW X8 -->
<svg xmlns="http://www.w3.org/2000/svg" xml:space="preserve" width="1482px" height="868px" version="1.1" style="shape-rendering:geometricPrecision; text-rendering:geometricPrecision; image-rendering:optimizeQuality; fill-rule:evenodd; clip-rule:evenodd"
viewBox="0 0 1482 868"
 xmlns:xlink="http://www.w3.org/1999/xlink">
 <defs>
  <style type="text/css">
   <![CDATA[
    .fil0 {fill:#A82682;fill-rule:nonzero}
   ]]>
  </style>
 </defs>
 <g id="Layer_x0020_1">
  <metadata id="CorelCorpID_0Corel-Layer"/>
  <path class="fil0" d="M1053 530c34,0 57,-24 72,-51 22,-40 33,-93 33,-138 0,-55 -13,-118 -43,-165 -47,5 -86,29 -113,67 -27,38 -41,86 -42,132 -1,32 3,62 15,91 14,32 40,64 78,64zm168 -414c80,18 147,52 194,104 42,48 67,110 67,189 0,111 -43,206 -125,281 -139,127 -387,177 -571,178 -184,1 -391,-30 -549,-128 -150,-93 -230,-232 -237,-407 -5,-129 40,-251 155,-320 26,-17 77,-17 105,-3 24,11 30,32 6,47 -97,58 -127,170 -123,275 6,146 64,269 187,353 128,88 300,114 453,114 156,-1 376,-42 483,-164 55,-62 82,-138 82,-221 0,-56 -15,-117 -55,-159 6,28 8,57 8,86 -1,57 -14,111 -44,159 -45,71 -121,100 -203,99 -78,0 -153,-26 -198,-91 -27,-39 -40,-84 -40,-131 0,-57 19,-116 55,-161 46,-58 113,-91 185,-104 -36,-26 -80,-43 -125,-43 -62,0 -117,31 -146,84 -28,50 -28,110 -27,165 1,186 -28,284 -243,282 -168,-1 -283,-114 -289,-279 -5,-136 69,-265 200,-313 31,-11 83,-13 108,9 24,19 3,38 -19,46 -102,36 -152,157 -147,257 5,86 41,210 149,211 110,1 99,-135 99,-213 -1,-71 1,-141 42,-201 60,-86 172,-117 272,-117 108,-1 218,34 291,116z"/>
 </g>
</svg>
