<?xml version="1.0" encoding="UTF-8"?>
<!DOCTYPE svg PUBLIC "-//W3C//DTD SVG 1.1//EN" "http://www.w3.org/Graphics/SVG/1.1/DTD/svg11.dtd">
<!-- Creator: CorelDRAW X8 -->
<svg xmlns="http://www.w3.org/2000/svg" xml:space="preserve" width="3696px" height="1486px" version="1.1" style="shape-rendering:geometricPrecision; text-rendering:geometricPrecision; image-rendering:optimizeQuality; fill-rule:evenodd; clip-rule:evenodd"
viewBox="0 0 3696 1486"
 xmlns:xlink="http://www.w3.org/1999/xlink">
 <defs>
  <style type="text/css">
   <![CDATA[
    .fil0 {fill:#A82682;fill-rule:nonzero}
   ]]>
  </style>
 </defs>
 <g id="Layer_x0020_1">
  <metadata id="CorelCorpID_0Corel-Layer"/>
  <path class="fil0" d="M2968 1229c-52,0 -116,4 -165,23 -22,8 -56,26 -57,52 0,27 34,45 56,54 49,18 114,23 166,23 46,0 95,-4 139,-17 26,-7 77,-27 77,-60 0,-32 -50,-51 -75,-59 -45,-13 -94,-16 -141,-16zm-1618 -1196c60,-21 124,-31 187,-32 108,-1 214,27 304,87 139,92 214,246 210,409 -3,153 -76,304 -202,391l420 0c-83,-94 -129,-205 -129,-329 -1,-117 30,-228 99,-323 119,-162 320,-235 518,-236 182,-1 359,56 480,196 323,69 477,354 458,664 -13,203 -109,404 -287,515 -73,46 -163,75 -248,92 -63,12 -127,18 -192,19 -72,1 -152,-7 -222,-25 -72,-19 -189,-69 -188,-157 0,-89 121,-138 194,-157 69,-17 144,-23 216,-23 66,0 132,5 196,20 66,15 160,50 195,111 94,-105 135,-259 139,-396 4,-156 -38,-340 -151,-457 16,60 23,121 22,182 -1,96 -23,189 -74,271 -69,114 -186,170 -319,168 -125,-1 -244,-49 -315,-154 -45,-67 -67,-143 -67,-223 0,-98 32,-199 92,-278 76,-99 189,-156 311,-177 -71,-57 -149,-81 -240,-80 -142,2 -265,66 -342,185 -50,78 -73,169 -73,260 0,145 66,270 189,351 16,11 24,24 23,37 -1,41 -70,55 -101,55l-1312 0c-32,0 -102,-14 -102,-55 0,-42 70,-56 102,-56l349 0c216,0 354,-193 359,-392 2,-112 -39,-230 -123,-308 -50,-47 -117,-78 -188,-76 -14,0 -28,1 -41,4 100,84 163,210 164,339 0,181 -131,296 -313,295 -180,0 -310,-114 -309,-294 0,-130 64,-257 164,-340 -18,-4 -36,-6 -55,-5 -109,4 -200,51 -251,147 -46,85 -46,188 -45,281 2,292 -32,488 -386,485 -281,-3 -457,-216 -466,-480 -8,-226 110,-449 332,-532 44,-17 110,-19 148,13 37,31 6,64 -30,77 -175,62 -256,272 -247,441 7,137 94,369 263,370 202,2 185,-232 184,-374 -1,-119 1,-239 71,-342 92,-137 264,-194 425,-197 69,-1 140,10 204,33zm0 164c-68,67 -108,165 -109,258 0,60 29,182 108,182 79,1 109,-121 109,-182 0,-94 -41,-191 -108,-258zm1740 97c-88,5 -165,49 -217,117 -52,68 -76,152 -76,235 0,66 16,129 54,184 28,42 72,81 125,81 57,1 100,-47 128,-92 44,-71 61,-152 62,-235 2,-102 -20,-203 -76,-290z"/>
 </g>
</svg>
