<?xml version="1.0" encoding="UTF-8"?>
<!DOCTYPE svg PUBLIC "-//W3C//DTD SVG 1.1//EN" "http://www.w3.org/Graphics/SVG/1.1/DTD/svg11.dtd">
<!-- Creator: CorelDRAW X8 -->
<svg xmlns="http://www.w3.org/2000/svg" xml:space="preserve" width="2190px" height="1486px" version="1.1" style="shape-rendering:geometricPrecision; text-rendering:geometricPrecision; image-rendering:optimizeQuality; fill-rule:evenodd; clip-rule:evenodd"
viewBox="0 0 2190 1486"
 xmlns:xlink="http://www.w3.org/1999/xlink">
 <defs>
  <style type="text/css">
   <![CDATA[
    .fil0 {fill:#A82682;fill-rule:nonzero}
   ]]>
  </style>
 </defs>
 <g id="Layer_x0020_1">
  <metadata id="CorelCorpID_0Corel-Layer"/>
  <path class="fil0" d="M316 1192c-52,0 -113,3 -111,69 1,66 57,67 111,67l1725 0c46,0 101,28 101,79 0,51 -55,79 -101,79l-1725 0c-143,0 -320,-33 -316,-209 4,-169 178,-197 316,-197l1487 0c59,0 110,-26 145,-66 29,-34 46,-78 47,-125 0,-46 -16,-101 -53,-131 -13,-10 -36,-19 -53,-18 -34,1 -91,-11 -95,-54 -3,-36 36,-52 66,-57 25,-3 43,-16 56,-34 19,-26 26,-62 28,-94 5,-105 -75,-184 -175,-207 -28,-7 -57,-12 -85,-15 51,90 75,194 75,296 0,98 -23,197 -75,281 -70,114 -189,168 -322,168 -127,0 -241,-48 -312,-154 -46,-67 -67,-149 -67,-230 0,-98 32,-192 92,-271 76,-98 189,-155 310,-179 -66,-52 -142,-78 -227,-78 -111,0 -208,49 -261,148 -45,85 -45,189 -45,283 2,294 -32,485 -386,481 -281,-2 -456,-211 -466,-476 -8,-227 110,-452 332,-536 45,-17 110,-19 148,13 37,32 6,65 -30,78 -174,62 -255,274 -247,444 7,138 95,364 264,366 201,2 184,-228 183,-370 -1,-120 1,-240 71,-345 94,-141 272,-197 437,-198 163,-1 321,52 438,167 85,-5 170,4 253,24 153,36 298,143 290,313 -3,63 -29,122 -76,166 82,46 128,127 127,220 -2,106 -56,194 -149,246 -73,41 -155,56 -238,56l-1487 0zm1161 -900c-86,10 -163,52 -215,121 -51,67 -76,144 -76,227 0,66 16,136 53,191 27,40 71,82 123,82 56,0 103,-48 130,-93 45,-73 63,-160 63,-245 0,-100 -22,-198 -78,-283z"/>
 </g>
</svg>
