<?xml version="1.0" encoding="UTF-8"?>
<!DOCTYPE svg PUBLIC "-//W3C//DTD SVG 1.1//EN" "http://www.w3.org/Graphics/SVG/1.1/DTD/svg11.dtd">
<!-- Creator: CorelDRAW X8 -->
<svg xmlns="http://www.w3.org/2000/svg" xml:space="preserve" width="1463px" height="868px" version="1.1" style="shape-rendering:geometricPrecision; text-rendering:geometricPrecision; image-rendering:optimizeQuality; fill-rule:evenodd; clip-rule:evenodd"
viewBox="0 0 1463 868"
 xmlns:xlink="http://www.w3.org/1999/xlink">
 <defs>
  <style type="text/css">
   <![CDATA[
    .fil0 {fill:#666633;fill-rule:nonzero}
   ]]>
  </style>
 </defs>
 <g id="Layer_x0020_1">
  <metadata id="CorelCorpID_0Corel-Layer"/>
  <path class="fil0" d="M1044 540c37,1 63,-23 81,-55 25,-45 34,-106 34,-145 -1,-63 -16,-127 -47,-173 -58,4 -100,32 -129,72 -27,39 -41,88 -43,136 -1,34 5,68 16,96 17,41 47,69 88,69zm161 -424c150,33 258,127 258,292 0,112 -42,207 -124,283 -137,127 -382,176 -563,177 -181,1 -386,-30 -541,-127 -149,-94 -228,-234 -235,-409 -5,-129 39,-252 152,-321 23,-14 68,-14 92,-3 20,10 25,28 5,40 -99,60 -130,174 -126,283 6,149 65,275 189,361 131,91 306,118 462,117 159,0 383,-42 492,-168 56,-65 83,-142 82,-227 0,-78 -26,-147 -81,-185 11,35 15,73 15,111 -1,56 -14,114 -44,162 -43,69 -115,98 -194,98 -74,-1 -145,-26 -188,-89 -27,-39 -40,-87 -40,-134 0,-58 20,-116 55,-162 47,-60 117,-93 192,-104 -39,-32 -91,-52 -142,-52 -65,0 -124,31 -155,89 -28,51 -28,112 -28,168 2,181 -22,286 -232,285 -165,-2 -274,-120 -280,-282 -5,-134 67,-264 196,-312 26,-9 72,-12 94,7 20,16 3,33 -16,39 -105,37 -157,161 -151,266 2,36 5,83 26,125 27,53 76,97 132,98 120,1 110,-141 109,-226 -1,-70 1,-140 42,-201 58,-84 166,-115 263,-115 106,-1 213,34 284,116z"/>
 </g>
</svg>
