<?xml version="1.0" encoding="UTF-8"?>
<!DOCTYPE svg PUBLIC "-//W3C//DTD SVG 1.1//EN" "http://www.w3.org/Graphics/SVG/1.1/DTD/svg11.dtd">
<!-- Creator: CorelDRAW X8 -->
<svg xmlns="http://www.w3.org/2000/svg" xml:space="preserve" width="2074px" height="1486px" version="1.1" style="shape-rendering:geometricPrecision; text-rendering:geometricPrecision; image-rendering:optimizeQuality; fill-rule:evenodd; clip-rule:evenodd"
viewBox="0 0 2074 1486"
 xmlns:xlink="http://www.w3.org/1999/xlink">
 <defs>
  <style type="text/css">
   <![CDATA[
    .fil0 {fill:#A82682;fill-rule:nonzero}
   ]]>
  </style>
 </defs>
 <g id="Layer_x0020_1">
  <metadata id="CorelCorpID_0Corel-Layer"/>
  <path class="fil0" d="M1480 292c-88,4 -165,48 -218,116 -51,67 -76,151 -76,233 0,66 16,135 54,190 28,42 72,80 125,81 57,0 100,-48 128,-92 44,-71 62,-158 63,-240 1,-101 -20,-202 -76,-288zm137 -107c95,14 188,50 264,109 128,101 196,256 193,416 -2,95 -30,188 -84,267 -105,152 -275,213 -453,213l-1220 0c-53,0 -113,4 -111,70 1,66 57,68 111,68l1603 0c46,0 102,28 102,79 0,51 -56,79 -102,79l-1603 0c-142,0 -320,-34 -316,-209 4,-170 178,-198 316,-198l1220 0c112,0 203,-51 266,-144 44,-67 67,-148 68,-227 2,-95 -25,-195 -82,-273 -18,-24 -39,-47 -63,-67 24,68 33,139 32,212 -1,95 -23,194 -74,276 -69,113 -186,168 -319,167 -125,-1 -244,-49 -315,-153 -45,-67 -67,-149 -67,-229 0,-97 32,-197 93,-276 75,-98 188,-155 311,-176 -68,-54 -142,-78 -229,-78 -111,0 -208,49 -261,147 -45,85 -45,188 -45,281 2,292 -32,488 -386,485 -280,-3 -456,-216 -465,-480 -8,-225 110,-449 332,-532 44,-17 110,-19 147,13 37,31 6,64 -29,77 -175,62 -256,272 -248,441 7,137 95,369 264,370 201,2 184,-232 183,-374 -1,-119 1,-239 71,-342 95,-140 272,-196 437,-197 178,-1 345,60 459,185z"/>
 </g>
</svg>
