<?xml version="1.0" encoding="UTF-8"?>
<!DOCTYPE svg PUBLIC "-//W3C//DTD SVG 1.1//EN" "http://www.w3.org/Graphics/SVG/1.1/DTD/svg11.dtd">
<!-- Creator: CorelDRAW X8 -->
<svg xmlns="http://www.w3.org/2000/svg" xml:space="preserve" width="2444px" height="1024px" version="1.1" style="shape-rendering:geometricPrecision; text-rendering:geometricPrecision; image-rendering:optimizeQuality; fill-rule:evenodd; clip-rule:evenodd"
viewBox="0 0 2444 1025"
 xmlns:xlink="http://www.w3.org/1999/xlink">
 <defs>
  <style type="text/css">
   <![CDATA[
    .fil0 {fill:#669933;fill-rule:nonzero}
   ]]>
  </style>
 </defs>
 <g id="Layer_x0020_1">
  <metadata id="CorelCorpID_0Corel-Layer"/>
  <path class="fil0" d="M1331 36c58,-23 122,-34 187,-35 107,-1 206,29 288,85 92,62 161,156 191,275 22,89 20,185 -6,274 -36,122 -109,213 -204,273l494 0 0 -862c0,-26 36,-46 81,-46 45,0 82,20 82,46l0 908c0,25 -36,45 -82,45l-1241 0c-45,0 -81,-20 -81,-45 0,-25 36,-46 81,-46l350 0c178,0 310,-122 359,-288 24,-80 26,-166 5,-247 -18,-74 -57,-145 -111,-197 -57,-55 -130,-86 -206,-84 -23,0 -47,4 -71,11 106,83 174,216 174,351 1,171 -116,291 -292,291 -176,0 -291,-120 -290,-291 1,-135 69,-269 175,-351 -29,-9 -57,-13 -87,-12 -114,4 -214,53 -269,158 -46,88 -46,194 -46,291 2,277 -20,488 -365,485 -275,-3 -438,-226 -447,-480 -7,-226 107,-452 324,-535 36,-14 89,-16 119,11 25,21 14,49 -23,63 -181,65 -266,281 -257,461 8,156 103,387 284,389 220,2 204,-236 203,-394 -1,-121 1,-242 70,-346 86,-130 245,-191 407,-194 68,-1 141,11 204,36zm-1 133c-79,69 -128,179 -128,285 -1,77 34,197 127,198 93,0 130,-121 129,-198 0,-106 -48,-216 -128,-285z"/>
 </g>
</svg>
