<?xml version="1.0" encoding="UTF-8"?>
<!DOCTYPE svg PUBLIC "-//W3C//DTD SVG 1.1//EN" "http://www.w3.org/Graphics/SVG/1.1/DTD/svg11.dtd">
<!-- Creator: CorelDRAW X8 -->
<svg xmlns="http://www.w3.org/2000/svg" xml:space="preserve" width="2086px" height="1486px" version="1.1" style="shape-rendering:geometricPrecision; text-rendering:geometricPrecision; image-rendering:optimizeQuality; fill-rule:evenodd; clip-rule:evenodd"
viewBox="0 0 2086 1487"
 xmlns:xlink="http://www.w3.org/1999/xlink">
 <defs>
  <style type="text/css">
   <![CDATA[
    .fil0 {fill:#2B2A29;fill-rule:nonzero}
   ]]>
  </style>
 </defs>
 <g id="Layer_x0020_1">
  <metadata id="CorelCorpID_0Corel-Layer"/>
  <path class="fil0" d="M1358 1382c-52,0 -118,-6 -166,-24 -22,-8 -56,-26 -56,-52l0 -2c0,-26 34,-44 56,-52 48,-18 114,-24 166,-24 47,0 95,4 141,18 25,8 75,26 75,58 0,34 -51,54 -77,60 -45,14 -93,18 -139,18zm-891 -358c338,0 385,-223 385,-501 0,-101 -4,-173 46,-265 52,-98 150,-147 262,-147 88,0 159,24 227,78 -123,21 -235,78 -311,176 -60,79 -92,179 -92,276 0,80 20,162 66,229 73,106 194,154 316,154 131,0 250,-56 319,-168 52,-84 74,-190 74,-289 0,-56 -6,-110 -20,-162 40,43 73,95 97,153 35,86 52,186 52,285l0 16c-4,137 -45,291 -139,397 -35,-62 -129,-96 -195,-112 -64,-14 -130,-20 -196,-20 -72,0 -148,6 -216,24 -74,18 -194,68 -196,156 0,88 117,139 190,158 66,17 152,25 222,25 70,0 147,-8 222,-26 78,-18 154,-46 218,-85 204,-128 285,-340 288,-569 3,-288 -156,-545 -458,-611 -113,-131 -284,-196 -468,-196 -163,0 -343,56 -439,197 -74,110 -71,199 -70,326 1,136 11,390 -184,390 -182,-1 -265,-241 -265,-390 0,-165 82,-362 248,-421 25,-9 46,-27 46,-47 0,-10 -4,-20 -16,-30 -21,-18 -51,-25 -81,-25 -23,0 -47,4 -67,12 -215,80 -332,293 -332,511 0,281 177,501 467,501zm899 -112c-54,-1 -98,-39 -126,-81 -38,-55 -54,-124 -54,-190 0,-82 24,-166 76,-233 53,-68 130,-112 218,-116 54,82 76,179 76,275 0,89 -16,177 -63,253 -27,44 -70,92 -127,92z"/>
 </g>
</svg>
