<?xml version="1.0" encoding="UTF-8"?>
<!DOCTYPE svg PUBLIC "-//W3C//DTD SVG 1.1//EN" "http://www.w3.org/Graphics/SVG/1.1/DTD/svg11.dtd">
<!-- Creator: CorelDRAW X8 -->
<svg xmlns="http://www.w3.org/2000/svg" xml:space="preserve" width="1325px" height="868px" version="1.1" style="shape-rendering:geometricPrecision; text-rendering:geometricPrecision; image-rendering:optimizeQuality; fill-rule:evenodd; clip-rule:evenodd"
viewBox="0 0 1325 868"
 xmlns:xlink="http://www.w3.org/1999/xlink">
 <defs>
  <style type="text/css">
   <![CDATA[
    .fil0 {fill:#A82682;fill-rule:nonzero}
   ]]>
  </style>
 </defs>
 <g id="Layer_x0020_1">
  <metadata id="CorelCorpID_0Corel-Layer"/>
  <path class="fil0" d="M198 696c-28,0 -57,3 -56,38 1,35 27,37 56,37l1028 0c29,0 71,14 71,49 0,34 -42,48 -71,48l-1028 0c-84,0 -200,-18 -198,-125 2,-102 117,-117 198,-117l886 0c30,0 64,-15 86,-37 18,-19 27,-45 28,-71 1,-26 -6,-51 -24,-69 -9,-9 -20,-14 -33,-15 -22,-1 -47,-7 -50,-32 -4,-23 15,-33 34,-36 14,-2 27,-15 35,-31 7,-14 9,-31 10,-42 2,-49 -35,-88 -78,-109 -22,-10 -45,-13 -66,-16 29,51 42,110 42,168 0,57 -14,116 -44,165 -45,70 -121,100 -202,100 -79,0 -151,-26 -196,-92 -27,-39 -40,-89 -40,-136 0,-57 19,-111 55,-156 45,-58 112,-90 183,-105 -36,-28 -78,-43 -124,-43 -62,0 -116,30 -145,84 -28,50 -28,110 -27,165 1,184 -27,285 -241,283 -168,-2 -281,-116 -287,-280 -5,-136 68,-265 200,-313 30,-11 80,-13 106,9 24,19 1,39 -19,46 -102,36 -151,158 -146,257 4,75 56,210 147,211 111,1 100,-138 99,-213 0,-71 1,-140 43,-201 58,-85 170,-117 270,-117 98,0 196,28 268,97 51,-2 101,3 150,14 91,21 182,82 176,184 -1,37 -17,71 -45,96 48,27 77,73 76,128 -1,63 -35,111 -90,141 -46,25 -99,36 -151,36l-886 0zm685 -520c-44,7 -84,31 -111,66 -31,39 -45,82 -45,131 0,39 9,81 32,113 12,18 39,45 63,45 26,0 54,-31 67,-51 27,-43 38,-94 38,-144 0,-56 -13,-112 -44,-160z"/>
 </g>
</svg>
