<?xml version="1.0" encoding="UTF-8"?>
<!DOCTYPE svg PUBLIC "-//W3C//DTD SVG 1.1//EN" "http://www.w3.org/Graphics/SVG/1.1/DTD/svg11.dtd">
<!-- Creator: CorelDRAW X8 -->
<svg xmlns="http://www.w3.org/2000/svg" xml:space="preserve" width="3801px" height="1486px" version="1.1" style="shape-rendering:geometricPrecision; text-rendering:geometricPrecision; image-rendering:optimizeQuality; fill-rule:evenodd; clip-rule:evenodd"
viewBox="0 0 3801 1486"
 xmlns:xlink="http://www.w3.org/1999/xlink">
 <defs>
  <style type="text/css">
   <![CDATA[
    .fil0 {fill:#A82682;fill-rule:nonzero}
   ]]>
  </style>
 </defs>
 <g id="Layer_x0020_1">
  <metadata id="CorelCorpID_0Corel-Layer"/>
  <path class="fil0" d="M3414 1079c59,0 110,-26 145,-67 29,-34 46,-76 47,-123 0,-46 -16,-101 -53,-131 -13,-10 -36,-19 -53,-18 -34,1 -91,-11 -95,-54 -3,-36 38,-53 67,-57 26,-3 44,-17 56,-36 18,-26 25,-62 27,-92 5,-105 -75,-184 -175,-207 -28,-7 -57,-12 -85,-15 51,90 75,194 75,296 0,98 -23,197 -75,281 -70,114 -189,168 -322,168 -127,0 -240,-48 -312,-154 -46,-67 -67,-150 -67,-230 0,-98 32,-192 93,-271 75,-98 188,-155 309,-179 -72,-57 -149,-80 -238,-79 -148,2 -275,71 -350,197 -45,75 -65,162 -65,248 -1,145 65,271 188,352 14,9 24,22 23,36 0,42 -70,56 -101,56l-1312 0c-32,0 -101,-14 -101,-56 0,-42 69,-56 101,-56l350 0c216,0 354,-192 358,-390 3,-112 -39,-230 -122,-308 -51,-48 -118,-78 -188,-77 -14,1 -28,2 -42,5 100,83 164,210 164,339 1,181 -130,296 -312,295 -181,0 -311,-114 -310,-294 0,-130 64,-257 165,-340 -19,-4 -37,-6 -56,-5 -109,3 -200,51 -251,147 -45,84 -46,187 -45,281 2,291 -32,488 -386,485 -281,-3 -456,-217 -466,-480 -8,-226 110,-451 332,-534 45,-17 110,-19 148,13 37,31 6,64 -30,77 -174,62 -255,274 -247,443 7,137 95,367 264,368 201,2 184,-231 183,-372 -1,-120 1,-239 71,-342 92,-138 264,-194 425,-197 69,-2 140,10 205,33 59,-21 123,-32 187,-32 107,-1 214,27 303,86 140,93 214,247 210,410 -3,152 -75,302 -202,389l420 0c-83,-94 -128,-204 -129,-329 -1,-109 26,-215 87,-306 114,-168 320,-254 531,-253 167,1 324,44 449,167 85,-5 170,4 253,24 153,36 298,143 290,313 -3,63 -29,122 -76,166 82,46 128,127 127,220 -2,106 -56,193 -149,245 -73,40 -155,55 -238,55l-2058 0c-53,0 -114,5 -112,70 2,66 58,68 112,68l2296 0c47,0 102,28 102,79 0,51 -55,79 -102,79l-2296 0c-143,0 -320,-33 -316,-209 3,-169 177,-198 316,-198l2058 0zm-2064 -880c-67,66 -108,164 -108,258 -1,59 28,182 107,182 80,1 109,-122 109,-182 0,-94 -41,-192 -108,-258zm1738 93c-86,10 -163,52 -215,120 -51,68 -76,145 -76,228 0,66 16,136 53,191 27,40 71,82 123,82 56,0 103,-49 130,-93 45,-73 64,-160 64,-245 0,-100 -23,-198 -79,-283z"/>
 </g>
</svg>
