<?xml version="1.0" encoding="UTF-8"?>
<!DOCTYPE svg PUBLIC "-//W3C//DTD SVG 1.1//EN" "http://www.w3.org/Graphics/SVG/1.1/DTD/svg11.dtd">
<!-- Creator: CorelDRAW X8 -->
<svg xmlns="http://www.w3.org/2000/svg" xml:space="preserve" width="1325px" height="868px" version="1.1" style="shape-rendering:geometricPrecision; text-rendering:geometricPrecision; image-rendering:optimizeQuality; fill-rule:evenodd; clip-rule:evenodd"
viewBox="0 0 1325 868"
 xmlns:xlink="http://www.w3.org/1999/xlink">
 <defs>
  <style type="text/css">
   <![CDATA[
    .fil0 {fill:#A82682;fill-rule:nonzero}
   ]]>
  </style>
 </defs>
 <g id="Layer_x0020_1">
  <metadata id="CorelCorpID_0Corel-Layer"/>
  <path class="fil0" d="M828 530c33,0 57,-24 72,-51 22,-40 33,-93 33,-138 -1,-55 -13,-118 -43,-165 -48,5 -86,29 -113,67 -28,38 -41,86 -43,132 -1,32 4,62 16,91 13,32 39,64 78,64zm151 -431c79,0 171,10 241,49 69,38 105,96 105,175 0,52 -22,99 -64,130 37,21 64,56 64,100 0,112 -127,143 -218,143l-907 0c-28,0 -57,4 -56,39 1,35 27,37 56,37l1033 0c29,0 72,13 72,48 0,35 -43,48 -72,48l-1033 0c-84,0 -202,-16 -200,-124 3,-103 118,-117 200,-117l907 0c45,0 86,-28 87,-77 1,-35 -16,-56 -53,-59 -20,-1 -51,-10 -50,-35 1,-27 33,-33 54,-34 40,-1 52,-62 51,-92 -1,-45 -17,-85 -51,-114 -30,-25 -69,-38 -108,-42 28,52 39,109 39,167 -1,56 -14,111 -45,159 -44,70 -121,100 -203,99 -77,0 -152,-26 -197,-91 -27,-39 -41,-84 -41,-131 0,-57 20,-116 56,-161 45,-58 113,-91 185,-104 -36,-26 -81,-43 -126,-43 -61,0 -116,31 -146,84 -27,50 -27,110 -27,165 2,186 -28,284 -242,282 -169,-1 -284,-114 -290,-279 -4,-136 69,-265 201,-313 31,-11 82,-13 108,8 23,20 3,39 -19,47 -103,35 -152,157 -147,257 4,86 41,210 148,211 110,1 100,-135 99,-213 0,-71 1,-141 43,-201 59,-86 172,-117 272,-117 100,0 202,29 274,99z"/>
 </g>
</svg>
