<?xml version="1.0" encoding="UTF-8"?>
<!DOCTYPE svg PUBLIC "-//W3C//DTD SVG 1.1//EN" "http://www.w3.org/Graphics/SVG/1.1/DTD/svg11.dtd">
<!-- Creator: CorelDRAW X8 -->
<svg xmlns="http://www.w3.org/2000/svg" xml:space="preserve" width="1325px" height="868px" version="1.1" style="shape-rendering:geometricPrecision; text-rendering:geometricPrecision; image-rendering:optimizeQuality; fill-rule:evenodd; clip-rule:evenodd"
viewBox="0 0 1325 868"
 xmlns:xlink="http://www.w3.org/1999/xlink">
 <defs>
  <style type="text/css">
   <![CDATA[
    .fil0 {fill:#996633;fill-rule:nonzero}
   ]]>
  </style>
 </defs>
 <g id="Layer_x0020_1">
  <metadata id="CorelCorpID_0Corel-Layer"/>
  <path class="fil0" d="M828 530c33,0 57,-24 72,-51 22,-40 33,-93 33,-138 0,-55 -13,-118 -43,-165 -47,5 -86,29 -113,67 -28,38 -41,87 -43,133 -1,31 4,61 16,90 14,32 39,64 78,64zm151 -431c79,0 171,10 241,49 70,38 105,97 105,175 0,52 -22,99 -64,130 37,22 64,56 64,100 0,112 -127,143 -218,143l-907 0c-28,0 -57,4 -56,39 1,35 27,37 56,37l1033 0c30,0 72,13 72,48 0,35 -42,48 -72,48l-1033 0c-84,0 -202,-16 -200,-123 2,-104 118,-118 200,-118l907 0c46,0 87,-28 87,-76 1,-36 -16,-57 -52,-60 -20,-1 -52,-9 -50,-35 1,-26 33,-33 53,-33 40,-2 52,-62 51,-93 -1,-44 -17,-85 -51,-114 -30,-25 -69,-38 -108,-42 28,52 40,109 39,167 -1,57 -14,111 -44,159 -45,71 -121,100 -204,100 -77,-1 -152,-27 -197,-92 -27,-39 -41,-83 -41,-130 0,-58 20,-117 56,-162 45,-58 113,-91 185,-104 -36,-26 -81,-42 -126,-43 -61,0 -116,31 -146,84 -27,50 -27,110 -27,165 2,186 -28,284 -242,283 -169,-2 -284,-115 -290,-280 -5,-136 69,-265 201,-313 13,-5 30,-8 47,-8 20,0 45,4 61,17 5,4 10,10 10,17 0,14 -17,25 -29,29 -103,36 -152,157 -147,257 4,86 41,210 148,211 110,1 100,-135 99,-213 0,-70 1,-140 43,-201 59,-86 172,-116 272,-117 100,0 202,29 274,99z"/>
 </g>
</svg>
