<?xml version="1.0" encoding="UTF-8"?>
<!DOCTYPE svg PUBLIC "-//W3C//DTD SVG 1.1//EN" "http://www.w3.org/Graphics/SVG/1.1/DTD/svg11.dtd">
<!-- Creator: CorelDRAW X8 -->
<svg xmlns="http://www.w3.org/2000/svg" xml:space="preserve" width="1305px" height="868px" version="1.1" style="shape-rendering:geometricPrecision; text-rendering:geometricPrecision; image-rendering:optimizeQuality; fill-rule:evenodd; clip-rule:evenodd"
viewBox="0 0 1305 868"
 xmlns:xlink="http://www.w3.org/1999/xlink">
 <defs>
  <style type="text/css">
   <![CDATA[
    .fil0 {fill:#666633;fill-rule:nonzero}
   ]]>
  </style>
 </defs>
 <g id="Layer_x0020_1">
  <metadata id="CorelCorpID_0Corel-Layer"/>
  <path class="fil0" d="M818 540c37,1 63,-23 81,-55 25,-45 34,-106 34,-145 -1,-63 -16,-127 -47,-173 -58,4 -100,32 -129,72 -27,38 -41,88 -43,136 -1,34 5,68 16,96 17,41 47,69 88,69zm146 -440c79,-1 171,10 239,48 60,33 102,87 102,174 0,51 -21,101 -67,132 38,20 67,55 67,100 0,110 -120,137 -208,137l-907 0c-32,0 -67,7 -66,46 1,40 34,45 66,45l1033 0c26,0 62,12 62,43 0,31 -36,43 -62,43l-1033 0c-45,0 -94,-5 -131,-24 -36,-17 -60,-47 -59,-97 1,-37 16,-66 47,-85 31,-20 78,-30 143,-30l907 0c50,0 96,-26 97,-80 1,-36 -16,-62 -61,-65 -16,-2 -48,-8 -48,-31 1,-23 34,-28 51,-28 46,-1 61,-62 60,-100 -1,-51 -21,-91 -53,-118 -33,-28 -79,-44 -130,-46 30,53 44,114 43,176 -1,56 -14,114 -44,162 -43,69 -115,98 -194,98 -74,-1 -145,-26 -188,-89 -27,-39 -40,-87 -40,-134 0,-58 20,-116 55,-162 47,-60 117,-93 192,-104 -39,-32 -91,-52 -142,-52 -65,0 -124,31 -155,89 -28,51 -28,112 -28,168 2,181 -22,286 -232,285 -165,-2 -274,-120 -280,-282 -5,-134 67,-264 196,-312 26,-9 72,-12 95,7 19,16 2,33 -17,39 -105,37 -156,161 -151,266 2,36 5,83 26,125 27,53 77,97 132,98 120,1 110,-141 109,-226 -1,-70 1,-140 42,-201 58,-84 166,-115 263,-115 98,0 198,30 269,100z"/>
 </g>
</svg>
