<?xml version="1.0" encoding="UTF-8"?>
<!DOCTYPE svg PUBLIC "-//W3C//DTD SVG 1.1//EN" "http://www.w3.org/Graphics/SVG/1.1/DTD/svg11.dtd">
<!-- Creator: CorelDRAW X8 -->
<svg xmlns="http://www.w3.org/2000/svg" xml:space="preserve" width="2173px" height="1486px" version="1.1" style="shape-rendering:geometricPrecision; text-rendering:geometricPrecision; image-rendering:optimizeQuality; fill-rule:evenodd; clip-rule:evenodd"
viewBox="0 0 2173 1486"
 xmlns:xlink="http://www.w3.org/1999/xlink">
 <defs>
  <style type="text/css">
   <![CDATA[
    .fil0 {fill:#996633;fill-rule:nonzero}
   ]]>
  </style>
 </defs>
 <g id="Layer_x0020_1">
  <metadata id="CorelCorpID_0Corel-Layer"/>
  <path class="fil0" d="M1480 292c-88,4 -165,48 -218,117 -51,66 -76,150 -76,233 0,65 16,134 54,190 28,41 72,79 125,80 58,1 100,-48 128,-91 44,-71 62,-159 63,-241 1,-101 -20,-202 -76,-288zm128 -117c152,-5 338,28 454,131 75,66 115,168 110,266 -5,81 -40,155 -106,204 63,37 107,97 107,171 0,56 -24,113 -65,152 -75,69 -182,91 -280,91l-1512 0c-53,0 -113,5 -111,71 1,66 57,67 111,67l1722 0c46,0 102,28 102,79 0,51 -56,79 -102,79l-1722 0c-143,0 -320,-33 -316,-209 4,-169 178,-198 316,-198l1512 0c37,0 82,-13 111,-38 28,-23 41,-55 39,-94 -1,-33 -14,-69 -41,-91 -26,-21 -54,-16 -86,-18 -33,-2 -74,-18 -73,-57 2,-40 41,-53 75,-54 29,-1 50,-9 72,-27 40,-32 53,-87 56,-135 4,-83 -37,-155 -103,-207 -52,-41 -120,-65 -189,-73 51,92 71,191 69,295 -1,95 -23,194 -73,276 -70,113 -187,168 -320,167 -125,-1 -244,-49 -315,-153 -45,-67 -67,-149 -67,-228 0,-98 32,-198 93,-276 75,-99 188,-156 311,-177 -68,-54 -142,-78 -229,-78 -111,0 -208,49 -261,147 -45,85 -45,188 -45,281 2,292 -32,488 -386,485 -281,-2 -456,-216 -466,-480 -8,-225 110,-449 332,-532 19,-7 43,-12 66,-12 30,0 61,7 82,25 12,10 17,20 17,30 0,20 -22,38 -47,47 -174,62 -255,272 -247,442 7,137 95,368 264,369 201,2 184,-232 183,-374 -1,-119 1,-239 71,-342 95,-140 272,-196 437,-197 173,-1 336,57 450,175z"/>
 </g>
</svg>
