<?xml version="1.0" encoding="UTF-8"?>
<!DOCTYPE svg PUBLIC "-//W3C//DTD SVG 1.1//EN" "http://www.w3.org/Graphics/SVG/1.1/DTD/svg11.dtd">
<!-- Creator: CorelDRAW X8 -->
<svg xmlns="http://www.w3.org/2000/svg" xml:space="preserve" width="2085px" height="1486px" version="1.1" style="shape-rendering:geometricPrecision; text-rendering:geometricPrecision; image-rendering:optimizeQuality; fill-rule:evenodd; clip-rule:evenodd"
viewBox="0 0 2085 1486"
 xmlns:xlink="http://www.w3.org/1999/xlink">
 <defs>
  <style type="text/css">
   <![CDATA[
    .fil0 {fill:#5B5A50;fill-rule:nonzero}
   ]]>
  </style>
 </defs>
 <g id="Layer_x0020_1">
  <metadata id="CorelCorpID_0Corel-Layer"/>
  <path class="fil0" d="M1357 1228c-52,0 -117,5 -165,23 -22,9 -57,26 -57,53 -1,27 34,45 56,54 49,18 114,23 166,23 46,0 94,-4 139,-17 26,-7 77,-27 77,-60 0,-32 -50,-51 -75,-59 -46,-13 -94,-17 -141,-17zm122 -936c-88,4 -165,48 -217,116 -52,67 -76,150 -76,233 0,66 16,135 53,190 28,42 72,80 126,81 57,0 100,-48 127,-92 44,-71 62,-158 63,-240 2,-101 -20,-202 -76,-288zm-321 -181c-112,0 -209,49 -261,147 -46,85 -46,188 -45,281 2,292 -32,488 -386,485 -281,-3 -456,-217 -466,-480 -8,-226 110,-449 332,-532 45,-17 110,-19 148,13 37,31 6,64 -30,77 -174,62 -255,272 -247,441 7,137 95,369 264,370 201,2 184,-233 183,-374 -1,-119 1,-239 71,-342 94,-140 272,-196 436,-197 184,-1 356,64 470,196 322,69 476,354 456,663 -13,204 -108,404 -286,516 -74,46 -163,75 -248,91 -63,13 -127,19 -192,20 -72,1 -152,-7 -222,-25 -72,-19 -189,-69 -188,-157 0,-90 121,-138 194,-157 69,-17 144,-23 216,-23 66,0 132,5 196,20 65,15 160,49 195,111 94,-105 135,-259 139,-396 2,-104 -15,-210 -52,-301 -25,-59 -57,-112 -98,-155 15,57 22,117 21,177 -2,95 -23,194 -74,276 -70,112 -187,168 -320,167 -125,-1 -243,-49 -314,-153 -46,-67 -67,-149 -67,-229 0,-97 32,-197 92,-276 76,-98 189,-155 311,-176 -68,-54 -141,-78 -228,-78z"/>
 </g>
</svg>
