<?xml version="1.0" encoding="UTF-8"?>
<!DOCTYPE svg PUBLIC "-//W3C//DTD SVG 1.1//EN" "http://www.w3.org/Graphics/SVG/1.1/DTD/svg11.dtd">
<!-- Creator: CorelDRAW X8 -->
<svg xmlns="http://www.w3.org/2000/svg" xml:space="preserve" width="1272px" height="868px" version="1.1" style="shape-rendering:geometricPrecision; text-rendering:geometricPrecision; image-rendering:optimizeQuality; fill-rule:evenodd; clip-rule:evenodd"
viewBox="0 0 1272 868"
 xmlns:xlink="http://www.w3.org/1999/xlink">
 <defs>
  <style type="text/css">
   <![CDATA[
    .fil0 {fill:#A82682;fill-rule:nonzero}
   ]]>
  </style>
 </defs>
 <g id="Layer_x0020_1">
  <metadata id="CorelCorpID_0Corel-Layer"/>
  <path class="fil0" d="M828 530c33,0 56,-24 71,-51 23,-40 34,-93 33,-138 0,-55 -12,-118 -43,-165 -47,5 -85,29 -113,67 -27,38 -41,86 -42,132 -1,32 4,62 16,91 13,32 39,64 78,64zm-3 188c-29,0 -63,3 -90,13 -13,4 -33,14 -33,29 0,15 20,26 32,30 27,10 62,13 91,13 25,0 50,-2 75,-9 15,-4 44,-15 44,-34 0,-18 -29,-29 -43,-33 -25,-7 -51,-9 -76,-9zm170 -603c192,44 288,197 276,387 -8,120 -67,236 -172,300 -46,27 -100,44 -152,54 -40,8 -81,11 -122,12 -46,1 -96,-4 -141,-16 -43,-10 -116,-39 -116,-92 0,-53 76,-82 119,-92 44,-11 92,-15 138,-15 42,0 84,3 125,12 36,8 84,25 110,53 48,-59 71,-141 73,-217 1,-53 -4,-108 -21,-158 -10,-29 -24,-57 -44,-81 6,26 8,53 7,79 0,56 -13,111 -44,159 -45,70 -121,100 -203,99 -77,0 -152,-26 -198,-91 -27,-39 -40,-84 -40,-131 0,-57 20,-116 56,-161 45,-58 112,-91 184,-104 -35,-26 -80,-43 -125,-43 -61,0 -117,31 -146,84 -27,50 -27,110 -27,165 1,186 -28,284 -242,282 -169,-1 -284,-114 -290,-279 -5,-136 69,-265 201,-313 30,-11 82,-13 108,8 23,20 2,39 -19,47 -103,35 -152,157 -147,257 4,86 41,210 148,211 110,1 99,-135 99,-213 -1,-71 1,-141 43,-201 59,-86 171,-117 272,-117 107,-1 217,34 290,115z"/>
 </g>
</svg>
