<?xml version="1.0" encoding="UTF-8"?>
<!DOCTYPE svg PUBLIC "-//W3C//DTD SVG 1.1//EN" "http://www.w3.org/Graphics/SVG/1.1/DTD/svg11.dtd">
<!-- Creator: CorelDRAW X8 -->
<svg xmlns="http://www.w3.org/2000/svg" xml:space="preserve" width="3783px" height="1486px" version="1.1" style="shape-rendering:geometricPrecision; text-rendering:geometricPrecision; image-rendering:optimizeQuality; fill-rule:evenodd; clip-rule:evenodd"
viewBox="0 0 3783 1486"
 xmlns:xlink="http://www.w3.org/1999/xlink">
 <defs>
  <style type="text/css">
   <![CDATA[
    .fil0 {fill:#5B5A50;fill-rule:nonzero}
   ]]>
  </style>
 </defs>
 <g id="Layer_x0020_1">
  <metadata id="CorelCorpID_0Corel-Layer"/>
  <path class="fil0" d="M3086 289c-84,16 -161,54 -214,122 -51,67 -75,151 -75,235 0,66 16,129 53,184 28,42 72,81 126,81 57,1 100,-48 127,-92 44,-71 62,-153 63,-235 1,-100 -18,-214 -80,-295zm-1736 -256c60,-21 124,-31 187,-32 108,-1 214,27 304,87 139,92 214,246 210,409 -3,153 -76,304 -202,391l418 0c-83,-94 -127,-205 -127,-330 -1,-113 28,-223 95,-316 120,-169 325,-241 525,-242 170,-1 341,54 457,174 154,-4 340,29 455,132 75,66 115,167 110,265 -5,82 -40,155 -106,205 63,37 107,97 107,171 0,180 -187,243 -345,243l-2081 0c-53,0 -113,4 -111,70 1,66 57,68 111,68l2288 0c47,0 102,27 102,79 0,51 -55,79 -102,79l-2288 0c-142,0 -320,-34 -316,-209 4,-169 178,-198 316,-198l2081 0c79,0 149,-47 146,-132 -1,-46 -14,-72 -36,-88 -21,-14 -47,-18 -83,-20 -32,-3 -78,-18 -77,-59 2,-40 46,-52 79,-52 33,-1 56,-15 74,-36 30,-34 40,-87 42,-131 3,-89 -35,-156 -95,-203 -54,-42 -123,-66 -190,-73 52,95 72,191 71,299 -2,95 -23,188 -74,271 -70,113 -187,169 -320,168 -125,-1 -243,-49 -314,-154 -46,-67 -67,-143 -67,-223 0,-99 32,-199 92,-278 76,-99 189,-157 311,-177 -70,-57 -147,-81 -237,-80 -141,2 -266,64 -344,183 -50,78 -74,170 -74,262 0,145 64,270 186,351 15,10 24,23 24,36 1,42 -70,56 -102,56l-1309 0c-32,0 -101,-14 -101,-55 0,-42 69,-56 101,-56l349 0c216,0 354,-193 359,-392 2,-112 -39,-230 -123,-308 -50,-47 -117,-78 -188,-76 -14,0 -27,1 -41,4 100,84 163,210 164,339 0,181 -131,296 -312,295 -181,0 -311,-114 -310,-294 0,-130 64,-257 164,-340 -18,-4 -36,-6 -55,-5 -109,4 -200,51 -251,147 -46,85 -46,188 -45,281 2,292 -32,488 -386,485 -281,-3 -456,-217 -466,-480 -8,-226 110,-449 332,-532 45,-17 110,-19 148,13 37,31 6,64 -30,77 -174,62 -255,272 -247,441 7,137 95,369 264,370 201,2 184,-233 183,-374 -1,-119 1,-239 71,-342 92,-137 264,-194 425,-197 69,-1 140,10 204,33zm0 164c-68,67 -108,164 -109,258 0,60 29,182 108,182 79,1 109,-121 109,-182 0,-94 -41,-191 -108,-258z"/>
 </g>
</svg>
