<?xml version="1.0" encoding="UTF-8"?>
<!DOCTYPE svg PUBLIC "-//W3C//DTD SVG 1.1//EN" "http://www.w3.org/Graphics/SVG/1.1/DTD/svg11.dtd">
<!-- Creator: CorelDRAW X8 -->
<svg xmlns="http://www.w3.org/2000/svg" xml:space="preserve" width="3685px" height="1486px" version="1.1" style="shape-rendering:geometricPrecision; text-rendering:geometricPrecision; image-rendering:optimizeQuality; fill-rule:evenodd; clip-rule:evenodd"
viewBox="0 0 3685 1486"
 xmlns:xlink="http://www.w3.org/1999/xlink">
 <defs>
  <style type="text/css">
   <![CDATA[
    .fil0 {fill:#5B5A50;fill-rule:nonzero}
   ]]>
  </style>
 </defs>
 <g id="Layer_x0020_1">
  <metadata id="CorelCorpID_0Corel-Layer"/>
  <path class="fil0" d="M3091 294c-88,5 -165,49 -218,117 -51,68 -76,152 -76,235 0,66 16,128 54,184 28,42 72,80 125,81 58,1 101,-48 128,-92 44,-71 62,-152 63,-235 1,-102 -20,-203 -76,-290zm-1740 -259c59,-21 123,-32 187,-32 107,-1 214,27 303,86 140,93 214,247 210,410 -3,152 -75,302 -202,389l420 0c-83,-94 -128,-204 -129,-329 -1,-109 26,-215 88,-306 113,-168 319,-254 530,-253 175,1 356,60 469,185 135,20 257,81 343,187 80,97 119,222 115,347 -5,123 -53,242 -143,328 -108,102 -269,143 -414,143l-1772 0c-53,0 -114,5 -112,70 2,66 58,68 112,68l2175 0c47,0 102,28 102,79 0,51 -55,79 -102,79l-2175 0c-143,0 -320,-33 -316,-209 3,-169 177,-198 316,-198l1772 0c98,0 201,-39 265,-116 57,-69 86,-159 89,-247 4,-95 -22,-195 -77,-274 -20,-28 -43,-53 -69,-75 25,70 35,143 34,217 -2,96 -24,188 -74,271 -70,113 -187,169 -320,168 -125,-1 -244,-49 -315,-154 -45,-67 -67,-143 -67,-223 0,-98 33,-199 93,-278 75,-99 189,-156 311,-177 -71,-57 -149,-81 -240,-80 -148,2 -275,71 -350,197 -45,75 -65,162 -65,248 -1,145 65,271 188,352 14,9 22,21 23,34 3,43 -70,58 -101,58l-1312 0c-32,0 -101,-14 -101,-56 0,-42 69,-56 101,-56l350 0c216,0 354,-192 358,-390 3,-112 -39,-230 -122,-308 -51,-48 -118,-78 -188,-77 -14,1 -28,2 -42,5 100,83 164,210 164,339 1,181 -130,296 -312,295 -181,0 -311,-114 -310,-294 0,-130 64,-257 165,-340 -19,-4 -37,-6 -56,-5 -109,3 -200,51 -251,147 -45,84 -46,187 -45,281 2,291 -32,488 -386,485 -281,-3 -456,-217 -466,-480 -8,-226 110,-451 332,-534 45,-17 110,-19 148,13 37,31 6,64 -30,77 -174,62 -255,274 -247,443 7,137 95,367 264,368 201,2 184,-231 183,-372 -1,-120 1,-239 71,-342 92,-138 264,-194 426,-197 68,-2 139,10 204,33zm-1 164c-67,66 -108,164 -108,258 -1,59 28,182 107,182 80,1 109,-122 109,-182 0,-94 -41,-192 -108,-258z"/>
 </g>
</svg>
