<?xml version="1.0" encoding="UTF-8"?>
<!DOCTYPE svg PUBLIC "-//W3C//DTD SVG 1.1//EN" "http://www.w3.org/Graphics/SVG/1.1/DTD/svg11.dtd">
<!-- Creator: CorelDRAW X8 -->
<svg xmlns="http://www.w3.org/2000/svg" xml:space="preserve" width="1758px" height="1012px" version="1.1" style="shape-rendering:geometricPrecision; text-rendering:geometricPrecision; image-rendering:optimizeQuality; fill-rule:evenodd; clip-rule:evenodd"
viewBox="0 0 1758 1012"
 xmlns:xlink="http://www.w3.org/1999/xlink">
 <defs>
  <style type="text/css">
   <![CDATA[
    .fil0 {fill:#2B2A29;fill-rule:nonzero}
   ]]>
  </style>
 </defs>
 <g id="Layer_x0020_1">
  <metadata id="CorelCorpID_0Corel-Layer"/>
  <path class="fil0" d="M239 1012c29,0 57,-6 78,-21 16,-10 23,-22 23,-34 0,-17 -15,-34 -38,-44 -70,-30 -99,-112 -99,-182 0,-96 62,-192 169,-192 106,0 166,97 166,192 0,66 -23,139 -85,174 -14,8 -28,22 -28,39 0,42 69,56 101,56l1131 0c32,0 101,-14 101,-56l0 -889c0,-43 -73,-55 -103,-55 -32,0 -100,14 -100,55 0,95 -37,189 -85,270 -43,72 -99,135 -158,174l1 -213c0,-160 -142,-241 -295,-242 -158,0 -309,88 -309,261 0,92 49,175 118,234 79,67 177,100 283,106l-1 244 -411 0c30,-48 43,-102 43,-158 0,-199 -184,-303 -369,-303 -185,0 -372,102 -372,302 0,117 61,217 170,268 20,10 45,14 69,14zm871 -480c-108,-18 -198,-119 -198,-227 0,-53 40,-150 106,-150 62,0 92,80 92,131l0 246zm445 357l-243 0 0 -267c103,-44 183,-112 243,-204l0 471z"/>
 </g>
</svg>
