<?xml version="1.0" encoding="UTF-8"?>
<!DOCTYPE svg PUBLIC "-//W3C//DTD SVG 1.1//EN" "http://www.w3.org/Graphics/SVG/1.1/DTD/svg11.dtd">
<!-- Creator: CorelDRAW X8 -->
<svg xmlns="http://www.w3.org/2000/svg" xml:space="preserve" width="1757px" height="1012px" version="1.1" style="shape-rendering:geometricPrecision; text-rendering:geometricPrecision; image-rendering:optimizeQuality; fill-rule:evenodd; clip-rule:evenodd"
viewBox="0 0 1757 1012"
 xmlns:xlink="http://www.w3.org/1999/xlink">
 <defs>
  <style type="text/css">
   <![CDATA[
    .fil0 {fill:#A82682;fill-rule:nonzero}
   ]]>
  </style>
 </defs>
 <g id="Layer_x0020_1">
  <metadata id="CorelCorpID_0Corel-Layer"/>
  <path class="fil0" d="M302 913c38,17 54,52 15,78 -40,27 -104,26 -147,7 -109,-51 -170,-151 -170,-268 0,-200 187,-302 372,-302 185,0 369,104 369,303 0,56 -13,110 -43,158l410 0 1 -244c-105,-6 -203,-39 -282,-106 -70,-60 -119,-142 -118,-235 2,-169 154,-262 313,-260 152,1 290,82 290,242l-1 213c59,-39 115,-102 158,-174 52,-87 86,-185 85,-270 0,-41 68,-55 100,-55 30,0 103,12 103,55l0 889c0,42 -69,56 -101,56l-1130 0c-32,0 -101,-14 -101,-56 0,-17 14,-31 28,-39 62,-35 85,-108 85,-174 0,-95 -60,-192 -166,-192 -107,0 -169,96 -169,192 0,70 29,152 99,182zm1009 -24l243 0 0 -471c-60,92 -140,160 -243,204l0 267zm-202 -357l0 -246c0,-51 -29,-131 -91,-131 -67,0 -106,97 -106,150 0,56 23,109 61,150 35,40 83,68 136,77z"/>
 </g>
</svg>
