<?xml version="1.0" encoding="UTF-8"?>
<!DOCTYPE svg PUBLIC "-//W3C//DTD SVG 1.1//EN" "http://www.w3.org/Graphics/SVG/1.1/DTD/svg11.dtd">
<!-- Creator: CorelDRAW X8 -->
<svg xmlns="http://www.w3.org/2000/svg" xml:space="preserve" width="2121px" height="1486px" version="1.1" style="shape-rendering:geometricPrecision; text-rendering:geometricPrecision; image-rendering:optimizeQuality; fill-rule:evenodd; clip-rule:evenodd"
viewBox="0 0 2121 1486"
 xmlns:xlink="http://www.w3.org/1999/xlink">
 <defs>
  <style type="text/css">
   <![CDATA[
    .fil0 {fill:#A82682;fill-rule:nonzero}
   ]]>
  </style>
 </defs>
 <g id="Layer_x0020_1">
  <metadata id="CorelCorpID_0Corel-Layer"/>
  <path class="fil0" d="M666 913c38,17 54,51 15,78 -40,27 -104,26 -147,7 -109,-51 -171,-151 -170,-268 0,-200 187,-302 372,-302 185,0 369,104 369,303 0,56 -13,110 -43,158l410 0 0 -244c-104,-6 -202,-39 -281,-106 -70,-60 -119,-142 -118,-235 2,-169 154,-262 313,-260 151,1 290,82 289,242l0 213c59,-39 115,-102 158,-174 52,-87 86,-185 85,-270 0,-41 68,-55 100,-55 30,0 103,12 103,55l0 941c0,161 -104,272 -241,345 -195,106 -485,145 -706,145 -370,0 -800,-89 -1028,-404 -97,-134 -145,-300 -146,-464 -2,-230 79,-466 281,-598 38,-24 102,-25 143,-6 38,18 51,53 11,78 -174,114 -234,330 -232,526 1,129 32,267 100,378 180,296 546,380 874,379 184,-1 441,-31 596,-136 89,-61 140,-131 144,-239l-1027 0c-31,0 -101,-14 -101,-56 0,-17 14,-31 28,-39 62,-35 85,-108 85,-174 0,-95 -60,-192 -166,-192 -107,0 -169,96 -170,192 0,70 30,152 100,182zm1009 -24l243 0 0 -471c-61,92 -141,160 -243,204l0 267zm-203 -357l1 -246c0,-51 -29,-131 -91,-131 -67,0 -106,97 -106,150 0,56 23,109 60,150 36,40 84,68 136,77z"/>
 </g>
</svg>
