<?xml version="1.0" encoding="UTF-8"?>
<!DOCTYPE svg PUBLIC "-//W3C//DTD SVG 1.1//EN" "http://www.w3.org/Graphics/SVG/1.1/DTD/svg11.dtd">
<!-- Creator: CorelDRAW X8 -->
<svg xmlns="http://www.w3.org/2000/svg" xml:space="preserve" width="1304px" height="600px" version="1.1" style="shape-rendering:geometricPrecision; text-rendering:geometricPrecision; image-rendering:optimizeQuality; fill-rule:evenodd; clip-rule:evenodd"
viewBox="0 0 1304 600"
 xmlns:xlink="http://www.w3.org/1999/xlink">
 <defs>
  <style type="text/css">
   <![CDATA[
    .fil0 {fill:#996633;fill-rule:nonzero}
   ]]>
  </style>
 </defs>
 <g id="Layer_x0020_1">
  <metadata id="CorelCorpID_0Corel-Layer"/>
  <path class="fil0" d="M497 52c48,-39 113,-52 174,-52 97,0 196,41 231,135 21,56 21,116 21,174 0,51 1,104 19,152 13,34 39,70 80,70 61,0 102,-67 120,-117 13,-36 20,-76 20,-114 -1,-94 -45,-203 -142,-237 -15,-6 -30,-17 -29,-30 1,-5 4,-11 11,-16 16,-13 39,-17 63,-16 17,0 34,4 47,9 125,47 191,162 192,290 0,47 -7,94 -25,138 -45,110 -139,162 -257,162 -90,0 -172,-25 -213,-110 -26,-56 -28,-118 -28,-178 0,-54 1,-112 -19,-164 -12,-33 -49,-80 -89,-79 -77,1 -102,82 -102,145l0 351c0,28 -51,35 -71,35 -21,0 -71,-7 -71,-35l0 -350c0,-72 -35,-146 -118,-146 -66,0 -124,58 -148,115 -14,35 -20,74 -21,112 0,89 37,206 128,243 14,5 24,14 25,25 1,7 -2,14 -12,21 -14,10 -35,15 -55,15 -19,0 -38,-3 -53,-9 -120,-51 -176,-171 -175,-295 0,-49 9,-98 31,-142 52,-106 165,-154 280,-154 64,0 134,13 186,52z"/>
 </g>
</svg>
