<?xml version="1.0" encoding="UTF-8"?>
<!DOCTYPE svg PUBLIC "-//W3C//DTD SVG 1.1//EN" "http://www.w3.org/Graphics/SVG/1.1/DTD/svg11.dtd">
<!-- Creator: CorelDRAW X8 -->
<svg xmlns="http://www.w3.org/2000/svg" xml:space="preserve" width="3172px" height="1024px" version="1.1" style="shape-rendering:geometricPrecision; text-rendering:geometricPrecision; image-rendering:optimizeQuality; fill-rule:evenodd; clip-rule:evenodd"
viewBox="0 0 3172 1024"
 xmlns:xlink="http://www.w3.org/1999/xlink">
 <defs>
  <style type="text/css">
   <![CDATA[
    .fil0 {fill:#5B5A50;fill-rule:nonzero}
   ]]>
  </style>
 </defs>
 <g id="Layer_x0020_1">
  <metadata id="CorelCorpID_0Corel-Layer"/>
  <path class="fil0" d="M2256 395c0,-253 207,-395 451,-395 238,1 465,152 465,401l0 543c0,42 -69,56 -101,56 -466,0 -930,2 -1396,0 -141,-1 -264,-52 -326,-186 -45,-97 -47,-187 -47,-292 0,-92 0,-184 -32,-272 -24,-68 -87,-141 -168,-139 -142,3 -185,135 -185,254l0 603c0,42 -69,56 -101,56 -32,0 -102,-14 -102,-56l0 -603c0,-133 -61,-254 -212,-254 -123,0 -222,94 -264,201 -25,61 -35,128 -35,193 -1,152 59,355 215,419 37,16 58,50 19,78 -39,28 -103,27 -146,9 -204,-88 -292,-299 -291,-506 0,-83 15,-167 52,-243 82,-172 260,-262 450,-262 110,0 226,26 309,101 77,-74 185,-101 291,-101 159,0 312,76 367,229 35,95 35,193 35,293 0,86 1,161 31,243 25,69 70,124 151,124 116,0 185,-109 218,-205 21,-61 33,-119 33,-183 -1,-161 -73,-339 -239,-398 -36,-14 -65,-47 -28,-77 40,-33 106,-29 152,-12 210,82 315,272 317,486 0,80 -12,150 -42,225 -26,66 -62,121 -108,164l267 0 0 -494zm202 0l0 494 512 0 0 -488c0,-150 -103,-290 -265,-290 -165,0 -247,136 -247,284z"/>
 </g>
</svg>
