<?xml version="1.0" encoding="UTF-8"?>
<!DOCTYPE svg PUBLIC "-//W3C//DTD SVG 1.1//EN" "http://www.w3.org/Graphics/SVG/1.1/DTD/svg11.dtd">
<!-- Creator: CorelDRAW X8 -->
<svg xmlns="http://www.w3.org/2000/svg" xml:space="preserve" width="2483px" height="1486px" version="1.1" style="shape-rendering:geometricPrecision; text-rendering:geometricPrecision; image-rendering:optimizeQuality; fill-rule:evenodd; clip-rule:evenodd"
viewBox="0 0 2483 1486"
 xmlns:xlink="http://www.w3.org/1999/xlink">
 <defs>
  <style type="text/css">
   <![CDATA[
    .fil0 {fill:#996633;fill-rule:nonzero}
   ]]>
  </style>
 </defs>
 <g id="Layer_x0020_1">
  <metadata id="CorelCorpID_0Corel-Layer"/>
  <path class="fil0" d="M1154 101c76,-74 185,-101 290,-101 159,0 313,76 368,229 35,95 35,199 35,299 0,86 1,179 31,261 25,69 70,124 151,124 116,0 184,-109 217,-204 22,-62 34,-132 33,-196 0,-161 -72,-351 -238,-410 -24,-9 -46,-27 -46,-47 0,-10 5,-20 18,-30 22,-19 52,-26 82,-25 24,0 49,5 69,13 239,93 318,309 319,539 1,235 -90,468 -265,631 -237,220 -588,300 -905,302 -281,1 -573,-59 -821,-190 -290,-154 -467,-395 -490,-722 -15,-211 62,-437 250,-554 18,-12 43,-18 69,-19 26,-1 52,4 73,14 16,7 33,21 34,40 1,17 -11,30 -25,39 -155,96 -210,301 -199,472 18,264 141,474 369,616 216,134 484,193 737,192 276,-1 584,-74 781,-276 20,-21 54,-62 78,-93 -44,13 -90,19 -140,19 -148,0 -274,-49 -338,-186 -44,-97 -46,-205 -46,-310 0,-92 0,-190 -32,-278 -25,-68 -88,-141 -168,-139 -143,3 -185,135 -185,254l0 603c0,42 -69,56 -101,56 -33,0 -102,-14 -102,-56l0 -603c0,-133 -61,-254 -213,-254 -122,0 -221,94 -264,201 -24,61 -34,128 -35,194 0,151 60,354 215,418 24,10 41,27 41,45 -1,11 -7,23 -21,33 -39,28 -104,27 -147,9 -203,-88 -291,-299 -290,-505 0,-84 15,-168 51,-244 83,-172 261,-262 450,-262 110,0 227,26 310,101z"/>
 </g>
</svg>
