<?xml version="1.0" encoding="UTF-8"?>
<!DOCTYPE svg PUBLIC "-//W3C//DTD SVG 1.1//EN" "http://www.w3.org/Graphics/SVG/1.1/DTD/svg11.dtd">
<!-- Creator: CorelDRAW X8 -->
<svg xmlns="http://www.w3.org/2000/svg" xml:space="preserve" width="1312px" height="868px" version="1.1" style="shape-rendering:geometricPrecision; text-rendering:geometricPrecision; image-rendering:optimizeQuality; fill-rule:evenodd; clip-rule:evenodd"
viewBox="0 0 1312 868"
 xmlns:xlink="http://www.w3.org/1999/xlink">
 <defs>
  <style type="text/css">
   <![CDATA[
    .fil0 {fill:#A82682;fill-rule:nonzero}
   ]]>
  </style>
 </defs>
 <g id="Layer_x0020_1">
  <metadata id="CorelCorpID_0Corel-Layer"/>
  <path class="fil0" d="M497 52c48,-39 113,-52 175,-52 96,0 195,41 230,135 21,56 22,116 22,174 0,51 0,104 18,152 13,34 39,70 80,70 61,0 103,-67 120,-117 13,-36 20,-76 20,-114 0,-94 -45,-203 -141,-237 -22,-8 -42,-27 -19,-46 27,-22 79,-19 111,-7 159,60 200,211 199,362 -1,165 -47,340 -200,427 -57,33 -128,50 -194,60 -47,7 -101,11 -153,8 -44,-2 -88,-8 -126,-22 -23,-8 -50,-23 -68,-43 -15,-16 -25,-35 -25,-56 1,-30 21,-52 45,-67 32,-19 78,-26 115,-26 32,0 66,5 95,17 29,-12 64,-17 95,-17 37,0 83,7 115,26 22,13 41,32 45,58 51,-42 80,-102 98,-164 -38,18 -83,27 -132,27 -90,0 -172,-25 -213,-110 -26,-56 -28,-118 -28,-178 0,-54 1,-112 -19,-164 -12,-33 -49,-80 -89,-79 -77,1 -102,82 -102,145l0 351c0,28 -50,35 -71,35 -21,0 -71,-7 -71,-35l0 -350c0,-72 -35,-146 -118,-146 -66,0 -124,58 -148,115 -14,35 -20,74 -21,112 0,89 37,206 128,243 23,9 37,30 13,47 -27,18 -78,17 -108,5 -120,-50 -176,-171 -175,-295 0,-49 9,-98 31,-142 52,-106 165,-154 280,-154 64,0 134,13 186,52zm404 740c19,-9 34,-24 33,-46 -1,-18 -19,-33 -37,-32 -22,1 -31,27 -31,46 0,26 -44,32 -64,32 -19,0 -66,-6 -66,-32 0,-18 -9,-46 -31,-46 -17,-1 -36,14 -37,32 -1,22 14,37 34,46 27,11 68,14 98,14 30,0 73,-2 101,-14z"/>
 </g>
</svg>
