<?xml version="1.0" encoding="UTF-8"?>
<!DOCTYPE svg PUBLIC "-//W3C//DTD SVG 1.1//EN" "http://www.w3.org/Graphics/SVG/1.1/DTD/svg11.dtd">
<!-- Creator: CorelDRAW X8 -->
<svg xmlns="http://www.w3.org/2000/svg" xml:space="preserve" width="2149px" height="1486px" version="1.1" style="shape-rendering:geometricPrecision; text-rendering:geometricPrecision; image-rendering:optimizeQuality; fill-rule:evenodd; clip-rule:evenodd"
viewBox="0 0 2149 1486"
 xmlns:xlink="http://www.w3.org/1999/xlink">
 <defs>
  <style type="text/css">
   <![CDATA[
    .fil0 {fill:#A82682;fill-rule:nonzero}
   ]]>
  </style>
 </defs>
 <g id="Layer_x0020_1">
  <metadata id="CorelCorpID_0Corel-Layer"/>
  <path class="fil0" d="M1321 1228c-52,0 -116,5 -165,24 -22,8 -56,26 -57,52 0,27 35,45 56,54 49,18 114,23 166,23 46,0 95,-4 140,-17 26,-7 77,-27 76,-60 0,-32 -49,-51 -75,-59 -45,-13 -94,-17 -141,-17zm-510 -1127c77,-74 185,-101 291,-101 159,0 312,76 367,229 35,95 35,199 35,299 0,86 1,179 31,261 25,69 71,124 151,124 116,0 185,-109 218,-204 21,-62 33,-132 33,-196 -1,-161 -73,-351 -239,-410 -36,-14 -65,-47 -28,-77 40,-33 106,-29 152,-12 170,67 270,211 304,377 19,90 24,182 23,273 -1,77 -7,155 -22,230 -38,196 -129,371 -307,476 -93,55 -210,86 -317,102 -61,9 -123,14 -185,14 -72,1 -149,-7 -218,-25 -72,-19 -190,-69 -189,-157 0,-89 121,-138 194,-157 69,-17 145,-23 216,-23 66,0 132,5 197,20 73,17 196,62 207,148 108,-76 175,-206 202,-332 -68,42 -149,64 -241,64 -147,0 -274,-49 -337,-186 -45,-97 -47,-205 -47,-310 0,-92 0,-190 -32,-278 -24,-68 -87,-141 -168,-139 -142,3 -185,135 -185,254l0 603c0,42 -69,56 -101,56 -33,0 -102,-14 -102,-56l0 -603c0,-133 -61,-254 -212,-254 -123,0 -222,94 -264,201 -25,61 -35,128 -35,194 -1,151 59,354 215,418 37,16 57,50 19,78 -39,28 -103,27 -146,9 -204,-88 -292,-299 -291,-505 0,-84 15,-168 52,-244 82,-172 260,-262 450,-262 110,0 226,26 309,101z"/>
 </g>
</svg>
