<?xml version="1.0" encoding="UTF-8"?>
<!DOCTYPE svg PUBLIC "-//W3C//DTD SVG 1.1//EN" "http://www.w3.org/Graphics/SVG/1.1/DTD/svg11.dtd">
<!-- Creator: CorelDRAW X8 -->
<svg xmlns="http://www.w3.org/2000/svg" xml:space="preserve" width="1519px" height="868px" version="1.1" style="shape-rendering:geometricPrecision; text-rendering:geometricPrecision; image-rendering:optimizeQuality; fill-rule:evenodd; clip-rule:evenodd"
viewBox="0 0 1519 868"
 xmlns:xlink="http://www.w3.org/1999/xlink">
 <defs>
  <style type="text/css">
   <![CDATA[
    .fil0 {fill:#996633;fill-rule:nonzero}
   ]]>
  </style>
 </defs>
 <g id="Layer_x0020_1">
  <metadata id="CorelCorpID_0Corel-Layer"/>
  <path class="fil0" d="M711 52c48,-39 113,-52 174,-52 97,0 196,41 231,135 21,56 21,116 21,174 0,51 1,104 19,152 13,34 39,70 80,70 61,0 102,-67 120,-117 13,-36 20,-76 20,-114 -1,-94 -45,-203 -142,-237 -15,-6 -29,-17 -29,-29 1,-6 4,-12 11,-17 15,-12 37,-17 59,-17 19,1 37,4 51,10 142,53 193,177 193,313 0,96 -26,191 -78,271 -59,93 -147,157 -246,201 -121,52 -260,72 -388,73 -156,1 -334,-28 -483,-99 -173,-82 -307,-220 -323,-433 -9,-124 30,-255 143,-323 13,-8 32,-12 51,-13 19,0 40,3 54,10 9,4 20,13 21,24 1,10 -7,18 -16,23 -92,56 -117,175 -110,274 11,170 103,288 230,362 125,74 284,106 431,106 101,-1 206,-17 300,-56 72,-31 152,-87 204,-150 -23,5 -48,7 -73,7 -90,0 -172,-25 -213,-110 -26,-56 -28,-118 -28,-178 0,-54 1,-112 -19,-164 -12,-33 -49,-80 -89,-79 -78,1 -102,82 -102,145l0 351c0,28 -51,35 -71,35 -21,0 -72,-7 -72,-35l0 -350c0,-72 -34,-146 -117,-146 -66,0 -124,58 -148,115 -14,35 -21,74 -21,112 0,90 37,206 128,243 14,5 24,15 25,25 1,7 -3,15 -12,22 -14,9 -33,13 -52,14 -20,1 -41,-3 -56,-9 -121,-50 -176,-171 -175,-295 0,-49 9,-98 31,-142 52,-106 165,-154 280,-154 64,0 134,13 186,52z"/>
 </g>
</svg>
