<?xml version="1.0" encoding="UTF-8"?>
<!DOCTYPE svg PUBLIC "-//W3C//DTD SVG 1.1//EN" "http://www.w3.org/Graphics/SVG/1.1/DTD/svg11.dtd">
<!-- Creator: CorelDRAW X8 -->
<svg xmlns="http://www.w3.org/2000/svg" xml:space="preserve" width="2149px" height="1486px" version="1.1" style="shape-rendering:geometricPrecision; text-rendering:geometricPrecision; image-rendering:optimizeQuality; fill-rule:evenodd; clip-rule:evenodd"
viewBox="0 0 2149 1486"
 xmlns:xlink="http://www.w3.org/1999/xlink">
 <defs>
  <style type="text/css">
   <![CDATA[
    .fil0 {fill:#5B5A50;fill-rule:nonzero}
   ]]>
  </style>
 </defs>
 <g id="Layer_x0020_1">
  <metadata id="CorelCorpID_0Corel-Layer"/>
  <path class="fil0" d="M811 101c77,-74 185,-101 291,-101 159,0 312,76 367,229 35,95 35,199 35,299 1,86 1,179 31,261 25,69 71,124 151,124 116,0 185,-109 218,-204 21,-62 33,-132 33,-196 -1,-161 -73,-351 -239,-410 -36,-14 -65,-47 -28,-77 40,-33 106,-29 152,-12 169,66 268,210 304,374 18,84 23,170 23,255 0,89 -7,180 -26,268 -41,189 -130,357 -303,459 -93,55 -210,86 -317,102 -61,9 -123,13 -185,14 -83,1 -176,-9 -255,-37 -71,-25 -153,-88 -152,-170 1,-49 33,-87 73,-113 49,-31 119,-42 176,-42 52,0 111,10 158,35 47,-25 106,-35 158,-35 57,0 127,11 176,42 45,28 79,70 73,126 110,-78 172,-202 199,-330 -67,41 -147,62 -238,62 -147,0 -274,-49 -337,-186 -45,-97 -47,-205 -47,-310 0,-92 0,-190 -32,-278 -24,-68 -87,-141 -167,-139 -143,3 -186,135 -186,254l0 603c0,42 -69,56 -101,56 -32,0 -102,-14 -102,-56l0 -603c0,-133 -60,-254 -212,-254 -123,0 -222,94 -264,201 -25,61 -35,128 -35,194 -1,151 59,354 215,418 37,16 58,50 19,78 -39,28 -103,27 -146,9 -204,-88 -292,-299 -291,-505 0,-84 15,-168 52,-244 82,-172 260,-262 450,-262 110,0 226,26 309,101zm506 1286c58,0 129,-3 182,-27 35,-15 59,-41 58,-80 -2,-42 -45,-59 -82,-59 -46,0 -66,42 -66,83 -1,40 -59,51 -91,51 -32,0 -91,-11 -91,-51 0,-41 -20,-83 -66,-83 -37,0 -81,17 -82,59 -2,39 23,65 57,80 53,23 124,27 181,27z"/>
 </g>
</svg>
