<?xml version="1.0" encoding="UTF-8"?>
<!DOCTYPE svg PUBLIC "-//W3C//DTD SVG 1.1//EN" "http://www.w3.org/Graphics/SVG/1.1/DTD/svg11.dtd">
<!-- Creator: CorelDRAW X8 -->
<svg xmlns="http://www.w3.org/2000/svg" xml:space="preserve" width="2906px" height="1412px" version="1.1" style="shape-rendering:geometricPrecision; text-rendering:geometricPrecision; image-rendering:optimizeQuality; fill-rule:evenodd; clip-rule:evenodd"
viewBox="0 0 2906 1412"
 xmlns:xlink="http://www.w3.org/1999/xlink">
 <defs>
  <style type="text/css">
   <![CDATA[
    .fil0 {fill:#669933;fill-rule:nonzero}
   ]]>
  </style>
 </defs>
 <g id="Layer_x0020_1">
  <metadata id="CorelCorpID_0Corel-Layer"/>
  <path class="fil0" d="M1703 978c0,25 -37,46 -81,46 -45,0 -82,-21 -82,-46l0 -611c0,-146 -69,-276 -233,-276 -128,0 -237,91 -283,208 -27,67 -37,136 -36,209 3,158 67,344 223,410 36,15 43,44 16,64 -17,12 -40,18 -62,18l-658 0c-45,0 -82,-21 -82,-46 0,-15 11,-26 23,-33 65,-37 91,-114 91,-186 0,-134 -93,-207 -187,-207 -94,0 -189,73 -189,207 0,77 33,162 107,195 35,16 40,45 12,64 -32,23 -84,22 -119,5 -104,-49 -163,-148 -163,-264 0,-196 176,-299 352,-298 175,0 350,103 350,298 0,65 -18,125 -52,173l336 0c-109,-99 -158,-247 -160,-400 -2,-91 14,-176 51,-255 76,-163 254,-253 430,-253 124,0 238,31 323,125 89,-86 222,-125 354,-125 209,1 365,73 469,197 320,65 471,346 451,658 -20,324 -235,547 -559,557 -133,4 -273,-30 -379,-113 -25,-21 -17,-49 20,-64 37,-14 88,-9 113,11 68,54 160,78 246,75 252,-7 382,-234 397,-466 12,-188 -42,-396 -202,-511 29,78 42,155 40,238 -1,99 -24,199 -72,279 -69,114 -183,164 -302,163 -118,-1 -227,-48 -294,-149 -43,-65 -66,-146 -66,-230 0,-98 32,-199 91,-277 78,-104 197,-162 324,-178 -76,-67 -179,-102 -277,-100 -178,4 -281,122 -281,301l0 587zm633 -701c-100,0 -190,46 -250,126 -52,69 -77,156 -77,242 0,74 19,144 55,198 33,50 82,89 143,90 57,0 106,-34 147,-101 43,-72 63,-161 64,-250 1,-108 -22,-215 -82,-305z"/>
 </g>
</svg>
