<?xml version="1.0" encoding="UTF-8"?>
<!DOCTYPE svg PUBLIC "-//W3C//DTD SVG 1.1//EN" "http://www.w3.org/Graphics/SVG/1.1/DTD/svg11.dtd">
<!-- Creator: CorelDRAW X8 -->
<svg xmlns="http://www.w3.org/2000/svg" xml:space="preserve" width="1960px" height="1486px" version="1.1" style="shape-rendering:geometricPrecision; text-rendering:geometricPrecision; image-rendering:optimizeQuality; fill-rule:evenodd; clip-rule:evenodd"
viewBox="0 0 1960 1486"
 xmlns:xlink="http://www.w3.org/1999/xlink">
 <defs>
  <style type="text/css">
   <![CDATA[
    .fil0 {fill:#5B5A50;fill-rule:nonzero}
   ]]>
  </style>
 </defs>
 <g id="Layer_x0020_1">
  <metadata id="CorelCorpID_0Corel-Layer"/>
  <path class="fil0" d="M1805 170c106,109 159,251 155,402 -10,396 -309,619 -694,619l-950 0c-53,0 -113,4 -111,69 1,66 57,68 111,68l1469 0c46,0 101,28 101,79 0,51 -55,79 -101,79l-1469 0c-143,0 -320,-34 -316,-209 4,-169 178,-198 316,-198l949 0c310,0 492,-219 494,-515 0,-104 -28,-213 -90,-298 -68,-94 -170,-155 -289,-155 -223,-1 -359,184 -363,395 -4,166 76,323 232,398 16,7 33,21 34,39 3,42 -68,57 -99,57l-657 0c-32,0 -102,-14 -102,-56 0,-17 14,-31 29,-39 61,-35 85,-108 85,-174 0,-95 -60,-192 -167,-192 -107,0 -169,95 -169,192 0,70 29,152 99,182 38,17 55,51 15,78 -39,27 -104,26 -147,7 -109,-50 -170,-151 -170,-268 0,-199 187,-302 372,-302 185,0 370,104 370,303 0,56 -14,110 -44,158l274 0c-105,-100 -162,-240 -159,-383 7,-314 278,-506 566,-506 163,0 313,53 426,170z"/>
 </g>
</svg>
