<?xml version="1.0" encoding="UTF-8"?>
<!DOCTYPE svg PUBLIC "-//W3C//DTD SVG 1.1//EN" "http://www.w3.org/Graphics/SVG/1.1/DTD/svg11.dtd">
<!-- Creator: CorelDRAW X8 -->
<svg xmlns="http://www.w3.org/2000/svg" xml:space="preserve" width="2621px" height="1024px" version="1.1" style="shape-rendering:geometricPrecision; text-rendering:geometricPrecision; image-rendering:optimizeQuality; fill-rule:evenodd; clip-rule:evenodd"
viewBox="0 0 2621 1024"
 xmlns:xlink="http://www.w3.org/1999/xlink">
 <defs>
  <style type="text/css">
   <![CDATA[
    .fil0 {fill:#2B2A29;fill-rule:nonzero}
   ]]>
  </style>
 </defs>
 <g id="Layer_x0020_1">
  <metadata id="CorelCorpID_0Corel-Layer"/>
  <path class="fil0" d="M1328 0c-190,0 -368,83 -451,256 -37,78 -52,160 -52,245 0,142 45,285 146,387l-273 0c30,-47 44,-102 44,-157 0,-200 -186,-303 -371,-303 -185,0 -371,103 -371,302 0,117 61,217 170,267 20,9 46,15 71,15 28,0 55,-7 76,-21 16,-11 23,-23 23,-35 0,-17 -15,-33 -38,-43 -70,-31 -99,-113 -99,-183 0,-96 62,-192 169,-192 106,1 167,97 167,193 0,66 -24,138 -86,174 -14,8 -28,21 -28,39 0,41 69,56 101,56l658 0c34,0 99,-15 99,-58 0,-20 -23,-35 -40,-42 -153,-64 -215,-247 -215,-401 0,-67 10,-131 35,-193 43,-107 142,-195 265,-195 145,0 212,116 212,259l0 598c0,42 70,56 102,56 32,0 101,-14 101,-56l0 -574c0,-170 97,-284 271,-284 84,0 170,30 236,80 -123,21 -235,78 -311,176 -60,79 -92,179 -92,276 0,80 21,162 67,229 71,107 191,153 316,153 131,0 249,-55 317,-167 53,-86 74,-187 74,-287 0,-130 -35,-254 -118,-357 -122,-153 -304,-213 -498,-213 -122,0 -258,32 -353,111 -89,-84 -207,-111 -324,-111zm900 913c-53,-1 -97,-39 -125,-81 -38,-55 -53,-124 -53,-190 0,-82 24,-166 75,-233 53,-68 130,-112 218,-116 54,84 76,183 76,281 0,85 -19,174 -64,247 -27,44 -70,92 -127,92z"/>
 </g>
</svg>
