<?xml version="1.0" encoding="UTF-8"?>
<!DOCTYPE svg PUBLIC "-//W3C//DTD SVG 1.1//EN" "http://www.w3.org/Graphics/SVG/1.1/DTD/svg11.dtd">
<!-- Creator: CorelDRAW X8 -->
<svg xmlns="http://www.w3.org/2000/svg" xml:space="preserve" width="2946px" height="1412px" version="1.1" style="shape-rendering:geometricPrecision; text-rendering:geometricPrecision; image-rendering:optimizeQuality; fill-rule:evenodd; clip-rule:evenodd"
viewBox="0 0 2946 1412"
 xmlns:xlink="http://www.w3.org/1999/xlink">
 <defs>
  <style type="text/css">
   <![CDATA[
    .fil0 {fill:#5B5A50;fill-rule:nonzero}
   ]]>
  </style>
 </defs>
 <g id="Layer_x0020_1">
  <metadata id="CorelCorpID_0Corel-Layer"/>
  <path class="fil0" d="M1743 968c0,41 -69,56 -101,56 -32,0 -101,-15 -101,-56l0 -596c-1,-142 -68,-261 -214,-261 -120,0 -221,90 -264,195 -26,66 -36,133 -35,203 3,149 64,328 215,391 17,7 37,20 40,39 6,44 -67,60 -98,60l-658 0c-32,0 -102,-14 -102,-56 0,-17 14,-31 29,-39 61,-35 85,-107 85,-173 0,-95 -60,-192 -167,-192 -107,0 -169,96 -169,192 0,70 29,151 99,181 38,17 55,52 15,78 -40,28 -103,27 -147,7 -109,-50 -170,-149 -170,-266 0,-201 187,-303 372,-303 185,0 370,104 370,303 0,56 -14,110 -44,157l273 0c-100,-101 -143,-240 -145,-379 -2,-88 13,-173 51,-253 81,-168 265,-256 450,-256 119,0 234,25 324,112 96,-80 230,-112 353,-112 185,0 361,54 483,196 324,68 477,346 457,657 -20,327 -243,549 -578,559 -139,4 -286,-31 -396,-117 -38,-29 -12,-63 25,-77 41,-16 105,-15 141,13 63,50 147,72 228,69 243,-7 364,-233 378,-448 10,-158 -28,-335 -145,-451 17,60 24,121 23,183 -1,96 -22,189 -73,272 -70,113 -188,169 -321,168 -125,-1 -242,-49 -313,-154 -45,-67 -67,-144 -67,-224 0,-98 32,-199 92,-278 76,-98 189,-156 311,-177 -68,-53 -157,-82 -244,-80 -174,3 -263,120 -262,285l0 572zm599 -673c-88,4 -165,48 -217,117 -52,67 -76,151 -76,234 0,66 16,129 54,185 28,42 72,80 125,81 57,1 100,-48 127,-92 44,-71 62,-153 63,-236 1,-102 -20,-203 -76,-289z"/>
 </g>
</svg>
