<?xml version="1.0" encoding="UTF-8"?>
<!DOCTYPE svg PUBLIC "-//W3C//DTD SVG 1.1//EN" "http://www.w3.org/Graphics/SVG/1.1/DTD/svg11.dtd">
<!-- Creator: CorelDRAW X8 -->
<svg xmlns="http://www.w3.org/2000/svg" xml:space="preserve" width="2329px" height="1486px" version="1.1" style="shape-rendering:geometricPrecision; text-rendering:geometricPrecision; image-rendering:optimizeQuality; fill-rule:evenodd; clip-rule:evenodd"
viewBox="0 0 2329 1486"
 xmlns:xlink="http://www.w3.org/1999/xlink">
 <defs>
  <style type="text/css">
   <![CDATA[
    .fil0 {fill:#A82682;fill-rule:nonzero}
   ]]>
  </style>
 </defs>
 <g id="Layer_x0020_1">
  <metadata id="CorelCorpID_0Corel-Layer"/>
  <path class="fil0" d="M1374 506c-3,166 76,323 233,398 15,7 33,21 34,39 3,42 -68,57 -99,57l-658 0c-32,0 -101,-14 -101,-56 0,-17 14,-31 28,-39 62,-35 85,-108 85,-174 0,-96 -60,-192 -167,-192 -106,0 -168,95 -169,192 0,69 30,152 100,182 38,17 54,51 15,78 -40,27 -104,26 -147,7 -109,-51 -171,-151 -170,-268 0,-199 186,-302 371,-302 186,0 370,104 370,303 0,56 -13,110 -43,158l274 0c-105,-100 -163,-240 -159,-383 6,-313 276,-506 565,-506 365,0 603,262 593,616 -4,129 -42,256 -110,366 -108,177 -284,309 -476,387 -193,79 -394,116 -602,117 -248,1 -514,-48 -731,-171 -263,-151 -405,-385 -410,-685 -4,-246 100,-481 317,-612 38,-24 103,-23 143,-3 39,21 43,55 5,79 -184,113 -264,330 -263,536 0,248 104,454 318,589 180,113 408,156 619,155 169,0 327,-28 484,-92 171,-69 322,-193 413,-353 54,-97 85,-203 88,-313 8,-241 -107,-505 -388,-505 -225,0 -358,188 -362,395z"/>
 </g>
</svg>
