<?xml version="1.0" encoding="UTF-8"?>
<!DOCTYPE svg PUBLIC "-//W3C//DTD SVG 1.1//EN" "http://www.w3.org/Graphics/SVG/1.1/DTD/svg11.dtd">
<!-- Creator: CorelDRAW X8 -->
<svg xmlns="http://www.w3.org/2000/svg" xml:space="preserve" width="2620px" height="1024px" version="1.1" style="shape-rendering:geometricPrecision; text-rendering:geometricPrecision; image-rendering:optimizeQuality; fill-rule:evenodd; clip-rule:evenodd"
viewBox="0 0 2620 1024"
 xmlns:xlink="http://www.w3.org/1999/xlink">
 <defs>
  <style type="text/css">
   <![CDATA[
    .fil0 {fill:#A82682;fill-rule:nonzero}
   ]]>
  </style>
 </defs>
 <g id="Layer_x0020_1">
  <metadata id="CorelCorpID_0Corel-Layer"/>
  <path class="fil0" d="M1641 1024c-32,0 -101,-14 -101,-56l0 -598c0,-131 -61,-259 -213,-259 -121,0 -221,89 -264,195 -26,65 -36,132 -35,202 2,149 64,329 215,392 17,7 37,20 40,40 6,43 -67,59 -99,59l-658 0c-32,0 -101,-14 -101,-55 0,-18 14,-31 28,-40 62,-35 86,-107 86,-173 0,-96 -61,-193 -167,-193 -107,0 -169,96 -169,192 0,70 29,152 99,183 38,17 54,51 15,78 -39,27 -104,26 -147,6 -109,-50 -170,-150 -170,-267 0,-200 187,-303 372,-303 185,1 370,105 370,304 0,55 -14,110 -44,157l273 0c-101,-101 -143,-241 -145,-380 -2,-87 13,-172 51,-252 81,-169 265,-256 450,-256 120,0 236,27 324,111 96,-79 230,-111 353,-111 194,1 376,60 498,213 85,106 120,234 118,368 -1,95 -23,194 -74,276 -69,113 -188,168 -321,167 -125,-1 -242,-49 -312,-153 -46,-67 -67,-149 -67,-229 0,-97 32,-197 92,-276 76,-98 188,-155 311,-176 -68,-52 -158,-81 -244,-80 -173,4 -263,121 -263,284l0 574c0,42 -69,56 -101,56zm701 -731c-88,4 -165,48 -218,116 -51,67 -75,151 -75,233 0,66 15,135 53,190 28,42 72,80 126,81 57,0 99,-48 127,-92 43,-71 62,-158 63,-240 1,-101 -20,-202 -76,-288z"/>
 </g>
</svg>
