<?xml version="1.0" encoding="UTF-8"?>
<!DOCTYPE svg PUBLIC "-//W3C//DTD SVG 1.1//EN" "http://www.w3.org/Graphics/SVG/1.1/DTD/svg11.dtd">
<!-- Creator: CorelDRAW X8 -->
<svg xmlns="http://www.w3.org/2000/svg" xml:space="preserve" width="2457px" height="1024px" version="1.1" style="shape-rendering:geometricPrecision; text-rendering:geometricPrecision; image-rendering:optimizeQuality; fill-rule:evenodd; clip-rule:evenodd"
viewBox="0 0 2457 1024"
 xmlns:xlink="http://www.w3.org/1999/xlink">
 <defs>
  <style type="text/css">
   <![CDATA[
    .fil0 {fill:#996633;fill-rule:nonzero}
   ]]>
  </style>
 </defs>
 <g id="Layer_x0020_1">
  <metadata id="CorelCorpID_0Corel-Layer"/>
  <path class="fil0" d="M526 999c-32,0 -101,-14 -101,-55 0,-18 14,-31 28,-40 62,-35 86,-107 86,-173 0,-96 -61,-192 -167,-193 -107,0 -169,96 -169,192 0,70 29,152 99,183 17,7 35,21 38,40 1,16 -10,29 -23,38 -20,14 -47,20 -72,20 -27,1 -53,-4 -75,-14 -109,-50 -170,-150 -170,-267 0,-199 186,-303 371,-302 185,0 371,103 371,303 0,55 -14,110 -44,157l273 0c-101,-101 -144,-241 -146,-379 -1,-88 14,-173 52,-253 83,-173 261,-256 450,-256 111,0 231,26 314,103 84,-77 203,-103 314,-103 190,0 368,90 450,262 39,80 53,170 52,258 -3,203 -92,405 -291,491 -19,8 -43,13 -67,13 -27,0 -57,-6 -79,-22 -12,-9 -23,-22 -20,-38 3,-19 22,-33 39,-40 151,-62 213,-256 215,-404 1,-70 -8,-143 -35,-208 -42,-107 -141,-201 -264,-201 -151,0 -212,114 -212,249l0 608c0,42 -69,56 -102,56 -32,0 -101,-14 -101,-56l0 -608c0,-135 -62,-249 -213,-249 -122,0 -221,88 -264,195 -26,65 -36,132 -35,202 2,149 64,329 215,392 17,7 37,20 40,40 6,43 -67,59 -99,59l-658 0z"/>
 </g>
</svg>
