<?xml version="1.0" encoding="UTF-8"?>
<!DOCTYPE svg PUBLIC "-//W3C//DTD SVG 1.1//EN" "http://www.w3.org/Graphics/SVG/1.1/DTD/svg11.dtd">
<!-- Creator: CorelDRAW X8 -->
<svg xmlns="http://www.w3.org/2000/svg" xml:space="preserve" width="1992px" height="1486px" version="1.1" style="shape-rendering:geometricPrecision; text-rendering:geometricPrecision; image-rendering:optimizeQuality; fill-rule:evenodd; clip-rule:evenodd"
viewBox="0 0 1992 1487"
 xmlns:xlink="http://www.w3.org/1999/xlink">
 <defs>
  <style type="text/css">
   <![CDATA[
    .fil0 {fill:#2B2A29;fill-rule:nonzero}
   ]]>
  </style>
 </defs>
 <g id="Layer_x0020_1">
  <metadata id="CorelCorpID_0Corel-Layer"/>
  <path class="fil0" d="M1513 1402c144,-68 266,-182 346,-318 88,-146 133,-311 133,-482 0,-367 -240,-602 -614,-602 -299,0 -565,204 -565,518 0,139 57,273 159,370l-274 0c30,-47 44,-101 44,-157 0,-199 -185,-303 -370,-303 -185,0 -372,103 -372,302 0,117 61,217 170,268 20,10 45,14 69,14 29,0 57,-6 78,-21 16,-11 23,-23 23,-34 0,-18 -15,-34 -38,-44 -70,-30 -99,-113 -99,-182 0,-97 62,-192 169,-192 106,0 167,96 167,192 0,66 -24,139 -86,174 -14,8 -28,22 -28,39 0,42 70,56 101,56l658 0c33,0 100,-13 100,-55 0,-20 -18,-34 -34,-42 -154,-72 -232,-223 -232,-385 0,-214 131,-407 360,-407 281,0 410,242 410,495 0,147 -25,284 -90,416 -49,98 -121,188 -210,254 -23,-76 -134,-116 -203,-132 -65,-14 -131,-20 -197,-20 -72,0 -148,6 -216,24 -74,18 -195,68 -195,157 0,88 117,138 189,157 66,17 142,25 222,25 80,0 164,-8 245,-26 63,-14 123,-33 180,-59zm-425 -20c-52,0 -116,-5 -166,-23 -22,-9 -56,-27 -56,-54 0,-26 34,-44 56,-52 50,-19 114,-25 166,-25 46,0 96,4 140,18 27,8 76,26 76,60 0,32 -50,52 -76,59 -46,13 -94,17 -140,17z"/>
 </g>
</svg>
