<?xml version="1.0" encoding="UTF-8"?>
<!DOCTYPE svg PUBLIC "-//W3C//DTD SVG 1.1//EN" "http://www.w3.org/Graphics/SVG/1.1/DTD/svg11.dtd">
<!-- Creator: CorelDRAW X8 -->
<svg xmlns="http://www.w3.org/2000/svg" xml:space="preserve" width="1991px" height="1486px" version="1.1" style="shape-rendering:geometricPrecision; text-rendering:geometricPrecision; image-rendering:optimizeQuality; fill-rule:evenodd; clip-rule:evenodd"
viewBox="0 0 1991 1486"
 xmlns:xlink="http://www.w3.org/1999/xlink">
 <defs>
  <style type="text/css">
   <![CDATA[
    .fil0 {fill:#A82682;fill-rule:nonzero}
   ]]>
  </style>
 </defs>
 <g id="Layer_x0020_1">
  <metadata id="CorelCorpID_0Corel-Layer"/>
  <path class="fil0" d="M1017 506c-4,166 75,323 232,397 16,8 33,21 34,40 3,42 -68,57 -99,57l-658 0c-31,0 -101,-14 -101,-56 0,-17 14,-31 28,-39 62,-35 86,-108 86,-174 0,-96 -61,-192 -167,-192 -107,0 -169,95 -169,192 0,69 29,152 99,182 38,17 55,51 15,78 -40,27 -104,26 -147,7 -109,-51 -170,-151 -170,-268 0,-199 187,-302 372,-302 185,0 370,104 370,303 0,56 -14,110 -44,157l274 0c-105,-99 -162,-239 -159,-382 7,-314 277,-506 566,-506 374,0 608,235 612,602 2,168 -47,339 -133,482 -80,136 -202,250 -346,317 -77,36 -160,59 -244,71 -60,9 -120,13 -180,14 -72,1 -153,-7 -222,-25 -72,-19 -189,-69 -189,-157 0,-89 121,-138 194,-157 69,-17 145,-23 216,-23 66,0 132,5 197,20 69,16 180,56 203,131 89,-65 161,-155 210,-253 63,-127 93,-275 90,-416 -6,-247 -125,-495 -408,-495 -221,-1 -358,181 -362,395zm70 722c-52,0 -116,5 -165,24 -22,8 -56,26 -57,52 0,27 35,45 57,54 49,18 113,23 165,23 47,0 95,-4 140,-17 26,-7 77,-27 76,-60 0,-32 -49,-51 -75,-59 -45,-13 -94,-17 -141,-17z"/>
 </g>
</svg>
