<?xml version="1.0" encoding="UTF-8"?>
<!DOCTYPE svg PUBLIC "-//W3C//DTD SVG 1.1//EN" "http://www.w3.org/Graphics/SVG/1.1/DTD/svg11.dtd">
<!-- Creator: CorelDRAW X8 -->
<svg xmlns="http://www.w3.org/2000/svg" xml:space="preserve" width="790px" height="1024px" version="1.1" style="shape-rendering:geometricPrecision; text-rendering:geometricPrecision; image-rendering:optimizeQuality; fill-rule:evenodd; clip-rule:evenodd"
viewBox="0 0 790 1024"
 xmlns:xlink="http://www.w3.org/1999/xlink">
 <defs>
  <style type="text/css">
   <![CDATA[
    .fil0 {fill:#A82682;fill-rule:nonzero}
   ]]>
  </style>
 </defs>
 <g id="Layer_x0020_1">
  <metadata id="CorelCorpID_0Corel-Layer"/>
  <path class="fil0" d="M203 308c-2,42 -71,55 -104,55 -32,-1 -100,-16 -98,-57 3,-79 35,-150 93,-205 73,-69 172,-102 272,-101 129,1 255,58 328,163 70,100 96,230 96,349 0,115 -24,246 -88,344 -72,109 -206,167 -336,168 -102,0 -196,-34 -269,-103 -58,-54 -91,-124 -97,-202 -3,-42 65,-57 97,-57 33,-1 102,12 105,53 4,57 27,110 70,150 26,24 57,47 94,48 60,0 115,-48 145,-94 58,-88 76,-204 76,-307 0,-104 -20,-222 -81,-310 -33,-45 -81,-89 -141,-90 -35,-1 -72,22 -96,45 -43,40 -63,94 -66,151z"/>
 </g>
</svg>
