<?xml version="1.0" encoding="UTF-8"?>
<!DOCTYPE svg PUBLIC "-//W3C//DTD SVG 1.1//EN" "http://www.w3.org/Graphics/SVG/1.1/DTD/svg11.dtd">
<!-- Creator: CorelDRAW X8 -->
<svg xmlns="http://www.w3.org/2000/svg" xml:space="preserve" width="790px" height="1024px" version="1.1" style="shape-rendering:geometricPrecision; text-rendering:geometricPrecision; image-rendering:optimizeQuality; fill-rule:evenodd; clip-rule:evenodd"
viewBox="0 0 790 1024"
 xmlns:xlink="http://www.w3.org/1999/xlink">
 <defs>
  <style type="text/css">
   <![CDATA[
    .fil0 {fill:#996633;fill-rule:nonzero}
   ]]>
  </style>
 </defs>
 <g id="Layer_x0020_1">
  <metadata id="CorelCorpID_0Corel-Layer"/>
  <path class="fil0" d="M203 308c-2,42 -71,55 -103,54 -33,0 -101,-15 -99,-56 3,-79 35,-150 93,-205 73,-69 172,-102 272,-101 128,1 255,58 328,163 70,100 96,230 96,349 0,115 -24,246 -89,344 -71,109 -205,167 -335,168 -102,0 -196,-34 -269,-104 -58,-53 -91,-124 -97,-201 -3,-42 65,-57 97,-58 33,0 102,12 105,54 4,57 27,110 70,150 26,24 57,47 94,47 60,1 115,-47 145,-94 58,-88 76,-203 76,-306 0,-104 -20,-222 -81,-310 -33,-45 -81,-89 -141,-90 -35,-1 -72,22 -96,45 -43,40 -63,94 -66,151z"/>
 </g>
</svg>
