<?xml version="1.0" encoding="UTF-8"?>
<!DOCTYPE svg PUBLIC "-//W3C//DTD SVG 1.1//EN" "http://www.w3.org/Graphics/SVG/1.1/DTD/svg11.dtd">
<!-- Creator: CorelDRAW X8 -->
<svg xmlns="http://www.w3.org/2000/svg" xml:space="preserve" width="790px" height="1024px" version="1.1" style="shape-rendering:geometricPrecision; text-rendering:geometricPrecision; image-rendering:optimizeQuality; fill-rule:evenodd; clip-rule:evenodd"
viewBox="0 0 790 1024"
 xmlns:xlink="http://www.w3.org/1999/xlink">
 <defs>
  <style type="text/css">
   <![CDATA[
    .fil0 {fill:#EF7F1A;fill-rule:nonzero}
   ]]>
  </style>
 </defs>
 <g id="Layer_x0020_1">
  <metadata id="CorelCorpID_0Corel-Layer"/>
  <path class="fil0" d="M366 1024c130,0 264,-59 336,-168 64,-98 88,-229 88,-344 0,-119 -26,-249 -96,-349 -75,-108 -199,-163 -328,-163 -99,0 -200,33 -272,101 -56,53 -93,129 -93,207 0,39 66,54 98,55 33,1 102,-13 104,-55 2,-49 25,-109 63,-150 26,-27 62,-46 100,-46 60,0 107,43 140,90 62,87 81,206 81,310 0,103 -18,219 -76,307 -30,46 -85,95 -145,94 -36,0 -69,-20 -96,-49 -39,-41 -65,-101 -68,-149 -3,-43 -72,-53 -105,-53 -31,0 -97,14 -97,54 0,74 44,155 97,205 73,69 167,103 269,103z"/>
 </g>
</svg>
