<?xml version="1.0" encoding="UTF-8"?>
<!DOCTYPE svg PUBLIC "-//W3C//DTD SVG 1.1//EN" "http://www.w3.org/Graphics/SVG/1.1/DTD/svg11.dtd">
<!-- Creator: CorelDRAW X8 -->
<svg xmlns="http://www.w3.org/2000/svg" xml:space="preserve" width="682px" height="1405px" version="1.1" style="shape-rendering:geometricPrecision; text-rendering:geometricPrecision; image-rendering:optimizeQuality; fill-rule:evenodd; clip-rule:evenodd"
viewBox="0 0 682 1405"
 xmlns:xlink="http://www.w3.org/1999/xlink">
 <defs>
  <style type="text/css">
   <![CDATA[
    .fil0 {fill:#A82682}
   ]]>
  </style>
 </defs>
 <g id="Layer_x0020_1">
  <metadata id="CorelCorpID_0Corel-Layer"/>
  <path class="fil0" d="M215 243c35,0 53,-39 53,-70 0,-30 -18,-68 -53,-68 -37,0 -53,41 -53,71 0,31 17,67 53,67zm203 -123c10,19 15,39 15,60 -2,49 -22,87 -63,115 -43,30 -102,42 -154,42 -53,0 -111,-12 -155,-43 -39,-28 -60,-65 -61,-114 -2,-66 45,-117 102,-146 61,-29 139,-35 206,-34 182,2 374,46 374,263l0 1086c0,42 -69,56 -102,56 -33,0 -102,-14 -102,-56l0 -1086c0,-53 -9,-114 -60,-143z"/>
 </g>
</svg>
