<?xml version="1.0" encoding="UTF-8"?>
<!DOCTYPE svg PUBLIC "-//W3C//DTD SVG 1.1//EN" "http://www.w3.org/Graphics/SVG/1.1/DTD/svg11.dtd">
<!-- Creator: CorelDRAW X8 -->
<svg xmlns="http://www.w3.org/2000/svg" xml:space="preserve" width="317px" height="291px" version="1.1" style="shape-rendering:geometricPrecision; text-rendering:geometricPrecision; image-rendering:optimizeQuality; fill-rule:evenodd; clip-rule:evenodd"
viewBox="0 0 317 291"
 xmlns:xlink="http://www.w3.org/1999/xlink">
 <defs>
  <style type="text/css">
   <![CDATA[
    .fil0 {fill:#669933}
   ]]>
  </style>
 </defs>
 <g id="Layer_x0020_1">
  <metadata id="CorelCorpID_0Corel-Layer"/>
  <path class="fil0" d="M274 42c26,24 43,59 43,104 0,45 -17,79 -43,103 -30,28 -72,42 -115,42 -43,0 -86,-14 -116,-42 -26,-24 -43,-58 -43,-103 0,-43 16,-82 49,-109 30,-25 70,-37 110,-37 41,0 84,13 115,42zm-67 172c11,-16 19,-39 19,-68 0,-30 -8,-53 -19,-69 -13,-17 -31,-26 -48,-26 -19,0 -35,9 -46,23 -16,20 -22,47 -22,72 0,25 6,51 22,71 13,16 29,24 46,24 19,0 36,-12 48,-27z"/>
 </g>
</svg>
