<?xml version="1.0" encoding="UTF-8"?>
<!DOCTYPE svg PUBLIC "-//W3C//DTD SVG 1.1//EN" "http://www.w3.org/Graphics/SVG/1.1/DTD/svg11.dtd">
<!-- Creator: CorelDRAW X8 -->
<svg xmlns="http://www.w3.org/2000/svg" xml:space="preserve" width="742px" height="1596px" version="1.1" style="shape-rendering:geometricPrecision; text-rendering:geometricPrecision; image-rendering:optimizeQuality; fill-rule:evenodd; clip-rule:evenodd"
viewBox="0 0 742 1596"
 xmlns:xlink="http://www.w3.org/1999/xlink">
 <defs>
  <style type="text/css">
   <![CDATA[
    .fil0 {fill:#A82682}
   ]]>
  </style>
 </defs>
 <g id="Layer_x0020_1">
  <metadata id="CorelCorpID_0Corel-Layer"/>
  <path class="fil0" d="M544 1387c64,-96 66,-229 -1,-309 14,32 19,66 18,101 -2,157 -126,250 -279,250 -154,0 -276,-96 -282,-252 -4,-130 79,-235 206,-268 68,-137 115,-313 121,-465 2,-78 -6,-171 -43,-241 -25,-47 -64,-84 -118,-95 -25,-5 -67,-22 -67,-53 1,-42 65,-55 98,-55 103,0 213,64 268,150 55,87 67,196 64,296 -5,151 -48,315 -109,453 186,29 325,157 322,350 -4,226 -218,347 -428,347 -77,0 -157,-14 -226,-47 -35,-17 -42,-48 -7,-69 34,-20 91,-21 126,-4 34,17 70,23 107,23 99,0 182,-41 230,-112zm-165 -211c0,-54 -27,-156 -97,-156 -70,0 -97,102 -97,156 0,56 26,153 97,153 71,0 97,-97 97,-153z"/>
 </g>
</svg>
