<?xml version="1.0" encoding="UTF-8"?>
<!DOCTYPE svg PUBLIC "-//W3C//DTD SVG 1.1//EN" "http://www.w3.org/Graphics/SVG/1.1/DTD/svg11.dtd">
<!-- Creator: CorelDRAW X8 -->
<svg xmlns="http://www.w3.org/2000/svg" xml:space="preserve" width="439px" height="389px" version="1.1" style="shape-rendering:geometricPrecision; text-rendering:geometricPrecision; image-rendering:optimizeQuality; fill-rule:evenodd; clip-rule:evenodd"
viewBox="0 0 439 389"
 xmlns:xlink="http://www.w3.org/1999/xlink">
 <defs>
  <style type="text/css">
   <![CDATA[
    .fil0 {fill:#996633}
   ]]>
  </style>
 </defs>
 <g id="Layer_x0020_1">
  <metadata id="CorelCorpID_0Corel-Layer"/>
  <path class="fil0" d="M292 252c-33,29 -80,42 -123,42 -42,0 -85,-11 -118,-37 -35,-26 -51,-63 -51,-106 0,-53 26,-97 74,-123 37,-20 84,-28 126,-28 64,0 137,13 185,58 38,35 55,82 54,132 -1,57 -25,105 -70,141 -50,41 -117,58 -181,58 -47,0 -95,-8 -137,-27 -8,-4 -17,-10 -17,-20 -1,-8 6,-15 13,-19 12,-6 28,-9 41,-9 13,0 27,3 37,7 19,9 41,13 63,13 41,0 82,-16 111,-44 27,-26 45,-62 46,-100 1,-22 -5,-52 -14,-66 4,22 3,51 -1,67 -6,23 -18,44 -38,61zm-66 -102c0,-22 -5,-45 -18,-64 -9,-12 -24,-23 -39,-23 -15,0 -28,10 -37,20 -15,19 -21,44 -21,67 0,24 5,49 21,67 9,10 22,20 37,20 15,0 30,-11 39,-23 13,-18 18,-42 18,-64z"/>
 </g>
</svg>
