<?xml version="1.0" encoding="UTF-8"?>
<!DOCTYPE svg PUBLIC "-//W3C//DTD SVG 1.1//EN" "http://www.w3.org/Graphics/SVG/1.1/DTD/svg11.dtd">
<!-- Creator: CorelDRAW X8 -->
<svg xmlns="http://www.w3.org/2000/svg" xml:space="preserve" width="554px" height="514px" version="1.1" style="shape-rendering:geometricPrecision; text-rendering:geometricPrecision; image-rendering:optimizeQuality; fill-rule:evenodd; clip-rule:evenodd"
viewBox="0 0 554 514"
 xmlns:xlink="http://www.w3.org/1999/xlink">
 <defs>
  <style type="text/css">
   <![CDATA[
    .fil0 {fill:#996633}
   ]]>
  </style>
 </defs>
 <g id="Layer_x0020_1">
  <metadata id="CorelCorpID_0Corel-Layer"/>
  <path class="fil0" d="M210 388c-114,0 -210,-68 -210,-188 0,-69 31,-128 92,-163 44,-26 104,-38 166,-37 85,1 174,27 224,76 48,47 73,109 72,176 -3,171 -163,262 -320,262 -58,0 -118,-10 -170,-36 -11,-5 -24,-16 -22,-30 1,-9 9,-17 17,-22 12,-7 29,-11 46,-12 17,0 35,3 49,10 25,12 52,17 80,17 73,0 144,-37 179,-96 17,-27 28,-61 31,-95 4,-47 -7,-95 -39,-129 10,24 16,52 14,84 -2,43 -16,87 -46,119 -38,41 -97,64 -163,64zm72 -189c0,-42 -20,-115 -72,-115 -53,0 -73,73 -73,115 0,41 20,113 73,113 52,0 72,-72 72,-113z"/>
 </g>
</svg>
