<?xml version="1.0" encoding="UTF-8"?>
<!DOCTYPE svg PUBLIC "-//W3C//DTD SVG 1.1//EN" "http://www.w3.org/Graphics/SVG/1.1/DTD/svg11.dtd">
<!-- Creator: CorelDRAW X8 -->
<svg xmlns="http://www.w3.org/2000/svg" xml:space="preserve" width="740px" height="686px" version="1.1" style="shape-rendering:geometricPrecision; text-rendering:geometricPrecision; image-rendering:optimizeQuality; fill-rule:evenodd; clip-rule:evenodd"
viewBox="0 0 740 686"
 xmlns:xlink="http://www.w3.org/1999/xlink">
 <defs>
  <style type="text/css">
   <![CDATA[
    .fil0 {fill:#996633}
   ]]>
  </style>
 </defs>
 <g id="Layer_x0020_1">
  <metadata id="CorelCorpID_0Corel-Layer"/>
  <path class="fil0" d="M280 518c-152,0 -280,-90 -280,-251 0,-93 42,-171 123,-218 59,-34 139,-50 221,-49 115,2 232,36 299,102 64,62 99,145 97,234 -4,228 -218,350 -428,350 -77,0 -157,-14 -226,-48 -15,-7 -33,-21 -30,-40 2,-12 12,-22 23,-29 17,-10 39,-15 62,-16 23,-1 46,4 65,13 33,16 69,22 106,22 98,1 192,-48 240,-127 22,-37 37,-82 41,-128 5,-62 -10,-126 -52,-172 13,33 21,70 19,113 -3,57 -22,116 -62,159 -51,55 -129,85 -218,85zm97 -253c0,-56 -27,-153 -97,-153 -70,0 -97,98 -97,153 0,56 27,152 97,152 71,0 97,-96 97,-152z"/>
 </g>
</svg>
