<?xml version="1.0" encoding="UTF-8"?>
<!DOCTYPE svg PUBLIC "-//W3C//DTD SVG 1.1//EN" "http://www.w3.org/Graphics/SVG/1.1/DTD/svg11.dtd">
<!-- Creator: CorelDRAW X8 -->
<svg xmlns="http://www.w3.org/2000/svg" xml:space="preserve" width="554px" height="506px" version="1.1" style="shape-rendering:geometricPrecision; text-rendering:geometricPrecision; image-rendering:optimizeQuality; fill-rule:evenodd; clip-rule:evenodd"
viewBox="0 0 554 506"
 xmlns:xlink="http://www.w3.org/1999/xlink">
 <defs>
  <style type="text/css">
   <![CDATA[
    .fil0 {fill:#A82682}
   ]]>
  </style>
 </defs>
 <g id="Layer_x0020_1">
  <metadata id="CorelCorpID_0Corel-Layer"/>
  <path class="fil0" d="M210 380c-114,0 -210,-66 -210,-186 0,-73 38,-128 92,-157 45,-25 103,-37 162,-37 84,1 170,27 227,75 45,39 74,97 73,168 -3,171 -163,263 -320,263 -58,0 -118,-11 -170,-36 -26,-13 -31,-36 -5,-52 26,-15 68,-15 95,-2 25,12 52,16 80,16 73,1 144,-36 179,-95 17,-28 28,-61 31,-96 4,-46 -7,-98 -39,-132 10,24 16,58 14,90 -2,43 -16,85 -46,117 -38,41 -97,64 -163,64zm72 -190c0,-42 -19,-113 -72,-113 -54,0 -73,72 -73,113 0,42 19,113 73,113 53,0 72,-71 72,-113z"/>
 </g>
</svg>
