<?xml version="1.0" encoding="UTF-8"?>
<!DOCTYPE svg PUBLIC "-//W3C//DTD SVG 1.1//EN" "http://www.w3.org/Graphics/SVG/1.1/DTD/svg11.dtd">
<!-- Creator: CorelDRAW X8 -->
<svg xmlns="http://www.w3.org/2000/svg" xml:space="preserve" width="1167px" height="699px" version="1.1" style="shape-rendering:geometricPrecision; text-rendering:geometricPrecision; image-rendering:optimizeQuality; fill-rule:evenodd; clip-rule:evenodd"
viewBox="0 0 1167 699"
 xmlns:xlink="http://www.w3.org/1999/xlink">
 <defs>
  <style type="text/css">
   <![CDATA[
    .fil0 {fill:#2B2A29;fill-rule:nonzero}
   ]]>
  </style>
 </defs>
 <g id="Layer_x0020_1">
  <metadata id="CorelCorpID_0Corel-Layer"/>
  <path class="fil0" d="M410 699c95,0 199,-7 296,-24 121,-23 268,-68 355,-159 78,-81 106,-186 106,-294l0 -222 -201 58 -1 164c0,122 -21,252 -151,308l0 -8c0,-92 -131,-139 -207,-156 -65,-14 -131,-20 -197,-20 -71,0 -147,6 -216,23 -73,18 -194,66 -194,153 0,86 117,134 189,152 67,18 144,25 221,25zm0 -102c-52,0 -117,-5 -166,-23 -21,-8 -56,-26 -56,-52 1,-26 35,-43 57,-51 49,-18 113,-23 165,-23 47,0 96,4 141,17 26,7 75,25 75,58 0,31 -50,50 -76,58 -45,12 -93,16 -140,16z"/>
 </g>
</svg>
