<?xml version="1.0" encoding="UTF-8"?>
<!DOCTYPE svg PUBLIC "-//W3C//DTD SVG 1.1//EN" "http://www.w3.org/Graphics/SVG/1.1/DTD/svg11.dtd">
<!-- Creator: CorelDRAW X8 -->
<svg xmlns="http://www.w3.org/2000/svg" xml:space="preserve" width="761px" height="418px" version="1.1" style="shape-rendering:geometricPrecision; text-rendering:geometricPrecision; image-rendering:optimizeQuality; fill-rule:evenodd; clip-rule:evenodd"
viewBox="0 0 761 418"
 xmlns:xlink="http://www.w3.org/1999/xlink">
 <defs>
  <style type="text/css">
   <![CDATA[
    .fil0 {fill:#A82682}
   ]]>
  </style>
 </defs>
 <g id="Layer_x0020_1">
  <metadata id="CorelCorpID_0Corel-Layer"/>
  <path class="fil0" d="M256 270c-28,0 -62,2 -90,12 -12,5 -32,15 -32,29 0,15 20,25 32,30 27,10 61,12 90,12 26,0 51,-2 76,-9 15,-4 44,-14 44,-33 0,-18 -29,-28 -43,-32 -25,-7 -51,-9 -77,-9zm253 35c50,-31 50,-107 50,-170l0 -97 202 -38 0 136c0,64 -26,131 -72,178 -49,51 -142,75 -211,87 -67,12 -138,17 -206,17 -51,0 -107,-4 -156,-16 -43,-11 -116,-39 -116,-91 0,-52 76,-80 119,-91 44,-10 92,-14 137,-14 42,0 85,3 126,12 43,10 121,36 127,87z"/>
 </g>
</svg>
