<?xml version="1.0" encoding="UTF-8"?>
<!DOCTYPE svg PUBLIC "-//W3C//DTD SVG 1.1//EN" "http://www.w3.org/Graphics/SVG/1.1/DTD/svg11.dtd">
<!-- Creator: CorelDRAW X8 -->
<svg xmlns="http://www.w3.org/2000/svg" xml:space="preserve" width="1167px" height="699px" version="1.1" style="shape-rendering:geometricPrecision; text-rendering:geometricPrecision; image-rendering:optimizeQuality; fill-rule:evenodd; clip-rule:evenodd"
viewBox="0 0 1167 699"
 xmlns:xlink="http://www.w3.org/1999/xlink">
 <defs>
  <style type="text/css">
   <![CDATA[
    .fil0 {fill:#996633}
   ]]>
  </style>
 </defs>
 <g id="Layer_x0020_1">
  <metadata id="CorelCorpID_0Corel-Layer"/>
  <path class="fil0" d="M410 448c-52,0 -116,5 -165,23 -22,8 -56,25 -57,51 0,26 35,44 57,52 48,18 113,23 165,23 47,0 95,-4 140,-16 26,-8 77,-27 76,-59 0,-32 -49,-50 -75,-58 -45,-12 -94,-16 -141,-16zm404 82c130,-56 151,-186 151,-308l0 -164 202 -58 0 222c0,108 -28,213 -106,294 -66,69 -165,110 -258,136 -123,35 -272,47 -400,47 -70,0 -147,-7 -214,-25 -72,-18 -189,-66 -189,-152 0,-87 121,-135 194,-153 69,-17 145,-23 216,-23 66,0 132,6 197,20 78,17 215,67 207,164z"/>
 </g>
</svg>
