<?xml version="1.0" encoding="UTF-8"?>
<!DOCTYPE svg PUBLIC "-//W3C//DTD SVG 1.1//EN" "http://www.w3.org/Graphics/SVG/1.1/DTD/svg11.dtd">
<!-- Creator: CorelDRAW X8 -->
<svg xmlns="http://www.w3.org/2000/svg" xml:space="preserve" width="780px" height="1486px" version="1.1" style="shape-rendering:geometricPrecision; text-rendering:geometricPrecision; image-rendering:optimizeQuality; fill-rule:evenodd; clip-rule:evenodd"
viewBox="0 0 780 1486"
 xmlns:xlink="http://www.w3.org/1999/xlink">
 <defs>
  <style type="text/css">
   <![CDATA[
    .fil0 {fill:#996633;fill-rule:nonzero}
   ]]>
  </style>
 </defs>
 <g id="Layer_x0020_1">
  <metadata id="CorelCorpID_0Corel-Layer"/>
  <path class="fil0" d="M780 1172c-10,225 -188,313 -397,314l-3 0c-160,0 -379,-64 -380,-254 -1,-126 114,-215 236,-215 51,0 104,15 144,47 43,-35 96,-50 151,-46 -33,-56 -79,-103 -118,-155 -38,-51 -66,-103 -88,-157 -21,-53 -36,-107 -46,-162 -30,-161 -18,-329 -2,-491 4,-42 75,-54 106,-53 32,1 100,17 96,59 -15,155 -28,315 0,469 9,51 21,102 41,151 19,49 44,96 80,141 78,98 186,220 180,352zm-188 45c2,-40 -23,-94 -71,-94 -53,1 -60,82 -60,120 0,32 -54,44 -80,44 -25,0 -79,-12 -79,-44 0,-40 -10,-120 -63,-120 -50,0 -71,67 -69,107 8,110 118,143 213,143 98,-1 206,-47 209,-156z"/>
 </g>
</svg>
