<?xml version="1.0" encoding="UTF-8"?>
<!DOCTYPE svg PUBLIC "-//W3C//DTD SVG 1.1//EN" "http://www.w3.org/Graphics/SVG/1.1/DTD/svg11.dtd">
<!-- Creator: CorelDRAW X8 -->
<svg xmlns="http://www.w3.org/2000/svg" xml:space="preserve" width="1167px" height="699px" version="1.1" style="shape-rendering:geometricPrecision; text-rendering:geometricPrecision; image-rendering:optimizeQuality; fill-rule:evenodd; clip-rule:evenodd"
viewBox="0 0 1167 699"
 xmlns:xlink="http://www.w3.org/1999/xlink">
 <defs>
  <style type="text/css">
   <![CDATA[
    .fil0 {fill:#996633}
   ]]>
  </style>
 </defs>
 <g id="Layer_x0020_1">
  <metadata id="CorelCorpID_0Corel-Layer"/>
  <path class="fil0" d="M406 603c58,0 129,-4 182,-27 35,-15 59,-40 58,-78 -2,-40 -45,-57 -81,-58 -47,0 -67,41 -67,81 -1,40 -59,51 -91,51 -31,0 -91,-11 -91,-51 0,-39 -20,-81 -66,-81 -37,0 -80,18 -82,58 -1,38 23,63 58,78 52,23 123,27 180,27zm559 -381l0 -164 202 -58 0 222c0,108 -28,213 -106,294 -66,69 -165,110 -258,136 -123,35 -273,47 -402,47 -81,0 -172,-9 -249,-36 -71,-24 -153,-86 -152,-165 1,-48 33,-86 73,-111 49,-29 119,-40 176,-40 52,0 111,9 158,33 47,-24 106,-33 158,-33 57,0 127,11 176,40 40,25 74,62 74,111 0,12 -2,23 -6,34 132,-52 156,-188 156,-310z"/>
 </g>
</svg>
