<?xml version="1.0" encoding="UTF-8"?>
<!DOCTYPE svg PUBLIC "-//W3C//DTD SVG 1.1//EN" "http://www.w3.org/Graphics/SVG/1.1/DTD/svg11.dtd">
<!-- Creator: CorelDRAW X8 -->
<svg xmlns="http://www.w3.org/2000/svg" xml:space="preserve" width="1194px" height="1024px" version="1.1" style="shape-rendering:geometricPrecision; text-rendering:geometricPrecision; image-rendering:optimizeQuality; fill-rule:evenodd; clip-rule:evenodd"
viewBox="0 0 1194 1024"
 xmlns:xlink="http://www.w3.org/1999/xlink">
 <defs>
  <style type="text/css">
   <![CDATA[
    .fil0 {fill:#EF7F1A;fill-rule:nonzero}
   ]]>
  </style>
 </defs>
 <g id="Layer_x0020_1">
  <metadata id="CorelCorpID_0Corel-Layer"/>
  <path class="fil0" d="M401 913c-110,0 -155,-116 -155,-207 0,-90 46,-207 155,-207 109,0 154,117 154,207 0,89 -47,207 -154,207zm457 111c29,0 59,-8 84,-22 167,-94 252,-285 252,-470 0,-340 -283,-532 -608,-532 -324,0 -586,197 -586,540 0,145 44,310 163,405 68,55 146,79 233,79 87,0 177,-26 245,-81 72,-59 109,-154 109,-246 0,-80 -24,-154 -81,-213 -65,-68 -162,-101 -257,-101 -78,0 -150,23 -208,76 24,-204 174,-349 382,-349 255,0 410,183 410,422 0,149 -69,323 -207,396 -20,11 -30,25 -30,40 0,14 10,28 29,39 21,12 45,17 70,17z"/>
 </g>
</svg>
