<?xml version="1.0" encoding="UTF-8"?>
<!DOCTYPE svg PUBLIC "-//W3C//DTD SVG 1.1//EN" "http://www.w3.org/Graphics/SVG/1.1/DTD/svg11.dtd">
<!-- Creator: CorelDRAW X8 -->
<svg xmlns="http://www.w3.org/2000/svg" xml:space="preserve" width="881px" height="1024px" version="1.1" style="shape-rendering:geometricPrecision; text-rendering:geometricPrecision; image-rendering:optimizeQuality; fill-rule:evenodd; clip-rule:evenodd"
viewBox="0 0 881 1024"
 xmlns:xlink="http://www.w3.org/1999/xlink">
 <defs>
  <style type="text/css">
   <![CDATA[
    .fil0 {fill:#996633;fill-rule:nonzero}
   ]]>
  </style>
 </defs>
 <g id="Layer_x0020_1">
  <metadata id="CorelCorpID_0Corel-Layer"/>
  <path class="fil0" d="M490 1023c-306,-15 -490,-216 -490,-512 0,-294 186,-495 490,-510 87,-4 185,3 263,44 78,41 128,110 128,198 0,145 -131,220 -266,220 -136,0 -261,-62 -258,-221 0,-34 9,-67 25,-98 -132,70 -180,231 -180,368 0,138 48,299 180,368 -16,-30 -25,-64 -25,-98 -3,-159 122,-220 258,-220 135,0 266,74 266,219 0,88 -50,158 -128,199 -78,41 -176,48 -263,43zm50 -783c0,43 23,112 76,111 51,0 74,-64 74,-106 0,-41 -24,-112 -75,-112 -50,1 -75,66 -75,107zm0 544c0,42 25,107 75,107 51,0 75,-71 75,-111 0,-42 -23,-106 -74,-107 -53,0 -76,69 -76,111z"/>
 </g>
</svg>
