<?xml version="1.0" encoding="UTF-8"?>
<!DOCTYPE svg PUBLIC "-//W3C//DTD SVG 1.1//EN" "http://www.w3.org/Graphics/SVG/1.1/DTD/svg11.dtd">
<!-- Creator: CorelDRAW X8 -->
<svg xmlns="http://www.w3.org/2000/svg" xml:space="preserve" width="881px" height="1024px" version="1.1" style="shape-rendering:geometricPrecision; text-rendering:geometricPrecision; image-rendering:optimizeQuality; fill-rule:evenodd; clip-rule:evenodd"
viewBox="0 0 881 1024"
 xmlns:xlink="http://www.w3.org/1999/xlink">
 <defs>
  <style type="text/css">
   <![CDATA[
    .fil0 {fill:#A82682;fill-rule:nonzero}
   ]]>
  </style>
 </defs>
 <g id="Layer_x0020_1">
  <metadata id="CorelCorpID_0Corel-Layer"/>
  <path class="fil0" d="M490 1023c-306,-15 -490,-216 -490,-512 0,-295 186,-495 490,-510 87,-4 185,3 263,44 78,41 128,110 128,198 -1,145 -131,220 -267,220 -135,0 -260,-62 -257,-221 1,-34 9,-67 25,-98 -131,70 -180,231 -180,368 0,137 49,298 180,368 -16,-31 -24,-64 -25,-98 -3,-159 122,-221 257,-221 136,0 266,75 267,220 0,88 -50,157 -128,198 -78,41 -176,48 -263,44zm50 -783c0,43 23,112 76,111 51,0 73,-64 74,-106 0,-41 -24,-112 -75,-112 -51,1 -75,66 -75,107zm0 544c0,41 24,106 75,107 51,0 75,-71 75,-112 -1,-42 -23,-106 -74,-106 -53,-1 -76,68 -76,111z"/>
 </g>
</svg>
