<?xml version="1.0" encoding="UTF-8"?>
<!DOCTYPE svg PUBLIC "-//W3C//DTD SVG 1.1//EN" "http://www.w3.org/Graphics/SVG/1.1/DTD/svg11.dtd">
<!-- Creator: CorelDRAW X8 -->
<svg xmlns="http://www.w3.org/2000/svg" xml:space="preserve" width="642px" height="301px" version="1.1" style="shape-rendering:geometricPrecision; text-rendering:geometricPrecision; image-rendering:optimizeQuality; fill-rule:evenodd; clip-rule:evenodd"
viewBox="0 0 642 301"
 xmlns:xlink="http://www.w3.org/1999/xlink">
 <defs>
  <style type="text/css">
   <![CDATA[
    .fil0 {fill:#5B5A50;fill-rule:nonzero}
   ]]>
  </style>
 </defs>
 <g id="Layer_x0020_1">
  <metadata id="CorelCorpID_0Corel-Layer"/>
  <path class="fil0" d="M442 48c0,-37 71,-48 100,-48 29,0 100,11 100,48 0,63 -28,122 -76,167 -64,60 -156,86 -245,86 -89,0 -181,-26 -245,-86 -48,-45 -76,-104 -76,-167 0,-37 71,-48 100,-48 29,0 100,11 100,48 0,66 37,158 121,158 84,0 121,-92 121,-158z"/>
 </g>
</svg>
