<?xml version="1.0" encoding="UTF-8"?>
<!DOCTYPE svg PUBLIC "-//W3C//DTD SVG 1.1//EN" "http://www.w3.org/Graphics/SVG/1.1/DTD/svg11.dtd">
<!-- Creator: CorelDRAW X8 -->
<svg xmlns="http://www.w3.org/2000/svg" xml:space="preserve" width="699px" height="1486px" version="1.1" style="shape-rendering:geometricPrecision; text-rendering:geometricPrecision; image-rendering:optimizeQuality; fill-rule:evenodd; clip-rule:evenodd"
viewBox="0 0 699 1486"
 xmlns:xlink="http://www.w3.org/1999/xlink">
 <defs>
  <style type="text/css">
   <![CDATA[
    .fil0 {fill:#A82682;fill-rule:nonzero}
   ]]>
  </style>
 </defs>
 <g id="Layer_x0020_1">
  <metadata id="CorelCorpID_0Corel-Layer"/>
  <path class="fil0" d="M194 53c5,-42 76,-54 107,-53 31,1 100,17 96,59 -15,155 -28,315 -1,469 20,108 56,204 122,293 74,100 178,208 181,338 5,207 -161,327 -359,327 -146,0 -332,-77 -340,-242 -2,-48 20,-95 54,-129 27,-28 61,-44 96,-49 30,-3 60,2 89,17 33,16 49,42 10,71 -29,22 -49,52 -46,89 5,78 57,131 137,131 116,1 162,-118 155,-216 -9,-113 -99,-207 -164,-295 -72,-97 -113,-202 -135,-319 -29,-161 -17,-329 -2,-491z"/>
 </g>
</svg>
