<?xml version="1.0" encoding="UTF-8"?>
<!DOCTYPE svg PUBLIC "-//W3C//DTD SVG 1.1//EN" "http://www.w3.org/Graphics/SVG/1.1/DTD/svg11.dtd">
<!-- Creator: CorelDRAW X8 -->
<svg xmlns="http://www.w3.org/2000/svg" xml:space="preserve" width="699px" height="1486px" version="1.1" style="shape-rendering:geometricPrecision; text-rendering:geometricPrecision; image-rendering:optimizeQuality; fill-rule:evenodd; clip-rule:evenodd"
viewBox="0 0 699 1486"
 xmlns:xlink="http://www.w3.org/1999/xlink">
 <defs>
  <style type="text/css">
   <![CDATA[
    .fil0 {fill:#996633;fill-rule:nonzero}
   ]]>
  </style>
 </defs>
 <g id="Layer_x0020_1">
  <metadata id="CorelCorpID_0Corel-Layer"/>
  <path class="fil0" d="M194 53c5,-42 76,-54 107,-53 31,1 100,17 96,59 -15,155 -28,315 -1,470 20,107 56,203 122,292 74,100 178,208 181,338 5,208 -160,327 -359,327 -146,0 -333,-77 -340,-242 -2,-47 20,-95 54,-129 30,-31 73,-50 117,-51 32,0 98,16 98,57 0,14 -9,25 -20,33 -29,22 -49,52 -46,90 5,78 57,130 137,131 70,0 115,-40 138,-103 13,-37 19,-75 17,-114 -9,-113 -99,-207 -164,-295 -72,-96 -113,-202 -135,-319 -29,-161 -17,-329 -2,-491z"/>
 </g>
</svg>
