<?xml version="1.0" encoding="UTF-8"?>
<!DOCTYPE svg PUBLIC "-//W3C//DTD SVG 1.1//EN" "http://www.w3.org/Graphics/SVG/1.1/DTD/svg11.dtd">
<!-- Creator: CorelDRAW X8 -->
<svg xmlns="http://www.w3.org/2000/svg" xml:space="preserve" width="738px" height="1297px" version="1.1" style="shape-rendering:geometricPrecision; text-rendering:geometricPrecision; image-rendering:optimizeQuality; fill-rule:evenodd; clip-rule:evenodd"
viewBox="0 0 738 1297"
 xmlns:xlink="http://www.w3.org/1999/xlink">
 <defs>
  <style type="text/css">
   <![CDATA[
    .fil0 {fill:#2B2A29;fill-rule:nonzero}
   ]]>
  </style>
 </defs>
 <g id="Layer_x0020_1">
  <metadata id="CorelCorpID_0Corel-Layer"/>
  <path class="fil0" d="M422 1297c96,0 198,-19 283,-60 21,-11 33,-26 33,-42 0,-13 -8,-26 -26,-37 -20,-13 -47,-19 -74,-19 -25,0 -50,5 -69,15 -43,21 -98,31 -147,31 -45,0 -94,-7 -128,-39 -87,-82 -90,-262 -92,-378 0,-126 14,-258 37,-381 19,-104 50,-217 100,-311 4,-8 6,-15 6,-22 0,-39 -66,-54 -99,-54 -36,0 -76,9 -95,34 -56,76 -96,258 -113,351 -24,126 -38,257 -38,386 3,144 7,326 120,431 75,70 202,95 302,95z"/>
 </g>
</svg>
