<?xml version="1.0" encoding="UTF-8"?>
<!DOCTYPE svg PUBLIC "-//W3C//DTD SVG 1.1//EN" "http://www.w3.org/Graphics/SVG/1.1/DTD/svg11.dtd">
<!-- Creator: CorelDRAW X8 -->
<svg xmlns="http://www.w3.org/2000/svg" xml:space="preserve" width="699px" height="1486px" version="1.1" style="shape-rendering:geometricPrecision; text-rendering:geometricPrecision; image-rendering:optimizeQuality; fill-rule:evenodd; clip-rule:evenodd"
viewBox="0 0 699 1486"
 xmlns:xlink="http://www.w3.org/1999/xlink">
 <defs>
  <style type="text/css">
   <![CDATA[
    .fil0 {fill:#EF7F1A;fill-rule:nonzero}
   ]]>
  </style>
 </defs>
 <g id="Layer_x0020_1">
  <metadata id="CorelCorpID_0Corel-Layer"/>
  <path class="fil0" d="M341 1486c195,0 358,-109 358,-311 0,-138 -104,-250 -181,-354 -66,-89 -103,-185 -122,-294 -12,-65 -16,-131 -16,-197 0,-88 8,-177 16,-265 1,-4 1,-6 1,-10 0,-36 -51,-55 -102,-55 -48,0 -98,17 -101,52 -9,90 -16,181 -16,273 0,73 5,146 18,218 22,118 63,222 135,320 74,100 164,182 165,312 0,94 -47,199 -155,199 -82,0 -138,-56 -138,-138 0,-34 19,-61 46,-82 16,-12 23,-23 23,-34 0,-15 -14,-28 -33,-37 -24,-12 -48,-18 -73,-18 -43,0 -83,19 -113,49 -32,33 -53,78 -53,124 0,169 198,248 341,248z"/>
 </g>
</svg>
