<?xml version="1.0" encoding="UTF-8"?>
<!DOCTYPE svg PUBLIC "-//W3C//DTD SVG 1.1//EN" "http://www.w3.org/Graphics/SVG/1.1/DTD/svg11.dtd">
<!-- Creator: CorelDRAW X8 -->
<svg xmlns="http://www.w3.org/2000/svg" xml:space="preserve" width="1914px" height="1405px" version="1.1" style="shape-rendering:geometricPrecision; text-rendering:geometricPrecision; image-rendering:optimizeQuality; fill-rule:evenodd; clip-rule:evenodd"
viewBox="0 0 1914 1405"
 xmlns:xlink="http://www.w3.org/1999/xlink">
 <defs>
  <style type="text/css">
   <![CDATA[
    .fil0 {fill:#A82682;fill-rule:nonzero}
   ]]>
  </style>
 </defs>
 <g id="Layer_x0020_1">
  <metadata id="CorelCorpID_0Corel-Layer"/>
  <path class="fil0" d="M683 832c5,79 21,156 53,224 29,63 71,119 132,164 56,-40 99,-93 132,-153 38,-72 59,-154 63,-235 5,-89 -8,-191 -63,-264 -31,-42 -78,-76 -133,-76 -152,0 -192,217 -184,340zm1226 -657c22,40 -37,65 -67,70 -39,6 -106,-1 -126,-37 -28,-50 -79,-96 -140,-96 -66,0 -107,62 -109,124 -3,84 40,159 84,229 81,129 119,216 118,367 0,105 -26,216 -79,308 -99,173 -291,264 -489,264 -79,0 -159,-10 -234,-35 -78,25 -160,36 -242,36 -188,-1 -359,-50 -486,-192 -90,-102 -135,-247 -139,-381 -2,-99 18,-203 70,-290 61,-101 183,-161 302,-161 98,0 183,31 237,115 63,-78 158,-115 258,-115 106,0 209,41 283,115 90,90 122,213 116,336 -5,95 -30,188 -74,270 -39,72 -93,136 -162,186 23,4 47,6 71,6 124,-1 236,-84 295,-187 48,-82 71,-181 71,-275 1,-129 -38,-216 -106,-326 -48,-79 -94,-154 -92,-266 2,-170 157,-240 309,-240 132,0 266,58 331,175zm-1284 1119c27,0 56,-2 83,-7 -68,-51 -118,-113 -154,-182 -42,-82 -64,-175 -71,-273 -5,-68 0,-133 -11,-202 -8,-54 -30,-138 -100,-138 -47,0 -88,49 -110,85 -45,76 -61,168 -59,255 3,115 40,244 119,332 83,94 177,130 303,130z"/>
 </g>
</svg>
