<?xml version="1.0" encoding="UTF-8"?>
<!DOCTYPE svg PUBLIC "-//W3C//DTD SVG 1.1//EN" "http://www.w3.org/Graphics/SVG/1.1/DTD/svg11.dtd">
<!-- Creator: CorelDRAW X8 -->
<svg xmlns="http://www.w3.org/2000/svg" xml:space="preserve" width="1082px" height="1405px" version="1.1" style="shape-rendering:geometricPrecision; text-rendering:geometricPrecision; image-rendering:optimizeQuality; fill-rule:evenodd; clip-rule:evenodd"
viewBox="0 0 1083 1406"
 xmlns:xlink="http://www.w3.org/1999/xlink">
 <defs>
  <style type="text/css">
   <![CDATA[
    .fil0 {fill:#5B5A50;fill-rule:nonzero}
   ]]>
  </style>
 </defs>
 <g id="Layer_x0020_1">
  <metadata id="CorelCorpID_0Corel-Layer"/>
  <path class="fil0" d="M89 416c27,-34 93,-39 133,-29 33,8 82,36 53,73 -49,62 -73,134 -73,212 1,95 36,181 112,241 79,-105 129,-208 172,-332 33,-97 81,-269 50,-370 -18,-59 -48,-96 -115,-98 -60,-2 -115,47 -142,96 -20,37 -88,44 -126,37 -31,-5 -90,-30 -68,-69 66,-120 218,-177 350,-177 80,0 163,19 223,76 51,49 74,116 78,186 1,38 -3,82 -12,119 9,-1 18,-1 27,-1 95,-1 189,31 253,101 50,55 76,118 79,191 7,178 -83,298 -245,369 18,40 27,83 25,126 -6,168 -173,239 -324,239 -156,0 -327,-82 -325,-258 0,-39 11,-77 27,-113 -151,-71 -239,-196 -241,-362 -1,-95 30,-182 89,-257zm395 567c19,3 38,4 57,5 15,0 29,-1 44,-2 -20,-28 -35,-54 -50,-80l0 0c-17,26 -34,52 -51,77zm167 109c-38,5 -75,7 -112,7 -38,0 -75,-3 -112,-9 -10,29 -14,55 -14,78 2,72 52,127 125,126 75,-1 128,-59 126,-132 0,-21 -4,-44 -13,-70zm108 -164c92,-59 126,-149 121,-254 -2,-53 -17,-101 -53,-141 -24,-27 -47,-40 -71,-39 -20,1 -40,12 -60,36 -37,44 -50,101 -48,157 3,104 47,164 111,241z"/>
 </g>
</svg>
