<?xml version="1.0" encoding="UTF-8"?>
<!DOCTYPE svg PUBLIC "-//W3C//DTD SVG 1.1//EN" "http://www.w3.org/Graphics/SVG/1.1/DTD/svg11.dtd">
<!-- Creator: CorelDRAW X8 -->
<svg xmlns="http://www.w3.org/2000/svg" xml:space="preserve" width="1163px" height="1024px" version="1.1" style="shape-rendering:geometricPrecision; text-rendering:geometricPrecision; image-rendering:optimizeQuality; fill-rule:evenodd; clip-rule:evenodd"
viewBox="0 0 1163 1024"
 xmlns:xlink="http://www.w3.org/1999/xlink">
 <defs>
  <style type="text/css">
   <![CDATA[
    .fil0 {fill:#996633;fill-rule:nonzero}
   ]]>
  </style>
 </defs>
 <g id="Layer_x0020_1">
  <metadata id="CorelCorpID_0Corel-Layer"/>
  <path class="fil0" d="M233 470c26,39 -28,65 -58,71 -51,11 -107,2 -134,-48 -28,-49 -41,-115 -41,-172 0,-206 148,-321 342,-321 81,0 169,21 226,82 55,-64 137,-82 217,-82 246,0 378,171 378,411 0,177 -61,347 -197,463 -59,49 -127,86 -204,111 -78,26 -164,39 -256,39 -104,0 -215,-26 -308,-75 -15,-8 -29,-18 -35,-30 -3,-5 -5,-10 -5,-15 0,-5 1,-10 3,-15 4,-8 12,-16 25,-24 19,-11 44,-16 69,-16 25,-1 50,5 69,15 53,29 122,49 182,49 108,0 214,-30 297,-101 115,-98 165,-252 165,-401 0,-116 -37,-300 -183,-300 -95,0 -118,88 -118,168l0 211c0,41 -67,55 -98,55 -31,0 -98,-14 -98,-55 0,-69 0,-137 0,-206 0,-93 -22,-174 -130,-173 -108,1 -148,117 -147,210 0,50 12,107 39,149z"/>
 </g>
</svg>
