<?xml version="1.0" encoding="UTF-8"?>
<!DOCTYPE svg PUBLIC "-//W3C//DTD SVG 1.1//EN" "http://www.w3.org/Graphics/SVG/1.1/DTD/svg11.dtd">
<!-- Creator: CorelDRAW X8 -->
<svg xmlns="http://www.w3.org/2000/svg" xml:space="preserve" width="2248px" height="1412px" version="1.1" style="shape-rendering:geometricPrecision; text-rendering:geometricPrecision; image-rendering:optimizeQuality; fill-rule:evenodd; clip-rule:evenodd"
viewBox="0 0 2248 1413"
 xmlns:xlink="http://www.w3.org/1999/xlink">
 <defs>
  <style type="text/css">
   <![CDATA[
    .fil0 {fill:#2B2A29;fill-rule:nonzero}
   ]]>
  </style>
 </defs>
 <g id="Layer_x0020_1">
  <metadata id="CorelCorpID_0Corel-Layer"/>
  <path class="fil0" d="M1531 1024c131,0 249,-55 317,-167 53,-85 74,-187 74,-287 0,-57 -7,-114 -22,-168 104,104 146,257 146,402 0,237 -131,496 -399,496 -76,0 -150,-22 -209,-68 -21,-16 -52,-24 -82,-24 -21,0 -42,4 -60,10 -24,10 -44,28 -44,46 0,10 6,22 20,32 104,82 242,117 375,117 367,0 601,-251 601,-614 0,-287 -154,-538 -458,-603 -122,-140 -289,-196 -476,-196 -140,0 -269,33 -372,132 -97,-98 -263,-132 -397,-132 -203,0 -390,87 -484,271 -43,84 -61,178 -61,272 0,145 44,305 163,402 68,55 146,79 232,79 87,0 179,-26 246,-82 76,-62 108,-149 108,-245 0,-78 -25,-152 -81,-210 -65,-68 -163,-102 -257,-102 -76,0 -149,24 -206,76 6,-52 21,-104 45,-151 58,-114 161,-198 295,-198 178,0 297,103 297,285l0 571c0,42 70,56 102,56 32,0 100,-14 100,-56l0 -571c0,-170 93,-287 270,-287 85,0 171,30 237,80 -123,21 -235,78 -311,176 -60,79 -92,179 -92,276 0,80 20,162 66,229 72,107 192,153 317,153zm-1131 -112c-109,0 -154,-110 -154,-202 0,-91 47,-208 154,-208 109,0 154,117 154,208 0,90 -47,202 -154,202zm1129 1c-53,-1 -97,-39 -125,-81 -38,-55 -53,-124 -53,-190 0,-82 24,-166 75,-233 53,-68 130,-112 218,-116 54,84 76,183 76,281 0,85 -19,174 -64,247 -27,44 -70,92 -127,92z"/>
 </g>
</svg>
