<?xml version="1.0" encoding="UTF-8"?>
<!DOCTYPE svg PUBLIC "-//W3C//DTD SVG 1.1//EN" "http://www.w3.org/Graphics/SVG/1.1/DTD/svg11.dtd">
<!-- Creator: CorelDRAW X8 -->
<svg xmlns="http://www.w3.org/2000/svg" xml:space="preserve" width="1328px" height="1412px" version="1.1" style="shape-rendering:geometricPrecision; text-rendering:geometricPrecision; image-rendering:optimizeQuality; fill-rule:evenodd; clip-rule:evenodd"
viewBox="0 0 1328 1412"
 xmlns:xlink="http://www.w3.org/1999/xlink">
 <defs>
  <style type="text/css">
   <![CDATA[
    .fil0 {fill:#A82682;fill-rule:nonzero}
   ]]>
  </style>
 </defs>
 <g id="Layer_x0020_1">
  <metadata id="CorelCorpID_0Corel-Layer"/>
  <path class="fil0" d="M412 889l0 -494c0,-254 208,-395 451,-395 238,0 465,151 465,401l0 544c0,41 -69,55 -101,55l-905 0c-70,0 -118,63 -118,130 0,59 45,124 109,124l276 0c46,0 101,28 101,79 0,51 -55,79 -101,79l-276 0c-156,0 -312,-88 -313,-257 -2,-162 160,-266 317,-266l95 0zm202 -494l0 494 512 0 0 -488c0,-149 -102,-290 -265,-290 -165,0 -247,136 -247,284z"/>
 </g>
</svg>
