<?xml version="1.0" encoding="UTF-8"?>
<!DOCTYPE svg PUBLIC "-//W3C//DTD SVG 1.1//EN" "http://www.w3.org/Graphics/SVG/1.1/DTD/svg11.dtd">
<!-- Creator: CorelDRAW X8 -->
<svg xmlns="http://www.w3.org/2000/svg" xml:space="preserve" width="1912px" height="1024px" version="1.1" style="shape-rendering:geometricPrecision; text-rendering:geometricPrecision; image-rendering:optimizeQuality; fill-rule:evenodd; clip-rule:evenodd"
viewBox="0 0 1912 1024"
 xmlns:xlink="http://www.w3.org/1999/xlink">
 <defs>
  <style type="text/css">
   <![CDATA[
    .fil0 {fill:#5B5A50;fill-rule:nonzero}
   ]]>
  </style>
 </defs>
 <g id="Layer_x0020_1">
  <metadata id="CorelCorpID_0Corel-Layer"/>
  <path class="fil0" d="M1606 503c-2,142 -47,283 -148,386l352 0c33,0 102,14 102,56 0,42 -69,56 -102,56l-557 0c-32,0 -111,-14 -105,-60 3,-19 23,-33 40,-40 151,-62 213,-250 215,-398 3,-153 -84,-392 -273,-392 -151,0 -212,114 -212,249l0 608c0,42 -70,56 -102,56 -32,0 -101,-14 -101,-56l0 -608c0,-135 -62,-249 -213,-249 -123,0 -222,95 -264,201 -27,66 -36,138 -35,208 2,148 64,342 215,405 37,15 58,49 19,77 -39,29 -103,27 -146,9 -199,-86 -288,-288 -291,-491 -1,-88 13,-178 52,-258 82,-172 260,-262 450,-262 111,0 231,26 314,103 83,-77 203,-103 314,-103 295,0 480,225 476,503z"/>
 </g>
</svg>
