<?xml version="1.0" encoding="UTF-8"?>
<!DOCTYPE svg PUBLIC "-//W3C//DTD SVG 1.1//EN" "http://www.w3.org/Graphics/SVG/1.1/DTD/svg11.dtd">
<!-- Creator: CorelDRAW X8 -->
<svg xmlns="http://www.w3.org/2000/svg" xml:space="preserve" width="1222px" height="1405px" version="1.1" style="shape-rendering:geometricPrecision; text-rendering:geometricPrecision; image-rendering:optimizeQuality; fill-rule:evenodd; clip-rule:evenodd"
viewBox="0 0 1222 1405"
 xmlns:xlink="http://www.w3.org/1999/xlink">
 <defs>
  <style type="text/css">
   <![CDATA[
    .fil0 {fill:#A82682;fill-rule:nonzero}
   ]]>
  </style>
 </defs>
 <g id="Layer_x0020_1">
  <metadata id="CorelCorpID_0Corel-Layer"/>
  <path class="fil0" d="M394 1314c39,27 22,62 -16,78 -53,23 -112,14 -158,-20 -142,-106 -219,-286 -220,-459 0,-304 237,-504 532,-533l0 -324c0,-42 69,-56 101,-56 33,0 102,14 102,56l0 327c290,40 479,240 487,530 6,243 -121,490 -397,491 -235,1 -293,-143 -293,-347l0 -561c-203,41 -330,217 -329,417 1,148 65,313 191,401zm341 -812l0 555c0,55 9,239 89,237 156,-5 200,-263 195,-381 -7,-182 -96,-358 -284,-411z"/>
 </g>
</svg>
