<?xml version="1.0" encoding="UTF-8"?>
<!DOCTYPE svg PUBLIC "-//W3C//DTD SVG 1.1//EN" "http://www.w3.org/Graphics/SVG/1.1/DTD/svg11.dtd">
<!-- Creator: CorelDRAW X8 -->
<svg xmlns="http://www.w3.org/2000/svg" xml:space="preserve" width="1792px" height="1679px" version="1.1" style="shape-rendering:geometricPrecision; text-rendering:geometricPrecision; image-rendering:optimizeQuality; fill-rule:evenodd; clip-rule:evenodd"
viewBox="0 0 1792 1679"
 xmlns:xlink="http://www.w3.org/1999/xlink">
 <defs>
  <style type="text/css">
   <![CDATA[
    .fil0 {fill:#A82682;fill-rule:nonzero}
   ]]>
  </style>
 </defs>
 <g id="Layer_x0020_1">
  <metadata id="CorelCorpID_0Corel-Layer"/>
  <path class="fil0" d="M717 1219c33,34 -8,65 -42,75 -54,16 -110,7 -149,-36 -104,-116 -154,-274 -154,-427 0,-328 211,-553 546,-558 101,-1 214,20 302,71 90,51 145,129 143,234 -1,98 -60,164 -145,207 139,64 201,191 198,338 -7,337 -303,558 -628,556 -484,-3 -793,-347 -788,-816 5,-522 386,-863 907,-863 510,0 896,375 885,882 -3,150 -44,301 -119,432 -27,47 -85,55 -134,46 -31,-6 -88,-31 -65,-71 73,-122 110,-266 113,-407 9,-399 -249,-770 -680,-770 -433,0 -701,343 -705,751 -3,341 193,704 580,704 241,0 427,-213 432,-444 2,-121 -45,-240 -176,-268 -41,-8 -86,-9 -129,-9 -32,0 -101,-15 -101,-57 0,-42 69,-56 101,-56 41,0 81,-2 120,-12 76,-19 131,-61 132,-144 1,-60 -23,-113 -74,-148 -47,-32 -111,-45 -168,-44 -237,4 -345,240 -345,446 0,138 45,286 143,388z"/>
 </g>
</svg>
