<?xml version="1.0" encoding="UTF-8"?>
<!DOCTYPE svg PUBLIC "-//W3C//DTD SVG 1.1//EN" "http://www.w3.org/Graphics/SVG/1.1/DTD/svg11.dtd">
<!-- Creator: CorelDRAW X8 -->
<svg xmlns="http://www.w3.org/2000/svg" xml:space="preserve" width="1792px" height="1679px" version="1.1" style="shape-rendering:geometricPrecision; text-rendering:geometricPrecision; image-rendering:optimizeQuality; fill-rule:evenodd; clip-rule:evenodd"
viewBox="0 0 1792 1679"
 xmlns:xlink="http://www.w3.org/1999/xlink">
 <defs>
  <style type="text/css">
   <![CDATA[
    .fil0 {fill:#EF7F1A;fill-rule:nonzero}
   ]]>
  </style>
 </defs>
 <g id="Layer_x0020_1">
  <metadata id="CorelCorpID_0Corel-Layer"/>
  <path class="fil0" d="M792 1679c324,0 624,-221 624,-563 0,-143 -62,-268 -198,-331 88,-39 145,-110 145,-212 0,-102 -55,-179 -143,-229 -86,-50 -196,-71 -295,-71 -335,0 -553,225 -553,558 0,153 50,311 154,427 27,30 63,43 100,43 16,0 33,-2 49,-7 25,-7 54,-26 54,-49 0,-9 -3,-17 -12,-26 -98,-102 -143,-250 -143,-388 0,-210 111,-446 351,-446 56,0 117,13 162,44 50,34 74,86 74,144 0,86 -54,128 -132,148 -39,10 -79,12 -120,12 -32,0 -101,14 -101,56 0,42 69,57 101,57 43,0 88,1 129,9 128,27 176,142 176,261 0,235 -191,451 -432,451 -384,0 -580,-358 -580,-696 0,-415 273,-759 705,-759 424,0 680,358 680,749 0,149 -36,300 -113,428 -3,6 -5,12 -5,18 0,33 50,56 102,56 41,0 82,-14 102,-49 80,-138 119,-294 119,-453 0,-496 -382,-861 -885,-861 -521,0 -907,342 -907,874 0,471 317,805 792,805z"/>
 </g>
</svg>
