<?xml version="1.0" encoding="UTF-8"?>
<!DOCTYPE svg PUBLIC "-//W3C//DTD SVG 1.1//EN" "http://www.w3.org/Graphics/SVG/1.1/DTD/svg11.dtd">
<!-- Creator: CorelDRAW X8 -->
<svg xmlns="http://www.w3.org/2000/svg" xml:space="preserve" width="2261px" height="1412px" version="1.1" style="shape-rendering:geometricPrecision; text-rendering:geometricPrecision; image-rendering:optimizeQuality; fill-rule:evenodd; clip-rule:evenodd"
viewBox="0 0 2261 1412"
 xmlns:xlink="http://www.w3.org/1999/xlink">
 <defs>
  <style type="text/css">
   <![CDATA[
    .fil0 {fill:#2B2A29;fill-rule:nonzero}
   ]]>
  </style>
 </defs>
 <g id="Layer_x0020_1">
  <metadata id="CorelCorpID_0Corel-Layer"/>
  <path class="fil0" d="M1448 1412c325,0 591,-152 730,-447 54,-116 83,-244 83,-372 0,-332 -203,-593 -544,-593 -115,0 -232,36 -315,116 -77,-78 -184,-116 -295,-116 -111,0 -211,37 -291,117 -83,-81 -200,-116 -315,-116 -189,0 -367,89 -450,261 -37,77 -51,164 -51,249 0,206 90,412 287,498 22,10 48,15 73,15 28,0 56,-6 77,-22 14,-11 20,-22 20,-33 0,-18 -16,-35 -40,-45 -152,-62 -215,-261 -215,-413 0,-67 10,-136 35,-199 43,-106 142,-200 264,-200 152,0 213,124 213,257l0 599c0,42 69,56 101,56 32,0 102,-14 102,-56l0 -599c0,-114 53,-257 190,-257 141,0 195,140 195,256l0 599c0,42 69,56 101,56 32,0 102,-14 102,-56l0 -599c0,-132 61,-257 212,-257 243,0 342,279 342,482 0,117 -27,238 -77,344 -100,213 -305,365 -534,365 -90,0 -181,-23 -256,-74 -20,-14 -50,-20 -78,-20 -23,0 -46,4 -64,12 -23,10 -38,26 -38,44 0,12 6,24 22,34 116,80 275,114 414,114z"/>
 </g>
</svg>
