<?xml version="1.0" encoding="UTF-8"?>
<!DOCTYPE svg PUBLIC "-//W3C//DTD SVG 1.1//EN" "http://www.w3.org/Graphics/SVG/1.1/DTD/svg11.dtd">
<!-- Creator: CorelDRAW X8 -->
<svg xmlns="http://www.w3.org/2000/svg" xml:space="preserve" width="2228px" height="1412px" version="1.1" style="shape-rendering:geometricPrecision; text-rendering:geometricPrecision; image-rendering:optimizeQuality; fill-rule:evenodd; clip-rule:evenodd"
viewBox="0 0 2228 1412"
 xmlns:xlink="http://www.w3.org/1999/xlink">
 <defs>
  <style type="text/css">
   <![CDATA[
    .fil0 {fill:black;fill-rule:nonzero}
   ]]>
  </style>
 </defs>
 <g id="Layer_x0020_1">
  <metadata id="CorelCorpID_0Corel-Layer"/>
  <path class="fil0" d="M386 942c35,16 42,44 15,64 -32,24 -83,22 -118,7 -195,-86 -280,-291 -283,-493 -1,-91 14,-180 51,-259 79,-168 248,-261 431,-261 132,0 244,43 314,123 75,-88 188,-123 301,-123 113,0 224,34 297,124 78,-84 194,-126 322,-124 234,4 411,143 479,365 22,70 33,141 33,219 0,128 -29,265 -84,381 -132,286 -395,445 -719,445 -70,0 -143,-10 -213,-30 -63,-18 -124,-46 -175,-82 -28,-19 -22,-48 13,-64 35,-15 86,-12 114,7 36,25 78,46 122,58 45,13 93,20 139,20 261,0 457,-151 562,-377 52,-111 79,-236 78,-358 0,-72 -11,-139 -30,-203 -46,-149 -151,-287 -319,-290 -153,-2 -245,121 -245,273l0 614c0,25 -37,45 -82,45 -45,0 -81,-20 -81,-45l0 -614c0,-68 -27,-167 -76,-217 -33,-34 -78,-56 -135,-56 -62,0 -115,25 -155,72 -45,52 -65,133 -65,201l0 614c0,25 -36,46 -81,46 -45,0 -82,-21 -82,-46l0 -614c0,-149 -70,-273 -232,-273 -131,0 -238,98 -284,216 -26,67 -36,140 -35,213 2,158 67,356 223,422z"/>
 </g>
</svg>
