<?xml version="1.0" encoding="UTF-8"?>
<!DOCTYPE svg PUBLIC "-//W3C//DTD SVG 1.1//EN" "http://www.w3.org/Graphics/SVG/1.1/DTD/svg11.dtd">
<!-- Creator: CorelDRAW X8 -->
<svg xmlns="http://www.w3.org/2000/svg" xml:space="preserve" width="2260px" height="1412px" version="1.1" style="shape-rendering:geometricPrecision; text-rendering:geometricPrecision; image-rendering:optimizeQuality; fill-rule:evenodd; clip-rule:evenodd"
viewBox="0 0 2260 1412"
 xmlns:xlink="http://www.w3.org/1999/xlink">
 <defs>
  <style type="text/css">
   <![CDATA[
    .fil0 {fill:#996633;fill-rule:nonzero}
   ]]>
  </style>
 </defs>
 <g id="Layer_x0020_1">
  <metadata id="CorelCorpID_0Corel-Layer"/>
  <path class="fil0" d="M2260 587c0,127 -29,262 -84,378 -139,294 -414,447 -739,447 -74,0 -150,-11 -221,-31 -64,-18 -127,-46 -182,-83 -13,-9 -24,-22 -22,-39 2,-19 21,-33 38,-40 20,-9 44,-13 67,-12 25,0 54,6 75,21 35,23 75,42 116,54 41,12 86,18 129,18 250,0 440,-145 543,-363 52,-108 78,-231 78,-350 -2,-205 -103,-476 -342,-476 -151,0 -212,125 -212,257l0 599c0,42 -70,56 -102,56 -32,0 -101,-14 -101,-56l0 -599c0,-116 -54,-256 -194,-256 -137,0 -190,143 -190,257l0 599c0,41 -69,56 -102,56 -32,0 -101,-15 -101,-56l0 -599c0,-133 -61,-257 -213,-257 -122,0 -221,94 -263,200 -27,66 -37,138 -35,208 2,148 63,341 214,404 23,10 39,25 40,42 1,12 -5,24 -20,36 -22,15 -50,22 -78,22 -26,0 -51,-6 -72,-15 -196,-86 -284,-287 -287,-488 -1,-88 13,-179 52,-259 82,-172 260,-261 449,-261 116,0 232,35 315,116 78,-79 180,-116 291,-117 112,-1 216,37 294,116 83,-80 200,-116 315,-116 341,0 544,254 544,587z"/>
 </g>
</svg>
