<?xml version="1.0" encoding="UTF-8"?>
<!DOCTYPE svg PUBLIC "-//W3C//DTD SVG 1.1//EN" "http://www.w3.org/Graphics/SVG/1.1/DTD/svg11.dtd">
<!-- Creator: CorelDRAW X8 -->
<svg xmlns="http://www.w3.org/2000/svg" xml:space="preserve" width="1283px" height="1412px" version="1.1" style="shape-rendering:geometricPrecision; text-rendering:geometricPrecision; image-rendering:optimizeQuality; fill-rule:evenodd; clip-rule:evenodd"
viewBox="0 0 1283 1412"
 xmlns:xlink="http://www.w3.org/1999/xlink">
 <defs>
  <style type="text/css">
   <![CDATA[
    .fil0 {fill:#669933;fill-rule:nonzero}
   ]]>
  </style>
 </defs>
 <g id="Layer_x0020_1">
  <metadata id="CorelCorpID_0Corel-Layer"/>
  <path class="fil0" d="M187 1303c-31,-19 -29,-48 4,-65 33,-17 85,-16 115,3 89,54 179,79 263,79 91,1 179,-27 256,-75 78,-49 146,-117 197,-201 68,-112 106,-251 97,-403 -8,-157 -63,-307 -167,-413 -90,-93 -206,-137 -334,-138 -136,-2 -276,45 -364,155 -51,64 -83,145 -90,241 52,-60 122,-93 202,-95 98,-4 191,33 251,97 53,57 81,133 78,222 -2,89 -36,179 -105,237 -58,47 -141,75 -224,77 -108,2 -197,-35 -266,-119 -67,-81 -98,-194 -100,-311 -2,-144 42,-294 122,-393 123,-151 310,-201 496,-201 210,0 367,72 477,184 116,119 177,286 187,457 9,163 -32,311 -106,432 -58,96 -138,175 -230,233 -113,70 -244,106 -377,106 -129,0 -260,-34 -382,-109zm4 -593c0,148 85,223 175,223 84,0 174,-74 174,-223 0,-149 -87,-223 -174,-223 -87,0 -175,75 -175,223z"/>
 </g>
</svg>
