<?xml version="1.0" encoding="UTF-8"?>
<!DOCTYPE svg PUBLIC "-//W3C//DTD SVG 1.1//EN" "http://www.w3.org/Graphics/SVG/1.1/DTD/svg11.dtd">
<!-- Creator: CorelDRAW X8 -->
<svg xmlns="http://www.w3.org/2000/svg" xml:space="preserve" width="1296px" height="1412px" version="1.1" style="shape-rendering:geometricPrecision; text-rendering:geometricPrecision; image-rendering:optimizeQuality; fill-rule:evenodd; clip-rule:evenodd"
viewBox="0 0 1296 1412"
 xmlns:xlink="http://www.w3.org/1999/xlink">
 <defs>
  <style type="text/css">
   <![CDATA[
    .fil0 {fill:#A82682;fill-rule:nonzero}
   ]]>
  </style>
 </defs>
 <g id="Layer_x0020_1">
  <metadata id="CorelCorpID_0Corel-Layer"/>
  <path class="fil0" d="M0 551c0,-339 259,-547 585,-551 195,-2 379,44 521,187 120,121 180,288 189,455 8,151 -27,300 -107,429 -58,95 -139,175 -234,234 -117,71 -254,107 -392,107 -141,0 -277,-38 -397,-111 -40,-23 -33,-59 6,-79 40,-20 104,-20 143,4 74,45 160,74 248,74 86,1 169,-26 241,-70 79,-49 145,-116 194,-195 72,-117 103,-255 96,-392 -8,-147 -59,-295 -165,-402 -98,-99 -212,-131 -344,-131 -210,0 -357,156 -380,359 54,-50 122,-75 195,-78 98,-3 201,31 270,104 58,62 83,142 80,227 -2,91 -37,183 -108,242 -66,54 -155,81 -240,82 -89,1 -169,-23 -238,-80 -119,-98 -163,-266 -163,-415zm246 170c-1,93 45,212 154,212 107,0 154,-121 154,-211 0,-92 -45,-212 -154,-212 -108,0 -154,120 -154,211z"/>
 </g>
</svg>
