<?xml version="1.0" encoding="UTF-8"?>
<!DOCTYPE svg PUBLIC "-//W3C//DTD SVG 1.1//EN" "http://www.w3.org/Graphics/SVG/1.1/DTD/svg11.dtd">
<!-- Creator: CorelDRAW X8 -->
<svg xmlns="http://www.w3.org/2000/svg" xml:space="preserve" width="1296px" height="1412px" version="1.1" style="shape-rendering:geometricPrecision; text-rendering:geometricPrecision; image-rendering:optimizeQuality; fill-rule:evenodd; clip-rule:evenodd"
viewBox="0 0 1296 1412"
 xmlns:xlink="http://www.w3.org/1999/xlink">
 <defs>
  <style type="text/css">
   <![CDATA[
    .fil0 {fill:#2B2A29;fill-rule:nonzero}
   ]]>
  </style>
 </defs>
 <g id="Layer_x0020_1">
  <metadata id="CorelCorpID_0Corel-Layer"/>
  <path class="fil0" d="M562 1412c138,0 275,-36 392,-107 95,-59 176,-139 234,-234 73,-117 108,-251 108,-387 0,-209 -64,-376 -178,-492 -121,-125 -300,-192 -520,-192 -330,0 -598,205 -598,551 0,149 44,317 163,415 68,56 146,80 233,80 87,0 177,-27 245,-82 76,-64 108,-159 108,-256 0,-79 -25,-154 -80,-213 -66,-70 -164,-104 -258,-104 -77,0 -150,25 -207,78 23,-203 184,-359 394,-359 148,0 262,51 344,135 102,106 152,263 152,436 0,124 -32,248 -97,354 -49,79 -115,146 -194,195 -74,45 -154,70 -241,70 -88,0 -174,-29 -248,-74 -20,-13 -48,-19 -75,-19 -24,0 -49,5 -68,15 -21,11 -33,26 -33,42 0,13 9,26 27,37 120,73 256,111 397,111zm-162 -479c-110,0 -154,-119 -154,-212 0,-91 46,-211 154,-211 109,0 154,120 154,212 0,90 -47,211 -154,211z"/>
 </g>
</svg>
