<?xml version="1.0" encoding="UTF-8"?>
<!DOCTYPE svg PUBLIC "-//W3C//DTD SVG 1.1//EN" "http://www.w3.org/Graphics/SVG/1.1/DTD/svg11.dtd">
<!-- Creator: CorelDRAW X8 -->
<svg xmlns="http://www.w3.org/2000/svg" xml:space="preserve" width="1552px" height="1412px" version="1.1" style="shape-rendering:geometricPrecision; text-rendering:geometricPrecision; image-rendering:optimizeQuality; fill-rule:evenodd; clip-rule:evenodd"
viewBox="0 0 1552 1412"
 xmlns:xlink="http://www.w3.org/1999/xlink">
 <defs>
  <style type="text/css">
   <![CDATA[
    .fil0 {fill:#5B5A50;fill-rule:nonzero}
   ]]>
  </style>
 </defs>
 <g id="Layer_x0020_1">
  <metadata id="CorelCorpID_0Corel-Layer"/>
  <path class="fil0" d="M972 889l377 0 0 -833c0,-42 69,-56 101,-56 33,0 102,14 102,56l0 916c0,79 -16,154 -58,222 -97,155 -293,218 -470,218 -140,1 -278,-37 -397,-109 -40,-24 -32,-60 6,-79 41,-20 105,-20 144,3 73,45 160,73 247,73 112,1 218,-47 278,-143 27,-44 43,-105 46,-157l-584 0c-31,0 -105,-13 -103,-56 2,-19 19,-33 35,-40 156,-75 236,-226 232,-393 -4,-207 -135,-401 -362,-401 -229,1 -362,190 -363,401 0,163 78,331 233,405 39,18 49,53 9,77 -42,27 -106,24 -150,2 -183,-90 -297,-285 -295,-484 3,-307 264,-511 566,-511 301,0 559,207 566,511 3,143 -54,279 -160,378z"/>
 </g>
</svg>
