<?xml version="1.0" encoding="UTF-8"?>
<!DOCTYPE svg PUBLIC "-//W3C//DTD SVG 1.1//EN" "http://www.w3.org/Graphics/SVG/1.1/DTD/svg11.dtd">
<!-- Creator: CorelDRAW X8 -->
<svg xmlns="http://www.w3.org/2000/svg" xml:space="preserve" width="1732px" height="1405px" version="1.1" style="shape-rendering:geometricPrecision; text-rendering:geometricPrecision; image-rendering:optimizeQuality; fill-rule:evenodd; clip-rule:evenodd"
viewBox="0 0 1732 1405"
 xmlns:xlink="http://www.w3.org/1999/xlink">
 <defs>
  <style type="text/css">
   <![CDATA[
    .fil0 {fill:#A82682;fill-rule:nonzero}
   ]]>
  </style>
 </defs>
 <g id="Layer_x0020_1">
  <metadata id="CorelCorpID_0Corel-Layer"/>
  <path class="fil0" d="M1256 385c299,43 475,255 476,549 1,223 -154,468 -401,471 -264,2 -277,-135 -277,-352l0 -543c-93,41 -137,137 -137,233l0 606c0,42 -69,56 -101,56 -32,0 -102,-14 -102,-56l0 -606c0,-135 -61,-250 -212,-250 -123,0 -222,89 -264,196 -27,66 -36,137 -35,208 2,148 63,345 215,408 37,16 57,50 19,78 -39,28 -103,27 -146,9 -199,-86 -288,-291 -291,-495 -1,-89 13,-178 52,-259 82,-173 260,-257 450,-257 115,0 236,29 319,112 64,-60 147,-93 233,-105l0 -332c0,-42 69,-56 101,-56 32,0 101,14 101,56l0 329zm0 120l0 548c0,67 -14,240 75,240 138,-2 199,-254 199,-359 -1,-181 -84,-374 -274,-429z"/>
 </g>
</svg>
