<?xml version="1.0" encoding="UTF-8"?>
<!DOCTYPE svg PUBLIC "-//W3C//DTD SVG 1.1//EN" "http://www.w3.org/Graphics/SVG/1.1/DTD/svg11.dtd">
<!-- Creator: CorelDRAW X8 -->
<svg xmlns="http://www.w3.org/2000/svg" xml:space="preserve" width="1286px" height="1000px" version="1.1" style="shape-rendering:geometricPrecision; text-rendering:geometricPrecision; image-rendering:optimizeQuality; fill-rule:evenodd; clip-rule:evenodd"
viewBox="0 0 1286 1000"
 xmlns:xlink="http://www.w3.org/1999/xlink">
 <defs>
  <style type="text/css">
   <![CDATA[
    .fil0 {fill:#5B5A50;fill-rule:nonzero}
   ]]>
  </style>
 </defs>
 <g id="Layer_x0020_1">
  <metadata id="CorelCorpID_0Corel-Layer"/>
  <path class="fil0" d="M666 275c-26,-48 55,-68 88,-69 45,-3 91,9 107,39 42,81 62,175 63,266 2,124 -32,260 -119,354 -85,93 -214,135 -339,135 -135,0 -270,-49 -357,-152 -80,-95 -108,-219 -109,-339 -1,-123 37,-248 114,-345 88,-109 215,-164 356,-164l715 0c32,0 101,14 101,55 0,42 -69,56 -101,56l-715 0c-74,0 -126,43 -170,97 -67,84 -98,195 -98,301 1,102 23,212 91,293 43,50 105,88 173,88 62,0 117,-30 158,-75 73,-79 98,-201 97,-304 0,-82 -17,-163 -55,-236z"/>
 </g>
</svg>
