<?xml version="1.0" encoding="UTF-8"?>
<!DOCTYPE svg PUBLIC "-//W3C//DTD SVG 1.1//EN" "http://www.w3.org/Graphics/SVG/1.1/DTD/svg11.dtd">
<!-- Creator: CorelDRAW X8 -->
<svg xmlns="http://www.w3.org/2000/svg" xml:space="preserve" width="2466px" height="1405px" version="1.1" style="shape-rendering:geometricPrecision; text-rendering:geometricPrecision; image-rendering:optimizeQuality; fill-rule:evenodd; clip-rule:evenodd"
viewBox="0 0 2466 1405"
 xmlns:xlink="http://www.w3.org/1999/xlink">
 <defs>
  <style type="text/css">
   <![CDATA[
    .fil0 {fill:#A82682;fill-rule:nonzero}
   ]]>
  </style>
 </defs>
 <g id="Layer_x0020_1">
  <metadata id="CorelCorpID_0Corel-Layer"/>
  <path class="fil0" d="M1540 500c91,-85 225,-119 348,-119 51,0 103,6 154,17 21,-46 41,-106 41,-157 0,-61 -40,-129 -109,-129 -61,-1 -112,47 -140,96 -20,37 -87,44 -126,38 -30,-5 -89,-30 -67,-70 65,-118 201,-176 334,-176 149,-1 310,75 310,241 1,76 -32,161 -69,227 92,57 160,132 202,230 33,77 48,163 48,246 0,100 -23,204 -76,290 -70,113 -179,171 -312,171 -132,0 -237,-58 -291,-179 -28,-62 -38,-133 -37,-201 1,-97 26,-197 71,-284 44,-87 105,-155 159,-236 -30,-8 -61,-12 -92,-12 -173,2 -257,109 -257,272l0 584c0,42 -69,56 -101,56 -32,0 -102,-14 -102,-56l0 -608c0,-116 -63,-248 -191,-248 -139,0 -193,143 -193,258l0 599c0,41 -68,55 -101,55 -32,0 -101,-14 -101,-55l0 -576c0,0 1,0 0,0l0 0 0 0 0 0 0 0c-7,0 -1,0 0,0l0 0 0 -2c0,-180 -125,-280 -300,-279 -132,0 -235,84 -292,197 -24,47 -39,98 -46,150 54,-48 122,-73 195,-75 98,-4 201,30 269,101 59,61 83,139 81,222 -3,89 -37,179 -109,236 -66,54 -154,80 -239,81 -89,1 -170,-23 -238,-78 -119,-96 -163,-261 -163,-406 0,-93 18,-186 61,-270 93,-181 279,-268 480,-269 136,-1 290,28 393,119 80,-81 190,-121 304,-120 108,1 229,39 302,119zm-1294 587c-1,91 45,207 154,207 107,0 154,-117 154,-206 0,-91 -45,-207 -154,-207 -108,0 -154,116 -154,206zm1886 -490c-46,66 -95,127 -128,200 -32,70 -49,153 -52,229 -1,50 3,104 19,152 14,44 52,115 107,115 68,0 115,-77 138,-131 27,-63 48,-150 48,-218 0,-68 -11,-137 -35,-200 -22,-57 -53,-103 -97,-147z"/>
 </g>
</svg>
