<?xml version="1.0" encoding="UTF-8"?>
<!DOCTYPE svg PUBLIC "-//W3C//DTD SVG 1.1//EN" "http://www.w3.org/Graphics/SVG/1.1/DTD/svg11.dtd">
<!-- Creator: CorelDRAW X8 -->
<svg xmlns="http://www.w3.org/2000/svg" xml:space="preserve" width="1236px" height="1405px" version="1.1" style="shape-rendering:geometricPrecision; text-rendering:geometricPrecision; image-rendering:optimizeQuality; fill-rule:evenodd; clip-rule:evenodd"
viewBox="0 0 1236 1405"
 xmlns:xlink="http://www.w3.org/1999/xlink">
 <defs>
  <style type="text/css">
   <![CDATA[
    .fil0 {fill:#A82682;fill-rule:nonzero}
   ]]>
  </style>
 </defs>
 <g id="Layer_x0020_1">
  <metadata id="CorelCorpID_0Corel-Layer"/>
  <path class="fil0" d="M384 1315c39,27 22,61 -16,78 -41,18 -105,17 -142,-9 -147,-103 -225,-271 -226,-447 -1,-337 266,-549 596,-557 73,-2 144,5 214,24 22,-46 43,-107 43,-159 0,-64 -32,-134 -106,-133 -62,0 -115,47 -144,97 -20,37 -87,44 -126,37 -31,-5 -89,-30 -67,-69 67,-120 202,-176 336,-177 153,-1 311,75 309,245 -1,78 -35,166 -74,233 90,57 159,131 202,227 32,71 49,149 52,226 4,101 -15,200 -65,289 -69,121 -182,185 -322,185 -125,0 -228,-52 -285,-164 -31,-63 -43,-135 -43,-205 0,-99 24,-203 69,-291 42,-85 102,-155 155,-233 -46,-16 -97,-22 -146,-21 -243,9 -392,222 -395,446 -2,147 58,291 181,378zm512 -710c-44,64 -89,122 -121,193 -34,74 -53,156 -52,238 0,48 4,99 19,144 15,45 50,113 106,113 67,0 121,-87 144,-140 33,-70 44,-144 41,-221 -2,-58 -13,-116 -34,-171 -23,-60 -57,-110 -103,-156z"/>
 </g>
</svg>
