<?xml version="1.0" encoding="UTF-8"?>
<!DOCTYPE svg PUBLIC "-//W3C//DTD SVG 1.1//EN" "http://www.w3.org/Graphics/SVG/1.1/DTD/svg11.dtd">
<!-- Creator: CorelDRAW X8 -->
<svg xmlns="http://www.w3.org/2000/svg" xml:space="preserve" width="1942px" height="1405px" version="1.1" style="shape-rendering:geometricPrecision; text-rendering:geometricPrecision; image-rendering:optimizeQuality; fill-rule:evenodd; clip-rule:evenodd"
viewBox="0 0 1942 1405"
 xmlns:xlink="http://www.w3.org/1999/xlink">
 <defs>
  <style type="text/css">
   <![CDATA[
    .fil0 {fill:#A82682;fill-rule:nonzero}
   ]]>
  </style>
 </defs>
 <g id="Layer_x0020_1">
  <metadata id="CorelCorpID_0Corel-Layer"/>
  <path class="fil0" d="M372 1308c39,20 45,55 6,79 -52,30 -117,19 -166,-10 -144,-86 -207,-244 -212,-404 -3,-107 19,-218 69,-313 96,-181 292,-281 495,-280 78,0 154,11 227,37 122,-42 266,-53 394,-50 108,2 223,14 326,46 25,-51 49,-119 48,-175 -1,-62 -37,-125 -106,-126 -57,-1 -115,48 -141,95 -21,37 -88,44 -126,37 -31,-5 -90,-30 -68,-69 66,-119 204,-175 336,-175 149,0 305,73 307,238 2,85 -39,181 -81,254 96,63 173,147 218,252 29,67 44,143 44,216 1,108 -31,219 -98,305 -71,92 -173,138 -289,138 -105,1 -198,-34 -260,-120 -49,-68 -67,-165 -70,-247 -3,-113 25,-205 78,-304 40,-76 91,-141 142,-211 -80,-31 -176,-41 -261,-43 -77,-2 -160,2 -235,20 104,77 174,182 208,305 15,55 22,112 22,170 0,85 -17,174 -59,249 -68,123 -189,181 -329,181 -139,0 -259,-58 -327,-180 -42,-75 -59,-166 -59,-250 0,-58 8,-115 23,-170 33,-123 102,-228 205,-305 -23,-4 -46,-6 -69,-7 -127,0 -243,87 -300,194 -44,84 -64,194 -62,288 3,126 49,273 170,335zm1222 -689c-39,53 -76,102 -105,161 -39,78 -62,169 -62,256 0,56 9,112 30,164 16,41 48,92 98,92 50,0 95,-56 118,-93 44,-72 66,-155 67,-239 0,-65 -14,-130 -39,-191 -25,-58 -62,-105 -107,-150zm-803 -51c-83,63 -136,152 -163,251 -13,50 -21,102 -21,154 0,73 15,153 50,218 27,48 74,101 134,101 61,0 109,-54 136,-102 36,-65 50,-144 50,-217 0,-52 -7,-104 -21,-154 -27,-99 -82,-188 -165,-251z"/>
 </g>
</svg>
