<?xml version="1.0" encoding="UTF-8"?>
<!DOCTYPE svg PUBLIC "-//W3C//DTD SVG 1.1//EN" "http://www.w3.org/Graphics/SVG/1.1/DTD/svg11.dtd">
<!-- Creator: CorelDRAW X8 -->
<svg xmlns="http://www.w3.org/2000/svg" xml:space="preserve" width="1942px" height="1405px" version="1.1" style="shape-rendering:geometricPrecision; text-rendering:geometricPrecision; image-rendering:optimizeQuality; fill-rule:evenodd; clip-rule:evenodd"
viewBox="0 0 1942 1405"
 xmlns:xlink="http://www.w3.org/1999/xlink">
 <defs>
  <style type="text/css">
   <![CDATA[
    .fil0 {fill:#996633;fill-rule:nonzero}
   ]]>
  </style>
 </defs>
 <g id="Layer_x0020_1">
  <metadata id="CorelCorpID_0Corel-Layer"/>
  <path class="fil0" d="M373 1307c15,8 31,22 32,40 0,18 -13,31 -27,39 -22,13 -47,19 -71,19 -34,-1 -66,-11 -95,-28 -144,-86 -207,-245 -212,-404 -3,-107 19,-219 69,-313 96,-181 292,-281 496,-280 77,0 153,11 226,37 122,-42 266,-53 394,-50 108,2 223,14 326,45 25,-50 49,-118 48,-174 -1,-62 -37,-125 -106,-126 -57,-1 -115,48 -141,95 -16,27 -56,38 -91,39 -13,1 -25,0 -36,-2 -25,-4 -70,-21 -71,-52 -1,-6 1,-12 4,-17 66,-119 204,-175 336,-175 149,0 305,72 307,237 1,86 -39,182 -82,254 96,64 174,147 219,253 29,67 43,143 44,216 1,108 -31,219 -98,305 -71,91 -173,138 -289,138 -105,0 -198,-34 -260,-120 -49,-68 -67,-165 -70,-247 -3,-113 25,-205 78,-305 40,-76 91,-140 142,-210 -80,-31 -176,-41 -261,-43 -77,-2 -160,2 -235,20 104,77 174,182 208,305 15,55 22,112 22,169 0,86 -17,175 -59,250 -68,123 -189,181 -329,181 -139,0 -259,-58 -327,-180 -41,-75 -59,-166 -59,-251 0,-57 8,-114 23,-169 33,-123 102,-228 205,-305 -23,-5 -46,-7 -69,-7 -127,0 -243,87 -300,194 -44,84 -64,194 -61,287 2,127 48,273 170,335zm1221 -688c-39,53 -76,102 -105,161 -40,78 -62,169 -62,256 0,56 8,112 29,164 17,41 49,91 99,92 50,0 95,-56 118,-94 44,-71 66,-154 66,-238 1,-65 -13,-130 -38,-191 -25,-58 -62,-105 -107,-150zm-803 -52c-83,64 -136,153 -162,252 -14,50 -22,102 -22,153 0,74 15,154 51,218 26,48 73,102 133,102 61,0 109,-54 136,-103 36,-65 50,-143 50,-217 0,-51 -7,-103 -21,-153 -27,-99 -82,-188 -165,-252z"/>
 </g>
</svg>
