<?xml version="1.0" encoding="UTF-8"?>
<!DOCTYPE svg PUBLIC "-//W3C//DTD SVG 1.1//EN" "http://www.w3.org/Graphics/SVG/1.1/DTD/svg11.dtd">
<!-- Creator: CorelDRAW X8 -->
<svg xmlns="http://www.w3.org/2000/svg" xml:space="preserve" width="1767px" height="1405px" version="1.1" style="shape-rendering:geometricPrecision; text-rendering:geometricPrecision; image-rendering:optimizeQuality; fill-rule:evenodd; clip-rule:evenodd"
viewBox="0 0 1767 1405"
 xmlns:xlink="http://www.w3.org/1999/xlink">
 <defs>
  <style type="text/css">
   <![CDATA[
    .fil0 {fill:#A82682;fill-rule:nonzero}
   ]]>
  </style>
 </defs>
 <g id="Layer_x0020_1">
  <metadata id="CorelCorpID_0Corel-Layer"/>
  <path class="fil0" d="M884 381c161,0 301,54 374,203 18,-27 38,-58 58,-92 40,-66 98,-178 95,-256 -2,-61 -42,-124 -109,-124 -61,0 -112,46 -140,96 -20,36 -87,43 -126,37 -30,-5 -89,-30 -67,-70 65,-117 199,-175 331,-175 150,0 312,74 313,240 2,125 -78,243 -155,352 -55,78 -109,151 -132,228l52 0c111,0 227,24 307,103 52,51 81,121 82,194 1,73 -28,141 -81,192 -68,66 -166,96 -260,96 -92,0 -184,-28 -243,-101 -81,76 -190,101 -299,101 -110,0 -219,-25 -300,-101 -59,73 -151,101 -243,101 -94,0 -192,-30 -260,-96 -53,-51 -82,-119 -81,-192 1,-73 30,-143 82,-194 80,-79 197,-103 307,-103l64 0c5,-87 22,-177 65,-254 77,-136 213,-185 366,-185zm432 551c-2,44 -6,84 -14,127 -12,65 1,145 48,195 19,20 48,39 77,39 30,1 62,-19 83,-39 38,-36 56,-88 54,-139 -1,-50 -20,-102 -56,-137 -36,-36 -80,-46 -130,-46l-62 0zm-851 126c-8,-43 -12,-83 -13,-126l-63 0c-50,0 -94,10 -130,46 -36,35 -55,87 -56,137 -2,51 16,103 54,139 21,20 53,40 83,39 29,0 58,-19 77,-39 47,-50 59,-131 48,-196zm648 -126l-459 0c3,87 17,183 61,259 38,64 92,102 169,102 77,0 131,-38 169,-103 43,-76 57,-172 60,-258zm-458 -112l457 0c-5,-75 -20,-155 -57,-222 -38,-66 -93,-105 -171,-105 -79,0 -135,40 -172,106 -38,67 -52,146 -57,221z"/>
 </g>
</svg>
