<?xml version="1.0" encoding="UTF-8"?>
<!DOCTYPE svg PUBLIC "-//W3C//DTD SVG 1.1//EN" "http://www.w3.org/Graphics/SVG/1.1/DTD/svg11.dtd">
<!-- Creator: CorelDRAW X8 -->
<svg xmlns="http://www.w3.org/2000/svg" xml:space="preserve" width="1276px" height="1405px" version="1.1" style="shape-rendering:geometricPrecision; text-rendering:geometricPrecision; image-rendering:optimizeQuality; fill-rule:evenodd; clip-rule:evenodd"
viewBox="0 0 1276 1405"
 xmlns:xlink="http://www.w3.org/1999/xlink">
 <defs>
  <style type="text/css">
   <![CDATA[
    .fil0 {fill:#A82682;fill-rule:nonzero}
   ]]>
  </style>
 </defs>
 <g id="Layer_x0020_1">
  <metadata id="CorelCorpID_0Corel-Layer"/>
  <path class="fil0" d="M101 626c-32,0 -101,-14 -101,-55 0,-42 69,-56 101,-56l121 0c74,-319 315,-515 649,-515 135,0 270,33 382,108 39,27 24,62 -14,79 -41,18 -105,17 -142,-8 -69,-46 -143,-67 -226,-67 -241,0 -391,189 -444,403l653 0c33,0 102,14 102,56 0,41 -69,55 -102,55l-672 0c-3,26 -4,51 -4,76 0,24 1,47 3,71l619 0c32,0 101,14 101,56 0,42 -69,56 -101,56l-600 0c52,216 202,408 445,408 78,0 149,-19 215,-60 38,-25 103,-25 143,-6 39,19 49,54 10,79 -110,69 -239,99 -368,99 -336,0 -579,-199 -650,-520l-120 0c-32,0 -101,-14 -101,-56 0,-42 69,-56 101,-56l103 0c-2,-24 -3,-47 -3,-71 0,-25 2,-50 4,-76l-104 0z"/>
 </g>
</svg>
